<?xml version="1.0" standalone="no"?>
<!DOCTYPE svg PUBLIC "-//W3C//DTD SVG 20010904//EN"
 "http://www.w3.org/TR/2001/REC-SVG-20010904/DTD/svg10.dtd">
<svg version="1.0" xmlns="http://www.w3.org/2000/svg"
 width="650.000000pt" height="932.000000pt" viewBox="0 0 650.000000 932.000000"
 preserveAspectRatio="xMidYMid meet">
<metadata>
Created by potrace 1.16, written by Peter Selinger 2001-2019
</metadata>
<g transform="translate(0.000000,932.000000) scale(0.100000,-0.100000)"
fill="#000000" stroke="none">
<path d="M5605 9052 c-99 -65 -367 -190 -496 -231 -206 -66 -298 -100 -369
-138 -304 -164 -621 -457 -754 -695 -84 -151 -170 -475 -183 -688 l-6 -105
-75 -112 c-41 -61 -89 -149 -108 -194 -18 -47 -35 -77 -38 -69 -9 25 -35 234
-56 455 -34 343 -56 459 -110 580 -29 64 -81 125 -107 125 -30 0 -130 -62
-195 -121 -87 -78 -123 -148 -115 -220 5 -41 20 -72 81 -163 92 -136 163 -271
210 -393 36 -93 80 -279 74 -308 -2 -12 -29 10 -88 72 -116 122 -184 223 -315
468 -132 246 -234 393 -375 535 -141 143 -284 239 -480 323 -253 107 -497 121
-784 42 -312 -85 -663 -280 -958 -533 -100 -86 -142 -132 -120 -132 5 0 35 9
68 21 197 68 394 63 560 -16 94 -45 147 -86 299 -233 164 -157 310 -267 444
-332 131 -65 131 -64 216 -90 251 -75 567 -67 935 25 74 18 165 37 202 40 58
6 73 4 120 -18 30 -14 79 -50 111 -83 60 -60 177 -225 177 -248 0 -9 -24 -15
-77 -20 -206 -18 -458 -116 -632 -246 -177 -131 -304 -289 -421 -525 -117
-236 -183 -451 -270 -885 -45 -224 -91 -415 -116 -482 -63 -166 -83 -208 -153
-313 -40 -61 -63 -86 -241 -270 -91 -93 -192 -206 -225 -250 -318 -431 -434
-1016 -324 -1645 47 -271 147 -544 267 -729 42 -65 149 -197 183 -226 139
-118 211 -162 340 -209 160 -57 259 -69 517 -62 322 10 440 -8 610 -93 130
-65 200 -82 362 -88 156 -6 264 10 359 53 67 30 73 29 246 -7 98 -21 138 -23
370 -23 232 0 271 2 360 22 726 160 1187 722 1276 1557 16 146 5 456 -20 595
-59 326 -136 515 -456 1125 -140 267 -221 553 -300 1060 -71 456 -153 772
-253 970 -98 196 -286 385 -480 484 -149 76 -346 127 -532 139 l-115 7 -22 60
c-27 70 -25 128 7 219 47 138 102 216 199 280 73 49 159 72 336 90 183 18 278
42 388 97 155 77 372 255 501 409 39 47 74 87 77 90 21 17 118 181 168 285 86
176 131 293 242 630 90 272 118 366 108 364 -2 0 -22 -12 -44 -27z m-10 -84
c-19 -88 -118 -375 -222 -641 -110 -284 -200 -441 -346 -608 -206 -235 -449
-404 -660 -458 -42 -11 -143 -25 -225 -31 -81 -7 -167 -16 -192 -20 -25 -5
-47 -7 -49 -5 -2 3 2 25 9 50 16 56 133 215 233 317 108 110 232 167 508 238
85 21 145 39 134 39 -71 3 -434 -107 -548 -166 -16 -8 -31 -12 -34 -9 -9 8
188 221 323 348 52 49 124 68 294 78 l135 8 -145 -4 c-80 -2 -157 -6 -172 -10
-17 -4 -28 -2 -28 4 0 17 187 202 275 273 91 74 208 158 345 249 108 72 183
131 176 138 -3 2 -36 -18 -73 -45 -37 -27 -108 -76 -158 -108 -202 -132 -344
-244 -487 -384 -92 -89 -98 -94 -98 -67 0 15 16 89 35 163 19 75 33 138 31
141 -7 6 -52 -147 -80 -272 l-25 -108 -89 -92 c-49 -50 -131 -135 -183 -189
-51 -54 -95 -94 -97 -89 -1 5 8 58 22 118 31 141 49 255 44 280 -2 10 -8 -6
-12 -36 -10 -70 -81 -387 -94 -420 -5 -14 -60 -90 -122 -170 -62 -80 -124
-162 -138 -182 -13 -21 -29 -38 -35 -38 -20 0 1 196 37 343 74 298 153 446
343 644 250 258 498 420 789 513 218 70 269 90 421 166 82 40 152 73 156 73 5
1 6 -14 2 -31z m-3690 -767 c256 -70 490 -207 689 -405 120 -118 235 -292 411
-621 26 -49 56 -102 67 -117 32 -45 5 -32 -48 25 -289 304 -595 501 -880 567
-75 18 -92 26 -152 76 -37 31 -87 75 -111 97 -25 24 -39 33 -33 21 6 -11 32
-38 59 -60 90 -74 123 -114 94 -114 -75 0 -359 55 -486 95 -243 75 -269 80
-420 79 -138 0 -287 -25 -333 -55 -14 -8 -12 -9 8 -4 143 33 177 38 295 39 74
0 156 -5 190 -13 105 -23 245 -63 245 -71 0 -13 -36 -40 -116 -85 -43 -25 -75
-45 -70 -45 18 0 135 61 171 90 40 32 59 36 98 21 48 -19 173 -40 322 -56 83
-8 175 -20 205 -26 69 -13 150 -38 150 -47 0 -4 -31 -19 -69 -35 -126 -51
-272 -151 -332 -229 l-33 -43 56 52 c101 94 317 214 413 230 57 9 268 -104
439 -235 l59 -46 -34 -12 -34 -12 49 -1 50 -1 128 -129 c70 -71 128 -133 128
-137 0 -5 -42 -10 -93 -10 -88 -1 -138 -10 -427 -76 -132 -30 -484 -33 -600
-5 -137 34 -234 68 -345 123 -133 65 -194 111 -390 289 -178 162 -242 210
-357 265 -122 59 -237 78 -373 61 -55 -6 -113 -14 -129 -18 -40 -8 -31 6 39
63 323 264 692 454 1015 523 130 28 366 24 485 -8z m1392 -278 c11 -28 -17
-135 -51 -198 -41 -75 -95 -116 -155 -117 -26 0 -47 5 -52 13 -12 19 -11 82 1
115 14 36 136 156 185 182 49 26 64 27 72 5z m78 -65 c59 -129 83 -254 115
-588 35 -372 77 -605 135 -744 8 -20 15 -53 15 -75 0 -98 -149 -135 -236 -59
-32 29 -35 35 -31 72 3 23 10 59 16 81 12 47 -1 237 -25 349 -39 186 -120 373
-242 556 -39 58 -68 108 -65 113 2 4 19 7 36 7 115 1 219 132 234 297 3 35 8
63 10 63 2 0 19 -33 38 -72z m-20 -1330 c-27 -84 -6 -142 64 -178 54 -27 144
-27 189 0 39 24 72 75 72 113 0 26 2 27 53 27 131 0 373 -59 510 -125 266
-127 473 -374 572 -683 46 -146 73 -281 145 -727 90 -561 166 -847 283 -1065
311 -584 417 -847 484 -1200 22 -120 25 -514 5 -630 -122 -685 -463 -1141
-996 -1329 -271 -96 -682 -119 -943 -54 -35 8 -63 18 -63 22 1 20 116 75 181
86 64 10 185 43 222 60 l32 15 -35 -6 c-19 -3 -60 -9 -90 -15 -30 -5 -82 -9
-116 -9 -55 0 -144 -21 -169 -40 -23 -18 -195 -101 -255 -123 -96 -36 -204
-51 -328 -44 -148 8 -286 53 -452 148 -112 64 -168 89 -201 89 -19 0 -86 -9
-149 -20 -308 -54 -567 -26 -795 86 -64 31 -100 58 -176 134 -105 103 -151
167 -228 311 -108 204 -172 398 -227 694 -25 131 -30 455 -10 615 48 386 163
673 388 970 63 84 57 77 218 250 162 175 155 167 210 245 127 185 204 397 295
820 103 476 123 554 189 725 71 183 162 331 279 452 154 160 289 252 487 333
90 36 244 74 309 74 51 1 53 0 46 -21z"/>
</g>
</svg>
