<?xml version="1.0" standalone="no"?>
<!DOCTYPE svg PUBLIC "-//W3C//DTD SVG 20010904//EN"
 "http://www.w3.org/TR/2001/REC-SVG-20010904/DTD/svg10.dtd">
<svg version="1.0" xmlns="http://www.w3.org/2000/svg"
 width="768.000000pt" height="932.000000pt" viewBox="0 0 768.000000 932.000000"
 preserveAspectRatio="xMidYMid meet">
<metadata>
Created by potrace 1.16, written by Peter Selinger 2001-2019
</metadata>
<g transform="translate(0.000000,932.000000) scale(0.100000,-0.100000)"
fill="#000000" stroke="none">
<path d="M3405 8838 c4 -24 8 -135 10 -248 2 -113 9 -252 17 -310 12 -96 15
-105 36 -108 12 -2 22 -2 22 1 0 16 -32 226 -37 242 -8 25 -7 275 1 283 4 3
13 -3 20 -14 8 -10 28 -35 45 -54 51 -58 65 -117 63 -256 -2 -67 -7 -136 -12
-155 -22 -77 -2 -129 52 -129 21 0 137 114 199 195 50 66 129 193 129 208 0 6
-10 24 -23 41 -13 17 -27 39 -30 50 -5 11 -13 16 -23 12 -9 -3 -19 -6 -23 -6
-4 0 -12 -26 -19 -57 -14 -66 -52 -152 -106 -235 -36 -56 -80 -97 -93 -85 -3
4 -5 71 -4 150 2 146 -8 201 -45 247 -84 101 -116 150 -129 193 -8 28 -15 57
-15 64 0 7 -9 13 -21 13 -18 0 -20 -4 -14 -42z"/>
<path d="M5060 8586 c0 -8 -20 -41 -45 -75 -53 -72 -66 -102 -100 -235 -36
-139 -41 -199 -21 -274 9 -35 16 -65 16 -68 0 -2 -15 7 -34 20 -63 42 -162 69
-238 64 -58 -5 -76 -11 -132 -47 -133 -87 -195 -178 -205 -305 -5 -56 -16 -92
-53 -171 -47 -99 -67 -168 -65 -214 2 -31 -19 -38 -27 -9 -4 14 -36 43 -86 76
-44 28 -80 58 -80 66 0 7 21 57 46 110 57 121 71 192 57 285 -18 119 -68 193
-153 229 -41 17 -200 19 -242 3 -24 -9 -44 -2 -175 65 -82 42 -152 80 -157 85
-16 15 -78 10 -124 -11 -92 -42 -237 -216 -279 -335 -27 -75 -38 -172 -22
-191 18 -22 32 -16 26 12 -6 31 26 181 46 221 9 15 27 42 41 58 14 17 26 33
26 37 0 24 103 126 151 151 79 39 110 36 204 -23 44 -27 86 -50 93 -50 20 0
72 -29 72 -41 0 -5 -20 -22 -45 -37 -47 -28 -56 -46 -29 -56 16 -6 28 0 69 37
35 32 140 57 236 57 85 0 90 -1 124 -32 85 -74 120 -231 77 -348 -21 -59 -86
-208 -95 -216 -3 -3 -27 6 -54 19 -77 39 -145 51 -252 44 -110 -8 -179 -24
-303 -74 l-87 -35 -68 46 c-37 24 -94 69 -125 99 -71 66 -135 102 -169 94 -13
-3 -87 -69 -165 -146 l-140 -141 -69 25 c-51 18 -91 25 -147 25 -42 0 -80 5
-83 10 -4 6 9 30 28 53 40 49 87 138 87 165 0 11 -7 37 -16 58 -10 22 -20 66
-23 99 -7 75 -29 82 -50 15 -26 -86 -256 -400 -293 -400 -15 0 -4 74 22 143
11 30 37 77 57 103 31 40 38 58 41 107 5 61 -4 82 -30 72 -18 -7 -101 -146
-118 -199 -7 -22 -21 -53 -31 -70 -10 -17 -25 -64 -34 -104 -14 -61 -20 -72
-33 -66 -10 3 -57 21 -107 39 -49 18 -115 43 -145 56 -55 23 -258 167 -294
207 -23 26 -46 28 -47 5 -1 -20 -1 -22 -29 -183 -21 -119 -19 -144 14 -207 22
-44 60 -68 146 -91 67 -18 97 -20 275 -17 110 2 216 5 235 7 25 2 35 -1 38
-13 2 -13 -9 -17 -57 -22 -71 -6 -155 -46 -193 -90 -14 -18 -47 -54 -73 -82
-57 -61 -102 -150 -110 -220 -9 -66 9 -138 78 -314 55 -143 75 -170 208 -287
l46 -40 7 -199 c3 -110 11 -220 17 -245 5 -25 32 -227 59 -450 60 -491 66
-534 91 -632 47 -189 94 -283 216 -435 126 -156 219 -229 378 -293 121 -50
340 -114 455 -134 82 -14 205 -47 301 -81 50 -17 109 -65 109 -89 0 -9 -7 -33
-15 -53 -60 -155 -59 -338 3 -460 12 -23 19 -44 14 -46 -4 -3 -72 -21 -151
-41 -242 -62 -403 -137 -487 -227 -61 -66 -154 -203 -175 -258 -42 -112 -33
-275 21 -382 45 -86 286 -292 427 -363 103 -51 408 -137 578 -162 148 -21 559
-30 740 -15 247 20 368 39 492 77 212 64 331 132 469 269 203 200 243 401 127
643 -50 105 -124 175 -303 286 -221 137 -397 222 -481 233 -41 6 -41 6 -36 42
4 20 11 68 17 106 17 109 -7 214 -64 275 -64 68 -32 94 124 104 157 9 245 36
454 136 184 89 291 170 418 318 94 110 145 192 229 368 134 282 163 399 199
819 21 240 53 521 70 615 5 30 16 111 25 180 8 69 22 152 31 185 18 67 19 84
6 170 -14 96 -31 139 -86 211 -58 77 -153 153 -268 215 l-80 43 5 37 c3 20 23
75 45 121 46 96 46 92 -38 188 -31 36 -65 79 -75 95 -139 227 -140 227 -282
196 -165 -36 -389 -112 -541 -183 -45 -21 -84 -38 -87 -38 -2 0 -50 -22 -107
-49 l-103 -49 -28 -83 c-16 -46 -40 -110 -54 -142 -32 -71 -23 -88 31 -57 22
14 38 32 42 49 21 101 41 140 63 127 6 -4 5 -23 -4 -53 -18 -59 -13 -65 10
-13 19 41 41 52 52 25 7 -19 -55 -183 -71 -188 -6 -2 -29 0 -51 5 -22 6 -59 8
-83 5 -28 -3 -45 -1 -48 7 -2 6 14 61 36 120 30 83 37 112 29 122 -15 19 -21
18 -48 -7 -12 -12 -24 -19 -27 -16 -2 2 -5 73 -7 158 -2 145 -4 157 -30 215
-16 34 -28 74 -26 90 4 55 0 66 -23 62 -20 -3 -24 -11 -28 -58 -10 -99 -73
-230 -111 -230 -18 0 -8 53 22 113 41 81 89 231 89 282 1 100 107 218 248 275
36 14 130 9 196 -10 42 -13 102 -69 131 -124 17 -31 21 -33 75 -33 33 -1 67
-7 81 -16 13 -8 57 -25 96 -37 44 -12 77 -28 82 -39 10 -17 28 -107 38 -183 4
-33 9 -38 30 -38 23 0 25 3 19 28 -4 15 -13 63 -20 107 -7 44 -17 87 -20 96
-4 9 -45 31 -92 49 -82 31 -100 50 -46 50 15 0 68 -11 117 -25 114 -31 136
-31 203 3 90 44 150 111 218 242 38 74 67 119 82 125 26 11 27 18 7 35 -11 10
-43 6 -157 -19 -162 -36 -244 -57 -273 -71 -51 -25 -226 -87 -229 -81 -2 3 5
33 15 66 46 143 44 201 -16 352 -14 34 -25 75 -25 91 0 17 -3 37 -6 46 -8 20
-44 21 -44 2z m44 -169 c21 -56 26 -83 26 -160 0 -86 -3 -98 -39 -177 -34 -74
-38 -88 -27 -105 19 -29 43 -30 84 -2 20 13 55 30 76 37 22 7 72 27 111 45 40
18 128 45 196 59 68 15 132 28 141 30 31 7 30 -12 -8 -90 -63 -129 -196 -244
-281 -244 -17 0 -55 9 -86 19 -66 23 -184 41 -265 41 l-58 0 -28 105 -29 105
23 113 c12 61 33 139 44 173 24 64 75 140 86 127 4 -4 19 -38 34 -76z m-2775
-764 c6 -21 11 -44 11 -51 0 -24 -42 -97 -81 -139 -30 -32 -38 -49 -34 -66 5
-20 -2 -26 -64 -54 -57 -25 -76 -40 -107 -83 -27 -37 -39 -48 -45 -38 -14 22
-10 86 6 95 26 15 165 185 228 280 34 51 65 93 69 93 4 0 12 -17 17 -37z
m-994 -44 c4 -6 37 -31 74 -55 36 -25 89 -60 116 -80 28 -19 70 -41 95 -48 41
-13 152 -56 238 -93 30 -13 32 -17 32 -62 l0 -49 -42 -5 c-24 -3 -126 -5 -228
-3 -177 2 -187 3 -235 28 -98 51 -111 89 -86 264 15 109 22 127 36 103z m1610
-58 c17 -10 71 -55 120 -100 50 -44 95 -81 102 -81 27 0 22 -22 -13 -65 l-37
-45 -31 30 c-50 50 -240 210 -248 210 -19 0 -4 -20 40 -54 82 -64 221 -207
216 -221 -15 -38 -39 -22 -165 105 -74 74 -129 138 -129 149 0 23 73 91 98 91
9 0 31 -9 47 -19z m-26 -233 c151 -154 146 -141 79 -223 -24 -28 -35 -34 -52
-29 -26 8 -220 166 -260 211 -28 32 -46 42 -46 24 0 -5 65 -65 144 -132 131
-112 170 -159 133 -159 -19 0 -124 75 -202 145 -37 33 -71 62 -75 65 -13 9
-30 49 -30 70 0 26 93 123 114 118 15 -3 115 -89 227 -195 66 -63 79 -72 79
-53 0 13 -26 39 -105 105 -121 101 -179 161 -172 179 4 10 13 16 19 14 7 -2
73 -65 147 -140z m874 126 c82 -21 152 -62 264 -153 52 -41 56 -52 36 -91 -15
-30 -14 -34 19 -98 19 -37 38 -80 42 -97 4 -16 21 -49 37 -73 16 -23 29 -44
29 -45 0 -1 -46 -2 -102 -2 -88 0 -110 -4 -150 -23 -56 -28 -132 -107 -171
-179 -35 -65 -78 -193 -86 -258 l-6 -50 -115 3 c-125 4 -232 14 -380 36 -352
52 -326 46 -338 78 -7 20 -17 28 -34 28 -24 0 -77 45 -66 56 8 7 46 -12 73
-36 23 -21 90 -36 98 -23 4 6 -3 26 -13 46 -17 31 -20 57 -20 166 0 158 10
186 111 314 38 48 84 111 102 140 73 121 152 177 334 237 135 44 231 51 336
24z m1779 -5 c13 -5 56 -63 98 -130 41 -66 92 -137 112 -157 21 -20 38 -44 38
-53 0 -58 -61 -124 -248 -269 -46 -36 -114 -89 -150 -117 -37 -29 -72 -53 -78
-53 -5 0 -30 -13 -55 -28 -91 -58 -120 -50 -210 58 -29 36 -130 143 -225 238
-124 124 -178 172 -195 172 -22 1 -20 4 20 40 25 21 61 45 80 53 20 8 79 33
133 56 417 177 598 228 680 190z m-1178 -36 c14 -51 16 -143 6 -264 -10 -122
-15 -142 -49 -216 l-38 -83 -56 83 c-60 86 -99 178 -101 237 -1 33 2 36 54 57
75 30 160 129 160 187 0 22 17 20 24 -1z m-1919 -78 c58 -26 59 -28 36 -73
-24 -47 -28 -92 -8 -92 7 0 21 16 31 37 15 32 19 34 32 21 16 -16 51 -126 110
-348 34 -125 37 -147 38 -284 l1 -149 -80 -83 c-44 -45 -105 -116 -135 -159
-30 -42 -70 -95 -87 -118 -18 -23 -44 -59 -59 -81 -26 -38 -26 -38 -77 -32
-29 4 -83 22 -122 41 -87 42 -222 131 -235 155 -17 33 -42 51 -60 45 -25 -8
-97 50 -142 114 -41 58 -108 223 -134 327 -16 61 -16 70 0 126 26 93 58 146
138 229 54 57 84 80 113 88 51 14 130 14 157 0 26 -14 39 -1 62 64 24 65 78
120 161 163 69 35 72 36 150 29 44 -4 93 -13 110 -20z m236 -190 c19 -16 57
-48 84 -70 111 -91 110 -90 94 -113 -14 -20 -17 -18 -94 49 -44 38 -84 69 -88
69 -19 0 2 -23 72 -83 78 -65 100 -91 88 -103 -11 -11 -50 13 -111 67 -47 43
-58 60 -85 134 -44 123 -45 122 40 50z m3049 -244 c0 -5 -7 -14 -15 -21 -9 -8
-15 -30 -15 -57 0 -65 -70 -506 -91 -577 -5 -16 -9 -47 -9 -68 0 -22 -7 -55
-15 -73 -15 -30 -20 -33 -77 -39 -154 -16 -483 -1 -510 23 -13 12 44 260 65
289 6 7 20 49 31 93 l21 81 60 2 c51 1 69 7 122 41 83 54 164 116 248 190 67
59 160 125 177 125 4 0 8 -4 8 -9z m-1555 -46 c37 -11 62 -28 100 -70 28 -30
56 -55 63 -55 6 0 24 12 39 26 53 49 80 57 173 51 152 -10 258 -70 293 -168
51 -144 59 -183 52 -262 -8 -94 -31 -178 -88 -319 -48 -120 -93 -191 -137
-216 -36 -21 -45 -41 -26 -60 12 -12 19 -12 53 8 21 12 56 45 78 73 64 82 127
148 158 163 21 12 52 14 128 10 55 -3 103 -8 108 -10 4 -3 95 -1 201 4 129 6
198 6 206 -1 7 -5 24 -7 38 -3 17 4 35 0 51 -10 13 -9 32 -16 42 -17 46 -2
-181 -88 -367 -139 -63 -17 -155 -44 -205 -60 -126 -39 -316 -73 -485 -85 -47
-4 -155 -15 -240 -26 -85 -11 -220 -22 -300 -25 l-145 -6 -23 43 c-120 222
-168 349 -197 513 -24 142 -20 231 15 327 95 261 236 368 415 314z m1788 -192
c73 -59 142 -139 163 -190 31 -72 11 -198 -38 -250 -27 -28 -38 -16 -38 42 0
22 -7 65 -16 95 -8 30 -18 71 -22 90 -7 34 -8 35 -67 42 -33 3 -82 2 -109 -3
-45 -8 -61 -6 -123 16 -3 1 37 247 43 268 5 16 12 14 72 -19 37 -20 98 -61
135 -91z m-157 -285 c-4 -40 -18 -125 -30 -188 -21 -106 -24 -153 -6 -133 3 4
14 60 24 123 23 157 47 270 57 270 18 0 13 -66 -17 -225 -26 -139 -29 -175
-15 -175 12 0 21 26 21 62 0 43 51 311 61 322 20 22 20 -10 0 -126 -22 -128
-27 -218 -12 -218 4 0 11 38 14 85 8 114 37 257 51 252 6 -2 9 -19 8 -38 -2
-19 -9 -92 -15 -164 l-12 -130 -70 -37 c-81 -43 -89 -44 -114 -19 -10 10 -24
20 -32 23 -15 5 -7 50 43 261 35 142 55 168 44 55z m-2786 31 c74 -11 162 -25
195 -30 33 -5 137 -14 230 -19 174 -9 215 -15 215 -32 0 -5 -4 -7 -9 -4 -20
13 -43 -6 -37 -30 5 -17 -12 -63 -55 -157 -74 -160 -94 -211 -114 -302 -16
-69 -77 -184 -99 -186 -44 -4 -122 6 -256 31 -85 16 -198 34 -250 40 -116 14
-284 69 -595 195 -15 6 -8 10 33 16 71 9 92 25 140 107 23 39 48 77 55 84 7 7
34 45 60 84 41 62 120 146 181 194 10 8 46 18 80 21 34 3 68 7 76 7 8 1 76 -7
150 -19z m3110 -266 c0 -10 -16 -112 -34 -228 -37 -228 -51 -349 -66 -580 -24
-380 -101 -693 -232 -950 -159 -313 -413 -559 -683 -660 -144 -55 -238 -77
-364 -86 -97 -7 -132 -14 -162 -31 -52 -29 -57 -50 -23 -101 86 -127 104 -191
85 -303 -20 -118 -47 -184 -101 -247 -51 -60 -80 -130 -80 -194 0 -53 27 -93
93 -136 64 -42 77 -159 24 -215 -15 -16 -27 -33 -27 -40 0 -24 47 -11 77 20
52 55 56 72 43 147 -12 61 -17 70 -71 124 -32 32 -64 67 -70 79 -22 41 -2 100
72 208 59 88 71 101 76 82 3 -14 13 -22 27 -22 62 0 424 -176 521 -253 6 -4
46 -34 90 -66 122 -87 186 -187 204 -315 21 -146 -31 -274 -162 -401 -45 -44
-105 -99 -132 -121 -141 -115 -420 -210 -690 -235 -71 -7 -276 -13 -455 -13
-353 -1 -341 -2 -646 69 -289 67 -388 120 -618 329 -120 109 -141 154 -141
301 0 121 14 165 89 278 120 181 297 282 606 347 52 11 104 22 115 25 16 5 32
-6 70 -51 73 -84 74 -86 75 -122 0 -32 -5 -46 -65 -161 -37 -73 -46 -117 -34
-167 13 -50 67 -108 92 -98 15 5 14 11 -8 52 -14 26 -25 62 -25 80 0 32 30
101 76 173 63 100 31 198 -108 331 -101 97 -126 296 -59 476 17 46 31 95 31
108 0 37 -25 78 -57 93 -37 18 -209 64 -353 97 -341 75 -419 98 -527 153 -207
104 -373 278 -472 493 -52 114 -64 164 -136 591 -37 215 -105 822 -105 932 l0
115 77 -61 c42 -33 88 -66 102 -71 97 -39 137 -54 226 -83 55 -18 132 -47 170
-65 39 -18 99 -41 135 -51 36 -9 83 -24 105 -32 22 -9 101 -22 175 -31 74 -9
155 -22 180 -30 156 -51 792 -52 1345 -1 448 41 628 71 848 139 95 30 195 60
222 67 78 20 331 122 441 177 68 34 115 66 149 101 53 55 65 61 65 34z m-2451
-163 c91 -77 119 -110 131 -149 5 -19 8 -37 5 -39 -5 -5 -173 138 -199 170
-10 13 -27 33 -38 45 -17 18 -18 25 -7 44 12 22 12 22 28 3 9 -10 45 -44 80
-74z m-62 -47 c74 -59 244 -211 261 -231 21 -27 13 -34 -14 -13 -15 12 -31 21
-36 21 -8 0 -102 79 -240 203 -51 46 -63 67 -38 67 5 0 35 -21 67 -47z"/>
<path d="M6925 4697 c-14 -24 -48 -63 -75 -86 -54 -45 -118 -132 -145 -197 -9
-21 -23 -70 -31 -109 -8 -38 -19 -74 -24 -79 -5 -5 -18 10 -30 37 -20 41 -43
66 -180 187 -33 29 -52 70 -74 157 -18 73 -25 88 -41 88 -29 0 -87 -201 -87
-303 0 -72 5 -88 80 -234 2 -4 -9 -10 -25 -14 -93 -21 -187 -65 -236 -111
-185 -172 -332 -512 -288 -668 6 -23 30 -60 57 -89 37 -39 53 -68 83 -155 72
-202 144 -320 227 -371 53 -33 140 -30 256 11 125 43 134 48 203 119 69 71
101 90 148 90 38 0 134 57 178 106 43 48 145 258 181 374 32 106 33 276 1 335
-24 45 -82 103 -131 133 -35 21 -30 34 18 45 14 4 47 21 74 38 39 26 55 46 79
98 17 36 53 102 79 145 66 110 84 180 53 206 -19 16 -32 5 -37 -29 -5 -42 -80
-77 -254 -122 -88 -22 -174 -49 -192 -60 -51 -30 -55 -24 -23 40 36 70 76 120
108 132 12 5 23 14 23 21 0 7 20 74 44 148 32 96 41 139 34 148 -17 20 -26 14
-53 -31z m-581 -178 c6 -31 33 -62 173 -192 62 -57 88 -117 81 -180 -3 -27 0
-54 8 -68 19 -34 17 -56 -5 -62 -22 -5 -43 5 -102 54 -25 21 -56 40 -70 44
-14 3 -39 28 -59 57 -69 99 -75 115 -75 213 1 90 18 180 34 171 5 -3 11 -20
15 -37z m846 -213 c0 -2 -18 -35 -39 -73 -22 -37 -43 -80 -46 -95 -15 -59
-149 -149 -244 -164 -23 -4 -49 -13 -57 -21 -11 -12 -21 -12 -52 -3 -79 24
-85 30 -79 80 9 82 103 147 312 214 61 20 128 42 150 50 46 16 55 18 55 12z
m-772 -230 c36 -18 132 -83 157 -105 11 -10 61 -33 110 -51 73 -26 108 -32
183 -35 86 -2 96 -5 130 -32 54 -44 92 -124 92 -196 0 -90 -28 -204 -75 -302
-23 -49 -50 -113 -59 -142 -33 -100 -172 -213 -262 -213 -28 0 -46 -12 -111
-76 -77 -77 -144 -118 -213 -130 -19 -4 -40 -10 -46 -15 -5 -5 -38 -9 -71 -10
-69 -2 -93 11 -158 82 -42 47 -113 191 -140 284 -23 80 -45 122 -93 174 -34
38 -40 51 -46 105 -5 52 -2 75 23 146 36 109 123 285 162 330 68 79 86 97 125
128 67 52 121 72 197 72 39 0 79 -6 95 -14z"/>
<path d="M1381 4556 c-9 -11 -9 -25 -1 -55 11 -40 8 -96 -10 -196 -5 -27 -14
-124 -20 -215 -13 -208 -20 -270 -31 -270 -5 0 -9 5 -9 12 0 6 -9 30 -20 52
-11 23 -25 82 -32 131 l-13 90 -40 13 c-47 15 -47 15 -82 115 -23 66 -30 77
-47 75 -25 -4 -39 -64 -34 -153 4 -69 27 -108 129 -223 66 -73 103 -136 95
-158 -9 -23 -50 -16 -158 27 -107 43 -183 56 -261 45 -96 -15 -96 -46 -2 -116
102 -75 180 -112 250 -118 62 -4 65 -4 65 17 0 19 -4 22 -27 17 -49 -11 -143
21 -225 77 -43 28 -78 58 -78 64 0 19 44 26 123 20 56 -4 90 -13 152 -43 54
-25 99 -39 138 -42 l58 -4 -60 -57 c-74 -70 -165 -204 -186 -272 -17 -60 -20
-220 -5 -287 25 -108 46 -134 306 -382 128 -122 157 -145 224 -178 51 -25 64
-27 180 -26 205 0 431 38 506 85 43 26 95 135 123 254 19 83 21 105 13 260 -9
186 -13 199 -83 287 -37 48 -52 85 -64 159 -12 78 -192 282 -294 334 -54 27
-155 55 -197 55 -16 0 -60 -16 -98 -35 -39 -19 -71 -35 -73 -35 -2 0 -3 66 -2
148 1 150 -7 206 -43 290 -24 57 -139 252 -148 252 -4 0 -13 -6 -19 -14z m95
-193 c42 -94 74 -210 74 -273 0 -51 -26 -247 -36 -274 -3 -9 -1 -23 6 -31 7
-8 10 -21 7 -29 -5 -12 -13 -13 -39 -5 -50 14 -85 11 -130 -11 -52 -25 -59
-19 -21 18 32 29 37 57 58 342 7 83 38 340 42 340 2 0 19 -35 39 -77z m390
-480 c66 -22 93 -40 159 -102 102 -96 175 -204 175 -257 0 -46 25 -100 70
-148 56 -60 69 -108 81 -286 l10 -155 -30 -113 c-27 -104 -74 -203 -88 -188
-4 3 2 15 12 26 14 16 17 30 11 74 -9 76 -28 130 -48 134 -23 4 -27 -24 -11
-78 16 -57 17 -105 0 -118 -6 -6 -25 -14 -40 -17 -17 -5 -32 -17 -37 -31 -8
-19 -17 -24 -45 -24 -20 0 -49 -7 -66 -15 -46 -24 -236 -39 -326 -26 -97 14
-150 43 -244 134 -42 40 -115 107 -163 151 -174 157 -232 275 -207 423 18 108
45 179 98 256 69 102 194 196 261 197 33 0 74 -23 132 -75 87 -77 115 -46 33
37 l-47 48 20 22 c11 13 28 40 37 61 13 30 29 43 70 62 62 28 116 31 183 8z"/>
<path d="M1300 2270 c-19 -5 -84 -16 -143 -25 -165 -24 -295 -85 -397 -185
-106 -104 -136 -169 -141 -301 -1 -33 -6 -62 -10 -65 -14 -8 -174 110 -257
190 -46 45 -89 82 -98 84 -24 6 -28 -26 -10 -86 9 -31 28 -114 41 -183 31
-158 35 -169 86 -220 65 -65 115 -83 243 -86 59 -1 110 -4 112 -6 6 -6 -27
-40 -63 -65 -71 -50 -140 -201 -150 -329 l-6 -73 26 0 c36 0 68 43 131 175 54
114 134 231 165 242 9 4 35 24 58 45 43 39 73 49 73 25 0 -8 -9 -22 -20 -32
-22 -20 -18 -35 10 -35 27 0 47 36 53 95 7 62 -15 113 -57 134 -26 12 -34 11
-79 -7 l-50 -22 -66 35 c-78 41 -91 59 -98 135 -10 107 34 228 110 304 40 39
70 59 222 142 76 41 240 73 415 81 146 7 153 4 259 -84 50 -41 83 -59 136 -74
106 -31 126 -40 175 -75 139 -101 231 -261 206 -359 -9 -36 -82 -112 -125
-131 -20 -9 -82 -38 -137 -65 -110 -52 -140 -80 -271 -254 -75 -100 -124 -149
-188 -190 -85 -53 -126 -65 -243 -67 -93 -2 -114 1 -157 20 -96 44 -149 119
-163 230 -6 45 -11 58 -26 60 -18 4 -19 -1 -13 -78 6 -92 26 -132 99 -198 53
-49 69 -56 161 -76 73 -16 83 -17 159 -1 103 21 177 51 231 94 42 34 228 249
274 316 33 49 122 112 200 141 128 48 154 68 211 154 52 79 51 128 -6 243 -29
59 -57 98 -90 128 -70 62 -160 118 -201 124 -49 8 -151 57 -192 93 -19 16 -54
43 -78 60 -44 32 -45 32 -165 31 -67 -1 -137 -5 -156 -9z m-915 -480 c33 -34
85 -77 116 -95 50 -31 88 -68 170 -164 23 -26 31 -30 57 -25 25 5 38 1 62 -19
18 -16 26 -28 19 -32 -6 -4 -59 -12 -117 -17 -104 -10 -109 -10 -183 17 -139
49 -165 86 -194 281 -8 56 -18 109 -21 119 -11 29 24 4 91 -65z"/>
</g>
</svg>
