<?xml version="1.0" standalone="no"?>
<!DOCTYPE svg PUBLIC "-//W3C//DTD SVG 20010904//EN"
 "http://www.w3.org/TR/2001/REC-SVG-20010904/DTD/svg10.dtd">
<svg version="1.0" xmlns="http://www.w3.org/2000/svg"
 width="650.000000pt" height="674.000000pt" viewBox="0 0 650.000000 674.000000"
 preserveAspectRatio="xMidYMid meet">
<metadata>
Created by potrace 1.16, written by Peter Selinger 2001-2019
</metadata>
<g transform="translate(0.000000,674.000000) scale(0.100000,-0.100000)"
fill="#000000" stroke="none">
<path d="M6343 6647 c-29 -13 -55 -26 -59 -30 -11 -11 -93 -8 -115 3 -15 9
-26 6 -50 -11 -30 -21 -41 -22 -229 -21 -123 0 -206 4 -218 11 -12 6 -56 11
-99 11 -43 0 -95 5 -115 11 -27 7 -49 7 -75 -1 -27 -7 -53 -7 -90 2 -45 10
-58 9 -92 -6 -32 -15 -42 -16 -59 -5 -17 10 -32 8 -98 -13 -44 -14 -95 -26
-115 -26 -20 0 -53 -9 -75 -20 -21 -11 -55 -23 -74 -27 -19 -4 -39 -11 -45
-15 -5 -4 -28 -11 -50 -14 -41 -8 -176 -69 -198 -90 -7 -7 -37 -22 -69 -35
-64 -26 -136 -69 -224 -135 -33 -25 -86 -57 -117 -71 -36 -17 -87 -56 -144
-110 -48 -46 -99 -86 -113 -88 -31 -7 -243 -229 -284 -299 -16 -27 -35 -52
-43 -55 -7 -3 -23 -24 -35 -47 -11 -22 -29 -51 -39 -64 -29 -38 -80 -180 -95
-266 -8 -43 -19 -85 -26 -93 -23 -29 11 -303 47 -373 17 -33 20 -106 5 -115
-5 -3 -10 -14 -10 -23 0 -16 -77 -89 -85 -81 -2 2 -9 67 -15 143 -12 143 -32
221 -70 269 -11 14 -21 34 -23 45 -1 10 -29 42 -61 71 -76 65 -88 84 -97 144
-10 58 -34 96 -126 195 -44 47 -76 72 -90 72 -24 0 -141 58 -187 94 -64 49
-134 79 -169 72 -21 -4 -55 1 -93 13 -32 11 -70 20 -84 20 -14 0 -49 1 -79 1
-58 1 -146 -25 -172 -51 -12 -12 -28 -15 -60 -12 -74 8 -228 -38 -275 -82 -6
-5 -38 -23 -72 -40 -34 -16 -65 -37 -67 -47 -3 -9 -16 -19 -29 -22 -13 -3 -44
-22 -67 -42 -24 -21 -68 -53 -98 -72 -59 -38 -144 -121 -236 -231 -109 -131
-125 -153 -135 -193 -6 -21 -17 -41 -24 -44 -8 -3 -13 -22 -13 -47 -1 -33 -14
-65 -57 -140 -31 -53 -56 -100 -56 -104 0 -5 -14 -26 -30 -47 -22 -29 -30 -51
-30 -80 0 -36 -6 -46 -70 -106 -71 -69 -99 -115 -81 -133 7 -7 15 -7 23 0 22
18 122 42 149 36 15 -3 40 2 57 11 19 10 56 16 95 16 35 0 79 5 97 11 26 9 41
9 69 -1 48 -18 86 -14 173 15 79 27 118 31 135 14 17 -17 129 19 181 59 24 18
68 41 96 49 47 14 136 68 136 83 0 3 19 11 43 18 23 7 62 31 87 53 49 43 76
54 117 46 15 -3 49 2 76 10 27 8 59 12 70 9 11 -3 29 0 39 5 27 14 112 35 177
43 30 4 86 20 124 37 38 16 79 29 91 29 12 0 46 11 75 25 32 16 74 27 109 28
61 4 77 10 160 65 34 23 58 48 67 70 17 40 32 38 62 -7 47 -69 75 -296 44
-355 -11 -20 -12 -29 -3 -38 9 -9 15 -9 25 1 8 8 12 51 11 144 -1 117 -4 140
-28 201 -26 67 -29 90 -9 64 60 -80 94 -372 51 -452 -15 -28 -22 -146 -8 -146
6 0 18 -16 26 -36 13 -32 17 -34 27 -20 11 16 17 16 77 0 36 -10 103 -17 150
-18 108 0 220 35 289 92 53 45 83 62 106 62 13 0 14 -4 5 -20 -6 -11 -8 -30
-5 -43 5 -19 -3 -33 -44 -72 -27 -26 -74 -59 -103 -74 -40 -20 -54 -33 -56
-52 -3 -24 94 -262 159 -391 71 -141 265 -798 319 -1083 17 -88 45 -216 96
-440 13 -60 33 -148 44 -195 18 -81 70 -391 70 -417 0 -14 -48 -17 -66 -5 -16
11 -25 41 -30 102 -21 243 -49 452 -84 615 -50 240 -67 330 -80 435 -7 46 -15
91 -19 100 -5 8 -14 40 -21 70 -31 138 -164 557 -232 729 -35 89 -131 277
-156 305 -11 12 -29 38 -42 59 -32 54 -53 64 -157 72 l-91 6 -22 -48 c-11 -26
-33 -61 -48 -78 -42 -46 -85 -105 -117 -160 -16 -27 -45 -72 -65 -100 -34 -46
-105 -162 -161 -262 -25 -45 -130 -225 -188 -321 -98 -165 -201 -392 -251
-552 -17 -58 -41 -125 -52 -150 -21 -46 -65 -175 -98 -290 -11 -36 -29 -91
-40 -123 -39 -109 -74 -319 -75 -447 l0 -55 -49 -3 c-27 -2 -53 1 -59 7 -10
10 2 71 45 236 12 44 25 100 29 125 4 25 12 65 18 90 7 25 21 86 33 135 12 50
25 98 30 108 5 11 20 53 33 95 29 97 101 283 150 387 71 155 242 491 283 558
23 37 42 69 42 71 0 9 88 147 134 211 55 76 125 176 141 203 59 97 156 235
201 285 19 21 34 46 32 55 -5 26 -69 27 -146 2 -98 -32 -99 -32 -78 -15 11 8
23 15 28 15 16 0 7 47 -12 65 -12 10 -46 24 -78 30 -49 10 -58 15 -60 35 -2
14 -10 33 -18 44 -8 11 -14 36 -14 54 0 29 3 32 20 27 21 -7 60 10 60 26 0 10
-9 23 -40 58 -34 38 -79 108 -85 132 -4 18 0 33 14 50 l21 24 20 -25 c11 -14
20 -32 20 -40 0 -19 53 -112 73 -129 13 -10 15 -9 10 10 -7 24 28 58 60 59 21
0 23 26 1 34 -8 3 -24 1 -34 -4 -16 -8 -23 -1 -53 53 -18 34 -39 79 -46 100
-18 54 -47 50 -106 -15 -46 -50 -47 -54 -42 -100 3 -26 14 -59 23 -74 14 -20
18 -52 20 -136 2 -76 8 -117 18 -132 8 -12 16 -33 18 -46 4 -30 40 -50 91 -50
20 0 37 -4 37 -9 0 -9 -100 -51 -121 -51 -73 0 -488 -268 -659 -425 -112 -103
-176 -162 -229 -211 -128 -118 -200 -192 -230 -239 -19 -27 -44 -63 -58 -80
-90 -112 -199 -280 -209 -322 -4 -15 -29 -70 -56 -122 -27 -52 -64 -137 -83
-190 -18 -53 -44 -123 -56 -156 -12 -33 -27 -82 -33 -110 -11 -49 -13 -50 -46
-49 -19 1 -80 14 -135 29 -108 29 -135 29 -310 1 -170 -27 -318 -93 -454 -202
-90 -73 -186 -211 -215 -309 -20 -68 -38 -210 -43 -335 -6 -172 8 -264 65
-409 32 -80 48 -106 113 -177 111 -123 195 -191 294 -242 46 -23 203 -77 285
-98 30 -8 76 -23 102 -34 84 -36 255 -53 395 -40 35 4 46 0 70 -24 30 -30 107
-86 118 -86 4 0 38 -20 75 -45 105 -70 165 -93 300 -116 174 -29 382 -24 485
13 161 58 274 132 398 262 88 93 192 253 235 364 130 336 114 559 -61 816 -63
95 -101 133 -190 196 -130 91 -249 145 -351 160 -32 5 -59 10 -61 12 -3 3 18
112 33 168 49 183 130 406 210 580 178 387 336 696 436 854 31 49 56 93 56 97
0 17 158 249 263 388 l41 53 46 -6 c25 -3 54 -8 65 -10 11 -3 23 -5 26 -5 12
-2 92 -132 130 -214 22 -45 43 -89 48 -97 25 -46 152 -384 176 -470 7 -25 28
-97 47 -160 48 -155 96 -360 104 -440 3 -36 28 -171 55 -300 27 -129 52 -265
56 -302 l6 -66 -44 -6 c-24 -3 -78 -8 -119 -11 -54 -5 -109 -20 -195 -52 -66
-25 -122 -48 -125 -52 -3 -3 -21 -15 -40 -25 -19 -11 -37 -22 -40 -26 -3 -4
-23 -20 -45 -36 -67 -49 -85 -67 -132 -134 -60 -84 -118 -210 -143 -308 -65
-258 -42 -417 90 -632 101 -164 271 -324 400 -378 19 -8 82 -36 139 -63 80
-39 122 -52 185 -60 100 -14 396 -3 457 16 44 13 220 108 291 156 108 73 253
304 314 499 59 188 72 305 55 478 -15 143 -33 193 -109 301 -83 116 -245 267
-339 315 -29 14 -90 35 -135 46 -83 20 -89 20 -270 -5 -30 -4 -38 -2 -38 11 0
8 -9 52 -19 97 -11 45 -27 125 -36 177 -9 52 -23 116 -31 141 -7 26 -14 55
-14 65 0 47 -97 458 -156 659 -99 339 -165 534 -217 645 -72 155 -129 295
-131 320 -1 19 6 27 29 35 54 18 103 55 137 103 38 53 63 107 55 120 -3 4 -3
30 1 58 l7 49 70 2 c252 5 336 16 387 49 30 19 51 24 104 24 73 0 217 39 256
69 39 31 80 47 153 61 103 19 285 93 285 115 0 6 32 27 72 46 95 45 146 83
154 114 3 14 33 46 71 76 68 53 84 76 63 89 -8 5 3 18 36 41 63 43 144 118
144 134 0 6 34 42 75 79 41 37 78 79 81 93 4 14 22 50 40 81 19 31 34 61 34
68 0 7 23 41 51 76 57 71 68 92 79 163 4 28 14 65 21 83 10 24 11 37 3 50 -9
14 -5 25 22 57 22 24 32 45 29 56 -3 9 3 32 15 51 11 18 20 45 20 60 0 15 14
47 30 71 17 25 30 54 30 65 0 11 10 33 23 49 13 15 31 51 41 78 25 70 68 155
78 155 4 0 8 5 8 10 0 15 -19 12 -77 -13z m17 -36 c-5 -11 -14 -22 -19 -25 -5
-3 -12 -22 -16 -43 -6 -34 -95 -216 -129 -265 -9 -12 -16 -38 -16 -58 0 -19
-7 -44 -15 -54 -8 -11 -15 -32 -15 -46 0 -16 -15 -44 -37 -70 -24 -27 -33 -45
-25 -48 14 -4 15 -25 3 -66 -6 -17 -18 -62 -27 -101 -14 -55 -25 -77 -53 -104
-49 -47 -92 -102 -86 -111 3 -5 -11 -31 -30 -60 -19 -29 -35 -58 -35 -66 0
-21 -73 -97 -130 -136 -39 -26 -50 -39 -50 -60 0 -19 -10 -35 -37 -54 -137
-100 -144 -107 -139 -129 5 -18 -6 -32 -54 -71 -32 -27 -59 -56 -59 -65 -1
-23 -26 -42 -117 -87 -44 -22 -94 -52 -111 -66 -40 -34 -168 -84 -262 -103
-41 -9 -89 -22 -106 -30 -60 -29 -75 -38 -75 -45 0 -13 -106 -37 -210 -48 -84
-8 -111 -15 -140 -35 -30 -21 -51 -26 -125 -30 -50 -2 -138 -8 -197 -11 -76
-5 -111 -4 -121 5 -11 9 -17 8 -26 -3 -11 -13 -126 -28 -224 -28 -71 0 -166
23 -204 49 -32 21 -39 23 -65 12 -16 -6 -62 -48 -103 -92 -41 -44 -77 -78 -79
-76 -3 3 -1 22 4 44 7 31 25 54 79 105 l70 65 7 66 c4 50 2 73 -9 95 -66 128
-64 393 5 598 24 72 93 202 117 219 10 6 30 35 46 62 16 28 58 82 94 120 36
39 87 94 112 123 32 35 54 52 70 52 17 0 50 26 108 84 56 57 103 94 140 111
30 15 83 48 116 75 33 26 103 70 155 98 52 27 138 73 190 101 52 28 104 51
115 51 12 0 38 9 60 20 22 11 47 20 55 20 9 0 45 12 80 26 37 15 72 23 86 20
13 -4 53 6 100 25 66 27 80 29 100 18 19 -10 31 -9 69 6 38 14 51 15 75 5 17
-7 45 -10 67 -6 53 9 21 11 423 -22 138 -12 317 -5 346 13 13 9 43 11 85 9 50
-4 73 0 104 15 55 27 79 27 65 2z m-4092 -955 c24 -2 68 -16 98 -31 52 -25 67
-26 70 -4 1 5 2 11 3 14 2 10 85 -37 139 -79 30 -22 71 -50 91 -61 20 -11 53
-30 73 -43 20 -12 41 -21 46 -20 15 4 77 -56 122 -116 24 -33 42 -73 52 -113
8 -35 13 -63 11 -63 -2 0 -22 12 -45 26 -23 15 -56 32 -73 40 -21 8 -42 32
-68 76 -21 36 -68 93 -105 129 -89 86 -192 151 -192 122 0 -5 21 -20 48 -35
77 -44 178 -143 222 -218 22 -38 40 -76 40 -84 0 -11 9 -16 28 -16 15 0 47
-12 71 -25 24 -14 53 -27 65 -29 11 -1 22 -8 24 -14 5 -15 -9 -15 -45 -1 -15
5 -64 17 -108 25 l-80 14 -30 -37 c-16 -20 -65 -73 -107 -117 -43 -44 -76 -81
-74 -83 11 -12 70 34 144 112 75 78 86 86 110 80 15 -4 46 -6 69 -5 23 0 57
-6 75 -13 24 -10 38 -11 50 -3 14 8 24 4 50 -21 37 -36 74 -93 60 -93 -4 0
-21 14 -37 30 -34 36 -55 38 -55 8 0 -33 -52 -117 -86 -139 -16 -10 -43 -19
-61 -19 -17 0 -34 -4 -37 -9 -3 -5 -27 -12 -52 -16 -26 -3 -63 -15 -83 -25
-20 -10 -54 -22 -75 -26 -22 -4 -51 -13 -65 -20 -14 -8 -34 -14 -43 -14 -9 0
-19 -4 -22 -9 -6 -9 -70 -24 -116 -26 -14 0 -45 -7 -68 -15 -35 -11 -48 -11
-63 -1 -17 10 -25 8 -49 -9 -25 -18 -138 -39 -206 -40 -7 0 -40 -21 -75 -47
-35 -25 -77 -49 -94 -53 -16 -4 -37 -11 -45 -14 -13 -5 -15 22 -14 216 1 142
5 233 13 251 14 36 14 37 -4 37 -31 0 -38 -52 -39 -286 l-1 -230 -27 -36 c-18
-24 -38 -38 -61 -42 -19 -4 -54 -22 -79 -41 -62 -49 -128 -67 -185 -52 -36 9
-48 9 -71 -5 -52 -30 -192 -51 -221 -34 -16 10 -228 -13 -274 -30 -20 -8 -63
-14 -94 -14 l-57 0 52 52 c36 36 55 64 62 92 11 43 23 69 108 223 28 51 58
114 67 140 8 26 19 57 24 68 5 11 17 40 26 64 22 61 70 118 114 139 28 14 36
23 36 44 0 20 18 47 59 94 32 36 62 61 65 55 4 -7 21 -7 51 0 24 5 69 7 99 3
84 -10 276 -52 340 -75 77 -27 85 -28 89 -2 7 48 67 71 242 93 107 14 120 18
120 37 0 11 -5 13 -17 8 -10 -4 -72 -16 -138 -27 -142 -22 -198 -41 -221 -75
-11 -18 -21 -23 -37 -19 -89 25 -384 76 -441 76 -54 0 -45 20 37 85 74 59 93
69 140 79 18 4 27 13 27 26 0 13 14 26 44 40 25 11 47 20 50 20 3 0 24 13 48
29 58 39 171 71 248 71 50 0 68 4 85 20 25 23 118 49 160 44 17 -2 49 -5 73
-8z m1223 -1166 c33 -17 61 -21 170 -23 l130 -2 -28 -23 c-85 -71 -271 -134
-329 -112 -14 6 -40 10 -59 10 -41 0 -85 16 -85 30 0 17 128 140 145 140 9 0
34 -9 56 -20z m-296 -473 c-78 -95 -137 -176 -221 -304 -52 -78 -94 -144 -94
-148 0 -3 -8 -18 -19 -33 -10 -15 -35 -54 -56 -87 -21 -33 -54 -85 -75 -115
-60 -87 -302 -576 -364 -732 -14 -38 -38 -98 -52 -134 -14 -36 -39 -105 -54
-153 -66 -201 -129 -375 -141 -381 -14 -9 -138 -29 -200 -32 -42 -2 -50 3
-134 70 -88 71 -152 102 -272 132 -24 6 -43 16 -43 22 0 13 104 326 124 373 7
17 23 57 36 90 27 72 129 285 144 301 6 7 31 42 56 79 25 37 74 103 109 148
93 119 546 562 628 613 15 10 30 21 33 25 12 16 200 133 245 154 28 12 80 36
115 53 101 48 207 92 224 92 8 0 18 5 22 12 6 9 9 9 12 0 2 -7 -8 -27 -23 -45z
m-185 36 c0 -8 -44 -29 -155 -77 -67 -29 -236 -138 -368 -237 -34 -26 -179
-163 -323 -305 -334 -332 -412 -432 -559 -728 -25 -49 -45 -96 -45 -103 0 -8
-10 -33 -22 -56 -11 -23 -25 -55 -29 -72 -28 -106 -78 -265 -91 -290 -8 -16
-19 -57 -23 -90 -11 -95 -85 -359 -106 -380 -3 -2 -22 0 -43 6 -64 18 -65 39
-8 165 28 60 55 129 62 154 6 25 25 88 42 140 130 413 161 494 273 695 42 76
158 248 188 280 11 11 36 43 57 70 46 61 202 222 290 297 36 31 81 71 100 88
19 17 78 63 130 103 52 39 97 74 100 77 9 11 183 126 230 152 25 14 56 29 70
33 14 4 57 22 95 40 87 41 135 54 135 38z m-1923 -1903 c93 -10 168 -42 159
-67 -3 -8 -9 -27 -12 -41 -3 -15 -20 -58 -37 -95 l-31 -69 -39 6 c-28 5 -47 2
-63 -9 -24 -15 -24 -15 -22 16 4 43 -23 61 -51 35 -27 -25 -27 -70 2 -121 31
-55 194 -165 246 -165 61 0 66 -11 28 -61 -97 -130 -142 -279 -153 -504 -9
-186 33 -360 120 -488 14 -21 26 -41 26 -44 0 -3 11 -21 26 -40 14 -18 23 -37
19 -42 -3 -6 -27 -13 -52 -17 -53 -8 -154 12 -263 51 -113 41 -154 53 -220 65
-62 11 -198 73 -276 125 -59 39 -213 204 -239 256 -69 135 -90 257 -82 478 5
141 8 163 35 232 41 107 91 185 161 252 34 31 63 57 67 57 3 0 24 13 47 28
136 92 265 139 442 162 33 4 65 8 70 9 6 0 47 -3 92 -9z m494 -151 c90 -39
159 -89 159 -116 0 -7 -19 -17 -41 -23 -79 -22 -194 -70 -236 -100 -23 -17
-46 -30 -52 -30 -21 0 -10 147 20 263 16 60 25 60 150 6z m3024 -64 c33 -9 93
-31 133 -50 127 -60 259 -224 332 -411 37 -98 40 -111 40 -207 -1 -189 -21
-296 -83 -437 -66 -152 -81 -182 -121 -240 -59 -86 -176 -191 -259 -232 -118
-59 -168 -68 -369 -69 -171 0 -188 1 -262 26 -122 40 -212 86 -316 160 -92 67
-106 79 -180 161 -61 67 -126 188 -150 276 -19 72 -22 99 -17 228 3 124 8 158
32 230 33 102 54 145 107 225 76 112 233 225 365 261 32 9 116 26 186 38 l128
22 4 -21 c2 -11 7 -41 10 -67 6 -47 6 -47 -22 -47 -15 0 -42 -3 -60 -6 -32 -7
-32 -7 -29 -66 3 -71 16 -87 98 -124 89 -40 183 -40 257 0 43 24 58 39 74 74
15 34 17 49 8 67 -16 35 -50 32 -57 -5 -7 -36 -49 -49 -64 -21 -13 24 -42 209
-36 226 10 25 166 31 251 9z m-2185 -99 c103 -23 161 -49 259 -116 85 -58 187
-159 237 -235 64 -96 120 -318 109 -435 -19 -212 -140 -475 -285 -620 -105
-106 -182 -158 -278 -189 -158 -52 -239 -64 -391 -59 -100 4 -151 10 -191 25
-30 11 -86 30 -125 42 -38 13 -86 33 -105 46 -19 12 -52 30 -74 40 -49 24
-229 205 -251 253 -19 44 -20 45 -68 117 -22 31 -44 73 -49 93 -12 43 -16 311
-6 397 15 133 96 303 195 410 77 84 201 144 376 184 96 21 315 46 324 37 4 -4
-1 -35 -10 -70 -9 -36 -17 -75 -17 -89 0 -13 -9 -36 -20 -50 -11 -14 -20 -30
-20 -37 0 -29 -25 0 -28 32 -6 67 -86 71 -113 6 -25 -61 30 -104 177 -139 128
-31 259 -23 349 22 65 32 83 56 64 90 -5 11 -21 22 -36 25 -20 5 -30 2 -44
-17 l-18 -24 -26 25 c-26 24 -27 28 -21 100 7 74 16 150 19 150 1 0 31 -6 67
-14z"/>
<path d="M5888 6493 c-38 -57 -58 -100 -58 -121 0 -14 -13 -25 -42 -37 -83
-32 -218 -99 -218 -107 0 -4 -6 -8 -12 -8 -13 0 -65 -34 -129 -82 -20 -16 -39
-28 -44 -28 -4 0 -5 28 -2 63 5 58 5 60 -8 32 -18 -38 -19 -122 -2 -128 6 -2
37 16 67 40 30 24 60 47 65 51 72 57 280 161 354 177 18 4 35 14 39 23 3 10
15 24 27 34 21 17 165 87 224 109 19 7 30 14 24 16 -15 5 -173 -60 -241 -99
-29 -17 -55 -28 -58 -25 -3 3 5 25 18 49 12 23 26 51 30 61 13 31 -9 18 -34
-20z"/>
<path d="M5430 6438 c-81 -110 -120 -216 -120 -323 0 -69 -3 -74 -51 -102 -19
-11 -71 -47 -115 -79 -110 -82 -182 -130 -249 -165 -22 -12 -66 -39 -98 -61
-33 -22 -61 -37 -64 -34 -3 3 -6 40 -5 83 0 50 -3 72 -9 62 -13 -20 -11 -176
2 -184 6 -4 20 2 32 13 24 22 215 152 223 152 8 0 208 142 226 161 10 10 48
32 85 50 83 39 79 35 59 54 -43 43 6 231 94 362 40 59 31 68 -10 11z"/>
<path d="M4865 6328 c-41 -48 -112 -190 -143 -288 -42 -130 -57 -239 -62 -467
0 -6 -24 -23 -52 -37 -29 -14 -91 -60 -138 -102 -47 -42 -110 -93 -141 -113
-31 -21 -68 -49 -83 -65 -16 -15 -33 -25 -39 -23 -8 2 -13 35 -15 88 -4 129
-22 123 -22 -7 0 -61 3 -114 6 -117 9 -9 42 10 99 57 28 23 63 50 79 60 15 10
54 41 85 70 116 104 128 114 164 125 19 7 47 21 61 32 25 20 26 23 26 144 0
247 74 494 192 638 49 58 33 63 -17 5z"/>
<path d="M5882 6339 c-18 -5 -77 -36 -131 -69 -105 -63 -151 -85 -191 -94 -14
-3 -38 -17 -55 -31 l-30 -25 28 -25 c30 -27 45 -29 192 -27 153 3 165 18 15
18 -135 0 -196 12 -188 36 5 13 9 15 87 49 30 13 61 30 68 38 18 18 222 121
239 121 8 0 14 5 14 10 0 12 -4 11 -48 -1z"/>
<path d="M4289 5958 c-32 -34 -73 -97 -103 -156 -47 -94 -57 -157 -59 -370 -2
-182 -4 -200 -24 -239 -13 -23 -41 -54 -64 -70 -119 -81 -308 -243 -285 -243
3 0 56 42 118 93 112 91 206 157 225 157 5 0 20 26 33 58 23 54 24 69 25 272
1 197 3 220 23 275 28 77 70 153 100 185 25 27 46 60 38 60 -3 0 -15 -10 -27
-22z"/>
<path d="M4933 5693 c-26 -21 -86 -66 -133 -100 -47 -35 -136 -102 -199 -150
-62 -47 -130 -92 -150 -98 -20 -7 -40 -21 -45 -31 -17 -37 -277 -227 -348
-255 -28 -11 -38 -29 -17 -29 6 0 1 -13 -10 -29 -12 -16 -21 -32 -21 -35 0
-11 116 -64 186 -85 56 -17 106 -22 250 -25 l179 -5 -180 14 c-99 8 -198 20
-220 27 -55 16 -185 78 -185 87 0 17 118 128 155 145 42 20 211 150 217 167 6
18 82 38 143 38 33 1 121 -11 195 -25 295 -56 373 -66 460 -60 74 4 157 22
148 31 -2 2 -29 -3 -61 -10 -76 -18 -237 -5 -402 30 -66 14 -172 35 -235 47
-63 11 -117 22 -119 24 -4 4 45 46 113 96 28 21 56 41 61 45 6 5 26 20 45 33
19 13 40 28 45 33 59 48 170 127 186 132 10 4 19 11 19 16 0 19 -30 8 -77 -28z"/>
<path d="M3802 5543 c-10 -27 -23 -83 -57 -248 -9 -44 -18 -89 -21 -100 -2
-11 -11 -87 -19 -170 l-15 -150 -58 -55 c-87 -82 -156 -140 -169 -140 -6 0
-16 31 -23 72 -17 97 -8 255 19 338 23 72 25 84 12 76 -15 -10 -49 -119 -61
-200 -15 -101 3 -287 31 -320 9 -10 54 21 109 75 94 91 129 118 148 113 18 -5
20 2 26 133 8 154 55 459 87 561 13 41 6 53 -9 15z"/>
<path d="M1916 5492 c5 -5 36 -16 69 -26 126 -38 219 -97 275 -174 29 -41 33
-43 49 -28 10 9 20 14 22 11 3 -2 50 -10 105 -16 86 -10 263 -51 317 -74 26
-11 22 23 -5 45 -17 13 -27 15 -36 8 -9 -8 -36 -5 -95 10 -45 12 -107 24 -137
27 -166 18 -185 24 -236 73 -27 26 -74 60 -106 75 -95 47 -254 96 -222 69z"/>
<path d="M2160 5205 c-24 -9 -34 -19 -33 -32 4 -33 -28 -137 -60 -197 -17 -32
-64 -94 -104 -136 -40 -43 -73 -81 -73 -84 0 -37 146 113 200 204 21 36 46 98
57 139 13 55 23 75 39 81 72 28 341 15 447 -22 66 -22 94 -20 56 6 -42 27
-153 44 -329 49 -124 4 -174 2 -200 -8z"/>
<path d="M1735 5120 c4 -13 2 -20 -6 -20 -28 0 -142 -86 -184 -139 l-44 -56
-113 -11 c-206 -21 -429 -77 -404 -101 3 -4 21 1 38 10 62 31 386 83 436 70
37 -9 25 -29 -48 -83 -71 -51 -71 -51 -63 -88 17 -81 9 -143 -30 -221 -20 -40
-37 -78 -37 -84 0 -22 34 21 68 87 35 68 37 75 35 163 l-2 93 32 22 c18 12 52
39 77 61 25 21 73 57 108 79 58 38 76 58 52 58 -6 0 -29 -12 -51 -26 -23 -14
-43 -23 -46 -20 -3 3 8 23 24 46 45 60 136 120 183 120 26 0 26 36 1 50 -28
15 -33 13 -26 -10z"/>
<path d="M1326 4798 c-20 -18 -72 -64 -114 -102 -84 -75 -123 -102 -222 -153
-74 -39 -108 -67 -121 -102 -15 -37 -3 -36 31 2 27 31 154 114 203 132 23 9
22 -11 -3 -60 -24 -47 -24 -45 -5 -45 9 0 28 26 44 60 25 51 27 60 13 60 -19
0 -3 16 143 145 50 43 92 83 93 87 8 19 -27 5 -62 -24z"/>
</g>
</svg>
