<?xml version="1.0" standalone="no"?>
<!DOCTYPE svg PUBLIC "-//W3C//DTD SVG 20010904//EN"
 "http://www.w3.org/TR/2001/REC-SVG-20010904/DTD/svg10.dtd">
<svg version="1.0" xmlns="http://www.w3.org/2000/svg"
 width="800.000000pt" height="1063.000000pt" viewBox="0 0 800.000000 1063.000000"
 preserveAspectRatio="xMidYMid meet">
<metadata>
Created by potrace 1.16, written by Peter Selinger 2001-2019
</metadata>
<g transform="translate(0.000000,1063.000000) scale(0.100000,-0.100000)"
fill="#000000" stroke="none">
<path d="M3087 7118 c2 -51 7 -100 11 -108 6 -16 28 -138 38 -212 9 -64 -13
-172 -46 -233 -38 -69 -93 -214 -120 -313 -12 -46 -30 -103 -40 -127 -11 -25
-22 -61 -26 -82 -3 -21 -13 -60 -22 -86 -12 -39 -14 -75 -8 -173 4 -75 3 -124
-3 -124 -5 0 -28 18 -51 40 -23 22 -54 47 -71 57 -26 15 -29 23 -29 65 0 42
-3 50 -24 57 -13 5 -26 19 -29 31 -4 17 -10 20 -26 15 -16 -5 -23 -1 -31 20
-8 21 -15 25 -31 20 -14 -5 -25 -1 -33 10 -11 15 -15 16 -34 4 -19 -12 -24
-11 -44 8 -18 17 -27 19 -42 11 -10 -6 -21 -6 -25 -2 -3 5 -22 17 -43 28 -20
10 -38 27 -41 37 -4 15 -13 19 -39 17 -29 -3 -33 0 -36 25 -4 32 -22 36 -29 7
-9 -32 -24 -19 -62 52 -80 149 -81 150 -102 145 -21 -6 -42 10 -69 52 -14 21
-18 22 -38 10 -30 -19 -54 -3 -67 44 -12 43 -23 56 -34 38 -11 -16 -96 7 -139
39 l-30 22 -22 -22 c-20 -20 -29 -22 -85 -16 -49 5 -64 3 -68 -8 -3 -8 -28
-21 -55 -30 -33 -11 -52 -24 -55 -36 -3 -11 -14 -20 -25 -20 -10 0 -30 -8 -43
-18 -13 -11 -46 -22 -73 -25 -55 -8 -77 -22 -69 -43 6 -16 -23 -43 -46 -44
-11 0 -11 3 -1 15 20 24 4 29 -58 18 -60 -11 -149 -7 -168 8 -6 5 -18 7 -26 4
-8 -3 -21 1 -28 10 -9 11 -32 15 -91 15 -68 0 -81 3 -99 22 -11 12 -20 25 -20
30 0 4 -13 8 -29 8 -16 0 -34 7 -41 15 -7 8 -30 20 -51 26 -21 7 -46 20 -55
31 -10 10 -27 18 -39 18 -37 0 -85 12 -85 21 0 5 32 9 70 9 56 0 70 3 70 15 0
8 4 15 9 15 5 0 28 -7 51 -15 23 -8 55 -15 71 -15 19 0 29 -5 29 -15 0 -8 8
-15 18 -14 10 0 12 3 5 6 -7 2 -13 9 -13 15 0 10 19 8 128 -8 32 -5 47 -2 60
9 16 15 21 14 61 -8 45 -26 66 -32 56 -15 -3 5 7 15 22 23 31 15 178 17 270 3
45 -7 51 -6 55 10 3 15 13 19 60 19 31 1 64 7 73 15 11 9 47 13 116 13 55 0
102 4 105 9 4 5 -5 21 -17 35 l-24 26 40 -9 c22 -5 73 -9 112 -8 62 0 74 -3
79 -18 3 -10 9 -18 14 -18 15 0 21 19 12 37 -7 11 -6 21 4 31 8 8 14 34 14 62
0 27 4 51 9 54 5 4 26 -23 46 -59 37 -66 48 -76 59 -50 9 25 21 17 36 -27 11
-30 21 -44 36 -46 15 -2 25 -15 33 -43 8 -27 17 -39 30 -39 11 0 24 -12 31
-30 13 -30 33 -39 45 -19 4 6 17 -12 30 -39 13 -28 31 -52 40 -54 9 -2 27 -30
42 -68 15 -36 37 -82 50 -103 13 -21 26 -51 30 -68 6 -33 56 -89 79 -89 18 0
18 14 0 30 -8 6 -16 28 -18 48 -2 27 -7 36 -19 34 -15 -2 -59 71 -59 99 0 8
-9 22 -19 31 -11 9 -25 42 -32 75 -14 67 -24 82 -41 65 -20 -20 -27 -14 -34
28 -4 22 -13 48 -20 57 -13 17 -15 17 -28 1 -17 -23 -26 -23 -26 1 0 11 -5 32
-11 48 -10 26 -12 27 -23 11 -17 -23 -26 -23 -26 1 0 11 -5 32 -10 46 -8 22
-13 25 -24 16 -16 -14 -25 -5 -41 43 -12 35 -42 57 -53 39 -4 -7 -12 -9 -17
-5 -12 8 -49 72 -73 124 -16 36 -56 68 -68 55 -3 -3 1 -28 11 -56 9 -27 15
-67 13 -88 -3 -33 -6 -38 -28 -38 -20 0 -26 -6 -28 -27 -3 -27 -4 -27 -70 -24
-71 4 -101 10 -170 32 -53 17 -52 17 -52 0 0 -8 18 -25 40 -37 45 -26 59 -49
29 -49 -11 0 -30 5 -41 11 -14 8 -23 8 -31 0 -6 -6 -30 -11 -54 -11 -29 0 -45
-5 -51 -17 -8 -13 -20 -15 -67 -10 -64 6 -85 2 -85 -20 0 -11 -9 -13 -48 -7
-74 12 -231 9 -244 -4 -17 -17 -62 -15 -98 6 -30 17 -31 17 -49 -7 -18 -23
-19 -23 -67 -8 -27 9 -86 18 -132 21 -45 3 -94 12 -110 19 -30 16 -52 12 -52
-7 0 -9 -30 -15 -102 -20 -102 -7 -168 -21 -168 -35 0 -15 13 -20 34 -11 16 6
42 2 81 -11 32 -10 68 -19 81 -19 13 0 29 -9 37 -20 7 -10 31 -23 54 -28 22
-5 50 -18 61 -28 37 -34 51 -44 61 -44 6 0 15 -10 22 -21 9 -18 17 -21 52 -16
22 3 62 3 88 0 41 -5 46 -8 41 -26 -5 -18 -2 -19 31 -13 27 5 38 3 45 -9 7
-14 13 -14 36 -4 20 10 29 10 38 1 15 -15 55 -16 63 -2 7 12 55 14 55 3 0 -14
-15 -30 -38 -42 -45 -24 -19 -35 84 -37 423 -9 459 -13 669 -65 44 -11 115
-26 157 -34 51 -9 92 -23 120 -42 24 -15 55 -34 70 -42 15 -8 36 -22 45 -31
29 -27 184 -125 243 -155 30 -15 69 -37 85 -49 17 -13 37 -25 45 -29 8 -4 37
-23 65 -43 27 -19 62 -38 77 -41 42 -8 34 -23 -12 -23 -22 0 -40 -4 -40 -10 0
-6 -35 -7 -93 -3 -75 5 -99 3 -124 -11 -18 -9 -54 -16 -81 -16 -26 0 -71 -6
-98 -14 -27 -7 -83 -21 -124 -31 -41 -9 -82 -23 -90 -30 -8 -7 -32 -20 -52
-28 -20 -9 -51 -31 -70 -50 -18 -19 -47 -42 -64 -50 -17 -9 -44 -28 -61 -44
-16 -16 -47 -37 -68 -48 -20 -11 -41 -30 -46 -42 -5 -13 -12 -23 -17 -23 -4 0
-33 -22 -63 -48 -71 -63 -105 -76 -179 -69 -66 6 -74 3 -58 -23 10 -15 4 -25
-35 -64 -26 -25 -47 -53 -47 -61 0 -9 3 -15 8 -13 24 13 80 37 100 42 19 6 22
4 22 -19 0 -22 3 -26 18 -20 17 7 68 22 107 31 12 3 32 -5 50 -20 l30 -25 -33
-30 c-19 -17 -43 -33 -54 -37 -11 -3 -17 -12 -14 -19 3 -8 -8 -28 -24 -46 -17
-17 -33 -44 -37 -59 -5 -16 -25 -46 -45 -69 -43 -46 -47 -61 -16 -61 21 0 21
-1 -5 -28 -31 -32 -34 -47 -12 -56 14 -5 14 -9 1 -33 -8 -16 -33 -48 -55 -72
-24 -27 -39 -51 -36 -59 3 -8 -2 -23 -11 -33 -9 -10 -13 -22 -10 -27 3 -6 -7
-21 -23 -35 -16 -13 -31 -32 -33 -42 -2 -13 -21 -24 -58 -35 -96 -29 -133 -60
-70 -60 37 0 39 -13 4 -29 -21 -9 -24 -14 -14 -26 9 -11 3 -21 -30 -52 -42
-38 -136 -99 -198 -127 -50 -23 -41 -40 18 -32 55 7 68 -6 23 -22 -31 -11 -83
-57 -83 -73 0 -6 -11 -24 -25 -41 -38 -45 -29 -87 11 -49 19 17 145 91 157 91
3 0 2 -13 -3 -30 -10 -36 -2 -70 16 -70 8 0 30 32 49 70 35 69 61 94 49 45 -9
-36 20 -33 43 5 20 34 48 41 40 10 -11 -43 18 -39 72 11 49 44 56 48 71 34 9
-8 19 -15 22 -15 2 0 22 25 44 55 34 48 42 54 65 49 21 -4 31 1 47 21 l21 26
3 -38 c3 -37 4 -38 43 -38 54 -1 73 12 80 57 4 21 10 38 15 38 10 0 40 51 60
100 17 43 66 104 145 181 56 55 85 72 85 49 0 -15 42 -50 60 -50 9 0 25 9 36
21 14 16 26 19 52 14 26 -5 39 -1 63 19 35 30 49 33 49 11 0 -31 34 -13 101
52 64 61 70 65 76 45 7 -29 53 -30 78 -2 16 17 20 18 27 6 10 -19 1 -44 -20
-51 -10 -3 -32 -26 -51 -51 -35 -46 -42 -53 -138 -139 -72 -64 -95 -117 -101
-235 l-4 -95 -44 -40 c-24 -22 -45 -49 -47 -60 -4 -26 -35 -85 -57 -110 -10
-11 -26 -44 -36 -73 -9 -30 -25 -59 -35 -65 -25 -15 -24 -37 1 -37 14 0 22
-11 31 -40 11 -35 9 -45 -15 -102 -32 -74 -36 -166 -12 -268 21 -86 21 -84
-18 -98 -65 -24 -135 -102 -91 -102 8 0 15 6 15 13 0 21 52 64 86 71 23 5 35
2 50 -15 10 -11 36 -30 57 -40 20 -11 37 -21 37 -23 0 -2 -11 -29 -25 -60 -30
-68 -31 -114 -5 -191 34 -99 83 -148 189 -191 l56 -23 16 -63 c30 -120 96
-219 166 -250 37 -16 61 -20 119 -16 68 5 74 3 96 -21 76 -82 125 -105 219
-100 37 2 53 -4 99 -36 30 -22 57 -43 60 -47 11 -14 80 -38 112 -38 18 0 50 5
72 11 27 8 41 8 49 0 6 -6 20 -11 31 -11 12 0 41 -7 66 -16 25 -9 84 -20 132
-26 83 -11 89 -10 140 14 67 33 138 39 256 26 81 -10 100 -9 150 6 77 24 159
79 179 120 9 19 30 40 49 49 36 17 62 37 107 80 24 22 32 25 44 15 12 -9 16
-9 24 3 12 19 11 39 -1 39 -19 0 -10 39 13 51 53 29 127 93 145 127 16 30 25
37 46 35 28 -2 33 6 15 24 -13 13 -3 78 31 193 19 61 22 90 17 156 l-6 80 30
18 c29 17 29 17 29 -7 0 -36 53 -137 92 -174 47 -46 96 -63 178 -63 l70 0 0
-33 c0 -29 9 -49 45 -96 5 -7 36 -41 67 -75 48 -52 71 -67 150 -101 90 -39 97
-40 207 -40 110 -1 115 -2 129 -25 75 -120 185 -158 460 -160 53 0 72 -4 72
-13 0 -43 114 -86 227 -87 78 0 226 62 260 110 10 14 33 18 117 22 94 4 109 8
148 33 24 15 54 42 68 58 14 16 37 44 53 61 15 17 48 64 73 104 26 39 52 72
58 72 15 0 105 93 136 140 13 19 36 49 51 66 14 18 42 63 60 100 31 64 33 75
32 164 -1 89 0 97 26 130 78 99 65 235 -38 395 -23 35 -26 51 -26 128 0 84 1
87 22 87 33 0 28 17 -7 25 -28 6 -80 56 -80 77 0 5 13 22 28 36 32 30 57 72
44 72 -6 0 -16 -10 -25 -22 -25 -39 -54 -68 -66 -68 -6 0 -11 1 -11 3 0 1 -3
40 -6 87 -8 130 -27 193 -80 262 -34 45 -48 73 -54 114 -10 59 -44 124 -93
176 -18 19 -42 55 -53 79 -26 53 -113 157 -133 158 -8 1 -29 13 -48 27 -31 24
-122 54 -163 54 -10 0 -25 8 -32 19 -18 26 -104 79 -142 86 -17 4 -51 14 -76
22 -50 16 -135 12 -231 -13 -73 -18 -248 -19 -253 -1 -52 189 -70 221 -148
264 -50 27 -51 29 -48 103 1 26 -7 65 -18 91 -22 51 -97 122 -148 141 -29 10
-34 17 -34 46 0 48 -42 131 -89 177 -30 28 -41 47 -41 69 0 16 -7 38 -17 48
-15 17 -15 19 3 39 17 19 26 20 82 15 35 -4 74 -13 85 -20 12 -8 41 -17 64
-21 24 -4 45 -11 49 -16 10 -17 43 -9 58 13 14 20 14 24 1 45 -14 21 -14 23 0
23 9 0 40 -11 69 -24 29 -13 69 -29 90 -34 21 -6 52 -22 69 -35 42 -31 61 -37
78 -26 11 7 7 15 -20 38 -19 16 -55 40 -80 53 -50 25 -73 42 -106 76 -12 12
-34 22 -49 22 -15 0 -39 6 -54 14 -15 8 -46 18 -67 21 -22 4 -44 11 -50 15 -5
4 -45 10 -87 13 -63 4 -88 12 -140 41 -35 19 -88 44 -118 55 -30 12 -68 32
-84 46 -16 14 -35 25 -43 25 -7 0 -13 4 -13 10 0 16 -77 50 -113 50 -26 0 -36
5 -40 19 -4 18 -11 19 -81 14 -83 -6 -94 2 -45 31 50 30 23 39 -79 27 -50 -5
-100 -15 -111 -21 -12 -6 -38 -8 -62 -4 l-42 7 24 19 c13 10 34 23 47 28 38
16 24 30 -30 30 -35 0 -71 -9 -106 -25 -62 -29 -90 -33 -49 -7 15 9 27 25 27
34 0 22 -7 22 -52 3 -19 -7 -39 -10 -44 -6 -18 17 -118 20 -158 6 -35 -12 -41
-12 -52 3 -10 13 -16 14 -36 5 -14 -6 -56 -14 -94 -18 -38 -4 -84 -14 -103
-21 -46 -19 -59 -18 -63 9 -3 21 -8 22 -95 25 -66 2 -102 -2 -129 -13 -20 -8
-46 -15 -58 -15 -13 0 -33 -12 -47 -26 -13 -14 -41 -36 -63 -47 -21 -12 -49
-28 -63 -35 -44 -25 -151 -140 -179 -193 -39 -76 -28 18 12 99 29 59 50 87
102 138 34 33 41 54 18 54 -16 0 -156 -137 -156 -152 0 -5 -8 -17 -18 -28 -45
-48 -132 -240 -132 -292 0 -10 -18 -37 -40 -59 -24 -25 -40 -51 -40 -66 0 -13
-7 -38 -16 -55 -24 -47 -29 -128 -10 -166 21 -41 21 -42 -15 -42 -28 0 -31 2
-25 25 5 20 0 28 -29 47 -47 30 -52 57 -25 121 69 161 90 212 90 222 0 6 22
34 49 63 28 30 53 67 56 85 4 18 11 37 17 43 5 7 11 36 15 65 3 30 14 69 24
87 11 18 19 48 19 65 0 21 13 50 35 81 19 27 35 59 35 71 0 11 15 50 34 85 42
81 49 123 21 128 -32 6 -53 31 -59 70 -3 20 -8 55 -11 77 -4 22 -13 54 -21 72
-8 17 -14 45 -14 61 0 18 -8 36 -18 44 -9 7 -28 37 -42 67 -14 30 -30 59 -36
65 -6 6 -17 31 -26 56 -25 75 -36 60 -31 -42z m85 -131 c11 -32 25 -60 29 -63
5 -3 9 -15 9 -28 0 -12 7 -31 15 -42 8 -10 15 -40 15 -66 0 -27 5 -48 10 -48
6 0 10 -14 10 -31 0 -35 34 -89 56 -89 8 0 14 -7 14 -15 0 -22 -60 -135 -71
-135 -5 0 -9 -17 -9 -39 0 -23 -6 -44 -16 -52 -25 -21 -48 -72 -45 -102 2 -18
-7 -40 -22 -61 -17 -22 -23 -40 -20 -58 3 -15 -4 -57 -16 -95 -16 -53 -31 -78
-66 -112 -25 -24 -45 -50 -45 -56 0 -7 -6 -25 -14 -41 -8 -16 -28 -64 -46
-106 -18 -43 -36 -78 -41 -78 -5 0 -9 21 -9 46 0 43 9 67 63 168 10 18 13 41
10 63 -3 19 -1 44 5 56 6 12 13 40 16 62 9 69 31 173 38 180 4 4 3 18 -3 32
-14 38 -11 51 14 55 12 2 21 8 20 13 -9 62 -8 70 13 67 17 -2 29 9 53 47 17
29 28 57 25 66 -4 9 3 26 16 40 17 18 22 36 23 82 1 38 -3 62 -11 68 -11 9
-11 20 -1 58 6 26 9 51 5 54 -3 4 -6 -3 -6 -15 0 -12 -4 -22 -9 -22 -13 0 -29
72 -56 260 -5 33 -4 34 10 15 9 -11 25 -46 37 -78z m-1418 -552 c31 -14 63
-25 71 -25 8 0 21 -13 30 -30 18 -35 49 -54 78 -46 16 3 32 -5 57 -30 19 -19
41 -34 51 -34 14 0 79 -89 79 -109 0 -21 62 -101 79 -101 10 0 24 -7 31 -15 9
-11 22 -14 40 -10 18 4 31 1 39 -9 22 -27 102 -68 122 -63 10 3 23 -1 30 -9 6
-8 24 -14 40 -14 15 0 31 -5 35 -11 3 -6 16 -8 28 -5 15 4 26 -1 34 -15 7 -11
19 -18 27 -15 8 3 17 -3 20 -15 4 -11 18 -24 31 -29 20 -8 24 -16 24 -49 0
-33 5 -43 38 -67 20 -16 50 -41 66 -56 16 -16 39 -28 51 -28 15 0 25 -8 28
-21 4 -16 2 -19 -11 -13 -9 3 -37 10 -62 15 -91 17 -143 40 -253 112 -61 41
-129 82 -150 91 -21 9 -56 29 -77 46 -21 16 -42 30 -47 30 -5 0 -31 21 -56 46
-26 25 -51 43 -56 40 -5 -3 -24 5 -44 18 -84 57 -125 76 -165 76 -23 0 -42 4
-42 9 0 5 -21 11 -47 14 -27 3 -86 15 -133 27 -137 35 -184 40 -407 44 -117 3
-217 7 -223 11 -15 9 -4 22 26 29 37 10 104 56 104 72 0 9 11 14 29 14 15 0
40 9 54 20 14 11 32 20 41 20 8 0 30 13 48 29 18 15 50 34 71 42 20 7 37 17
37 22 0 4 19 5 43 2 23 -4 53 -2 67 4 39 15 63 13 124 -14z m2591 -126 c7 -20
12 -21 61 -15 57 7 65 2 37 -20 -17 -12 -16 -13 7 -15 56 -3 85 4 130 32 78
48 92 39 29 -21 -50 -48 -45 -64 15 -46 23 7 56 11 73 9 17 -3 44 2 61 11 17
9 53 16 79 16 l48 -1 -39 -21 c-45 -23 -66 -42 -66 -57 0 -15 16 -14 43 3 12
7 57 16 100 19 69 5 78 3 87 -14 9 -15 22 -19 62 -19 63 0 116 -18 124 -42 4
-13 15 -18 39 -18 24 0 35 -5 40 -19 5 -18 46 -39 117 -61 21 -6 41 -17 45
-23 5 -7 32 -24 61 -39 41 -22 65 -28 117 -28 37 0 65 -4 65 -10 0 -5 17 -10
38 -10 56 0 172 -43 210 -77 20 -19 1 -16 -47 7 -31 15 -57 20 -99 18 -67 -4
-78 -24 -22 -43 19 -6 36 -19 38 -28 4 -19 -9 -22 -36 -8 -66 35 -160 53 -284
55 -70 1 -133 7 -139 13 -12 12 -220 5 -233 -8 -6 -5 -23 -9 -39 -9 -20 0 -40
-12 -68 -40 -31 -32 -47 -40 -75 -40 -19 0 -63 -13 -97 -29 -34 -16 -90 -37
-124 -46 -48 -14 -68 -25 -88 -51 -14 -19 -32 -34 -40 -34 -7 0 -28 -12 -46
-27 -17 -15 -40 -28 -49 -30 -32 -5 -110 -42 -110 -53 0 -14 7 -13 68 10 29
11 61 20 72 20 11 0 25 9 32 20 7 12 32 30 56 42 25 13 42 29 42 39 0 19 19
29 55 29 13 0 27 5 30 10 3 6 16 10 28 10 12 0 33 7 47 15 51 29 88 43 131 50
68 10 73 13 92 45 17 27 23 30 72 30 30 0 57 5 60 10 8 14 155 13 211 -1 25
-7 44 -17 44 -25 0 -7 13 -20 29 -28 29 -16 46 -52 35 -79 -5 -15 0 -22 64
-80 35 -31 76 -130 69 -165 -4 -20 3 -27 47 -47 106 -48 150 -116 147 -230 -1
-63 1 -71 21 -81 74 -36 91 -50 113 -82 13 -21 33 -68 43 -107 11 -38 23 -77
26 -85 5 -11 0 -16 -13 -17 -11 -1 -47 -20 -81 -43 -74 -50 -170 -88 -247 -96
-84 -9 -163 -31 -187 -51 -43 -37 -71 -69 -91 -108 -18 -33 -29 -42 -63 -49
-23 -6 -42 -16 -42 -23 0 -7 -4 -13 -9 -13 -14 0 -121 -64 -150 -89 -13 -12
-27 -21 -30 -21 -12 0 -38 -55 -45 -93 -5 -26 -14 -41 -29 -47 -12 -5 -17 -9
-11 -9 17 -1 10 -129 -8 -150 -8 -9 -36 -35 -63 -59 -38 -34 -53 -57 -71 -110
-13 -37 -23 -77 -24 -89 0 -46 19 -21 42 54 19 64 31 85 68 121 25 24 57 51
71 59 23 14 25 20 21 68 -3 37 2 71 17 114 11 34 21 67 21 74 0 31 118 116
248 178 52 25 66 38 86 77 13 26 37 59 53 75 37 35 149 68 223 66 43 -2 67 4
109 26 44 23 68 29 124 29 66 1 70 0 102 -35 32 -36 33 -36 38 -13 6 32 -54
74 -106 74 -20 0 -37 3 -37 8 0 18 73 51 138 61 104 16 115 15 102 -9 -9 -17
-8 -19 7 -13 10 4 21 11 25 17 4 6 22 11 40 12 18 1 60 9 93 18 76 20 145 20
192 1 19 -8 45 -15 56 -15 26 0 111 -54 137 -87 11 -14 26 -23 33 -20 22 8
148 -31 172 -53 12 -11 26 -20 32 -20 25 0 123 -116 123 -147 0 -10 24 -43 53
-74 28 -30 62 -75 74 -100 22 -43 40 -127 36 -161 -2 -11 2 -15 12 -12 9 4 27
-14 53 -54 33 -51 41 -75 52 -153 10 -65 10 -103 3 -130 -9 -34 -8 -38 14 -50
13 -7 35 -28 49 -46 25 -33 25 -53 -1 -53 -7 0 -15 -11 -17 -25 -4 -32 -20
-34 -35 -5 -9 19 -10 12 -6 -41 3 -35 7 -66 9 -68 2 -2 10 2 19 9 16 14 21 45
5 35 -6 -3 -10 -2 -10 4 0 5 7 14 16 19 8 5 21 19 27 32 20 39 32 18 32 -60 1
-67 4 -81 31 -120 59 -89 79 -147 79 -240 0 -83 -1 -87 -35 -130 -34 -43 -34
-43 -32 -139 2 -91 0 -100 -31 -161 -61 -122 -194 -279 -249 -295 -23 -7 -33
-16 -33 -30 0 -28 -30 -76 -101 -162 -95 -115 -116 -126 -254 -133 -107 -5
-116 -7 -125 -28 -5 -12 -18 -25 -27 -28 -10 -3 -24 -11 -31 -18 -7 -8 -47
-25 -87 -39 -67 -23 -82 -25 -145 -17 -39 5 -83 13 -97 19 -32 12 -59 48 -51
68 5 14 -3 15 -60 9 -106 -12 -292 10 -356 42 -54 26 -110 76 -111 98 0 18
-49 58 -73 60 -12 1 -30 -5 -39 -13 -51 -45 -301 39 -386 129 -72 78 -102 124
-110 170 l-7 43 -98 6 c-97 5 -98 6 -137 44 -61 59 -90 123 -90 195 0 65 -10
75 -36 34 -10 -14 -34 -34 -55 -45 -35 -17 -38 -21 -29 -45 6 -14 10 -60 10
-102 0 -60 -5 -88 -24 -129 -14 -30 -25 -70 -24 -93 0 -38 -17 -75 -31 -66 -4
3 -22 1 -41 -4 l-35 -8 32 -1 c17 -1 34 -5 38 -10 9 -15 -32 -75 -73 -107 -62
-51 -63 -51 -56 -2 6 38 6 42 -8 30 -9 -7 -21 -33 -27 -58 -7 -25 -22 -56 -34
-68 -12 -12 -21 -29 -19 -37 4 -21 -70 -86 -123 -110 -28 -12 -47 -29 -54 -48
-16 -36 -50 -66 -115 -100 -45 -23 -61 -26 -141 -24 -261 5 -264 4 -319 -23
-55 -28 -107 -29 -221 -4 -80 17 -84 22 -57 72 13 25 19 45 13 51 -5 5 -12 0
-16 -14 -19 -58 -86 -112 -70 -56 4 13 3 17 -2 10 -10 -15 -84 -32 -136 -33
-33 0 -93 21 -107 39 -3 3 -27 24 -53 45 -48 38 -51 39 -123 37 -63 -2 -80 1
-107 20 -39 27 -97 88 -97 102 0 6 -16 7 -42 2 -61 -10 -137 -6 -167 10 -62
32 -140 167 -145 252 -2 41 -6 50 -30 61 -15 8 -32 25 -38 38 -6 13 -17 24
-25 24 -11 0 -11 -5 -3 -20 10 -18 9 -19 -17 -9 -60 23 -112 72 -134 129 -23
58 -38 178 -23 189 18 12 46 80 41 95 -3 8 -24 24 -46 36 -54 27 -66 48 -90
160 -29 130 -27 172 10 250 29 62 30 67 18 117 -17 75 -7 122 45 208 25 42 46
83 46 91 0 8 22 37 49 63 l49 47 3 105 c5 113 23 160 79 204 14 11 35 30 46
42 12 13 25 23 30 23 5 0 20 16 34 36 48 71 107 124 138 124 22 0 38 10 62 40
25 30 36 38 46 30 9 -8 15 -7 21 2 4 7 16 18 27 23 10 6 28 35 40 65 18 45 26
54 43 52 15 -2 41 17 87 64 36 36 71 64 78 61 7 -2 23 4 35 13 15 12 44 18 91
19 65 2 71 0 90 -24 12 -15 24 -35 27 -46 9 -26 20 -24 33 6 13 28 32 33 32 9
0 -20 54 -111 81 -136 10 -10 25 -18 33 -18 9 0 18 -11 22 -25 5 -20 11 -24
29 -19 19 5 23 1 29 -27 3 -17 6 -48 6 -69 0 -20 3 -40 7 -43 13 -13 33 16 33
48 0 22 6 35 18 39 9 3 26 11 37 18 11 7 22 14 24 15 1 1 0 7 -4 13 -5 7 -18
2 -41 -15 -30 -23 -34 -24 -34 -8 0 36 12 61 31 66 10 3 19 13 19 24 1 10 6
28 13 41 12 22 14 20 29 -28 14 -44 14 -52 2 -57 -20 -7 -17 -20 6 -26 11 -3
29 -21 41 -41 12 -20 27 -35 33 -34 15 4 66 -50 66 -69 0 -10 -10 -12 -42 -7
-31 5 -39 4 -34 -5 5 -7 24 -11 48 -9 35 2 42 -1 55 -25 12 -23 17 -26 29 -16
8 6 14 18 14 26 0 13 3 13 15 3 8 -7 15 -25 15 -41 0 -15 5 -31 11 -35 8 -5 7
-9 -1 -14 -8 -5 -2 -8 16 -7 16 1 32 6 37 12 10 13 35 -19 46 -62 5 -18 23
-50 40 -70 35 -42 36 -49 19 -68 -34 -34 -48 -57 -48 -73 1 -21 64 49 80 89
l11 27 24 -24 c13 -13 32 -24 42 -24 10 0 27 -16 38 -38 15 -27 26 -36 42 -35
20 2 63 -41 63 -64 0 -4 9 -19 20 -33 11 -14 20 -37 20 -52 0 -18 9 -33 25
-44 16 -11 25 -26 25 -43 0 -31 25 -71 45 -71 7 0 25 -14 39 -30 14 -17 30
-29 37 -28 6 2 16 -11 23 -27 17 -46 49 -95 62 -95 6 0 15 17 19 37 4 21 9 42
12 46 8 13 54 -69 68 -122 7 -26 26 -66 43 -89 19 -26 28 -50 25 -62 -3 -12 1
-22 11 -26 11 -4 16 -19 16 -50 0 -33 5 -46 20 -54 15 -8 20 -21 20 -50 0 -21
5 -42 10 -45 6 -3 10 -20 10 -36 0 -21 7 -32 23 -40 20 -9 50 -67 73 -143 16
-52 34 -43 31 16 -2 49 0 53 20 50 34 -5 35 13 3 48 -35 38 -36 44 -11 110 11
28 15 53 10 56 -5 3 -6 22 -3 42 3 24 0 44 -9 56 -12 16 -12 25 0 58 11 32 11
44 -1 72 -8 18 -19 37 -26 41 -7 4 -9 18 -5 35 3 16 2 31 -4 35 -6 3 -11 22
-11 40 0 19 -8 50 -17 70 -14 29 -15 40 -5 55 9 15 9 18 -1 14 -14 -5 -37 35
-37 65 0 11 7 22 16 25 18 7 12 36 -17 78 -11 14 -19 34 -19 43 0 10 -10 35
-22 58 -17 29 -20 41 -10 44 15 6 16 55 0 71 -9 9 -9 15 0 24 16 16 15 36 -3
54 -21 21 -19 31 7 37 21 6 21 7 5 25 -9 10 -17 22 -17 25 0 4 -8 15 -17 26
-10 10 -26 29 -36 42 -17 23 -17 24 10 31 15 4 32 3 40 -3 14 -12 43 -5 43 10
0 5 -12 12 -28 15 -33 8 -52 53 -56 139 -2 50 0 57 16 57 24 0 23 8 -12 54
-21 28 -28 46 -24 62 4 15 -2 37 -15 59 -18 32 -19 35 -3 36 10 0 12 3 4 6 -7
2 -24 29 -38 59 -14 30 -29 54 -34 54 -4 0 -10 9 -13 20 -6 22 3 26 20 9 14
-14 47 -4 38 11 -3 6 0 13 9 16 17 6 12 27 -16 63 -14 18 -15 27 -7 37 6 8 9
20 6 28 -3 8 1 17 9 20 21 8 17 34 -7 46 -16 9 -19 17 -14 40 5 23 2 31 -15
40 -16 9 -20 18 -16 36 4 15 -3 42 -19 75 -17 35 -22 56 -15 64 7 8 1 19 -18
37 -27 25 -127 88 -139 88 -4 0 -24 12 -44 26 -30 21 -63 29 -171 44 -73 11
-167 24 -208 30 -123 19 -366 -23 -449 -77 -60 -38 -130 -105 -124 -119 3 -8
-1 -14 -9 -14 -19 0 -58 88 -58 133 0 37 7 45 47 51 13 2 17 10 15 32 -8 76
-5 96 17 113 12 9 31 30 41 46 11 17 20 23 20 15 0 -8 7 -2 15 14 8 15 15 37
15 47 0 33 72 171 92 177 10 2 28 23 40 46 32 63 108 148 127 141 10 -4 26 7
46 30 16 19 41 38 54 40 12 2 29 9 37 15 7 7 22 9 33 5 12 -4 42 5 78 24 52
26 120 38 176 32 4 -1 1 -14 -7 -30 -13 -24 -13 -31 -2 -40 11 -9 20 -6 42 12
51 43 106 77 125 77 10 0 21 -10 24 -21z m-455 -14 c-19 -14 -41 -25 -49 -25
-9 0 -31 -15 -50 -33 -19 -17 -47 -36 -61 -42 -25 -9 -130 -114 -130 -129 0
-4 -15 -22 -34 -40 -18 -19 -43 -56 -56 -82 -74 -160 -93 -193 -125 -222 -35
-32 -39 -43 -49 -115 -3 -26 -14 -45 -32 -59 -25 -20 -26 -24 -20 -85 6 -59 5
-63 -11 -55 -10 5 -38 13 -63 17 -57 9 -120 34 -120 47 0 9 39 48 227 228 60
57 90 96 127 165 27 50 53 106 57 125 4 19 11 49 15 65 10 45 69 132 101 149
15 8 44 29 63 45 45 40 127 68 204 70 l40 1 -34 -25z m-212 -7 c-3 -7 -31 -31
-62 -53 -79 -54 -122 -128 -141 -245 -4 -25 -20 -49 -57 -84 -46 -43 -53 -46
-59 -30 -5 13 -8 5 -8 -23 -1 -45 -27 -83 -56 -83 -8 0 -15 -7 -15 -15 0 -8
-5 -15 -10 -15 -6 0 -20 -11 -32 -25 -26 -30 -38 -31 -71 -5 -14 11 -32 17
-40 14 -35 -13 -26 20 17 62 25 24 46 48 46 54 0 5 24 24 54 42 52 32 106 98
106 130 0 8 14 30 30 48 l30 34 2 -40 c1 -33 2 -31 7 16 5 41 10 56 24 58 11
2 17 -3 18 -15 0 -14 3 -12 11 7 5 14 11 33 12 42 1 17 37 43 103 73 18 8 40
26 49 40 17 26 49 35 42 13z m-496 -618 c7 0 20 -4 28 -10 11 -7 0 -22 -55
-74 -39 -36 -73 -66 -76 -66 -9 0 -19 38 -19 70 0 25 33 89 54 102 6 4 21 1
33 -7 12 -8 28 -15 35 -15z m-585 -106 c51 -14 -5 -32 -117 -38 -39 -2 -68
-11 -97 -29 -24 -15 -51 -27 -60 -27 -10 0 -24 -9 -31 -20 -7 -11 -23 -20 -36
-20 -31 0 -84 -27 -96 -50 -5 -10 -26 -28 -45 -40 -20 -13 -35 -30 -35 -41 0
-28 9 -24 75 36 40 37 69 55 86 55 15 0 37 8 50 18 13 10 52 35 87 55 52 31
73 37 119 37 30 0 80 7 110 16 56 16 69 16 218 -4 64 -9 135 -31 135 -43 0 -4
-49 -5 -108 -2 -94 5 -118 3 -179 -16 -49 -15 -92 -21 -138 -20 -54 2 -69 -1
-77 -14 -5 -10 -16 -17 -24 -17 -8 0 -40 -8 -72 -19 -31 -10 -83 -24 -115 -31
-41 -10 -64 -21 -74 -37 -8 -13 -21 -23 -27 -23 -7 0 -35 -11 -62 -25 -27 -14
-71 -30 -98 -35 -27 -6 -72 -25 -100 -44 -87 -56 -155 -87 -182 -80 -14 4 -24
2 -23 -2 4 -23 -3 -35 -23 -43 -13 -5 -58 -24 -101 -42 -63 -27 -80 -30 -87
-20 -6 10 -21 12 -59 7 -52 -7 -72 7 -26 18 14 4 25 12 25 19 0 9 15 13 48 13
40 0 56 6 106 42 32 23 65 51 73 62 8 11 39 32 70 47 30 15 58 34 61 43 15 41
57 79 117 106 44 20 65 35 65 46 0 18 88 68 119 68 8 0 22 7 32 16 17 15 115
36 264 55 44 5 84 14 89 19 11 11 108 13 143 4z m1397 -39 c55 -8 140 -19 188
-24 78 -9 123 -23 138 -43 3 -4 19 -13 35 -20 50 -22 125 -69 125 -79 0 -5 -7
-9 -15 -9 -27 0 -16 -38 15 -52 32 -14 50 -51 50 -104 0 -18 4 -35 8 -38 5 -3
14 -29 22 -59 10 -42 10 -59 1 -76 -12 -22 -6 -61 11 -72 13 -8 -2 -39 -19
-39 -18 0 -73 31 -73 42 0 4 -4 8 -10 8 -12 0 -14 -37 -2 -42 4 -1 28 -32 55
-67 72 -98 57 -119 -20 -29 -24 27 -53 29 -53 4 0 -15 85 -104 124 -129 21
-14 25 -21 16 -32 -8 -10 -1 -28 31 -75 22 -34 39 -64 36 -66 -8 -8 -57 16
-63 31 -4 8 -14 15 -24 15 -30 0 -13 -32 38 -70 45 -34 45 -35 19 -38 -33 -4
-34 -18 -4 -51 27 -30 53 -88 43 -98 -3 -4 -22 1 -41 10 -44 21 -65 22 -65 2
0 -8 5 -15 10 -15 13 0 83 -77 92 -101 4 -11 12 -19 17 -19 5 0 10 -21 10 -47
0 -27 3 -72 6 -100 6 -46 5 -53 -10 -53 -14 0 -16 -6 -10 -27 3 -16 14 -39 23
-53 33 -50 60 -138 55 -183 -4 -29 0 -54 11 -75 9 -17 13 -37 10 -46 -3 -8 3
-27 14 -43 12 -17 22 -53 26 -93 4 -39 17 -86 32 -118 22 -45 25 -58 15 -78
-15 -34 -14 -54 5 -75 16 -18 15 -29 -8 -62 -10 -14 -10 -19 -1 -25 10 -6 10
-19 -1 -63 -13 -47 -13 -58 0 -83 21 -43 0 -57 -22 -15 -9 19 -25 40 -35 47
-11 7 -19 22 -19 33 0 11 -6 27 -14 34 -15 16 -10 65 8 65 6 0 -3 9 -20 19
-27 16 -32 26 -38 75 -4 41 -18 75 -50 128 -24 40 -47 90 -51 111 -3 21 -15
47 -25 57 -10 10 -22 39 -25 64 -6 36 -11 46 -26 46 -13 0 -21 -12 -30 -42
-21 -78 -19 -74 -29 -58 -6 8 -10 29 -10 45 0 31 -32 62 -57 57 -7 -2 -20 9
-29 23 -9 14 -25 25 -35 25 -24 0 -29 10 -36 71 -5 38 -11 53 -24 56 -10 3
-31 32 -47 67 -37 77 -79 129 -102 123 -12 -3 -24 7 -39 34 -16 29 -29 39 -47
39 -13 0 -24 4 -24 8 0 22 -37 51 -58 45 -16 -4 -22 -1 -22 10 0 9 -8 24 -18
34 -10 10 -26 38 -35 63 -26 69 -35 79 -51 58 -11 -16 -14 -14 -29 17 -9 19
-21 35 -26 35 -6 0 -13 17 -16 38 -12 72 -15 80 -35 85 -18 5 -20 0 -20 -45 0
-44 -2 -49 -15 -38 -8 7 -15 18 -15 25 0 7 -7 15 -15 19 -8 3 -15 14 -15 24 0
10 -7 27 -15 38 -14 18 -16 18 -29 1 -12 -16 -15 -15 -30 17 -9 19 -16 41 -16
50 0 8 -11 41 -25 72 -14 31 -25 66 -25 77 0 20 -1 20 -25 -3 -19 -18 -24 -31
-20 -50 6 -32 -10 -63 -21 -37 -10 28 -21 19 -28 -23 -4 -25 -12 -40 -20 -40
-8 0 -21 -3 -30 -6 -12 -5 -18 2 -22 25 -7 31 -18 39 -29 21 -10 -17 -26 0
-20 21 6 18 -2 23 -30 20 -11 -1 -28 29 -62 106 -21 49 -39 54 -54 16 -10 -26
-11 -26 -21 -10 -5 11 -7 32 -4 48 3 16 1 29 -4 29 -6 0 -10 27 -10 61 0 60 0
61 -25 55 -34 -9 -32 3 10 55 19 25 45 75 57 114 17 55 32 80 68 114 63 62
125 99 177 107 44 6 57 31 14 27 -36 -4 -22 20 37 67 66 52 150 84 251 99 40
5 76 12 79 15 10 10 102 6 206 -9z m-1054 -95 c47 1 101 2 120 2 60 1 210 -47
239 -77 26 -26 26 -26 6 -41 -102 -73 -175 -156 -175 -197 0 -52 -18 -81 -103
-171 -26 -27 -62 -78 -79 -113 -32 -65 -37 -70 -55 -52 -7 7 -16 1 -31 -23
-11 -18 -42 -51 -68 -72 -39 -33 -50 -37 -65 -28 -22 14 -36 -3 -64 -79 -13
-36 -21 -46 -35 -42 -13 4 -20 -2 -23 -19 -2 -13 -5 -5 -6 20 -1 47 -21 59
-21 12 0 -19 -5 -30 -14 -30 -8 0 -31 -16 -52 -35 l-39 -34 -13 30 c-15 36
-32 34 -51 -7 -24 -50 -51 -54 -51 -8 0 39 -25 29 -98 -41 -56 -55 -68 -62
-70 -45 -5 29 -24 25 -72 -15 -47 -39 -53 -41 -70 -20 -19 23 -49 18 -60 -10
-10 -27 -11 -28 -34 -19 -18 7 -22 39 -6 49 11 7 14 45 4 45 -11 0 -100 -65
-141 -103 -26 -25 -46 -36 -54 -32 -7 5 -10 4 -6 -2 4 -6 0 -13 -8 -17 -8 -3
-21 -20 -29 -38 -7 -18 -24 -43 -36 -56 -12 -12 -28 -43 -37 -67 -14 -42 -37
-59 -45 -34 -2 6 -10 -17 -17 -50 -14 -64 -31 -81 -31 -32 0 36 -19 50 -35 28
-16 -23 -25 -21 -25 3 0 34 -30 22 -47 -17 -12 -27 -18 -33 -21 -20 -6 28 -29
20 -59 -20 -58 -77 -64 -83 -83 -71 -15 10 -26 4 -65 -30 -54 -47 -65 -51 -65
-22 0 23 -29 27 -48 8 -10 -10 -18 -9 -40 5 -31 17 -52 9 -52 -23 -1 -16 -23
-50 -33 -50 -3 0 -7 9 -9 21 -3 20 -5 19 -60 -10 -32 -17 -60 -31 -63 -31 -13
0 35 57 59 69 31 17 42 46 25 67 -14 18 -19 14 61 56 36 19 64 39 63 44 -1 5
10 23 25 39 35 39 66 100 58 114 -4 6 0 11 9 11 34 0 115 54 115 77 0 8 9 23
20 35 11 12 20 29 20 38 0 9 11 22 25 28 25 12 33 36 15 47 -5 3 7 29 27 57
26 36 37 62 37 88 1 29 8 45 34 69 41 40 41 59 0 52 -10 -1 -10 3 -2 23 3 9
11 16 18 16 6 0 22 7 35 16 16 12 20 19 12 27 -20 20 -12 44 24 71 19 15 35
33 35 40 0 7 18 28 40 46 43 35 50 57 23 67 -20 7 -48 32 -42 37 14 10 118 36
145 36 20 0 34 5 34 13 0 6 18 20 40 30 25 12 40 25 40 37 0 23 45 52 90 60
22 3 35 11 35 20 0 17 26 28 69 29 17 1 39 9 50 19 23 20 58 35 122 52 27 6
43 17 47 29 3 13 18 20 51 25 25 4 50 5 55 2 4 -3 16 3 26 14 14 16 31 20 77
20 51 0 58 2 56 18 -3 15 4 17 53 14 33 -2 60 1 64 7 3 6 16 11 29 11 12 0 26
4 32 9 12 13 103 18 134 8 14 -5 63 -8 110 -7z"/>
</g>
</svg>
