<?xml version="1.0" standalone="no"?>
<!DOCTYPE svg PUBLIC "-//W3C//DTD SVG 20010904//EN"
 "http://www.w3.org/TR/2001/REC-SVG-20010904/DTD/svg10.dtd">
<svg version="1.0" xmlns="http://www.w3.org/2000/svg"
 width="650.000000pt" height="763.000000pt" viewBox="0 0 650.000000 763.000000"
 preserveAspectRatio="xMidYMid meet">
<metadata>
Created by potrace 1.16, written by Peter Selinger 2001-2019
</metadata>
<g transform="translate(0.000000,763.000000) scale(0.100000,-0.100000)"
fill="#000000" stroke="none">
<path d="M3427 6689 c-39 -21 -67 -54 -67 -81 0 -12 -11 -19 -37 -23 -64 -10
-146 -36 -188 -61 -48 -28 -130 -107 -168 -162 -33 -46 -101 -200 -112 -252
-4 -19 -18 -48 -30 -65 -40 -53 -57 -107 -62 -200 -4 -66 -10 -97 -23 -116
-24 -34 -56 -130 -65 -194 -14 -101 -33 -151 -69 -191 -40 -44 -46 -65 -49
-179 -2 -76 -4 -83 -35 -115 -18 -19 -41 -57 -51 -85 -11 -27 -31 -70 -45 -95
-18 -31 -26 -60 -26 -93 0 -32 -10 -69 -31 -115 -23 -49 -33 -89 -39 -152 -6
-62 -17 -108 -44 -171 -19 -48 -41 -120 -47 -160 -7 -41 -13 -75 -14 -77 -1
-1 -72 16 -158 38 -256 64 -544 88 -672 55 -125 -33 -229 -100 -291 -188 -19
-28 -21 -28 -63 -17 -24 6 -54 9 -66 6 -41 -10 -112 -74 -129 -116 -16 -42
-21 -143 -9 -214 l6 -38 43 5 43 4 -39 -44 c-75 -85 -104 -214 -80 -359 24
-149 137 -512 245 -784 112 -283 285 -612 354 -674 11 -10 42 -55 68 -100 119
-205 225 -310 471 -469 56 -37 125 -87 152 -113 50 -47 118 -74 188 -74 18 0
59 -13 92 -30 41 -21 83 -32 139 -39 58 -6 97 -17 141 -40 126 -66 292 -82
443 -42 76 19 102 22 182 16 109 -8 178 7 265 61 30 19 87 44 127 57 90 30
116 47 150 100 34 52 36 53 100 72 70 20 106 53 149 136 20 38 64 97 96 131
70 72 84 96 93 161 5 29 21 67 40 95 17 26 39 62 49 80 12 22 24 32 41 32 80
0 416 84 548 136 237 95 376 207 476 385 59 106 84 193 142 499 39 207 43 238
42 385 0 211 -34 443 -104 720 -46 181 -220 693 -248 729 -22 30 -64 171 -72
246 -12 110 -31 166 -90 272 -27 48 -54 109 -59 135 -14 59 -41 107 -115 198
-66 82 -80 106 -90 160 -8 48 -25 80 -60 120 -37 42 -77 100 -112 165 -78 144
-246 375 -319 439 -67 59 -192 129 -271 151 -42 13 -99 20 -149 20 -80 0 -82
0 -93 29 -11 24 -50 56 -120 96 -8 4 -64 9 -126 10 -92 2 -118 -1 -148 -16z
m29 -44 c20 -10 43 -13 77 -9 35 5 58 2 86 -10 31 -15 47 -16 92 -8 45 9 57 8
72 -5 29 -27 20 -41 -29 -49 -74 -11 -349 8 -367 26 -9 8 9 50 27 62 14 10 9
10 42 -7z m-38 -101 c28 -4 52 -10 52 -14 0 -3 -20 -21 -45 -39 -50 -36 -89
-86 -80 -102 4 -6 30 12 63 43 78 74 138 102 219 100 129 -1 237 -61 379 -209
55 -56 95 -90 99 -84 14 24 -136 179 -239 247 l-59 39 33 9 c42 12 180 -7 258
-36 59 -21 156 -81 206 -127 24 -22 130 -143 154 -176 29 -40 129 -195 171
-268 29 -48 72 -112 96 -142 25 -30 51 -77 60 -107 25 -80 44 -122 69 -149 39
-43 111 -143 124 -172 7 -16 16 -47 22 -70 5 -23 29 -78 54 -122 57 -99 73
-147 85 -256 9 -83 33 -155 111 -339 56 -133 168 -480 214 -665 107 -425 128
-704 76 -980 -12 -61 -30 -157 -41 -215 -76 -401 -229 -596 -576 -730 -154
-59 -512 -145 -530 -126 -10 10 25 114 65 191 l37 70 0 230 c0 486 -24 624
-143 810 -268 419 -679 656 -1292 745 -266 38 -511 92 -697 151 l-93 30 0 42
c0 49 26 145 66 237 19 46 28 86 30 137 2 57 10 88 35 140 20 44 34 92 38 133
4 44 14 76 29 97 12 17 22 36 22 42 0 20 47 105 69 125 30 27 41 72 38 157 -2
71 0 78 28 113 17 21 36 47 44 58 8 10 27 80 42 155 20 99 36 147 55 177 22
32 28 54 30 106 4 106 13 145 46 196 17 27 48 97 68 156 85 248 233 382 440
397 8 0 39 -2 68 -5z m-1528 -2404 c130 -24 242 -54 415 -111 223 -73 443
-122 790 -174 241 -37 412 -87 605 -177 81 -38 224 -120 240 -138 3 -3 23 -18
45 -35 71 -52 186 -168 257 -260 159 -204 222 -399 199 -617 -11 -106 -41
-190 -114 -307 -22 -36 -62 -113 -89 -171 -27 -58 -56 -121 -65 -140 -125
-267 -514 -533 -928 -636 -203 -50 -432 -67 -601 -43 -249 34 -555 170 -762
336 -117 95 -341 329 -449 469 -168 220 -241 328 -345 509 -105 184 -133 240
-171 341 -88 231 -100 393 -38 518 19 39 46 77 67 92 39 30 53 27 31 -8 -42
-65 -28 -168 50 -368 70 -182 336 -660 494 -890 153 -223 316 -393 532 -557
255 -194 404 -259 672 -294 129 -17 388 -6 490 20 145 37 287 107 371 184 101
92 124 154 133 362 6 145 7 153 40 220 27 53 60 95 144 180 160 161 201 244
199 405 -2 267 -189 512 -526 690 -227 120 -580 217 -976 270 -85 11 -181 25
-213 31 -84 15 -423 113 -525 152 -164 63 -205 71 -352 71 -143 0 -242 -19
-331 -64 -21 -11 -39 -17 -39 -12 0 5 21 30 47 55 50 50 118 88 205 112 76 22
345 13 498 -15z m-242 -106 c42 -9 136 -37 207 -63 72 -26 157 -55 190 -64 33
-9 114 -32 180 -51 66 -18 158 -39 205 -45 355 -50 461 -69 650 -116 272 -68
430 -133 609 -249 263 -170 400 -393 389 -631 -4 -80 -8 -99 -42 -167 -31 -62
-59 -97 -138 -175 -161 -159 -200 -235 -199 -387 2 -204 -38 -311 -146 -401
-166 -137 -418 -205 -709 -192 -316 14 -534 104 -834 342 -97 77 -272 249
-349 344 -114 139 -356 528 -490 786 -120 232 -181 396 -188 505 -6 99 7 125
62 125 39 0 40 1 43 38 3 40 12 46 32 22 15 -18 60 -20 60 -2 0 6 -7 31 -15
54 -8 23 -12 49 -9 58 6 14 9 14 31 -1 17 -11 28 -13 35 -6 18 18 1 41 -52 74
-27 17 -52 39 -56 50 -8 27 19 63 68 91 117 67 313 93 466 61z m-629 -63 c11
-7 7 -13 -16 -25 -39 -20 -69 -71 -84 -143 -10 -50 -9 -64 5 -97 9 -22 15 -40
14 -41 -2 -1 -19 -5 -39 -9 l-37 -7 -4 88 c-2 49 -1 101 4 117 9 36 63 94 103
112 36 16 36 16 54 5z m74 -60 c-5 -33 -1 -44 19 -64 13 -13 30 -26 38 -29 10
-3 9 -10 -5 -31 -15 -23 -16 -34 -7 -69 13 -50 9 -57 -16 -35 -10 10 -24 17
-30 17 -14 0 -32 -33 -32 -59 0 -34 -29 -25 -76 23 -41 40 -44 47 -44 95 0 84
36 151 95 177 53 24 64 19 58 -25z m-17 -1321 c257 -433 614 -846 889 -1031
91 -61 268 -152 360 -184 28 -9 59 -21 70 -25 43 -19 195 -51 285 -61 449 -52
1037 151 1357 468 85 84 179 232 212 334 6 20 41 87 77 150 37 63 81 145 99
182 l33 68 7 -74 c4 -40 3 -123 -3 -183 -8 -93 -15 -122 -45 -185 -19 -40 -45
-107 -57 -146 -12 -40 -44 -110 -72 -155 -32 -53 -53 -101 -60 -137 -12 -70
-10 -66 -85 -144 -34 -35 -78 -95 -98 -133 -48 -92 -55 -98 -135 -123 -65 -21
-72 -26 -111 -81 -39 -57 -61 -72 -124 -86 -39 -9 -84 -30 -170 -79 l-69 -39
-171 -7 c-111 -4 -191 -13 -230 -24 -99 -28 -234 -9 -363 53 -51 24 -95 37
-145 42 -48 5 -94 18 -137 39 -36 17 -81 31 -100 31 -70 1 -121 20 -166 62
-24 22 -61 52 -81 66 -21 14 -39 29 -41 34 -2 4 -8 8 -14 8 -5 0 -50 28 -100
62 -162 111 -298 255 -373 395 -15 29 -49 79 -74 110 -116 145 -280 467 -386
757 -24 67 -47 130 -51 141 -12 33 0 15 72 -105z"/>
<path d="M2178 3590 c-197 -25 -324 -98 -386 -222 -124 -250 12 -775 272
-1046 236 -247 534 -311 916 -196 301 91 522 283 603 526 9 25 21 85 27 133
44 350 -222 620 -734 746 -209 51 -540 79 -698 59z m432 -35 c465 -58 806
-230 924 -467 36 -71 44 -98 27 -98 -5 0 -27 7 -50 15 -131 46 -250 40 -374
-20 -177 -85 -364 -323 -417 -530 -24 -92 -26 -226 -6 -302 l14 -52 -35 -7
c-42 -8 -178 2 -243 18 -213 51 -424 237 -548 484 -35 69 -104 263 -99 277 2
6 28 -41 59 -104 75 -153 174 -287 260 -352 50 -38 60 -33 13 5 -119 99 -217
243 -314 466 -36 81 -36 110 0 40 20 -40 101 -160 124 -184 5 -6 34 -38 64
-72 29 -34 58 -62 64 -62 6 0 -9 21 -34 48 -99 103 -166 197 -228 319 -36 71
-42 90 -39 135 l3 53 17 -32 c31 -56 141 -158 228 -209 94 -57 120 -68 120
-54 0 6 -5 10 -11 10 -22 0 -173 96 -225 143 -65 59 -134 160 -134 196 0 47
15 54 33 16 32 -67 131 -159 255 -235 91 -56 67 -27 -29 36 -109 70 -210 174
-228 233 -10 36 -9 46 8 84 20 43 67 105 74 97 2 -3 15 -25 29 -50 34 -58 95
-116 183 -175 72 -48 264 -145 287 -145 7 0 -37 25 -98 55 -146 71 -208 111
-293 190 -56 53 -96 117 -87 141 9 25 48 31 132 23 152 -15 329 -62 510 -134
36 -14 71 -24 77 -22 19 6 -237 96 -366 128 -67 17 -152 33 -189 36 -38 3 -71
9 -73 13 -8 13 107 30 206 30 106 0 218 -18 317 -51 35 -12 66 -19 68 -16 8 8
-143 55 -216 67 -36 7 -104 13 -152 13 -147 3 -63 16 107 16 89 1 216 -6 285
-14z m889 -560 c96 -30 96 -30 89 -173 -9 -170 -67 -299 -193 -427 -79 -80
-143 -125 -261 -184 -76 -38 -204 -81 -286 -96 -34 -6 -36 -5 -53 37 -28 66
-31 223 -7 316 10 40 15 69 10 64 -20 -20 -41 -132 -41 -222 0 -73 4 -107 20
-147 22 -56 21 -63 -13 -63 -35 0 -49 55 -49 190 1 130 15 191 72 305 65 130
207 294 307 355 123 75 262 90 405 45z"/>
</g>
</svg>
