<?xml version="1.0" standalone="no"?>
<!DOCTYPE svg PUBLIC "-//W3C//DTD SVG 20010904//EN"
 "http://www.w3.org/TR/2001/REC-SVG-20010904/DTD/svg10.dtd">
<svg version="1.0" xmlns="http://www.w3.org/2000/svg"
 width="768.000000pt" height="590.000000pt" viewBox="0 0 768.000000 590.000000"
 preserveAspectRatio="xMidYMid meet">
<metadata>
Created by potrace 1.16, written by Peter Selinger 2001-2019
</metadata>
<g transform="translate(0.000000,590.000000) scale(0.100000,-0.100000)"
fill="#000000" stroke="none">
<path d="M5165 5603 c-33 -8 -63 -43 -79 -90 -8 -24 -28 -61 -44 -81 -68 -87
-70 -128 -10 -182 l41 -38 -94 -102 c-52 -56 -97 -108 -102 -115 -14 -25 -168
-125 -172 -112 -2 6 -8 29 -13 49 -6 20 -24 57 -41 82 -56 80 -121 116 -215
116 -63 0 -93 -19 -102 -65 -3 -19 -8 -35 -10 -35 -2 0 -37 10 -77 21 -99 29
-441 40 -499 16 -78 -33 -260 -193 -294 -259 -21 -40 -61 -158 -75 -218 -18
-77 -13 -214 10 -265 39 -89 155 -190 258 -226 71 -24 223 -26 277 -4 49 21
111 78 143 132 13 23 29 43 33 43 22 0 -21 -84 -82 -156 -62 -76 -76 -86 -176
-137 -182 -94 -186 -95 -444 -103 l-227 -7 -10 24 c-5 13 -26 78 -45 145 -28
93 -36 138 -36 198 0 88 29 227 67 326 31 80 127 264 198 379 115 188 165 280
165 304 0 17 -14 36 -47 63 -27 21 -57 47 -68 57 -34 32 -139 109 -162 120
-37 16 -67 0 -147 -79 -98 -98 -279 -311 -315 -372 -48 -81 -100 -230 -151
-427 -27 -104 -66 -251 -86 -325 -34 -124 -37 -146 -39 -280 l-1 -145 -85 1
c-54 1 -122 11 -191 28 -162 40 -254 49 -432 43 -286 -9 -404 -43 -584 -164
-215 -147 -282 -202 -385 -323 -104 -122 -120 -146 -204 -298 -194 -354 -236
-457 -253 -629 -12 -121 4 -656 24 -788 24 -158 116 -393 232 -590 26 -44 68
-119 95 -168 103 -186 204 -308 341 -414 114 -87 343 -179 532 -212 74 -14
421 -14 445 -2 12 7 37 4 79 -9 51 -16 95 -20 243 -20 l181 -1 50 30 c27 17
52 31 56 31 3 0 25 -9 49 -21 57 -28 179 -37 218 -17 26 14 32 14 73 -5 38
-16 58 -18 121 -13 229 20 242 20 321 -8 74 -26 78 -27 255 -20 204 7 250 18
459 106 160 67 304 163 408 271 115 119 258 358 329 550 83 224 159 554 159
688 l0 82 21 -19 c45 -40 238 -27 289 20 75 71 143 95 155 55 4 -11 5 -21 3
-22 -1 -2 -23 -9 -47 -17 -62 -21 -74 -44 -38 -76 15 -13 35 -24 43 -24 20 0
64 49 64 71 0 25 26 24 40 0 17 -33 11 -45 -30 -64 -47 -22 -84 -69 -75 -96
14 -44 72 -30 101 25 25 45 34 43 34 -9 0 -35 -6 -49 -31 -73 -54 -51 -77
-118 -44 -131 31 -11 77 50 90 120 9 46 20 47 35 3 17 -53 4 -98 -41 -141 -32
-30 -39 -44 -37 -68 5 -50 25 -42 58 22 25 50 35 61 55 61 27 0 65 -31 65 -54
0 -7 -12 -16 -28 -19 -74 -15 -110 -89 -46 -95 30 -3 66 22 89 62 14 25 69 13
102 -22 17 -18 23 -21 23 -9 0 25 -28 47 -76 59 -29 8 -44 18 -44 28 0 24 -52
70 -79 70 -19 0 -22 5 -21 33 4 73 -1 98 -22 120 -22 22 -48 96 -48 138 0 29
-28 79 -45 79 -8 0 -21 13 -30 29 -8 16 -23 32 -34 36 -24 7 -87 -18 -118 -47
-19 -18 -23 -19 -29 -5 -8 22 -54 36 -84 25 -14 -5 -35 -20 -47 -35 -19 -24
-24 -25 -50 -14 -16 6 -41 23 -56 37 -36 33 -36 87 -1 155 30 60 154 233 224
314 102 116 127 212 70 265 -29 27 -35 28 -149 32 -103 3 -123 6 -148 24 -42
32 -38 88 10 150 29 37 37 56 37 89 0 72 -69 118 -139 94 -59 -21 -66 -13 -63
73 2 42 -1 85 -7 96 -10 18 -3 27 52 72 34 29 85 80 112 115 82 104 145 194
145 205 0 6 20 32 44 58 61 65 76 127 76 309 0 147 -11 208 -47 260 -11 15
-26 60 -33 98 -15 81 -31 112 -66 125 -13 5 -24 16 -24 23 0 28 -89 52 -186
51 -74 -1 -145 -43 -213 -127 -47 -59 -81 -83 -81 -59 0 4 18 43 40 87 41 82
51 145 30 185 -9 16 0 27 57 72 99 77 101 78 212 78 121 0 127 -4 106 -84 -16
-60 -19 -114 -9 -140 7 -19 35 -21 52 -4 7 7 62 14 134 18 81 5 145 14 186 27
34 12 62 17 62 13 0 -5 -18 -30 -40 -55 -63 -73 -72 -103 -67 -230 5 -110 27
-272 42 -310 19 -46 87 -134 118 -154 18 -11 57 -47 85 -79 33 -38 61 -61 79
-65 48 -10 81 -53 108 -142 14 -44 25 -87 25 -94 0 -10 8 -11 28 -6 15 5 50 8
78 8 45 1 59 -5 132 -56 129 -90 154 -99 262 -104 52 -3 113 -11 136 -19 37
-14 49 -13 149 7 70 13 128 19 161 16 66 -7 152 -50 164 -82 11 -29 30 -33 30
-7 0 9 10 34 23 54 74 125 130 222 163 288 37 72 39 79 37 165 -2 105 12 163
60 243 59 98 75 135 97 232 12 52 26 109 31 126 12 41 11 166 -2 201 -5 15
-37 69 -70 119 -36 55 -62 107 -66 130 -3 21 -25 80 -48 129 -24 50 -58 123
-76 163 -34 77 -62 107 -165 177 -130 89 -174 106 -326 125 -86 12 -98 11
-164 -9 -39 -11 -89 -34 -112 -51 -73 -53 -134 -188 -147 -325 -3 -38 -11 -84
-17 -102 -9 -26 -7 -45 10 -105 27 -91 30 -186 5 -195 -10 -4 -19 -1 -21 8 -3
8 -23 33 -46 55 -43 44 -77 57 -226 88 -92 20 -111 20 -136 1 -34 -26 -42 -17
-54 58 -13 73 -28 113 -61 156 -11 13 -19 32 -19 42 0 10 -13 33 -30 52 -16
19 -34 46 -39 61 -6 14 -21 30 -35 35 -16 7 -26 20 -30 44 l-7 35 -58 -5 -59
-6 -5 39 c-6 46 -44 147 -70 186 -28 40 -75 58 -154 57 -37 -1 -77 -3 -88 -6z
m193 -40 c26 -16 62 -70 62 -93 0 -9 9 -34 20 -55 30 -59 20 -70 -36 -40 -26
14 -57 25 -69 25 -18 0 -23 7 -28 38 -2 21 -16 62 -29 90 -16 33 -21 53 -14
56 17 7 68 -4 94 -21z m-101 -35 c29 -56 42 -128 23 -128 -7 0 -34 22 -61 49
-26 27 -60 58 -76 71 l-28 22 24 19 c16 13 36 19 59 17 30 -3 38 -9 59 -50z
m1545 -73 c95 -20 155 -49 254 -123 93 -68 119 -100 159 -192 15 -36 42 -96
61 -133 18 -38 38 -93 44 -123 6 -30 21 -67 33 -82 58 -72 99 -144 111 -195 5
-20 2 -29 -9 -34 -44 -16 -490 30 -588 61 -9 3 -24 8 -33 11 -24 8 -7 25 101
100 88 61 210 125 240 125 15 0 30 18 22 26 -3 3 -40 -9 -83 -27 -80 -33 -233
-130 -290 -184 l-31 -30 -227 3 c-124 2 -226 7 -226 11 0 4 22 18 49 31 27 12
84 53 127 91 108 95 236 179 378 250 66 33 132 70 146 83 14 13 39 31 57 40
32 16 49 33 40 42 -6 6 -69 -33 -122 -77 -24 -20 -54 -39 -67 -42 -22 -6 -157
-76 -258 -135 l-45 -27 16 25 c80 125 106 173 134 248 34 92 55 222 36 222 -6
0 -11 -15 -11 -32 -1 -141 -124 -389 -266 -533 -63 -65 -182 -155 -205 -155
-4 0 -6 22 -2 48 4 33 -1 71 -17 127 -19 68 -21 86 -11 130 5 27 12 79 15 115
6 81 36 170 78 232 70 103 212 140 390 103z m-3536 -33 c66 -44 192 -146 198
-159 14 -34 -153 11 -200 54 -17 16 -43 47 -58 70 -44 66 -13 85 60 35z m1930
-12 l62 -22 -23 -41 c-23 -39 -76 -73 -96 -61 -5 3 -9 27 -9 54 0 27 -5 52
-11 55 -7 5 -8 -5 -4 -29 5 -23 3 -36 -4 -36 -16 0 -81 33 -81 41 0 4 12 22
27 39 30 36 37 36 139 0z m-2028 -24 c18 -40 82 -106 123 -127 21 -10 67 -24
103 -31 36 -7 66 -16 66 -20 0 -3 -13 -28 -29 -55 -270 -449 -323 -561 -367
-760 -31 -147 -30 -196 7 -323 76 -257 75 -243 7 -267 -100 -35 -478 -20 -532
21 -13 9 -16 37 -16 161 0 141 2 158 35 280 20 72 52 195 71 275 87 352 140
464 311 662 122 140 188 208 202 208 5 0 13 -11 19 -24z m2236 -40 c21 -11 48
-27 60 -33 11 -7 37 -13 56 -13 l35 -1 -25 -14 c-33 -19 -74 -19 -90 0 -7 8
-19 15 -26 15 -17 0 -18 -22 -2 -38 19 -19 -18 -15 -53 5 -36 21 -47 12 -25
-22 16 -24 16 -25 -7 -25 -13 0 -32 9 -42 20 -24 26 -39 25 -83 -7 -41 -29
-242 -233 -242 -245 0 -5 -14 -8 -31 -8 l-31 0 48 58 c78 92 186 202 220 223
17 10 41 19 52 19 14 0 22 8 27 29 3 15 14 38 23 50 14 18 23 20 57 15 22 -4
57 -16 79 -28z m186 -68 c0 -7 -20 -26 -45 -43 -25 -16 -47 -38 -51 -47 -4
-13 -16 -18 -42 -18 -39 1 -38 3 15 37 17 11 17 12 -4 12 -12 1 -34 -10 -50
-23 -21 -17 -49 -26 -112 -35 -101 -13 -101 -13 -101 -2 0 5 14 11 30 15 17 3
30 10 30 16 0 15 -22 12 -63 -9 -20 -10 -37 -15 -37 -10 0 5 4 9 8 9 5 0 22
11 38 25 34 29 41 30 65 9 26 -23 86 -19 139 9 25 13 65 26 89 30 24 3 51 13
60 21 18 19 31 21 31 4z m-199 -132 c9 -9 -8 -167 -19 -178 -8 -8 -36 -7 -106
2 -82 11 -98 16 -111 36 -14 22 -14 28 7 73 l23 49 70 9 c82 12 130 15 136 9z
m179 -117 c45 -67 79 -123 76 -126 -5 -5 -77 8 -189 34 -56 13 -67 19 -61 32
5 9 10 48 11 86 5 92 6 95 47 95 33 0 38 -5 116 -121z m10 90 c19 -12 37 -24
40 -28 3 -3 21 -18 41 -33 34 -25 139 -168 139 -188 0 -13 -24 -13 -72 2 -35
10 -47 24 -113 124 -40 61 -78 115 -84 119 -15 9 -14 25 2 25 6 0 28 -10 47
-21z m-1042 -33 c35 -19 96 -83 116 -122 8 -18 18 -51 22 -74 6 -37 4 -44 -27
-76 -18 -19 -36 -34 -40 -34 -3 0 -9 28 -11 63 -3 36 -15 81 -27 106 -29 57
-90 141 -103 141 -11 0 -5 -12 29 -58 14 -18 23 -35 21 -37 -2 -2 -25 10 -52
26 -26 17 -55 29 -64 27 -12 -3 -6 -9 18 -21 65 -32 131 -88 146 -122 8 -19
14 -63 14 -97 0 -60 -1 -64 -37 -95 -21 -18 -42 -33 -48 -33 -6 0 -11 40 -12
99 -3 125 -16 159 -82 206 -52 38 -54 43 -35 103 5 17 137 16 172 -2z m-363
-51 c202 -42 257 -80 275 -191 22 -134 -2 -322 -55 -424 -64 -123 -244 -328
-383 -434 -88 -67 -215 -125 -269 -122 -51 3 -63 11 -31 21 13 4 60 25 106 46
45 22 85 39 88 39 11 0 88 65 125 105 20 22 66 78 103 125 36 47 71 91 76 97
29 35 137 216 163 273 27 59 30 75 31 176 1 104 -1 113 -26 151 -52 79 -141
103 -378 103 -206 0 -234 -8 -326 -97 -94 -92 -147 -165 -175 -243 -20 -54
-24 -84 -24 -180 0 -108 2 -117 26 -153 33 -48 97 -97 176 -136 95 -48 196
-41 243 16 39 46 140 182 159 214 17 27 21 50 21 118 0 81 -1 84 -34 117 -30
30 -40 34 -86 34 -96 0 -120 -33 -120 -167 0 -72 4 -94 21 -122 20 -34 20 -35
3 -48 -28 -20 -45 -12 -68 32 -18 33 -21 58 -21 147 0 100 2 108 25 134 57 61
166 81 266 47 72 -24 76 -32 69 -146 -4 -86 -10 -108 -47 -190 -65 -146 -119
-215 -195 -252 -41 -20 -172 -20 -237 0 -111 34 -231 136 -260 222 -40 117 5
360 88 471 53 72 177 183 241 216 42 22 326 22 430 1z m29 -76 c38 -11 39 -11
15 -23 -14 -7 -24 -21 -24 -33 0 -12 -11 -33 -24 -46 -20 -23 -22 -31 -16 -76
4 -28 3 -51 -2 -51 -4 0 -30 7 -57 15 -78 24 -177 20 -236 -10 -75 -38 -99
-77 -107 -172 -4 -62 -2 -91 12 -133 28 -83 53 -120 82 -120 31 0 93 29 93 43
0 6 -12 30 -26 55 -24 41 -26 52 -22 130 4 73 8 88 27 104 38 30 107 20 138
-21 7 -9 13 -47 13 -86 0 -65 -3 -75 -37 -125 -20 -30 -39 -57 -42 -60 -3 -3
-26 -31 -50 -63 -63 -82 -84 -97 -143 -97 -78 0 -218 79 -262 148 -32 50 -38
94 -27 197 11 90 48 188 87 230 11 11 34 38 51 61 43 55 117 114 162 130 45
16 339 19 395 3z m1067 -14 c57 -8 145 -25 194 -36 133 -31 368 -90 375 -94 4
-2 93 -29 198 -60 202 -58 242 -73 242 -87 0 -13 -49 -8 -120 11 -36 10 -133
36 -216 59 -83 22 -206 59 -272 82 -128 43 -140 45 -493 76 -184 16 -199 17
-240 1 -45 -17 -136 -88 -298 -233 -50 -44 -109 -91 -132 -103 l-40 -23 6 39
c11 62 13 67 52 93 20 14 73 60 117 103 85 82 202 168 246 178 49 13 278 9
381 -6z m304 -120 c89 -29 111 -40 99 -47 -5 -3 -58 -21 -119 -41 -81 -27
-135 -38 -205 -42 -52 -3 -110 -8 -129 -11 l-34 -5 67 72 c36 40 66 79 66 86
0 25 166 17 255 -12z m-1275 -68 c63 -51 77 -110 39 -176 -21 -38 -84 -85
-130 -96 l-26 -7 4 69 c2 37 0 110 -4 161 -5 51 -7 95 -5 97 5 5 103 -33 122
-48z m1508 -6 c151 -45 289 -84 327 -93 87 -22 86 -24 -40 -63 -66 -21 -147
-49 -180 -62 -67 -27 -204 -53 -281 -53 -56 0 -114 -16 -114 -32 0 -6 8 -7 18
-3 9 4 58 11 107 16 144 13 204 26 304 64 52 20 103 35 113 33 22 -3 0 -32
-190 -238 -144 -156 -196 -205 -232 -220 -28 -12 -41 -30 -21 -30 21 0 120 76
166 128 27 32 80 89 116 127 37 39 103 111 148 162 81 90 119 117 180 129 37
8 36 9 12 -42 -31 -64 -50 -179 -56 -344 -6 -147 -22 -240 -57 -335 -19 -49
-136 -250 -158 -270 -22 -20 -19 -25 -45 70 -22 78 -48 113 -102 137 -62 27
-242 209 -276 279 -16 31 -27 70 -27 93 0 23 -7 68 -15 101 -17 71 -19 185 -4
238 17 64 142 207 180 207 10 0 19 5 19 10 0 15 35 12 108 -9z m-1042 -55 c7
-30 -9 -82 -49 -159 -25 -49 -34 -57 -51 -53 -12 3 -60 6 -108 6 -49 0 -88 4
-88 9 0 5 26 26 58 45 31 20 93 67 137 105 44 38 83 70 87 70 4 1 10 -10 14
-23z m2029 -66 c230 -50 298 -60 456 -70 96 -5 184 -10 197 -10 27 0 28 -16 6
-108 -50 -215 -59 -241 -91 -253 -57 -21 -74 -17 -373 86 -263 91 -520 148
-520 115 0 -5 21 -10 47 -10 26 0 88 -11 138 -25 49 -13 122 -33 160 -43 39
-11 158 -50 265 -87 151 -52 203 -66 232 -62 21 3 41 1 44 -5 3 -5 -8 -32 -26
-60 -49 -79 -60 -122 -60 -235 0 -115 -6 -123 -56 -74 -37 36 -150 105 -234
144 -121 54 -271 102 -301 94 -25 -7 -30 0 -77 96 -23 48 -55 106 -70 129 -56
84 -103 166 -154 268 -29 58 -54 108 -56 113 -5 10 424 8 473 -3z m-1704 -20
c36 -7 61 -18 74 -34 11 -13 30 -27 42 -30 14 -5 25 -18 28 -34 3 -15 10 -41
15 -58 6 -17 10 -39 10 -50 0 -12 13 -40 29 -65 44 -67 55 -133 48 -278 -8
-155 -23 -217 -65 -262 -17 -19 -48 -60 -69 -91 -89 -133 -130 -186 -177 -233
-91 -91 -112 -102 -202 -109 l-81 -7 5 148 c4 127 1 160 -17 232 -26 105 -26
105 6 52 27 -46 93 -231 93 -262 0 -26 11 -50 20 -44 10 6 -13 109 -46 200
-26 71 -84 183 -107 207 -7 7 -22 36 -32 65 -16 45 -17 60 -7 120 15 87 31
223 34 288 l3 50 47 -60 c71 -89 106 -186 118 -325 6 -63 13 -143 16 -178 3
-34 10 -60 15 -56 5 3 7 15 5 27 -3 12 -7 78 -10 147 l-5 125 24 -51 c85 -174
85 -397 0 -582 -27 -58 -31 -77 -15 -67 37 23 100 250 100 361 0 119 -55 304
-120 404 -9 14 -27 52 -40 84 -13 33 -39 79 -57 103 -32 41 -32 44 -11 38 50
-16 134 -71 186 -124 40 -41 69 -84 105 -160 53 -110 65 -171 66 -323 1 -44 5
-68 13 -68 13 0 5 168 -13 264 -13 70 -76 202 -126 264 l-34 42 113 0 c119 0
158 6 158 22 0 6 -11 7 -27 3 -16 -4 -75 -7 -133 -6 -79 1 -113 6 -139 19 -40
21 -52 42 -23 42 34 0 204 121 190 135 -4 4 -22 -5 -40 -21 -109 -95 -192
-118 -277 -75 l-42 22 62 70 c111 126 156 144 290 119z m1270 -97 c28 -60 63
-128 77 -152 24 -42 25 -50 28 -235 2 -185 -5 -295 -26 -421 -18 -107 -24
-225 -11 -225 7 0 11 21 11 57 0 31 5 84 11 117 6 34 13 71 15 84 5 28 24 28
58 1 36 -28 58 -74 67 -136 9 -69 79 -182 79 -129 0 8 -5 18 -10 21 -20 12
-44 71 -51 124 -9 64 -50 129 -95 151 l-30 15 -2 237 c-1 131 2 240 7 243 12
7 35 -32 126 -213 42 -84 95 -176 118 -204 77 -97 180 -253 214 -320 18 -38
37 -68 43 -68 14 0 15 -4 -30 85 -42 83 -113 190 -200 301 -55 70 -98 149 -87
161 8 8 104 -15 187 -45 130 -47 267 -123 349 -194 l44 -37 -43 -83 c-56 -109
-114 -208 -138 -238 l-20 -24 -57 29 c-51 27 -65 30 -148 30 -51 -1 -129 -7
-175 -15 -69 -12 -87 -12 -104 -1 -12 7 -69 16 -127 20 -119 8 -146 19 -268
104 -57 39 -82 51 -122 55 -33 3 -51 9 -51 18 0 7 4 15 9 18 4 3 37 56 71 117
90 159 116 257 125 471 4 90 14 195 22 233 19 89 51 155 74 155 5 0 32 -48 60
-107z m-1694 -207 c-4 -68 -11 -134 -16 -148 -11 -30 -182 -138 -274 -174 -67
-27 -109 -61 -127 -105 -7 -16 -16 -29 -20 -29 -4 0 -19 17 -33 38 -22 31 -26
50 -28 121 l-3 83 44 42 c57 53 128 138 166 199 16 26 36 49 44 52 8 3 54 9
101 13 47 5 94 14 105 20 45 27 47 20 41 -112z m-42 -294 c-9 -31 -45 -122
-80 -202 -34 -80 -79 -196 -99 -257 -44 -132 -93 -203 -93 -135 0 50 -26 119
-60 159 -18 21 -33 47 -34 58 0 11 -2 29 -4 40 -2 11 -5 33 -8 48 -2 15 -9 33
-15 39 -14 14 -16 55 -4 60 5 2 23 26 42 53 42 62 51 69 123 96 32 12 85 39
118 61 33 21 63 38 67 38 4 0 18 9 32 20 25 19 25 19 28 0 2 -11 -4 -46 -13
-78z m-479 -31 c-1 -57 3 -75 22 -100 21 -29 31 -91 14 -91 -5 0 -35 9 -68 20
-32 11 -104 25 -159 31 -55 6 -102 13 -104 14 -1 2 26 18 60 36 65 32 158 99
193 138 34 38 43 27 42 -48z m531 -121 c50 -159 55 -189 52 -350 -3 -148 -4
-151 -25 -146 -11 3 -44 0 -72 -8 -29 -7 -53 -11 -56 -9 -2 2 9 41 25 86 15
45 28 96 29 112 0 45 -37 166 -61 199 l-21 28 27 62 c15 33 34 78 43 99 8 21
19 34 22 30 4 -4 21 -51 37 -103z m-2707 30 c81 -5 168 -19 247 -39 84 -22
145 -31 200 -31 52 0 85 -5 99 -14 68 -48 427 -70 545 -34 31 10 69 28 85 40
27 22 40 23 199 26 187 4 415 -6 415 -18 0 -14 -113 -58 -255 -100 -257 -76
-217 -73 -740 -66 l-470 5 -155 41 c-236 62 -313 94 -359 152 -20 25 -22 32
-10 39 17 11 40 11 199 -1z m-223 -52 c22 -33 25 -42 13 -46 -11 -4 -61 -46
-125 -107 -31 -30 -147 -169 -168 -202 -13 -21 -52 -92 -87 -158 -34 -66 -75
-142 -90 -170 -36 -64 -106 -240 -124 -314 -32 -122 -57 -715 -36 -833 12 -63
78 -314 106 -398 26 -80 87 -222 140 -330 29 -58 69 -150 89 -205 52 -141 94
-221 193 -369 116 -173 171 -231 266 -281 42 -22 74 -44 72 -50 -5 -17 -399
-7 -476 11 -258 62 -397 136 -566 302 -85 83 -120 133 -249 357 -135 234 -166
299 -225 459 -75 203 -83 276 -84 726 l-1 365 28 84 c26 76 94 216 217 446
129 240 293 419 530 576 80 53 164 106 188 118 60 30 194 57 304 60 57 1 58 1
85 -41z m2263 -32 c50 -5 167 -40 197 -59 6 -4 15 -29 18 -55 10 -79 14 -89
49 -131 32 -38 57 -109 54 -156 -5 -71 -3 -73 70 -80 37 -4 81 -11 98 -16 23
-7 43 -6 75 5 75 27 105 22 133 -22 60 -95 89 -166 87 -215 -2 -57 10 -82 48
-101 31 -16 50 -62 95 -221 32 -115 44 -214 51 -450 3 -104 8 -237 12 -295 10
-181 -42 -460 -137 -740 -83 -246 -226 -478 -390 -637 -109 -105 -319 -218
-525 -283 -91 -29 -427 -50 -475 -30 -17 7 -30 15 -30 19 0 3 53 26 118 50
156 59 212 94 307 193 121 126 185 216 253 353 81 163 121 275 190 535 l57
215 -1 250 c-1 357 -22 457 -146 712 -35 70 -66 133 -71 138 -4 6 -43 71 -88
145 -44 75 -94 151 -110 170 -51 59 -166 233 -221 337 -45 86 -77 133 -152
230 -22 29 -16 36 49 53 28 7 77 27 110 43 82 41 133 56 180 51 22 -2 65 -6
95 -8z m-2154 -51 c26 -18 303 -98 419 -121 59 -12 83 -20 76 -28 -91 -117
-149 -232 -187 -370 -34 -127 -48 -329 -40 -616 14 -537 26 -812 41 -930 8
-69 20 -188 24 -265 11 -159 17 -194 67 -355 91 -292 150 -416 265 -554 53
-63 86 -112 83 -120 -3 -8 -25 -24 -50 -35 -39 -19 -63 -21 -213 -21 -154 0
-174 2 -234 24 -96 37 -225 117 -284 178 -105 107 -250 347 -312 516 -23 62
-66 165 -96 229 -30 63 -55 117 -55 119 0 2 -20 51 -44 108 -44 102 -112 326
-141 461 -17 83 -19 222 -5 550 7 150 16 261 26 299 16 61 85 246 106 281 6
11 41 76 76 145 98 187 171 296 283 419 85 93 147 120 195 86z m2704 -17 c0
-2 11 -36 25 -76 32 -96 31 -128 -8 -237 l-33 -90 -69 4 c-38 2 -80 7 -93 12
l-24 9 27 27 c35 35 48 62 74 148 34 113 73 205 88 205 7 0 13 -1 13 -2z
m-1014 -90 c58 -64 101 -124 129 -183 58 -119 183 -320 216 -345 27 -21 192
-289 262 -425 157 -307 177 -396 177 -782 l0 -213 -46 -177 c-25 -98 -50 -194
-55 -213 -16 -69 -90 -252 -145 -363 -65 -129 -136 -227 -248 -344 -93 -98
-125 -118 -300 -187 l-132 -53 -200 -7 c-254 -10 -259 -6 -156 104 86 91 196
278 225 380 66 230 81 318 108 610 15 172 6 599 -15 720 -9 47 -30 171 -47
275 -17 105 -37 215 -45 245 -8 30 -26 107 -40 170 -14 63 -42 160 -61 215
-54 157 -71 219 -103 378 -17 81 -30 152 -30 156 0 5 62 11 138 14 107 4 154
11 217 30 106 33 116 33 151 -5z m-506 -213 c22 -109 58 -245 92 -345 31 -91
62 -194 68 -230 6 -36 22 -108 35 -160 13 -52 43 -207 67 -345 l42 -250 1
-350 c0 -333 -1 -359 -28 -530 -48 -318 -78 -416 -170 -561 -52 -82 -183 -248
-223 -284 -37 -32 -39 -32 -107 -27 -96 8 -143 34 -208 115 -30 37 -59 73 -66
80 -40 42 -84 104 -107 150 -35 68 -102 242 -120 307 -8 28 -28 90 -45 138
-27 75 -33 111 -42 245 -5 86 -12 164 -14 172 -24 83 -61 1036 -53 1365 5 176
8 211 31 290 46 161 110 289 190 382 l21 23 299 -2 300 -3 37 -180z m1859
-101 c22 -16 23 -22 19 -101 -5 -96 3 -110 54 -98 18 4 50 7 72 7 81 0 107
-80 47 -147 -38 -44 -58 -106 -45 -143 17 -50 65 -66 192 -67 112 -1 115 -2
138 -29 48 -55 20 -141 -84 -259 -66 -74 -155 -196 -206 -282 -28 -46 -36 -69
-36 -108 0 -44 4 -54 35 -82 19 -18 54 -40 77 -48 l43 -15 -55 -1 c-94 -2
-125 39 -117 156 7 119 93 283 250 475 33 41 57 80 57 94 0 12 5 26 10 29 6 3
10 10 10 14 0 5 -21 -2 -47 -15 -94 -48 -253 -25 -300 42 -55 80 -60 155 -13
214 16 21 30 45 30 53 0 9 5 19 10 22 6 3 10 16 10 28 l0 21 -16 -22 c-8 -12
-21 -22 -28 -22 -7 0 -30 -13 -52 -30 -25 -19 -51 -30 -73 -30 -77 0 -93 65
-40 165 30 57 31 63 18 90 -13 28 -25 34 -101 50 -15 3 -32 14 -38 25 -10 19
-8 19 33 14 26 -4 53 -2 63 5 27 15 56 13 83 -5z m86 -350 c-76 -100 -14 -266
112 -304 41 -12 176 -10 206 4 28 13 21 -15 -14 -54 -89 -100 -249 -356 -249
-397 0 -7 -4 -13 -9 -13 -11 0 -21 100 -21 214 -1 141 -16 229 -66 385 -27 82
-43 146 -37 148 6 2 25 15 43 28 51 38 68 32 35 -11z"/>
</g>
</svg>
