<?xml version="1.0" standalone="no"?>
<!DOCTYPE svg PUBLIC "-//W3C//DTD SVG 20010904//EN"
 "http://www.w3.org/TR/2001/REC-SVG-20010904/DTD/svg10.dtd">
<svg version="1.0" xmlns="http://www.w3.org/2000/svg"
 width="800.000000pt" height="1033.000000pt" viewBox="0 0 800.000000 1033.000000"
 preserveAspectRatio="xMidYMid meet">
<metadata>
Created by potrace 1.16, written by Peter Selinger 2001-2019
</metadata>
<g transform="translate(0.000000,1033.000000) scale(0.100000,-0.100000)"
fill="#000000" stroke="none">
<path d="M4235 9739 c-164 -17 -237 -41 -354 -119 -107 -71 -142 -85 -321
-129 -105 -26 -276 -108 -344 -164 -64 -53 -85 -77 -138 -153 -24 -34 -54 -66
-68 -72 -62 -27 -242 -144 -314 -204 -173 -145 -276 -310 -301 -484 -7 -45
-25 -78 -71 -129 -137 -151 -255 -382 -299 -585 -24 -108 -30 -285 -15 -401
l12 -97 -30 -80 c-39 -99 -49 -217 -33 -352 12 -94 73 -364 90 -398 5 -9 14
-29 21 -43 6 -14 23 -39 36 -54 13 -15 24 -32 24 -37 0 -4 -20 -8 -45 -8 -61
0 -184 -26 -243 -51 -162 -69 -240 -119 -321 -202 -35 -36 -80 -73 -100 -83
-110 -51 -253 -126 -306 -161 -70 -47 -155 -121 -155 -134 0 -16 -59 -92 -130
-165 -118 -124 -161 -189 -247 -384 -121 -271 -190 -466 -238 -670 -15 -63
-36 -146 -47 -185 -15 -51 -23 -118 -28 -245 -5 -96 -13 -213 -19 -260 -46
-361 66 -1123 216 -1470 8 -19 21 -50 29 -68 8 -18 14 -39 14 -47 0 -8 5 -15
10 -15 6 0 10 -5 10 -10 0 -15 63 -144 72 -148 5 -2 8 -9 8 -15 0 -11 77 -137
100 -164 5 -7 10 -15 10 -19 0 -5 46 -69 102 -143 90 -118 310 -354 403 -431
153 -127 421 -301 600 -390 50 -25 92 -47 95 -50 3 -3 28 -15 55 -27 28 -12
97 -42 153 -68 113 -50 286 -110 452 -157 574 -161 694 -177 1065 -142 103 10
284 17 460 19 220 1 314 6 390 19 114 19 246 51 290 71 17 7 68 27 115 45 47
18 141 60 209 93 128 63 157 86 274 217 48 55 69 70 136 98 44 19 109 57 144
85 339 271 357 290 394 406 15 47 38 104 52 126 24 38 128 174 141 185 18 14
94 138 130 211 90 184 132 357 133 544 0 66 4 122 7 125 21 15 93 189 115 275
38 147 65 551 45 663 -8 42 -14 95 -13 117 12 323 5 387 -74 603 l-45 122 85
83 c177 171 263 340 292 574 6 45 13 58 50 92 23 21 68 56 100 77 75 50 121
97 161 163 52 84 67 138 135 493 9 45 19 63 50 92 51 49 122 158 147 228 37
99 43 170 27 293 -8 61 -15 137 -15 170 -1 33 -7 87 -15 120 -21 85 -19 135 8
186 101 194 108 394 23 654 -20 60 -40 112 -44 115 -12 9 -32 49 -32 65 0 8
-4 15 -9 15 -5 0 -11 9 -14 19 -2 10 -33 62 -67 115 l-62 96 19 52 c27 79 24
241 -7 328 -50 143 -124 259 -223 354 -41 39 -241 176 -257 176 -5 0 -42 16
-83 35 -77 35 -134 82 -177 145 -14 19 -30 41 -37 48 -7 7 -13 17 -13 22 0 18
-119 124 -195 174 -181 118 -371 181 -580 193 -100 6 -100 6 -173 55 -89 60
-179 101 -291 134 -110 32 -206 32 -330 -1 -52 -14 -107 -25 -122 -25 -14 0
-44 -6 -66 -14 -37 -13 -46 -12 -109 10 -164 57 -304 73 -489 53z m347 -68
c52 -10 117 -28 144 -40 l49 -21 -3 -58 c-2 -31 1 -87 6 -124 9 -68 9 -68 -16
-68 -29 0 -82 -24 -109 -49 -19 -18 -20 -18 -59 17 -64 58 -134 84 -240 91
-75 5 -97 10 -116 27 -49 46 -150 83 -270 99 -27 3 -48 10 -48 15 0 15 164 88
235 104 100 22 109 23 227 25 69 1 139 -6 200 -18z m661 -11 c133 -19 246 -61
364 -137 l56 -35 -31 -29 c-17 -16 -33 -42 -37 -58 -4 -18 -15 -33 -27 -37
-12 -3 -42 -22 -68 -40 -52 -37 -88 -42 -125 -18 -38 25 -132 29 -211 9 -68
-17 -145 -15 -168 4 -6 5 -38 18 -70 29 -54 18 -61 24 -77 64 -21 51 -23 93
-8 154 13 52 20 57 119 78 132 28 179 30 283 16z m-1148 -210 c92 -35 92 -34
-15 -120 -118 -95 -258 -245 -337 -363 -26 -40 -50 -74 -53 -77 -3 -3 -15 -23
-26 -45 -28 -52 -36 -111 -23 -159 14 -50 5 -55 -74 -44 -77 10 -177 49 -238
91 -58 39 -129 104 -129 116 0 5 -7 14 -15 21 -26 22 -58 102 -63 158 -10 115
37 184 192 285 117 77 245 132 341 146 44 7 87 14 95 16 8 2 76 3 150 1 113
-2 145 -7 195 -26z m1788 5 c162 -29 298 -76 422 -147 22 -13 42 -25 45 -28 3
-3 31 -25 62 -48 94 -72 228 -229 228 -268 0 -31 -61 -123 -111 -168 -44 -40
-133 -86 -144 -75 -2 3 -11 40 -20 84 -38 184 -132 288 -413 459 -51 31 -95
56 -97 56 -3 0 -26 13 -52 29 -27 16 -67 32 -90 36 -24 4 -43 11 -43 16 0 5
20 19 45 31 25 12 45 26 45 30 0 11 23 10 123 -7z m-1429 -109 c29 -12 106
-92 106 -110 0 -5 -8 -20 -19 -34 -10 -15 -40 -70 -65 -122 -26 -52 -52 -103
-57 -114 -53 -96 -122 -337 -139 -486 -7 -62 -16 -99 -26 -106 -24 -19 -106
-25 -169 -13 -162 30 -291 141 -357 309 -10 25 -18 59 -18 75 0 31 70 181 100
212 9 10 21 26 26 34 32 56 176 209 248 264 22 17 67 47 100 67 58 35 65 37
149 38 53 0 101 -5 121 -14z m1333 -60 c127 -61 330 -209 429 -313 44 -47 76
-134 96 -260 17 -109 -13 -210 -74 -256 -60 -44 -96 -52 -218 -51 -111 1 -258
28 -282 52 -5 5 -4 28 2 58 25 111 7 292 -42 419 -36 95 -145 282 -170 293
-20 9 -5 41 26 56 100 47 138 47 233 2z m-887 -18 c19 -9 58 -24 86 -34 46
-16 52 -21 63 -61 7 -24 16 -43 20 -43 3 0 19 -27 34 -60 77 -163 75 -542 -6
-768 -48 -137 -155 -191 -349 -178 -255 16 -433 161 -413 336 14 132 86 358
177 558 28 63 101 173 134 203 61 56 95 70 159 66 33 -1 76 -10 95 -19z m493
-39 c101 -52 173 -137 201 -239 8 -30 26 -86 39 -125 58 -166 62 -342 12 -450
-35 -74 -54 -91 -124 -111 -42 -13 -85 -15 -188 -12 -73 3 -135 7 -138 10 -3
3 2 96 12 206 15 174 15 220 5 327 -13 126 -45 259 -83 342 -11 25 -18 51 -15
58 12 32 213 27 279 -6z m-2345 -238 c54 -159 193 -301 385 -392 37 -17 67
-35 67 -38 0 -15 -89 -181 -134 -251 -64 -97 -237 -269 -307 -304 -68 -33 -95
-33 -248 5 -149 37 -164 44 -219 101 -49 50 -132 209 -132 253 0 51 28 145 69
232 32 66 57 99 128 171 48 49 106 103 128 120 49 38 227 160 237 161 3 1 15
-25 26 -58z m3783 -126 c287 -142 405 -271 464 -505 41 -166 27 -339 -33 -395
-68 -63 -252 -135 -397 -154 -201 -26 -190 -29 -219 54 -10 28 -29 74 -42 103
-13 29 -24 55 -24 57 0 16 -51 110 -93 175 -51 78 -117 147 -168 177 -16 10
-29 21 -29 25 0 5 13 26 28 47 23 31 51 101 68 168 3 11 150 113 163 113 15 0
110 111 127 149 23 50 27 49 155 -14z m-3116 -327 c47 -81 168 -183 260 -220
54 -22 121 -37 175 -40 l45 -3 -3 -65 c-4 -68 -29 -190 -57 -276 -33 -98 -133
-290 -172 -328 -119 -118 -250 -116 -497 4 -209 102 -306 200 -331 333 -6 33
-4 37 52 80 79 62 101 83 159 152 69 82 119 162 160 253 63 141 46 127 174
140 9 1 24 -13 35 -30z m2090 -175 c69 -18 247 -22 352 -9 57 7 75 6 87 -5 9
-8 42 -34 73 -58 95 -73 202 -231 251 -371 23 -65 27 -91 27 -195 0 -112 -2
-123 -28 -173 -33 -63 -100 -132 -152 -156 -68 -33 -198 -49 -295 -37 -102 12
-207 43 -244 72 l-26 21 6 106 c9 153 -24 359 -83 516 -37 99 -76 192 -90 213
-24 36 12 112 46 97 9 -4 43 -13 76 -21z m-1463 -127 c75 -76 120 -105 213
-138 109 -39 195 -52 301 -44 l94 6 0 -157 c0 -206 -18 -312 -70 -418 -59
-119 -100 -159 -200 -188 -150 -43 -306 -23 -447 59 -78 46 -193 170 -193 208
0 8 30 77 68 153 101 206 138 328 149 488 3 52 10 95 14 95 5 0 37 -29 71 -64z
m-1903 -23 c24 -66 98 -149 178 -201 104 -67 226 -102 355 -102 l70 0 -5 -32
c-27 -178 -75 -344 -135 -463 -109 -218 -265 -306 -514 -292 -101 6 -222 39
-285 78 l-32 20 -3 162 c-5 268 12 355 103 542 60 122 127 227 202 311 34 39
45 35 66 -23z m3207 -19 c28 -54 75 -176 102 -264 62 -204 52 -439 -25 -583
-62 -116 -117 -142 -298 -142 -98 0 -133 5 -190 23 -101 34 -207 89 -261 137
l-48 42 21 49 c48 113 73 281 73 494 l0 146 54 56 c30 31 57 66 61 78 5 17 12
20 28 16 104 -30 271 -33 367 -7 36 10 70 17 75 17 6 -1 24 -29 41 -62z m1745
-370 c87 -129 147 -281 170 -429 25 -156 -2 -383 -56 -485 -26 -49 -181 -110
-280 -110 l-42 0 14 63 c15 72 18 267 4 347 -5 30 -17 83 -26 118 -16 66 -93
273 -104 282 -3 3 -13 19 -21 35 -8 17 -27 50 -43 75 -32 52 -37 47 94 90 102
34 141 55 178 94 23 25 25 25 44 8 11 -9 41 -49 68 -88z m-4231 -78 c63 -75
225 -189 320 -224 120 -45 176 -56 298 -57 141 0 130 12 107 -121 -51 -290
-160 -516 -297 -610 -51 -36 -91 -34 -272 12 -335 86 -396 137 -440 370 -19
99 -17 105 44 194 54 80 130 269 165 418 10 39 20 72 24 72 3 0 26 -25 51 -54z
m3773 -31 c15 -13 27 -26 27 -29 0 -3 17 -32 39 -65 78 -121 151 -406 151
-588 0 -155 -41 -250 -153 -352 -45 -41 -166 -121 -184 -121 -6 0 -13 -3 -15
-8 -5 -12 -166 -72 -191 -71 -60 1 -215 46 -243 69 -27 23 -29 29 -21 60 41
175 46 268 22 435 -7 55 -23 129 -34 165 -12 36 -21 70 -21 75 0 6 39 23 88
40 78 26 94 36 153 95 48 47 72 80 85 117 12 34 26 55 42 63 22 9 24 15 20 67
l-3 56 48 2 c26 2 51 5 54 9 4 3 29 6 57 6 39 -1 57 -6 79 -25z m-2885 -282
c92 -93 181 -154 282 -193 78 -30 93 -33 190 -31 58 0 119 2 135 4 29 2 30 1
33 -49 2 -29 -6 -87 -17 -130 -11 -44 -25 -110 -31 -147 -15 -98 -71 -239
-116 -294 -57 -69 -125 -97 -239 -97 -184 -1 -366 75 -507 209 -47 44 -58 68
-38 80 15 9 59 80 91 146 46 94 75 200 115 417 15 83 29 152 31 152 2 0 34
-30 71 -67z m1889 -101 c80 -34 213 -58 273 -48 l39 6 6 -47 c4 -27 16 -75 27
-108 53 -161 38 -422 -35 -575 -16 -34 -66 -100 -97 -128 -71 -63 -310 -100
-464 -71 -95 17 -216 78 -230 116 -4 9 7 44 24 80 50 106 71 216 77 411 l6
173 56 26 c65 31 126 88 166 156 33 57 37 57 152 9z m-981 -33 c81 -60 238
-135 321 -153 40 -9 106 -16 147 -16 l76 0 0 -38 c0 -64 -20 -303 -31 -367
-47 -278 -228 -401 -494 -335 -75 18 -237 88 -255 110 -3 3 -21 17 -40 30 -73
51 -73 51 -25 175 20 50 45 127 56 173 22 94 43 293 34 333 -4 17 -1 32 7 39
22 19 132 89 141 90 4 0 33 -18 63 -41z m-2130 -252 c40 -124 58 -160 95 -198
21 -22 29 -38 25 -53 -3 -11 -12 -77 -21 -145 -19 -150 -52 -257 -97 -316
l-33 -45 -70 7 c-120 14 -264 9 -361 -11 -50 -11 -102 -16 -116 -13 -29 8 -93
65 -125 112 -66 96 -111 329 -99 513 6 89 27 217 38 227 2 2 35 -8 75 -21 40
-13 123 -32 185 -41 94 -13 129 -14 210 -5 85 10 173 34 188 51 12 15 56 40
64 37 5 -1 24 -46 42 -99z m4667 -344 c17 -93 32 -193 42 -281 12 -109 -30
-293 -87 -374 -63 -91 -153 -166 -259 -216 -84 -38 -283 -81 -345 -73 -7 1 -8
18 -3 54 14 100 9 319 -11 477 -28 214 -29 204 25 224 49 19 154 97 227 169
41 40 55 47 87 47 44 0 213 33 251 48 52 22 56 18 73 -75z m-4383 37 c305
-110 415 -123 515 -59 l46 29 28 -22 c15 -13 63 -52 105 -88 l78 -65 -7 -115
c-7 -135 -28 -236 -61 -302 l-23 -46 -48 14 c-114 35 -189 45 -314 42 -112 -3
-130 -1 -170 19 -90 45 -197 84 -284 105 -49 12 -92 23 -94 25 -2 1 10 29 27
62 37 68 78 216 88 316 6 62 18 115 26 115 2 0 41 -14 88 -30z m1520 -256 c90
-63 179 -113 251 -139 40 -14 77 -32 81 -38 11 -17 10 -292 -2 -362 -9 -56
-44 -160 -60 -178 -4 -5 -51 1 -104 12 -90 20 -105 20 -243 9 -268 -23 -354
-16 -401 30 -51 49 -126 108 -207 162 -44 29 -82 54 -83 56 -2 1 6 29 18 61
25 66 55 215 66 322 8 83 2 80 114 46 34 -10 107 -19 190 -22 135 -5 136 -5
212 26 42 18 82 39 88 47 13 15 14 15 80 -32z m1780 -32 c60 -21 94 -26 170
-27 52 0 107 4 121 8 26 8 27 7 42 -65 41 -183 52 -329 37 -449 -14 -110 -30
-155 -59 -164 -21 -6 -30 -45 -11 -45 16 0 11 -33 -8 -55 -28 -34 -125 -103
-174 -125 -119 -52 -298 -42 -427 25 -50 25 -131 95 -157 135 l-27 40 16 73
c26 112 37 189 50 352 l12 149 78 24 c101 30 164 68 202 120 19 26 35 39 45
36 8 -3 49 -17 90 -32z m-922 -77 c132 -77 171 -88 307 -90 l120 -2 3 -81 c7
-193 -55 -447 -136 -557 -42 -58 -164 -139 -200 -132 -15 3 -65 14 -112 25
-47 11 -125 27 -173 36 -70 13 -101 25 -145 55 -194 131 -181 119 -172 149 37
115 50 202 57 374 7 156 -3 141 102 153 70 8 133 33 201 78 30 20 58 37 63 37
4 0 42 -20 85 -45z m-2729 -201 c102 -15 215 -40 311 -68 25 -8 70 -21 101
-30 33 -10 68 -29 84 -46 l27 -28 -20 -54 c-30 -80 -45 -202 -41 -333 2 -63 2
-115 0 -115 -2 0 -22 15 -45 34 -141 115 -369 241 -555 308 -75 26 -95 38
-103 58 -24 64 -108 214 -129 230 -3 3 -11 15 -17 27 -11 19 -9 22 11 26 55
11 279 6 376 -9z m-494 -10 c46 -21 84 -66 128 -150 36 -69 46 -104 29 -104
-4 0 -21 4 -39 9 -75 22 -248 32 -353 21 -107 -10 -262 -46 -268 -62 -9 -21
-202 5 -202 27 0 15 100 108 159 149 132 92 450 156 546 110z m1439 -188 c82
-29 162 -70 232 -117 48 -33 184 -163 184 -176 0 -6 -46 -40 -102 -76 -57 -36
-134 -94 -171 -128 -64 -58 -167 -194 -167 -220 0 -17 -60 -3 -138 33 -103 47
-231 121 -238 138 -3 8 -8 94 -11 190 -6 194 5 265 54 349 l25 43 127 -4 c105
-4 139 -9 205 -32z m-1340 -112 c33 -9 73 -26 89 -40 19 -16 41 -24 67 -24 76
0 295 -87 424 -167 45 -28 228 -162 236 -173 18 -22 260 -196 308 -219 108
-54 143 -61 357 -65 110 -3 250 -11 310 -20 61 -8 180 -24 265 -36 415 -55
521 -94 860 -315 186 -121 338 -285 531 -571 119 -176 140 -231 218 -599 17
-77 40 -174 52 -215 19 -68 21 -92 16 -260 -3 -102 -12 -243 -21 -315 -9 -71
-21 -173 -27 -225 -14 -119 -44 -270 -74 -375 -23 -79 -31 -100 -86 -223 -16
-35 -29 -65 -29 -67 0 -6 -107 -224 -128 -260 -9 -16 -32 -57 -51 -90 -30 -53
-68 -115 -189 -305 -48 -75 -122 -164 -150 -182 -13 -8 -72 -62 -130 -119
-102 -99 -133 -127 -232 -209 -24 -19 -48 -40 -54 -45 -6 -6 -31 -26 -56 -45
-25 -19 -47 -37 -50 -40 -7 -9 -139 -90 -145 -90 -3 0 -24 -9 -48 -19 -110
-49 -253 -88 -417 -115 -300 -48 -926 -72 -1059 -41 -150 36 -192 45 -316 70
-141 29 -200 43 -285 70 -78 24 -191 62 -220 73 -14 5 -45 18 -70 27 -137 53
-332 144 -338 158 -2 4 -9 7 -16 7 -17 0 -211 109 -369 209 -76 47 -147 90
-158 96 -10 5 -19 13 -19 17 0 5 -6 8 -13 8 -11 0 -208 194 -361 354 -219 229
-391 524 -497 848 -87 268 -124 449 -169 833 -18 151 -24 453 -10 565 32 268
101 546 181 725 17 39 62 162 94 260 77 232 119 307 250 445 34 36 91 97 126
135 84 92 211 208 279 255 19 13 37 27 40 31 10 14 139 87 230 131 102 49 259
104 397 138 160 41 332 46 457 14z m-816 -43 c10 -6 4 -12 -20 -21 -55 -23
-310 -178 -328 -200 -3 -3 -21 -17 -40 -30 -19 -13 -37 -27 -40 -30 -3 -3 -39
-34 -80 -70 -89 -78 -160 -151 -160 -165 0 -16 -134 -158 -138 -147 -4 14 26
72 38 72 6 0 10 11 10 25 0 17 21 51 63 99 34 40 71 83 82 97 117 143 170 198
235 248 83 64 190 109 290 121 36 4 67 8 70 9 3 0 11 -3 18 -8z m5733 -130
c-22 -179 -80 -300 -213 -438 -101 -106 -147 -143 -205 -164 -32 -12 -70 -30
-85 -41 -52 -36 -156 -77 -225 -88 -78 -13 -160 -5 -145 13 15 18 69 195 81
262 5 33 13 95 17 138 l7 79 71 32 c79 37 161 108 196 172 l22 41 87 6 c102 6
221 35 317 76 86 37 89 32 75 -88z m-2566 -25 c184 -25 331 -73 442 -142 63
-40 76 -60 98 -149 13 -52 16 -90 11 -148 -6 -70 -43 -212 -64 -245 -11 -16
-43 -5 -166 55 -89 44 -224 93 -255 93 -9 0 -38 8 -66 19 -63 23 -163 37 -430
56 -115 9 -261 22 -323 30 -62 8 -135 15 -163 15 -27 0 -49 4 -49 9 0 15 86
124 127 160 35 31 152 112 298 207 33 21 62 42 63 46 6 13 371 8 477 -6z
m1238 -69 c120 -122 226 -167 392 -167 l87 0 -4 -122 c-7 -175 -47 -302 -110
-346 -10 -7 -18 -20 -18 -29 0 -20 -29 -53 -46 -53 -7 0 -22 16 -34 35 -12 20
-27 41 -33 48 -7 7 -30 35 -52 62 -108 136 -290 306 -436 407 l-24 17 45 43
c58 56 120 125 120 134 0 8 31 44 37 44 2 0 36 -33 76 -73z m-515 -197 c161
-45 373 -175 520 -318 128 -126 176 -194 221 -313 36 -93 23 -206 -36 -322
-49 -98 -220 -239 -255 -210 -7 6 -22 29 -33 50 -11 21 -24 43 -28 48 -4 6
-41 57 -82 115 -94 133 -246 291 -345 360 -19 13 -37 27 -40 30 -3 3 -26 18
-52 33 -45 26 -62 57 -39 71 5 3 11 16 14 28 3 13 15 57 26 98 16 59 21 105
21 213 0 158 -8 149 108 117z m1412 -410 c0 -60 -36 -184 -76 -267 -36 -73
-63 -111 -128 -178 -45 -47 -89 -85 -97 -85 -16 0 -23 7 -89 95 -25 33 -48 62
-52 63 -5 2 -8 8 -8 13 0 5 -6 17 -14 26 -8 10 -36 46 -61 80 l-47 63 23 32
c38 55 53 60 166 64 146 5 286 45 339 99 22 21 44 19 44 -5z m-500 -471 c0 -3
11 -19 25 -35 14 -16 25 -35 25 -41 0 -7 3 -13 8 -13 4 0 19 -21 32 -47 14
-26 37 -68 52 -94 88 -155 143 -421 118 -570 -23 -136 -102 -250 -230 -334
-60 -38 -189 -95 -218 -95 -6 0 -14 10 -16 23 -29 138 -40 194 -62 332 -34
219 -66 337 -118 444 -14 30 -26 60 -26 65 0 6 17 22 38 36 139 91 228 208
276 364 l19 59 38 -44 c21 -24 39 -47 39 -50z m268 -1174 c3 -85 -1 -199 -7
-253 -12 -100 -47 -282 -61 -317 -5 -11 -15 -40 -24 -64 -31 -82 -76 -138
-133 -165 -51 -26 -186 -55 -250 -56 l-33 0 0 108 c0 59 9 166 20 237 11 72
23 192 26 268 l7 138 29 -6 c22 -5 49 4 126 45 53 29 106 60 118 71 11 10 23
19 26 19 8 0 98 87 98 95 0 17 36 53 45 44 5 -5 11 -79 13 -164z m-168 -983
c-1 -151 -8 -189 -47 -239 -16 -21 -47 -82 -67 -136 -56 -145 -103 -227 -179
-312 -10 -11 -27 -36 -37 -55 -10 -19 -35 -54 -56 -78 -56 -61 -122 -82 -262
-82 -60 0 -111 3 -114 6 -3 3 19 49 49 102 66 117 176 334 205 405 67 168 112
299 129 383 l12 61 92 10 c50 6 129 24 176 41 46 16 87 27 92 25 4 -2 7 -61 7
-131z m-457 -949 c18 -29 -92 -167 -188 -238 -22 -17 -49 -37 -60 -46 -229
-187 -252 -200 -364 -201 -132 -2 -138 8 -53 98 31 34 76 83 99 110 23 27 53
63 68 79 15 17 53 65 86 107 l59 77 132 0 c73 -1 149 4 168 9 46 13 48 13 53
5z m-685 -553 c35 0 27 -18 -43 -86 -96 -94 -182 -147 -380 -233 -46 -20 -246
-83 -251 -79 -2 3 30 27 72 53 42 27 81 53 88 59 6 6 34 27 61 45 47 33 227
175 256 203 8 7 31 27 51 45 l38 32 42 -19 c24 -11 53 -20 66 -20z"/>
<path d="M3733 5127 c-11 -12 -29 -38 -38 -57 -10 -19 -30 -53 -45 -75 -45
-66 -174 -313 -252 -480 -50 -109 -194 -444 -203 -475 -4 -14 -13 -38 -20 -55
-17 -39 -75 -194 -120 -320 -20 -55 -41 -112 -46 -126 -49 -127 -387 -242
-914 -313 -257 -34 -363 -46 -416 -46 -67 0 -79 -15 -24 -29 240 -60 578 -71
796 -26 83 17 243 61 274 75 11 4 46 20 77 34 31 14 59 26 63 26 10 0 170 93
176 103 38 58 -18 -245 -81 -438 -133 -409 -200 -595 -314 -870 -37 -88 -71
-169 -76 -180 -26 -56 -60 -138 -57 -141 8 -8 87 86 87 105 0 5 4 11 9 13 16
6 178 316 250 478 14 30 37 82 51 115 37 80 61 138 100 235 12 30 28 69 35 85
19 41 105 262 105 268 0 2 9 25 20 51 l21 46 77 -60 c42 -33 82 -65 89 -70 27
-22 242 -154 312 -192 42 -22 81 -45 87 -49 20 -16 376 -190 380 -186 5 5 -41
46 -136 121 -41 33 -77 63 -80 66 -3 4 -28 25 -56 46 -28 21 -91 73 -140 114
-49 41 -111 93 -138 115 -102 84 -188 159 -255 222 l-56 52 1 123 c3 248 82
595 250 1097 61 182 183 510 214 573 23 49 21 56 -7 25z"/>
<path d="M1886 4124 c-188 -34 -398 -132 -488 -228 -63 -67 -98 -186 -65 -226
7 -8 34 -32 61 -52 l49 -38 106 0 c246 0 538 89 645 196 61 60 115 152 122
207 7 49 -11 93 -48 116 -65 41 -234 52 -382 25z m277 -57 c24 -13 54 -27 67
-30 20 -5 22 -10 15 -43 -20 -109 -87 -185 -219 -249 -145 -71 -317 -115 -446
-115 -161 0 -215 61 -159 178 59 121 410 280 621 282 62 0 85 -5 121 -23z"/>
<path d="M3563 3801 c-21 -8 -50 -27 -65 -43 -23 -23 -28 -37 -28 -80 0 -59
53 -235 102 -338 81 -168 208 -322 338 -410 55 -38 74 -45 125 -48 l60 -4 53
50 52 51 0 66 c0 89 -14 143 -65 250 -47 98 -85 151 -230 329 -128 157 -243
216 -342 177z m95 -55 c69 -35 154 -110 227 -201 22 -28 42 -52 45 -55 15 -15
92 -134 122 -190 40 -75 88 -206 88 -243 0 -41 -21 -88 -44 -97 -33 -12 -133
8 -176 35 -62 39 -144 124 -194 202 -25 39 -46 76 -46 81 0 6 -3 12 -7 14 -8
3 -80 145 -108 213 -27 67 -46 171 -35 200 7 19 62 65 78 65 1 0 24 -11 50
-24z"/>
<path d="M3243 2845 l-48 -46 0 -102 c0 -104 13 -157 66 -274 10 -24 19 -45
19 -48 0 -3 25 -46 56 -95 131 -213 304 -318 421 -257 49 26 68 69 68 157 -1
87 -9 112 -85 240 -31 52 -82 138 -113 190 -109 184 -185 254 -299 274 -33 6
-40 3 -85 -39z m138 -50 c35 -23 76 -61 114 -106 20 -24 85 -127 85 -134 0 -3
27 -49 59 -104 111 -185 138 -261 119 -325 -11 -35 -12 -36 -64 -36 -61 0 -88
10 -164 61 -61 41 -71 51 -127 135 -86 129 -153 327 -153 456 0 52 2 59 28 72
31 17 53 13 103 -19z"/>
</g>
</svg>
