<?xml version="1.0" standalone="no"?>
<!DOCTYPE svg PUBLIC "-//W3C//DTD SVG 20010904//EN"
 "http://www.w3.org/TR/2001/REC-SVG-20010904/DTD/svg10.dtd">
<svg version="1.0" xmlns="http://www.w3.org/2000/svg"
 width="768.000000pt" height="654.000000pt" viewBox="0 0 768.000000 654.000000"
 preserveAspectRatio="xMidYMid meet">
<metadata>
Created by potrace 1.16, written by Peter Selinger 2001-2019
</metadata>
<g transform="translate(0.000000,654.000000) scale(0.100000,-0.100000)"
fill="#000000" stroke="none">
<path d="M5712 6483 c-6 -16 -20 -59 -32 -98 -12 -38 -34 -97 -50 -130 -57
-120 -83 -205 -92 -295 -2 -18 -10 -26 -28 -28 -23 -3 -28 3 -44 50 -10 29
-30 71 -44 93 -24 36 -99 133 -112 145 -19 17 -90 126 -90 139 -1 25 -48 73
-68 69 -15 -3 -17 -16 -15 -102 2 -66 8 -108 19 -130 20 -40 28 -120 17 -171
-11 -49 -6 -75 14 -75 10 0 13 6 9 16 -4 9 -2 22 2 28 22 27 22 95 1 158 -29
89 -49 191 -39 202 5 5 24 -22 43 -60 20 -38 44 -78 55 -90 92 -97 179 -251
155 -275 -5 -5 -56 -10 -113 -11 -88 -2 -110 1 -137 17 -26 15 -34 16 -47 6
-23 -19 -20 -37 16 -88 52 -72 113 -95 282 -110 66 -5 68 -6 83 -41 8 -19 17
-66 20 -105 6 -66 5 -69 -12 -59 -11 5 -30 34 -44 63 -15 29 -42 66 -62 82
-36 28 -55 35 -179 62 -126 28 -370 174 -370 221 0 27 -52 74 -81 74 -28 0
-41 -22 -20 -35 6 -3 28 -63 51 -134 23 -71 50 -137 59 -148 10 -11 22 -29 25
-40 4 -12 30 -45 57 -73 l51 -53 -4 -76 c-2 -63 -9 -88 -38 -145 -19 -38 -40
-70 -45 -72 -6 -3 -32 2 -58 10 l-48 14 -10 -26 c-12 -30 4 -169 21 -186 6 -6
10 -15 10 -22 0 -18 -88 7 -146 41 -54 32 -85 28 -61 -8 9 -12 44 -69 79 -125
35 -57 82 -128 105 -157 43 -53 45 -65 11 -65 -10 0 -60 -28 -111 -61 -50 -34
-116 -73 -144 -86 -29 -14 -53 -31 -53 -38 0 -20 35 -27 77 -16 75 21 150 14
214 -20 72 -39 100 -67 79 -79 -8 -4 -50 -37 -93 -72 -85 -68 -112 -88 -182
-131 -28 -18 -45 -36 -45 -48 0 -25 15 -24 104 6 63 21 87 24 148 19 101 -8
168 -23 168 -39 0 -8 -23 -35 -51 -62 -57 -54 -85 -108 -95 -186 -5 -41 -17
-66 -57 -119 -27 -38 -55 -68 -62 -68 -19 0 -36 -49 -29 -86 4 -23 1 -42 -10
-59 -25 -39 -46 -108 -44 -151 1 -42 -43 -170 -58 -167 -5 1 -11 10 -13 20 -2
10 -8 21 -14 25 -40 25 -52 -92 -15 -142 20 -28 20 -31 5 -48 -22 -24 -23
-131 -1 -173 14 -28 14 -33 -3 -69 -10 -22 -21 -40 -25 -40 -8 0 -26 59 -34
115 -3 22 -9 49 -14 60 -4 11 -13 47 -20 80 -17 90 -36 139 -79 210 -27 43
-138 175 -158 188 -7 4 -18 13 -25 20 -38 38 -162 91 -273 119 -104 26 -131
29 -200 24 -85 -7 -172 -26 -270 -58 -33 -11 -78 -24 -100 -29 -21 -6 -45 -15
-52 -20 -23 -20 -36 1 -29 51 8 58 49 176 70 199 19 21 21 39 12 77 -9 39 -27
56 -84 78 -34 13 -47 14 -65 4 -12 -6 -51 -22 -87 -34 -52 -18 -64 -26 -61
-40 2 -11 6 -48 8 -83 4 -59 3 -63 -14 -56 -10 4 -36 12 -58 18 -53 13 -59 20
-61 70 -1 23 -3 49 -6 57 -3 8 -10 33 -16 56 -14 47 -101 142 -153 166 -19 9
-55 19 -81 23 -41 6 -57 3 -112 -24 -36 -17 -72 -31 -80 -31 -9 0 -40 16 -70
35 -104 66 -160 63 -258 -15 -35 -28 -63 -40 -110 -49 -79 -15 -166 -48 -196
-74 -28 -26 -28 -59 1 -73 12 -7 41 -22 65 -34 23 -12 56 -41 71 -64 45 -63
154 -167 206 -194 19 -9 52 -15 89 -14 51 2 63 -2 96 -28 136 -108 395 -98
530 20 30 27 40 30 75 25 28 -4 49 -16 72 -40 18 -19 38 -35 46 -35 13 0 47
-40 47 -55 0 -3 -27 -3 -60 1 -87 10 -280 -21 -345 -55 -16 -8 -60 -35 -97
-59 -74 -48 -147 -137 -189 -229 l-23 -52 -46 6 c-34 4 -57 -1 -95 -19 -77
-37 -95 -50 -112 -86 -19 -39 -7 -57 42 -66 38 -7 87 -65 111 -131 16 -46 21
-164 11 -274 -2 -29 -27 -41 -27 -14 0 30 -49 115 -93 160 -23 24 -61 50 -87
60 -58 21 -66 29 -51 47 13 16 12 218 -2 247 -5 11 -1 18 15 25 13 6 48 23 78
37 30 15 63 27 73 27 10 0 17 7 17 18 0 11 -20 26 -55 42 -52 24 -67 41 -45
55 14 8 29 71 23 94 -8 31 -39 35 -89 11 -58 -29 -72 -16 -38 34 14 20 33 58
41 84 l16 46 -44 38 c-65 56 -69 52 -69 -50 0 -49 -3 -91 -6 -95 -3 -3 -25 14
-48 39 -44 45 -66 55 -66 29 0 -8 -4 -23 -9 -33 -6 -9 -12 -29 -15 -43 l-6
-27 -42 15 c-54 19 -161 27 -213 16 -52 -11 -55 -41 -6 -65 40 -20 91 -67 91
-84 0 -6 -12 -15 -26 -18 -35 -9 -104 -54 -129 -84 -11 -13 -39 -61 -62 -106
-41 -78 -43 -80 -43 -45 0 21 -8 47 -19 60 -18 23 -18 23 30 70 43 42 49 53
49 88 0 36 -4 44 -32 61 -18 11 -58 22 -89 26 l-57 6 -6 44 c-3 25 -12 57 -20
72 -16 31 -78 67 -99 59 -9 -3 -23 7 -36 24 -25 34 -55 37 -91 9 l-25 -19 23
-46 c12 -25 22 -49 22 -54 0 -5 -35 9 -77 30 -43 21 -88 39 -101 39 -22 0 -23
-3 -16 -47 3 -27 13 -67 21 -91 16 -48 13 -57 -21 -66 -39 -10 -96 -46 -96
-61 0 -8 -12 -21 -28 -30 -50 -31 -132 -160 -132 -209 0 -37 -16 -40 -40 -7
-11 17 -33 39 -49 50 l-27 20 -27 -25 c-33 -31 -33 -34 -1 -69 36 -39 64 -86
64 -109 0 -16 -5 -17 -37 -11 -20 3 -72 24 -115 46 -42 21 -84 39 -92 39 -22
0 -24 -30 -4 -83 21 -60 44 -96 77 -122 68 -53 68 -52 19 -104 -87 -90 -112
-146 -124 -278 l-7 -71 -35 -7 c-52 -10 -127 -50 -152 -82 -18 -23 -21 -37
-17 -83 2 -30 11 -82 20 -115 9 -33 18 -78 21 -100 3 -22 10 -58 16 -80 5 -22
17 -74 25 -115 8 -41 23 -104 35 -140 31 -101 87 -291 98 -335 60 -239 102
-338 146 -343 15 -2 30 -11 33 -20 20 -54 134 -139 171 -128 12 4 21 -3 29
-21 7 -15 13 -31 13 -37 0 -27 58 -79 136 -120 80 -43 91 -46 161 -46 58 0 84
5 113 21 35 20 39 20 84 5 57 -20 101 -20 231 -1 55 8 105 15 111 15 5 0 19 8
30 18 48 43 50 43 77 22 14 -12 43 -22 64 -23 37 -2 38 -4 86 -96 27 -52 55
-101 61 -108 6 -7 34 -39 61 -71 94 -110 168 -148 398 -201 60 -14 227 -15
227 -1 0 6 8 10 17 10 18 0 41 6 159 44 68 22 91 25 150 20 38 -4 79 -10 92
-15 37 -14 196 -10 254 6 124 34 221 73 263 105 42 34 133 160 157 218 6 15
21 50 34 78 13 28 24 65 24 81 0 30 1 30 60 36 34 3 72 13 86 22 53 35 165 63
334 84 131 16 142 18 185 32 73 23 314 13 495 -21 30 -6 75 -14 100 -19 39 -7
81 -16 230 -51 33 -7 72 -17 255 -62 44 -10 121 -28 170 -38 50 -10 106 -23
125 -29 19 -5 98 -26 175 -46 77 -20 149 -40 160 -45 17 -7 105 -35 260 -81
108 -32 209 -70 372 -140 50 -21 97 -39 104 -39 6 0 41 -14 76 -30 37 -18 79
-30 103 -30 67 0 148 95 188 221 27 81 8 228 -44 345 -8 18 -15 42 -16 55 -3
27 -9 27 132 8 47 -6 142 -13 212 -16 124 -4 128 -4 174 23 76 45 86 69 81
199 -5 120 5 91 -125 340 -9 17 -19 35 -24 40 -83 108 -106 136 -139 167 -22
21 -39 42 -39 48 0 6 30 10 76 10 88 0 151 24 184 70 31 44 54 173 41 235 -6
28 -13 71 -16 97 -5 36 -22 71 -71 145 -84 125 -108 154 -226 271 -110 110
-111 110 -306 223 -135 78 -143 84 -137 108 4 15 9 41 12 59 3 21 11 32 22 32
23 0 61 28 61 46 0 8 -17 27 -39 42 -23 16 -38 35 -38 48 -1 30 -32 74 -53 74
-15 0 -20 11 -25 55 -4 30 -4 80 0 110 6 49 5 55 -12 55 -26 0 -62 27 -63 48
0 9 -4 60 -8 112 -5 52 -4 103 0 112 4 9 8 39 8 67 0 57 -18 69 -38 26 -20
-44 -28 -27 -29 58 0 45 -1 96 -1 112 -1 17 0 48 1 70 2 35 -1 40 -22 43 -13
2 -28 -2 -32 -10 -6 -9 -9 -4 -9 15 0 58 -78 156 -151 189 -27 13 -49 26 -49
31 0 4 19 8 43 7 94 -1 187 12 187 26 0 21 -29 64 -74 108 l-39 39 89 44 c49
25 98 53 109 63 11 10 35 25 53 34 27 14 33 22 30 44 -3 24 -7 27 -48 30 -55
3 -181 31 -195 43 -5 5 -15 9 -22 9 -8 0 -33 9 -55 20 -23 11 -50 20 -60 20
-27 0 -22 22 11 54 l29 28 85 -12 c47 -7 109 -10 143 -6 32 3 97 9 144 12 47
4 89 10 94 15 14 13 -18 43 -85 79 -36 19 -95 67 -154 126 -101 101 -112 106
-184 83 -61 -19 -114 -40 -156 -59 -58 -28 -134 -45 -146 -33 -18 18 2 41 41
47 52 8 153 62 223 119 32 26 62 47 68 47 5 0 35 -16 65 -35 76 -49 113 -47
91 5 -34 83 -31 90 63 167 70 57 85 74 85 97 0 23 -6 30 -39 41 -34 12 -48 11
-114 -5 -81 -20 -95 -17 -108 23 -4 12 -22 41 -41 64 l-35 42 60 90 c69 104
90 154 72 176 -8 10 -18 11 -36 4 -14 -5 -35 -9 -47 -9 -19 0 -17 4 16 31 42
35 67 76 67 113 0 32 -10 37 -50 26 -53 -15 -228 -15 -316 -1 l-82 14 -6 44
c-3 25 -2 52 3 61 5 9 12 50 16 91 8 81 37 195 56 217 6 7 9 21 5 29 -7 19
-40 19 -56 0 -13 -16 -110 -70 -144 -81 -27 -9 -90 -52 -146 -102 -25 -22 -47
-38 -49 -36 -3 3 -4 23 -3 45 2 26 -10 75 -34 142 -38 104 -68 157 -90 157 -6
0 -16 -12 -22 -27z m62 -122 c14 -35 28 -94 32 -130 3 -36 10 -75 16 -87 7
-16 3 -35 -21 -85 -16 -35 -38 -86 -48 -113 -31 -84 -45 -72 -41 33 2 50 1 91
-2 91 -15 0 -31 -78 -30 -143 1 -39 1 -78 1 -86 -1 -8 -16 1 -36 22 -20 21
-42 37 -50 37 -44 0 -19 175 44 303 21 45 49 111 60 147 12 36 24 71 27 79 7
21 19 4 48 -68z m395 -86 c-14 -59 -46 -266 -48 -317 -1 -11 -15 -21 -38 -27
-40 -11 -133 -15 -133 -5 0 3 16 35 35 73 37 72 40 81 25 81 -5 0 -26 -30 -47
-67 -40 -72 -76 -113 -101 -113 -8 0 -36 -18 -63 -41 -30 -25 -49 -35 -49 -26
0 32 55 176 87 229 13 21 23 41 23 46 0 4 29 35 65 67 63 59 233 159 247 146
4 -3 3 -24 -3 -46z m100 -375 c94 -16 134 -19 209 -12 84 7 92 6 92 -10 0 -22
-30 -52 -139 -137 -36 -28 -54 -36 -100 -39 -57 -4 -79 2 -251 63 -103 37
-174 38 -220 4 -19 -15 -44 -29 -55 -31 -39 -7 -29 -36 22 -62 26 -14 65 -41
87 -60 l39 -34 -11 -73 c-6 -40 -9 -76 -6 -81 3 -5 -18 -35 -46 -68 -28 -32
-50 -67 -48 -76 2 -12 -7 -20 -32 -27 -19 -5 -40 -13 -47 -18 -19 -17 -25 8
-8 35 28 42 83 226 68 226 -7 0 -13 -10 -13 -22 0 -13 -6 -35 -14 -50 -8 -14
-19 -43 -26 -63 -7 -21 -23 -54 -36 -73 -14 -20 -27 -47 -30 -61 -10 -45 -13
-51 -28 -51 -9 0 -16 18 -21 58 -4 31 -21 85 -37 120 -34 71 -33 103 7 181 13
25 33 68 45 95 19 43 99 157 133 190 52 50 111 69 207 68 30 -1 71 5 90 12 47
18 37 19 169 -4z m-1064 -10 c16 -6 79 -7 176 -1 149 9 150 9 195 -16 25 -14
52 -37 61 -52 9 -14 25 -39 36 -55 l20 -29 -29 -53 c-16 -30 -32 -54 -35 -54
-4 0 -16 19 -27 43 -21 43 -72 97 -107 111 -11 4 -71 14 -133 21 -101 12 -116
17 -152 45 -22 17 -40 36 -40 41 0 11 3 11 35 -1z m-292 -34 c43 -31 181 -101
237 -119 25 -8 78 -23 117 -32 76 -18 153 -63 153 -90 0 -18 -12 -19 -28 -3
-7 7 -52 13 -109 16 -54 2 -121 4 -149 5 -28 1 -62 -4 -77 -12 -42 -23 -67 2
-142 145 -32 62 -51 114 -40 114 4 0 21 -11 38 -24z m1187 -144 c25 -8 59 -21
75 -28 91 -38 159 -47 204 -28 91 39 186 61 195 46 7 -11 -88 -140 -118 -162
-62 -45 -136 -43 -209 6 -49 33 -96 36 -147 9 -19 -10 -37 -21 -40 -24 -3 -3
-24 -24 -48 -45 -42 -40 -62 -44 -44 -9 9 17 29 119 39 203 7 55 11 63 31 55
9 -4 37 -14 62 -23z m-815 -117 c97 -2 128 -16 208 -96 45 -45 57 -63 52 -79
-4 -14 -1 -22 10 -26 36 -14 87 -167 86 -259 -1 -90 2 -87 -50 -45 -33 25 -40
38 -54 105 -20 91 -42 145 -58 145 -7 0 -8 -7 -4 -17 21 -50 34 -93 40 -137
l8 -48 -34 7 c-19 4 -51 14 -71 22 -34 13 -36 17 -27 40 14 38 11 194 -6 251
-19 64 -42 69 -67 14 -37 -79 -99 -186 -129 -220 -38 -45 -145 -112 -177 -112
-29 0 -61 17 -85 43 -21 25 -18 41 11 45 46 7 111 141 116 240 2 37 4 75 5 85
0 9 11 27 22 38 19 19 28 21 73 13 28 -4 87 -8 131 -9z m966 -86 c45 -23 70
-29 118 -29 36 0 74 -6 91 -15 52 -27 98 -109 114 -205 3 -19 16 -59 27 -88
12 -29 19 -56 15 -59 -3 -4 -24 8 -45 25 -22 18 -42 32 -46 32 -18 0 -99 64
-160 125 -78 79 -174 155 -196 155 -18 -1 -89 -92 -89 -115 0 -9 -17 -32 -37
-51 -31 -30 -41 -34 -67 -28 -34 8 -61 12 -88 13 -10 1 -18 8 -18 16 0 22 208
228 249 247 40 19 58 15 132 -23z m-18 -208 c49 -12 49 -12 34 -44 -16 -37
-56 -46 -147 -34 -41 5 -77 11 -79 13 -2 2 13 20 35 39 42 37 81 43 157 26z
m-306 -62 c27 -7 64 -18 84 -25 35 -12 170 -30 199 -26 8 2 45 12 82 23 l68
21 33 -28 c18 -16 43 -36 57 -45 l24 -16 -24 -30 c-30 -35 -98 -80 -159 -106
-62 -25 -208 -27 -276 -3 -64 22 -79 34 -64 52 7 9 7 19 -2 36 -26 51 -42 45
-148 -54 -77 -71 -91 -79 -91 -50 0 23 63 88 122 124 26 16 48 34 48 39 0 12
-1 12 -41 -8 -56 -27 -133 -88 -148 -116 -21 -39 -45 -17 -36 32 13 73 89 150
174 177 48 16 44 16 98 3z m-1045 -55 c64 -73 265 -194 323 -194 14 0 39 -7
55 -15 26 -13 30 -21 30 -55 0 -22 -2 -40 -5 -40 -2 0 -20 11 -40 24 -47 32
-253 99 -334 108 -23 3 -35 26 -77 143 -6 18 -8 45 -5 60 3 14 25 1 53 -31z
m402 12 c30 -27 34 -79 14 -147 -13 -39 -14 -40 -48 -33 -19 4 -43 6 -53 6
-21 -1 -110 42 -126 62 -9 11 -2 18 36 35 53 24 101 57 121 84 17 23 26 22 56
-7z m146 -66 c21 0 93 -37 139 -72 41 -31 68 -76 75 -125 5 -37 2 -54 -17 -87
-13 -23 -36 -73 -52 -113 -15 -40 -32 -70 -37 -67 -4 3 -5 16 -2 30 3 13 3 46
-2 72 l-8 47 -7 -71 c-12 -126 -29 -169 -42 -106 -12 56 -49 123 -96 171 -47
49 -49 52 -52 118 -3 62 6 189 17 221 3 10 10 9 33 -3 17 -8 40 -15 51 -15z
m461 -98 c-6 -15 -13 -79 -15 -144 -4 -110 -14 -156 -47 -208 -5 -8 -16 -30
-24 -47 -15 -31 -18 -33 -70 -33 -30 0 -55 5 -55 10 0 6 4 10 9 10 21 0 84
111 89 157 4 35 2 44 -7 38 -7 -4 -10 -13 -7 -21 7 -17 -13 -66 -31 -77 -7 -4
-13 -14 -13 -21 0 -16 -94 -106 -110 -106 -15 0 -4 95 21 182 19 66 72 148
113 178 12 8 33 26 49 42 53 52 102 88 105 78 2 -6 -1 -23 -7 -38z m-1116 -17
c17 -7 62 -19 100 -26 39 -7 74 -16 80 -21 5 -4 20 -8 35 -8 59 0 214 -62 270
-107 87 -72 135 -124 156 -172 51 -115 19 -133 -80 -43 -53 48 -77 63 -138 81
-40 12 -83 26 -95 31 -12 5 -63 12 -114 16 -81 6 -96 10 -132 38 -22 17 -45
40 -51 51 -6 11 -30 50 -54 87 -58 92 -61 102 -31 93 13 -4 38 -13 54 -20z
m1223 -66 c58 -31 89 -67 110 -127 14 -42 3 -67 -62 -134 -34 -36 -53 -48 -75
-48 -15 0 -48 -7 -71 -15 -24 -8 -45 -13 -47 -11 -2 2 7 26 20 53 32 63 51
146 43 185 -8 39 3 128 16 128 5 0 35 -14 66 -31z m672 -81 c52 -50 108 -99
123 -109 36 -21 27 -27 -55 -34 -104 -9 -190 9 -300 62 -77 37 -100 45 -110
35 -10 -10 -9 -18 5 -41 20 -34 23 -114 5 -128 -17 -13 -206 -25 -213 -14 -2
5 10 16 28 24 25 12 93 64 146 112 1 2 0 9 -4 15 -4 6 -26 -6 -58 -33 -95 -81
-131 -89 -93 -21 14 26 26 62 26 80 0 27 4 34 23 38 100 19 141 30 202 55 168
69 160 70 275 -41z m-1605 -143 c121 -28 147 -36 183 -54 21 -10 45 -28 55
-39 15 -16 15 -21 4 -30 -10 -9 -26 -8 -63 2 -69 21 -224 24 -224 6 0 -6 30
-10 69 -10 72 0 171 -18 171 -31 0 -9 -84 -60 -128 -78 -24 -10 -58 -12 -125
-7 -80 6 -96 11 -127 35 -32 25 -109 66 -165 86 -18 6 -17 9 15 36 19 15 64
43 100 62 75 39 137 45 235 22z m1388 -169 c115 -44 177 -64 235 -73 17 -3 32
-9 32 -13 0 -5 -37 -23 -82 -41 -74 -28 -93 -32 -178 -31 -128 2 -270 22 -295
41 -71 57 -156 91 -227 91 -37 0 -36 14 2 30 22 9 37 10 58 2 15 -6 80 -12
145 -14 96 -3 114 -1 100 9 -18 14 -31 16 -138 17 -96 1 -95 20 2 24 43 2 83
5 88 7 6 3 41 2 78 0 48 -4 102 -18 180 -49z m-634 4 c45 -23 63 -137 43 -260
-12 -68 -9 -96 15 -142 17 -35 9 -35 -66 1 -81 38 -88 45 -96 94 -19 114 -58
180 -122 208 -49 21 -56 46 -21 79 15 14 35 20 65 20 35 0 50 -6 81 -35 21
-19 49 -55 62 -80 13 -25 27 -45 32 -45 10 0 10 6 -1 28 -5 9 -17 34 -27 55
-11 21 -27 45 -36 54 -10 9 -18 20 -18 25 0 11 67 10 89 -2z m-373 -29 c24
-11 50 -33 64 -55 25 -42 22 -58 -31 -140 -69 -109 -307 -157 -510 -102 -31 8
-91 19 -134 25 -42 5 -79 12 -83 16 -13 13 118 113 184 141 22 9 61 14 98 13
33 -1 76 1 94 6 28 7 32 5 26 -10 -8 -19 5 -17 73 11 43 18 42 28 -2 20 -19
-4 -35 -5 -35 -2 0 5 118 80 140 89 29 11 76 6 116 -12z m599 -57 c11 -8 26
-14 35 -14 8 -1 37 -21 65 -46 28 -25 67 -49 90 -55 83 -23 171 -52 200 -67
36 -18 125 -94 125 -106 0 -5 -50 -7 -113 -4 -135 6 -153 16 -357 197 -25 22
-50 41 -57 41 -16 0 -86 40 -95 53 -4 6 -4 15 -2 19 7 11 85 -2 109 -18z m-44
-91 c42 -20 128 -87 146 -113 19 -28 7 -25 -25 5 -38 36 -86 31 -90 -8 -2 -16
1 -34 7 -41 6 -7 16 -37 22 -67 21 -100 56 -122 127 -79 41 25 49 44 34 83 -6
17 -10 32 -8 34 2 2 20 -12 41 -30 36 -32 38 -37 37 -93 0 -32 -7 -76 -16 -96
-9 -21 -16 -46 -16 -56 0 -10 -11 -29 -25 -42 l-24 -23 -31 26 c-48 41 -82 85
-95 125 -17 49 -30 43 -31 -14 -1 -40 -7 -52 -37 -80 -39 -37 -63 -45 -52 -16
3 9 9 31 12 47 3 17 12 37 19 46 12 14 11 21 -9 50 -13 19 -36 61 -53 94 l-30
60 22 60 c12 33 23 76 23 96 1 30 7 49 16 49 1 0 17 -7 36 -17z m-408 -125
c46 -62 45 -75 -12 -125 -28 -25 -57 -57 -63 -71 -7 -14 -34 -38 -60 -53 -52
-31 -63 -27 -74 29 -6 31 -5 32 25 32 27 0 34 5 47 36 10 23 25 39 44 46 49
17 52 64 5 81 -13 5 34 57 51 57 7 0 24 -15 37 -32z m130 -98 c14 -12 48 -30
74 -42 86 -38 123 -68 123 -99 0 -15 5 -31 11 -35 7 -4 10 -27 7 -61 -3 -29
-1 -56 4 -59 11 -7 -71 -84 -90 -84 -7 0 -34 -18 -59 -40 -25 -22 -50 -40 -54
-40 -5 0 -12 -17 -15 -39 -6 -39 -50 -101 -72 -101 -7 0 -12 14 -12 33 0 17
-4 48 -9 67 -5 19 -12 58 -15 85 l-7 50 23 -30 c14 -18 25 -49 28 -80 7 -67
26 -59 22 10 -2 42 -9 65 -34 102 -39 58 -80 99 -106 108 -32 9 -33 69 -4 124
20 38 133 149 153 150 4 1 18 -8 32 -19z m-646 4 c12 -3 27 -19 33 -35 7 -16
16 -29 20 -29 3 0 21 -18 39 -41 24 -30 35 -55 41 -97 7 -56 7 -58 -31 -101
-22 -24 -39 -49 -39 -56 0 -14 -70 -105 -81 -105 -4 0 -15 12 -24 28 -10 15
-35 41 -56 57 -76 58 -89 76 -89 126 0 61 27 113 94 179 31 30 56 60 56 67 0
14 5 15 37 7z m181 -24 c6 -37 21 -50 58 -50 33 0 47 -21 25 -35 -5 -3 -12
-19 -16 -35 -8 -37 -51 -90 -72 -90 -11 0 -14 7 -9 25 8 32 -24 97 -71 147
-49 51 -40 70 29 66 48 -3 53 -5 56 -28z m-2932 -26 c21 -9 54 -27 73 -40 45
-31 87 -30 155 1 60 28 146 34 173 13 8 -7 37 -35 64 -63 43 -45 49 -57 59
-117 7 -37 9 -72 6 -77 -4 -6 -18 -4 -35 5 -21 11 -51 13 -117 9 -299 -18
-268 -20 -339 16 -35 18 -68 29 -72 25 -4 -5 0 -13 11 -20 10 -6 34 -21 54
-34 53 -36 129 -46 243 -32 86 10 102 9 131 -6 46 -23 78 -54 78 -76 0 -49
-72 -138 -112 -138 -7 0 -33 -7 -58 -16 -53 -19 -153 -13 -199 11 -17 8 -56
41 -88 74 -67 67 -83 74 -144 63 -72 -14 -102 0 -163 76 -30 37 -80 85 -111
107 -30 22 -55 42 -55 46 0 11 114 58 171 70 63 13 86 24 117 55 21 20 98 64
113 64 4 0 24 -7 45 -16z m4111 -91 c16 -16 36 -39 42 -51 7 -13 29 -42 48
-63 l36 -40 -41 2 c-23 2 -46 -1 -51 -7 -5 -5 -6 -36 -3 -69 7 -57 8 -60 41
-70 32 -9 33 -11 27 -53 -7 -51 -33 -105 -48 -100 -7 3 -18 23 -27 46 -15 41
-41 58 -41 27 0 -27 -17 -16 -34 24 -10 21 -31 58 -47 82 -22 33 -29 56 -29
91 0 58 10 84 49 128 18 19 34 45 37 57 4 13 7 23 8 23 1 0 16 -12 33 -27z
m-1048 -57 c12 -12 45 -35 74 -51 48 -25 67 -45 105 -112 18 -31 40 -188 34
-243 -5 -53 -25 -85 -110 -174 -52 -55 -62 -72 -62 -101 0 -36 -34 -100 -59
-110 -10 -4 -12 3 -8 32 6 50 -10 138 -34 185 -23 45 -24 59 -4 52 21 -8 51
-81 60 -143 4 -28 11 -48 16 -45 16 9 10 91 -10 136 -29 64 -50 84 -116 117
-33 15 -75 42 -93 59 -30 29 -32 33 -32 104 0 87 29 157 81 198 70 55 109 93
109 106 0 21 24 17 49 -10z m722 -62 c13 -14 44 -40 69 -57 25 -17 47 -34 50
-37 3 -4 15 -12 27 -19 14 -7 22 -20 21 -34 0 -12 4 -34 10 -49 6 -15 14 -56
18 -91 5 -52 3 -72 -16 -114 -17 -41 -19 -55 -10 -72 7 -14 8 -27 1 -40 -12
-21 -109 -111 -121 -111 -4 0 -14 18 -23 40 -18 48 -37 52 -37 9 0 -38 -35
-89 -61 -89 -14 0 -19 7 -19 25 0 75 -70 202 -145 263 -51 41 -53 45 -48 80
11 83 24 103 137 213 61 60 114 109 117 109 3 0 16 -12 30 -26z m-2956 -94
l40 -5 -3 -45 c-14 -217 -13 -261 6 -294 16 -26 17 -36 7 -49 -17 -24 -38 -22
-30 3 4 11 -6 49 -24 92 -28 66 -29 74 -16 95 22 34 19 88 -7 113 -12 11 -25
20 -30 20 -4 0 -8 21 -8 46 0 34 3 43 13 37 6 -4 30 -10 52 -13z m1758 -13
c75 -51 101 -83 121 -149 3 -11 11 -15 21 -12 37 14 12 -32 -77 -144 -32 -40
-58 -77 -58 -82 0 -5 -23 -31 -52 -58 l-51 -49 -46 35 c-25 19 -46 43 -46 53
0 10 -8 26 -18 37 -19 20 -22 58 -7 82 5 8 10 12 12 10 2 -3 8 -14 14 -25 14
-26 49 -31 66 -9 7 10 32 36 56 59 46 46 50 56 27 75 -8 7 -15 21 -15 31 0 10
-13 28 -30 41 -37 27 -38 51 -2 93 33 40 41 42 85 12z m-1083 -197 c51 -11
104 -20 116 -20 35 0 180 -79 228 -124 49 -46 117 -152 135 -211 7 -22 23 -62
35 -90 13 -27 27 -68 31 -90 4 -22 10 -51 13 -65 8 -34 6 -244 -3 -303 -6 -40
-12 -50 -38 -63 -16 -9 -35 -20 -41 -25 -62 -50 -75 -59 -84 -59 -6 0 -14 9
-17 20 -9 27 -31 25 -50 -4 -14 -20 -14 -28 -3 -45 12 -19 9 -24 -32 -58 -70
-57 -240 -232 -295 -303 -58 -76 -112 -158 -140 -215 -11 -22 -23 -42 -26 -45
-3 -3 -12 -23 -19 -45 -7 -22 -19 -49 -26 -60 -6 -11 -20 -46 -30 -77 -13 -44
-24 -60 -43 -68 -14 -5 -44 -21 -66 -35 -64 -39 -160 -31 -317 26 l-57 21 -22
72 c-12 39 -30 95 -40 124 -11 29 -19 59 -19 67 0 14 -31 84 -53 120 -7 11
-29 38 -50 60 -20 22 -37 43 -37 47 0 6 -97 90 -167 145 -30 24 -107 64 -160
84 -18 6 -33 15 -33 20 0 17 44 9 107 -21 97 -46 213 -38 213 15 0 40 24 49
67 27 97 -49 161 -60 216 -37 21 8 42 26 46 38 5 12 15 37 21 55 11 28 17 32
49 32 57 0 132 27 168 59 17 16 39 51 48 77 18 55 32 236 27 372 -4 109 -4
109 -108 58 -131 -64 -171 -76 -255 -76 -100 0 -214 -16 -298 -42 -60 -18
-200 -96 -278 -154 -30 -23 -33 -23 -42 -6 -19 35 -51 127 -51 147 -1 11 -7
31 -14 44 -11 21 -11 32 5 77 30 85 95 184 162 247 35 33 152 95 207 110 60
16 220 29 266 22 50 -7 60 -31 17 -41 -44 -11 -193 -84 -193 -94 0 -15 24 -12
75 10 31 13 69 20 115 20 62 0 73 3 121 36 84 57 133 81 199 102 62 19 79 34
45 41 -21 4 -88 -15 -127 -35 -14 -8 -31 -14 -37 -14 -18 0 -13 28 7 38 34 18
138 51 197 62 33 6 76 16 95 21 19 5 51 13 70 18 52 14 68 13 170 -9z m1379
-90 c32 -13 89 -98 111 -166 16 -48 16 -129 1 -177 -7 -21 -36 -61 -65 -90
-29 -28 -61 -71 -72 -94 -10 -23 -22 -43 -25 -43 -4 0 -14 25 -23 54 -21 66
-74 130 -157 187 -54 39 -72 59 -50 59 4 0 6 22 3 49 -5 57 25 132 78 191 17
19 45 54 61 77 l30 42 39 -38 c22 -21 53 -44 69 -51z m587 48 c23 -24 63 -86
89 -138 44 -84 49 -102 50 -160 0 -61 -3 -71 -44 -135 -48 -75 -133 -165 -155
-165 -8 0 -16 16 -20 39 -7 46 -66 116 -132 158 -24 15 -46 34 -49 42 -3 7 0
53 6 103 11 89 32 140 75 178 10 8 40 38 68 66 28 28 56 52 61 52 6 1 29 -17
51 -40z m717 -64 c39 -41 67 -79 67 -92 0 -11 4 -23 9 -26 11 -7 26 -105 17
-113 -3 -3 -13 0 -21 7 -13 11 -23 11 -52 1 -38 -14 -53 -6 -53 32 0 9 -11 22
-25 29 -38 17 -59 -5 -51 -58 5 -37 3 -42 -19 -52 -18 -8 -25 -20 -25 -40 0
-36 16 -52 52 -52 21 0 31 -6 38 -25 11 -29 8 -28 48 -14 18 6 35 22 42 40 16
37 70 79 70 54 0 -9 -9 -33 -19 -54 -14 -26 -17 -41 -10 -48 8 -8 3 -23 -15
-50 -14 -21 -33 -62 -41 -91 -13 -43 -22 -56 -50 -69 -19 -9 -37 -25 -41 -35
-5 -16 -12 -18 -37 -12 -18 3 -33 8 -35 9 -2 2 2 21 9 43 10 34 9 49 -6 94
-29 88 -47 121 -94 170 -35 37 -42 50 -33 61 7 8 9 17 6 20 -5 5 6 33 74 177
10 22 26 45 98 148 9 13 19 22 22 20 4 -2 37 -35 75 -74z m-5314 -92 c12 -22
-4 -83 -33 -124 -18 -27 -16 -58 3 -58 5 0 13 10 16 21 7 21 11 21 90 15 87
-6 135 -19 135 -35 0 -5 -26 -21 -57 -36 -44 -20 -66 -25 -95 -21 -21 3 -57 9
-80 12 -24 4 -46 10 -49 15 -3 5 -2 33 3 62 4 28 8 59 9 67 1 26 30 100 39
100 5 0 14 -8 19 -18z m-210 -45 c48 -27 101 -91 101 -122 0 -11 -14 -34 -31
-51 -29 -27 -35 -29 -114 -29 -95 0 -122 13 -92 43 13 13 36 17 93 18 41 1 78
4 82 8 10 10 -27 36 -52 36 -27 1 -56 40 -63 85 -5 30 -3 35 15 35 11 0 38
-10 61 -23z m3744 -28 c20 -17 40 -44 45 -62 12 -45 -16 -134 -56 -182 -31
-38 -62 -116 -62 -157 0 -27 -23 -22 -56 13 -26 27 -29 37 -29 94 0 35 3 67 7
71 4 3 20 1 36 -5 53 -22 122 22 122 77 0 30 -41 101 -62 108 -20 6 -23 26 -8
55 14 25 19 24 63 -12z m1408 -91 c6 -13 45 -55 85 -95 l74 -71 0 -64 c-1 -36
-7 -74 -15 -88 -8 -14 -14 -35 -15 -48 0 -18 -5 -23 -21 -20 -33 5 -46 32 -30
62 16 29 9 56 -16 57 -10 1 -22 2 -28 4 -5 1 -18 3 -27 3 -12 1 -18 10 -18 25
0 24 -25 67 -39 67 -12 0 -61 -77 -61 -95 0 -8 -8 -33 -17 -55 l-18 -40 -85 5
-85 5 3 32 c7 70 85 193 142 223 14 7 34 22 45 32 11 10 37 29 58 42 20 12 37
27 37 32 0 17 19 9 31 -13z m-642 -41 c14 -18 45 -48 70 -67 69 -52 72 -59 67
-115 -3 -27 -8 -60 -12 -72 -5 -17 -2 -23 10 -23 11 0 18 13 22 40 9 54 21 59
33 13 21 -74 9 -86 -80 -74 -32 5 -46 12 -55 30 -15 29 -32 41 -61 41 -14 0
-23 6 -23 15 0 16 -34 38 -44 28 -3 -3 -9 -28 -12 -55 -4 -27 -11 -51 -17 -55
-17 -10 -201 -32 -209 -25 -10 11 31 102 69 152 19 25 57 59 84 76 46 30 109
96 109 115 0 20 26 6 49 -24z m-597 6 c2 -5 28 -25 59 -46 74 -50 89 -78 89
-164 0 -38 -3 -72 -6 -76 -4 -3 -17 1 -29 9 -20 13 -24 13 -39 -2 -23 -22 -46
-10 -46 24 0 31 -22 58 -38 48 -5 -3 -17 -22 -26 -41 -17 -35 -19 -36 -61 -30
-58 9 -72 -13 -44 -69 23 -48 24 -72 3 -80 -31 -12 -45 -5 -60 29 -36 87 -5
209 76 295 23 25 54 60 67 78 24 30 47 41 55 25z m-3182 -28 c0 -2 -8 -20 -17
-40 -16 -33 -16 -36 1 -53 16 -16 19 -15 47 16 16 18 29 43 29 57 0 23 4 25
44 25 58 0 72 -17 50 -63 -18 -38 -13 -81 10 -90 23 -9 56 22 56 53 0 66 48
35 70 -46 13 -46 -2 -96 -22 -76 -7 7 -6 17 1 30 15 28 14 42 -4 42 -20 0 -37
-44 -29 -75 8 -34 31 -52 46 -37 22 22 28 12 28 -41 0 -57 -21 -104 -33 -73
-4 9 -15 16 -26 16 -20 0 -31 -18 -31 -51 0 -10 -4 -19 -9 -19 -5 0 -16 -3
-25 -6 -22 -8 -22 43 0 74 19 28 23 87 6 104 -16 16 -40 -7 -63 -59 -17 -39
-22 -43 -54 -43 -32 0 -35 2 -35 30 0 21 9 38 26 53 24 21 49 92 38 109 -3 4
-16 8 -29 8 -26 0 -65 -42 -65 -70 0 -12 -13 -4 -46 27 -70 65 -130 57 -149
-20 -5 -20 -2 -33 11 -48 17 -19 17 -21 -9 -46 -24 -25 -28 -26 -39 -11 -7 9
-22 18 -33 20 -28 5 -24 71 9 136 21 41 31 51 59 56 37 7 80 46 96 89 9 23 16
27 51 27 22 0 40 -2 40 -5z m-497 -49 c15 -14 37 -28 49 -31 42 -13 58 -35 58
-82 0 -56 -14 -61 -76 -30 -58 30 -76 55 -84 120 -5 40 -4 47 10 47 10 0 29
-11 43 -24z m-380 -26 c14 -11 32 -20 40 -20 27 0 27 -16 2 -30 -31 -17 -52
-74 -35 -95 31 -38 94 12 88 70 -3 26 0 30 22 30 21 0 26 -6 31 -40 5 -27 2
-46 -7 -60 -18 -25 -18 -46 -1 -69 17 -23 53 -14 62 15 4 11 19 25 33 32 15 6
39 25 54 42 l26 30 32 -30 c27 -26 31 -35 28 -75 -2 -32 -7 -45 -18 -45 -8 0
-15 9 -16 20 -1 11 -2 26 -3 33 -1 13 -39 16 -57 4 -16 -10 -44 -68 -44 -91 0
-29 -16 -34 -46 -15 -25 17 -27 17 -45 -7 -14 -17 -18 -33 -14 -57 4 -24 0
-41 -15 -63 -25 -35 -44 -27 -54 21 -5 27 -10 30 -41 30 -35 0 -35 0 -35 44 0
53 -28 143 -46 150 -8 3 -26 -6 -41 -20 -18 -17 -34 -23 -49 -20 -26 7 -37
-13 -28 -49 4 -17 0 -26 -15 -35 -35 -18 -37 -1 -15 135 3 22 13 48 22 58 15
17 17 16 37 -9 l21 -27 32 34 c37 39 44 89 13 89 -10 0 -24 -7 -31 -15 -19
-23 -32 -18 -18 7 29 52 86 64 131 28z m5892 -35 c9 -30 21 -57 26 -60 18 -12
8 -25 -20 -25 -35 0 -44 -11 -60 -71 -17 -60 -8 -88 30 -96 32 -6 39 -32 13
-54 -13 -10 -28 -9 -92 10 -42 12 -82 27 -88 32 -13 11 -10 65 7 129 17 64
120 188 156 190 7 0 20 -25 28 -55z m-3298 -80 c3 -9 0 -58 -7 -109 -14 -103
-47 -179 -90 -201 -31 -17 -155 -45 -196 -45 -58 0 -224 66 -224 90 0 9 70 30
101 30 27 0 96 23 142 47 17 8 64 48 104 87 68 65 136 116 156 116 4 0 10 -7
14 -15z m-1053 -70 c39 -125 44 -293 10 -375 -8 -19 -13 -44 -10 -55 3 -11 -1
-41 -8 -65 -19 -62 -30 -30 -17 46 19 116 23 203 11 295 -11 81 -17 99 -46
138 l-35 45 28 23 c33 29 44 20 67 -52z m-714 3 c24 -39 26 -95 5 -125 -24
-34 0 -46 64 -32 76 16 81 7 15 -30 -32 -19 -62 -39 -66 -45 -8 -12 19 -46 36
-46 14 0 46 -52 46 -75 0 -14 -6 -16 -37 -10 -45 7 -57 21 -79 89 -11 31 -34
68 -61 95 -23 25 -43 48 -43 51 0 3 11 22 25 41 14 19 31 53 37 77 13 51 31
54 58 10z m1598 3 c-5 -13 -97 -90 -127 -105 -47 -25 -173 -52 -214 -47 -9 1
63 93 97 124 14 13 37 17 95 18 42 0 85 4 96 9 26 11 58 12 53 1z m-288 -30
c0 -5 -26 -37 -57 -72 -40 -45 -68 -67 -96 -76 -21 -6 -46 -18 -55 -27 -72
-66 -113 -98 -119 -93 -3 4 0 41 7 84 10 54 20 84 35 99 13 13 67 36 126 54
57 17 109 33 114 35 20 7 45 5 45 -4z m2766 -51 c261 -10 457 -30 619 -65 61
-13 121 -26 135 -28 43 -8 224 -57 255 -68 146 -56 405 -209 491 -291 29 -28
62 -57 74 -65 11 -8 38 -40 60 -71 22 -31 62 -85 88 -119 26 -34 56 -79 66
-100 10 -21 23 -46 28 -57 13 -24 -4 -41 -57 -58 l-40 -14 -69 58 c-62 51
-118 88 -236 156 -96 54 -120 70 -168 112 -29 25 -61 64 -71 87 -25 55 -63 80
-97 64 -22 -10 -30 -8 -55 13 -17 14 -36 22 -47 19 -15 -3 -22 3 -30 27 -26
74 -100 92 -160 39 -26 -23 -41 -30 -61 -25 -14 3 -51 10 -81 15 -30 6 -73 17
-95 25 -22 7 -80 24 -130 35 -49 12 -106 26 -125 31 -36 9 -257 25 -513 36
-81 3 -150 10 -153 15 -3 5 -13 9 -22 9 -9 0 -27 6 -38 13 -76 44 -107 57
-139 57 -30 0 -39 -5 -56 -35 -23 -38 -36 -41 -150 -36 -50 2 -58 0 -77 -24
-27 -34 -69 -45 -125 -33 -51 10 -63 6 -168 -62 -34 -22 -71 -42 -82 -46 -44
-12 -152 -57 -173 -71 -16 -10 -24 -11 -29 -3 -4 6 -17 15 -29 20 -20 7 -20 8
7 20 17 9 27 21 27 36 0 29 -25 37 -60 19 -49 -25 -65 -80 -22 -73 11 2 16 -2
13 -12 -2 -8 -4 -25 -4 -37 1 -13 -5 -23 -12 -23 -7 0 -19 10 -28 23 -14 21
-17 21 -44 7 -34 -19 -42 -49 -17 -68 15 -11 16 -15 5 -19 -8 -3 -30 -20 -50
-37 -49 -43 -111 -88 -111 -81 0 3 -9 1 -20 -5 -11 -6 -20 -18 -20 -27 0 -8
-37 -59 -83 -112 -46 -53 -107 -129 -137 -169 -29 -40 -55 -70 -58 -67 -8 8
48 134 91 205 22 36 49 81 61 100 24 40 24 40 126 152 74 82 115 120 220 208
29 25 62 53 73 64 33 31 130 96 144 96 7 0 13 3 13 8 0 12 83 40 139 46 29 3
58 9 65 14 26 21 421 123 551 142 33 5 101 16 150 24 111 17 151 18 441 6z
m-5331 -58 c39 -16 89 -36 113 -43 56 -16 77 -32 69 -52 -8 -20 -87 -32 -125
-19 -51 17 -112 62 -132 95 -23 36 -26 61 -7 54 6 -2 44 -18 82 -35z m1044 7
c68 -23 67 -41 0 -32 -34 5 -39 3 -39 -14 0 -12 6 -25 13 -31 21 -17 72 -23
102 -12 26 10 31 8 52 -17 12 -15 26 -39 29 -52 4 -14 13 -36 20 -50 30 -56 8
-184 -39 -237 -32 -37 -133 -94 -166 -94 -10 0 -21 9 -24 20 -7 26 -51 42 -93
34 -27 -5 -34 -11 -34 -30 0 -18 -5 -24 -22 -24 -13 0 -29 4 -37 9 -10 6 -6
13 19 27 41 24 66 67 74 127 7 42 10 47 29 42 13 -3 36 3 56 16 l35 21 -25 19
c-13 10 -38 19 -56 19 -18 0 -43 5 -55 11 -27 12 -53 3 -107 -36 -19 -14 -40
-25 -47 -25 -21 0 -17 28 4 34 11 4 30 18 43 32 l24 26 -24 19 c-13 10 -36 19
-51 19 -31 0 -47 25 -29 46 6 8 19 14 29 14 21 0 54 35 45 49 -17 29 -100 2
-119 -39 -4 -8 -20 -37 -35 -65 -31 -55 -56 -65 -56 -24 0 38 96 137 165 170
52 25 57 26 92 12 30 -12 44 -13 73 -3 19 6 35 18 35 26 0 20 45 18 119 -7z
m1182 -45 c-2 -10 -5 -47 -5 -81 -1 -54 -5 -66 -29 -91 -16 -16 -51 -42 -78
-56 -42 -24 -50 -25 -55 -12 -7 18 31 55 57 56 37 0 50 65 24 123 -5 13 2 26
31 52 40 37 62 41 55 9z m-522 -65 c34 -15 42 -22 33 -31 -16 -16 -15 -69 2
-90 17 -23 21 -22 44 2 25 27 36 13 50 -60 11 -59 7 -70 -33 -93 -12 -6 -41
-22 -63 -34 -23 -13 -45 -31 -51 -40 -8 -15 -13 -16 -29 -6 -12 7 -31 9 -48 4
-37 -10 -44 -51 -15 -80 20 -20 20 -23 6 -57 -8 -20 -15 -45 -15 -55 0 -11 -4
-19 -10 -19 -5 0 -10 16 -10 35 0 40 -26 97 -77 169 -30 41 -33 52 -25 75 27
71 17 116 -29 123 -17 2 -26 17 -40 62 -11 33 -18 61 -16 63 2 2 30 17 63 33
55 28 64 30 138 25 47 -4 99 -14 125 -26z m794 7 c53 -39 88 -53 170 -66 42
-7 77 -16 77 -20 0 -4 -8 -15 -19 -24 -10 -9 -21 -30 -24 -46 -8 -36 -31 -49
-105 -56 -50 -6 -71 -2 -133 21 -42 16 -88 41 -107 60 -30 28 -33 36 -27 67 6
29 15 40 53 62 58 32 75 32 115 2z m-2232 -128 c26 -33 24 -50 -3 -39 -30 12
-137 31 -171 31 -27 0 -28 -4 -9 -50 3 -8 6 -28 7 -45 0 -24 5 -31 24 -33 30
-5 68 -39 55 -51 -5 -5 -26 -14 -46 -21 -21 -6 -40 -16 -44 -21 -11 -18 7 -47
36 -59 33 -14 38 -36 18 -73 -7 -12 -14 -23 -15 -25 -1 -2 -13 4 -27 13 -24
16 -25 16 -31 -7 -8 -31 10 -78 30 -78 8 0 17 -12 20 -27 3 -16 12 -53 20 -83
8 -30 10 -59 5 -64 -4 -4 -22 2 -39 15 -23 17 -31 31 -31 55 0 20 -9 40 -26
57 -33 33 -48 25 -39 -19 3 -19 3 -34 -1 -34 -23 0 -75 50 -89 85 -21 57 -20
68 6 53 17 -11 22 -10 35 6 8 11 14 27 14 36 0 25 -29 60 -51 60 -16 0 -19 -7
-19 -41 0 -22 -4 -38 -9 -35 -13 8 -10 170 5 225 13 51 33 91 47 91 4 0 10
-13 14 -30 6 -34 23 -38 48 -13 25 24 37 63 36 112 l0 44 106 -6 c97 -5 108
-7 124 -29z m5074 -4 c226 -16 263 -21 398 -55 73 -18 87 -25 87 -41 0 -11 17
-37 38 -58 38 -38 102 -60 175 -60 52 0 97 -17 123 -47 13 -15 24 -31 24 -35
0 -4 18 -19 40 -33 42 -27 115 -34 150 -15 17 9 64 -3 112 -30 9 -5 40 -12 70
-16 46 -5 125 -42 228 -104 8 -5 38 -22 65 -38 28 -17 61 -40 75 -52 14 -12
32 -27 40 -34 8 -6 30 -28 49 -48 28 -31 32 -41 26 -67 -5 -25 -17 -36 -61
-57 -41 -19 -55 -32 -60 -52 -11 -50 -13 -52 -54 -52 -29 0 -57 11 -106 41
-66 40 -297 159 -309 159 -3 0 -25 13 -48 28 -41 28 -353 185 -432 217 -187
77 -360 125 -520 146 -44 6 -91 12 -105 14 -157 24 -425 24 -520 -1 -30 -8
-69 -14 -87 -14 -19 0 -48 -6 -66 -14 -18 -7 -64 -21 -103 -30 -114 -29 -264
-86 -349 -134 -71 -40 -99 -59 -169 -112 -34 -26 -118 -113 -169 -175 -27 -33
-78 -88 -113 -123 -35 -34 -64 -66 -64 -70 0 -27 -214 -121 -332 -146 -30 -7
-37 -21 -15 -29 31 -12 233 60 304 107 21 15 54 37 74 50 37 25 77 63 142 138
68 76 163 172 193 195 16 12 38 29 49 38 41 31 143 95 152 95 5 0 27 8 49 19
44 21 251 89 364 120 95 25 214 41 308 41 40 0 81 4 90 9 10 5 55 3 112 -5 52
-7 131 -16 175 -19 44 -3 105 -12 135 -20 30 -8 78 -15 105 -15 33 0 65 -8 95
-24 25 -13 70 -29 100 -35 65 -15 75 -19 335 -146 110 -54 229 -117 265 -140
36 -24 76 -46 90 -50 14 -4 50 -22 80 -39 30 -18 64 -36 75 -40 37 -13 135
-81 135 -92 0 -7 35 -45 78 -85 107 -102 160 -169 220 -276 60 -107 64 -131
24 -139 -33 -7 -72 -59 -72 -97 0 -20 -5 -27 -19 -27 -27 0 -142 66 -166 95
-12 14 -30 25 -42 25 -12 0 -32 15 -47 35 -15 19 -32 35 -37 35 -6 0 -26 12
-44 26 -19 14 -53 28 -77 31 -53 7 -168 59 -168 76 0 13 -76 57 -98 57 -8 0
-46 14 -85 32 -40 17 -90 34 -112 37 -31 5 -40 11 -45 31 -13 53 -110 68 -172
25 -43 -29 -67 -31 -126 -9 -36 15 -48 15 -81 4 -31 -10 -46 -10 -73 0 -21 8
-114 14 -252 17 -198 5 -220 7 -238 25 -16 16 -31 18 -111 16 -78 -2 -99 0
-139 20 -61 29 -106 28 -152 -3 -31 -21 -49 -25 -107 -25 -67 0 -71 -2 -112
-39 -61 -56 -208 -123 -304 -138 -18 -3 -33 -12 -36 -22 -4 -18 -66 -41 -108
-41 -13 0 -62 -13 -109 -29 -234 -79 -337 -110 -375 -113 -19 -2 -30 -9 -30
-18 0 -8 7 -13 15 -11 8 1 38 6 65 11 78 11 186 40 230 61 22 10 47 19 56 19
9 0 33 7 53 15 31 13 153 42 256 62 14 2 68 13 120 23 203 40 666 32 895 -15
44 -9 125 -25 180 -34 55 -10 109 -23 120 -29 20 -11 155 -58 295 -102 41 -13
140 -50 220 -83 80 -32 156 -61 170 -64 14 -3 37 -14 52 -24 14 -11 28 -19 31
-19 9 0 77 -66 77 -75 0 -5 35 -42 78 -84 61 -60 86 -93 119 -162 23 -47 43
-98 45 -115 3 -28 2 -29 -46 -32 -54 -4 -82 -19 -100 -53 -7 -15 -25 -27 -49
-32 -36 -9 -41 -6 -95 35 -31 25 -70 53 -87 62 -40 22 -64 37 -100 62 -44 31
-106 61 -143 69 -62 13 -187 74 -209 101 -20 25 -23 26 -52 14 -17 -7 -39 -9
-48 -5 -10 4 -38 11 -63 16 -46 8 -61 11 -190 49 -177 52 -399 85 -670 99
-148 8 -241 21 -257 36 -14 14 -28 16 -79 11 -58 -6 -70 -3 -161 35 -135 56
-162 62 -193 41 -55 -37 -108 -50 -275 -68 -71 -8 -139 -16 -150 -18 -11 -2
-32 -4 -47 -5 -17 0 -28 -7 -28 -15 0 -16 33 -15 258 10 121 13 137 13 185 -2
29 -9 61 -25 72 -34 46 -40 86 -48 157 -35 25 5 50 2 78 -9 22 -9 67 -16 98
-16 50 0 61 4 81 26 l23 26 156 -7 c87 -3 195 -11 242 -16 47 -5 127 -14 178
-19 51 -6 102 -14 112 -20 10 -5 32 -10 49 -10 16 0 33 -5 36 -10 3 -6 19 -10
35 -10 42 0 163 -39 180 -58 8 -9 27 -23 42 -31 25 -13 30 -12 46 2 13 12 26
14 47 9 24 -7 31 -15 33 -39 2 -17 12 -39 23 -49 16 -15 24 -16 58 -5 21 6 41
17 44 25 4 11 14 10 54 -4 64 -23 84 -30 108 -40 11 -5 30 -11 41 -15 12 -3
24 -15 27 -26 4 -15 11 -18 29 -14 16 4 41 -6 88 -36 199 -129 211 -139 192
-169 -7 -11 -12 -32 -12 -46 0 -21 -3 -25 -17 -19 -10 4 -39 15 -66 25 -26 9
-50 20 -54 23 -3 4 -13 7 -20 7 -8 0 -33 9 -57 19 -23 11 -78 30 -122 42 -74
20 -213 63 -414 125 -47 15 -105 30 -130 35 -25 4 -79 17 -120 29 -41 12 -111
30 -155 40 -134 30 -298 70 -330 79 -29 9 -76 19 -187 41 -86 18 -142 31 -163
40 -11 5 -45 11 -75 14 -30 2 -84 9 -120 15 -36 7 -94 16 -130 22 -111 18
-479 24 -593 9 -56 -7 -106 -17 -112 -21 -10 -10 -49 -12 -57 -3 -4 3 0 17 8
32 8 17 11 42 7 71 -10 75 -59 136 -152 186 -49 27 -56 35 -72 83 -25 74 -125
172 -175 172 -31 0 -30 17 1 42 14 11 39 45 54 77 16 31 50 87 75 126 25 38
46 73 46 77 0 4 17 31 37 60 30 42 39 48 42 33 4 -27 20 -45 39 -45 47 0 75
91 32 105 -11 3 -20 13 -20 21 0 24 42 74 63 74 36 0 59 20 53 45 -7 29 48
107 83 115 13 3 28 17 35 32 31 71 291 237 474 302 75 26 112 30 294 27 94 -2
145 15 199 66 22 20 31 23 47 14 12 -6 54 -11 94 -11 61 0 76 3 91 20 11 13
30 20 54 21 21 0 47 4 58 9 31 13 199 11 430 -6z m-5065 -84 c47 -13 104 -51
108 -72 2 -11 -7 -18 -28 -23 -17 -4 -53 -22 -81 -41 -28 -19 -64 -34 -79 -34
-47 0 -43 17 4 24 25 4 50 14 58 23 11 14 9 19 -17 37 -45 32 -95 82 -95 96 0
14 60 9 130 -10z m575 0 c13 -40 -50 -122 -106 -139 -38 -12 -44 -11 -78 13
-20 14 -42 26 -49 26 -24 0 -11 30 16 36 82 18 175 55 187 74 10 16 23 12 30
-10z m450 -23 c-18 -28 -13 -47 11 -47 7 0 34 16 60 35 51 39 74 38 48 -3 -28
-45 -83 -92 -130 -112 -24 -11 -44 -22 -44 -25 0 -3 9 -18 19 -33 28 -40 35
-81 16 -89 -36 -13 -95 45 -95 93 0 10 11 30 25 44 14 15 35 53 46 86 29 81
39 98 51 86 7 -7 4 -18 -7 -35z m-763 -149 c14 -38 44 -37 53 2 8 35 12 36 45
13 46 -31 48 -38 47 -109 -2 -62 0 -70 20 -79 33 -14 39 -67 14 -116 -12 -22
-21 -46 -21 -54 0 -8 -7 -15 -15 -15 -17 0 -20 16 -5 25 6 3 10 22 10 41 0 29
-3 34 -24 34 -28 0 -52 -46 -41 -79 7 -23 2 -26 -61 -35 l-41 -6 5 54 c4 47 2
56 -16 65 -38 20 -54 -39 -27 -101 6 -16 1 -18 -49 -18 -41 0 -58 4 -62 15 -9
23 -51 19 -59 -6 -6 -17 -14 -20 -53 -17 -44 3 -48 6 -70 47 -26 51 -24 59 11
36 21 -14 29 -14 46 -3 30 18 26 34 -15 74 -44 41 -64 43 -64 9 0 -14 -5 -25
-11 -25 -35 0 25 170 74 211 29 24 40 24 27 0 -27 -52 -1 -102 39 -75 20 15
22 23 19 77 l-3 61 45 17 c25 10 72 21 105 26 59 8 60 8 63 -17 2 -14 8 -37
14 -52z m1338 54 c0 -11 -9 -27 -20 -37 -27 -24 -25 -43 5 -51 18 -4 34 2 62
25 21 17 43 31 50 31 6 0 18 9 26 20 11 17 21 19 43 14 60 -14 161 -59 214
-95 54 -36 170 -146 170 -160 0 -5 14 -28 30 -52 17 -25 30 -48 30 -52 0 -5
13 -44 29 -89 16 -45 39 -112 51 -151 21 -65 66 -153 93 -180 7 -7 23 -27 37
-46 14 -18 41 -52 60 -74 20 -22 49 -60 65 -85 17 -25 45 -64 63 -88 17 -24
35 -56 39 -70 3 -15 9 -29 12 -32 3 -3 21 -41 40 -85 18 -44 41 -98 50 -120
10 -22 23 -67 30 -100 7 -33 17 -73 22 -89 5 -16 9 -69 9 -117 0 -72 -5 -102
-30 -171 -79 -216 -142 -277 -339 -327 -97 -24 -190 -23 -341 4 -121 22 -195
15 -356 -30 -160 -45 -231 -46 -330 -6 -97 39 -123 54 -165 93 -52 48 -124
144 -154 208 -14 30 -30 63 -36 72 -5 10 -9 28 -9 41 0 13 -6 43 -14 68 -16
50 -29 179 -18 179 4 0 13 -9 20 -20 17 -28 39 -25 56 8 16 32 11 79 -13 105
-15 18 -17 18 -43 -14 -37 -44 -42 -27 -29 101 11 111 68 282 125 375 54 88
136 246 136 263 0 5 9 29 19 53 11 24 25 91 31 149 38 355 75 445 214 521 60
34 66 35 66 11z m-418 -59 c36 -41 57 -93 51 -131 -3 -19 0 -51 7 -72 14 -43
7 -90 -15 -90 -8 0 -17 14 -21 36 -4 24 -14 39 -31 47 -30 14 -43 -2 -43 -54
0 -44 -9 -47 -125 -45 l-80 1 -3 36 c-2 28 -9 39 -30 50 -15 7 -28 14 -30 15
-10 6 33 54 48 54 36 0 90 -30 90 -50 0 -47 42 -92 70 -75 15 9 12 62 -4 94
-8 15 -16 52 -17 80 -2 46 1 56 22 72 13 10 27 19 31 19 4 0 8 -23 10 -51 3
-57 26 -85 50 -61 18 18 13 81 -10 105 -18 20 -20 47 -3 47 4 0 19 -12 33 -27z
m-568 -128 c-13 -40 -16 -108 -5 -129 6 -11 13 -34 14 -51 2 -30 2 -30 -61
-35 -35 -3 -62 -1 -62 4 0 5 9 36 21 67 16 48 18 67 11 108 -5 28 -8 52 -6 53
1 2 23 3 49 3 42 0 45 -2 39 -20z m110 -26 c14 -27 32 -57 40 -64 8 -8 16 -20
19 -27 3 -10 9 -11 26 0 31 18 38 15 43 -20 3 -18 7 -40 9 -48 3 -11 -7 -16
-40 -18 -55 -4 -77 3 -63 21 16 18 -27 92 -53 92 -15 0 -21 -9 -26 -35 l-6
-35 -12 29 c-18 44 2 156 29 156 5 0 20 -23 34 -51z m-1158 14 c7 -10 14 -26
14 -36 0 -18 -2 -18 -36 3 -24 13 -40 18 -46 12 -14 -14 0 -50 22 -57 10 -3
49 -29 87 -57 37 -27 75 -53 83 -56 7 -3 41 -22 75 -42 104 -63 106 -63 308
-56 226 8 306 14 332 26 11 4 153 16 315 25 162 10 354 21 425 25 72 4 131 7
132 6 1 -1 0 -11 -3 -23 -5 -17 -16 -22 -62 -27 -161 -18 -259 -27 -377 -31
-71 -3 -155 -10 -185 -15 -84 -14 -213 -21 -465 -26 -126 -2 -252 -5 -280 -7
-41 -4 -60 1 -110 28 -73 39 -124 69 -190 112 -27 18 -55 33 -61 33 -12 0
-104 67 -116 84 -4 6 -8 23 -8 37 0 22 7 30 38 42 50 21 92 21 108 0z m-150
-114 c6 -10 169 -119 178 -119 5 0 229 -130 242 -141 6 -5 14 -31 17 -57 4
-26 11 -67 17 -92 15 -59 25 -107 44 -210 9 -47 21 -95 26 -107 5 -13 16 -67
25 -120 9 -54 26 -143 40 -198 13 -55 29 -125 35 -155 6 -30 20 -84 30 -120
34 -123 41 -152 37 -156 -3 -3 -20 3 -39 12 -27 13 -37 25 -48 62 -50 171 -43
157 -81 160 -30 3 -37 -1 -47 -23 -23 -50 -62 -20 -62 49 0 20 -7 53 -16 75
-17 44 -47 57 -106 46 -33 -6 -34 -6 -51 47 -9 29 -26 91 -37 138 -31 129 -44
175 -84 294 -20 59 -41 127 -46 150 -4 22 -16 75 -25 116 -9 41 -23 113 -31
158 -8 46 -18 91 -23 100 -15 29 -24 102 -12 102 5 0 13 -5 17 -11z m1854
-201 c-1 -94 -69 -262 -176 -434 -24 -39 -44 -75 -44 -81 0 -6 -12 -36 -26
-68 -28 -59 -34 -80 -61 -200 -12 -55 -14 -100 -9 -210 4 -77 11 -160 16 -185
17 -84 17 -85 -8 -88 -32 -5 -50 13 -64 62 -16 56 -25 66 -63 66 -42 0 -50
-11 -67 -90 l-14 -65 -45 -2 c-24 -2 -75 -8 -112 -14 -53 -9 -77 -8 -112 2
-46 14 -52 22 -69 102 -6 24 -10 27 -51 27 -52 0 -60 -11 -71 -88 l-7 -52 -57
0 c-34 0 -62 5 -68 13 -13 17 -48 121 -62 187 -6 30 -18 78 -26 106 -16 54
-44 180 -75 339 -10 55 -26 123 -34 152 -8 28 -15 64 -15 80 0 15 -6 46 -14
68 -8 22 -17 67 -21 100 -3 33 -15 87 -26 119 -26 80 -25 84 19 91 20 3 46 9
57 12 11 3 144 9 295 14 422 12 552 19 584 29 16 6 54 11 85 11 31 1 70 5 86
9 17 4 81 8 143 9 110 1 112 1 112 -21z m1291 -284 c36 -12 76 -15 154 -12 58
2 105 0 105 -3 0 -4 -21 -35 -47 -69 -46 -62 -114 -120 -139 -120 -7 0 -29 24
-49 53 -19 28 -53 75 -75 102 -22 28 -40 53 -40 58 0 12 38 8 91 -9z m2749
-98 c14 -2 39 -4 56 -4 17 -1 44 -13 60 -27 16 -14 38 -28 49 -30 11 -3 42
-10 69 -15 27 -6 62 -22 79 -36 60 -50 151 -70 177 -39 16 19 33 19 69 0 16
-8 80 -19 142 -25 124 -12 119 -10 232 -65 55 -27 83 -47 93 -67 17 -32 49
-48 98 -48 38 0 62 -15 79 -50 9 -17 23 -27 47 -30 45 -7 110 -40 110 -56 0
-7 -9 -16 -20 -19 -11 -3 -20 -9 -20 -13 0 -4 -11 -20 -25 -36 -14 -17 -28
-41 -32 -54 -5 -23 -8 -23 -67 -17 -99 11 -233 53 -286 89 -26 18 -79 45 -116
60 -38 16 -73 31 -79 36 -5 4 -39 20 -75 34 -36 15 -74 31 -85 36 -11 5 -63
23 -115 40 -52 18 -104 36 -115 40 -11 5 -54 19 -95 31 -41 12 -93 29 -115 39
-37 16 -126 44 -221 69 -88 23 -255 49 -439 67 -16 1 -92 3 -167 3 -76 1 -138
5 -138 9 0 11 86 48 130 56 19 4 89 9 155 12 66 3 126 9 135 14 12 7 355 4
430 -4z"/>
<path d="M5664 4055 c-3 -8 4 -28 16 -45 l22 -31 -21 -23 c-11 -12 -21 -27
-21 -33 0 -17 32 -38 53 -35 11 2 25 -5 34 -17 8 -12 20 -21 27 -21 15 0 56
42 56 58 0 6 11 19 25 28 14 9 25 25 25 35 0 21 -32 41 -54 33 -10 -4 -15 2
-18 22 -3 31 -28 46 -28 17 0 -32 -9 -32 -40 -2 -31 31 -67 38 -76 14z"/>
<path d="M5008 4009 c-32 -45 -33 -52 -13 -69 8 -7 15 -24 15 -39 0 -14 4 -32
9 -40 12 -19 58 -6 66 20 4 11 18 24 31 29 32 13 30 35 -6 79 -17 20 -35 42
-41 49 -17 20 -33 13 -61 -29z"/>
<path d="M5374 3783 c-12 -41 -31 -68 -49 -72 -33 -6 -45 -22 -45 -62 0 -40
14 -60 60 -84 19 -10 30 -24 32 -42 4 -40 21 -33 39 18 13 35 26 49 63 68 44
23 64 50 51 71 -3 6 -17 7 -30 4 -16 -4 -26 0 -33 12 -5 9 -14 14 -21 10 -17
-11 -13 -47 7 -62 15 -12 14 -14 -15 -20 -18 -3 -33 -12 -33 -20 0 -21 -16
-25 -47 -12 -34 15 -43 26 -43 56 0 32 28 28 32 -5 4 -34 33 -43 43 -13 4 11
1 27 -5 35 -14 17 -5 35 16 35 12 0 14 11 12 47 -3 47 -23 70 -34 36z"/>
<path d="M6040 3725 c-7 -9 -10 -27 -7 -44 5 -24 1 -32 -19 -46 -21 -13 -25
-23 -22 -53 3 -33 6 -37 31 -37 20 -1 32 -8 40 -25 7 -14 23 -26 35 -28 18 -3
25 3 33 27 6 17 16 30 23 29 39 -7 81 41 57 65 -6 6 -11 21 -11 34 0 30 -20
29 -43 -3 -12 -16 -16 -32 -11 -47 6 -18 5 -20 -8 -10 -19 16 -28 7 -28 -29 0
-19 -4 -28 -12 -26 -7 3 -13 15 -13 29 0 25 -13 28 -47 14 -14 -5 -18 -2 -18
14 0 17 6 21 29 21 36 0 46 13 31 40 -6 12 -9 26 -7 33 3 7 10 -3 17 -20 13
-36 30 -44 30 -14 0 20 -39 83 -56 88 -6 2 -17 -3 -24 -12z"/>
<path d="M5114 3432 c-6 -4 -15 -20 -21 -37 -6 -19 -17 -31 -31 -33 -24 -4
-41 -29 -53 -79 -8 -38 19 -83 52 -83 25 0 25 17 0 25 -28 9 -35 39 -16 75 13
24 20 29 39 24 18 -4 25 -1 29 17 l6 23 24 -26 c27 -29 42 -95 26 -114 -5 -6
-18 -10 -28 -7 -25 6 -35 -11 -16 -27 8 -7 15 -21 15 -31 0 -34 26 -20 48 26
12 25 22 60 22 78 1 17 7 43 15 57 25 43 20 53 -25 45 -39 -7 -40 -6 -40 22 0
16 -5 34 -12 41 -14 14 -19 14 -34 4z"/>
<path d="M5689 3404 c-10 -12 -10 -22 -2 -44 9 -25 8 -32 -13 -51 -33 -31 -38
-56 -20 -84 13 -19 25 -25 53 -25 20 0 44 -7 54 -16 23 -21 39 -10 39 27 0 25
6 33 30 42 39 15 58 62 30 77 -10 5 -35 10 -54 10 -31 0 -36 3 -36 23 -1 49
-52 76 -81 41z"/>
</g>
</svg>
