<?xml version="1.0" standalone="no"?>
<!DOCTYPE svg PUBLIC "-//W3C//DTD SVG 20010904//EN"
 "http://www.w3.org/TR/2001/REC-SVG-20010904/DTD/svg10.dtd">
<svg version="1.0" xmlns="http://www.w3.org/2000/svg"
 width="650.000000pt" height="789.000000pt" viewBox="0 0 650.000000 789.000000"
 preserveAspectRatio="xMidYMid meet">
<metadata>
Created by potrace 1.16, written by Peter Selinger 2001-2019
</metadata>
<g transform="translate(0.000000,789.000000) scale(0.100000,-0.100000)"
fill="#000000" stroke="none">
<path d="M4228 7120 c-228 -36 -491 -201 -649 -407 -23 -29 -45 -53 -50 -53
-21 0 -89 199 -89 262 0 30 -19 21 -89 -41 -217 -193 -390 -484 -437 -737 -9
-49 -18 -95 -20 -102 -3 -9 -21 3 -51 31 -88 83 -386 328 -458 377 -39 26
-116 73 -170 103 -102 57 -325 157 -349 157 -14 0 -96 -140 -96 -165 0 -7 15
-18 33 -25 56 -23 250 -120 312 -158 372 -224 677 -580 838 -979 28 -70 23
-80 -16 -30 -43 57 -157 166 -241 231 -224 174 -477 298 -716 351 -115 25
-373 31 -498 11 -112 -18 -264 -64 -269 -83 -3 -6 17 -16 47 -22 66 -14 139
-52 183 -95 40 -38 81 -111 72 -126 -3 -6 -36 -10 -73 -10 -180 -1 -425 -92
-583 -218 -286 -227 -423 -580 -406 -1047 6 -147 21 -282 33 -295 8 -7 36 34
72 103 64 127 61 137 62 -208 0 -170 5 -364 10 -430 11 -133 37 -283 52 -302
8 -10 26 1 72 43 33 31 88 74 121 97 71 48 325 298 382 377 48 66 91 144 101
185 12 42 33 37 58 -12 20 -39 21 -54 16 -172 -7 -180 19 -285 106 -421 66
-103 200 -215 308 -256 42 -16 44 -18 44 -58 0 -57 25 -182 50 -249 29 -76
106 -192 166 -247 102 -95 197 -144 338 -175 89 -20 219 -16 314 9 l52 14 -7
-51 c-13 -88 -8 -237 11 -302 22 -74 77 -185 119 -239 67 -88 185 -179 274
-212 72 -26 73 -28 56 -82 -22 -70 -21 -252 1 -327 88 -294 320 -487 616 -511
241 -20 482 102 621 315 110 166 136 375 74 587 -6 19 -1 22 53 33 134 26 235
83 342 190 143 144 208 310 197 506 -3 55 -13 127 -22 160 l-17 59 34 31 c19
16 52 55 75 85 167 225 176 547 20 778 l-29 44 24 26 c67 72 129 192 153 297
31 129 12 332 -41 437 -13 26 -24 51 -24 56 0 5 20 39 44 75 24 36 57 103 72
149 27 76 29 94 28 223 0 124 -3 148 -27 213 -38 109 -83 178 -172 267 -63 62
-100 89 -165 122 -83 40 -188 69 -280 76 -33 3 -40 6 -25 11 11 4 92 33 180
65 88 31 160 62 160 68 0 6 -34 34 -75 62 -107 71 -127 88 -115 99 6 5 84 33
175 62 91 29 298 95 460 147 162 52 319 102 348 110 28 9 52 21 52 28 0 6 -24
35 -52 65 -132 133 -479 369 -735 499 -57 29 -105 57 -109 62 -4 6 21 8 68 3
76 -7 182 8 194 27 7 11 2 16 -91 95 -191 163 -460 297 -701 349 -86 19 -270
27 -346 15z m402 -58 c229 -59 438 -173 678 -369 28 -23 2 -28 -124 -27 -114
2 -124 0 -124 -17 0 -24 46 -57 149 -109 150 -75 464 -277 606 -391 73 -58
145 -124 145 -132 0 -5 -381 -129 -912 -298 -77 -24 -138 -49 -138 -55 0 -11
112 -107 170 -145 14 -9 23 -19 20 -22 -3 -2 -86 -32 -185 -66 -99 -35 -254
-89 -343 -122 -90 -32 -167 -59 -170 -59 -4 0 -44 36 -89 79 -130 126 -306
201 -472 201 -164 0 -340 -67 -460 -176 -29 -25 -42 -32 -46 -23 -54 158 -124
299 -201 412 -31 45 -63 90 -72 100 -14 16 -14 28 -3 110 23 161 88 330 197
512 61 104 71 115 80 88 19 -59 42 -98 80 -133 44 -41 132 -90 160 -90 9 0
-15 16 -54 35 -77 39 -158 118 -168 164 -18 81 -16 81 -76 -10 -31 -46 -74
-118 -97 -160 -51 -95 -115 -288 -131 -397 l-12 -83 -25 23 c-41 38 -42 47
-17 167 65 308 185 543 345 677 23 19 44 32 49 29 4 -2 10 -23 13 -45 11 -80
94 -220 131 -220 6 0 27 26 46 57 53 87 192 226 289 291 89 60 199 108 311
139 100 26 328 24 443 -5 163 -42 335 -116 492 -212 39 -23 73 -44 78 -47 4
-2 7 0 7 5 0 5 -18 17 -40 27 -22 10 -40 21 -40 25 0 14 -289 150 -380 179
-152 48 -204 56 -360 55 -158 -1 -241 -17 -363 -71 -158 -69 -328 -211 -436
-365 l-50 -71 -32 34 c-35 37 -74 116 -84 170 -3 19 -8 43 -10 54 -2 11 -4 21
-4 23 -3 10 -96 -66 -138 -111 -117 -128 -195 -288 -257 -527 -13 -52 -27
-116 -31 -142 -8 -54 -16 -59 -38 -24 -13 19 -14 35 -7 82 27 191 113 392 243
568 61 81 218 246 235 246 5 0 16 -35 25 -77 16 -74 72 -193 94 -200 5 -2 23
16 38 39 40 60 187 206 268 266 115 86 282 157 412 176 83 12 272 -4 385 -32z
m-2545 -477 c208 -102 315 -173 510 -335 360 -300 513 -476 631 -724 47 -100
84 -199 84 -225 0 -9 -17 -42 -39 -73 -21 -31 -51 -87 -66 -125 -16 -37 -30
-70 -32 -72 -1 -2 -24 11 -51 30 -45 31 -50 38 -66 104 -68 266 -233 575 -431
804 -204 237 -522 463 -803 572 l-22 9 32 65 c30 60 35 65 58 60 14 -4 102
-44 195 -90z m-264 -656 c254 -26 468 -107 724 -274 186 -121 333 -257 422
-390 43 -64 76 -135 68 -143 -2 -2 -32 7 -67 21 -171 69 -366 61 -540 -21
-187 -87 -313 -241 -368 -449 -17 -62 -21 -101 -18 -193 l3 -115 -47 -7 c-135
-19 -273 -91 -375 -195 -56 -57 -138 -181 -148 -226 -10 -39 -22 -42 -40 -8
-33 65 -84 64 -102 -2 -35 -128 -244 -375 -448 -530 -44 -33 -104 -81 -133
-105 -29 -25 -54 -43 -56 -41 -6 8 -26 148 -37 259 -7 63 -12 274 -11 468 0
193 -4 352 -9 352 -10 0 -68 -89 -105 -162 -26 -52 -27 -52 -37 -28 -7 15 -11
120 -11 265 -1 255 11 343 64 498 138 400 471 650 909 683 l93 7 -5 33 c-14
82 -123 194 -219 224 -21 6 -38 14 -38 16 0 17 163 53 285 63 133 12 134 12
246 0z m2209 -477 c192 -62 352 -224 413 -417 29 -94 31 -282 4 -365 -41 -122
-78 -182 -166 -271 -141 -142 -284 -196 -486 -186 -133 7 -227 41 -340 124
l-53 37 -5 141 c-6 188 -33 269 -131 403 -25 34 -46 71 -46 82 0 33 39 125 79
186 88 137 222 234 385 280 74 20 261 13 346 -14z m945 -169 c299 -74 507
-385 465 -695 -33 -238 -188 -432 -414 -517 -73 -27 -76 -27 -76 10 0 52 -29
150 -70 234 -67 137 -174 243 -312 308 l-68 32 5 40 c18 127 17 211 -4 297
-11 49 -32 110 -46 138 l-25 50 46 30 c144 91 322 117 499 73z m-2034 -179
c191 -76 331 -225 390 -415 19 -60 23 -96 22 -189 0 -103 -3 -123 -32 -200
-17 -47 -47 -109 -66 -138 -226 -340 -690 -390 -980 -106 -125 122 -188 277
-187 459 1 176 61 316 191 445 54 54 97 86 151 112 117 58 167 68 310 65 111
-3 133 -7 201 -33z m1643 -539 c35 -20 91 -62 124 -94 263 -254 265 -655 6
-915 -115 -114 -265 -176 -434 -178 -304 -3 -559 195 -631 492 -14 61 -15 228
-1 275 7 25 13 30 38 28 16 -1 70 -5 119 -9 252 -19 523 139 633 368 43 90 42
89 146 33z m-1039 -336 c62 -30 66 -34 60 -58 -3 -14 -9 -73 -12 -132 -4 -87
-2 -119 16 -189 11 -46 30 -103 42 -127 21 -42 21 -46 5 -88 -42 -109 -147
-231 -257 -297 -196 -119 -407 -128 -617 -27 -185 89 -328 295 -347 500 l-7
76 72 -24 c133 -44 288 -48 421 -8 65 19 174 77 232 124 92 75 181 204 216
314 l13 37 48 -35 c26 -19 78 -49 115 -66z m-1456 21 c15 -36 45 -92 68 -126
43 -62 141 -160 192 -190 27 -16 30 -24 36 -83 18 -196 81 -337 206 -460 51
-51 51 -51 34 -77 -60 -92 -176 -181 -297 -226 -78 -30 -92 -32 -218 -32 -117
-1 -144 2 -200 22 -237 85 -396 282 -431 529 -30 218 71 456 250 587 69 51
164 96 235 111 92 21 96 19 125 -55z m3254 -154 c38 -122 43 -235 15 -356 -16
-68 -76 -189 -120 -242 l-40 -48 -60 54 c-59 54 -222 146 -259 146 -10 0 -19
2 -19 4 0 2 13 32 29 68 36 78 61 172 61 226 0 45 8 54 70 71 68 19 170 76
225 125 50 44 50 44 66 24 9 -12 23 -44 32 -72z m-1398 -683 c44 -23 114 -51
154 -62 41 -11 75 -22 77 -23 1 -2 12 -32 25 -68 27 -80 37 -242 19 -333 -20
-105 -70 -202 -160 -310 -26 -32 -123 -103 -178 -131 -79 -40 -192 -66 -286
-66 -366 1 -661 318 -633 682 4 43 9 83 12 89 4 5 47 9 97 9 109 0 197 20 293
65 85 41 103 54 180 130 76 77 88 92 125 165 l30 60 83 -83 c60 -60 104 -93
162 -124z m1003 161 c154 -68 292 -222 343 -384 31 -94 37 -247 14 -342 -57
-233 -240 -419 -467 -473 -205 -48 -429 11 -580 153 -39 37 -79 80 -89 95 -17
29 -17 30 16 85 49 82 85 200 92 297 6 89 -9 213 -33 271 -21 51 -19 54 47 54
162 0 338 77 459 201 85 88 92 90 198 43z m-2243 -274 c10 -16 140 -72 198
-85 27 -6 28 -7 20 -53 -21 -128 3 -286 62 -407 l33 -69 -46 -51 c-26 -28 -63
-79 -82 -113 -19 -34 -43 -75 -52 -91 -22 -39 -103 -63 -231 -69 -115 -5 -193
8 -283 48 -167 75 -282 199 -345 370 -28 79 -49 223 -33 232 5 3 43 1 84 -5
216 -30 461 68 604 243 51 61 60 68 71 50z m417 -733 c207 -201 508 -251 767
-127 47 23 94 49 104 57 21 19 17 22 55 -53 36 -71 62 -188 62 -276 -1 -282
-198 -536 -477 -613 -88 -25 -273 -17 -363 14 -244 85 -413 308 -427 563 -9
148 25 277 103 393 29 44 90 115 98 115 1 0 37 -33 78 -73z m1027 8 c40 -60
138 -141 219 -183 119 -62 178 -76 317 -77 137 0 222 21 334 81 35 20 67 32
71 27 31 -34 40 -246 15 -351 -48 -204 -213 -380 -425 -453 -53 -18 -88 -23
-190 -23 -112 -1 -133 2 -205 27 -78 28 -193 96 -229 136 -18 20 -18 22 21 98
61 120 78 189 77 323 -1 98 -5 127 -28 195 -15 44 -38 99 -51 123 l-24 43 31
34 c16 19 33 35 37 35 3 0 17 -16 30 -35z m30 -959 c73 -37 142 -56 248 -69
l97 -13 19 -69 c28 -105 20 -274 -18 -375 -69 -187 -210 -323 -403 -391 -79
-28 -235 -36 -327 -16 -121 26 -219 80 -311 171 -159 159 -222 358 -181 576
l12 65 150 1 c155 1 182 6 290 54 71 32 142 81 199 138 l50 50 64 -50 c35 -27
85 -59 111 -72z"/>
<path d="M4295 6904 c-79 -11 -225 -49 -272 -70 -153 -67 -316 -231 -407 -411
-44 -87 -29 -84 18 4 25 45 59 103 76 129 52 75 174 189 248 233 129 75 348
120 522 106 88 -7 275 -39 313 -55 12 -4 43 -16 70 -25 26 -9 45 -21 41 -26
-3 -5 10 -9 28 -9 l33 1 -29 16 c-49 26 -166 63 -271 84 -96 19 -307 32 -370
23z"/>
<path d="M4821 6774 c-29 -8 -71 -28 -93 -46 -49 -39 -67 -23 202 -173 432
-239 917 -491 927 -482 9 9 -219 172 -297 212 -19 10 -37 21 -40 24 -6 8 -204
122 -315 182 -165 89 -241 157 -208 190 16 16 86 28 161 29 34 0 62 4 62 9 0
5 -17 7 -37 5 -21 -2 -66 -5 -101 -8 -107 -7 -133 -56 -63 -119 36 -33 83 -61
255 -156 226 -124 534 -321 502 -321 -13 0 -381 193 -646 338 -85 47 -180 99
-210 115 -149 80 -209 119 -204 132 8 20 102 65 136 65 15 0 28 5 28 10 0 6
-1 10 -2 9 -2 0 -27 -7 -57 -15z"/>
<path d="M4553 6628 c-77 -82 -141 -191 -189 -318 l-32 -85 -58 -18 c-152 -47
-195 -63 -276 -103 -48 -24 -92 -44 -97 -44 -5 0 -12 10 -14 23 -3 17 -5 16
-6 -8 -1 -23 -10 -36 -39 -55 -103 -69 -205 -159 -293 -260 -45 -52 -54 -59
-60 -43 -6 13 -8 10 -8 -13 -1 -17 -17 -58 -36 -90 -19 -31 -32 -60 -29 -63 4
-3 9 -1 11 5 9 26 105 163 141 202 l39 42 172 0 c268 0 419 -31 520 -108 19
-14 32 -19 29 -11 -7 22 -146 88 -223 105 -44 10 -149 18 -279 22 l-210 7 64
58 c78 70 212 163 300 207 l65 33 115 -12 c245 -26 492 -89 593 -151 26 -16
47 -25 47 -19 0 17 -160 87 -261 113 -83 21 -228 48 -409 74 l-55 7 97 33
c388 129 857 119 1377 -29 57 -16 111 -28 120 -26 35 7 -272 87 -474 123 -201
36 -549 45 -724 20 -62 -10 -116 -15 -119 -12 -8 9 44 135 90 220 22 40 67
103 100 140 59 66 70 95 11 34z"/>
<path d="M1592 5860 c-34 -4 -65 -10 -68 -13 -4 -3 6 -28 21 -54 65 -113 133
-258 128 -272 -5 -13 -3 -14 7 -4 11 10 4 31 -38 115 -28 57 -63 125 -78 151
-33 57 -27 66 51 68 193 5 362 -30 601 -125 181 -72 255 -113 398 -220 84 -63
272 -243 263 -252 -4 -5 -100 60 -145 97 -54 45 -318 181 -482 249 -195 80
-553 191 -567 176 -4 -3 3 -16 14 -29 49 -52 93 -179 93 -268 l0 -46 -132 -6
c-145 -5 -250 -26 -387 -77 -146 -53 -219 -98 -306 -185 -113 -112 -178 -214
-262 -409 -27 -65 -83 -239 -83 -261 0 -3 30 15 68 39 69 46 137 75 148 63 3
-3 -1 -39 -10 -79 -33 -153 -77 -536 -75 -652 2 -46 4 -36 9 44 14 187 50 482
74 593 l22 107 -23 0 c-32 0 -101 -29 -147 -62 -22 -15 -41 -26 -44 -24 -6 7
36 139 75 236 87 212 214 388 348 480 148 102 423 180 633 180 l105 0 -6 78
c-5 83 -33 174 -66 221 -12 16 -21 32 -21 36 0 11 42 2 176 -38 227 -68 475
-167 624 -250 41 -23 83 -45 92 -49 10 -4 65 -40 124 -80 147 -101 145 -99
184 -135 37 -35 61 -44 39 -15 -113 146 -286 308 -427 398 -185 120 -532 249
-719 269 -111 11 -150 12 -211 5z"/>
<path d="M1405 5505 c-166 -30 -315 -85 -413 -152 -236 -162 -420 -531 -462
-925 -18 -173 -9 -239 19 -143 16 55 71 130 111 150 43 22 53 19 48 -15 -3
-16 -1 -30 4 -30 4 0 8 18 8 40 l0 40 -35 -14 c-64 -27 -94 -57 -129 -124 -10
-19 -20 -32 -23 -29 -9 9 17 218 39 312 84 362 253 631 480 762 106 61 308
117 477 133 l86 7 -70 1 c-38 0 -101 -6 -140 -13z"/>
<path d="M2360 5219 c-58 -10 -148 -29 -200 -42 -70 -18 -103 -22 -125 -15
-121 35 -365 53 -515 39 -109 -11 -296 -48 -287 -57 2 -2 42 4 88 15 118 28
297 43 409 36 104 -7 277 -33 298 -44 9 -5 -17 -20 -70 -40 -145 -58 -326
-161 -430 -248 l-48 -39 -172 -13 c-178 -13 -374 -41 -418 -61 l-25 -10 25 4
c205 39 542 77 556 63 3 -3 -27 -38 -68 -79 -223 -223 -404 -541 -508 -889
-34 -116 -33 -109 -21 -109 5 0 12 15 16 33 17 82 93 290 158 427 63 132 218
379 239 380 4 0 4 -15 0 -32 -11 -49 -6 -426 6 -478 9 -38 9 -33 4 35 -12 139
-8 426 7 475 25 85 279 316 456 415 36 21 68 35 70 33 3 -2 -2 -36 -10 -74
-19 -89 -29 -384 -16 -494 8 -71 9 -57 4 85 -6 190 9 382 36 459 16 48 20 51
86 78 221 91 578 171 675 151 19 -3 30 -1 30 6 0 17 -128 12 -250 -10z"/>
</g>
</svg>
