<?xml version="1.0" standalone="no"?>
<!DOCTYPE svg PUBLIC "-//W3C//DTD SVG 20010904//EN"
 "http://www.w3.org/TR/2001/REC-SVG-20010904/DTD/svg10.dtd">
<svg version="1.0" xmlns="http://www.w3.org/2000/svg"
 width="650.000000pt" height="488.000000pt" viewBox="0 0 650.000000 488.000000"
 preserveAspectRatio="xMidYMid meet">
<metadata>
Created by potrace 1.16, written by Peter Selinger 2001-2019
</metadata>
<g transform="translate(0.000000,488.000000) scale(0.100000,-0.100000)"
fill="#000000" stroke="none">
<path d="M1840 4059 c-238 -23 -395 -85 -718 -284 -235 -144 -261 -163 -347
-250 -121 -123 -185 -246 -226 -434 -26 -119 -37 -418 -20 -567 40 -373 212
-727 481 -994 269 -267 587 -401 919 -387 224 9 419 75 634 213 291 187 542
526 651 879 49 161 61 239 61 425 0 207 -18 319 -76 484 -76 214 -177 374
-334 531 -231 231 -484 352 -804 385 -57 5 -111 9 -120 9 -9 -1 -54 -5 -101
-10z m310 -50 c145 -21 334 -93 472 -183 305 -195 519 -517 595 -894 28 -138
25 -416 -5 -552 -45 -200 -123 -382 -236 -552 -78 -117 -97 -140 -211 -253
-85 -85 -248 -215 -269 -215 -4 0 -23 -11 -44 -25 -45 -30 -178 -88 -250 -109
-49 -14 -52 -14 -43 2 5 10 19 26 31 37 12 11 27 29 33 40 6 11 -15 -3 -45
-31 -84 -76 -113 -86 -253 -92 -236 -9 -457 56 -670 197 -95 62 -105 71 -221
186 -163 162 -278 336 -363 551 -89 225 -115 388 -108 672 7 294 45 445 151
604 78 118 260 265 375 303 115 38 286 14 396 -56 27 -17 43 -24 36 -15 -24
28 -133 84 -197 100 -34 9 -86 16 -115 16 -64 1 -64 1 71 84 283 174 548 230
870 185z"/>
<path d="M2600 3745 c0 -4 38 -47 84 -96 213 -224 341 -492 372 -779 4 -36 10
-74 15 -85 23 -59 -2 210 -31 326 -43 175 -143 352 -274 488 -76 78 -166 157
-166 146z"/>
<path d="M1733 3528 c-29 -32 -63 -99 -63 -125 0 -12 -5 -25 -10 -28 -6 -4
-63 19 -127 50 -121 58 -208 85 -281 85 -42 0 -176 -29 -169 -37 2 -2 36 2 74
9 108 18 190 0 333 -74 63 -33 140 -69 170 -80 83 -30 222 -34 350 -12 150 27
286 25 375 -5 39 -13 91 -34 117 -47 66 -33 72 -29 13 8 -138 86 -288 112
-480 83 -89 -13 -110 -14 -114 -3 -2 7 -21 30 -41 50 -20 20 -43 55 -50 78 -9
27 -23 46 -41 56 -35 18 -32 18 -56 -8z"/>
<path d="M4325 3474 c-249 -25 -493 -91 -600 -161 -178 -117 -234 -230 -219
-447 l6 -101 -53 -140 -54 -140 2 -159 3 -159 -33 -61 c-19 -34 -53 -93 -76
-133 -86 -146 -110 -277 -76 -416 23 -94 46 -141 108 -225 113 -151 228 -262
382 -370 326 -227 731 -314 1154 -246 336 54 582 163 760 336 87 87 129 155
187 312 18 49 47 109 64 132 33 46 38 85 15 124 -22 39 -19 50 36 125 77 106
106 170 119 266 36 259 -98 627 -317 870 -276 306 -643 514 -1013 574 -103 17
-317 27 -395 19z m415 -62 c206 -38 421 -126 600 -244 114 -75 273 -210 351
-298 222 -247 357 -608 320 -856 -12 -83 -63 -192 -117 -253 -37 -41 -81 -42
-284 -6 -27 5 -31 4 -19 -4 23 -15 177 -51 217 -51 28 0 32 -3 32 -26 0 -27 5
-27 -85 -8 -11 2 6 -9 38 -24 63 -30 77 -44 77 -79 0 -29 -78 -69 -200 -106
-225 -66 -399 -88 -705 -88 -602 0 -1136 148 -1392 385 -55 51 -79 84 -114
152 -98 192 -44 246 258 258 l141 6 27 -46 c44 -76 172 -157 365 -232 305
-119 522 -136 831 -66 l66 15 129 -46 c71 -25 140 -50 154 -56 15 -6 21 -7 15
-1 -5 6 -67 36 -137 68 -73 32 -128 63 -128 70 0 19 4 18 105 -16 49 -17 94
-30 99 -30 12 1 -172 90 -184 90 -11 0 -36 76 -59 182 -22 100 -56 165 -106
204 -19 14 -35 31 -35 38 0 6 26 34 58 61 61 54 147 144 122 130 -8 -5 -37
-27 -65 -50 -27 -23 -72 -57 -98 -75 -40 -29 -50 -32 -58 -20 -9 15 -8 29 7
64 7 19 6 19 -22 1 l-30 -17 -63 43 c-51 35 -72 43 -119 47 -31 2 -83 13 -114
23 -64 21 -180 25 -243 8 -22 -6 -70 -24 -107 -41 l-68 -31 -20 24 -21 24 6
-32 c5 -25 2 -34 -13 -42 -17 -9 -24 -5 -47 29 -15 22 -29 40 -31 40 -1 0 2
-15 8 -32 5 -18 12 -40 15 -50 7 -22 -27 -43 -102 -62 -39 -10 -68 -24 -83
-42 -27 -31 -46 -26 -68 19 -9 19 -32 42 -52 53 -57 30 -148 127 -182 194 -46
91 -62 169 -64 305 -1 113 1 124 28 183 37 80 123 161 221 207 112 53 297 102
470 125 105 13 354 4 475 -18z m-1190 -725 c0 -38 73 -160 129 -215 33 -33 57
-62 54 -66 -4 -3 -34 -6 -67 -6 -108 -1 -121 -35 -51 -131 25 -34 45 -65 45
-70 0 -5 -17 -9 -38 -9 -34 0 -122 -19 -162 -34 -13 -5 -14 4 -12 53 l4 60 46
3 47 3 -45 15 c-25 8 -48 19 -52 25 -23 33 -1 173 45 290 13 33 27 68 30 78 7
20 27 23 27 4z m1073 -172 c43 -14 95 -25 115 -25 58 0 132 -53 243 -174 68
-74 102 -119 108 -144 53 -204 65 -263 55 -280 -14 -22 -116 -48 -268 -68
-135 -18 -200 -11 -313 31 -78 30 -101 32 -53 4 l35 -20 -35 6 c-52 9 -184 52
-280 92 -180 73 -268 130 -317 205 -26 38 -26 40 -10 74 10 19 17 42 17 50 0
9 5 12 11 8 8 -4 9 1 4 15 -10 31 18 58 68 66 23 4 56 15 72 25 264 155 388
186 548 135z m-1233 -511 c0 -28 52 -136 91 -190 154 -211 508 -365 1029 -447
187 -29 694 -32 869 -4 133 21 316 67 384 96 26 11 47 18 47 15 0 -23 -75
-212 -104 -261 -48 -81 -151 -185 -246 -247 -157 -104 -329 -165 -595 -212
-154 -28 -426 -25 -570 5 -315 66 -545 191 -775 421 -152 152 -215 242 -247
352 -43 151 -25 274 62 421 40 67 55 81 55 51z"/>
<path d="M3940 2249 c0 -40 102 -145 179 -184 54 -27 153 -63 238 -85 227 -60
739 -124 719 -91 -5 7 -14 10 -21 7 -21 -8 -160 13 -400 60 -473 93 -598 142
-684 264 -17 24 -31 37 -31 29z"/>
<path d="M1060 931 c-202 -18 1266 -29 1735 -13 202 6 212 7 120 13 -124 8
-1766 8 -1855 0z"/>
<path d="M2728 771 c-86 -3 -159 -9 -162 -12 -4 -3 49 -9 115 -12 263 -15 912
-3 830 14 -50 10 -600 18 -783 10z"/>
<path d="M1940 490 l-215 -5 325 -7 c377 -9 2292 -8 2645 1 l240 6 -340 7
c-367 9 -2303 7 -2655 -2z"/>
</g>
</svg>
