<?xml version="1.0" standalone="no"?>
<!DOCTYPE svg PUBLIC "-//W3C//DTD SVG 20010904//EN"
 "http://www.w3.org/TR/2001/REC-SVG-20010904/DTD/svg10.dtd">
<svg version="1.0" xmlns="http://www.w3.org/2000/svg"
 width="650.000000pt" height="837.000000pt" viewBox="0 0 650.000000 837.000000"
 preserveAspectRatio="xMidYMid meet">
<metadata>
Created by potrace 1.16, written by Peter Selinger 2001-2019
</metadata>
<g transform="translate(0.000000,837.000000) scale(0.100000,-0.100000)"
fill="#000000" stroke="none">
<path d="M5060 7835 c-8 -2 -49 -8 -90 -15 -263 -41 -526 -159 -1039 -468
-413 -249 -582 -330 -1091 -527 -92 -35 -141 -53 -350 -125 -314 -109 -355
-124 -530 -197 -696 -289 -1150 -609 -1436 -1014 -95 -133 -170 -274 -237
-440 -142 -357 -197 -756 -151 -1096 16 -116 16 -132 -1 -291 -22 -216 -18
-349 13 -414 24 -48 87 -118 107 -118 6 0 21 -10 34 -21 38 -36 147 -87 198
-94 81 -10 85 -12 198 -81 61 -37 162 -93 226 -125 65 -32 188 -98 275 -147
209 -117 315 -170 454 -225 285 -112 570 -153 859 -123 452 48 842 199 1226
474 334 240 619 536 967 1002 106 143 230 276 373 402 449 397 720 683 925
975 24 35 45 61 48 59 7 -7 -22 -91 -44 -127 -39 -64 -95 -179 -125 -262 -71
-193 -169 -354 -258 -425 -46 -37 -68 -75 -111 -192 -39 -105 -63 -152 -121
-231 -26 -37 -63 -98 -82 -136 -25 -48 -63 -97 -132 -168 -53 -55 -122 -134
-153 -175 -69 -92 -124 -143 -220 -204 -61 -39 -75 -44 -91 -34 -24 15 -74 -4
-102 -41 -16 -20 -20 -37 -17 -75 l3 -49 -68 -22 c-57 -19 -79 -33 -141 -93
-57 -56 -93 -81 -167 -115 -68 -32 -116 -64 -173 -115 -52 -47 -89 -72 -112
-77 -22 -4 -54 -25 -91 -60 -59 -58 -73 -64 -194 -90 -60 -13 -85 -24 -114
-51 -21 -19 -39 -34 -40 -34 -1 0 -8 13 -14 29 -22 51 -83 65 -138 31 -41 -25
-62 -57 -71 -111 -6 -36 -12 -45 -32 -47 -25 -4 -59 -23 -102 -58 -29 -23 -69
-39 -185 -75 -45 -13 -87 -34 -112 -55 -41 -35 -79 -54 -112 -54 -15 0 -19 7
-19 39 0 66 -54 97 -116 68 -43 -21 -69 -61 -68 -108 l1 -37 -83 -4 c-70 -4
-93 -10 -146 -38 -51 -27 -80 -35 -153 -41 -49 -5 -135 -20 -190 -34 -137 -34
-320 -48 -645 -48 -237 -1 -295 2 -419 22 -294 45 -542 133 -701 247 -28 20
-53 34 -56 32 -7 -8 23 -145 57 -259 108 -365 316 -722 553 -953 264 -256 523
-389 866 -443 131 -20 477 -20 640 1 1188 153 2490 885 3218 1811 68 86 204
314 265 445 163 347 200 470 373 1238 42 186 78 383 105 562 10 74 33 230 50
345 53 354 45 425 -45 425 -33 0 -52 -7 -74 -25 -17 -14 -32 -25 -35 -25 -3 0
16 46 43 103 165 350 248 779 237 1222 -3 131 -10 217 -20 250 -52 179 -68
259 -77 379 -14 195 -41 265 -129 341 -20 17 -43 21 -180 26 -172 7 -185 10
-388 103 -128 59 -261 86 -406 85 -56 -1 -109 -3 -117 -4z m364 -44 c44 -12
123 -42 175 -67 170 -81 198 -88 357 -89 119 -1 146 -4 170 -19 68 -43 112
-128 124 -239 5 -45 14 -125 19 -177 6 -52 27 -151 46 -220 34 -116 37 -137
42 -305 16 -512 -100 -1021 -315 -1386 -155 -262 -479 -626 -862 -966 -258
-229 -384 -356 -471 -473 -219 -297 -408 -522 -573 -685 -487 -479 -993 -747
-1551 -821 -89 -12 -171 -15 -315 -11 -227 5 -342 25 -527 88 -180 62 -268
105 -678 332 -49 27 -126 66 -170 87 -44 20 -114 59 -155 85 -111 71 -252 138
-261 123 -21 -33 -185 66 -235 142 -27 41 -53 56 -34 20 6 -12 7 -20 1 -20
-18 0 -61 105 -70 171 -6 46 -5 106 4 195 26 252 27 304 11 413 -55 364 30
842 219 1226 234 475 598 808 1225 1120 290 145 535 243 1010 405 119 41 448
164 492 184 18 8 67 28 109 45 169 66 430 202 664 346 535 330 835 466 1125
511 119 18 323 11 424 -15z m834 -2472 c15 -41 11 -96 -28 -369 -91 -629 -121
-784 -281 -1440 -110 -450 -274 -815 -510 -1130 -220 -294 -439 -488 -749
-660 -729 -406 -950 -509 -1275 -595 -340 -90 -1005 -142 -1294 -100 -437 64
-855 254 -1306 595 -92 70 -260 207 -301 245 -6 5 -61 55 -122 109 -62 55
-112 104 -112 108 0 5 21 -2 48 -15 150 -76 362 -133 622 -169 193 -26 825 -9
958 27 54 14 54 14 47 -8 -4 -12 -10 -40 -12 -62 -4 -36 -1 -45 28 -73 61 -59
170 -52 230 15 39 46 39 91 -1 137 l-30 34 39 7 c22 3 61 21 88 38 48 32 48
32 188 33 125 1 144 3 175 22 19 12 45 22 58 22 33 0 82 23 134 62 26 20 72
42 109 52 98 26 137 44 197 87 54 38 122 54 122 29 0 -6 10 -14 22 -19 19 -7
15 -9 -24 -19 -29 -8 -59 -25 -82 -48 -30 -30 -36 -43 -36 -78 0 -83 92 -121
184 -77 92 45 115 152 40 192 -27 14 -32 29 -10 29 8 0 28 11 44 25 32 27 42
24 42 -12 0 -14 13 -38 30 -55 28 -28 36 -30 80 -26 117 12 200 142 154 244
-10 21 -19 42 -21 45 -2 4 11 9 29 13 18 3 50 18 72 32 l39 26 -21 -35 c-24
-38 -29 -112 -9 -138 37 -49 94 -50 145 -4 110 99 44 270 -78 200 -41 -23 -46
-17 -12 13 18 16 49 34 70 40 21 7 70 41 116 82 43 38 82 70 87 70 4 0 1 -17
-8 -37 -10 -25 -14 -56 -11 -92 4 -45 10 -59 37 -83 50 -45 122 -33 177 30 24
28 54 102 54 134 0 34 -30 94 -56 109 l-25 15 84 81 c58 56 93 82 117 87 19 3
54 16 77 27 46 22 63 19 63 -12 0 -60 92 -79 148 -31 68 57 44 152 -39 152
-42 0 -42 0 -33 25 7 17 135 105 153 105 5 0 11 -7 15 -15 16 -43 96 10 96 64
0 16 -5 31 -11 33 -17 6 100 155 197 253 46 47 86 85 88 85 2 0 9 -14 15 -30
12 -36 44 -50 85 -39 37 11 64 35 87 81 46 91 3 168 -77 138 -15 -6 -28 -9
-30 -7 -2 1 26 45 61 97 37 55 79 134 101 190 57 146 70 168 153 250 88 88
144 187 235 414 30 76 74 169 96 207 23 37 49 94 59 126 24 77 43 112 83 150
55 52 104 49 126 -8z m-823 -1446 c52 -51 -51 -207 -114 -173 -40 21 -37 80 6
138 38 50 80 64 108 35z m-634 -714 c26 -26 19 -64 -17 -96 -28 -25 -82 -31
-102 -11 -21 21 -13 64 17 97 34 37 72 40 102 10z m-480 -296 c53 -32 60 -106
17 -183 -24 -44 -59 -70 -103 -77 -29 -5 -39 -1 -65 25 -24 25 -30 39 -30 74
1 55 30 119 66 145 53 37 74 40 115 16z m-338 -285 c28 -38 16 -91 -33 -140
-44 -44 -79 -49 -110 -16 -38 41 -20 123 37 168 36 28 80 23 106 -12z m-548
-82 c14 -10 20 -26 20 -53 0 -67 -55 -126 -117 -126 -42 0 -61 27 -55 81 9 82
97 139 152 98z m253 -6 c78 -72 -13 -240 -129 -240 -121 0 -96 205 31 253 33
12 77 6 98 -13z m-331 -230 c111 -39 21 -191 -104 -177 -105 12 -97 134 12
172 49 17 55 18 92 5z m-695 -67 c35 -31 15 -93 -39 -118 -41 -20 -71 -12 -84
21 -16 44 36 114 85 114 11 0 28 -7 38 -17z m-2466 -64 c56 -60 340 -313 463
-413 393 -321 789 -542 1151 -645 275 -78 467 -94 857 -70 579 34 931 123
1378 347 214 108 731 393 828 456 15 10 27 16 27 13 0 -6 -118 -109 -169 -147
-18 -14 -47 -36 -65 -50 -140 -114 -447 -317 -656 -434 -80 -46 -415 -213
-490 -245 -381 -163 -793 -290 -1102 -340 -236 -37 -314 -44 -503 -44 -333 0
-535 42 -766 160 -437 222 -777 671 -952 1253 -40 132 -52 190 -39 190 4 0 21
-14 38 -31z m1948 -183 c38 -16 66 -51 66 -82 0 -33 -46 -82 -90 -95 -110 -33
-205 64 -137 142 39 45 103 59 161 35z"/>
<path d="M5335 7604 c-189 -28 -289 -66 -650 -244 -176 -86 -348 -170 -382
-185 -35 -15 -63 -32 -63 -36 0 -5 1 -9 3 -9 15 0 228 101 456 215 418 209
516 239 761 239 174 0 274 -19 382 -73 32 -16 60 -25 64 -20 8 14 -108 65
-201 89 -78 20 -299 34 -370 24z"/>
<path d="M5515 7363 c-141 -10 -378 -73 -565 -150 -94 -39 -283 -132 -339
-167 -20 -13 -63 -38 -96 -56 -590 -325 -1067 -529 -1503 -640 -274 -71 -564
-213 -841 -413 -47 -34 -95 -69 -106 -79 -153 -126 -241 -203 -349 -308 -543
-529 -1035 -1285 -1299 -2000 -56 -149 -80 -230 -73 -237 3 -3 40 13 83 36
413 223 793 356 1438 506 946 220 1293 341 1765 615 542 315 1151 853 1481
1308 83 113 219 324 219 338 0 3 8 18 19 32 35 51 226 422 291 567 43 95 201
408 246 486 25 43 44 86 42 96 -4 24 -79 50 -180 63 -80 10 -128 10 -233 3z
m225 -23 c87 -10 170 -35 170 -50 0 -5 -22 -46 -49 -92 -27 -45 -87 -160 -133
-254 l-83 -172 -54 -6 c-125 -15 -382 -94 -591 -182 -340 -142 -558 -261
-1065 -580 -341 -214 -574 -335 -943 -488 -355 -148 -520 -244 -772 -452 -283
-233 -545 -515 -740 -796 -36 -52 -62 -81 -71 -78 -40 13 -90 3 -126 -26 -85
-68 -106 -173 -44 -225 l31 -26 -54 -114 -54 -114 -74 -24 c-142 -46 -305
-114 -507 -212 -112 -55 -205 -98 -208 -96 -8 8 99 290 173 459 149 338 313
628 537 950 113 163 328 438 420 536 333 360 570 562 892 762 214 134 435 226
680 285 131 32 496 161 655 233 395 177 538 250 870 437 333 189 657 305 903
324 150 12 146 12 237 1z m-110 -595 c0 -17 -231 -472 -300 -590 -229 -392
-411 -618 -760 -944 -326 -303 -550 -478 -854 -665 -473 -291 -931 -461 -1726
-641 -210 -48 -716 -179 -773 -200 -25 -10 -22 3 32 118 38 80 55 106 73 110
29 8 84 61 105 101 9 17 15 54 15 85 0 52 3 61 65 151 36 52 95 132 130 176
58 74 68 82 105 87 87 12 175 111 164 184 -4 30 2 38 70 102 70 66 76 69 113
64 33 -5 44 -1 65 20 22 22 24 30 16 52 -14 38 -13 39 16 16 49 -39 117 -26
177 34 41 41 56 93 39 137 -9 26 -7 30 24 54 l34 26 29 -31 c42 -45 101 -40
155 14 31 31 40 64 33 111 -7 39 -4 41 163 114 l90 39 26 -26 c33 -33 67 -25
115 27 23 25 43 38 52 34 8 -3 30 1 49 9 24 10 40 12 52 5 54 -30 150 36 162
111 9 54 29 65 82 44 36 -14 48 -14 88 -3 63 18 111 65 120 118 6 41 29 61 48
42 5 -5 30 -10 54 -10 38 0 50 5 83 39 22 21 42 53 45 71 5 22 19 39 46 57 36
24 39 25 56 9 10 -9 35 -16 56 -16 71 0 123 50 134 127 7 44 10 48 64 77 53
29 57 30 75 14 11 -10 33 -20 49 -23 61 -12 144 63 144 131 0 29 5 36 41 55
40 20 43 20 74 4 22 -13 43 -16 71 -11 21 4 73 8 114 9 60 2 81 6 103 24 52
41 72 74 73 126 2 61 19 75 50 42 12 -13 34 -27 49 -31 58 -15 160 53 182 121
8 26 18 32 74 48 159 44 269 65 269 52z m-643 -235 c-6 -50 -37 -93 -81 -114
-49 -23 -95 -21 -118 6 -35 40 -21 58 82 104 121 54 124 55 117 4z m-2327
-1217 c-1 -58 -55 -113 -112 -113 -24 0 -58 30 -58 52 0 12 133 97 153 97 13
1 17 -7 17 -36z m-272 -181 c7 -66 -69 -142 -140 -142 -38 0 -62 19 -53 41 10
23 159 139 175 136 9 -1 16 -15 18 -35z m-998 -942 c17 -9 14 -18 -40 -111
-33 -56 -63 -106 -69 -112 -6 -6 -19 0 -36 17 -24 24 -27 33 -21 69 8 48 45
100 90 128 35 21 49 23 76 9z"/>
<path d="M4680 6127 c-46 -23 -66 -100 -34 -131 40 -40 109 -2 121 66 4 28 1
40 -16 57 -24 24 -36 26 -71 8z"/>
<path d="M4083 5933 c-95 -62 -117 -205 -36 -242 35 -16 58 -14 103 9 53 27
92 87 98 150 4 44 2 52 -26 80 -39 39 -83 40 -139 3z m126 -19 c28 -36 27 -86
-4 -134 -45 -72 -111 -97 -158 -60 -43 34 -36 118 15 172 52 56 113 65 147 22z"/>
<path d="M4935 5943 c-64 -17 -115 -92 -115 -168 0 -38 5 -52 30 -77 27 -26
36 -30 68 -24 80 12 135 87 129 174 -5 74 -49 111 -112 95z m69 -34 c21 -17
26 -29 26 -65 0 -106 -97 -186 -163 -134 -57 45 -26 163 53 202 44 23 52 22
84 -3z"/>
<path d="M4435 5904 c-94 -49 -123 -137 -65 -196 28 -28 36 -30 80 -26 60 6
111 39 139 89 28 49 26 81 -5 118 -22 27 -33 31 -72 31 -26 0 -60 -7 -77 -16z
m135 -26 c43 -47 6 -130 -73 -163 -52 -21 -84 -19 -112 10 -30 29 -31 59 -5
103 42 69 146 97 190 50z"/>
<path d="M3878 5630 c-21 -13 -41 -74 -33 -100 23 -73 125 -28 125 55 0 45
-49 69 -92 45z"/>
<path d="M4663 5560 c-53 -22 -60 -134 -8 -154 27 -10 65 13 81 49 17 42 10
80 -19 100 -24 17 -24 17 -54 5z"/>
<path d="M3623 5539 c-49 -14 -109 -77 -123 -128 -22 -83 13 -141 87 -141 52
0 92 18 126 59 90 108 31 246 -90 210z m93 -40 c29 -32 24 -99 -10 -144 -94
-123 -243 -59 -174 75 42 81 139 118 184 69z"/>
<path d="M2812 5134 c-68 -35 -107 -123 -82 -185 16 -37 37 -49 88 -49 48 0
85 27 113 83 53 102 -24 199 -119 151z m93 -29 c29 -28 32 -63 9 -111 -22 -46
-60 -74 -100 -74 -102 0 -90 157 16 199 38 15 49 13 75 -14z"/>
<path d="M3239 5132 c-48 -32 -62 -53 -67 -102 -4 -42 -1 -52 21 -74 15 -15
38 -26 52 -26 107 0 187 129 120 195 -29 30 -87 33 -126 7z m113 -19 c53 -47
-19 -163 -102 -163 -28 0 -60 35 -60 65 0 83 107 148 162 98z"/>
<path d="M3758 5094 c-46 -29 -71 -75 -71 -128 0 -32 6 -45 32 -68 50 -44 117
-35 179 25 59 57 62 145 7 181 -36 24 -103 19 -147 -10z m139 -9 c54 -38 25
-138 -51 -174 -53 -26 -77 -26 -110 0 -48 38 -28 130 37 169 38 24 94 26 124
5z"/>
<path d="M3417 4822 c-37 -25 -55 -50 -67 -95 -22 -78 31 -147 101 -132 60 13
119 88 119 152 0 31 -25 79 -45 87 -31 11 -80 6 -108 -12z m117 -24 c33 -47 9
-127 -50 -166 -40 -26 -62 -28 -91 -7 -71 49 -5 195 88 195 28 0 42 -6 53 -22z"/>
<path d="M2644 4820 c-67 -27 -86 -133 -32 -173 37 -27 84 -14 115 32 54 79
-3 175 -83 141z m67 -31 c17 -17 20 -29 16 -56 -11 -64 -60 -97 -102 -69 -37
24 -34 78 4 117 35 34 54 36 82 8z"/>
<path d="M1958 4694 c-30 -16 -68 -80 -68 -115 0 -84 104 -117 173 -54 99 93
12 233 -105 169z m107 -24 c11 -12 19 -36 19 -57 0 -28 -8 -42 -37 -69 -43
-40 -82 -44 -115 -14 -26 24 -28 59 -7 100 31 60 104 80 140 40z"/>
<path d="M2286 4640 c-62 -55 -68 -117 -14 -154 30 -21 53 -20 103 4 106 51
97 180 -13 180 -32 0 -49 -7 -76 -30z m128 -6 c35 -35 7 -101 -54 -129 -38
-17 -45 -17 -68 -4 -38 22 -47 42 -33 75 25 61 118 95 155 58z"/>
<path d="M2960 4643 c-62 -56 -47 -153 24 -153 44 0 83 32 97 81 11 35 10 43
-8 67 -29 39 -73 41 -113 5z"/>
<path d="M2055 4489 c-45 -13 -86 -60 -92 -105 -4 -32 -1 -43 20 -62 64 -60
189 2 189 93 0 39 -14 64 -43 74 -36 12 -33 12 -74 0z m89 -39 c44 -42 -25
-130 -102 -130 -86 0 -78 107 12 146 35 15 63 10 90 -16z"/>
<path d="M2724 4426 c-78 -34 -87 -126 -15 -156 92 -38 190 90 115 149 -31 24
-56 26 -100 7z m84 -22 c50 -35 9 -115 -61 -117 -20 0 -42 5 -51 12 -23 19
-20 64 7 88 39 36 71 41 105 17z"/>
<path d="M2233 4300 c-27 -16 -33 -26 -33 -54 0 -43 29 -66 83 -66 48 0 75 14
87 45 13 33 3 59 -30 78 -37 22 -68 21 -107 -3z"/>
<path d="M1802 4204 c-37 -30 -72 -91 -72 -129 0 -21 5 -25 29 -25 49 0 121
93 121 156 0 33 -35 32 -78 -2z"/>
<path d="M2190 6276 c-42 -16 -165 -71 -200 -90 -14 -7 -61 -32 -105 -56 -382
-204 -769 -519 -1014 -825 -154 -193 -304 -461 -370 -663 -45 -136 -93 -382
-74 -382 4 0 19 57 31 128 100 559 476 1077 1102 1518 183 129 461 282 615
340 39 15 74 31 80 35 14 13 -24 10 -65 -5z"/>
<path d="M2770 3295 c-360 -170 -843 -275 -1255 -275 -113 0 -276 13 -337 26
-29 6 -39 -10 -13 -19 8 -4 90 -11 184 -18 449 -32 1004 69 1407 256 44 20
100 46 127 58 45 21 62 38 35 36 -7 -1 -74 -30 -148 -64z"/>
<path d="M5541 4136 c-54 -56 -43 -136 18 -136 42 1 78 38 91 94 17 77 -50
103 -109 42z"/>
<path d="M5125 3578 c-64 -35 -97 -96 -75 -137 8 -16 21 -21 55 -21 39 0 50 5
85 40 28 28 40 49 40 68 0 52 -55 78 -105 50z"/>
<path d="M5114 3361 c-56 -34 -87 -128 -64 -195 25 -76 99 -89 160 -28 116
116 35 303 -96 223z m96 -11 c25 -13 43 -73 35 -112 -26 -117 -141 -158 -174
-63 -34 101 59 218 139 175z"/>
<path d="M4903 3083 c-31 -6 -80 -66 -93 -113 -8 -31 -7 -47 4 -74 30 -72 115
-75 178 -7 34 36 38 46 38 95 0 48 -3 57 -31 80 -29 25 -47 28 -96 19z m81
-34 c21 -17 26 -29 26 -66 0 -39 -5 -50 -39 -84 -54 -55 -112 -53 -136 4 -24
57 8 125 70 153 41 18 48 17 79 -7z"/>
<path d="M4471 2961 c-93 -93 -70 -234 38 -234 51 0 93 31 120 86 25 51 27 97
6 137 -19 36 -43 50 -89 50 -29 0 -44 -8 -75 -39z m134 -7 c33 -35 32 -85 0
-139 -52 -90 -147 -92 -168 -4 -17 68 51 169 112 169 22 0 40 -9 56 -26z"/>
<path d="M4482 2549 c-72 -36 -98 -96 -62 -142 38 -48 119 -32 174 33 71 85
-9 161 -112 109z m93 -11 c35 -16 32 -50 -8 -94 -24 -26 -43 -37 -74 -41 -36
-5 -43 -2 -58 20 -15 24 -15 28 0 57 10 19 32 39 58 51 50 22 49 22 82 7z"/>
<path d="M4065 2430 c-74 -30 -93 -133 -30 -162 33 -15 69 1 95 44 28 46 26
82 -6 107 -29 23 -30 23 -59 11z"/>
<path d="M2797 2096 c-46 -17 -64 -32 -83 -67 -25 -49 -18 -97 20 -135 30 -30
40 -34 86 -34 116 0 190 92 148 184 -24 53 -103 77 -171 52z m95 -15 c44 -17
68 -49 68 -90 0 -32 -7 -45 -40 -75 -35 -31 -47 -36 -91 -36 -43 0 -55 5 -80
29 -59 59 -25 143 70 172 36 10 46 10 73 0z"/>
<path d="M2425 2003 c-67 -17 -121 -105 -97 -158 15 -32 69 -65 107 -65 73 1
155 69 155 130 0 71 -78 115 -165 93z m93 -24 c35 -12 57 -56 47 -91 -26 -84
-154 -116 -205 -51 -25 32 -25 49 0 90 31 52 97 74 158 52z"/>
</g>
</svg>
