<?xml version="1.0" standalone="no"?>
<!DOCTYPE svg PUBLIC "-//W3C//DTD SVG 20010904//EN"
 "http://www.w3.org/TR/2001/REC-SVG-20010904/DTD/svg10.dtd">
<svg version="1.0" xmlns="http://www.w3.org/2000/svg"
 width="650.000000pt" height="839.000000pt" viewBox="0 0 650.000000 839.000000"
 preserveAspectRatio="xMidYMid meet">
<metadata>
Created by potrace 1.16, written by Peter Selinger 2001-2019
</metadata>
<g transform="translate(0.000000,839.000000) scale(0.100000,-0.100000)"
fill="#000000" stroke="none">
<path d="M2232 7916 l-37 -35 18 -28 c10 -15 34 -59 53 -98 20 -38 48 -83 63
-98 24 -26 26 -35 26 -120 0 -108 -13 -140 -101 -243 -92 -108 -106 -133 -103
-184 3 -51 3 -51 -86 -22 -44 15 -50 20 -47 42 13 114 13 142 2 176 -16 51
-60 97 -135 141 -33 20 -96 59 -139 87 l-80 51 -96 0 c-91 0 -100 -2 -171 -37
-81 -40 -101 -59 -197 -185 -34 -45 -79 -96 -100 -112 -105 -86 -179 -133
-243 -152 -37 -11 -75 -29 -84 -38 -15 -17 -15 -19 2 -27 10 -4 63 -10 118
-14 129 -8 206 -40 266 -112 50 -58 66 -68 144 -84 33 -7 83 -22 112 -35 50
-22 56 -22 145 -10 68 9 105 10 138 2 79 -18 129 -14 167 15 52 40 91 100 103
161 12 54 12 55 42 49 38 -8 218 -85 240 -104 25 -21 108 -177 129 -242 9 -30
29 -86 43 -125 25 -68 34 -139 19 -148 -5 -2 -42 4 -83 15 -102 25 -231 33
-302 19 -104 -22 -242 -139 -359 -306 -24 -33 -46 -62 -49 -65 -30 -25 -180
-209 -248 -305 -47 -66 -96 -133 -109 -149 -27 -32 -44 -68 -130 -271 -145
-342 -180 -535 -163 -903 10 -202 21 -255 77 -366 19 -39 41 -87 48 -107 14
-38 168 -259 241 -345 32 -39 89 -80 225 -163 201 -124 227 -134 446 -166 117
-17 123 -19 157 -54 35 -36 35 -37 51 -186 8 -82 20 -192 26 -243 6 -52 9 -95
7 -96 -14 -11 -229 -129 -513 -281 -235 -126 -528 -286 -575 -312 -19 -11
-118 -68 -220 -126 -102 -58 -259 -151 -350 -207 -91 -56 -199 -120 -240 -142
-41 -23 -85 -50 -98 -62 l-22 -22 25 -63 c29 -71 107 -201 166 -276 58 -72
377 -392 424 -425 152 -105 398 -198 665 -252 101 -20 144 -23 355 -23 229 0
245 1 350 28 361 91 656 219 802 347 24 21 64 43 90 50 48 13 103 61 265 223
51 53 183 246 267 392 58 102 122 261 141 350 15 72 30 87 114 115 118 39 124
37 276 -76 74 -55 162 -119 195 -141 33 -23 80 -63 105 -88 55 -57 101 -89
205 -144 71 -37 84 -41 125 -35 111 16 476 181 636 287 235 155 445 409 590
712 99 205 155 420 189 715 8 74 20 180 27 235 6 55 12 161 12 235 0 118 -4
150 -31 255 -17 66 -34 137 -37 157 -9 49 -88 238 -134 317 -20 35 -50 89 -67
120 -35 66 -92 141 -191 251 -22 25 -75 88 -116 140 -41 52 -107 125 -146 161
-147 139 -423 293 -645 360 -212 64 -425 117 -522 129 -49 6 -100 13 -112 16
l-23 4 37 103 c19 56 41 109 48 117 16 19 45 76 45 88 0 22 -88 45 -185 49
l-100 5 -17 -43 c-32 -83 -58 -188 -66 -260 l-7 -72 -60 -17 c-33 -9 -102 -33
-153 -54 -145 -57 -140 -58 -189 21 -23 38 -75 106 -117 152 -41 46 -90 106
-109 135 -18 28 -92 139 -162 246 -127 193 -160 235 -222 278 -75 52 -228 75
-313 47 -62 -20 -70 -15 -70 52 0 24 -13 85 -30 136 -34 106 -36 127 -16 165
13 25 108 122 120 122 3 0 11 -18 18 -41 10 -34 24 -50 82 -90 93 -66 133 -78
185 -54 32 14 54 16 113 11 71 -7 74 -6 110 24 21 17 67 80 103 139 43 72 85
127 123 162 107 98 270 192 369 211 58 11 97 33 87 49 -3 5 -39 9 -81 9 -87 0
-169 25 -393 120 -181 77 -258 100 -357 107 -117 8 -154 -8 -240 -103 -37 -41
-91 -92 -120 -114 -73 -56 -86 -84 -81 -184 3 -72 6 -86 31 -115 37 -44 34
-63 -12 -89 -22 -13 -59 -38 -81 -57 -23 -19 -43 -35 -45 -35 -2 0 -38 51 -80
114 -106 157 -106 159 -15 311 96 160 157 234 220 272 27 15 31 22 26 47 -11
53 -34 79 -64 72 -15 -4 -44 -9 -64 -12 -34 -6 -37 -5 -44 22 -11 46 -62 155
-90 191 -26 34 -99 93 -116 93 -4 0 -25 -15 -46 -34z m110 -81 c21 -28 55 -92
75 -144 21 -52 46 -99 55 -105 12 -7 31 -7 64 2 73 20 73 1 2 -58 -66 -54
-103 -105 -114 -153 -3 -15 -17 -35 -31 -44 -28 -18 -88 -132 -98 -185 -10
-52 9 -106 64 -183 117 -165 170 -288 202 -475 17 -97 17 -106 2 -117 -9 -7
-27 -13 -40 -13 -26 0 -29 9 -38 119 -9 124 -67 269 -159 401 -61 88 -116 202
-116 242 0 35 45 112 95 165 30 32 85 122 85 140 0 7 12 29 26 50 20 30 24 45
19 72 -9 49 -65 155 -119 226 -29 38 -46 70 -46 88 0 42 27 31 72 -28z m-661
-315 c20 -10 56 -33 80 -50 24 -18 73 -51 108 -74 88 -56 105 -81 109 -164 4
-61 2 -69 -21 -90 l-25 -24 -148 12 c-152 13 -290 9 -404 -13 -63 -12 -59 -12
135 -18 149 -4 211 -10 245 -22 25 -9 62 -19 83 -22 56 -9 79 -36 71 -83 -15
-84 -74 -153 -129 -152 -17 1 -102 2 -190 3 -145 2 -164 4 -202 25 -24 12 -62
25 -86 28 -33 5 -56 18 -102 60 -73 66 -158 112 -219 120 -25 4 -46 9 -46 13
0 3 15 16 33 28 18 13 42 31 53 41 10 10 47 37 82 62 35 24 79 66 99 94 44 61
143 161 198 198 84 57 197 68 276 28z m1473 -50 c42 -10 161 -53 264 -94 103
-41 206 -77 230 -81 24 -4 42 -11 40 -15 -2 -5 -39 -32 -83 -61 -44 -28 -121
-84 -171 -123 -75 -58 -103 -88 -155 -166 -35 -52 -79 -112 -98 -133 l-33 -37
-82 2 c-44 1 -102 -2 -127 -6 -34 -6 -53 -4 -75 7 -78 40 -127 123 -105 179
15 39 140 101 439 219 56 22 102 43 102 46 0 11 -94 -5 -185 -31 -49 -14 -159
-60 -244 -102 -149 -74 -154 -76 -172 -58 -26 28 -43 101 -35 156 6 41 16 57
74 115 37 37 86 90 108 116 77 89 155 106 308 67z m-806 -1125 c117 -45 174
-46 307 -5 155 48 188 49 268 9 55 -29 78 -48 138 -124 40 -49 106 -142 147
-205 121 -187 137 -210 233 -325 95 -114 159 -206 159 -229 0 -7 -55 -38 -123
-69 -330 -152 -494 -261 -677 -453 -314 -330 -489 -675 -554 -1094 -22 -138
-38 -403 -30 -489 l7 -74 -24 7 c-13 4 -91 18 -174 32 -82 14 -168 30 -190 35
-47 13 -318 179 -398 244 -52 42 -107 107 -152 181 -119 194 -183 330 -209
446 -8 35 -20 146 -27 248 -18 263 -8 338 77 590 132 390 256 612 466 835 51
55 112 127 133 160 78 118 187 232 258 271 115 63 220 65 365 9z m1953 -432
c9 -9 2 -36 -25 -110 -54 -142 -53 -139 -80 -244 -43 -166 -54 -350 -29 -456
4 -18 1 -23 -15 -23 -12 0 -32 5 -46 11 -22 10 -25 20 -33 88 -10 96 -9 435 2
566 8 95 10 102 44 143 l36 44 67 -4 c37 -2 73 -9 79 -15z m99 -368 c154 -16
221 -31 341 -75 43 -15 120 -40 171 -55 133 -39 290 -109 383 -171 232 -155
236 -158 380 -334 56 -69 124 -147 149 -175 108 -115 231 -320 301 -500 49
-127 53 -139 83 -255 28 -108 30 -125 27 -275 -3 -239 -51 -625 -101 -830 -31
-125 -69 -225 -139 -365 -40 -80 -80 -161 -89 -181 -22 -48 -119 -166 -224
-272 -203 -207 -428 -335 -711 -407 -63 -16 -116 -28 -118 -27 -1 2 1 109 5
238 8 276 -1 766 -17 894 -6 50 -27 223 -46 385 -70 592 -67 574 -171 900
-109 339 -213 593 -266 650 -28 30 -88 120 -88 132 0 5 8 11 18 14 95 30 125
70 120 164 -7 126 -74 217 -189 253 -17 6 -17 5 7 177 15 107 20 130 28 130 2
0 68 -7 146 -15z m-390 -119 c0 -68 3 -131 6 -139 4 -11 -13 -28 -53 -55 -89
-61 -124 -102 -137 -164 -12 -50 -14 -53 -47 -56 -78 -6 -209 -36 -307 -68
-151 -51 -410 -184 -576 -297 -123 -83 -321 -312 -415 -479 -40 -71 -98 -225
-122 -323 -10 -44 -24 -134 -30 -200 -5 -66 -17 -147 -26 -180 -16 -65 -14
-133 12 -325 7 -58 16 -144 20 -192 3 -49 13 -110 21 -138 14 -48 13 -70 -5
-70 -19 0 -33 65 -42 190 -4 74 -15 180 -24 235 -20 136 -20 468 1 617 26 190
97 460 130 499 8 8 14 22 14 29 0 20 95 194 156 285 109 164 321 410 409 474
127 93 365 227 526 297 152 65 456 183 477 183 9 1 12 -30 12 -123z m17 -242
c3 -9 1 -31 -5 -50 -9 -30 -8 -37 11 -56 30 -28 80 -48 121 -48 60 0 62 3 58
85 -3 54 -1 75 8 75 12 0 64 -33 88 -57 23 -23 52 -98 52 -138 0 -55 -19 -86
-60 -101 -69 -25 -88 -19 -156 46 -60 58 -64 60 -116 61 -29 0 -73 6 -98 12
-38 10 -45 16 -48 39 -5 38 11 62 71 107 59 45 65 47 74 25z m-45 -230 l45 -6
7 -202 c20 -627 26 -1141 16 -1466 -5 -190 -13 -534 -17 -766 l-6 -421 -82
-26 c-45 -15 -86 -27 -92 -27 -7 0 -12 100 -16 303 -8 420 -43 683 -130 957
l-33 105 -35 -1 c-21 -1 -63 -18 -109 -46 -102 -61 -453 -248 -465 -248 -2 0
-1 16 2 35 8 50 -17 75 -74 75 -132 0 -166 -98 -46 -133 47 -14 47 -14 23 -27
-14 -7 -50 -27 -80 -43 -138 -76 -446 -227 -462 -227 -10 0 -18 6 -18 13 0 6
-7 55 -16 107 -47 298 -52 412 -28 614 42 360 93 521 232 731 154 232 237 303
596 510 138 80 187 103 270 125 93 26 214 54 276 63 42 7 195 7 242 1z m203
-137 c79 -82 88 -92 132 -162 64 -102 130 -249 192 -428 36 -102 38 -116 14
-95 -37 33 -60 31 -102 -8 -23 -20 -41 -46 -41 -57 0 -26 28 -57 50 -57 14 0
17 -9 16 -46 -2 -74 30 -83 137 -39 13 6 20 0 31 -26 8 -19 17 -50 20 -69 6
-32 6 -34 -8 -16 -20 25 -64 14 -72 -19 -9 -38 3 -48 53 -42 54 6 54 5 83
-156 28 -161 34 -209 80 -642 35 -330 41 -413 37 -540 -2 -82 0 -239 5 -347
10 -211 -2 -358 -37 -441 l-16 -38 -32 19 c-18 11 -49 29 -69 41 -35 19 -204
141 -251 180 -98 84 -183 152 -249 199 l-77 56 6 550 c3 303 4 935 3 1404 -2
718 0 852 11 852 8 0 46 -33 84 -73z m-536 -1521 c69 -111 48 -642 -40 -1004
-38 -160 -107 -310 -209 -462 -118 -176 -238 -346 -254 -360 -10 -8 -38 -36
-64 -62 -26 -26 -69 -62 -97 -80 -27 -19 -75 -51 -105 -73 -78 -55 -159 -108
-200 -131 -19 -10 -37 -22 -40 -25 -12 -15 -242 -120 -314 -144 -131 -44 -373
-102 -496 -121 -132 -19 -347 -14 -463 10 -85 19 -380 119 -472 161 -42 19
-100 58 -145 97 -41 36 -89 72 -106 81 -50 26 -244 249 -284 328 l-20 37 33
19 c17 11 39 22 47 25 9 3 85 50 170 103 404 255 512 317 945 545 55 29 161
85 235 125 74 40 164 88 200 107 36 20 108 61 160 93 52 31 145 81 207 110 63
30 139 69 171 88 31 19 127 70 212 113 85 43 220 112 300 154 80 42 204 108
275 145 72 38 166 88 210 111 98 53 117 54 144 10z m127 -643 c21 -200 24
-550 5 -668 -17 -113 -47 -206 -97 -308 -39 -79 -130 -235 -144 -247 -3 -3
-40 -58 -80 -122 -41 -65 -80 -118 -86 -118 -5 0 -58 -45 -117 -100 -59 -55
-114 -100 -124 -100 -14 0 -79 -42 -93 -61 -10 -13 -117 -77 -195 -117 -258
-131 -504 -214 -735 -248 -199 -29 -503 -10 -733 46 -310 75 -499 198 -786
513 -154 169 -183 219 -55 97 54 -52 101 -98 104 -101 13 -15 160 -118 200
-141 58 -33 257 -108 390 -147 309 -90 598 -81 970 31 249 75 393 145 695 340
228 147 393 340 633 742 67 112 84 155 126 324 46 184 65 314 87 596 3 35 19
-66 35 -211z"/>
<path d="M3343 4373 c-40 -61 -11 -192 54 -242 37 -30 54 -23 81 29 27 53 28
92 3 145 -42 91 -103 121 -138 68z"/>
<path d="M3581 4351 c-44 -44 -29 -153 25 -181 22 -12 27 -11 55 16 28 26 30
33 25 76 -11 97 -58 136 -105 89z"/>
<path d="M3202 4208 c-16 -16 -15 -63 3 -98 16 -30 64 -64 107 -75 24 -6 27
-4 33 27 17 89 -91 198 -143 146z"/>
<path d="M2922 3760 c-6 -11 -12 -28 -12 -39 0 -42 97 -86 175 -79 40 3 40 3
40 46 l0 44 -59 24 c-74 30 -126 32 -144 4z"/>
<path d="M2897 3633 c-4 -3 -7 -21 -7 -38 0 -47 38 -78 98 -79 66 -1 82 7 82
44 0 27 -6 33 -56 55 -55 24 -104 32 -117 18z"/>
<path d="M2883 3493 c-16 -6 -17 -37 -2 -65 13 -24 67 -48 108 -48 16 0 39 9
52 19 21 17 22 21 10 44 -24 44 -116 72 -168 50z"/>
<path d="M4260 4304 c-20 -23 -16 -97 6 -135 26 -44 70 -61 90 -34 25 33 11
136 -22 170 -20 19 -58 19 -74 -1z"/>
<path d="M4610 3263 c-23 -8 -50 -45 -50 -70 0 -12 7 -29 16 -38 15 -15 15
-18 -5 -36 -27 -25 -27 -40 2 -66 28 -27 89 -43 124 -34 40 11 42 44 3 82 -31
31 -31 32 -10 46 25 18 25 34 0 83 -20 40 -40 48 -80 33z"/>
<path d="M4506 2488 c-43 -61 4 -168 73 -168 37 0 41 138 5 175 -22 22 -60 19
-78 -7z"/>
<path d="M4387 2412 c-36 -39 -30 -116 11 -164 24 -29 39 -21 56 29 29 85 17
153 -28 153 -13 0 -30 -8 -39 -18z"/>
<path d="M2870 2661 c-70 -69 -1 -143 90 -96 63 32 46 117 -23 123 -30 3 -43
-2 -67 -27z"/>
<path d="M2846 2371 c-24 -27 -17 -51 23 -78 36 -25 80 -29 112 -13 28 15 26
74 -3 94 -33 23 -110 21 -132 -3z"/>
<path d="M2744 2140 c-32 -13 -37 -26 -24 -65 14 -43 44 -65 87 -65 61 0 65
73 7 119 -29 23 -38 24 -70 11z"/>
<path d="M2617 2060 c-19 -15 -20 -21 -9 -44 11 -24 0 -38 -13 -16 -9 15 -71
12 -85 -5 -27 -33 41 -175 84 -175 41 0 60 23 54 66 -4 21 -9 48 -14 59 -6 16
-2 15 23 -7 33 -32 87 -38 97 -12 13 33 5 62 -29 101 -40 47 -76 58 -108 33z"/>
<path d="M1343 1855 c-62 -49 -66 -135 -8 -149 60 -15 119 51 113 127 -3 40
-5 42 -38 45 -25 2 -44 -5 -67 -23z"/>
<path d="M2296 1808 c-9 -12 -16 -29 -16 -37 0 -12 -3 -12 -12 -3 -23 23 -66
14 -90 -19 -18 -24 -25 -27 -33 -16 -34 45 -84 15 -92 -56 -4 -37 -2 -52 12
-67 36 -39 67 -24 90 45 6 18 9 16 23 -15 14 -28 24 -36 49 -38 36 -4 47 10
58 71 l7 38 22 -20 c47 -44 94 -12 82 54 -6 31 -54 85 -76 85 -5 0 -16 -10
-24 -22z"/>
<path d="M1495 1788 c-73 -57 -60 -165 18 -144 27 7 70 43 85 73 39 73 -35
124 -103 71z"/>
<path d="M1671 1749 c-27 -25 -51 -78 -51 -111 0 -38 28 -70 57 -66 43 5 67
49 71 128 l4 70 -29 0 c-16 0 -40 -10 -52 -21z"/>
<path d="M1807 1733 c-13 -24 -28 -117 -22 -143 6 -26 11 -30 39 -30 48 0 71
30 71 95 0 29 -6 59 -14 68 -14 17 -66 23 -74 10z"/>
</g>
</svg>
