<?xml version="1.0" standalone="no"?>
<!DOCTYPE svg PUBLIC "-//W3C//DTD SVG 20010904//EN"
 "http://www.w3.org/TR/2001/REC-SVG-20010904/DTD/svg10.dtd">
<svg version="1.0" xmlns="http://www.w3.org/2000/svg"
 width="800.000000pt" height="718.000000pt" viewBox="0 0 800.000000 718.000000"
 preserveAspectRatio="xMidYMid meet">
<metadata>
Created by potrace 1.16, written by Peter Selinger 2001-2019
</metadata>
<g transform="translate(0.000000,718.000000) scale(0.100000,-0.100000)"
fill="#000000" stroke="none">
<path d="M1300 6887 c0 -21 103 -341 129 -402 5 -11 17 -40 26 -65 10 -25 26
-63 35 -85 11 -25 22 -93 29 -180 16 -178 37 -337 55 -401 8 -27 21 -74 29
-104 9 -30 31 -95 50 -145 29 -79 47 -136 86 -285 8 -31 9 -32 10 -8 2 45 -26
155 -83 337 -62 192 -80 263 -95 366 -18 120 -33 276 -28 281 3 3 36 -75 75
-173 98 -251 164 -450 177 -541 4 -24 9 -41 12 -39 6 6 -13 117 -33 192 -47
174 -90 293 -244 675 -94 232 -162 421 -155 429 3 2 22 -15 43 -39 20 -25 71
-79 112 -121 157 -162 207 -215 229 -247 13 -18 25 -31 28 -28 11 11 -88 128
-292 346 -28 30 -66 75 -85 100 -19 25 -38 47 -41 50 -3 3 -16 24 -29 48 -13
23 -27 42 -32 42 -4 0 -8 -2 -8 -3z"/>
<path d="M2569 6672 c-159 -169 -243 -304 -309 -490 -31 -89 -20 -87 13 2 15
40 50 110 77 156 28 46 50 86 50 90 0 4 7 14 16 21 9 8 27 30 40 49 29 45 94
114 100 107 3 -3 -3 -20 -13 -39 -25 -47 -25 -317 0 -433 35 -162 57 -323 58
-420 1 -92 2 -96 11 -50 12 69 2 203 -29 380 -22 120 -27 182 -28 310 0 176
11 222 87 368 18 35 -11 15 -73 -51z"/>
<path d="M3610 6671 c0 -12 -103 -140 -162 -201 -44 -46 -73 -72 -168 -149
-144 -117 -333 -308 -446 -449 -91 -115 -267 -373 -278 -409 -4 -11 -13 -27
-21 -33 -8 -7 -15 -17 -15 -23 0 -15 17 8 101 138 66 101 163 234 215 295 188
220 302 333 511 503 45 36 107 92 138 123 30 31 58 54 60 52 5 -5 -79 -219
-136 -348 -44 -101 -214 -432 -283 -554 -31 -54 -56 -100 -56 -102 0 -3 -11
-21 -23 -42 -21 -32 -191 -334 -226 -399 -6 -13 -8 -23 -4 -23 4 0 21 24 37
53 47 84 156 268 192 324 19 29 34 55 34 58 0 2 37 69 81 147 183 318 324 618
420 891 52 148 54 157 39 157 -5 0 -10 -4 -10 -9z"/>
<path d="M1705 6526 c35 -58 74 -136 88 -173 102 -282 126 -403 128 -638 1
-119 4 -146 9 -105 13 92 11 259 -5 370 -26 181 -73 331 -157 493 -22 44 -38
81 -35 83 7 7 98 -66 158 -125 59 -60 136 -170 168 -242 11 -24 20 -37 20 -28
1 20 -41 107 -86 179 -68 107 -249 266 -326 285 -24 7 -22 0 38 -99z"/>
<path d="M4996 6185 c-16 -202 26 -346 205 -702 209 -415 261 -569 293 -858
15 -135 8 -346 -14 -424 -5 -20 -9 -43 -9 -51 1 -8 10 19 21 60 29 110 35 332
14 485 -37 270 -94 431 -283 805 -109 216 -171 366 -188 463 -8 41 9 53 20 15
20 -65 112 -186 258 -338 133 -139 244 -290 324 -440 38 -72 123 -264 123
-279 0 -6 14 -50 31 -99 16 -48 34 -105 39 -127 9 -37 9 -36 4 12 -2 29 -22
106 -44 170 -107 324 -239 549 -468 792 -213 227 -254 297 -297 501 l-22 105
-7 -90z"/>
<path d="M2151 6220 c-1 -3 -6 -44 -11 -90 -6 -47 -14 -96 -19 -110 -5 -14
-17 -54 -27 -90 -10 -36 -24 -76 -31 -90 -7 -14 -13 -28 -13 -32 0 -4 -12 -33
-26 -65 -14 -32 -34 -78 -45 -103 -43 -97 -54 -118 -60 -108 -3 5 -9 -9 -13
-32 -3 -23 -22 -81 -41 -130 -43 -107 -75 -231 -74 -279 1 -33 2 -31 14 19 34
142 74 253 148 410 117 249 188 432 203 528 12 75 27 50 64 -107 25 -103 38
-217 49 -416 l9 -160 -3 225 c-2 184 -7 245 -25 333 -12 60 -20 117 -17 127 3
12 0 17 -8 14 -8 -4 -16 7 -20 27 -4 19 -11 40 -15 49 -4 8 -15 31 -23 50 -9
19 -16 33 -16 30z"/>
<path d="M976 5988 c113 -117 149 -158 184 -208 13 -19 27 -37 30 -40 12 -11
53 -74 109 -167 49 -83 84 -150 180 -353 l11 -25 -5 29 c-6 31 -24 73 -88 211
-69 146 -202 358 -275 435 -13 14 -33 38 -45 54 l-21 29 33 -19 c105 -62 352
-318 474 -492 20 -28 37 -55 37 -58 0 -3 9 -19 20 -34 11 -16 40 -66 65 -112
60 -111 57 -90 -4 37 -152 310 -444 623 -733 783 -31 18 -60 32 -64 32 -4 0
37 -46 92 -102z"/>
<path d="M4515 5973 c-7 -82 6 -213 24 -238 4 -5 16 -32 26 -60 32 -86 93
-191 231 -397 119 -178 206 -315 256 -406 43 -77 148 -290 148 -299 0 -10
-160 157 -208 217 -21 25 -40 47 -43 50 -10 8 -113 183 -134 228 -11 23 -23
42 -26 42 -12 0 13 -135 38 -203 33 -91 78 -175 166 -305 38 -57 67 -106 64
-109 -3 -3 -21 4 -39 15 -100 61 -323 82 -449 42 -63 -19 -139 -63 -139 -79 0
-4 51 -8 113 -8 120 0 164 -8 267 -50 98 -40 232 -151 272 -226 8 -15 13 -18
16 -8 2 7 1 16 -4 20 -5 3 -22 25 -37 48 -97 142 -292 242 -479 244 -32 1 -58
5 -58 10 0 15 103 40 191 46 142 10 306 -32 372 -95 32 -30 97 -151 121 -228
9 -27 20 -76 25 -109 6 -42 9 -49 10 -25 1 62 -28 173 -70 260 -37 78 -105
198 -119 210 -3 3 -31 46 -62 95 -111 178 -194 376 -93 221 25 -38 97 -121
160 -185 129 -130 160 -171 182 -239 8 -26 19 -56 23 -67 5 -11 11 -29 13 -40
3 -11 3 0 1 25 -6 70 -80 273 -149 412 -74 148 -147 270 -296 493 -130 195
-188 294 -234 403 -42 95 -44 141 -5 77 14 -22 47 -65 74 -95 27 -30 63 -71
80 -90 17 -19 47 -55 66 -80 19 -25 37 -47 40 -50 3 -3 30 -34 60 -70 30 -35
63 -73 74 -85 50 -55 136 -165 136 -173 0 -6 3 -12 8 -14 18 -8 164 -246 177
-290 11 -35 46 -101 51 -96 6 7 -39 112 -82 193 -77 145 -156 257 -314 445
-58 69 -121 145 -140 169 -19 24 -40 48 -45 55 -176 190 -235 299 -235 434 0
83 -18 60 -25 -35z"/>
<path d="M5638 5910 c-57 -120 -87 -236 -93 -362 l-4 -93 9 75 c4 41 13 93 18
115 21 82 40 141 58 180 l18 40 8 -90 c17 -194 60 -327 200 -614 99 -202 132
-284 154 -376 l14 -60 -5 62 c-6 75 -32 154 -98 293 -192 407 -226 513 -245
775 l-8 110 -26 -55z"/>
<path d="M3845 5903 c-47 -11 -211 -66 -261 -88 -130 -58 -354 -198 -339 -213
3 -4 9 -2 13 4 7 11 181 116 242 146 88 44 278 113 286 105 2 -2 -49 -53 -113
-113 -65 -60 -195 -187 -289 -282 -458 -462 -682 -692 -674 -692 12 0 206 186
540 520 316 315 497 490 573 555 26 22 49 45 52 52 5 13 3 14 -30 6z"/>
<path d="M1187 5443 c-18 -30 103 -413 153 -483 11 -15 20 -32 20 -36 0 -5 16
-33 36 -62 20 -29 34 -55 31 -59 -9 -8 -42 32 -78 95 -17 28 -35 52 -39 52
-12 0 53 -186 96 -276 44 -92 115 -209 167 -277 52 -68 46 -43 -9 40 -53 80
-184 343 -170 343 2 0 23 -19 47 -42 63 -62 91 -84 214 -173 61 -43 133 -98
161 -122 66 -55 80 -56 23 0 -63 60 -91 83 -200 164 -52 40 -114 92 -136 116
-22 24 -48 47 -57 50 -9 4 -16 12 -16 18 0 8 5 7 17 -2 13 -10 11 -5 -5 21
-44 68 -130 256 -161 349 -34 104 -38 126 -15 96 68 -92 155 -181 307 -317 97
-87 210 -191 249 -231 39 -40 65 -63 57 -52 -8 11 -21 29 -29 40 -23 31 -190
196 -332 328 -136 126 -237 250 -292 360 -19 37 -37 64 -39 60z"/>
<path d="M3520 5199 c-36 -33 -74 -61 -85 -64 -11 -2 -58 -12 -105 -21 -98
-18 -220 -51 -229 -60 -3 -4 4 -4 15 0 81 25 286 54 269 39 -25 -23 -164 -113
-174 -113 -6 0 -11 -4 -11 -9 0 -5 -12 -15 -27 -23 -39 -19 -281 -175 -293
-188 -3 -3 -33 -26 -67 -51 -64 -47 -153 -125 -153 -135 0 -3 33 21 73 53 39
32 86 68 103 80 68 47 211 141 243 159 18 10 41 24 50 29 9 6 45 28 81 49 36
22 67 43 70 46 3 4 25 20 50 35 58 36 183 127 192 139 4 6 10 7 14 3 9 -8 -43
-120 -84 -182 -82 -124 -238 -276 -437 -426 -60 -45 -112 -85 -115 -88 -3 -3
-27 -24 -55 -46 -52 -41 -173 -160 -212 -208 -46 -55 -21 -38 56 41 94 94 202
184 286 237 33 21 69 48 80 59 11 12 38 35 59 51 93 71 135 108 226 196 118
114 361 197 629 215 114 7 114 9 5 48 -101 35 -186 54 -298 66 -55 6 -101 12
-103 14 -2 2 5 29 16 60 13 38 16 56 8 56 -7 0 -41 -28 -77 -61z m185 -99 c89
-13 215 -43 215 -52 0 -4 -21 -10 -47 -13 -150 -21 -334 -81 -414 -136 -41
-29 -41 -11 0 50 21 31 51 80 66 109 26 50 29 52 69 52 22 0 73 -5 111 -10z"/>
<path d="M660 5226 c0 -2 35 -20 78 -41 190 -90 407 -272 560 -470 35 -44 66
-84 70 -90 4 -5 22 -30 40 -55 17 -25 41 -56 53 -70 20 -24 20 -23 -2 15 -97
172 -284 398 -424 512 -89 73 -114 90 -205 143 l-35 20 40 -6 c102 -14 204
-37 254 -58 92 -37 121 -38 45 -2 -84 41 -203 73 -339 92 -106 14 -135 16
-135 10z"/>
<path d="M2155 5132 c-23 -17 -92 -178 -130 -303 -48 -160 -77 -438 -58 -559
8 -47 9 -35 10 80 1 74 9 180 18 235 16 102 52 252 65 270 3 6 12 30 19 55 14
49 56 136 69 144 5 3 14 -17 21 -44 15 -60 23 -66 56 -44 29 19 87 21 128 5
34 -13 70 -91 94 -205 19 -89 25 -431 10 -536 -5 -30 -6 -52 -3 -49 12 12 34
218 35 334 4 276 -53 461 -171 558 -66 54 -136 80 -163 59z"/>
<path d="M7240 4971 c-59 -24 -264 -72 -470 -111 -291 -54 -455 -112 -588
-207 -69 -49 -180 -159 -229 -228 -48 -66 -115 -185 -111 -197 2 -6 14 8 26
33 31 62 60 111 69 118 5 3 21 24 37 46 16 22 60 71 99 108 181 176 348 243
787 317 103 18 265 54 378 86 51 15 7 -73 -83 -161 -68 -68 -87 -79 -262 -164
-320 -155 -360 -178 -493 -287 -121 -100 -265 -263 -246 -281 3 -3 6 -1 6 5 0
27 178 207 285 287 39 29 89 62 111 73 23 12 48 27 56 35 14 15 95 54 273 132
218 97 351 208 400 335 14 36 25 69 25 73 0 11 -21 7 -70 -12z"/>
<path d="M7335 4714 c-126 -30 -249 -74 -438 -156 -76 -33 -136 -63 -133 -65
2 -2 24 4 48 15 23 11 66 27 93 37 28 10 55 22 60 25 16 12 244 87 328 109 80
21 227 39 227 28 0 -4 -22 -18 -49 -32 -27 -13 -78 -44 -113 -69 -122 -85
-306 -177 -508 -254 -298 -114 -458 -202 -572 -315 -62 -61 -154 -185 -144
-194 2 -3 13 8 23 24 28 43 52 72 123 145 65 68 108 93 235 136 164 56 210 64
465 72 135 4 246 8 248 9 25 11 -182 121 -228 121 -16 0 -32 5 -35 10 -3 6 0
10 8 10 27 0 301 145 397 210 101 68 171 100 220 100 44 0 44 16 0 34 -50 20
-172 20 -255 0z m-257 -410 c39 -19 72 -39 72 -45 0 -5 -68 -9 -165 -9 -185 0
-261 -12 -417 -65 -54 -18 -98 -31 -98 -28 0 9 207 101 315 141 61 22 117 43
125 46 30 11 96 -5 168 -40z"/>
<path d="M2153 4648 c-103 -170 -158 -401 -134 -559 7 -40 17 -78 22 -84 7 -7
8 0 2 20 -16 59 -7 245 16 330 12 44 25 89 30 100 47 107 81 175 88 175 4 0
32 -67 62 -148 29 -81 69 -190 88 -242 41 -111 68 -213 78 -290 9 -71 26 -102
19 -35 -12 114 -39 228 -84 360 -27 77 -70 204 -97 282 -26 78 -50 143 -53
143 -3 0 -20 -24 -37 -52z"/>
<path d="M3310 4619 c-92 -15 -193 -44 -198 -58 -3 -10 0 -11 16 -2 48 26 190
45 337 45 233 1 314 -20 143 -38 -172 -19 -436 -130 -628 -265 -103 -72 -251
-194 -305 -252 -27 -30 -36 -42 -20 -28 65 57 248 200 303 237 304 206 555
293 840 293 67 0 122 1 122 4 0 10 -142 47 -230 60 -103 16 -292 18 -380 4z"/>
<path d="M1051 4478 c14 -13 61 -51 105 -85 95 -74 238 -222 318 -328 9 -11
16 -16 16 -12 1 23 -120 175 -211 265 -56 56 -97 102 -92 102 10 0 175 -65
201 -80 9 -5 42 -21 72 -35 46 -22 51 -23 30 -6 -61 50 -338 175 -435 196
l-30 6 26 -23z"/>
<path d="M1440 4392 c0 -4 20 -28 45 -52 25 -24 45 -49 45 -55 0 -6 13 -24 30
-40 39 -37 148 -217 206 -339 25 -54 48 -95 51 -93 16 17 -149 340 -228 444
-22 30 -39 57 -36 60 7 6 165 -84 187 -107 3 -3 25 -21 50 -40 145 -111 264
-237 348 -368 17 -28 21 -31 16 -12 -14 52 -93 156 -194 260 -103 105 -309
270 -338 270 -7 0 -26 8 -40 19 -15 10 -45 24 -67 31 -22 7 -44 16 -49 21 -12
11 -26 12 -26 1z"/>
<path d="M805 4291 c-28 -6 -29 -8 -10 -18 11 -6 84 -38 162 -72 79 -33 151
-65 160 -71 10 -5 43 -20 73 -33 55 -24 266 -184 256 -195 -3 -3 -23 2 -43 11
-85 36 -208 60 -398 77 -60 5 -126 14 -145 20 -50 14 -71 13 -64 -5 4 -8 12
-15 19 -15 8 0 20 -6 27 -12 19 -17 27 -23 228 -137 250 -143 263 -150 347
-209 41 -29 77 -51 80 -49 15 16 -160 131 -501 331 -38 22 -64 42 -58 44 25 8
263 -76 391 -138 55 -27 170 -101 241 -154 30 -23 62 -46 70 -50 28 -16 -36
41 -111 98 -41 31 -83 63 -94 71 -29 22 -253 131 -300 145 -47 15 -73 34 -35
26 14 -3 57 -10 95 -17 112 -19 267 -59 297 -77 36 -21 166 -171 223 -258 48
-74 58 -78 24 -11 -54 109 -161 240 -273 335 -21 18 -36 35 -34 37 4 4 63 -31
132 -77 33 -23 151 -111 156 -117 20 -23 91 -81 75 -61 -30 36 -91 95 -143
137 -26 21 -49 40 -52 43 -8 9 -141 95 -205 131 -79 46 -258 136 -316 159 -26
10 -66 28 -90 38 -24 11 -59 26 -76 33 -47 20 -41 29 17 29 66 0 174 -23 280
-60 47 -16 76 -22 66 -14 -11 7 -24 14 -29 14 -4 0 -32 11 -60 24 -109 49
-279 70 -382 47z"/>
<path d="M4820 4239 c-140 -15 -260 -119 -260 -223 0 -20 5 -36 10 -36 6 0 10
6 10 13 1 29 65 87 112 99 82 21 227 -17 308 -82 l25 -20 -75 0 c-71 0 -120
-10 -290 -60 -112 -33 -191 -50 -232 -50 -46 0 -49 -14 -8 -35 23 -12 72 -15
252 -15 123 0 241 -5 263 -10 52 -12 57 -5 8 11 -21 7 -124 15 -233 18 -167 5
-191 8 -167 19 16 6 34 12 41 12 7 0 46 11 87 25 202 69 330 84 394 46 19 -11
35 -16 35 -11 0 18 -108 101 -175 135 -117 57 -203 67 -275 31 -72 -35 -1 43
75 83 46 24 60 26 167 26 73 0 109 3 95 8 -41 16 -112 23 -167 16z"/>
<path d="M2910 4150 c-25 -5 -8 -8 61 -9 140 -2 281 -38 437 -114 83 -40 89
-52 21 -44 -231 28 -304 31 -476 20 -98 -6 -189 -16 -203 -22 -20 -8 -13 -9
30 -3 80 10 218 6 270 -8 53 -14 164 -65 192 -89 138 -114 213 -243 243 -419
14 -79 22 -268 12 -278 -2 -2 -22 33 -45 78 -84 172 -169 295 -281 408 -47 47
-108 102 -136 120 -60 41 -200 100 -235 99 -20 -1 -21 -2 -5 -6 33 -7 127 -46
165 -67 90 -51 249 -198 283 -261 10 -19 9 -19 -14 -3 -103 73 -249 113 -369
103 -158 -13 -374 -92 -525 -191 -42 -27 -19 -28 27 -1 73 43 249 113 343 137
66 17 119 23 200 24 134 0 208 -22 318 -93 61 -40 81 -60 119 -122 53 -86 83
-194 93 -334 l5 -90 -27 35 c-33 41 -167 176 -203 205 -199 155 -487 235 -693
192 -55 -11 -51 -12 90 -12 126 0 160 -4 228 -24 102 -30 191 -70 232 -105 52
-44 163 -226 163 -266 0 -7 -21 6 -47 28 -46 38 -107 73 -185 105 -52 22 -48
5 4 -19 133 -60 238 -158 303 -284 30 -58 28 -17 -4 74 -40 112 -106 241 -149
289 -19 20 -33 40 -30 43 10 9 127 -87 197 -163 39 -41 86 -100 103 -129 18
-30 36 -54 40 -54 8 0 4 69 -14 218 -6 51 -8 95 -5 98 3 3 18 -28 34 -70 15
-42 33 -74 38 -73 14 5 18 224 6 339 -11 103 -50 224 -93 293 -39 63 -40 65
-31 65 13 0 168 -159 210 -215 45 -59 107 -174 100 -182 -3 -3 -21 6 -39 20
-55 41 -88 53 -43 15 21 -18 62 -57 89 -85 27 -29 51 -51 53 -49 10 9 -51 162
-89 226 -55 92 -247 289 -282 290 -5 0 -35 22 -65 48 -82 71 -116 92 -195 124
l-71 29 102 -5 c55 -3 174 -17 263 -31 90 -14 168 -24 174 -22 15 5 -120 91
-207 131 -167 78 -363 112 -487 86z"/>
<path d="M6520 3945 c167 -26 279 -82 378 -190 116 -127 200 -331 227 -555 9
-70 0 -62 -61 60 -26 52 -60 114 -76 137 -15 23 -28 44 -28 47 0 6 -58 94 -75
113 -89 105 -117 135 -155 166 -25 21 -70 50 -100 65 -47 23 -67 27 -135 26
-88 0 -141 -20 -205 -75 -33 -28 -32 -28 28 7 55 32 68 36 107 31 80 -11 212
-95 303 -191 29 -31 55 -56 58 -56 10 0 2 17 -21 45 -95 112 -151 155 -265
204 l-45 20 36 0 c37 1 134 -24 153 -40 6 -5 34 -26 61 -47 123 -94 222 -242
395 -585 40 -79 66 -122 69 -111 11 57 -37 331 -81 459 -65 190 -191 349 -330
417 -75 37 -201 68 -267 67 -55 -1 -54 -1 29 -14z"/>
<path d="M4760 3781 c-30 -9 -64 -23 -75 -30 -19 -12 -18 -12 5 -6 217 52 300
40 400 -57 52 -50 93 -130 120 -231 10 -40 19 -60 19 -45 1 38 -27 156 -46
192 -43 83 -128 170 -183 186 -54 15 -178 11 -240 -9z"/>
<path d="M2650 3741 c-98 -24 -152 -44 -214 -82 -63 -39 -126 -91 -126 -104 0
-7 3 -7 8 0 4 6 25 22 48 37 229 148 490 177 703 77 51 -23 61 -26 47 -10 -44
48 -224 101 -341 100 -27 -1 -84 -9 -125 -18z"/>
<path d="M4685 3720 c-97 -8 -192 -47 -235 -97 -17 -18 -30 -38 -30 -43 0 -4
26 5 58 21 172 86 423 56 546 -65 45 -45 73 -83 101 -136 10 -19 20 -30 22
-23 7 19 -75 149 -118 187 -81 74 -188 110 -326 111 -51 0 -89 3 -84 8 13 13
183 29 246 24 34 -3 51 -2 40 2 -33 13 -135 18 -220 11z"/>
<path d="M6367 3610 c-32 -16 -70 -44 -85 -61 -48 -57 -46 -65 4 -17 91 87
207 112 310 66 160 -70 313 -221 367 -362 23 -62 48 -176 41 -188 -3 -5 -27
22 -53 59 -89 127 -253 258 -425 339 -94 45 -158 54 -206 29 -41 -21 -47 -27
-88 -84 -48 -66 -39 -72 11 -8 54 72 89 91 153 85 55 -5 179 -63 252 -118 49
-37 134 -155 146 -202 8 -35 3 -35 -43 1 -147 117 -361 172 -464 120 -50 -26
-120 -79 -113 -87 3 -2 20 6 38 20 52 39 91 56 145 63 109 15 286 -61 436
-187 l32 -27 3 32 c3 36 -26 114 -58 155 -34 43 -13 37 42 -13 69 -62 142
-161 185 -252 19 -40 37 -73 40 -73 13 0 -7 210 -27 279 -33 117 -83 198 -177
287 -18 18 -33 37 -33 43 0 6 -5 11 -11 11 -7 0 -41 18 -76 41 -100 63 -146
79 -221 79 -54 -1 -79 -7 -125 -30z"/>
<path d="M1250 3567 c-74 -17 -182 -73 -222 -115 l-33 -35 30 6 c17 4 72 12
123 19 91 12 167 5 322 -28 17 -3 14 0 -10 11 -63 29 -153 45 -260 45 l-105 0
30 20 c60 40 183 72 282 73 62 0 97 -4 108 -13 20 -16 32 -6 14 12 -19 18
-208 21 -279 5z"/>
<path d="M1785 3476 c-52 -24 -155 -149 -155 -188 0 -22 -5 -22 72 -2 87 23
258 23 322 0 65 -22 72 -12 10 16 -39 18 -73 23 -163 26 -107 4 -112 5 -80 17
19 7 70 28 114 46 64 26 94 33 151 33 64 0 77 -3 132 -36 68 -40 76 -28 9 13
-118 74 -230 61 -462 -55 -27 -14 -52 -20 -53 -15 -4 10 41 75 68 97 8 7 38
24 65 37 39 20 45 25 25 25 -14 -1 -38 -7 -55 -14z"/>
<path d="M4831 3457 c-34 -11 -138 -103 -127 -114 3 -3 29 4 58 17 98 42 206
25 287 -47 l34 -31 -42 0 c-24 -1 -53 -8 -66 -16 -42 -27 -77 -83 -81 -128 -3
-38 -3 -40 5 -14 23 67 93 136 140 136 36 0 98 -45 151 -110 16 -20 19 -21 13
-5 -14 40 -43 80 -112 150 -87 90 -137 115 -228 115 -60 0 -65 1 -48 14 11 7
40 21 65 29 40 14 42 16 15 16 -16 -1 -45 -6 -64 -12z"/>
<path d="M1502 3303 c-45 -45 -79 -90 -100 -135 -34 -70 -77 -217 -66 -227 4
-3 9 0 11 7 10 27 98 129 122 140 27 13 110 14 150 3 28 -7 41 -31 18 -31 -8
0 -51 -27 -95 -60 -45 -34 -93 -62 -113 -66 -59 -10 -63 -12 -49 -29 15 -18 9
-46 -30 -140 -15 -38 -31 -88 -35 -110 -5 -32 5 -18 49 70 30 61 57 121 60
135 4 17 19 31 44 42 21 10 60 38 86 63 27 25 52 45 55 45 30 -1 110 -119 111
-163 0 -7 9 -30 20 -52 l20 -40 -6 55 c-9 83 -44 153 -94 186 l-42 28 36 18
c34 17 37 17 97 -2 35 -10 65 -17 67 -15 14 14 -215 105 -267 106 -35 1 -34 2
38 37 47 22 94 37 128 40 60 5 73 22 16 22 -82 0 -193 -46 -278 -115 -31 -26
-59 -44 -63 -41 -14 15 81 174 139 234 33 34 56 62 50 62 -6 0 -42 -30 -79
-67z"/>
<path d="M2720 3343 c1 -10 107 -83 121 -83 5 0 9 -4 9 -10 0 -5 5 -10 10 -10
6 0 20 -9 32 -20 27 -25 19 -25 -92 -1 -47 11 -121 27 -164 36 -99 21 -244 17
-294 -10 -46 -24 -34 -30 22 -11 54 19 153 21 228 5 59 -12 86 -29 47 -29 -38
0 -136 -38 -194 -74 -48 -32 -135 -108 -135 -121 0 -8 8 -6 22 8 72 69 208
139 317 163 72 16 80 16 166 -1 94 -19 205 -27 205 -15 0 3 -12 13 -27 21 -16
8 -75 43 -133 77 -133 80 -140 84 -140 75z"/>
<path d="M6330 3227 c-43 -12 -112 -54 -173 -104 -44 -36 -10 -27 43 11 83 59
124 76 189 76 105 0 165 -38 240 -150 89 -136 135 -182 200 -205 25 -8 46 -13
49 -10 2 2 -8 26 -24 52 -15 26 -39 70 -52 96 -13 26 -26 46 -28 44 -5 -5 35
-110 47 -122 5 -5 9 -15 9 -22 0 -39 -89 48 -163 160 -64 96 -108 140 -158
161 -52 22 -128 27 -179 13z"/>
<path d="M1827 3168 c-50 -13 -55 -30 -23 -78 14 -21 27 -44 28 -51 2 -6 15
-25 31 -43 15 -17 27 -36 27 -43 0 -7 4 -13 8 -13 5 0 14 -10 19 -22 30 -64
202 -275 318 -388 l87 -85 -45 95 c-78 165 -106 259 -107 360 0 25 -5 52 -10
60 -15 23 -12 -80 4 -170 8 -41 23 -102 35 -134 11 -33 19 -61 17 -63 -6 -6
-146 156 -206 239 -90 124 -193 282 -194 296 -1 20 39 31 154 41 l95 8 -100 1
c-55 0 -117 -5 -138 -10z"/>
<path d="M5050 3163 c-37 -26 -66 -62 -96 -121 -21 -41 -41 -63 -87 -93 -78
-52 -131 -79 -156 -79 -40 0 -51 -11 -51 -51 0 -22 -11 -87 -25 -145 -39 -166
-32 -181 17 -38 17 48 33 107 37 132 6 47 8 49 81 78 38 15 121 70 181 118 18
15 93 43 129 49 14 2 3 5 -24 6 l-49 1 19 21 c52 58 112 60 177 8 l39 -31 -16
31 c-17 32 -80 71 -116 71 -27 0 -58 -16 -94 -49 -28 -25 -28 -25 -16 -3 19
39 53 73 90 93 33 17 33 18 10 19 -14 0 -37 -8 -50 -17z"/>
<path d="M6270 3130 c19 -4 46 -12 60 -18 21 -9 16 -10 -26 -5 -41 4 -59 1
-100 -20 -46 -25 -195 -147 -177 -147 11 0 93 54 119 79 75 69 186 80 241 25
35 -34 43 -121 17 -182 -15 -36 -15 -37 4 -16 10 11 24 42 31 69 13 58 3 106
-30 142 -36 37 -16 36 23 -1 54 -53 81 -143 76 -254 -3 -48 -8 -95 -12 -104
-5 -11 -4 -18 2 -18 28 0 49 148 33 232 -29 146 -121 230 -251 227 l-45 -1 35
-8z"/>
<path d="M2525 3071 c-15 -7 -2 -10 48 -10 83 -1 183 -32 246 -78 2 -1 -7 -12
-22 -23 -40 -31 -66 -97 -73 -181 -3 -41 -1 -87 3 -103 7 -24 11 -11 21 72 14
125 34 171 84 195 l37 18 117 -62 c117 -62 193 -125 236 -194 24 -41 24 -59
-1 -45 -26 13 -62 12 -81 -3 -39 -30 -74 -167 -68 -262 l3 -50 8 40 c46 248
70 289 142 245 l34 -21 6 34 c8 40 -24 123 -49 133 -32 12 -17 30 22 27 l37
-4 -55 29 c-93 47 -190 116 -280 199 -14 13 -29 23 -35 23 -5 0 19 -27 53 -60
35 -33 67 -60 72 -60 4 0 10 -7 14 -15 3 -9 -39 8 -107 43 -156 81 -247 114
-326 118 -36 2 -75 0 -86 -5z"/>
<path d="M2217 3004 c-15 -26 -26 -48 -24 -50 1 -2 15 8 29 21 l26 24 38 -34
37 -34 -24 -33 c-31 -41 -55 -93 -64 -138 -5 -27 2 -18 28 35 45 92 78 125
127 125 61 0 129 -59 215 -184 60 -88 54 -49 -8 46 -85 132 -155 181 -235 163
-24 -5 -32 -2 -47 22 -10 15 -30 40 -44 56 l-26 27 -28 -46z"/>
<path d="M6326 2973 c7 -71 -1 -78 -34 -33 -33 44 -132 90 -132 61 0 -5 13
-11 29 -14 16 -4 44 -22 63 -41 37 -38 74 -103 65 -112 -3 -3 -34 11 -68 32
-58 36 -68 39 -143 40 -45 1 -101 7 -126 13 -55 13 -132 14 -110 2 8 -5 42
-14 75 -21 100 -19 159 -41 182 -66 12 -13 25 -24 28 -24 13 0 3 26 -22 52
-56 58 11 40 112 -31 33 -24 74 -49 92 -56 21 -9 38 -27 51 -57 11 -23 34 -59
52 -78 74 -82 105 -164 80 -211 -6 -10 -7 -19 -2 -19 14 0 32 48 32 85 0 37
-46 144 -68 158 -24 15 -62 86 -62 115 0 24 -5 30 -36 38 l-36 9 -2 97 c-1 65
-5 101 -14 110 -11 11 -12 2 -6 -49z"/>
<path d="M1880 2833 c-12 -15 -24 -40 -27 -55 -5 -24 -11 -28 -39 -29 -19 -1
-40 -2 -46 -3 -27 -2 -144 -127 -177 -186 -37 -71 -36 -93 2 -28 54 92 164
188 216 188 36 0 129 -103 173 -190 21 -41 38 -66 38 -56 0 32 -67 157 -110
206 -22 25 -40 52 -40 60 0 8 11 37 25 64 28 56 28 56 16 56 -5 0 -19 -12 -31
-27z"/>
<path d="M2603 2577 c-48 -64 -83 -167 -82 -241 1 -33 3 -52 5 -41 30 144 47
192 98 268 14 21 26 27 52 27 64 0 175 -76 242 -164 27 -36 29 -22 2 21 -27
45 -93 109 -148 144 -34 21 -58 29 -91 29 -42 -1 -49 -4 -78 -43z"/>
<path d="M3300 2613 c0 -6 5 -24 11 -40 6 -15 17 -52 25 -82 8 -30 24 -75 35
-100 17 -39 21 -67 21 -186 0 -136 0 -139 14 -95 8 25 19 89 24 143 10 98 10
98 -20 150 -16 29 -38 77 -49 107 -22 57 -61 124 -61 103z"/>
<path d="M1291 2589 c-25 -24 -21 -40 5 -18 15 12 19 11 33 -10 26 -39 50
-111 52 -155 1 -32 -7 -55 -35 -103 -32 -53 -86 -187 -86 -214 0 -5 5 -9 10
-9 6 0 10 6 10 13 0 6 13 46 30 87 47 116 141 230 190 230 9 0 34 -28 56 -62
43 -67 54 -89 91 -183 23 -58 23 -58 18 -19 -12 99 -108 279 -154 291 -24 6
-91 -22 -91 -39 0 -4 -4 -8 -8 -8 -4 0 -12 30 -18 68 -10 63 -52 152 -72 152
-5 0 -18 -9 -31 -21z"/>
<path d="M1214 2505 c-14 -25 -32 -64 -39 -88 -17 -55 -36 -98 -51 -117 -10
-11 -11 -40 -4 -116 11 -128 27 -192 57 -227 27 -33 28 -28 7 33 -18 53 -32
283 -17 302 5 7 14 31 20 53 34 124 46 162 59 183 8 12 10 22 5 22 -6 0 -22
-20 -37 -45z"/>
<path d="M2110 2493 c-62 -43 -122 -121 -165 -215 -33 -71 -31 -96 3 -32 53
100 132 197 179 222 64 35 144 -11 224 -128 13 -19 29 -41 36 -48 7 -7 13 -20
13 -28 0 -8 4 -14 9 -14 18 0 -32 100 -71 144 -10 11 -18 23 -18 27 0 4 -23
26 -51 48 -42 33 -60 41 -93 41 -23 0 -52 -8 -66 -17z"/>
<path d="M4559 2435 c-29 -16 -40 -40 -64 -135 -10 -40 -26 -75 -41 -91 -24
-26 -25 -28 -10 -56 8 -17 20 -61 27 -99 11 -67 35 -124 52 -124 4 0 3 8 -2
19 -6 10 -13 56 -17 102 -4 46 -11 92 -16 101 -6 13 -3 26 12 46 11 15 25 56
30 92 15 100 18 108 48 135 30 28 21 32 -19 10z"/>
<path d="M6549 2354 c12 -15 32 -62 46 -106 14 -43 32 -93 41 -109 13 -25 13
-36 4 -62 -7 -18 -16 -71 -20 -118 -4 -47 -15 -100 -24 -117 -9 -18 -12 -32
-7 -32 21 0 50 70 65 155 12 73 20 94 41 112 14 12 25 24 25 26 0 2 -15 20
-32 39 -18 20 -46 70 -62 112 -26 70 -65 126 -88 126 -5 0 0 -12 11 -26z"/>
<path d="M2500 2223 c-54 -23 -127 -126 -159 -225 -22 -68 -6 -75 18 -8 39
108 125 210 176 210 56 0 193 -100 239 -173 23 -37 32 -28 12 12 -55 106 -219
212 -286 184z"/>
<path d="M1796 2175 c-62 -33 -121 -100 -163 -184 -24 -46 -43 -91 -43 -100 0
-9 12 7 26 34 65 127 170 235 228 235 57 0 138 -101 196 -245 33 -80 38 -46 6
38 -24 64 -72 145 -118 199 -30 35 -91 45 -132 23z"/>
<path d="M3265 2039 c-55 -66 -98 -187 -93 -261 3 -42 3 -41 21 32 20 85 80
215 103 224 15 6 71 -26 86 -48 3 -5 9 -48 12 -95 4 -47 11 -109 17 -137 8
-36 8 -61 1 -85 -6 -19 -13 -83 -16 -144 -6 -102 -5 -107 8 -73 8 20 20 71 26
114 7 42 19 92 27 110 14 29 14 36 1 66 -9 18 -23 78 -32 133 -16 99 -17 101
-66 148 -26 26 -53 47 -58 47 -6 0 -22 -14 -37 -31z"/>
<path d="M2195 1899 c-28 -8 -115 -87 -115 -104 0 -4 -8 -19 -19 -33 -20 -30
-66 -140 -76 -187 -4 -16 16 17 45 75 57 116 123 200 170 220 26 11 37 11 63
-2 53 -25 124 -96 178 -177 55 -81 58 -62 6 27 -43 71 -113 146 -162 171 -43
23 -46 23 -90 10z"/>
<path d="M4482 1851 c-20 -27 -36 -68 -47 -119 -21 -98 -34 -140 -46 -147 -18
-12 -9 -46 15 -56 26 -12 37 -32 68 -124 11 -33 27 -67 36 -75 13 -13 14 -13
8 4 -3 10 -13 51 -22 90 -9 39 -26 89 -39 111 -19 35 -21 44 -10 70 7 17 18
71 25 120 7 50 21 105 31 124 28 49 16 50 -19 2z"/>
<path d="M1150 1840 c-16 -23 -25 -59 -35 -150 -8 -66 -21 -133 -30 -149 -14
-28 -13 -34 5 -82 12 -29 27 -82 35 -118 26 -117 29 -123 35 -56 3 33 2 65 -1
70 -3 6 -14 44 -24 86 -14 63 -15 80 -4 100 7 13 15 78 19 144 5 83 12 130 24
153 21 40 5 42 -24 2z"/>
<path d="M1572 1790 c-45 -33 -108 -112 -142 -180 -26 -50 -62 -151 -56 -157
2 -2 18 29 36 69 67 151 174 268 244 268 46 0 122 -87 186 -212 35 -68 50 -92
46 -69 -11 64 -87 203 -141 258 -45 47 -56 53 -92 53 -29 0 -52 -8 -81 -30z"/>
<path d="M6626 1753 c10 -21 10 -107 0 -208 -6 -59 -4 -75 11 -99 19 -29 18
-31 -4 -75 -12 -25 -29 -77 -38 -115 -8 -38 -22 -77 -30 -86 -25 -27 -17 -35
10 -10 14 13 36 57 50 101 27 81 57 129 80 129 7 0 18 7 25 15 10 12 10 15 -2
15 -8 0 -25 12 -39 26 -23 24 -24 32 -24 152 0 96 -4 133 -15 150 -17 26 -36
30 -24 5z"/>
<path d="M3055 1647 c-28 -29 -50 -68 -68 -116 -41 -109 -31 -118 17 -16 27
57 56 102 79 122 32 28 39 30 73 23 20 -5 52 -23 71 -42 35 -33 92 -114 107
-153 5 -12 10 -15 13 -8 9 23 -53 129 -105 181 -48 48 -57 52 -99 52 -42 0
-51 -4 -88 -43z"/>
<path d="M2562 1573 c-42 -20 -104 -91 -131 -149 -23 -47 -54 -177 -41 -169 4
3 11 20 14 39 19 100 128 250 191 262 64 12 163 -63 222 -169 30 -53 39 -56
21 -7 -26 77 -108 169 -174 196 -43 18 -61 17 -102 -3z"/>
<path d="M1943 1455 c-62 -53 -119 -170 -138 -280 -6 -39 -6 -39 8 -14 7 14
17 39 21 55 21 85 112 225 156 239 25 8 105 -32 179 -90 51 -40 70 -60 129
-134 10 -14 11 -13 5 4 -6 20 -35 64 -63 98 -49 60 -197 156 -241 157 -8 0
-34 -16 -56 -35z"/>
<path d="M1382 1399 c-60 -57 -109 -177 -117 -287 -4 -54 -3 -55 6 -17 32 132
64 208 110 259 46 53 58 57 105 36 86 -40 212 -183 229 -260 4 -17 11 -30 15
-30 13 0 -14 83 -43 133 -34 57 -130 153 -178 178 -55 27 -88 24 -127 -12z"/>
<path d="M3376 1298 c-19 -199 -25 -237 -48 -293 -14 -33 -29 -69 -33 -80 l-8
-20 -5 20 c-2 11 -16 39 -29 63 -23 39 -24 46 -13 90 15 61 64 163 96 202 30
35 19 40 -21 8 -34 -27 -81 -124 -90 -186 -6 -43 -10 -49 -57 -77 -100 -60
-203 -205 -213 -302 l-5 -48 15 48 c24 73 71 145 140 213 90 89 98 92 126 46
13 -20 27 -40 32 -43 12 -8 14 -54 4 -94 l-7 -30 25 30 c14 17 37 59 52 95 15
36 36 78 47 94 18 26 19 44 18 175 -2 159 -15 204 -26 89z"/>
<path d="M2911 1299 c-68 -27 -142 -168 -170 -323 -17 -93 -12 -89 24 22 55
169 104 252 166 276 34 14 44 14 72 3 37 -16 95 -77 129 -136 29 -51 43 -54
20 -3 -64 140 -150 198 -241 161z"/>
<path d="M4517 1207 c-3 -12 -9 -62 -12 -112 -8 -96 -16 -119 -49 -147 -21
-17 -21 -17 12 -29 32 -11 66 -53 106 -132 21 -40 78 -97 99 -97 6 0 1 7 -12
16 -13 9 -39 51 -58 93 -19 42 -45 92 -59 112 -23 33 -24 40 -14 83 12 53 12
224 0 231 -4 3 -10 -5 -13 -18z"/>
<path d="M1171 1132 c-1 -38 8 -77 31 -135 17 -45 35 -86 39 -92 4 -5 10 -27
14 -47 5 -28 27 -59 86 -122 79 -84 122 -112 156 -103 15 4 15 5 -3 6 -21 1
-82 62 -154 151 -41 50 -48 70 -25 70 18 0 31 -9 93 -67 50 -48 52 -49 52 -28
0 27 -84 102 -126 111 -34 9 -42 17 -69 70 -47 92 -78 165 -86 204 -6 32 -7
31 -8 -18z"/>
<path d="M2351 1167 c-47 -15 -131 -102 -163 -168 -33 -68 -58 -164 -57 -220
0 -38 3 -32 18 41 23 108 69 200 131 261 58 57 103 74 140 51 97 -58 184 -149
225 -235 26 -55 29 -39 4 19 -26 58 -83 139 -123 174 -31 27 -128 90 -136 89
-3 -1 -20 -6 -39 -12z"/>
<path d="M6563 1053 c-1 -30 -10 -78 -19 -106 -10 -29 -18 -82 -19 -119 -1
-59 -5 -71 -31 -100 -16 -19 -44 -56 -63 -85 -19 -28 -53 -63 -75 -77 -32 -21
-36 -26 -18 -26 34 0 77 31 129 95 52 65 72 85 105 107 21 14 21 16 5 38 -21
30 -21 63 -2 165 15 74 13 149 -3 159 -4 2 -8 -21 -9 -51z"/>
<path d="M1770 1064 c-41 -26 -90 -117 -119 -223 -23 -82 -15 -85 13 -6 10 28
36 82 59 122 69 123 109 121 245 -13 54 -54 81 -91 107 -146 39 -83 42 -84 19
-7 -31 104 -130 222 -231 273 -40 20 -61 20 -93 0z"/>
<path d="M2646 758 c-73 -73 -149 -187 -161 -243 l-7 -30 21 32 c11 17 29 49
40 70 25 48 184 213 206 213 27 0 102 -57 136 -105 18 -25 33 -45 35 -45 4 0
-10 45 -18 55 -50 63 -67 80 -99 101 -21 13 -48 24 -59 24 -12 0 -51 -30 -94
-72z"/>
<path d="M3200 760 c0 -8 -21 -37 -48 -65 -26 -27 -58 -65 -70 -82 -13 -18
-29 -33 -36 -33 -21 0 -202 -92 -190 -97 6 -2 51 10 99 27 49 16 100 30 114
30 20 0 30 9 45 41 10 22 28 52 41 67 40 48 67 104 56 115 -8 8 -11 7 -11 -3z"/>
<path d="M4713 605 c9 -16 45 -59 81 -94 36 -36 68 -72 71 -81 4 -13 30 -19
128 -29 88 -9 130 -18 149 -32 40 -28 77 -24 133 16 28 20 71 50 98 67 26 17
47 33 47 36 0 16 -119 -43 -140 -69 -3 -4 -21 -16 -40 -28 -37 -22 -75 -27
-85 -11 -3 6 4 10 17 10 13 1 34 7 48 15 24 14 23 15 -25 9 -75 -8 -292 37
-311 65 -8 11 -36 35 -62 53 -25 17 -64 48 -86 67 l-39 36 16 -30z"/>
<path d="M6236 501 c-3 -5 -21 -13 -39 -16 -17 -4 -54 -18 -80 -31 -46 -22
-50 -23 -84 -9 -31 13 -184 45 -215 45 -31 0 17 -23 117 -54 63 -20 117 -41
120 -46 11 -17 37 -11 56 14 10 13 43 34 74 47 30 12 57 29 60 37 6 18 0 28
-9 13z"/>
<path d="M2706 429 c-49 -10 -103 -27 -120 -37 -24 -14 -38 -17 -56 -10 -28
10 -219 -1 -199 -12 8 -4 50 -10 93 -14 46 -3 90 -13 104 -22 22 -15 26 -14
61 10 20 14 73 37 117 51 44 14 89 32 100 40 24 18 15 18 -100 -6z"/>
</g>
</svg>
