<?xml version="1.0" standalone="no"?>
<!DOCTYPE svg PUBLIC "-//W3C//DTD SVG 20010904//EN"
 "http://www.w3.org/TR/2001/REC-SVG-20010904/DTD/svg10.dtd">
<svg version="1.0" xmlns="http://www.w3.org/2000/svg"
 width="650.000000pt" height="763.000000pt" viewBox="0 0 650.000000 763.000000"
 preserveAspectRatio="xMidYMid meet">
<metadata>
Created by potrace 1.16, written by Peter Selinger 2001-2019
</metadata>
<g transform="translate(0.000000,763.000000) scale(0.100000,-0.100000)"
fill="#000000" stroke="none">
<path d="M4302 6087 c-6 -6 -17 -30 -25 -52 -72 -195 -78 -208 -220 -418 -65
-97 -76 -107 -89 -82 -17 29 -130 157 -173 195 -22 19 -65 59 -95 89 -112 109
-273 196 -450 241 -77 20 -224 14 -315 -14 -163 -49 -191 -64 -300 -158 -58
-49 -105 -93 -105 -97 0 -3 -14 -22 -31 -41 -42 -46 -119 -170 -119 -192 0 -9
-13 -32 -29 -50 -16 -18 -40 -55 -53 -83 -14 -27 -42 -83 -62 -122 -20 -40
-36 -76 -36 -81 0 -5 -16 -39 -36 -77 -47 -88 -36 -100 45 -50 68 41 112 81
221 204 169 189 346 297 615 376 179 52 234 60 430 60 206 -1 244 -9 305 -63
65 -56 171 -192 162 -206 -4 -7 -26 -37 -50 -67 l-44 -55 -68 17 c-37 10 -86
27 -109 38 -81 42 -206 17 -298 -60 -66 -55 -122 -69 -267 -69 -297 0 -687
-118 -941 -285 -175 -114 -483 -401 -598 -556 -110 -149 -231 -366 -311 -560
-52 -125 -123 -417 -145 -594 -49 -397 -4 -665 178 -1058 23 -49 41 -91 41
-94 0 -16 86 -123 122 -153 75 -60 182 -175 216 -233 35 -57 40 -81 61 -284
11 -104 34 -159 92 -215 51 -50 95 -61 220 -56 119 5 174 24 250 88 70 59 108
66 210 41 115 -29 230 -41 379 -41 108 0 139 4 227 29 335 96 597 240 836 461
82 75 194 211 249 301 310 507 458 839 483 1089 12 116 11 117 109 -76 142
-281 151 -287 259 -175 37 38 67 73 67 78 0 6 30 42 68 80 125 131 157 170
192 233 19 34 52 81 74 104 46 50 93 120 135 204 17 35 38 65 46 68 8 3 27 27
43 52 27 45 102 215 102 233 0 4 11 24 24 44 13 19 27 54 31 78 4 23 16 62 27
87 16 36 20 66 19 146 0 56 4 115 8 132 11 38 -3 116 -34 187 -16 35 -23 65
-19 80 8 34 -21 114 -64 177 -21 29 -43 71 -50 93 -7 23 -35 66 -67 100 -30
33 -55 65 -55 72 0 22 -59 80 -123 121 -275 176 -316 195 -529 247 -118 29
-296 53 -413 56 -67 1 -90 7 -142 33 -70 35 -76 48 -43 108 29 55 120 276 120
292 0 9 -17 33 -38 56 -31 32 -46 40 -74 40 -20 0 -40 -6 -46 -13z m87 -63
c15 -19 18 -31 11 -47 -13 -34 -85 -206 -111 -264 -15 -36 -29 -53 -43 -55
-24 -3 -34 -42 -16 -63 14 -17 3 -39 -35 -75 -34 -31 -55 -72 -55 -104 0 -14
-4 -27 -9 -30 -5 -3 -21 -39 -36 -80 l-27 -75 -52 34 c-28 19 -63 37 -79 41
-15 3 -29 10 -32 14 -3 4 36 60 85 123 50 63 90 118 90 121 0 4 24 39 53 79
83 113 137 206 137 235 0 7 14 42 30 79 17 36 30 72 30 79 0 23 37 16 59 -12z
m-1084 -12 c86 -29 168 -67 233 -108 68 -43 145 -104 139 -110 -2 -3 -26 4
-53 14 -127 50 -380 56 -564 13 -242 -57 -528 -250 -716 -483 -30 -37 -54 -69
-54 -72 0 -17 21 0 50 40 52 73 196 212 295 286 282 211 629 292 922 217 147
-37 140 -45 -33 -41 -217 6 -360 -15 -564 -84 -238 -81 -393 -186 -583 -395
-99 -109 -163 -166 -174 -155 -4 4 -1 12 5 18 7 7 12 20 12 29 0 25 116 254
156 305 19 25 34 52 34 60 0 62 215 313 331 387 50 32 160 73 254 96 63 16
241 6 310 -17z m1086 -451 c26 -16 51 -21 109 -21 127 -1 318 -27 464 -65 146
-37 207 -60 266 -99 19 -13 69 -43 110 -67 118 -68 199 -131 207 -159 3 -14
35 -55 70 -93 42 -45 63 -75 63 -92 0 -14 15 -46 34 -72 50 -71 78 -132 78
-170 0 -19 -2 -37 -5 -40 -3 -2 5 -26 18 -51 37 -76 47 -119 41 -170 -4 -26
-6 -86 -5 -134 0 -63 -5 -106 -19 -150 -11 -35 -23 -79 -26 -99 -4 -21 -15
-48 -26 -62 -11 -13 -31 -58 -46 -98 -36 -102 -93 -208 -121 -226 -13 -8 -36
-43 -52 -77 -42 -88 -106 -182 -136 -202 -14 -9 -40 -45 -57 -80 -31 -62 -80
-124 -211 -266 -34 -36 -87 -96 -117 -132 -30 -35 -61 -67 -69 -71 -9 -3 -24
5 -37 22 -20 25 -234 444 -234 458 0 3 -16 31 -36 62 -63 99 -167 351 -185
451 -6 29 -26 83 -44 120 -19 37 -40 95 -46 127 -6 33 -20 79 -31 103 -36 77
-74 487 -55 586 6 28 10 89 9 136 -3 105 45 338 93 450 22 54 30 87 27 113 -4
34 -8 38 -83 74 -43 21 -79 41 -79 45 0 10 87 -25 131 -51z m-51 -31 c36 -18
40 -24 40 -59 0 -21 -12 -70 -26 -107 -14 -38 -37 -118 -50 -179 -14 -60 -27
-116 -29 -122 -3 -8 -26 10 -58 42 -33 34 -62 55 -76 55 -12 0 -24 6 -27 14
-7 18 31 140 56 181 11 18 20 44 20 58 0 24 84 137 103 137 4 0 26 -9 47 -20z
m-683 -200 c29 -16 66 -30 83 -30 41 0 219 -71 264 -105 21 -16 45 -45 54 -64
14 -30 22 -36 49 -36 45 0 73 -31 123 -135 l42 -90 -12 -63 c-9 -51 -8 -99 5
-252 23 -271 30 -316 50 -355 10 -19 24 -64 32 -100 7 -36 29 -98 49 -138 19
-40 39 -97 45 -127 12 -64 81 -240 146 -373 l45 -93 -7 -87 c-24 -305 -112
-540 -370 -987 -53 -93 -119 -201 -145 -240 -47 -70 -215 -265 -228 -265 -4 0
-28 -20 -54 -44 -66 -61 -185 -144 -303 -209 -163 -91 -445 -192 -569 -204
-88 -8 -344 15 -425 38 -118 34 -202 21 -266 -41 -16 -16 -57 -41 -90 -57 -53
-24 -72 -28 -160 -28 -91 0 -103 2 -134 25 -54 41 -80 105 -91 228 -6 59 -13
125 -16 147 -13 84 -94 206 -200 304 -33 30 -76 70 -98 90 -52 49 -76 88 -145
243 -66 147 -131 335 -152 443 -21 103 -18 469 5 600 34 200 94 428 141 540
67 156 235 464 264 485 4 3 22 26 39 52 18 26 87 102 155 170 356 360 591 499
999 592 128 29 204 38 343 41 162 3 197 12 283 79 54 41 130 74 176 75 11 1
43 -12 73 -29z"/>
<path d="M4450 5516 c0 -2 20 -16 44 -30 58 -34 196 -183 196 -211 0 -84 -60
-339 -107 -458 -39 -97 -38 -132 1 -46 35 76 82 246 102 364 9 55 18 106 21
114 7 25 160 -220 249 -401 l38 -76 -29 -69 c-54 -127 -196 -397 -261 -495
-64 -97 -76 -121 -50 -98 46 38 235 375 320 570 l28 65 39 -80 c21 -44 47
-107 59 -140 26 -77 60 -239 60 -287 0 -56 -178 -445 -264 -575 -49 -74 -48
-73 -38 -73 22 0 149 224 229 405 17 39 42 93 54 120 l23 50 7 -50 c39 -278
-49 -811 -196 -1187 -4 -10 -3 -18 3 -18 21 0 121 317 161 515 37 181 44 247
50 493 l6 244 85 -64 c133 -100 239 -172 245 -166 3 3 -72 62 -167 131 l-173
126 -12 88 c-18 128 -56 267 -97 355 -20 42 -36 82 -36 88 0 12 13 13 26 1 28
-26 390 -168 472 -186 54 -11 36 10 -20 24 -70 18 -279 99 -400 155 l-97 45
-42 83 c-59 118 -135 251 -191 337 -26 41 -46 76 -44 79 3 2 53 -12 113 -31
172 -57 272 -85 362 -101 98 -19 104 -19 96 -6 -3 6 -17 10 -30 10 -82 0 -558
148 -590 184 -11 12 -38 43 -60 70 -59 71 -185 161 -185 132z"/>
</g>
</svg>
