<?xml version="1.0" standalone="no"?>
<!DOCTYPE svg PUBLIC "-//W3C//DTD SVG 20010904//EN"
 "http://www.w3.org/TR/2001/REC-SVG-20010904/DTD/svg10.dtd">
<svg version="1.0" xmlns="http://www.w3.org/2000/svg"
 width="714.000000pt" height="510.000000pt" viewBox="0 0 714.000000 510.000000"
 preserveAspectRatio="xMidYMid meet">
<metadata>
Created by potrace 1.16, written by Peter Selinger 2001-2019
</metadata>
<g transform="translate(0.000000,510.000000) scale(0.100000,-0.100000)"
fill="#000000" stroke="none">
<path d="M1446 5040 c-101 -22 -244 -86 -328 -147 -34 -25 -73 -66 -95 -100
-20 -32 -63 -85 -93 -118 -72 -77 -99 -120 -138 -226 -62 -165 -78 -320 -46
-430 23 -76 85 -196 128 -246 20 -22 68 -62 106 -88 70 -46 90 -72 90 -120 0
-27 18 -35 89 -38 l43 -2 36 -78 c38 -84 35 -111 -9 -86 -15 9 -59 14 -119 14
-112 0 -147 -14 -222 -92 -96 -98 -129 -224 -93 -349 16 -59 79 -183 119 -237
17 -23 21 -44 22 -110 0 -73 4 -91 37 -161 20 -43 37 -90 37 -103 0 -13 -14
-52 -31 -86 -43 -85 -50 -164 -19 -234 l22 -52 -21 -27 c-33 -42 -26 -80 25
-135 20 -20 24 -34 22 -75 -2 -27 1 -82 5 -121 7 -64 6 -73 -8 -73 -9 0 -49
-14 -88 -31 -61 -27 -93 -52 -211 -166 -77 -74 -160 -147 -183 -163 -24 -15
-52 -39 -62 -52 -34 -42 -88 -152 -101 -203 -7 -27 -17 -54 -21 -60 -12 -12
-11 -51 0 -73 5 -9 15 -32 21 -50 7 -17 28 -46 48 -63 35 -31 36 -31 116 -25
45 4 111 9 148 11 51 3 83 12 135 39 67 33 69 33 90 16 13 -10 49 -23 82 -28
92 -16 401 -178 463 -242 70 -73 306 -157 468 -167 147 -9 281 10 388 56 88
38 166 84 191 114 11 14 17 13 54 -3 23 -10 61 -21 84 -25 51 -8 50 -10 -33
-105 -31 -36 -67 -78 -81 -94 -14 -15 -21 -31 -16 -36 4 -4 53 -15 108 -25 55
-9 110 -21 122 -26 38 -14 52 0 74 73 47 159 204 237 299 148 65 -61 13 -182
-102 -241 -21 -11 -36 -23 -34 -28 3 -5 45 -11 93 -15 49 -4 109 -9 134 -12
l45 -6 96 113 c135 160 131 157 170 153 18 -2 112 -11 208 -20 96 -9 176 -17
178 -19 2 -1 -11 -18 -27 -36 -43 -47 -49 -88 -20 -146 28 -56 56 -73 124 -73
112 0 245 125 245 232 0 16 8 17 78 12 42 -3 99 -10 125 -15 75 -14 86 -12 93
18 10 42 45 124 66 155 25 36 8 43 -42 18 -51 -26 -156 -36 -189 -18 -66 36
-48 84 48 129 56 27 72 30 115 24 28 -3 62 -14 78 -23 15 -9 29 -14 31 -11 2
2 18 30 36 61 50 89 118 129 179 106 24 -9 35 -6 80 22 29 18 55 30 57 28 3
-2 -4 -28 -15 -56 -11 -29 -20 -61 -20 -72 0 -45 134 -110 228 -110 75 0 98
17 118 86 9 30 22 58 31 61 8 3 53 -12 100 -33 l86 -38 19 23 c17 23 21 23 76
12 109 -21 104 -23 124 42 22 73 65 128 117 151 l39 18 34 -26 c19 -14 51 -32
71 -41 31 -13 37 -20 37 -46 0 -40 -14 -65 -64 -117 -45 -47 -41 -62 18 -62
16 0 73 -7 128 -16 55 -9 110 -13 122 -10 12 3 35 29 55 63 19 32 45 73 59 91
27 38 44 36 101 -7 31 -23 43 -26 120 -26 104 0 188 29 239 82 57 60 34 141
-50 182 -52 25 -188 33 -225 13 -28 -15 -63 -15 -63 0 0 6 25 36 56 65 52 50
55 55 52 95 -3 40 -6 45 -48 66 -36 19 -58 23 -115 21 -44 -2 -80 2 -98 11
-23 11 -45 12 -125 2 -83 -11 -104 -10 -150 3 -29 9 -66 28 -82 43 -33 30 -38
53 -61 307 -6 72 -22 191 -35 264 -30 171 -32 241 -5 248 23 6 41 51 41 99 0
19 7 39 16 46 9 7 32 28 52 46 33 31 34 35 29 83 -4 28 -18 75 -32 105 -24 52
-25 59 -15 111 20 95 -13 221 -85 329 l-43 64 40 27 c23 16 59 44 81 64 40 36
40 36 24 65 -40 73 -79 185 -93 273 -26 156 -21 428 12 673 30 224 27 295 -15
409 -29 75 -115 169 -188 205 -67 33 -190 44 -282 24 -52 -11 -65 -10 -112 6
-75 26 -246 23 -312 -5 -96 -41 -176 -145 -178 -228 0 -36 -3 -39 -62 -68 -86
-41 -248 -203 -307 -305 -49 -84 -90 -202 -90 -259 0 -56 26 -134 81 -242 27
-53 49 -101 49 -106 0 -6 -9 -18 -20 -28 -27 -25 -39 -74 -30 -124 8 -47 44
-91 72 -91 14 0 18 -8 18 -32 0 -18 7 -55 15 -82 8 -27 15 -55 15 -62 0 -19
-61 -33 -212 -50 -94 -10 -147 -21 -185 -38 -107 -49 -216 -182 -248 -301 -17
-63 -17 -68 -1 -102 28 -59 31 -122 7 -168 -28 -52 -26 -80 4 -111 23 -23 35
-51 18 -42 -64 33 -92 40 -150 36 -81 -5 -130 -42 -188 -142 -16 -28 -61 -12
-68 24 -17 83 -97 158 -174 164 -162 11 -337 -111 -423 -293 -20 -43 -28 -51
-44 -47 -12 3 -48 8 -81 11 l-61 7 -59 97 c-33 53 -77 127 -98 164 -41 73
-166 257 -201 295 l-21 24 40 31 c22 18 74 61 115 97 121 105 292 234 335 253
22 10 69 24 105 31 36 8 73 17 82 21 12 5 23 -4 42 -34 15 -23 29 -41 33 -41
3 0 46 34 95 76 l89 76 39 -36 c52 -47 104 -68 164 -67 207 6 348 315 213 468
l-30 34 71 72 c51 51 72 80 72 97 0 31 -46 112 -91 162 -46 49 -67 40 -109
-47 -17 -36 -42 -73 -56 -81 -22 -15 -26 -15 -49 0 -26 17 -84 102 -85 123 0
7 32 38 70 69 39 31 73 67 76 79 7 29 -35 104 -78 140 -48 40 -69 33 -135 -42
-79 -91 -115 -124 -132 -121 -10 2 -19 28 -28 72 -30 166 -115 256 -241 256
-82 0 -232 -110 -246 -180 -10 -54 -7 -129 8 -163 19 -45 61 -82 134 -117 34
-16 62 -33 62 -38 0 -4 -19 -27 -43 -50 l-43 -43 -37 16 c-52 21 -65 19 -102
-18 -39 -39 -57 -96 -60 -193 -2 -61 -9 -85 -48 -167 -42 -87 -52 -101 -107
-141 -34 -25 -96 -64 -138 -87 -42 -23 -91 -53 -109 -65 -17 -13 -34 -24 -37
-24 -3 0 -13 17 -21 37 -23 54 -89 138 -129 162 -19 12 -59 26 -88 31 -81 13
-107 25 -101 48 4 16 20 22 81 32 175 28 301 147 349 333 19 74 20 199 3 281
-14 70 -9 120 25 228 14 43 25 89 25 101 0 13 18 42 39 65 105 113 66 284 -93
401 -28 21 -96 84 -151 140 -55 57 -120 116 -144 133 -100 70 -359 104 -525
68z m302 -35 c42 -9 104 -27 137 -42 80 -34 188 -115 226 -168 17 -24 67 -71
110 -104 94 -73 122 -109 143 -180 25 -87 21 -145 -12 -182 l-29 -32 -31 19
c-30 17 -32 22 -32 77 0 63 -25 167 -41 167 -13 0 -11 -12 7 -55 30 -73 17
-185 -22 -185 -8 0 -34 18 -57 39 -34 31 -48 56 -72 125 -16 47 -33 86 -37 86
-13 0 -9 -19 18 -86 31 -79 30 -137 -3 -142 -30 -4 -68 18 -133 78 -145 133
-221 57 -371 -375 -53 -152 -78 -189 -126 -186 -115 8 -141 6 -163 -14 -56
-51 -76 -153 -45 -229 15 -35 15 -36 -9 -42 -13 -3 -36 -4 -52 -2 -24 2 -31
11 -44 47 -13 39 -24 50 -90 88 -41 25 -87 56 -102 70 -39 37 -83 127 -108
222 -20 72 -22 99 -17 190 7 114 32 235 67 315 27 64 121 171 174 198 22 11
82 34 133 50 51 15 95 33 98 38 10 16 -4 13 -125 -29 -63 -22 -117 -38 -119
-35 -3 2 17 27 45 55 114 118 270 199 429 224 110 18 163 18 253 0z m3524
-372 c56 -25 61 -25 86 -11 69 40 220 29 310 -23 158 -90 220 -353 160 -675
-20 -103 -23 -148 -21 -337 2 -247 10 -303 60 -437 25 -67 33 -99 26 -110 -15
-24 -106 -90 -125 -90 -9 0 -40 11 -69 25 -29 13 -77 27 -106 31 -30 3 -52 9
-51 13 2 3 16 33 32 66 16 33 32 67 36 75 4 9 26 17 52 20 56 7 76 22 101 79
33 75 23 158 -28 225 l-24 32 29 90 c102 318 23 647 -186 769 -27 16 -44 33
-44 44 0 20 -45 64 -101 98 -84 52 -211 65 -311 31 -36 -12 -88 -55 -88 -74 0
-14 -182 -74 -194 -63 -4 4 -1 32 8 63 12 41 28 68 59 98 46 45 66 54 147 73
97 22 175 18 242 -12z m84 -115 c25 -10 60 -33 79 -50 38 -32 48 -65 18 -55
-144 48 -203 59 -311 60 l-113 0 22 23 c52 55 206 66 305 22z m-3493 -80 c12
-6 47 -34 79 -63 73 -68 138 -82 153 -34 8 26 13 24 64 -16 49 -39 59 -42 75
-19 11 14 14 14 34 -3 22 -17 22 -21 12 -92 -15 -104 -25 -121 -87 -141 -29
-9 -60 -23 -69 -31 -25 -21 -54 -89 -54 -129 0 -38 40 -115 48 -92 2 8 -1 19
-7 25 -17 17 -13 27 10 27 12 0 39 10 60 22 21 12 41 19 44 16 10 -10 26 -191
20 -223 -4 -16 -18 -65 -32 -107 -74 -220 -309 -317 -570 -237 -62 19 -172 76
-206 106 -26 24 -32 8 -5 -17 57 -54 204 -116 321 -135 33 -5 37 -9 37 -35 0
-38 -24 -50 -97 -51 -78 -1 -222 54 -276 105 -21 19 -52 39 -69 44 -28 7 -34
16 -53 73 -12 35 -30 79 -39 96 -9 18 -16 34 -16 37 0 2 25 2 55 -1 55 -6 120
11 109 28 -3 5 -13 5 -24 -1 -45 -24 -131 -3 -149 36 -29 63 -2 177 48 207 37
22 89 22 112 1 17 -15 21 -15 53 0 52 25 71 55 117 194 56 169 118 310 164
371 33 47 40 51 77 51 21 0 49 -5 61 -12z m3459 -7 c185 -48 327 -152 390
-288 46 -98 59 -247 34 -400 -24 -147 -53 -211 -112 -242 -24 -13 -48 -21 -52
-17 -4 4 -9 72 -12 151 -3 96 -9 148 -17 157 -10 9 -31 7 -104 -11 -133 -33
-286 -51 -437 -51 -105 0 -134 3 -138 14 -9 23 -9 135 -1 214 5 39 5 72 0 72
-4 -1 -45 -74 -90 -163 l-81 -162 -106 0 c-57 0 -109 -4 -115 -10 -6 -7 -4
-37 9 -90 24 -106 27 -137 13 -142 -6 -2 -17 13 -23 34 -12 37 -41 84 -67 111
-16 16 -41 99 -49 162 -7 54 13 135 53 215 64 125 245 316 353 370 175 88 389
117 552 76z m-2297 -240 c72 -33 107 -92 121 -204 3 -29 12 -62 20 -74 12 -19
11 -22 -13 -28 -27 -6 -43 6 -43 36 0 8 -9 42 -20 75 -15 45 -34 73 -78 117
-31 32 -63 62 -71 66 -19 12 -5 31 22 31 12 0 40 -9 62 -19z m-126 -11 c9 0
47 -27 83 -60 67 -61 84 -92 104 -190 8 -41 29 -76 51 -84 23 -9 115 56 174
124 29 33 57 60 63 59 12 0 96 -102 96 -116 0 -4 -16 -19 -35 -32 -57 -39
-113 -106 -120 -145 -9 -46 18 -94 65 -119 75 -39 173 4 246 107 7 11 15 18
17 15 2 -2 23 -32 46 -67 l43 -63 -75 -78 c-41 -44 -83 -90 -92 -104 -16 -25
-15 -26 19 -62 52 -53 72 -130 58 -215 -9 -55 -16 -70 -46 -96 -63 -55 -141
-67 -207 -34 -38 20 -45 30 -78 113 l-11 28 -103 -96 -102 -96 -19 23 c-17 22
-17 23 0 33 10 5 40 30 67 55 51 47 80 93 92 148 3 17 10 32 14 32 11 0 38 75
44 121 4 28 0 42 -19 65 -14 18 -23 42 -24 65 0 20 -8 44 -19 56 -15 15 -18
30 -14 65 5 40 2 47 -23 67 -52 41 -86 26 -189 -83 -90 -94 -110 -110 -174
-132 -41 -15 -59 -9 -67 22 -11 44 6 72 84 139 42 36 83 77 90 91 12 23 10 25
-35 53 -118 72 -136 86 -155 115 -30 48 -22 159 15 214 27 42 79 74 105 66 8
-2 21 -4 31 -4z m1948 -339 c-1 -69 3 -94 17 -115 l17 -27 122 5 c195 9 264
17 397 47 69 15 128 25 132 20 5 -4 10 -40 13 -81 3 -41 8 -108 11 -148 8
-109 27 -149 49 -100 6 12 22 29 37 37 23 13 30 13 53 1 33 -18 65 -78 65
-122 -1 -41 -23 -103 -45 -128 -21 -24 -82 -35 -101 -19 -20 16 -26 8 -58 -83
-36 -100 -71 -136 -220 -222 -190 -111 -316 -138 -460 -101 -89 23 -124 43
-198 113 -120 114 -169 248 -142 390 20 106 18 165 -12 270 -15 51 -24 95 -21
98 8 9 44 9 123 1 l71 -8 25 38 c13 21 44 80 69 131 24 50 47 92 50 92 4 0 6
-40 6 -89z m-1668 -160 c35 -22 -24 -151 -126 -274 -24 -29 -31 -53 -13 -42
15 9 130 166 130 176 0 22 29 6 38 -20 20 -58 -14 -143 -82 -203 -19 -18 -25
-28 -16 -28 25 1 57 32 93 92 26 43 37 54 46 45 31 -31 -8 -131 -71 -181 -18
-14 -29 -28 -25 -32 3 -4 13 -1 22 6 25 21 30 3 10 -39 -35 -78 -133 -144
-233 -157 -68 -9 -141 -28 -171 -46 -19 -11 -71 -50 -115 -88 -166 -142 -278
-236 -304 -255 -14 -11 -60 -48 -100 -82 -41 -34 -93 -72 -117 -83 -95 -46
-278 -63 -424 -39 -36 6 -135 26 -219 46 -174 41 -192 53 -192 128 0 84 67
241 128 298 l30 29 128 -22 c277 -47 311 -51 380 -47 69 4 78 7 250 105 99 55
211 123 249 151 61 43 73 57 94 108 13 32 35 76 50 98 22 35 26 55 31 150 7
139 26 175 92 175 46 0 50 -20 13 -62 -19 -21 -35 -45 -35 -53 0 -30 40 -95
58 -94 57 1 224 104 271 166 31 42 84 83 106 83 6 0 16 -4 24 -9z m473 -273
c14 -18 32 -47 42 -65 17 -35 22 -103 7 -118 -5 -6 -11 -25 -13 -44 -5 -60
-23 -45 -24 22 -2 65 -34 148 -68 176 -19 16 -20 33 -4 49 19 19 34 14 60 -20z
m-2460 -78 c52 -15 108 -86 157 -200 l41 -95 -44 -45 c-109 -112 -166 -234
-166 -356 0 -35 -4 -64 -10 -64 -26 0 -145 51 -167 72 -34 32 -110 150 -144
225 -20 43 -30 86 -35 142 -7 80 -6 83 30 155 40 81 102 146 158 163 43 14
134 15 180 3z m177 -5 c41 -21 107 -99 137 -162 34 -73 74 -196 66 -204 -4 -4
-22 -5 -39 -2 -25 4 -33 10 -33 27 -1 34 -33 69 -65 69 -25 0 -31 8 -72 96
-25 52 -58 111 -74 130 l-29 35 23 13 c29 16 52 16 86 -2z m167 -101 c82 -34
145 -45 197 -34 26 5 54 10 61 10 22 0 114 -278 98 -295 -11 -10 -79 -3 -180
18 l-103 23 -34 98 c-19 54 -46 119 -60 144 -34 61 -35 59 21 36z m381 -73
c38 -49 73 -154 73 -218 0 -44 0 -44 -31 -41 -30 3 -32 6 -64 108 -18 58 -40
122 -49 144 -35 78 13 83 71 7z m95 -2 c55 -39 126 -153 115 -183 -4 -11 -86
-56 -102 -56 -3 0 -5 10 -5 23 -1 19 -51 175 -75 231 -7 16 -5 17 16 11 13 -4
36 -16 51 -26z m-544 -131 c19 -19 14 -34 -30 -85 -65 -75 -97 -131 -125 -221
-25 -80 -27 -137 -8 -184 6 -15 2 -18 -23 -18 -16 0 -40 9 -53 19 -20 16 -24
30 -27 92 -7 125 40 232 151 348 59 61 90 74 115 49z m3096 -53 c9 -14 51 -51
94 -82 87 -65 94 -73 87 -91 -7 -19 57 -113 102 -149 65 -52 103 -67 168 -68
123 0 226 81 304 239 22 47 45 86 50 86 5 0 37 19 71 41 59 40 64 41 116 35
67 -8 167 -52 216 -95 71 -62 118 -203 118 -351 -1 -70 -2 -74 -17 -55 -30 38
-5 -35 28 -79 22 -31 29 -51 29 -86 0 -54 -14 -77 -61 -99 -32 -15 -34 -19
-37 -74 -2 -31 -5 -57 -7 -57 -2 0 -28 14 -57 31 -62 37 -109 45 -163 30 -21
-6 -41 -9 -43 -7 -2 2 4 28 13 58 38 134 56 345 34 423 -5 20 -6 4 -3 -45 6
-94 -26 -305 -63 -410 -14 -41 -54 -124 -87 -185 -71 -128 -143 -206 -225
-243 -31 -14 -99 -62 -151 -107 -201 -174 -292 -219 -435 -216 l-90 1 -37 42
c-67 76 -131 179 -145 231 -14 56 -17 175 -7 338 l7 105 44 18 c130 54 250
267 241 428 -3 50 -4 48 -20 -48 -25 -153 -93 -276 -187 -336 -53 -33 -86 -36
-101 -8 -16 31 -98 81 -164 102 -45 14 -91 19 -174 19 -124 0 -139 7 -108 54
11 17 29 27 55 31 l38 6 6 66 c4 36 5 67 3 69 -2 2 -9 -24 -16 -57 -11 -53
-16 -61 -34 -58 -12 2 -20 9 -18 16 1 7 -5 41 -14 75 -42 162 57 341 232 418
39 18 258 57 380 68 7 1 19 -10 28 -24z m713 -188 c-60 -107 -119 -156 -212
-177 -95 -21 -222 45 -270 140 -37 73 -34 85 15 60 114 -58 279 -58 392 0 34
18 72 39 83 47 32 22 30 -2 -8 -70z m-4167 -226 c37 -12 76 -33 101 -55 39
-36 42 -37 98 -30 32 3 61 2 63 -2 9 -16 -11 -186 -28 -238 -26 -82 -70 -141
-141 -192 -72 -52 -161 -88 -179 -73 -7 5 -22 33 -34 61 -30 71 -24 113 40
244 63 131 82 183 73 197 -3 5 -14 -18 -25 -52 -10 -33 -23 -61 -27 -61 -17 0
-96 241 -84 253 2 3 22 -4 44 -15 22 -10 66 -27 99 -37z m1276 -108 c38 -53
86 -128 109 -167 22 -39 81 -137 130 -218 l89 -146 51 5 c84 9 231 -32 300
-82 53 -39 96 -139 120 -277 5 -30 3 -38 -10 -38 -8 0 -15 4 -15 9 0 20 -57
76 -113 112 -77 50 -151 75 -182 61 -20 -9 -23 -19 -27 -87 -4 -82 -12 -95
-61 -95 -60 0 -99 47 -103 122 -3 60 -29 97 -104 148 -33 22 -61 40 -64 40
-19 0 -120 77 -137 103 -10 18 -35 84 -55 147 -20 63 -54 150 -76 193 -21 44
-42 100 -45 126 l-5 48 51 37 c28 21 51 42 51 47 0 5 7 9 15 9 7 0 44 -44 81
-97z m-936 6 c76 -23 251 -50 370 -55 107 -5 138 -3 213 15 49 11 92 21 97 21
4 0 11 -18 15 -41 4 -22 34 -95 67 -161 64 -130 108 -247 108 -290 0 -30 31
-68 55 -68 21 0 88 -44 160 -104 70 -59 89 -83 92 -112 3 -36 50 -120 80 -144
22 -17 37 -21 72 -17 61 7 85 34 91 105 l5 57 37 -2 c90 -5 206 -91 256 -189
46 -91 54 -277 16 -375 -41 -104 -133 -210 -222 -254 -67 -34 -136 -41 -244
-25 -111 15 -141 34 -174 107 -14 32 -35 74 -48 93 -13 19 -72 116 -131 215
-59 99 -120 201 -136 226 l-29 46 45 67 c25 37 45 72 45 77 0 21 -17 4 -55
-53 -57 -88 -66 -91 -117 -42 -77 73 -104 87 -182 91 -89 6 -200 -17 -283 -57
-59 -29 -113 -79 -113 -103 0 -7 11 2 25 19 14 18 58 48 107 71 122 59 271 71
157 13 -23 -12 -39 -23 -37 -26 3 -2 29 9 59 26 94 52 158 39 257 -52 95 -87
256 -330 374 -567 70 -140 72 -146 76 -232 8 -158 -21 -219 -139 -295 -118
-76 -238 -117 -389 -134 -83 -9 -103 -8 -179 10 -47 11 -129 37 -181 57 -95
36 -142 62 -414 227 -170 103 -170 102 -164 262 2 52 0 94 -4 94 -18 0 -26
-129 -13 -212 l6 -36 -43 5 c-66 8 -124 39 -142 76 -55 118 -46 243 29 385 37
70 139 182 167 182 8 0 36 -34 63 -76 62 -94 212 -239 294 -282 33 -18 62 -41
66 -51 21 -66 108 -142 194 -168 63 -19 63 -8 -1 12 -29 10 -72 32 -95 49 -40
30 -91 102 -80 113 4 3 20 0 38 -6 20 -7 37 -7 48 -1 13 8 11 9 -11 10 -71 0
-216 95 -306 198 -100 116 -151 206 -215 372 -34 90 -40 117 -42 193 -2 83 -4
90 -35 129 -43 53 -34 69 51 83 67 11 130 44 216 112 78 62 143 256 127 376
-6 51 -5 52 46 36z m2730 -185 c82 -24 159 -78 160 -111 0 -7 -13 -5 -37 7
-84 40 -162 45 -322 23 l-43 -6 7 44 c4 24 9 47 12 52 8 13 168 7 223 -9z
m-785 -23 c33 -19 75 -75 75 -100 0 -11 -23 -27 -65 -45 -91 -40 -185 -128
-227 -214 -17 -37 -32 -68 -33 -69 -1 -2 -24 19 -51 45 -29 28 -75 59 -107 72
-31 13 -57 28 -57 32 0 18 44 95 81 141 109 137 277 198 384 138z m493 -38
c35 -22 23 -42 -39 -68 -31 -12 -88 -41 -127 -64 -39 -22 -74 -41 -79 -41 -4
0 -19 9 -32 19 -22 17 -23 21 -12 48 14 35 73 94 116 117 36 19 136 13 173
-11z m381 -51 c73 -22 80 -37 70 -147 -12 -142 -10 -326 4 -365 13 -36 80
-138 114 -175 10 -11 41 -49 70 -85 28 -36 72 -85 96 -109 l45 -44 54 33 c58
37 75 38 197 21 86 -12 127 -26 135 -48 17 -45 -70 -90 -155 -80 -44 5 -50 4
-45 -11 2 -9 7 -35 11 -57 12 -68 62 -157 111 -193 73 -54 54 -97 -47 -109
-42 -5 -55 -2 -90 21 -22 15 -50 43 -61 62 -11 18 -24 31 -29 28 -10 -6 -6
-15 28 -62 25 -33 89 -72 118 -72 9 0 15 -6 13 -12 -7 -19 -51 -32 -83 -24
-28 7 -88 62 -112 101 -12 20 -12 19 -12 -2 -1 -12 13 -38 30 -58 18 -20 29
-38 26 -41 -3 -3 -26 -2 -52 2 -57 8 -95 42 -95 84 0 17 -5 30 -11 30 -8 0
-10 -15 -6 -45 6 -42 5 -45 -11 -36 -42 22 -110 117 -133 186 -20 58 -36 83
-95 145 -220 233 -407 483 -455 610 -24 65 -24 147 1 258 18 83 51 186 62 197
3 3 32 9 64 15 74 11 173 4 243 -18z m1480 -52 l40 -20 -6 -54 c-3 -32 1 -93
11 -148 26 -152 66 -464 73 -574 l6 -103 66 -26 c86 -32 139 -39 231 -27 64 8
81 7 115 -8 42 -18 83 -56 72 -66 -4 -4 -41 5 -83 20 -77 28 -110 29 -57 3 15
-8 63 -27 106 -42 125 -45 162 -114 70 -128 -46 -8 -65 -3 -168 39 -77 31
-113 39 -163 36 -40 -3 -36 -29 12 -83 78 -86 71 -129 -21 -129 -57 0 -123 32
-174 85 -35 36 -49 43 -91 47 -27 3 -62 14 -76 24 -16 12 -51 66 -83 129 -30
61 -70 135 -87 165 -34 61 -72 216 -97 398 -24 179 -23 185 45 314 63 119 82
147 115 166 26 16 95 8 144 -18z m-1849 -4 c0 -8 -12 -58 -26 -112 -20 -78
-25 -117 -22 -185 3 -81 6 -93 56 -192 47 -95 89 -157 178 -265 14 -18 24 -35
21 -38 -32 -32 -483 -57 -627 -35 -93 15 -142 43 -214 123 l-56 63 0 91 c0 54
-6 112 -16 144 -10 34 -14 71 -10 97 17 129 154 275 278 298 41 8 72 -6 133
-58 46 -40 42 -52 -30 -87 -92 -45 -176 -146 -174 -211 0 -17 4 -12 14 19 7
23 24 57 38 75 26 34 104 93 112 85 3 -3 -9 -32 -25 -66 -34 -67 -48 -141 -31
-169 9 -15 10 -11 11 24 0 23 6 54 14 70 8 15 23 48 34 73 38 86 134 175 257
239 67 34 85 38 85 17z m1494 -409 c6 -94 47 -282 86 -392 11 -33 45 -101 75
-152 30 -50 55 -96 55 -101 0 -5 -18 -22 -41 -36 -29 -20 -48 -26 -65 -22 -24
6 -25 26 -1 26 7 0 23 9 36 19 67 51 -58 189 -201 220 -53 12 -127 -1 -145
-25 -7 -10 -13 -35 -13 -56 0 -21 -3 -38 -6 -38 -7 0 -87 22 -92 26 -1 1 2 13
9 27 29 65 -26 108 -162 126 -42 6 -87 15 -100 20 -18 6 -40 3 -87 -16 l-63
-26 -30 29 c-34 33 -37 44 -8 44 31 0 135 28 211 56 85 32 154 79 253 171 43
40 105 88 139 107 33 20 75 46 91 60 17 14 35 25 41 26 7 0 14 -35 18 -93z
m-4334 -257 l30 -59 -45 -31 c-80 -55 -161 -182 -191 -303 -19 -73 -14 -169
12 -235 9 -23 15 -43 13 -45 -84 -58 -160 -81 -314 -92 -82 -6 -93 -5 -116 14
-37 28 -53 95 -46 186 4 61 13 88 46 153 42 80 72 111 201 209 31 23 85 72
120 108 78 79 138 123 194 141 62 19 63 18 96 -46z m2334 -166 c30 -14 81 -29
114 -35 l60 -11 -30 -49 c-35 -56 -33 -56 -198 -36 l-95 12 5 30 c7 46 6 105
-4 160 l-8 50 51 -48 c29 -27 76 -59 105 -73z m886 -136 c103 -101 128 -131
139 -168 7 -25 24 -65 37 -89 28 -50 30 -78 10 -126 -19 -46 -42 -55 -133 -55
-226 0 -322 102 -169 179 26 12 45 28 43 34 -2 8 -48 14 -131 18 -70 4 -129 9
-132 12 -8 8 11 41 61 102 25 30 41 56 37 58 -4 2 -43 4 -87 6 -43 1 -81 4
-84 6 -2 3 5 24 17 47 12 24 23 50 26 59 3 12 27 19 93 28 49 7 95 16 103 21
21 13 33 3 170 -132z m-392 81 c1 -9 -13 -39 -32 -68 -23 -34 -31 -53 -23 -56
7 -2 46 -6 87 -10 41 -3 76 -8 79 -10 3 -4 -25 -43 -136 -194 l-48 -64 -152 6
-152 5 16 -24 c15 -24 15 -27 -4 -52 -40 -54 -78 -67 -191 -67 -75 0 -105 4
-111 13 -5 8 -11 13 -15 13 -19 -3 -26 1 -37 20 -16 31 1 63 51 94 22 14 40
29 40 34 0 4 -35 11 -77 15 -42 4 -81 9 -85 12 -5 3 7 24 26 47 18 23 50 76
71 117 21 41 38 76 39 77 2 3 218 -16 253 -22 28 -5 33 -2 48 28 9 19 30 48
48 65 32 31 33 31 152 35 155 4 149 4 153 -14z m1515 -8 c89 -41 155 -122 127
-156 -12 -15 -86 -35 -126 -35 -17 0 -24 -4 -18 -9 11 -10 125 -46 177 -55 20
-4 37 -13 37 -20 0 -19 -36 -124 -65 -189 -21 -48 -29 -58 -43 -52 -47 20
-216 74 -220 71 -2 -3 1 -21 8 -40 10 -30 9 -40 -6 -65 -32 -54 -64 -60 -177
-31 -100 26 -134 135 -55 176 l29 15 -23 32 c-12 18 -48 62 -80 100 -51 59
-58 73 -58 110 0 23 4 47 8 52 11 16 129 37 149 27 10 -5 45 -14 78 -21 33 -7
70 -19 82 -27 44 -28 47 -4 3 33 -38 32 -42 84 -7 101 42 20 114 14 180 -17z
m1095 -81 c36 -16 42 -23 42 -50 0 -22 -9 -41 -30 -62 l-31 -30 -35 33 c-37
36 -84 102 -84 119 0 17 93 11 138 -10z m-860 -128 c24 -55 68 -89 133 -103
63 -14 111 -38 78 -39 -9 0 -39 -20 -66 -44 -43 -39 -76 -94 -97 -160 -6 -16
-13 -17 -64 -11 -96 12 -96 12 -61 108 24 65 68 195 69 204 0 1 -13 4 -30 8
-36 8 -37 12 -8 42 27 29 30 29 46 -5z m626 -76 c60 -20 113 -32 129 -29 14 3
40 0 58 -6 24 -8 37 -7 59 4 43 22 171 20 218 -4 66 -34 87 -70 67 -118 -36
-86 -233 -144 -322 -95 -17 9 -50 27 -73 40 l-42 23 -23 -21 c-13 -12 -37 -47
-53 -78 -51 -96 -52 -96 -118 -93 -73 3 -205 19 -212 26 -3 3 6 18 20 33 33
35 50 69 57 112 6 31 10 36 43 40 20 3 48 15 63 28 31 27 27 53 -16 125 l-28
47 35 0 c20 0 82 -15 138 -34z m-2124 -22 c10 -4 6 -10 -15 -24 -33 -22 -54
-55 -55 -87 0 -27 41 -77 77 -92 32 -13 154 -31 166 -24 4 2 7 -2 7 -9 0 -19
-91 -72 -170 -98 -36 -12 -79 -29 -97 -36 -17 -8 -36 -14 -42 -14 -6 0 -45
-16 -85 -35 -54 -25 -89 -51 -130 -95 -31 -34 -56 -65 -56 -70 0 -5 -24 -7
-52 -4 -106 11 -190 23 -195 28 -8 7 90 125 104 125 7 1 29 -11 50 -25 31 -21
45 -25 78 -19 106 16 245 130 245 200 0 47 -8 64 -41 80 -32 17 -85 19 -144 5
-22 -5 -41 -8 -42 -6 -2 2 98 126 153 189 24 27 24 27 127 21 56 -3 109 -8
117 -10z m-943 -58 c4 -4 -2 -13 -14 -21 -11 -8 -26 -28 -33 -45 -10 -25 -10
-34 4 -55 33 -50 62 -60 171 -60 90 0 105 3 152 27 57 31 83 60 83 96 0 22 3
24 31 18 17 -3 67 -6 110 -6 44 0 79 -4 79 -9 0 -4 -22 -33 -50 -62 -27 -30
-50 -58 -50 -63 0 -10 29 -4 85 18 79 30 168 16 185 -29 13 -35 -1 -67 -54
-119 -57 -57 -96 -77 -166 -83 -52 -5 -59 -3 -92 26 -20 17 -38 31 -41 31 -3
0 -30 -33 -60 -73 -53 -70 -204 -253 -274 -330 l-34 -39 -96 11 c-52 5 -97 12
-100 15 -2 2 16 23 40 45 52 48 92 130 82 169 -18 72 -122 118 -208 92 -81
-24 -126 -77 -162 -190 -10 -30 -22 -58 -27 -61 -5 -3 -46 3 -91 13 -45 10
-93 21 -107 24 -45 10 -49 1 63 134 86 102 87 112 13 116 -48 3 -106 28 -106
45 0 6 9 22 19 35 10 13 27 52 37 85 16 54 23 64 54 77 41 17 123 11 168 -12
l31 -16 37 48 c86 108 140 150 209 162 32 6 101 -3 112 -14z m-541 -62 c42
-18 146 -23 212 -11 23 4 42 4 42 0 0 -5 -18 -27 -39 -51 l-40 -43 -32 17
c-26 13 -50 15 -111 11 l-78 -5 0 26 c0 15 -3 37 -6 50 -7 26 1 27 52 6z
m1880 -5 c10 -12 46 -35 79 -51 33 -17 61 -32 63 -33 2 -2 -57 -101 -73 -123
-1 -1 -21 5 -45 13 -53 19 -120 19 -164 1 -44 -18 -116 -88 -116 -113 0 -28
34 -60 77 -72 51 -15 80 -13 132 5 24 8 45 13 48 11 4 -5 -46 -137 -56 -149
-6 -7 -195 12 -268 28 l-32 6 1 -48 c2 -66 -24 -117 -81 -158 -69 -50 -89 -58
-145 -58 -43 0 -54 4 -77 30 -32 36 -45 86 -30 123 5 15 29 40 52 55 23 16 44
34 46 40 2 7 -31 14 -94 20 l-98 9 64 68 c70 73 124 104 250 142 126 38 180
62 234 103 29 22 66 42 82 46 69 15 85 27 102 77 10 27 20 49 24 49 3 0 14 -9
25 -21z m467 -108 c38 -57 101 -84 182 -79 36 2 65 2 65 0 0 -43 -96 -63 -184
-38 -30 9 -69 28 -86 43 -28 23 -31 30 -25 62 7 35 13 51 19 51 2 0 15 -17 29
-39z"/>
<path d="M1921 4055 c-86 -32 -113 -54 -129 -103 -11 -34 -11 -46 0 -69 12
-24 20 -28 51 -27 43 1 99 40 122 84 8 16 15 48 15 71 0 28 6 46 18 55 27 21
-3 17 -77 -11z"/>
<path d="M4680 3530 c0 -5 19 -10 43 -10 30 0 50 -6 65 -20 22 -21 31 -47 12
-35 -15 9 -152 7 -161 -2 -11 -11 24 -109 50 -143 15 -21 26 -25 61 -23 68 3
115 61 101 124 -12 51 -29 78 -64 99 -33 21 -107 27 -107 10z m143 -101 c22
-27 21 -37 -3 -76 -22 -37 -46 -43 -55 -13 -9 27 -51 54 -72 46 -19 -8 -33 9
-33 41 0 25 29 33 100 27 30 -3 51 -11 63 -25z"/>
<path d="M5206 3511 c68 -50 100 -100 34 -54 -17 12 -45 17 -94 17 l-71 1 -3
-53 c-3 -49 0 -56 31 -87 38 -38 72 -50 120 -41 46 9 97 58 97 93 -1 35 -45
101 -89 130 -49 33 -71 28 -25 -6z m36 -79 c18 -12 39 -31 47 -43 12 -21 11
-25 -18 -51 -37 -33 -76 -38 -66 -9 13 41 -49 78 -97 57 -16 -7 -18 -2 -18 34
l0 43 60 -6 c34 -3 73 -14 92 -25z"/>
</g>
</svg>
