<?xml version="1.0" standalone="no"?>
<!DOCTYPE svg PUBLIC "-//W3C//DTD SVG 20010904//EN"
 "http://www.w3.org/TR/2001/REC-SVG-20010904/DTD/svg10.dtd">
<svg version="1.0" xmlns="http://www.w3.org/2000/svg"
 width="694.000000pt" height="784.000000pt" viewBox="0 0 694.000000 784.000000"
 preserveAspectRatio="xMidYMid meet">
<metadata>
Created by potrace 1.16, written by Peter Selinger 2001-2019
</metadata>
<g transform="translate(0.000000,784.000000) scale(0.100000,-0.100000)"
fill="#000000" stroke="none">
<path d="M370 3735 c0 -3313 2 -3735 15 -3735 13 0 15 191 15 1658 l0 1659 22
21 c34 31 79 46 90 30 4 -7 8 -137 8 -288 0 -151 7 -421 16 -600 15 -330 29
-1606 18 -1647 -8 -30 -41 -30 -87 2 -20 13 -39 20 -42 15 -10 -16 5 -31 52
-52 35 -16 76 -21 206 -25 258 -9 293 3 316 108 7 30 14 59 16 66 3 9 19 5 57
-11 64 -29 235 -51 513 -66 105 -6 201 -13 215 -15 14 -3 199 -7 411 -9 l385
-4 34 -31 c19 -17 39 -31 45 -31 5 0 19 -7 29 -15 18 -13 -5 -15 -200 -14
-258 1 -468 -23 -649 -75 -155 -45 -200 -59 -300 -95 -274 -98 -497 -192 -618
-262 -130 -75 -302 -185 -372 -238 -33 -25 -72 -54 -85 -63 l-25 -17 26 0 c15
-1 32 6 39 14 14 16 34 10 24 -7 -4 -7 -2 -8 4 -4 7 4 12 15 12 25 0 17 29 51
43 51 4 0 8 -19 9 -42 1 -40 1 -40 5 -8 10 96 32 111 35 23 l1 -58 6 64 c5 55
10 67 34 85 24 18 29 19 37 6 8 -13 10 -12 10 2 0 15 57 68 73 68 3 0 8 -10
10 -23 4 -18 4 -17 6 6 0 16 5 26 10 23 5 -4 12 0 14 6 4 10 6 10 6 0 1 -7 15
2 32 20 27 29 30 30 26 11 -3 -13 -1 -23 3 -23 5 0 11 -10 13 -22 2 -13 3 -2
0 24 -3 45 -2 48 29 64 24 12 33 14 36 4 3 -7 9 -2 16 12 6 12 19 24 29 26 15
3 17 -6 17 -80 0 -74 -2 -85 -21 -96 -24 -15 -35 -8 -42 28 -3 16 -5 11 -4
-12 1 -27 -4 -42 -18 -52 -26 -20 -33 -20 -38 2 -4 16 -5 16 -6 0 0 -10 -6
-18 -12 -18 -5 0 -8 -4 -5 -9 3 -5 -1 -14 -8 -20 -10 -8 -16 -9 -21 -1 -3 5
-1 10 5 10 6 0 8 10 4 25 -3 14 -2 31 3 38 6 7 5 25 -2 46 -11 32 -12 32 -14
-28 -3 -96 -5 -109 -17 -104 -6 2 -14 -5 -17 -16 -3 -12 -9 -21 -14 -21 -13 0
-15 48 -3 70 6 11 6 21 1 24 -11 7 -21 -28 -21 -76 0 -24 -6 -41 -18 -48 -15
-9 -14 -10 7 -8 13 2 38 16 55 32 l31 29 6 -34 6 -34 2 40 c1 33 6 43 29 56
l28 16 -2 -56 -3 -56 9 60 c10 58 27 85 57 85 9 0 13 -17 13 -57 0 -32 4 -64
9 -71 4 -7 6 23 3 67 l-4 79 58 30 c33 16 69 33 82 36 20 7 22 5 17 -16 -3
-13 -2 -49 3 -80 8 -54 8 -57 -15 -67 -31 -14 -41 -14 -46 2 -2 6 -3 4 -2 -5
2 -10 -10 -26 -29 -37 -51 -33 -15 -24 54 14 36 19 69 35 73 35 4 0 5 -17 1
-37 -6 -33 -5 -35 9 -22 8 8 11 15 6 17 -5 2 -3 13 3 25 7 12 11 26 10 31 -2
5 4 6 13 2 9 -3 14 -2 11 3 -3 5 1 12 10 15 13 5 14 -2 8 -52 -3 -31 -3 -54 0
-51 4 4 9 24 12 45 3 22 9 40 14 42 5 2 7 9 4 16 -3 8 3 16 12 20 19 7 33 -2
19 -12 -6 -4 -11 -32 -12 -62 l-3 -55 15 65 c8 36 17 71 20 78 8 21 24 4 18
-21 -4 -18 -3 -19 6 -7 6 8 11 23 11 33 0 9 5 17 10 17 6 0 10 -8 11 -17 0
-14 2 -13 9 5 12 29 30 29 30 0 1 -13 9 -47 19 -76 17 -48 17 -53 2 -62 -14
-8 -14 -9 -1 -10 9 0 22 6 28 12 10 10 15 10 22 -2 8 -13 10 -12 10 2 0 10 9
22 19 28 17 9 20 6 24 -18 4 -25 4 -25 6 5 1 27 8 36 41 53 l41 21 -6 -26
c-17 -81 -17 -82 0 -61 8 11 12 28 9 39 -4 14 -3 17 7 12 8 -6 11 -4 7 7 -9
21 6 40 25 32 9 -3 14 -10 11 -15 -3 -5 -11 -6 -17 -3 -8 5 -8 3 1 -7 14 -16
16 -33 2 -24 -5 3 -10 2 -10 -4 0 -5 5 -13 10 -16 8 -5 7 -11 -1 -21 -8 -10
-8 -14 0 -14 6 0 11 5 11 11 0 6 7 8 16 5 14 -5 15 -4 5 8 -7 9 -8 17 -2 20 5
3 12 1 14 -4 3 -6 4 -5 2 2 -1 7 -8 12 -14 10 -14 -3 -14 25 0 30 8 3 6 9 -4
20 -18 17 -13 30 9 21 8 -3 14 0 14 6 0 6 7 11 16 11 8 0 12 -4 9 -10 -3 -5
-1 -18 4 -27 9 -16 10 -14 11 9 0 16 8 31 19 37 18 10 19 7 15 -32 -3 -40 -3
-41 4 -7 10 45 19 60 37 60 9 0 12 -7 9 -17 -3 -11 0 -10 7 3 11 21 48 36 122
49 37 7 37 7 38 -26 l2 -34 6 35 c7 38 36 54 44 23 4 -17 5 -17 6 0 0 9 8 17
16 17 12 0 14 -9 10 -42 l-4 -43 10 45 10 46 62 12 c34 6 77 14 95 18 32 7 33
6 27 -22 -6 -28 -6 -28 9 4 8 17 22 32 31 32 9 0 13 -4 10 -10 -3 -5 -1 -10 4
-10 6 0 11 5 11 11 0 5 4 8 9 5 5 -4 12 0 14 6 3 7 6 3 6 -10 1 -15 -3 -21
-11 -16 -6 4 -8 3 -4 -4 3 -6 2 -13 -3 -17 -6 -3 -7 -13 -4 -22 4 -9 2 -14 -3
-10 -9 5 -10 -31 -5 -132 2 -47 13 -12 16 51 4 97 4 100 14 93 5 -3 12 -1 16
5 3 5 0 10 -7 10 -8 0 -9 3 -3 8 6 4 12 16 13 27 5 25 2 22 37 30 21 5 26 4
16 -3 -8 -6 -10 -15 -6 -23 6 -9 3 -11 -10 -5 -16 6 -16 4 -4 -10 12 -14 15
-13 28 15 15 32 31 41 31 19 0 -7 5 -5 11 5 5 9 21 17 34 17 19 0 22 -4 19
-22 l-5 -23 12 23 c15 27 79 33 79 6 0 -13 2 -13 17 2 17 16 18 16 24 -7 4
-14 7 -17 8 -8 1 22 22 29 87 29 48 0 55 -2 50 -17 -3 -10 -8 -31 -12 -47 -7
-28 -7 -28 15 -10 22 19 28 30 11 19 -15 -9 -12 21 3 34 8 6 17 8 21 4 4 -4
12 -1 17 7 7 11 8 5 4 -20 -7 -34 -6 -34 9 -13 13 17 31 24 76 29 33 4 60 10
60 15 0 4 -26 10 -57 12 -45 2 -36 4 37 6 66 2 86 6 65 11 -33 8 -22 16 31 23
27 4 31 2 26 -15 -2 -11 -14 -23 -26 -28 -13 -4 -22 -17 -23 -31 -2 -22 -1
-23 11 -7 7 10 20 18 28 18 14 0 14 -5 2 -37 -7 -21 -13 -67 -12 -103 l1 -65
7 80 c7 87 22 125 46 125 8 0 12 -4 9 -10 -3 -5 -1 -10 4 -10 6 0 11 4 11 10
0 5 8 9 18 7 9 -1 18 1 20 5 19 49 32 95 32 114 0 20 5 24 33 24 69 0 106 -12
110 -34 4 -20 4 -20 6 2 1 17 7 22 30 22 23 0 31 -5 34 -22 l4 -23 2 23 c1 19
7 22 42 22 l42 0 -6 -48 c-3 -26 -11 -61 -19 -76 l-12 -29 -106 6 c-58 4 -121
9 -140 12 l-35 5 38 -11 c34 -10 38 -14 33 -38 l-5 -26 12 28 c17 42 39 35 31
-10 -6 -33 -5 -36 8 -26 8 7 19 9 23 5 5 -4 5 -1 1 6 -4 7 -12 10 -17 7 -5 -4
-9 -2 -9 4 0 12 19 24 43 28 20 3 21 -4 3 -36 -8 -14 -11 -32 -8 -40 4 -10 1
-12 -9 -6 -11 7 -12 6 -3 -6 7 -8 11 -26 9 -42 -2 -15 1 -25 6 -21 5 3 9 0 9
-5 0 -6 -15 -11 -32 -10 -18 0 -27 3 -21 6 7 2 13 9 13 14 0 6 -4 7 -10 4 -6
-3 -10 0 -10 9 0 8 5 17 10 19 6 3 5 4 -2 3 -7 -1 -14 -15 -16 -29 -5 -38 -30
-34 -35 6 l-4 32 -1 -32 c-2 -26 -6 -33 -22 -33 -14 0 -18 -5 -13 -17 4 -11 8
-12 11 -5 6 19 60 15 65 -5 4 -17 5 -17 6 0 1 15 12 17 95 16 l95 -1 4 -32 4
-31 1 33 c2 36 26 44 48 14 13 -16 14 -16 8 1 -5 14 0 17 29 17 35 0 36 -1 40
-42 l4 -43 1 43 c2 42 3 43 35 40 29 -3 33 -7 38 -43 l6 -40 2 43 c1 31 4 41
13 36 7 -4 27 -7 44 -6 29 2 33 -1 37 -25 l4 -28 2 27 c1 23 5 27 24 24 12 -3
52 -5 90 -5 62 -1 67 -3 68 -23 1 -17 2 -19 6 -5 5 19 38 23 49 6 4 -8 8 -8
13 0 11 17 51 1 51 -21 0 -18 1 -18 16 -4 20 21 31 20 37 -1 4 -17 5 -17 6 0
0 9 6 17 11 17 6 0 10 -8 10 -17 0 -14 2 -15 9 -4 7 11 9 11 14 0 4 -10 6 -10
6 -1 1 16 38 16 44 0 4 -9 6 -10 6 -1 1 8 10 9 33 2 18 -5 44 -9 58 -8 14 0
-3 7 -37 14 -35 8 -67 17 -73 20 -13 8 -13 55 1 111 l12 45 51 -6 c62 -9 67
-11 59 -33 -5 -14 -3 -14 9 2 21 27 40 11 34 -27 l-6 -32 15 33 c17 36 39 35
29 -2 -3 -12 -6 -31 -8 -41 -1 -10 -11 -22 -21 -25 -18 -6 -18 -7 1 -12 28 -7
44 1 37 19 -4 11 -2 14 5 9 7 -4 12 -2 12 3 0 6 -6 11 -12 11 -8 0 -9 3 -3 8
6 4 10 13 11 20 2 27 4 32 15 32 7 0 10 -14 7 -35 -5 -43 0 -45 13 -5 10 26
16 30 50 30 32 0 41 -5 49 -23 7 -17 9 -18 9 -4 1 17 17 22 45 11 12 -5 13
-10 5 -26 -6 -11 -8 -22 -6 -25 3 -2 8 5 12 16 3 12 13 21 22 21 10 0 13 -5 8
-17 -3 -10 -8 -31 -11 -48 -3 -19 1 -13 12 18 17 46 43 64 45 30 0 -11 3 -13
6 -5 2 6 14 12 25 12 15 0 18 -4 13 -22 -7 -22 -6 -22 7 -5 12 17 19 17 56 8
39 -11 41 -13 37 -44 l-5 -32 12 31 c11 26 17 29 38 24 20 -5 25 -12 23 -36
-2 -26 -1 -26 7 -8 15 36 34 42 26 8 -7 -29 -7 -29 9 -7 18 25 50 20 40 -6 -5
-13 -4 -14 6 -3 15 14 49 16 49 2 0 -5 15 -10 33 -9 17 0 27 3 20 5 -8 4 -9
13 -3 30 6 15 6 24 0 24 -6 0 -10 -6 -10 -14 0 -21 -20 -30 -33 -16 -9 10 -9
11 2 5 11 -6 13 -4 8 8 -3 9 -1 17 5 19 6 2 13 13 15 24 2 10 5 26 8 34 2 8 4
20 4 26 1 7 8 15 17 18 15 6 15 4 3 -11 -8 -9 -9 -14 -2 -10 7 4 13 0 16 -10
3 -13 5 -12 6 5 1 31 25 23 29 -9 1 -13 -6 -42 -18 -63 -11 -22 -18 -41 -16
-43 8 -8 39 53 43 87 l5 37 49 -15 c49 -16 55 -25 50 -72 -2 -12 0 -13 7 -1 5
7 7 22 5 32 -6 22 6 24 31 6 16 -12 16 -16 3 -55 -8 -23 -11 -42 -6 -42 5 0
11 12 15 28 10 48 14 54 31 50 19 -4 20 -9 8 -47 -5 -16 -4 -21 4 -17 6 4 11
16 11 26 0 26 13 32 35 16 15 -11 16 -16 6 -37 l-12 -24 19 24 c15 19 25 22
46 17 15 -4 26 -13 26 -24 0 -15 2 -15 11 -2 8 11 12 12 16 3 5 -15 53 -18 53
-4 0 5 -5 11 -11 13 -8 3 -6 10 5 21 16 16 16 17 -3 17 -12 0 -21 -6 -21 -15
0 -9 -6 -12 -16 -8 -13 5 -13 7 -2 14 10 7 9 9 -4 9 -9 0 -19 -4 -23 -9 -3 -6
-37 2 -81 17 l-75 27 3 55 c3 58 15 68 35 29 7 -13 13 -18 13 -11 0 10 9 8 36
-7 19 -12 48 -21 64 -21 28 0 29 -2 20 -26 -14 -36 -13 -44 8 -44 14 0 15 2 2
10 -11 7 -11 10 -2 10 7 0 10 5 7 11 -7 10 21 49 36 49 4 0 5 -9 2 -20 -3 -11
-8 -18 -12 -16 -4 3 -7 -4 -8 -14 -1 -11 4 -23 10 -26 7 -4 9 -4 5 1 -4 4 -2
17 3 28 9 16 13 17 21 6 7 -10 8 -8 5 8 -3 13 -1 26 4 29 5 3 9 1 9 -5 0 -6 6
-8 14 -5 11 4 13 0 9 -15 -3 -11 -10 -22 -17 -24 -7 -3 -13 -26 -13 -53 l-2
-49 13 45 c15 54 34 92 44 87 50 -23 62 -32 57 -45 -4 -12 -3 -13 10 -2 12 10
20 9 40 -4 22 -15 24 -20 14 -39 -11 -21 -11 -21 7 -5 23 21 47 9 39 -18 -6
-17 -6 -18 5 -1 13 20 30 23 30 5 0 -7 11 -14 25 -14 14 -1 25 0 25 2 0 2 -28
18 -61 35 -46 22 -59 33 -50 42 6 6 11 18 11 26 0 12 -6 9 -19 -8 -15 -19 -19
-21 -24 -8 -3 8 3 25 14 38 10 12 19 32 19 45 0 17 4 22 15 18 8 -4 15 -16 15
-28 0 -16 2 -18 9 -7 13 20 42 6 35 -16 -5 -15 -4 -16 5 -3 9 13 18 11 68 -17
36 -20 60 -41 65 -55 5 -18 6 -19 7 -4 1 15 4 16 16 6 8 -7 15 -20 16 -29 0
-10 2 -11 6 -3 9 22 23 13 23 -15 0 -25 1 -26 14 -8 12 17 14 17 23 1 6 -12
19 -17 37 -14 24 3 9 15 -106 85 -73 44 -154 92 -180 105 -26 12 -48 26 -48
29 0 7 88 19 143 19 46 0 124 35 139 64 14 25 11 141 -4 169 -6 12 -6 23 0 29
6 6 6 25 0 53 -7 32 -6 55 5 87 l15 43 111 3 111 3 0 -346 c0 -300 2 -345 15
-345 13 0 15 422 15 3735 l0 3735 -3090 0 -3090 0 0 -3735z m6150 1599 l0
-2105 -47 8 c-53 9 -172 11 -218 3 l-30 -5 -11 130 c-6 72 -17 267 -23 435 -7
168 -13 330 -14 360 -2 37 -14 80 -37 130 -89 198 -186 243 -570 262 l-224 12
-43 44 c-41 43 -44 45 -88 39 -25 -4 -59 -14 -75 -22 -21 -11 -53 -15 -106
-13 -72 3 -77 2 -100 -25 -19 -22 -24 -40 -24 -80 0 -40 -8 -67 -39 -127 -22
-41 -42 -93 -46 -115 -12 -76 -24 -94 -69 -107 -22 -6 -49 -18 -58 -26 -24
-20 -23 -73 2 -105 11 -14 20 -39 20 -56 0 -18 9 -38 22 -51 17 -16 19 -23 10
-32 -19 -19 -14 -46 13 -64 20 -13 25 -25 25 -56 0 -31 7 -46 30 -70 23 -22
30 -39 30 -68 0 -33 -5 -41 -37 -60 -21 -13 -32 -25 -26 -27 7 -3 23 3 35 11
28 20 48 20 48 1 0 -9 20 -57 46 -107 30 -62 44 -101 42 -122 -4 -36 3 -37
-118 11 -91 36 -100 38 -210 37 -86 0 -138 -6 -204 -23 -66 -17 -102 -21 -145
-17 -99 12 -226 39 -233 50 -4 6 -8 33 -8 59 l0 49 40 -7 c54 -9 51 7 -4 24
-114 33 -213 198 -177 294 8 21 8 27 -2 27 -7 0 -19 -16 -26 -36 -9 -25 -16
-32 -25 -25 -8 7 -15 4 -24 -9 -13 -21 -90 -63 -135 -74 -32 -8 -70 -42 -62
-56 9 -15 25 -12 25 4 0 8 24 23 56 35 31 12 69 28 86 37 16 8 32 13 35 10 9
-9 -19 -150 -54 -265 -31 -104 -36 -140 -14 -115 22 25 82 262 93 367 2 15 8
27 13 27 6 0 10 -40 11 -98 0 -53 4 -121 8 -151 l9 -54 -26 7 c-14 3 -33 9
-42 13 -13 4 -16 2 -13 -8 10 -30 217 -89 416 -120 84 -13 138 -17 145 -11 46
36 313 59 392 33 112 -37 185 -73 185 -92 0 -24 -7 -23 -100 1 -80 21 -130 26
-114 11 5 -4 41 -16 79 -26 120 -30 125 -32 125 -75 l0 -37 -54 18 c-58 20
-163 39 -171 31 -11 -11 8 -22 38 -22 31 0 105 -19 160 -41 22 -9 27 -18 27
-45 0 -39 -1 -39 -41 -18 -37 19 -177 47 -191 38 -15 -10 12 -24 47 -24 35 0
185 -51 185 -63 0 -18 -35 -18 -108 0 -66 17 -89 18 -152 10 -135 -19 -299 13
-354 68 -12 13 -23 14 -53 6 -53 -13 -251 -23 -301 -15 -34 5 -42 11 -42 28
-1 61 -113 196 -177 212 -45 12 -119 -4 -234 -49 -138 -54 -159 -61 -159 -50
0 5 36 63 79 131 43 67 92 151 107 187 28 64 37 74 49 55 3 -6 23 -10 43 -9
l37 0 -42 19 c-34 15 -43 24 -43 45 0 14 -4 25 -10 25 -5 0 -10 -8 -10 -17 0
-38 -72 -169 -234 -422 -18 -28 -37 -39 -116 -68 -142 -51 -131 -52 -177 9
-22 29 -61 96 -86 148 -25 52 -60 109 -76 127 -17 18 -31 36 -31 42 0 17 65
50 133 68 37 10 67 21 67 25 0 4 -13 14 -30 23 -40 21 -134 148 -164 221 -13
32 -36 104 -51 159 -15 58 -38 117 -54 140 -16 22 -32 51 -36 65 -4 14 -27 50
-51 82 -42 53 -53 79 -36 78 4 -1 21 -19 37 -40 60 -78 75 -37 20 54 -40 66
-40 66 -22 66 6 0 25 -23 41 -50 49 -81 84 -78 66 6 -6 27 -13 57 -16 67 -3 9
-1 17 3 17 5 0 19 -31 32 -70 12 -38 26 -72 32 -75 14 -9 29 41 29 100 0 30 5
57 11 60 7 5 10 -13 8 -56 -3 -62 17 -159 33 -159 4 0 8 3 8 8 0 4 9 22 21 41
33 54 45 24 15 -34 -15 -26 -26 -61 -26 -77 0 -17 -7 -45 -16 -64 -16 -34 -16
-36 16 -100 36 -74 123 -184 145 -184 22 0 19 6 -27 55 -62 66 -120 164 -115
195 18 98 31 147 48 181 34 64 0 112 -45 64 -30 -32 -36 -20 -36 76 0 45 -6
81 -16 101 -23 44 -34 87 -24 93 13 8 26 -15 53 -90 23 -66 48 -92 60 -63 2 8
-1 45 -9 83 -17 88 -17 98 -2 93 11 -4 41 -120 55 -211 l5 -38 38 41 c57 61
85 48 36 -18 -13 -18 -26 -50 -30 -71 -3 -21 -15 -50 -27 -65 -21 -26 -21 -31
-9 -97 18 -102 92 -228 126 -215 9 4 11 -9 7 -49 -4 -42 -2 -61 11 -81 25 -37
12 -41 -28 -10 -40 30 -46 32 -46 11 0 -8 21 -26 46 -41 38 -22 48 -25 56 -13
6 9 8 -3 3 -40 -8 -69 -44 -141 -91 -179 -45 -38 -42 -59 15 -89 66 -35 150
-32 229 8 86 42 105 69 99 139 -4 49 -8 58 -46 91 -23 21 -74 51 -114 67 -102
42 -143 106 -100 154 14 16 15 23 5 38 -7 11 -12 24 -12 30 0 13 67 13 75 0 4
-6 11 -8 16 -5 12 8 12 75 -1 75 -5 0 -10 -7 -10 -15 0 -21 -20 -19 -46 6 -28
27 -21 49 17 49 16 0 29 5 29 10 0 6 -7 10 -16 10 -23 0 -44 25 -44 53 0 30
15 37 66 30 38 -5 41 -3 91 55 64 73 126 105 195 100 35 -2 48 1 48 10 0 10
-15 13 -60 10 l-60 -3 -2 35 -1 35 -4 -37 c-5 -45 -42 -75 -44 -36 -1 19 -3
18 -8 -6 -3 -16 -11 -31 -17 -33 -13 -4 -64 77 -64 102 0 9 -4 14 -9 10 -14
-8 -32 29 -41 84 -7 42 -8 43 -9 11 l-1 -35 -25 37 c-14 20 -25 40 -25 43 0 4
44 5 98 1 53 -3 105 -5 115 -6 13 0 17 -10 19 -42 l1 -43 4 43 4 42 70 0 69 0
0 -114 c0 -113 0 -115 27 -136 16 -13 37 -20 50 -17 13 2 28 -2 34 -9 6 -8 17
-14 24 -14 7 0 18 -7 25 -15 20 -24 32 -17 15 8 -8 13 -19 61 -24 108 l-8 84
-3 -65 c-2 -36 -3 -73 -2 -82 3 -31 -15 -20 -22 13 -10 50 -7 234 3 223 5 -5
11 -25 14 -44 l4 -35 1 38 c2 35 4 37 36 37 19 0 42 -7 50 -16 9 -8 16 -11 16
-5 0 6 7 11 15 11 10 0 16 -11 17 -32 l1 -33 4 33 c5 34 13 37 72 26 19 -4 31
-13 31 -22 0 -13 3 -12 15 4 14 19 14 18 15 -3 0 -13 -4 -23 -10 -23 -5 0 -37
-18 -71 -40 -34 -22 -66 -40 -71 -40 -4 0 -9 24 -10 53 l-2 52 -3 -55 c-3 -45
-9 -59 -31 -77 -72 -57 35 -19 136 50 24 16 47 25 52 21 4 -5 15 -30 25 -56
35 -94 135 -158 246 -158 57 0 197 40 245 69 79 48 114 141 94 244 -6 34 -18
73 -27 86 l-15 24 53 -7 c30 -4 102 -8 160 -10 66 -3 119 -10 143 -20 51 -21
73 -21 56 -1 -21 25 -80 37 -230 46 -185 11 -194 11 -198 -1 -6 -17 -71 -11
-110 9 -41 22 -105 79 -100 89 19 38 47 73 65 81 24 11 59 71 81 136 7 22 14
85 16 140 l3 100 861 3 862 2 0 985 0 985 -1082 -2 -1083 -3 0 -683 c0 -678 0
-683 -20 -677 -11 3 -54 8 -95 11 l-76 7 -18 61 c-14 49 -28 71 -71 113 -85
82 -100 85 -502 81 l-338 -3 -53 -29 c-30 -17 -67 -47 -84 -68 -16 -21 -36
-38 -44 -38 -8 0 -26 -7 -39 -16 -23 -15 -24 -15 -39 19 -19 48 -51 65 -77 41
-15 -14 -21 -14 -34 -4 -13 11 -15 87 -15 601 l0 589 -960 0 -960 0 0 -985 0
-985 715 0 c433 0 715 -4 715 -9 0 -5 15 -26 34 -45 26 -28 35 -49 42 -93 14
-91 8 -173 -15 -233 -25 -65 -26 -77 -6 -60 8 7 25 44 36 82 l21 70 37 -59
c38 -59 169 -182 250 -234 66 -43 110 -37 205 26 l28 19 -4 -115 c-3 -63 -8
-122 -12 -131 -5 -11 -4 -18 3 -18 18 0 34 81 35 181 2 93 3 98 33 132 27 31
39 37 92 43 124 14 196 -32 328 -209 79 -105 183 -261 183 -274 0 -4 -18 -27
-40 -51 -35 -37 -43 -41 -61 -32 -29 16 -66 5 -86 -26 -14 -22 -15 -31 -5 -57
8 -21 9 -33 2 -35 -13 -5 -13 -38 0 -63 8 -13 7 -19 0 -19 -6 0 -15 -11 -20
-25 -12 -32 -21 -31 -47 3 -35 47 -60 105 -73 165 -10 52 -10 59 9 83 11 14
24 42 27 63 4 20 18 53 31 73 45 67 12 113 -48 69 -22 -16 -30 -18 -33 -9 -17
53 -26 89 -32 130 -3 27 -14 54 -26 65 -19 17 -20 17 -35 -2 -14 -19 -13 -50
3 -135 3 -14 -8 7 -23 45 -23 56 -33 71 -52 73 -13 2 -28 -2 -32 -10 -11 -15
-2 -62 17 -100 21 -41 -2 -35 -28 7 -30 46 -63 45 -63 -1 0 -17 -6 -39 -14
-48 -12 -15 -13 -25 -3 -62 7 -24 12 -49 12 -54 0 -17 -18 -11 -24 8 -3 9 -16
30 -29 46 -18 22 -28 27 -45 22 -26 -9 -28 -26 -6 -67 15 -30 15 -30 -6 -19
-16 9 -25 8 -36 -1 -22 -18 -18 -31 34 -100 38 -52 92 -147 92 -163 0 -2 -17
2 -37 10 -134 47 -404 -36 -555 -172 -23 -20 -43 -31 -55 -28 -11 3 -43 -11
-78 -34 -68 -44 -130 -60 -139 -35 -3 8 -6 45 -6 81 0 51 5 73 20 92 25 33 28
59 3 39 -15 -13 -16 -11 -10 13 4 14 10 34 14 43 4 13 2 16 -8 13 -25 -8 -38
-79 -37 -199 1 -63 -2 -121 -6 -127 -13 -21 -69 -45 -118 -52 l-46 -6 -18 55
c-10 31 -27 63 -37 72 -22 18 -16 57 15 102 17 23 26 27 71 27 54 1 77 13 110
60 9 13 17 34 17 46 0 11 14 35 30 52 16 18 30 36 30 41 0 16 -30 41 -50 41
-24 0 -50 10 -50 20 0 4 20 15 45 25 44 16 75 53 75 89 0 8 9 20 20 26 10 6
25 28 31 51 11 35 10 43 -8 67 -16 20 -28 26 -50 24 -41 -4 -57 19 -80 110
l-19 78 70 29 c39 16 89 34 111 39 96 24 92 24 100 -6 23 -92 184 -295 315
-398 59 -46 186 -124 203 -124 21 0 1 22 -35 41 -84 43 -184 118 -254 190
-120 126 -214 267 -214 324 0 21 -4 25 -23 20 -12 -3 -44 -10 -72 -15 -27 -6
-88 -27 -134 -47 l-84 -36 -26 30 c-14 16 -38 38 -53 47 -44 28 -37 -5 8 -40
44 -35 80 -103 90 -169 8 -59 52 -111 85 -102 32 9 49 -3 49 -32 0 -40 -26
-71 -61 -71 -31 0 -40 -17 -14 -26 26 -10 17 -43 -17 -64 -40 -24 -90 -27 -82
-5 4 8 2 15 -3 15 -17 0 -33 -24 -33 -49 0 -21 10 -31 45 -49 25 -12 54 -22
65 -22 11 0 20 -4 20 -8 0 -17 -25 -32 -54 -32 -28 0 -29 -1 -11 -20 20 -23
15 -54 -16 -93 -17 -23 -28 -27 -72 -27 -35 0 -62 7 -82 20 -49 32 -64 19 -24
-21 l21 -21 -21 -38 c-12 -21 -24 -59 -27 -84 -4 -25 -10 -46 -15 -46 -47 0
-197 120 -214 172 -4 10 -1 28 6 40 8 14 14 18 17 10 9 -29 31 -10 38 34 7 51
28 66 49 38 21 -29 29 -10 10 25 -18 35 -16 35 -48 20 -50 -23 -137 49 -137
113 0 39 32 62 77 55 21 -3 47 -8 57 -13 17 -6 18 -4 12 17 -4 13 -11 51 -14
84 -4 33 -11 66 -16 73 -5 9 1 24 20 43 33 34 19 39 -22 7 -16 -12 -30 -22
-32 -23 -1 -1 2 -15 7 -31 5 -16 12 -51 15 -77 6 -48 6 -48 -16 -32 -27 18
-39 19 -32 2 2 -7 -8 -17 -25 -24 -36 -13 -64 -64 -56 -102 8 -39 62 -101 102
-117 31 -13 42 -32 26 -47 -3 -4 -12 -2 -19 4 -11 9 -15 7 -20 -7 -3 -11 -11
-30 -17 -44 l-11 -25 -4 25 c-5 33 -18 48 -63 71 -57 29 -152 121 -183 179
-21 39 -29 67 -31 118 -3 94 -20 88 -19 -6 1 -80 13 -115 61 -179 20 -26 27
-50 33 -125 l8 -93 -1 83 c-1 45 0 82 3 82 20 0 30 -33 32 -105 l2 -80 3 76 4
77 54 -36 c74 -49 75 -78 8 -145 -33 -34 -49 -44 -55 -35 -5 9 -8 8 -8 -5 0
-10 -6 -28 -12 -40 -12 -20 -14 -14 -19 48 l-5 70 -2 -93 c-2 -82 -7 -105 -39
-189 l-38 -95 -6 88 -5 89 -2 -115 c-1 -63 -8 -133 -15 -155 l-12 -40 -6 85
-5 85 -2 -113 c-2 -95 -21 -211 -37 -230 -2 -2 -17 9 -34 24 -30 27 -31 29
-33 128 l-2 101 -3 -92 c-3 -73 -7 -93 -18 -93 -13 0 -15 28 -17 163 l-2 162
-3 -159 -4 -158 -22 6 c-12 4 -38 10 -58 13 l-37 5 -10 107 -10 106 5 -107 c4
-90 3 -108 -10 -108 -11 0 -16 24 -21 118 -4 64 -14 184 -22 265 -9 81 -13
155 -10 164 3 8 1 44 -6 78 -9 49 -8 87 1 164 14 116 31 174 65 215 l23 30 17
-90 c9 -49 16 -98 17 -109 0 -12 3 -15 6 -7 3 7 -3 56 -12 108 -9 52 -14 101
-11 109 10 28 24 15 35 -32 l10 -48 -5 43 c-2 24 -5 48 -7 53 -2 11 63 51 100
63 19 6 24 2 32 -26 l11 -33 -6 39 c-4 28 -2 37 8 34 17 -6 35 -71 58 -218 14
-89 18 -104 14 -54 -5 69 -35 231 -49 266 -7 18 1 23 63 42 20 7 22 4 22 -31
l1 -38 17 50 c36 105 112 206 186 250 27 16 83 31 161 45 116 20 209 54 235
85 19 23 -5 19 -53 -9 -23 -13 -80 -32 -127 -41 -116 -23 -218 -52 -244 -68
-38 -25 -97 -91 -133 -149 -29 -47 -43 -60 -82 -74 -268 -98 -330 -153 -366
-324 -19 -91 -19 -286 0 -455 8 -71 18 -193 22 -271 l6 -141 -77 -6 c-56 -4
-89 -12 -122 -31 -26 -14 -48 -26 -50 -26 -2 0 -4 918 -4 2040 l0 2040 3060 0
3060 0 0 -2106z m-3962 1292 c1 -419 -1 -583 -9 -592 -16 -19 -35 -17 -68 7
-23 17 -33 19 -50 10 -11 -6 -25 -20 -31 -31 -13 -24 -36 -26 -44 -4 -3 9 -6
63 -6 120 0 66 -4 104 -11 104 -6 0 -9 -36 -8 -102 2 -94 0 -103 -20 -116 -11
-8 -21 -25 -21 -38 0 -20 -5 -24 -28 -24 -35 0 -52 -16 -52 -51 0 -25 -4 -28
-37 -31 -30 -2 -39 -8 -41 -25 -2 -12 6 -30 19 -42 19 -17 20 -21 6 -21 -21 0
-40 -35 -32 -59 4 -14 -2 -21 -25 -29 -24 -9 -30 -17 -30 -39 0 -16 7 -39 16
-52 16 -22 16 -24 0 -33 -9 -5 -16 -18 -16 -28 0 -22 5 -21 -142 -22 -54 -1
-95 -4 -93 -9 3 -4 -16 -5 -42 -2 -27 3 -56 5 -65 5 -17 -2 -36 -2 -78 -2 -11
0 -27 1 -35 1 -8 0 -32 0 -52 0 -79 2 -153 -4 -153 -12 0 -15 130 -11 131 4 0
10 2 10 6 0 6 -16 173 -18 173 -3 0 6 5 10 11 10 5 0 7 -4 4 -10 -4 -7 48 -10
150 -10 102 0 154 3 150 10 -3 6 -1 10 4 10 6 0 11 -11 11 -25 l0 -25 -597 -2
-598 -3 593 -2 592 -3 0 -60 c0 -34 7 -77 15 -97 8 -19 15 -37 15 -39 0 -2
-315 -4 -699 -4 -628 0 -699 2 -705 16 -8 22 -8 1919 1 1927 3 4 430 6 947 5
l941 -3 3 -579z m3670 -371 c1 -522 0 -960 -3 -972 l-5 -23 -853 0 -852 0 -24
83 c-13 45 -25 87 -28 94 -3 7 10 13 34 16 l38 4 -41 1 c-32 2 -43 6 -47 22
-5 20 0 20 774 20 l779 0 0 735 c0 694 -1 735 -17 734 -11 0 -13 -3 -5 -6 9
-4 12 -159 12 -729 l0 -724 -150 0 c-82 0 -150 3 -150 8 0 4 -3 17 -6 30 -6
20 -3 22 30 22 20 0 36 2 36 4 0 2 -15 19 -33 38 -22 21 -42 58 -57 102 -20
61 -22 82 -18 190 4 81 2 113 -4 96 -5 -14 -8 -79 -6 -146 3 -116 4 -123 40
-195 20 -40 36 -74 35 -75 -1 -1 -18 3 -38 10 -65 23 -162 137 -173 203 -7 36
-9 38 -43 38 l-36 0 7 -94 c6 -83 12 -123 31 -208 4 -19 1 -23 -19 -23 -22 0
-24 4 -30 81 -4 45 -14 102 -22 127 -13 43 -12 48 4 61 16 12 15 13 -5 8 -21
-5 -23 -1 -25 31 -1 36 -1 37 -5 5 -2 -17 5 -62 16 -98 13 -42 21 -95 21 -141
l0 -74 -245 0 c-135 0 -245 3 -245 8 0 33 144 186 228 243 42 28 69 49 60 46
-10 -4 -48 -26 -85 -51 -68 -45 -146 -125 -198 -203 l-28 -43 -223 0 c-123 0
-224 4 -224 8 0 5 -20 38 -45 75 l-45 67 0 349 0 348 23 12 22 11 -23 -6 -23
-6 3 301 c2 166 0 301 -4 301 -5 0 -8 -291 -8 -647 l0 -647 -37 36 c-40 38
-152 113 -184 123 -18 6 -19 27 -19 684 0 373 3 681 7 684 3 4 484 6 1067 5
l1061 -3 3 -950z m-2513 -169 c63 -30 110 -78 130 -135 16 -46 20 -91 8 -91
-5 0 -17 -3 -29 -6 -18 -5 -22 0 -27 26 -9 41 -54 104 -92 127 -65 40 -82 42
-380 40 l-290 -1 300 -6 c165 -3 309 -9 320 -14 44 -20 79 -51 106 -94 41 -65
38 -84 -16 -110 -25 -12 -45 -29 -45 -37 0 -8 -6 -15 -12 -15 -35 0 -141 -64
-207 -125 l-74 -68 -56 6 c-36 4 -50 3 -41 -3 21 -13 97 -12 123 2 12 6 44 31
72 55 58 53 136 94 223 118 70 20 81 32 25 28 l-38 -3 55 28 c50 25 64 27 165
26 123 -1 165 -12 250 -69 102 -67 205 -195 246 -305 47 -124 61 -206 57 -329
-4 -108 -6 -121 -37 -180 -31 -61 -51 -79 -32 -30 5 14 12 63 16 109 6 69 3
101 -14 174 -20 83 -63 167 -79 152 -3 -4 4 -19 16 -35 35 -48 64 -200 56
-296 -8 -91 -35 -174 -66 -201 -21 -19 -21 -19 -14 1 8 20 20 179 12 160 -3
-5 -7 -37 -11 -69 -4 -33 -10 -54 -14 -48 -4 6 -17 -10 -30 -39 -26 -54 -49
-79 -37 -38 5 13 10 71 13 128 4 84 2 115 -13 163 -11 32 -22 58 -26 58 -11 0
-10 -8 7 -64 31 -103 13 -278 -36 -340 -29 -36 -14 -48 16 -13 13 15 28 27 33
27 12 0 62 72 63 91 0 9 2 10 5 2 3 -6 -2 -26 -11 -43 -16 -31 -12 -58 4 -32
6 10 20 1 52 -31 56 -56 97 -77 165 -84 52 -6 54 -7 64 -42 5 -20 10 -65 10
-100 0 -54 -5 -71 -26 -102 -33 -49 -54 -62 -150 -95 -167 -58 -306 -18 -365
104 -21 42 -21 46 -5 72 20 34 21 92 2 129 -13 24 -13 31 1 60 11 21 19 28 23
20 16 -26 30 33 30 128 0 145 -30 218 -126 302 -25 21 -58 58 -75 80 -16 22
-45 51 -64 63 -49 32 -44 44 6 16 93 -52 227 -213 270 -326 29 -77 37 -189 15
-233 -19 -38 -18 -39 11 -28 33 12 65 83 69 153 l3 61 -8 -50 c-5 -27 -15 -63
-22 -80 -12 -29 -13 -27 -20 50 -12 140 -69 251 -197 382 -109 112 -291 191
-537 234 l-65 11 20 28 c29 40 74 66 153 85 68 18 94 39 35 29 -91 -16 -143
-37 -179 -72 -20 -21 -38 -44 -41 -52 -4 -12 -13 -9 -47 14 -72 50 -129 147
-155 263 -17 76 -64 209 -65 183 0 -8 7 -33 15 -55 8 -22 24 -77 34 -123 32
-137 113 -263 193 -297 27 -11 27 -11 7 -30 -11 -10 -20 -26 -20 -37 0 -19
-25 -25 -35 -7 -4 6 -13 8 -21 5 -7 -3 -19 3 -26 13 -7 10 -23 21 -35 25 -14
4 -23 15 -23 27 0 18 -10 23 -37 20 -21 -3 -53 49 -47 75 5 18 -1 31 -20 51
-28 28 -32 38 -16 48 12 8 13 42 1 49 -5 4 -7 -2 -4 -13 3 -10 0 -22 -6 -25
-7 -4 -13 8 -17 33 -4 27 -14 46 -30 56 -19 12 -22 20 -15 38 13 34 -7 67 -40
67 -24 0 -28 4 -26 27 2 22 -3 29 -20 31 -13 2 -23 6 -23 10 0 9 48 58 75 77
11 8 14 15 8 15 -18 0 -93 -77 -93 -95 0 -8 -4 -15 -10 -15 -5 0 -10 8 -10 19
0 10 -9 29 -19 43 l-20 25 42 41 c73 71 70 70 462 71 348 1 350 1 400 -23z
m-1230 -76 c22 -24 42 -25 67 -4 16 16 18 16 24 0 8 -20 40 -21 48 -1 10 26
35 16 50 -20 18 -43 39 -52 71 -31 37 24 64 20 76 -11 24 -61 24 -61 66 -49
21 7 22 5 17 -23 -6 -30 -6 -31 31 -31 l38 0 -7 -41 c-6 -35 -3 -44 14 -56 11
-8 20 -25 20 -38 0 -13 5 -27 10 -30 6 -3 10 -14 10 -25 0 -13 -5 -17 -20 -13
-11 3 -20 14 -20 25 0 56 -46 79 -56 28 -7 -35 -19 -38 -36 -10 -17 27 -34 25
-50 -7 -17 -36 -36 -40 -47 -11 -5 13 -16 29 -24 36 -13 11 -18 9 -30 -8 -25
-36 -51 -22 -55 28 -4 48 -22 63 -54 43 -26 -16 -33 -8 -33 42 0 38 -3 42 -27
45 -21 3 -30 -3 -43 -28 -17 -32 -40 -32 -30 1 7 21 -10 27 -18 7 -3 -9 -12
-6 -29 10 -30 27 -40 28 -63 2 -16 -17 -17 -25 -7 -59 16 -51 17 -48 -20 -57
-43 -9 -59 -31 -53 -71 5 -26 2 -33 -10 -33 -14 0 -20 -17 -16 -48 1 -6 -9
-16 -22 -21 -28 -11 -39 -33 -32 -64 4 -16 -2 -27 -20 -40 -23 -17 -24 -17
-36 5 -6 13 -26 37 -45 55 -33 31 -43 53 -24 53 5 0 14 9 19 19 8 14 6 25 -9
44 -28 35 -25 51 11 64 28 11 31 15 26 43 -6 26 -3 32 18 40 31 12 32 27 4 57
-24 24 -19 29 31 35 20 2 26 10 30 38 4 31 9 36 40 40 29 4 36 10 38 33 3 26
25 37 37 17 3 -5 15 -15 26 -20 16 -9 22 -6 40 25 24 39 47 44 74 15z m-5
-232 c0 -21 43 -5 58 22 25 45 41 38 39 -17 l-2 -48 43 2 c41 2 42 1 42 -29 0
-55 51 -88 80 -53 15 18 30 19 30 2 0 -7 6 -22 14 -32 12 -17 17 -18 39 -6 14
7 28 23 31 34 l5 22 21 -23 c11 -12 24 -22 28 -22 14 0 32 24 32 42 0 10 5 18
11 18 6 0 10 -10 9 -22 -4 -39 0 -48 16 -48 12 0 14 -5 9 -17 -5 -10 -12 -50
-16 -89 -5 -39 -13 -82 -18 -95 -9 -24 -9 -24 -51 20 -33 34 -44 41 -51 30 -5
-8 -9 -17 -9 -21 0 -14 62 -78 75 -78 23 0 26 -16 11 -82 -8 -34 -17 -102 -21
-150 -11 -151 -66 -268 -174 -371 -56 -54 -146 -107 -181 -107 -46 0 -271 199
-319 284 -32 55 -61 157 -61 216 0 27 -5 38 -22 45 -51 23 -98 160 -82 237 18
85 84 46 100 -60 8 -52 28 -51 32 1 2 26 10 42 28 53 17 12 24 25 24 49 0 24
7 37 25 49 15 10 25 26 25 40 0 13 7 27 16 30 12 5 15 15 12 39 -7 43 -1 57
26 57 12 0 31 6 41 14 18 13 18 19 8 57 -17 63 -2 77 43 41 19 -15 34 -30 34
-34z m3009 0 c16 -51 92 -153 130 -172 34 -18 46 -33 55 -68 l6 -28 -104 0
-104 0 -10 48 c-11 48 -17 85 -27 160 -5 40 -4 42 22 43 l28 2 -27 4 c-22 3
-28 10 -28 29 0 19 5 24 23 24 19 0 26 -8 36 -42z m-2412 -189 c7 -7 10 -24 7
-38 -7 -32 28 -81 57 -81 12 0 23 -10 29 -25 6 -15 17 -25 29 -25 11 0 22 -8
25 -18 4 -13 23 -22 59 -30 216 -44 296 -70 412 -133 76 -41 223 -170 259
-228 29 -45 53 -121 62 -189 10 -76 29 -50 29 38 0 63 2 69 23 73 21 4 22 1
22 -57 0 -70 -26 -147 -71 -212 -38 -56 -65 -74 -109 -74 -41 1 -60 14 -77 53
-10 22 -19 27 -48 27 -49 0 -53 21 -14 69 31 40 32 41 14 61 -23 26 -48 27
-41 2 8 -25 -23 -51 -68 -59 -32 -5 -36 -3 -36 15 0 11 -5 24 -10 27 -6 4 -8
15 -5 25 3 10 1 21 -5 25 -5 3 -10 2 -10 -4 0 -41 -95 -56 -131 -20 l-20 20
22 36 c15 23 23 53 23 83 1 40 -6 57 -47 118 -45 68 -81 171 -65 188 16 15
222 -69 290 -119 34 -25 118 -134 118 -154 0 -7 5 -13 10 -13 15 0 12 17 -14
73 -46 99 -129 192 -207 233 -40 20 -60 17 -23 -4 54 -30 123 -85 140 -110 9
-13 12 -22 7 -19 -6 4 -33 22 -61 41 -28 19 -88 46 -134 61 -128 42 -177 65
-184 87 -4 15 -9 17 -17 9 -7 -7 -62 -11 -148 -11 -184 0 -231 18 -179 70 11
11 20 29 20 39 0 11 8 33 18 50 14 25 15 34 4 51 -22 35 17 77 45 49z m498
-194 c125 -32 185 -55 185 -69 0 -6 19 -23 43 -38 38 -24 107 -90 107 -102 0
-2 16 -29 35 -61 33 -55 92 -212 83 -221 -3 -2 -12 21 -22 52 -14 43 -33 72
-89 131 -162 170 -269 226 -554 288 -23 5 -31 33 -15 49 12 13 119 -1 227 -29z
m-417 -73 c91 -2 162 -8 162 -13 0 -5 11 -14 25 -21 13 -6 22 -15 19 -19 -6
-11 -395 -12 -410 -1 -7 5 -8 18 -2 40 7 27 13 32 26 26 9 -4 90 -10 180 -12z
m34 -82 l176 0 11 -50 c11 -53 44 -124 61 -135 15 -9 50 -81 50 -103 0 -11
-11 -40 -25 -66 -19 -36 -22 -51 -15 -71 17 -45 81 -64 149 -44 9 2 17 -6 21
-21 6 -23 11 -25 57 -25 l51 1 -5 -32 c-4 -26 -1 -34 17 -44 12 -6 30 -10 41
-7 18 5 57 -38 45 -50 -3 -3 -38 -1 -78 5 -40 6 -179 14 -309 18 l-236 6 -67
79 c-87 101 -140 129 -244 129 l-73 0 19 28 c52 74 92 199 92 291 0 21 3 53 6
71 7 31 9 32 43 26 20 -3 116 -6 213 -6z m2068 -625 c17 -9 30 -19 30 -24 0
-4 11 -20 25 -35 20 -22 33 -26 77 -26 33 0 67 -7 88 -18 32 -17 45 -36 80
-113 6 -14 26 -33 44 -43 18 -9 40 -30 49 -46 21 -34 22 -106 2 -140 -19 -33
-19 -81 0 -106 24 -32 18 -69 -22 -121 -32 -41 -38 -56 -39 -100 -1 -62 -12
-79 -62 -87 -25 -3 -49 -17 -72 -41 -42 -43 -76 -46 -90 -9 -10 25 -14 26 -60
22 -32 -3 -57 0 -67 8 -16 11 -11 18 49 74 80 73 93 108 59 166 -12 20 -21 44
-20 53 3 34 -2 35 -21 4 -14 -23 -27 -33 -44 -33 -29 0 -56 -24 -56 -49 0 -23
-26 -45 -68 -59 -29 -10 -33 -9 -30 5 2 9 17 21 35 27 49 17 57 29 44 67 -16
45 -14 54 14 87 36 43 33 75 -10 101 -44 25 -52 45 -36 85 10 28 9 33 -14 54
-15 12 -39 22 -56 22 -26 0 -29 3 -29 34 0 42 -46 86 -91 86 -22 0 -30 6 -35
25 -7 30 0 63 22 90 13 17 25 20 84 17 49 -2 87 4 127 18 32 10 59 19 61 20 2
0 16 -7 32 -15z m-1580 -32 l33 -6 -5 -114 c-3 -62 -8 -116 -10 -119 -11 -10
-56 19 -67 43 -6 13 -11 64 -11 113 0 98 -1 96 60 83z m1912 -105 l2 -53 3 54
4 53 57 -7 c31 -5 67 -7 80 -7 21 2 22 -3 24 -66 l2 -67 3 63 c4 66 5 67 62
56 22 -5 31 -12 32 -28 1 -17 2 -18 6 -3 9 36 38 14 44 -33 l6 -45 1 43 c1 23
5 42 8 42 11 0 68 -34 92 -54 12 -11 22 -31 23 -45 0 -23 1 -24 8 -6 8 19 8
19 19 -2 7 -12 12 -34 13 -50 0 -23 2 -25 8 -9 6 16 13 5 36 -50 27 -66 28
-79 36 -304 8 -241 23 -516 35 -651 l7 -75 -44 -11 c-24 -6 -52 -14 -61 -17
-13 -6 -17 -1 -21 26 -3 30 -4 30 -5 -8 -2 -43 -27 -68 -35 -36 -3 12 -5 10
-6 -6 0 -13 -11 -33 -24 -45 -42 -40 -95 -117 -104 -150 -7 -26 -9 -17 -14 53
l-5 85 -2 -83 c-2 -62 -5 -83 -14 -80 -7 3 -16 22 -19 44 -5 30 -7 32 -8 12 0
-16 -5 -28 -10 -28 -4 0 -31 25 -60 55 l-52 54 3 122 c3 122 3 122 28 126 14
2 30 10 37 19 7 10 19 13 32 9 17 -5 21 -15 22 -48 l2 -42 6 37 c4 26 10 35
18 30 8 -5 13 -43 16 -107 l3 -100 2 101 c2 97 3 103 27 118 14 9 33 33 42 51
9 19 20 35 24 35 4 0 14 3 23 6 14 5 16 -7 16 -102 0 -59 2 -105 5 -102 3 2 5
82 6 176 1 137 4 172 14 172 9 0 15 -15 18 -37 4 -36 4 -36 3 5 0 33 5 46 22
58 29 20 29 72 1 108 -16 20 -19 30 -10 39 14 14 15 54 1 62 -5 3 -11 48 -12
98 l-2 92 -5 -87 c-5 -70 -9 -86 -19 -79 -10 6 -14 39 -15 122 -1 63 -3 93 -5
66 l-3 -47 -26 30 c-26 32 -82 66 -84 53 -1 -5 -5 6 -9 22 l-8 30 -1 -27 c-1
-18 -8 -29 -23 -34 -12 -3 -28 -13 -36 -20 -11 -12 -18 -10 -43 8 l-29 22 -2
120 -2 121 -6 -124 c-3 -85 -9 -126 -17 -128 -10 -4 -13 44 -16 204 l-2 208
-3 -217 c-1 -120 -6 -218 -11 -218 -14 0 -34 58 -28 82 3 13 11 42 17 66 18
75 -10 146 -72 178 -16 8 -28 21 -28 29 0 8 -4 15 -10 15 -5 0 -10 25 -10 55
0 70 19 72 22 3z m-575 -63 c15 -11 21 -25 20 -51 -1 -39 13 -54 53 -54 44 -1
54 -13 41 -50 -13 -39 2 -78 37 -96 43 -21 48 -32 25 -56 -33 -35 -44 -73 -32
-105 12 -33 5 -53 -20 -53 -10 0 -29 -9 -42 -19 -22 -18 -23 -22 -11 -53 17
-49 15 -68 -8 -68 -11 0 -20 -4 -20 -10 0 -14 46 -12 58 3 5 6 12 23 14 36 2
17 12 27 31 32 16 4 35 16 42 25 12 17 13 17 30 1 21 -22 13 -44 -17 -49 -25
-3 -28 -21 -4 -26 9 -2 27 8 42 23 25 25 25 27 9 51 -13 20 -14 28 -4 40 6 8
18 14 26 14 10 0 13 6 9 16 -11 28 28 11 42 -19 12 -24 11 -31 -6 -58 -25 -40
-109 -109 -133 -109 -11 0 -22 7 -25 15 -8 21 -24 19 -24 -3 0 -22 19 -42 38
-42 8 0 23 -12 35 -26 18 -24 25 -26 69 -21 45 6 50 4 60 -18 6 -14 19 -27 30
-30 10 -4 18 -10 18 -15 0 -6 -12 -5 -27 1 -15 5 -38 7 -51 4 -21 -5 -22 -4
-12 16 22 40 0 32 -47 -17 l-47 -49 -6 61 c-4 33 -10 66 -14 72 -9 15 -53 16
-61 1 -5 -7 -15 -5 -31 6 -27 18 -59 13 -68 -11 -5 -13 -10 -13 -38 2 -31 16
-32 16 -53 -10 -26 -32 -52 -33 -96 -3 -30 20 -34 29 -37 70 -3 40 -7 50 -28
59 -13 6 -24 15 -24 19 0 17 44 31 82 26 36 -5 39 -3 36 16 -3 19 -8 22 -46
19 -53 -5 -95 19 -90 51 2 13 12 23 27 27 33 8 41 32 10 30 -46 -4 -57 0 -69
29 -14 36 1 71 31 71 34 0 76 28 87 57 6 15 15 51 22 78 6 28 25 76 42 108 29
53 33 57 67 57 20 0 46 -7 58 -15z m-2302 -345 c55 -27 59 -44 8 -33 -21 4
-60 7 -88 6 -59 -3 -183 -31 -191 -44 -8 -13 27 -11 82 6 73 22 181 20 222 -5
17 -11 32 -24 32 -29 0 -5 -37 -6 -86 -3 -72 4 -98 1 -160 -18 -41 -13 -74
-27 -74 -32 0 -12 11 -10 82 12 81 25 162 26 208 1 62 -33 46 -46 -51 -42 -87
3 -190 -17 -204 -40 -12 -18 -1 -18 55 1 69 24 157 26 188 4 38 -27 21 -39
-54 -39 -61 0 -80 -5 -145 -37 -41 -20 -103 -60 -138 -88 -34 -28 -79 -57 -98
-65 -43 -18 -105 -19 -121 -3 -9 9 -16 7 -32 -7 -11 -10 -22 -16 -24 -14 -10
11 -36 155 -36 201 0 51 2 56 48 99 59 57 90 78 178 122 149 75 304 93 399 47z
m3252 -42 c27 -25 29 -57 8 -98 -28 -53 0 -100 58 -100 31 0 43 -27 21 -51
-17 -19 -14 -30 19 -66 29 -32 16 -66 -32 -88 -47 -21 -55 -37 -40 -82 13 -41
6 -63 -20 -63 -14 0 -26 -13 -40 -44 -26 -60 -54 -75 -92 -47 -35 26 -51 26
-74 1 -10 -11 -26 -20 -36 -20 -21 0 -49 48 -49 84 0 30 -25 46 -73 46 -45 0
-61 20 -53 67 14 79 12 87 -16 101 -16 7 -28 17 -28 21 0 13 36 51 49 51 20 0
51 39 51 64 0 17 7 26 25 30 34 9 58 68 50 122 -4 32 -1 46 15 67 25 32 60 35
78 7 17 -27 44 -25 73 6 28 30 69 27 106 -8z m-4642 -47 c7 -24 67 -84 132
-133 41 -31 63 -40 107 -45 47 -5 56 -9 65 -32 16 -42 31 -101 46 -186 20
-105 19 -126 -1 -118 -23 9 -134 143 -151 183 -8 19 -23 53 -33 75 -10 22 -43
74 -73 116 -53 71 -62 79 -155 126 -2 1 5 10 15 20 20 22 40 19 48 -6z m-7
-73 c32 -19 152 -180 152 -203 0 -6 -21 -27 -47 -45 -27 -19 -87 -72 -135
-118 -97 -94 -90 -94 -124 8 -19 58 -26 230 -11 283 4 15 24 46 44 68 40 45
58 46 121 7z m757 -110 c1 -102 20 -192 60 -273 27 -55 25 -61 -31 -96 -42
-26 -53 -19 -88 55 -47 96 -72 299 -43 337 7 8 32 27 57 42 25 15 45 27 45 27
0 0 0 -42 0 -92z m761 6 c25 -62 59 -114 117 -180 22 -25 38 -46 36 -48 -2 -2
-27 -11 -56 -20 -28 -10 -64 -27 -79 -38 -23 -19 -29 -20 -48 -8 -157 98 -297
92 -366 -17 -17 -26 -34 -59 -37 -73 -8 -32 -20 -40 -62 -40 -30 0 -33 2 -27
23 15 50 18 95 7 102 -26 16 -62 -5 -80 -48 -11 -23 -42 -63 -70 -89 -43 -41
-57 -48 -91 -48 -42 0 -50 9 -25 30 8 7 15 18 16 24 0 6 21 25 47 41 50 32 71
65 79 124 5 36 7 38 62 49 57 12 102 38 182 104 80 66 143 92 244 98 l90 5 0
28 c1 25 23 53 34 42 2 -3 14 -30 27 -61z m-896 -70 c0 -113 33 -240 82 -311
l28 -42 -22 -25 -23 -25 -140 47 -140 47 -8 68 c-4 38 -14 101 -22 140 -8 39
-13 72 -11 75 3 2 23 6 47 9 27 4 64 21 103 49 34 23 71 43 84 43 21 1 22 -3
22 -75z m1381 1 c142 -72 145 -170 7 -239 -56 -28 -114 -33 -169 -15 -65 22
-67 32 -17 87 44 49 78 127 78 178 0 33 17 31 101 -11z m1774 -25 c4 -6 23 -9
43 -8 l37 3 3 -105 c2 -72 -2 -126 -13 -172 -16 -65 -16 -69 4 -105 39 -75 71
-213 71 -310 0 -32 4 -53 11 -53 12 0 7 149 -7 218 -6 29 -4 32 19 32 13 0 30
-7 37 -15 7 -8 30 -25 51 -37 22 -12 39 -27 39 -33 0 -25 -61 -190 -99 -268
-22 -45 -53 -94 -68 -109 l-28 -26 -73 18 c-85 21 -100 36 -132 129 -30 89
-35 176 -20 352 l12 148 -36 70 c-48 92 -78 176 -74 203 2 18 11 24 35 26 20
2 39 12 48 25 14 21 16 21 44 4 27 -16 29 -16 46 3 20 22 40 26 50 10z m-3972
-78 c6 -68 37 -168 66 -210 13 -18 23 -22 49 -18 31 5 40 -2 115 -78 102 -103
158 -141 246 -168 l69 -22 6 -58 c4 -32 15 -84 26 -115 13 -41 16 -61 8 -70
-15 -18 -28 -16 -28 4 0 28 -84 99 -144 122 -67 25 -151 27 -222 6 -64 -19
-178 -99 -227 -159 -21 -25 -42 -44 -46 -41 -5 2 -11 78 -14 167 -4 111 -11
181 -23 218 -26 83 -24 101 33 295 26 90 66 195 73 195 4 0 10 -30 13 -68z
m381 -10 c14 -32 113 -141 183 -204 27 -24 312 -117 381 -124 l58 -6 61 58
c34 33 68 76 77 97 8 21 22 37 31 37 19 0 14 -26 -16 -78 -10 -18 -19 -35 -19
-37 0 -2 24 -6 53 -10 44 -6 64 -2 130 25 43 17 88 30 100 28 17 -3 14 -6 -18
-17 -94 -32 -145 -63 -145 -86 0 -36 20 -44 118 -46 51 -1 92 -5 92 -9 0 -5
-35 -11 -77 -15 -96 -8 -127 -17 -131 -37 -3 -17 22 -28 123 -50 l60 -13 -98
-3 c-86 -2 -98 -5 -95 -20 2 -9 22 -23 45 -32 23 -8 45 -19 50 -24 26 -28
-285 60 -318 90 -16 14 -45 16 -197 15 -209 -2 -339 11 -400 42 -24 11 -74 47
-111 78 -67 57 -171 177 -171 198 0 23 178 180 206 181 6 0 19 -17 28 -38z
m3933 -9 c43 -38 104 -150 163 -301 34 -86 72 -175 85 -197 28 -49 148 -163
241 -230 109 -79 129 -150 60 -216 -158 -149 -151 -145 -210 -123 -27 10 -18
-12 11 -25 l26 -12 -29 -30 c-47 -47 -88 -48 -152 -4 -30 20 -57 34 -60 30 -7
-7 66 -75 81 -75 4 0 7 -6 7 -13 0 -19 -57 -34 -105 -29 -62 7 -146 99 -212
232 -72 146 -72 143 -23 243 22 46 53 122 68 168 25 78 29 84 53 81 35 -4 57
24 69 88 25 133 -6 286 -80 398 -25 36 -23 40 7 15z m-28 -29 c63 -78 100
-249 80 -371 -13 -74 -26 -89 -63 -72 -20 10 -24 17 -20 36 4 14 2 23 -5 23
-6 0 -11 -4 -11 -10 0 -18 -32 -11 -66 15 -18 14 -46 25 -62 25 -26 0 -31 6
-47 48 -10 26 -23 55 -30 64 -9 13 -7 35 9 100 18 72 26 89 66 130 39 40 52
48 82 48 30 0 42 -7 67 -36z m215 -114 l43 0 7 -47 c6 -46 8 -225 2 -230 -2
-2 -96 215 -133 307 -3 8 4 5 16 -7 16 -17 33 -23 65 -23z m-2768 -44 c14 -23
14 -28 -4 -68 -11 -24 -40 -63 -65 -87 -37 -35 -53 -44 -84 -45 -34 -1 -38 2
-40 24 -3 21 5 29 45 48 47 23 89 74 107 131 8 28 21 27 41 -3z m-2137 -323
c21 -493 30 -930 31 -1472 0 -283 2 -512 6 -509 17 18 -4 1611 -26 1954 -14
221 -13 314 4 314 16 0 22 -75 36 -485 l9 -260 -5 310 c-2 171 -7 338 -11 373
-5 56 -4 62 13 62 11 0 44 -13 74 -29 l55 -28 6 -69 c5 -66 6 -67 7 -16 2 53
13 66 28 35 5 -10 11 -151 14 -313 l5 -295 5 280 c5 274 5 279 20 220 12 -49
15 -130 13 -430 -9 -1890 -7 -1796 -27 -1862 -10 -35 -23 -63 -28 -63 -6 0 -7
73 -4 182 l5 183 -10 -170 c-10 -187 -14 -215 -31 -215 -8 0 -9 38 -5 138 4
75 9 198 11 272 5 125 4 122 -9 -50 -7 -102 -14 -224 -14 -271 l-1 -87 -42 -4
c-24 -3 -49 -3 -55 0 -9 3 -14 39 -15 126 l-2 121 -3 -122 c-3 -98 -7 -123
-18 -123 -11 0 -13 24 -11 138 l4 137 -8 -110 c-4 -60 -8 -122 -9 -137 -1 -27
-3 -28 -56 -28 l-55 0 -2 178 -2 177 -6 -175 c-4 -149 -7 -175 -21 -178 -14
-3 -17 65 -23 715 -3 395 -11 783 -16 863 -5 80 -12 340 -16 578 -6 383 -6
432 8 432 14 0 26 -163 42 -595 1 -38 2 9 3 105 0 96 -2 242 -6 323 -3 82 -2
155 2 163 5 9 26 14 65 14 l58 0 13 -297z m2207 148 c-15 -32 -96 -125 -139
-158 -9 -7 -29 -13 -46 -13 -24 0 -31 6 -40 31 -14 40 -14 39 2 39 46 0 164
97 193 159 l17 35 14 -28 c13 -25 13 -32 -1 -65z m883 -9 c25 -22 59 -63 74
-93 26 -48 28 -61 24 -115 -15 -164 -158 -366 -361 -507 -129 -90 -251 -159
-386 -219 -405 -180 -420 -186 -420 -171 0 11 110 122 133 135 10 5 17 16 17
25 0 20 -64 -32 -156 -127 -55 -58 -87 -81 -159 -116 -50 -24 -94 -44 -99 -44
-4 0 -4 20 0 45 3 25 4 45 1 45 -2 0 -14 -27 -26 -59 -23 -63 -67 -111 -102
-111 -24 0 -25 27 -3 95 38 117 27 541 -17 660 -28 75 -24 82 72 121 136 57
429 174 435 174 3 0 90 34 193 75 103 41 212 81 241 89 67 19 198 66 265 95
70 31 154 51 194 46 21 -3 52 -20 80 -43z m2591 -34 c0 -10 3 -9 9 1 6 10 19
12 45 7 35 -7 36 -8 38 -54 l1 -47 4 40 c3 22 8 43 11 47 4 4 9 -553 10 -1237
2 -827 0 -1245 -7 -1245 -5 0 -12 26 -14 57 l-3 58 -2 -62 c-1 -35 -6 -63 -12
-63 -12 0 -12 -4 -12 140 l-1 115 -7 -115 c-4 -63 -8 -121 -9 -127 -1 -9 -21
-13 -66 -13 l-65 0 -2 88 -2 87 -3 -87 c-2 -49 -8 -88 -13 -88 -6 0 -10 9 -10
19 0 11 -4 23 -10 26 -5 3 -11 52 -12 108 l-2 102 -5 -92 -6 -91 -32 13 c-66
28 -112 173 -115 361 l-2 129 -5 -105 c-9 -157 -21 -77 -23 154 l-2 191 -6
-160 -5 -160 -24 110 c-27 126 -26 181 11 410 l23 140 6 -60 6 -60 1 70 c4
151 40 395 52 360 3 -9 12 43 18 117 15 157 22 273 14 238 -9 -46 -29 97 -27
194 2 70 1 74 -2 16 l-4 -75 -29 61 c-19 38 -39 65 -55 72 -24 11 -25 15 -25
100 0 49 3 123 6 165 7 74 8 77 43 100 20 13 46 27 59 31 20 7 22 4 24 -31 l1
-38 4 38 c3 23 9 37 18 37 9 0 15 -14 18 -37 l4 -38 1 42 c2 48 5 49 125 52
48 1 67 -3 67 -11z m-4253 -98 c14 -11 32 -20 39 -20 8 0 55 -13 106 -29 51
-16 106 -32 121 -35 38 -9 27 -21 -44 -47 -37 -14 -67 -32 -77 -47 -20 -30
-19 -85 2 -116 14 -22 14 -25 -2 -39 -25 -23 -70 -31 -87 -17 -14 12 -61 10
-125 -5 -22 -6 -29 0 -59 56 -39 72 -99 136 -136 145 -24 6 -25 10 -25 78 0
43 5 77 12 84 8 8 52 12 131 12 104 0 122 -3 144 -20z m3879 -52 c-3 -29 -6
-91 -6 -137 0 -77 -1 -83 -15 -65 -8 10 -15 30 -16 44 -2 24 -2 24 -6 2 l-4
-22 -30 21 c-17 12 -29 29 -29 43 0 26 48 126 60 126 5 0 11 -30 13 -67 l3
-68 2 81 c1 44 5 84 9 87 18 19 25 3 19 -45z m-1669 -33 c66 -34 153 -47 313
-44 135 2 257 -14 272 -36 19 -26 6 -43 -54 -68 -100 -43 -166 -59 -239 -59
-96 0 -133 16 -198 82 -65 66 -119 96 -187 105 -43 6 -55 3 -96 -24 l-48 -30
-42 22 c-28 14 -44 30 -46 44 -3 21 1 22 65 26 190 9 209 8 260 -18z m-409
-42 c2 55 3 57 30 57 25 0 27 -3 29 -42 1 -24 -8 -70 -20 -103 -18 -51 -22
-56 -27 -35 -4 16 -9 -7 -13 -59 -4 -46 -12 -90 -18 -97 -7 -8 -10 -34 -7 -62
l5 -47 -48 -1 -48 -2 -4 77 -3 76 -2 -82 c-2 -71 -5 -84 -22 -93 -19 -10 -20
-8 -20 69 0 70 3 82 23 98 12 10 38 49 57 86 l35 67 6 -32 c6 -31 6 -30 8 11
0 24 7 73 14 110 l12 66 6 -60 6 -60 1 58z m-2446 17 c84 -26 138 -72 162
-140 16 -45 18 -69 13 -169 -4 -64 -12 -134 -17 -156 -6 -22 -15 -143 -20
-270 -11 -286 -35 -433 -77 -477 -35 -37 -119 -62 -188 -56 -61 5 -167 53
-212 95 -31 30 -33 34 -33 105 1 159 49 389 139 658 68 201 85 259 78 267 -8
7 -46 -75 -47 -99 0 -10 -5 -18 -10 -18 -6 0 -8 11 -4 26 5 20 3 25 -7 22 -10
-4 -13 -21 -12 -64 2 -47 -16 -134 -33 -162 -2 -2 -15 3 -31 12 -15 9 -59 22
-98 29 l-70 13 -3 40 c-8 94 4 120 92 210 86 87 151 126 238 143 64 13 71 13
140 -9z m996 -56 c24 -25 40 -50 35 -54 -4 -4 -48 -25 -96 -46 -96 -41 -114
-40 -131 10 -18 48 2 76 74 107 36 15 67 27 69 28 3 1 24 -20 49 -45z m1830
16 c91 -41 177 -155 202 -267 18 -78 40 -473 40 -723 0 -129 4 -271 9 -315 5
-44 13 -197 16 -340 4 -143 11 -276 16 -295 9 -33 7 -37 -33 -73 -69 -60 -120
-80 -207 -81 -62 0 -87 5 -133 26 -60 28 -148 102 -148 124 0 17 17 18 23 2 2
-7 8 -10 12 -5 5 4 -2 21 -15 39 -20 28 -23 43 -24 132 0 56 -3 88 -6 71 -5
-23 -8 -13 -14 41 -4 40 -4 84 0 99 5 20 4 26 -4 21 -8 -5 -11 16 -8 75 2 48
0 76 -5 68 -6 -10 -9 -4 -9 18 0 17 5 35 10 38 6 4 7 13 1 23 -5 10 -8 51 -6
92 1 41 -1 80 -6 86 -15 18 -30 253 -35 544 -3 191 -1 278 6 265 7 -15 8 -11
4 18 -4 25 -2 37 6 37 6 0 10 8 9 18 -4 40 1 63 13 56 8 -5 9 0 5 16 -13 49
61 155 136 197 33 18 96 15 145 -7z m-234 -10 c15 0 14 -5 -12 -34 -37 -43
-67 -122 -90 -237 -9 -49 -21 -87 -27 -85 -6 1 -9 37 -9 82 1 65 8 97 40 182
34 91 41 103 59 98 11 -3 28 -6 39 -6z m-2164 -59 c20 -21 51 -63 68 -92 l30
-53 -27 -14 c-49 -23 -170 -304 -205 -476 -24 -112 -21 -161 13 -232 57 -120
153 -194 254 -194 35 0 47 -4 47 -15 0 -8 -1 -15 -2 -15 -2 0 -36 -11 -76 -25
-98 -33 -234 -35 -298 -5 -32 16 -43 28 -48 52 -13 63 -6 614 9 774 9 87 13
182 9 210 -7 57 -5 59 71 98 74 38 110 35 155 -13z m3052 -66 c11 -28 26 -57
34 -66 8 -8 14 -21 14 -27 0 -7 17 -12 45 -12 46 0 118 -23 146 -47 19 -16 33
-5 17 14 -8 10 -8 20 1 40 6 14 14 23 17 20 17 -17 74 -166 74 -193 0 -78
-121 -467 -182 -588 -25 -49 -81 -178 -120 -276 -16 -41 -44 -102 -63 -135
-54 -97 -255 -503 -255 -514 0 -6 -10 -11 -22 -11 -17 0 -19 -3 -9 -9 17 -11
5 -51 -15 -51 -8 0 -19 12 -24 26 -13 32 -13 37 1 28 6 -3 4 4 -4 17 -12 19
-16 81 -21 294 -4 149 -11 302 -16 340 -5 39 -9 127 -10 196 0 146 3 156 127
404 41 83 100 211 129 285 30 74 57 141 61 148 3 6 0 12 -6 12 -13 0 -39 -51
-71 -137 -25 -69 -33 -80 -23 -31 4 21 3 29 -5 24 -6 -3 -16 -30 -22 -60 -10
-49 -14 -54 -42 -60 -46 -9 -138 -7 -138 3 0 55 107 239 183 315 54 53 149
110 171 103 5 -2 17 -25 28 -52z m-327 -30 c33 0 75 3 93 7 l34 8 -39 -44
c-50 -56 -115 -167 -139 -234 -10 -28 -22 -52 -26 -52 -5 0 -8 31 -8 69 0 69
-19 180 -39 234 l-11 28 38 -8 c20 -4 64 -8 97 -8z m-2478 -63 c-19 -20 -119
-243 -112 -250 2 -2 25 10 51 27 74 49 108 39 144 -40 27 -60 25 -89 -10 -169
-25 -58 -31 -86 -36 -177 -9 -168 -37 -223 -114 -223 -64 0 -110 20 -160 68
-54 53 -69 91 -77 197 -7 101 17 187 119 424 l54 123 50 18 c27 10 62 19 78
19 27 1 28 0 13 -17z m3933 -82 c27 -91 36 -185 20 -205 -7 -8 -16 -12 -21 -9
-5 3 -8 0 -7 -8 2 -8 -7 -13 -27 -13 -30 0 -30 1 -37 68 -5 37 -15 84 -23 104
-17 41 -20 67 -5 58 6 -3 10 3 10 14 0 11 4 22 9 26 5 3 12 19 16 36 7 29 8
30 26 13 11 -9 28 -47 39 -84z m-3814 59 c17 -34 42 -167 45 -248 2 -34 -2
-54 -13 -65 -14 -14 -17 -12 -23 21 -10 53 -41 110 -70 129 -19 12 -37 15 -71
10 -52 -7 -52 -8 -9 88 25 58 41 73 82 86 42 12 41 12 59 -21z m-285 -21 c-5
-13 -28 -63 -50 -111 -54 -117 -99 -254 -113 -341 -9 -63 -8 -80 12 -153 17
-64 29 -89 58 -118 49 -49 100 -74 156 -77 58 -4 54 -22 -5 -26 -89 -6 -175
55 -228 162 -36 73 -39 122 -17 238 26 132 157 448 186 448 6 0 6 -9 1 -22z
m3996 -113 c7 -22 17 -69 21 -105 7 -62 8 -65 35 -68 16 -2 40 4 54 13 l26 17
-8 -68 c-4 -38 -25 -168 -47 -289 -56 -313 -76 -436 -87 -552 l-11 -102 45
-193 c51 -217 97 -365 161 -516 24 -56 49 -123 55 -147 11 -42 10 -46 -12 -64
-61 -50 -232 -74 -323 -46 -30 10 -53 21 -50 26 3 5 -2 6 -11 3 -35 -14 -106
55 -129 125 -17 52 -57 304 -71 456 -4 33 -15 106 -25 161 -11 56 -22 138 -26
183 -5 58 -11 81 -20 81 -17 0 -17 -10 0 -130 8 -52 12 -99 9 -103 -3 -4 0
-13 5 -20 14 -18 69 -403 59 -413 -5 -6 -30 20 -155 161 -84 94 -173 241 -232
380 -38 90 -42 105 -36 157 8 80 68 238 156 413 42 83 87 176 99 207 44 110
48 100 53 -149 5 -243 6 -234 -48 -350 -13 -28 -24 -61 -24 -72 0 -11 -5 -32
-10 -47 -8 -20 -8 -29 1 -34 8 -6 7 -14 -5 -32 -17 -26 -13 -40 10 -31 8 3 14
-1 14 -9 0 -9 16 -36 35 -61 19 -25 35 -49 35 -52 0 -3 9 -15 20 -27 33 -36
23 -12 -23 55 -24 34 -47 74 -51 89 -4 20 -11 26 -22 21 -14 -5 -15 -3 -5 15
6 11 9 33 6 49 -5 25 5 59 58 197 8 21 16 35 19 30 3 -5 6 -54 7 -109 2 -87
11 -129 25 -114 2 2 0 67 -5 144 -5 77 -11 228 -15 335 -9 271 8 354 78 385
21 9 38 23 38 31 0 22 40 16 85 -11 22 -14 53 -25 68 -25 27 0 29 -2 23 -37
-3 -21 -7 -78 -10 -128 -4 -84 -4 -86 5 -30 5 33 11 124 12 203 3 129 5 145
26 173 24 32 80 71 95 66 5 -2 16 -21 23 -42z m-4869 -6 c20 -8 22 -16 24 -86
l2 -78 3 78 c2 42 7 77 11 77 4 0 15 -7 24 -14 17 -12 17 -19 -8 -114 -15 -56
-31 -99 -35 -96 -5 3 -9 -7 -9 -23 0 -51 -43 -292 -52 -287 -12 7 -10 -68 4
-141 6 -35 8 -71 4 -81 -7 -18 -8 -18 -21 -1 -7 10 -15 17 -17 16 -1 -1 -14 2
-27 6 l-24 7 6 366 c5 254 10 369 19 379 11 14 44 11 96 -8z m2567 -56 c7 -32
13 -49 14 -38 0 11 -3 37 -8 58 -8 33 -7 38 7 35 9 -2 23 -21 31 -42 16 -41
16 -36 -24 -346 -8 -63 -14 -161 -15 -217 0 -56 -6 -125 -12 -155 -12 -51 -13
-45 -18 122 l-6 175 -2 -178 c-2 -168 -11 -225 -32 -212 -5 3 -11 -3 -14 -13
-6 -18 -64 -52 -91 -52 -7 0 -16 6 -18 13 -4 8 -6 6 -6 -4 -1 -16 -55 -29
-122 -29 -26 0 -29 4 -31 33 l-1 32 -4 -31 c-4 -30 -6 -31 -52 -33 -29 0 -53
5 -60 12 -13 17 -27 471 -17 588 l8 86 36 14 c20 8 40 15 44 17 4 2 9 -83 11
-190 l2 -193 3 203 c2 169 4 202 17 202 10 0 15 -17 18 -67 l3 -68 2 75 2 75
68 42 c65 41 67 42 73 20 5 -20 6 -19 10 7 2 16 9 31 16 33 9 3 13 -17 16 -69
l3 -73 2 81 2 81 41 28 c42 27 53 26 63 -10 3 -11 4 -4 1 17 -8 77 22 56 40
-29z m247 -32 l2 -86 5 85 c5 75 7 63 13 -100 7 -165 19 -344 59 -915 7 -93
15 -246 19 -340 3 -93 7 -154 9 -135 l2 35 13 -30 c13 -30 4 -61 -14 -50 -5 3
-10 -5 -12 -17 -3 -21 -9 -23 -80 -26 l-78 -3 -2 288 -3 288 -2 -287 c-3 -247
-5 -288 -18 -288 -13 0 -15 30 -17 193 l-3 192 -2 -192 -3 -193 -65 0 -65 0
-2 48 -1 47 -6 -45 c-7 -52 -6 -52 -121 -54 -85 -1 -85 -1 -83 24 2 14 5 135
7 270 l4 245 -8 -230 c-10 -303 -17 -344 -58 -303 -9 9 -12 9 -12 -1 0 -10
-17 -12 -69 -9 -73 4 -96 13 -71 28 18 11 17 -22 18 358 l2 322 70 0 70 0 3
-257 2 -258 3 263 c2 252 3 262 21 262 16 0 21 -8 24 -47 l3 -48 2 52 c2 49 3
52 35 58 17 4 47 16 65 26 41 24 40 24 45 -3 3 -17 5 -15 6 9 1 41 18 52 24
16 4 -27 4 -27 6 4 l1 32 53 -23 c28 -13 60 -26 70 -29 15 -6 17 -24 19 -164
l2 -158 3 158 c3 120 7 158 16 154 7 -2 14 -34 18 -83 l5 -79 2 77 2 76 58 -1
c62 -2 85 16 27 21 l-35 3 -2 132 -2 132 -3 -132 c-4 -151 1 -145 -93 -114
l-55 18 -5 264 -6 264 -2 -257 c-2 -269 -3 -275 -44 -244 -15 11 -15 17 -3 53
8 23 17 105 20 194 8 180 21 303 35 307 6 2 10 58 10 133 0 78 4 130 10 131 6
0 16 1 23 2 6 1 18 7 25 14 8 7 35 12 63 11 l49 -2 2 -86z m1490 -58 c28 -26
28 -29 28 -143 0 -131 -5 -149 -95 -320 -28 -52 -60 -119 -73 -150 l-22 -55 5
135 c3 74 4 132 1 129 -3 -3 -9 -77 -14 -165 -5 -94 -14 -168 -21 -179 -16
-26 -8 145 19 410 19 180 48 326 49 249 1 -17 -3 -53 -8 -80 -5 -27 -12 -89
-15 -139 -5 -88 -5 -88 4 -20 12 89 28 203 42 282 10 63 11 64 62 72 6 0 23
-11 38 -26z m-813 -30 l1 37 50 0 50 0 0 -40 c0 -28 -13 -66 -42 -123 l-43
-82 -6 70 -5 70 -2 -90 c-1 -49 -7 -97 -12 -105 -6 -10 -9 38 -8 145 0 99 4
145 8 120 l7 -40 2 38z m-2282 -150 c-5 -128 -31 -283 -48 -283 -4 0 -9 12
-13 28 -10 45 -19 267 -12 295 6 25 61 97 73 97 3 0 3 -62 0 -137z m848 -13
c1 -30 3 -150 4 -266 2 -117 9 -281 16 -365 8 -85 17 -208 20 -274 6 -138 10
-178 32 -296 l15 -86 -41 -44 c-22 -24 -41 -47 -41 -51 0 -18 -110 -79 -170
-94 -79 -20 -197 -15 -255 11 -162 72 -168 79 -191 235 -14 95 -16 155 -10
345 3 127 11 259 16 294 5 35 12 140 16 233 l7 169 28 15 c16 8 32 15 36 15 5
1 17 6 28 12 11 6 76 34 145 63 69 28 170 72 225 98 55 25 104 45 108 43 5 -1
10 -27 12 -57z m-947 -172 c-2 -38 0 -68 4 -68 3 0 10 -12 16 -28 5 -16 25
-36 46 -47 l36 -20 0 -104 0 -104 -37 7 c-21 3 -48 6 -60 6 -19 0 -23 6 -25
33 l-1 32 -4 -32 c-2 -18 -7 -33 -11 -33 -15 0 -30 16 -35 35 -4 18 -5 17 -6
-3 -1 -21 -5 -23 -53 -20 -45 3 -53 6 -56 23 -2 15 7 25 33 38 28 13 35 22 35
44 0 17 11 40 28 58 l27 30 6 -35 6 -35 2 31 c0 17 8 53 17 80 8 27 18 96 22
154 7 110 16 75 10 -42z m3012 46 c-5 -49 -17 -186 -25 -304 -8 -118 -21 -246
-30 -285 -14 -71 -26 -310 -13 -278 3 10 7 62 7 116 1 109 14 121 26 25 5 -35
10 -53 12 -40 4 17 15 1 52 -70 27 -51 56 -106 65 -123 10 -19 17 -58 18 -105
2 -70 2 -71 5 -17 2 31 8 57 12 57 5 0 16 -15 25 -32 8 -18 16 -29 16 -25 0 4
22 -18 48 -50 27 -32 56 -64 65 -72 11 -8 18 -30 19 -60 1 -37 2 -39 5 -13 5
38 23 33 24 -6 0 -21 2 -23 8 -9 6 17 8 17 25 -1 21 -25 14 -29 -44 -26 -25 1
-82 3 -127 3 l-83 1 -2 88 -2 87 -3 -83 -4 -82 -52 0 c-29 0 -58 4 -64 8 -9 6
-13 73 -16 257 l-2 250 -3 -252 c-2 -217 -4 -253 -17 -253 -13 0 -15 28 -17
188 l-2 187 -6 -185 -5 -185 -75 4 c-41 2 -79 6 -84 9 -5 2 -6 53 -3 111 3 71
2 89 -3 56 -5 -27 -9 -78 -9 -113 -1 -46 -4 -63 -13 -59 -10 3 -13 61 -12 248
l2 244 -8 -200 c-4 -110 -8 -219 -9 -242 l-1 -43 -90 0 -90 0 -2 53 -2 52 -3
-53 c-3 -36 -8 -52 -16 -49 -7 2 -11 15 -10 28 1 13 5 74 9 134 7 115 19 159
35 134 6 -10 9 -7 9 12 0 41 174 404 190 394 3 -2 3 -28 -1 -57 -4 -29 -7 -75
-7 -103 0 -34 4 -21 10 40 9 97 13 115 25 115 4 0 7 -33 7 -72 -1 -40 0 -55 2
-33 2 22 6 54 9 70 l5 30 80 -3 c54 -3 80 -1 80 7 0 6 -17 11 -39 11 -21 0
-53 3 -70 6 -30 6 -31 9 -33 58 l-1 51 -6 -55 c-4 -36 -9 -50 -15 -42 -14 23
-11 83 5 96 8 6 15 20 16 31 2 21 52 144 108 260 28 60 95 237 95 253 0 3 2 3
5 0 3 -3 1 -45 -5 -94z m-3604 -168 c-9 -121 8 -163 78 -192 24 -10 42 -22 40
-26 -3 -5 -34 -8 -70 -8 -60 0 -64 2 -65 23 0 19 -1 20 -8 4 -9 -25 -25 -23
-33 5 l-6 23 -1 -22 c-1 -18 -7 -23 -26 -23 -33 0 -31 10 7 37 25 18 35 35 49
89 10 37 20 93 24 125 11 93 18 68 11 -35z m923 -81 c-4 -93 -12 -217 -18
-275 -17 -159 -15 -518 4 -619 8 -47 13 -87 10 -89 -5 -5 -85 -5 -90 0 -6 6
-7 90 -6 446 1 352 1 352 22 352 l21 0 -5 -397 -5 -398 10 403 c9 340 13 402
25 402 8 0 13 6 10 13 -2 6 -16 11 -31 9 -25 -3 -26 0 -28 45 l-1 48 -6 -50
-6 -50 -62 -2 -63 -1 0 109 c0 89 3 109 15 109 11 0 15 -21 18 -102 l3 -103 2
111 c2 106 3 111 30 136 15 14 37 29 49 32 21 7 22 4 26 -76 l3 -83 2 88 c2
69 5 87 17 87 12 0 15 -23 18 -122 l3 -123 0 127 c-1 118 0 128 19 136 11 5
20 9 21 8 0 0 -3 -77 -7 -171z m-1529 -65 c17 -9 18 -21 15 -127 l-4 -118 8
101 c9 104 16 133 32 117 6 -6 5 -31 -1 -62 -5 -30 -9 -79 -8 -110 1 -42 2
-46 4 -16 2 22 9 70 15 108 l11 68 36 -7 c21 -4 41 -10 45 -14 9 -8 -6 -110
-29 -200 -8 -30 -14 -80 -14 -111 0 -49 4 -60 25 -77 15 -12 26 -31 26 -48 1
-24 2 -25 6 -6 2 12 9 22 14 22 5 0 10 -10 10 -22 1 -17 2 -19 6 -5 5 18 23
24 23 6 0 -6 10 -9 23 -8 20 2 52 -8 97 -31 11 -5 16 -33 21 -111 l5 -104 2
98 c2 114 21 133 24 25 l2 -73 3 70 c3 57 8 75 28 95 29 30 40 72 27 97 -7 13
-6 26 4 43 16 30 18 104 3 132 -6 11 -13 56 -16 99 l-6 79 34 -1 c19 0 54 -4
79 -7 l45 -7 5 -175 6 -175 2 178 c1 110 6 177 12 177 6 0 11 -10 11 -22 1
-13 5 -75 9 -138 l8 -115 -2 135 -1 135 41 3 41 3 7 -48 c6 -47 2 -69 -28
-148 -20 -54 -20 -94 3 -138 13 -26 17 -49 14 -77 -5 -34 -1 -43 25 -70 22
-22 32 -42 35 -73 l4 -42 1 48 c2 40 5 47 23 47 15 0 19 -5 15 -17 -2 -10 -7
-70 -9 -133 l-5 -115 9 100 c5 55 12 119 15 141 l5 42 60 11 c34 7 67 15 75
18 11 4 14 -14 16 -98 l2 -104 5 109 c4 75 10 111 19 114 9 3 12 -25 14 -115
l2 -118 6 130 c4 72 13 149 20 173 11 36 10 55 -4 128 -11 55 -15 110 -12 157
3 40 2 59 -2 42 -6 -25 -9 -27 -15 -12 -18 48 11 58 116 41 l37 -7 0 -403 0
-404 -75 0 -75 0 -2 73 -2 72 -3 -72 c-3 -56 -7 -73 -18 -73 -11 0 -16 13 -17
48 l-2 47 -3 -47 -4 -48 -72 0 c-79 0 -92 5 -100 35 -4 18 -5 18 -6 -2 0 -13
-7 -23 -16 -23 -12 0 -14 17 -11 98 4 95 2 90 -10 -35 l-6 -63 -33 0 c-18 0
-47 3 -64 6 l-31 7 -2 76 -2 76 -3 -77 c-3 -63 -7 -78 -20 -78 -14 0 -15 23
-11 213 4 139 3 174 -2 102 -4 -60 -8 -154 -9 -208 -1 -75 -4 -99 -15 -103 -8
-3 -50 -2 -93 3 l-78 8 -6 80 -5 80 -2 -77 c-2 -85 -21 -109 -24 -30 l-2 47
-3 -47 c-5 -53 -9 -55 -104 -42 l-44 6 1 142 2 141 -7 -137 c-3 -75 -9 -140
-13 -144 -5 -4 -9 71 -10 167 l-2 174 -3 -167 -3 -168 -33 1 c-55 1 -100 21
-108 49 -4 16 -7 19 -8 8 -1 -10 -8 -18 -16 -18 -10 0 -15 11 -16 38 -1 33 -2
34 -9 12 -4 -14 -5 10 -2 53 3 42 -1 167 -8 277 -11 178 -7 450 7 450 2 0 13
-4 23 -10z m368 -87 l52 6 0 -67 c0 -37 7 -96 17 -133 15 -61 15 -67 0 -99
-13 -24 -16 -46 -11 -80 6 -42 4 -48 -19 -63 -23 -15 -27 -15 -41 -1 -17 16
-19 28 -16 84 2 30 0 32 -14 21 -9 -8 -16 -29 -16 -50 0 -20 -4 -31 -8 -25 -4
6 -15 13 -24 17 -11 4 -18 17 -18 32 0 14 -4 25 -10 25 -5 0 -10 -14 -10 -31
0 -27 -2 -30 -15 -19 -8 7 -15 26 -15 42 0 33 -20 29 -21 -5 0 -12 -3 -16 -6
-9 -2 6 -9 10 -14 6 -5 -3 -9 4 -9 15 0 24 -16 36 -23 19 -10 -25 -7 118 3
152 6 19 15 69 21 110 6 41 13 78 15 81 2 4 32 -2 66 -13 44 -14 79 -18 116
-15z m634 -73 c9 -58 24 -141 33 -186 15 -78 13 -114 -6 -114 -5 0 -15 -11
-21 -25 -16 -36 -25 -31 -20 11 6 47 -13 38 -22 -11 -4 -19 -16 -39 -26 -45
-19 -10 -19 -8 -14 37 8 55 -9 50 -23 -7 -5 -20 -16 -36 -26 -38 -14 -3 -17 5
-17 47 0 28 -4 51 -10 51 -5 0 -10 -16 -10 -35 0 -46 -25 -95 -48 -95 -29 0
-42 21 -42 67 0 24 -7 58 -16 75 -22 42 -20 81 6 158 18 52 21 79 17 133 l-6
67 57 1 c31 0 77 4 102 9 75 13 73 15 92 -100z m229 -2 c1 -24 5 -176 9 -338
l8 -295 -3 336 -2 336 89 -1 90 -1 -3 -397 -4 -398 -112 0 -113 0 0 400 c0
393 0 400 20 400 17 0 20 -7 21 -42z m1018 -317 c0 -210 -3 -279 -11 -261 -12
28 -35 519 -25 543 4 10 13 14 22 11 13 -5 15 -44 14 -293z m1442 -371 c-5
-49 -12 -94 -15 -98 -2 -4 -35 -5 -73 -2 l-68 5 -3 34 c-4 40 33 88 54 70 30
-25 57 -6 83 59 31 75 36 59 22 -68z m-615 -13 c2 -7 -14 -47 -37 -88 -118
-210 -122 -219 -116 -287 6 -75 42 -130 98 -149 l34 -11 -28 -7 c-21 -5 -36
-1 -62 16 -84 57 -107 202 -49 314 97 190 144 252 160 212z m84 -110 c0 -89
39 -326 62 -373 21 -45 33 -51 51 -22 15 23 1 48 -28 48 -14 0 -25 5 -25 10 0
6 9 10 19 10 11 0 32 10 47 23 23 20 26 28 20 60 -9 46 -44 72 -86 63 -28 -5
-30 -3 -30 24 0 20 5 30 15 30 8 0 15 7 15 15 0 21 4 19 42 -18 23 -24 47 -36
78 -41 39 -7 42 -9 23 -17 -28 -10 -32 -56 -7 -66 37 -14 70 41 44 73 -10 12
-8 14 14 14 19 0 26 -5 26 -19 0 -43 51 -53 76 -15 13 18 12 24 -7 47 -20 26
-19 67 2 67 5 0 9 -2 9 -4 0 -2 7 -40 15 -83 8 -43 15 -94 15 -113 l-1 -35
-17 35 c-10 21 -26 36 -39 38 -28 4 -63 -31 -63 -64 0 -24 -1 -24 -22 -10 -55
39 -110 4 -110 -69 0 -26 -4 -35 -16 -35 -41 -1 37 -29 81 -30 60 0 105 20
153 69 l35 36 -7 -30 c-22 -93 -70 -135 -153 -135 -82 0 -154 39 -186 100 -7
14 -22 99 -33 190 -34 271 -36 293 -23 286 6 -4 11 -31 11 -59z m-227 -17
c-30 -56 -42 -68 -56 -64 -27 9 -311 20 -542 23 -112 1 -204 6 -209 11 -7 7 6
26 34 55 l44 45 384 0 383 0 -38 -70z m543 -75 c-13 -50 -110 -71 -175 -37
-27 13 -39 28 -52 67 -31 89 -30 90 53 87 41 -2 93 3 118 11 l45 13 9 -57 c5
-32 6 -69 2 -84z m514 69 c118 -8 249 -19 290 -23 41 -4 133 -9 205 -10 71 -1
130 -3 132 -4 1 -1 8 -34 16 -72 9 -39 18 -82 22 -97 6 -22 4 -28 -8 -28 -26
0 -77 -50 -77 -75 0 -19 -9 -26 -47 -39 -26 -9 -49 -12 -52 -7 -3 4 -98 40
-211 79 -263 91 -604 182 -678 182 -35 0 -42 13 -42 75 l0 44 118 -5 c64 -3
214 -12 332 -20z m-863 -66 c-3 -27 -9 -54 -14 -59 -16 -16 -43 1 -43 26 0 23
24 40 41 29 5 -3 9 0 9 5 0 22 -47 11 -58 -13 -20 -44 33 -87 66 -54 9 9 12 6
12 -15 0 -19 -5 -27 -18 -27 -10 0 -29 -11 -41 -24 -26 -27 -24 -62 5 -90 14
-14 14 -19 -3 -46 -18 -32 -43 -40 -43 -15 0 8 9 19 21 25 11 7 18 14 16 17
-12 12 -47 -19 -47 -42 0 -15 -6 -25 -14 -25 -24 0 -26 15 -5 33 28 25 29 79
1 110 -12 14 -26 17 -50 13 -33 -5 -33 -5 -27 27 8 37 25 60 25 34 0 -27 39
-21 46 7 7 30 -3 49 -22 42 -19 -7 -18 1 6 39 19 30 24 33 59 28 32 -4 42 -2
52 15 20 32 31 15 26 -40z m-1008 -3 c11 -25 28 -72 37 -104 15 -56 15 -61 -4
-103 -31 -70 -109 -118 -191 -118 -73 1 -178 65 -211 129 -19 38 -45 199 -34
210 3 3 18 -2 33 -10 37 -22 186 -18 261 7 30 10 58 17 63 16 4 -1 7 3 7 8 0
25 21 6 39 -35z m-371 -220 c15 -22 49 -54 75 -72 105 -70 223 -61 305 23 45
48 56 38 19 -17 -27 -40 -76 -75 -126 -89 -32 -9 -79 -5 -188 16 -35 7 -94 65
-116 112 -14 33 -20 73 -22 160 l-4 117 14 -105 c12 -84 20 -112 43 -145z
m667 216 c3 -10 1 -31 -5 -46 -6 -15 -8 -30 -5 -34 10 -10 25 23 25 56 0 26 4
31 20 30 22 -1 25 -10 10 -37 -6 -11 -6 -21 -1 -25 8 -4 24 25 26 48 0 4 5 7
10 7 6 -1 9 -13 8 -28 -2 -24 -1 -23 8 6 l10 32 73 0 c41 0 81 -3 90 -6 20 -8
22 -73 2 -99 -17 -24 -52 -13 -41 13 5 9 9 33 11 52 1 19 0 24 -2 10 -12 -60
-25 -80 -56 -80 -26 0 -29 3 -23 23 l7 22 -17 -22 c-21 -30 -65 -31 -65 -2 0
19 -1 19 -16 5 -18 -19 -28 -21 -18 -4 5 8 2 9 -12 2 -10 -4 -62 -10 -115 -12
l-95 -3 0 55 1 56 82 0 c71 0 82 -2 88 -19z m-985 -40 c0 -60 -7 -81 -27 -81
-12 0 -14 8 -9 33 3 17 2 46 -3 62 -8 25 -9 19 -10 -37 l-1 -68 -35 0 c-27 0
-35 4 -35 18 0 10 -6 41 -14 70 l-13 52 73 0 74 0 0 -49z m39 37 c11 -10 13
-10 7 0 -4 6 -2 12 3 12 6 0 11 -6 12 -12 0 -10 2 -10 6 0 2 6 17 12 32 12 31
0 66 -49 58 -81 -3 -11 -1 -17 5 -13 6 4 9 1 6 -6 -2 -7 -20 -15 -39 -17 -30
-3 -38 1 -49 22 -12 23 -33 36 -28 18 5 -18 -14 -53 -28 -53 -12 0 -15 13 -13
65 2 67 6 74 28 53z m-303 -33 c7 -19 14 -52 14 -74 0 -37 -2 -39 -37 -46 -21
-3 -48 -9 -60 -12 -16 -3 -21 0 -20 13 1 9 -5 19 -13 21 -13 4 -13 3 -1 -5 12
-9 12 -13 -2 -27 -13 -12 -17 -13 -18 -3 0 10 -2 10 -6 1 -2 -7 -9 -13 -15
-13 -5 0 -8 6 -5 13 2 6 -4 35 -14 62 -12 30 -15 51 -9 53 6 2 8 8 4 13 -3 5
2 9 11 9 10 0 13 -5 9 -12 -4 -7 -4 -10 1 -6 4 4 14 3 22 -3 16 -14 18 2 2 18
-8 8 1 13 37 18 44 6 74 11 82 14 2 0 10 -15 18 -34z m1615 13 l2 -23 4 23 c4
18 11 22 39 22 19 0 34 -4 34 -10 0 -5 -6 -10 -12 -10 -7 0 -5 -5 5 -11 24
-14 21 -36 -7 -43 -18 -4 -23 -11 -19 -26 4 -15 0 -20 -16 -20 -18 0 -19 3
-11 28 9 25 9 26 -5 8 -8 -11 -15 -24 -15 -29 0 -4 -5 -5 -10 -2 -6 4 -7 12
-4 18 5 8 3 8 -7 0 -7 -7 -24 -13 -37 -13 -20 0 -23 4 -18 23 3 12 6 37 6 55
0 30 2 32 35 32 29 0 35 -4 36 -22z m884 -47 c-5 -13 -4 -14 7 -3 10 10 15 8
25 -10 12 -23 12 -23 13 -1 0 29 40 19 41 -11 1 -17 2 -17 6 -3 5 19 20 21 57
7 20 -7 26 -17 28 -42 l1 -33 4 33 c3 25 9 32 21 30 25 -5 26 -41 3 -94 -21
-46 -21 -46 -58 -40 -94 16 -95 17 -89 39 5 20 4 21 -8 5 -7 -10 -21 -18 -30
-18 -14 0 -15 4 -6 21 7 11 9 23 7 26 -3 2 -8 -5 -12 -16 -3 -12 -11 -21 -16
-21 -19 0 -21 31 -4 56 9 15 12 23 6 20 -6 -4 -11 0 -11 11 0 10 -3 27 -6 39
-4 15 -1 21 11 21 10 0 14 -6 10 -16z m-2800 -28 c8 -43 8 -47 6 -89 -1 -27
-6 -32 -43 -43 -24 -7 -51 -15 -60 -17 -16 -5 -18 2 -18 48 -1 29 -7 64 -15
78 -14 25 -13 25 38 42 78 25 85 24 92 -19z m1500 -25 l-7 -23 17 23 c14 19
23 22 63 18 26 -3 94 -8 152 -11 58 -3 133 -8 168 -12 l63 -6 -7 -29 c-5 -28
-4 -29 14 -19 27 14 32 14 32 -4 0 -9 -9 -15 -24 -15 -14 0 -28 -4 -31 -10 -4
-6 5 -10 19 -10 17 0 26 -5 26 -16 0 -10 -6 -14 -15 -10 -9 3 -15 0 -15 -9 0
-9 6 -12 15 -9 8 4 15 1 15 -5 0 -6 -5 -11 -11 -11 -5 0 -7 -4 -4 -10 3 -5 -3
-10 -14 -10 -22 0 -50 44 -52 82 -1 18 -2 19 -6 5 -3 -10 0 -31 6 -47 9 -26 8
-30 -8 -30 -19 0 -36 15 -44 40 -2 8 -3 3 -1 -11 3 -26 2 -27 -61 -28 -90 -1
-113 28 -102 127 4 33 2 41 -5 28 -10 -18 -6 -94 7 -133 7 -22 6 -23 -66 -23
-79 0 -89 4 -108 35 -11 19 -12 19 -5 -4 9 -35 -15 -22 -38 20 -21 37 -19 98
2 124 19 22 32 18 25 -7z m1572 -36 l-6 -27 12 28 c14 34 47 37 47 5 1 -20 2
-21 10 -6 15 25 50 11 50 -19 0 -25 -26 -89 -39 -98 -7 -3 -142 24 -149 30 -2
2 6 21 17 44 12 22 21 52 21 66 0 23 2 25 21 15 16 -9 19 -18 16 -38z m-3260
8 c19 -36 13 -124 -9 -128 -14 -3 -16 3 -12 35 4 38 4 37 -11 -8 -11 -35 -21
-48 -39 -53 -13 -3 -32 -9 -42 -13 -15 -6 -17 -1 -11 38 3 27 0 59 -9 84 -7
22 -14 41 -14 42 0 3 64 23 77 23 7 0 18 -10 24 -22 8 -21 9 -20 4 5 -5 24 -3
28 12 25 10 -2 23 -14 30 -28z m692 -12 l11 -23 -6 23 c-4 17 -1 22 13 22 13
0 24 -15 38 -52 11 -29 21 -56 23 -60 4 -7 -36 -17 -91 -22 -21 -2 -40 -6 -44
-10 -4 -3 -15 1 -25 11 -17 15 -18 15 -18 0 0 -27 -43 -20 -72 11 -15 15 -30
44 -33 65 l-7 37 37 0 c24 0 43 -6 52 -17 13 -16 13 -16 4 4 -12 23 -10 24 85
31 13 1 25 -7 33 -20z m-901 -31 c11 -13 16 -46 14 -85 -1 -16 -6 -21 -14 -16
-9 5 -9 2 1 -9 12 -15 9 -21 -10 -19 -4 1 -6 -6 -5 -15 0 -10 -10 -19 -28 -24
l-28 -8 6 40 c4 27 3 38 -4 34 -5 -3 -10 -15 -10 -25 0 -39 -22 -67 -60 -79
-51 -15 -50 -15 -44 22 5 31 5 30 -14 -10 -18 -37 -57 -72 -68 -60 -3 2 0 16
6 31 5 15 10 37 9 49 0 24 2 28 -36 -65 -9 -20 -22 -39 -30 -43 -11 -4 -13 -1
-8 12 4 10 10 51 13 91 4 57 9 75 23 82 13 8 21 6 29 -7 11 -17 11 -17 6 -1
-4 13 5 23 34 38 22 11 42 20 45 20 3 0 5 -17 6 -37 0 -35 1 -36 10 -14 5 14
8 32 7 40 -2 10 8 21 25 29 40 17 46 15 57 -10 9 -21 10 -20 7 7 -1 24 2 29
16 27 9 -2 17 2 17 8 0 14 15 13 28 -3z m600 -57 c7 -34 15 -67 18 -74 9 -23
-45 -30 -63 -9 -14 17 -14 17 -9 1 7 -25 -35 -24 -57 0 -16 18 -47 84 -47 101
0 8 52 31 71 31 5 0 9 -10 10 -22 1 -21 2 -20 11 5 6 18 17 27 32 27 19 0 24
-8 34 -60z m2578 39 c3 -6 1 -16 -5 -22 -6 -6 -11 -18 -11 -26 0 -10 5 -7 13
8 15 30 44 43 32 15 -16 -39 -15 -58 2 -26 12 23 24 32 41 32 21 0 23 -3 18
-27 -6 -25 -5 -26 5 -8 7 11 13 21 14 22 1 2 27 -2 59 -8 46 -10 56 -15 50
-28 -11 -28 -22 -93 -13 -84 4 4 10 19 12 33 6 39 18 60 33 60 11 0 13 -7 8
-26 -5 -19 -4 -25 5 -20 6 4 11 14 11 22 0 8 7 14 16 14 8 0 12 -5 9 -10 -4
-7 2 -9 19 -4 27 7 99 -13 91 -25 -2 -5 7 -6 20 -3 29 5 30 3 10 -62 -8 -27
-15 -62 -15 -77 0 -38 -26 -28 -40 15 -9 29 -10 30 -6 3 3 -28 3 -28 -38 -22
-58 10 -59 12 -52 66 5 33 3 49 -4 49 -6 0 -9 -4 -5 -10 8 -13 -6 -61 -16 -54
-5 3 -7 10 -4 15 4 5 1 9 -4 9 -10 0 -15 -14 -12 -32 2 -16 -19 -7 -35 15
l-16 22 5 -22 c3 -13 0 -23 -5 -23 -11 0 -82 18 -108 28 -8 3 -19 4 -24 3 -5
-1 -16 1 -25 5 -9 4 -27 8 -40 10 -13 1 -31 10 -40 18 -10 9 -23 16 -29 16
-15 0 -16 36 -2 45 6 3 10 2 10 -4 0 -6 8 -7 17 -4 11 4 12 8 5 11 -19 6 -14
32 6 33 10 0 12 3 5 6 -15 6 -17 33 -3 33 6 0 10 7 10 15 0 17 16 20 26 4z
m590 -17 c1 -7 2 -22 3 -34 2 -23 2 -23 12 2 13 32 10 31 52 19 24 -6 37 -16
37 -27 0 -13 2 -14 9 -3 7 10 13 11 30 2 24 -13 26 -36 6 -71 -8 -14 -14 -29
-14 -35 0 -17 38 59 39 78 0 9 5 17 11 17 7 0 10 -13 7 -34 -2 -19 -1 -33 3
-30 4 2 7 -17 6 -43 0 -33 -3 -41 -8 -28 -4 11 -8 14 -8 7 -1 -7 -6 -10 -11
-7 -6 4 -8 16 -5 28 5 19 5 20 -5 5 -23 -37 -87 -12 -74 28 5 18 5 18 -9 1
-13 -16 -20 -17 -57 -7 -35 10 -40 14 -35 33 5 19 5 20 -5 5 -14 -22 -30 -23
-30 -2 0 8 4 13 9 10 5 -4 7 4 3 16 -3 13 -1 19 5 15 7 -4 9 8 7 34 -3 29 0
39 9 36 6 -2 13 -9 13 -15z m-3407 -164 c1 -4 -8 -9 -19 -12 -11 -3 -29 -8
-39 -11 -15 -4 -21 0 -24 17 -4 20 -4 20 -6 -4 -2 -40 -29 -36 -35 5 -14 78
-12 111 7 115 11 2 17 -3 18 -15 1 -12 3 -11 8 7 4 14 17 27 31 30 24 6 26 2
42 -59 9 -37 17 -69 17 -73z m702 115 c1 -17 2 -17 6 0 3 12 15 17 40 17 l36
0 -5 -64 c-3 -35 -9 -69 -12 -75 -4 -6 -26 -11 -49 -11 -23 0 -59 -4 -80 -9
-37 -9 -38 -8 -33 13 3 12 8 48 12 79 5 38 11 57 20 57 8 0 15 -12 15 -27 2
-28 2 -28 6 -3 7 38 42 55 44 23z m1631 -2 c-1 -7 2 -19 9 -27 6 -8 8 -25 5
-40 -5 -17 -3 -23 4 -19 17 11 32 -5 19 -21 -9 -11 -9 -14 1 -14 9 0 11 -10 6
-32 -6 -30 -5 -31 8 -13 8 11 17 17 21 14 10 -10 -6 -60 -22 -66 -12 -5 -151
12 -158 19 -1 2 2 29 8 61 11 63 33 77 40 25 3 -25 4 -21 5 15 l2 49 33 -6
c27 -5 28 -4 10 4 -24 10 -32 39 -10 41 10 0 10 2 0 6 -20 7 -15 25 5 21 9 -2
16 -10 14 -17z m1667 -22 c51 -51 55 -84 10 -93 -61 -12 -88 -7 -124 25 -45
40 -45 62 3 87 54 28 65 26 111 -19z m386 -31 c0 -53 0 -53 -38 -65 -21 -7
-94 -19 -162 -27 -69 -8 -133 -19 -143 -25 -32 -17 -179 -51 -222 -51 -90 0
-175 87 -162 166 4 28 43 45 116 52 56 5 58 4 51 -17 -10 -33 3 -60 47 -92 45
-32 107 -39 167 -18 36 13 39 30 12 80 l-19 36 25 -5 c32 -6 60 -29 79 -64
l14 -26 86 24 c85 23 134 53 134 81 0 8 3 12 8 10 4 -3 7 -29 7 -59z m-3925
-2 c0 -39 -18 -96 -31 -96 -5 0 -9 -7 -9 -15 0 -21 -38 -19 -43 3 -4 13 -5 13
-6 -4 -1 -13 -9 -24 -21 -27 -16 -4 -20 0 -21 21 l-2 27 -4 -27 c-3 -22 -10
-28 -29 -28 -22 0 -24 4 -23 43 1 54 11 89 27 95 6 2 12 -5 13 -15 0 -14 3
-12 11 7 l11 25 7 -25 c5 -14 8 -19 9 -12 1 7 5 11 10 8 5 -4 7 4 3 16 -5 21
-4 22 12 9 13 -11 16 -11 14 -1 -2 7 3 15 10 17 6 3 12 -2 12 -11 0 -9 5 -16
10 -16 6 0 9 3 9 8 -3 20 2 32 16 32 10 0 15 -10 15 -34z m1501 2 l10 -23 -5
23 c-4 23 -3 23 57 17 57 -5 91 -15 54 -15 -9 0 -18 -4 -22 -9 -3 -6 9 -7 30
-4 40 6 46 -3 13 -18 -21 -8 -20 -9 5 -4 20 4 27 2 25 -7 -2 -7 2 -15 7 -16 6
-2 17 -8 27 -13 11 -6 18 -4 22 6 3 8 11 13 18 11 7 -1 10 -1 6 1 -14 8 -9 23
7 23 8 0 15 -7 15 -16 0 -31 -23 -104 -32 -104 -6 0 -7 8 -4 18 6 16 5 16 -8
0 -13 -18 -36 -24 -36 -10 0 4 -39 8 -87 10 -48 1 -88 4 -90 6 -3 2 3 30 12
61 10 34 13 61 8 66 -5 5 -9 -5 -10 -25 -1 -49 -24 -90 -52 -94 -21 -3 -23 -1
-17 20 4 12 10 44 13 71 6 51 18 60 34 25z m1352 -31 c-5 -21 -5 -21 9 -3 14
18 19 18 61 7 35 -10 44 -17 39 -30 -5 -14 -4 -14 11 -2 9 7 24 11 32 7 13 -5
14 -10 5 -27 -7 -11 -17 -48 -24 -81 -11 -52 -14 -58 -27 -47 -8 8 -18 14 -24
14 -5 1 -29 6 -52 13 -40 12 -43 15 -45 50 l-1 37 -4 -36 c-3 -31 -7 -36 -24
-32 -13 4 -19 14 -19 32 0 32 19 102 32 118 15 19 36 5 31 -20z m391 -105 c59
-54 103 -61 216 -32 47 11 103 27 125 35 22 8 94 21 160 29 66 8 131 18 145
21 24 6 24 6 5 -9 -28 -23 -81 -36 -151 -36 -33 0 -82 -6 -107 -14 -26 -8 -47
-11 -47 -8 0 4 -4 2 -8 -3 -7 -9 -142 -55 -205 -69 -33 -8 -122 29 -157 64
-29 29 -50 82 -49 122 0 32 1 31 15 -13 9 -31 28 -60 58 -87z m-4064 79 c0
-10 11 -38 24 -63 l24 -45 -59 -20 c-54 -19 -60 -19 -70 -4 -9 13 -10 13 -6
-6 3 -14 -1 -24 -11 -28 -18 -7 -18 -6 -32 25 -10 25 -10 25 -6 -3 3 -22 -2
-31 -20 -39 -29 -14 -33 -10 -45 39 -15 67 -12 89 18 102 21 10 28 9 34 -1 7
-10 9 -9 9 3 0 27 30 32 31 6 1 -21 1 -21 8 2 4 16 19 29 41 37 49 18 60 17
60 -5z m3110 -33 c0 -10 -10 -42 -21 -69 -12 -27 -19 -52 -16 -55 7 -8 47 102
47 131 0 18 5 25 20 25 30 0 27 -71 -6 -127 -23 -39 -29 -44 -57 -41 -27 3
-32 7 -30 28 l2 25 -11 -23 c-6 -13 -17 -21 -25 -18 -7 3 -42 11 -78 17 -36 6
-62 15 -59 20 3 5 -3 6 -12 2 -11 -4 -15 -2 -11 4 4 7 -8 9 -38 5 -38 -4 -45
-2 -45 12 0 10 4 14 10 11 6 -4 7 6 4 25 -6 29 7 42 21 20 3 -5 1 -10 -6 -10
-10 0 -10 -3 -2 -11 6 -6 9 -17 6 -24 -3 -10 2 -12 17 -8 16 4 18 8 8 14 -11
7 -10 11 2 19 11 7 17 4 22 -13 4 -16 6 -17 7 -4 1 21 31 23 31 2 0 -8 5 -15
11 -15 6 0 9 6 6 13 -6 16 54 21 65 4 5 -8 8 -7 8 6 0 26 30 21 31 -5 0 -22 1
-22 11 2 6 14 11 31 12 39 1 8 7 16 15 19 10 3 12 -1 8 -17 -7 -29 1 -27 13 4
11 29 40 24 40 -7z m101 -8 c7 -24 7 -24 8 -2 1 26 3 26 71 10 49 -11 51 -14
48 -39 -3 -16 -1 -26 4 -23 4 3 8 14 8 25 0 12 7 19 20 19 16 0 20 -7 21 -37
1 -37 2 -37 8 -8 3 17 10 29 14 28 4 -2 12 -3 18 -3 18 0 1 -70 -28 -115 -23
-35 -27 -37 -34 -20 -4 11 -8 14 -8 8 -1 -7 -10 -13 -22 -13 -15 0 -19 4 -15
16 3 9 8 28 11 42 4 19 1 15 -11 -11 -16 -36 -19 -38 -47 -33 -17 4 -55 9 -84
13 -30 3 -56 10 -59 14 -2 5 4 26 16 48 11 22 20 56 20 76 0 29 4 36 17 33 9
-2 20 -14 24 -28z m661 0 c-2 -23 -2 -24 11 -6 11 14 21 17 42 12 39 -10 88
-64 81 -90 -3 -12 -6 -40 -6 -62 l0 -41 -67 23 c-38 13 -70 24 -72 24 -2 0 -1
14 3 30 3 19 2 29 -4 25 -6 -3 -10 -15 -10 -26 0 -28 -34 -21 -38 9 -2 12 4
47 13 78 12 42 20 54 33 52 11 -3 16 -12 14 -28z m-3492 -43 l0 -64 -62 -17
c-35 -10 -78 -24 -97 -32 -18 -8 -36 -13 -38 -10 -3 3 -8 34 -10 69 l-6 64 29
6 c16 3 58 14 94 25 94 29 90 31 90 -41z m1814 -55 c-1 -37 0 -47 3 -22 6 74
12 90 33 90 16 0 20 -7 22 -32 l1 -33 4 33 c4 28 8 32 33 32 26 0 28 -2 25
-37 -2 -32 -2 -33 4 -8 6 29 8 30 63 30 31 0 59 -3 63 -6 3 -4 1 -18 -5 -33
-5 -15 -10 -50 -10 -77 l0 -49 -37 0 c-21 0 -62 3 -90 6 -51 7 -53 8 -55 38
l-1 31 -4 -32 -4 -33 -134 0 c-146 0 -145 -1 -145 66 0 20 5 34 13 34 8 0 7 4
-3 11 -11 8 -12 12 -2 16 6 2 10 8 8 11 -8 13 21 30 35 21 11 -7 11 -9 -3 -9
-10 0 -18 -4 -18 -9 0 -15 32 -6 42 12 6 12 23 17 58 17 49 0 50 0 51 -32 1
-27 2 -28 6 -8 7 42 11 49 30 44 16 -4 18 -15 17 -72z m1277 36 c2 -32 2 -32
6 -4 4 26 7 28 36 22 41 -8 41 -9 29 -56 -5 -22 -6 -38 -2 -35 4 3 11 21 14
40 6 28 11 35 24 31 9 -3 34 -8 55 -12 44 -7 63 -34 47 -63 -7 -14 -7 -22 2
-27 7 -4 8 -3 4 4 -3 6 3 16 14 22 11 6 20 18 21 28 0 11 3 9 10 -8 7 -16 7
-26 0 -28 -5 -2 -7 -10 -4 -19 4 -10 2 -14 -4 -10 -7 5 -9 0 -6 -13 3 -11 0
-20 -6 -20 -6 0 -11 -5 -11 -11 0 -6 -7 -17 -15 -25 -13 -14 -15 -14 -15 0 0
8 5 18 10 21 6 3 10 11 10 18 0 6 -6 2 -14 -8 -7 -10 -23 -20 -36 -22 -21 -3
-205 42 -228 56 -8 5 -4 22 13 56 14 26 25 59 25 72 0 36 20 27 21 -9z m-988
-24 l-2 -29 10 28 c10 24 15 27 60 27 46 0 49 -1 39 -19 -5 -11 -10 -26 -10
-33 1 -7 8 -1 16 15 12 22 22 27 50 27 l36 0 -6 -42 -5 -43 10 38 c8 26 17 37
30 37 16 0 18 -5 14 -27 l-5 -28 11 28 c8 19 18 27 36 27 20 0 24 -4 18 -17
-15 -39 -15 -46 2 -15 10 20 22 31 31 27 7 -3 20 -5 28 -5 11 0 11 -6 3 -27
-6 -16 -14 -53 -17 -83 l-7 -55 -62 8 c-55 8 -63 12 -64 30 -1 17 -2 18 -6 4
-8 -30 -23 -18 -25 21 l-1 37 -4 -37 -4 -37 -67 5 c-37 3 -86 7 -109 10 l-43
5 0 48 c0 57 18 113 34 108 6 -2 10 -17 9 -33z"/>
<path d="M2928 7106 c-60 -21 -115 -72 -145 -134 -28 -56 -28 -59 -31 -275 -4
-267 2 -293 87 -377 36 -36 70 -60 97 -68 29 -8 145 -12 385 -12 341 0 344 0
394 24 58 27 104 73 137 136 22 43 23 53 23 280 0 217 -2 238 -21 280 -26 57
-81 112 -139 139 -43 20 -59 21 -397 21 -265 -1 -362 -4 -390 -14z m787 -22
c51 -28 91 -68 119 -119 20 -38 21 -53 21 -286 l0 -246 -30 -48 c-41 -66 -102
-111 -169 -125 -37 -7 -162 -10 -373 -8 -355 3 -363 5 -435 75 -71 70 -82 111
-86 338 -3 181 -2 206 16 258 23 64 52 104 99 137 70 48 85 50 453 47 332 -2
347 -3 385 -23z"/>
<path d="M3000 7034 c-66 -24 -97 -49 -130 -107 l-30 -52 0 -193 c0 -185 1
-194 25 -242 29 -58 76 -96 141 -116 67 -20 561 -20 628 0 65 20 112 58 141
116 24 48 25 55 23 242 l-2 193 -6 -200 c-5 -218 -7 -223 -69 -288 -58 -61
-94 -67 -401 -67 -307 0 -343 6 -402 67 -65 69 -68 81 -68 293 0 210 6 235 67
291 61 57 84 63 278 67 l180 3 -42 -36 c-55 -47 -102 -124 -105 -174 -3 -46
-8 -43 -32 21 -10 26 -22 51 -28 54 -5 3 -3 -7 5 -22 26 -52 58 -191 51 -221
-10 -43 -39 -96 -66 -119 -34 -32 -63 -37 -97 -20 -58 31 -151 11 -151 -31 0
-12 7 -9 25 11 31 33 59 33 138 0 85 -36 157 -45 231 -27 33 7 65 17 70 22 6
5 26 12 43 16 28 5 32 10 28 28 -3 12 -2 40 4 62 5 24 9 31 10 18 1 -34 25
-28 61 15 18 20 27 27 21 15 -6 -12 -11 -28 -11 -35 1 -20 39 54 40 76 0 18
-1 18 -20 1 -20 -18 -20 -18 0 40 12 34 19 81 19 114 l-2 56 -8 -69 c-7 -65
-41 -177 -62 -203 -14 -19 -25 -16 -32 7 -11 33 -23 13 -31 -48 -7 -57 -16
-72 -44 -72 -11 0 -12 3 -3 8 6 4 -14 7 -45 7 l-57 0 -23 45 c-62 120 23 319
163 386 54 26 46 33 -9 10 -58 -24 -117 -86 -153 -161 l-33 -70 5 59 c3 32 12
71 20 86 22 43 102 126 135 140 48 20 225 9 275 -17 45 -24 85 -64 108 -108 9
-16 16 -25 17 -19 1 28 -63 103 -112 130 l-53 29 -290 2 c-244 2 -297 0 -335
-13z"/>
<path d="M845 6230 c0 -426 1 -601 2 -387 2 213 2 561 0 775 -1 213 -2 38 -2
-388z"/>
<path d="M880 6955 c0 -17 26 -20 35 -5 5 8 11 7 21 -1 11 -9 14 -9 14 1 0 10
3 10 15 0 8 -7 15 -9 15 -4 0 9 433 9 448 1 11 -6 101 -1 109 6 3 4 12 2 20
-4 10 -9 13 -8 13 2 0 11 2 11 10 -1 6 -9 13 -11 18 -5 9 12 62 13 81 1 9 -6
12 -5 7 2 -7 12 39 11 51 -1 9 -9 25 -9 20 1 -3 4 32 7 78 7 47 0 81 -4 78 -9
-4 -5 0 -6 7 -1 7 4 88 7 179 5 91 -1 181 -2 200 -1 31 1 33 -1 29 -28 -3 -21
-1 -28 9 -24 7 3 13 20 13 39 l0 34 -735 0 c-647 0 -735 -2 -735 -15z"/>
<path d="M1243 6650 c0 -22 4 -43 8 -46 5 -3 9 -13 9 -23 0 -10 9 -26 21 -37
11 -10 27 -33 34 -50 7 -18 23 -37 34 -44 17 -8 20 -17 16 -41 -4 -23 0 -35
17 -49 29 -24 57 -25 102 -3 29 14 34 21 30 40 -5 17 1 29 26 49 17 15 36 38
41 51 7 20 15 24 42 22 54 -3 67 0 67 19 0 11 -3 13 -8 5 -4 -6 -24 -11 -45
-10 -36 1 -37 2 -31 32 4 22 1 35 -10 44 -14 12 -16 7 -16 -40 0 -70 -15 -96
-71 -128 -42 -23 -49 -24 -87 -13 -64 19 -100 55 -108 107 -3 25 -12 45 -19
45 -34 0 -58 82 -30 102 6 5 3 8 -6 8 -12 0 -16 -10 -16 -40z"/>
<path d="M1150 6056 c0 -9 43 -47 92 -82 39 -28 183 -73 232 -74 22 0 27 -3
22 -17 -4 -9 -10 -36 -13 -60 -5 -37 -10 -44 -40 -54 -74 -24 -64 -85 21 -127
25 -13 44 -28 40 -33 -3 -6 2 -21 10 -34 21 -33 62 -33 110 0 34 23 39 24 83
12 42 -11 47 -10 57 7 6 10 23 32 39 48 15 17 31 37 36 45 6 12 13 12 42 -6
19 -12 48 -21 64 -20 25 0 23 2 -17 13 -57 15 -78 32 -78 60 0 30 -19 46 -54
46 -37 0 -126 -40 -155 -69 l-21 -21 -45 34 c-24 19 -54 37 -65 41 -24 8 -27
49 -6 100 8 18 12 35 10 38 -2 2 5 12 16 22 11 10 20 28 20 39 -1 17 -4 15
-14 -10 -15 -33 -33 -44 -72 -44 -36 0 -62 16 -85 53 l-20 32 6 -32 c6 -31 6
-32 -23 -24 -49 14 -110 51 -164 100 -16 14 -28 21 -28 17z m674 -292 c44 -17
-10 -117 -72 -133 -66 -18 -94 -17 -106 2 -15 24 1 47 51 72 56 27 68 41 18
21 -22 -9 -56 -30 -76 -46 -50 -40 -140 -50 -186 -21 -44 28 -56 52 -37 79 11
16 25 22 52 21 20 0 31 -3 24 -6 -7 -3 19 -20 58 -39 l71 -34 37 29 c60 46
129 69 166 55z"/>
<path d="M4822 6648 l-2 -48 -45 7 -45 6 0 -59 c0 -33 5 -66 10 -74 6 -10 8 7
4 50 l-6 65 101 2 c81 1 101 -2 101 -13 0 -8 -4 -14 -9 -14 -6 0 -6 -12 0 -32
12 -42 11 -58 -1 -58 -5 0 -11 15 -11 33 -2 31 -2 31 -9 -8 -7 -41 -10 -34
-14 37 -4 62 -30 44 -41 -29 -4 -28 -11 -43 -21 -43 -8 0 -14 6 -14 13 0 8 -4
7 -11 -3 -9 -12 -10 -10 -6 9 3 13 2 31 -3 40 -5 9 -11 25 -15 36 -10 32 -25
-3 -23 -55 l1 -45 6 45 c4 33 8 40 14 27 4 -10 7 -31 7 -46 0 -26 -3 -29 -52
-35 -29 -3 -79 -6 -111 -6 l-58 0 1 -192 c1 -133 -2 -194 -9 -196 -8 -3 -10 9
-5 35 4 30 1 44 -16 66 -21 27 -40 35 -40 18 0 -5 9 -13 20 -16 26 -8 36 -50
19 -83 -7 -15 -15 -31 -17 -35 -2 -4 7 -5 20 -2 16 4 30 -1 45 -15 12 -11 31
-20 42 -20 11 0 25 -9 31 -20 9 -17 6 -25 -14 -45 -14 -14 -21 -25 -16 -25 4
0 6 -10 2 -22 l-5 -21 22 22 c27 27 45 23 49 -12 4 -33 8 -33 33 -4 l19 22 20
-24 c11 -13 20 -31 20 -40 1 -10 6 -6 16 12 10 18 23 27 39 27 20 0 24 -6 28
-37 l4 -38 -1 40 c-1 34 -5 41 -24 43 -13 2 -32 -4 -43 -14 -16 -15 -19 -15
-19 -2 0 27 -28 42 -54 30 -18 -8 -25 -6 -35 10 -8 13 -18 17 -31 13 -20 -6
-20 -6 0 28 22 36 45 52 62 41 5 -3 7 -12 4 -20 -8 -21 11 -27 23 -7 10 17 12
16 32 -7 19 -24 20 -24 9 -2 -6 13 -19 26 -28 28 -9 3 -27 10 -38 16 -15 7
-28 7 -42 -1 -16 -8 -21 -7 -26 4 -3 8 -12 15 -21 15 -17 0 -20 23 -16 135 2
82 20 195 31 195 15 0 38 -174 31 -235 -3 -33 -5 -68 -3 -78 6 -32 27 -11 28
29 l2 39 -8 -40 c-5 -25 -6 -4 -3 55 6 94 28 181 59 229 l17 24 13 -24 c9 -16
13 -19 14 -8 0 8 -6 23 -13 33 -13 18 -15 17 -34 -10 -11 -16 -29 -56 -41 -89
l-20 -60 -7 50 c-5 28 -14 66 -20 85 l-13 35 -15 -35 c-20 -46 -40 -231 -32
-283 6 -31 4 -38 -6 -35 -19 6 -27 77 -28 251 -1 111 2 147 12 148 6 0 28 2
47 4 121 12 306 26 372 28 43 1 78 6 78 11 0 5 -31 6 -70 3 l-70 -6 0 70 c0
48 -4 69 -12 70 -7 0 -34 0 -60 -1 l-47 -1 -4 43 -4 43 -1 -47z"/>
<path d="M5166 6415 c-40 -37 -72 -116 -93 -230 l-18 -100 -3 98 c-2 84 1 105
21 157 14 33 21 60 17 60 -9 0 -30 -46 -30 -68 -1 -26 -29 28 -30 56 0 12 -4
22 -9 22 -9 0 -53 -85 -78 -149 -8 -20 -11 -13 -27 53 -10 42 -22 76 -27 76
-5 0 -22 -25 -37 -56 -24 -50 -28 -53 -34 -32 -3 13 -5 -33 -3 -102 2 -69 0
-134 -5 -145 -5 -13 -7 2 -4 40 l3 60 -10 -59 c-7 -41 -7 -62 0 -69 19 -19 24
2 31 131 5 103 11 135 29 170 12 23 25 41 30 38 4 -3 16 -40 25 -83 15 -63 16
-90 8 -143 -11 -72 -7 -90 16 -90 13 0 14 12 8 84 -5 76 -3 92 20 155 14 39
32 75 39 81 20 17 39 -51 31 -114 -13 -111 -14 -133 -6 -101 7 27 8 24 9 -18
0 -30 -3 -46 -9 -42 -5 3 -10 -1 -10 -10 0 -11 5 -15 15 -11 20 7 19 0 -5 -49
-19 -40 -63 -75 -94 -75 -24 0 -19 -19 10 -43 14 -12 50 -45 79 -72 51 -48 56
-50 80 -38 48 26 59 65 63 223 2 80 5 151 7 158 4 10 10 9 30 -4 25 -16 33
-48 15 -59 -5 -3 -8 -35 -6 -71 4 -59 3 -64 -12 -52 -11 9 -9 2 6 -23 25 -42
28 -82 8 -121 -8 -16 -11 -28 -7 -28 13 0 31 49 31 85 0 19 5 37 10 40 6 3 10
-1 10 -9 0 -9 5 -16 11 -16 5 0 7 5 4 11 -4 5 -4 21 -1 34 l6 25 45 -35 c68
-51 115 -55 202 -14 56 26 69 36 65 51 -3 11 1 18 11 18 19 0 77 54 77 71 0 8
-7 3 -16 -9 -24 -34 -52 -46 -69 -28 -19 19 -19 31 1 50 8 9 14 24 12 34 -3
12 -11 3 -28 -30 -21 -41 -64 -77 -78 -64 -8 8 46 148 68 176 16 20 22 23 37
14 25 -15 40 -80 25 -105 -14 -23 0 -26 18 -4 20 24 23 10 5 -22 l-17 -28 21
25 c25 30 26 44 6 64 -8 8 -15 19 -15 24 0 19 -42 62 -61 62 -25 0 -25 34 0
61 10 11 21 37 24 57 3 20 8 46 13 56 5 13 4 17 -3 13 -6 -4 -13 -20 -16 -37
-8 -35 -24 -40 -30 -7 -2 12 -5 4 -5 -18 0 -22 2 -34 5 -27 6 14 23 16 23 2 0
-5 -8 -18 -17 -28 -10 -10 -23 -27 -29 -38 -6 -10 -25 -27 -42 -37 -31 -18
-32 -18 -62 4 -16 13 -30 28 -30 35 0 7 -4 16 -10 19 -21 13 4 -31 33 -58 26
-25 33 -27 55 -18 35 17 38 6 9 -28 -14 -17 -35 -59 -46 -93 -26 -76 -41 -103
-41 -73 0 24 12 66 35 120 9 22 12 35 6 29 -13 -12 -51 -116 -51 -139 0 -26
-20 -17 -83 40 -34 30 -68 55 -75 55 -8 0 -12 6 -9 13 7 22 25 13 86 -47 34
-32 61 -54 61 -48 0 6 -23 31 -52 56 -50 44 -52 46 -33 61 11 8 30 15 41 15
28 0 47 23 33 37 -6 6 -13 37 -14 69 -3 44 -10 66 -33 98 -31 42 -60 62 -49
32 5 -11 -1 -18 -19 -22 -27 -7 -65 -65 -84 -129 -7 -22 -15 -120 -19 -217 -6
-156 -9 -180 -27 -204 -28 -38 -57 -39 -94 -6 l-31 29 32 64 c22 44 39 102 54
189 13 69 26 136 30 150 5 21 3 20 -9 -5 -11 -24 -15 -26 -15 -10 -2 39 56
144 91 165 19 11 26 20 17 20 -9 0 -28 -11 -43 -25z m169 -101 c7 -55 -1 -115
-13 -98 -8 11 -62 13 -62 2 0 -8 23 -12 48 -9 15 2 16 -11 0 -27 -16 -16 -53
-15 -65 1 -23 28 -25 115 -3 102 5 -3 6 3 3 14 -3 11 7 32 27 55 41 46 56 36
65 -40z m-16 -249 c34 -30 73 -58 86 -61 31 -8 81 1 118 21 59 31 81 -24 24
-62 -56 -37 -111 -48 -154 -31 -57 22 -162 106 -169 134 -6 23 9 54 26 54 4 0
35 -25 69 -55z"/>
<path d="M2436 5054 c-18 -18 -21 -40 -6 -49 6 -3 10 -16 10 -29 0 -33 53
-110 92 -134 44 -27 112 -29 153 -4 42 26 145 131 145 148 0 18 -18 18 -36 -1
-39 -38 -168 -44 -235 -10 -58 29 -101 66 -95 81 7 19 -9 18 -28 -2z"/>
<path d="M925 2220 c0 -481 3 -830 6 -775 8 127 8 1266 0 1485 -3 91 -6 -229
-6 -710z"/>
<path d="M2378 188 c-14 -48 -17 -119 -7 -158 3 -10 -3 -15 -16 -15 -15 0 -22
9 -26 35 -6 34 -6 34 -8 5 0 -16 3 -35 7 -42 8 -13 53 -12 106 2 20 5 31 4 37
-6 5 -9 9 -10 9 -2 0 6 19 14 42 18 34 6 44 4 56 -11 13 -17 14 -17 9 -1 -4
11 -1 17 8 17 8 0 15 -7 15 -15 0 -8 4 -15 9 -15 5 0 7 9 4 20 -7 28 20 26 40
-3 14 -21 15 -21 14 -2 -2 14 4 20 18 20 13 0 20 -6 19 -18 -1 -11 5 -17 17
-17 16 0 18 5 13 25 -6 24 -5 25 44 25 48 0 51 -2 55 -27 l4 -28 2 28 c1 34
33 37 50 5 l11 -23 -6 23 c-8 34 29 29 43 -5 l12 -28 -6 28 c-5 24 -3 28 13
25 10 -2 22 -14 26 -28 7 -24 7 -24 4 3 -4 36 21 48 42 21 12 -16 14 -16 9 -1
-5 14 -1 17 22 17 16 0 31 -5 33 -12 3 -7 7 -5 11 7 7 17 2 18 -83 12 l-90 -7
-6 40 c-4 22 -10 37 -14 35 -4 -3 -4 -20 0 -39 6 -29 5 -34 -10 -33 -13 1 -17
11 -18 41 -3 56 -12 59 -12 3 l0 -47 -79 0 c-44 0 -81 3 -84 8 -2 4 -2 1 -1
-5 2 -7 -3 -13 -11 -13 -16 0 -22 21 -28 85 -3 22 -4 12 -3 -21 l2 -62 -36 -2
c-122 -8 -134 -6 -141 20 -6 23 -7 23 -8 -7 -1 -44 -21 -42 -21 2 0 27 -4 35
-17 35 -10 0 -14 -4 -8 -8 14 -10 20 -56 6 -48 -6 4 -11 3 -11 -2 0 -17 -39
-21 -51 -6 -16 20 -12 114 6 158 17 41 18 46 7 46 -4 0 -15 -24 -24 -52z"/>
</g>
</svg>
