<?xml version="1.0" standalone="no"?>
<!DOCTYPE svg PUBLIC "-//W3C//DTD SVG 20010904//EN"
 "http://www.w3.org/TR/2001/REC-SVG-20010904/DTD/svg10.dtd">
<svg version="1.0" xmlns="http://www.w3.org/2000/svg"
 width="693.000000pt" height="750.000000pt" viewBox="0 0 693.000000 750.000000"
 preserveAspectRatio="xMidYMid meet">
<metadata>
Created by potrace 1.16, written by Peter Selinger 2001-2019
</metadata>
<g transform="translate(0.000000,750.000000) scale(0.100000,-0.100000)"
fill="#000000" stroke="none">
<path d="M4182 6442 c-12 -2 -44 -25 -70 -51 -30 -30 -62 -52 -91 -60 -61 -18
-134 -92 -149 -153 -7 -26 -12 -67 -12 -92 0 -72 35 -207 59 -226 4 -3 21 -24
40 -47 18 -24 39 -43 46 -43 7 0 24 -12 37 -27 13 -16 39 -41 58 -57 23 -19
36 -39 37 -58 9 -97 88 -162 156 -127 32 17 77 61 77 76 0 15 23 16 166 4 55
-5 111 -15 123 -22 22 -14 67 -87 58 -95 -3 -3 -25 0 -50 7 -46 11 -59 10
-187 -10 -73 -12 -180 -58 -180 -77 0 -7 -27 -23 -60 -35 -36 -13 -66 -31 -75
-46 -9 -14 -32 -41 -50 -62 l-33 -37 14 -74 c8 -41 25 -97 38 -125 14 -27 24
-50 23 -51 -1 -1 -30 -4 -64 -8 -74 -8 -67 -20 -83 159 -21 245 -16 226 -66
265 -25 19 -52 40 -61 47 -13 10 -12 18 11 65 15 30 29 78 33 107 3 29 11 55
17 57 6 2 40 -4 76 -14 36 -11 71 -21 79 -23 7 -2 15 1 18 8 5 14 -113 53
-161 53 -22 0 -58 17 -116 56 -47 31 -145 92 -217 137 l-133 80 0 44 c0 35 -6
50 -31 75 -25 27 -30 39 -27 73 3 39 2 40 -33 43 -32 3 -38 0 -49 -27 -7 -17
-10 -37 -6 -46 5 -13 -10 -15 -97 -15 -122 0 -174 -8 -181 -26 -8 -22 4 -44
25 -44 10 0 19 -4 19 -10 0 -5 -4 -10 -10 -10 -5 0 -19 -9 -30 -20 -31 -31
-11 -60 40 -60 40 0 53 -13 25 -24 -20 -7 -19 -45 1 -53 9 -3 31 2 50 11 51
24 59 20 30 -15 -46 -55 -22 -87 40 -54 23 12 60 19 109 21 l74 2 68 -76 c102
-116 180 -191 263 -257 l75 -60 -35 -6 -35 -6 41 -2 c32 -1 54 -11 97 -43 55
-42 56 -44 57 -93 0 -27 7 -111 15 -185 8 -74 15 -141 15 -147 0 -7 -18 -22
-40 -33 -21 -11 -58 -39 -81 -63 l-41 -42 6 -63 c3 -35 22 -110 42 -168 l36
-105 -36 -39 c-42 -47 -50 -73 -44 -144 l4 -54 -33 26 c-37 31 -39 35 -18 52
22 18 19 23 -21 45 -61 33 -69 61 -55 195 24 223 -21 370 -135 440 -75 47
-211 64 -281 35 -23 -10 -68 -15 -128 -15 -106 0 -106 0 -217 -114 -67 -67
-68 -69 -68 -122 0 -58 21 -122 55 -169 34 -47 46 -90 33 -126 -10 -29 -7 -78
8 -141 5 -21 3 -28 -8 -28 -29 0 -67 -41 -109 -118 -23 -42 -80 -142 -126
-221 -68 -116 -83 -148 -76 -164 7 -16 2 -33 -23 -74 -31 -52 -32 -56 -18 -89
8 -19 12 -34 9 -34 -4 0 -29 15 -56 33 -33 21 -60 49 -78 83 -35 60 -89 110
-150 137 -71 31 -176 21 -277 -27 -95 -45 -136 -82 -175 -159 -57 -111 -73
-233 -56 -422 8 -80 6 -94 -11 -127 -23 -43 -19 -50 57 -89 64 -33 127 -40
208 -23 37 8 82 17 98 20 l30 5 -32 -15 c-18 -8 -33 -20 -33 -25 0 -6 -12 -17
-27 -25 -51 -26 -71 -51 -103 -127 -17 -41 -41 -87 -53 -102 l-22 -28 -51 39
c-76 57 -148 116 -156 127 -4 6 -8 22 -8 37 0 14 -3 34 -6 43 -9 22 -101 67
-123 60 -13 -4 -30 11 -64 58 -63 85 -77 97 -104 86 -44 -16 -41 -55 13 -146
l18 -31 -35 -45 c-35 -45 -35 -47 -28 -108 6 -53 12 -67 43 -98 35 -34 37 -35
78 -24 31 8 46 8 56 1 7 -6 28 -12 46 -12 27 -1 43 -14 103 -81 110 -124 238
-245 260 -245 19 0 114 65 121 82 2 4 8 8 13 8 17 0 9 -36 -16 -70 -31 -42
-31 -45 0 -76 l25 -25 -65 -129 -64 -129 54 -49 c64 -58 162 -116 225 -132 41
-10 50 -18 93 -84 26 -40 47 -78 47 -85 0 -7 -14 -29 -30 -48 -42 -47 -89
-144 -102 -209 -9 -44 -16 -58 -35 -65 -12 -4 -23 -14 -23 -20 0 -6 -9 -24
-20 -39 -18 -25 -19 -38 -14 -102 5 -60 12 -82 40 -126 19 -28 39 -52 45 -52
6 0 9 -7 5 -15 -3 -9 0 -15 10 -15 8 0 25 -9 37 -20 45 -43 129 -75 192 -75
79 0 151 28 170 66 l15 29 843 3 842 2 -844 3 -843 2 5 22 c10 35 -18 87 -55
103 -18 8 -55 35 -83 61 -47 43 -50 49 -52 100 -2 50 3 63 58 160 34 59 76
130 95 158 18 28 36 66 40 84 l7 32 68 0 c38 0 69 -4 69 -9 0 -4 16 -29 36
-55 l36 -47 66 2 c63 2 67 1 84 -26 34 -57 96 -67 170 -29 26 13 29 13 35 -3
3 -10 12 -33 19 -52 8 -18 14 -50 14 -70 0 -42 38 -128 67 -154 12 -10 35 -47
53 -83 36 -74 67 -99 121 -97 80 4 256 77 379 159 l55 37 173 1 c125 1 172 -2
172 -11 0 -35 77 -270 112 -343 35 -72 56 -100 138 -180 103 -100 166 -140
234 -147 40 -3 43 -1 146 97 58 56 139 125 180 155 76 55 145 117 167 151 44
66 55 99 50 143 -7 59 -35 84 -117 101 -58 12 -65 12 -106 -8 -70 -34 -81 -31
-89 31 -8 62 -39 139 -66 163 -22 19 -42 61 -99 204 -21 52 -57 140 -80 195
-60 142 -60 141 -14 184 56 51 101 111 128 173 24 53 40 193 64 573 l7 110 43
15 42 14 -2 583 c-1 320 1 585 4 588 3 3 33 10 68 16 116 18 170 64 170 143 0
31 5 38 39 55 21 11 51 31 67 44 16 13 45 32 64 42 62 31 90 64 90 107 0 82
-75 219 -214 391 -118 146 -114 140 -81 127 15 -6 30 -8 32 -6 3 3 -14 10 -36
17 -27 8 -55 28 -80 55 -37 42 -38 43 -28 92 10 47 8 56 -38 173 -62 160 -89
189 -175 189 -32 0 -61 -4 -64 -9 -4 -5 -24 -12 -47 -16 -24 -4 -42 -13 -46
-23 -22 -71 -47 -80 -63 -24 -5 22 -20 54 -32 72 -40 58 -64 69 -170 76 -54 4
-98 10 -98 13 0 3 16 17 36 31 19 14 59 54 88 88 82 98 95 172 42 252 -18 28
-22 45 -19 82 5 45 7 47 29 42 32 -8 32 14 0 82 -52 112 -148 179 -271 191
-60 5 -65 8 -59 26 5 17 3 19 -20 13 -86 -21 -82 -20 -68 -4 15 19 6 26 -26
20z m-28 -67 c-8 -31 4 -32 48 -5 39 23 49 25 42 6 -3 -9 5 -15 26 -19 36 -8
122 -85 143 -130 9 -18 19 -50 23 -72 6 -36 5 -39 -9 -27 -13 12 -16 10 -19
-15 -5 -44 -29 -33 -50 24 -11 28 -33 66 -49 85 l-28 33 -1 -72 c0 -58 -3 -73
-15 -73 -8 0 -15 -5 -15 -10 0 -7 -6 -7 -20 0 -15 8 -21 6 -29 -9 -7 -13 -18
-17 -31 -14 -11 3 -20 0 -20 -6 0 -6 -6 -11 -14 -11 -18 0 -56 94 -57 144 -1
35 -2 37 -9 16 -4 -14 -5 -67 -2 -119 5 -92 5 -93 -16 -87 -16 6 -22 3 -22 -9
0 -9 -4 -13 -10 -10 -6 4 -10 -5 -10 -20 0 -20 -4 -26 -16 -21 -8 3 -25 -3
-37 -14 -18 -17 -23 -18 -35 -7 -19 20 -31 81 -32 158 0 114 58 195 159 221
27 7 49 22 71 49 36 46 43 48 34 14z m280 -32 c32 -10 67 -33 102 -67 52 -51
52 -51 47 -101 -7 -58 -9 -63 -25 -47 -7 7 -19 12 -28 12 -8 0 -20 8 -27 18
-88 131 -114 160 -178 196 l-30 17 45 -6 c25 -3 67 -13 94 -22z m-100 -220
c10 -27 19 -54 22 -61 2 -8 12 -10 29 -6 13 3 36 7 50 8 22 1 25 5 25 43 0 23
4 44 8 47 5 3 22 -22 38 -56 25 -53 29 -57 35 -37 5 22 6 21 14 -11 4 -19 16
-41 26 -48 28 -20 49 -66 49 -109 0 -97 -178 -283 -270 -283 -34 0 -138 29
-189 53 -55 26 -211 177 -211 205 0 30 11 33 40 12 33 -24 42 -17 34 26 -3 18
-1 34 5 38 6 4 11 2 11 -3 0 -6 5 -11 10 -11 6 0 10 9 10 21 0 15 5 19 15 15
12 -4 15 4 15 40 l0 44 25 -16 c19 -12 28 -14 39 -5 7 6 21 9 30 5 11 -4 16
-1 16 10 0 21 24 21 41 0 12 -14 14 -13 21 7 7 17 11 20 20 11 21 -21 25 -13
17 36 -10 63 -11 72 0 72 4 0 16 -21 25 -47z m-931 -8 c5 -32 15 -53 34 -69
22 -19 27 -33 29 -72 l2 -48 133 -81 c152 -92 290 -183 302 -199 14 -20 -14
-133 -42 -167 l-19 -23 -43 29 c-56 39 -221 201 -294 290 -63 76 -70 81 -80
66 -3 -6 -38 -11 -76 -11 -48 0 -78 -5 -95 -16 -37 -25 -39 -11 -4 26 30 32
30 34 16 64 -7 17 -24 54 -36 82 -12 28 -27 51 -33 51 -55 -1 -107 5 -107 13
0 6 48 10 124 10 l123 0 7 -39 c3 -21 11 -43 18 -49 10 -8 12 8 10 76 -1 48 0
92 3 99 9 26 22 12 28 -32z m870 -507 c42 -12 77 -25 77 -29 0 -18 -73 -69
-98 -69 -46 0 -92 51 -92 103 0 24 3 28 18 22 9 -3 52 -16 95 -27z m730 -113
c50 -10 69 -35 119 -166 43 -110 45 -119 36 -167 -12 -58 -24 -38 133 -219
114 -131 183 -228 236 -330 56 -108 57 -141 5 -177 -53 -36 -94 -47 -138 -34
-47 13 -115 76 -160 149 -42 70 -127 290 -144 374 -18 92 -71 155 -129 155
-18 0 -21 6 -21 44 0 51 -21 117 -50 153 -20 26 -28 73 -11 73 5 0 19 -24 31
-52 31 -72 53 -99 71 -87 19 12 66 11 74 -1 10 -16 25 -12 19 5 -4 8 -20 19
-37 23 -42 11 -45 28 -6 36 27 5 30 9 25 30 -5 19 -1 25 19 30 32 8 31 20 -5
66 -21 26 -43 41 -75 50 -25 7 -50 21 -55 30 -11 20 -2 33 16 26 7 -3 28 -8
47 -11z m-297 -64 c40 -18 114 -94 114 -116 0 -7 13 -23 29 -36 15 -13 36 -38
45 -56 21 -42 22 -160 1 -182 -41 -45 -53 -57 -69 -66 -12 -7 -20 -27 -23 -58
-6 -50 -27 -72 -44 -46 -5 8 -9 46 -9 84 0 59 -5 78 -29 118 -23 39 -27 57
-24 92 7 58 -9 64 -57 21 -43 -39 -83 -62 -117 -67 -28 -5 -28 -1 2 63 27 57
31 78 15 78 -5 0 -10 -4 -10 -10 0 -18 -94 -64 -156 -75 l-62 -12 5 32 c3 18
0 35 -5 39 -6 4 -35 -9 -65 -28 -45 -29 -58 -43 -71 -82 -9 -26 -16 -58 -16
-71 0 -45 -19 -13 -35 61 l-17 74 47 58 c39 48 60 63 122 90 75 33 99 48 119
74 9 10 40 15 113 18 56 2 101 8 101 13 0 15 53 10 96 -10z m-441 -266 l-30
-25 68 0 c42 0 89 8 124 20 32 11 59 20 60 20 10 0 -1 -23 -22 -48 -14 -17
-25 -35 -25 -41 0 -29 126 4 188 49 l42 30 0 -33 c0 -20 12 -52 30 -80 26 -42
30 -57 30 -121 0 -82 11 -100 57 -94 25 3 29 8 38 57 13 69 35 81 35 19 0 -45
-41 -160 -60 -166 -6 -2 -17 2 -25 8 -12 10 -17 7 -25 -15 -5 -14 -10 -29 -10
-33 0 -8 -217 -253 -234 -264 -6 -4 -43 -8 -82 -8 -81 0 -98 11 -129 81 -10
24 -41 83 -68 131 -57 102 -73 158 -55 191 7 13 13 66 14 127 1 114 19 179 57
205 37 26 55 17 22 -10z m760 -150 c11 -13 37 -82 57 -152 20 -71 39 -136 43
-145 6 -15 2 -18 -27 -18 -33 0 -34 1 -52 68 -29 103 -61 159 -111 194 -42 30
-50 48 -19 48 8 0 14 8 14 18 0 10 3 21 6 24 11 12 69 -12 89 -37z m-1517 -31
c74 -21 130 -75 162 -156 26 -66 30 -137 19 -356 l-4 -83 42 -40 c33 -30 39
-41 28 -45 -9 -4 -28 -1 -43 5 -23 10 -31 23 -47 84 l-20 72 -3 -52 c-3 -44 8
-84 35 -134 2 -4 -17 -14 -43 -23 -38 -13 -49 -13 -56 -4 -12 20 -10 34 17 98
24 57 33 133 17 156 -4 6 -14 13 -22 16 -8 3 -21 26 -28 51 -8 25 -22 53 -33
63 -22 20 -22 20 -9 -26 13 -42 3 -133 -14 -127 -14 4 -57 90 -92 185 -15 40
-34 78 -42 85 -13 10 -14 8 -8 -13 14 -48 45 -204 42 -208 -2 -2 -20 16 -39
40 -46 57 -120 211 -119 249 1 33 -5 35 -34 11 -32 -25 -47 -59 -59 -132 l-11
-65 -27 40 c-14 21 -32 64 -38 94 -18 88 -16 86 -46 57 -14 -14 -29 -26 -34
-26 -14 0 -32 -42 -45 -100 l-12 -55 -12 30 c-7 17 -13 54 -14 82 -1 52 -1 53
74 128 86 86 112 97 223 93 71 -3 72 -4 89 -36 22 -45 32 -53 24 -19 -3 15 -2
27 3 27 20 0 107 -67 129 -100 20 -28 23 -30 17 -10 -13 43 -34 78 -57 94 -20
14 -20 16 -4 16 19 0 130 -53 156 -74 33 -28 44 -28 20 -1 -64 74 -123 105
-208 111 -72 4 -72 4 -42 14 30 11 97 4 168 -16z m1450 -80 c22 -26 43 -80 78
-196 39 -128 54 -164 73 -176 28 -19 81 -89 81 -109 0 -8 -12 -13 -36 -13
-110 0 -304 -97 -304 -152 0 -29 -15 -21 -34 18 -16 35 -16 38 4 78 12 22 34
54 48 70 30 32 135 106 151 106 5 0 12 4 15 9 10 16 -77 -9 -144 -41 -46 -21
-70 -40 -81 -61 -19 -37 -35 -44 -47 -20 -13 24 -26 207 -15 200 5 -3 7 9 5
28 -5 44 11 71 46 78 24 5 33 17 57 72 15 37 30 89 33 116 4 43 7 47 22 39 10
-6 32 -26 48 -46z m-798 1 c0 -43 -27 -85 -54 -85 -31 0 -56 -10 -56 -21 0 -5
6 -9 13 -9 36 0 87 -22 87 -38 0 -9 10 -33 21 -52 12 -19 44 -80 72 -135 27
-55 56 -108 65 -117 14 -17 12 -18 -41 -18 -32 0 -57 -4 -57 -10 0 -5 7 -10
15 -10 54 0 205 -130 205 -176 0 -7 -36 -13 -102 -17 -90 -5 -147 -17 -210
-42 -14 -6 -18 -2 -18 17 0 28 14 48 53 72 37 23 35 63 -3 58 -21 -3 -22 -2
-11 12 19 23 6 69 -18 61 -15 -5 -17 -1 -13 20 2 14 -1 32 -8 40 -10 12 -15
12 -36 -2 -29 -18 -40 -12 -26 13 11 20 -1 54 -19 54 -6 0 -24 -10 -41 -21
-25 -18 -32 -19 -39 -8 -18 29 -61 184 -66 238 -5 51 -3 60 21 88 36 42 103
80 173 97 85 21 93 20 93 -9z m-1095 -182 c29 -85 115 -172 115 -116 0 24 41
153 49 153 3 -1 25 -41 49 -91 56 -118 162 -231 162 -173 0 11 14 1 38 -26
l38 -43 22 36 c23 39 46 48 56 20 11 -28 -21 -117 -54 -148 -16 -16 -30 -34
-30 -40 0 -16 -41 -59 -141 -147 -118 -103 -167 -113 -210 -40 -12 20 -51 81
-87 134 -56 84 -66 105 -70 152 -2 30 1 69 7 87 8 22 8 36 1 43 -25 25 1 256
29 256 4 0 16 -26 26 -57z m2096 -85 c21 -52 88 -160 123 -196 34 -36 94 -72
123 -72 16 -1 16 -2 -2 -16 -11 -9 -32 -22 -47 -30 -25 -13 -27 -12 -47 21
-11 19 -36 42 -54 51 -22 11 -38 28 -46 50 -7 19 -34 56 -61 82 -30 30 -52 62
-59 87 -15 55 -15 55 23 55 29 0 36 -5 47 -32z m-432 -133 l11 -120 -52 -52
c-84 -85 -135 -89 -240 -16 -31 21 -38 32 -38 59 0 34 0 34 48 34 47 0 47 0
150 107 56 59 102 112 103 118 2 27 9 -21 18 -130z m-709 -25 c0 -5 -6 -13
-14 -17 -19 -11 -56 -75 -50 -85 8 -12 21 -10 36 6 19 19 79 49 85 42 3 -2
-13 -22 -36 -44 -61 -58 -54 -81 13 -41 19 11 43 19 53 16 15 -3 13 -6 -9 -15
-33 -13 -55 -49 -39 -65 7 -7 14 -7 23 0 19 15 58 23 58 12 0 -5 -4 -9 -8 -9
-23 0 -52 -40 -58 -81 -3 -24 -15 -57 -26 -73 -36 -50 -39 -90 -16 -221 16
-93 19 -149 16 -250 -6 -154 -28 -227 -89 -288 l-38 -38 -38 16 c-89 36 -141
141 -129 261 8 80 33 161 101 328 l54 132 -25 114 c-33 153 -30 169 54 248 65
61 82 72 82 52z m1212 -90 c36 -11 68 -42 68 -67 0 -9 -10 -7 -32 7 -18 11
-49 20 -68 20 -20 0 -42 6 -49 13 -11 10 -14 10 -18 0 -3 -7 -12 -13 -22 -13
-35 0 -122 -53 -166 -102 -44 -49 -69 -106 -58 -134 3 -8 1 -14 -5 -14 -13 0
-22 25 -22 65 0 26 11 44 54 89 30 31 47 52 37 46 -10 -5 -33 -26 -50 -46 -38
-42 -48 -40 -28 8 11 25 29 42 73 65 69 37 168 67 195 60 10 -3 22 -1 25 4 7
12 20 11 66 -1z m-462 -51 c0 -30 9 -55 35 -93 19 -29 35 -62 35 -74 0 -31 18
-74 42 -99 26 -27 81 -31 135 -8 19 8 37 15 39 15 2 0 4 -35 4 -78 0 -92 -1
-93 -104 -147 -37 -19 -62 -35 -56 -35 14 0 87 37 122 61 25 18 27 18 32 2 10
-35 26 -175 21 -184 -6 -8 -11 -283 -13 -611 l-1 -156 -33 -11 c-185 -59 -512
-60 -821 -5 -49 9 -90 21 -92 28 -2 6 -7 40 -12 76 l-8 65 -33 -54 -34 -54
-29 29 -29 29 20 53 c30 78 42 141 41 204 -1 31 2 59 8 62 5 3 7 15 4 25 -3
11 2 57 11 103 31 162 32 182 20 300 -6 65 -14 125 -18 133 -8 21 6 19 26 -4
28 -33 83 -37 173 -12 44 12 114 28 156 34 88 14 105 25 119 76 14 53 -11 127
-60 179 -12 13 -20 26 -17 28 8 8 68 -26 111 -62 22 -19 47 -34 57 -34 16 0
65 53 83 90 9 17 -19 -14 -50 -56 -19 -26 -22 -27 -51 -15 -18 7 -40 22 -50
33 -10 11 -35 29 -56 39 -32 17 -66 64 -54 76 2 2 30 -8 63 -23 79 -35 114
-24 192 56 31 32 60 59 65 59 4 1 7 -17 7 -40z m454 -10 c53 -15 86 -50 86
-92 0 -69 -60 -108 -191 -126 -37 -5 -80 -16 -98 -25 -17 -9 -48 -18 -68 -19
-33 -2 -37 1 -45 31 -13 49 5 91 64 151 79 78 163 105 252 80z m-1674 -57 c0
-32 25 -72 46 -72 8 0 14 4 14 9 0 12 53 33 90 36 17 1 33 5 37 9 12 12 24 6
73 -40 38 -35 51 -56 60 -95 12 -48 11 -53 -30 -157 -24 -59 -46 -111 -50
-115 -4 -5 -17 29 -28 75 l-20 83 5 -121 c7 -142 -2 -178 -56 -227 -40 -36
-134 -77 -176 -77 -13 0 -27 -5 -31 -11 -7 -12 124 -4 183 11 l32 8 5 -61 c20
-223 20 -214 -9 -241 -39 -36 -171 -102 -241 -120 -80 -21 -205 -20 -275 0
-63 19 -160 66 -177 86 -6 8 -16 65 -23 127 l-12 112 34 35 c23 24 42 34 63
34 51 0 63 16 19 23 -23 4 -49 17 -64 33 -20 22 -24 35 -23 87 1 58 4 65 43
105 52 54 91 130 91 177 0 32 -23 105 -33 105 -2 0 -2 -31 1 -68 5 -79 -10
-118 -76 -192 l-40 -45 -56 55 c-31 30 -56 49 -56 43 0 -6 14 -38 30 -72 17
-33 33 -75 37 -92 l6 -30 -36 24 c-20 13 -75 37 -122 52 -48 15 -89 33 -91 40
-3 7 33 77 79 156 46 79 101 174 121 211 39 69 76 108 105 108 9 0 43 -42 80
-98 36 -53 72 -108 80 -121 22 -32 89 -35 135 -7 67 42 225 190 232 219 8 35
24 35 24 -1z m883 -84 c36 -19 52 -39 38 -47 -8 -5 -3 -11 13 -19 17 -8 27
-22 32 -47 7 -39 -1 -59 -13 -29 -25 69 -184 129 -279 105 -23 -6 -51 -8 -61
-4 -10 3 -15 3 -11 -2 4 -4 -11 -21 -33 -37 -22 -16 -48 -43 -59 -61 l-20 -32
0 36 c0 21 8 47 20 61 20 26 95 61 165 77 58 13 183 13 208 -1z m-23 -86 c39
-19 61 -38 75 -64 28 -53 15 -71 -61 -82 -32 -4 -97 -19 -144 -32 -138 -39
-187 -29 -210 41 -9 28 -8 40 5 67 18 38 75 81 125 97 55 16 148 5 210 -27z
m-2058 -271 c46 -19 116 -88 143 -140 15 -29 15 -32 -2 -38 -10 -4 -22 -12
-26 -20 -12 -20 -20 -17 -66 27 -49 47 -66 45 -45 -5 21 -50 18 -53 -21 -15
-19 18 -37 31 -40 29 -2 -3 5 -29 16 -59 23 -62 21 -73 -22 -95 l-31 -17 -39
41 c-42 43 -66 54 -54 24 4 -10 9 -43 12 -73 5 -50 3 -57 -21 -79 -14 -14 -28
-22 -31 -19 -3 2 -11 33 -18 68 -7 36 -19 66 -26 68 -10 3 -12 -1 -7 -13 13
-35 27 -218 17 -228 -12 -12 -67 63 -117 161 -52 101 -57 174 -17 252 20 40
40 63 73 82 109 67 236 86 322 49z m428 -91 c65 -17 117 -49 129 -79 11 -28
36 -192 46 -306 10 -109 16 -148 26 -166 6 -12 4 -21 -6 -29 -15 -13 -21 -60
-7 -60 7 0 14 -16 42 -87 6 -17 20 -33 31 -36 18 -5 18 -7 3 -44 -24 -58 -83
-99 -70 -48 4 14 2 25 -4 25 -5 0 -10 -3 -10 -8 0 -10 -41 -35 -47 -28 -3 3 0
13 8 22 13 16 11 17 -23 10 -24 -4 -38 -3 -38 4 0 5 4 10 9 10 4 0 21 12 35
27 27 27 28 30 21 108 -7 78 -27 131 -45 120 -13 -8 -100 168 -100 200 0 15 4
24 10 20 11 -7 40 53 40 83 0 13 -20 28 -70 51 -70 33 -84 48 -110 115 -12 32
41 120 68 112 9 -3 37 -10 62 -16z m-368 -115 c20 -25 52 -33 63 -15 13 20 25
9 37 -34 7 -27 21 -50 38 -61 54 -36 75 -82 75 -161 0 -61 -5 -82 -34 -143
-45 -92 -68 -104 -195 -99 -81 3 -100 7 -159 37 -61 31 -67 32 -82 17 -15 -15
-19 -15 -45 1 -28 16 -69 87 -57 99 4 4 18 -1 32 -10 l25 -16 0 60 c0 55 2 61
28 74 52 27 65 50 60 106 -5 54 5 65 24 25 12 -27 35 -26 91 2 36 18 42 35 28
74 -11 32 -11 32 9 14 11 -10 20 -25 21 -34 0 -9 5 -3 10 14 4 16 6 39 3 52
-8 30 3 29 28 -2z m317 -110 c70 -35 79 -46 62 -74 -8 -12 -14 -13 -37 -2 -36
16 -55 0 -31 -27 26 -29 21 -44 -33 -97 l-51 -50 7 55 c9 78 -8 131 -59 182
-34 36 -66 98 -67 130 0 4 31 -12 69 -37 37 -24 100 -60 140 -80z m-789 -42
c11 -25 37 -73 57 -106 27 -45 38 -74 38 -103 1 -77 73 -142 129 -116 30 13
55 -7 62 -50 l6 -34 -91 -22 c-50 -12 -95 -22 -100 -22 -5 0 -14 30 -20 66
-14 76 -45 162 -68 184 -14 13 -15 13 -9 -5 20 -53 46 -172 46 -207 0 -36 -2
-39 -22 -32 -13 3 -45 18 -71 31 -38 19 -47 28 -42 41 18 41 22 100 13 175
-12 100 -4 218 19 294 l17 58 8 -54 c5 -29 17 -74 28 -98z m1856 -258 c-4 -77
-11 -160 -16 -185 -7 -37 -4 -56 16 -109 29 -77 25 -112 -17 -142 -16 -11 -30
-19 -30 -17 -1 2 -9 113 -18 247 -16 230 -16 246 0 277 13 26 16 50 12 101
l-5 68 32 -50 33 -50 -7 -140z m218 117 c-18 -131 -29 -184 -49 -235 l-23 -57
24 -36 c21 -31 23 -40 14 -77 -5 -23 -10 -81 -10 -128 l0 -86 73 -154 c41 -85
88 -186 107 -226 l33 -72 -47 -51 c-25 -29 -62 -78 -82 -111 -31 -51 -39 -59
-66 -59 -33 0 -141 -62 -164 -94 -8 -11 -14 -30 -14 -42 0 -22 -66 -84 -88
-84 -11 0 -132 351 -132 381 0 10 17 31 38 49 80 69 96 86 115 129 18 41 19
58 13 197 l-7 153 38 25 c23 16 44 40 51 60 11 30 10 42 -13 102 -24 63 -25
73 -15 142 5 40 10 121 10 179 0 96 1 105 18 98 81 -33 108 -31 144 14 29 36
38 31 32 -17z m-1211 -89 l48 -96 -21 -29 c-21 -28 -21 -31 -6 -98 9 -37 13
-82 10 -99 -4 -17 -2 -37 3 -43 13 -17 4 -100 -10 -95 -5 1 -41 52 -79 113
-94 147 -101 154 -157 154 -42 0 -131 27 -131 40 0 3 15 7 32 8 43 3 74 25 94
65 14 27 147 169 164 175 3 1 27 -41 53 -95z m891 -105 c4 -57 14 -193 21
-303 24 -329 24 -413 -2 -460 -11 -22 -40 -56 -64 -75 -24 -19 -45 -38 -47
-42 -2 -4 -10 -8 -17 -8 -21 0 -39 68 -37 139 1 47 -3 72 -17 95 -17 28 -115
287 -131 346 -7 26 33 113 71 156 40 44 16 36 -31 -11 -34 -34 -50 -44 -50
-32 0 9 -7 34 -15 55 -22 53 -125 119 -125 80 0 -7 18 -21 40 -30 48 -20 70
-63 70 -136 0 -34 16 -94 49 -188 62 -177 67 -188 98 -251 23 -44 25 -56 15
-77 -9 -21 -7 -41 14 -113 48 -171 167 -518 178 -522 24 -9 83 -80 116 -141
19 -36 35 -69 35 -73 0 -4 -32 -19 -72 -32 -79 -27 -204 -99 -303 -174 -73
-56 -82 -55 -115 18 -16 37 -16 41 1 77 18 39 142 171 179 192 11 6 17 13 14
16 -8 8 -121 -63 -169 -106 -23 -21 -45 -38 -49 -38 -8 0 -35 80 -29 84 2 1
37 23 78 48 129 80 190 153 190 228 0 38 -34 106 -59 120 -50 26 -182 -4 -243
-55 -17 -14 -32 -24 -34 -23 -5 6 -52 273 -59 341 -5 44 -13 71 -21 74 -10 4
-14 24 -14 68 0 64 -16 121 -100 354 l-41 114 21 22 c11 11 25 36 31 55 7 19
23 45 38 56 21 18 25 29 22 65 -2 27 -12 55 -28 76 -14 19 -24 36 -21 38 3 3
20 -1 39 -9 144 -58 341 -39 494 48 33 19 63 35 66 35 4 1 9 -45 13 -101z
m-2184 -59 c68 -92 66 -89 53 -97 -6 -4 -13 -34 -15 -67 l-3 -60 37 0 c34 0
37 -3 43 -32 11 -59 25 -35 25 42 0 58 -3 75 -14 75 -9 0 -16 -12 -18 -27 -2
-20 -9 -29 -25 -31 -20 -3 -23 1 -23 30 0 39 7 51 37 67 19 9 30 8 62 -9 46
-23 55 -42 42 -88 -8 -28 -7 -34 7 -38 32 -10 54 -26 197 -139 145 -116 203
-184 190 -223 -6 -20 -86 -82 -105 -82 -22 0 -111 84 -220 208 -97 111 -107
120 -135 116 -20 -3 -38 2 -55 15 -22 18 -23 23 -12 40 14 25 15 31 3 31 -5 0
-16 -18 -25 -40 -13 -33 -20 -40 -44 -40 -30 0 -72 44 -72 75 0 14 4 13 26 -4
41 -32 49 -25 16 13 -37 42 -48 74 -32 90 10 8 14 7 18 -4 7 -20 67 -80 81
-80 6 0 -7 24 -29 53 -43 56 -48 74 -25 83 22 9 19 19 -20 77 -33 49 -43 85
-28 100 12 12 17 7 63 -54z m784 26 c27 -8 71 -15 98 -15 47 0 48 -1 48 -31 0
-17 5 -39 10 -49 8 -15 5 -24 -17 -45 -82 -75 -185 -20 -187 100 -1 30 -1 55
-1 55 0 0 22 -7 49 -15z m207 -56 c15 -8 18 -14 9 -23 -8 -10 -6 -15 10 -19
27 -7 27 -47 0 -54 -12 -3 -20 -14 -20 -27 0 -12 -5 -27 -12 -34 -15 -15 -54
-16 -63 -2 -9 15 -25 12 -25 -5 0 -19 -49 -31 -69 -16 -29 20 -45 25 -49 13
-2 -7 -14 -12 -27 -12 -19 0 -24 6 -27 33 -2 27 -8 33 -30 35 -35 4 -38 34 -6
56 30 22 33 21 55 -16 27 -46 80 -73 127 -64 43 8 110 62 101 83 -23 60 -16
75 26 52z m136 -41 c7 -6 43 -58 80 -117 37 -58 78 -115 90 -126 20 -18 23
-31 23 -85 0 -63 -16 -147 -26 -137 -3 3 -12 31 -21 63 -14 54 -91 223 -115
252 -21 25 -18 4 7 -51 32 -68 70 -219 80 -309 l7 -67 -44 -41 c-163 -152
-349 -181 -541 -83 -53 26 -68 50 -45 67 32 23 37 52 33 177 -3 115 -18 213
-35 232 -4 4 -10 -36 -13 -89 -3 -53 -9 -100 -14 -104 -4 -4 -31 18 -60 50
l-52 57 40 84 c62 130 62 130 92 147 20 12 30 14 35 6 4 -7 16 -13 27 -15 13
-3 21 -14 23 -32 4 -30 35 -44 71 -32 12 3 36 1 55 -6 29 -11 38 -10 60 4 14
9 32 14 41 11 25 -10 75 16 81 43 4 13 15 28 25 34 21 11 25 40 9 70 -10 18
-8 19 32 13 24 -4 49 -11 55 -16z m1452 -69 c1 -26 4 -27 114 -48 187 -35 309
-44 502 -38 99 3 198 10 220 16 22 5 44 6 48 2 5 -5 1 -96 -7 -202 -32 -383
-37 -421 -62 -471 -24 -47 -129 -178 -143 -178 -4 0 -15 48 -24 108 -12 79
-29 136 -63 217 -88 212 -86 203 -61 226 12 12 51 36 87 54 61 31 116 72 108
81 -5 5 -200 -74 -212 -86 -18 -18 -24 -11 -40 43 -18 60 -49 112 -86 139 -30
22 -101 29 -107 11 -3 -9 6 -13 27 -13 17 0 43 -6 58 -14 33 -17 77 -94 88
-151 4 -22 41 -121 81 -220 41 -99 79 -205 83 -235 5 -30 14 -85 20 -123 8
-44 50 -160 121 -333 61 -147 109 -267 107 -268 -2 -2 -24 -10 -51 -20 -68
-25 -157 -95 -220 -171 -57 -69 -124 -191 -112 -203 4 -4 10 -1 12 6 23 63
185 220 263 255 56 25 162 57 170 52 25 -16 40 -175 16 -175 -7 0 -45 -16 -84
-36 -83 -41 -207 -153 -278 -249 -51 -69 -63 -71 -97 -16 -9 14 -17 20 -17 13
0 -8 14 -27 32 -44 28 -26 30 -31 16 -44 -13 -14 -18 -11 -46 21 -122 138
-221 538 -262 1056 -8 105 -12 120 -42 168 -28 46 -33 63 -34 125 -2 68 -7 81
-113 308 -103 220 -111 241 -110 295 1 80 20 158 39 159 36 2 40 5 41 27 0 21
1 21 9 2 5 -11 9 -32 9 -46z m-1143 -100 c3 -5 16 -9 30 -9 24 0 24 -1 24 -92
0 -51 -3 -130 -7 -175 -6 -81 -7 -83 -32 -83 -35 0 -93 17 -113 32 -15 12 -16
18 -2 68 7 30 14 88 14 130 0 41 3 91 6 110 6 34 8 36 40 32 19 -2 37 -8 40
-13z m148 -277 c37 -108 44 -141 40 -176 -4 -24 -1 -52 5 -64 9 -18 6 -25 -26
-51 -48 -39 -59 -39 -77 3 -8 19 -26 42 -40 51 -14 10 -26 23 -26 30 0 24 -31
45 -64 45 -28 0 -38 7 -60 41 -15 22 -26 42 -24 44 2 2 30 -5 62 -16 65 -21
111 -25 121 -9 5 8 20 164 25 255 1 20 20 -24 64 -153z m-268 -139 c21 -27 17
-36 -13 -29 -26 6 -26 5 -10 -8 17 -13 16 -15 -12 -35 -16 -12 -34 -21 -41
-21 -6 0 -9 -4 -6 -9 4 -5 -11 -28 -31 -51 -21 -23 -47 -56 -57 -73 l-20 -32
30 27 c25 23 33 26 44 15 12 -10 12 -9 2 4 -10 13 -8 21 9 43 18 22 26 25 58
20 21 -3 41 -2 44 3 3 5 -7 8 -22 5 -39 -5 -47 13 -15 34 22 15 27 15 35 3 7
-11 9 -9 9 8 0 37 41 55 103 44 23 -4 -7 -61 -32 -61 -6 0 -11 -5 -11 -10 0
-19 -122 -160 -133 -153 -6 3 -7 1 -3 -6 12 -19 -141 -221 -167 -221 -6 0 -15
-6 -21 -14 -20 -24 -95 -46 -161 -46 -104 0 -213 48 -321 140 l-42 35 61 120
c69 137 65 131 74 121 4 -4 1 -17 -6 -29 -13 -21 -13 -22 6 -4 21 18 48 22 57
8 3 -5 33 -12 66 -16 33 -4 60 -10 60 -15 0 -14 175 20 226 45 29 13 68 38 87
54 19 17 38 31 42 31 4 0 25 20 47 45 22 25 42 45 45 45 3 0 12 -8 19 -17z
m258 -290 c66 -137 77 -168 67 -182 -6 -9 -19 -29 -29 -45 -23 -39 -49 -66
-64 -66 -7 0 -53 38 -102 84 l-89 84 6 53 c5 53 5 53 -9 22 -12 -27 -21 -33
-69 -43 -30 -6 -59 -10 -64 -8 -11 4 104 156 173 231 77 81 81 77 180 -130z
m104 -15 c26 -170 27 -180 6 -153 -30 40 -125 238 -117 245 31 26 67 50 77 50
7 0 20 -56 34 -142z m1041 -73 c25 -36 29 -54 42 -195 20 -226 19 -269 -7
-286 -20 -13 -28 -9 -120 64 -103 83 -123 102 -148 149 -8 15 -15 23 -16 17
-1 -24 75 -132 135 -193 36 -35 65 -68 65 -72 0 -4 -14 -10 -31 -14 -24 -6
-47 1 -103 29 -125 61 -193 139 -211 239 -7 36 -6 38 31 53 44 19 50 20 85 11
24 -6 27 -3 33 25 7 38 65 96 155 156 35 23 59 42 53 42 -13 0 -127 -83 -169
-123 -17 -16 -37 -43 -44 -59 -10 -23 -17 -28 -43 -27 -17 1 -48 -5 -68 -14
-43 -18 -44 -17 -32 53 5 30 15 42 66 75 45 29 70 38 97 37 34 -2 38 1 69 57
19 32 50 78 70 103 l37 45 13 -66 c8 -36 26 -83 41 -106z m-1385 -47 c-11 -43
-11 -194 -1 -235 l9 -33 -55 0 c-52 0 -55 2 -61 28 -4 15 -21 64 -38 110 l-31
83 20 27 c14 19 35 29 74 38 91 19 93 19 83 -18z m41 -108 c0 -60 4 -73 31
-112 l30 -43 57 3 c51 3 57 2 57 -16 0 -11 3 -34 6 -51 l7 -31 -62 0 -61 0
-34 47 c-46 63 -71 147 -61 208 14 99 30 97 30 -5z m545 77 c0 -2 -22 -18 -49
-35 -27 -18 -56 -43 -64 -56 -15 -22 -19 -37 -33 -103 -2 -14 -30 -36 -83 -67
-47 -27 -82 -54 -86 -67 -5 -15 -10 -18 -18 -10 -7 7 -6 15 3 26 7 8 10 18 6
22 -3 3 -6 1 -6 -5 0 -7 -4 -12 -10 -12 -5 0 -10 20 -10 44 0 42 2 45 44 66
24 11 67 43 95 70 27 28 52 50 56 50 3 0 3 -12 -1 -27 -4 -20 1 -16 17 16 17
34 34 49 73 67 48 23 66 28 66 21z m119 -43 c58 -73 -7 -187 -154 -273 -156
-92 -211 -112 -250 -91 -52 28 -24 85 63 129 77 40 102 65 102 104 0 73 94
157 176 157 34 0 47 -5 63 -26z m-864 -95 c14 -36 25 -75 25 -86 0 -31 -21
-84 -50 -128 -30 -44 -143 -242 -152 -267 -4 -9 -25 -18 -54 -22 -68 -9 -76
-8 -110 13 l-32 19 14 65 c13 65 52 141 105 208 16 20 29 43 29 51 0 8 -18 43
-40 77 -22 34 -40 64 -40 66 0 3 14 5 32 5 54 0 141 30 188 64 38 29 46 31 52
17 4 -9 19 -46 33 -82z m1614 -313 c6 -7 12 -31 14 -52 1 -22 5 -41 8 -44 3
-3 9 -24 12 -46 7 -40 5 -42 -26 -55 -35 -15 -241 -19 -254 -5 -5 4 10 23 31
42 40 34 40 35 27 72 -8 20 -19 44 -27 52 -11 13 -6 15 39 12 35 -1 65 4 92
17 49 24 69 25 84 7z m-245 -34 c41 -37 55 -75 35 -94 -17 -17 -139 -103 -199
-142 -127 -82 -292 -145 -343 -132 -24 6 -97 117 -97 147 0 19 24 42 33 32 4
-3 9 1 13 10 3 8 24 28 46 43 39 28 40 28 55 9 14 -19 14 -19 8 6 -6 22 -1 30
28 48 19 11 38 21 42 21 4 0 5 -19 2 -41 l-5 -41 35 5 c46 8 60 21 44 41 -24
29 29 106 73 106 2 0 1 -22 -2 -50 -4 -41 -1 -51 13 -56 23 -9 42 16 50 67 8
47 25 58 86 56 38 -2 54 -9 83 -35z m-1733 -164 c42 -22 75 -26 138 -18 47 7
65 -20 34 -52 -17 -17 -37 -23 -87 -26 -63 -4 -65 -4 -105 34 -32 31 -40 44
-35 62 8 27 4 27 55 0z m32 -122 c21 -4 41 -4 46 -1 5 3 17 2 26 -1 16 -6 16
-8 1 -16 -15 -8 -23 -38 -10 -38 3 0 17 9 31 20 38 29 96 27 133 -7 37 -33 37
-40 1 -48 -31 -6 -101 -75 -101 -98 0 -6 8 2 19 18 25 41 49 60 93 74 64 21
107 -6 108 -66 0 -57 -15 -79 -66 -97 -129 -44 -246 2 -345 133 -48 63 -61 90
-36 74 6 -4 4 5 -5 20 -11 15 -18 45 -18 73 l0 47 43 -40 c27 -25 58 -43 80
-47z m2812 10 c-140 -67 -300 -217 -411 -384 -32 -48 -61 -91 -66 -96 -10 -13
-68 42 -68 64 0 25 90 147 161 219 77 77 163 135 235 158 30 9 54 20 54 24 0
3 19 12 43 18 23 6 49 15 57 21 8 5 26 10 40 10 17 0 3 -10 -45 -34z m169 -8
c21 -30 20 -81 -3 -126 -23 -46 -137 -155 -219 -210 -52 -36 -190 -158 -231
-204 -9 -10 -26 -18 -39 -18 -33 0 -119 39 -126 57 -11 26 148 241 248 336 85
80 176 140 265 172 55 21 88 18 105 -7z"/>
<path d="M4470 5868 c0 -9 -25 -13 -87 -14 -121 -2 -164 -8 -175 -29 -9 -15
-7 -15 11 -6 18 10 22 7 35 -18 20 -38 63 -71 92 -71 32 0 54 10 54 24 0 22
70 95 85 90 10 -4 12 0 8 15 -6 23 -23 29 -23 9z"/>
<path d="M4557 4736 c-13 -11 -28 -11 -60 -4 -23 5 -71 7 -107 3 -36 -4 -77
-6 -92 -6 -30 1 -34 -5 -17 -29 8 -11 12 -12 16 -2 2 6 13 12 22 12 30 0 55
-38 61 -93 l5 -52 45 -3 c43 -3 46 -1 73 40 16 24 31 56 34 72 3 16 14 31 25
33 10 3 18 14 18 24 0 22 0 22 -23 5z"/>
<path d="M2530 3417 c0 -8 -24 -23 -53 -35 -30 -13 -69 -38 -87 -57 -19 -19
-39 -35 -46 -35 -6 0 -14 -9 -17 -20 -5 -21 8 -29 15 -8 3 8 19 5 52 -11 43
-22 50 -22 84 -9 36 13 37 15 44 78 5 40 13 69 23 76 19 14 19 20 0 28 -9 3
-15 0 -15 -7z"/>
</g>
</svg>
