<?xml version="1.0" standalone="no"?>
<!DOCTYPE svg PUBLIC "-//W3C//DTD SVG 20010904//EN"
 "http://www.w3.org/TR/2001/REC-SVG-20010904/DTD/svg10.dtd">
<svg version="1.0" xmlns="http://www.w3.org/2000/svg"
 width="600.000000pt" height="776.000000pt" viewBox="0 0 600.000000 776.000000"
 preserveAspectRatio="xMidYMid meet">
<metadata>
Created by potrace 1.16, written by Peter Selinger 2001-2019
</metadata>
<g transform="translate(0.000000,776.000000) scale(0.100000,-0.100000)"
fill="#000000" stroke="none">
<path d="M3835 7277 c-89 -30 -160 -88 -216 -176 -54 -84 -78 -230 -56 -336 8
-38 7 -42 -16 -52 -14 -7 -28 -21 -32 -32 -9 -31 37 -201 55 -201 4 0 11 -12
15 -27 3 -16 31 -88 62 -161 l55 -132 -27 -35 c-14 -19 -40 -42 -58 -52 -103
-53 -280 -198 -319 -263 -9 -14 -22 -62 -29 -107 -10 -68 -16 -83 -30 -83 -13
0 -21 -12 -28 -37 -15 -63 -29 -153 -41 -263 -14 -130 -17 -140 -39 -140 -10
0 -28 -12 -42 -26 -21 -23 -24 -35 -24 -105 1 -85 21 -131 62 -137 15 -2 23
-16 32 -55 6 -29 28 -78 47 -110 l36 -59 -33 -34 c-18 -19 -41 -34 -50 -34
-10 0 -47 -23 -83 -50 -36 -27 -67 -50 -70 -50 -10 0 -116 139 -191 250 -56
83 -78 125 -80 150 -1 20 -28 96 -59 170 -42 100 -58 153 -65 209 -12 106 -43
175 -156 345 -54 81 -96 148 -94 149 2 1 25 12 50 25 80 40 144 152 175 303
46 227 -61 598 -215 743 -17 17 -31 36 -31 43 0 25 -82 103 -139 130 -151 73
-419 2 -557 -148 -188 -206 -254 -458 -190 -724 42 -170 70 -222 154 -276 l44
-28 -44 -11 c-122 -30 -128 -33 -167 -75 -35 -38 -111 -179 -111 -205 0 -6
-22 -68 -49 -138 -52 -137 -108 -328 -142 -486 -18 -86 -19 -100 -6 -107 8 -5
18 -25 22 -46 17 -93 99 -264 178 -374 30 -43 57 -83 59 -90 3 -8 -5 -35 -18
-61 -13 -25 -26 -64 -29 -85 -6 -36 -4 -39 35 -61 30 -17 40 -28 35 -40 -19
-49 -25 -230 -14 -447 9 -190 49 -467 68 -473 6 -2 11 -21 11 -42 0 -21 4 -50
10 -64 11 -30 4 -32 -28 -10 -13 9 -30 13 -38 10 -40 -15 -60 -156 -41 -281
l7 -50 -89 1 c-85 2 -93 4 -152 40 -34 20 -95 66 -135 101 -98 85 -110 84 -74
-7 25 -64 25 -115 0 -165 -25 -50 -25 -53 5 -98 30 -44 91 -77 160 -87 47 -7
45 -8 -30 -8 -45 -1 -97 5 -119 13 -22 8 -43 12 -48 9 -23 -15 28 -170 81
-248 36 -52 37 -57 12 -80 -21 -19 -102 -153 -170 -279 -39 -72 -42 -82 -30
-108 20 -50 94 -106 183 -139 127 -47 177 -76 236 -136 30 -30 80 -71 110 -89
50 -30 78 -40 161 -59 22 -5 27 -13 33 -52 5 -38 1 -58 -26 -117 -25 -57 -32
-86 -32 -142 -1 -62 2 -74 29 -112 62 -86 138 -112 220 -74 l40 18 75 -83 c96
-106 127 -124 214 -124 58 0 70 3 91 25 43 42 29 96 -50 190 -49 58 -71 120
-80 226 -10 114 -3 135 50 148 24 6 64 11 89 11 l46 0 0 -63 c0 -62 15 -101
47 -120 8 -5 13 -28 13 -61 0 -53 19 -86 48 -86 28 0 8 -35 -53 -95 -54 -53
-65 -69 -65 -97 0 -63 53 -107 132 -110 80 -2 133 22 255 119 31 24 38 71 20
132 -8 28 -12 51 -8 51 4 0 26 -9 49 -20 57 -28 115 -34 187 -21 64 12 96 30
129 74 19 25 19 29 4 61 -13 26 -27 37 -63 50 -67 22 -164 78 -215 124 l-45
39 60 31 c33 17 85 51 115 77 30 27 99 68 155 95 102 48 176 104 225 172 l27
37 7 -122 c4 -72 2 -171 -5 -242 -6 -66 -11 -141 -10 -167 l2 -47 -115 -56
c-152 -74 -180 -111 -136 -182 28 -47 73 -66 166 -71 83 -4 93 -2 207 56 16 8
5 -22 -18 -50 -34 -40 -31 -68 9 -107 78 -76 235 -87 361 -26 56 27 67 29 74
17 8 -14 18 -14 87 2 90 19 105 30 113 82 l6 38 78 12 c43 7 84 15 91 17 16 6
47 98 51 151 2 22 9 43 18 47 22 13 40 145 52 379 7 156 13 225 27 320 9 58
13 69 19 50 13 -47 9 -263 -7 -350 -8 -47 -18 -148 -21 -225 -5 -116 -9 -144
-24 -164 -28 -35 -24 -52 22 -96 38 -38 41 -39 54 -21 8 10 19 15 24 11 19
-11 -20 -65 -79 -108 -30 -23 -65 -51 -78 -62 -12 -12 -48 -29 -80 -40 -114
-37 -152 -68 -152 -121 0 -26 8 -38 38 -61 59 -46 112 -58 257 -58 145 1 229
20 337 77 51 27 60 29 91 19 29 -10 43 -8 88 9 94 37 118 57 125 101 4 22 11
42 15 45 5 3 9 16 9 28 0 15 7 26 19 29 40 10 52 119 22 190 -17 40 -18 49 -6
103 8 32 25 147 39 254 28 208 34 455 16 595 -18 139 -40 262 -65 365 -14 58
-28 131 -31 163 -3 34 -10 57 -17 57 -9 0 -12 96 -12 383 0 268 -5 415 -14
491 -14 104 -13 110 4 120 61 36 100 74 99 97 -1 13 -7 116 -14 229 -6 113
-19 231 -27 264 l-14 59 29 36 c82 101 133 177 148 219 10 26 21 52 26 58 19
26 28 119 18 198 -55 435 -133 830 -212 1063 l-31 93 -76 58 c-95 74 -216 139
-351 191 -110 43 -172 72 -204 96 -18 13 -16 17 27 65 30 33 52 71 64 108 16
51 21 57 51 63 18 4 44 17 57 29 41 39 48 90 38 287 -8 175 -9 181 -42 248
-41 83 -93 142 -146 167 -22 11 -65 34 -95 53 -30 19 -82 44 -115 55 -75 27
-205 35 -260 17z m217 -46 c60 -16 187 -69 207 -87 2 -2 -11 -22 -28 -46 -35
-47 -38 -58 -16 -58 8 0 29 18 46 40 18 22 38 40 44 40 36 0 115 -136 135
-234 17 -83 7 -133 -35 -172 -27 -24 -35 -41 -41 -83 -9 -67 -21 -73 -29 -14
-23 175 -57 274 -121 359 l-24 31 -193 -1 c-189 -1 -193 -1 -254 -29 -63 -30
-99 -61 -127 -112 -17 -30 -17 -30 -12 39 12 158 132 309 266 337 61 12 105
10 182 -10z m-1907 -222 c60 -18 77 -30 144 -97 122 -123 190 -256 241 -472
17 -69 23 -275 11 -346 -16 -92 -73 -198 -130 -241 -63 -49 -82 -42 -33 11 38
41 99 149 116 204 6 16 3 22 -9 22 -11 0 -29 -27 -52 -77 -41 -91 -91 -157
-136 -179 -29 -15 -28 -12 16 32 46 47 99 140 113 197 11 49 -21 21 -46 -40
-28 -69 -107 -165 -149 -183 -18 -7 -33 -11 -36 -9 -2 3 10 24 26 49 16 24 32
54 35 65 3 12 31 49 62 82 31 32 70 84 85 115 33 66 56 183 56 288 1 88 -24
272 -40 301 -17 33 -29 8 -18 -40 5 -24 8 -46 5 -48 -2 -3 -18 23 -35 57 -49
98 -151 214 -151 171 0 -5 7 -22 15 -37 9 -18 15 -55 14 -94 l0 -65 -26 54
c-30 62 -165 201 -194 201 -16 0 -19 -8 -19 -57 0 -91 -42 -217 -83 -252 -13
-10 -13 -6 0 31 16 46 18 97 8 160 -6 31 -10 37 -20 28 -10 -8 -12 -26 -8 -60
7 -56 -10 -131 -39 -178 -25 -40 -35 -35 -14 7 20 37 20 41 2 41 -7 0 -26 -26
-41 -57 -15 -32 -30 -52 -32 -45 -5 13 -33 17 -33 4 0 -5 -5 -44 -11 -88 -10
-81 -7 -123 25 -319 15 -95 49 -209 68 -232 6 -7 8 -16 5 -19 -2 -3 -29 19
-59 48 -57 56 -118 149 -138 211 -16 52 -34 48 -26 -5 8 -50 45 -127 87 -180
47 -60 34 -54 -48 20 -43 39 -79 69 -81 67 -17 -16 100 -149 154 -175 24 -12
44 -23 44 -25 0 -1 -17 1 -39 5 -95 17 -177 102 -214 223 -71 227 -68 332 15
552 80 209 218 337 408 379 91 20 128 19 205 -5z m2083 -116 c39 -86 59 -160
67 -261 9 -102 14 -110 56 -95 18 7 35 10 38 6 3 -3 0 -8 -6 -10 -22 -8 -14
-25 10 -21 18 2 22 10 23 37 1 20 8 37 18 43 27 15 19 31 -13 25 -29 -6 -29
-6 -20 26 10 35 45 75 56 63 15 -15 4 -146 -16 -184 -24 -48 -38 -59 -76 -64
-31 -3 -40 -16 -81 -116 -19 -46 -65 -95 -149 -158 -27 -21 -55 -43 -62 -50
-44 -43 -259 -40 -307 5 -13 12 -52 92 -87 179 -59 149 -63 162 -63 242 -1
111 12 202 32 218 9 6 40 12 69 12 29 0 53 4 53 9 0 16 -85 24 -109 12 -36
-20 -26 29 15 71 62 65 123 81 324 87 96 4 180 3 186 -1 6 -5 25 -38 42 -75z
m-2041 -179 c12 -27 24 -57 27 -66 3 -10 10 -18 16 -18 19 0 50 64 50 105 0
34 2 37 14 25 20 -22 86 -153 86 -173 0 -22 18 -31 35 -17 13 11 15 -2 15 -98
0 -115 -17 -233 -44 -296 -23 -56 -100 -150 -155 -190 -71 -52 -117 -69 -168
-62 -57 8 -86 24 -156 86 -88 79 -112 121 -125 215 -21 148 -21 167 -5 209 17
43 94 126 117 126 21 0 86 77 112 134 12 28 28 82 35 120 l11 68 57 -59 c31
-33 66 -82 78 -109z m2134 -620 c13 -37 34 -323 23 -333 -5 -4 -41 -18 -80
-30 l-71 -22 -36 21 -37 22 16 36 c68 159 94 247 94 325 l0 57 41 -27 c23 -15
45 -37 50 -49z m-162 34 c-20 -38 -103 -112 -149 -135 -25 -11 -63 -24 -85
-27 -38 -5 -42 -4 -80 43 -49 61 -55 75 -26 66 12 -3 61 -6 109 -6 96 0 154
15 205 56 39 30 41 31 26 3z m-419 -15 c0 -10 -10 -43 -21 -73 -12 -32 -23
-90 -27 -138 -4 -69 -8 -85 -25 -93 -17 -9 -26 -5 -58 27 l-38 39 19 43 c27
60 127 212 140 212 5 0 10 -8 10 -17z m455 -45 c-4 -24 -14 -63 -22 -88 -22
-67 -94 -230 -102 -230 -4 0 -14 12 -23 28 -9 15 -42 54 -72 87 l-55 59 57 21
c77 28 140 71 177 122 16 23 34 42 38 42 5 1 6 -18 2 -41z m277 -24 c98 -42
160 -76 288 -159 108 -70 90 -34 165 -325 45 -171 65 -283 105 -565 10 -77 26
-186 35 -242 18 -123 19 -210 2 -239 -6 -12 -25 -45 -41 -75 -16 -30 -65 -101
-110 -159 -45 -58 -104 -136 -131 -175 -68 -98 -189 -215 -222 -215 -4 0 -19
35 -33 78 -25 78 -89 184 -155 256 -19 21 -32 43 -28 49 28 45 139 206 154
223 11 11 19 25 19 32 0 8 19 9 64 5 91 -8 194 5 217 28 30 30 15 47 -36 42
-47 -6 -141 13 -152 30 -4 7 8 8 36 3 57 -9 109 2 122 26 19 35 -4 47 -84 42
-40 -2 -80 -5 -91 -7 -21 -2 -21 -2 -30 173 -3 58 -12 149 -20 204 -9 54 -15
101 -14 105 2 21 -6 34 -44 61 -78 56 -106 31 -38 -35 41 -40 51 -59 27 -49
-7 2 -24 1 -38 -4 -22 -9 -21 -10 17 -16 l40 -7 12 -137 c7 -75 12 -166 12
-202 0 -46 6 -77 20 -104 19 -38 19 -39 1 -65 -10 -14 -28 -35 -40 -45 -12
-11 -21 -25 -21 -32 0 -7 -33 -57 -73 -111 -40 -54 -89 -125 -108 -158 -27
-46 -40 -60 -58 -60 -20 0 -26 8 -35 45 -14 54 -44 105 -83 141 -49 46 -191
137 -232 150 -81 24 -101 124 -45 222 13 23 24 52 24 65 0 18 6 22 31 22 76 0
119 60 119 165 0 70 -20 105 -60 105 -11 0 -20 3 -20 8 1 33 22 59 89 106 93
65 138 115 210 233 30 48 67 105 83 126 35 45 28 61 -32 71 -22 3 -40 10 -40
14 0 5 30 17 68 28 l67 21 3 44 c3 39 -10 181 -25 267 -7 42 3 42 109 -4z
m-692 7 c0 -5 21 -33 47 -62 33 -35 44 -54 34 -57 -7 -2 -36 -23 -65 -46 -83
-68 -80 -68 -73 5 7 75 34 169 47 169 6 0 10 -4 10 -9z m-205 -78 c-45 -75
-45 -105 1 -145 19 -17 31 -34 27 -38 -4 -3 -33 -14 -64 -23 -71 -22 -87 -38
-69 -71 19 -36 3 -52 -25 -26 -26 24 -48 19 -64 -17 -9 -20 -14 -23 -26 -13
-8 7 -26 10 -40 7 -25 -4 -26 -4 -19 42 13 95 76 177 203 263 25 17 59 42 74
55 16 13 30 23 32 23 3 0 -11 -26 -30 -57z m-1669 -4 c45 -47 100 -71 173 -75
49 -2 67 -7 74 -20 7 -13 7 -19 -1 -22 -21 -7 -13 -24 9 -19 19 5 20 3 15 -29
-4 -21 -3 -34 4 -34 5 0 10 7 10 15 0 8 7 15 15 15 14 0 26 -34 40 -113 7 -44
9 -43 -102 -51 -69 -4 -81 -3 -76 9 3 10 -1 15 -11 15 -9 0 -16 -6 -14 -14 7
-35 -20 -14 -60 45 -24 35 -62 83 -85 107 l-41 42 27 0 c29 0 38 24 13 33 -23
9 -46 66 -39 98 7 36 12 36 49 -2z m2024 -94 l33 -34 -20 -53 -21 -53 -53 3
c-30 2 -58 7 -62 11 -5 5 -11 27 -14 48 -5 39 -3 42 42 77 26 20 51 36 54 36
4 0 22 -16 41 -35z m-2152 -39 c38 -2 48 -8 88 -51 79 -87 211 -301 286 -465
36 -78 39 -88 28 -123 -14 -48 -8 -66 32 -94 29 -20 33 -21 59 -7 40 20 47 58
21 108 -17 35 -19 50 -12 101 18 132 5 370 -25 471 -6 18 -1 22 27 28 40 8 50
-3 113 -124 25 -47 63 -116 86 -155 51 -87 89 -199 89 -261 0 -58 -33 -128
-77 -161 -24 -19 -55 -28 -120 -37 l-88 -12 58 -14 c43 -10 69 -11 96 -4 l37
10 -8 -65 c-4 -37 -7 -102 -7 -146 -1 -84 4 -101 124 -430 57 -154 77 -228 64
-236 -6 -4 -45 -12 -86 -19 -74 -12 -76 -11 -102 13 -14 13 -40 32 -56 41 -28
16 -31 24 -48 125 -29 181 -50 261 -68 261 -18 0 -64 -149 -75 -242 l-7 -56
-91 5 c-109 7 -178 -10 -254 -61 l-50 -33 -69 116 c-39 64 -89 151 -113 194
l-42 78 31 40 c18 21 29 44 26 50 -4 6 1 19 11 30 16 18 15 24 -24 144 -23 69
-42 132 -42 140 0 8 16 67 35 131 19 63 35 117 35 120 0 2 14 4 30 4 31 0 39
17 18 38 -9 9 -9 15 0 24 16 16 15 31 -2 25 -11 -4 -15 10 -18 67 -3 59 -10
86 -40 147 -56 111 -147 214 -169 192 -7 -7 9 -29 43 -65 67 -68 123 -180 140
-275 11 -67 10 -74 -10 -115 -21 -42 -61 -147 -126 -333 -17 -49 -31 -91 -32
-93 0 -1 -21 6 -45 17 -72 31 -159 45 -223 34 -66 -12 -64 -19 -35 115 28 130
71 277 117 403 22 57 42 116 46 131 11 45 65 153 94 187 20 24 44 36 97 51 39
10 86 26 105 34 20 9 46 13 60 10 14 -4 44 -7 68 -8z m1914 -123 c6 -77 -1
-92 -27 -63 -19 21 -55 26 -71 10 -7 -7 -18 -2 -34 15 -13 14 -32 25 -42 25
-32 0 -19 18 25 34 84 32 122 45 133 45 7 1 14 -25 16 -66z m437 3 c7 -8 42
-27 79 -42 37 -15 70 -30 75 -34 4 -4 -33 -68 -83 -142 -81 -123 -136 -185
-211 -239 -27 -19 -27 -19 -27 4 -1 53 -15 117 -27 117 -7 0 -15 19 -18 48 -5
42 -2 50 22 77 40 43 129 162 146 196 17 32 27 36 44 15z m-285 -26 c6 -35 23
-40 28 -8 7 50 42 29 67 -40 l19 -52 -28 -39 c-38 -52 -48 -57 -56 -26 -4 15
-13 25 -25 25 -13 0 -20 10 -25 35 -4 25 -11 35 -25 35 -11 0 -19 -4 -19 -10
0 -5 -5 -10 -11 -10 -15 0 -1 59 23 93 25 35 44 34 52 -3z m-294 -77 c0 -20
25 -15 45 7 25 27 30 26 49 -15 20 -41 29 -43 50 -13 16 22 16 22 31 3 8 -11
15 -26 15 -32 0 -18 15 -16 31 3 12 14 14 14 20 -3 4 -10 8 -30 8 -45 1 -28
14 -37 26 -18 14 22 26 9 20 -21 -7 -29 -5 -31 14 -26 23 6 26 -1 36 -75 4
-28 11 -48 19 -48 9 0 11 -17 8 -62 -2 -35 -5 -67 -6 -73 -1 -5 -22 27 -45 73
-63 121 -184 222 -265 222 -15 0 -40 9 -55 21 -22 16 -33 19 -48 11 -11 -6
-29 -8 -41 -5 -15 3 -24 0 -28 -11 -3 -9 -14 -16 -25 -16 -10 0 -22 -6 -26
-13 -14 -21 -60 -36 -96 -30 -37 6 -48 -5 -68 -66 -9 -28 -4 80 7 157 7 47 11
50 31 25 13 -17 14 -17 26 0 34 52 36 53 51 35 19 -25 28 -23 55 18 l24 35 16
-25 c9 -14 19 -26 23 -26 4 0 19 16 34 36 l28 36 18 -24 c9 -12 18 -29 18 -35z
m-1294 -19 c8 -32 -1 -312 -11 -336 -8 -21 -35 -24 -35 -5 0 6 -37 87 -83 179
l-83 166 36 6 c58 10 108 7 114 -6 4 -10 9 -8 18 5 18 25 37 21 44 -9z m1214
-114 c0 -14 37 -13 46 1 4 8 9 7 14 -2 5 -7 28 -13 52 -14 120 -5 224 -113
303 -315 21 -54 22 -55 61 -55 l39 0 -1 -73 c-2 -66 -5 -77 -30 -103 -16 -16
-38 -29 -52 -29 -23 0 -24 2 -18 45 6 37 4 45 -8 45 -16 0 -28 -34 -46 -129
-26 -138 -175 -243 -321 -227 -137 14 -218 57 -275 147 -29 47 -54 132 -54
186 0 70 -41 148 -57 108 -3 -10 0 -20 6 -25 10 -6 10 -12 0 -28 -11 -18 -10
-24 5 -41 11 -12 14 -21 8 -21 -19 0 -40 42 -47 92 -13 86 12 122 56 82 16
-14 18 -14 27 3 6 10 17 52 26 93 14 70 47 178 61 200 4 6 13 5 25 -2 14 -9
24 -9 42 -1 13 7 33 15 46 18 12 4 22 12 22 20 0 8 7 11 20 8 12 -3 22 1 26
11 7 18 24 22 24 6z m-848 -342 c9 -24 30 -76 47 -117 17 -40 31 -76 31 -80 0
-4 -20 -12 -44 -19 -24 -6 -64 -27 -90 -47 l-46 -35 0 53 c1 103 18 193 45
232 14 21 25 42 25 46 0 23 17 5 32 -33z m-1012 -335 c14 -52 15 -66 4 -80 -7
-10 -11 -27 -8 -38 3 -13 -2 -28 -14 -38 -19 -18 -21 -16 -54 45 -56 102 -58
111 -34 123 12 6 29 33 40 65 l20 54 14 -35 c8 -18 22 -62 32 -96z m1140 -15
c41 -62 109 -156 151 -208 l76 -95 -37 -56 c-21 -31 -42 -69 -47 -84 l-9 -27
-74 58 c-41 32 -114 91 -161 130 -83 70 -87 75 -112 151 -15 43 -27 88 -27
100 0 37 115 139 161 143 3 0 39 -51 79 -112z m-1346 61 c32 -12 41 -22 55
-59 24 -68 235 -470 287 -547 43 -64 44 -67 26 -84 -10 -9 -28 -29 -40 -44
l-21 -27 -57 48 c-100 86 -254 256 -319 354 -102 151 -181 336 -160 370 10 16
176 8 229 -11z m2376 -236 c22 -38 24 -56 21 -205 l-1 -78 -64 0 c-61 0 -66 2
-95 35 l-31 36 25 37 c25 37 74 133 94 185 14 36 25 34 51 -10z m-460 -3 c7
-16 28 -46 48 -66 33 -34 34 -37 16 -47 -24 -13 -74 -64 -96 -97 -17 -25 -17
-25 -19 30 -5 105 11 210 30 210 5 0 14 -13 21 -30z m344 -58 c-34 -63 -115
-181 -126 -182 -4 0 -11 12 -14 28 -4 15 -16 42 -26 60 -11 18 -19 35 -17 36
2 2 33 18 68 36 35 17 74 42 87 55 23 23 46 35 53 29 2 -2 -9 -30 -25 -62z
m-509 -132 c22 -42 19 -52 -21 -91 -61 -58 -61 -59 -2 -161 29 -51 68 -126 86
-168 31 -68 102 -255 102 -265 0 -13 -134 -3 -161 10 -16 9 -34 13 -39 10 -5
-3 -13 2 -18 11 -8 14 -15 15 -40 6 l-30 -10 -7 96 c-3 54 -8 105 -11 114 -4
14 7 18 76 24 53 4 79 11 77 18 -3 7 -24 10 -56 8 -40 -2 -51 1 -51 13 0 12 9
13 45 8 38 -5 45 -3 45 11 0 9 -7 16 -15 16 -9 0 -16 10 -16 28 -1 15 -3 34
-4 42 -1 8 -3 20 -4 26 0 7 -15 26 -33 43 -26 26 -37 30 -63 25 -27 -5 -38 0
-68 28 l-36 34 28 51 c41 75 79 123 129 166 l46 39 13 -51 c7 -28 20 -65 28
-81z m751 77 c170 -107 222 -153 255 -222 17 -37 17 -40 1 -43 -9 -1 -55 8
-102 22 -90 26 -120 22 -120 -14 0 -21 56 -90 74 -90 6 -1 24 -6 40 -13 l29
-13 -87 -73 c-86 -72 -108 -83 -87 -43 13 25 14 42 2 42 -5 0 -25 -32 -45 -70
-19 -39 -47 -82 -61 -96 -14 -14 -25 -34 -25 -44 0 -23 32 -43 54 -34 13 5 14
-6 9 -83 -3 -48 -7 -89 -8 -91 -3 -4 -206 28 -216 34 -4 2 -42 6 -83 9 -43 2
-102 13 -136 26 -56 20 -59 23 -53 48 13 54 47 112 107 183 66 78 83 93 219
203 48 39 87 77 87 85 0 8 -14 29 -32 47 l-32 33 60 0 c33 0 65 5 72 12 8 8
12 48 12 115 0 57 3 103 8 103 4 0 30 -15 58 -33z m-1601 -19 c3 -18 14 -79
24 -136 l18 -103 -21 6 c-12 4 -34 10 -51 14 -29 7 -30 9 -28 62 3 64 32 189
44 189 4 0 11 -15 14 -32z m504 -149 l59 -41 -18 -57 c-19 -60 -85 -294 -98
-351 -8 -32 -10 -29 -16 40 -5 41 -14 102 -22 135 -7 33 -13 78 -13 100 1 23
-20 99 -46 175 -25 74 -49 144 -52 155 -4 12 22 -5 70 -47 42 -37 103 -86 136
-109z m880 -62 c26 -28 41 -51 35 -55 -79 -53 -219 -170 -283 -237 l-81 -84 5
48 c8 80 53 176 162 342 l66 101 26 -33 c14 -19 46 -56 70 -82z m-416 -30 c54
-193 59 -222 51 -315 l-6 -83 -23 68 c-31 90 -107 253 -145 309 -16 25 -30 49
-30 53 0 10 96 101 107 101 4 0 25 -60 46 -133z m167 34 c0 -39 -9 -66 -42
-126 l-41 -77 -18 68 c-32 118 -32 120 -15 153 15 28 21 31 66 31 l50 0 0 -49z
m-1921 -61 c47 -49 101 -101 120 -115 46 -33 22 -33 -77 1 -79 27 -133 53
-164 77 -16 13 -16 17 -1 70 9 32 20 57 26 57 5 0 48 -40 96 -90z m1416 13 c4
-17 2 -23 -9 -23 -8 0 -17 -8 -20 -17 -13 -50 -16 -82 -7 -87 6 -4 8 -13 5
-20 -7 -17 21 -38 50 -38 28 0 30 -12 42 -197 l6 -104 -28 6 c-32 5 -192 62
-201 70 -7 8 65 270 123 446 4 13 7 13 18 0 8 -8 17 -24 21 -36z m-710 16
c125 -29 243 -108 285 -189 10 -19 25 -69 34 -110 43 -189 62 -254 83 -283 20
-27 21 -32 8 -47 -20 -23 -91 -43 -118 -34 -19 6 -20 5 -9 -8 10 -13 8 -21
-14 -48 -22 -25 -33 -31 -54 -27 -19 4 -29 0 -39 -14 -12 -20 -98 -65 -107
-57 -2 3 16 18 40 35 49 35 122 121 142 170 11 24 18 30 34 26 44 -12 76 47
60 108 -9 32 -17 41 -39 45 -24 5 -29 12 -34 44 -9 71 -115 240 -149 240 -25
0 -22 -15 10 -69 50 -81 51 -78 -49 -77 -52 1 -89 5 -89 11 0 24 -60 133 -89
159 l-31 30 -36 -35 c-54 -52 -77 -94 -72 -134 3 -31 1 -36 -26 -45 -16 -5
-47 -10 -68 -10 l-40 0 4 43 c3 23 6 49 9 57 2 8 -2 15 -10 15 -20 0 -53 -58
-56 -98 -2 -26 -9 -35 -39 -50 -37 -17 -48 -37 -21 -37 20 0 8 -29 -27 -62
-17 -16 -28 -36 -28 -53 0 -34 35 -92 59 -100 11 -3 31 -31 47 -62 31 -65 89
-123 152 -154 24 -12 41 -23 39 -26 -3 -2 -23 -4 -46 -5 -38 0 -77 17 -109 49
-7 7 -26 13 -42 13 -37 0 -95 50 -103 88 -4 22 -17 33 -55 50 -50 23 -86 52
-64 52 17 0 52 41 78 93 17 32 29 83 39 157 9 68 23 126 36 152 26 50 138 164
177 180 107 42 201 47 327 17z m1840 -14 c169 -42 173 -44 213 -99 57 -77 132
-237 121 -258 -32 -60 -279 -278 -315 -278 -20 0 -19 4 31 78 41 61 58 112 37
112 -5 0 -40 -26 -78 -58 -91 -76 -115 -92 -137 -92 -19 0 -19 1 -2 28 10 15
51 64 92 108 69 77 86 104 63 104 -5 0 -10 -4 -10 -8 0 -8 -29 -41 -122 -139
-56 -60 -84 -70 -74 -25 7 27 47 89 111 172 19 25 35 48 35 53 0 17 -34 4
-101 -38 -39 -25 -84 -49 -101 -52 -28 -5 -29 -4 -20 13 12 23 70 77 196 183
76 65 106 97 106 115 0 2 -22 12 -49 21 -44 14 -76 39 -96 74 -6 11 -3 13 11
9 10 -4 51 -14 89 -23z m-1063 -33 c16 -13 18 -13 24 3 7 17 8 17 21 -1 8 -10
19 -19 26 -19 7 0 12 -13 13 -30 0 -16 4 -38 9 -49 7 -16 5 -17 -14 -11 -17 5
-24 2 -28 -13 -6 -26 -32 -36 -39 -17 -5 11 -16 13 -46 8 -38 -6 -40 -5 -33
17 5 15 2 25 -6 31 -11 6 -11 11 -2 20 9 9 10 16 2 26 -7 7 -8 14 -3 14 5 1
16 2 24 3 9 1 14 10 13 24 -3 24 6 23 39 -6z m1391 -80 c91 -139 119 -221 81
-236 -9 -4 -18 -5 -19 -4 -1 2 -23 48 -49 103 -26 54 -63 120 -82 146 -35 48
-44 84 -21 92 19 7 22 3 90 -101z m-1719 -74 c27 -166 27 -178 1 -204 -13 -13
-29 -24 -35 -24 -18 0 -11 -14 29 -56 31 -32 38 -46 34 -67 -7 -38 -18 -41
-42 -11 -25 31 -45 100 -66 223 -9 52 -28 119 -41 149 -13 30 -23 56 -22 57 2
1 28 7 58 12 30 6 58 11 62 12 3 0 13 -41 22 -91z m2215 -63 c24 -241 31 -368
21 -380 -19 -23 -125 -64 -195 -75 -38 -6 -151 -10 -252 -9 l-183 2 0 85 0 85
73 76 c39 42 79 75 87 74 8 -1 27 2 42 8 19 8 32 7 47 -1 26 -13 41 -6 137 65
39 30 100 88 134 130 45 53 66 72 71 63 4 -8 12 -63 18 -123z m-2748 78 c16
-27 35 -66 41 -88 6 -22 13 -42 14 -44 2 -2 42 -5 89 -7 47 -2 94 -8 105 -14
17 -9 22 -7 29 12 9 22 10 21 26 -17 26 -60 31 -160 11 -229 -32 -109 -148
-203 -287 -232 -105 -22 -218 4 -283 64 -38 36 -75 119 -92 210 -21 109 -19
138 11 158 19 12 25 25 26 53 l1 36 9 -33 c12 -42 27 -47 97 -33 72 14 87 29
87 90 0 37 6 56 28 84 15 20 35 37 43 37 8 0 28 -21 45 -47z m-614 2 c17 -7
56 -18 87 -25 61 -12 61 -12 46 -40 -6 -11 -15 -65 -20 -120 -11 -120 -42
-187 -91 -197 -16 -3 -29 -11 -29 -18 0 -26 47 -80 88 -100 30 -15 49 -34 63
-63 23 -46 72 -82 114 -82 17 0 37 -11 56 -31 16 -17 29 -32 29 -34 0 -11 -57
-10 -79 1 -81 42 -221 -10 -282 -106 -15 -24 -17 -21 -37 90 -28 149 -45 421
-37 585 3 72 9 138 11 148 6 19 17 18 81 -8z m2564 -381 c-28 -37 -51 -73 -51
-81 0 -7 11 -18 25 -25 31 -14 73 2 133 50 l43 35 -5 -64 c-3 -35 -8 -105 -11
-156 -9 -147 -28 -186 -101 -201 -84 -18 -373 32 -514 89 -30 13 -57 24 -59
25 -2 2 6 24 19 50 27 58 36 136 21 188 -6 22 -9 42 -7 44 5 5 159 -16 218
-29 47 -11 47 -11 59 -65 8 -34 17 -54 26 -54 12 0 13 9 8 43 l-7 42 24 -22
c27 -26 58 -30 58 -9 0 8 -24 35 -52 60 -35 31 -47 46 -35 46 10 0 20 -7 23
-15 4 -8 18 -15 34 -15 27 0 69 27 150 99 25 21 47 38 48 36 2 -2 -19 -34 -47
-71z m-887 17 c37 -21 63 -41 58 -45 -6 -4 -54 -9 -107 -13 -55 -3 -103 -12
-113 -19 -15 -13 -12 -19 43 -68 l60 -55 -109 34 c-60 19 -115 35 -123 35 -28
0 -11 19 43 50 31 17 82 51 113 76 31 24 58 44 61 44 3 0 36 -18 74 -39z m176
-13 c30 -12 61 -26 68 -31 15 -12 16 -60 2 -124 -17 -77 -16 -76 -109 -63 -63
10 -79 15 -71 25 8 9 -6 18 -57 38 l-68 25 53 1 c28 1 52 6 52 11 0 6 -21 10
-46 10 -25 0 -66 5 -92 12 l-46 11 123 21 c69 12 126 26 128 32 2 6 -12 19
-32 30 -77 41 -11 43 95 2z m140 -38 c27 0 41 -165 19 -214 l-12 -25 -38 20
c-22 11 -39 20 -39 22 0 1 7 24 15 51 8 27 15 74 15 104 0 45 3 53 16 48 9 -3
19 -6 24 -6z m-829 -155 c-4 -5 -16 -36 -26 -67 -11 -32 -23 -58 -27 -58 -4 0
-8 4 -8 8 0 5 -18 19 -41 31 -51 29 -108 25 -181 -13 -37 -19 -60 -25 -80 -21
-37 9 -46 25 -13 25 33 0 81 24 88 45 4 9 19 15 40 15 34 0 63 22 86 68 8 15
21 22 42 22 42 0 63 14 91 57 l23 38 6 -70 c4 -38 3 -74 0 -80z m89 66 c21
-17 45 -31 53 -31 8 0 22 -9 33 -21 16 -18 27 -20 67 -16 47 6 47 6 47 -23 0
-21 -8 -35 -26 -47 -33 -21 -109 -21 -151 0 -60 32 -101 141 -75 204 6 15 7
14 10 -8 2 -16 18 -38 42 -58z m2034 -88 c19 -122 27 -364 20 -618 -8 -322 -8
-324 -19 -349 -6 -13 -3 -23 12 -35 11 -9 25 -36 33 -61 7 -25 23 -74 36 -110
37 -103 68 -388 67 -625 -1 -135 -6 -202 -27 -325 -14 -85 -31 -173 -37 -195
-22 -79 -22 -110 0 -153 13 -26 21 -60 21 -92 l0 -51 -30 21 c-93 67 -279 113
-460 114 -69 1 -131 5 -137 9 -19 12 -16 35 7 64 16 21 20 41 20 100 0 41 7
156 16 256 16 183 16 242 -5 557 -13 196 -20 410 -13 410 3 0 20 -11 38 -25
18 -14 35 -25 38 -25 16 0 2 46 -34 117 -70 137 -145 396 -186 643 -16 101
-16 105 2 115 71 39 104 111 104 227 l0 50 33 -6 c92 -16 257 -17 361 -2 60 9
112 18 114 21 13 12 21 2 26 -32z m-1713 -9 c58 -21 77 -24 91 -15 12 7 37 9
69 5 l51 -7 -7 -76 c-16 -188 -94 -352 -211 -447 -48 -38 -139 -83 -149 -73
-2 3 5 34 16 69 19 62 58 410 59 523 0 26 2 47 4 47 3 0 37 -12 77 -26z m-237
-89 c28 0 64 4 79 8 l28 8 -6 -103 c-10 -174 -25 -304 -42 -365 -26 -99 -27
-102 -8 -110 16 -6 71 5 116 22 13 5 21 -24 52 -182 21 -103 37 -197 37 -207
0 -18 -2 -18 -24 3 -25 24 -96 75 -216 155 -36 24 -95 59 -132 77 -63 31 -68
36 -68 66 0 34 -29 213 -36 224 -2 4 3 9 11 13 9 3 15 19 15 41 0 23 9 48 25
69 37 48 37 137 1 201 -26 47 -26 47 -9 105 l16 58 55 -41 c48 -37 62 -42 106
-42z m593 38 c40 -21 51 -32 47 -45 -12 -40 60 -80 217 -123 87 -24 260 -49
337 -49 l32 1 2 -114 c5 -246 7 -226 -32 -245 -114 -54 -402 -65 -521 -19 -59
22 -199 123 -257 184 l-34 35 23 43 c32 64 59 172 66 272 l6 87 31 0 c17 0 54
-12 83 -27z m-1206 -25 c25 -31 24 -40 -14 -65 -86 -59 -178 -65 -250 -17
l-38 25 40 30 c34 24 51 29 103 30 35 1 77 5 93 9 45 12 45 12 66 -12z m368
-41 c72 -68 94 -181 46 -243 -14 -18 -25 -37 -25 -43 0 -11 -32 -31 -50 -31
-8 0 -8 6 0 21 14 26 3 40 -14 17 -11 -15 -14 -13 -31 13 -30 43 -49 38 -42
-12 5 -40 5 -40 -24 -34 -23 5 -29 3 -29 -11 0 -30 -14 -5 -16 29 -8 125 -16
189 -29 237 -8 30 -15 56 -15 58 0 1 14 -13 30 -31 17 -20 30 -46 30 -61 0
-16 4 -25 10 -21 16 10 11 51 -10 77 -10 14 -17 28 -13 31 10 10 64 -34 85
-70 21 -35 38 -43 38 -18 0 19 -57 84 -94 106 l-29 18 29 6 c16 4 34 8 39 9
24 6 83 -18 114 -47z m-889 -21 c-32 -12 -55 -46 -31 -46 6 0 11 5 11 10 0 6
16 10 35 10 l36 0 -26 -27 c-14 -15 -25 -37 -25 -47 0 -17 5 -15 31 12 17 18
35 32 39 32 21 0 49 -305 30 -323 -3 -3 -22 -2 -44 2 -35 6 -40 10 -58 59 -11
28 -24 52 -30 52 -5 0 -7 -7 -4 -15 3 -8 9 -23 13 -32 5 -12 -4 -9 -29 10 -42
32 -78 36 -78 8 0 -11 6 -21 13 -24 8 -3 6 -10 -8 -21 -27 -21 -27 -21 -52 17
-62 92 -40 237 44 293 35 23 100 43 138 43 l30 -1 -35 -12z m626 6 c19 -13 33
-94 40 -240 l7 -142 -44 5 c-24 2 -67 6 -94 9 -62 6 -363 -10 -389 -20 -17 -7
-19 -4 -13 37 3 24 -1 98 -10 164 -24 179 -26 169 27 175 40 4 48 2 69 -23 73
-86 212 -81 321 12 34 30 64 38 86 23z m-886 -315 c44 -16 110 -77 110 -103 1
-10 7 -30 15 -44 21 -37 18 -47 -17 -53 -55 -9 -112 -37 -100 -49 7 -7 28 -5
67 7 31 9 59 14 61 12 3 -2 9 -19 14 -36 8 -29 7 -33 -18 -42 -15 -5 -48 -21
-74 -34 -26 -14 -50 -25 -53 -25 -10 0 -35 75 -51 153 -15 74 -14 193 2 219 6
10 2 10 44 -5z m1784 -63 c27 -34 28 -41 29 -144 1 -104 2 -108 27 -125 58
-40 68 -64 79 -190 5 -66 19 -167 30 -225 11 -58 22 -123 25 -145 l6 -40 -27
35 c-14 19 -79 88 -145 152 -104 103 -118 121 -118 151 0 26 -35 245 -67 418
-4 22 2 32 39 58 23 17 52 44 63 61 11 16 22 30 25 30 3 0 18 -16 34 -36z
m-615 -103 c16 -119 16 -119 -62 -201 -60 -63 -90 -88 -145 -125 -42 -28 -54
-27 -109 11 l-33 22 35 6 c45 9 54 25 26 47 l-23 19 31 39 c17 21 45 65 62 97
31 59 33 80 13 150 -5 20 -3 21 38 17 23 -2 63 2 88 10 25 8 49 14 55 13 5 -2
16 -49 24 -105z m-266 83 c62 -11 45 -29 -25 -27 l-63 2 60 -15 c77 -19 88
-31 39 -40 -64 -11 -75 -23 -20 -24 48 0 48 0 41 -27 -4 -16 -8 -29 -9 -31
-11 -10 -201 -23 -291 -20 -95 4 -115 7 -147 29 -46 30 -47 39 -5 40 l32 1
-30 8 c-16 4 -47 8 -67 9 -25 1 -38 6 -38 15 0 16 30 26 85 26 28 0 36 3 28
11 -6 6 -33 10 -62 8 -34 -3 -51 0 -51 8 0 11 25 15 140 26 65 7 345 7 383 1z
m-550 -61 c4 -2 7 -12 7 -22 0 -10 26 -35 66 -61 36 -24 94 -66 127 -93 92
-73 143 -96 199 -90 54 6 118 -3 118 -17 0 -6 -15 -10 -34 -10 -19 0 -37 -4
-40 -9 -7 -10 62 -66 101 -83 l28 -12 -27 -4 c-15 -2 -44 1 -64 7 -48 13 -57
5 -14 -13 39 -16 21 -26 -27 -15 -42 9 -45 -13 -5 -36 l27 -16 -27 5 c-14 3
-34 9 -44 13 -13 5 -15 3 -9 -8 5 -8 -10 3 -33 24 -23 20 -46 37 -50 37 -5 0
-17 8 -28 18 -10 9 -59 32 -109 51 -128 48 -212 92 -277 146 -51 42 -58 52
-68 101 -6 30 -10 60 -7 67 8 26 153 42 190 20z m2372 -143 c15 -63 38 -146
52 -185 23 -63 25 -89 29 -265 4 -198 4 -198 -42 -465 -15 -89 -23 -173 -44
-495 -5 -91 -13 -182 -16 -202 l-7 -38 -68 0 -68 0 -6 55 c-4 30 -4 72 0 92 3
21 9 106 12 188 5 160 -4 246 -39 345 -33 92 -37 118 -23 148 7 15 18 112 25
216 6 104 16 216 21 250 4 33 11 138 15 231 l7 171 53 33 c42 26 54 39 55 60
l1 26 8 -25 c4 -14 20 -77 35 -140z m-3060 15 l90 -57 85 6 c47 4 91 3 97 -2
9 -5 -9 -26 -58 -66 l-72 -58 -90 -5 c-118 -6 -150 1 -197 43 l-39 36 21 41
c15 29 22 62 22 104 l1 62 25 -24 c14 -13 66 -49 115 -80z m2273 76 c119 -83
323 -113 512 -75 45 9 83 15 85 12 7 -7 -24 -439 -35 -483 -5 -22 -15 -112
-21 -200 -7 -110 -15 -165 -25 -176 -18 -20 -18 -39 1 -39 11 0 14 -7 9 -25
-4 -16 0 -30 10 -40 9 -9 24 -42 33 -73 23 -72 23 -366 1 -484 -9 -49 -11 -85
-5 -100 5 -14 4 -64 -3 -128 -12 -107 -18 -130 -29 -112 -3 6 -32 26 -64 45
-73 44 -206 81 -260 73 l-38 -6 8 57 c10 75 9 429 -3 561 -5 56 -6 102 -2 102
7 0 11 -4 71 -59 20 -19 39 -32 42 -29 3 3 -20 40 -50 83 -73 101 -118 193
-138 280 -23 101 -68 349 -77 430 -5 39 -13 96 -20 128 -6 33 -9 65 -6 73 3 8
0 14 -6 14 -6 0 -8 12 -4 31 3 18 2 37 -3 43 -10 13 -23 116 -15 116 3 0 18
-8 32 -19z m-608 -199 c52 -31 131 -82 175 -115 94 -70 352 -329 402 -404 l35
-51 -28 -43 c-34 -54 -40 -61 -113 -114 -51 -37 -66 -57 -112 -145 -45 -85
-64 -111 -114 -151 -33 -27 -85 -59 -115 -70 -77 -29 -159 -75 -200 -114 -19
-19 -64 -48 -100 -66 -94 -46 -168 -49 -338 -14 -128 27 -135 28 -220 14 -48
-8 -141 -14 -207 -14 l-120 0 -107 51 c-58 29 -126 55 -150 59 -70 12 -136 52
-223 135 -75 72 -146 120 -177 120 -8 0 -45 15 -84 34 -70 34 -144 104 -144
138 0 23 147 266 205 338 158 196 407 408 543 463 42 17 44 17 68 -2 l24 -19
-47 -35 c-66 -49 -122 -108 -187 -199 -80 -113 -42 -98 48 19 45 58 94 104
175 165 33 24 37 25 63 12 16 -8 28 -19 28 -25 0 -6 -20 -34 -44 -62 -117
-139 -246 -390 -246 -479 0 -32 15 -19 28 25 15 46 113 244 145 292 59 87 152
205 163 205 10 0 104 -38 113 -46 2 -2 -18 -51 -44 -109 -44 -98 -89 -268 -77
-289 7 -13 18 11 41 99 12 44 43 126 68 183 36 81 49 102 62 96 9 -3 28 -10
43 -14 44 -14 49 -19 37 -41 -9 -17 -7 -21 9 -26 14 -3 18 -11 14 -25 -2 -11
0 -23 7 -27 9 -6 9 -19 1 -52 -16 -70 -25 -273 -12 -295 11 -19 11 -19 12 1 2
58 20 230 31 288 l12 67 19 -30 c22 -37 36 -38 44 -4 l7 27 17 -23 c22 -29 55
-23 55 9 0 14 5 26 10 28 11 3 39 -83 96 -289 18 -65 36 -118 41 -118 10 0 3
37 -47 240 -24 97 -45 182 -47 190 -2 8 12 21 31 30 19 9 40 25 48 35 12 17
13 16 13 -12 0 -16 12 -48 27 -69 14 -21 42 -72 61 -113 20 -41 37 -70 39 -64
4 12 -52 170 -67 187 -5 7 -16 31 -24 54 l-15 41 62 50 62 50 34 -37 c103
-110 206 -254 257 -357 57 -117 72 -117 25 1 -34 87 -155 266 -238 353 -43 44
-59 69 -52 76 7 7 12 7 17 0 4 -6 41 -32 82 -57 41 -26 106 -75 143 -109 37
-34 71 -59 74 -55 11 11 -141 153 -215 201 -70 45 -73 48 -56 66 19 21 11 24
154 -59z m-1370 -3 c-90 -75 -255 -225 -309 -282 l-65 -69 -24 29 c-27 32 -92
160 -92 181 0 8 7 11 18 8 82 -25 113 -27 183 -16 83 12 124 34 217 115 34 30
70 55 80 55 14 -1 12 -4 -8 -21z m2034 -621 c3 -13 6 -32 6 -43 0 -11 12 -47
27 -80 28 -63 26 -46 51 -480 7 -127 2 -257 -12 -322 l-7 -33 -30 20 c-16 11
-42 28 -57 39 -48 32 -108 60 -157 72 l-47 12 6 56 c14 135 16 235 8 356 -5
72 -7 132 -5 134 1 2 12 -4 23 -14 32 -29 37 -8 9 44 -14 26 -23 53 -21 60 2
6 30 29 62 51 61 41 102 88 115 128 3 12 10 22 15 22 4 0 10 -10 14 -22z
m-1846 -662 c37 -18 81 -36 97 -40 27 -6 33 -15 54 -73 l24 -67 -37 -32 c-64
-56 -145 -54 -216 5 l-35 30 24 66 c16 46 22 79 18 106 -3 21 -3 39 -1 39 3 0
35 -15 72 -34z m669 -68 c26 -18 51 -37 55 -42 4 -6 8 -39 8 -73 l0 -61 -31
11 c-17 7 -46 29 -65 50 -30 33 -34 44 -34 92 0 30 4 55 9 55 6 0 32 -14 58
-32z m-311 -76 c1 -53 6 -109 12 -123 10 -26 9 -27 -30 -33 -44 -7 -88 -27
-112 -52 -13 -13 -19 -14 -31 -4 -23 19 -19 43 6 35 20 -7 20 -6 4 19 -14 20
-16 38 -11 79 6 42 3 66 -13 108 -12 30 -21 55 -21 56 0 1 39 4 88 6 48 1 92
4 97 5 6 1 10 -36 11 -96z m666 46 c20 -24 63 -59 97 -79 45 -27 57 -38 45
-43 -30 -11 -120 -6 -168 10 l-48 17 7 46 c9 67 16 91 25 91 4 0 23 -19 42
-42z m-86 6 c-4 -9 -9 -58 -13 -107 -5 -76 -10 -95 -29 -114 -23 -23 -18 -38
10 -27 11 4 16 0 16 -14 0 -31 -19 -37 -44 -13 -12 11 -44 33 -71 48 l-50 28
-2 108 -3 107 96 0 c85 0 95 -2 90 -16z m-1032 -133 c34 -31 99 -61 132 -61
17 0 52 11 78 25 26 14 48 25 50 25 7 0 -1 -69 -13 -106 -17 -52 -53 -74 -119
-74 -87 0 -147 60 -159 159 -6 55 0 61 31 32z m1861 -34 c92 -55 146 -100 137
-113 -4 -6 -27 -14 -52 -18 -25 -4 -89 -25 -144 -47 -54 -21 -115 -42 -135
-45 -43 -7 -153 12 -193 32 -39 20 -47 59 -18 89 21 22 135 75 162 75 7 0 26
-14 44 -31 32 -31 54 -32 54 -3 0 8 -12 26 -26 39 -22 21 -25 27 -14 40 17 20
46 11 85 -26 17 -16 36 -29 42 -29 25 0 24 23 -3 51 -38 40 -22 36 61 -14z
m-720 12 c24 -5 71 -4 118 3 67 10 82 9 112 -5 90 -43 -9 -117 -160 -121 -60
-1 -77 3 -123 28 -43 24 -52 34 -48 50 3 12 6 32 6 45 0 20 3 22 28 16 15 -4
45 -11 67 -16z m1135 -162 c60 -30 92 -52 107 -76 30 -44 19 -58 -54 -67 -33
-4 -87 -23 -136 -47 -73 -37 -92 -42 -167 -45 -100 -5 -174 10 -215 42 -26 21
-29 27 -20 52 8 22 27 37 85 66 41 20 82 37 91 37 9 1 35 -13 58 -30 41 -29
77 -33 69 -6 -2 6 -25 26 -51 43 -43 29 -45 33 -29 47 15 13 22 14 56 2 22 -8
52 -23 67 -34 22 -17 30 -18 44 -7 16 12 15 14 -13 34 -16 12 -40 26 -53 32
-19 7 -13 8 26 4 29 -3 85 -23 135 -47z m-1985 3 c-7 -23 20 -50 49 -50 13 0
29 -7 37 -16 19 -24 85 -54 116 -54 15 0 43 9 60 20 32 19 33 19 43 0 14 -26
13 -65 -2 -77 -22 -17 -81 -21 -129 -9 -39 10 -61 27 -128 96 -84 87 -85 88
-75 114 9 23 36 -1 29 -24z m238 -9 c20 -26 37 -51 37 -55 0 -4 -16 -14 -36
-22 -39 -17 -79 -9 -122 24 l-22 17 22 32 c22 30 50 51 73 52 6 1 28 -21 48
-48z m2577 8 c84 -20 182 -62 229 -98 39 -30 23 -63 -41 -85 -29 -10 -108 -47
-175 -82 -147 -78 -180 -90 -281 -104 -145 -20 -373 20 -380 67 -4 30 19 49
92 73 l65 21 75 -35 c42 -19 76 -31 76 -26 0 5 -29 23 -65 40 l-65 31 35 30
c31 27 38 30 80 24 25 -4 57 -16 70 -27 26 -20 75 -19 75 2 0 13 -52 48 -86
56 -43 10 -45 13 -24 34 28 28 70 25 142 -10 60 -29 103 -32 95 -7 -5 18 -118
76 -148 77 -32 0 -38 6 -31 32 5 20 10 20 91 14 47 -3 123 -16 171 -27z
m-2060 -45 c0 -52 -34 -86 -147 -148 -65 -35 -166 -33 -204 5 -24 24 -25 61
-1 83 18 15 21 15 46 -5 52 -41 135 -33 176 16 9 11 22 14 46 9 26 -5 34 -2
44 15 6 12 10 29 9 39 -1 9 -1 24 0 32 2 24 31 -19 31 -46z"/>
<path d="M1984 6166 c-7 -18 3 -36 19 -36 7 0 22 -15 35 -34 13 -19 37 -40 53
-46 56 -24 142 8 155 58 3 12 10 22 15 22 5 0 9 6 9 13 0 15 -136 17 -202 3
-30 -7 -40 -4 -57 13 -18 18 -22 19 -27 7z"/>
<path d="M2241 4896 c-7 -8 -14 -30 -18 -48 -4 -29 0 -40 25 -68 25 -26 35
-31 57 -26 14 4 30 17 35 30 10 29 -3 88 -26 111 -19 19 -58 20 -73 1z"/>
<path d="M2211 3814 c-30 -39 -27 -69 9 -84 37 -15 89 -6 124 21 33 26 32 34
0 64 -39 36 -105 35 -133 -1z"/>
<path d="M1947 3802 c-39 -24 -45 -57 -16 -89 21 -21 30 -24 69 -20 49 6 83
36 73 65 -20 57 -74 76 -126 44z"/>
<path d="M4776 2048 c-3 -13 -6 -50 -6 -84 0 -126 -78 -339 -170 -464 -26 -36
-57 -84 -68 -107 -12 -22 -34 -51 -48 -62 -39 -31 -22 -37 31 -11 91 44 213
233 256 395 24 89 39 329 22 346 -7 7 -12 2 -17 -13z"/>
</g>
</svg>
