<?xml version="1.0" standalone="no"?>
<!DOCTYPE svg PUBLIC "-//W3C//DTD SVG 20010904//EN"
 "http://www.w3.org/TR/2001/REC-SVG-20010904/DTD/svg10.dtd">
<svg version="1.0" xmlns="http://www.w3.org/2000/svg"
 width="1300.000000pt" height="955.000000pt" viewBox="0 0 1300.000000 955.000000"
 preserveAspectRatio="xMidYMid meet">
<metadata>
Created by potrace 1.16, written by Peter Selinger 2001-2019
</metadata>
<g transform="translate(0.000000,955.000000) scale(0.100000,-0.100000)"
fill="#000000" stroke="none">
<path d="M6560 9294 c-6 -14 -10 -33 -10 -42 0 -37 -13 -42 -64 -27 -101 31
-111 14 -34 -55 l51 -47 -21 -45 c-24 -49 -27 -79 -12 -108 13 -23 -3 -33
-109 -70 -41 -14 -76 -30 -78 -36 -5 -14 60 -43 114 -51 l44 -6 -1 -46 c-4
-103 2 -118 32 -88 7 7 41 32 76 56 l63 42 45 -37 c25 -20 48 -43 51 -50 10
-27 32 -14 39 23 7 35 -4 116 -22 172 l-7 25 48 -28 c63 -35 74 -24 52 47 -21
65 -21 77 -3 77 25 0 117 43 113 53 -1 5 -29 19 -60 31 -42 16 -62 29 -73 51
-8 17 -23 38 -31 48 -13 14 -14 22 -5 43 29 62 8 78 -58 45 l-35 -17 -38 33
c-45 40 -55 41 -67 7z m65 -46 l27 -32 40 23 c22 12 42 20 45 18 2 -3 -3 -20
-12 -37 -9 -18 -13 -35 -8 -39 39 -27 51 -40 60 -65 7 -23 19 -33 51 -44 23
-7 42 -17 42 -21 0 -5 -25 -16 -55 -26 -31 -9 -55 -20 -53 -24 19 -40 40 -102
36 -106 -2 -3 -22 4 -43 15 -22 11 -47 20 -56 20 -14 0 -14 -5 2 -52 10 -29
18 -77 19 -106 l0 -54 -42 36 c-23 20 -51 36 -62 36 -12 0 -49 -18 -84 -40
-34 -22 -65 -40 -69 -40 -3 0 -3 26 1 59 6 55 5 59 -16 65 -13 3 -35 6 -50 6
-15 0 -39 5 -55 11 l-28 12 45 12 c102 27 130 53 130 119 0 33 7 62 20 84 19
31 19 34 3 60 -10 15 -27 34 -38 44 -32 26 -11 31 34 8 23 -11 46 -18 51 -15
6 3 10 25 10 49 0 66 14 72 55 24z"/>
<path d="M2900 9084 c-77 -15 -186 -67 -175 -84 4 -6 16 -3 29 5 36 24 136 55
175 55 43 0 111 -18 111 -29 0 -4 -11 -13 -25 -19 -39 -18 -124 -101 -150
-147 -31 -54 -49 -136 -41 -190 17 -110 119 -179 219 -146 49 17 121 83 146
135 50 101 34 244 -35 325 -19 22 -31 42 -27 44 19 11 80 19 147 19 137 -1
247 -66 303 -181 24 -48 28 -68 28 -141 0 -47 -4 -98 -8 -114 -7 -25 -11 -28
-40 -22 -75 14 -186 17 -238 8 -31 -6 -94 -25 -139 -43 -145 -56 -240 -173
-240 -296 0 -55 28 -109 72 -140 38 -25 49 -28 127 -28 76 0 92 3 143 30 122
64 230 186 293 331 18 41 36 78 39 81 11 11 115 -68 146 -110 44 -60 71 -140
73 -220 l2 -71 -70 -1 c-101 -1 -186 -52 -214 -128 -17 -44 -14 -56 23 -93 25
-25 43 -34 67 -34 78 0 179 84 202 168 14 53 32 54 113 7 72 -43 146 -122 182
-195 23 -46 27 -68 27 -135 0 -44 -4 -93 -8 -110 -6 -22 -5 -27 3 -19 17 17
29 123 20 181 -21 131 -112 247 -245 309 l-75 36 0 67 c0 72 -17 146 -45 200
-25 49 -100 126 -151 156 -40 23 -43 29 -37 53 15 60 9 205 -12 261 -26 72
-105 153 -182 188 -72 34 -207 43 -292 20 -45 -13 -59 -13 -86 -1 -36 15 -118
24 -155 18z m223 -98 c42 -39 60 -85 65 -167 4 -66 1 -84 -20 -130 -42 -93
-106 -139 -191 -139 -101 0 -155 124 -111 253 19 55 91 139 153 179 55 34 71
35 104 4z m420 -418 c20 -6 37 -14 37 -18 0 -16 -46 -119 -79 -175 -46 -81
-156 -189 -223 -220 -117 -54 -206 -53 -266 3 -74 69 -58 182 41 289 104 113
327 168 490 121z m282 -485 c-13 -55 -51 -108 -99 -140 -56 -38 -93 -41 -130
-12 -50 39 -29 98 52 150 39 25 56 29 115 29 l69 0 -7 -27z"/>
<path d="M5932 9060 c-150 -22 -278 -147 -258 -255 8 -40 26 -47 26 -9 0 92
54 168 150 213 81 37 193 36 270 -3 78 -39 95 -58 131 -151 10 -24 13 -26 17
-11 6 26 -23 96 -53 129 -40 42 -107 72 -205 89 -14 3 -49 2 -78 -2z"/>
<path d="M6130 8676 c0 -132 89 -239 216 -260 l41 -7 -1 -94 c-1 -86 5 -117
20 -103 3 4 8 49 11 102 6 94 7 97 32 102 67 15 98 30 139 67 67 63 100 142
83 203 -10 40 -24 28 -28 -26 -5 -61 -50 -138 -98 -172 -54 -38 -139 -53 -212
-38 -47 10 -65 20 -108 64 -54 55 -75 103 -75 175 0 22 -4 41 -10 41 -5 0 -10
-24 -10 -54z"/>
<path d="M9221 8584 c-71 -19 -143 -59 -202 -112 -130 -116 -167 -363 -78
-504 37 -57 103 -120 156 -147 104 -52 288 -68 401 -33 188 59 307 251 274
442 -25 146 -108 256 -238 316 -118 55 -210 66 -313 38z m220 -40 c200 -60
299 -183 299 -375 0 -100 -26 -171 -87 -239 -78 -87 -177 -130 -298 -130 -76
0 -186 24 -239 51 -57 29 -133 105 -162 162 -64 125 -30 325 73 431 37 38 151
99 203 109 57 10 160 6 211 -9z"/>
<path d="M10029 8329 c-16 -17 -33 -28 -38 -25 -5 3 -23 1 -40 -5 -23 -8 -31
-17 -31 -35 0 -37 48 -61 138 -68 157 -14 284 -48 371 -100 62 -37 103 -52
171 -61 55 -8 105 8 96 31 -3 8 -2 12 4 9 6 -3 10 -3 10 2 0 17 -16 32 -42 38
-23 6 -26 11 -21 35 8 40 -14 95 -48 125 -36 30 -99 34 -157 9 -35 -14 -38
-14 -53 4 -19 25 -72 52 -99 52 -12 0 -34 -7 -50 -15 -27 -14 -31 -13 -66 10
-53 36 -107 34 -145 -6z m114 -5 c18 -9 40 -26 50 -38 l17 -21 19 23 c46 54
132 32 151 -38 6 -22 12 -40 14 -40 2 0 17 13 34 30 37 35 69 45 117 36 52
-10 75 -46 75 -117 0 -51 3 -59 19 -59 21 0 48 -27 37 -37 -21 -21 -201 19
-256 56 -31 22 -142 67 -195 80 -22 5 -85 15 -140 21 -98 10 -152 31 -139 52
4 6 23 8 45 5 25 -3 39 -1 39 6 0 18 42 57 62 57 11 0 33 -7 51 -16z"/>
<path d="M6438 8202 c-41 -13 -55 -14 -102 -2 -63 15 -150 9 -192 -13 -120
-63 -202 -219 -175 -336 l9 -41 -38 0 c-167 0 -349 -108 -418 -250 -20 -40
-28 -74 -31 -127 l-3 -73 -77 0 c-133 0 -248 -48 -341 -141 -49 -49 -110 -159
-110 -197 0 -47 -18 -27 -40 44 -12 41 -26 77 -31 80 -5 3 -9 13 -9 22 0 12
19 25 60 40 106 41 103 34 94 205 l-7 147 -56 0 c-31 0 -139 -11 -241 -25
-400 -53 -568 -74 -637 -80 -40 -4 -73 -12 -73 -17 0 -15 156 -3 400 32 113
17 284 39 381 50 97 11 184 23 193 26 14 5 16 -7 16 -104 0 -60 3 -123 6 -140
7 -36 13 -33 -231 -122 -269 -98 -545 -206 -639 -249 -49 -23 -91 -40 -92 -38
-6 6 -22 281 -17 290 2 4 23 7 47 7 48 0 248 34 316 54 l45 13 0 61 c0 34 -5
65 -10 70 -6 6 -84 2 -200 -9 -104 -10 -195 -18 -202 -19 -6 0 -15 17 -21 38
-13 50 -4 -349 9 -440 8 -50 15 -69 29 -73 17 -6 100 22 190 63 25 11 77 33
115 47 197 76 289 110 375 140 52 18 103 36 112 40 14 5 22 -12 53 -107 20
-62 40 -125 45 -141 9 -26 4 -31 -138 -141 -81 -63 -192 -150 -247 -194 l-100
-79 -16 56 c-27 94 -84 223 -143 324 -45 76 -40 49 10 -57 45 -96 126 -306
117 -306 -2 0 -12 4 -22 9 -29 16 -104 20 -151 9 -140 -34 -227 -140 -238
-289 l-5 -67 -44 15 c-65 22 -173 13 -243 -20 -113 -54 -170 -130 -178 -238
-4 -59 -7 -69 -21 -63 -39 16 -149 16 -202 0 -111 -32 -208 -136 -231 -247 -6
-32 -15 -59 -19 -59 -3 0 -26 7 -49 15 -59 21 -136 19 -215 -6 -114 -35 -203
-137 -220 -252 l-7 -48 -57 7 c-44 4 -68 1 -112 -15 -63 -24 -91 -49 -114
-103 -36 -88 -10 -89 155 -5 352 179 504 265 840 477 501 316 682 444 1127
800 73 58 176 140 373 295 78 61 216 167 441 337 92 69 182 139 200 154 71 62
281 254 423 388 328 310 373 353 421 409 127 148 125 147 190 158 163 30 305
-68 305 -210 0 -62 -11 -121 -21 -121 -12 0 -163 133 -266 234 -46 44 -83 76
-83 70 0 -10 186 -195 280 -279 52 -46 156 -134 220 -185 24 -19 58 -47 75
-61 16 -14 53 -42 80 -62 53 -40 68 -51 155 -119 30 -23 120 -92 200 -152 140
-106 399 -308 450 -352 14 -12 64 -55 111 -95 546 -468 597 -509 1518 -1202
181 -136 248 -180 256 -167 3 5 -5 16 -17 25 -129 93 -238 177 -238 185 0 14
52 38 97 46 54 8 144 -12 189 -42 46 -32 57 -24 12 9 -57 42 -120 60 -191 54
-34 -3 -69 -8 -78 -11 -13 -6 -17 3 -22 47 -9 95 -67 177 -165 234 -41 25 -57
28 -132 28 -47 0 -96 -4 -110 -8 l-25 -8 3 61 c7 120 -67 238 -185 296 -51 25
-70 28 -153 29 -52 0 -109 -4 -126 -8 l-32 -8 -4 78 c-6 132 -74 235 -196 295
-60 30 -75 33 -157 33 -49 0 -103 -2 -120 -5 -23 -4 -29 -1 -26 10 10 42 1
149 -16 192 -47 120 -149 190 -277 192 -39 0 -87 -3 -107 -7 l-37 -7 -4 87
c-6 128 -56 209 -161 265 -58 32 -192 31 -254 0 -23 -12 -43 -25 -45 -29 -3
-5 -3 -1 -1 7 3 8 9 34 16 57 15 57 -4 155 -40 208 -56 80 -190 122 -299 92
l-51 -13 0 80 c1 71 -3 88 -28 135 -60 109 -197 157 -327 113z m-93 -28 c8 -4
15 -9 15 -13 0 -4 -79 -88 -175 -187 -171 -174 -176 -178 -186 -154 -17 39 -5
149 21 200 40 80 111 142 185 161 30 8 112 3 140 -7z m719 -338 c68 -40 96
-102 96 -213 0 -46 -4 -83 -8 -83 -5 0 -36 21 -69 48 -33 26 -100 78 -149 117
-49 38 -106 85 -127 105 l-39 35 44 12 c23 7 79 11 124 9 67 -2 89 -7 128 -30z
m-1159 -129 c-44 -40 -148 -137 -232 -215 l-153 -144 0 74 c0 56 6 85 25 126
35 75 111 147 198 187 82 38 99 42 182 43 l60 1 -80 -72z m1506 -163 c124 -36
189 -124 197 -265 3 -49 1 -79 -5 -79 -6 0 -23 10 -39 23 -174 137 -341 257
-353 252 -9 -3 -12 -3 -8 1 4 4 2 13 -5 21 -16 19 -2 30 62 47 71 19 86 19
151 0z m-2987 -190 c3 -9 6 -31 6 -50 0 -28 -4 -34 -21 -34 -11 0 -55 -9 -97
-19 -85 -22 -272 -55 -277 -49 -2 2 -5 34 -6 71 l-2 68 74 5 c41 3 106 9 144
13 121 14 172 13 179 -5z m1054 -22 c12 -8 -18 -37 -128 -129 -71 -59 -361
-273 -370 -273 -13 0 -13 -5 5 80 33 155 155 274 323 314 64 16 151 20 170 8z
m2394 -159 c112 -43 168 -127 169 -253 1 -39 -1 -73 -3 -76 -3 -2 -13 4 -24
14 -32 29 -255 214 -323 267 l-64 50 34 6 c69 13 168 9 211 -8z m490 -401
c101 -49 177 -160 186 -269 7 -87 0 -91 -65 -39 -99 78 -378 318 -382 328 -2
7 36 9 105 6 88 -3 118 -8 156 -26z m-3976 -253 c24 -6 44 -15 44 -20 0 -7
-83 -73 -354 -283 l-39 -30 5 75 c13 194 159 304 344 258z m4477 -132 c118
-54 180 -146 180 -268 0 -38 -3 -72 -6 -75 -9 -10 -457 331 -457 348 0 14 87
27 157 23 49 -2 90 -11 126 -28z m-4909 -200 c22 -7 41 -17 42 -22 3 -9 -86
-75 -310 -229 -55 -37 -106 -71 -113 -73 -24 -9 -16 105 11 162 61 130 231
204 370 162z m5357 -164 c54 -24 103 -71 131 -127 25 -49 38 -176 18 -176 -7
0 -40 22 -74 49 -33 26 -119 92 -191 146 -71 54 -131 101 -133 105 -5 13 90
29 149 25 31 -1 76 -12 100 -22z m-5791 -168 c27 -14 51 4 -270 -203 -47 -30
-97 -63 -112 -73 -38 -27 -41 -24 -34 23 20 124 116 231 236 265 51 14 141 8
180 -12z m-481 -291 l44 -19 -111 -68 c-137 -83 -362 -201 -363 -190 -7 52 20
130 63 184 84 105 246 146 367 93z m-479 -303 c0 -8 -98 -66 -189 -111 l-64
-32 7 34 c9 46 64 98 119 112 46 12 127 10 127 -3z"/>
<path d="M2233 7908 c-18 -13 -40 -38 -50 -55 -10 -18 -19 -33 -20 -33 -1 0
-15 12 -30 26 -56 53 -172 83 -245 64 -49 -13 -98 -55 -98 -83 0 -16 -4 -18
-27 -11 -99 28 -199 -38 -197 -129 0 -23 2 -48 5 -56 3 -11 -9 -17 -42 -22
-107 -16 -209 -107 -209 -186 0 -70 71 -123 146 -108 20 3 108 44 197 90 178
92 218 107 438 166 162 43 338 114 382 154 50 47 45 105 -9 105 -17 0 -24 6
-24 18 0 20 -31 52 -67 71 -38 19 -115 14 -150 -11z m146 -12 c38 -20 52 -40
53 -76 1 -29 3 -30 30 -25 24 6 28 3 28 -14 0 -51 -148 -120 -424 -196 -196
-54 -200 -55 -401 -156 -190 -95 -247 -108 -289 -66 -81 81 36 217 187 217 62
0 67 6 42 50 -32 56 -8 122 55 155 41 21 97 19 117 -4 21 -25 33 -18 33 19 0
19 10 38 27 55 82 75 284 23 312 -81 9 -35 31 -44 31 -12 0 13 9 42 20 65 32
72 112 103 179 69z"/>
<path d="M10276 7641 c-35 -23 -73 -67 -81 -92 -5 -15 -12 -18 -33 -12 -15 5
-50 8 -79 8 -61 0 -103 -31 -103 -75 0 -73 122 -114 385 -130 223 -13 515 -69
609 -117 21 -11 35 -12 52 -5 70 33 14 142 -73 142 -26 0 -31 5 -42 40 -15 51
-43 70 -103 70 -45 0 -48 2 -48 26 0 38 -27 90 -54 102 -51 23 -109 24 -150 3
-22 -12 -40 -20 -40 -18 -7 21 -30 45 -57 59 -48 24 -146 23 -183 -1z m134
-12 c50 -11 90 -43 90 -71 0 -23 17 -23 29 1 16 28 93 47 131 31 63 -26 89
-98 54 -149 -20 -28 -5 -50 19 -27 60 60 157 32 157 -46 0 -26 3 -28 38 -28
50 0 102 -32 102 -64 0 -14 -4 -28 -10 -31 -5 -3 -40 5 -78 18 -133 48 -307
79 -557 97 -181 13 -244 24 -313 57 -65 31 -80 55 -52 83 22 22 107 28 155 10
24 -9 27 -7 51 44 25 53 43 67 99 79 32 7 38 7 85 -4z"/>
<path d="M2626 7566 c-48 -24 -48 -24 -80 -5 -18 11 -49 19 -76 19 -55 0 -131
-35 -145 -67 -6 -15 -17 -22 -31 -21 -51 5 -94 -44 -94 -107 0 -14 -8 -25 -20
-28 -24 -6 -37 -34 -22 -49 18 -18 85 -10 174 21 119 43 186 58 337 76 195 24
271 58 271 121 0 50 -76 75 -152 50 -41 -14 -49 -14 -74 -1 -37 19 -32 19 -88
-9z m-78 -33 c13 -8 26 -21 29 -29 4 -12 13 -7 38 20 25 28 40 36 67 36 28 0
37 -5 47 -27 11 -24 14 -26 24 -12 19 25 52 39 92 39 46 0 75 -15 75 -40 0
-43 -86 -73 -270 -96 -142 -17 -215 -33 -316 -67 -39 -14 -91 -28 -115 -31
-41 -6 -43 -6 -25 9 11 8 23 15 28 15 4 0 8 17 8 38 0 21 7 48 16 60 16 23 53
29 71 11 7 -7 14 -2 21 20 24 69 140 99 210 54z"/>
<path d="M4710 7411 l-125 -27 3 -53 c5 -91 7 -92 109 -70 49 11 110 26 137
35 l48 16 -6 49 c-8 62 -15 79 -30 78 -6 -1 -67 -13 -136 -28z m142 -31 c0
-16 1 -35 2 -41 1 -6 -39 -24 -89 -39 -152 -46 -141 -46 -154 5 -18 70 -16 75
27 75 20 1 66 7 102 14 103 21 110 21 112 -14z"/>
<path d="M6240 7285 c-168 -47 -305 -205 -355 -410 -51 -207 73 -434 290 -531
157 -70 405 -29 564 93 166 126 230 347 160 551 -46 133 -136 221 -284 278
-59 23 -89 27 -195 30 -91 3 -140 0 -180 -11z m240 -5 c129 -20 228 -67 300
-142 90 -94 124 -194 118 -348 -3 -84 -8 -104 -40 -171 -61 -130 -184 -228
-338 -270 -70 -19 -225 -17 -294 5 -105 31 -210 112 -262 202 -112 191 -77
420 91 590 124 126 241 162 425 134z"/>
<path d="M6233 7149 c-113 -43 -200 -160 -224 -301 -31 -187 87 -375 255 -407
43 -8 44 -8 50 22 3 16 5 183 5 371 -1 213 -5 317 -9 276 -5 -36 -10 -197 -11
-357 -2 -161 -7 -293 -11 -293 -4 0 -33 9 -63 21 -74 28 -119 68 -158 143 -30
58 -32 67 -32 171 0 105 2 114 33 177 38 78 82 120 169 160 58 27 75 39 56 37
-5 0 -31 -9 -60 -20z"/>
<path d="M6455 7159 c-5 -7 -10 -170 -13 -362 l-4 -350 61 6 c115 10 223 102
260 222 25 80 26 130 6 208 -30 116 -92 206 -172 249 -60 33 -127 46 -138 27z
m100 -34 c103 -47 177 -158 194 -293 14 -113 -21 -215 -98 -285 -53 -48 -87
-65 -150 -73 l-52 -7 8 29 c4 16 7 172 6 347 l-2 318 22 -6 c12 -4 45 -17 72
-30z"/>
<path d="M4595 7026 c-44 -13 -110 -31 -147 -41 -77 -20 -77 -20 -49 -110 21
-67 29 -72 99 -56 149 35 238 66 246 86 3 8 -2 44 -11 80 -19 76 -17 75 -138
41z m119 -57 c8 -30 12 -57 8 -60 -4 -3 -25 -11 -47 -17 -22 -6 -84 -24 -138
-40 -87 -26 -99 -28 -103 -13 -3 9 -13 37 -24 63 l-18 48 36 10 c21 6 78 19
127 30 50 10 101 23 115 28 14 5 26 9 28 7 1 -1 9 -26 16 -56z"/>
<path d="M11046 5988 c-25 -7 -57 -28 -87 -58 l-46 -46 -90 4 c-80 4 -94 2
-139 -21 -28 -14 -56 -32 -63 -40 -10 -13 -19 -11 -63 18 -93 62 -205 70 -298
22 -52 -27 -110 -97 -110 -133 0 -25 0 -25 -69 -18 -60 6 -76 3 -115 -16 -96
-46 -157 -163 -176 -335 -9 -85 -2 -242 15 -320 7 -31 6 -31 -54 -43 -103 -21
-193 -112 -227 -228 -20 -70 -32 -188 -23 -233 5 -28 7 -20 8 39 2 126 48 264
108 325 46 45 108 76 168 82 51 5 56 8 51 27 -32 131 -33 359 -2 471 24 87 74
158 131 185 40 20 57 22 122 17 52 -4 75 -2 78 6 2 7 6 24 9 38 9 41 66 104
112 123 47 19 132 23 190 7 22 -6 59 -27 81 -46 26 -22 47 -33 57 -29 9 3 16
9 16 13 0 5 23 20 51 36 55 30 124 37 210 22 45 -8 47 -7 59 24 42 101 257
120 372 32 98 -74 150 -296 98 -412 -11 -24 -18 -46 -16 -48 2 -2 30 10 62 28
50 29 69 34 145 37 175 9 261 -55 308 -228 39 -140 23 -348 -36 -464 -46 -91
-161 -199 -243 -227 -38 -14 -38 -30 0 -53 124 -73 146 -346 45 -552 -56 -116
-165 -204 -318 -257 -17 -6 -16 -10 8 -44 66 -99 3 -289 -141 -423 -106 -99
-159 -124 -284 -135 -85 -8 -89 -10 -183 -73 -64 -43 -71 -46 -150 -50 -57 -3
-95 1 -125 11 -29 10 -42 11 -39 4 11 -34 189 -50 264 -23 22 8 70 35 107 60
64 44 71 46 137 46 86 0 148 23 227 84 122 94 221 234 242 344 9 48 0 107 -24
163 -5 12 11 24 70 54 54 26 97 58 143 104 110 110 155 230 155 416 0 128 -22
200 -80 262 -19 20 -33 37 -32 38 102 60 185 136 230 210 44 72 70 163 75 270
12 236 -50 395 -181 462 -67 35 -191 43 -265 19 -27 -9 -51 -16 -54 -16 -2 0
-1 27 1 60 9 129 -44 278 -123 348 -72 63 -194 87 -299 60z"/>
<path d="M5415 5800 c-44 -5 -150 -15 -235 -24 -85 -9 -294 -30 -465 -46 -450
-44 -764 -87 -805 -111 -10 -6 -5 -7 15 -4 17 3 107 14 200 25 94 11 204 25
245 30 284 37 1168 119 1303 120 14 0 17 -9 17 -52 0 -29 5 -92 10 -139 13
-118 39 -577 50 -909 6 -151 14 -291 20 -310 24 -87 -21 923 -56 1260 -9 85
-22 158 -28 162 -13 9 -162 8 -271 -2z"/>
<path d="M6998 5755 c-4 -33 -10 -184 -13 -335 -3 -151 -13 -452 -22 -668 -13
-310 -14 -395 -4 -405 13 -13 451 -26 866 -25 l220 1 -295 14 c-162 7 -407 16
-543 19 -224 6 -248 8 -242 23 13 34 49 1134 43 1331 -3 99 -3 101 -10 45z"/>
<path d="M7090 5800 c41 -4 145 -8 230 -9 85 0 241 -6 345 -11 247 -14 1096
-79 1107 -86 13 -8 9 -402 -7 -599 -7 -99 -12 -181 -9 -184 12 -13 19 25 30
177 14 177 18 538 8 591 -9 41 -37 48 -250 61 -93 5 -221 14 -284 20 -304 27
-585 41 -900 45 -200 2 -313 0 -270 -5z"/>
<path d="M7176 5631 c-18 -29 -43 -1091 -26 -1091 6 0 10 17 10 38 4 361 11
616 20 737 6 83 9 187 5 232 l-7 81 139 -4 c76 -3 191 -9 255 -14 64 -6 139
-10 167 -10 49 0 50 -1 46 -27 -2 -16 -7 -145 -10 -288 -6 -264 -20 -578 -31
-694 l-6 -64 -231 7 c-128 4 -256 9 -284 12 -32 4 -53 2 -53 -4 0 -14 90 -21
347 -28 133 -3 233 -1 237 4 14 23 34 409 43 837 l5 270 -23 1 c-13 1 -153 5
-310 9 -214 6 -288 5 -293 -4z"/>
<path d="M5300 5604 c-195 -23 -412 -54 -422 -60 -7 -4 -8 -40 -4 -98 3 -50 9
-140 12 -201 10 -204 33 -438 44 -449 14 -14 13 -9 -10 259 -38 426 -42 477
-37 481 6 6 236 31 397 44 149 11 209 20 216 31 7 12 -54 9 -196 -7z"/>
<path d="M7980 5593 c0 -11 116 -23 214 -23 34 0 147 -7 253 -17 l192 -17 -5
-26 c-8 -52 -24 -360 -25 -506 l-2 -152 -46 -21 c-63 -28 -161 -90 -161 -102
0 -5 19 3 43 18 72 46 199 100 274 117 215 48 396 -6 558 -169 168 -168 272
-405 263 -600 -3 -79 -8 -101 -39 -165 -20 -41 -56 -97 -80 -125 -51 -58 -82
-115 -61 -115 4 0 13 15 20 33 7 19 35 58 62 88 93 99 138 221 126 339 -22
214 -117 411 -272 564 -81 80 -154 128 -250 162 -85 31 -233 33 -344 4 -41
-10 -75 -18 -76 -17 -3 5 15 492 22 590 7 101 6 107 -12 107 -10 0 -107 6
-214 14 -333 25 -440 29 -440 19z"/>
<path d="M5532 5565 c-2 -33 32 -664 48 -889 5 -77 8 -141 6 -143 -8 -9 -243
-43 -363 -53 -73 -6 -145 -15 -160 -20 l-28 -8 27 -1 c68 -2 401 31 468 47
l75 18 0 59 c0 33 -6 143 -13 245 -20 297 -52 723 -56 750 -3 21 -3 21 -4 -5z"/>
<path d="M7956 5548 c-3 -13 -7 -101 -10 -196 -4 -94 -15 -313 -26 -485 -11
-171 -20 -324 -20 -338 0 -24 4 -27 53 -31 28 -3 75 -2 102 1 48 7 46 7 -42
15 l-92 7 5 82 c30 515 49 967 41 967 -4 0 -9 -10 -11 -22z"/>
<path d="M4530 5520 c-36 -4 -144 -15 -240 -24 -96 -10 -188 -21 -205 -26 -51
-14 80 -12 228 4 266 29 368 38 373 33 3 -3 14 -103 24 -222 10 -119 20 -219
23 -221 6 -7 19 45 13 54 -2 4 -7 46 -10 92 -8 116 -26 281 -32 303 -6 19 -51
21 -174 7z"/>
<path d="M3015 5438 c4 -12 21 -101 110 -598 15 -80 44 -235 66 -345 21 -110
50 -276 64 -370 34 -232 36 -245 48 -252 21 -13 -24 312 -88 632 -14 72 -39
207 -56 300 -17 94 -34 186 -39 205 -5 19 -23 107 -40 195 -35 187 -49 245
-61 245 -5 0 -6 -6 -4 -12z"/>
<path d="M1488 5230 c-15 -4 -37 -15 -49 -23 -32 -23 -89 -107 -89 -133 0 -30
-17 -40 -38 -21 -9 9 -36 23 -60 32 -119 48 -281 -45 -355 -203 -26 -57 -32
-82 -35 -161 -3 -54 1 -118 8 -150 14 -66 65 -177 108 -241 l31 -45 -47 -8
c-188 -31 -309 -85 -405 -180 -114 -113 -161 -225 -155 -372 3 -77 8 -99 35
-155 18 -36 38 -73 45 -82 10 -14 5 -25 -38 -70 -101 -107 -140 -213 -131
-355 7 -122 50 -205 133 -256 42 -26 136 -49 161 -40 18 7 16 -1 -9 -50 -66
-130 -63 -249 12 -400 72 -146 273 -287 410 -287 45 0 48 -2 54 -31 12 -59 88
-109 167 -109 15 0 46 7 69 15 69 24 201 125 164 125 -4 0 -27 -15 -53 -33
-71 -51 -111 -68 -172 -74 -40 -4 -64 -1 -88 11 -35 19 -71 69 -71 102 0 19
-6 21 -57 21 -139 0 -296 100 -387 248 -41 65 -55 108 -63 188 -7 83 10 157
54 229 37 63 37 78 -2 70 -49 -9 -148 18 -196 54 -75 55 -104 140 -97 282 4
71 10 99 36 153 28 59 95 138 136 161 22 12 20 22 -14 69 -37 52 -66 128 -75
199 -19 150 92 352 243 444 79 48 199 85 299 93 46 3 86 9 88 13 2 4 -14 31
-37 61 -161 212 -176 491 -35 645 51 56 131 102 182 104 81 5 102 0 142 -35
23 -19 46 -35 52 -35 6 0 11 19 11 43 0 61 35 117 90 145 59 30 154 27 225 -9
99 -49 194 -162 246 -291 31 -76 68 -221 75 -294 4 -35 10 -64 14 -64 4 0 33
12 65 26 46 22 67 26 116 22 158 -11 232 -166 184 -385 -20 -93 -64 -188 -140
-301 -30 -46 -55 -85 -55 -87 0 -2 21 -16 48 -30 58 -32 78 -58 96 -127 l15
-53 0 43 c1 66 -42 137 -102 168 l-27 15 41 51 c81 103 152 277 164 404 15
146 -30 247 -132 302 -77 41 -147 44 -216 9 l-46 -24 -6 46 c-32 248 -132 457
-267 557 -88 64 -189 89 -270 64z"/>
<path d="M4068 5140 c-210 -38 -388 -159 -462 -315 -57 -118 -40 -129 23 -16
116 210 304 310 584 312 174 1 311 -38 425 -123 28 -21 52 -34 52 -29 0 16
-100 87 -160 115 -30 14 -82 33 -115 42 -69 19 -275 27 -347 14z"/>
<path d="M3840 4924 c-152 -73 -283 -211 -331 -351 -27 -80 -26 -200 2 -255
42 -82 68 -87 38 -7 -33 86 -40 137 -30 195 14 72 64 172 123 241 53 64 172
157 236 185 23 10 42 21 42 23 0 8 -1 7 -80 -31z"/>
<path d="M4850 4866 c0 -2 23 -51 50 -108 84 -173 96 -297 38 -401 -30 -52
-21 -72 12 -30 89 113 70 286 -52 479 -36 57 -48 73 -48 60z"/>
<path d="M4530 4723 c-175 -79 -243 -104 -355 -133 -96 -25 -276 -44 -352 -36
-65 7 -88 -7 -35 -21 40 -12 210 -7 262 7 25 6 72 17 105 24 61 14 185 52 285
88 57 20 212 98 246 122 46 34 -2 18 -156 -51z"/>
<path d="M10621 4678 c-28 -280 -39 -323 -186 -733 -87 -244 -145 -506 -160
-723 -4 -57 -1 -289 6 -516 16 -522 7 -612 -86 -861 -19 -49 -32 -91 -30 -93
4 -4 74 177 85 221 5 17 18 68 30 112 30 114 34 251 21 645 -21 608 9 818 184
1300 97 266 118 344 134 490 13 117 24 280 19 280 -2 0 -10 -55 -17 -122z"/>
<path d="M4722 4763 c-21 -39 -35 -134 -30 -210 5 -81 37 -174 74 -211 17 -16
15 -17 -32 -23 -60 -6 -40 -16 44 -21 50 -4 71 -10 107 -36 46 -32 65 -39 65
-24 0 25 -95 82 -137 82 -12 0 -23 15 -35 48 -9 26 -28 79 -42 117 -30 81 -34
167 -11 240 15 51 14 70 -3 38z"/>
<path d="M8295 4661 c-101 -46 -196 -168 -225 -290 -18 -77 -9 -233 17 -292
15 -33 19 -59 16 -91 -5 -39 -2 -49 26 -80 18 -20 31 -47 31 -62 0 -19 6 -27
24 -32 27 -6 46 -47 46 -96 0 -40 -42 -82 -73 -72 -67 21 -91 65 -62 112 10
15 24 31 32 35 17 10 17 27 -1 27 -25 0 -66 -59 -66 -96 0 -52 46 -99 98 -99
49 0 79 25 88 71 7 39 -3 89 -21 107 -14 14 -9 67 6 67 4 0 13 -19 19 -42 43
-171 130 -312 237 -383 32 -22 61 -42 66 -45 4 -4 1 -23 -8 -43 -19 -47 -3
-49 19 -2 15 31 20 34 44 28 15 -5 71 -8 124 -8 l97 0 15 -39 c9 -22 18 -37
21 -34 3 3 1 18 -5 33 -14 38 -7 52 29 60 42 9 138 73 186 123 51 55 113 155
128 210 12 46 27 56 27 18 0 -52 72 -65 78 -13 2 15 8 27 13 27 6 0 21 11 34
25 19 18 25 35 25 67 -1 50 -15 73 -59 91 -50 21 -137 103 -159 149 -12 24
-30 84 -41 134 -26 120 -53 175 -112 228 -61 55 -115 73 -244 81 -155 10 -245
39 -322 102 -24 19 -43 30 -43 25 0 -18 104 -92 158 -112 36 -14 107 -26 193
-35 148 -14 193 -30 251 -88 48 -48 74 -109 94 -215 20 -109 57 -180 122 -229
33 -25 40 -34 28 -39 -9 -3 -16 -13 -16 -22 0 -12 3 -13 12 -4 18 18 73 15 97
-5 11 -10 24 -32 27 -50 5 -27 1 -37 -24 -63 -36 -36 -77 -42 -67 -9 6 18 5
19 -15 7 -18 -11 -22 -11 -31 5 -14 23 -29 22 -29 -4 0 -27 -73 -172 -113
-223 -118 -152 -281 -216 -442 -172 -117 31 -231 116 -292 218 -36 59 -79 174
-89 238 -6 34 -10 41 -26 37 -11 -3 -22 2 -28 14 -14 26 -33 24 -25 -2 6 -18
5 -19 -14 -10 -73 39 -63 141 14 141 19 0 37 -4 40 -10 3 -5 12 -10 18 -10 7
1 1 10 -13 21 -19 16 -34 20 -66 16 -48 -5 -41 -18 -69 142 -33 186 43 348
209 446 63 37 58 47 -9 16z"/>
<path d="M10115 4443 c-14 -37 -17 -164 -5 -225 24 -125 101 -265 202 -372 58
-60 54 -50 -19 53 -70 97 -138 237 -159 326 -16 68 -15 175 1 218 4 9 3 17 -3
17 -5 0 -13 -8 -17 -17z"/>
<path d="M4382 4430 c-12 -5 -29 -25 -38 -44 -15 -31 -21 -34 -68 -39 -28 -2
-58 -7 -66 -11 -11 -4 -19 2 -27 24 -17 46 -50 54 -168 40 -132 -15 -165 -33
-165 -91 0 -13 -7 -19 -24 -19 -31 0 -86 -20 -86 -31 0 -5 14 -6 30 -4 94 15
86 17 99 -25 13 -45 35 -60 85 -60 49 0 176 20 202 32 26 12 44 48 44 88 0 30
0 30 60 30 l60 0 0 -30 c0 -19 9 -40 23 -54 20 -20 37 -24 137 -31 154 -10
162 -10 176 10 26 36 27 93 2 143 -20 41 -30 49 -73 64 -54 18 -166 23 -203 8z
m193 -33 c31 -9 44 -21 58 -49 21 -43 15 -103 -12 -117 -9 -5 -66 -6 -130 -2
-130 9 -141 16 -141 88 0 33 6 50 25 68 21 22 33 25 92 24 37 0 86 -6 108 -12z
m-425 -32 c7 -9 15 -38 18 -65 4 -46 3 -50 -27 -68 -34 -21 -188 -47 -219 -38
-10 4 -24 18 -30 32 -17 35 -15 109 2 124 15 12 113 26 197 29 31 1 51 -4 59
-14z"/>
<path d="M5360 4319 c-157 -20 -309 -38 -338 -38 -35 -1 -51 -5 -47 -12 8 -12
12 -12 449 37 170 19 317 39 325 44 31 18 -102 7 -389 -31z"/>
<path d="M2930 4250 c0 -11 7 -37 15 -57 8 -20 14 -38 12 -39 -2 -2 -19 12
-37 31 -69 72 -112 25 -45 -48 44 -48 44 -60 0 -41 -51 21 -95 19 -95 -5 0
-26 35 -50 82 -57 45 -8 40 -24 -7 -24 -35 0 -69 -24 -62 -44 2 -6 28 -11 63
-11 48 0 66 -6 98 -28 21 -15 45 -27 52 -27 17 0 18 -12 2 -28 -27 -27 26 -11
71 22 53 39 89 76 74 76 -6 0 -16 -7 -23 -15 -7 -8 -27 -24 -45 -35 l-34 -21
-48 24 c-26 13 -61 31 -76 39 -20 11 -38 13 -64 7 -21 -4 -41 -5 -45 -3 -17
11 3 22 52 28 39 5 50 11 50 25 0 13 -15 22 -60 34 -39 11 -60 22 -60 32 0 18
-2 18 50 0 48 -17 90 -20 90 -6 0 6 -18 31 -40 56 -64 73 -49 93 19 25 37 -38
61 -50 61 -32 0 5 -9 34 -19 65 -11 31 -16 59 -11 62 5 3 14 -14 21 -37 16
-60 46 -115 68 -128 31 -16 36 -12 9 10 -14 10 -33 41 -42 67 -36 98 -38 103
-57 103 -12 0 -19 -7 -19 -20z"/>
<path d="M3678 4224 c-5 -4 -8 -15 -8 -24 0 -13 -11 -19 -40 -24 -23 -4 -54
-19 -75 -37 -28 -25 -35 -38 -35 -68 1 -43 14 -62 59 -85 32 -17 61 -17 102
-1 14 5 17 -5 22 -68 16 -212 135 -377 321 -444 107 -38 307 -46 419 -18 207
53 365 198 413 379 16 60 18 152 4 161 -5 3 -10 3 -10 -2 0 -4 -4 -44 -9 -88
-15 -125 -42 -186 -120 -264 -127 -129 -254 -176 -466 -175 -114 0 -139 4
-204 27 -134 47 -218 120 -279 243 -31 62 -62 186 -62 250 0 33 -2 36 -22 29
-90 -28 -138 -9 -138 55 0 29 6 43 25 59 35 27 85 37 96 20 6 -11 9 -10 14 3
8 21 2 82 -7 72z"/>
<path d="M4164 4134 c-9 -21 -21 -66 -27 -100 -9 -53 -8 -65 9 -99 26 -53 66
-80 114 -79 51 2 85 24 110 74 24 46 25 88 6 135 -18 42 -41 48 -32 8 3 -16 9
-49 12 -75 6 -43 4 -49 -24 -77 -24 -24 -39 -31 -70 -31 -22 0 -48 3 -57 6
-43 17 -57 113 -30 214 17 65 12 78 -11 24z"/>
<path d="M8505 4111 c8 -27 -29 -34 -51 -10 -9 10 -21 16 -26 13 -5 -3 -1 -15
8 -25 13 -15 15 -22 6 -31 -16 -16 -15 -73 2 -87 9 -8 44 -11 97 -9 82 3 83 3
95 35 12 28 11 34 -9 59 -12 15 -27 39 -34 53 -11 25 -11 25 -12 4 -1 -28 -20
-29 -49 -3 -27 25 -35 25 -27 1z"/>
<path d="M10521 4028 c-41 -125 -65 -228 -89 -378 -42 -260 -47 -313 -46 -585
0 -238 4 -295 28 -480 34 -253 32 -398 -8 -588 -25 -116 -60 -230 -79 -254 -6
-9 -6 -13 1 -13 12 0 42 76 67 170 9 36 21 74 26 85 13 30 30 167 36 291 3 76
0 146 -12 225 -50 335 -58 642 -25 929 30 264 77 504 125 639 8 24 13 46 11
48 -2 2 -18 -38 -35 -89z"/>
<path d="M8910 4086 c0 -8 -14 -28 -31 -46 -26 -26 -30 -36 -25 -63 4 -17 10
-34 14 -38 4 -4 43 -10 87 -14 l80 -7 18 30 c14 25 15 35 6 56 -7 14 -17 26
-23 26 -6 0 2 11 18 23 17 14 25 26 19 30 -6 4 -18 -2 -28 -13 -10 -11 -26
-20 -37 -20 -21 0 -23 11 -6 28 18 18 1 27 -19 10 -31 -26 -53 -30 -53 -8 0
11 -4 20 -10 20 -5 0 -10 -6 -10 -14z m85 -50 c43 -18 60 -48 44 -77 -10 -19
-17 -21 -63 -15 -28 3 -59 6 -68 6 -22 0 -41 35 -33 61 12 37 65 48 120 25z"/>
<path d="M1522 4039 c-4 -127 -37 -312 -96 -539 -77 -295 -104 -522 -87 -721
20 -223 51 -356 180 -759 171 -533 206 -701 199 -971 -2 -77 0 -139 3 -139 12
0 18 199 9 310 -18 220 -89 534 -161 712 -10 26 -19 53 -19 61 0 7 -20 76 -45
153 -25 76 -57 184 -71 239 -13 55 -29 116 -34 135 -23 85 -41 256 -41 390 -1
165 15 286 66 505 88 375 110 514 103 625 l-4 55 -2 -56z"/>
<path d="M1548 3885 c-3 -84 -17 -214 -31 -295 -48 -275 -52 -325 -51 -610 0
-239 3 -292 22 -400 21 -117 77 -300 144 -469 59 -150 150 -442 188 -602 64
-275 67 -655 6 -947 -8 -34 -10 -62 -6 -62 17 0 57 240 70 418 16 211 -3 411
-61 647 -32 129 -154 504 -170 519 -5 6 -9 18 -9 27 0 10 -9 39 -21 66 -37 85
-99 305 -120 423 -43 248 -36 574 22 971 23 162 29 233 27 335 l-3 129 -7
-150z"/>
<path d="M11121 3920 c-61 -114 -178 -221 -293 -266 -78 -30 -174 -32 -235 -4
-59 26 -54 16 7 -15 92 -47 228 -29 335 45 55 38 181 173 204 219 48 94 31
113 -18 21z"/>
<path d="M4594 3899 c-4 -6 -21 -8 -43 -5 -35 6 -35 6 -14 -10 l22 -16 -28
-57 c-35 -69 -71 -105 -136 -139 -121 -63 -272 -15 -358 113 -29 43 -35 34
-13 -18 50 -121 249 -185 382 -123 90 42 153 112 169 186 4 19 16 41 26 48 20
14 25 32 10 32 -6 0 -13 -5 -17 -11z"/>
<path d="M9536 3874 c-9 -40 9 -124 40 -190 14 -31 65 -106 113 -167 95 -122
133 -181 177 -271 55 -112 151 -191 256 -210 37 -7 99 11 112 32 3 6 -8 4 -24
-5 -61 -30 -181 9 -252 82 -20 21 -59 82 -88 137 -29 55 -101 164 -159 242
-117 155 -140 201 -148 291 -7 75 -18 100 -27 59z"/>
<path d="M2567 3766 c-85 -35 -133 -80 -169 -158 -13 -27 -28 -48 -34 -48 -29
0 -136 -65 -162 -98 -82 -104 -96 -182 -62 -346 28 -138 24 -174 -39 -329 -66
-166 -81 -219 -81 -297 0 -56 5 -78 32 -130 34 -65 97 -129 161 -161 20 -11
37 -22 37 -25 0 -2 -10 -19 -22 -35 -33 -44 -32 -155 0 -221 31 -62 47 -62 21
-1 -38 90 -34 187 11 228 34 31 25 52 -30 76 -50 22 -150 118 -150 145 0 7 -7
20 -16 29 -14 13 -17 34 -15 101 1 88 13 127 96 326 49 118 52 161 25 298 -25
128 -23 186 9 253 39 81 134 156 197 157 15 0 26 14 43 55 61 147 256 220 398
150 55 -28 83 -61 93 -110 6 -29 8 -30 57 -31 79 -2 135 -43 188 -139 44 -79
64 -151 72 -256 l6 -87 95 -88 c121 -112 148 -163 137 -260 l-7 -64 43 -48
c60 -68 82 -122 77 -190 -4 -48 -10 -59 -46 -94 -23 -22 -42 -45 -42 -51 0 -6
7 -31 16 -54 22 -57 8 -108 -45 -163 -43 -45 -38 -53 7 -15 55 46 95 170 62
190 -20 12 -9 44 26 77 79 75 66 210 -31 316 -32 36 -34 41 -33 113 1 55 -4
87 -20 122 -23 52 -101 135 -174 185 l-48 33 0 68 c0 221 -130 431 -268 431
-34 0 -39 3 -50 34 -30 81 -109 128 -227 133 -68 3 -89 0 -138 -21z"/>
<path d="M8910 3717 c0 -25 -24 -49 -78 -77 -89 -45 -206 -33 -273 28 -26 23
-39 29 -39 19 0 -26 65 -74 120 -87 30 -7 80 -10 116 -7 53 4 63 2 53 -9 -17
-21 -76 -36 -129 -32 -60 4 -49 -12 13 -19 54 -6 127 23 152 61 33 50 97 106
121 106 13 0 24 5 24 10 0 6 -11 10 -24 10 -14 0 -28 5 -31 10 -11 18 -25 11
-25 -13z"/>
<path d="M7966 3680 c-18 -137 71 -240 208 -240 74 0 122 22 153 69 30 45 21
52 -13 12 -56 -67 -141 -80 -230 -36 -55 27 -87 72 -98 137 -8 43 4 55 29 28
10 -11 30 -20 44 -20 l26 0 -25 13 c-13 7 -35 28 -48 47 -13 19 -27 36 -31 38
-5 1 -11 -20 -15 -48z"/>
<path d="M11950 3574 c-77 -21 -242 -102 -322 -158 -75 -53 -107 -87 -149
-162 -36 -64 -53 -79 -137 -124 -52 -28 -75 -48 -103 -89 -67 -100 -86 -257
-50 -419 l18 -82 -61 -33 c-167 -89 -256 -244 -256 -447 0 -188 68 -336 170
-372 19 -6 29 -20 38 -53 16 -61 64 -113 118 -127 24 -7 44 -17 44 -23 0 -6
-9 -51 -20 -101 -45 -206 -63 -467 -47 -679 l7 -100 -24 51 c-32 70 -82 123
-141 150 -60 28 -85 30 -85 7 0 -41 42 -189 94 -332 31 -84 56 -155 56 -157 0
-3 -26 22 -58 55 -62 63 -98 80 -141 65 -45 -16 -38 -45 25 -102 31 -29 55
-55 52 -57 -3 -3 -21 2 -41 10 -41 17 -95 19 -117 5 -11 -7 -2 -10 32 -10 26
0 70 -9 98 -20 28 -11 56 -18 61 -14 15 9 -16 52 -74 105 -55 49 -56 69 -5 69
25 0 43 -13 92 -64 33 -35 72 -82 86 -104 26 -43 40 -52 40 -27 0 8 -29 95
-64 192 -59 163 -94 275 -110 345 -6 24 -3 28 17 28 36 0 100 -47 136 -100 62
-90 88 -233 69 -375 l-7 -50 15 45 c13 38 14 95 9 380 -9 445 5 560 111 920
56 190 102 314 212 580 115 278 173 383 300 540 l44 55 -58 -60 c-114 -116
-206 -280 -337 -595 -74 -178 -130 -337 -177 -497 -24 -80 -38 -113 -50 -116
-63 -16 -135 47 -141 123 -4 43 -15 60 -40 60 -11 0 -39 18 -63 40 -63 58 -97
152 -103 285 -7 123 11 201 63 283 48 76 103 124 192 169 53 26 71 40 67 52
-38 126 -47 293 -21 385 20 68 67 138 116 170 22 14 43 26 48 26 29 0 94 65
126 127 43 80 114 140 252 215 159 85 323 122 404 90 41 -16 82 -68 95 -119
l12 -48 141 0 140 0 39 -31 c53 -43 65 -69 60 -135 -6 -71 -32 -122 -102 -197
-60 -65 -65 -77 -35 -87 30 -10 96 -81 122 -133 30 -62 33 -188 4 -245 -27
-55 -125 -149 -190 -183 -39 -20 -55 -34 -52 -44 3 -8 12 -33 20 -55 43 -114
-10 -268 -101 -291 -16 -4 -23 -14 -23 -31 0 -39 -29 -140 -51 -181 -47 -83
-111 -127 -202 -138 -48 -6 -56 -10 -76 -43 -48 -77 -198 -151 -304 -151 -29
0 -76 7 -103 15 -56 16 -120 22 -130 12 -4 -4 4 -7 17 -7 13 0 56 -9 94 -20
87 -25 156 -25 234 -1 83 26 141 62 192 119 39 43 50 49 96 55 28 3 69 15 91
26 79 40 145 148 161 262 5 40 12 51 51 80 64 49 95 114 94 204 0 41 -7 85
-16 107 l-16 36 57 36 c80 49 149 121 180 186 62 131 12 303 -113 393 -19 14
-18 16 21 63 119 145 141 260 65 343 -51 56 -120 74 -254 65 l-98 -7 0 25 c0
42 -53 113 -102 137 -53 25 -144 27 -228 5z"/>
<path d="M4606 3478 c4 -7 21 -30 37 -51 17 -22 26 -42 21 -47 -7 -7 -264
-140 -271 -140 0 0 -5 12 -11 28 -5 15 -28 56 -51 91 -48 75 -55 56 -13 -34
31 -64 31 -78 -1 -112 -29 -32 -72 -38 -118 -18 -21 10 -39 21 -39 26 0 17 13
39 24 39 16 1 79 60 72 68 -4 3 -22 -10 -41 -28 -41 -39 -42 -38 -15 26 11 26
19 52 17 57 -3 10 -67 -95 -67 -110 0 -5 -4 -14 -9 -22 -12 -19 -80 36 -129
104 -20 27 -37 52 -39 54 -2 2 -6 2 -9 -1 -8 -9 60 -109 98 -144 18 -17 59
-48 91 -69 53 -34 62 -37 110 -32 42 4 56 10 77 35 23 28 27 29 36 14 10 -15
14 -15 50 9 21 14 73 41 114 61 41 20 91 46 111 58 l35 22 60 -36 c56 -34 94
-45 94 -28 0 4 -21 18 -47 32 -26 14 -77 55 -113 93 -62 62 -91 84 -74 55z"/>
<path d="M8494 3293 c-3 -12 -16 -19 -36 -20 -75 -6 -159 -118 -191 -258 -76
-322 -111 -489 -128 -600 -10 -71 -24 -152 -30 -178 -6 -26 -9 -51 -5 -54 11
-11 27 52 41 163 7 61 34 198 58 305 24 107 54 241 66 299 22 107 74 231 109
263 18 16 19 14 36 -55 26 -103 31 -230 13 -298 -9 -30 -14 -56 -12 -58 8 -9
38 92 42 145 4 38 11 64 19 67 18 7 28 -12 15 -27 -13 -16 -2 -32 27 -41 29
-10 29 -28 -1 -21 -27 7 -67 -28 -46 -40 6 -5 15 -1 20 7 5 9 18 14 32 11 26
-5 53 19 42 37 -4 6 -18 15 -31 20 -20 8 -23 14 -17 41 6 30 5 31 -28 27 l-34
-3 -8 69 c-4 38 -14 83 -22 99 -20 40 -20 43 15 57 42 17 53 5 86 -96 15 -48
34 -92 42 -100 10 -10 44 -14 130 -14 64 0 122 4 128 8 7 4 33 51 59 105 43
89 50 98 73 95 46 -6 49 -29 12 -110 -29 -63 -34 -84 -34 -153 -1 -44 3 -97 7
-117 6 -30 5 -38 -7 -38 -9 0 -17 -15 -21 -40 -6 -35 -9 -39 -22 -28 -13 10
-19 8 -37 -15 -29 -36 -36 -34 -36 8 0 40 -15 45 -61 18 -15 -9 -32 -13 -36
-9 -4 5 -3 11 3 13 6 2 20 10 30 18 18 14 18 15 -5 33 -29 24 -15 35 29 22 41
-12 46 -9 54 36 8 39 27 41 36 4 7 -29 23 -35 40 -15 10 13 9 15 -9 15 -11 0
-21 6 -21 14 0 7 -7 19 -15 26 -21 18 -45 -4 -45 -42 l0 -29 -50 7 c-42 6 -51
4 -56 -11 -5 -12 -1 -23 11 -32 19 -13 18 -14 -3 -29 -30 -20 -29 -54 1 -54
12 0 31 7 41 15 28 21 36 19 36 -9 0 -13 7 -30 16 -37 14 -12 20 -9 42 16 16
19 27 25 30 17 5 -17 29 -15 36 4 3 9 6 29 6 45 0 25 8 33 31 31 4 -1 3 15 -2
36 -20 86 -3 190 49 306 l26 59 22 -47 c20 -44 41 -157 62 -346 l9 -75 2 90
c1 111 -23 265 -51 323 -11 24 -32 51 -47 60 -14 9 -32 22 -39 29 -7 7 -24 13
-38 13 -27 0 -45 -24 -96 -130 -17 -36 -36 -68 -42 -72 -15 -10 -218 -10 -234
0 -7 5 -21 41 -32 81 -11 39 -26 81 -33 93 -9 16 -9 22 1 25 6 3 12 13 12 24
0 24 -30 25 -36 2z"/>
<path d="M4880 3237 c0 -2 14 -35 31 -72 28 -60 33 -82 41 -204 5 -75 18 -210
28 -301 11 -91 24 -235 30 -320 6 -85 16 -181 21 -214 9 -51 8 -61 -8 -78 -28
-31 -68 -48 -131 -54 l-59 -7 -6 184 c-10 286 -24 436 -52 543 -14 53 -25 124
-26 159 0 34 -4 82 -9 107 -6 29 -8 -51 -5 -220 3 -146 7 -279 11 -295 l6 -30
-109 -28 c-164 -41 -222 -50 -238 -37 -8 7 -27 9 -42 6 -15 -3 -63 -7 -106 -8
-51 -1 -82 -7 -89 -16 -13 -15 -41 -13 -215 15 -95 16 -102 18 -106 42 -3 14
-15 150 -27 301 -22 275 -27 326 -35 318 -5 -5 12 -357 24 -508 5 -63 7 -173
3 -245 -4 -74 -2 -264 6 -440 18 -427 11 -782 -17 -940 -28 -155 -37 -319 -22
-414 l12 -74 -36 -29 c-60 -50 -40 -105 47 -129 33 -9 72 -9 163 0 66 6 146
11 178 11 66 0 121 19 136 48 37 69 30 101 -7 38 -34 -57 -56 -63 -272 -70
-215 -7 -243 -2 -248 46 -7 56 113 103 248 96 77 -4 98 -9 162 -40 40 -20 75
-34 78 -31 3 3 -1 8 -7 10 -21 8 -14 23 10 23 12 0 32 7 44 15 20 14 25 13 56
-5 32 -19 35 -24 30 -58 -9 -68 0 -70 297 -58 203 9 234 16 256 57 30 59 -1
112 -75 128 l-31 6 -4 280 c-2 154 -9 330 -15 390 -24 227 -36 503 -29 631 8
139 4 765 -6 879 -5 53 -4 63 4 40 12 -37 40 -433 40 -575 0 -58 4 -111 9
-119 6 -8 28 -13 65 -12 119 1 183 43 172 111 -3 19 -14 141 -25 270 -11 129
-25 267 -30 305 -6 39 -15 140 -21 225 -11 169 -23 236 -51 291 -16 31 -49 70
-49 56z m-130 -855 c0 -31 4 -30 -185 -72 -150 -33 -145 -33 -145 -2 0 27 3
29 73 40 39 7 108 24 152 37 103 31 105 30 105 -3z m-810 -36 c30 -9 94 -19
143 -22 83 -7 87 -8 87 -30 0 -30 -17 -30 -190 -4 -69 10 -127 16 -129 14 -15
-14 173 -54 256 -54 46 0 56 -3 60 -20 5 -18 14 -20 83 -20 115 0 172 10 177
30 4 13 24 21 81 30 42 7 114 24 159 39 l81 27 6 -66 c8 -87 6 -139 -5 -146
-14 -8 -76 25 -109 59 -16 17 -30 26 -30 21 0 -18 60 -73 100 -91 40 -18 57
-40 43 -53 -16 -14 -138 54 -185 103 -47 48 -68 53 -27 6 11 -13 24 -29 27
-35 13 -21 104 -76 145 -88 l42 -12 -2 -50 c-9 -220 -3 -591 11 -749 9 -99 19
-311 23 -471 l6 -292 -64 5 c-69 5 -166 -14 -229 -46 -19 -10 -52 -24 -74 -31
-34 -11 -41 -10 -65 7 -25 19 -26 25 -33 154 -5 74 -6 348 -5 609 4 460 -8
790 -26 745 -5 -10 -7 -349 -6 -752 1 -539 -2 -737 -10 -747 -23 -27 -75 -28
-132 -2 -74 34 -165 42 -258 22 -41 -9 -76 -14 -78 -12 -2 2 -8 32 -14 67 -14
82 -5 224 26 414 28 173 35 458 21 885 l-8 245 33 12 c46 17 146 97 169 136
23 37 17 51 -7 16 -30 -43 -75 -80 -135 -110 -55 -28 -58 -28 -58 -9 0 11 6
20 14 20 16 0 116 87 116 101 0 5 -28 -12 -62 -37 -74 -54 -79 -50 -74 57 2
41 4 91 5 113 1 43 -5 42 101 12z m869 -1906 c72 -10 103 -32 99 -68 -5 -44
-44 -62 -143 -67 -254 -13 -334 -15 -349 -9 -18 7 -22 54 -5 71 6 6 18 9 26 6
7 -3 21 1 31 9 9 9 46 27 82 41 71 29 145 34 259 17z"/>
<path d="M9528 3149 c-70 -71 -72 -72 -81 -48 -5 13 -13 34 -18 47 -6 15 -16
22 -27 20 -14 -3 -17 -15 -17 -75 0 -39 3 -66 7 -60 4 7 8 37 8 67 1 53 1 54
15 30 8 -14 14 -34 15 -46 0 -11 2 -23 5 -26 7 -7 44 22 103 80 24 24 46 42
49 39 3 -3 -9 -26 -27 -51 -17 -25 -29 -46 -26 -46 3 0 26 16 52 35 48 37 86
49 44 14 -59 -50 -101 -91 -97 -95 2 -3 30 6 60 20 73 32 65 9 -10 -28 -61
-30 -67 -46 -8 -22 44 19 79 21 69 5 -11 -18 -125 -68 -171 -75 -39 -6 -47
-13 -91 -73 -27 -36 -59 -84 -72 -106 -103 -178 -165 -248 -213 -243 -40 4
-63 38 -82 118 -32 146 -35 152 -30 70 5 -87 27 -160 56 -186 13 -11 36 -19
59 -19 69 0 71 3 291 343 41 62 59 82 76 82 51 0 213 77 213 101 0 5 -7 9 -15
9 -18 0 -19 12 -4 27 15 15 3 47 -14 40 -45 -19 -48 -16 -14 12 20 18 37 39
37 47 0 17 -31 19 -48 2 -17 -17 -24 -4 -13 25 19 50 -9 38 -81 -34z"/>
<path d="M6977 3192 c-10 -2 -20 -16 -24 -33 -4 -24 -12 -30 -42 -35 -59 -10
-69 -14 -73 -32 -3 -11 -22 -23 -46 -30 -28 -9 -45 -21 -54 -39 -8 -17 -26
-31 -45 -36 -38 -11 -51 -36 -28 -53 15 -11 14 -14 -9 -29 -41 -27 -30 -39 12
-14 50 30 49 29 28 44 -23 17 -15 31 29 45 24 8 35 18 35 31 0 14 11 22 46 30
32 8 48 19 54 34 8 22 52 41 70 30 4 -3 20 -1 35 5 22 9 26 15 21 35 -5 20 -3
25 13 25 36 0 168 -28 205 -44 48 -20 44 0 -5 25 -36 19 -191 48 -222 41z"/>
<path d="M4315 3125 c4 -16 29 -83 57 -148 l50 -119 -23 -16 c-35 -23 -219
-204 -219 -215 0 -5 36 24 81 64 44 41 101 91 125 112 l44 38 16 -34 17 -35
-118 -113 c-64 -62 -111 -115 -105 -117 7 -3 61 44 120 103 62 62 113 105 119
101 17 -11 13 24 -8 87 -24 70 -165 333 -156 292z"/>
<path d="M2698 3020 l4 -96 -62 -184 c-60 -175 -64 -191 -68 -298 -7 -162 32
-331 99 -437 28 -45 29 -48 12 -61 -10 -7 -22 -14 -28 -14 -17 -1 -115 -67
-160 -108 -158 -144 -214 -366 -133 -526 29 -56 133 -158 191 -185 42 -20 62
-41 39 -41 -5 0 -20 -35 -35 -77 -100 -293 -97 -493 9 -594 20 -18 35 -29 32
-24 -2 6 -18 40 -36 76 -64 130 -65 240 -7 429 15 47 34 111 43 143 13 44 20
56 32 51 33 -13 186 -36 222 -32 32 3 37 1 32 -12 -18 -41 -16 -72 7 -97 l24
-26 -75 6 c-65 4 -100 14 -195 53 -46 18 7 -24 58 -47 46 -21 66 -24 187 -24
129 0 139 2 215 33 44 17 94 43 110 57 30 25 30 25 -36 -4 -110 -48 -108 -48
-102 -1 5 32 1 48 -16 71 -12 16 -17 29 -10 29 6 0 48 17 94 39 98 46 188 129
229 212 75 153 49 346 -61 464 -45 48 -109 99 -146 116 -15 7 -27 15 -27 19 0
15 61 32 93 26 47 -9 126 -96 207 -226 55 -90 96 -135 138 -154 54 -24 102
-15 136 25 33 38 35 113 6 177 -36 80 -213 227 -347 290 -114 52 -232 27 -296
-64 -31 -44 -32 -45 -72 -37 -22 4 -79 8 -127 8 l-86 0 -26 85 c-41 134 -49
194 -43 340 3 99 11 156 28 215 19 66 23 104 23 220 0 88 -4 149 -12 165 -10
22 -11 21 -4 -15 13 -77 6 -237 -16 -325 -38 -153 -45 -218 -40 -359 5 -120 9
-147 38 -230 26 -76 29 -95 18 -102 -25 -16 -38 -9 -62 39 -82 163 -111 281
-104 436 5 102 10 125 62 278 62 184 73 255 53 338 l-13 55 4 -95z m654 -967
c121 -47 332 -231 357 -310 16 -50 8 -101 -21 -132 -17 -19 -28 -22 -58 -18
-53 7 -94 41 -147 122 -93 140 -155 217 -201 246 -61 39 -102 38 -136 -1 -24
-29 -27 -30 -56 -18 l-31 13 30 36 c61 74 169 99 263 62z m-278 -130 c187 -67
299 -199 313 -368 21 -246 -218 -466 -523 -483 -165 -9 -319 49 -423 158 -132
139 -114 382 41 541 162 167 387 224 592 152z m-24 -888 c31 -37 3 -98 -49
-110 -30 -6 -81 9 -93 28 -15 24 -8 66 14 81 29 21 111 21 128 1z"/>
<path d="M2849 1557 c-102 -43 -146 -86 -135 -132 7 -28 71 -52 159 -62 51 -5
57 -8 57 -28 0 -32 -58 -115 -99 -142 -69 -46 -170 -25 -248 54 -29 28 -53 46
-53 40 0 -28 51 -85 101 -112 125 -69 265 -19 318 113 l13 32 37 -22 c28 -18
51 -23 101 -23 81 0 123 20 169 81 29 38 34 55 39 113 3 53 1 74 -11 92 -16
22 -16 21 -10 -29 8 -71 -11 -132 -56 -175 -68 -67 -166 -72 -234 -12 l-27 24
40 53 c42 56 59 111 43 137 -17 27 -136 26 -204 -2z"/>
<path d="M9743 2955 c-27 -19 -38 -70 -24 -106 9 -25 6 -29 -39 -58 -61 -39
-102 -91 -130 -162 -19 -46 -21 -69 -18 -149 9 -198 117 -374 278 -453 53 -26
76 -32 130 -32 64 1 138 27 156 56 8 13 -1 11 -76 -16 -58 -22 -150 -15 -208
14 -154 79 -275 303 -259 479 11 112 76 211 176 264 27 15 30 20 21 37 -15 29
-12 87 6 102 36 30 183 1 280 -56 138 -81 160 -256 69 -543 -14 -46 -24 -89
-22 -95 6 -18 75 198 88 277 28 169 -8 303 -98 363 -115 76 -279 115 -330 78z"/>
<path d="M10775 2862 c-157 -54 -271 -185 -236 -271 14 -31 51 -71 51 -54 0 6
-6 16 -14 22 -19 16 -29 64 -21 101 15 70 174 180 283 196 40 6 48 4 65 -17
13 -17 27 -23 47 -21 69 8 96 -46 87 -170 -8 -100 -37 -168 -94 -218 -90 -79
-180 -88 -350 -35 -37 12 -26 -10 15 -30 24 -12 67 -20 122 -23 106 -5 178 19
239 79 62 62 83 116 89 225 7 147 -21 202 -103 196 -11 0 -28 8 -38 18 -22 25
-74 26 -142 2z"/>
<path d="M5765 2786 c-36 -16 -82 -60 -90 -87 -6 -19 -25 -27 -25 -11 0 13
-47 32 -80 32 -18 0 -34 -8 -44 -21 -10 -15 -20 -19 -36 -14 -24 8 -70 -18
-70 -39 0 -11 -13 -13 -60 -9 -58 6 -60 5 -96 -31 -35 -35 -36 -39 -31 -89 4
-42 1 -57 -14 -76 -14 -17 -18 -33 -14 -53 6 -24 3 -28 -15 -28 -52 0 -89 -81
-56 -125 12 -17 11 -22 -6 -45 -42 -58 -26 -161 30 -185 14 -6 20 -15 16 -25
-31 -75 -1 -143 71 -161 36 -9 45 -16 45 -33 1 -30 35 -101 70 -147 76 -95
250 -170 398 -171 90 -1 95 -5 67 -58 -18 -35 -43 -50 -85 -50 -44 0 -76 24
-95 73 -10 23 -20 36 -22 29 -13 -34 31 -106 73 -122 23 -9 24 -14 24 -100 0
-53 4 -90 10 -90 6 0 10 37 10 90 l0 89 38 11 c50 13 82 49 89 98 5 36 9 41
47 52 67 20 128 55 183 104 52 47 103 132 103 171 0 19 6 21 56 21 51 0 59 3
85 32 18 19 29 44 29 61 0 15 7 43 16 61 15 29 15 35 1 64 -14 30 -13 34 5 59
29 39 35 93 13 117 -17 19 -17 21 9 46 29 30 33 62 11 103 -13 25 -12 33 2 70
21 53 12 63 -62 69 -65 5 -68 20 -9 40 21 7 43 17 47 22 14 13 0 43 -37 83
-44 48 -86 50 -132 6 l-31 -30 -6 28 c-9 43 -32 70 -49 56 -7 -6 -39 -21 -71
-33 -59 -22 -107 -60 -107 -84 0 -8 14 -16 31 -20 50 -10 89 -43 89 -76 0 -19
-7 -33 -20 -40 -11 -6 -20 -15 -20 -21 0 -6 8 -5 21 2 15 8 24 8 32 0 8 -8 3
-20 -19 -42 -33 -36 -92 -65 -105 -52 -5 5 -10 41 -12 79 l-2 69 53 3 c30 2
50 7 47 13 -9 14 -77 11 -108 -6 -25 -13 -29 -12 -34 0 -3 9 -3 29 -1 45 5 37
-1 38 -32 5 -48 -51 -120 -18 -120 55 0 21 5 42 10 45 6 4 7 11 4 17 -12 19
-34 -23 -34 -65 0 -51 43 -97 92 -97 19 0 39 5 46 12 9 9 12 7 12 -11 0 -14 7
-25 19 -28 21 -5 31 -41 31 -110 0 -29 5 -45 15 -49 19 -8 78 12 111 38 l26
21 -7 -41 c-4 -23 -4 -55 0 -72 6 -29 8 -30 65 -30 85 0 110 14 110 60 0 21
-7 54 -16 75 l-15 37 29 -20 c16 -12 35 -28 42 -37 19 -23 50 -18 72 11 24 29
38 19 38 -28 0 -40 -9 -56 -46 -79 -38 -23 -44 -39 -14 -39 24 0 44 -34 36
-65 -3 -12 -20 -37 -38 -54 -33 -32 -32 -41 6 -54 9 -3 12 -54 3 -63 -8 -8
-96 56 -113 81 -12 18 -13 28 -5 44 15 28 14 31 -11 31 -27 0 -68 25 -97 60
-11 14 -20 20 -21 13 0 -19 58 -80 83 -87 17 -4 23 -13 25 -37 1 -18 8 -39 14
-46 8 -9 7 -13 -1 -13 -7 0 -9 -4 -6 -10 3 -5 15 -10 27 -10 24 0 88 -61 88
-85 0 -9 -14 -30 -30 -47 -31 -30 -52 -33 -119 -17 -11 3 -17 -10 -22 -45 -16
-105 -103 -193 -239 -243 -67 -25 -88 -28 -200 -28 l-125 0 -85 42 c-47 23
-102 59 -123 79 -47 46 -88 124 -92 174 -3 50 -9 57 -42 53 -43 -7 -83 29 -83
73 0 40 36 84 69 84 11 0 23 5 26 10 9 15 -32 12 -65 -5 -27 -14 -30 -13 -58
13 -18 17 -33 44 -38 66 -6 33 -2 44 25 83 l32 45 -22 24 c-19 21 -20 26 -9
53 13 33 39 46 84 42 l29 -3 -20 34 c-24 40 -20 66 13 74 28 7 29 12 9 38 -18
23 -19 69 -4 98 17 32 74 51 115 38 19 -6 34 -16 34 -21 0 -21 17 -7 25 23 13
41 38 57 64 41 16 -10 22 -8 35 12 22 33 65 33 106 -1 17 -15 32 -25 34 -23 2
2 11 21 21 42 34 73 114 104 185 72 24 -11 43 -28 50 -46 12 -27 30 -40 30
-20 0 15 58 30 95 24 21 -3 44 -16 55 -31 14 -17 20 -20 20 -9 0 29 -49 57
-99 57 -25 0 -52 -4 -60 -9 -10 -7 -20 -2 -34 16 -38 48 -113 65 -172 39z
m413 -175 c16 -53 15 -81 -5 -88 -11 -4 -22 1 -31 15 -16 25 -34 30 -26 7 4
-8 4 -22 0 -30 -4 -12 -11 -11 -41 10 -20 13 -45 27 -56 30 -39 13 -18 35 68
70 32 13 63 24 69 24 6 1 16 -16 22 -38z m181 -18 c17 -21 31 -41 31 -44 0 -4
-25 -19 -55 -34 -30 -14 -55 -31 -55 -36 0 -5 -7 -9 -15 -9 -17 0 -21 35 -5
45 6 3 10 11 10 17 0 6 -8 4 -18 -5 -21 -19 -42 -22 -42 -7 0 21 31 85 47 98
32 24 70 14 102 -25z m-202 -221 c7 -4 16 -19 21 -32 9 -25 9 -25 16 8 10 44
21 40 40 -15 31 -91 17 -113 -73 -113 l-51 0 0 49 c0 48 16 111 28 111 4 0 12
-4 19 -8z"/>
<path d="M8946 2749 c-25 -82 -20 -181 14 -314 34 -134 35 -141 15 -148 -9 -4
-21 5 -32 23 -9 17 -23 30 -30 30 -17 0 -36 -38 -28 -58 4 -10 -2 -23 -17 -34
-23 -18 -23 -19 -4 -33 11 -8 30 -15 43 -15 34 0 28 -12 -22 -42 -48 -29 -58
-56 -25 -65 17 -5 19 -11 14 -43 -4 -24 -2 -40 5 -45 18 -10 56 19 71 54 14
34 30 32 30 -4 0 -28 12 -38 34 -29 11 4 16 19 16 44 0 22 5 42 10 45 15 9 29
-34 61 -190 62 -296 107 -456 165 -581 31 -68 34 -80 24 -105 -17 -39 -32 -50
-79 -53 -33 -3 -51 -13 -91 -50 -27 -25 -53 -46 -58 -46 -5 0 -29 7 -52 15
-40 14 -45 14 -77 -5 -42 -25 -49 -25 -80 0 -30 23 -60 25 -87 5 -29 -22 -109
-19 -157 6 -37 19 -46 19 -113 8 -70 -12 -73 -12 -118 15 -42 24 -54 27 -126
24 -76 -3 -82 -1 -109 25 -22 21 -38 27 -69 26 l-39 -1 34 -10 c19 -5 50 -21
69 -36 31 -23 45 -27 111 -27 58 -1 86 -6 118 -23 45 -23 106 -28 160 -13 43
12 106 -15 93 -40 -12 -22 -28 -199 -36 -408 -7 -189 -12 -209 -65 -237 -68
-35 -96 -4 -46 53 31 36 32 38 36 152 4 126 -15 402 -30 435 -6 14 -8 -8 -4
-64 16 -243 24 -452 18 -468 -4 -9 -19 -32 -35 -50 -36 -42 -36 -85 0 -90 30
-4 75 14 98 39 9 10 20 19 24 19 11 0 -2 -135 -14 -142 -21 -15 -28 -8 -23 22
l6 29 -47 -36 c-82 -63 -153 -80 -200 -47 -37 25 -27 51 51 126 39 38 59 62
42 52 -55 -34 -116 -87 -131 -116 -13 -25 -13 -31 0 -57 18 -34 33 -41 92 -41
48 0 107 20 138 48 14 12 20 14 23 5 6 -16 37 -17 63 -3 18 10 19 23 19 153
-1 137 15 475 27 585 l6 54 50 -7 c38 -5 60 -3 90 11 37 17 41 17 68 1 35 -21
62 -21 101 -1 24 12 37 13 61 5 53 -19 75 -13 128 34 41 37 58 45 89 45 40 0
63 18 75 57 4 11 13 26 21 33 15 12 12 21 -52 160 -29 61 -87 279 -148 554
-15 65 -44 171 -65 235 -92 276 -120 444 -91 550 18 62 5 63 -13 0z m-6 -472
c0 -5 14 -7 32 -5 30 3 32 1 46 -47 22 -80 25 -105 13 -105 -6 0 -11 -16 -11
-36 0 -46 -23 -41 -30 7 -7 50 -36 51 -50 1 -10 -40 -35 -70 -47 -58 -4 4 -2
20 4 36 12 32 8 40 -19 40 -31 0 -20 17 26 39 25 11 47 25 51 31 11 18 -15 40
-46 40 -31 0 -39 14 -14 24 11 4 14 13 9 30 -9 35 5 54 23 31 7 -11 13 -23 13
-28z"/>
<path d="M8418 2663 c6 -142 -3 -189 -64 -341 -50 -124 -66 -188 -119 -459
-36 -187 -85 -346 -149 -489 -19 -44 -38 -96 -41 -115 l-6 -34 17 35 c9 19 23
49 30 66 7 16 28 66 47 110 61 142 96 265 136 479 22 116 50 244 63 285 20 64
27 75 46 75 13 0 27 6 31 14 13 20 41 6 41 -21 0 -32 15 -52 34 -45 10 4 16
18 16 37 0 37 5 37 34 3 28 -32 46 -24 46 23 0 30 4 37 31 46 23 8 29 16 27
32 -2 16 -11 22 -37 24 -34 4 -35 5 -20 62 4 16 -13 18 -43 5 -13 -5 -20 -1
-27 18 -10 27 -37 42 -47 26 -3 -6 -3 -26 0 -45 7 -33 6 -34 -23 -34 l-30 0
13 38 c22 61 29 173 16 239 -21 100 -27 90 -22 -34z m119 -227 c19 5 21 2 20
-28 -2 -30 1 -33 31 -36 40 -4 41 -17 2 -31 -24 -8 -30 -16 -30 -40 0 -38 -17
-40 -30 -5 -13 34 -34 26 -38 -14 -3 -34 -22 -35 -22 -1 0 25 -46 45 -66 28
-20 -17 -30 -3 -13 17 8 10 14 29 14 43 0 23 4 26 35 26 33 1 35 3 38 40 3 39
4 39 20 17 12 -15 24 -20 39 -16z"/>
<path d="M7810 2732 c0 -5 12 -19 26 -33 32 -29 67 -105 83 -177 21 -100 9
-121 -30 -52 -13 22 -27 40 -32 40 -5 0 -7 -3 -5 -7 45 -88 69 -161 49 -149
-6 4 -14 -1 -19 -14 -10 -27 -23 -13 -40 45 -14 46 -71 121 -72 93 0 -9 5 -20
10 -23 6 -4 22 -29 35 -56 24 -46 24 -50 8 -56 -10 -4 -23 -14 -30 -22 -10
-14 -14 -13 -38 9 -15 14 -34 38 -42 53 -15 31 -29 31 -19 0 8 -25 79 -103 93
-103 6 0 14 9 18 19 16 52 77 15 68 -42 -9 -62 -48 -97 -108 -97 -18 0 -31
-13 -56 -57 -40 -70 -95 -131 -169 -188 -71 -55 -105 -69 -208 -85 -103 -17
-225 -4 -322 35 -138 54 -270 188 -321 328 -21 55 -23 57 -59 57 -53 0 -90 31
-90 76 0 54 14 71 70 83 79 17 113 38 108 66 -4 19 2 26 33 40 34 16 102 75
86 75 -4 0 -27 -15 -51 -34 -25 -19 -61 -39 -81 -46 -35 -12 -48 -30 -20 -30
23 0 18 -19 -7 -29 -51 -18 -88 -21 -88 -6 0 8 -9 20 -20 27 -27 17 -25 26 10
82 17 26 25 46 18 44 -17 -6 -78 -107 -78 -131 0 -14 5 -17 20 -12 29 9 26
-25 -5 -71 -29 -42 -31 -64 -11 -103 17 -32 54 -51 100 -51 30 0 33 -3 45 -50
13 -49 67 -141 113 -190 206 -223 585 -260 796 -77 55 47 114 122 148 189 17
33 29 46 39 42 24 -10 58 3 93 36 29 28 32 36 32 91 0 53 3 62 21 66 17 5 19
11 13 37 -6 27 -5 29 9 18 10 -9 17 -10 22 -2 9 15 -23 177 -45 227 -29 67
-100 148 -100 115z"/>
<path d="M8332 2668 c-38 -92 -129 -388 -138 -448 -8 -54 -20 -80 -38 -80 -21
0 -47 -35 -40 -54 3 -9 10 -16 15 -16 5 0 7 -11 3 -24 -4 -16 -1 -25 10 -29
11 -5 14 -14 10 -36 -8 -36 13 -49 55 -35 25 9 26 12 28 94 1 75 -1 87 -20
101 l-21 17 22 89 c12 48 51 178 87 288 35 109 63 200 61 202 -2 2 -17 -29
-34 -69z"/>
<path d="M3115 2658 c-4 -29 -14 -73 -22 -97 -18 -54 -74 -142 -88 -138 -20 7
-27 86 -11 139 16 57 14 72 -8 42 -30 -41 -26 -165 7 -186 30 -19 -92 -99
-183 -121 -64 -15 -64 -15 -21 -16 90 -2 224 89 287 195 33 57 64 150 64 196
0 56 -17 46 -25 -14z"/>
<path d="M4475 2696 c-6 -7 -34 -49 -64 -92 -30 -44 -74 -105 -97 -136 l-42
-57 -49 67 c-28 37 -72 101 -99 142 -26 41 -50 77 -51 79 -2 2 -5 2 -8 -1 -3
-3 7 -27 21 -54 67 -127 99 -178 139 -221 38 -43 44 -46 60 -33 28 23 98 120
145 200 24 41 50 85 58 98 15 23 4 31 -13 8z"/>
<path d="M5686 2500 c-34 -51 -65 -59 -123 -31 -52 25 -71 26 -102 5 -21 -15
-23 -22 -18 -70 9 -84 3 -94 -53 -94 -55 0 -72 -15 -68 -57 3 -23 -1 -29 -22
-31 -39 -6 -45 -18 -21 -48 28 -35 27 -56 -5 -94 -36 -42 -20 -54 17 -12 33
36 37 76 13 110 -14 20 -14 22 4 22 27 0 44 23 40 57 -3 27 -1 28 45 31 63 4
82 30 72 101 -6 46 -5 51 19 66 24 16 28 16 66 -4 72 -37 118 -22 156 50 23
46 11 45 -20 -1z"/>
<path d="M7008 2502 c-6 -22 -38 -32 -38 -12 0 6 -4 10 -9 10 -5 0 -9 -15 -9
-32 0 -18 -3 -45 -7 -60 -11 -41 31 -78 87 -78 48 1 73 15 87 51 10 26 -9 89
-27 89 -6 0 -9 7 -8 16 0 9 -5 19 -11 21 -7 3 -13 -2 -13 -11 0 -23 -15 -20
-32 6 l-15 22 -5 -22z"/>
<path d="M7386 2468 c-15 -22 -16 -22 -30 -5 -16 20 -32 7 -22 -18 3 -8 1 -15
-4 -15 -12 0 -25 -47 -21 -75 4 -33 39 -55 86 -55 55 0 88 25 86 66 -1 16 -2
46 -3 67 -2 37 -14 49 -24 23 -8 -20 -34 -8 -34 15 0 25 -14 24 -34 -3z"/>
<path d="M11647 2372 c-72 -150 -82 -175 -160 -427 -119 -381 -149 -527 -169
-833 -12 -185 1 -466 23 -487 8 -7 9 2 4 31 -3 23 -7 149 -7 280 0 376 32 575
159 984 25 80 51 166 59 192 20 65 96 252 128 317 15 29 26 55 23 57 -2 2 -29
-49 -60 -114z"/>
<path d="M7420 2169 c0 -8 5 -20 11 -26 21 -21 -55 -119 -128 -164 -30 -19
-52 -24 -104 -24 -56 0 -73 5 -115 30 -27 17 -65 52 -84 77 -41 57 -51 55 -19
-3 47 -84 171 -149 256 -133 82 15 179 89 209 160 8 20 25 39 39 44 33 13 33
32 0 24 -18 -4 -32 -1 -45 11 -16 15 -20 15 -20 4z"/>
<path d="M8066 2134 c-3 -9 -6 -29 -6 -45 0 -39 -43 -81 -75 -73 -12 3 -39 -3
-61 -15 -98 -50 -318 -143 -369 -156 -16 -4 -25 -9 -18 -12 17 -6 185 53 321
114 104 47 124 53 138 42 26 -21 36 -59 22 -77 -49 -59 -277 -196 -451 -271
-42 -19 -75 -36 -73 -38 8 -9 153 49 253 101 118 62 229 134 280 182 20 19 40
34 44 34 5 0 9 5 9 10 0 6 -6 10 -14 10 -7 0 -19 14 -26 30 -10 24 -10 33 1
46 11 14 15 10 26 -29 10 -33 22 -51 47 -66 35 -22 76 -28 76 -11 0 6 -11 10
-24 10 -58 0 -108 107 -92 195 7 36 3 47 -8 19z"/>
<path d="M5520 2101 c0 -25 -18 -37 -33 -22 -16 16 -29 13 -26 -6 1 -10 -1
-30 -5 -45 -13 -44 0 -74 40 -93 62 -29 129 -4 140 53 5 25 1 36 -20 57 -22
22 -25 30 -15 41 9 11 9 18 2 25 -8 8 -13 5 -18 -10 -8 -28 -45 -28 -45 -1 0
11 -4 20 -10 20 -5 0 -10 -9 -10 -19z"/>
<path d="M5970 2095 c0 -22 -4 -25 -33 -25 -39 0 -77 -34 -77 -69 0 -42 28
-80 64 -87 83 -15 140 36 116 104 -9 26 -9 36 1 48 6 8 9 18 5 22 -4 4 -14 -1
-21 -12 -20 -26 -44 -14 -38 18 3 15 1 26 -6 26 -6 0 -11 -11 -11 -25z"/>
<path d="M5030 2000 c0 -3 7 -23 15 -45 18 -50 19 -152 1 -183 -14 -26 -63
-62 -85 -62 -9 0 -6 6 7 18 31 27 56 122 32 122 -5 0 -10 -12 -10 -27 0 -43
-35 -93 -65 -93 -35 0 -31 -16 6 -24 53 -10 75 -7 94 14 25 27 31 18 9 -15
-13 -21 -23 -25 -41 -20 -64 16 27 -99 147 -186 62 -45 122 -77 217 -115 121
-49 124 -42 6 15 -128 62 -230 128 -298 192 l-53 50 25 37 c13 20 28 37 31 37
4 0 30 -17 57 -38 92 -70 239 -160 284 -174 63 -19 74 -15 20 6 -52 20 -287
174 -336 220 -29 27 -31 34 -23 56 20 53 7 158 -25 200 -8 11 -14 18 -15 15z"/>
<path d="M4882 1934 c-12 -14 -19 -30 -16 -36 3 -5 -3 -18 -14 -28 -26 -25
-19 -53 19 -71 28 -13 29 -16 15 -34 -12 -16 -18 -18 -33 -9 -10 6 -21 22 -24
35 -6 22 -7 22 -8 3 -1 -12 7 -32 17 -44 23 -28 58 -20 75 18 6 15 17 32 23
37 7 6 15 31 18 56 6 39 3 49 -18 72 -14 15 -26 27 -28 27 -2 0 -13 -12 -26
-26z"/>
<path d="M2267 1829 c-122 -27 -219 -124 -253 -251 -19 -71 -18 -221 1 -286
18 -61 63 -115 116 -143 46 -23 70 -24 109 -4 64 33 74 101 34 222 -26 79 -43
237 -31 286 10 36 55 76 106 91 l46 15 -40 0 c-61 1 -114 -41 -136 -107 -16
-50 -5 -170 26 -267 29 -94 32 -151 8 -185 -37 -55 -77 -55 -137 0 -65 60 -87
120 -87 238 -1 105 11 150 57 223 60 97 143 143 256 144 63 0 73 2 55 11 -33
17 -87 22 -130 13z"/>
<path d="M8715 1815 c-14 -13 -25 -29 -25 -34 0 -5 -14 -7 -32 -5 -27 5 -38 1
-58 -21 -28 -30 -20 -55 21 -65 18 -5 23 -12 21 -31 -9 -76 -10 -74 35 -77 41
-3 42 -3 36 -37 -7 -43 15 -55 53 -30 20 13 25 23 21 43 -14 67 -14 67 22 72
41 6 50 24 22 42 -18 11 -19 14 -5 29 25 27 14 54 -24 57 -28 3 -32 7 -30 30
4 55 -19 66 -57 27z m35 -40 c0 -32 2 -35 30 -35 32 0 36 -9 19 -42 -9 -17 -8
-23 5 -30 22 -12 11 -28 -20 -28 -33 0 -39 -21 -19 -60 18 -35 9 -57 -20 -46
-11 4 -15 15 -13 38 3 33 3 33 -39 30 -48 -3 -55 10 -22 37 27 22 18 61 -14
61 -36 0 -54 16 -41 37 13 22 50 29 69 13 15 -12 19 -7 29 33 10 41 36 35 36
-8z"/>
<path d="M5913 1790 c6 -25 -32 -74 -77 -97 -18 -10 -56 -17 -91 -17 -72 -1
-138 31 -170 81 -25 40 -38 43 -24 6 25 -66 101 -112 183 -113 60 0 53 -12
-12 -20 -43 -6 -45 -7 -19 -14 39 -12 96 2 121 28 11 12 35 32 53 45 18 12 40
35 50 51 9 17 25 30 35 30 29 0 21 17 -13 29 -42 14 -42 14 -36 -9z"/>
<path d="M6923 1790 c-17 -10 -59 -59 -92 -108 -45 -68 -90 -116 -188 -203
-176 -157 -164 -143 -152 -178 6 -16 18 -36 27 -43 14 -11 15 -10 7 7 -22 53
-17 69 32 107 97 76 261 243 292 298 30 54 66 97 106 125 30 21 5 18 -32 -5z"/>
<path d="M9921 1738 c-36 -5 -83 -18 -105 -28 -43 -21 -28 -21 49 -1 22 6 52
11 66 11 l26 0 -32 -34 c-18 -19 -35 -45 -38 -58 -6 -23 -6 -23 14 2 59 75 84
90 147 90 l36 0 -36 -37 c-20 -21 -39 -51 -43 -68 -6 -27 -5 -28 6 -10 26 43
84 95 114 101 17 3 47 2 65 -3 l35 -9 -31 -18 c-34 -20 -71 -73 -59 -84 4 -4
12 2 19 12 45 77 84 86 157 40 l44 -27 74 26 c41 15 76 25 79 23 4 -5 -35
-115 -47 -131 -4 -5 -11 -19 -15 -30 -5 -16 -2 -15 14 5 35 44 84 155 75 170
-7 11 -100 -12 -144 -34 -32 -17 -34 -17 -55 3 -20 19 -136 76 -136 66 0 -2
-17 2 -37 9 -53 18 -166 25 -242 14z"/>
<path d="M1224 1719 c-23 -12 -49 -35 -58 -51 -13 -21 -22 -27 -34 -22 -10 4
-42 10 -73 12 -48 3 -60 0 -84 -21 -21 -18 -29 -33 -29 -60 -1 -32 -4 -37 -24
-37 -37 0 -100 -38 -117 -70 -24 -46 -20 -106 10 -135 13 -14 34 -25 45 -25
16 0 20 -5 16 -17 -16 -53 -16 -73 -3 -105 15 -36 65 -68 106 -68 57 0 153 79
167 137 7 27 11 28 30 8 38 -37 116 -6 130 52 5 18 13 23 37 23 60 0 138 118
121 184 -7 28 -53 51 -85 43 -18 -5 -20 -2 -14 16 24 81 17 120 -25 142 -39
20 -67 19 -116 -6z m115 -22 c38 -32 32 -89 -16 -139 -29 -31 -26 -46 6 -29
28 15 89 17 103 3 28 -28 0 -113 -49 -152 -21 -17 -37 -21 -65 -17 -36 5 -37
4 -32 -23 7 -31 -26 -70 -59 -70 -27 0 -57 18 -57 35 0 31 -21 13 -49 -42 -43
-84 -79 -116 -137 -117 -38 -1 -50 3 -70 27 -40 46 -28 137 17 137 25 0 59 17
59 30 0 16 -48 12 -75 -6 -21 -14 -26 -14 -54 0 -111 58 -33 201 100 183 45
-6 56 1 29 20 -41 29 -18 92 38 106 32 8 90 -11 105 -34 17 -27 21 -25 41 21
33 75 114 108 165 67z"/>
<path d="M9605 1544 c-32 -32 -55 -90 -79 -196 -6 -28 -7 -28 -86 -28 -47 0
-80 -4 -80 -10 0 -6 33 -10 80 -10 78 0 80 -1 80 -24 0 -22 -5 -24 -60 -28
-38 -3 -67 -10 -77 -21 -25 -25 -11 -29 37 -12 23 8 58 15 76 15 31 0 34 -3
34 -28 0 -25 -6 -31 -39 -40 -21 -7 -44 -19 -51 -27 -16 -19 -2 -19 43 0 51
21 54 20 76 -31 30 -68 78 -122 144 -165 32 -21 63 -39 69 -41 22 -8 -33 -352
-67 -421 -17 -35 -19 -51 -5 -42 37 23 81 195 96 374 l7 77 50 -13 c117 -30
326 -9 430 44 49 24 140 107 169 153 14 23 18 24 47 13 37 -14 42 2 5 19 -19
9 -24 17 -20 32 3 12 6 25 6 30 0 8 41 4 88 -10 13 -4 22 -2 22 5 0 6 -20 17
-45 23 -44 12 -46 14 -43 48 3 34 4 35 48 37 25 1 50 2 55 3 20 3 -31 19 -62
19 -30 1 -32 3 -38 49 -8 52 -37 126 -54 136 -15 10 -14 1 4 -35 9 -16 18 -58
22 -93 l6 -64 -69 -7 c-106 -12 -122 -26 -21 -19 48 4 87 2 87 -2 -1 -39 -14
-54 -49 -55 -20 -1 -47 -5 -61 -9 -20 -6 -15 -8 26 -9 60 -1 66 -5 52 -36 -9
-20 -16 -22 -52 -18 -31 3 -37 2 -26 -6 8 -6 23 -11 33 -11 24 0 21 -15 -10
-58 -54 -74 -122 -118 -234 -148 -90 -25 -264 -25 -343 -1 -103 32 -195 108
-242 202 l-25 50 23 6 c23 6 23 6 -4 17 -18 7 -28 19 -28 32 0 15 7 20 28 21
26 1 26 1 3 8 -13 3 -28 17 -33 30 -8 23 -8 24 39 18 l48 -6 -44 16 -44 16 6
52 c3 31 20 81 41 124 37 73 39 83 11 55z"/>
<path d="M7461 1517 c-1 -22 15 -104 34 -184 19 -80 35 -147 35 -150 0 -12
-136 -65 -201 -79 -127 -27 -291 -8 -437 51 -58 24 -64 13 -10 -18 91 -54 171
-71 318 -71 148 0 229 18 318 73 38 23 43 30 39 56 -3 25 -54 219 -86 330 l-9
30 -1 -38z"/>
<path d="M8215 1480 c-10 -11 -26 -20 -36 -20 -12 0 -21 -10 -25 -27 -3 -16
-7 -33 -9 -39 -2 -6 2 -17 8 -23 8 -8 8 -14 -1 -23 -27 -27 2 -57 38 -38 15 8
19 5 23 -19 6 -29 37 -49 57 -36 13 8 13 41 0 65 -8 16 -6 18 22 16 17 0 33 4
35 10 4 12 -18 39 -37 46 -6 2 -6 16 1 41 8 28 7 42 -2 53 -17 20 -53 17 -74
-6z"/>
<path d="M5970 1430 c14 -10 54 -31 90 -46 36 -15 103 -44 150 -64 47 -21 104
-43 128 -50 45 -14 46 -19 18 -80 -10 -23 -16 -25 -61 -22 -28 2 -113 24 -190
49 -182 59 -178 58 -122 28 85 -46 255 -98 337 -102 41 -2 70 -1 63 4 -16 11
8 105 24 95 8 -5 9 -13 3 -22 -15 -23 -12 -93 5 -116 9 -14 30 -23 59 -27 54
-8 76 -1 76 23 0 9 16 32 35 51 41 40 41 43 15 69 -36 36 -112 17 -96 -25 3
-9 0 -15 -8 -15 -8 0 -16 -16 -20 -40 -6 -41 -22 -50 -44 -28 -20 20 -14 82
14 134 l26 49 -24 -22 -24 -23 -50 25 c-27 13 -125 54 -219 91 -93 37 -174 71
-179 75 -6 5 -15 9 -20 9 -6 0 0 -9 14 -20z"/>
<path d="M7120 1418 c-15 -16 -20 -33 -18 -58 3 -29 9 -38 40 -53 32 -16 44
-17 72 -7 37 12 46 26 46 70 0 61 -97 94 -140 48z"/>
<path d="M10795 1364 c-43 -23 -93 -81 -123 -144 -23 -47 -27 -68 -27 -150 0
-52 3 -124 7 -159 9 -74 -4 -144 -33 -184 -30 -41 -16 -45 15 -4 14 19 31 60
38 91 10 53 13 57 37 54 24 -3 26 -6 23 -48 -4 -62 -49 -150 -89 -175 -18 -11
-32 -23 -33 -27 -1 -18 29 -6 68 27 53 46 77 110 97 265 23 173 43 221 123
297 54 51 65 67 65 94 0 66 -93 101 -168 63z m112 -19 c39 -27 36 -53 -12
-103 l-43 -47 -26 27 c-15 14 -40 31 -56 38 -37 15 -37 20 -2 52 54 50 99 61
139 33z m-149 -221 c16 -11 21 -21 17 -32 -4 -9 -12 -43 -18 -74 -9 -50 -13
-56 -28 -47 -10 5 -27 9 -38 9 -19 0 -21 6 -21 78 0 43 3 82 7 86 10 9 52 -1
81 -20z"/>
<path d="M9833 1344 c-27 -12 -14 -53 27 -85 22 -18 40 -40 40 -50 0 -77 -144
-92 -200 -21 -13 15 -20 19 -20 10 0 -21 52 -67 88 -78 18 -5 48 -6 67 -3 21
3 41 1 50 -7 9 -7 25 -10 41 -6 14 4 40 1 58 -5 19 -7 48 -9 69 -5 45 8 97 51
97 79 0 21 -1 20 -17 -3 -21 -31 -30 -38 -69 -49 -42 -12 -78 -4 -109 25 -34
32 -32 61 7 82 80 44 106 89 60 107 -23 9 -174 16 -189 9z"/>
<path d="M11597 1330 c-41 -13 -56 -28 -63 -66 -5 -30 -10 -34 -36 -34 -31 0
-68 -16 -80 -34 -25 -37 19 -98 79 -111 21 -4 33 -13 37 -29 7 -28 45 -46 99
-46 50 0 84 21 102 63 12 30 15 31 70 28 42 -2 62 2 76 15 44 40 7 109 -65
121 -25 4 -35 10 -32 19 7 19 -31 62 -62 68 -64 13 -99 14 -125 6z m104 -24
c20 -4 44 -14 53 -24 14 -16 14 -21 1 -38 -24 -32 -19 -45 12 -33 51 19 113
-13 113 -57 0 -29 -26 -37 -101 -32 -52 3 -54 2 -57 -24 -5 -39 -46 -68 -96
-68 -52 1 -76 19 -76 58 0 29 -1 30 -37 25 -61 -8 -104 44 -67 81 15 16 48 20
109 16 29 -2 29 -2 12 18 -26 28 -8 68 35 81 18 5 40 8 48 6 8 -2 31 -6 51 -9z"/>
<path d="M12033 1290 c-23 -9 -27 -18 -24 -56 1 -11 -5 -27 -13 -34 -20 -16
-20 -54 0 -74 15 -15 34 -20 63 -16 7 1 25 -13 40 -30 33 -39 89 -50 126 -26
14 9 25 25 25 35 0 13 10 21 34 25 38 7 52 20 61 57 13 54 -86 122 -134 92
-11 -7 -26 -5 -51 8 -45 23 -99 31 -127 19z m79 -20 c20 -6 46 -22 57 -36 19
-24 22 -25 36 -10 17 17 27 19 60 17 23 -2 65 -45 65 -66 0 -21 -41 -45 -77
-45 -31 0 -33 -2 -27 -25 5 -20 1 -26 -19 -34 -39 -15 -80 0 -97 36 -12 25
-20 31 -37 26 -40 -9 -73 5 -73 32 0 25 26 46 48 38 17 -7 15 24 -3 31 -8 3
-15 12 -15 20 0 12 9 18 40 25 3 0 22 -4 42 -9z"/>
<path d="M7517 1030 c-3 -52 -9 -201 -12 -330 -5 -195 -4 -233 7 -222 19 18
34 404 22 542 l-10 105 -7 -95z"/>
<path d="M5922 1080 c23 -70 187 -200 252 -200 27 0 18 -15 -47 -77 -103 -99
-188 -131 -367 -140 -145 -7 -256 12 -355 62 -61 30 -155 102 -155 118 0 3 19
16 43 30 63 37 169 138 196 188 24 41 21 40 -50 -32 -41 -41 -103 -95 -139
-120 -36 -24 -66 -52 -68 -62 -5 -25 94 -119 159 -150 195 -92 490 -86 664 13
71 41 155 133 155 170 0 11 -27 27 -79 49 -79 32 -145 84 -198 156 l-22 30 11
-35z"/>
<path d="M1282 1075 c-17 -14 -33 -39 -37 -54 -6 -29 -7 -29 -59 -24 -38 4
-61 1 -84 -11 -34 -18 -51 -59 -35 -85 8 -12 46 -38 71 -47 1 -1 -18 -21 -43
-46 -35 -35 -45 -53 -45 -77 0 -39 14 -67 40 -81 25 -13 91 14 133 55 l28 27
23 -25 c29 -32 67 -26 101 15 20 24 25 41 25 84 0 39 4 54 13 54 18 0 47 32
47 53 0 8 -12 25 -26 36 -24 19 -25 23 -14 55 27 81 -68 130 -138 71z m110
-12 c26 -23 22 -47 -14 -89 l-32 -37 30 7 c63 14 86 -44 26 -66 -25 -10 -27
-14 -27 -68 0 -65 -21 -100 -61 -100 -25 0 -49 33 -40 55 12 32 -12 21 -45
-20 -18 -24 -46 -50 -61 -59 -34 -21 -84 -21 -92 0 -21 54 8 105 79 139 30 15
53 31 50 35 -2 4 -22 10 -42 13 -77 13 -107 61 -58 93 29 19 89 21 110 4 18
-15 45 -6 45 15 0 20 29 77 44 87 20 13 69 8 88 -9z"/>
<path d="M6883 1078 c-9 -27 -8 -597 2 -627 3 -11 18 -24 33 -29 l27 -9 -35
-15 c-39 -17 -93 -74 -87 -92 4 -13 265 -16 310 -3 35 10 67 61 67 110 0 42 0
42 40 22 23 -12 30 -22 30 -45 0 -43 19 -78 49 -88 38 -14 213 -15 260 -2 31
8 41 16 41 31 0 29 -47 68 -98 82 -38 10 -41 13 -26 24 30 22 9 25 -45 7 -58
-18 -156 -16 -203 6 l-26 12 -1 154 -2 153 36 7 c48 9 46 28 -2 20 -21 -3 -49
-6 -63 -6 -23 -1 -24 -2 -7 -14 15 -11 17 -32 17 -158 l0 -146 -37 -18 c-49
-24 -219 -32 -245 -12 -15 12 -17 49 -20 335 -2 178 -4 323 -5 323 -1 0 -5
-10 -10 -22z m293 -685 c-11 -62 -28 -70 -181 -78 -75 -4 -139 -4 -142 -1 -9
8 27 45 59 62 31 16 79 18 126 5 20 -6 32 -6 32 0 0 5 -6 9 -12 10 -11 1 93
35 116 38 4 0 5 -16 2 -36z m184 10 c2 -2 -2 -8 -10 -13 -28 -17 -4 -19 49 -4
34 10 68 14 96 9 47 -7 95 -38 95 -61 0 -11 -25 -14 -133 -14 -148 0 -160 5
-173 68 l-6 31 38 -6 c22 -3 41 -8 44 -10z"/>
<path d="M1564 1032 c-48 -32 -44 -111 17 -348 64 -245 68 -269 30 -175 -35
85 -57 113 -85 109 -37 -5 -47 -44 -44 -170 l3 -117 -25 23 c-30 28 -63 46
-84 46 -12 0 -16 -11 -16 -45 0 -47 -9 -56 -30 -30 -16 20 -32 19 -72 -4 -18
-10 -55 -21 -81 -25 -26 -3 -60 -13 -75 -21 l-27 -16 30 7 c17 3 55 10 85 14
30 4 69 14 86 21 27 11 36 10 57 -4 31 -20 47 -6 47 40 0 22 5 33 14 33 22 0
70 -44 91 -84 27 -50 38 -45 28 12 -13 75 -10 279 4 293 31 31 76 -55 113
-211 34 -143 41 -149 36 -30 -4 83 -16 147 -56 305 -52 203 -69 318 -51 345
15 22 60 1 96 -46 69 -90 99 -246 91 -474 -4 -131 -3 -143 5 -80 16 122 6 363
-19 440 -27 83 -72 154 -114 180 -37 22 -39 23 -54 12z"/>
<path d="M10410 1004 c0 -5 13 -25 29 -44 30 -37 61 -92 61 -109 0 -6 -35 -31
-77 -56 -43 -25 -75 -45 -71 -45 14 0 102 42 130 61 33 24 31 25 47 -20 13
-40 13 -40 -59 -81 -30 -17 -44 -28 -30 -25 14 4 40 16 58 26 45 26 49 24 54
-17 4 -30 0 -38 -19 -47 -13 -5 -23 -14 -23 -19 0 -11 7 -10 31 2 18 10 19 8
14 -22 -14 -80 -47 -144 -99 -191 -27 -24 -13 -34 19 -13 30 20 70 18 70 -4 0
-7 -25 -33 -56 -57 -31 -23 -76 -67 -100 -97 -52 -66 -85 -73 -83 -18 2 36
-10 42 -26 12 -14 -25 -50 -27 -50 -2 0 10 5 23 12 30 9 9 8 12 -5 12 -10 0
-20 -7 -23 -15 -8 -19 -34 -20 -34 -1 0 36 102 114 173 131 15 4 27 14 27 22
0 11 -5 13 -17 7 -10 -4 -39 -9 -64 -12 -50 -4 -87 10 -127 48 -34 32 -38 17
-5 -19 15 -18 45 -38 67 -45 l38 -13 -36 -22 c-74 -46 -100 -112 -51 -131 14
-5 25 -14 25 -20 0 -5 15 -10 33 -10 20 0 39 -8 50 -20 23 -27 41 -25 71 7 13
16 46 52 72 81 26 28 63 62 83 74 39 24 51 36 51 55 0 13 -24 39 -42 45 -8 3
-6 13 9 34 65 91 56 288 -20 416 -26 45 -107 129 -107 112z"/>
<path d="M11697 949 c-27 -16 -47 -64 -47 -114 0 -44 0 -45 -34 -45 -40 0 -96
-36 -114 -74 -27 -56 16 -124 85 -133 40 -5 41 -7 45 -47 3 -24 0 -43 -6 -45
-25 -9 -113 -110 -134 -153 -36 -77 -27 -103 10 -29 34 66 83 124 131 155 22
13 35 15 56 8 18 -6 38 -6 61 2 34 11 36 10 76 -34 42 -45 42 -45 109 -45 64
0 68 1 101 37 30 34 34 44 34 95 0 40 -6 68 -20 91 -26 42 -25 44 9 65 69 41
91 131 46 186 -53 62 -148 65 -235 6 -45 -30 -50 -32 -50 -14 0 36 -29 77 -61
88 -38 13 -39 13 -62 0z m64 -26 c35 -21 44 -48 35 -103 -3 -22 -4 -40 -1 -40
3 0 20 16 37 36 49 55 100 77 171 72 50 -4 64 -9 84 -32 49 -58 9 -152 -78
-177 -45 -14 -48 -20 -16 -34 30 -14 57 -71 57 -124 0 -36 -6 -49 -34 -77 -28
-28 -41 -34 -78 -34 -70 0 -119 44 -128 115 l-5 40 -22 -37 c-20 -34 -27 -38
-61 -38 -62 0 -98 62 -65 110 l16 23 -34 -8 c-71 -16 -110 0 -123 50 -15 59
37 105 118 105 l44 0 -1 66 c-2 58 1 68 22 85 28 23 26 23 62 2z"/>
<path d="M1979 897 c-8 -17 -7 -38 5 -81 14 -55 14 -59 -5 -79 -24 -26 -17
-53 21 -89 16 -15 25 -30 20 -33 -20 -12 -10 -61 18 -87 51 -49 126 -72 237
-72 87 -1 105 2 140 22 28 16 33 21 15 17 -136 -31 -199 -30 -295 6 -69 26
-111 60 -102 82 4 10 15 17 26 17 30 0 35 17 9 31 -68 35 -91 89 -38 89 31 0
40 13 16 27 -22 13 -46 69 -46 108 0 57 25 42 63 -38 69 -146 200 -248 316
-246 87 1 110 17 26 18 -126 2 -246 85 -300 207 -50 112 -102 154 -126 101z"/>
<path d="M6325 708 c-29 -61 -31 -134 -10 -263 15 -92 19 -48 6 75 -8 87 1
161 26 199 l17 26 13 -45 c11 -39 11 -58 -4 -135 -22 -122 -28 -195 -14 -195
6 0 11 8 11 17 0 18 51 126 56 120 2 -2 -1 -19 -6 -38 -12 -42 -13 -139 -1
-139 4 0 11 33 14 73 3 39 15 98 28 130 34 88 15 88 -49 0 -18 -25 -19 -25
-14 62 5 93 -10 165 -35 165 -8 0 -25 -24 -38 -52z"/>
<path d="M3276 702 c-29 -47 71 -257 146 -307 29 -19 38 -32 36 -48 -4 -30
-35 -33 -58 -5 l-19 23 6 -37 c4 -29 2 -38 -15 -47 -27 -15 -49 -5 -60 27
l-10 27 -12 -32 c-16 -44 -40 -50 -67 -18 -20 23 -23 37 -23 118 0 113 -31
196 -73 197 -5 0 -1 -8 9 -17 33 -33 44 -80 44 -183 0 -113 6 -132 50 -150 25
-10 34 -10 55 4 19 12 30 14 44 6 24 -12 81 6 81 26 0 8 10 14 25 14 24 0 45
25 45 54 0 16 -6 23 -67 78 -40 36 -93 138 -113 217 -9 38 -19 60 -24 53z"/>
<path d="M8004 645 c-55 -59 -104 -246 -85 -325 8 -31 9 -28 10 30 2 112 55
270 100 298 18 10 21 10 21 -5 0 -10 -23 -87 -50 -171 -55 -170 -53 -162 -41
-162 20 0 111 279 111 343 0 38 -25 35 -66 -8z"/>
<path d="M11393 648 c-73 -52 -127 -172 -139 -309 -8 -95 9 -105 19 -12 9 77
33 168 60 222 22 44 82 99 94 87 12 -12 -15 -160 -46 -256 -32 -94 -39 -136
-22 -125 25 15 91 277 91 363 0 59 -9 64 -57 30z"/>
<path d="M10092 588 c-11 -35 -26 -109 -32 -163 l-12 -99 26 -19 c44 -32 30
-75 -20 -63 -20 5 -23 11 -18 31 8 33 -13 33 -28 0 -6 -14 -20 -25 -30 -25
-15 0 -17 5 -12 25 7 26 -4 33 -23 14 -16 -16 -43 -3 -43 20 0 23 14 33 44 35
20 1 21 6 21 118 l0 116 -39 5 c-22 3 -52 15 -67 26 -35 26 -39 26 -38 -1 2
-32 -20 -156 -33 -195 -10 -27 -9 -35 7 -52 14 -17 15 -23 5 -36 -18 -22 -27
-19 -39 16 -10 29 -31 32 -31 4 0 -17 -23 -25 -41 -14 -11 7 -12 12 -2 28 14
23 4 34 -17 20 -24 -14 -60 -10 -67 7 -7 19 13 34 44 34 12 0 25 5 28 10 4 6
-10 10 -34 10 -32 0 -44 -5 -57 -25 -24 -37 -6 -75 35 -75 17 0 34 -8 42 -20
11 -15 28 -20 84 -22 67 -3 69 -2 79 24 7 20 6 34 -3 51 -11 20 -11 35 -1 80
l13 56 21 -32 c12 -18 36 -41 53 -52 39 -24 42 -48 8 -63 -28 -13 -48 -53 -39
-77 4 -8 18 -18 33 -22 14 -3 31 -13 38 -22 10 -15 36 -19 132 -22 27 -1 51
24 51 52 0 10 -11 31 -25 47 -32 39 -32 42 9 42 45 0 96 11 96 20 0 4 -25 8
-55 9 -31 0 -60 3 -65 6 -13 8 -4 100 17 183 21 83 10 91 -15 10z"/>
<path d="M5547 552 l6 -77 -45 -12 c-50 -14 -98 -56 -98 -87 0 -18 3 -17 26
12 14 18 39 39 54 47 36 19 110 19 154 1 31 -13 66 -49 66 -68 0 -5 -57 -8
-127 -9 -71 0 -137 -4 -148 -9 -12 -5 40 -9 138 -9 174 -1 182 2 153 57 -19
37 -77 72 -120 72 l-33 0 -7 80 c-9 103 -26 105 -19 2z"/>
<path d="M5898 624 c-5 -4 -8 -26 -8 -49 0 -76 -9 -103 -39 -108 -14 -3 -27
-4 -29 -2 -1 1 -6 38 -11 81 l-8 79 -2 -87 c-1 -79 -3 -90 -26 -112 -28 -28
-33 -71 -9 -80 9 -3 78 -6 155 -6 133 0 139 1 139 20 0 46 -75 110 -129 110
-18 0 -20 8 -23 81 -2 44 -6 77 -10 73z m59 -185 c33 -12 73 -48 73 -64 0 -13
-246 -33 -257 -21 -3 3 -2 17 1 31 13 53 110 82 183 54z"/>
<path d="M9390 601 c-52 -27 -90 -96 -103 -186 -11 -76 -6 -104 21 -113 6 -2
23 21 38 50 15 29 48 85 74 123 58 87 66 108 45 129 -21 21 -33 20 -75 -3z
m60 -37 c-5 -13 -28 -48 -50 -77 -21 -29 -53 -80 -71 -113 l-31 -59 6 73 c9
111 40 172 100 197 41 18 57 10 46 -21z"/>
<path d="M2856 527 c-20 -40 -29 -78 -35 -154 -10 -114 -21 -143 -55 -143 -28
0 -40 24 -26 51 6 11 7 19 1 19 -5 0 -14 -13 -19 -30 -8 -21 -16 -28 -26 -24
-21 8 -29 39 -16 64 7 14 7 20 0 20 -6 0 -15 -11 -21 -24 -19 -40 7 -77 63
-91 55 -14 87 -4 103 33 7 17 15 20 30 14 11 -4 58 -7 105 -6 87 0 148 20 179
58 18 22 6 20 -48 -6 -49 -24 -154 -35 -217 -23 l-37 6 6 82 c3 48 14 106 27
140 28 75 20 84 -14 14z"/>
<path d="M8745 448 c9 -31 68 -86 100 -94 37 -9 75 10 75 38 0 21 3 20 33 -12
66 -73 87 -130 51 -144 -55 -21 -127 5 -189 69 -44 44 -45 44 -45 19 0 -24 -3
-26 -31 -20 -27 5 -30 4 -19 -9 15 -18 57 -20 63 -2 3 8 16 1 38 -20 66 -62
169 -83 209 -43 23 23 24 29 9 66 -13 36 -97 134 -113 134 -7 0 -21 9 -31 20
-10 11 -23 20 -28 20 -6 0 0 -11 12 -24 14 -14 21 -33 19 -47 -7 -50 -81 -30
-119 31 -27 44 -44 52 -34 18z"/>
</g>
</svg>
