<?xml version="1.0" standalone="no"?>
<!DOCTYPE svg PUBLIC "-//W3C//DTD SVG 20010904//EN"
 "http://www.w3.org/TR/2001/REC-SVG-20010904/DTD/svg10.dtd">
<svg version="1.0" xmlns="http://www.w3.org/2000/svg"
 width="700.000000pt" height="908.000000pt" viewBox="0 0 700.000000 908.000000"
 preserveAspectRatio="xMidYMid meet">
<metadata>
Created by potrace 1.16, written by Peter Selinger 2001-2019
</metadata>
<g transform="translate(0.000000,908.000000) scale(0.100000,-0.100000)"
fill="#000000" stroke="none">
<path d="M1070 8243 c0 -21 4 -146 10 -278 6 -132 17 -422 25 -645 8 -223 20
-523 26 -668 l12 -263 -24 -17 c-13 -9 -51 -27 -84 -40 -51 -20 -73 -23 -150
-19 -93 4 -179 30 -221 65 -19 16 -20 23 -13 182 14 307 29 604 39 780 5 96
14 290 20 430 5 140 13 305 16 365 5 78 3 107 -4 100 -7 -6 -15 -134 -22 -350
-6 -187 -15 -405 -21 -485 -5 -80 -14 -244 -19 -365 -5 -121 -12 -278 -15
-350 -3 -71 -8 -171 -11 -221 -6 -89 -6 -91 20 -107 l26 -17 0 -312 c0 -250 3
-315 14 -327 7 -9 28 -43 46 -76 18 -33 39 -69 46 -80 17 -27 7 -41 -36 -50
-40 -8 -178 -48 -260 -75 -62 -20 -163 -51 -230 -70 -25 -7 -40 -15 -34 -17 7
-2 74 15 150 37 77 23 169 50 205 59 37 10 72 21 78 25 12 8 116 36 131 36 6
0 10 -543 10 -1458 l0 -1459 -38 -30 c-21 -17 -87 -74 -147 -128 -61 -53 -174
-154 -253 -223 -78 -69 -142 -129 -142 -134 0 -20 -5 -24 274 226 61 55 149
134 195 175 46 42 89 80 97 84 12 7 14 -18 14 -150 0 -142 -2 -160 -20 -183
-11 -14 -72 -95 -137 -180 -64 -85 -126 -167 -137 -182 -12 -14 -31 -39 -42
-55 -12 -15 -74 -95 -138 -176 -64 -81 -116 -150 -116 -152 0 -3 6 -5 13 -5 6
1 37 33 67 72 30 40 81 106 113 147 93 120 157 204 297 386 l130 169 0 74 0
73 126 -2 127 -2 82 84 c45 46 87 94 93 106 7 13 12 71 12 148 l0 126 -30 10
c-17 6 -30 15 -30 20 0 5 12 33 27 62 21 40 29 71 33 132 l5 80 868 3 c536 1
867 -1 865 -7 -3 -9 -554 -572 -1153 -1179 -143 -145 -331 -336 -418 -425 -87
-89 -237 -242 -334 -339 -97 -98 -174 -180 -172 -183 5 -4 271 260 531 527 73
75 270 276 438 446 168 169 487 494 710 721 223 228 414 422 424 432 15 15 16
19 5 24 -8 3 -408 6 -889 8 l-875 2 0 55 0 55 1028 3 c565 1 1027 -1 1027 -4
0 -4 -21 -32 -47 -63 -27 -31 -57 -67 -68 -80 -11 -13 -25 -29 -32 -36 -7 -7
-44 -50 -84 -96 -40 -46 -80 -93 -90 -104 -38 -41 -66 -74 -134 -155 -38 -46
-81 -95 -95 -109 -14 -14 -45 -51 -70 -81 -25 -30 -66 -77 -91 -105 -26 -27
-73 -81 -105 -120 -33 -38 -66 -77 -74 -86 -8 -9 -36 -40 -62 -70 -44 -51
-143 -166 -357 -415 -52 -60 -101 -116 -108 -124 -15 -17 -35 -39 -113 -130
-30 -35 -89 -103 -130 -150 -41 -48 -112 -129 -157 -181 -45 -52 -95 -110
-112 -129 -34 -39 -39 -52 -16 -44 8 4 15 9 15 14 0 7 45 60 159 190 32 36
102 117 156 180 55 63 104 120 110 126 5 6 46 54 90 105 44 51 114 132 155
179 42 47 113 130 160 185 46 55 101 118 121 140 36 39 63 70 307 355 63 74
134 155 156 180 23 25 64 72 91 104 28 33 55 64 60 70 6 6 42 47 80 92 39 44
125 144 193 221 67 78 122 144 122 147 0 3 -468 6 -1039 6 -938 0 -1039 2
-1045 16 -3 9 -6 125 -6 259 l0 244 -30 21 c-39 27 -38 45 5 116 33 54 35 64
35 141 0 46 2 83 4 83 2 0 20 -7 40 -15 20 -9 82 -27 139 -40 226 -55 484 -19
787 110 74 31 189 75 197 75 2 0 3 -13 3 -29 0 -46 37 -152 72 -207 18 -29 53
-84 78 -124 25 -39 54 -86 66 -104 11 -18 36 -61 54 -97 19 -35 42 -75 51 -89
12 -18 19 -58 24 -142 7 -104 10 -119 30 -138 46 -43 144 -19 285 71 117 75
149 100 201 160 56 65 65 113 29 149 -26 26 -67 26 -172 -1 -148 -37 -169 -41
-183 -36 -17 7 -53 126 -100 323 -19 82 -42 175 -51 207 -8 33 -14 60 -12 61
2 1 29 15 61 30 31 15 57 32 57 38 0 5 -13 51 -29 101 -17 51 -50 156 -75 233
-61 188 -101 272 -188 390 -27 36 -48 69 -48 74 0 4 -3 10 -8 12 -19 8 -145
192 -134 196 14 4 17 32 3 32 -5 0 -11 -5 -13 -11 -2 -7 -17 0 -36 16 -18 15
-34 26 -37 24 -2 -2 22 -36 53 -76 32 -39 89 -115 127 -168 121 -167 128 -178
103 -174 -32 4 -56 -2 -61 -16 -5 -11 3 -13 42 -9 47 4 47 4 69 -37 12 -22 22
-45 22 -50 0 -6 11 -26 25 -46 25 -38 24 -63 -3 -41 -11 9 -16 10 -19 2 -2 -7
-12 -10 -21 -8 -10 3 -22 -4 -30 -16 -10 -16 -10 -20 1 -20 7 0 18 5 24 11 14
14 83 3 83 -13 0 -6 15 -55 34 -107 37 -104 86 -253 86 -261 0 -3 -39 -5 -88
-6 -92 -1 -185 -19 -305 -58 -90 -30 -200 -72 -252 -96 -53 -24 -132 -53 -235
-84 -245 -75 -452 -72 -697 10 -60 21 -63 26 -63 141 0 76 -2 84 -24 98 -39
26 -39 44 -3 104 26 44 33 65 29 94 -5 45 5 90 18 82 6 -3 10 -15 10 -27 0
-15 5 -19 20 -15 13 3 24 -1 30 -14 6 -10 17 -19 25 -19 9 0 12 -6 8 -16 -4
-11 -13 -14 -30 -9 -18 4 -24 2 -21 -7 6 -17 50 -11 65 9 7 9 16 14 19 10 4
-4 1 -13 -6 -22 -7 -8 -11 -15 -9 -16 2 0 22 -2 43 -4 22 -3 43 -10 47 -17 8
-13 12 -14 43 -17 8 0 21 -7 28 -15 19 -19 55 -29 62 -17 7 11 126 13 178 1
28 -6 38 -4 42 7 9 23 7 24 -13 14 -10 -6 -21 -7 -25 -4 -17 17 0 22 64 19 52
-3 70 -1 70 9 0 17 48 29 64 16 7 -6 18 -6 25 -1 8 5 21 4 31 -2 20 -13 50 -4
50 13 0 8 -4 8 -15 -1 -19 -16 -29 -8 -20 19 8 25 64 39 76 20 6 -10 9 -8 9 8
0 22 29 38 61 32 8 -1 22 1 32 6 11 4 23 3 30 -4 16 -16 32 -14 19 2 -9 10 -7
19 4 35 16 24 59 30 67 10 3 -7 6 -3 6 8 1 15 9 23 29 27 15 3 31 2 36 -3 12
-12 36 -2 68 27 18 17 33 23 46 19 11 -4 23 -2 27 4 10 16 65 12 65 -5 0 -8
-4 -15 -10 -15 -16 0 -12 -17 6 -24 14 -5 16 -1 11 34 -4 29 -1 40 8 40 7 0
15 9 18 20 7 26 4 25 -41 -5 -43 -29 -67 -32 -81 -7 -10 16 -10 16 -11 -1 0
-20 -40 -39 -56 -26 -14 11 -54 0 -54 -16 0 -12 -29 -25 -58 -25 -7 0 -17 10
-22 23 -9 20 -10 20 -9 2 2 -41 -1 -45 -39 -45 -37 0 -82 -22 -82 -41 0 -5 9
-4 20 3 10 7 22 9 26 5 15 -14 -14 -28 -65 -32 -49 -4 -51 -3 -51 21 0 14 -4
23 -9 20 -5 -3 -7 -14 -4 -24 7 -27 -20 -44 -73 -47 -46 -3 -68 -19 -60 -41 3
-7 -13 -10 -41 -10 -25 1 -49 -5 -55 -11 -6 -7 -29 -12 -53 -11 -29 2 -50 -3
-63 -15 -10 -9 -31 -17 -45 -17 -21 0 -27 5 -27 22 l0 22 -16 -22 c-16 -23
-64 -31 -64 -11 0 8 -17 9 -53 5 -41 -5 -57 -4 -66 7 -6 8 -27 18 -46 21 -21
4 -36 14 -40 26 -4 12 -22 24 -47 32 -44 13 -53 26 -44 61 8 32 55 48 92 30
18 -8 22 -9 9 -1 -10 7 -55 48 -99 90 l-79 77 -4 103 c-1 57 -5 141 -7 188
l-4 85 34 25 c19 14 46 33 60 44 l25 18 -7 147 -6 146 31 63 c17 34 36 62 41
62 5 0 26 -11 46 -25 29 -20 49 -25 96 -25 52 0 158 -31 158 -47 0 -2 -7 -17
-15 -33 -9 -17 -11 -31 -5 -35 14 -8 90 -1 90 9 0 4 -11 6 -24 4 -32 -6 -51 6
-43 26 8 21 28 20 80 -3 23 -10 54 -23 70 -29 37 -16 34 -32 -6 -32 -38 0 -67
-25 -67 -59 0 -12 7 -24 15 -27 19 -8 112 22 147 47 l27 19 47 -30 c26 -16 76
-39 112 -51 47 -16 74 -32 100 -61 48 -53 70 -64 89 -45 10 10 11 17 4 21 -6
4 -11 2 -11 -3 0 -24 -29 -8 -74 39 -26 28 -55 50 -64 50 -22 0 -141 56 -167
79 -19 16 -42 27 -197 92 -63 26 -66 34 -48 101 6 21 24 48 43 63 20 16 25 23
12 19 -36 -12 -55 -36 -72 -91 -17 -54 -31 -64 -53 -39 -6 8 -26 16 -43 18
-31 3 -32 4 -29 47 3 52 21 88 62 130 42 41 22 40 -21 -1 -31 -30 -54 -79 -61
-133 -3 -16 -12 -21 -50 -23 -72 -5 -128 31 -183 118 -34 54 -36 79 -15 150
18 61 113 261 162 340 117 191 217 322 261 344 80 37 121 13 154 -90 16 -51
16 -58 -1 -132 -10 -42 -33 -104 -51 -137 -37 -65 -179 -235 -197 -235 -6 0
-31 12 -56 26 -57 34 -44 11 16 -27 l45 -28 78 81 c65 68 80 80 92 69 21 -17
31 3 16 30 -10 20 -9 21 15 15 15 -4 26 -2 26 4 0 5 -7 10 -15 10 -8 0 -15 7
-15 15 0 8 6 15 13 15 9 0 19 22 26 55 14 63 26 67 74 31 80 -59 239 -116 326
-116 41 0 43 1 25 14 -14 10 -23 11 -32 4 -9 -8 -20 -7 -40 2 -15 8 -32 13
-39 11 -24 -4 -140 43 -208 85 l-70 42 -1 76 c-1 82 -22 152 -55 182 -21 19
-20 19 43 35 46 11 68 13 82 5 14 -8 20 -8 23 2 8 22 20 13 15 -13 -2 -14 -1
-41 2 -61 6 -30 10 -34 22 -23 21 17 30 3 10 -16 -20 -20 -20 -21 2 -43 9 -10
29 -31 43 -48 32 -39 129 -90 129 -69 0 8 7 15 15 15 10 0 15 -7 13 -17 -3
-19 30 -23 90 -9 21 5 32 4 32 -3 0 -6 7 -11 16 -11 13 0 14 3 4 15 -6 8 -9
19 -5 25 3 5 1 10 -4 10 -6 0 -11 7 -11 15 0 14 30 21 88 17 13 0 22 5 22 14
0 8 5 14 10 14 6 0 10 5 10 11 0 7 -7 8 -17 4 -10 -3 -42 -11 -70 -17 -79 -16
-125 5 -234 109 -98 94 -155 176 -165 242 -4 23 -10 39 -15 34 -10 -10 8 -91
27 -120 13 -20 12 -23 -5 -33 -34 -18 -109 -12 -131 10 -19 19 -22 20 -52 4
-21 -11 -47 -15 -80 -12 -47 5 -64 -4 -32 -16 24 -9 59 -7 109 6 38 10 47 10
61 -3 13 -14 10 -17 -38 -27 -29 -6 -75 -14 -103 -17 -42 -6 -57 -14 -95 -54
-25 -26 -67 -80 -95 -120 l-50 -74 -5 174 c-3 98 -9 168 -13 161 -5 -7 -7 -96
-6 -197 3 -178 2 -185 -19 -208 -12 -13 -22 -28 -22 -34 0 -11 -58 -112 -70
-123 -4 -3 -16 -32 -29 -65 -62 -161 -81 -219 -81 -245 0 -15 16 -56 34 -89
l35 -61 -32 -55 c-18 -30 -39 -55 -47 -55 -8 0 -59 15 -112 32 l-98 33 0 77 0
77 96 -3 c52 -1 98 2 100 6 3 4 -40 8 -95 8 l-100 0 -6 43 c-3 23 -5 96 -3
162 l3 120 160 5 160 6 -162 2 -163 2 0 48 c0 75 18 82 232 84 l173 2 -180 6
-180 5 -3 38 -3 37 140 0 c78 0 141 4 141 8 0 5 -67 75 -150 156 l-150 147 0
53 c0 47 3 55 23 59 26 7 193 174 183 184 -4 4 -45 -32 -92 -81 -47 -48 -91
-85 -98 -83 -13 5 -26 110 -26 204 l0 43 75 0 c43 0 75 4 75 10 0 6 -32 10
-75 10 -73 0 -75 1 -75 25 0 24 2 25 70 25 44 0 70 4 70 11 0 7 -21 10 -65 6
-78 -5 -87 3 -83 69 l3 47 122 -1 c67 0 125 3 128 9 4 5 -45 9 -124 9 l-129 0
-7 73 c-4 39 -5 94 -3 122 3 43 6 50 28 56 l25 7 -26 1 c-27 1 -39 21 -39 69
l0 22 480 0 c377 0 480 -3 480 -12 0 -7 -15 -32 -34 -55 -18 -24 -49 -73 -67
-110 -25 -51 -44 -75 -78 -98 -37 -25 -49 -42 -70 -95 -22 -57 -26 -81 -27
-200 -1 -74 -4 -142 -8 -151 -5 -11 -16 -14 -36 -11 l-30 4 0 183 c0 158 -2
184 -16 189 -26 10 -154 7 -154 -4 0 -6 32 -10 75 -10 l74 0 3 -181 c3 -178 3
-182 -19 -190 -35 -13 -37 -29 -3 -29 17 0 40 -5 52 -11 11 -6 22 -8 25 -6 3
3 -8 13 -24 21 l-28 16 40 -2 c36 -3 39 -5 40 -33 3 -85 9 -91 14 -15 5 74 11
93 38 135 39 61 78 88 162 115 51 16 66 18 73 8 12 -19 10 -29 -9 -50 -9 -10
-13 -21 -10 -24 8 -9 46 36 47 56 1 8 6 4 11 -10 l10 -25 25 30 c13 17 24 35
24 41 0 17 71 50 147 69 87 20 144 11 218 -36 52 -33 78 -37 73 -12 -5 25
-112 80 -170 86 -32 4 -64 1 -91 -8 -23 -8 -50 -15 -60 -15 -10 0 -39 -10 -65
-23 -26 -13 -74 -29 -107 -36 -76 -16 -189 -55 -221 -75 -13 -9 -34 -32 -47
-51 -38 -59 -48 -46 -41 53 6 92 27 189 49 232 21 40 56 67 113 85 29 10 55
22 59 28 6 10 -13 7 -49 -8 -12 -5 -18 -3 -18 6 0 12 13 35 78 141 17 28 87
58 134 58 13 0 30 5 38 11 11 8 1 9 -38 4 -29 -3 -59 -8 -67 -11 -27 -11 -16
12 24 49 116 107 347 164 492 121 30 -8 70 -20 89 -26 34 -10 71 -27 158 -75
90 -50 183 -172 181 -239 0 -16 -3 -23 -6 -16 -2 6 -8 10 -13 7 -4 -3 -13 2
-20 10 -11 13 -10 14 5 9 16 -7 16 -5 -1 14 -22 26 -25 27 -18 7 9 -23 -7 -18
-60 20 -27 19 -53 35 -58 35 -4 0 -27 9 -51 19 -110 51 -318 54 -459 7 -42
-14 -83 -23 -91 -20 -8 3 -41 -16 -77 -45 -35 -28 -67 -51 -72 -51 -4 0 -8 -6
-8 -12 0 -7 -15 -29 -33 -48 -31 -33 -107 -142 -103 -148 2 -1 62 7 134 18 72
11 156 20 187 21 44 2 67 9 108 35 56 36 54 48 -2 13 -26 -15 -73 -25 -195
-39 -89 -10 -169 -21 -178 -25 -24 -9 -23 -2 7 44 69 110 212 214 331 242 27
6 75 18 106 26 61 17 210 14 258 -5 14 -5 50 -18 80 -28 118 -39 195 -106 296
-256 60 -88 81 -155 66 -206 -16 -51 -68 -122 -90 -122 -10 0 -28 -9 -40 -20
-12 -11 -33 -25 -47 -30 -27 -10 -75 -4 -75 10 0 5 -16 18 -35 30 -29 18 -40
20 -72 11 -51 -14 -123 -90 -123 -130 0 -21 29 2 45 35 19 40 41 54 88 54 51
0 81 -28 73 -68 -4 -18 -15 -34 -27 -37 -10 -4 -20 -12 -20 -18 -1 -7 -4 1 -8
17 -3 16 -15 35 -27 42 -18 13 -24 12 -47 -7 -16 -12 -27 -30 -27 -45 0 -22
-2 -23 -21 -14 -26 15 -35 7 -13 -11 10 -8 41 -14 79 -14 56 0 64 3 93 32 18
17 32 36 32 42 0 6 43 31 95 57 132 64 195 139 195 232 0 34 -25 88 -79 172
-34 52 -51 90 -56 124 -8 60 -43 140 -78 182 -15 18 -27 35 -27 38 0 12 336 6
348 -6 17 -17 15 -58 -5 -81 -16 -17 -18 -46 -21 -229 l-3 -210 27 -29 28 -29
-23 -24 c-21 -23 -23 -34 -25 -143 -1 -114 0 -120 31 -183 45 -93 52 -119 43
-176 -11 -65 -40 -174 -52 -198 -6 -11 -16 -53 -22 -95 l-12 -76 -27 40 c-27
42 -94 97 -157 131 -19 10 -42 24 -50 30 -17 14 -283 134 -295 134 -5 0 -17 8
-27 17 -14 12 -21 14 -30 5 -8 -8 -1 -15 27 -26 21 -9 41 -16 46 -16 5 0 17
-4 27 -9 9 -6 82 -42 161 -81 268 -132 334 -203 287 -313 -23 -55 -48 -71
-106 -64 -71 9 -190 76 -137 77 6 1 -5 10 -25 21 -46 24 -218 65 -310 75 -78
7 -74 -1 -56 120 9 61 9 88 1 106 -10 20 -12 16 -12 -31 -1 -36 -7 -61 -18
-73 -9 -11 -11 -18 -5 -18 15 0 15 -25 0 -53 -6 -12 -13 -37 -14 -55 -2 -19
-10 -45 -19 -58 -8 -13 -15 -32 -15 -44 0 -11 -4 -20 -10 -20 -5 0 -10 -9 -10
-20 0 -11 -11 -27 -26 -36 -15 -10 -23 -23 -19 -32 5 -13 -15 -67 -46 -124 -5
-10 -9 -24 -9 -32 0 -36 -23 -66 -51 -66 -15 0 -31 -5 -35 -11 -5 -8 1 -10 19
-5 14 3 28 2 31 -2 3 -5 -3 -35 -13 -68 l-19 -59 -92 -3 c-58 -2 -97 1 -106 8
-7 7 -18 9 -24 5 -7 -4 -18 2 -26 14 -8 12 -20 21 -26 21 -6 0 -18 7 -27 15
-9 8 -49 43 -89 76 -40 34 -70 64 -67 67 3 3 23 -3 45 -13 22 -10 42 -16 45
-13 3 3 -33 22 -80 43 -74 33 -88 43 -116 86 -29 46 -33 49 -73 47 -37 -1 -38
-2 -8 -5 26 -3 39 -13 60 -47 25 -39 95 -116 106 -116 3 0 16 -10 30 -22 59
-55 122 -106 171 -139 53 -37 53 -37 182 -41 113 -3 135 -7 187 -31 32 -15 61
-25 64 -22 6 6 -97 55 -116 55 -7 0 -15 6 -18 14 -5 13 45 177 65 212 24 43
129 272 141 307 6 21 19 41 27 44 18 7 157 -12 256 -34 55 -12 80 -24 111 -53
49 -45 108 -76 161 -85 50 -9 272 -116 314 -151 17 -14 31 -21 31 -16 0 18
-30 42 -91 73 -33 16 -59 33 -59 37 0 4 9 15 19 24 11 9 23 33 27 52 3 20 11
36 16 36 5 0 30 -18 56 -40 25 -22 47 -39 49 -37 8 8 -10 37 -25 42 -31 10
-165 143 -157 155 4 6 9 32 10 58 2 26 10 65 18 87 8 23 25 89 38 149 26 121
22 149 -29 255 -25 51 -27 66 -27 173 0 109 1 118 24 142 l25 26 -28 29 -28
29 4 209 c3 183 5 212 21 227 22 23 22 53 -3 101 -18 36 -20 62 -22 285 l-2
245 -6 -260 -5 -260 -175 0 -175 0 -55 34 c-131 82 -275 131 -387 131 -73 0
-208 -32 -277 -66 -30 -14 -71 -43 -91 -63 l-38 -37 -414 -3 c-227 -1 -449 1
-492 4 l-78 7 -7 172 c-9 243 -18 346 -27 346 -5 0 -9 -17 -9 -37z m1196
-1598 c84 -83 113 -105 135 -105 32 0 47 -15 23 -24 -29 -11 -65 -6 -70 9 -6
14 -8 14 -18 1 -10 -14 -16 -13 -51 3 -47 22 -90 67 -116 124 -17 38 -26 97
-15 97 3 0 53 -47 112 -105z m-969 -17 c62 -62 113 -116 113 -120 0 -5 -54 -8
-120 -8 l-120 0 -1 38 c0 20 -4 74 -7 120 -6 69 -5 82 8 82 8 0 65 -51 127
-112z m-539 -318 c72 -27 201 -27 279 0 32 11 61 20 65 20 4 0 8 -65 8 -145 0
-139 -1 -145 -22 -156 -84 -45 -243 -52 -334 -15 l-59 24 -3 146 c-1 80 1 146
5 146 5 0 32 -9 61 -20z m2571 -114 c30 -31 33 -39 27 -71 -7 -36 -47 -85 -71
-85 -6 0 -21 9 -33 20 -12 11 -29 20 -38 20 -12 0 -7 10 18 38 20 22 38 55 42
75 4 21 10 37 14 37 5 0 23 -15 41 -34z m-2514 -211 c73 -14 195 -7 235 15 10
5 28 10 39 10 20 0 21 -5 21 -144 l0 -145 -57 -21 c-81 -31 -213 -38 -281 -15
-77 25 -82 37 -82 193 l0 134 28 -7 c15 -3 59 -13 97 -20z m430 -284 c81 -29
101 -46 68 -58 -10 -4 -70 -35 -134 -70 l-116 -63 -113 0 c-92 0 -117 3 -132
17 -10 9 -18 20 -18 24 0 5 -16 34 -36 65 -20 30 -34 57 -32 59 2 3 26 -3 53
-11 90 -28 285 2 334 51 21 21 36 19 126 -14z m105 -200 l0 -139 -52 -33 c-29
-18 -90 -57 -136 -86 l-83 -54 -122 3 -122 3 0 145 0 145 120 5 c132 5 127 4
286 99 46 28 90 51 97 51 9 0 12 -34 12 -139z m-100 -578 l0 -338 -30 -50
c-16 -27 -30 -55 -30 -62 0 -7 14 -28 30 -46 l30 -35 0 -191 0 -191 -30 -57
c-37 -70 -37 -82 0 -118 l30 -29 0 -400 0 -401 -25 -53 c-32 -70 -32 -100 0
-112 25 -9 25 -10 25 -134 l0 -125 -68 -71 c-38 -38 -71 -70 -75 -70 -4 0 -7
48 -7 107 0 107 0 107 -32 140 l-32 33 27 57 26 58 7 410 c6 437 5 450 -41
487 -31 25 -31 31 4 114 27 66 29 78 34 270 3 110 4 209 1 220 -3 10 -21 30
-39 44 -19 14 -35 32 -35 42 0 9 19 49 42 88 l41 72 -6 293 -6 293 67 46 c37
25 73 45 80 46 9 0 12 -74 12 -337z m-182 232 c4 -3 6 -139 5 -301 -3 -320 1
-293 -60 -398 -20 -33 -15 -51 22 -85 l35 -31 0 -213 0 -212 -31 -78 -32 -78
31 -32 31 -32 2 -430 c1 -418 1 -431 -20 -475 -26 -56 -26 -88 -2 -114 16 -18
20 -40 23 -146 l3 -125 -120 0 -120 0 -3 1384 -2 1384 115 -5 c64 -3 119 -9
123 -13z m1722 -788 c0 -45 112 -481 153 -597 l23 -65 59 2 c32 1 63 7 69 13
5 5 24 10 41 10 16 0 54 9 83 20 64 25 94 25 115 2 13 -14 14 -26 7 -57 -24
-107 -388 -352 -474 -319 -20 8 -21 24 -1 24 8 0 15 4 15 8 0 5 16 17 35 28
19 10 35 21 35 25 0 3 11 11 25 17 14 6 25 17 25 23 0 6 -17 -2 -37 -18 -54
-41 -121 -83 -133 -83 -5 0 -10 19 -10 43 0 31 5 45 19 52 29 16 221 146 221
151 0 12 -29 -3 -129 -71 -61 -41 -112 -71 -114 -67 -1 4 -4 34 -6 67 -3 66
-14 92 -104 240 -57 95 -84 139 -161 258 -37 56 -86 184 -86 222 0 21 10 27
98 53 110 35 130 39 190 41 38 1 42 -1 42 -22z"/>
<path d="M3770 8013 c-1 -196 -4 -253 -15 -273 -19 -33 -19 -71 0 -96 11 -15
14 -60 15 -227 0 -197 -1 -209 -21 -237 l-22 -28 22 -30 c18 -26 21 -44 21
-132 0 -93 -3 -111 -34 -189 -19 -47 -37 -99 -40 -116 -6 -35 10 -123 48 -251
18 -59 26 -109 24 -140 -3 -45 -5 -49 -35 -55 -18 -3 -44 -14 -58 -23 -26 -17
-34 -9 -13 12 6 6 9 14 6 17 -3 3 -16 -10 -28 -30 -12 -20 -20 -38 -17 -41 3
-3 23 6 44 20 41 27 111 47 100 28 -5 -6 0 -8 13 -5 37 10 20 -21 -36 -65 -51
-41 -66 -62 -44 -62 6 0 13 7 16 15 3 8 28 30 55 50 51 37 63 66 32 84 -13 7
-16 20 -14 59 2 35 -8 84 -34 168 -56 177 -56 209 -6 320 40 89 41 94 41 201
0 97 -2 112 -20 128 -11 10 -20 23 -20 30 0 7 9 20 20 30 19 17 20 31 20 239
0 209 -1 223 -20 239 -22 19 -25 39 -10 68 11 19 38 19 1530 19 836 0 1520 3
1520 8 0 4 -620 6 -1377 4 -758 -2 -1438 0 -1510 3 l-133 7 0 249 c0 159 -4
249 -10 249 -6 0 -10 -89 -10 -247z"/>
<path d="M4155 7368 c-3 -13 -4 -268 -3 -568 l3 -545 568 -3 567 -2 -2 567 -3
568 -562 3 -563 2 -5 -22z m1120 -553 l0 -550 -550 0 -550 0 -3 553 -2 552
552 -2 553 -3 0 -550z"/>
<path d="M4312 7252 c-10 -7 -12 -100 -10 -433 l3 -424 430 0 430 0 3 424 c2
333 0 426 -10 433 -7 4 -197 8 -423 8 -225 0 -416 -4 -423 -8z m836 -429 l-3
-418 -409 -3 c-321 -2 -411 0 -418 10 -4 7 -8 196 -8 421 l0 407 420 0 420 0
-2 -417z"/>
<path d="M4466 7183 c-8 -8 263 -283 279 -283 18 0 278 268 271 279 -8 12
-538 16 -550 4z m524 -19 c0 -9 -236 -244 -245 -244 -11 0 -245 231 -245 242
0 4 110 8 245 8 135 0 245 -2 245 -6z"/>
<path d="M4390 6819 l0 -282 22 19 c55 47 258 260 258 270 0 12 -253 266 -270
272 -6 2 -10 -97 -10 -279z m258 4 c-3 -13 -227 -243 -237 -243 -4 0 -5 261
-1 490 0 3 54 -49 120 -115 66 -66 119 -125 118 -132z"/>
<path d="M4943 6957 c-73 -73 -133 -137 -133 -141 0 -13 266 -276 279 -276 8
0 11 81 11 275 0 213 -3 275 -12 275 -7 0 -73 -60 -145 -133z m143 -39 c-3
-79 -5 -187 -5 -240 -1 -54 -5 -98 -9 -98 -14 0 -232 222 -232 235 0 14 227
245 241 245 7 0 8 -52 5 -142z"/>
<path d="M4604 6638 c-82 -81 -134 -140 -130 -147 9 -14 546 -16 546 -2 0 8
-171 183 -254 260 l-26 25 -136 -136z m271 -18 l120 -120 -248 0 c-136 0 -247
2 -247 5 0 14 227 235 240 235 8 0 69 -54 135 -120z"/>
<path d="M5445 7378 c-3 -7 -4 -263 -3 -568 l3 -555 565 0 565 0 0 565 0 565
-563 3 c-445 2 -564 0 -567 -10z m598 -7 l517 -1 0 -555 0 -555 -547 2 -548 3
-3 549 c-1 374 1 552 8 556 6 4 21 5 33 4 12 -1 255 -3 540 -3z"/>
<path d="M5993 7262 l-413 -2 0 -429 c0 -382 2 -430 16 -435 20 -8 792 -8 822
0 l22 6 0 428 c0 399 -1 428 -17 431 -10 2 -204 3 -430 1z m435 -412 c1 -217
0 -405 -3 -418 l-5 -22 -413 2 -412 3 -3 405 c-1 223 0 411 3 418 3 10 92 12
417 10 l413 -3 3 -395z"/>
<path d="M5750 7190 c-12 -8 11 -36 122 -145 76 -74 143 -135 149 -135 12 0
269 258 269 270 0 17 -515 26 -540 10z m510 -18 c0 -4 -54 -61 -120 -127
l-119 -119 -22 20 c-30 25 -229 227 -229 231 0 2 110 3 245 3 135 0 245 -3
245 -8z"/>
<path d="M5668 7094 c-10 -9 -10 -532 0 -538 5 -3 71 58 147 135 l137 140 -23
27 c-55 62 -239 242 -247 242 -5 0 -11 -3 -14 -6z m144 -140 c62 -63 112 -118
111 -122 -5 -18 -228 -242 -241 -242 -12 0 -14 11 -9 68 4 37 7 145 7 240 0
100 4 172 9 172 5 0 61 -52 123 -116z"/>
<path d="M6222 6967 c-72 -73 -132 -137 -132 -143 0 -11 254 -267 270 -272 6
-2 10 96 10 272 0 152 -3 276 -8 276 -4 0 -67 -60 -140 -133z m137 -134 c-2
-131 -5 -242 -7 -247 -5 -10 -242 224 -242 239 0 12 231 245 243 245 5 0 8
-105 6 -237z"/>
<path d="M5877 6643 c-75 -76 -133 -141 -129 -145 9 -9 539 -14 549 -5 5 6
-219 236 -268 274 -14 11 -35 -6 -152 -124z m271 -14 c67 -66 122 -122 122
-125 0 -6 -261 -5 -388 3 l-114 6 119 119 c65 65 122 118 128 118 5 0 65 -54
133 -121z"/>
<path d="M2320 7213 c-60 -7 -63 -9 -45 -44 16 -29 17 -30 40 -15 45 29 108
17 148 -27 25 -29 21 -42 -8 -23 -13 9 -33 16 -44 16 -28 0 -69 -20 -75 -36
-7 -18 3 -18 23 0 34 30 65 29 100 -4 28 -25 32 -35 28 -60 -5 -24 -3 -28 10
-23 12 5 15 17 10 64 -5 54 -24 96 -63 136 -14 15 -74 22 -124 16z"/>
<path d="M2387 6823 c-4 -7 -3 -14 3 -18 5 -3 10 -16 10 -28 1 -58 42 -131 83
-146 27 -11 87 -5 87 9 0 11 87 70 104 70 9 0 16 5 16 10 0 6 -9 10 -20 10
-11 0 -20 -5 -20 -11 0 -8 -18 -10 -62 -4 -35 4 -75 8 -89 9 -16 0 -25 6 -22
13 3 7 -4 10 -19 7 -13 -2 -18 -2 -11 1 7 4 4 14 -10 29 -12 12 -27 31 -33 41
-7 12 -13 15 -17 8z"/>
<path d="M1786 6067 c11 -29 193 -137 231 -137 18 0 16 -21 -3 -48 -17 -25
-12 -72 9 -73 6 0 28 -2 47 -4 19 -2 43 1 53 7 10 5 26 6 35 2 9 -4 21 -6 25
-5 4 0 21 -6 38 -14 28 -15 32 -15 59 5 18 12 30 31 30 43 0 31 13 47 40 52
33 6 37 15 7 15 -15 0 -36 6 -47 12 -15 10 -22 10 -32 0 -9 -9 -8 -12 6 -12
16 0 18 -6 13 -37 -8 -47 -37 -77 -66 -68 -25 8 -27 22 -4 47 14 16 14 18 1
18 -9 0 -18 -8 -21 -19 -3 -15 -18 -19 -82 -25 -48 -4 -82 -3 -88 3 -17 17 3
64 44 103 38 37 33 54 -7 23 -10 -8 -28 -15 -40 -15 -26 0 -142 60 -207 107
-26 19 -45 28 -41 20z"/>
<path d="M3712 5915 c8 -8 3098 -11 3098 -2 0 4 -698 7 -1552 7 -853 0 -1549
-2 -1546 -5z"/>
<path d="M4646 5399 c-139 -34 -305 -146 -361 -244 -23 -40 -39 -99 -50 -185
-3 -25 -13 -76 -22 -113 -8 -37 -13 -71 -9 -74 9 -9 33 54 45 119 16 86 50
157 85 179 17 10 26 19 19 19 -7 0 -28 -14 -47 -30 -23 -20 -37 -27 -41 -19
-10 15 42 115 71 138 13 11 24 24 24 30 0 6 26 27 58 48 31 20 73 47 92 59 95
61 293 88 430 59 99 -20 163 -53 227 -114 66 -63 149 -174 133 -179 -11 -4
-100 53 -175 113 -22 18 -50 35 -62 39 -13 4 -23 11 -23 15 0 5 -28 21 -62 37
-55 25 -75 29 -153 29 -71 0 -100 -5 -137 -22 -68 -31 -60 -46 10 -17 121 50
256 24 390 -75 162 -119 200 -143 275 -177 31 -15 57 -31 57 -35 0 -12 -134
-11 -185 1 -44 10 -53 7 -38 -12 6 -7 27 -62 48 -123 20 -60 50 -136 67 -168
17 -31 29 -59 26 -62 -5 -6 -125 55 -162 81 -30 23 -34 38 -6 29 11 -3 20 -3
20 0 0 13 -45 44 -63 45 -18 0 -77 27 -87 39 -3 3 -31 26 -63 50 -41 32 -71
66 -104 122 -26 43 -49 76 -51 75 -2 -2 14 -36 34 -76 38 -72 57 -166 31 -157
-7 2 -12 12 -12 23 -1 22 -35 84 -47 84 -13 0 -9 -16 12 -43 39 -49 18 -50
-53 -2 -73 49 -121 94 -142 135 -10 19 -20 29 -22 23 -6 -17 37 -127 60 -155
18 -22 18 -22 1 9 -25 45 -12 51 33 16 21 -17 62 -45 91 -63 47 -29 52 -35 47
-59 l-5 -26 80 0 c60 0 79 3 75 13 -2 6 0 12 6 12 6 0 13 -9 16 -20 3 -11 9
-20 13 -20 4 0 22 -14 40 -30 44 -41 52 -28 10 15 -24 25 -29 35 -18 35 9 0
42 -27 74 -59 31 -33 68 -62 81 -66 17 -4 23 -13 24 -33 1 -17 3 -20 6 -9 5
20 21 22 48 4 11 -7 32 -18 47 -24 l26 -12 -20 47 c-12 26 -27 57 -35 68 -7
12 -18 34 -23 50 -12 38 -65 184 -75 207 -7 17 -2 19 81 17 95 -2 171 7 180
21 3 5 -7 9 -23 9 -15 0 -37 7 -47 15 -11 8 -27 15 -36 15 -21 0 -49 33 -80
95 -31 63 -159 191 -225 227 -60 32 -191 58 -284 57 -36 0 -102 -9 -145 -20z"/>
<path d="M4264 4679 c6 -43 13 -59 36 -76 21 -18 28 -31 28 -59 0 -27 8 -44
30 -66 25 -25 39 -31 94 -35 l64 -5 -4 43 c-5 51 -25 79 -59 79 -31 0 -66 -36
-58 -61 9 -27 -10 -24 -34 7 -29 37 -28 98 1 118 33 24 92 20 122 -6 14 -13
37 -52 50 -88 l25 -65 1 44 c0 76 -73 169 -136 172 -18 0 -18 1 1 10 15 6 11
7 -15 3 -19 -3 -43 -13 -52 -21 -37 -32 -94 -12 -84 29 2 10 -1 21 -6 25 -8 4
-9 -11 -4 -48z"/>
<path d="M4935 4688 c4 -9 -4 -20 -21 -28 -14 -8 -36 -27 -49 -42 -24 -29 -54
-133 -41 -145 9 -9 26 16 26 39 0 34 34 96 61 112 54 32 128 16 154 -35 20
-38 7 -79 -35 -109 -36 -25 -41 -25 -39 3 4 43 -1 55 -29 66 -31 13 -81 -1
-83 -23 -1 -6 -3 -27 -4 -47 -2 -37 -2 -37 44 -42 25 -3 60 -3 78 0 42 7 93
63 93 102 0 15 9 36 20 46 28 26 25 38 -18 58 -20 9 -49 24 -65 33 -15 8 -43
18 -62 21 -28 5 -34 3 -30 -9z"/>
<path d="M4203 4584 c3 -10 16 -47 28 -82 11 -35 18 -66 15 -70 -11 -10 -60
24 -81 57 -20 30 -35 40 -35 22 0 -4 11 -25 25 -45 13 -20 19 -36 13 -36 -17
0 -77 40 -87 58 -5 9 -12 14 -16 10 -13 -12 31 -51 90 -79 63 -31 85 -35 85
-19 0 6 7 10 15 10 16 0 21 -37 7 -56 -11 -15 -107 -54 -136 -54 -30 0 -86 45
-86 70 0 10 -4 22 -10 25 -5 3 -10 15 -10 26 0 10 5 19 10 19 6 0 10 13 10 28
0 15 5 33 12 40 6 6 8 15 4 19 -12 12 -44 -38 -51 -79 -4 -21 -4 -51 0 -68 8
-37 79 -100 113 -100 14 0 22 -5 20 -12 -3 -8 -33 -15 -79 -19 l-74 -5 72 -2
c39 -1 74 -5 76 -9 3 -5 8 -23 12 -40 5 -27 3 -33 -10 -33 -11 0 -15 -7 -13
-22 2 -18 -2 -23 -19 -22 -26 1 -31 -23 -8 -32 8 -4 15 -11 15 -16 0 -6 -6 -6
-14 1 -11 9 -16 9 -22 0 -4 -7 0 -17 9 -24 10 -7 17 -20 17 -29 0 -9 5 -16 12
-16 6 0 8 -3 5 -6 -3 -4 -2 -15 3 -24 8 -15 4 -19 -21 -24 -17 -3 -50 -1 -74
5 -78 20 -70 4 8 -19 63 -18 77 -26 77 -42 0 -11 7 -20 15 -20 8 0 15 -4 15
-10 0 -5 7 -10 16 -10 8 0 13 4 9 9 -14 24 15 17 40 -10 25 -25 95 -56 117
-51 12 3 21 -110 15 -197 -17 -247 -170 -746 -308 -1007 -64 -122 -126 -209
-192 -270 l-60 -55 29 -30 c48 -50 155 -134 216 -168 l57 -32 -4 -77 c-5 -106
-7 -240 -4 -282 3 -49 16 173 18 305 0 66 -3 105 -8 96 -17 -27 -113 27 -216
121 -16 16 -33 28 -37 28 -5 0 -8 5 -8 10 0 6 7 10 15 10 20 0 208 -97 233
-121 12 -10 24 -19 27 -19 6 0 91 -52 147 -91 25 -17 58 -25 58 -15 0 3 -11
17 -25 32 -25 27 -33 54 -17 54 5 0 17 -9 28 -21 10 -11 32 -27 49 -35 33 -15
116 -62 123 -68 2 -3 -12 -40 -31 -83 -83 -190 -110 -259 -90 -238 9 10 19 32
99 218 21 48 43 87 49 87 5 0 46 -14 89 -31 95 -37 253 -69 339 -69 188 0 451
111 620 260 44 39 47 45 41 76 -6 31 -2 38 37 77 49 47 96 130 128 225 29 86
28 126 -5 155 -39 32 -116 152 -168 261 -25 52 -46 97 -46 100 0 3 -11 29 -24
58 -70 157 -106 239 -106 243 0 2 -31 70 -70 150 -38 80 -70 150 -70 155 0 52
153 -65 221 -170 18 -27 36 -50 41 -50 5 0 5 6 1 13 -4 6 -23 35 -40 63 -18
28 -60 72 -93 99 -36 29 -60 56 -60 67 0 15 -5 18 -19 13 -11 -3 -23 0 -27 6
-5 8 -3 9 5 5 12 -8 51 19 51 34 0 4 -10 10 -21 13 l-21 6 21 30 c20 28 21 32
6 60 -18 35 -18 41 -5 41 6 0 19 -14 30 -32 14 -24 16 -35 8 -45 -8 -10 -7
-13 5 -13 21 0 32 19 18 33 -19 19 -12 26 37 33 28 4 54 15 65 27 17 20 18 20
31 1 8 -10 10 -20 5 -22 -20 -8 -7 -23 18 -20 22 3 36 -8 80 -62 58 -69 170
-236 191 -284 7 -16 15 -26 18 -23 13 12 -108 214 -170 285 -102 116 -109 127
-93 130 54 11 -34 60 -120 68 -24 2 -31 0 -26 -12 3 -7 0 -14 -6 -14 -6 0 -11
5 -11 10 0 16 -32 11 -67 -10 -41 -24 -77 -81 -93 -145 -7 -27 -16 -54 -20
-58 -11 -13 -81 20 -117 55 -37 36 -58 30 -24 -6 23 -25 21 -46 -4 -46 -7 0
-15 -6 -18 -14 -3 -8 -44 -27 -91 -42 -80 -26 -86 -27 -104 -11 -20 18 -72 23
-72 7 0 -5 10 -9 22 -7 30 3 52 -43 44 -89 -4 -19 -12 -34 -18 -34 -21 0 -78
24 -78 33 0 5 -13 6 -30 2 -37 -8 -70 2 -70 21 0 10 13 14 45 14 25 0 45 5 45
10 0 6 -22 10 -50 10 l-50 0 0 -34 c0 -30 -4 -35 -30 -41 -41 -9 -50 0 -50 50
0 34 5 47 22 59 20 15 21 16 4 16 -11 0 -28 -7 -38 -16 -12 -12 -21 -14 -30
-6 -7 5 -32 16 -55 22 -23 7 -56 25 -73 39 -29 25 -30 30 -37 128 -7 112 12
252 34 260 10 4 9 9 -4 19 -14 10 -16 15 -5 25 6 7 12 21 12 30 0 10 5 19 11
21 5 2 -8 24 -30 48 -73 80 -86 119 -84 244 1 67 -2 104 -8 95 -5 -8 -9 -29
-9 -47 0 -44 -16 -33 -23 17 -2 21 -15 49 -27 61 -20 20 -22 21 -17 4z m81
-270 c11 -29 6 -40 -21 -51 -27 -12 -27 -12 7 -7 31 5 39 0 74 -36 l39 -42
-16 -51 c-21 -65 -37 -178 -37 -256 0 -51 -3 -61 -17 -61 -25 0 -78 34 -113
72 -69 78 -66 259 7 338 l23 25 -35 10 c-20 6 -37 14 -38 18 -2 8 90 55 109
56 7 1 15 -6 18 -15z m949 -724 c21 -41 57 -115 79 -165 22 -49 48 -108 58
-130 84 -186 150 -343 150 -359 0 -22 -78 -166 -116 -213 -15 -18 -23 -33 -18
-33 11 0 85 111 115 173 26 52 39 60 39 21 0 -14 4 -23 10 -19 6 4 22 -17 36
-47 27 -55 63 -112 89 -139 8 -9 15 -21 15 -27 0 -7 5 -12 10 -12 6 0 19 -9
29 -19 18 -18 19 -23 6 -73 -33 -124 -127 -298 -161 -298 -7 0 -18 17 -23 38
-23 85 -33 130 -43 182 -5 30 -18 73 -29 96 -10 22 -19 46 -19 52 0 7 -4 12
-9 12 -9 0 -3 -35 28 -155 11 -44 21 -89 21 -101 0 -11 3 -24 7 -28 4 -3 8
-14 9 -24 1 -9 5 -26 8 -37 3 -11 12 -43 19 -71 8 -29 12 -56 8 -61 -16 -22
-123 -103 -186 -141 -110 -65 -229 -108 -352 -128 -104 -16 -115 -16 -222 0
-124 19 -268 67 -376 125 -86 46 -205 123 -205 133 0 3 12 21 26 38 32 37 26
50 -8 18 -39 -36 -40 -62 -7 -104 28 -36 36 -54 22 -54 -3 0 -45 26 -92 58
-47 33 -117 77 -156 99 -66 37 -85 46 -159 73 l-29 11 36 25 c21 14 47 40 60
58 43 63 102 155 136 210 19 32 41 56 50 56 10 0 57 -13 106 -30 101 -34 95
-33 95 -21 0 8 -35 19 -168 54 -29 8 -42 16 -39 27 3 15 11 16 75 7 36 -6 36
-6 -7 8 -24 8 -46 16 -48 18 -2 3 18 60 45 128 64 162 95 248 120 334 34 116
80 316 87 380 4 33 9 63 12 67 2 4 18 -1 36 -12 18 -10 52 -26 77 -36 25 -9
55 -28 66 -42 21 -24 23 -24 75 -12 64 16 104 15 160 -5 56 -20 64 -19 77 9 8
17 24 27 64 36 72 17 167 63 203 99 46 45 64 37 108 -49z"/>
<path d="M4660 3452 c0 -19 50 -117 98 -191 51 -78 82 -159 82 -212 0 -36 -2
-40 -22 -37 -20 3 -23 8 -20 43 4 45 -15 96 -62 169 -18 28 -50 86 -71 130
-22 43 -41 74 -43 68 -4 -14 51 -131 94 -199 50 -79 65 -122 62 -178 -2 -47
-1 -50 24 -53 32 -4 58 29 58 73 -1 41 -38 129 -91 212 -24 37 -58 95 -76 128
-18 33 -33 54 -33 47z"/>
<path d="M5450 4426 c0 -35 -33 -71 -78 -84 -54 -16 -72 -15 -72 5 0 12 -13 5
-44 -26 l-45 -44 23 -33 c24 -36 91 -94 110 -95 6 0 25 -2 42 -4 69 -10 154
97 154 192 0 48 -9 55 -27 18 -7 -15 -7 -25 -1 -25 13 0 1 -55 -22 -100 -19
-37 -65 -70 -97 -70 -37 0 -143 79 -143 107 0 24 37 55 57 49 10 -3 34 -1 53
4 22 6 36 6 40 0 8 -13 48 25 61 57 12 32 12 73 -1 73 -5 0 -10 -11 -10 -24z"/>
</g>
</svg>
