<?xml version="1.0" standalone="no"?>
<!DOCTYPE svg PUBLIC "-//W3C//DTD SVG 20010904//EN"
 "http://www.w3.org/TR/2001/REC-SVG-20010904/DTD/svg10.dtd">
<svg version="1.0" xmlns="http://www.w3.org/2000/svg"
 width="715.000000pt" height="600.000000pt" viewBox="0 0 715.000000 600.000000"
 preserveAspectRatio="xMidYMid meet">
<metadata>
Created by potrace 1.16, written by Peter Selinger 2001-2019
</metadata>
<g transform="translate(0.000000,600.000000) scale(0.100000,-0.100000)"
fill="#000000" stroke="none">
<path d="M3355 5784 c-229 -37 -389 -158 -510 -387 -97 -181 -128 -324 -127
-575 0 -156 2 -177 22 -217 12 -25 26 -45 30 -45 5 0 16 -23 25 -51 14 -40 16
-66 10 -113 -14 -114 -13 -121 18 -124 16 -2 44 6 64 18 l36 21 51 -48 c28
-26 53 -49 55 -50 2 -2 -26 -33 -64 -70 -155 -155 -291 -375 -357 -579 -17
-53 -23 -93 -23 -174 0 -122 13 -172 59 -233 l33 -43 -44 -49 c-53 -60 -116
-186 -138 -275 -9 -36 -18 -121 -22 -190 -11 -232 40 -386 167 -510 l67 -66
-34 -44 c-43 -56 -117 -209 -132 -274 -16 -66 -6 -101 40 -147 l40 -40 -30
-102 c-17 -56 -44 -164 -61 -240 -25 -114 -28 -142 -18 -160 6 -12 13 -40 14
-61 1 -22 16 -66 33 -98 l30 -59 -19 -32 c-10 -18 -25 -57 -34 -88 -9 -31 -32
-79 -51 -105 -90 -124 -109 -216 -57 -272 46 -50 130 -62 244 -36 21 5 27 2
33 -18 11 -36 55 -77 94 -88 39 -11 104 1 155 27 55 28 139 124 171 194 l30
66 69 23 c251 81 368 164 524 370 96 126 106 244 31 355 -24 35 -107 85 -141
85 -13 0 -18 8 -18 29 0 24 8 34 44 55 117 69 366 352 521 593 33 52 43 61 60
55 39 -14 159 -7 215 13 60 22 130 81 130 111 0 35 -31 65 -104 98 -63 29 -76
40 -114 96 -38 55 -43 68 -38 101 6 38 -9 99 -25 99 -5 0 -9 6 -9 13 0 6 -7
25 -15 41 -13 25 -13 33 0 73 14 41 14 48 1 69 -9 12 -28 24 -43 26 -27 3 -28
6 -35 73 -4 38 -5 71 -3 73 2 2 18 -18 35 -45 41 -60 100 -123 116 -123 16 0
70 68 84 105 10 27 7 32 -72 112 -46 46 -107 100 -135 120 -40 28 -53 42 -53
61 l0 25 23 -19 c43 -39 79 -56 133 -61 153 -16 246 98 363 441 28 82 53 152
57 155 3 3 50 5 105 4 85 -3 106 -7 142 -27 143 -83 407 -150 710 -181 56 -5
60 -4 91 27 25 25 35 46 40 83 4 28 20 118 36 200 63 327 170 907 170 919 0 8
-32 19 -82 30 -200 42 -613 216 -780 329 l-66 44 -209 6 c-217 6 -335 21 -561
73 -105 24 -112 27 -118 52 -35 157 -109 294 -197 366 -60 49 -164 96 -213 96
-27 0 -51 8 -74 25 -54 40 -150 65 -264 69 -56 3 -114 2 -131 0z m300 -63 c32
-12 68 -30 80 -40 11 -11 43 -21 74 -24 165 -19 313 -168 372 -375 24 -83 24
-98 1 -104 -14 -4 -23 -32 -42 -132 l-25 -128 -60 7 c-59 6 -61 7 -149 93 -48
48 -106 114 -128 147 -37 56 -39 63 -33 113 5 42 4 52 -9 52 -8 0 -20 -15 -26
-34 -16 -51 -72 -119 -139 -170 -99 -76 -291 -163 -291 -131 0 7 6 18 14 24
20 17 156 225 156 239 0 19 -27 14 -52 -10 -31 -30 -232 -215 -286 -263 -23
-21 -44 -36 -46 -34 -8 9 75 184 105 221 21 27 28 43 21 50 -15 15 -47 -12
-119 -101 -63 -79 -163 -227 -163 -242 0 -5 -9 -9 -19 -9 -11 0 -23 -4 -26
-10 -3 -5 -17 -10 -29 -10 -13 0 -35 -9 -49 -20 -14 -11 -28 -20 -31 -20 -14
0 -4 166 15 261 27 136 51 206 105 308 98 185 237 306 405 351 101 27 285 23
374 -9z m70 -541 c13 -40 110 -149 234 -264 63 -58 70 -80 71 -216 0 -187 -43
-258 -205 -340 -113 -56 -216 -81 -360 -87 -170 -7 -298 23 -425 99 -93 56
-128 133 -137 305 l-6 101 42 75 c42 78 99 167 107 167 2 0 -10 -37 -26 -82
-49 -133 -40 -139 58 -40 88 90 225 212 231 207 2 -3 -24 -39 -58 -80 -34 -42
-59 -80 -56 -85 12 -20 177 26 272 76 72 38 196 133 216 165 15 25 34 24 42
-1z m615 -81 l129 -31 -15 -31 -16 -30 -19 24 -19 24 -21 -25 c-21 -24 -21
-24 -36 -5 -14 20 -15 20 -34 -4 -10 -13 -19 -32 -19 -42 0 -15 -5 -17 -30
-12 -28 5 -30 4 -31 -28 -1 -48 -12 -74 -29 -74 -9 0 -16 -11 -18 -27 -2 -19
-9 -28 -21 -28 -26 0 -29 -7 -20 -48 7 -31 5 -40 -11 -57 -20 -19 -20 -19 -20
0 0 11 7 52 15 90 9 39 27 130 41 203 15 72 30 132 35 132 5 0 67 -14 139 -31z
m543 -78 c98 -5 180 -11 183 -14 3 -2 -4 -40 -15 -83 -11 -44 -29 -119 -40
-169 -11 -49 -36 -160 -56 -245 -20 -85 -50 -213 -66 -284 -16 -70 -31 -131
-33 -135 -11 -18 -294 22 -308 43 -11 16 -10 134 2 155 5 10 23 21 40 24 33 7
116 78 125 108 5 14 12 18 30 13 19 -5 28 1 47 30 15 24 28 34 38 30 8 -4 28
-9 44 -12 l29 -5 -7 50 c-6 46 -5 50 19 61 29 13 32 38 8 64 -15 17 -14 19 10
42 34 31 34 54 2 66 -21 8 -24 14 -19 39 6 27 3 32 -30 48 -26 12 -35 21 -30
32 4 9 9 27 12 40 5 24 4 24 -51 18 -52 -5 -56 -4 -59 16 -3 19 -9 22 -41 20
-36 -2 -37 -1 -37 32 0 23 4 33 13 30 6 -3 92 -9 190 -14z m-389 -17 c3 -9 6
-24 6 -35 0 -29 16 -23 30 11 13 32 30 31 30 -1 0 -24 15 -24 47 1 42 33 56
27 48 -20 -8 -46 -5 -48 41 -19 30 18 35 19 40 5 3 -9 4 -25 1 -36 -8 -29 10
-34 39 -11 26 21 64 28 64 14 -1 -5 -7 -19 -15 -33 -21 -36 -19 -53 5 -45 23
7 60 -10 60 -29 0 -7 -9 -21 -20 -31 -28 -26 -25 -33 15 -32 61 2 58 -13 -11
-61 -15 -10 -16 -14 -5 -19 7 -3 23 -15 34 -26 20 -20 20 -21 1 -28 -10 -4
-31 -8 -46 -8 -34 -1 -35 -5 -3 -43 25 -30 33 -58 15 -58 -5 0 -25 13 -43 30
-37 32 -50 30 -41 -5 3 -13 -2 -30 -14 -45 l-19 -23 -28 36 c-15 21 -31 37
-35 37 -4 0 -12 -17 -17 -37 -11 -48 -26 -51 -42 -8 -14 40 -21 43 -46 15 -30
-33 -44 -26 -34 17 11 50 4 53 -29 16 -32 -37 -76 -66 -85 -56 -4 3 -7 24 -7
45 0 42 -17 51 -38 18 -19 -31 -42 -25 -42 10 0 31 -23 43 -33 18 -4 -9 -8
-10 -14 -2 -11 15 -45 14 -61 -3 -7 -7 -19 -13 -25 -13 -8 0 -7 4 1 12 21 21
13 35 -18 35 -38 0 -47 9 -32 33 10 16 9 21 -9 30 -16 9 -18 14 -8 26 6 8 18
14 25 14 17 0 17 0 -2 39 -19 38 -14 47 15 30 27 -17 33 -9 22 28 -12 40 -4
48 21 20 11 -12 21 -17 24 -12 16 36 24 40 39 21 20 -26 31 -12 16 20 -9 21
-16 25 -36 20 -24 -6 -25 -4 -25 34 0 42 9 50 30 25 20 -24 30 -18 30 18 0 30
15 67 22 57 2 -3 9 -18 16 -33 14 -33 27 -29 35 13 8 39 22 38 33 -2 13 -43
31 -46 39 -6 11 52 27 64 39 32z m975 -195 c144 -65 303 -122 405 -145 39 -9
75 -19 79 -23 4 -5 1 -41 -7 -82 -9 -41 -27 -137 -41 -214 -13 -77 -38 -214
-55 -305 -16 -91 -33 -183 -36 -205 -10 -62 -16 -65 -103 -59 -80 5 -270 33
-284 41 -4 2 2 17 13 33 11 15 20 33 20 39 0 15 13 14 28 -1 20 -20 33 10 29
64 -4 45 -3 46 20 35 32 -14 39 -3 24 39 -12 33 -11 36 12 55 28 21 53 82 42
100 -4 6 -16 9 -26 6 -15 -4 -19 0 -19 19 0 28 -20 31 -54 8 -16 -10 -26 -12
-31 -5 -11 18 -57 12 -81 -10 -20 -19 -24 -19 -58 -5 -33 14 -35 18 -30 46 7
35 -17 70 -48 70 -13 0 -18 8 -18 30 0 34 -26 52 -41 29 -8 -12 -12 -11 -23 4
-7 9 -17 17 -22 17 -19 -1 -49 -56 -49 -92 0 -34 -2 -38 -34 -45 -46 -11 -50
-30 -9 -48 27 -12 29 -14 10 -15 -23 0 -82 -49 -82 -69 0 -6 9 -11 20 -11 19
0 19 -1 0 -42 -23 -51 -13 -65 28 -44 46 24 85 20 111 -10 28 -32 123 -76 171
-80 19 -2 38 -3 41 -3 8 -1 19 -26 29 -68 6 -24 4 -33 -4 -33 -35 0 -219 68
-316 116 -28 14 -149 90 -183 115 -5 3 5 64 22 135 17 71 65 277 107 459 41
181 77 332 80 336 2 4 57 -22 121 -58 64 -36 173 -92 242 -124z m-1341 -186
c-10 -13 -9 -18 11 -34 13 -11 30 -19 37 -19 12 0 12 -4 4 -20 -13 -24 6 -36
41 -27 28 8 139 -100 139 -136 0 -34 -36 -147 -56 -176 -14 -20 -22 -22 -55
-17 -52 8 -229 66 -229 75 0 4 18 94 40 201 22 107 40 198 40 203 0 4 9 -2 21
-14 17 -17 18 -23 7 -36z m230 -147 c44 -35 71 -38 119 -11 30 16 43 20 43 11
0 -8 7 -19 15 -26 11 -9 14 -22 10 -42 -5 -19 -3 -28 7 -29 25 -2 43 3 69 22
14 10 29 16 32 12 4 -3 16 11 28 31 27 46 37 40 14 -9 -21 -43 -78 -92 -117
-100 -50 -11 -58 -28 -58 -121 0 -46 -3 -84 -7 -84 -17 1 -184 40 -193 45 -5
3 2 24 15 48 14 23 32 74 41 114 l17 72 -41 45 c-43 46 -48 57 -34 70 4 4 9 0
11 -10 2 -10 15 -27 29 -38z m-1443 -26 c30 -59 90 -110 176 -148 l64 -29 -32
-16 c-18 -10 -41 -17 -51 -17 -29 0 -111 77 -120 113 -11 42 -28 44 -47 7 -14
-28 -59 -60 -69 -49 -2 2 0 27 4 54 5 28 6 71 3 96 -5 46 -5 47 21 42 20 -4
33 -18 51 -53z m919 -206 c13 -97 8 -139 -20 -165 -14 -13 -34 -40 -45 -60
l-18 -37 -163 -7 c-90 -3 -217 -5 -283 -3 l-120 3 0 135 0 135 27 3 c22 3 28
-2 38 -32 16 -50 88 -112 151 -130 66 -20 174 -21 227 -2 77 27 141 109 142
179 0 23 4 27 29 27 26 0 29 -3 35 -46z m-98 10 c-30 -118 -160 -178 -303
-139 -53 14 -76 27 -110 61 -62 62 -58 68 40 60 89 -7 229 6 312 29 68 18 68
18 61 -11z m336 -35 c62 -24 314 -89 448 -115 103 -19 136 -34 78 -34 -55 0
-68 -20 -68 -101 0 -38 -6 -85 -14 -103 l-14 -34 -74 14 c-101 19 -210 53
-231 71 -12 12 -17 29 -15 61 1 32 -4 48 -15 57 -9 7 -17 22 -17 33 0 23 -36
62 -57 62 -7 0 -18 11 -23 25 -6 17 -20 27 -40 32 -22 4 -29 10 -26 20 4 8 6
19 6 24 0 12 2 12 62 -12z m-932 -86 c0 -49 3 -111 6 -140 l7 -52 46 -7 c25
-4 154 -3 286 3 132 6 241 9 243 8 7 -6 -56 -121 -75 -137 -26 -24 -236 -123
-302 -142 -30 -9 -70 -16 -88 -16 -18 0 -83 -16 -144 -36 -61 -19 -112 -34
-115 -32 -5 5 24 503 32 545 5 25 18 43 47 64 22 16 44 29 49 29 4 0 8 -39 8
-87z m2195 38 c92 -43 121 -92 90 -150 -35 -68 -93 -78 -185 -31 -91 46 -111
91 -70 158 36 58 79 65 165 23z m-1305 -28 c0 -5 -20 -16 -44 -26 -23 -10 -56
-31 -71 -47 -24 -25 -26 -30 -11 -36 10 -4 29 4 49 19 47 36 108 53 136 37 33
-17 21 -32 -45 -55 -72 -25 -124 -55 -124 -72 0 -23 19 -23 56 2 62 42 164 60
165 30 1 -12 -6 -16 -98 -56 -40 -17 -73 -38 -73 -45 0 -21 24 -17 97 16 51
23 69 27 80 19 18 -16 1 -35 -39 -43 -39 -8 -94 -65 -103 -108 -9 -41 -56
-110 -93 -136 -15 -11 -47 -25 -72 -32 -25 -7 -65 -29 -90 -50 -70 -59 -418
-280 -440 -280 -20 0 -33 49 -38 141 -2 54 -2 117 2 141 l7 45 95 31 c123 41
276 115 307 148 13 14 50 77 82 140 61 120 94 158 180 202 40 21 85 29 85 15z
m-1034 -50 c-6 -20 -25 -327 -27 -445 -1 -43 -7 -82 -13 -87 -6 -4 -33 -16
-61 -25 -77 -26 -160 -71 -160 -87 0 -20 18 -16 123 30 85 38 350 131 372 131
5 0 8 -51 7 -112 -1 -62 2 -134 6 -159 l8 -46 -69 5 c-125 8 -289 -37 -409
-114 -29 -19 -57 -34 -61 -34 -17 0 -62 58 -78 100 -24 66 -22 187 5 285 41
151 170 379 290 516 52 59 77 74 67 42z m1710 -101 c4 -19 4 -70 1 -114 -6
-72 -5 -79 11 -76 15 3 17 19 20 121 1 64 7 117 12 117 21 0 30 -44 30 -139 0
-56 4 -101 9 -101 4 0 24 26 44 58 43 70 81 107 101 99 21 -8 20 -15 -7 -58
-119 -192 -119 -192 -199 -197 -35 -2 -82 1 -103 7 -26 7 -43 7 -49 1 -17 -17
9 -33 72 -44 l60 -11 -43 -125 c-63 -185 -64 -187 -88 -194 -39 -10 -97 -6
-135 10 -61 25 -122 95 -122 138 0 9 45 62 100 120 60 62 100 112 100 124 0
11 9 49 20 84 11 36 20 91 20 129 0 42 5 72 15 85 15 19 15 19 30 0 10 -14 15
-43 15 -93 0 -58 3 -73 15 -73 21 0 29 42 21 112 -7 70 8 104 31 72 7 -10 16
-33 19 -52z m394 -79 c184 -91 340 -134 563 -155 148 -14 137 1 108 -158 -16
-89 -18 -95 -43 -98 -44 -5 -345 46 -454 78 -135 39 -213 72 -294 124 -100 65
-100 66 -50 131 28 36 44 68 47 95 3 22 8 39 12 38 3 -2 53 -27 111 -55z
m-848 -60 c56 -16 62 -21 79 -58 10 -22 21 -75 25 -117 l7 -77 -45 -53 c-64
-77 -88 -113 -88 -136 0 -34 18 -35 35 -2 8 16 19 30 23 29 4 0 21 -21 37 -46
37 -58 102 -93 184 -100 l60 -6 -20 -38 c-26 -51 -75 -106 -112 -126 -38 -19
-142 -13 -179 11 -14 9 -39 34 -56 55 -30 37 -32 46 -47 192 -8 85 -20 195
-25 244 -25 234 -26 219 6 232 40 15 47 15 116 -4z m-168 -115 c4 -40 20 -210
36 -378 16 -168 36 -378 45 -467 l16 -163 -48 -59 c-32 -40 -55 -60 -71 -60
-44 -2 -88 -28 -105 -62 -9 -19 -18 -66 -21 -104 l-5 -70 -78 -75 c-77 -74
-191 -160 -213 -160 -6 0 9 24 33 53 52 60 87 126 114 212 14 48 18 91 17 220
-1 146 -3 167 -28 245 -41 124 -81 193 -150 257 -55 51 -199 133 -233 133 -29
0 -6 19 122 98 73 45 174 111 223 146 49 36 108 70 132 76 62 17 141 99 165
170 10 30 20 58 22 63 11 19 21 -8 27 -75z m-739 -503 c300 -80 437 -294 422
-660 -6 -149 -25 -217 -86 -312 -59 -91 -166 -193 -254 -242 -48 -27 -62 -27
-43 1 9 12 16 30 16 40 0 24 -27 23 -35 -1 -14 -44 -122 -101 -191 -101 l-34
0 40 36 c42 39 100 119 100 141 0 21 -28 15 -41 -9 -26 -51 -169 -188 -195
-188 -7 0 -14 26 -18 65 -7 73 -51 185 -72 185 -18 0 -18 -10 5 -69 22 -54 42
-179 30 -186 -15 -10 -105 63 -140 113 -49 71 -56 79 -70 65 -7 -7 -3 -21 15
-48 14 -21 26 -42 26 -47 0 -19 -92 41 -157 103 -64 61 -99 120 -130 219 -23
73 -27 102 -26 205 1 227 55 389 175 521 68 74 212 152 332 180 76 17 247 12
331 -11z m977 -293 l91 -88 -24 -37 c-38 -58 -41 -56 -138 87 -39 58 -61 100
-61 118 0 26 2 28 20 18 11 -6 61 -50 112 -98z m-72 -232 c12 -7 9 -20 -18
-82 -18 -40 -32 -79 -32 -85 0 -22 30 -14 39 10 16 40 25 -9 11 -54 -17 -49
-1 -74 24 -38 23 33 32 15 18 -36 -6 -24 -9 -51 -6 -59 14 -37 -72 -136 -118
-136 -8 0 -36 -30 -63 -67 -52 -71 -286 -313 -303 -313 -5 0 -43 55 -84 123
l-74 123 58 36 c66 40 163 121 223 187 37 40 40 49 46 118 4 51 12 82 26 101
20 27 63 43 63 23 0 -25 29 -8 61 37 40 55 99 122 108 122 3 0 13 -4 21 -10z
m114 -433 c20 -27 51 -49 105 -75 55 -27 77 -43 79 -58 9 -63 -199 -130 -292
-94 -19 7 -26 17 -26 37 -1 16 -7 46 -15 68 -13 36 -13 41 1 50 41 25 73 58
89 91 9 20 20 32 24 28 4 -5 20 -26 35 -47z m-174 -197 c0 -39 -8 -58 -53
-125 -65 -99 -189 -263 -253 -335 -107 -122 -239 -240 -269 -240 -7 0 -19 34
-29 83 -10 45 -20 90 -22 100 -4 12 0 17 14 17 10 0 46 14 80 31 75 37 148
115 158 167 6 29 29 57 118 143 62 59 139 142 172 184 l59 76 12 -28 c7 -15
12 -48 13 -73z m-496 -139 c71 -117 86 -149 81 -170 -14 -55 -142 -150 -202
-151 -17 0 -25 8 -31 32 -8 32 -42 53 -42 26 0 -7 13 -67 29 -133 27 -108 81
-391 95 -488 5 -37 5 -37 -57 -69 -92 -46 -180 -77 -302 -106 -143 -33 -365
-38 -459 -9 -113 35 -229 106 -256 158 -25 45 110 532 209 757 73 166 91 179
175 132 58 -33 84 -37 124 -16 15 7 68 16 118 20 162 12 262 48 364 130 30 24
58 41 61 38 3 -4 45 -72 93 -151z m-889 29 c3 -6 -3 -23 -15 -40 -27 -38 -79
-152 -120 -265 -18 -49 -34 -92 -36 -94 -2 -3 -18 8 -34 24 -39 37 -39 73 0
174 28 72 90 181 127 223 14 16 18 16 44 3 15 -8 31 -19 34 -25z m878 -744
c46 -19 80 -63 101 -130 17 -53 17 -59 1 -110 -21 -66 -51 -112 -146 -223 -99
-116 -183 -169 -392 -247 -75 -28 -72 -30 -81 49 -3 28 -8 59 -11 71 -6 19 0
22 64 33 55 10 92 26 164 68 50 30 131 78 179 107 83 48 109 76 71 76 -9 0
-87 -42 -172 -93 -176 -105 -171 -103 -264 -123 -68 -14 -69 -14 -98 11 -29
24 -86 45 -122 45 -22 0 -55 -16 -82 -41 -19 -16 -24 -17 -85 -3 -105 24 -198
98 -236 189 -23 55 -18 56 44 15 31 -22 91 -52 132 -66 141 -49 404 -44 600
12 117 34 233 81 279 114 l38 28 -13 93 c-8 52 -16 104 -19 117 -6 26 3 27 48
8z m-1010 -490 c28 -19 79 -42 112 -52 33 -9 61 -17 63 -19 1 -1 -9 -27 -23
-59 -14 -31 -25 -62 -25 -69 0 -7 -24 -53 -53 -102 -29 -50 -56 -98 -60 -107
-13 -36 -143 -50 -202 -22 -71 33 -67 103 14 222 27 40 60 103 72 140 23 71
37 102 45 102 2 0 28 -15 57 -34z m371 -27 c50 -23 103 -133 93 -194 -10 -64
-74 -183 -125 -233 -54 -55 -127 -92 -178 -92 -51 0 -95 44 -101 102 -5 40 -1
52 30 100 37 56 62 106 97 199 30 80 77 129 123 129 20 0 47 -5 61 -11z"/>
<path d="M3650 4549 c-19 -5 -115 -12 -212 -16 l-178 -6 0 -40 c0 -60 39 -120
96 -147 59 -29 178 -31 241 -5 78 32 119 100 111 185 -3 38 -10 41 -58 29z
m25 -71 c-4 -18 -18 -47 -31 -65 -52 -69 -228 -83 -300 -24 -22 18 -54 72 -54
91 0 6 32 11 83 11 45 1 116 5 157 9 41 4 92 7 113 8 38 2 39 2 32 -30z"/>
<path d="M5224 4751 c-12 -5 -32 -24 -44 -41 -27 -38 -21 -86 15 -127 19 -23
31 -28 70 -28 40 0 51 5 76 33 39 43 39 90 2 132 -30 33 -82 46 -119 31z m75
-26 c41 -21 57 -65 37 -103 -37 -72 -146 -49 -146 31 0 36 13 58 45 75 26 15
31 15 64 -3z"/>
<path d="M1545 3724 c-33 -8 -98 -33 -145 -56 -116 -56 -240 -178 -298 -294
-56 -111 -91 -246 -98 -374 -5 -95 -4 -113 20 -185 14 -44 43 -109 64 -144 44
-73 151 -184 235 -243 31 -23 57 -45 57 -49 0 -5 -21 -37 -46 -71 -122 -165
-209 -416 -221 -635 -7 -125 4 -197 43 -294 l26 -63 -26 -19 c-15 -10 -44 -56
-66 -100 -21 -45 -64 -113 -95 -152 -65 -80 -75 -101 -75 -156 0 -51 38 -93
95 -103 21 -4 52 -18 67 -31 95 -80 250 -46 443 96 39 28 90 61 115 74 43 22
51 22 140 13 126 -13 308 -4 395 20 158 43 203 90 212 221 9 128 -25 191 -134
250 -47 26 -47 26 -85 142 -20 64 -40 134 -44 156 -6 38 -4 42 25 59 17 10 31
26 31 35 0 39 -73 253 -105 307 -43 75 -103 147 -156 189 l-41 32 29 6 c150
33 318 111 379 177 61 66 94 147 94 232 0 23 10 56 24 80 34 60 40 94 21 123
-12 17 -24 23 -42 21 -25 -3 -27 1 -45 72 -12 47 -17 93 -14 124 8 76 -12 194
-44 264 -57 122 -186 220 -355 267 -85 24 -302 29 -380 9z m393 -53 c51 -17
114 -43 140 -58 66 -39 135 -112 165 -175 26 -55 55 -173 45 -183 -3 -3 -37
13 -75 35 -39 22 -75 40 -82 40 -13 0 -14 -29 -2 -62 4 -13 11 -36 15 -52 l7
-30 -44 41 c-102 94 -128 93 -103 -5 9 -33 16 -70 16 -81 0 -19 -3 -20 -20
-11 -11 6 -30 28 -42 50 -31 54 -51 49 -53 -15 -2 -54 -12 -95 -23 -95 -4 0
-15 18 -24 40 -9 22 -23 40 -32 40 -15 0 -20 -14 -46 -128 -15 -63 -24 -71
-40 -32 -17 41 -39 58 -50 40 -5 -8 -6 -26 -3 -40 6 -30 -13 -106 -28 -116 -6
-3 -22 4 -35 17 -34 32 -120 33 -161 3 -46 -35 -73 -91 -73 -157 0 -77 20
-116 91 -181 50 -45 59 -58 59 -87 0 -19 -5 -41 -10 -49 -8 -12 -13 -11 -34 9
-28 27 -50 19 -43 -15 2 -13 1 -24 -2 -24 -23 0 -205 141 -258 200 -44 47
-112 165 -133 230 -19 56 -21 80 -17 175 10 215 75 379 204 512 84 85 135 120
239 159 143 54 297 55 452 5z m333 -492 c10 -25 26 -97 36 -159 20 -115 35
-143 53 -96 5 14 17 26 26 26 22 0 13 -50 -16 -90 -11 -16 -20 -45 -21 -67 0
-21 -6 -58 -12 -83 l-12 -45 -150 -10 -150 -10 3 -25 c5 -33 43 -99 76 -130
l27 -24 -71 -28 c-39 -15 -114 -36 -166 -45 -82 -15 -110 -15 -202 -5 -58 7
-109 15 -112 19 -4 5 -5 29 -2 56 3 41 7 47 27 47 25 0 35 17 35 61 0 26 -8
35 -60 67 -63 38 -77 62 -66 107 5 18 13 25 31 25 13 0 27 -4 30 -10 9 -15 35
-12 35 4 0 20 -39 46 -68 46 -36 0 -72 -43 -72 -85 0 -51 13 -70 75 -107 56
-34 73 -54 56 -71 -12 -12 -66 8 -100 37 -40 35 -81 107 -81 143 0 48 28 110
60 133 50 36 122 22 140 -26 5 -13 16 -24 24 -24 18 0 52 47 68 91 l11 32 14
-28 c14 -25 16 -26 31 -12 8 9 28 53 42 99 l27 83 7 -42 c6 -32 12 -43 26 -43
18 0 52 58 65 112 l7 26 43 -30 c25 -18 50 -28 59 -25 18 7 21 63 7 115 -15
50 8 41 68 -28 29 -33 57 -60 63 -60 11 0 6 106 -8 149 l-7 24 44 -24 c34 -19
47 -34 60 -70z m29 -561 c0 -19 -46 -72 -88 -102 l-41 -28 -30 21 c-30 21 -71
79 -71 99 0 7 38 12 108 15 59 1 110 4 115 5 4 1 7 -3 7 -10z m-565 -273 c50
-4 101 -13 115 -20 43 -23 155 -147 192 -215 32 -57 98 -244 98 -275 0 -34
-272 -105 -401 -105 -33 0 -37 3 -43 31 -3 17 -6 71 -6 120 0 89 -5 104 -30
89 -10 -6 -12 -31 -7 -117 3 -59 10 -120 16 -135 9 -25 15 -28 59 -28 45 0 48
-2 50 -27 1 -15 12 -67 24 -116 13 -53 18 -91 12 -96 -5 -5 -58 -23 -118 -40
-75 -21 -154 -55 -258 -108 l-149 -78 -20 25 c-33 42 -88 157 -104 217 -58
223 43 622 212 838 l43 55 32 -16 c24 -12 32 -13 38 -3 17 26 61 36 109 23 26
-6 87 -15 136 -19z m350 -622 c4 -16 22 -77 41 -138 19 -60 34 -114 34 -118 0
-10 -88 1 -117 15 -20 10 -111 0 -155 -17 -11 -4 -20 0 -28 14 -10 20 -49 182
-50 207 0 6 31 16 68 23 38 7 91 18 118 26 73 20 83 19 89 -12z m-62 -340 c4
-38 7 -116 7 -175 0 -92 -2 -109 -17 -116 -20 -11 -133 -27 -292 -42 -162 -16
-159 -16 -171 28 -13 52 -63 119 -106 144 -27 16 -32 23 -22 30 52 34 213 107
258 118 30 7 90 24 133 37 80 25 146 40 183 42 19 1 22 -6 27 -66z m194 22
c53 -22 100 -61 120 -98 23 -45 23 -151 0 -202 -28 -63 -69 -85 -227 -126 -19
-5 -88 -9 -153 -9 l-118 0 3 27 c3 26 7 28 83 39 88 12 193 40 213 56 30 25 0
35 -56 17 -9 -3 -13 34 -17 162 l-4 166 59 -9 c33 -4 77 -15 97 -23z m-984
-170 c16 -25 33 -45 38 -45 5 0 9 -5 9 -11 0 -20 -83 -132 -150 -203 -73 -77
-90 -103 -90 -136 0 -19 -4 -21 -27 -15 -32 8 -63 41 -63 67 0 28 25 72 81
141 27 33 67 97 90 141 36 72 61 106 78 106 3 0 19 -20 34 -45z m180 -36 c42
-22 86 -83 103 -141 l18 -59 40 5 c23 3 83 8 134 11 l92 7 0 -25 c0 -25 0 -25
-72 -20 l-73 5 -143 -95 c-78 -53 -167 -105 -198 -116 -125 -47 -233 -9 -234
82 0 10 37 56 81 104 45 47 101 117 125 154 67 103 80 112 127 88z"/>
<path d="M5365 3393 c-274 -34 -471 -175 -535 -382 -11 -35 -20 -75 -20 -90 0
-14 -16 -66 -37 -114 l-38 -88 -35 6 c-47 8 -73 -12 -73 -55 0 -22 7 -39 22
-51 21 -17 21 -21 10 -84 -27 -154 32 -266 195 -370 30 -19 60 -35 66 -35 28
0 4 -18 -45 -34 -132 -41 -285 -220 -285 -334 0 -24 8 -57 17 -72 16 -28 16
-31 -11 -82 -59 -115 -201 -360 -236 -405 l-36 -48 -85 -5 c-51 -3 -93 -11
-103 -19 -19 -16 -21 -61 -3 -80 9 -10 9 -15 0 -18 -76 -28 -106 -94 -59 -131
18 -13 26 -30 26 -50 0 -36 23 -62 53 -62 13 0 26 -9 32 -22 12 -28 56 -35 87
-14 25 18 42 21 33 6 -8 -13 11 -46 30 -54 39 -15 104 56 126 137 l10 39 25
-33 c14 -19 42 -50 63 -69 30 -28 39 -45 45 -85 5 -27 25 -106 46 -175 21 -70
41 -146 45 -171 13 -88 23 -106 70 -129 35 -17 54 -20 92 -14 70 10 139 42
173 81 41 46 40 90 -5 179 -19 38 -35 80 -35 93 0 22 3 23 38 17 20 -3 100 -6
178 -6 l141 0 6 -87 c14 -193 102 -266 265 -218 87 26 144 89 158 171 6 42
-22 139 -59 201 -11 19 -18 35 -16 36 122 72 229 171 229 211 0 12 -13 37 -30
56 -37 44 -37 50 1 50 88 0 92 66 7 99 -25 9 -27 13 -17 35 7 13 9 36 5 50 -7
29 -39 34 -95 15 -18 -6 -34 -9 -38 -6 -3 3 -18 66 -34 139 -16 73 -43 196
-60 273 -45 199 -44 187 -15 247 32 66 50 158 42 218 l-6 45 52 19 c160 57
295 212 344 396 22 84 23 269 2 365 -28 123 -71 200 -167 296 -118 118 -245
183 -408 208 -71 11 -90 11 -148 4z m171 -44 c197 -36 392 -178 471 -344 60
-127 80 -312 47 -452 -37 -164 -147 -312 -275 -373 -81 -38 -99 -38 -122 1
-16 29 -16 32 0 60 34 58 -23 126 -87 102 l-30 -11 0 44 c0 60 -19 103 -64
142 -28 24 -46 32 -75 32 -37 0 -38 1 -64 64 -40 98 -70 223 -72 303 -1 40 -5
76 -9 80 -10 10 -26 -17 -26 -43 0 -11 -7 -34 -15 -51 -8 -17 -21 -70 -28
-119 l-13 -89 -17 32 c-64 122 -53 310 24 382 17 15 20 24 12 32 -7 7 -17 8
-26 3 -31 -18 -153 -163 -189 -225 l-38 -64 0 60 c0 75 25 129 90 189 53 50
61 66 31 66 -18 0 -78 -60 -158 -160 -52 -63 -57 -44 -13 48 34 72 122 169
187 207 134 79 310 111 459 84z m-423 -612 c32 -71 64 -117 81 -117 9 0 15 26
20 86 9 116 20 135 36 58 7 -32 27 -98 46 -145 19 -47 34 -93 34 -102 0 -20
22 -35 28 -19 2 7 20 12 41 12 47 0 85 -37 102 -100 17 -66 -11 -127 -76 -166
-59 -34 -141 -45 -151 -20 -11 28 12 40 69 37 75 -3 99 18 105 90 3 45 0 59
-18 82 -31 40 -112 34 -97 -7 6 -14 11 -15 28 -5 27 14 46 -2 55 -47 9 -46
-22 -79 -71 -76 -76 5 -115 -20 -115 -73 0 -28 42 -55 86 -55 l41 0 -21 -55
c-19 -50 -24 -55 -52 -55 -103 0 -262 52 -403 132 l-53 31 32 13 c53 23 90 54
111 96 11 22 19 44 17 50 -2 5 -47 25 -100 43 -52 18 -115 43 -139 56 -39 22
-44 29 -44 59 1 19 4 45 8 57 7 18 3 25 -22 38 -19 9 -31 23 -31 35 0 25 27
26 52 4 26 -24 39 -9 89 105 23 54 55 114 70 132 l28 34 1 -55 c0 -55 16 -102
35 -104 5 0 21 20 35 45 14 25 43 74 65 108 l40 63 6 -104 c5 -81 11 -115 32
-161z m-240 -346 c39 -14 67 -28 67 -36 0 -32 -92 -95 -139 -95 -38 0 -97 91
-108 166 l-6 46 59 -30 c32 -16 89 -39 127 -51z m727 -186 c3 -2 17 -25 30
-52 51 -100 36 -224 -42 -356 -16 -28 -41 -80 -55 -116 -15 -36 -28 -68 -30
-70 -2 -3 -14 6 -28 19 -68 64 -125 218 -125 337 0 93 18 154 61 207 27 32 36
36 60 31 15 -4 36 -2 46 4 15 9 65 6 83 -4z m-535 -139 c37 -16 95 -28 150
-33 l90 -8 7 -85 c6 -88 38 -189 83 -266 30 -51 101 -116 123 -112 10 2 22 24
32 58 9 30 24 69 32 85 l16 30 6 -25 c25 -103 136 -600 136 -607 0 -17 -146
-81 -240 -104 -81 -20 -120 -23 -265 -23 -152 0 -181 2 -275 27 -109 28 -285
108 -304 138 -7 13 1 48 29 135 52 161 126 355 168 447 34 74 36 87 12 87 -12
0 -95 -167 -95 -189 0 -16 -7 -14 -53 18 -68 47 -92 78 -91 119 0 112 149 270
299 318 57 18 71 17 140 -10z m-360 -465 c22 -15 39 -34 38 -42 -1 -8 -18 -59
-38 -114 -38 -104 -51 -144 -79 -234 -22 -68 -106 -217 -151 -267 -19 -22 -44
-66 -55 -98 -19 -57 -53 -106 -73 -106 -9 0 -5 47 9 98 10 35 -17 27 -65 -18
-36 -35 -71 -52 -71 -35 0 17 33 64 64 92 20 17 36 36 36 42 0 28 -26 16 -85
-39 -35 -33 -69 -60 -74 -60 -6 0 -14 8 -20 17 -14 26 11 62 70 101 27 17 49
39 49 47 0 23 -15 18 -74 -21 -33 -22 -63 -34 -78 -32 -43 6 -24 33 54 73 94
49 104 58 84 74 -10 8 -16 9 -21 1 -3 -5 -19 -10 -36 -10 -22 0 -29 5 -29 19
0 26 18 31 99 24 67 -6 70 -5 96 23 48 51 115 161 259 427 20 37 40 67 44 67
4 -1 25 -13 47 -29z m-20 -525 c31 -19 77 -43 101 -53 24 -10 44 -23 44 -29 0
-6 -11 -37 -24 -69 -22 -55 -26 -59 -68 -70 -46 -11 -108 -49 -108 -66 0 -5
-4 -9 -9 -9 -13 0 -111 100 -111 113 0 9 110 217 115 217 2 0 28 -15 60 -34z
m1143 -99 c34 -46 62 -89 62 -95 0 -29 -198 -187 -215 -171 -5 6 -115 263
-112 264 1 1 34 13 73 28 39 15 80 34 90 42 10 8 24 14 29 14 6 1 38 -37 73
-82z m-813 -21 c44 -9 94 -15 112 -16 39 0 39 -3 48 -199 l7 -144 -89 8 c-48
4 -95 11 -104 16 -9 4 -21 28 -27 51 -15 59 -64 133 -106 160 -39 25 -39 31
-4 107 19 40 23 43 52 37 17 -3 67 -12 111 -20z m535 -53 c13 -32 28 -64 33
-71 18 -23 -1 -24 -31 -2 -21 16 -45 22 -78 23 -113 1 -167 -77 -134 -193 5
-19 6 -37 2 -41 -4 -4 -32 -10 -63 -14 l-56 -7 -6 59 c-4 32 -10 109 -13 171
l-7 112 94 1 c52 1 123 6 159 13 36 7 68 11 71 9 4 -1 17 -29 29 -60z m-713
-100 c48 -32 113 -170 113 -243 0 -14 16 -58 35 -97 58 -118 44 -162 -64 -203
-83 -32 -147 -24 -171 20 -6 10 -17 56 -26 101 -8 45 -24 105 -34 133 -26 71
-50 168 -50 203 0 19 11 40 31 61 50 51 112 60 166 25z m690 -3 c42 -25 149
-161 182 -230 36 -77 36 -153 -1 -202 -33 -44 -87 -70 -155 -76 -115 -10 -152
40 -164 218 -4 58 -10 139 -14 180 -4 54 -2 79 7 91 35 42 94 50 145 19z"/>
</g>
</svg>
