<?xml version="1.0" standalone="no"?>
<!DOCTYPE svg PUBLIC "-//W3C//DTD SVG 20010904//EN"
 "http://www.w3.org/TR/2001/REC-SVG-20010904/DTD/svg10.dtd">
<svg version="1.0" xmlns="http://www.w3.org/2000/svg"
 width="726.000000pt" height="973.000000pt" viewBox="0 0 726.000000 973.000000"
 preserveAspectRatio="xMidYMid meet">
<metadata>
Created by potrace 1.16, written by Peter Selinger 2001-2019
</metadata>
<g transform="translate(0.000000,973.000000) scale(0.100000,-0.100000)"
fill="#000000" stroke="none">
<path d="M3363 9413 c-13 -2 -23 -11 -23 -19 0 -11 6 -13 20 -9 23 7 60 -2 60
-16 0 -5 -15 -9 -34 -9 -42 0 -66 -22 -66 -59 0 -40 17 -49 83 -49 l57 1 0 67
c0 42 -5 71 -13 78 -16 14 -56 21 -84 15z"/>
<path d="M3500 9329 c0 -77 1 -79 25 -79 23 0 24 4 27 63 3 54 5 62 23 62 18
0 20 -8 23 -62 3 -59 4 -63 27 -63 24 0 25 3 25 60 0 46 4 62 16 67 23 9 34
-15 34 -74 0 -46 3 -53 20 -53 18 0 20 7 20 64 0 35 -3 71 -6 80 -7 18 -69 22
-79 6 -4 -7 -11 -8 -18 -1 -7 5 -40 9 -74 9 l-63 0 0 -79z"/>
<path d="M1400 8870 c-88 -11 -171 -44 -228 -91 -26 -21 -70 -56 -98 -78 -43
-33 -56 -52 -92 -134 -34 -76 -42 -107 -42 -154 0 -64 20 -139 50 -190 11 -19
20 -44 20 -56 0 -12 11 -45 24 -73 19 -41 31 -54 63 -67 37 -14 40 -19 52 -74
8 -32 19 -69 26 -84 14 -26 80 -91 125 -121 l25 -17 -40 -36 c-40 -36 -66 -52
-290 -169 -278 -145 -326 -196 -380 -399 -34 -127 -40 -163 -80 -466 -39 -291
-48 -344 -75 -441 -11 -36 -49 -170 -85 -297 -36 -128 -75 -259 -86 -290 l-20
-58 25 -20 c23 -19 24 -21 9 -49 -41 -78 -53 -138 -53 -264 0 -134 10 -184 45
-228 20 -25 25 -27 39 -15 12 10 16 31 16 87 0 40 5 97 11 126 12 58 44 128
58 128 10 0 -4 -72 -19 -101 -26 -48 2 -115 38 -92 37 22 67 98 112 281 6 23
16 42 23 42 44 0 210 264 277 440 7 19 21 58 32 85 l18 50 -5 -75 c-3 -41 -7
-165 -10 -275 -2 -110 -7 -267 -10 -350 -4 -82 -2 -307 5 -500 28 -863 27
-943 -30 -2030 -5 -99 -12 -306 -16 -461 l-7 -281 -84 -54 c-47 -30 -107 -71
-134 -92 -72 -55 -80 -109 -19 -139 60 -30 148 -23 402 32 126 28 277 58 334
67 57 9 117 24 134 34 34 21 54 62 46 94 -4 13 2 26 16 37 l22 16 7 1009 c6
898 9 1035 28 1253 11 135 21 261 22 280 l1 35 8 -30 c7 -27 25 -260 61 -820
12 -174 6 -562 -11 -830 -14 -211 -24 -751 -16 -829 7 -57 11 -69 28 -74 16
-4 19 -11 14 -33 -12 -63 37 -113 124 -125 25 -3 180 -33 345 -65 311 -61 400
-70 460 -45 40 17 53 52 34 88 -16 30 -26 38 -135 103 -144 86 -132 65 -144
255 -27 425 -66 1568 -80 2328 -10 566 -19 732 -46 907 -28 177 -26 208 4 79
37 -154 38 -157 61 -151 18 4 19 -4 22 -148 4 -133 6 -156 23 -174 23 -25 30
-26 50 -5 11 11 16 35 16 82 0 78 14 113 26 66 14 -50 7 -136 -16 -217 -12
-43 -19 -85 -16 -93 17 -45 103 27 137 115 46 122 59 229 40 344 -8 47 -8 47
21 47 27 0 28 2 28 44 0 59 -65 936 -85 1146 -46 477 -101 681 -212 780 -54
49 -124 86 -282 151 -194 79 -321 160 -321 204 0 8 20 31 44 51 55 46 79 96
110 237 4 15 11 25 16 22 13 -8 50 12 72 39 9 12 23 46 29 76 7 30 22 75 34
100 34 69 37 100 20 201 -35 199 -103 279 -299 351 -70 26 -244 60 -286 57 -8
-1 -44 -5 -80 -9z m275 -45 c141 -36 273 -123 316 -207 22 -43 49 -173 49
-235 0 -54 -28 -129 -43 -114 -6 6 -28 11 -49 11 -32 0 -39 4 -44 24 -3 14 -3
29 0 35 11 17 -6 41 -29 41 -12 0 -39 7 -58 15 -52 21 -71 20 -64 -6 5 -18 2
-20 -26 -14 -18 4 -58 18 -90 32 -62 28 -75 26 -58 -6 11 -20 10 -20 -36 -15
-155 20 -206 33 -271 72 -69 41 -82 43 -82 13 0 -10 -14 -38 -31 -64 -17 -27
-33 -67 -37 -94 -7 -46 -9 -48 -42 -51 -19 -2 -40 -8 -47 -14 -19 -16 -29 -3
-48 64 -29 104 -25 151 24 246 23 46 54 93 68 105 15 12 51 44 81 71 30 26 74
57 97 67 107 47 289 58 420 24z m-421 -394 c55 -33 119 -50 240 -66 84 -10
123 -12 132 -4 9 7 26 6 59 -5 59 -21 125 -21 125 -1 0 12 4 12 33 0 31 -13
32 -15 32 -70 -1 -52 0 -56 20 -50 11 4 34 9 51 12 27 4 32 1 38 -21 9 -35 -9
-98 -33 -120 -14 -13 -28 -16 -48 -12 l-28 7 -12 -76 c-22 -137 -51 -179 -188
-274 -83 -58 -133 -75 -183 -66 -75 13 -242 126 -281 188 -11 19 -29 69 -39
112 -19 79 -19 79 -52 79 -46 1 -72 38 -74 107 l-1 54 42 3 c45 3 56 19 67 95
2 21 16 51 30 68 14 17 26 37 26 45 0 18 6 18 44 -5z m469 -722 c8 -28 -17
-66 -97 -149 -92 -95 -100 -94 -205 15 -58 60 -81 92 -81 110 0 31 5 31 71 0
84 -39 128 -42 191 -12 29 14 62 32 73 41 27 21 42 20 48 -5z m-321 -156 c32
-34 58 -68 58 -76 0 -14 -114 -127 -128 -127 -4 0 -15 12 -24 28 -10 15 -51
63 -92 107 -40 44 -72 83 -69 88 2 4 35 23 73 42 38 19 71 39 75 45 4 6 15 -1
28 -17 11 -15 47 -56 79 -90z m438 62 c89 -44 88 -40 18 -114 -35 -36 -80 -86
-100 -111 l-37 -45 -67 67 -68 67 70 73 c39 40 76 83 83 96 11 21 14 22 29 9
9 -8 42 -27 72 -42z m-546 -273 l27 -43 27 20 c15 11 54 47 87 80 58 58 62 60
99 54 31 -5 55 -21 109 -72 38 -36 74 -69 81 -73 9 -5 24 9 44 40 32 48 173
202 185 202 4 0 54 -20 112 -45 257 -110 297 -143 358 -295 53 -135 95 -449
137 -1025 11 -154 27 -368 35 -475 8 -107 15 -210 15 -227 l0 -33 -77 -1 c-43
0 -111 -4 -151 -8 l-72 -7 -10 36 c-23 78 -70 333 -86 460 -11 88 -18 238 -20
430 -5 333 -21 541 -43 548 -12 4 -13 -9 -8 -74 4 -44 12 -135 17 -204 6 -69
8 -190 4 -270 -4 -96 0 -214 10 -350 18 -232 20 -367 7 -403 -20 -52 -137 -65
-381 -43 -227 21 -323 20 -505 -4 -82 -11 -198 -23 -256 -27 -106 -6 -106 -6
-112 18 -18 63 -19 272 -3 450 13 136 16 263 14 480 -2 162 1 318 6 348 6 42
6 53 -5 49 -27 -9 -32 -71 -34 -378 -1 -310 -1 -317 -28 -414 -44 -156 -118
-321 -214 -471 -59 -91 -81 -115 -110 -115 -41 0 -243 73 -243 88 0 5 12 46
26 93 42 139 151 520 168 589 16 68 22 103 61 400 53 390 97 562 166 643 52
61 130 113 268 181 l110 54 79 -81 c44 -45 91 -101 106 -125z m915 -1834 c28
-141 47 -513 56 -1123 9 -606 41 -1543 70 -2029 8 -137 14 -250 12 -252 -1 -1
-151 -4 -334 -6 l-332 -3 -5 29 c-12 56 -6 466 11 771 25 476 22 849 -10 1270
-14 193 -32 445 -38 560 -11 191 -18 239 -34 223 -3 -3 -12 -86 -20 -184 -8
-99 -25 -294 -36 -434 -19 -226 -22 -366 -29 -1250 -4 -547 -8 -996 -9 -997 0
-2 -147 -3 -326 -3 l-325 0 0 158 c0 163 2 203 46 1092 28 570 29 971 4 1610
-7 162 -9 354 -5 427 l7 133 64 0 c35 0 164 12 286 26 182 21 249 25 363 20
409 -18 479 -18 520 -3 22 8 43 15 47 16 4 0 11 -23 17 -51z m-1772 -8 c84
-28 88 -31 85 -57 -7 -69 -76 -263 -93 -263 -12 0 -11 18 6 65 19 52 19 116 0
141 -15 19 -15 19 -31 -1 -9 -11 -30 -49 -47 -84 -24 -52 -31 -78 -33 -145 -4
-135 -2 -124 -19 -102 -26 34 -20 187 10 271 14 39 25 78 25 89 0 30 -25 2
-39 -43 -15 -53 -30 -61 -21 -12 6 36 59 171 66 171 2 0 43 -13 91 -30z m2127
-141 c3 -34 5 -87 5 -118 l-2 -56 -9 58 c-16 93 -34 67 -30 -44 3 -82 0 -103
-23 -166 -25 -67 -49 -103 -61 -91 -2 3 7 41 21 84 20 60 25 92 22 134 -6 73
-27 140 -44 140 -27 0 -54 -62 -52 -120 2 -88 1 -96 -13 -82 -9 9 -13 56 -13
160 l0 147 30 6 c17 4 60 7 96 8 l66 1 7 -61z m-117 -3365 c131 -78 183 -118
183 -141 0 -18 -53 -43 -94 -43 -65 0 -184 29 -367 89 -228 74 -287 89 -383
98 -75 6 -76 6 -69 32 3 14 11 29 17 33 6 4 140 8 298 8 l286 0 129 -76z
m-977 47 c0 -5 3 -16 6 -24 4 -12 -8 -16 -58 -22 -93 -10 -195 -38 -386 -104
-255 -89 -385 -111 -432 -73 -39 32 -19 57 118 147 l127 84 313 0 c183 1 312
-3 312 -8z"/>
<path d="M4100 8483 c-14 -2 -39 -10 -56 -18 -26 -12 -37 -12 -79 0 -61 19
-99 19 -162 0 -123 -37 -292 -194 -348 -324 -8 -18 -15 -65 -15 -105 -1 -39
-7 -89 -15 -111 -19 -52 -19 -90 0 -119 15 -22 14 -27 -4 -57 -23 -37 -28
-108 -10 -140 8 -15 6 -31 -6 -64 -14 -36 -15 -49 -5 -79 13 -41 28 -51 85
-61 22 -4 58 -19 80 -34 38 -24 46 -26 145 -23 80 2 111 -1 125 -12 20 -15 20
-15 0 -30 -11 -8 -30 -16 -42 -16 -12 0 -25 -4 -28 -10 -9 -14 -83 -45 -145
-60 -64 -15 -147 -52 -175 -77 -67 -60 -122 -164 -150 -286 -19 -82 -41 -284
-60 -547 -9 -118 -22 -262 -30 -319 -13 -94 -27 -149 -96 -406 -10 -38 -19
-89 -19 -113 0 -23 -11 -68 -24 -100 -62 -146 -71 -298 -25 -396 25 -55 62
-91 85 -82 14 5 15 17 9 94 -6 74 -4 95 13 137 34 87 54 68 29 -30 -15 -58
-12 -91 9 -99 22 -8 43 4 59 35 20 38 54 185 61 268 5 53 11 70 23 74 27 7
227 523 252 648 l13 64 13 -72 13 -72 -50 -153 c-102 -309 -124 -470 -195
-1418 -35 -465 -42 -541 -67 -707 -6 -45 -9 -86 -4 -90 6 -7 213 -20 349 -22
l47 -1 0 -53 c0 -86 27 -345 76 -732 l46 -360 -12 -161 c-6 -88 -11 -195 -11
-238 1 -138 46 -196 151 -196 100 0 139 59 140 210 0 52 -5 111 -11 130 -20
67 -38 266 -39 415 0 83 9 265 20 405 11 140 20 326 20 413 0 126 3 157 14
157 15 0 26 -68 26 -175 0 -96 24 -360 65 -732 29 -259 34 -323 26 -380 -6
-37 -13 -120 -16 -183 -7 -140 9 -201 64 -237 40 -27 117 -31 160 -8 63 32 86
162 58 321 -55 309 -56 399 -12 826 14 134 28 318 32 411 6 161 7 167 27 167
59 1 264 21 296 30 61 16 62 20 41 186 -11 82 -22 187 -26 234 -18 230 -96
1039 -110 1140 -22 161 -51 315 -86 455 -32 127 -39 150 -88 283 -30 81 -31
86 -19 155 13 79 13 78 48 -53 42 -158 211 -587 237 -603 9 -5 13 -30 13 -78
0 -146 33 -279 70 -279 34 0 43 26 36 106 -6 60 -4 75 6 72 7 -3 19 -29 26
-59 12 -46 12 -64 -1 -123 -8 -38 -13 -75 -10 -82 9 -25 42 -14 87 29 39 37
45 49 53 102 4 33 8 89 7 125 -1 84 -56 331 -117 527 -45 143 -66 270 -87 518
-38 447 -75 653 -141 789 -59 122 -134 176 -302 221 -119 32 -237 78 -237 93
0 5 18 17 41 27 38 18 42 18 69 2 36 -22 67 -21 164 3 97 24 126 47 126 104 0
23 9 55 19 72 32 53 35 87 9 141 -17 37 -21 61 -18 103 17 231 -31 406 -137
500 -79 69 -250 179 -291 185 -68 11 -77 12 -102 8z m148 -60 c59 -28 214
-140 250 -181 39 -44 80 -142 99 -234 15 -76 16 -97 4 -176 -12 -88 -12 -89
15 -144 l27 -55 -27 -58 c-14 -31 -26 -75 -26 -96 0 -46 -17 -57 -131 -89 -73
-20 -73 -20 -111 0 -49 25 -74 25 -116 0 -18 -11 -37 -18 -43 -15 -21 14 -5
41 64 105 49 45 82 87 102 126 36 73 33 70 47 56 35 -35 91 7 70 52 -7 16 -6
27 4 41 22 29 36 94 30 130 -8 43 -41 57 -103 46 -29 -6 -54 -6 -65 0 -25 13
-65 69 -73 102 -7 26 -10 27 -64 25 -67 -2 -117 18 -155 62 -31 37 -39 37 -64
2 -20 -28 -96 -72 -124 -72 -9 0 -27 9 -41 20 -14 11 -27 20 -30 20 -2 0 -18
-22 -35 -50 -32 -51 -123 -120 -159 -120 -10 0 -29 -7 -41 -16 -27 -19 -30
-79 -7 -144 8 -23 15 -55 15 -71 0 -37 33 -61 68 -48 13 5 26 8 27 7 1 -2 12
-22 24 -45 28 -55 71 -104 132 -149 56 -41 77 -70 60 -87 -7 -7 -15 -7 -25 2
-9 8 -49 11 -123 9 -100 -3 -110 -1 -142 21 -18 13 -54 28 -80 32 -75 14 -101
61 -60 113 21 27 21 28 4 66 -20 44 -16 102 10 130 20 22 19 41 -2 78 -16 28
-16 35 -3 79 7 26 16 86 19 133 5 75 11 94 41 145 49 83 161 193 240 235 56
30 74 35 135 35 52 0 77 -5 98 -19 25 -17 29 -17 51 -3 61 40 127 40 214 0z
m-207 -339 c25 -30 87 -54 141 -54 50 0 54 -2 65 -30 11 -30 11 -30 -23 -30
-35 0 -101 -27 -91 -37 3 -3 25 2 49 11 49 19 67 15 128 -30 35 -25 78 -29
121 -10 10 4 23 0 34 -10 22 -22 14 -84 -17 -126 -16 -24 -25 -28 -46 -23 -27
7 -42 -7 -42 -40 -1 -69 -99 -196 -213 -276 -59 -41 -78 -49 -115 -49 -95 0
-258 119 -322 234 -22 39 -40 78 -40 87 0 11 -12 18 -39 23 -31 5 -42 12 -55
40 -19 41 -21 112 -3 119 7 3 25 3 40 0 19 -4 27 -1 27 8 0 17 73 56 121 64
23 4 49 1 74 -9 44 -19 45 -19 45 -7 0 17 -61 34 -105 29 l-44 -5 31 38 c25
31 36 38 52 32 51 -16 101 -6 148 31 49 39 60 42 79 20z m132 -812 c13 -20 28
-3 17 18 -19 35 -10 42 21 16 17 -14 34 -26 39 -26 16 0 2 -63 -16 -73 -30
-17 -340 -22 -370 -7 -32 18 -34 74 -3 91 20 10 21 9 15 -15 -3 -14 -3 -26 2
-26 15 0 32 49 32 90 0 44 3 46 40 25 34 -19 117 -18 160 3 l35 17 10 -50 c6
-27 14 -56 18 -63z m300 -61 c101 -26 146 -51 197 -108 103 -116 146 -297 195
-828 29 -317 49 -428 110 -629 24 -78 45 -155 46 -171 4 -28 3 -29 -76 -46
-118 -26 -117 -27 -142 34 -12 28 -40 97 -63 152 -85 207 -146 411 -173 579
-3 17 -1 93 4 170 9 148 1 307 -16 313 -6 2 -10 -66 -11 -189 0 -189 -7 -265
-41 -439 l-16 -87 43 -113 c116 -311 163 -592 235 -1429 31 -362 67 -697 81
-772 5 -24 2 -28 -33 -37 -109 -29 -685 -54 -963 -41 -118 5 -284 12 -369 16
l-153 7 6 41 c24 160 37 287 56 536 79 1084 105 1288 212 1619 46 143 46 151
7 396 -16 102 -22 186 -23 312 -1 107 -5 172 -11 170 -22 -8 -26 -90 -14 -307
11 -205 10 -233 -6 -310 -19 -95 -59 -214 -135 -405 -29 -71 -59 -148 -67
-169 -28 -78 -25 -76 -95 -60 -35 8 -80 19 -102 25 l-39 10 6 47 c3 26 23 110
45 187 56 199 69 284 92 600 24 319 41 451 75 582 54 206 121 281 290 324 88
23 142 12 157 -33 6 -15 14 -28 19 -28 5 0 9 -9 9 -20 0 -10 8 -27 19 -37 10
-10 22 -28 25 -40 4 -14 19 -26 34 -30 15 -3 33 -15 40 -25 15 -20 52 -24 70
-6 9 9 12 9 12 0 0 -6 9 -16 21 -22 16 -9 26 -8 44 4 13 9 31 13 39 10 24 -9
66 4 66 21 0 7 12 15 27 17 20 2 30 11 38 33 5 16 18 38 28 48 10 10 15 22 11
28 -3 6 1 16 10 22 9 7 17 23 19 36 2 15 16 31 38 42 42 23 32 23 122 0z
m-247 -54 c4 -4 2 -7 -5 -7 -7 0 -19 -16 -27 -35 -8 -19 -19 -35 -24 -35 -6 0
-10 -7 -10 -15 0 -8 -9 -15 -19 -15 -11 0 -27 -7 -35 -15 -11 -12 -21 -13 -33
-6 -10 5 -30 7 -44 4 -15 -3 -30 0 -33 6 -4 6 -15 11 -24 11 -20 0 -72 55 -72
75 0 7 -7 16 -16 19 -39 15 7 21 165 21 93 -1 173 -4 177 -8z m-983 -1768 c36
-10 37 -11 37 -57 0 -90 -59 -317 -77 -299 -3 4 0 38 7 75 11 60 11 72 -4 100
-27 52 -39 43 -80 -62 -25 -61 -27 -76 -21 -145 6 -69 6 -74 -8 -55 -9 11 -20
48 -27 82 -10 55 -8 72 10 135 23 85 25 100 8 95 -7 -3 -20 -29 -30 -59 -17
-54 -17 -54 -17 -17 -1 39 28 137 60 200 20 40 19 40 142 7z m1815 -68 c26
-103 29 -160 5 -93 -8 23 -19 42 -25 42 -11 0 -8 -33 13 -123 12 -51 11 -63
-6 -113 -10 -30 -27 -60 -38 -66 -19 -10 -20 -8 -13 28 19 102 18 115 -4 184
-24 75 -30 83 -53 74 -28 -10 -39 -58 -32 -131 6 -51 4 -65 -4 -57 -33 31 -66
293 -40 310 18 12 106 31 145 33 30 1 30 0 52 -88z m-1144 -1781 l139 0 -6
-232 c-3 -128 -13 -318 -22 -423 -17 -186 -16 -408 1 -688 7 -108 -1 -137 -43
-156 -35 -16 -85 -13 -111 7 -35 27 -43 81 -30 219 13 133 14 119 -42 543 -52
393 -70 561 -70 654 0 87 0 88 23 82 12 -3 85 -6 161 -6z m553 -162 c-3 -95
-11 -207 -16 -248 -32 -245 -43 -439 -37 -629 3 -108 9 -232 12 -275 10 -130
-17 -185 -98 -193 -32 -3 -49 1 -68 16 -28 22 -27 9 -20 286 2 86 -5 176 -24
315 -37 286 -65 586 -68 745 l-3 140 130 5 c72 3 145 7 164 8 l34 2 -6 -172z
m-7 -1357 c0 -118 -26 -166 -96 -177 -61 -9 -91 1 -114 38 -18 30 -38 133 -28
144 3 2 22 -3 44 -12 56 -23 118 -14 149 22 14 16 25 35 25 42 0 6 5 12 10 12
6 0 10 -30 10 -69z m-400 -63 c-16 -89 -33 -109 -96 -115 -62 -6 -101 9 -115
44 -12 32 -30 135 -25 141 2 2 18 -4 35 -12 34 -18 97 -21 134 -7 14 6 33 24
43 41 l19 31 9 -27 c5 -17 4 -52 -4 -96z"/>
<path d="M6116 7895 c-32 -19 -68 -35 -80 -35 -33 0 -117 -25 -162 -48 -81
-41 -149 -146 -174 -265 -12 -61 -9 -92 18 -169 12 -38 21 -48 38 -48 20 0 23
-8 34 -72 22 -134 37 -174 92 -239 l52 -62 -24 -16 c-69 -45 -109 -82 -142
-131 -84 -125 -107 -280 -118 -805 -4 -209 -6 -383 -3 -387 2 -5 20 -8 39 -8
33 0 34 -1 27 -27 -23 -83 4 -127 104 -168 13 -6 63 -551 63 -682 0 -26 4 -33
19 -33 22 0 21 5 42 -332 11 -183 11 -188 -9 -205 -26 -23 -38 -136 -16 -158
23 -23 17 -52 -13 -60 -61 -15 -263 -165 -263 -195 0 -22 41 -49 90 -59 32 -7
103 -9 189 -5 l137 6 32 -31 c21 -19 52 -34 86 -42 61 -13 167 -8 211 11 17 7
40 15 53 17 13 2 65 18 115 36 80 28 94 37 109 66 24 47 18 165 -10 220 -20
38 -21 44 -7 64 8 12 15 33 15 47 0 37 -24 98 -44 113 -17 12 -17 19 -3 113 9
54 21 165 28 246 11 124 16 149 30 153 24 8 27 56 35 475 7 375 -1 499 -36
612 -14 44 -17 77 -13 141 l6 83 43 18 c88 36 174 136 188 218 21 117 -78 448
-172 574 -57 77 -222 183 -325 209 -15 4 -27 9 -27 11 0 1 9 19 21 38 14 24
28 36 43 36 51 0 96 63 96 135 0 39 9 43 44 20 42 -28 86 -35 133 -24 48 13
56 34 23 64 -35 31 -49 100 -47 225 2 107 0 118 -25 165 -72 136 -231 225
-401 225 -77 0 -87 -2 -141 -35z m321 -32 c46 -18 83 -43 123 -82 89 -87 94
-102 95 -267 0 -137 1 -141 28 -183 23 -35 26 -45 15 -53 -30 -20 -144 24
-132 52 40 93 44 160 13 252 -37 113 -132 213 -224 237 -27 7 -49 22 -69 47
l-29 37 56 -7 c32 -3 87 -18 124 -33z m-118 -69 c65 -21 94 -38 137 -76 76
-70 108 -141 109 -238 0 -89 -30 -170 -64 -170 -31 0 -127 94 -148 145 -25 61
-39 51 -35 -23 3 -59 2 -62 -22 -68 -79 -19 -179 34 -192 102 -9 51 -29 36
-29 -22 0 -67 -7 -74 -69 -74 -61 0 -69 6 -89 75 -20 71 -41 66 -47 -10 l-5
-60 -55 -7 c-61 -7 -64 -5 -81 57 -22 80 11 206 77 292 31 41 93 78 164 98 85
23 243 14 349 -21z m-405 -429 c6 -24 10 -25 75 -25 54 0 74 4 94 20 l26 21
42 -22 c24 -12 68 -24 100 -26 52 -5 60 -3 84 21 l27 27 31 -33 c18 -18 32
-42 32 -52 0 -16 7 -20 35 -20 31 -1 35 -4 38 -31 1 -17 -6 -44 -18 -63 -19
-31 -23 -33 -59 -27 -36 6 -39 5 -44 -22 -12 -62 -151 -180 -239 -204 -71 -19
-115 -4 -186 65 -86 82 -110 127 -128 233 -18 116 -19 111 24 115 30 2 38 7
40 26 4 29 18 28 26 -3z m518 -374 c116 -46 159 -72 218 -131 93 -94 153 -233
200 -463 20 -101 20 -110 6 -162 -12 -38 -29 -67 -61 -99 -45 -46 -118 -90
-137 -84 -9 3 -62 140 -75 194 -4 17 7 26 76 57 45 21 81 42 81 47 0 15 -24
12 -76 -10 -52 -23 -64 -17 -64 28 0 13 -5 43 -11 68 -11 44 -11 46 20 74 39
36 41 77 6 110 -21 20 -31 22 -75 17 -33 -4 -61 -1 -85 8 -19 8 -58 15 -87 15
-43 0 -57 5 -77 25 -33 36 -107 31 -133 -9 -12 -17 -9 -55 4 -79 7 -12 13 -51
13 -87 0 -49 6 -75 24 -107 l24 -41 -32 -34 c-17 -18 -43 -51 -58 -73 -17 -27
-40 -47 -68 -58 -23 -10 -52 -28 -64 -41 -20 -21 -21 -26 -8 -37 11 -11 12
-19 4 -36 -7 -17 -7 -30 2 -46 10 -18 10 -34 2 -64 -12 -45 -5 -97 15 -114 8
-7 29 -9 50 -6 25 4 34 3 30 -6 -3 -7 -9 -19 -12 -28 -5 -15 -13 -15 -77 -3
-40 8 -84 14 -99 14 -50 0 -52 13 -44 402 5 223 4 358 -2 358 -17 0 -22 -58
-28 -378 -5 -231 -3 -329 5 -360 9 -34 9 -60 0 -117 l-13 -73 -74 -11 c-41 -6
-76 -10 -78 -9 -6 8 17 755 26 833 29 241 78 339 214 430 47 32 67 29 78 -10
14 -53 40 -77 91 -82 105 -12 225 74 241 172 2 17 5 31 5 33 3 8 40 -2 103
-27z m22 -381 c48 -23 96 -90 96 -135 0 -74 -82 -139 -176 -138 -52 0 -80 11
-120 45 -33 29 -58 99 -50 141 16 86 153 134 250 87z m-174 -285 c34 -20 143
-19 182 1 37 19 34 22 89 -94 45 -92 82 -225 77 -274 -2 -25 -8 -33 -23 -33
-24 0 -59 66 -110 209 -19 55 -37 101 -40 104 -3 3 -23 -1 -45 -8 -30 -10 -46
-10 -64 -2 -14 6 -40 8 -59 5 -32 -5 -36 -10 -92 -135 -63 -142 -109 -211
-142 -216 -24 -4 -37 32 -27 76 14 61 136 294 175 337 23 25 44 45 48 45 3 -1
17 -7 31 -15z m192 -210 c16 -44 32 -88 35 -97 5 -16 -2 -18 -43 -18 -27 -1
-69 -5 -94 -10 -65 -12 -70 -4 -70 105 0 50 2 94 5 97 3 3 35 4 71 4 l66 -1
30 -80z m-196 -123 l10 -37 62 3 c37 2 62 -1 62 -7 0 -18 -58 -70 -85 -77 -62
-16 -155 31 -155 77 0 36 23 69 54 78 37 10 38 9 52 -37z m265 -38 c7 -14 27
-37 43 -51 25 -21 27 -26 15 -39 -19 -18 -120 -54 -154 -54 -23 0 -25 4 -25
45 0 25 6 61 14 80 12 27 21 34 48 38 18 2 36 5 39 5 3 1 12 -10 20 -24z
m-342 -87 c24 -14 37 -27 32 -33 -5 -5 -24 -74 -41 -154 -18 -80 -39 -156 -47
-168 -14 -23 -15 -23 -28 -5 -8 11 -32 26 -55 33 l-42 14 6 45 c5 38 119 291
131 291 1 0 21 -10 44 -23z m193 -74 c4 -165 -7 -259 -35 -296 -10 -15 -17
-16 -41 -7 -22 8 -35 7 -58 -5 l-31 -15 6 38 c3 20 21 102 40 182 32 136 36
145 63 157 51 21 54 18 56 -54z m253 -16 c32 -112 37 -223 29 -635 -3 -221 -9
-404 -13 -406 -3 -2 -80 -5 -170 -7 l-164 -4 -34 180 c-18 99 -40 241 -49 315
-9 74 -18 137 -20 139 -2 3 -9 0 -15 -6 -8 -8 -8 -65 0 -206 12 -217 14 -370
4 -406 l-6 -24 -146 7 c-80 4 -147 9 -149 11 -2 2 -8 81 -12 177 -10 185 -11
194 -36 393 -18 144 -15 365 6 448 11 41 16 47 38 47 23 0 152 -20 152 -24 0
0 -16 -39 -35 -86 -44 -109 -48 -188 -10 -225 45 -46 129 -24 161 43 9 19 26
82 38 140 12 58 28 108 35 110 13 4 13 5 -25 -151 -32 -129 -31 -160 2 -186
55 -43 131 -12 166 67 16 35 23 76 27 166 l6 118 74 19 c41 11 84 25 95 33 28
19 33 14 51 -47z m-366 -962 c12 -65 27 -114 36 -121 16 -12 16 -14 41 -315
l16 -197 -21 -21 c-15 -15 -21 -35 -23 -68 -2 -66 1 -87 12 -91 6 -2 10 -13
10 -25 0 -20 -16 -31 -91 -65 -4 -2 -10 10 -14 25 -3 15 -14 36 -22 45 -14 16
-14 21 1 52 20 42 20 46 0 106 -10 32 -23 52 -36 56 -16 5 -19 12 -14 32 3 15
15 104 26 197 11 94 27 213 35 265 9 52 15 128 15 169 0 41 2 72 4 70 2 -2 14
-53 25 -114z m-80 -131 c10 -9 -51 -459 -64 -472 -11 -11 -108 -20 -129 -12
-19 7 -24 18 -30 72 -11 109 -26 410 -20 420 5 8 233 1 243 -8z m421 -32 c0
-73 -20 -253 -39 -355 -19 -104 -19 -104 -123 -106 -49 -1 -58 2 -58 17 0 9
-6 82 -14 162 -8 80 -17 184 -21 232 l-7 87 49 4 c26 2 85 4 131 5 l82 2 0
-48z m-422 -530 c12 -38 12 -45 -2 -67 -28 -43 -165 -68 -229 -41 l-38 15 7
53 c4 29 9 55 11 58 8 10 138 28 187 27 49 -2 50 -2 64 -45z m419 5 c12 -30
13 -43 4 -66 -10 -24 -22 -30 -81 -45 -79 -19 -108 -20 -147 -5 -37 14 -39 18
-35 78 3 44 7 52 28 57 48 12 130 22 173 20 40 -1 44 -4 58 -39z m-471 -194
c-46 -40 -145 -56 -180 -30 -15 11 -17 19 -9 43 9 27 13 29 54 26 24 -1 69 4
99 11 52 12 55 12 58 -7 3 -13 -6 -29 -22 -43z m454 52 c0 -25 -34 -77 -58
-89 -39 -20 -108 -35 -131 -29 -29 7 -45 54 -30 86 11 24 16 26 48 21 20 -3
54 -1 76 4 45 11 95 15 95 7z m-379 -61 c13 -36 6 -54 -38 -88 -43 -35 -221
-102 -311 -117 -90 -16 -192 -2 -192 27 0 18 123 120 183 150 l48 25 26 -32
c25 -30 29 -31 87 -27 70 4 152 39 161 69 9 27 24 24 36 -7z m424 -14 c12 -55
-3 -88 -53 -117 -26 -15 -72 -43 -102 -63 -126 -85 -200 -108 -289 -89 -62 13
-101 34 -101 56 0 16 164 176 211 206 28 18 29 18 35 0 20 -64 51 -79 126 -64
66 14 118 46 136 84 16 32 28 28 37 -13z"/>
<path d="M6093 3206 c-22 -7 -55 -23 -72 -35 -17 -12 -47 -25 -66 -28 -86 -14
-178 -145 -178 -252 0 -56 25 -121 46 -121 5 0 6 -20 2 -46 -6 -44 7 -101 27
-115 4 -3 15 -31 23 -63 l15 -58 -38 -43 c-20 -23 -61 -80 -89 -127 -81 -132
-171 -204 -320 -252 -29 -10 -55 -22 -58 -27 -4 -5 -26 -9 -51 -9 -25 0 -54
-5 -64 -10 -26 -14 -45 -86 -31 -117 6 -13 11 -37 11 -54 0 -23 7 -34 30 -47
16 -9 30 -23 30 -29 0 -22 59 -14 98 12 24 16 51 25 77 25 81 0 228 55 299
112 l39 31 -7 -29 c-9 -37 -51 -102 -85 -132 -14 -12 -60 -36 -101 -53 -41
-17 -137 -71 -215 -119 -77 -49 -163 -96 -192 -106 -49 -17 -55 -17 -145 0
-95 18 -134 15 -175 -10 -47 -29 -22 -117 61 -220 77 -97 176 -142 275 -128
48 7 202 62 456 162 83 33 151 57 153 52 1 -4 -22 -60 -53 -124 -71 -148 -106
-185 -203 -216 -89 -28 -132 -70 -132 -129 0 -48 16 -64 149 -155 92 -63 107
-70 161 -74 110 -8 144 15 216 145 43 78 75 115 291 332 194 196 248 256 272
305 32 63 51 141 51 208 0 32 9 51 44 96 69 90 90 139 106 252 23 169 -87 449
-214 538 -53 38 -54 55 -8 105 18 18 26 39 27 65 0 20 8 51 16 67 9 17 21 50
28 75 11 42 11 49 -13 90 -14 25 -26 53 -26 63 0 23 -146 166 -189 184 -48 21
-225 27 -278 9z m237 -30 c46 -11 66 -24 126 -82 57 -56 73 -78 82 -116 7 -26
16 -50 22 -53 25 -15 -3 -143 -30 -137 -8 2 -27 5 -42 7 -16 2 -40 13 -54 24
-15 12 -41 21 -58 21 -19 0 -53 13 -81 31 -39 25 -55 29 -82 24 -25 -4 -44 -1
-69 14 -42 25 -58 27 -50 6 4 -12 -5 -15 -52 -15 -31 1 -68 7 -82 15 -61 35
-109 7 -117 -69 -6 -53 -18 -51 -33 5 -22 80 42 213 118 245 20 9 57 26 82 37
107 50 126 56 195 56 39 1 95 -5 125 -13z m-383 -290 c24 -8 96 -16 172 -19
121 -4 134 -6 171 -31 23 -15 54 -26 73 -26 47 0 79 -25 71 -56 -8 -30 3 -31
34 -1 l24 22 19 -24 c10 -13 19 -29 19 -36 0 -19 -38 -63 -61 -70 -16 -5 -19
-12 -13 -41 6 -32 2 -38 -54 -93 -38 -37 -89 -73 -136 -96 -105 -52 -154 -48
-257 21 -89 59 -107 90 -121 212 -18 159 -20 222 -8 237 15 18 18 18 67 1z
m503 -520 c-41 -135 -96 -207 -191 -255 -75 -37 -131 -46 -202 -31 -68 14
-119 59 -135 120 -12 47 5 253 19 244 5 -3 9 -58 9 -122 0 -174 29 -216 150
-216 152 -1 269 120 342 354 l23 74 3 -48 c2 -29 -5 -76 -18 -120z m107 122
c74 -78 141 -226 163 -361 22 -140 -26 -271 -145 -396 -77 -81 -182 -151 -225
-151 -44 0 -107 81 -96 124 3 12 47 60 97 106 110 100 140 155 147 264 5 78
-12 160 -31 153 -7 -3 -10 -11 -8 -18 2 -8 6 -48 8 -89 7 -104 -21 -176 -92
-245 -126 -123 -162 -151 -202 -163 -40 -12 -88 -56 -78 -72 3 -4 -2 -13 -10
-20 -22 -18 -18 -39 10 -52 14 -6 25 -17 25 -25 0 -7 8 -17 18 -20 9 -4 22
-13 28 -21 25 -34 148 -18 171 22 4 7 25 19 45 25 20 7 65 34 100 60 98 72 92
72 84 10 -17 -136 -54 -189 -303 -438 -220 -220 -273 -282 -321 -377 -28 -55
-71 -104 -92 -104 -4 0 -18 16 -31 35 -28 41 -130 125 -191 157 -29 16 -58 23
-90 21 -27 0 -48 2 -48 7 0 19 56 61 103 76 71 23 118 48 143 76 12 12 63 106
114 208 91 184 149 289 178 323 8 9 12 20 8 24 -10 10 -55 -45 -107 -132 l-43
-71 -121 -46 c-66 -25 -195 -76 -287 -111 -183 -72 -259 -92 -310 -82 -28 6
-36 14 -56 59 -26 60 -121 184 -158 206 -65 39 13 63 118 35 114 -29 183 -8
361 108 45 30 132 77 192 106 61 29 123 65 138 79 36 34 80 121 97 191 13 55
20 271 9 271 -9 0 -19 -55 -19 -105 0 -75 -11 -105 -61 -159 -56 -61 -128
-100 -232 -123 -66 -15 -70 -15 -95 4 -28 21 -48 66 -54 123 -2 28 1 36 22 45
233 109 287 150 359 274 22 37 56 87 75 110 l34 41 -1 -148 c-2 -139 -1 -149
21 -180 62 -86 231 -103 362 -37 113 57 203 211 217 370 3 41 9 75 12 75 4 0
25 -19 48 -42z m-147 -63 c-47 -137 -142 -257 -226 -285 -56 -20 -134 -18
-166 4 -37 25 -48 64 -48 179 0 95 1 99 18 85 9 -9 37 -26 61 -38 89 -44 206
-16 326 78 28 22 51 39 53 38 1 -2 -7 -29 -18 -61z m-814 -1550 c86 -36 243
-185 196 -185 -34 0 -112 35 -151 68 -25 21 -60 46 -76 54 -17 9 -39 25 -49
37 -18 20 -18 21 5 30 33 13 35 13 75 -4z"/>
</g>
</svg>
