<?xml version="1.0" standalone="no"?>
<!DOCTYPE svg PUBLIC "-//W3C//DTD SVG 20010904//EN"
 "http://www.w3.org/TR/2001/REC-SVG-20010904/DTD/svg10.dtd">
<svg version="1.0" xmlns="http://www.w3.org/2000/svg"
 width="702.000000pt" height="720.000000pt" viewBox="0 0 702.000000 720.000000"
 preserveAspectRatio="xMidYMid meet">
<metadata>
Created by potrace 1.16, written by Peter Selinger 2001-2019
</metadata>
<g transform="translate(0.000000,720.000000) scale(0.100000,-0.100000)"
fill="#000000" stroke="none">
<path d="M4770 6813 c-122 -14 -281 -99 -356 -189 -109 -133 -93 -336 36 -478
34 -38 38 -47 44 -119 l7 -77 -39 -48 c-41 -49 -133 -208 -147 -252 -4 -14
-41 -94 -81 -178 -41 -84 -74 -158 -75 -165 -1 -34 -69 -174 -104 -216 -22
-26 -88 -82 -146 -124 -58 -42 -135 -104 -172 -138 -112 -102 -177 -247 -177
-395 0 -111 33 -182 144 -309 33 -38 46 -59 38 -64 -40 -25 -164 -142 -267
-252 -27 -30 -79 -74 -114 -99 -35 -25 -99 -79 -142 -121 -52 -50 -83 -73 -91
-67 -22 13 -65 9 -88 -10 -14 -12 -26 -39 -36 -85 -8 -38 -25 -82 -38 -100
-34 -44 -62 -121 -71 -190 -6 -53 -4 -62 19 -98 14 -21 26 -47 26 -57 0 -11
10 -32 22 -47 l21 -27 -18 -97 c-10 -53 -22 -113 -27 -134 l-9 -38 -97 8
c-164 14 -475 8 -602 -11 -63 -9 -133 -20 -155 -23 -35 -4 -58 4 -185 68 -80
40 -162 83 -183 96 l-39 24 -121 -15 c-67 -8 -189 -23 -272 -32 -82 -8 -229
-26 -325 -39 -96 -13 -239 -32 -317 -42 -81 -10 -139 -21 -134 -26 8 -8 506
49 523 59 4 3 51 9 105 14 54 5 163 16 243 25 80 8 178 18 218 21 l74 7 169
-84 c93 -46 169 -87 169 -90 0 -3 -43 -16 -96 -29 -146 -35 -265 -98 -373
-196 -19 -18 -24 -35 -29 -94 -4 -62 -2 -75 17 -100 12 -17 17 -31 11 -35 -12
-7 -155 -20 -405 -36 -201 -13 -240 -25 -169 -55 45 -19 259 -125 419 -209
159 -84 296 -153 498 -251 l179 -87 101 7 c56 4 167 9 247 11 80 3 183 8 230
12 47 3 166 7 265 8 332 4 610 15 613 25 2 5 -43 32 -100 59 -132 64 -162 82
-288 175 -57 42 -107 76 -112 76 -22 0 -4 23 30 36 20 8 51 21 67 29 72 35 79
35 151 6 66 -27 150 -66 439 -204 197 -94 672 -334 703 -355 15 -11 44 -30 64
-43 60 -39 72 -36 -287 -62 -121 -9 -344 -21 -495 -27 -151 -6 -306 -15 -345
-20 -246 -32 -482 -57 -615 -66 -47 -3 -89 -10 -94 -15 -6 -6 -6 -9 0 -10 32
-3 131 3 199 11 521 65 602 73 1025 90 135 6 295 15 355 20 61 5 159 12 219
16 l109 7 -7 -49 c-4 -27 -13 -85 -21 -129 -27 -144 -45 -265 -45 -290 0 -18
-5 -25 -20 -25 -11 0 -20 -4 -20 -10 0 -5 5 -10 10 -10 20 0 2 -158 -22 -187
-6 -7 -8 -20 -4 -28 3 -8 -1 -50 -9 -93 -9 -42 -20 -103 -27 -135 -9 -50 -7
-80 6 -66 2 2 11 47 20 99 24 143 34 173 54 165 26 -11 271 -45 323 -45 59 0
178 31 222 59 28 17 40 34 56 83 23 67 29 182 10 194 -18 11 -2 124 38 269 46
167 68 270 93 422 20 125 34 163 96 260 44 69 77 148 105 253 22 78 23 105 24
347 l0 261 50 69 c28 37 52 73 54 78 2 6 15 27 27 47 13 21 36 68 51 105 25
62 28 80 28 193 0 136 -3 147 -79 313 -46 99 -70 132 -122 162 -51 30 -61 51
-35 79 36 39 81 127 81 157 l0 30 58 -7 c105 -13 136 -9 213 28 175 84 245
234 189 403 -16 49 -34 80 -66 112 -40 40 -94 143 -94 178 0 7 -9 22 -20 35
-14 16 -20 18 -20 9 0 -8 4 -19 9 -25 9 -10 41 -106 41 -123 0 -7 -25 -11 -63
-11 -80 0 -145 -31 -227 -107 l-59 -54 -17 28 c-9 15 -34 53 -55 84 -65 96
-172 340 -155 356 3 3 19 0 37 -6 18 -6 45 -11 60 -11 15 0 31 -4 34 -10 12
-20 260 -90 320 -90 23 0 46 -5 53 -12 9 -9 12 -9 12 1 0 7 10 27 23 44 13 18
38 68 57 112 68 160 119 263 144 290 14 15 26 34 26 41 0 17 24 29 71 38 20 4
56 21 80 38 39 28 52 32 115 32 60 1 81 6 145 38 93 46 172 125 189 188 14 52
4 156 -20 222 -34 90 -141 204 -242 258 -51 28 -58 35 -73 83 -33 101 -120
256 -250 445 -64 92 -233 203 -361 237 -61 16 -157 13 -251 -7 -38 -8 -59 -8
-80 0 -275 108 -355 124 -523 105z m224 -24 c69 -12 274 -85 297 -106 15 -12
24 -12 71 2 31 8 99 16 154 17 94 2 103 0 181 -34 95 -42 196 -111 247 -170
39 -44 188 -281 228 -364 14 -27 35 -82 48 -121 22 -66 27 -73 51 -73 36 0
138 -77 199 -151 63 -75 84 -139 83 -251 l-1 -87 -43 -50 c-61 -70 -144 -120
-225 -134 -51 -9 -69 -8 -85 1 -17 11 -25 9 -57 -16 -53 -41 -55 -42 -147 -67
-72 -20 -94 -22 -176 -15 -52 4 -114 15 -139 23 -182 62 -240 95 -337 191 -64
63 -83 88 -83 109 l0 27 -97 0 c-62 1 -113 6 -138 16 -22 8 -77 28 -122 44
-45 16 -107 45 -138 65 -79 53 -183 168 -215 240 -31 68 -49 183 -31 195 17
10 4 36 -25 48 -24 12 -72 79 -113 160 -17 33 -22 61 -23 123 0 98 28 163 102
235 95 92 204 139 360 153 69 7 82 6 174 -10z m-459 -924 c31 -64 149 -188
230 -241 85 -57 263 -114 373 -121 92 -6 93 -6 109 -37 27 -53 143 -164 209
-201 35 -20 116 -53 182 -75 98 -33 134 -40 210 -42 103 -3 108 -8 67 -62 -13
-17 -41 -68 -60 -111 -20 -44 -43 -93 -51 -110 -9 -16 -25 -54 -36 -84 -11
-29 -30 -65 -42 -78 -20 -24 -25 -25 -91 -18 -80 8 -211 46 -274 81 -24 13
-55 24 -70 24 -14 0 -44 6 -66 13 -49 15 -226 114 -280 157 -56 44 -144 95
-189 110 -56 18 -136 68 -216 136 l-70 59 0 65 c0 36 -4 81 -10 99 -13 47 -57
91 -91 91 -32 0 -69 -41 -69 -76 0 -28 -12 -31 -30 -9 -10 12 -11 24 -2 48 16
48 70 179 84 202 6 11 29 52 51 90 35 62 93 145 102 145 1 0 15 -25 30 -55z
m-223 -490 c16 -14 35 -25 42 -25 20 0 46 -55 46 -97 0 -45 16 -68 37 -52 7 7
13 18 13 25 0 25 21 15 83 -39 34 -29 79 -64 99 -77 21 -14 38 -27 38 -30 0
-3 -13 -11 -30 -18 -41 -19 -38 -32 8 -32 49 0 102 -44 140 -115 15 -27 39
-56 54 -64 24 -14 28 -14 47 3 14 13 21 31 21 58 0 21 2 38 5 38 3 0 29 -15
58 -34 28 -18 86 -54 128 -79 73 -44 76 -48 87 -97 7 -28 24 -77 38 -108 15
-31 40 -86 55 -121 16 -35 43 -81 59 -101 17 -21 42 -63 56 -94 14 -31 29 -56
33 -56 4 0 21 20 39 45 39 55 142 132 188 141 88 16 172 -17 217 -86 34 -51
60 -155 53 -204 -17 -102 -89 -196 -188 -243 -35 -16 -75 -33 -91 -37 -31 -7
-157 10 -171 25 -6 5 -16 9 -23 9 -9 0 -10 -6 -3 -26 24 -62 -43 -172 -131
-216 -30 -15 -101 -39 -159 -54 -97 -24 -116 -26 -250 -20 -145 5 -257 19
-295 35 -11 5 -47 16 -80 26 -33 10 -85 30 -115 46 -31 16 -77 33 -102 37 -49
10 -199 95 -371 210 -127 86 -292 254 -332 338 -71 149 -27 361 103 498 32 33
146 122 276 214 67 47 137 148 161 229 3 13 22 42 42 65 20 24 43 58 51 76 19
39 25 39 64 7z m-493 -1359 c18 -19 62 -54 98 -78 75 -51 75 -31 10 -239 -25
-80 -52 -186 -61 -235 -8 -49 -31 -125 -50 -169 -53 -124 -103 -236 -108 -241
-3 -2 -38 -14 -79 -25 -44 -12 -78 -28 -87 -40 -13 -19 -142 -86 -172 -90 -49
-5 -50 -3 -50 84 0 45 -7 110 -15 145 -19 81 -77 196 -127 250 -30 33 -38 48
-32 65 8 27 37 77 61 103 33 36 168 150 214 182 26 17 77 67 113 111 37 44 88
95 114 115 26 19 56 44 67 56 17 19 47 37 66 39 3 1 20 -14 38 -33z m246 -174
c57 -39 57 -68 -1 -238 -34 -102 -47 -156 -48 -203 -1 -60 1 -64 33 -91 18
-16 79 -44 135 -63 55 -20 128 -48 161 -63 33 -15 67 -28 75 -29 8 -1 43 -12
77 -24 94 -32 100 -30 166 53 54 68 122 139 242 253 60 57 142 113 165 113 10
0 23 7 30 15 7 8 28 17 49 21 50 8 163 44 180 57 10 9 17 6 27 -8 8 -10 14
-22 14 -25 0 -4 18 -14 39 -22 29 -12 49 -30 74 -69 19 -30 33 -57 31 -61 -2
-4 -36 2 -74 13 -81 22 -235 25 -290 6 -69 -25 -157 -97 -330 -269 -167 -167
-177 -175 -223 -182 -27 -4 -81 -21 -120 -38 -40 -17 -95 -33 -123 -35 -42 -4
-54 -9 -65 -29 -10 -20 -18 -24 -40 -19 -15 3 -69 -4 -120 -16 -84 -19 -99
-26 -136 -64 -25 -24 -46 -56 -49 -74 -6 -29 -17 -37 -128 -91 -141 -68 -267
-122 -273 -116 -2 2 4 24 15 48 20 43 79 209 102 283 7 22 27 72 45 110 18 39
38 88 45 110 7 22 27 67 45 100 18 33 36 71 40 85 4 14 16 43 25 65 10 22 23
76 30 120 7 44 21 109 32 145 65 218 80 260 91 260 7 -1 30 -13 52 -28z m229
-117 c16 -1 33 -9 38 -19 9 -15 0 -162 -19 -310 -5 -41 -3 -47 10 -45 9 2 74
61 145 131 l129 126 39 -8 c22 -4 71 -13 111 -20 l72 -12 -19 -31 c-11 -18
-27 -45 -36 -62 -9 -16 -39 -65 -67 -108 l-49 -78 -37 42 c-82 95 -86 96 -96
21 -11 -83 -14 -90 -60 -128 l-46 -37 -102 41 c-56 22 -114 43 -129 47 -22 6
-28 15 -37 56 -19 85 -16 91 49 128 33 19 60 40 60 47 0 8 -21 15 -55 19 -30
4 -62 13 -72 21 -17 13 -17 16 10 65 65 119 76 132 105 123 15 -4 40 -8 56 -9z
m124 -49 c26 -13 71 -31 100 -40 28 -10 52 -20 52 -23 0 -10 -222 -225 -227
-220 -3 3 0 68 6 144 6 77 11 145 11 151 0 16 4 16 58 -12z m551 -114 l53 -7
-45 -32 c-49 -35 -274 -255 -348 -340 l-45 -52 -67 21 c-37 12 -67 26 -67 30
0 4 16 22 36 40 27 26 36 43 40 78 9 78 11 78 68 15 30 -33 56 -58 58 -55 14
16 118 189 124 205 4 11 22 39 41 63 37 46 42 47 152 34z m-815 -48 c25 -4 49
-10 52 -15 2 -4 -17 -20 -43 -35 -27 -16 -51 -32 -54 -37 -3 -5 -2 -29 3 -53
16 -75 -5 -89 -56 -38 -21 21 -21 97 1 163 15 47 18 50 33 36 9 -8 38 -18 64
-21z m1289 -63 c75 -21 84 -29 125 -116 52 -109 59 -194 30 -330 -33 -155
-189 -367 -348 -476 -170 -115 -238 -142 -460 -180 -159 -26 -276 -23 -339 9
-24 13 -45 21 -47 19 -2 -2 10 -17 27 -33 29 -28 34 -29 140 -32 68 -2 147 2
209 12 155 25 142 33 134 -86 -6 -91 -16 -165 -44 -303 -4 -22 -19 -114 -34
-205 -49 -305 -68 -401 -94 -489 l-16 -54 -79 6 c-43 4 -82 9 -88 12 -15 10
-10 72 6 89 13 13 13 19 3 36 -8 13 -19 18 -31 14 -17 -5 -80 26 -142 71 -16
12 -190 101 -385 198 -442 218 -718 350 -757 362 -34 10 -28 22 25 49 53 27
131 83 173 125 37 36 137 168 143 189 7 19 158 85 333 144 30 10 35 8 84 -36
84 -76 119 -90 225 -90 85 -1 93 1 140 32 57 36 85 64 107 107 16 31 19 29 31
-27 5 -20 1 -33 -14 -48 -25 -25 -25 -30 0 -30 10 0 24 9 29 19 34 63 -92 357
-184 426 -63 49 -55 95 17 95 22 0 52 7 66 15 60 32 121 54 171 61 53 7 54 7
245 199 165 165 201 196 265 228 69 35 78 37 170 37 64 0 119 -6 164 -19z
m-2202 -209 c25 -51 43 -103 46 -136 5 -49 3 -56 -29 -98 -60 -78 -84 -99
-121 -108 -43 -9 -54 0 -26 23 15 13 19 30 19 79 0 35 4 77 9 93 4 17 4 40 0
53 -10 28 -91 66 -119 57 -24 -8 -54 -64 -64 -117 -8 -46 -19 -48 -36 -9 -19
46 19 195 54 210 4 2 17 14 29 27 11 13 35 28 52 34 18 6 41 20 51 31 17 19
18 19 56 -18 21 -20 56 -75 79 -121z m-148 -79 c31 -15 34 -37 13 -88 -14 -32
-16 -33 -46 -25 -18 5 -46 6 -63 3 -26 -5 -29 -4 -24 11 4 10 7 27 7 39 0 12
9 37 20 55 22 36 32 36 93 5z m594 -160 c-4 -10 -22 -63 -42 -118 -20 -55 -45
-127 -56 -159 -33 -95 -81 -196 -93 -196 -7 0 -16 4 -21 9 -10 9 -53 22 -199
61 -38 11 -105 22 -149 26 -51 4 -80 11 -84 20 -3 7 3 48 12 91 28 133 24 126
85 141 30 8 58 19 62 25 5 9 16 8 40 -2 18 -7 56 -18 85 -23 48 -9 56 -8 115
22 35 17 80 45 101 62 21 16 57 35 80 43 59 18 70 18 64 -2z m-632 -56 c20
-15 18 -37 -25 -242 -36 -176 -39 -158 29 -188 32 -14 62 -30 66 -36 3 -6 3
-35 0 -65 -7 -52 -8 -54 -48 -66 -23 -6 -56 -20 -74 -30 -30 -18 -33 -18 -104
1 -40 10 -85 19 -101 19 -33 0 -34 7 -12 81 23 80 37 95 97 113 52 15 55 18
65 58 6 24 14 66 17 93 5 47 41 235 50 263 6 16 17 15 40 -1z m1232 -86 c2
-10 15 -24 28 -31 53 -28 165 -212 165 -271 0 -28 -47 -100 -89 -137 -52 -45
-157 -59 -248 -33 -38 10 -133 79 -142 103 -3 9 12 27 57 71 53 50 68 143 30
184 -25 27 -59 29 -93 7 -20 -13 -25 -14 -25 -2 0 16 27 58 50 75 29 24 135
52 198 52 54 1 65 -2 69 -18z m-215 -128 c39 -35 13 -127 -50 -171 -31 -23
-42 -20 -42 10 0 31 -28 77 -58 92 l-27 14 28 11 c16 6 31 11 35 12 4 0 23 11
42 24 42 29 48 30 72 8z m-172 -88 c32 -16 60 -61 60 -94 0 -27 -28 -44 -125
-79 -44 -16 -109 -41 -145 -56 -36 -15 -77 -33 -92 -39 -15 -6 -29 -21 -32
-36 -10 -46 -118 -177 -189 -230 -79 -59 -105 -73 -242 -130 -55 -23 -110 -47
-122 -53 -12 -6 -35 -8 -52 -6 -19 3 -32 0 -35 -8 -3 -7 -20 -15 -38 -18 -18
-2 -67 -10 -108 -17 -41 -7 -91 -14 -110 -15 -279 -18 -318 -16 -520 35 -197
50 -488 174 -528 226 -11 14 -25 25 -30 25 -18 0 -72 64 -72 85 1 18 3 17 21
-8 50 -67 157 -113 377 -163 171 -39 283 -47 527 -40 121 4 252 11 290 16 182
23 434 78 510 111 28 12 69 30 92 40 24 11 45 19 49 19 19 0 107 81 124 116
24 48 25 73 5 100 -17 22 -21 3 -5 -27 19 -34 -41 -117 -118 -163 -15 -9 -27
1 -100 77 -42 44 -50 48 -80 42 -18 -3 -42 -3 -52 0 -18 6 -19 13 -14 76 l7
69 -62 27 c-55 24 -62 30 -59 52 3 26 4 26 78 23 89 -4 286 -52 351 -86 l47
-24 68 34 c69 34 286 134 292 134 2 0 16 -7 32 -15z m-1110 -15 c121 -16 132
-19 128 -43 -2 -15 -17 -25 -52 -37 -59 -19 -68 -32 -101 -131 -25 -75 -28
-79 -65 -90 -32 -10 -46 -9 -79 5 -66 26 -135 21 -197 -14 l-53 -30 -30 38
c-17 20 -31 40 -31 43 0 4 -28 21 -62 38 -108 54 -198 33 -229 -54 -12 -32
-16 -35 -52 -35 -45 0 -107 -33 -108 -58 -1 -9 -2 -28 -2 -41 -2 -19 -11 -26
-42 -36 -22 -6 -53 -19 -70 -27 -32 -17 -55 -12 -123 25 -35 19 -92 99 -92
129 0 29 38 74 101 118 31 22 60 40 64 40 3 0 30 11 59 25 117 55 266 93 496
125 141 20 421 25 540 10z m2601 -67 c0 -21 2 -47 4 -58 10 -67 13 -245 5
-317 -21 -168 -50 -255 -140 -417 -49 -88 -62 -121 -75 -196 -16 -92 -57 -277
-76 -350 -6 -22 -14 -56 -18 -75 -5 -19 -19 -73 -32 -120 -16 -59 -23 -110
-23 -167 l0 -82 -35 -14 c-95 -40 -330 -48 -456 -17 -78 20 -77 17 -54 165 36
223 49 276 68 271 62 -19 113 -27 146 -24 37 3 40 6 52 48 16 54 77 384 98
531 16 115 32 198 45 244 9 29 23 136 38 295 l7 75 76 26 c86 31 191 91 287
166 37 28 70 52 75 52 4 1 7 -16 8 -36z m-3177 -159 c36 -13 58 -30 99 -79 29
-35 56 -64 60 -64 4 -1 18 8 30 20 44 41 77 52 146 46 52 -4 69 -10 84 -28
l18 -22 38 21 c24 14 56 22 85 22 61 0 176 -29 183 -46 7 -18 33 -18 33 0 0
17 33 39 84 56 31 10 46 10 78 -1 29 -9 41 -10 50 -1 18 18 33 15 62 -14 18
-19 26 -37 26 -62 0 -33 1 -34 18 -19 19 18 56 6 37 -12 -28 -27 -211 -88
-360 -120 -200 -43 -340 -55 -620 -55 l-280 0 -140 33 c-77 18 -150 35 -162
38 -56 13 9 53 86 53 34 0 39 14 16 44 -20 26 -19 32 7 56 17 15 35 20 79 20
l56 0 7 39 c8 49 53 91 100 91 18 0 54 -7 80 -16z m-583 -316 c47 -35 204
-113 301 -149 44 -16 155 -48 247 -70 l166 -42 175 7 c164 5 289 21 387 47 40
11 45 10 95 -22 28 -18 81 -56 117 -84 87 -67 109 -80 224 -140 l98 -52 -148
-9 c-81 -4 -245 -10 -363 -11 -283 -3 -498 -11 -700 -24 l-165 -11 -229 112
c-126 61 -240 116 -252 120 -13 5 -51 26 -86 47 -35 21 -79 45 -98 52 -19 8
-39 18 -45 22 -5 4 -89 46 -185 94 -142 72 -171 90 -155 96 26 11 475 49 536
45 31 -2 57 -11 80 -28z m3416 -1377 c-14 -114 -59 -159 -189 -185 -97 -20
-125 -20 -268 3 -127 19 -165 34 -155 58 3 9 11 50 17 91 11 73 11 74 37 68
14 -4 87 -14 162 -23 119 -15 149 -15 235 -4 55 8 110 20 124 27 39 21 43 17
37 -35z"/>
<path d="M4077 4950 c-44 -35 -74 -159 -45 -188 19 -19 63 -14 93 10 54 42 83
149 49 182 -21 22 -66 20 -97 -4z"/>
<path d="M4600 4925 c-14 -8 -32 -14 -41 -15 -18 0 -129 -71 -129 -82 0 -13
28 -9 42 6 22 22 69 42 126 56 49 11 56 11 80 -7 19 -14 30 -35 37 -68 12 -55
38 -72 80 -53 33 15 32 21 -6 39 -22 10 -35 26 -45 53 -7 22 -21 48 -31 58
-26 25 -82 32 -113 13z"/>
<path d="M4475 4792 c-32 -7 -43 -20 -75 -87 -33 -69 -35 -87 -19 -134 14 -41
41 -56 72 -40 58 32 102 114 102 193 0 34 -5 42 -30 56 -16 9 -39 15 -50 12z"/>
<path d="M3890 4331 c30 -57 210 -170 350 -219 120 -42 327 -84 404 -81 51 2
60 0 76 -22 28 -37 30 -20 4 39 -21 49 -53 75 -39 33 21 -68 -356 -3 -550 95
-77 39 -178 109 -216 148 -28 30 -44 34 -29 7z"/>
<path d="M4610 2520 c-23 -23 -24 -30 -8 -67 19 -45 39 -63 70 -63 33 0 65 28
74 67 6 22 2 31 -27 55 -39 33 -81 36 -109 8z"/>
</g>
</svg>
