<?xml version="1.0" standalone="no"?>
<!DOCTYPE svg PUBLIC "-//W3C//DTD SVG 20010904//EN"
 "http://www.w3.org/TR/2001/REC-SVG-20010904/DTD/svg10.dtd">
<svg version="1.0" xmlns="http://www.w3.org/2000/svg"
 width="650.000000pt" height="657.000000pt" viewBox="0 0 650.000000 657.000000"
 preserveAspectRatio="xMidYMid meet">
<metadata>
Created by potrace 1.16, written by Peter Selinger 2001-2019
</metadata>
<g transform="translate(0.000000,657.000000) scale(0.100000,-0.100000)"
fill="#000000" stroke="none">
<path d="M2276 6429 c-58 -24 -69 -31 -148 -100 -107 -93 -136 -127 -177 -202
-45 -85 -62 -146 -68 -252 -6 -92 -8 -102 -34 -126 -23 -21 -28 -36 -34 -101
-8 -88 -3 -121 35 -203 39 -88 118 -146 155 -115 17 14 35 5 35 -17 0 -25 39
-155 55 -185 22 -39 18 -66 -18 -132 -28 -52 -38 -61 -83 -77 -83 -31 -323
-155 -415 -217 -82 -54 -91 -63 -153 -162 -54 -87 -146 -274 -169 -341 -4 -12
-24 -17 -79 -22 -188 -15 -350 -94 -413 -201 -14 -23 -34 -69 -45 -102 -28
-83 -41 -104 -62 -104 -16 0 -19 5 -13 29 9 40 -8 46 -47 19 -95 -67 -113 -95
-173 -260 -54 -150 -44 -219 42 -281 30 -21 40 -33 30 -35 -9 -2 -25 2 -36 7
-11 6 -22 11 -25 11 -12 0 -6 -58 11 -106 36 -108 106 -179 223 -229 25 -11
56 -27 69 -37 13 -10 34 -18 46 -18 19 0 21 -4 17 -27 -3 -15 -22 -49 -42 -75
-44 -55 -120 -199 -185 -352 -53 -125 -126 -276 -219 -454 -35 -68 -67 -135
-70 -148 -9 -34 45 -133 112 -205 28 -31 52 -61 52 -66 0 -21 40 -54 84 -69
37 -13 46 -20 40 -33 -7 -18 -7 -26 1 -61 10 -42 -86 -149 -220 -246 -28 -19
-28 -22 -16 -52 21 -51 45 -42 136 51 56 58 93 107 121 161 55 104 65 91 68
-81 2 -117 4 -133 29 -185 37 -75 69 -86 98 -32 10 20 10 29 1 42 -65 93 -91
185 -78 275 8 54 19 59 41 17 29 -57 89 -64 101 -12 11 46 15 45 68 -10 78
-80 160 -148 234 -195 72 -45 70 -43 134 -117 50 -56 192 -179 258 -222 25
-16 47 -32 48 -36 2 -5 7 -8 12 -8 4 0 59 -32 122 -70 259 -161 559 -282 823
-334 93 -18 279 -40 485 -57 149 -12 357 -7 465 11 33 6 98 14 145 20 249 29
805 182 1038 286 29 13 55 24 58 24 12 0 101 44 171 86 l76 45 52 -16 c68 -19
89 -19 210 4 373 73 683 186 780 285 l50 51 -1 165 c-1 142 -4 173 -22 224
-12 33 -21 60 -19 61 1 0 15 7 31 13 l29 13 -6 72 c-10 125 -71 336 -133 461
-31 61 -68 127 -83 146 -16 19 -32 46 -36 60 -14 45 -53 104 -100 150 -25 24
-45 50 -45 57 0 23 -37 87 -64 112 -14 14 -26 28 -26 32 0 3 23 6 52 6 48 -1
54 2 86 39 91 103 121 178 93 223 -7 10 -2 23 14 43 109 130 126 380 32 494
l-30 36 2 122 c4 240 -41 538 -98 643 -19 34 -29 64 -25 77 7 29 -42 96 -100
135 l-45 31 19 43 c14 29 20 64 20 117 0 95 -31 184 -99 288 -27 43 -58 97
-69 122 -26 63 -43 212 -40 360 5 286 -87 455 -307 560 -103 49 -151 60 -272
61 -233 3 -377 -77 -508 -281 -77 -119 -87 -160 -95 -380 -7 -177 -11 -204
-39 -300 -41 -138 -50 -250 -26 -345 28 -113 106 -223 204 -289 l50 -34 -27
-18 c-15 -10 -32 -22 -38 -28 -101 -95 -133 -131 -157 -183 -32 -69 -179 -440
-197 -498 -19 -62 -28 -62 -28 2 -1 74 -27 153 -92 278 -51 97 -52 102 -47
164 3 43 10 67 20 73 9 5 23 15 31 23 8 8 19 15 24 15 18 0 62 102 62 142 0
32 4 39 25 44 41 10 171 -14 226 -42 28 -14 54 -23 57 -20 9 10 -31 76 -77
128 -55 61 -109 90 -186 97 l-60 6 40 21 c22 11 47 32 55 47 13 24 12 28 -12
63 -15 21 -25 41 -22 46 3 4 21 8 40 8 28 0 38 6 54 33 29 47 26 83 -10 119
-25 24 -37 29 -59 25 -32 -7 -45 1 -32 17 5 6 14 28 21 49 18 57 5 105 -40
147 -37 34 -38 36 -30 85 5 30 4 54 -2 60 -10 11 -9 11 -64 -67 -22 -32 -41
-47 -62 -51 -33 -7 -62 -48 -62 -86 0 -21 -57 -91 -75 -91 -5 0 -23 -10 -39
-23 -24 -20 -28 -30 -28 -70 1 -31 -7 -62 -23 -94 -14 -27 -31 -75 -40 -107
-8 -32 -17 -61 -19 -63 -2 -3 -11 26 -20 64 l-15 68 41 36 c35 30 42 42 48 87
8 61 -14 210 -36 254 -13 26 -20 29 -44 25 -18 -4 -32 -1 -40 8 -20 24 -58 17
-115 -20 -79 -53 -90 -74 -90 -175 0 -75 3 -91 27 -131 28 -48 83 -89 119 -89
17 0 38 -25 28 -34 -2 -2 -23 -6 -46 -9 -40 -5 -43 -4 -43 19 0 53 -63 83
-141 67 -42 -8 -60 -5 -159 27 l-111 35 -65 100 c-35 55 -64 108 -64 118 0 10
6 30 14 45 7 15 19 65 25 112 6 47 16 87 21 88 77 26 150 203 150 361 0 63
-19 93 -62 96 -20 1 -22 8 -26 81 -7 152 -75 318 -167 410 -56 56 -173 121
-258 142 -72 19 -194 14 -251 -9z m342 -73 c100 -50 152 -102 200 -194 39 -77
100 -268 88 -279 -3 -4 -16 3 -29 14 -51 48 -113 65 -306 88 -167 19 -203 29
-260 68 -25 18 -52 35 -60 38 -7 3 -27 43 -42 89 -16 46 -33 88 -39 94 -5 5
-10 13 -10 17 0 13 75 63 129 86 49 21 69 23 156 20 92 -3 106 -6 173 -41z
m-470 -108 c19 -38 62 -157 62 -174 0 -9 -30 -62 -67 -117 -65 -99 -112 -207
-113 -257 -1 -54 -15 -53 -68 5 -47 51 -52 60 -52 104 0 151 61 304 168 423
40 44 54 47 70 16z m147 -234 c39 -29 144 -64 193 -64 43 0 244 -26 282 -37
57 -15 109 -62 129 -116 13 -33 -3 -236 -24 -318 -15 -56 -45 -121 -66 -143
-16 -18 -9 -28 15 -22 l24 6 -17 -80 c-25 -115 -105 -216 -205 -261 -64 -28
-189 -44 -235 -31 -49 15 -215 125 -239 159 -21 29 -85 203 -78 210 2 2 16 -8
31 -22 14 -15 29 -25 31 -22 7 7 -13 46 -37 72 -31 34 -70 132 -76 190 -5 52
-5 55 16 55 17 0 21 4 17 18 -17 53 35 194 116 313 24 37 50 80 57 98 14 32
16 32 66 -5z m2685 -45 c83 -17 167 -66 240 -140 116 -118 124 -147 155 -539
8 -102 19 -200 24 -218 10 -34 45 -100 103 -194 63 -102 98 -246 84 -342 -8
-53 -18 -56 -76 -26 -26 13 -57 20 -94 19 -43 -1 -64 4 -98 24 -94 56 -194
183 -224 284 -16 51 -19 199 -5 207 5 3 14 -1 21 -9 24 -28 56 -17 104 36 47
52 71 110 80 196 8 77 -63 124 -109 73 -25 -28 -32 -25 -45 16 -17 51 -110
140 -221 213 -104 68 -152 126 -184 221 -19 57 -33 62 -62 22 -11 -15 -40 -40
-64 -57 -104 -69 -229 -168 -253 -200 -41 -54 -58 -112 -52 -175 3 -30 2 -83
-2 -117 -5 -34 -5 -98 0 -142 20 -215 208 -514 329 -524 18 -1 34 -8 37 -15 6
-18 -57 -75 -129 -117 l-60 -35 -49 21 c-59 25 -105 73 -153 160 -64 117 -75
257 -31 419 22 82 27 125 33 315 7 190 11 228 30 282 12 34 29 67 37 74 8 6
14 18 14 26 0 23 172 189 216 209 101 44 275 58 404 33z m-252 -242 c39 -85
74 -122 191 -201 139 -93 200 -170 201 -251 0 -79 -89 -314 -163 -429 -50 -76
-155 -182 -201 -201 -72 -30 -157 -13 -212 43 -88 91 -184 276 -205 398 -8 44
-9 120 -4 231 6 140 10 165 24 169 9 3 25 10 36 17 38 20 108 26 138 10 37
-19 49 -7 17 17 -31 24 -55 28 -104 17 -21 -4 -41 -5 -44 -2 -7 6 -7 6 144
120 65 49 125 97 132 107 7 10 15 18 17 18 3 0 18 -28 33 -63z m-1723 9 c13
-67 -45 -285 -85 -321 -27 -25 -33 -15 -21 33 8 28 16 39 29 38 14 -1 17 8 18
56 1 34 8 68 18 82 18 28 5 46 -19 26 -13 -11 -15 -5 -15 42 0 59 12 78 47 78
17 0 23 -7 28 -34z m-1067 -51 c27 -30 42 -58 46 -86 4 -23 4 -44 2 -47 -3 -2
-19 7 -36 22 -31 25 -60 34 -60 18 0 -5 13 -18 29 -30 26 -19 30 -28 28 -64
-2 -32 2 -43 14 -46 13 -2 15 3 12 22 -3 14 -2 34 2 43 5 13 12 0 27 -47 10
-36 21 -72 24 -82 9 -26 -31 -43 -66 -28 -62 26 -110 137 -110 256 0 124 23
142 88 69z m3328 -381 c21 -82 -58 -254 -116 -254 -11 0 -24 10 -31 21 -19 37
33 191 81 239 28 28 58 26 66 -6z m-1706 -154 c18 -33 42 -189 35 -224 -9 -41
-28 -70 -62 -94 l-28 -20 0 72 c0 65 -4 79 -32 125 -18 29 -33 56 -33 59 0 13
86 102 98 102 6 0 16 -9 22 -20z m400 5 c61 -31 73 -80 43 -165 -21 -60 -9
-81 41 -73 27 4 37 0 54 -22 31 -39 29 -79 -3 -93 -14 -7 -39 -12 -55 -12 -40
0 -49 -33 -21 -71 31 -42 27 -64 -15 -84 -91 -43 -164 -25 -164 39 0 48 -22
51 -65 9 -30 -29 -41 -34 -63 -28 -33 8 -52 23 -52 41 0 25 22 62 46 75 35 18
31 52 -11 83 -28 21 -35 34 -35 60 0 56 39 78 113 62 54 -12 60 -2 45 83 -12
72 -12 74 11 92 28 23 90 25 131 4z m-569 -72 c88 -95 115 -174 85 -246 -17
-41 -34 -46 -80 -22 -57 30 -94 100 -95 181 -1 42 25 134 39 134 4 0 27 -21
51 -47z m-1182 -117 c41 -84 89 -137 176 -192 41 -26 73 -50 71 -53 -2 -3 -31
-64 -65 -134 -34 -70 -66 -125 -71 -122 -22 13 -147 217 -191 311 l-48 101 28
69 c16 38 31 77 35 88 9 27 30 6 65 -68z m537 5 c-44 -72 -193 -235 -220 -239
-10 -2 -21 1 -25 6 -3 5 -33 26 -66 47 -33 21 -73 49 -89 62 -32 27 -96 103
-96 116 0 13 21 8 49 -12 15 -11 55 -29 89 -40 59 -20 65 -21 148 -6 91 16
141 43 209 115 42 44 43 20 1 -49z m128 -11 c34 -56 47 -87 43 -102 -10 -43
-144 -359 -151 -359 -5 0 -21 27 -36 60 -30 64 -106 171 -121 171 -21 0 -5 24
52 83 65 65 136 165 145 204 4 13 9 23 13 23 3 0 28 -36 55 -80z m2227 -221
c18 -34 53 -83 76 -110 50 -55 156 -129 185 -129 34 0 15 -23 -77 -92 -171
-130 -323 -183 -494 -176 -113 5 -166 25 -236 89 -73 67 -73 72 -11 108 73 41
123 86 147 132 13 26 28 41 47 45 82 20 162 94 254 236 l52 79 12 -60 c7 -34
27 -88 45 -122z m-3042 96 c12 -31 33 -79 47 -108 30 -60 132 -226 151 -245 7
-7 13 -17 13 -20 0 -14 51 -62 66 -62 8 0 19 12 24 28 35 95 60 128 60 78 0
-14 4 -36 9 -49 7 -17 5 -44 -4 -83 -25 -110 -65 -408 -76 -564 -6 -85 -13
-195 -17 -244 l-7 -89 -85 -27 c-83 -26 -86 -27 -120 -10 -19 10 -44 27 -54
39 -19 21 -19 23 -3 75 30 95 15 223 -40 329 -25 50 -96 107 -189 153 -104 53
-181 65 -269 44 -50 -12 -54 -12 -76 10 -32 30 -107 67 -152 75 -20 4 -37 12
-37 17 0 11 151 315 186 375 11 18 24 33 30 33 16 0 85 -145 99 -210 7 -30 16
-86 20 -125 9 -92 15 -115 29 -115 9 0 10 21 4 83 -12 121 -32 193 -85 303
l-46 97 29 24 c55 46 219 137 339 189 66 29 123 53 127 54 4 0 16 -25 27 -55z
m1004 -20 c63 -20 87 -32 87 -44 0 -9 7 -27 17 -40 16 -23 15 -25 -6 -43 -13
-10 -36 -18 -51 -18 -35 0 -70 -44 -70 -87 0 -40 34 -91 67 -99 41 -10 43 -12
31 -40 -10 -21 -8 -29 11 -55 13 -17 19 -34 14 -38 -25 -18 -77 -97 -89 -138
-22 -71 -14 -221 12 -230 5 -2 18 21 27 51 29 90 105 178 173 200 26 8 30 -9
40 -157 l7 -103 -43 -105 c-37 -89 -44 -117 -48 -194 l-4 -90 -137 -3 -136 -2
-49 157 c-26 87 -61 202 -76 256 -35 120 -68 209 -130 347 -45 102 -47 108
-36 153 6 26 15 46 21 44 5 -2 20 -31 33 -65 13 -34 27 -62 32 -62 7 0 112
239 175 398 10 24 23 41 29 39 6 -2 50 -16 99 -32z m627 10 c11 -13 10 -18 -7
-30 -10 -7 -28 -32 -38 -55 -18 -40 -18 -41 2 -68 11 -15 33 -31 49 -37 16 -5
31 -10 32 -11 2 -2 1 -16 -3 -34 -5 -22 -17 -36 -45 -50 -93 -47 -123 -10 -95
117 20 94 58 183 78 183 8 0 20 -7 27 -15z m-1066 -159 c40 -48 43 -72 22
-151 l-13 -50 -83 2 c-46 2 -85 5 -88 8 -3 3 -9 35 -14 72 -6 55 -4 73 11 109
16 36 24 43 53 47 73 9 76 8 112 -37z m651 34 c3 -5 22 -10 41 -10 28 0 34 -4
34 -21 0 -11 10 -34 21 -51 20 -27 20 -33 9 -69 -17 -51 -26 -57 -88 -63 -52
-5 -52 -5 -67 30 -8 19 -21 37 -30 40 -17 7 -20 45 -4 61 8 8 7 16 -2 31 -20
32 4 53 68 61 6 0 15 -3 18 -9z m841 -175 c41 -24 104 -87 104 -104 0 -5 -21
-3 -47 5 -25 8 -79 14 -120 14 -53 0 -73 4 -73 13 0 7 -9 30 -20 52 -11 22
-20 40 -20 41 0 2 10 5 23 7 41 9 112 -4 153 -28z m-248 9 c26 -18 52 -65 52
-94 0 -36 -41 -148 -56 -154 -8 -3 -35 4 -60 15 -74 35 -107 103 -84 173 22
67 95 97 148 60z m-254 -40 c11 -4 16 -19 16 -49 0 -38 -6 -48 -49 -92 -76
-76 -128 -194 -133 -302 -2 -28 -6 -51 -10 -51 -4 0 -20 23 -34 52 -20 39 -28
72 -31 133 -7 101 8 157 47 185 22 16 30 30 30 51 0 26 6 33 53 54 53 25 82
30 111 19z m1903 -35 c80 -36 122 -66 159 -115 24 -30 25 -38 15 -61 -18 -39
-126 -168 -174 -207 -115 -94 -329 -200 -427 -213 l-45 -5 -40 83 c-22 45 -64
118 -92 162 -29 44 -51 83 -48 87 3 4 26 11 52 14 57 8 163 41 214 67 65 32
184 116 240 168 30 27 59 50 66 51 6 0 42 -14 80 -31z m-3007 -106 c4 -73 13
-104 24 -92 2 2 6 42 8 89 2 47 8 85 13 85 5 0 18 -44 29 -97 27 -122 41 -138
31 -33 -11 120 -11 128 2 132 26 9 131 -252 219 -542 76 -253 89 -303 83 -310
-3 -3 -55 -12 -115 -20 -60 -8 -180 -28 -267 -45 -87 -18 -161 -29 -165 -26
-7 8 -4 147 8 343 13 203 69 562 93 591 21 26 32 4 37 -75z m844 -42 c-8 -32
-13 -36 -51 -43 -74 -12 -143 -71 -192 -163 l-26 -50 -3 51 c-4 72 29 156 84
211 24 23 51 43 61 43 10 0 31 10 47 23 l28 23 30 -30 c27 -27 30 -34 22 -65z
m1120 40 c39 -74 164 -148 269 -158 37 -3 67 -7 67 -7 0 -1 -29 -59 -65 -129
-36 -70 -65 -134 -65 -143 0 -28 -31 -26 -93 4 -84 42 -161 112 -217 198 -64
98 -76 129 -59 151 22 25 129 113 139 113 5 0 16 -13 24 -29z m-730 -126 c10
-8 23 -12 28 -9 5 3 18 -2 28 -11 15 -13 18 -31 17 -98 -1 -74 2 -87 31 -140
18 -31 32 -59 32 -61 0 -12 -116 -55 -177 -66 -87 -16 -191 -3 -296 37 -60 22
-68 28 -63 47 3 11 6 55 6 96 l1 75 31 -60 c33 -65 65 -105 83 -105 9 0 11 19
7 69 -4 56 0 83 23 150 l27 81 72 -7 c46 -3 80 -2 92 5 25 15 35 14 58 -3z
m1982 -17 c25 -49 73 -295 86 -443 10 -126 5 -245 -11 -245 -23 0 -94 32 -113
50 -32 30 -105 80 -117 80 -5 0 -13 5 -16 10 -8 13 -7 344 1 365 4 10 0 15
-14 15 -25 0 -32 -47 -32 -221 0 -78 -4 -129 -10 -129 -5 0 -45 10 -87 22
-148 41 -309 25 -429 -43 -83 -47 -175 -139 -209 -208 -17 -33 -34 -61 -38
-61 -4 0 -24 8 -45 19 -20 10 -50 21 -65 25 -36 9 -31 23 24 64 80 61 158 138
164 165 15 57 -45 73 -123 35 -45 -23 -186 -152 -213 -196 -13 -21 -17 -22
-68 -12 -29 5 -75 10 -101 10 -45 0 -49 2 -59 31 -17 49 -13 166 9 249 27 101
36 217 21 263 -20 60 -30 52 -24 -20 4 -56 0 -90 -26 -192 -38 -150 -39 -208
-7 -307 6 -21 2 -22 -79 -29 -71 -6 -90 -4 -111 10 -22 14 -24 21 -18 48 12
56 50 167 128 371 108 284 126 316 141 264 16 -51 99 -169 160 -226 66 -62
173 -122 218 -122 20 0 27 8 42 48 29 75 124 262 135 262 15 0 103 -151 145
-248 21 -50 44 -93 50 -96 48 -18 249 69 416 181 59 39 162 137 226 216 13 15
25 27 28 27 2 0 12 -15 21 -32z m-4379 -104 c31 -8 79 -28 106 -45 47 -29 51
-30 103 -19 85 18 173 0 275 -56 106 -58 135 -85 170 -159 38 -79 40 -170 5
-276 -25 -77 -25 -92 -1 -83 9 4 25 -7 41 -25 15 -18 39 -38 55 -46 25 -14 27
-18 19 -41 -24 -62 -101 -164 -155 -205 -63 -47 -61 -58 6 -35 24 8 44 14 46
13 10 -10 -28 -86 -61 -124 -48 -55 -91 -83 -174 -113 -34 -12 -62 -25 -62
-28 0 -2 30 -1 68 2 l67 7 -43 -40 c-77 -71 -202 -94 -310 -57 -61 21 -76 16
-41 -13 l24 -20 -26 -1 c-39 0 -149 37 -149 50 0 4 21 11 48 15 26 3 85 25
132 47 108 52 205 146 234 226 17 48 20 52 50 52 44 0 97 49 136 124 55 106
32 196 -51 196 -33 0 -39 3 -39 20 0 54 -52 92 -179 130 -107 33 -171 96 -171
169 0 42 -13 45 -56 16 -41 -28 -39 -27 -169 -50 -173 -31 -300 -89 -388 -177
-26 -26 -50 -48 -51 -48 -13 0 -14 41 -5 102 6 38 8 72 5 75 -11 11 -36 -67
-36 -112 0 -38 -3 -45 -20 -45 -12 0 -32 -17 -50 -42 -26 -35 -30 -50 -30
-102 1 -102 61 -196 117 -181 18 4 23 1 23 -14 0 -48 44 -134 97 -191 44 -48
54 -65 49 -84 -4 -16 -13 -24 -28 -24 -13 0 -35 -3 -49 -7 -20 -5 -28 -2 -33
11 -4 10 -3 20 2 22 21 7 46 31 40 37 -4 4 -21 2 -39 -4 -18 -6 -48 -11 -67
-11 -34 0 -35 0 -17 20 18 20 17 20 -51 20 -60 0 -77 4 -115 29 -57 37 -82 65
-108 124 -23 51 -21 67 10 67 24 0 109 37 109 48 0 4 -21 13 -47 20 -32 9 -61
27 -91 58 l-45 44 6 63 c6 60 23 117 36 117 3 0 17 -9 31 -20 27 -21 65 -26
75 -10 3 5 -10 16 -30 24 -63 27 -66 96 -8 173 33 42 57 49 82 24 24 -24 40
-26 74 -10 27 12 33 21 76 129 52 128 120 189 259 234 114 38 202 41 319 10z
m2083 -261 c149 -48 306 -41 424 19 45 23 47 21 71 -59 23 -78 20 -89 -28
-118 -92 -53 -152 -67 -277 -63 -101 4 -128 9 -227 42 -61 21 -114 44 -116 50
-3 7 6 47 20 90 21 62 29 76 42 70 9 -3 50 -17 91 -31z m-1975 -127 c8 -21 33
-59 57 -83 34 -35 58 -48 113 -65 104 -31 143 -54 162 -94 14 -29 15 -38 4
-55 -18 -30 -5 -36 30 -15 39 23 75 15 83 -19 8 -30 -20 -114 -57 -173 -32
-49 -70 -64 -93 -36 -14 19 -14 19 -29 0 -8 -11 -15 -27 -15 -35 0 -9 -13 -39
-29 -67 -83 -143 -280 -241 -466 -232 -72 4 -86 8 -129 37 -79 55 -180 156
-210 211 -15 28 -36 90 -46 138 -16 80 -24 89 -32 38 -5 -31 -26 -30 -57 2
-47 46 -55 159 -14 204 24 26 43 22 54 -12 15 -41 33 -38 54 10 10 23 42 60
74 86 83 69 177 110 316 137 66 14 138 33 160 44 22 12 44 20 49 19 4 -1 14
-19 21 -40z m3328 -22 c13 -13 -16 -46 -106 -121 -134 -110 -174 -149 -204
-194 -34 -51 -54 -38 -28 18 72 154 290 345 338 297z m579 -9 c96 -20 199 -70
273 -132 33 -28 78 -56 99 -64 120 -43 180 -197 146 -372 -15 -79 -66 -176
-94 -182 -80 -15 -86 -15 -86 6 0 26 -10 45 -77 146 -46 70 -57 95 -68 160 -8
43 -14 84 -15 91 0 19 -22 15 -91 -18 -82 -38 -266 -70 -402 -70 -101 0 -265
17 -279 29 -13 11 18 116 51 174 34 60 96 120 176 172 59 38 109 55 185 65 87
11 104 11 182 -5z m-1913 -65 c108 -33 271 -34 361 -2 36 13 80 32 99 43 18
11 35 18 37 16 6 -5 -15 -123 -29 -164 -10 -32 -18 -38 -57 -48 -71 -19 -130
-53 -151 -90 -17 -28 -28 -35 -63 -40 -24 -4 -69 -2 -99 5 -47 9 -59 16 -76
45 -19 33 -50 48 -120 57 -39 5 -75 85 -79 175 l-4 73 53 -24 c30 -13 87 -33
128 -46z m-172 -142 l33 -63 -24 -23 c-23 -23 -56 -34 -206 -67 -61 -13 -70
-12 -125 7 -93 32 -280 36 -415 9 -162 -32 -230 -62 -303 -136 -165 -166 -227
-255 -227 -325 0 -40 -11 -57 -55 -87 -19 -13 -43 -48 -65 -95 -32 -70 -37
-76 -81 -91 -56 -20 -74 -54 -66 -123 4 -38 13 -54 53 -95 55 -56 97 -73 157
-66 157 21 157 21 205 -3 128 -64 461 -89 680 -51 152 26 167 26 117 0 -56
-30 -125 -82 -157 -118 -15 -18 -36 -31 -50 -31 -13 0 -40 -9 -59 -19 -34 -18
-40 -19 -84 -6 -37 12 -57 12 -92 3 -40 -10 -49 -8 -85 12 -55 31 -162 39
-206 16 -35 -18 -82 -75 -82 -100 0 -9 -6 -18 -12 -20 -105 -28 -129 -39 -150
-67 -13 -16 -39 -48 -57 -70 -34 -40 -35 -40 -44 -17 -7 19 -4 26 15 38 64 42
138 142 138 189 0 35 -39 113 -60 118 -11 3 -22 13 -25 23 -3 10 -18 23 -33
29 -49 21 -91 55 -92 77 0 30 -32 55 -79 61 -23 3 -41 9 -41 14 0 12 -55 39
-80 39 -11 0 -34 10 -50 21 -22 17 -38 21 -69 16 l-41 -5 0 50 c0 55 -2 56
-75 28 -28 -11 -29 -15 -14 -75 9 -36 8 -47 -6 -68 -19 -29 -92 -69 -101 -55
-3 5 -6 76 -5 158 0 151 14 240 35 240 7 0 31 -9 54 -20 70 -34 166 -41 274
-20 51 10 102 22 113 26 48 18 125 82 175 145 29 38 56 69 60 69 13 0 69 108
85 165 10 33 37 98 60 145 23 47 45 97 49 111 5 22 15 29 68 44 105 28 224 53
413 84 223 37 223 37 430 39 l170 2 32 -62z m1146 -20 c19 -10 21 -17 9 -36
-7 -10 -16 -9 -45 3 -42 17 -123 20 -164 4 -15 -5 -62 -11 -104 -12 -54 -1
-82 -7 -95 -18 -11 -9 -39 -19 -63 -22 -24 -3 -47 -10 -50 -15 -3 -6 -20 -14
-36 -18 -17 -3 -38 -13 -47 -22 -15 -13 -21 -12 -52 6 -25 15 -37 17 -45 9 -8
-8 -11 -6 -11 7 0 10 9 20 20 23 11 3 20 9 20 13 0 27 171 76 306 88 103 10
331 4 357 -10z m-989 -64 c9 -8 16 -24 16 -35 0 -28 -53 -79 -83 -79 -13 0
-31 -8 -40 -17 -9 -10 -31 -26 -51 -37 l-34 -18 -79 37 c-89 42 -89 42 39 71
53 12 79 25 114 55 49 42 91 51 118 23z m970 -4 c16 -16 -20 -40 -61 -40 -23
0 -33 -5 -33 -15 0 -13 12 -15 60 -14 35 1 65 -3 74 -10 22 -18 116 -22 109
-5 -2 7 -19 18 -36 24 -19 7 -26 14 -19 17 24 9 82 -8 103 -30 11 -12 26 -23
32 -23 7 -1 18 -2 25 -3 25 -2 11 -19 -30 -34 -114 -42 -168 -50 -323 -43
-213 8 -450 54 -450 86 0 8 11 17 25 19 14 1 37 12 51 22 15 10 42 19 60 19
18 0 40 7 50 16 23 20 90 29 126 16 22 -7 35 -6 54 5 28 16 165 11 183 -7z
m-1469 -81 c39 -13 36 -14 -90 -19 -127 -6 -205 -22 -205 -41 0 -6 8 -8 18 -5
9 3 51 11 92 17 138 21 295 -4 456 -73 l73 -32 -27 -19 c-41 -28 -134 -73
-164 -81 -52 -12 -158 -69 -202 -107 -89 -78 -98 -184 -24 -265 57 -62 77 -57
31 7 -30 42 -38 63 -41 108 -4 53 -2 58 36 101 42 48 107 87 200 122 66 25
163 76 245 130 32 21 62 38 66 38 5 0 27 20 49 45 54 57 73 67 121 59 56 -9
66 -24 45 -68 -12 -24 -31 -42 -59 -55 -23 -11 -59 -41 -80 -68 -22 -26 -48
-57 -57 -67 -10 -11 -20 -36 -23 -55 -24 -158 -42 -195 -135 -287 -70 -68
-125 -104 -161 -104 -15 0 -38 -9 -52 -20 -17 -14 -40 -20 -74 -20 -48 0 -109
-27 -126 -56 -9 -15 -47 -19 -47 -6 0 5 9 17 21 28 29 27 49 68 49 103 0 27
-6 33 -64 60 -35 17 -69 31 -76 31 -6 0 -10 3 -8 8 2 4 10 20 18 35 12 24 12
30 -2 44 -15 14 -22 14 -85 -1 -99 -24 -209 -88 -230 -132 -14 -29 -15 -40 -5
-66 15 -41 -4 -59 -30 -28 -10 12 -28 20 -47 20 -37 0 -71 34 -107 107 -34 69
-31 153 9 232 30 59 29 78 -2 40 -52 -62 -76 -180 -52 -250 14 -40 5 -49 -37
-37 -21 6 -36 18 -43 35 -5 14 -19 39 -30 55 -12 16 -26 48 -31 70 -12 54 20
124 91 198 29 30 59 66 66 80 23 43 113 120 171 146 108 48 204 63 369 60 94
-2 165 -8 190 -17z m885 -32 c112 -55 275 -87 480 -93 157 -6 169 -5 253 20
49 15 106 35 127 46 33 17 40 18 50 4 7 -8 10 -18 6 -22 -8 -7 -13 -8 -41 -11
-30 -2 -58 -81 -58 -159 1 -67 -1 -74 -26 -92 -39 -27 -178 -87 -231 -99 -122
-28 -253 2 -388 88 -103 66 -182 152 -227 248 -32 68 -45 120 -27 111 4 -2 41
-20 82 -41z m-115 6 c3 -14 23 -60 43 -101 97 -196 338 -358 541 -363 61 -1
166 33 269 87 45 24 86 44 91 44 5 0 21 -16 35 -35 19 -25 29 -53 35 -102 10
-80 32 -138 77 -210 42 -67 99 -123 149 -148 61 -31 64 -33 56 -63 -6 -22 -12
-26 -34 -24 -23 3 -30 -2 -42 -32 -35 -84 -31 -273 8 -322 19 -24 21 -41 23
-156 l2 -128 -48 0 c-33 0 -55 -6 -73 -21 -21 -16 -31 -18 -46 -10 -36 20
-114 13 -167 -14 -29 -15 -66 -25 -92 -25 -87 0 -154 -52 -150 -116 1 -23 -5
-41 -20 -57 -41 -44 -20 -111 64 -199 80 -85 191 -139 319 -156 l60 -8 -55
-13 c-61 -15 -90 -35 -90 -62 0 -20 22 -29 95 -38 l50 -7 -30 -16 c-46 -25
-83 -60 -94 -90 -9 -23 -7 -30 12 -43 27 -19 64 -19 101 0 37 20 41 15 15 -18
-75 -96 -813 -351 -1144 -396 -44 -6 -112 -15 -152 -21 -140 -20 -490 -12
-710 15 -280 35 -336 49 -658 170 -69 26 -209 94 -295 143 -111 63 -368 248
-370 266 -1 5 23 17 53 26 30 10 69 27 87 40 31 22 32 22 90 6 80 -23 166 -24
187 -4 22 23 12 33 -67 64 -39 15 -70 31 -70 37 0 5 8 6 17 3 9 -4 52 -10 94
-13 70 -5 78 -4 98 16 17 17 20 26 12 35 -8 10 -7 17 4 26 19 16 19 36 1 43
-8 3 -12 15 -9 30 7 34 -7 40 -169 73 l-137 28 6 42 c3 23 1 44 -4 47 -14 9
-258 -116 -299 -153 -19 -16 -39 -30 -43 -30 -5 0 -20 15 -34 33 -14 17 -38
46 -52 62 -52 58 -87 117 -92 155 -4 25 3 65 20 116 13 44 28 92 31 107 4 16
10 27 14 25 85 -45 204 -78 277 -78 l34 0 -15 -36 c-29 -68 14 -120 77 -93 23
9 33 9 42 0 17 -17 36 -13 62 13 21 21 23 29 14 54 -10 30 -49 55 -71 47 -15
-6 -45 11 -36 20 3 3 21 8 41 12 27 4 39 1 56 -16 11 -11 31 -21 43 -21 25 0
80 30 116 63 l22 20 0 -44 c1 -120 96 -207 280 -258 198 -55 394 -49 613 19
38 12 70 20 72 18 2 -2 -5 -39 -16 -83 -10 -44 -19 -92 -19 -106 0 -24 -5 -27
-52 -37 -47 -9 -55 -8 -73 8 -11 11 -38 26 -59 35 -88 37 -305 -15 -388 -93
-45 -42 -33 -93 29 -119 l36 -14 -46 -47 c-95 -97 -120 -200 -73 -296 82 -167
281 -259 616 -286 80 -6 155 -16 167 -22 12 -6 36 -8 55 -3 18 4 79 8 135 10
321 10 690 77 855 155 52 25 63 26 110 18 74 -14 196 -5 237 16 104 55 123
156 33 184 l-42 14 25 41 c13 23 27 65 31 94 6 45 3 58 -20 96 -44 76 -116
132 -200 157 l-73 22 5 72 c4 67 2 74 -22 104 -16 18 -75 56 -138 89 -96 50
-128 74 -231 170 -103 98 -131 119 -214 158 -52 25 -115 50 -139 56 -66 17
-152 7 -211 -24 l-51 -26 5 38 c4 32 1 43 -24 71 -25 28 -38 34 -86 38 -31 2
-57 8 -57 13 0 5 -13 15 -30 24 -16 9 -30 19 -30 24 0 13 77 57 142 81 72 27
95 51 80 85 -7 15 -24 28 -44 33 -31 8 -28 10 57 30 50 11 122 32 160 47 109
41 113 42 96 21 -19 -22 -59 -43 -146 -76 -99 -36 -98 -48 12 -146 110 -99
205 -160 283 -185 33 -10 70 -28 83 -39 34 -33 134 -78 222 -101 59 -15 122
-22 242 -26 l161 -5 33 -34 c23 -24 42 -34 63 -34 19 0 91 30 183 76 131 66
160 77 218 82 l67 5 -7 44 c-6 39 -3 47 19 68 14 13 26 32 26 41 0 9 9 31 20
49 20 32 20 33 1 56 -16 21 -17 33 -9 99 11 92 -6 159 -55 212 -22 24 -36 53
-44 91 -11 55 -107 247 -123 247 -4 0 -24 -7 -45 -15 -20 -9 -99 -22 -175 -29
-105 -10 -146 -18 -171 -34 -43 -26 -64 -28 -114 -14 -54 16 -145 14 -175 -3
-14 -8 -45 -14 -70 -15 -30 0 -59 -8 -85 -25 -63 -39 -90 -32 -64 17 6 11 14
41 18 66 6 42 9 46 46 59 86 29 114 112 55 168 -33 32 -84 64 -149 96 -56 27
-137 23 -181 -10 -19 -14 -30 -17 -30 -9 1 22 34 55 79 77 55 28 84 74 77 124
-4 35 -3 37 24 37 22 0 29 -6 35 -27z m1799 5 c3 -13 7 -43 11 -66 7 -54 29
-98 88 -178 55 -74 77 -116 77 -143 0 -19 4 -20 60 -14 l60 6 0 -37 c0 -46
-33 -112 -74 -148 -24 -21 -41 -28 -76 -28 -55 0 -62 -5 -88 -56 -21 -41 -97
-106 -162 -139 -119 -60 -279 -60 -416 0 -38 18 -132 116 -167 175 -14 25 -33
72 -41 105 -22 81 -21 267 1 374 l18 83 50 -6 c27 -3 69 -6 93 -6 53 0 53 -10
2 -32 -23 -9 -40 -23 -40 -32 0 -20 -2 -20 54 5 36 16 57 19 93 13 55 -8 57
12 2 32 -33 12 -32 12 35 13 127 2 320 41 369 76 41 30 46 30 51 3z m-1761
-251 c130 -77 143 -138 41 -190 -23 -12 -34 -13 -43 -4 -17 17 -14 25 18 42
61 31 52 83 -22 125 -60 34 -129 40 -179 14 -22 -11 -33 -13 -41 -5 -17 17 3
44 44 58 50 18 105 6 182 -40z m-79 -136 c80 -73 70 -206 -21 -264 -21 -13
-47 -34 -58 -47 -11 -12 -36 -30 -55 -40 -19 -10 -44 -27 -54 -39 -11 -12 -24
-21 -31 -21 -6 0 -36 -13 -66 -29 -94 -51 -359 -127 -578 -167 -154 -28 -480
-7 -594 38 -20 8 -26 16 -22 28 3 11 -4 29 -19 47 -22 25 -30 28 -90 28 -63 0
-68 2 -107 39 -50 49 -66 76 -45 76 8 0 18 -4 21 -10 3 -5 17 -10 30 -10 15 0
26 -7 30 -21 9 -28 63 -59 103 -59 24 0 44 -10 75 -40 40 -36 49 -40 113 -44
69 -4 104 -12 104 -25 0 -14 59 -41 89 -41 18 0 47 6 65 14 23 10 38 11 51 4
10 -6 46 -10 80 -10 48 0 70 5 101 24 27 18 55 26 90 26 51 2 136 31 149 51 3
6 17 8 29 5 14 -3 50 5 88 20 36 14 78 26 94 26 16 0 40 7 52 16 13 8 39 18
58 20 56 7 124 51 124 80 0 7 18 26 39 44 22 17 43 39 46 49 3 11 18 24 33 30
53 22 82 114 46 143 -9 7 -28 25 -42 39 -15 14 -35 29 -44 32 -18 6 -25 47
-11 60 8 9 89 -37 127 -72z m-2607 -40 c52 -38 83 -53 131 -62 l64 -13 -7 -31
c-20 -86 -24 -113 -25 -147 0 -21 -2 -38 -5 -38 -3 0 -28 12 -56 26 -59 31
-119 100 -119 137 0 14 -4 28 -9 32 -5 3 -7 21 -4 40 7 41 -9 65 -43 65 -13 0
-24 4 -24 8 0 7 21 32 27 32 1 0 33 -22 70 -49z m-101 -17 c25 10 54 -3 54
-24 0 -10 -7 -20 -15 -24 -22 -8 -18 -34 5 -41 11 -3 20 -11 20 -16 0 -5 -9
-9 -20 -9 -16 0 -20 -7 -20 -34 0 -19 -5 -38 -10 -41 -16 -10 -40 14 -40 40 0
31 -8 35 -39 18 -32 -19 -76 -11 -86 14 -4 13 3 26 25 44 l31 26 -22 15 c-13
8 -19 19 -15 26 10 16 53 15 60 0 4 -10 9 -8 18 4 9 12 16 14 25 6 7 -5 20 -7
29 -4z m1764 -76 c-1 -21 -83 -77 -125 -86 -21 -4 -40 -13 -42 -19 -3 -7 9 -8
39 -1 97 20 126 20 175 3 26 -10 54 -24 62 -31 37 -33 -43 -128 -138 -163 -50
-18 -58 -19 -78 -6 -12 8 -33 15 -45 15 -38 0 -132 -27 -136 -39 -5 -14 -32
-14 -32 -1 0 25 32 70 50 70 10 0 21 9 25 20 5 17 15 19 84 19 78 0 131 8 131
20 0 3 -42 6 -92 6 -116 0 -146 8 -154 40 -9 36 18 70 79 102 110 56 197 79
197 51z m1924 -6 c4 -10 22 -44 41 -76 18 -31 37 -66 40 -77 7 -20 3 -19 -36
8 -55 38 -113 57 -148 50 -20 -4 -39 2 -67 21 -30 21 -54 27 -106 30 -38 2
-68 8 -68 12 0 4 48 10 108 14 59 3 130 12 157 20 69 19 73 19 79 -2z m-3839
-72 c16 -18 16 -22 2 -52 -65 -141 -168 -531 -182 -698 -7 -71 -5 -81 33 -180
21 -58 53 -133 71 -167 35 -71 40 -102 10 -60 -21 27 -62 37 -74 17 -14 -23
-44 -10 -55 24 -7 23 -22 39 -45 50 -31 15 -38 15 -63 2 -28 -14 -30 -14 -54
12 -31 33 -119 164 -116 172 2 3 49 97 105 210 106 214 134 273 228 480 62
137 101 210 114 210 4 0 16 -9 26 -20z m267 -68 c13 -13 50 -39 84 -58 l61
-34 6 -146 c10 -217 -15 -412 -78 -617 -14 -46 -25 -91 -25 -101 0 -36 -25 -7
-58 65 -39 88 -38 115 8 297 51 208 58 362 20 504 -13 47 -61 138 -72 138 -5
0 -8 6 -8 13 1 6 9 1 20 -13 11 -14 30 -35 42 -48z m-156 31 c20 -25 23 -26
53 -13 28 11 33 11 46 -6 24 -31 55 -143 61 -219 11 -126 -26 -367 -80 -530
-13 -38 -11 -46 21 -135 43 -121 110 -245 178 -329 55 -70 129 -141 145 -141
19 0 25 4 22 17 -4 16 72 67 179 119 50 24 92 44 94 44 3 0 4 -14 3 -32 l-3
-32 85 -12 c107 -14 230 -44 230 -55 0 -15 -55 -10 -122 11 -34 11 -73 20 -86
20 -42 0 -18 -23 39 -37 30 -8 82 -21 117 -30 34 -8 62 -19 62 -23 0 -19 -66
-19 -135 1 -43 13 -81 19 -92 14 -17 -7 -17 -8 2 -15 11 -4 56 -18 100 -30
125 -35 123 -42 -7 -34 -66 3 -118 2 -118 -3 0 -24 35 -53 90 -73 33 -12 60
-27 60 -32 0 -13 -98 -1 -152 18 -55 19 -69 18 -125 -11 -98 -51 -260 -75
-286 -43 -6 8 -41 32 -76 53 -76 45 -202 143 -253 196 -100 106 -295 452 -305
542 -10 88 52 413 114 597 48 142 65 184 91 213 20 22 22 22 48 -10z m2512 11
c42 -29 22 -98 -38 -129 -43 -22 -50 -19 -50 24 0 24 -8 48 -21 65 -24 30 -23
31 11 45 37 15 73 13 98 -5z m397 -57 c19 -10 19 -10 1 -21 -11 -6 -35 -24
-54 -41 -32 -27 -41 -29 -108 -30 -41 0 -74 2 -74 4 0 12 46 70 64 81 46 29
123 32 171 7z m533 -7 c50 -36 63 -58 65 -113 l2 -42 -48 2 c-55 2 -97 25 -97
52 0 24 -42 75 -81 98 -16 10 -29 21 -29 25 0 4 33 8 73 8 66 0 78 -3 115 -30z
m-183 -10 c44 -27 87 -78 83 -99 -4 -21 -73 -39 -96 -24 -9 5 -19 19 -20 29
-6 31 -48 68 -101 89 -27 10 -47 23 -44 28 10 17 141 0 178 -23z m378 -18 l32
-33 -25 -20 c-14 -11 -43 -29 -65 -39 l-40 -19 -11 50 c-6 28 -21 59 -33 70
-11 11 -21 22 -21 26 0 3 29 3 65 1 58 -3 69 -8 98 -36z m-2648 18 c4 -6 -6
-10 -23 -10 -41 0 -56 -22 -49 -71 7 -52 54 -103 106 -117 29 -7 47 -5 82 9
24 10 55 18 69 18 33 1 70 -25 70 -50 0 -22 -1 -22 -55 -9 -30 7 -56 5 -101
-7 -33 -9 -71 -13 -85 -10 -97 24 -184 167 -137 224 24 30 109 45 123 23z
m2147 -28 c77 -38 87 -87 24 -122 -26 -14 -28 -14 -54 17 -57 66 -148 85 -215
44 -50 -30 -62 -8 -16 30 71 60 175 72 261 31z m1576 -30 l21 -38 -53 -54
c-29 -30 -79 -86 -111 -125 -32 -38 -62 -71 -67 -73 -4 -2 -8 10 -8 27 0 21
-7 35 -23 46 -27 18 -64 10 -134 -29 -35 -20 -49 -23 -64 -15 -24 12 -24 12 6
59 30 48 52 62 135 86 81 23 163 70 214 122 21 22 44 38 51 36 6 -3 21 -22 33
-42z m-2614 -28 c21 -21 20 -50 -3 -73 -24 -24 -123 -56 -145 -48 -19 8 -22
66 -3 90 32 43 121 61 151 31z m536 7 c0 -5 -7 -14 -16 -22 -47 -39 -59 -141
-24 -209 28 -54 26 -59 -20 -53 -46 6 -57 -13 -12 -23 86 -18 182 -69 307
-161 36 -26 79 -54 97 -61 30 -11 26 -12 -42 -7 -177 13 -268 24 -314 40 -69
24 -198 105 -279 177 -79 71 -78 75 23 102 74 19 92 31 145 101 42 55 113 125
127 125 4 0 8 -4 8 -9z m400 -26 c52 -38 58 -55 19 -55 -23 0 -41 -10 -69 -37
-20 -21 -39 -45 -42 -53 -4 -12 -11 -12 -49 5 -24 10 -48 22 -53 26 -15 13 37
90 79 115 51 30 73 30 115 -1z m-215 3 c31 -14 31 -14 2 -69 -23 -42 -26 -44
-79 -50 -31 -3 -66 -13 -79 -23 -37 -25 -49 -20 -49 22 0 47 28 103 60 119 32
16 111 17 145 1z m-917 -40 c19 -19 14 -35 -24 -78 -32 -35 -42 -40 -80 -40
-88 0 -124 33 -83 76 39 42 160 69 187 42z m-214 -4 c13 -5 12 -10 -5 -37 -10
-18 -19 -39 -19 -48 0 -22 -20 -29 -78 -29 -70 0 -106 45 -64 83 31 28 127 46
166 31z m3112 -39 c23 -25 49 -60 58 -78 9 -18 27 -50 41 -72 86 -139 166
-323 189 -431 15 -71 13 -74 -54 -74 -91 0 -280 -86 -362 -164 -44 -43 -52
-44 -66 -8 -51 130 -82 213 -82 222 0 5 -9 10 -20 10 -11 0 -20 -4 -20 -9 0
-5 18 -55 41 -111 23 -56 44 -125 48 -154 4 -28 14 -64 23 -81 8 -16 23 -54
32 -82 19 -56 40 -68 70 -38 20 20 23 19 29 -12 3 -16 0 -32 -8 -38 -185 -153
-319 -247 -387 -271 -55 -19 -55 -19 -78 26 -13 25 -34 47 -55 57 -23 11 -36
25 -39 42 -8 44 -25 162 -36 251 -5 47 -16 133 -24 191 -35 256 -33 405 7 450
20 23 29 26 99 25 43 -1 78 -4 78 -8 0 -4 24 -23 52 -43 64 -43 110 -47 133
-11 12 18 35 151 33 186 -1 19 4 30 15 30 7 0 26 17 42 38 52 67 178 202 188
202 6 0 30 -20 53 -45z m-1725 -6 c20 -10 20 -11 -2 -45 -11 -19 -21 -50 -21
-68 0 -34 0 -34 -51 -38 -29 -3 -56 -1 -61 3 -22 19 66 159 100 159 9 0 24 -5
35 -11z m94 -47 c29 -18 30 -21 27 -80 -4 -60 -5 -62 -31 -62 -16 0 -42 7 -59
16 -37 18 -42 51 -18 109 17 40 36 44 81 17z m621 -1 c18 -11 44 -35 59 -55
23 -30 27 -43 22 -76 -8 -65 -75 -130 -133 -130 -23 0 -25 3 -19 23 15 49 27
149 21 182 -4 19 -17 44 -28 55 l-22 20 35 0 c19 0 48 -9 65 -19z m-874 -39
c4 -4 5 -23 2 -41 -5 -24 -16 -37 -44 -51 -21 -11 -47 -31 -58 -45 -24 -30
-37 -31 -80 -5 -61 37 -89 112 -57 154 22 29 117 37 179 14 27 -9 53 -21 58
-26z m385 27 c21 -7 43 -29 67 -66 20 -30 36 -59 36 -63 0 -4 -18 -13 -40 -20
-30 -10 -46 -10 -63 -2 -12 6 -34 13 -49 16 -33 7 -44 47 -28 105 12 44 24 49
77 30z m183 -20 c24 -11 52 -27 62 -36 17 -15 17 -17 -3 -44 -17 -25 -27 -29
-67 -29 -46 0 -48 1 -74 49 -15 26 -34 54 -43 61 -8 7 -15 17 -15 22 0 14 87
-1 140 -23z m624 -11 c32 -28 37 -37 31 -61 -6 -21 -12 -26 -26 -22 -23 8 -25
-8 -4 -25 17 -14 9 -34 -11 -26 -7 3 -16 1 -20 -5 -3 -6 3 -13 14 -16 11 -3
22 -16 26 -31 4 -22 -2 -33 -32 -59 -20 -18 -41 -31 -47 -30 -39 13 -22 307
19 307 7 0 30 -15 50 -32z m-391 -63 c0 -35 -8 -86 -17 -113 -21 -63 -58 -82
-156 -82 l-70 0 0 29 c0 30 28 76 93 154 43 52 125 102 142 86 6 -6 9 -39 8
-74z m751 23 c9 -36 5 -147 -7 -208 -10 -46 -16 -56 -35 -58 -35 -5 -78 16
-112 55 -35 39 -38 57 -10 48 26 -8 25 2 -2 26 -20 16 -21 20 -8 29 8 5 23 10
33 10 9 0 17 5 17 10 0 6 -14 10 -31 10 -50 0 -32 30 39 67 76 39 107 42 116
11z m-2295 -7 c13 -24 -8 -43 -73 -64 -94 -32 -160 -84 -232 -183 -17 -22 -25
-26 -34 -18 -9 9 -7 21 10 53 43 84 155 185 241 215 59 20 76 20 88 -3z m2079
-93 l-3 -83 -29 -3 c-15 -2 -39 -1 -52 2 -21 6 -24 12 -24 49 0 23 5 59 11 80
10 36 11 37 55 37 l45 0 -3 -82z m-1179 51 c17 -6 31 -15 31 -19 0 -4 -19 -17
-42 -28 -50 -24 -102 -75 -118 -116 l-10 -28 -42 34 c-54 44 -62 59 -54 91 14
57 151 95 235 66z m421 -31 c0 -7 -9 -26 -20 -43 -11 -16 -20 -44 -20 -62 0
-17 -4 -35 -10 -38 -16 -10 -253 -66 -258 -61 -9 9 40 76 84 115 50 44 97 69
164 87 58 16 60 16 60 2z m-202 -14 c22 -4 20 -8 -26 -44 -52 -42 -90 -87
-110 -133 -9 -21 -17 -26 -34 -23 -13 3 -41 8 -63 11 -71 11 -75 14 -75 52 0
28 8 43 37 71 72 68 159 89 271 66z m631 -8 c10 -12 9 -20 -2 -38 -8 -13 -18
-34 -22 -48 -4 -14 -18 -35 -32 -47 -20 -19 -22 -28 -17 -63 l7 -40 -31 6
c-42 8 -114 -17 -262 -92 -68 -35 -132 -64 -142 -64 -10 0 -47 27 -83 59 -65
59 -84 68 -197 86 -52 8 -63 29 -12 22 25 -3 85 6 169 26 137 33 258 39 435
24 l75 -7 -70 23 c-68 23 -69 24 -46 37 15 8 58 13 108 13 45 0 80 4 77 8 -3
5 -11 9 -19 9 -28 0 -25 21 7 60 37 44 41 46 57 26z m-2925 -57 c20 -15 35
-20 57 -15 24 5 29 2 29 -15 0 -34 -36 -93 -85 -138 -43 -40 -74 -51 -45 -16
8 9 11 30 7 55 -3 27 -1 43 9 51 20 17 17 56 -6 79 -27 27 -1 27 34 -1z m492
-11 c21 -10 60 -56 52 -62 -2 -2 -33 -11 -70 -20 -37 -10 -74 -26 -84 -37 -14
-15 -20 -16 -38 -6 -11 7 -39 17 -60 22 -22 6 -41 15 -43 21 -7 20 43 79 77
91 38 14 127 8 166 -9z m220 -34 c22 -10 84 -59 84 -68 0 -3 -15 -13 -32 -22
-18 -9 -36 -21 -39 -26 -3 -4 -16 1 -30 13 -13 12 -48 33 -76 46 -61 28 -72
58 -25 69 15 3 32 7 37 8 10 3 45 -6 81 -20z m-1300 -64 c9 0 14 -11 14 -33 0
-43 31 -77 70 -77 23 0 30 -5 30 -20 0 -11 10 -30 21 -41 17 -17 30 -20 60
-16 37 5 68 -11 52 -26 -20 -21 -196 7 -283 44 -67 29 -72 37 -61 95 5 27 12
66 16 87 l6 38 30 -26 c17 -14 37 -25 45 -25z m1220 -25 c58 -34 67 -47 57
-86 -7 -25 -16 -35 -40 -41 -17 -4 -36 -15 -43 -23 -11 -13 -16 -12 -44 3 -22
12 -54 17 -111 17 l-80 0 -3 33 c-3 29 3 40 39 73 24 22 57 44 73 49 44 13
104 3 152 -25z m502 29 c38 -8 57 -47 45 -92 -8 -30 -151 -172 -174 -172 -11
0 5 35 21 45 5 3 14 23 20 45 14 50 -4 96 -51 133 l-33 26 24 10 c29 11 104
14 148 5z m-799 -48 c14 -13 17 -24 12 -44 -7 -26 -11 -27 -87 -32 -81 -6
-112 -17 -151 -53 -19 -16 -25 -18 -38 -7 -20 17 -19 70 3 97 32 41 99 64 175
60 45 -3 74 -10 86 -21z m631 -1 c40 -21 60 -53 60 -96 0 -38 -26 -81 -60 -99
-15 -8 -21 -4 -37 28 -23 48 -61 65 -150 70 -62 4 -73 7 -73 22 0 26 42 63 87
77 54 16 139 16 173 -2z m970 -10 c63 -9 139 -24 170 -35 30 -10 76 -22 101
-25 26 -3 55 -13 65 -21 30 -24 -266 -13 -362 13 -63 18 -184 70 -184 79 0 9
101 3 210 -11z m-554 -44 c87 -53 148 -200 169 -411 14 -140 -99 -510 -156
-510 -20 0 -17 41 5 81 59 107 116 324 116 443 0 69 -22 181 -48 238 -29 66
-96 136 -138 144 -67 12 -159 -56 -243 -181 -102 -150 -125 -231 -111 -389 10
-115 24 -179 46 -213 16 -26 9 -33 -27 -26 -42 8 -64 88 -64 233 0 92 5 130
24 190 58 187 121 279 254 369 80 54 124 62 173 32z m130 -12 c120 -37 179
-74 288 -179 128 -124 132 -128 244 -186 135 -70 160 -108 130 -195 -16 -47
-59 -95 -153 -171 -111 -89 -134 -102 -287 -154 -104 -36 -152 -47 -220 -51
-49 -3 -88 -3 -88 1 0 4 9 17 20 29 33 35 66 114 99 242 50 189 39 170 96 167
28 -2 54 -7 58 -11 5 -5 3 -35 -3 -68 -18 -89 -7 -109 14 -28 10 39 19 75 21
82 4 12 60 2 76 -14 4 -5 1 -37 -7 -72 -23 -99 -12 -116 15 -23 14 45 30 82
36 82 6 0 33 -11 59 -24 36 -18 44 -20 31 -6 -8 9 -33 25 -55 35 -37 16 -40
21 -40 57 0 42 7 45 53 21 27 -14 30 -14 19 -1 -7 9 -25 21 -40 27 -23 10 -31
23 -45 80 -10 38 -25 77 -33 87 -15 18 -15 18 -10 -6 3 -14 12 -46 20 -72 8
-26 11 -50 7 -52 -5 -3 -26 2 -48 10 -35 14 -41 21 -52 64 -12 46 -40 97 -41
74 0 -6 7 -31 15 -54 21 -58 19 -63 -15 -55 -38 8 -40 -10 -3 -20 34 -8 43
-21 43 -62 0 -32 -2 -33 -39 -33 -78 0 -87 10 -95 92 -16 163 -67 317 -122
369 -21 20 -31 39 -20 39 2 0 35 -10 72 -21z m-127 -59 c49 -51 74 -105 95
-204 20 -96 20 -128 1 -236 -28 -158 -107 -370 -137 -370 -6 0 -40 9 -76 20
-37 11 -98 23 -137 27 l-70 8 -22 45 c-30 61 -43 134 -43 249 0 111 9 150 56
244 59 119 125 197 199 236 60 32 89 28 134 -19z m-1043 15 c18 -14 18 -15
-14 -41 -43 -35 -62 -73 -62 -130 0 -38 -3 -45 -16 -40 -9 3 -29 6 -46 6 -43
0 -108 66 -108 108 0 63 75 111 176 112 29 0 58 -6 70 -15z m-306 -18 c0 -8 9
-22 20 -32 14 -13 20 -31 20 -60 0 -77 62 -128 153 -124 38 2 61 -3 82 -17 43
-28 147 -25 205 5 l43 22 50 -27 c43 -23 57 -26 109 -21 86 8 164 49 197 103
23 39 30 43 64 44 20 0 37 -2 37 -4 0 -2 -15 -30 -33 -62 -31 -55 -35 -58
-108 -85 -129 -47 -240 -62 -412 -56 -166 5 -234 19 -333 67 -112 54 -162 139
-134 225 11 34 40 49 40 22z m839 -12 c32 -16 41 -33 41 -78 -1 -39 -24 -68
-77 -95 -75 -39 -212 -47 -244 -15 -6 6 -1 29 12 57 17 39 19 53 10 79 -14 39
-7 46 61 63 62 16 156 11 197 -11z m-364 4 c72 -20 103 -72 79 -134 -11 -27
-86 -72 -143 -84 -48 -10 -58 -9 -97 10 -104 50 -61 178 69 209 45 11 48 11
92 -1z m3609 -126 c3 -21 8 -59 12 -84 l6 -46 -79 -5 c-43 -3 -107 -15 -143
-28 -71 -24 -188 -97 -219 -136 -10 -13 -21 -24 -24 -24 -3 0 -11 17 -17 38
-7 20 -18 47 -26 59 -13 20 -10 25 49 78 103 93 223 154 347 175 85 15 88 14
94 -27z m-5314 -183 c0 -10 8 -20 17 -22 14 -2 18 -14 19 -51 1 -41 -1 -47
-16 -42 -9 3 -23 -1 -30 -10 -17 -21 -37 -19 -50 6 -9 15 -18 19 -35 15 -31
-8 -41 10 -20 34 13 15 15 23 7 33 -16 18 1 40 32 40 14 0 31 5 37 13 14 17
39 7 39 -16z m5286 -67 c8 -32 17 -123 20 -203 l7 -145 -52 -48 c-86 -81 -318
-177 -581 -241 -164 -41 -298 -61 -336 -52 -17 4 -50 30 -81 64 l-51 57 -54
-58 c-48 -51 -78 -71 -78 -49 0 4 23 39 50 77 77 107 69 121 -33 59 -71 -44
-100 -53 -112 -34 -10 16 11 44 54 70 115 69 131 80 131 90 0 6 -37 10 -94 10
-85 0 -122 9 -98 24 5 3 54 13 110 23 88 15 112 15 188 5 48 -7 95 -17 104
-22 9 -5 27 -29 41 -54 13 -25 30 -48 38 -51 35 -14 256 79 340 142 59 44 152
136 167 165 12 22 11 33 -1 74 -17 59 -12 67 73 110 60 30 211 66 226 53 4 -4
14 -33 22 -66z m-3452 -132 c60 -14 62 -26 9 -46 -26 -9 -78 -31 -115 -47 -60
-28 -71 -29 -98 -18 -48 20 -38 43 33 78 94 46 104 48 171 33z m256 -56 c0
-32 -3 -35 -37 -40 -87 -14 -242 -75 -211 -82 9 -2 25 0 35 6 24 12 175 51
200 51 14 0 22 -12 31 -45 7 -25 12 -49 12 -53 0 -5 -66 -8 -147 -8 -135 1
-151 -1 -178 -20 -16 -12 -54 -29 -83 -38 -35 -12 -61 -29 -80 -52 -15 -19
-35 -34 -45 -34 -10 0 -29 -12 -44 -26 -68 -68 41 -180 215 -219 112 -26 398
0 499 45 25 11 50 20 54 20 27 0 202 93 230 122 l33 33 146 6 c94 4 157 12
180 22 105 45 64 6 -65 -63 -74 -39 -238 -129 -255 -140 -8 -6 -51 -30 -96
-54 l-81 -44 -119 9 c-65 4 -140 11 -166 15 -57 7 -67 -11 -10 -21 76 -12 202
-22 228 -17 40 7 23 -12 -46 -52 l-59 -35 -97 10 c-245 23 -348 46 -469 104
-115 56 -195 149 -195 227 0 38 37 123 71 163 78 90 323 211 494 244 51 10 55
7 55 -34z m1841 -14 c104 -12 234 -2 325 25 18 5 22 0 28 -31 4 -20 5 -39 3
-42 -13 -12 -151 -24 -222 -18 -92 8 -238 54 -269 85 l-21 21 41 -16 c22 -9
74 -20 115 -24z m-344 -90 c58 -55 76 -93 68 -143 -6 -36 -54 -106 -80 -117
-5 -2 -29 -23 -51 -45 -58 -57 -109 -86 -152 -86 -64 0 -110 -19 -138 -55 -31
-41 -117 -72 -299 -109 -201 -41 -515 -71 -501 -48 15 24 95 60 150 66 76 8
92 20 38 26 l-44 5 69 43 c105 66 323 193 376 219 26 13 76 29 110 35 106 18
249 102 347 202 24 25 49 46 55 46 5 0 29 -18 52 -39z m-187 -40 c0 -12 -110
-90 -165 -118 -22 -11 -64 -23 -93 -27 -55 -7 -156 -46 -208 -81 -17 -11 -81
-49 -143 -85 -104 -60 -165 -98 -313 -193 -31 -20 -59 -37 -61 -37 -3 0 -33
-16 -66 -36 -59 -35 -96 -41 -96 -15 0 14 63 52 235 144 52 27 100 53 105 57
8 6 330 185 425 236 14 8 30 14 36 14 23 0 121 49 187 93 65 44 90 51 45 12
-15 -13 -18 -20 -10 -23 7 -2 21 3 31 12 10 9 22 16 27 16 5 0 20 9 34 20 29
23 30 23 30 11z m-1253 -61 c217 -12 315 -26 371 -52 47 -23 51 -37 22 -78
-33 -46 -121 -70 -339 -95 -212 -24 -327 -5 -388 64 -28 32 -42 61 -28 61 2 0
20 -11 40 -24 73 -50 124 -59 294 -53 231 8 408 59 388 111 -4 9 -11 16 -18
16 -6 0 -9 -6 -6 -13 9 -23 -5 -31 -88 -56 -108 -32 -207 -43 -350 -38 -125 4
-172 17 -222 61 -30 25 -29 45 2 79 30 32 44 33 322 17z m-1349 -113 c76 -64
179 -135 317 -218 64 -38 193 -99 285 -134 47 -18 128 -48 180 -68 119 -45
315 -91 485 -113 194 -25 598 -30 767 -10 248 30 473 81 733 165 213 69 237
79 438 170 38 17 52 20 63 10 21 -17 66 5 110 53 29 32 38 37 50 27 31 -26 9
-48 -130 -126 -71 -40 -311 -134 -461 -180 -164 -51 -476 -131 -595 -152 -285
-53 -593 -69 -810 -43 -58 7 -161 20 -230 28 -148 18 -270 44 -400 85 -188 60
-441 178 -578 270 -24 16 -45 29 -48 29 -2 0 -42 24 -87 54 -76 49 -174 126
-252 198 l-30 28 53 0 c52 0 56 -2 140 -73z m904 43 c-48 -45 -12 -106 76
-133 205 -64 183 -61 340 -53 81 4 170 11 197 16 60 9 66 6 28 -13 -50 -26
-186 -40 -342 -34 -157 5 -179 11 -282 73 -81 49 -98 104 -45 146 31 26 55 23
28 -2z m-88 -69 c3 -4 0 -22 -6 -39 -10 -27 -9 -34 7 -53 36 -39 95 -61 174
-65 41 -2 91 -9 110 -14 20 -5 56 -10 81 -11 l45 -2 -45 -8 c-165 -29 -322 9
-398 96 -18 20 -32 43 -32 52 0 33 50 68 64 44z m2068 -72 c39 -21 15 -96 -40
-125 -31 -16 -62 -19 -187 -21 -82 -1 -163 -5 -179 -9 -49 -12 -26 19 30 39
44 17 57 18 130 7 136 -21 229 8 222 69 -3 22 -9 27 -50 35 -27 5 -48 14 -48
19 0 11 95 1 122 -14z"/>
<path d="M2270 5291 c0 -18 6 -31 15 -33 8 -2 39 -34 68 -73 28 -38 63 -75 77
-82 31 -16 136 -17 177 -2 24 8 35 21 48 57 10 26 31 59 46 74 28 26 39 58 20
58 -5 0 -16 -10 -24 -23 -41 -64 -239 -63 -364 2 -24 12 -43 28 -43 36 0 8 -4
15 -10 15 -5 0 -10 -13 -10 -29z m229 -97 c38 -4 83 -2 105 5 22 6 41 9 43 8
1 -2 -2 -19 -7 -39 -12 -41 -27 -48 -115 -48 -70 0 -98 13 -134 59 l-26 34 34
-6 c19 -4 64 -10 100 -13z"/>
<path d="M4498 4919 c-26 -14 -22 -38 7 -49 20 -8 25 -16 25 -46 0 -95 74
-126 143 -59 20 19 41 51 46 71 6 20 18 45 27 55 12 13 14 23 7 30 -7 7 -14 5
-23 -6 -14 -16 -71 -20 -98 -6 -28 14 -116 21 -134 10z"/>
<path d="M3849 4973 c-21 -42 -41 -61 -69 -65 -34 -4 -41 -51 -11 -70 13 -8
21 -23 21 -41 0 -20 13 -41 44 -73 25 -24 51 -44 58 -44 21 0 58 43 58 67 0
11 11 28 25 37 21 14 25 24 25 66 0 45 -3 52 -25 60 -17 7 -25 17 -25 34 0 57
-75 78 -101 29z m65 1 c10 -4 16 -18 16 -39 0 -26 5 -35 23 -41 47 -14 51 -63
7 -96 -17 -12 -30 -31 -30 -43 0 -42 -53 -63 -65 -27 -3 11 -17 24 -30 30 -19
9 -25 19 -25 45 0 26 -6 37 -25 47 -30 16 -28 34 6 38 26 4 69 39 69 57 0 12
20 35 31 35 4 0 14 -3 23 -6z"/>
<path d="M1070 3238 c0 -25 48 -165 65 -191 9 -14 36 -35 59 -47 60 -28 122
-26 187 8 47 24 57 36 100 114 26 48 45 89 42 92 -3 2 -20 -6 -38 -19 -19 -12
-64 -28 -100 -35 -114 -21 -206 0 -284 65 -19 17 -31 22 -31 13z m102 -94 c42
-22 163 -29 227 -14 29 7 55 10 58 7 10 -10 -59 -98 -85 -109 -15 -6 -53 -11
-84 -11 -77 0 -129 33 -151 97 -17 50 -12 54 35 30z"/>
<path d="M4880 2868 c0 -3 11 -26 24 -54 31 -65 111 -138 192 -176 58 -27 73
-30 129 -26 43 4 79 14 115 34 55 30 70 48 52 66 -8 8 -13 7 -18 -5 -8 -23
-97 -62 -103 -46 -8 24 -42 49 -67 49 -15 0 -43 -10 -64 -21 -37 -21 -40 -21
-72 -6 -48 23 -137 114 -146 151 -5 17 -16 32 -25 34 -9 2 -17 2 -17 0z"/>
<path d="M5670 2193 c-104 -54 -280 -244 -280 -303 0 -22 21 -8 45 30 60 94
209 226 313 275 17 8 32 20 32 25 0 19 -39 10 -110 -27z"/>
<path d="M3081 1731 c-42 -42 -56 -83 -46 -131 8 -38 30 -50 77 -41 74 13 122
93 98 166 -20 59 -73 62 -129 6z m110 -5 c26 -56 -22 -147 -79 -148 -65 -2
-81 49 -36 115 39 59 96 75 115 33z"/>
</g>
</svg>
