<?xml version="1.0" standalone="no"?>
<!DOCTYPE svg PUBLIC "-//W3C//DTD SVG 20010904//EN"
 "http://www.w3.org/TR/2001/REC-SVG-20010904/DTD/svg10.dtd">
<svg version="1.0" xmlns="http://www.w3.org/2000/svg"
 width="1294.000000pt" height="1600.000000pt" viewBox="0 0 1294.000000 1600.000000"
 preserveAspectRatio="xMidYMid meet">
<metadata>
Created by potrace 1.16, written by Peter Selinger 2001-2019
</metadata>
<g transform="translate(0.000000,1600.000000) scale(0.100000,-0.100000)"
fill="#000000" stroke="none">
<path d="M8290 15632 c0 -5 17 -14 38 -20 63 -19 177 -128 205 -197 5 -11 9
-41 8 -67 -1 -42 3 -49 27 -62 15 -8 44 -32 66 -54 34 -36 38 -46 40 -93 l1
-54 -30 3 c-24 2 -18 -3 30 -27 112 -53 195 -166 216 -291 17 -105 -8 -189
-99 -327 -89 -136 -193 -232 -300 -280 -31 -14 -72 -32 -91 -40 -107 -48 -494
-118 -702 -127 -178 -8 -451 10 -619 41 -230 42 -245 45 -253 53 -5 4 13 15
40 24 52 18 90 42 81 52 -3 3 -23 -3 -45 -14 -102 -51 -349 -107 -535 -122
-203 -15 -911 33 -1173 80 -266 48 -383 72 -494 100 -184 46 -180 42 -68 79
90 30 116 45 104 57 -3 3 -15 0 -27 -6 -45 -24 -346 -122 -478 -156 -180 -46
-368 -83 -465 -91 -90 -7 -97 -3 -97 63 0 35 -4 43 -22 47 -27 8 -68 -17 -68
-41 0 -9 -7 -26 -15 -36 -8 -11 -15 -32 -15 -47 0 -34 -10 -37 -187 -45 -135
-7 -142 -6 -172 15 -17 13 -29 26 -26 31 5 8 137 89 225 138 110 61 245 186
238 220 -6 27 -79 19 -141 -16 -29 -16 -78 -39 -109 -51 -32 -13 -84 -44 -117
-71 -32 -26 -72 -51 -87 -54 -16 -4 -42 -17 -59 -29 -16 -12 -52 -33 -80 -47
-27 -14 -68 -39 -90 -56 -22 -17 -58 -41 -80 -53 -22 -11 -53 -31 -68 -44 -27
-21 -37 -22 -210 -22 -173 0 -184 1 -227 24 -36 19 -183 116 -269 178 -9 6
-83 55 -165 108 -82 54 -178 121 -212 151 -83 70 -118 88 -144 74 -11 -6 -20
-19 -20 -29 0 -20 113 -166 135 -175 8 -3 21 -21 29 -40 9 -21 43 -58 85 -92
39 -32 71 -64 71 -72 0 -19 129 -146 170 -167 29 -15 31 -19 16 -27 -46 -26
-452 -3 -631 36 -118 26 -315 94 -366 127 -43 27 -51 29 -66 18 -23 -20 -255
-16 -353 6 -41 9 -102 23 -135 30 -33 8 -91 30 -129 49 -68 34 -101 40 -61 9
88 -66 318 -120 550 -129 88 -3 171 -9 185 -14 14 -5 50 -18 80 -30 147 -57
334 -101 513 -120 112 -12 369 -14 422 -4 28 5 47 1 81 -16 52 -27 164 -126
164 -145 0 -9 -19 -16 -57 -20 -32 -3 -74 -8 -93 -10 -19 -2 -38 -4 -42 -5 -5
0 -8 -8 -8 -18 0 -19 69 -92 87 -92 6 0 18 -11 27 -25 10 -15 26 -25 41 -25
13 0 27 -4 30 -10 10 -16 52 -12 99 10 36 16 49 17 82 8 46 -14 104 -64 104
-91 0 -10 -8 -32 -17 -48 -19 -31 -17 -35 12 -41 18 -3 20 2 20 64 0 49 -5 72
-18 86 -22 24 -22 32 1 32 18 0 64 -52 84 -95 10 -22 8 -30 -10 -55 -27 -36
-28 -60 -3 -60 14 0 22 12 30 44 15 63 15 67 -20 120 -17 26 -30 48 -28 49 2
2 36 14 74 27 39 13 95 37 127 53 50 26 60 28 90 18 51 -17 98 -49 98 -67 0
-11 5 -14 16 -10 9 3 18 6 20 6 15 0 0 67 -22 96 -17 22 -24 41 -21 55 4 14
-4 31 -22 52 -25 27 -36 31 -95 35 -36 2 -66 8 -66 12 0 11 95 95 147 131 54
38 100 39 109 4 3 -14 19 -32 35 -41 16 -8 29 -19 29 -24 0 -5 12 -24 28 -42
15 -18 35 -51 46 -73 22 -48 26 -54 51 -90 16 -23 19 -43 18 -109 -1 -45 -5
-102 -8 -127 l-7 -46 -61 -18 c-80 -22 -138 -45 -156 -61 -12 -11 -11 -17 10
-38 29 -31 44 -32 143 -6 43 12 81 19 83 16 9 -8 -37 -65 -57 -71 -26 -8 -26
-25 -1 -25 12 0 33 18 52 45 22 31 40 45 56 45 34 0 28 -22 -16 -68 -33 -34
-37 -42 -23 -47 11 -4 21 0 27 10 33 56 77 104 90 99 19 -8 108 22 175 58 49
27 62 30 118 25 72 -6 79 5 32 50 -16 15 -30 36 -30 45 0 10 -9 27 -21 39 -21
21 -59 22 -117 4 -22 -7 -21 -5 14 71 42 92 93 225 104 271 4 18 4 67 -1 110
-9 86 -6 93 48 93 71 0 433 75 608 126 105 30 178 39 212 26 74 -28 591 -131
758 -151 200 -25 413 -43 670 -57 296 -17 425 -11 599 27 120 26 260 26 363 0
99 -26 275 -48 473 -60 272 -17 673 27 905 100 207 65 317 140 438 301 84 111
109 162 132 259 15 64 16 86 7 132 -19 95 -66 180 -136 244 -58 54 -64 62 -76
123 -12 58 -20 71 -71 124 -48 50 -58 65 -63 106 -13 96 -148 240 -248 264
-16 3 -28 3 -28 -2z m-6652 -1146 c21 -13 67 -49 103 -80 35 -31 86 -71 114
-90 293 -196 579 -377 682 -430 18 -9 49 -32 68 -52 25 -24 41 -34 53 -29 15
6 15 8 -3 20 -11 8 -28 22 -37 31 -17 16 -16 18 14 41 18 12 37 23 44 23 6 0
18 7 25 16 7 9 36 26 65 39 28 12 55 28 58 34 4 6 34 25 66 41 32 16 62 36 67
44 8 15 106 71 230 131 40 19 78 43 85 53 19 26 70 60 104 68 16 4 43 16 59
26 17 10 36 18 43 18 7 0 25 9 40 20 38 27 82 37 82 18 0 -21 -106 -119 -165
-153 -27 -16 -86 -50 -130 -76 -44 -26 -89 -51 -100 -55 -79 -30 -338 -219
-387 -282 -39 -49 -30 -58 56 -57 88 0 119 -19 114 -69 -2 -22 4 -37 25 -57
27 -27 35 -49 18 -49 -5 0 -14 7 -21 16 -19 22 -77 44 -118 44 -22 0 -60 -14
-101 -36 -98 -54 -151 -67 -268 -66 -82 1 -108 -3 -139 -19 -41 -20 -83 -28
-54 -9 17 11 10 13 -42 10 -29 -1 -38 2 -38 14 0 9 8 16 19 16 11 0 23 5 27
12 5 8 -3 9 -30 5 -21 -3 -49 -1 -64 5 l-27 11 33 7 c52 12 50 20 -5 20 -64 0
-94 25 -41 35 18 3 65 7 103 9 39 2 76 4 83 5 26 2 10 30 -51 89 -60 58 -173
139 -245 176 -53 27 -156 131 -149 150 4 11 -3 22 -21 33 -50 32 -142 116
-142 130 0 8 -22 36 -50 64 -27 27 -50 54 -50 59 0 5 -14 25 -31 44 -17 20
-28 40 -24 46 8 14 10 13 53 -14z m2026 -444 c17 -116 18 -140 6 -185 -12 -49
-18 -64 -54 -147 -8 -19 -19 -46 -24 -60 -6 -14 -21 -50 -35 -81 -32 -71 -24
-91 28 -66 20 9 43 17 52 17 22 0 53 -29 53 -50 0 -9 11 -22 25 -28 14 -6 25
-17 25 -23 0 -8 -4 -8 -15 1 -21 17 -72 5 -123 -30 -67 -45 -143 -63 -237 -57
-54 4 -102 1 -147 -9 -145 -33 -172 5 -34 47 125 39 125 39 132 190 l5 125
-30 32 c-17 17 -31 41 -31 52 0 11 -4 20 -9 20 -5 0 -12 11 -15 24 -3 14 -20
40 -36 58 -17 18 -30 40 -30 48 0 9 -15 21 -35 29 -27 10 -34 17 -30 30 3 10
-1 24 -10 31 -21 18 -19 27 12 44 26 13 29 12 98 -48 38 -33 74 -66 80 -72 5
-6 31 -26 57 -44 61 -42 73 -62 93 -145 19 -83 19 -146 0 -171 -8 -10 -14 -26
-14 -34 -1 -26 38 32 50 75 6 22 20 57 31 77 30 59 50 137 54 213 6 128 16
194 30 206 8 6 14 21 14 34 0 26 9 37 29 33 12 -3 20 -35 35 -136z m-119 -34
c-3 -13 -10 -61 -15 -108 -9 -101 -37 -203 -53 -197 -7 2 -15 23 -19 48 -4 24
-10 54 -13 66 -3 12 -50 60 -104 106 l-99 84 142 10 c77 5 147 10 155 11 9 2
11 -4 6 -20z"/>
<path d="M1810 14310 c0 -21 127 -132 195 -171 68 -38 111 -65 280 -174 44
-28 94 -60 110 -70 58 -36 165 -127 165 -141 0 -8 5 -14 10 -14 22 0 7 27 -41
72 -45 42 -100 81 -229 163 -19 12 -67 43 -106 68 -39 26 -112 71 -163 100
-85 50 -201 147 -201 168 0 5 -4 9 -10 9 -5 0 -10 -5 -10 -10z"/>
<path d="M10357 15539 c-74 -75 -117 -152 -117 -214 0 -36 -43 -79 -128 -128
-90 -52 -187 -149 -222 -221 -15 -32 -25 -73 -28 -120 -6 -98 18 -150 109
-236 135 -130 245 -168 518 -177 l184 -6 64 -58 c67 -59 157 -102 280 -134 64
-17 268 -20 343 -5 28 5 76 4 127 -3 100 -13 349 2 523 33 127 22 323 74 355
94 11 7 47 23 80 36 92 36 136 60 130 70 -3 5 -29 -1 -58 -15 -267 -124 -462
-172 -787 -195 -125 -9 -183 -9 -240 0 -92 14 -81 14 -165 -1 -91 -15 -274 -7
-340 16 -100 34 -191 83 -243 129 -28 26 -50 51 -47 56 9 14 -29 17 -100 8
-97 -13 -265 -1 -355 23 -104 29 -164 62 -243 132 -92 81 -121 143 -114 239 7
86 39 149 114 221 55 55 204 151 250 163 20 5 21 11 16 52 -8 70 31 150 114
234 37 37 64 70 60 74 -3 4 -40 -26 -80 -67z"/>
<path d="M4875 13809 c-67 -16 -178 -59 -225 -86 -25 -14 -86 -66 -136 -115
-72 -70 -98 -104 -122 -156 -72 -156 -76 -250 -18 -424 32 -92 89 -187 171
-283 15 -16 36 -45 48 -65 32 -52 80 -89 130 -99 23 -5 38 -17 54 -46 22 -39
30 -85 16 -85 -5 0 -46 -37 -91 -81 -67 -65 -87 -91 -98 -129 -14 -48 -36 -68
-164 -150 -109 -70 -206 -202 -245 -335 l-12 -40 -152 -3 c-101 -2 -151 -6
-151 -13 0 -8 45 -10 147 -8 l148 4 -3 -40 c-3 -44 -20 -175 -28 -216 -5 -24
-10 -27 -63 -32 -33 -3 -92 -1 -132 3 -58 6 -76 13 -89 30 l-17 22 -83 -16
c-46 -10 -92 -22 -102 -27 -10 -6 -27 -7 -38 -4 -21 7 -73 -19 -136 -65 -33
-26 -51 -31 -98 -33 l-58 -2 -25 70 c-14 39 -24 81 -23 95 4 44 3 54 -5 93 -6
33 -5 39 13 44 13 3 22 16 26 37 l6 33 270 -1 c226 -1 270 1 270 13 0 12 -31
13 -187 9 -104 -2 -226 -2 -271 1 l-84 6 -23 72 c-26 83 -67 158 -95 173 -10
5 -24 16 -32 23 -34 33 -140 87 -211 106 -98 27 -267 29 -348 5 -187 -56 -362
-221 -418 -396 -12 -35 -15 -37 -64 -42 -29 -3 -178 -8 -332 -11 -153 -3 -281
-8 -284 -10 -13 -14 34 -15 325 -7 176 5 322 6 326 3 4 -3 2 -39 -4 -79 -10
-63 -9 -86 6 -160 10 -48 27 -104 37 -124 17 -33 18 -43 7 -84 -11 -40 -19
-49 -48 -61 -92 -37 -137 -65 -163 -102 -23 -34 -39 -43 -109 -67 -135 -45
-162 -59 -180 -98 -19 -39 -76 -70 -168 -90 -30 -6 -68 -20 -85 -31 -26 -18
-47 -20 -180 -21 -240 -2 -255 -3 -255 -15 0 -8 19 -9 63 -5 34 4 71 6 82 6
11 0 68 0 127 0 l107 0 -13 -38 -13 -37 -144 -1 c-154 -2 -227 -8 -299 -23
-35 -8 -24 -9 55 -4 55 3 109 9 121 13 12 5 39 4 60 -1 56 -13 184 -14 697 -7
169 3 307 3 307 0 0 -2 -8 -16 -19 -30 -23 -34 -113 -239 -156 -357 -18 -49
-43 -118 -56 -152 -23 -60 -23 -63 -6 -92 17 -30 21 -103 8 -151 -5 -20 -14
-26 -41 -28 -29 -3 -181 -28 -445 -73 -27 -5 -69 -12 -92 -15 -27 -4 -43 -12
-43 -20 0 -18 41 -18 86 1 20 8 46 12 59 9 13 -3 36 1 52 9 28 15 103 29 248
47 39 4 92 12 119 16 44 6 49 5 43 -10 -4 -10 -7 -23 -7 -29 0 -6 -33 -43 -72
-82 -89 -86 -205 -210 -237 -253 -13 -17 -33 -32 -45 -32 -11 -1 -51 -3 -88
-6 -51 -4 -76 -2 -100 10 -57 29 -102 31 -125 6 -17 -17 -27 -20 -56 -15 -30
6 -39 2 -66 -24 -22 -22 -31 -39 -31 -63 1 -32 19 -68 35 -68 5 0 16 -7 25
-15 9 -8 33 -18 53 -22 31 -7 47 -21 95 -83 79 -103 135 -133 248 -134 78 -1
84 0 136 37 30 20 60 37 67 37 14 0 13 -27 -14 -370 -8 -96 -21 -265 -30 -375
-8 -110 -20 -256 -25 -325 -6 -69 -19 -240 -30 -380 -27 -345 -39 -487 -50
-604 -6 -54 -10 -106 -10 -116 0 -12 -10 -21 -29 -25 -37 -8 -48 -36 -56 -145
-3 -47 -12 -137 -20 -200 -8 -63 -21 -184 -30 -268 l-15 -154 -58 -53 c-45
-42 -68 -75 -112 -163 -30 -61 -61 -111 -69 -112 -8 0 -11 -6 -7 -15 3 -9 -3
-52 -14 -98 -26 -111 -40 -210 -41 -307 -1 -78 -2 -82 -28 -92 -90 -37 -162
-74 -214 -109 -36 -25 -63 -37 -68 -32 -6 6 -4 35 6 74 24 105 27 104 -83 49
-122 -60 -184 -109 -256 -199 -55 -69 -135 -216 -114 -209 6 2 34 44 62 94 73
129 168 222 280 274 48 22 89 40 92 40 4 0 3 -10 0 -22 -4 -13 -13 -54 -20
-93 -8 -38 -17 -78 -21 -87 -10 -25 9 -23 38 5 13 12 49 40 81 62 32 22 76 54
98 71 37 29 79 45 227 90 25 8 46 13 47 11 5 -5 -47 -128 -79 -187 -17 -30
-46 -86 -65 -125 -19 -38 -43 -82 -54 -97 -26 -37 -1 -38 32 -3 38 41 121 92
170 105 57 16 171 40 187 40 35 0 3 -90 -72 -205 -18 -27 -40 -68 -49 -90 -18
-42 -40 -190 -32 -204 3 -5 28 3 56 16 95 45 172 58 273 45 49 -6 91 -13 94
-16 3 -2 -7 -27 -22 -55 -30 -55 -74 -99 -203 -205 -83 -69 -152 -147 -152
-172 0 -18 9 -17 54 1 19 8 58 20 86 26 27 6 50 15 50 21 0 5 -12 7 -28 4 -90
-18 -102 -18 -102 -3 0 15 47 60 179 171 55 46 98 94 131 145 55 82 62 106 30
96 -11 -4 -50 1 -87 10 -37 9 -79 14 -95 11 -15 -3 -28 -2 -28 2 0 13 82 93
125 121 131 89 346 167 624 227 66 15 91 11 56 -8 -11 -6 -101 -91 -199 -190
-125 -125 -176 -182 -168 -190 14 -14 36 -5 126 51 95 60 185 98 257 107 l54
7 -85 -80 c-69 -65 -93 -97 -128 -164 -66 -132 -82 -188 -82 -296 0 -69 3 -94
12 -91 7 3 31 36 55 74 23 38 56 83 72 100 27 29 146 94 172 94 8 0 9 -18 5
-58 -3 -31 -10 -113 -15 -182 -7 -100 -14 -138 -35 -189 -15 -35 -25 -66 -21
-69 3 -3 22 4 43 17 173 103 335 151 510 151 l116 0 -36 -37 c-20 -21 -51 -65
-69 -98 -72 -132 -125 -178 -284 -243 -56 -22 -100 -46 -100 -54 0 -10 49 -13
245 -13 224 -1 250 -2 300 -21 120 -46 180 -84 263 -167 90 -91 187 -197 187
-205 0 -14 -143 19 -315 71 -75 23 -91 24 -477 16 -98 -2 -178 -6 -178 -9 0
-3 26 -10 58 -16 66 -13 230 -81 305 -126 59 -36 212 -149 272 -202 l40 -34
-55 -26 c-46 -22 -69 -26 -144 -26 -117 0 -241 23 -346 65 -103 41 -231 75
-280 75 -19 0 -60 -7 -90 -15 -30 -9 -91 -25 -135 -36 l-80 -21 -59 36 c-33
20 -64 36 -69 36 -17 0 5 -21 42 -40 76 -38 213 -192 258 -290 24 -50 62 -154
59 -158 -2 -2 -44 17 -92 41 -49 24 -111 49 -139 56 -27 7 -76 22 -107 33 -32
11 -65 17 -74 14 -15 -6 -15 -9 5 -29 11 -13 21 -27 21 -32 0 -4 10 -22 23
-39 53 -71 149 -255 183 -351 27 -75 28 -89 27 -225 -2 -142 -18 -250 -39
-257 -5 -2 -23 34 -38 79 -61 180 -233 471 -330 561 -47 43 -129 84 -185 93
-37 6 -40 9 -60 65 -59 160 -208 323 -488 529 -26 19 -58 45 -71 57 l-24 23
26 10 c46 17 117 11 181 -16 81 -34 100 -40 91 -26 -19 31 -183 77 -238 67
-60 -12 -78 -17 -84 -26 -6 -10 43 -57 131 -124 315 -242 406 -350 476 -566
21 -66 52 -168 69 -227 17 -59 35 -121 40 -138 13 -41 13 -54 -4 -54 -22 0
-110 85 -165 159 -28 38 -60 71 -71 74 -17 4 -20 0 -20 -33 0 -22 -3 -41 -8
-43 -11 -7 -139 48 -185 80 -65 44 -141 125 -177 188 -18 32 -46 69 -62 84
-17 14 -42 51 -57 81 -32 63 -109 176 -140 204 -35 32 -42 12 -8 -24 110 -120
228 -389 272 -620 30 -154 41 -497 20 -567 -6 -18 -85 29 -140 83 -46 44 -93
132 -116 217 -6 23 -15 51 -19 62 -5 11 -24 59 -43 107 -19 47 -56 118 -83
158 -48 71 -137 160 -161 160 -18 0 -16 -20 4 -42 14 -16 17 -42 17 -167 l1
-148 -40 9 c-22 4 -66 21 -97 37 -64 33 -81 19 -20 -15 27 -16 174 -64 195
-64 1 0 1 66 -1 146 -3 144 -3 145 17 134 20 -10 103 -125 134 -187 9 -17 39
-98 67 -179 61 -180 112 -259 194 -300 17 -9 43 -28 58 -42 44 -41 54 -21 62
121 10 180 -19 500 -60 663 -9 37 10 29 69 -30 65 -63 125 -106 207 -147 73
-36 97 -37 112 -4 6 14 17 25 24 25 7 0 35 -28 62 -62 28 -35 63 -75 79 -90
27 -26 121 -74 129 -66 2 2 -5 33 -16 69 -11 35 -26 89 -34 119 -9 30 -25 86
-36 124 -26 87 -25 102 3 110 85 22 290 -196 388 -414 11 -25 29 -62 40 -84
24 -46 65 -166 74 -218 4 -21 13 -42 21 -49 11 -9 17 -4 29 25 51 122 69 337
40 476 -19 90 -29 114 -124 293 -34 63 -61 121 -61 130 0 28 61 21 162 -18 51
-20 115 -49 144 -65 67 -39 79 -39 58 1 -39 77 -44 104 -25 154 17 46 17 46
29 20 15 -33 32 -32 33 3 1 34 14 69 21 56 3 -5 15 -39 27 -75 30 -93 39 -102
84 -94 20 4 34 11 31 16 -3 5 -15 7 -28 3 -29 -7 -38 5 -70 89 -41 108 -80
163 -75 105 4 -44 -1 -78 -11 -78 -5 0 -10 7 -10 15 0 8 -8 15 -18 15 -14 0
-21 -12 -28 -47 l-10 -48 -17 39 c-9 21 -42 74 -73 118 l-55 79 18 32 c29 50
121 79 238 74 53 -2 103 -10 120 -19 49 -25 246 -86 311 -97 33 -6 108 -11
166 -11 100 0 110 2 169 33 34 17 64 37 66 44 3 6 -8 18 -24 26 -15 8 -40 26
-54 39 -69 65 -253 192 -341 237 -25 13 -44 39 -35 48 2 2 43 8 92 15 109 14
227 1 375 -42 119 -34 267 -63 282 -54 13 9 9 16 -52 85 -139 158 -227 241
-283 270 -153 79 -262 103 -423 93 -91 -5 -116 -4 -133 8 -21 15 -20 16 28 37
115 49 188 118 241 225 22 45 51 82 84 112 64 55 55 66 -58 72 -132 7 -287
-28 -444 -99 -100 -45 -125 -38 -96 28 12 28 16 66 15 146 0 80 5 128 19 180
11 40 20 75 20 79 0 17 -35 6 -129 -41 -72 -37 -110 -63 -143 -100 -62 -69
-72 -67 -66 14 9 110 95 253 227 379 37 34 60 64 57 72 -13 33 -186 -4 -285
-61 -56 -33 -78 -34 -57 -3 29 40 200 210 259 255 71 55 76 78 15 68 -153 -24
-495 -125 -566 -166 -47 -27 -54 -24 -33 13 52 89 94 259 118 471 4 38 9 47
21 42 16 -6 72 -19 232 -55 52 -12 150 -35 218 -52 118 -29 124 -29 175 -14
81 24 284 60 661 117 156 23 156 23 156 2 0 -32 49 -124 90 -170 45 -52 47
-59 21 -82 -10 -9 -25 -36 -32 -59 -7 -23 -18 -47 -26 -53 -7 -6 -13 -16 -13
-22 0 -14 -82 -111 -165 -192 -39 -39 -78 -87 -88 -107 -25 -53 -25 -129 1
-165 84 -119 375 -119 532 -1 28 20 157 140 255 234 55 53 64 68 70 108 6 40
-6 144 -31 256 -4 20 4 37 34 75 87 110 164 334 179 521 3 46 9 84 13 84 4 0
24 11 45 26 37 25 38 25 51 5 13 -18 24 -20 94 -17 60 2 81 -1 85 -12 3 -7 5
-51 5 -97 0 -46 7 -143 16 -217 19 -164 22 -533 4 -598 -6 -25 -14 -60 -17
-77 -4 -29 -11 -34 -47 -44 -22 -5 -48 -12 -58 -15 -9 -3 -23 -15 -31 -28 -16
-24 -138 -78 -214 -95 -94 -20 -185 -101 -199 -178 -9 -49 10 -105 50 -147 68
-70 163 -96 366 -103 183 -7 324 8 515 52 33 8 128 16 211 19 129 4 162 8 230
31 95 32 173 70 191 93 44 56 47 76 30 205 -15 118 -15 123 4 149 37 52 24
199 -51 575 -21 109 -44 254 -50 323 -6 69 -12 134 -13 145 -2 21 1 22 71 24
23 0 42 6 42 12 0 6 -20 8 -52 6 -68 -6 -78 -1 -78 35 0 33 -13 118 -36 243
-23 122 -41 275 -32 269 5 -3 16 -21 26 -39 16 -32 117 -169 145 -197 7 -7 18
-20 23 -30 5 -9 64 -75 132 -147 68 -72 121 -135 117 -141 -3 -5 1 -10 9 -10
16 0 66 -58 120 -140 l36 -55 0 -375 c0 -372 -13 -573 -41 -647 -18 -49 -14
-105 10 -124 19 -16 20 -19 6 -33 -27 -26 -134 -82 -259 -135 -66 -28 -130
-60 -143 -73 -42 -39 -49 -110 -18 -184 50 -121 447 -136 790 -30 86 27 177
41 320 51 124 9 265 34 297 53 17 10 30 29 37 56 15 61 22 259 11 317 -7 37
-7 56 1 66 8 9 10 36 6 82 l-7 68 98 100 c53 56 124 136 157 178 33 42 84 94
113 117 29 22 65 57 81 77 33 41 95 162 105 204 19 80 -129 259 -271 328 -38
18 -42 24 -37 47 10 49 13 52 41 51 16 0 64 1 108 4 128 8 132 6 172 -82 19
-42 41 -89 50 -106 8 -16 35 -88 59 -158 24 -71 55 -149 68 -175 13 -26 26
-60 30 -77 4 -16 13 -43 21 -60 8 -16 32 -75 54 -130 21 -55 53 -129 71 -164
46 -91 117 -268 180 -441 36 -101 58 -134 93 -138 15 -2 27 -8 27 -14 0 -20
-90 -94 -156 -128 -132 -69 -165 -114 -158 -215 6 -88 18 -111 70 -131 37 -14
65 -16 158 -11 l113 7 11 -39 c7 -21 12 -48 12 -59 0 -29 74 -184 121 -252 63
-92 205 -218 305 -269 130 -67 248 -84 454 -67 123 11 327 109 428 206 85 83
182 205 182 230 0 5 10 29 21 54 18 35 29 46 62 56 47 14 100 47 116 73 16 24
-3 83 -30 98 -17 9 -14 13 33 37 47 25 53 32 65 77 23 87 -3 279 -44 326 -8
10 -21 41 -28 70 -18 68 -5 115 34 122 14 3 44 12 66 20 l40 15 -4 100 c-2 71
1 114 12 149 9 26 19 68 22 93 9 64 15 80 28 80 6 0 48 -12 94 -26 82 -25 82
-26 76 -55 -12 -62 87 -121 142 -85 14 9 25 23 25 31 0 21 10 19 61 -13 24
-15 82 -50 128 -76 96 -55 199 -129 218 -155 11 -17 8 -19 -32 -25 -25 -3 -63
-15 -85 -26 -21 -11 -47 -20 -57 -20 -37 0 -126 -40 -176 -79 -113 -87 -157
-144 -206 -266 -93 -232 -54 -480 99 -621 87 -80 170 -104 364 -104 l121 0 78
48 c85 53 162 141 173 200 3 17 9 32 13 32 3 -1 172 -29 376 -63 l369 -62 11
-70 c21 -134 131 -309 238 -380 98 -64 322 -104 400 -71 39 16 47 45 11 37
-10 -3 -59 -5 -109 -5 -78 -1 -98 3 -148 26 -76 37 -140 97 -189 180 -154 260
-101 577 127 759 80 64 154 98 243 111 97 15 166 1 238 -48 30 -21 56 -35 59
-32 5 5 -99 82 -145 107 -14 7 -54 24 -90 38 -57 22 -75 24 -142 19 -43 -4
-102 -16 -133 -28 l-56 -21 -42 39 c-23 22 -69 62 -102 89 -33 27 -73 62 -89
77 -41 38 -100 54 -251 68 -71 6 -148 13 -170 16 -22 3 -100 9 -173 14 -146 9
-148 10 -227 86 -121 117 -219 202 -282 242 -22 15 -71 49 -108 75 -37 26 -95
62 -128 79 -34 17 -75 40 -90 50 -32 23 -32 22 4 141 l21 68 52 -6 c28 -3 155
-15 281 -26 127 -11 260 -23 297 -26 66 -6 68 -5 101 28 60 60 71 205 22 299
l-17 32 36 33 c48 44 93 146 102 229 l7 66 104 0 c105 0 143 9 143 34 0 8 7
20 16 27 15 12 16 11 10 -9 -11 -35 3 -26 20 13 29 71 8 75 -41 7 l-34 -48
-110 -2 -109 -3 -8 58 c-4 32 -7 91 -7 130 1 64 4 76 28 105 25 30 27 36 21
98 -4 36 -10 198 -15 360 -8 247 -13 317 -34 430 -50 265 -93 409 -158 529
-71 128 -94 154 -280 311 -20 16 -48 30 -61 30 -14 0 -31 7 -38 15 -10 13 -9
15 12 15 26 0 68 37 68 60 0 15 5 33 51 170 17 52 35 120 40 150 4 30 14 83
21 118 10 51 9 74 -2 125 -7 34 -16 87 -20 117 -8 75 -23 99 -135 217 -79 84
-109 109 -168 138 -89 43 -193 57 -354 45 -104 -7 -120 -11 -199 -49 -48 -23
-100 -53 -117 -67 -17 -14 -54 -37 -82 -49 -57 -27 -141 -96 -150 -125 -3 -10
-15 -22 -25 -25 -32 -10 -80 -85 -80 -124 0 -20 -11 -58 -25 -85 -43 -86 -26
-218 31 -245 39 -17 94 -64 94 -80 0 -7 16 -36 36 -64 40 -55 46 -100 24 -175
-7 -20 -10 -53 -8 -72 2 -28 9 -38 34 -50 20 -9 36 -28 44 -48 6 -18 22 -37
35 -42 15 -6 25 -20 29 -44 5 -26 15 -40 36 -51 16 -8 37 -31 46 -51 26 -55
53 -68 124 -60 33 4 90 20 126 37 55 24 65 26 59 12 -4 -10 -10 -27 -12 -38
-3 -11 -25 -61 -49 -112 -24 -50 -44 -97 -44 -103 0 -9 -9 -10 -27 -5 -16 4
-51 9 -80 12 -61 6 -110 -16 -221 -97 -61 -43 -74 -59 -89 -101 -12 -34 -23
-49 -36 -49 -10 0 -37 -8 -60 -19 -23 -10 -62 -22 -87 -26 -46 -8 -132 -46
-162 -73 -16 -13 -25 -12 -95 13 -285 100 -313 116 -400 226 -26 34 -71 76
-99 95 -46 31 -58 34 -123 34 -70 0 -72 -1 -117 -42 -49 -45 -88 -112 -99
-169 -5 -27 -1 -41 19 -69 14 -19 35 -50 47 -67 11 -18 26 -33 32 -33 7 -1 29
-20 50 -45 36 -43 37 -46 52 -177 37 -321 48 -367 99 -422 37 -40 76 -54 170
-62 56 -5 83 -14 127 -40 58 -35 179 -144 179 -162 0 -10 -72 -34 -150 -51
-92 -20 -250 -108 -250 -140 0 -4 -9 -17 -20 -29 -17 -18 -32 -22 -78 -22 -83
0 -96 6 -120 56 -25 52 -38 55 -47 14 -8 -36 -15 -37 -45 -5 -30 32 -38 31
-42 -2 -3 -26 -5 -24 -36 30 -19 31 -38 57 -43 57 -6 0 -7 -6 -2 -12 19 -30
31 -83 26 -114 -6 -37 -4 -37 -108 -34 -70 2 -82 11 -115 90 -12 30 -30 66
-39 80 -25 36 -61 137 -61 170 0 16 -4 32 -10 35 -5 3 -10 22 -10 41 0 19 -4
34 -9 34 -14 0 -44 70 -57 135 -6 33 -31 119 -54 190 -23 74 -45 165 -50 210
-5 44 -15 107 -23 140 -8 33 -20 103 -27 155 -6 52 -16 118 -21 145 -5 28 -16
87 -24 132 -7 44 -19 100 -25 123 -6 23 -10 43 -8 45 2 1 18 10 36 19 77 39
116 223 110 521 l-3 180 60 3 c35 2 66 9 76 18 26 24 67 151 79 249 8 60 20
104 36 132 35 60 92 214 110 297 9 39 20 75 25 81 5 5 9 17 9 28 0 10 24 91
54 180 150 450 160 496 145 675 -6 64 -12 119 -15 124 -3 4 -9 61 -14 125 -6
65 -17 150 -26 190 -9 40 -13 77 -9 83 3 5 25 10 48 10 52 0 102 14 122 34 10
10 26 13 44 10 16 -3 55 0 87 7 33 7 82 12 109 10 28 -1 82 5 120 13 39 8 104
18 145 22 41 3 91 14 110 24 21 10 43 15 54 10 24 -8 66 -1 66 12 0 5 -9 7
-19 3 -11 -3 -29 0 -40 6 -15 10 -22 10 -34 1 -8 -7 -52 -17 -98 -22 -46 -5
-102 -12 -125 -16 -47 -7 -76 14 -55 40 7 8 11 27 9 43 -2 20 -11 30 -33 38
-16 5 -38 20 -48 33 -13 15 -29 22 -52 22 -24 0 -38 6 -45 20 -14 25 -48 25
-80 0 -35 -27 -60 -26 -60 3 0 17 -10 28 -35 40 -26 12 -35 23 -35 41 0 27 -9
36 -43 42 -12 2 -34 6 -48 10 -21 4 -31 0 -47 -21 -17 -22 -28 -26 -59 -23
l-38 3 -8 59 c-5 32 -6 60 -3 63 3 3 36 14 73 25 274 79 300 82 353 43 40 -29
45 -30 84 -10 16 9 48 15 70 14 23 -1 82 8 131 19 105 23 148 21 184 -7 52
-42 92 -53 170 -48 78 5 80 6 112 65 25 44 75 52 233 35 121 -12 174 -23 112
-23 -17 0 -38 -12 -60 -35 -19 -19 -39 -35 -45 -35 -6 0 -11 -7 -11 -15 0 -8
-8 -15 -17 -15 -31 0 -45 -16 -53 -61 -7 -35 -5 -46 8 -55 15 -11 14 -14 -9
-22 -38 -15 -44 -40 -17 -69 l22 -24 -27 -25 c-15 -14 -27 -30 -27 -37 0 -7
-9 -18 -20 -25 -11 -7 -20 -23 -20 -36 0 -31 -19 -38 -135 -45 -91 -6 -117
-23 -40 -27 53 -3 195 16 195 26 0 13 43 20 56 9 9 -7 45 -2 119 17 72 18 109
24 113 16 9 -13 102 -3 102 10 0 6 -15 8 -32 6 -18 -3 -40 -1 -49 5 -12 8 -45
4 -120 -15 -68 -16 -108 -22 -116 -16 -7 6 -26 7 -43 3 -23 -5 -30 -3 -30 9 0
8 7 19 16 24 8 5 21 20 28 33 6 13 24 30 39 37 33 16 34 22 2 52 -14 13 -25
27 -25 32 0 5 11 13 25 18 26 10 36 52 15 65 -26 16 0 81 29 73 6 -2 32 21 59
50 39 41 55 52 80 52 18 0 32 -4 32 -10 0 -26 28 -6 36 27 12 48 36 63 62 39
19 -17 22 -16 61 8 23 15 41 31 41 36 0 6 8 10 18 10 10 0 28 9 40 21 35 32
56 21 62 -31 3 -25 9 -50 13 -56 11 -18 74 -26 98 -14 17 10 24 8 40 -9 14
-15 27 -19 48 -15 34 7 91 -14 91 -34 0 -27 98 -102 133 -102 7 0 25 14 41 31
24 26 35 30 60 25 26 -5 36 -1 67 31 21 21 47 47 58 57 12 11 21 27 21 37 0
29 26 42 73 35 58 -9 77 0 77 35 0 24 7 32 42 49 23 11 47 20 54 20 12 0 29
28 25 44 -3 12 50 66 64 66 17 0 55 -44 55 -63 0 -25 19 -21 42 8 29 37 56 33
64 -10 4 -24 15 -41 35 -52 16 -10 29 -23 29 -29 0 -7 9 -16 21 -19 15 -5 29
1 49 20 24 23 34 26 64 21 43 -8 71 5 91 44 8 16 25 30 37 32 12 2 27 13 33
25 12 24 107 93 128 93 21 0 37 -22 37 -51 0 -15 7 -29 16 -33 22 -8 20 -9 48
21 22 24 28 25 51 15 39 -18 54 -15 82 19 17 20 32 29 45 26 13 -4 23 3 32 21
26 50 49 63 96 56 26 -4 51 -16 63 -30 11 -13 29 -24 40 -24 31 0 -41 61 -83
71 -56 13 -68 11 -107 -24 -21 -18 -50 -38 -66 -45 -15 -6 -32 -23 -39 -37
-14 -30 -31 -32 -58 -5 -25 25 -44 25 -68 0 -18 -20 -18 -20 -40 10 -28 38
-63 39 -114 4 -21 -15 -40 -25 -42 -23 -2 2 10 34 27 71 21 45 41 72 62 84 16
10 66 48 110 84 l80 67 85 7 c70 6 93 12 132 37 41 27 53 30 89 24 48 -8 47 9
-1 20 -34 7 -93 -9 -130 -36 -37 -27 -132 -36 -161 -15 -30 20 -102 21 -119 1
-7 -8 -20 -15 -29 -15 -10 0 -26 -7 -37 -15 -22 -17 -85 -20 -101 -4 -8 8 -17
8 -31 0 -35 -19 -86 -14 -100 10 -12 19 -20 21 -69 16 -50 -5 -104 6 -103 22
1 3 19 19 42 34 23 16 37 32 32 37 -12 12 -144 25 -144 14 0 -5 -16 -10 -35
-11 -19 -1 -35 3 -35 8 0 5 5 9 10 9 6 0 10 5 10 10 0 7 -7 7 -20 0 -19 -10
-21 -9 -18 17 3 25 -1 28 -32 33 -19 3 -35 10 -35 17 0 20 -8 22 -98 24 -78 2
-87 4 -82 19 4 14 -3 19 -35 24 -23 3 -50 12 -60 19 -21 12 -27 37 -11 37 19
0 61 48 61 70 0 22 -1 22 -120 15 -83 -5 -120 -4 -120 3 0 6 5 14 10 17 20 12
9 24 -30 36 -32 10 -40 17 -40 36 0 12 5 23 10 23 6 0 10 11 10 25 0 24 -3 25
-57 26 -32 1 -62 0 -68 -1 -5 -2 -35 -3 -66 -4 -48 -1 -61 -6 -92 -33 -27 -23
-51 -34 -86 -39 -30 -4 -52 -12 -55 -21 -9 -23 -83 -9 -115 23 -22 22 -31 25
-64 20 -22 -4 -46 -13 -54 -21 -8 -8 -25 -15 -37 -15 -13 0 -44 -3 -69 -6 -40
-6 -48 -4 -54 12 -10 28 -23 34 -75 34 -64 0 -79 7 -72 35 6 23 -11 32 -74 40
-33 5 -37 11 -24 40 23 50 18 54 -54 50 -40 -2 -72 -9 -82 -18 -9 -9 -29 -18
-44 -22 -23 -6 -26 -4 -21 14 5 19 1 21 -34 21 -21 0 -44 5 -51 12 -10 10 -16
7 -28 -10 -13 -18 -19 -21 -30 -11 -10 8 -14 8 -14 0 0 -7 -26 -11 -72 -11
-57 0 -81 -5 -108 -21 -31 -19 -33 -22 -17 -34 25 -18 5 -31 -67 -44 -45 -8
-62 -8 -67 1 -4 6 -7 -5 -6 -25 1 -49 -17 -67 -69 -67 -42 0 -44 1 -38 25 6
24 4 25 -44 25 -36 0 -57 -6 -77 -22 l-28 -22 27 -22 c32 -28 33 -37 2 -58
-23 -14 -33 -56 -14 -56 4 0 8 -5 8 -10 0 -7 -20 -10 -49 -9 -28 2 -56 -2 -63
-8 -14 -11 -118 -27 -118 -19 0 3 13 19 30 36 34 34 68 50 110 50 34 0 60 9
60 21 0 5 -6 9 -14 9 -7 0 -19 14 -26 30 -15 36 -52 41 -84 11 -25 -22 -99
-34 -115 -18 -6 6 -33 10 -61 8 -31 -1 -50 2 -50 8 0 6 -7 11 -15 11 -20 0
-19 13 5 40 11 13 20 29 20 36 0 17 -66 30 -83 16 -7 -6 -36 -14 -65 -18 -51
-6 -52 -6 -52 20 0 24 -3 26 -48 26 -27 0 -52 3 -55 7 -10 9 23 29 61 38 17 3
32 11 32 17 0 6 18 7 50 3 45 -6 50 -5 50 13 0 11 9 22 20 25 33 9 23 24 -25
37 -25 7 -45 16 -45 21 0 8 63 29 88 29 7 0 15 7 19 16 5 14 19 15 97 9 84 -6
92 -5 103 14 11 18 9 21 -25 32 -49 15 -60 27 -31 33 97 20 130 29 146 41 24
19 80 19 133 0 45 -16 127 -20 147 -7 19 12 19 40 -2 56 -20 14 -19 15 10 27
20 9 72 13 158 11 113 -1 152 6 115 21 -20 8 12 27 42 26 14 -1 40 -1 59 -1
32 2 33 3 27 37 -6 30 -4 36 21 48 63 32 190 40 205 13 12 -20 41 -20 80 0 25
13 49 15 108 11 90 -6 110 -13 110 -38 0 -25 9 -28 102 -33 85 -4 100 -10 91
-31 -4 -13 9 -15 81 -15 l86 0 -6 -25 c-4 -18 -1 -27 10 -31 14 -5 10 -11 -20
-31 -31 -22 -34 -27 -22 -39 11 -12 21 -12 42 -4 15 5 45 10 66 10 21 0 42 5
45 10 8 13 46 13 80 0 22 -8 25 -13 16 -24 -19 -23 24 -46 89 -46 30 -1 66 -7
80 -15 14 -8 19 -14 13 -15 -20 0 -15 -18 7 -25 31 -10 24 -23 -25 -46 -25
-12 -48 -26 -51 -31 -17 -28 77 -37 131 -14 22 9 35 10 48 2 12 -7 20 -8 25
-1 9 13 58 35 77 35 7 0 15 -12 17 -27 2 -24 8 -29 36 -31 19 -2 51 5 76 17
46 23 81 27 91 10 4 -5 19 -9 33 -8 51 4 102 -1 102 -10 0 -5 -13 -14 -30 -21
-39 -16 -53 -35 -45 -60 6 -19 13 -21 67 -19 39 2 62 -2 67 -10 10 -16 81 -4
81 13 0 6 -14 20 -31 30 -36 21 -31 30 37 55 32 13 51 26 54 40 3 12 24 30 50
43 25 13 47 31 48 41 5 26 -26 57 -57 58 -14 0 -35 4 -46 9 -19 7 -18 9 8 19
16 6 38 11 50 11 35 0 53 16 39 33 -18 21 -4 27 64 27 35 0 65 4 68 9 4 5 30
12 59 16 102 14 122 36 66 69 -27 16 -29 20 -15 28 9 5 38 12 66 15 27 3 50
10 50 15 0 5 16 16 36 24 29 12 42 13 68 3 29 -10 37 -9 60 7 21 15 26 26 23
52 -3 30 0 34 26 39 16 3 34 14 40 24 17 28 53 23 131 -16 38 -20 71 -34 73
-32 9 9 -11 37 -26 37 -9 0 -31 9 -50 21 -18 11 -55 23 -81 26 -39 4 -50 2
-61 -14 -8 -10 -33 -24 -56 -31 -49 -14 -47 -12 -31 -47 16 -35 -3 -48 -57
-40 -30 4 -50 0 -80 -16 -22 -12 -74 -31 -115 -43 -50 -14 -76 -27 -78 -38 -2
-12 5 -18 25 -20 51 -6 34 -32 -29 -43 -31 -5 -60 -13 -64 -17 -4 -5 -30 -8
-58 -8 -50 0 -87 -16 -111 -47 -5 -7 -30 -23 -55 -35 -60 -30 -60 -53 1 -54
47 -1 89 -18 89 -34 0 -6 -22 -24 -49 -40 -27 -17 -51 -39 -54 -50 -3 -11 -13
-20 -23 -20 -9 0 -37 -12 -62 -26 l-45 -27 24 -18 24 -19 -67 0 c-38 0 -68 4
-68 10 0 5 18 22 40 36 41 27 52 57 24 68 -9 3 -36 6 -60 6 -24 0 -44 5 -44
10 0 16 -49 12 -118 -10 -81 -25 -90 -25 -94 3 -3 19 -9 22 -43 21 -57 -2
-113 -11 -169 -29 -83 -26 -105 -14 -39 21 43 23 54 49 24 59 -12 3 -18 12
-15 20 8 21 -39 46 -99 52 -48 5 -56 9 -61 29 -11 43 -57 53 -171 40 -46 -6
-56 -5 -42 4 18 12 24 40 7 40 -5 0 -10 14 -10 30 l0 30 -86 0 c-77 0 -89 3
-116 25 -25 21 -40 25 -98 25 -60 0 -69 3 -75 20 -7 22 -47 36 -154 51 -68 10
-76 9 -101 -10 l-28 -20 -18 20 c-16 18 -26 19 -84 14 -68 -7 -144 -26 -179
-44 -11 -6 -21 -23 -23 -38 -3 -24 -8 -28 -38 -31 -19 -2 -64 -12 -99 -23 -35
-10 -87 -19 -115 -19 -62 0 -148 -24 -166 -45 -11 -13 -10 -18 5 -29 10 -7 14
-15 9 -19 -10 -6 -91 -2 -175 8 -41 5 -64 3 -85 -7 -16 -8 -57 -21 -92 -28
-55 -11 -102 -36 -102 -53 0 -4 19 -12 43 -19 42 -13 41 -13 -61 -18 -83 -4
-106 -8 -116 -22 -7 -10 -22 -18 -32 -18 -10 0 -27 -7 -37 -15 -26 -19 -14
-55 19 -55 13 0 24 -4 24 -9 0 -17 -26 -28 -77 -34 -38 -4 -65 -15 -97 -39
-72 -53 -69 -84 7 -72 33 5 39 3 44 -15 3 -12 17 -24 30 -27 24 -7 100 0 157
12 29 7 29 7 13 -17 -22 -31 -22 -65 1 -74 25 -11 106 -25 183 -31 70 -6 109
5 109 31 0 18 21 20 38 3 20 -20 14 -38 -14 -38 -28 0 -104 -38 -104 -52 0 -5
-16 -16 -35 -25 -22 -11 -34 -23 -33 -33 3 -12 19 -15 82 -14 43 1 87 6 99 12
12 6 42 13 67 16 25 3 54 6 64 8 33 5 144 -209 120 -231 -5 -5 -148 -12 -318
-15 -170 -3 -310 -7 -313 -10 -12 -12 74 -17 200 -12 78 4 211 9 295 11 l153
5 9 -24 c4 -13 13 -99 18 -192 9 -143 14 -180 37 -239 14 -38 30 -83 34 -100
4 -16 18 -50 29 -74 29 -58 28 -69 -5 -77 -16 -3 -42 -10 -59 -15 -18 -6 -44
-7 -58 -3 -15 3 -42 0 -65 -10 -36 -14 -43 -14 -70 0 -17 8 -33 19 -36 25 -14
22 -189 -8 -300 -51 -74 -29 -135 -37 -135 -17 0 8 -3 22 -6 31 -5 13 1 16 25
16 17 0 31 5 31 10 0 6 -16 10 -35 10 -19 0 -35 4 -35 9 0 5 -3 16 -6 25 -5
14 4 16 65 16 44 0 71 4 71 11 0 6 -26 9 -72 8 l-72 -2 -23 69 c-13 38 -28 85
-34 104 -6 19 -17 49 -25 67 -48 105 -63 136 -85 168 -28 41 -172 140 -236
162 -24 8 -43 18 -43 21 1 28 22 31 213 32 117 1 199 5 203 11 4 7 -52 10
-158 9 -89 -1 -179 -1 -198 -1 l-35 1 -2 62 c-2 35 -3 108 -3 163 0 67 -6 122
-19 168 -10 37 -15 70 -10 73 13 7 11 107 -2 141 -6 15 -12 55 -13 88 -2 33
-11 85 -21 114 -10 32 -15 67 -12 88 5 31 -18 118 -53 198 -5 11 -11 41 -15
67 -7 54 -67 154 -111 185 -16 11 -45 25 -65 32 -19 6 -53 28 -75 47 -61 57
-109 76 -208 85 -50 5 -105 14 -124 20 -74 25 -231 -16 -324 -84 -24 -17 -77
-47 -118 -68 -91 -44 -112 -66 -140 -144 -13 -33 -35 -73 -50 -90 -35 -38 -60
-87 -60 -117 0 -13 -9 -40 -20 -60 -34 -65 -60 -156 -60 -214 0 -31 -7 -84
-16 -117 -9 -34 -14 -78 -12 -99 2 -21 1 -38 -2 -38 -3 0 -21 13 -41 29 -99
82 -258 141 -434 161 -118 13 -350 56 -373 69 -10 5 -32 26 -51 46 l-35 37 -1
142 c-1 145 -14 221 -55 311 -13 29 -21 85 -28 200 -15 224 -43 294 -165 414
-48 46 -62 55 -147 98 -50 25 -66 28 -175 30 -66 1 -138 -2 -160 -8z m273 -48
c45 -12 115 -44 139 -64 103 -87 159 -176 188 -302 24 -101 4 -99 -50 6 -13
25 -44 68 -69 95 -53 57 -60 53 -70 -38 -7 -71 -14 -82 -70 -107 -22 -10 -52
-30 -65 -44 -29 -32 -122 -55 -155 -39 -37 19 -66 24 -66 12 0 -6 7 -13 15
-16 25 -10 17 -24 -13 -24 -15 0 -52 16 -82 35 -30 19 -64 34 -75 34 -19 0
-19 0 -1 -10 29 -18 57 -49 52 -58 -3 -5 -40 -12 -83 -16 -86 -8 -123 -19
-123 -36 0 -7 7 -8 18 -4 9 4 36 10 60 12 l42 6 -15 -36 c-8 -20 -15 -63 -15
-96 0 -49 6 -72 35 -127 43 -82 44 -94 5 -94 -24 0 -34 8 -56 46 -26 44 -94
104 -119 104 -33 0 -50 -29 -55 -96 l-5 -67 -37 54 c-20 30 -44 74 -54 99 -9
25 -21 50 -26 57 -14 18 -24 140 -18 223 5 61 13 90 44 150 20 41 56 95 78
120 22 25 51 57 64 71 30 34 186 115 278 145 58 18 89 22 166 20 52 -2 115 -8
138 -15z m249 -366 c65 -88 103 -172 103 -232 0 -30 6 -69 14 -86 52 -121 51
-117 51 -262 0 -82 -6 -165 -14 -200 -44 -195 -65 -230 -160 -269 -56 -22
-170 -17 -292 14 -149 38 -178 58 -284 193 -49 63 -65 77 -88 77 -64 0 -164
134 -174 234 -12 120 64 132 121 19 20 -40 43 -53 95 -53 50 0 50 5 12 87 -41
87 -57 173 -41 215 17 43 39 68 59 68 9 0 27 6 41 13 14 8 43 12 64 9 73 -9
228 30 269 67 15 14 46 34 70 46 41 21 57 42 77 98 8 23 12 26 27 16 10 -6 32
-30 50 -54z m2016 -136 c26 -5 62 -9 80 -9 42 -1 114 -34 152 -70 17 -16 63
-46 104 -67 91 -46 123 -92 147 -206 8 -42 26 -105 40 -139 13 -34 24 -77 24
-95 0 -19 7 -66 16 -105 9 -39 14 -88 11 -109 -3 -21 1 -48 8 -61 23 -47 26
-79 9 -137 -15 -54 -15 -61 2 -107 12 -32 18 -82 20 -144 1 -52 5 -122 9 -155
6 -53 5 -63 -15 -87 -12 -16 -27 -28 -35 -28 -48 0 -177 106 -215 176 -12 21
-26 46 -32 54 -8 12 -4 25 15 54 55 79 70 140 74 291 2 77 9 149 14 161 9 17
5 31 -20 72 -37 59 -54 107 -77 222 -9 47 -22 91 -29 99 -21 22 -79 -14 -137
-86 -29 -35 -66 -72 -83 -83 -45 -27 -110 -44 -129 -33 -15 8 -15 11 4 33 29
34 15 38 -17 5 -59 -59 -161 -86 -233 -61 -30 10 -62 13 -100 9 -49 -5 -59 -2
-85 19 -38 31 -65 41 -65 25 0 -27 67 -58 129 -60 34 -1 61 -3 61 -4 0 -1 -6
-22 -14 -45 -8 -24 -17 -56 -20 -72 -9 -37 -63 -108 -104 -137 -18 -12 -40
-36 -49 -53 -8 -17 -22 -39 -31 -48 -13 -16 -36 -167 -26 -177 2 -3 11 4 19
15 10 13 14 32 10 59 -5 38 11 83 21 59 13 -31 65 -104 74 -104 13 0 13 -17
-1 -79 -11 -55 -12 -55 -144 -109 -151 -62 -162 -69 -186 -113 -13 -23 -29
-44 -36 -46 -16 -6 -27 60 -16 94 6 18 6 56 0 106 -8 66 -6 88 11 158 18 68
19 88 10 135 -9 44 -8 68 5 127 9 39 19 101 23 137 4 36 19 97 35 137 16 39
29 80 29 91 0 31 27 88 59 125 16 18 40 57 54 87 33 76 71 118 133 146 29 13
56 24 60 24 4 0 22 11 39 24 37 29 145 85 183 96 31 9 144 3 215 -11z m275
-427 c7 -5 24 -52 37 -106 14 -53 37 -120 52 -149 25 -50 26 -57 24 -207 -1
-85 -7 -173 -12 -195 -34 -126 -158 -308 -252 -370 -33 -21 -155 -24 -215 -4
-54 18 -130 75 -185 139 -41 47 -62 83 -117 200 -4 9 -21 15 -40 15 -23 0 -38
8 -56 30 -34 42 -47 93 -30 117 13 18 14 18 21 -9 8 -34 23 -53 41 -53 10 0
14 15 14 56 0 33 -4 53 -10 49 -5 -3 -7 -19 -4 -34 9 -43 -13 -47 -25 -5 -10
36 -9 38 35 83 48 48 94 127 94 160 0 11 12 29 27 40 21 17 35 20 72 15 34 -4
61 0 106 17 41 15 78 21 120 20 51 -2 67 2 107 28 26 16 70 59 98 95 58 74 72
84 98 68z m-2029 -422 c23 -217 31 -323 26 -328 -8 -8 -135 24 -219 55 l-70
26 -52 -27 c-30 -16 -90 -66 -144 -122 -51 -52 -95 -93 -97 -91 -8 8 27 101
50 130 14 18 64 66 112 107 48 41 129 116 180 165 82 80 93 95 103 140 6 28
16 64 22 80 l11 29 34 -35 c32 -32 35 -40 44 -129z m147 57 c38 -9 119 -21
180 -27 157 -15 200 -25 311 -66 98 -37 143 -63 218 -127 l39 -35 -12 -53 c-7
-30 -17 -110 -22 -178 -5 -68 -11 -126 -14 -128 -2 -2 2 -27 10 -56 17 -64 8
-80 -68 -131 -97 -64 -166 -134 -223 -226 -30 -50 -55 -95 -55 -101 0 -6 -6
-9 -12 -7 -15 5 -93 118 -116 168 -11 25 -17 30 -19 18 -5 -18 61 -137 102
-186 l24 -29 -29 -85 c-62 -181 -95 -424 -105 -767 -5 -198 -10 -250 -35 -431
-22 -161 -30 -236 -40 -390 -5 -91 -13 -202 -16 -247 l-6 -83 -51 1 c-29 0
-90 6 -137 14 -47 8 -227 19 -400 25 -315 10 -492 28 -583 57 l-48 15 7 67 c3
36 7 67 8 68 0 0 19 -5 41 -13 22 -7 63 -16 90 -19 28 -4 100 -17 160 -30 61
-14 139 -29 175 -35 95 -14 324 -12 485 5 77 9 166 13 198 9 37 -4 57 -2 57 4
0 22 -98 24 -283 8 -260 -24 -462 -13 -627 34 -19 5 -75 16 -125 24 -146 23
-157 30 -246 145 -85 111 -98 148 -85 239 4 26 9 68 13 95 5 45 23 77 23 42 0
-14 59 -194 67 -204 1 -2 5 -2 8 1 3 2 -8 47 -24 99 -41 130 -49 189 -55 374
-11 320 -25 486 -56 630 -47 222 -112 480 -123 492 -14 14 -6 -49 19 -143 84
-316 112 -475 126 -709 18 -284 16 -460 -5 -582 -23 -135 -22 -204 2 -252 11
-20 27 -43 35 -50 9 -8 16 -20 16 -29 0 -8 16 -32 36 -54 19 -22 34 -44 32
-50 -3 -7 -33 -17 -69 -25 -61 -12 -220 -74 -247 -96 -18 -14 -22 -6 -32 59
-4 33 -13 72 -20 88 -71 185 -78 453 -19 775 10 58 19 122 19 143 0 66 -17 41
-24 -34 -4 -40 -10 -84 -13 -98 -6 -22 -7 -23 -14 -5 -4 11 -8 47 -8 80 -1 33
-10 130 -21 215 -11 85 -22 173 -25 195 -14 111 -22 442 -14 546 14 193 25
245 76 378 38 98 76 152 145 203 35 26 68 52 74 57 6 5 26 17 44 26 19 10 40
24 48 31 23 24 32 15 32 -31 0 -60 22 -70 61 -27 15 17 39 38 53 47 26 17 26
17 84 -37 47 -43 189 -129 249 -149 8 -3 14 -38 17 -102 3 -54 10 -115 16
-137 10 -36 14 -39 61 -49 27 -6 62 -11 77 -11 l27 0 -3 178 c-4 215 2 240 74
294 27 21 60 38 74 38 14 0 63 -14 110 -31 99 -36 132 -45 183 -52 35 -5 37
-4 37 20 0 15 -6 63 -14 107 -8 45 -16 134 -19 199 l-3 119 25 -5 c14 -2 58
-12 97 -20z m-903 -47 c29 -21 73 -48 97 -59 72 -31 255 -64 328 -58 76 6 76
-1 1 -62 -30 -24 -94 -79 -142 -122 -52 -47 -97 -79 -109 -79 -33 0 -103 81
-148 170 -22 44 -40 88 -40 97 0 10 -11 48 -24 86 -13 37 -22 67 -20 67 3 0
28 -18 57 -40z m-48 -102 c34 -108 70 -169 160 -270 70 -79 69 -77 56 -96 -6
-11 -21 -8 -71 13 -87 37 -134 68 -207 139 -48 47 -69 77 -88 126 -14 35 -25
67 -25 71 0 11 132 119 140 114 3 -2 19 -46 35 -97z m5021 56 c-20 -51 -18
-63 8 -70 20 -5 26 -12 26 -34 0 -24 -6 -30 -37 -40 -43 -14 -80 -44 -89 -72
-12 -38 -23 -15 -20 41 3 62 38 137 79 174 25 21 41 22 33 1z m-269 -177 c45
-28 81 -60 94 -82 12 -19 25 -32 30 -29 5 3 3 15 -5 27 -20 31 -30 87 -17 87
6 0 11 7 11 15 0 19 37 94 56 113 19 19 18 13 -11 -44 -16 -31 -25 -66 -25
-95 0 -54 10 -109 19 -109 4 0 18 24 32 53 19 40 35 57 68 75 24 12 45 21 48
19 2 -2 -17 -21 -42 -41 -55 -45 -80 -91 -95 -174 -6 -34 -21 -95 -34 -136
-38 -118 -41 -151 -20 -214 11 -30 24 -57 30 -59 7 -2 34 17 60 43 27 26 67
58 89 72 70 45 112 97 124 153 10 45 9 54 -9 79 -11 16 -27 48 -36 72 -19 53
-44 180 -37 191 9 15 21 -4 28 -46 9 -49 30 -115 56 -174 20 -44 42 -49 54
-14 11 36 104 119 169 151 36 18 79 46 96 61 37 36 57 38 33 4 -10 -14 -53
-47 -97 -73 -116 -69 -227 -200 -241 -282 -8 -46 -49 -96 -128 -157 -73 -56
-80 -63 -113 -128 -41 -77 -32 -148 40 -298 31 -65 56 -122 56 -127 0 -4 -15
-8 -34 -8 -39 0 -42 6 -108 178 -32 83 -42 123 -46 190 -4 72 -14 108 -64 240
-110 292 -157 378 -233 427 -52 34 -95 79 -95 101 0 22 18 12 40 -22 11 -19
30 -38 42 -42 11 -3 41 -25 66 -48 35 -32 60 -72 115 -186 38 -80 74 -151 80
-158 8 -10 16 2 34 50 53 139 54 157 17 225 -31 56 -53 83 -67 83 -29 0 -110
68 -147 122 -53 80 -52 99 2 22 31 -44 62 -73 115 -107z m-138 85 c43 -63 97
-116 130 -127 25 -8 26 -18 4 -36 -9 -8 -24 -27 -34 -42 l-17 -29 -36 54 c-20
29 -50 63 -68 76 -77 54 -74 51 -57 52 18 0 29 28 29 78 0 17 2 32 5 32 2 0
22 -26 44 -58z m1441 -19 c0 -5 -25 -28 -54 -53 -55 -45 -93 -110 -122 -205
-6 -22 -32 -94 -58 -161 -50 -132 -53 -156 -31 -230 7 -27 23 -92 34 -144 24
-111 39 -150 56 -150 6 0 32 14 56 32 24 18 84 58 133 91 86 57 153 119 177
163 9 19 6 32 -26 88 -43 78 -68 174 -60 231 8 53 54 175 66 175 12 0 2 -44
-22 -98 -26 -57 -20 -73 14 -37 14 16 29 26 33 22 4 -4 -2 -17 -13 -30 -68
-74 -69 -149 -3 -224 17 -19 30 -40 30 -48 0 -20 36 -19 44 1 3 9 6 31 6 49 0
37 32 128 55 159 21 28 32 10 13 -22 -21 -36 -48 -128 -48 -166 0 -39 -47
-121 -98 -172 -21 -21 -85 -70 -143 -109 -57 -38 -125 -87 -151 -109 -57 -47
-61 -70 -22 -154 48 -103 75 -117 93 -48 8 35 24 56 73 101 35 31 83 69 108
84 81 47 236 169 284 222 52 58 51 56 66 197 10 103 30 172 49 172 15 0 14
-14 -3 -55 -19 -45 -3 -46 18 0 21 43 36 53 36 24 0 -13 -14 -38 -31 -55 -36
-37 -55 -117 -39 -160 l10 -25 38 20 c45 23 93 75 122 131 20 39 40 60 40 41
0 -37 -116 -183 -163 -206 -18 -8 -48 -34 -67 -57 -46 -55 -127 -132 -220
-207 -41 -34 -87 -72 -102 -86 -15 -13 -40 -32 -55 -42 -16 -10 -34 -23 -41
-30 -7 -7 -17 -13 -22 -13 -4 0 -18 -21 -30 -46 -16 -33 -21 -56 -17 -85 3
-25 1 -39 -6 -39 -6 0 -23 -12 -38 -26 -21 -20 -33 -25 -56 -20 -57 13 -137
217 -187 476 -61 316 -51 283 -117 353 -43 45 -64 76 -75 112 -20 65 -32 275
-15 275 7 0 11 -25 11 -73 0 -119 36 -228 97 -292 56 -59 60 -60 80 -23 10 18
25 53 34 78 9 25 29 78 44 119 21 55 26 84 21 115 -18 131 -18 136 -5 153 12
14 15 5 19 -68 l5 -84 17 35 c9 20 40 56 70 80 29 25 55 48 56 52 5 10 32 10
32 1z m-208 -183 c1 -32 -7 -59 -47 -145 -18 -39 -35 -80 -39 -93 -5 -16 -15
-22 -34 -22 -47 1 -112 119 -112 205 0 21 15 52 45 93 45 62 63 75 117 86 15
4 33 12 40 20 11 11 14 2 21 -53 4 -36 8 -77 9 -91z m-1640 115 c2 -16 12 -21
47 -23 23 -2 56 1 71 7 41 14 67 -8 75 -64 7 -40 4 -49 -34 -106 -23 -34 -41
-65 -41 -70 0 -5 -6 -9 -12 -9 -17 0 -53 64 -68 120 -13 49 -35 90 -75 135
l-25 30 22 6 c27 7 35 2 40 -26z m1035 5 c3 -11 17 -23 32 -26 14 -3 32 -7 39
-10 23 -7 12 -37 -31 -78 -24 -22 -53 -54 -65 -71 -18 -25 -23 -28 -32 -15
-18 27 -48 115 -55 162 l-7 47 43 4 c24 2 50 4 57 5 8 1 16 -7 19 -18z m-823
-22 c8 -18 18 -44 24 -58 l10 -25 18 32 c11 18 25 33 32 33 17 0 -8 -59 -46
-108 -47 -62 -80 -115 -97 -154 -16 -41 -20 -119 -6 -146 4 -9 11 -86 15 -170
3 -84 9 -158 12 -164 10 -16 34 21 34 52 0 63 51 169 115 241 18 20 34 42 37
49 2 7 10 11 16 9 8 -3 -3 -27 -33 -69 -51 -73 -96 -201 -115 -324 -10 -69
-10 -78 8 -103 10 -16 38 -63 61 -105 l42 -78 -44 0 c-49 0 -41 -11 -103 140
-63 155 -66 168 -75 345 -5 94 -11 183 -15 198 -4 16 -34 83 -68 150 -48 96
-68 125 -91 136 -17 8 -24 16 -17 19 7 2 21 -3 31 -12 10 -9 23 -16 30 -16 18
0 4 37 -35 93 -37 51 -43 67 -18 46 31 -26 73 -96 79 -135 9 -47 75 -174 91
-174 6 0 17 14 24 31 7 17 30 58 52 90 46 73 50 119 13 173 -19 27 -21 36 -10
36 9 0 22 -15 29 -32z m1636 12 c0 -15 7 -20 28 -20 37 0 44 -8 29 -31 -15
-25 3 -39 51 -39 17 0 32 -1 32 -3 0 -1 -10 -27 -21 -57 -12 -30 -24 -91 -28
-135 l-6 -80 -147 -3 c-119 -2 -148 0 -148 11 0 17 30 108 40 122 4 6 15 35
25 65 37 113 145 240 145 170z m-926 -235 c21 -31 20 -75 0 -119 -16 -33 -18
-34 -93 -41 -100 -8 -151 -4 -151 12 0 7 20 82 45 166 42 141 48 155 87 191
l41 40 28 -113 c15 -62 35 -123 43 -136z m446 -78 c12 -32 20 -60 18 -62 -1
-1 -91 -5 -198 -6 l-195 -4 3 30 c2 17 15 48 28 70 33 55 140 162 194 192 81
46 110 68 111 83 1 8 5 -43 9 -115 6 -97 13 -145 30 -188z m-995 236 c15 -16
35 -46 45 -68 17 -39 16 -40 -11 -95 -15 -31 -31 -69 -35 -86 -15 -67 -26 -74
-119 -74 l-84 0 -6 33 c-8 44 3 69 85 193 38 58 70 110 70 115 0 18 28 8 55
-18z m242 -44 c12 -24 22 -58 22 -75 1 -42 -38 -169 -49 -158 -21 24 -81 180
-76 200 8 30 56 86 70 81 6 -2 21 -23 33 -48z m-2653 -3 c23 -59 101 -160 168
-218 49 -42 92 -66 168 -96 24 -9 23 -10 -20 -22 -27 -7 -81 -10 -135 -8 -76
4 -99 9 -150 35 -75 39 -102 65 -127 119 -18 43 -18 44 1 81 10 21 24 58 31
83 7 25 14 51 16 58 7 26 32 10 48 -32z m-4174 3 c157 -25 294 -97 367 -194
36 -49 68 -172 53 -210 -11 -28 -91 -50 -153 -42 -28 4 -51 0 -76 -12 -20 -10
-51 -22 -68 -26 -18 -3 -33 -10 -33 -14 0 -8 -64 -41 -80 -41 -4 0 -11 14 -15
30 -4 17 -9 30 -11 30 -9 0 -120 -93 -155 -129 -19 -21 -48 -69 -64 -107 -16
-38 -34 -74 -42 -80 -9 -7 -31 -8 -74 -2 -75 12 -116 -2 -135 -46 -11 -28 -10
-35 13 -76 14 -25 34 -54 44 -66 27 -29 23 -80 -11 -152 -33 -70 -36 -82 -18
-64 18 18 38 15 38 -5 0 -10 -9 -33 -20 -50 -25 -42 -55 -44 -63 -5 -3 16 -17
39 -30 52 l-24 23 24 25 c30 32 31 94 3 122 -11 11 -24 20 -30 20 -16 0 -50
77 -50 115 0 20 5 45 11 56 8 16 7 26 -5 44 -53 81 -71 239 -40 359 29 112 72
184 163 274 92 92 151 126 281 161 88 23 112 24 200 10z m2372 -246 c-2 -98
-5 -179 -6 -181 -2 -1 -26 3 -54 9 -57 12 -60 17 -62 94 -4 130 -4 129 56 194
31 34 59 61 63 61 3 0 4 -80 3 -177z m5987 147 c12 0 21 -4 21 -10 0 -5 -4
-10 -10 -10 -5 0 -10 -9 -10 -20 0 -12 -9 -39 -20 -60 -19 -38 -23 -40 -65
-40 -25 0 -48 0 -52 0 -19 -1 -12 52 10 87 31 50 66 74 89 62 9 -5 26 -9 37
-9z m-4273 -148 c32 -44 82 -78 159 -108 75 -29 209 -25 295 8 36 14 82 28
104 32 l38 7 -22 -38 c-13 -21 -34 -52 -47 -70 -12 -17 -23 -35 -23 -40 0 -4
-16 -25 -35 -45 -27 -28 -48 -39 -92 -48 -102 -22 -202 -1 -342 70 -75 38
-115 72 -147 125 -35 60 -26 114 34 194 l25 34 12 -41 c7 -22 25 -58 41 -80z
m809 79 c10 -22 28 -49 40 -61 25 -24 25 -49 -1 -196 -8 -44 -14 -95 -14 -112
0 -30 -2 -32 -34 -32 -54 0 -86 17 -152 81 -34 32 -67 59 -73 59 -6 0 -11 6
-11 14 0 20 73 126 126 182 24 27 52 61 62 77 22 37 36 34 57 -12z m-925 16
c0 -1 -11 -33 -25 -71 -14 -38 -25 -78 -25 -90 0 -32 -20 -96 -30 -96 -5 0
-11 9 -15 19 -10 32 -29 31 -118 -10 -48 -21 -89 -39 -92 -39 -11 0 38 86 74
130 20 24 41 53 46 65 14 28 185 114 185 92z m4190 -125 c0 -10 4 -22 8 -28 5
-5 21 -39 36 -76 l28 -68 -42 -50 c-23 -27 -45 -50 -50 -50 -4 0 -27 -16 -51
-35 -24 -19 -48 -35 -52 -35 -12 0 -80 -52 -95 -72 -7 -10 -22 -18 -33 -18
-26 0 -38 31 -79 196 -30 123 -31 133 -18 185 l13 54 65 6 c36 3 111 6 168 7
92 2 102 0 102 -16z m375 1 c-3 -10 -10 -63 -14 -117 l-8 -100 -69 -66 c-66
-62 -156 -130 -173 -130 -5 0 -14 -6 -20 -14 -7 -8 -50 -40 -97 -72 -93 -63
-140 -110 -150 -149 -11 -44 -25 -32 -64 53 -21 47 -22 53 -8 65 9 6 78 59
155 116 201 151 252 205 267 286 3 17 10 56 16 88 l11 57 81 0 c72 0 79 -2 73
-17z m-867 -52 c44 -62 66 -131 91 -294 18 -113 57 -262 86 -326 25 -53 26
-76 3 -53 -7 7 -30 12 -52 12 -23 0 -47 7 -58 17 -15 13 -24 14 -52 6 -53 -16
-80 2 -84 55 -2 31 -9 46 -26 58 -22 13 -27 13 -62 -8 -21 -12 -43 -23 -49
-24 -6 -1 -25 -16 -42 -33 -33 -32 -48 -38 -58 -21 -10 17 -48 11 -71 -11 -21
-20 -27 -21 -87 -10 -35 6 -78 11 -95 11 -30 0 -35 6 -74 83 -93 180 -114 260
-85 326 15 35 113 141 131 141 5 0 33 25 60 55 l51 54 205 9 c113 5 210 10
215 10 6 1 29 -25 53 -57z m-2637 14 c39 -28 53 -35 131 -65 86 -33 249 -134
279 -172 41 -54 97 -163 115 -225 9 -32 20 -65 25 -73 31 -59 89 -317 119
-530 14 -100 36 -227 56 -325 8 -38 18 -108 23 -155 5 -47 16 -111 25 -142 8
-32 15 -70 15 -85 -1 -16 -1 -62 0 -103 4 -163 -25 -291 -130 -585 -21 -60
-52 -162 -69 -225 -59 -227 -64 -244 -129 -382 l-40 -86 -58 31 -58 32 -168 0
c-138 0 -170 3 -178 15 -14 21 -5 90 35 252 19 79 42 193 51 253 19 138 47
233 91 312 l35 61 -21 34 c-24 39 -26 71 -5 88 20 16 19 43 -2 83 -13 24 -17
63 -19 162 -1 72 -12 210 -23 308 -28 235 -27 395 2 631 1 10 -4 21 -10 23 -8
3 -15 -10 -19 -35 -8 -49 -20 -53 -116 -40 -118 15 -288 15 -327 -1 l-33 -14
6 -60 c3 -33 11 -146 17 -251 11 -208 12 -212 79 -273 46 -41 156 -109 191
-118 17 -4 46 5 94 29 97 49 105 48 106 -16 1 -29 3 -118 6 -198 2 -80 4 -182
4 -227 0 -45 4 -85 9 -88 19 -12 10 -80 -15 -117 -27 -39 -49 -119 -65 -233
-6 -38 -16 -101 -23 -140 l-12 -70 -90 -23 c-166 -42 -424 -47 -462 -9 -16 16
-30 117 -38 272 -3 72 -12 184 -20 250 -8 66 -19 176 -25 245 -6 69 -18 184
-25 255 -70 633 -53 963 63 1270 40 105 128 250 186 304 29 27 21 31 116 -51
64 -54 124 -81 171 -76 38 3 35 -5 58 183 18 144 16 141 72 100z m2049 20 c0
-2 -24 -22 -52 -43 -29 -22 -68 -53 -87 -71 -38 -35 -43 -33 -61 29 -23 81
-12 90 107 90 51 0 93 -2 93 -5z m-540 -14 c0 -6 -4 -12 -9 -16 -25 -15 -92
-134 -128 -224 -6 -16 -9 18 -9 113 l1 136 73 0 c39 0 72 -4 72 -9z m210 -3
c0 -6 8 -30 18 -52 10 -23 27 -59 37 -81 10 -24 19 -72 21 -118 4 -86 16 -133
63 -247 17 -41 34 -89 37 -106 5 -28 3 -32 -20 -38 -15 -4 -39 -24 -54 -46
-22 -32 -35 -40 -70 -46 -66 -10 -127 0 -159 27 -35 29 -89 110 -133 202 -30
62 -32 73 -26 130 9 89 54 224 92 278 18 26 40 61 48 78 16 30 19 31 81 31 43
0 65 -4 65 -12z m2620 -42 c0 -20 -127 -134 -180 -161 -17 -9 -36 -28 -42 -43
-22 -57 -33 -79 -66 -132 -43 -69 -101 -130 -124 -130 -10 0 -18 4 -18 8 0 5
25 46 56 93 70 105 101 166 129 249 18 51 27 66 45 68 19 3 21 0 15 -20 -4
-13 -14 -30 -21 -39 -24 -27 -5 -28 47 -3 27 14 71 47 97 74 49 52 62 59 62
36z m-5359 -76 c51 -50 111 -83 214 -120 82 -29 99 -31 183 -28 50 2 92 3 92
2 0 0 -20 -39 -44 -85 -112 -214 -162 -487 -153 -833 6 -211 17 -357 47 -639
38 -343 68 -715 75 -922 5 -139 20 -289 30 -305 17 -28 312 -47 442 -27 47 7
53 6 63 -14 7 -12 9 -38 6 -63 l-7 -42 -142 -18 c-224 -29 -358 -39 -552 -40
-164 -1 -194 2 -340 31 -191 37 -421 79 -490 88 -69 9 -115 30 -115 52 0 30
20 93 30 93 5 0 20 -4 34 -10 32 -12 256 -31 284 -24 18 5 20 17 26 122 18
324 18 369 1 609 -23 312 -16 746 14 973 11 80 22 213 26 295 7 162 54 534 80
637 23 88 61 192 96 261 16 32 29 65 30 75 0 13 4 11 17 -8 9 -14 33 -41 53
-60z m4971 48 c3 -7 30 -11 72 -12 l68 -1 -6 -37 c-8 -47 -17 -68 -65 -148
-22 -36 -53 -89 -71 -118 -31 -54 -117 -152 -133 -152 -20 0 -77 54 -77 73 0
37 -61 62 -87 36 -9 -9 -22 -4 -53 19 -24 17 -49 28 -60 25 -25 -7 -55 -42
-66 -76 -7 -20 -25 -35 -64 -55 -45 -22 -56 -33 -60 -57 -4 -23 -10 -29 -25
-26 -64 11 -115 -12 -131 -61 -3 -10 -19 -25 -35 -34 -16 -8 -34 -27 -40 -41
-9 -25 -11 -25 -26 -10 -24 24 -21 78 6 115 12 18 52 53 89 79 37 26 85 63
107 82 22 20 63 55 90 78 28 24 107 98 178 167 109 106 135 127 185 143 65 23
198 30 204 11z m-5116 -35 c8 -28 2 -54 -40 -171 -63 -178 -106 -446 -126
-772 -6 -96 -17 -256 -25 -355 -26 -330 -27 -544 -5 -840 20 -276 25 -438 14
-494 -6 -29 -10 -31 -48 -31 -70 0 -209 19 -252 36 -71 26 -78 40 -78 167 -1
62 5 153 12 202 7 50 22 151 33 225 19 136 49 359 49 373 0 4 5 7 10 7 6 0 10
-7 10 -15 0 -8 5 -15 11 -15 7 0 9 9 6 23 -4 12 -11 56 -17 97 -7 41 -20 126
-31 188 -20 122 -26 392 -10 527 8 72 6 89 -9 66 -10 -17 -19 -131 -25 -328
-4 -106 -1 -163 11 -225 22 -109 22 -297 0 -418 -60 -339 -96 -701 -79 -790
12 -56 -3 -270 -18 -270 -3 0 -22 6 -41 14 -18 8 -61 18 -95 21 -51 6 -62 11
-67 29 -10 38 -6 102 9 152 27 83 53 273 60 430 3 82 22 277 40 434 24 197 36
345 39 480 5 222 37 567 61 661 23 91 82 249 105 281 11 15 20 30 20 33 0 20
78 121 143 188 76 76 115 98 102 57 -11 -34 29 -23 145 40 51 28 78 26 86 -7z
m-3482 -60 c2 -10 7 -33 11 -50 l7 -33 -44 0 c-24 0 -51 -7 -61 -14 -19 -14
-43 -73 -34 -83 3 -3 9 6 13 21 8 35 21 33 29 -4 4 -16 12 -30 18 -30 18 0 42
18 43 32 0 7 2 23 2 36 1 13 9 22 18 22 12 0 15 -6 11 -22 -4 -12 3 -42 14
-67 37 -80 36 -152 -1 -266 -59 -179 -97 -233 -183 -256 -80 -22 -290 13 -355
60 -17 11 -35 21 -41 21 -23 0 -10 -16 38 -47 57 -38 177 -63 296 -63 61 0 82
5 127 29 54 28 55 28 79 10 13 -10 30 -19 37 -19 59 -1 -84 -160 -192 -213
-112 -55 -204 -68 -311 -42 -149 35 -159 39 -202 83 -50 51 -52 64 -18 82 14
8 46 38 70 68 38 46 45 61 45 97 0 28 -8 56 -22 78 -23 34 -24 34 -79 29 -72
-6 -97 10 -139 89 -25 48 -30 65 -22 82 9 21 10 19 26 -18 24 -59 30 -68 66
-92 36 -25 48 -27 69 -14 19 12 7 53 -20 69 -33 21 -36 4 -4 -23 27 -21 28
-24 12 -31 -35 -13 -96 51 -112 119 -6 24 -5 27 19 27 15 0 31 -8 38 -20 7
-11 19 -20 26 -20 7 0 10 5 7 10 -4 6 6 10 24 10 42 0 75 35 94 100 18 58 56
107 140 174 42 35 47 36 47 17 0 -32 36 -27 147 21 88 37 124 45 245 56 9 1
19 -6 22 -15z m606 -183 c0 -10 6 -20 13 -23 7 -3 75 -3 150 -2 l137 4 0 -132
c0 -73 7 -208 15 -302 8 -93 15 -189 15 -212 l0 -43 -63 0 c-35 0 -68 5 -74
11 -8 8 -28 6 -73 -5 -79 -20 -134 -20 -154 0 -9 8 -16 19 -16 23 0 4 -20 28
-43 53 -82 85 -212 128 -386 128 -74 0 -98 4 -113 17 -10 9 -18 21 -18 27 0 6
21 60 46 120 25 61 48 133 51 162 l6 52 63 7 c56 6 96 24 124 55 18 20 65 40
95 40 20 0 45 5 56 11 28 14 141 37 157 31 6 -2 12 -12 12 -22z m-1630 -324
c5 -14 5 -39 -2 -64 -7 -29 -7 -50 1 -72 6 -18 8 -57 4 -89 -6 -62 9 -128 33
-147 12 -9 7 -18 -26 -48 -24 -21 -51 -37 -68 -37 -15 -1 -157 -4 -317 -6
-159 -3 -318 -6 -352 -6 -75 -2 -91 9 -72 49 8 16 25 34 37 40 13 6 29 17 35
23 6 6 34 11 63 11 36 0 59 6 77 20 14 12 40 26 57 32 22 7 36 21 46 47 12 30
24 40 77 62 34 15 91 36 127 48 53 17 69 27 83 54 23 41 54 64 120 87 67 24
66 24 77 -4z m85 -61 c34 -34 34 -83 0 -115 l-24 -23 29 -34 c35 -39 38 -75
10 -103 -27 -27 -37 -25 -55 10 -18 34 -20 93 -4 121 8 16 7 29 -5 54 -9 18
-14 39 -12 47 2 7 7 25 10 41 8 34 18 34 51 2z m304 -31 c31 -53 27 -84 -16
-125 -55 -51 -71 -61 -97 -64 -22 -3 -25 2 -31 50 -3 29 -3 81 1 114 l7 61 57
0 c56 0 59 -1 79 -36z m881 -135 c91 -21 115 -29 163 -53 29 -14 59 -32 67
-39 35 -28 82 -116 112 -207 11 -36 38 -114 58 -175 41 -118 56 -185 42 -185
-5 0 -14 12 -21 26 -11 25 -15 26 -70 21 -80 -7 -132 -32 -230 -111 -45 -38
-84 -66 -85 -64 -7 9 -46 189 -49 227 -2 25 -9 47 -15 49 -16 5 -15 -32 3
-117 8 -39 17 -97 20 -128 2 -32 9 -85 14 -118 5 -33 7 -63 4 -68 -2 -4 -22
-4 -44 -1 -32 5 -46 2 -80 -20 -36 -24 -44 -26 -74 -16 -30 10 -39 8 -80 -16
-35 -20 -49 -24 -58 -15 -16 16 -89 14 -123 -3 -19 -10 -33 -12 -45 -5 -27 14
-70 10 -114 -11 -49 -24 -49 -24 -92 -3 -34 16 -39 16 -85 -1 -44 -15 -50 -15
-64 -1 -19 19 -20 19 -78 -1 -39 -14 -52 -14 -71 -4 -14 8 -37 10 -59 6 -34
-7 -35 -6 -41 31 -3 21 -12 70 -20 108 -28 139 -35 193 -37 264 -1 65 -13 86
-20 36 -5 -38 12 -200 32 -295 11 -52 17 -96 15 -99 -3 -2 -44 -5 -93 -5 -83
-1 -91 1 -174 42 -98 47 -123 75 -115 124 8 49 121 346 161 424 43 83 86 157
95 164 4 3 21 24 39 46 34 44 99 78 170 90 37 6 42 4 58 -22 42 -68 76 -93
163 -121 73 -24 103 -28 196 -27 90 0 120 4 163 22 111 46 224 140 266 221 10
20 24 39 30 43 12 8 112 0 166 -13z m5273 -16 c10 -2 17 -14 17 -28 0 -16 11
-29 35 -44 28 -16 35 -27 35 -51 0 -38 26 -40 78 -5 44 30 59 31 67 5 5 -16
15 -20 46 -20 33 0 41 -4 49 -25 7 -19 17 -25 39 -25 40 0 55 -20 35 -49 -13
-18 -14 -28 -6 -46 10 -21 8 -24 -26 -31 -20 -5 -59 -9 -87 -10 -27 0 -77 -6
-109 -13 -45 -10 -61 -10 -66 -1 -5 9 -15 8 -38 -4 -34 -17 -144 -46 -179 -46
-17 0 -23 7 -27 33 -17 107 -48 286 -53 306 -6 23 -4 24 35 18 37 -6 42 -4 62
23 22 31 27 31 93 13z m-808 -56 c0 -1 -2 -76 -5 -167 -5 -158 1 -314 16 -391
l6 -37 -88 -42 -88 -43 -55 29 c-82 43 -168 109 -186 144 -11 22 -19 80 -25
203 -5 95 -12 201 -16 236 -4 48 -2 66 8 73 11 8 429 3 433 -5z m-3845 -110
l74 -2 7 -35 c4 -19 4 -39 0 -43 -4 -4 -37 -12 -72 -16 l-64 -8 73 -2 c39 0
72 -5 72 -10 0 -5 3 -16 6 -25 5 -13 -2 -16 -35 -16 -23 0 -41 -4 -41 -10 0
-5 18 -10 39 -10 29 0 41 -5 44 -17 12 -44 18 -217 12 -347 l-8 -143 -61 -13
c-55 -13 -194 -16 -204 -5 -3 2 -8 35 -12 72 -6 51 -4 73 6 90 20 32 27 101
16 148 -10 42 -55 178 -102 308 l-28 77 47 1 c25 1 60 5 76 9 17 5 41 6 55 3
14 -3 59 -6 100 -6z m-234 -455 c23 -14 37 -198 30 -381 -9 -252 -20 -271
-247 -423 -52 -35 -136 -81 -185 -102 -49 -21 -114 -50 -144 -63 -30 -14 -80
-34 -110 -45 -30 -12 -59 -24 -65 -28 -5 -5 -39 -18 -74 -30 -93 -31 -192 -83
-245 -129 -41 -36 -125 -71 -169 -71 -8 0 -20 -13 -27 -29 -10 -25 -9 -35 4
-62 20 -41 21 -39 -12 -39 -50 0 -66 29 -58 107 5 62 5 66 -9 49 -9 -12 -15
-41 -15 -73 0 -61 -18 -77 -51 -47 -18 16 -21 27 -16 77 4 45 2 57 -9 57 -10
0 -14 -15 -14 -60 0 -59 0 -60 -28 -60 -15 0 -33 5 -40 12 -15 15 -16 89 0
123 16 34 2 44 -25 17 -17 -18 -22 -34 -21 -72 0 -48 -1 -50 -28 -50 -36 0
-42 25 -29 121 9 70 12 76 56 117 58 52 112 68 258 77 116 7 189 24 216 49 9
9 52 41 96 72 44 31 136 100 203 153 168 130 293 218 366 256 69 36 65 20 51
195 l-8 96 64 54 c35 30 66 57 69 60 15 18 88 54 128 65 56 16 73 17 88 7z
m342 -284 c-6 -37 18 -246 33 -298 6 -19 17 -57 26 -85 8 -27 18 -113 23 -190
6 -100 15 -157 30 -200 19 -53 50 -159 67 -222 3 -14 -2 -34 -12 -49 -14 -22
-17 -50 -16 -163 0 -75 6 -168 13 -207 9 -55 9 -97 0 -180 -15 -132 -16 -873
-2 -1024 6 -58 15 -215 20 -350 6 -135 20 -319 31 -410 33 -264 55 -747 35
-778 -4 -7 -31 -12 -71 -12 -56 0 -67 3 -87 25 l-23 25 -38 -27 c-20 -14 -39
-24 -42 -22 -2 3 -9 48 -15 101 -21 186 -102 374 -211 486 l-71 73 -39 212
c-21 116 -41 241 -43 277 -2 36 -7 84 -11 106 -4 23 -2 95 4 160 29 303 42
885 25 1065 l-6 66 38 19 c30 15 40 27 46 54 12 59 -30 384 -88 670 -66 334
-73 375 -63 379 6 2 30 22 54 45 76 73 114 180 116 320 1 130 19 165 73 137
16 -8 39 -6 96 8 108 28 113 27 108 -11z m-2103 -62 c71 -32 88 -36 155 -35
l75 2 -3 -29 c-1 -16 -7 -38 -12 -49 -5 -11 -25 -54 -44 -95 -74 -158 -145
-253 -264 -353 -139 -118 -112 -109 -234 -83 -58 13 -110 26 -116 30 -5 3 -19
21 -30 40 l-20 33 83 99 c45 54 119 134 164 177 90 86 102 108 122 231 14 89
3 86 124 32z m1401 -11 c11 -44 -3 -69 -58 -100 -120 -69 -114 -67 -142 -54
-22 11 -34 9 -76 -11 -42 -20 -54 -21 -75 -12 -35 16 -63 15 -81 -3 -18 -18
-54 -19 -88 -4 -21 10 -36 8 -85 -11 -52 -19 -64 -20 -94 -9 -30 11 -40 9 -80
-10 -42 -20 -48 -21 -79 -8 -30 13 -39 13 -69 0 -20 -9 -46 -12 -64 -8 -16 4
-46 8 -65 9 -34 3 -35 5 -47 62 -16 80 -17 79 13 93 20 9 34 9 60 -1 27 -9 41
-9 67 0 44 16 67 15 86 -2 14 -13 22 -12 61 5 42 19 47 19 78 5 43 -21 61 -20
123 5 44 17 57 18 81 8 22 -9 35 -8 68 5 45 18 100 21 100 6 0 -17 51 -11 81
11 23 16 37 19 72 14 34 -5 51 -2 78 14 22 13 51 21 81 21 42 0 48 -3 54 -25z
m-1134 -398 l6 -238 -37 -36 c-67 -66 -59 -65 -228 -30 -83 18 -154 35 -157
38 -3 3 15 23 41 44 39 32 97 93 178 188 27 31 117 179 146 240 25 50 35 63
40 50 3 -10 9 -125 11 -256z m932 215 c2 -4 -11 -21 -31 -36 -75 -60 -161
-124 -220 -164 -60 -41 -225 -161 -250 -182 -6 -5 -31 -20 -54 -32 -34 -18
-66 -22 -183 -28 -77 -4 -144 -5 -148 -3 -18 9 0 365 19 384 7 7 21 5 46 -7
33 -16 39 -16 84 -1 40 13 57 14 86 5 31 -10 44 -9 73 5 26 13 49 15 88 11 40
-5 62 -2 86 10 39 19 53 20 95 5 26 -10 39 -8 77 8 42 19 47 19 71 5 24 -15
29 -15 74 5 52 23 79 27 87 15z m1376 -206 c-6 -31 -8 -65 -5 -76 4 -13 -4
-44 -23 -83 l-29 -62 -71 -18 c-45 -12 -91 -32 -127 -58 -32 -22 -58 -39 -59
-37 -5 8 -28 131 -37 192 -6 51 -6 73 3 84 34 40 330 143 351 122 5 -4 4 -33
-3 -64z m-950 -138 c7 -40 26 -138 42 -218 16 -80 33 -170 38 -200 5 -30 15
-95 24 -145 23 -138 39 -361 27 -382 -11 -22 -87 -47 -191 -63 -41 -6 -115
-20 -165 -30 -120 -26 -218 -38 -410 -53 -276 -20 -379 -12 -608 47 -85 22
-92 26 -98 52 -9 41 0 303 13 406 10 74 15 87 32 92 11 3 31 -1 43 -9 12 -8
33 -15 46 -15 14 0 40 -6 58 -14 30 -12 39 -12 74 1 23 9 68 14 106 13 58 -1
68 2 92 26 30 30 35 75 15 130 -9 26 -9 35 3 47 9 8 125 59 260 113 134 53
260 107 279 118 19 12 69 37 110 56 41 19 98 49 125 67 28 18 55 32 61 32 6 1
17 -32 24 -71z m1010 32 c50 -15 217 -37 338 -46 l104 -7 -6 -76 c-27 -357
-29 -458 -12 -440 6 6 31 367 36 513 0 14 403 -1 500 -18 47 -8 115 -16 153
-17 57 -2 67 -4 63 -18 -3 -9 -8 -36 -12 -61 -3 -25 -18 -79 -31 -120 -20 -59
-24 -88 -20 -139 3 -41 -2 -96 -14 -155 -24 -117 -24 -163 1 -204 19 -31 19
-36 6 -80 -19 -59 -44 -128 -61 -167 -54 -127 -57 -318 -5 -429 32 -66 155
-166 206 -166 l35 0 -6 -77 c-4 -43 -15 -163 -26 -268 -23 -224 -34 -366 -54
-685 -20 -323 -19 -437 5 -530 21 -82 24 -156 13 -400 -5 -133 -8 -150 -20
-134 -49 68 -174 214 -262 308 -57 61 -131 145 -163 186 -33 41 -65 82 -71 90
-7 8 -39 56 -71 105 -33 50 -79 114 -103 143 -24 30 -43 60 -43 67 0 7 -8 19
-17 26 -27 23 -81 150 -93 220 -34 203 -29 894 10 1203 23 189 26 496 3 496
-18 0 -27 -102 -13 -146 14 -42 9 -154 -16 -351 -8 -65 -19 -179 -24 -253 -6
-74 -14 -193 -19 -265 -15 -194 2 -618 27 -715 11 -41 26 -88 33 -105 16 -36
105 -184 124 -205 18 -21 45 -88 45 -114 0 -11 7 -39 15 -61 8 -22 14 -70 15
-106 0 -36 9 -115 19 -175 11 -60 27 -161 35 -224 9 -63 25 -167 36 -230 10
-63 24 -153 30 -200 13 -94 29 -213 60 -425 26 -185 26 -188 -7 -202 -71 -31
-272 -89 -373 -107 -107 -19 -142 -19 -260 0 -187 31 -247 55 -296 120 -25 32
-26 37 -15 79 28 112 25 324 -13 760 -15 180 -31 555 -23 555 2 0 26 -51 52
-112 26 -62 52 -117 56 -123 21 -22 6 29 -35 122 -105 241 -120 350 -157 1153
-6 124 -14 288 -17 365 -5 108 1 665 11 900 1 30 -6 148 -19 321 -4 50 -4 103
0 117 3 14 32 61 64 104 32 43 80 107 106 143 43 58 113 190 130 248 4 12 8
22 9 22 1 0 18 -5 37 -10z m-3500 -84 c5 -28 16 -39 51 -49 14 -5 35 -64 26
-73 -6 -7 -152 37 -163 49 -40 41 -7 111 50 105 25 -2 32 -8 36 -32z m605
-101 c211 -44 387 -82 412 -90 8 -3 9 -14 3 -37 -4 -18 -11 -46 -14 -61 -4
-15 -11 -25 -16 -22 -18 11 -334 77 -405 85 -38 5 -83 15 -100 24 -16 9 -35
16 -42 16 -7 0 -35 5 -63 11 -38 8 -49 14 -41 22 6 6 11 27 11 47 0 38 6 50
24 50 6 0 110 -20 231 -45z m2752 22 c-5 -12 -96 -143 -136 -192 -21 -28 -41
-26 -41 3 -1 9 -7 34 -15 56 -17 47 -14 54 35 89 60 42 168 73 157 44z m-3202
-89 c40 -3 40 -3 37 -41 -4 -43 11 -67 42 -67 11 0 59 14 106 30 75 26 130 31
130 11 0 -3 -20 -19 -44 -34 -57 -36 -162 -47 -217 -25 -40 17 -134 122 -124
138 4 7 11 8 19 1 6 -5 29 -11 51 -13z m484 -100 l51 -11 -6 -81 c-3 -45 -12
-175 -20 -291 -13 -185 -23 -329 -64 -850 -6 -71 -24 -305 -40 -520 -37 -485
-36 -478 -64 -471 -11 2 -38 8 -59 12 -21 3 -41 12 -43 19 -3 7 2 99 11 206
17 211 72 925 105 1354 11 149 25 315 30 370 5 55 12 139 16 188 7 96 4 94 83
75z m4341 -10 c33 -15 198 -40 268 -40 l33 0 -4 -101 -4 -102 -118 2 c-114 2
-199 19 -234 47 -10 8 -12 28 -7 91 8 89 15 128 25 122 3 -1 22 -10 41 -19z
m-4185 -27 c22 -5 73 -17 114 -25 61 -13 79 -21 100 -47 19 -22 39 -33 66 -38
l40 -6 -1 -115 c0 -63 -4 -188 -9 -278 -7 -149 -7 -164 10 -182 10 -11 26 -20
37 -20 10 0 18 -5 18 -10 0 -6 -18 -100 -40 -209 -22 -109 -48 -254 -59 -322
-25 -159 -36 -420 -21 -519 13 -95 68 -309 119 -470 44 -137 75 -253 85 -315
12 -68 16 -74 51 -81 28 -5 35 -12 50 -52 10 -26 37 -84 61 -128 38 -71 42
-83 29 -94 -19 -16 -19 -67 0 -100 8 -14 14 -44 15 -67 0 -36 -4 -45 -27 -60
-37 -24 -42 -27 -84 -63 -35 -29 -41 -30 -131 -30 l-95 0 -33 53 c-18 28 -47
75 -65 102 -60 93 -102 160 -140 225 -54 90 -145 178 -228 218 l-68 34 5 41
c3 23 11 108 17 188 12 157 7 189 -31 189 -26 0 -26 12 4 391 14 167 34 439
46 604 11 165 25 354 30 420 9 107 60 770 60 782 0 2 8 2 18 -1 9 -3 35 -9 57
-15z m5818 -16 c-3 -19 -17 -83 -32 -142 l-26 -108 -45 -7 c-25 -3 -109 -7
-188 -7 -143 -1 -232 12 -232 33 -1 6 -7 47 -15 91 -19 102 -19 131 0 139 8 3
51 1 95 -4 89 -10 260 2 350 24 93 23 100 22 93 -19z m2782 16 c71 -12 114
-33 156 -75 13 -13 45 -36 70 -52 57 -36 147 -146 153 -188 3 -17 12 -75 22
-129 9 -54 13 -113 10 -130 -4 -18 -11 -69 -16 -114 -5 -45 -15 -92 -24 -105
-8 -13 -24 -57 -35 -98 -31 -111 -81 -198 -81 -141 0 29 -17 35 -30 11 -8 -14
-17 -19 -30 -15 -10 3 -21 1 -25 -5 -10 -17 -25 -1 -25 28 0 15 -11 63 -25
107 -14 44 -25 95 -25 114 0 26 -9 43 -40 73 -36 36 -43 40 -77 34 -109 -17
-121 -18 -127 -7 -9 14 -46 14 -46 0 0 -7 16 -26 35 -44 32 -31 33 -34 16 -49
-22 -20 -97 -21 -144 -1 -20 8 -48 32 -64 52 -15 21 -47 59 -70 85 -24 26 -46
61 -50 78 -8 43 -17 45 -47 9 -29 -34 -31 -57 -12 -111 l13 -36 -42 -7 c-31
-4 -60 0 -105 16 -51 18 -64 19 -71 8 -6 -11 -11 -11 -21 -1 -18 18 -38 14
-38 -8 0 -11 -4 -20 -10 -20 -5 0 -15 9 -22 20 -7 11 -18 20 -25 20 -7 0 -20
11 -29 25 -21 33 -14 137 11 165 10 11 19 36 20 57 3 59 14 85 51 123 19 19
49 52 66 73 17 21 61 54 97 73 36 19 95 53 131 75 98 61 167 91 224 98 77 9
203 6 281 -8z m-4565 -150 c82 -31 86 -37 80 -126 -4 -62 -2 -78 10 -85 29
-17 2 -20 -40 -5 -72 25 -171 37 -220 26 -25 -5 -45 -9 -47 -8 -5 6 27 189 37
208 11 20 18 21 70 16 32 -4 82 -15 110 -26z m2132 -203 c19 -7 49 -25 66 -40
l31 -26 -22 -111 c-13 -61 -26 -114 -30 -117 -4 -4 -37 7 -74 24 -112 52 -179
64 -283 55 -49 -5 -90 -6 -90 -3 0 3 5 21 10 40 5 19 17 69 27 110 l19 75 74
6 c99 9 228 2 272 -13z m-2105 -30 c40 -15 51 -56 35 -132 -6 -28 -16 -89 -22
-136 -7 -46 -13 -87 -15 -91 -2 -3 -9 -48 -15 -100 -13 -109 -27 -169 -40
-169 -19 0 -39 32 -44 73 -3 23 -8 81 -11 129 -8 139 -23 155 -49 51 -9 -38
-16 -82 -16 -99 0 -44 44 -156 85 -217 37 -55 42 -76 23 -95 -8 -8 -26 2 -73
43 -55 49 -65 63 -83 122 -11 38 -26 94 -33 126 -11 50 -14 56 -27 44 -12 -13
-11 -22 7 -73 11 -33 27 -84 35 -114 13 -45 28 -68 82 -122 62 -63 65 -68 40
-68 -14 0 -26 5 -26 10 0 6 -5 10 -11 10 -10 0 -49 29 -106 82 -13 11 -28 39
-34 61 -5 23 -15 57 -21 75 -5 19 -10 66 -10 106 1 80 16 130 102 336 29 69
56 136 61 149 9 23 13 23 72 18 34 -4 77 -12 94 -19z m408 -39 c94 -16 222
-41 285 -55 156 -35 354 -42 550 -20 177 19 441 39 447 32 2 -2 -5 -34 -16
-71 -12 -37 -21 -78 -21 -92 0 -24 -26 -83 -40 -93 -12 -8 -66 -150 -84 -221
-10 -35 -21 -109 -26 -164 -5 -58 -18 -123 -31 -155 -11 -30 -23 -64 -26 -75
-5 -23 21 -51 52 -57 16 -3 21 -14 27 -61 9 -69 22 -95 51 -102 24 -6 110 25
121 44 4 6 15 11 24 11 10 0 35 9 56 21 21 11 39 19 40 17 1 -2 8 -32 14 -68
7 -36 19 -96 27 -135 57 -270 79 -401 94 -555 7 -70 23 -135 60 -245 31 -92
51 -168 51 -196 0 -34 7 -55 29 -85 19 -25 36 -68 47 -115 16 -71 22 -87 63
-154 10 -16 24 -48 31 -70 17 -54 69 -150 109 -205 19 -25 54 -88 78 -140 24
-52 49 -104 56 -115 6 -11 30 -60 54 -108 24 -48 74 -138 111 -200 123 -204
125 -212 65 -205 -22 3 -50 -1 -65 -9 -35 -17 -37 -60 -7 -128 11 -25 19 -48
17 -49 -1 -2 -32 -18 -68 -36 -129 -64 -282 -212 -360 -347 l-52 -93 -45 0
c-24 0 -53 4 -63 10 -23 12 -123 214 -145 293 -26 90 -184 458 -205 477 -3 3
-12 25 -19 50 -7 25 -31 86 -53 135 -22 50 -52 131 -67 180 -25 81 -116 276
-236 505 -45 86 -130 294 -184 450 -16 47 -47 139 -70 205 -62 180 -118 392
-165 625 -14 69 -35 163 -46 210 -11 47 -30 135 -41 195 -11 61 -31 148 -44
195 -13 47 -29 115 -35 153 -7 37 -16 67 -21 67 -17 0 -6 -71 41 -250 28 -105
38 -202 29 -279 -9 -79 -22 -233 -39 -461 -23 -313 -41 -471 -82 -721 -12 -76
-8 -132 22 -274 18 -86 22 -147 26 -445 3 -219 11 -385 20 -455 8 -60 21 -159
29 -220 8 -60 20 -134 26 -164 6 -30 12 -93 13 -140 l1 -85 -50 -17 c-237 -79
-331 -97 -540 -106 -104 -4 -153 -1 -245 15 -130 23 -157 41 -146 97 3 16 12
66 21 110 11 57 17 174 21 400 3 176 9 478 13 670 3 193 3 377 -1 410 -4 33
-15 108 -24 168 -17 110 -13 240 16 597 5 63 14 174 20 245 6 72 15 168 21
215 5 47 14 135 19 195 36 423 72 670 145 1011 l16 72 67 -5 c37 -3 144 -18
237 -34z m1528 -174 c20 -3 37 -7 37 -8 1 -1 3 -117 7 -259 3 -163 2 -274 -5
-305 -6 -26 -16 -77 -23 -113 -14 -77 -31 -113 -61 -134 -31 -22 -40 -10 -23
31 16 38 21 143 6 143 -5 0 -12 -23 -15 -52 -9 -66 -39 -131 -72 -157 -48 -38
-53 -28 -29 57 32 112 37 144 23 140 -7 -3 -16 -22 -21 -44 -4 -21 -13 -55
-19 -74 -13 -43 -70 -139 -82 -140 -10 0 -3 122 13 209 12 67 5 119 -9 71 -5
-14 -8 -42 -9 -63 -1 -56 -16 -77 -54 -77 -26 -1 -29 -2 -15 -11 10 -5 24 -9
31 -7 7 2 14 -1 16 -7 6 -23 -11 -114 -25 -126 -43 -36 -65 71 -67 337 -2 198
-1 200 52 344 11 30 38 91 60 135 23 44 41 86 41 92 0 27 131 36 243 18z
m2134 -34 c13 -26 33 -53 45 -60 13 -7 35 -30 50 -51 33 -48 93 -80 162 -87
40 -4 55 -2 65 11 7 9 20 16 28 16 8 0 21 17 30 38 17 42 29 52 60 52 101 1
130 -132 59 -269 -13 -24 -27 -34 -61 -43 -56 -15 -58 -28 -4 -28 34 0 47 6
74 34 17 18 36 49 42 67 l10 34 17 -40 c9 -22 16 -56 14 -75 -3 -34 -2 -35 35
-36 38 0 53 -14 92 -91 4 -6 -10 -33 -29 -61 -107 -148 -376 -266 -376 -165 0
15 15 42 36 65 19 22 33 42 31 45 -3 2 -29 -14 -58 -37 -61 -48 -176 -106
-232 -116 -53 -9 -94 10 -107 52 -7 20 -22 39 -38 46 -37 18 -39 44 -7 74 20
18 25 28 17 36 -8 8 -15 8 -26 -1 -23 -20 -80 -10 -84 14 -8 56 -13 64 -39 67
-40 5 -50 29 -34 80 8 24 14 66 15 93 0 42 -6 60 -42 116 -23 36 -45 81 -48
99 -7 31 -6 33 20 28 14 -3 29 -2 31 3 3 4 29 0 58 -10 40 -14 71 -17 125 -13
40 2 72 7 72 10 0 3 -7 13 -16 23 -25 28 -44 91 -33 111 14 27 22 22 46 -31z
m-6375 -108 c2 -43 3 -258 2 -478 -1 -305 -5 -425 -17 -505 -30 -200 -30 -206
-11 -239 14 -24 15 -37 8 -73 -7 -30 -6 -52 2 -73 7 -17 17 -62 23 -100 17
-122 50 -291 77 -397 14 -57 31 -123 37 -147 10 -40 9 -45 -12 -62 -27 -22
-61 -25 -61 -6 0 22 -69 157 -80 157 -5 0 -10 -10 -10 -22 -2 -77 -18 -220
-26 -228 -21 -21 -232 -38 -302 -24 -28 6 -32 11 -43 63 -6 31 -19 92 -30 136
-79 344 -80 348 -141 680 -5 28 -13 73 -19 100 -9 48 -18 125 -39 346 -6 58
-15 195 -20 305 -17 332 -21 361 -39 349 -6 -3 -8 -27 -5 -53 5 -35 0 -61 -16
-102 -13 -30 -42 -109 -65 -175 -73 -205 -116 -318 -136 -364 -15 -33 -17 -46
-8 -57 6 -7 10 -30 9 -51 -6 -110 -2 -151 19 -193 46 -92 144 -436 131 -458
-14 -27 -206 -162 -258 -182 -59 -22 -117 -25 -172 -9 -36 11 -37 13 -65 108
-31 110 -117 392 -141 464 -56 174 -59 190 -57 425 1 219 6 273 44 444 10 48
19 98 19 111 0 30 64 289 77 309 7 12 26 11 123 -9 89 -18 151 -23 275 -24
165 -1 209 2 380 26 55 8 159 22 231 30 72 8 162 24 200 34 115 32 112 33 116
-56z m7173 -433 c12 -13 15 -27 11 -44 -6 -25 -74 -115 -125 -167 -70 -70
-184 -138 -269 -159 -23 -6 -40 -15 -37 -20 6 -9 88 10 124 30 22 11 23 11 16
-6 -17 -41 -17 -125 0 -193 17 -71 14 -144 -7 -157 -5 -3 -22 5 -36 19 -39 36
-207 144 -248 159 -29 10 -34 16 -29 33 4 11 11 39 16 61 6 23 21 52 34 64 21
20 28 22 50 12 30 -14 69 -16 61 -3 -3 4 -18 11 -34 14 -33 7 -57 45 -47 77 5
15 12 19 23 15 116 -47 276 44 436 249 33 42 37 43 61 16z m-7865 -280 c2
-239 14 -336 91 -725 16 -82 35 -190 44 -240 8 -49 21 -113 29 -141 24 -84 86
-367 86 -392 0 -12 -9 -55 -20 -94 -11 -40 -20 -96 -20 -125 0 -57 -5 -61 -70
-55 -31 4 -38 10 -63 61 -15 31 -34 68 -43 83 -16 30 -37 117 -53 223 -8 56
-15 74 -35 90 -23 18 -29 37 -48 154 l-22 134 30 21 c77 56 77 56 59 106 -9
25 -32 95 -52 155 -19 61 -44 135 -54 165 -11 30 -31 86 -45 124 -22 59 -23
73 -13 98 7 18 9 51 5 93 -5 51 -2 75 13 117 23 60 144 373 156 403 12 27 23
-92 25 -255z m7967 188 c98 -92 113 -109 144 -170 12 -24 29 -54 39 -68 30
-43 100 -285 129 -445 24 -131 41 -370 41 -565 0 -113 5 -234 10 -270 12 -84
2 -97 -58 -76 -93 33 -336 45 -510 25 -95 -11 -102 -10 -222 20 -152 37 -228
66 -252 93 -24 28 -35 75 -43 183 -3 50 -13 124 -20 165 -20 101 -34 247 -28
293 8 59 39 51 92 -23 47 -68 100 -130 206 -240 176 -185 289 -245 394 -209
36 13 104 107 123 171 6 21 19 38 29 41 10 3 24 18 30 34 23 59 48 224 59 387
12 172 9 236 -15 294 -16 37 -42 45 -30 10 35 -113 36 -121 26 -293 -7 -113
-18 -206 -35 -278 -24 -107 -36 -139 -36 -101 -1 34 -37 101 -82 149 -41 45
-183 125 -221 125 -9 0 -22 6 -29 13 -7 7 -34 28 -60 45 -27 18 -48 36 -48 40
0 7 36 144 46 175 3 9 1 17 -5 17 -6 0 -11 -7 -11 -15 0 -8 -4 -15 -9 -15 -12
0 -31 80 -31 132 0 54 18 88 67 130 96 83 168 158 206 216 23 34 43 62 44 62
2 0 28 -24 60 -52z m-4088 -533 c12 -66 32 -165 45 -220 47 -192 94 -370 109
-410 9 -22 32 -83 51 -135 38 -98 43 -114 121 -315 45 -116 78 -184 130 -273
14 -23 25 -44 25 -45 0 -1 -58 -3 -129 -5 -122 -2 -130 -1 -136 18 -3 11 -23
32 -43 48 -20 15 -52 45 -72 67 -19 22 -86 92 -148 155 l-114 115 6 55 c11 96
36 351 46 470 5 63 16 180 25 260 8 80 20 200 27 267 11 111 13 120 24 95 7
-15 22 -81 33 -147z m1969 94 c29 -14 59 -42 86 -77 86 -117 139 -155 286
-207 105 -38 174 -66 183 -74 5 -5 -21 -48 -57 -95 -36 -48 -66 -92 -66 -97 0
-19 -34 -7 -101 36 -38 24 -88 54 -111 66 -24 12 -50 28 -59 35 -9 8 -47 17
-84 21 l-67 6 6 71 c5 68 4 72 -22 102 -66 72 -101 80 -153 35 -28 -25 -34
-37 -35 -78 -1 -26 -3 -50 -3 -52 -1 -2 -10 8 -22 23 -18 22 -20 35 -14 74 9
62 84 142 134 142 21 0 31 5 31 15 0 23 -53 18 -86 -7 -47 -37 -84 -81 -90
-108 -12 -54 -13 -55 -30 -38 -26 26 -8 75 47 130 32 32 57 48 73 48 29 0 44
18 22 26 -9 3 -32 -4 -52 -15 -49 -29 -53 -21 -7 12 49 35 126 37 191 6z
m1370 -15 c42 -14 84 -31 92 -38 8 -7 38 -25 65 -41 93 -53 185 -116 198 -135
6 -11 15 -20 19 -20 12 0 120 -85 157 -124 39 -40 61 -48 37 -14 -23 32 -20
38 12 29 75 -22 168 -97 200 -162 18 -37 19 -44 6 -74 -8 -19 -14 -44 -14 -56
0 -36 -61 -138 -95 -159 -58 -36 -138 -19 -230 48 -61 44 -269 260 -331 341
-55 73 -64 96 -42 103 8 3 13 30 14 75 2 69 1 72 -24 78 -22 5 -33 -1 -70 -39
-37 -39 -47 -44 -63 -36 -27 15 -24 27 16 67 38 38 40 52 6 34 -39 -21 -91
-101 -91 -141 0 -20 -6 -44 -13 -54 -12 -16 -14 -16 -26 -2 -36 43 -20 141 30
189 20 18 25 37 11 37 -11 0 -54 -47 -77 -83 -14 -23 -17 -41 -12 -97 6 -68 5
-70 -17 -70 -32 0 -51 48 -51 128 0 61 2 65 38 98 20 19 37 36 37 39 0 14 -30
2 -52 -22 -52 -56 -63 -108 -39 -179 30 -91 6 -103 -34 -16 -22 47 -26 68 -23
117 5 58 5 60 68 117 102 92 168 106 298 62z m-1404 -275 c22 -26 26 -40 26
-92 0 -60 31 -316 49 -406 17 -82 67 -118 167 -120 47 -1 41 -9 158 189 31 52
62 104 68 115 62 103 127 192 174 234 68 62 101 81 175 96 l55 12 10 -44 c12
-49 10 -53 -23 -53 -33 0 -139 -55 -158 -82 -18 -26 -175 -289 -175 -294 0 -2
-27 -48 -60 -103 -92 -152 -118 -167 -274 -159 -114 6 -146 26 -180 116 -25
65 -47 204 -62 382 -4 58 -14 102 -31 137 -19 40 -22 57 -14 72 22 40 61 40
95 0z m1357 -106 c1 -27 4 -94 8 -151 3 -56 4 -102 1 -102 -3 0 -29 14 -58 31
-94 54 -217 196 -197 228 3 6 21 7 40 4 21 -3 41 -1 50 7 8 7 21 10 29 7 8 -3
22 1 33 8 10 8 35 15 56 15 l37 0 1 -47z m-263 -23 c16 -43 69 -110 136 -169
33 -28 62 -51 65 -51 3 0 12 -4 20 -9 17 -11 11 -18 -69 -79 -117 -87 -234
-114 -341 -77 -58 20 -299 138 -299 147 0 3 28 51 62 107 41 65 73 106 93 116
29 16 33 15 88 -9 55 -25 127 -35 127 -18 0 11 81 72 96 72 7 0 17 -13 22 -30z
m-911 -22 c15 -7 78 -45 140 -85 89 -58 111 -77 106 -91 -14 -40 -136 -233
-156 -247 -25 -17 -86 -20 -119 -4 -13 5 -29 23 -36 37 -11 26 -41 210 -57
345 l-6 57 50 0 c27 0 63 -5 78 -12z m-7493 -75 c-2 -21 -13 -132 -24 -248
-26 -275 -47 -487 -65 -660 -8 -77 -19 -192 -25 -255 -26 -281 -38 -340 -75
-354 -30 -11 -35 -6 -35 33 0 30 6 42 24 54 33 22 39 54 15 78 -24 24 -25 74
-1 88 11 7 13 10 3 11 -10 0 -12 11 -7 49 3 27 16 134 27 237 84 784 109 988
122 996 7 4 19 8 29 8 13 0 15 -8 12 -37z m105 15 l51 -11 0 -46 c0 -25 -5
-86 -10 -136 -5 -49 -14 -142 -20 -205 -17 -190 -13 -180 -74 -180 -91 0 -89
-14 -55 295 16 149 29 276 29 283 0 15 15 15 79 0z m115 -46 c8 -26 -36 -601
-52 -680 l-7 -32 -28 25 c-15 15 -25 30 -22 34 2 5 12 80 20 167 41 431 47
490 50 501 5 17 33 6 39 -15z m8475 -178 c8 -16 16 -63 17 -104 1 -41 4 -82 7
-90 45 -150 50 -141 -88 -160 -143 -20 -353 -60 -525 -101 l-124 -29 -71 73
c-38 40 -94 90 -122 112 -29 21 -53 44 -53 50 0 6 14 32 30 58 17 26 30 51 30
56 0 4 9 16 19 25 10 9 32 44 47 77 16 32 31 58 34 56 35 -21 201 -95 262
-117 97 -35 168 -45 232 -30 55 12 162 71 226 125 24 20 48 34 54 32 6 -2 17
-17 25 -33z m-7336 -191 c41 -154 43 -174 15 -200 -50 -46 -197 -101 -238 -88
-17 5 -120 218 -120 249 0 9 18 16 56 21 79 10 126 28 191 75 31 22 59 40 63
40 4 0 19 -44 33 -97z m1076 -157 c78 -139 120 -342 107 -523 -9 -129 -40
-272 -77 -351 -37 -81 -101 -183 -112 -179 -5 1 -18 24 -29 50 l-20 47 31 36
c54 61 79 128 111 304 14 71 11 218 -4 300 -18 89 -34 138 -72 211 -20 37 -27
65 -25 91 1 20 -2 45 -7 55 -5 10 -13 38 -16 63 l-7 45 46 -49 c25 -28 59 -73
74 -100z m-2138 103 c78 -39 140 -97 194 -179 86 -133 393 -617 411 -650 93
-165 98 -187 59 -219 -50 -39 -87 -20 -121 59 -22 53 -101 187 -183 308 -32
48 -78 123 -103 167 -51 89 -200 306 -247 361 -17 19 -45 40 -61 46 -25 8 -30
15 -30 43 0 36 10 95 17 95 2 0 31 -14 64 -31z m7470 -66 c75 -62 149 -137
149 -150 0 -7 3 -13 8 -13 11 0 50 -88 62 -140 5 -25 10 -67 10 -94 0 -45 -4
-52 -44 -90 l-44 -41 -5 100 c-12 200 -70 305 -219 395 -62 37 -71 50 -35 50
12 0 29 5 37 10 24 15 34 12 81 -27z m-5567 -55 c27 -75 40 -302 37 -629 l-1
-75 -37 -16 c-21 -9 -56 -21 -78 -27 -45 -12 -155 -14 -170 -3 -13 9 -56 217
-61 290 -1 28 -6 57 -10 63 -10 16 -34 148 -34 185 l0 32 83 6 c95 6 172 15
205 22 21 4 22 9 22 88 0 129 14 149 44 64z m-1951 -16 c23 -25 56 -102 88
-207 35 -111 79 -241 125 -364 19 -51 34 -94 32 -96 -2 -1 -23 -5 -48 -8 l-46
-6 -36 107 c-19 59 -65 193 -102 299 -64 186 -66 194 -55 242 12 56 18 60 42
33z m1191 -14 c3 -13 7 -53 9 -90 3 -36 15 -96 28 -132 l24 -65 -21 -28 c-19
-26 -153 -102 -181 -103 -7 0 -30 17 -53 38 -22 22 -58 44 -80 51 -39 12 -40
13 -34 45 5 29 -8 124 -23 163 -4 9 6 13 34 13 72 0 212 59 257 109 24 27 34
27 40 -1z m7537 -4 c75 -45 266 -104 334 -104 22 0 41 -8 53 -21 29 -30 54
-119 53 -189 0 -61 18 -87 20 -27 2 65 -3 103 -22 159 -10 32 -19 60 -19 64 0
15 268 -34 332 -60 73 -31 93 -238 35 -374 -29 -69 -148 -162 -245 -192 -419
-128 -571 -161 -751 -163 -98 -1 -123 3 -162 20 -26 12 -49 27 -52 35 -2 7 -8
9 -13 5 -4 -4 4 -19 20 -33 15 -14 26 -27 24 -29 -2 -1 -13 -7 -25 -14 -19
-10 -24 -6 -48 34 -31 53 -97 125 -115 125 -6 0 13 -27 43 -60 64 -68 83 -127
75 -226 -4 -46 -10 -62 -31 -80 -24 -21 -27 -30 -27 -91 0 -42 -10 -107 -27
-168 -20 -76 -26 -122 -25 -192 0 -108 -8 -121 -100 -147 -74 -21 -143 -20
-251 4 -118 26 -161 48 -233 116 -71 69 -89 97 -76 122 21 38 52 205 62 323 5
68 14 183 20 256 14 180 47 327 93 421 20 41 80 102 101 102 5 0 17 6 25 14 9
8 131 53 272 100 329 109 509 143 624 116 22 -5 41 -7 43 -6 2 2 -14 14 -35
27 -30 19 -50 23 -98 22 -92 -3 -272 -45 -456 -107 -92 -31 -172 -56 -179 -56
-6 0 -26 -6 -43 -14 -58 -27 -109 -46 -121 -46 -11 0 -60 209 -51 218 3 3 272
60 483 102 216 43 433 49 493 14z m-6612 -112 c61 -121 81 -327 47 -490 -21
-100 -37 -140 -84 -211 -34 -51 -36 -52 -44 -30 -5 13 -9 87 -10 165 0 116 3
147 16 165 22 32 20 101 -3 141 -15 26 -21 63 -26 172 l-8 138 29 23 29 23 17
-29 c9 -15 26 -45 37 -67z m7306 82 c22 -3 57 -9 78 -15 l38 -10 -7 -52 c-4
-29 -8 -54 -10 -56 -1 -2 -22 4 -46 13 -61 22 -175 43 -303 56 -122 12 -294
45 -308 59 -6 6 6 8 29 5 22 -3 80 -1 129 4 86 9 316 7 400 -4z m-4210 -258
c73 -79 99 -114 97 -130 -2 -11 -21 -60 -43 -107 -21 -47 -39 -89 -39 -92 0
-13 -71 -118 -132 -193 l-63 -78 -12 219 c-18 345 -33 567 -39 600 -5 27 0 24
63 -41 37 -38 113 -119 168 -178z m-5077 146 c24 -37 70 -107 102 -157 32 -49
55 -93 52 -96 -4 -3 -30 -4 -59 -1 -36 3 -53 9 -56 20 -3 10 -23 69 -45 132
-66 195 -65 214 6 102z m-347 39 c54 -21 106 -68 134 -120 21 -41 60 -161 73
-226 47 -225 19 -582 -62 -798 -39 -104 -56 -130 -121 -187 -22 -19 -68 -62
-102 -96 -70 -69 -129 -94 -186 -77 -30 8 -32 11 -28 48 4 53 8 58 34 40 66
-46 161 17 227 151 16 33 30 66 30 73 0 6 9 29 19 49 60 117 108 437 96 637
-12 211 -38 308 -102 390 -25 31 -58 61 -74 67 -20 7 -29 17 -29 32 0 42 16
45 91 17z m1776 -74 c2 -12 9 -65 17 -117 8 -52 14 -119 14 -148 1 -29 4 -62
7 -73 6 -18 3 -19 -37 -13 -24 4 -49 11 -55 17 -27 21 -10 253 24 335 15 36
25 36 30 -1z m-1786 -44 c69 -73 99 -213 99 -458 0 -366 -141 -787 -275 -821
-26 -6 -75 11 -75 27 0 6 10 29 22 50 17 30 28 39 48 39 59 0 93 61 150 268
47 176 53 219 54 407 1 255 -20 368 -79 425 -27 27 -35 42 -35 70 0 20 3 39 6
43 10 9 55 -17 85 -50z m7826 17 c7 -19 12 -86 12 -147 1 -95 -1 -113 -14
-113 -22 0 -75 -41 -75 -57 0 -26 -30 -26 -51 1 -11 14 -28 26 -37 26 -15 -1
-16 -2 -1 -13 9 -7 21 -22 28 -35 11 -20 10 -27 -4 -42 -12 -13 -15 -27 -11
-45 7 -26 -2 -65 -80 -383 -20 -79 -33 -150 -29 -159 3 -9 0 -39 -7 -65 l-12
-49 -43 7 c-93 14 -178 41 -174 55 11 43 12 297 1 444 -14 186 -7 269 30 368
44 118 145 183 360 233 79 18 93 15 107 -26z m-8021 -26 c-5 -42 -15 -67 -37
-95 -84 -106 -121 -232 -138 -466 -4 -57 -9 -104 -12 -106 -2 -2 -17 -7 -33
-11 l-29 -7 5 128 c6 131 31 259 67 338 10 22 24 57 31 78 14 43 45 101 75
138 18 23 64 59 74 59 2 0 1 -25 -3 -56z m147 -119 c39 -79 50 -178 44 -397
-6 -202 -18 -283 -63 -428 -27 -87 -47 -120 -71 -120 -11 0 -10 5 3 25 16 24
16 97 0 113 -4 3 -24 1 -46 -5 l-40 -10 -10 36 c-6 20 -14 70 -17 111 l-6 75
37 13 c22 8 42 25 51 42 8 16 21 97 30 192 8 89 20 199 25 243 5 44 10 98 11
120 5 72 13 70 52 -10z m7219 6 c17 -30 19 -31 88 -31 82 0 81 2 50 -105 -23
-79 -25 -135 -12 -380 10 -184 -2 -355 -25 -363 -7 -2 -13 0 -13 5 0 5 -16 36
-36 69 -56 91 -127 216 -150 265 -12 24 -43 89 -70 144 -26 55 -58 117 -71
138 -49 78 -111 207 -102 213 5 3 39 2 74 -1 64 -7 65 -7 75 20 5 14 10 38 10
53 l1 27 17 -27 c20 -33 32 -35 39 -8 7 26 18 25 38 -2 16 -23 16 -23 30 -4 8
11 15 27 15 35 1 14 2 14 13 -1 7 -9 20 -30 29 -47z m-5657 2 c27 -41 36 -93
23 -136 -9 -28 -24 -46 -64 -72 -49 -33 -189 -95 -214 -95 -14 0 -84 -36 -134
-69 -22 -14 -67 -34 -100 -43 -72 -20 -60 -30 -143 112 -76 131 -75 124 -20
117 26 -4 61 -13 77 -22 42 -22 60 -19 109 20 50 40 57 41 82 19 10 -9 38 -19
63 -21 38 -5 48 -2 70 20 15 15 26 38 26 52 0 16 7 28 18 31 51 17 127 62 145
87 26 34 40 34 62 0z m-371 -7 c42 -17 126 -101 126 -126 0 -16 -43 -40 -73
-40 -22 0 -43 14 -88 60 -32 33 -65 60 -73 60 -26 0 -28 20 -5 41 26 22 67 24
113 5z m-1378 -204 c-13 -100 -29 -189 -36 -197 -15 -19 -5 -261 15 -357 7
-35 11 -66 8 -70 -2 -5 -19 -8 -37 -8 -30 0 -35 4 -41 33 -14 65 -17 199 -4
229 9 23 10 31 0 37 -33 20 -6 274 41 396 24 63 70 143 75 130 1 -6 -8 -92
-21 -193z m821 54 l52 -81 -26 -27 c-27 -28 -98 -47 -114 -31 -13 13 -87 211
-81 218 3 2 30 4 61 3 l57 -1 51 -81z m481 51 l22 -23 -40 -30 c-22 -16 -40
-32 -40 -36 0 -13 -19 -9 -81 13 -66 24 -67 36 -10 74 49 34 119 35 149 2z
m4546 -93 c42 -25 76 -49 76 -53 0 -4 20 -28 45 -52 57 -56 62 -82 32 -150
-32 -72 -83 -137 -180 -228 -44 -42 -100 -103 -124 -135 -43 -58 -148 -176
-156 -176 -15 0 -45 185 -54 333 -5 81 -4 90 15 103 48 33 164 196 213 298 28
58 52 106 54 106 1 0 37 -21 79 -46z m-4036 4 c7 -38 -115 -111 -244 -146 -40
-11 -84 -28 -99 -38 -28 -19 -115 -36 -115 -23 0 15 110 71 177 90 85 24 158
60 214 104 46 36 62 39 67 13z m241 -17 c28 -5 36 -13 43 -36 12 -44 5 -52
-54 -60 -29 -4 -118 -18 -198 -32 -177 -30 -320 -52 -340 -52 -29 0 12 16 85
34 86 22 192 74 233 115 46 46 110 54 231 31z m5949 -119 c33 -7 35 -17 17
-107 -8 -44 -15 -111 -15 -149 0 -83 -18 -242 -30 -273 -8 -18 -18 -23 -46
-23 -34 0 -104 33 -104 48 0 18 31 164 48 227 11 39 29 115 42 170 30 134 27
128 48 120 9 -4 27 -10 40 -13z m-5892 -7 c4 -8 3 -26 0 -40 -5 -19 -17 -28
-59 -39 -28 -8 -72 -18 -97 -21 -25 -4 -153 -26 -285 -50 -275 -50 -426 -75
-455 -75 -17 0 -19 3 -10 19 5 11 7 33 4 49 -5 27 -3 31 22 36 36 7 395 66
609 100 88 14 171 27 185 29 55 9 81 7 86 -8z m345 -96 c6 -80 12 -109 36
-179 19 -58 7 -90 -46 -126 -40 -26 -42 -26 -123 -15 -46 6 -108 16 -138 22
l-55 11 -1 67 c0 36 -6 95 -13 131 -8 45 -9 73 -2 91 9 26 12 27 123 31 90 4
121 9 153 26 22 11 45 20 50 18 6 -1 13 -36 16 -77z m-1436 -80 c3 -9 17 -29
30 -43 13 -14 22 -26 20 -26 -13 0 -230 45 -330 69 -66 16 -138 32 -160 35
-75 13 -81 20 -69 82 4 21 9 20 254 -40 186 -45 251 -65 255 -77z m8879 91
c17 -44 19 -76 9 -159 -5 -45 -11 -56 -37 -73 -37 -23 -44 -23 -596 21 -357
28 -384 35 -179 46 158 8 525 105 700 185 67 30 84 27 103 -20z m-3824 -41 c0
-8 -18 -52 -40 -97 -38 -80 -94 -146 -178 -210 -17 -13 -49 -48 -69 -76 -65
-89 -214 -246 -234 -246 -5 0 -9 16 -9 36 0 31 9 47 60 100 32 35 77 90 99
121 22 32 83 98 136 148 104 96 160 170 190 249 l19 50 13 -30 c6 -16 12 -36
13 -45z m2848 -175 c24 -3 45 -11 48 -19 7 -17 -20 -110 -32 -110 -5 0 -46 9
-91 20 l-83 20 0 52 0 53 58 -5 c31 -3 76 -8 100 -11z m204 -20 c6 -4 -35
-151 -46 -161 -7 -7 -94 25 -101 37 -3 5 2 39 12 75 l17 66 56 -7 c30 -3 58
-8 62 -10z m-6591 -99 c11 -24 22 -74 26 -109 5 -57 3 -69 -20 -109 -14 -24
-43 -57 -64 -72 -21 -16 -79 -70 -130 -120 -120 -120 -155 -143 -234 -156 -76
-13 -218 -3 -271 18 -41 16 -66 61 -52 93 8 17 67 86 164 193 l35 38 100 -17
c150 -25 149 -25 204 37 47 52 49 53 68 37 21 -19 57 -15 86 10 23 20 22 69
-3 109 -18 30 -18 32 -1 38 10 3 28 17 41 30 13 14 25 25 27 25 2 0 13 -20 24
-45z m-302 -5 c52 -11 109 -20 126 -20 25 0 40 -9 64 -35 37 -42 38 -57 9 -85
-22 -20 -48 -27 -48 -12 0 4 -10 18 -23 33 -37 41 -88 59 -187 64 -49 2 -90 6
-91 7 -2 11 22 57 33 61 19 8 15 8 117 -13z m6720 -51 c135 -46 219 -90 384
-200 195 -131 253 -179 407 -336 103 -105 165 -179 214 -253 38 -58 78 -117
88 -132 10 -15 37 -62 59 -105 41 -78 46 -116 18 -149 -14 -17 -71 -28 -103
-20 -25 6 -65 62 -118 166 -60 115 -223 333 -329 439 -121 121 -264 227 -424
316 -27 15 -66 38 -85 51 -43 28 -167 77 -238 94 -28 6 -55 16 -58 21 -3 5
-18 9 -35 9 -27 0 -29 3 -29 37 0 24 10 51 27 76 25 36 28 38 67 32 23 -4 92
-24 155 -46z m-6665 -47 c16 -10 31 -22 33 -28 2 -6 -19 -34 -46 -63 -37 -39
-55 -51 -69 -47 -19 6 -180 36 -194 36 -33 0 56 115 95 123 40 9 151 -4 181
-21z m5634 -40 c30 -2 52 -9 52 -15 0 -19 -30 -138 -45 -185 -26 -74 -21 -92
41 -150 l56 -53 -7 -50 c-4 -27 -13 -71 -20 -97 -8 -26 -22 -76 -32 -112 -10
-36 -22 -70 -28 -75 -11 -11 -97 -36 -104 -30 -2 2 4 25 13 51 33 98 48 223
41 341 -7 119 -33 237 -59 278 -19 28 -20 53 -6 90 8 21 14 25 28 19 9 -4 41
-10 70 -12z m-268 -41 c124 -30 145 -44 171 -112 11 -32 18 -62 15 -67 -3 -6
-66 -11 -140 -11 l-134 -2 -27 53 c-15 28 -45 76 -66 104 -21 29 -39 56 -39
60 0 11 129 -3 220 -25z m-5084 -66 c-9 -49 -17 -61 -71 -105 -30 -25 -86 -79
-125 -121 -118 -130 -224 -175 -395 -167 -112 5 -178 30 -202 77 -15 32 -5 49
13 22 23 -33 80 -44 224 -45 131 -1 136 0 185 28 44 26 157 128 310 283 58 58
67 62 61 28z m4965 -116 l21 -41 144 7 c166 8 157 13 158 -89 l1 -61 -35 5
c-19 3 -89 5 -155 5 -156 0 -260 -31 -366 -110 -79 -57 -161 -170 -199 -271
-32 -88 -47 -229 -31 -311 43 -224 122 -352 290 -468 121 -83 197 -104 313
-85 155 25 312 132 396 270 l39 65 94 -4 c52 -2 96 -5 98 -6 6 -6 -47 -113
-80 -162 -61 -90 -129 -156 -249 -241 -85 -60 -310 -114 -440 -106 -78 5 -188
30 -232 53 -108 57 -154 91 -234 174 -119 124 -190 256 -220 412 -21 114 -3
316 40 442 51 150 93 229 165 306 105 112 290 233 381 250 68 12 79 9 101 -34z
m-4344 -36 c27 -18 45 -38 49 -55 8 -40 39 -54 71 -33 23 16 34 16 100 5 49
-9 114 -11 192 -7 l118 7 -24 -49 c-14 -28 -27 -76 -30 -110 -6 -67 -2 -64
-103 -81 -36 -6 -117 -24 -180 -40 -165 -41 -190 -43 -376 -31 -221 15 -291
27 -335 56 -40 26 -69 78 -69 124 0 28 6 34 60 61 32 16 96 41 142 55 46 13
103 31 127 40 62 23 80 17 125 -42 33 -42 47 -52 72 -52 37 -1 49 25 31 68
-13 32 -47 71 -61 71 -6 0 -18 5 -26 10 -12 7 -11 13 10 35 21 23 25 24 44 10
12 -8 40 -27 63 -42z m897 -56 c9 -26 16 -63 16 -81 0 -32 -5 -37 -77 -80 -95
-57 -153 -75 -262 -83 l-84 -6 5 61 c4 40 16 79 34 113 28 51 31 53 99 71 97
25 198 57 215 68 20 13 35 -4 54 -63z m3691 -119 c3 -7 -19 -94 -48 -193 -47
-158 -56 -180 -73 -177 -10 2 -20 5 -22 7 -2 2 63 232 104 363 2 6 10 12 19
12 9 0 18 -6 20 -12z m-2276 -146 c2 -173 -15 -185 -313 -206 -187 -14 -218
-19 -392 -65 -235 -63 -314 -75 -434 -68 -146 9 -240 53 -240 112 0 43 48 74
227 143 42 16 162 87 248 147 19 13 85 -40 105 -84 14 -30 18 -32 55 -28 22 2
66 20 99 40 46 28 76 38 145 47 203 27 282 42 381 75 l105 34 7 -22 c3 -12 6
-69 7 -125z m2359 115 c4 -37 -30 -140 -85 -255 -41 -86 -64 -114 -80 -98 -6
6 12 73 73 274 34 110 36 113 62 110 21 -2 28 -9 30 -31z m-358 -38 c0 -20 -6
-41 -12 -46 -18 -14 -201 -83 -220 -83 -8 0 -21 7 -28 15 -9 11 -7 19 13 37
49 46 118 91 174 113 65 27 73 23 73 -36z m-3410 17 c0 -32 -20 -64 -52 -84
-68 -42 -207 -80 -323 -87 -167 -10 -182 -12 -290 -35 -167 -36 -359 -50 -514
-39 -206 14 -281 46 -321 136 -27 61 -27 104 1 47 20 -42 68 -76 132 -95 17
-5 117 -16 220 -24 214 -15 299 -10 447 29 121 32 268 56 345 56 86 0 175 24
263 70 86 44 92 46 92 26z m3588 2 c18 -18 15 -34 -32 -178 -36 -112 -47 -134
-65 -137 -11 -1 -21 -2 -22 0 0 1 -8 55 -18 120 -19 129 -21 122 45 155 22 11
46 28 53 36 16 19 23 20 39 4z m489 -8 c27 -13 78 -23 171 -32 l132 -12 0 -46
c1 -25 7 -62 15 -83 13 -38 13 -39 -18 -58 -25 -15 -51 -19 -123 -19 -105 0
-155 14 -217 62 -23 18 -43 33 -45 34 -1 1 3 23 9 50 7 27 16 66 21 87 5 20
11 37 13 37 2 0 21 -9 42 -20z m1359 -21 l19 -21 -75 7 c-48 4 -70 3 -60 -3 8
-5 49 -13 90 -16 72 -7 76 -9 108 -47 l33 -39 -33 0 c-56 0 -322 32 -331 40
-5 4 11 21 35 38 24 17 50 37 57 46 10 12 31 16 76 16 50 0 65 -4 81 -21z
m714 -35 c96 -8 187 -14 201 -14 27 0 137 -82 214 -160 22 -22 55 -50 72 -63
30 -20 44 -47 25 -47 -13 0 -75 -60 -114 -110 -48 -62 -92 -138 -108 -184 -16
-51 5 -80 -209 284 -34 58 -72 113 -85 122 -13 10 -61 22 -112 28 -49 6 -102
13 -119 16 -19 2 -40 17 -58 40 -16 19 -27 37 -25 39 1 2 55 -3 118 -10 140
-17 170 -18 170 -5 0 6 -19 10 -42 10 -24 0 -96 7 -161 15 -92 11 -122 18
-133 32 -7 10 -14 22 -14 26 0 9 114 3 380 -19z m-992 -17 c-14 -13 -27 -28
-29 -33 -2 -5 -26 -24 -54 -43 -86 -57 -176 -188 -209 -300 -18 -62 -21 -182
-6 -262 15 -81 72 -189 132 -248 28 -28 55 -51 60 -51 4 0 8 -5 8 -11 0 -16
-44 -3 -90 26 -108 68 -180 224 -180 394 0 101 20 183 67 276 51 102 88 149
154 196 84 62 201 106 147 56z m-1733 -39 c9 -54 25 -172 25 -190 0 -10 -11
-19 -28 -23 -16 -3 -46 -24 -67 -45 -30 -31 -47 -40 -73 -40 -28 0 -185 48
-212 65 -8 5 21 130 33 141 3 3 24 10 46 15 40 9 41 9 133 -66 51 -41 96 -75
100 -75 21 0 1 22 -66 74 -94 72 -104 84 -80 92 39 13 144 66 149 75 13 20 34
7 40 -23z m1965 -44 c68 -8 125 -16 126 -17 11 -13 95 -271 92 -284 -2 -13
-21 -21 -73 -30 -39 -7 -123 -22 -188 -34 -64 -12 -120 -20 -123 -16 -17 17
-71 365 -60 392 6 17 -4 18 226 -11z m-252 -40 c3 -35 -2 -43 -46 -86 -56 -55
-104 -139 -122 -217 -15 -63 -8 -175 15 -241 35 -104 146 -202 244 -215 96
-13 222 49 276 136 23 35 27 37 62 32 21 -3 40 -7 42 -9 11 -10 -40 -94 -84
-139 -73 -72 -164 -110 -270 -110 -106 0 -164 23 -238 93 -209 201 -189 577
41 757 31 25 61 44 67 42 5 -2 11 -21 13 -43z m449 4 c46 -52 87 -125 100
-177 18 -80 18 -83 -19 -79 -33 3 -34 5 -79 133 -25 72 -44 133 -42 138 7 12
19 8 40 -15z m453 -34 c46 -4 72 -13 89 -28 38 -34 151 -217 151 -244 0 -5
-33 -3 -72 4 -40 7 -90 13 -110 13 -36 1 -37 2 -98 114 -34 61 -68 119 -76
128 -22 24 -17 32 19 26 17 -4 61 -9 97 -13z m-3294 -35 c-18 -42 -36 -170
-36 -250 0 -49 -3 -59 -17 -60 -10 0 -56 -4 -102 -8 -137 -13 -181 6 -181 78
1 50 23 73 115 121 84 44 134 76 150 97 13 17 78 64 82 59 2 -1 -3 -18 -11
-37z m1692 -36 c25 -164 27 -150 -18 -173 -22 -11 -68 -23 -102 -26 -68 -6
-81 -11 -73 -25 13 -20 95 -5 188 36 14 6 17 2 16 -21 -1 -50 -14 -66 -75 -91
-54 -22 -81 -25 -308 -34 -284 -11 -414 -3 -514 34 -90 33 -122 64 -122 118 0
74 50 105 82 50 9 -16 30 -37 47 -45 40 -21 121 -33 121 -17 0 6 -11 11 -24
11 -31 0 -107 33 -125 54 -7 8 -11 21 -8 28 5 14 96 43 105 34 2 -3 11 1 19 9
22 22 33 19 92 -25 63 -48 117 -54 151 -18 28 30 25 47 -12 85 -30 31 -31 34
-15 50 16 16 19 15 51 -16 23 -22 47 -34 74 -38 36 -5 45 -2 72 26 30 30 34
31 70 20 50 -15 240 3 272 25 12 9 23 16 24 16 1 0 7 -30 12 -67z m-1385 2
c-20 -64 -28 -298 -10 -326 9 -15 9 -23 -1 -39 -10 -16 -10 -20 1 -20 7 0 29
-32 48 -71 19 -40 42 -81 52 -92 9 -11 17 -28 17 -39 0 -10 4 -18 9 -18 6 0
44 -24 85 -54 110 -79 168 -98 296 -100 100 -1 108 1 173 33 38 18 71 39 74
47 3 8 10 14 17 14 6 0 23 20 38 43 75 115 102 146 115 135 21 -17 15 -45 -20
-101 -66 -103 -124 -148 -271 -212 -93 -40 -248 -32 -340 19 -21 11 -49 27
-61 33 -42 24 -151 139 -187 198 -91 150 -119 364 -67 518 17 50 39 90 46 83
1 -1 -5 -24 -14 -51z m-1657 -8 c-8 -33 -116 -57 -306 -67 -124 -7 -179 -15
-275 -40 -66 -18 -142 -36 -170 -40 -27 -5 -71 -13 -97 -19 -132 -30 -313 -30
-425 0 -41 11 -103 59 -103 79 0 5 21 -2 48 -15 68 -34 166 -48 291 -42 84 4
152 17 327 61 201 51 240 57 416 70 142 11 208 20 244 34 51 21 60 17 50 -21z
m5652 4 c8 -5 -18 -10 -66 -14 -70 -5 -91 -12 -158 -49 -101 -56 -173 -123
-228 -211 -68 -109 -84 -159 -91 -283 -8 -130 12 -222 72 -337 35 -66 119
-163 168 -195 11 -7 0 -3 -25 9 -104 50 -170 118 -228 234 -87 174 -84 374 9
555 75 145 169 236 298 287 48 19 69 22 145 17 49 -3 96 -9 104 -13z m-1884
-79 c14 -51 12 -59 -20 -101 -4 -4 -115 39 -127 49 -9 8 48 99 76 122 21 16
23 16 40 -1 10 -9 24 -40 31 -69z m-1600 39 c3 -4 -21 -16 -54 -26 -73 -22
-96 -46 -103 -108 -6 -64 19 -94 118 -138 41 -18 75 -36 75 -40 0 -4 -14 -12
-31 -18 -88 -31 -184 11 -230 101 -24 47 -24 84 0 134 24 49 49 72 98 90 43
15 119 18 127 5z m1534 -142 c31 -13 42 -24 42 -40 0 -17 -53 -94 -111 -163
-4 -4 -15 7 -24 25 -22 41 -24 148 -5 184 15 28 20 27 98 -6z m718 -55 c15
-32 39 -70 52 -85 21 -26 30 -29 85 -29 83 0 117 25 124 93 l6 47 46 -5 c25
-2 76 -7 113 -10 63 -6 68 -8 91 -43 80 -121 98 -182 53 -182 -13 0 -48 5 -77
10 -77 15 -822 131 -974 152 -44 6 -84 14 -88 18 -4 3 50 17 120 30 70 12 164
31 208 40 44 10 110 18 147 19 l67 1 27 -56z m-2493 -56 c9 -18 22 -41 29 -50
12 -17 4 -28 -135 -181 -32 -35 -35 -36 -50 -19 -22 24 -72 120 -80 152 -6 24
0 29 96 77 56 29 107 52 113 52 6 1 18 -14 27 -31z m1882 -26 c4 -12 -14 -202
-21 -210 -1 -2 -19 1 -38 8 -21 7 -52 31 -76 60 l-42 50 49 62 c26 35 52 66
58 70 11 8 62 -21 70 -40z m235 -7 c91 -14 194 -29 230 -35 36 -5 137 -21 225
-35 211 -33 486 -75 497 -75 9 0 11 -54 1 -89 -5 -22 -10 -23 -52 -17 -71 9
-153 22 -311 51 -80 14 -224 39 -320 55 -96 17 -197 34 -225 40 -27 5 -92 17
-143 26 -52 9 -95 22 -97 28 -2 6 -6 26 -9 44 -7 40 -13 40 204 7z m-1277 -41
c-42 -18 -46 -59 -8 -76 33 -15 75 12 75 47 0 14 -4 25 -10 25 -5 0 -10 5 -10
10 0 13 91 13 125 0 29 -11 46 -47 38 -79 -9 -34 -98 -56 -223 -55 -120 1
-170 18 -170 58 0 41 39 65 121 75 99 11 99 11 62 -5z m-330 -42 c58 -27 87
-47 87 -58 0 -22 -90 -144 -107 -144 -7 0 -18 10 -24 23 -7 12 -43 69 -81 126
l-69 104 53 -5 c34 -3 84 -19 141 -46z m-417 23 c16 -8 36 -15 44 -15 16 0 40
-51 40 -83 0 -29 -92 -227 -106 -227 -30 0 -194 114 -194 136 0 3 20 26 44 52
24 26 63 70 87 99 24 28 47 52 50 52 4 1 20 -6 35 -14z m297 -116 c99 -149 98
-143 5 -190 -59 -30 -88 -36 -88 -20 0 6 -23 58 -51 117 -48 103 -50 109 -38
148 10 36 42 66 80 75 3 0 45 -58 92 -130z m1431 -39 c26 -8 36 -17 36 -33 0
-19 1 -19 13 -5 7 11 32 18 67 20 30 3 63 8 73 12 12 6 17 4 17 -8 0 -9 5 -16
10 -16 6 0 10 6 8 14 -5 24 70 86 103 86 33 0 36 -11 13 -48 -39 -66 -133
-111 -231 -112 -96 0 -210 86 -238 180 -6 20 3 15 43 -26 27 -28 66 -57 86
-64z m-1614 21 c0 -5 20 -52 45 -104 25 -53 45 -99 45 -102 0 -7 -185 -7 -192
1 -3 3 2 22 11 42 10 20 31 67 47 104 26 60 44 84 44 59z"/>
<path d="M7309 12035 c-1 -8 -2 -20 -3 -27 -1 -6 8 -12 19 -14 11 -1 38 -9 60
-18 51 -19 89 -19 140 0 22 9 48 16 58 15 21 0 32 22 23 46 -6 14 -8 14 -22
-5 -18 -26 -31 -28 -56 -5 -21 19 -92 20 -147 2 -29 -10 -36 -9 -46 5 -15 20
-25 21 -26 1z"/>
<path d="M4580 10914 c0 -3 9 -17 19 -31 11 -13 31 -61 45 -106 42 -133 47
-149 78 -217 40 -89 64 -134 115 -213 53 -80 152 -187 173 -187 10 1 6 8 -11
23 -49 42 -145 162 -187 235 -58 102 -103 206 -145 342 -35 112 -59 160 -78
160 -5 0 -9 -3 -9 -6z"/>
<path d="M12240 12407 c-19 -6 -37 -14 -40 -17 -22 -29 -84 -38 -106 -15 -25
24 -121 20 -173 -8 -54 -29 -56 -41 -8 -45 23 -2 37 -8 37 -17 0 -7 12 -15 28
-17 19 -2 26 -8 24 -20 -2 -16 6 -18 65 -18 46 0 63 3 53 10 -8 5 -11 12 -8
16 12 11 142 22 160 13 9 -5 55 -9 102 -9 62 0 89 -4 100 -15 8 -8 17 -11 20
-6 13 21 -29 35 -109 37 -45 1 -88 5 -95 9 -36 22 -210 -6 -210 -34 0 -25 -41
-8 -86 35 -56 52 -51 64 29 64 36 0 47 -4 47 -16 0 -13 8 -15 53 -9 28 4 64
15 79 26 32 23 74 24 183 4 47 -8 83 -11 89 -5 9 9 5 11 -104 30 -36 7 -72 13
-80 15 -8 1 -31 -2 -50 -8z"/>
<path d="M12144 11029 c-22 -17 -57 -39 -80 -49 -32 -14 -42 -25 -52 -57 -7
-22 -12 -55 -12 -73 0 -32 0 -32 -47 -30 -75 4 -82 2 -89 -26 -4 -17 -11 -23
-21 -20 -8 3 -19 6 -23 6 -5 0 -26 18 -46 40 -29 31 -45 40 -70 40 -27 0 -35
6 -51 38 -13 26 -25 38 -44 40 -18 2 -28 11 -35 35 -6 21 -17 33 -34 37 -45
11 -74 -2 -126 -57 -28 -29 -58 -53 -67 -53 -25 0 -47 -29 -45 -60 1 -15 -4
-35 -11 -44 -19 -23 -64 -20 -79 4 -20 32 -102 21 -102 -15 0 -7 -14 -17 -32
-20 -17 -4 -39 -16 -47 -26 -22 -27 -109 -41 -266 -45 -133 -2 -276 -19 -308
-36 -12 -6 -23 -5 -32 2 -15 13 -55 5 -55 -11 0 -5 -10 -7 -22 -4 -33 8 -112
-19 -116 -39 -3 -15 1 -15 48 3 28 11 58 17 65 15 7 -3 23 0 35 6 12 7 45 13
73 15 29 2 104 10 167 18 63 8 120 11 125 7 9 -8 105 0 205 16 42 7 44 6 27
-10 -20 -21 -21 -33 -2 -66 21 -36 18 -47 -12 -53 -54 -11 -114 -97 -68 -97
22 0 18 -18 -10 -52 -14 -17 -25 -42 -25 -59 0 -24 -4 -29 -25 -29 -13 0 -36
-6 -51 -12 -22 -10 -28 -10 -32 0 -5 17 -35 15 -76 -5 -40 -20 -46 -33 -16
-33 11 0 20 4 20 10 0 16 49 23 65 10 11 -9 22 -9 49 0 43 14 191 29 217 23
12 -3 22 -17 26 -33 9 -48 41 -48 198 0 17 5 40 7 53 3 12 -3 43 2 68 12 37
14 51 15 71 6 22 -10 33 -8 74 14 54 28 69 31 69 14 0 -19 33 -38 65 -39 17 0
65 11 108 25 99 32 106 31 69 -3 -17 -16 -35 -47 -42 -71 -9 -35 -14 -41 -28
-35 -19 9 -117 13 -144 6 -10 -2 -18 -13 -18 -24 0 -12 -11 -23 -30 -29 -30
-11 -42 -43 -19 -51 22 -7 -1 -44 -46 -76 -25 -17 -45 -38 -45 -45 0 -8 -9
-22 -21 -33 -30 -27 -42 -53 -49 -104 -5 -45 -5 -45 -47 -48 -24 -2 -43 -8
-43 -13 0 -6 34 -9 88 -8 82 2 87 1 90 -19 4 -28 39 -29 93 -2 44 23 79 14 79
-20 0 -10 5 -20 12 -22 19 -7 121 17 158 36 34 18 34 18 48 -3 10 -14 25 -21
46 -21 34 1 121 22 132 32 3 4 27 4 53 1 26 -3 71 0 101 6 30 5 92 12 137 13
46 2 83 6 83 10 0 18 -78 18 -180 2 -88 -14 -116 -15 -131 -6 -27 17 -57 15
-93 -7 -17 -10 -52 -22 -78 -25 -43 -7 -46 -6 -41 14 5 17 1 20 -30 20 -20 0
-43 -7 -52 -17 -9 -9 -29 -17 -43 -19 -15 -1 -44 -6 -64 -10 -26 -4 -38 -3
-39 5 -1 6 -3 16 -4 21 -1 6 -3 15 -4 20 -2 17 -49 11 -91 -10 -48 -24 -78
-27 -60 -5 21 25 2 37 -51 30 l-49 -7 0 37 c0 41 18 81 50 110 12 11 26 29 30
41 5 11 25 29 45 38 41 20 57 50 44 84 -11 28 -3 46 17 38 9 -4 19 4 26 20 6
13 19 24 27 23 9 -1 29 1 44 6 18 5 37 3 53 -5 20 -11 27 -11 44 5 11 10 20
26 20 35 0 27 34 63 71 75 26 9 35 19 44 50 11 43 41 65 87 65 39 0 78 20 78
41 0 45 92 66 125 29 13 -15 31 -20 66 -20 39 0 49 -4 54 -20 3 -11 14 -21 23
-22 30 -2 67 3 75 11 11 11 81 -5 85 -18 4 -13 32 -15 32 -2 0 5 -16 16 -36
26 -29 13 -50 16 -100 10 -54 -5 -64 -4 -64 9 0 25 -39 45 -75 39 -21 -3 -41
1 -59 12 -19 13 -38 16 -67 12 -41 -5 -90 -40 -86 -61 1 -6 -24 -17 -55 -24
-33 -8 -70 -26 -88 -42 -18 -16 -58 -35 -93 -44 -34 -10 -79 -24 -100 -32 -54
-20 -105 -10 -113 23 -6 21 -11 24 -35 19 -16 -3 -43 -16 -59 -28 -26 -19 -34
-20 -51 -10 -17 11 -29 10 -75 -8 -52 -19 -57 -19 -83 -4 -27 16 -30 15 -72
-9 -52 -30 -120 -50 -143 -41 -9 3 -16 14 -16 25 0 28 -31 39 -109 39 -69 0
-71 1 -71 26 0 15 12 36 30 52 22 20 28 33 24 50 -4 12 -13 22 -20 22 -8 0
-14 4 -14 9 0 16 52 51 76 51 31 0 40 36 20 75 -21 39 -20 42 8 49 13 3 34 21
47 41 13 19 30 35 37 35 7 0 26 14 44 30 34 33 58 39 58 15 0 -8 5 -15 10 -15
6 0 10 -7 10 -15 0 -21 28 -19 79 6 40 19 42 23 40 57 -3 45 5 62 32 62 11 0
42 22 70 50 73 73 122 78 124 12 0 -20 5 -26 18 -24 35 6 57 -16 57 -59 0 -34
3 -39 18 -35 73 22 102 15 102 -25 0 -11 3 -18 8 -17 4 1 29 -8 55 -20 27 -12
50 -22 53 -22 2 0 10 16 18 35 15 34 38 46 51 24 4 -6 19 -7 35 -4 16 4 31 2
35 -5 5 -8 11 -8 21 0 9 9 12 25 7 55 -8 64 2 95 32 95 16 0 32 11 47 31 13
17 35 37 50 45 25 13 29 12 47 -7 l19 -20 41 20 c51 27 68 26 76 0 7 -20 12
-21 84 -15 90 7 121 1 121 -25 0 -10 5 -21 10 -24 6 -4 10 5 10 20 0 38 -52
58 -131 49 -53 -6 -62 -4 -80 15 -23 25 -35 26 -82 6 -32 -13 -36 -13 -52 5
-24 27 -36 25 -81 -11z"/>
<path d="M1283 10467 c-8 -14 -63 -30 -137 -42 -22 -4 -64 -22 -94 -41 -29
-19 -72 -42 -95 -51 -56 -22 -64 -28 -71 -63 -5 -27 -9 -30 -48 -32 -31 -1
-23 -3 27 -7 39 -4 89 -3 113 1 24 4 89 10 145 12 56 3 126 8 155 12 41 5 52
4 53 -7 1 -8 2 -25 2 -39 2 -25 2 -25 102 -24 55 1 161 5 235 10 l135 9 3 31
c3 25 -5 38 -48 77 -28 26 -58 47 -66 47 -8 0 -32 6 -54 12 -30 10 -40 18 -40
34 0 19 -10 24 -72 39 -40 9 -81 20 -90 26 -28 14 -146 11 -155 -4z m135 -11
c15 -7 54 -19 86 -25 64 -12 79 -24 71 -58 -7 -28 -1 -31 65 -34 48 -2 62 -8
103 -43 70 -58 62 -70 -53 -77 -52 -4 -147 -10 -211 -14 -72 -5 -118 -4 -122
2 -3 5 1 22 9 38 22 43 7 50 -77 36 -39 -6 -114 -14 -166 -17 -51 -2 -115 -9
-141 -14 -49 -9 -86 2 -79 23 5 17 78 57 104 57 12 0 23 4 25 8 2 4 21 21 42
37 35 27 48 30 112 31 65 0 76 3 99 27 15 14 41 28 58 30 18 2 36 5 40 5 5 1
21 -4 35 -12z"/>
<path d="M1087 9670 c-66 -16 -121 -31 -125 -34 -3 -3 -11 -1 -19 5 -10 9 -24
8 -56 -5 -66 -25 -147 -44 -147 -35 0 15 -34 10 -73 -11 -21 -12 -47 -18 -57
-15 -40 13 -260 -49 -260 -73 0 -8 7 -11 18 -8 9 3 58 16 109 30 51 13 97 27
102 31 6 3 19 0 30 -7 17 -10 25 -9 51 11 20 14 40 21 53 17 20 -5 69 4 161
29 27 8 53 12 57 9 5 -3 39 4 76 15 37 11 100 23 138 26 85 8 155 24 155 36 0
16 -94 7 -213 -21z"/>
<path d="M1052 5829 c-21 -85 -19 -84 -209 -86 -156 -2 -478 -9 -513 -12 -13
-1 -13 -2 0 -11 15 -10 576 -5 658 6 38 5 45 10 66 52 l25 47 11 -32 c12 -34
24 -41 35 -23 10 16 25 11 25 -9 0 -19 26 -48 35 -39 3 3 -1 18 -10 34 -8 16
-15 34 -15 41 0 20 -22 27 -32 9 -13 -22 -25 -20 -31 7 -4 12 -12 31 -20 41
-13 18 -15 16 -25 -25z"/>
<path d="M655 4106 c-56 -13 -124 -35 -154 -49 -65 -33 -178 -120 -163 -125 6
-2 31 12 54 31 124 100 268 142 488 142 80 -1 153 -6 163 -11 16 -9 12 -14
-30 -37 -99 -54 -252 -210 -239 -243 3 -8 10 -13 15 -9 29 17 125 26 177 15
31 -7 58 -9 61 -7 12 12 -44 29 -107 32 -97 4 -108 14 -67 56 66 68 125 114
189 148 40 21 73 42 75 47 5 14 -166 34 -272 33 -53 -1 -132 -10 -190 -23z"/>
<path d="M12448 3975 c-123 -26 -245 -127 -308 -256 -64 -131 -65 -239 -3
-383 34 -79 143 -212 197 -240 78 -40 201 -10 277 68 47 48 35 66 -13 19 -46
-45 -118 -82 -158 -83 -29 0 -125 33 -146 51 -18 15 -88 112 -77 107 79 -36
103 -54 103 -75 0 -13 5 -23 10 -23 6 0 10 8 10 19 0 16 10 19 63 24 34 3 72
8 84 12 19 6 23 2 28 -29 4 -20 11 -36 16 -36 10 0 10 14 0 50 -6 21 1 33 45
77 29 29 48 55 43 59 -5 3 -27 -14 -48 -38 -22 -23 -43 -40 -47 -35 -7 7 -32
141 -33 180 -1 11 7 17 22 17 13 0 32 9 42 20 22 25 33 25 65 0 27 -21 50 -26
50 -10 0 6 -5 10 -10 10 -22 0 -80 46 -80 63 0 10 -7 29 -16 42 -9 14 -13 33
-9 47 5 19 4 20 -4 7 -12 -20 -104 -44 -122 -33 -8 4 -9 3 -5 -4 4 -7 1 -12
-7 -12 -8 0 -18 7 -21 16 -8 22 -8 26 4 19 29 -18 1 27 -70 114 -44 54 -80
100 -80 103 0 3 25 22 56 42 61 41 123 66 161 66 24 0 25 -2 19 -47 -4 -27
-12 -63 -17 -81 -6 -18 -9 -37 -7 -44 2 -6 10 15 17 48 25 110 31 124 54 124
24 0 91 -29 121 -52 18 -14 16 -19 -31 -109 -53 -101 -67 -133 -55 -125 4 2
32 52 62 110 30 58 61 106 69 106 19 0 1 20 -49 55 -58 40 -131 54 -202 40z
m-140 -234 c40 -48 72 -91 72 -94 0 -3 -17 -3 -37 0 -31 4 -43 0 -66 -21 -15
-14 -36 -26 -46 -26 -21 0 -82 20 -94 30 -11 10 35 121 68 164 15 20 28 36 30
36 1 0 34 -40 73 -89z m-122 -148 c49 -15 52 -18 48 -43 -3 -14 1 -44 10 -65
18 -43 18 -43 -57 -85 l-37 -21 -12 28 c-13 32 -24 203 -12 203 4 0 31 -7 60
-17z m199 -170 c-13 -43 -29 -100 -35 -126 -7 -27 -19 -51 -26 -54 -20 -7 -80
25 -124 68 -22 21 -40 42 -40 46 1 5 30 25 66 46 51 30 72 37 94 32 31 -7 70
21 70 50 0 8 4 15 9 15 5 0 -2 -35 -14 -77z m74 53 c6 -7 19 -61 29 -121 l18
-107 -24 -9 c-13 -5 -46 -9 -73 -9 -59 0 -58 -4 -23 133 32 125 46 146 73 113z"/>
<path d="M1830 3804 c-85 -9 -153 -30 -264 -81 -116 -52 -121 -54 -168 -43
-68 14 -124 13 -210 -5 -90 -19 -127 -43 -214 -139 -71 -78 -102 -138 -103
-193 -1 -39 14 -44 23 -8 3 13 22 36 41 51 33 25 40 26 107 20 48 -4 89 -16
127 -35 31 -15 74 -34 96 -41 22 -7 101 -40 175 -73 184 -82 251 -104 346
-116 118 -15 394 10 394 36 0 3 -35 40 -77 82 -43 42 -92 92 -109 111 -34 39
-84 115 -84 128 0 5 21 30 46 56 25 27 64 76 85 110 22 33 50 69 62 78 25 19
29 16 -73 41 -76 18 -150 26 -200 21z m179 -39 c23 -8 43 -14 46 -15 26 -2
-68 -141 -134 -198 -14 -13 -39 -30 -54 -38 -26 -14 -30 -13 -70 15 -39 28
-243 121 -266 121 -58 0 94 91 194 115 72 18 233 18 284 0z m-609 -109 c36 -8
88 -19 115 -26 56 -14 237 -95 275 -123 117 -86 158 -118 176 -139 12 -12 55
-58 95 -100 40 -43 70 -80 67 -83 -16 -16 -156 -27 -273 -22 -142 6 -199 20
-303 71 -37 19 -121 55 -187 81 -66 26 -136 55 -156 65 -94 47 -225 65 -265
35 -32 -24 -45 -19 -29 12 22 41 133 162 177 191 70 46 197 62 308 38z"/>
<path d="M11488 2648 c-31 -41 -74 -85 -115 -118 -10 -8 -37 -24 -60 -34 -24
-10 -43 -23 -43 -28 0 -13 12 -10 66 16 49 24 79 45 132 94 l25 24 -5 -24 c-3
-12 -9 -31 -13 -40 -10 -25 25 -24 58 2 l26 21 21 -21 c24 -24 57 -26 88 -4
20 14 22 14 22 -1 0 -27 25 -11 28 18 4 30 -9 35 -27 13 -15 -18 -64 -30 -91
-21 -13 4 -20 15 -20 32 l0 25 -34 -26 c-19 -14 -37 -26 -40 -26 -6 0 10 52
29 95 13 29 12 45 -5 45 -4 0 -23 -19 -42 -42z"/>
</g>
</svg>
