<?xml version="1.0" standalone="no"?>
<!DOCTYPE svg PUBLIC "-//W3C//DTD SVG 20010904//EN"
 "http://www.w3.org/TR/2001/REC-SVG-20010904/DTD/svg10.dtd">
<svg version="1.0" xmlns="http://www.w3.org/2000/svg"
 width="2339.000000pt" height="1654.000000pt" viewBox="0 0 2339.000000 1654.000000"
 preserveAspectRatio="xMidYMid meet">
<metadata>
Created by potrace 1.16, written by Peter Selinger 2001-2019
</metadata>
<g transform="translate(0.000000,1654.000000) scale(0.100000,-0.100000)"
fill="#000000" stroke="none">
<path d="M7060 16223 c-39 -16 -81 -53 -113 -98 -17 -23 -23 -49 -27 -110 l-5
-80 -250 1 c-137 0 -308 3 -380 6 -71 4 -348 10 -615 13 -512 7 -560 4 -597
-37 -15 -17 -18 -42 -20 -176 -1 -86 -9 -218 -18 -292 -9 -74 -20 -225 -25
-335 -9 -226 -17 -329 -30 -365 -5 -14 -14 -106 -20 -205 -6 -99 -15 -196 -20
-215 -5 -19 -16 -143 -25 -275 -8 -132 -20 -260 -25 -285 -5 -25 -17 -142 -25
-260 -18 -236 -52 -666 -59 -745 -13 -136 -47 -443 -60 -550 -21 -165 -36
-331 -45 -515 -4 -85 -15 -182 -23 -215 -9 -33 -19 -110 -22 -172 l-5 -112 52
-52 c71 -70 118 -101 228 -150 52 -23 117 -52 144 -64 28 -13 77 -30 110 -40
33 -9 104 -30 158 -46 159 -49 233 -59 415 -59 187 0 304 19 406 64 70 31 108
33 146 6 70 -50 331 -154 500 -199 165 -44 198 -51 265 -57 63 -5 229 6 280
20 11 2 74 18 140 35 160 41 397 136 515 207 34 20 75 14 200 -31 105 -37 106
-37 300 -42 250 -7 265 -4 630 108 36 11 84 29 107 40 24 10 45 19 48 19 2 0
42 18 88 39 89 42 164 89 202 127 13 13 28 24 32 24 5 0 16 13 26 29 14 24 16
46 11 137 -3 60 -14 148 -25 195 -12 57 -19 127 -20 205 -1 108 -8 213 -23
334 -3 25 -13 106 -22 180 -9 74 -17 146 -19 160 -2 14 -8 75 -14 135 -6 61
-16 153 -21 205 -6 52 -17 194 -25 315 -8 121 -20 241 -25 266 -6 25 -11 63
-10 85 1 21 -3 84 -9 139 -5 55 -13 160 -16 233 -4 72 -11 132 -14 132 -4 0
-13 91 -19 203 -7 111 -17 216 -22 232 -5 17 -16 132 -25 257 -9 125 -21 241
-26 257 -6 16 -14 127 -18 247 -8 199 -13 281 -27 399 -14 121 -21 248 -17
314 3 47 0 84 -8 97 -25 48 -39 49 -589 46 -283 -2 -569 -6 -635 -9 -66 -4
-235 -7 -375 -7 l-255 -1 -3 82 c-2 56 -7 85 -17 93 -8 7 -15 17 -15 22 0 17
-63 68 -108 89 -52 23 -141 24 -192 2z m203 -69 c25 -12 38 -27 46 -54 13 -43
14 -119 3 -137 -13 -20 -117 -31 -214 -22 -50 5 -93 11 -96 14 -12 11 -13 106
-2 140 18 55 58 75 152 75 51 0 89 -6 111 -16z m1927 -280 c13 -13 -10 -37
-50 -52 -30 -11 -97 -18 -380 -38 -148 -10 -1391 -46 -1605 -46 -217 0 -1420
34 -1585 45 -223 14 -283 19 -345 29 -69 10 -105 29 -105 54 0 7 14 14 33 16
80 8 4029 0 4037 -8z m-3925 -140 c87 -8 750 -36 1020 -43 l230 -6 -4 -55 c-2
-30 -7 -120 -12 -200 -4 -80 -20 -235 -34 -345 -40 -308 -63 -652 -85 -1265
-10 -262 -21 -467 -41 -730 -5 -74 -14 -220 -19 -325 -16 -329 -49 -779 -59
-805 -5 -14 -14 -97 -20 -185 -6 -88 -14 -194 -17 -235 -3 -41 -9 -127 -12
-190 -4 -63 -10 -120 -14 -126 -4 -6 -22 -14 -40 -18 -18 -3 -58 -13 -88 -21
-62 -17 -200 -19 -305 -4 -38 5 -119 16 -180 24 -60 8 -137 20 -170 28 -90 22
-208 57 -220 66 -5 4 -46 22 -90 40 -102 41 -124 50 -157 67 -14 8 -31 14 -37
14 -7 0 -45 23 -86 50 l-75 50 4 83 c8 159 26 392 32 417 4 14 8 41 9 60 2 19
8 76 13 125 6 50 16 142 22 205 11 124 14 149 25 225 7 56 27 320 50 670 8
127 19 246 24 265 5 19 19 159 30 310 33 435 51 632 61 670 6 19 15 107 21
195 6 88 15 207 20 265 4 58 13 172 19 254 6 82 15 183 21 225 6 42 13 114 16
161 2 48 10 88 16 93 7 4 26 5 42 2 17 -3 57 -8 90 -11z m3904 10 l31 -6 0
-77 c0 -42 8 -139 17 -216 8 -77 18 -176 20 -220 11 -207 24 -382 29 -405 4
-14 8 -50 9 -80 2 -51 39 -413 51 -505 3 -22 14 -146 25 -275 11 -129 24 -280
29 -335 5 -55 14 -163 20 -240 5 -77 19 -259 30 -405 11 -146 21 -285 23 -310
2 -25 7 -61 10 -80 4 -19 14 -105 22 -190 8 -85 24 -236 36 -335 20 -175 25
-232 36 -441 l5 -101 -65 -47 c-35 -25 -84 -53 -108 -61 -23 -9 -61 -24 -83
-34 -72 -34 -239 -100 -301 -120 -85 -27 -153 -41 -285 -57 -63 -9 -149 -20
-190 -25 -174 -24 -414 13 -425 64 -4 23 -14 207 -19 362 -4 115 -37 448 -46
455 -4 3 -14 151 -24 330 -9 179 -18 354 -21 390 -32 455 -47 707 -55 920 -6
140 -15 332 -20 425 -5 94 -11 208 -14 255 -9 216 -25 461 -32 506 -4 27 -7
52 -6 57 1 4 -2 27 -8 50 -15 62 -41 292 -50 452 -4 77 -9 163 -11 190 l-4 50
230 6 c397 10 1028 39 1065 48 19 5 38 9 41 10 4 0 21 -2 38 -5z m-2119 -71
c52 -7 87 -6 419 8 134 5 250 8 256 5 7 -2 15 -36 18 -78 4 -40 12 -113 18
-163 6 -49 13 -112 15 -140 8 -125 35 -374 44 -411 5 -23 14 -133 20 -245 11
-218 12 -235 30 -434 6 -71 15 -256 20 -410 11 -372 17 -483 30 -650 5 -77 14
-230 19 -340 15 -332 40 -698 50 -735 15 -53 30 -271 37 -510 3 -118 10 -224
15 -236 6 -11 9 -41 7 -68 -3 -45 -5 -48 -48 -70 -40 -21 -69 -32 -190 -75
-19 -7 -98 -28 -175 -47 -77 -19 -151 -37 -165 -41 -37 -10 -44 -11 -182 -29
-118 -16 -137 -16 -255 -1 -70 9 -135 18 -143 20 -8 2 -33 7 -55 11 -22 4 -56
12 -75 18 -19 6 -77 21 -130 33 -52 13 -111 29 -130 36 -91 33 -216 83 -223
89 -11 10 12 582 28 685 7 50 19 171 25 270 6 99 15 203 20 230 5 28 14 194
20 370 6 176 15 333 20 348 5 16 14 182 20 370 11 356 23 604 40 817 5 69 15
204 21 300 10 166 14 215 25 320 14 135 28 267 49 480 8 91 20 169 25 174 6 6
10 34 10 64 l0 53 213 -6 c116 -3 232 -8 257 -12z m-2221 -4292 c82 -51 311
-156 382 -177 30 -8 92 -26 139 -40 86 -26 177 -45 305 -65 43 -7 140 -9 255
-6 154 5 194 9 238 26 67 27 72 27 129 -8 96 -56 307 -128 464 -157 104 -20
119 -22 249 -35 58 -5 119 -15 137 -20 22 -7 39 -7 52 0 11 6 46 11 78 12 32
0 83 5 113 10 30 5 62 10 70 10 8 1 60 10 115 20 197 39 405 111 512 179 20
13 31 12 90 -7 38 -12 75 -22 83 -23 8 0 92 -3 185 -6 166 -6 211 -2 375 30
141 27 378 99 438 132 23 13 47 24 52 24 8 0 123 61 224 119 60 34 66 26 66
-86 l0 -98 -51 -35 c-28 -19 -57 -41 -64 -47 -7 -7 -16 -13 -19 -13 -2 0 -31
-17 -63 -38 -32 -20 -71 -42 -88 -49 -90 -34 -192 -75 -210 -83 -194 -93 -622
-123 -835 -59 -64 19 -145 53 -158 66 -15 14 -72 18 -72 5 0 -5 -18 -17 -40
-27 -22 -10 -40 -22 -40 -26 0 -4 -17 -13 -37 -20 -21 -6 -60 -23 -86 -36 -27
-13 -87 -37 -135 -53 -48 -15 -112 -38 -142 -50 -42 -16 -94 -24 -230 -33 -96
-7 -200 -11 -230 -10 -150 8 -252 24 -321 48 -41 15 -111 39 -155 55 -45 15
-92 35 -105 43 -13 8 -41 20 -63 27 -21 7 -54 23 -74 36 -19 13 -40 24 -47 24
-7 0 -15 7 -19 15 -7 19 -60 20 -79 0 -26 -25 -149 -67 -247 -83 -93 -15 -291
-19 -380 -8 -25 3 -82 10 -128 15 -46 6 -89 14 -95 19 -7 5 -40 17 -75 27 -35
10 -65 22 -68 27 -3 4 -12 8 -20 8 -8 0 -33 8 -57 19 -23 10 -71 31 -107 46
-65 28 -245 139 -287 178 -21 18 -23 30 -23 112 0 124 2 125 99 66z"/>
<path d="M12665 15803 c-47 -12 -322 -107 -363 -124 -95 -41 -206 -57 -457
-68 -179 -7 -197 -11 -283 -53 -21 -11 -69 -100 -126 -230 -14 -35 -36 -51
-36 -28 0 6 -17 10 -37 10 -20 0 -51 5 -69 12 -28 10 -44 8 -119 -16 -48 -15
-108 -41 -134 -57 -25 -15 -59 -35 -76 -43 -42 -20 -158 -141 -205 -215 -22
-34 -40 -65 -40 -68 0 -4 -6 -14 -14 -22 -20 -22 -64 -159 -76 -236 -18 -113
-63 -205 -140 -285 -15 -16 -90 -118 -90 -123 0 -3 -16 -33 -35 -66 -38 -64
-54 -144 -55 -268 0 -42 -8 -84 -26 -130 -14 -37 -32 -85 -40 -106 -8 -22 -23
-55 -33 -75 -38 -77 -53 -163 -48 -278 2 -60 10 -129 16 -154 7 -25 16 -74 20
-110 15 -120 33 -224 42 -242 5 -9 18 -43 28 -75 11 -32 27 -78 36 -103 9 -25
19 -91 22 -150 3 -58 10 -110 15 -117 5 -7 9 -29 7 -50 -2 -43 6 -96 26 -163
7 -25 19 -76 26 -115 19 -113 105 -327 169 -425 6 -8 13 -22 17 -30 9 -19 86
-89 127 -115 38 -23 94 -45 120 -45 17 0 18 -5 12 -55 -6 -54 -14 -92 -43
-205 -12 -47 -77 -194 -93 -210 -3 -3 -10 -14 -16 -25 -6 -11 -28 -30 -48 -41
-46 -26 -91 -69 -176 -168 -162 -190 -129 -166 -365 -253 -33 -12 -190 -85
-267 -124 -41 -21 -358 -159 -364 -159 -21 0 -181 -79 -339 -167 -49 -27 -109
-60 -131 -73 -23 -12 -57 -35 -75 -51 -19 -16 -37 -29 -41 -29 -3 0 -25 -18
-48 -40 -58 -55 -92 -71 -159 -73 -48 -2 -64 -8 -108 -40 -28 -20 -55 -37 -61
-37 -6 0 -13 24 -17 53 -21 164 -70 371 -132 557 -45 136 -98 260 -111 260 -4
0 -16 17 -27 38 -29 55 -125 194 -152 220 -51 48 -80 13 -39 -46 74 -104 157
-234 186 -292 37 -74 120 -321 143 -425 9 -38 23 -104 32 -145 10 -41 20 -125
22 -186 l6 -111 -34 -25 c-19 -14 -54 -35 -79 -47 -25 -13 -47 -26 -50 -30 -3
-3 -14 -11 -25 -18 -108 -65 -166 -100 -195 -118 -49 -32 -170 -95 -181 -95
-4 0 -29 -13 -55 -30 -26 -16 -73 -35 -105 -41 -51 -10 -67 -19 -129 -78 -39
-36 -89 -91 -110 -121 -112 -159 -152 -226 -185 -306 -48 -118 -49 -122 -73
-174 -11 -25 -35 -85 -52 -135 -18 -49 -47 -121 -65 -160 -60 -129 -73 -160
-100 -230 -15 -38 -33 -86 -42 -105 -27 -62 -88 -264 -99 -330 -3 -14 -7 -32
-10 -40 -3 -8 -12 -53 -20 -100 -8 -47 -17 -94 -19 -105 -3 -11 -9 -40 -13
-65 -5 -25 -18 -73 -28 -107 l-19 -63 -55 0 c-30 0 -84 7 -120 16 -36 8 -87
20 -113 26 -60 14 -100 58 -141 155 -16 37 -39 91 -51 118 -12 28 -35 84 -51
125 -15 41 -33 84 -40 95 -6 11 -24 56 -39 100 -15 44 -30 87 -33 95 -20 54
-60 231 -87 390 -20 116 -48 558 -48 760 0 124 5 194 33 415 16 125 18 136 34
205 53 228 155 535 237 717 10 24 19 46 19 51 0 13 81 166 100 187 36 42 30
75 -15 75 -25 0 -68 -56 -105 -135 -68 -147 -90 -197 -90 -206 0 -6 -10 -31
-21 -57 -33 -72 -70 -180 -115 -337 -26 -92 -33 -121 -55 -235 -6 -36 -18 -78
-25 -95 -13 -30 -38 -179 -54 -315 -12 -102 -11 -616 1 -715 21 -177 45 -350
53 -385 3 -14 16 -74 27 -135 20 -103 116 -417 140 -459 6 -10 18 -41 26 -69
15 -50 32 -91 100 -239 34 -74 36 -98 8 -98 -7 0 -25 -14 -39 -31 -23 -27 -26
-40 -26 -102 0 -40 -4 -77 -8 -83 -4 -7 -32 -24 -64 -39 -53 -25 -145 -109
-190 -175 -49 -70 -67 -100 -78 -134 -6 -20 -17 -36 -24 -36 -21 0 -62 -47
-85 -95 -42 -90 -24 -193 47 -268 52 -55 263 -147 340 -147 17 0 32 -4 32 -8
0 -5 64 -14 141 -21 197 -16 222 -33 200 -137 -5 -27 -19 -96 -30 -153 -12
-57 -27 -129 -35 -160 -24 -91 -29 -115 -31 -136 -1 -11 -14 -67 -29 -125 -15
-58 -36 -143 -46 -190 -10 -47 -30 -130 -45 -185 -14 -55 -33 -129 -40 -165
-8 -36 -26 -112 -40 -170 -14 -58 -34 -145 -45 -195 -11 -49 -31 -126 -45
-170 -13 -44 -34 -129 -45 -188 -12 -60 -26 -120 -32 -135 -6 -15 -16 -56 -23
-92 -7 -36 -27 -130 -43 -210 -17 -80 -35 -194 -42 -255 -6 -60 -15 -124 -21
-141 -14 -48 -22 -378 -10 -499 22 -238 49 -369 102 -490 14 -32 96 -117 130
-135 16 -9 26 -8 44 4 35 23 59 20 77 -12 45 -76 343 -333 464 -401 44 -24 95
-54 114 -67 19 -13 60 -32 91 -42 30 -11 73 -28 94 -39 44 -22 196 -76 260
-92 22 -6 90 -24 150 -42 61 -17 130 -35 155 -39 74 -13 182 -39 230 -55 25
-8 70 -19 100 -24 30 -5 105 -19 165 -29 61 -11 137 -23 170 -27 33 -3 74 -10
90 -15 17 -5 86 -19 155 -30 69 -11 170 -29 225 -39 55 -10 154 -29 219 -40
66 -12 122 -24 126 -26 4 -2 38 -9 76 -15 38 -6 92 -17 119 -25 28 -8 113 -30
190 -50 77 -19 203 -51 280 -71 77 -20 199 -56 270 -81 133 -46 170 -57 240
-74 155 -35 245 -51 350 -60 111 -9 306 -49 348 -71 35 -18 163 -49 242 -58
44 -4 91 -12 105 -16 14 -4 71 -9 127 -11 87 -4 110 -2 165 18 73 26 105 47
114 72 3 10 19 34 36 52 36 41 78 51 145 35 26 -6 75 -16 108 -21 64 -10 197
-40 280 -64 106 -30 233 -58 295 -65 36 -5 79 -13 95 -18 51 -17 166 -41 250
-53 44 -5 95 -15 113 -20 34 -11 155 -32 182 -31 98 0 511 25 530 32 14 5 61
14 105 20 44 7 115 25 158 41 43 16 90 29 103 29 33 0 97 60 119 112 9 24 21
52 26 63 5 11 8 27 7 35 -3 40 3 90 12 90 5 0 34 9 64 20 68 26 124 81 161
159 l28 59 78 -5 c54 -4 88 -2 111 8 34 14 65 13 83 -1 16 -13 90 -31 175 -41
200 -25 249 -31 305 -34 33 -2 157 -11 275 -19 118 -8 247 -17 285 -19 39 -3
124 -9 190 -15 66 -7 181 -15 255 -18 134 -7 135 -7 175 -40 22 -19 74 -61
115 -94 41 -33 80 -64 87 -70 56 -46 192 -79 413 -100 58 -6 150 -15 205 -21
55 -6 111 -11 125 -11 64 0 337 60 395 86 53 25 170 66 186 66 8 0 19 4 25 8
5 5 44 21 88 36 l79 28 46 -45 c25 -24 53 -47 62 -50 22 -7 134 24 196 56 61
31 69 32 89 12 9 -8 28 -15 43 -15 37 0 121 29 146 50 11 9 35 23 54 30 48 19
162 112 247 201 226 238 304 330 304 363 0 8 11 28 25 44 14 17 25 34 25 39 0
5 11 20 25 33 14 13 25 29 25 36 0 6 6 14 13 17 16 6 51 98 78 201 10 39 27
103 38 141 59 212 108 405 117 465 2 14 12 63 24 110 11 47 27 121 35 165 8
44 19 96 25 115 21 76 77 467 88 605 10 140 6 467 -6 550 -11 71 -55 268 -81
365 -6 19 -10 42 -9 50 0 8 -12 60 -27 115 -15 55 -31 121 -35 146 -5 25 -13
64 -19 85 -15 56 -58 237 -75 319 -38 183 -82 374 -118 520 -22 88 -44 185
-50 215 -12 74 -117 343 -169 433 -16 28 -43 77 -59 107 -32 58 -38 68 -82
138 -16 24 -28 47 -28 51 0 15 -241 242 -297 279 -104 69 -201 72 -300 9 -24
-15 -47 -27 -53 -27 -27 0 -220 -216 -220 -247 0 -43 52 -53 65 -13 12 36 180
195 251 236 102 60 118 62 188 19 61 -36 106 -74 211 -175 67 -64 115 -117
115 -127 0 -3 6 -14 14 -22 8 -9 45 -75 82 -146 36 -72 70 -134 74 -140 15
-21 114 -283 126 -335 7 -30 22 -93 33 -140 12 -47 30 -123 40 -170 10 -47 23
-103 29 -125 6 -22 25 -103 43 -180 18 -77 45 -192 61 -255 17 -63 38 -155 49
-204 10 -50 21 -97 24 -105 4 -9 17 -65 30 -126 14 -60 34 -146 45 -190 57
-225 90 -387 90 -447 0 -27 5 -48 10 -48 13 0 13 -305 0 -362 -5 -24 -14 -109
-19 -190 -6 -81 -15 -167 -21 -190 -5 -24 -19 -99 -30 -168 -25 -155 -39 -227
-79 -405 -56 -256 -61 -277 -67 -287 -4 -6 -15 -45 -25 -87 -71 -305 -140
-494 -204 -564 -31 -33 -65 -88 -65 -105 0 -8 -40 -60 -90 -117 -49 -57 -90
-105 -90 -107 0 -2 -42 -46 -94 -98 -173 -175 -318 -270 -413 -270 -18 0 -23
6 -23 25 0 33 -26 42 -59 21 -46 -29 -155 -83 -186 -91 -53 -14 -105 1 -89 27
3 4 11 45 19 90 27 152 15 770 -16 803 -5 5 -9 20 -9 35 0 14 -9 54 -19 90
-59 193 -75 240 -82 240 -4 0 -18 18 -31 41 -12 22 -45 56 -73 76 -27 19 -71
48 -97 66 -57 39 -78 73 -78 126 0 78 92 131 229 131 118 0 263 47 366 118 67
47 55 98 -14 61 -20 -10 -42 -19 -50 -19 -9 0 -52 -16 -98 -35 -79 -34 -216
-64 -294 -65 -30 0 -38 4 -43 23 -13 49 -5 94 31 167 51 103 183 235 308 307
50 29 99 59 110 67 l20 16 -20 16 c-17 13 -36 14 -114 9 -104 -8 -142 -21
-214 -77 -27 -21 -56 -38 -64 -38 -21 0 -46 30 -79 98 -16 31 -32 59 -35 62
-12 9 -58 157 -81 258 -29 127 -32 389 -6 497 20 80 41 183 44 205 0 8 4 25 8
38 9 28 36 179 43 243 4 41 2 46 -22 57 -14 7 -44 12 -66 12 l-41 0 3 68 c4
88 -4 108 -46 122 -34 11 -35 13 -35 64 0 47 -3 55 -33 79 -29 22 -33 31 -29
62 2 19 -1 48 -8 64 -10 25 -8 40 15 108 15 43 38 107 50 143 13 36 37 93 54
127 17 34 31 67 31 73 0 6 11 32 24 59 24 47 36 118 56 321 10 108 17 127 93
278 20 39 88 117 130 150 9 7 17 17 17 22 0 12 -29 40 -42 40 -24 0 -152 -147
-174 -199 -6 -14 -19 -44 -29 -66 -43 -98 -57 -163 -66 -295 -7 -124 -20 -186
-48 -236 -27 -50 -91 -188 -91 -199 0 -23 -104 -231 -130 -258 -9 -10 -36 -21
-59 -24 -43 -6 -46 -3 -41 41 1 11 -1 39 -5 64 l-7 44 -436 -5 c-487 -6 -641
-17 -902 -67 -107 -21 -425 -102 -450 -115 -14 -8 -52 -21 -85 -30 -33 -10
-82 -24 -110 -32 -62 -19 -231 -100 -267 -127 -14 -12 -37 -29 -50 -39 -45
-35 -79 -63 -125 -105 -25 -23 -50 -42 -55 -42 -5 0 -12 -8 -16 -19 -4 -10
-33 -46 -65 -81 l-58 -62 -23 22 c-13 12 -50 58 -82 103 -68 96 -135 180 -148
186 -5 2 -84 69 -175 150 -92 80 -182 157 -200 171 -18 14 -38 30 -44 35 -7 6
-30 22 -52 35 -22 13 -67 45 -100 70 -60 47 -219 150 -231 150 -4 0 -37 19
-73 42 -36 23 -97 58 -136 78 -84 44 -166 90 -181 101 -11 9 -114 64 -199 106
-27 13 -57 29 -65 34 -8 5 -31 16 -50 25 -19 8 -51 23 -70 34 -19 10 -89 34
-155 53 -66 19 -140 43 -165 52 -90 33 -132 44 -198 54 -71 9 -94 2 -73 -23
12 -15 11 -101 -4 -216 -2 -19 -9 -80 -15 -135 -6 -55 -16 -129 -21 -165 -6
-36 -19 -126 -29 -200 -37 -274 -50 -356 -60 -380 -5 -14 -12 -45 -15 -70 -5
-44 -11 -81 -40 -230 -8 -41 -21 -118 -29 -170 -8 -52 -22 -129 -30 -170 -9
-41 -18 -86 -21 -100 -2 -14 -13 -77 -24 -140 -35 -200 -61 -355 -86 -511 -13
-88 -37 -203 -57 -274 -18 -64 -18 -64 -32 -190 -8 -66 -19 -131 -24 -145 -6
-14 -14 -42 -17 -63 -6 -35 -8 -38 -33 -33 -15 3 -54 8 -87 11 -33 4 -73 11
-90 16 -51 15 -363 57 -593 80 l-134 13 -29 35 c-16 20 -29 41 -29 47 0 25
-109 98 -237 161 -84 41 -133 70 -133 80 0 20 27 76 48 99 9 11 33 42 51 69
19 28 38 52 42 55 3 3 28 32 54 65 27 33 57 69 66 80 10 11 34 40 54 65 114
144 159 196 230 265 66 64 130 153 140 197 12 49 93 52 182 6 52 -26 67 -40
95 -89 35 -62 47 -72 68 -59 22 13 3 57 -48 110 -26 27 -51 50 -56 50 -4 0
-24 16 -44 35 -28 26 -46 35 -72 35 -19 0 -54 6 -76 13 l-41 12 42 65 c23 36
68 107 101 158 87 138 112 162 165 162 24 0 52 -7 62 -14 19 -15 57 -10 57 7
0 5 -16 29 -35 53 -19 23 -35 45 -35 49 0 3 -18 32 -39 63 l-39 58 34 38 c19
21 78 104 131 185 53 80 100 148 103 151 4 3 44 77 90 165 45 88 91 171 100
185 10 14 23 42 31 63 7 20 17 37 21 37 4 0 8 5 8 11 0 6 19 47 42 92 22 45
68 136 101 202 33 66 72 145 87 175 66 131 90 180 125 255 20 44 41 87 46 95
5 8 23 44 40 80 94 198 135 278 153 305 23 33 48 76 67 115 81 168 105 209
162 280 54 68 68 85 104 135 42 57 43 57 102 108 38 31 52 37 92 37 45 0 52
-4 115 -62 60 -56 74 -77 135 -204 37 -78 76 -172 85 -210 19 -77 32 -98 53
-85 26 16 -29 206 -99 346 -63 125 -73 143 -102 186 l-17 27 52 7 c29 4 70 8
92 9 104 6 277 48 575 141 93 29 310 111 380 143 19 9 61 18 92 20 l57 4 3
-93 c2 -52 12 -123 22 -159 16 -55 16 -70 6 -100 -7 -19 -16 -37 -19 -40 -3
-3 -22 -29 -43 -58 -34 -51 -81 -88 -175 -139 -23 -13 -49 -23 -58 -23 -26 0
-17 -17 33 -58 64 -54 133 -87 233 -112 74 -18 112 -21 314 -20 127 1 244 -3
260 -8 85 -27 116 -60 123 -134 4 -38 1 -48 -10 -48 -27 0 -46 -34 -51 -95 -3
-33 -15 -125 -27 -205 -11 -80 -22 -161 -24 -180 -27 -236 -38 -316 -51 -380
-27 -134 -74 -518 -74 -621 -1 -76 4 -87 51 -124 29 -23 133 -58 191 -65 66
-8 198 4 229 21 21 11 24 57 4 65 -8 3 -33 0 -55 -6 -42 -11 -133 -22 -181
-22 -38 0 -111 23 -151 48 l-37 23 5 68 c3 37 9 100 14 138 4 39 18 144 29
235 11 91 22 176 25 188 3 13 12 72 20 130 8 59 17 123 20 142 3 19 15 107 26
195 11 88 26 203 32 255 7 52 16 100 20 106 7 12 150 84 166 84 5 0 16 6 23
13 31 29 96 64 131 71 l37 7 0 -35 c0 -64 44 -84 227 -106 77 -9 205 -45 238
-67 11 -7 27 -13 37 -13 24 0 250 -117 325 -168 34 -23 65 -42 69 -42 15 0
209 -193 252 -250 52 -70 89 -93 117 -72 6 4 18 24 27 45 10 20 21 37 26 37 4
0 16 17 27 38 11 20 23 39 26 42 14 12 146 221 176 280 18 36 37 72 42 80 9
16 68 141 94 200 14 33 31 74 87 210 12 30 37 102 55 160 18 58 45 137 60 175
15 39 32 87 37 108 14 50 32 56 65 20 16 -16 55 -49 88 -73 62 -45 107 -82
287 -237 59 -51 110 -93 114 -93 3 0 21 -12 39 -27 17 -16 53 -46 79 -68 27
-22 55 -47 64 -55 8 -8 49 -38 89 -66 40 -28 93 -70 118 -93 24 -22 49 -41 55
-41 18 0 42 29 38 47 -3 14 -55 61 -133 118 -11 8 -62 47 -114 87 -51 40 -110
84 -130 98 -41 28 -66 49 -120 100 -21 19 -53 49 -73 65 -19 17 -58 49 -85 73
-27 23 -83 65 -124 93 -136 94 -188 158 -200 246 -12 89 -61 173 -150 258 -42
40 -92 81 -110 90 -81 42 -111 81 -147 188 -39 114 -40 148 -6 221 24 53 28
56 61 56 28 0 43 8 72 39 46 49 61 68 61 78 0 17 62 83 78 83 16 0 43 19 144
102 81 66 168 242 168 341 0 33 6 61 17 77 31 44 70 128 82 176 7 27 17 54 22
60 13 16 14 304 0 337 -6 16 -11 39 -11 53 0 22 2 23 21 13 12 -6 25 -7 29 -2
4 4 10 98 13 208 4 187 3 207 -19 297 -26 104 -53 176 -114 303 -37 77 -38 84
-43 210 -4 117 -8 139 -40 225 -32 89 -85 209 -97 220 -3 3 -20 28 -38 57 -18
28 -50 64 -70 79 -76 58 -74 67 24 113 35 17 67 37 70 45 10 25 -29 79 -78
109 -29 18 -65 30 -102 34 -66 7 -73 15 -58 76 6 23 12 74 13 112 3 68 2 70
-23 73 -20 2 -28 -3 -39 -30 -19 -48 -107 -138 -127 -131 -9 4 -53 43 -98 87
-88 88 -169 159 -187 165 -6 2 -18 13 -27 24 -9 11 -41 35 -71 53 -50 31 -75
44 -211 109 -29 14 -60 29 -68 34 -22 13 -79 37 -125 51 -22 7 -51 17 -65 22
-65 22 -158 32 -300 31 -172 -1 -283 -12 -404 -42 -45 -11 -108 -25 -141 -32
-57 -11 -170 -49 -207 -69 -9 -5 -74 -39 -145 -76 -70 -37 -135 -72 -143 -78
-8 -7 -55 -32 -105 -56 -76 -37 -102 -44 -165 -48 -108 -6 -139 4 -168 58 -29
52 -42 63 -58 49 -30 -25 -21 -140 16 -212 12 -22 19 -46 16 -53 -3 -7 -26
-23 -51 -35 -25 -12 -45 -25 -45 -31 0 -5 -15 -15 -34 -23 -19 -8 -48 -32 -65
-52 -17 -21 -55 -68 -85 -105 -63 -78 -66 -76 -66 47 0 78 2 88 46 176 43 86
87 232 100 327 29 217 43 512 28 598 -3 18 -1 35 5 39 30 18 83 121 146 285
32 83 55 191 106 495 39 237 41 265 23 325 -39 132 -56 167 -113 231 -37 41
-64 82 -74 114 -37 111 -124 217 -216 265 -36 19 -71 53 -71 69 0 13 -40 76
-73 116 -18 22 -63 50 -125 80 -53 25 -104 55 -113 67 -12 16 -23 19 -43 14
-67 -17 -35 -75 55 -100 34 -9 75 -26 90 -37 15 -10 31 -19 36 -19 24 0 97
-78 123 -132 32 -66 64 -98 127 -129 70 -34 129 -106 154 -190 20 -66 29 -81
86 -136 69 -66 83 -93 108 -199 12 -51 14 -78 6 -104 -5 -19 -16 -84 -25 -145
-32 -230 -93 -516 -126 -589 -10 -23 -28 -63 -39 -90 -12 -27 -39 -75 -61
-107 -22 -32 -40 -61 -40 -64 0 -6 -12 -22 -40 -53 -22 -24 -70 -100 -70 -111
0 -5 -6 -14 -14 -20 -14 -12 -18 18 -32 227 -6 88 -5 94 17 112 12 11 25 20
28 20 4 0 34 26 68 58 104 98 155 228 85 220 -20 -2 -33 -17 -63 -77 -21 -41
-47 -80 -58 -88 -11 -7 -26 -19 -33 -26 -54 -51 -166 -100 -200 -88 -13 5 -3
17 43 54 33 26 63 47 68 47 13 0 158 155 174 186 11 21 12 35 6 47 -17 30 -45
19 -87 -35 -49 -66 -125 -148 -136 -148 -4 0 -14 -6 -21 -12 -31 -28 -43 -35
-115 -72 -88 -45 -152 -66 -200 -66 -20 0 -41 -5 -47 -11 -9 -9 -20 -9 -44 0
-17 6 -47 11 -64 11 -35 0 -154 34 -195 55 -14 8 -47 24 -75 36 -52 24 -145
104 -145 126 0 6 -6 16 -14 20 -7 4 -32 43 -55 86 -23 43 -47 87 -54 98 -10
17 -9 23 7 35 11 8 25 14 32 14 22 0 137 71 176 109 41 40 44 49 25 76 -14 18
-26 11 -146 -87 -21 -18 -147 -66 -188 -73 -21 -4 -50 -11 -65 -17 -20 -7 -40
-7 -73 3 -25 7 -45 16 -45 19 0 3 22 11 49 17 27 6 76 23 108 38 32 14 72 33
90 40 34 15 53 29 120 89 46 41 52 56 28 76 -17 14 -32 6 -99 -54 -84 -75
-323 -159 -531 -187 -134 -18 -205 -9 -317 40 -61 26 -61 26 112 56 186 32
475 145 468 183 -4 23 -36 27 -73 10 -61 -30 -201 -79 -330 -116 -77 -22 -111
-25 -240 -26 -129 -1 -162 2 -235 23 -46 13 -105 34 -130 46 -25 13 -62 31
-82 40 -21 10 -56 35 -79 57 -49 47 -75 47 -72 -1 2 -41 39 -82 111 -123 50
-29 67 -58 42 -73 -5 -3 -10 -24 -10 -47 0 -28 -9 -53 -30 -85 -16 -24 -30
-46 -30 -48 0 -17 -77 -119 -121 -160 -114 -108 -257 -174 -394 -184 -73 -5
-90 -9 -93 -23 -4 -23 30 -32 121 -30 42 1 77 -3 77 -8 0 -11 -86 -99 -135
-136 -39 -30 -68 -41 -195 -71 -36 -9 -71 -17 -77 -19 -7 -2 -13 -12 -13 -23
0 -31 53 -36 142 -13 42 11 82 16 88 12 17 -10 40 -77 40 -114 0 -55 -23 -124
-78 -234 l-37 -72 3 -128 c3 -112 1 -131 -15 -151 -12 -15 -24 -20 -36 -15
-17 6 -77 84 -77 99 0 7 -67 91 -97 123 -21 22 -43 112 -43 176 -1 113 -16
185 -52 237 -28 42 -38 49 -65 49 -36 0 -38 -2 -23 -31 10 -17 7 -19 -30 -19
-47 0 -95 -22 -110 -50 -13 -25 -25 -25 -52 0 -37 34 -59 109 -73 245 -8 72
-16 139 -19 150 -22 83 -26 110 -26 190 0 119 4 132 95 350 33 80 38 104 45
210 12 180 43 250 191 431 31 38 64 89 73 114 17 43 26 65 61 144 8 19 15 38
15 44 0 45 79 229 116 273 8 8 14 19 14 23 0 19 91 144 125 171 20 17 42 35
49 40 25 23 64 43 131 68 121 46 257 31 271 -31 3 -15 13 -47 21 -72 14 -42
13 -47 -17 -128 -28 -73 -32 -93 -28 -160 3 -51 12 -94 27 -129 37 -84 93 -84
63 0 -26 74 -27 176 -3 256 12 38 26 73 31 76 17 10 11 56 -12 93 -28 46 -28
109 -1 182 64 167 101 212 185 229 29 6 148 15 263 20 116 6 219 12 230 14 41
6 145 42 145 49 0 4 7 8 15 8 14 0 131 37 245 78 139 50 238 54 326 12 57 -27
104 -67 104 -90 0 -22 58 -70 85 -70 39 0 144 -30 180 -51 30 -18 53 -47 92
-118 7 -13 13 -46 13 -74 0 -47 -3 -53 -45 -93 -66 -61 -137 -93 -250 -112
-80 -14 -29 -66 55 -56 130 16 240 81 291 174 11 19 20 26 29 20 18 -11 5 -85
-20 -113 -22 -23 -26 -52 -9 -63 6 -4 47 10 90 32 43 21 82 35 85 31 4 -4 1
-32 -6 -62 -17 -73 -7 -85 70 -85 66 0 90 7 90 25 0 17 -44 45 -69 45 -18 0
-20 5 -15 43 5 33 2 47 -14 67 -17 21 -29 25 -79 25 l-58 0 -6 44 c-4 34 -14
51 -37 71 -18 15 -39 46 -47 71 -36 105 -158 197 -305 230 -55 12 -64 18 -80
49 -23 45 -64 82 -120 110 -35 17 -67 23 -145 26 -55 1 -109 0 -120 -3z m-795
-2068 c36 -8 77 -15 92 -15 15 0 30 -4 33 -10 3 -5 14 -10 24 -10 10 0 27 -11
40 -24 12 -12 63 -43 114 -67 l92 -44 185 0 c102 -1 192 -4 200 -7 41 -17 85
-22 200 -22 114 1 126 -1 142 -20 9 -12 17 -24 18 -29 2 -43 154 -277 180
-277 4 0 30 -15 56 -33 45 -31 70 -43 157 -81 64 -29 153 -48 243 -53 80 -5
101 -3 157 17 65 23 66 23 114 5 26 -10 73 -18 105 -18 55 0 58 -1 59 -26 0
-14 5 -100 11 -191 6 -91 12 -304 14 -475 3 -170 7 -380 10 -465 6 -162 -4
-297 -30 -389 -13 -46 -29 -78 -76 -151 -39 -62 -98 -164 -121 -210 -39 -81
-69 -262 -68 -410 1 -95 -14 -164 -45 -200 -7 -8 -19 -31 -26 -50 -7 -19 -21
-46 -31 -60 -9 -14 -26 -41 -37 -60 -11 -19 -39 -66 -62 -105 -24 -38 -79
-135 -122 -214 -88 -159 -136 -229 -194 -281 -86 -77 -323 -116 -664 -108
-206 5 -200 2 -390 134 -69 47 -138 93 -155 101 -16 9 -32 19 -35 22 -3 4 -23
20 -45 36 -115 84 -333 285 -435 401 -148 170 -239 285 -283 359 -23 39 -44
72 -47 75 -8 8 -29 43 -39 67 -6 11 -15 24 -20 28 -6 3 -20 27 -31 53 -12 26
-27 58 -34 72 -8 14 -17 41 -21 60 -4 19 -12 44 -19 55 -6 11 -16 40 -23 65
-48 180 -53 211 -57 342 -2 75 -7 141 -10 147 -13 20 -33 0 -55 -55 -17 -40
-34 -62 -66 -84 -24 -17 -47 -30 -51 -30 -12 0 -126 60 -138 73 -68 73 -163
271 -197 412 -7 28 -16 55 -21 61 -5 7 -13 63 -19 125 -6 63 -15 123 -19 134
-5 11 -13 72 -19 136 -14 152 -2 228 47 282 44 47 74 36 140 -51 19 -26 22
-42 22 -119 0 -73 -3 -90 -17 -99 -25 -16 -44 -90 -39 -154 8 -100 34 -265 47
-295 43 -106 57 -121 86 -92 14 14 14 20 -5 69 -46 118 -57 171 -57 280 0 155
21 165 98 45 80 -124 103 -151 151 -176 42 -22 47 -22 69 -8 14 9 33 41 46 78
20 53 22 69 13 113 -16 82 0 168 48 261 36 69 44 97 52 175 8 77 7 99 -6 134
-21 56 -21 59 17 81 79 46 169 150 179 208 2 11 36 36 88 63 81 43 175 112
194 142 4 8 16 22 25 31 50 50 99 142 120 226 29 118 33 127 55 120 12 -3 50
-12 86 -20z m2435 -1077 c-7 -122 -10 -148 -40 -362 -12 -90 -51 -235 -72
-269 -16 -27 -22 34 -24 255 -2 179 0 250 9 261 7 8 18 34 26 58 22 74 78 179
93 179 13 0 14 -18 8 -122z m1870 -188 c129 -16 230 -44 265 -75 8 -7 35 -18
60 -25 49 -13 196 -88 247 -126 17 -13 36 -24 41 -24 18 0 135 -97 222 -184
64 -64 110 -120 110 -134 0 -24 52 -23 95 3 24 14 47 30 50 35 3 6 11 10 17
10 16 0 0 -49 -28 -86 -21 -28 -24 -36 -14 -54 10 -18 18 -21 43 -16 76 15
130 18 150 9 12 -6 34 -15 50 -22 50 -20 34 -50 -41 -76 -102 -37 -115 -83
-39 -132 54 -35 117 -94 117 -110 0 -7 3 -13 8 -13 8 0 14 -9 61 -106 94 -194
101 -219 110 -399 6 -108 12 -141 34 -194 14 -35 30 -68 35 -75 19 -25 73
-175 87 -244 14 -69 13 -200 -1 -272 l-6 -25 -15 30 c-21 40 -87 105 -107 105
-23 0 -20 -18 23 -158 47 -152 50 -166 62 -262 22 -173 23 -162 -16 -285 -20
-63 -41 -115 -46 -115 -5 0 -18 6 -29 12 -32 20 -46 -2 -31 -50 27 -81 -5
-268 -60 -350 -16 -24 -29 -45 -29 -47 0 -2 -11 -17 -25 -32 -14 -15 -37 -42
-52 -60 -16 -18 -41 -35 -57 -39 -26 -6 -28 -5 -21 15 6 21 -17 61 -35 61 -4
0 -17 -26 -29 -57 -11 -32 -35 -82 -53 -112 -18 -29 -38 -62 -43 -71 -22 -37
-38 -50 -62 -50 -18 0 -24 4 -19 15 3 8 -2 21 -10 30 -30 30 -37 21 -69 -86
-34 -119 -98 -133 -141 -31 -8 20 -14 52 -12 72 3 32 9 38 73 73 39 21 83 50
98 65 37 35 75 109 83 164 8 52 22 81 35 73 5 -4 9 -15 9 -25 0 -23 32 -42 55
-33 14 5 16 14 12 48 -12 84 -44 147 -110 213 -94 94 -122 117 -205 169 -43
26 -82 52 -89 58 -6 5 -35 26 -63 45 -137 93 -173 130 -246 250 -66 110 -73
132 -75 238 -1 77 3 110 21 162 37 109 55 183 52 218 -4 41 -26 38 -30 -4 -3
-38 -22 -85 -85 -214 -45 -93 -109 -186 -171 -245 -64 -62 -200 -135 -217
-118 -14 14 -2 36 43 84 43 46 98 155 128 254 6 22 14 47 17 55 4 8 7 17 8 20
4 13 25 122 34 174 9 50 17 64 57 102 25 24 50 44 55 44 20 0 105 64 155 117
51 54 124 165 124 188 0 18 -27 38 -42 32 -7 -2 -35 -40 -62 -83 -57 -93 -151
-187 -247 -249 -67 -43 -81 -59 -58 -67 8 -3 4 -22 -11 -58 -52 -130 -76 -173
-117 -210 -24 -21 -43 -42 -43 -47 0 -15 -150 -157 -195 -185 -125 -78 -295
-137 -396 -138 -50 0 -108 20 -128 44 -10 12 0 23 64 68 42 29 95 66 118 83
61 43 230 213 260 262 30 48 34 75 12 93 -19 15 -24 11 -76 -57 -49 -65 -225
-240 -297 -294 -26 -19 -64 -43 -84 -52 -20 -10 -40 -22 -43 -26 -3 -5 -42
-22 -88 -38 -75 -25 -95 -28 -223 -28 -90 0 -146 4 -155 11 -8 6 -25 15 -39
19 -14 4 -44 21 -68 37 -35 24 -41 32 -31 44 6 8 18 14 25 14 8 0 45 15 83 34
37 19 95 44 127 55 83 28 152 58 184 81 16 11 35 20 43 20 9 0 29 11 44 24 27
24 27 26 10 43 -16 17 -19 16 -72 -12 -30 -17 -55 -33 -55 -36 0 -3 -19 -11
-42 -18 -24 -7 -58 -19 -75 -27 -18 -8 -48 -20 -65 -28 -95 -42 -376 -132
-438 -140 -25 -4 -65 -9 -90 -13 -53 -7 -138 -7 -197 -1 -48 6 -69 -3 -60 -26
7 -18 15 -22 68 -30 54 -9 63 -40 61 -204 -1 -75 -6 -151 -11 -171 -12 -47
-30 -337 -35 -566 -4 -139 -8 -181 -18 -183 -24 -5 -133 84 -166 135 -18 27
-32 56 -32 64 0 8 -4 19 -9 24 -5 6 -25 63 -46 128 -34 108 -37 125 -33 215
l3 97 -33 1 c-18 1 -33 3 -35 5 -59 101 -73 235 -38 345 10 32 22 75 26 94 4
19 11 41 15 50 45 86 61 133 51 143 -23 23 -81 -67 -120 -185 -18 -54 -38 -48
-49 15 -5 28 -15 79 -21 113 -13 74 -14 154 -2 203 5 20 15 70 22 111 11 72
16 88 45 157 8 17 14 34 14 38 0 4 7 23 16 43 51 117 73 159 88 171 9 7 16 19
16 26 0 7 14 25 31 39 34 29 36 59 4 64 -13 2 -37 -14 -67 -43 -26 -25 -49
-45 -52 -45 -12 0 -6 110 9 162 29 108 86 229 161 344 37 55 134 164 147 164
7 0 95 54 126 77 2 1 -2 10 -10 19 -10 12 -23 14 -51 10 -30 -5 -38 -3 -38 9
0 22 129 165 181 200 24 16 46 33 49 36 3 4 23 16 45 27 22 12 53 33 70 47
l30 25 -25 45 c-13 25 -28 45 -32 45 -5 0 -8 11 -8 25 0 23 2 24 20 15 11 -6
49 -13 85 -17 83 -8 173 16 247 63 77 51 365 190 461 223 174 61 398 111 521
117 32 1 61 5 64 8 8 9 136 6 217 -4z m-5203 -1161 c16 -57 30 -113 33 -124
36 -156 93 -298 155 -385 10 -14 37 -63 60 -110 23 -47 45 -87 49 -90 3 -3 11
-12 16 -21 6 -10 25 -38 43 -63 17 -26 32 -49 32 -52 0 -3 17 -31 38 -62 39
-61 50 -78 83 -129 12 -18 25 -33 30 -33 5 0 9 -4 9 -9 0 -5 17 -26 38 -48 20
-22 45 -50 54 -64 35 -49 174 -196 222 -234 27 -22 88 -73 134 -112 47 -40 89
-73 94 -73 5 0 18 -8 28 -18 56 -52 241 -138 377 -176 23 -6 45 -15 48 -18 6
-6 -51 -137 -64 -148 -3 -3 -14 -22 -23 -43 -23 -48 -37 -53 -115 -40 -75 13
-367 157 -466 229 -34 26 -82 57 -107 69 -25 13 -52 32 -61 42 -9 10 -40 38
-70 63 -97 81 -254 221 -278 248 -71 81 -89 101 -117 137 -17 22 -37 51 -44
65 -7 14 -16 27 -20 30 -3 3 -16 22 -29 43 -12 20 -26 37 -30 37 -4 0 -13 17
-20 38 -8 20 -19 44 -26 52 -12 15 -24 38 -104 199 -39 79 -91 218 -91 246 0
6 -7 26 -16 44 -20 40 -24 225 -6 259 15 27 46 145 62 234 15 88 30 130 43
125 7 -2 24 -50 39 -108z m-220 -527 c16 -30 37 -86 49 -125 12 -40 30 -90 40
-113 10 -22 19 -45 19 -51 0 -10 72 -164 90 -193 5 -8 23 -37 40 -65 44 -73
54 -88 67 -102 6 -7 21 -29 34 -50 12 -21 30 -46 38 -55 9 -10 32 -38 51 -64
67 -89 344 -358 420 -409 41 -27 77 -52 80 -55 21 -24 220 -152 240 -155 3 0
30 -12 60 -27 160 -77 217 -100 267 -109 31 -6 67 -15 82 -21 76 -29 447 -37
601 -12 58 9 119 17 135 19 78 5 330 83 435 133 58 28 196 130 268 200 40 38
52 40 52 9 0 -13 4 -27 8 -32 5 -6 15 -30 22 -55 8 -25 26 -61 41 -80 15 -19
29 -53 32 -75 9 -72 47 -195 82 -265 19 -37 35 -72 35 -77 0 -5 20 -31 45 -59
24 -27 44 -52 45 -56 0 -9 62 -72 101 -103 46 -37 72 -86 85 -159 20 -120 66
-346 78 -387 21 -73 42 -129 48 -129 4 0 8 -22 8 -50 0 -47 -2 -50 -47 -81
-48 -34 -233 -107 -403 -160 -52 -17 -108 -35 -125 -41 -34 -12 -112 -29 -265
-59 -58 -11 -116 -22 -130 -25 -14 -3 -66 -9 -116 -13 -50 -5 -97 -12 -104
-16 -8 -5 -48 -9 -89 -10 -155 -2 -208 -27 -291 -135 -19 -25 -37 -47 -40 -50
-11 -9 -154 -242 -212 -344 -53 -95 -274 -532 -351 -696 -124 -263 -147 -313
-147 -317 0 -10 -34 -78 -50 -103 -10 -14 -61 -110 -114 -215 -54 -104 -104
-197 -111 -205 -7 -8 -36 -58 -63 -110 -45 -85 -68 -123 -149 -251 -12 -19
-27 -39 -32 -46 -6 -7 -11 -15 -11 -19 0 -4 -10 -21 -23 -38 -13 -17 -36 -53
-51 -80 -32 -55 -51 -80 -83 -109 -30 -27 -29 -58 3 -88 31 -29 54 -71 54 -98
0 -10 6 -21 13 -24 6 -2 10 -7 7 -10 -3 -3 -23 1 -45 10 -22 8 -47 17 -56 19
-11 4 -21 -6 -34 -33 -9 -21 -39 -72 -65 -113 -26 -41 -82 -131 -125 -200 -42
-69 -81 -126 -86 -128 -15 -6 -10 -54 7 -73 21 -23 10 -43 -80 -141 -119 -128
-192 -214 -296 -343 -25 -31 -64 -77 -88 -103 -24 -26 -55 -63 -70 -82 -15
-19 -37 -45 -49 -58 -13 -13 -23 -26 -23 -30 -1 -32 -148 -132 -195 -132 -11
0 -66 12 -120 26 -55 14 -107 27 -115 29 -8 2 -42 11 -75 20 -33 9 -100 27
-148 40 -108 28 -238 79 -292 114 -22 14 -53 33 -69 41 -16 8 -79 64 -140 125
-61 61 -120 117 -131 125 -40 30 -57 59 -70 125 -10 45 -11 74 -5 91 6 14 10
44 10 67 0 23 12 69 26 102 83 198 110 332 120 595 4 96 10 180 15 185 4 6 12
60 18 120 6 61 15 126 20 145 5 19 17 63 25 98 24 97 96 318 123 380 14 31 60
127 108 222 34 69 76 175 101 260 27 88 29 107 28 250 -1 137 -4 161 -23 205
-33 72 -36 78 -49 83 -23 7 -25 -31 -6 -87 25 -74 25 -275 0 -376 -22 -87 -76
-232 -122 -325 -29 -58 -59 -125 -67 -150 -21 -63 -39 -100 -48 -100 -9 0 -14
49 -33 335 -9 127 -20 253 -26 280 -5 28 -17 102 -25 165 -9 63 -20 129 -25
145 -5 17 -11 50 -15 75 -4 25 -11 59 -16 75 -5 17 -11 44 -13 60 -6 34 -22
96 -61 235 -15 52 -30 109 -35 125 -5 17 -15 53 -23 80 -9 28 -21 70 -28 95
-16 60 -48 150 -62 176 -59 103 -249 389 -305 459 -4 6 -29 55 -56 110 -26 55
-53 111 -60 125 -11 21 -23 57 -31 95 -13 60 -77 240 -113 315 -47 102 -144
232 -196 265 -18 11 -60 42 -94 68 -36 28 -77 51 -97 54 -55 9 -43 -16 36 -72
72 -52 189 -160 189 -174 0 -5 8 -15 17 -22 34 -29 183 -391 183 -449 0 -21
113 -251 149 -304 17 -25 31 -49 31 -55 0 -6 14 -26 30 -44 17 -19 30 -37 30
-41 0 -6 61 -97 71 -106 10 -9 65 -93 111 -170 44 -72 77 -156 131 -325 34
-103 87 -311 87 -336 0 -11 4 -27 9 -37 5 -9 15 -48 21 -87 7 -38 24 -113 37
-165 14 -52 26 -108 29 -125 20 -158 37 -272 47 -330 13 -75 17 -558 6 -700
-8 -93 -33 -252 -42 -261 -11 -11 -27 7 -27 31 0 77 -94 366 -142 437 -10 14
-18 30 -18 35 0 15 -36 32 -50 23 -10 -6 -2 -35 39 -131 48 -113 79 -212 117
-379 17 -72 37 -297 36 -405 0 -143 -16 -321 -32 -360 -4 -11 -13 -40 -20 -65
-33 -126 -88 -280 -100 -280 -5 0 -15 10 -21 22 -17 34 -118 158 -162 201 -22
21 -53 45 -70 54 -17 8 -37 22 -45 29 -7 8 -18 14 -24 14 -5 0 -24 6 -41 14
-68 29 -159 46 -251 46 -107 0 -126 -5 -126 -30 0 -28 47 -39 160 -38 116 1
166 -10 249 -55 65 -35 82 -49 139 -107 94 -97 141 -193 149 -306 l6 -74 -27
0 c-15 0 -58 7 -96 16 -111 25 -458 3 -631 -40 -120 -29 -372 -139 -420 -182
-8 -8 -21 -14 -27 -14 -7 0 -12 -4 -12 -8 0 -4 -14 -16 -32 -26 -17 -11 -50
-36 -72 -57 -22 -22 -44 -39 -47 -39 -3 0 -14 -16 -24 -34 -18 -34 -18 -36 -1
-55 l19 -20 28 20 c15 11 38 38 50 59 13 22 31 42 41 46 10 3 24 11 30 17 42
40 237 140 357 183 52 19 147 48 210 65 111 30 125 31 316 32 162 0 207 -2
230 -15 72 -37 206 -98 216 -98 17 0 73 -47 166 -139 49 -48 109 -101 135
-119 95 -65 370 -182 428 -182 10 0 21 -4 24 -9 3 -5 32 -12 63 -16 32 -4 84
-15 115 -26 32 -10 90 -24 130 -29 98 -14 270 -66 363 -110 22 -10 57 -26 78
-34 21 -8 65 -41 97 -72 59 -56 60 -58 60 -111 0 -53 -20 -110 -82 -238 -47
-98 -54 -147 -21 -159 19 -8 43 11 43 31 0 9 8 32 18 52 10 20 45 89 77 155
l60 118 50 -5 c27 -4 91 -9 140 -13 50 -4 92 -10 95 -14 3 -3 61 -14 130 -23
173 -22 379 -55 415 -66 17 -5 53 -12 80 -16 87 -11 147 -32 203 -73 29 -21
32 -28 32 -77 0 -51 -1 -54 -30 -60 -32 -7 -131 -77 -165 -117 -11 -12 -31
-41 -45 -63 -13 -22 -41 -61 -62 -86 -35 -43 -139 -228 -184 -329 -46 -101
-52 -118 -64 -175 -6 -33 -18 -87 -26 -121 -17 -73 -19 -404 -4 -539 13 -111
43 -201 94 -284 12 -20 28 -55 35 -78 17 -51 10 -62 -57 -93 -43 -21 -56 -22
-157 -16 -135 8 -156 10 -225 25 -62 13 -182 47 -220 62 -76 32 -176 59 -257
69 -109 15 -125 27 -147 115 -16 65 -35 226 -43 370 -6 110 23 412 52 543 4
19 8 43 10 55 2 12 10 51 18 87 41 176 68 265 105 345 31 68 38 93 31 107 -18
34 -39 20 -75 -52 -47 -94 -93 -239 -129 -405 -19 -88 -39 -173 -44 -190 -5
-16 -14 -77 -21 -135 -6 -58 -16 -127 -21 -155 -19 -91 11 -509 40 -564 15
-27 14 -63 -2 -85 -12 -16 -18 -16 -112 -2 -55 9 -127 25 -160 36 -123 40
-195 60 -214 60 -11 0 -57 13 -103 29 -97 33 -236 76 -293 90 -22 6 -107 29
-190 51 -82 22 -161 42 -175 44 -14 3 -90 18 -170 36 -80 17 -170 35 -200 39
-30 5 -102 17 -160 26 -58 9 -150 25 -205 36 -55 11 -134 27 -175 34 -41 7
-124 23 -185 35 -60 11 -119 22 -130 24 -11 1 -38 7 -60 13 -59 16 -303 68
-415 89 -59 11 -359 93 -397 109 -19 8 -44 15 -54 15 -40 0 -344 176 -433 251
-6 5 -35 27 -65 49 -61 44 -60 44 -158 136 -40 37 -73 72 -73 77 0 12 -47 57
-60 57 -5 0 -11 9 -15 19 -10 32 -43 36 -77 11 l-30 -22 -44 43 c-78 76 -112
168 -140 370 -8 63 -18 128 -21 144 -6 36 -6 387 1 430 2 17 9 72 16 123 6 51
17 123 25 160 8 37 21 103 30 147 9 44 20 94 25 111 6 17 10 49 10 72 0 23 9
57 19 75 11 20 16 39 11 47 -4 7 -1 24 6 39 8 14 14 33 14 42 0 9 7 33 15 53
8 20 13 36 10 36 -2 0 0 12 6 28 6 15 14 47 19 72 4 25 20 90 35 145 56 211
77 292 91 353 7 35 20 84 28 110 39 125 57 193 71 262 8 41 24 116 35 165 11
50 22 99 24 110 9 43 46 214 66 305 11 52 32 158 45 235 14 77 34 187 44 245
11 58 40 186 66 285 26 99 56 225 67 280 39 200 70 362 88 472 10 62 21 116
24 121 2 4 10 46 16 92 14 105 33 194 72 330 57 198 166 516 211 611 80 170
107 230 107 240 0 5 4 17 9 27 5 9 16 33 24 52 57 134 152 334 168 355 5 5 25
30 45 55 81 101 164 179 201 189 55 16 136 13 159 -4 28 -22 64 -19 64 4 0 11
-4 23 -10 26 -5 3 -10 14 -10 23 0 17 17 29 120 85 30 16 71 40 90 52 19 12
60 35 90 50 56 28 80 45 147 103 21 17 58 42 83 53 25 12 47 24 50 28 3 4 25
21 50 38 25 17 60 45 79 62 32 29 40 31 106 31 92 0 131 19 215 104 35 36 70
66 76 66 6 0 36 15 66 33 47 28 112 61 358 181 30 14 84 44 120 66 36 22 86
46 111 54 25 8 70 25 100 39 30 13 81 37 114 52 33 15 87 40 120 55 112 51
133 60 147 60 7 0 22 6 33 14 11 7 51 23 89 36 85 28 90 24 99 -84 6 -72 50
-214 81 -262 9 -12 39 -66 67 -121 29 -54 55 -100 59 -103 3 -3 21 -27 40 -55
19 -27 36 -52 39 -55 11 -9 71 -89 71 -93 0 -3 15 -21 33 -40 17 -19 59 -66
92 -103 68 -78 326 -334 337 -334 4 0 40 -27 81 -60 41 -33 78 -60 81 -60 4 0
15 -8 26 -18 32 -30 118 -72 135 -66 16 6 21 54 6 54 -5 0 -44 28 -88 63 -43
35 -94 72 -114 84 -43 25 -83 61 -197 178 -48 49 -115 116 -149 150 -34 33
-78 80 -98 105 -74 92 -91 113 -117 145 -16 18 -28 38 -28 44 0 6 -4 11 -9 11
-14 0 -87 100 -128 175 -34 63 -68 136 -95 205 -6 14 -15 34 -20 44 -16 31
-48 174 -48 216 0 61 21 100 100 190 141 160 142 161 174 158 26 -3 35 -11 58
-56z m2959 -595 c-9 -45 -10 -75 -3 -103 6 -21 13 -66 17 -99 8 -64 25 -124
58 -193 18 -38 18 -48 7 -85 -11 -39 -31 -73 -70 -121 -22 -28 -74 -76 -81
-76 -9 0 -138 128 -181 180 -20 25 -42 50 -49 57 -8 8 -4 22 20 56 17 25 31
49 31 53 0 4 7 15 14 23 8 9 49 83 91 165 83 163 131 234 148 217 8 -8 7 -30
-2 -74z m-2031 -23 c132 -127 232 -215 268 -236 17 -11 32 -24 32 -28 0 -5 10
-12 23 -16 12 -4 38 -21 57 -38 20 -18 63 -50 95 -71 33 -22 62 -42 65 -46 3
-3 23 -15 45 -27 22 -11 67 -36 99 -56 33 -20 70 -36 82 -36 13 0 25 -4 28 -9
4 -5 29 -12 57 -16 31 -4 48 -11 46 -19 -5 -15 -95 -14 -132 2 -16 8 -48 22
-70 32 -100 44 -145 68 -215 115 -41 27 -76 53 -78 57 -2 5 -8 8 -14 8 -5 0
-35 23 -67 50 -32 28 -62 50 -67 50 -18 1 -364 352 -364 371 0 16 18 2 110
-87z m4484 -181 c-22 -40 -63 -92 -101 -127 -35 -32 -63 -64 -63 -71 0 -17 72
-45 113 -45 72 0 123 29 241 136 64 57 118 104 121 104 3 0 5 -11 5 -25 0 -30
44 -134 90 -215 17 -29 122 -153 155 -182 21 -18 133 -104 151 -115 126 -80
196 -134 277 -211 l39 -37 -7 -100 c-10 -149 -54 -238 -139 -280 -56 -29 -56
-29 -56 144 0 122 -3 161 -14 170 -21 18 -47 -30 -46 -87 1 -38 -9 -183 -30
-452 -1 -8 -5 -24 -10 -35 -5 -11 -28 -81 -51 -155 -23 -74 -45 -142 -49 -150
-25 -54 -48 -93 -89 -153 -25 -37 -50 -76 -56 -85 -69 -121 -345 -398 -449
-452 -17 -8 -71 -43 -121 -76 -126 -85 -209 -128 -317 -165 -81 -29 -105 -33
-193 -32 -86 0 -112 4 -186 31 -84 30 -229 97 -239 111 -4 7 -132 86 -244 153
-35 21 -157 134 -181 168 -36 50 -116 173 -141 215 -27 46 -40 75 -99 210 -12
28 -30 86 -40 130 -9 44 -22 91 -27 104 -39 102 -65 524 -49 795 6 94 15 216
20 271 6 55 13 159 17 230 5 112 10 136 31 172 25 45 66 73 107 73 14 0 55 7
91 15 64 15 68 15 83 -3 33 -37 101 -71 198 -99 128 -36 260 -37 377 -4 l78
22 31 -26 c52 -44 106 -66 179 -72 68 -6 124 7 224 52 17 7 55 23 85 35 71 28
133 63 196 114 103 83 108 86 117 77 6 -6 -5 -36 -29 -78z m-2705 -382 c38
-38 77 -72 87 -75 11 -3 25 -15 32 -27 11 -18 11 -24 -4 -40 -25 -28 -129 -81
-215 -111 -115 -40 -173 -58 -181 -58 -17 0 -6 40 28 106 20 38 46 87 57 109
12 22 24 42 27 45 4 3 23 31 44 63 21 31 42 57 47 57 5 0 40 -31 78 -69z
m-222 -28 c-19 -32 -49 -85 -67 -118 -60 -116 -89 -160 -104 -163 -8 -2 -40
18 -71 43 -50 40 -88 67 -156 110 -9 5 -42 29 -73 53 -30 23 -67 47 -81 52
-48 18 -26 30 58 31 130 1 487 46 504 63 4 3 11 2 16 -3 6 -6 -4 -31 -26 -68z
m-571 -85 c16 -12 31 -25 34 -29 3 -3 24 -19 46 -35 23 -16 76 -55 117 -86 42
-32 80 -58 85 -58 15 0 23 -30 9 -35 -35 -13 -195 -28 -292 -28 -131 1 -185 9
-185 30 0 8 24 61 54 118 87 165 83 161 132 123z m4352 -1049 c24 -17 50 -45
58 -61 21 -40 44 -117 44 -148 1 -25 51 -90 70 -90 5 0 10 -4 10 -8 0 -4 26
-23 58 -42 69 -42 71 -44 133 -99 27 -24 49 -48 49 -53 0 -5 11 -24 24 -41 51
-67 44 -157 -26 -357 -22 -63 -51 -149 -65 -190 -26 -82 -89 -244 -104 -273
-5 -9 -19 -43 -31 -75 -31 -84 -150 -318 -197 -387 -22 -33 -68 -98 -101 -145
-33 -47 -68 -97 -78 -112 -9 -16 -22 -28 -28 -28 -6 0 -62 49 -125 110 -63 60
-117 110 -120 110 -4 0 -49 28 -101 63 -116 77 -121 79 -238 138 -110 55 -282
117 -354 127 -27 4 -51 12 -53 18 -2 6 16 19 39 30 68 30 136 81 246 183 56
53 108 98 115 100 31 10 361 327 422 406 13 17 35 53 50 80 14 28 37 68 51 90
13 22 27 47 31 55 3 8 11 21 17 29 6 7 16 27 22 45 6 17 26 69 45 116 28 75
33 101 40 220 6 120 11 165 24 208 7 20 28 14 73 -19z m-177 -272 c-4 -50 -60
-226 -86 -267 -11 -19 -33 -58 -48 -87 -57 -111 -124 -200 -232 -306 -143
-142 -290 -279 -313 -291 -9 -5 -33 -22 -52 -38 -63 -52 -76 -63 -104 -83 -16
-11 -52 -38 -82 -61 -61 -47 -184 -111 -230 -120 -31 -6 -31 -5 -36 38 -7 57
-28 102 -51 106 -11 2 -45 -10 -77 -27 -89 -47 -98 -44 -149 47 -24 42 -63
102 -87 134 -39 50 -53 78 -39 78 2 0 22 -7 42 -15 157 -60 330 -75 438 -37
173 60 239 90 279 125 11 9 23 17 27 17 16 0 151 97 213 153 11 9 25 17 30 17
24 1 235 195 264 243 9 15 20 27 24 27 4 0 33 35 65 78 32 42 60 79 63 82 14
12 109 162 115 180 6 19 27 25 26 7z m-2136 -498 c44 -44 100 -92 125 -107 24
-15 52 -33 61 -42 16 -15 44 -37 103 -83 47 -37 195 -191 202 -209 3 -10 9
-18 14 -18 22 0 134 -185 143 -237 9 -45 -17 -44 -38 0 -29 61 -77 106 -145
133 -62 25 -76 27 -330 34 -250 7 -270 9 -352 34 -49 15 -90 31 -93 35 -2 5
15 23 38 42 96 76 140 126 172 190 43 89 46 103 30 157 -18 64 -29 152 -18
152 5 0 44 -36 88 -81z m-8305 -599 c25 -5 74 -18 110 -29 36 -12 91 -21 123
-21 90 0 99 -9 91 -83 -4 -36 -13 -69 -23 -79 -35 -37 -199 -31 -321 13 -119
42 -130 51 -130 116 0 60 48 111 90 97 8 -3 35 -9 60 -14z m-55 -256 c83 -35
100 -38 215 -43 l125 -6 -2 -40 c-1 -22 -7 -58 -12 -80 -6 -22 -17 -87 -26
-145 -9 -58 -25 -134 -34 -170 l-18 -65 -139 2 c-195 2 -275 18 -394 77 -89
45 -107 60 -126 105 -30 73 -14 121 78 236 78 97 91 110 138 144 55 38 72 37
195 -15z m-480 -426 c45 -47 139 -118 155 -118 6 0 24 -7 40 -15 39 -20 200
-42 373 -51 153 -8 144 -1 123 -89 l-11 -50 -75 3 c-41 2 -88 -2 -105 -8 -23
-9 -44 -8 -95 4 -36 9 -110 25 -165 37 -115 26 -260 100 -288 149 -22 37 -23
123 -1 144 20 21 23 20 49 -6z m6850 -512 c119 -30 311 -114 540 -237 39 -21
108 -57 155 -80 47 -23 87 -45 90 -49 3 -4 25 -17 50 -31 25 -13 50 -29 57
-35 6 -6 25 -17 42 -24 17 -7 31 -16 31 -21 0 -5 5 -9 11 -9 6 0 39 -22 73
-48 33 -27 76 -57 94 -68 17 -10 32 -22 32 -26 0 -4 4 -8 9 -8 11 0 88 -50
132 -84 15 -12 40 -31 55 -43 105 -80 186 -148 212 -177 16 -19 43 -41 59 -49
26 -14 60 -49 194 -200 59 -67 122 -157 115 -165 -9 -8 -186 67 -186 79 0 5
-27 24 -59 43 -33 19 -105 66 -161 105 -55 39 -105 71 -110 71 -6 0 -10 3 -10
8 0 4 -21 19 -47 32 -80 41 -382 244 -455 305 -9 7 -43 28 -75 46 -32 17 -69
41 -83 54 -14 12 -41 31 -60 43 -19 11 -45 31 -57 44 -38 40 -231 183 -420
310 -332 224 -362 246 -313 235 14 -3 52 -12 85 -21z m-175 -17 c19 -12 67
-48 107 -80 39 -33 76 -59 82 -59 5 0 14 -6 18 -13 14 -22 145 -113 223 -156
100 -54 284 -184 406 -287 23 -19 66 -50 95 -68 43 -26 146 -99 204 -144 81
-63 219 -154 284 -187 27 -13 79 -47 116 -75 36 -27 68 -50 71 -50 3 0 10 -5
17 -10 41 -35 152 -112 207 -145 36 -21 77 -46 92 -57 15 -10 31 -18 35 -18 4
0 16 -12 26 -25 17 -24 17 -31 2 -146 -8 -66 -20 -139 -25 -162 -6 -23 -17
-89 -26 -147 -8 -58 -17 -117 -19 -131 -2 -14 -13 -82 -24 -150 -31 -191 -71
-400 -111 -584 -6 -27 -17 -90 -25 -140 -8 -49 -21 -121 -30 -159 -9 -37 -19
-93 -24 -125 -5 -31 -19 -103 -31 -161 -12 -58 -28 -134 -35 -169 -7 -35 -19
-68 -27 -73 -32 -21 -357 47 -658 139 -63 19 -137 42 -165 50 -27 8 -70 19
-95 23 -25 5 -76 18 -115 30 -38 11 -99 25 -135 31 -73 13 -290 7 -360 -10
-85 -20 -225 -50 -262 -57 -21 -3 -38 -10 -38 -15 0 -5 -19 -9 -42 -9 -51 0
-122 39 -143 80 -21 40 -111 127 -153 147 l-34 16 7 66 c4 36 13 100 21 141 8
41 14 89 14 105 0 17 11 71 24 120 13 50 32 140 41 200 9 61 25 164 35 230 17
113 27 172 51 290 5 28 16 97 25 155 8 58 21 130 30 160 8 30 19 93 25 140 5
47 16 112 24 145 8 33 19 98 25 145 7 46 14 88 16 91 7 12 43 214 65 364 11
77 22 149 24 160 2 11 11 74 19 140 9 66 20 149 25 185 6 36 15 109 21 164 6
54 13 103 16 107 9 15 48 10 84 -12z m4504 -689 c14 -5 85 -10 158 -11 72 0
137 -3 145 -6 16 -6 17 -44 1 -66 -11 -14 -51 -17 -308 -23 -162 -3 -322 -10
-355 -15 -33 -5 -130 -16 -215 -24 -85 -7 -182 -19 -215 -25 -33 -6 -100 -17
-150 -26 -96 -16 -102 -17 -125 -27 -8 -4 -40 -11 -70 -16 -133 -23 -371 -93
-500 -147 -122 -51 -235 -111 -360 -192 -36 -23 -70 -42 -76 -42 -6 0 -17 -7
-24 -15 -14 -16 -30 -20 -30 -6 0 13 207 218 257 253 104 75 101 74 343 165
131 50 214 74 288 84 42 6 80 13 83 15 8 4 148 34 189 39 14 2 63 11 110 20
131 24 249 36 540 52 63 3 124 9 135 14 29 11 149 11 179 -1z m504 -176 c26
-11 33 -19 30 -36 l-3 -23 -280 -1 c-158 0 -287 -4 -295 -10 -8 -5 -60 -9
-115 -10 -55 0 -140 -6 -190 -12 -131 -17 -292 -32 -361 -33 -62 -1 -207 -24
-225 -35 -6 -3 -34 -9 -62 -14 -103 -16 -488 -123 -627 -175 -19 -7 -71 -27
-115 -43 -44 -17 -103 -37 -132 -47 -29 -9 -67 -26 -85 -38 -18 -12 -53 -33
-78 -46 -25 -14 -48 -29 -51 -34 -4 -5 -10 -4 -14 4 -11 17 64 80 135 115 30
15 84 47 119 71 35 24 70 43 78 43 8 0 27 6 41 14 102 54 476 179 582 195 41
7 91 16 110 20 73 19 138 32 225 45 50 8 119 19 155 25 58 10 137 18 355 39
39 4 228 5 420 4 269 -3 358 -7 383 -18z m16 -134 c74 -12 94 -29 78 -64 l-11
-25 -318 -5 c-338 -4 -627 -18 -783 -36 -111 -13 -146 -17 -300 -31 -63 -5
-142 -16 -175 -24 -59 -14 -154 -33 -310 -61 -44 -8 -100 -21 -125 -29 -25 -7
-72 -19 -105 -25 -33 -6 -78 -15 -100 -21 -22 -6 -63 -12 -92 -14 -32 -2 -69
-12 -97 -28 -46 -26 -106 -44 -106 -32 0 12 155 77 187 78 18 1 33 5 33 9 0 4
19 12 43 18 23 6 51 15 62 20 76 35 396 123 535 147 47 8 101 19 120 24 37 11
136 27 330 54 63 9 137 21 163 27 109 24 851 38 971 18z m67 -160 c88 0 103
-12 94 -74 l-8 -49 -96 7 c-135 8 -479 6 -791 -5 -416 -14 -876 -39 -933 -50
-96 -18 -242 -41 -267 -41 -14 -1 -65 -7 -115 -14 -80 -12 -176 -18 -150 -9
115 39 261 80 309 86 60 7 162 28 241 49 108 29 458 68 618 69 64 1 107 5 107
11 0 6 62 10 163 11 89 1 227 5 307 9 80 4 215 6 300 4 85 -2 185 -4 221 -4z
m88 -189 c63 -6 117 -14 120 -17 11 -11 -28 -236 -104 -604 -26 -124 -53 -268
-61 -320 -15 -98 -25 -147 -93 -430 -22 -91 -45 -192 -51 -225 -6 -33 -15 -71
-21 -85 -10 -27 -52 -226 -74 -355 -8 -44 -26 -123 -40 -175 -15 -52 -29 -107
-32 -123 -4 -18 -13 -29 -31 -34 -35 -8 -277 3 -299 15 -10 5 -76 15 -148 22
-71 7 -140 16 -153 21 -40 15 -331 11 -386 -6 -27 -8 -61 -15 -76 -15 -20 0
-39 -13 -70 -46 l-42 -46 -77 7 c-77 7 -120 -2 -144 -28 -24 -26 -37 -57 -37
-89 0 -24 -9 -41 -41 -70 -44 -41 -44 -46 -23 -133 6 -24 47 -89 74 -115 3 -3
19 -23 35 -45 26 -35 30 -49 32 -114 1 -41 6 -77 11 -80 6 -3 24 -32 41 -63
32 -59 40 -71 97 -133 19 -20 34 -41 34 -45 0 -5 4 -10 8 -12 18 -7 141 -151
136 -159 -7 -12 -69 -11 -113 1 -20 6 -155 17 -301 25 -433 23 -667 40 -730
51 -19 4 -48 8 -65 9 -128 11 -301 46 -336 68 -13 8 -34 8 -83 -2 -37 -7 -78
-10 -93 -6 -31 9 -45 3 137 53 73 20 276 105 295 123 5 5 15 9 22 9 7 0 50 17
95 38 46 21 101 47 124 56 44 19 155 117 173 153 15 30 14 54 -5 94 -44 90
-92 105 -301 95 -79 -3 -143 -3 -143 1 0 5 29 18 64 30 65 23 161 82 182 111
10 15 24 68 25 97 2 72 -41 147 -102 176 -46 22 -205 60 -249 59 -30 0 -38 5
-54 34 -17 32 -17 38 -1 122 41 222 46 251 50 279 2 17 13 86 25 155 11 69 27
175 35 235 8 61 18 123 21 138 7 34 10 52 23 142 6 39 15 93 21 120 13 62 33
167 65 355 14 80 32 170 39 200 15 57 31 136 50 250 15 83 36 97 173 111 54 5
111 14 127 19 16 6 92 15 170 21 77 5 157 14 176 20 59 15 247 31 420 35 91 2
246 8 345 13 99 5 266 10 370 11 105 1 199 5 210 10 27 12 412 6 554 -9z
m-3004 -125 c91 -24 221 -40 330 -41 l60 0 -3 -55 c-2 -30 -8 -73 -14 -95 -6
-22 -12 -49 -13 -60 -15 -104 -37 -233 -42 -245 -4 -8 -15 -62 -25 -120 -10
-58 -23 -130 -28 -160 -5 -30 -17 -100 -25 -155 -33 -220 -43 -283 -58 -350
-8 -38 -20 -106 -26 -150 -6 -44 -13 -91 -15 -105 -2 -14 -9 -64 -14 -112 -6
-48 -16 -97 -23 -110 -7 -13 -11 -24 -10 -26 3 -3 -2 -27 -35 -180 -36 -160
-30 -157 -213 -148 -80 3 -175 11 -211 17 -36 7 -77 12 -93 12 -37 0 -43 27
-24 114 22 102 46 226 67 343 10 58 23 125 29 150 13 53 37 175 62 315 33 185
57 310 68 355 6 25 18 83 26 130 8 47 19 108 25 135 6 28 15 82 21 120 6 39
13 79 15 90 2 11 13 72 24 135 10 63 22 129 25 145 3 17 8 40 11 53 5 27 0 27
109 -2z m3058 -936 c9 -25 21 -65 27 -89 7 -25 22 -65 35 -90 116 -232 133
-255 183 -247 23 3 32 1 32 -9 0 -8 -4 -16 -9 -19 -16 -10 -88 -121 -121 -186
-38 -74 -80 -200 -80 -236 0 -24 -10 -39 -81 -126 l-27 -32 -63 58 c-35 32
-78 65 -95 72 -39 16 -47 38 -39 101 13 88 62 307 116 519 16 61 29 125 29
142 0 17 4 33 9 36 4 3 14 40 21 83 6 43 14 82 17 86 8 14 28 -14 46 -63z
m-4808 -910 c90 -15 260 -57 465 -114 80 -23 244 -68 295 -82 28 -7 82 -22
120 -33 224 -63 373 -84 715 -100 430 -22 567 -56 614 -155 15 -31 15 -39 3
-69 -19 -45 -65 -81 -123 -96 -27 -7 -89 -26 -139 -42 -283 -91 -723 -117
-959 -57 -21 5 -73 16 -115 24 -42 8 -83 16 -91 18 -8 2 -33 7 -55 11 -22 4
-53 13 -68 20 -39 16 -87 8 -87 -16 0 -23 34 -37 160 -68 52 -12 111 -26 130
-31 19 -5 80 -16 135 -25 179 -30 309 -54 360 -68 95 -27 228 -30 367 -8 71
11 132 22 137 25 17 11 254 39 359 43 l103 4 35 -36 c59 -63 47 -95 -63 -164
-52 -33 -267 -131 -285 -131 -6 0 -49 -18 -96 -40 -47 -23 -133 -52 -191 -66
-59 -14 -133 -34 -166 -45 -101 -32 -375 -23 -725 26 -243 33 -302 38 -311 24
-5 -9 -1 -21 12 -35 16 -17 40 -23 137 -33 64 -6 182 -19 262 -27 80 -9 181
-19 225 -24 44 -5 126 -9 181 -9 117 -1 130 -9 121 -68 -13 -78 -127 -160
-253 -182 -32 -5 -72 -13 -89 -16 -16 -3 -113 -8 -215 -11 -292 -9 -484 -33
-516 -66 -14 -13 -14 -17 2 -32 11 -12 26 -16 43 -12 14 3 49 11 76 17 45 10
380 28 605 32 83 2 85 1 88 -23 14 -93 -85 -199 -200 -216 -23 -3 -57 -10 -75
-15 -99 -31 -215 -42 -418 -41 -287 0 -638 19 -705 37 -30 8 -80 19 -110 25
-30 5 -95 21 -145 35 -49 14 -115 32 -146 39 -31 7 -60 16 -66 19 -11 7 -290
71 -398 91 -11 2 -64 13 -118 25 -70 15 -104 18 -117 11 -16 -9 -24 -3 -48 32
-44 65 -63 160 -69 345 -6 156 7 337 27 408 5 17 19 72 31 124 26 112 42 154
93 246 91 164 132 231 156 255 14 14 33 37 43 53 30 47 92 84 162 97 36 7 68
16 71 21 3 5 13 9 24 9 10 0 62 18 116 39 55 22 146 56 204 75 103 35 107 35
270 35 91 0 188 -4 215 -9z m4646 -97 c23 -21 44 -45 48 -55 11 -31 153 -168
180 -174 44 -9 119 -46 140 -68 30 -33 112 -174 134 -230 11 -28 28 -89 38
-135 10 -46 27 -120 38 -165 10 -45 24 -108 30 -142 14 -75 14 -309 1 -366 -5
-24 -15 -81 -22 -128 -12 -77 -15 -85 -38 -91 -61 -17 -237 -75 -260 -86 -14
-7 -31 -13 -38 -13 -7 0 -31 -9 -55 -20 -110 -51 -275 -83 -422 -82 -114 0
-435 31 -505 48 -80 19 -233 72 -240 83 -3 4 -32 26 -65 49 -94 64 -357 328
-445 447 -71 96 -109 192 -82 209 10 6 82 -41 82 -54 0 -5 11 -15 24 -22 13
-7 73 -51 133 -99 59 -47 144 -109 188 -139 44 -29 96 -66 115 -81 92 -72 204
-118 335 -138 124 -19 166 -18 179 2 15 25 -2 33 -83 42 -85 9 -211 40 -270
67 -25 12 -71 41 -103 65 -31 23 -60 43 -64 43 -10 0 -158 111 -162 122 -2 4
-9 8 -16 8 -6 0 -19 8 -27 18 -21 23 -64 59 -77 63 -6 2 -41 30 -79 61 -37 31
-104 85 -147 120 -44 35 -102 89 -130 121 -44 51 -50 63 -50 105 -1 45 0 47
28 50 23 3 39 -6 85 -50 98 -95 151 -134 250 -187 14 -8 55 -31 90 -52 36 -22
74 -39 85 -39 12 0 55 -19 96 -42 156 -85 220 -111 430 -172 189 -56 245 -59
217 -15 -12 19 -126 61 -243 90 -27 6 -53 15 -59 19 -5 4 -23 10 -40 14 -80
20 -520 230 -604 289 -96 68 -221 179 -240 215 -24 45 -5 84 41 84 67 1 142
-23 208 -66 105 -68 131 -79 321 -141 96 -31 192 -63 214 -70 22 -7 81 -23
130 -35 50 -11 117 -28 150 -37 140 -36 280 -43 280 -13 0 9 -19 18 -55 26
-148 31 -492 120 -542 139 -20 8 -74 23 -120 35 -128 32 -277 97 -337 147 -40
34 -37 60 9 93 27 19 169 45 225 42 232 -16 304 -23 328 -32 16 -5 33 -7 38
-4 5 2 26 0 46 -5 21 -6 106 -15 188 -21 83 -7 160 -16 171 -22 43 -20 322 20
393 57 19 9 31 23 31 35 0 18 -5 19 -47 13 -27 -3 -53 -10 -60 -15 -8 -6 -24
-6 -45 0 -18 6 -45 13 -59 16 -25 5 -54 49 -44 65 2 5 6 24 9 44 4 32 19 116
32 175 3 18 11 22 39 22 26 0 45 -9 76 -37z"/>
<path d="M13590 12594 c-14 -3 -59 -13 -100 -23 -41 -11 -99 -22 -128 -25 -30
-4 -61 -11 -70 -15 -10 -5 -38 -19 -64 -32 -51 -25 -72 -55 -56 -82 10 -18 43
-23 52 -8 9 14 193 92 255 108 77 20 106 23 269 29 78 3 142 9 142 14 0 24
-37 33 -153 36 -67 1 -133 0 -147 -2z"/>
<path d="M11825 12470 c-138 -23 -178 -35 -261 -77 -55 -28 -66 -40 -62 -70 4
-32 28 -41 52 -18 73 74 368 124 556 95 41 -6 93 -13 115 -17 22 -3 44 -9 50
-14 26 -25 85 -1 67 28 -11 16 -76 41 -129 49 -26 3 -52 10 -58 14 -15 12
-273 20 -330 10z"/>
<path d="M13093 12321 c-32 -42 -73 -151 -80 -208 -3 -29 -10 -53 -14 -53 -12
0 -11 -248 1 -307 5 -26 15 -81 21 -121 11 -74 29 -105 58 -100 12 3 15 13 12
43 -1 22 -7 47 -12 56 -9 19 -28 168 -29 239 -2 117 42 349 79 418 27 50 -4
77 -36 33z"/>
<path d="M13645 12192 c-64 -38 -125 -54 -210 -54 -92 0 -143 13 -170 42 -25
28 -35 25 -73 -15 -36 -41 -42 -75 -13 -75 11 0 23 5 26 10 14 22 135 5 135
-20 0 -6 13 -24 29 -40 25 -27 34 -30 87 -30 58 1 60 2 91 43 24 31 48 49 90
66 96 40 137 91 71 91 -18 0 -46 -8 -63 -18z"/>
<path d="M12190 12123 c-8 -3 -34 -19 -56 -34 -57 -39 -137 -69 -183 -69 -21
0 -64 9 -97 21 -74 26 -219 33 -219 9 0 -10 21 -17 75 -25 82 -11 122 -33 142
-77 7 -16 18 -28 24 -28 6 0 18 -7 25 -16 10 -12 25 -15 57 -11 36 4 54 14 96
54 28 28 67 61 86 74 19 13 41 29 48 36 7 7 33 13 57 13 49 0 60 9 42 34 -13
18 -72 29 -97 19z"/>
<path d="M12477 11282 c-9 -9 -24 -37 -35 -62 -20 -49 -17 -91 12 -135 23 -35
54 -45 142 -45 79 0 110 -10 174 -60 64 -49 168 -64 251 -35 25 9 74 44 118
84 42 37 100 81 129 96 43 22 54 34 63 66 13 40 1 89 -20 89 -10 0 -14 -10
-25 -62 -4 -19 -19 -34 -45 -48 -21 -10 -45 -25 -53 -32 -22 -21 -108 -78
-117 -78 -5 0 -14 -7 -21 -15 -7 -8 -36 -22 -66 -32 -47 -15 -61 -15 -107 -4
-28 8 -77 26 -107 41 -78 40 -118 50 -188 49 -37 -1 -68 3 -77 11 -19 16 -19
80 0 127 8 19 15 39 15 43 0 17 -29 18 -43 2z"/>
<path d="M13494 10885 c-4 -8 -3 -26 0 -39 5 -19 -2 -32 -26 -58 -60 -62 -102
-86 -198 -114 -52 -15 -113 -35 -135 -44 -22 -10 -78 -22 -125 -28 -299 -39
-301 -39 -495 -8 -137 22 -182 38 -335 124 -85 48 -85 48 -82 85 3 28 0 37
-12 37 -29 0 -106 -117 -106 -161 0 -5 11 -9 25 -9 17 0 29 8 37 25 6 14 16
25 23 25 16 0 111 -50 165 -86 53 -36 139 -71 195 -78 219 -31 554 -26 691 10
33 8 118 34 189 57 113 36 136 48 178 87 38 35 54 44 78 42 26 -3 29 0 29 24
0 41 -55 124 -82 124 -5 0 -11 -7 -14 -15z"/>
<path d="M12570 10358 c1 -36 20 -52 93 -81 85 -34 143 -34 245 -2 81 26 119
53 109 80 -9 22 -38 19 -94 -11 -85 -43 -203 -38 -285 13 -48 29 -68 30 -68 1z"/>
<path d="M16927 11724 c-4 -4 -7 -22 -7 -39 0 -47 -23 -96 -75 -159 -25 -31
-45 -58 -45 -61 0 -13 -40 -46 -105 -85 -83 -50 -105 -68 -105 -87 0 -36 114
0 199 64 72 55 83 44 56 -56 -27 -103 -130 -232 -241 -303 -38 -24 -44 -31
-34 -43 19 -23 42 -18 96 17 92 61 121 88 168 158 41 62 76 163 76 221 0 33
-4 41 -25 49 l-25 10 35 45 c37 49 56 85 79 151 12 35 12 48 1 80 -12 37 -33
53 -48 38z"/>
<path d="M17234 9879 c-3 -6 22 -38 59 -72 86 -83 127 -165 146 -297 6 -47 35
-68 47 -36 6 15 -6 130 -20 186 -11 45 -48 130 -57 130 -5 0 -14 11 -20 24
-11 24 -100 76 -131 76 -9 0 -20 -5 -24 -11z"/>
<path d="M17485 9869 c-3 -4 -1 -16 4 -26 21 -36 41 -115 41 -157 0 -79 38
-139 57 -90 10 28 -15 190 -36 232 -19 38 -55 60 -66 41z"/>
<path d="M17087 9806 c-3 -7 8 -27 25 -42 39 -37 160 -219 175 -264 6 -19 14
-59 18 -87 6 -48 9 -53 32 -53 26 0 26 0 21 73 -4 52 -14 91 -38 142 -17 39
-41 90 -52 115 -34 77 -164 161 -181 116z"/>
<path d="M13825 9015 c-22 -14 -60 -32 -85 -41 -25 -9 -69 -27 -99 -41 -30
-13 -82 -31 -115 -39 -72 -18 -215 -54 -344 -88 -51 -14 -130 -30 -175 -36
-45 -7 -98 -17 -117 -23 -19 -5 -136 -13 -260 -16 -200 -5 -225 -8 -228 -23
-6 -30 35 -40 167 -39 148 1 397 19 461 32 25 6 79 17 120 24 41 8 89 20 105
26 17 6 64 19 105 30 143 37 395 121 468 155 70 34 73 36 70 67 -4 41 -22 43
-73 12z"/>
<path d="M11783 8874 c-10 -26 32 -51 142 -85 147 -45 154 -47 223 -54 51 -5
63 -3 68 10 10 25 -23 52 -72 59 -63 8 -247 54 -289 72 -45 18 -64 18 -72 -2z"/>
<path d="M10898 2654 c-15 -15 -7 -34 20 -47 15 -8 81 -20 147 -27 66 -6 129
-16 140 -20 11 -5 60 -11 108 -14 89 -5 105 -9 231 -52 74 -26 90 -24 80 9 -9
29 -18 34 -73 42 -25 3 -102 18 -171 32 -69 14 -150 30 -180 35 -30 5 -84 16
-120 24 -89 19 -173 28 -182 18z"/>
<path d="M10790 2394 c0 -12 6 -26 13 -31 6 -4 64 -11 127 -14 165 -10 316
-27 385 -46 109 -28 105 -28 105 0 0 19 -7 26 -27 31 -67 16 -280 48 -413 61
-80 8 -155 16 -167 18 -18 3 -23 0 -23 -19z"/>
<path d="M11081 2066 c-10 -12 -8 -19 7 -34 16 -16 40 -20 153 -26 73 -4 141
-12 150 -17 10 -5 34 -9 53 -9 32 0 36 3 36 25 0 14 -3 26 -7 26 -5 1 -17 3
-28 5 -11 2 -67 9 -125 14 -58 6 -119 15 -136 21 -44 13 -90 11 -103 -5z"/>
<path d="M10725 1860 c-20 -32 39 -49 315 -90 69 -11 159 -26 200 -34 108 -22
120 -21 120 8 0 22 -6 25 -47 31 -27 3 -68 10 -93 16 -25 5 -85 16 -135 23
-49 8 -126 21 -170 29 -139 26 -182 30 -190 17z"/>
<path d="M10706 1614 c-41 -40 -9 -53 165 -65 85 -5 181 -14 214 -19 116 -18
173 -28 194 -35 15 -4 23 -1 28 11 9 25 -18 40 -84 48 -32 3 -92 11 -133 17
-88 12 -102 14 -240 31 -58 8 -110 17 -117 21 -6 4 -19 0 -27 -9z"/>
<path d="M10710 1327 c0 -19 8 -26 41 -36 22 -7 66 -11 97 -11 79 3 303 -19
324 -30 10 -6 28 -10 40 -10 12 0 48 -5 80 -12 62 -13 84 -5 72 25 -4 11 -17
17 -38 17 -17 0 -47 5 -66 10 -33 10 -118 23 -345 55 -55 8 -124 14 -152 15
-49 0 -53 -2 -53 -23z"/>
<path d="M10685 1040 c-9 -14 22 -49 55 -62 14 -5 102 -18 195 -28 94 -11 208
-26 255 -34 185 -32 170 -31 170 -8 0 35 1 34 -310 77 -58 8 -121 18 -140 24
-19 5 -64 15 -100 21 -36 6 -77 13 -92 16 -14 3 -29 0 -33 -6z"/>
<path d="M10868 813 c-19 -5 -24 -38 -8 -48 12 -7 175 -31 310 -45 52 -6 120
-19 151 -30 31 -11 70 -20 88 -20 26 0 31 4 31 24 0 20 -8 25 -72 40 -92 21
-150 31 -318 56 -75 10 -142 21 -150 23 -8 3 -23 3 -32 0z"/>
<path d="M14905 9678 c-89 -21 -160 -55 -163 -77 -3 -17 2 -21 22 -21 14 0 27
4 30 8 11 18 123 34 215 31 90 -4 96 -3 96 16 0 44 -104 66 -200 43z"/>
<path d="M14686 9262 c-8 -13 32 -52 52 -52 35 0 79 -37 86 -72 4 -23 15 -39
32 -49 40 -21 114 -5 114 25 0 35 98 84 114 57 9 -14 66 -15 66 -1 0 18 -62
80 -80 80 -10 0 -31 -7 -46 -15 -37 -20 -175 -11 -254 16 -60 21 -76 23 -84
11z"/>
<path d="M16277 9209 c-97 -40 -140 -44 -217 -20 -89 28 -131 27 -160 -3 -13
-15 -20 -32 -17 -40 7 -17 57 -22 57 -7 0 16 38 23 60 11 11 -6 20 -20 20 -31
0 -11 13 -34 29 -50 43 -43 84 -40 130 10 20 21 66 52 103 70 71 33 97 61 75
79 -8 6 -34 0 -80 -19z"/>
<path d="M15263 8584 c-15 -39 81 -161 149 -188 56 -23 119 -20 184 9 31 14
74 28 94 31 49 8 90 44 90 78 0 31 -22 34 -49 7 -11 -11 -37 -23 -58 -26 -21
-4 -63 -19 -94 -34 -51 -25 -62 -27 -110 -20 -68 11 -125 52 -157 112 -25 49
-39 58 -49 31z"/>
<path d="M14996 8226 c-8 -20 -22 -39 -31 -42 -15 -6 -21 -35 -9 -47 4 -4 19
1 34 10 25 15 31 14 91 -8 58 -21 78 -23 209 -20 308 6 367 5 435 -8 39 -7
106 -12 151 -11 62 1 83 -2 93 -14 12 -14 41 -23 41 -13 0 2 -11 30 -24 62
-26 64 -41 77 -51 46 -3 -10 -11 -24 -18 -30 -20 -16 -113 -23 -170 -11 -28 5
-73 14 -98 19 -71 15 -214 13 -316 -3 -153 -25 -282 10 -294 78 -7 33 -28 29
-43 -8z"/>
<path d="M15635 7960 c-21 -23 -103 -50 -149 -50 -17 0 -53 7 -80 15 -63 19
-66 19 -66 -4 0 -30 61 -46 172 -46 89 1 99 3 124 25 37 36 46 56 30 69 -10 8
-17 6 -31 -9z"/>
<path d="M11437 14543 c-26 -26 18 -121 92 -198 32 -33 65 -74 74 -90 15 -30
37 -51 93 -91 94 -67 211 -97 379 -98 130 0 137 1 237 33 69 23 89 44 64 70
-14 13 -24 12 -98 -11 -143 -44 -155 -45 -293 -32 -134 13 -193 30 -258 72
-41 27 -38 54 4 31 18 -9 83 -13 239 -13 238 -1 239 -1 328 26 46 15 62 24 62
38 0 31 -27 45 -63 32 -92 -32 -176 -43 -337 -42 -91 0 -187 4 -214 10 -116
24 -213 103 -255 209 -22 56 -37 71 -54 54z"/>
<path d="M13580 6633 c0 -48 -4 -112 -10 -142 -5 -31 -16 -150 -24 -266 -9
-115 -20 -244 -26 -285 -23 -172 -24 -205 -6 -219 27 -23 46 -6 46 42 0 24 4
57 10 73 5 16 16 103 24 194 8 91 17 179 20 195 13 79 26 252 26 356 0 119 -6
139 -42 139 -16 0 -18 -10 -18 -87z"/>
<path d="M15397 6658 c-29 -17 -47 -40 -73 -94 l-36 -71 16 -53 c22 -75 48
-100 103 -100 75 0 123 40 148 123 15 51 14 56 -26 143 -33 72 -72 87 -132 52z
m82 -87 c12 -16 21 -39 21 -51 0 -41 -32 -90 -70 -110 -36 -18 -38 -18 -54 -1
-31 34 -14 113 37 169 27 29 41 28 66 -7z"/>
<path d="M15278 5952 c-23 -28 -45 -74 -68 -146 -10 -33 -10 -46 5 -90 24 -69
55 -91 125 -90 72 2 101 33 123 132 24 107 4 163 -75 203 -52 27 -82 24 -110
-9z m116 -54 c21 -30 21 -118 0 -162 -15 -31 -49 -56 -76 -56 -63 0 -64 151
-2 214 33 32 58 33 78 4z"/>
</g>
</svg>
