<?xml version="1.0" standalone="no"?>
<!DOCTYPE svg PUBLIC "-//W3C//DTD SVG 20010904//EN"
 "http://www.w3.org/TR/2001/REC-SVG-20010904/DTD/svg10.dtd">
<svg version="1.0" xmlns="http://www.w3.org/2000/svg"
 width="500.000000pt" height="500.000000pt" viewBox="0 0 500.000000 500.000000"
 preserveAspectRatio="xMidYMid meet">
<metadata>
Created by potrace 1.16, written by Peter Selinger 2001-2019
</metadata>
<g transform="translate(0.000000,500.000000) scale(0.100000,-0.100000)"
fill="#000000" stroke="none">
<path d="M3380 4863 c-98 -15 -224 -85 -306 -167 -108 -109 -155 -202 -193
-378 -26 -122 -31 -173 -35 -355 -3 -132 -1 -157 15 -193 19 -42 69 -95 99
-105 8 -3 24 -24 35 -47 24 -50 91 -104 167 -134 50 -20 53 -24 55 -60 3 -38
1 -40 -65 -82 -90 -58 -147 -108 -147 -130 0 -22 -110 -54 -138 -40 -33 17
-70 5 -93 -30 -13 -18 -47 -50 -77 -70 -30 -20 -81 -58 -113 -83 -62 -48 -65
-54 -172 -346 -2 -7 2 -13 10 -13 9 0 33 53 67 146 49 134 57 148 100 185 53
45 144 109 149 104 2 -2 -6 -48 -17 -102 -12 -54 -24 -107 -26 -119 -3 -14
-18 -25 -45 -34 -47 -15 -73 -47 -140 -169 -25 -44 -49 -81 -53 -81 -5 0 -34
26 -65 59 -32 32 -68 62 -82 66 -14 4 -33 16 -43 26 -20 22 -49 24 -76 7 -15
-9 -24 -7 -51 12 -25 18 -40 21 -75 17 -39 -6 -46 -3 -79 29 -29 28 -36 42
-36 73 l0 38 70 12 c39 7 92 24 118 37 32 17 56 22 76 18 41 -9 110 14 145 48
30 30 41 58 21 58 -5 0 -10 -4 -10 -10 0 -20 -83 -70 -117 -70 -18 0 -33 2
-33 5 0 15 61 97 94 126 59 51 90 132 70 183 -3 9 -12 16 -20 16 -11 0 -14 23
-14 114 0 159 -39 327 -90 388 -23 27 -27 12 -5 -18 48 -70 91 -290 80 -412
-7 -77 -18 -86 -30 -25 -15 80 -104 320 -129 350 -2 2 -35 -13 -75 -33 -87
-43 -283 -94 -355 -93 l-51 0 37 14 c49 18 186 90 218 114 14 11 22 23 18 27
-4 3 -14 0 -22 -8 -25 -26 -191 -107 -291 -143 -52 -19 -95 -33 -95 -31 0 3
26 29 57 59 68 65 69 85 2 24 -74 -68 -111 -98 -195 -162 -43 -33 -82 -64 -85
-68 -16 -22 -17 15 -3 68 20 79 65 170 119 244 50 68 45 85 -6 20 -47 -59
-115 -197 -129 -262 -12 -50 -16 -57 -37 -57 -15 0 -35 -12 -51 -30 -23 -26
-33 -30 -77 -30 -43 1 -55 5 -88 36 l-38 35 22 37 c13 20 43 65 67 100 48 67
70 120 108 250 25 85 65 176 84 187 11 7 4 25 -10 25 -20 0 -66 -104 -119
-273 -24 -77 -45 -118 -97 -195 -37 -53 -70 -100 -74 -105 -4 -4 -33 5 -65 19
-223 102 -520 55 -670 -108 -94 -101 -145 -235 -145 -380 0 -52 -4 -76 -16
-89 -9 -10 -19 -38 -21 -63 -6 -51 19 -96 66 -120 14 -8 27 -23 28 -34 5 -69
100 -193 158 -208 31 -8 31 -22 0 -104 -13 -36 -37 -112 -52 -170 -24 -90 -28
-124 -28 -240 0 -115 3 -145 23 -201 19 -54 30 -72 63 -94 66 -46 170 -66 377
-72 100 -3 182 -9 182 -13 0 -4 -18 -77 -39 -162 -22 -86 -56 -227 -76 -314
-20 -88 -56 -219 -81 -292 -24 -73 -44 -141 -44 -151 0 -10 9 -26 20 -36 19
-18 34 -19 135 -12 l30 2 6 -205 c3 -113 7 -206 8 -207 0 -2 6 -3 11 -3 7 0
10 67 8 196 l-3 196 65 2 c36 2 99 6 140 11 70 7 81 5 150 -22 50 -20 118 -36
204 -48 135 -19 207 -16 320 10 86 21 140 19 189 -6 25 -14 69 -24 110 -27
l67 -5 -2 -71 c-4 -115 1 -216 12 -216 6 0 10 56 10 149 0 96 4 152 11 156 6
4 43 11 82 16 101 13 104 17 88 136 -6 54 -15 110 -18 125 -4 20 -1 28 9 28
24 0 95 58 230 189 l58 55 -7 -95 c-6 -95 -6 -95 22 -117 l27 -21 -13 -161
c-11 -141 -10 -184 5 -169 7 7 26 205 26 272 l0 60 80 -7 c44 -3 116 -9 160
-12 56 -5 80 -4 80 4 0 14 -29 18 -198 32 -73 6 -139 13 -147 16 -25 10 -28
48 -11 154 18 116 20 160 6 160 -5 0 -10 -14 -10 -32 0 -26 -13 -44 -82 -110
-206 -197 -209 -199 -333 -186 -169 19 -207 40 -226 124 -11 47 -9 81 10 242
26 217 70 551 76 569 3 9 13 9 41 -3 29 -12 51 -14 105 -6 66 8 70 7 84 -15
32 -48 115 -16 130 49 4 18 9 27 12 21 2 -7 -3 -47 -13 -90 -15 -69 -22 -83
-62 -123 -25 -25 -51 -59 -59 -77 -19 -46 -17 -147 3 -164 9 -7 23 -30 31 -51
18 -46 84 -80 189 -99 40 -7 125 -37 201 -71 224 -98 252 -104 344 -68 35 14
50 17 46 8 -3 -7 -17 -42 -32 -78 -15 -36 -37 -88 -51 -117 -13 -28 -24 -60
-24 -69 0 -30 -23 -84 -37 -84 -7 0 -33 10 -57 22 -40 19 -49 20 -87 9 -72
-22 -75 -28 -181 -306 -64 -169 -64 -169 -47 -163 8 3 41 76 75 164 85 224 93
242 122 264 32 26 82 25 129 -2 50 -28 48 -27 36 -39 -8 -8 -20 -6 -41 5 -17
9 -42 16 -55 16 -32 0 -93 -58 -105 -101 -5 -19 -30 -87 -56 -152 -49 -126
-52 -137 -36 -137 6 0 10 7 10 15 0 8 25 79 56 157 72 185 103 221 168 194 44
-18 51 -31 36 -67 -10 -22 -10 -32 -1 -43 9 -11 7 -32 -10 -93 -29 -105 -84
-329 -93 -375 -5 -28 -4 -38 6 -38 9 0 21 37 36 108 20 91 90 361 97 370 1 1
41 -16 89 -39 67 -33 86 -46 81 -58 -16 -42 -86 -343 -82 -354 6 -16 6 -16 55
187 23 93 43 171 45 173 3 2 131 -41 154 -52 1 0 -9 -65 -23 -145 -13 -79 -24
-153 -23 -164 1 -45 17 20 40 162 19 117 26 141 38 138 9 -3 45 -10 81 -17 36
-6 69 -15 73 -19 4 -4 3 -47 -2 -96 -17 -152 -19 -184 -11 -184 4 0 12 58 19
129 8 71 16 133 20 139 4 7 34 7 94 -1 l88 -10 -7 -129 c-5 -93 -4 -128 5
-128 8 0 11 39 11 128 l0 129 58 -4 c31 -2 85 -6 119 -9 l61 -5 11 -82 c6 -45
12 -95 13 -111 2 -16 9 -31 16 -34 10 -3 11 12 5 74 -9 85 -8 94 2 282 5 79 4
122 -3 122 -12 0 -18 -41 -21 -139 -1 -42 -4 -78 -7 -80 -2 -3 -86 1 -187 7
-297 20 -502 70 -709 174 -54 26 -98 50 -98 53 0 3 24 16 53 31 80 40 358 211
402 247 6 4 46 34 90 65 91 64 265 203 285 227 24 29 26 15 12 -82 -18 -133
-12 -214 23 -283 47 -94 125 -196 125 -165 0 3 -21 33 -46 67 -76 103 -94 149
-94 248 0 47 6 124 14 172 14 85 15 87 77 152 61 65 147 181 163 221 18 43 16
-7 -3 -101 -44 -213 -81 -538 -81 -700 0 -77 3 -94 15 -94 13 0 15 21 15 130
0 71 5 174 11 228 l12 99 28 -11 c29 -10 29 -12 29 -88 0 -45 4 -78 10 -78 6
0 10 34 10 81 l0 81 28 -6 c69 -17 121 -18 150 -3 l31 15 6 -67 c4 -36 11 -90
16 -120 5 -30 9 -110 9 -177 0 -96 -5 -137 -21 -190 -50 -161 -122 -245 -85
-100 18 73 20 96 7 96 -4 0 -16 -30 -26 -67 -21 -78 -35 -113 -46 -113 -15 0
-17 48 -5 115 10 51 19 73 36 84 28 19 90 100 90 117 0 25 -14 14 -55 -41 -22
-30 -46 -55 -52 -55 -21 0 -14 68 13 145 38 106 38 105 22 105 -30 0 -96 -247
-71 -263 7 -4 6 -27 -2 -64 -7 -32 -16 -75 -19 -95 -5 -29 -12 -38 -26 -38
-25 0 -26 23 -5 140 30 168 10 178 -23 12 -22 -111 -28 -125 -42 -102 -24 38
5 251 56 406 23 72 25 100 5 78 -19 -20 -72 -215 -88 -326 -16 -110 -16 -119
0 -153 9 -20 25 -39 34 -42 10 -4 24 -15 32 -26 10 -14 21 -17 41 -13 18 3 33
0 40 -9 10 -12 15 -12 35 1 12 8 30 12 39 8 29 -11 70 47 104 147 42 125 50
238 28 419 -28 230 -29 204 18 238 22 16 86 66 141 111 90 73 104 81 143 81
67 0 135 20 159 46 20 22 22 33 20 119 -2 81 0 95 14 95 24 0 51 35 47 62 -3
22 -8 23 -103 30 -125 10 -180 3 -205 -24 -11 -12 -31 -51 -46 -88 l-26 -67
-78 -37 c-42 -20 -82 -36 -87 -36 -6 0 -13 79 -17 192 -4 105 -11 197 -15 202
-6 7 -2 20 9 34 12 14 21 18 25 12 21 -34 104 121 134 250 42 181 35 333 -20
465 -16 38 -29 80 -29 93 0 34 -25 87 -50 105 -35 24 -15 40 43 34 71 -6 100
-40 123 -143 12 -57 24 -86 44 -106 l27 -27 -23 -22 c-16 -15 -31 -20 -54 -17
-38 6 -48 -7 -19 -22 27 -15 60 -6 98 26 39 32 39 49 2 68 -25 13 -31 26 -50
103 -24 98 -41 127 -91 155 -40 22 -110 20 -138 -4 -27 -23 -45 -11 -71 48
-26 59 -83 140 -115 163 -11 8 -55 32 -99 53 -43 21 -110 57 -148 79 -57 34
-68 45 -64 63 5 17 -11 33 -94 94 -55 39 -104 72 -110 72 -6 0 -11 17 -11 38
l0 38 70 23 c69 22 166 79 185 109 6 8 17 28 26 44 9 16 35 42 56 57 59 43 85
92 94 175 4 39 14 96 23 126 38 127 29 348 -18 487 -49 144 -156 268 -283 329
-70 34 -186 64 -199 51 -12 -12 8 -27 36 -27 48 0 144 -35 203 -74 111 -74
195 -192 233 -326 21 -76 31 -335 14 -397 -7 -27 -14 -56 -17 -66 -4 -16 -9
-14 -39 13 -19 16 -44 30 -54 30 -17 0 -20 7 -20 40 0 22 -4 40 -10 40 -10 0
-13 -16 -11 -60 1 -14 -3 -102 -8 -196 -10 -188 -18 -216 -73 -257 -145 -108
-404 -150 -603 -98 -146 39 -250 102 -276 168 -7 16 -14 115 -17 233 l-4 205
42 83 c23 46 44 81 47 79 2 -3 -4 -32 -13 -66 -10 -33 -14 -64 -11 -68 4 -3
35 25 69 63 80 90 237 244 248 244 5 0 -9 -37 -31 -81 -22 -45 -38 -84 -35
-86 16 -16 225 108 280 166 17 17 35 31 42 31 15 0 98 -90 155 -169 24 -33 47
-61 52 -61 4 0 7 33 7 72 0 72 0 72 17 48 10 -14 41 -72 70 -130 29 -58 53
-96 53 -85 0 34 -138 285 -157 285 -2 0 -3 -30 -2 -67 3 -69 -9 -91 -28 -51
-13 28 -151 178 -164 178 -5 0 -41 -26 -79 -59 -67 -56 -206 -138 -216 -128
-3 3 15 46 40 96 26 50 42 91 37 91 -19 0 -120 -91 -224 -201 -124 -131 -133
-122 -52 54 14 33 24 61 22 63 -17 17 -197 -301 -197 -348 0 -21 -5 -28 -19
-28 -10 0 -31 -10 -46 -22 l-28 -22 6 114 c12 214 64 403 144 525 67 101 218
208 334 234 24 6 89 11 144 11 90 1 98 2 81 15 -19 14 -129 19 -196 8z m-1159
-1287 c17 -45 44 -133 60 -196 l30 -115 -23 -70 c-72 -224 -152 -278 -411
-276 -133 1 -239 20 -342 60 -159 62 -194 107 -195 247 0 159 2 165 90 232 93
72 166 97 300 105 117 8 271 46 365 91 83 40 79 42 126 -78z m-1372 -92 c78
-21 162 -69 220 -126 28 -28 51 -54 51 -59 0 -5 7 -9 15 -9 17 0 20 16 5 25
-17 10 -11 25 10 25 61 0 99 -52 82 -113 -40 -144 -329 -367 -585 -452 -171
-57 -393 -73 -473 -34 -48 23 -67 61 -55 106 7 23 10 25 16 11 16 -39 21 -13
21 105 0 166 31 261 120 373 62 77 191 145 314 164 67 10 184 3 259 -16z
m2510 -55 c55 -10 191 -8 276 3 18 3 20 -3 23 -72 l2 -75 -90 -60 c-89 -60
-100 -71 -80 -91 7 -7 2 -19 -16 -37 -33 -33 -44 -34 -73 -3 -17 18 -21 31
-17 53 6 26 0 33 -69 87 l-75 58 4 47 c2 25 4 61 5 80 1 30 4 33 24 27 12 -3
51 -11 86 -17z m-166 -130 c12 -11 55 -46 95 -76 43 -34 71 -62 68 -70 -10
-25 -121 -172 -131 -172 -5 0 -23 18 -40 40 -16 23 -56 73 -87 112 -32 40 -58
78 -58 87 1 11 112 99 128 100 2 0 13 -9 25 -21z m611 -35 c33 -26 61 -50 61
-54 0 -4 -26 -41 -57 -81 -32 -41 -71 -93 -88 -116 -16 -24 -34 -43 -39 -43
-5 0 -40 35 -78 77 -37 43 -74 84 -81 91 -14 16 -10 20 113 102 44 29 82 57
83 62 7 16 25 8 86 -38z m-756 -106 c7 -7 12 -25 12 -40 0 -44 36 -286 74
-493 22 -120 31 -194 25 -199 -5 -6 -9 -6 -9 -2 0 5 -7 3 -15 -4 -9 -7 -17
-11 -19 -9 -11 12 -101 561 -112 687 -6 67 -6 72 13 72 10 0 24 -5 31 -12z
m-201 -25 c-3 -16 -15 -90 -28 -165 l-24 -138 -38 0 -39 0 7 38 c18 106 64
267 81 279 30 22 47 16 41 -14z m137 -15 c33 -252 83 -560 118 -721 10 -49 10
-59 -2 -67 -11 -7 -17 -54 -25 -201 l-10 -192 44 -36 43 -35 102 2 c55 2 105
7 110 12 5 5 4 22 -3 40 -16 47 -7 204 17 278 24 74 11 94 -19 28 -11 -25 -24
-46 -29 -46 -19 0 -59 -52 -66 -85 -7 -41 9 -89 38 -109 16 -11 38 -63 38 -88
0 -5 -38 -8 -85 -8 l-85 0 0 44 c0 45 19 299 23 302 1 1 28 5 60 8 53 7 57 6
57 -13 0 -12 6 -21 13 -21 8 0 19 33 31 97 23 125 48 190 109 285 147 234 410
327 679 242 203 -65 338 -204 377 -392 33 -159 -7 -405 -88 -539 -29 -48 -46
-57 -31 -17 14 37 12 52 -10 74 -18 18 -19 26 -10 87 12 86 12 93 0 93 -5 0
-10 -19 -10 -42 0 -24 -9 -77 -19 -118 -39 -152 -81 -234 -150 -291 -20 -16
-29 -29 -22 -29 8 0 45 31 83 70 38 39 73 70 77 70 4 0 9 -55 10 -122 0 -68 4
-162 7 -210 l6 -86 -40 -21 c-48 -24 -66 -27 -59 -7 3 7 -5 24 -17 37 -92 102
-96 110 -96 200 l0 84 40 39 c38 37 51 66 30 66 -5 0 -14 -9 -19 -19 -21 -38
-99 -79 -165 -86 -67 -7 -214 8 -304 31 -104 27 -215 90 -289 164 -41 39 -43
45 -43 98 0 62 41 225 71 284 11 21 20 38 22 38 1 1 36 3 77 6 222 14 490 93
581 171 15 13 20 6 48 -60 49 -119 63 -183 68 -317 5 -119 -3 -183 -32 -252
-4 -11 -3 -18 4 -18 25 0 46 113 45 250 -1 116 -5 148 -28 224 -39 129 -106
258 -106 204 0 -31 -131 -95 -270 -133 -86 -23 -262 -55 -300 -55 -8 1 19 18
61 39 90 45 279 168 279 181 0 16 -4 13 -92 -50 -93 -67 -245 -147 -298 -156
l-35 -6 65 62 c36 34 84 78 108 97 23 20 42 40 42 45 0 15 -23 -2 -117 -89
-50 -46 -102 -92 -117 -104 -18 -14 -24 -24 -17 -29 8 -4 7 -18 -5 -46 -34
-80 -65 -201 -71 -274 -5 -71 -4 -77 20 -106 14 -16 53 -50 87 -74 l61 -45
-58 -7 c-92 -12 -96 -14 -210 -104 -139 -110 -142 -115 -136 -161 l5 -38 -93
-58 c-78 -48 -98 -57 -124 -51 -39 8 -142 50 -172 69 -22 15 -22 17 -7 40 26
41 13 93 -46 181 -58 87 -57 69 -25 254 9 52 15 124 13 161 -3 55 -9 73 -41
121 -41 62 -46 82 -19 74 9 -3 47 -10 84 -16 61 -11 68 -14 77 -42 18 -51 12
-162 -19 -383 -17 -115 -30 -211 -30 -212 0 -2 6 -3 13 -3 19 0 70 370 71 507
1 92 -1 104 -21 125 -24 25 -27 45 -17 96 4 18 14 32 25 35 26 7 51 70 56 142
11 184 11 210 -3 232 -8 12 -14 32 -14 45 0 12 -10 32 -21 44 l-21 23 28 152
29 153 45 12 c25 7 48 12 52 13 4 1 9 -18 12 -41z m1006 -18 c4 0 10 -4 12 -8
2 -4 46 -30 99 -56 53 -26 106 -57 117 -69 26 -28 105 -167 99 -174 -3 -2 -25
6 -48 18 -101 51 -180 71 -304 76 l-121 6 13 91 c7 50 15 110 18 133 l6 42 50
-30 c27 -16 54 -29 59 -29z m-831 -88 c30 -40 58 -72 62 -72 4 0 27 25 51 56
24 31 54 70 67 86 l25 30 33 -37 33 -37 43 36 43 35 31 -37 c17 -20 54 -62 82
-92 l51 -55 23 25 c12 14 32 39 44 55 12 17 24 28 26 25 3 -3 1 -28 -4 -55 -5
-28 -11 -64 -14 -81 -5 -27 -15 -36 -68 -62 -77 -38 -173 -123 -232 -206 -41
-57 -94 -172 -110 -238 -7 -27 -10 -28 -69 -28 l-62 0 -17 48 c-27 80 -117
594 -117 670 1 31 3 34 13 21 7 -9 37 -48 66 -87z m-1958 41 c6 -16 13 -43 16
-61 5 -25 3 -31 -9 -27 -12 5 -14 -20 -14 -160 l0 -165 -30 -42 c-50 -72 -123
-101 -335 -132 -47 -8 -103 -21 -123 -31 -29 -14 -42 -16 -56 -8 -9 6 -39 15
-66 18 -39 6 -57 16 -89 49 -22 22 -48 52 -57 66 -13 18 -17 21 -17 9 -1 -9
19 -39 44 -67 50 -56 53 -62 28 -62 -44 -1 -77 -63 -149 -279 -43 -132 -46
-205 -9 -249 46 -54 144 -79 268 -67 l72 6 78 74 c81 77 123 102 172 105 87 6
97 -7 33 -39 -57 -28 -95 -58 -85 -67 4 -4 64 11 132 34 68 23 134 42 146 42
38 0 14 -24 -62 -62 -68 -34 -97 -58 -70 -58 6 0 46 17 89 39 110 55 122 58
122 29 0 -27 -22 -46 -112 -97 -53 -30 -73 -51 -49 -51 12 0 130 68 154 88 16
14 17 13 17 -10 0 -30 -37 -66 -112 -108 -55 -30 -73 -50 -45 -50 6 0 26 9 42
21 17 11 47 29 68 40 33 17 37 18 37 3 0 -26 -54 -69 -152 -120 l-93 -49 -195
0 c-286 0 -421 35 -463 118 -27 52 -46 148 -47 227 0 74 36 243 80 375 36 107
43 120 64 112 8 -3 18 -2 21 4 4 5 -2 12 -12 15 -98 31 -165 84 -199 159 -13
28 -24 55 -24 61 0 8 22 10 68 6 62 -4 172 6 261 24 l34 7 -16 -24 c-31 -43
-18 -123 26 -160 30 -25 81 -39 114 -30 48 13 36 27 -23 27 -49 -1 -59 2 -80
27 -34 40 -33 105 2 141 15 14 37 26 50 26 13 0 24 6 24 13 0 7 36 28 79 45
128 53 321 180 386 256 37 42 52 44 66 9z m139 -31 c42 -3 77 -12 100 -26 19
-12 47 -27 63 -34 29 -12 34 -42 21 -111 -8 -38 -49 -70 -67 -52 -6 6 -26 11
-45 11 -19 0 -52 5 -74 12 -33 10 -44 9 -68 -5 -45 -27 -50 -23 -50 48 0 53 3
65 16 65 14 0 15 8 9 56 -6 53 -5 56 12 49 10 -4 47 -10 83 -13z m320 -107
c36 -8 111 -18 166 -22 l102 -6 -5 -38 c-5 -35 -2 -43 37 -81 48 -49 48 -43 4
-230 l-26 -108 -121 0 c-113 1 -219 17 -217 33 1 22 -2 26 -20 32 -11 4 -34 0
-50 -9 l-30 -14 0 91 c0 112 14 214 35 253 8 16 15 47 15 70 0 46 6 56 29 49
9 -2 45 -11 81 -20z m-255 -129 c20 -1 29 -7 27 -16 -24 -106 -29 -220 -12
-264 7 -18 5 -33 -5 -53 -16 -30 -20 -83 -7 -83 5 0 15 21 23 47 16 54 43 73
33 24 -8 -39 4 -39 47 -1 31 27 69 40 69 23 0 -4 -12 -19 -27 -35 -32 -34 -23
-48 16 -25 34 20 85 23 79 5 -3 -7 -21 -22 -41 -33 -44 -24 -48 -45 -8 -45 29
0 57 -22 47 -38 -3 -5 -17 -7 -31 -5 -13 3 -32 2 -41 -1 -15 -6 -15 -9 4 -27
29 -26 30 -54 3 -39 -34 18 -61 11 -144 -38 -125 -74 -180 -86 -269 -61 -40
10 -48 28 -24 49 8 6 27 43 42 81 l27 69 46 0 c53 0 117 16 127 31 11 19 -4
20 -57 5 -29 -9 -65 -16 -81 -16 -24 0 -28 4 -28 29 0 17 -4 32 -9 36 -6 3 -4
24 4 52 8 26 12 49 10 52 -5 5 -35 -62 -35 -79 0 -5 -2 -10 -5 -10 -12 0 -135
54 -135 60 0 3 15 11 33 18 18 7 46 25 61 41 23 24 34 28 60 24 30 -5 48 4
133 66 29 21 29 49 -1 62 -21 10 -23 14 -13 30 9 14 9 24 1 36 -18 28 -36 28
-29 0 5 -20 1 -29 -24 -46 -48 -34 -41 -54 14 -45 26 3 45 2 45 -3 0 -5 -20
-24 -45 -41 -48 -34 -91 -43 -82 -18 3 8 11 33 17 55 6 22 17 44 24 48 18 11
38 51 31 63 -14 22 8 32 54 25 25 -4 60 -8 76 -9z m1420 0 c11 -8 16 -19 12
-30 -5 -12 -20 -16 -67 -16 -33 0 -60 -4 -60 -9 0 -5 33 -13 73 -18 70 -8 72
-9 75 -37 5 -38 -10 -46 -85 -46 -35 0 -63 -4 -63 -9 0 -16 22 -19 88 -13 l63
5 -3 -34 c-3 -30 -7 -34 -33 -37 -82 -7 -107 -32 -32 -32 60 0 68 -11 51 -73
-7 -27 -20 -57 -29 -66 -13 -14 -15 -12 -15 17 0 31 -1 32 -43 32 l-42 0 -24
-69 c-23 -67 -46 -92 -84 -91 -7 1 -38 43 -70 95 -55 90 -58 97 -47 129 6 18
8 40 5 48 -13 33 98 218 147 248 40 24 153 28 183 6z m-692 -83 l39 -27 -6
-131 c-4 -71 -11 -220 -16 -330 -5 -110 -10 -223 -10 -251 0 -48 -2 -53 -30
-64 -56 -23 -50 2 -115 -505 -41 -320 -44 -401 -14 -461 17 -37 29 -46 74 -63
30 -11 95 -26 144 -32 l89 -12 6 -61 c4 -34 12 -87 18 -119 6 -32 8 -60 5 -64
-10 -9 -155 -34 -237 -39 -67 -5 -80 -3 -123 20 -58 31 -86 32 -203 6 -49 -11
-124 -20 -167 -20 -107 0 -267 26 -335 54 -84 36 -117 39 -225 21 -86 -14
-101 -14 -130 -1 -42 20 -54 21 -109 12 -63 -11 -88 -1 -88 32 0 15 20 86 44
157 24 72 63 213 86 315 23 102 53 226 66 275 13 50 29 109 35 133 9 33 16 42
33 42 27 0 127 47 201 95 l57 36 22 -20 c55 -52 170 -1 256 114 l34 46 17 -33
c38 -73 123 -86 173 -27 47 55 44 110 -8 168 -17 19 -18 25 -6 29 56 20 154
176 212 342 23 64 24 65 65 71 23 3 51 13 62 23 25 23 44 134 39 227 -2 38 -1
69 1 69 3 0 22 -12 44 -27z m-73 -8 c13 -16 7 -138 -11 -208 -10 -38 -36 -57
-79 -57 -17 0 -17 5 6 91 13 51 27 114 30 140 7 52 28 65 54 34z m196 -6 c8
-13 7 -232 -2 -521 l-7 -207 -39 -15 c-21 -9 -40 -16 -42 -16 -2 0 -2 15 0 33
1 17 8 181 14 362 6 182 13 340 16 353 3 15 12 22 29 22 13 0 27 -5 31 -11z
m83 -46 c24 -21 31 -89 57 -543 l15 -285 -26 -22 c-54 -47 -56 -40 -70 232 -3
61 -10 173 -15 250 -6 77 -10 195 -10 263 0 131 5 141 49 105z m-1262 -207
c43 -18 86 -36 96 -39 49 -17 -29 -225 -98 -263 l-33 -18 -59 50 c-32 27 -64
54 -71 61 -7 7 -18 13 -23 13 -12 0 -12 -17 1 -25 20 -12 -19 -69 -85 -123
-22 -17 -44 -32 -50 -32 -7 0 -16 52 -23 137 -13 155 -17 144 67 206 42 31 71
43 120 52 36 7 69 13 73 14 4 0 42 -14 85 -33z m-444 -28 c16 -12 16 -15 1
-43 -26 -51 -54 -73 -106 -84 -99 -22 -118 -12 -94 51 34 84 39 88 114 88 39
0 75 -5 85 -12z m1942 -160 l97 -158 -1 -77 c0 -43 -10 -130 -22 -193 l-21
-115 56 -83 c44 -66 56 -92 56 -122 0 -21 -4 -42 -10 -45 -6 -4 -10 8 -10 28
0 20 -9 46 -21 61 -31 39 -41 31 -18 -14 24 -47 20 -104 -10 -119 -16 -9 -18
-5 -18 33 -1 49 -36 126 -58 126 -11 0 -9 -11 10 -46 39 -74 28 -144 -24 -144
-18 0 -21 6 -21 41 0 56 -20 119 -38 119 -9 0 -12 -6 -8 -16 34 -89 28 -146
-16 -163 -29 -11 -43 -4 -28 14 22 27 7 69 -31 88 -44 21 -83 11 -95 -25 l-7
-23 -9 24 c-19 51 11 130 67 179 44 39 49 53 80 209 31 154 32 187 7 179 -11
-4 -27 2 -39 13 -18 17 -21 36 -28 171 -7 142 -6 153 13 173 10 12 22 31 26
41 9 26 9 26 121 -156z m-722 152 c78 0 78 1 41 -91 -61 -151 -116 -241 -174
-284 -45 -34 -73 -32 -105 7 -34 41 -91 155 -82 164 4 4 22 3 41 -3 45 -14 61
-3 53 35 -5 26 -3 31 16 34 28 4 35 48 12 72 -15 15 -15 18 7 46 21 28 26 30
73 25 28 -3 80 -5 118 -5z m-1166 -70 c7 -24 18 -104 24 -177 9 -113 8 -142
-5 -186 -20 -67 -47 -97 -89 -97 l-33 0 4 95 c6 134 2 138 -135 129 -59 -4
-103 -3 -103 2 0 5 12 43 27 85 l27 77 75 4 c94 6 133 25 158 77 10 22 22 39
28 37 5 -1 15 -22 22 -46z m2463 -70 c22 -19 23 -23 16 -137 -4 -65 -9 -142
-12 -170 l-6 -53 -29 23 -29 22 5 95 c10 166 17 240 25 240 4 0 17 -9 30 -20z
m-2205 -95 c25 -22 26 -26 15 -60 -7 -20 -17 -38 -24 -40 -62 -17 -111 -43
-152 -79 -27 -24 -50 -44 -51 -43 0 1 1 23 4 49 5 38 10 49 32 58 33 13 103
76 126 113 10 15 19 27 21 27 1 0 15 -11 29 -25z m575 10 c0 -23 44 -107 76
-144 14 -18 25 -33 23 -34 -2 -1 -14 -8 -26 -14 -30 -17 -30 -17 -37 10 -12
43 -44 69 -91 75 -29 3 -50 0 -61 -9 -14 -11 -19 -9 -35 11 -10 14 -19 27 -19
30 0 8 143 90 158 90 6 0 12 -7 12 -15z m-502 -70 c19 -14 25 -14 53 0 28 15
34 15 70 1 22 -9 68 -16 102 -16 105 0 130 -36 115 -163 -10 -84 -19 -101 -58
-119 -16 -7 -30 -19 -30 -25 0 -16 5 -16 38 1 52 27 64 50 76 148 11 88 13 94
40 107 42 20 77 5 100 -43 24 -50 11 -96 -47 -169 -64 -78 -120 -117 -168
-117 -42 0 -75 22 -63 41 3 6 6 28 6 50 0 21 4 41 9 45 15 9 0 115 -19 137 -9
10 -20 16 -26 14 -6 -2 -17 3 -25 11 -14 14 -52 13 -137 -4 -27 -5 -31 -3 -30
17 1 17 -7 26 -29 33 -16 6 -31 11 -33 12 -5 3 21 54 27 54 4 0 16 -7 29 -15z
m-444 -67 c5 -21 5 -62 0 -100 l-9 -63 -52 -3 c-37 -2 -67 3 -103 19 -70 30
-91 73 -74 156 l6 29 111 -1 112 0 9 -37z m1726 -157 l0 -58 -46 -7 c-84 -11
-130 -7 -155 13 -16 13 -21 23 -14 30 16 16 168 80 193 80 20 1 22 -3 22 -58z
m1280 -173 c0 -7 -20 -21 -45 -31 -62 -26 -67 -39 -200 -477 -52 -171 -70
-212 -116 -264 -29 -34 -127 -80 -155 -74 -12 3 38 132 126 328 16 36 40 90
53 120 14 30 53 118 87 195 35 77 74 157 87 178 l23 37 70 0 c49 0 70 -4 70
-12z m77 -3 c50 -19 145 -42 209 -50 l52 -7 -5 -39 c-5 -32 -3 -39 11 -39 11
0 16 9 16 30 0 34 19 39 65 18 31 -14 28 -28 -22 -111 -34 -56 -62 -91 -69
-85 -1 2 6 34 16 71 10 37 14 67 9 67 -5 0 -12 -13 -15 -29 -8 -37 -68 -81
-111 -81 -50 0 -184 31 -232 53 -46 21 -82 67 -74 95 6 24 45 70 63 74 14 3
15 -1 18 -49 1 -13 7 -23 12 -23 6 0 10 27 10 60 0 33 2 60 5 60 2 0 22 -7 42
-15z m-277 -28 c0 -5 -140 -311 -144 -315 -7 -6 -66 122 -66 142 1 14 26 40
81 81 44 33 87 68 96 78 14 15 33 23 33 14z m113 -80 c-10 -63 53 -111 184
-141 83 -18 165 -21 195 -5 27 15 30 8 19 -41 -8 -34 -24 -57 -88 -118 -64
-62 -202 -181 -273 -235 -159 -122 -491 -329 -505 -315 -3 3 3 26 12 52 15 41
22 48 58 57 71 18 94 30 135 75 53 58 64 85 158 391 82 265 98 313 106 313 3
0 2 -15 -1 -33z m1287 13 c0 -14 -11 -22 -37 -29 -21 -6 -43 -11 -49 -11 -6 0
-11 -18 -10 -45 1 -52 23 -62 28 -13 3 27 9 33 46 46 29 9 44 21 48 37 3 13
15 26 27 29 35 9 87 7 87 -4 0 -13 -39 -37 -75 -46 -16 -4 -47 -18 -67 -31
-32 -19 -37 -28 -36 -55 1 -18 1 -61 0 -95 l-2 -61 -51 -7 c-47 -7 -66 -19
-202 -127 -178 -141 -197 -152 -250 -145 -58 8 -75 28 -58 70 7 17 24 65 39
104 l27 73 167 77 c117 54 170 84 174 98 17 50 64 143 76 148 7 3 37 6 66 6
45 1 52 -2 52 -19z m-701 -38 c7 -13 3 -31 -16 -67 -72 -145 -269 -339 -553
-547 -182 -134 -511 -330 -527 -314 -18 18 21 55 103 96 105 53 447 278 508
335 12 12 56 48 97 82 147 120 295 290 345 396 20 41 29 45 43 19z m110 -152
l53 -61 -51 -130 c-28 -71 -51 -134 -51 -139 0 -12 -40 -13 -59 -1 -12 8 -11
27 3 127 15 106 46 264 51 264 1 0 26 -27 54 -60z m-1745 14 c24 -24 19 -32
-21 -36 l-38 -4 28 -12 c17 -7 27 -19 27 -32 0 -15 7 -20 28 -20 16 0 37 7 48
15 10 8 35 15 55 15 20 0 59 10 87 21 l51 21 104 -46 c57 -25 118 -46 137 -46
22 0 58 15 109 47 42 26 78 51 79 55 8 18 32 6 47 -22 8 -16 22 -33 30 -37 12
-7 9 -23 -23 -97 -43 -98 -72 -124 -163 -146 -59 -14 -70 -11 -279 80 -96 42
-174 70 -206 73 -28 3 -76 17 -107 31 -65 28 -82 57 -72 118 6 34 10 38 35 38
16 0 36 -7 44 -16z"/>
<path d="M309 3304 c-18 -48 -31 -280 -19 -362 5 -40 10 -75 10 -76 0 -2 -21
0 -47 5 -27 4 -50 5 -52 3 -15 -14 28 -19 152 -18 165 2 252 21 381 83 131 64
309 209 371 304 33 51 9 38 -39 -21 -78 -98 -216 -210 -328 -266 -74 -38 -245
-81 -353 -90 -83 -7 -74 -25 -81 164 -3 93 0 160 9 215 16 86 14 105 -4 59z"/>
<path d="M1729 4280 c-138 -13 -263 -67 -346 -150 -29 -29 -53 -56 -53 -61 0
-19 20 -7 66 40 102 103 223 145 414 145 328 0 520 -122 597 -381 15 -48 18
-103 19 -323 1 -146 5 -299 9 -340 11 -106 -6 -177 -52 -225 -40 -41 -37 -59
5 -28 59 44 82 130 71 258 -4 39 -7 187 -8 330 -1 199 -5 275 -16 320 -60 230
-215 365 -468 404 -101 16 -158 19 -238 11z"/>
<path d="M2246 1510 c2 -118 7 -264 11 -323 l6 -109 -49 7 c-27 4 -84 20 -126
35 -81 28 -106 26 -40 -4 51 -23 140 -46 180 -46 31 0 32 -1 33 -42 0 -24 4
-63 8 -88 7 -39 9 -33 10 45 l1 90 73 38 c92 47 170 97 164 103 -3 3 -56 -24
-118 -60 -63 -36 -117 -62 -121 -58 -4 4 -10 124 -14 267 -4 143 -11 283 -15
310 -5 29 -6 -39 -3 -165z"/>
</g>
</svg>
