<?xml version="1.0" standalone="no"?>
<!DOCTYPE svg PUBLIC "-//W3C//DTD SVG 20010904//EN"
 "http://www.w3.org/TR/2001/REC-SVG-20010904/DTD/svg10.dtd">
<svg version="1.0" xmlns="http://www.w3.org/2000/svg"
 width="800.000000pt" height="787.000000pt" viewBox="0 0 800.000000 787.000000"
 preserveAspectRatio="xMidYMid meet">
<metadata>
Created by potrace 1.16, written by Peter Selinger 2001-2019
</metadata>
<g transform="translate(0.000000,787.000000) scale(0.100000,-0.100000)"
fill="#000000" stroke="none">
<path d="M3630 7701 c-45 -10 -106 -42 -149 -79 -19 -17 -46 -33 -60 -36 -60
-12 -159 -129 -201 -237 -44 -114 -62 -225 -66 -416 -2 -112 0 -184 6 -188 6
-3 10 -15 10 -25 0 -11 6 -39 14 -62 8 -24 17 -56 21 -73 3 -16 24 -46 45 -66
31 -29 42 -51 59 -113 12 -43 28 -93 36 -113 8 -19 15 -51 15 -70 0 -30 -2
-33 -20 -23 -17 9 -22 5 -38 -27 -11 -21 -23 -52 -26 -69 -8 -35 -93 -106
-181 -149 -54 -26 -176 -74 -212 -82 -13 -3 -23 -9 -23 -13 0 -4 -28 -15 -62
-24 -209 -57 -368 -120 -433 -169 -50 -39 -113 -106 -121 -129 -3 -10 -9 -18
-14 -18 -5 0 -12 -10 -15 -21 -4 -12 -22 -47 -41 -78 -42 -69 -84 -194 -124
-371 -17 -74 -39 -173 -50 -220 -11 -47 -25 -123 -31 -170 -5 -47 -17 -128
-25 -180 -8 -52 -19 -123 -24 -158 -6 -34 -14 -90 -20 -125 -12 -77 -40 -272
-40 -281 0 -4 -16 9 -36 28 -64 62 -151 107 -239 122 -211 37 -506 -33 -653
-155 -59 -49 -129 -158 -171 -266 -33 -84 -35 -97 -35 -205 0 -122 14 -180 71
-294 13 -26 22 -54 19 -61 -2 -7 -33 -28 -68 -47 -34 -18 -92 -62 -129 -98
-81 -79 -109 -144 -113 -262 -2 -73 -4 -79 -44 -130 -65 -85 -72 -103 -72
-201 0 -101 -7 -121 -50 -136 -30 -10 -31 -12 -30 -68 0 -32 -2 -73 -6 -90 -9
-45 2 -96 27 -124 15 -18 19 -32 14 -59 -7 -42 7 -85 40 -120 23 -25 23 -26
10 -125 -8 -56 -23 -146 -35 -200 -11 -55 -27 -136 -35 -180 -8 -44 -19 -96
-25 -115 -5 -19 -10 -58 -10 -87 0 -58 27 -101 78 -122 l28 -12 27 -232 c44
-377 44 -362 3 -585 -8 -46 -10 -75 -3 -79 15 -9 23 13 42 120 22 125 23 189
7 342 -29 276 -32 316 -42 449 -6 77 -9 145 -6 152 7 18 119 34 239 34 104 0
107 -1 107 -22 0 -49 -58 -458 -85 -598 -8 -41 -17 -124 -21 -185 l-6 -110 46
-93 c42 -86 57 -104 70 -84 3 5 -16 44 -41 88 l-45 79 5 125 c3 69 12 159 20
200 9 41 25 136 37 210 30 197 25 183 74 203 64 26 123 81 136 125 5 20 10 94
10 163 0 69 3 160 6 201 l7 76 91 11 c245 28 653 23 833 -11 56 -10 63 -14 68
-40 4 -15 4 -41 0 -57 -6 -29 -1 -50 46 -206 38 -127 74 -331 94 -535 8 -80
18 -183 24 -230 5 -47 15 -160 22 -252 11 -150 14 -168 30 -168 15 0 17 7 13
53 -2 28 -11 138 -20 242 -16 198 -23 265 -48 455 l-15 114 40 39 c57 56 109
168 109 236 0 19 4 22 23 17 12 -3 61 -6 108 -6 l86 0 9 -237 c8 -231 7 -711
-2 -725 -3 -4 -2 -48 2 -98 6 -77 9 -90 24 -90 17 0 18 26 14 452 -3 249 -5
511 -6 582 l-1 129 55 21 c59 22 118 76 118 107 0 11 12 43 26 72 21 42 26 66
25 127 -1 108 -12 220 -22 220 -5 0 -30 31 -55 69 -38 58 -46 78 -48 123 -2
29 -12 101 -24 160 -11 58 -18 124 -15 145 3 22 -2 66 -10 99 -16 64 -13 105
19 257 l19 88 125 -5 c69 -4 271 -11 450 -17 296 -9 327 -12 345 -29 21 -20
137 -39 250 -40 176 -2 575 32 643 55 23 8 25 1 28 -95 1 -52 6 -128 9 -169 6
-65 4 -80 -16 -120 -25 -51 -29 -109 -15 -226 5 -43 16 -81 28 -99 19 -26 20
-39 15 -135 -3 -58 -8 -113 -11 -122 -4 -9 -26 -26 -49 -39 -23 -13 -55 -33
-72 -45 -16 -12 -42 -25 -57 -28 -33 -9 -110 -109 -148 -192 -79 -178 -139
-402 -160 -600 -17 -174 -40 -371 -49 -445 -13 -93 -14 -300 -2 -300 15 0 21
42 21 160 0 63 9 187 21 275 11 88 26 212 34 275 8 63 18 135 23 160 51 245
55 258 120 417 67 165 154 265 216 249 31 -8 51 -44 71 -128 32 -134 29 -279
-8 -523 -9 -55 -23 -158 -32 -230 -8 -71 -25 -177 -35 -235 -11 -58 -29 -165
-40 -239 -11 -74 -23 -145 -26 -158 -5 -19 -2 -23 15 -23 18 0 21 6 21 48 0
60 14 163 51 375 16 92 36 231 44 310 8 78 22 179 32 225 l18 83 30 -5 c16 -3
269 -6 562 -7 380 -1 537 -5 548 -13 11 -8 20 -57 34 -176 11 -91 29 -241 40
-335 12 -93 25 -237 31 -320 12 -167 15 -185 35 -185 21 0 26 15 16 43 -12 31
-28 146 -41 297 -5 63 -16 160 -24 215 -14 94 -23 187 -46 485 -16 200 24 382
100 455 26 25 29 26 62 12 35 -15 128 -112 128 -134 0 -7 9 -39 19 -70 10 -32
26 -103 35 -158 9 -55 26 -147 38 -205 24 -120 33 -189 47 -345 6 -60 15 -141
20 -180 6 -38 15 -110 21 -160 26 -216 33 -255 48 -255 12 0 13 9 8 48 -4 26
-11 83 -15 127 -5 44 -12 87 -14 95 -6 16 -13 69 -27 210 -25 250 -40 343 -69
455 -6 22 -11 58 -11 80 0 46 -43 257 -66 330 -31 95 -108 173 -214 215 -19 8
-51 26 -70 40 -19 14 -64 39 -100 55 -70 31 -160 84 -160 95 0 16 62 41 88 35
31 -6 82 25 82 50 0 7 13 18 30 25 17 7 30 16 30 21 0 5 10 31 22 57 20 41 23
62 22 162 0 90 -4 122 -19 150 -12 23 -20 70 -25 145 -15 213 -62 365 -135
441 -6 7 -23 25 -37 42 -43 51 -144 122 -175 122 -15 1 -50 7 -78 14 -46 13
-50 16 -48 42 4 52 14 54 171 39 79 -8 214 -17 300 -20 86 -3 218 -13 292 -20
74 -8 200 -17 280 -20 80 -3 190 -8 245 -10 55 -2 159 -4 230 -5 l130 0 57
-154 c86 -233 134 -423 153 -606 8 -85 20 -177 25 -205 5 -27 12 -75 15 -105
3 -30 10 -75 16 -100 13 -64 46 -355 70 -625 15 -165 22 -339 25 -615 5 -500
11 -610 31 -610 14 0 15 52 10 450 l-6 449 24 -11 c14 -6 25 -17 25 -23 0 -6
10 -16 23 -22 43 -19 85 4 177 95 97 97 97 96 107 258 7 118 -5 184 -73 392
l-44 136 1 331 c0 181 5 384 12 450 6 66 12 199 14 295 1 96 5 227 9 290 3 63
8 163 11 222 4 82 2 117 -10 152 -17 50 -41 233 -57 446 -18 225 -53 541 -79
700 -90 551 -127 644 -291 745 -70 42 -286 137 -365 159 -33 10 -70 24 -83 32
-29 19 -17 32 53 59 28 10 65 33 83 51 33 33 43 74 17 74 -8 0 -29 13 -47 29
l-33 29 0 144 c0 79 6 195 12 259 14 144 3 329 -27 459 -46 195 -182 405 -310
477 -25 15 -52 32 -60 38 -8 7 -49 25 -90 41 -71 27 -84 29 -225 29 -133 0
-158 -3 -220 -24 -216 -74 -357 -219 -447 -456 -67 -175 -80 -275 -79 -619 0
-216 -3 -265 -16 -290 -19 -37 -30 -46 -60 -46 -20 0 -23 -5 -23 -43 0 -34 6
-49 26 -68 14 -13 32 -37 39 -54 17 -39 71 -94 102 -101 38 -10 22 -27 -53
-55 -38 -15 -93 -41 -122 -58 -58 -34 -72 -38 -72 -18 0 8 -13 41 -30 75 -32
67 -121 150 -208 193 -26 13 -49 27 -52 30 -3 3 -79 36 -170 73 -91 37 -196
81 -235 98 -38 17 -97 42 -130 56 -105 43 -115 54 -115 122 0 62 -11 102 -34
126 -19 18 -11 71 20 138 12 27 31 75 41 107 15 48 23 59 44 64 70 16 126 145
149 342 5 43 14 110 19 148 16 104 13 164 -9 262 -45 192 -132 303 -308 392
-124 63 -324 95 -442 72z m249 -47 c273 -61 429 -207 476 -447 16 -76 16 -100
6 -194 -7 -59 -15 -111 -18 -115 -2 -5 -13 -6 -23 -3 -28 9 -68 -12 -85 -45
-24 -47 -39 -38 -31 18 4 26 9 108 12 183 l5 136 -38 18 c-33 16 -64 18 -243
16 l-204 -2 59 32 c33 17 65 35 71 40 6 5 39 16 73 25 71 18 113 14 179 -18
46 -22 70 -16 37 9 -32 24 -82 43 -116 43 -53 0 -150 -30 -237 -72 -66 -32
-93 -41 -135 -40 -56 0 -121 28 -148 63 l-15 21 -37 -22 c-77 -46 -127 -162
-147 -342 -6 -56 -13 -104 -15 -106 -1 -2 -11 14 -21 35 -16 31 -26 39 -54 43
l-35 5 1 120 c1 95 6 133 24 185 58 169 154 309 215 313 l30 2 5 -102 c7 -145
22 -142 19 5 l-3 123 34 30 c41 34 136 68 199 68 24 1 96 -11 160 -25z m-359
-388 c17 -22 84 -44 175 -59 55 -10 138 -12 267 -9 l186 4 26 -25 c22 -22 26
-35 26 -88 0 -35 -5 -102 -11 -150 -6 -48 -9 -99 -5 -113 8 -33 39 -34 54 -2
14 31 57 60 77 52 30 -11 35 -50 16 -143 -19 -93 -55 -175 -89 -206 -17 -15
-24 -17 -42 -7 -12 6 -24 9 -27 6 -3 -3 -16 -47 -30 -98 -37 -143 -70 -185
-250 -314 -64 -46 -81 -53 -137 -59 -56 -6 -72 -4 -118 17 -52 24 -147 95
-200 149 -49 50 -78 108 -99 197 -23 96 -35 125 -49 117 -20 -12 -49 37 -79
131 -35 111 -38 160 -15 211 12 25 22 33 38 31 18 -3 28 -17 56 -77 10 -22 27
-24 34 -5 4 9 11 67 16 128 11 131 29 194 72 258 43 63 83 83 108 54z m2677
-80 c29 -8 65 -23 80 -34 15 -11 46 -29 69 -40 128 -65 272 -285 325 -497 29
-116 36 -313 18 -495 -7 -74 -12 -177 -12 -228 1 -84 4 -97 28 -134 15 -22 35
-43 46 -45 48 -13 -5 -66 -63 -63 -47 3 -55 1 -39 -9 7 -5 10 -14 7 -20 -10
-16 -88 -13 -113 4 -37 26 -35 -1 2 -34 19 -17 35 -33 35 -36 0 -9 -93 6 -107
17 -7 5 -14 5 -18 -1 -9 -15 -58 12 -79 43 -27 43 -46 137 -48 247 -2 89 0
110 19 149 44 92 54 148 60 348 5 149 9 195 20 199 30 12 9 20 -50 19 -88 -1
-125 25 -173 122 -33 66 -81 122 -105 122 -18 0 -8 -15 21 -32 21 -12 41 -40
67 -95 20 -43 39 -81 41 -85 7 -14 -95 -8 -126 7 -17 9 -60 55 -96 104 -58 78
-74 92 -130 119 -76 36 -96 61 -96 121 0 36 -3 42 -12 33 -7 -7 -13 -32 -13
-56 0 -36 -5 -47 -33 -71 -41 -34 -65 -80 -86 -168 -31 -123 -62 -165 -159
-214 -62 -31 -71 -39 -93 -88 -14 -29 -27 -77 -29 -107 l-5 -53 13 50 c17 64
50 137 68 152 8 6 26 14 40 18 l26 6 7 -98 c9 -125 48 -318 67 -333 4 -3 19
-30 34 -60 15 -30 36 -67 46 -82 23 -32 24 -62 3 -141 -19 -74 -44 -125 -76
-153 -29 -26 -123 -58 -140 -48 -7 5 -25 7 -40 5 -31 -3 -75 18 -102 48 -19
21 -19 22 0 36 10 8 22 15 27 15 11 0 9 30 -2 30 -6 0 -13 -4 -16 -10 -12 -20
-44 -9 -74 25 -17 20 -31 39 -31 43 0 5 14 18 31 31 66 49 81 131 69 366 -11
204 11 441 49 530 5 11 22 52 37 90 76 189 190 320 339 389 75 35 118 52 150
60 37 9 270 -3 322 -18z m-389 -345 c15 -10 38 -22 52 -26 39 -12 77 -43 109
-88 80 -114 130 -149 224 -154 40 -2 97 -9 129 -15 48 -10 57 -16 61 -37 8
-41 -10 -362 -23 -406 -49 -164 -201 -345 -329 -390 -58 -20 -148 -6 -205 32
-80 54 -169 154 -207 233 -43 88 -85 266 -93 391 l-5 87 58 58 c55 55 59 64
76 139 21 96 39 142 67 172 26 28 51 29 86 4z m-1733 -669 c-8 -60 -18 -68
-171 -145 -61 -30 -116 -62 -123 -71 -17 -20 -40 -20 -65 -1 -11 8 -29 15 -40
15 -55 2 -163 63 -243 140 -32 30 -43 48 -43 70 0 41 -5 42 79 -27 19 -15 64
-47 100 -70 106 -68 224 -71 314 -7 26 19 51 34 55 34 4 0 37 27 72 59 36 32
67 57 69 56 1 -2 0 -26 -4 -53z m-530 -182 c27 -15 69 -34 93 -41 42 -12 51
-22 32 -34 -5 -3 -35 -58 -65 -123 -51 -106 -82 -152 -102 -152 -4 0 -25 32
-47 71 -21 40 -61 97 -89 128 -27 31 -63 70 -78 88 l-29 32 26 83 c45 146 32
141 126 53 46 -42 105 -89 133 -105z m575 53 c0 -38 7 -97 15 -132 9 -36 14
-70 11 -77 -11 -28 -134 -191 -139 -183 -1 2 -10 20 -21 39 -68 128 -97 171
-149 227 l-29 31 121 62 c66 34 131 70 143 80 40 34 48 26 48 -47z m-880 -52
c-5 -11 -10 -24 -10 -30 0 -6 35 -49 78 -95 45 -49 98 -119 126 -169 26 -47
54 -88 63 -91 22 -9 71 41 99 104 l26 55 21 -30 c12 -16 30 -38 40 -47 9 -10
17 -24 17 -32 0 -12 -31 -84 -102 -234 -16 -35 -47 -112 -69 -172 -88 -249
-120 -472 -145 -1005 -3 -66 -9 -160 -14 -210 -5 -49 -12 -148 -15 -220 -3
-71 -10 -148 -15 -170 -5 -22 -16 -78 -25 -126 l-16 -85 66 -70 c77 -79 139
-159 178 -225 15 -26 47 -71 73 -100 25 -30 51 -64 57 -76 18 -40 48 -28 99
40 26 34 86 114 134 177 47 63 107 147 131 185 25 39 54 79 64 91 16 17 18 26
9 48 -5 15 -10 46 -10 69 0 23 -5 60 -10 83 -5 22 -18 226 -30 453 -11 227
-22 416 -24 420 -2 3 -9 94 -16 201 -12 217 -29 341 -61 445 -11 39 -29 99
-39 135 -29 105 -56 191 -83 262 l-25 67 42 59 c22 32 46 59 51 59 8 1 43 -59
75 -126 17 -38 49 -13 143 118 l60 83 -12 51 c-12 53 -9 66 11 50 7 -6 31 -16
53 -23 22 -7 92 -39 155 -71 63 -33 119 -59 125 -59 19 0 164 -59 278 -113
131 -63 192 -117 238 -211 16 -33 30 -65 31 -72 3 -11 -80 -73 -152 -114 -57
-33 -71 -50 -113 -141 -61 -130 -93 -216 -123 -339 -60 -240 -78 -408 -94
-858 -10 -268 -14 -322 -31 -370 -46 -131 -50 -150 -53 -272 -2 -90 -9 -146
-24 -200 -25 -88 -28 -147 -7 -196 17 -40 24 -35 -95 -60 -110 -22 -463 -32
-485 -14 -10 8 -57 14 -124 16 -128 5 -524 39 -631 55 -41 6 -162 11 -269 11
-106 0 -204 3 -216 8 -49 19 -61 188 -21 304 l23 70 16 -45 c30 -81 8 15 -28
126 -71 215 -75 260 -62 710 11 353 15 521 11 455 -6 -84 -14 -140 -22 -140
-13 0 -87 254 -102 350 -12 82 -13 167 -1 175 16 9 24 -14 29 -88 4 -52 7 -65
15 -52 10 19 3 108 -13 149 -12 33 -38 33 -50 0 -25 -64 -6 -188 66 -436 46
-159 47 -167 48 -303 1 -77 -5 -338 -12 -580 -13 -438 -7 -700 19 -839 5 -27
9 -78 9 -115 0 -72 -20 -221 -29 -221 -4 0 -11 19 -17 43 -6 23 -17 58 -24 77
-7 19 -15 42 -18 50 -4 11 -7 9 -9 -7 -3 -12 7 -57 20 -100 63 -197 73 -241
69 -296 -2 -17 -4 -17 -24 -3 -38 27 -200 12 -267 -23 -42 -23 -9 -34 45 -16
118 40 215 37 234 -8 14 -35 52 -225 48 -243 -2 -14 -18 -17 -88 -19 -108 -4
-165 -27 -247 -99 l-23 -19 0 22 c0 12 -5 31 -10 41 -18 33 -50 242 -51 330
-1 133 -13 260 -25 268 -6 4 -29 32 -51 63 -31 42 -55 63 -97 82 -31 15 -63
27 -71 27 -15 0 -20 29 -39 253 -7 87 -8 154 -3 163 11 19 57 287 57 332 0 41
-35 147 -61 183 -24 34 -27 150 -4 169 22 18 29 74 15 116 -14 41 -5 147 31
364 10 63 23 142 28 175 6 33 20 130 31 215 33 241 120 630 167 747 35 85 116
222 165 278 56 64 227 146 373 179 64 15 285 88 290 96 5 9 148 80 159 80 4 0
25 14 48 30 47 35 63 38 48 11z m486 -81 c8 -8 19 -8 38 0 34 13 62 -6 101
-67 29 -47 30 -44 -29 -120 -62 -80 -90 -74 -171 31 -24 31 -26 39 -16 68 14
41 48 98 59 98 4 0 13 -5 18 -10z m2571 -22 c-8 -57 10 -203 32 -251 22 -48
84 -107 112 -107 24 0 28 -18 12 -70 -33 -115 -42 -129 -96 -157 -50 -26 -58
-27 -255 -31 -230 -5 -300 6 -413 62 l-64 31 -33 89 -33 89 46 45 c47 47 68
97 81 193 l7 49 41 -38 c77 -70 138 -102 208 -109 54 -5 71 -2 108 17 70 35
185 135 227 198 21 30 26 28 20 -10z m-2502 -280 c8 -18 32 -89 54 -158 107
-336 140 -499 141 -690 1 -52 5 -115 10 -140 10 -45 21 -230 40 -674 5 -126
12 -237 14 -245 3 -9 10 -61 16 -115 l11 -100 -37 -60 c-32 -52 -90 -137 -117
-171 -4 -5 -32 -44 -63 -85 -67 -91 -101 -135 -135 -174 l-25 -29 -77 102
c-42 56 -77 105 -77 110 0 13 -87 121 -152 189 l-60 64 12 56 c6 32 16 75 21
97 4 22 8 83 9 136 0 53 4 152 9 220 5 68 15 216 21 329 15 267 38 555 49 605
5 22 17 76 26 120 24 120 80 284 148 435 64 145 82 178 106 198 24 20 41 14
56 -20z m1745 -99 c0 -19 130 -294 197 -414 36 -66 98 -169 138 -230 39 -60
85 -135 102 -165 55 -98 70 -124 108 -190 71 -122 67 -102 67 -343 0 -122 -5
-252 -11 -289 -6 -37 -16 -176 -21 -309 -5 -133 -11 -243 -12 -244 -4 -2 -280
11 -503 25 -93 6 -223 20 -287 32 -114 21 -118 22 -128 52 -37 102 -40 136
-38 424 1 182 -2 311 -10 352 -15 86 -60 348 -83 480 -9 58 -27 155 -38 215
-12 61 -30 166 -41 235 l-19 124 22 16 c97 69 314 173 457 220 84 27 100 29
100 9z m1146 -18 c56 -16 119 -39 140 -50 21 -12 44 -21 50 -21 13 0 172 -77
192 -92 7 -7 9 -15 3 -22 -17 -22 -32 -114 -41 -261 -5 -82 -14 -208 -19 -280
-5 -71 -17 -238 -26 -370 -9 -132 -25 -292 -35 -355 -11 -63 -20 -124 -20
-134 0 -20 0 -20 15 0 24 32 21 -264 -5 -379 -23 -104 -64 -187 -102 -205 -30
-14 -332 -17 -571 -6 l-139 7 7 166 c3 91 13 244 21 339 8 95 14 262 14 371 0
187 -1 200 -23 242 -34 65 -78 142 -90 157 -13 17 3 51 52 110 58 72 170 255
227 372 69 141 87 187 124 307 17 56 38 109 46 118 22 22 66 19 180 -14z
m-1001 -184 c11 -8 58 -24 105 -38 79 -22 102 -24 310 -24 169 0 233 3 258 14
52 22 55 33 -37 -159 -80 -170 -204 -362 -255 -395 -13 -9 -30 -13 -38 -10 -8
3 -42 49 -74 101 -33 52 -80 129 -106 170 -27 41 -48 77 -48 80 0 3 -8 18 -19
32 -20 28 -131 229 -131 237 0 9 15 5 35 -8z m1470 -41 c54 -54 87 -119 109
-211 31 -134 84 -401 95 -480 22 -162 65 -569 80 -760 18 -215 20 -233 47
-343 24 -98 25 -113 15 -182 -6 -41 -11 -120 -11 -175 -1 -70 -6 -116 -19
-153 -10 -29 -15 -55 -11 -57 16 -10 21 -82 14 -201 l-7 -123 -26 11 c-14 5
-60 10 -101 11 -66 2 -83 -2 -145 -31 -38 -18 -77 -40 -87 -49 -9 -8 -23 -13
-31 -10 -7 3 -35 72 -61 153 -26 82 -59 171 -73 198 -39 74 -63 178 -70 297
l-6 106 45 94 c64 133 74 194 70 434 -2 110 2 265 7 345 6 80 15 219 21 310 6
91 17 242 25 335 8 94 17 226 20 295 5 119 28 230 47 230 5 0 28 -20 53 -44z
m-2186 -216 c17 -102 37 -219 45 -260 16 -76 50 -274 87 -495 16 -97 21 -178
24 -430 3 -312 12 -398 45 -452 14 -21 7 -62 -47 -304 l-14 -66 -80 -6 c-71
-5 -214 -47 -229 -67 -3 -4 -18 -14 -35 -23 -67 -34 -176 -161 -208 -243 -21
-53 -47 -182 -48 -236 l-1 -43 -15 35 c-16 37 -13 165 8 317 8 55 7 78 -3 95
-22 41 -15 165 15 245 23 64 25 79 17 124 -19 98 -10 160 40 289 17 43 24 99
35 265 8 116 15 260 15 320 1 159 34 423 80 630 12 55 25 116 30 135 13 61 72
203 108 260 42 67 83 113 93 103 4 -5 21 -91 38 -193z m-3383 -1021 c80 -15
193 -77 231 -127 45 -60 57 -107 35 -144 -9 -15 -22 -28 -28 -28 -6 0 -17 -7
-24 -15 -10 -12 -9 -16 6 -22 21 -7 34 -22 34 -38 0 -6 -19 -16 -42 -22 -46
-13 -87 -38 -77 -47 3 -3 23 3 44 14 47 24 68 25 85 5 16 -19 10 -26 -43 -45
-31 -11 -43 -22 -45 -39 -5 -34 10 -44 55 -36 37 6 39 8 35 37 -3 21 -1 29 7
24 6 -4 11 -13 11 -20 0 -7 7 -27 16 -44 25 -52 38 -157 25 -221 -6 -31 -15
-91 -21 -134 -17 -135 -57 -171 -190 -171 -78 0 -140 16 -238 62 -29 13 -55
22 -59 19 -13 -14 46 -46 149 -82 l109 -38 -4 -146 c-3 -80 -8 -153 -11 -161
-3 -8 -23 -26 -42 -40 -54 -36 -130 -32 -242 16 -97 42 -159 82 -190 123 l-20
28 26 54 c24 47 27 66 28 156 0 72 4 107 15 119 13 16 12 17 -14 10 -24 -6
-39 1 -97 44 -83 61 -121 125 -100 166 7 13 24 31 38 40 22 15 27 15 56 -1 42
-23 67 -17 91 24 11 18 34 50 52 70 37 43 70 115 79 172 4 21 11 39 16 39 6 0
7 -16 3 -40 -5 -30 -3 -40 7 -40 21 0 102 30 118 44 13 12 101 35 140 38 8 0
23 7 32 16 10 8 40 17 67 20 43 4 51 8 62 34 15 38 4 47 -22 19 -18 -19 -28
-22 -60 -17 -32 5 -40 3 -49 -14 -21 -39 -112 -67 -123 -37 -3 8 -17 0 -41
-23 -30 -28 -39 -32 -46 -20 -7 12 -12 11 -28 -8 -11 -12 -23 -22 -28 -22 -5
0 -10 28 -12 63 -4 99 -42 167 -42 75 0 -118 -49 -263 -86 -256 -10 2 -21 -14
-33 -51 -21 -59 -36 -74 -66 -66 -66 19 -91 17 -123 -10 -19 -16 -34 -40 -38
-60 -8 -46 38 -112 122 -172 62 -46 84 -78 84 -129 0 -69 -192 -5 -282 94
-194 214 -178 577 35 785 97 95 194 140 367 171 143 26 174 26 286 5z m1015
-661 c8 -36 7 -66 -5 -125 -21 -108 -22 -286 -2 -338 16 -43 22 -200 8 -209
-5 -3 -16 52 -25 122 -17 131 -24 544 -10 613 6 32 6 32 15 8 5 -13 14 -45 19
-71z m2889 -33 c257 -24 821 -48 1160 -49 l185 -1 8 -109 c5 -59 5 -111 2
-115 -9 -8 -413 -8 -593 1 -79 4 -216 14 -305 22 -89 8 -273 20 -408 25 -190
8 -255 14 -280 26 l-34 16 2 107 c1 59 2 110 2 114 1 3 25 0 54 -8 28 -8 122
-21 207 -29z m-4670 -328 c0 -8 -9 -22 -21 -33 -12 -10 -32 -41 -46 -67 -26
-52 -47 -176 -32 -192 6 -6 9 -6 9 0 3 121 86 303 121 268 8 -8 7 -24 -6 -56
-9 -25 -14 -54 -10 -66 9 -29 27 -26 19 3 -3 14 1 39 11 60 l17 35 37 -19 c29
-16 39 -29 50 -65 7 -25 17 -45 22 -45 17 0 9 -72 -11 -105 -12 -19 -37 -39
-62 -50 -307 -127 -390 -250 -468 -695 -12 -69 -25 -143 -28 -164 -7 -37 -8
-38 -25 -22 -12 13 -17 34 -17 76 0 36 -5 64 -14 72 -7 8 -19 31 -27 51 -11
31 -11 43 0 70 14 36 15 40 5 79 -5 24 -2 29 22 38 46 18 53 37 54 142 0 113
5 129 59 192 39 45 60 95 59 146 0 49 33 166 59 205 37 57 90 104 148 130 59
27 75 30 75 12z m4403 -13 c20 -8 46 -14 56 -14 42 0 111 -41 179 -107 56 -54
80 -87 112 -154 37 -78 42 -97 64 -274 13 -104 29 -203 36 -220 21 -55 28
-128 18 -200 -13 -87 -29 -119 -67 -136 -16 -7 -35 -27 -43 -44 -12 -27 -17
-30 -59 -30 -30 0 -54 -6 -66 -17 -16 -15 -83 -48 -97 -48 -11 0 -45 68 -51
103 -7 33 -4 41 30 78 39 43 70 106 81 164 4 23 12 35 23 35 9 0 25 13 34 29
l18 30 40 -44 c48 -52 61 -105 34 -135 -25 -27 -12 -37 14 -11 39 39 24 96
-44 175 -48 54 -85 136 -85 187 0 30 1 31 40 24 26 -4 40 -3 40 4 0 6 -9 11
-21 11 -39 0 -74 49 -98 140 -33 125 -51 169 -74 191 -33 30 -44 23 -50 -33
-9 -83 -34 -151 -70 -193 l-33 -38 -120 -3 c-65 -1 -122 0 -126 2 -4 3 2 23
12 47 11 23 19 51 19 62 0 12 -10 -1 -23 -30 -25 -54 -48 -79 -85 -90 l-24 -7
26 33 c14 19 37 74 51 123 14 49 37 104 51 122 14 19 22 34 17 34 -20 0 -53
-51 -72 -111 -12 -35 -26 -79 -31 -98 -13 -40 -45 -78 -81 -97 -27 -14 -70
-19 -80 -9 -8 9 32 186 53 234 10 24 17 47 14 50 -15 14 -46 -70 -75 -202 -20
-90 -25 -100 -53 -118 -32 -19 -30 -23 7 -19 17 2 18 -3 12 -55 -7 -65 -30
-114 -81 -175 -53 -63 -68 -97 -61 -135 7 -34 31 -63 43 -51 4 4 1 11 -7 16
-26 16 -18 83 15 126 l29 38 12 -48 c7 -27 25 -61 40 -77 36 -38 44 -29 10 11
-25 30 -30 43 -39 103 -5 29 10 37 20 11 3 -8 16 -19 28 -24 15 -6 26 -21 30
-42 11 -48 41 -103 80 -147 38 -41 43 -74 24 -130 -19 -54 -92 -69 -133 -27
-13 12 -30 26 -38 29 -7 4 -20 11 -28 16 -8 6 -27 12 -42 15 -15 4 -30 15 -33
26 -4 11 -19 27 -35 35 -22 11 -31 24 -35 53 -3 20 -11 60 -17 89 -15 71 -5
128 37 209 30 60 36 81 41 164 17 276 109 433 318 538 108 55 276 71 369 36z
m-3353 -198 c6 -83 14 -154 16 -158 11 -17 -26 -19 -82 -3 -114 32 -111 29
-119 102 -4 35 -4 91 0 123 l7 58 57 6 c32 4 67 13 77 21 10 7 22 11 26 7 3
-4 11 -74 18 -156z m-777 124 c31 -11 64 -20 73 -20 12 0 14 -6 9 -32 -11 -52
-42 -94 -94 -127 -60 -39 -80 -41 -56 -5 19 30 15 86 -11 136 -16 31 -11 68
10 68 6 0 37 -9 69 -20z m1992 -49 c138 -14 376 -41 413 -47 l32 -5 0 -91 0
-91 -87 7 c-49 3 -223 10 -388 15 -165 6 -329 13 -363 17 l-64 7 6 30 c3 16 6
60 6 98 l0 69 178 0 c97 0 218 -5 267 -9z m1390 -61 c-4 -17 -10 -61 -13 -97
l-7 -67 -65 -12 c-166 -30 -286 -44 -379 -44 l-101 0 0 54 c0 29 -3 75 -7 101
l-6 48 69 -6 c96 -8 310 9 419 32 50 11 91 20 93 20 2 1 1 -13 -3 -29z m-707
4 c12 -2 22 -12 22 -21 0 -14 -12 -15 -94 -10 -105 6 -106 5 -106 -61 0 -78 2
-80 101 -88 73 -5 89 -10 87 -22 -5 -24 -50 -31 -136 -19 l-80 10 -6 36 c-3
20 -6 71 -6 113 l0 76 98 -4 c53 -3 107 -7 120 -10z m21 -63 c7 -5 16 -31 18
-58 l5 -49 -80 7 c-115 10 -122 13 -122 58 0 21 3 41 7 44 10 10 156 8 172 -2z
m-2567 -123 c60 -45 205 -100 280 -106 59 -4 72 -2 111 21 24 14 50 39 58 54
l14 29 48 -14 c53 -15 73 -43 83 -116 9 -66 -2 -110 -38 -145 -49 -48 -106
-43 -181 17 -16 12 -33 22 -38 22 -5 0 -29 -18 -52 -40 -50 -48 -69 -54 -150
-48 -110 9 -273 117 -384 253 -56 68 -41 102 50 116 28 5 63 17 77 28 l25 20
31 -32 c16 -18 46 -44 66 -59z m4143 -6 c42 -150 56 -192 67 -192 7 0 8 -14 4
-39 -3 -22 -1 -63 5 -91 8 -38 8 -55 0 -63 -17 -17 -13 -29 9 -22 39 12 14
-50 -26 -65 -14 -6 -24 -18 -24 -29 0 -36 -39 -125 -71 -164 -38 -46 -122
-110 -174 -131 -21 -9 -61 -16 -90 -16 -126 0 -288 139 -330 283 -11 38 -22
57 -32 57 -20 0 -42 29 -43 54 0 15 3 16 15 6 20 -17 32 -5 15 15 -10 12 -11
24 -1 54 6 21 11 61 11 88 l0 49 98 12 c53 7 164 13 246 15 l148 2 37 41 c37
42 64 110 77 193 l7 44 18 -22 c10 -12 25 -47 34 -79z m-4442 -19 c13 -64 156
-203 277 -270 146 -81 248 -80 327 4 24 25 37 23 92 -14 51 -34 125 -32 168 6
18 15 37 40 43 55 15 39 12 131 -4 171 -18 41 -12 43 69 21 103 -27 129 -47
223 -169 l37 -48 -9 -89 c-8 -73 -6 -119 12 -252 12 -90 27 -194 34 -232 9
-48 11 -91 5 -140 -14 -116 -14 -116 -45 -116 -36 0 -90 -34 -104 -65 -15 -34
-26 -31 -33 8 -4 21 4 68 24 139 43 156 55 251 48 397 -4 68 -9 127 -12 130
-14 14 -21 -25 -13 -77 15 -108 -38 -468 -79 -531 -13 -20 -21 -23 -57 -18
-167 22 -241 28 -391 29 -179 2 -507 -15 -539 -28 -19 -7 -19 -3 -12 127 4 74
13 161 21 193 14 59 11 91 -6 65 -5 -8 -9 -27 -9 -44 0 -23 -3 -27 -10 -15 -5
8 -10 28 -10 44 0 15 -7 55 -16 88 -17 69 -12 116 14 114 18 -1 24 25 7 31 -6
2 -20 -3 -30 -11 -24 -17 -24 -30 -2 -326 11 -149 12 -248 6 -365 -4 -88 -8
-161 -9 -163 0 -1 -9 3 -20 10 -28 18 -37 2 -11 -19 23 -19 26 -36 23 -116
l-2 -48 -27 20 c-60 43 -188 52 -388 25 -66 -8 -133 -22 -149 -30 -16 -8 -31
-13 -33 -11 -1 2 4 34 13 70 12 45 24 71 39 81 34 22 229 49 313 43 67 -5 93
3 56 17 -46 18 -287 -3 -352 -30 l-34 -14 4 33 c12 82 89 582 104 667 15 87
48 221 88 360 8 30 24 66 36 82 11 15 20 32 20 37 0 28 103 112 191 155 52 25
97 46 100 46 4 0 9 -12 12 -27z m6519 -40 c16 -14 17 -35 12 -207 -3 -105 -1
-301 5 -436 10 -260 19 -315 87 -510 25 -71 26 -82 19 -205 -6 -112 -10 -136
-31 -172 -31 -54 -138 -150 -176 -158 -56 -13 -53 9 11 80 34 37 63 77 65 89
18 86 12 167 -12 186 -8 6 -46 84 -56 114 -13 40 -18 2 -20 -155 -1 -142 -3
-163 -18 -173 -29 -18 -47 12 -69 110 -62 279 -75 444 -44 551 21 71 17 111
-41 398 -57 278 -76 406 -64 420 16 19 119 68 173 81 60 15 135 9 159 -13z
m-353 -190 c7 -38 27 -138 46 -223 47 -215 69 -376 61 -433 -7 -42 -26 -76
-26 -45 0 28 -21 180 -45 333 -14 88 -32 212 -40 275 -9 63 -18 125 -20 138
-3 12 -2 22 3 22 5 0 14 -30 21 -67z m-2557 -525 c2 -15 13 -26 33 -32 48 -15
88 -34 114 -56 23 -20 23 -21 5 -35 -32 -26 -51 -35 -126 -60 -76 -26 -89 -26
-67 1 8 10 15 51 17 110 4 87 16 124 24 72z m372 -3 c99 -76 225 -74 337 6 17
12 31 20 33 18 2 -2 11 -28 22 -58 11 -31 32 -65 52 -82 28 -25 31 -31 20 -48
-17 -28 -122 -76 -222 -103 -85 -23 -86 -23 -172 -5 -97 20 -146 42 -187 82
-31 32 -34 50 -9 64 19 10 72 109 72 135 0 23 16 20 54 -9z m-2324 -5 c28 -8
45 -23 79 -76 l44 -67 10 -137 11 -137 -27 -56 c-28 -56 -45 -71 -72 -61 -18
7 -19 27 -3 110 10 55 9 69 -7 111 -10 26 -30 64 -44 84 -22 31 -34 38 -88 49
-78 15 -111 8 -119 -25 -3 -14 -15 -30 -25 -36 -22 -11 -25 -49 -6 -68 6 -6
12 -26 12 -44 0 -27 6 -35 43 -55 35 -20 41 -27 36 -47 -8 -34 9 -58 66 -95
46 -30 55 -32 105 -25 46 5 55 4 55 -9 0 -32 -96 -63 -175 -57 -12 1 -36 24
-60 56 -48 67 -60 54 -16 -17 18 -28 30 -52 28 -55 -2 -2 -16 1 -31 7 -18 6
-33 25 -48 57 -11 27 -22 43 -25 37 -2 -6 6 -32 17 -58 26 -61 26 -61 -10 -36
-16 12 -33 33 -36 48 -9 36 -14 43 -25 37 -5 -4 -3 -21 6 -41 22 -54 -5 -37
-35 22 -24 47 -25 56 -25 224 0 173 0 176 28 222 66 114 211 173 337 138z
m2177 -111 c-56 -32 24 -115 150 -156 108 -34 202 -34 303 2 94 34 171 77 189
106 12 20 11 24 -5 36 -21 15 -12 18 14 3 9 -5 29 -14 45 -20 15 -5 27 -14 27
-18 0 -11 -62 -63 -122 -104 -41 -28 -150 -72 -205 -83 -53 -11 -158 -8 -215
5 -129 31 -258 127 -258 193 0 13 81 59 90 50 3 -2 -3 -9 -13 -14z m-87 -72
c0 -22 82 -94 142 -126 132 -68 285 -77 435 -23 87 31 130 56 203 121 25 22
48 41 51 41 13 0 78 -31 172 -83 l99 -55 -31 -34 c-17 -19 -39 -56 -50 -82
-27 -62 -53 -204 -55 -296 l-1 -75 -545 3 c-300 1 -561 5 -581 8 l-36 5 -6
157 c-7 187 -29 283 -73 319 l-28 22 49 22 c65 29 226 88 243 89 6 0 12 -6 12
-13z m-2155 -39 c49 -24 85 -78 86 -130 1 -18 -4 -64 -9 -101 -6 -38 -8 -75
-5 -83 10 -26 -25 -26 -70 0 -61 36 -84 63 -68 79 9 9 22 6 61 -14 61 -33 67
-14 7 21 -23 14 -46 27 -52 29 -56 19 -95 45 -95 63 0 18 4 19 38 13 20 -3 56
-17 80 -30 23 -13 42 -20 42 -16 0 18 -42 44 -101 62 -72 22 -90 35 -82 55 8
23 58 16 126 -16 35 -16 67 -30 72 -30 20 0 -25 36 -71 56 -28 12 -58 30 -68
39 -41 41 27 43 109 3z m-351 -114 c12 -5 15 -15 10 -43 -7 -46 12 -154 36
-202 l19 -37 -57 -6 c-34 -4 -71 -2 -89 5 -27 9 -35 19 -53 76 l-21 65 41 54
c42 56 79 94 91 94 4 0 14 -3 23 -6z m5233 -276 c9 -18 20 -60 24 -93 9 -73
-10 -116 -83 -187 -51 -50 -62 -55 -74 -37 -11 18 17 59 41 59 12 0 30 6 41
14 17 13 19 28 20 133 1 165 2 166 31 111z m-5158 -57 c18 -29 -31 -166 -76
-213 -32 -34 -53 -36 -53 -5 0 12 -11 68 -25 125 -14 57 -25 105 -25 108 0 3
39 3 86 1 56 -2 88 -7 93 -16z"/>
<path d="M3856 1528 c-2 -13 -9 -81 -15 -153 -18 -206 -58 -430 -130 -725 -21
-85 -44 -195 -51 -245 -7 -49 -25 -157 -41 -240 -16 -82 -29 -153 -29 -157 0
-5 8 -8 18 -8 15 0 21 17 35 97 44 251 69 380 111 568 14 61 30 144 37 185 13
75 13 75 21 35 4 -22 7 -204 6 -405 -1 -390 4 -480 29 -480 11 0 14 7 10 23
-10 37 -10 1143 -1 1158 11 17 22 369 12 369 -4 0 -10 -10 -12 -22z"/>
</g>
</svg>
