<?xml version="1.0" standalone="no"?>
<!DOCTYPE svg PUBLIC "-//W3C//DTD SVG 20010904//EN"
 "http://www.w3.org/TR/2001/REC-SVG-20010904/DTD/svg10.dtd">
<svg version="1.0" xmlns="http://www.w3.org/2000/svg"
 width="602.000000pt" height="512.000000pt" viewBox="0 0 602.000000 512.000000"
 preserveAspectRatio="xMidYMid meet">
<metadata>
Created by potrace 1.16, written by Peter Selinger 2001-2019
</metadata>
<g transform="translate(0.000000,512.000000) scale(0.100000,-0.100000)"
fill="#000000" stroke="none">
<path d="M3345 4971 c-11 -5 -46 -6 -77 -3 -37 3 -58 1 -58 -6 0 -6 6 -12 12
-14 7 -3 -12 -8 -43 -11 -76 -9 -134 -31 -194 -72 -103 -71 -135 -161 -139
-393 -3 -149 -2 -155 20 -182 17 -20 24 -40 24 -70 0 -46 27 -79 105 -128 22
-13 42 -26 44 -28 12 -11 -91 -104 -148 -134 -77 -41 -85 -54 -156 -249 -50
-138 -52 -149 -30 -165 13 -10 9 -34 -29 -189 -24 -98 -45 -180 -48 -182 -2
-2 -17 34 -32 81 -28 80 -34 89 -109 160 -43 40 -82 74 -87 74 -4 0 -10 9 -13
19 -4 16 4 21 42 31 76 20 100 31 130 62 83 85 114 385 60 586 -34 130 -85
205 -161 237 -24 10 -66 29 -93 42 -100 46 -247 38 -363 -21 -123 -62 -212
-190 -230 -328 -15 -117 -6 -318 17 -386 13 -38 18 -72 15 -91 -5 -25 -3 -31
12 -31 9 0 32 -5 50 -12 26 -9 39 -9 60 1 15 6 28 10 30 8 5 -4 -55 -73 -118
-136 -39 -38 -54 -66 -94 -169 -40 -103 -46 -127 -36 -143 13 -21 15 -69 6
-119 -5 -23 -16 -36 -40 -47 -29 -14 -36 -14 -73 1 -23 9 -59 16 -81 16 l-40
0 0 -73 c0 -40 -4 -77 -8 -82 -20 -22 -42 -105 -48 -176 -7 -80 7 -127 43
-148 16 -9 16 -11 1 -28 -12 -13 -23 -74 -42 -233 -27 -221 -31 -286 -20 -315
11 -27 76 -53 157 -60 42 -4 77 -11 77 -17 0 -7 -84 -399 -115 -535 -7 -32 42
-83 114 -118 l61 -29 0 -83 c0 -46 -4 -83 -9 -83 -21 0 -30 -68 -33 -247 l-3
-193 -96 -90 c-98 -91 -116 -117 -95 -144 13 -18 98 -37 142 -31 146 18 215
29 220 36 2 4 11 6 18 3 24 -9 95 16 106 36 12 23 17 90 25 382 6 200 6 207
-14 227 -15 15 -21 34 -21 65 0 50 13 65 35 42 8 -8 49 -22 90 -31 l75 -17 0
-41 c0 -22 -7 -48 -15 -57 -13 -14 -12 -40 1 -218 l15 -202 -66 -102 c-91
-142 -96 -170 -30 -182 20 -4 57 -4 83 -1 47 6 228 61 247 75 6 4 23 10 38 14
44 10 60 60 46 139 -6 34 -14 149 -18 255 -5 168 -4 192 9 190 10 -2 16 -17
18 -43 2 -22 9 -93 16 -157 11 -95 17 -121 34 -135 16 -14 22 -39 31 -122 l11
-104 -39 -42 c-74 -81 -90 -143 -47 -184 30 -28 80 -36 136 -21 35 9 63 29
128 94 90 90 98 112 63 170 -12 20 -21 61 -25 113 -7 84 1 108 26 77 43 -54
68 -73 104 -79 21 -4 58 -16 81 -27 53 -25 193 -26 273 -2 78 23 206 91 235
125 13 16 27 46 31 67 4 20 11 42 16 49 6 7 6 27 2 45 -22 98 14 224 77 269
l31 22 39 -22 c28 -16 56 -22 96 -22 l56 0 -7 -101 c-6 -100 -7 -102 -45 -143
-22 -24 -47 -57 -56 -75 -20 -39 -22 -99 -4 -129 33 -52 150 -77 223 -47 60
25 136 89 156 131 21 44 26 100 10 110 -5 3 -10 46 -10 95 l0 89 53 -6 c39 -4
90 4 203 30 178 42 224 59 225 84 5 141 -16 345 -40 388 -9 17 -32 38 -51 47
-53 27 -66 65 -74 208 -4 69 -13 173 -20 233 -7 65 -8 111 -2 117 5 5 -5 39
-28 86 -42 88 -134 187 -204 218 -23 10 -42 23 -42 27 0 4 15 13 34 19 19 6
54 28 78 49 24 21 57 41 75 45 18 4 46 23 63 43 27 31 31 42 29 87 -1 28 4 78
11 111 8 39 10 90 6 147 l-7 87 30 -1 c38 -1 76 24 101 65 22 35 26 62 9 52
-24 -16 -61 7 -95 60 -19 30 -48 62 -64 70 -37 19 -91 19 -116 0 -27 -21 -59
-18 -128 9 -34 13 -85 27 -113 31 l-53 7 0 45 c0 59 -11 77 -70 110 -29 16
-50 35 -50 45 0 27 -55 177 -100 273 -24 50 -44 99 -45 110 -1 11 -3 23 -4 27
-2 10 -106 78 -120 78 -6 0 -11 5 -11 10 0 19 -40 50 -65 50 -16 0 -32 11 -47
31 -13 17 -38 42 -57 54 l-33 23 53 27 c30 15 65 37 79 50 14 12 36 26 50 30
44 14 72 38 91 79 9 21 15 49 12 60 -3 12 -6 102 -7 201 -1 164 -3 184 -23
220 -12 22 -30 49 -41 61 -11 11 -22 29 -26 40 -8 26 -57 54 -94 54 -22 0 -32
6 -37 21 -4 11 -21 29 -38 40 -35 21 -34 21 -62 10z m58 -31 c13 -11 27 -30
31 -43 4 -19 11 -23 31 -20 31 7 75 -4 75 -18 0 -6 -4 -7 -10 -4 -5 3 -10 3
-10 -2 1 -4 15 -17 32 -28 18 -11 46 -42 63 -69 29 -48 30 -54 33 -183 4 -141
0 -175 -20 -155 -7 7 -22 12 -34 12 -18 0 -26 13 -49 79 -15 44 -39 92 -52
108 l-24 28 3 -42 c2 -24 0 -43 -3 -43 -11 0 -64 70 -84 110 -10 19 -19 37
-21 39 -2 2 -22 -13 -44 -33 -50 -45 -66 -46 -40 -3 39 64 26 70 -47 23 -76
-48 -127 -76 -142 -76 -5 0 6 23 25 51 41 61 37 75 -9 32 -45 -42 -102 -83
-115 -83 -7 0 -4 17 9 46 11 26 18 49 16 51 -7 6 -91 -86 -109 -119 -13 -23
-18 -55 -18 -105 0 -77 -14 -98 -26 -38 -16 86 20 271 65 334 52 73 182 131
292 131 54 0 77 11 47 23 -8 3 -6 6 5 6 10 1 40 -10 67 -24 53 -27 60 -24 34
13 -19 27 -5 29 29 2z m-148 -277 c-14 -21 -25 -41 -25 -46 0 -13 41 2 75 27
51 38 53 38 69 9 18 -35 95 -123 107 -123 5 0 9 15 10 33 0 31 1 31 23 -19 13
-27 29 -73 36 -102 8 -29 17 -52 22 -52 4 0 8 5 8 11 0 6 10 9 23 7 14 -2 29
-17 41 -41 16 -33 17 -45 7 -77 -6 -21 -25 -50 -42 -64 -54 -46 -69 -27 -19
22 29 29 37 62 24 96 -7 18 -39 21 -50 5 -4 -7 0 -9 14 -5 17 6 23 2 28 -19 4
-15 1 -37 -6 -51 -14 -24 -30 -32 -30 -14 0 26 -19 6 -25 -26 -8 -47 -37 -75
-121 -117 -165 -82 -261 -92 -369 -37 -37 19 -85 50 -108 71 l-41 36 3 194 c2
171 5 198 22 225 11 18 26 37 34 44 14 11 14 10 5 -14 -17 -45 -2 -49 56 -16
l55 31 -17 -26 c-16 -24 -15 -25 4 -25 25 0 116 42 162 74 49 35 55 32 25 -11z
m-902 -241 c19 -10 51 -25 72 -32 62 -21 120 -82 154 -163 83 -202 60 -550
-45 -654 -41 -42 -64 -43 -30 -2 25 29 37 77 16 64 -5 -3 -10 -12 -10 -19 0
-21 -51 -67 -97 -88 -41 -18 -44 -18 -68 -1 -13 10 -25 20 -25 23 0 3 27 22
60 43 55 34 77 38 48 9 -13 -13 -5 -27 11 -18 23 15 43 115 48 243 6 130 5
133 -23 188 -27 54 -176 225 -195 225 -5 0 -34 -20 -64 -45 -47 -38 -187 -115
-209 -115 -4 0 14 18 42 39 72 57 143 148 142 183 -1 7 -7 -2 -15 -20 -19 -44
-151 -171 -212 -205 -28 -15 -66 -28 -84 -29 l-34 -3 -3 -141 c-4 -167 4 -206
58 -266 42 -48 42 -58 2 -58 -19 0 -23 4 -19 20 6 24 3 25 -30 3 l-26 -17 6
26 c4 16 -1 48 -14 84 -15 42 -22 94 -26 184 -10 226 25 346 126 443 98 93
194 129 328 123 59 -3 92 -9 116 -24z m-22 -261 c130 -137 159 -215 141 -378
-10 -88 -14 -99 -44 -130 -18 -19 -65 -50 -104 -69 -117 -58 -240 -62 -327
-10 -60 35 -126 104 -137 146 -15 54 -13 300 3 304 6 3 24 7 39 10 23 5 26 3
21 -11 -6 -16 -4 -16 15 1 22 19 22 19 43 0 22 -19 22 -19 10 4 -7 13 -11 25
-9 26 2 2 29 13 61 26 65 26 162 86 191 118 11 12 24 22 30 22 6 0 36 -27 67
-59z m1129 -177 c0 -19 -63 -67 -133 -102 -54 -27 -135 -62 -142 -62 -1 0 -5
19 -8 43 -4 23 -9 54 -12 68 -6 25 -4 26 74 43 97 20 150 41 158 62 5 12 11
10 34 -12 16 -15 29 -33 29 -40z m9 -46 c-41 -77 -186 -272 -337 -452 -106
-128 -313 -358 -318 -354 -1 2 8 102 22 223 27 241 27 334 -1 163 -3 -21 -10
-38 -16 -38 -22 0 -109 51 -109 64 0 14 87 258 110 307 13 28 41 47 113 78
l46 20 31 -55 c17 -31 36 -54 43 -51 6 2 26 27 43 56 30 50 33 52 43 32 6 -11
16 -44 21 -72 6 -29 12 -54 14 -56 10 -11 172 64 232 107 38 27 70 49 72 49 1
1 -3 -9 -9 -21z m95 -11 c7 -11 2 -26 -19 -59 -46 -67 -228 -300 -339 -433
-217 -261 -516 -573 -535 -560 -5 2 -11 19 -13 35 -4 28 3 39 65 98 214 207
575 635 735 874 46 68 55 76 74 69 12 -4 27 -15 32 -24z m64 -45 c9 -6 5 -15
-14 -33 -31 -29 -67 -98 -84 -158 -23 -88 -49 -260 -52 -346 -1 -56 -4 -65
-25 -74 -13 -6 -27 -11 -30 -11 -14 0 6 269 26 345 25 96 82 219 118 258 28
28 40 32 61 19z m64 -49 c17 -16 17 -17 -11 -34 -35 -21 -73 -99 -96 -194 -14
-58 -16 -114 -13 -334 3 -244 2 -265 -15 -275 -14 -8 -20 -8 -27 4 -5 8 -8
147 -7 320 2 284 4 310 24 370 30 89 76 160 104 160 13 0 31 -7 41 -17z m52
-126 c54 -115 106 -253 106 -282 0 -19 -11 -33 -47 -55 -59 -38 -144 -70 -184
-70 l-31 0 4 148 c3 121 8 159 27 212 21 61 63 130 79 130 4 0 25 -37 46 -83z
m-299 -49 c-24 -79 -45 -232 -45 -328 l0 -85 -96 -49 c-91 -47 -153 -99 -155
-131 -1 -8 -3 -19 -4 -25 -1 -5 -3 -124 -4 -263 l-1 -253 -30 -2 c-19 -1 -37
5 -50 18 -19 19 -45 25 -80 20 -23 -3 -26 -10 -10 -20 27 -17 -104 2 -140 20
-72 37 -72 35 -52 222 l17 166 142 154 c158 171 363 411 456 534 34 45 63 80
65 79 2 -2 -4 -27 -13 -57z m-1215 -160 c0 -22 -11 -32 -76 -68 -74 -40 -76
-41 -96 -23 -30 27 -42 53 -29 66 6 6 11 20 11 32 0 19 6 20 95 20 l95 0 0
-27z m561 -29 c35 -17 40 -24 35 -47 -3 -15 -10 -76 -16 -137 -16 -164 -9
-151 -91 -170 -39 -9 -73 -14 -76 -12 -6 7 91 387 100 387 4 0 26 -9 48 -21z
m-815 -61 c64 -27 75 -34 70 -51 -7 -27 10 -57 32 -57 24 0 42 19 42 46 0 15
8 23 28 27 15 4 72 16 126 27 55 11 105 25 112 31 8 7 14 7 19 -1 13 -20 -48
-93 -226 -270 l-175 -176 -55 0 c-30 -1 -74 -8 -99 -17 -24 -9 -45 -15 -47
-14 -1 2 9 68 22 147 14 80 25 154 25 165 -1 41 -17 -9 -31 -92 -7 -46 -17
-83 -22 -83 -17 0 -66 34 -72 49 -3 8 15 71 42 138 38 101 53 127 78 143 39
26 43 25 131 -12z m504 -56 c0 -17 -403 -422 -420 -422 -5 0 -10 9 -10 20 0
11 -4 20 -10 20 -23 0 -3 24 141 166 83 82 173 177 202 212 l51 62 23 -22 c13
-12 23 -28 23 -36z m1363 -93 l7 -56 -45 -13 c-25 -7 -65 -25 -90 -41 l-45
-28 -5 22 c-2 12 -6 48 -7 80 l-3 58 65 26 c36 14 74 32 85 40 18 12 20 11 26
-9 3 -13 9 -48 12 -79z m-1269 -28 c36 -110 66 -222 66 -249 0 -18 -11 -28
-52 -47 -29 -13 -71 -27 -93 -30 l-41 -7 -13 93 c-7 51 -17 103 -22 114 -15
39 -10 -29 16 -189 14 -85 25 -162 25 -170 0 -15 -59 -36 -238 -85 l-73 -20
-49 42 -49 42 0 87 c-1 81 1 88 24 107 62 48 296 276 360 350 l69 80 23 -21
c12 -11 34 -55 47 -97z m930 -22 c3 -34 6 -90 6 -125 l0 -62 -51 -17 c-49 -17
-52 -17 -134 9 -47 15 -97 37 -112 51 l-28 24 25 25 c21 21 262 155 281 156 3
0 9 -28 13 -61z m639 -38 c51 -20 57 -25 57 -51 0 -29 30 -57 49 -45 5 3 12
-4 16 -15 6 -20 39 -34 64 -28 21 5 49 -43 67 -112 12 -48 15 -89 11 -158 -3
-52 -8 -96 -11 -99 -2 -3 -15 2 -28 11 -12 9 -32 16 -44 16 -16 0 -28 14 -48
54 -33 67 -151 187 -214 216 -44 21 -46 21 -59 3 -48 -67 -167 -158 -232 -178
-20 -6 -18 -2 14 26 47 42 125 145 125 167 0 9 -13 -4 -28 -29 -67 -105 -175
-196 -267 -225 -30 -10 -52 -21 -49 -26 4 -5 -2 -15 -12 -23 -17 -12 -20 -11
-25 13 -10 50 9 188 37 257 48 119 157 211 290 244 67 17 222 7 287 -18z m268
-33 c82 -92 105 -115 119 -120 12 -4 9 -12 -15 -37 -16 -17 -39 -34 -51 -37
-26 -7 -64 11 -64 29 0 7 -11 29 -25 49 -14 20 -25 45 -25 55 0 26 -19 43 -47
43 -13 0 -23 6 -23 13 0 23 23 37 63 37 31 0 44 -6 68 -32z m-1151 -112 c30
-13 81 -30 112 -37 43 -9 58 -17 62 -33 8 -29 7 -469 0 -545 -6 -58 -8 -61
-33 -61 -56 0 -116 28 -168 78 -31 31 -47 53 -40 56 8 3 4 11 -10 22 -23 16
-23 18 -23 273 0 141 3 266 6 279 6 20 8 21 23 8 9 -8 41 -26 71 -40z m250
-30 c0 -8 9 -18 21 -21 16 -5 19 -12 14 -28 -23 -74 -35 -140 -35 -194 0 -84
20 -214 35 -233 7 -8 16 -30 20 -47 3 -18 11 -35 16 -38 5 -4 9 -10 9 -14 0
-9 -78 -49 -120 -61 l-25 -7 0 317 0 318 25 10 c35 14 40 14 40 -2z m-1990
-46 c0 -5 7 -7 15 -4 18 7 20 -7 3 -26 -11 -12 -10 -12 4 -1 9 7 26 10 37 6
30 -9 81 -79 82 -111 0 -28 1 -28 9 -6 5 12 16 22 25 22 8 0 15 4 15 9 0 15
137 79 205 96 80 20 115 20 116 -2 3 -43 -3 -258 -7 -262 -5 -5 -33 30 -34 42
0 5 6 5 13 1 7 -5 7 -1 -3 12 -8 10 -15 20 -16 22 0 1 -1 -11 -2 -28 0 -16 5
-30 11 -31 7 0 0 -6 -16 -13 -31 -14 -104 -87 -108 -107 -4 -26 14 -74 40
-102 21 -23 32 -27 57 -22 47 8 64 -2 64 -40 l0 -32 -112 -6 c-62 -3 -134 -13
-160 -21 -27 -8 -48 -12 -48 -9 0 3 -6 0 -13 -6 -10 -8 -21 -2 -48 25 -19 20
-60 52 -91 71 -55 34 -75 63 -43 63 8 0 15 5 15 10 0 6 5 10 11 10 6 0 9 -6 6
-14 -6 -14 60 -52 71 -41 13 13 -17 41 -64 60 -61 24 -61 24 -45 34 11 7 11
10 0 14 -8 3 12 6 44 6 31 1 57 5 57 10 0 5 -8 7 -18 4 -13 -3 -18 2 -18 16 0
25 0 25 31 5 31 -20 32 -42 3 -48 -13 -3 -32 -7 -43 -9 -14 -3 -12 -5 8 -6 62
-2 92 48 42 71 -24 11 -30 28 -25 72 1 10 -3 28 -8 40 -6 12 -13 29 -16 39 -3
9 -19 20 -36 23 -28 6 -30 10 -30 51 l0 44 33 -16 32 -16 -27 23 c-16 13 -28
31 -28 40 0 9 -5 18 -12 20 -6 2 -8 10 -4 16 9 14 26 16 26 2z m2586 -35 c109
-84 190 -202 177 -256 -6 -23 -6 -23 14 -6 45 39 93 1 93 -74 0 -52 -26 -92
-67 -104 -29 -8 -30 10 -3 25 49 26 63 121 19 135 -21 7 -39 -1 -39 -17 0 -7
5 -7 14 1 11 9 18 8 31 -5 23 -24 12 -61 -33 -106 -20 -20 -47 -50 -60 -67
-64 -85 -302 -130 -479 -91 -63 15 -136 54 -167 90 -24 29 -26 38 -25 118 2
128 7 143 53 158 21 8 52 22 70 33 17 10 47 21 67 25 50 9 145 72 199 133 25
28 52 51 61 52 9 1 43 -19 75 -44z m-1447 -92 c27 -136 27 -183 1 -216 -26
-32 -41 -37 -289 -92 -112 -24 -209 -49 -215 -53 -32 -26 -71 -29 -118 -11
-31 12 -59 16 -79 12 -51 -10 -31 19 24 37 26 8 47 18 47 23 0 10 -20 8 -65
-8 -51 -19 -65 -19 -65 0 0 8 17 19 43 25 23 6 53 15 67 20 23 8 22 8 -10 9
-19 0 -53 -6 -75 -14 -44 -16 -54 -12 -39 13 15 23 82 45 122 38 17 -2 32 -1
32 5 0 10 -17 13 -67 11 -40 -1 -43 12 -5 27 22 9 37 9 70 -3 23 -8 42 -11 42
-7 0 5 -7 11 -15 15 -15 6 -21 46 -7 46 4 0 23 -16 42 -35 22 -22 43 -35 59
-35 25 1 316 82 325 91 2 2 -2 33 -10 69 -7 36 -14 70 -14 76 0 6 24 16 53 23
28 6 63 18 77 26 14 8 30 14 36 15 6 0 21 -48 33 -107z m61 -128 c0 -152 -3
-185 -14 -185 -8 0 -38 -16 -67 -36 -51 -34 -55 -35 -91 -23 -33 11 -38 16
-38 44 0 29 3 32 53 44 124 31 147 68 127 207 -12 87 -11 96 5 114 10 11 20
20 22 20 1 0 3 -83 3 -185z m-1173 59 c2 -7 -14 -14 -37 -18 -57 -9 -50 -22
12 -21 32 0 53 -5 55 -12 3 -9 -8 -13 -35 -13 -22 0 -47 -3 -56 -6 -30 -12
-16 -20 32 -20 35 1 47 -3 47 -14 0 -11 -12 -15 -43 -16 -51 -1 -70 -14 -21
-14 65 0 81 -32 17 -34 -30 -1 -33 -4 -38 -36 l-5 -35 -17 25 c-20 28 -25 140
-8 185 14 38 87 60 97 29z m1498 -229 c14 -13 25 -29 25 -36 0 -7 8 -5 20 6
14 13 26 15 47 10 21 -6 23 -9 11 -12 -25 -6 -22 -20 6 -27 32 -8 118 -103
145 -162 47 -99 62 -259 35 -362 l-6 -22 -26 25 c-13 14 -35 25 -48 25 -18 0
-30 14 -60 70 -39 75 -146 200 -171 200 -9 0 -43 -17 -77 -39 -63 -39 -140
-81 -151 -81 -4 0 10 20 29 44 20 23 36 51 36 60 0 14 -7 12 -42 -12 -62 -42
-179 -108 -206 -117 -21 -6 -23 -5 -13 13 6 11 26 41 46 66 19 25 31 46 27 46
-16 0 -149 -98 -175 -130 -15 -17 -27 -40 -27 -50 0 -10 -7 -20 -15 -24 -20
-7 -20 45 0 138 42 197 161 325 336 362 76 16 139 12 198 -12 42 -17 49 -12
27 21 -21 32 -3 33 29 0z m-548 -92 c11 -83 10 -90 -13 -135 -13 -26 -24 -54
-24 -62 0 -20 -51 -33 -182 -48 -125 -14 -284 -1 -390 32 -64 20 -138 71 -138
95 0 17 115 39 212 39 72 1 77 2 83 24 3 13 3 27 0 32 -4 6 10 10 31 10 21 0
56 9 79 20 32 16 271 75 321 79 6 1 15 -35 21 -86z m-998 8 c7 -5 11 -13 7
-19 -6 -10 -53 -386 -58 -469 -2 -32 -6 -39 -15 -31 -18 15 -16 89 7 290 29
255 28 249 59 229z m116 -82 c60 -56 68 -61 90 -51 34 16 39 -8 20 -94 -37
-171 -72 -322 -78 -331 -3 -5 -29 -6 -64 -2 -32 4 -68 8 -80 8 -43 2 -44 25
-13 282 16 134 29 245 30 247 0 1 7 2 15 2 8 0 44 -28 80 -61z m1979 -11 c-12
-124 -26 -211 -39 -241 -7 -18 -10 -39 -6 -45 4 -7 4 -36 0 -65 -4 -28 -8 -79
-8 -112 -1 -56 -3 -61 -32 -77 -42 -24 -51 -23 -71 12 -14 25 -61 63 -91 73
-4 1 -3 25 4 52 19 85 14 230 -11 305 -12 36 -27 71 -32 78 -17 20 -4 23 45
12 58 -13 120 -4 177 25 65 32 69 31 64 -17z m554 -43 c92 -43 182 -141 227
-247 l15 -38 -80 -40 c-44 -22 -86 -40 -94 -40 -8 0 -17 14 -21 30 -4 17 -11
30 -16 30 -6 0 -7 -10 -4 -22 4 -13 9 -30 11 -39 3 -9 13 -19 22 -21 15 -4 20
-25 30 -129 18 -186 20 -176 -35 -184 -101 -14 -94 -7 -92 -103 l2 -85 -41
-12 -41 -13 -20 44 c-72 153 -150 369 -191 534 -32 125 -60 276 -60 321 l0 28
138 4 c75 1 151 4 167 5 17 1 54 -9 83 -23z m-400 -77 c35 -257 153 -623 288
-890 38 -76 43 -101 17 -96 -20 3 -104 162 -153 291 -71 184 -138 411 -185
631 -26 123 -26 156 3 156 14 0 20 -17 30 -92z m-14 -223 c60 -237 131 -450
200 -600 31 -67 36 -88 36 -151 l0 -74 -68 0 c-116 0 -308 63 -390 128 l-23
18 17 67 16 67 39 0 c46 0 57 19 66 111 5 55 5 56 -26 68 -17 8 -31 16 -31 20
0 3 23 98 50 210 28 111 50 207 50 213 0 20 -19 -4 -25 -32 -8 -37 -15 -37
-54 -4 l-30 25 16 42 c18 46 56 111 82 141 15 17 17 15 28 -45 6 -35 27 -127
47 -204z m-1914 222 c31 -15 91 -34 135 -43 102 -19 308 -22 403 -5 40 7 76
11 78 8 3 -3 1 -31 -5 -63 -6 -33 -12 -98 -13 -145 -3 -79 -1 -88 23 -120 14
-19 29 -47 33 -63 4 -17 23 -44 42 -62 18 -18 31 -39 28 -46 -3 -7 -70 -34
-149 -60 -152 -50 -333 -132 -342 -155 -3 -7 -17 -13 -32 -13 l-28 0 3 228 c2
148 0 211 -6 182 -5 -25 -9 -124 -9 -221 -1 -187 -4 -199 -51 -199 -33 0 -48
-11 -66 -46 -10 -19 -13 -41 -8 -67 5 -35 3 -42 -26 -68 -36 -33 -37 -67 -4
-80 16 -5 37 1 75 21 30 16 57 29 62 30 4 0 7 -27 7 -60 l0 -60 -34 0 c-83 0
-298 82 -367 140 l-33 27 88 394 c49 217 98 436 109 487 11 51 23 91 26 90 3
-2 31 -15 61 -31z m1246 -39 c84 -89 153 -202 154 -253 1 -18 1 -19 11 -2 26
44 79 1 79 -66 0 -55 -23 -93 -65 -107 -20 -7 -39 -10 -42 -7 -9 10 8 27 27
27 40 0 68 88 38 118 -15 15 -38 16 -38 0 0 -6 3 -8 7 -5 10 11 33 -14 33 -37
0 -45 -59 -93 -61 -48 0 9 -11 -7 -24 -36 -22 -48 -30 -56 -87 -81 -172 -78
-390 -69 -524 22 -81 55 -85 64 -85 216 -1 133 -1 133 28 163 15 16 48 44 72
60 l43 30 -36 -53 c-20 -30 -36 -56 -36 -59 0 -3 14 -5 30 -5 17 0 30 3 30 7
0 3 30 23 68 44 37 20 87 51 112 68 51 34 41 13 -19 -41 -78 -70 11 -51 145
31 49 30 91 55 94 55 3 1 24 -18 46 -41z m1318 -250 c15 -123 26 -258 26 -328
0 -60 5 -85 25 -124 25 -49 33 -106 16 -106 -5 0 -13 9 -16 20 -3 11 -11 20
-16 20 -11 0 -11 2 0 -36 10 -34 0 -61 -18 -50 -6 4 -11 18 -11 31 0 41 -17
37 -23 -6 -3 -22 -8 -44 -12 -47 -10 -11 -25 21 -25 56 0 45 -16 40 -24 -8
-10 -61 -26 -48 -26 21 0 54 -2 60 -17 54 -63 -26 -67 -17 -17 45 l36 45 -7
75 c-4 41 -13 131 -21 199 -8 68 -13 125 -12 127 5 4 123 62 129 63 4 1 10
-23 13 -51z m-954 -143 c0 -18 31 -28 63 -20 38 10 71 -37 62 -90 -3 -21 -8
-41 -10 -43 -2 -2 -30 -5 -62 -7 -32 -1 -71 -6 -88 -10 -25 -7 -28 -6 -19 6
12 14 26 79 30 132 1 15 2 34 3 43 1 18 21 9 21 -11z m-170 -97 c0 -24 4 -48
8 -54 15 -23 52 -34 111 -34 65 0 66 -1 55 -58 -5 -24 -13 -31 -38 -36 -17 -4
-39 -16 -48 -29 l-17 -22 -94 93 c-58 56 -102 92 -115 92 -33 0 -34 17 -3 30
16 6 38 20 49 30 17 16 40 24 80 29 8 1 12 -14 12 -41z m-545 -65 c44 -11 87
-14 165 -11 l105 5 -3 -76 c-6 -130 48 -298 103 -323 14 -6 25 -15 25 -19 0
-4 -18 -22 -40 -40 -22 -18 -37 -35 -35 -39 3 -5 -8 -13 -24 -18 -38 -13 -51
-38 -47 -93 3 -64 25 -100 66 -114 l34 -12 -49 -17 c-156 -56 -555 -10 -555
63 0 61 82 536 103 596 40 113 48 127 71 120 12 -3 48 -13 81 -22z m-212 -20
c-8 -21 -18 -78 -22 -127 l-6 -88 -97 -33 c-54 -19 -123 -45 -154 -59 -31 -14
-66 -25 -78 -25 -17 1 -17 2 -3 6 9 2 17 12 17 21 0 29 -48 120 -69 134 -12 7
-21 16 -21 20 0 15 167 92 300 139 74 26 138 48 142 48 4 1 0 -16 -9 -36z
m550 0 c-22 -107 4 -258 52 -303 33 -31 34 -73 3 -68 -29 4 -64 56 -86 127
-23 74 -24 257 -2 271 31 20 41 12 33 -27z m117 -17 c108 -95 231 -224 240
-251 6 -18 7 -42 1 -61 -11 -40 -172 -284 -187 -284 -14 0 -122 78 -149 109
l-19 22 37 32 c41 36 107 117 107 132 0 12 -94 85 -109 85 -22 0 -37 198 -19
243 10 25 53 13 98 -27z m1090 -32 c0 -50 -58 -130 -100 -136 -36 -5 -40 3
-40 88 0 69 -3 66 70 77 66 11 70 9 70 -29z m-2194 -130 c31 -8 68 -78 59
-112 -11 -43 -65 -132 -81 -132 -11 0 -13 9 -8 42 l7 41 -42 -7 c-24 -3 -70
-21 -103 -38 -42 -22 -62 -28 -70 -20 -18 18 -2 39 57 78 58 39 75 65 25 39
-38 -19 -39 -4 -2 24 20 15 23 20 10 21 -9 0 -20 -4 -23 -10 -9 -15 -25 -12
-25 4 0 8 18 21 40 30 48 19 52 30 8 21 -36 -8 -29 9 7 18 29 7 117 8 141 1z
m1410 -85 c-3 -15 -1 -31 4 -34 6 -4 11 -79 12 -173 l2 -167 6 156 5 156 53
-29 52 -30 0 -68 c0 -38 5 -81 12 -96 12 -25 10 -29 -22 -55 -58 -49 -91 -55
-155 -25 -116 53 -131 100 -64 202 60 93 65 162 14 222 l-25 30 56 -30 c52
-28 56 -33 50 -59z m1043 67 c30 -32 38 -69 51 -233 7 -96 8 -149 1 -161 -11
-21 -65 -38 -258 -82 -157 -35 -169 -32 -175 42 -2 29 -4 109 -3 176 0 140 6
153 82 167 30 5 40 3 50 -11 11 -16 17 -16 33 -6 11 7 20 8 20 3 0 -16 32 -22
48 -9 8 7 25 13 36 13 12 0 25 10 31 23 5 12 18 22 27 22 10 0 18 5 18 10 0 6
9 10 19 10 11 0 23 5 27 11 5 8 -1 10 -18 6 -22 -6 -26 -3 -30 18 -7 32 11 32
41 1z m-259 -37 c0 -23 -5 -28 -37 -34 -53 -10 -90 -31 -100 -57 -4 -13 -6
-99 -5 -192 l3 -168 -27 6 c-14 4 -39 10 -56 13 -16 3 -33 14 -39 24 -5 11 -8
82 -7 166 l3 148 20 -33 c15 -25 26 -32 45 -30 35 4 37 35 5 98 -15 29 -24 54
-22 57 14 13 109 31 159 30 55 -2 58 -3 58 -28z m-1774 -44 c5 -38 -17 -239
-28 -250 -2 -2 -41 -11 -88 -21 -96 -19 -217 -15 -315 11 -61 16 -79 30 -70
53 3 8 5 38 5 68 0 43 3 54 16 54 13 0 15 -7 11 -29 -7 -33 13 -57 38 -47 8 3
27 25 43 48 20 32 32 42 49 40 12 -2 37 5 55 14 32 17 256 103 270 104 4 0 10
-20 14 -45z m1249 -146 c39 -10 83 -21 98 -24 l28 -6 -7 -72 c-3 -40 -8 -75
-10 -79 -9 -14 -64 -19 -103 -8 -22 6 -56 26 -76 44 -34 32 -35 36 -35 106 0
65 2 71 18 65 9 -5 49 -16 87 -26z m236 -96 c1 -38 1 -72 0 -77 -1 -4 3 -23 9
-42 11 -33 17 -37 78 -49 28 -6 32 -10 32 -40 0 -31 -2 -33 -42 -39 -46 -7
-135 6 -170 25 -20 11 -20 16 -14 122 11 169 10 167 62 167 l44 0 1 -67z
m-2124 25 l82 -21 -5 -81 c-3 -44 -8 -83 -10 -85 -8 -8 -169 -5 -182 3 -8 5
-12 40 -12 113 0 104 0 105 23 99 12 -4 59 -16 104 -28z m1265 -68 c56 -45 62
-54 60 -83 -4 -43 -62 -93 -62 -52 0 11 -8 13 -32 8 l-33 -6 28 23 c39 31 27
36 -21 8 -47 -26 -70 -16 -29 14 34 25 36 46 2 24 -13 -9 -29 -16 -35 -16 -19
0 -10 31 18 56 l27 25 -27 -5 c-32 -7 -37 8 -11 36 25 28 48 22 115 -32z
m-722 -65 c0 -61 -2 -66 -26 -75 -37 -14 -167 -12 -186 3 -9 7 -18 34 -21 68
l-5 56 106 2 c58 1 108 3 110 6 16 15 22 -2 22 -60z m1005 6 c27 -17 67 -36
87 -42 l38 -10 0 -88 c0 -49 3 -102 6 -119 6 -27 2 -33 -27 -52 -37 -22 -112
-47 -171 -57 l-38 -6 0 47 c0 96 -44 151 -120 151 -48 0 -49 1 -58 38 -9 34
-8 37 12 38 40 0 160 73 185 112 14 21 27 33 30 28 3 -4 28 -23 56 -40z
m-1441 -315 c-8 -302 -9 -307 -67 -320 -20 -5 -29 -2 -33 9 -8 21 -31 19 -39
-4 -4 -15 -22 -22 -78 -32 -93 -17 -216 -17 -245 -1 -22 13 -22 13 -5 44 10
16 43 51 73 77 94 80 110 100 111 140 1 20 3 43 4 51 1 8 3 79 4 157 l1 141
30 -14 c35 -18 172 -21 213 -5 23 9 27 15 22 34 -6 16 -4 19 4 11 9 -8 10 -82
5 -288z m196 235 c0 -34 194 -40 244 -7 l26 16 0 -127 c1 -119 9 -238 25 -358
6 -43 4 -54 -14 -75 -16 -20 -23 -22 -29 -12 -7 11 -14 9 -33 -10 -32 -32
-206 -88 -273 -88 -97 0 -98 18 -5 160 l62 95 -2 80 c-1 44 -6 132 -11 195
-12 143 -12 140 0 140 6 0 10 -4 10 -9z m433 -58 c45 -13 102 -17 212 -18 143
0 190 7 279 41 10 4 17 -8 25 -46 36 -166 -21 -259 -168 -277 -92 -11 -161 34
-161 103 0 19 -5 34 -11 34 -8 0 -10 -13 -6 -37 4 -21 8 -47 9 -58 7 -46 -130
-57 -209 -16 l-39 19 -12 104 c-17 143 -16 182 3 174 9 -3 44 -13 78 -23z
m1375 -14 c30 -6 72 -7 93 -4 l39 7 0 -59 c0 -32 -4 -64 -9 -72 -22 -34 -173
-31 -213 6 -14 12 -18 31 -18 81 l0 64 27 -7 c15 -3 52 -11 81 -16z m-731 -54
c38 -27 58 -124 43 -205 -13 -70 -25 -80 -69 -65 l-34 12 26 7 c18 4 27 13 27
26 0 16 -7 20 -32 21 -34 1 -32 3 15 13 30 7 38 36 10 36 -14 0 -15 -2 -5 -9
11 -7 10 -10 -3 -15 -28 -10 -41 -8 -27 6 7 7 12 29 12 50 0 31 -7 47 -35 75
-19 20 -35 40 -35 44 0 22 77 25 107 4z m607 -61 c3 -8 27 -24 52 -36 60 -26
171 -23 203 6 21 19 21 19 21 -13 0 -45 -22 -82 -72 -123 -66 -54 -104 -70
-165 -69 -62 0 -110 23 -132 63 -19 34 -4 87 41 146 35 46 43 50 52 26z m-329
-91 c-3 -16 -20 -42 -36 -59 -31 -32 -158 -97 -214 -110 l-30 -7 22 24 c12 13
27 45 34 70 l12 46 76 17 c42 10 87 24 101 31 36 21 43 18 35 -12z m-835 -97
c14 0 39 2 55 5 l30 4 3 -61 c3 -58 2 -61 -25 -73 -35 -16 -134 -25 -150 -14
-7 5 -16 41 -19 81 l-7 73 44 -8 c24 -4 55 -7 69 -7z m100 -152 c0 -36 -16
-61 -50 -79 -63 -33 -131 -11 -144 48 -6 27 -6 27 51 28 32 0 74 7 93 14 48
19 50 18 50 -11z m30 -77 c0 -27 -13 -44 -75 -104 -54 -52 -86 -75 -117 -84
-46 -12 -101 -7 -124 12 -14 12 -20 70 -7 82 3 4 35 -9 70 -28 36 -20 69 -33
74 -30 28 18 -12 64 -73 86 -21 7 -38 17 -38 21 0 15 25 8 79 -22 30 -17 60
-30 68 -30 16 0 17 32 1 48 -9 9 -8 12 8 12 34 1 102 37 109 59 9 30 25 16 25
-22z"/>
<path d="M2010 3695 c0 -64 47 -115 105 -115 32 0 83 47 94 86 l9 31 -87 6
c-47 3 -94 8 -103 12 -15 6 -18 2 -18 -20z"/>
<path d="M3730 2466 c0 -30 27 -83 51 -100 56 -38 172 -6 185 51 3 15 7 34 10
41 2 9 -22 12 -99 12 -56 0 -112 3 -124 6 -17 5 -23 2 -23 -10z m230 -26 c0
-10 -10 -31 -23 -45 -27 -32 -104 -45 -142 -25 -24 13 -60 74 -52 88 3 4 53 6
111 4 96 -3 106 -5 106 -22z"/>
</g>
</svg>
