<?xml version="1.0" standalone="no"?>
<!DOCTYPE svg PUBLIC "-//W3C//DTD SVG 20010904//EN"
 "http://www.w3.org/TR/2001/REC-SVG-20010904/DTD/svg10.dtd">
<svg version="1.0" xmlns="http://www.w3.org/2000/svg"
 width="878.000000pt" height="630.000000pt" viewBox="0 0 878.000000 630.000000"
 preserveAspectRatio="xMidYMid meet">
<metadata>
Created by potrace 1.16, written by Peter Selinger 2001-2019
</metadata>
<g transform="translate(0.000000,630.000000) scale(0.100000,-0.100000)"
fill="#000000" stroke="none">
<path d="M7030 5490 c-77 -16 -165 -66 -208 -118 -49 -59 -65 -90 -87 -174
-14 -54 -22 -68 -41 -72 -13 -4 -24 -11 -24 -16 0 -28 -77 5 -311 133 -101 56
-172 70 -313 65 l-119 -5 -103 -52 c-106 -54 -237 -156 -263 -203 -7 -14 -26
-36 -42 -47 -60 -44 -119 -220 -119 -351 0 -128 46 -269 94 -291 33 -15 55
-58 57 -115 4 -87 41 -130 98 -114 22 5 33 -3 87 -65 35 -39 73 -76 86 -83 44
-23 108 -41 168 -48 54 -6 60 -9 60 -29 0 -36 -10 -55 -30 -55 -11 0 -22 -4
-25 -10 -4 -7 -161 -60 -251 -85 -6 -2 -39 -59 -72 -127 -86 -175 -90 -185
-156 -398 -37 -120 -57 -160 -82 -160 -47 0 -241 110 -360 205 -84 66 -119
118 -131 192 -6 38 -51 81 -93 90 -22 4 -30 12 -35 39 -14 77 -89 125 -171
110 -46 -9 -111 -73 -119 -120 -4 -19 -17 -43 -28 -55 l-22 -20 -70 34 c-86
42 -190 61 -265 49 -45 -8 -58 -6 -71 7 -14 14 -14 18 8 43 45 52 21 147 -48
193 -32 21 -45 24 -76 18 -48 -9 -100 -40 -108 -65 -7 -23 -23 -25 -49 -5 -36
27 -101 29 -150 5 -90 -43 -149 -134 -211 -327 -90 -278 -121 -339 -151 -298
-10 13 -7 28 11 73 32 77 75 224 75 254 0 19 -42 66 -170 192 -209 206 -237
222 -371 213 -81 -6 -89 -5 -99 12 -23 45 -14 58 58 80 115 35 274 154 328
247 14 24 32 44 39 44 7 0 24 10 39 21 27 21 27 23 20 101 -7 79 -6 80 21 102
34 27 47 103 21 128 -23 24 -20 29 11 17 31 -12 53 -6 53 15 0 8 10 16 23 18
20 4 16 10 -40 64 -76 72 -103 121 -143 260 -33 115 -63 166 -133 231 -82 76
-114 87 -262 88 -79 1 -142 7 -160 15 -53 22 -200 18 -285 -9 -137 -42 -270
-121 -351 -207 -34 -37 -54 -72 -79 -139 -29 -78 -34 -104 -36 -197 -1 -58 -8
-117 -14 -129 -19 -34 -6 -142 28 -239 84 -242 104 -294 122 -317 11 -14 20
-35 20 -45 0 -18 5 -19 34 -14 28 5 43 1 79 -24 47 -31 101 -40 110 -17 4 10
24 5 81 -22 75 -35 76 -37 76 -74 0 -31 -5 -40 -32 -57 -18 -10 -54 -24 -81
-30 -59 -12 -183 -73 -224 -109 -47 -42 -116 -132 -158 -206 -45 -82 -215
-345 -256 -396 -16 -20 -29 -41 -29 -47 0 -30 100 -114 178 -148 9 -4 -123
-479 -177 -637 -17 -49 -54 -132 -82 -185 -119 -219 -119 -221 -119 -283 0
-59 0 -59 -30 -59 -55 0 -141 -41 -190 -90 -63 -62 -90 -134 -101 -272 -16
-199 -39 -256 -143 -360 -48 -48 -90 -80 -131 -98 -128 -58 -289 -158 -365
-226 -19 -18 -49 -44 -66 -58 l-32 -26 -23 48 c-53 107 -20 261 110 527 66
133 99 221 87 232 -8 9 -139 -92 -186 -143 -43 -47 -119 -193 -145 -281 -23
-75 -27 -148 -17 -273 8 -90 16 -128 37 -174 l28 -58 -17 -74 c-9 -41 -16 -91
-16 -110 0 -29 -3 -35 -16 -30 -9 3 -17 6 -20 6 -2 0 -10 14 -19 30 -21 41
-35 38 -35 -10 0 -29 -4 -40 -15 -40 -9 0 -21 -11 -27 -25 -13 -29 -16 -30
-45 -7 l-23 17 -3 375 c-2 311 -2 293 -3 -105 0 -264 2 -440 3 -392 l4 89 38
-7 c34 -6 39 -4 44 16 4 14 11 20 21 16 11 -4 18 2 23 23 l8 28 29 -25 c28
-24 29 -25 17 -77 -6 -29 -9 -60 -5 -70 11 -29 61 -46 171 -57 139 -14 435 -8
455 9 9 7 23 10 32 6 9 -3 16 -1 16 5 0 6 -4 11 -10 11 -5 0 -10 5 -10 11 0 8
14 9 42 5 24 -3 79 -1 123 5 44 5 92 10 108 11 20 1 27 6 27 20 0 15 5 18 20
13 23 -7 24 -3 8 28 -6 12 -14 29 -18 37 -4 8 -25 20 -46 27 -38 12 -37 12 36
11 45 0 83 -6 95 -14 27 -19 62 -18 69 2 6 16 8 16 24 0 25 -22 39 -20 53 5
11 21 11 21 40 -7 25 -24 31 -26 39 -14 5 8 10 21 10 28 0 11 3 11 15 0 33
-30 45 -38 55 -38 16 0 12 -9 -15 -42 -17 -20 -25 -42 -25 -68 0 -69 23 -74
260 -52 69 7 190 16 270 21 80 4 157 14 172 21 29 14 43 53 53 152 l6 56 34
-14 c57 -23 72 -19 68 18 -4 32 -4 33 9 9 7 -14 18 -26 25 -28 16 -6 43 49 44
89 l0 33 23 -45 c15 -32 27 -44 41 -43 11 1 25 -7 33 -18 18 -26 27 -24 59 11
l26 30 24 -36 c20 -28 27 -33 39 -23 8 6 14 18 14 25 0 19 3 18 46 -11 45 -30
50 -31 64 -4 11 20 13 20 30 4 22 -20 50 -14 50 11 0 14 2 14 16 3 14 -11 19
-9 35 11 10 14 19 20 19 13 0 -6 7 -19 16 -28 14 -14 19 -14 38 -2 31 21 56 1
56 -45 0 -58 36 -99 104 -120 69 -21 509 -62 564 -52 109 18 169 45 182 80 21
54 -28 100 -150 145 -57 21 -61 24 -55 48 11 43 21 44 49 1 14 -22 33 -40 41
-40 18 0 29 40 21 72 -5 17 -3 16 10 -7 22 -40 45 -65 58 -65 6 0 19 14 29 31
19 35 27 33 43 -14 18 -52 38 -57 78 -18 l35 34 3 -39 c2 -32 7 -40 26 -42 13
-2 41 8 63 22 l39 26 25 -40 c50 -79 81 -36 71 100 -7 91 0 95 29 18 20 -55
33 -61 42 -18 8 44 23 47 23 6 0 -45 16 -86 33 -86 8 0 35 16 60 35 52 39 57
41 57 20 0 -9 7 -29 15 -45 23 -44 61 -41 81 5 7 19 14 45 14 58 0 39 11 38
42 -4 46 -64 62 -52 66 51 l3 84 28 -49 c16 -28 41 -63 55 -78 14 -15 26 -34
26 -41 0 -8 7 -20 16 -27 14 -11 18 -10 30 6 19 25 18 31 -8 49 -17 12 -22 28
-25 73 l-4 58 28 -51 c40 -69 66 -103 79 -104 7 0 19 -12 29 -26 11 -18 21
-23 33 -18 9 3 25 6 34 6 16 -1 39 22 64 64 10 17 11 17 16 -4 4 -12 1 -28 -5
-35 -88 -93 -89 -167 -2 -185 58 -12 107 4 302 101 108 53 180 83 192 80 16
-4 27 6 50 42 l30 47 11 -41 c9 -33 15 -41 34 -41 24 0 56 48 71 105 l8 30 11
-44 c6 -25 16 -46 22 -48 6 -2 24 40 41 94 l31 98 1 -58 c1 -62 14 -97 34 -97
7 0 29 12 50 26 l38 25 -7 -49 c-4 -31 -2 -52 4 -56 6 -3 34 3 62 14 52 20 70
19 70 -4 0 -7 6 -21 14 -31 13 -18 15 -18 46 9 21 18 36 24 43 17 5 -5 15 -8
21 -6 12 5 53 -47 124 -155 24 -36 53 -73 65 -83 57 -47 113 -77 144 -77 40 0
88 23 97 45 20 53 -13 153 -75 227 l-40 47 27 38 c16 21 30 40 32 43 2 2 19
-13 39 -33 19 -21 40 -36 46 -34 6 2 16 23 22 47 l11 44 13 -31 c17 -41 41
-50 62 -24 16 20 59 161 59 195 0 9 5 14 10 11 6 -3 10 -37 10 -75 0 -105 18
-127 59 -73 l20 28 1 -67 c0 -36 3 -73 6 -82 9 -25 37 -19 69 14 34 36 55 38
55 7 0 -13 6 -31 13 -41 17 -23 46 -15 92 25 33 29 34 30 45 9 14 -25 32 -26
55 0 12 14 25 18 39 14 31 -9 31 -10 3 -44 -14 -16 -29 -39 -32 -50 -9 -29 19
-69 63 -87 47 -21 147 -21 194 0 45 19 96 87 104 138 4 24 18 49 39 69 l32 31
21 -26 c11 -14 23 -31 25 -38 8 -21 29 9 37 50 l6 38 18 -33 c13 -25 23 -33
37 -29 11 3 19 0 19 -7 0 -6 9 -19 20 -29 11 -9 20 -24 20 -33 0 -21 53 -97
86 -123 22 -18 41 -21 111 -21 138 0 190 37 164 117 -7 21 -14 43 -17 49 -5
13 54 54 77 54 8 0 20 -14 26 -30 12 -32 36 -37 93 -21 15 4 39 2 59 -7 30
-12 35 -12 43 2 14 25 26 19 39 -19 9 -23 19 -35 31 -35 17 0 17 3 -4 32 -49
71 -50 72 -68 47 -15 -18 -19 -20 -38 -8 -16 10 -31 10 -68 2 -27 -6 -52 -9
-56 -6 -5 2 -15 20 -23 39 l-14 35 -50 -26 c-32 -16 -52 -21 -56 -14 -4 6 -14
8 -22 5 -19 -8 -42 10 -54 41 -5 13 -15 23 -23 23 -20 0 -27 40 -13 70 9 19
22 26 55 31 23 3 47 10 53 16 6 6 15 46 20 89 8 71 6 91 -21 199 -16 66 -41
188 -56 271 l-27 152 21 27 c26 33 27 57 6 137 -8 33 -13 65 -11 71 2 6 24 -9
50 -32 41 -38 47 -48 45 -81 -1 -44 7 -60 32 -60 12 0 21 -10 25 -29 18 -82
142 -90 175 -11 11 27 11 43 0 94 -7 33 -16 82 -21 107 -4 26 -19 69 -32 96
-14 27 -44 95 -66 151 -58 147 -102 220 -174 289 -62 59 -62 61 -50 91 7 17
26 38 43 47 16 9 30 22 30 29 0 8 16 37 35 65 l34 52 3 158 c3 174 -1 191 -54
191 -29 0 -31 3 -43 54 -3 17 -21 44 -39 60 -39 37 -197 121 -244 129 -35 7
-129 -9 -149 -25 -7 -5 -16 -7 -21 -4 -10 6 -137 -45 -155 -63 -6 -6 -17 -11
-24 -11 -8 0 -16 -6 -19 -14 -3 -8 -16 -17 -29 -20 -91 -23 -171 -204 -120
-272 8 -10 15 -40 15 -66 0 -26 5 -50 11 -54 6 -3 19 -26 30 -50 18 -44 18
-45 -2 -65 -35 -35 0 -99 56 -99 24 0 35 -6 43 -25 11 -24 10 -25 -19 -25 -49
0 -98 27 -168 92 -44 41 -69 73 -76 97 -17 59 -75 164 -110 196 -29 27 -99
104 -151 166 -11 14 -60 146 -108 294 -156 479 -197 598 -239 692 l-42 92
-145 35 c-195 48 -221 62 -260 138 -37 75 -37 86 -3 99 37 14 150 99 199 151
23 24 59 70 80 103 20 33 57 91 82 128 24 38 58 99 75 135 27 57 31 77 32 158
0 52 3 95 5 97 7 5 248 97 255 97 3 0 25 -9 49 -21 61 -28 76 -63 76 -177 0
-73 -8 -121 -39 -244 -53 -208 -54 -214 -41 -392 12 -177 37 -276 95 -375 52
-88 83 -107 65 -40 -4 19 -11 58 -15 87 -8 62 -2 64 58 23 61 -41 146 -91 157
-91 20 0 9 19 -23 37 -37 22 -104 127 -136 213 l-21 55 24 -30 c14 -16 27 -27
30 -25 2 3 -5 48 -15 100 -37 174 -38 169 84 500 30 79 32 95 33 225 1 77 5
183 9 235 6 74 4 109 -9 160 -30 118 -119 238 -220 299 -47 28 -68 34 -124 37
-37 2 -87 -1 -112 -6z m226 -45 c85 -50 168 -155 204 -259 23 -63 26 -171 9
-290 -5 -42 -39 -165 -75 -273 -72 -222 -104 -356 -104 -445 0 -109 52 -292
105 -371 14 -20 22 -37 18 -37 -5 0 -31 15 -58 34 -28 18 -60 36 -73 40 -30
10 -48 48 -63 131 -16 92 -7 195 26 289 28 80 28 117 0 51 -52 -126 -62 -280
-26 -397 12 -37 30 -73 40 -80 14 -10 19 -30 23 -85 2 -40 0 -69 -4 -65 -17
18 -89 176 -98 218 -14 63 -11 246 6 321 7 34 34 128 59 210 51 165 67 294 46
370 -22 79 -89 133 -163 133 -18 -1 -82 -20 -141 -44 -60 -24 -117 -41 -127
-39 -13 3 -32 38 -60 110 -64 167 -66 179 -39 265 20 64 31 81 88 139 59 59
73 67 141 87 41 11 89 22 105 24 49 5 115 -10 161 -37z m-4668 -120 c75 -18
132 -45 189 -91 23 -19 44 -34 47 -34 17 0 1 21 -45 58 -62 50 -53 58 54 48
83 -8 138 -38 210 -115 57 -61 80 -107 107 -212 26 -103 73 -192 117 -226 26
-20 33 -33 33 -60 0 -31 -2 -34 -22 -28 -13 4 -35 15 -50 26 -28 19 -28 19
-57 -2 -28 -20 -30 -20 -92 -4 -35 8 -88 29 -117 46 -60 34 -82 31 -37 -5 l29
-23 -98 -7 c-160 -12 -247 6 -315 66 -18 16 -37 26 -41 21 -3 -4 -14 -29 -24
-54 -21 -59 -120 -146 -221 -196 -63 -31 -66 -34 -32 -29 20 3 37 3 37 1 0 -2
-27 -35 -60 -72 -34 -37 -63 -78 -67 -91 l-6 -23 -28 27 c-23 22 -33 25 -62
20 -45 -8 -71 -38 -71 -81 0 -44 27 -74 74 -81 28 -5 41 -14 54 -38 19 -35
103 -126 117 -126 5 0 9 -7 9 -15 0 -20 -55 -9 -100 22 -19 12 -44 23 -55 23
-48 2 -81 68 -181 367 -37 113 -47 208 -23 227 11 8 14 32 11 104 -7 162 52
307 160 395 81 66 252 149 353 170 45 10 144 6 203 -8z m3568 -36 c97 -13 124
-24 296 -120 77 -43 156 -80 177 -84 36 -6 38 -9 70 -93 19 -48 38 -98 43
-113 9 -27 54 -79 67 -79 14 0 21 -100 10 -154 -12 -57 -49 -129 -131 -256
-48 -74 -61 -88 -97 -100 -32 -10 -47 -11 -66 -2 -36 17 -31 36 17 57 53 23
126 97 167 169 28 49 71 163 71 189 0 26 -19 -13 -38 -78 -34 -114 -137 -245
-207 -264 -39 -10 -54 -4 -61 25 -10 37 1 51 46 59 43 7 131 61 138 85 3 8
-13 0 -35 -18 -72 -57 -123 -66 -168 -30 l-28 22 63 12 c68 14 138 54 185 106
64 70 125 158 108 158 -4 -1 -24 -26 -43 -56 -67 -106 -190 -194 -270 -194
-19 0 -50 9 -67 20 -33 20 -43 40 -21 40 6 0 48 18 92 39 63 31 97 56 154 114
68 71 85 97 62 97 -5 0 -10 -6 -10 -14 0 -23 -143 -150 -201 -178 -100 -48
-213 -62 -269 -33 -33 17 -36 25 -18 43 20 20 -12 15 -35 -5 -21 -20 -21 -19
-89 67 -15 19 -28 30 -28 24 0 -6 18 -34 40 -62 22 -27 40 -52 40 -55 0 -3
-13 -15 -28 -26 -54 -38 -131 6 -133 76 0 27 -1 27 -11 6 -14 -30 16 -82 61
-105 l33 -17 -48 -24 c-34 -17 -55 -22 -70 -17 -25 10 -74 66 -74 86 0 8 -4
14 -10 14 -21 0 -9 -29 30 -72 l39 -45 -44 -17 c-25 -10 -54 -15 -65 -11 -24
8 -60 56 -60 81 0 14 -3 15 -12 6 -9 -9 -5 -22 20 -57 18 -25 32 -47 32 -49 0
-2 -21 -9 -47 -16 l-46 -14 -29 34 c-15 19 -28 45 -28 57 0 13 -4 23 -10 23
-18 0 -10 -40 15 -78 28 -41 25 -48 -26 -57 l-37 -7 -31 63 c-17 34 -31 55
-31 45 0 -9 11 -38 25 -65 13 -27 21 -51 18 -55 -13 -13 -61 -5 -77 13 -25 27
-54 119 -62 192 -12 118 31 298 88 374 17 22 27 31 24 20 -24 -67 -14 -72 17
-8 63 128 210 244 372 296 86 28 136 31 241 16z m1102 -449 c18 -36 22 -61 22
-136 0 -80 -6 -112 -46 -250 -26 -88 -52 -182 -58 -211 -6 -28 -15 -55 -20
-60 -17 -16 5 123 43 271 65 250 64 387 -3 442 l-31 26 35 -19 c22 -11 44 -35
58 -63z m212 -171 c-6 -39 -20 -96 -31 -127 -116 -316 -120 -337 -94 -463 9
-40 13 -74 11 -76 -2 -2 -12 17 -21 44 -9 26 -21 58 -26 71 -13 32 -11 66 6
168 15 82 106 379 143 462 14 33 16 34 20 14 2 -12 -1 -54 -8 -93z m-4928 66
c16 -13 52 -31 80 -40 59 -17 212 -20 301 -5 44 7 65 6 92 -6 35 -14 35 -15
20 -44 -19 -37 -19 -59 0 -81 15 -15 10 -21 -57 -78 -81 -68 -201 -131 -294
-155 -74 -19 -210 -20 -276 -3 -39 10 -51 19 -67 47 -23 44 -62 60 -98 40 -53
-30 -46 -104 10 -123 23 -7 34 -5 57 11 l27 21 89 -45 c121 -61 183 -78 257
-70 120 12 182 58 303 221 64 88 81 104 110 110 42 7 68 43 62 85 -6 39 4 45
41 25 45 -23 61 -51 50 -88 -10 -35 -26 -49 -51 -43 -26 6 -35 -12 -42 -93
-10 -111 -62 -208 -151 -284 -89 -75 -156 -113 -239 -134 l-66 -18 0 -37 c0
-25 7 -45 21 -59 16 -16 19 -27 14 -52 -19 -88 -78 -172 -129 -181 -54 -10
-128 19 -176 68 -23 24 -51 57 -61 74 l-19 29 25 17 c21 14 25 24 25 64 0 26
-4 52 -8 57 -4 6 -34 23 -67 37 -112 51 -232 159 -222 200 4 15 -1 18 -34 18
-70 0 -116 73 -71 113 37 33 83 22 107 -28 21 -46 31 -44 39 7 5 32 20 55 64
103 32 34 64 75 71 91 6 16 33 43 59 61 77 52 138 115 151 156 7 20 15 37 18
37 3 0 18 -11 35 -25z m3649 -127 c23 -17 45 -23 89 -24 52 -1 62 -4 90 -32
17 -18 36 -32 41 -32 5 0 9 -5 9 -12 0 -6 8 -20 18 -31 10 -11 17 -36 18 -61
1 -53 26 -115 55 -139 22 -18 43 -18 82 -2 58 24 -41 -83 -145 -158 -36 -25
-77 -49 -92 -53 -15 -3 -30 -12 -32 -19 -6 -15 37 -114 67 -156 12 -17 20 -31
18 -33 -2 -1 -33 -14 -69 -27 -69 -25 -158 -31 -252 -16 l-48 8 15 29 c18 34
20 86 4 96 -6 4 -39 9 -72 11 -62 4 -171 46 -194 75 -11 13 -7 17 29 27 28 9
61 33 102 74 44 44 67 60 84 58 34 -4 90 18 107 42 8 12 15 40 15 63 0 34 -5
47 -26 63 -36 28 -92 27 -135 -2 -44 -29 -52 -85 -19 -129 l21 -29 -58 -57
c-39 -39 -72 -62 -100 -70 -42 -13 -42 -12 -77 25 -20 21 -36 43 -36 49 0 7
-17 9 -49 6 -44 -4 -51 -2 -66 22 -11 17 -16 39 -13 63 4 37 -11 82 -40 116
-14 15 -13 17 7 17 43 0 378 108 451 145 25 13 72 44 105 69 33 25 61 46 63
46 2 0 17 -10 33 -22z m-3225 -178 c-14 -17 -26 -35 -26 -39 0 -18 -113 -121
-157 -142 -69 -34 -186 -33 -263 3 -30 14 -62 28 -70 31 -8 3 28 6 80 6 153 1
311 57 415 145 48 41 57 39 21 -4z m3126 -87 c29 -26 24 -87 -8 -112 -54 -42
-134 -13 -134 48 0 61 97 105 142 64z m-3108 -495 c44 -23 296 -264 296 -285
0 -7 -4 -21 -9 -31 -5 -9 -17 -35 -26 -57 -65 -154 -198 -377 -215 -358 -4 4
-22 35 -40 68 -31 56 -101 166 -135 209 -8 11 -18 16 -22 13 -3 -4 3 -17 14
-30 28 -31 79 -115 112 -183 16 -33 43 -124 60 -204 18 -80 66 -248 108 -375
42 -126 76 -234 77 -239 0 -5 -15 -13 -35 -17 -55 -12 -322 -56 -424 -69 -49
-6 -133 -18 -186 -26 -97 -14 -481 -20 -526 -8 -29 8 -29 14 7 105 51 131 137
504 174 754 9 61 19 121 23 134 4 17 2 22 -7 19 -7 -2 -21 -41 -31 -89 -28
-128 -65 -253 -76 -256 -14 -5 -142 59 -282 141 -121 70 -141 84 -141 96 0 4
36 62 81 130 44 67 94 148 112 179 50 91 105 168 149 211 46 44 173 115 189
105 5 -4 37 -41 70 -83 69 -88 120 -132 201 -173 83 -42 145 -37 216 19 45 36
102 147 127 247 9 39 19 75 20 82 5 14 60 1 119 -29z m-149 -13 c-9 -62 -38
-145 -70 -199 -39 -66 -84 -102 -140 -110 -86 -13 -203 60 -312 196 -43 55
-53 72 -42 79 8 5 19 9 26 9 6 0 17 2 25 5 8 3 21 -8 33 -27 60 -103 162 -168
243 -155 63 11 127 90 153 190 11 46 20 54 68 56 22 1 23 -1 16 -44z m3643 1
c23 -12 22 -13 -39 -54 -84 -57 -182 -85 -273 -80 -87 5 -171 30 -211 62 l-30
24 38 18 c30 14 42 16 56 7 28 -17 175 -35 227 -27 24 3 77 19 117 34 85 33
85 33 115 16z m-2444 -27 c62 -54 66 -137 9 -174 -20 -13 -27 -14 -33 -5 -6 9
-11 7 -19 -9 -10 -18 -18 -21 -48 -15 -26 5 -34 4 -29 -5 4 -6 15 -11 24 -12
9 0 4 -5 -11 -9 -16 -5 -35 -6 -43 -3 -8 3 -14 0 -14 -6 0 -6 12 -11 28 -12
25 -1 25 -2 -13 -19 -21 -10 -43 -16 -47 -14 -15 10 -8 45 17 82 30 44 32 90
5 124 -19 25 -18 31 16 76 6 8 81 31 101 32 12 0 38 -14 57 -31z m2616 -19
c52 -12 101 -23 108 -25 9 -3 4 -21 -17 -63 -58 -115 -119 -329 -148 -515 -16
-109 -20 -118 -42 -124 -50 -12 -395 5 -506 26 -182 35 -165 24 -192 127 -59
224 -108 475 -101 511 3 14 40 28 130 49 20 5 35 -1 62 -21 141 -108 363 -95
535 31 25 18 53 31 61 29 8 -2 58 -14 110 -25z m-2873 -21 c78 -38 109 -110
61 -143 -32 -23 -49 -20 -99 14 -24 16 -55 29 -69 29 l-25 -1 27 -9 c32 -12
42 -34 27 -61 -9 -17 -18 -19 -49 -15 -37 5 -38 5 -43 -35 -3 -22 -3 -55 0
-72 3 -18 0 -50 -7 -72 -6 -21 -22 -79 -34 -129 -61 -234 -136 -473 -161 -512
-22 -33 -40 -29 -97 25 -47 43 -178 207 -178 222 0 3 15 32 34 63 19 32 38 66
41 77 8 25 20 25 56 -1 40 -28 73 -19 89 23 7 18 40 114 75 213 64 184 111
293 142 328 31 35 106 77 137 77 16 0 49 -9 73 -21z m3056 -136 c25 -60 105
-292 178 -518 73 -225 137 -415 143 -421 109 -115 175 -215 176 -265 0 -15 -8
-37 -17 -48 -18 -22 -85 -43 -109 -34 -17 6 -34 57 -35 107 0 32 -2 37 -9 21
-5 -11 -9 -37 -9 -57 -2 -102 -51 -16 -51 89 0 65 -4 75 -74 213 -41 80 -113
215 -160 300 -48 85 -114 210 -148 277 l-61 123 28 92 c28 94 85 228 96 228 3
0 26 -48 52 -107z m-1085 -43 c5 -30 24 -123 42 -207 l33 -152 -49 -117 c-51
-123 -131 -268 -175 -315 -23 -24 -31 -27 -70 -22 -83 10 -290 134 -537 322
-63 47 -127 96 -143 107 l-30 21 25 17 c14 9 37 16 50 16 14 0 40 9 58 20 36
22 17 28 -26 9 -13 -6 -36 -9 -50 -5 -34 9 -35 43 -1 56 27 10 34 47 13 68
-19 19 -32 14 -49 -16 -22 -38 -79 -65 -113 -53 -43 17 -51 45 -25 97 30 63
92 108 139 100 40 -6 77 -43 85 -84 15 -72 59 -135 140 -199 128 -101 310
-203 364 -203 43 0 54 22 115 217 32 103 77 221 116 302 71 148 66 147 88 21z
m-994 75 c23 -22 63 -94 54 -99 -82 -47 -125 -103 -137 -176 -7 -42 -31 -50
-60 -21 -18 18 -19 25 -9 46 6 14 19 25 30 25 10 0 18 5 18 10 0 6 -9 10 -19
10 -27 0 -35 17 -14 29 16 9 14 10 -9 11 -32 0 -37 16 -8 25 29 9 25 23 -5 17
-20 -3 -24 -1 -19 12 3 9 1 16 -5 16 -6 0 -11 -7 -11 -16 0 -9 -6 -14 -12 -11
-17 5 -11 45 13 83 39 65 143 85 193 39z m-976 -72 c12 -3 22 -13 23 -22 3
-99 10 -173 19 -195 14 -38 13 -46 -10 -46 -53 0 -82 -94 -38 -124 12 -9 30
-16 39 -16 12 0 18 -12 23 -42 3 -24 9 -53 12 -65 6 -22 3 -23 -40 -23 -26 0
-56 -5 -68 -11 -11 -6 -21 -9 -24 -7 -2 2 -10 51 -19 109 -17 117 -38 218 -60
299 -20 75 -12 110 25 110 28 0 60 22 60 42 0 6 7 7 18 3 9 -4 27 -10 40 -12z
m563 -40 c31 -11 82 -38 114 -59 49 -32 65 -51 91 -104 31 -62 53 -145 41
-156 -8 -8 -50 16 -69 40 -25 31 -24 76 3 76 11 0 18 4 15 8 -3 5 -36 9 -73
10 -85 3 -163 25 -202 58 -25 21 -32 23 -37 11 -8 -22 -165 -87 -209 -87 -20
0 -48 6 -63 14 -26 13 -28 12 -52 -20 -14 -18 -28 -34 -31 -34 -16 0 -18 63
-3 93 21 42 54 77 72 77 8 0 31 13 51 29 36 28 88 55 126 65 42 10 172 -2 226
-21z m-1001 -46 c25 -44 -10 -126 -156 -362 -27 -44 -55 -93 -62 -108 -15 -35
-29 -32 -55 14 l-21 36 58 89 c31 49 82 139 112 199 91 184 93 187 124 132z
m915 -107 c10 -16 134 -50 181 -50 43 0 44 -1 44 -34 0 -26 9 -42 39 -72 22
-21 42 -48 46 -61 7 -29 21 -30 28 -1 5 18 8 19 21 8 22 -18 20 -57 -4 -70
-11 -6 -24 -8 -29 -5 -5 3 -19 -10 -31 -30 -29 -48 -117 -124 -168 -147 -210
-94 -516 36 -535 228 -3 32 -8 40 -28 42 -34 5 -49 21 -49 51 0 33 17 51 46
51 16 0 24 -7 26 -22 5 -35 21 -30 50 17 26 43 50 56 63 35 3 -5 1 -10 -6 -10
-40 0 -64 -74 -39 -119 12 -23 73 -36 99 -21 16 8 29 4 67 -20 26 -16 80 -37
122 -46 64 -14 86 -15 139 -5 61 11 65 11 82 -11 13 -16 29 -22 56 -22 74 0
108 80 53 127 -40 34 -118 12 -118 -35 0 -21 -29 -35 -97 -44 -58 -7 -159 16
-220 52 -39 23 -42 26 -31 49 13 29 -9 71 -45 84 -19 7 -17 9 18 15 22 4 72
22 110 41 74 35 100 41 110 25z m-606 -101 c11 -52 25 -133 32 -181 12 -88 12
-88 -15 -139 -29 -51 -29 -69 -4 -132 6 -15 28 -38 49 -51 l39 -23 -127 -85
c-71 -47 -159 -103 -198 -124 -38 -21 -73 -42 -77 -48 -8 -13 1 -63 18 -97 17
-34 81 -91 122 -108 38 -16 43 -49 11 -69 -15 -10 -20 -21 -16 -38 3 -20 -4
-29 -44 -54 -68 -44 -111 -49 -168 -19 -54 28 -57 32 -66 77 -5 27 -2 39 16
58 28 30 29 24 -76 353 -72 225 -130 439 -121 448 2 2 17 -20 36 -48 25 -38
37 -49 52 -46 14 4 31 -12 73 -72 30 -42 79 -100 109 -129 83 -79 117 -70 157
44 25 71 93 300 120 404 36 135 50 182 55 178 2 -3 13 -47 23 -99z m1231 72
c0 -10 -9 -21 -20 -24 -26 -7 -36 -35 -21 -59 7 -11 11 -21 9 -22 -2 -1 -15
-10 -30 -19 -27 -17 -64 -77 -153 -252 l-51 -100 -23 28 c-13 16 -41 32 -67
39 -42 11 -43 13 -25 29 10 9 35 38 56 63 20 25 42 46 48 46 20 0 47 33 47 57
0 12 -9 32 -20 43 -27 27 -25 44 7 88 37 50 43 53 67 36 40 -28 103 -10 140
40 22 31 36 33 36 7z m1964 -346 c43 -77 113 -208 156 -290 74 -145 77 -153
83 -237 3 -48 11 -98 18 -110 17 -33 45 -58 66 -58 10 0 23 -10 29 -23 7 -12
21 -40 33 -62 11 -22 32 -85 47 -140 40 -153 65 -192 177 -270 37 -26 67 -48
67 -50 0 -1 -12 -58 -26 -126 -33 -162 -31 -251 8 -283 l27 -21 -24 -80 c-15
-53 -27 -134 -35 -231 -10 -128 -9 -160 4 -224 9 -41 16 -90 16 -108 0 -46 16
-72 44 -72 20 0 24 -6 29 -42 3 -24 9 -53 12 -65 5 -16 2 -23 -15 -28 -17 -5
-21 -13 -18 -35 4 -30 -25 -60 -38 -39 -4 7 -12 5 -23 -5 -9 -8 -26 -13 -37
-10 -12 3 -27 -2 -38 -15 -25 -28 -34 -26 -46 5 l-10 26 -46 -42 c-51 -47 -73
-48 -86 -5 -5 17 -12 36 -14 44 -3 9 -17 3 -48 -23 -25 -20 -49 -36 -54 -36
-17 0 -24 51 -16 127 4 43 3 73 -3 73 -5 0 -19 -20 -31 -45 -12 -25 -26 -45
-31 -45 -5 0 -13 40 -16 89 -7 80 -17 123 -28 111 -2 -3 -14 -45 -26 -95 -26
-99 -48 -155 -63 -155 -5 0 -20 25 -33 55 -14 30 -29 55 -35 55 -6 0 -10 -26
-10 -59 0 -33 -4 -62 -9 -66 -6 -3 -22 10 -38 30 -15 19 -32 35 -38 35 -5 0
-23 -18 -39 -40 -17 -22 -35 -40 -41 -40 -6 0 -28 21 -49 46 l-38 45 5 112 c3
62 14 234 26 382 12 149 26 326 31 395 5 69 12 144 16 167 7 47 -2 42 134 64
41 6 104 18 140 26 36 8 104 22 152 33 48 10 93 22 100 26 45 27 118 89 118
100 0 7 -10 24 -22 37 -91 97 -226 286 -285 397 -22 41 -59 107 -83 145 -24
39 -88 165 -142 280 -167 353 -168 357 -133 568 14 82 28 154 31 159 3 5 31
-42 63 -104 31 -62 92 -176 135 -253z m-1988 152 c132 -113 396 -296 527 -366
121 -65 194 -78 221 -40 69 98 132 211 172 307 27 66 51 109 56 104 5 -5 9
-35 10 -68 1 -32 5 -69 9 -81 6 -15 3 -29 -10 -45 -10 -13 -53 -81 -96 -152
-131 -220 -379 -540 -559 -724 -61 -62 -112 -119 -114 -126 -10 -46 232 -182
421 -236 l117 -34 0 -66 c0 -76 -24 -296 -45 -419 -37 -213 -75 -466 -86 -571
-6 -63 -16 -123 -21 -132 -6 -13 -182 -112 -259 -146 -4 -2 -13 13 -19 33 -14
41 -22 37 -39 -17 -14 -43 -25 -53 -66 -62 -28 -6 -33 -3 -49 31 -11 24 -20
33 -25 25 -10 -17 -28 5 -75 90 -21 37 -42 70 -47 73 -5 3 -6 -29 -2 -77 6
-81 5 -83 -13 -66 -10 9 -37 46 -59 82 -22 36 -43 66 -46 66 -4 0 -6 -42 -5
-92 1 -108 -13 -122 -52 -51 -13 24 -27 43 -32 43 -5 0 -13 -24 -20 -52 -6
-29 -18 -63 -26 -76 -15 -23 -16 -23 -35 -6 -10 9 -19 29 -19 43 0 52 -13 54
-70 11 -30 -22 -59 -39 -65 -37 -5 2 -14 31 -18 65 -10 68 -33 85 -43 32 -4
-16 -9 -30 -13 -30 -3 0 -17 25 -30 55 -43 100 -50 92 -48 -51 1 -82 -2 -128
-9 -131 -5 -2 -20 15 -33 37 -12 22 -25 40 -27 40 -3 0 -20 -11 -38 -25 -18
-13 -43 -26 -57 -27 -22 -3 -24 0 -21 40 4 50 -5 52 -51 12 -19 -17 -39 -30
-45 -30 -6 0 -17 18 -23 40 -19 62 -34 69 -60 26 -11 -20 -23 -36 -26 -36 -10
0 -33 35 -54 83 -12 26 -26 47 -31 47 -5 0 -6 -29 -2 -67 7 -63 6 -67 -9 -54
-10 7 -27 31 -39 52 -12 22 -24 39 -27 39 -4 0 -14 -23 -24 -51 -16 -44 -21
-50 -40 -45 -12 4 -67 14 -122 22 -55 8 -122 20 -150 27 l-50 13 -17 116 c-9
64 -18 144 -20 178 l-3 62 48 18 c74 28 115 64 128 112 11 43 3 173 -23 348
-12 81 -81 332 -129 470 -32 92 -38 150 -15 150 18 0 187 84 254 128 48 30 55
32 70 19 30 -28 65 -30 90 -7 20 19 27 20 52 10 40 -16 172 3 205 30 12 10 18
10 29 1 8 -7 33 -12 55 -13 34 0 41 -4 41 -20 0 -22 16 -56 37 -76 7 -7 13
-20 13 -28 0 -15 36 -27 66 -22 15 2 20 -8 30 -62 15 -85 20 -96 59 -120 41
-25 81 -25 208 1 139 28 135 26 163 69 30 44 25 80 -13 110 -20 16 -41 20 -95
20 -78 0 -108 11 -108 40 0 15 11 23 46 32 53 14 62 28 46 70 -18 47 -1 73 55
87 66 17 113 48 113 74 0 11 -17 41 -38 66 -63 75 -202 323 -202 360 0 5 9 13
20 16 30 10 79 54 96 87 8 16 16 48 16 70 1 63 60 195 165 366 18 29 22 28 69
-11z m-3150 -56 c18 -17 280 -166 344 -196 36 -16 66 -30 68 -31 7 -3 -38 -94
-47 -94 -42 0 -344 161 -398 213 -37 35 -41 57 -15 92 18 26 32 31 48 16z
m4519 -71 c72 -5 181 -9 243 -10 106 0 112 -1 112 -20 0 -13 -10 -25 -27 -32
-42 -17 -290 -14 -433 5 -199 28 -241 38 -253 64 -21 48 -8 51 114 26 63 -13
173 -27 244 -33z m-2316 -44 l44 -44 -21 -29 c-25 -35 -86 -93 -130 -122 l-32
-23 -45 26 c-34 20 -47 36 -56 65 -28 92 42 168 156 170 35 1 47 -5 84 -43z
m-1779 -253 c-29 -133 -71 -291 -100 -374 -27 -79 -50 -154 -50 -166 0 -33 37
-53 99 -53 l54 0 -7 -52 c-4 -29 -11 -96 -17 -148 -21 -208 -103 -630 -122
-630 -5 0 -11 9 -14 20 -3 11 -11 20 -18 20 -7 0 -15 6 -18 14 -5 12 -12 12
-44 3 -74 -23 -94 -47 -148 -180 -19 -49 -47 -113 -62 -143 -28 -57 -106 -139
-123 -129 -24 15 23 342 59 414 51 100 75 177 77 246 1 40 11 97 23 134 24 73
27 128 7 156 -10 16 -11 44 -5 133 l7 113 80 172 c45 94 102 222 127 282 26
61 58 131 71 158 22 42 27 46 45 37 15 -8 24 -8 34 0 16 13 70 151 82 207 5
25 8 31 11 17 1 -11 -20 -124 -48 -251z m3925 234 c261 -34 299 -37 408 -27
59 5 112 12 116 14 5 3 17 -16 26 -42 34 -88 241 -517 278 -574 20 -32 51 -86
68 -120 36 -73 166 -267 213 -318 17 -19 47 -54 65 -78 32 -42 33 -44 14 -64
-43 -48 -103 -71 -323 -122 -268 -63 -586 -63 -965 0 -245 41 -525 120 -660
187 -87 43 -205 122 -205 138 0 5 44 55 99 112 54 56 125 134 158 172 129 151
347 453 430 595 l88 150 35 -4 c19 -2 89 -11 155 -19z m-2059 -48 c3 -6 2 -14
-3 -18 -40 -27 -47 -86 -12 -117 26 -24 100 -30 138 -11 17 9 31 11 31 7 0
-24 46 -50 86 -50 64 0 87 28 82 98 -4 49 -3 53 15 50 12 -2 23 -14 27 -28 7
-26 31 -79 137 -300 65 -135 152 -278 192 -314 32 -29 25 -45 -32 -71 -126
-58 -431 -89 -592 -61 -129 22 -208 49 -254 86 -28 22 -65 37 -122 51 -101 24
-235 86 -272 126 -30 32 -58 99 -50 118 2 5 55 40 116 76 227 134 477 324 477
361 0 12 28 10 36 -3z m539 -3 c18 -8 41 -26 50 -40 22 -33 23 -102 2 -143
-17 -32 -72 -73 -99 -73 -16 0 -125 216 -115 227 42 41 105 53 162 29z m-390
-76 c-12 -53 -78 -76 -134 -47 -38 19 -44 52 -16 85 l24 28 66 -20 c62 -20 66
-23 60 -46z m3985 39 c79 -44 156 -91 172 -106 9 -8 20 -29 23 -47 14 -66 15
-68 45 -62 46 9 55 -13 54 -135 0 -60 -3 -111 -6 -115 -4 -3 -16 4 -27 15 -12
12 -32 21 -44 21 -15 0 -28 9 -34 23 -7 14 -26 28 -49 35 -35 10 -42 9 -74
-13 -45 -31 -60 -31 -60 -1 0 32 -12 39 -36 21 -10 -8 -22 -15 -26 -15 -9 0
11 58 30 88 8 12 11 26 7 30 -4 4 -10 1 -12 -6 -8 -23 -84 -106 -123 -134 -20
-15 -74 -43 -119 -63 -68 -29 -95 -35 -151 -35 -54 0 -71 -4 -78 -17 -8 -13
-11 -11 -17 15 -3 18 -11 32 -16 32 -5 0 -9 27 -9 60 0 44 -4 60 -14 60 -38 0
-20 120 27 182 35 45 79 66 140 67 34 1 40 5 52 35 11 25 25 38 52 47 43 15
61 13 84 -7 23 -21 29 -17 29 15 0 25 5 30 28 34 45 8 114 -4 152 -24z m-6252
-38 c37 -21 81 -45 98 -52 l31 -14 -59 -140 c-33 -77 -98 -220 -144 -319 -89
-186 -104 -237 -104 -342 0 -70 -9 -83 -35 -54 -20 22 -35 26 -35 10 0 -19
-89 -195 -110 -217 -33 -36 -68 -30 -86 14 -25 59 -6 125 79 277 39 72 89 181
110 241 46 132 138 450 161 558 10 42 20 77 22 77 3 0 36 -18 72 -39z m6161
-347 c-21 -26 4 -37 33 -14 34 27 38 26 38 -11 0 -27 3 -30 23 -24 12 4 38 17
57 30 31 20 40 21 70 11 29 -10 35 -16 33 -38 -1 -25 1 -26 33 -21 38 6 64 -9
64 -39 0 -10 -8 -21 -17 -25 -35 -12 -45 -25 -28 -37 14 -10 12 -17 -11 -64
-35 -70 -76 -109 -150 -144 -119 -56 -238 -68 -347 -36 -34 10 -38 14 -32 36
16 63 -41 110 -108 90 -48 -15 -85 -4 -93 27 -8 33 13 60 33 43 13 -10 14 -6
8 34 l-7 46 74 4 c61 4 88 12 168 50 52 25 111 61 130 80 33 33 56 35 29 2z
m-623 -181 c5 -17 -3 -26 -39 -48 -25 -14 -61 -29 -81 -32 -30 -5 -39 -1 -60
23 -14 16 -26 32 -26 35 0 4 18 9 39 13 22 3 54 18 71 33 30 25 32 29 26 77
l-6 51 35 -65 c20 -36 38 -75 41 -87z m-4198 -20 c-4 -38 -59 -63 -157 -74
-42 -4 -161 -18 -266 -29 -241 -27 -733 -40 -771 -20 -13 8 -24 21 -24 30 0
14 21 16 211 12 161 -4 242 -1 338 12 259 35 537 75 581 86 19 4 48 8 63 9 25
1 28 -2 25 -26z m379 -47 c21 -8 67 -23 103 -32 36 -10 79 -28 96 -40 41 -31
110 -61 162 -69 23 -4 42 -12 42 -19 0 -21 -33 -43 -75 -50 -114 -19 -113 -19
-161 9 -47 28 -67 27 -43 -1 11 -14 11 -18 -5 -30 -26 -18 -53 -3 -144 81 -51
47 -72 74 -72 91 0 20 5 24 33 25 17 0 26 3 20 6 -15 6 -18 43 -3 43 5 0 27
-6 47 -14z m3933 -70 c58 -55 62 -57 172 -71 43 -6 49 -10 70 -48 15 -28 44
-56 86 -83 53 -35 60 -43 47 -54 -23 -19 -18 -38 12 -42 l28 -3 1 -215 c1
-118 5 -252 9 -297 7 -83 7 -83 -17 -83 -13 0 -38 4 -57 10 -18 5 -86 16 -150
24 -176 23 -230 46 -244 105 -9 38 11 181 43 307 17 64 28 119 25 122 -4 4 -9
-5 -21 -46 -6 -22 -153 86 -185 136 -29 45 -74 195 -66 217 3 7 20 16 39 19
18 4 53 18 78 31 25 12 51 23 59 24 8 1 40 -23 71 -53z m-4516 -32 c16 -25 42
-55 57 -67 16 -11 29 -27 29 -34 0 -7 29 -42 65 -78 36 -36 65 -70 65 -75 0
-5 9 -11 20 -15 13 -4 21 -19 25 -43 4 -20 24 -89 45 -152 84 -248 116 -378
131 -524 5 -56 12 -113 15 -128 5 -24 1 -28 -48 -46 -142 -53 -309 -87 -486
-98 l-100 -7 -6 44 c-3 24 -8 112 -11 194 -4 83 -12 195 -20 250 -25 187 -50
335 -57 335 -10 0 -20 -57 -13 -79 6 -21 -29 -238 -76 -456 -16 -77 -34 -166
-40 -198 l-10 -57 -52 0 c-74 0 -219 17 -307 36 -100 22 -291 72 -297 78 -3 2
23 113 56 246 34 134 68 283 76 333 l14 90 63 56 c69 62 208 264 236 344 12
35 22 47 37 47 27 0 215 18 355 34 63 7 135 14 160 15 43 1 46 -1 74 -45z
m-699 -25 c-11 -34 -109 -180 -155 -229 l-41 -45 6 80 c3 44 10 110 17 148
l11 67 84 0 c82 0 84 -1 78 -21z m65 9 c0 -51 -140 -266 -225 -348 l-57 -55 6
42 c4 30 17 54 47 85 45 48 173 235 184 267 7 22 45 30 45 9z m875 -30 c72
-37 108 -34 183 12 l53 32 53 -48 c30 -27 54 -53 55 -59 1 -12 -220 -136 -254
-143 -45 -8 -96 19 -166 89 -57 58 -69 75 -69 102 0 66 38 70 145 15z m1285 7
c0 -3 -5 -14 -12 -25 -10 -15 -9 -22 5 -38 9 -10 17 -23 17 -28 0 -6 -57 -29
-127 -52 -191 -62 -243 -70 -243 -38 0 7 -11 23 -25 36 -28 26 -33 58 -10 66
31 12 15 27 -23 20 -48 -7 -112 10 -112 31 0 12 7 14 33 9 91 -16 192 -17 321
-2 76 8 141 18 144 21 7 6 32 7 32 0z m3736 -24 c98 -72 180 -191 234 -340 17
-45 41 -104 55 -131 14 -27 25 -55 25 -62 0 -15 -96 -56 -150 -64 -32 -5 -40
-1 -90 48 -56 54 -122 164 -135 225 -7 37 -25 54 -25 25 0 -27 46 -159 69
-195 25 -41 65 -209 57 -239 -14 -52 -94 -78 -243 -78 -82 0 -84 1 -94 28 -7
17 -12 137 -13 322 l-1 295 34 17 c67 33 116 76 130 112 10 25 25 40 50 50 49
20 53 20 97 -13z m-3803 -183 c13 -14 32 -18 91 -18 56 0 79 -4 94 -17 34 -30
35 -55 5 -90 -24 -26 -42 -33 -133 -52 -128 -26 -166 -26 -206 -2 -32 19 -50
66 -56 139 l-3 34 85 28 c75 24 86 25 95 12 6 -8 18 -24 28 -34z m-2787 -177
c-3 -38 -21 -85 -58 -160 -65 -129 -61 -121 -51 -121 4 0 27 36 51 80 24 44
46 80 49 80 18 0 -11 -112 -55 -217 -60 -139 -85 -266 -80 -403 4 -110 18
-115 93 -36 41 43 62 78 95 158 23 57 49 120 57 140 21 49 63 90 96 94 15 1
27 -2 27 -7 0 -5 8 -9 18 -7 12 2 16 -3 14 -16 -2 -11 1 -15 7 -11 7 3 11 -3
11 -15 0 -12 -21 -42 -48 -69 -49 -50 -129 -165 -201 -289 -29 -49 -48 -72
-61 -72 -10 0 -30 -15 -43 -33 -24 -31 -24 -36 -22 -217 1 -108 7 -196 13
-212 15 -38 46 -42 116 -18 84 29 176 27 212 -3 15 -13 28 -34 29 -47 2 -30
-27 -60 -48 -49 -10 6 -20 4 -29 -4 -7 -8 -31 -17 -53 -21 -22 -4 -62 -14 -89
-23 -83 -27 -203 -7 -222 37 -4 8 -10 67 -14 130 -8 118 -27 188 -61 225 -11
11 -19 14 -19 8 0 -7 4 -14 10 -18 5 -3 14 -22 19 -42 13 -44 -10 -94 -74
-162 -67 -72 -112 -89 -287 -112 -178 -23 -267 -36 -323 -49 -61 -14 -283 -21
-291 -9 -7 12 24 49 42 49 31 0 152 172 142 202 -2 6 -16 -14 -31 -44 -16 -32
-48 -74 -75 -97 -93 -82 -102 -93 -102 -112 0 -23 -11 -21 177 -23 146 -1 152
-2 177 -25 20 -19 23 -27 14 -34 -10 -7 -10 -10 0 -14 6 -2 12 -11 12 -20 0
-10 -6 -12 -22 -8 -17 6 -20 4 -15 -9 5 -13 0 -15 -38 -9 -32 4 -45 2 -45 -6
0 -7 5 -9 12 -5 7 4 8 3 4 -4 -9 -15 -224 -16 -367 -2 -111 11 -156 31 -152
66 33 302 50 352 156 450 58 55 181 128 267 159 86 32 113 47 100 55 -18 11
-3 30 23 30 13 0 55 20 95 45 80 50 84 51 76 30 -9 -23 3 -18 62 23 30 20 52
42 50 48 -3 6 1 17 7 23 8 8 7 11 -6 11 -22 0 -22 3 6 48 28 44 61 138 53 151
-9 14 21 271 36 313 36 100 128 174 233 186 38 4 48 1 65 -19 21 -26 27 -88
10 -120 -12 -21 2 -26 17 -6 5 6 15 30 22 53 13 40 116 153 165 181 33 19 49
-9 42 -76z m4030 -55 c27 -8 76 -19 109 -26 112 -20 106 -18 99 -48 -4 -15
-22 -80 -40 -144 -19 -64 -48 -179 -64 -255 -17 -76 -51 -226 -75 -333 -24
-107 -55 -246 -67 -309 l-23 -113 -55 5 c-30 3 -67 11 -82 18 -27 12 -28 15
-28 83 0 73 19 237 45 386 46 263 77 476 81 565 3 55 7 119 10 143 6 48 12 50
90 28z m500 -81 c50 -4 96 -10 103 -15 10 -5 13 -130 14 -549 1 -299 0 -544
-4 -546 -3 -2 -4 -24 -2 -49 3 -35 0 -44 -10 -40 -7 2 -22 -4 -32 -16 -21 -23
-45 -27 -45 -7 0 7 -6 22 -14 32 -13 18 -15 18 -64 -3 -28 -12 -54 -22 -58
-22 -3 0 -4 22 0 50 8 59 -4 64 -61 29 -51 -32 -57 -19 -61 132 -2 72 -8 127
-12 124 -5 -3 -7 -19 -4 -34 6 -29 -51 -257 -66 -266 -4 -3 -11 16 -15 41 -3
26 -9 53 -12 60 -9 24 -23 15 -23 -14 0 -41 -28 -117 -50 -137 -19 -17 -20
-17 -30 9 -5 15 -10 43 -10 62 0 19 -3 34 -7 34 -5 0 -23 -27 -42 -60 -19 -33
-38 -60 -41 -60 -18 0 16 188 102 570 65 291 143 604 173 696 2 7 29 7 92 -2
48 -6 129 -15 179 -19z m-3441 -188 c9 -65 20 -202 25 -305 9 -192 21 -256 61
-313 24 -35 77 -59 128 -59 32 0 41 -4 41 -17 0 -26 28 -281 36 -329 6 -40 5
-42 -22 -46 -16 -3 -35 -7 -43 -9 -9 -3 -17 8 -23 28 -11 41 -18 41 -41 1
l-19 -33 -13 25 c-8 14 -17 58 -20 98 -4 40 -12 75 -17 78 -7 5 -8 -32 -3
-107 l7 -114 -29 28 c-37 34 -43 34 -43 -3 0 -38 -16 -38 -57 0 -18 17 -34 30
-37 30 -3 0 -12 -12 -20 -27 l-14 -28 -19 32 c-10 18 -22 33 -26 33 -5 0 -20
-14 -34 -30 -20 -24 -28 -28 -39 -19 -8 6 -14 20 -14 30 0 23 -8 24 -31 3 -16
-15 -19 -12 -40 45 -25 70 -39 78 -39 24 0 -44 -18 -113 -29 -113 -4 0 -15 16
-24 35 -24 50 -41 45 -35 -9 6 -48 8 -47 -56 -23 -28 10 -28 11 -22 71 8 79
56 344 67 374 10 25 22 26 118 11 56 -8 75 -7 105 5 45 19 52 38 71 180 8 61
26 161 40 221 21 89 72 365 76 409 2 23 19 -64 34 -177z m3845 153 c0 -12 -4
-62 -9 -113 -5 -51 -17 -202 -26 -337 -31 -443 -51 -622 -71 -637 -27 -20
-107 -16 -135 5 -25 21 -24 6 -32 770 l-4 332 139 0 c132 0 138 -1 138 -20z
m1996 -135 c19 -45 18 -85 -4 -112 -38 -48 -109 -34 -128 27 -9 27 -18 36 -38
38 -22 3 -26 8 -26 33 0 30 1 30 43 24 36 -5 59 -1 135 24 2 1 10 -15 18 -34z
m-856 -125 c19 0 71 -9 115 -20 96 -24 274 -27 353 -6 50 13 53 12 57 -8 3
-12 18 -93 34 -181 16 -88 39 -194 50 -235 21 -75 27 -165 13 -187 -25 -40
-359 -24 -415 20 -21 17 -40 229 -31 343 5 65 4 85 -5 80 -6 -4 -11 -21 -11
-38 0 -17 -9 -69 -20 -117 -11 -47 -24 -122 -28 -166 l-7 -80 -80 -3 c-47 -2
-120 4 -178 14 l-97 18 -11 35 c-33 110 -13 421 35 535 l14 33 88 -19 c49 -10
105 -18 124 -18z m-7370 -49 c0 -5 -7 -14 -16 -22 -14 -12 -14 -14 5 -21 29
-10 23 -60 -19 -158 -74 -177 -90 -313 -45 -404 l24 -49 -42 -48 -42 -48 -26
57 c-34 73 -54 255 -39 350 17 102 95 287 140 332 20 20 60 27 60 11z m1549
-143 c-21 -84 -39 -160 -39 -169 0 -29 49 -67 112 -85 l61 -19 -7 -70 c-20
-232 -27 -276 -52 -339 -14 -36 -29 -66 -33 -66 -4 0 -18 11 -31 25 -13 14
-39 29 -57 34 -38 11 -137 -1 -201 -23 -79 -28 -87 -12 -85 173 l2 134 70 70
c76 76 98 113 129 226 12 41 33 91 47 112 14 21 25 41 25 44 0 5 86 96 97 104
1 1 -16 -67 -38 -151z m82 -114 c79 -28 311 -72 447 -85 l134 -12 -6 -31 c-10
-47 -32 -73 -68 -79 -42 -6 -327 35 -433 63 -150 39 -187 69 -171 136 8 29 34
31 97 8z m1449 -14 c0 -5 -9 -10 -19 -10 -11 0 -23 -5 -27 -11 -5 -8 1 -10 21
-7 26 5 27 4 22 -30 -13 -76 -79 -112 -262 -142 -257 -42 -297 -37 -343 47
l-22 41 87 7 c49 4 131 13 183 21 55 7 98 10 104 4 4 -4 16 -6 25 -3 46 15 47
15 26 23 l-20 9 20 1 c11 1 61 14 110 30 50 16 91 29 93 29 1 1 2 -3 2 -9z
m4485 -356 c8 -13 26 -26 38 -29 24 -6 36 -46 52 -162 5 -44 -8 -60 -18 -22
-4 15 -11 19 -24 15 -14 -4 -23 3 -37 29 -23 42 -46 46 -47 8 0 -16 -4 -36 -8
-47 -7 -17 -9 -16 -24 8 -20 30 -43 33 -69 9 -10 -9 -21 -13 -25 -10 -9 9 -9
114 0 158 6 32 12 38 41 43 29 6 35 12 44 49 6 23 13 80 16 127 7 144 19 139
33 -14 8 -89 18 -148 28 -162z m-5695 171 c59 -7 61 -8 56 -31 -25 -100 -59
-300 -68 -405 l-11 -125 -48 -17 c-45 -16 -198 -36 -281 -37 -34 0 -78 28 -78
51 0 4 22 9 50 11 37 2 51 -1 56 -12 5 -11 8 -9 14 10 4 16 12 24 23 22 14 -2
16 2 11 22 -7 28 4 34 24 14 9 -9 12 -9 12 -1 0 7 -10 19 -22 27 l-21 15 20
18 c33 28 63 139 73 269 10 115 19 182 26 196 2 3 26 0 54 -7 27 -7 77 -16
110 -20z m1025 -57 c5 -34 21 -166 32 -276 5 -57 8 -63 32 -68 14 -3 44 -9 66
-14 22 -5 77 -14 123 -20 132 -18 132 -18 59 -74 l-62 -48 -85 6 c-90 5 -208
32 -302 68 -65 25 -60 15 -77 163 -9 74 -25 227 -26 250 0 7 148 37 222 44 7
0 15 -14 18 -31z m4310 -43 c33 -8 106 -14 163 -15 80 0 102 -3 102 -14 0 -22
-23 -26 -139 -26 -152 0 -198 7 -205 33 -5 21 0 37 12 37 4 0 34 -7 67 -15z
m180 -86 c12 -18 -5 -100 -22 -106 -8 -3 -46 0 -84 7 -76 14 -89 26 -89 79 l0
31 94 0 c57 0 97 -4 101 -11z m-6293 -222 c3 -77 1 -95 -8 -83 -18 25 -24 19
-24 -26 l0 -42 -35 34 -34 33 -10 -26 c-12 -32 -22 -34 -39 -7 -16 26 -42 26
-42 0 0 -26 -25 -26 -57 0 -23 18 -24 20 -7 25 92 28 189 109 220 185 22 50
31 26 36 -93z m4020 43 c33 -16 66 -30 74 -30 8 0 14 -4 14 -8 0 -5 -56 -25
-125 -46 -93 -27 -135 -35 -161 -30 -70 13 -53 51 43 97 32 16 65 32 73 37 8
5 16 9 18 9 2 1 30 -12 64 -29z m1094 -42 c70 -78 93 -149 59 -178 -22 -18
-110 -8 -137 16 -11 10 -43 53 -70 94 l-49 74 58 13 c32 8 62 18 67 23 16 16
22 13 72 -42z m1145 42 l30 0 -6 -47 c-6 -42 -42 -133 -52 -133 -2 0 -23 10
-46 22 -31 17 -66 24 -137 28 l-95 5 49 53 c32 34 52 49 57 41 4 -7 19 -9 35
-6 32 6 94 -16 94 -33 0 -7 -6 -8 -17 -2 -10 5 -43 13 -75 16 -60 8 -80 -3
-58 -29 17 -21 44 -19 36 1 -5 14 -1 15 31 9 21 -3 48 -13 60 -21 33 -21 56
-18 48 5 -3 11 0 29 7 41 11 18 10 23 -4 34 -22 16 -23 30 -2 22 9 -3 29 -6
45 -6z m360 -45 c10 -3 32 1 48 9 35 19 41 19 41 6 0 -5 -6 -10 -12 -10 -7 0
-20 -5 -28 -10 -13 -9 -13 -11 -1 -19 10 -6 28 -3 54 11 28 14 50 18 72 14 21
-4 35 -2 37 5 2 6 20 -7 41 -30 38 -42 49 -75 22 -65 -25 10 -117 -15 -166
-46 -43 -26 -49 -27 -68 -14 -35 25 -74 102 -77 152 -2 40 -1 44 8 25 6 -13
19 -25 29 -28z m-4828 -129 c53 -14 134 -28 180 -32 l82 -6 45 34 c101 78 127
81 237 29 86 -41 109 -93 57 -128 -56 -37 -144 -43 -359 -27 -357 27 -425 50
-425 148 l0 45 43 -19 c23 -10 86 -30 140 -44z m-2247 -26 c57 0 77 -4 95 -20
13 -10 18 -19 12 -20 -7 0 -13 -7 -13 -16 0 -11 -5 -14 -16 -10 -9 4 -22 0
-28 -7 -14 -18 -127 -36 -180 -29 -32 4 -40 10 -52 38 -8 18 -26 42 -41 51
l-27 18 69 11 c55 8 74 7 90 -3 11 -8 49 -13 91 -13z m799 -29 c11 -22 24 -31
52 -36 50 -8 235 10 298 30 66 20 66 20 53 -17 -24 -73 -28 -74 -308 -88 -107
-5 -231 -15 -276 -21 -101 -15 -124 -6 -124 48 0 60 30 83 109 83 36 0 86 7
111 14 63 20 68 20 85 -13z"/>
<path d="M7006 5360 c-27 -11 -69 -39 -93 -62 -44 -43 -108 -158 -100 -181 3
-11 47 75 47 93 0 5 23 34 51 64 44 48 61 59 121 77 67 21 70 21 115 4 122
-47 193 -181 214 -401 11 -125 30 -185 23 -74 -9 130 -24 210 -54 288 -40 105
-70 145 -133 181 -64 37 -117 40 -191 11z"/>
<path d="M7068 5159 c-69 -10 -113 -27 -156 -64 -36 -30 -68 -83 -56 -93 4 -4
9 0 12 8 3 8 26 36 51 61 41 41 55 49 123 64 84 18 130 12 161 -23 19 -20 87
-156 87 -173 0 -6 -17 3 -37 21 -79 70 -149 78 -227 26 -57 -37 -115 -57 -146
-49 -11 3 -20 0 -20 -6 0 -6 17 -11 40 -11 40 0 98 24 152 61 50 36 142 17
203 -41 24 -23 32 -26 42 -15 9 10 2 32 -32 102 -24 48 -52 96 -63 106 -29 26
-70 34 -134 26z"/>
<path d="M8117 2372 c-60 -66 -33 -152 48 -152 59 0 95 36 95 95 0 55 -22 75
-82 75 -30 0 -50 -6 -61 -18z m113 -21 c19 -36 12 -79 -15 -97 -79 -52 -156
40 -82 98 30 24 83 23 97 -1z"/>
<path d="M1375 1381 c-9 -41 11 -139 46 -226 45 -114 36 -192 -30 -248 -37
-30 -77 -35 -120 -12 -35 18 -79 68 -87 100 -9 35 15 172 42 244 13 35 24 77
23 95 -1 31 -1 31 -14 -9 -45 -138 -65 -224 -67 -285 -2 -79 11 -104 74 -150
82 -60 175 -27 214 76 22 58 15 117 -27 214 -26 61 -32 89 -33 152 -1 80 -10
100 -21 49z"/>
</g>
</svg>
