<?xml version="1.0" standalone="no"?>
<!DOCTYPE svg PUBLIC "-//W3C//DTD SVG 20010904//EN"
 "http://www.w3.org/TR/2001/REC-SVG-20010904/DTD/svg10.dtd">
<svg version="1.0" xmlns="http://www.w3.org/2000/svg"
 width="712.000000pt" height="625.000000pt" viewBox="0 0 712.000000 625.000000"
 preserveAspectRatio="xMidYMid meet">
<metadata>
Created by potrace 1.16, written by Peter Selinger 2001-2019
</metadata>
<g transform="translate(0.000000,625.000000) scale(0.100000,-0.100000)"
fill="#000000" stroke="none">
<path d="M1888 5130 c-31 -36 -38 -39 -71 -33 -46 7 -79 -1 -114 -30 -15 -13
-41 -27 -56 -31 -29 -7 -71 -42 -78 -65 -4 -11 -11 -11 -36 2 -32 17 -45 14
-37 -8 3 -7 -6 -15 -25 -18 -40 -8 -99 -62 -117 -106 -11 -27 -25 -40 -55 -53
-24 -10 -43 -26 -46 -38 -4 -13 -14 -20 -29 -20 -60 0 -166 -81 -180 -137 -10
-37 2 -127 21 -160 15 -27 16 -27 10 -3 -27 119 -19 164 41 224 47 47 90 63
140 53 22 -4 25 -1 21 15 -7 24 25 58 53 58 14 0 27 16 45 55 41 85 111 120
157 78 24 -22 36 -8 14 16 -11 12 -13 21 -7 25 6 4 18 -5 27 -19 23 -35 34
-31 34 13 0 26 7 45 19 56 27 25 41 12 35 -32 l-5 -37 19 43 c10 23 30 55 45
70 25 24 34 27 95 26 66 0 68 0 83 30 22 44 62 61 100 45 57 -23 82 -130 32
-137 -12 -2 -27 -9 -33 -17 -9 -11 -4 -12 30 -8 26 4 40 2 40 -6 0 -6 -5 -11
-12 -11 -6 0 -9 -3 -6 -6 3 -3 33 8 67 25 48 25 73 31 124 31 55 0 69 -4 103
-30 54 -41 66 -38 18 5 -62 55 -133 68 -209 39 -78 -30 -73 -31 -81 26 -10 74
-42 110 -99 110 -38 0 -48 -5 -77 -40z"/>
<path d="M2420 4905 c0 -8 6 -16 13 -16 6 -1 19 -3 27 -4 8 -1 22 -3 32 -4 22
-2 82 -63 102 -105 9 -19 16 -47 16 -62 0 -43 -36 -108 -86 -154 -49 -45 -51
-65 -5 -37 39 23 41 22 41 -14 0 -30 -38 -80 -69 -90 -12 -4 -10 -10 7 -27 12
-12 22 -28 22 -36 0 -15 -41 -62 -80 -89 l-25 -18 25 4 c14 3 32 7 41 11 9 4
26 -2 42 -14 21 -17 27 -30 27 -60 0 -21 -5 -42 -11 -45 -12 -8 -7 -30 7 -30
5 -1 21 -4 36 -8 60 -16 39 -113 -33 -149 -36 -19 -34 -21 19 -18 31 1 32 1
22 -25 -19 -50 -58 -73 -162 -95 -32 -6 -58 -16 -58 -22 0 -11 52 -7 83 7 13
5 17 2 17 -12 0 -26 -34 -57 -89 -81 -41 -19 -42 -21 -22 -31 31 -17 26 -45
-13 -75 -39 -30 -100 -36 -110 -11 -8 21 -36 19 -36 -3 0 -40 -74 -82 -142
-82 -38 0 -35 12 9 35 59 32 188 168 217 228 48 102 58 194 30 288 -12 40 -14
70 -9 119 11 89 12 189 2 223 l-8 28 40 -21 c46 -23 91 -26 91 -6 0 8 -16 16
-40 20 -49 8 -51 18 -5 35 38 14 50 38 13 26 -49 -16 -94 -17 -106 -2 -10 11
-3 20 38 45 28 17 50 36 50 42 0 14 -5 13 -45 -14 -44 -30 -93 -42 -108 -27
-6 6 -24 11 -39 11 -42 0 -34 12 30 43 54 26 112 81 98 94 -3 3 -20 -9 -38
-26 -53 -52 -84 -64 -185 -68 -120 -5 -160 11 -165 65 -2 25 -8 37 -18 37 -11
0 -17 -15 -20 -50 -3 -27 -10 -57 -15 -65 -41 -66 -120 -114 -208 -125 -56 -7
-53 -25 4 -25 48 0 50 -15 4 -34 -42 -18 -43 -22 -10 -48 36 -28 33 -68 -9
-113 -31 -33 -40 -36 -83 -35 -26 1 -55 1 -63 1 -30 -2 13 -21 48 -21 22 0 32
-4 30 -12 -7 -19 -78 -40 -115 -34 -45 7 -42 -11 2 -20 45 -8 93 1 118 23 18
17 20 17 33 -2 8 -10 14 -40 14 -67 0 -41 -5 -54 -35 -86 -19 -21 -55 -49 -81
-63 -26 -13 -49 -32 -52 -41 -5 -22 -39 -32 -87 -26 -22 2 -34 0 -32 -6 6 -19
80 -19 115 0 32 17 33 17 53 -4 20 -22 25 -24 64 -26 27 -1 67 -85 73 -151 l4
-51 -41 -18 c-22 -11 -38 -22 -36 -27 3 -4 19 -1 36 8 38 19 49 10 15 -12 -33
-22 -34 -38 -1 -23 28 13 40 6 32 -16 -11 -28 -77 -48 -137 -41 -88 9 -240 88
-240 124 0 21 -47 44 -53 26 -8 -20 89 -104 160 -138 59 -28 78 -32 151 -32
45 0 82 -2 82 -5 0 -12 -44 -75 -63 -91 -33 -28 -145 -84 -205 -104 -43 -14
-56 -23 -66 -49 -110 -262 -135 -341 -136 -422 0 -59 -6 -84 -31 -138 l-31
-67 11 -92 c20 -153 85 -262 229 -377 l43 -35 -34 -56 c-19 -30 -42 -78 -51
-106 l-17 -50 -126 -17 c-69 -9 -130 -19 -135 -22 -14 -9 -338 -501 -338 -513
0 -25 19 -7 60 57 145 223 273 412 290 427 19 17 65 26 225 44 217 25 344 35
398 33 32 -2 102 2 155 7 53 6 129 11 167 13 l70 2 25 -100 c42 -161 40 -159
157 -188 32 -8 76 -21 98 -29 22 -9 99 -25 170 -37 72 -11 164 -30 205 -42 41
-11 107 -26 145 -33 156 -29 270 -56 284 -69 24 -21 78 -46 132 -62 57 -17
100 -9 190 36 60 31 87 36 279 50 69 5 152 14 185 20 33 5 87 10 120 10 33 0
87 7 120 14 33 8 130 26 215 41 170 29 309 60 319 71 14 15 -216 -21 -389 -61
-95 -22 -257 -44 -405 -55 -71 -6 -160 -15 -197 -20 -84 -13 -181 -13 -174 -1
4 5 1 22 -6 38 -9 20 -13 114 -14 318 -1 160 -4 460 -7 668 l-5 379 41 18
c101 45 590 139 877 169 52 6 140 17 195 25 55 9 114 16 131 16 l31 0 7 -83
c9 -116 1 -164 -31 -172 -35 -8 -73 -50 -73 -78 0 -13 9 -32 20 -42 11 -10 20
-30 20 -45 0 -14 5 -31 11 -37 8 -8 8 -17 0 -31 -14 -26 0 -64 30 -85 21 -15
21 -17 15 -264 -10 -376 -25 -594 -43 -621 -19 -31 -8 -42 17 -16 21 22 40
157 40 294 0 62 3 82 15 86 19 8 408 -21 628 -46 94 -11 187 -20 204 -20 25 0
33 -4 33 -18 0 -23 19 -42 41 -42 10 0 21 -9 24 -20 5 -16 15 -20 51 -20 33 0
44 -4 44 -15 0 -9 11 -20 24 -26 20 -10 30 -8 54 10 21 15 45 21 80 21 28 0
79 9 114 20 62 19 152 24 213 11 28 -6 32 -14 66 -116 61 -180 128 -377 145
-424 14 -35 18 -41 26 -27 5 9 7 20 4 25 -6 10 -159 449 -182 523 l-15 48 -69
0 c-39 0 -70 2 -70 5 0 4 7 20 16 37 35 69 -8 201 -95 289 -28 29 -65 75 -82
103 -36 59 -78 106 -94 106 -6 0 -25 12 -42 28 -17 15 -65 45 -107 66 -42 22
-76 42 -76 45 0 3 18 14 38 23 21 10 56 36 78 59 21 22 49 44 62 49 12 5 22
16 22 25 0 8 7 15 16 15 22 0 72 37 79 59 3 10 26 26 50 36 54 20 99 71 115
132 8 25 13 108 14 191 1 165 0 169 -86 228 -41 29 -48 44 -20 45 10 0 3 7
-17 15 -28 13 -36 13 -42 2 -13 -20 -12 -23 29 -45 66 -38 101 -83 107 -138 5
-43 4 -47 -6 -27 -14 26 -42 31 -32 5 3 -10 12 -27 20 -38 17 -26 17 -59 -2
-95 -9 -17 -11 -30 -5 -30 5 0 10 5 10 10 0 6 5 10 10 10 15 0 12 -62 -7 -121
-18 -56 -78 -129 -106 -129 -26 0 -20 17 8 24 33 8 33 25 0 18 -33 -6 -85 42
-67 60 7 7 12 19 12 27 0 11 -6 9 -20 -9 -21 -28 -37 -22 -21 8 13 25 14 42 2
42 -5 0 -12 -10 -15 -22 -6 -22 -60 -88 -71 -88 -3 0 -5 18 -5 40 0 22 -6 57
-14 77 -11 27 -14 76 -13 170 2 121 -3 154 -16 121 -3 -8 -6 -6 -6 5 -1 10 6
34 14 53 14 34 14 35 -5 29 -15 -5 -18 -3 -14 9 4 9 0 24 -7 33 -19 22 -128
73 -157 73 -13 0 -21 4 -18 9 9 13 -148 34 -214 28 -43 -4 -78 -15 -126 -42
-37 -21 -63 -32 -59 -25 12 20 126 89 167 102 35 10 52 28 27 28 -5 0 -7 5 -4
10 3 6 18 7 32 4 47 -12 20 20 -30 36 -26 8 -47 18 -47 23 0 21 173 -3 201
-29 10 -9 20 -11 23 -6 8 14 -35 40 -84 51 -53 12 -62 21 -22 21 18 0 32 5 32
11 0 8 -20 10 -60 7 -60 -4 -80 4 -37 16 36 10 127 7 149 -5 29 -16 37 0 9 22
-30 24 -20 24 58 -2 52 -18 76 -34 145 -103 46 -44 86 -91 90 -103 7 -21 27
-33 25 -15 -6 59 -129 181 -235 232 -55 27 -72 30 -157 30 -53 0 -99 -4 -102
-10 -3 -6 4 -10 17 -10 22 -1 22 -1 -5 -16 -15 -8 -43 -25 -62 -38 -19 -13
-73 -34 -120 -47 -58 -15 -85 -27 -85 -37 0 -10 6 -12 23 -8 44 14 103 17 162
8 43 -6 54 -11 40 -16 -75 -27 -221 -128 -210 -146 3 -5 13 -6 22 -3 13 5 11
-2 -8 -26 -47 -64 -51 -71 -43 -71 5 0 29 13 54 30 51 34 61 32 32 -5 -12 -15
-24 -47 -28 -71 -6 -44 -7 -44 -28 -29 -11 8 -37 24 -58 35 -37 20 -268 246
-268 262 0 5 15 48 33 96 18 48 40 114 47 146 10 41 19 60 32 64 13 3 18 14
18 38 0 21 7 38 19 46 26 19 71 105 71 138 0 15 9 62 21 106 24 92 20 177 -12
276 -25 75 -42 103 -91 149 -25 23 -36 41 -33 51 4 10 -4 23 -20 36 -23 18
-26 26 -20 53 7 29 6 30 -15 19 -12 -6 -23 -10 -24 -8 -1 2 -11 20 -21 41 -21
40 -59 72 -75 62 -5 -3 -20 -1 -32 5 -15 7 -9 -1 14 -22 20 -18 38 -42 40 -52
2 -11 9 -21 17 -24 10 -3 12 2 7 22 -3 14 -2 26 3 26 13 0 21 -38 21 -107 l0
-62 28 5 c24 5 37 -2 84 -48 30 -29 62 -66 70 -83 21 -43 23 -216 3 -255 -21
-41 -19 -57 5 -30 11 13 20 35 21 49 0 14 4 35 9 46 18 43 10 -106 -9 -163
-11 -31 -23 -75 -27 -97 -11 -66 -64 -155 -64 -110 0 9 10 31 22 48 13 18 23
50 25 81 4 43 0 56 -20 81 -15 18 -35 30 -51 30 -14 1 -33 10 -41 21 -14 18
-14 17 -15 -13 0 -36 -13 -43 -29 -15 -8 14 -10 10 -11 -21 0 -35 -13 -72 -44
-124 -11 -20 -13 -15 -13 50 1 62 -4 81 -31 135 -39 75 -49 136 -32 196 15 54
3 83 -16 40 -12 -29 -12 -29 -13 18 -2 76 21 117 63 118 15 0 17 -7 14 -45 -2
-27 1 -44 7 -42 5 2 11 21 13 43 4 48 14 59 41 45 12 -7 21 -8 21 -3 0 12 -34
42 -48 42 -7 0 -12 17 -12 43 0 30 -3 38 -10 27 -5 -8 -7 -23 -4 -32 8 -26 -4
-22 -43 12 -18 17 -41 30 -51 29 -15 0 -15 -2 2 -12 29 -18 66 -58 66 -72 0
-7 -19 -16 -43 -19 -34 -5 -59 -1 -113 19 -113 43 -143 49 -204 36 -53 -11
-122 -52 -109 -66 4 -3 23 4 43 16 20 11 36 17 36 12 0 -5 -12 -16 -27 -25
-16 -10 -45 -33 -66 -53 -45 -41 -48 -42 -65 -14 -11 17 -11 25 4 47 10 15 18
43 19 64 2 40 18 69 73 130 27 30 31 38 14 29 -30 -16 -101 -107 -108 -139 -3
-15 -13 -48 -22 -74 -15 -47 -15 -49 7 -79 22 -29 22 -32 7 -70 -21 -51 -20
-80 4 -157 35 -112 26 -131 -93 -181 -26 -11 -58 -31 -71 -44 -21 -21 -23 -29
-16 -74 12 -74 33 -107 80 -128 34 -15 40 -22 36 -39 -14 -50 -17 -138 -7
-231 12 -118 8 -128 -71 -173 -54 -30 -99 -78 -112 -118 -3 -12 -15 -29 -26
-39 -19 -17 -21 -16 -67 24 -62 54 -66 57 -89 65 -18 5 -19 17 -19 161 0 85 3
155 8 155 4 0 7 -12 7 -26 0 -16 4 -23 11 -18 7 4 9 21 5 43 -3 21 1 53 9 76
17 48 19 127 4 142 -8 8 -6 24 5 57 20 59 21 225 2 289 -29 98 -161 244 -265
294 -51 25 -61 27 -61 14 0 -5 12 -12 26 -15 94 -24 242 -180 279 -294 25 -74
13 -86 -23 -22 -35 62 -87 128 -95 120 -3 -3 12 -26 33 -50 51 -59 92 -143 98
-202 6 -67 -6 -133 -29 -160 -19 -21 -20 -21 -14 -3 4 11 12 43 18 72 13 62 0
98 -77 213 -52 75 -173 206 -183 196 -3 -2 28 -38 68 -78 46 -46 94 -107 127
-163 60 -102 64 -134 31 -233 -23 -67 -46 -85 -35 -27 15 77 -117 261 -227
316 -23 12 -56 32 -74 45 -38 28 -97 114 -117 170 -8 21 -15 33 -15 27 -2 -26
-21 -12 -21 15 0 23 -3 20 -24 -23 -13 -27 -35 -62 -49 -77 -34 -37 -116 -88
-141 -89 -12 0 -15 -3 -8 -6 22 -9 13 -20 -45 -59 -70 -46 -153 -127 -153
-149 0 -8 -5 -15 -10 -15 -16 0 -1 120 21 166 27 57 145 178 194 199 22 9 34
19 27 22 -41 16 -178 -101 -238 -202 -24 -42 -30 -64 -34 -140 -6 -84 -7 -88
-19 -60 -8 19 -11 59 -9 110 3 66 10 92 38 150 65 131 227 264 333 273 43 3
55 1 71 -17 25 -27 29 -27 66 10 29 30 35 31 82 26 31 -4 57 -2 65 4 10 9 15
5 23 -15 12 -34 33 -34 24 -1 -6 24 -5 25 49 25 l56 0 -11 33 c-18 53 -37 75
-58 70 -12 -3 -22 3 -29 16 -14 24 -31 28 -31 6 0 -8 5 -15 10 -15 6 0 10 -9
10 -19 0 -14 -9 -21 -31 -26 -22 -5 -29 -11 -25 -22 11 -27 -14 -43 -68 -43
-34 0 -61 -7 -80 -19 -22 -15 -34 -17 -48 -10 -11 6 -38 14 -61 19 -36 7 -39
9 -19 15 24 8 30 25 8 25 -8 0 -24 -12 -35 -27 -25 -31 -39 -24 -23 12 17 37
85 81 137 88 35 5 61 1 113 -19 l67 -25 -50 51 c-27 27 -53 50 -58 50 -5 0
-25 14 -44 30 -18 17 -44 30 -56 30 l-22 0 21 -13 c64 -37 124 -80 124 -87 0
-4 -28 -5 -63 -3 -65 6 -107 -7 -149 -45 -15 -13 -18 -13 -18 -1 0 22 65 89
86 89 9 0 15 3 11 6 -9 9 -42 -5 -73 -31 -33 -28 -44 -31 -44 -11 0 21 39 65
73 83 18 9 26 18 20 20 -20 7 -82 -36 -98 -67 -9 -17 -15 -57 -15 -97 0 -95
-5 -107 -53 -128 -64 -28 -171 -145 -215 -234 -34 -71 -37 -82 -37 -166 0 -77
4 -98 28 -149 31 -66 34 -86 12 -86 -19 0 -19 -30 1 -100 9 -30 16 -62 16 -70
1 -35 -12 -161 -24 -242 -11 -75 -17 -90 -38 -104 -14 -10 -38 -29 -55 -44
-16 -15 -46 -33 -65 -40 -19 -7 -47 -22 -62 -32 -14 -10 -33 -18 -41 -18 -31
0 -195 52 -251 81 -33 16 -64 29 -69 29 -6 0 -7 -23 -3 -60 l7 -60 -52 20
c-28 11 -59 18 -68 16 -34 -11 -115 93 -109 141 3 24 5 25 88 27 86 2 132 17
159 50 9 10 30 16 58 16 82 0 150 60 123 110 -9 16 -6 21 15 26 33 8 85 69 85
99 0 14 5 25 11 25 18 0 83 33 97 50 8 9 11 32 8 58 -2 30 1 48 12 58 22 23
21 97 -2 123 -11 12 -25 21 -33 21 -9 0 -13 14 -13 43 0 33 -7 51 -31 80 -28
34 -30 41 -19 62 8 15 10 39 6 63 -4 30 -2 41 9 45 24 10 47 67 42 106 -3 26
4 50 25 90 45 86 35 142 -40 223 -23 24 -50 42 -76 48 -23 6 -49 15 -58 20
-14 8 -18 7 -18 -5z m2149 -225 c24 -11 47 -20 52 -20 5 0 25 -6 43 -14 34
-14 34 -14 23 -55 -17 -63 15 -236 56 -310 29 -50 32 -64 32 -137 0 -52 -5
-87 -13 -97 -26 -31 9 -30 53 2 49 35 55 37 55 15 0 -24 18 -7 25 24 3 15 17
41 31 57 l25 30 -5 -45 c-3 -25 -8 -55 -12 -65 -7 -17 -6 -18 8 -7 9 7 19 32
23 55 4 23 9 50 11 60 4 13 -1 17 -20 17 -16 0 -35 -13 -56 -37 -28 -33 -31
-35 -25 -13 10 36 57 90 77 90 4 0 17 -9 28 -20 29 -29 26 -85 -8 -144 -26
-44 -28 -55 -20 -95 9 -49 2 -63 -41 -76 -21 -6 -23 -5 -16 11 4 11 10 30 13
43 8 38 -21 21 -31 -18 -11 -42 -3 -61 24 -61 19 0 21 -4 14 -37 -9 -51 -34
-117 -110 -293 -34 -78 -53 -106 -122 -179 -86 -92 -151 -133 -230 -146 l-43
-7 0 41 c0 46 -8 49 -52 24 -28 -17 -30 -17 -39 0 -14 25 -32 21 -24 -5 6 -22
6 -22 -15 2 -16 20 -20 35 -17 70 3 25 8 53 12 63 5 13 2 17 -12 17 -10 0 -24
9 -30 20 -45 71 -78 326 -54 412 12 42 17 46 90 81 42 20 88 37 101 38 24 0
125 37 106 38 -5 1 -3 8 4 16 11 13 10 20 -7 42 -25 34 -50 45 -34 15 13 -24
14 -59 3 -66 -5 -3 -40 -12 -78 -20 -38 -8 -89 -26 -114 -40 -93 -53 -163 -26
-181 71 -13 65 1 88 65 109 48 16 150 75 162 95 3 5 30 25 60 44 30 19 54 37
54 40 0 11 -48 100 -65 120 -11 13 -18 16 -21 8 -3 -7 -11 -10 -18 -7 -9 3
-12 -18 -12 -83 -1 -69 -4 -88 -15 -88 -20 0 -51 119 -46 178 5 52 50 129 79
135 17 3 52 -25 60 -49 3 -8 9 -11 13 -7 12 12 -4 44 -30 58 -14 8 -24 18 -22
24 2 6 28 30 58 53 63 49 107 55 178 23z m-2629 -99 c0 -16 61 -34 120 -36 39
-1 68 -8 92 -23 20 -12 44 -22 54 -23 11 0 6 -5 -12 -10 -32 -9 -61 -35 -51
-45 3 -3 16 1 29 10 34 22 59 11 89 -39 38 -61 42 -92 24 -176 -19 -94 -19
-132 1 -171 27 -51 16 -198 -20 -272 -33 -68 -133 -178 -211 -231 -50 -35 -58
-37 -107 -33 -29 3 -61 9 -70 13 -11 4 -18 3 -18 -3 0 -6 17 -18 38 -27 l38
-17 -2 -151 c-2 -175 -3 -177 -93 -177 -45 -1 -52 -3 -37 -12 11 -6 40 -8 72
-4 l54 6 0 -50 0 -50 -37 1 c-21 0 -56 3 -77 7 -35 6 -40 11 -52 52 -8 25 -14
46 -14 48 0 1 8 2 18 3 13 0 12 3 -6 11 -41 20 -74 188 -73 366 2 127 1 135
-29 202 -24 54 -29 78 -24 105 4 23 2 41 -6 50 -11 13 -8 24 14 64 30 56 32
89 10 154 l-16 47 31 26 c43 35 58 91 37 131 -15 30 -15 32 9 47 14 9 25 24
25 34 0 10 13 23 33 32 17 7 36 15 41 18 4 2 5 -5 1 -17 -5 -15 -2 -21 9 -21
9 0 16 5 16 10 0 12 59 50 78 50 8 0 27 -14 43 -31 30 -33 40 -20 14 18 -19
26 -63 37 -98 24 l-27 -10 30 41 c17 22 30 47 30 55 0 7 7 13 15 13 8 0 15 -4
15 -9z m1338 -155 c2 -23 -3 -47 -13 -63 -9 -13 -14 -28 -10 -31 8 -9 34 26
42 56 7 30 18 28 33 -7 6 -16 31 -49 55 -72 44 -44 48 -59 16 -59 -10 0 -25
-8 -32 -17 -13 -15 -12 -16 11 -8 14 4 45 8 70 9 41 1 46 -2 61 -32 14 -27 18
-30 24 -15 6 15 16 8 61 -41 70 -77 110 -156 94 -186 -6 -12 -9 -33 -6 -48 3
-15 2 -34 -3 -42 -14 -21 -25 -5 -12 18 10 19 6 32 -11 32 -4 0 -8 -12 -8 -26
0 -37 -21 -115 -38 -141 -12 -20 -23 -23 -77 -23 -78 0 -115 11 -70 21 27 5
25 7 -23 14 -54 8 -72 24 -72 62 0 14 9 19 47 21 67 4 80 15 94 77 l12 55 39
0 c28 0 46 -7 63 -24 25 -25 40 -21 29 7 -7 19 -56 37 -97 37 -22 0 -40 10
-64 36 -18 20 -33 40 -33 45 0 5 -6 6 -14 3 -8 -3 -16 2 -19 13 -4 17 -4 17
-12 -2 -5 -11 -11 -22 -15 -25 -30 -25 -50 -73 -50 -124 0 -31 -4 -56 -9 -56
-17 0 -21 -33 -6 -50 8 -9 15 -21 15 -26 0 -5 14 -36 30 -69 36 -72 38 -120 7
-166 -26 -38 -83 -56 -129 -40 -16 6 -35 8 -43 5 -8 -3 -26 6 -41 21 -25 25
-26 31 -21 92 3 44 12 74 26 94 12 15 21 32 21 37 0 23 43 62 68 62 l27 1 -25
14 -25 14 27 1 c15 0 30 5 34 12 5 8 -7 9 -45 5 -47 -6 -52 -5 -45 11 26 60 7
145 -42 177 -13 8 -24 24 -24 35 0 10 -4 22 -10 25 -5 3 -10 1 -10 -6 0 -8 -4
-8 -16 2 -13 10 -17 10 -25 -2 -5 -8 -7 -22 -5 -31 2 -9 -4 -24 -15 -33 -10
-10 -21 -30 -24 -46 -6 -27 -10 -29 -55 -29 -50 0 -73 -14 -85 -50 -10 -32
-32 -23 -49 20 -19 48 -19 53 -5 103 13 48 60 101 126 144 57 36 72 41 53 18
-23 -28 -1 -28 40 0 45 31 88 29 97 -5 3 -11 12 -20 19 -20 24 0 16 18 -21 46
-34 26 -54 28 -97 9 -38 -15 -14 13 66 80 46 39 92 83 101 98 22 37 39 30 43
-17z m-242 -473 c-4 -9 -1 -20 6 -25 10 -6 8 -8 -4 -8 -10 0 -18 -4 -18 -10 0
-5 6 -10 13 -10 8 0 22 -9 32 -20 13 -15 31 -20 67 -20 30 0 47 -4 43 -10 -3
-5 -17 -10 -31 -10 -13 0 -24 -5 -24 -11 0 -7 11 -9 30 -5 36 7 36 5 9 -49
-19 -39 -26 -43 -65 -48 -54 -6 -134 8 -153 27 -8 9 -16 44 -19 90 -6 101 9
126 74 126 39 0 45 -3 40 -17z m765 -45 c5 -81 -20 -164 -47 -154 -9 3 -11
-38 -10 -158 l1 -162 -39 -79 c-29 -58 -59 -99 -110 -151 -72 -71 -97 -85
-188 -99 -21 -3 -38 -10 -38 -15 0 -15 49 -12 107 5 64 19 183 126 218 196 28
53 52 76 40 38 -4 -13 -18 -43 -31 -66 -18 -31 -20 -41 -10 -37 16 6 76 117
76 141 0 28 42 11 99 -39 32 -29 84 -68 115 -87 32 -18 55 -35 53 -38 -3 -2
-45 -8 -93 -13 -136 -14 -377 -81 -480 -133 -66 -34 -163 -108 -197 -151 -36
-47 -79 -50 -101 -7 -20 38 -176 182 -258 237 -69 47 -233 124 -307 144 -40
10 -42 13 -25 24 11 7 37 19 59 26 22 7 54 28 72 46 17 19 36 34 42 34 6 0 14
-18 17 -40 4 -22 10 -37 15 -34 5 3 14 -8 20 -23 24 -58 35 -77 73 -120 44
-50 131 -98 194 -106 53 -6 70 -20 94 -74 10 -24 21 -43 23 -43 5 0 -10 42
-25 71 -8 15 -7 19 3 19 17 0 43 -37 53 -74 6 -26 15 -32 27 -19 4 3 1 13 -7
22 -7 9 -17 26 -20 37 -5 18 -2 23 20 28 34 9 40 2 25 -30 -18 -40 -6 -40 18
0 12 19 34 45 49 56 30 24 31 24 -65 -3 -55 -16 -100 -8 -136 22 -10 8 -27 10
-45 6 -42 -9 -129 33 -175 84 -21 24 -53 73 -70 109 -28 61 -30 76 -31 172 0
95 3 116 37 219 20 62 37 125 37 140 1 39 16 7 24 -51 5 -30 14 -51 25 -57 9
-5 56 -13 105 -17 l87 -7 -2 -46 c-3 -54 9 -79 52 -115 58 -50 193 -30 240 35
19 27 21 39 16 94 l-6 63 32 -9 c17 -5 58 -9 89 -9 68 0 91 17 108 79 11 43
54 101 74 101 7 0 21 9 31 20 24 26 45 25 46 -2z m1058 -438 c0 -35 -2 -50 -8
-41 -7 11 -10 9 -16 -8 -12 -38 -55 -255 -55 -276 1 -38 16 6 40 110 12 55 26
111 30 125 7 21 9 22 10 5 4 -40 18 28 19 89 l1 59 26 -24 c14 -13 51 -54 81
-92 38 -46 73 -77 114 -98 66 -35 83 -62 98 -155 9 -58 9 -60 -27 -119 -35
-57 -37 -65 -37 -145 0 -109 16 -144 106 -231 73 -70 79 -87 58 -147 -9 -26
-7 -43 10 -94 12 -34 21 -82 21 -107 0 -40 -5 -50 -37 -79 -102 -92 -267 -149
-409 -143 l-31 1 -6 98 c-3 60 -13 119 -26 157 -27 75 -27 75 8 62 22 -8 36
-8 55 1 39 18 31 28 -19 24 -42 -4 -75 9 -75 28 0 10 108 33 120 25 5 -3 10
-16 11 -28 l0 -22 11 23 c9 18 20 22 57 23 25 1 36 4 24 6 -34 6 -28 21 10 26
l32 3 -32 8 c-29 7 -33 13 -33 41 0 19 13 51 31 79 29 44 31 50 20 85 -18 63
-13 111 20 181 33 69 51 170 30 170 -6 0 -11 -16 -11 -39 0 -43 -18 -101 -31
-101 -5 0 -9 19 -9 43 -1 34 -3 39 -11 24 -6 -10 -9 -27 -6 -38 6 -24 -9 -35
-17 -13 -4 9 -9 14 -12 11 -4 -3 3 -19 15 -36 21 -29 21 -32 5 -80 -15 -46
-15 -54 0 -97 16 -47 16 -48 -11 -93 -17 -30 -29 -67 -32 -106 -5 -51 -9 -60
-26 -60 -17 0 -20 7 -20 40 0 22 -4 47 -10 55 -14 23 -13 93 2 115 7 11 13 32
13 47 0 33 -28 53 -87 63 l-43 7 -1 76 c-1 83 -12 178 -22 188 -3 3 -45 1 -93
-6 -48 -6 -91 -7 -95 -3 -8 8 95 200 166 308 18 28 45 77 60 110 23 51 29 57
36 40 4 -11 8 -45 8 -75z m-674 10 c4 -17 4 -47 1 -68 -4 -20 -8 -73 -11 -116
-3 -43 -6 -81 -8 -82 -2 -2 -24 -7 -49 -10 -42 -6 -50 -3 -101 36 -61 46 -61
39 -14 127 25 49 85 103 114 103 16 0 16 4 -2 -45 -16 -45 -20 -84 -6 -69 4 5
19 42 31 82 13 39 27 72 31 72 4 0 10 -14 14 -30z m1380 10 c-3 -5 -13 -10
-21 -10 -8 0 -14 -6 -14 -14 0 -13 6 -13 46 1 41 14 50 14 107 -2 71 -20 117
-44 117 -62 0 -7 -11 -23 -25 -37 -23 -23 -27 -24 -52 -11 -32 17 -63 19 -63
5 0 -5 10 -10 23 -10 29 0 40 -8 67 -50 l22 -35 -6 36 c-5 29 -3 38 11 43 10
3 24 9 32 12 11 5 12 1 7 -17 -11 -34 -7 -157 6 -201 9 -32 8 -42 -11 -74 -12
-20 -19 -39 -15 -43 4 -3 9 0 11 7 9 23 20 12 42 -39 28 -68 27 -104 -4 -135
-14 -14 -25 -27 -25 -29 0 -15 46 -1 82 25 63 46 108 37 108 -23 0 -43 -17
-67 -65 -88 -23 -10 -46 -26 -49 -35 -4 -11 -13 -14 -27 -11 -16 4 -19 2 -14
-13 9 -29 -82 -95 -167 -121 -76 -23 -127 -22 -234 6 -73 19 -134 55 -199 119
-69 66 -97 123 -103 208 -4 65 -4 69 42 145 l46 78 -2 111 c-1 106 0 114 27
160 16 27 44 64 62 82 34 32 35 32 139 32 68 0 103 -4 99 -10z m-3891 -114 c8
-18 17 -53 21 -77 4 -24 24 -98 45 -164 42 -130 94 -335 87 -341 -4 -5 -37 32
-87 95 -14 17 -43 52 -65 77 -22 26 -48 59 -58 75 l-18 28 40 25 c21 14 42 29
45 34 3 5 -15 20 -39 33 l-45 24 0 88 c0 74 3 92 22 117 24 34 33 31 52 -14z
m337 -77 c23 -76 20 -99 -11 -99 -26 0 -26 -25 0 -52 11 -12 20 -31 20 -42 0
-26 -28 -56 -53 -56 -18 0 -19 6 -13 108 10 164 17 222 27 216 5 -3 18 -36 30
-75z m305 36 c29 -13 101 -35 160 -50 142 -35 248 -70 304 -100 58 -31 36 -32
-38 -1 -92 38 -161 55 -339 81 -91 14 -168 27 -170 29 -2 2 -7 20 -10 41 -6
36 -5 37 18 30 13 -4 47 -18 75 -30z m-732 -82 l1 -77 38 -22 38 -21 -42 -35
-42 -36 44 -52 c24 -29 64 -76 88 -104 24 -28 53 -62 65 -76 11 -14 29 -37 38
-52 16 -24 16 -29 3 -42 -27 -26 -36 -64 -20 -80 8 -8 15 -29 15 -46 0 -17 5
-41 12 -53 7 -12 15 -50 18 -84 l5 -63 -27 0 c-31 0 -78 19 -78 32 0 4 5 8 10
8 6 0 10 7 10 15 0 13 -7 12 -41 -6 -51 -25 -99 -20 -162 21 -55 35 -85 94
-94 182 -7 78 6 122 53 183 19 25 30 45 26 45 -13 0 -48 -41 -66 -77 -9 -18
-21 -33 -26 -33 -15 0 -5 152 13 187 19 37 21 43 8 43 -5 0 -12 -11 -15 -25
-9 -36 -24 -22 -18 17 3 27 2 31 -9 21 -8 -8 -14 -47 -17 -105 -3 -72 -9 -104
-28 -142 -29 -61 -30 -70 -3 -113 34 -54 17 -77 -65 -93 -86 -16 -95 -31 -14
-23 l63 5 33 -45 c17 -25 48 -55 67 -67 19 -12 35 -24 35 -27 0 -2 -13 -23
-28 -46 -47 -70 -64 -125 -63 -205 l0 -73 -59 46 c-111 86 -163 163 -201 301
-27 98 -23 167 13 221 21 32 26 54 31 128 3 60 13 113 30 160 14 39 39 107 55
153 42 116 51 127 124 151 35 12 88 36 118 55 30 18 57 31 59 29 3 -2 5 -38 5
-80z m826 -17 c285 -40 510 -127 647 -251 126 -114 130 -158 7 -84 -83 51
-219 119 -294 149 -30 11 -69 27 -86 35 -37 17 -197 61 -274 75 -31 6 -104 14
-163 19 -59 4 -110 10 -112 13 -3 3 -8 28 -12 56 l-6 52 59 -20 c33 -10 138
-30 234 -44z m1976 -31 c3 -25 4 -48 1 -52 -3 -3 -77 -11 -164 -19 -87 -7
-185 -18 -218 -23 -33 -6 -82 -13 -108 -16 -47 -6 -200 -45 -327 -83 -36 -10
-114 -42 -174 -71 -60 -28 -111 -49 -113 -47 -5 5 37 47 79 80 45 34 269 130
348 149 113 27 222 45 330 56 137 13 264 37 298 55 39 22 40 21 48 -29z
m-2111 -55 c265 -31 505 -106 731 -231 90 -49 103 -63 74 -79 -16 -9 -25 -8
-38 2 -15 12 -16 11 -3 -5 13 -16 12 -21 -7 -39 -18 -18 -25 -20 -44 -11 -13
7 -52 21 -88 32 -78 25 -722 183 -840 206 -19 4 -38 9 -42 12 -15 8 17 43 39
43 13 0 23 5 23 10 0 6 9 10 19 10 11 0 22 4 25 9 7 11 -17 21 -50 21 -15 0
-24 6 -24 15 0 18 88 20 225 5z m2240 -11 c4 -6 -2 -13 -14 -16 -31 -8 -26
-23 8 -23 32 0 51 -18 31 -30 -6 -4 -44 -10 -83 -13 -142 -13 -740 -115 -867
-149 -90 -24 -104 -31 -153 -74 -44 -41 -51 -41 -81 -9 -13 14 -33 25 -45 25
-46 0 -17 29 69 69 50 22 96 41 103 41 7 0 44 12 82 26 116 42 156 54 253 74
52 11 97 22 102 25 5 3 96 12 203 21 108 8 233 21 279 28 111 18 106 17 113 5z
m-2565 -109 c225 -43 774 -177 948 -232 l64 -20 -7 -50 c-6 -38 -3 -53 9 -67
17 -19 23 -61 51 -361 9 -96 27 -254 40 -350 22 -159 40 -385 35 -435 -1 -11
-3 -32 -4 -47 -1 -26 -3 -28 -36 -22 -19 3 -51 10 -70 15 -19 6 -80 19 -135
29 -55 11 -149 31 -210 45 -60 13 -173 38 -250 55 -181 40 -233 57 -250 83 -7
12 -27 76 -44 142 -16 66 -39 152 -50 190 -12 39 -27 97 -35 130 -8 33 -21 87
-29 120 -28 109 -28 115 -14 115 8 0 22 9 32 20 15 16 17 31 12 81 -4 46 -1
68 9 85 10 15 12 24 5 29 -14 8 -14 41 0 63 26 41 -65 112 -142 112 -23 0 -29
4 -29 23 0 12 -8 51 -19 87 -10 36 -21 91 -25 123 -9 68 -14 67 144 37z m1357
-200 c23 -11 45 -25 48 -31 12 -19 -3 -22 -27 -5 -12 9 -34 16 -48 15 -22 0
-20 -2 13 -16 20 -8 37 -19 37 -24 0 -26 -155 -57 -216 -42 -44 10 -51 33 -16
48 12 5 22 13 22 17 0 15 -24 8 -47 -14 -27 -25 -40 -19 -23 12 30 56 177 79
257 40z m1594 -48 c38 -48 -4 -92 -93 -99 -54 -4 -67 -2 -90 17 -67 53 -5 112
111 106 41 -2 59 -8 72 -24z m-1429 -32 c-4 -39 -35 -68 -112 -107 -51 -26
-63 -28 -165 -27 -154 2 -224 30 -225 92 0 29 6 28 50 -12 23 -21 61 -41 96
-51 111 -32 207 -3 290 89 27 30 54 53 59 51 6 -1 9 -17 7 -35z m-1519 -21
c24 -13 56 -49 57 -63 0 -5 -7 -18 -17 -28 -21 -23 -102 -24 -149 -2 -29 14
-34 22 -34 50 0 21 6 37 18 43 23 14 98 14 125 0z m1511 -271 c4 -117 11 -319
16 -448 5 -129 6 -296 3 -371 l-6 -136 -46 -23 c-63 -31 -167 -38 -224 -16
-82 32 -84 37 -96 187 -6 74 -17 184 -26 244 -8 61 -23 212 -35 337 -11 124
-25 260 -31 302 -6 42 -9 80 -5 83 3 3 31 -4 62 -16 62 -24 163 -28 229 -10
21 6 62 26 90 44 27 19 53 34 56 34 3 1 9 -95 13 -211z m1995 13 c7 -25 24
-49 43 -62 27 -20 29 -24 15 -34 -9 -7 -14 -14 -12 -17 8 -8 55 3 55 13 0 5 7
9 15 9 28 0 102 72 111 108 8 29 27 28 99 -7 96 -47 192 -128 246 -206 27 -38
59 -79 72 -90 79 -67 127 -202 98 -278 -13 -33 -39 -57 -62 -57 -16 0 -18 5
-13 25 10 40 -22 109 -72 154 -24 23 -44 44 -44 48 0 3 -8 12 -17 19 -14 9
-19 32 -23 100 -3 49 -10 89 -16 91 -7 2 -9 -8 -6 -27 3 -18 0 -30 -7 -30 -6
0 -11 9 -11 19 0 11 -4 23 -10 26 -14 9 -12 -16 5 -45 8 -14 14 -36 15 -48 0
-13 7 -40 17 -59 12 -26 13 -37 5 -42 -22 -13 -190 16 -227 39 -34 21 -37 21
-55 5 -27 -24 -25 -48 5 -76 31 -30 31 -39 1 -39 -23 0 -59 -33 -69 -63 -2 -8
-33 -8 -123 1 -65 6 -152 14 -193 18 l-74 6 7 60 c8 78 34 134 85 183 41 39
41 39 41 113 0 52 -4 78 -15 88 -27 28 -18 49 33 72 26 11 52 21 58 21 6 1 16
-17 23 -38z m-3650 -106 c46 -30 90 -55 96 -55 17 0 41 -31 49 -62 3 -16 4
-28 1 -28 -3 0 -34 20 -69 45 -62 43 -95 57 -81 34 4 -6 24 -23 46 -38 40 -30
109 -106 109 -122 0 -5 -11 -9 -24 -9 -26 0 -56 33 -56 62 0 9 -15 27 -32 39
-18 12 -45 34 -60 47 -15 14 -31 22 -35 18 -4 -4 19 -33 52 -64 51 -50 115
-136 115 -156 0 -3 -8 -6 -18 -6 -27 0 -60 35 -73 79 -11 38 -103 140 -115
128 -3 -3 18 -32 48 -64 54 -58 87 -118 73 -131 -4 -4 -23 12 -44 35 -54 63
-108 102 -131 96 -14 -4 -20 0 -20 11 0 9 -5 16 -11 16 -7 0 -9 -9 -5 -23 4
-19 0 -25 -27 -35 -19 -7 -48 -12 -66 -12 l-33 0 4 53 c6 77 40 141 86 163 39
19 84 31 117 33 11 1 58 -24 104 -54z m-89 -206 c21 -12 44 -32 50 -45 16 -29
62 -52 115 -56 35 -3 40 0 45 22 3 14 10 26 15 27 6 1 17 4 26 8 13 5 19 -6
32 -52 9 -32 19 -77 23 -99 l6 -41 -103 -7 c-57 -4 -151 -11 -209 -17 -58 -6
-161 -14 -230 -20 -69 -5 -137 -12 -152 -15 -25 -6 -28 -3 -28 17 0 37 87 179
108 177 70 -6 88 1 106 42 14 33 23 40 54 46 20 4 51 13 67 20 38 17 31 17 75
-7z m3406 -71 c-3 -13 -9 -40 -12 -62 l-7 -38 -116 6 c-64 4 -137 9 -162 12
-43 5 -45 7 -41 33 4 28 6 28 85 35 45 4 114 13 152 20 105 20 108 20 101 -6z
m622 3 c20 -10 64 -21 96 -25 121 -14 217 -100 202 -182 -6 -27 -15 -39 -42
-52 -27 -13 -37 -14 -43 -4 -8 13 -41 6 -41 -8 0 -4 -14 -13 -31 -20 -49 -21
-57 1 -13 39 20 18 34 35 31 38 -3 3 -30 -6 -58 -21 -91 -45 -137 -26 -53 21
21 13 44 24 49 26 6 3 7 8 2 13 -4 4 -28 -2 -52 -14 -45 -22 -121 -31 -110
-13 3 5 30 21 60 35 30 14 55 30 55 35 0 15 -11 14 -55 -5 -41 -17 -95 -11
-95 11 0 7 35 24 85 39 46 14 87 31 91 38 5 7 -1 9 -20 4 -14 -3 -37 -9 -50
-12 -19 -4 -32 1 -50 20 -29 28 -34 56 -11 56 9 0 32 -8 53 -19z m-2461 -667
c62 -6 69 -5 136 30 39 20 72 34 75 31 12 -11 3 -60 -14 -72 -39 -29 -126 -53
-187 -52 -104 1 -174 40 -184 103 l-6 36 57 -34 c43 -26 74 -36 123 -42z"/>
<path d="M4474 4387 c3 -11 -4 -28 -14 -40 -30 -32 -39 -166 -12 -175 7 -2 12
-10 12 -17 0 -13 22 -25 43 -25 7 1 2 9 -10 19 l-23 19 38 -5 c31 -4 44 0 68
20 26 23 29 31 28 83 -2 54 -4 60 -46 99 -47 44 -93 56 -84 22z m76 -45 c18
-14 24 -32 28 -74 4 -54 4 -55 -29 -71 -32 -15 -35 -15 -44 0 -5 9 -18 25 -28
36 -15 14 -17 27 -12 54 13 72 42 90 85 55z"/>
<path d="M1914 4334 c-9 -20 -23 -38 -31 -41 -7 -3 -13 -11 -13 -19 0 -7 -6
-17 -13 -21 -35 -20 -49 -62 -43 -117 4 -30 13 -59 19 -64 7 -6 45 -11 86 -13
l74 -4 19 55 c20 61 15 96 -23 136 l-20 22 30 10 c41 15 41 36 0 27 -29 -7
-30 -6 -20 13 6 12 7 23 3 26 -5 3 -15 -6 -22 -19 -14 -26 -30 -33 -30 -14 0
6 5 19 10 29 6 12 6 21 1 25 -6 3 -18 -11 -27 -31z m58 -96 c20 -32 28 -80 19
-114 -7 -27 -8 -28 -13 -6 -9 32 -34 27 -47 -8 -8 -24 -16 -30 -38 -30 -41 0
-53 17 -53 73 0 40 5 53 29 78 37 36 82 39 103 7z"/>
<path d="M2166 4333 c-3 -10 -21 -38 -39 -63 -59 -79 -56 -189 6 -271 18 -23
36 -48 42 -55 12 -16 -20 -54 -47 -54 -10 0 -18 -4 -18 -10 0 -18 46 -11 74
11 34 27 33 45 -9 98 -36 46 -44 68 -22 68 6 0 29 8 49 17 55 26 76 105 41
155 -15 22 -15 25 0 36 18 13 23 35 8 35 -6 0 -13 -4 -16 -10 -10 -16 -38 -12
-31 5 18 44 17 49 -3 25 l-22 -25 7 28 c7 30 -10 38 -20 10z m41 -95 c16 -15
23 -33 23 -60 0 -35 -2 -39 -20 -33 -16 5 -23 0 -31 -24 -8 -23 -17 -31 -34
-31 -27 0 -35 17 -35 76 0 34 6 51 25 69 30 31 42 31 72 3z"/>
<path d="M5369 3303 c0 -11 -3 -13 -6 -5 -9 23 -25 12 -19 -13 5 -20 0 -32
-23 -55 -20 -20 -30 -42 -33 -70 -2 -22 0 -40 4 -40 5 0 8 10 8 23 0 30 25 64
62 83 28 15 31 14 54 -7 32 -30 33 -98 3 -140 -11 -16 -24 -29 -28 -29 -19 0
-51 40 -51 63 0 14 -4 29 -10 32 -5 3 -10 -3 -10 -14 0 -15 -6 -21 -21 -21
-29 0 -19 -22 15 -31 56 -15 79 -59 30 -59 -66 0 -89 -59 -38 -99 36 -28 56
-26 22 2 -25 21 -32 36 -29 65 1 7 16 12 40 12 34 0 45 6 75 42 20 23 38 56
42 74 6 32 -9 97 -28 121 -6 7 -8 25 -5 39 4 21 1 25 -14 21 -12 -3 -19 0 -19
9 0 20 -20 17 -21 -3z"/>
<path d="M1020 4338 c0 -13 4 -29 9 -37 6 -10 -3 -25 -31 -52 -37 -35 -40 -41
-33 -76 4 -21 13 -49 20 -63 12 -23 11 -26 -16 -42 -37 -23 -38 -56 -2 -93 24
-23 26 -28 12 -38 -29 -23 -49 -62 -49 -98 0 -31 6 -42 38 -67 21 -17 54 -33
75 -37 30 -6 37 -12 37 -30 0 -13 3 -31 6 -40 9 -21 76 -55 111 -55 23 1 18 5
-27 23 -62 25 -85 61 -61 98 15 26 9 34 -16 20 -15 -7 -32 -4 -70 14 -73 33
-87 66 -57 130 9 20 27 38 45 44 16 5 29 12 29 15 0 3 -16 13 -35 22 -63 30
-58 101 5 77 35 -13 37 -10 10 24 -32 41 -43 97 -26 130 19 37 46 60 76 65
l25 4 -27 12 c-22 9 -28 18 -28 42 0 16 -4 30 -10 30 -5 0 -10 -10 -10 -22z"/>
<path d="M4630 3039 c-25 -4 -83 -12 -130 -18 -155 -20 -423 -65 -630 -107
-114 -24 -265 -54 -267 -54 -2 0 -3 -7 -3 -16 0 -10 6 -14 18 -10 212 59 550
125 742 146 52 6 136 17 185 24 50 8 111 18 138 21 26 3 47 10 47 16 0 10 -35
10 -100 -2z"/>
</g>
</svg>
