<?xml version="1.0" standalone="no"?>
<!DOCTYPE svg PUBLIC "-//W3C//DTD SVG 20010904//EN"
 "http://www.w3.org/TR/2001/REC-SVG-20010904/DTD/svg10.dtd">
<svg version="1.0" xmlns="http://www.w3.org/2000/svg"
 width="1180.000000pt" height="1468.000000pt" viewBox="0 0 1180.000000 1468.000000"
 preserveAspectRatio="xMidYMid meet">
<metadata>
Created by potrace 1.16, written by Peter Selinger 2001-2019
</metadata>
<g transform="translate(0.000000,1468.000000) scale(0.100000,-0.100000)"
fill="#000000" stroke="none">
<path d="M2556 13861 c-4 -5 -2 -20 3 -33 5 -13 16 -102 25 -198 21 -218 42
-405 66 -580 10 -74 24 -191 30 -260 34 -357 104 -931 139 -1134 12 -65 21
-130 21 -145 0 -33 35 -91 54 -91 16 0 30 40 42 118 4 23 10 44 14 47 4 2 17
-33 29 -78 19 -72 21 -109 21 -298 0 -119 5 -263 10 -320 l10 -104 47 -42 c70
-63 75 -60 88 47 4 30 15 88 26 129 21 79 18 106 -5 50 -15 -37 -46 -175 -46
-208 0 -33 -15 -32 -54 2 l-36 32 -10 120 c-6 66 -10 208 -10 315 1 177 -2
204 -24 289 -14 52 -23 98 -21 101 9 14 -17 80 -30 80 -15 0 -20 -26 -15 -77
2 -29 -19 -132 -32 -156 -9 -18 -10 -18 -22 0 -7 10 -16 47 -20 83 -4 36 -16
115 -26 175 -11 61 -24 157 -30 215 -6 58 -20 166 -30 240 -10 74 -23 182 -29
240 -34 327 -54 501 -71 630 -32 239 -49 397 -60 545 -16 209 -34 299 -54 266z"/>
<path d="M2515 13818 c-3 -18 -14 -82 -24 -143 -23 -132 -84 -470 -111 -615
-11 -58 -27 -157 -36 -220 -88 -665 -118 -882 -144 -1040 -16 -102 -30 -201
-30 -220 -1 -19 -5 -44 -9 -54 -13 -32 -73 64 -75 120 -1 23 -5 46 -8 50 -15
15 -28 -11 -28 -57 0 -37 4 -49 15 -49 8 0 15 -6 15 -12 0 -7 18 -33 39 -58
50 -57 61 -48 71 57 5 43 13 107 20 143 28 166 42 264 75 520 19 151 40 302
45 335 5 33 21 143 35 245 14 102 34 228 45 280 11 52 26 136 34 185 9 50 25
140 36 200 11 61 27 153 35 205 8 52 17 110 20 128 4 18 2 32 -4 32 -6 0 -13
-15 -16 -32z"/>
<path d="M9166 13818 c-10 -15 -16 -39 -14 -55 1 -15 -3 -59 -10 -98 -7 -38
-17 -95 -22 -125 -5 -30 -25 -137 -44 -236 -32 -165 -47 -266 -91 -609 -8 -60
-23 -173 -34 -250 -11 -77 -28 -198 -37 -270 -9 -71 -20 -157 -25 -190 -23
-161 -29 -210 -45 -340 -9 -77 -21 -144 -25 -149 -5 -5 -13 2 -18 17 -14 37
-37 34 -51 -5 -27 -78 -40 -225 -40 -465 0 -162 -3 -243 -10 -243 -11 0 -60
-45 -60 -55 0 -12 17 -3 50 26 l35 31 6 271 c8 353 30 484 67 402 27 -60 45
-14 67 170 9 72 22 175 30 230 8 55 30 224 50 375 19 151 37 282 40 290 2 8
16 107 30 220 29 233 59 435 80 530 12 54 48 254 71 398 4 26 10 32 29 32 35
0 59 39 46 74 -15 37 -31 32 -24 -8 4 -26 1 -35 -13 -40 -29 -11 -47 37 -23
61 6 6 9 17 7 24 -3 9 -11 4 -22 -13z"/>
<path d="M9200 13663 c0 -22 20 -193 45 -379 25 -187 52 -391 60 -454 8 -63
32 -257 55 -430 22 -173 45 -349 50 -390 10 -83 40 -288 66 -452 9 -60 20
-108 25 -108 12 0 11 11 -6 110 -27 151 -118 835 -170 1280 -8 69 -20 159 -26
200 -17 124 -58 438 -71 545 -12 104 -28 149 -28 78z"/>
<path d="M2556 13105 c2 -121 7 -244 10 -273 7 -54 -10 -427 -26 -592 -6 -52
-15 -194 -20 -315 -6 -121 -17 -310 -25 -420 -8 -110 -15 -213 -15 -230 l-1
-30 -28 35 c-26 31 -31 33 -47 20 -23 -19 -107 -150 -101 -156 3 -3 28 29 57
70 29 42 55 76 58 76 3 0 18 -15 33 -32 15 -18 30 -31 33 -28 8 8 34 348 45
595 6 116 18 291 28 390 13 141 17 264 15 565 -1 212 -6 421 -11 465 -7 61 -8
29 -5 -140z"/>
<path d="M9185 12470 c3 -212 10 -457 16 -545 5 -88 12 -347 16 -575 6 -349 9
-400 17 -320 6 62 5 201 -3 405 -6 171 -16 499 -22 730 -13 567 -17 677 -25
684 -3 3 -3 -167 1 -379z"/>
<path d="M4254 12475 c-15 -10 -30 -12 -50 -6 -28 8 -106 1 -169 -14 -99 -25
-303 -157 -305 -197 0 -17 24 -6 84 37 118 84 246 128 403 139 113 8 143 15
143 37 0 16 -8 19 -43 19 -23 0 -52 -7 -63 -15z"/>
<path d="M4704 12388 c-10 -16 28 -45 88 -65 45 -16 53 -24 80 -78 17 -33 38
-71 48 -85 9 -14 27 -56 39 -95 18 -58 21 -86 17 -170 -6 -149 -19 -169 -34
-53 -17 122 -42 228 -54 228 -10 0 -9 -20 13 -170 17 -122 12 -623 -7 -715 -8
-38 -26 -131 -40 -205 -23 -126 -63 -240 -84 -240 -5 0 -12 -9 -15 -20 -3 -11
-43 -57 -88 -103 -88 -88 -143 -117 -221 -117 -42 0 -186 60 -216 90 -10 10
-53 42 -97 70 -149 100 -170 130 -203 290 -29 140 -28 139 -44 118 -19 -26
-40 -22 -76 13 -37 38 -51 64 -91 171 -49 132 -51 278 -3 278 7 0 22 -21 35
-46 20 -42 21 -47 6 -56 -20 -11 -22 -28 -4 -28 13 0 28 -24 41 -62 3 -10 1
-18 -3 -18 -5 0 -14 -13 -19 -30 -13 -37 2 -96 28 -110 28 -15 60 -12 60 5 0
8 -6 15 -13 15 -21 0 -47 34 -47 59 0 13 10 31 22 40 l22 18 -27 55 c-15 30
-27 65 -27 77 0 25 -37 102 -54 113 -6 4 -21 8 -33 8 -19 0 -22 7 -29 78 -16
164 -11 251 19 335 16 43 27 84 24 91 -3 6 22 52 54 100 64 96 64 96 49 96
-29 0 -148 -169 -161 -228 -4 -20 -16 -64 -25 -97 -15 -53 -16 -82 -7 -238 6
-119 6 -196 -1 -228 -16 -77 4 -165 65 -285 58 -116 108 -180 155 -200 29 -12
33 -20 49 -86 9 -40 19 -81 21 -90 4 -12 -5 -21 -28 -31 -18 -8 -87 -70 -153
-138 -187 -193 -228 -220 -490 -320 -242 -93 -391 -181 -414 -244 -16 -46 -14
-121 5 -139 8 -9 12 -16 7 -16 -5 0 -15 -17 -23 -37 -11 -28 -15 -95 -17 -248
-5 -333 -14 -505 -28 -505 -19 0 -107 -46 -158 -83 -56 -40 -157 -135 -157
-148 0 -5 -26 -21 -57 -36 -110 -51 -210 -173 -249 -303 -18 -60 -18 -166 0
-177 9 -5 15 -39 19 -103 7 -116 19 -151 71 -213 39 -46 39 -49 27 -83 -8 -21
-10 -50 -6 -72 7 -39 59 -125 96 -159 33 -30 115 -63 173 -70 l48 -6 -48 -23
c-28 -13 -91 -64 -146 -117 -124 -119 -147 -165 -155 -312 -6 -108 5 -151 47
-178 25 -15 25 -17 -6 -80 -119 -244 -152 -418 -159 -852 -5 -262 -14 -379
-33 -396 -4 -4 -56 -15 -117 -23 -213 -32 -546 -123 -730 -201 -126 -53 -246
-67 -229 -26 28 67 9 91 -71 91 -39 0 -56 5 -70 20 -10 11 -31 20 -47 20 -20
0 -27 4 -22 12 15 24 22 92 12 120 -19 54 -113 75 -148 32 -19 -22 -5 -28 22
-10 30 21 50 20 82 -5 33 -26 35 -81 6 -141 -23 -48 -20 -56 15 -40 38 17 55
15 64 -10 7 -19 14 -21 74 -19 81 3 93 -11 59 -69 -25 -44 -21 -51 22 -44 46
6 25 -1 -120 -45 -136 -40 -194 -65 -194 -81 0 -13 7 -13 33 4 12 8 85 33 162
56 77 23 219 69 315 102 416 143 706 218 841 218 l35 0 -7 -67 c-13 -112 -9
-391 5 -474 8 -41 23 -93 33 -115 11 -21 23 -66 26 -98 4 -39 11 -63 22 -68
13 -8 15 -23 10 -96 -4 -48 -2 -116 3 -152 6 -36 7 -68 3 -72 -3 -3 -143 -11
-311 -18 -307 -11 -718 -45 -733 -60 -19 -18 18 -18 199 0 198 20 532 39 742
42 l123 1 47 -46 c26 -26 62 -60 80 -75 l32 -27 -12 -115 c-17 -160 -17 -723
0 -820 21 -120 33 -170 43 -170 11 0 11 3 -2 120 -29 269 -29 532 1 880 6 69
13 292 15 495 2 219 8 384 14 405 9 27 8 37 -4 49 -9 10 -18 12 -24 6 -17 -18
-31 -240 -31 -484 0 -217 -2 -242 -15 -231 -9 7 -23 28 -31 46 -9 19 -23 34
-30 34 -8 0 -14 -2 -14 -5 0 -16 39 -85 63 -112 46 -50 27 -64 -20 -16 -80 82
-91 102 -103 196 -15 111 -6 202 18 192 40 -17 98 -17 111 -2 19 24 7 33 -50
40 -28 4 -65 15 -82 25 -27 16 -32 24 -32 58 0 21 -8 51 -18 66 -33 49 -49
202 -44 433 3 178 8 222 26 290 21 74 23 104 26 390 1 176 7 344 14 390 21
137 85 341 148 475 24 51 32 60 55 60 15 0 29 4 33 9 3 6 24 9 46 8 33 -1 45
4 61 23 16 20 22 22 39 12 30 -19 66 -14 83 10 23 32 20 115 -4 161 -25 45
-25 47 -1 47 49 0 126 117 139 212 3 29 9 38 19 34 8 -4 16 -6 18 -6 2 0 24
-30 48 -67 25 -38 54 -78 66 -90 31 -32 111 -86 118 -79 4 3 -27 41 -69 84
-41 42 -80 86 -86 98 -11 21 -11 21 46 8 94 -22 195 -28 251 -14 29 7 55 10
58 6 17 -17 -155 -196 -189 -196 -8 0 -23 -19 -35 -43 -30 -63 -69 -105 -104
-112 -28 -6 -37 -2 -81 41 -27 27 -61 68 -75 92 -21 36 -43 55 -43 37 0 -21
57 -112 95 -152 25 -26 57 -60 71 -75 32 -37 47 -35 68 9 l18 38 18 -22 c9
-12 34 -33 55 -48 l38 -25 5 -88 c5 -120 22 -130 22 -13 0 69 3 92 12 89 16
-6 33 -83 48 -212 6 -56 15 -135 20 -176 10 -75 48 -463 75 -743 7 -82 16
-151 18 -153 2 -3 7 29 11 70 10 113 -78 966 -121 1168 l-16 78 28 40 c32 46
36 47 52 20 26 -40 48 -42 85 -7 20 17 47 52 61 77 26 46 88 221 81 229 -7 8
-32 -33 -49 -79 -33 -91 -69 -160 -100 -190 l-32 -31 -24 29 c-13 16 -44 55
-68 86 -45 57 -78 75 -66 35 6 -19 4 -21 -16 -16 -13 4 -27 7 -31 7 -20 0 -5
21 25 34 39 16 133 114 170 176 15 25 48 65 73 90 60 58 106 130 132 206 32
93 53 236 51 343 -1 53 2 133 6 179 9 94 -8 159 -50 186 -27 18 -29 34 -45
291 -5 94 -14 215 -20 270 -6 55 -16 222 -24 371 -7 149 -16 276 -20 282 -14
24 -24 11 -19 -25 2 -21 8 -141 13 -268 5 -126 15 -300 23 -385 8 -85 18 -191
22 -235 l6 -80 -20 35 c-11 19 -20 46 -21 59 0 49 -39 105 -106 156 -37 28
-82 63 -100 79 -34 28 -64 29 -64 2 0 -8 17 -28 38 -45 137 -111 163 -135 176
-160 10 -19 12 -31 5 -38 -7 -7 -1 -28 20 -64 34 -60 84 -234 75 -261 -4 -14
1 -18 24 -18 38 0 48 -24 23 -57 l-20 -24 -17 33 c-34 62 -26 4 17 -133 35
-112 42 -147 41 -214 -1 -201 -89 -415 -205 -493 -38 -26 -50 -29 -131 -30
-128 -2 -262 30 -377 89 -22 11 -76 56 -119 100 -46 46 -82 75 -85 68 -4 -5 0
-18 9 -28 9 -10 16 -21 16 -24 0 -13 -45 -6 -108 16 -96 34 -172 119 -172 194
0 41 45 60 103 43 66 -19 107 -23 107 -12 0 6 -4 13 -9 17 -5 3 -19 36 -30 73
-55 177 -65 202 -78 202 -7 0 -13 -4 -13 -10 0 -19 53 -196 67 -224 15 -28 14
-29 -9 -21 -12 4 -40 9 -61 12 -41 6 -74 40 -102 107 -10 24 -21 36 -29 33
-21 -8 -36 66 -36 170 0 54 -5 94 -11 100 -9 9 -9 23 1 58 14 49 9 65 -14 46
-28 -23 -28 9 -1 57 30 53 169 191 230 229 22 14 63 47 90 72 28 26 80 68 116
94 69 48 179 102 179 88 0 -5 -13 -14 -30 -21 -16 -7 -30 -19 -30 -27 0 -17 0
-17 110 22 64 24 83 26 135 20 99 -12 120 -12 120 5 0 10 -22 21 -65 33 -54
14 -79 16 -145 9 -74 -9 -111 -3 -86 12 7 5 11 44 11 102 l0 94 60 114 c33 63
56 117 51 120 -5 3 -23 -18 -40 -48 -16 -30 -35 -57 -41 -61 -19 -12 -18 298
2 410 6 33 11 89 12 125 1 36 8 75 14 87 13 23 159 110 239 142 162 64 295
121 334 143 24 14 57 29 73 32 19 5 75 53 160 138 123 122 187 176 229 191 15
6 17 -1 17 -56 0 -100 62 -379 167 -757 70 -251 149 -536 173 -625 10 -39 43
-142 74 -230 30 -88 69 -209 87 -270 18 -60 38 -115 46 -121 7 -6 13 -19 13
-29 0 -30 -23 -145 -29 -145 -6 0 -97 139 -142 215 -12 22 -26 42 -29 45 -3 3
-51 93 -105 200 -117 232 -131 255 -140 241 -8 -15 202 -426 290 -566 72 -114
78 -123 108 -156 13 -15 21 -47 27 -112 15 -150 29 -377 40 -617 10 -209 25
-403 51 -660 6 -58 11 -172 12 -255 l1 -150 -51 -151 c-76 -222 -104 -265
-184 -281 -51 -10 -58 -27 -13 -31 92 -9 150 63 219 270 25 76 45 144 45 153
0 8 5 15 10 15 6 0 10 -10 10 -23 0 -13 11 -65 24 -116 61 -233 143 -310 315
-298 154 10 305 78 563 251 151 101 188 122 192 108 2 -9 9 -111 16 -227 23
-454 31 -570 46 -686 34 -281 59 -548 68 -729 3 -58 10 -195 16 -305 6 -110
10 -313 8 -452 -2 -179 0 -255 8 -263 9 -9 14 -9 19 0 24 40 13 877 -15 1195
-20 216 -41 412 -60 565 -10 85 -24 254 -30 375 -6 121 -15 281 -20 355 -17
228 -16 230 31 275 61 59 127 151 138 192 10 37 -4 108 -42 208 -82 216 -161
468 -183 585 -8 47 -31 133 -50 192 -24 75 -39 147 -49 235 -18 174 -88 405
-116 387 -6 -3 -7 -13 -4 -23 47 -113 111 -452 88 -470 -4 -4 -75 -29 -158
-55 -82 -27 -154 -53 -159 -57 -22 -20 6 -19 71 1 137 44 228 70 244 70 22 0
41 -53 99 -281 49 -195 99 -354 184 -592 25 -70 46 -140 46 -154 0 -107 -210
-302 -550 -512 -150 -92 -298 -143 -421 -145 -67 -1 -81 2 -125 29 -41 25 -55
42 -86 105 -21 41 -46 113 -57 160 -11 47 -29 126 -40 175 -12 54 -25 164 -31
275 -6 101 -13 187 -15 190 -5 9 -33 370 -40 525 -8 170 -33 555 -45 671 -5
55 -5 108 1 132 9 43 17 93 45 287 20 146 35 230 83 475 109 553 161 943 161
1203 0 97 -4 177 -9 177 -10 0 -21 -122 -21 -234 0 -76 -25 -322 -36 -358 -6
-21 -69 -51 -92 -44 -21 7 -33 26 -93 146 -26 53 -54 102 -63 109 -23 19 -20
25 19 44 91 43 255 246 255 315 0 40 25 46 77 16 26 -16 50 -31 53 -34 3 -3
61 -47 129 -99 115 -86 130 -95 195 -107 39 -8 112 -34 161 -58 50 -25 101
-47 115 -51 14 -4 33 -9 43 -11 11 -4 17 0 17 10 0 9 5 16 10 16 6 0 10 -6 10
-14 0 -9 22 -21 53 -31 84 -27 196 -87 203 -107 8 -26 63 -88 78 -88 7 0 24
-6 39 -12 25 -12 27 -18 27 -70 l0 -58 -52 -29 c-84 -47 -178 -120 -199 -154
-20 -34 -25 -91 -10 -129 5 -14 5 -43 1 -69 -5 -24 -16 -80 -25 -124 -20 -106
-35 -225 -35 -285 0 -27 -4 -51 -9 -55 -6 -3 -32 14 -59 38 -27 24 -60 51 -73
61 -22 15 -24 24 -27 111 -2 53 1 109 7 127 15 43 26 198 14 198 -5 0 -14 -12
-20 -27 -11 -28 -11 -27 -12 12 -1 54 -28 193 -42 213 -8 13 -9 9 -4 -18 12
-73 25 -252 30 -440 3 -107 10 -226 16 -265 5 -38 10 -176 9 -305 0 -231 4
-300 20 -300 12 0 12 521 0 600 -5 35 -8 66 -6 67 1 2 28 -22 59 -52 31 -30
62 -55 70 -55 11 0 15 -47 20 -257 3 -142 10 -280 16 -308 5 -27 17 -93 27
-145 20 -113 28 -130 57 -130 54 0 66 -10 73 -59 9 -66 109 -328 141 -370 55
-73 125 -114 227 -132 40 -8 66 -17 66 -25 0 -7 -16 -88 -34 -181 -60 -289
-77 -421 -117 -888 -16 -184 -21 -320 -21 -515 2 -338 17 -690 36 -805 8 -49
22 -189 30 -310 9 -121 20 -269 26 -330 5 -60 15 -186 21 -280 20 -296 58
-500 109 -582 11 -18 27 -33 35 -33 20 0 19 12 -4 52 -30 51 -58 171 -70 303
-18 194 -42 517 -51 705 -9 184 -36 484 -46 510 -7 19 -22 331 -30 635 -12
413 42 1062 118 1430 17 83 35 182 41 221 l10 71 161 6 c223 7 367 35 576 109
97 35 103 39 94 61 -9 23 -35 21 -118 -9 -260 -94 -629 -133 -841 -89 -114 24
-155 49 -208 131 -33 50 -113 257 -122 315 l-7 44 120 -3 c106 -3 129 0 194
22 59 19 74 22 81 11 4 -7 24 -19 45 -25 20 -7 85 -30 144 -51 156 -56 398
-102 659 -124 l76 -6 5 -127 c6 -146 33 -247 93 -346 19 -32 35 -66 35 -75 0
-9 7 -25 15 -35 14 -19 15 -18 15 12 0 26 5 35 27 43 28 10 23 24 -12 31 -54
9 -133 200 -141 342 -5 77 -2 100 16 151 28 78 35 115 21 115 -6 0 -18 -15
-27 -32 -9 -18 -18 -35 -20 -36 -4 -5 -74 21 -74 28 0 3 23 20 51 39 35 23 76
38 131 49 57 11 75 18 62 23 -66 26 -181 -8 -252 -76 -34 -32 -42 -35 -95 -35
l-58 0 21 30 c30 42 106 98 149 110 20 5 62 12 93 15 32 4 60 10 63 15 3 5
-25 12 -62 16 l-66 7 34 18 c19 10 56 25 82 33 47 15 50 15 100 -10 69 -35
147 -45 215 -28 54 14 54 14 80 -14 50 -53 215 -69 278 -27 39 25 16 37 -39
20 -26 -8 -60 -12 -75 -10 -15 2 -44 7 -66 10 -27 5 -53 20 -87 52 -41 38 -49
42 -49 25 0 -28 -58 -37 -138 -22 -156 28 -215 93 -198 218 3 25 13 56 21 68
18 28 19 34 2 34 -7 0 -23 -18 -36 -40 -28 -50 -32 -167 -6 -206 17 -27 13
-44 -12 -44 -26 0 -143 -62 -162 -86 -10 -13 -40 -40 -67 -60 -27 -21 -54 -44
-60 -53 -49 -67 -44 -66 -130 -52 -154 25 -239 43 -366 82 -183 54 -182 54
-189 117 -4 28 -10 64 -13 78 -7 25 -5 26 21 21 15 -4 38 -9 51 -13 38 -11 24
10 -29 41 -90 53 -134 118 -171 253 -20 71 -22 103 -22 402 -1 220 -5 331 -12
344 -18 30 -30 -545 -14 -670 13 -108 43 -198 86 -263 47 -71 51 -83 59 -153
l6 -66 -58 -22 c-91 -35 -181 -43 -302 -30 -58 7 -112 16 -120 20 -19 10 -57
201 -72 364 -8 85 -10 202 -5 336 6 195 15 281 51 519 10 64 12 107 6 115 -5
6 -7 34 -4 63 4 40 12 59 37 84 37 38 190 142 193 132 1 -5 9 -43 19 -86 13
-65 23 -85 53 -116 37 -39 85 -69 119 -74 10 -1 30 -10 43 -18 31 -20 87 -39
113 -38 13 0 0 10 -34 25 -94 43 -147 108 -168 204 -16 71 -17 204 -2 300 15
101 15 219 1 233 -9 9 -10 3 -5 -21 4 -18 -4 -113 -16 -211 -22 -173 -22 -182
-6 -270 16 -87 38 -142 75 -186 16 -19 16 -19 -14 -1 -34 22 -76 63 -99 99
-35 52 -46 165 -39 391 7 259 1 303 -69 444 -45 93 -52 116 -64 214 -8 61 -16
113 -19 116 -9 10 -5 -172 6 -218 5 -25 28 -80 50 -123 22 -44 46 -107 54
-140 15 -63 21 -317 8 -317 -14 0 -86 87 -109 133 -46 90 -64 187 -74 402 -10
217 -9 209 -51 340 -38 119 -49 196 -49 338 0 87 5 140 20 199 57 222 157 390
282 474 149 99 276 126 402 84 86 -28 117 -23 59 10 -24 13 -43 27 -43 31 0
16 -95 32 -168 26 -193 -13 -389 -152 -485 -345 -60 -120 -113 -287 -122 -382
-12 -133 11 -296 63 -450 l46 -135 1 -190 c1 -117 7 -214 15 -252 8 -34 12
-64 9 -67 -2 -2 -42 6 -88 20 -46 13 -93 24 -105 24 -12 0 -45 11 -72 24 -28
13 -122 47 -210 75 -154 50 -163 54 -246 120 -47 38 -114 88 -149 111 -35 24
-66 44 -68 46 -2 2 6 23 17 46 26 57 40 111 51 198 6 43 20 91 37 123 48 92
64 190 70 417 2 113 9 232 15 264 6 33 8 80 4 106 -5 34 -3 50 8 58 12 10 12
20 1 61 -7 27 -18 59 -24 71 -8 15 -8 25 -1 34 8 10 7 17 -4 26 -9 7 -27 36
-41 65 -47 95 -94 144 -170 176 -80 34 -71 32 -80 17z m-713 -1691 c32 -119
256 -358 350 -373 l40 -7 -29 -31 c-17 -17 -56 -84 -87 -149 -31 -64 -61 -120
-66 -123 -5 -3 -25 4 -44 15 -45 26 -49 3 -6 -28 45 -32 63 -27 96 29 16 28
32 50 36 50 4 0 12 -14 20 -31 7 -18 23 -44 36 -59 22 -27 22 -29 7 -66 -27
-62 -63 -211 -75 -307 -7 -48 -15 -85 -19 -80 -4 4 -13 31 -20 58 -7 28 -28
102 -46 165 -18 63 -43 151 -54 195 -12 44 -37 139 -56 210 -74 283 -126 571
-101 562 6 -2 14 -15 18 -30z m146 -89 c45 -32 86 -58 90 -58 5 0 38 -19 73
-41 54 -36 73 -43 129 -46 53 -4 76 0 116 17 66 28 110 63 142 111 14 22 28
37 30 35 5 -5 -43 -79 -82 -126 -45 -55 -116 -120 -154 -139 -22 -12 -42 -25
-46 -30 -6 -11 -59 5 -124 38 -80 41 -249 221 -278 297 -8 21 -6 20 104 -58z
m393 -475 c6 -14 5 -25 -4 -32 -7 -6 -21 -29 -31 -51 -13 -29 -27 -42 -52 -51
-55 -18 -78 -6 -118 62 l-36 62 27 56 26 56 44 -48 c24 -27 44 -55 44 -63 0
-8 5 -14 10 -14 6 0 10 2 10 5 0 12 -40 84 -50 90 -21 13 -8 24 33 27 40 3 43
1 66 -37 12 -22 27 -50 31 -62z m59 -107 c29 -33 60 -39 97 -17 l34 20 -6 -42
c-3 -23 -12 -80 -19 -127 -7 -47 -16 -105 -19 -130 -11 -76 -21 -78 -46 -8
-44 119 -91 233 -106 256 -12 18 -13 30 -3 65 16 60 20 63 37 31 8 -16 22 -37
31 -48z m-51 -144 c81 -202 112 -304 106 -341 -3 -20 -26 -133 -49 -251 -24
-118 -55 -293 -69 -389 -23 -154 -36 -215 -36 -170 0 17 -46 167 -112 359 -70
208 -98 312 -98 367 1 117 58 400 96 475 22 43 51 27 64 -36 28 -134 28 -133
29 -101 0 17 -4 59 -10 95 -9 57 -8 66 7 77 25 18 37 4 72 -85z m-1887 -2205
c20 -17 50 -43 67 -56 37 -28 37 -44 -4 -145 -28 -70 -64 -112 -88 -103 -20 8
-20 24 0 112 9 39 16 77 16 85 1 8 7 24 14 35 18 25 18 35 1 35 -17 0 -27 -22
-61 -135 -15 -49 -32 -98 -37 -108 -8 -15 -2 -36 25 -94 40 -83 48 -149 20
-160 -9 -3 -24 -2 -33 4 -27 16 -80 114 -102 186 -12 37 -25 67 -30 67 -25 0
3 -117 50 -209 25 -48 17 -71 -26 -71 -35 0 -65 39 -91 117 -24 75 -27 150 -9
200 11 28 97 133 110 133 2 0 -4 -29 -15 -66 -11 -36 -17 -68 -14 -72 10 -9
23 15 43 76 12 38 34 71 75 115 44 46 55 64 46 74 -20 25 7 12 43 -20z m457
-428 c26 -7 53 -16 60 -22 15 -12 15 -47 -1 -68 -59 -76 -54 -72 -89 -59 -34
14 -88 58 -88 72 0 15 50 88 61 88 5 0 31 -5 57 -11z"/>
<path d="M4316 12227 c-27 -35 -45 -97 -30 -97 5 0 26 11 46 25 20 14 42 25
47 25 17 0 13 -25 -9 -53 -43 -54 -15 -63 50 -16 l43 31 -6 -29 c-3 -15 -8
-38 -12 -50 -11 -36 12 -28 70 22 34 28 79 54 126 71 82 30 85 32 77 39 -10
10 -150 -33 -179 -54 -39 -29 -45 -27 -41 18 5 52 -10 58 -47 19 l-31 -33 7
38 c7 44 -1 46 -64 17 -47 -21 -53 -15 -23 23 22 28 25 37 11 37 -6 0 -21 -15
-35 -33z"/>
<path d="M6487 12094 c-3 -4 -2 -14 3 -24 7 -13 28 -18 91 -23 107 -7 186 -45
283 -138 57 -53 81 -86 113 -151 51 -105 87 -214 113 -351 27 -137 51 -205 99
-287 114 -192 139 -264 149 -418 8 -121 11 -131 52 -217 66 -138 82 -191 90
-299 10 -124 -7 -193 -81 -331 -28 -53 -49 -98 -46 -101 2 -3 30 32 61 78 52
78 96 175 96 215 1 41 15 47 61 25 67 -32 128 -52 134 -43 6 11 -22 35 -75 61
-86 43 -100 57 -100 102 0 64 -27 151 -82 266 -50 105 -51 109 -59 232 -13
202 -31 261 -124 399 -68 103 -85 147 -130 346 -30 129 -77 279 -105 335 -32
62 -148 188 -222 240 -41 29 -99 59 -136 70 -61 19 -172 27 -185 14z"/>
<path d="M6549 11798 c191 -129 295 -293 352 -553 11 -52 31 -127 44 -166 29
-85 33 -215 11 -339 -22 -119 -83 -294 -119 -342 -38 -49 -107 -87 -160 -88
-110 -1 -310 69 -361 126 -29 33 -167 217 -213 284 -17 25 -43 79 -58 120 -26
70 -28 88 -33 263 -4 154 -1 201 13 260 25 107 89 229 157 302 59 64 66 75 47
75 -24 0 -119 -105 -154 -170 -90 -172 -114 -308 -97 -538 18 -223 48 -288
266 -562 77 -97 116 -182 116 -252 0 -29 -14 -107 -30 -172 -51 -205 -39 -302
51 -394 l50 -52 -33 0 c-18 0 -47 8 -63 18 -53 33 -105 166 -105 269 0 20 -4
32 -10 28 -13 -8 -13 -71 1 -137 23 -107 81 -187 149 -206 37 -9 97 -5 115 8
6 4 25 11 43 15 42 9 41 23 -2 23 -99 0 -196 119 -196 241 0 42 13 114 26 150
8 23 48 -27 48 -62 1 -37 27 -57 51 -37 22 18 15 62 -11 75 -17 9 -19 14 -11
33 8 18 7 30 -5 50 -14 24 -14 31 -2 52 8 16 13 58 14 114 0 80 2 87 18 81 51
-21 136 -37 203 -39 70 -1 80 2 129 32 29 18 56 29 60 25 4 -4 15 -31 24 -60
17 -52 42 -75 52 -48 3 8 -1 24 -10 37 -20 28 -20 38 0 38 10 0 14 -6 10 -15
-3 -9 0 -15 10 -15 11 0 14 8 12 28 -2 22 -8 27 -32 27 -42 0 -55 42 -28 87
11 18 25 50 32 71 6 20 15 37 20 37 11 0 20 -38 20 -91 0 -76 21 -157 54 -208
17 -27 52 -80 78 -119 77 -114 91 -250 34 -325 -16 -20 -32 -35 -36 -32 -13 8
-18 69 -8 88 6 12 4 28 -6 49 -9 17 -16 46 -16 64 0 18 -5 36 -10 39 -6 4 -8
21 -5 39 5 23 1 38 -13 56 -17 22 -23 23 -46 12 -32 -14 -35 -54 -7 -79 16
-13 18 -21 10 -36 -11 -20 -4 -55 9 -43 4 4 7 13 7 19 0 7 8 13 18 15 24 5 23
-30 -2 -45 -10 -6 -23 -25 -29 -42 -9 -25 -7 -34 9 -55 24 -30 24 -36 0 -36
-30 0 -37 -47 -12 -81 25 -33 27 -49 6 -49 -25 0 -48 -47 -42 -85 4 -26 2 -35
-8 -35 -32 0 -64 -24 -70 -51 -5 -21 -14 -31 -33 -35 -15 -3 -35 -9 -44 -14
-13 -7 -24 -3 -43 16 -20 20 -28 23 -45 14 -27 -15 -40 -5 -40 31 0 21 -8 34
-27 47 -22 13 -27 23 -25 45 4 35 -22 77 -48 77 -21 0 -27 15 -10 25 14 9 12
47 -4 68 -16 21 -67 20 -74 -1 -3 -9 3 -11 22 -6 21 5 28 2 35 -17 7 -18 5
-27 -7 -37 -14 -11 -19 -9 -34 10 -15 21 -17 21 -23 5 -9 -21 11 -47 35 -47
13 0 17 -6 13 -20 -5 -17 -1 -18 30 -13 29 4 35 2 40 -17 8 -33 -22 -71 -50
-65 -16 4 -23 1 -23 -10 0 -8 5 -15 10 -15 6 0 10 -11 10 -24 0 -37 37 -76 71
-76 21 0 29 -5 29 -18 0 -20 34 -55 63 -65 10 -4 28 -2 39 4 16 9 25 6 47 -15
15 -14 37 -26 49 -26 29 0 62 38 62 72 0 25 3 28 33 28 49 0 71 28 63 79 -5
34 -4 39 9 34 9 -3 26 4 41 17 28 28 33 83 8 118 -15 21 -14 24 8 42 13 11 31
19 40 20 9 0 38 11 63 25 26 13 62 27 80 31 71 13 139 101 170 219 22 86 17
124 -6 45 -28 -94 -65 -164 -105 -199 -50 -44 -57 -38 -26 22 22 42 27 69 30
141 3 56 0 86 -6 82 -5 -3 -10 -31 -11 -61 -2 -85 -20 -141 -60 -186 l-36 -41
-1 89 c0 104 -28 184 -94 271 -87 115 -102 151 -115 287 -4 39 -14 82 -22 98
-12 24 -11 39 11 135 14 59 29 132 34 162 l8 55 33 -64 c18 -36 44 -81 57
-100 74 -114 130 -356 106 -462 -19 -81 -15 -101 10 -54 33 62 36 163 8 282
-22 97 -56 175 -164 381 -58 111 -98 226 -145 422 -59 242 -172 414 -326 496
-59 31 -92 32 -46 2z"/>
<path d="M9620 11536 c-11 -25 -20 -51 -20 -59 0 -8 -11 -27 -25 -43 -32 -37
-23 -45 13 -11 15 15 33 47 40 72 35 132 47 -47 27 -410 -17 -322 -17 -308 -4
-275 15 36 41 540 33 640 -10 138 -29 162 -64 86z"/>
<path d="M2047 11545 c-30 -92 -37 -182 -37 -470 l-1 -300 -45 -39 c-51 -44
-56 -42 -75 29 -6 22 -26 86 -46 142 -27 77 -34 111 -29 138 8 42 -10 115 -28
115 -28 0 -36 -108 -10 -134 13 -14 13 -18 1 -30 -16 -16 -36 -71 -100 -271
-36 -113 -44 -155 -45 -220 -1 -44 -6 -170 -11 -280 -18 -364 -25 -822 -12
-829 8 -5 11 12 11 56 0 109 29 968 36 1068 4 58 15 120 29 160 13 36 39 118
59 183 20 64 41 117 45 117 9 0 24 -39 66 -170 34 -108 48 -140 60 -140 6 0
34 24 62 53 l50 52 7 315 c4 173 11 343 17 377 11 65 9 117 -4 78z"/>
<path d="M4607 11513 c-6 -9 9 -95 37 -225 20 -91 11 -146 -29 -172 -43 -28
-119 -15 -155 28 -10 13 -16 14 -27 5 -11 -10 -11 -15 4 -31 26 -29 88 -58
123 -58 51 0 86 24 112 75 29 57 28 88 -7 229 -31 131 -46 168 -58 149z"/>
<path d="M3199 11183 c-6 -15 -9 -55 -8 -88 2 -54 5 -61 28 -71 20 -8 29 -25
47 -90 12 -43 36 -124 53 -179 24 -80 32 -126 37 -227 5 -101 9 -128 20 -128
11 0 13 9 9 38 -3 20 -9 86 -15 145 -7 75 -23 154 -55 264 -25 86 -48 182 -50
214 -3 52 -35 149 -50 149 -3 0 -10 -12 -16 -27z"/>
<path d="M6530 11169 c0 -19 57 -113 84 -138 58 -55 13 -171 -66 -171 -18 0
-46 7 -62 15 -35 19 -36 19 -36 -1 0 -22 81 -55 116 -48 58 11 106 76 108 145
0 29 -7 47 -32 76 -18 21 -47 59 -65 85 -32 47 -47 59 -47 37z"/>
<path d="M4268 11018 c-22 -34 -28 -70 -19 -103 10 -35 19 -20 23 39 l3 40 40
-59 c61 -89 80 -99 188 -104 110 -4 135 7 190 82 27 38 37 46 38 32 1 -11 2
-24 4 -30 1 -5 3 -16 3 -23 1 -7 7 -10 12 -7 13 8 12 62 -3 105 -13 37 -34 43
-30 9 2 -15 -2 -18 -20 -15 -119 23 -201 28 -267 17 -89 -16 -150 -8 -143 20
7 25 -1 24 -19 -3z m370 -54 l53 -6 -28 -36 c-46 -61 -49 -63 -157 -60 l-98 3
-39 44 c-22 24 -39 47 -39 51 0 4 19 7 42 8 23 1 44 5 47 8 6 6 104 0 219 -12z"/>
<path d="M9940 11016 c-14 -37 -13 -52 9 -121 32 -98 50 -145 89 -225 l36 -75
1 -380 c0 -209 -4 -533 -9 -720 -6 -238 -5 -337 2 -330 7 6 13 117 17 295 4
157 10 382 14 500 3 118 3 308 0 421 l-6 206 -38 89 c-88 204 -97 236 -83 290
11 38 10 46 -5 61 -15 15 -17 15 -27 -11z"/>
<path d="M8447 10963 c-4 -7 -26 -63 -47 -125 l-40 -113 0 -158 c0 -148 -2
-161 -22 -190 -12 -18 -25 -34 -29 -37 -19 -15 -30 -59 -28 -108 1 -32 2 -107
1 -168 l-2 -112 -57 2 c-32 0 -72 -3 -89 -7 l-32 -8 5 45 c6 52 -7 76 -43 76
-41 0 -165 -56 -190 -86 -13 -16 -23 -23 -24 -15 0 22 62 69 107 81 24 5 43
15 43 20 0 13 -3 13 -61 -6 -38 -13 -57 -27 -80 -59 l-31 -43 -42 19 c-64 29
-161 23 -113 -8 7 -5 -10 -10 -43 -13 l-55 -5 -3 -38 c-2 -27 2 -45 14 -58 10
-11 21 -41 25 -67 4 -26 9 -56 11 -66 2 -13 -8 -27 -31 -43 -41 -28 -65 -29
-91 -3 -22 22 -36 10 -20 -19 24 -45 90 -38 144 16 20 20 36 40 36 44 0 5 19
17 43 27 42 19 75 48 64 58 -3 3 -19 -2 -36 -10 -51 -27 -67 -21 -79 26 -7 27
-7 48 -1 60 7 14 6 16 -5 12 -8 -3 -20 -3 -26 1 -32 20 81 55 129 40 16 -5 21
-15 21 -44 0 -59 34 -77 91 -47 17 9 51 12 105 9 93 -5 126 8 135 52 4 17 7
24 8 18 1 -9 21 -13 67 -13 82 0 119 -17 179 -81 25 -27 48 -49 50 -49 3 0 5
12 5 26 0 32 -54 112 -86 126 l-24 11 1 185 1 184 28 32 c47 54 50 66 50 232
l0 156 40 111 c23 60 40 117 38 126 -3 11 -6 13 -11 4z m-392 -953 c4 -6 -1
-24 -9 -42 -20 -40 -20 -45 4 -51 29 -8 15 -34 -22 -41 -45 -9 -131 4 -145 21
-19 24 4 60 51 81 23 10 52 23 66 29 32 15 47 16 55 3z"/>
<path d="M6739 10861 c12 -16 21 -34 21 -39 0 -13 -99 -52 -244 -95 l-118 -36
4 35 c4 35 -5 46 -16 18 -13 -33 -5 -107 15 -155 12 -27 25 -49 30 -49 13 0
11 14 -6 46 -8 16 -15 35 -15 42 0 16 17 15 23 -1 3 -8 27 -28 53 -45 40 -27
57 -32 108 -32 43 0 71 6 94 20 38 23 88 98 104 155 l11 40 14 -34 c17 -41 28
-34 19 13 -8 40 -83 146 -103 146 -11 0 -9 -7 6 -29z m35 -98 c-11 -50 -59
-137 -86 -157 -41 -29 -125 -33 -174 -8 -37 19 -92 68 -83 75 2 2 49 16 104
31 55 15 129 40 165 56 82 35 82 35 74 3z"/>
<path d="M2182 10520 c-7 -13 -20 -1035 -14 -1040 14 -9 80 -107 101 -147 18
-35 19 -49 11 -139 -5 -54 -9 -142 -8 -194 1 -82 2 -71 13 80 6 96 15 183 19
192 8 17 -42 111 -104 196 l-31 44 11 251 c9 210 11 774 2 757z"/>
<path d="M9609 10443 c-8 -21 -8 -37 3 -68 10 -32 11 -55 2 -115 -12 -76 -27
-229 -45 -445 -5 -66 -18 -184 -29 -262 -21 -151 -23 -169 -15 -162 10 11 47
274 60 434 26 316 35 400 51 475 17 83 16 161 -3 168 -7 2 -18 -9 -24 -25z"/>
<path d="M8594 10353 c-4 -26 -4 -142 1 -258 12 -341 14 -695 4 -695 -5 0 -9
10 -10 23 -3 158 -11 265 -20 290 -15 41 -74 87 -111 87 -31 0 -39 -25 -10
-35 44 -15 92 -75 92 -116 0 -21 -1 -21 -18 -6 -21 19 -42 22 -42 6 0 -6 12
-26 27 -46 25 -33 27 -43 28 -136 1 -99 2 -100 33 -128 36 -33 39 -39 16 -39
-9 0 -31 16 -50 35 -39 41 -44 43 -44 11 0 -35 54 -78 94 -74 36 4 76 55 76
99 0 33 -7 36 -26 12 -11 -15 -13 17 -13 202 0 121 -5 331 -10 467 -6 136 -7
270 -4 298 7 63 -3 66 -13 3z"/>
<path d="M3616 10310 c-42 -44 -76 -85 -76 -90 0 -6 28 -66 62 -133 68 -135
107 -214 131 -267 9 -19 48 -106 87 -194 76 -168 114 -241 167 -320 18 -26 33
-52 33 -57 0 -5 5 -9 11 -9 6 0 -17 51 -50 113 -33 61 -103 208 -155 325 -53
117 -115 250 -138 295 -76 151 -118 238 -118 245 0 4 32 40 70 81 66 69 81 91
61 91 -4 0 -43 -36 -85 -80z"/>
<path d="M5149 10325 c65 -71 77 -104 63 -172 -6 -32 -23 -86 -36 -123 -13
-36 -58 -162 -101 -280 -78 -221 -124 -338 -218 -565 -56 -133 -81 -188 -169
-374 -27 -58 -60 -131 -73 -161 -13 -30 -39 -89 -59 -130 -47 -97 -46 -126 1
-35 63 122 234 496 333 730 89 211 111 268 236 610 121 331 134 395 94 460
-21 33 -83 85 -104 85 -5 0 10 -20 33 -45z"/>
<path d="M1817 9820 l6 -435 -29 -30 c-69 -72 -115 -128 -109 -134 4 -3 15 4
25 16 73 91 106 123 119 118 12 -5 13 53 8 429 -3 278 -9 441 -16 453 -7 13
-9 -108 -4 -417z"/>
<path d="M895 10120 c-11 -18 -8 -151 3 -162 8 -8 7 -19 -3 -38 -25 -48 -182
-666 -172 -676 7 -8 31 70 81 266 40 156 84 324 102 388 3 12 9 22 13 22 5 0
42 -134 100 -367 26 -101 63 -202 68 -186 3 7 -2 34 -11 60 -8 27 -29 107 -47
178 -17 72 -44 176 -60 233 -26 91 -28 107 -18 137 22 59 -29 189 -56 145z"/>
<path d="M10860 9920 c0 -34 58 -258 94 -360 18 -52 37 -113 40 -135 4 -21 17
-57 28 -80 12 -22 20 -41 19 -42 0 -2 2 -4 6 -5 3 -2 13 16 21 40 8 24 19 41
25 39 19 -6 37 -91 47 -222 26 -347 24 -332 52 -363 33 -36 72 -71 77 -67 2 2
-17 28 -41 58 l-44 54 -12 184 c-16 232 -20 269 -31 283 -4 6 -12 29 -16 51
-6 37 -18 54 -37 55 -4 0 -16 -17 -27 -37 l-19 -37 -16 59 c-10 33 -31 101
-48 150 -34 100 -98 340 -98 367 0 9 -4 20 -10 23 -5 3 -10 -3 -10 -15z"/>
<path d="M10856 9667 c-5 -9 -5 -28 -2 -42 10 -41 8 -388 -3 -530 -14 -169
-20 -427 -10 -395 7 23 24 341 35 645 6 144 -8 351 -20 322z"/>
<path d="M7611 9591 c-11 -11 -27 -36 -35 -56 -11 -26 -21 -35 -38 -35 -13 0
-29 -5 -36 -12 -13 -13 -16 -80 -4 -92 4 -4 7 -60 7 -124 0 -102 3 -122 23
-159 l22 -43 -40 0 c-39 0 -130 -36 -130 -52 0 -10 -2 -10 45 7 49 17 147 19
163 3 18 -18 14 -38 -8 -38 -24 0 -47 -37 -32 -52 13 -13 85 -1 77 12 -3 5
-12 7 -20 3 -8 -3 -15 0 -15 6 0 18 45 13 63 -7 16 -17 15 -20 -13 -40 -33
-25 -42 -72 -15 -72 20 0 85 27 85 36 0 3 -17 3 -37 0 l-38 -6 24 20 c29 25
34 25 56 0 17 -19 17 -21 -14 -55 -34 -39 -35 -43 -21 -65 8 -13 16 -12 55 9
43 23 65 51 28 36 -57 -23 -74 -11 -27 20 23 15 30 15 61 3 l35 -14 -27 -32
c-29 -35 -31 -75 -2 -80 21 -4 77 52 77 77 0 11 -9 6 -28 -17 -15 -18 -30 -32
-34 -32 -15 0 -8 19 18 49 21 26 24 34 14 46 -7 8 -17 15 -22 15 -14 0 -68 40
-68 50 0 5 13 5 30 0 38 -11 108 -6 123 9 8 8 -2 11 -40 11 -63 0 -110 16
-118 41 -6 19 -35 27 -35 9 0 -17 -14 -11 -45 18 -53 50 -93 99 -117 143 -44
84 -24 237 53 408 32 70 32 84 0 52z"/>
<path d="M75 9534 c-27 -13 -56 -31 -64 -39 -28 -28 -2 -26 51 4 30 17 58 31
62 31 8 0 -16 -47 -49 -96 -14 -21 -24 -39 -22 -41 2 -1 29 11 59 27 64 35
211 75 236 65 13 -5 0 -16 -50 -41 -38 -19 -68 -38 -68 -43 0 -4 46 -9 102 -9
62 -1 123 -8 157 -18 59 -17 57 -20 -23 -38 -62 -14 -68 -29 -18 -44 52 -16
117 -87 132 -144 17 -65 21 -68 15 -13 -6 59 -41 115 -94 153 l-38 27 56 15
c30 8 56 20 56 25 0 17 -106 46 -192 52 -46 3 -83 9 -83 13 0 4 25 18 55 31
30 13 53 29 52 34 -7 22 -110 16 -195 -10 -84 -26 -104 -27 -84 -3 5 7 15 30
20 51 13 46 1 48 -73 11z"/>
<path d="M1514 9397 c-59 -64 -175 -203 -224 -268 -49 -64 -101 -122 -105
-117 -2 2 -7 64 -10 138 -7 155 -13 206 -24 194 -8 -9 4 -283 14 -341 7 -40
23 -41 49 -5 19 26 275 342 286 352 19 18 71 92 68 96 -3 2 -27 -20 -54 -49z"/>
<path d="M8372 9291 c-18 -58 -14 -112 9 -150 19 -31 19 -35 4 -50 -14 -14
-17 -14 -26 -1 -6 8 -13 11 -15 5 -3 -5 -15 -35 -27 -65 -35 -87 -119 -134
-262 -149 -44 -4 -60 -10 -60 -21 0 -20 40 -24 111 -11 79 15 155 52 194 95
25 27 41 36 64 36 21 0 45 11 71 33 34 28 46 32 86 29 40 -3 51 0 83 28 58 51
42 91 -18 45 -28 -22 -38 -24 -61 -15 -22 8 -25 13 -16 24 7 8 20 12 30 9 34
-9 138 105 111 122 -5 3 -10 2 -10 -4 0 -17 -52 -72 -77 -82 -28 -10 -53 -2
-53 17 0 25 -47 40 -83 26 -17 -6 -33 -9 -36 -7 -2 3 0 32 5 65 12 70 -5 85
-24 21z"/>
<path d="M366 9173 c-3 -4 5 -25 18 -47 35 -60 41 -105 22 -170 -9 -31 -20
-56 -24 -56 -4 0 -27 37 -52 82 -72 130 -118 163 -105 74 10 -63 12 -146 5
-146 -4 0 -21 20 -38 44 -37 51 -127 129 -143 124 -6 -2 3 -21 20 -42 48 -61
43 -70 -19 -31 -43 27 -50 29 -50 16 0 -5 13 -14 29 -21 16 -6 38 -21 48 -32
10 -11 26 -24 37 -30 17 -9 19 -7 13 26 -3 20 -2 36 2 36 11 0 57 -60 72 -94
7 -14 18 -26 25 -26 20 0 27 43 20 121 -5 47 -4 69 4 69 13 0 55 -66 94 -148
16 -34 34 -62 40 -62 16 0 46 111 46 169 0 28 -8 66 -17 86 -9 19 -14 37 -11
41 10 9 74 -25 103 -53 27 -27 47 -25 25 2 -31 38 -146 85 -164 68z"/>
<path d="M7335 8977 c-41 -30 -114 -109 -115 -124 0 -6 -5 -13 -12 -15 -7 -3
-13 -37 -16 -94 -4 -75 -1 -93 13 -107 9 -9 21 -17 26 -17 12 0 12 17 -1 25
-14 9 -12 52 3 62 6 4 50 20 97 36 91 30 126 29 156 -4 18 -20 16 -22 -32 -19
-36 2 -104 -24 -104 -39 0 -7 9 -7 28 0 37 14 90 4 168 -31 98 -44 125 -66
118 -96 -3 -13 -5 -24 -3 -24 2 0 26 11 53 25 57 29 128 33 183 10 44 -18 43
-18 43 1 0 36 -136 58 -209 33 -28 -10 -34 -8 -61 18 -17 16 -57 42 -90 58
-40 19 -59 34 -55 43 3 7 -1 25 -9 40 -14 28 -8 64 13 77 6 3 9 11 6 16 -9 13
-42 -7 -50 -31 -5 -16 -15 -20 -54 -20 -29 0 -70 -10 -102 -24 -30 -13 -68
-27 -86 -30 -31 -7 -32 -7 -24 21 20 66 35 89 101 155 39 39 70 72 70 74 0 11
-28 1 -55 -19z"/>
<path d="M8320 8914 c0 -8 -5 -14 -12 -14 -25 0 -88 -35 -93 -51 -5 -14 -13
-16 -40 -12 -38 6 -49 -11 -15 -22 15 -5 20 -15 20 -38 l-1 -32 -27 31 c-30
35 -76 51 -88 32 -4 -6 -2 -14 4 -16 14 -4 17 -72 3 -72 -13 0 -29 22 -36 53
-4 15 -11 27 -15 27 -5 0 -15 2 -22 5 -9 4 -18 -7 -26 -29 -7 -19 -19 -40 -27
-46 -13 -11 -15 -6 -15 29 0 30 -4 41 -15 41 -11 0 -15 -12 -15 -47 0 -89 32
-96 77 -18 l22 39 17 -37 c29 -60 94 -60 94 -1 0 29 11 31 28 4 15 -24 57 -27
66 -4 3 9 6 29 6 45 0 29 13 39 25 19 3 -5 17 -10 31 -10 27 0 48 37 38 65 -4
9 0 15 9 15 8 0 20 6 26 14 10 12 20 10 64 -16 156 -93 182 -117 220 -200 20
-45 14 -46 -44 -13 -32 18 -59 25 -99 25 -65 0 -97 -18 -102 -57 -3 -24 -9
-28 -67 -41 -58 -13 -67 -13 -93 2 -72 43 -188 28 -236 -30 -24 -29 -33 -34
-48 -26 -31 17 -111 25 -131 14 -16 -10 -16 -12 10 -21 16 -6 37 -11 49 -11
30 0 88 -30 88 -46 0 -17 -1 -17 -36 1 -36 19 -117 21 -112 3 3 -7 22 -15 44
-19 45 -6 84 -25 84 -40 0 -11 -12 -10 -102 8 -21 4 -28 2 -28 -10 0 -15 66
-37 113 -37 19 0 26 -7 30 -29 7 -36 53 -86 90 -100 67 -26 186 -3 220 42 l19
24 63 -41 c35 -23 64 -46 64 -51 1 -6 30 -41 66 -79 36 -37 65 -72 65 -77 0
-5 7 -9 15 -9 20 0 20 -63 0 -145 -8 -33 -15 -77 -15 -97 0 -51 -16 -48 -23 3
-5 42 -51 142 -73 160 -24 20 -22 -8 6 -65 16 -32 32 -80 36 -105 4 -25 11
-51 16 -58 6 -7 2 -26 -12 -53 -14 -27 -18 -46 -12 -53 5 -7 12 -66 16 -132 9
-156 29 -242 78 -337 l40 -77 -32 -33 c-18 -18 -37 -45 -42 -60 -5 -15 -19
-29 -34 -32 -57 -15 -157 -72 -211 -121 -59 -53 -141 -161 -130 -171 11 -11
46 7 52 27 8 23 139 159 154 159 6 0 11 -12 11 -26 0 -38 23 -25 33 19 8 33
39 58 54 44 14 -15 -23 -207 -84 -427 -17 -63 -18 -64 -21 -27 -3 38 -15 49
-26 21 -7 -18 2 -63 16 -81 7 -8 6 -24 -1 -44 -13 -39 -15 -92 -2 -69 5 8 21
53 36 100 14 47 35 112 45 145 28 85 70 300 70 351 0 24 5 44 10 44 6 0 10 -8
10 -18 0 -63 91 -309 122 -329 7 -4 18 -23 25 -42 24 -66 99 -185 146 -233 52
-52 77 -59 126 -34 80 42 241 300 241 387 0 11 17 43 39 72 21 29 46 67 55 85
9 17 21 32 27 32 6 0 34 -15 62 -33 29 -19 75 -46 102 -62 71 -40 164 -108
165 -121 0 -5 -21 -35 -47 -65 -71 -83 -115 -189 -78 -189 8 0 15 8 15 18 0
17 63 130 78 142 4 3 22 24 41 48 24 30 31 49 27 65 -8 33 -85 95 -196 157
-159 89 -167 95 -174 134 -4 22 -16 42 -32 52 l-24 17 47 51 c27 29 60 73 75
99 17 28 39 52 55 58 83 31 187 203 255 419 11 36 24 67 29 68 5 2 9 28 9 59
0 35 5 60 15 69 41 42 -5 239 -56 239 -15 0 -14 -51 1 -70 9 -13 26 -70 34
-115 5 -31 4 -33 -8 -17 -20 25 -40 22 -31 -5 4 -13 9 -37 12 -54 4 -25 1 -32
-16 -37 -17 -4 -21 -13 -21 -49 0 -23 -8 -69 -18 -102 -16 -54 -20 -59 -48
-61 -16 -1 -45 -10 -63 -19 -31 -16 -33 -16 -45 0 -15 20 -18 16 -47 -62 -12
-32 -29 -69 -37 -81 -22 -36 4 -27 29 9 13 17 25 26 27 20 2 -7 12 -12 23 -12
10 0 19 -4 19 -8 0 -17 -25 -32 -53 -32 -37 0 -31 -24 6 -28 20 -2 36 5 58 27
26 26 28 34 19 52 -10 17 -8 23 7 34 14 11 15 16 6 26 -9 9 -20 6 -48 -15 -19
-15 -35 -22 -35 -17 0 12 75 57 111 66 42 10 42 -17 1 -97 -60 -116 -177 -230
-158 -153 5 18 2 25 -8 25 -17 0 -39 -33 -55 -82 -8 -23 -37 -60 -81 -101 -55
-52 -84 -71 -150 -96 -151 -59 -278 -52 -361 18 -111 96 -168 209 -195 392
-15 107 -15 122 1 244 18 135 62 331 94 415 10 27 17 51 14 54 -10 9 -33 -6
-34 -23 0 -10 -2 -11 -6 -4 -2 7 9 38 26 69 17 31 28 60 26 65 -3 4 4 10 15
14 21 7 28 25 9 25 -6 0 -2 15 10 33 11 17 24 32 28 32 4 0 23 11 41 24 19 13
55 31 80 40 34 12 48 23 52 41 6 23 11 25 63 24 40 -1 64 -7 78 -20 17 -16 24
-16 55 -5 36 13 153 5 137 -9 -4 -5 -37 -10 -72 -13 -67 -6 -77 -10 -67 -26 4
-5 30 -7 64 -4 65 6 64 -7 -3 -30 -47 -16 -51 -36 -12 -55 l29 -14 -23 -24
c-34 -36 -18 -38 34 -3 49 32 61 59 28 59 -11 0 -23 5 -26 10 -3 6 0 10 8 10
7 0 32 16 55 36 51 43 56 76 15 93 -74 29 -178 34 -194 9 -4 -6 -19 -3 -37 6
-35 18 -106 20 -171 5 -44 -10 -89 -51 -83 -76 1 -6 -7 -17 -18 -23 -19 -10
-20 -8 -20 47 0 44 -6 68 -25 98 -13 22 -25 54 -25 72 0 49 -36 135 -76 182
-20 23 -59 53 -88 68 -28 14 -64 35 -79 45 -35 25 -117 33 -117 12z m-123
-354 c40 -17 50 -18 135 -7 116 15 301 14 306 -2 2 -6 9 -17 16 -24 38 -38 45
-86 20 -145 -25 -62 -70 -100 -132 -113 -63 -13 -100 -5 -194 38 -56 26 -58
28 -58 66 0 46 -21 47 -31 1 -8 -42 -36 -80 -68 -94 -15 -6 -57 -10 -92 -8
l-64 3 49 24 c61 29 50 49 -15 27 -24 -9 -50 -16 -56 -16 -22 0 -14 15 15 27
52 24 93 53 87 63 -4 6 -26 0 -55 -15 -27 -14 -57 -25 -65 -25 -31 0 -10 35
36 60 26 14 47 30 46 35 0 14 -36 7 -74 -15 -43 -25 -42 -7 0 35 21 21 52 38
80 46 57 14 61 29 8 29 -24 0 -51 -9 -75 -25 -37 -25 -49 -20 -18 8 52 47 132
58 199 27z m462 -1526 c12 -15 21 -31 21 -36 0 -15 78 -125 120 -169 l39 -41
-23 -23 c-12 -12 -40 -45 -62 -71 -53 -66 -64 -74 -98 -71 -24 2 -32 10 -49
52 -40 101 -75 235 -68 262 8 30 31 43 31 18 0 -22 49 -135 67 -155 21 -23 17
4 -12 85 -27 78 -31 112 -13 150 14 32 21 31 47 -1z m527 -59 c3 -8 -10 -45
-30 -82 -20 -37 -36 -71 -36 -76 0 -18 31 17 67 74 20 33 39 59 43 59 12 0 28
-23 35 -51 16 -65 -176 -296 -239 -287 -13 2 -22 12 -24 26 -2 12 -10 22 -20
22 -9 0 -32 24 -50 53 -30 47 -31 53 -15 62 32 19 111 96 139 136 26 38 83 78
112 79 7 0 15 -7 18 -15z m-350 -40 c33 -17 99 -19 159 -5 22 5 41 8 42 6 8
-8 -117 -126 -140 -132 -32 -8 -44 2 -111 94 l-38 52 30 0 c16 0 43 -7 58 -15z
m69 -235 c22 -36 34 -67 31 -78 -7 -20 -56 -52 -81 -52 -20 0 -85 62 -85 82 0
15 78 108 90 108 5 0 25 -27 45 -60z m205 -154 c-12 -36 -26 -68 -31 -71 -5
-4 -40 -48 -78 -99 -48 -65 -78 -97 -100 -104 -29 -10 -32 -9 -85 49 -30 33
-60 72 -68 87 -7 15 -25 47 -39 72 -15 25 -29 57 -33 72 -11 47 12 41 38 -10
14 -27 38 -60 53 -73 15 -13 46 -50 67 -82 22 -31 45 -57 53 -57 23 0 14 22
-27 71 -32 39 -40 55 -40 88 0 37 2 41 26 41 14 0 34 5 44 10 16 9 23 4 45
-27 24 -36 33 -73 17 -73 -12 0 -46 -69 -38 -78 4 -4 19 7 32 23 13 17 31 29
40 27 14 -3 16 2 11 27 -5 24 -1 36 23 61 16 17 34 43 41 59 12 26 58 65 67
56 2 -2 -6 -33 -18 -69z"/>
<path d="M3170 8843 c0 -5 14 -21 30 -37 17 -16 30 -35 30 -42 0 -16 -19 -13
-167 23 -16 4 -23 1 -23 -8 0 -13 19 -32 65 -64 18 -13 14 -14 -40 -15 -33 0
-82 7 -108 15 -43 13 -49 13 -54 -1 -3 -8 -1 -20 6 -27 34 -34 -4 -36 -53 -2
-41 28 -56 31 -56 13 1 -20 81 -75 120 -83 19 -3 43 -9 53 -11 29 -9 31 23 2
48 l-26 23 51 -4 c82 -5 120 6 131 38 9 27 12 27 67 23 31 -2 63 -9 70 -14 31
-26 -12 76 -48 112 -20 20 -50 27 -50 13z"/>
<path d="M0 8830 c0 -4 22 -13 48 -20 58 -13 158 -68 146 -80 -5 -4 -18 -10
-29 -12 -44 -8 -27 -35 49 -78 105 -60 106 -70 9 -85 -55 -9 -63 -23 -27 -48
93 -65 160 -173 171 -272 6 -65 22 -115 35 -115 6 0 7 7 3 18 -4 9 -11 42 -15
72 -15 108 -58 195 -129 264 -27 27 -48 53 -46 57 3 3 29 10 60 14 30 3 57 10
59 14 7 11 -39 52 -107 95 -69 43 -67 61 5 52 28 -4 47 -3 44 2 -3 5 -42 30
-87 57 -76 45 -189 84 -189 65z"/>
<path d="M1188 8493 c3 -132 1 -213 -5 -213 -18 0 -152 -95 -208 -147 -30 -29
-58 -53 -60 -53 -3 0 -5 11 -5 24 0 36 -18 41 -42 14 -37 -41 -78 -111 -78
-132 0 -14 11 -2 31 34 16 30 39 64 49 75 20 19 20 19 20 -18 0 -20 4 -37 8
-37 5 0 43 33 84 73 66 64 223 169 283 191 11 3 -8 -20 -42 -53 -75 -72 -86
-108 -20 -62 24 16 71 39 103 50 59 20 184 44 191 37 2 -2 -28 -27 -67 -56
-38 -28 -70 -55 -70 -60 0 -4 33 -10 74 -13 79 -6 141 -30 188 -75 15 -14 31
-22 35 -18 21 21 -126 104 -198 113 -58 7 -55 14 29 69 32 21 59 39 61 41 3 2
0 8 -5 13 -14 14 -162 -6 -236 -31 -33 -12 -61 -19 -63 -17 -3 2 22 24 55 49
32 24 59 48 60 53 0 12 -68 -3 -112 -25 -20 -10 -40 -19 -43 -19 -3 0 -5 73
-6 163 0 89 -4 180 -8 202 -4 22 -6 -56 -3 -172z"/>
<path d="M2465 8678 c-2 -7 -6 -59 -10 -116 -3 -57 -10 -113 -14 -125 -16 -44
-21 -77 -12 -77 18 0 51 126 54 203 l2 77 30 -34 c17 -18 47 -46 68 -62 32
-22 40 -25 47 -13 6 9 2 21 -12 36 -28 30 -19 37 22 17 47 -24 177 -41 192
-26 9 9 5 12 -18 12 -49 0 -146 29 -186 55 -21 14 -44 25 -53 25 -18 0 -20
-21 -2 -39 10 -11 9 -13 -3 -9 -8 2 -28 23 -45 46 -30 41 -52 52 -60 30z"/>
<path d="M11733 8515 c-27 -35 -51 -64 -55 -65 -4 0 -4 26 -2 58 l5 57 -22
-25 c-26 -29 -87 -156 -95 -200 -9 -42 -19 -37 -34 15 -7 25 -17 44 -23 42
-14 -4 -46 -141 -49 -209 -1 -32 -3 -58 -5 -58 -1 0 -14 5 -28 12 -33 15 -38
8 -21 -28 7 -16 33 -80 57 -141 23 -62 46 -113 50 -113 10 0 -9 62 -50 163
-17 43 -31 83 -31 89 0 12 36 -26 43 -45 2 -7 7 -9 11 -6 3 3 1 31 -6 63 -9
48 -8 70 7 137 10 43 22 79 26 79 5 0 11 -17 14 -37 14 -83 27 -84 45 -5 7 31
29 91 49 132 l36 75 3 -57 c3 -63 14 -74 30 -30 6 15 33 55 61 90 53 65 57 72
41 72 -5 0 -31 -29 -57 -65z"/>
<path d="M2056 8353 c-3 -82 -14 -233 -23 -338 -13 -150 -17 -284 -15 -640 1
-247 6 -453 10 -457 4 -4 6 172 4 390 -3 372 5 592 28 842 12 130 17 350 9
350 -4 0 -10 -66 -13 -147z"/>
<path d="M89 8408 c-1 -66 -59 -168 -59 -106 0 34 -28 129 -29 98 0 -14 5 -47
13 -75 7 -27 11 -56 8 -63 -6 -19 7 -64 17 -58 5 3 20 44 35 91 15 47 31 85
37 85 5 0 23 -28 39 -63 23 -49 31 -83 36 -155 4 -51 10 -92 14 -92 4 0 17 23
30 51 13 28 27 52 32 55 9 6 58 -88 59 -113 0 -11 3 -13 6 -6 6 16 -32 133
-52 159 -13 19 -14 19 -20 -1 -14 -44 -35 -85 -43 -85 -5 0 -12 33 -15 73 -4
60 -13 90 -46 155 -23 45 -46 82 -51 82 -6 0 -10 -15 -11 -32z"/>
<path d="M9777 8153 c-5 -303 -28 -1207 -30 -1210 -2 -1 -79 11 -172 27 -93
16 -171 27 -173 25 -8 -8 279 -64 330 -65 25 0 27 4 32 53 3 28 8 205 11 392
7 495 15 903 19 958 2 26 -1 47 -5 47 -5 0 -10 -102 -12 -227z"/>
<path d="M9520 8270 c0 -6 35 -54 78 -107 42 -53 79 -100 82 -104 3 -4 17 -10
33 -14 42 -11 48 21 11 55 -16 14 -40 41 -54 60 -39 58 -107 120 -129 120 -12
0 -21 -5 -21 -10z"/>
<path d="M10197 7935 c-4 -170 -13 -429 -19 -575 -12 -300 -17 -1408 -7 -1545
3 -49 7 198 7 550 2 578 10 1015 30 1560 4 105 5 219 2 255 -3 36 -9 -74 -13
-245z"/>
<path d="M7320 8191 c-56 -8 -70 -17 -70 -42 0 -18 4 -20 32 -14 54 12 126 8
163 -9 19 -9 51 -37 72 -61 43 -51 53 -55 53 -20 0 28 -67 108 -110 130 -35
18 -86 24 -140 16z"/>
<path d="M7590 8162 c0 -5 27 -17 60 -27 l60 -18 -36 -40 c-20 -22 -46 -60
-57 -86 -43 -92 -20 -308 45 -433 16 -31 18 -41 8 -53 -9 -10 -10 -29 -5 -58
10 -58 8 -103 -8 -165 -8 -29 -11 -55 -6 -57 4 -3 10 1 13 7 3 7 4 0 3 -17 -1
-21 -10 -33 -28 -42 -14 -7 -41 -35 -60 -63 -39 -58 -111 -100 -171 -100 -97
0 -209 78 -224 156 -8 43 -3 57 52 139 25 39 43 61 39 50 -32 -86 -36 -103
-30 -133 8 -45 73 -109 119 -118 95 -17 180 43 211 149 9 32 14 61 12 64 -11
11 -25 -8 -35 -50 -28 -110 -132 -160 -217 -104 -52 33 -71 76 -57 124 21 71
29 75 92 53 83 -29 175 -23 225 15 18 13 12 14 -60 8 -95 -7 -188 15 -205 47
-10 19 -12 19 -34 5 -40 -27 -124 -148 -137 -199 -10 -39 -9 -53 6 -91 57
-150 249 -199 381 -99 41 32 43 32 46 11 4 -32 22 -23 29 15 11 64 56 125 76
104 16 -16 -18 -97 -55 -131 -33 -29 -38 -39 -34 -67 2 -18 9 -39 15 -47 6 -7
12 -30 12 -52 1 -22 9 -47 20 -59 10 -11 23 -30 29 -42 14 -28 72 -68 109 -75
15 -3 30 -10 34 -15 3 -6 9 -64 14 -129 4 -67 19 -162 34 -219 18 -73 28 -149
35 -268 14 -234 29 -473 39 -632 5 -74 12 -225 16 -335 10 -343 53 -899 76
-987 10 -37 32 -68 50 -68 12 0 12 27 -1 50 -16 31 -75 772 -63 793 3 5 36 7
74 6 71 -2 100 6 58 15 -13 3 -49 7 -79 8 l-55 3 -7 222 c-3 122 -14 325 -23
450 -19 268 -32 513 -26 518 3 4 71 -44 108 -75 22 -18 98 -12 127 11 25 20
76 106 76 129 0 18 -28 11 -35 -9 -3 -11 -19 -34 -35 -50 -31 -34 -81 -42
-123 -20 -121 63 -177 182 -213 449 -19 144 -21 134 26 126 29 -4 40 -3 40 6
0 8 -40 25 -93 41 -80 25 -98 35 -135 75 -23 25 -45 55 -48 68 -8 30 4 64 22
64 8 0 32 9 54 20 22 11 48 20 60 20 44 0 7 -59 -52 -84 -21 -8 -38 -20 -38
-25 0 -16 36 -13 70 4 18 9 40 12 59 9 42 -9 112 12 152 46 32 26 33 28 21 67
-13 44 -8 95 14 129 17 29 11 32 -41 26 -40 -4 -45 -2 -56 22 -16 35 -7 42 62
50 52 7 58 5 86 -21 22 -21 35 -49 52 -112 28 -105 24 -154 -25 -268 l-35 -82
68 -103 c71 -106 133 -259 133 -327 0 -16 5 -33 10 -36 17 -11 11 135 -8 191
-23 65 -97 194 -141 246 -28 33 -32 43 -23 57 7 9 24 39 39 66 25 46 28 59 27
155 0 153 -37 239 -110 259 -24 6 -30 15 -40 62 -11 49 -10 60 9 116 19 55 24
62 44 57 12 -3 47 2 79 11 40 11 60 13 67 6 6 -6 25 -11 42 -11 37 0 65 40 65
92 0 112 -73 245 -172 311 -29 19 -95 77 -147 128 -61 59 -113 100 -145 115
-100 45 -276 81 -276 56z m252 -83 c49 -15 72 -27 75 -40 3 -10 13 -21 23 -24
46 -15 80 -107 80 -218 -1 -83 -24 -245 -38 -259 -14 -14 -174 -21 -232 -11
l-45 8 -34 100 c-30 88 -34 113 -35 205 -1 90 2 111 22 150 17 35 89 106 110
109 2 1 36 -9 74 -20z m148 -596 c0 -7 8 -16 17 -21 15 -9 15 -14 -3 -63 -18
-50 -22 -54 -59 -61 -58 -11 -193 -10 -216 2 -10 6 -19 19 -19 29 0 9 -7 39
-16 65 -11 32 -13 50 -6 55 5 3 76 6 156 6 107 0 146 -3 146 -12z m-30 -220
l22 -28 -33 -7 c-56 -11 -77 -68 -43 -116 15 -22 15 -22 -35 -22 -77 0 -104
28 -109 113 -5 74 -6 72 83 80 91 8 93 8 115 -20z m14 -227 c-4 -24 -2 -52 5
-64 21 -39 -10 -64 -97 -78 l-43 -7 6 37 c8 41 -6 66 -37 66 -14 0 -18 5 -14
16 3 9 6 22 6 30 0 10 15 14 58 14 36 0 66 6 78 15 34 26 44 19 38 -29z"/>
<path d="M8080 8142 c0 -4 13 -16 30 -25 16 -10 35 -23 42 -30 7 -7 46 -38 87
-71 67 -54 161 -173 161 -205 0 -6 5 -11 10 -11 13 0 13 4 -7 69 -14 46 -30
69 -93 132 -86 86 -174 149 -207 149 -13 0 -23 -4 -23 -8z"/>
<path d="M9029 8127 c-20 -15 -46 -64 -50 -96 -5 -34 17 -38 24 -4 8 35 24 60
33 51 3 -4 7 -33 8 -64 1 -32 7 -59 13 -61 6 -2 25 13 43 34 l32 38 -6 -60
c-6 -54 -5 -58 8 -41 28 35 35 155 9 163 -7 3 -20 -12 -30 -31 -9 -20 -20 -36
-25 -36 -9 0 -16 29 -20 79 -3 38 -15 47 -39 28z"/>
<path d="M11026 8121 c-4 -5 -3 -16 0 -25 7 -19 5 -19 -71 -1 -57 14 -130 11
-120 -4 9 -15 125 -90 125 -82 0 10 -53 57 -72 64 -7 2 -10 7 -7 11 15 16 164
-31 180 -57 4 -5 12 -6 18 -3 8 5 5 16 -9 36 -28 39 -25 50 10 50 49 0 111
-37 167 -98 l53 -57 0 33 c0 17 3 32 8 32 13 0 59 -65 71 -102 15 -47 25 -50
16 -5 -11 51 -89 167 -112 167 -5 0 -7 -17 -5 -37 l5 -37 -45 46 c-28 28 -63
51 -93 62 -53 18 -111 21 -119 7z"/>
<path d="M1676 8033 c-3 -3 1 -20 9 -39 15 -37 15 -37 -52 -3 -20 10 -50 19
-66 19 -25 0 -27 -3 -22 -22 4 -13 14 -34 23 -47 15 -24 34 -91 26 -91 -3 0
-34 25 -69 55 -81 68 -105 72 -105 14 l0 -40 -44 35 c-67 55 -73 51 -68 -46 3
-52 1 -79 -5 -73 -5 6 -23 28 -40 50 -35 45 -88 81 -98 65 -3 -5 -1 -37 6 -70
9 -47 9 -66 -1 -90 -15 -36 -30 -39 -30 -6 0 34 -24 87 -52 113 -37 34 -108
56 -108 33 0 -5 8 -10 18 -10 28 0 81 -37 102 -72 11 -18 24 -56 30 -85 6 -29
14 -53 18 -53 4 0 15 21 26 45 13 33 17 62 14 106 -6 79 10 76 77 -13 27 -37
52 -65 54 -63 2 3 7 44 10 92 l7 88 46 -47 c25 -25 49 -44 52 -40 4 3 3 27 0
54 -4 29 -3 48 3 48 15 0 100 -67 138 -109 18 -20 36 -34 38 -31 9 9 -14 123
-30 151 -9 16 -14 31 -11 35 10 9 119 -43 134 -64 21 -29 28 -5 12 42 l-15 46
26 -6 c14 -4 41 -13 60 -20 35 -15 52 -11 35 6 -13 13 -141 50 -148 43z"/>
<path d="M3284 8014 c8 -20 -73 -106 -129 -138 -24 -13 -67 -29 -97 -36 -29
-6 -61 -14 -70 -17 -14 -3 -18 2 -18 21 0 37 -28 22 -36 -19 -7 -38 15 -92 35
-87 7 1 36 -9 64 -23 84 -41 182 -31 234 26 31 34 60 105 68 167 5 40 11 52
22 50 27 -5 26 20 -1 47 -29 28 -82 36 -72 9z m21 -101 c-16 -113 -78 -185
-158 -187 -40 -1 -157 39 -157 53 0 4 27 13 60 19 74 13 161 62 215 119 22 23
41 43 43 43 2 0 0 -21 -3 -47z"/>
<path d="M217 7974 c-59 -44 -136 -74 -189 -74 -15 0 -28 -5 -28 -11 0 -7 17
-9 52 -4 62 9 110 28 155 62 19 14 36 23 39 20 8 -7 -50 -70 -91 -98 -19 -13
-35 -30 -35 -37 0 -14 10 -12 140 25 89 26 249 44 200 22 -102 -45 -180 -84
-180 -90 0 -3 42 -9 93 -11 97 -6 160 -25 214 -65 17 -12 36 -23 42 -23 6 0
11 -4 11 -9 0 -5 -29 -6 -65 -3 -86 6 -87 -12 -2 -57 68 -37 129 -82 165 -121
19 -21 22 -22 13 -4 -14 28 -81 88 -141 125 -28 17 -50 33 -50 36 0 5 53 -1
129 -14 46 -8 36 6 -49 61 -89 59 -157 86 -239 93 l-66 6 60 28 c32 16 83 33
112 39 29 6 53 15 53 20 0 29 -187 23 -288 -10 -88 -28 -104 -27 -70 5 32 29
88 109 88 124 0 18 -12 12 -73 -35z"/>
<path d="M10780 7981 c-86 -27 -159 -82 -192 -144 -21 -42 -17 -58 10 -39 36
25 94 53 104 50 5 -2 -21 -30 -58 -63 -73 -62 -143 -135 -144 -147 0 -14 13
-8 81 39 38 25 71 44 74 41 3 -3 -6 -20 -19 -39 -47 -65 -124 -204 -140 -252
-9 -28 -16 -78 -15 -120 1 -82 16 -58 18 29 1 28 8 71 16 94 21 61 107 206
155 264 22 26 40 52 40 58 0 13 -37 0 -83 -29 -59 -37 -54 -21 10 33 133 111
138 156 11 94 -46 -22 -48 -12 -6 31 45 44 143 89 196 89 23 0 42 5 42 10 0
12 -63 12 -100 1z"/>
<path d="M745 7853 c4 -10 10 -28 12 -40 3 -13 10 -23 15 -23 6 0 7 11 4 25
-9 37 11 31 55 -15 40 -42 42 -47 56 -140 l8 -55 35 57 c19 32 39 58 44 58 15
0 -2 -139 -26 -206 -12 -34 -19 -66 -15 -70 3 -4 23 10 44 30 36 34 38 35 41
15 4 -21 -51 -182 -70 -206 -5 -7 -5 -13 0 -17 9 -6 48 72 77 154 15 43 21
130 8 130 -4 0 -20 -12 -36 -27 l-30 -28 7 25 c27 95 31 260 7 260 -4 0 -16
-18 -26 -40 -10 -22 -26 -46 -35 -55 -16 -15 -18 -13 -24 28 -11 73 -87 157
-142 157 -11 0 -14 -5 -9 -17z"/>
<path d="M1442 7750 c-1 -36 3 -123 8 -195 5 -71 7 -146 4 -167 -6 -34 -10
-39 -48 -48 -96 -24 -180 -55 -212 -77 -19 -12 -37 -23 -40 -23 -12 0 19 41
67 88 29 29 50 55 47 58 -17 16 -215 -123 -320 -224 -47 -45 -69 -52 -50 -15
13 25 22 102 12 108 -4 3 -24 -23 -45 -58 -65 -109 -192 -270 -240 -302 -42
-28 -56 -45 -36 -45 37 0 155 127 244 263 52 80 75 91 38 18 -21 -41 -27 -71
-13 -71 4 0 35 27 70 60 56 53 206 174 240 194 8 5 -5 -19 -27 -52 -23 -33
-41 -62 -41 -66 0 -14 28 -5 61 20 54 40 99 61 192 87 90 25 108 24 59 -5 -39
-23 -122 -102 -122 -116 0 -16 26 -15 79 4 80 27 331 15 331 -16 0 -6 -11 -10
-24 -10 -13 0 -29 -7 -36 -15 -15 -18 -6 -45 15 -45 27 0 108 -48 160 -95 40
-36 46 -45 29 -45 -11 0 -25 5 -32 12 -21 21 -14 -16 7 -39 23 -24 56 -88 65
-125 3 -16 11 -28 17 -28 16 0 1 57 -27 109 -29 53 -29 54 -5 46 29 -9 33 8 8
37 -39 45 -145 126 -181 138 -20 6 -36 15 -36 20 0 9 25 20 48 20 21 0 48 17
41 25 -4 3 -32 15 -63 26 -66 23 -253 28 -313 8 -19 -6 -37 -9 -40 -6 -3 3 34
36 81 73 85 67 100 84 72 84 -11 0 -15 31 -21 148 -4 81 -11 183 -15 227 l-7
80 -1 -65z"/>
<path d="M8405 7695 c-4 -53 -5 -99 -2 -102 16 -16 -43 -113 -69 -113 -17 0
-27 -31 -14 -44 18 -18 82 25 105 70 17 33 19 55 17 149 -2 75 -7 114 -16 123
-11 12 -15 -2 -21 -83z"/>
<path d="M3435 7670 c-4 -6 -2 -16 3 -23 5 -7 17 -41 26 -77 9 -36 30 -110 46
-165 30 -100 51 -245 90 -600 19 -171 21 -258 23 -878 l2 -688 -64 -31 c-35
-17 -93 -34 -130 -40 -36 -5 -104 -16 -151 -24 -78 -14 -392 -23 -445 -13 -30
6 -25 -24 5 -32 14 -4 100 -7 191 -8 125 -1 178 3 215 15 27 8 81 17 121 19
74 4 215 45 245 71 9 9 18 12 21 7 2 -4 10 -91 16 -193 7 -102 16 -219 21
-260 6 -41 14 -162 20 -268 5 -106 11 -196 14 -200 2 -4 9 -68 15 -142 13
-155 18 -183 31 -175 9 5 6 56 -11 205 -5 47 -14 166 -19 265 -6 99 -17 290
-25 425 -17 274 -32 1395 -21 1532 l8 88 41 -29 c84 -57 267 -153 327 -172 97
-30 184 -41 217 -28 26 11 20 13 -76 31 -57 10 -134 31 -170 46 -83 35 -244
130 -310 182 -50 39 -51 42 -51 93 0 28 -7 90 -15 137 -8 47 -19 135 -25 195
-27 301 -66 489 -145 705 -13 36 -29 48 -40 30z"/>
<path d="M11004 7639 c-11 -12 -36 -30 -58 -41 -64 -33 -128 -106 -156 -177
-23 -62 -24 -63 -32 -35 -8 27 -3 99 9 130 3 8 1 14 -5 14 -11 0 -112 -151
-112 -169 0 -7 -4 -9 -10 -6 -15 9 -12 66 5 115 8 23 15 44 15 46 0 27 -85
-76 -125 -151 -26 -50 -32 -85 -15 -85 6 0 10 6 10 14 0 28 63 146 79 146 3 0
6 -17 7 -38 1 -51 13 -112 23 -112 5 0 14 20 21 44 6 24 25 63 40 86 l28 42 7
-43 c9 -62 25 -109 36 -109 5 0 9 7 9 15 0 30 54 151 79 178 28 32 95 80 125
90 16 6 17 4 11 -20 -9 -39 -15 -135 -9 -145 4 -6 14 2 23 15 31 48 111 149
111 140 0 -4 -9 -39 -20 -77 -11 -38 -18 -71 -16 -73 2 -2 28 20 57 49 50 50
105 78 152 78 9 0 19 5 23 11 5 8 -6 9 -37 4 -57 -9 -108 -31 -136 -57 -28
-26 -29 -14 -3 52 24 60 25 70 6 70 -8 0 -40 -36 -73 -80 -32 -44 -61 -80 -65
-80 -13 0 -9 31 11 102 21 72 16 91 -15 57z"/>
<path d="M11350 7529 c-32 -36 -64 -116 -79 -203 -19 -106 -9 -124 31 -61 13
19 25 35 28 35 3 0 5 -24 6 -53 0 -52 28 -186 46 -220 13 -26 28 -11 29 31 0
20 4 46 9 57 7 18 8 17 15 -10 22 -96 75 -185 110 -185 11 0 7 8 -14 28 -37
36 -72 121 -76 189 -2 30 -5 57 -8 59 -7 7 -33 -37 -46 -79 -7 -21 -14 -37
-16 -35 -2 2 -11 41 -20 86 -14 70 -15 91 -5 128 7 25 10 48 6 52 -4 4 -23
-10 -42 -31 -19 -20 -36 -37 -39 -37 -7 0 5 61 28 134 15 48 33 80 59 107 25
26 33 39 22 39 -8 0 -28 -14 -44 -31z"/>
<path d="M416 7502 c5 -5 48 -41 96 -80 83 -69 123 -111 113 -120 -2 -3 -19 6
-37 20 -42 32 -138 81 -145 74 -3 -3 7 -19 21 -37 29 -34 83 -133 69 -128 -4
2 -48 30 -96 62 -48 32 -92 57 -98 55 -11 -4 32 -36 119 -88 29 -17 64 -47 78
-66 15 -19 33 -34 40 -34 19 0 20 -4 -27 95 -22 48 -39 89 -37 90 9 9 139 -98
153 -125 9 -17 20 -28 26 -25 5 4 8 9 5 13 -2 4 -17 36 -34 72 -16 36 -43 77
-58 92 -59 55 -169 138 -183 138 -9 0 -11 -3 -5 -8z"/>
<path d="M0 7412 c0 -4 34 -38 75 -75 40 -37 91 -94 111 -127 39 -63 61 -78
50 -34 -4 15 -9 40 -12 58 -5 30 -3 29 50 -29 71 -76 123 -153 143 -210 17
-50 28 -51 38 -3 6 27 9 29 17 14 16 -28 27 -190 17 -236 -5 -24 -7 -45 -4
-48 21 -21 36 94 25 186 -11 86 -40 187 -54 187 -5 0 -10 -15 -12 -34 -3 -19
-6 -36 -8 -38 -2 -2 -17 20 -34 49 -32 56 -70 103 -166 205 -58 62 -85 79 -71
46 23 -56 13 -52 -65 20 -78 72 -100 87 -100 69z"/>
<path d="M11076 7298 c-72 -16 -166 -68 -220 -124 -43 -43 -99 -133 -134 -216
-7 -15 19 -8 39 11 11 10 43 31 71 46 42 23 50 25 45 11 -4 -10 -10 -35 -13
-57 -10 -62 24 -51 120 40 51 49 54 45 21 -36 -7 -17 -11 -34 -8 -37 8 -7 108
58 169 110 58 49 64 52 64 25 0 -55 19 -62 81 -30 50 25 45 36 -6 15 -55 -23
-58 -21 -53 29 7 54 -4 57 -49 17 -77 -71 -159 -129 -168 -120 -2 2 3 28 11
58 8 30 11 57 6 62 -4 4 -25 -15 -47 -42 -48 -59 -125 -118 -125 -97 0 8 7 31
15 50 8 20 15 39 15 42 0 13 -38 2 -87 -25 -35 -20 -53 -26 -53 -17 0 17 55
104 89 140 59 65 178 126 247 129 19 1 34 5 34 9 0 13 -24 16 -64 7z"/>
<path d="M11783 7133 c2 -119 -7 -193 -22 -193 -5 0 -12 16 -15 36 -7 32 -29
54 -42 41 -3 -3 -21 -47 -41 -99 -19 -51 -49 -115 -66 -143 l-32 -50 -7 45
c-3 25 -7 67 -7 95 -1 28 -5 45 -10 40 -5 -6 -5 -55 0 -115 4 -58 6 -130 2
-161 -3 -33 -1 -59 5 -63 6 -3 12 23 17 67 6 62 13 81 47 131 22 32 50 89 63
125 33 94 36 101 45 96 5 -3 11 -24 15 -48 15 -95 23 -96 49 -5 18 63 23 318
7 318 -6 0 -9 -50 -8 -117z"/>
<path d="M0 7200 c0 -6 14 -19 31 -28 182 -101 335 -263 390 -412 12 -33 26
-57 31 -54 18 11 -35 130 -99 221 -60 85 -216 219 -310 267 -38 19 -43 20 -43
6z"/>
<path d="M1363 7060 c-185 -26 -584 -217 -659 -316 -23 -30 -24 -32 -8 -75 14
-41 14 -49 -2 -102 -10 -32 -28 -69 -41 -84 -22 -23 -29 -25 -79 -19 -54 6
-76 -6 -30 -18 20 -5 24 -13 30 -67 3 -34 6 -79 6 -100 0 -23 5 -39 11 -39 9
0 10 28 5 100 l-7 100 26 0 c66 0 123 136 101 241 -7 32 -4 40 20 64 112 112
488 276 667 291 108 10 210 -25 295 -100 12 -11 22 -15 22 -9 0 18 -80 81
-136 109 -59 29 -131 37 -221 24z"/>
<path d="M3006 7008 c-18 -64 -41 -231 -55 -393 -15 -173 -24 -649 -13 -725
l8 -65 7 105 c4 58 11 229 17 380 14 373 31 560 66 723 11 50 -14 29 -30 -25z"/>
<path d="M0 6921 c0 -5 18 -12 40 -16 22 -4 40 -10 40 -13 -1 -4 -19 -19 -40
-34 -31 -22 -40 -34 -40 -57 0 -27 2 -29 27 -22 31 9 163 2 163 -8 0 -3 -12
-17 -25 -30 -32 -30 -34 -56 -2 -46 120 37 178 42 221 20 33 -18 36 -18 36 -5
0 5 -14 17 -32 26 -32 16 -113 15 -178 -3 -22 -6 -23 -5 -12 10 8 9 29 21 48
27 19 6 34 15 34 19 0 11 -192 23 -237 15 -37 -7 -38 -6 -20 13 9 11 42 32 72
48 30 15 53 31 50 35 -6 9 -94 30 -125 30 -11 0 -20 -4 -20 -9z"/>
<path d="M11073 6923 c-38 -5 -43 -25 -11 -47 28 -20 23 -24 -48 -37 -87 -16
-88 -17 -74 -34 10 -13 8 -15 -12 -15 -81 0 -368 -149 -368 -191 0 -5 12 -9
28 -9 26 0 26 -2 -21 -43 -53 -46 -53 -69 0 -36 39 25 41 21 9 -34 -21 -37
-56 -168 -56 -212 0 -24 14 -18 33 15 10 17 21 30 25 30 4 0 6 -31 5 -70 -1
-38 2 -70 7 -70 5 0 16 15 25 33 20 41 54 82 62 74 13 -14 51 -166 46 -186 -3
-13 -1 -21 6 -21 17 0 58 98 85 199 23 84 36 90 36 16 0 -61 16 -46 60 55 24
55 47 100 51 100 21 0 24 -146 4 -192 -5 -13 -3 -18 9 -18 21 0 92 149 107
228 6 34 15 62 19 62 8 0 20 -50 20 -86 0 -13 4 -24 9 -24 15 0 31 26 61 97
16 37 33 69 38 71 9 3 26 -51 37 -121 4 -23 11 -37 18 -34 19 6 106 218 106
257 0 31 -2 28 -18 -25 -10 -33 -33 -91 -52 -130 l-33 -70 -8 40 c-13 65 -39
125 -54 125 -8 0 -14 -6 -14 -14 0 -7 -14 -43 -30 -80 -29 -64 -50 -78 -50
-35 0 23 -18 61 -34 71 -7 5 -18 -27 -33 -91 -12 -54 -31 -114 -42 -132 l-21
-34 0 49 c0 89 -36 162 -53 109 -3 -10 -21 -51 -41 -92 -33 -71 -35 -73 -41
-45 -11 55 -20 77 -32 82 -9 2 -13 -7 -13 -25 0 -64 -67 -266 -80 -242 -4 8
-16 49 -26 92 -10 44 -23 77 -30 77 -6 0 -26 -16 -43 -35 -17 -19 -33 -35 -37
-35 -13 0 6 79 27 115 31 53 15 55 -36 5 -36 -36 -45 -40 -45 -25 0 42 24 102
61 155 44 63 46 70 22 70 -13 0 -11 5 10 18 35 22 34 32 -3 32 -37 0 -38 9 -4
34 85 61 246 126 316 126 52 0 81 15 58 29 -22 15 -8 22 54 28 31 3 56 10 56
15 0 6 -12 19 -26 30 -20 16 -23 23 -12 29 22 14 88 10 124 -7 41 -20 56 -12
21 11 -26 17 -101 26 -154 18z"/>
<path d="M1720 6904 c0 -4 14 -22 30 -41 17 -18 30 -43 30 -54 0 -18 -5 -17
-43 15 -45 37 -126 76 -158 76 -20 0 -20 -18 2 -78 13 -34 11 -37 -10 -18 -36
32 -221 75 -209 48 12 -28 74 -122 80 -122 14 0 9 15 -22 63 -20 32 -25 47
-16 47 37 0 138 -41 175 -70 22 -18 44 -31 47 -27 4 3 -4 31 -17 61 -12 31
-20 59 -16 62 19 19 147 -58 188 -113 41 -56 49 -41 24 45 -15 49 -57 112 -76
112 -5 0 -9 -3 -9 -6z"/>
<path d="M1180 6843 c0 -6 23 -33 52 -62 28 -28 49 -53 46 -56 -3 -3 -31 8
-64 25 -71 36 -145 51 -237 49 -77 -2 -88 -12 -62 -53 l17 -26 -57 0 c-52 0
-56 -1 -50 -21 7 -20 6 -20 -24 -5 -16 9 -37 16 -46 16 -25 0 -17 -17 12 -25
15 -3 39 -15 54 -26 36 -25 40 -24 37 9 -3 26 -1 27 50 30 54 3 67 17 37 42
-8 7 -15 16 -15 21 0 16 67 20 145 10 73 -11 93 -19 192 -77 17 -10 34 -16 37
-13 11 11 -17 74 -47 107 -24 24 -27 32 -14 32 34 0 98 -33 122 -63 13 -17 27
-28 31 -25 11 12 -39 65 -81 86 -46 23 -135 39 -135 25z"/>
<path d="M2410 6818 c0 -18 -7 -62 -15 -98 -8 -36 -29 -139 -47 -230 -34 -175
-34 -176 -31 -590 0 -107 1 -224 0 -260 0 -93 9 -129 49 -195 27 -45 33 -65
29 -87 -4 -16 -4 -45 0 -66 6 -34 13 -41 90 -84 89 -50 205 -88 265 -87 31 0
25 4 -45 30 -126 47 -128 48 -206 88 -70 35 -74 39 -77 74 -2 21 1 37 7 37 18
0 12 27 -17 77 -54 91 -54 92 -58 505 -3 354 -2 397 16 500 58 325 70 418 51
418 -6 0 -11 -15 -11 -32z"/>
<path d="M11768 6807 c-50 -53 -98 -240 -98 -377 0 -95 12 -104 42 -29 19 48
27 58 31 43 12 -36 25 -222 20 -264 l-6 -41 -48 6 c-61 9 -83 1 -110 -36 -29
-42 -18 -46 20 -8 28 27 37 31 69 25 49 -7 84 -35 99 -77 l12 -34 0 36 c1 21
-5 42 -14 49 -13 11 -13 16 3 43 13 22 14 31 5 34 -9 3 -13 27 -13 71 0 83
-21 272 -31 272 -3 0 -18 -26 -32 -57 l-26 -58 0 40 c-1 120 43 293 86 340 14
14 23 31 20 38 -2 7 -13 1 -29 -16z"/>
<path d="M1299 6635 c-8 -639 -9 -920 -2 -933 4 -10 10 201 13 468 3 267 2
489 -2 495 -5 5 -8 -9 -9 -30z"/>
<path d="M9671 6586 c-6 -7 -11 -18 -10 -22 2 -5 -4 -21 -11 -37 -18 -36 -3
-48 22 -17 20 24 20 24 35 5 26 -35 49 -86 118 -260 37 -93 72 -171 76 -173
30 -12 -34 -86 -102 -119 -27 -14 -49 -29 -49 -33 0 -17 17 -19 36 -5 33 25
42 17 58 -54 20 -89 21 -300 1 -412 -26 -149 -83 -290 -137 -341 -31 -29 -30
-48 3 -48 33 0 66 47 108 154 55 141 71 229 71 390 l0 136 48 -6 c100 -13 506
-125 645 -178 120 -47 354 -153 600 -274 93 -46 172 -80 175 -77 7 7 9 6 -108
68 -173 92 -583 277 -715 323 -124 43 -417 125 -530 148 l-109 22 -22 89 c-28
110 -28 114 -6 109 18 -5 91 57 93 79 2 23 -3 42 -16 57 -7 8 -41 85 -75 170
-73 180 -106 243 -153 288 -29 28 -36 31 -46 18z"/>
<path d="M5255 6220 c3 -36 9 -198 15 -360 5 -162 12 -311 15 -330 3 -19 9
-82 15 -140 28 -304 93 -828 98 -788 3 22 -39 443 -63 633 -18 146 -37 395
-49 676 -9 179 -20 337 -26 350 -8 19 -9 10 -5 -41z"/>
<path d="M9507 6243 c-3 -5 -8 -33 -12 -63 -4 -30 -12 -66 -17 -80 -8 -22 -10
-23 -19 -8 -6 12 -7 30 0 52 9 34 6 46 -10 46 -13 0 -31 -79 -23 -103 3 -12
12 -29 19 -37 7 -8 16 -46 20 -85 3 -38 17 -102 30 -141 22 -63 26 -98 33
-310 9 -218 12 -246 36 -317 14 -42 26 -90 26 -106 0 -35 -49 -103 -95 -133
-35 -23 -44 -38 -25 -38 23 0 121 71 132 95 15 33 26 32 34 -2 3 -16 10 -45
15 -65 11 -42 4 -82 -16 -98 -16 -13 -9 -40 10 -40 23 0 47 39 48 77 1 53 -19
157 -36 185 -24 39 -65 159 -81 237 -10 48 -16 129 -15 226 0 132 -7 201 -27
267 -4 12 4 18 36 23 56 9 153 48 158 63 6 19 -39 14 -80 -8 -21 -11 -55 -23
-78 -26 -39 -6 -40 -5 -55 29 -17 40 -18 132 -5 217 21 127 23 150 12 150 -6
0 -13 -3 -15 -7z"/>
<path d="M4065 6025 c12 -405 37 -940 43 -947 8 -8 -2 339 -18 652 -5 113 -10
264 -10 335 0 73 -5 137 -11 145 -7 10 -8 -46 -4 -185z"/>
<path d="M4575 6130 c-3 -5 -3 -16 2 -22 4 -7 8 -591 8 -1298 0 -848 3 -1286
10 -1288 10 -2 19 434 29 1353 2 204 5 413 6 465 l3 95 8 -80 c4 -44 13 -107
18 -140 6 -33 15 -107 21 -165 6 -58 15 -127 20 -155 5 -27 14 -90 20 -140 13
-100 61 -399 86 -533 31 -172 98 -399 125 -426 20 -21 17 4 -11 84 -40 117
-83 338 -124 640 -20 140 -54 386 -76 545 -23 160 -48 382 -55 495 -8 113 -19
237 -25 275 -5 39 -9 96 -10 128 0 57 -29 177 -42 177 -4 0 -10 -4 -13 -10z"/>
<path d="M8236 6012 c-3 -5 -1 -59 5 -118 6 -66 8 -185 4 -299 -5 -135 -4
-208 5 -249 10 -48 10 -60 -1 -67 -23 -14 -17 -201 9 -274 19 -53 20 -67 10
-126 -15 -91 -3 -113 86 -157 37 -18 71 -31 74 -28 10 10 -29 44 -74 65 l-44
21 0 54 c0 86 5 91 54 52 51 -41 156 -101 156 -89 0 11 -21 30 -100 90 -91 69
-110 94 -131 174 -21 79 -24 136 -9 159 7 12 13 9 30 -13 19 -24 50 -37 50
-21 0 9 -22 48 -36 61 -29 29 -39 125 -36 343 3 264 -22 470 -52 422z"/>
<path d="M11028 5924 c-41 -44 -57 -73 -58 -99 0 -11 -10 -25 -22 -30 -13 -6
-28 -25 -34 -43 -9 -29 -12 -31 -23 -18 -23 27 -117 38 -132 15 -4 -6 -16 -9
-27 -7 -43 12 -86 -49 -80 -113 2 -18 8 -34 15 -36 8 -3 10 6 6 30 -6 42 19
97 46 97 11 0 22 -6 24 -12 4 -9 12 -5 25 11 17 21 24 23 64 17 41 -6 47 -11
63 -47 21 -46 28 -43 32 12 4 59 19 82 49 75 23 -6 24 -4 24 37 0 30 7 53 22
73 44 57 76 68 110 37 16 -15 18 -15 18 0 0 9 -9 21 -19 27 -37 19 -69 11
-103 -26z"/>
<path d="M2455 5458 c4 -18 14 -45 21 -60 16 -32 82 -88 104 -88 8 0 53 -13
99 -30 50 -17 95 -27 111 -24 16 4 39 -2 60 -15 45 -26 142 -51 198 -51 24 0
74 7 110 16 37 9 87 21 110 27 24 5 58 20 75 31 20 14 50 22 80 24 50 2 177
54 177 73 0 14 -10 12 -78 -16 -59 -24 -122 -33 -122 -18 0 4 17 24 37 45 20
21 34 41 30 45 -4 3 -42 -28 -85 -69 -71 -70 -82 -77 -137 -87 -33 -6 -79 -16
-102 -21 -80 -19 -164 -12 -256 20 -48 17 -96 30 -106 30 -11 0 -39 8 -63 18
-24 10 -65 24 -92 31 -67 17 -102 44 -131 102 -29 57 -50 66 -40 17z"/>
<path d="M623 5162 c1 -135 -1 -142 -59 -142 -28 0 -32 4 -38 33 -3 17 -6 71
-7 120 -1 49 -6 87 -12 87 -6 0 -8 -47 -5 -125 2 -69 3 -125 2 -125 -25 0
-312 -44 -352 -54 -31 -8 -78 -17 -105 -21 -26 -3 -47 -10 -47 -16 0 -13 17
-12 153 15 67 14 160 29 207 36 47 6 128 17 180 25 52 7 137 17 188 21 51 4
92 11 92 17 0 6 -31 8 -90 3 l-90 -7 -1 103 c-1 57 -5 114 -9 128 -6 16 -8
-20 -7 -98z"/>
<path d="M9844 5221 c-14 -15 13 -18 164 -20 289 -3 540 -24 892 -76 52 -7
160 -23 239 -35 79 -11 210 -32 290 -45 221 -37 371 -53 371 -40 0 7 -45 16
-112 23 -62 7 -192 26 -288 42 -96 17 -227 37 -290 45 -63 8 -207 28 -320 45
-113 16 -290 36 -395 45 -187 14 -542 25 -551 16z"/>
<path d="M1100 5070 c-202 -9 -254 -16 -244 -31 3 -6 18 -8 32 -4 61 13 506
23 680 15 314 -14 487 -16 492 -5 10 20 -674 37 -960 25z"/>
<path d="M2976 4793 c-3 -3 -2 -11 3 -17 5 -6 12 -360 15 -786 4 -426 11 -813
16 -860 10 -86 30 -787 33 -1115 1 -99 -2 -211 -7 -248 -8 -59 -12 -70 -35
-81 -39 -20 -163 -46 -218 -46 -108 0 -336 80 -402 141 -29 27 -35 59 -27 153
10 127 16 154 37 159 16 4 18 9 10 30 -5 14 -15 88 -22 165 -11 125 -11 161 6
317 18 178 18 195 -4 529 -4 63 -10 101 -18 103 -21 7 -27 -67 -15 -177 14
-126 15 -327 2 -390 -19 -90 -23 -310 -7 -419 13 -85 13 -107 3 -115 -8 -7
-20 -73 -31 -169 l-18 -157 -73 -46 c-92 -57 -114 -86 -114 -151 0 -60 35
-118 93 -156 96 -63 270 -62 462 1 67 22 156 56 198 76 43 20 80 36 84 36 3 0
28 16 55 35 33 24 50 31 53 23 2 -7 5 -63 7 -124 3 -99 6 -114 28 -147 30 -44
72 -68 170 -98 89 -26 228 -29 302 -6 l47 15 33 -55 c40 -65 88 -96 195 -123
128 -33 192 -25 328 41 79 38 259 174 360 271 44 43 85 78 91 78 28 0 103 42
109 61 10 32 -4 90 -31 130 -23 34 -25 46 -28 190 -2 85 -9 246 -15 359 -6
113 -16 320 -21 460 -6 140 -15 352 -20 470 -9 225 -26 355 -43 329 -9 -14 25
-908 53 -1374 5 -88 10 -202 10 -253 0 -59 5 -106 14 -125 15 -34 46 -138 46
-156 0 -15 -48 -38 -100 -46 -25 -4 -110 -20 -190 -35 -80 -16 -181 -32 -225
-36 -72 -6 -86 -4 -125 16 -25 13 -59 33 -76 46 -39 30 -56 31 -52 2 2 -14 27
-39 68 -68 l65 -45 90 2 c50 1 124 9 165 17 41 8 77 12 79 10 7 -6 -42 -43
-179 -134 -74 -50 -140 -90 -147 -90 -7 0 -13 -5 -13 -11 0 -25 69 1 160 60
95 60 121 80 214 158 27 24 59 43 70 43 23 -1 30 7 -84 -92 -89 -77 -259 -188
-324 -213 -80 -30 -146 -32 -243 -6 -89 23 -128 46 -156 91 l-22 35 35 -27
c70 -53 146 -81 228 -82 52 -1 76 3 79 12 3 8 -7 12 -32 12 -91 0 -255 70
-290 124 -9 14 -16 52 -18 97 -2 63 2 82 25 129 30 60 29 73 -2 45 -24 -21
-56 -90 -71 -151 -11 -41 -12 -42 -82 -63 -40 -12 -96 -21 -126 -21 -61 0
-170 30 -218 60 -51 30 -93 96 -93 143 0 33 3 38 18 32 86 -37 139 -45 275
-45 156 0 198 11 246 64 20 22 23 30 13 48 -6 13 -11 30 -11 38 -14 342 -19
1027 -10 1455 16 765 27 1165 35 1205 4 24 3 32 -4 25 -18 -17 -41 -150 -47
-278 -13 -255 -22 -1665 -14 -2007 9 -342 11 -397 20 -430 3 -10 -14 -24 -50
-42 -52 -27 -62 -28 -192 -28 -121 0 -146 3 -204 24 -114 41 -138 83 -109 187
15 52 15 91 5 376 -6 175 -11 417 -11 538 -1 121 -5 252 -10 291 -20 154 -30
509 -31 1127 -2 601 -3 649 -19 657 -10 5 -20 6 -24 3z m-610 -3051 c59 -53
151 -96 261 -124 51 -13 93 -26 93 -29 0 -4 -42 -21 -92 -40 -83 -30 -104 -33
-200 -34 -74 0 -108 -4 -108 -11 0 -19 26 -24 114 -24 91 0 235 39 319 86 32
18 58 24 84 22 36 -3 33 -5 -57 -40 -165 -64 -243 -82 -360 -83 -120 0 -179
17 -225 65 -37 38 -25 38 30 0 49 -34 55 -36 55 -17 0 7 -21 30 -46 51 -25 21
-49 48 -53 60 -23 60 -23 61 17 83 20 12 51 33 67 47 17 14 36 26 43 26 8 0
34 -17 58 -38z"/>
<path d="M9549 4751 c-60 -61 -158 -111 -220 -111 -26 0 -66 -9 -90 -19 -24
-11 -62 -23 -84 -27 -22 -4 -43 -11 -46 -16 -4 -6 -47 -6 -114 1 -60 6 -150
11 -200 11 -106 0 -173 19 -265 76 -39 24 -65 34 -77 29 -16 -6 -14 -9 12 -31
47 -37 155 -90 210 -103 60 -13 405 -20 423 -7 7 4 34 9 60 11 26 2 61 9 77
15 17 7 58 16 92 21 34 5 90 22 125 39 71 34 158 112 158 141 0 28 -10 23 -61
-30z"/>
<path d="M9640 4770 c0 -12 9 -65 19 -118 15 -76 21 -183 31 -487 6 -214 15
-442 21 -505 12 -155 11 -371 -2 -466 -10 -70 -24 -111 -91 -253 -23 -48 -71
-98 -105 -107 -18 -5 -92 12 -140 32 -31 13 -9 -14 32 -38 69 -42 112 -40 168
7 47 39 52 48 102 160 22 50 28 57 36 42 12 -21 32 -252 24 -278 -9 -28 15
-548 27 -594 13 -47 14 -101 3 -132 -5 -17 -3 -23 6 -23 21 0 52 -84 44 -118
-3 -16 -29 -55 -57 -86 -28 -31 -48 -60 -45 -63 11 -10 104 76 122 113 20 42
37 34 37 -18 0 -44 -30 -102 -78 -151 -90 -93 -189 -130 -354 -131 -107 -1
-120 2 -196 32 -106 42 -170 85 -179 120 -5 15 -9 126 -10 247 -7 509 -27
1241 -36 1250 -5 5 -9 159 -9 362 0 296 -3 381 -21 520 -14 115 -26 178 -41
207 -27 54 -47 76 -70 76 -15 0 -13 -7 16 -47 23 -33 38 -67 45 -108 23 -131
41 -369 41 -538 0 -98 4 -242 9 -320 6 -78 15 -459 21 -847 6 -388 12 -731 14
-763 5 -67 -4 -76 -102 -109 -86 -29 -324 -37 -389 -13 -110 41 -167 93 -157
144 l6 30 40 -21 c47 -24 63 -18 19 8 -17 10 -31 21 -31 25 0 4 -11 20 -24 36
-24 28 -24 32 -14 99 13 82 13 56 1 657 -9 427 -12 480 -27 495 -26 26 -32 4
-24 -90 3 -46 7 -234 8 -418 0 -184 5 -379 10 -433 6 -69 5 -108 -3 -130 -10
-28 -12 -101 -8 -284 1 -33 8 -49 38 -81 44 -45 125 -87 203 -103 52 -11 229
-7 290 7 20 5 14 -5 -33 -50 -52 -50 -158 -116 -187 -116 -6 0 -29 -9 -53 -19
-23 -11 -55 -23 -71 -28 -37 -12 -44 -30 -14 -36 18 -3 16 -5 -9 -6 -17 0 -38
-4 -47 -7 -11 -4 -16 0 -16 13 0 14 -14 24 -55 38 -62 21 -121 72 -132 113 -5
21 3 45 35 104 42 79 42 101 -2 73 -57 -38 -110 -157 -97 -218 16 -70 47 -104
128 -143 75 -37 77 -37 172 -31 86 6 193 34 244 63 93 56 239 192 266 250 7
16 17 36 21 44 4 8 19 19 33 24 22 8 29 6 47 -17 12 -15 41 -39 66 -53 24 -14
42 -29 39 -34 -5 -8 28 -55 55 -78 45 -39 122 -81 176 -95 59 -17 197 -23 228
-11 36 14 10 21 -91 27 -119 6 -182 25 -254 75 -47 31 -85 69 -78 76 2 3 29
-2 59 -10 78 -20 212 -18 303 5 89 23 140 48 185 91 l32 31 35 -21 c43 -27 85
-76 85 -100 0 -27 -54 -68 -148 -112 -45 -22 -80 -43 -77 -49 10 -15 26 -11
94 21 35 17 69 29 75 27 19 -6 -98 -57 -183 -78 -76 -19 -93 -20 -173 -10 -49
7 -112 20 -139 31 -58 22 -149 87 -181 130 -23 31 -58 41 -58 15 0 -50 119
-162 210 -196 68 -26 203 -43 291 -36 185 15 339 117 339 226 0 56 -19 90 -80
143 l-51 45 32 63 c18 36 32 80 32 100 0 34 -34 114 -51 122 -4 1 -20 19 -35
40 -19 24 -24 37 -15 40 17 6 15 73 -5 143 -14 48 -20 127 -27 395 -10 367
-15 427 -37 482 -12 29 -12 41 -3 59 18 32 25 330 11 489 -6 74 -18 324 -26
555 -14 398 -22 480 -54 594 -9 32 -31 39 -31 11z"/>
<path d="M8277 4468 c4 -139 7 -365 5 -503 -3 -320 19 -723 43 -783 18 -43 66
-92 90 -92 18 0 10 27 -16 55 -37 42 -49 105 -64 339 -10 154 -13 300 -9 441
6 205 -6 427 -24 433 -5 1 -4 37 3 80 6 42 8 122 5 177 -4 85 -8 100 -23 103
-17 3 -17 -10 -10 -250z"/>
<path d="M9704 4681 c3 -4 43 -11 88 -15 108 -9 477 -58 718 -96 63 -10 149
-21 190 -25 323 -28 629 -82 906 -160 161 -45 194 -52 194 -37 0 16 -350 110
-541 146 -131 24 -389 58 -539 71 -41 4 -140 17 -220 30 -147 24 -167 26 -503
70 -192 26 -302 32 -293 16z"/>
<path d="M935 4455 c-366 -42 -893 -125 -926 -146 -25 -15 -2 -20 45 -9 26 6
82 15 124 21 42 5 100 14 127 19 28 5 106 18 175 29 109 18 193 28 530 68 36
5 64 13 63 18 -3 14 -15 14 -138 0z"/>
<path d="M4820 3960 c0 -52 11 -268 25 -480 14 -212 25 -439 25 -505 1 -132
21 -420 45 -645 9 -82 16 -244 17 -372 1 -195 -2 -231 -16 -252 -20 -31 -21
-78 -2 -114 26 -50 133 -115 266 -162 l74 -26 58 -94 c99 -161 178 -223 316
-250 86 -17 222 -8 296 20 96 37 137 83 173 197 11 33 6 68 -27 181 l-18 62
65 32 c95 46 114 101 72 212 -11 31 -18 60 -14 66 3 6 0 41 -9 78 -8 37 -22
121 -31 187 -9 66 -23 170 -31 230 -8 61 -26 177 -40 258 -14 82 -33 212 -44
290 -10 78 -34 232 -53 342 -19 110 -38 229 -41 265 -9 85 -46 369 -52 398 -2
12 -9 22 -14 22 -21 0 23 -489 60 -680 18 -91 59 -337 70 -425 6 -49 20 -138
31 -196 19 -104 41 -251 79 -519 19 -136 30 -200 55 -320 23 -106 9 -132 -100
-180 -39 -17 -87 -40 -109 -52 -44 -24 -141 -34 -201 -21 l-40 9 -6 69 c-25
282 -39 443 -43 525 -29 478 -52 726 -68 736 -5 3 -6 -5 -4 -18 15 -65 41
-439 61 -858 3 -74 13 -195 21 -268 20 -188 20 -182 -18 -182 -17 0 -66 -12
-107 -27 -100 -35 -255 -44 -334 -18 -119 39 -229 102 -254 148 -21 38 -16 50
17 44 34 -7 41 8 13 28 -15 11 -17 43 -18 296 -1 156 -7 316 -13 354 -21 129
-33 288 -42 555 -9 246 -13 339 -40 810 -11 186 -27 319 -41 335 -5 5 -9 -32
-9 -85z m908 -2490 c81 -26 137 -25 213 1 33 12 62 19 63 18 14 -17 36 -113
36 -155 l0 -52 -61 -46 c-36 -27 -76 -49 -99 -52 -51 -8 -68 -20 -53 -35 16
-16 93 4 141 36 40 28 54 25 27 -5 -9 -10 -47 -29 -84 -42 -54 -19 -87 -23
-181 -23 -103 0 -121 3 -171 26 -31 15 -76 44 -99 65 -49 45 -145 187 -129
193 13 4 34 -22 60 -75 56 -114 162 -182 298 -191 107 -8 106 9 -3 31 -126 27
-190 66 -251 155 -52 76 -52 90 4 91 28 0 202 57 216 71 5 5 9 9 10 9 0 0 29
-9 63 -20z"/>
<path d="M8030 3963 c-14 -27 -53 -76 -87 -111 -35 -34 -63 -66 -63 -70 -1 -7
-62 -47 -108 -71 -41 -21 -246 -103 -292 -116 -162 -47 -208 -59 -315 -81
-165 -35 -381 -37 -502 -5 -179 46 -301 106 -371 179 -43 46 -68 50 -42 8 23
-37 72 -89 106 -113 32 -23 190 -93 209 -93 5 0 10 -10 11 -22 0 -13 8 -77 17
-143 9 -66 21 -183 27 -260 32 -413 47 -544 106 -928 16 -99 24 -185 20 -207
-7 -48 2 -100 19 -100 15 0 26 68 26 145 -1 28 -10 104 -22 170 -48 282 -80
525 -99 770 -18 236 -41 459 -51 502 -5 25 -8 47 -6 49 2 2 38 -3 81 -11 128
-25 368 -19 505 11 l24 5 -7 -88 c-4 -48 -11 -124 -16 -168 -39 -326 -110
-1070 -110 -1157 0 -57 26 -69 34 -15 6 33 31 311 41 452 3 44 12 141 20 215
14 129 33 306 55 525 6 55 12 131 13 169 l2 70 65 16 c36 9 127 38 202 63 76
26 142 47 147 47 6 0 -5 -42 -23 -94 -46 -129 -117 -341 -154 -461 -66 -214
-171 -633 -216 -862 -41 -206 -41 -210 28 -338 83 -154 162 -266 265 -374 39
-41 71 -80 71 -87 0 -6 -9 -22 -19 -35 -18 -22 -25 -24 -108 -21 -48 1 -114 9
-145 17 -59 15 -172 67 -183 84 -3 6 -10 61 -15 123 -12 135 -28 228 -42 245
-7 9 -7 23 1 44 18 53 14 112 -10 138 -29 31 -47 14 -29 -28 7 -18 10 -45 6
-65 -4 -19 0 -79 9 -133 8 -54 19 -156 24 -227 9 -121 9 -132 -11 -170 -52
-105 -180 -236 -230 -236 -33 0 -116 48 -144 84 -44 55 -63 113 -63 196 -1 90
31 252 65 329 23 51 24 91 3 91 -11 0 -54 -83 -68 -135 -6 -22 -22 -89 -36
-150 -14 -60 -32 -137 -40 -170 -22 -89 -45 -261 -45 -333 0 -103 58 -192 152
-232 75 -32 206 -39 279 -15 74 25 127 62 149 105 22 42 40 135 40 202 0 26 3
48 6 48 3 0 26 -16 52 -36 57 -44 210 -118 274 -133 127 -30 319 17 360 87 56
96 29 149 -188 363 -178 177 -269 297 -355 471 l-43 87 13 83 c27 179 46 266
142 643 67 261 104 389 183 625 30 91 64 194 74 229 11 40 26 69 38 75 39 22
144 100 144 108 0 4 25 23 55 42 70 46 145 144 145 192 0 48 -20 43 -50 -13z
m-786 -2612 c68 -39 142 -58 252 -66 102 -7 129 1 159 46 11 16 23 29 26 29 4
0 40 -36 82 -79 97 -102 113 -167 52 -207 -67 -44 -271 -61 -350 -29 -103 42
-255 138 -275 175 -11 20 -14 160 -4 160 4 0 30 -13 58 -29z m-561 -119 c36
-80 131 -152 199 -152 18 0 48 9 67 21 41 25 125 111 160 164 l26 40 3 -84 c4
-110 -13 -254 -34 -289 -39 -67 -163 -110 -279 -97 -78 8 -136 37 -180 88 -33
39 -35 44 -35 116 0 42 7 119 15 171 8 52 15 100 15 105 1 6 6 -1 13 -15 6
-14 19 -44 30 -68z"/>
</g>
</svg>
