<?xml version="1.0" standalone="no"?>
<!DOCTYPE svg PUBLIC "-//W3C//DTD SVG 20010904//EN"
 "http://www.w3.org/TR/2001/REC-SVG-20010904/DTD/svg10.dtd">
<svg version="1.0" xmlns="http://www.w3.org/2000/svg"
 width="842.000000pt" height="842.000000pt" viewBox="0 0 842.000000 842.000000"
 preserveAspectRatio="xMidYMid meet">
<metadata>
Created by potrace 1.16, written by Peter Selinger 2001-2019
</metadata>
<g transform="translate(0.000000,842.000000) scale(0.100000,-0.100000)"
fill="#000000" stroke="none">
<path d="M1900 8286 c-134 -28 -213 -75 -250 -151 -19 -39 -22 -58 -18 -117
l5 -70 -31 6 c-185 31 -407 32 -535 1 -199 -48 -321 -167 -352 -343 l-11 -60
-106 -4 c-122 -5 -190 -29 -259 -92 -90 -81 -128 -253 -74 -339 34 -55 65 -84
121 -112 134 -68 350 -73 653 -14 l113 22 55 -37 c182 -126 436 -194 654 -176
44 4 83 5 88 3 4 -2 4 -15 1 -27 -4 -16 2 -32 19 -52 25 -29 26 -29 134 -29
110 1 187 16 413 79 225 62 517 74 742 30 151 -29 260 -29 316 0 75 39 121
120 108 190 -14 75 -139 167 -298 218 -60 20 -68 25 -63 43 32 112 39 151 39
235 0 81 -3 103 -25 150 -70 151 -191 210 -430 210 l-116 0 -7 38 c-9 62 -65
160 -128 227 -65 71 -172 130 -288 160 -86 23 -377 29 -470 11z m451 -75 c215
-55 355 -193 376 -371 5 -36 13 -65 18 -65 6 1 54 5 108 9 238 20 396 -51 437
-199 25 -89 2 -251 -54 -377 -6 -14 1 -19 36 -28 130 -33 284 -105 323 -152
36 -43 33 -89 -8 -134 -54 -60 -151 -64 -357 -16 -160 37 -549 14 -735 -43
-222 -69 -423 -102 -464 -76 -19 12 -8 38 38 91 22 24 38 46 36 48 -2 2 -49
-6 -106 -17 -270 -55 -535 0 -779 163 -61 41 -50 41 -210 6 -315 -67 -565 -42
-660 66 -37 42 -44 70 -37 139 10 102 72 178 172 212 49 17 180 24 255 13 l35
-5 2 60 c6 152 62 247 187 312 74 38 130 52 248 63 143 12 299 0 466 -37 40
-9 75 -13 78 -10 4 3 -3 19 -15 36 -27 38 -51 105 -51 143 0 42 27 95 61 119
38 27 126 58 198 69 90 14 315 4 402 -19z"/>
<path d="M7570 6594 c-151 -69 -288 -131 -305 -139 -16 -7 -74 -34 -128 -59
-53 -25 -99 -46 -101 -46 -3 0 -47 -20 -98 -44 -108 -51 -105 -50 -738 -341
-522 -240 -771 -357 -973 -454 l-129 -62 -61 20 c-207 68 -459 74 -643 15
l-82 -26 -298 85 c-480 136 -805 228 -859 242 -27 8 -180 50 -340 95 -159 45
-445 124 -635 176 -190 51 -385 105 -435 119 -350 98 -911 241 -1017 259 -69
12 -81 12 -131 -5 -50 -17 -299 -56 -482 -76 -69 -8 -70 -8 -73 -40 l-3 -31
93 -22 c51 -12 174 -41 273 -65 99 -24 259 -62 355 -85 96 -23 247 -59 335
-80 88 -21 219 -52 290 -69 286 -68 641 -152 835 -199 113 -28 257 -62 320
-77 63 -15 223 -53 355 -85 132 -31 330 -79 440 -105 110 -26 308 -73 440
-105 132 -32 274 -65 315 -75 96 -21 120 -31 120 -49 0 -8 -12 -17 -27 -20
-38 -8 -315 -55 -383 -66 -89 -14 -1188 -199 -1275 -215 -44 -8 -150 -26 -235
-40 -445 -74 -1047 -176 -1057 -180 -11 -4 -20 -65 -10 -65 5 0 311 -64 602
-125 474 -99 503 -105 532 -95 15 5 100 30 188 55 88 26 205 60 260 76 55 17
129 39 165 49 113 34 553 164 870 259 168 49 361 107 430 126 69 20 136 44
151 52 23 14 32 14 85 1 32 -8 59 -19 59 -24 -1 -41 -17 -224 -21 -245 -4 -23
-13 -27 -132 -53 -476 -104 -967 -369 -1297 -700 -121 -121 -163 -191 -224
-366 -17 -47 -36 -88 -43 -92 -12 -7 -218 -56 -468 -113 -63 -15 -246 -57
-407 -96 -161 -38 -299 -69 -308 -69 -9 0 -15 9 -15 24 0 42 -56 220 -97 306
-81 172 -197 270 -323 270 -77 0 -164 -44 -223 -111 -51 -58 -128 -199 -152
-279 -9 -30 -19 -62 -22 -70 -5 -15 -31 88 -108 430 -20 91 -45 201 -55 245
-10 44 -23 104 -30 133 -7 28 -15 52 -18 51 -4 0 -47 -52 -95 -115 l-88 -115
35 -402 c32 -358 44 -490 61 -662 4 -36 -9 -122 -49 -315 -127 -620 -158 -781
-153 -786 2 -3 22 5 43 16 20 12 72 39 115 61 42 22 82 45 87 52 9 11 182 669
182 692 0 3 9 5 21 3 18 -2 25 -18 45 -96 47 -189 110 -318 196 -404 188 -185
420 -95 550 214 34 80 88 280 88 325 0 17 4 34 9 38 5 3 83 12 173 20 90 8
215 20 278 26 294 28 525 44 528 37 2 -4 -40 -168 -94 -363 -53 -196 -94 -358
-90 -362 9 -9 284 28 302 41 8 6 48 97 90 201 42 105 79 194 84 198 4 5 29
-31 54 -80 46 -86 145 -232 198 -292 20 -22 51 -37 113 -57 l86 -27 -64 -27
c-146 -61 -170 -82 -255 -208 -43 -64 -113 -174 -156 -244 l-78 -126 -57 -7
c-77 -10 -114 -27 -145 -67 -29 -39 -34 -85 -14 -150 10 -34 14 -38 37 -34 14
3 89 17 166 30 77 14 255 45 395 70 140 25 359 64 485 86 127 23 345 61 485
86 140 25 282 50 315 55 67 12 111 27 128 43 7 6 38 29 71 51 32 22 64 44 71
49 15 11 83 -29 200 -120 100 -77 191 -171 243 -253 41 -63 88 -183 78 -199
-3 -5 -24 -12 -47 -15 -85 -11 -116 -64 -88 -149 15 -45 12 -45 186 -18 71 11
157 24 193 30 36 5 108 16 160 25 52 8 259 39 460 70 201 30 435 66 520 80 85
13 250 38 365 55 116 17 218 35 228 38 28 11 308 295 299 304 -4 4 -54 13
-110 20 l-103 12 -83 -83 -82 -82 -90 -14 c-132 -22 -124 -25 -164 63 -78 174
-254 416 -455 627 l-58 60 2 80 c1 44 3 81 5 82 3 3 227 54 411 94 157 33 215
62 347 168 212 171 296 363 249 573 -23 107 -108 198 -236 251 -59 25 -59 25
-82 93 -60 178 -180 365 -309 483 -173 157 -439 286 -674 326 -56 10 -89 21
-98 33 -82 111 -240 180 -512 223 -136 22 -162 30 -235 74 -63 38 -159 61
-424 101 l-34 5 7 67 c3 37 6 88 6 114 l0 47 58 6 c31 4 91 15 132 26 41 11
82 20 90 21 8 0 123 -21 255 -46 132 -26 274 -53 315 -61 41 -7 161 -30 265
-50 105 -20 249 -47 320 -60 72 -13 150 -28 175 -34 25 -6 97 -20 160 -31 63
-11 135 -25 160 -30 25 -5 95 -18 155 -29 61 -12 178 -34 260 -50 83 -15 313
-59 512 -96 l361 -69 76 55 c42 30 116 83 166 118 49 36 89 66 87 67 -1 1
-119 21 -262 44 -143 22 -368 59 -500 80 -132 22 -298 49 -370 60 -71 11 -186
30 -255 41 -69 11 -206 33 -305 49 -199 32 -474 76 -905 146 -573 91 -544 86
-524 103 5 4 74 25 154 46 80 21 174 46 210 55 36 10 162 44 280 75 118 32
274 73 345 92 72 19 204 55 295 79 91 24 208 55 260 69 52 15 169 46 260 70
453 120 743 197 820 219 47 13 159 43 250 66 91 24 168 46 172 50 6 5 -80 120
-230 309 -15 19 -45 58 -67 86 -117 153 -160 205 -170 205 -5 0 -134 -57 -285
-126z m336 -30 c32 -42 116 -149 186 -238 70 -88 124 -164 120 -168 -4 -3 -61
-21 -127 -38 -66 -17 -212 -56 -325 -87 -113 -30 -239 -64 -280 -75 -41 -11
-201 -53 -355 -94 -154 -42 -332 -89 -395 -106 -63 -16 -153 -40 -200 -53
-358 -95 -531 -142 -635 -170 -66 -18 -243 -65 -393 -105 l-273 -73 -24 23
c-14 13 -25 26 -25 30 0 8 193 101 525 255 334 155 1215 561 1465 675 118 54
312 143 430 198 118 55 222 100 231 101 8 1 42 -33 75 -75z m-6928 -254 c130
-32 323 -82 427 -110 105 -29 215 -58 245 -66 181 -48 798 -218 1070 -294 165
-47 570 -160 625 -174 28 -8 129 -36 225 -64 96 -27 283 -80 415 -117 132 -37
244 -71 248 -75 13 -11 -15 -50 -35 -50 -10 0 -100 20 -200 44 -101 24 -244
58 -318 76 -74 17 -254 60 -400 95 -146 35 -344 82 -440 105 -96 23 -258 61
-360 86 -102 24 -232 56 -290 69 -58 14 -267 64 -465 111 -198 48 -463 111
-590 140 -126 30 -284 68 -350 84 -409 99 -496 120 -509 120 -9 0 -16 4 -16 8
0 4 44 13 98 20 123 16 253 41 272 53 24 15 94 2 348 -61z m3961 -879 c46 -12
112 -35 145 -50 64 -29 126 -88 126 -120 0 -28 -37 -69 -82 -92 -51 -26 -180
-59 -231 -59 l-40 0 7 95 7 94 -43 22 c-53 27 -140 30 -183 6 -56 -31 -57 -33
-65 -111 -4 -42 -10 -79 -12 -82 -10 -9 -103 18 -175 52 -182 86 -159 194 53
248 92 23 109 24 264 21 110 -2 166 -8 229 -24z m-143 -163 c7 -8 -17 -433
-25 -447 -6 -9 -151 -32 -159 -26 -2 2 6 106 17 231 22 262 21 258 108 251 29
-2 56 -6 59 -9z m719 -92 c217 -35 508 -81 690 -111 83 -13 206 -33 275 -44
69 -11 197 -32 285 -46 88 -14 214 -34 280 -45 66 -11 190 -31 275 -44 244
-40 526 -85 630 -102 158 -25 280 -46 280 -49 0 -9 -172 -125 -186 -125 -9 0
-209 36 -443 81 -234 44 -460 86 -501 94 -41 8 -208 39 -370 70 -413 79 -544
104 -630 120 -458 85 -874 166 -878 169 -2 3 8 20 23 39 26 32 30 34 69 26 22
-4 113 -19 201 -33z m-1221 -9 c17 -13 39 -26 49 -30 24 -9 14 -23 -20 -31
-36 -9 -233 -66 -608 -178 -165 -49 -354 -105 -420 -124 -66 -19 -163 -48
-215 -64 -123 -38 -593 -176 -688 -202 l-72 -20 -445 93 c-245 51 -445 95
-445 98 0 4 141 30 313 59 171 29 456 77 632 106 176 30 577 98 890 151 314
53 622 105 685 116 63 11 147 25 185 31 39 5 72 12 74 14 12 12 58 1 85 -19z
m671 -462 c189 -27 309 -68 343 -116 7 -10 25 -19 39 -19 53 0 241 -32 333
-56 106 -28 226 -82 254 -113 l19 -21 -114 0 c-199 0 -507 -35 -684 -78 -204
-50 -995 -307 -1251 -407 -374 -147 -614 -252 -788 -347 -61 -33 -118 -67
-127 -76 -32 -33 -103 -261 -119 -380 -4 -35 -10 -65 -12 -68 -3 -2 -166 -17
-364 -34 -197 -17 -429 -37 -514 -45 -85 -8 -288 -26 -450 -40 -162 -14 -394
-34 -514 -45 -121 -11 -221 -18 -224 -15 -3 2 6 46 19 97 l24 92 185 43 c211
49 510 120 715 168 77 19 327 77 555 130 586 137 632 149 641 165 4 8 18 51
32 96 33 104 81 206 127 269 140 190 561 485 880 618 153 64 273 104 405 136
250 61 404 73 590 46z m1007 -404 c45 -25 278 -268 349 -363 66 -90 142 -222
153 -270 l6 -26 -88 -7 c-208 -16 -469 -74 -729 -161 -89 -30 -166 -54 -170
-54 -16 0 -104 256 -134 388 -40 177 -27 418 26 462 20 16 127 30 305 39 215
11 251 10 282 -8z m180 -15 c88 -20 215 -122 346 -276 65 -77 191 -284 222
-364 8 -22 7 -22 -38 -15 -26 4 -72 8 -102 8 l-55 1 -23 65 c-46 133 -152 282
-332 468 -133 138 -134 141 -18 113z m-828 -38 c-49 -154 -46 -298 12 -523 22
-88 96 -292 123 -344 10 -17 22 -14 194 44 354 119 611 169 872 169 161 0 220
-8 347 -46 68 -20 172 -76 192 -104 6 -8 41 -25 77 -38 128 -45 200 -115 218
-211 5 -28 8 -51 7 -53 -2 -1 -15 2 -30 8 -44 16 -71 12 -97 -16 -25 -27 -268
-255 -330 -310 -58 -51 -192 -141 -231 -155 -21 -7 -38 -16 -38 -20 0 -8 133
-53 188 -64 18 -4 32 -8 30 -10 -2 -2 -103 -26 -225 -53 l-221 -49 -69 34
c-125 62 -266 67 -393 12 -54 -23 -70 -49 -70 -113 l0 -43 -97 -18 c-54 -9
-132 -24 -173 -31 -107 -20 -542 -82 -625 -89 -38 -4 -79 -9 -90 -11 -12 -3
-8 2 10 12 46 26 124 44 193 44 74 0 107 16 142 67 26 38 41 145 22 157 -5 3
-44 11 -86 18 -89 14 -177 3 -301 -38 -167 -55 -227 -97 -325 -232 l-45 -62
-155 -1 c-496 -4 -767 21 -1008 93 -68 20 -76 25 -121 82 -163 206 -291 498
-291 665 0 73 43 260 81 354 l24 59 120 64 c187 99 449 214 765 336 368 141
1184 400 1360 431 50 9 52 8 44 -15z m1138 -69 c102 -50 137 -71 213 -127 140
-104 256 -251 327 -415 50 -116 50 -126 -4 -95 -43 25 -99 46 -173 67 -37 10
-43 17 -88 105 -74 145 -182 301 -286 408 -51 54 -88 98 -82 98 6 0 48 -18 93
-41z m-5854 -156 c12 -54 46 -208 77 -343 30 -135 67 -295 80 -357 l26 -111
-131 -519 c-72 -285 -135 -534 -140 -553 -7 -26 -18 -38 -40 -47 -18 -7 -30
-7 -30 -2 0 6 25 135 56 287 130 641 121 575 107 730 -16 186 -71 800 -79 888
-6 65 -5 73 17 97 12 15 26 27 29 27 4 0 16 -44 28 -97z m712 -188 c67 -35
138 -126 190 -245 34 -77 88 -276 78 -286 -13 -12 -718 -178 -725 -170 -3 2 0
20 5 39 5 19 6 54 2 77 -17 92 59 335 143 460 89 133 202 179 307 125z m6028
-736 c26 -10 26 -9 7 -84 -26 -97 -90 -188 -206 -290 -46 -41 -122 -93 -153
-105 -28 -10 -156 2 -213 21 l-32 10 101 77 c93 69 311 265 397 356 36 37 39
37 99 15z m-4488 -211 c6 -24 18 -65 26 -91 10 -31 13 -52 6 -60 -5 -7 -47
-106 -93 -222 -45 -115 -87 -213 -92 -216 -10 -7 -127 -22 -132 -17 -2 2 21
91 51 198 29 107 67 247 84 310 17 63 33 121 35 128 3 7 23 12 54 12 l50 0 11
-42z m-1260 -78 c0 -6 -9 -52 -20 -103 -74 -342 -240 -539 -407 -483 -97 32
-198 165 -252 329 -34 106 -55 196 -48 203 6 6 598 61 675 63 29 0 52 -3 52
-9z m4693 -348 l47 -21 0 -125 c0 -103 -3 -132 -21 -173 -37 -86 -86 -123
-166 -123 -70 0 -112 25 -151 90 l-32 55 2 150 3 149 45 13 c69 19 215 11 273
-15z m-1091 -46 c-6 -58 -29 -73 -117 -79 -77 -6 -177 -33 -240 -64 -39 -20
-132 -89 -170 -128 -50 -50 -131 -161 -166 -230 -32 -61 -36 -65 -82 -75 -59
-12 -57 -12 -57 0 0 26 188 310 279 424 48 58 67 74 131 103 72 34 168 67 220
76 14 3 66 4 115 3 l90 -1 -3 -29z m678 -186 c0 -92 59 -211 129 -257 73 -49
179 -55 258 -14 l40 20 60 -62 c128 -134 238 -299 288 -431 14 -38 24 -70 22
-73 -5 -5 -14 -6 -187 -33 -74 -11 -162 -25 -195 -30 -33 -5 -103 -16 -155
-24 -52 -9 -156 -25 -230 -36 -190 -30 -322 -50 -331 -50 -4 0 -13 17 -19 38
-21 62 -110 229 -158 295 -125 170 -353 373 -554 492 -37 22 -68 43 -68 48 0
4 14 7 31 7 94 0 765 96 974 140 22 4 52 8 68 9 25 1 27 -2 27 -39z m559 -108
c30 -35 146 -165 156 -176 21 -21 132 -172 175 -236 41 -60 140 -245 140 -260
0 -7 -160 -34 -165 -28 -1 2 -10 28 -20 58 -45 139 -161 320 -300 468 -27 30
-53 60 -58 67 -6 12 40 125 51 125 3 0 12 -8 21 -18z m-2819 1 c0 -5 -33 -18
-73 -31 -39 -13 -109 -42 -155 -65 l-82 -42 -100 -175 c-55 -96 -103 -181
-107 -188 -7 -11 -163 -45 -171 -37 -3 3 156 264 168 275 3 3 25 36 50 73 38
57 56 74 109 102 76 40 183 82 226 88 55 7 135 7 135 0z m820 -35 c0 -4 -20
-38 -44 -75 -24 -37 -58 -94 -75 -125 -18 -31 -37 -61 -44 -66 -7 -6 -55 -17
-107 -26 -52 -9 -144 -25 -205 -36 -60 -11 -204 -35 -320 -55 -115 -20 -259
-45 -319 -55 -156 -28 -151 -29 -118 28 16 26 55 93 87 150 32 57 68 110 80
118 88 57 323 134 415 134 25 0 50 4 57 8 14 9 593 9 593 0z m329 -50 c312
-177 577 -444 696 -700 42 -92 45 -118 11 -118 -13 0 -44 -3 -69 -6 l-45 -6
-7 40 c-8 48 -53 145 -97 210 -65 96 -241 257 -362 333 -22 13 -44 27 -49 30
-4 3 3 23 18 45 24 36 25 39 9 51 -39 29 -131 56 -190 57 -58 1 -61 2 -52 21
14 27 59 75 71 75 5 0 35 -14 66 -32z m-11 -140 c17 -5 32 -13 32 -18 0 -12
-63 -64 -144 -119 l-74 -50 -249 -45 c-136 -25 -367 -66 -513 -91 -146 -25
-285 -50 -310 -55 -25 -5 -151 -28 -280 -51 -129 -22 -295 -51 -369 -65 -170
-30 -181 -31 -181 -1 0 33 25 64 63 76 27 8 349 66 512 91 28 5 169 29 315 55
146 26 290 50 320 55 30 4 123 20 205 35 83 15 212 37 289 50 147 24 150 26
237 117 34 37 68 40 147 16z m2689 -322 c1 -1 -42 -46 -96 -100 l-98 -98 -219
-33 c-120 -19 -248 -39 -284 -44 -323 -50 -465 -72 -949 -146 -305 -47 -562
-85 -572 -85 -19 0 -27 34 -11 44 5 3 84 16 178 31 93 14 196 30 229 35 103
17 234 37 775 120 289 45 592 92 674 105 l148 24 80 80 c74 74 83 80 112 74
17 -3 32 -7 33 -7z"/>
<path d="M5090 4121 c-8 -4 -79 -27 -157 -51 -78 -24 -144 -49 -147 -56 -3 -8
-13 -64 -22 -126 -21 -140 -14 -369 14 -503 31 -145 85 -301 148 -427 23 -47
32 -57 48 -53 134 30 350 75 384 81 23 4 45 10 47 14 3 4 -6 32 -19 62 -57
128 -130 408 -210 802 -29 143 -56 261 -62 263 -5 1 -16 -1 -24 -6z m5 -71
c37 -228 154 -722 215 -900 21 -63 36 -118 32 -121 -7 -5 -320 -70 -352 -73
-36 -3 -134 263 -176 479 -22 113 -25 356 -5 473 l13 82 122 39 c129 42 148
45 151 21z"/>
<path d="M4488 3939 l-166 -61 -20 -46 c-41 -95 -54 -165 -59 -317 -5 -155 7
-266 44 -398 12 -44 20 -56 32 -53 9 3 90 24 181 47 91 23 169 46 174 50 4 4
-1 60 -13 126 -55 306 -50 545 14 696 11 25 -2 22 -187 -44z m117 -26 c-32
-85 -30 -366 5 -583 12 -73 18 -135 13 -139 -4 -4 -70 -23 -146 -42 -113 -28
-139 -32 -146 -20 -46 74 -63 428 -27 571 34 136 39 141 168 188 130 47 143
49 133 25z"/>
<path d="M3975 3735 c-99 -35 -224 -79 -279 -97 -112 -38 -113 -39 -142 -163
-25 -104 -25 -341 0 -465 25 -130 35 -160 52 -160 16 0 525 158 532 165 3 2
-3 44 -13 92 -38 200 -26 500 26 637 10 28 19 52 19 54 0 5 -22 -2 -195 -63z
m122 -22 c-28 -100 -32 -144 -32 -328 0 -130 5 -224 14 -268 7 -37 12 -70 10
-72 -5 -4 -416 -136 -445 -142 -19 -4 -23 2 -33 44 -46 202 -46 421 1 584 10
34 14 37 117 73 58 20 162 56 231 80 146 52 143 51 137 29z"/>
<path d="M6286 3250 c-120 -11 -326 -51 -421 -82 -68 -23 -70 -24 -88 -72 -23
-63 -32 -155 -22 -240 6 -61 10 -69 38 -87 80 -49 236 -89 352 -92 117 -2 310
79 439 185 111 91 212 243 218 328 l3 35 -75 12 c-106 17 -327 23 -444 13z
m447 -56 c15 -3 27 -11 27 -16 0 -21 -63 -133 -101 -182 -88 -110 -222 -198
-383 -250 -91 -30 -142 -32 -256 -10 -103 19 -181 48 -206 75 -26 29 -27 193
-1 260 l18 46 107 26 c94 23 216 47 307 61 44 6 455 -2 488 -10z"/>
</g>
</svg>
