<?xml version="1.0" standalone="no"?>
<!DOCTYPE svg PUBLIC "-//W3C//DTD SVG 20010904//EN"
 "http://www.w3.org/TR/2001/REC-SVG-20010904/DTD/svg10.dtd">
<svg version="1.0" xmlns="http://www.w3.org/2000/svg"
 width="1126.000000pt" height="670.000000pt" viewBox="0 0 1126.000000 670.000000"
 preserveAspectRatio="xMidYMid meet">
<metadata>
Created by potrace 1.16, written by Peter Selinger 2001-2019
</metadata>
<g transform="translate(0.000000,670.000000) scale(0.100000,-0.100000)"
fill="#000000" stroke="none">
<path d="M6157 6395 c-1 -1 -211 -5 -467 -9 -256 -4 -478 -9 -495 -11 -16 -1
-131 -6 -255 -9 -124 -4 -259 -9 -300 -11 -41 -2 -142 -7 -225 -10 -211 -8
-1027 -50 -1180 -60 -38 -3 -162 -10 -275 -15 -449 -22 -696 -50 -900 -101
-426 -108 -721 -304 -933 -622 -116 -174 -239 -492 -267 -688 -35 -254 -37
-698 -6 -1469 4 -85 9 -176 12 -201 9 -72 -11 -103 -148 -232 -146 -137 -195
-195 -260 -309 -95 -164 -140 -363 -140 -618 0 -233 17 -413 54 -564 19 -80
20 -97 9 -165 -33 -219 12 -372 129 -442 115 -69 445 -131 851 -160 l177 -13
6 -85 c18 -221 122 -377 295 -442 117 -44 180 -53 351 -54 146 0 174 3 240 23
200 63 298 192 356 469 l17 83 81 0 c45 0 113 3 151 5 39 3 144 10 235 15 607
38 1070 109 1230 190 60 30 83 35 223 46 81 6 87 5 88 -12 0 -11 2 -39 5 -64
37 -310 204 -569 444 -688 135 -67 234 -88 369 -79 329 24 575 271 641 644 6
35 11 117 11 183 l0 120 37 0 c34 0 227 13 382 25 36 2 103 7 150 10 80 5 120
8 290 20 39 3 102 7 140 10 39 3 100 7 138 10 295 21 370 26 394 30 31 4 32 0
42 -123 18 -204 130 -409 271 -494 264 -160 703 -106 867 106 l41 54 71 -72
c84 -85 142 -126 239 -171 103 -46 167 -60 292 -60 185 0 329 60 459 191 111
111 179 246 216 425 19 88 21 125 17 239 -3 74 -9 145 -12 156 -6 20 -1 23 67
37 46 11 86 14 108 9 49 -11 172 4 255 30 84 27 149 81 167 140 25 86 -30 268
-93 305 -26 15 -30 23 -26 48 51 345 67 462 72 520 3 39 8 88 10 110 12 108
23 259 35 480 9 158 6 1272 -3 1315 -3 14 -8 70 -12 125 -29 461 -107 857
-209 1064 -26 54 -43 73 -101 116 -179 131 -413 245 -685 333 -198 64 -406
119 -550 145 -14 3 -36 8 -50 11 -14 3 -38 8 -55 11 -16 3 -79 14 -140 25 -60
10 -130 22 -155 25 -25 4 -85 13 -135 20 -94 15 -417 50 -545 60 -41 3 -86 8
-100 10 -14 2 -77 7 -140 10 -63 3 -126 8 -140 10 -14 2 -95 7 -180 10 -85 3
-168 8 -185 10 -81 10 -1356 28 -1368 20z m1153 -79 c25 -2 124 -7 220 -11
254 -8 719 -40 880 -60 19 -2 82 -9 140 -15 513 -54 1070 -169 1425 -296 211
-76 420 -183 562 -288 85 -62 119 -130 178 -346 45 -168 93 -497 110 -750 4
-52 9 -106 11 -120 23 -148 23 -1331 0 -1480 -3 -14 -7 -74 -11 -135 -8 -144
-42 -476 -60 -590 -7 -49 -16 -108 -19 -130 -4 -22 -9 -56 -13 -75 -4 -19 -7
-39 -8 -45 0 -6 -40 -11 -95 -12 -129 -4 -138 -7 -144 -46 -8 -45 -14 -110
-21 -197 -10 -135 -16 -194 -20 -198 -2 -2 -35 -12 -75 -22 l-71 -18 -10 26
c-6 15 -19 50 -30 77 -10 28 -38 83 -61 123 -146 247 -366 373 -628 359 -352
-18 -639 -303 -700 -694 -7 -40 -15 -73 -20 -73 -29 0 -672 -53 -785 -64 -174
-18 -218 -22 -480 -41 -263 -19 -336 -24 -405 -30 -69 -6 -163 -12 -365 -25
-88 -5 -187 -12 -220 -15 -33 -2 -112 -7 -175 -11 -63 -3 -123 -8 -132 -10
-13 -4 -20 5 -28 38 -53 204 -127 336 -257 458 -358 335 -924 180 -1123 -307
-30 -75 -60 -195 -60 -242 0 -16 -4 -32 -9 -35 -5 -4 -50 -9 -100 -13 l-90 -6
24 59 c28 67 31 134 11 209 -17 67 -57 144 -95 184 l-31 33 11 71 c7 40 12
202 13 362 1 327 4 309 -92 620 -27 88 -53 174 -56 191 l-7 30 63 -7 c105 -13
282 -18 305 -9 14 6 26 23 32 47 9 33 31 238 31 286 0 14 9 17 49 17 27 0 53
6 59 13 18 21 39 1256 22 1287 -7 14 -21 20 -45 20 l-34 0 -3 240 c-4 293 5
276 -136 273 -53 -1 -125 -6 -159 -11 l-63 -9 0 71 c-1 141 -12 263 -31 344
-39 172 -133 370 -241 509 -135 175 -353 311 -602 376 -47 12 -86 25 -86 29 0
5 39 8 88 9 48 0 94 2 102 4 9 1 94 6 190 10 96 3 186 8 200 10 14 2 113 6
220 10 107 4 209 8 225 10 17 2 136 6 265 10 129 4 251 9 270 10 19 2 208 6
420 10 212 4 387 9 389 11 6 5 1325 -5 1381 -10z m-4005 -127 c160 -14 282
-38 395 -75 296 -99 488 -265 625 -542 62 -126 105 -269 115 -382 8 -96 5
-619 -5 -805 -15 -283 -26 -476 -30 -530 -3 -33 -10 -121 -15 -195 -16 -200
-49 -441 -71 -518 -25 -88 -25 -227 0 -347 11 -50 47 -180 80 -289 86 -278 91
-318 85 -631 -6 -363 -17 -416 -99 -501 -37 -39 -46 -43 -130 -57 -215 -39
-686 -72 -1355 -96 -323 -12 -1424 -12 -1666 -1 -379 19 -624 49 -695 86 -37
19 -63 58 -87 130 -58 169 -83 627 -47 839 42 248 127 403 314 580 127 119
181 177 199 210 14 25 16 56 14 178 -2 81 -5 156 -7 167 -16 81 -27 1261 -12
1276 3 3 20 -10 37 -30 40 -45 133 -90 230 -112 100 -22 526 -27 785 -9 105 7
251 16 325 19 413 19 597 31 829 57 659 72 1042 204 1135 391 31 62 33 123 11
251 -40 230 -157 423 -335 552 -279 203 -755 286 -1405 245 -341 -22 -569 -75
-813 -192 -197 -94 -336 -193 -481 -344 -103 -106 -108 -107 -44 -6 133 207
344 382 593 492 246 108 538 165 960 186 69 4 127 8 129 10 8 7 343 2 436 -7z
m-189 -209 c524 -42 857 -208 1004 -500 53 -106 90 -253 90 -359 0 -172 -231
-297 -710 -385 -247 -45 -649 -85 -1005 -101 -77 -3 -297 -15 -490 -26 -672
-40 -929 -12 -1013 111 -22 32 -24 42 -19 120 12 213 129 440 332 645 220 223
526 383 859 450 233 47 669 67 952 45z m1688 -1136 c3 -9 6 -108 6 -220 0
-165 -3 -204 -14 -204 -10 0 -14 36 -18 165 -5 133 -9 171 -23 192 l-17 26
-109 -6 -109 -6 0 24 c0 22 4 23 98 30 53 3 102 8 107 10 28 10 73 4 79 -11z
m-103 -181 c0 -38 3 -107 5 -155 l5 -88 -56 0 c-48 0 -57 -3 -64 -22 -4 -13
-11 -299 -15 -637 -6 -566 -5 -615 10 -632 10 -11 28 -19 42 -19 l25 0 -7 -82
c-4 -44 -9 -85 -13 -91 -6 -9 -59 -5 -190 15 l-73 11 0 51 c0 28 9 81 19 118
19 66 54 308 66 458 3 41 8 95 10 120 16 173 34 503 41 743 3 122 7 231 8 242
3 22 39 31 134 34 l52 1 1 -67z m185 -326 c6 -6 5 -714 -1 -792 -2 -22 -4
-118 -4 -213 l-1 -174 -67 7 c-38 3 -92 8 -122 11 l-53 6 6 156 c3 87 6 319 8
517 1 198 4 391 6 428 l4 69 109 -5 c60 -2 112 -7 115 -10z m-130 -1299 c-3
-35 -9 -101 -12 -146 -4 -55 -11 -85 -20 -89 -13 -5 -232 12 -305 23 -30 4
-38 10 -42 32 -3 15 -4 28 -2 30 1 2 55 -5 118 -14 65 -9 132 -13 152 -10 45
9 60 40 70 146 9 85 10 90 32 90 13 0 14 -10 9 -62z m4954 -1039 c92 -14 216
-77 290 -146 137 -126 213 -273 258 -498 3 -16 6 -88 6 -160 -1 -156 -24 -264
-83 -388 -158 -331 -524 -457 -841 -291 -324 170 -486 571 -385 956 50 192
212 396 375 470 138 64 243 79 380 57z m1055 -109 c26 -13 49 -34 63 -58 24
-44 46 -162 37 -203 -15 -69 -148 -130 -288 -133 l-72 -1 3 85 c3 92 20 297
27 318 8 22 180 16 230 -8z m-5087 -186 c264 -54 470 -297 527 -623 64 -366
-87 -732 -357 -866 -128 -62 -248 -78 -385 -49 -283 58 -503 293 -570 608 -21
99 -13 315 15 409 68 225 221 406 411 486 115 49 236 60 359 35z m-1110 -394
c36 -73 38 -184 5 -245 -45 -84 -97 -119 -224 -155 -586 -162 -2319 -223
-3264 -115 -278 32 -499 89 -567 145 -29 24 -42 46 -58 97 -19 63 -26 173 -14
220 6 22 7 23 33 4 79 -55 301 -89 746 -112 357 -18 1388 -15 1825 6 52 3 156
7 230 10 428 17 885 58 1034 92 55 12 78 23 113 56 24 22 51 53 61 69 l17 28
18 -22 c10 -13 30 -48 45 -78z m4296 -154 c10 -109 41 -218 91 -324 53 -110
52 -114 -39 -200 -102 -97 -237 -142 -428 -142 -131 0 -192 12 -286 56 -172
82 -277 265 -298 520 l-7 81 49 6 c27 4 95 9 151 13 l102 7 6 -39 c29 -180
111 -257 275 -258 106 -1 164 18 221 73 59 57 85 133 75 221 l-7 56 44 3 44 2
7 -75z m-126 -6 c4 -83 -17 -139 -69 -184 -72 -61 -211 -76 -306 -32 -42 20
-58 35 -82 77 -26 46 -52 152 -40 164 2 2 45 6 94 10 50 3 101 8 115 10 14 2
63 7 110 11 47 3 86 7 87 8 1 1 21 2 45 1 l43 0 3 -65z m-6836 -528 c20 -121
103 -173 278 -176 147 -2 222 44 260 160 l22 64 116 0 c134 0 162 -5 162 -30
0 -36 -42 -178 -70 -238 -58 -123 -128 -185 -255 -225 -98 -31 -351 -30 -467
1 -195 53 -298 151 -333 319 -8 37 -15 92 -15 121 l0 53 147 -3 147 -3 8 -43z
m518 39 c0 -25 -34 -99 -57 -123 -44 -47 -100 -61 -207 -56 -118 6 -170 31
-203 98 -13 24 -23 55 -23 67 l0 23 245 0 c135 0 245 -4 245 -9z"/>
<path d="M8346 5359 c-139 -8 -242 -23 -281 -41 -34 -15 -43 -50 -40 -153 2
-50 6 -220 9 -380 4 -159 9 -324 11 -365 3 -41 7 -154 10 -250 3 -96 8 -199
11 -228 11 -91 -17 -86 547 -90 269 -2 504 -1 523 3 58 10 59 20 58 335 -2
412 -35 1074 -55 1112 -13 25 -40 34 -135 48 -101 14 -491 20 -658 9z m614
-69 c57 -5 110 -16 116 -22 18 -19 44 -525 51 -974 l6 -371 -29 -7 c-38 -8
-934 -1 -956 8 -17 8 -19 24 -32 316 -10 199 -21 646 -21 835 l0 189 45 9
c146 26 624 36 820 17z"/>
<path d="M6970 5349 c-264 -11 -360 -31 -375 -80 -7 -20 -4 -163 10 -654 3
-93 7 -219 10 -280 20 -485 16 -443 45 -467 14 -11 50 -18 116 -23 129 -10
879 -11 927 -1 28 5 41 14 49 34 17 42 13 529 -7 907 -29 540 -25 512 -69 530
-76 32 -381 46 -706 34z m628 -77 c23 -5 45 -11 47 -14 9 -8 14 -75 25 -293 6
-121 12 -245 15 -275 2 -30 8 -215 11 -410 7 -324 6 -356 -9 -369 -14 -11
-100 -13 -497 -9 -263 2 -482 7 -486 11 -6 6 -14 146 -28 497 -3 80 -9 301
-13 492 l-6 346 39 11 c78 21 265 29 559 26 165 -2 319 -8 343 -13z"/>
<path d="M9595 5349 c-38 -5 -90 -19 -115 -32 l-45 -22 0 -250 c0 -393 26
-1099 41 -1140 14 -36 66 -40 576 -40 429 0 499 2 512 15 26 27 38 93 43 246
10 283 -40 601 -142 892 -55 157 -79 206 -117 236 -51 38 -167 76 -287 92
-116 15 -356 17 -466 3z m485 -69 c105 -17 201 -51 235 -85 69 -70 174 -430
216 -745 15 -109 16 -415 2 -475 -9 -39 -10 -40 -63 -46 -115 -14 -919 -4
-933 11 -8 9 -26 472 -43 1087 l-6 232 42 11 c108 29 394 34 550 10z"/>
<path d="M5405 5319 c-118 -12 -191 -34 -206 -61 -11 -21 -9 -205 6 -640 3
-76 7 -200 10 -275 17 -502 17 -497 64 -511 14 -4 247 -7 516 -7 529 0 528 0
542 53 10 35 10 554 0 847 -13 374 -25 536 -43 556 -30 34 -117 42 -464 45
-184 1 -375 -2 -425 -7z m789 -69 c27 -5 51 -11 52 -13 2 -2 6 -73 10 -158 3
-85 7 -160 9 -166 7 -21 20 -625 19 -821 -1 -112 -6 -188 -12 -194 -11 -11
-955 -18 -965 -8 -11 11 -16 84 -22 310 -4 129 -8 246 -10 259 -2 13 -7 191
-11 396 -6 338 -6 372 9 378 18 7 152 25 232 31 96 7 640 -3 689 -14z"/>
<path d="M10129 3596 c-2 -2 -218 -7 -479 -10 -261 -4 -511 -9 -555 -11 -44
-2 -262 -6 -485 -10 -223 -3 -466 -7 -540 -10 -74 -3 -295 -7 -490 -10 -195
-3 -438 -7 -540 -10 -102 -3 -320 -7 -485 -10 -874 -15 -1299 -26 -1307 -34
-14 -12 -11 -130 2 -146 11 -13 34 -15 144 -11 72 3 293 8 491 11 198 3 457 7
575 10 207 5 447 9 1085 20 165 3 390 7 500 10 110 3 373 7 585 10 212 3 423
8 470 10 47 2 310 7 585 11 275 4 507 8 515 10 8 1 95 3 192 3 212 1 210 0
206 100 l-3 66 -231 2 c-128 1 -233 1 -235 -1z m421 -75 c0 -16 -3 -32 -7 -34
-5 -3 -177 -8 -383 -11 -206 -3 -454 -8 -550 -11 -96 -3 -337 -7 -535 -10
-198 -3 -436 -7 -530 -10 -93 -3 -334 -7 -535 -10 -201 -3 -432 -7 -515 -10
-82 -3 -330 -7 -550 -10 -220 -3 -458 -8 -530 -10 -71 -2 -326 -7 -565 -10
-239 -3 -463 -8 -497 -11 l-63 -4 0 35 0 35 98 0 c53 1 124 3 157 5 33 2 247
6 475 9 228 4 478 8 555 11 77 3 293 7 480 10 187 3 437 7 555 10 320 7 685
14 1050 20 179 3 390 7 470 10 80 2 341 7 580 11 239 4 436 7 438 9 1 1 92 3
202 4 l200 2 0 -30z"/>
<path d="M3430 4520 c-819 -35 -1877 -114 -2240 -166 -134 -19 -186 -33 -201
-50 -24 -29 8 -592 62 -1094 25 -232 33 -260 74 -272 26 -8 1103 -2 1175 7 14
1 158 5 320 9 162 4 322 9 355 11 33 2 139 7 235 10 96 3 202 8 235 10 33 2
114 7 180 10 160 8 321 24 367 36 47 12 54 25 67 124 27 204 104 1206 99 1289
-5 77 -14 79 -298 82 -129 1 -323 -2 -430 -6z m582 -66 l80 -7 -6 -101 c-4
-56 -9 -123 -11 -151 -2 -27 -7 -88 -10 -135 -17 -258 -64 -812 -75 -889 -5
-35 -13 -67 -17 -72 -16 -15 -412 -41 -923 -59 -157 -5 -341 -12 -409 -15
l-124 -6 6 448 c4 246 7 557 7 689 l0 241 78 7 c138 11 612 36 827 42 116 4
211 8 213 9 7 6 295 5 364 -1z m-1557 -746 c-4 -376 -8 -684 -10 -686 -5 -5
-703 -17 -1005 -17 l-295 0 -12 95 c-30 243 -72 751 -80 981 l-6 176 24 6 c76
19 610 75 969 102 47 4 128 10 180 14 52 5 128 9 169 10 l73 1 -7 -682z"/>
<path d="M3635 2431 c-190 -47 -303 -360 -224 -625 30 -103 84 -182 144 -214
139 -72 272 12 347 218 29 80 36 272 14 360 -36 139 -103 229 -189 255 -28 8
-53 15 -56 14 -3 -1 -19 -4 -36 -8z m123 -80 c109 -80 154 -329 93 -521 -69
-221 -236 -280 -341 -122 -50 75 -65 140 -65 277 1 133 14 191 64 278 49 86
91 116 162 117 35 0 55 -7 87 -29z"/>
<path d="M3622 2326 c-114 -41 -190 -227 -165 -401 14 -99 61 -196 111 -230
66 -45 151 -30 206 36 60 70 89 167 89 289 0 206 -116 352 -241 306z m113 -73
c44 -44 67 -108 72 -204 14 -232 -108 -397 -221 -298 -51 44 -77 122 -78 229
0 97 13 156 48 217 50 86 125 110 179 56z"/>
<path d="M585 2404 c-47 -24 -75 -55 -106 -116 -113 -222 -56 -591 103 -674
15 -8 45 -14 68 -14 99 0 175 91 215 258 24 97 16 269 -15 360 -28 79 -75 149
-119 179 -40 27 -102 30 -146 7z m146 -73 c33 -36 80 -132 78 -164 0 -7 -9 11
-20 40 -25 65 -86 123 -130 123 -156 0 -232 -312 -128 -527 33 -69 76 -103
128 -103 61 0 106 50 143 158 15 47 17 50 12 18 -18 -119 -92 -226 -155 -226
-73 0 -133 70 -170 200 -20 68 -17 263 4 333 35 116 98 187 166 187 27 0 42
-9 72 -39z m-33 -74 c78 -82 96 -308 34 -432 -40 -81 -83 -95 -130 -41 -47 53
-57 96 -57 236 0 107 3 132 21 171 41 88 89 112 132 66z"/>
<path d="M2766 2413 c-1 -1 -326 -3 -721 -4 -396 -2 -760 -5 -810 -8 l-90 -6
-3 -70 c-2 -53 1 -72 12 -80 22 -16 1936 -8 1953 9 14 13 20 136 8 156 -5 8
-54 11 -177 8 -93 -2 -171 -4 -172 -5z m302 -86 l3 -37 -931 -2 c-513 -2 -935
-1 -939 2 -4 3 -7 16 -6 30 l0 25 145 5 c80 3 482 6 895 8 412 2 751 4 752 5
1 1 19 2 40 2 37 -1 38 -2 41 -38z"/>
<path d="M1820 2190 l-675 -5 -3 -71 c-2 -52 1 -74 11 -83 11 -8 254 -11 981
-9 847 3 968 5 976 18 16 25 12 136 -5 150 -10 9 -90 11 -312 8 -164 -1 -602
-5 -973 -8z m1245 -75 l0 -30 -75 -5 c-41 -3 -463 -7 -937 -9 l-863 -3 0 36 0
36 823 2 c452 2 874 3 937 3 l115 0 0 -30z"/>
<path d="M1144 1957 c-3 -8 -4 -45 -2 -83 l3 -69 980 0 980 0 8 50 c5 27 6 65
2 82 l-6 33 -980 0 c-813 0 -981 -2 -985 -13z m1916 -72 l0 -35 -935 0 -935 0
0 28 c0 16 3 32 7 35 3 4 424 7 935 7 l928 0 0 -35z"/>
<path d="M1153 1743 c-14 -10 -20 -140 -7 -152 5 -5 442 -12 971 -15 870 -6
963 -5 977 10 18 17 22 119 6 144 -8 13 -129 15 -972 18 -530 2 -968 -1 -975
-5z m1898 -64 c3 -6 4 -22 1 -35 l-5 -26 -191 5 c-105 3 -523 6 -928 6 l-738
1 0 36 0 37 927 -7 c597 -5 930 -11 934 -17z"/>
<path d="M3429 5498 c-72 -27 -113 -122 -81 -188 10 -22 30 -38 59 -51 34 -14
43 -23 43 -42 0 -14 -7 -30 -15 -37 -13 -11 -21 -9 -45 8 -37 28 -57 28 -65 1
-11 -34 3 -66 39 -88 42 -26 66 -26 100 0 85 67 78 206 -13 242 -22 9 -41 23
-41 31 0 20 26 38 52 36 39 -4 47 -1 58 21 24 43 -36 87 -91 67z m71 -33 c19
-23 -2 -40 -43 -37 -39 4 -70 -25 -65 -60 2 -16 16 -29 46 -43 54 -26 62 -38
62 -98 0 -76 -35 -127 -88 -127 -30 0 -72 38 -72 66 0 29 13 31 40 4 38 -38
90 -12 90 45 0 35 -11 48 -50 60 -45 13 -60 35 -60 84 0 46 17 83 48 109 22
17 77 15 92 -3z"/>
<path d="M3271 5481 c-6 -10 -15 -69 -21 -132 -14 -130 -28 -182 -52 -187 -26
-5 -31 34 -21 170 8 110 7 124 -9 142 l-18 21 -19 -22 c-16 -19 -20 -46 -26
-155 -8 -142 1 -202 32 -231 57 -50 132 -3 158 98 25 98 40 282 25 300 -17 20
-37 19 -49 -4z m35 -80 c-19 -193 -42 -283 -77 -301 -29 -16 -65 -11 -85 11
-17 19 -19 36 -18 155 2 146 9 204 26 204 7 0 8 -46 3 -149 -7 -143 -6 -150
14 -170 17 -17 25 -19 41 -11 11 6 24 18 29 28 9 17 25 116 37 232 7 73 11 83
26 74 6 -4 8 -31 4 -73z"/>
<path d="M2955 5471 c-16 -10 -39 -28 -49 -40 -17 -19 -18 -26 -8 -54 8 -23 9
-68 2 -156 -5 -79 -5 -131 1 -143 12 -22 47 -23 93 -4 57 24 96 140 66 195 -6
13 -5 31 7 59 20 51 11 101 -24 136 -31 31 -48 32 -88 7z m75 -21 c29 -29 34
-65 17 -117 -11 -34 -13 -52 -5 -66 15 -29 4 -114 -19 -145 -22 -29 -72 -48
-98 -38 -13 5 -15 16 -11 63 16 168 17 226 6 233 -19 12 -1 50 33 71 40 24 52
24 77 -1z"/>
<path d="M2436 5439 c-72 -56 -110 -240 -70 -339 26 -65 79 -79 132 -35 73 61
111 260 66 347 -26 51 -82 63 -128 27z m100 -20 c14 -16 20 -40 23 -99 6 -136
-50 -260 -117 -260 -47 0 -65 29 -70 118 -9 172 92 321 164 241z"/>
<path d="M2442 5363 c-57 -80 -55 -263 2 -263 19 0 53 40 71 85 21 49 24 167
6 189 -21 25 -57 19 -79 -11z m70 -28 c13 -50 -14 -165 -47 -199 -58 -57 -60
152 -3 221 17 21 41 11 50 -22z"/>
<path d="M2636 5438 c-16 -25 -42 -334 -31 -367 8 -26 21 -29 84 -21 68 9 100
40 77 74 -10 15 -24 21 -52 22 -22 0 -39 5 -39 10 0 5 4 69 9 142 6 100 5 136
-4 147 -17 21 -27 19 -44 -7z m30 -102 c-4 -50 -9 -120 -12 -155 l-7 -63 53 3
c53 4 67 -4 52 -29 -10 -15 -113 -34 -125 -22 -8 7 8 299 19 348 2 13 9 20 15
16 8 -4 9 -36 5 -98z"/>
<path d="M2180 5401 c-45 -47 -70 -128 -70 -224 0 -80 17 -127 53 -146 75 -40
157 63 174 219 8 76 -2 123 -33 160 -37 44 -77 41 -124 -9z m109 -2 c43 -46
37 -176 -13 -284 -29 -64 -61 -85 -101 -67 -37 17 -47 55 -43 152 9 167 90
270 157 199z"/>
<path d="M2207 5352 c-30 -32 -49 -96 -51 -163 -1 -75 13 -102 53 -97 57 7
106 193 67 253 -19 29 -46 32 -69 7z m59 -28 c17 -69 -28 -219 -64 -212 -51
10 -15 238 37 238 14 0 23 -9 27 -26z"/>
<path d="M2029 5403 c-8 -9 -16 -46 -19 -82 -5 -60 -7 -66 -28 -69 -23 -4 -24
-2 -20 68 2 60 0 74 -14 84 -14 8 -21 7 -35 -7 -14 -13 -20 -50 -30 -179 -13
-172 -12 -202 11 -211 30 -12 49 18 54 82 4 57 6 61 29 61 23 0 23 -2 17 -49
-9 -73 22 -116 56 -76 24 29 46 339 28 378 -11 22 -31 22 -49 0z m36 -109 c0
-54 -3 -103 -6 -109 -4 -5 -9 -38 -12 -71 -5 -67 -13 -88 -28 -78 -6 3 -7 33
-3 72 l6 67 -46 -3 -46 -4 0 -48 c0 -57 -16 -108 -30 -94 -11 11 7 307 21 342
17 43 27 12 22 -63 l-6 -75 40 0 c48 0 53 9 53 85 0 61 8 87 23 82 7 -2 11
-41 12 -103z"/>
<path d="M1762 5361 c-51 -50 -77 -122 -76 -216 1 -161 104 -205 165 -71 32
72 -14 106 -53 40 -20 -34 -22 -35 -35 -18 -29 39 -4 166 39 202 13 10 18 9
28 -3 9 -11 17 -12 31 -4 40 21 11 109 -35 109 -14 0 -40 -16 -64 -39z m94 -6
c3 -14 3 -33 -1 -42 -6 -16 -8 -15 -20 7 l-13 25 -36 -38 c-39 -42 -56 -89
-56 -158 0 -84 53 -115 80 -48 14 34 30 38 30 8 0 -31 -37 -86 -61 -92 -82
-22 -103 199 -28 304 43 60 94 77 105 34z"/>
<path d="M3989 5390 c-78 -21 -120 -86 -127 -196 -6 -91 14 -149 64 -194 121
-106 260 86 204 284 -22 79 -79 122 -141 106z m74 -82 c43 -57 32 -197 -19
-258 -72 -85 -156 34 -125 176 24 106 96 147 144 82z"/>
<path d="M1568 5364 c-61 -33 -83 -141 -39 -188 14 -14 30 -26 37 -26 21 0 37
-29 30 -55 -8 -30 -26 -32 -49 -4 -20 22 -35 21 -51 -4 -17 -26 5 -70 45 -91
35 -19 38 -19 63 -3 43 29 60 65 61 128 0 47 -4 62 -23 82 -13 14 -35 28 -48
31 -13 4 -24 12 -24 20 0 21 27 38 48 31 23 -7 52 18 52 45 0 21 -36 50 -60
50 -8 -1 -27 -7 -42 -16z m72 -19 c20 -25 5 -46 -29 -39 -24 5 -32 1 -46 -19
-18 -28 -12 -67 10 -67 26 0 66 -45 71 -80 7 -46 -16 -103 -51 -126 -25 -16
-27 -16 -53 3 -15 11 -28 32 -30 46 -4 32 2 33 28 7 27 -27 46 -25 66 4 24 38
15 68 -30 91 -49 25 -61 56 -45 113 18 66 79 103 109 67z"/>
<path d="M3676 5349 c-125 -34 -167 -277 -65 -378 38 -39 95 -42 141 -9 75 53
105 215 59 311 -12 25 -28 50 -36 57 -22 18 -68 27 -99 19z m67 -64 c26 -26
40 -85 35 -150 -11 -127 -91 -186 -145 -106 -40 60 -27 197 24 253 20 22 66
23 86 3z"/>
<path d="M1335 5101 c-106 -45 -132 -273 -43 -368 32 -34 91 -32 124 4 53 57
74 153 54 247 -18 89 -79 141 -135 117z m71 -83 c31 -60 18 -195 -23 -240 -73
-81 -129 131 -63 240 27 44 63 44 86 0z"/>
<path d="M1078 5061 c-21 -10 -41 -34 -58 -66 -48 -95 -26 -270 39 -305 39
-20 77 -12 110 25 55 63 72 200 34 286 -31 70 -70 88 -125 60z m78 -76 c31
-75 5 -234 -41 -252 -32 -12 -59 31 -63 102 -5 81 3 126 29 159 29 37 57 34
75 -9z"/>
<path d="M9541 1649 c-234 -47 -347 -381 -215 -640 30 -60 101 -131 161 -160
69 -34 169 -33 238 3 57 30 124 97 154 155 47 93 63 226 40 335 -44 205 -211
341 -378 307z m166 -57 c127 -66 212 -263 183 -429 -31 -182 -147 -303 -289
-303 -183 0 -329 228 -292 454 25 147 99 251 208 292 50 19 138 12 190 -14z"/>
<path d="M5441 1342 c-121 -46 -221 -220 -221 -385 0 -172 90 -336 219 -399
64 -32 178 -31 240 1 88 46 165 151 190 262 17 72 13 200 -8 268 -36 115 -113
210 -204 252 -53 23 -155 24 -216 1z m215 -40 c170 -87 244 -363 150 -557 -55
-112 -145 -174 -250 -175 -78 0 -131 26 -195 96 -76 83 -95 143 -96 289 0 109
2 125 27 177 46 98 98 151 183 185 41 17 133 9 181 -15z"/>
</g>
</svg>
