<?xml version="1.0" standalone="no"?>
<!DOCTYPE svg PUBLIC "-//W3C//DTD SVG 20010904//EN"
 "http://www.w3.org/TR/2001/REC-SVG-20010904/DTD/svg10.dtd">
<svg version="1.0" xmlns="http://www.w3.org/2000/svg"
 width="701.000000pt" height="477.000000pt" viewBox="0 0 701.000000 477.000000"
 preserveAspectRatio="xMidYMid meet">
<metadata>
Created by potrace 1.16, written by Peter Selinger 2001-2019
</metadata>
<g transform="translate(0.000000,477.000000) scale(0.100000,-0.100000)"
fill="#000000" stroke="none">
<path d="M3696 4706 c-64 -24 -121 -89 -152 -172 -24 -66 -26 -83 -22 -171 4
-86 13 -125 42 -194 7 -15 -4 -16 -120 -11 -110 4 -131 3 -160 -13 -47 -25
-68 -83 -62 -174 4 -78 27 -121 69 -133 27 -8 610 -34 679 -30 25 1 75 -3 113
-10 64 -11 67 -13 67 -39 0 -25 -8 -30 -127 -79 -71 -28 -168 -68 -217 -88
-118 -48 -166 -83 -166 -122 0 -19 7 -33 19 -40 46 -24 184 -6 377 50 209 61
264 93 284 166 13 45 14 46 26 22 20 -39 58 -184 109 -414 5 -21 1 -22 -108
-29 -200 -12 -434 -51 -577 -97 -287 -91 -505 -225 -644 -395 -28 -34 -62 -65
-76 -70 -41 -13 -426 -9 -520 5 -115 18 -293 54 -475 96 -301 69 -454 85 -551
58 -63 -18 -124 -71 -167 -145 -35 -58 -43 -66 -76 -72 -71 -12 -98 -37 -120
-112 -11 -37 -23 -85 -26 -105 l-7 -37 -32 15 c-17 9 -39 23 -49 32 -9 8 -33
15 -52 14 -138 -5 -239 -178 -239 -407 1 -116 22 -182 74 -229 44 -40 54 -43
159 -50 40 -3 76 -8 79 -11 3 -3 1 -31 -6 -63 -52 -252 -27 -530 68 -768 88
-221 253 -407 437 -494 210 -100 440 -92 642 21 81 46 178 128 237 201 56 68
124 171 124 186 0 5 6 14 13 21 10 8 22 1 52 -29 49 -50 104 -71 291 -110 171
-35 549 -100 586 -100 35 0 41 -11 73 -115 15 -49 32 -95 38 -101 8 -8 83 -14
203 -19 l191 -7 7 58 c3 31 5 58 4 59 -2 2 -61 -1 -132 -6 -71 -6 -132 -6
-136 -2 -4 4 -14 29 -23 56 l-16 47 82 -7 c211 -20 357 -7 450 39 22 11 40 18
41 16 1 -2 15 -25 31 -53 186 -327 435 -495 732 -495 265 1 507 148 687 417
103 156 174 332 218 543 18 88 22 140 23 325 1 197 3 224 20 255 32 57 27 154
-14 275 -91 271 -249 501 -446 650 -87 65 -171 108 -283 144 l-87 29 -9 147
c-8 146 -8 149 20 239 27 86 29 101 29 266 l0 175 125 -32 c119 -31 222 -41
246 -25 6 4 15 17 18 30 12 37 -38 73 -176 127 -179 70 -208 83 -208 94 0 19
81 12 220 -19 74 -16 163 -33 197 -36 61 -7 63 -6 92 25 42 44 50 104 22 165
-23 54 -47 67 -156 86 -102 17 -99 16 -77 47 49 69 66 213 37 309 -73 248
-331 261 -411 22 -23 -71 -21 -187 5 -260 l20 -58 -84 0 c-131 0 -146 -14
-161 -147 l-6 -61 -47 -18 c-62 -23 -122 -58 -151 -89 -13 -14 -29 -25 -35
-25 -7 0 -17 34 -24 85 -18 115 -47 226 -63 237 -35 22 -181 59 -352 88 -217
38 -264 57 -241 101 48 91 54 229 16 341 -56 163 -184 249 -305 204z m130 -55
c51 -23 98 -80 126 -151 17 -42 22 -77 22 -150 1 -83 -3 -102 -26 -150 -47
-96 -42 -94 -165 -86 -59 4 -116 9 -125 12 -10 3 -31 34 -48 68 -70 141 -55
322 33 415 58 61 113 74 183 42z m1564 -236 c33 -17 52 -40 81 -95 20 -38 23
-60 24 -145 0 -89 -3 -105 -26 -150 -44 -82 -56 -89 -145 -81 -87 8 -98 16
-142 106 -24 48 -27 66 -25 141 2 124 41 198 123 233 36 15 66 13 110 -9z
m-1678 -319 c141 -8 262 -17 268 -21 49 -30 52 -201 5 -219 -7 -2 -84 -1 -171
4 -88 5 -239 11 -337 15 -175 7 -178 8 -194 32 -22 33 -21 128 1 171 16 32 17
32 94 32 42 -1 193 -7 334 -14z m518 -86 c186 -32 301 -62 318 -82 26 -33 119
-623 237 -1513 19 -148 42 -317 50 -375 8 -58 21 -159 29 -225 8 -66 29 -228
46 -359 16 -132 29 -240 27 -241 -10 -8 -74 -25 -92 -25 -20 0 -23 7 -29 63
-15 133 -109 806 -152 1087 -86 560 -146 882 -215 1148 -44 171 -70 240 -102
270 -25 23 -173 75 -257 92 l-55 10 0 90 c0 53 4 90 10 90 6 0 89 -14 185 -30z
m1028 -82 c56 -6 110 -17 119 -24 27 -19 23 -88 -5 -116 -21 -22 -29 -23 -146
-20 -104 3 -125 1 -139 -13 -16 -15 -19 -15 -43 4 -15 12 -41 21 -60 21 -34 0
-34 0 -34 49 0 76 16 109 53 114 39 5 118 0 255 -15z m291 -43 c113 -20 119
-22 136 -55 18 -35 19 -60 3 -95 -17 -37 -43 -39 -170 -15 -162 30 -153 26
-122 63 22 26 25 38 21 74 -4 41 -3 43 22 43 14 0 64 -7 110 -15z m-1273 -115
c2 0 4 -27 4 -61 0 -53 -4 -64 -28 -88 -46 -47 -347 -138 -491 -148 -126 -10
-78 19 242 146 170 68 197 89 197 147 l0 34 36 -15 c20 -8 38 -15 40 -15z
m761 -44 l38 -34 -48 -108 c-26 -59 -45 -109 -43 -111 2 -2 25 39 52 92 26 52
49 95 51 95 9 0 34 -75 48 -141 19 -89 19 -283 1 -371 -39 -182 -134 -273
-213 -203 l-28 24 25 48 c14 26 50 93 79 148 71 132 52 111 -38 -43 -40 -67
-76 -120 -81 -117 -5 3 -18 29 -29 59 -84 225 -37 604 84 678 42 25 60 23 102
-16z m113 -9 c0 -20 7 -41 18 -50 9 -8 91 -45 182 -82 91 -36 169 -71 175 -77
24 -26 -144 3 -308 53 -66 20 -69 23 -88 68 -10 25 -23 54 -29 63 -15 26 -12
46 8 51 37 10 42 7 42 -26z m-300 -39 c-30 -51 -58 -174 -66 -285 -11 -160 26
-338 86 -421 30 -41 30 -42 8 -41 -26 0 -95 27 -126 49 -20 13 -27 44 -63 285
-45 301 -47 283 29 359 38 39 140 101 150 91 1 -1 -6 -18 -18 -37z m-347 -530
c3 -18 26 -147 51 -287 25 -140 46 -264 46 -275 0 -14 -15 -30 -41 -46 -56
-34 -171 -157 -223 -238 -53 -82 -106 -187 -136 -268 l-22 -61 -112 -7 c-147
-9 -553 -6 -681 5 -304 26 -445 85 -445 187 0 204 120 455 297 623 252 239
698 389 1179 398 l81 1 6 -32z m339 -234 c29 -7 72 -14 95 -14 l41 0 16 -69
c9 -39 16 -87 16 -108 l0 -39 -97 -12 c-54 -7 -107 -13 -117 -15 -18 -2 -21
11 -37 123 -10 69 -18 137 -19 153 0 27 1 27 24 11 14 -8 49 -22 78 -30z m252
-71 c4 -60 9 -123 12 -140 5 -32 4 -33 -30 -33 -34 0 -35 1 -41 48 -10 74 -23
146 -29 162 -4 10 5 21 29 34 19 11 35 23 35 28 0 4 4 8 9 8 5 0 12 -48 15
-107z m-3367 -64 c76 -10 484 -97 492 -105 2 -2 -10 -24 -28 -49 -70 -97 -120
-246 -121 -356 0 -52 31 -183 55 -228 l16 -31 -48 0 c-27 1 -118 7 -203 14
-169 14 -182 18 -475 149 -121 54 -123 57 -106 229 24 257 122 382 303 387 20
1 72 -4 115 -10z m675 -138 c206 -35 317 -44 491 -38 l167 5 -35 -63 c-86
-155 -131 -391 -87 -460 10 -17 37 -39 60 -50 23 -11 42 -23 42 -26 0 -12
-385 -20 -621 -13 -181 5 -244 10 -254 21 -22 22 -56 122 -64 193 -16 129 21
270 106 401 31 49 42 58 60 54 12 -3 73 -14 135 -24z m2742 -6 c98 -18 225
-70 307 -125 99 -66 256 -231 322 -338 98 -158 174 -344 184 -454 16 -160
-131 -237 -298 -156 -115 57 -230 177 -377 397 -53 80 -123 173 -154 206 -71
77 -160 124 -245 132 l-60 5 -17 137 c-10 75 -20 148 -23 162 -4 23 -1 27 39
36 65 16 236 15 322 -2z m-3839 -94 c-14 -44 -25 -141 -25 -218 0 -46 -2 -83
-4 -83 -3 0 -32 12 -65 26 -39 17 -61 32 -61 43 1 30 37 177 51 206 14 28 40
42 87 44 19 1 22 -3 17 -18z m3305 -8 c0 -5 9 -62 20 -128 11 -66 20 -127 19
-135 0 -8 -25 -31 -55 -50 -91 -58 -194 -192 -269 -354 -43 -92 -109 -277
-121 -341 -5 -28 -12 -36 -41 -46 -54 -18 -57 -8 -39 133 50 393 203 717 416
885 54 42 70 50 70 36z m-3594 -184 c19 -11 34 -24 34 -29 0 -4 -15 -31 -34
-59 -58 -86 -79 -153 -83 -271 -3 -70 1 -122 10 -157 l14 -53 -39 0 c-138 0
-183 262 -80 466 32 64 50 84 97 108 38 20 41 20 81 -5z m479 -237 c66 -28
251 -105 410 -170 405 -167 452 -190 506 -246 76 -78 160 -238 271 -516 27
-69 66 -157 85 -197 35 -72 35 -72 97 -92 195 -64 830 -151 1095 -151 103 0
151 15 219 67 18 14 35 23 36 22 2 -2 16 -41 31 -87 28 -81 28 -83 9 -97 -36
-27 -139 -57 -220 -62 -186 -13 -863 80 -1218 167 -146 36 -145 35 -326 275
-197 260 -233 294 -410 388 -222 118 -510 227 -795 302 -99 26 -285 65 -310
65 -11 0 -29 119 -29 185 -1 115 35 225 100 312 l24 32 152 -74 c84 -40 207
-95 273 -123z m3494 131 c79 -38 153 -118 270 -293 57 -85 134 -188 170 -229
154 -172 312 -248 431 -207 24 8 47 13 50 10 3 -3 5 -94 5 -202 -1 -217 -12
-299 -66 -477 -117 -378 -375 -663 -666 -731 -101 -24 -265 -15 -361 18 -295
105 -528 416 -612 821 -39 188 -44 491 -8 519 9 7 26 48 37 92 66 242 184 471
303 582 50 47 97 84 108 84 4 0 13 -36 20 -81 11 -80 11 -81 -12 -97 -44 -29
-119 -113 -162 -180 -69 -108 -115 -233 -142 -385 -17 -98 -20 -335 -4 -432
70 -443 346 -734 629 -661 74 19 121 45 183 102 137 127 224 303 264 538 24
144 15 405 -19 531 -89 332 -276 545 -493 563 -35 2 -66 8 -68 11 -2 3 -7 37
-11 75 l-8 69 54 -7 c30 -4 78 -19 108 -33z m-37 -144 c170 -36 315 -194 403
-439 81 -227 85 -554 10 -783 -70 -215 -188 -373 -326 -437 -61 -28 -82 -33
-148 -33 -63 0 -87 5 -141 30 -171 79 -304 280 -366 552 -24 105 -29 368 -10
477 28 164 85 315 158 422 37 53 125 142 142 142 8 0 22 -68 45 -226 l32 -226
-25 -37 c-126 -183 -103 -528 44 -658 29 -26 78 -38 115 -29 35 9 93 62 116
108 96 188 69 487 -54 610 l-33 33 -28 219 c-15 120 -30 234 -33 252 -5 31 -4
34 20 34 14 0 50 -5 79 -11z m-2709 -119 c127 -6 232 -12 234 -14 2 -2 -3 -32
-11 -67 -8 -35 -18 -92 -22 -126 l-6 -62 -37 29 c-43 34 -143 82 -381 180 -96
39 -178 75 -182 79 -4 3 33 3 83 -1 50 -4 195 -12 322 -18z m931 -3 l50 -12
-38 -25 c-45 -30 -126 -148 -155 -224 -40 -108 -54 -209 -48 -355 8 -204 64
-365 163 -468 48 -50 45 -51 -86 -25 l-84 17 -33 78 c-138 329 -176 657 -111
954 l11 52 71 5 c68 6 149 11 191 13 11 1 42 -4 69 -10z m-358 -24 c-37 -132
-44 -460 -13 -618 23 -113 78 -293 117 -381 21 -46 26 -64 16 -61 -8 3 -34 11
-56 17 -23 6 -52 22 -64 34 -11 13 -56 111 -100 217 -87 215 -176 401 -225
475 -37 53 -37 64 -4 247 l15 87 160 0 c147 0 159 -1 154 -17z m621 -14 c38
-12 113 -90 143 -150 21 -40 22 -48 11 -124 -16 -118 -14 -362 5 -490 l17
-110 -26 -50 c-60 -119 -154 -190 -247 -189 -106 2 -194 72 -260 207 -59 123
-74 197 -74 367 0 109 4 162 18 215 40 153 121 281 205 325 29 15 50 18 106
14 39 -3 84 -10 102 -15z m733 2 c0 -4 -5 -21 -10 -37 l-10 -29 -186 -30
c-200 -31 -227 -42 -239 -94 -7 -33 15 -85 40 -95 28 -11 83 -7 212 15 68 12
126 19 129 17 6 -6 -7 -93 -15 -107 -4 -6 -80 -23 -169 -38 -181 -29 -201 -39
-209 -100 -4 -31 0 -43 21 -65 32 -35 48 -35 254 -2 89 15 164 25 166 23 2 -2
0 -38 -3 -79 l-6 -74 -170 -29 c-145 -24 -174 -31 -194 -52 -36 -35 -34 -90 3
-121 34 -30 38 -30 215 1 171 30 171 30 171 8 0 -10 7 -58 17 -106 l17 -88
-30 -25 c-72 -61 -100 -69 -231 -69 l-122 0 -34 33 c-84 82 -153 256 -177 446
-16 121 -8 367 15 486 18 95 43 180 57 195 5 6 98 12 216 15 114 4 222 7 240
8 17 1 32 -2 32 -7z m-35 -123 c-3 -18 -9 -49 -12 -69 l-5 -36 -137 -22 c-75
-13 -148 -25 -163 -28 -33 -6 -78 34 -78 70 0 47 35 64 185 90 77 14 157 25
179 26 38 1 38 1 31 -31z m-2914 -109 l36 -9 -18 -77 c-59 -247 -16 -514 112
-703 118 -174 268 -251 444 -228 202 27 383 233 439 502 8 37 17 70 19 72 10
11 240 -269 291 -354 17 -28 -135 -264 -220 -343 -218 -201 -495 -254 -744
-141 -234 106 -422 369 -492 690 -36 163 -30 406 13 575 10 38 11 39 47 32 20
-3 53 -10 73 -16z m190 -54 c65 -20 133 -42 152 -50 l34 -14 -24 -49 c-52
-106 -53 -274 -2 -377 76 -151 208 -117 255 66 16 63 15 203 -1 256 l-7 23 58
-26 c102 -45 254 -122 305 -155 50 -32 50 -32 44 -73 -22 -135 -81 -276 -153
-364 -62 -76 -98 -106 -172 -144 -60 -30 -72 -33 -160 -33 -86 0 -101 3 -162
32 -271 128 -407 529 -307 906 5 20 13 37 16 37 3 0 59 -16 124 -35z m298
-102 c95 -36 105 -55 105 -203 1 -97 -1 -109 -29 -165 -50 -98 -101 -118 -159
-60 -62 62 -88 235 -53 355 16 54 41 100 55 100 4 0 40 -12 81 -27z m3293
-110 c76 -213 19 -506 -109 -559 -63 -27 -116 2 -167 89 -73 124 -75 392 -3
520 20 36 37 48 37 26 0 -21 43 -354 46 -358 2 -2 37 4 78 14 90 20 86 2 56
230 -11 83 -20 154 -20 159 0 21 67 -78 82 -121z m-912 69 c0 -43 14 -62 47
-62 22 0 31 -14 15 -24 -12 -7 -334 -60 -362 -59 -29 1 -60 36 -60 68 0 49 26
63 175 88 196 34 185 34 185 -11z m64 -304 c6 -22 9 -118 4 -118 -2 0 -68 -11
-148 -25 -184 -31 -194 -31 -219 1 -26 33 -26 55 -3 84 15 18 44 26 182 50 91
15 168 28 171 29 4 0 9 -9 13 -21z m-409 -396 l37 -43 -48 6 c-248 29 -297 35
-301 39 -3 2 8 11 24 19 38 20 113 101 143 155 l24 42 42 -87 c23 -49 59 -107
79 -131z"/>
</g>
</svg>
