<?xml version="1.0" standalone="no"?>
<!DOCTYPE svg PUBLIC "-//W3C//DTD SVG 20010904//EN"
 "http://www.w3.org/TR/2001/REC-SVG-20010904/DTD/svg10.dtd">
<svg version="1.0" xmlns="http://www.w3.org/2000/svg"
 width="600.000000pt" height="800.000000pt" viewBox="0 0 600.000000 800.000000"
 preserveAspectRatio="xMidYMid meet">
<metadata>
Created by potrace 1.16, written by Peter Selinger 2001-2019
</metadata>
<g transform="translate(0.000000,800.000000) scale(0.100000,-0.100000)"
fill="#000000" stroke="none">
<path d="M2326 7164 c-21 -20 -20 -47 1 -87 13 -26 18 -79 25 -277 13 -397 16
-1039 4 -1043 -5 -2 -33 0 -61 5 -115 19 -230 32 -445 48 -202 16 -253 25
-298 54 -64 40 -90 16 -77 -67 10 -63 29 -87 70 -87 18 0 36 4 40 9 6 11 69 8
151 -9 135 -27 138 -28 210 -119 82 -104 135 -226 154 -361 30 -208 -58 -602
-189 -845 -84 -156 -245 -346 -307 -361 -12 -3 -45 4 -73 16 -65 28 -81 18
-81 -50 0 -81 72 -141 111 -94 18 22 122 11 192 -20 49 -22 129 -97 221 -207
112 -134 169 -474 121 -724 -18 -94 -62 -225 -75 -225 -17 0 -503 737 -520
788 -5 15 -19 95 -30 177 -11 83 -27 184 -35 225 -41 202 -95 503 -101 562 -6
58 -4 69 16 96 22 30 22 32 6 57 -22 34 -37 39 -91 31 -96 -15 -137 -90 -71
-133 32 -21 34 -26 45 -110 7 -48 16 -113 21 -143 5 -30 12 -89 15 -131 3 -42
8 -87 11 -100 18 -90 44 -255 42 -267 -2 -9 -26 19 -55 64 -29 43 -74 111 -99
149 -26 39 -62 93 -80 120 -18 28 -68 97 -110 155 -43 58 -117 164 -165 235
-140 208 -144 212 -167 130 -47 -169 -57 -490 -22 -715 41 -268 70 -398 166
-729 54 -186 22 -122 -119 239 -35 91 -87 224 -115 295 -28 72 -66 173 -85
225 -19 53 -48 125 -64 160 -60 130 -68 158 -54 197 11 28 11 40 1 59 -34 63
-178 39 -196 -33 -9 -34 14 -77 43 -81 16 -2 28 -20 47 -65 90 -217 154 -381
201 -512 67 -189 72 -204 134 -353 28 -68 49 -128 46 -133 -4 -5 -36 -9 -73
-9 -46 0 -75 -5 -91 -16 -23 -17 -23 -18 -19 -173 4 -131 9 -171 32 -250 44
-151 63 -177 155 -212 64 -23 65 -25 87 -99 36 -120 88 -253 150 -388 13 -29
24 -56 24 -60 0 -5 -37 -8 -82 -9 -47 0 -105 -8 -133 -17 -84 -27 -326 -17
-345 14 -7 11 -22 9 -77 -8 -100 -31 -152 -41 -210 -42 -40 0 -53 -4 -53 -15
0 -30 188 -10 283 30 25 10 35 9 71 -9 32 -16 63 -21 141 -23 91 -2 119 1 210
23 17 4 71 9 122 11 l91 4 77 -152 c42 -83 73 -155 68 -159 -21 -19 -113 -40
-172 -40 -91 0 -141 15 -173 52 l-27 31 -63 -17 c-35 -9 -74 -21 -88 -26 -14
-5 -36 -11 -50 -14 -14 -2 -52 -9 -86 -16 -51 -10 -66 -9 -98 4 -45 19 -46 19
-46 6 0 -19 61 -41 113 -41 28 0 79 7 112 16 33 9 76 20 95 24 19 5 47 14 63
21 24 12 30 11 50 -7 69 -63 187 -84 298 -53 35 10 85 26 110 36 l46 17 73
-42 c40 -23 91 -46 114 -51 91 -21 262 -4 374 37 40 15 46 15 70 1 87 -51 283
-54 465 -7 30 8 56 6 120 -10 93 -23 123 -28 222 -37 79 -7 232 15 329 48 51
16 61 17 67 5 5 -8 32 -25 61 -37 79 -34 245 -32 382 4 55 15 103 29 108 32
29 18 67 14 91 -10 62 -62 239 -62 472 0 l90 23 42 -29 c48 -33 93 -47 213
-65 141 -21 458 1 429 30 -3 2 -56 0 -119 -5 -135 -11 -265 -5 -370 17 -89 18
-127 36 -157 70 l-21 26 -67 -22 c-37 -13 -69 -21 -71 -18 -4 3 17 32 72 102
9 11 34 46 57 78 l41 57 55 1 c146 2 202 7 271 28 114 33 128 35 145 21 21
-17 129 -39 194 -40 29 0 82 5 117 12 53 9 66 9 86 -4 61 -39 248 -73 351 -63
76 8 91 25 22 25 -63 0 -230 18 -287 31 -32 7 -54 20 -67 37 -18 25 -21 25
-59 14 -104 -31 -311 -19 -335 19 -17 27 -14 27 -205 -32 -36 -12 -249 -15
-259 -5 -4 3 11 45 33 93 37 82 47 94 144 181 89 80 125 104 240 162 74 37
149 75 165 84 46 24 141 17 267 -20 54 -16 135 -18 196 -4 43 10 223 87 232
100 3 3 26 20 51 38 106 72 182 175 208 282 15 59 19 66 48 74 46 14 67 71 43
117 -6 10 -20 19 -30 19 -27 0 -25 9 10 50 33 38 38 71 15 90 -17 14 -52 3
-175 -53 -170 -77 -210 -89 -285 -84 -175 12 -623 28 -647 23 -34 -7 -34 -13
-7 161 21 135 23 321 3 397 -6 26 -5 28 14 21 30 -9 72 34 72 74 0 47 -24 64
-81 56 -28 -4 -49 -3 -49 2 0 9 16 36 105 174 87 134 146 282 169 424 20 121
15 444 -8 530 -9 33 -54 138 -101 233 -47 95 -85 175 -85 178 0 10 23 2 49
-17 27 -20 30 -20 59 -5 38 20 48 56 26 102 -22 46 -55 59 -110 44 -52 -15
-72 -12 -394 50 -52 10 -127 24 -166 30 -40 6 -91 17 -115 24 l-44 13 2 214
c4 318 11 415 33 442 17 20 27 22 107 22 74 -1 97 -5 148 -28 32 -15 66 -34
75 -41 8 -8 41 -27 73 -44 157 -83 314 -90 465 -19 75 35 222 171 222 206 0
29 8 31 -123 -28 -56 -25 -216 -41 -183 -19 114 79 172 133 274 255 37 44 54
83 36 83 -3 0 -36 -18 -72 -40 -86 -51 -168 -70 -317 -75 -154 -5 -219 11
-403 102 l-137 68 -90 1 c-99 2 -111 10 -80 58 23 34 12 79 -27 111 -44 37
-101 30 -127 -17 -11 -22 -10 -31 9 -72 35 -78 41 -145 30 -341 -6 -99 -14
-319 -20 -488 -5 -185 -13 -314 -19 -321 -12 -14 -2 -15 -341 39 -140 23 -172
31 -209 56 -52 34 -83 37 -111 9 -26 -26 -25 -45 3 -100 l22 -45 70 0 c39 -1
80 -6 92 -13 35 -19 156 -176 191 -245 80 -161 107 -288 106 -512 0 -233 -28
-362 -119 -545 -85 -170 -206 -294 -294 -302 -31 -3 -35 0 -43 27 -6 24 -3 34
16 55 36 40 93 139 120 210 62 168 75 410 35 655 -11 62 -74 295 -89 324 -4 9
-20 50 -35 91 -34 92 -61 140 -127 228 -48 62 -52 71 -53 126 -2 51 -6 63 -29
83 -32 28 -72 29 -105 4 -19 -15 -31 -16 -70 -9 -25 4 -82 13 -126 18 -149 18
-300 40 -352 50 -50 11 -52 12 -59 53 -3 23 -8 132 -9 242 -2 110 -4 272 -5
360 -3 213 -4 202 18 182 28 -26 103 -55 159 -63 78 -10 202 12 358 64 136 45
144 47 255 46 90 -1 129 -6 179 -22 78 -27 161 -73 222 -124 79 -66 91 -44 33
61 -70 127 -171 226 -274 267 -25 10 -61 26 -80 35 -30 15 -32 19 -17 25 34
13 133 -4 210 -36 61 -25 86 -42 121 -83 25 -29 48 -49 52 -44 14 13 -20 91
-71 161 -115 160 -277 238 -500 240 -106 0 -114 -1 -245 -47 -227 -80 -321
-94 -400 -60 -35 15 -40 22 -40 50 0 17 5 35 10 38 18 11 11 43 -16 74 -21 25
-34 31 -64 31 -22 0 -45 -7 -54 -16z m88 -39 c15 -15 15 -61 1 -130 -3 -11 0
-105 5 -210 11 -236 18 -424 26 -767 l6 -268 -25 0 -26 0 -3 148 c-2 81 -4
311 -6 512 -1 201 -5 431 -9 512 -4 110 -3 151 6 162 17 20 6 36 -25 36 -14 0
-22 4 -19 10 9 15 52 12 69 -5z m895 -85 c79 -21 172 -74 230 -131 23 -23 40
-43 38 -45 -2 -2 -39 5 -83 17 -86 22 -188 20 -261 -5 -60 -21 -48 -38 52 -71
90 -31 207 -92 265 -141 27 -24 90 -105 90 -118 0 -2 -39 15 -87 39 -121 60
-160 68 -298 68 -118 -1 -123 -2 -275 -53 -149 -51 -158 -52 -270 -54 -108 -1
-118 1 -160 26 -93 54 -88 44 -96 226 -4 89 -4 162 0 162 4 0 30 -7 57 -16 83
-27 182 -12 344 54 46 18 71 26 165 51 56 15 215 10 289 -9z m796 -310 c17
-19 18 -25 5 -73 -10 -37 -15 -126 -16 -302 -2 -311 -15 -847 -21 -857 -2 -5
-11 -8 -20 -8 -14 0 -15 26 -9 263 4 144 8 298 10 342 2 44 7 188 11 320 4
132 12 245 17 252 14 17 1 33 -28 33 -26 0 -32 18 -12 38 18 18 43 15 63 -8z
m317 -230 c64 -33 149 -69 190 -81 104 -30 285 -37 402 -15 48 10 91 14 95 11
17 -18 -185 -171 -258 -195 -48 -16 -51 -22 -13 -39 56 -27 185 -24 292 5 24
6 24 5 -8 -29 -64 -67 -173 -112 -297 -123 -60 -5 -82 -2 -150 21 -44 14 -109
42 -145 62 -171 93 -182 98 -257 101 -51 3 -81 0 -104 -12 -17 -9 -35 -13 -40
-10 -13 8 1 326 14 343 40 49 131 36 279 -39z m-2454 -740 c257 -27 514 -58
777 -95 94 -14 190 -27 215 -31 99 -14 184 -74 285 -201 94 -118 140 -218 220
-482 49 -162 59 -525 17 -681 -32 -120 -66 -203 -109 -261 -63 -85 -69 -87
-82 -34 -6 25 -20 59 -30 75 -38 64 -202 162 -326 195 -75 21 -389 31 -495 16
-156 -21 -316 -68 -585 -171 -55 -21 -113 -41 -129 -45 -27 -6 -24 -1 33 61
34 37 67 78 74 91 7 12 35 60 64 106 96 154 132 237 187 433 55 196 72 450 40
583 -32 136 -129 291 -247 395 -72 65 -75 63 91 46z m1667 -235 c50 -9 149
-24 220 -35 72 -11 182 -29 245 -40 63 -11 167 -29 230 -40 63 -11 129 -22
145 -25 74 -14 184 -48 222 -71 30 -18 53 -44 81 -92 87 -149 160 -316 182
-416 29 -134 20 -441 -18 -581 -23 -83 -85 -218 -156 -335 -64 -106 -74 -118
-82 -93 -36 114 -101 170 -249 209 -76 21 -325 29 -415 14 -103 -17 -95 -15
-195 -43 -49 -14 -106 -28 -125 -32 -19 -4 -44 -12 -55 -18 -25 -14 -149 -57
-152 -53 -2 1 15 17 36 34 79 63 197 261 244 410 52 163 72 344 57 513 -6 68
-13 126 -15 129 -2 4 -6 17 -8 31 -31 163 -110 318 -240 470 -32 36 -57 69
-57 73 0 8 2 8 105 -9z m-2306 -914 c12 -7 10 -14 -8 -36 -16 -22 -21 -41 -21
-89 0 -34 5 -77 10 -96 6 -19 14 -62 19 -95 5 -33 21 -123 36 -200 15 -77 37
-207 50 -290 13 -82 27 -168 31 -189 9 -51 -5 -42 -45 28 -23 39 -31 66 -31
102 0 27 -5 76 -10 109 -24 134 -51 315 -61 390 -11 89 -15 114 -30 195 -17
95 -19 99 -39 105 -27 8 -25 40 2 59 25 17 75 21 97 7z m-524 -173 c59 -84
134 -189 165 -233 32 -44 101 -144 154 -222 53 -79 140 -207 193 -285 153
-225 354 -529 428 -648 60 -96 199 -301 211 -311 30 -25 14 -32 -63 -26 -58 3
-100 14 -164 40 -97 41 -205 97 -264 137 -200 137 -419 210 -545 181 -33 -7
-47 -7 -52 2 -11 17 -47 136 -70 232 -10 44 -27 109 -38 145 -24 77 -79 302
-86 345 -48 332 -53 524 -18 690 19 89 24 105 33 105 5 0 57 -69 116 -152z
m-485 -93 c15 -18 11 -24 -19 -30 -42 -8 -59 -35 -22 -35 14 0 25 -14 39 -52
11 -29 41 -97 66 -151 25 -53 45 -98 45 -100 0 -2 3 -12 76 -197 31 -80 70
-179 85 -220 16 -41 59 -154 95 -250 37 -96 75 -203 85 -237 17 -60 17 -63 0
-63 -10 0 -22 6 -27 13 -12 14 -121 289 -203 507 -17 47 -37 101 -45 120 -7
19 -37 100 -65 180 -29 80 -57 150 -62 156 -4 6 -24 56 -43 110 -48 133 -75
180 -103 177 -39 -5 -24 65 18 80 30 11 68 7 80 -8z m2465 -109 c61 -8 128
-20 150 -29 22 -8 59 -20 82 -26 23 -6 65 -27 93 -46 29 -19 55 -35 59 -35 15
0 59 -56 70 -89 6 -19 11 -50 11 -69 l0 -35 -127 6 c-168 8 -507 34 -560 43
l-43 7 -2 91 c0 50 -2 104 -3 121 -3 42 5 63 24 68 33 9 139 6 246 -7z m-381
-77 c3 -34 6 -91 6 -127 l0 -65 -112 7 c-444 27 -529 34 -536 40 -10 11 377
147 513 181 129 33 121 35 129 -36z m2029 -180 c64 -12 159 -61 190 -98 30
-36 60 -111 55 -137 -5 -28 -56 -27 -433 11 -82 8 -154 15 -158 15 -4 0 -6 48
-5 108 l3 107 95 5 c105 7 181 3 253 -11z m-2398 -19 c72 -5 211 -15 310 -20
99 -6 216 -15 260 -20 44 -5 123 -12 175 -15 52 -3 106 -8 120 -10 14 -2 77
-6 140 -10 200 -10 200 -10 280 -120 91 -123 115 -205 115 -385 0 -241 -46
-409 -193 -712 -31 -65 -63 -120 -70 -123 -7 -2 -30 5 -50 18 -127 78 -187
105 -268 123 -112 25 -351 25 -454 -1 -89 -21 -207 -66 -346 -131 -72 -34 -80
-31 -51 19 82 141 147 401 147 586 -1 165 -40 367 -88 451 -34 59 -108 157
-147 195 -39 38 -140 116 -182 140 -18 11 -33 23 -33 28 0 9 111 4 335 -13z
m1922 -83 c-4 -44 -9 -82 -12 -85 -5 -6 -332 15 -399 25 -37 5 -39 6 -21 19
39 29 410 138 429 127 5 -3 6 -42 3 -86z m-317 -97 c69 -5 152 -12 185 -15 33
-2 94 -7 135 -10 41 -4 100 -10 130 -15 30 -5 125 -14 210 -20 214 -15 382
-37 392 -52 21 -31 27 -47 42 -115 37 -164 -3 -523 -60 -544 -20 -7 -29 -4
-83 29 -47 29 -94 -77 -61 -139 7 -13 21 -19 45 -19 18 0 37 -5 41 -11 16 -26
-138 -205 -209 -244 l-36 -19 -78 36 c-197 90 -354 110 -538 69 -122 -28 -139
-33 -226 -75 -42 -20 -79 -36 -82 -36 -4 0 6 22 22 48 46 78 109 231 131 317
59 229 19 511 -99 700 -47 76 -54 92 -48 109 7 19 18 19 187 6z m-148 -169
c66 -139 89 -228 95 -371 8 -180 -25 -326 -114 -505 -43 -85 -59 -105 -89
-105 -16 0 -29 -12 -45 -40 -13 -22 -29 -40 -36 -40 -12 0 -50 16 -61 25 -2 2
25 58 58 126 52 103 122 284 135 352 2 10 7 27 10 37 15 48 33 195 34 285 2
124 -10 198 -45 274 -14 33 -23 65 -19 72 11 17 27 -7 77 -110z m-2871 -479
c28 -2 38 -8 47 -27 17 -37 16 -38 -22 -31 -72 14 -73 -39 -4 -364 11 -52 24
-107 29 -122 10 -35 -2 -36 -56 -5 -26 14 -47 37 -59 62 -30 65 -68 269 -70
378 -1 109 3 117 63 113 20 -2 52 -3 72 -4z m107 -138 c48 -25 116 -56 152
-70 269 -103 368 -135 697 -224 l122 -34 20 -45 c27 -64 56 -226 67 -376 3
-33 7 -65 9 -72 4 -13 -16 -23 -46 -23 -21 0 -25 12 -34 110 -8 79 -54 319
-66 341 -5 10 -27 19 -51 23 -107 16 -356 85 -600 167 -97 32 -182 59 -190 59
-7 0 -24 6 -38 13 -14 8 -53 28 -87 46 l-63 33 0 49 c0 28 5 49 10 49 6 0 50
-21 98 -46z m375 32 c74 -14 210 -75 290 -130 21 -14 42 -26 47 -26 6 0 10 -4
10 -10 0 -5 5 -10 11 -10 6 0 23 -9 37 -19 38 -27 174 -95 262 -131 49 -20
100 -33 145 -36 100 -8 99 -7 75 -53 -25 -50 -34 -55 -56 -34 -13 14 -31 17
-83 15 l-66 -3 -15 42 c-20 56 -53 78 -147 99 -43 10 -112 27 -153 39 -41 11
-122 33 -180 49 -58 16 -114 33 -125 39 -11 6 -56 23 -100 38 -112 38 -195 76
-195 89 0 15 39 40 75 47 51 11 91 9 168 -5z m4337 -76 c175 -11 194 -13 260
-24 91 -16 90 -16 90 -49 0 -79 -55 -210 -110 -266 -84 -84 -215 -164 -336
-205 -62 -21 -64 -20 -64 8 0 50 -18 73 -76 102 -52 25 -71 29 -180 32 -123 4
-142 2 -341 -45 l-23 -5 25 73 c37 109 35 187 -9 275 -34 67 -40 86 -37 112 1
15 516 10 801 -8z m-4696 -115 c25 -15 301 -103 436 -140 252 -67 359 -94 397
-100 47 -7 50 -12 77 -140 16 -72 38 -286 31 -294 -19 -18 -198 -5 -380 28
-27 6 -67 13 -88 16 -74 12 -332 125 -393 172 -57 43 -99 132 -135 288 -17 77
-34 154 -36 172 l-5 32 38 -11 c21 -5 47 -16 58 -23z m3932 -109 c8 -53 -18
-148 -52 -194 -30 -38 -77 -65 -90 -52 -6 6 -23 6 -44 -1 -19 -6 -51 -13 -70
-16 -19 -2 -60 -11 -90 -18 -46 -12 -206 -34 -275 -39 -18 -1 -20 6 -23 63 -2
35 1 68 7 74 5 5 95 11 204 12 116 2 204 8 216 14 11 6 29 30 39 54 10 23 27
51 38 61 19 20 26 28 78 107 l29 44 14 -33 c7 -18 16 -52 19 -76z m-1811 -76
c76 -24 165 -68 165 -82 0 -11 -97 -10 -282 2 -84 6 -171 12 -193 13 -39 2
-40 3 -43 44 -4 50 -6 50 163 47 93 -1 136 -6 190 -24z m1399 -39 c34 -13 5
-18 -139 -25 -196 -9 -505 -25 -600 -31 -90 -5 -83 9 10 20 32 4 66 8 75 10
23 4 334 25 420 28 158 6 216 5 234 -2z m-1317 -75 c107 -1 156 -5 164 -13 7
-7 10 -15 7 -19 -4 -3 -64 -5 -135 -3 -347 8 -897 -7 -993 -27 l-25 -5 23 20
c57 49 168 61 512 53 162 -3 363 -6 447 -6z m-1117 -35 c0 -59 13 -64 127 -52
54 6 123 13 153 16 168 17 495 23 725 13 214 -9 259 -13 316 -33 65 -22 66
-22 92 -3 15 11 27 25 27 32 0 7 6 21 14 31 14 19 15 19 35 1 21 -19 21 -19
137 4 80 17 123 8 167 -35 76 -74 86 -109 35 -119 -18 -4 -154 -15 -303 -26
-230 -17 -343 -20 -765 -17 -506 4 -640 12 -729 45 -44 17 -46 20 -58 72 -18
87 -16 110 7 110 17 0 20 -7 20 -39z m2088 -6 c2 -21 1 -54 -3 -71 -5 -31 -8
-33 -63 -39 -31 -3 -69 -8 -84 -11 -22 -4 -29 0 -42 28 -9 18 -34 52 -57 76
-28 28 -37 43 -28 46 28 10 77 13 174 12 l100 -1 3 -40z m1310 -32 c7 -10 12
-31 10 -48 -3 -29 -5 -30 -48 -30 -50 1 -220 36 -220 46 0 3 35 22 77 41 75
35 79 35 123 22 25 -7 51 -22 58 -31z m-460 -41 c18 -4 33 -11 33 -17 1 -5
-32 -27 -72 -49 -41 -21 -90 -47 -109 -57 -19 -11 -37 -16 -41 -11 -4 4 -10
37 -14 75 -6 63 -5 68 15 75 21 8 110 0 188 -16z m-330 -14 c-19 -55 -335
-128 -743 -173 -261 -28 -310 -32 -450 -36 -221 -6 -861 -4 -955 4 -47 4 -127
10 -179 13 -52 3 -135 13 -185 23 -89 16 -90 17 -97 49 -4 18 -3 34 1 37 3 2
56 -5 116 -16 60 -11 127 -23 149 -25 85 -10 967 -13 1095 -4 74 6 205 15 290
20 165 11 204 16 260 31 19 5 55 9 80 9 58 0 485 56 525 69 45 14 97 13 93 -1z
m80 0 c7 -7 12 -40 11 -82 l0 -71 -77 -67 c-42 -36 -78 -65 -80 -63 -11 11 78
248 105 277 19 21 25 22 41 6z m-3543 -148 c136 -65 243 -93 499 -130 99 -15
309 -15 335 0 13 7 21 23 23 48 3 41 7 42 98 29 64 -9 205 -26 270 -32 30 -4
273 -8 540 -12 556 -6 685 1 1140 62 19 2 58 9 85 14 28 5 88 16 135 24 47 8
129 27 182 41 54 14 100 26 102 26 2 0 -4 -24 -14 -52 -10 -29 -28 -84 -40
-123 -39 -120 -39 -120 -142 -154 -336 -111 -697 -156 -1258 -156 -417 0 -734
16 -980 50 -58 8 -154 19 -215 25 -212 21 -427 54 -540 82 -44 11 -98 24 -120
29 -87 22 -174 51 -183 62 -15 19 -92 204 -99 238 l-6 31 54 -32 c30 -17 90
-49 134 -70z m47 -255 c106 -28 363 -83 423 -91 47 -6 221 -30 320 -44 134
-20 443 -46 680 -58 180 -9 931 -9 1010 0 229 27 376 48 393 57 12 6 33 11 48
11 15 0 41 4 58 10 17 5 67 19 111 30 44 11 104 28 134 36 29 8 55 13 57 11
13 -12 -110 -212 -176 -287 -64 -74 -116 -123 -138 -131 -46 -18 -169 -22
-233 -9 -53 12 -63 17 -73 42 -12 32 -37 36 -91 14 -201 -84 -499 -89 -544 -8
-9 16 -17 15 -118 -11 -130 -34 -274 -50 -363 -41 -74 7 -160 40 -160 60 0 19
-6 18 -124 -11 -141 -34 -248 -43 -333 -29 -69 11 -112 28 -125 47 -4 7 -45
-1 -115 -24 -96 -30 -120 -34 -218 -33 -104 0 -114 2 -177 33 -37 18 -79 44
-93 57 -14 13 -35 24 -45 24 -26 0 -69 65 -146 223 -61 125 -70 147 -60 147 2
0 46 -11 98 -25z"/>
<path d="M762 2737 c-27 -29 -30 -107 -6 -167 13 -31 23 -42 51 -49 59 -17 88
5 99 77 18 116 -79 209 -144 139z m86 -25 c35 -35 36 -146 2 -167 -18 -11 -57
14 -70 45 -16 38 -16 105 -1 124 18 21 47 20 69 -2z"/>
<path d="M1083 2649 c-77 -28 -68 -171 13 -205 30 -13 38 -13 63 1 41 21 53
68 37 141 -12 52 -64 81 -113 63z"/>
<path d="M1432 2562 c-13 -2 -32 -18 -43 -35 -29 -46 -20 -103 21 -139 41 -38
83 -37 121 1 35 35 38 79 10 131 -19 36 -55 50 -109 42z"/>
<path d="M784 1247 c-71 -23 -107 -29 -177 -30 -117 -1 -108 -33 10 -36 45 -1
118 16 195 45 47 18 47 18 98 -6 47 -22 65 -24 193 -24 105 -1 158 4 202 16
77 22 77 22 104 -4 43 -39 180 -49 314 -24 69 13 147 39 147 49 0 5 -86 -10
-109 -18 -7 -3 -63 -8 -125 -11 -125 -7 -179 3 -225 42 l-30 25 -63 -22 c-49
-17 -92 -23 -198 -26 -134 -5 -135 -4 -191 25 l-56 29 -89 -30z"/>
<path d="M2889 1130 c-42 -15 -92 -31 -112 -34 -20 -3 -80 -15 -134 -27 -96
-21 -210 -22 -270 -4 -34 11 -29 -12 7 -30 69 -36 309 -4 525 70 46 15 48 15
62 -4 7 -11 30 -25 51 -31 43 -12 285 -12 357 -1 45 8 52 6 85 -20 54 -44 126
-58 260 -54 152 6 359 30 373 44 21 21 -3 23 -90 6 -209 -40 -468 -29 -519 22
-13 13 -24 29 -24 35 0 7 -14 8 -39 4 -21 -3 -103 -10 -182 -16 -175 -13 -236
-2 -253 42 -6 16 -13 28 -16 27 -3 0 -39 -13 -81 -29z"/>
</g>
</svg>
