<?xml version="1.0" standalone="no"?>
<!DOCTYPE svg PUBLIC "-//W3C//DTD SVG 20010904//EN"
 "http://www.w3.org/TR/2001/REC-SVG-20010904/DTD/svg10.dtd">
<svg version="1.0" xmlns="http://www.w3.org/2000/svg"
 width="810.000000pt" height="527.000000pt" viewBox="0 0 810.000000 527.000000"
 preserveAspectRatio="xMidYMid meet">
<metadata>
Created by potrace 1.16, written by Peter Selinger 2001-2019
</metadata>
<g transform="translate(0.000000,527.000000) scale(0.100000,-0.100000)"
fill="#000000" stroke="none">
<path d="M277 4633 c-4 -3 -7 -203 -7 -444 0 -389 2 -438 16 -443 24 -9 2767
-7 2782 2 10 7 12 103 10 448 l-3 439 -1396 3 c-767 1 -1399 -1 -1402 -5z
m2763 -443 l0 -410 -1365 0 -1365 0 0 410 0 410 1365 0 1365 0 0 -410z"/>
<path d="M367 4543 c-4 -3 -7 -163 -7 -355 l0 -348 1315 0 1315 0 0 355 0 355
-1308 0 c-720 0 -1312 -3 -1315 -7z m643 -347 c0 -263 -2 -315 -14 -319 -8 -3
-145 -6 -305 -7 l-291 -1 0 321 0 320 305 0 305 0 0 -314z m645 -6 l0 -315
-303 0 -302 0 -3 318 -2 317 305 -2 305 -3 0 -315z m647 17 c2 -167 2 -311 0
-320 -3 -15 -33 -16 -305 -14 l-302 2 -3 318 -2 317 305 0 304 0 3 -303z m648
-18 l0 -320 -302 3 -303 3 -3 318 -2 317 305 0 305 0 0 -321z"/>
<path d="M890 4363 c-35 -12 -40 -35 -40 -173 0 -143 5 -162 47 -175 15 -4 28
0 42 14 19 19 21 33 21 161 0 127 -2 142 -20 160 -21 21 -25 22 -50 13z"/>
<path d="M1120 4350 c-18 -18 -20 -33 -20 -160 0 -128 2 -142 21 -161 14 -14
27 -18 42 -14 42 13 47 31 47 177 0 125 -2 140 -20 158 -11 11 -27 20 -35 20
-8 0 -24 -9 -35 -20z"/>
<path d="M2173 4362 c-23 -15 -33 -65 -33 -171 0 -155 21 -197 82 -167 22 11
23 16 26 161 3 143 2 151 -19 168 -23 18 -37 21 -56 9z"/>
<path d="M2422 4354 c-21 -14 -22 -21 -22 -164 0 -148 0 -150 25 -166 23 -15
27 -15 50 0 25 16 25 18 25 166 0 143 -1 150 -22 164 -12 9 -25 16 -28 16 -3
0 -16 -7 -28 -16z"/>
<path d="M3480 4258 l0 -373 -216 -216 c-127 -127 -214 -221 -210 -228 5 -8
225 -11 787 -11 642 0 779 2 779 13 0 8 -37 49 -82 92 -46 43 -145 139 -220
213 l-138 135 0 374 0 373 -350 0 -350 0 0 -372z m660 -13 l0 -355 -312 2
-313 3 0 345 0 345 305 5 c168 3 308 6 313 8 4 1 7 -158 7 -353z m-223 -392
l241 -6 48 -45 c116 -107 341 -333 335 -335 -3 -1 -324 0 -713 3 l-706 5 192
193 191 192 86 0 c47 0 194 -3 326 -7z"/>
<path d="M4752 4188 l3 -443 1483 -3 1482 -2 0 445 0 445 -1485 0 -1485 0 2
-442z m1466 0 l2 -408 -22 -5 c-13 -3 -333 -4 -713 -3 l-690 3 -3 400 c-1 220
0 406 3 413 3 10 151 12 712 10 l708 -3 3 -407z m1462 3 l0 -409 -82 -7 c-46
-3 -364 -5 -708 -3 l-625 3 -5 408 c-3 225 -3 411 -1 413 2 2 323 4 713 4
l708 0 0 -409z"/>
<path d="M4840 4185 l0 -355 665 0 665 0 0 355 0 355 -665 0 -665 0 0 -355z
m1300 0 l0 -315 -630 0 -630 0 0 315 0 315 630 0 630 0 0 -315z"/>
<path d="M5368 4009 c-21 -12 -24 -69 -6 -87 8 -8 57 -12 154 -12 153 0 167 4
167 55 0 50 -14 55 -162 55 -75 0 -144 -5 -153 -11z"/>
<path d="M6310 4185 l0 -355 665 0 665 0 0 355 0 355 -665 0 -665 0 0 -355z
m1290 0 l0 -315 -630 0 -630 0 0 315 0 315 630 0 630 0 0 -315z"/>
<path d="M6827 4002 c-21 -23 -22 -56 -1 -76 12 -13 41 -16 153 -16 121 0 140
2 154 18 22 24 21 55 -1 75 -15 14 -42 17 -154 17 -118 0 -137 -2 -151 -18z"/>
<path d="M6290 3000 l0 -590 708 2 707 3 3 588 2 587 -710 0 -710 0 0 -590z
m1383 2 l2 -552 -677 0 -678 0 0 548 c0 302 3 552 7 555 3 4 307 6 675 5 l668
-3 3 -553z"/>
<path d="M6372 3512 c-10 -7 -12 -116 -10 -513 l3 -504 632 -3 c584 -2 632 -1
635 15 2 9 1 239 -2 512 l-5 496 -620 2 c-341 2 -626 -1 -633 -5z m1228 -51
c0 -32 -92 -43 -134 -16 -21 14 -25 13 -46 -5 -34 -29 -56 -33 -94 -15 -29 14
-40 15 -75 4 -38 -11 -44 -10 -73 11 -25 18 -34 21 -47 11 -39 -28 -60 -30
-105 -14 -42 16 -46 16 -80 -2 -34 -18 -37 -18 -71 -2 -26 13 -41 14 -55 7
-25 -14 -96 -13 -119 2 -14 9 -28 8 -61 -6 -41 -16 -44 -16 -83 3 l-40 20 -28
-22 c-24 -17 -34 -19 -57 -11 -16 6 -28 18 -30 32 l-3 22 600 0 c582 0 601 -1
601 -19z m-992 -63 c137 2 270 -3 278 -10 12 -13 -26 -135 -62 -195 -45 -76
-127 -151 -215 -196 -62 -32 -80 -37 -140 -37 l-69 0 0 219 0 220 29 -10 c23
-8 37 -7 58 4 15 9 37 13 48 9 11 -3 44 -5 73 -4z m396 6 c14 -5 16 -54 16
-440 0 -427 0 -434 -20 -434 -20 0 -20 7 -20 440 0 242 2 440 4 440 2 0 11 -3
20 -6z m162 -5 c4 -7 29 -10 68 -7 39 3 74 -1 98 -10 34 -14 40 -13 78 7 33
17 45 19 62 10 13 -7 42 -9 75 -5 l53 6 0 -220 0 -220 -71 0 c-63 0 -80 4
-143 37 -133 70 -236 200 -267 339 -11 47 -10 57 2 65 19 12 36 11 45 -2z
m-226 -439 l0 -430 -99 0 -98 0 -7 49 c-9 69 -59 162 -113 212 -39 36 -44 45
-34 60 6 10 11 36 11 56 0 36 4 40 58 71 131 76 230 210 262 355 7 31 15 57
17 57 1 0 3 -193 3 -430z m194 233 c44 -84 125 -168 208 -215 53 -30 57 -35
52 -60 -3 -16 1 -41 9 -57 14 -28 14 -30 -26 -68 -58 -54 -93 -115 -114 -194
l-17 -69 -98 0 -97 0 -1 423 c0 233 3 427 7 431 4 4 15 -21 24 -56 9 -35 33
-96 53 -135z m-619 -369 c63 -30 113 -83 149 -157 19 -40 37 -87 40 -104 l6
-33 -155 0 -155 0 0 155 0 155 41 0 c23 0 56 -7 74 -16z m1083 -141 l3 -153
-156 0 c-176 0 -169 -5 -138 86 28 83 76 144 158 198 31 21 49 26 85 24 l45
-3 3 -152z"/>
<path d="M5565 3389 c-37 -11 -55 -34 -55 -70 0 -14 -7 -32 -15 -39 -12 -10
-15 -42 -15 -171 0 -99 -4 -159 -10 -159 -6 0 -10 53 -10 139 0 111 -3 141
-15 151 -8 7 -15 23 -15 35 0 13 -8 33 -19 46 -16 20 -26 23 -114 23 -80 1
-99 -2 -116 -18 -12 -11 -21 -28 -21 -39 0 -11 -8 -29 -17 -40 -15 -16 -19
-43 -21 -163 -5 -197 -22 -175 -22 27 0 87 -4 159 -9 159 -4 0 -11 16 -14 36
-10 58 -20 64 -110 64 -87 0 -106 -11 -107 -60 0 -15 -6 -32 -12 -38 -9 -9
-15 -64 -18 -170 l-5 -157 -30 -5 c-27 -5 -30 -9 -33 -49 -2 -28 1 -47 10 -52
7 -5 324 -9 705 -9 758 0 723 -3 723 58 0 38 -10 50 -45 54 l-30 3 -3 132 c-2
101 -6 134 -17 143 -8 7 -15 22 -15 34 0 43 -15 51 -100 54 -96 5 -130 -10
-130 -57 0 -16 -6 -31 -15 -35 -12 -4 -15 -29 -15 -136 0 -87 -4 -130 -11
-130 -8 0 -10 45 -8 148 3 143 -3 192 -22 192 -5 0 -9 12 -9 26 0 40 -17 62
-58 74 -44 12 -115 12 -157 -1z m203 -131 c8 -8 12 -58 12 -160 l0 -148 -129
0 -128 0 -7 61 c-12 116 -7 226 10 243 20 20 223 23 242 4z m-708 -18 c8 -14
9 -65 4 -155 l-7 -135 -93 0 -94 0 0 139 c0 77 3 146 6 155 5 13 23 16 90 16
74 0 85 -2 94 -20z m337 -16 c12 -3 24 -13 27 -21 3 -8 3 -68 -1 -134 l-6
-119 -129 0 -128 0 0 128 c0 86 4 132 12 140 13 13 183 17 225 6z m691 -151
l3 -123 -111 0 -110 0 0 118 c0 65 3 122 7 126 4 4 52 5 107 4 l101 -3 3 -122z
m72 -183 c0 -20 -7 -20 -685 -20 -564 0 -685 2 -685 13 0 8 3 17 7 20 3 4 312
7 685 7 671 0 678 0 678 -20z"/>
<path d="M2454 3215 c-16 -25 -17 -25 -165 -25 -138 0 -149 1 -159 20 -14 27
-66 27 -75 1 -4 -14 -17 -21 -43 -23 -32 -3 -37 -7 -40 -32 -6 -49 6 -76 32
-76 l24 0 5 -347 c3 -192 8 -360 12 -375 10 -38 34 -36 74 6 55 57 73 133 79
338 l4 177 -37 18 -37 18 6 59 c3 32 6 70 6 83 l0 24 143 -3 142 -3 3 -146 3
-146 -52 -5 c-78 -8 -79 -11 -79 -223 0 -164 2 -184 18 -198 16 -14 43 -17
169 -17 200 0 188 -15 187 222 0 176 -1 181 -23 199 -14 12 -39 19 -64 19
l-40 0 6 83 c4 45 7 112 7 150 l0 67 170 0 170 0 0 -158 0 -158 -33 -12 c-39
-14 -91 -63 -115 -106 -11 -20 -17 -55 -17 -101 0 -59 4 -78 28 -118 47 -79
138 -124 225 -110 96 16 182 124 182 228 0 68 -39 147 -92 185 -22 16 -43 30
-47 32 -5 2 -6 73 -2 158 l6 155 65 5 c59 5 65 7 74 32 7 18 6 35 -2 53 -11
23 -16 25 -81 25 -62 0 -70 2 -85 25 -9 14 -25 25 -36 25 -10 0 -27 -11 -38
-25 l-20 -25 -180 0 -180 0 -16 25 c-10 15 -26 25 -41 25 -15 0 -31 -10 -41
-25z m61 -360 l-7 -115 55 0 c34 0 59 -5 66 -14 8 -9 11 -65 9 -177 l-3 -164
-150 0 -150 0 -3 158 c-1 97 2 165 8 177 9 17 21 20 72 20 l61 0 -6 115 -6
115 30 0 31 0 -7 -115z m473 0 l-5 -116 36 -19 c44 -22 86 -66 100 -103 17
-45 13 -117 -10 -165 -71 -145 -286 -124 -330 33 -31 111 20 205 134 245 l27
10 0 115 0 115 26 0 27 0 -5 -115z m-829 2 c11 -10 13 -37 7 -146 -8 -153 -27
-251 -58 -301 l-22 -35 -7 50 c-4 28 -8 142 -8 254 l-1 203 38 -7 c20 -4 43
-12 51 -18z"/>
<path d="M382 1708 l3 -1423 720 0 720 0 3 1423 2 1422 -725 0 -725 0 2 -1422z
m1408 0 c0 -1227 -2 -1388 -15 -1388 -8 0 -15 6 -15 13 0 6 -1 456 -2 999 l-3
988 -28 27 -27 28 -573 3 c-392 2 -584 0 -609 -8 -72 -21 -68 44 -68 -1060 0
-983 0 -990 -20 -990 -20 0 -20 7 -20 1383 0 761 2 1386 4 1388 2 2 313 4 690
4 l686 0 0 -1387z m-86 614 c15 -17 16 -89 14 -878 l-3 -859 -612 -3 -613 -2
0 864 0 865 22 15 c20 14 93 16 599 16 546 0 577 -1 593 -18z m16 -1887 l0
-115 -615 0 -615 0 0 115 0 115 615 0 615 0 0 -115z"/>
<path d="M512 3049 c-56 -17 -62 -45 -62 -309 0 -254 7 -292 55 -310 16 -6
245 -10 601 -10 644 0 624 -2 643 68 14 48 14 455 1 503 -20 70 -7 69 -642 68
-325 0 -577 -5 -596 -10z m1184 -43 c18 -14 19 -29 19 -271 0 -216 -2 -257
-15 -265 -9 -6 -248 -10 -597 -10 -515 0 -583 2 -597 16 -14 13 -16 51 -16
261 0 215 2 249 17 265 15 17 47 18 593 18 482 0 579 -2 596 -14z"/>
<path d="M1556 2918 c-13 -18 -16 -55 -16 -195 0 -160 2 -175 20 -193 25 -25
62 -26 83 -2 15 16 17 45 17 203 0 131 -4 189 -12 197 -21 21 -75 15 -92 -10z
m74 -189 c0 -81 -3 -154 -6 -163 -3 -9 -15 -16 -25 -16 -18 0 -19 10 -19 174
0 130 3 176 13 179 29 11 37 -26 37 -174z"/>
<path d="M1560 2190 c-19 -19 -20 -33 -20 -260 l0 -241 25 -25 c19 -19 31 -23
48 -18 47 14 47 13 47 279 0 231 -1 253 -18 268 -25 23 -58 21 -82 -3z m68
-256 c2 -194 0 -233 -12 -243 -8 -7 -20 -10 -26 -6 -11 7 -15 467 -3 479 4 4
14 5 23 4 13 -3 15 -35 18 -234z"/>
<path d="M5095 2578 c-16 -6 -41 -20 -55 -32 -14 -13 -55 -37 -92 -54 -163
-79 -249 -246 -218 -426 21 -125 71 -196 123 -177 39 15 42 34 23 130 -12 57
-16 108 -13 136 7 48 51 145 67 145 5 0 16 -12 24 -27 12 -24 12 -58 0 -233
-7 -113 -13 -217 -13 -232 l-1 -28 -261 0 -261 0 5 33 c3 17 9 59 12 92 12
112 13 115 49 115 30 0 34 4 39 33 3 17 9 47 13 65 6 31 6 32 -30 32 -35 0
-36 1 -36 40 l0 40 -262 -2 -263 -3 -3 -37 c-3 -35 -6 -38 -34 -38 l-31 0 7
-56 c8 -70 10 -74 46 -74 32 0 34 -6 45 -120 4 -36 9 -77 11 -92 l4 -28 -114
0 -114 0 23 58 c13 31 26 77 30 102 4 24 14 54 22 66 13 20 12 27 -6 62 -11
22 -35 50 -52 62 -34 25 -137 60 -175 60 -14 0 -24 6 -24 14 0 8 -11 27 -24
43 -43 50 -132 32 -156 -33 -7 -16 -20 -22 -61 -27 -84 -10 -154 -50 -178
-101 -25 -50 -26 -69 -7 -85 8 -6 17 -33 21 -59 4 -26 17 -73 30 -104 l23 -58
-637 -2 -636 -3 -3 -52 -3 -53 30 0 31 0 0 -689 0 -689 23 -6 c29 -8 5661 -8
5681 0 14 6 16 78 16 695 l0 688 48 3 c47 3 47 3 50 41 6 68 10 67 -289 67
l-269 0 0 221 0 220 -32 14 c-18 7 -95 32 -172 55 -112 34 -140 39 -147 28
-11 -16 -12 -179 -1 -194 4 -6 35 -14 70 -18 l62 -7 0 31 c0 33 6 35 61 18
l39 -11 0 -179 0 -178 -355 0 c-348 0 -355 0 -355 20 0 14 7 20 21 20 71 0
110 96 78 189 -12 33 -53 61 -90 61 -12 0 -19 3 -16 6 3 4 2 15 -4 25 -9 17
-23 19 -153 19 -126 0 -145 -2 -150 -17 -4 -9 -6 -85 -5 -167 l1 -151 -92 -3
c-81 -2 -91 -1 -88 14 2 9 19 22 38 28 63 20 89 115 53 191 -14 29 -26 39 -60
48 -30 8 -43 17 -45 31 -3 20 -9 21 -153 21 l-150 0 -3 -167 -2 -168 -54 0
-54 0 -7 138 c-16 282 -14 306 28 416 20 55 37 103 37 108 0 4 -19 17 -42 29
-24 12 -63 37 -87 57 -24 19 -60 41 -80 48 -43 16 -223 17 -266 2z m345 -125
c0 -21 7 -155 15 -298 8 -143 15 -286 15 -317 l0 -58 -245 0 -245 0 0 28 c0
36 28 494 36 594 5 68 8 77 27 81 12 2 106 5 210 6 l187 1 0 -37z m-465 -81
c-6 -41 -8 -43 -31 -38 -49 13 -104 -77 -120 -194 -4 -28 0 -68 10 -106 19
-74 21 -117 4 -112 -22 8 -49 53 -63 108 -42 156 7 297 136 394 l64 48 3 -28
c2 -15 1 -48 -3 -72z m2121 -131 l129 -38 3 -212 c2 -205 2 -211 -18 -211 -19
0 -20 8 -22 192 l-3 192 -75 23 c-41 13 -81 21 -87 18 -7 -2 -13 -18 -13 -35
0 -30 -11 -37 -44 -24 -12 5 -16 21 -16 70 0 35 4 64 8 64 5 0 67 -17 138 -39z
m-2670 -103 c-3 -29 -12 -104 -18 -165 l-12 -113 -191 0 -191 0 -13 138 c-7
75 -15 149 -18 165 l-5 27 227 0 228 0 -7 -52z m-813 12 c75 -11 118 -29 160
-68 33 -31 34 -48 5 -55 -87 -21 -574 -14 -596 8 -10 9 20 55 50 78 56 41 232
58 381 37z m2287 -220 l0 -150 -120 0 -120 0 0 150 0 150 120 0 120 0 0 -150z
m500 0 l0 -150 -120 0 -120 0 0 150 0 150 120 0 120 0 0 -150z m-2877 -15
l248 0 -6 -25 c-3 -14 -15 -44 -26 -67 l-21 -43 -216 0 c-120 0 -223 4 -230 8
-14 9 -52 103 -52 127 0 12 6 14 28 8 15 -5 139 -8 275 -8z m-395 -192 c3 -10
-115 -13 -567 -13 -502 0 -571 2 -571 15 0 13 67 15 567 13 442 -2 567 -6 571
-15z m1352 2 c0 -13 -80 -15 -660 -15 -580 0 -660 2 -660 15 0 13 80 15 660
15 580 0 660 -2 660 -15z m3310 0 c0 -13 -188 -15 -1635 -15 -1447 0 -1635 2
-1635 15 0 13 188 15 1635 15 1447 0 1635 -2 1635 -15z m-4662 -727 l-3 -673
-537 -3 -538 -2 0 675 0 675 540 0 540 0 -2 -672z m82 557 l0 -115 610 0 c574
0 610 1 611 18 1 9 2 22 4 27 1 6 3 49 3 98 2 80 4 87 22 87 20 0 20 -7 20
-675 l0 -675 -660 0 -660 0 0 675 0 675 25 0 25 0 0 -115z m1190 20 l0 -95
-565 0 c-311 0 -568 0 -572 0 -5 0 -9 43 -11 95 l-3 95 576 0 575 0 0 -95z
m2150 -580 l0 -675 -1015 0 -1015 0 0 675 0 675 1015 0 1015 0 0 -675z m1140
0 l0 -675 -550 0 -550 0 0 675 0 675 550 0 550 0 0 -675z"/>
<path d="M5183 2398 c-40 -19 -44 -52 -41 -290 3 -206 5 -228 22 -247 25 -28
77 -28 102 0 18 20 19 38 18 261 -1 221 -3 241 -20 258 -25 24 -54 31 -81 18z"/>
<path d="M2100 995 l0 -625 485 0 485 0 5 22 c3 13 4 293 3 623 l-3 600 -487
3 -488 2 0 -625z m938 406 l2 -181 -455 0 -455 0 0 178 c0 98 2 181 4 183 2 2
206 3 453 2 l448 -1 3 -181z m2 -406 l0 -185 -452 2 -453 3 -3 183 -2 182 455
0 455 0 0 -185z m0 -400 l0 -185 -455 0 -455 0 0 178 c0 98 3 182 7 185 3 4
208 7 455 7 l448 0 0 -185z"/>
<path d="M2339 1463 c-9 -2 -22 -15 -30 -29 -11 -22 -11 -30 2 -52 l15 -27
266 -3 c281 -2 278 -3 292 45 5 17 1 29 -18 48 l-25 25 -243 -1 c-134 -1 -250
-3 -259 -6z m506 -43 c4 -6 1 -17 -5 -25 -10 -12 -53 -15 -244 -15 -127 0
-237 4 -245 9 -8 5 -11 16 -8 25 6 14 36 16 251 16 159 0 247 -4 251 -10z"/>
<path d="M2326 1025 c-25 -25 -29 -54 -11 -81 l16 -24 267 2 267 3 12 25 c16
34 7 65 -23 79 -16 7 -110 11 -269 11 -204 0 -246 -2 -259 -15z m519 -45 c0
-13 -36 -15 -252 -18 -207 -2 -253 0 -253 11 0 8 3 17 7 21 4 3 117 5 252 4
211 -3 246 -5 246 -18z"/>
<path d="M2314 615 c-14 -21 -14 -30 -4 -54 6 -16 21 -32 33 -35 12 -3 129 -6
260 -6 l238 0 25 25 c18 19 23 31 19 48 -14 45 -24 47 -297 47 l-258 0 -16
-25z m526 -20 c26 -31 1 -35 -246 -35 -215 0 -245 2 -251 16 -3 9 0 20 8 25 8
5 118 9 245 9 191 0 234 -3 244 -15z"/>
<path d="M3315 1355 l-25 -24 0 -376 0 -376 25 -24 24 -25 476 0 476 0 24 25
25 24 0 374 c0 364 -1 375 -21 401 l-20 26 -480 0 -480 0 -24 -25z m959 -15
l26 -10 0 -375 0 -375 -26 -10 c-35 -14 -899 -13 -925 0 -18 10 -19 25 -19
385 0 346 1 375 18 384 23 14 891 15 926 1z"/>
<path d="M3542 1264 c-27 -19 -29 -64 -4 -87 16 -15 50 -17 274 -17 234 0 256
1 271 18 24 26 21 68 -5 86 -19 13 -62 16 -268 16 -206 0 -249 -3 -268 -16z
m518 -44 c0 -19 -7 -20 -250 -20 -243 0 -250 1 -250 20 0 19 7 20 250 20 243
0 250 -1 250 -20z"/>
<path d="M4592 1612 c-10 -7 -12 -138 -10 -623 l3 -614 955 0 955 0 0 620 0
620 -945 2 c-520 2 -951 -1 -958 -5z m1868 -187 l0 -155 -920 0 -920 0 0 155
0 155 920 0 920 0 0 -155z m0 -350 l0 -155 -920 0 -920 0 0 155 0 155 920 0
920 0 0 -155z m0 -425 l0 -240 -920 0 -920 0 0 240 0 240 920 0 920 0 0 -240z"/>
<path d="M5236 1449 c-30 -24 -34 -59 -8 -82 16 -15 51 -17 278 -17 189 0 263
3 272 12 18 18 14 73 -6 91 -16 15 -50 17 -264 17 -233 0 -247 -1 -272 -21z
m519 -29 c4 -6 1 -17 -5 -25 -10 -12 -53 -15 -244 -15 -127 0 -237 4 -245 9
-8 5 -11 16 -8 25 6 14 36 16 251 16 159 0 247 -4 251 -10z"/>
<path d="M5243 1110 c-30 -12 -39 -54 -19 -85 l16 -25 265 0 c251 0 265 1 275
19 17 32 12 69 -12 85 -19 14 -61 16 -263 15 -132 0 -250 -4 -262 -9z m514
-46 c3 -9 0 -20 -8 -25 -18 -11 -470 -11 -488 0 -8 5 -11 16 -8 25 6 14 36 16
252 16 216 0 246 -2 252 -16z"/>
<path d="M5226 698 c-21 -30 -20 -54 4 -78 19 -19 33 -20 273 -20 233 0 255 1
270 18 21 23 22 66 1 86 -13 14 -52 16 -274 16 -256 0 -259 0 -274 -22z m529
-38 c0 -13 -35 -15 -248 -18 -220 -2 -248 -1 -254 14 -3 9 -1 19 5 23 5 3 120
4 254 1 207 -4 243 -7 243 -20z"/>
<path d="M6640 995 l0 -625 498 2 497 3 3 623 2 622 -500 0 -500 0 0 -625z
m523 585 l437 0 0 -585 0 -585 -465 0 -465 0 0 583 c0 321 3 587 7 591 4 4 17
5 28 2 11 -3 217 -6 458 -6z"/>
<path d="M7427 1282 c-15 -16 -17 -50 -17 -273 0 -140 4 -259 8 -266 4 -6 20
-17 35 -22 24 -9 31 -8 53 14 l24 24 0 248 c0 209 -2 252 -16 271 -19 27 -64
29 -87 4z m63 -271 c0 -204 -3 -250 -14 -254 -8 -3 -17 -3 -20 0 -3 4 -6 118
-6 255 0 241 1 248 20 248 19 0 20 -7 20 -249z"/>
</g>
</svg>
