<?xml version="1.0" standalone="no"?>
<!DOCTYPE svg PUBLIC "-//W3C//DTD SVG 20010904//EN"
 "http://www.w3.org/TR/2001/REC-SVG-20010904/DTD/svg10.dtd">
<svg version="1.0" xmlns="http://www.w3.org/2000/svg"
 width="720.000000pt" height="880.000000pt" viewBox="0 0 720.000000 880.000000"
 preserveAspectRatio="xMidYMid meet">
<metadata>
Created by potrace 1.16, written by Peter Selinger 2001-2019
</metadata>
<g transform="translate(0.000000,880.000000) scale(0.100000,-0.100000)"
fill="#000000" stroke="none">
<path d="M2039 8296 c-6 -7 -97 -18 -644 -81 -508 -58 -486 -55 -490 -69 -2
-6 -5 -91 -7 -189 -2 -147 -1 -177 11 -177 12 0 13 -211 7 -1457 -7 -1766 -9
-5002 -2 -5023 3 -8 10 -141 16 -295 12 -330 16 -362 38 -374 17 -9 98 -16
842 -72 234 -17 427 -35 430 -40 3 -4 154 -11 335 -15 285 -6 332 -5 342 8 9
11 13 89 15 279 l3 264 618 3 c489 2 618 0 622 -10 2 -7 11 -101 20 -208 17
-202 22 -220 64 -220 9 0 88 -7 176 -15 88 -8 266 -24 395 -35 129 -11 357
-32 506 -45 225 -21 328 -25 615 -25 255 0 348 3 357 12 9 9 12 887 12 3889
l0 3877 -242 6 c-334 8 -4032 19 -4039 12z m71 -154 c0 -105 -2 -118 -19 -129
-22 -14 -82 -24 -631 -109 -52 -8 -122 -19 -155 -24 -33 -5 -121 -19 -195 -30
-74 -12 -143 -23 -152 -26 -17 -5 -18 7 -18 149 l0 154 78 7 c42 4 293 33 557
66 264 32 492 58 508 59 l27 1 0 -118z m4173 99 c4 -4 6 -52 5 -107 l-3 -99
-1475 -7 c-811 -4 -1743 -7 -2070 -5 l-595 2 -3 119 -3 118 2068 -7 c1137 -4
2072 -10 2076 -14z m-2135 -1848 c1 -1060 -1 -1593 -8 -1593 -5 0 -10 6 -10
14 0 8 -14 24 -31 36 -36 26 -98 29 -131 6 -12 -9 -26 -16 -30 -16 -5 0 -8
549 -8 1220 l0 1220 -24 60 c-53 130 -209 310 -354 409 -257 174 -549 200
-805 70 -50 -26 -171 -107 -211 -143 -16 -14 -34 -26 -40 -26 -7 0 -19 -12
-28 -27 -9 -16 -41 -58 -70 -95 -112 -140 -168 -307 -124 -369 15 -21 16 -256
16 -2714 l1 -2690 20 -25 21 -25 752 -3 c413 -2 766 0 784 3 66 12 62 -97 62
1498 0 862 4 1447 10 1447 5 0 12 -4 15 -10 3 -5 23 -14 45 -20 49 -13 97 4
128 46 l21 29 1 -1787 0 -1788 -609 0 -610 0 -3 28 -3 27 -375 7 c-206 3 -390
9 -407 13 l-33 7 0 3394 0 3394 1018 -2 1017 -3 3 -1592z m2136 1581 c3 -8 5
-1542 3 -3407 l-2 -3392 -311 -3 c-337 -2 -336 -2 -336 -57 l0 -25 -723 0
-723 0 -6 23 c-8 29 -8 6841 0 6861 6 14 116 16 1049 16 941 0 1043 -2 1049
-16z m-4214 -3389 c0 -1964 -4 -3375 -9 -3375 -5 0 -44 6 -87 14 -44 8 -110
19 -149 25 -118 18 -501 80 -666 106 -85 14 -172 26 -192 27 l-37 1 6 3196 c4
1758 9 3199 13 3203 3 4 213 39 466 77 481 73 593 91 610 96 6 2 18 4 28 4 16
1 17 -166 17 -3374z m973 3017 c-1 -141 -3 -265 -3 -274 0 -19 -14 -11 -225
125 -49 32 -132 85 -183 118 l-94 59 54 45 c122 101 303 182 413 184 l40 1 -2
-258z m95 -54 l2 -308 -35 0 -35 0 0 311 0 310 33 -3 32 -3 3 -307z m120 297
c35 -8 96 -30 137 -49 81 -37 198 -113 193 -125 -2 -5 -55 -51 -118 -103 -121
-98 -276 -224 -297 -241 -10 -7 -13 46 -13 262 0 309 -11 281 98 256z m392
-245 c0 -4 -39 -40 -87 -79 -49 -40 -106 -88 -128 -106 -257 -212 -279 -225
-273 -161 3 30 23 50 223 214 l220 180 23 -21 c12 -11 22 -24 22 -27z m-1127
9 c28 -15 272 -170 447 -285 67 -43 75 -52 72 -76 -3 -21 -9 -28 -25 -28 -12
0 -132 70 -267 156 -135 86 -255 162 -267 170 -21 13 -22 15 -5 44 20 35 17
33 45 19z m1262 -134 c58 -81 105 -178 108 -221 l2 -35 -319 1 c-176 0 -322 3
-325 6 -3 3 4 13 16 22 11 9 63 52 114 94 52 42 141 115 199 162 l105 85 28
-27 c16 -15 48 -54 72 -87z m-1208 -17 c62 -40 160 -104 218 -141 58 -37 112
-70 120 -74 48 -18 -14 -23 -278 -23 -245 0 -296 -2 -314 -15 -71 -50 -18 135
77 268 23 31 46 57 53 57 7 0 63 -33 124 -72z m1311 -295 c9 -13 12 -571 12
-2710 0 -2652 0 -2692 -19 -2703 -13 -7 -275 -10 -779 -10 l-759 0 -11 25
c-18 39 -17 5375 1 5397 6 9 23 18 37 20 14 2 358 2 765 1 684 -3 741 -4 753
-20z m203 -2341 c28 -25 32 -35 31 -78 0 -41 -5 -53 -31 -76 -42 -38 -84 -37
-122 1 -24 25 -29 38 -29 79 0 44 4 54 31 76 40 34 80 34 120 -2z m-3006
-3493 c38 -5 153 -23 255 -39 382 -62 628 -101 725 -116 55 -8 110 -18 123
-22 l22 -7 2 -290 1 -290 -29 2 c-188 16 -472 37 -754 58 -481 35 -450 31
-450 63 0 44 -19 459 -26 566 l-6 99 34 -7 c18 -4 64 -11 103 -17z m1813 -485
l-3 -307 -185 3 c-102 1 -246 5 -320 9 l-135 6 -3 285 c-1 157 0 290 3 297 3
10 76 13 325 13 l320 0 -2 -306z m3390 6 c1 -151 0 -285 -3 -297 l-5 -22 -303
2 -302 2 -3 298 -2 297 307 -2 308 -3 3 -275z m-658 -39 c0 -132 3 -246 6
-255 8 -22 -2 -22 -453 19 -213 19 -496 44 -628 55 -132 11 -256 24 -275 28
l-35 7 -12 140 c-6 77 -12 164 -12 193 l-1 52 705 0 705 0 0 -239z"/>
<path d="M5135 7887 c-113 -30 -198 -68 -295 -133 -136 -91 -266 -236 -336
-377 l-36 -70 2 -1245 1 -1244 -31 26 c-24 20 -43 26 -77 26 -39 0 -50 -5 -79
-36 -29 -30 -34 -42 -34 -86 0 -115 113 -174 192 -100 l28 25 2 -1462 3 -1463
28 -24 28 -24 764 0 764 0 28 24 28 24 7 2724 c3 1497 7 2742 8 2765 3 90 -77
230 -211 368 -124 128 -244 206 -404 263 -57 20 -94 25 -200 28 -86 2 -147 -1
-180 -9z m175 -337 l0 -320 -35 0 -35 0 0 320 0 320 35 0 35 0 0 -320z m229
269 c68 -25 191 -89 191 -99 0 -4 -17 -22 -38 -41 -20 -19 -107 -98 -194 -176
-86 -79 -159 -143 -162 -143 -7 0 -8 495 -1 502 9 9 141 -19 204 -43z m-328
-171 c1 -117 2 -226 3 -243 0 -19 -3 -29 -12 -27 -7 1 -70 39 -140 85 -70 45
-164 107 -210 136 -80 52 -82 55 -65 73 47 52 222 142 336 173 95 25 87 43 88
-197z m579 -1 c0 -4 -336 -311 -422 -387 l-38 -32 0 45 0 45 211 191 210 192
20 -25 c10 -13 19 -26 19 -29z m104 -64 c83 -85 142 -168 176 -250 38 -91 40
-159 4 -123 -6 6 -146 11 -359 12 l-349 3 210 190 c115 104 218 198 228 207
11 10 23 18 26 18 4 0 33 -26 64 -57z m-1054 -4 c289 -185 370 -243 370 -265
0 -12 3 -29 6 -38 9 -23 -7 -20 -57 13 -24 16 -132 86 -239 156 -107 70 -194
132 -192 138 7 23 35 47 46 39 6 -5 36 -24 66 -43z m35 -134 c83 -53 189 -123
237 -154 48 -31 88 -59 88 -63 0 -5 -153 -8 -339 -8 -234 0 -342 -3 -347 -11
-4 -7 -10 -7 -16 -1 -23 23 42 183 113 276 77 101 71 97 94 76 11 -10 88 -62
170 -115z m1189 -271 c15 -6 16 -253 16 -2708 0 -2088 -3 -2705 -12 -2714 -17
-17 -1529 -17 -1546 0 -17 17 -17 5399 0 5416 9 9 194 12 769 12 417 0 764 -3
773 -6z m-1653 -2334 c27 -15 49 -62 49 -105 0 -80 -100 -126 -155 -71 -82 82
6 229 106 176z"/>
</g>
</svg>
