<?xml version="1.0" standalone="no"?>
<!DOCTYPE svg PUBLIC "-//W3C//DTD SVG 20010904//EN"
 "http://www.w3.org/TR/2001/REC-SVG-20010904/DTD/svg10.dtd">
<svg version="1.0" xmlns="http://www.w3.org/2000/svg"
 width="718.000000pt" height="607.000000pt" viewBox="0 0 718.000000 607.000000"
 preserveAspectRatio="xMidYMid meet">
<metadata>
Created by potrace 1.16, written by Peter Selinger 2001-2019
</metadata>
<g transform="translate(0.000000,607.000000) scale(0.100000,-0.100000)"
fill="#000000" stroke="none">
<path d="M1935 6064 c-91 -22 -119 -32 -185 -65 -41 -21 -115 -71 -165 -110
-49 -39 -102 -77 -117 -85 -16 -8 -74 -19 -131 -24 -180 -17 -257 -45 -340
-120 -51 -46 -53 -47 -137 -53 -160 -11 -248 -57 -338 -175 -104 -137 -184
-180 -366 -195 -89 -7 -126 -14 -139 -26 -17 -16 -17 -58 -7 -857 6 -461 14
-1170 19 -1574 l9 -734 28 -23 c15 -12 45 -25 65 -28 34 -6 336 19 368 30 7 3
22 -5 33 -17 18 -21 199 -216 243 -262 11 -12 72 -78 135 -146 63 -69 147
-159 187 -200 39 -41 81 -86 93 -100 12 -14 83 -90 158 -168 146 -154 172
-189 172 -238 0 -30 4 -56 35 -224 9 -47 21 -176 29 -286 l12 -201 50 -64 c80
-105 101 -121 154 -116 70 6 364 68 375 78 6 6 10 95 10 227 l0 216 30 15 c17
8 37 17 45 21 8 3 29 32 45 64 26 50 39 63 90 90 52 29 95 72 107 108 2 6 49
17 103 24 55 7 188 24 295 39 107 14 330 43 495 65 165 22 455 60 645 85 190
26 462 62 605 80 143 19 465 62 715 95 250 33 574 76 720 95 146 19 305 40
354 47 71 10 90 10 94 0 10 -31 57 -73 93 -84 28 -8 45 -21 56 -42 18 -34 37
-52 69 -66 24 -10 34 -51 34 -141 0 -31 3 -84 6 -117 6 -57 9 -63 42 -83 36
-20 37 -20 176 -5 98 12 145 21 158 33 17 15 18 52 18 674 0 470 -3 665 -11
683 -14 30 -18 32 -149 65 -69 17 -104 31 -102 39 1 7 7 117 13 245 13 276 2
532 -25 585 -27 52 -79 78 -256 125 -313 84 -1071 253 -1470 327 -63 12 -196
37 -295 55 -174 33 -373 69 -750 136 -99 17 -184 35 -188 39 -5 4 -12 311 -15
682 -6 535 -10 678 -20 691 -8 10 -38 18 -80 23 -96 10 -190 36 -239 67 -26
16 -65 58 -99 107 -86 124 -150 162 -295 175 -72 7 -79 9 -124 52 -75 69 -137
94 -307 122 -100 17 -145 41 -244 127 -172 150 -261 189 -454 198 -63 3 -124
3 -135 0z m269 -49 c65 -17 196 -82 196 -97 0 -5 -12 -1 -27 10 -81 56 -174
83 -295 83 -147 0 -266 -50 -423 -179 -100 -81 -138 -98 -245 -107 -170 -14
-300 -66 -361 -143 -18 -23 -29 -26 -122 -33 -157 -11 -225 -47 -312 -165 -57
-76 -116 -130 -180 -162 -45 -23 -156 -42 -242 -42 -32 0 -64 -4 -72 -9 -11
-7 -13 -89 -7 -512 3 -277 8 -776 11 -1109 3 -333 8 -812 11 -1065 3 -253 3
-457 0 -454 -8 7 -21 1016 -32 2320 l-7 836 103 8 c178 12 283 60 372 167 130
159 194 196 353 205 89 6 91 6 135 47 92 85 160 110 342 126 122 10 137 17
240 97 132 105 230 160 325 182 61 14 174 12 237 -4z m-13 -29 c109 -23 173
-62 301 -181 72 -67 129 -97 228 -119 177 -40 204 -48 239 -66 20 -10 59 -41
86 -68 l50 -49 86 -5 c130 -8 184 -41 273 -165 74 -104 135 -141 276 -168 47
-9 94 -18 106 -20 21 -5 21 -5 29 -616 4 -336 4 -613 1 -616 -3 -3 -8 8 -11
23 -4 16 -19 70 -35 119 l-28 90 -7 442 c-6 315 -11 446 -19 452 -7 6 -34 15
-61 21 -114 26 -209 96 -327 241 -50 63 -90 80 -193 82 -47 1 -85 4 -85 7 0
14 -84 92 -119 109 -21 11 -99 36 -174 55 -162 42 -224 72 -342 166 -138 110
-203 143 -317 160 -69 10 -169 -8 -243 -45 -27 -13 -110 -67 -183 -119 -149
-107 -204 -129 -351 -141 -46 -4 -96 -11 -110 -17 -14 -5 -63 -45 -107 -89
l-82 -79 -111 0 c-77 0 -121 -4 -139 -14 -15 -8 -57 -48 -94 -89 -109 -121
-241 -203 -383 -238 -27 -6 -56 -16 -63 -22 -10 -8 -13 -186 -13 -886 -1 -482
-1 -889 -2 -906 0 -16 3 -81 8 -144 l8 -113 -22 7 c-26 8 -88 -11 -99 -32 -12
-21 -21 390 -28 1375 l-7 832 44 0 c86 0 227 27 282 55 54 26 102 71 210 199
74 86 173 126 314 126 49 0 56 3 107 50 90 80 155 104 329 119 123 11 141 19
272 125 177 143 330 189 506 152z m314 -152 c110 -94 154 -113 310 -139 107
-17 175 -49 245 -113 52 -49 58 -51 110 -52 68 0 148 -21 195 -50 19 -12 67
-64 105 -115 63 -85 75 -96 142 -129 50 -25 98 -39 153 -47 44 -6 89 -13 101
-15 20 -4 21 -9 27 -350 9 -445 9 -1009 0 -1001 -3 4 -9 302 -12 663 -7 748 4
677 -105 688 -152 15 -229 59 -316 178 -90 123 -152 158 -278 158 l-64 0 -65
60 c-73 67 -126 90 -254 114 -148 28 -203 53 -295 133 -45 40 -86 78 -90 85
-10 16 10 1 91 -68z m-310 21 c66 -17 184 -81 231 -124 111 -103 202 -150 375
-192 147 -36 206 -65 255 -123 l36 -44 92 -4 c50 -3 104 -11 119 -18 16 -8 60
-54 98 -103 90 -114 180 -172 317 -207 l42 -11 0 -68 c0 -37 3 -124 6 -192 4
-72 3 -121 -2 -116 -5 5 -11 88 -14 184 -4 143 -8 177 -20 184 -8 4 -46 17
-84 29 -94 29 -171 86 -250 184 -82 104 -105 116 -225 116 -50 0 -91 4 -91 9
0 18 -80 91 -122 111 -24 11 -96 34 -162 50 -155 38 -220 70 -341 169 -166
134 -285 177 -422 152 -89 -16 -167 -57 -303 -156 -137 -101 -186 -121 -325
-135 -128 -12 -165 -29 -236 -109 -62 -71 -88 -84 -166 -81 -158 6 -145 11
-252 -98 -58 -58 -126 -116 -171 -144 -75 -47 -194 -98 -229 -98 -10 0 -25 -8
-34 -18 -15 -17 -17 -88 -20 -768 l-2 -749 0 770 0 769 55 12 c136 28 250 97
386 234 52 53 102 94 122 101 20 6 61 8 105 4 94 -9 131 6 200 80 75 82 99 94
213 105 164 16 214 36 364 149 197 147 311 183 455 146z m32 -66 c57 -22 140
-69 185 -107 13 -11 45 -39 72 -61 72 -62 150 -97 302 -136 153 -39 208 -66
248 -123 l27 -39 102 -5 c116 -5 136 -14 184 -81 82 -112 194 -197 303 -228
71 -20 70 -18 70 -156 0 -116 -1 -124 -17 -117 -25 13 -193 11 -443 -4 -341
-20 -687 -32 -921 -32 -119 0 -285 -7 -370 -15 -653 -62 -655 -62 -1084 -11
-110 14 -241 27 -291 31 -198 14 -217 -20 -118 -217 62 -124 75 -184 99 -453
17 -197 19 -265 6 -297 -5 -13 -12 -35 -15 -49 -5 -24 -14 -28 -83 -44 -43
-10 -93 -29 -111 -42 l-32 -24 2 702 3 702 50 12 c117 26 287 134 381 240 78
89 93 96 212 94 64 -1 106 2 122 11 14 7 53 44 88 81 72 78 84 83 237 97 125
13 177 35 315 137 164 120 239 153 352 154 46 1 86 -6 125 -20z m-2163 -1166
c4 -313 8 -705 11 -873 13 -891 17 -1704 7 -1695 -6 6 -14 357 -21 970 -23
1878 -25 2165 -14 2165 7 0 13 -186 17 -567z m3251 67 c-95 -11 -510 -29 -845
-36 -151 -4 -283 -11 -292 -15 -9 -5 -19 -24 -21 -42 -3 -24 -4 -21 -5 16 -2
38 1 47 16 48 9 1 136 3 282 5 146 2 387 10 535 17 149 8 299 14 335 14 l65 0
-70 -7z m378 -42 c17 -23 19 -41 18 -135 -1 -59 3 -171 9 -248 9 -133 21 -191
87 -407 6 -21 -32 -26 -342 -37 -178 -7 -243 -6 -252 2 -13 14 -49 132 -89
294 -15 64 -42 140 -63 180 l-36 68 -406 -3 -406 -4 -17 105 c-9 58 -16 119
-16 135 l0 29 218 7 c336 10 746 27 862 36 58 4 174 7 259 6 l154 -1 20 -27z
m-2808 -7 c105 -12 226 -26 269 -31 122 -15 213 -12 595 20 195 16 356 28 358
26 6 -5 -67 -13 -431 -46 l-339 -31 -256 26 c-447 46 -597 56 -614 38 -4 -3
10 -38 31 -77 64 -119 81 -174 102 -331 37 -269 42 -329 37 -425 -5 -99 -27
-197 -35 -152 -2 13 1 37 7 54 22 62 11 307 -25 557 -15 103 -22 127 -75 234
-58 117 -67 146 -51 162 10 11 206 0 427 -24z m40 -37 c355 -41 443 -42 815
-4 232 23 360 33 366 28 8 -8 34 -261 28 -270 -3 -5 -86 -8 -185 -8 -166 0
-180 -1 -199 -20 -25 -25 -25 -43 1 -100 26 -58 151 -491 144 -499 -3 -3 -41
-4 -83 -3 -88 4 -354 -20 -552 -48 -175 -25 -410 -48 -530 -52 l-95 -3 2 25
c0 14 6 70 12 124 9 79 8 127 -4 235 -41 367 -55 428 -132 564 -18 33 -33 61
-33 63 0 9 244 -9 445 -32z m2073 -273 c25 -16 64 -116 103 -271 49 -189 64
-233 102 -288 64 -96 79 -164 39 -176 -35 -11 -212 -25 -382 -30 -190 -5 -141
1 185 24 99 7 186 17 193 22 23 19 12 55 -38 133 -52 79 -56 90 -116 340 -26
108 -49 170 -80 210 -15 19 -25 20 -342 16 -180 -1 -444 -6 -586 -10 -230 -5
-260 -8 -270 -23 -8 -13 -7 -26 3 -50 22 -54 86 -264 147 -485 31 -114 64
-216 73 -227 15 -17 15 -18 -3 -15 -24 5 -30 22 -126 364 -45 160 -93 317
-106 349 -41 101 -62 93 249 101 149 3 394 10 542 14 393 11 399 11 413 2z m5
-68 c31 -49 49 -105 93 -291 29 -123 43 -163 71 -205 47 -69 63 -102 63 -126
0 -24 4 -23 -415 -51 -170 -11 -380 -29 -465 -40 -85 -10 -189 -22 -231 -26
l-77 -6 -16 43 c-8 24 -43 143 -76 264 -34 121 -77 266 -96 322 -38 112 -40
128 -21 136 7 3 136 6 287 6 151 1 276 4 279 6 2 3 134 5 293 5 l288 0 23 -37z
m1167 -523 c940 -170 1432 -267 1965 -389 523 -120 688 -166 724 -205 19 -21
24 -41 32 -128 18 -223 4 -670 -24 -755 -14 -44 -5 -41 -262 -67 -88 -9 -198
-21 -245 -26 -47 -5 -155 -16 -240 -25 -85 -9 -191 -20 -235 -25 -44 -6 -188
-21 -320 -35 -421 -43 -701 -72 -1280 -135 -263 -28 -435 -46 -760 -80 -159
-17 -310 -33 -335 -35 -99 -11 -518 -56 -745 -79 -132 -14 -298 -32 -370 -40
-219 -26 -227 -25 -326 26 -59 31 -108 66 -151 109 -36 35 -96 90 -135 122
-38 32 -78 66 -89 75 -10 10 -46 40 -79 66 -33 27 -103 85 -155 130 -52 45
-106 90 -119 101 -14 11 -57 47 -95 80 -67 57 -292 246 -345 290 -14 11 -43
36 -65 55 -23 20 -64 54 -91 77 -41 34 -55 53 -73 105 -52 149 -65 298 -37
442 29 154 63 194 182 216 63 12 65 12 91 -13 15 -13 37 -28 50 -32 35 -10
309 12 638 51 214 26 339 36 469 37 l178 2 23 -79 c35 -118 38 -120 159 -112
55 3 161 15 235 25 74 11 245 25 380 31 338 16 524 34 555 54 31 20 33 72 6
133 l-19 41 101 6 c144 8 451 22 522 24 34 1 158 -16 285 -38z m-3908 -799 c2
-4 75 -69 164 -142 232 -194 468 -392 474 -399 6 -6 168 -143 226 -190 23 -19
138 -116 255 -215 l213 -179 -32 -8 c-50 -13 -71 -71 -92 -254 -12 -102 -11
-113 27 -471 3 -29 2 -53 -3 -52 -5 1 -38 33 -74 73 -36 39 -128 139 -205 221
-309 330 -286 306 -420 451 -60 65 -146 157 -190 204 -78 83 -322 350 -384
420 -47 53 -53 91 -49 309 3 217 9 241 58 241 15 0 30 -4 32 -9z m28 -782 c0
-131 2 -129 -86 -129 l-41 0 -7 180 c-4 98 -4 185 0 191 5 8 29 -11 70 -57
l63 -69 1 -116z m6739 70 c49 -11 96 -28 103 -36 10 -13 14 -145 16 -648 1
-371 -1 -642 -7 -657 -8 -22 -17 -25 -126 -37 -64 -7 -119 -10 -122 -7 -3 3
-12 74 -19 158 -7 84 -15 161 -19 170 -4 10 -29 31 -56 48 -37 23 -49 36 -49
55 0 27 -27 48 -74 59 -16 4 -43 21 -60 38 -34 34 -52 36 -166 18 -59 -9 -634
-85 -1210 -160 -287 -38 -455 -60 -832 -110 -166 -23 -438 -58 -603 -80 -463
-61 -746 -98 -910 -121 -82 -11 -208 -28 -279 -37 l-130 -17 -26 -45 c-20 -34
-40 -52 -85 -76 -52 -26 -64 -38 -91 -90 -25 -48 -39 -63 -76 -81 -66 -31 -70
-47 -66 -274 l3 -194 -177 -36 c-118 -23 -184 -32 -199 -27 -25 9 -44 29 -99
103 l-37 50 -12 180 c-7 98 -20 229 -31 289 -40 235 -90 686 -90 811 0 73 21
207 40 263 10 27 17 32 43 32 32 0 187 -68 187 -82 0 -4 -9 -12 -20 -18 -11
-6 -20 -20 -20 -30 0 -24 4 -25 35 -4 17 11 84 22 212 35 218 22 739 77 1133
119 151 16 385 41 520 55 135 14 301 32 370 40 69 8 179 19 245 25 66 6 172
18 235 25 63 8 187 21 275 30 142 14 290 29 615 65 52 6 203 22 335 35 270 28
450 47 705 75 96 11 247 26 335 35 212 21 235 25 235 41 0 10 -13 14 -40 14
-22 0 -40 5 -40 10 0 15 28 12 129 -11z"/>
<path d="M620 3431 c0 -6 156 -103 348 -217 191 -113 361 -215 377 -225 117
-75 300 -179 308 -176 12 4 -34 33 -563 347 -234 139 -435 259 -447 266 -13 8
-23 10 -23 5z"/>
<path d="M5830 3043 c-41 -4 -777 -69 -1275 -113 -1057 -92 -1436 -127 -1443
-135 -9 -9 52 -6 276 15 279 25 862 77 1017 90 66 6 264 24 440 40 176 15 488
43 693 61 204 19 372 37 372 41 0 8 -14 8 -80 1z"/>
<path d="M1832 2688 c-54 -69 -98 -283 -132 -648 -23 -244 -23 -258 -11 -245
5 6 14 82 20 170 18 242 49 456 87 595 16 61 44 120 56 120 5 0 8 5 8 10 0 14
-16 12 -28 -2z"/>
<path d="M260 2861 c0 -5 136 -125 303 -268 166 -143 401 -345 521 -449 289
-249 286 -247 286 -236 0 11 -148 142 -510 452 -118 101 -262 225 -319 275
-196 170 -273 235 -277 235 -2 0 -4 -4 -4 -9z"/>
<path d="M6500 2120 c-289 -32 -635 -70 -770 -84 -135 -15 -303 -33 -375 -41
-156 -18 -817 -90 -965 -105 -58 -6 -181 -19 -275 -30 -161 -19 -313 -35
-1195 -130 -206 -22 -454 -49 -550 -60 -96 -10 -205 -22 -242 -26 -38 -3 -68
-11 -68 -16 0 -5 19 -7 42 -4 24 4 167 19 318 36 793 85 1041 112 1205 130 99
11 286 31 415 45 129 14 314 34 410 45 96 11 222 24 280 30 58 6 182 19 275
30 94 10 296 33 450 49 1470 159 1605 174 1605 183 0 11 38 14 -560 -52z"/>
<path d="M1741 1183 c0 -192 4 -413 10 -493 5 -80 12 -257 16 -393 3 -151 10
-244 15 -239 6 6 5 119 -3 288 -7 154 -14 483 -16 732 -3 274 -8 452 -14 452
-5 0 -9 -136 -8 -347z"/>
</g>
</svg>
