<?xml version="1.0" standalone="no"?>
<!DOCTYPE svg PUBLIC "-//W3C//DTD SVG 20010904//EN"
 "http://www.w3.org/TR/2001/REC-SVG-20010904/DTD/svg10.dtd">
<svg version="1.0" xmlns="http://www.w3.org/2000/svg"
 width="761.000000pt" height="607.000000pt" viewBox="0 0 761.000000 607.000000"
 preserveAspectRatio="xMidYMid meet">
<metadata>
Created by potrace 1.16, written by Peter Selinger 2001-2019
</metadata>
<g transform="translate(0.000000,607.000000) scale(0.100000,-0.100000)"
fill="#000000" stroke="none">
<path d="M3725 5934 c-22 -2 -98 -8 -170 -14 -203 -16 -416 -47 -595 -85 -36
-7 -92 -19 -125 -25 -33 -7 -80 -18 -105 -25 -108 -31 -258 -77 -292 -91 -21
-8 -57 -21 -80 -30 -137 -51 -338 -146 -436 -206 -34 -21 -67 -38 -72 -38 -6
0 -10 -3 -10 -7 0 -5 -20 -21 -45 -36 -25 -16 -45 -33 -45 -38 0 -5 -7 -9 -15
-9 -8 0 -15 -4 -15 -9 0 -6 -14 -18 -30 -28 -17 -9 -30 -23 -30 -29 0 -7 -6
-14 -13 -17 -16 -6 -59 -109 -80 -192 -24 -92 -38 -215 -44 -382 -3 -84 -9
-153 -12 -153 -11 0 -66 -55 -85 -84 -30 -47 -45 -133 -46 -259 0 -118 19
-227 41 -227 5 0 9 -5 9 -11 0 -14 67 -74 107 -96 l32 -17 -57 -65 c-31 -36
-67 -76 -79 -89 -12 -13 -45 -54 -74 -93 -29 -38 -57 -69 -61 -69 -4 0 -8 -6
-8 -12 0 -7 -14 -27 -30 -45 -17 -18 -30 -35 -30 -39 0 -4 -6 -12 -13 -18 -11
-9 -148 -208 -182 -264 -5 -9 -28 -46 -51 -82 -22 -36 -44 -72 -47 -80 -4 -8
-16 -28 -27 -45 -38 -58 -260 -515 -260 -536 0 -5 -4 -17 -10 -27 -10 -17 -18
-39 -66 -182 -34 -98 -53 -222 -61 -397 -7 -154 -6 -152 -72 -153 -54 0 -216
-60 -265 -97 -69 -54 -88 -93 -83 -170 4 -51 10 -69 36 -101 62 -79 194 -112
303 -78 67 21 121 47 131 64 12 19 30 15 64 -16 17 -16 48 -38 69 -48 38 -19
94 -54 104 -64 10 -10 45 -31 63 -36 9 -4 17 -10 17 -15 0 -5 7 -9 15 -9 8 0
15 -7 15 -15 0 -8 -4 -15 -10 -15 -5 0 -21 -21 -36 -46 -23 -39 -26 -53 -21
-102 6 -53 9 -59 67 -114 34 -32 67 -58 73 -58 6 0 18 -6 26 -13 20 -17 149
-69 221 -90 113 -32 342 -67 437 -67 30 0 32 -1 26 -33 -11 -68 64 -171 160
-219 107 -53 260 -113 362 -142 33 -10 75 -22 93 -28 18 -5 61 -14 95 -19 34
-5 89 -14 122 -19 146 -23 409 -6 534 36 38 12 49 12 90 0 147 -46 167 -50
291 -49 89 0 142 5 180 17 133 41 157 48 195 63 40 16 49 19 160 69 92 40 300
145 321 161 11 9 46 28 139 77 33 17 65 36 71 42 7 6 27 17 46 25 18 7 39 19
46 26 7 7 19 13 27 13 7 0 15 4 17 8 3 8 47 35 143 87 28 15 57 34 66 41 8 8
19 14 24 14 5 0 16 6 24 14 14 11 45 30 156 91 11 6 39 23 62 38 24 15 45 27
47 27 3 0 25 14 49 30 25 17 49 30 55 30 6 0 12 3 14 8 4 9 126 82 138 82 5 0
10 4 12 8 2 5 32 26 68 48 36 21 67 41 70 44 7 7 43 29 60 37 8 3 31 19 51 35
20 15 41 28 47 28 6 0 12 3 14 8 4 8 65 52 73 52 3 0 11 5 18 10 7 6 44 32 82
60 39 27 75 54 82 60 7 5 17 10 23 10 5 0 10 4 10 8 0 14 99 82 119 82 11 0
48 -7 83 -16 71 -19 219 -14 298 9 72 20 160 69 189 103 19 24 37 33 71 38 77
11 140 69 140 129 0 16 5 27 14 27 7 0 28 14 45 32 26 27 31 40 31 80 0 34 6
54 19 67 26 26 36 82 22 121 -9 28 -8 35 13 57 30 32 39 78 31 148 -6 41 -3
59 9 77 19 27 21 115 4 153 -9 19 -9 28 0 37 16 16 15 110 0 127 -10 11 -10
14 0 18 6 3 12 11 12 18 0 7 5 15 11 17 20 7 23 93 4 122 -16 24 -17 33 -5 81
11 47 11 62 -3 112 -16 54 -16 58 2 78 41 45 81 152 81 216 0 37 2 39 43 49
23 6 50 14 60 16 25 8 127 104 127 120 0 8 4 14 9 14 5 0 19 28 32 63 21 53
24 80 24 182 -1 128 -15 179 -66 234 -19 20 -20 29 -14 107 8 88 -8 288 -27
359 -6 22 -14 58 -19 80 -12 65 -86 245 -101 245 -5 0 -8 7 -8 15 0 8 -4 15
-10 15 -5 0 -24 15 -42 33 -37 36 -243 197 -253 197 -3 0 -15 8 -26 18 -10 11
-32 25 -47 33 -15 8 -29 16 -32 19 -17 18 -124 81 -240 142 -30 16 -64 34 -75
40 -38 21 -166 84 -230 113 -16 7 -55 24 -85 38 -30 14 -80 34 -110 45 -30 11
-80 30 -110 42 -202 77 -572 183 -775 220 -33 6 -91 17 -130 25 -159 31 -406
63 -660 86 -125 11 -648 21 -730 13z m710 -104 c288 -23 514 -49 640 -76 39
-8 78 -14 89 -14 10 0 50 -7 90 -15 39 -9 103 -23 141 -31 110 -24 280 -67
350 -89 22 -7 65 -20 95 -29 84 -24 139 -43 200 -66 30 -12 66 -25 80 -30 118
-41 163 -61 370 -163 129 -63 202 -104 288 -159 15 -10 34 -21 42 -25 8 -4 20
-11 25 -15 6 -5 58 -44 118 -88 59 -44 107 -85 107 -90 0 -6 4 -10 10 -10 8 0
110 -96 110 -105 0 -2 14 -19 30 -37 27 -30 73 -113 106 -193 12 -30 22 -75
45 -210 7 -38 13 -126 13 -194 l1 -124 -65 -17 c-132 -36 -206 -47 -485 -71
-230 -19 -435 -1 -755 67 -41 9 -88 20 -105 25 -67 20 -142 41 -175 49 -19 5
-60 17 -90 28 l-55 19 3 64 c3 67 46 223 69 250 7 8 13 19 13 23 0 7 107 114
168 169 36 33 40 47 13 47 -26 0 -91 -28 -91 -40 0 -6 -6 -10 -14 -10 -8 0
-16 -3 -18 -7 -2 -5 -25 -28 -51 -53 l-47 -44 -45 24 c-43 24 -44 25 -38 63 7
48 -14 141 -43 187 -27 44 -70 90 -84 90 -5 0 -10 4 -10 8 0 4 -20 18 -44 29
-55 27 -185 40 -244 23 -74 -19 -135 -92 -186 -222 -9 -22 -22 -38 -31 -38 -9
0 -51 11 -93 24 -115 35 -253 68 -342 81 -19 3 -75 12 -125 20 -122 20 -338
43 -460 50 -55 3 -170 10 -255 15 -85 5 -232 9 -326 10 l-172 0 -4 82 c-2 53
-8 83 -16 86 -6 2 -12 8 -12 13 0 15 -33 43 -72 62 -46 22 -135 22 -190 0 -99
-39 -141 -96 -161 -219 l-11 -73 -41 -7 c-74 -12 -195 -63 -195 -81 0 -24 65
-12 198 34 24 8 45 14 47 12 1 -2 7 -31 13 -64 5 -33 13 -68 17 -77 7 -17 -2
-18 -105 -18 -97 0 -118 -3 -149 -22 -20 -11 -40 -26 -46 -32 -5 -7 -27 -22
-47 -35 -21 -12 -38 -27 -38 -32 0 -5 -6 -9 -14 -9 -8 0 -16 -3 -18 -8 -1 -4
-34 -29 -73 -55 l-70 -47 -190 0 c-170 0 -201 3 -289 25 -54 14 -100 25 -101
25 -1 0 -8 20 -15 44 -20 73 -2 384 29 496 37 134 46 157 80 193 64 68 234
178 396 255 39 19 79 38 89 44 29 15 146 58 185 68 18 5 38 13 44 19 6 6 19
11 29 11 9 0 32 6 50 14 47 19 212 66 318 90 276 62 432 85 725 106 83 6 161
13 175 15 50 7 559 -4 695 -15z m-1406 -719 c12 -8 13 -14 3 -36 -7 -14 -12
-38 -12 -53 l0 -27 35 38 c18 20 38 37 43 37 14 0 42 -64 42 -97 0 -15 -7 -53
-15 -83 -8 -30 -15 -78 -15 -106 0 -51 -1 -52 -42 -73 l-43 -21 -10 74 c-5 41
-13 78 -17 82 -5 4 -8 -43 -8 -104 0 -121 5 -130 51 -93 54 41 88 45 464 45
409 1 639 -17 845 -66 25 -6 61 -14 80 -18 19 -4 62 -15 95 -25 33 -9 83 -23
110 -31 28 -8 59 -18 70 -23 11 -5 29 -12 40 -15 38 -10 150 -52 173 -64 12
-7 41 -12 63 -10 50 4 61 21 85 138 9 47 22 91 28 99 10 13 84 11 161 -5 30
-6 30 -6 -9 21 -21 15 -53 31 -72 37 -40 11 -43 29 -14 91 47 98 76 110 204
86 71 -13 72 -14 111 -37 43 -26 56 -75 62 -232 5 -115 -6 -242 -20 -257 -2
-2 -28 0 -58 5 l-54 7 0 140 c0 123 3 145 22 185 12 25 24 56 28 70 7 24 7 24
-9 5 -8 -11 -16 -24 -16 -28 0 -4 -9 -18 -20 -29 -50 -54 -90 -195 -97 -345
l-4 -82 27 -7 c14 -4 49 -2 76 5 56 12 155 15 161 4 2 -5 2 -35 0 -69 -4 -51
-9 -63 -32 -78 -46 -32 -82 -140 -80 -249 0 -64 21 -185 37 -214 26 -48 16
-65 -83 -137 -51 -38 -104 -79 -117 -90 -13 -12 -33 -28 -45 -37 -29 -20 -108
-87 -149 -126 -19 -18 -36 -33 -39 -33 -2 0 -26 -21 -53 -47 -27 -27 -65 -61
-83 -76 -124 -105 -509 -504 -629 -652 -35 -44 -81 -98 -102 -120 -21 -22 -38
-43 -38 -47 0 -4 -8 -15 -18 -25 -28 -28 -282 -372 -282 -382 0 -5 -4 -11 -8
-13 -12 -5 -102 -144 -102 -157 0 -6 -4 -11 -8 -11 -5 0 -14 -10 -21 -22 -6
-13 -27 -50 -45 -83 -81 -143 -108 -202 -154 -345 -45 -137 -55 -179 -66 -295
-19 -190 8 -415 50 -415 18 0 18 13 -1 74 -19 63 -19 207 0 299 34 164 52 230
76 292 4 11 18 45 30 75 80 203 264 544 300 558 5 2 9 8 9 13 0 8 162 233 180
249 3 3 25 30 50 60 25 30 54 66 65 79 11 14 36 43 56 65 20 23 44 52 55 65
10 13 27 32 37 43 9 10 17 20 17 23 0 2 21 26 48 52 26 27 83 88 127 137 44
49 153 163 243 253 89 90 162 168 162 173 0 6 4 10 9 10 5 0 61 51 124 113 62
62 167 162 233 222 65 60 129 119 141 132 12 13 25 23 29 23 4 0 13 8 20 18
12 16 13 15 22 -8 18 -45 75 -100 132 -126 8 -4 22 -12 30 -19 16 -12 143 -53
245 -78 95 -24 209 -45 358 -63 l137 -18 0 -45 c0 -89 -52 -572 -76 -706 -8
-44 -14 -93 -14 -110 0 -16 -6 -59 -15 -95 -8 -36 -22 -101 -31 -145 -21 -103
-46 -201 -80 -311 l-18 -62 -53 -4 c-49 -4 -123 -41 -123 -61 0 -5 -7 -15 -15
-23 -28 -28 -19 -88 21 -140 l37 -48 -49 -43 c-27 -24 -68 -55 -91 -69 -24
-14 -43 -30 -43 -35 0 -5 -6 -9 -14 -9 -8 0 -16 -3 -18 -7 -4 -9 -65 -53 -73
-53 -3 0 -33 -18 -66 -40 -33 -22 -62 -40 -64 -40 -2 0 -21 -12 -42 -26 -21
-14 -47 -30 -58 -35 -11 -5 -33 -18 -50 -29 -16 -11 -37 -23 -45 -27 -8 -4
-33 -19 -55 -34 -22 -14 -59 -34 -82 -44 -24 -11 -43 -22 -43 -27 0 -4 -5 -8
-10 -8 -6 0 -43 -20 -83 -43 -39 -24 -79 -47 -87 -51 -8 -3 -28 -15 -45 -26
-16 -10 -50 -29 -75 -42 -25 -13 -51 -29 -58 -35 -7 -7 -20 -13 -28 -13 -8 0
-14 -4 -14 -8 0 -5 -19 -16 -42 -27 -24 -10 -62 -30 -85 -45 -22 -16 -51 -31
-62 -35 -12 -3 -21 -11 -21 -16 0 -5 -6 -9 -14 -9 -8 0 -21 -6 -28 -13 -15
-13 -37 -26 -103 -61 -22 -12 -59 -34 -82 -49 -24 -15 -47 -27 -53 -27 -5 0
-10 -4 -10 -10 0 -5 -4 -10 -9 -10 -7 0 -156 -84 -231 -130 -77 -48 -355 -172
-415 -186 -11 -3 -42 -11 -70 -19 -96 -27 -157 -35 -253 -35 -91 0 -228 19
-297 40 -170 51 -245 74 -270 81 -101 28 -181 53 -189 61 -6 4 -19 8 -30 8
-12 0 -34 7 -50 15 -15 8 -34 15 -41 15 -8 0 -26 6 -42 14 -15 8 -64 29 -108
46 -44 18 -89 36 -100 40 -11 5 -42 18 -70 30 -27 12 -59 26 -70 30 -40 17
-90 38 -105 44 -8 3 -22 10 -30 14 -23 13 -140 68 -185 87 -22 9 -47 21 -55
25 -8 5 -49 25 -90 45 -129 63 -163 80 -225 112 -33 17 -67 34 -75 37 -8 3
-42 22 -75 41 -33 19 -82 46 -110 60 -27 14 -63 34 -80 44 -16 10 -57 33 -90
51 -33 18 -66 38 -74 43 -14 12 -48 32 -71 43 -8 4 -17 10 -20 14 -3 3 -35 26
-73 50 -37 24 -67 48 -67 52 0 4 -4 8 -9 8 -5 0 -25 15 -44 33 -34 32 -35 36
-48 150 -15 148 2 551 28 632 29 91 69 198 89 238 8 16 14 33 14 38 0 5 14 39
31 76 17 38 34 77 39 88 40 98 215 422 240 445 3 3 10 14 16 25 33 61 50 91
55 95 3 3 12 16 19 29 7 14 17 30 22 35 12 14 110 154 123 174 6 9 15 21 21
27 6 5 26 31 44 58 18 26 35 47 36 47 2 0 -1 -12 -7 -27 -26 -63 -32 -84 -75
-238 -8 -27 -18 -101 -23 -163 -16 -194 10 -374 80 -557 37 -98 125 -241 196
-316 25 -27 43 -52 40 -56 -4 -3 -13 -1 -20 6 -25 20 -129 51 -174 51 l-44 0
2 85 c2 115 -15 133 -98 103 -39 -14 -41 -31 -16 -131 16 -60 16 -69 3 -77
-23 -15 -27 -13 -40 23 -39 104 -65 132 -113 123 -25 -5 -39 -15 -52 -40 -21
-38 -24 -28 43 -116 32 -43 32 -43 13 -62 -11 -10 -23 -18 -26 -18 -9 0 -45
-39 -45 -49 0 -5 -6 -11 -13 -14 -7 -3 -27 -31 -44 -64 -38 -73 -60 -213 -44
-283 6 -25 11 -48 11 -52 0 -5 -41 -8 -91 -8 -57 0 -88 -4 -84 -10 3 -5 22
-10 42 -10 47 0 230 -46 298 -74 114 -49 222 -111 260 -150 6 -6 25 -24 41
-39 l31 -28 44 16 c93 35 147 70 204 130 36 38 47 55 77 115 20 40 22 61 23
180 0 147 -13 201 -63 268 -13 17 -19 32 -13 32 6 0 11 -4 11 -10 0 -5 7 -10
15 -10 8 0 15 -4 15 -9 0 -5 21 -22 46 -38 26 -15 58 -36 73 -46 37 -25 170
-87 256 -121 83 -32 241 -76 274 -76 14 -1 53 -7 86 -15 70 -17 452 -20 525
-4 25 5 68 13 95 18 108 20 184 45 318 105 17 8 51 22 75 32 23 10 42 21 42
26 0 4 5 8 11 8 28 0 213 137 299 222 89 87 160 164 160 174 0 3 17 28 38 57
37 50 113 198 145 282 99 261 101 595 6 877 -31 93 -107 260 -121 266 -5 2 -8
8 -8 14 0 17 -75 121 -127 175 -13 13 -23 26 -23 28 0 3 -18 22 -39 43 -140
133 -220 190 -376 266 -136 67 -216 93 -385 127 -125 25 -419 27 -530 3 -94
-19 -175 -42 -218 -60 -18 -8 -38 -14 -44 -14 -6 0 -40 -14 -76 -31 -35 -16
-67 -28 -70 -25 -3 4 -3 7 -1 9 44 33 106 83 114 92 6 6 39 33 75 60 36 27 90
69 120 93 30 23 60 46 65 50 6 5 55 14 110 21 55 6 115 15 133 19 l32 7 3 143
c2 129 4 145 21 158 11 8 31 14 45 15 25 0 25 1 -6 16 -32 16 -44 33 -23 33 6
0 10 4 10 10 0 15 42 61 75 81 33 21 53 23 74 10z m541 -275 c0 -13 -3 -38 -6
-55 -6 -31 -7 -31 -70 -31 -70 0 -73 2 -87 78 l-6 32 84 0 c83 0 85 -1 85 -24z
m291 9 c165 -6 349 -23 504 -46 39 -6 90 -13 115 -15 25 -3 79 -11 120 -20 41
-8 100 -20 130 -26 174 -34 253 -62 246 -87 -3 -9 -8 -35 -11 -58 -4 -25 -12
-43 -20 -43 -7 0 -37 11 -66 24 -48 21 -84 32 -264 81 -194 53 -552 95 -812
95 l-141 0 -4 51 c-3 54 -1 62 18 55 6 -2 89 -7 185 -11z m-2211 -423 c106
-26 245 -42 371 -42 l134 -1 -25 -20 c-14 -11 -39 -33 -56 -47 -17 -15 -58
-49 -90 -77 -32 -27 -121 -112 -199 -188 -138 -137 -141 -138 -177 -133 -34 6
-64 27 -96 68 -17 21 -40 131 -49 224 -6 70 16 202 38 230 9 11 68 6 149 -14z
m1447 -58 c233 -47 376 -104 548 -219 90 -60 269 -229 302 -285 9 -16 21 -30
25 -30 4 0 8 -6 8 -14 0 -8 3 -16 8 -18 14 -6 84 -132 117 -213 7 -16 20 -47
29 -68 9 -21 16 -45 16 -55 0 -9 6 -34 14 -57 26 -75 38 -160 43 -300 5 -118
2 -157 -16 -245 -27 -133 -48 -211 -61 -224 -5 -5 -10 -16 -10 -23 0 -7 -11
-36 -25 -65 -14 -28 -25 -58 -25 -65 0 -7 -4 -13 -9 -13 -5 0 -13 -9 -16 -20
-11 -33 -146 -210 -211 -274 -73 -74 -185 -163 -256 -205 -29 -17 -60 -36 -68
-41 -17 -11 -144 -69 -175 -80 -225 -81 -333 -100 -578 -100 -189 0 -274 9
-407 41 -25 6 -61 15 -80 20 -51 11 -167 54 -225 82 -27 13 -60 27 -72 31 -13
4 -23 11 -23 16 0 4 -8 10 -17 14 -31 10 -108 58 -116 72 -4 8 -12 14 -17 14
-21 0 -179 151 -239 227 -197 252 -269 585 -200 933 15 74 61 211 87 257 7 12
12 29 12 37 0 9 3 16 8 16 4 0 20 27 36 60 16 33 33 60 38 60 4 0 8 5 8 10 0
32 277 360 305 360 3 0 13 8 24 18 31 29 83 72 87 72 8 0 69 45 72 53 2 4 8 7
13 7 5 0 28 12 52 27 52 34 108 62 125 63 6 0 12 4 12 9 0 5 10 11 23 14 12 3
47 15 77 27 68 27 132 45 235 69 108 25 409 28 522 5z m2623 -274 c30 -12 64
-24 75 -26 11 -3 43 -11 70 -19 300 -83 664 -132 897 -121 202 9 413 36 547
68 79 19 86 19 97 3 31 -42 28 -263 -4 -340 -24 -59 -90 -145 -111 -145 -5 0
-14 -7 -21 -15 -25 -30 -38 -16 -45 51 -11 108 -62 193 -140 235 -158 84 -315
49 -315 -71 0 -41 41 -110 65 -110 24 0 89 -41 107 -67 11 -17 18 -46 18 -75
0 -80 3 -78 -134 -78 -182 0 -493 25 -756 61 -133 18 -263 52 -310 80 -8 5
-24 13 -36 18 -31 14 -112 108 -132 155 -10 22 -21 73 -25 111 -7 85 6 250 24
288 11 24 18 28 43 24 17 -2 56 -14 86 -27z m1298 -374 c48 -30 100 -101 123
-168 52 -147 -13 -327 -149 -412 -44 -27 -144 -56 -195 -56 -78 0 -144 46
-160 112 -14 54 -5 58 117 58 123 0 214 18 244 48 32 32 55 107 49 155 -12 86
-58 145 -160 203 -72 41 -80 59 -37 82 35 18 122 7 168 -22z m-465 -412 c3 -3
-4 -24 -16 -47 -20 -38 -20 -43 -6 -98 14 -51 14 -60 1 -73 -9 -9 -14 -34 -14
-69 0 -53 7 -67 50 -113 11 -11 11 -18 -2 -36 -21 -29 -20 -83 1 -118 15 -26
15 -30 -1 -65 -13 -26 -16 -49 -12 -76 5 -32 3 -40 -14 -49 -25 -13 -36 -72
-22 -118 9 -28 8 -41 -5 -65 -13 -26 -14 -38 -3 -82 11 -47 10 -55 -10 -94
-16 -32 -20 -53 -15 -77 5 -30 3 -36 -19 -45 -36 -17 -59 -71 -51 -120 5 -30
2 -46 -15 -75 -22 -35 -23 -70 -5 -116 6 -14 2 -18 -16 -17 -37 0 -114 36
-112 51 1 7 13 45 26 83 14 39 32 99 42 135 9 36 23 83 31 105 8 23 14 51 14
63 0 13 6 51 14 85 35 152 70 439 87 702 6 99 12 198 14 220 2 22 4 57 4 78 1
32 4 37 24 37 13 0 26 -3 30 -6z m529 -277 c0 -94 -62 -127 -234 -127 -168 0
-238 31 -238 106 0 35 0 36 33 27 17 -4 91 -8 162 -8 130 0 220 16 247 43 17
17 30 0 30 -41z m2 -174 c8 -28 -8 -78 -34 -104 -31 -34 -89 -49 -191 -49
-117 0 -170 16 -216 68 -33 35 -41 65 -25 90 7 10 15 10 38 1 46 -20 320 -17
364 4 48 22 57 21 64 -10z m-14 -208 c0 -61 -19 -78 -105 -100 -113 -28 -277
-8 -335 42 -13 11 -20 30 -20 51 0 39 -7 38 153 12 69 -11 89 -11 165 5 48 10
94 22 102 26 31 17 40 10 40 -36z m-312 -148 c98 -10 221 -3 290 18 21 7 22 5
22 -44 0 -88 -37 -111 -179 -111 -99 0 -221 23 -221 42 0 4 -6 8 -13 8 -19 0
-44 30 -52 62 -9 35 2 51 29 43 11 -4 67 -12 124 -18z m-118 -146 c0 -4 54
-19 119 -31 106 -20 127 -21 183 -10 108 21 103 23 106 -42 3 -54 1 -57 -32
-83 -43 -33 -86 -40 -156 -26 -30 6 -77 16 -105 21 -27 6 -54 15 -59 20 -6 6
-16 10 -24 10 -24 0 -89 58 -96 86 -11 42 1 64 35 64 16 0 29 -4 29 -9z m-45
-177 c94 -49 200 -73 326 -74 l106 0 -5 -27 c-7 -49 -42 -65 -142 -64 -114 0
-219 32 -297 88 -26 19 -33 31 -33 59 0 39 3 40 45 18z m-5214 -89 c-18 -8
-37 -15 -43 -15 -11 0 -72 -42 -76 -52 -2 -5 -8 -8 -13 -8 -12 0 -49 -37 -49
-49 0 -5 -7 -11 -15 -15 -8 -3 -15 -11 -15 -19 0 -7 -5 -18 -11 -24 -23 -23
-49 -118 -49 -179 0 -34 7 -85 17 -113 9 -28 13 -54 10 -57 -3 -4 -24 1 -47
10 -22 9 -49 16 -60 16 -30 0 -54 55 -53 122 2 91 35 183 96 265 63 85 161
131 277 132 l65 0 -34 -14z m151 -14 c46 -17 143 -130 126 -146 -3 -3 -18 1
-34 10 -17 9 -55 15 -92 15 -95 0 -166 -42 -227 -135 -27 -41 -28 -194 -2
-223 9 -10 17 -23 17 -28 1 -15 54 -68 91 -89 26 -15 53 -19 117 -20 l83 0
-28 -24 c-61 -51 -69 -56 -96 -69 -27 -12 -33 -10 -99 40 -65 48 -116 80 -175
110 -13 6 -23 17 -23 25 0 7 -4 13 -8 13 -5 0 -14 38 -21 84 -15 101 -3 173
42 251 77 132 235 222 329 186z m5022 -40 c125 -57 218 -81 319 -81 82 0 87
-1 87 -21 0 -32 -37 -78 -77 -94 -56 -24 -129 -17 -259 23 -69 22 -144 90
-144 131 0 16 19 61 26 61 4 0 25 -9 48 -19z m-4905 -137 c18 -22 22 -35 18
-67 -12 -86 -78 -104 -148 -38 -39 38 -41 42 -34 83 10 57 25 67 89 57 37 -6
58 -16 75 -35z m4931 -62 c78 -29 178 -52 233 -52 68 0 72 -10 21 -57 -35 -31
-40 -33 -113 -33 -100 0 -203 33 -258 83 -16 14 -23 32 -23 57 0 54 14 62 63
36 23 -12 58 -27 77 -34z m-333 -108 c46 -18 81 -24 138 -24 52 0 91 -6 123
-19 26 -11 66 -23 90 -28 l43 -8 -42 -27 c-76 -49 -160 -71 -258 -66 -47 2
-95 9 -106 15 -11 6 -33 17 -50 24 -16 7 -45 26 -62 43 -27 25 -33 37 -33 72
0 32 4 44 18 47 26 7 70 -2 139 -29z m-5708 -359 c12 -35 21 -66 21 -67 0 -5
-61 -34 -108 -52 -23 -9 -72 -16 -107 -16 -59 0 -69 3 -100 31 -69 63 -85 146
-37 198 28 31 113 78 166 92 17 5 54 15 81 22 l50 14 7 -79 c4 -44 16 -108 27
-143z m530 -407 c35 -22 74 -44 85 -49 12 -5 48 -24 81 -43 33 -19 130 -69
215 -111 85 -42 181 -90 213 -106 31 -16 65 -29 75 -30 14 0 14 -2 -3 -9 -31
-13 -181 -11 -285 5 -138 21 -239 53 -345 107 -33 17 -70 36 -82 42 -13 6 -23
14 -23 19 0 4 -4 7 -10 7 -23 0 -80 85 -80 119 0 13 32 82 45 97 11 13 16 11
114 -48z m906 -443 c61 -25 118 -50 127 -55 10 -6 26 -10 36 -10 10 0 22 -4
27 -9 6 -5 53 -26 105 -46 52 -20 106 -41 120 -47 14 -6 39 -14 55 -18 35 -9
87 -28 130 -46 17 -7 50 -18 75 -24 25 -7 61 -18 80 -25 19 -7 60 -20 90 -28
30 -9 73 -22 95 -28 l40 -13 -35 -8 c-47 -10 -265 -10 -370 1 -96 10 -183 26
-250 46 -25 7 -74 21 -110 31 -36 9 -69 21 -74 26 -6 4 -18 8 -28 8 -19 0 -54
15 -158 64 -71 34 -136 92 -146 130 -8 35 30 96 60 96 12 0 71 -20 131 -45z"/>
<path d="M4265 1781 c-84 -22 -164 -104 -194 -199 -11 -37 -21 -83 -21 -102 0
-33 19 -100 31 -110 19 -16 12 -40 -23 -79 -21 -24 -41 -54 -44 -66 -5 -20 -8
-21 -44 -12 -41 11 -110 -4 -136 -30 -7 -7 -16 -13 -21 -13 -5 0 -33 -27 -63
-60 -68 -76 -84 -121 -77 -222 l5 -76 -34 5 c-39 7 -65 -11 -84 -58 -16 -37 0
-80 36 -100 29 -15 28 -42 -1 -48 -11 -2 -32 -12 -47 -23 -22 -15 -28 -27 -28
-57 0 -42 29 -81 60 -81 11 0 20 -7 20 -15 0 -10 -10 -15 -28 -15 -38 0 -52
-17 -52 -60 0 -55 42 -91 108 -92 63 -2 92 20 92 67 0 18 7 38 15 45 18 15 20
82 4 111 -8 16 -7 30 5 60 9 22 16 64 16 94 0 73 19 85 89 54 36 -15 65 -20
105 -17 35 2 52 0 46 -7 -17 -16 -11 -25 14 -25 31 0 96 72 133 149 24 47 28
69 28 136 0 68 -4 88 -27 133 -38 74 -38 124 2 161 65 59 161 60 223 2 50 -46
69 -104 64 -201 -3 -79 -9 -105 -44 -187 -7 -17 -13 -36 -13 -41 0 -6 -4 -12
-8 -14 -4 -2 -18 -20 -31 -40 -12 -21 -27 -38 -32 -38 -5 0 -9 -6 -9 -12 -1
-7 -21 -28 -45 -46 -25 -18 -45 -37 -45 -43 0 -40 99 1 168 70 52 52 122 151
122 173 0 7 6 22 14 33 16 24 24 70 35 189 4 48 13 91 18 95 25 15 86 158 104
241 12 53 2 159 -16 180 -7 8 -16 25 -19 37 -9 28 -93 104 -147 132 -45 24
-171 36 -224 22z m142 -77 c3 -8 9 -14 14 -14 16 0 98 -91 120 -134 29 -55 29
-179 1 -251 -20 -49 -42 -71 -42 -41 0 9 -7 19 -15 22 -8 4 -15 12 -15 20 0 8
-7 14 -15 14 -8 0 -15 4 -15 8 0 12 -56 42 -78 42 -18 0 -21 6 -19 43 2 37 -1
42 -20 45 -23 3 -27 -3 -24 -44 2 -18 -5 -23 -36 -27 -21 -2 -42 -1 -46 3 -23
21 8 183 41 218 6 7 12 17 12 22 0 4 20 28 46 53 46 45 79 53 91 21z m-169
-16 c-72 -101 -105 -223 -78 -292 7 -21 6 -26 -5 -26 -35 0 -60 106 -43 182
10 44 22 63 70 111 64 63 93 75 56 25z m-185 -639 c32 -70 37 -89 36 -152 0
-40 -6 -88 -13 -107 -12 -32 -17 -35 -57 -38 -48 -4 -136 13 -161 32 -28 20
-58 80 -58 115 0 42 34 111 72 148 30 29 115 81 133 82 6 1 27 -35 48 -80z"/>
<path d="M2625 1611 c-123 -40 -205 -110 -263 -224 -57 -113 -67 -154 -66
-262 1 -88 4 -107 29 -157 l27 -58 57 0 c32 0 77 -6 102 -14 24 -7 71 -21 104
-31 33 -10 65 -22 70 -25 6 -4 42 -24 80 -45 119 -64 135 -76 218 -158 27 -26
51 -46 54 -43 7 7 -23 58 -61 101 -20 22 -36 42 -36 45 0 3 27 22 60 44 33 21
75 57 92 80 18 22 35 43 38 46 32 31 71 160 73 245 l2 74 45 6 c118 15 155 45
130 105 -11 26 -17 30 -52 30 -21 0 -51 -6 -67 -14 -15 -8 -41 -16 -57 -18
-23 -2 -30 1 -32 18 -2 15 11 29 50 54 29 19 55 38 56 42 2 4 10 8 17 8 22 0
44 44 33 66 -17 31 -50 64 -66 64 -8 0 -45 -30 -83 -67 -38 -36 -69 -62 -69
-57 0 13 -67 84 -79 84 -5 0 -11 5 -13 10 -2 6 -36 24 -77 40 -65 27 -84 30
-170 29 -60 -1 -115 -7 -146 -18z m247 -85 c66 -15 159 -68 194 -109 28 -33
32 -57 7 -35 -107 91 -292 51 -369 -79 -25 -42 -29 -58 -28 -128 0 -69 4 -86
28 -127 77 -131 238 -167 365 -82 19 13 37 22 39 19 14 -14 -125 -160 -180
-190 l-37 -19 -43 31 c-53 38 -165 98 -198 106 -76 20 -133 203 -103 332 14
64 53 155 65 155 5 0 8 4 8 10 0 12 68 80 80 80 6 0 10 4 10 10 0 5 11 12 25
16 14 3 25 10 25 15 0 13 46 11 112 -5z m-256 -52 c-86 -84 -117 -164 -117
-300 0 -105 19 -173 58 -213 23 -23 5 -23 -82 -4 l-78 18 -14 55 c-16 59 -13
158 7 222 15 53 104 178 126 178 4 0 12 6 18 14 9 12 102 65 115 66 2 0 -13
-16 -33 -36z m417 -145 c12 -6 34 -23 50 -37 23 -22 27 -34 27 -78 0 -72 -26
-104 -83 -104 -41 1 -87 26 -87 48 0 5 -7 15 -15 22 -25 21 -19 93 11 129 27
33 59 39 97 20z"/>
<path d="M1700 1134 c0 -12 122 -104 139 -104 5 0 22 -7 37 -15 16 -8 53 -15
82 -15 54 0 68 -14 37 -40 -8 -7 -15 -18 -15 -24 0 -21 -84 -104 -112 -111
-32 -8 -79 23 -98 63 -11 24 -9 29 22 54 26 21 44 28 83 29 43 1 46 2 22 9
-30 9 -87 -3 -123 -26 -20 -14 -22 -13 -37 23 l-16 38 0 -56 c-1 -57 25 -136
51 -156 31 -24 80 -33 118 -22 65 20 153 114 198 214 13 28 28 59 34 69 9 17
7 18 -14 11 -41 -14 -220 -17 -263 -4 -51 15 -125 52 -125 61 0 5 -4 8 -10 8
-5 0 -10 -3 -10 -6z"/>
<path d="M2570 4181 c-106 -10 -213 -37 -310 -77 -72 -31 -194 -99 -260 -147
-61 -44 -179 -161 -225 -222 -17 -22 -36 -46 -42 -53 -7 -7 -13 -17 -13 -22 0
-5 -6 -15 -13 -22 -33 -34 -104 -211 -137 -343 -19 -75 -25 -300 -10 -366 7
-30 16 -74 20 -99 18 -103 134 -360 163 -360 4 0 7 -6 7 -13 0 -7 20 -34 45
-61 25 -27 45 -51 45 -52 0 -8 100 -100 133 -121 20 -14 37 -30 37 -34 0 -5 4
-9 9 -9 6 0 29 -13 53 -29 47 -31 192 -101 249 -119 150 -50 190 -55 389 -55
206 -1 265 9 411 64 30 11 63 23 74 27 11 3 38 17 60 31 36 23 48 26 122 23
91 -3 134 12 186 64 50 50 71 129 47 175 -6 10 -7 19 -2 19 10 0 82 96 82 110
0 5 4 10 8 10 9 0 91 163 112 220 6 19 16 53 20 75 5 22 14 54 20 70 8 19 13
95 13 200 1 173 -13 277 -49 348 -8 16 -14 35 -14 43 0 8 -4 22 -9 32 -5 9
-24 48 -43 85 -18 38 -39 73 -45 79 -7 6 -13 16 -13 22 0 6 -13 26 -30 44 -16
18 -30 35 -30 38 0 2 -8 12 -17 22 -10 10 -37 39 -61 65 -37 41 -182 157 -196
157 -3 0 -24 13 -48 28 -24 16 -68 39 -98 51 -30 13 -59 27 -64 32 -6 5 -18 9
-27 9 -9 0 -30 7 -45 15 -16 8 -38 15 -49 15 -11 0 -41 7 -67 15 -57 17 -283
26 -388 16z m405 -76 c339 -83 600 -284 735 -563 23 -48 46 -95 51 -104 28
-54 43 -170 43 -323 0 -189 -15 -263 -87 -415 -32 -67 -94 -162 -109 -168 -4
-2 -8 -8 -8 -12 0 -5 -15 -25 -34 -46 -33 -36 -34 -36 -62 -21 -16 8 -56 22
-89 31 -80 23 -135 48 -135 64 0 6 -4 12 -10 12 -5 0 -10 7 -10 15 0 8 5 15
10 15 6 0 10 -4 10 -9 0 -15 97 -51 139 -51 58 0 122 32 164 81 114 132 42
326 -130 353 -46 7 -143 -10 -143 -25 0 -5 -6 -9 -13 -9 -19 0 -61 -49 -81
-96 -18 -42 -19 -120 -1 -171 6 -20 4 -23 -17 -23 -48 0 -63 -32 -63 -135 1
-87 13 -140 46 -195 5 -8 13 -25 18 -37 6 -11 15 -24 20 -28 17 -10 13 -32 -6
-38 -10 -3 -43 -15 -73 -27 -324 -127 -691 -100 -995 73 -47 27 -98 59 -105
67 -3 3 -23 19 -45 36 -38 28 -126 116 -121 121 1 1 20 -2 42 -8 50 -14 134
-6 171 18 31 20 61 54 81 91 16 31 16 156 0 185 -38 68 -97 110 -163 118 -39
4 -46 7 -30 14 26 11 45 31 74 77 18 30 22 52 22 107 0 76 -12 104 -64 154
-27 26 -27 27 -6 27 32 0 101 21 120 37 8 7 21 13 27 13 7 0 12 8 13 18 0 9 3
12 5 6 2 -5 -5 -39 -16 -73 -38 -121 -20 -275 47 -391 29 -50 132 -156 166
-170 12 -6 29 -14 37 -19 73 -45 212 -65 319 -46 98 17 175 59 256 140 85 85
125 161 140 265 16 109 -13 282 -53 322 -7 7 -12 15 -12 19 0 21 -136 159
-157 159 -7 0 -13 4 -13 10 0 5 -12 13 -27 16 -16 4 -33 10 -38 15 -18 13
-145 39 -193 39 -26 -1 -72 -7 -103 -14 -62 -15 -189 -74 -189 -87 0 -5 -5 -9
-10 -9 -6 0 -33 -23 -60 -52 l-50 -52 0 63 c0 140 -103 221 -252 197 -38 -6
-58 -17 -97 -55 -42 -41 -50 -55 -56 -99 -11 -85 1 -131 50 -179 23 -23 40
-45 37 -48 -3 -3 -25 -5 -49 -5 -78 0 -149 -65 -174 -161 -10 -38 -9 -53 6
-103 25 -80 84 -132 161 -142 54 -6 55 -7 32 -22 -68 -47 -91 -92 -92 -174 -1
-77 -13 -72 -57 22 -68 147 -91 251 -91 425 0 90 5 162 12 180 6 17 15 48 20
70 13 61 41 135 51 135 5 0 9 7 9 16 0 36 116 200 205 289 58 59 148 127 199
152 20 9 36 20 36 25 0 4 8 8 19 8 10 0 24 7 31 15 7 8 21 15 31 15 10 0 20 4
23 9 3 4 38 18 78 30 40 12 89 27 108 33 97 31 402 33 525 3z m-918 -497 c40
-18 68 -48 83 -90 18 -50 -1 -109 -49 -149 -30 -24 -44 -29 -92 -29 -48 0 -61
4 -91 30 -46 40 -67 105 -48 152 32 80 121 119 197 86z m683 -63 c19 -4 49
-15 65 -24 63 -34 165 -121 165 -141 0 -4 3 -10 8 -12 15 -6 41 -69 58 -139
17 -72 16 -101 -12 -214 -22 -89 -121 -198 -223 -248 -59 -28 -77 -32 -173
-35 -109 -4 -118 -2 -216 47 -52 25 -172 147 -172 174 0 7 -6 21 -14 32 -7 11
-19 50 -26 88 -11 55 -11 79 0 135 14 71 48 162 62 162 4 0 8 4 8 9 0 13 47
62 92 95 55 41 104 64 162 76 91 18 106 18 216 -5z m-795 -338 c7 -10 17 -17
22 -17 6 0 18 -18 28 -40 56 -124 -73 -254 -192 -195 -113 56 -109 212 7 267
27 14 122 2 135 -15z m1559 -322 c26 -17 66 -92 66 -125 0 -34 -48 -116 -78
-131 -36 -20 -133 -17 -166 4 -94 62 -86 208 14 260 41 21 126 17 164 -8z
m-1449 -83 c54 -39 81 -135 53 -184 -18 -31 -59 -69 -86 -79 -36 -14 -98 -11
-112 6 -7 8 -19 15 -26 15 -8 0 -14 5 -14 11 0 7 -8 18 -17 25 -14 10 -18 27
-18 84 0 68 1 72 36 104 20 19 47 36 60 39 38 8 99 -2 124 -21z m-160 -409
c49 -51 95 -93 102 -93 7 0 13 -4 13 -9 0 -5 33 -28 73 -52 39 -24 74 -47 75
-51 2 -5 10 -8 17 -8 7 0 26 -6 42 -14 52 -26 98 -44 138 -54 22 -6 69 -19
105 -28 50 -14 106 -18 250 -18 193 -1 253 8 390 56 30 11 69 24 87 29 18 5
35 14 38 19 4 6 17 10 31 10 21 0 23 -2 12 -13 -16 -15 -122 -67 -137 -67 -6
0 -25 -6 -43 -14 -116 -49 -314 -82 -432 -72 -98 8 -217 28 -271 46 -80 26
-190 73 -227 96 -21 13 -40 24 -44 24 -3 0 -23 14 -44 30 -21 17 -41 30 -44
30 -15 0 -162 150 -207 210 -27 36 -53 70 -59 77 -5 7 -10 16 -10 20 1 4 13
-8 28 -27 15 -19 67 -76 117 -127z m1335 123 c0 -12 37 -41 71 -57 19 -9 69
-24 111 -33 81 -18 128 -50 128 -89 0 -52 -71 -127 -121 -127 -99 0 -219 155
-219 285 0 50 2 55 15 41 8 -8 15 -17 15 -20z"/>
<path d="M2766 4062 c-44 -4 -146 -65 -146 -87 0 -5 -8 -17 -17 -27 -24 -27
-25 -168 0 -195 9 -11 17 -24 17 -29 0 -11 51 -51 95 -76 65 -34 182 -15 241
41 49 45 66 88 65 162 0 64 -4 76 -33 116 -18 25 -42 51 -53 57 -11 6 -23 15
-26 19 -8 11 -96 23 -143 19z m119 -80 c61 -53 60 -50 60 -120 0 -51 -5 -73
-20 -94 -11 -15 -24 -28 -28 -28 -5 0 -15 -7 -23 -15 -11 -10 -36 -15 -77 -15
-56 0 -66 3 -100 34 -69 61 -74 157 -12 218 19 18 47 36 62 40 41 10 115 -1
138 -20z"/>
<path d="M2785 3927 c-33 -35 -55 -75 -55 -97 0 -16 6 -20 30 -20 28 0 30 -3
30 -35 0 -47 23 -46 47 4 15 30 18 53 15 105 -4 59 -6 66 -26 66 -11 0 -30
-10 -41 -23z"/>
<path d="M2268 4003 c-16 -2 -28 -8 -28 -12 0 -3 -12 -14 -28 -23 -44 -26 -82
-107 -82 -175 2 -184 220 -282 353 -159 33 30 77 120 77 157 0 81 -83 199
-151 213 -33 6 -95 6 -141 -1z m115 -54 c20 -5 37 -14 37 -19 0 -6 7 -10 15
-10 8 0 15 -7 15 -15 0 -8 4 -15 9 -15 14 0 24 -75 16 -122 -6 -31 -18 -52
-43 -75 -32 -30 -42 -33 -95 -33 -72 0 -111 24 -138 84 -24 52 -24 78 0 124
40 78 100 105 184 81z"/>
<path d="M3219 3842 c-52 -25 -96 -73 -119 -131 -24 -63 -25 -92 -3 -151 19
-49 68 -110 90 -110 7 0 13 -4 13 -9 0 -4 27 -14 59 -21 51 -11 66 -10 109 4
104 35 153 100 154 204 0 79 -9 107 -52 156 -62 70 -171 95 -251 58z m151 -59
c58 -41 80 -79 80 -139 0 -49 -11 -78 -44 -110 -50 -49 -141 -56 -195 -16 -34
25 -71 90 -71 125 0 42 36 103 77 132 45 30 116 34 153 8z"/>
<path d="M3430 3424 c-43 -14 -90 -38 -90 -46 0 -4 -6 -8 -13 -8 -22 0 -67
-81 -69 -125 -4 -129 27 -191 118 -237 34 -16 55 -20 110 -16 83 5 140 36 181
101 36 57 39 163 6 218 -53 85 -166 138 -243 113z m104 -69 c8 -8 17 -15 20
-15 21 0 76 -90 76 -123 0 -22 -33 -91 -53 -111 -9 -9 -37 -24 -62 -33 -103
-35 -205 39 -205 146 0 48 27 91 80 127 41 28 119 33 144 9z"/>
<path d="M2283 2593 c-24 -8 -43 -19 -43 -24 0 -5 -6 -9 -12 -9 -19 0 -59 -64
-69 -112 -18 -77 3 -151 56 -201 101 -96 250 -73 327 51 15 24 20 49 20 102 0
79 -19 120 -75 162 -64 49 -126 58 -204 31z m117 -49 c83 -30 121 -124 82
-201 -29 -56 -64 -76 -133 -76 -53 0 -108 23 -109 46 0 5 -7 15 -15 23 -10 10
-15 35 -15 70 0 67 26 108 85 135 49 23 50 23 105 3z"/>
<path d="M2316 2475 c-20 -31 -20 -54 0 -83 14 -21 14 -25 0 -47 -22 -34 -20
-47 7 -43 29 4 87 90 87 130 0 45 -17 68 -49 68 -19 0 -34 -8 -45 -25z"/>
<path d="M2720 2572 c-44 -21 -90 -67 -114 -114 -14 -28 -17 -52 -14 -105 5
-81 34 -134 101 -178 37 -25 51 -29 117 -29 64 0 81 4 116 26 53 34 82 75 100
141 27 98 -23 207 -116 256 -51 26 -140 28 -190 3z m160 -59 c75 -53 99 -121
68 -198 -17 -44 -47 -71 -98 -88 -37 -12 -51 -13 -86 -2 -131 39 -156 210 -41
284 41 26 122 28 157 4z"/>
<path d="M2817 2472 c-28 -12 -57 -69 -57 -113 0 -70 65 -115 102 -71 42 50
51 134 18 170 -22 23 -33 25 -63 14z"/>
<path d="M1998 3576 c-10 -7 -18 -18 -18 -25 0 -6 -4 -11 -10 -11 -11 0 -50
-86 -50 -112 0 -42 71 -73 110 -48 20 13 17 80 -5 114 -17 25 -17 27 0 46 10
11 15 26 12 35 -8 18 -16 19 -39 1z"/>
<path d="M1943 2771 c-25 -21 -31 -67 -11 -73 9 -3 8 -9 -5 -22 -39 -40 -8
-103 46 -92 40 8 41 10 42 61 0 24 6 50 13 57 16 16 15 39 -4 66 -18 27 -51
28 -81 3z"/>
</g>
</svg>
