<?xml version="1.0" standalone="no"?>
<!DOCTYPE svg PUBLIC "-//W3C//DTD SVG 20010904//EN"
 "http://www.w3.org/TR/2001/REC-SVG-20010904/DTD/svg10.dtd">
<svg version="1.0" xmlns="http://www.w3.org/2000/svg"
 width="696.000000pt" height="473.000000pt" viewBox="0 0 696.000000 473.000000"
 preserveAspectRatio="xMidYMid meet">
<metadata>
Created by potrace 1.16, written by Peter Selinger 2001-2019
</metadata>
<g transform="translate(0.000000,473.000000) scale(0.100000,-0.100000)"
fill="#000000" stroke="none">
<path d="M5248 4386 c-15 -14 -94 -16 -115 -3 -7 4 -16 0 -21 -9 -6 -11 -14
-14 -23 -9 -7 5 -26 10 -41 12 -15 1 -31 4 -35 5 -14 3 -67 -14 -90 -28 -20
-13 -23 -12 -33 6 -9 16 -19 19 -58 16 -27 -2 -61 -11 -76 -21 -26 -17 -27
-17 -52 6 l-25 23 -36 -19 c-27 -15 -37 -17 -41 -7 -6 18 -26 15 -55 -8 -30
-24 -50 -25 -67 -5 -14 17 -65 20 -75 5 -3 -5 -20 -3 -41 7 -28 14 -40 15 -65
6 -17 -7 -52 -9 -78 -6 -53 6 -91 -8 -91 -34 0 -8 9 -30 20 -48 l21 -33 -40
-46 c-56 -65 -79 -158 -46 -186 9 -8 29 -10 49 -7 l34 5 -14 -35 c-21 -50 -47
-267 -40 -331 4 -30 15 -71 26 -92 11 -22 20 -41 20 -44 0 -2 -13 -7 -30 -11
-30 -7 -37 -15 -23 -29 4 -4 6 -26 5 -49 -1 -23 2 -48 7 -56 6 -10 4 -22 -6
-37 -22 -35 -42 -118 -53 -234 -13 -133 -38 -248 -61 -281 -26 -37 -33 -77
-18 -95 28 -34 100 -56 183 -55 11 0 30 -8 43 -19 21 -17 28 -17 76 -4 28 7
53 18 55 24 2 5 21 10 42 10 29 0 41 6 54 25 9 14 23 25 30 25 19 0 79 32 89
48 4 6 21 19 37 27 17 9 30 24 30 34 0 54 -16 52 362 50 299 -1 351 -3 364
-17 9 -8 13 -24 11 -34 -4 -14 4 -25 29 -40 19 -11 34 -24 34 -28 0 -9 80 -50
97 -50 6 0 18 -11 27 -25 13 -20 25 -25 55 -25 22 0 41 -5 43 -12 2 -6 25 -16
51 -23 42 -11 51 -10 71 6 14 11 46 19 87 22 67 5 143 37 154 65 3 9 -6 38
-19 66 -36 73 -54 146 -66 271 -13 130 -24 184 -50 243 -14 30 -17 49 -11 61
5 9 9 41 8 71 -2 49 -5 55 -25 58 -27 4 -27 8 -2 63 36 79 18 349 -29 439 -14
26 -21 59 -21 93 0 44 -6 62 -40 114 -35 53 -41 69 -39 109 2 36 -1 50 -16 60
-23 17 -49 18 -76 3 -16 -8 -25 -7 -40 7 -18 16 -25 17 -66 6 -32 -9 -49 -10
-57 -2 -15 15 -56 12 -62 -5 -8 -19 -23 -19 -38 -1 -17 21 -91 29 -108 12z
m105 -32 c11 -19 27 -18 49 3 16 14 23 15 39 5 15 -9 30 -10 64 -1 35 9 48 9
60 -1 10 -8 30 -10 61 -5 57 8 76 -5 67 -48 -4 -18 -12 -38 -20 -45 -22 -22
-25 -55 -8 -96 20 -47 31 -41 15 8 -11 34 -6 76 8 76 4 0 24 -27 46 -60 29
-46 39 -71 39 -102 0 -45 -24 -72 -55 -63 -9 4 -29 -2 -43 -11 -25 -16 -29
-16 -76 0 -48 17 -51 18 -69 1 -22 -20 -115 -31 -125 -16 -9 16 -35 1 -35 -20
0 -23 -17 -24 -42 -2 -11 9 -18 11 -18 5 0 -21 -37 -13 -43 9 -5 18 -8 19 -28
9 -14 -8 -46 -11 -84 -8 -34 3 -70 1 -79 -4 -11 -6 -22 -6 -31 2 -7 6 -16 7
-18 2 -10 -14 -187 -9 -196 6 -7 11 -9 11 -13 0 -8 -19 -103 -14 -144 8 -27
15 -35 16 -48 5 -9 -8 -16 -19 -16 -26 0 -20 -36 -24 -60 -8 -12 8 -24 12 -27
9 -4 -3 -16 3 -28 14 -21 20 -55 19 -55 -1 0 -13 -32 -11 -79 6 -35 12 -43 12
-47 1 -9 -23 -82 -14 -112 13 -25 22 -27 22 -53 7 -87 -51 -77 90 13 176 l40
38 -26 31 c-31 37 -33 55 -6 69 15 8 30 8 55 0 26 -9 43 -9 67 0 27 10 40 9
70 -3 31 -13 39 -13 56 -1 18 12 25 12 55 -6 29 -17 39 -19 61 -9 14 7 26 16
26 21 0 4 7 8 15 8 8 0 15 -4 15 -10 0 -15 25 -12 58 7 28 16 31 16 46 0 20
-20 54 -22 78 -4 27 21 91 14 119 -12 l24 -22 14 20 c7 12 24 21 37 21 12 0
26 4 29 10 8 12 66 0 84 -17 11 -12 16 -12 30 1 12 11 32 14 73 11 41 -3 59
-1 68 10 15 18 91 9 103 -11z m240 -356 c12 -10 22 -50 36 -148 11 -75 27
-165 35 -200 9 -36 19 -100 22 -142 6 -67 5 -78 -9 -78 -27 0 -95 88 -127 166
-35 86 -104 349 -96 370 3 8 18 14 34 14 16 0 35 7 42 15 15 18 40 19 63 3z
m-1396 -12 c-3 -7 -11 -90 -18 -184 -9 -125 -10 -185 -2 -228 6 -33 9 -61 7
-63 -2 -2 -15 20 -29 50 -18 40 -25 70 -25 119 0 81 25 258 41 294 12 26 36
38 26 12z m298 -10 l25 -23 -15 -82 c-19 -99 -65 -241 -99 -308 -35 -69 -88
-128 -109 -120 -20 8 -17 40 18 227 13 69 29 167 36 218 l12 92 31 -5 c20 -4
38 -1 51 9 25 19 20 20 50 -8z m175 10 c6 -8 26 -16 43 -18 41 -4 39 -16 -19
-133 -73 -149 -271 -395 -316 -395 -6 0 8 20 30 44 55 59 88 115 134 220 40
92 98 259 98 282 0 18 14 18 30 0z m1039 -23 c25 -95 53 -285 53 -353 0 -42
-7 -93 -15 -115 l-16 -40 0 48 c-1 74 -20 230 -42 356 -11 62 -18 119 -15 127
10 25 25 15 35 -23z m104 -30 c21 -78 40 -253 32 -300 -7 -44 -45 -133 -56
-133 -5 0 -5 10 0 23 23 62 21 201 -5 426 -9 70 8 61 29 -16z m-378 12 c44
-206 88 -349 126 -414 33 -56 13 -47 -24 10 -50 78 -90 161 -131 271 -37 99
-44 138 -26 138 6 0 10 9 10 20 0 18 2 19 20 8 12 -7 23 -22 25 -33z m-1141
-6 c0 -19 -8 -83 -18 -144 -10 -60 -21 -159 -25 -220 -7 -102 -8 -108 -20 -80
-26 58 -24 152 4 315 15 85 29 159 32 163 11 19 28 -2 27 -34z m971 25 c13 -9
33 -13 43 -10 26 8 33 -4 66 -104 44 -137 128 -299 188 -365 52 -57 45 -61
-24 -13 -30 21 -173 209 -227 297 -38 63 -92 192 -85 203 7 11 11 10 39 -8z
m-304 -376 c1 -211 2 -394 2 -408 l2 -25 170 -3 c174 -3 185 -5 185 -44 0 -17
-26 -18 -402 -18 l-403 0 -44 84 -44 84 25 30 26 31 6 -80 c4 -43 10 -79 14
-80 4 0 94 -2 200 -4 l192 -3 0 403 c0 439 -4 410 53 414 16 1 17 -24 18 -381z
m-91 67 l0 -306 -112 7 c-83 4 -132 2 -183 -9 -38 -8 -74 -12 -79 -10 -4 3 -6
30 -4 60 4 48 10 58 47 95 24 22 59 66 78 97 20 31 57 83 83 116 65 85 75 102
94 170 9 33 19 66 21 73 2 6 16 12 30 12 l25 0 0 -305z m202 285 c81 -39 107
-63 124 -113 9 -26 36 -75 62 -108 53 -72 71 -141 72 -280 l0 -87 -41 11 c-29
7 -72 7 -148 -2 -58 -6 -118 -11 -133 -11 l-28 0 0 305 0 305 25 0 c14 0 45
-9 67 -20z m-468 -17 c-25 -102 -119 -310 -177 -390 -39 -55 -45 -50 -12 9 32
58 79 194 100 295 25 119 22 113 61 113 32 0 34 -2 28 -27z m768 -365 l36 -53
7 -202 7 -203 -26 0 c-24 0 -26 3 -26 45 0 32 -4 45 -14 45 -11 0 -14 31 -12
173 0 94 -3 189 -7 210 -4 20 -6 37 -4 37 2 0 20 -24 39 -52z m170 -138 c19 0
19 -2 21 -47 1 -24 -3 -27 -28 -28 -40 0 -44 -31 -10 -68 l26 -27 -46 -85
c-70 -129 -73 -124 -75 129 l-1 186 48 -30 c26 -16 55 -30 65 -30z m-1368 -15
c9 -25 126 -75 173 -75 69 0 119 -28 78 -44 -9 -3 -23 3 -32 14 -22 26 -37 26
-23 0 8 -16 6 -22 -14 -35 -20 -14 -28 -14 -45 -3 -12 7 -21 23 -21 35 0 12
-4 25 -10 28 -5 3 -10 -3 -10 -15 0 -15 -5 -20 -17 -18 -12 3 -17 12 -16 26 3
25 -12 30 -21 7 -10 -27 -43 -17 -65 21 -24 40 -26 60 -8 67 20 9 25 8 31 -8z
m1665 -4 c13 -8 11 -17 -9 -55 -24 -48 -48 -58 -70 -31 -18 21 -33 19 -21 -4
11 -20 5 -31 -16 -31 -7 0 -13 9 -13 20 0 11 -4 20 -10 20 -5 0 -10 -13 -10
-30 0 -24 -5 -31 -27 -36 -33 -9 -59 7 -56 35 3 24 -12 28 -21 6 -7 -19 -46
-20 -46 -1 0 16 30 26 80 26 50 0 128 30 159 61 29 30 39 33 60 20z m-540 -57
c25 -5 31 -11 29 -28 -2 -11 -11 -22 -22 -24 -11 -3 -16 0 -12 7 4 6 3 11 -3
11 -5 0 -13 -5 -16 -10 -4 -6 -11 -8 -16 -4 -6 3 -13 -3 -16 -15 -3 -11 -9
-19 -13 -16 -4 3 -13 -2 -20 -10 -6 -7 -18 -11 -25 -9 -8 4 -15 -3 -17 -17 -2
-12 -9 -24 -17 -27 -9 -3 -11 2 -6 17 7 23 -12 30 -21 8 -6 -17 -64 -10 -64 8
0 22 -50 28 -66 8 -12 -16 -13 -12 -14 35 0 45 2 52 20 52 15 0 20 -7 20 -27
0 -26 3 -28 49 -31 48 -3 49 -2 53 28 4 29 3 31 -21 25 -17 -4 -23 -3 -16 3 6
6 19 12 30 15 31 7 149 8 184 1z m-481 -10 l52 -7 0 -42 c0 -48 -26 -83 -32
-43 -2 14 -10 23 -20 23 -10 0 -22 5 -29 12 -9 9 -17 9 -33 0 -11 -7 -22 -12
-24 -13 -1 -1 0 -9 4 -18 4 -11 13 -15 27 -10 17 5 19 3 14 -17 -4 -13 -7 -30
-7 -36 0 -7 -5 -13 -11 -13 -6 0 -9 9 -6 20 4 17 -1 21 -34 26 -31 5 -39 11
-39 28 -1 19 -4 18 -30 -12 -17 -18 -30 -39 -30 -47 0 -11 -13 -15 -55 -15
-30 0 -55 5 -55 10 0 6 10 10 23 11 52 3 60 5 64 17 3 7 -4 12 -16 12 -12 0
-21 4 -21 10 0 5 -13 7 -31 3 l-30 -6 3 44 3 44 55 12 c63 13 180 16 258 7z
m-686 -56 c-5 -18 -9 -133 -8 -255 0 -123 -2 -223 -5 -223 -4 0 -23 7 -43 15
-39 16 -41 25 -26 90 5 22 16 99 25 170 18 152 46 258 62 241 3 -2 1 -20 -5
-38z m1726 5 c20 -52 31 -108 47 -238 8 -71 19 -146 25 -165 15 -52 13 -56
-30 -74 -22 -9 -41 -16 -43 -16 -1 0 -2 98 -2 218 0 132 -4 234 -12 260 -12
47 -2 58 15 15z m-1598 -16 l45 -22 12 -115 c13 -125 15 -311 4 -349 -13 -49
-70 -53 -111 -9 -18 20 -20 35 -20 158 0 75 -5 163 -11 195 -6 33 -8 83 -4
112 7 61 15 64 85 30z m1530 4 c7 -13 8 -95 4 -243 -7 -241 -14 -271 -62 -289
-79 -30 -96 22 -81 253 14 228 17 239 58 260 19 9 39 22 44 27 16 16 25 14 37
-8z m-1364 -220 c34 -119 30 -241 -9 -241 -11 0 -15 30 -20 138 -4 81 -14 169
-25 214 -11 43 -16 80 -13 84 6 6 20 -35 67 -195z m1173 78 c-13 -66 -22 -145
-23 -216 0 -68 -5 -113 -11 -113 -54 1 -54 119 -1 295 47 152 46 149 52 143 3
-3 -5 -52 -17 -109z m-160 -62 c8 -11 6 -28 -9 -72 -11 -32 -20 -66 -20 -75 0
-10 -7 -21 -16 -24 -9 -3 -188 -6 -399 -6 -419 0 -435 2 -435 51 0 16 -9 51
-19 79 l-19 50 417 3 c229 1 432 3 452 5 21 1 41 -4 48 -11z"/>
<path d="M888 4264 c-5 -4 -8 -328 -8 -721 l0 -713 350 0 350 0 0 150 0 150
23 -4 c12 -3 225 -7 472 -10 248 -4 561 -9 697 -13 l247 -6 9 34 c8 26 10 -8
11 -139 l1 -172 348 2 347 3 3 711 2 712 -702 6 c-1884 16 -2144 17 -2150 10z
m671 -714 l0 -700 -330 0 -329 0 0 700 0 700 330 0 329 0 0 -700z m741 365 l0
-325 -355 0 -356 0 1 311 c1 170 4 317 7 325 4 12 60 14 354 14 l349 0 0 -325z
m722 308 c2 -9 2 -155 0 -325 l-3 -308 -349 0 -350 0 0 325 0 325 349 0 c318
0 350 -1 353 -17z m698 -683 l0 -700 -335 0 -335 0 0 281 c0 224 3 294 16 342
15 60 12 127 -6 127 -11 0 -14 633 -3 643 3 4 154 7 335 7 l328 0 0 -700z
m-665 -5 l0 -30 -741 -3 -742 -2 -6 25 c-4 14 -4 30 -1 36 4 6 282 8 748 7
l742 -3 0 -30z m-11 -54 c4 -5 2 -20 -3 -33 l-8 -23 -489 3 c-269 1 -598 5
-731 9 -228 5 -243 7 -243 24 0 18 24 19 618 22 339 1 670 3 734 5 64 1 119
-2 122 -7z m-34 -153 c0 -35 -4 -69 -9 -77 -8 -12 -96 -13 -562 -7 -636 8
-679 10 -679 37 0 16 -8 19 -50 19 -43 0 -50 -3 -50 -20 0 -13 -7 -20 -20 -20
-13 0 -20 7 -20 19 0 10 -3 39 -6 65 l-7 46 702 0 701 0 0 -62z m-292 -154
l292 -6 0 -26 0 -25 -412 7 c-227 3 -545 9 -705 12 l-293 7 0 24 0 24 413 -6
c226 -3 544 -8 705 -11z"/>
<path d="M1145 4167 c-55 -18 -83 -34 -132 -74 l-43 -34 0 -560 0 -559 254 0
c216 0 255 2 260 15 3 8 12 15 20 15 41 0 44 84 3 99 l-22 8 4 490 3 490 -33
32 c-81 76 -217 109 -314 78z m211 -32 c27 -13 64 -37 82 -52 l33 -28 0 -485
c-1 -441 -3 -488 -19 -518 -16 -31 -16 -34 0 -63 15 -26 16 -31 2 -36 -8 -3
-115 -3 -237 0 l-222 6 -3 544 -2 544 27 28 c56 55 129 83 224 84 50 1 76 -5
115 -24z"/>
<path d="M1670 3901 l0 -280 273 -3 c149 -2 277 -2 282 0 10 2 10 521 0 550
-3 9 -68 12 -280 12 l-275 0 0 -279z m540 26 l0 -233 -30 -11 c-16 -6 -30 -18
-30 -27 0 -14 -27 -16 -235 -16 l-235 0 0 259 c0 163 4 261 10 263 5 2 125 2
265 0 l255 -3 0 -232z"/>
<path d="M2390 3931 c0 -156 -4 -252 -10 -256 -16 -10 -11 -44 8 -52 9 -4 140
-7 290 -5 l272 3 0 280 0 279 -280 0 -280 0 0 -249z m540 -28 l0 -263 -229 0
c-195 0 -230 2 -235 15 -3 8 -17 20 -31 27 l-25 11 0 236 0 236 260 0 260 0 0
-262z"/>
<path d="M3305 4156 c-54 -17 -82 -33 -132 -73 l-43 -34 0 -558 0 -558 173 -6
c294 -12 328 -10 334 13 3 11 14 20 24 20 29 0 44 46 24 76 -8 13 -23 24 -32
24 -15 0 -15 42 -9 494 l8 494 -51 40 c-93 73 -200 98 -296 68z m188 -26 c29
-11 73 -37 97 -57 l43 -37 -6 -490 c-4 -310 -10 -493 -17 -500 -13 -13 -13
-63 0 -71 6 -3 10 -13 10 -21 0 -12 -37 -14 -235 -14 l-235 0 0 553 0 554 46
33 c98 70 198 87 297 50z"/>
<path d="M2343 3354 c-11 -29 20 -43 117 -54 86 -10 298 -6 343 6 11 4 17 15
17 35 l0 29 -235 0 c-205 0 -236 -2 -242 -16z"/>
<path d="M4524 2539 c-3 -6 -6 -36 -5 -65 0 -30 -1 -54 -4 -54 -3 0 -16 18
-30 40 -31 49 -52 51 -71 4 -17 -40 -7 -64 27 -64 15 0 69 -65 69 -83 0 -8
-1480 -4 -1485 3 -3 5 10 12 29 15 35 7 54 29 35 41 -26 16 -106 4 -164 -26
-66 -33 -117 -38 -204 -21 -78 16 -247 14 -314 -4 -46 -12 -130 -15 -412 -15
-225 0 -356 -4 -360 -10 -4 -6 -167 -10 -456 -10 l-450 0 -77 -74 c-42 -41
-74 -77 -72 -80 3 -3 39 26 80 64 l75 69 433 3 c283 2 432 0 432 -7 -1 -5 -19
-28 -41 -50 -21 -22 -47 -57 -57 -77 l-17 -38 -425 0 c-234 0 -437 0 -452 0
-26 0 -28 -3 -28 -45 0 -33 4 -45 15 -45 13 0 15 -80 15 -660 0 -580 -2 -660
-15 -660 -12 0 -15 -15 -15 -75 l0 -75 470 0 471 0 -5 175 c-3 96 -1 175 3
175 5 0 10 -78 13 -174 2 -96 6 -178 10 -181 3 -4 341 -3 750 2 l743 8 3 83
c2 60 6 82 15 79 7 -2 13 -29 15 -70 l3 -67 1574 0 1575 0 2 738 3 737 33 3
c26 3 32 8 32 27 0 13 2 30 5 37 4 10 -32 46 -102 104 l-108 89 -155 5 -155 5
-5 39 c-3 27 -13 45 -31 58 -69 52 -236 50 -311 -4 -23 -16 -28 -27 -28 -59
l0 -40 -387 1 c-214 1 -398 4 -410 7 -22 5 -23 10 -23 107 0 101 -7 126 -36
126 -7 0 -16 -5 -20 -11z m-1822 -225 c53 -5 108 -28 108 -44 0 -5 -9 -14 -20
-20 -15 -8 -28 -7 -52 7 -49 25 -210 30 -299 9 -38 -10 -73 -14 -79 -11 -21
13 -9 34 28 46 74 25 170 29 314 13z m1401 -20 l76 -7 -37 -73 -37 -74 -515 0
-515 0 -78 71 c-42 39 -75 75 -71 80 6 10 1058 13 1177 3z m1304 -20 c3 -8 -4
-28 -16 -44 l-21 -29 22 -15 c12 -9 27 -16 33 -16 6 0 20 -7 31 -15 17 -13 -6
-14 -207 -15 l-227 0 -36 69 c-20 38 -36 72 -36 75 0 3 101 6 225 6 196 0 226
-2 232 -16z m753 -54 c47 -39 87 -75 88 -80 4 -11 -112 -11 -373 -1 l-160 6
38 19 c37 20 45 34 28 52 -5 5 -7 24 -4 42 l5 32 147 0 146 0 85 -70z m-4382
43 c-4 -24 32 -30 188 -32 137 -1 197 10 187 35 -4 11 11 14 84 14 l89 0 14
-36 c19 -48 57 -73 127 -83 37 -6 -115 -9 -421 -10 l-478 -1 38 48 c20 26 44
55 52 65 22 25 124 25 120 0z m2798 -28 c-4 -19 -2 -43 4 -54 10 -19 5 -20
-164 -18 -96 1 -178 5 -182 9 -4 4 0 25 7 45 l15 38 129 0 130 0 3 -42 c2 -24
8 -43 14 -43 7 0 9 18 6 50 -5 48 -4 50 20 50 22 0 24 -3 18 -35z m-1636 -30
l54 -55 -179 2 c-99 0 -164 3 -145 5 122 11 142 15 147 30 3 8 0 19 -8 23 -11
7 -10 13 5 29 33 36 66 27 126 -34z m1910 45 c24 -13 37 -69 19 -81 -20 -12
-236 -11 -260 1 -22 12 -27 75 -6 83 23 10 228 7 247 -3z m680 -150 c11 -11
20 -25 20 -30 0 -7 -420 -10 -1240 -10 l-1240 0 0 30 0 30 1220 0 c1207 0
1220 0 1240 -20z m745 -10 l0 -25 -332 -3 c-197 -1 -333 1 -333 7 0 5 15 18
33 30 31 20 43 21 332 18 l300 -2 0 -25z m-3227 -82 l-3 -103 -767 -3 -768 -2
0 105 0 105 770 0 771 0 -3 -102z m-1715 75 c156 -6 157 -6 157 -30 l0 -23
-445 0 -445 0 0 30 0 30 288 0 c158 0 358 -3 445 -7z m4875 -683 c2 -355 1
-654 -2 -665 -5 -20 -12 -20 -1378 -17 -1815 3 -1772 3 -1776 24 -3 17 18 18
342 18 l346 0 -2 471 -3 471 -340 1 -340 2 -3 32 c-3 29 0 32 30 38 18 3 171
5 341 3 301 -3 307 -3 308 17 5 72 5 174 1 193 l-4 22 -329 0 c-213 0 -329 4
-329 10 0 7 163 11 468 11 257 1 845 5 1307 9 462 3 957 6 1100 6 l260 -1 3
-645z m-4714 518 c3 -50 6 -350 6 -666 l0 -575 -142 6 c-79 4 -275 7 -435 7
l-293 0 0 660 0 660 429 0 428 0 7 -92z m2224 -25 l-3 -98 -332 -3 -333 -2 0
44 c0 25 5 48 10 51 6 3 10 28 10 56 l0 49 325 0 326 0 -3 -97z m-680 -472 c1
-250 -1 -458 -5 -462 -4 -4 -342 -11 -749 -15 l-742 -7 -6 114 c-3 63 -8 250
-12 417 -5 249 -3 302 8 302 7 0 71 -7 141 -15 350 -41 973 -40 1300 2 l47 6
0 39 0 40 -42 -6 c-102 -15 -867 -18 -1118 -5 -140 8 -274 14 -297 14 -34 0
-43 4 -43 18 0 16 41 17 758 15 l757 -3 3 -454z m-1093 388 c261 -11 880 -7
1008 7 53 6 57 5 57 -15 0 -13 -8 -22 -22 -25 -162 -35 -919 -42 -1228 -13
-102 10 -193 20 -202 23 -10 3 -18 15 -18 26 0 20 4 21 68 15 37 -4 189 -12
337 -18z m1780 -574 l0 -450 -332 -3 -333 -2 0 455 0 455 333 -2 332 -3 0
-450z m-705 -493 l0 -179 -552 -7 c-659 -8 -909 -9 -912 -4 -2 2 -6 69 -9 151
-5 137 -4 147 12 147 20 0 31 -50 31 -144 0 -28 4 -57 9 -65 8 -12 105 -13
662 -7 359 4 655 9 658 12 3 2 8 48 12 102 4 53 8 98 8 100 1 1 9 2 20 2 14 0
21 10 25 35 4 21 13 35 21 35 13 0 15 -29 15 -178z m-60 149 c0 -10 -6 -20
-12 -22 -7 -2 -322 -3 -700 -1 -679 2 -688 3 -688 22 0 20 8 20 700 20 680 0
700 -1 700 -19z m-46 -133 c-3 -51 -8 -96 -11 -100 -2 -5 -294 -8 -649 -8
l-644 0 0 23 c0 13 -3 58 -6 100 l-7 77 662 0 663 0 -8 -92z m3283 -63 c7 -2
10 -23 10 -52 l-2 -48 -1562 -3 -1563 -2 0 53 c0 30 3 56 6 60 7 6 3089 -2
3111 -8z m-4728 -31 c31 -7 32 -8 29 -58 l-3 -51 -450 0 -450 0 -3 58 -3 57
424 0 c234 0 439 -3 456 -6z"/>
<path d="M1758 2214 c-14 -3 -32 -11 -38 -19 -18 -22 28 -30 177 -30 135 0
173 9 145 37 -11 11 -232 21 -284 12z"/>
<path d="M1833 2070 c5 -18 4 -19 -16 -5 -30 21 -73 19 -97 -5 -55 -55 22
-128 93 -88 12 7 33 13 47 13 28 0 35 19 25 71 -5 28 -10 34 -32 34 -20 0 -24
-4 -20 -20z"/>
<path d="M2060 2020 l0 -70 215 0 215 0 0 70 0 70 -215 0 -215 0 0 -70z m114
54 c10 -4 16 -18 16 -35 l0 -30 88 3 87 3 5 31 c5 29 7 31 53 31 l47 1 0 -59
0 -59 -195 0 -195 0 0 60 0 60 39 0 c22 0 46 -3 55 -6z"/>
<path d="M5440 1915 l0 -115 350 0 350 0 0 115 0 115 -350 0 -350 0 0 -115z
m688 3 l-3 -93 -332 -3 -333 -2 0 95 0 95 335 0 336 0 -3 -92z"/>
<path d="M3870 1905 l0 -115 735 0 735 0 0 115 0 115 -735 0 -735 0 0 -115z
m1450 5 l0 -100 -715 0 -715 0 0 100 0 100 715 0 715 0 0 -100z"/>
<path d="M3893 1697 c-3 -5 -5 -210 -4 -455 1 -246 1 -455 1 -465 0 -16 21
-17 348 -15 l347 3 3 468 c2 370 0 467 -10 468 -118 5 -681 2 -685 -4z m677
-462 l0 -455 -335 0 -335 0 0 455 0 455 335 0 335 0 0 -455z"/>
<path d="M3980 1230 l0 -380 255 0 255 0 0 305 c0 265 2 309 16 330 15 23 15
27 1 48 -8 13 -17 34 -19 48 l-3 24 -252 3 -253 2 0 -380z m490 348 c0 -7 -14
-21 -30 -30 -17 -9 -30 -24 -30 -33 0 -17 34 -55 50 -55 6 0 10 -105 10 -295
l0 -295 -235 0 -235 0 0 360 0 360 235 0 c181 0 235 -3 235 -12z"/>
<path d="M4663 1702 l-23 -3 0 -470 0 -469 350 0 350 0 -2 471 -3 471 -325 2
c-179 0 -335 0 -347 -2z m657 -467 l0 -455 -330 0 -330 0 0 455 0 455 330 0
330 0 0 -455z"/>
<path d="M4737 1603 c-4 -3 -7 -16 -7 -28 0 -13 -7 -28 -15 -35 -8 -7 -15 -20
-15 -30 0 -10 7 -23 15 -30 13 -11 15 -59 15 -321 l0 -309 255 0 255 0 0 380
0 380 -248 0 c-137 0 -252 -3 -255 -7z m493 -373 l0 -360 -240 0 -240 0 0 292
0 292 27 21 c21 17 25 27 19 48 -3 14 -15 29 -26 32 -11 3 -20 13 -20 21 0 12
38 14 240 14 l240 0 0 -360z"/>
<path d="M5457 1702 c-15 -3 -17 -25 -17 -218 l0 -214 350 0 350 0 -2 216 -3
215 -331 2 c-182 1 -338 1 -347 -1z m666 -26 c3 -7 6 -97 7 -200 l1 -186 -336
0 -335 0 0 200 0 200 329 0 c269 0 330 -2 334 -14z"/>
<path d="M5450 995 l0 -225 350 0 350 0 0 225 0 225 -350 0 -350 0 0 -225z
m680 5 l0 -210 -330 0 -330 0 0 210 0 210 330 0 330 0 0 -210z"/>
<path d="M739 1983 c-4 -63 -5 -172 -1 -191 l4 -22 347 2 346 3 0 110 0 110
-347 3 c-326 2 -348 1 -349 -15z m681 -98 c0 -90 -1 -95 -22 -100 -13 -3 -162
-4 -333 -3 l-310 3 -3 98 -3 97 336 0 335 0 0 -95z"/>
<path d="M740 1658 c-3 -166 -2 -410 2 -414 4 -3 572 -8 681 -4 16 0 17 17 17
215 l0 215 -350 0 c-273 0 -350 -3 -350 -12z m678 -206 l2 -202 -332 2 -333 3
-3 190 c-1 104 0 195 3 202 3 11 71 13 332 11 l328 -3 3 -203z"/>
<path d="M744 1177 c-2 -7 -3 -109 -2 -227 l3 -215 325 -3 c179 -1 335 0 348
3 l22 5 0 225 0 225 -345 0 c-271 0 -347 -3 -351 -13z m684 -214 l-3 -208
-332 -3 -333 -2 0 210 0 210 335 0 335 0 -2 -207z"/>
<path d="M1926 1629 c-57 -45 -73 -126 -36 -186 37 -62 45 -63 404 -63 l326 0
39 36 c70 63 63 166 -14 214 -31 19 -49 20 -362 20 -320 0 -331 -1 -357 -21z
m687 -3 c54 -22 72 -51 72 -112 0 -45 -4 -58 -28 -81 l-27 -28 -327 -3 c-229
-2 -335 1 -355 9 -17 7 -35 28 -49 56 -21 43 -21 45 -4 90 14 36 25 49 59 64
37 17 69 19 334 19 225 0 300 -3 325 -14z"/>
<path d="M3140 1230 l0 -380 255 0 255 0 0 308 c0 296 1 308 20 320 25 15 26
47 1 64 -10 8 -21 25 -23 38 l-3 25 -252 3 -253 2 0 -380z m490 347 c0 -7 -9
-20 -20 -30 -11 -9 -20 -26 -20 -37 0 -11 9 -25 20 -32 19 -12 20 -24 20 -311
l0 -297 -237 2 -238 3 -3 345 c-1 190 0 351 3 357 7 19 475 19 475 0z"/>
</g>
</svg>
