<?xml version="1.0" standalone="no"?>
<!DOCTYPE svg PUBLIC "-//W3C//DTD SVG 20010904//EN"
 "http://www.w3.org/TR/2001/REC-SVG-20010904/DTD/svg10.dtd">
<svg version="1.0" xmlns="http://www.w3.org/2000/svg"
 width="564.000000pt" height="435.000000pt" viewBox="0 0 564.000000 435.000000"
 preserveAspectRatio="xMidYMid meet">
<metadata>
Created by potrace 1.16, written by Peter Selinger 2001-2019
</metadata>
<g transform="translate(0.000000,435.000000) scale(0.100000,-0.100000)"
fill="#000000" stroke="none">
<path d="M2547 4033 c-4 -3 -7 -18 -7 -32 l0 -26 255 3 c202 2 255 0 255 -10
0 -23 -97 -214 -140 -279 -24 -34 -67 -91 -97 -126 -30 -35 -51 -67 -48 -72 3
-5 -8 -4 -24 2 -24 9 -33 7 -59 -11 -35 -26 -55 -28 -72 -7 -7 8 -19 15 -26
15 -17 0 -15 -18 -23 200 l-7 185 -2 -187 c-2 -192 -7 -222 -46 -266 l-20 -22
22 -30 c12 -16 22 -43 22 -60 0 -16 5 -30 10 -30 6 0 11 -39 12 -92 l1 -93 6
90 c7 94 9 102 50 147 48 54 80 23 83 -80 l1 -57 6 55 c4 33 9 50 14 43 5 -7
17 -13 28 -13 15 0 19 7 19 38 0 48 14 62 62 62 31 0 38 -3 36 -17 -2 -10 3
-17 10 -15 6 1 12 -5 12 -13 0 -8 -4 -15 -10 -15 -12 0 -13 -50 -1 -69 6 -10
2 -22 -14 -39 -25 -26 -41 -70 -30 -80 4 -4 20 1 36 11 41 23 90 22 112 -3 32
-38 109 -16 93 26 -4 11 1 18 14 21 11 3 20 14 20 25 0 10 5 16 10 13 6 -3 10
5 10 19 0 23 -3 24 -40 20 -22 -3 -40 -2 -40 2 0 4 12 23 26 42 l27 35 14 -24
c7 -13 13 -17 12 -9 -1 8 -1 27 0 43 l1 27 169 0 c185 0 187 -1 193 -60 2 -26
7 -35 21 -34 15 2 17 -9 17 -87 l0 -89 -199 0 -200 0 -4 33 c-2 17 -5 -21 -5
-85 l-2 -117 -24 5 c-14 2 -28 0 -31 -6 -4 -7 63 -10 197 -10 186 0 205 -2
228 -20 25 -20 24 -20 -360 -19 -384 0 -385 0 -361 19 19 16 38 20 102 20 72
0 79 2 79 20 0 11 -4 20 -10 20 -5 0 -10 -7 -10 -15 0 -12 -14 -15 -64 -15
-59 0 -64 2 -59 20 3 11 1 20 -5 20 -15 0 -72 81 -72 102 0 16 9 18 73 18 45
0 78 -5 86 -12 10 -11 11 -10 6 5 -6 14 -20 17 -91 17 l-84 0 0 43 c0 30 -3
38 -10 27 -18 -29 14 -134 57 -181 35 -39 35 -40 17 -60 -29 -32 -101 -71
-158 -86 l-51 -13 50 6 c27 3 62 12 77 20 22 11 103 14 424 14 340 0 405 -2
449 -16 55 -18 138 -13 151 8 5 8 1 9 -12 4 -10 -5 -38 -11 -61 -13 -51 -7
-132 29 -177 76 l-29 30 27 28 c45 45 58 81 70 202 14 131 25 161 61 161 27 0
77 -63 68 -86 -3 -8 0 -14 7 -14 6 0 8 5 5 10 -3 6 3 10 14 10 17 0 21 6 21
30 0 17 9 43 20 58 20 27 19 62 -2 62 -5 0 -16 16 -24 35 -8 19 -18 35 -22 35
-9 0 -3 436 7 475 4 17 4 39 0 50 -7 17 -8 16 -8 -7 l-1 -28 -566 0 -566 0 4
25 c6 27 5 29 -5 18z m633 -65 c0 9 56 12 246 12 l247 0 -6 -241 c-5 -238 -6
-241 -29 -258 -32 -22 -48 -21 -82 7 -16 12 -35 21 -42 18 -7 -3 -18 2 -24 10
-7 8 -16 14 -21 14 -13 0 -89 76 -89 89 0 6 -4 11 -9 11 -14 0 -106 149 -136
220 -35 83 -45 103 -52 97 -2 -3 14 -45 36 -93 23 -48 39 -89 36 -92 -7 -7
-95 179 -95 202 0 17 2 18 10 6 6 -10 10 -11 10 -2z m-42 -130 c7 -7 12 -25
12 -40 0 -17 8 -33 20 -40 11 -7 20 -22 20 -34 0 -11 9 -29 20 -39 11 -10 20
-25 20 -33 0 -20 29 -52 47 -52 7 0 13 -11 13 -24 0 -16 11 -32 29 -46 17 -11
33 -29 36 -40 4 -11 15 -20 25 -20 10 0 25 -11 34 -25 l16 -25 -304 0 -304 0
11 25 c7 14 18 25 25 25 7 0 18 11 24 25 6 14 22 32 35 40 12 9 23 24 23 35 0
13 10 24 25 30 14 5 27 21 31 36 4 15 15 35 25 45 11 11 19 30 19 43 0 13 7
26 15 30 8 3 15 13 15 23 0 15 2 16 10 3 8 -12 10 -9 10 12 0 53 21 73 48 46z
m372 -751 c0 -16 -25 -53 -63 -94 -17 -18 -26 -33 -19 -33 7 0 12 -4 12 -10 0
-6 -60 -10 -160 -10 l-160 0 0 73 c0 41 3 77 7 80 3 4 91 7 195 7 146 0 188
-3 188 -13z"/>
<path d="M4415 3838 c-98 -97 -180 -158 -214 -158 -11 0 -21 -6 -21 -12 0 -9
-4 -8 -10 2 -6 10 -10 -79 -10 -262 l0 -276 345 -1 345 0 0 274 c0 238 -2 275
-15 275 -8 0 -15 -4 -15 -9 0 -12 -68 15 -92 36 -9 8 -21 12 -27 9 -5 -4 -13
-1 -17 5 -5 8 -3 9 7 4 15 -9 -135 158 -167 186 -18 16 -24 12 -109 -73z m128
21 c21 -27 42 -47 46 -45 4 3 27 -15 51 -39 24 -25 40 -45 35 -45 -6 0 -23 16
-38 35 -15 19 -33 35 -40 35 -14 0 82 -98 103 -105 9 -3 17 -12 17 -19 0 -11
-6 -12 -23 -6 -14 6 -26 5 -29 -1 -4 -5 -10 -7 -14 -5 -12 8 -344 8 -363 1
-27 -10 -23 22 4 36 11 6 60 50 107 97 47 47 93 84 100 83 13 -2 13 0 2 13 -8
9 -10 16 -5 16 5 -1 26 -23 47 -51z m277 -459 l0 -250 -320 0 -320 0 0 250 0
250 320 0 320 0 0 -250z"/>
<path d="M4210 3400 l0 -220 290 0 290 0 0 220 0 220 -290 0 -290 0 0 -220z
m558 3 l-3 -198 -267 -3 -268 -2 0 200 0 200 270 0 270 0 -2 -197z"/>
<path d="M4440 3551 c-86 -15 -136 -46 -167 -105 -47 -91 61 -187 212 -189
146 -1 235 59 235 159 0 88 -144 157 -280 135z m171 -34 c121 -51 128 -158 14
-217 -68 -34 -198 -36 -262 -3 -124 67 -104 182 42 230 48 16 158 10 206 -10z"/>
<path d="M4344 3465 c-8 -13 -13 -29 -9 -36 4 -6 1 -15 -6 -20 -10 -6 -11 -9
-1 -9 6 0 12 -7 12 -15 0 -8 9 -15 20 -15 11 0 20 4 20 10 0 5 -7 7 -15 4 -8
-4 -15 -1 -15 5 0 6 12 11 26 11 14 0 23 3 20 8 -2 4 2 16 10 27 8 10 14 14
14 8 0 -7 -5 -15 -11 -19 -20 -12 13 -21 74 -20 48 1 57 -2 57 -16 0 -10 5
-18 11 -18 6 0 8 8 5 18 -5 15 0 17 39 14 24 -2 46 -9 48 -15 2 -7 3 -4 2 6
-2 9 1 17 6 17 5 0 9 7 9 16 0 10 -6 14 -15 10 -8 -3 -15 -1 -15 3 0 5 -8 8
-17 6 -78 -15 -83 -15 -83 6 0 18 -5 21 -30 17 -18 -3 -31 0 -34 8 -3 8 -18
12 -34 11 -16 -1 -28 -7 -25 -13 2 -5 -8 -23 -22 -40 -21 -24 -27 -26 -34 -15
-11 18 1 46 27 60 16 10 16 10 0 11 -10 0 -25 -11 -34 -25z"/>
<path d="M1910 3739 c0 -6 -7 -9 -15 -6 -8 4 -17 2 -21 -4 -3 -6 -17 -14 -30
-19 -18 -7 -24 -17 -24 -39 0 -16 5 -33 10 -36 6 -3 11 -41 12 -83 l2 -77 6
80 c3 44 7 70 8 59 1 -12 9 -27 18 -34 13 -11 16 -10 21 8 3 12 7 22 10 22 11
0 46 -41 39 -47 -4 -4 -11 -2 -15 6 -14 21 -21 -26 -19 -124 l1 -90 6 82 c3
45 12 88 19 95 9 9 12 9 12 -5 0 -9 -4 -17 -10 -17 -5 0 -10 -5 -10 -11 0 -6
9 -8 21 -4 20 7 21 5 14 -122 -7 -142 -12 -170 -25 -138 -8 19 -9 19 -9 -3 -1
-12 -14 -48 -31 -79 -16 -31 -30 -68 -29 -82 0 -21 3 -19 13 14 15 49 46 109
52 102 3 -2 -6 -26 -20 -53 -13 -27 -28 -67 -32 -89 -6 -33 -8 -36 -15 -20 -5
12 -6 5 -2 -20 7 -50 27 -91 48 -99 9 -3 31 -6 49 -6 46 0 72 32 79 100 4 31
3 46 -2 35 -7 -17 -8 -17 -15 9 -4 15 -4 35 -1 45 3 10 -8 38 -25 64 l-30 48
2 167 c2 164 0 184 -15 210 -7 9 35 12 195 12 145 0 207 3 216 12 9 9 12 8 12
-5 0 -21 26 -22 34 -1 3 9 6 38 6 65 0 32 4 49 13 49 6 0 1 6 -13 14 -16 8
-29 9 -37 3 -9 -6 -15 -4 -19 7 -5 14 -28 16 -178 14 l-171 -2 165 -3 c141 -3
167 -6 178 -20 13 -18 16 -63 6 -100 -6 -23 -7 -23 -218 -23 -152 0 -215 3
-224 12 -7 7 -12 35 -12 63 0 28 5 56 12 63 9 9 9 12 0 12 -7 0 -12 -5 -12
-11z"/>
<path d="M176 3668 c-14 -19 -15 -184 -9 -1512 3 -820 7 -1493 9 -1495 2 -2 4
445 4 994 0 937 1 1000 18 1018 16 19 16 20 0 14 -12 -4 -18 -1 -18 8 0 17 26
20 35 5 4 -7 251 -10 709 -10 672 0 704 -1 720 -19 15 -17 17 -96 16 -1041 0
-935 -2 -1025 -17 -1042 -15 -17 -53 -18 -723 -18 -661 0 -708 1 -722 18 -9 9
-18 26 -21 37 -4 19 -5 18 -6 -2 0 -12 4 -25 9 -28 6 -4 8 -10 5 -15 -3 -5 9
-12 27 -15 18 -3 351 -5 741 -3 389 2 707 1 707 -3 0 -3 -5 -10 -11 -16 -8 -8
-8 -13 0 -18 7 -4 14 6 19 27 5 25 8 10 12 -62 5 -99 2 -140 -9 -140 -4 0 -7
34 -7 75 l1 76 -727 -1 c-643 0 -728 1 -728 15 0 13 83 15 698 18 l697 2 -700
3 c-529 1 -704 5 -713 14 -9 9 -12 9 -12 0 0 -7 5 -12 10 -12 14 0 12 -34 -2
-48 -10 -10 -10 -17 1 -33 10 -17 10 -27 1 -49 -10 -23 -9 -31 6 -49 l18 -21
1788 0 c1132 0 1789 4 1793 10 10 16 6 1786 -4 1813 -5 14 -7 27 -4 31 3 3 -2
21 -11 40 -9 20 -16 37 -15 38 1 2 -3 13 -10 26 -12 22 -11 22 64 22 42 0 75
-4 75 -10 0 -5 -8 -7 -17 -3 -13 4 -15 3 -7 -6 16 -18 218 -33 350 -26 139 8
190 17 187 33 -2 9 32 12 122 12 88 0 124 -3 122 -11 -4 -20 52 -29 203 -35
170 -7 318 6 336 30 8 11 27 16 65 15 54 0 54 -1 106 -63 l52 -64 -37 -6 c-20
-3 -356 -7 -747 -8 l-710 -3 715 -5 c796 -6 747 -1 790 -73 11 -18 20 -26 20
-19 0 21 -38 70 -60 77 -31 10 -23 22 14 21 71 -3 66 62 69 -850 l2 -821 3
822 2 823 -80 95 -80 95 0 135 c0 74 1 137 3 139 9 16 -136 86 -150 72 -3 -3
0 -6 8 -6 8 0 38 -11 67 -25 l52 -24 0 -129 c0 -89 -4 -132 -12 -141 -11 -10
-9 -11 6 -5 14 5 17 3 14 -7 -2 -8 -15 -16 -27 -17 -15 -2 -21 0 -17 7 5 8
-202 11 -727 11 -494 0 -744 3 -765 11 l-30 10 -4 107 c-2 59 -1 118 2 132 8
34 73 65 190 89 52 10 86 20 74 20 -40 2 -140 -20 -210 -46 l-72 -27 -6 -44
c-3 -25 -5 -75 -4 -111 l1 -66 7 50 c6 47 7 46 8 -27 2 -98 7 -101 167 -109
l120 -5 -143 -2 c-141 -2 -143 -2 -153 22 -8 17 -17 22 -31 18 -20 -5 -20 -4
-3 15 15 17 17 38 16 123 -2 106 -6 130 -23 130 -7 0 -7 -4 0 -13 6 -7 12 -59
13 -116 1 -91 -1 -106 -17 -118 -21 -16 -140 -18 -181 -3 -26 9 -27 9 -9 -5
19 -14 18 -15 -13 -15 -31 0 -32 1 -17 22 12 17 16 48 16 118 0 52 5 102 10
110 6 10 34 17 92 21 l83 6 -77 1 c-86 2 -108 -3 -108 -26 0 -13 -4 -11 -16 6
-8 12 -25 22 -37 21 -20 -1 -19 -2 4 -10 33 -12 39 -32 39 -134 0 -61 -4 -87
-19 -108 -16 -25 -20 -27 -32 -14 -10 11 -18 12 -31 3 -13 -8 -21 -7 -30 3
-11 11 -9 13 10 8 18 -4 21 -3 13 7 -14 17 -4 26 27 26 20 0 23 -4 19 -21 -4
-16 -3 -19 5 -11 6 6 8 17 5 25 -7 18 -111 32 -156 22 -35 -8 -34 -12 -31 105
1 41 6 77 11 78 5 2 9 9 9 15 -1 7 -10 1 -20 -12 -16 -19 -20 -38 -20 -106 0
-64 -3 -84 -15 -89 -8 -3 -14 -16 -13 -29 2 -19 8 -23 35 -23 18 0 33 4 33 8
0 4 -13 8 -30 8 -20 0 -30 5 -30 15 0 23 43 18 64 -6 22 -26 9 -39 -40 -39
-40 0 -52 14 -57 70 -2 28 -4 13 -5 -37 -2 -84 -11 -100 -40 -71 -15 15 -17
310 -2 339 12 21 40 25 56 9 13 -13 555 -20 547 -7 -2 4 -123 7 -268 7 -165 0
-266 4 -270 10 -3 6 -17 10 -30 10 -13 0 -27 -4 -30 -10 -4 -7 -238 -10 -671
-10 l-664 0 0 415 c0 337 -3 422 -14 450 -8 19 -39 59 -68 89 l-54 56 -726 0
-727 0 -15 -22z m1479 -10 c8 -13 18 -21 22 -18 4 3 26 -23 50 -58 l43 -63 0
-580 0 -580 -42 -102 -43 -102 -5 245 c-4 183 -9 252 -19 273 -11 21 -12 32
-2 50 8 16 11 138 9 467 l-3 445 -3 -446 c-2 -381 -4 -448 -17 -459 -8 -7 -13
-15 -11 -19 2 -3 -316 -5 -707 -3 -613 2 -714 4 -734 17 l-23 15 0 455 c0 399
2 455 16 469 14 14 94 16 734 16 l719 0 16 -22z m1435 -1132 c0 -135 -1 -144
-20 -149 -16 -4 -18 -2 -10 13 15 28 12 37 -12 43 -23 6 -23 6 -3 -9 16 -12
17 -16 6 -23 -7 -5 -21 -8 -29 -7 -20 3 -29 26 -10 26 8 1 6 6 -6 15 -16 12
-18 26 -17 97 1 45 7 88 12 94 6 7 27 15 47 17 l37 4 -37 1 c-23 1 -43 -4 -53
-15 -11 -11 -19 -13 -24 -5 -3 6 -20 13 -36 17 l-30 6 33 -15 32 -15 0 -85 0
-85 -27 -4 c-23 -3 -21 -4 10 -6 50 -2 48 -21 -3 -21 -22 0 -40 5 -40 11 0 6
-16 9 -37 7 -44 -3 -60 -35 -24 -45 50 -13 12 -18 -122 -16 -145 2 -187 6
-209 19 -9 6 -9 3 1 -9 12 -15 10 -17 -25 -16 -22 1 -31 3 -21 6 9 2 17 9 17
13 0 5 -12 5 -27 -1 -16 -6 -105 -11 -211 -11 -231 0 -222 -6 -222 138 0 132
-3 135 -113 132 l-82 -2 80 -3 c60 -3 83 -8 93 -20 15 -21 17 -196 2 -224 -7
-12 -7 -19 -1 -19 5 0 11 7 13 15 2 12 6 11 17 -6 13 -21 12 -22 -25 -16 -22
4 -70 7 -109 7 -38 0 -77 5 -85 10 -11 7 -17 37 -21 117 l-6 108 1 -113 c1
-88 4 -115 16 -122 12 -8 11 -10 -7 -10 -23 0 -23 1 -23 150 l0 150 655 0 655
0 0 -144z m-1190 -176 c85 0 88 -1 94 -25 6 -25 7 -25 117 -25 100 0 110 -2
107 -17 -3 -16 -18 -18 -109 -21 l-106 -3 -6 29 c-6 29 -7 29 -64 25 -32 -2
-77 -1 -100 2 -33 5 -41 10 -37 23 3 9 -4 1 -15 -18 -22 -39 -28 -63 -8 -37
10 15 27 17 112 15 100 -3 100 -3 99 -28 -2 -38 -9 -69 -18 -77 -8 -7 -2 33
11 82 5 19 4 19 -9 2 -12 -16 -27 -18 -116 -15 -92 3 -103 1 -108 -15 -3 -10
-8 -17 -10 -14 -2 2 3 21 12 43 9 21 20 50 25 63 6 15 14 21 25 17 9 -3 55 -6
104 -6z m743 0 l92 -1 -40 -15 c-23 -9 -75 -15 -121 -16 -79 -1 -81 -1 -91
-29 l-11 -29 -111 0 c-104 0 -111 1 -111 20 0 19 7 20 115 20 70 0 115 4 115
10 0 18 41 52 57 46 8 -3 56 -6 106 -6z m1050 -14 c11 -28 -79 -36 -123 -11
-14 8 -32 14 -40 14 -8 1 -4 -5 9 -12 17 -8 31 -30 44 -70 10 -32 17 -60 15
-62 -5 -6 -47 -13 -76 -14 -13 -1 -20 -5 -17 -11 4 -6 -35 -10 -109 -10 -82 0
-116 3 -119 13 -3 10 -9 10 -26 0 -26 -16 -231 -18 -231 -3 0 6 -7 10 -15 10
-8 0 -15 -4 -15 -10 0 -6 -43 -10 -110 -10 -60 0 -110 4 -110 9 0 4 -21 11
-46 15 -26 3 -52 10 -58 16 -7 5 -48 10 -91 12 -63 2 -80 6 -80 18 0 12 17 16
82 18 71 2 82 1 86 -15 3 -10 5 0 5 22 0 22 -2 32 -5 22 -4 -17 -14 -19 -89
-15 -88 3 -101 -3 -89 -43 4 -10 1 -28 -5 -39 -10 -20 -19 -21 -135 -19 -119
1 -123 2 -112 20 10 17 26 19 132 21 l120 2 -122 3 c-115 3 -123 5 -123 23 0
19 7 20 118 20 117 0 119 0 130 25 11 24 16 25 98 25 70 0 89 3 99 17 10 13
35 17 129 21 102 4 116 3 116 -12 0 -13 11 -16 68 -14 56 1 59 2 20 5 -68 6
-59 23 11 23 58 0 90 -14 54 -23 -10 -3 39 -5 110 -6 105 -1 127 1 127 14 0
11 21 15 103 18 257 8 265 8 270 -7z m-2003 -950 c0 -420 -3 -771 -6 -780 -3
-9 -10 -16 -16 -16 -5 0 -7 4 -3 9 3 6 5 342 5 749 0 652 3 802 16 802 2 0 4
-344 4 -764z m570 746 c-19 -6 -30 -22 -29 -42 0 -8 4 -5 9 8 9 21 15 22 108
22 110 0 122 -6 122 -60 0 -54 -12 -60 -115 -60 -92 0 -107 4 -119 30 -3 8 -4
5 -2 -7 3 -15 -1 -23 -10 -23 -8 0 -14 5 -14 12 0 9 -3 9 -12 0 -8 -8 -45 -12
-102 -12 -71 0 -94 4 -109 18 -19 16 -20 16 -14 0 4 -10 2 -18 -3 -18 -6 0
-10 8 -10 17 0 16 -1 16 -13 0 -10 -15 -27 -17 -117 -15 l-105 3 0 55 0 55
105 3 c114 3 129 -3 131 -57 1 -22 2 -21 11 9 5 19 15 38 21 42 14 9 179 11
201 2 11 -4 16 -19 16 -47 0 -22 3 -37 7 -34 15 16 3 72 -19 88 -22 17 -22 17
27 17 28 0 43 -3 35 -6z m1040 -2 c0 -6 38 -10 89 -10 99 0 121 -11 121 -57 0
-50 -24 -63 -117 -63 -46 0 -94 5 -105 11 -15 8 -19 8 -14 0 4 -7 -1 -11 -13
-11 -15 0 -19 4 -14 18 7 16 6 16 -11 0 -14 -15 -35 -18 -110 -18 -101 0 -116
7 -116 53 0 61 11 67 120 67 84 0 101 -3 109 -17 9 -16 10 -16 11 -2 0 24 -21
29 -120 29 -99 0 -120 -5 -120 -28 0 -13 -4 -11 -16 6 -14 20 -23 22 -114 22
-109 0 -130 -5 -130 -29 1 -14 2 -14 11 2 8 14 25 17 113 17 114 0 116 -1 116
-64 0 -50 -13 -56 -120 -56 -61 0 -100 4 -108 12 -9 9 -12 9 -12 0 0 -7 -7
-12 -15 -12 -14 0 -14 3 0 30 9 17 11 30 5 30 -5 0 -10 -6 -10 -14 0 -35 -29
-46 -118 -46 -48 0 -92 4 -98 8 -16 10 -24 73 -12 97 9 19 8 19 -6 2 -14 -18
-15 -18 -24 0 -9 14 -28 19 -99 24 -48 3 140 6 420 7 325 1 507 -2 507 -8z
m478 -62 l-1 -73 -6 65 -6 65 -108 1 -107 0 105 -3 106 -4 -3 -57 -3 -57 -107
-3 c-70 -2 -108 1 -108 8 0 5 -5 10 -11 10 -5 0 -7 -4 -4 -10 3 -5 0 -10 -9
-10 -11 0 -12 6 -5 30 5 17 13 44 18 60 6 18 6 30 0 30 -5 0 -9 -8 -9 -17 0
-15 -2 -14 -14 3 -12 16 -31 20 -108 25 -62 4 -15 6 145 7 l237 2 -2 -72z
m-1818 -89 c0 -5 5 -9 11 -9 5 0 7 5 4 10 -3 6 -2 10 4 10 5 0 13 -4 16 -10 8
-13 146 -13 182 1 19 7 29 7 31 0 2 -6 8 -11 13 -11 6 0 7 5 4 10 -4 6 28 10
89 10 57 0 96 -4 96 -10 0 -5 8 -10 18 -10 13 0 14 2 4 9 -9 5 11 8 50 8 34
-1 66 -6 70 -11 5 -7 8 -7 8 2 0 9 24 12 86 12 54 0 83 -4 79 -10 -3 -5 -2
-10 4 -10 5 0 13 5 16 10 3 6 12 10 18 10 7 0 6 -4 -3 -10 -13 -8 -13 -10 2
-10 9 0 20 5 23 10 4 6 49 10 112 9 65 -1 100 -5 92 -10 -9 -6 -10 -9 -2 -9 6
0 14 4 17 9 9 15 198 14 207 -1 7 -10 9 -10 9 0 0 6 8 12 18 12 15 0 15 -2 2
-11 -12 -9 -11 -9 5 -3 11 4 58 9 104 12 63 3 86 1 92 -9 6 -10 9 -11 9 -1 0
6 11 12 25 12 14 0 25 -5 25 -11 0 -8 4 -8 13 -1 6 5 69 10 139 10 l128 1 0
-789 0 -790 -1040 0 -1040 0 0 790 0 791 130 -2 c72 0 130 -5 130 -10z m-300
-1504 c0 -13 -88 -15 -735 -15 -647 0 -735 2 -735 15 0 13 88 15 735 15 647 0
735 -2 735 -15z m-10 -40 c0 -13 -87 -15 -712 -17 l-713 -3 710 -2 c390 -2
713 -7 718 -12 5 -5 3 -18 -5 -30 l-13 -21 -705 0 -706 0 -18 21 c-16 19 -16
23 -3 30 9 6 13 17 10 29 -5 20 -1 20 716 20 634 0 721 -2 721 -15z m2135 -60
c0 -20 -8 -20 -1039 -23 -638 -1 -1044 2 -1049 7 -5 5 -7 17 -4 25 6 14 111
16 1049 13 1036 -2 1043 -2 1043 -22z"/>
<path d="M1008 3289 c7 -8 12 -42 12 -91 0 -68 -2 -78 -18 -78 -22 0 -62 27
-62 43 0 8 3 8 12 -1 7 -7 16 -12 22 -12 5 0 -1 8 -12 19 -28 23 -28 35 1 49
l22 12 -25 -3 c-34 -3 -32 19 5 43 19 12 24 20 14 20 -9 0 -24 -9 -33 -19 -22
-24 -53 -23 -85 1 -38 29 -70 24 -77 -12 l-6 -29 -101 -3 c-91 -3 -98 -4 -82
-18 11 -8 16 -10 13 -5 -4 7 18 10 61 10 67 0 68 0 67 -27 -1 -24 -5 -28 -33
-29 -18 -1 -38 -2 -45 -3 -6 -1 -14 6 -16 14 -5 13 -3 13 11 1 11 -8 17 -9 17
-3 0 6 -10 16 -21 23 -17 9 -20 8 -14 -2 6 -9 3 -11 -9 -6 -15 6 -15 5 1 -18
16 -21 26 -24 80 -25 l62 0 3 -37 c4 -53 29 -54 75 -4 46 51 80 55 107 11 20
-35 61 -65 76 -55 5 3 10 24 10 46 l0 39 46 0 c38 0 50 5 66 26 11 14 23 23
26 20 3 -3 -1 -14 -9 -24 -8 -10 3 0 23 22 21 23 38 45 38 50 0 5 -41 6 -94 3
l-94 -5 -8 31 c-5 17 -16 32 -24 35 -12 4 -13 2 -2 -9z"/>
<path d="M2500 1933 c0 -5 272 -7 605 -5 l605 2 0 -155 0 -155 -599 0 c-470 0
-600 3 -604 13 -3 7 -6 5 -6 -5 -1 -17 34 -18 609 -18 l610 0 0 165 0 165
-610 0 c-335 0 -610 -3 -610 -7z"/>
<path d="M2520 1780 l0 -140 590 0 590 0 0 140 0 140 -590 0 -590 0 0 -140z
m1170 0 l0 -130 -580 0 -580 0 0 130 0 130 580 0 580 0 0 -130z"/>
<path d="M2828 1563 l272 -3 0 -550 0 -550 -295 0 -295 0 -3 533 -2 532 -3
-537 -2 -538 615 0 615 0 0 560 0 560 -587 -2 c-324 -2 -465 -4 -315 -5z m892
-553 l0 -550 -300 0 -300 0 0 550 1 550 299 0 300 0 0 -550z"/>
<path d="M3140 1011 c0 -483 1 -529 17 -535 9 -4 137 -6 285 -6 l268 1 0 535
0 534 -285 0 -285 0 0 -529z m560 -1 l0 -519 -258 -3 c-143 -2 -266 -2 -275 0
-16 3 -17 47 -17 523 l0 519 275 0 275 0 0 -520z"/>
<path d="M3082 1023 l-2 -533 -275 0 -275 0 -3 528 -2 527 -3 -531 c-2 -462 0
-533 13 -538 23 -8 528 -6 543 2 10 7 12 122 9 543 l-2 534 -3 -532z"/>
<path d="M1783 1193 c-10 -3 -13 -47 -13 -169 l0 -164 310 0 310 0 -2 168 -3
167 -295 2 c-162 1 -301 -1 -307 -4z m592 -163 l0 -155 -297 -3 -298 -2 0 153
c0 85 3 157 7 160 4 4 137 6 297 5 l291 -3 0 -155z"/>
<path d="M1800 1025 l0 -135 285 0 285 0 0 135 0 135 -285 0 -285 0 0 -135z
m560 0 l0 -125 -275 0 -275 0 0 125 0 125 275 0 275 0 0 -125z"/>
<path d="M1770 665 l0 -165 310 0 310 0 0 165 0 165 -310 0 -310 0 0 -165z
m610 0 l0 -155 -300 0 -300 0 0 155 0 155 300 0 300 0 0 -155z"/>
<path d="M2130 3561 c-6 -11 -9 -73 -8 -143 l2 -123 3 113 c3 88 6 112 16 104
7 -6 17 -10 22 -9 13 2 19 -143 10 -240 -5 -53 -11 -73 -21 -73 -10 0 -14 15
-16 53 l-1 52 -7 -65 c-4 -36 -11 -76 -15 -90 -6 -21 -4 -20 14 8 37 57 75 31
61 -43 -6 -29 -8 -33 -10 -15 -1 14 -5 33 -9 43 -4 10 -7 -29 -7 -87 0 -99 -5
-128 -20 -113 -4 4 -7 50 -7 103 0 67 -3 91 -9 79 -6 -9 -8 -52 -6 -96 4 -93
-14 -104 -23 -13 l-6 59 -1 -56 c-2 -61 15 -89 55 -89 15 0 23 10 30 43 10 39
11 40 13 12 2 -28 3 -27 11 10 4 22 6 65 4 95 -5 54 -5 54 10 25 8 -16 14 -25
15 -19 0 15 -26 76 -37 87 -4 5 -6 79 -4 166 3 163 -8 241 -34 241 -8 0 -19
-9 -25 -19z"/>
<path d="M2324 3569 c-7 -13 -7 -248 1 -329 5 -46 2 -63 -19 -104 -16 -30 -25
-64 -25 -85 2 -33 2 -34 6 -6 7 55 34 114 55 121 69 22 101 -158 39 -220 -26
-26 -48 -15 -73 35 -10 19 -18 28 -18 21 0 -24 30 -71 48 -77 49 -15 86 40 86
125 -1 54 -25 120 -44 120 -6 0 -11 30 -12 68 l-2 67 -3 -62 c-2 -35 -8 -63
-12 -63 -12 0 -21 89 -21 206 0 93 2 102 20 107 18 5 20 -1 23 -87 2 -54 3
-44 2 24 -2 63 -6 123 -10 133 -8 19 -30 23 -41 6z"/>
<path d="M4397 2610 l-11 -29 -99 -3 -99 -3 29 -25 c15 -14 22 -18 16 -10 -16
17 -18 39 -3 24 6 -6 33 -8 63 -4 53 6 54 6 54 -22 0 -24 -4 -28 -28 -28 -15
0 -31 5 -34 10 -3 6 -11 10 -17 10 -6 0 -5 -7 3 -17 13 -15 12 -15 -11 -3 -23
12 -24 12 -11 -3 10 -13 30 -17 77 -17 l64 0 0 -40 c0 -30 4 -40 16 -40 8 0
32 18 53 40 28 31 45 40 69 40 21 0 32 -5 32 -15 0 -19 51 -65 72 -65 14 0 18
8 18 40 l0 40 63 0 c62 0 64 1 96 40 18 22 30 46 28 53 -4 8 -6 6 -6 -4 -1
-17 -71 -89 -71 -73 0 6 14 23 30 39 17 16 30 32 30 36 0 4 -36 5 -81 4 l-81
-3 -10 29 c-6 18 -17 29 -29 29 -23 0 -69 -21 -69 -32 0 -16 -52 -8 -77 12
-37 29 -63 26 -76 -10z"/>
<path d="M4894 2570 c-29 -11 -54 -49 -54 -78 0 -34 52 -82 88 -82 30 0 81 38
83 62 3 35 -4 65 -19 80 -21 22 -70 31 -98 18z m80 -21 c68 -53 -6 -161 -83
-119 -10 5 -24 23 -31 40 -29 71 52 128 114 79z"/>
<path d="M4001 2251 c-39 -7 -51 -25 -24 -36 25 -11 340 -19 419 -10 54 6 63
9 53 21 -9 11 -8 14 5 14 9 0 16 -4 16 -10 0 -5 5 -10 10 -10 25 0 6 20 -27
29 -40 11 -394 13 -452 2z"/>
<path d="M4821 2251 c-39 -7 -51 -25 -24 -36 58 -22 441 -23 496 0 27 11 20
23 -20 34 -40 11 -394 13 -452 2z"/>
<path d="M5005 2080 c4 -14 13 -28 19 -32 6 -4 -206 -8 -472 -8 -533 0 -534 0
-572 -62 -11 -19 -19 -48 -18 -68 1 -33 1 -34 5 -5 6 49 23 83 52 102 24 17
63 18 522 20 l495 3 23 -31 c13 -17 21 -33 18 -35 -3 -3 -35 7 -72 21 -36 15
-69 24 -72 21 -4 -3 1 -6 9 -6 9 0 21 -7 28 -15 11 -13 6 -15 -31 -16 -24 0
-75 -7 -114 -14 -56 -11 -60 -13 -20 -9 28 2 79 7 115 11 36 3 67 9 70 14 4 6
85 -23 98 -35 3 -4 -34 -73 -50 -94 -6 -7 -9 -15 -6 -18 3 -3 20 16 37 42 l31
47 2 -69 2 -69 5 75 6 75 30 -47 c17 -27 33 -48 38 -48 8 0 -16 43 -41 73 -23
27 -8 31 47 13 72 -23 76 -18 6 9 l-60 23 48 22 c27 12 47 24 44 26 -2 3 -26
-5 -52 -16 -27 -11 -52 -19 -56 -18 -5 2 4 23 20 48 16 25 32 56 36 70 l7 25
-17 -22 c-16 -23 -55 -32 -55 -12 0 5 -4 7 -10 4 -19 -12 -10 -24 23 -28 27
-3 26 -4 -11 -5 -26 -1 -41 -6 -37 -12 4 -6 11 -8 16 -5 5 4 9 -8 9 -26 l0
-32 -20 26 c-11 14 -20 30 -20 36 0 6 -6 11 -12 12 -7 1 -2 5 12 9 l25 8 -27
1 c-15 1 -34 11 -43 24 l-17 22 7 -25z"/>
<path d="M5205 2052 c17 -5 40 -14 51 -20 27 -14 54 -71 53 -109 l-1 -28 -7
30 c-11 44 -29 73 -57 91 -28 19 -74 27 -74 13 0 -5 12 -9 28 -9 30 -1 63 -24
81 -57 8 -15 11 -129 11 -377 0 -247 3 -356 11 -356 6 0 4 -7 -5 -15 -13 -13
-101 -15 -669 -15 -515 0 -656 3 -660 13 -4 8 -6 8 -9 -3 -1 -8 -5 158 -8 370
l-5 385 -3 -448 c-2 -510 -4 -500 73 -537 42 -20 53 -21 626 -18 651 3 629 1
663 72 15 31 17 85 16 480 0 245 -4 456 -9 468 -15 38 -55 68 -97 73 -34 4
-35 4 -9 -3z m-1236 -876 c3 5 305 7 676 4 369 -3 665 -6 660 -8 -6 -1 -12
-25 -13 -54 -1 -31 -11 -66 -23 -87 -15 -26 -16 -31 -4 -20 9 9 23 34 30 55 9
25 14 31 15 18 0 -31 -41 -86 -70 -93 -29 -7 -1185 -7 -1215 0 -31 7 -47 20
-42 33 3 7 1 19 -4 27 -7 12 -9 12 -10 -1 -2 -42 -18 32 -18 85 1 33 3 54 6
46 3 -7 8 -9 12 -5z"/>
<path d="M5437 1274 c1 -427 5 -779 8 -782 3 -3 5 346 5 776 0 430 -3 782 -7
782 -5 0 -7 -349 -6 -776z"/>
<path d="M3886 879 c-14 -11 -26 -27 -26 -35 0 -10 10 -4 26 15 l26 31 708 0
c682 0 709 -1 731 -19 23 -19 24 -25 27 -181 4 -177 -3 -210 -45 -229 -33 -15
-42 -7 -11 10 23 12 38 28 38 41 0 4 -11 -4 -25 -17 l-24 -25 -694 0 c-648 0
-695 1 -709 18 -9 9 -18 24 -22 32 -3 8 -4 2 -1 -15 5 -28 4 -29 -10 -11 -8
11 -15 14 -15 8 0 -20 40 -54 57 -48 8 3 19 4 23 1 5 -3 320 -5 701 -5 765 -1
732 -3 744 63 4 18 5 102 3 186 l-3 153 -28 24 -28 24 -708 0 c-701 0 -709 0
-735 -21z"/>
<path d="M3900 850 c-11 -11 -20 -25 -20 -31 0 -7 9 0 21 15 l20 26 699 0
c621 0 700 -2 714 -16 22 -22 26 -43 29 -184 3 -113 3 -111 3 21 -1 130 -3
149 -20 168 -19 21 -20 21 -723 21 -690 0 -703 0 -723 -20z"/>
<path d="M5431 465 c-2 -27 -30 -59 -69 -79 -28 -14 -105 -16 -742 -16 -749 0
-770 1 -786 45 -3 8 -11 15 -18 15 -6 -1 7 -16 28 -35 l39 -35 739 0 c406 0
738 3 738 8 0 4 10 12 22 17 30 14 61 59 55 81 -4 18 -5 18 -6 -1z"/>
</g>
</svg>
