<?xml version="1.0" standalone="no"?>
<!DOCTYPE svg PUBLIC "-//W3C//DTD SVG 20010904//EN"
 "http://www.w3.org/TR/2001/REC-SVG-20010904/DTD/svg10.dtd">
<svg version="1.0" xmlns="http://www.w3.org/2000/svg"
 width="650.000000pt" height="847.000000pt" viewBox="0 0 650.000000 847.000000"
 preserveAspectRatio="xMidYMid meet">
<metadata>
Created by potrace 1.16, written by Peter Selinger 2001-2019
</metadata>
<g transform="translate(0.000000,847.000000) scale(0.100000,-0.100000)"
fill="#000000" stroke="none">
<path d="M3088 7898 c-17 -36 -51 -141 -63 -198 -4 -19 -23 -66 -42 -103 -37
-72 -57 -87 -116 -87 -18 0 -54 -12 -82 -25 -27 -14 -57 -25 -65 -25 -37 -1
-135 -39 -138 -54 -4 -19 87 -118 142 -155 79 -52 91 -60 107 -60 9 -1 22 -8
30 -17 10 -13 10 -21 -3 -47 -30 -58 -68 -149 -68 -161 0 -6 -11 -33 -25 -61
-31 -64 -32 -85 -2 -85 13 0 28 -5 33 -10 7 -7 19 -4 36 10 35 27 38 26 23
-16 -8 -24 -29 -47 -64 -73 -57 -40 -112 -117 -131 -184 l-13 -42 -98 96 c-98
96 -98 96 -105 155 -4 39 -14 67 -28 82 -23 26 -80 53 -99 47 -6 -2 -25 -6
-41 -10 -30 -6 -31 -15 -11 -111 l7 -31 -72 -7 c-78 -8 -120 -34 -120 -75 0
-28 73 -61 141 -62 72 -2 114 -11 114 -26 0 -7 -34 -29 -75 -49 -146 -69 -162
-144 -30 -144 41 0 73 6 99 20 22 11 58 22 80 26 38 6 43 4 77 -32 20 -22 49
-59 66 -82 27 -39 29 -47 18 -68 -10 -18 -10 -26 -1 -38 10 -12 10 -20 -3 -38
-9 -12 -16 -35 -16 -51 0 -45 -24 -80 -80 -116 -48 -31 -125 -61 -157 -61 -17
0 -17 34 2 70 8 16 18 63 22 104 5 69 4 79 -18 111 -34 49 -72 55 -110 19 -16
-16 -35 -45 -41 -66 -13 -43 -34 -49 -86 -22 -33 16 -56 10 -81 -20 -18 -21
-8 -44 44 -98 61 -64 61 -115 -1 -156 -42 -27 -189 -47 -230 -32 -15 6 -52 6
-97 0 -40 -5 -138 -9 -218 -7 -127 2 -149 0 -166 -15 -11 -10 -23 -14 -29 -9
-5 5 -49 4 -98 -1 -99 -11 -136 -2 -136 31 0 24 30 91 41 91 4 0 21 19 38 42
24 33 31 52 31 90 0 41 -3 48 -23 53 -26 7 -73 -9 -100 -32 -24 -23 -39 -6
-28 32 6 23 3 39 -12 68 -34 62 -81 48 -130 -40 -25 -45 -23 -141 5 -205 40
-93 5 -124 -112 -98 -64 14 -71 19 -109 76 -58 85 -64 107 -57 201 6 75 10 90
38 127 49 65 49 64 161 59 91 -4 106 -2 135 17 26 16 33 26 30 48 -3 26 -8 29
-77 49 -10 2 -2 12 22 29 32 21 57 51 57 68 0 2 -7 11 -15 20 -12 11 -29 14
-73 10 l-57 -6 37 39 c37 37 46 66 30 89 -12 18 -79 24 -109 9 -16 -7 -46 -21
-68 -31 -22 -10 -53 -29 -70 -42 -37 -31 -135 -159 -135 -177 0 -8 -6 -20 -13
-27 -26 -26 -58 -159 -59 -243 -1 -82 73 -295 119 -345 13 -14 23 -27 23 -31
0 -21 198 -119 242 -119 10 0 21 -8 25 -17 14 -40 45 -73 67 -73 13 0 44 12
70 26 59 33 60 15 2 -26 -47 -34 -65 -72 -45 -96 6 -8 15 -12 18 -9 4 2 24 -1
43 -7 27 -8 50 -7 104 7 38 9 74 21 79 25 20 16 64 29 70 20 3 -4 -30 -77 -72
-162 l-78 -153 -3 -123 c-3 -107 -1 -126 16 -155 15 -25 21 -59 26 -153 4 -70
15 -151 26 -192 23 -84 24 -92 8 -92 -7 0 -25 -7 -40 -14 l-28 -15 0 47 c0 60
-18 116 -69 219 -37 75 -44 83 -85 98 -39 15 -56 16 -116 7 -79 -12 -198 -63
-229 -98 -12 -13 -25 -24 -30 -24 -11 0 -45 -55 -79 -125 -19 -40 -22 -61 -18
-105 2 -30 9 -109 15 -175 13 -163 26 -194 116 -285 69 -70 135 -177 135 -219
0 -8 18 -51 39 -95 62 -127 132 -172 227 -146 34 10 49 20 61 44 8 17 21 38
28 46 6 8 22 41 35 72 l22 58 58 -88 c63 -93 131 -172 149 -172 6 0 11 -6 12
-12 2 -63 10 -103 23 -117 21 -23 20 -31 -2 -31 -25 0 -42 -19 -42 -47 0 -12
-13 -38 -30 -56 -28 -33 -29 -37 -23 -101 l6 -68 -29 3 c-54 4 -72 -1 -104
-27 -28 -24 -31 -32 -29 -72 2 -29 -1 -47 -9 -50 -23 -7 -54 -94 -59 -167 -5
-62 -2 -80 17 -119 12 -25 39 -61 61 -79 42 -37 47 -48 25 -66 -13 -11 -28
-75 -27 -118 1 -30 -30 -46 -64 -33 -41 16 -121 12 -139 -6 -11 -10 -16 -34
-16 -70 0 -46 -5 -60 -35 -99 -44 -58 -58 -113 -53 -197 6 -74 40 -146 83
-174 14 -9 25 -20 25 -26 0 -5 -20 -31 -45 -57 -50 -54 -54 -71 -25 -118 26
-44 57 -49 127 -23 101 38 95 38 77 -6 -9 -22 -20 -43 -25 -49 -13 -13 -11
-99 3 -113 31 -31 104 -6 188 66 44 38 51 39 93 10 18 -12 44 -30 59 -40 39
-26 119 -25 136 2 16 25 37 25 101 -1 44 -19 58 -20 103 -11 42 8 58 7 81 -5
34 -17 72 -10 104 19 17 16 25 18 41 9 12 -6 45 -11 76 -11 54 0 56 1 98 50
24 27 47 50 52 50 5 0 18 -8 28 -17 27 -24 116 -53 164 -53 36 0 43 3 46 22 5
33 35 34 76 1 21 -16 53 -39 72 -52 32 -21 35 -28 38 -77 2 -30 10 -78 18
-107 25 -89 39 -216 25 -230 -13 -13 -134 -16 -162 -5 -14 6 -18 32 -24 168
-9 199 -7 196 -120 185 -44 -4 -234 -9 -423 -10 -253 -2 -346 -6 -357 -15 -11
-9 -15 -33 -15 -81 0 -73 -9 -85 -36 -44 -29 44 -158 86 -217 71 -38 -9 -77
-106 -77 -190 0 -61 2 -67 25 -78 30 -14 23 -28 -14 -28 -15 0 -32 -5 -39 -12
-16 -16 -16 -352 -1 -415 l12 -45 431 7 c592 11 1006 10 1085 -3 229 -39 675
-45 923 -13 157 21 188 31 188 61 0 19 9 20 233 22 564 3 581 1 628 -75 43
-70 91 -89 240 -95 130 -4 213 9 359 58 127 43 125 43 171 -1 l41 -39 97 0
c109 0 128 9 134 66 2 16 6 34 9 39 14 24 17 76 9 157 -6 67 -16 103 -43 160
-19 41 -41 98 -48 128 l-13 54 40 36 c73 64 80 109 33 213 -26 58 -30 78 -30
154 0 98 13 155 41 192 11 13 26 47 34 76 12 38 29 64 71 105 30 30 71 82 90
116 28 51 34 71 34 121 0 59 1 61 30 66 39 8 110 80 110 111 0 14 -4 27 -9 30
-4 3 -10 43 -13 89 -8 118 -21 139 -102 162 -36 11 -66 24 -66 31 0 15 -23 24
-60 24 -24 0 -29 5 -36 38 -12 54 -12 53 26 66 23 8 40 22 54 48 11 21 29 41
40 44 52 17 86 88 86 181 0 75 -16 102 -75 128 -47 21 -52 27 -63 71 -18 70
-19 482 -1 515 15 28 14 254 -1 294 -6 15 -10 38 -10 53 0 25 -30 117 -77 233
-33 82 -86 164 -128 194 -53 39 -136 55 -231 44 -74 -8 -175 9 -182 31 -2 5
-17 10 -32 10 -16 0 -32 5 -35 10 -3 6 -29 10 -57 10 -41 0 -61 -6 -104 -35
-29 -19 -59 -35 -66 -35 -22 0 -38 -22 -38 -51 0 -14 -9 -38 -21 -52 -11 -15
-23 -42 -26 -62 -4 -26 -16 -43 -49 -67 -24 -18 -47 -43 -50 -55 -5 -17 -14
-23 -35 -23 -22 0 -34 -8 -49 -32 -11 -18 -20 -40 -20 -49 0 -8 -13 -25 -30
-37 -24 -18 -28 -27 -24 -51 6 -26 1 -33 -42 -64 -37 -27 -53 -33 -73 -27 -23
6 -26 11 -23 43 3 28 -1 38 -18 47 l-22 12 24 25 c20 21 23 35 22 93 -1 74
-19 124 -65 177 -25 29 -27 37 -22 87 4 38 2 61 -7 71 -14 17 -75 21 -85 5
-14 -23 -35 -9 -35 23 0 43 -6 49 -65 74 l-50 21 -3 64 c-2 55 -6 66 -30 85
-25 21 -27 27 -23 93 3 81 -12 110 -59 110 -23 0 -26 4 -27 34 -1 19 -11 52
-23 74 -18 32 -20 43 -11 60 15 27 14 48 -2 64 -8 7 -20 34 -29 58 -19 57 -54
78 -110 63 -33 -9 -38 -8 -38 6 0 10 7 26 15 37 24 32 19 79 -12 103 -25 17
-26 22 -15 40 6 12 12 27 12 35 0 27 -51 104 -72 109 -20 6 -21 8 -6 24 25 30
39 104 26 145 -9 32 -7 46 16 108 32 87 33 135 4 195 -29 59 -60 67 -155 39
-19 -5 -23 -2 -23 16 0 12 -10 40 -22 61 -21 38 -21 40 -5 87 23 65 21 87 -10
116 -19 18 -43 27 -82 32 -53 6 -91 26 -91 46 0 5 11 24 24 41 13 18 26 41 28
52 3 11 9 27 12 35 4 9 -3 26 -16 40 -20 21 -22 32 -19 106 3 89 -7 117 -51
140 -12 6 -23 19 -24 28 -3 24 42 20 127 -10 57 -21 76 -24 95 -15 29 13 30
21 4 54 -11 14 -28 43 -36 63 -9 20 -42 77 -75 125 l-59 88 53 58 c29 32 63
75 75 96 12 20 26 43 32 50 68 81 81 113 61 146 -8 13 -23 13 -95 3 -47 -6
-106 -20 -133 -31 -26 -11 -64 -22 -83 -25 -35 -6 -36 -5 -55 46 -10 29 -27
78 -36 108 -36 112 -69 204 -80 217 -21 24 -53 15 -71 -19z m60 -95 c6 -16 25
-75 43 -133 17 -58 35 -109 39 -115 4 -5 10 -23 14 -39 l7 -28 67 7 c37 4 101
18 142 31 122 39 134 31 77 -53 -34 -50 -68 -91 -146 -171 l-44 -46 25 -20
c14 -12 40 -48 58 -81 18 -33 49 -86 68 -118 19 -31 32 -60 29 -63 -4 -4 -21
0 -39 9 -18 9 -55 21 -83 28 -27 6 -77 25 -110 42 -107 53 -116 57 -134 57 -9
0 -39 -23 -66 -50 -28 -28 -86 -74 -130 -102 -44 -28 -92 -59 -107 -69 -15
-11 -32 -19 -37 -19 -12 0 21 100 48 145 10 17 26 55 35 83 10 29 22 54 27 57
29 18 -26 65 -99 85 -23 6 -47 18 -54 28 -7 9 -37 37 -65 61 -54 44 -63 59
-40 65 6 3 50 16 97 31 47 15 114 30 150 34 61 6 66 8 82 40 9 19 22 39 27 44
6 6 11 20 11 32 0 11 16 65 36 120 19 55 38 108 41 118 8 25 19 21 31 -10z
m101 -780 c33 -16 60 -32 59 -38 -1 -5 2 -18 7 -28 4 -9 2 -30 -5 -47 -17 -40
-6 -51 40 -44 38 6 39 5 45 -27 3 -19 1 -54 -5 -79 -18 -72 -17 -84 8 -95 20
-8 23 -15 18 -44 -7 -45 -69 -108 -118 -121 -22 -6 -48 -24 -65 -44 -15 -19
-38 -36 -51 -38 -22 -3 -23 0 -25 82 -4 95 -26 144 -87 190 -47 37 -100 93
-100 108 0 7 16 22 35 33 29 17 35 27 35 54 0 18 9 44 20 58 11 14 20 30 20
36 0 6 13 17 28 25 16 8 34 22 41 30 18 22 29 20 100 -11z m-872 -205 c16 -15
23 -33 23 -59 0 -71 25 -108 169 -244 60 -57 82 -97 65 -119 -10 -15 -10 -25
4 -62 13 -36 14 -46 3 -56 -13 -13 -12 -14 -64 52 -7 9 -28 37 -47 62 -19 26
-44 51 -55 54 -34 12 -97 4 -160 -21 -65 -25 -112 -26 -107 -4 4 19 42 48 72
55 51 12 82 28 97 51 14 21 14 25 -3 51 -29 44 -45 51 -124 52 -41 1 -84 5
-95 9 -18 7 -17 10 15 27 25 13 54 18 103 17 45 -1 67 2 67 10 0 7 -9 36 -20
65 -11 29 -20 59 -20 67 0 23 50 18 77 -7z m662 -170 c0 -7 -28 -37 -62 -67
l-62 -53 -72 4 c-40 3 -79 11 -88 18 -20 17 -19 53 3 78 l17 21 62 -21 c70
-23 117 -19 155 12 26 22 48 26 47 8z m-2186 -12 c1 -5 -22 -26 -51 -46 -30
-20 -65 -51 -79 -69 -37 -47 -21 -57 59 -37 35 9 72 16 81 16 33 0 16 -21 -32
-42 -65 -27 -82 -67 -28 -68 12 -1 44 -7 71 -14 l48 -13 -31 -12 c-18 -8 -45
-11 -68 -7 -115 21 -128 20 -166 -14 -20 -17 -48 -57 -62 -88 -24 -50 -27 -70
-27 -160 l0 -103 36 -43 c20 -24 40 -55 45 -68 12 -32 134 -78 204 -78 40 0
54 5 78 29 l29 30 -21 53 c-12 30 -23 86 -26 128 -4 64 -1 80 16 108 27 42 56
43 53 2 -3 -47 -13 -120 -18 -137 -5 -18 -1 -25 20 -34 25 -12 30 -9 74 34 26
26 51 47 56 47 16 0 -6 -55 -34 -85 -30 -33 -70 -105 -70 -129 0 -8 16 -28 37
-43 34 -26 44 -28 164 -33 71 -4 131 -9 135 -12 3 -4 -13 -16 -37 -29 -37 -18
-53 -21 -111 -15 -64 6 -73 4 -136 -28 -37 -18 -84 -36 -104 -40 -36 -6 -37
-6 -40 26 -3 31 -6 33 -73 51 -94 26 -171 57 -193 78 -79 77 -125 163 -145
269 -45 245 84 493 298 576 33 13 46 13 48 0z m2242 -36 c8 -16 15 -50 15 -75
l0 -46 -62 6 c-82 8 -187 -15 -241 -52 -23 -15 -47 -31 -54 -36 -8 -5 -19 8
-32 39 -23 51 -25 72 -11 94 8 12 14 12 45 -3 52 -25 155 -23 188 3 14 11 30
20 35 20 5 0 25 18 43 39 41 48 54 50 74 11z m261 -144 c0 0 10 -14 22 -30 27
-36 27 -35 -3 -70 -21 -24 -33 -29 -73 -30 -56 -2 -72 -10 -72 -37 0 -34 -39
-58 -92 -59 -41 0 -49 -4 -65 -30 -21 -36 -47 -44 -108 -37 -39 4 -46 1 -60
-19 -20 -30 -45 -30 -93 0 -38 24 -39 24 -63 5 -14 -11 -41 -19 -65 -19 -36 0
-43 3 -48 24 -11 46 18 85 65 86 14 0 30 -5 37 -12 9 -9 16 -8 30 5 10 9 32
17 49 17 16 0 33 3 37 7 4 4 26 8 49 9 72 2 121 16 158 45 20 16 46 29 57 29
11 0 25 7 32 15 7 8 27 15 44 15 37 0 56 15 56 46 0 30 38 55 75 47 17 -3 30
-6 31 -7z m-267 -10 c17 -20 -1 -27 -35 -14 -26 10 -40 5 -131 -41 -77 -39
-108 -50 -127 -45 -51 12 -31 39 62 85 49 25 69 29 138 29 58 0 85 -4 93 -14z
m446 -50 c19 -14 19 -15 1 -78 -10 -34 -20 -78 -23 -96 -9 -58 -93 -93 -134
-56 -22 20 -39 11 -39 -20 0 -36 -42 -90 -80 -103 -19 -7 -52 -10 -73 -8 -37
5 -39 4 -55 -35 -9 -22 -22 -42 -29 -44 -16 -7 -83 13 -83 24 0 6 -4 10 -10
10 -21 0 -9 -31 17 -41 49 -19 95 -8 118 28 18 28 25 32 65 33 55 0 112 35
136 83 21 41 33 48 57 35 14 -7 16 -13 8 -21 -6 -6 -11 -23 -11 -38 0 -19 -9
-34 -29 -48 -43 -31 -88 -108 -107 -185 -15 -59 -15 -76 -4 -120 7 -28 20 -63
28 -78 15 -25 14 -30 -8 -78 -13 -27 -26 -50 -30 -50 -3 0 -24 -16 -46 -35
-48 -43 -94 -54 -130 -30 -15 9 -29 26 -31 36 -7 24 -7 24 -51 -6 -42 -28 -69
-31 -98 -11 -17 13 -19 25 -15 106 1 50 -2 103 -7 118 -6 15 -13 38 -16 52 -3
14 -14 30 -24 35 -40 21 -88 44 -104 49 -22 7 -25 73 -5 100 23 32 49 15 84
-56 38 -75 58 -85 139 -73 34 5 44 3 44 -8 0 -7 20 -28 44 -45 49 -35 108 -43
142 -18 28 21 11 30 -30 16 -57 -18 -100 1 -126 56 -23 47 -35 52 -66 29 -24
-18 -65 -19 -86 -2 -16 12 -35 46 -64 110 -18 42 -41 48 -69 17 -12 -13 -31
-20 -56 -20 -35 0 -40 4 -59 42 -25 53 -25 68 0 68 25 0 25 5 -1 42 -23 32
-19 49 6 28 11 -9 36 -11 92 -6 50 4 81 2 89 -5 8 -7 30 -9 56 -5 24 4 63 9
88 12 76 8 87 13 132 54 35 32 50 40 84 40 31 0 48 7 68 26 14 15 26 30 26 35
0 4 17 13 38 19 51 17 112 51 112 64 0 6 10 23 23 38 25 31 71 37 102 14z
m-1245 -201 c16 -20 -3 -150 -31 -212 -23 -50 -24 -86 -4 -103 19 -16 111 3
183 37 29 14 56 23 59 19 13 -13 31 -79 26 -92 -4 -12 -8 -12 -18 2 -8 12 -14
13 -19 6 -15 -25 -101 -52 -182 -59 -74 -5 -84 -8 -84 -25 0 -59 -58 -78 -101
-34 -26 27 -46 27 -166 5 -60 -12 -93 0 -93 31 0 17 8 20 48 22 26 1 61 2 77
3 63 2 143 78 152 144 5 36 2 42 -52 96 -72 71 -65 86 28 56 36 -12 68 -29 71
-37 3 -7 10 -14 17 -14 7 0 9 15 4 49 -11 84 45 154 85 106z m1270 -56 l0 -59
38 0 c20 1 48 7 62 15 38 21 76 19 94 -7 24 -34 19 -148 -6 -148 -5 0 -35 23
-66 50 -31 28 -61 50 -68 50 -7 0 -14 5 -16 11 -2 6 -19 14 -38 18 -25 5 -36
13 -40 31 -5 21 -12 25 -43 25 -42 0 -49 10 -13 19 13 3 37 19 52 35 15 17 31
28 36 25 4 -3 8 -32 8 -65z m-5 -128 c3 -5 19 -13 37 -16 17 -4 36 -11 42 -16
41 -32 66 -58 66 -68 0 -14 -62 -15 -77 0 -7 7 -18 3 -38 -15 -35 -33 -55 -33
-85 -1 -23 25 -50 33 -50 16 0 -19 -70 -53 -95 -47 -29 7 -31 22 -8 55 35 51
86 90 122 94 69 7 80 7 86 -2z m-70 -141 c20 -23 91 -28 97 -8 3 8 25 12 68
10 35 -2 66 -4 67 -6 2 -2 6 -27 10 -56 6 -49 5 -53 -12 -46 -13 5 -28 -3 -52
-26 l-35 -33 -22 28 c-26 32 -51 35 -66 6 -21 -38 -51 -40 -87 -6 l-33 31 -21
-23 c-24 -25 -79 -52 -91 -45 -10 6 -10 70 -2 113 6 29 10 31 48 31 29 0 50 7
71 25 37 30 38 30 60 5z m-817 -85 c22 -9 43 -15 48 -14 17 5 84 -30 90 -46
10 -24 4 -25 -61 -9 -33 7 -111 14 -174 14 -102 0 -112 2 -100 16 40 49 128
66 197 39z m-838 -15 c0 -13 -7 -20 -20 -20 -13 0 -20 -7 -20 -20 0 -16 7 -20
35 -20 20 0 50 -8 68 -17 22 -11 66 -18 140 -21 61 -3 107 -9 107 -14 0 -6
-15 -23 -32 -39 -37 -32 -84 -42 -177 -37 l-63 3 -16 -47 c-12 -40 -17 -46
-32 -38 -10 5 -20 7 -23 4 -3 -3 -11 -3 -17 1 -8 5 -8 11 1 21 21 25 1 27 -30
3 -34 -28 -81 -122 -74 -150 7 -25 52 -69 71 -69 9 0 35 20 59 45 23 25 45 45
47 45 2 0 10 -17 16 -37 7 -21 23 -57 36 -80 13 -23 24 -51 24 -63 0 -11 7
-35 16 -53 22 -42 23 -171 1 -212 -20 -38 -103 -118 -142 -138 -16 -8 -47 -20
-69 -25 l-38 -11 7 37 c10 53 21 70 63 92 48 26 63 38 92 79 l23 34 -22 18
c-19 15 -40 19 -105 19 -44 -1 -101 -5 -126 -11 -25 -5 -55 -11 -67 -13 -33
-6 -75 -29 -87 -49 -8 -13 -7 -24 4 -44 15 -26 72 -50 163 -68 15 -3 27 -12
27 -20 0 -60 -73 -105 -166 -103 -74 2 -155 48 -165 93 -3 17 -14 48 -23 70
-9 21 -19 65 -23 97 -5 52 -3 61 17 83 19 20 21 28 11 38 -9 9 -18 8 -42 -6
-17 -9 -35 -17 -40 -17 -6 0 -25 -11 -43 -25 -18 -14 -36 -25 -39 -25 -22 0
14 170 43 205 30 37 103 207 110 258 9 64 19 76 88 107 38 18 57 40 32 40 -17
0 -96 -39 -116 -58 -29 -26 -92 -72 -99 -72 -3 0 -27 -10 -53 -21 -52 -24
-148 -34 -158 -17 -4 6 8 24 26 40 34 29 169 98 192 98 8 0 22 6 33 13 11 7
50 26 87 41 79 33 103 54 70 63 -12 3 -22 12 -22 19 0 12 39 14 220 14 213 0
220 -1 220 -20z m554 -32 c-10 -12 -27 -30 -36 -40 -10 -9 -20 -30 -24 -45 -4
-16 -11 -33 -16 -40 -22 -28 24 -113 74 -134 30 -12 31 -24 3 -79 -9 -17 -10
-31 -4 -42 10 -17 -4 -34 -19 -24 -20 12 -94 -18 -122 -51 -43 -49 -37 -114
18 -176 20 -22 7 -33 -50 -42 -51 -9 -62 -32 -54 -112 5 -52 4 -63 -8 -63 -8
0 -18 5 -21 10 -11 18 -90 12 -109 -9 -24 -27 -8 -89 38 -142 48 -57 47 -69
-7 -69 -59 0 -73 -26 -70 -129 l3 -76 -32 -14 c-24 -11 -35 -11 -49 -2 -10 6
-33 11 -50 11 -44 0 -66 15 -74 50 -15 67 -86 99 -145 65 -30 -17 -40 -18 -40
-5 0 6 29 24 63 41 55 27 66 37 79 73 15 41 21 46 108 86 130 60 180 139 180
284 0 47 -6 78 -20 106 -11 22 -20 47 -20 57 0 10 -11 36 -25 58 -13 22 -25
47 -25 56 0 8 -9 35 -21 59 -17 35 -19 51 -13 84 l9 41 75 3 c100 4 200 51
200 95 0 8 16 24 35 35 19 12 37 32 41 46 5 19 16 27 62 39 83 21 88 21 66 -5z
m1320 -52 c-10 -20 -20 -36 -23 -36 -3 0 -22 -13 -41 -30 -56 -48 -161 -52
-256 -10 -61 26 -63 38 -18 77 47 39 54 40 92 9 l29 -25 31 19 c18 11 32 24
32 30 0 18 26 11 49 -14 23 -24 24 -24 50 -8 14 9 32 23 40 30 24 23 33 -2 15
-42z m-969 0 c79 -19 90 -25 93 -45 3 -22 1 -23 -30 -17 -78 16 -293 18 -355
3 -34 -8 -65 -12 -67 -9 -6 5 12 41 28 58 40 39 195 44 331 10z m0 -83 c95
-19 110 -29 96 -65 -13 -33 -60 -70 -80 -62 -31 12 -147 26 -206 25 -98 -1
-204 55 -168 89 31 30 239 38 358 13z m633 -31 c97 -49 205 -53 292 -13 25 11
57 21 71 21 23 0 28 -5 33 -35 7 -37 3 -63 -16 -102 -17 -34 -4 -55 26 -43 33
12 43 -3 22 -35 -9 -13 -16 -30 -16 -37 0 -7 -9 -24 -20 -38 -26 -34 -25 -58
4 -71 19 -9 32 -6 72 15 76 41 94 33 94 -38 0 -18 5 -37 11 -43 20 -20 -11
-72 -56 -93 -22 -10 -49 -28 -59 -39 -15 -17 -26 -20 -58 -15 -31 5 -45 2 -68
-15 -16 -11 -43 -21 -60 -21 -17 0 -51 -12 -76 -26 -36 -21 -51 -25 -84 -19
-26 4 -53 2 -71 -5 -32 -14 -48 -8 -32 12 17 21 43 123 43 166 0 23 -5 53 -12
69 -6 15 -12 33 -12 38 -2 19 -59 85 -90 105 -18 11 -50 23 -72 28 -37 7 -39
10 -45 50 -5 39 -3 44 25 66 17 13 49 48 71 79 22 31 41 56 43 57 1 0 19 -8
40 -18z m-665 -113 c44 -11 47 -21 11 -38 -15 -7 -32 -27 -41 -51 -13 -33 -21
-40 -44 -40 -24 0 -29 6 -44 49 -9 27 -23 55 -31 61 -7 7 -14 18 -14 25 0 15
94 11 163 -6z m181 -14 c26 -20 68 -19 103 2 28 16 31 15 50 -4 18 -18 20 -29
15 -75 -6 -46 -11 -55 -37 -68 -35 -18 -115 -93 -115 -108 0 -6 -9 -27 -21
-46 -16 -27 -21 -53 -21 -106 0 -38 -4 -73 -10 -76 -6 -4 -20 5 -32 19 -36 43
-108 64 -119 35 -2 -8 -20 5 -44 32 -28 31 -48 45 -68 45 -19 1 -29 8 -31 20
-8 52 -26 74 -74 86 -45 12 -48 14 -53 51 -7 53 1 116 21 158 9 19 17 36 18
37 0 2 13 -3 28 -10 14 -6 29 -23 33 -37 16 -67 43 -108 78 -120 53 -18 76 -7
114 55 19 31 46 62 60 70 14 7 35 22 45 34 22 25 34 26 60 6z m338 -154 c13
-5 35 -12 50 -15 31 -7 67 -57 86 -120 15 -51 7 -61 -28 -36 -37 27 -48 25
-82 -10 -34 -37 -57 -38 -88 -5 -27 29 -33 30 -52 12 -7 -7 -25 -21 -39 -30
-26 -17 -28 -17 -83 15 -31 18 -56 38 -56 44 0 18 97 102 149 129 48 25 104
31 143 16z m-850 -28 c16 -17 28 -42 30 -63 3 -34 4 -35 45 -35 57 0 79 -23
82 -87 1 -14 10 -18 41 -18 51 0 80 -27 80 -75 0 -19 2 -35 4 -35 2 0 23 11
47 25 38 21 48 22 68 12 24 -12 34 -26 46 -61 4 -15 8 -17 17 -8 20 20 43 14
76 -20 17 -18 38 -39 46 -46 24 -19 19 -38 -13 -52 -24 -10 -35 -9 -66 6 -20
9 -46 30 -57 45 -17 22 -25 26 -39 19 -28 -16 -71 -12 -106 10 -26 15 -33 27
-33 50 0 23 -4 30 -19 30 -11 0 -23 -4 -26 -10 -3 -5 -12 -10 -19 -10 -21 0
-66 47 -66 69 0 27 -17 35 -62 32 -57 -4 -80 13 -76 57 3 33 0 37 -21 40 -26
4 -71 29 -83 47 -15 20 -7 47 21 76 36 36 50 36 83 2z m592 -179 c25 -14 48
-30 51 -35 11 -16 34 -9 68 21 33 28 35 29 58 12 13 -9 33 -24 44 -34 18 -18
20 -17 61 23 l42 41 33 -18 c42 -21 50 -33 38 -55 -5 -10 -9 -26 -9 -36 0 -10
-11 -31 -25 -47 -14 -16 -25 -34 -25 -40 0 -7 -25 -27 -55 -45 -47 -29 -64
-33 -128 -34 -72 -2 -75 -1 -130 40 -42 32 -59 52 -66 80 -10 36 -15 153 -7
153 2 0 24 -12 50 -26z m-1694 -95 c0 -48 6 -94 15 -116 8 -19 15 -43 15 -52
0 -18 48 -67 90 -93 58 -35 224 -27 267 14 l23 21 0 -29 c0 -37 -6 -45 -55
-73 -53 -31 -79 -34 -139 -20 -47 10 -62 23 -179 142 -126 129 -141 151 -149
227 -2 16 2 24 10 22 7 -1 29 9 49 22 20 14 40 23 45 20 4 -3 8 -41 8 -85z
m1090 51 c20 -22 37 -30 62 -30 26 0 36 -6 50 -30 21 -36 74 -70 111 -70 20 0
30 -7 37 -25 15 -40 67 -67 120 -62 38 4 49 1 78 -24 28 -25 41 -29 90 -29 33
0 63 5 71 13 8 8 46 12 116 12 90 0 105 -2 105 -16 0 -38 69 -58 135 -40 28 7
42 7 52 -1 17 -14 122 -2 143 17 8 7 34 14 57 13 27 0 58 9 91 27 78 42 105
19 60 -50 -17 -26 -30 -35 -50 -35 -21 0 -28 -5 -28 -19 0 -29 -13 -32 -66
-16 -26 8 -51 12 -54 10 -4 -3 -13 -19 -21 -37 -15 -37 -26 -51 -95 -122 -66
-67 -146 -95 -174 -61 -18 22 -40 18 -40 -6 0 -26 -16 -57 -48 -91 -22 -24
-34 -28 -77 -28 -46 0 -55 4 -90 40 -35 36 -37 41 -23 57 22 26 98 195 92 205
-10 16 -24 -3 -24 -31 0 -16 -8 -39 -19 -52 -10 -13 -21 -33 -25 -45 -12 -38
-99 -123 -133 -130 -52 -10 -102 4 -115 32 -14 30 -20 30 -33 2 -6 -12 -27
-35 -49 -52 -35 -29 -43 -31 -109 -29 -40 1 -73 7 -75 13 -2 5 -10 10 -17 10
-20 0 -45 84 -52 173 -7 93 -23 102 -23 12 0 -130 58 -220 145 -225 82 -5 103
0 145 35 34 28 45 33 61 25 10 -6 50 -12 88 -13 55 -2 73 2 89 17 18 16 23 16
41 4 11 -8 30 -26 41 -41 12 -15 28 -27 36 -27 20 0 27 -22 16 -51 -6 -15 -34
-36 -78 -59 -37 -19 -81 -48 -97 -65 -77 -81 -72 -214 10 -253 18 -9 33 -20
33 -26 0 -6 -21 -30 -47 -53 -43 -38 -54 -42 -97 -43 -37 0 -55 5 -73 21 -22
21 -23 21 -30 3 -14 -37 -70 -74 -112 -74 -60 0 -117 107 -92 174 15 39 14 51
-3 37 -8 -7 -17 -34 -21 -62 -8 -58 7 -98 54 -143 17 -17 31 -39 31 -50 0 -38
-12 -66 -27 -66 -8 0 -27 -8 -41 -18 -15 -10 -47 -27 -72 -37 -25 -10 -51 -23
-59 -29 -22 -17 -61 -112 -61 -150 0 -49 -27 -115 -63 -153 -30 -32 -142 -93
-171 -93 -9 0 -16 8 -16 20 0 11 -3 20 -8 20 -4 0 -39 -31 -77 -70 -56 -57
-79 -73 -123 -85 -59 -18 -83 -14 -112 17 -26 28 -33 82 -21 158 6 35 9 66 7
68 -2 2 -13 -6 -24 -18 -17 -18 -19 -31 -15 -88 3 -37 11 -81 19 -99 31 -69
98 -92 162 -53 18 11 38 20 44 20 6 0 35 23 64 50 49 46 55 49 78 39 22 -11
35 -7 101 26 69 34 118 76 143 122 6 10 12 16 14 13 2 -3 10 -18 20 -35 22
-41 53 -55 124 -55 51 0 66 -4 88 -25 14 -13 26 -35 26 -47 0 -46 26 -68 81
-68 45 0 51 3 69 33 11 17 20 44 20 58 0 30 23 54 64 63 42 10 84 46 95 80 17
55 23 113 15 162 -6 40 -15 55 -63 101 -31 29 -62 53 -68 53 -7 0 -13 5 -13
10 0 6 -9 19 -20 30 -11 11 -20 33 -20 49 0 17 -4 33 -10 36 -9 5 -15 55 -7
55 1 0 20 -9 42 -20 22 -11 48 -20 58 -20 27 0 73 26 115 66 20 18 39 34 43
34 4 0 10 8 14 19 5 17 10 18 48 8 58 -14 83 -40 107 -113 12 -34 27 -65 35
-68 16 -6 65 68 65 96 0 16 44 41 93 53 30 8 33 0 16 -38 -9 -20 -7 -31 14
-63 33 -53 73 -67 124 -44 l38 18 -56 -2 c-73 -1 -89 12 -89 76 0 32 4 47 11
43 6 -4 10 -1 8 6 -3 26 1 36 31 74 21 26 30 49 30 74 -1 51 -17 118 -42 174
-18 40 -32 54 -83 81 -33 19 -72 36 -86 40 -21 4 -28 13 -32 42 -5 29 0 45 26
84 30 47 34 49 68 44 42 -7 117 27 162 72 40 41 107 131 107 145 0 8 11 9 31
5 17 -3 40 -6 50 -6 36 0 19 -32 -51 -98 -63 -59 -73 -74 -91 -135 -30 -96
-24 -189 15 -246 35 -50 77 -77 151 -96 99 -26 144 -21 207 25 88 62 166 196
155 263 -22 130 -28 145 -78 197 -27 28 -49 55 -49 61 0 5 -3 9 -7 10 -85 7
-109 19 -116 58 -9 46 33 134 72 151 17 6 33 20 36 30 5 14 20 20 68 25 34 4
82 5 107 3 40 -3 45 -6 47 -28 1 -14 -5 -44 -13 -68 -21 -56 -12 -92 21 -92
24 0 25 -2 25 -66 0 -75 10 -90 68 -106 67 -18 75 -40 47 -132 -8 -27 -15 -72
-15 -99 0 -43 2 -48 15 -37 8 7 15 19 15 26 0 8 4 14 10 14 5 0 19 17 30 38
25 46 55 82 69 82 9 0 9 -6 1 -20 -7 -14 -7 -20 0 -20 13 0 13 -25 1 -48 -6
-9 -17 -40 -26 -68 -29 -96 -98 -218 -130 -233 -43 -20 -66 -42 -82 -78 -7
-18 -20 -33 -28 -33 -30 0 -85 -43 -105 -83 -25 -48 -36 -57 -67 -57 -12 0
-28 -8 -35 -18 -9 -13 -26 -18 -58 -18 -59 -1 -121 -14 -140 -29 -44 -37 -140
-33 -140 5 0 30 -16 32 -34 5 -9 -14 -13 -24 -9 -23 4 2 23 -6 41 -17 35 -21
42 -50 13 -60 -10 -3 -26 -14 -36 -25 -15 -17 -16 -24 -5 -49 6 -16 25 -36 42
-44 l29 -14 -45 -29 c-42 -27 -56 -44 -70 -86 -4 -12 -16 -18 -38 -18 -40 -1
-60 -15 -81 -56 -12 -23 -26 -33 -51 -38 -24 -5 -48 -21 -79 -55 -37 -42 -51
-50 -91 -56 -39 -6 -51 -13 -69 -41 -19 -29 -28 -34 -60 -34 -47 0 -93 -23
-102 -50 -3 -11 -14 -20 -24 -20 -33 0 -90 -30 -107 -55 -14 -21 -24 -25 -66
-25 -47 0 -50 -1 -76 -45 -26 -43 -54 -57 -67 -35 -13 21 -76 1 -111 -35 -29
-31 -40 -35 -83 -35 -54 0 -62 -6 -70 -59 -8 -49 -48 -62 -101 -32 -21 11 -47
21 -59 21 -37 0 -93 -29 -98 -50 -7 -27 -29 -19 -26 9 2 18 -1 20 -20 16 -13
-4 -36 -1 -52 5 -39 15 -95 69 -95 92 0 22 -16 24 -24 2 -9 -22 20 -59 70 -91
l43 -28 -35 -36 c-34 -34 -40 -37 -96 -37 -52 0 -65 -4 -100 -32 -36 -29 -42
-31 -63 -20 -20 11 -30 10 -57 -3 -18 -9 -38 -25 -45 -36 -11 -17 -16 -18 -38
-8 -30 14 -31 23 -5 39 11 7 20 17 20 21 0 5 11 23 25 39 14 16 30 50 36 74
11 44 22 54 35 33 4 -7 20 -8 43 -5 20 4 53 9 73 12 20 3 45 15 55 27 18 20
17 20 -2 13 -34 -14 -119 -36 -137 -36 -20 0 -52 56 -61 107 -10 52 -51 106
-101 133 -32 17 -49 33 -52 50 -10 46 -24 72 -43 77 -14 3 -20 17 -24 51 -6
55 5 82 35 82 18 0 20 4 15 40 -4 32 -2 42 13 50 27 14 30 13 30 -13 0 -13 12
-43 28 -68 15 -24 32 -53 38 -64 14 -25 47 -31 62 -12 10 12 8 13 -12 10 -21
-4 -30 3 -56 43 -28 44 -30 55 -26 106 6 59 -7 88 -39 88 -17 0 -28 34 -20 60
5 15 15 20 44 20 55 0 79 29 63 74 -15 41 -7 66 22 66 29 0 62 36 71 78 4 20
13 32 23 32 9 0 25 7 34 14 17 12 17 14 -3 37 -14 16 -19 34 -17 59 l3 35 56
-2 c50 -3 60 -7 98 -43 65 -62 108 -80 193 -80 59 0 83 5 125 27 29 14 53 31
53 37 0 7 10 18 21 26 12 8 28 29 35 47 18 42 19 202 1 234 -42 77 -62 100
-102 119 -23 11 -45 28 -48 38 -3 9 -8 25 -12 34 -5 13 1 18 29 24 52 9 44 20
-14 20 -34 0 -56 6 -70 19 -25 23 -25 36 1 58 11 10 18 23 15 30 -25 59 -36
117 -27 141 9 23 16 26 59 26 26 0 53 5 59 11 17 17 3 55 -33 90 -19 18 -34
39 -34 46 0 7 -4 13 -10 13 -5 0 -10 16 -10 35 0 41 20 46 60 15 30 -23 73
-26 90 -5 10 12 10 23 -4 58 -31 81 -18 121 44 131 22 3 48 15 58 25 22 25 20
26 52 -9z m1585 -10 c3 -5 15 -10 26 -10 15 0 19 -7 19 -33 0 -47 -15 -57 -87
-57 -61 0 -63 -1 -63 -25 0 -33 -37 -48 -105 -43 -45 3 -50 1 -53 -18 -2 -14
-17 -27 -44 -38 -38 -14 -44 -14 -65 0 -23 14 -26 13 -59 -15 -39 -35 -86 -41
-122 -15 -21 14 -26 14 -56 0 -19 -9 -43 -16 -53 -16 -20 0 -62 25 -53 32 39
33 107 68 125 66 12 -1 30 4 39 12 24 19 93 16 116 -5 22 -20 40 -13 40 15 0
27 49 50 104 50 31 0 48 5 54 17 8 13 19 15 61 10 47 -6 53 -4 62 17 6 13 30
33 53 44 50 24 53 25 61 12z m-2621 -293 c94 -95 119 -115 161 -128 45 -14 50
-18 59 -54 5 -22 15 -44 22 -48 30 -17 7 -104 -37 -143 -41 -35 -116 -74 -145
-74 -29 0 -64 25 -64 45 0 7 -7 18 -16 26 -35 29 -58 97 -70 204 -3 28 -11 70
-19 95 -25 83 -29 190 -7 190 3 0 56 -51 116 -113z m-347 19 c13 -15 23 -31
23 -35 0 -5 -31 -11 -70 -15 -38 -3 -98 -17 -134 -29 -72 -27 -211 -126 -228
-163 -6 -13 -15 -24 -20 -24 -11 0 -10 28 2 35 6 3 10 17 10 31 0 13 5 24 10
24 6 0 10 7 10 15 0 9 30 44 66 78 115 108 274 148 331 83z m29 -102 c44 -18
56 -54 59 -174 3 -104 2 -105 -27 -136 l-30 -32 -56 30 c-31 17 -71 41 -89 54
-17 13 -36 24 -42 24 -6 0 -42 -43 -81 -95 -39 -52 -75 -95 -80 -95 -34 0 -95
88 -103 149 -7 59 10 91 87 164 68 64 79 70 186 103 81 25 128 27 176 8z
m2818 -79 c18 -14 39 -25 47 -25 9 0 6 -7 -9 -22 -21 -21 -31 -23 -147 -23
-69 0 -125 3 -125 6 0 8 75 59 110 76 42 19 89 15 124 -12z m99 -62 c2 -10 8
-26 12 -35 5 -14 -2 -18 -39 -23 -42 -7 -103 -43 -131 -79 -5 -7 -32 -25 -60
-40 -63 -36 -127 -32 -162 9 -13 14 -23 32 -23 39 0 23 41 66 83 87 36 19 51
20 131 15 86 -7 93 -6 126 18 42 30 56 32 63 9z m1292 -7 c11 -2 37 -13 58
-24 21 -12 45 -18 53 -15 8 3 14 -1 14 -11 0 -9 22 -30 48 -46 57 -35 73 -61
70 -114 -3 -34 1 -41 25 -55 24 -13 35 -35 68 -131 21 -63 38 -122 39 -131 0
-8 16 -34 35 -56 38 -44 42 -62 23 -93 -11 -16 -9 -23 10 -40 20 -19 22 -30
20 -103 -2 -89 -8 -103 -65 -138 -29 -18 -43 -20 -104 -14 -63 6 -71 10 -84
36 -8 15 -15 42 -15 59 0 17 -5 40 -10 51 -8 13 -7 31 1 58 14 48 6 85 -28
118 -14 15 -26 32 -27 39 -3 20 -87 165 -116 199 -58 70 -123 126 -177 154
-84 42 -107 63 -99 89 4 12 18 25 32 28 24 6 32 28 14 39 -17 10 -11 44 9 55
11 5 29 10 41 10 12 0 36 12 53 26 31 26 34 26 112 10z m-3560 -80 c9 -3 21
-4 26 0 11 7 11 -17 0 -35 -5 -8 -16 -11 -25 -8 -27 10 -73 -13 -86 -42 -9
-23 -8 -35 7 -65 18 -38 18 -38 -6 -57 -23 -19 -23 -19 -53 6 -34 29 -57 31
-104 9 -22 -11 -37 -27 -44 -50 -10 -30 -16 -35 -38 -32 -41 5 -122 116 -122
167 0 50 11 59 24 20 6 -18 27 -45 47 -61 34 -28 38 -28 85 -17 27 6 58 16 69
22 11 6 32 17 46 24 47 24 119 109 119 141 0 41 13 48 27 14 7 -16 19 -32 28
-36z m4007 0 c41 -20 82 -94 147 -266 51 -136 75 -355 51 -463 -26 -120 -23
-457 6 -579 l6 -28 -62 0 c-59 0 -62 1 -57 23 21 86 20 97 -14 163 -18 36 -40
69 -48 74 -38 20 -97 86 -107 120 -11 36 -10 36 29 55 56 27 83 75 91 158 6
61 4 71 -18 104 -23 33 -24 39 -10 54 14 15 13 20 -11 54 -14 21 -25 43 -25
50 0 6 -9 20 -20 30 -11 10 -20 26 -20 36 0 20 -45 163 -61 191 -5 10 -9 25
-9 33 0 9 -11 21 -25 27 -21 9 -25 18 -25 53 0 34 -6 47 -35 75 -19 19 -35 37
-35 41 0 25 198 21 252 -5z m-4432 -1 c0 -8 -4 -15 -8 -15 -20 0 -42 -71 -36
-114 5 -34 3 -49 -10 -61 -20 -21 -21 -67 -1 -105 18 -35 60 -40 102 -13 27
18 27 18 18 -7 -4 -14 -10 -57 -12 -97 -4 -65 -2 -78 32 -150 28 -62 53 -95
117 -160 69 -69 79 -84 69 -97 -7 -8 -11 -30 -9 -48 3 -30 0 -33 -27 -36 -78
-7 -255 233 -255 346 0 52 -19 132 -31 132 -5 0 -9 -9 -9 -20 0 -11 -4 -28 -9
-38 -5 -9 -19 -55 -31 -102 -11 -47 -25 -103 -31 -125 -6 -25 -26 -55 -54 -82
-77 -77 -144 -54 -207 72 -14 28 -31 75 -38 105 -7 30 -19 69 -26 87 -8 18
-10 34 -6 36 4 3 34 5 67 5 67 0 131 22 152 52 8 11 19 20 24 20 25 0 81 57
106 108 26 52 28 67 28 170 0 107 1 115 24 133 28 23 61 25 61 4z m562 -4 c29
-11 64 -21 78 -23 20 -2 28 -12 38 -45 8 -24 18 -43 23 -43 5 0 9 -11 9 -25 0
-14 -6 -25 -12 -25 -16 0 -76 -55 -106 -97 -32 -45 -52 -117 -52 -187 l0 -59
-42 7 c-37 6 -44 4 -75 -26 -25 -24 -33 -40 -33 -68 0 -20 6 -42 13 -49 10
-10 8 -15 -10 -29 -12 -9 -29 -34 -38 -54 -13 -31 -20 -38 -44 -38 -55 0 -211
202 -225 290 -6 37 11 159 24 173 4 5 24 -7 44 -27 40 -40 49 -42 100 -21 37
15 64 47 71 82 6 35 53 73 89 73 47 0 78 32 74 78 -3 32 -7 37 -30 40 -20 2
-28 -1 -28 -13 0 -10 7 -15 18 -13 13 2 16 -3 14 -22 -1 -14 -4 -31 -7 -37 -6
-18 -32 -5 -38 18 -5 17 -9 19 -26 10 -28 -16 -31 -14 -31 17 0 41 14 55 56
57 22 1 43 3 47 4 4 0 15 17 23 36 8 19 16 35 19 35 2 0 28 -9 57 -19z m2148
-6 c0 -9 -9 -15 -24 -15 -35 0 -83 -44 -113 -104 -33 -65 -62 -92 -108 -100
-33 -6 -44 -2 -98 33 -33 23 -66 41 -74 41 -8 0 -13 12 -13 31 l0 30 31 -22
c62 -44 191 -17 239 51 37 52 160 94 160 55z m-3076 -65 c5 0 34 -16 66 -35
74 -45 98 -45 129 0 26 39 36 43 45 18 8 -20 -4 -132 -14 -138 -4 -3 -27 2
-50 10 -102 36 -243 14 -394 -60 -54 -27 -66 -25 -66 10 0 13 -4 26 -8 29 -12
7 -14 86 -3 86 5 0 12 -8 15 -18 10 -29 63 -75 80 -69 8 3 33 30 55 59 23 29
45 58 49 63 4 6 18 25 31 43 21 30 25 32 40 18 10 -9 21 -16 25 -16z m3070 14
c20 -7 21 -64 4 -97 -25 -44 -42 -57 -90 -72 -26 -7 -72 -30 -102 -50 -45 -30
-59 -34 -75 -26 -11 6 -28 11 -39 11 -37 0 -82 32 -102 71 -11 21 -17 39 -13
39 12 0 72 -38 96 -61 19 -17 30 -20 72 -14 63 8 116 55 152 135 31 69 51 82
97 64z m483 -82 c7 -4 24 -38 37 -76 24 -66 24 -69 8 -104 -47 -102 -128 -145
-165 -88 -15 22 -13 29 39 132 29 60 54 117 54 127 0 18 8 21 27 9z m632 -74
c64 -32 66 -34 63 -68 -5 -58 5 -76 63 -114 57 -39 83 -70 65 -81 -5 -3 -10
-14 -10 -24 0 -26 -88 -111 -140 -134 -47 -22 -145 -28 -187 -13 -16 6 -24 3
-32 -12 -9 -17 -7 -20 12 -21 98 -7 167 2 217 29 52 27 121 93 146 141 26 46
44 62 44 38 0 -6 7 -27 16 -46 13 -25 14 -37 5 -46 -17 -17 -13 -30 8 -24 29
7 61 -20 61 -51 0 -42 -34 -87 -83 -110 -41 -19 -45 -25 -50 -64 -5 -38 -20
-100 -42 -166 -10 -31 -138 -92 -178 -85 -22 4 -27 2 -27 -15 0 -23 -78 -92
-104 -92 -9 0 -40 -12 -69 -26 -68 -33 -156 -44 -169 -21 -5 10 -21 17 -36 17
-33 1 -103 47 -117 78 -5 12 -18 25 -27 28 -10 3 -18 13 -18 22 0 26 -28 60
-51 64 -20 3 -19 6 15 47 l38 45 -22 16 c-19 15 -20 18 -6 29 9 8 16 19 16 25
0 6 17 22 37 35 l37 24 -23 18 -22 18 32 16 c22 12 44 15 73 10 109 -17 235
-4 244 25 3 8 -2 10 -17 6 -48 -14 -58 -16 -96 -21 -48 -6 -75 1 -75 21 0 17
5 17 30 4 10 -5 26 -7 35 -4 14 6 14 8 -1 19 -13 9 -14 14 -5 19 18 12 41 -1
35 -19 -7 -17 7 -20 22 -5 5 5 34 22 64 37 42 21 59 37 73 67 22 45 17 53 -21
37 -48 -20 -112 3 -112 40 0 11 -5 19 -12 19 -17 0 -58 41 -58 58 0 19 29 52
46 52 7 0 14 15 16 36 3 42 32 69 48 45 5 -10 3 -25 -6 -42 -20 -39 -19 -115
2 -123 25 -9 32 -7 52 14 l19 21 6 -20 c8 -32 48 -43 70 -21 20 18 23 43 11
98 -8 39 -21 47 -57 33 -24 -9 -27 -8 -33 14 -3 14 -13 25 -21 25 -16 0 -12
23 13 72 30 58 86 60 193 6z m-3015 -5 c29 -56 66 -72 112 -48 49 25 53 0 7
-48 -74 -75 -74 -151 -1 -212 l31 -26 -27 -27 -27 -27 -19 25 c-61 81 -72 90
-129 90 -41 0 -65 -7 -98 -26 -43 -25 -45 -25 -58 -7 -17 22 -23 88 -10 102 2
2 18 -7 35 -19 26 -19 39 -21 80 -16 88 12 129 47 129 111 0 17 -9 41 -20 55
-19 22 -29 25 -90 24 -76 0 -88 11 -42 41 61 41 108 43 127 8z m1217 -5 c27
-13 49 -28 49 -33 0 -16 -57 -75 -72 -75 -8 0 -29 13 -48 30 -46 39 -62 37
-91 -7 -13 -21 -31 -38 -39 -38 -29 1 -111 38 -107 49 6 19 80 55 127 62 25 4
56 13 70 20 35 19 55 17 111 -8z m-2231 -19 c53 -11 62 -27 40 -70 -10 -18
-11 -18 -63 1 -61 24 -98 25 -158 6 -24 -7 -64 -19 -89 -27 -25 -7 -58 -19
-74 -27 -26 -13 -30 -12 -50 7 l-21 21 30 24 c76 61 260 92 385 65z m967 -49
c41 -15 61 -52 44 -83 -26 -49 -112 -73 -174 -48 -26 10 -28 15 -25 53 3 40 6
45 48 66 50 25 64 26 107 12z m1345 -17 c20 -24 42 -98 35 -117 -5 -12 -41
-15 -214 -20 -114 -3 -226 -6 -248 -8 -35 -3 -40 0 -43 20 -4 29 24 91 45 99
9 4 38 -1 64 -10 71 -25 101 -22 127 13 13 17 27 30 33 30 6 0 24 -13 39 -30
15 -16 34 -30 42 -30 8 0 32 16 54 35 46 40 46 40 66 18z m-2312 -40 c0 -9
-45 -43 -84 -64 -53 -28 -199 -31 -239 -4 -30 19 -35 35 -12 35 8 0 33 10 56
22 63 33 279 42 279 11z m1200 8 c18 -34 12 -136 -9 -162 l-19 -24 -28 21
c-45 33 -53 105 -18 162 18 28 59 29 74 3z m2053 -99 c10 -9 17 -29 17 -49 0
-27 -6 -37 -32 -53 -19 -11 -46 -19 -63 -18 -26 3 -30 0 -30 -23 0 -59 -46
-102 -99 -92 -33 7 -48 -11 -39 -45 6 -27 -12 -52 -40 -52 -23 0 -67 37 -67
56 0 7 -6 14 -12 17 -24 7 13 37 46 37 36 0 56 15 56 42 0 52 54 98 115 98 32
0 34 2 37 41 3 37 6 43 38 53 37 13 45 12 73 -12z m203 -48 c-5 -42 -4 -46 13
-41 28 7 61 -20 61 -49 0 -13 5 -24 10 -24 6 0 20 -10 32 -22 28 -28 15 -49
-39 -64 -85 -25 -125 -59 -127 -108 -1 -17 -11 -47 -24 -66 -12 -19 -19 -43
-16 -52 7 -22 -32 -98 -51 -98 -8 0 -20 10 -26 23 -6 12 -23 34 -37 50 -22 23
-34 27 -79 27 -29 0 -53 4 -53 9 0 25 -30 38 -81 34 -52 -4 -68 4 -69 34 0 7
16 27 34 44 19 17 36 41 38 52 2 15 16 25 50 36 45 14 58 28 94 109 1 2 12 4
25 4 32 2 89 56 89 85 0 17 6 23 23 23 12 0 38 8 57 19 19 10 46 19 59 20 23
1 23 -1 17 -45z m-1130 13 c14 -14 -38 -55 -92 -72 -52 -16 -104 -54 -104 -75
0 -22 -17 -7 -41 38 -25 45 -30 48 -98 67 -76 20 -99 34 -59 36 41 1 102 10
108 15 8 8 277 0 286 -9z m1382 -47 c28 -28 50 -41 80 -46 25 -4 42 -12 42
-20 0 -13 -86 -44 -121 -44 -24 0 -69 21 -69 32 0 4 -8 8 -17 8 -14 0 -50 50
-40 55 1 0 17 13 35 28 19 15 38 27 43 27 5 0 26 -18 47 -40z m-2687 -10 c24
-14 51 -64 43 -84 -8 -21 -112 -22 -157 -2 -33 16 -83 54 -76 60 37 33 149 48
190 26z m1810 -191 c5 -11 16 -19 24 -19 19 0 75 -77 75 -102 0 -10 7 -32 15
-49 13 -23 14 -39 6 -77 -16 -77 -52 -170 -69 -177 -21 -8 -85 26 -98 52 -6
13 -18 31 -26 40 -9 10 -24 44 -34 76 -19 61 -47 87 -94 87 -31 0 -80 28 -80
45 0 9 16 23 35 32 26 13 34 21 29 35 -4 15 0 18 29 18 26 0 39 6 51 25 14 22
22 25 50 20 25 -5 35 -3 39 9 8 19 34 11 48 -15z m1531 -99 c10 -29 25 -61 34
-71 11 -12 13 -24 8 -41 -5 -13 -9 -34 -9 -48 0 -22 -4 -25 -30 -23 -16 2 -48
4 -70 6 -57 4 -68 13 -60 51 3 17 9 48 12 70 7 50 27 87 55 103 34 18 41 12
60 -47z m-2739 -31 c16 0 52 -12 80 -27 l52 -27 -75 -5 c-92 -6 -80 -17 26
-24 78 -5 79 -5 92 -36 7 -18 12 -53 10 -78 l-3 -45 -175 2 c-131 2 -192 -2
-244 -14 -38 -9 -75 -14 -82 -11 -19 7 -18 57 2 106 14 34 22 41 58 51 22 5
57 14 76 20 19 5 54 9 77 9 23 0 45 5 49 12 5 8 -19 10 -97 5 -99 -6 -103 -6
-74 10 17 8 37 22 46 30 24 21 68 31 114 27 22 -3 53 -5 68 -5z m1482 -86 c19
-23 31 -28 70 -28 40 0 51 -4 69 -28 21 -29 28 -94 12 -132 -6 -17 -5 -17 13
4 12 13 21 34 21 47 0 15 6 24 16 24 19 0 90 -48 123 -84 13 -14 53 -44 88
-67 34 -23 63 -45 63 -49 0 -4 -9 -27 -20 -51 -23 -52 -25 -69 -7 -69 7 0 23
23 35 50 18 40 27 50 46 50 16 0 27 -7 31 -20 3 -11 11 -20 16 -20 12 0 12
-37 0 -44 -13 -8 -20 -45 -10 -51 14 -9 40 54 37 92 -3 32 0 37 27 46 17 6 52
24 78 40 36 22 51 27 60 18 17 -17 45 -13 76 10 27 20 42 21 229 23 189 1 202
3 224 23 21 19 24 19 38 4 40 -43 70 -141 70 -232 0 -44 6 -94 13 -112 8 -18
67 -82 131 -143 118 -112 139 -144 126 -194 -4 -18 -16 -27 -47 -36 -22 -7
-74 -29 -114 -49 -40 -20 -96 -39 -123 -42 -28 -4 -80 -21 -116 -40 -36 -18
-71 -33 -78 -33 -7 0 -25 -8 -40 -18 -69 -48 -113 -74 -186 -111 -44 -23 -86
-47 -95 -55 -9 -7 -28 -20 -43 -27 -103 -53 -134 -78 -163 -130 -16 -29 -32
-76 -36 -103 -5 -26 -11 -51 -14 -54 -13 -13 -36 28 -44 79 -8 60 -6 255 4
365 8 76 -16 246 -37 272 -17 20 -1 27 89 45 139 26 443 193 443 243 0 8 -2
14 -5 14 -3 0 -50 -27 -105 -60 -118 -72 -155 -89 -305 -140 -147 -51 -179
-48 -324 27 -147 76 -157 86 -165 156 -3 32 -11 68 -17 80 -14 25 -15 190 -1
226 8 24 -5 71 -20 71 -4 0 -7 -24 -8 -52 -4 -222 -3 -254 13 -292 9 -21 17
-61 17 -88 l0 -50 -37 7 c-21 4 -46 14 -56 23 -15 14 -24 14 -62 4 -24 -6 -51
-9 -60 -6 -8 4 -21 1 -29 -5 -18 -15 -52 26 -65 78 -14 53 -25 319 -14 333 16
23 30 82 31 131 1 26 6 56 12 67 5 10 10 35 10 54 0 36 0 36 45 36 38 0 50 -5
70 -27z m-455 -3 c16 -9 19 -19 15 -61 -2 -31 -11 -59 -22 -71 -58 -62 -67
-68 -87 -62 -44 14 -51 11 -48 -23 3 -29 0 -33 -21 -33 -14 0 -30 -6 -37 -14
-6 -8 -26 -16 -43 -18 -25 -2 -33 -8 -35 -28 -6 -42 -30 -60 -80 -60 -46 0
-82 -20 -82 -46 0 -25 -44 -54 -92 -60 -40 -5 -52 -12 -63 -34 -16 -32 -33
-40 -80 -40 -27 0 -37 -6 -55 -35 -23 -37 -64 -55 -83 -36 -17 17 -47 13 -47
-6 -1 -10 -10 -29 -21 -42 -16 -20 -31 -25 -77 -27 -44 -2 -57 -6 -57 -19 0
-29 -56 -64 -103 -65 -61 0 -82 14 -82 55 0 18 7 40 15 48 20 21 74 32 88 18
20 -20 46 -11 63 22 38 75 71 89 117 49 17 -15 20 -15 30 3 7 11 12 25 12 32
1 37 67 67 92 42 18 -18 45 -3 38 22 -4 13 0 28 11 41 16 16 29 19 78 16 59
-3 60 -3 68 28 11 44 33 58 89 60 58 2 69 8 69 38 0 12 11 33 25 46 20 19 31
22 64 16 45 -7 61 9 61 58 0 32 32 50 76 43 30 -5 33 -3 39 26 9 40 52 87 80
87 12 0 30 9 40 20 21 23 20 23 45 10z m2029 -222 c12 -34 15 -117 5 -143 -4
-9 -26 -25 -50 -36 -42 -17 -44 -20 -45 -61 -1 -41 -2 -40 -11 17 -13 85 -48
192 -81 248 -27 44 -30 77 -8 77 5 0 12 13 16 30 l6 29 79 -64 c49 -41 82 -77
89 -97z m-354 127 c76 -3 85 -8 85 -45 0 -46 -31 -60 -143 -64 -53 -2 -99 -1
-102 4 -9 14 -103 21 -123 9 -19 -12 -52 -7 -52 8 0 5 46 25 103 46 56 22 109
43 117 47 8 5 23 6 34 3 10 -3 47 -6 81 -8z m-2556 -84 c21 -13 4 -50 -27 -57
-15 -4 -31 -10 -37 -14 -10 -8 -164 -14 -292 -11 -66 1 -74 3 -89 26 -9 14
-15 28 -12 30 23 23 425 46 457 26z m1025 -46 c11 -8 27 -15 37 -15 9 0 28 -9
42 -20 23 -18 25 -24 15 -45 -6 -14 -15 -25 -20 -25 -5 0 -19 -10 -32 -22 -13
-13 -37 -31 -55 -41 l-31 -18 -39 30 c-21 17 -42 31 -45 31 -4 0 -30 -16 -58
-35 -48 -32 -54 -34 -75 -20 -12 8 -30 15 -39 15 -13 0 -15 7 -9 43 9 51 12
57 31 57 8 0 14 5 14 12 0 28 34 48 84 49 28 0 60 4 71 9 31 14 88 11 109 -5z
m-374 -118 c0 -8 -3 -17 -7 -21 -13 -12 -14 -51 -2 -76 33 -73 45 -93 83 -139
39 -47 83 -73 167 -100 30 -9 46 -8 100 10 71 23 97 36 117 56 18 18 30 9 48
-37 8 -20 27 -47 41 -60 23 -20 30 -21 63 -11 21 6 56 11 79 11 39 0 42 -2 36
-22 -11 -35 -25 -44 -97 -62 -103 -25 -135 -22 -169 16 -36 38 -36 38 -99 -78
-56 -106 -96 -142 -166 -150 -48 -6 -51 -5 -82 30 -30 34 -52 40 -52 15 0 -6
-13 -30 -30 -53 -23 -34 -40 -47 -79 -60 -83 -27 -111 -22 -164 29 -26 24 -48
49 -48 55 -1 5 -2 13 -3 18 -1 4 -23 28 -49 53 -51 50 -58 69 -27 69 29 0 79
27 118 63 35 34 40 47 17 47 -8 0 -15 -6 -15 -14 0 -18 -87 -76 -113 -76 -35
0 -97 33 -97 51 0 34 -17 28 -50 -17 -20 -28 -49 -54 -74 -65 -28 -13 -34 -19
-20 -19 19 0 57 23 92 57 16 16 13 16 53 -1 19 -8 43 -29 53 -48 11 -18 37
-52 58 -75 21 -24 38 -47 38 -53 0 -18 100 -110 118 -110 38 0 155 30 179 45
14 9 32 30 41 46 20 34 26 35 59 9 44 -34 106 -24 187 30 28 19 47 46 77 108
22 45 44 82 49 82 5 0 24 -9 42 -20 18 -11 48 -20 66 -20 30 0 32 -2 32 -35 0
-28 -8 -40 -46 -72 -73 -59 -88 -75 -108 -116 -17 -33 -18 -43 -6 -95 24 -109
71 -167 174 -213 25 -11 46 -23 46 -28 0 -15 -66 -70 -93 -76 -44 -11 -114 4
-147 32 -17 14 -32 24 -33 22 -1 -2 -7 -13 -13 -23 -15 -28 -81 -48 -129 -41
-88 13 -132 34 -185 89 l-28 28 -30 -64 c-24 -49 -39 -68 -66 -80 -50 -24 -95
-31 -142 -20 -57 13 -155 79 -168 114 -12 32 -26 36 -32 10 -8 -27 -66 -62
-106 -62 -88 0 -128 90 -92 208 4 13 2 22 -4 22 -16 0 -35 -79 -29 -125 3 -34
-1 -47 -24 -75 -27 -32 -32 -33 -106 -37 -66 -4 -83 -1 -110 16 -18 11 -33 28
-33 36 0 8 -4 15 -10 15 -18 0 -10 -36 13 -58 12 -11 43 -26 70 -32 44 -12 47
-14 47 -45 0 -25 -10 -44 -45 -80 -53 -57 -86 -136 -93 -222 -3 -49 -8 -63
-20 -63 -9 0 -28 -11 -42 -25 l-27 -25 -66 20 c-39 12 -73 29 -80 40 -18 29
-36 25 -79 -20 -22 -22 -49 -47 -61 -55 -31 -21 -80 -19 -112 7 l-28 22 -26
-32 c-31 -38 -61 -41 -109 -12 l-33 20 -30 -21 c-38 -26 -85 -21 -140 16 l-38
25 -36 -31 c-32 -29 -39 -31 -83 -24 -33 5 -63 19 -99 47 -60 46 -57 46 -148
-27 -22 -18 -55 -40 -73 -49 -30 -15 -33 -15 -39 0 -3 8 5 34 17 57 58 105 62
116 53 144 -12 35 -35 40 -71 14 -16 -11 -41 -23 -58 -27 -16 -4 -33 -10 -39
-14 -5 -4 -27 -10 -47 -14 -35 -6 -38 -5 -44 21 -6 24 -1 33 47 75 40 36 59
47 74 42 11 -3 43 -8 71 -11 43 -4 60 0 112 26 34 17 71 44 84 61 12 16 24 30
27 30 3 0 14 -19 25 -41 l19 -41 50 6 c27 4 71 18 98 31 l48 25 3 -27 c4 -38
59 -73 113 -73 30 0 54 9 90 33 26 17 60 40 74 49 14 10 40 34 57 54 l32 37
30 -21 c23 -17 45 -22 89 -22 57 0 63 2 115 48 31 26 65 63 76 82 22 38 59 75
82 82 10 3 11 6 2 12 -7 4 -42 -24 -89 -72 -96 -97 -161 -137 -205 -128 -45 9
-78 33 -78 57 0 29 -21 19 -47 -22 -57 -88 -113 -135 -189 -157 -60 -17 -75
-15 -106 15 -30 29 -35 52 -16 71 8 8 9 15 2 22 -7 7 -27 -2 -59 -25 -28 -18
-71 -40 -98 -47 -44 -11 -49 -11 -69 9 -28 28 -27 91 2 157 14 34 17 53 10 60
-5 5 -10 20 -10 33 0 13 -7 39 -14 58 -17 41 -75 115 -89 115 -6 0 -18 7 -27
15 -24 22 -163 22 -242 0 -21 -5 -27 -3 -33 15 -9 28 26 67 46 54 25 -16 96
-30 115 -23 11 3 52 7 92 7 42 1 80 6 88 13 11 9 21 9 40 0 39 -18 78 -13 118
14 31 21 49 25 106 25 58 0 72 3 90 22 15 16 33 23 68 24 72 3 111 14 130 38
14 17 28 21 79 21 48 0 68 5 92 23 17 13 35 21 40 18 5 -3 11 -25 13 -49 10
-90 111 -247 158 -247 9 0 20 -4 26 -9 5 -5 25 -14 45 -20 29 -9 46 -8 96 8
121 39 181 98 224 224 20 60 22 73 11 111 -6 25 -23 61 -37 82 -24 36 -33 74
-17 74 5 0 26 15 48 34 22 19 45 31 50 28 6 -4 20 -28 31 -53 23 -50 78 -103
95 -93 6 4 0 13 -16 21 -28 15 -66 79 -66 112 0 12 11 26 28 35 15 8 36 23 46
35 11 12 31 21 48 21 37 0 84 24 98 50 7 13 21 20 40 20 17 0 30 5 30 10 0 6
6 10 13 10 7 0 26 13 41 29 17 18 42 31 67 35 52 8 84 30 99 66 10 24 19 30
42 30 45 0 97 26 108 55 10 26 30 34 30 12z m466 -44 c7 -10 14 -39 14 -65 0
-46 -1 -48 -27 -48 -15 0 -55 -14 -88 -31 l-61 -32 -43 27 c-41 26 -44 27 -74
12 -68 -32 -84 -31 -107 6 -19 32 -28 108 -12 108 4 0 21 -9 39 -19 l31 -20
49 35 c26 19 51 34 55 34 4 0 24 -11 44 -25 43 -29 61 -31 86 -8 20 18 58 41
72 42 5 1 15 -7 22 -16z m2054 -41 c27 -13 36 -26 44 -56 6 -27 5 -45 -3 -58
-6 -10 -11 -27 -11 -38 0 -30 -31 -60 -62 -60 -23 0 -28 -4 -28 -24 0 -34 -37
-76 -66 -76 -41 0 -154 70 -154 95 0 6 -14 21 -30 34 -37 29 -37 45 -3 96 15
22 26 47 25 57 -4 24 12 30 102 38 127 11 149 10 186 -8z m-4517 -111 c56 -28
67 -40 67 -71 0 -40 -47 -55 -80 -25 -16 14 -19 13 -34 -10 -21 -32 -58 -33
-79 -2 l-15 22 -24 -24 c-17 -18 -19 -22 -6 -18 10 4 31 -1 47 -11 26 -15 34
-15 63 -3 18 8 50 13 72 12 21 -1 44 4 52 10 28 23 44 3 44 -56 l0 -56 -35 7
c-25 4 -43 1 -61 -10 -21 -15 -31 -15 -61 -5 -31 10 -38 9 -62 -9 -24 -17 -30
-18 -52 -6 -13 7 -32 13 -41 14 -20 0 -60 -48 -51 -62 3 -6 0 -9 -8 -6 -25 8
-39 51 -39 119 0 36 3 69 6 72 4 4 24 -3 46 -15 29 -17 41 -19 50 -10 9 9 6
12 -13 12 -57 0 -66 57 -16 101 26 24 41 29 87 30 30 0 64 4 75 9 28 12 27 12
68 -9z m2467 0 c0 -12 -64 -66 -93 -79 -45 -20 -161 -15 -207 8 -51 26 -57 38
-25 50 44 17 100 12 120 -10 25 -27 40 -25 108 14 52 30 97 38 97 17z m336
-191 c18 -7 37 -7 55 -1 23 8 40 3 106 -29 43 -21 91 -43 106 -49 26 -10 28
-14 22 -44 -4 -17 -23 -47 -41 -65 -37 -36 -37 -35 -36 -164 1 -66 5 -95 19
-119 16 -28 17 -32 2 -42 -22 -17 -31 -74 -18 -112 11 -29 9 -36 -12 -66 -13
-19 -32 -40 -42 -48 -10 -7 -22 -23 -28 -35 -5 -11 -14 -28 -21 -38 -9 -13 -8
-31 5 -86 9 -38 17 -95 17 -125 0 -47 3 -57 20 -62 28 -9 26 -14 -22 -63 -51
-53 -87 -55 -103 -5 -14 41 -21 48 -38 35 -7 -6 -37 -12 -67 -14 -48 -3 -55
-6 -60 -28 -3 -14 -13 -26 -22 -28 -19 -4 -89 30 -136 65 l-32 24 -23 -25 -23
-25 -67 20 c-36 11 -69 24 -72 29 -12 20 -41 8 -66 -27 l-27 -37 -188 -2 -189
-3 -50 34 c-73 49 -85 50 -154 16 -61 -31 -81 -28 -61 9 7 14 8 26 0 39 -5 11
-10 30 -10 43 0 13 -17 48 -38 79 -70 103 -79 111 -135 124 l-52 11 -3 49 c-3
37 1 52 14 62 14 10 23 7 55 -19 34 -27 43 -30 86 -25 35 4 53 12 71 33 24 27
25 27 38 8 43 -63 113 -97 210 -102 93 -5 140 17 175 82 13 25 27 46 31 46 3
0 39 -19 80 -42 67 -40 78 -43 143 -43 56 1 79 6 108 24 37 23 38 23 65 5 20
-14 45 -19 99 -19 66 1 75 3 103 30 17 16 33 40 36 52 4 13 13 23 22 23 8 0
45 9 81 20 102 30 150 91 175 225 8 41 -17 129 -49 171 -27 36 -91 74 -123 74
-14 0 -21 9 -26 31 -10 50 -7 65 17 103 24 38 32 41 73 26z m-2722 -66 c9 -22
-21 -80 -52 -100 -23 -15 -42 -22 -117 -40 -22 -6 -118 27 -150 50 -16 12 -17
17 -6 45 15 36 38 40 82 14 28 -17 30 -17 45 5 16 23 58 30 69 12 10 -16 41
-11 60 10 22 24 60 26 69 4z m656 -15 c13 -9 13 -11 1 -16 -25 -10 -60 -54
-66 -84 -5 -21 -12 -29 -29 -29 -12 0 -27 5 -33 11 -8 8 -16 3 -27 -20 -16
-30 -19 -31 -81 -31 -58 0 -66 -3 -81 -25 -10 -15 -26 -25 -41 -25 -13 0 -34
-5 -45 -11 -16 -9 -26 -7 -49 10 l-29 21 -17 -37 c-17 -35 -22 -38 -65 -41
-26 -2 -57 2 -68 8 -18 10 -27 6 -61 -24 -44 -40 -75 -45 -120 -19 -26 16 -29
16 -47 0 -23 -21 -44 -21 -82 -2 -26 14 -30 21 -30 59 0 54 38 102 73 92 12
-3 28 -6 35 -6 6 0 12 -7 12 -15 0 -9 11 -20 24 -26 21 -10 30 -7 61 16 l36
28 38 -21 c51 -29 57 -28 77 9 15 30 18 31 57 25 23 -3 51 -8 62 -11 15 -4 23
2 35 27 14 31 18 33 60 32 25 -1 56 -5 71 -9 22 -6 28 -2 45 30 10 20 29 43
42 51 21 14 26 13 58 -5 43 -26 53 -26 61 -3 12 35 36 52 72 52 20 0 43 -5 51
-11z m329 -19 c42 -5 49 -9 79 -54 31 -47 41 -96 24 -123 -6 -9 -15 -8 -40 4
-31 15 -34 15 -55 -6 -30 -28 -82 -28 -97 -1 -14 27 -28 25 -52 -5 -37 -47
-54 -50 -100 -16 -48 35 -64 38 -89 15 -27 -25 -41 -8 -33 40 9 58 37 92 97
120 65 29 81 34 136 40 24 3 46 8 49 11 3 2 12 -1 20 -7 8 -7 35 -15 61 -18z
m2139 -73 c14 -17 32 -158 30 -235 -1 -59 -3 -64 -34 -83 l-33 -20 -40 21
c-22 11 -45 29 -51 39 -16 30 -13 116 5 131 21 17 19 37 -5 45 -11 3 -20 12
-20 18 1 20 37 57 55 57 9 0 19 9 22 20 6 23 54 28 71 7z m-488 -27 c13 -9 12
-13 -5 -26 -19 -15 -17 -15 23 -9 27 4 54 2 72 -5 32 -13 49 -48 31 -60 -9 -5
-8 -10 4 -20 22 -18 19 -67 -4 -80 -11 -5 -41 -10 -66 -10 -51 0 -85 14 -85
34 0 17 43 46 69 46 27 0 51 10 51 22 0 13 -61 2 -106 -19 -29 -14 -37 -15
-58 -3 -18 9 -48 11 -101 7 -41 -3 -75 -2 -75 2 0 4 17 24 39 45 36 35 41 37
82 31 24 -3 55 -2 69 4 22 9 19 10 -23 10 -32 1 -46 5 -42 12 16 26 96 38 125
19z m1766 -35 c9 -8 26 -15 39 -15 13 0 27 -4 30 -10 3 -5 17 -10 30 -10 21 0
24 -6 30 -57 3 -32 5 -77 4 -100 -2 -24 3 -48 11 -58 13 -16 11 -21 -20 -47
-28 -23 -41 -28 -65 -23 -16 3 -63 9 -103 12 -68 5 -77 3 -131 -26 -33 -17
-69 -31 -81 -31 -13 0 -33 -11 -45 -24 -12 -13 -49 -32 -81 -42 -33 -10 -70
-27 -84 -39 -37 -32 -121 -72 -166 -80 -48 -9 -87 -32 -81 -49 7 -18 -51 -53
-107 -66 -72 -16 -83 -25 -100 -82 -23 -76 -45 -100 -91 -102 -34 -1 -42 4
-66 39 -16 22 -28 46 -29 54 0 7 -11 24 -25 37 -29 27 -30 35 -12 129 19 97
52 146 118 174 29 13 75 40 103 61 28 21 89 55 136 77 47 22 91 47 99 56 7 9
18 17 23 17 6 0 23 11 40 25 20 17 42 25 66 25 22 0 44 8 57 20 14 14 47 25
90 31 37 6 82 20 99 30 65 40 123 63 186 75 89 17 109 16 126 -1z m-3353 -84
c15 -8 27 -18 27 -23 0 -22 -33 -67 -84 -117 -51 -50 -59 -55 -111 -59 -95 -8
-190 39 -225 111 -25 51 -25 55 3 78 26 22 32 23 49 7 13 -13 50 -32 80 -42
11 -3 27 4 42 19 30 30 32 30 80 4 37 -20 39 -20 60 -2 11 10 25 24 29 31 5 7
12 12 15 10 4 -2 19 -10 35 -17z m1511 -36 c34 -34 -37 -85 -129 -93 -43 -3
-52 -1 -63 18 -11 18 -11 28 -2 51 14 33 24 36 112 38 48 1 71 -3 82 -14z
m216 -74 c0 -3 -5 -20 -12 -38 -13 -36 -40 -49 -86 -40 -26 5 -191 -16 -223
-28 -18 -7 -49 18 -49 39 0 16 43 36 78 36 15 0 37 8 50 18 19 15 43 18 132
17 61 0 110 -2 110 -4z m-3029 -122 c43 -21 62 -43 57 -65 -11 -59 -398 -82
-398 -23 0 5 19 30 41 54 35 38 47 45 80 45 21 0 40 4 44 10 9 14 135 0 176
-21z m3329 18 c14 1 31 2 39 4 8 3 18 -10 26 -31 11 -31 10 -43 -7 -88 -14
-38 -25 -52 -39 -52 -10 0 -19 5 -19 10 0 6 -16 10 -37 8 -34 -3 -38 0 -41 22
-2 13 -10 33 -17 43 -25 36 12 104 50 91 11 -4 31 -7 45 -7z m1328 -74 c17
-23 15 -128 -3 -162 -8 -16 -48 -59 -90 -97 -57 -51 -75 -74 -75 -94 0 -14
-21 -68 -46 -119 l-46 -94 7 -111 c8 -147 12 -169 35 -196 35 -40 19 -110 -29
-129 -41 -15 -128 -20 -222 -11 -159 15 -205 70 -144 174 28 48 25 71 -20 164
-14 28 -25 70 -25 91 0 57 -14 85 -54 109 -19 11 -43 37 -54 58 -11 22 -22 32
-26 26 -10 -17 17 -61 63 -107 29 -28 41 -47 41 -68 0 -16 14 -62 30 -104 30
-74 38 -131 21 -148 -15 -17 -39 -113 -34 -139 5 -23 2 -26 -21 -26 -15 0 -36
-5 -47 -11 -15 -7 -28 -7 -49 3 -17 7 -30 15 -30 18 0 3 7 30 15 60 22 82 19
161 -12 264 -19 66 -37 104 -64 137 l-37 46 17 53 c19 57 41 81 70 73 26 -7
140 53 178 93 19 21 42 34 56 34 14 0 29 6 35 13 6 6 33 21 61 32 28 11 51 23
51 27 0 15 64 48 92 48 16 0 42 12 61 30 19 17 42 30 50 30 8 0 37 10 64 21
91 41 155 45 181 12z m-4585 -70 c8 -42 -15 -70 -65 -78 -24 -4 -48 -12 -55
-17 -11 -9 -138 -6 -255 7 l-58 7 0 43 0 43 62 -16 c52 -13 78 -14 167 -4 58
6 124 18 146 26 53 20 52 20 58 -11z m3207 -42 c19 -6 52 -13 72 -16 34 -5 38
-9 44 -43 3 -20 13 -48 21 -61 8 -13 19 -37 24 -53 7 -27 5 -30 -21 -40 -17
-5 -30 -16 -30 -23 0 -7 -17 -28 -37 -46 -31 -27 -39 -30 -41 -16 -2 10 6 32
17 51 28 44 26 58 -8 95 -33 35 -50 38 -80 14 -16 -13 -23 -34 -27 -79 -6 -54
-4 -64 15 -83 20 -20 29 -61 14 -61 -16 0 -79 26 -85 35 -4 5 -8 31 -8 56 0
26 -7 70 -16 98 l-17 51 28 42 c37 56 78 98 90 93 6 -2 26 -8 45 -14z m-3444
-91 c68 0 144 5 169 12 24 7 47 9 51 5 13 -13 -27 -82 -58 -102 -95 -60 -111
-65 -172 -60 -33 3 -71 12 -85 22 -47 29 -91 81 -91 106 0 32 8 37 37 26 13
-5 80 -9 149 -9z m1729 -71 c14 -14 13 -398 -2 -410 -6 -6 -31 -9 -55 -7 l-43
3 -3 219 -2 218 47 -7 c27 -4 52 -11 58 -16z m-135 -194 c0 -229 3 -222 -70
-185 -45 23 -43 12 -41 195 2 129 11 156 62 182 49 26 49 27 49 -192z m191
143 c52 -60 74 -151 52 -217 -19 -56 -52 -96 -67 -81 -10 10 -17 320 -8 320 2
0 13 -10 23 -22z m1870 -88 c8 0 24 -16 37 -35 33 -52 78 -77 125 -70 25 4 45
0 62 -11 25 -16 25 -40 0 -30 -7 2 -48 -9 -92 -25 -93 -35 -105 -35 -150 -8
-21 13 -42 19 -57 15 -17 -4 -34 3 -60 23 -21 17 -41 31 -46 33 -14 5 1 58 17
58 8 0 38 18 66 40 45 37 52 39 67 25 9 -8 23 -15 31 -15z m-932 -171 c63 -17
86 -20 89 -11 6 20 44 14 107 -18 72 -36 98 -37 122 -6 31 39 60 42 94 10 30
-29 83 -38 123 -20 16 8 18 5 16 -30 -7 -99 -1 -125 33 -159 25 -25 45 -34 84
-40 77 -10 111 1 164 55 49 51 65 90 54 139 -6 30 -6 30 27 20 65 -21 77 -21
151 5 90 31 153 34 160 9 3 -10 10 -39 17 -64 11 -44 9 -123 -6 -247 -4 -34
-2 -57 6 -66 15 -19 24 -140 16 -208 -10 -76 -22 -81 -195 -72 -136 7 -136 7
-175 -20 -21 -14 -44 -26 -51 -26 -15 0 -58 -54 -81 -104 l-18 -36 -343 0
-343 0 0 58 c0 31 7 100 15 152 23 153 34 253 45 444 9 145 8 181 -2 188 -7 4
-137 5 -288 3 -189 -4 -270 -3 -260 4 8 6 74 11 149 11 111 0 138 3 153 17 10
9 18 23 18 31 0 9 6 12 18 9 9 -3 55 -15 101 -28z m779 -15 c43 -37 52 -51 52
-77 -1 -57 -30 -98 -84 -119 -43 -16 -53 -17 -95 -5 -44 12 -46 15 -54 58 -13
70 5 123 55 159 23 17 48 30 57 30 9 0 40 -21 69 -46z m-720 -171 c1 -51 1
-93 0 -93 -2 0 -77 -7 -168 -15 -91 -8 -232 -15 -315 -15 -82 0 -235 -7 -340
-15 -378 -30 -344 -30 -354 -3 -4 12 -11 56 -15 96 -6 61 -5 73 9 78 8 4 22 1
30 -6 13 -11 24 -11 58 0 49 14 84 28 112 43 13 8 176 13 480 17 253 4 469 6
480 6 18 -1 20 -9 23 -93z m-1766 -36 c1 -7 2 -149 3 -317 1 -168 5 -332 9
-366 l8 -61 -45 -12 c-35 -10 -53 -10 -80 -2 -34 11 -34 13 -40 79 -8 84 2
665 11 674 4 4 27 8 52 10 25 2 53 4 63 5 9 1 18 -4 19 -10z m310 -22 c4 -16
9 -111 10 -210 l3 -180 -139 -3 c-105 -2 -142 1 -148 10 -9 14 -9 258 1 347
l6 56 80 6 c44 3 102 5 129 5 46 -1 50 -3 58 -31z m-493 6 c12 -21 17 -152 14
-308 l-3 -103 -162 0 -161 0 6 207 c5 150 10 209 19 215 7 4 72 8 145 8 120 0
133 -2 142 -19z m-477 -83 c59 -21 103 -61 94 -85 -3 -7 2 -16 10 -21 11 -6
14 -22 12 -60 -3 -51 -3 -51 -27 -39 -14 6 -32 26 -41 42 -11 19 -30 35 -55
43 -22 7 -47 19 -55 27 -23 21 -53 -2 -48 -36 3 -22 8 -24 66 -29 57 -5 81
-17 82 -42 0 -11 -87 -21 -125 -15 -19 3 -46 14 -60 24 -23 17 -24 22 -21 98
2 44 8 81 14 83 5 1 18 9 28 17 26 20 58 18 126 -7z m2418 -17 c0 -27 -29 -91
-43 -95 -95 -26 -167 -22 -193 10 -11 14 -44 9 -44 -6 0 -4 -18 -15 -40 -24
-49 -19 -122 -12 -146 15 -21 24 -28 24 -62 0 -46 -34 -124 -31 -178 5 -31 22
-40 24 -48 12 -17 -21 -91 -42 -122 -34 -15 4 -41 16 -56 28 l-29 20 -37 -25
c-90 -59 -136 -57 -144 8 -2 20 -2 38 1 40 2 3 23 5 45 5 23 0 68 7 101 14 91
22 176 28 501 36 524 12 494 13 494 -9z m-228 -121 c40 -24 130 -27 172 -5 39
21 39 20 32 -27 -3 -24 -11 -116 -16 -205 -17 -259 -12 -236 -55 -256 -70 -34
-278 -49 -636 -45 -249 2 -330 6 -342 16 -21 17 -44 131 -56 279 -16 181 -15
216 7 209 17 -6 95 14 132 34 15 8 31 7 65 -5 51 -17 126 -20 141 -6 14 14 46
15 78 2 53 -22 120 -22 161 -1 35 18 41 18 62 5 12 -8 32 -15 43 -15 12 0 30
-5 41 -11 22 -11 99 12 120 37 14 18 12 18 51 -6z m1620 -77 c-5 -110 -21
-146 -73 -167 -65 -26 -64 -28 -61 101 2 65 5 123 7 130 2 6 23 14 47 16 24 2
52 4 63 5 19 2 20 -3 17 -85z m248 61 c63 -2 118 -4 123 -4 4 0 5 -11 1 -24
-9 -37 12 -118 51 -198 29 -57 37 -89 42 -151 l6 -79 -64 8 c-127 18 -175 13
-409 -42 -75 -18 -115 -38 -60 -30 70 10 181 36 203 48 14 8 64 13 137 13 139
-1 181 -16 172 -62 -8 -46 -20 -53 -89 -53 -70 0 -91 8 -138 51 -16 16 -38 29
-49 29 -24 0 -92 -19 -133 -36 -17 -8 -38 -14 -48 -14 -9 0 -29 -7 -45 -15
-38 -20 -228 -39 -305 -31 -91 9 -93 26 -2 26 45 0 77 4 77 10 0 6 -14 10 -31
10 -18 0 -72 5 -121 12 l-90 12 7 33 c6 36 62 94 119 125 53 29 156 56 266 68
65 7 111 17 122 27 33 29 48 79 48 157 0 41 5 87 12 102 11 23 16 25 48 19 19
-4 87 -9 150 -11z m-3966 -119 l26 -24 -2 -183 -3 -183 -50 0 c-48 0 -49 1
-57 35 -8 34 0 357 9 373 9 15 51 6 77 -18z m-114 -191 c0 -147 -3 -196 -12
-199 -7 -2 -43 -6 -80 -8 -56 -4 -68 -2 -72 12 -2 9 -6 97 -8 195 l-3 180 55
10 c30 6 70 9 88 7 l32 -3 0 -194z m1257 121 c6 -38 17 -106 23 -150 5 -44 13
-95 16 -113 l5 -33 -118 3 -118 3 -3 183 -2 183 92 -3 93 -3 12 -70z m-252
-40 c0 -49 -10 -53 -167 -54 -110 -1 -117 0 -123 20 -11 33 3 67 28 72 12 3
76 4 142 3 l120 -1 0 -40z m-504 19 c5 -3 9 -27 9 -54 0 -34 -4 -50 -16 -54
-21 -8 -199 -8 -258 0 l-46 7 0 53 c0 50 2 53 28 58 33 5 271 -2 283 -10z
m2931 -67 l48 -13 -58 -28 c-31 -16 -74 -44 -94 -64 -32 -30 -41 -34 -70 -28
-18 4 -41 8 -50 9 -10 1 -18 8 -18 15 0 18 80 92 100 92 8 1 26 7 40 15 30 17
42 18 102 2z m-2438 -33 c13 -5 16 -22 16 -83 0 -47 -5 -82 -12 -89 -8 -8 -52
-12 -133 -12 l-120 0 -13 40 c-6 22 -12 65 -12 95 l0 55 129 0 c71 0 136 -3
145 -6z m-486 -116 l-3 -83 -148 -3 -147 -3 -10 26 c-6 15 -10 53 -10 86 l0
59 160 0 161 0 -3 -82z"/>
<path d="M1494 5556 c-65 -28 -100 -118 -70 -180 36 -77 101 -83 154 -14 27
36 32 50 32 99 0 47 -4 62 -22 79 -12 11 -25 20 -29 20 -4 0 -13 2 -21 5 -7 2
-27 -2 -44 -9z"/>
</g>
</svg>
