<?xml version="1.0" standalone="no"?>
<!DOCTYPE svg PUBLIC "-//W3C//DTD SVG 20010904//EN"
 "http://www.w3.org/TR/2001/REC-SVG-20010904/DTD/svg10.dtd">
<svg version="1.0" xmlns="http://www.w3.org/2000/svg"
 width="481.000000pt" height="616.000000pt" viewBox="0 0 481.000000 616.000000"
 preserveAspectRatio="xMidYMid meet">
<metadata>
Created by potrace 1.16, written by Peter Selinger 2001-2019
</metadata>
<g transform="translate(0.000000,616.000000) scale(0.100000,-0.100000)"
fill="#000000" stroke="none">
<path d="M2413 6133 c-10 -30 -104 -255 -125 -302 l-20 -44 -61 6 c-150 15
-287 19 -287 10 0 -11 42 -51 160 -153 41 -36 80 -71 86 -79 11 -14 -12 -124
-52 -243 -26 -79 -17 -85 51 -35 85 61 184 121 191 114 12 -11 -16 -80 -60
-146 -82 -123 -306 -318 -382 -333 -64 -12 35 -48 134 -48 29 0 52 -4 52 -8 0
-4 -19 -27 -43 -50 l-44 -43 -51 27 c-58 30 -89 28 -128 -11 -35 -35 -34 -106
3 -134 14 -12 37 -24 50 -27 12 -4 23 -12 23 -19 0 -31 -208 -200 -302 -246
-27 -13 -48 -26 -48 -31 0 -16 88 -30 160 -25 l75 5 -60 -54 c-33 -29 -63 -54
-67 -54 -4 0 -33 -16 -65 -37 -31 -20 -82 -46 -112 -57 -30 -12 -56 -27 -59
-34 -5 -15 39 -32 84 -32 19 0 34 -4 34 -8 0 -4 -15 -25 -34 -45 -30 -33 -38
-37 -63 -30 -15 4 -54 8 -86 8 -50 0 -62 -4 -78 -24 -11 -14 -19 -39 -19 -62
0 -32 6 -43 35 -66 19 -15 35 -31 35 -34 0 -4 -31 -23 -70 -43 -38 -20 -72
-41 -75 -46 -13 -21 42 -34 132 -33 l93 2 -16 -24 c-16 -24 -78 -77 -126 -108
-24 -15 -30 -15 -55 -2 -74 39 -146 4 -158 -78 -8 -50 -1 -79 26 -118 17 -25
18 -27 1 -42 -30 -27 -156 -97 -174 -97 -10 0 -18 -6 -18 -14 0 -10 17 -17 56
-22 l56 -7 -46 -28 c-25 -16 -50 -29 -56 -29 -5 0 -10 -6 -10 -14 0 -15 30
-26 72 -26 26 0 27 -2 17 -27 -6 -16 -8 -47 -4 -69 6 -39 4 -44 -32 -73 -47
-39 -117 -73 -210 -101 -102 -31 -98 -47 12 -58 l65 -7 -63 -41 c-63 -43 -160
-95 -209 -113 -64 -24 -6 -53 120 -59 50 -2 92 -8 92 -11 0 -4 -10 -17 -22
-28 -32 -29 -215 -151 -239 -158 -10 -4 -19 -12 -19 -20 0 -18 68 -29 130 -20
29 4 50 3 50 -2 0 -21 -240 -185 -364 -249 -42 -21 -76 -42 -76 -46 0 -15 55
-21 147 -15 80 5 92 3 82 -9 -24 -29 -148 -115 -203 -140 -31 -14 -56 -30 -56
-35 0 -12 79 -11 159 1 35 6 66 8 69 6 8 -9 -28 -84 -76 -156 -49 -74 -212
-233 -289 -282 -38 -24 -52 -39 -50 -53 2 -18 14 -21 107 -31 67 -7 148 -8
224 -2 65 5 121 6 124 4 2 -3 1 -32 -3 -66 -6 -53 -10 -62 -36 -75 -35 -19
-61 -67 -63 -116 -1 -46 16 -66 66 -80 49 -13 82 -1 124 42 50 53 32 151 -30
167 -31 8 -31 9 -31 73 l0 64 85 11 c92 13 249 51 344 84 33 11 61 18 64 16 9
-10 -98 -106 -152 -136 -31 -18 -56 -37 -56 -42 0 -20 102 3 214 47 61 24 113
41 116 39 5 -6 -79 -85 -122 -115 -41 -29 -12 -32 89 -8 63 15 132 41 191 71
51 26 95 48 98 48 11 0 -23 -49 -68 -96 -49 -52 -62 -82 -30 -69 104 40 255
95 263 95 22 0 7 -48 -22 -69 -40 -30 -53 -65 -39 -107 22 -64 89 -93 138 -58
23 16 52 74 52 104 0 26 -47 78 -73 82 -18 2 -22 10 -22 37 0 32 4 36 89 83
48 27 90 47 92 45 3 -2 -27 -34 -65 -69 -39 -36 -68 -68 -64 -72 16 -15 95 -3
173 28 47 18 94 36 105 41 22 8 -56 -71 -94 -96 -70 -45 47 -47 206 -4 l82 23
6 -30 c4 -16 4 -70 0 -119 l-7 -89 -132 -1 c-262 -1 -306 -2 -306 -4 0 -19
102 -435 149 -610 11 -38 29 -106 40 -150 34 -125 37 -132 79 -139 20 -3 96
-6 167 -6 108 0 345 -9 600 -22 l49 -3 27 90 c15 50 40 133 55 185 15 52 51
169 79 260 83 264 116 382 110 389 -4 3 -97 8 -206 11 -213 6 -225 9 -214 56
2 11 8 78 11 147 4 70 11 127 16 127 5 0 42 -17 81 -39 165 -89 467 -180 467
-141 0 6 -25 43 -55 82 -30 40 -53 74 -51 76 3 2 34 -14 71 -36 36 -23 86 -49
110 -58 43 -18 43 -19 49 -79 4 -33 9 -74 12 -90 5 -28 2 -32 -30 -43 -52 -19
-86 -68 -86 -125 0 -38 5 -49 31 -71 60 -51 135 -23 180 67 32 61 12 122 -53
162 -12 7 -19 32 -24 79 -6 65 -6 69 12 61 55 -22 214 -53 240 -46 39 10 40
26 2 49 -35 22 -97 82 -85 82 4 0 54 -24 110 -54 162 -86 408 -169 423 -144 4
5 -17 30 -46 55 -60 53 -156 176 -141 181 6 2 23 -5 38 -16 81 -57 352 -142
409 -128 34 9 30 19 -23 54 -55 35 -129 99 -123 105 3 2 47 -16 98 -40 l93
-45 -3 -66 c-3 -67 -3 -67 -41 -86 -115 -56 -95 -206 28 -206 38 0 52 5 76 29
25 26 29 37 29 86 0 50 -3 60 -30 85 -27 25 -30 34 -30 90 0 60 1 62 23 56 50
-16 193 -34 201 -26 4 4 -16 24 -45 43 -56 36 -131 107 -113 107 6 0 53 -14
105 -31 89 -29 229 -51 256 -41 15 5 18 22 4 22 -18 0 -188 118 -243 169 -52
48 -58 57 -58 95 0 48 -28 113 -60 141 -18 16 -36 20 -96 20 -73 0 -73 0 -118
44 -25 25 -45 46 -43 47 1 1 43 -5 92 -13 64 -10 126 -13 214 -9 175 8 189 25
84 104 -38 27 -93 77 -125 109 -52 56 -56 63 -56 108 0 63 -25 95 -86 115 -34
11 -61 30 -92 65 -40 44 -104 130 -104 139 0 2 30 6 66 10 66 7 139 29 162 50
9 9 -1 18 -45 39 -60 27 -223 160 -223 180 0 7 9 23 20 37 11 14 20 39 20 57
0 69 -95 129 -141 87 -18 -16 -22 -16 -53 -1 -36 17 -176 143 -176 158 0 5 26
9 58 9 118 1 211 63 135 90 -57 20 -193 111 -193 128 0 4 19 7 43 7 53 1 137
24 137 39 0 6 -27 21 -59 34 -134 52 -272 152 -340 247 -27 38 -30 46 -17 51
9 3 26 4 39 1 29 -7 160 26 165 41 2 7 -3 12 -10 12 -21 0 -170 95 -203 129
l-29 32 29 -2 c46 -3 116 12 113 23 -2 6 -25 19 -50 29 -50 19 -142 76 -201
123 -33 26 -37 33 -31 63 3 18 4 43 1 56 -7 24 -54 57 -82 57 -19 0 -101 64
-115 89 -7 14 4 16 98 16 115 0 138 11 80 40 -34 18 -128 103 -128 117 0 4 9
8 19 8 11 0 29 12 41 28 17 21 21 36 17 67 -9 63 -64 93 -118 64 -15 -7 -24
-7 -34 1 -16 14 -73 17 -97 6 -13 -6 -18 -4 -18 7 0 8 -43 57 -95 109 -52 52
-95 101 -95 109 0 10 20 15 78 17 42 2 82 8 87 13 11 12 -17 37 -101 94 -45
30 -156 156 -223 255 -31 45 -93 178 -89 191 2 5 46 -20 98 -56 52 -36 102
-65 111 -65 13 0 9 23 -25 141 l-41 142 103 97 c56 53 102 101 102 107 0 15
-74 30 -210 43 -77 8 -119 16 -126 26 -6 8 -30 82 -54 164 -24 83 -47 153 -52
156 -4 3 -11 -3 -15 -13z m32 -138 c29 -104 68 -207 79 -210 6 -2 70 -9 142
-15 72 -7 137 -16 144 -20 10 -6 0 -21 -36 -54 -27 -25 -52 -46 -56 -46 -3 0
-25 -23 -47 -51 -32 -40 -39 -55 -31 -69 12 -22 59 -204 55 -208 -5 -5 -80 46
-171 115 -39 29 -75 53 -81 53 -6 0 -60 -30 -119 -66 -60 -36 -124 -76 -143
-87 l-34 -20 7 39 c4 21 18 77 32 124 28 97 30 120 9 120 -14 0 -196 154 -203
172 -8 19 196 6 270 -18 13 -4 21 2 27 18 5 13 24 57 44 98 19 41 45 103 58
137 13 34 27 59 30 55 4 -4 14 -34 24 -67z m23 -555 c12 -12 22 -30 22 -41 0
-25 58 -151 94 -204 80 -117 184 -235 244 -274 34 -23 62 -46 62 -53 0 -8 -26
-9 -90 -5 -49 3 -90 2 -90 -2 0 -15 59 -89 129 -162 39 -41 71 -75 71 -76 0
-2 -11 -3 -25 -3 -14 0 -34 -5 -44 -12 -16 -10 -24 -7 -49 14 -36 30 -97 45
-118 27 -11 -9 -19 -8 -39 5 -31 20 -64 20 -93 0 -21 -14 -25 -14 -56 5 -38
24 -84 27 -111 7 -16 -11 -23 -10 -54 11 -32 22 -43 24 -97 20 -58 -6 -63 -4
-89 23 -16 17 -44 33 -62 36 l-33 6 60 64 c72 78 81 117 18 83 -23 -12 -138
-3 -138 12 0 4 24 24 53 43 149 97 330 316 352 426 6 30 37 69 56 70 3 0 15
-9 27 -20z m-522 -656 c45 -21 49 -61 11 -101 -46 -51 -130 -13 -120 55 5 32
35 62 61 62 8 0 29 -7 48 -16z m153 -70 c41 -24 53 -48 40 -80 -13 -35 -37
-53 -69 -54 -35 0 -47 10 -65 53 -14 34 -14 40 0 67 18 35 51 40 94 14z m191
-49 c53 -27 51 -107 -2 -133 -35 -17 -72 -2 -98 40 -30 49 -26 76 13 93 41 18
52 18 87 0z m179 -31 c37 -31 41 -74 11 -104 -24 -24 -41 -25 -79 -5 -46 23
-54 66 -20 109 26 33 49 33 88 0z m-489 -24 c16 -31 29 -42 61 -52 36 -10 46
-10 71 5 29 17 29 17 67 -23 32 -34 44 -40 78 -40 26 0 50 8 67 21 14 11 26
16 26 10 0 -17 56 -41 95 -41 22 0 43 8 56 21 20 20 22 20 56 4 20 -10 45 -14
59 -11 18 5 33 0 55 -18 39 -33 92 -43 122 -23 21 13 25 13 50 -9 30 -26 85
-32 104 -13 9 9 21 8 46 -5 45 -21 59 -20 91 5 25 20 26 20 26 1 0 -11 30 -50
66 -87 l66 -67 -79 5 c-43 3 -90 8 -105 12 -47 12 -34 -18 37 -88 62 -62 65
-66 54 -91 -9 -19 -17 -25 -28 -20 -9 4 -33 9 -53 12 -28 3 -41 -1 -55 -17
-15 -18 -25 -20 -65 -15 -44 6 -49 4 -79 -26 -28 -28 -35 -30 -56 -21 -39 18
-84 13 -119 -14 -19 -15 -35 -21 -39 -15 -11 18 -70 11 -93 -10 -12 -12 -22
-25 -22 -30 0 -17 -25 -11 -43 10 -21 25 -63 26 -104 1 -31 -19 -32 -19 -68
-1 -29 15 -42 16 -66 8 -17 -6 -33 -17 -36 -24 -7 -20 -21 -17 -53 10 -33 27
-66 25 -99 -5 -18 -17 -26 -18 -62 -9 -37 10 -45 9 -70 -9 -15 -12 -30 -17
-34 -12 -3 5 -21 15 -41 21 -32 11 -39 10 -64 -8 -27 -20 -27 -20 -56 -1 -36
23 -58 24 -95 2 -26 -16 -29 -16 -47 0 -10 9 -25 17 -34 17 -31 0 -27 15 14
57 41 41 40 55 -2 51 -8 -1 -33 0 -55 1 l-40 2 54 25 c84 39 210 127 279 194
35 34 61 64 58 67 -3 3 -30 -2 -59 -11 -35 -11 -78 -16 -121 -14 l-67 3 88 62
c102 72 223 187 223 212 0 16 8 31 16 31 2 0 13 -18 24 -40z m789 -6 c24 -20
31 -34 31 -63 0 -20 -5 -42 -12 -49 -19 -19 -65 -14 -95 12 -22 19 -27 31 -26
65 1 23 5 46 8 51 12 19 63 10 94 -16z m459 -602 c30 4 41 -1 72 -31 19 -20
74 -58 120 -86 87 -51 89 -64 9 -46 -24 6 -47 7 -51 3 -13 -13 80 -99 159
-149 l74 -47 -33 -12 c-18 -7 -63 -13 -100 -13 -38 -1 -68 -5 -68 -11 0 -5 3
-10 8 -10 4 0 13 -13 20 -29 7 -16 52 -67 101 -114 73 -70 105 -93 189 -133
55 -27 101 -52 101 -56 2 -17 -93 -20 -148 -5 -30 9 -58 13 -60 11 -17 -17 97
-113 202 -171 37 -20 67 -41 67 -45 0 -15 -56 -23 -152 -22 -54 0 -98 -2 -98
-5 0 -7 20 -29 104 -115 74 -75 76 -79 60 -97 -16 -17 -19 -18 -40 -5 -24 16
-94 11 -106 -7 -4 -7 -18 -4 -40 6 -33 15 -82 13 -105 -5 -8 -6 -19 -2 -32 11
-22 22 -84 29 -110 12 -8 -5 -24 -3 -40 5 -41 22 -87 18 -106 -8 l-16 -23 -17
21 c-38 48 -84 53 -121 12 l-19 -20 -21 21 c-26 26 -66 27 -114 1 -28 -15 -37
-17 -37 -7 0 15 -41 37 -68 37 -9 0 -29 -14 -43 -32 l-26 -31 -31 21 c-32 24
-100 30 -119 11 -8 -8 -22 -3 -52 16 -33 22 -48 26 -78 22 -20 -4 -43 -13 -51
-21 -13 -13 -20 -11 -53 11 -32 21 -46 24 -80 19 -22 -4 -51 -14 -65 -22 -22
-15 -25 -15 -55 10 -37 32 -89 34 -142 7 l-38 -19 -26 24 c-29 27 -78 32 -132
13 -26 -9 -34 -9 -44 3 -37 46 -114 63 -153 33 -27 -21 -42 -18 -67 11 -30 34
-99 50 -138 30 -25 -12 -29 -12 -29 0 0 7 -19 28 -42 45 -34 24 -51 30 -84 28
-33 -2 -48 3 -74 24 -37 32 -126 41 -155 17 -6 -5 -24 -6 -41 -1 l-29 8 25 13
c44 23 100 71 94 81 -3 5 -27 7 -55 3 -27 -4 -49 -4 -49 -1 0 3 24 19 53 36
28 16 62 39 74 50 12 12 34 21 48 21 39 0 79 24 106 64 20 30 30 36 61 36 68
0 99 72 57 132 l-21 29 44 45 c48 48 75 90 65 100 -3 4 -20 1 -38 -5 -37 -13
-179 -15 -179 -3 0 10 134 92 149 92 6 0 26 8 45 17 33 15 37 15 53 1 29 -27
70 -32 98 -14 23 15 28 15 47 1 31 -21 85 -19 105 4 16 20 17 20 41 0 32 -25
82 -24 114 1 25 19 26 19 43 0 24 -26 75 -26 108 1 21 16 31 18 46 10 33 -18
71 -12 98 15 25 25 27 26 54 10 36 -22 61 -20 93 5 l27 21 23 -21 c33 -31 79
-28 109 8 24 29 25 29 43 11 11 -10 36 -22 56 -25 34 -7 41 -4 74 29 33 33 37
35 57 21 31 -22 73 -19 97 7 11 12 20 26 20 31 0 5 11 2 25 -7 40 -26 89 -21
118 14 23 27 29 29 70 24 37 -5 48 -3 66 15 11 11 21 28 21 36 0 13 4 14 21 4
12 -6 37 -9 57 -7z m-1793 -64 c23 -10 26 -17 23 -52 -3 -36 -8 -44 -40 -61
-36 -19 -39 -19 -65 -3 -16 9 -36 27 -47 41 -15 21 -16 28 -6 48 7 13 18 27
24 31 17 12 82 9 111 -4z m-215 -438 c22 -22 40 -61 40 -87 0 -28 -65 -83 -99
-83 -55 0 -87 78 -60 147 5 15 16 31 22 35 24 15 77 8 97 -12z m-46 -449 c16
-17 17 -22 5 -55 -17 -47 -38 -65 -83 -73 -49 -8 -86 17 -86 58 0 38 24 86 47
93 32 8 98 -4 117 -23z m162 -54 c22 -19 25 -28 20 -54 -9 -39 -24 -52 -70
-60 -25 -4 -44 0 -62 12 -23 15 -26 22 -21 56 3 22 11 46 17 54 19 23 85 19
116 -8z m169 -53 c35 -9 57 -47 45 -79 -13 -33 -57 -51 -79 -31 -9 7 -26 17
-38 20 -24 8 -39 45 -29 71 7 18 45 36 64 29 8 -2 24 -7 37 -10z m-241 -94
c37 0 75 14 87 33 10 14 29 -1 29 -24 0 -12 10 -23 28 -29 15 -6 35 -15 44
-20 26 -15 71 -12 94 5 24 18 34 19 34 1 0 -22 59 -66 88 -66 15 0 42 9 60 20
l33 20 30 -35 c26 -29 38 -35 70 -35 21 0 54 8 73 17 35 16 36 16 60 -10 36
-39 89 -37 146 5 28 19 45 27 48 19 13 -40 106 -57 152 -29 16 10 22 9 38 -7
10 -11 35 -29 56 -40 l37 -20 49 27 c47 26 48 26 65 8 10 -11 33 -24 52 -31
35 -11 36 -11 99 36 9 6 19 4 32 -8 24 -22 74 -22 98 1 18 18 20 18 49 0 44
-27 82 -23 114 11 l27 29 22 -25 c25 -28 56 -26 102 7 25 18 26 18 49 -6 25
-26 65 -31 105 -13 19 9 29 8 47 -5 30 -20 53 -20 84 0 23 15 26 15 51 -5 28
-22 88 -29 99 -11 8 12 45 13 45 1 0 -5 14 -14 31 -21 27 -12 33 -11 61 10 25
19 35 21 49 11 30 -18 56 -13 93 19 33 30 35 30 41 10 4 -12 19 -26 33 -33 15
-6 61 -43 102 -81 41 -38 101 -86 134 -107 l58 -39 -28 -11 c-41 -17 -163 -24
-177 -10 -14 14 -37 14 -37 0 0 -19 64 -109 130 -183 l61 -68 -25 -27 c-14
-15 -26 -31 -26 -37 0 -5 -26 -9 -57 -10 -69 0 -114 -21 -140 -64 -14 -24 -23
-30 -38 -25 -69 22 -89 23 -116 10 -15 -8 -29 -20 -31 -26 -3 -8 -13 -7 -35 5
-41 21 -50 20 -98 -4 -33 -17 -44 -18 -76 -8 -32 9 -42 8 -64 -6 -19 -12 -35
-15 -53 -10 -33 9 -91 5 -115 -7 -11 -7 -32 -5 -62 6 -40 13 -50 13 -79 1 -19
-8 -37 -19 -40 -25 -5 -8 -16 -6 -36 4 -44 23 -73 18 -105 -15 l-28 -30 -33
21 c-29 17 -39 19 -73 9 -22 -6 -43 -15 -46 -21 -4 -6 -16 0 -30 15 -34 36
-86 43 -130 17 -34 -19 -38 -20 -60 -5 -29 19 -83 13 -123 -14 -22 -14 -25
-14 -33 0 -14 25 -61 31 -113 13 -45 -15 -48 -15 -73 5 -35 27 -96 27 -135 -1
-18 -13 -33 -18 -37 -12 -23 37 -123 45 -163 13 -22 -17 -27 -18 -44 -5 -39
30 -138 13 -174 -30 -12 -14 -15 -14 -32 2 -26 24 -136 30 -163 9 -18 -13 -22
-13 -46 10 -21 20 -38 25 -83 27 -54 2 -59 0 -91 -35 -28 -30 -35 -34 -40 -20
-9 30 -68 62 -114 62 -41 0 -101 -25 -101 -43 0 -4 -20 4 -43 18 -24 14 -59
25 -78 25 -41 0 -95 -31 -104 -59 -6 -20 -7 -20 -45 4 -48 30 -98 32 -133 5
-24 -19 -31 -20 -67 -9 -31 9 -49 9 -79 0 -35 -10 -47 -21 -86 -79 -5 -7 -105
-18 -105 -12 0 4 28 26 63 50 64 44 147 118 147 132 0 4 -48 4 -107 1 -73 -4
-104 -3 -100 4 4 6 53 39 109 73 176 105 298 202 298 236 0 17 -8 17 -64 3
-23 -6 -60 -9 -81 -7 l-39 3 91 58 c104 65 203 144 203 161 0 8 -36 12 -112
13 -61 1 -115 6 -120 11 -5 5 32 30 82 58 103 55 200 127 200 148 0 11 -15 13
-67 10 l-68 -4 70 28 c89 36 111 48 156 83 32 25 43 28 80 23 28 -4 57 -1 79
8 34 14 35 14 66 -19 25 -26 39 -33 68 -33z m470 49 c40 -32 31 -80 -21 -107
-34 -18 -62 -14 -88 13 -30 30 -31 54 -4 89 26 33 75 35 113 5z m202 -36 c19
-25 17 -73 -3 -95 -11 -12 -30 -18 -59 -18 -34 0 -47 5 -63 27 -39 48 -3 103
67 103 31 0 49 -5 58 -17z m202 -9 c31 -21 28 -60 -8 -95 -25 -25 -36 -30 -71
-27 -32 2 -47 10 -61 29 -19 25 -19 28 -3 58 25 50 97 67 143 35z m200 -6 c7
-7 12 -29 12 -50 0 -45 -19 -58 -84 -58 -51 0 -71 21 -60 65 11 44 101 74 132
43z m196 -23 c34 -31 34 -69 0 -100 -36 -34 -58 -39 -93 -20 -60 31 -69 91
-18 124 43 27 78 26 111 -4z m145 -10 c32 -16 41 -33 41 -76 0 -21 -7 -32 -28
-43 -26 -13 -33 -13 -63 2 -25 12 -35 25 -37 46 -5 41 5 74 26 79 29 8 32 7
61 -8z m1632 -694 c33 -34 37 -69 11 -102 -41 -50 -111 -19 -127 56 -5 24 -1
34 20 53 35 30 61 28 96 -7z m-173 -67 c27 -19 29 -60 3 -93 -15 -19 -27 -23
-66 -23 -49 1 -69 12 -86 44 -29 54 92 112 149 72z m72 -63 c0 -5 13 -14 29
-20 23 -10 35 -9 65 3 l37 16 67 -68 c37 -37 91 -83 119 -102 29 -19 53 -38
53 -41 1 -32 -404 -19 -458 15 -29 18 -8 -28 39 -84 l51 -62 -25 -26 c-54 -58
-53 -162 2 -201 85 -59 180 -54 245 12 17 16 21 15 79 -38 33 -31 89 -75 124
-98 34 -23 63 -45 63 -49 0 -16 -203 35 -289 73 -49 21 -81 25 -81 8 0 -7 32
-43 70 -80 39 -38 70 -71 70 -73 0 -7 -95 14 -155 34 -33 11 -103 42 -157 69
-90 46 -108 51 -108 29 0 -14 90 -107 135 -141 l40 -30 -53 7 c-72 9 -228 67
-321 119 -96 53 -91 52 -91 32 0 -26 68 -126 128 -188 l57 -59 -35 7 c-114 23
-326 117 -443 196 -100 68 -97 29 6 -78 56 -58 58 -63 35 -63 -43 0 -210 46
-279 78 -36 16 -103 53 -149 81 -46 29 -87 48 -92 43 -8 -8 22 -58 86 -144 20
-27 34 -48 32 -48 -2 0 -33 7 -68 16 -177 44 -395 145 -469 216 -57 56 -80 53
-241 -25 -155 -76 -265 -118 -367 -141 -126 -29 -128 -26 -42 59 63 61 74 76
63 87 -11 11 -16 10 -26 -4 -7 -10 -16 -18 -19 -18 -4 0 -30 -11 -59 -24 -81
-36 -198 -70 -198 -58 0 4 14 21 31 37 58 56 128 175 104 175 -3 0 -33 -23
-67 -51 -35 -28 -107 -73 -161 -100 -102 -52 -252 -111 -261 -102 -2 3 11 25
30 50 33 44 52 89 41 100 -3 3 -45 -18 -94 -46 -95 -54 -144 -74 -211 -86
l-43 -7 43 44 c46 46 76 94 65 104 -3 4 -32 -6 -64 -21 -68 -33 -214 -87 -219
-82 -2 2 16 17 40 34 50 36 131 137 121 153 -4 7 -15 6 -33 -4 -84 -42 -339
-107 -497 -127 -121 -16 -423 -17 -448 -3 -16 9 -14 13 21 36 121 81 280 254
339 372 14 28 26 52 28 54 1 1 22 -7 46 -18 61 -27 86 -25 121 11 21 21 33 27
38 19 4 -7 28 -14 53 -17 41 -5 49 -2 77 25 16 17 30 38 30 46 0 25 13 18 35
-17 38 -59 133 -59 172 0 l16 24 33 -32 c61 -59 169 -47 199 23 l13 32 16 -32
c32 -62 96 -74 158 -30 l28 19 22 -26 c41 -47 147 -44 182 7 13 18 15 18 57
-7 56 -31 87 -31 133 0 34 23 39 24 59 10 32 -23 109 -19 141 6 l27 21 22 -20
c34 -31 76 -36 122 -12 24 12 41 16 43 10 5 -15 57 -40 83 -40 12 0 39 10 60
22 35 19 40 20 56 6 30 -26 66 -29 100 -8 32 19 32 19 70 -2 45 -25 102 -19
134 13 20 20 39 25 39 11 0 -12 46 -32 74 -32 13 0 34 8 47 19 20 16 26 16 48
5 37 -20 79 -17 118 7 34 21 35 21 75 3 40 -18 41 -18 80 5 38 22 41 22 74 6
37 -17 63 -14 104 15 22 16 28 16 45 4 27 -20 68 -17 98 6 25 20 28 20 57 5
39 -20 83 -12 109 21 18 23 20 23 47 9 52 -27 105 -11 126 36 17 38 35 43 65
19 18 -14 41 -20 77 -20 59 0 88 16 106 60 12 28 30 41 30 21z m-2156 -63 c53
-24 38 -92 -26 -116 -51 -20 -92 0 -96 46 -6 63 58 100 122 70z m179 1 c29
-16 37 -28 37 -60 0 -32 -26 -57 -67 -65 -26 -5 -37 -1 -57 19 -35 35 -33 60
7 91 36 29 49 31 80 15z m-1238 -19 c37 -41 -4 -120 -63 -120 -54 0 -103 61
-82 101 22 41 114 53 145 19z m209 9 c13 -7 30 -24 36 -39 32 -78 -86 -125
-151 -61 -36 36 -37 63 -3 90 29 23 80 27 118 10z m215 -5 c19 -14 25 -14 31
-3 7 10 12 6 21 -14 10 -22 9 -30 -5 -52 -25 -39 -79 -61 -111 -47 -54 25 -59
102 -8 120 39 15 46 14 72 -4z m1368 -10 c51 -70 -66 -155 -128 -93 -25 25
-18 75 14 102 27 22 95 17 114 -9z m-910 8 c7 -4 15 -22 19 -38 5 -26 1 -35
-26 -57 -36 -31 -68 -34 -110 -12 -38 20 -42 67 -7 96 23 19 100 26 124 11z
m559 -9 c46 -61 -37 -140 -107 -103 -14 8 -19 21 -19 51 0 36 4 42 33 54 44
19 77 18 93 -2z m-780 -16 c34 -30 28 -69 -16 -92 -61 -31 -130 -8 -130 43 0
35 10 49 40 61 42 16 77 12 106 -12z m-1050 -28 c23 -19 13 -69 -18 -92 -24
-18 -32 -19 -68 -8 -47 14 -79 54 -63 80 25 40 111 52 149 20z m3798 -249 c29
-36 43 -92 30 -129 -14 -37 -69 -71 -118 -71 -63 0 -128 37 -139 78 -11 45 7
95 44 127 26 21 41 25 94 25 58 0 65 -2 89 -30z m-1865 -274 l26 -25 -8 -173
c-6 -110 -13 -175 -20 -180 -15 -9 -401 -8 -416 1 -8 5 -11 43 -9 125 l3 118
86 37 c47 21 123 56 170 78 99 49 133 53 168 19z m-931 -209 c24 -19 9 -98
-22 -119 -24 -17 -65 -8 -85 18 -35 44 -26 89 22 109 30 13 62 10 85 -8z
m-1078 -29 c28 -30 26 -83 -4 -113 -34 -34 -71 -41 -113 -21 -34 16 -35 18
-29 59 8 49 28 74 70 86 47 14 54 13 76 -11z m3834 -104 c3 -9 6 -37 6 -64 0
-41 -4 -52 -27 -70 -43 -34 -104 -15 -124 38 -12 32 15 88 49 101 43 15 89 13
96 -5z m-1008 -71 c25 -34 17 -80 -22 -123 -42 -46 -86 -54 -122 -20 -26 24
-27 39 -8 85 25 58 123 96 152 58z m-1201 -2 c-6 -5 -50 -36 -98 -69 l-88 -60
-92 46 c-51 26 -108 54 -127 62 -34 14 -32 15 85 20 210 10 330 11 320 1z
m470 0 c-82 -75 -153 -131 -168 -131 -22 0 -208 102 -227 125 -11 13 10 15
196 15 120 0 204 -4 199 -9z m333 -6 c2 -2 1 -17 -3 -34 -5 -24 -22 -42 -66
-71 l-59 -40 -75 61 c-41 33 -80 69 -86 80 -10 20 -8 20 138 13 81 -3 150 -8
151 -9z m-1053 -119 c75 -42 64 -45 192 46 46 33 90 57 97 55 8 -3 69 -37 137
-76 67 -39 126 -71 130 -71 5 0 36 24 69 53 119 101 103 95 148 56 94 -82 141
-119 152 -119 6 0 32 14 57 31 l45 31 -7 -33 c-4 -19 -16 -62 -27 -96 -17 -56
-23 -63 -46 -65 -15 0 -31 -2 -37 -3 -71 -12 -405 -14 -610 -4 -137 7 -296 11
-352 10 -88 -1 -103 1 -111 16 -13 25 -62 221 -62 249 l0 22 80 -33 c44 -18
109 -49 145 -69z m95 -246 c49 -69 -35 -134 -104 -79 -50 40 -23 109 44 109
32 0 43 -6 60 -30z m215 20 c3 -5 2 -10 -4 -10 -19 0 -24 -68 -7 -95 9 -13 16
-27 16 -30 0 -7 -106 -6 -152 1 l-37 6 6 48 c3 27 1 56 -6 68 -12 22 -11 22
83 22 52 0 98 -4 101 -10z m644 -7 c0 -10 -8 -40 -18 -68 l-18 -50 -57 -5
c-61 -6 -70 -3 -55 20 12 19 11 71 -1 90 -11 18 18 27 98 29 44 1 52 -2 51
-16z m-293 -15 c-18 -25 -21 -84 -6 -93 29 -18 0 -25 -101 -25 l-110 0 20 26
c22 28 28 78 11 89 -29 18 0 25 96 25 l105 0 -15 -22z m243 -144 c2 -2 -8 -43
-22 -91 -14 -49 -29 -102 -32 -119 -4 -21 -13 -34 -28 -38 -29 -8 -736 -6
-811 3 l-60 6 -27 104 c-15 58 -30 114 -33 125 l-5 21 507 -3 c279 -2 509 -5
511 -8z m-81 -289 c2 -2 -4 -20 -13 -39 l-18 -37 -71 6 c-39 3 -217 10 -396
15 -315 9 -326 10 -342 31 -10 12 -18 26 -18 31 0 8 849 1 858 -7z"/>
<path d="M2301 5103 c-18 -7 -47 -37 -60 -62 -22 -40 7 -99 61 -127 41 -21 64
-17 92 17 49 58 47 111 -6 145 -38 26 -67 34 -87 27z m77 -55 c28 -27 28 -65
0 -95 -29 -31 -54 -29 -89 6 -35 35 -37 66 -7 98 26 28 59 24 96 -9z"/>
<path d="M1959 4379 c-43 -47 -54 -81 -44 -142 21 -133 144 -178 238 -89 41
38 57 74 57 125 0 81 -72 146 -164 147 -45 0 -52 -4 -87 -41z m166 -9 c73 -45
82 -133 19 -195 -82 -82 -172 -55 -203 62 -13 49 -3 84 37 126 33 34 98 37
147 7z"/>
<path d="M2615 4370 c-3 -5 1 -22 9 -38 15 -28 14 -29 -24 -58 -22 -16 -40
-34 -40 -40 0 -6 21 -17 46 -24 41 -12 48 -18 66 -59 18 -41 21 -44 32 -27 6
10 19 28 28 40 16 20 18 21 48 4 66 -37 87 -15 54 56 -16 32 -16 37 0 75 23
60 22 62 -37 55 -35 -4 -70 -1 -106 10 -64 19 -68 19 -76 6z m88 -44 c11 -9
33 -12 62 -8 49 5 50 4 34 -31 -8 -18 -7 -32 5 -60 17 -42 7 -48 -33 -20 -23
16 -25 15 -48 -11 -13 -16 -25 -27 -27 -25 -2 2 -8 14 -15 26 -6 12 -24 24
-41 28 -38 8 -38 18 0 45 24 17 29 26 24 46 -7 27 10 32 39 10z"/>
<path d="M1795 4146 c-17 -40 -10 -70 24 -100 18 -16 25 -17 46 -8 36 17 51
54 39 100 -8 35 -12 37 -52 40 -40 3 -43 1 -57 -32z"/>
<path d="M2822 3840 c-35 -15 -48 -54 -33 -97 13 -35 13 -37 -18 -62 -40 -34
-48 -76 -22 -118 23 -37 61 -44 109 -19 28 14 82 73 82 88 0 24 30 0 65 -54
44 -67 69 -83 106 -64 35 17 37 59 5 97 -36 43 -35 81 4 96 76 28 38 113 -50
113 -27 0 -71 -38 -82 -71 -6 -19 -28 -1 -28 22 0 11 -13 34 -29 50 -31 30
-65 36 -109 19z m86 -33 c6 -7 17 -31 24 -53 10 -31 19 -40 40 -42 22 -3 30 4
49 37 20 37 27 41 60 41 27 0 41 -5 48 -19 12 -21 1 -34 -36 -45 -43 -14 -42
-73 4 -133 24 -31 25 -35 10 -50 -24 -24 -42 -10 -92 67 -25 38 -51 70 -59 70
-8 0 -23 -15 -34 -32 -26 -42 -71 -84 -98 -92 -26 -8 -51 14 -60 50 -7 27 27
74 54 74 14 0 14 24 -4 94 -5 19 -2 31 7 37 21 13 75 11 87 -4z"/>
<path d="M2106 3608 c-20 -31 -30 -91 -22 -132 5 -25 16 -41 40 -55 50 -31 74
-27 122 23 l42 45 16 -25 c22 -32 59 -31 85 2 26 33 27 66 3 87 -25 23 -61 21
-89 -5 -19 -17 -23 -19 -23 -5 0 8 -15 32 -34 51 -29 31 -40 36 -79 36 -37 0
-49 -5 -61 -22z m113 -24 c25 -21 31 -33 31 -65 0 -73 -74 -115 -120 -69 -37
37 -20 144 24 153 11 2 24 5 28 6 3 0 20 -11 37 -25z"/>
<path d="M3053 3379 c-36 -23 -65 -85 -56 -120 3 -13 15 -36 25 -51 21 -31 66
-37 112 -17 25 12 56 63 56 94 0 32 -33 86 -61 100 -36 19 -38 19 -76 -6z m87
-41 c34 -57 23 -108 -29 -126 -37 -13 -72 4 -85 40 -14 40 18 106 53 111 14 2
29 5 34 6 4 0 16 -14 27 -31z"/>
<path d="M1726 3335 c-33 -31 -46 -64 -46 -120 0 -40 -2 -44 -29 -50 -35 -8
-49 -22 -57 -61 -7 -34 26 -84 56 -84 35 0 86 30 134 79 27 27 53 48 57 46 4
-3 21 -29 37 -59 50 -87 101 -115 147 -80 19 14 19 15 -9 65 -31 56 -30 99 4
99 24 0 50 36 50 70 0 15 -11 36 -24 49 -22 21 -28 22 -59 12 -19 -6 -52 -27
-75 -46 l-41 -35 -15 22 c-9 12 -16 29 -16 38 0 8 -9 30 -20 48 -24 39 -56 42
-94 7z m77 -40 c32 -107 61 -118 137 -54 60 50 93 51 98 2 3 -27 -2 -34 -27
-48 -42 -21 -52 -44 -40 -88 5 -20 14 -39 19 -42 18 -11 11 -45 -8 -45 -22 0
-51 31 -78 80 -46 86 -62 88 -129 20 -61 -62 -120 -85 -142 -55 -27 38 -12 63
50 85 25 9 27 13 27 66 0 41 6 64 21 86 27 38 60 35 72 -7z"/>
<path d="M2696 3249 c-10 -28 -25 -53 -33 -56 -9 -3 -39 1 -67 11 -29 9 -56
16 -59 16 -15 0 -5 -29 23 -68 36 -50 35 -48 10 -107 -24 -56 -19 -70 18 -51
61 31 85 29 136 -10 26 -20 49 -34 50 -32 1 1 7 25 12 52 8 45 14 53 53 76 25
14 46 30 47 35 2 6 -24 26 -58 45 -57 33 -63 39 -76 88 -8 28 -20 52 -26 52
-7 0 -20 -23 -30 -51z m95 -105 c44 -24 56 -44 27 -44 -24 0 -58 -44 -58 -73
l0 -29 -36 27 c-33 26 -40 27 -80 18 -49 -11 -49 -12 -32 32 10 29 8 36 -18
70 l-29 39 25 -8 c14 -4 41 -9 60 -12 33 -6 36 -4 54 38 l19 43 10 -37 c7 -31
18 -43 58 -64z"/>
<path d="M3125 3146 c-44 -20 -66 -52 -67 -98 -2 -126 172 -153 212 -33 27 81
-68 165 -145 131z m82 -36 c74 -45 42 -150 -46 -150 -30 0 -70 41 -77 77 -5
27 -1 37 24 63 36 35 55 37 99 10z"/>
<path d="M1105 2660 c-11 -4 -31 -19 -44 -33 -20 -22 -23 -33 -19 -77 6 -60
35 -97 85 -106 47 -9 76 1 117 40 31 29 36 40 36 78 0 46 -17 71 -67 97 -25
13 -79 14 -108 1z m137 -50 c26 -32 22 -64 -13 -105 -27 -30 -37 -35 -75 -35
-62 0 -86 28 -82 95 3 41 7 52 28 63 38 20 120 10 142 -18z"/>
<path d="M1876 2595 c-22 -21 -26 -32 -26 -82 l0 -57 -37 36 c-44 43 -79 58
-133 58 -29 0 -42 -5 -50 -19 -17 -33 -12 -48 35 -101 25 -28 45 -57 45 -64 0
-8 -12 -37 -26 -64 -16 -31 -23 -58 -20 -70 7 -22 55 -46 82 -40 23 4 61 70
69 121 12 68 51 84 122 48 61 -31 103 -35 140 -12 41 26 51 62 29 108 l-17 35
-61 -7 -61 -7 8 38 c4 22 7 47 7 57 -2 50 -62 63 -106 22z m80 -20 c3 -8 1
-30 -6 -49 -8 -27 -8 -40 0 -57 11 -19 17 -21 71 -15 57 7 59 6 71 -20 11 -24
10 -29 -15 -50 -36 -30 -69 -30 -132 1 -92 45 -128 29 -152 -67 -19 -74 -38
-100 -71 -96 -37 4 -40 37 -8 85 14 21 26 44 26 51 0 18 -38 72 -67 95 -24 20
-31 66 -10 68 29 3 74 -4 92 -13 30 -16 75 -60 69 -69 -2 -4 1 -11 7 -15 23
-14 49 35 49 92 0 40 4 56 18 63 25 15 52 13 58 -4z"/>
<path d="M3208 2573 c-36 -36 -38 -36 -83 -26 -29 7 -48 7 -52 1 -3 -6 7 -37
23 -70 l29 -60 -49 -43 c-58 -50 -52 -58 41 -53 l66 3 16 -48 c9 -27 20 -49
26 -49 5 0 21 29 35 63 20 52 35 71 78 103 28 21 52 44 52 51 0 7 -15 16 -33
19 -51 10 -68 27 -81 86 -7 30 -17 55 -22 57 -5 2 -26 -13 -46 -34z m48 -51
c8 -47 18 -59 55 -67 45 -10 44 -23 -5 -53 -32 -19 -49 -37 -57 -62 -18 -54
-22 -56 -34 -20 -11 34 -12 34 -66 32 l-54 -3 33 31 32 30 -26 51 c-28 57 -26
69 11 49 24 -13 27 -12 56 23 17 21 35 35 39 32 5 -3 12 -22 16 -43z"/>
<path d="M3684 2506 c-89 -42 -116 -104 -74 -173 20 -33 31 -37 95 -34 45 3
70 19 95 63 33 59 32 114 -3 144 -35 30 -49 30 -113 0z m91 -22 c29 -19 31
-39 9 -94 -37 -91 -164 -94 -164 -4 0 48 14 70 58 93 46 25 66 26 97 5z"/>
<path d="M2599 2355 c-30 -16 -54 -66 -51 -104 2 -29 41 -68 77 -77 33 -8 93
23 110 57 49 94 -41 176 -136 124z m99 -21 c15 -10 22 -25 22 -47 0 -45 -24
-75 -66 -83 -28 -5 -40 -2 -60 17 -28 26 -30 39 -8 80 23 46 73 61 112 33z"/>
<path d="M956 2292 c-3 -20 -6 -48 -6 -62 0 -21 -11 -32 -52 -55 -28 -17 -53
-35 -55 -41 -2 -7 20 -14 57 -17 84 -9 96 -18 104 -72 4 -25 9 -45 11 -45 3 0
39 23 81 50 65 43 84 50 125 50 27 0 49 4 49 9 0 6 -20 24 -45 42 -25 18 -45
34 -45 35 0 2 12 24 26 50 14 25 23 48 20 51 -3 3 -32 -2 -64 -11 -78 -21 -86
-21 -135 12 -23 16 -47 32 -53 35 -7 4 -14 -7 -18 -31z m75 -42 l36 -29 51 16
c29 9 54 14 58 10 3 -3 -3 -19 -15 -36 l-21 -29 30 -22 c37 -26 38 -40 5 -40
-14 0 -45 -16 -71 -35 -56 -43 -73 -44 -81 -5 -7 36 -14 42 -73 56 l-45 10 38
19 c35 18 37 21 37 67 0 26 3 48 8 48 4 0 24 -13 43 -30z"/>
<path d="M2394 2250 c-28 -11 -54 -48 -54 -76 0 -30 45 -64 84 -64 37 0 73 29
82 66 12 47 -61 95 -112 74z"/>
<path d="M3620 1712 c-19 -19 -32 -45 -36 -71 -4 -23 -11 -41 -17 -41 -6 0
-31 10 -55 22 -55 26 -129 29 -147 5 -19 -27 -6 -65 30 -87 39 -24 45 -37 45
-96 0 -39 3 -44 26 -50 40 -10 71 11 99 65 14 28 36 58 49 66 23 15 27 14 74
-12 l51 -28 28 21 c53 40 56 105 4 112 -19 3 -21 8 -16 36 8 42 -17 72 -68 81
-33 5 -41 2 -67 -23z m98 -18 c9 -2 10 -15 6 -44 -6 -39 -5 -41 25 -53 33 -12
39 -31 17 -59 -18 -24 -27 -23 -85 10 l-50 27 -28 -21 c-15 -11 -42 -45 -58
-75 -24 -43 -36 -54 -55 -54 -22 0 -25 4 -23 30 4 44 -13 77 -52 104 -40 27
-43 36 -15 51 23 12 87 0 121 -24 48 -33 89 -15 89 40 0 17 9 43 21 58 20 26
33 27 87 10z"/>
<path d="M1518 1665 c-20 -14 -42 -33 -47 -43 -9 -15 -12 -15 -33 10 -29 34
-59 48 -98 48 -74 0 -94 -50 -40 -100 29 -27 30 -29 15 -64 -19 -45 -19 -61 1
-80 26 -27 54 -18 104 34 27 28 54 50 62 50 8 0 29 -11 48 -25 47 -35 93 -33
131 4 37 37 41 88 7 93 -19 2 -23 9 -23 41 0 22 -7 42 -15 47 -27 17 -75 10
-112 -15z m-120 -32 c13 -8 28 -25 34 -39 6 -13 16 -24 21 -24 6 0 30 21 54
46 37 38 49 45 76 42 31 -3 32 -4 29 -45 -3 -38 -1 -43 18 -43 31 0 38 -30 11
-52 -31 -25 -59 -23 -103 7 -54 36 -75 32 -131 -26 -54 -56 -85 -61 -73 -11
19 73 18 79 -8 107 -31 33 -32 41 -8 54 19 11 45 6 80 -16z"/>
<path d="M2526 1682 c-3 -5 -1 -24 4 -41 12 -44 6 -56 -52 -91 -28 -17 -47
-34 -43 -38 3 -4 29 -12 57 -17 47 -9 52 -13 65 -50 20 -58 28 -62 59 -26 l27
32 73 -6 c87 -9 94 1 39 55 -19 19 -35 39 -35 46 0 7 14 24 30 37 17 14 30 30
30 36 0 19 -64 23 -103 6 l-39 -16 -41 34 c-55 44 -65 49 -71 39z m69 -81 c8
-18 16 -21 38 -17 15 3 42 9 60 12 l32 7 -22 -25 c-29 -31 -29 -39 2 -68 14
-13 25 -26 25 -29 0 -3 -23 -4 -51 -2 -43 2 -53 0 -65 -18 -21 -29 -30 -26
-40 11 -7 25 -17 33 -49 42 l-39 11 37 22 c30 18 37 28 37 53 0 36 19 37 35 1z"/>
</g>
</svg>
