<?xml version="1.0" standalone="no"?>
<!DOCTYPE svg PUBLIC "-//W3C//DTD SVG 20010904//EN"
 "http://www.w3.org/TR/2001/REC-SVG-20010904/DTD/svg10.dtd">
<svg version="1.0" xmlns="http://www.w3.org/2000/svg"
 width="653.000000pt" height="653.000000pt" viewBox="0 0 653.000000 653.000000"
 preserveAspectRatio="xMidYMid meet">
<metadata>
Created by potrace 1.16, written by Peter Selinger 2001-2019
</metadata>
<g transform="translate(0.000000,653.000000) scale(0.100000,-0.100000)"
fill="#000000" stroke="none">
<path d="M17 4599 c-4 -1057 -7 -2519 -7 -3249 l0 -1327 1928 -6 c1060 -4
2521 -7 3248 -7 l1321 0 7 3246 c4 1786 6 3247 4 3249 -2 1 -1464 5 -3249 9
l-3246 7 -6 -1922z m5589 1685 c15 -23 16 -36 6 -109 -6 -45 -8 -93 -6 -106 5
-20 4 -21 -6 -9 -10 12 -11 11 -7 -8 3 -12 1 -20 -3 -17 -5 3 -14 -4 -20 -15
-6 -11 -18 -20 -27 -20 -13 0 -13 -3 -3 -15 11 -13 10 -14 -1 -10 -47 19 -69
103 -49 195 6 30 12 64 13 75 3 26 43 65 67 65 11 0 27 -12 36 -26z m-444 -34
c16 -22 24 -27 31 -18 5 8 6 4 2 -11 -6 -19 -4 -23 8 -18 11 4 14 2 11 -8 -3
-7 5 -37 17 -65 12 -29 23 -71 23 -94 1 -36 -2 -41 -23 -44 -53 -8 -141 119
-141 205 0 28 3 58 6 67 10 25 42 19 66 -14z m828 -200 c30 -30 25 -49 -26
-98 -82 -78 -168 -101 -194 -51 -10 17 -5 27 39 71 28 28 51 48 51 44 0 -5 15
3 33 16 30 24 53 35 70 37 4 1 16 -8 27 -19z m-1066 -35 c20 -9 42 -13 48 -9
6 4 8 3 5 -2 -3 -6 7 -15 23 -22 41 -19 110 -88 110 -112 0 -37 -40 -45 -101
-19 -59 25 -115 62 -140 92 -10 13 -21 17 -29 12 -9 -6 -11 -4 -5 5 4 7 3 15
-2 19 -7 3 -7 15 -2 29 10 26 40 29 93 7z m486 -34 c14 -27 13 -61 -4 -93 -8
-15 -10 -29 -5 -32 5 -2 4 -3 -3 -2 -19 4 -69 -34 -62 -46 4 -7 2 -8 -5 -4
-30 19 -111 -133 -111 -208 0 -47 46 -140 66 -132 8 3 13 2 10 -3 -3 -5 7 -17
22 -27 41 -27 163 -26 222 3 44 22 110 74 110 87 0 4 11 24 25 45 18 26 27 57
31 102 7 72 -4 92 -64 123 -53 27 -143 3 -196 -53 -25 -26 -28 -35 -23 -67 6
-38 23 -57 41 -47 5 3 6 1 2 -5 -4 -7 -1 -12 8 -12 19 0 20 4 2 38 -16 31 -5
72 19 72 8 0 15 4 15 9 0 17 64 1 97 -24 27 -21 33 -33 33 -62 0 -47 -40 -115
-84 -142 -44 -28 -155 -30 -179 -3 -33 37 -67 116 -67 156 0 48 30 119 57 135
10 6 14 11 10 11 -5 0 12 17 36 38 73 62 85 71 89 67 2 -2 30 3 63 10 43 10
61 11 66 3 4 -6 16 -8 28 -5 13 3 19 1 15 -5 -4 -6 1 -8 12 -6 23 4 121 -90
130 -126 8 -32 10 -170 4 -237 -3 -34 -8 -45 -18 -42 -8 4 -12 0 -10 -9 4 -18
-89 -100 -143 -126 -21 -11 -35 -22 -32 -26 4 -4 -1 -4 -11 0 -15 6 -17 4 -11
-6 5 -8 4 -11 -2 -7 -6 4 -30 0 -54 -9 -24 -8 -88 -19 -142 -23 -53 -4 -100
-10 -103 -13 -3 -4 1 -16 8 -27 11 -18 10 -30 -8 -81 -11 -32 -16 -56 -11 -53
5 3 7 0 5 -8 -3 -8 -11 -13 -17 -12 -6 2 -11 -3 -11 -10 0 -8 -11 -24 -25 -37
-14 -13 -23 -30 -21 -36 7 -19 -23 -26 -52 -11 -24 12 -27 18 -24 61 1 27 13
69 25 95 13 25 22 52 19 59 -2 7 0 11 5 10 5 -2 22 9 38 25 16 15 37 27 45 27
8 0 22 5 30 11 11 8 8 9 -15 4 -16 -4 -27 -3 -22 1 4 4 -19 24 -50 44 -42 27
-67 53 -92 93 -31 53 -33 63 -34 149 -1 119 5 190 16 175 5 -7 6 1 3 18 -3 17
-3 24 0 17 8 -18 24 -4 17 16 -3 9 -2 14 2 10 11 -10 38 29 30 42 -4 6 -3 9 2
8 13 -5 73 54 66 65 -4 6 -1 7 6 2 8 -4 21 2 33 15 45 48 129 65 148 31z
m-2926 -174 c3 4 6 -5 6 -19 0 -26 40 -83 40 -57 1 10 4 9 11 -3 5 -10 20 -18
33 -18 13 0 36 -5 53 -10 24 -9 30 -16 30 -41 0 -16 -3 -25 -7 -19 -9 14 -40
2 -40 -15 0 -8 -9 -17 -21 -20 -19 -6 -20 -12 -14 -81 7 -75 5 -81 -29 -68
-24 9 -19 26 4 19 18 -6 20 -3 16 17 -19 91 -19 89 30 139 l46 47 -31 6 c-17
3 -45 9 -61 12 -23 4 -40 20 -67 61 l-37 54 -34 -54 c-31 -51 -37 -55 -80 -62
-89 -12 -89 -12 -39 -64 l46 -46 -8 -57 c-8 -63 -5 -66 39 -43 16 8 31 11 34
7 9 -15 -64 -206 -134 -347 -67 -135 -79 -151 -105 -145 -5 1 -14 -5 -20 -13
-13 -17 -55 -40 -62 -33 -9 9 8 26 27 26 10 0 21 9 25 19 6 21 35 37 35 19 0
-27 31 21 93 145 60 120 134 307 121 307 -3 0 -18 -7 -34 -15 -36 -19 -42 -7
-34 73 l6 57 -56 53 c-58 55 -67 72 -40 72 8 0 12 -4 9 -10 -9 -15 12 -12 28
5 8 8 17 11 20 8 3 -3 26 -2 50 1 38 6 45 11 57 41 8 19 18 35 22 35 5 0 13
12 19 28 l11 27 18 -22 c9 -12 20 -19 24 -16z m3621 -56 c-3 -5 7 -9 23 -9 47
1 69 -16 64 -51 -5 -37 -13 -43 -82 -64 -144 -42 -232 -27 -234 41 -1 20 3 31
10 28 6 -2 40 6 75 18 46 16 73 20 94 14 17 -4 34 -3 39 2 7 7 5 10 -4 10 -13
0 -13 2 0 10 19 12 23 12 15 1z m-1083 -43 c9 -1 14 -6 12 -10 -3 -4 -1 -8 5
-8 13 0 23 -33 16 -52 -10 -26 -53 -38 -139 -38 -83 0 -146 14 -146 32 0 5 -4
6 -10 3 -5 -3 -10 -2 -10 4 0 5 5 13 10 16 6 4 8 11 5 16 -3 5 9 18 27 29 29
18 44 20 123 16 50 -3 98 -7 107 -8z m-2518 -214 c9 -3 13 -10 11 -15 -6 -9
31 -163 46 -191 5 -10 9 -23 9 -29 0 -6 7 -25 15 -42 7 -18 23 -55 33 -84 25
-66 89 -142 120 -143 14 0 20 -4 17 -10 -4 -6 -1 -17 5 -25 6 -8 9 -19 5 -25
-3 -5 1 -10 10 -10 9 0 13 -5 10 -10 -4 -6 12 -28 35 -50 31 -30 48 -39 62
-34 13 4 18 2 14 -4 -3 -6 11 -21 31 -33 56 -34 120 -100 127 -131 15 -64 -37
-148 -91 -148 -35 0 -83 51 -83 88 l0 30 -60 -2 c-57 -1 -60 -2 -60 -26 1 -23
16 -72 49 -155 6 -16 17 -43 23 -60 17 -45 122 -227 155 -270 73 -93 120 -140
140 -137 14 2 23 -3 27 -16 4 -11 18 -23 32 -26 19 -5 24 -11 19 -26 -4 -14 2
-24 22 -36 48 -30 84 -68 99 -103 13 -32 13 -36 -8 -58 -12 -12 -31 -23 -42
-23 -18 -1 -19 -2 -5 -13 35 -27 61 -108 39 -122 -6 -4 -10 6 -10 22 0 32 -33
91 -55 99 -25 10 -17 21 19 28 19 4 39 13 46 21 18 22 -25 92 -80 130 -25 18
-45 39 -45 48 0 21 -52 60 -70 53 -21 -8 -130 129 -214 271 -77 131 -151 302
-159 371 l-5 42 39 0 c22 0 56 3 77 6 l37 7 0 -37 c0 -26 7 -44 25 -61 55 -56
125 -11 125 80 0 35 -35 85 -60 85 -5 0 -10 7 -10 15 0 9 -8 18 -17 22 -10 3
-49 28 -88 54 -77 53 -131 114 -127 141 2 10 -3 18 -10 18 -15 0 -52 38 -87
88 -28 40 -69 145 -117 296 -19 60 -39 114 -44 121 -5 7 -7 15 -3 18 8 8 8 8
27 1z m3433 -19 c30 -14 75 -41 100 -60 25 -19 50 -32 56 -28 6 3 7 1 3 -5 -4
-7 -3 -12 2 -12 19 0 22 -33 7 -57 -9 -13 -13 -28 -10 -33 8 -13 4 -13 -52 6
-26 9 -53 23 -59 32 -6 9 -18 13 -28 9 -10 -4 -16 -1 -16 8 0 8 -9 15 -20 15
-11 0 -20 5 -20 10 0 6 -6 10 -13 10 -7 0 -18 9 -25 21 -7 11 -18 19 -25 16
-12 -4 -36 20 -37 37 0 6 7 1 15 -10 13 -18 14 -17 10 14 -2 18 0 30 6 27 5
-4 9 -2 9 4 0 5 8 12 18 14 9 3 18 5 20 6 2 0 28 -10 59 -24z m-3465 -115 c21
-111 79 -263 127 -333 17 -25 28 -52 25 -60 -3 -8 -1 -18 5 -22 14 -8 14 -42
0 -50 -6 -4 -20 2 -32 13 l-22 21 -29 -25 c-21 -19 -26 -28 -17 -37 17 -17 13
-27 -8 -27 -11 0 -27 10 -35 22 l-15 21 -20 -24 c-15 -19 -22 -21 -32 -12 -9
9 -9 15 0 26 6 8 9 22 5 31 -3 9 -1 16 5 16 7 0 14 -7 17 -15 4 -8 10 -12 15
-9 6 3 16 1 23 -5 10 -9 15 -8 20 4 3 8 15 15 26 15 11 0 20 6 20 13 0 7 5 18
12 25 10 10 17 6 35 -15 13 -14 26 -23 30 -20 3 4 -1 15 -11 25 -9 11 -14 26
-10 36 4 11 1 16 -12 17 -11 0 -14 3 -6 6 9 3 7 11 -7 31 -55 79 -114 241
-126 350 -4 34 -11 64 -15 67 -4 3 -21 -36 -37 -86 l-29 -90 28 -6 c16 -3 38
-19 50 -37 12 -17 26 -34 30 -37 11 -8 -20 -94 -41 -113 -9 -9 -31 -19 -49
-22 -26 -5 -36 -1 -61 24 -34 34 -33 34 -77 -50 l-29 -57 29 -30 c23 -24 35
-29 55 -24 23 6 25 5 12 -10 -18 -23 -37 -21 -55 5 l-16 22 -16 -22 c-8 -12
-19 -22 -23 -22 -17 0 -21 33 -8 49 8 9 12 21 10 28 -2 6 7 30 21 52 14 22 33
59 42 81 9 22 19 40 23 40 3 0 14 -13 23 -30 51 -89 169 -9 129 88 -13 30 -61
59 -80 48 -19 -12 -21 13 -2 56 10 24 22 59 26 78 4 19 14 50 21 69 21 50 34
30 56 -89z m2592 65 c10 0 22 -10 27 -23 7 -19 2 -30 -37 -67 -47 -46 -101
-70 -144 -63 -33 4 -38 40 -10 68 11 11 18 25 15 30 -4 6 1 7 11 3 13 -5 15
-3 9 7 -5 8 -4 11 2 7 6 -4 16 -1 22 7 7 8 23 17 36 20 14 4 25 11 25 17 0 6
6 7 12 2 7 -4 21 -7 32 -8z m693 -137 c13 -12 38 -50 55 -85 17 -34 33 -61 37
-59 6 4 11 -23 11 -69 1 -52 -1 -55 -44 -49 -43 5 -66 19 -66 40 0 7 -8 19
-19 26 -10 7 -21 23 -25 36 -4 12 -11 22 -16 22 -5 0 -15 24 -23 53 -24 83
-28 107 -20 106 20 -3 34 2 28 10 -11 18 58 -8 82 -31z m-226 -90 c22 -43 22
-47 7 -255 -2 -23 -7 -31 -20 -30 -16 1 -16 3 -1 19 17 19 5 26 -13 8 -7 -7
-19 -4 -38 11 l-28 22 4 111 c5 116 17 156 50 156 11 0 26 -17 39 -42z m-2818
-327 c24 -42 20 -51 -7 -17 -16 19 -30 27 -41 23 -9 -4 -14 -11 -10 -16 3 -5
1 -12 -5 -16 -5 -3 -11 0 -11 7 -1 7 -4 0 -8 -17 -5 -24 -12 -30 -32 -28 -18
1 -25 -4 -25 -18 0 -22 59 -54 83 -45 9 4 13 1 10 -6 -5 -16 67 -47 108 -47
28 0 133 37 108 38 -17 1 -143 82 -143 92 0 13 3 12 66 -30 33 -21 68 -41 79
-43 11 -2 20 -10 20 -18 0 -20 -81 -59 -123 -60 -37 0 -137 38 -183 70 -16 12
-33 20 -36 16 -6 -6 18 -27 87 -79 40 -29 47 -41 62 -97 9 -36 30 -98 47 -139
17 -40 31 -78 31 -85 0 -7 16 -39 36 -72 21 -32 50 -85 66 -117 15 -32 45 -77
66 -100 46 -52 102 -124 102 -131 0 -16 -31 -3 -41 16 l-12 22 -15 -22 c-8
-12 -21 -22 -28 -22 -17 0 -17 -5 -4 -30 16 -30 -10 -37 -31 -9 l-18 24 -16
-22 c-20 -28 -59 -30 -82 -3 -17 19 -17 19 -34 1 -10 -11 -24 -21 -31 -23 -11
-4 -11 -8 0 -21 30 -36 -15 -50 -48 -15 l-20 22 -16 -22 c-8 -12 -22 -22 -31
-22 -14 0 -14 -3 3 -21 15 -16 16 -22 5 -29 -19 -11 -39 -2 -52 22 -10 19 -11
18 -35 -7 -26 -28 -57 -27 -81 4 -12 15 -14 14 -27 -1 -7 -10 -21 -18 -31 -18
-15 0 -15 2 -4 16 11 13 8 19 -17 39 -34 29 -40 30 -48 10 -8 -22 -20 -19 -56
15 l-33 31 -19 -21 c-18 -19 -20 -19 -46 -3 -15 9 -33 23 -39 31 -11 14 -15
13 -31 -1 -20 -19 -52 -23 -52 -7 0 5 6 7 14 4 7 -3 21 7 31 22 l18 28 22 -25
c12 -13 31 -30 43 -36 18 -11 23 -10 32 7 13 23 38 26 46 5 3 -8 18 -21 34
-28 25 -13 28 -12 40 6 l13 21 16 -21 c22 -26 56 -44 73 -38 8 3 24 -6 36 -20
25 -29 44 -33 36 -7 -5 14 -4 14 4 3 9 -13 14 -11 29 8 l19 23 17 -26 c10 -14
22 -26 28 -26 6 0 1 12 -10 26 -28 35 -27 39 11 39 23 0 34 5 36 18 2 10 -3
17 -11 17 -8 0 -29 16 -47 37 -30 33 -32 41 -28 90 13 149 201 163 232 16 4
-17 3 -34 -2 -37 -5 -3 -12 11 -16 32 -10 66 -77 107 -136 82 -40 -17 -60 -51
-60 -106 0 -40 5 -51 34 -79 28 -26 40 -31 68 -27 36 5 88 47 88 71 0 8 3 12
6 9 3 -4 6 -10 5 -15 0 -4 10 -18 21 -30 24 -26 63 -30 71 -8 4 8 23 21 44 30
33 14 73 46 73 59 0 3 -22 30 -50 62 -27 31 -60 77 -73 103 -13 25 -36 66 -52
91 -38 57 -56 97 -61 134 -2 17 -15 53 -29 80 -14 28 -30 76 -35 106 -11 58
-19 69 -103 127 -30 21 -47 40 -47 53 0 17 -4 19 -27 13 -16 -3 -36 -6 -46 -5
-11 0 -31 -19 -52 -51 -19 -29 -48 -61 -65 -72 -16 -11 -30 -23 -30 -27 0 -5
-6 -8 -13 -8 -7 0 -19 -6 -25 -12 -7 -7 -20 -13 -29 -13 -9 0 -23 -17 -32 -40
-9 -22 -31 -67 -49 -100 -18 -33 -50 -91 -70 -130 -55 -101 -65 -117 -89 -152
-13 -17 -23 -35 -23 -40 0 -4 -20 -28 -44 -53 l-44 -45 19 -27 c25 -34 24 -50
-1 -18 -17 22 -19 23 -25 7 -8 -19 -35 -24 -35 -5 0 6 22 37 48 67 76 87 126
169 277 457 12 23 24 51 27 62 3 12 24 28 51 40 68 30 157 119 157 157 0 4
-26 -16 -57 -43 -66 -56 -141 -102 -167 -102 -22 0 -18 20 19 104 34 78 43 65
11 -15 -14 -35 -23 -65 -21 -67 7 -8 110 58 159 102 55 50 56 70 4 84 -27 8
-30 11 -15 17 27 11 73 -26 69 -55 -3 -18 0 -21 13 -16 9 3 28 6 41 6 17 0 24
6 24 19 0 27 15 34 66 33 32 0 41 3 37 13 -6 18 40 65 64 65 10 0 26 -13 36
-29z m-539 -177 c-7 -3 -10 -13 -7 -23 2 -9 -3 -23 -11 -30 -23 -19 -20 -51 3
-51 48 0 38 -29 -100 -272 -56 -97 -123 -200 -149 -230 -46 -51 -49 -52 -63
-34 -14 19 -15 19 -26 -2 -6 -12 -19 -22 -27 -22 -10 0 -14 -5 -10 -15 3 -8 8
-21 11 -27 7 -19 -11 -37 -95 -100 -41 -31 -84 -70 -94 -86 -11 -17 -33 -34
-49 -39 -64 -18 -91 -106 -50 -160 42 -57 121 -52 157 8 18 30 18 68 1 111 -6
16 -2 17 52 12 38 -4 74 -2 98 6 81 27 51 -45 -37 -91 -21 -11 -38 -23 -38
-28 0 -5 16 -19 35 -31 19 -12 35 -27 35 -34 0 -11 -50 -95 -83 -141 -8 -11
-18 -17 -22 -13 -4 4 3 17 15 30 11 12 19 30 17 40 -3 11 0 15 8 11 8 -2 20 8
29 26 19 37 20 61 3 61 -19 0 -60 47 -52 59 3 6 21 18 38 27 34 17 87 63 87
75 0 4 -9 5 -20 2 -11 -3 -20 -8 -20 -12 0 -4 -27 -5 -60 -3 l-61 4 7 -39 c4
-29 1 -52 -13 -82 -11 -23 -22 -39 -25 -36 -3 3 -21 -2 -41 -10 -34 -14 -40
-14 -81 6 -55 26 -79 73 -64 128 11 41 42 78 72 87 12 4 53 36 91 73 39 36 87
77 108 91 41 28 49 68 12 61 -20 -3 -20 -3 -1 18 11 12 25 21 32 21 19 0 29
41 13 51 -19 12 -6 11 27 -1 22 -9 31 -7 49 10 12 11 24 18 27 15 8 -8 44 36
73 90 15 28 33 57 40 65 6 8 15 23 18 32 3 9 18 36 33 60 15 24 46 80 70 125
40 78 46 105 18 82 -9 -8 -15 -5 -24 10 -8 16 -7 29 5 57 13 33 13 36 -1 30
-9 -3 -23 -6 -31 -6 -12 0 -14 -7 -9 -32 l6 -33 -20 25 c-11 14 -20 28 -20 31
0 8 91 47 110 47 8 0 10 -2 4 -4z m561 -649 c60 -59 -2 -159 -80 -129 -24 10
-46 60 -39 89 7 30 49 65 76 65 10 0 30 -11 43 -25z m-875 -117 c8 -13 14 -30
15 -38 0 -10 8 -14 23 -12 33 5 72 -24 72 -52 0 -21 5 -23 40 -23 31 0 40 4
40 17 0 9 3 20 7 23 9 10 43 -23 43 -42 0 -12 10 -17 39 -17 33 -1 38 1 34 17
-4 12 0 19 9 19 19 0 38 -20 38 -41 0 -12 9 -16 39 -16 29 0 38 3 34 13 -3 8
-1 14 5 14 17 0 33 -27 25 -45 -5 -15 -2 -17 17 -12 40 10 80 -3 80 -27 0 -18
6 -21 40 -22 36 -1 40 1 40 23 0 31 34 28 38 -3 2 -17 10 -20 40 -19 27 1 36
5 34 17 -4 24 24 41 68 41 32 0 40 3 40 18 0 24 34 41 80 41 32 -1 37 2 33 18
-3 10 0 21 7 25 15 9 40 -13 33 -31 -4 -11 4 -14 36 -14 34 0 41 3 41 20 0 24
34 43 66 37 18 -3 24 0 24 13 0 22 25 44 40 35 5 -3 10 -18 10 -32 0 -19 4
-24 16 -19 34 13 81 -6 134 -55 45 -41 51 -51 40 -64 -16 -19 -57 -19 -160 1
-99 18 -114 11 -71 -38 17 -19 28 -38 24 -42 -3 -3 -25 -5 -47 -5 l-41 2 40 7
c22 4 35 8 28 9 -12 1 -53 65 -53 83 0 12 66 7 177 -13 120 -22 123 15 7 82
-42 23 -58 28 -72 20 -23 -12 -42 3 -43 33 0 17 -3 15 -14 -8 -10 -24 -19 -30
-46 -30 -27 -1 -34 -6 -39 -26 -6 -24 -9 -25 -95 -26 -139 -2 -133 -1 -137
-31 -2 -24 -7 -28 -30 -26 -16 1 -28 -2 -28 -6 0 -5 -12 -6 -26 -3 -23 4 -25
2 -20 -15 10 -33 -13 -40 -124 -39 -98 1 -105 2 -105 21 0 25 -21 35 -62 28
-25 -4 -32 -1 -38 16 -5 16 -13 19 -38 16 -41 -6 -67 3 -67 21 0 10 -5 12 -14
7 -8 -5 -35 -7 -60 -5 -41 4 -46 7 -46 27 0 13 -5 27 -11 31 -8 4 -9 0 -4 -15
6 -19 2 -21 -29 -21 -19 0 -41 -3 -49 -6 -8 -3 -21 2 -30 10 -14 14 -16 12
-22 -24 -9 -56 -44 -102 -93 -124 -45 -21 -57 -39 -19 -32 12 3 38 7 58 11 19
3 69 27 110 54 54 36 77 46 87 39 15 -13 16 -82 1 -110 -6 -11 -8 -22 -6 -25
10 -9 101 49 155 98 30 27 58 49 63 49 22 0 8 -69 -22 -106 -26 -34 -99 -82
-99 -67 0 3 -7 -1 -17 -8 -9 -8 -25 -13 -35 -11 -11 2 -25 0 -31 -5 -7 -5 -33
-6 -59 -3 l-48 5 15 29 c20 38 14 42 -30 22 -20 -10 -50 -20 -68 -23 -25 -4
-36 -13 -49 -42 -10 -21 -18 -40 -18 -44 0 -3 -14 -30 -31 -59 -18 -29 -32
-58 -32 -65 0 -7 -5 -11 -11 -10 -6 1 -10 -6 -10 -15 1 -10 -2 -15 -7 -13 -11
7 -32 -33 -24 -45 4 -6 2 -9 -3 -8 -14 5 -107 -95 -104 -112 2 -12 1 -12 -6
-2 -7 10 -11 10 -21 -2 -10 -12 -8 -16 10 -21 15 -5 25 -2 31 9 11 20 47 21
54 1 4 -8 12 -15 19 -15 7 0 18 -7 25 -15 10 -12 10 -18 -1 -32 -13 -17 -12
-17 4 -3 17 12 21 12 35 -7 28 -34 59 -36 76 -3 7 16 10 32 6 37 -14 14 -24
76 -11 69 6 -4 11 -16 11 -26 0 -36 42 -72 92 -77 42 -5 50 -3 78 25 41 41 41
89 1 134 -24 27 -36 33 -71 33 -37 0 -47 -6 -76 -39 -25 -29 -34 -34 -34 -21
0 9 15 30 33 46 46 41 114 41 157 -1 26 -26 30 -36 30 -84 0 -48 -3 -57 -31
-80 -25 -21 -41 -26 -85 -26 -37 0 -53 -4 -48 -11 3 -6 15 -9 25 -6 15 4 19 0
19 -18 0 -13 -4 -27 -10 -30 -13 -8 -13 -25 -1 -25 5 0 13 9 16 20 3 11 13 20
20 20 8 0 19 -9 25 -20 15 -28 44 -25 85 11 l35 31 9 -25 c5 -13 19 -27 30
-30 13 -3 21 -13 21 -26 0 -22 14 -28 25 -12 3 5 16 -1 30 -15 13 -13 29 -24
35 -24 5 0 10 -7 10 -15 0 -8 6 -12 14 -9 8 3 20 -3 27 -13 16 -22 59 -28 59
-9 0 8 7 19 16 27 12 10 17 10 23 0 6 -9 11 -8 21 4 7 8 18 15 25 15 7 0 21
12 30 27 l18 26 16 -22 c20 -27 70 -53 83 -45 6 4 18 -2 27 -13 20 -26 71 -39
71 -19 0 24 23 36 43 22 9 -7 17 -18 17 -23 0 -6 10 -13 23 -17 16 -4 28 1 45
22 12 15 27 26 33 24 5 -1 19 18 30 43 11 25 24 43 28 41 4 -3 23 10 42 29 19
19 40 35 46 35 7 0 18 9 25 20 7 11 21 20 30 20 10 0 18 4 18 8 0 4 13 13 30
19 36 13 52 60 27 78 -12 9 -14 14 -5 23 7 7 18 12 25 12 7 0 17 8 22 19 8 14
6 22 -8 35 -9 9 -23 16 -30 16 -7 0 -9 5 -6 10 4 6 -4 23 -17 39 -29 33 -67
109 -107 211 -16 41 -33 75 -38 76 -4 1 -20 5 -35 8 -16 4 -28 11 -28 16 0 13
47 3 77 -16 12 -7 24 -27 28 -45 4 -17 16 -52 27 -78 60 -142 116 -220 182
-256 36 -20 48 -45 21 -45 -8 0 -20 10 -26 22 -11 21 -11 21 -28 1 -9 -11 -24
-23 -34 -27 -17 -5 -17 -7 -3 -22 9 -8 16 -18 16 -21 0 -16 -44 -73 -56 -73
-16 0 -19 -16 -4 -25 15 -9 12 -35 -4 -35 -8 0 -22 10 -30 22 l-16 22 -16 -22
c-8 -12 -22 -22 -30 -22 -17 0 -18 -5 -2 -30 16 -26 0 -40 -18 -16 -14 20 -14
19 -33 -1 -11 -12 -26 -23 -33 -26 -10 -4 -11 -7 0 -18 19 -20 15 -41 -7 -34
-27 8 -77 -41 -61 -60 7 -8 8 -20 4 -26 -5 -9 -11 -7 -21 7 -14 19 -15 19 -30
-1 -11 -14 -17 -16 -20 -7 -3 6 -11 12 -18 12 -8 0 -21 10 -29 22 -15 21 -16
21 -37 2 -25 -23 -56 -20 -86 8 l-21 20 -11 -21 c-7 -12 -21 -21 -31 -21 -23
0 -26 10 -8 28 6 6 10 13 7 14 -2 2 -16 14 -32 27 l-27 25 -16 -22 c-8 -12
-22 -22 -31 -22 -14 0 -14 -2 1 -19 17 -19 15 -41 -5 -41 -5 0 -18 9 -29 20
l-21 21 -26 -21 c-33 -25 -49 -25 -63 1 -9 16 -14 18 -26 8 -11 -9 -14 -9 -14
2 0 10 -3 10 -12 1 -10 -10 -10 -15 2 -22 13 -8 13 -10 -2 -10 -26 0 -32 19
-13 40 17 19 17 20 -7 29 -14 5 -28 18 -32 28 -7 16 -9 16 -26 -7 -15 -20 -22
-22 -31 -13 -10 10 -10 18 -1 38 7 15 8 25 2 25 -6 0 -20 10 -32 22 -19 19
-22 20 -33 4 -7 -9 -27 -21 -45 -28 -30 -10 -35 -9 -52 12 l-18 22 -19 -23
c-19 -23 -21 -23 -37 -7 -17 17 -17 18 1 37 17 20 17 21 -1 27 -11 4 -26 16
-35 27 -17 20 -17 20 -28 -1 -15 -28 -54 -29 -82 -1 -20 20 -23 20 -31 5 -5
-9 -16 -16 -25 -16 -15 0 -15 12 2 53 5 12 2 17 -8 17 -9 0 -22 9 -30 21 l-15
20 -15 -21 c-12 -17 -21 -20 -39 -15 -54 17 -52 25 20 99 100 102 189 240 225
347 3 9 22 20 42 23 21 4 61 19 91 34 29 14 56 23 59 20 4 -3 -3 -24 -15 -47
l-20 -41 32 0 c18 0 64 9 103 20 81 23 131 65 141 120 l7 35 -45 -47 c-50 -51
-165 -115 -180 -100 -5 5 -5 20 2 36 10 28 14 106 5 106 -3 0 -26 -15 -52 -34
-75 -53 -110 -67 -170 -69 -66 -2 -80 14 -31 39 52 26 76 53 98 111 11 30 20
56 20 58 0 2 -16 -5 -35 -17 -53 -31 -52 -17 2 21 50 35 46 55 -9 44 -28 -5
-33 1 -28 36 1 8 -4 17 -11 22 -9 5 -34 -11 -75 -49 -34 -31 -70 -64 -80 -72
-18 -14 -17 -15 13 -18 18 -2 41 2 53 8 13 7 20 7 20 1 0 -6 13 -8 32 -4 20 4
29 3 25 -4 -4 -6 -37 -13 -75 -17 -117 -12 -131 9 -49 72 28 22 68 57 86 76
19 20 37 36 41 36 3 0 12 -10 20 -22z m-232 -208 c46 -43 16 -130 -43 -130
-33 0 -75 42 -75 75 0 32 41 75 73 75 13 0 33 -9 45 -20z m1552 -27 c3 -2 -5
-12 -16 -21 -52 -41 -60 -121 -18 -172 23 -27 32 -31 67 -28 34 2 45 9 63 36
13 19 25 28 29 22 4 -6 -9 -26 -28 -45 -47 -47 -84 -47 -135 -1 -34 32 -37 39
-37 89 l0 54 -30 -10 c-35 -11 -55 -27 -36 -27 8 0 11 -6 7 -16 -4 -9 -2 -22
3 -28 4 -6 25 -42 46 -81 40 -77 122 -168 143 -160 7 2 10 1 7 -4 -3 -5 -1
-12 4 -15 5 -4 12 3 16 14 7 23 40 27 49 5 3 -8 17 -20 31 -25 26 -10 32 -24
15 -35 -5 -3 -10 -11 -10 -16 0 -6 5 -7 12 -3 7 4 8 3 4 -4 -4 -7 -2 -12 4
-12 6 0 48 -21 93 -47 44 -27 102 -55 127 -63 33 -11 45 -20 45 -35 0 -15 9
-21 35 -25 69 -12 95 -36 104 -95 l6 -40 -16 42 c-20 54 -55 77 -116 75 -44
-1 -47 1 -38 18 16 30 12 37 -30 48 -41 10 -235 116 -246 134 -4 5 -1 15 5 21
15 15 14 27 -3 27 -8 0 -21 9 -30 21 l-14 21 -11 -21 c-17 -30 -35 -26 -82 17
-56 49 -109 122 -147 202 -34 68 -40 108 -19 114 6 2 31 9 55 15 48 13 53 26
17 43 -13 6 -22 15 -19 19 5 8 83 1 94 -8z m75 -63 c42 -46 11 -130 -46 -130
-31 0 -69 40 -69 72 0 22 18 60 34 70 21 14 63 8 81 -12z m-798 -152 c12 -12
23 -29 23 -39 0 -10 4 -20 9 -24 17 -10 -13 -87 -41 -108 -31 -23 -128 -40
-128 -22 0 6 -13 18 -29 28 -21 12 -31 28 -36 55 -19 116 117 190 202 110z
m-794 -150 c-64 -81 -158 -175 -196 -194 -29 -15 -31 -15 -47 5 l-16 22 -19
-20 c-10 -12 -24 -21 -32 -21 -11 0 -10 -5 3 -25 15 -23 15 -25 -14 -42 -17
-10 -66 -36 -111 -58 -44 -22 -82 -47 -86 -56 -3 -8 -21 -21 -41 -28 -91 -33
-99 -172 -13 -214 27 -13 38 -13 63 -3 49 20 70 57 68 121 -1 39 2 54 10 49 6
-4 25 -11 42 -15 l31 -7 -36 -1 c-32 -1 -36 -4 -32 -24 7 -38 -16 -106 -41
-123 -36 -23 -100 -22 -133 2 -39 29 -57 90 -43 142 11 43 59 92 90 92 10 0
20 8 22 18 3 10 50 40 111 71 59 30 107 58 107 62 0 4 -7 9 -15 13 -23 8 -18
34 8 41 12 4 30 17 40 29 l18 21 16 -22 c8 -13 21 -23 27 -23 6 0 45 32 85 70
41 39 78 70 82 70 5 0 9 4 9 10 0 16 54 89 70 93 8 3 16 5 18 6 2 0 -18 -27
-45 -61z m4019 -100 c41 -7 78 -19 85 -28 6 -8 15 -12 19 -7 4 4 2 7 -4 7 -7
0 -12 5 -12 11 0 6 8 7 23 3 12 -4 31 -9 42 -10 11 -1 33 -6 48 -13 16 -6 32
-11 37 -11 20 0 147 -56 186 -81 22 -15 58 -47 79 -71 22 -23 43 -42 47 -41 5
2 8 -5 8 -16 0 -10 7 -24 15 -31 20 -17 19 -25 -5 -27 -11 -1 -20 2 -20 8 0 5
-10 9 -22 10 -13 0 -17 3 -11 6 10 4 10 9 1 26 -7 12 -11 25 -10 30 1 4 -4 7
-11 7 -7 0 -20 8 -28 18 -9 11 -27 26 -39 35 -13 9 -21 20 -17 23 4 4 14 1 24
-7 11 -9 14 -10 9 -2 -4 7 -16 18 -28 24 -16 9 -19 8 -13 -2 6 -9 3 -10 -11
-4 -10 4 -29 8 -42 9 -12 1 -26 6 -30 12 -17 25 -180 71 -327 92 -130 18 -385
1 -385 -27 0 -3 -11 -7 -25 -8 -54 -5 -63 -8 -59 -15 3 -4 -9 -14 -26 -23 -16
-8 -30 -20 -30 -25 0 -6 -7 -10 -17 -10 -9 0 -36 -11 -60 -26 -24 -14 -48 -22
-55 -18 -6 4 -8 3 -4 -4 3 -6 -6 -20 -20 -31 -34 -27 -45 -19 -13 10 13 11 3
6 -23 -12 -49 -33 -84 -66 -90 -84 -2 -5 -7 -8 -13 -7 -5 2 -7 0 -3 -4 4 -4
-11 -29 -33 -57 -22 -28 -37 -57 -34 -65 3 -8 0 -12 -7 -10 -12 4 -65 -88 -60
-105 1 -4 -5 -15 -14 -24 -9 -10 -14 -27 -12 -44 3 -15 1 -26 -3 -23 -21 13
-56 -125 -69 -271 l-7 -80 -1 67 c-1 37 -7 79 -12 94 -6 15 -7 31 -2 38 5 6
14 37 21 69 7 31 18 63 24 70 12 12 13 18 22 91 5 39 15 62 15 35 0 -8 11 10
25 39 16 35 29 51 36 46 8 -4 9 -3 5 5 -8 12 20 58 67 108 18 19 26 36 21 44
-5 8 -2 11 8 6 10 -3 27 6 44 24 16 17 44 39 62 51 17 11 29 24 26 30 -3 5 0
8 7 7 23 -5 76 34 71 51 -4 13 -3 13 10 2 10 -8 19 -9 22 -3 3 5 0 12 -6 15
-7 3 -4 5 7 3 11 -1 59 17 105 40 47 24 117 49 155 57 88 18 242 20 337 4z
m-3694 -18 c30 -28 30 -83 0 -104 -33 -24 -84 -20 -102 6 -24 34 -20 73 10 97
34 27 64 27 92 1z m890 -32 c6 -1 10 -4 7 -6 -3 -3 2 -13 11 -23 25 -28 30
-106 9 -145 -55 -103 -230 -54 -230 65 0 41 36 98 69 111 18 7 52 6 134 -2z
m463 -24 c26 -19 76 -50 111 -68 99 -53 102 -73 15 -131 -53 -35 -138 -61
-123 -37 4 7 20 12 35 12 15 0 37 9 49 20 12 11 25 20 30 20 5 0 19 9 32 20
26 22 21 49 -10 57 -11 3 -20 9 -20 14 0 5 -6 9 -14 9 -14 0 -113 65 -131 85
-16 19 -45 27 -39 11 3 -8 0 -17 -7 -22 -8 -4 -10 -3 -5 4 4 7 2 12 -3 12 -6
0 -11 -13 -11 -29 0 -35 -15 -48 -36 -30 -11 9 -18 9 -26 1 -9 -9 -8 -12 3
-12 7 0 20 -4 28 -9 11 -7 11 -13 0 -32 -7 -13 -12 -31 -11 -40 2 -9 -4 -22
-13 -29 -12 -10 -18 -10 -30 0 -22 19 -65 -5 -62 -34 2 -17 -4 -21 -28 -21
-40 0 -62 -20 -45 -41 7 -8 11 -15 9 -17 -42 -24 -47 -25 -58 -14 -9 9 -11 8
-5 -7 5 -13 4 -17 -4 -12 -7 4 -14 -4 -18 -21 -11 -53 -13 -55 -38 -49 -29 7
-47 -12 -44 -45 3 -22 0 -24 -34 -21 -20 1 -39 -2 -43 -8 -5 -8 -12 -4 -22 10
-10 13 -22 20 -34 17 -10 -3 -21 0 -24 7 -3 8 -7 8 -11 -1 -4 -9 -11 -10 -23
-3 -22 11 -63 9 -74 -5 -5 -6 -7 -3 -3 8 6 19 -4 23 -21 6 -15 -15 -54 11 -48
32 6 19 -28 29 -70 21 -26 -4 -34 -27 -13 -34 27 -9 -5 -26 -42 -23 -33 4 -38
2 -34 -13 4 -10 3 -13 -3 -6 -9 13 -105 15 -97 2 3 -4 -5 -4 -18 1 -14 5 -25
19 -28 36 -3 15 -15 35 -28 43 -22 15 -23 14 -19 -9 2 -13 2 -19 0 -13 -2 6
-15 16 -28 22 -17 8 -25 20 -25 36 0 31 -25 51 -64 51 -27 0 -31 3 -28 25 4
21 2 22 -12 11 -9 -7 -16 -23 -16 -35 0 -19 -6 -21 -52 -21 -46 0 -53 3 -53
20 0 11 -6 24 -13 28 -7 5 -10 12 -7 18 4 5 0 9 -7 10 -101 4 -148 3 -148 -2
0 -12 -40 3 -41 15 -1 6 -2 16 -4 21 -1 6 -3 15 -3 22 -1 7 -9 10 -17 7 -8 -4
-21 -1 -29 5 -7 6 -21 9 -30 5 -12 -5 -15 -2 -10 9 5 14 1 15 -28 7 -40 -12
-41 -12 -33 -1 3 6 -7 9 -22 8 -25 -2 -28 2 -31 32 -2 21 0 31 7 26 6 -3 11
-14 11 -24 0 -15 8 -18 39 -18 29 0 38 4 37 16 -2 26 28 18 34 -9 5 -19 12
-24 29 -22 29 4 61 -24 61 -53 0 -19 5 -22 39 -22 33 0 40 3 43 21 4 31 32 26
36 -7 3 -23 7 -26 28 -21 29 7 74 -28 74 -56 0 -13 9 -17 40 -17 31 0 40 3 40
17 0 22 25 44 40 35 5 -3 10 -15 10 -26 0 -15 5 -18 23 -14 31 8 77 -29 77
-60 0 -21 4 -24 28 -19 34 7 65 -15 67 -47 1 -21 7 -24 41 -24 32 0 39 4 39
19 0 11 6 21 13 23 7 3 12 -3 12 -14 0 -15 8 -19 40 -19 34 -1 40 1 35 16 -8
26 20 43 70 42 54 0 65 -7 65 -36 0 -20 4 -23 38 -20 22 1 36 7 34 14 -1 7 3
18 9 26 14 17 39 1 39 -25 0 -12 10 -17 40 -17 22 -1 40 2 40 7 0 5 5 9 10 9
6 0 10 -11 10 -24 0 -21 5 -23 40 -23 28 0 40 4 40 14 0 28 32 64 51 58 14 -5
19 -1 19 13 0 11 7 25 15 32 11 9 12 16 5 25 -15 18 3 27 36 19 22 -6 26 -4
21 8 -10 28 22 60 54 56 25 -4 29 -1 29 18 0 28 46 56 78 47 17 -4 22 -1 22
15 0 12 5 24 10 27 15 9 12 25 -5 25 -8 0 -19 9 -25 19 -13 25 1 35 36 27 18
-5 24 -2 24 9 0 24 30 65 47 65 9 0 37 -16 64 -36z m377 -190 c41 -46 6 -114
-59 -114 -60 0 -101 69 -66 112 35 44 86 45 125 2z m-165 -51 c9 -53 51 -93
100 -93 49 0 73 13 97 53 16 25 20 28 20 12 0 -11 -4 -25 -8 -31 -15 -23 -78
-54 -111 -54 -45 0 -106 49 -115 91 -6 30 -7 31 -24 16 -19 -17 -138 -67 -159
-67 -8 0 -11 -5 -7 -11 4 -8 -1 -9 -17 -4 -34 10 47 -54 84 -67 38 -14 36 -51
-5 -92 -18 -18 -40 -35 -48 -38 -12 -4 -11 -10 8 -30 12 -13 22 -28 22 -34 1
-5 30 -34 65 -64 35 -30 64 -61 64 -67 1 -7 8 -13 16 -13 8 0 20 -9 27 -20 17
-26 30 -25 57 4 25 27 59 31 57 7 -1 -9 9 -20 22 -26 27 -12 28 -20 2 -52 -14
-18 -20 -21 -20 -10 0 9 5 19 10 22 15 9 12 25 -5 25 -8 0 -19 9 -26 21 l-11
21 -19 -21 c-11 -12 -27 -21 -37 -21 -25 0 -181 139 -230 204 -41 56 -41 57
-19 65 26 10 87 67 87 81 0 5 -21 21 -47 34 -27 13 -61 38 -77 55 -32 33 -33
32 44 50 60 13 152 55 169 75 20 24 28 20 34 -21z m2766 -80 c11 -23 18 -50
15 -60 -5 -15 -4 -15 4 -3 9 12 13 9 22 -15 7 -17 17 -41 22 -55 54 -133 85
-451 55 -568 -13 -48 -13 -53 5 -69 30 -27 20 -73 -21 -97 -26 -15 -36 -17
-39 -7 -3 8 -8 7 -18 -6 -16 -21 -18 -37 -4 -28 6 3 10 -1 10 -10 0 -12 -5
-15 -16 -11 -11 4 -34 -11 -72 -49 -82 -81 -189 -128 -286 -126 -38 2 -39 1
-32 -30 3 -17 6 -51 6 -75 0 -32 4 -44 14 -44 8 0 17 -4 20 -9 11 -16 -24
-155 -42 -171 -9 -8 -16 -25 -14 -38 2 -13 -2 -30 -9 -38 -10 -12 -8 -21 10
-45 17 -22 23 -46 24 -87 2 -54 1 -56 -28 -64 -17 -4 -42 -4 -59 2 -16 6 -43
9 -60 9 l-31 -1 30 -7 c32 -8 -4 -13 -182 -27 -46 -4 -83 -8 -83 -9 0 -1 9
-28 20 -61 12 -32 22 -70 24 -84 3 -25 3 -25 -73 -22 -67 3 -74 2 -62 -12 8
-9 19 -16 26 -16 14 0 35 -50 35 -81 0 -16 -8 -19 -45 -19 -38 0 -47 4 -54 22
l-8 22 -12 -22 c-11 -21 -17 -22 -151 -22 -143 0 -160 5 -127 39 6 7 8 12 2
11 -5 -2 -45 -2 -87 -1 -69 1 -78 3 -78 19 0 46 94 87 177 79 55 -6 71 -12 60
-23 -3 -3 -21 -1 -40 5 -19 7 -52 9 -76 5 -43 -7 -106 -42 -106 -59 0 -6 39
-11 88 -13 80 -3 109 -14 72 -28 -36 -14 -7 -19 108 -18 152 1 144 0 152 24 9
28 32 25 39 -5 5 -20 13 -25 36 -25 23 0 30 5 30 19 0 32 -12 52 -36 62 -14 5
-24 17 -24 28 0 23 -17 29 -85 28 -27 0 -38 -2 -22 -4 21 -3 27 -10 27 -28 0
-33 -13 -38 -55 -21 -24 10 -35 21 -35 36 0 12 5 18 10 15 6 -4 10 5 10 19 0
25 -3 26 -52 25 -29 0 -47 -3 -40 -6 15 -6 16 -33 1 -33 -5 0 -7 4 -4 10 4 6
-15 10 -49 10 -30 0 -58 4 -61 10 -3 5 3 27 15 49 11 22 20 44 20 50 0 5 -96
8 -241 8 -222 -2 -242 -1 -254 16 -10 14 -14 15 -18 5 -2 -7 -2 0 1 16 2 16 0
26 -4 23 -5 -3 -9 14 -9 38 0 24 3 38 6 33 15 -24 21 43 14 167 l-7 131 -53
42 c-31 23 -55 36 -58 29 -2 -6 -6 -3 -10 7 -5 11 -3 15 5 10 8 -5 9 -2 3 12
-4 10 -8 28 -9 40 -1 11 -7 28 -14 36 -9 11 -10 23 -2 42 5 14 12 26 15 26 4
0 3 -4 0 -10 -3 -5 -1 -10 4 -10 6 0 11 8 11 18 0 14 2 14 9 3 17 -26 40 5 34
44 -8 48 2 75 42 117 l35 37 -26 135 c-23 116 -25 144 -17 198 l10 63 2 -82
c0 -46 5 -83 10 -83 4 0 13 -32 20 -70 15 -92 38 -150 60 -150 22 0 47 111 43
193 -3 55 1 63 31 58 5 -1 7 6 5 16 -2 10 0 23 5 28 4 6 15 19 23 30 13 17 15
17 10 2 -4 -11 -2 -16 5 -12 5 4 7 15 4 24 -3 11 3 25 15 36 16 14 18 21 8 28
-10 6 -9 7 3 4 9 -3 42 4 72 15 53 19 58 24 87 85 29 60 30 66 15 77 -16 12
-16 17 5 83 31 94 40 106 74 93 33 -12 86 -7 206 20 119 27 240 23 275 -10 12
-11 25 -17 30 -13 4 5 6 1 2 -9 -6 -17 27 -56 35 -41 3 4 3 2 1 -6 -5 -18 16
-42 30 -34 6 4 8 0 4 -10 -6 -17 18 -23 82 -19 31 2 78 -23 92 -49 10 -20 4
-77 -8 -66 -3 4 -15 0 -27 -8 -11 -8 -30 -15 -41 -15 -16 0 -17 2 -5 9 8 6 17
8 21 5 4 -2 10 0 14 6 3 5 1 10 -6 10 -7 0 -5 6 6 14 28 20 27 51 -2 51 -13 0
-23 -4 -23 -10 0 -5 -5 -3 -10 5 -8 13 -11 12 -24 -5 -15 -21 -16 -41 -3 -62
5 -8 3 -13 -5 -13 -9 0 -9 -3 2 -10 23 -15 66 -12 80 5 10 12 15 13 21 4 5 -9
-9 -18 -44 -30 -29 -10 -54 -16 -56 -13 -2 2 2 4 10 5 8 0 4 4 -9 9 -12 5 -27
21 -32 35 -5 14 -13 26 -17 26 -45 7 -63 6 -63 -2 0 -5 -5 -9 -11 -9 -8 0 -8
4 -1 13 7 8 5 18 -8 35 -10 12 -20 22 -22 22 -2 0 -5 -20 -6 -45 -1 -43 0 -45
26 -45 15 0 38 -7 50 -16 20 -14 23 -23 20 -65 -2 -26 -8 -52 -13 -56 -4 -4
-5 -2 -1 5 11 18 -9 15 -26 -5 -14 -16 -12 -21 20 -48 31 -26 35 -27 30 -10
-4 18 11 45 27 45 3 0 5 -14 5 -30 0 -23 6 -33 23 -39 12 -5 28 -6 35 -4 6 3
12 0 12 -6 0 -17 -52 -34 -61 -20 -4 6 -12 8 -18 5 -6 -4 -14 -1 -17 8 -3 8
-13 17 -22 21 -12 4 -10 -1 6 -18 12 -13 22 -28 22 -34 0 -6 7 -17 17 -24 15
-13 15 -12 5 8 -18 34 -14 37 13 12 25 -25 34 -46 13 -33 -8 5 -9 2 -4 -12 5
-10 10 -37 13 -59 4 -28 17 -53 45 -85 27 -31 38 -38 33 -23 -3 12 -2 24 3 27
5 3 8 -8 7 -24 -1 -16 7 -42 17 -57 20 -29 81 -142 84 -155 1 -5 2 -12 3 -18
2 -14 77 -12 138 4 56 15 97 39 86 50 -4 4 0 4 10 0 13 -4 34 10 78 55 34 33
66 58 72 54 5 -3 7 -1 4 4 -8 12 19 83 31 83 4 0 13 -5 19 -11 14 -14 43 -5
43 14 0 8 -13 20 -30 27 -28 12 -29 13 -13 36 8 13 12 24 7 24 -4 0 -3 5 4 12
7 7 13 21 13 32 1 15 4 12 9 -9 5 -19 7 -3 4 45 -2 41 -6 118 -9 170 -3 52
-12 122 -20 155 -17 70 -19 98 -6 91 5 -4 4 10 -2 29 -6 20 -13 31 -17 24 -4
-6 -10 1 -14 17 -4 15 -29 71 -55 125 -41 84 -45 98 -32 106 12 8 17 6 23 -11
3 -11 15 -40 27 -63z m-4712 43 c-1 -19 -5 -34 -8 -33 -9 3 -74 -66 -71 -76 1
-4 -2 -6 -7 -3 -12 8 -33 -18 -23 -29 4 -5 2 -5 -5 -1 -6 3 -28 -5 -48 -18
-20 -14 -45 -28 -56 -31 -11 -4 -16 -11 -13 -17 5 -7 1 -9 -9 -5 -10 3 -17 2
-17 -2 0 -10 108 -31 156 -31 69 0 243 52 312 93 23 14 37 16 44 9 13 -13 2
-98 -14 -108 -6 -4 -8 1 -5 12 13 44 18 84 11 84 -3 0 -21 -8 -38 -19 -31 -18
-152 -59 -234 -78 -74 -18 -262 10 -262 39 0 5 21 19 48 31 96 45 196 131 224
193 15 32 18 30 15 -10z m-428 -22 c28 -36 27 -79 -4 -109 -49 -49 -115 -17
-115 55 0 75 76 109 119 54z m346 -4 c3 -5 -13 -28 -37 -49 -39 -37 -75 -54
-200 -100 l-47 -18 27 -25 c36 -33 112 -69 162 -75 22 -3 40 -11 40 -18 0 -33
-122 -180 -192 -231 -50 -37 -72 -39 -50 -4 16 25 15 30 -3 30 -8 0 -20 9 -27
20 -7 11 -16 20 -20 20 -4 0 -10 -9 -13 -20 -4 -11 -15 -20 -26 -20 -17 0 -18
-3 -9 -20 8 -16 8 -18 -4 -14 -25 10 -27 33 -3 45 12 6 30 21 39 32 l17 22 25
-25 c47 -45 66 -60 66 -50 0 6 5 10 11 10 21 0 100 84 96 102 -3 10 -1 16 3
13 10 -6 60 52 60 70 0 7 6 16 13 18 6 3 -3 6 -22 6 -64 2 -233 103 -216 131
3 5 20 10 37 10 27 0 91 24 167 63 13 6 25 20 27 31 2 15 -2 18 -29 14 -18 -3
-50 0 -72 6 -39 12 -37 12 34 10 60 -1 76 -5 81 -18 5 -16 8 -15 24 3 19 21
19 21 0 22 -18 0 -18 1 1 9 27 12 33 12 40 0z m1420 -136 c14 -9 25 -13 25 -8
0 5 6 -1 14 -12 19 -27 110 -48 178 -42 29 3 64 2 78 -3 16 -5 -22 -7 -101 -6
-101 2 -131 5 -145 18 -27 23 -64 41 -64 31 0 -5 23 -40 51 -77 49 -64 51 -69
34 -82 -32 -22 -106 -16 -145 12 -45 33 -54 21 -12 -15 70 -58 166 -60 229 -5
l28 24 -37 15 c-21 9 -38 20 -38 25 0 10 118 24 205 25 l49 1 33 -54 c18 -30
66 -90 108 -133 76 -79 87 -98 60 -98 -17 0 -20 -16 -5 -25 15 -9 12 -25 -5
-25 -8 0 -20 10 -26 22 -12 22 -12 22 -28 2 -9 -11 -24 -23 -35 -27 -17 -7
-18 -9 -2 -26 15 -17 15 -19 -4 -41 -11 -13 -20 -27 -20 -32 0 -4 -7 -8 -15
-8 -17 0 -19 -12 -5 -26 14 -14 -18 -72 -42 -80 -10 -3 -18 -14 -18 -25 0 -13
-4 -18 -12 -13 -10 5 -10 3 0 -7 11 -12 14 -12 22 1 8 13 10 13 10 -2 0 -28
-22 -33 -42 -8 l-19 23 -22 -20 c-37 -33 -59 -37 -78 -12 l-17 22 -11 -21 c-6
-12 -18 -22 -26 -22 -17 0 -18 -5 -6 -28 7 -13 3 -25 -15 -46 -14 -15 -28 -25
-32 -22 -3 4 -2 10 3 14 6 4 16 18 23 31 12 21 12 23 -2 18 -11 -5 -16 -1 -16
14 0 11 8 23 18 26 9 4 32 19 51 34 29 24 36 26 48 13 8 -7 11 -19 7 -25 -4
-8 1 -9 17 -4 13 4 27 13 31 19 4 6 14 20 22 31 15 20 15 20 16 0 0 -18 1 -18
16 3 8 12 21 22 27 22 7 0 18 9 25 21 11 18 11 24 -3 39 -20 22 -12 40 16 40
11 0 23 8 26 18 4 9 11 20 17 24 6 4 5 12 -3 22 -16 19 -8 46 13 46 8 0 18 9
21 20 4 12 15 20 28 20 50 1 46 15 -24 90 -39 41 -86 99 -105 127 l-34 53 -77
-3 c-84 -3 -112 -12 -94 -30 50 -50 -86 -118 -186 -93 -23 6 -50 19 -61 29
-12 11 -26 16 -31 12 -7 -4 -11 4 -11 19 0 17 -6 26 -16 26 -9 0 -14 5 -12 12
7 19 61 15 79 -6 8 -10 29 -19 47 -20 18 0 32 -4 32 -8 0 -3 8 -5 18 -3 9 2
20 4 25 4 17 2 5 29 -33 75 -22 26 -40 52 -40 58 0 5 -3 7 -7 5 -5 -3 -8 8 -9
24 -1 33 7 36 41 13z m-616 -134 c-4 -3 -11 -18 -14 -33 -4 -15 -12 -27 -18
-27 -6 0 -8 -3 -4 -6 6 -7 97 48 122 73 11 11 17 8 36 -18 17 -24 24 -28 31
-17 8 10 9 9 5 -3 -3 -10 8 -30 31 -52 39 -36 82 -57 82 -38 0 6 -4 11 -9 11
-12 0 -34 126 -30 163 7 51 24 28 40 -54 15 -78 18 -84 67 -128 27 -25 63 -55
78 -67 24 -18 28 -30 32 -82 6 -79 -21 -125 -83 -142 -45 -13 -75 -5 -114 29
-16 14 -27 18 -31 10 -4 -6 -7 28 -6 76 1 71 4 89 19 100 16 12 16 13 -6 19
-13 3 -47 29 -75 57 -33 33 -57 49 -67 46 -9 -4 -12 -13 -9 -24 4 -13 3 -14
-3 -5 -13 17 -73 -4 -73 -26 0 -14 -2 -14 -9 -3 -6 9 -20 11 -48 7 -32 -6 -42
-3 -57 13 -12 13 -16 26 -11 38 5 10 7 22 6 26 -1 5 3 6 9 2 5 -3 19 10 31 29
12 20 25 36 30 36 5 0 9 7 9 15 0 9 8 30 17 48 l17 32 7 -50 c3 -27 2 -52 -2
-55z m-536 39 c-59 -75 -90 -99 -130 -99 -77 0 -123 -87 -86 -160 36 -70 107
-75 151 -9 19 27 23 42 18 77 l-6 43 44 -6 c35 -6 65 0 142 24 54 18 113 43
131 57 29 22 32 23 30 5 0 -11 -4 -18 -8 -15 -4 2 -17 -4 -30 -14 -43 -31
-191 -75 -242 -71 l-47 4 0 -40 c0 -62 -28 -108 -72 -119 -95 -24 -167 77
-128 178 13 35 68 68 102 62 21 -4 35 2 65 31 24 23 33 38 25 40 -7 3 1 14 20
27 38 26 48 18 21 -15z m-423 -278 c0 -6 -4 -12 -9 -15 -5 -3 -7 -15 -4 -26 3
-11 0 -27 -7 -35 -12 -15 -6 -35 12 -35 5 0 8 6 5 14 -3 8 4 18 18 24 19 9 24
8 28 -9 3 -10 17 -23 32 -29 20 -8 25 -15 20 -30 -4 -14 -2 -20 9 -20 8 0 18
-9 21 -20 4 -14 15 -20 35 -20 20 0 31 6 35 20 8 24 23 25 50 3 19 -15 19 -15
-7 -9 -21 5 -30 2 -38 -14 -14 -27 -54 -26 -80 3 -21 22 -22 22 -32 2 -11 -19
-11 -19 -18 0 -4 12 -1 29 8 43 11 17 11 22 1 22 -7 0 -23 9 -35 21 l-22 21
-11 -21 c-7 -12 -18 -21 -26 -21 -17 0 -20 -16 -5 -25 6 -3 10 -15 10 -27 0
-16 5 -19 24 -14 15 4 28 0 36 -9 10 -12 10 -15 -1 -15 -10 0 -10 -3 -1 -12 7
-7 12 -22 12 -34 0 -18 6 -21 39 -21 33 0 40 3 43 21 2 11 10 21 18 21 8 0 16
-10 18 -21 3 -18 10 -21 43 -21 29 0 39 3 35 13 -6 16 22 46 38 41 6 -2 12
-14 14 -26 3 -17 9 -22 23 -18 23 6 69 -28 69 -51 0 -13 9 -18 39 -18 30 -1
38 2 34 12 -4 10 0 12 13 8 14 -4 16 -3 5 4 -7 5 -11 14 -7 20 6 10 -37 62
-51 62 -3 0 -11 -7 -18 -17 -7 -9 -17 -13 -24 -9 -9 6 -9 11 0 22 6 7 15 11
20 8 5 -3 9 -1 9 4 0 5 9 12 20 15 16 4 20 0 20 -19 0 -19 5 -24 25 -24 20 0
25 -5 25 -24 0 -13 7 -26 15 -30 8 -3 15 -12 15 -21 0 -8 9 -15 20 -15 26 0
37 -27 21 -51 -7 -12 -8 -19 -1 -19 6 0 13 6 16 14 10 25 30 25 59 0 31 -26
31 -26 62 -18 12 3 19 12 17 19 -6 14 30 27 53 18 8 -3 12 -12 9 -19 -3 -9 2
-14 15 -14 25 0 36 -27 20 -54 -9 -16 -7 -15 10 4 15 18 32 25 59 26 28 0 44
7 58 24 19 24 19 24 32 4 9 -14 20 -19 36 -16 13 2 24 8 24 12 0 5 7 16 16 25
12 12 19 13 30 4 8 -6 14 -17 14 -24 0 -14 53 -28 58 -15 2 4 11 18 21 29 l19
21 6 -25 c3 -13 20 -31 36 -40 39 -20 43 -19 34 8 -5 18 0 15 25 -13 26 -29
33 -32 41 -20 8 13 10 12 10 -2 0 -19 25 -25 35 -8 9 15 23 12 29 -7 3 -10 18
-23 32 -30 21 -10 28 -9 44 7 10 10 32 21 49 25 17 4 31 13 31 20 0 30 57 18
79 -17 9 -15 8 -18 -9 -18 -10 0 -25 10 -31 22 l-12 22 -15 -22 c-8 -12 -21
-22 -29 -22 -11 0 -13 -7 -9 -27 l7 -26 -27 18 c-25 16 -28 16 -36 1 -10 -17
-38 -22 -38 -6 0 6 -6 10 -14 10 -7 0 -20 10 -29 23 -15 21 -16 21 -29 4 -12
-16 -16 -17 -41 -4 -16 8 -34 23 -41 33 -13 17 -14 16 -25 -4 -13 -24 -34 -30
-29 -9 2 8 -11 26 -28 40 -29 25 -30 25 -42 6 -15 -24 -59 -17 -84 14 l-16 21
-19 -21 c-25 -29 -61 -39 -69 -19 -8 20 -30 21 -38 1 -3 -8 -12 -15 -21 -15
-8 0 -15 -9 -15 -20 0 -26 -14 -25 -33 3 l-16 22 -16 -22 c-9 -13 -25 -23 -36
-23 -20 0 -26 15 -9 25 15 9 12 35 -5 35 -8 0 -20 10 -26 22 l-12 22 -15 -22
c-8 -12 -21 -22 -29 -22 -11 0 -13 -5 -8 -17 4 -10 8 -26 10 -36 1 -15 11 -19
49 -22 54 -3 58 -6 60 -36 1 -18 7 -22 39 -23 32 -1 37 2 37 22 0 12 4 22 9
22 5 0 11 -10 15 -22 7 -29 -19 -51 -43 -38 -10 5 -23 5 -31 0 -19 -12 -51 11
-45 31 7 20 -47 43 -62 28 -17 -17 -45 2 -40 27 2 13 -1 25 -9 28 -16 6 -24
-3 -24 -29 0 -20 -5 -22 -52 -21 -48 1 -53 3 -53 24 -1 29 -25 44 -73 46 -32
1 -37 4 -37 24 0 13 -9 30 -19 37 -11 9 -15 19 -10 27 6 10 4 10 -9 -1 -11 -9
-17 -10 -17 -2 0 6 -7 11 -15 11 -9 0 -15 9 -15 24 0 14 -6 28 -12 33 -7 4
-83 8 -168 8 -149 0 -155 1 -153 20 1 11 -5 24 -13 28 -9 5 -13 16 -9 28 6 17
4 18 -20 9 -25 -10 -41 2 -33 26 1 5 -6 22 -16 37 -15 22 -24 27 -44 22 -13
-3 -30 0 -39 7 -12 10 -17 9 -27 -3 -6 -8 -18 -13 -27 -11 -9 1 -22 -4 -29
-13 -7 -8 -18 -15 -25 -15 -7 0 -25 -6 -39 -14 -15 -7 -63 -22 -106 -32 -74
-16 -77 -18 -54 -30 63 -33 238 -36 315 -6 32 13 39 7 39 -26 0 -44 -41 -117
-83 -147 -68 -50 -75 -49 -20 2 56 51 93 106 93 137 0 15 -5 17 -27 11 -16 -4
-75 -9 -133 -12 -91 -4 -113 -2 -163 17 -64 24 -69 40 -16 53 69 18 186 60
243 89 32 16 62 26 65 20 3 -5 23 -9 44 -10 29 -1 37 2 37 16 0 10 6 24 13 31
10 10 8 14 -6 23 -18 9 -18 11 -1 29 18 20 34 25 34 10z m-210 -65 c0 12 30
15 30 3 0 -8 -126 -69 -142 -69 -5 0 -50 -15 -99 -32 -98 -36 -108 -51 -69
-101 28 -36 76 -47 197 -47 60 0 104 -4 108 -10 12 -19 -25 -60 -88 -100 -34
-22 -82 -54 -106 -72 -75 -56 -121 -78 -163 -78 -55 0 -108 -51 -108 -105 0
-55 52 -105 110 -105 35 0 48 6 77 35 33 33 35 39 30 80 -2 25 -2 45 2 45 3 0
24 -7 46 -15 23 -8 78 -14 133 -15 50 0 92 -4 92 -8 0 -7 -23 -43 -84 -132
-27 -40 -76 -88 -76 -75 0 5 9 18 19 29 24 26 85 112 105 146 l14 25 -89 3
c-50 2 -101 7 -115 12 -35 14 -34 15 -34 -31 0 -57 -50 -109 -106 -109 -29 0
-35 -3 -24 -10 33 -21 -4 -8 -45 15 -123 72 -80 235 62 235 44 0 149 63 137
82 -4 7 -3 8 4 4 7 -4 37 10 68 31 30 21 64 43 74 48 80 46 67 61 -52 61 -57
0 -120 6 -140 13 -46 15 -88 63 -88 100 0 24 6 29 63 48 77 25 118 40 183 67
44 18 50 24 47 46 l-4 25 15 -25 c8 -14 15 -20 16 -14z m2044 -5 c36 -34 44
-97 18 -147 -43 -84 -142 -92 -201 -18 -33 41 -26 125 13 160 14 14 24 28 22
32 -2 4 24 5 59 2 49 -4 70 -11 89 -29z m515 22 c-4 -27 3 -35 26 -30 14 2 23
2 20 -1 -3 -3 12 -17 33 -30 20 -14 39 -28 42 -31 3 -3 21 -14 40 -24 19 -10
46 -24 60 -31 26 -15 48 -24 114 -50 33 -14 37 -19 32 -41 -5 -21 -3 -25 14
-25 31 0 78 -27 91 -53 13 -23 21 -137 9 -117 -5 9 -11 6 -21 -7 -20 -28 -52
-43 -94 -43 -29 0 -45 8 -71 34 -32 32 -39 48 -35 88 2 14 -11 11 -81 -19 -60
-26 -100 -36 -148 -39 l-65 -3 65 10 c58 9 96 23 204 75 42 20 45 18 39 -21
-7 -43 16 -81 60 -100 87 -36 170 54 127 136 -12 22 -61 49 -90 49 -15 0 -20
6 -20 29 0 27 -6 32 -55 50 -73 27 -120 52 -230 118 -108 66 -103 62 -85 73
18 12 20 12 19 3z m-42 -65 c49 -34 102 -74 118 -90 17 -15 66 -41 110 -57 83
-30 95 -41 74 -67 -13 -16 -116 -67 -182 -90 -52 -18 -145 -18 -181 1 -16 9
-31 13 -33 11 -11 -10 40 -86 92 -137 32 -31 55 -61 51 -67 -10 -16 -144 -35
-202 -29 -29 3 -76 17 -105 31 l-51 26 5 -23 c4 -12 11 -47 18 -77 14 -66 22
-82 66 -136 39 -48 41 -62 11 -73 -29 -10 -158 3 -220 22 -84 26 -187 100
-229 163 -11 17 -19 23 -19 14 0 -42 108 -154 178 -186 30 -13 85 -33 123 -44
75 -23 91 -35 32 -25 -111 19 -214 71 -275 138 -26 29 -48 46 -48 39 0 -7 -5
-10 -10 -7 -7 4 -8 -7 -4 -33 5 -31 1 -49 -16 -81 -28 -48 -65 -65 -126 -58
-121 13 -151 161 -45 224 24 14 41 21 37 15 -3 -6 2 -13 11 -15 11 -3 7 -5
-10 -6 -43 -2 -87 -51 -87 -96 0 -20 5 -45 10 -56 15 -28 63 -49 110 -49 116
0 139 168 27 199 l-32 8 29 8 c25 7 33 4 52 -18 26 -31 61 -28 44 3 -6 10 -10
28 -10 39 0 12 -4 21 -10 21 -5 0 -10 7 -10 15 0 8 7 15 15 15 8 0 15 -4 15
-10 0 -21 123 -139 168 -161 26 -13 49 -27 52 -31 19 -25 250 -51 250 -28 0 7
-18 32 -40 57 -22 25 -40 53 -40 63 0 9 -9 54 -21 99 -24 94 -16 120 23 84 39
-35 116 -63 175 -63 30 0 52 4 49 8 -3 5 15 9 39 9 25 0 48 3 51 6 4 4 -18 30
-48 59 -30 29 -66 78 -80 108 l-27 55 22 3 c12 2 23 -1 25 -7 2 -6 12 -11 23
-11 10 0 19 -4 19 -10 0 -15 102 -12 148 4 86 31 182 81 180 95 -2 8 -25 22
-53 31 -81 28 -98 36 -129 65 -16 14 -63 50 -105 78 -42 29 -79 57 -83 62 -4
6 -8 2 -8 -9 0 -16 -5 -18 -35 -13 -29 5 -35 3 -35 -12 0 -26 -26 -44 -54 -39
-14 3 -31 1 -38 -3 -9 -6 -4 -9 15 -9 27 0 36 -17 18 -35 -5 -6 -11 -21 -13
-35 -2 -20 -9 -25 -30 -25 -16 1 -28 -3 -28 -7 0 -4 -4 -8 -10 -8 -5 0 -10 7
-10 15 0 15 10 19 43 16 11 -2 17 5 17 18 0 11 5 23 10 26 16 10 11 22 -11 28
-32 9 -17 32 20 31 26 -2 31 2 31 21 0 26 27 40 73 37 15 -1 27 1 26 5 -5 33
-2 32 98 -39z m-1623 -10 c24 -22 30 -40 27 -80 -4 -58 -102 -80 -140 -32 -63
80 38 179 113 112z m1372 -164 c-3 -9 -6 -20 -6 -25 0 -6 -4 -8 -9 -4 -6 3 -9
-7 -8 -22 2 -26 0 -28 -40 -28 -49 0 -56 -5 -57 -42 -1 -27 -3 -28 -56 -28
-32 0 -58 -5 -63 -12 -4 -7 -14 -10 -22 -7 -9 4 -12 0 -9 -13 3 -11 -2 -25
-10 -32 -9 -8 -16 -22 -16 -33 0 -15 -7 -18 -32 -17 -47 2 -62 -3 -69 -26 -4
-16 -14 -20 -45 -20 -40 0 -45 -8 -29 -47 4 -11 3 -18 -5 -18 -6 0 -9 4 -6 9
3 5 -1 11 -9 15 -22 8 -18 44 6 56 11 7 31 9 44 6 19 -5 24 -2 27 16 3 21 8
23 56 22 47 0 52 2 52 22 0 13 5 26 10 29 16 10 11 22 -11 28 -31 8 -12 30 22
25 23 -4 29 -1 29 14 0 11 4 16 10 13 6 -3 7 1 4 9 -4 11 0 16 10 16 9 0 16
-8 16 -18 0 -13 9 -18 41 -18 31 -1 39 2 35 13 -3 8 6 25 19 39 20 20 32 24
55 19 27 -6 30 -4 30 19 0 13 5 28 10 31 6 4 8 11 5 16 -4 5 1 9 10 9 12 0 15
-5 11 -16z m716 -81 c42 -37 8 -123 -49 -123 -31 0 -73 43 -73 75 0 55 79 87
122 48z m-3012 -103 c0 -5 -20 -21 -45 -36 -25 -14 -42 -31 -38 -36 3 -7 1 -8
-6 -4 -14 9 -44 -20 -35 -35 11 -19 208 -5 287 21 37 12 67 26 67 31 0 5 9 9
19 9 10 0 45 13 76 30 31 16 61 27 67 24 26 -16 -23 -172 -61 -196 -12 -7 -21
-16 -21 -20 0 -9 98 16 151 40 48 21 168 100 206 134 46 43 67 -2 52 -111 -5
-36 -11 -66 -13 -68 -2 -2 -1 37 2 87 5 99 1 105 -45 67 -125 -102 -305 -184
-360 -163 -14 6 -11 13 20 44 27 28 40 53 51 99 7 34 12 64 9 67 -3 3 -15 -2
-28 -10 -38 -25 -220 -92 -281 -103 -118 -22 -224 -8 -224 29 0 7 134 107 148
109 1 1 2 -3 2 -9z m300 -123 c0 -15 -51 -65 -94 -91 -39 -25 -23 -36 61 -43
86 -7 177 18 300 82 45 23 85 40 88 37 9 -9 5 -23 -5 -17 -6 3 -23 -3 -39 -14
-16 -12 -34 -21 -41 -21 -7 0 -35 -13 -64 -28 -75 -42 -145 -56 -240 -49 -88
7 -119 24 -96 51 7 9 18 16 24 16 14 0 99 70 93 76 -2 3 -17 -2 -33 -11 -16
-8 -34 -15 -41 -15 -20 0 -70 -53 -93 -100 -13 -25 -26 -47 -29 -50 -4 -3 -18
-21 -31 -40 -13 -19 -31 -42 -39 -50 -13 -13 -12 -15 8 -18 12 -2 25 -10 28
-18 3 -8 10 -11 17 -7 6 3 8 3 4 -2 -10 -11 10 -45 27 -45 7 0 21 -14 29 -32
19 -37 20 -41 6 -33 -6 4 -18 1 -26 -6 -20 -16 -31 -2 -16 21 10 16 8 23 -14
45 -25 25 -27 25 -45 9 -18 -16 -19 -16 -19 2 0 11 6 26 12 32 10 10 8 14 -10
18 -30 8 -28 17 19 79 22 30 56 82 74 117 32 58 38 65 97 89 73 31 88 34 88
16z m720 -2 c0 -2 -9 -30 -21 -62 -22 -62 -71 -116 -144 -159 -44 -25 -217
-66 -269 -62 -63 4 -72 54 -21 113 19 22 43 59 52 82 17 42 33 56 33 31 0 -21
-56 -111 -84 -137 -53 -50 -19 -77 88 -68 138 11 262 79 312 170 25 46 25 78
0 47 -27 -34 -78 -74 -75 -59 7 28 129 128 129 104z m-1261 -31 c28 -35 26
-69 -4 -99 -49 -50 -135 -17 -135 50 0 12 9 34 21 49 16 20 29 26 59 26 30 0
43 -6 59 -26z m1511 -81 c0 -74 16 -119 37 -102 7 6 13 18 13 26 0 8 4 12 10
8 5 -3 16 8 25 25 18 34 22 35 49 15 16 -12 22 -12 28 -2 5 9 8 7 8 -5 0 -23
20 -34 31 -17 6 10 9 8 9 -8 0 -13 6 -23 14 -23 9 0 12 8 8 25 -5 29 6 95 16
95 13 0 82 -156 82 -184 0 -28 -1 -29 -45 -23 -25 4 -69 17 -97 29 -39 16 -53
19 -56 9 -2 -7 -15 -16 -28 -21 -20 -8 -23 -15 -19 -37 3 -17 2 -21 -2 -11 -7
16 -10 16 -43 1 -19 -9 -37 -18 -38 -19 -2 -1 6 -16 18 -32 51 -69 29 -164
-47 -200 -21 -9 -41 -21 -45 -27 -5 -6 -8 -6 -8 2 0 17 24 38 58 52 71 29 71
164 1 186 -31 10 -22 22 34 48 28 14 67 39 86 56 40 36 49 37 100 11 45 -23
121 -37 121 -23 0 5 -15 40 -33 78 -35 71 -59 77 -37 9 19 -57 1 -62 -67 -20
-32 20 -63 36 -69 36 -6 0 -23 -18 -38 -40 -23 -35 -81 -81 -122 -97 -21 -8
-17 18 11 79 16 34 25 71 25 103 0 61 -12 50 -35 -30 -9 -33 -32 -88 -52 -123
-19 -35 -32 -66 -29 -69 3 -3 -8 -21 -24 -40 -40 -45 -41 -98 -4 -142 14 -17
36 -32 47 -32 19 -1 20 -2 3 -6 -20 -5 -66 15 -66 29 0 5 -7 16 -15 24 -27 27
-10 125 26 147 10 6 19 21 19 32 0 11 11 36 24 56 13 19 38 73 54 120 45 126
44 123 53 107 5 -7 9 -41 9 -75z m1134 30 c51 -4 74 -10 90 -25 11 -11 47 -38
79 -61 48 -34 57 -45 53 -63 -4 -13 -2 -26 4 -29 15 -9 12 -35 -5 -41 -9 -4
-25 4 -40 20 -16 17 -19 26 -10 26 8 0 21 -10 29 -22 9 -12 18 -19 22 -15 3 3
-3 18 -15 33 -14 18 -18 30 -11 34 7 5 6 11 -5 20 -8 7 -15 10 -15 6 0 -3 -8
2 -18 12 -45 42 -83 72 -93 72 -5 0 -7 5 -4 10 5 8 -10 9 -43 4 -30 -4 -64 -2
-83 5 -18 6 -34 10 -35 8 -8 -8 19 -79 32 -84 8 -3 14 -11 14 -18 0 -8 19 -30
42 -49 38 -33 41 -39 32 -63 -11 -33 -47 -53 -94 -52 l-35 1 41 11 c47 14 74
33 74 54 0 8 -19 33 -41 55 -44 44 -95 140 -84 159 4 6 16 8 29 3 11 -4 52 -9
90 -11z m151 -212 c-3 -6 -13 -11 -21 -11 -16 0 -18 -9 -5 -29 7 -10 1 -23
-19 -43 -16 -15 -33 -28 -39 -28 -14 0 -14 -13 0 -27 6 -6 8 -21 4 -34 l-8
-23 -18 22 c-17 22 -18 22 -31 3 -8 -11 -27 -23 -42 -27 -23 -5 -32 -2 -46 16
l-18 23 -11 -21 c-6 -12 -18 -22 -26 -22 -17 0 -20 -16 -5 -25 6 -3 10 -16 10
-29 0 -20 5 -23 38 -21 24 1 36 6 34 14 -3 15 16 41 29 41 5 0 9 -10 9 -23 0
-20 5 -22 40 -22 30 0 40 4 40 15 0 36 25 70 52 70 14 0 34 3 44 7 12 4 15 2
12 -8 -3 -8 -17 -13 -37 -13 -18 1 -31 -3 -31 -10 0 -7 -5 -17 -12 -24 -7 -7
-13 -22 -13 -35 0 -14 -5 -21 -15 -18 -8 2 -24 3 -35 3 -11 0 -26 -1 -34 -3
-8 -3 -17 7 -22 21 -7 27 -12 19 -10 -16 2 -19 -2 -21 -59 -17 -58 4 -61 3
-55 -16 4 -14 0 -23 -17 -32 -16 -9 -23 -9 -26 0 -6 19 -22 1 -22 -25 0 -14
-4 -22 -10 -19 -5 3 -10 -2 -10 -12 0 -22 -36 -49 -42 -31 -3 7 -18 12 -34 13
-25 0 -29 4 -27 25 1 14 -1 20 -3 13 -3 -7 -12 -9 -19 -6 -8 3 -32 6 -52 6
-32 2 -38 6 -38 24 0 12 -4 25 -8 29 -4 4 -7 -2 -7 -14 0 -18 -5 -20 -52 -18
-47 1 -53 4 -54 24 -2 27 -2 27 -36 36 -15 3 -30 1 -33 -4 -5 -8 -11 -7 -21 1
-8 6 -14 8 -15 3 -1 -5 -2 -18 -3 -29 -1 -17 -8 -20 -48 -19 -27 0 -48 -3 -48
-8 0 -4 6 -8 12 -8 7 0 2 -10 -10 -22 -18 -18 -26 -21 -40 -11 -10 6 -30 9
-45 6 -17 -3 -27 -1 -27 7 0 6 -6 10 -12 7 -7 -2 -23 0 -35 4 -13 5 -23 5 -23
0 0 -5 -9 -7 -20 -4 -15 4 -20 0 -20 -15 0 -25 -13 -29 -70 -26 -41 3 -43 2
-26 -11 27 -20 17 -26 -44 -29 -36 -2 -57 2 -68 13 -16 16 -116 25 -106 9 6
-10 -20 -38 -35 -38 -6 0 -11 5 -11 10 0 6 7 10 15 10 9 0 15 9 15 25 0 24 2
24 55 20 33 -2 55 0 55 6 0 6 5 7 10 4 6 -3 10 -14 10 -24 0 -15 8 -18 39 -18
33 0 40 3 43 21 3 18 10 21 50 21 40 -1 48 2 50 20 3 17 11 20 56 23 36 2 52
7 52 17 0 28 20 26 26 -3 5 -26 10 -29 44 -29 32 0 40 4 42 21 3 18 9 21 51
20 39 -1 47 2 47 17 0 24 13 31 65 31 47 1 75 -14 75 -41 0 -12 10 -17 41 -17
30 -1 39 2 35 12 -3 7 -1 16 5 20 14 8 39 -15 39 -36 0 -14 9 -18 40 -18 32
-1 40 3 40 17 0 9 6 23 12 29 10 10 8 14 -9 18 -12 4 -25 15 -28 25 -8 25 -22
24 -35 -1 -11 -21 -40 -28 -40 -10 0 6 -6 10 -14 10 -8 0 -22 10 -31 23 l-16
22 -16 -22 c-17 -25 -53 -31 -53 -10 0 7 6 19 13 26 10 11 9 14 -1 18 -7 3
-22 15 -33 27 -18 19 -22 19 -32 5 -7 -8 -21 -18 -31 -22 -15 -6 -17 -10 -8
-19 18 -18 15 -28 -8 -28 -10 0 -24 9 -30 19 -14 27 -13 31 9 31 11 0 33 13
49 30 l30 29 31 -29 c17 -17 36 -30 42 -30 7 0 9 -10 5 -26 -5 -17 -3 -23 4
-19 5 3 10 14 10 25 0 13 5 17 20 13 11 -3 20 -14 20 -24 0 -14 7 -19 25 -19
14 0 25 -4 25 -10 0 -5 5 -10 10 -10 6 0 10 7 10 15 0 9 9 15 25 15 15 0 25
-6 25 -14 0 -8 8 -17 19 -21 10 -3 27 -15 37 -26 17 -19 17 -20 -4 -26 -23 -6
-28 -18 -12 -28 6 -3 10 -14 10 -24 0 -25 69 -35 77 -12 20 61 28 72 51 68 16
-3 25 1 29 12 2 9 9 24 14 33 12 24 11 28 -5 28 -8 0 -18 5 -21 10 -4 6 -1 9
6 8 7 -2 13 4 14 13 0 17 56 69 73 69 5 0 16 -9 23 -21 13 -18 17 -19 42 -8
16 7 26 18 23 26 -8 19 24 16 46 -4 10 -9 18 -12 18 -6 0 5 -9 18 -20 28 -26
23 -25 35 1 35 12 0 32 11 44 25 20 21 21 26 9 36 -16 13 -10 24 28 43 26 14
33 13 23 -3z m-1922 -39 c28 -28 31 -38 31 -88 0 -51 -3 -59 -32 -85 -18 -17
-49 -31 -72 -35 -23 -4 -40 -12 -40 -19 0 -8 -5 -15 -11 -17 -7 -2 -2 -14 12
-30 28 -30 74 -29 84 3 9 29 72 22 78 -8 5 -28 -19 -31 -39 -5 -13 16 -15 16
-28 -1 -8 -10 -29 -20 -48 -24 -29 -4 -40 0 -62 22 -21 21 -24 30 -15 41 9 11
4 20 -20 45 -25 25 -32 28 -37 15 -3 -9 -10 -16 -15 -16 -10 0 -7 35 4 46 3 4
-8 20 -26 36 -31 30 -31 30 -45 9 -20 -30 -74 -29 -95 2 l-15 22 -18 -23 c-17
-20 -23 -22 -47 -13 -36 14 -35 25 2 18 23 -5 33 -1 45 16 l15 22 20 -23 c11
-13 25 -21 31 -17 5 3 10 1 10 -4 0 -19 20 -12 45 15 l25 27 25 -27 c28 -31
35 -32 33 -8 -4 50 4 73 40 108 34 33 40 36 85 31 38 -3 56 -11 80 -35z m2587
12 c0 -2 -8 -16 -17 -31 -17 -26 -17 -26 4 -14 83 44 168 -38 141 -136 -12
-43 -43 -63 -99 -63 -41 0 -51 4 -74 32 -22 26 -26 40 -23 75 3 46 -7 57 -22
21 -5 -13 -9 -20 -9 -15 -1 4 -15 -5 -32 -20 -38 -34 -156 -84 -186 -79 -33 5
-28 -10 7 -26 17 -7 30 -16 30 -20 0 -4 18 -13 40 -19 43 -13 65 -32 56 -48
-13 -20 -104 -64 -176 -84 -90 -25 -224 -34 -246 -17 -26 22 -15 31 18 14 41
-21 115 -14 229 22 101 32 162 61 157 76 -2 6 -20 17 -40 24 -52 18 -120 63
-115 77 2 7 25 15 50 19 69 9 145 50 208 110 70 65 86 93 67 115 -12 15 -11
15 10 4 12 -6 22 -14 22 -17z m-3280 -40 c0 -11 6 -14 20 -9 25 8 62 -31 56
-58 -4 -15 0 -18 19 -13 20 5 27 0 40 -28 9 -19 14 -39 11 -44 -3 -5 15 -9 40
-9 38 0 44 3 38 19 -4 13 0 18 15 18 12 0 22 -6 22 -12 1 -7 2 -19 3 -27 1 -9
14 -14 38 -15 33 -1 38 2 40 24 4 34 43 36 42 3 0 -18 5 -23 25 -23 18 0 30
-8 37 -24 9 -20 8 -23 -7 -19 -10 3 -16 10 -13 17 3 9 -19 11 -86 10 -52 -2
-90 1 -90 7 0 5 -11 7 -24 3 -13 -3 -27 -1 -31 6 -5 8 -11 8 -21 -1 -11 -9
-19 -8 -34 6 -14 13 -17 21 -9 26 17 10 -24 51 -47 47 -15 -2 -19 3 -19 23 0
14 -7 32 -15 40 -30 28 -113 9 -94 -22 5 -8 3 -9 -5 -4 -8 4 -27 -5 -49 -22
-36 -28 -141 -77 -149 -69 -2 2 29 20 69 39 42 21 92 55 118 81 47 49 60 55
60 30z m3170 -2 c0 -42 -227 -159 -286 -147 -61 12 -84 13 -84 5 0 -24 86 -91
141 -111 33 -12 62 -25 64 -29 9 -15 -22 -28 -118 -50 -119 -28 -171 -24 -262
18 -37 18 -69 32 -71 32 -22 0 33 -153 77 -214 41 -57 38 -66 -18 -65 -27 1
-38 4 -25 6 12 2 19 9 16 15 -4 6 3 5 16 -2 32 -17 32 -10 -2 40 -43 63 -78
152 -78 200 0 22 2 40 4 40 2 0 39 -17 81 -37 63 -29 90 -37 139 -37 68 -1
186 22 186 35 0 5 10 9 23 10 13 0 1 8 -30 18 -85 29 -173 114 -173 168 0 18
6 17 40 -8 42 -32 127 -23 216 22 38 19 68 40 67 47 -2 6 0 11 5 10 4 -1 18 4
32 12 l25 14 -25 7 c-23 6 -23 7 8 8 17 1 32 -3 32 -7z m-1866 -23 c36 -28 36
-81 0 -114 -31 -29 -44 -30 -83 -10 -48 24 -56 81 -16 120 30 30 64 32 99 4z
m243 -141 c-3 -29 50 -45 69 -20 10 13 15 14 25 5 6 -6 18 -9 25 -6 8 3 14 1
14 -5 0 -6 3 -17 6 -26 9 -25 -21 -19 -39 7 l-16 22 -15 -22 c-15 -20 -18 -21
-46 -7 -16 9 -34 23 -40 32 -10 15 -12 15 -26 -5 -9 -13 -23 -23 -30 -23 -17
0 -18 -12 -3 -27 8 -8 8 -13 0 -17 -6 -4 -21 3 -34 16 l-23 24 -27 -28 c-17
-17 -25 -33 -20 -43 4 -13 1 -16 -13 -13 -14 3 -19 11 -17 33 1 17 -1 22 -4
12 -2 -9 -9 -15 -14 -11 -5 3 -18 -5 -29 -18 -16 -19 -19 -20 -20 -5 0 9 -6
17 -14 17 -8 0 -22 10 -30 22 l-16 22 -20 -22 c-12 -12 -26 -22 -31 -22 -6 0
-9 -7 -5 -15 8 -23 -21 -18 -37 6 l-15 20 -15 -21 c-18 -26 -52 -20 -78 13
l-17 20 -11 -21 c-13 -25 -41 -30 -41 -8 0 20 17 29 24 14 3 -7 3 -1 0 14 -5
23 -3 26 15 21 12 -3 27 -13 34 -22 21 -30 47 -33 67 -9 14 18 21 20 32 11 18
-16 56 -6 63 17 9 29 45 32 55 6 11 -29 51 -42 63 -20 4 8 13 11 19 8 6 -4 14
0 19 7 6 10 9 11 9 2 0 -7 9 -13 20 -13 14 0 18 5 13 18 -3 9 -3 14 2 10 4 -4
14 0 21 10 10 14 15 15 25 5 20 -20 31 -15 25 10 -3 12 -3 16 0 10 9 -20 42
-15 49 6 3 11 16 22 28 24 12 2 23 5 24 6 2 0 2 -9 0 -21z m-1822 -4 c-11 -8
-31 -17 -45 -20 -14 -3 -42 -10 -63 -16 l-39 -9 39 -20 c67 -35 155 -57 259
-63 99 -7 101 -6 187 30 56 23 85 40 81 47 -4 7 1 5 10 -4 15 -14 16 -21 5
-58 -12 -41 -111 -171 -129 -171 -18 0 -110 -72 -104 -81 11 -19 44 -9 45 14
l2 22 4 -22 c6 -29 63 -38 197 -29 69 4 96 3 86 -4 -17 -11 -240 -12 -310 -2
-65 10 -61 29 18 82 83 55 129 102 165 169 33 60 29 62 -68 21 -60 -26 -82
-30 -162 -30 -116 0 -179 13 -272 57 -84 39 -83 47 5 70 32 8 66 19 74 24 25
14 36 9 15 -7z m656 -85 c53 -28 70 -120 33 -175 -14 -21 -18 -34 -11 -37 6
-2 3 -6 -6 -10 -9 -3 -17 -2 -17 2 0 5 -13 4 -29 -2 -47 -18 -115 14 -135 62
-12 32 -20 128 -9 117 2 -2 19 12 39 32 32 32 38 34 75 28 23 -4 50 -11 60
-17z m-646 -73 c113 -30 177 -32 258 -11 71 19 67 19 67 -4 0 -19 -99 -118
-149 -148 -69 -42 -100 -66 -96 -73 3 -4 35 -11 72 -14 38 -4 101 -14 142 -23
151 -32 312 -1 420 83 24 19 48 34 53 34 14 0 9 -37 -7 -50 -8 -7 -15 -18 -15
-24 0 -6 -23 -44 -50 -85 -28 -40 -50 -78 -50 -83 0 -6 14 -8 33 -4 17 3 73 8
122 11 67 3 81 2 55 -5 -19 -5 -43 -7 -52 -4 -10 3 -47 -2 -83 -11 -60 -15
-66 -15 -81 0 -15 14 -14 19 12 58 32 46 37 54 77 123 15 25 27 48 27 51 0 2
-17 -9 -37 -26 -102 -80 -271 -110 -438 -78 -44 9 -108 19 -143 22 -41 5 -65
12 -69 21 -6 16 26 47 70 70 15 8 38 23 49 32 30 24 128 119 128 125 0 2 -23
-2 -52 -9 -88 -23 -179 -18 -292 17 -56 17 -105 35 -110 40 -6 5 -20 9 -33 9
-16 0 -21 4 -17 15 5 12 13 11 48 -9 22 -14 86 -36 141 -50z m2728 14 c55 -33
64 -101 20 -150 -49 -54 -141 -50 -178 7 -18 26 -27 113 -12 113 5 0 18 11 29
25 25 32 91 34 141 5z m-662 -35 c55 -29 67 -114 22 -157 -40 -38 -94 -45
-138 -19 -19 11 -35 17 -35 13 0 -10 58 -48 121 -78 30 -15 49 -29 42 -31 -30
-11 -203 106 -203 138 0 16 -36 10 -52 -8 -30 -35 -67 -109 -72 -145 -3 -21
-8 -54 -11 -73 -8 -46 -23 -44 -82 6 -54 47 -84 96 -92 153 l-6 38 -85 -76
c-103 -91 -162 -126 -187 -110 -14 9 -18 26 -19 85 -1 71 -15 129 -32 129 -11
0 -52 -29 -87 -61 -41 -39 -163 -88 -270 -110 -103 -21 -145 -24 -145 -8 0 6
16 38 35 71 36 61 60 137 47 150 -4 4 -43 -11 -87 -33 -94 -48 -185 -82 -185
-69 0 5 18 15 41 21 23 7 43 19 46 26 3 7 9 10 14 8 5 -3 47 14 93 38 47 25
88 42 91 39 12 -12 3 -80 -15 -120 -10 -23 -16 -50 -13 -59 5 -12 3 -14 -7 -8
-10 6 -12 4 -7 -8 4 -10 1 -17 -6 -17 -7 0 -18 -9 -25 -20 -7 -11 -11 -20 -9
-20 2 0 48 9 103 20 142 30 245 72 299 123 37 35 83 60 99 54 19 -8 36 -78 36
-151 0 -78 11 -83 81 -37 64 43 169 140 165 154 -1 7 -1 9 1 5 3 -5 13 -3 23
2 20 11 26 0 28 -51 2 -38 27 -91 57 -119 22 -21 28 -22 36 -10 9 12 10 11 5
-4 -6 -17 16 -45 35 -46 4 0 12 30 19 67 6 36 18 79 26 95 8 15 12 40 9 55 -4
21 -3 23 3 9 9 -21 25 -8 19 16 -2 7 -2 10 0 6 3 -4 18 3 35 15 l30 22 18 -22
18 -23 -5 38 c-4 33 -1 44 27 75 28 32 38 37 77 37 24 0 57 -7 74 -15z m837
-55 c1 -31 46 -100 66 -100 6 -1 25 -12 41 -25 35 -29 29 -47 -26 -77 -31 -18
-49 -19 -194 -14 -88 3 -171 8 -185 11 -23 6 -23 5 -8 -8 10 -8 15 -17 11 -20
-3 -4 -1 -7 6 -7 8 0 11 -11 9 -27 -3 -27 -5 -28 -58 -27 -99 2 -262 61 -302
109 -9 11 -20 17 -24 13 -4 -5 12 -30 34 -57 70 -83 55 -101 -67 -82 -42 6
-85 12 -96 14 -11 1 -22 5 -25 8 -3 4 -36 19 -75 34 -38 16 -86 39 -105 52
-45 30 -60 29 -60 -3 0 -14 -4 -23 -9 -20 -16 10 -41 -77 -34 -122 5 -36 2
-46 -18 -65 -21 -20 -22 -20 -14 -2 4 11 11 49 14 85 6 66 43 157 66 166 7 3
41 -11 76 -30 123 -67 315 -121 365 -102 15 6 15 9 -8 34 -69 74 -74 136 -7
86 53 -39 96 -59 194 -88 85 -24 135 -26 135 -4 0 5 -11 24 -26 43 -14 18 -21
36 -17 38 5 3 42 2 82 -4 40 -5 125 -10 189 -11 101 -2 121 0 150 17 17 11 32
24 32 30 0 6 -17 21 -38 32 -58 33 -106 112 -87 142 10 17 12 13 13 -19z
m-626 -112 c44 -34 124 -78 141 -78 7 0 30 -9 52 -20 50 -26 53 -25 26 4 -21
22 -51 101 -51 134 0 20 46 7 90 -26 20 -16 55 -29 85 -34 86 -13 142 -25 115
-27 -64 -2 -179 27 -222 57 -25 17 -48 29 -51 26 -9 -9 25 -98 46 -122 16 -17
18 -25 9 -34 -19 -19 -208 70 -303 144 -20 15 -42 28 -49 28 -19 0 -4 -107 22
-148 26 -43 13 -61 -28 -37 l-29 16 34 -6 35 -5 -22 22 c-27 30 -43 155 -21
168 14 10 56 -12 121 -62z m-1054 -80 c2 -14 -5 -52 -15 -85 -9 -32 -18 -62
-18 -68 0 -15 83 -6 137 15 55 21 93 48 159 112 53 52 50 53 87 -27 35 -75 76
-112 139 -126 29 -7 53 -16 53 -21 0 -11 -24 -10 -57 4 -36 14 -56 15 -66 3
-5 -6 -7 -4 -5 5 3 8 -8 25 -24 38 -15 13 -28 28 -28 34 0 5 -8 22 -19 36 -10
15 -21 40 -25 56 l-7 29 -17 -24 c-38 -55 -165 -137 -225 -144 -125 -17 -117
-17 -117 8 0 13 7 37 14 53 8 16 18 48 22 72 5 34 4 42 -8 42 -9 0 -21 -7 -28
-15 -9 -11 -9 -15 -1 -15 7 0 10 -4 6 -10 -3 -5 -12 -7 -20 -3 -9 3 -26 -2
-39 -11 -14 -8 -53 -25 -88 -37 -35 -12 -67 -25 -73 -30 -5 -5 -23 -9 -40 -9
-22 0 -8 8 52 29 93 33 174 75 200 103 23 25 47 19 51 -14z"/>
<path d="M5305 5944 c-21 -14 -44 -32 -52 -40 -8 -8 -19 -14 -24 -14 -5 0 -9
-10 -10 -22 0 -13 -3 -17 -6 -10 -3 8 -11 4 -25 -13 -11 -14 -16 -30 -12 -37
4 -7 4 -10 -1 -6 -11 11 -37 -20 -39 -46 0 -13 -5 -22 -10 -18 -5 3 -7 -2 -3
-10 3 -9 2 -19 -3 -24 -5 -5 -12 -38 -15 -74 -7 -70 12 -157 33 -153 6 2 9 -4
6 -11 -3 -8 2 -22 10 -33 9 -10 22 -27 30 -38 9 -11 16 -14 16 -7 0 6 7 12 16
12 14 0 14 -3 4 -15 -10 -12 -10 -15 3 -15 8 0 18 -7 21 -16 4 -9 13 -14 22
-10 9 3 12 2 9 -5 -4 -6 -1 -9 6 -8 8 1 33 -3 57 -11 34 -11 53 -11 90 -2 26
6 65 14 86 17 64 11 176 70 176 93 0 7 4 11 9 8 15 -9 83 76 71 88 -15 15 -12
30 4 17 11 -9 15 -5 20 20 8 42 8 164 -1 172 -3 4 -8 19 -9 33 -3 30 -22 56
-36 48 -5 -3 -12 3 -14 14 -9 34 -80 61 -149 55 -64 -5 -115 -20 -115 -34 0
-5 -6 -9 -13 -9 -19 0 -90 -80 -111 -125 -21 -44 -18 -81 14 -147 15 -34 30
-50 52 -57 85 -30 163 5 197 88 24 56 -17 111 -83 111 -33 0 -50 -23 -37 -49
17 -30 13 -68 -6 -76 -13 -4 -27 4 -50 29 -40 43 -45 98 -12 140 19 24 18 31
-3 27 -5 0 -8 4 -8 9 0 12 10 13 29 1 9 -6 25 -2 45 10 50 29 133 34 178 11
27 -14 40 -16 48 -8 8 8 9 6 4 -9 -7 -18 -6 -19 12 -5 18 14 18 14 5 -3 -11
-13 -12 -21 -3 -25 18 -12 7 -113 -20 -179 -24 -60 -65 -121 -81 -122 -5 -1
-23 -12 -40 -25 -47 -34 -91 -46 -172 -46 -62 0 -77 4 -118 30 -26 16 -50 37
-53 45 -4 8 -11 12 -17 8 -5 -3 -7 -1 -4 4 4 6 0 27 -8 47 -23 54 -19 120 12
190 15 33 31 63 35 64 4 2 8 9 8 16 0 6 22 28 50 49 61 45 83 77 73 103 -12
28 -46 27 -88 -2z"/>
<path d="M2343 3493 c-35 -7 -73 -59 -73 -100 0 -100 147 -129 196 -38 39 74
-32 154 -123 138z m82 -48 c31 -30 32 -56 2 -91 -27 -31 -64 -35 -102 -10 -35
23 -35 77 1 105 35 28 69 26 99 -4z"/>
<path d="M2744 3160 c-53 -21 -72 -105 -34 -153 29 -36 81 -52 125 -37 63 21
90 80 65 144 -17 46 -98 70 -156 46z m115 -46 c26 -34 27 -64 1 -92 -27 -28
-62 -37 -92 -21 -51 27 -61 69 -27 113 16 20 29 26 59 26 30 0 43 -6 59 -26z"/>
<path d="M5361 2750 c-86 -12 -89 -20 -5 -15 l69 4 -80 -14 c-44 -7 -86 -14
-92 -14 -36 -2 -3 -19 80 -40 50 -14 112 -33 136 -43 50 -21 77 -17 67 9 -4
10 -4 14 0 10 10 -10 35 13 27 26 -4 6 -1 7 6 3 7 -5 10 -14 7 -21 -5 -15 27
-49 37 -38 11 11 8 23 -5 21 -7 -2 -13 4 -13 12 0 8 6 14 13 12 8 -1 11 2 7 8
-3 6 -10 8 -15 5 -4 -3 -13 2 -20 10 -10 12 -10 15 0 15 8 0 10 3 6 7 -4 4
-24 7 -44 6 l-37 -2 35 10 c25 8 31 13 20 19 -25 13 -132 19 -199 10z"/>
<path d="M5064 2665 c-8 -20 -17 -49 -20 -64 l-6 -28 78 -12 c54 -8 80 -8 82
-1 6 16 30 12 41 -7 10 -17 10 -17 11 -1 0 10 10 22 22 29 18 10 20 9 15 -5
-4 -9 -3 -16 2 -16 4 0 13 -11 21 -24 10 -19 26 -27 76 -37 40 -8 59 -16 52
-21 -10 -6 -10 -8 -1 -8 6 0 14 4 18 9 3 6 17 6 35 1 20 -6 30 -5 30 2 0 5 6
8 13 5 10 -4 14 7 15 39 2 36 -1 44 -15 44 -24 1 -55 25 -45 35 4 5 1 5 -6 1
-7 -4 -47 4 -90 18 -64 20 -169 46 -290 72 -19 4 -25 -2 -38 -31z"/>
<path d="M5060 2515 c-7 -8 -9 -15 -4 -15 5 0 4 -4 -2 -8 -13 -8 -44 -66 -44
-83 0 -7 11 -10 30 -7 17 3 30 0 30 -6 0 -6 12 4 28 22 17 20 38 32 57 34 17
2 36 11 43 21 9 11 21 16 33 12 11 -4 19 -2 19 4 0 11 -19 15 -53 12 -9 -1
-24 5 -33 13 -20 20 -88 21 -104 1z"/>
<path d="M5285 2425 c0 -35 2 -65 5 -68 3 -2 35 -7 71 -9 63 -5 68 -4 78 19 6
13 11 37 11 53 0 27 -4 31 -56 46 -30 8 -62 13 -71 10 -8 -4 -21 -2 -27 3 -8
7 -11 -8 -11 -54z"/>
<path d="M5207 2451 c-3 -13 1 -21 14 -24 11 -3 19 -10 19 -15 0 -7 -12 -7
-34 0 -37 12 -90 3 -81 -12 3 -6 1 -10 -5 -10 -7 0 -10 -17 -8 -44 3 -38 5
-42 20 -33 9 6 14 16 12 22 -3 5 5 -1 18 -15 31 -32 45 -35 74 -15 23 15 36
63 13 49 -8 -4 -8 0 0 15 7 11 16 21 21 21 6 0 10 5 10 10 0 6 -5 10 -11 10
-16 0 -39 26 -39 44 0 22 -17 20 -23 -3z"/>
<path d="M5661 2414 c-2 -31 -36 -57 -66 -52 -20 4 -25 2 -21 -9 3 -8 6 -20 6
-27 0 -6 14 -17 32 -24 17 -6 29 -14 26 -18 -4 -3 -16 0 -28 6 -18 10 -24 8
-35 -7 -10 -13 -13 -14 -12 -3 1 8 -2 16 -7 17 -5 1 -12 5 -15 10 -3 5 -17 6
-31 2 -14 -4 -18 -8 -10 -8 21 -2 74 -86 90 -144 8 -30 10 -68 6 -102 -6 -58
-2 -62 51 -56 6 1 14 -3 18 -8 6 -11 -50 -49 -105 -71 -19 -8 -43 -25 -53 -37
-23 -29 -42 -31 -27 -2 11 19 9 20 -39 18 l-50 -3 -12 -45 c-7 -25 -12 -49
-11 -52 2 -10 -82 -3 -105 9 -17 10 -22 9 -27 -5 -9 -22 -19 -9 -22 26 -1 23
2 28 15 24 28 -7 47 23 32 50 -14 26 -78 60 -93 51 -6 -4 -8 -3 -5 3 3 5 -9
25 -28 43 -27 26 -35 30 -35 16 0 -9 -3 -15 -8 -12 -4 2 -36 -2 -72 -10 -58
-14 -69 -14 -127 2 -44 12 -73 27 -96 51 l-34 33 -12 -56 c-16 -81 -14 -147 8
-245 17 -79 52 -164 63 -153 3 2 11 -4 19 -13 13 -16 12 -17 -3 -4 -26 19 -22
4 6 -30 13 -15 28 -25 32 -21 5 4 3 0 -3 -8 -13 -18 1 -34 32 -37 11 -2 50 -8
88 -14 66 -10 203 1 217 19 3 4 19 8 35 8 17 1 51 11 75 23 24 11 51 21 59 21
23 0 72 35 64 45 -5 4 0 5 9 2 21 -7 114 53 110 72 -1 7 2 10 8 6 18 -11 67
55 99 131 28 66 30 79 31 210 1 76 1 144 1 151 -1 7 -15 28 -32 47 -17 20 -28
40 -25 45 4 5 -7 19 -24 31 -38 27 -38 36 -1 43 32 7 55 38 48 65 -4 13 -5 12
-6 -4z"/>
<path d="M4922 2381 c-29 -10 -59 -24 -65 -30 -9 -9 -8 -11 6 -6 10 4 17 2 17
-4 0 -6 -4 -11 -10 -11 -21 0 -72 -84 -68 -112 3 -15 1 -25 -3 -23 -4 3 -9 -5
-13 -18 -5 -18 -8 -20 -16 -7 -14 22 -12 4 5 -36 8 -20 19 -33 24 -30 5 3 8
-2 7 -11 -2 -29 77 -76 136 -81 56 -4 148 26 148 48 0 6 -4 8 -10 5 -6 -4 -7
2 -2 14 10 28 23 30 33 4 5 -15 5 -23 -2 -23 -6 0 -7 -5 -4 -10 4 -6 11 -8 16
-4 11 6 56 -45 51 -59 -1 -4 7 -3 19 4 14 7 19 7 15 0 -8 -12 48 -38 117 -52
26 -6 47 -15 47 -20 0 -12 0 -12 -50 6 -50 18 -57 14 -41 -21 6 -14 8 -30 5
-36 -4 -6 1 -8 12 -4 11 3 31 -1 47 -9 26 -13 27 -13 27 13 0 43 13 53 73 59
56 6 57 6 68 46 13 49 3 129 -22 179 -39 76 -103 113 -194 112 -59 0 -94 -6
-116 -19 -6 -4 -20 3 -31 15 -11 12 -26 19 -34 16 -8 -3 -13 -2 -13 2 1 4 1
14 0 22 -1 13 -2 13 -11 0 -8 -12 -10 -9 -10 13 0 15 0 30 1 33 2 15 -29 24
-86 25 -55 1 -57 2 -27 10 32 10 43 19 20 19 -7 -1 -37 -9 -66 -19z"/>
<path d="M5743 1952 c-6 -37 -11 -98 -10 -137 2 -69 2 -70 30 -71 33 -1 46
-12 28 -23 -11 -7 -44 -8 -83 -2 -5 1 -8 15 -8 31 0 17 -5 30 -11 30 -6 0 -8
-9 -4 -22 4 -17 4 -19 -3 -9 -8 11 -15 5 -32 -25 -23 -40 -76 -85 -137 -117
-20 -10 -31 -22 -27 -29 4 -6 1 -9 -7 -6 -8 3 -31 -3 -51 -13 -63 -32 -201
-79 -230 -79 -15 0 -28 -4 -28 -8 0 -5 -13 -7 -30 -4 -19 3 -30 0 -30 -8 0 -7
7 -10 15 -6 9 3 20 -3 27 -14 12 -19 24 -20 243 -20 210 1 228 2 203 16 -25
13 -28 20 -28 69 0 29 5 57 10 60 6 3 10 2 10 -3 0 -11 38 -4 56 10 7 5 54 2
113 -7 61 -9 124 -12 157 -9 67 8 62 18 -9 17 -48 0 -49 1 -8 4 l44 4 -6 67
c-6 74 -49 190 -93 253 -15 22 -25 42 -22 44 8 8 24 -15 68 -100 23 -44 39
-69 35 -55 -11 38 -74 152 -97 175 -12 11 -18 15 -14 9 3 -7 -1 -15 -10 -18
-9 -3 -12 -2 -9 5 9 13 -14 41 -28 32 -5 -3 -7 -1 -3 5 3 6 3 13 -2 16 -4 3
-13 -25 -19 -62z"/>
<path d="M4632 1910 c-22 -14 -32 -26 -28 -36 3 -8 2 -13 -3 -10 -13 8 -22
-37 -15 -73 7 -35 21 -50 53 -53 20 -3 26 6 47 62 13 36 24 80 24 98 0 27 -4
32 -22 32 -13 0 -38 -9 -56 -20z"/>
<path d="M4730 1796 c0 -8 -7 -16 -15 -20 -8 -3 -15 -13 -15 -23 0 -15 -2 -16
-10 -3 -7 11 -8 6 -4 -16 3 -16 -4 -82 -15 -147 -12 -64 -21 -130 -21 -147 l0
-30 119 0 c117 0 119 0 125 24 5 20 11 23 33 20 16 -2 42 0 58 6 l30 10 -37
-3 c-20 -2 -35 0 -32 4 2 3 -16 9 -41 11 -55 7 -95 31 -95 59 0 13 4 18 13 13
6 -5 0 8 -14 27 -40 53 -81 165 -74 200 4 16 4 29 1 29 -3 0 -6 -6 -6 -14z"/>
<path d="M5600 1511 c0 -31 4 -41 20 -46 11 -3 25 -3 31 1 7 4 9 3 6 -4 -8
-12 29 -19 150 -31 43 -4 90 -4 106 0 16 5 25 4 22 -2 -4 -5 -2 -9 3 -9 10 0
35 110 27 118 -2 2 -85 6 -185 9 l-180 5 0 -41z"/>
<path d="M5646 1412 c-9 -15 8 -53 38 -85 19 -21 32 -27 49 -22 17 5 19 4 7
-4 -28 -19 106 -4 140 15 25 15 30 24 28 49 l-3 30 -85 6 c-47 3 -104 9 -126
14 -26 4 -44 3 -48 -3z"/>
<path d="M4639 1330 c2 -41 6 -67 8 -57 4 14 18 17 86 19 45 2 105 2 132 2
l51 -1 -2 41 c0 23 -2 46 -2 53 -2 8 -42 13 -139 15 l-138 3 4 -75z"/>
<path d="M5258 1403 l-118 -4 0 -49 0 -50 270 0 269 0 -24 36 c-14 20 -25 45
-25 55 0 20 -21 21 -372 12z"/>
<path d="M5170 1276 c0 -25 -18 -28 -138 -27 -90 1 -120 5 -128 16 -9 12 -37
15 -126 15 l-115 0 5 -27 c4 -21 2 -25 -11 -20 -19 7 -27 -13 -26 -66 1 -40 2
-40 9 -12 l8 30 1 -31 c1 -30 4 -32 46 -38 46 -7 794 3 807 11 4 2 58 6 120 8
145 6 300 24 316 37 9 8 12 6 12 -5 0 -9 -11 -17 -27 -20 -26 -4 -26 -4 5 -6
31 -1 32 0 31 42 0 32 -2 37 -9 22 -8 -18 -9 -17 -9 8 -1 34 10 34 -347 7
-212 -16 -343 -20 -607 -18 -218 2 -338 -1 -341 -7 -3 -5 -5 -2 -5 8 -1 11 6
17 19 17 11 0 20 3 20 8 0 4 145 6 322 4 283 -3 470 4 668 24 52 6 53 6 30 20
-38 20 -530 20 -530 0z"/>
<path d="M5344 1082 c-9 -5 -34 -93 -34 -117 0 -3 59 -5 131 -5 144 0 132 -6
113 60 -3 11 -10 17 -16 14 -7 -4 -8 -2 -4 5 4 6 4 20 1 31 -6 18 -15 20 -93
20 -48 0 -92 -4 -98 -8z"/>
<path d="M2575 2582 c3 -30 13 -72 22 -94 35 -86 -39 -69 -128 31 l-48 54 -39
-31 c-46 -37 -89 -55 -110 -47 -12 5 -11 10 6 28 23 24 48 84 39 93 -3 3 -13
-8 -21 -25 -9 -17 -30 -47 -47 -66 -17 -19 -29 -41 -26 -49 8 -20 90 -9 155
21 l53 25 55 -56 c30 -31 63 -56 72 -56 9 0 24 -5 32 -10 12 -7 11 -13 -10
-35 -36 -39 -35 -114 4 -154 35 -36 68 -45 112 -31 79 26 98 138 32 192 -100
83 -125 117 -143 199 l-15 64 5 -53z"/>
<path d="M1871 1992 c-6 -12 -18 -22 -26 -22 -17 0 -20 -16 -4 -26 6 -3 9 -14
6 -24 -4 -14 3 -19 39 -23 51 -5 74 -21 74 -51 0 -18 6 -21 40 -21 27 -1 39 3
36 11 -2 6 2 22 11 34 14 20 14 22 -6 27 -11 3 -23 14 -26 24 -8 24 -17 24
-33 -1 -13 -22 -47 -27 -58 -9 -3 6 -1 16 5 22 15 15 14 37 -3 37 -7 0 -20 10
-28 22 l-15 22 -12 -22z"/>
<path d="M3052 2262 c-39 -37 -48 -81 -26 -128 42 -88 157 -78 193 18 36 96
-91 181 -167 110z m102 -13 c78 -36 23 -170 -57 -140 -54 21 -67 83 -27 126
26 28 46 31 84 14z"/>
<path d="M1630 1423 c-57 -23 -79 -116 -40 -166 42 -53 114 -55 167 -5 82 77
-19 213 -127 171z m97 -45 c41 -38 27 -108 -25 -126 -77 -27 -135 66 -77 123
30 31 71 32 102 3z"/>
<path d="M4339 1365 c-55 -30 -62 -116 -12 -155 63 -49 143 -4 143 80 0 62
-76 106 -131 75z"/>
<path d="M1320 1100 c-44 -47 -44 -108 1 -156 59 -63 169 -16 169 73 0 68 -43
113 -110 113 -23 0 -40 -9 -60 -30z m115 -25 c49 -48 23 -125 -42 -125 -49 0
-73 24 -73 71 0 71 67 103 115 54z"/>
<path d="M3418 1065 c-56 -31 -64 -91 -19 -136 31 -31 68 -37 115 -19 32 12
58 62 50 94 -14 58 -93 91 -146 61z"/>
<path d="M2734 1007 c-31 -27 -37 -74 -13 -103 21 -26 77 -46 109 -39 34 8 80
51 80 76 0 31 -21 66 -47 78 -41 19 -99 13 -129 -12z"/>
</g>
</svg>
