<?xml version="1.0" standalone="no"?>
<!DOCTYPE svg PUBLIC "-//W3C//DTD SVG 20010904//EN"
 "http://www.w3.org/TR/2001/REC-SVG-20010904/DTD/svg10.dtd">
<svg version="1.0" xmlns="http://www.w3.org/2000/svg"
 width="1280.000000pt" height="1703.000000pt" viewBox="0 0 1280.000000 1703.000000"
 preserveAspectRatio="xMidYMid meet">
<metadata>
Created by potrace 1.16, written by Peter Selinger 2001-2019
</metadata>
<g transform="translate(0.000000,1703.000000) scale(0.100000,-0.100000)"
fill="#000000" stroke="none">
<path d="M10534 16730 c-163 -20 -318 -94 -381 -182 -77 -109 -105 -202 -133
-456 -29 -260 -37 -282 -99 -282 -12 0 -61 -20 -110 -45 -62 -32 -114 -51
-174 -62 -106 -19 -140 -39 -171 -102 -18 -35 -36 -54 -63 -68 -55 -27 -86
-92 -91 -198 l-4 -83 -86 -22 c-223 -56 -559 -213 -700 -328 -64 -52 -73 -55
-227 -82 -66 -11 -150 -30 -186 -40 -36 -11 -79 -20 -96 -20 -32 0 -123 28
-123 38 0 3 9 15 19 26 45 49 121 244 121 312 0 39 -45 132 -113 232 -32 45
-57 91 -57 102 0 10 14 41 31 69 l31 50 -5 158 c-3 105 -10 175 -21 208 -19
61 -70 124 -128 158 -61 35 -201 77 -281 84 -60 5 -72 3 -98 -16 l-30 -22 -57
42 c-111 84 -245 138 -437 176 -124 24 -422 24 -555 0 -223 -41 -389 -181
-430 -361 -33 -150 94 -368 264 -451 87 -43 243 -84 351 -92 44 -3 88 -10 98
-15 17 -9 17 -11 3 -31 -9 -12 -32 -53 -51 -92 -19 -39 -62 -99 -95 -135 -34
-36 -63 -75 -66 -88 -4 -12 -5 -55 -2 -95 3 -64 8 -82 40 -133 20 -33 42 -82
49 -109 14 -59 32 -97 53 -114 39 -33 2 -101 -55 -101 -17 0 -63 15 -102 34
-40 19 -93 40 -118 47 l-45 12 -425 -205 -424 -205 -7 -369 c-9 -529 -11 -550
-43 -584 -15 -15 -44 -35 -65 -45 -25 -11 -42 -27 -49 -46 -11 -31 -83 -84
-104 -76 -11 4 -15 66 -20 308 -4 166 -7 396 -7 510 l0 207 -37 15 c-21 9
-227 106 -458 217 -535 257 -668 318 -719 331 -41 11 -45 9 -591 -246 -302
-141 -592 -275 -642 -298 l-93 -42 0 -657 c0 -362 -4 -658 -8 -658 -17 0 -63
58 -72 91 -6 19 -13 219 -17 446 l-6 411 -346 170 c-404 198 -547 262 -590
262 -49 0 -128 -34 -456 -195 -318 -157 -426 -219 -440 -251 -5 -11 -11 -220
-15 -465 -6 -398 -8 -450 -23 -473 -10 -14 -24 -26 -32 -26 -34 0 -41 -74 -28
-296 l6 -112 36 -11 c62 -18 72 -31 73 -89 0 -76 -24 -110 -105 -150 -38 -18
-67 -39 -67 -47 0 -9 39 -57 86 -108 l87 -92 -89 -6 c-129 -8 -181 -42 -205
-133 -14 -50 0 -145 37 -254 28 -83 50 -122 70 -122 26 0 26 28 -1 117 -32
108 -44 223 -24 239 8 6 39 14 69 17 30 3 84 18 119 32 64 26 64 26 134 11 39
-9 76 -21 84 -27 7 -6 13 -29 13 -51 0 -107 -127 -224 -333 -307 -18 -7 -27
-18 -27 -32 0 -21 3 -21 68 -14 37 4 119 8 182 9 63 1 135 6 159 11 56 10 49
-4 -19 -41 -42 -23 -50 -32 -50 -55 0 -20 8 -33 30 -46 16 -9 30 -20 30 -23
-1 -3 -15 -14 -33 -25 -27 -17 -33 -28 -37 -70 -3 -28 -11 -60 -18 -73 -24
-42 39 -148 129 -219 40 -31 46 -33 125 -33 117 0 163 -23 119 -60 -31 -26
-17 -73 40 -145 40 -49 65 -97 65 -124 0 -34 50 -78 138 -121 45 -22 82 -46
82 -54 0 -14 -59 -72 -103 -100 -22 -15 -30 -14 -123 14 -115 36 -167 37 -172
3 -2 -12 13 -59 32 -104 20 -46 36 -86 36 -90 0 -5 -20 -37 -45 -72 -72 -104
-79 -140 -25 -152 15 -3 36 -15 45 -25 16 -17 15 -19 -4 -29 -11 -6 -31 -11
-44 -11 -14 0 -30 -7 -37 -14 -6 -8 -28 -20 -48 -27 -53 -17 -85 -51 -122
-131 -31 -66 -99 -316 -100 -364 0 -30 22 -34 175 -34 243 0 354 25 455 102
125 95 156 109 144 63 -4 -18 -1 -27 11 -32 27 -10 57 32 53 76 -3 34 -4 36
-38 33 -45 -3 -153 -54 -195 -91 -39 -34 -132 -71 -178 -71 -18 0 -50 -10 -72
-21 -32 -17 -50 -20 -95 -16 -78 9 -160 35 -167 54 -7 19 20 157 48 250 30 95
46 108 179 144 63 18 133 32 154 33 35 1 41 -3 60 -35 25 -42 61 -89 70 -89 3
0 28 45 56 100 55 110 59 113 155 125 68 8 125 29 125 45 0 20 -22 54 -68 104
-49 53 -46 66 16 66 45 0 77 35 86 93 5 34 3 54 -9 77 -36 70 -188 188 -295
230 -110 43 -126 70 -42 70 90 1 160 52 177 132 8 32 10 33 58 13 95 -40 186
13 203 118 4 20 8 37 10 37 2 0 18 -9 36 -20 45 -27 129 -27 174 0 18 12 42
40 54 65 l22 45 30 -30 c84 -85 152 -82 251 9 l28 26 17 -22 c72 -95 177 -97
274 -6 26 25 26 25 33 4 10 -31 53 -80 87 -97 19 -10 49 -14 82 -12 49 3 51 2
51 -22 0 -23 -5 -26 -64 -33 -118 -14 -164 -60 -159 -157 l3 -55 -51 -6 c-92
-11 -135 -51 -142 -131 -3 -44 0 -59 20 -88 67 -99 170 -107 253 -20 27 28 30
38 30 98 l0 67 52 6 c79 10 131 55 150 130 9 32 12 34 65 40 101 11 158 66
158 151 0 42 12 52 74 61 52 8 71 -4 101 -63 l25 -50 -87 -42 c-49 -24 -90
-44 -92 -46 -3 -1 41 -49 98 -106 l103 -104 -93 -4 c-113 -5 -148 -21 -184
-81 -32 -55 -34 -140 -6 -250 38 -148 82 -197 176 -197 94 1 234 78 332 184
32 34 61 56 74 56 30 0 66 -44 129 -156 126 -226 243 -283 384 -185 82 58 109
95 118 163 9 74 1 172 -18 209 -13 26 -81 86 -121 107 -12 7 -58 18 -102 25
l-80 12 141 100 c77 55 175 119 216 143 41 23 91 57 111 74 l36 32 3 -35 c7
-66 90 -139 161 -139 39 0 111 55 135 103 67 138 -145 264 -261 155 -26 -24
-43 -17 -43 19 0 53 -121 123 -186 107 -67 -16 -105 -63 -119 -146 -3 -21 -10
-38 -15 -38 -21 0 -35 50 -37 135 -1 50 -2 96 -2 103 -1 6 -12 12 -25 12 -25
0 -65 -39 -105 -103 -12 -20 -24 -37 -27 -37 -2 0 -15 23 -29 50 -31 61 -74
90 -133 90 -46 0 -105 -21 -134 -47 -10 -9 -23 -34 -29 -55 -14 -53 2 -97 51
-142 41 -37 87 -51 144 -44 22 2 32 0 28 -7 -6 -11 -121 -165 -133 -179 -4 -5
-20 16 -34 45 -15 30 -54 91 -86 136 -32 45 -59 87 -59 93 0 7 10 26 22 42 32
46 35 115 6 157 -37 55 -80 75 -160 73 -63 -1 -70 1 -77 22 -13 33 -75 83
-120 97 -52 15 -102 5 -133 -29 -35 -37 -45 -59 -53 -119 -7 -58 -23 -69 -74
-58 -21 4 -30 13 -34 34 -7 34 -83 113 -126 131 -41 17 -88 7 -145 -32 l-47
-31 -37 35 c-43 41 -73 58 -121 69 -43 10 -77 -3 -123 -48 l-38 -37 -40 33
c-95 77 -151 77 -236 0 -30 -27 -57 -49 -59 -49 -3 0 -22 11 -43 25 -102 67
-224 28 -251 -80 -11 -43 -34 -61 -43 -33 -3 7 -31 14 -70 16 -98 6 -150 -29
-167 -111 l-7 -32 -91 4 -92 3 -49 -41 c-55 -47 -87 -54 -77 -18 4 12 11 26
16 32 20 21 9 63 -23 91 -50 41 -92 55 -162 52 -73 -2 -95 9 -150 75 -40 49
-44 71 -19 99 16 18 16 21 -1 49 l-18 31 41 42 c46 47 50 65 21 91 -11 10 -20
22 -20 27 0 4 28 22 62 38 34 17 65 36 69 42 13 21 -9 46 -67 74 l-56 27 -74
-18 c-41 -10 -77 -15 -81 -11 -10 11 130 141 168 156 16 7 35 10 42 7 7 -3 40
-55 72 -117 64 -120 143 -217 199 -244 19 -9 52 -16 74 -16 53 0 170 60 216
110 l36 40 0 103 c0 56 -5 118 -10 137 -19 69 -115 136 -215 149 -30 4 -58 10
-61 14 -15 15 12 39 130 122 141 98 216 171 216 210 0 14 5 25 10 25 6 0 10
-8 10 -17 2 -111 23 -312 40 -373 71 -255 277 -501 469 -560 123 -39 277 -18
381 51 104 70 209 205 272 351 36 85 46 188 30 307 -11 74 -21 98 -101 244
-24 42 -39 77 -33 77 27 0 502 -147 502 -155 0 -2 -29 -39 -65 -82 -37 -45
-65 -87 -65 -100 0 -27 29 -47 90 -63 91 -23 99 -29 140 -109 21 -42 48 -85
60 -96 21 -19 21 -19 63 3 23 12 73 47 111 77 38 30 71 55 75 55 3 0 35 -9 69
-20 35 -11 75 -20 88 -20 22 0 24 4 24 43 -1 23 -9 67 -20 97 -10 30 -17 56
-15 58 1 2 43 -8 91 -22 132 -36 198 -48 230 -40 38 9 469 179 660 260 83 35
159 64 167 64 24 0 37 -32 37 -89 0 -70 -13 -97 -53 -110 -18 -6 -51 -29 -72
-51 -37 -37 -43 -40 -96 -40 -47 0 -63 -5 -89 -26 -102 -87 -70 -227 61 -264
44 -13 96 2 144 40 42 33 120 60 175 60 40 0 54 -12 127 -110 91 -120 216
-218 321 -250 81 -25 104 -25 205 1 117 30 203 78 279 157 78 81 110 134 160
266 21 55 44 106 51 113 9 9 23 9 58 1 64 -15 108 -4 158 38 l41 36 40 -36
c22 -20 44 -36 49 -36 22 0 71 -54 81 -89 5 -20 16 -111 25 -201 26 -284 48
-348 195 -575 101 -155 104 -163 79 -204 -24 -39 -36 -39 -57 0 -38 69 -172
267 -210 309 -48 54 -60 48 -71 -34 -9 -65 -25 -86 -98 -125 -74 -40 -71 -63
16 -141 39 -34 71 -66 71 -71 0 -5 -27 -9 -60 -9 -131 0 -185 -52 -185 -180 0
-84 43 -236 75 -265 28 -25 90 -29 156 -10 80 22 133 55 216 131 38 35 76 64
83 64 18 0 55 -50 93 -126 62 -123 146 -205 224 -218 21 -4 40 -11 43 -16 3
-6 -16 -79 -44 -163 -28 -84 -62 -200 -77 -257 -14 -58 -30 -113 -35 -122 -5
-9 -26 -20 -47 -23 -81 -13 -110 -26 -146 -65 -40 -44 -45 -78 -22 -133 28
-67 93 -107 171 -107 24 0 46 -4 49 -8 8 -14 -23 -63 -74 -118 -49 -52 -54
-62 -64 -140 -3 -23 -18 -67 -32 -99 -36 -77 -30 -150 19 -264 l35 -81 -52
-24 c-28 -13 -90 -38 -137 -54 -165 -58 -350 -163 -415 -234 -46 -51 -119
-205 -133 -279 -11 -63 -2 -148 23 -218 9 -24 16 -45 16 -46 0 -2 -37 -5 -82
-6 -68 -3 -89 -8 -116 -28 l-33 -23 -42 18 c-66 30 -135 25 -187 -14 -50 -36
-56 -38 -76 -17 -10 9 -22 12 -36 6 -18 -6 -24 -21 -33 -74 -13 -79 -26 -95
-122 -149 -40 -23 -73 -46 -73 -51 0 -5 39 -50 86 -100 l86 -92 -85 -6 c-92
-6 -135 -24 -171 -72 -43 -57 -29 -242 28 -362 37 -79 55 -90 145 -90 66 0 85
4 141 32 36 18 107 69 158 113 51 44 101 80 110 80 26 0 62 -43 112 -133 57
-101 139 -200 190 -229 22 -13 40 -26 40 -30 0 -4 -12 -24 -26 -45 -48 -70
-18 -157 72 -209 54 -32 98 -28 151 12 91 69 81 194 -19 245 l-42 21 62 56
c81 70 92 93 92 185 0 180 -71 268 -233 288 -39 5 -73 12 -76 15 -9 8 57 62
184 151 187 130 201 150 143 210 l-32 33 26 0 c51 0 74 -17 107 -82 105 -198
262 -378 384 -438 59 -29 79 -33 165 -37 135 -5 157 -10 193 -41 18 -14 59
-40 93 -57 47 -23 63 -37 69 -60 5 -16 18 -48 29 -71 20 -39 20 -43 4 -115 -9
-42 -23 -84 -31 -95 -7 -11 -57 -42 -110 -69 l-96 -48 -35 16 c-47 23 -63 21
-96 -10 -38 -36 -43 -17 -23 78 29 134 37 189 31 204 -9 24 -58 18 -143 -16
-141 -57 -149 -56 -238 21 -63 55 -124 95 -132 87 -3 -4 -9 -61 -13 -126 -6
-111 -9 -123 -35 -158 -50 -66 -165 -174 -203 -190 -71 -29 -112 -84 -112
-151 0 -60 35 -104 125 -157 16 -10 16 -13 -4 -45 -11 -19 -21 -43 -21 -52 0
-38 -26 -26 -103 49 -186 180 -318 242 -513 243 -228 0 -396 -140 -455 -380
-20 -83 -15 -258 10 -355 53 -200 216 -442 369 -547 131 -90 303 -98 462 -21
88 43 224 186 283 301 27 50 54 92 61 92 14 0 124 -64 145 -85 12 -12 8 -15
-23 -20 -48 -10 -94 -55 -101 -103 -14 -87 -8 -81 -79 -79 -73 2 -103 -14
-143 -73 -45 -65 -26 -128 62 -205 l46 -40 -45 -131 c-46 -133 -127 -329 -149
-357 -10 -14 -28 -1 -124 89 l-112 105 41 52 c22 29 47 66 54 84 13 29 17 31
48 26 49 -8 97 12 142 58 34 35 39 46 39 87 0 78 -74 152 -151 152 -69 0 -149
-66 -164 -134 -6 -30 -8 -31 -51 -28 -52 3 -117 -19 -149 -53 -29 -31 -35 -91
-18 -175 18 -87 13 -114 -28 -155 -44 -44 -114 -82 -114 -61 0 8 16 23 35 35
98 57 101 207 5 256 -38 20 -116 22 -163 4 -39 -14 -31 -17 -116 48 -58 44
-106 50 -170 23 l-50 -22 -52 41 c-69 55 -118 68 -175 46 -24 -9 -46 -21 -49
-26 -11 -17 -33 -9 -39 15 -3 13 -29 45 -58 71 l-53 47 -60 -6 c-33 -3 -75 -9
-92 -12 -27 -5 -33 -3 -33 10 0 24 -28 63 -64 89 -25 18 -45 22 -107 22 -71 1
-80 3 -130 37 -67 46 -110 54 -169 34 -62 -21 -66 -21 -111 18 -71 60 -170 71
-232 26 l-28 -21 -19 24 c-27 34 -80 57 -133 57 -37 0 -55 -7 -98 -40 -51 -38
-57 -40 -124 -40 -124 0 -246 19 -301 45 -89 44 -134 138 -114 243 22 121 93
215 182 241 24 7 63 26 88 41 25 16 74 36 110 45 36 9 81 21 101 26 20 5 53
22 74 39 83 66 220 67 278 2 11 -11 16 -25 13 -30 -3 -5 -39 -12 -81 -15 -90
-7 -149 -36 -177 -87 -46 -88 5 -345 84 -416 72 -66 235 -13 400 129 94 82
123 97 143 76 8 -8 39 -59 70 -114 109 -194 189 -271 272 -262 58 6 147 51
198 101 38 36 44 48 50 100 17 138 -12 243 -83 291 -33 23 -116 52 -195 70
-27 5 -21 10 90 90 154 111 231 180 239 213 9 38 27 55 85 82 51 24 51 24 82
5 83 -50 124 -66 157 -63 l35 3 30 124 c34 138 20 120 132 167 18 7 40 25 49
39 16 24 16 27 -2 46 -10 11 -34 29 -53 41 -140 84 -138 82 -202 215 -33 68
-67 127 -76 130 -24 9 -69 -46 -127 -156 l-48 -91 -132 6 c-173 9 -180 0 -84
-119 79 -98 81 -103 68 -212 -5 -52 -10 -96 -10 -99 0 -17 -37 -36 -70 -36
-60 0 -75 29 -67 130 7 93 3 110 -27 110 -30 0 -49 -22 -147 -170 -116 -176
-209 -301 -219 -295 -18 11 -242 344 -279 415 -5 8 -21 15 -37 15 -27 0 -29
-3 -39 -66 -14 -83 -36 -114 -116 -159 -43 -24 -65 -43 -67 -57 -6 -40 -29
-48 -121 -44 -176 7 -215 6 -246 -12 -84 -46 -164 -80 -228 -94 -40 -9 -96
-27 -125 -40 -46 -20 -53 -21 -59 -7 -10 28 5 138 26 184 11 25 21 65 21 90 0
25 4 50 8 56 4 6 30 16 57 23 67 16 179 72 240 118 28 21 74 70 103 108 81
108 123 201 147 326 2 15 21 48 40 75 43 60 74 106 78 117 1 4 19 1 39 -8 49
-20 84 -19 134 4 81 37 115 135 68 198 -32 43 -92 73 -147 73 -67 0 -102 -21
-132 -80 -29 -57 -38 -65 -55 -45 -7 8 -30 20 -51 25 -32 9 -48 23 -84 73 -65
89 -189 211 -272 267 -87 58 -164 85 -303 105 -157 23 -160 24 -210 71 -35 33
-60 46 -99 55 -57 12 -71 30 -71 94 0 37 37 75 72 75 10 0 58 -33 106 -74 269
-227 389 -252 489 -103 17 26 41 73 53 105 19 51 21 63 10 110 -15 68 -69 176
-115 230 -28 32 -49 46 -92 58 -71 21 -171 15 -236 -14 -60 -26 -62 -39 43
188 114 244 127 291 93 325 -25 26 -139 17 -177 -12 -26 -21 -30 -22 -58 -7
-23 12 -40 38 -76 115 -47 103 -70 125 -100 96 -8 -9 -16 -37 -18 -64 -19
-261 -55 -567 -69 -581 -6 -6 -65 36 -123 86 l-43 37 21 40 c35 68 27 100 -43
188 -26 33 -28 39 -19 87 6 32 6 67 0 92 -8 38 -6 44 20 72 58 61 67 117 31
189 l-22 41 38 33 c44 38 65 42 65 11 0 -28 69 -93 115 -108 49 -16 112 7 156
57 30 35 31 40 27 102 -3 36 -4 71 -1 78 2 6 34 23 71 37 123 47 241 166 318
319 48 94 65 168 67 294 1 97 -1 115 -25 172 -96 230 -290 429 -494 507 -100
38 -245 45 -342 15 -154 -46 -279 -185 -312 -346 -20 -97 -15 -296 9 -390 37
-139 114 -281 225 -415 50 -60 50 -60 -26 -74 -37 -7 -38 -6 -67 42 -50 80
-133 110 -228 83 -27 -8 -38 -6 -65 14 -58 42 -92 59 -133 65 -38 5 -40 7 -37
38 3 26 0 32 -16 32 -23 0 -52 -30 -52 -54 0 -9 -7 -30 -15 -46 -8 -16 -22
-79 -30 -140 -9 -60 -29 -153 -45 -206 -17 -53 -30 -102 -30 -108 0 -40 31
-99 100 -192 44 -58 80 -110 80 -116 0 -5 -25 -35 -55 -67 -30 -32 -55 -63
-55 -68 0 -6 14 -40 30 -75 17 -36 37 -98 46 -139 21 -101 24 -104 117 -88 59
10 90 10 137 1 94 -17 109 -38 66 -89 -40 -49 -50 -73 -34 -88 7 -8 58 -32
113 -55 126 -52 150 -67 135 -85 -6 -7 -25 -16 -44 -19 -48 -9 -111 -54 -135
-96 -47 -85 -15 -193 103 -345 116 -148 167 -176 248 -136 54 26 123 95 157
158 l27 48 59 -3 c83 -3 103 -9 115 -33 14 -25 -13 -71 -63 -111 -42 -33 -120
-136 -154 -202 -34 -67 -65 -96 -103 -96 -35 0 -80 -20 -101 -46 -8 -10 -46
-32 -84 -49 -118 -54 -225 -188 -225 -282 0 -54 25 -83 96 -112 33 -14 86 -41
119 -62 33 -21 79 -42 102 -47 22 -5 51 -17 64 -25 17 -12 36 -15 78 -11 44 5
69 1 116 -16 63 -24 145 -94 145 -123 0 -9 -19 -29 -43 -46 -70 -48 -115 -101
-161 -191 -61 -117 -90 -218 -91 -310 0 -141 48 -181 230 -188 187 -7 311 21
435 101 38 24 91 50 117 56 73 19 149 45 247 86 91 38 216 60 216 37 0 -13
-21 -21 -95 -37 -51 -11 -117 -37 -352 -140 -63 -28 -130 -202 -146 -377 l-4
-48 96 -89 96 -89 145 -7 c195 -9 212 -14 257 -76 62 -87 121 -100 218 -48 31
17 60 28 63 24 3 -3 -34 -45 -83 -93 -90 -87 -120 -105 -227 -136 -161 -47
-292 -210 -320 -398 -7 -43 -25 -101 -45 -143 -30 -64 -33 -77 -33 -165 0
-181 35 -257 121 -266 77 -9 87 -13 108 -48 12 -18 21 -38 21 -44 0 -18 -38
-33 -103 -40 -53 -6 -62 -10 -65 -28 -2 -11 4 -27 13 -34 20 -17 19 -59 -2
-83 -15 -16 -18 -38 -18 -126 1 -103 2 -108 38 -176 21 -39 57 -93 80 -120
l43 -48 187 11 c178 11 189 13 243 42 33 17 72 30 93 30 20 0 66 11 104 24 37
13 67 20 67 16 0 -5 -27 -36 -60 -70 -33 -33 -78 -93 -101 -133 -23 -40 -57
-89 -77 -109 -33 -35 -34 -39 -28 -88 l7 -51 -78 -36 c-109 -50 -113 -54 -113
-128 0 -44 -5 -66 -15 -75 -11 -9 -14 -22 -10 -41 5 -22 0 -34 -25 -59 -25
-25 -31 -38 -26 -59 4 -18 -6 -48 -31 -98 -37 -73 -38 -103 -5 -103 27 0 40
-19 44 -64 3 -40 13 -51 61 -61 17 -3 31 -15 37 -29 15 -41 84 -50 115 -16 10
11 49 29 86 40 40 12 86 35 111 55 24 19 53 40 64 46 12 6 24 23 27 38 3 14
27 51 53 81 26 30 54 71 61 90 20 45 23 38 72 -141 21 -79 49 -179 62 -221 22
-76 22 -79 6 -130 -20 -62 -105 -183 -247 -353 -106 -127 -122 -157 -98 -182
25 -25 85 -33 300 -42 234 -9 239 -11 288 -89 16 -26 75 -135 131 -243 56
-108 110 -207 120 -220 l18 -24 28 27 c15 15 78 106 138 203 61 97 124 192
140 212 36 42 46 44 321 73 245 26 326 44 338 76 12 31 -92 186 -223 334 -192
216 -190 210 -141 476 41 223 50 264 60 264 15 0 122 -94 173 -151 27 -30 51
-57 55 -61 21 -23 142 -113 174 -129 20 -10 58 -23 85 -29 26 -6 61 -20 76
-31 15 -11 36 -19 45 -17 44 8 101 195 102 333 0 33 5 77 11 98 7 27 7 48 -1
72 -6 19 -12 68 -12 108 -1 71 1 77 60 187 67 128 96 213 107 311 8 76 10 79
50 99 88 44 132 293 86 485 -11 44 -29 126 -40 183 -25 122 -38 151 -91 194
l-41 32 26 14 c14 7 35 10 46 7 11 -4 73 -60 137 -125 159 -161 233 -196 320
-151 44 22 138 119 152 156 6 15 10 56 10 93 0 83 -30 151 -87 203 -65 59
-150 76 -268 55 l-49 -9 19 29 c31 49 188 225 258 290 41 39 83 68 114 79 97
35 181 163 190 290 6 81 -11 225 -33 266 -7 15 -23 31 -35 34 -12 4 -41 25
-64 47 -30 27 -75 51 -146 79 -123 48 -167 74 -179 104 -5 14 -23 28 -47 35
-55 17 -63 33 -62 114 1 65 15 154 18 114 2 -28 59 -86 97 -98 47 -16 85 -5
146 41 29 21 55 39 58 39 3 -1 18 -19 33 -41 35 -51 103 -84 154 -74 39 7 107
64 130 109 8 17 36 53 62 79 l46 48 3 99 c4 96 3 102 -29 167 -28 57 -34 85
-41 173 -5 58 -13 128 -17 155 -7 38 -5 58 6 83 18 38 24 39 63 10 l29 -21 79
36 c43 20 84 37 91 37 21 0 114 103 141 156 66 134 12 312 -113 368 -28 13
-62 34 -74 47 l-21 24 66 55 c95 79 165 170 226 293 66 131 70 137 110 137 73
1 185 80 207 148 12 36 5 91 -16 132 -7 14 -38 56 -69 93 -31 38 -59 81 -63
95 -8 35 11 168 28 188 7 9 46 39 86 66 86 58 118 102 133 183 6 33 13 72 17
87 3 15 0 56 -5 90 -14 83 -3 137 42 202 26 38 38 69 43 106 7 56 29 77 47 45
6 -10 22 -31 35 -47 23 -29 24 -30 8 -64 -23 -48 -21 -109 4 -150 11 -19 25
-64 30 -101 15 -109 19 -123 51 -159 41 -47 71 -60 148 -69 36 -4 83 -16 105
-27 24 -13 71 -24 118 -28 73 -7 80 -10 135 -54 216 -176 389 -269 559 -302
107 -20 426 -29 552 -15 60 6 141 24 192 41 171 57 262 114 408 255 278 269
417 516 511 910 75 313 65 536 -40 885 -22 74 -40 145 -40 160 0 34 30 62 102
93 66 30 88 62 88 134 0 57 -26 105 -69 128 -36 18 -51 43 -51 85 0 37 -23 85
-45 94 -9 3 -41 6 -70 6 -52 0 -55 1 -82 42 -38 56 -83 82 -129 74 -53 -10
-91 -52 -125 -136 -16 -41 -46 -98 -66 -127 -48 -70 -54 -125 -19 -173 35 -47
56 -94 56 -124 0 -59 85 -113 161 -103 22 3 45 0 55 -8 15 -11 16 -19 5 -76
-34 -178 -124 -369 -191 -404 -29 -15 -32 -15 -63 8 -17 13 -40 27 -50 30 -9
4 -22 18 -27 32 -12 31 -68 67 -95 61 -23 -6 -55 20 -55 44 0 9 11 44 25 78
31 77 31 88 -1 165 -25 59 -26 66 -15 130 32 189 -4 317 -88 317 -27 0 -27 5
8 82 16 35 33 82 36 103 11 57 28 86 79 133 94 86 258 177 421 232 49 17 95
30 103 30 7 0 34 -18 60 -39 26 -21 57 -42 70 -46 27 -8 219 11 272 27 19 6
55 23 80 39 27 17 70 32 109 38 90 15 131 58 131 141 0 81 22 93 120 64 66
-19 123 -58 211 -140 132 -124 206 -132 326 -35 101 82 141 173 121 281 -22
120 -88 203 -205 257 l-74 34 89 97 c140 154 221 288 257 427 46 173 21 438
-58 605 -63 135 -226 247 -392 271 -92 13 -248 5 -344 -17 -180 -41 -288 -157
-352 -380 -28 -95 -69 -141 -171 -194 l-66 -34 -82 12 c-91 13 -291 70 -369
104 l-51 23 40 65 c54 88 95 197 114 304 13 72 26 107 71 190 153 279 189 388
168 512 -17 101 -65 186 -153 274 -78 78 -91 86 -324 195 l-119 55 6 83 c4 45
7 105 7 132 l0 51 96 11 c289 34 364 187 335 677 -5 94 -6 177 -1 185 4 9 46
38 92 65 164 97 206 139 272 273 77 157 100 272 100 498 0 243 -29 342 -141
480 -38 47 -65 68 -124 98 -142 71 -359 107 -525 87z m273 -101 c150 -53 274
-127 340 -203 87 -98 111 -306 67 -566 -41 -247 -112 -377 -247 -456 -34 -20
-85 -53 -114 -75 -29 -21 -57 -39 -63 -39 -22 0 -106 49 -131 77 -14 15 -56
74 -93 131 -70 107 -137 171 -198 191 -18 5 -66 15 -106 21 -41 6 -95 21 -120
34 -52 27 -97 69 -88 84 3 5 17 97 31 203 13 107 32 219 41 249 57 196 214
337 415 375 96 18 157 12 266 -26z m-3979 -345 c207 -27 337 -76 487 -184 94
-68 117 -80 225 -120 155 -56 298 -166 318 -244 15 -59 -19 -189 -54 -203 -9
-3 -48 4 -87 16 -57 17 -104 22 -222 25 -132 3 -159 6 -224 30 -110 39 -182
36 -269 -9 -50 -26 -87 -37 -147 -44 -44 -5 -104 -18 -133 -30 -51 -20 -79
-20 -66 0 3 5 39 32 80 59 41 28 74 57 74 65 0 22 -9 20 -126 -37 -107 -52
-110 -53 -199 -52 -144 1 -294 65 -407 171 -73 71 -102 134 -102 228 0 133 47
212 162 270 155 77 394 97 690 59z m3259 -608 c43 -19 109 -40 147 -46 118
-19 167 -54 277 -196 74 -96 105 -128 197 -201 22 -18 51 -54 63 -80 23 -46
24 -55 22 -270 -1 -194 -4 -226 -21 -265 -40 -91 -172 -186 -271 -196 -60 -5
-68 4 -82 104 -13 97 -38 173 -91 284 -33 66 -58 101 -116 158 -107 105 -202
179 -253 197 -24 9 -53 24 -64 35 -44 41 -101 52 -311 59 -110 4 -206 11 -212
15 -38 23 9 129 102 231 92 101 125 122 229 140 54 9 110 27 145 45 73 39 130
36 239 -14z m-2869 -151 c53 -7 167 -21 252 -30 194 -20 227 -28 300 -76 48
-31 61 -45 69 -76 7 -24 23 -48 42 -62 39 -29 79 -113 79 -166 0 -46 -60 -199
-90 -229 -18 -19 -21 -18 -132 52 -173 108 -298 156 -449 172 -145 14 -282
-15 -382 -80 -68 -45 -216 -189 -267 -259 -24 -33 -50 -61 -56 -61 -21 0 -35
27 -44 83 -10 61 -19 81 -62 141 -38 52 -37 96 5 167 17 31 55 96 82 144 56
98 140 189 188 203 18 6 62 13 98 16 60 6 107 19 219 62 44 17 33 17 148 -1z
m2570 -339 c15 -8 38 -26 51 -40 14 -14 41 -31 60 -36 20 -5 59 -28 86 -50 28
-22 85 -65 128 -96 90 -65 115 -95 157 -188 52 -114 74 -224 73 -366 -1 -124
-9 -180 -29 -187 -6 -2 -44 26 -85 63 -93 83 -137 109 -223 129 -51 11 -89 29
-144 66 -104 71 -139 85 -282 109 -75 12 -177 39 -255 66 -119 42 -141 46
-271 54 -156 10 -322 40 -397 72 l-48 21 38 39 c49 50 188 145 278 190 124 63
410 142 575 161 94 10 262 6 288 -7z m-2413 -157 c134 -32 294 -119 375 -203
42 -44 35 -63 -31 -82 -24 -8 -80 -35 -124 -61 -163 -96 -240 -130 -341 -153
-273 -60 -339 -98 -633 -364 -73 -65 -135 -116 -139 -112 -3 4 1 53 11 108 36
210 147 476 267 636 172 232 344 297 615 231z m1195 -354 c52 -8 137 -25 188
-36 55 -12 139 -22 210 -24 129 -3 221 -23 349 -76 137 -56 177 -68 229 -69
98 0 155 -18 254 -78 96 -59 131 -75 185 -87 44 -10 121 -56 237 -144 145
-109 239 -171 366 -241 205 -113 273 -179 309 -300 27 -90 23 -163 -15 -255
-48 -115 -130 -261 -179 -314 l-41 -46 -44 16 c-587 222 -699 269 -977 418
-30 16 -84 35 -120 41 -153 26 -221 44 -308 81 -68 29 -106 39 -145 39 -39 0
-71 8 -118 31 -80 38 -172 62 -360 95 -282 48 -338 45 -487 -27 -63 -30 -110
-45 -198 -59 -131 -23 -189 -48 -213 -92 -29 -55 -55 -75 -108 -83 -79 -11
-273 -73 -351 -112 -40 -19 -80 -33 -88 -29 -9 3 -15 18 -15 41 0 48 -29 75
-80 75 -53 0 -85 -17 -162 -86 -34 -31 -83 -67 -108 -82 -79 -45 -126 -89
-208 -195 -93 -120 -114 -141 -165 -162 -50 -21 -97 -6 -133 40 -44 58 -55
115 -55 274 1 117 -3 158 -21 222 -27 99 -19 130 56 226 29 37 60 82 69 99 16
32 63 75 140 132 25 18 109 92 188 164 79 72 169 149 199 172 85 63 208 122
337 161 174 53 245 81 368 146 134 70 191 85 360 94 74 3 179 16 245 30 130
27 240 27 410 0z m-4480 -121 l155 -74 -2 -218 c-3 -390 -33 -1065 -47 -1080
-2 -1 -80 30 -175 70 l-171 72 0 652 c0 359 3 659 6 667 7 19 12 17 234 -89z
m-307 -640 l4 -630 -233 -84 c-129 -46 -236 -81 -238 -79 -22 22 -50 736 -44
1112 l3 189 130 60 c72 33 182 82 245 109 l115 48 7 -47 c3 -26 8 -331 11
-678z m2402 603 c10 -106 -12 -709 -29 -786 -16 -77 -46 -110 -126 -136 -50
-17 -54 -17 -66 -1 -20 28 -28 189 -29 546 l0 335 115 57 c63 32 118 58 122
58 3 0 9 -33 13 -73z m193 21 c40 -16 77 -38 82 -47 6 -12 0 -54 -20 -132 -16
-63 -34 -159 -40 -214 -14 -136 -15 -138 -61 -186 -22 -23 -55 -69 -72 -103
l-32 -61 -3 70 c-6 136 3 690 12 703 10 17 36 11 134 -30z m-2012 -122 c33
-14 108 -47 167 -75 l107 -50 0 -645 0 -645 -92 39 c-190 79 -263 112 -273
121 -6 6 -9 83 -7 202 5 303 31 1077 37 1077 1 0 29 -11 61 -24z m1508 -28 c5
-30 22 -474 28 -747 l3 -104 -95 -37 c-147 -59 -138 -58 -146 -5 -3 25 -7 218
-8 428 -1 416 -2 413 56 443 37 19 127 52 145 53 7 1 14 -14 17 -31z m-2650
-205 c16 -496 26 -1087 19 -1094 -11 -11 -245 -90 -250 -85 -20 19 -37 1128
-20 1229 8 44 12 49 60 74 64 32 158 72 173 73 8 0 13 -64 18 -197z m2379 5
c4 -62 7 -262 7 -444 l0 -331 -110 -46 c-60 -26 -112 -47 -115 -47 -3 0 -5
198 -5 440 l0 440 98 49 c53 28 102 50 108 50 7 1 13 -40 17 -111z m-719 -17
c93 -47 111 -61 119 -86 11 -39 13 -1162 1 -1197 l-9 -27 -154 61 -154 62 6
610 c3 336 8 621 12 633 6 19 10 20 38 11 17 -6 80 -36 141 -67z m-1969 -313
c3 -211 5 -497 3 -637 l-3 -254 -149 -58 c-82 -33 -157 -59 -166 -59 -13 0
-19 11 -23 43 -4 23 -9 301 -13 617 l-7 575 59 29 c72 35 277 126 285 126 4 0
10 -172 14 -382z m-1207 193 l162 -81 -1 -283 c-1 -334 -11 -653 -21 -662 -8
-8 -23 -3 -232 82 l-139 57 5 475 c3 262 9 484 13 493 9 21 9 21 213 -81z
m-276 -650 l-7 -244 -90 -38 c-98 -42 -117 -45 -133 -26 -6 7 -14 165 -21 382
-6 204 -14 407 -18 452 l-6 81 84 43 c46 23 109 52 139 65 l55 22 2 -246 c2
-136 0 -357 -5 -491z m-302 329 c6 -102 12 -297 13 -433 l2 -248 -120 -54
-120 -53 -6 71 c-4 40 -10 250 -13 467 l-7 395 113 56 113 57 7 -37 c4 -20 12
-119 18 -221z m898 168 c68 -39 72 -43 72 -77 0 -109 -21 -885 -24 -888 -2 -2
-40 11 -85 28 l-81 31 0 441 c0 243 3 459 7 480 7 44 5 45 111 -15z m-1194
-85 c8 -50 8 -729 0 -826 l-7 -76 -91 -37 c-50 -20 -97 -38 -104 -41 -18 -7
-18 886 1 910 11 14 173 106 188 107 4 0 9 -17 13 -37z m1455 -39 l94 -44 -5
-438 c-3 -240 -8 -445 -12 -454 -8 -19 -11 -18 -155 35 l-84 31 5 451 c2 248
8 457 12 463 10 16 25 11 145 -44z m6273 -119 c195 -17 243 -28 342 -80 45
-23 81 -35 109 -35 64 -1 123 -17 218 -61 47 -21 115 -45 150 -53 35 -8 97
-21 137 -30 48 -11 132 -45 245 -100 95 -46 234 -109 310 -140 345 -141 418
-172 502 -212 50 -24 101 -53 114 -64 22 -19 22 -23 10 -53 -7 -17 -23 -51
-37 -75 -20 -36 -29 -42 -47 -38 -13 3 -169 69 -346 147 -570 248 -749 315
-1032 384 -186 46 -269 55 -523 55 -116 0 -306 3 -423 7 l-212 6 -47 46 c-55
54 -173 119 -234 129 -81 14 -54 33 94 68 75 18 167 47 205 65 137 64 123 63
465 34z m-2462 -138 c0 -18 7 -57 15 -87 19 -69 19 -141 1 -184 -11 -25 -28
-40 -69 -60 -31 -14 -60 -26 -66 -26 -19 0 -26 52 -26 185 0 156 9 177 83 198
26 8 50 13 55 10 4 -2 7 -19 7 -36z m-208 -366 c-21 -28 -127 -70 -178 -71
-30 0 -32 3 -37 45 -4 25 -10 87 -13 140 -7 100 -2 118 41 136 11 4 58 24 105
43 l85 34 8 -150 c8 -141 7 -153 -11 -177z m1156 207 c26 -26 12 -65 -58 -159
-52 -70 -73 -108 -81 -147 -13 -57 -19 -61 -169 -121 -30 -12 -82 -42 -115
-66 -146 -108 -158 -112 -171 -60 -5 21 2 34 43 78 27 29 66 81 87 117 64 108
89 133 186 185 50 26 118 74 153 105 57 52 93 79 108 80 3 0 10 -5 17 -12z
m893 -35 c135 -153 229 -552 159 -682 -28 -54 -262 -166 -409 -196 -163 -35
-417 -41 -491 -13 -81 30 -159 168 -215 378 -31 117 -33 206 -6 259 62 120
290 244 521 281 41 6 82 13 90 15 8 1 81 3 162 4 l146 1 43 -47z m-2332 -165
l1 -116 -72 -28 c-40 -15 -110 -42 -155 -60 l-83 -32 0 158 0 158 148 59 147
59 7 -40 c3 -23 7 -93 7 -158z m-1516 14 l119 -47 -5 -210 c-3 -115 -11 -227
-17 -248 -10 -33 -14 -37 -33 -32 -34 10 -300 105 -302 107 -2 2 -5 121 -7
265 l-4 261 65 -24 c36 -14 119 -46 184 -72z m4727 57 c413 -31 692 -113 1305
-384 121 -54 273 -124 338 -157 113 -56 119 -60 112 -85 -9 -36 -35 -73 -51
-73 -8 0 -120 40 -249 90 -393 150 -650 239 -778 269 -74 18 -304 34 -387 27
-87 -7 -149 -23 -239 -60 -73 -30 -110 -32 -234 -11 -49 8 -157 19 -240 25
-84 6 -162 13 -173 15 -19 4 -26 25 -58 157 -53 216 -51 196 -14 202 50 7 515
-3 668 -15z m-5035 -263 l0 -248 -225 -78 c-124 -42 -236 -81 -249 -85 l-24
-7 5 243 c6 246 10 279 33 279 7 0 104 34 216 75 112 41 213 74 224 72 19 -2
20 -9 20 -251z m1474 22 l1 -86 140 -68 140 -68 -37 -38 c-56 -58 -92 -77
-159 -83 -32 -3 -79 -11 -102 -17 -55 -14 -62 -5 -62 79 0 65 -2 68 -84 126
-25 17 -26 22 -26 122 l0 104 39 11 c22 6 61 30 88 54 l48 44 7 -47 c3 -25 7
-85 7 -133z m-3835 90 c3 -13 6 -94 6 -181 l0 -158 -44 -19 c-24 -10 -74 -27
-110 -38 l-66 -20 2 181 3 182 95 37 c52 20 98 37 101 37 4 1 9 -9 13 -21z
m256 -51 l175 -72 3 -168 c2 -151 1 -168 -15 -174 -20 -8 -207 54 -303 101
l-65 31 2 155 c2 155 7 200 21 200 4 0 86 -33 182 -73z m4343 37 c86 -43 117
-70 117 -101 0 -27 -29 -48 -91 -63 -41 -10 -54 -9 -120 13 -89 30 -234 95
-227 102 7 7 221 84 236 84 7 1 45 -15 85 -35z m-1512 -60 l116 -46 7 -82 c8
-104 8 -334 0 -374 l-6 -30 -157 55 c-86 30 -174 61 -197 69 l-40 15 7 62 c5
34 11 134 15 222 4 88 11 168 15 177 9 16 13 16 67 -3 31 -11 109 -40 173 -65z
m-1271 -235 l0 -236 -102 -36 c-160 -56 -145 -56 -153 5 -3 29 -7 138 -8 242
l-2 189 125 47 c87 33 127 44 132 36 4 -6 8 -117 8 -247z m-2083 34 l6 -169
-124 -42 c-97 -32 -126 -39 -136 -29 -8 8 -13 59 -14 157 l-2 144 27 21 c40
30 220 104 230 95 4 -5 11 -84 13 -177z m4603 128 c78 -32 144 -62 148 -66 9
-9 -12 -21 -103 -56 -125 -49 -130 -48 -295 25 -86 38 -139 67 -130 70 8 4 60
24 115 45 55 22 105 40 112 40 6 1 75 -26 153 -58z m-3747 -26 l67 -18 0 -162
c0 -209 0 -209 -101 -169 l-74 30 -3 158 c-2 157 4 193 32 183 6 -2 41 -12 79
-22z m2912 -68 l200 -82 3 -203 c3 -225 -2 -248 -46 -237 -15 3 -109 36 -209
72 l-183 66 0 227 c0 125 3 230 7 233 11 12 22 8 228 -76z m-2002 -214 l-6
-203 -170 -56 c-129 -42 -172 -53 -178 -43 -11 18 -27 151 -39 309 -5 74 -8
135 -7 136 4 2 334 122 362 131 29 10 30 9 37 -31 4 -23 4 -132 1 -243z m3983
181 c6 -54 14 -115 18 -135 6 -34 5 -37 -31 -53 -71 -32 -148 -47 -267 -53
l-119 -6 7 39 c10 51 52 143 79 172 35 38 126 88 207 116 41 14 80 24 85 22 6
-1 15 -47 21 -102z m5159 51 c200 -52 303 -197 351 -495 24 -147 7 -275 -53
-395 -57 -112 -159 -238 -264 -326 l-50 -41 -63 31 c-74 36 -86 38 -86 12 0
-25 73 -73 163 -107 191 -70 270 -140 292 -255 17 -94 -82 -249 -159 -249 -36
0 -100 39 -176 106 -41 36 -93 75 -115 86 -22 12 -114 40 -205 63 -211 55
-272 78 -319 123 -52 50 -75 120 -96 282 -23 188 -35 229 -67 230 -5 0 -8 -16
-8 -35 0 -19 -3 -35 -7 -35 -11 0 -70 88 -88 132 -21 52 -19 117 6 184 28 75
72 121 160 169 90 50 129 95 170 198 85 214 146 280 300 321 73 20 240 20 314
1z m-11235 -24 c11 -22 13 -151 4 -252 l-7 -65 -140 -47 c-78 -26 -143 -44
-146 -41 -3 3 -8 68 -9 145 -4 155 -4 157 62 191 55 28 198 87 213 88 7 0 17
-9 23 -19z m1445 -30 l130 -48 -1 -59 c-1 -74 -23 -257 -33 -273 -5 -8 -24 -4
-67 15 -32 15 -81 34 -109 43 -42 13 -51 21 -56 46 -9 43 -10 325 -1 325 4 -1
66 -23 137 -49z m7041 4 c130 -23 348 -77 518 -130 321 -99 939 -324 965 -350
13 -13 12 -19 -7 -54 -12 -21 -22 -50 -22 -64 0 -47 -19 -76 -74 -111 -122
-78 -173 -145 -183 -240 -9 -85 14 -253 40 -295 18 -29 23 -56 27 -136 5 -95
7 -104 45 -165 21 -36 65 -91 98 -123 64 -64 66 -77 16 -105 -82 -44 -184
-119 -287 -211 -63 -56 -115 -101 -118 -101 -2 0 -18 30 -36 68 -20 40 -57 92
-93 130 -52 53 -66 62 -96 62 l-36 0 1 118 c1 106 -1 122 -25 172 -30 63 -79
117 -126 136 -40 17 -132 18 -186 2 l-40 -12 -66 71 c-79 86 -125 116 -209
139 -56 16 -72 16 -130 5 -135 -26 -125 -27 -209 23 -103 61 -167 80 -273 80
-103 -1 -172 -27 -225 -85 -19 -22 -42 -39 -50 -39 -9 0 -42 13 -74 29 -66 34
-165 66 -230 77 -29 4 -55 16 -72 34 -27 27 -59 112 -59 159 0 14 -14 64 -30
111 -17 46 -30 96 -30 111 0 15 -17 60 -39 101 -43 81 -67 172 -57 212 5 19
22 34 66 56 67 34 134 90 155 129 7 14 18 53 24 86 7 33 14 71 17 84 l5 24
192 -6 c106 -3 210 -11 232 -17 37 -11 38 -13 20 -26 -19 -14 -56 -26 -117
-39 -29 -6 -38 -29 -15 -38 23 -9 96 9 217 53 258 93 380 108 576 75z m-7711
-164 c74 -27 149 -53 167 -56 l32 -7 -35 -19 c-18 -10 -63 -28 -98 -40 -96
-32 -154 -24 -293 43 l-113 55 34 18 c44 22 131 53 153 54 10 1 78 -21 153
-48z m2351 15 c96 -36 154 -63 154 -72 0 -7 -219 -110 -337 -159 l-91 -37
-156 62 c-86 35 -156 66 -156 70 0 5 33 20 73 34 140 51 392 134 407 135 8 1
56 -14 106 -33z m1937 -52 c45 -1 100 -6 122 -12 65 -19 123 -14 255 23 170
47 163 49 158 -27 -3 -42 -14 -86 -36 -133 -17 -38 -36 -97 -42 -130 -5 -32
-21 -80 -33 -105 -20 -38 -36 -51 -103 -87 -43 -23 -86 -42 -94 -43 -8 0 -34
34 -59 78 -112 197 -260 348 -414 423 -26 13 -47 26 -47 30 0 3 18 6 39 6 23
0 54 9 73 21 l33 21 33 -32 c32 -30 37 -32 115 -33z m-4555 -74 c78 -36 142
-68 142 -71 0 -4 -51 -26 -113 -48 l-113 -42 -75 27 c-94 34 -244 103 -237
109 7 8 242 94 249 92 3 -1 70 -31 147 -67z m5664 23 c43 -65 116 -140 173
-178 60 -39 61 -42 69 -156 3 -41 15 -104 27 -140 12 -37 24 -106 28 -164 6
-89 11 -110 44 -176 20 -42 37 -83 37 -92 0 -9 20 -36 45 -59 34 -32 49 -56
65 -107 11 -36 37 -102 58 -146 l38 -80 -44 -92 c-41 -85 -45 -100 -54 -210
-17 -213 -20 -226 -50 -241 -40 -19 -53 -69 -52 -202 0 -96 5 -135 33 -240
l32 -125 -25 -55 c-14 -30 -26 -69 -26 -86 0 -66 51 -197 130 -334 15 -25 19
-45 15 -71 -13 -76 45 -177 192 -332 52 -55 101 -113 109 -130 9 -18 73 -87
143 -155 l126 -122 -38 -34 c-51 -45 -149 -92 -243 -116 -93 -24 -159 -25
-209 -5 -20 9 -66 19 -102 22 -42 4 -74 13 -93 27 -15 12 -57 42 -92 68 -147
108 -175 145 -217 284 -58 191 -43 424 50 744 114 392 123 437 108 549 -14
104 -51 177 -153 296 -174 202 -322 447 -389 640 -19 55 -51 174 -71 265 -55
252 -81 340 -135 457 -63 139 -82 195 -88 263 -5 50 -3 59 22 88 31 38 113 65
243 82 112 15 203 44 232 75 13 14 27 25 30 25 4 0 19 -17 32 -37z m-1492 -3
c101 -13 162 -46 251 -132 130 -128 220 -262 255 -383 45 -160 -38 -399 -189
-542 -66 -63 -92 -76 -190 -98 -107 -24 -151 -17 -271 43 -111 55 -153 92
-222 192 -36 53 -47 79 -55 135 -12 77 -19 94 -60 145 -41 51 -65 152 -49 209
16 59 44 84 123 110 75 25 72 20 82 145 10 134 31 162 129 176 73 11 111 11
196 0z m-1078 -60 c78 -28 146 -54 151 -59 7 -7 -150 -81 -173 -81 -4 0 -49
-18 -99 -41 -147 -65 -219 -62 -426 17 -114 44 -117 38 53 115 265 120 285
122 494 49z m-1091 -19 c116 -40 269 -103 269 -111 0 -4 -39 -25 -87 -45 l-88
-37 -71 21 c-99 28 -284 101 -284 111 0 7 89 47 160 73 27 10 46 7 101 -12z
m-2350 -49 c80 -33 154 -64 165 -70 18 -10 17 -11 -11 -23 -16 -6 -77 -27
-134 -45 l-103 -33 -47 18 c-25 11 -95 40 -155 66 -125 55 -127 49 34 106 58
21 105 38 106 38 0 1 65 -25 145 -57z m6889 -69 c6 -38 27 -107 46 -154 19
-48 39 -110 44 -139 5 -29 19 -67 29 -84 11 -17 24 -60 30 -95 6 -37 24 -88
45 -126 l34 -63 -55 -52 c-66 -63 -134 -165 -188 -283 l-40 -88 -70 4 c-80 6
-118 20 -140 53 -8 13 -36 76 -61 141 -25 65 -62 138 -80 162 -19 24 -34 51
-34 59 0 8 -16 50 -35 92 -24 54 -39 104 -46 162 -5 45 -21 125 -35 177 -28
105 -33 177 -12 197 8 8 73 19 171 29 159 16 254 32 337 59 25 8 46 14 46 15
1 1 7 -29 14 -66z m-3044 -7 c193 -66 194 -66 194 -76 0 -23 -392 -170 -454
-170 -45 0 -223 57 -301 97 l-39 20 25 13 c17 10 403 167 415 170 1 0 73 -24
160 -54z m-1760 0 c89 -30 255 -94 262 -100 6 -7 -101 -57 -178 -84 l-85 -30
-75 20 c-147 38 -352 110 -341 121 10 10 287 107 307 107 5 0 55 -15 110 -34z
m-652 -42 c52 -40 158 -160 212 -241 91 -137 110 -231 79 -385 -25 -128 -74
-219 -164 -309 -90 -90 -164 -129 -258 -137 -77 -6 -135 8 -241 59 -123 59
-173 116 -265 297 -43 86 -80 173 -87 207 -13 62 -9 285 5 318 4 10 24 25 44
33 98 42 573 192 612 194 9 0 37 -16 63 -36z m1433 -18 c208 -75 202 -69 119
-106 -99 -45 -146 -48 -247 -15 -104 34 -199 75 -199 86 0 7 154 87 170 89 3
0 74 -24 157 -54z m7193 -10 c0 -2 -6 -21 -14 -42 -25 -71 -29 -138 -12 -203
21 -82 46 -128 108 -201 74 -86 88 -115 88 -181 0 -129 38 -236 107 -305 21
-20 76 -54 123 -76 138 -63 135 -60 138 -97 7 -67 -42 -131 -100 -131 -16 0
-60 -17 -96 -37 -67 -38 -67 -38 -183 -38 -97 0 -120 3 -136 17 -10 10 -38 24
-62 33 -23 8 -57 25 -74 37 -56 39 -208 192 -227 228 -33 65 -42 114 -28 164
11 42 10 47 -9 68 -27 29 -68 117 -84 181 -15 61 0 116 51 195 39 61 111 132
133 132 26 0 46 36 61 103 18 87 49 121 136 148 27 8 80 12 80 5z m-7519 -92
c120 -41 202 -81 194 -93 -10 -18 -142 -63 -195 -68 -58 -5 -125 8 -263 54
-76 24 -78 26 -56 41 16 11 190 93 216 101 0 1 47 -15 104 -35z m882 -96 c43
-17 76 -36 74 -42 -2 -6 -39 -24 -83 -39 -108 -38 -153 -33 -324 34 -74 30
-135 58 -135 63 0 5 45 26 99 47 l99 37 96 -34 c53 -19 131 -49 174 -66z
m-3653 -28 c73 -103 117 -186 122 -230 3 -21 -1 -25 -22 -22 -58 5 -172 74
-251 151 -43 42 -79 81 -79 88 0 6 15 20 33 31 17 12 45 34 61 51 17 17 37 31
47 31 10 0 46 -40 89 -100z m627 -8 c62 3 111 2 108 -2 -2 -4 -53 -40 -112
-81 -59 -41 -137 -102 -173 -135 -36 -34 -80 -69 -98 -78 -38 -20 -133 -26
-139 -10 -5 14 142 237 192 293 l36 40 37 -16 c29 -12 62 -14 149 -11z m2616
-37 c74 -25 154 -53 178 -63 l43 -18 -80 -34 c-99 -42 -157 -44 -274 -5 -143
46 -242 87 -233 95 16 16 168 69 200 69 17 1 92 -19 166 -44z m-517 -54 c116
-35 140 -51 165 -107 30 -71 28 -75 -36 -68 -63 8 -74 2 -171 -83 -34 -29 -65
-53 -70 -53 -5 0 -26 36 -46 79 -33 73 -40 82 -92 111 -31 18 -59 36 -62 42
-8 13 63 87 101 104 37 17 88 11 211 -25z m-2390 -306 c58 -17 84 -42 182
-176 55 -76 80 -101 116 -119 25 -12 46 -26 46 -31 0 -14 -76 -46 -125 -53
-48 -8 -75 8 -130 74 -81 97 -201 292 -190 310 9 14 43 12 101 -5z m7832 -60
c81 -19 146 -53 212 -109 30 -25 57 -46 61 -46 4 0 16 15 27 34 25 42 74 53
159 36 118 -25 222 -101 243 -179 9 -34 15 -41 36 -41 14 0 42 9 64 20 49 25
103 25 155 1 78 -36 108 -96 109 -222 1 -71 -2 -91 -17 -107 -36 -40 -9 -70
80 -92 113 -28 182 -161 170 -329 -5 -81 -29 -156 -53 -165 -8 -3 -14 -17 -14
-31 0 -19 7 -28 28 -36 34 -13 70 -46 88 -81 19 -37 19 -209 -1 -274 -14 -47
-10 -63 17 -64 4 0 18 -19 32 -42 l24 -41 -20 -51 c-13 -31 -20 -73 -20 -108
0 -40 -4 -58 -13 -58 -7 0 -49 -39 -94 -86 -77 -80 -83 -85 -103 -72 -12 8
-26 34 -33 61 -6 25 -17 53 -24 61 -11 13 -3 27 48 88 34 39 66 89 71 109 20
72 -12 149 -69 173 -20 8 -53 32 -73 54 -30 32 -47 41 -80 44 -93 10 -223 -23
-236 -60 -3 -9 25 -12 113 -12 121 0 155 -8 155 -39 0 -24 28 -47 68 -56 18
-4 40 -18 49 -31 14 -23 14 -27 -12 -79 -45 -92 -210 -207 -357 -250 -66 -19
-82 -16 -134 26 -85 67 -245 82 -369 35 -152 -58 -280 -148 -315 -222 -19 -39
-21 -54 -15 -120 l7 -74 -118 -57 c-115 -55 -120 -57 -220 -61 -116 -5 -238
16 -276 49 -23 19 -23 19 -4 34 11 8 27 15 37 15 25 0 36 19 43 79 9 68 23 89
96 142 69 50 76 69 24 69 -80 0 -166 -75 -197 -173 -10 -31 -32 -70 -52 -91
-20 -22 -35 -48 -35 -62 0 -48 124 -104 278 -126 93 -12 84 -8 165 -99 26 -29
28 -36 22 -83 -4 -28 -9 -53 -10 -54 -2 -2 -57 -6 -122 -9 -141 -7 -158 -1
-170 59 -9 44 -13 48 -83 72 -61 21 -120 71 -120 101 0 26 -30 52 -112 98 -62
36 -88 70 -88 117 0 35 -4 40 -52 68 -63 35 -178 139 -207 186 -23 36 -29 122
-10 128 15 5 -10 54 -61 123 -85 114 -141 246 -120 284 9 18 17 21 46 15 44
-8 44 3 0 115 -58 143 -80 243 -81 357 0 115 6 128 67 145 l40 10 -8 82 c-24
219 12 433 78 468 12 6 68 12 126 13 l104 1 18 57 c29 93 101 230 145 274 116
115 363 106 502 -20 22 -20 45 -36 49 -36 5 0 34 27 63 61 30 34 68 70 85 80
38 23 107 24 194 4z m-4728 -995 c34 -68 51 -80 114 -80 25 0 46 -4 46 -8 0
-12 -36 -41 -120 -97 -75 -51 -189 -154 -207 -189 -8 -15 -25 -20 -87 -24 -86
-5 -87 -4 -55 61 19 37 269 397 276 397 2 0 16 -27 33 -60z m-525 -102 c55
-81 98 -172 93 -196 -5 -25 -40 -18 -123 23 -73 35 -168 109 -207 159 l-22 29
24 16 c14 9 47 35 75 57 l50 42 32 -31 c18 -17 53 -61 78 -99z m3000 98 c54
-36 17 -142 -76 -218 -24 -20 -80 -54 -124 -76 l-80 -41 -17 38 c-27 59 -48
150 -48 208 0 58 -3 56 90 68 25 3 59 15 75 26 25 17 41 19 92 16 35 -3 74
-12 88 -21z m4156 -16 c10 -6 30 -33 44 -61 30 -59 43 -66 84 -45 37 20 76 8
93 -29 9 -21 8 -32 -5 -61 -26 -54 -23 -74 14 -74 40 0 91 -24 108 -51 11 -19
10 -26 -16 -63 -31 -43 -44 -47 -109 -31 l-31 7 -6 -57 c-6 -60 -35 -105 -66
-105 -8 0 -37 21 -63 47 l-48 47 -29 -17 c-41 -24 -74 -21 -101 9 l-24 25 37
35 c39 37 40 57 4 53 -52 -6 -97 37 -97 91 0 56 38 90 103 90 21 0 27 5 27 23
0 12 -7 31 -15 41 -19 25 -19 49 1 87 21 42 60 57 95 39z m-3871 -80 c59 -30
108 -77 129 -124 10 -22 37 -65 60 -95 22 -30 41 -59 41 -65 0 -20 -34 -46
-62 -46 -46 0 -81 24 -126 88 -48 69 -132 226 -132 247 0 21 43 19 90 -5z
m-3329 -266 c84 -25 91 -37 67 -116 -24 -82 -169 -202 -293 -243 -49 -16 -50
-16 -67 5 -37 45 -76 237 -59 284 8 20 19 25 68 31 32 3 83 17 113 30 65 29
98 30 171 9z m-2180 -166 c5 -45 16 -71 58 -133 29 -43 48 -81 44 -85 -4 -4
-30 -13 -56 -20 -58 -16 -88 -38 -128 -96 l-31 -45 -66 71 c-60 62 -71 70
-105 70 -20 0 -37 2 -37 5 0 2 16 33 35 68 39 70 43 103 20 167 -8 24 -13 46
-10 48 3 3 39 -4 80 -16 94 -28 103 -27 140 3 17 13 35 23 40 21 6 -1 13 -28
16 -58z m1093 23 c124 -61 287 -242 357 -397 69 -151 62 -276 -24 -448 -87
-175 -188 -256 -357 -288 -111 -21 -183 1 -300 89 -119 90 -174 163 -264 352
-40 85 -41 87 -44 219 -3 102 0 149 13 204 24 96 82 179 163 235 90 61 135 73
272 70 108 -2 120 -4 184 -36z m1485 13 c41 -21 63 -41 102 -98 81 -117 98
-135 155 -167 30 -17 53 -36 51 -43 -4 -14 -51 -37 -96 -47 -58 -13 -104 5
-157 64 -49 54 -144 192 -144 209 0 6 -11 23 -25 40 -14 16 -25 38 -25 49 0
29 73 26 139 -7z m6938 -159 c29 -20 99 -235 115 -348 15 -116 4 -413 -21
-559 -61 -348 -228 -658 -488 -908 -145 -140 -274 -213 -454 -259 -185 -47
-539 -53 -674 -11 -137 43 -462 213 -505 265 -18 21 9 24 230 27 194 3 195 3
255 33 34 17 86 56 119 90 l59 60 98 6 c111 8 172 31 214 81 14 16 25 42 25
57 0 15 8 35 18 44 9 8 91 50 182 92 180 84 267 137 348 208 29 26 55 47 58
47 3 0 5 -53 4 -117 -2 -177 -1 -193 10 -193 20 0 32 45 46 173 19 167 23 177
70 177 20 0 49 -8 65 -17 23 -14 31 -15 41 -5 28 28 -51 92 -115 92 -45 0 -44
-9 -2 109 34 95 39 189 11 220 -30 33 -15 83 54 183 95 137 145 258 165 400 4
29 13 52 23 58 23 13 24 12 49 -5z m-529 -422 c3 -28 8 -34 42 -43 22 -6 52
-21 66 -33 l26 -23 -21 -34 c-30 -50 -27 -69 14 -86 61 -25 60 -106 -4 -238
-83 -170 -159 -234 -467 -396 -173 -91 -206 -115 -219 -160 -23 -74 -81 -107
-214 -119 l-91 -8 -53 -51 c-106 -100 -154 -110 -532 -119 -247 -5 -263 -5
-300 14 -22 11 -71 23 -109 27 -119 12 -149 39 -165 148 -5 36 -19 87 -30 113
-28 62 -26 80 7 103 61 44 94 47 557 47 500 1 505 2 692 90 194 92 296 199
498 530 50 81 108 168 130 193 43 49 106 83 145 80 20 -3 26 -9 28 -35z m-439
-19 c12 -15 21 -40 21 -56 0 -23 6 -31 30 -39 22 -8 30 -17 30 -35 0 -59 -142
-283 -251 -399 -88 -92 -190 -162 -301 -206 l-83 -33 -260 -4 c-143 -2 -306
-1 -362 3 l-103 7 0 71 c0 70 -1 73 -36 100 -44 36 -38 45 60 94 39 19 97 53
130 75 43 29 65 38 82 34 13 -3 35 -9 49 -12 36 -9 32 15 -10 66 -19 23 -38
53 -41 67 -25 99 126 229 312 268 91 19 203 19 252 -1 43 -17 57 -38 69 -104
11 -56 40 -68 49 -20 8 40 27 52 144 90 52 17 106 37 120 45 39 23 76 18 99
-11z m-2902 -520 c30 -65 94 -139 143 -164 21 -11 65 -43 97 -71 32 -28 73
-57 92 -65 19 -8 109 -27 201 -42 165 -28 167 -28 210 -10 24 10 81 32 127 48
80 28 83 29 93 10 14 -26 13 -69 -5 -137 -8 -31 -15 -85 -15 -119 0 -95 -9
-121 -59 -176 l-47 -51 -145 -12 c-79 -6 -155 -17 -168 -24 -47 -26 -148 -9
-257 42 -66 31 -119 48 -159 53 -57 6 -63 10 -115 64 -62 64 -156 215 -188
303 -28 75 -28 126 2 190 14 29 28 77 32 107 9 69 23 99 70 140 l38 33 14 -34
c9 -19 26 -57 39 -85z m-5366 -100 c61 -63 120 -79 196 -52 18 6 35 10 37 7 3
-3 17 -30 30 -61 l25 -57 -34 -21 c-65 -40 -93 -120 -64 -184 10 -20 9 -29 -5
-48 -9 -13 -28 -39 -42 -58 -37 -50 -30 -111 21 -180 28 -38 35 -54 26 -63 -8
-8 -14 -6 -24 7 -8 11 -23 17 -38 14 -21 -3 -24 -9 -27 -47 -2 -27 2 -49 11
-60 37 -42 28 -88 -15 -72 -14 5 -77 13 -141 17 l-116 7 -12 56 c-6 31 -19 77
-29 103 -9 25 -15 50 -11 55 13 20 75 56 114 68 22 6 43 17 45 23 2 6 -21 37
-51 70 -86 93 -176 211 -183 238 -8 31 0 92 21 159 23 75 26 79 87 77 36 -1
64 5 88 18 47 26 51 25 91 -16z m5230 -506 c28 -58 98 -127 160 -158 20 -11
76 -30 125 -44 49 -14 115 -37 148 -51 80 -35 126 -40 234 -21 50 9 99 16 108
16 9 0 26 -23 41 -56 20 -44 27 -77 30 -148 6 -137 9 -148 62 -214 89 -111
102 -198 38 -246 -24 -18 -43 -21 -120 -21 -83 0 -97 3 -147 30 -81 45 -159
127 -209 223 -46 87 -107 152 -141 152 -28 0 -25 -12 15 -61 61 -72 61 -73 5
-109 -69 -44 -287 -143 -399 -180 -158 -53 -356 -51 -478 6 -90 42 -203 200
-218 304 -13 93 57 237 162 331 73 66 166 122 307 186 76 34 160 76 185 93 25
16 51 28 56 27 6 -2 22 -28 36 -59z m-4332 -187 c49 -16 56 -14 95 20 20 17
42 29 51 27 12 -2 2 -30 -46 -128 -76 -156 -104 -225 -124 -303 -18 -71 -33
-91 -97 -123 -72 -37 -73 -34 -48 228 11 123 25 258 32 301 l11 79 46 -45 c25
-24 61 -49 80 -56z m-599 -247 c114 -46 320 -206 320 -248 0 -15 -136 -17
-207 -2 -62 13 -263 95 -263 108 0 25 69 168 80 168 4 0 35 -12 70 -26z m693
-330 c18 -10 65 -39 105 -66 89 -60 168 -98 204 -98 39 0 58 -10 58 -31 0 -26
-56 -87 -104 -111 -35 -18 -44 -19 -76 -8 -78 28 -321 205 -375 273 -23 29
-23 33 -8 45 25 18 157 16 196 -4z m4673 -1 c22 -68 90 -141 193 -208 40 -26
75 -53 78 -61 9 -24 -26 -101 -88 -194 -71 -106 -121 -152 -208 -194 -61 -29
-74 -31 -172 -31 -105 0 -106 0 -195 44 -119 59 -172 115 -253 264 -35 64 -61
124 -57 132 3 10 19 15 44 15 117 0 527 155 591 224 28 30 59 34 67 9z m-5075
-41 c4 -19 12 -39 18 -45 47 -47 -40 -303 -139 -409 -48 -52 -49 -53 -76 -38
-34 18 -150 169 -193 250 l-31 58 47 31 c56 36 97 72 120 107 9 14 29 32 44
40 39 20 138 43 174 41 25 -2 30 -7 36 -35z m3960 -203 c31 -67 54 -82 121
-77 30 1 55 -1 57 -7 2 -5 -40 -39 -93 -76 -54 -36 -132 -97 -175 -136 -96
-88 -125 -103 -196 -103 l-57 0 28 48 c43 73 274 402 283 402 4 0 18 -23 32
-51z m-547 -77 c80 -121 126 -211 126 -247 0 -26 -1 -27 -18 -12 -10 9 -38 23
-62 32 -68 24 -121 58 -187 122 -95 92 -95 91 -11 157 39 30 74 53 79 50 5 -3
37 -49 73 -102z m-2730 -226 c102 -50 278 -242 347 -378 97 -192 71 -394 -74
-581 -102 -131 -196 -180 -348 -181 -91 -1 -99 1 -172 37 -65 32 -88 51 -153
125 -112 129 -166 216 -200 318 -27 82 -29 101 -29 234 0 143 1 146 32 213 37
78 125 172 192 206 63 32 113 40 237 37 98 -2 118 -5 168 -30z m2716 -65 l75
-16 -3 -45 c-8 -101 -96 -201 -237 -269 -119 -58 -121 -58 -141 -19 -23 44
-52 158 -60 234 -7 71 -11 68 91 80 33 3 80 17 105 30 53 27 70 28 170 5z
m375 -125 c60 -28 101 -70 153 -156 28 -47 55 -76 98 -106 32 -22 59 -47 59
-55 0 -8 -21 -21 -50 -30 -97 -32 -100 -32 -146 4 -23 17 -50 44 -58 58 -9 14
-33 48 -53 75 -34 44 -128 213 -128 228 0 15 79 4 125 -18z m-3811 -141 c3 -8
10 -63 16 -122 18 -177 58 -323 101 -369 28 -30 10 -38 -49 -25 -26 5 -78 17
-117 26 -84 19 -312 138 -327 172 -6 12 -7 34 -4 49 11 43 132 156 201 189 33
15 77 43 98 61 39 36 71 44 81 19z m4578 -302 c43 -39 49 -42 75 -32 106 41
186 69 190 66 2 -3 -5 -38 -17 -78 -25 -93 -25 -118 4 -202 12 -37 20 -69 18
-72 -3 -3 -27 -5 -54 -5 -63 0 -114 -27 -178 -92 -49 -52 -50 -53 -68 -33 -10
11 -24 39 -31 62 -16 58 -54 100 -120 131 -30 15 -56 32 -58 38 -2 6 19 25 46
42 64 42 91 95 91 178 0 90 -1 90 102 -3z m-1763 -182 c36 -87 62 -117 138
-155 28 -14 54 -30 57 -35 4 -5 -13 -23 -38 -40 -53 -36 -80 -89 -96 -184 -7
-37 -16 -69 -20 -72 -4 -3 -39 11 -76 31 -68 36 -70 36 -156 29 -49 -3 -88 -4
-88 -1 0 2 7 35 16 72 18 81 13 103 -52 182 l-47 57 107 3 106 3 21 42 c25 49
87 147 93 147 2 0 18 -35 35 -79z m1578 -151 c33 -19 60 -64 82 -133 28 -84
62 -86 166 -12 170 122 194 115 239 -68 14 -54 36 -120 50 -147 14 -28 26 -62
26 -77 0 -35 -87 -217 -125 -261 -26 -31 -73 -62 -94 -62 -18 0 -123 104 -161
160 -42 63 -69 84 -118 94 -39 9 -41 29 -11 81 39 66 8 142 -79 192 -26 14
-48 27 -50 29 -2 1 7 18 19 38 19 32 20 45 14 111 -4 41 -3 75 2 75 4 0 22 -9
40 -20z m-612 -157 c133 -72 301 -270 374 -442 72 -169 8 -403 -155 -568 -140
-143 -297 -175 -468 -95 -84 40 -165 117 -241 231 -106 159 -136 247 -149 437
-8 113 4 169 52 248 48 80 92 127 153 167 69 44 93 48 254 46 122 -2 145 -5
180 -24z m-3409 -24 c41 -25 41 -31 9 -73 -28 -36 -33 -99 -14 -154 10 -28 8
-35 -21 -70 -51 -64 -41 -150 24 -211 53 -49 26 -61 -138 -61 -97 0 -154 9
-186 30 -17 11 -17 101 0 191 14 75 79 249 105 284 27 36 118 84 159 85 16 0
44 -9 62 -21z m1888 -164 c4 -19 20 -48 37 -65 28 -28 36 -30 102 -30 l72 0
-50 -32 c-111 -69 -154 -100 -235 -173 -123 -110 -228 -155 -238 -102 -5 22
89 181 155 262 27 33 59 76 72 95 31 44 62 80 72 80 4 0 10 -16 13 -35z m-574
-37 c66 -90 180 -288 180 -312 0 -9 -78 17 -147 50 -52 25 -96 57 -155 114
l-83 80 30 22 c17 13 50 42 75 65 25 23 47 43 50 42 3 0 25 -27 50 -61z m0
-339 c25 -6 55 -20 68 -31 69 -66 -28 -210 -204 -300 -135 -69 -127 -69 -157
5 -25 61 -57 196 -57 236 0 23 27 41 62 41 13 0 62 13 108 30 93 32 113 35
180 19z m393 -123 c52 -19 68 -35 148 -148 38 -54 81 -105 95 -115 14 -10 37
-28 52 -41 l27 -22 -24 -20 c-17 -15 -38 -20 -76 -20 -102 0 -128 19 -227 170
-79 118 -120 194 -111 204 11 10 76 6 116 -8z m2604 -341 c37 -42 68 -101 77
-147 4 -15 12 -33 20 -40 12 -12 11 -27 -5 -101 -10 -47 -25 -100 -34 -117
-27 -52 -84 -108 -118 -116 -17 -3 -39 -11 -48 -17 -12 -8 -37 -7 -86 2 -62
12 -73 12 -102 -4 -64 -33 -89 -9 -113 105 -13 67 -15 62 46 150 17 23 32 60
35 83 l6 41 52 -3 c88 -4 157 42 174 117 8 36 4 66 -17 116 -7 17 -3 17 36 -5
23 -13 58 -42 77 -64z m-2896 -311 c64 -67 136 -89 189 -59 39 22 56 18 78
-19 24 -40 87 -76 132 -76 17 0 49 9 72 21 33 17 42 18 49 7 5 -7 9 -16 9 -20
0 -14 64 -79 91 -94 44 -22 110 -18 152 11 l36 24 20 -43 c46 -104 170 -138
252 -68 24 20 34 23 37 13 10 -30 75 -90 109 -102 46 -15 104 -7 142 20 37 27
47 26 62 -1 10 -19 9 -24 -7 -33 -44 -24 -113 -104 -120 -139 -3 -20 -7 -36
-9 -36 -1 0 -19 7 -38 15 -51 21 -97 19 -147 -8 -86 -45 -103 -137 -38 -204
35 -36 111 -83 135 -83 25 0 112 91 134 141 21 46 23 47 43 33 39 -27 92 -36
129 -20 46 19 107 81 114 117 5 24 9 28 27 23 35 -10 171 -91 169 -100 -1 -5
-27 -16 -57 -25 -190 -57 -210 -151 -87 -408 17 -36 29 -67 26 -69 -2 -2 -38
3 -80 12 -132 27 -264 18 -353 -26 -104 -50 -206 -190 -242 -334 -11 -43 -28
-86 -38 -95 -15 -15 -106 -48 -170 -62 -22 -5 -22 -4 10 51 17 32 49 85 70
120 57 93 128 231 128 247 0 43 -146 46 -202 5 l-30 -22 -25 24 c-36 33 -66
104 -58 136 5 22 55 106 85 145 4 4 26 1 49 -8 74 -26 98 -21 152 34 47 46 49
50 49 106 0 55 -2 60 -40 96 -90 85 -210 58 -261 -60 -18 -40 -21 -42 -37 -29
-47 41 -127 28 -197 -32 -55 -48 -69 -55 -115 -64 -72 -13 -140 -94 -140 -166
0 -20 -5 -30 -15 -30 -27 0 -29 31 -7 115 39 147 26 284 -38 422 -39 85 -80
143 -163 230 -89 94 -188 160 -310 207 -53 21 -99 41 -102 46 -6 10 81 89 112
101 12 4 44 6 70 3 38 -4 59 0 98 20 28 13 52 25 56 25 3 1 21 -15 40 -35z
m-269 -235 c50 -13 144 -85 228 -177 244 -265 275 -469 114 -730 -97 -156
-183 -221 -322 -242 -160 -25 -290 42 -438 225 -185 229 -237 525 -128 726 35
64 116 145 176 175 79 40 258 51 370 23z m2785 -78 c32 -16 59 -14 104 10 23
11 43 18 46 15 9 -8 -39 -76 -107 -152 -34 -38 -87 -107 -118 -154 -60 -92
-77 -109 -105 -110 -11 0 -30 -9 -44 -19 -28 -22 -53 -18 -53 9 0 21 36 121
122 339 l61 155 36 -41 c20 -22 46 -46 58 -52z m-524 -185 c116 -115 163 -174
149 -188 -16 -16 -138 6 -212 37 -112 47 -241 135 -198 135 17 0 56 40 93 97
l27 43 30 -21 c16 -12 66 -58 111 -103z m105 -325 c3 -45 -3 -66 -29 -119 -36
-74 -146 -195 -208 -230 l-40 -23 -32 43 c-44 60 -109 196 -109 229 0 32 9 39
81 68 31 12 67 34 80 48 35 37 55 42 159 40 l95 -2 3 -54z m356 28 c22 -11 74
-52 117 -89 91 -81 128 -102 188 -109 l44 -6 -28 -33 c-27 -32 -111 -82 -138
-82 -43 0 -347 267 -347 305 0 39 102 48 164 14z m-236 -236 c6 -16 15 -50 22
-78 6 -27 21 -66 32 -85 16 -28 22 -57 26 -140 6 -135 5 -141 -6 -230 -9 -77
-47 -173 -65 -167 -5 1 -41 54 -79 117 -86 142 -119 184 -227 287 -74 71 -83
83 -66 89 66 22 116 56 205 140 110 103 140 115 158 67z m-1621 -165 c-6 -84
-69 -404 -87 -446 -10 -23 -11 -22 -80 32 -39 30 -120 83 -181 117 l-111 63
62 14 c78 17 132 66 146 133 l9 44 62 1 c75 2 104 18 141 80 15 24 31 44 36
44 5 0 6 -35 3 -82z m1124 -75 c90 -40 280 -247 344 -372 103 -205 62 -446
-108 -628 -96 -102 -228 -153 -362 -139 -92 9 -173 54 -269 150 -269 266 -325
674 -123 893 85 93 178 124 357 120 92 -2 124 -7 161 -24z m-961 -66 c36 -25
87 -21 122 8 31 26 63 34 55 13 -2 -7 -36 -62 -75 -122 -39 -60 -85 -143 -102
-185 -17 -42 -35 -86 -40 -98 -11 -27 -75 -70 -116 -79 l-31 -6 8 59 c12 81
87 452 95 464 4 7 17 1 33 -14 14 -13 37 -31 51 -40z m-1370 -24 l89 -78 -33
-35 c-39 -41 -56 -71 -56 -99 0 -12 -1 -21 -2 -21 -2 0 -25 7 -52 15 -57 17
-86 12 -143 -27 -23 -15 -44 -25 -46 -21 -3 5 -8 39 -12 76 -7 66 -6 69 29
126 20 33 36 66 36 74 0 20 57 67 81 67 11 0 60 -35 109 -77z m660 -3 c0 -5
-5 -10 -10 -10 -7 0 -9 -40 -8 -108 2 -91 0 -113 -15 -136 -27 -40 -107 -72
-223 -89 -77 -11 -110 -21 -142 -42 -33 -21 -58 -29 -112 -33 -74 -5 -100 5
-100 38 0 29 22 41 44 24 47 -34 155 -1 203 62 22 30 25 41 21 89 -5 60 -1 66
28 34 27 -30 88 -59 122 -59 29 0 71 26 104 65 17 19 22 35 48 135 7 24 17 40
25 40 8 0 15 -4 15 -10z m315 -306 c39 -29 83 -66 99 -83 25 -27 27 -31 12
-37 -9 -4 -67 -4 -129 -2 -102 4 -120 8 -199 42 -51 22 -88 44 -88 52 0 8 18
50 40 94 l40 80 78 -47 c42 -26 109 -70 147 -99z m-257 -129 c28 -9 54 -20 57
-25 3 -5 -18 -21 -47 -36 -111 -55 -148 -99 -148 -174 0 -69 84 -213 178 -305
53 -52 62 -74 38 -95 -12 -9 -24 -6 -59 14 -77 46 -107 28 -107 -64 0 -56 -13
-82 -74 -149 -30 -33 -64 -77 -75 -99 -11 -21 -37 -54 -57 -72 -42 -37 -128
-80 -160 -80 -12 0 -34 -10 -49 -22 l-28 -22 -54 57 c-52 54 -54 58 -51 104 3
42 1 48 -17 49 -36 2 -38 4 -23 22 17 20 30 54 53 137 9 33 25 74 36 91 10 17
19 39 19 48 0 9 12 28 27 42 23 21 25 28 15 44 -13 21 -2 30 111 94 50 28 56
45 36 90 -11 23 -8 30 23 68 19 24 68 92 108 152 100 148 133 165 248 131z
m736 -49 c47 -19 214 -135 231 -160 33 -47 9 -106 -43 -106 -37 0 -130 46
-237 117 -140 93 -176 136 -122 147 12 3 31 7 42 9 43 9 97 6 129 -7z m-404
-56 c0 -39 19 -39 65 1 35 31 65 33 65 5 0 -15 -14 -21 -65 -28 -15 -3 -24
-20 -40 -83 -32 -123 -95 -226 -183 -300 -26 -22 -35 -24 -52 -15 -26 14 -134
150 -162 203 l-21 42 39 30 c21 16 66 58 100 92 48 47 72 63 101 68 21 4 43 8
48 10 6 2 31 4 58 4 46 1 47 0 47 -29z m271 -120 c94 -77 194 -137 261 -159
29 -9 59 -20 66 -24 18 -12 15 -74 -9 -185 -24 -112 -44 -154 -91 -198 -43
-41 -186 -134 -206 -134 -17 0 -281 135 -298 153 -9 9 -8 34 2 97 7 47 13 106
13 131 1 53 18 113 60 213 16 39 32 84 36 99 5 26 55 67 81 67 6 0 44 -27 85
-60z m512 -236 c156 -189 327 -275 492 -247 35 6 104 29 153 52 120 55 115 56
112 -25 -1 -23 3 -45 9 -49 14 -8 14 -198 1 -285 -13 -82 -35 -104 -94 -95
-91 15 -227 101 -268 171 -11 19 -38 44 -60 55 -21 11 -63 42 -93 69 -30 27
-67 57 -82 67 -37 24 -43 32 -43 71 0 45 -38 82 -84 82 -42 0 -68 29 -115 130
-31 65 -37 91 -24 104 8 8 1 14 96 -100z m-1001 -290 c50 -25 131 -70 180
-101 131 -81 254 -136 315 -141 45 -4 63 1 125 30 40 20 123 72 183 117 97 71
223 147 231 138 2 -2 -5 -45 -16 -97 -28 -138 -53 -379 -48 -468 5 -106 25
-142 166 -298 141 -155 184 -215 186 -257 1 -27 -3 -32 -34 -39 -19 -4 -111
-12 -205 -18 -188 -12 -275 -25 -316 -46 -34 -17 -96 -97 -180 -234 -91 -146
-113 -180 -120 -180 -9 0 -55 89 -88 173 -40 99 -93 206 -138 272 -40 61 -51
65 -182 65 -47 0 -143 5 -213 10 -120 9 -168 20 -168 39 0 5 46 60 101 122
128 143 184 218 221 294 25 52 28 67 23 115 -9 76 -68 335 -103 453 -17 53
-26 97 -21 97 5 0 50 -21 101 -46z"/>
<path d="M7535 13171 c-195 -16 -308 -67 -381 -172 -25 -36 -26 -44 -20 -103
12 -116 74 -258 118 -270 55 -14 265 -6 342 14 136 34 226 99 226 160 0 28
-15 45 -84 93 -14 10 -26 24 -26 30 0 7 20 32 45 56 60 57 62 94 8 151 -44 46
-80 53 -228 41z m175 -76 c17 -9 30 -20 30 -26 0 -6 -20 -34 -45 -61 -35 -39
-45 -58 -45 -84 0 -45 25 -81 66 -99 46 -19 43 -40 -11 -74 -61 -39 -188 -72
-299 -78 -80 -4 -95 -2 -124 17 -44 27 -84 116 -85 187 -1 44 3 58 29 90 79
99 385 179 484 128z"/>
<path d="M8963 9960 c-56 -13 -81 -37 -116 -112 -51 -107 -131 -334 -124 -352
9 -24 36 -8 57 34 23 46 129 143 202 188 101 60 298 81 364 37 22 -14 28 -15
35 -4 5 8 9 18 9 23 0 6 26 34 57 63 42 39 55 55 46 64 -8 8 -27 3 -73 -19
-69 -34 -58 -35 -184 23 -78 35 -182 66 -221 64 -11 -1 -35 -4 -52 -9z"/>
<path d="M4341 11693 c-20 -10 -47 -37 -64 -65 l-29 -47 -79 6 c-89 7 -115 -4
-149 -60 -26 -42 -25 -90 1 -145 28 -56 69 -82 134 -82 62 0 105 25 140 80
l25 40 77 0 c65 0 81 3 108 24 64 49 83 137 43 196 -45 65 -135 88 -207 53z"/>
<path d="M3774 11401 c-32 -20 -51 -56 -56 -106 l-3 -30 -93 -5 c-90 -5 -95
-6 -123 -37 -16 -18 -31 -44 -35 -58 -16 -63 26 -139 103 -186 30 -19 39 -20
73 -10 47 14 115 80 130 127 11 33 13 34 68 34 68 0 129 26 161 66 19 24 22
38 19 86 -5 62 -27 96 -80 124 -39 20 -127 18 -164 -5z"/>
<path d="M5335 10910 c-16 -10 -57 -53 -89 -94 -33 -42 -62 -76 -65 -76 -3 0
-53 14 -110 30 -128 37 -161 39 -161 8 0 -26 49 -134 80 -175 l20 -28 -36
-123 c-53 -181 -46 -194 91 -174 99 15 101 14 193 -64 35 -30 71 -54 81 -54
10 0 24 15 34 35 20 42 44 45 78 9 30 -32 90 -64 122 -64 31 0 102 52 121 88
29 57 25 108 -14 157 -19 24 -28 45 -25 56 8 25 -6 48 -81 132 -81 89 -87 101
-119 223 -35 134 -57 155 -120 114z m49 -116 c3 -9 6 -30 6 -48 0 -65 31 -128
92 -188 32 -32 58 -62 58 -68 0 -5 -14 -10 -30 -10 -67 0 -104 -40 -150 -163
-12 -32 -28 -61 -36 -64 -9 -3 -35 14 -64 41 -58 54 -84 66 -150 66 -80 0 -81
1 -54 86 13 41 24 84 24 95 0 11 -15 53 -34 93 l-33 73 76 -18 c42 -10 86 -18
98 -19 14 0 51 26 99 70 43 39 80 70 85 70 4 0 10 -7 13 -16z"/>
<path d="M5753 10231 c-50 -36 -83 -78 -83 -104 0 -31 36 -100 69 -131 42 -40
104 -46 166 -16 116 56 114 195 -4 257 -59 31 -99 29 -148 -6z"/>
<path d="M6043 10071 c-49 -23 -73 -62 -73 -121 0 -69 45 -129 119 -159 46
-19 115 17 159 84 40 59 39 96 -3 151 -50 65 -122 81 -202 45z"/>
<path d="M6352 9929 c-54 -27 -92 -76 -92 -118 0 -70 68 -154 135 -167 27 -5
44 0 79 20 83 48 119 111 96 167 -20 48 -117 119 -163 119 -7 0 -31 -10 -55
-21z"/>
<path d="M4715 9786 c-132 -32 -240 -123 -304 -256 l-36 -75 1 -190 c1 -169 3
-197 23 -255 72 -209 277 -473 417 -537 110 -50 258 -41 394 24 147 71 285
247 326 419 10 41 17 113 18 179 0 97 -2 117 -26 172 -76 179 -270 394 -423
468 -126 61 -271 80 -390 51z m356 -108 c87 -37 286 -263 354 -402 43 -87 52
-149 36 -272 -23 -179 -144 -355 -299 -431 -70 -35 -81 -38 -166 -37 -81 0
-98 3 -156 30 -160 75 -304 251 -381 464 -20 56 -23 84 -24 200 0 115 3 145
23 202 29 82 72 148 126 192 82 67 123 76 316 72 94 -2 146 -8 171 -18z"/>
<path d="M6635 9737 c-17 -8 -45 -31 -63 -51 -54 -62 -41 -128 37 -199 34 -31
48 -37 85 -37 60 0 123 47 150 112 18 45 18 46 0 84 -37 76 -142 121 -209 91z"/>
<path d="M6229 9228 c0 -2 -4 -56 -8 -120 -9 -131 -7 -129 -114 -254 -65 -77
-79 -103 -65 -121 6 -7 47 -24 93 -38 45 -14 89 -32 96 -41 8 -9 32 -53 54
-98 22 -44 47 -85 56 -90 13 -7 38 8 115 68 l98 78 51 -6 c27 -4 74 -9 103
-13 l52 -5 0 33 c0 19 -14 72 -31 119 -35 98 -36 131 -8 247 11 46 19 101 17
121 -3 33 -6 37 -35 40 -19 2 -60 -9 -105 -28 -145 -63 -142 -62 -185 -31 -21
16 -49 41 -63 56 -41 45 -116 96 -121 83z m141 -204 c63 -64 61 -63 187 -13
46 18 85 31 87 28 3 -2 -2 -36 -10 -74 -19 -88 -14 -165 14 -232 l22 -53 -74
0 -74 0 -72 -65 c-40 -36 -77 -65 -82 -65 -9 0 -58 97 -58 116 0 18 -60 67
-108 88 -23 10 -42 23 -42 29 0 5 25 36 55 68 58 63 75 104 75 182 0 31 4 47
13 47 7 0 37 -25 67 -56z"/>
<path d="M2705 8845 c-94 -34 -121 -138 -58 -223 48 -64 116 -79 185 -40 46
26 88 91 88 135 0 91 -120 163 -215 128z"/>
<path d="M3017 8775 c-63 -43 -83 -109 -53 -178 49 -114 194 -129 264 -27 86
126 -83 291 -211 205z"/>
<path d="M3350 8668 c-34 -17 -51 -35 -68 -70 -66 -133 82 -266 212 -190 21
12 39 22 40 22 2 0 9 -21 17 -47 16 -57 73 -118 125 -132 31 -8 45 -7 78 8 23
10 50 28 60 40 26 28 32 27 40 -10 22 -111 116 -163 224 -125 22 8 43 12 45 9
3 -3 17 -29 32 -58 35 -73 78 -99 148 -91 29 3 63 7 77 8 22 3 25 -1 30 -38 7
-50 51 -111 93 -129 19 -8 52 -11 88 -8 57 6 58 5 69 -23 25 -63 37 -80 75
-101 102 -58 230 11 230 122 0 80 -62 133 -168 142 -68 6 -87 16 -87 43 0 27
-49 81 -87 96 -18 8 -61 14 -97 14 l-64 0 -7 33 c-11 48 -40 83 -91 107 -44
22 -77 23 -168 8 -10 -2 -23 6 -29 17 -38 67 -62 98 -90 115 -56 35 -135 22
-181 -29 -27 -30 -36 -26 -36 16 0 29 -8 43 -39 74 -64 60 -157 70 -227 24
-23 -15 -24 -14 -24 9 0 59 -48 127 -107 152 -44 19 -61 18 -113 -8z"/>
<path d="M3559 7888 c-1 -2 -4 -58 -8 -125 -8 -137 -5 -130 -121 -255 -91 -99
-88 -105 75 -155 65 -19 69 -25 116 -139 11 -29 30 -57 44 -64 21 -11 29 -9
71 15 25 15 75 51 109 81 l64 53 87 -29 c48 -17 91 -30 96 -30 18 0 6 81 -27
175 -19 55 -35 110 -35 122 0 13 11 66 25 119 33 125 33 152 0 160 -30 7 -105
-16 -187 -57 -31 -16 -65 -29 -73 -29 -9 0 -37 20 -63 44 -89 82 -165 132
-173 114z m149 -191 c52 -46 90 -48 197 -11 42 14 79 24 82 21 3 -3 -4 -34
-16 -68 -28 -83 -27 -112 9 -208 l29 -81 -73 6 -73 7 -75 -72 c-42 -39 -80
-71 -85 -71 -6 0 -25 34 -43 76 -36 81 -64 110 -138 140 l-44 17 66 66 c75 76
86 100 86 183 0 69 -7 69 78 -5z"/>
<path d="M5014 7826 c-49 -22 -74 -61 -74 -118 0 -59 17 -94 66 -138 34 -29
42 -32 86 -28 55 6 92 28 126 79 45 65 16 163 -59 201 -40 21 -102 23 -145 4z"/>
<path d="M5292 7620 c-45 -28 -73 -77 -70 -123 l2 -39 -66 -1 c-75 -2 -109
-21 -142 -77 -17 -28 -18 -38 -7 -83 33 -142 142 -176 252 -79 37 33 44 46 48
88 l6 49 58 6 c138 15 208 131 135 224 -44 56 -153 73 -216 35z"/>
<path d="M4767 7317 c-20 -12 -49 -39 -62 -60 -25 -35 -28 -37 -82 -37 -96 0
-153 -53 -153 -142 0 -78 70 -148 148 -148 53 0 73 10 134 66 36 33 55 44 80
44 83 1 173 78 173 150 0 43 -33 97 -80 128 -42 30 -108 29 -158 -1z"/>
<path d="M4224 7071 c-38 -23 -74 -68 -74 -92 0 -23 1 -23 -82 -3 -82 20 -112
11 -163 -49 -48 -56 -53 -87 -21 -141 30 -51 80 -86 136 -93 64 -9 160 59 160
113 0 12 5 15 23 9 12 -4 50 -9 83 -12 108 -9 168 40 166 135 -1 109 -137 188
-228 133z"/>
</g>
</svg>
