<?xml version="1.0" standalone="no"?>
<!DOCTYPE svg PUBLIC "-//W3C//DTD SVG 20010904//EN"
 "http://www.w3.org/TR/2001/REC-SVG-20010904/DTD/svg10.dtd">
<svg version="1.0" xmlns="http://www.w3.org/2000/svg"
 width="650.000000pt" height="869.000000pt" viewBox="0 0 650.000000 869.000000"
 preserveAspectRatio="xMidYMid meet">
<metadata>
Created by potrace 1.16, written by Peter Selinger 2001-2019
</metadata>
<g transform="translate(0.000000,869.000000) scale(0.100000,-0.100000)"
fill="#000000" stroke="none">
<path d="M4179 8668 c-17 -15 -42 -48 -124 -168 -32 -47 -63 -88 -69 -92 -17
-12 -59 3 -84 28 -24 25 -75 31 -117 15 -11 -4 -37 -4 -59 1 -45 10 -55 5 -38
-22 10 -16 7 -22 -21 -42 -43 -30 -51 -41 -92 -120 -33 -64 -37 -68 -69 -68
-24 0 -41 -8 -57 -26 -13 -14 -38 -39 -55 -55 -18 -17 -44 -57 -59 -90 -21
-48 -25 -67 -19 -104 6 -41 4 -47 -21 -66 -14 -12 -41 -52 -59 -89 -18 -37
-49 -88 -69 -114 -19 -26 -43 -66 -53 -91 -14 -31 -26 -45 -44 -49 -14 -3 -47
-23 -74 -46 l-50 -41 -37 44 c-25 29 -65 57 -124 87 -91 46 -115 69 -115 110
-1 38 -32 74 -58 65 -28 -8 -28 -23 -1 -27 24 -3 35 -18 43 -60 8 -38 40 -68
121 -116 96 -55 135 -90 156 -137 26 -57 25 -78 -3 -69 -13 4 -27 12 -31 18
-6 7 -7 6 -5 -3 7 -24 98 -69 198 -97 98 -27 170 -60 170 -78 0 -5 33 -40 73
-78 49 -46 68 -71 60 -76 -9 -6 -8 -15 4 -37 12 -23 18 -70 22 -195 5 -135 9
-171 24 -193 9 -15 22 -27 27 -27 18 0 11 -17 -41 -102 -29 -46 -68 -117 -87
-158 -19 -41 -36 -76 -37 -78 -2 -2 -29 4 -61 14 -117 34 -265 -6 -363 -98
l-34 -32 -23 29 c-13 16 -26 27 -29 23 -7 -7 34 -78 44 -78 4 0 15 -24 24 -52
59 -192 58 -191 51 -257 -8 -78 -29 -136 -45 -125 -48 29 107 -161 213 -261
89 -85 89 -85 72 -110 -9 -14 -18 -25 -21 -25 -3 0 -34 28 -69 61 -73 71 -178
150 -224 169 -25 10 -36 11 -49 2 -34 -25 -159 -82 -179 -82 -11 0 -33 5 -48
10 l-27 11 30 32 c47 49 53 68 65 195 9 99 8 124 -5 167 -9 28 -18 62 -21 76
-6 30 -46 91 -64 97 -8 2 -5 -9 8 -30 42 -73 60 -146 60 -253 0 -172 -37 -247
-150 -304 -54 -26 -71 -30 -151 -30 -49 0 -93 -2 -97 -5 -20 -12 -126 17 -180
49 -55 33 -82 55 -220 172 -71 61 -183 145 -188 140 -4 -3 120 -129 166 -167
14 -12 36 -32 50 -44 44 -38 146 -104 222 -144 l73 -37 135 3 c127 2 139 4
197 33 49 24 67 28 82 19 28 -15 84 -12 117 5 16 8 38 15 48 15 21 0 86 40 86
53 0 17 32 4 89 -38 60 -44 82 -62 164 -135 22 -19 87 -93 145 -165 193 -239
292 -325 375 -325 29 0 38 -19 10 -21 -11 0 -13 -3 -5 -6 6 -2 49 13 95 35
107 51 162 111 257 280 71 127 73 129 125 151 70 29 79 41 57 72 -9 13 -26 46
-37 73 -26 65 -62 91 -124 91 -45 0 -60 -8 -194 -99 l-146 -98 -95 -16 c-87
-14 -101 -14 -161 1 -75 19 -179 63 -196 83 -9 11 1 20 53 44 35 17 81 46 102
65 44 40 46 41 46 20 0 -50 118 21 192 114 62 78 67 81 43 24 -18 -43 -18 -43
-1 -43 13 0 88 71 120 115 15 20 15 20 30 0 8 -11 16 -16 16 -12 0 5 15 0 33
-9 17 -9 41 -21 51 -27 11 -5 53 -11 94 -14 66 -3 77 -2 94 17 13 14 26 18 43
14 14 -3 38 1 56 10 18 9 38 16 46 16 7 0 23 11 35 25 12 14 32 25 45 25 13 0
23 4 23 9 0 5 9 12 19 16 11 3 23 14 26 24 3 10 30 44 60 77 54 58 95 125 95
156 0 9 7 21 15 28 8 7 15 20 15 30 0 10 7 23 15 30 8 7 15 22 15 34 0 11 7
30 15 40 8 11 15 30 15 42 0 12 6 27 14 33 8 7 18 25 21 41 11 50 29 55 72 18
155 -134 266 -242 362 -353 89 -103 158 -202 148 -211 -6 -7 -90 40 -130 73
-28 23 -57 30 -57 15 0 -4 21 -29 46 -55 25 -26 40 -47 33 -47 -7 0 -55 25
-106 55 -128 75 -153 74 -85 -1 119 -134 251 -282 268 -303 10 -13 40 -47 66
-75 25 -28 45 -52 43 -54 -2 -2 -21 2 -42 8 -21 7 -50 10 -63 8 -22 -3 -25 -9
-28 -45 -3 -39 1 -47 44 -93 63 -68 197 -130 279 -130 26 0 49 -18 142 -112
146 -147 254 -280 240 -295 -3 -3 -33 12 -66 33 -102 65 -110 69 -118 61 -4
-5 -1 -12 7 -17 21 -14 -6 -13 -31 0 -36 20 -19 -7 27 -43 25 -20 51 -38 57
-40 7 -2 9 -7 6 -11 -8 -9 -79 30 -201 111 -122 80 -118 78 -118 61 0 -7 36
-38 81 -68 98 -67 145 -110 141 -128 -2 -7 2 -20 9 -28 14 -18 20 -122 8 -146
-5 -10 -5 -19 0 -23 9 -5 8 -31 -5 -145 -3 -25 -5 -59 -5 -77 0 -18 -4 -35 -9
-38 -6 -3 -10 -17 -10 -31 0 -14 -5 -34 -10 -45 -8 -13 -7 -25 0 -39 9 -16 7
-24 -5 -36 -8 -8 -15 -24 -15 -35 0 -11 -4 -27 -9 -37 -5 -9 -19 -38 -31 -64
-11 -25 -28 -52 -36 -58 -7 -7 -14 -17 -14 -22 0 -29 -115 -149 -227 -239 -15
-12 -17 -29 -3 -29 6 0 10 5 10 10 0 6 6 10 14 10 8 0 21 8 28 18 7 11 24 25
38 32 35 19 92 81 99 110 4 14 17 29 28 35 12 5 24 22 27 38 4 17 14 31 26 34
13 3 20 14 20 29 0 13 9 28 21 35 14 7 20 18 17 33 -3 12 2 28 9 35 8 7 12 20
8 28 -3 9 2 24 10 33 12 13 13 23 5 44 -8 22 -7 31 6 43 8 9 13 22 10 30 -3 8
1 25 10 39 13 19 14 27 4 38 -8 11 -9 20 0 35 6 11 8 32 4 46 -3 14 -2 31 4
38 12 14 19 93 9 103 -10 10 -9 34 2 34 5 0 46 -30 92 -67 46 -38 100 -80 119
-94 19 -14 90 -79 158 -144 67 -65 125 -115 128 -112 13 13 -33 70 -136 167
-115 108 -121 113 -226 196 -129 103 -146 122 -139 155 5 23 2 34 -11 43 -35
26 -6 33 52 14 42 -14 60 -16 68 -8 8 8 -1 22 -34 51 l-45 40 66 -36 c68 -36
119 -46 119 -22 0 44 -219 312 -333 408 -39 33 -46 44 -41 64 7 29 -24 77 -66
102 -17 9 -30 23 -30 29 0 7 16 54 36 106 19 51 37 108 38 127 2 22 13 41 30
55 24 18 28 31 34 96 4 41 6 88 4 103 -3 25 -7 28 -35 25 -27 -2 -39 -13 -75
-68 -35 -52 -42 -70 -38 -94 4 -19 1 -35 -9 -46 -9 -9 -32 -60 -53 -113 -20
-53 -41 -96 -45 -97 -4 0 -53 52 -108 117 -56 65 -125 147 -155 182 -30 35
-53 66 -50 68 2 2 21 -4 43 -15 74 -37 126 -36 87 2 -21 22 -6 20 51 -5 59
-26 73 -16 48 37 -47 103 -181 271 -334 419 -96 92 -199 183 -226 198 -13 8
-12 11 2 27 11 13 15 32 13 66 l-3 49 93 -2 c108 -3 111 1 54 74 -38 47 -222
223 -292 279 -19 15 -77 70 -129 123 -84 86 -100 108 -155 221 -34 69 -84 158
-111 198 -69 101 -101 156 -138 234 -31 65 -47 83 -47 54 0 -20 59 -156 81
-188 11 -14 19 -29 19 -34 0 -4 12 -23 27 -43 16 -20 65 -101 110 -181 127
-226 193 -307 363 -445 113 -92 270 -245 270 -262 0 -7 -39 16 -87 51 -49 35
-90 61 -93 59 -3 -2 17 -25 43 -50 74 -70 50 -65 -58 11 -31 21 -58 36 -62 32
-4 -3 16 -26 43 -51 60 -56 44 -58 -43 -5 -72 43 -95 50 -71 23 33 -39 29 -44
-14 -19 -25 14 -48 26 -51 26 -18 0 -3 -30 33 -65 26 -26 38 -45 34 -55 -3 -8
-12 -37 -19 -65 -15 -60 -75 -204 -121 -295 -19 -36 -34 -71 -34 -77 0 -7 -4
-13 -9 -13 -5 0 -21 -20 -35 -45 -15 -25 -40 -52 -56 -60 -16 -8 -37 -24 -47
-34 -43 -45 -93 -61 -193 -61 -139 1 -141 4 -86 121 24 52 46 101 49 109 3 8
6 -9 6 -38 1 -70 18 -65 49 14 31 79 64 202 59 217 -2 7 -16 -26 -31 -73 -14
-47 -33 -96 -41 -110 -15 -24 -15 -23 -10 25 4 28 9 62 11 78 7 33 -13 37 -25
5 -43 -112 -172 -355 -257 -485 -68 -104 -97 -127 -54 -43 22 44 26 65 9 54
-8 -4 -9 1 -4 16 11 36 -8 17 -77 -74 -61 -80 -134 -154 -143 -144 -3 2 11 29
30 59 42 65 44 82 8 47 -16 -14 -38 -29 -50 -32 -12 -4 -39 -27 -59 -52 -21
-25 -72 -66 -114 -91 -41 -26 -83 -53 -92 -61 -20 -16 -40 -8 -82 37 l-29 30
28 68 c16 38 57 123 92 190 47 89 62 128 58 146 -6 21 -1 26 39 41 39 15 66
39 66 59 0 16 -116 -60 -152 -99 -87 -95 -132 -124 -193 -124 l-35 0 0 54 c0
52 -8 89 -52 229 l-22 68 35 30 c63 53 146 91 214 97 81 6 152 -5 174 -27 9
-9 26 -17 38 -17 18 0 20 4 12 18 -11 21 11 65 121 238 149 234 174 276 207
347 19 40 45 117 58 171 13 53 49 171 79 262 64 192 92 297 106 395 12 89 12
105 0 105 -5 0 -10 -10 -10 -23 0 -40 -66 -278 -118 -427 -28 -80 -64 -198
-81 -263 -34 -132 -77 -228 -154 -347 -82 -125 -100 -107 -91 92 7 131 7 134
38 168 68 76 109 168 155 351 18 72 47 151 75 207 37 73 46 102 46 143 0 36 6
58 20 76 11 14 20 31 20 38 0 7 14 29 30 50 25 32 30 46 30 95 l0 57 41 16
c23 9 46 14 50 11 5 -3 9 4 9 16 0 17 -4 19 -27 14 -16 -4 -37 -11 -47 -17
-50 -25 -186 -65 -186 -54 0 7 20 45 45 86 24 41 59 102 77 136 l32 62 -22 30
c-21 29 -21 33 -7 73 21 60 7 84 -46 76 -31 -5 -40 -3 -49 13 -5 11 -10 23
-10 26 0 9 77 -2 150 -21 101 -26 114 -22 166 49 25 34 69 98 98 141 l51 79 6
-59 c4 -32 8 -95 8 -139 4 -150 2 -147 120 -229 57 -39 106 -76 108 -81 2 -6
-46 -25 -107 -44 -60 -19 -116 -41 -124 -50 -11 -12 -18 -59 -25 -161 -6 -80
-11 -156 -11 -170 0 -30 -13 -19 -49 44 -14 25 -42 72 -61 106 -19 33 -39 60
-45 60 -13 0 -32 -49 -41 -108 -4 -24 -13 -46 -21 -49 -19 -7 -43 15 -37 35 2
9 -4 -1 -15 -23 -10 -22 -16 -43 -12 -46 3 -4 25 -9 47 -13 l42 -6 7 48 c3 26
11 66 17 89 l10 43 57 -88 c67 -105 96 -142 109 -142 11 0 19 62 28 231 l7
125 66 23 c131 45 211 76 211 83 0 9 -68 63 -164 129 l-81 55 -6 121 c-8 152
-21 233 -38 233 -4 0 -14 -6 -22 -12z m-455 -295 c4 -9 2 -21 -4 -27 -12 -12
-13 -26 -1 -26 4 0 25 12 46 26 47 32 67 27 55 -15 -5 -17 -16 -41 -24 -53 -9
-12 -16 -30 -16 -40 0 -37 -45 -134 -76 -165 -28 -29 -29 -33 -12 -33 42 0
108 111 108 182 0 17 3 18 15 8 8 -7 15 -21 15 -30 0 -20 -54 -126 -106 -207
l-34 -53 -35 15 c-62 25 -120 100 -139 178 -4 15 -11 25 -16 22 -20 -13 36
-131 87 -183 18 -18 47 -35 64 -39 29 -5 30 -8 24 -39 -3 -19 -2 -34 3 -34 5
0 40 11 78 25 97 35 98 35 91 -27 -9 -77 -94 -189 -154 -204 -33 -9 -140 4
-181 22 -43 18 -125 101 -153 156 -15 29 -22 62 -23 107 -1 59 3 71 33 118 18
29 41 55 51 58 9 3 22 17 28 30 10 23 47 45 73 45 5 0 9 -12 9 -27 1 -27 1
-27 15 -9 8 10 27 50 41 88 43 109 119 182 138 131z m-375 -565 c10 -24 42
-67 72 -95 71 -69 120 -86 242 -81 l92 3 -3 -30 c-2 -16 -23 -70 -47 -120 -24
-49 -57 -137 -75 -195 -44 -147 -59 -187 -93 -255 -35 -72 -75 -127 -87 -120
-4 3 -11 24 -15 48 -11 63 -27 88 -110 169 -95 92 -127 111 -245 149 -52 17
-100 36 -106 42 -6 7 -14 28 -16 47 -5 33 -2 38 60 88 51 41 68 50 78 41 8 -6
14 -19 14 -28 1 -25 38 -101 50 -101 14 0 13 30 -3 60 -7 14 -19 44 -27 68
-12 39 -12 47 3 75 10 18 35 52 57 77 22 25 57 80 77 122 21 43 44 78 51 78 7
0 21 -19 31 -42z m1275 -1297 c21 -25 27 -76 11 -97 -8 -11 -15 -26 -15 -35 0
-9 -6 -22 -14 -28 -8 -7 -17 -24 -20 -39 -6 -24 -21 -61 -47 -114 -5 -10 -9
-23 -9 -29 0 -17 -48 -117 -60 -124 -6 -3 -10 -15 -10 -26 0 -37 -33 -89 -97
-152 -12 -12 -32 -37 -45 -56 -33 -48 -182 -132 -245 -137 -18 -1 -40 -10 -49
-19 -21 -20 -134 -15 -179 9 -16 9 -36 16 -42 16 -7 0 -13 5 -13 10 0 6 -7 10
-15 10 -27 0 -28 29 -1 74 37 64 55 79 72 65 9 -7 54 -12 117 -12 113 0 143 9
210 69 20 19 42 34 48 34 20 0 77 81 126 182 18 37 37 69 43 73 5 3 10 13 10
21 0 8 19 54 41 102 23 48 44 106 46 130 3 23 10 45 14 48 5 3 9 14 9 24 0 16
7 19 50 18 32 -1 55 -7 64 -17z m-1475 -738 c-49 -88 -117 -226 -125 -257 -3
-15 -10 -26 -13 -24 -13 5 -111 118 -111 127 0 5 7 22 15 37 8 16 15 37 15 46
0 13 7 16 34 11 50 -8 96 12 157 67 30 27 56 49 57 50 2 0 -11 -26 -29 -57z
m2321 -247 c0 -20 -29 -106 -80 -238 -23 -63 -44 -73 -85 -43 -17 14 -18 19
-6 48 7 17 33 86 57 152 25 66 50 123 56 126 17 11 58 -21 58 -45z m-1450 -91
c32 -17 64 -77 55 -105 -3 -11 1 -20 10 -24 22 -8 19 -26 -5 -26 -11 0 -20 5
-20 11 0 5 -4 7 -10 4 -5 -3 -10 -15 -10 -25 0 -10 -9 -22 -21 -25 -25 -8 -91
-97 -144 -195 -85 -157 -208 -243 -313 -219 -96 21 -128 50 -325 291 l-88 108
16 30 c8 16 18 30 22 30 3 0 46 -16 95 -36 85 -34 95 -36 187 -32 116 4 137
13 325 139 140 95 168 104 226 74z m1220 -99 c29 -11 35 -18 36 -42 2 -60 4
-65 41 -81 37 -15 38 -15 61 12 l23 27 27 -23 c67 -60 77 -83 41 -94 -68 -22
-275 80 -314 154 -29 57 6 76 85 47z"/>
<path d="M3700 5231 c-46 -31 -250 -246 -250 -263 0 -7 26 -9 82 -4 215 18
298 68 306 185 4 49 1 59 -22 84 -32 35 -62 34 -116 -2z m113 -28 c17 -30 17
-37 5 -75 -20 -60 -78 -102 -168 -122 -99 -23 -160 -30 -160 -20 1 15 193 211
230 233 45 28 70 23 93 -16z"/>
<path d="M996 8218 c-21 -80 1 -137 65 -172 44 -23 55 -26 82 -17 16 6 31 11
33 11 6 0 44 -142 53 -200 6 -36 11 -114 11 -173 0 -98 3 -116 32 -188 33 -85
87 -153 146 -183 16 -8 92 -32 169 -52 144 -37 188 -57 180 -78 -3 -7 -1 -34
5 -59 9 -42 7 -50 -15 -79 -13 -18 -36 -65 -51 -104 -33 -88 -63 -119 -106
-111 -17 4 -30 2 -30 -3 0 -6 18 -10 39 -10 50 0 91 33 116 92 54 128 69 156
97 185 17 18 35 30 39 27 4 -2 -2 -26 -13 -52 -16 -35 -22 -71 -23 -144 l-3
-97 -53 -60 c-56 -64 -72 -72 -88 -44 -6 12 -5 20 6 29 13 9 7 11 -29 10 -35
-1 -53 5 -82 28 -20 15 -39 26 -41 24 -9 -9 49 -60 95 -83 28 -14 50 -29 50
-33 0 -5 -25 -35 -56 -68 -126 -134 -240 -377 -309 -659 -14 -55 -32 -105 -40
-111 -36 -27 -150 -266 -141 -296 3 -7 7 -32 10 -55 6 -41 5 -43 -18 -43 -14
0 -41 9 -60 21 -61 36 -186 10 -264 -54 -28 -23 -62 -50 -76 -60 -14 -10 -44
-45 -66 -78 l-39 -60 -2 -132 c-2 -103 1 -142 14 -176 9 -24 17 -67 17 -95 0
-61 22 -111 81 -188 24 -32 59 -85 78 -118 19 -33 59 -86 88 -117 30 -32 60
-68 68 -80 8 -12 36 -34 62 -50 70 -40 123 -85 123 -106 0 -22 38 -98 89 -177
22 -34 45 -76 51 -94 6 -18 38 -84 70 -146 56 -104 59 -115 50 -149 -18 -70
-24 -198 -10 -248 19 -68 48 -123 84 -157 30 -28 31 -33 38 -135 7 -126 23
-168 79 -213 23 -18 50 -51 61 -73 11 -22 27 -48 35 -57 13 -15 13 -20 -4 -42
-10 -14 -27 -28 -38 -31 -28 -8 -162 -10 -365 -7 -96 2 -185 3 -197 2 -22 0
-23 -4 -23 -66 0 -61 2 -68 30 -94 17 -16 51 -41 75 -57 25 -15 45 -32 45 -36
0 -12 -263 -477 -290 -512 -12 -16 -110 -202 -110 -209 0 -3 6 -6 13 -6 6 0
29 31 49 68 46 83 72 128 180 312 107 183 168 297 168 315 0 8 4 16 8 19 8 5
162 -89 162 -99 0 -3 -37 -68 -82 -145 -46 -76 -101 -170 -122 -208 -35 -61
-49 -75 -135 -132 -147 -98 -251 -181 -267 -212 -8 -15 -18 -28 -22 -28 -10 0
-116 -79 -120 -89 -5 -14 71 -58 136 -80 106 -36 356 -24 396 20 8 9 2 10 -29
5 -22 -4 -70 -9 -107 -13 -57 -5 -69 -3 -74 10 -4 13 -10 14 -24 7 -45 -24
-203 -5 -247 29 l-23 19 37 30 c21 16 53 37 71 46 18 10 61 38 94 64 132 103
279 205 393 273 66 39 149 93 185 119 89 66 253 237 340 355 101 138 423 465
456 465 5 0 26 11 46 25 20 14 48 25 62 25 14 0 28 5 31 10 20 32 48 -15 64
-110 10 -55 46 -140 61 -140 5 0 10 -10 10 -23 0 -13 20 -46 45 -76 29 -34 45
-62 45 -80 0 -15 8 -36 19 -47 10 -11 31 -40 46 -65 15 -24 51 -71 79 -103 28
-33 55 -68 61 -79 5 -12 34 -35 64 -52 30 -18 60 -40 67 -49 7 -10 31 -22 54
-27 22 -5 59 -21 81 -35 23 -14 48 -25 57 -25 28 2 64 0 132 -4 95 -7 98 -7
175 3 39 4 86 15 105 24 19 8 40 13 46 11 6 -2 17 3 24 12 7 8 23 15 35 15 16
0 26 9 35 30 15 35 37 50 76 50 19 0 38 12 64 40 20 22 45 40 56 40 18 0 114
92 114 110 0 6 8 10 19 10 23 0 37 16 46 53 4 15 20 36 36 48 16 11 29 29 29
39 0 11 13 35 30 53 16 19 38 55 49 80 11 26 25 47 30 47 5 0 19 21 31 48 12
26 29 60 37 76 17 31 31 83 40 151 3 22 16 53 29 68 13 15 26 44 29 65 3 20
13 52 20 70 8 17 10 32 5 32 -14 0 -40 -55 -40 -87 0 -15 -14 -46 -30 -67 -17
-22 -30 -51 -30 -65 0 -30 -16 -82 -41 -136 -10 -22 -21 -52 -25 -67 -3 -16
-17 -38 -31 -50 -13 -13 -33 -43 -44 -68 -11 -25 -31 -56 -44 -70 -12 -14 -26
-40 -30 -58 -4 -18 -15 -37 -26 -42 -10 -6 -28 -29 -39 -50 -11 -22 -27 -40
-35 -40 -8 0 -22 -12 -32 -26 -30 -46 -93 -104 -114 -104 -12 0 -28 -14 -40
-35 -17 -28 -29 -36 -63 -42 -29 -4 -50 -16 -72 -40 -20 -22 -37 -31 -47 -28
-10 4 -20 -1 -27 -14 -6 -12 -19 -21 -29 -21 -10 0 -38 -9 -62 -19 -27 -12
-54 -17 -75 -14 -19 3 -47 0 -63 -7 -20 -8 -35 -9 -48 -2 -10 6 -39 7 -68 2
-31 -5 -55 -4 -63 2 -6 6 -26 8 -43 4 -22 -4 -44 2 -86 24 -31 17 -61 30 -68
30 -7 0 -34 17 -61 39 -27 21 -63 46 -81 55 -18 9 -38 26 -44 39 -6 12 -22 33
-36 47 -40 42 -79 93 -96 125 -8 17 -24 39 -36 49 -12 11 -26 36 -31 57 -6 21
-28 59 -50 84 -22 26 -40 57 -40 69 0 13 -7 29 -15 36 -8 7 -15 24 -15 39 0
14 -9 40 -20 56 -11 17 -20 44 -20 60 0 17 -7 39 -15 49 -21 28 -19 53 7 74
12 9 43 36 69 60 36 33 46 38 42 23 -6 -25 6 -27 33 -6 10 8 28 15 40 15 39 0
124 70 192 158 58 73 30 63 -62 -24 -110 -103 -132 -112 -67 -26 20 27 22 35
11 42 -18 11 -33 2 -107 -65 -99 -89 -227 -194 -232 -189 -3 2 6 22 18 44 29
53 15 51 -39 -6 -25 -25 -64 -57 -86 -70 -47 -28 -165 -76 -171 -70 -3 2 9 23
26 47 49 67 37 81 -19 22 -51 -53 -59 -58 -39 -22 20 38 3 41 -33 6 -50 -49
-116 -85 -171 -96 -53 -10 -56 -6 -27 47 23 44 90 190 90 198 0 3 23 44 51 92
62 106 163 243 218 296 l40 39 10 -24 c8 -21 6 -27 -21 -49 -70 -56 -88 -78
-88 -109 0 -78 142 -70 321 20 46 23 99 83 98 112 l0 22 -9 -21 c-33 -83 -400
-211 -400 -140 0 16 49 69 87 93 22 15 25 14 47 -6 39 -37 109 -6 109 49 0 26
5 31 36 40 20 5 55 10 79 10 23 0 42 5 42 10 0 13 -84 13 -127 1 -32 -9 -32
-9 -53 45 -26 70 -26 70 9 135 16 30 57 118 90 196 85 202 158 340 246 466 30
42 51 61 82 73 23 9 46 13 52 10 6 -4 24 -35 41 -70 21 -46 40 -70 65 -85 21
-12 44 -38 57 -65 14 -29 32 -49 51 -57 15 -7 35 -22 44 -35 8 -13 30 -28 50
-35 19 -6 50 -25 69 -41 21 -19 40 -28 50 -24 16 6 54 -13 83 -41 7 -8 30 -13
50 -13 20 1 63 -2 96 -6 33 -4 71 -6 85 -6 66 4 136 15 144 23 6 5 20 9 32 9
13 0 26 4 29 10 3 5 16 9 29 8 29 -3 209 118 231 154 9 16 24 28 34 28 22 0
41 19 41 41 0 10 11 19 30 23 25 5 30 10 30 36 0 20 6 32 18 36 37 12 47 22
53 57 3 19 13 42 22 52 9 9 17 27 17 40 0 12 7 25 15 28 7 3 24 28 35 55 12
27 32 59 46 71 13 11 24 29 24 40 0 10 7 24 15 31 8 7 15 24 15 39 0 14 7 35
15 45 8 11 15 34 15 52 0 19 6 34 15 38 9 3 15 18 15 36 0 17 7 44 14 59 8 15
13 37 10 48 -3 12 4 48 16 81 18 50 20 64 10 83 -11 19 -10 24 5 35 16 12 26
6 83 -44 35 -31 84 -68 107 -82 24 -14 75 -47 114 -75 68 -48 70 -51 71 -93 0
-29 -5 -44 -15 -48 -8 -4 -15 -18 -15 -33 0 -54 -20 -91 -78 -148 -38 -38 -62
-70 -67 -91 -4 -18 -24 -53 -46 -78 -81 -94 -88 -143 -34 -240 77 -138 201
-190 339 -144 194 64 299 234 227 367 -6 12 -27 34 -47 50 -21 16 -45 48 -59
80 -18 39 -36 61 -71 85 -77 53 -94 73 -94 112 0 19 -4 38 -10 41 -5 3 -10 22
-10 41 0 31 2 34 30 34 18 0 33 6 36 15 7 17 -32 79 -73 116 l-26 24 16 -30
c8 -16 25 -40 37 -53 28 -30 19 -38 -22 -22 -59 24 -122 72 -209 162 -89 90
-117 111 -80 59 25 -35 27 -48 4 -30 -22 19 -162 176 -193 218 -14 19 -60 79
-103 135 -43 55 -86 113 -95 129 -21 35 -36 35 -27 0 9 -37 56 -113 116 -189
42 -53 49 -68 49 -106 0 -24 -7 -53 -15 -64 -8 -10 -15 -35 -15 -54 0 -19 -7
-46 -15 -60 -8 -14 -14 -38 -15 -53 0 -36 -28 -150 -48 -199 -8 -20 -12 -43
-9 -51 3 -8 -3 -27 -14 -43 -10 -16 -19 -37 -19 -46 0 -9 -11 -30 -25 -46 -16
-19 -25 -42 -25 -65 0 -19 -8 -45 -19 -58 -10 -13 -28 -44 -39 -69 -26 -57
-41 -75 -69 -84 -13 -4 -26 -21 -33 -41 -6 -19 -18 -35 -26 -35 -7 0 -21 -12
-31 -27 -9 -16 -27 -38 -40 -51 -31 -31 -172 -114 -198 -116 -11 -2 -31 -8
-44 -15 -13 -7 -31 -11 -41 -8 -9 2 -27 -1 -39 -7 -13 -8 -41 -9 -79 -5 -68 8
-226 55 -230 69 -4 11 -77 62 -123 86 -17 8 -35 28 -40 43 -6 16 -21 33 -34
39 -29 13 -33 40 -8 49 37 13 132 84 153 113 28 39 12 38 -47 -3 -55 -38 -166
-97 -184 -97 -7 0 -2 11 11 25 13 14 21 27 19 29 -3 3 -38 -15 -79 -40 -41
-24 -78 -44 -82 -44 -4 0 -8 -5 -8 -10 0 -6 30 -9 78 -7 80 3 103 -6 152 -58
54 -59 118 -116 135 -121 11 -4 32 -17 47 -29 17 -15 47 -25 85 -30 32 -4 72
-13 88 -20 42 -19 141 -29 150 -16 3 6 17 8 30 5 14 -4 33 0 47 10 12 9 30 16
39 16 44 0 242 133 254 169 3 10 17 23 30 29 14 6 25 19 25 28 0 8 17 31 38
50 21 19 50 58 63 87 13 28 32 61 42 71 10 12 17 36 17 57 0 24 8 48 23 66 23
28 60 116 70 163 3 14 15 57 25 95 11 39 23 92 27 118 3 26 13 64 21 84 9 19
13 41 10 48 -2 7 2 22 10 34 8 11 18 39 22 61 l7 41 59 -72 c50 -61 57 -75 48
-93 -5 -12 -8 -34 -5 -49 3 -16 -3 -45 -16 -72 -12 -25 -21 -60 -20 -78 1 -18
-3 -45 -10 -60 -6 -16 -11 -39 -11 -51 0 -13 -7 -29 -15 -36 -8 -7 -15 -27
-15 -45 0 -18 -7 -38 -15 -45 -8 -7 -15 -22 -15 -33 0 -24 -37 -105 -58 -126
-8 -8 -22 -34 -33 -57 -10 -24 -27 -48 -38 -54 -13 -6 -21 -21 -21 -36 0 -14
-9 -37 -20 -51 -11 -14 -20 -36 -20 -48 0 -17 -9 -26 -30 -34 -22 -7 -32 -18
-36 -40 -5 -21 -15 -33 -35 -40 -19 -7 -29 -17 -29 -31 0 -13 -10 -24 -27 -31
-15 -5 -40 -26 -57 -45 -39 -43 -183 -134 -202 -127 -8 3 -20 1 -27 -5 -24
-20 -144 -52 -202 -55 -33 -2 -80 3 -104 10 -24 7 -61 13 -81 13 -23 0 -48 9
-70 25 -19 14 -42 25 -53 25 -10 0 -37 13 -60 28 -23 16 -49 31 -58 35 -31 11
-138 97 -143 115 -4 10 -26 37 -50 60 -38 36 -96 134 -96 162 0 5 22 21 48 34
54 27 93 64 57 54 -44 -13 -185 -62 -260 -90 -123 -46 -124 -46 -87 -10 29 28
41 52 26 52 -3 0 -20 -11 -37 -24 -70 -52 -131 -73 -269 -91 -27 -3 -48 -10
-48 -16 0 -18 158 -13 214 6 26 9 44 11 52 4 7 -6 26 -4 54 6 74 26 75 20 16
-64 -31 -44 -78 -125 -106 -180 -28 -56 -54 -101 -58 -101 -4 0 -6 37 -6 82 1
89 12 108 77 130 15 6 27 14 27 20 0 12 -33 3 -95 -29 -108 -54 -343 -119
-470 -130 -97 -8 -413 -4 -431 5 -11 6 -54 15 -96 22 -79 11 -183 48 -228 80
-14 10 -50 32 -80 50 -109 64 -189 133 -272 232 -45 55 -88 106 -94 112 -6 7
-19 28 -29 46 -10 19 -40 71 -67 116 -44 72 -50 89 -58 165 -5 46 -14 100 -20
119 -6 19 -10 83 -9 142 l1 107 44 60 c24 33 56 67 71 75 16 8 42 28 58 44 37
35 72 55 85 47 5 -3 29 0 54 6 44 11 116 5 116 -9 0 -7 -78 -42 -94 -42 -25 0
-90 -114 -100 -175 -3 -22 -2 -76 3 -121 10 -96 44 -172 101 -225 21 -20 46
-52 55 -70 10 -19 52 -70 95 -114 42 -44 81 -87 86 -95 17 -28 92 -71 200
-116 60 -25 115 -51 124 -58 8 -8 42 -19 75 -26 33 -7 63 -16 66 -22 10 -15
326 -18 399 -3 36 8 88 17 115 20 28 3 65 11 82 18 40 13 47 7 32 -27 -7 -14
-9 -29 -5 -33 7 -8 18 3 150 150 44 49 137 140 207 203 71 64 149 143 173 177
25 34 55 75 67 90 11 15 51 86 89 157 72 139 74 160 13 135 l-35 -15 7 40 c9
52 -1 51 -25 -2 -29 -65 -27 -72 21 -64 22 4 39 3 36 -1 -2 -5 -24 -42 -48
-83 l-44 -75 -10 65 -10 65 -5 -85 c-5 -83 -15 -115 -49 -154 -15 -17 -16 -15
-21 40 l-6 59 -8 -81 -8 -81 -92 -28 c-62 -20 -113 -29 -161 -29 l-70 -1 2 55
c2 30 -1 71 -6 90 -7 29 -9 18 -10 -55 0 -49 4 -97 9 -105 7 -11 27 -15 82
-14 67 1 90 7 192 50 33 13 -42 -63 -78 -80 -34 -16 -217 -43 -253 -38 -27 4
-29 31 -13 109 14 63 9 285 -5 233 -8 -34 -9 -34 -16 -10 l-7 25 -1 -25 c-3
-54 -2 -54 -223 -47 -219 7 -333 24 -493 72 -108 33 -224 88 -246 117 -16 20
-17 20 -34 -26 -28 -72 -24 -102 16 -136 105 -89 341 -200 511 -239 104 -25
314 -45 390 -38 38 3 59 1 62 -6 2 -7 5 4 6 23 2 32 3 31 10 -13 5 -27 12 -52
15 -55 10 -11 169 -4 200 8 45 17 41 3 -14 -46 -28 -25 -91 -90 -139 -143 -65
-72 -93 -96 -112 -96 -14 -1 -54 -6 -90 -13 -259 -47 -457 -55 -562 -21 -33
10 -67 19 -76 19 -8 0 -34 11 -56 23 -23 13 -86 41 -140 63 -80 31 -109 48
-150 89 -92 92 -190 203 -208 239 -10 19 -31 45 -48 58 -20 15 -41 50 -60 97
-25 61 -30 87 -30 155 0 144 53 214 203 265 51 18 58 18 72 5 8 -9 15 -33 15
-54 0 -53 34 -141 76 -195 19 -25 34 -50 34 -55 0 -6 5 -10 10 -10 6 0 10 11
10 25 0 13 7 42 16 64 16 40 16 40 -15 73 -16 18 -40 52 -53 76 -12 24 -29 49
-39 55 -9 7 -26 32 -39 57 -32 63 -32 132 1 196 66 128 92 174 96 171 2 -3 -1
-33 -7 -68 -5 -35 -9 -84 -9 -109 l1 -45 9 50 c22 120 81 363 105 431 61 177
168 391 243 484 58 72 193 210 205 210 6 -1 31 -19 56 -40 l45 -40 -38 11
c-21 6 -53 7 -70 4 -93 -19 -90 -32 6 -27 51 3 84 -1 111 -12 47 -20 52 -20
36 -1 -19 23 6 19 29 -4 27 -27 38 -76 45 -198 10 -152 33 -203 121 -263 49
-34 60 -28 20 10 -14 13 -25 20 -25 16 0 -4 -14 9 -30 28 -50 57 -60 93 -60
226 0 111 -2 123 -25 160 -19 30 -42 48 -88 70 -99 47 -131 110 -121 240 7 84
31 128 101 187 84 71 156 144 148 151 -4 4 -11 -1 -16 -10 -5 -9 -42 -40 -82
-69 -39 -29 -76 -58 -80 -66 -4 -7 -13 -13 -20 -13 -7 0 -29 -9 -50 -20 -21
-11 -42 -18 -47 -15 -16 10 -11 86 10 169 20 81 68 196 80 196 4 0 15 27 25
60 10 33 37 85 61 117 24 32 58 85 75 118 17 33 40 70 52 83 11 12 16 22 10
22 -16 0 -56 -50 -94 -117 -17 -32 -38 -65 -44 -73 -28 -34 -149 -282 -166
-338 -7 -23 -17 -41 -23 -39 -11 4 -28 74 -48 191 -8 52 -8 84 2 135 20 105 7
116 -18 14 -21 -86 -21 -96 -8 -170 8 -43 26 -114 39 -158 13 -44 22 -85 20
-92 -3 -7 -24 -2 -66 18 -34 15 -93 35 -132 43 -171 36 -224 70 -273 174 -36
76 -37 78 -40 227 -3 161 -24 280 -62 355 -12 23 -18 45 -15 50 3 6 1 10 -4
10 -6 0 -11 -11 -11 -25 0 -22 -4 -25 -36 -25 -58 0 -112 36 -125 84 -8 28 -8
46 0 63 13 29 14 43 2 43 -5 0 -11 -10 -15 -22z m430 -3049 c4 -7 48 -31 98
-54 101 -48 286 -99 416 -115 100 -12 294 -12 365 0 29 4 54 4 59 -1 11 -10
-9 -178 -22 -191 -11 -11 -299 9 -395 28 -42 8 -117 28 -165 45 -113 40 -317
140 -365 180 -36 29 -38 35 -32 68 10 52 24 66 41 40z m3554 -464 c6 -19 16
-35 21 -35 5 0 9 -4 9 -10 0 -5 -15 -10 -32 -10 -18 0 -40 -5 -48 -10 -10 -7
6 -10 54 -10 88 0 139 -30 158 -92 6 -22 37 -68 71 -106 56 -64 58 -69 52
-107 -16 -99 -121 -198 -257 -241 -49 -15 -65 -16 -111 -5 -131 29 -230 144
-214 247 5 28 50 100 77 124 3 3 18 30 32 61 18 37 44 71 78 100 28 23 53 54
56 68 12 53 16 61 29 61 7 0 19 -16 25 -35z m-3757 -570 c20 -8 39 -19 42 -25
12 -19 78 -56 130 -73 28 -9 88 -21 135 -27 47 -5 105 -14 130 -19 27 -5 67
-6 100 0 34 5 69 5 89 -1 21 -6 51 -6 83 0 28 6 74 10 103 10 29 0 72 7 96 16
24 9 65 18 90 19 28 2 77 18 124 40 42 20 87 35 98 33 19 -3 22 -9 21 -53 -1
-27 -9 -97 -18 -155 -13 -83 -25 -125 -61 -197 -24 -51 -47 -93 -49 -93 -3 0
-13 17 -21 37 -9 21 -26 48 -38 61 -16 17 -20 33 -18 62 3 46 -19 97 -59 135
-38 37 -38 28 1 -30 17 -25 33 -63 36 -84 4 -32 1 -41 -18 -55 -13 -9 -27 -16
-31 -16 -16 0 -40 51 -52 116 l-14 69 -1 -57 c-1 -55 23 -138 39 -138 4 0 10
-23 14 -51 4 -28 20 -88 37 -133 24 -67 27 -83 16 -91 -58 -43 -148 -141 -221
-242 -46 -65 -56 -66 -222 -23 -64 17 -120 27 -123 24 -3 -4 0 -9 7 -11 26
-10 10 -22 -20 -17 -84 15 -142 35 -163 54 -48 45 -72 223 -47 340 l8 35 57
-88 c31 -48 57 -94 57 -102 0 -7 5 -17 10 -20 19 -12 10 30 -19 90 -15 33 -62
117 -103 186 -42 69 -90 157 -108 195 -18 38 -47 89 -65 114 -59 81 -109 180
-91 180 2 0 20 -7 39 -15z m1045 -450 c20 -25 22 -30 67 -150 15 -38 35 -90
45 -115 16 -37 17 -48 6 -64 -15 -23 -64 -42 -76 -30 -11 11 -86 220 -107 296
-12 47 -13 61 -3 73 18 22 46 18 68 -10z m-591 -551 c135 -7 247 -15 261 -20
9 -2 1 -26 -26 -81 -21 -43 -54 -113 -72 -155 -19 -43 -37 -78 -42 -78 -4 0
-8 -5 -8 -12 0 -21 -45 -78 -61 -78 -19 0 -45 35 -54 72 l-6 25 50 -11 c28 -5
54 -6 58 -2 12 11 -27 36 -57 36 -14 0 -50 9 -80 20 -30 11 -56 20 -57 20 -13
0 -49 240 -39 266 4 10 13 13 25 9 11 -3 60 -8 108 -11z m391 -395 l54 3 -146
-147 -147 -147 -45 7 c-52 7 -59 18 -76 114 -11 64 -10 72 6 90 17 19 21 19
47 6 39 -20 46 -19 61 12 10 21 24 29 68 38 30 7 66 17 80 22 14 6 29 8 34 5
6 -3 34 -4 64 -3z m-608 -139 c96 0 183 1 194 2 15 2 22 -9 35 -57 21 -74 43
-115 70 -135 12 -8 21 -18 21 -23 0 -15 -81 -107 -93 -107 -13 0 -19 3 -147
75 -47 26 -110 61 -140 78 -87 47 -159 87 -212 118 -56 33 -82 38 -53 10 18
-17 191 -121 202 -121 3 0 17 -8 31 -18 15 -11 75 -44 133 -75 141 -75 169
-91 169 -98 0 -3 -13 -18 -29 -33 l-28 -27 -39 22 c-22 12 -75 42 -119 67
-217 121 -350 206 -359 228 -3 8 -6 35 -6 59 l0 44 98 -4 c53 -2 176 -5 272
-5z m-11 -417 c7 -38 14 -82 17 -100 6 -29 2 -34 -53 -73 -71 -50 -182 -120
-189 -120 -3 0 9 26 27 58 17 31 41 73 52 92 68 121 107 194 107 201 0 5 6 9
14 9 9 0 18 -22 25 -67z"/>
<path d="M1200 8107 c0 -3 15 -14 34 -25 18 -11 55 -51 81 -88 27 -38 65 -92
86 -120 39 -53 40 -64 7 -64 -10 0 -18 -5 -18 -11 0 -14 123 -7 250 15 82 13
106 13 84 -2 -120 -81 -183 -121 -201 -127 -19 -5 -33 -25 -18 -25 38 0 227
117 401 248 167 126 225 147 379 140 l70 -3 -60 -31 c-33 -18 -71 -44 -84 -58
-14 -14 -32 -26 -40 -26 -14 0 -14 -2 -1 -10 10 -6 20 -4 30 5 62 56 236 109
285 87 13 -6 31 -9 38 -6 7 2 23 -7 35 -21 12 -14 26 -25 32 -25 5 0 10 -5 10
-11 0 -6 9 -22 20 -36 27 -34 70 -177 71 -234 0 -34 2 -39 9 -24 15 36 11 85
-16 172 -44 140 -139 222 -260 223 -22 1 -57 7 -79 15 -48 18 -141 19 -219 3
-53 -10 -137 -53 -203 -105 -144 -111 -167 -125 -208 -119 -36 6 -159 -5 -226
-19 -25 -6 -32 2 -99 104 -66 101 -127 171 -150 171 -4 0 -15 3 -24 6 -9 3
-16 4 -16 1z"/>
<path d="M2479 7726 c-9 -19 -20 -26 -41 -26 -34 0 -83 -24 -153 -74 -27 -20
-57 -36 -67 -36 -34 0 -50 -14 -69 -57 -10 -25 -19 -61 -19 -82 0 -22 -10 -50
-25 -73 l-25 -38 25 -6 c40 -10 84 14 106 58 23 45 58 62 112 54 21 -4 37 -2
37 3 0 5 -21 13 -46 17 -60 9 -114 -14 -114 -49 0 -32 -40 -67 -75 -67 l-28 0
20 23 c18 19 50 128 45 150 -6 25 21 47 57 47 39 0 79 -23 114 -67 22 -28 42
-31 28 -5 -5 9 -26 34 -47 55 l-39 38 25 19 c42 33 141 82 148 75 4 -4 -19
-31 -51 -60 -37 -34 -51 -52 -37 -48 30 8 110 91 127 131 17 40 9 57 -8 18z"/>
<path d="M2763 7454 c-10 -15 -18 -40 -19 -55 -4 -80 -103 -219 -155 -219 -17
0 -44 -14 -71 -36 -50 -43 -132 -84 -168 -84 -14 0 -47 12 -75 26 -27 15 -68
36 -89 47 -54 28 -27 34 34 8 66 -28 84 -27 165 16 39 20 93 44 120 54 37 13
43 18 25 18 -19 1 -22 3 -10 11 8 5 11 12 7 16 -4 4 -21 -2 -37 -14 -39 -30
-44 -28 -37 14 5 30 4 34 -8 24 -8 -7 -15 -27 -15 -44 0 -28 -7 -36 -54 -63
-77 -44 -88 -46 -140 -23 -50 21 -142 28 -131 10 4 -6 34 -25 67 -43 33 -17
76 -41 96 -52 27 -15 53 -19 99 -18 43 1 65 -2 73 -12 19 -23 103 -20 125 5
10 11 13 20 7 20 -6 0 -14 -4 -17 -10 -8 -14 -92 -13 -101 1 -9 15 13 28 37
22 24 -7 69 5 69 17 0 5 -14 7 -32 3 l-33 -6 24 27 c14 14 42 31 63 37 80 21
146 108 188 247 24 80 22 99 -7 56z"/>
<path d="M4450 7290 c-40 -40 -63 -101 -57 -151 4 -32 1 -53 -9 -68 -9 -12
-14 -29 -11 -39 2 -12 9 -7 22 21 35 71 83 37 59 -42 -8 -28 -10 -49 -4 -55
13 -13 30 36 30 85 0 25 5 42 14 45 26 10 39 61 33 129 -7 92 -34 118 -77 75z"/>
<path d="M4016 7060 c-63 -25 -110 -70 -144 -140 -23 -47 -27 -67 -27 -145 0
-75 4 -98 24 -140 65 -131 189 -183 301 -125 93 47 143 130 156 253 21 202
-147 362 -310 297z m179 -34 c81 -44 133 -169 115 -280 -24 -150 -111 -236
-237 -236 -99 0 -177 74 -208 198 -18 70 -8 139 31 220 56 115 187 158 299 98z"/>
<path d="M2167 6394 c-10 -11 -8 -122 2 -128 5 -4 11 0 14 6 3 8 9 1 16 -14 6
-16 37 -56 69 -91 33 -35 67 -76 77 -91 17 -26 17 -27 -2 -49 -11 -12 -25 -31
-31 -42 -16 -32 -64 -216 -58 -223 13 -12 26 17 55 127 17 63 34 118 38 122
13 12 84 28 99 22 22 -8 17 -18 -26 -53 -38 -31 -50 -50 -32 -50 5 0 29 15 53
34 24 19 53 36 64 38 16 3 12 8 -22 26 -50 26 -53 39 -17 82 53 63 153 92 243
70 70 -17 85 -8 25 15 -27 10 -74 19 -105 19 -45 0 -65 -6 -109 -33 -29 -18
-59 -39 -67 -47 -30 -30 -127 11 -191 80 -23 25 -42 47 -42 48 -1 20 -48 137
-53 132z"/>
<path d="M3565 6211 c-34 -14 -85 -73 -97 -112 -22 -76 12 -173 73 -205 104
-53 222 67 194 199 -8 36 -47 92 -73 106 -28 15 -76 20 -97 12z m93 -31 c90
-55 78 -230 -19 -271 -42 -17 -93 -4 -123 32 -33 39 -40 68 -33 131 7 54 24
79 72 109 38 24 62 24 103 -1z"/>
<path d="M4635 5818 c-88 -49 -132 -164 -105 -276 14 -61 67 -126 115 -142 80
-26 169 21 206 108 47 108 5 262 -83 308 -32 17 -105 18 -133 2z m135 -25 c57
-33 98 -136 86 -215 -21 -137 -141 -209 -239 -143 -77 53 -104 177 -60 275 24
54 49 77 100 95 41 15 73 11 113 -12z"/>
<path d="M2747 5214 c-57 -20 -150 -42 -218 -53 -88 -13 -124 -22 -137 -36
-16 -18 -16 -18 1 -5 15 11 20 11 26 1 6 -9 33 -9 127 3 117 15 238 49 286 80
15 10 33 14 44 10 17 -6 16 -4 -3 15 -12 11 -23 21 -25 20 -2 0 -47 -16 -101
-35z"/>
<path d="M4901 5148 c-2 -40 158 -242 289 -365 73 -70 85 -69 55 4 -8 20 -13
38 -11 40 2 2 28 -14 57 -37 30 -22 80 -50 111 -61 65 -24 79 -46 53 -85 -15
-23 -15 -27 0 -50 9 -14 14 -28 11 -33 -6 -8 -7 -139 -3 -236 2 -38 -2 -65
-10 -73 -8 -9 -9 -20 -3 -37 7 -18 5 -28 -5 -39 -8 -8 -15 -26 -15 -39 0 -14
-7 -30 -15 -37 -11 -9 -14 -22 -10 -40 4 -19 0 -31 -15 -45 -11 -10 -20 -24
-20 -31 0 -7 -9 -18 -20 -24 -11 -6 -23 -22 -26 -35 -3 -14 -12 -25 -20 -25
-8 0 -14 -4 -14 -9 0 -5 -16 -26 -35 -47 -19 -20 -35 -41 -35 -45 0 -5 -5 -9
-11 -9 -16 0 -89 -63 -89 -78 0 -17 58 16 71 41 5 9 16 17 24 17 8 0 23 12 32
27 10 15 35 43 56 63 20 19 37 42 37 52 0 11 11 23 25 28 14 5 25 17 25 28 0
10 9 27 19 36 10 10 21 34 24 54 11 71 19 102 28 102 5 0 9 20 9 45 0 25 4 45
9 45 4 0 6 78 3 173 -5 177 -4 188 1 247 3 26 9 35 23 36 10 1 23 2 28 3 16 2
-26 40 -72 66 -52 29 -52 29 -52 10 0 -8 -6 -15 -13 -15 -16 0 -118 71 -177
123 -39 34 -60 45 -60 32 0 -3 14 -33 31 -66 17 -34 28 -63 26 -65 -7 -7 -148
148 -211 232 -109 145 -105 140 -105 122z"/>
<path d="M2750 4038 c-109 -55 -151 -208 -90 -328 74 -145 246 -147 316 -4 55
113 38 232 -43 304 -63 55 -114 63 -183 28z m139 -16 c57 -28 92 -81 100 -151
12 -103 -18 -180 -89 -228 -85 -58 -207 2 -240 118 -49 169 93 331 229 261z"/>
<path d="M4325 3936 c-40 -17 -88 -65 -111 -113 -29 -57 -26 -173 5 -236 46
-94 142 -126 221 -73 75 50 119 190 91 294 -12 42 -58 105 -90 121 -32 17 -86
20 -116 7z m117 -27 c29 -15 66 -72 79 -122 11 -38 11 -59 0 -108 -17 -82 -49
-132 -105 -158 -38 -19 -50 -21 -83 -12 -75 21 -123 98 -123 201 0 155 119
257 232 199z"/>
<path d="M4900 3876 c0 -22 124 -167 236 -276 284 -276 342 -339 330 -358 -10
-16 -157 9 -254 44 -52 19 -99 34 -104 34 -20 0 -5 -18 28 -34 20 -9 34 -19
31 -22 -3 -3 -38 -1 -78 5 -39 7 -74 9 -77 6 -9 -8 27 -42 59 -55 16 -7 29
-19 29 -27 0 -20 -81 -9 -167 22 -34 12 -65 20 -68 17 -10 -11 -5 -21 15 -27
11 -3 20 -11 20 -17 0 -17 -77 -2 -168 33 -90 34 -115 31 -67 -6 16 -13 27
-27 24 -30 -9 -9 -173 23 -236 46 -134 49 -193 82 -354 198 -41 29 -17 -11 46
-77 68 -72 115 -101 252 -157 95 -38 237 -61 310 -50 55 8 79 9 148 6 100 -4
252 0 279 7 l27 7 -22 29 -23 29 187 -7 c160 -6 188 -5 193 7 7 20 -25 81 -73
137 -50 59 -523 526 -523 516z"/>
<path d="M3195 3635 c-93 -34 -140 -136 -133 -284 4 -88 17 -126 58 -168 27
-30 85 -31 100 -4 15 29 12 88 -7 124 -24 45 -23 129 1 156 24 26 36 26 70 0
37 -29 65 -88 131 -284 47 -140 246 -692 283 -786 11 -28 57 -69 77 -69 7 0
18 6 24 14 10 12 9 14 -6 10 -42 -11 -69 30 -118 178 -49 150 -96 282 -197
558 -33 91 -68 190 -78 221 -26 80 -76 175 -102 193 -42 29 -76 18 -112 -37
-21 -35 -18 -108 8 -176 21 -56 14 -91 -17 -91 -60 0 -102 97 -95 219 7 119
55 194 138 212 79 18 150 -22 194 -109 24 -49 320 -845 370 -999 15 -45 28
-98 29 -117 1 -18 6 -32 11 -29 15 10 -3 96 -48 229 -81 241 -306 839 -344
913 -58 116 -142 161 -237 126z"/>
<path d="M5950 3396 c-15 -82 -49 -120 -101 -111 -34 5 -34 5 -9 -10 38 -22
52 -18 86 22 27 32 38 38 75 39 24 2 58 4 74 6 l30 3 7 -110 c7 -128 20 -169
77 -249 50 -72 55 -120 16 -138 -18 -8 -28 -8 -39 1 -18 15 -43 114 -55 221
-10 81 -28 140 -43 140 -7 0 -30 -47 -114 -228 -47 -104 -78 -132 -143 -132
-90 0 -229 61 -270 119 -12 16 -21 43 -21 60 0 25 9 37 55 71 30 22 66 52 80
67 32 36 69 114 85 183 7 30 14 60 16 67 1 6 13 13 26 15 21 4 21 5 5 13 -28
12 -51 -19 -81 -111 -33 -100 -63 -146 -131 -203 -72 -59 -83 -87 -60 -148 14
-37 18 -74 17 -179 -1 -107 2 -134 14 -145 16 -13 46 -24 222 -79 l103 -33 79
32 c43 17 88 31 98 31 33 0 59 32 87 110 36 101 39 104 66 108 34 5 46 18 53
56 8 39 -4 69 -55 146 -43 64 -69 153 -69 237 0 38 -6 67 -16 82 -15 21 -21
22 -85 16 -76 -8 -75 -9 -60 58 5 20 5 37 1 37 -4 0 -13 -29 -20 -64z m139
-308 c1 -62 19 -142 43 -201 l21 -48 -34 -99 c-29 -86 -37 -99 -59 -103 -14
-3 -28 -3 -31 -1 -4 2 -2 27 3 55 10 58 4 71 -29 58 -24 -9 -30 -24 -13 -34
14 -9 12 -42 -2 -49 -10 -5 -10 -7 0 -12 23 -11 12 -22 -42 -48 -30 -14 -57
-26 -60 -26 -3 0 -7 46 -8 103 l-3 102 -9 -102 c-5 -57 -9 -103 -10 -103 0 0
-68 22 -149 48 l-148 47 -3 123 c-2 67 -1 122 1 122 2 0 22 -14 45 -30 23 -17
70 -39 106 -50 160 -50 220 -10 303 200 23 58 46 114 52 125 10 19 11 19 18
-5 4 -14 7 -46 8 -72z"/>
<path d="M4598 3085 c-3 -6 -9 -39 -13 -74 -4 -35 -20 -92 -36 -127 -16 -35
-29 -70 -29 -77 0 -8 -9 -24 -20 -37 -11 -13 -20 -37 -20 -55 0 -18 -7 -38
-15 -45 -8 -7 -17 -28 -21 -47 -4 -19 -13 -37 -20 -40 -8 -3 -19 -25 -26 -50
-7 -31 -18 -47 -34 -53 -15 -6 -27 -23 -35 -51 -8 -25 -20 -44 -31 -47 -20 -5
-48 -50 -48 -76 0 -9 -11 -23 -25 -32 -13 -9 -27 -25 -31 -36 -11 -35 -65
-108 -80 -108 -7 0 -16 -11 -20 -25 -4 -16 -13 -25 -26 -25 -10 0 -30 -11 -44
-25 -14 -14 -31 -25 -39 -25 -8 0 -24 -13 -37 -30 -14 -19 -31 -30 -46 -30
-16 0 -40 -16 -67 -42 -77 -78 -128 -118 -148 -118 -11 0 -28 -6 -36 -13 -24
-20 -129 -47 -196 -50 -33 -2 -65 -5 -70 -8 -18 -11 -179 -10 -227 1 -27 5
-72 15 -100 21 -79 16 -155 56 -230 121 -36 32 -71 58 -76 58 -15 0 -92 82
-92 98 0 7 -18 30 -40 52 -22 22 -40 46 -40 54 0 7 -7 17 -16 20 -11 4 -14 13
-10 31 5 19 1 28 -19 41 -15 10 -25 26 -25 39 0 23 -23 55 -40 55 -5 0 -12 16
-16 35 -3 19 -12 39 -19 45 -8 6 -16 24 -20 39 -3 16 -17 39 -31 51 -13 13
-24 30 -24 38 0 8 -6 26 -14 40 -38 73 -72 163 -68 180 2 6 -4 12 -13 12 -20
0 -20 -43 0 -60 8 -7 15 -25 15 -41 0 -15 5 -31 10 -34 6 -3 10 -16 10 -29 0
-13 9 -31 20 -41 12 -10 18 -25 15 -33 -3 -8 8 -26 25 -42 16 -15 30 -38 30
-51 0 -12 8 -31 17 -41 10 -11 22 -34 28 -51 5 -18 20 -36 33 -42 14 -6 22
-18 22 -35 0 -15 7 -35 15 -46 8 -10 15 -27 15 -36 0 -17 9 -30 74 -101 19
-21 38 -47 41 -58 9 -28 85 -105 112 -113 12 -4 25 -15 28 -26 3 -10 22 -28
43 -40 20 -12 42 -31 50 -41 7 -10 21 -19 31 -19 10 0 31 -10 46 -22 29 -23
82 -37 155 -43 25 -2 68 -7 95 -13 66 -12 171 -8 190 8 11 9 18 10 29 1 26
-22 195 12 237 47 10 7 27 10 41 7 21 -5 29 0 52 35 15 23 42 48 59 55 19 8
40 29 51 50 17 31 23 35 46 30 21 -5 30 0 48 24 12 16 32 31 44 33 13 2 27 13
33 26 8 17 18 22 47 22 33 0 37 3 40 28 2 19 9 28 25 30 14 2 25 12 29 27 3
13 14 31 25 41 10 9 19 25 19 35 0 10 11 26 25 35 14 9 29 33 35 55 6 22 21
46 35 55 13 8 30 34 38 57 9 29 20 43 35 45 17 3 22 13 28 48 5 35 12 48 30
56 17 8 24 19 24 41 0 16 9 40 20 54 11 14 20 37 20 50 0 13 9 41 19 61 45 88
69 161 88 269 5 34 0 63 -9 48z"/>
<path d="M4946 2873 c-64 -16 -134 -85 -173 -168 -23 -50 -27 -73 -28 -145 0
-134 32 -205 119 -264 68 -46 166 -31 240 38 158 148 150 442 -15 526 -36 19
-98 24 -143 13z m126 -22 c36 -14 89 -72 111 -121 43 -95 18 -256 -54 -347
-67 -85 -189 -118 -260 -70 -127 85 -147 311 -40 454 28 38 87 79 122 86 43 8
97 7 121 -2z"/>
<path d="M3079 2623 c-66 -56 -87 -159 -48 -239 52 -108 175 -110 230 -3 17
35 20 55 17 115 -3 70 -5 75 -43 114 -33 34 -45 40 -81 40 -32 0 -51 -7 -75
-27z m132 -14 c77 -55 78 -193 2 -259 -31 -28 -42 -31 -76 -27 -125 17 -156
219 -44 287 41 26 82 25 118 -1z"/>
<path d="M5251 2504 c15 -18 20 -258 6 -306 -4 -17 -3 -28 2 -28 14 0 24 81
24 193 0 53 4 97 9 97 4 0 25 -10 46 -23 71 -44 124 -60 212 -63 47 -1 123
-10 170 -19 97 -19 201 -15 249 9 17 9 55 16 88 16 97 1 185 55 121 74 -22 7
-22 7 -3 16 11 5 32 11 48 14 16 4 27 13 27 22 0 13 -6 15 -27 9 -16 -3 -66
-10 -113 -13 l-85 -7 45 -21 c25 -12 53 -24 63 -27 11 -4 15 -12 11 -18 -5 -9
-49 -10 -158 -5 -99 4 -146 3 -136 -3 8 -6 32 -13 52 -16 21 -4 38 -12 38 -17
0 -28 -272 14 -402 62 -82 29 -100 26 -45 -9 17 -11 28 -21 23 -21 -16 0 -181
53 -190 61 -6 5 -18 9 -27 9 -9 0 -22 7 -29 15 -7 8 -17 15 -22 15 -6 0 -4 -7
3 -16z"/>
<path d="M2035 2337 c-229 -110 -230 -468 -3 -581 138 -69 297 11 344 172 21
72 15 190 -13 253 -64 143 -210 213 -328 156z m197 -30 c171 -84 193 -393 37
-507 -53 -38 -102 -53 -153 -48 -89 10 -170 71 -209 157 -27 60 -30 207 -4
264 45 102 140 171 229 164 25 -2 70 -16 100 -30z"/>
<path d="M5301 2198 c-1 -53 -8 -132 -16 -175 -18 -94 -19 -115 -5 -93 17 26
11 -6 -11 -62 -11 -29 -18 -64 -16 -78 3 -14 -1 -52 -8 -85 -7 -33 -16 -84
-18 -113 -5 -44 -3 -53 9 -48 19 7 19 8 -26 -134 -21 -68 -37 -126 -35 -129 3
-2 16 6 30 19 14 13 25 21 25 19 0 -7 -42 -110 -74 -184 -24 -54 -24 -58 -5
-35 50 59 98 178 124 308 9 46 -9 40 -28 -10 -27 -67 -30 -37 -6 49 26 93 40
215 26 225 -7 4 0 53 18 135 22 101 29 160 32 283 2 89 0 166 -6 180 -7 19
-10 3 -10 -72z"/>
<path d="M5038 2087 c-37 -60 -62 -150 -48 -177 7 -14 8 -26 1 -39 -6 -11 -18
-65 -26 -122 -24 -159 -19 -149 -81 -149 -45 0 -59 -5 -85 -28 -73 -66 2 -117
171 -117 118 0 161 9 200 41 36 31 37 40 7 77 -15 19 -36 30 -67 35 -43 7 -45
9 -44 42 2 81 27 237 42 265 30 55 11 215 -26 215 -9 0 -29 -19 -44 -43z m32
-239 c0 -17 -7 -75 -16 -127 -30 -189 -26 -176 -58 -179 -16 -2 -33 1 -38 6
-11 11 38 300 54 320 6 6 21 12 34 12 20 0 24 -5 24 -32z m-128 -290 c2 -27 8
-34 30 -36 36 -4 66 13 74 43 7 30 42 33 98 10 70 -30 35 -66 -84 -85 -156
-26 -318 18 -257 69 8 6 38 15 68 20 30 5 57 9 61 10 4 0 8 -14 10 -31z"/>
<path d="M4277 1860 c-67 -60 -99 -133 -98 -227 1 -88 25 -143 80 -180 160
-108 351 170 252 365 -27 54 -75 82 -138 82 -44 0 -56 -5 -96 -40z m186 -13
c104 -97 57 -336 -76 -386 -68 -26 -125 -3 -168 66 -34 54 -32 169 3 238 40
78 92 115 165 115 33 0 48 -6 76 -33z"/>
<path d="M2296 1644 c-71 -69 -130 -123 -132 -121 -2 2 6 27 18 55 12 28 19
55 15 58 -4 4 -25 -6 -48 -22 -23 -16 -63 -43 -89 -61 -26 -17 -69 -47 -94
-67 -26 -20 -55 -36 -64 -36 -16 1 -15 2 1 14 22 17 22 36 1 36 -26 0 -155
-40 -197 -62 -60 -30 -95 -42 -79 -27 6 7 12 17 12 21 0 18 -29 6 -86 -34 -99
-71 -131 -86 -86 -41 29 29 17 44 -21 25 -74 -37 -175 -57 -294 -57 -100 0
-120 -2 -109 -13 19 -19 146 -30 229 -19 39 5 96 9 126 9 34 -1 70 6 97 19 24
10 48 19 54 19 6 0 41 14 78 31 99 46 185 80 190 74 3 -2 -7 -10 -22 -16 -43
-20 -30 -31 27 -24 67 9 112 29 220 99 48 31 87 52 87 47 0 -5 -20 -34 -45
-64 -45 -56 -46 -81 -3 -53 13 7 34 17 48 21 14 5 39 18 56 31 17 13 34 24 37
24 4 0 7 -19 7 -42 0 -82 48 -279 71 -294 13 -8 11 10 -6 53 -8 21 -24 96 -35
167 l-19 129 60 64 c59 64 136 170 128 177 -2 2 -62 -52 -133 -120z"/>
<path d="M3720 1722 c0 -21 66 -145 114 -215 25 -37 46 -72 46 -77 0 -16 -55
-150 -104 -250 l-46 -95 6 75 c5 53 3 72 -4 65 -6 -5 -42 -64 -80 -131 -92
-159 -122 -207 -129 -201 -2 3 0 14 6 26 43 80 -117 -70 -191 -180 -32 -47
-53 -64 -42 -34 4 8 2 15 -3 15 -5 0 -31 -37 -58 -82 -66 -114 -89 -147 -94
-143 -2 3 4 16 13 30 10 15 16 34 14 43 -2 12 -13 4 -35 -29 -66 -95 -219
-236 -303 -280 -30 -15 -39 -24 -28 -27 36 -7 204 102 268 174 17 19 39 37 50
39 18 4 79 62 80 77 0 4 19 29 43 56 23 26 77 95 120 151 43 56 81 100 84 98
2 -3 -3 -17 -13 -31 -33 -51 -4 -37 60 29 39 39 93 112 132 177 36 60 68 107
70 105 2 -2 -7 -37 -20 -78 -25 -76 -25 -99 0 -64 8 11 20 27 27 35 76 93 119
176 168 320 28 86 45 104 69 75 7 -8 17 -15 23 -15 6 0 21 -10 34 -22 25 -24
43 -17 27 10 -45 73 -66 114 -57 111 6 -2 51 -39 100 -82 64 -57 103 -84 143
-97 30 -10 57 -17 59 -14 2 2 -6 16 -20 30 -43 46 -3 25 142 -74 26 -18 51
-32 57 -32 5 0 15 -7 22 -16 24 -28 101 -68 109 -56 5 8 29 2 81 -19 80 -34
221 -52 234 -30 5 7 -2 11 -19 11 -26 0 -136 29 -190 50 -34 13 -123 67 -145
89 -13 13 -15 12 -18 -3 -2 -10 3 -25 12 -35 9 -10 16 -22 16 -27 0 -5 -34 26
-75 69 -41 42 -77 77 -81 77 -3 0 -4 -9 -1 -20 7 -27 -5 -25 -41 5 -41 34
-189 108 -202 100 -7 -4 -6 -13 1 -26 24 -45 -3 -24 -117 88 -98 98 -119 114
-122 97 -1 -11 4 -41 12 -65 8 -24 12 -46 9 -49 -3 -3 -8 0 -10 7 -2 6 -13 22
-25 35 -11 12 -52 68 -91 123 -82 117 -87 123 -87 107z"/>
<path d="M2736 1698 c-3 -7 -7 -63 -10 -125 -4 -62 -9 -118 -11 -126 -5 -13
-53 -31 -159 -62 -68 -19 -76 -30 -46 -59 25 -24 153 -112 173 -119 8 -2 34
-181 36 -252 1 -15 14 -6 61 40 34 33 73 78 87 100 15 22 29 42 30 44 2 3 44
-8 94 -24 68 -22 94 -27 107 -19 33 21 26 60 -30 156 -29 51 -54 96 -56 99 -2
4 17 50 42 101 45 91 57 138 36 138 -5 0 -51 -13 -101 -29 l-90 -29 -28 31
c-113 128 -132 146 -135 135z m103 -140 c52 -55 68 -58 160 -27 35 11 65 18
68 16 2 -3 -14 -41 -36 -86 -23 -44 -41 -90 -41 -101 0 -23 73 -176 97 -202
30 -33 4 -37 -89 -12 -50 13 -94 23 -98 22 -4 -2 -40 -40 -80 -86 -40 -45 -74
-81 -76 -79 -2 2 -8 48 -15 103 -6 61 -16 105 -26 116 -8 9 -48 39 -89 65 -41
26 -74 51 -74 55 0 4 26 14 57 23 85 25 132 52 144 83 6 15 12 63 14 107 2 44
4 84 4 90 1 5 8 -2 17 -15 10 -14 37 -46 63 -72z"/>
<path d="M2230 1275 c-4 -37 2 -90 17 -165 8 -41 19 -100 23 -130 4 -30 30
-116 58 -190 38 -104 47 -136 36 -138 -8 -2 -12 -7 -9 -12 3 -5 10 -34 16 -65
6 -31 26 -92 45 -137 19 -44 33 -83 30 -85 -2 -2 -16 10 -30 28 -15 17 -30 28
-34 25 -11 -11 39 -143 75 -199 36 -54 104 -130 111 -123 2 3 -16 35 -41 73
-76 117 -97 153 -92 153 3 0 19 -7 35 -15 26 -13 30 -13 30 -1 0 8 -6 27 -14
43 -30 58 -86 185 -86 195 0 5 5 6 10 3 22 -13 -4 115 -39 197 -14 34 -16 48
-8 51 8 3 -1 28 -26 76 -27 51 -32 69 -20 64 18 -7 17 -1 -15 85 -21 54 -35
110 -57 222 -7 36 -14 56 -15 45z"/>
</g>
</svg>
