<?xml version="1.0" standalone="no"?>
<!DOCTYPE svg PUBLIC "-//W3C//DTD SVG 20010904//EN"
 "http://www.w3.org/TR/2001/REC-SVG-20010904/DTD/svg10.dtd">
<svg version="1.0" xmlns="http://www.w3.org/2000/svg"
 width="1280.000000pt" height="1668.000000pt" viewBox="0 0 1280.000000 1668.000000"
 preserveAspectRatio="xMidYMid meet">
<metadata>
Created by potrace 1.16, written by Peter Selinger 2001-2019
</metadata>
<g transform="translate(0.000000,1668.000000) scale(0.100000,-0.100000)"
fill="#000000" stroke="none">
<path d="M9699 15810 c-233 -15 -310 -48 -400 -174 -66 -92 -93 -111 -190
-134 -66 -15 -151 -17 -759 -17 -377 0 -697 3 -712 7 -19 6 -28 17 -33 38 -9
40 -43 57 -163 80 -295 56 -606 74 -1147 67 -407 -6 -529 -13 -760 -43 -66 -9
-169 -20 -230 -24 -154 -12 -1285 -12 -2000 0 -330 6 -664 11 -741 13 l-142 2
-17 -70 c-14 -55 -19 -130 -23 -351 -5 -333 2 -468 27 -493 10 -10 41 -21 71
-24 65 -8 72 -14 40 -36 -58 -38 -60 -44 -60 -154 0 -119 24 -230 67 -309 41
-75 62 -88 147 -88 139 0 307 66 373 147 20 25 40 40 45 35 4 -4 12 -65 16
-134 5 -73 13 -133 20 -141 7 -8 27 -17 45 -21 18 -3 302 -10 632 -15 330 -6
692 -15 805 -22 146 -7 213 -8 233 0 45 17 57 63 68 254 14 245 27 399 34 419
10 26 40 32 165 31 135 -1 167 -10 172 -50 6 -51 -11 -210 -32 -305 -44 -194
-50 -229 -60 -319 -6 -61 -15 -98 -26 -110 -25 -28 -225 -171 -255 -182 -36
-14 -57 -3 -74 37 -17 39 -30 46 -91 46 -102 0 -271 -56 -348 -115 l-36 -27
-94 98 -95 99 -103 0 c-63 0 -120 -6 -146 -14 -28 -10 -48 -11 -56 -5 -107 79
-152 89 -245 54 -54 -20 -66 -21 -124 -11 -101 18 -144 13 -254 -24 -111 -39
-142 -39 -167 0 -22 34 -78 49 -157 42 -76 -6 -101 -17 -212 -94 -48 -32 -89
-53 -106 -53 -19 0 -55 22 -117 70 -110 87 -197 132 -269 138 -72 6 -100 -20
-110 -102 -10 -76 -1 -117 47 -214 22 -46 38 -85 35 -89 -3 -3 -58 13 -122 36
-121 43 -191 51 -240 29 -33 -15 -86 -98 -92 -145 -5 -42 16 -79 114 -193 29
-34 53 -67 53 -74 0 -7 -19 -26 -42 -42 -53 -37 -113 -129 -141 -219 -18 -57
-22 -93 -21 -195 0 -149 16 -199 102 -328 58 -86 70 -126 71 -230 1 -72 22
-108 69 -121 53 -15 168 -13 230 3 91 25 132 -5 132 -97 0 -61 25 -155 49
-188 12 -15 21 -36 21 -45 0 -9 -36 -55 -81 -101 -56 -58 -90 -105 -112 -151
-30 -62 -32 -74 -30 -162 2 -167 47 -334 104 -388 27 -25 29 -32 29 -102 0
-89 15 -120 80 -165 40 -28 51 -30 142 -33 l99 -4 -7 -61 c-4 -33 -7 -93 -8
-132 -1 -65 2 -75 29 -109 48 -61 67 -94 77 -139 12 -53 43 -87 79 -87 39 0
42 -12 14 -50 -26 -35 -45 -107 -45 -170 0 -49 -15 -90 -34 -90 -16 0 -122
-110 -187 -195 -25 -33 -81 -113 -124 -177 -43 -65 -81 -118 -84 -118 -3 0
-21 37 -38 83 -41 104 -145 279 -178 301 -40 27 -144 49 -197 43 -142 -17
-246 -120 -350 -346 -22 -47 -46 -113 -55 -146 -32 -125 -119 -262 -274 -433
-185 -204 -191 -221 -229 -643 -26 -277 -27 -370 -5 -429 25 -70 117 -230 151
-264 107 -105 203 -165 346 -215 181 -63 311 -76 416 -40 81 27 109 61 189
224 86 177 114 266 121 388 3 67 8 97 16 93 6 -3 38 -16 71 -30 69 -29 67 -18
30 -166 -26 -104 -50 -279 -60 -435 -9 -139 -21 -205 -53 -272 l-27 -58 3
-242 2 -241 140 -284 c76 -155 142 -295 146 -310 9 -38 -9 -37 -105 6 -70 32
-182 65 -274 81 -53 9 -207 -23 -229 -48 -41 -45 -10 -108 94 -194 43 -36 77
-67 74 -70 -2 -2 -35 11 -72 30 -87 44 -139 58 -168 47 -31 -11 -73 -58 -105
-115 -24 -45 -30 -50 -82 -61 -105 -24 -376 -154 -427 -206 -81 -80 -151 -207
-214 -383 -58 -161 -88 -296 -88 -391 0 -146 53 -384 104 -464 12 -19 34 -60
49 -90 33 -68 135 -205 214 -287 48 -50 81 -71 190 -125 146 -72 197 -85 278
-68 45 9 58 17 70 41 25 47 5 97 -68 175 -58 63 -60 66 -32 60 17 -4 67 -7
113 -8 74 0 86 2 107 22 49 46 26 98 -77 177 l-61 47 68 22 c79 26 95 42 95
96 0 42 -21 67 -85 100 -37 20 -55 21 -236 19 -228 -2 -229 -1 -311 107 -59
78 -76 134 -84 281 -10 165 13 230 141 405 48 67 87 90 187 110 141 29 220 15
234 -41 8 -32 -5 -95 -37 -178 -19 -51 -23 -79 -23 -190 -1 -125 0 -132 29
-189 35 -70 100 -140 138 -150 51 -12 91 15 127 88 32 65 34 88 14 157 -2 8 2
23 9 32 11 16 15 15 53 -13 83 -60 186 -78 225 -39 19 19 21 30 17 98 -5 92
-35 154 -111 233 -54 56 -98 141 -101 190 -1 22 6 36 25 50 31 23 65 25 298
15 121 -5 163 -11 195 -26 37 -17 77 -20 386 -27 190 -4 432 -7 539 -6 315 4
466 -34 533 -136 40 -60 16 -130 -82 -242 -101 -116 -110 -144 -64 -199 43
-52 89 -55 194 -15 71 27 93 16 126 -62 36 -84 105 -160 156 -169 51 -10 100
17 145 78 35 48 38 57 41 132 4 93 -20 248 -48 313 -21 46 -26 107 -11 116 33
21 291 -93 374 -165 59 -51 82 -94 95 -182 6 -37 20 -83 32 -102 21 -34 21
-35 4 -65 -16 -26 -17 -34 -5 -63 7 -17 15 -39 18 -48 6 -22 -84 -153 -168
-243 -69 -74 -72 -76 -118 -76 -46 0 -141 28 -226 66 -31 14 -67 18 -155 18
-99 1 -120 -2 -150 -19 -41 -24 -49 -58 -26 -104 23 -44 87 -92 216 -161 133
-71 154 -88 140 -105 -14 -17 -55 -25 -188 -35 -208 -16 -323 -78 -297 -158
21 -69 103 -107 265 -124 l107 -11 -19 -91 c-10 -50 -17 -109 -16 -131 4 -49
27 -63 121 -72 59 -5 69 -3 127 28 93 49 118 91 140 233 6 38 18 83 26 100 20
40 355 370 364 359 4 -4 17 -37 29 -73 43 -132 139 -261 277 -370 43 -35 71
-67 88 -102 37 -75 34 -85 -16 -49 -41 31 -81 40 -93 22 -3 -6 -25 -13 -50
-17 -69 -10 -68 -24 13 -224 17 -41 43 -106 57 -145 15 -38 49 -119 77 -178
57 -124 58 -149 3 -172 -19 -8 -51 -22 -71 -30 -152 -65 -444 -332 -444 -407
0 -26 127 -85 229 -105 42 -9 101 -27 131 -40 92 -41 153 -60 221 -68 76 -9
107 -23 144 -67 43 -51 131 -243 155 -338 12 -47 42 -147 67 -223 52 -156 80
-197 137 -197 65 0 67 5 207 420 55 162 107 306 115 319 14 20 21 22 57 17 23
-4 97 -25 163 -46 129 -42 251 -67 375 -77 75 -6 77 -5 94 21 30 45 16 107
-44 190 -28 39 -84 121 -125 181 -41 61 -116 157 -168 215 l-94 105 102 155
c56 85 126 200 155 255 29 55 66 118 81 139 36 51 35 72 -4 96 -46 28 -70 25
-210 -21 -210 -70 -299 -55 -183 31 80 59 87 81 94 281 6 162 7 166 34 198 15
18 29 42 32 54 8 32 -29 132 -76 204 -23 34 -42 70 -43 80 0 9 14 27 31 39 32
21 64 31 185 54 66 13 113 42 145 89 30 44 29 91 -2 188 -31 97 -31 107 0 165
14 26 32 73 40 104 8 31 17 59 19 61 2 2 31 -3 64 -11 33 -9 88 -16 122 -16
79 0 110 21 150 101 57 111 55 219 -5 400 -35 105 -36 107 -29 225 7 131 -6
206 -46 257 -27 33 -25 39 12 57 36 17 112 123 129 181 10 30 8 43 -10 84
l-22 49 41 41 c66 67 72 123 24 215 -42 79 -33 90 56 69 102 -23 166 17 213
137 15 39 39 86 52 104 29 40 31 68 9 127 -17 43 -17 44 15 112 18 39 37 98
43 133 14 78 22 88 65 88 86 0 106 42 107 217 l1 132 43 44 c51 52 62 86 62
193 0 49 5 87 13 97 6 9 46 30 87 48 97 40 130 71 130 120 0 73 30 110 59 75
28 -33 131 -31 173 4 22 17 23 25 20 129 -3 124 -2 125 69 218 71 93 91 155
97 300 5 145 2 162 -43 212 l-35 39 35 21 c34 20 35 22 35 84 0 75 13 92 69
92 28 0 53 -12 104 -48 86 -62 98 -79 90 -133 -5 -42 -4 -45 48 -97 35 -35 58
-68 67 -96 27 -90 80 -141 148 -141 17 0 32 -14 57 -52 18 -29 59 -72 90 -96
67 -52 79 -70 101 -147 10 -33 31 -81 47 -106 16 -25 33 -70 39 -99 13 -71 32
-97 77 -109 20 -6 79 -36 132 -68 l96 -58 96 -3 c70 -3 104 0 125 11 16 8 50
18 76 21 26 4 54 13 61 20 47 48 121 59 387 61 213 1 241 3 301 23 122 41 200
113 299 280 80 137 213 500 240 657 6 39 16 93 21 120 6 28 11 145 11 260 1
175 -2 223 -18 285 -17 68 -19 114 -19 475 1 564 7 592 140 662 44 24 92 57
107 75 37 42 52 122 45 228 -12 162 -59 258 -151 310 -33 19 -64 46 -78 68
-38 63 -88 110 -126 123 -59 19 -65 27 -57 78 4 25 13 60 20 77 12 29 19 33
67 39 67 8 108 24 108 41 0 17 35 35 140 69 99 33 152 77 169 140 5 22 17 107
25 189 9 82 20 154 24 160 19 23 22 67 8 100 -30 71 -152 180 -216 192 -17 4
-34 12 -38 18 -4 6 -10 58 -13 116 -4 91 -10 115 -37 174 -42 89 -103 174
-202 281 -89 96 -121 144 -149 228 -11 31 -40 94 -64 139 -63 117 -72 163 -72
368 l0 175 47 115 c61 147 74 207 58 268 -15 61 -39 95 -124 174 l-71 67 23
88 c13 48 45 140 72 203 96 223 113 304 113 515 0 98 -3 139 -16 166 -9 20
-19 60 -23 89 -15 110 -64 130 -315 130 l-149 0 -76 -70 c-62 -58 -81 -70
-108 -70 -19 0 -119 27 -222 59 -335 105 -500 128 -785 111z m361 -126 c111
-13 164 -25 260 -57 143 -49 302 -97 352 -107 66 -13 93 -3 168 62 84 74 110
83 247 83 144 0 161 -9 170 -89 10 -81 -28 -101 -209 -116 -153 -12 -341 1
-413 29 -102 39 -411 99 -427 83 -15 -15 77 -45 272 -90 335 -77 489 -90 723
-59 l97 13 0 -40 c0 -62 -19 -217 -31 -256 -6 -19 -36 -90 -65 -158 -70 -159
-94 -247 -94 -343 l0 -77 -92 -6 c-51 -3 -158 -8 -237 -12 -79 -3 -168 -10
-198 -14 -30 -5 -60 -7 -68 -4 -28 11 -45 85 -55 237 -10 170 -17 203 -59 269
-37 58 -69 69 -285 98 -350 48 -518 109 -649 238 -63 61 -91 107 -102 163 l-6
35 133 17 c73 10 165 20 203 23 107 8 135 14 135 28 0 18 -44 26 -149 27 -47
1 -97 4 -111 8 -22 7 -18 9 30 19 107 23 252 22 460 -4z m-2995 -134 c230 -21
373 -52 429 -93 27 -20 34 -71 56 -387 11 -162 24 -342 30 -399 5 -58 10 -119
10 -137 l0 -33 -52 24 c-105 48 -263 41 -363 -15 l-51 -28 -31 28 c-50 45
-137 73 -208 67 -84 -8 -145 -22 -198 -48 l-46 -22 -60 27 c-89 40 -175 45
-281 15 -101 -27 -159 -29 -220 -5 -55 22 -142 16 -267 -16 -73 -19 -88 -20
-116 -9 -92 37 -146 53 -214 64 -66 10 -74 14 -80 37 -4 14 -1 101 6 195 31
440 78 697 134 727 12 6 103 14 202 19 250 10 1174 3 1320 -11z m-4266 -9 c27
-15 31 -73 31 -437 l0 -321 -31 -7 c-48 -9 -82 -7 -195 11 l-104 17 1 195 c1
256 12 532 23 550 7 11 33 13 133 8 68 -4 132 -11 142 -16z m1024 -1 c3 -3 7
-74 9 -157 l3 -153 -312 0 -313 0 0 38 c1 82 19 229 31 256 l13 28 283 -4
c155 -2 284 -6 286 -8z m300 -9 c43 -10 80 -21 83 -24 3 -3 0 -49 -6 -104 -7
-59 -15 -348 -19 -725 -4 -409 -10 -631 -17 -638 -12 -12 -224 6 -239 21 -16
16 -25 298 -28 849 -2 611 -5 594 78 622 62 21 55 21 148 -1z m-1021 -343 c5
-346 4 -353 -16 -376 -47 -52 -133 -89 -161 -68 -20 15 -34 219 -35 511 0 197
7 261 32 277 7 4 50 8 94 8 l82 0 4 -352z m1651 316 c23 -4 42 -15 49 -27 16
-31 23 -237 9 -279 -11 -32 -16 -36 -58 -42 -25 -3 -147 -6 -271 -6 l-225 0 5
113 c3 63 13 141 24 180 l18 67 206 0 c113 0 222 -3 243 -6z m637 -11 c0 -41
-103 -700 -111 -707 -2 -2 -82 -6 -178 -8 l-174 -5 5 349 c3 192 9 352 13 356
3 4 102 9 218 13 117 3 215 6 220 7 4 1 7 -1 7 -5z m3632 -205 c55 -111 113
-183 167 -209 25 -11 73 -38 105 -58 67 -41 65 -41 431 -31 253 7 266 -1 286
-166 14 -110 -3 -302 -32 -376 -20 -51 -20 -55 -5 -202 23 -217 21 -351 -7
-461 -20 -78 -27 -92 -51 -104 -38 -18 -136 -3 -281 43 -127 41 -186 45 -276
16 -34 -10 -66 -17 -69 -15 -4 3 -3 27 2 55 9 53 -1 109 -30 165 -23 45 -131
153 -182 184 -41 23 -55 26 -145 26 -131 -1 -175 -15 -240 -76 -66 -62 -75
-93 -75 -254 l0 -127 -22 7 c-45 14 -124 17 -163 6 -22 -6 -64 -29 -94 -51
-29 -22 -64 -40 -78 -40 -16 0 -44 18 -80 53 -51 48 -59 52 -102 51 -32 -1
-77 -15 -146 -46 -148 -67 -173 -73 -209 -46 l-30 21 -165 -43 c-219 -56 -221
-57 -221 -34 0 33 -42 74 -85 84 -22 5 -114 10 -205 11 -166 2 -337 13 -290
19 14 2 251 4 527 4 275 1 505 5 510 9 15 16 1 387 -27 707 -15 161 -37 352
-62 510 -11 74 -22 204 -25 288 l-6 152 669 0 670 0 36 -72z m358 8 c68 -58
197 -139 249 -157 17 -6 31 -14 31 -19 0 -4 -42 -17 -93 -30 l-93 -22 -79 32
c-127 51 -141 59 -211 132 -76 79 -75 86 9 104 102 23 117 19 187 -40z m-5564
-141 c15 -21 19 -161 5 -183 -17 -27 -565 -43 -590 -17 -5 6 -13 51 -16 101
-7 89 -7 92 14 99 47 15 204 23 385 21 171 -2 190 -4 202 -21z m942 -75 c42
-15 52 -36 52 -104 l0 -56 -244 0 c-135 0 -256 4 -270 10 -34 13 -59 64 -52
105 7 35 19 50 51 58 36 11 429 -1 463 -13z m5475 -92 c56 -24 102 -73 117
-125 24 -84 39 -323 22 -351 -7 -9 -29 -10 -100 -3 -94 10 -126 20 -135 45
-12 31 -19 411 -8 439 12 31 17 31 104 -5z m-6396 -475 c-5 -397 -9 -437 -53
-453 -28 -11 -436 -14 -495 -4 -31 5 -38 11 -43 37 -9 43 -24 316 -31 570 l-7
217 317 0 317 0 -5 -367z m969 335 c4 -4 2 -171 -4 -371 -12 -424 -14 -432
-84 -439 -62 -6 -431 12 -441 21 -5 5 -13 40 -18 77 -13 99 -22 567 -12 644 7
57 11 65 33 72 32 9 516 5 526 -4z m-1903 -197 c46 -11 49 -13 41 -35 -11 -27
-55 -44 -150 -56 -124 -15 -134 -21 -134 -69 0 -53 8 -71 38 -82 19 -7 33 -4
67 15 23 14 66 35 96 46 61 24 88 47 131 107 29 44 81 79 98 68 6 -3 10 -43
10 -89 0 -70 -3 -86 -20 -101 -12 -11 -20 -31 -20 -48 0 -24 -11 -42 -49 -78
-57 -55 -182 -108 -273 -116 -50 -5 -62 -2 -111 26 -52 30 -56 35 -64 79 -4
26 -7 96 -8 155 l0 109 30 24 c17 13 48 30 70 38 45 16 190 20 248 7z m2645
-129 c27 -10 82 -40 123 -67 l74 -48 30 18 c110 66 131 75 181 75 60 0 137
-24 181 -56 41 -31 49 -30 105 5 67 42 129 61 204 61 70 0 107 -12 168 -54 50
-34 62 -33 114 8 76 61 187 70 293 25 26 -11 56 -31 68 -45 26 -30 61 -31 98
0 46 38 97 49 192 43 47 -4 109 -13 136 -20 48 -12 51 -16 82 -78 17 -35 33
-80 35 -99 l3 -35 -443 2 c-475 2 -1006 17 -1217 34 -71 6 -186 22 -255 36
-69 13 -163 27 -210 30 -111 7 -122 14 -115 61 12 71 15 82 37 102 27 25 54
25 116 2z m5602 -86 c64 -17 104 -55 120 -117 13 -47 4 -81 -34 -140 -38 -57
-46 -100 -63 -361 l-17 -247 71 -148 c68 -140 104 -232 118 -297 4 -20 53 -75
155 -176 97 -94 155 -160 166 -186 25 -57 31 -228 11 -277 -31 -73 -124 -84
-266 -33 -36 14 -110 40 -164 59 -63 23 -118 51 -158 81 -34 26 -76 48 -97 51
-75 13 -132 37 -175 75 -24 22 -87 60 -138 85 -52 25 -105 52 -119 59 -14 8
-43 19 -66 25 -24 6 -65 32 -103 66 -114 98 -269 177 -345 177 -22 -1 -48 4
-57 9 -26 14 -63 83 -90 165 l-22 71 52 64 c62 77 102 155 137 269 63 209 72
382 29 560 -29 118 -29 119 47 142 30 9 48 8 90 -5 29 -9 67 -18 83 -19 l30
-3 6 -80 c7 -91 31 -185 61 -233 30 -48 20 -118 -40 -292 -27 -80 -53 -166
-57 -190 -10 -60 -18 -74 -88 -150 -80 -87 -117 -146 -117 -188 0 -46 16 -38
66 34 23 32 68 79 100 104 69 54 104 113 104 180 0 68 22 143 75 265 63 144
65 189 11 293 -46 92 -55 154 -27 199 39 62 145 104 308 123 107 12 336 4 403
-14z m-5330 -176 c212 -17 534 -35 715 -40 429 -13 663 -25 913 -47 l204 -17
-4 -168 c-2 -115 -7 -171 -15 -179 -10 -10 -184 -10 -835 0 -939 14 -1045 19
-1107 50 -62 32 -218 81 -256 81 -18 0 -47 -8 -63 -17 -26 -15 -32 -15 -47 -3
-16 13 -17 27 -11 115 7 117 30 235 48 247 19 12 39 11 458 -22z m3151 -230
c125 -38 186 -107 196 -219 l6 -60 -59 -61 c-32 -34 -85 -79 -117 -101 l-59
-39 -48 26 c-123 67 -170 140 -170 263 0 85 13 143 36 161 12 11 119 46 145
49 4 1 35 -8 70 -19z m-6696 -229 c28 -16 102 -67 165 -115 141 -106 155 -108
251 -40 90 64 152 94 219 106 68 12 86 4 168 -66 30 -26 59 -43 65 -39 7 3 31
19 55 35 71 48 123 68 183 68 49 0 65 -5 108 -35 l52 -34 75 39 c41 22 85 40
97 40 33 0 79 -32 122 -84 l37 -46 38 30 c47 38 100 60 140 60 52 0 99 -27
179 -103 121 -117 152 -130 194 -81 26 31 111 72 215 103 l74 22 43 -40 c24
-22 59 -47 78 -55 37 -15 38 -17 52 -146 18 -157 76 -291 184 -420 77 -92 84
-106 79 -166 l-3 -39 -87 -31 c-48 -17 -99 -39 -113 -48 -34 -23 -65 -74 -65
-109 0 -24 4 -28 23 -25 14 2 23 11 25 25 4 26 53 70 99 90 37 15 226 18 287
4 81 -19 154 -125 142 -206 -13 -82 27 -242 62 -253 15 -5 16 49 2 98 -6 19
-11 70 -11 112 -1 149 74 242 196 242 79 0 175 -58 209 -125 17 -35 34 -34 53
3 63 118 293 258 426 258 54 0 137 -24 199 -58 53 -28 85 -72 143 -194 21 -43
39 -78 42 -78 3 0 38 31 79 68 80 74 148 113 241 137 106 28 164 30 241 6 68
-20 95 -41 128 -97 10 -17 15 -15 74 24 80 54 153 75 239 70 55 -3 74 -9 114
-37 63 -43 119 -100 111 -112 -3 -5 -46 -29 -96 -54 -200 -98 -288 -210 -333
-427 -20 -93 -19 -114 9 -175 30 -63 83 -122 197 -219 92 -78 112 -110 107
-170 l-3 -38 -66 -12 c-36 -7 -94 -26 -128 -44 -47 -23 -66 -28 -76 -20 -7 6
-44 69 -81 141 -90 172 -121 207 -241 266 -88 44 -102 48 -167 48 -63 0 -77
-4 -122 -32 -28 -18 -58 -33 -66 -33 -9 0 -28 20 -42 44 -54 93 -116 124 -335
168 -101 20 -105 20 -137 3 -50 -27 -189 -165 -208 -206 -9 -20 -38 -61 -63
-90 -25 -30 -70 -87 -100 -126 -68 -92 -96 -117 -150 -138 l-43 -17 -48 39
c-80 67 -125 93 -160 93 -43 0 -34 -13 28 -45 52 -26 99 -69 165 -148 48 -58
77 -66 85 -22 7 38 80 89 147 103 42 9 53 8 96 -13 78 -40 138 -85 159 -121
23 -39 68 -49 68 -14 0 52 -170 180 -265 200 -30 6 -57 15 -60 20 -3 4 37 54
89 111 56 61 97 115 100 131 7 38 131 159 191 188 36 18 57 21 93 17 86 -10
181 -46 222 -83 45 -41 106 -129 115 -167 4 -15 11 -30 16 -33 14 -8 50 15
112 74 l58 54 59 -6 c159 -18 221 -72 355 -311 80 -142 110 -185 132 -185 8 0
38 20 65 45 64 58 108 70 201 55 99 -15 218 -48 255 -70 34 -21 66 -74 58 -96
-7 -19 -90 -18 -181 1 -109 23 -129 21 -173 -23 -21 -21 -55 -72 -76 -112 -21
-41 -43 -78 -49 -82 -6 -3 -36 11 -66 33 -81 56 -287 123 -356 116 -61 -6
-207 -63 -266 -105 -97 -67 -185 -178 -249 -315 -45 -96 -52 -161 -23 -222 12
-26 14 -38 6 -46 -9 -9 -20 2 -43 39 -38 62 -102 97 -200 111 -44 5 -68 14
-75 26 -54 90 -67 106 -114 130 -28 14 -56 25 -64 25 -44 0 -118 34 -172 80
-32 27 -65 50 -72 50 -7 0 -20 8 -30 19 -10 10 -38 21 -64 25 -36 5 -53 15
-85 49 -48 51 -98 76 -168 86 -56 8 -104 30 -127 57 -8 10 -38 32 -66 51 -30
19 -55 43 -58 56 -4 13 4 50 16 83 17 45 37 74 86 121 34 33 63 64 63 67 0 3
-13 6 -30 6 -43 0 -124 -85 -180 -190 -33 -62 -50 -85 -64 -85 -11 0 -57 27
-102 60 -63 45 -83 66 -83 84 -1 13 21 65 48 115 52 97 81 179 81 232 0 45
-45 184 -89 274 -43 89 -135 190 -215 239 -31 19 -100 49 -154 68 -121 42
-188 41 -284 -4 -35 -17 -75 -33 -89 -37 -84 -19 -246 -272 -285 -441 -27
-121 -29 -128 -40 -132 -6 -2 -28 9 -50 24 -59 40 -101 52 -191 53 -91 0 -126
10 -163 45 -40 38 -95 55 -221 69 -117 13 -128 17 -190 67 -22 17 -46 22 -161
28 -125 7 -140 10 -184 37 -27 16 -62 35 -78 41 -39 18 -132 16 -182 -3 -38
-14 -44 -14 -73 1 -23 11 -78 19 -189 25 -87 5 -165 12 -175 15 -23 9 -142
-12 -192 -34 -48 -21 -73 -13 -98 29 -20 34 -21 50 -4 74 12 17 17 17 92 0
114 -24 366 -25 415 -1 93 47 112 61 159 118 65 82 108 169 120 248 6 36 15
69 21 75 17 17 12 51 -20 138 -54 147 -51 245 10 303 29 28 30 28 86 16 51
-12 140 -53 270 -126 54 -30 84 -29 84 3 0 11 -7 25 -15 32 -27 22 -18 64 25
113 57 64 87 72 184 47 151 -38 265 -123 371 -275 64 -92 85 -115 106 -115 11
0 19 11 23 34 4 21 19 45 37 60 38 32 127 59 166 50 80 -19 174 -88 346 -252
133 -126 160 -147 182 -138 21 8 19 24 -6 31 -35 11 -96 73 -160 162 -66 90
-200 216 -257 240 -26 11 -63 14 -137 11 -97 -3 -105 -5 -160 -39 l-58 -36
-49 55 c-65 74 -105 107 -226 187 -146 96 -209 111 -312 78 -74 -24 -130 -77
-137 -130 -3 -24 -7 -43 -10 -43 -2 0 -29 13 -61 29 -78 39 -181 70 -261 77
l-66 6 -18 -43 c-9 -24 -26 -59 -38 -78 l-21 -35 -42 45 c-52 57 -114 99 -208
144 -63 31 -82 35 -148 35 -42 0 -102 -5 -134 -11 -32 -6 -68 -8 -80 -5 -27 7
-169 127 -192 162 -15 21 -15 31 -5 66 12 40 13 40 52 34 65 -10 234 -72 302
-110 35 -20 73 -36 85 -36 11 0 32 14 46 31 42 50 36 87 -44 248 -65 132 -80
178 -63 194 10 10 14 9 68 -22z m3298 0 c24 -24 33 -688 11 -778 -4 -14 -18
-26 -37 -32 -41 -13 -159 -32 -165 -26 -2 2 -1 193 3 424 l7 420 37 4 c50 6
133 -1 144 -12z m-282 -38 c11 -13 15 -85 17 -352 3 -361 -1 -414 -34 -419
-31 -4 -116 58 -137 100 -24 49 -40 243 -35 434 4 176 5 179 103 225 70 34 69
34 86 12z m421 -100 c37 -40 77 -125 89 -190 20 -108 -26 -261 -109 -362 l-37
-45 -7 54 c-8 61 7 526 18 553 9 23 16 22 46 -10z m3907 -53 c83 -28 166 -50
190 -50 49 0 51 -10 10 -44 -34 -29 -34 -29 -139 -31 -111 -2 -150 -26 -253
-156 -20 -26 -48 -50 -63 -53 -15 -4 -38 -16 -52 -26 -28 -23 -37 -20 -124 47
-31 24 -79 55 -107 68 -41 21 -52 32 -61 63 -12 42 -7 48 104 122 48 33 67 40
108 40 37 0 68 9 121 35 39 19 81 35 94 35 13 0 91 -22 172 -50z m-1545 -32
c9 -12 16 -30 16 -39 0 -29 28 -41 114 -50 47 -5 103 -16 125 -25 23 -9 47
-14 54 -11 8 3 24 33 36 67 24 67 50 87 95 76 30 -7 176 -142 176 -162 0 -7
-13 -20 -30 -29 -33 -17 -36 -28 -44 -166 -3 -48 -15 -130 -26 -184 -11 -53
-20 -117 -20 -140 0 -57 52 -148 133 -235 80 -84 95 -117 79 -176 -24 -90 -10
-177 40 -246 10 -14 8 -26 -11 -65 -29 -60 -45 -222 -38 -370 6 -114 11 -127
75 -198 73 -81 101 -165 62 -186 -46 -26 -342 -159 -370 -166 -20 -5 -53 -5
-81 1 -37 8 -61 6 -108 -7 -75 -21 -86 -16 -135 67 -39 66 -45 116 -22 191 10
36 16 41 58 52 162 40 271 156 313 334 21 91 19 154 -11 255 -62 216 -154 301
-392 363 l-107 28 -28 49 c-34 58 -82 111 -117 128 -69 36 -290 25 -362 -18
l-43 -25 -82 41 -82 40 -123 1 c-141 0 -142 0 -321 -100 -96 -54 -121 -64
-128 -52 -5 8 -27 43 -48 79 -72 120 -127 151 -281 158 -198 8 -353 -47 -454
-160 l-55 -62 -44 41 c-51 48 -96 63 -183 63 -55 0 -68 -4 -110 -35 -86 -61
-98 -66 -122 -49 -27 19 -35 63 -25 143 l8 64 78 18 c91 22 122 37 158 76 37
39 122 161 160 228 50 88 76 230 54 293 -11 34 22 29 126 -18 138 -62 181 -55
338 58 l64 45 366 -6 366 -7 25 -33 c55 -72 97 -107 128 -107 16 0 35 7 42 15
7 8 69 33 139 56 l126 41 48 -52 47 -52 38 30 c91 72 238 150 284 152 9 0 24
-10 32 -22z m817 -241 c-7 -20 -19 -41 -27 -48 -37 -31 -47 -70 -40 -162 8
-104 28 -160 66 -187 59 -42 125 -15 184 74 34 51 33 69 -9 152 -40 79 -47
121 -16 105 30 -17 112 -102 121 -127 5 -13 31 -34 61 -49 60 -31 60 -31 -1
-165 -22 -47 -42 -104 -46 -127 -10 -64 -21 -73 -120 -93 -49 -11 -111 -26
-139 -34 -27 -9 -55 -16 -61 -16 -19 0 -105 94 -162 178 l-56 82 21 68 c26 81
43 171 43 228 0 75 10 104 44 121 55 28 131 52 140 43 4 -4 3 -24 -3 -43z
m869 27 c36 -31 68 -91 99 -186 26 -77 59 -112 124 -128 163 -41 277 -100 277
-144 0 -41 50 -71 173 -105 104 -28 193 -70 291 -136 45 -30 122 -69 173 -88
90 -34 152 -67 204 -108 14 -11 45 -25 69 -30 24 -5 92 -33 152 -61 107 -49
112 -50 198 -49 86 0 267 18 282 28 22 13 158 -79 158 -106 0 -5 -7 -22 -15
-37 -9 -17 -15 -56 -15 -94 0 -94 -19 -279 -31 -301 -6 -12 -21 -19 -41 -19
-17 0 -39 -7 -48 -15 -9 -8 -40 -19 -69 -25 -29 -5 -64 -19 -78 -30 -34 -26
-104 -26 -234 0 -119 25 -167 42 -324 120 -93 47 -145 66 -231 85 -113 24
-154 39 -210 75 -16 11 -61 24 -99 29 -51 8 -79 18 -109 41 -23 16 -59 40 -80
51 -21 12 -50 31 -63 43 -13 13 -97 60 -186 105 -89 46 -216 118 -282 161 -66
42 -149 92 -184 110 -36 18 -78 42 -93 53 -41 31 -94 113 -116 183 -28 86 -56
256 -48 288 4 15 24 46 45 69 21 23 43 57 49 75 15 43 79 139 105 157 12 9 44
15 73 15 42 0 59 -5 84 -26z m-7390 -270 c50 -26 111 -65 136 -87 47 -42 104
-129 104 -161 0 -20 5 -21 -167 4 -72 10 -447 9 -583 -2 -33 -3 -35 -1 -38 29
-4 41 15 77 74 137 93 94 167 124 306 125 72 1 82 -2 168 -45z m6991 -225 c22
-102 36 -143 77 -222 43 -84 111 -147 221 -207 45 -25 117 -67 159 -94 42 -27
149 -88 237 -136 88 -48 214 -121 279 -163 66 -43 126 -77 134 -77 8 0 74 -26
146 -59 72 -32 165 -66 206 -76 121 -28 167 -44 315 -110 77 -34 164 -70 192
-79 30 -10 62 -29 73 -43 26 -34 26 -92 -1 -145 -12 -23 -119 -142 -243 -268
-122 -125 -230 -243 -239 -263 -12 -24 -22 -92 -32 -219 -14 -176 -24 -232
-59 -328 -21 -55 -58 -120 -83 -142 -17 -16 -21 -15 -61 12 -24 16 -62 32 -85
35 -23 3 -200 9 -393 13 l-351 8 -66 37 c-70 40 -114 46 -151 22 -22 -15 -28
-13 -102 26 -109 58 -172 89 -183 89 -21 0 -34 35 -36 94 -4 109 -72 225 -90
153 -7 -26 8 -71 30 -93 21 -21 19 -53 -5 -78 -12 -12 -31 -34 -44 -51 -21
-26 -27 -29 -52 -20 -22 8 -40 30 -72 90 -49 92 -64 110 -86 102 -25 -10 -19
-49 19 -144 20 -48 33 -92 31 -98 -2 -6 -52 -44 -112 -85 -59 -41 -136 -101
-172 -133 -80 -73 -170 -140 -211 -156 -38 -16 -61 -2 -61 39 0 14 -14 48 -31
73 -33 50 -56 63 -44 25 14 -44 17 -154 5 -197 -6 -23 -26 -59 -44 -78 -31
-34 -36 -36 -118 -43 -85 -6 -87 -8 -137 -52 -50 -45 -83 -58 -148 -58 -56 0
-73 15 -73 63 0 23 -8 80 -19 127 -11 47 -24 126 -30 175 -5 50 -20 117 -33
150 -22 57 -23 72 -22 270 2 335 23 470 87 550 l27 33 77 -4 c43 -3 108 -12
145 -20 70 -15 87 -12 128 18 24 17 118 48 148 48 24 0 15 -150 -14 -237 -24
-72 -27 -95 -31 -296 -3 -121 -2 -261 2 -313 6 -81 9 -94 25 -94 32 0 44 51
34 143 -16 144 -11 385 8 442 10 28 24 92 32 143 8 51 23 107 33 124 26 45
121 106 318 204 256 127 318 135 543 62 284 -90 415 -149 691 -312 98 -58 182
-106 185 -106 3 0 6 15 6 34 0 27 -9 42 -45 75 -65 60 -197 143 -359 227 -198
102 -298 141 -476 185 -85 22 -158 43 -164 49 -5 5 -2 23 8 45 10 19 27 82 38
138 23 114 25 222 18 777 -5 284 -3 321 13 374 21 68 45 108 61 103 6 -2 18
-37 27 -78z m-6928 -99 c34 -11 82 -25 106 -31 63 -15 101 -56 101 -109 0 -23
-5 -50 -10 -60 -10 -18 -12 -18 -68 1 -92 32 -276 60 -432 66 -127 5 -156 3
-229 -16 -47 -11 -88 -21 -93 -21 -4 0 -8 33 -8 74 0 88 -11 81 150 95 178 17
188 18 308 19 90 2 126 -2 175 -18z m6690 -148 c28 -30 69 -143 69 -188 0 -23
-10 -60 -21 -83 l-21 -41 -58 6 c-32 4 -76 1 -99 -5 -54 -15 -88 0 -114 51
-24 47 -24 69 0 116 10 20 24 56 30 80 l12 42 58 0 c44 0 65 5 82 20 30 24 42
25 62 2z m-6781 -53 c90 -11 177 -33 225 -55 64 -31 51 -91 -30 -139 -60 -35
-125 -53 -242 -66 -88 -11 -104 -10 -132 4 -18 10 -52 17 -75 17 -66 0 -125
35 -190 114 -32 38 -58 75 -58 83 0 52 253 73 502 42z m5668 -288 c75 -12 184
-21 246 -21 99 0 114 -2 139 -22 25 -20 43 -50 59 -105 l7 -23 -204 0 -204 0
-54 29 c-31 16 -84 33 -124 40 -109 17 -149 59 -103 108 26 28 11 28 238 -6z
m-3174 -24 c74 -39 256 -236 270 -293 8 -31 -7 -49 -65 -79 l-46 -23 -52 54
c-28 30 -60 54 -71 54 -11 0 -53 -16 -93 -35 -80 -38 -88 -37 -147 18 -22 22
-42 31 -65 31 -37 -1 -134 -44 -178 -81 l-30 -25 -41 28 c-62 43 -65 59 -27
138 52 107 150 184 282 221 69 20 220 15 263 -8z m4295 -25 c74 -48 74 -49 73
-201 -2 -197 -32 -397 -64 -426 -36 -33 -96 -23 -121 20 -13 22 -29 35 -41 35
-25 0 -108 80 -108 104 0 9 16 26 35 37 42 25 47 60 13 97 -21 21 -23 33 -23
132 0 94 3 111 20 130 21 23 143 99 161 100 5 0 30 -13 55 -28z m-1208 -122
c70 -26 127 -73 127 -104 0 -13 -9 -31 -21 -42 -19 -17 -37 -19 -158 -19 -172
0 -193 10 -216 108 -3 13 3 36 15 56 l21 34 87 -6 c54 -3 109 -13 145 -27z
m-5055 -69 c12 -6 42 -29 67 -51 55 -47 85 -57 126 -40 37 16 170 16 198 0 12
-6 35 -39 52 -73 17 -34 33 -63 34 -65 2 -2 27 13 56 33 35 24 60 35 74 31 11
-3 49 -12 84 -20 52 -12 72 -23 107 -57 l44 -43 116 -5 c112 -6 117 -7 137
-34 69 -88 61 -82 90 -63 14 10 38 16 54 14 23 -3 33 -15 68 -83 29 -58 51
-88 82 -110 23 -16 42 -33 42 -37 1 -11 -61 -28 -106 -28 -60 0 -96 23 -128
82 -32 58 -47 60 -125 18 -77 -41 -99 -39 -147 13 -21 23 -50 61 -63 84 -13
23 -30 45 -38 48 -8 3 -40 1 -71 -5 -31 -6 -87 -10 -126 -8 -67 3 -70 4 -92
38 -52 82 -37 76 -156 59 -59 -8 -113 -12 -121 -7 -8 4 -26 28 -40 52 -37 64
-55 66 -149 17 l-79 -41 -61 45 c-42 31 -70 45 -93 45 -36 0 -81 -32 -94 -66
-7 -18 -19 -24 -65 -29 -48 -6 -61 -4 -83 12 -67 50 -98 197 -51 244 52 52
134 63 185 24 38 -29 61 -31 93 -9 56 40 122 45 179 15z m5503 19 c65 -12 89
-37 89 -90 0 -27 -8 -48 -26 -70 -26 -30 -26 -31 -8 -51 17 -18 17 -23 4 -46
-32 -57 -62 -68 -176 -67 l-105 1 28 -29 c27 -29 28 -30 9 -44 -30 -21 -141
-18 -194 6 -24 11 -41 24 -38 28 3 5 35 12 71 15 36 2 69 8 72 11 15 15 -17
21 -133 26 l-123 5 -66 65 c-36 35 -65 69 -65 73 0 6 57 7 138 2 122 -6 144
-4 193 13 l55 19 75 -30 c87 -35 199 -49 199 -25 0 24 -23 37 -76 44 -55 8
-98 26 -131 57 -30 27 -29 43 3 63 46 31 121 40 205 24z m-3781 -175 c15 -8
45 -35 65 -59 52 -64 72 -68 112 -20 29 36 36 39 82 39 40 0 58 -6 95 -32 54
-39 64 -39 133 -13 52 19 53 19 63 1 27 -51 1 -157 -59 -245 -42 -61 -67 -76
-151 -92 -38 -7 -85 -20 -103 -29 -30 -14 -42 -14 -148 4 -231 39 -384 127
-429 249 -24 63 -27 140 -5 148 8 3 29 -4 46 -17 49 -34 86 -30 158 20 52 35
91 56 109 60 2 1 16 -6 32 -14z m-1534 -174 c58 -53 110 -76 152 -67 89 18 86
19 132 -17 79 -60 107 -70 221 -77 117 -7 129 -12 207 -93 l43 -44 -43 -26
c-108 -63 -178 -139 -178 -192 0 -63 44 -74 60 -15 14 50 93 130 166 166 42
20 65 25 106 22 l53 -3 5 38 c6 45 19 49 40 12 9 -15 40 -42 70 -59 78 -44
149 -43 244 2 120 56 173 35 195 -77 16 -81 33 -94 134 -100 87 -6 105 -14
167 -71 74 -67 199 -103 230 -65 29 35 52 18 143 -105 l33 -45 89 -8 c90 -9
90 -9 142 -58 57 -54 141 -99 186 -99 27 0 46 -15 80 -64 28 -40 90 -67 170
-73 69 -6 74 -7 115 -51 23 -25 42 -48 42 -51 0 -13 56 -39 100 -46 77 -12
110 -32 201 -120 73 -70 96 -87 143 -100 57 -17 66 -25 127 -113 33 -48 79
-72 134 -72 38 0 85 -35 85 -63 0 -29 63 -99 130 -143 39 -26 70 -48 70 -49 0
-1 -19 -14 -43 -29 -48 -31 -84 -78 -93 -122 -7 -37 29 -85 87 -115 26 -13 39
-26 39 -40 0 -27 -41 -66 -95 -90 -25 -11 -45 -26 -45 -32 0 -7 13 -28 28 -47
35 -41 58 -36 68 16 5 29 13 39 43 51 54 23 138 12 204 -26 70 -40 145 -59
268 -67 83 -6 106 -11 128 -29 38 -32 66 -45 96 -45 43 0 62 -16 105 -90 23
-38 62 -87 86 -110 40 -37 61 -49 136 -78 17 -7 37 -32 59 -72 32 -60 75 -102
135 -133 78 -40 196 -238 273 -457 22 -63 48 -137 58 -163 18 -47 18 -49 -2
-63 -17 -13 -18 -18 -7 -46 6 -17 10 -33 8 -35 -11 -11 -76 64 -118 133 -25
44 -58 89 -72 101 -14 13 -26 29 -26 36 0 19 -39 59 -51 52 -19 -12 -10 -177
16 -283 14 -57 25 -123 25 -147 0 -53 -23 -74 -114 -105 -117 -39 -136 -68
-136 -210 0 -104 -9 -130 -47 -130 -65 0 -80 -69 -43 -202 11 -40 20 -90 20
-111 0 -32 -4 -39 -27 -48 -35 -14 -307 -6 -346 10 -15 6 -45 28 -65 48 -21
21 -57 50 -79 65 -31 20 -50 45 -77 100 -86 175 -47 259 127 276 54 4 60 8 82
41 12 20 55 72 94 116 82 92 100 132 132 296 18 95 19 121 10 168 -30 151
-162 342 -304 442 -121 85 -208 97 -386 54 -286 -69 -405 -223 -388 -498 6
-100 45 -249 79 -307 12 -19 70 -84 128 -145 109 -112 140 -150 140 -171 0 -7
-24 -15 -57 -18 -32 -4 -72 -9 -88 -12 -27 -5 -33 -1 -47 29 -26 55 -164 231
-220 282 -29 26 -84 63 -123 83 -59 30 -83 36 -160 41 l-89 6 -38 50 c-63 83
-82 129 -75 187 7 60 17 73 65 89 55 18 201 93 249 128 29 21 51 50 72 93 60
126 102 321 87 402 -4 20 -30 70 -58 112 -33 48 -54 91 -58 117 -3 23 -11 41
-17 40 -16 -3 -26 70 -18 124 9 63 38 89 107 97 31 4 85 4 120 1 58 -6 62 -5
44 9 -11 9 -45 25 -75 37 -105 39 -173 13 -242 -94 -43 -66 -46 -87 -24 -140
20 -47 19 -57 -3 -57 -60 0 -202 73 -202 104 0 27 -61 133 -95 166 l-37 35
-21 -27 c-12 -15 -37 -67 -56 -115 -48 -123 -82 -170 -146 -199 -28 -13 -72
-27 -97 -30 -43 -6 -45 -5 -58 25 -7 17 -15 31 -19 31 -4 0 -46 33 -93 73
-160 134 -218 148 -352 84 l-79 -37 7 41 c4 22 13 50 20 62 7 12 16 44 20 71
4 35 16 63 41 94 19 25 35 51 35 58 0 7 10 16 23 20 52 16 205 161 238 227 43
82 33 332 -16 427 -22 43 -98 106 -151 124 -92 33 -114 46 -134 78 -11 18 -20
47 -20 64 0 35 -41 123 -71 150 -25 22 -118 30 -175 15 -56 -15 -85 -50 -95
-112 -9 -58 -45 -111 -91 -135 -20 -10 -73 -19 -147 -24 -74 -4 -127 -13 -147
-23 -37 -19 -80 -67 -102 -114 -19 -39 -27 -41 -43 -10 -45 86 -152 174 -303
248 -101 50 -141 58 -192 39 -32 -13 -39 -9 -149 88 -44 39 -89 76 -100 81
-11 5 -54 25 -95 45 -217 104 -362 -19 -370 -314 -4 -116 -2 -128 31 -165 28
-32 59 -46 59 -27 0 4 -7 52 -15 107 -27 185 -13 276 50 340 44 44 85 51 166
31 107 -28 147 -54 287 -188 74 -71 140 -127 146 -125 6 2 13 16 16 32 9 48
30 52 103 21 97 -41 218 -119 266 -171 68 -74 92 -137 125 -325 20 -110 82
-240 129 -268 17 -11 61 -32 97 -47 36 -15 91 -43 123 -62 32 -19 73 -39 91
-44 35 -10 48 -31 61 -96 8 -39 -3 -61 -71 -139 -30 -33 -62 -80 -74 -105 -37
-83 -18 -273 31 -300 31 -16 34 -4 16 55 -23 71 -21 144 4 212 25 67 91 139
137 149 69 15 184 -46 228 -121 28 -47 43 -54 65 -27 44 52 178 70 254 33 51
-25 178 -144 173 -162 -3 -7 -20 -23 -39 -35 -67 -44 -80 -55 -105 -92 -80
-121 -37 -336 89 -446 27 -24 98 -71 158 -105 142 -80 171 -109 167 -164 -2
-34 -7 -42 -26 -44 -12 -2 -56 -37 -97 -78 -40 -41 -81 -74 -90 -74 -9 0 -29
10 -44 21 -16 12 -49 25 -73 29 -50 10 -240 -4 -281 -19 -33 -13 -50 -6 -112
44 -79 64 -99 70 -230 70 -138 0 -174 -13 -238 -84 -79 -88 -111 -189 -112
-358 0 -67 3 -125 8 -129 17 -18 28 20 46 162 26 201 66 324 105 324 8 0 19 6
25 14 16 19 59 26 174 27 86 1 102 -2 140 -24 38 -23 115 -99 160 -158 17 -24
18 -24 30 -4 61 98 178 131 280 79 53 -28 190 -173 224 -239 17 -33 43 -82 57
-109 14 -27 26 -64 26 -82 0 -36 31 -81 48 -70 7 4 12 14 12 21 0 36 -127 318
-174 388 -31 45 -29 51 46 125 72 70 144 88 240 62 61 -17 145 -125 163 -210
14 -68 34 -75 91 -29 33 26 45 30 81 26 93 -10 186 -75 325 -225 53 -57 88
-107 112 -158 41 -86 41 -86 167 -53 87 22 109 17 109 -25 0 -31 19 -46 59
-46 27 0 42 -8 71 -39 49 -51 78 -124 59 -147 -17 -21 -59 -12 -154 32 -52 25
-102 40 -167 49 -51 8 -111 23 -133 34 -23 12 -79 26 -125 32 -70 8 -92 7
-132 -6 -38 -12 -57 -13 -95 -4 -135 30 -264 2 -281 -63 -11 -44 -48 -51 -243
-45 -127 4 -163 9 -190 24 -27 14 -56 18 -146 18 -100 0 -114 -2 -140 -22 -96
-75 -103 -78 -172 -75 -120 4 -228 -48 -261 -128 -10 -23 -22 -32 -54 -40 -96
-24 -115 -32 -158 -65 -26 -19 -56 -50 -68 -70 -28 -46 -57 -65 -98 -65 -48 0
-92 -22 -137 -69 -41 -43 -62 -51 -72 -26 -8 21 -71 53 -132 66 -31 6 -63 22
-81 39 -39 36 -40 88 -5 197 31 99 31 117 -1 142 -48 37 -91 29 -219 -42 -29
-17 -31 -16 -49 5 -13 17 -17 33 -13 63 3 22 11 41 17 43 6 2 17 18 24 35 7
18 38 60 69 94 79 88 96 157 46 184 -11 5 -58 13 -105 16 -76 5 -87 9 -102 30
-22 35 -18 115 13 209 32 101 31 114 -5 149 -37 36 -38 64 -2 98 31 30 92 46
174 47 93 0 84 24 -19 50 -49 12 -51 20 -24 83 16 38 31 52 89 86 81 47 124
92 182 190 41 68 43 76 49 174 3 56 3 150 -1 208 -8 122 -28 177 -86 232 -20
19 -44 45 -53 58 -19 28 -145 94 -209 108 -58 13 -192 14 -261 1 -82 -15 -166
-61 -253 -139 -87 -78 -108 -87 -228 -94 l-78 -4 0 67 c0 58 4 71 30 106 16
21 30 46 30 55 0 15 -57 50 -102 63 -10 3 -24 28 -34 61 -24 74 -73 131 -127
147 -75 21 -73 15 -50 169 2 20 0 47 -7 59 -15 28 -68 50 -122 50 -63 0 -88
21 -88 74 0 48 17 69 63 80 44 10 60 61 55 166 -6 100 3 136 47 206 50 78 74
96 113 89 40 -7 45 16 7 41 -34 22 -79 10 -109 -29 -56 -77 -129 -219 -134
-262 -5 -50 -17 -55 -53 -26 -21 17 -24 28 -24 92 l0 72 -31 9 c-52 13 -68 40
-67 112 1 77 18 133 43 141 30 9 58 51 77 114 20 68 41 92 114 137 103 62 165
146 198 264 27 95 66 176 96 196 20 13 30 13 86 0 35 -8 102 -27 147 -41 46
-15 86 -24 90 -21 9 10 -41 58 -77 73 -43 18 -182 43 -243 43 -33 0 -50 -5
-56 -16 -15 -26 -30 -8 -51 61 -31 100 -96 207 -167 276 l-37 37 39 20 c21 12
41 21 43 22 2 0 27 -22 57 -49z m-314 -67 c150 -42 198 -76 240 -172 47 -105
-30 -135 -133 -52 -31 26 -83 29 -107 7 -32 -29 -80 -21 -119 18 -42 42 -57
43 -114 10 -73 -42 -116 -31 -143 34 -8 22 -13 47 -10 55 10 27 167 96 269
119 11 3 21 5 23 6 2 0 44 -11 94 -25z m-409 -182 c8 -39 72 -102 103 -102 14
0 48 10 76 22 50 21 52 21 82 3 79 -47 79 -46 154 -29 69 17 69 17 108 -7 40
-24 108 -31 168 -15 l29 7 -5 -93 c-3 -51 -9 -101 -13 -110 -10 -25 -33 -30
-60 -12 -14 9 -62 19 -117 24 -51 5 -113 15 -137 24 -58 21 -69 20 -134 -9
-37 -17 -64 -24 -81 -19 -37 9 -32 -6 17 -54 l44 -43 24 35 c27 39 67 61 97
52 11 -4 36 -24 56 -46 l37 -40 43 25 c57 34 98 33 126 -2 16 -21 20 -37 16
-62 -7 -46 -25 -63 -118 -111 l-80 -42 -57 16 c-32 9 -80 16 -108 16 -75 0
-151 17 -185 41 -43 31 -88 97 -88 131 0 44 40 78 90 78 34 0 41 3 38 18 -5
29 -58 26 -129 -8 l-64 -30 -7 22 c-11 41 -8 193 5 245 14 53 41 103 56 103 5
0 11 -12 14 -28z m2756 -118 c57 -17 131 -75 131 -104 0 -29 24 -40 106 -46
43 -4 93 -12 110 -19 36 -15 79 -67 90 -108 11 -45 43 -54 98 -26 44 22 48 22
80 6 19 -9 47 -33 63 -53 57 -75 66 -81 134 -88 91 -10 116 -22 145 -73 31
-52 41 -58 124 -73 89 -16 158 -55 177 -100 9 -19 19 -42 23 -50 14 -29 69
-51 148 -59 46 -5 89 -15 105 -26 15 -9 27 -18 27 -19 0 0 9 -25 19 -55 19
-60 27 -67 82 -76 21 -3 53 -16 72 -29 19 -13 53 -27 75 -31 l41 -7 3 -56 c3
-54 4 -57 31 -60 16 -2 42 1 59 7 40 14 70 -2 140 -77 62 -67 78 -111 78 -212
0 -57 -2 -61 -32 -80 l-32 -19 -38 34 c-20 19 -50 37 -65 40 -78 17 -148 84
-173 170 -18 61 -25 65 -89 59 -42 -5 -65 -2 -88 10 -40 20 -45 29 -54 94 -11
81 -26 92 -125 92 -80 0 -84 1 -117 33 -22 20 -39 49 -47 77 -6 25 -13 50 -15
57 -5 16 -70 33 -125 33 -98 0 -160 40 -175 112 -12 56 -18 58 -137 58 l-110
0 -35 35 c-30 30 -34 40 -29 66 3 17 1 39 -4 50 -13 23 -56 25 -84 4 -24 -18
-59 -19 -89 -4 -37 19 -77 62 -77 82 0 26 -30 88 -46 94 -8 3 -35 -9 -61 -26
-83 -55 -123 -38 -196 84 -50 82 -81 100 -129 72 -65 -37 -167 -6 -195 61 -16
37 -13 106 5 124 15 15 84 37 118 38 17 0 54 -7 83 -16z m6456 -95 c42 -37 65
-77 65 -113 0 -35 25 -56 67 -56 45 0 113 -63 113 -104 0 -15 9 -51 19 -80 32
-93 4 -179 -72 -217 -59 -31 -126 -37 -266 -28 -248 18 -301 33 -301 87 0 14
-20 62 -45 108 -25 45 -45 93 -45 106 0 15 19 42 55 78 30 30 55 60 55 66 0
38 236 184 296 184 13 0 39 -14 59 -31z m-4012 -222 c68 -40 162 -130 152
-146 -13 -22 -68 -6 -186 53 -62 31 -124 56 -140 56 -15 0 -40 -11 -56 -24
-47 -39 -73 -48 -138 -48 -61 0 -135 22 -135 40 0 13 29 37 70 58 65 33 130
44 260 41 117 -2 129 -5 173 -30z m77 -206 c25 -6 57 -13 73 -16 27 -5 27 -7
27 -81 0 -80 -17 -136 -46 -152 -21 -12 -75 12 -135 59 -75 59 -94 58 -212
-13 l-68 -41 -85 59 c-47 32 -93 64 -102 71 -14 9 -28 5 -81 -28 -36 -21 -68
-39 -73 -39 -13 0 -9 93 7 147 8 28 29 66 45 83 26 28 35 31 65 26 19 -4 59
-18 90 -31 79 -35 108 -32 189 19 l69 44 96 -48 c53 -27 116 -54 141 -59z
m3435 -134 c5 -34 12 -40 73 -71 118 -59 117 -58 117 -178 0 -56 -4 -120 -8
-140 -12 -56 -74 -127 -210 -240 l-121 -101 -8 37 c-11 50 -26 76 -43 76 -29
0 -16 64 30 152 57 109 119 292 142 420 10 54 19 95 20 91 1 -4 4 -25 8 -46z
m-3920 -98 c33 -22 77 -49 99 -60 l38 -21 52 36 c28 20 65 48 82 61 l30 25 75
-51 c145 -98 198 -147 199 -186 0 -20 -53 -62 -100 -79 -25 -9 -68 -27 -95
-40 -55 -26 -142 -32 -192 -13 -15 6 -71 15 -124 19 -120 10 -167 30 -187 81
-11 27 -21 38 -43 43 -30 6 -40 30 -54 128 -6 41 -5 49 11 54 11 3 37 14 59
24 59 28 84 24 150 -21z m4425 -31 c-57 -209 -65 -877 -14 -1177 31 -180 7
-493 -57 -744 -26 -104 -106 -309 -177 -456 -73 -152 -131 -213 -217 -232 -75
-17 -399 -19 -415 -3 -8 8 7 31 54 83 68 76 65 68 79 206 1 10 20 31 41 46 32
21 44 39 61 90 12 35 39 111 59 169 20 58 45 139 55 181 21 83 32 109 56 129
9 7 31 45 50 84 19 39 44 88 57 108 22 37 23 39 6 69 -24 42 -23 48 17 115 32
53 35 65 35 133 0 138 -41 269 -99 325 -14 14 -53 40 -86 58 -33 19 -61 41
-63 51 -2 9 8 42 22 72 23 52 77 111 203 225 23 22 57 73 87 132 58 115 67
174 42 282 -13 56 -14 71 -4 78 7 4 59 8 115 8 l101 0 -8 -32z m-2179 -187
c41 -11 104 -33 140 -49 36 -16 90 -37 120 -45 82 -25 191 -121 208 -185 7
-25 12 -27 62 -29 92 -3 262 -77 320 -140 29 -30 75 -178 104 -332 8 -47 23
-93 33 -104 9 -11 42 -32 73 -48 87 -43 159 -137 159 -207 0 -24 -30 -71 -52
-83 -13 -7 -39 -11 -60 -11 -45 2 -55 -11 -33 -45 20 -29 17 -52 -17 -141
l-24 -62 -21 22 c-11 13 -33 45 -49 73 -69 120 -244 268 -363 307 -93 29 -377
40 -387 14 -4 -10 -1 -29 7 -43 13 -24 16 -25 69 -17 86 14 239 9 300 -9 31
-9 84 -35 119 -57 85 -55 196 -169 211 -217 7 -21 16 -42 21 -47 26 -29 -13
-77 -140 -173 -94 -71 -105 -89 -110 -186 -1 -45 -8 -88 -15 -96 -18 -24 -227
-118 -288 -132 -107 -23 -163 13 -215 136 l-25 59 26 19 c15 11 33 35 41 54
12 27 19 34 32 28 10 -4 39 -10 65 -12 44 -5 47 -4 64 28 10 21 19 66 22 121
5 86 5 87 -26 117 -19 19 -41 31 -57 31 -47 0 -94 -36 -95 -72 0 -26 -12 -22
-45 12 -37 38 -95 42 -119 8 -23 -32 -20 -149 4 -218 24 -68 24 -84 4 -101
-14 -11 -19 -10 -39 13 -13 15 -26 46 -30 70 -11 70 -15 77 -50 94 -33 15 -75
68 -75 93 0 19 68 88 100 101 22 9 33 22 40 51 20 72 96 99 203 72 90 -23 98
-14 62 66 -32 71 -71 109 -158 152 -34 18 -81 45 -105 61 -49 34 -76 31 -66
-6 7 -27 -22 -51 -50 -40 -22 8 -20 21 4 36 52 33 -8 61 -77 36 -49 -18 -65
-7 -36 24 16 19 26 20 108 15 50 -3 121 -15 160 -27 86 -25 85 -25 85 0 0 51
-133 76 -355 65 -216 -10 -218 -10 -276 17 l-51 23 41 30 c22 17 40 35 40 40
0 6 -27 28 -61 50 -33 22 -66 49 -72 60 -6 11 -21 34 -33 52 l-23 32 37 30 36
30 -26 33 c-15 18 -45 56 -67 83 l-40 50 40 17 c40 17 75 61 87 108 3 14 24
43 47 66 22 23 52 56 65 73 35 48 121 101 197 122 37 10 76 28 86 39 24 26 90
27 189 1z m-4180 -40 c123 -7 158 -13 218 -36 40 -15 76 -35 82 -46 16 -31 7
-62 -21 -70 -86 -24 -697 7 -832 42 -46 12 -48 28 -9 71 23 26 39 33 82 39 78
9 311 9 480 0z m2507 -129 c48 -67 122 -301 122 -385 0 -26 -6 -60 -14 -75 -8
-16 -22 -57 -31 -92 -21 -81 -93 -186 -140 -206 -19 -7 -43 -27 -55 -44 -34
-47 -57 -56 -85 -30 -18 17 -33 21 -81 19 -55 -2 -59 -1 -89 34 -36 42 -70 57
-126 57 -38 0 -39 1 -39 34 0 31 -5 38 -60 71 -40 24 -60 43 -60 56 0 28 89
75 157 83 31 4 71 15 88 26 33 20 74 87 95 155 17 52 61 137 108 205 29 42 52
62 101 87 34 18 69 33 76 33 8 0 22 -12 33 -28z m2748 18 c79 -5 147 -15 173
-26 66 -26 93 -102 52 -143 -21 -21 -39 -24 -226 -40 l-119 -11 -166 66 c-228
91 -281 115 -277 128 2 6 21 10 43 8 100 -9 253 -6 275 5 21 11 53 18 99 21 8
1 74 -3 146 -8z m-5726 -72 c84 -18 138 -21 469 -25 l373 -5 -4 -106 c-4 -111
-20 -163 -54 -176 -9 -3 -68 -11 -132 -16 -138 -12 -182 -19 -182 -30 0 -14
31 -20 136 -27 57 -3 104 -9 104 -13 0 -15 -167 -82 -224 -91 -83 -12 -234
-12 -275 0 -28 9 -194 111 -188 117 1 1 70 -2 152 -7 150 -9 205 -6 205 12 0
16 -40 26 -128 32 -78 6 -294 57 -335 79 -44 23 -92 181 -75 246 10 39 23 40
158 10z m3879 -270 c19 -38 31 -76 31 -102 0 -27 12 -66 35 -112 20 -40 40
-98 45 -129 16 -100 82 -157 241 -210 42 -14 86 -35 97 -46 21 -19 21 -22 7
-49 -9 -17 -33 -42 -54 -56 -29 -18 -41 -35 -45 -60 -11 -55 -45 -87 -102 -93
-55 -7 -52 1 -43 -116 4 -48 3 -50 -23 -53 -15 -2 -62 12 -105 31 -43 19 -97
38 -121 42 -35 6 -43 11 -48 33 -18 92 -118 182 -200 182 -20 0 -30 12 -56 67
-43 88 -80 125 -153 152 -72 27 -81 34 -106 83 -11 21 -47 68 -80 105 -36 39
-58 72 -54 80 3 8 5 18 5 22 0 18 57 31 136 31 92 0 138 15 149 50 7 23 23 27
122 33 88 5 124 26 178 103 60 85 72 96 94 84 11 -5 33 -38 50 -72z m2049 60
c7 -7 12 -25 12 -41 0 -15 5 -48 11 -73 11 -42 9 -48 -34 -136 -24 -51 -53
-115 -64 -143 -25 -66 -54 -72 -112 -20 -50 45 -72 103 -96 252 -21 125 -17
138 39 148 25 5 117 15 217 24 8 0 20 -4 27 -11z m-7732 -206 c6 -4 14 -37 16
-75 3 -37 11 -74 18 -82 17 -21 5 -38 -138 -188 -137 -144 -184 -212 -244
-347 -33 -77 -42 -110 -46 -171 -4 -71 12 -262 25 -296 4 -11 -8 -8 -43 11
-71 38 -126 36 -169 -7 -59 -59 -71 -176 -25 -239 19 -26 22 -42 21 -117 -2
-108 19 -184 62 -223 27 -26 29 -31 15 -44 -21 -21 -58 -10 -105 31 l-38 33
-6 218 c-4 121 -11 233 -16 249 -37 114 -157 268 -231 298 -20 8 -50 29 -67
47 -61 64 -138 89 -307 99 -65 4 -120 9 -122 12 -5 5 34 137 94 323 56 171
158 310 248 337 54 16 108 -4 178 -66 86 -75 109 -122 160 -321 25 -99 58
-219 74 -269 16 -49 30 -101 32 -115 2 -14 11 -26 20 -28 22 -4 46 72 59 193
15 138 26 180 69 273 58 123 143 245 240 343 107 109 183 150 226 121z m8125
-44 c34 -18 75 -49 92 -70 26 -33 30 -47 40 -150 13 -146 6 -196 -39 -249 -19
-22 -34 -43 -34 -45 0 -2 10 -23 21 -47 28 -58 23 -77 -51 -172 -33 -43 -63
-90 -66 -104 -12 -60 -108 -351 -135 -411 -20 -43 -46 -81 -79 -111 l-50 -46
0 -67 c0 -108 -19 -136 -154 -231 -31 -22 -62 -52 -68 -66 -9 -21 -21 -28 -55
-33 -23 -3 -70 -19 -103 -36 -56 -28 -174 -60 -224 -60 -12 0 -53 20 -90 45
-38 25 -79 45 -91 45 -28 0 -87 19 -102 34 -24 23 -26 63 -3 84 31 28 23 63
-18 84 -48 24 -72 48 -72 74 0 30 62 82 153 130 141 73 274 183 376 309 67 84
185 276 232 380 16 36 44 82 63 103 59 66 69 96 61 181 -13 138 -4 231 33 350
21 68 49 89 132 100 129 17 163 14 231 -21z m-3140 -227 c27 -28 29 -33 23
-83 -8 -71 5 -82 96 -83 57 0 72 -4 103 -28 45 -34 55 -53 71 -130 l13 -62 55
-6 c67 -7 143 -42 165 -75 22 -34 13 -117 -17 -149 -42 -44 -71 -49 -136 -23
-59 23 -59 23 -67 73 -16 100 -14 97 -93 111 -38 6 -84 18 -100 27 -52 27
-101 90 -109 138 -3 24 -9 52 -11 62 -7 23 -55 47 -94 47 -34 0 -94 22 -104
38 -6 10 12 43 59 110 16 23 80 61 103 62 8 0 27 -13 43 -29z m-4831 -1 c11
-6 36 -42 56 -80 20 -39 50 -82 67 -96 30 -25 30 -26 14 -54 -11 -18 -17 -50
-17 -92 0 -55 4 -70 28 -100 66 -88 111 -105 218 -86 l41 8 6 -123 c10 -211
54 -322 178 -448 43 -44 94 -86 113 -94 32 -13 36 -20 36 -51 0 -20 -8 -43
-19 -55 -10 -11 -29 -47 -40 -79 -22 -61 -50 -90 -86 -90 -11 0 -65 -16 -120
-35 -55 -19 -107 -35 -116 -35 -10 0 -28 25 -48 64 l-32 65 -57 6 c-137 14
-152 25 -152 107 0 52 8 57 50 33 35 -20 37 -19 59 24 36 70 67 60 73 -24 3
-48 2 -50 -24 -53 -31 -4 -44 -28 -26 -49 13 -16 82 -13 99 4 19 19 22 107 6
145 -17 41 -68 78 -107 78 -89 0 -179 68 -204 153 -20 69 -65 120 -132 152
-69 33 -125 36 -158 10 -13 -11 -48 -39 -77 -63 -63 -52 -64 -50 -85 71 -23
130 -21 232 5 297 65 158 250 401 360 471 49 31 62 34 91 19z m1000 -261 c30
-11 32 -14 26 -48 -7 -46 -53 -112 -91 -131 -60 -29 -231 -12 -318 32 -37 19
-38 20 -22 38 33 37 125 93 172 106 60 16 190 18 233 3z m2172 -65 c22 -20 70
-49 107 -66 131 -58 188 -89 216 -118 16 -16 26 -33 23 -36 -13 -13 -240 -25
-398 -21 -142 3 -287 16 -380 34 -23 4 -23 5 -6 15 11 6 68 25 127 43 130 38
148 50 184 112 15 26 39 64 54 83 24 32 26 33 29 13 2 -12 22 -38 44 -59z
m3185 51 c83 -27 119 -48 109 -63 -3 -6 -30 -16 -58 -22 -75 -18 -104 -35
-182 -106 -38 -35 -74 -64 -81 -64 -17 0 -145 100 -145 113 0 21 53 79 81 89
16 5 29 14 29 19 0 15 102 59 137 59 18 0 67 -11 110 -25z m-5196 -175 c-76
-71 -101 -121 -101 -200 0 -76 22 -125 99 -216 87 -104 89 -130 6 -94 -26 11
-67 20 -92 20 -48 0 -47 1 -162 -127 -39 -44 -78 -43 -168 2 -79 39 -115 71
-94 84 7 5 65 11 129 15 134 8 154 17 190 86 27 54 28 111 3 166 -35 77 -125
122 -263 131 -75 6 -79 5 -138 -31 -34 -20 -64 -36 -67 -36 -3 0 -4 35 -1 79
3 59 10 85 27 109 l22 31 91 -44 c87 -43 96 -45 180 -45 57 0 99 5 116 14 32
17 103 91 152 159 l34 48 48 -48 48 -47 -59 -56z m141 -105 c16 -56 16 -203 0
-241 -13 -30 -47 -54 -77 -54 -26 0 -73 51 -89 97 -34 100 -12 188 64 257 l43
39 24 -29 c13 -16 28 -47 35 -69z m1963 -66 c247 -10 288 -16 293 -43 5 -26
-37 -157 -64 -198 -13 -21 -31 -38 -40 -38 -9 0 -43 23 -77 51 -73 61 -112 82
-137 74 -10 -3 -46 -31 -81 -61 l-62 -56 -56 56 c-80 79 -90 80 -311 21 l-64
-17 -32 35 c-38 41 -70 132 -60 172 l7 27 227 -7 c125 -3 331 -10 457 -16z
m-4536 -43 c46 -17 170 -96 191 -121 26 -31 -4 -40 -143 -43 -154 -4 -288 15
-381 54 -34 14 -78 31 -98 37 -21 6 -38 14 -38 18 0 14 62 59 88 65 15 3 32 8
37 10 6 2 75 2 155 0 102 -2 158 -8 189 -20z m2094 -4 c63 -29 111 -84 111
-128 0 -73 -127 -149 -210 -125 -55 16 -153 71 -165 92 -6 12 -13 47 -16 78
-6 65 1 75 69 97 55 18 155 11 211 -14z m4715 9 c80 -41 192 -198 192 -270 0
-29 -50 -182 -76 -233 -29 -56 -74 -78 -74 -36 0 23 -69 183 -150 349 -28 56
-50 111 -50 122 0 29 63 87 94 87 15 0 44 -9 64 -19z m-7257 -135 c30 -13 126
-45 214 -72 199 -60 261 -62 399 -15 50 17 93 31 98 31 12 0 38 -56 38 -83 0
-64 -108 -91 -335 -84 -230 7 -389 51 -512 143 l-52 39 31 33 c38 38 49 39
119 8z m4724 -86 c73 -92 93 -93 196 -15 40 30 77 55 82 55 18 0 95 -70 118
-106 22 -36 22 -37 3 -52 -37 -28 -146 -75 -187 -79 -28 -3 -59 2 -96 16 -30
12 -90 30 -135 41 -94 22 -165 50 -219 87 -30 21 -35 28 -25 40 21 26 148 80
190 82 10 1 41 -29 73 -69z m1307 -73 c59 -35 143 -76 186 -91 96 -33 142 -69
176 -138 29 -58 35 -142 13 -172 -7 -10 -32 -20 -55 -23 -57 -8 -78 13 -144
138 -90 173 -183 249 -322 264 -70 8 -85 3 -151 -50 -53 -43 -145 -99 -151
-92 -7 7 21 63 53 105 30 40 118 92 158 93 17 0 46 7 65 14 19 7 42 14 50 14
8 1 63 -27 122 -62z m-6079 -11 c306 -135 526 -165 750 -102 l88 25 11 -27 c5
-15 13 -77 15 -137 5 -92 3 -113 -10 -123 -13 -11 -21 -5 -58 43 -23 31 -50
60 -60 65 -30 17 -92 10 -139 -14 -105 -53 -227 -121 -249 -138 -13 -10 -27
-15 -32 -12 -5 3 -55 66 -111 141 -56 75 -122 158 -148 186 -40 44 -50 49 -74
43 -37 -9 -113 -81 -138 -130 -18 -35 -21 -37 -30 -21 -14 23 -4 112 16 150 9
17 16 44 16 61 0 31 6 44 22 44 5 0 64 -24 131 -54z m1387 -52 c34 -70 47 -83
105 -110 82 -39 130 -32 206 27 46 36 56 36 95 -2 l33 -32 -25 -55 c-32 -72
-32 -131 1 -170 35 -41 86 -63 141 -61 36 2 50 -1 60 -16 25 -34 18 -55 -19
-55 -37 0 -63 -23 -91 -77 -21 -42 -36 -42 -36 0 0 54 -49 136 -130 218 -89
90 -194 147 -334 181 l-88 22 -44 -24 c-55 -28 -110 -88 -136 -147 -10 -24
-23 -41 -29 -38 -13 8 -11 85 2 126 20 59 118 197 167 235 64 49 90 44 122
-22z m4647 -56 c53 -24 77 -53 147 -172 66 -112 148 -193 205 -202 51 -8 65
-18 57 -39 -5 -15 -14 -17 -54 -11 -77 10 -181 67 -243 134 -65 70 -123 106
-209 128 -97 25 -192 16 -265 -25 l-56 -32 3 43 c3 37 7 45 33 57 17 7 65 36
108 63 148 94 180 100 274 56z m-5975 -115 c30 -38 79 -99 108 -138 90 -115
134 -165 149 -165 7 0 40 18 71 39 57 39 284 171 294 171 3 0 28 -28 57 -62
l51 -62 -5 -190 c-6 -266 -24 -314 -127 -351 -52 -19 -153 -21 -225 -5 -130
28 -307 97 -365 142 -74 57 -223 217 -247 266 -36 74 -30 152 21 254 38 78
117 168 146 168 10 0 42 -30 72 -67z m1493 -98 c146 -71 218 -149 244 -265 9
-41 -2 -100 -18 -100 -9 0 -34 -55 -51 -111 -14 -48 -34 -65 -103 -88 -88 -30
-137 -70 -350 -280 -145 -143 -200 -192 -208 -184 -20 20 -5 225 24 338 14 55
35 160 46 233 32 207 60 287 125 360 18 20 37 48 41 62 11 36 25 51 70 72 49
22 67 19 180 -37z m4429 -35 c39 -19 98 -61 132 -92 83 -78 162 -124 247 -143
39 -9 74 -18 78 -21 4 -2 0 -28 -10 -57 -12 -36 -24 -53 -37 -55 -11 -2 -48
16 -84 40 l-64 43 -189 -3 -189 -4 -62 31 c-74 36 -166 127 -166 164 0 29 64
105 104 123 55 25 160 14 240 -26z m-3450 -251 l56 -22 0 -146 c0 -80 5 -163
11 -184 14 -50 57 -77 125 -77 27 0 59 -6 69 -14 18 -13 18 -14 -5 -47 -13
-19 -38 -52 -56 -74 -102 -128 -119 -261 -39 -299 47 -23 170 -24 194 -2 10 9
26 16 36 16 17 0 17 -8 11 -110 -11 -177 5 -207 123 -231 34 -6 71 -19 82 -28
19 -16 18 -17 -21 -73 -88 -123 -92 -223 -15 -324 36 -47 157 -106 215 -104
72 3 70 5 63 -49 -4 -39 -1 -60 21 -106 34 -75 33 -92 -6 -113 -87 -47 -168
-157 -168 -229 0 -18 9 -52 19 -75 11 -24 25 -59 32 -78 7 -19 40 -65 72 -102
53 -63 56 -68 34 -68 -38 0 -200 50 -219 67 -10 9 -18 22 -18 28 0 21 -40 64
-96 106 -33 24 -54 47 -54 59 0 29 -57 88 -109 115 -87 44 -186 67 -314 74
l-121 6 -14 69 c-12 59 -12 74 1 110 71 197 90 244 116 291 17 29 36 75 42
102 7 26 26 80 42 118 27 62 31 84 35 192 8 235 -51 384 -198 494 -30 23 -111
70 -180 104 -69 35 -133 71 -142 82 -9 10 -28 44 -42 74 -29 66 -60 94 -164
149 -42 22 -86 47 -96 55 -36 27 -7 28 53 1 71 -32 129 -33 188 -5 50 24 74
55 104 133 25 69 62 96 129 96 34 1 132 26 147 39 0 0 26 -9 57 -20z m-2729
-90 c25 -46 108 -122 220 -198 183 -125 284 -163 519 -196 60 -8 111 -17 114
-20 9 -9 -48 -81 -80 -99 -45 -27 -156 -32 -238 -11 -80 20 -198 79 -276 136
-72 52 -201 183 -210 212 -3 12 -14 31 -24 42 -9 11 -20 37 -23 59 -3 21 -13
46 -22 56 -17 19 -20 50 -5 50 5 0 17 -14 25 -31z m6448 -13 c30 -12 75 -53
66 -59 -26 -15 -95 -52 -137 -73 -92 -45 -166 -28 -317 74 -37 26 -70 53 -73
60 -6 18 416 17 461 -2z m-4373 -282 c94 -51 120 -81 120 -142 l0 -45 -22 20
c-49 45 -120 66 -258 78 -93 9 -220 -8 -278 -37 -64 -30 -178 -146 -187 -189
-3 -19 -16 -61 -27 -94 -14 -43 -23 -105 -29 -220 -5 -88 -11 -166 -14 -172
-3 -9 -36 3 -102 38 -110 56 -109 53 -78 165 22 77 87 158 299 372 198 201
244 237 330 258 86 22 163 12 246 -32z m-125 -195 c108 -20 204 -88 221 -156
11 -43 -7 -56 -115 -85 -232 -60 -318 -140 -246 -227 64 -76 270 -124 535
-125 175 -1 200 4 244 53 18 20 18 21 -14 70 -45 71 -102 125 -175 165 -102
58 -121 86 -151 233 l-4 21 68 -20 c137 -41 218 -96 341 -232 86 -95 96 -126
95 -291 0 -125 -3 -147 -26 -205 -14 -36 -28 -83 -32 -105 -4 -22 -29 -85 -55
-140 -26 -55 -56 -122 -66 -150 -10 -27 -20 -52 -22 -54 -2 -2 -33 25 -70 60
-92 88 -128 112 -157 105 -12 -3 -46 -30 -74 -60 -46 -49 -52 -60 -52 -98 0
-48 48 -160 101 -233 31 -43 111 -96 125 -82 4 4 1 19 -6 34 -21 42 -18 48 20
50 19 1 44 3 55 5 17 3 24 -10 48 -79 l29 -81 181 -4 c174 -3 184 -5 232 -30
61 -32 123 -94 109 -108 -6 -6 -97 -17 -203 -26 -158 -12 -208 -20 -281 -45
-49 -16 -107 -29 -128 -29 -22 0 -45 -6 -52 -14 -16 -20 -9 -57 13 -67 9 -5
25 -13 35 -18 29 -14 26 -39 -5 -48 -47 -13 -795 -10 -818 4 -18 10 -17 13 18
33 20 12 37 29 37 38 0 21 -61 59 -160 102 -41 18 -110 50 -152 71 -43 22 -87
39 -98 39 -11 0 -86 34 -168 75 -143 72 -221 126 -243 166 -29 55 137 43 309
-21 100 -38 170 -81 275 -167 57 -48 182 -112 232 -120 34 -5 37 -4 33 17 -2
18 -26 36 -98 75 -102 55 -135 90 -145 154 -20 120 -117 368 -208 529 -61 107
-89 188 -108 310 -18 117 -12 123 64 69 34 -24 73 -48 87 -52 14 -4 46 -18 72
-31 52 -26 88 -30 106 -12 19 19 15 31 -24 82 l-37 46 6 89 c4 67 17 122 53
232 54 166 79 201 179 249 95 46 174 57 270 39z m3497 -34 c76 -31 86 -31 145
1 61 33 125 29 180 -9 21 -15 55 -39 76 -54 l39 -27 44 23 c32 17 52 22 76 17
56 -11 112 -48 131 -89 l19 -37 106 0 c136 0 172 -15 188 -81 l11 -44 112 -7
c152 -8 177 -27 169 -124 -3 -34 -6 -39 -36 -45 -18 -4 -41 -14 -51 -23 -16
-14 -23 -13 -88 18 -50 24 -82 48 -113 85 l-44 52 -95 -7 c-95 -6 -96 -6 -118
20 -13 14 -29 26 -35 26 -7 0 -50 4 -96 10 -107 12 -158 39 -174 92 -18 62
-30 65 -100 29 -77 -39 -141 -41 -213 -6 -27 14 -61 25 -75 25 -51 0 -245 109
-238 132 6 16 69 48 96 48 12 0 50 -11 84 -25z m-744 -65 c18 -11 32 -28 32
-38 0 -25 -161 -179 -196 -188 -17 -4 -36 -1 -54 10 -16 9 -31 16 -34 16 -3 0
-15 -23 -27 -50 -23 -53 -65 -96 -104 -106 -16 -4 -50 8 -112 40 -87 45 -88
45 -95 23 -3 -12 -6 -40 -7 -63 -2 -83 -61 -132 -161 -134 -25 0 -51 -4 -58
-8 -7 -5 -17 -34 -22 -65 -5 -31 -14 -65 -20 -76 -17 -32 -67 -53 -144 -60
l-69 -6 -12 -55 c-6 -30 -18 -69 -28 -86 -18 -35 -81 -94 -100 -94 -24 0 -77
40 -107 81 -33 46 -38 83 -15 117 20 27 92 70 142 84 56 15 63 24 63 85 0 30
4 63 10 73 14 26 63 40 146 40 82 0 114 18 114 63 0 28 61 102 100 122 26 13
30 13 54 -6 17 -13 37 -19 58 -17 31 3 33 6 40 51 8 59 27 83 93 113 56 27
103 30 170 12 l45 -12 54 54 c94 94 176 121 244 80z m459 -73 c66 -18 201
-102 222 -139 9 -16 33 -53 54 -81 21 -28 40 -63 43 -77 3 -14 12 -47 20 -74
18 -59 12 -68 -75 -115 l-57 -30 -60 60 c-32 33 -71 67 -85 74 -25 14 -30 12
-99 -40 -39 -30 -80 -55 -89 -55 -10 0 -35 15 -57 34 -41 35 -95 66 -115 66
-6 0 -28 -13 -48 -29 -35 -28 -161 -101 -174 -101 -12 0 -7 193 6 257 8 36 25
76 41 97 33 44 164 144 203 156 44 13 214 11 270 -3z m468 -156 c23 -7 70 -9
113 -5 72 6 76 5 161 -35 48 -23 113 -46 145 -51 32 -5 91 -25 131 -45 67 -33
76 -35 136 -29 63 6 64 6 114 -34 28 -21 69 -49 92 -61 59 -29 108 -74 128
-118 16 -33 16 -38 2 -63 -9 -15 -19 -58 -23 -96 -7 -77 -25 -114 -55 -114
-11 0 -65 21 -120 46 -111 51 -143 52 -179 7 -26 -33 -25 -49 5 -98 13 -22 32
-56 41 -75 77 -163 78 -178 11 -159 -45 12 -77 -2 -77 -34 0 -12 11 -49 25
-82 27 -67 33 -163 12 -205 -19 -38 -68 -38 -173 3 -49 19 -113 39 -142 46
-130 28 -299 4 -446 -63 -43 -20 -80 -36 -81 -36 -2 0 -30 38 -64 84 -33 46
-95 118 -137 160 l-77 77 7 56 c3 30 10 63 15 72 5 9 43 26 88 39 104 31 149
59 222 138 87 95 138 241 128 364 -7 87 -42 221 -73 283 l-26 50 29 -6 c15 -3
46 -10 68 -16z m-1121 -113 c3 -18 7 -82 10 -143 6 -102 9 -116 46 -192 22
-46 40 -85 40 -89 0 -25 162 -174 223 -205 46 -24 65 -64 74 -153 6 -71 -11
-114 -53 -137 -20 -10 -32 -8 -82 14 -74 34 -125 34 -188 2 -27 -14 -57 -25
-66 -25 -10 0 -40 19 -67 43 -27 23 -70 59 -95 80 -24 20 -65 68 -90 106 -67
100 -105 131 -163 131 -102 0 -172 -64 -214 -196 -12 -38 -32 -80 -43 -92 -19
-22 -66 -52 -81 -52 -13 0 -63 127 -74 185 -14 76 -13 180 2 225 11 32 19 37
80 57 37 12 80 31 96 42 28 20 61 84 61 118 0 25 30 53 57 53 36 0 61 16 142
93 62 58 75 67 83 53 13 -24 89 -21 141 5 23 12 63 41 89 65 26 24 52 44 57
44 6 0 12 -15 15 -32z m461 -238 c36 -27 76 -50 89 -50 12 0 35 14 52 31 38
40 80 62 105 54 12 -4 45 -29 75 -56 66 -60 96 -63 166 -18 27 17 51 29 55 26
24 -25 -59 -226 -116 -281 -33 -32 -149 -74 -229 -83 -71 -8 -166 19 -245 69
-84 55 -220 171 -237 203 -13 25 -13 28 10 46 44 35 174 109 192 109 9 0 47
-22 83 -50z m-864 -460 c10 -6 32 -36 48 -68 29 -58 53 -84 104 -116 15 -9 25
-21 23 -25 -16 -26 -269 -66 -341 -54 -40 6 -43 18 -15 48 11 12 38 63 60 115
22 52 46 97 53 102 17 11 45 10 68 -2z m1012 -222 c22 -11 69 -44 105 -74 36
-30 69 -54 72 -54 4 0 26 -41 50 -91 40 -85 43 -94 31 -123 -79 -189 -93 -271
-67 -386 37 -162 106 -292 208 -392 57 -56 68 -72 68 -100 0 -18 7 -46 16 -63
14 -27 14 -30 -2 -42 -36 -26 -63 -16 -92 33 -72 123 -157 180 -287 193 l-76
7 -52 56 c-39 42 -63 59 -96 68 -94 25 -219 -29 -197 -86 8 -21 32 -17 59 10
14 14 47 29 81 37 68 15 71 13 119 -81 l32 -65 100 -6 c118 -6 159 -23 215
-86 39 -45 53 -76 65 -146 8 -50 28 -56 86 -24 26 15 62 27 81 27 42 0 116
-37 140 -70 19 -26 98 -321 98 -365 0 -34 -76 -70 -128 -60 -40 7 -105 66
-134 122 -19 38 -90 81 -206 125 -52 20 -87 40 -94 52 -16 31 -60 76 -88 91
-14 7 -54 16 -90 20 -78 9 -89 14 -161 76 -103 88 -110 91 -377 125 -125 16
-135 16 -178 -1 -39 -15 -65 -16 -178 -10 -110 6 -139 4 -171 -9 -21 -9 -40
-15 -41 -13 -2 2 12 28 31 58 44 69 45 87 3 91 -30 3 -33 6 -32 34 2 48 56
147 88 162 42 21 107 7 158 -33 47 -38 87 -44 110 -17 9 9 41 67 72 128 66
130 88 154 150 161 36 4 54 0 92 -21 79 -44 97 -37 150 63 16 29 44 65 63 80
29 22 44 26 100 25 36 0 83 -4 103 -8 50 -11 72 -2 59 23 -31 58 -162 66 -259
17 -61 -31 -128 -88 -137 -118 -6 -18 -12 -19 -105 -13 -154 11 -176 -1 -255
-145 -52 -94 -90 -140 -116 -140 -46 0 -82 106 -59 175 9 27 20 40 44 48 17 6
70 30 119 54 97 49 103 57 136 174 18 63 21 103 21 246 0 95 4 183 10 197 13
34 64 60 108 52 19 -3 64 -23 101 -46 37 -22 74 -40 83 -40 9 0 20 12 26 28
22 61 92 106 152 96 19 -3 52 -15 73 -26z m-713 -104 c27 -25 54 -62 61 -82
11 -32 10 -37 -11 -54 -60 -49 -265 -82 -510 -82 -214 0 -332 17 -365 54 -16
18 -16 21 -2 44 45 68 158 105 357 117 149 9 348 34 358 44 3 3 18 5 34 5 20
0 43 -13 78 -46z m1547 -180 c57 -18 189 -112 213 -152 9 -15 23 -45 30 -66
19 -60 1 -65 -62 -18 -29 22 -65 45 -81 51 -24 9 -32 7 -65 -23 -53 -48 -82
-62 -93 -45 -5 8 -9 17 -9 22 0 4 -27 25 -61 47 l-61 39 -55 -44 c-33 -27 -65
-45 -81 -45 -28 0 -123 67 -148 106 -15 23 -15 26 0 43 21 23 98 58 181 82 78
23 226 25 292 3z m-2282 -64 c86 -22 324 -31 513 -20 103 6 206 14 229 19 23
5 44 6 47 4 13 -14 -14 -60 -45 -74 -103 -49 -420 -97 -559 -84 -148 13 -208
36 -243 93 -39 62 -40 72 -9 72 15 0 45 -5 67 -10z m-2839 -40 c32 -11 104
-42 159 -68 l100 -47 155 0 c149 0 157 -1 211 -28 32 -15 62 -34 68 -41 14
-16 -21 -20 -284 -36 -93 -6 -186 -15 -206 -20 -42 -11 -118 -67 -142 -103
-29 -44 5 -124 122 -285 57 -79 90 -147 77 -159 -3 -3 -31 19 -63 49 -139 129
-165 141 -218 95 l-27 -23 15 -99 c28 -180 31 -239 13 -254 -14 -12 -21 -9
-56 28 -23 24 -44 59 -51 84 -24 89 10 321 69 464 l21 52 -55 50 c-35 32 -68
53 -91 57 -66 12 -185 -3 -283 -36 -125 -41 -174 -73 -209 -135 -16 -27 -56
-84 -90 -125 l-61 -75 0 -135 c0 -203 13 -290 55 -379 44 -92 102 -169 155
-206 34 -23 48 -27 112 -26 40 0 97 5 127 11 94 18 221 7 221 -19 0 -8 -116
-36 -190 -47 -54 -8 -80 -20 -80 -38 0 -27 44 -68 109 -100 36 -19 77 -43 91
-55 l25 -20 -40 0 c-22 0 -78 8 -125 19 -103 24 -178 26 -186 6 -13 -33 74
-134 176 -207 54 -39 110 -90 110 -101 0 -30 -132 22 -247 98 -191 127 -338
340 -405 588 -19 69 -22 108 -23 256 0 160 2 183 27 272 42 151 108 272 216
396 68 79 152 121 382 191 91 28 170 58 176 67 7 8 15 35 19 59 6 41 9 45 34
45 15 0 54 -9 87 -20z m4662 -129 c31 -16 75 -48 97 -70 l39 -41 36 33 c99 94
131 99 187 32 20 -25 45 -47 55 -51 26 -8 72 21 105 65 l30 40 44 -45 c54 -56
93 -78 125 -70 29 8 30 -4 13 -118 l-11 -75 -75 -6 c-96 -9 -167 -2 -188 18
-12 12 -34 17 -76 17 -63 0 -102 -14 -133 -49 -25 -28 -35 -27 -76 8 -54 43
-89 58 -159 64 -35 3 -70 11 -77 19 -26 26 -39 212 -17 251 7 12 21 8 81 -22z
m-1068 -1 c0 -32 -126 -110 -176 -110 -12 0 -57 -12 -100 -26 -133 -44 -270
-25 -358 48 -48 40 -29 48 115 48 152 0 343 16 420 35 68 16 99 18 99 5z
m-1200 -29 c19 -18 32 -44 36 -69 3 -23 13 -43 22 -47 8 -3 60 -10 116 -16
183 -19 318 -57 377 -106 l30 -26 24 23 25 23 0 -34 c0 -39 -26 -127 -44 -146
-8 -9 -25 -6 -71 13 -169 72 -324 112 -380 98 -62 -15 -71 -92 -26 -212 39
-102 58 -179 70 -285 11 -96 5 -126 -30 -150 -37 -26 -80 2 -112 73 -16 37
-20 64 -19 148 2 85 0 102 -13 102 -8 0 -25 -11 -36 -24 -32 -37 -205 -106
-266 -106 -29 0 -8 36 77 129 49 55 95 112 100 127 27 70 -45 219 -139 289
-74 54 -106 63 -244 71 -141 8 -164 16 -153 58 13 52 58 56 257 25 154 -25
194 -21 242 20 70 61 113 67 157 22z m2395 -310 c28 -15 54 -38 60 -49 17 -39
55 -27 133 40 44 38 68 35 132 -13 36 -27 61 -39 75 -36 11 3 38 11 60 17 55
16 101 0 85 -30 -22 -42 -129 -119 -188 -136 -31 -8 -69 -24 -84 -35 -25 -17
-36 -18 -112 -10 -47 6 -99 17 -117 26 -71 37 -199 178 -199 220 0 52 67 54
155 6z m677 -143 c7 -14 12 -58 12 -108 0 -108 -19 -155 -69 -176 -39 -16 -49
-14 -157 25 -34 12 -82 21 -116 21 l-59 0 -7 -112 c-4 -62 -11 -117 -16 -122
-6 -6 -29 9 -60 38 -28 26 -72 57 -98 69 l-47 21 61 7 c72 7 80 11 89 46 10
41 21 50 81 68 29 8 62 23 71 33 10 9 34 25 53 35 19 10 78 54 130 97 52 44
100 80 107 80 7 0 18 -10 25 -22z m-1692 -368 l37 -40 102 0 c120 0 159 -14
192 -67 30 -48 54 -60 133 -67 119 -10 186 -59 186 -135 0 -29 33 -43 124 -52
103 -10 127 -21 170 -76 39 -51 39 -52 -18 -130 -29 -39 -57 -53 -111 -55 -63
-2 -110 34 -120 92 -10 62 -31 80 -104 90 -40 6 -77 18 -100 34 -20 14 -45 26
-55 26 -21 0 -66 23 -129 66 -63 44 -127 62 -257 75 -58 6 -124 17 -148 25
-23 8 -58 14 -76 14 -19 0 -49 11 -70 25 -42 28 -63 31 -90 10 -29 -22 -98
-19 -130 6 -54 42 -71 122 -35 165 22 26 119 18 184 -16 31 -16 63 -30 70 -30
8 0 47 18 87 40 40 22 84 40 97 40 15 0 37 -14 61 -40z m-509 -276 c10 -13 9
-27 -9 -83 -24 -72 -28 -126 -12 -136 15 -9 12 -52 -7 -88 -9 -18 -93 -111
-187 -207 -94 -96 -186 -197 -204 -225 -39 -58 -62 -131 -62 -194 0 -83 -65
-151 -142 -151 -49 0 -49 11 -1 155 20 62 33 119 30 128 -5 14 -21 17 -89 17
-46 0 -109 4 -142 10 -59 9 -146 45 -146 60 0 12 55 20 175 26 146 7 193 18
233 57 48 45 74 100 63 129 -20 52 -79 92 -180 122 -103 30 -195 104 -160 128
21 14 111 1 182 -26 102 -38 212 -59 279 -53 71 6 92 23 196 157 94 122 152
190 162 190 4 0 13 -7 21 -16z m549 -214 c91 -44 178 -82 194 -86 15 -4 52 -1
82 6 61 15 80 7 46 -20 -31 -26 -155 -36 -266 -22 -72 9 -106 20 -180 56 -98
49 -166 99 -166 122 0 21 39 34 85 28 22 -2 114 -40 205 -84z m-241 -72 c132
-86 309 -125 505 -113 l109 7 -5 -83 c-6 -84 -25 -148 -55 -181 -21 -24 -43
-11 -114 66 -42 45 -79 73 -142 105 -85 43 -86 43 -189 43 -85 0 -116 -4 -179
-26 -41 -14 -79 -26 -83 -26 -4 0 -13 15 -21 34 -16 37 -10 69 26 154 24 56
48 84 63 75 6 -4 44 -29 85 -55z m781 5 c14 -9 52 -42 86 -73 41 -38 80 -63
120 -78 101 -37 203 -142 223 -231 10 -46 8 -50 -53 -99 -20 -16 -20 -76 -1
-157 17 -71 19 -178 4 -207 -10 -18 -17 -20 -70 -14 -98 11 -113 -8 -84 -107
12 -44 13 -59 2 -97 -13 -44 -16 -46 -118 -97 -141 -70 -150 -71 -196 -30 -21
19 -56 46 -79 60 -23 14 -50 43 -61 64 -11 21 -32 60 -47 87 -15 30 -26 65
-26 89 0 32 -6 45 -32 68 -18 16 -50 43 -71 61 l-37 33 40 50 c21 28 86 91
142 140 149 132 173 183 188 403 5 73 12 137 15 142 9 15 27 12 55 -7z m-465
-281 c104 -91 158 -149 150 -163 -10 -15 -20 -11 -71 24 -27 19 -67 40 -88 47
-54 18 -153 8 -260 -26 l-89 -28 -28 33 c-35 43 -44 82 -27 118 16 35 64 52
173 62 155 16 141 20 240 -67z m-109 -693 c160 -102 287 -196 382 -283 106
-97 115 -101 162 -87 22 6 102 42 180 80 77 38 179 81 227 95 49 15 124 40
169 56 45 17 86 30 92 30 18 0 1 -35 -104 -218 -118 -203 -144 -241 -197 -292
l-41 -40 30 -32 c16 -18 67 -73 114 -123 163 -172 290 -344 290 -390 0 -34
-16 -33 -190 15 -161 44 -285 68 -374 72 l-59 3 -17 -60 c-10 -33 -25 -78 -35
-100 -10 -22 -46 -132 -82 -244 -65 -206 -86 -261 -102 -261 -11 0 -145 391
-166 479 -8 36 -23 77 -33 91 -11 14 -28 43 -40 65 -33 65 -50 75 -163 91
-170 24 -502 119 -507 145 -2 9 30 45 75 84 43 38 103 92 133 120 42 39 72 57
125 75 91 30 134 52 173 88 35 32 42 71 17 92 -8 6 -31 55 -51 108 -21 54 -55
133 -77 177 -43 86 -87 207 -87 238 0 25 4 23 156 -74z"/>
<path d="M2892 6204 c-65 -33 -112 -120 -112 -207 0 -105 52 -200 135 -248 82
-47 165 -38 223 24 30 31 44 132 32 219 -22 151 -172 266 -278 212z"/>
</g>
</svg>
