<?xml version="1.0" standalone="no"?>
<!DOCTYPE svg PUBLIC "-//W3C//DTD SVG 20010904//EN"
 "http://www.w3.org/TR/2001/REC-SVG-20010904/DTD/svg10.dtd">
<svg version="1.0" xmlns="http://www.w3.org/2000/svg"
 width="625.000000pt" height="704.000000pt" viewBox="0 0 625.000000 704.000000"
 preserveAspectRatio="xMidYMid meet">
<metadata>
Created by potrace 1.16, written by Peter Selinger 2001-2019
</metadata>
<g transform="translate(0.000000,704.000000) scale(0.100000,-0.100000)"
fill="#000000" stroke="none">
<path d="M3135 7008 c-2 -7 -13 -47 -24 -88 -10 -42 -26 -92 -34 -113 -15 -35
-19 -37 -59 -37 -24 0 -80 -3 -125 -6 -69 -6 -82 -10 -86 -26 -3 -11 0 -21 6
-23 7 -2 44 -13 82 -24 101 -30 101 -30 80 -87 -10 -27 -39 -98 -65 -159 -26
-60 -50 -118 -53 -127 -4 -10 -13 -18 -20 -18 -8 0 -20 -14 -27 -30 -7 -17
-20 -36 -30 -43 -9 -7 -27 -28 -41 -47 -28 -41 -116 -129 -185 -185 -57 -46
-154 -145 -154 -157 0 -22 -20 -4 -30 27 -19 58 -56 46 -79 -27 -9 -28 -20
-40 -52 -52 -47 -19 -54 -32 -39 -72 11 -26 9 -31 -16 -49 -15 -11 -61 -47
-103 -81 -78 -62 -292 -207 -346 -234 -57 -29 -104 -84 -111 -130 l-7 -43 74
6 c41 4 86 10 102 13 20 5 27 3 27 -9 0 -8 10 -21 22 -29 l23 -15 -27 -35
c-78 -102 -243 -233 -366 -291 l-63 -29 -23 21 c-12 11 -27 21 -34 21 -29 0
-42 -77 -20 -125 10 -22 8 -30 -22 -66 -18 -23 -33 -53 -34 -67 -1 -20 -20
-41 -90 -93 -150 -114 -186 -157 -186 -220 l0 -32 50 5 c35 4 89 25 182 72
119 59 168 77 168 61 0 -16 -38 -76 -94 -149 -74 -97 -98 -145 -104 -209 -4
-43 -9 -52 -42 -73 -23 -16 -52 -51 -79 -98 -23 -41 -57 -91 -76 -112 l-33
-39 -31 34 c-17 19 -36 50 -43 68 -9 25 -17 33 -33 31 -13 -2 -19 -10 -18 -23
1 -11 5 -63 9 -116 l7 -96 -57 -43 c-67 -50 -83 -75 -65 -96 7 -8 18 -13 26
-10 19 8 16 0 -17 -50 -17 -24 -39 -44 -48 -44 -28 0 -117 -46 -146 -75 -15
-15 -38 -44 -52 -65 -24 -36 -26 -46 -22 -134 3 -106 10 -119 97 -179 l44 -30
-31 -28 c-17 -15 -41 -47 -53 -71 -22 -44 -63 -95 -164 -203 -31 -33 -73 -82
-95 -110 -21 -27 -61 -74 -88 -103 -73 -78 -104 -141 -100 -199 l3 -48 40 0
c22 1 55 4 72 9 42 10 42 0 -1 -66 -65 -103 -95 -192 -76 -227 16 -31 57 -26
162 20 105 45 229 83 239 71 4 -4 -4 -52 -18 -107 -14 -56 -25 -135 -26 -180
l-2 -80 68 0 c38 0 67 -4 67 -10 0 -5 -11 -29 -24 -52 -44 -77 -46 -218 -3
-269 77 -91 73 -89 172 -89 74 0 98 4 132 22 67 36 100 90 123 197 10 48 15
56 34 56 12 0 79 38 150 85 70 47 131 85 137 85 12 0 12 -9 -7 -64 -22 -64
-15 -143 17 -193 l25 -38 -8 -175 c-9 -221 -17 -300 -29 -300 -5 0 -9 7 -9 15
0 9 -7 29 -15 45 -14 26 -21 30 -59 30 -39 0 -45 -3 -56 -30 -22 -52 -17 -131
9 -173 26 -43 85 -77 132 -77 49 0 114 35 132 73 44 86 74 507 42 584 -9 20
-12 40 -8 44 20 20 187 119 200 119 12 0 14 -8 9 -38 -3 -20 -9 -74 -12 -119
l-7 -83 29 -1 c58 -2 80 4 169 46 49 24 102 46 118 49 38 9 35 -14 -6 -39 -23
-15 -33 -29 -35 -51 l-3 -31 76 -5 c90 -6 105 -16 65 -43 -35 -24 -42 -38 -34
-72 7 -25 8 -25 77 -18 l70 6 -22 -34 c-11 -19 -21 -49 -21 -67 0 -32 0 -33
43 -27 23 2 48 6 56 8 11 3 13 -9 12 -56 -1 -39 3 -67 12 -80 14 -19 16 -19
69 -2 30 9 57 17 60 17 3 0 9 -25 13 -55 11 -91 52 -229 112 -379 31 -77 60
-161 63 -185 4 -33 12 -49 33 -65 28 -20 39 -21 335 -21 169 0 324 4 345 8 53
11 77 38 77 86 0 21 13 72 29 112 16 41 51 132 76 204 26 72 55 153 66 180 22
61 126 389 135 428 3 15 10 30 15 33 5 3 49 -32 97 -79 74 -71 93 -85 131 -91
31 -5 48 -3 57 6 14 14 33 125 34 193 1 65 10 71 61 39 24 -15 46 -30 49 -33
18 -23 93 -70 135 -86 28 -10 67 -30 89 -44 83 -55 94 -61 137 -69 112 -21
173 40 209 209 11 52 20 121 20 155 0 33 3 64 6 67 4 4 19 0 33 -8 45 -25 131
-55 158 -55 26 0 26 0 19 61 l-6 61 38 -7 c60 -11 193 -57 208 -72 10 -11 12
-38 7 -127 l-6 -113 48 -44 c56 -52 92 -67 160 -68 43 -1 189 30 201 42 2 2
12 40 21 85 21 98 11 95 183 52 65 -16 135 -30 156 -30 l37 0 -5 76 -5 77 81
-7 c80 -7 146 5 146 25 0 18 -47 106 -108 201 -83 130 -82 139 12 153 25 4 46
12 46 18 0 19 -68 131 -110 182 -23 28 -87 98 -142 157 -97 103 -157 176 -158
190 0 3 19 9 43 13 76 13 85 40 40 124 -27 49 -64 95 -187 231 -82 90 -142
174 -156 216 -7 19 -10 37 -8 39 2 2 25 -1 51 -7 65 -13 77 -7 70 35 -5 30 -2
35 26 46 27 12 29 16 24 45 -11 53 -179 268 -398 510 -49 54 -117 128 -149
165 -33 36 -76 82 -96 102 l-37 36 4 94 c5 107 -20 248 -57 323 -13 24 -50 68
-84 98 -33 29 -72 65 -86 79 -21 22 -142 200 -176 261 -7 11 -17 25 -23 31
-17 17 -13 24 17 30 15 4 42 15 60 26 25 16 32 28 32 51 0 29 -2 30 -45 30
-38 0 -45 3 -45 20 0 17 8 19 67 22 54 2 68 6 71 20 4 19 -110 159 -163 201
-36 29 -45 47 -22 47 25 0 50 37 43 65 -6 23 -176 195 -346 352 -88 80 -210
209 -210 222 0 6 -6 11 -14 11 -8 0 -17 8 -20 18 -12 34 -187 218 -218 228
-10 3 -18 11 -18 19 0 7 -29 43 -64 80 -36 36 -79 92 -97 123 -17 31 -40 65
-50 75 -11 10 -19 28 -19 40 0 40 -21 97 -42 117 -23 21 -68 27 -68 10 0 -5
-6 -10 -12 -10 -15 1 -121 131 -126 154 -2 11 20 22 78 40 45 14 88 26 96 26
7 0 14 8 14 19 0 22 -49 31 -169 31 -42 0 -82 4 -90 9 -9 6 -17 49 -24 135 -9
113 -12 126 -29 126 -10 0 -21 -6 -23 -12z m15 -219 l0 -81 46 7 c80 10 114
-14 49 -35 -38 -12 -37 -9 -14 -100 11 -43 12 -100 1 -100 -9 0 -72 68 -87 94
-9 16 -13 16 -47 2 -20 -9 -60 -43 -90 -77 -32 -37 -54 -56 -56 -47 -1 8 12
50 31 94 54 127 54 130 7 152 -22 10 -37 21 -34 25 4 4 33 7 65 7 l58 0 21 46
c11 26 20 54 20 64 0 18 8 30 22 30 4 0 8 -36 8 -81z m43 -309 c41 -33 80 -60
86 -60 9 0 10 17 5 60 -4 37 -3 60 3 60 12 0 61 -57 76 -88 9 -20 8 -26 -12
-42 -20 -15 -23 -23 -17 -54 6 -29 4 -36 -9 -36 -12 0 -15 -12 -15 -56 0 -40
-3 -54 -12 -51 -7 2 -21 0 -32 -5 -16 -8 -17 -17 -11 -64 7 -61 -5 -72 -30
-24 -9 18 -23 30 -35 30 -21 0 -23 -5 -20 -61 2 -45 -11 -55 -36 -28 -47 52
-84 44 -84 -18 0 -31 -2 -34 -27 -32 -63 5 -64 3 -57 -51 7 -53 5 -57 -25 -38
-30 18 -51 3 -51 -37 0 -32 -2 -34 -19 -24 -10 7 -26 9 -36 6 -14 -6 -15 -14
-10 -47 8 -49 -8 -53 -30 -9 -12 22 -22 29 -38 27 -20 -3 -22 -8 -19 -50 4
-63 -14 -70 -39 -14 -22 51 -31 56 -53 25 l-14 -21 -11 21 c-19 34 -49 27 -57
-14 -8 -42 -24 -56 -24 -21 0 23 -4 26 -35 26 -30 0 -35 3 -35 23 0 34 25 65
155 195 142 141 151 151 250 279 136 176 207 253 231 253 7 0 46 -27 87 -60z
m291 -42 c3 -13 6 -44 6 -70 0 -38 5 -50 25 -66 14 -11 25 -22 25 -25 0 -3
-26 -7 -57 -9 -50 -3 -58 -6 -61 -24 -2 -16 7 -27 33 -43 40 -23 42 -46 4 -47
-40 0 -51 -13 -49 -58 1 -22 1 -52 1 -65 l-1 -24 -24 23 c-40 37 -58 21 -50
-43 7 -62 -6 -80 -27 -39 -18 34 -27 41 -50 35 -14 -4 -19 -16 -21 -57 l-3
-51 -20 32 c-33 54 -85 43 -85 -18 0 -15 -7 -19 -36 -19 -34 0 -35 -1 -32 -32
3 -32 1 -33 -34 -36 -33 -3 -38 -6 -39 -30 -1 -15 -1 -33 0 -39 2 -15 -25 -17
-34 -3 -3 6 -19 10 -35 10 -23 0 -30 -5 -35 -30 -7 -34 -8 -34 -37 -19 -25 13
-38 -1 -38 -43 0 -34 -17 -36 -55 -6 l-28 22 -19 -28 c-20 -26 -21 -26 -46
-10 -23 15 -26 15 -37 0 -15 -20 -41 -21 -49 -1 -8 23 -53 19 -59 -5 -7 -26
-27 -26 -34 0 -9 33 -50 37 -74 6 -25 -32 -35 -27 -43 19 -6 32 -9 34 -36 28
-28 -5 -30 -3 -30 25 0 17 5 43 12 59 10 25 12 26 15 8 5 -20 29 -45 45 -45 4
0 15 15 25 33 l17 32 11 -40 c11 -36 17 -41 43 -36 5 0 14 12 20 26 15 33 29
32 37 -5 7 -32 31 -40 53 -18 9 9 16 8 30 -5 23 -21 56 -22 72 -2 8 9 21 13
36 9 19 -5 27 0 41 25 20 34 31 39 39 16 4 -11 13 -13 28 -9 26 8 36 22 36 52
0 24 10 28 26 12 6 -6 18 -8 27 -4 13 5 16 15 12 44 -5 39 -4 39 33 42 l37 3
-2 48 c-1 46 0 48 22 43 38 -10 55 3 55 40 0 26 4 34 18 34 9 0 23 -9 30 -20
20 -32 61 -26 75 10 12 32 26 37 45 18 20 -20 42 10 42 57 0 39 2 43 30 49 28
5 30 9 30 50 0 30 5 46 15 50 10 4 15 20 15 51 0 46 7 54 28 33 18 -18 33 3
39 56 4 35 10 46 23 46 10 0 20 -10 24 -22z m58 -208 c34 0 41 -5 76 -58 46
-66 207 -248 331 -373 47 -47 100 -105 116 -129 26 -37 97 -105 196 -185 135
-110 206 -177 247 -234 46 -64 40 -91 -20 -91 -17 0 -19 -4 -13 -27 3 -16 14
-32 23 -37 32 -17 183 -177 177 -186 -3 -6 -19 -10 -36 -10 -24 0 -29 4 -29
24 0 57 -63 37 -82 -26 -6 -21 -15 -38 -19 -38 -11 0 -69 73 -69 87 0 8 -12
13 -29 13 -37 0 -42 -22 -24 -100 16 -70 16 -70 -1 -70 -8 0 -22 12 -31 28
-25 40 -63 65 -104 66 -31 1 -36 -2 -39 -24 -2 -14 -7 -29 -11 -33 -5 -5 -43
9 -85 30 -90 44 -96 41 -96 -50 0 -44 -4 -59 -17 -64 -15 -6 -31 8 -100 91
-12 14 -27 26 -33 26 -16 0 -40 -63 -40 -105 0 -32 -2 -35 -29 -35 -26 0 -34
8 -63 61 -24 46 -41 65 -66 76 -42 18 -52 11 -52 -38 0 -21 -3 -39 -7 -39 -5
0 -37 18 -73 40 -36 22 -77 40 -91 40 -23 0 -27 -6 -35 -42 -9 -40 -12 -43
-39 -40 -29 2 -29 2 -11 -13 11 -8 25 -15 32 -15 16 0 44 39 44 62 0 37 96 9
125 -36 12 -18 26 -26 46 -26 27 0 29 3 29 41 0 33 3 40 17 37 10 -2 27 -19
39 -38 45 -71 75 -100 102 -100 41 0 49 10 57 67 11 82 27 81 95 -4 61 -77 74
-71 100 40 7 31 15 57 18 57 3 0 34 -16 69 -35 35 -19 68 -35 73 -35 5 0 14
16 21 35 7 19 15 35 19 35 8 -1 70 -143 70 -162 0 -21 -4 -22 -32 -7 -27 15
-68 -3 -68 -31 0 -11 9 -34 20 -52 31 -50 27 -70 -12 -66 -30 3 -33 0 -36 -25
-2 -17 8 -48 28 -81 34 -61 26 -83 -18 -47 -41 32 -71 46 -81 35 -5 -5 -5 -35
-2 -67 12 -100 -35 -119 -78 -32 -12 25 -25 45 -27 45 -19 0 -39 -39 -40 -79
-1 -25 -3 -52 -3 -58 -2 -25 -18 -12 -36 27 -16 34 -23 41 -44 38 -21 -2 -27
-9 -29 -33 -1 -16 -5 -45 -8 -64 l-5 -34 -28 34 c-25 29 -31 32 -45 20 -18
-15 -20 -56 -7 -114 11 -44 4 -51 -33 -31 -36 18 -60 18 -76 -1 -9 -11 -7 -25
14 -71 14 -31 26 -60 26 -65 0 -12 -34 -11 -46 1 -12 12 -64 -3 -64 -17 1 -13
44 -58 73 -77 41 -25 34 -58 -15 -70 -21 -5 -38 -14 -38 -19 0 -14 33 -67 42
-67 15 0 48 -44 39 -53 -10 -10 -76 8 -100 26 -10 9 -18 6 -32 -12 -17 -21
-21 -22 -32 -9 -27 35 -101 78 -132 78 -28 0 -34 -5 -50 -40 -25 -57 -55 -52
-111 16 -23 29 -43 57 -46 64 -9 27 -59 13 -94 -25 -19 -21 -34 -43 -34 -50 0
-20 -99 -155 -114 -155 -7 0 -18 12 -24 28 -16 45 -39 114 -51 159 -17 61 -47
59 -83 -5 -40 -72 -101 -137 -121 -129 -24 9 -38 70 -44 205 -4 86 -9 122 -18
122 -7 0 -31 -21 -54 -47 -23 -27 -53 -61 -66 -76 -14 -15 -25 -36 -25 -45 1
-18 34 14 97 93 17 22 34 37 37 34 3 -3 9 -63 12 -133 6 -103 11 -132 26 -152
39 -49 96 -19 153 81 31 53 46 69 56 57 4 -4 16 -40 28 -81 12 -40 34 -91 47
-113 l25 -39 43 43 c24 24 55 68 70 98 15 30 39 70 54 88 24 29 31 32 53 24
14 -6 42 -32 62 -59 21 -26 53 -59 72 -72 37 -25 41 -35 25 -75 -13 -35 -35
-33 -46 6 -5 17 -14 33 -20 35 -19 6 -44 -22 -50 -57 l-6 -35 23 33 c23 36 39
30 39 -15 0 -17 6 -23 23 -23 31 0 41 9 65 55 l20 40 15 -35 c8 -19 17 -43 20
-52 9 -26 62 -24 80 3 13 17 19 19 37 9 11 -6 33 -10 48 -8 27 3 27 4 25 71
-1 66 0 69 20 63 12 -3 39 -9 59 -12 34 -6 38 -4 44 21 7 28 -1 40 -38 59 -33
17 -32 60 2 64 36 5 43 16 35 51 -5 22 -18 38 -46 54 -55 31 -52 53 6 49 43
-4 45 -3 45 22 0 15 -9 45 -20 67 -12 22 -18 44 -15 49 3 5 23 3 47 -6 22 -7
45 -14 50 -14 6 0 9 29 8 68 -1 37 -2 73 -1 80 1 16 21 16 21 -1 0 -20 37 -50
53 -44 9 3 17 29 22 71 3 36 10 66 15 66 4 0 15 -18 24 -40 17 -42 40 -60 57
-43 5 5 12 37 15 71 4 35 11 65 15 68 5 2 17 -13 29 -36 17 -33 26 -40 50 -40
43 0 65 37 57 95 -8 53 6 59 43 20 13 -14 32 -25 41 -25 45 0 46 81 2 124 -32
32 -23 45 27 40 38 -5 40 -4 40 22 0 15 -13 51 -29 80 -17 28 -28 54 -25 57 3
3 21 -1 39 -9 46 -19 54 -18 66 10 9 20 5 34 -25 91 -35 66 -36 92 -4 80 8 -3
20 -17 26 -31 12 -24 27 -29 56 -18 18 7 23 79 6 89 -5 3 -10 19 -10 35 0 38
22 31 50 -16 12 -18 41 -47 65 -63 37 -25 49 -28 90 -23 45 5 47 4 36 -16 -9
-16 -25 -23 -71 -28 -54 -6 -59 -9 -62 -33 -2 -20 -10 -27 -33 -31 -28 -5 -30
-7 -27 -49 2 -42 1 -43 -23 -37 -34 9 -42 -13 -22 -63 17 -42 12 -51 -34 -51
-23 0 -25 -33 -4 -70 20 -36 19 -40 -15 -40 -25 0 -30 -4 -30 -25 0 -14 9 -34
20 -45 29 -29 25 -40 -12 -38 -30 3 -33 0 -42 -37 -12 -52 -14 -53 -32 -27
-22 32 -50 28 -63 -8 -11 -33 -14 -35 -42 -19 -33 17 -57 2 -61 -38 -4 -43
-19 -52 -33 -21 -6 13 -20 24 -31 26 -17 2 -25 -6 -38 -38 -9 -22 -16 -53 -17
-68 0 -25 -1 -25 -10 -7 -6 12 -20 27 -31 34 -31 19 -50 -6 -56 -73 -2 -31 -8
-56 -13 -56 -5 0 -9 6 -9 14 0 24 -19 29 -45 12 -31 -21 -31 -37 0 -74 14 -17
25 -32 25 -35 0 -3 -16 -8 -35 -11 -19 -4 -35 -11 -35 -17 0 -17 22 -52 44
-71 l21 -17 -26 -1 c-54 0 -62 -52 -14 -84 32 -21 32 -34 0 -42 -23 -6 -25
-11 -25 -61 0 -49 -2 -54 -17 -48 -38 16 -65 17 -74 4 -4 -8 -11 -37 -15 -66
-3 -29 -8 -53 -11 -53 -2 0 -11 7 -19 15 -26 25 -63 19 -82 -15 -21 -36 -30
-38 -42 -5 -7 18 -17 25 -35 25 -24 0 -37 -10 -69 -55 -13 -18 -15 -17 -27 23
-10 33 -17 42 -35 42 -25 0 -54 -24 -54 -46 0 -21 -18 -17 -30 6 -29 54 -80
-10 -80 -99 0 -60 -24 -88 -40 -47 -12 31 -35 34 -51 5 -10 -20 -8 -54 6 -91
12 -31 -21 -21 -49 14 -24 31 -25 32 -45 14 -11 -10 -23 -31 -26 -47 -8 -33
-21 -38 -30 -10 -13 42 -31 44 -68 6 -33 -34 -67 -46 -67 -25 0 26 -33 20 -70
-14 -54 -48 -70 -47 -63 4 4 31 2 41 -11 46 -18 7 -76 -14 -76 -27 0 -11 -50
-32 -58 -24 -3 2 -8 22 -11 42 -8 50 -39 52 -62 5 -16 -35 -35 -52 -57 -52
-10 0 -12 15 -6 69 6 67 6 68 -18 73 -14 3 -35 1 -48 -4 -32 -12 -36 -3 -17
37 28 58 24 64 -42 67 l-60 3 19 40 c28 59 26 67 -17 64 -21 -1 -44 -1 -50 0
-20 2 -15 25 7 39 33 21 25 50 -17 61 -21 6 -43 11 -49 11 -7 0 -15 7 -18 15
-5 15 27 35 55 35 6 0 9 12 7 27 -2 19 -12 32 -31 41 -29 14 -28 32 3 32 25 0
31 11 21 46 -6 23 -14 30 -42 34 -37 5 -56 40 -22 40 10 0 26 7 36 15 29 21
13 52 -34 66 -21 7 -39 15 -39 20 0 10 27 19 58 19 15 0 34 5 42 10 26 16 -19
64 -66 70 -56 7 -59 35 -5 50 33 9 41 15 41 33 0 33 -19 47 -62 47 -43 0 -51
20 -19 48 15 14 17 23 10 49 -11 38 -44 53 -63 27 -8 -10 -20 -15 -29 -11 -15
5 -14 11 5 56 26 65 14 86 -44 77 -34 -6 -38 -4 -38 15 0 70 46 129 101 129
20 0 20 0 0 -29 -25 -34 -28 -71 -6 -71 9 0 32 7 52 15 43 18 43 18 43 2 0 -8
-9 -22 -20 -32 -11 -10 -20 -29 -20 -43 0 -23 3 -24 38 -17 20 3 47 9 60 12
30 7 29 -17 -3 -47 -27 -25 -34 -74 -12 -83 6 -2 33 2 60 11 26 8 50 12 54 8
4 -3 -10 -23 -29 -44 -33 -34 -42 -55 -39 -89 1 -8 15 -13 34 -13 l32 -1 -27
-20 c-20 -14 -28 -30 -28 -50 0 -28 2 -29 45 -29 25 0 45 -3 45 -7 0 -5 -15
-18 -34 -30 -19 -12 -35 -32 -38 -47 -5 -26 -4 -26 53 -26 33 0 59 -4 59 -10
0 -5 -18 -20 -40 -32 -65 -37 -65 -62 0 -73 22 -4 40 -11 40 -16 0 -5 -16 -19
-36 -31 -48 -28 -44 -60 9 -69 53 -8 53 -14 2 -33 -50 -20 -67 -41 -58 -75 5
-20 10 -22 37 -16 65 14 106 17 106 8 0 -5 -13 -24 -30 -43 -52 -61 -30 -100
34 -62 19 11 36 18 39 16 3 -3 -2 -30 -10 -60 -24 -93 4 -121 67 -67 l31 26
-3 -69 c-3 -64 -1 -69 18 -72 13 -2 35 11 61 38 22 22 43 40 46 40 3 0 3 -16
0 -34 -8 -50 3 -86 27 -86 27 0 59 34 66 70 4 16 12 31 20 34 11 4 14 -6 14
-42 0 -63 19 -90 59 -84 26 4 31 10 41 51 18 74 25 80 49 34 11 -22 27 -43 36
-47 56 -21 85 12 85 96 0 32 3 58 6 58 3 0 17 -13 31 -30 13 -16 31 -30 39
-30 23 0 38 42 35 98 -2 56 2 61 30 36 10 -9 25 -14 34 -11 19 8 20 27 2 27
-8 0 -22 9 -32 20 -10 11 -26 20 -37 20 -16 0 -18 -9 -18 -80 0 -73 -2 -80
-20 -80 -11 0 -20 4 -20 9 0 4 -9 20 -20 34 -33 42 -49 25 -52 -56 l-3 -72
-32 -3 c-29 -3 -33 1 -52 43 -18 41 -23 45 -40 36 -18 -10 -31 -39 -45 -104
-5 -20 -12 -27 -24 -25 -17 3 -24 26 -37 111 -8 54 -31 47 -63 -20 -39 -82
-56 -77 -53 15 1 39 -2 72 -6 72 -17 0 -53 -41 -68 -75 -7 -19 -18 -35 -24
-35 -5 0 -16 -2 -24 -5 -11 -5 -12 5 -5 61 5 37 7 73 4 80 -8 22 -34 16 -52
-11 -23 -35 -44 -32 -44 6 0 17 4 38 9 47 4 9 11 29 15 43 8 38 -14 43 -57 13
-64 -43 -72 -31 -26 39 17 26 28 51 24 57 -9 14 -45 12 -94 -5 -38 -13 -41
-13 -41 3 0 11 18 24 53 37 43 17 53 25 55 47 3 28 -4 33 -68 40 l-25 3 27 19
c15 10 44 20 65 23 35 5 39 3 50 -26 13 -35 21 -37 49 -16 19 14 19 14 -3 15
-13 0 -29 13 -43 35 -28 45 -47 55 -104 55 -57 0 -61 19 -11 50 20 13 35 30
35 41 0 16 -7 19 -56 19 -47 0 -55 3 -52 17 2 9 24 27 51 40 26 13 47 28 47
34 0 15 -42 26 -82 21 -53 -6 -51 20 5 54 72 46 72 64 -4 64 -27 0 -49 4 -49
9 0 5 16 28 35 51 62 75 34 104 -57 60 -23 -11 -43 -20 -45 -20 -11 0 2 31 33
76 46 67 40 78 -37 70 -33 -4 -59 -5 -59 -3 0 2 11 18 25 37 14 19 25 38 25
42 0 4 -25 8 -55 8 -30 0 -55 3 -55 6 0 3 9 17 20 31 40 51 23 64 -50 38 -24
-8 -45 -13 -48 -10 -3 3 7 22 21 42 37 52 21 63 -45 34 -29 -12 -59 -25 -67
-28 -10 -5 -12 1 -6 28 4 19 8 41 9 49 2 25 -49 23 -104 -5 l-52 -26 3 47 c2
29 -1 49 -8 51 -6 2 -29 -12 -51 -31 -22 -20 -42 -36 -46 -36 -3 0 -6 31 -6
69 l0 69 62 54 c83 70 139 120 215 192 35 33 64 55 64 50 4 -23 6 -41 8 -66 1
-26 4 -28 46 -28 25 0 62 7 82 15 19 8 62 15 95 15 38 0 77 8 109 21 27 12 52
20 54 17 6 -6 9 -267 3 -273 -3 -3 -16 16 -30 42 -32 63 -67 71 -92 20 -20
-43 -20 -87 -2 -132 38 -89 163 -90 230 -2 24 32 26 44 35 207 9 165 11 175
33 192 13 10 34 18 47 18 21 0 23 -3 17 -32 -13 -72 -19 -218 -9 -218 6 0 29
7 51 14 23 8 43 12 46 8 2 -4 -4 -41 -15 -82 -25 -99 -25 -162 0 -184 33 -30
65 -4 121 101 74 136 100 126 100 -37 0 -96 27 -114 64 -42 13 24 23 32 44 32
24 0 32 -8 55 -55 15 -31 27 -63 27 -72 0 -9 -27 -42 -60 -74 -96 -92 -76
-101 73 -32 l77 36 76 -79 c42 -43 78 -74 80 -69 2 6 -5 53 -15 105 -10 52
-17 98 -15 101 2 3 33 14 69 24 49 13 65 22 65 35 0 15 -14 21 -71 30 -85 15
-90 22 -82 138 4 50 2 82 -4 82 -5 0 -29 -36 -54 -80 -50 -90 -59 -94 -157
-65 -43 13 -52 20 -52 39 0 13 7 29 15 36 13 10 22 8 53 -14 47 -32 59 -33 68
-3 4 12 20 50 37 85 26 55 33 62 58 62 16 0 29 -3 29 -7 0 -10 60 -78 60 -69
0 10 -37 78 -53 99 -20 24 -50 21 -80 -8 -27 -28 -57 -84 -57 -108 0 -8 -7
-20 -15 -27 -13 -11 -21 -9 -45 8 -16 12 -34 22 -39 22 -17 0 -58 -50 -82
-101 -12 -27 -26 -49 -29 -49 -4 0 -9 30 -12 68 -5 72 -21 109 -52 118 -24 8
-36 -6 -81 -91 -21 -38 -49 -82 -63 -97 -32 -35 -56 -37 -49 -5 15 63 38 240
33 254 -6 16 -40 15 -80 -2 -19 -8 -19 -4 -13 113 l7 122 -33 0 c-18 0 -38 -5
-44 -11 -17 -17 -33 -2 -33 31 0 33 -15 41 -61 31 -26 -5 -39 -16 -55 -46 -12
-25 -43 -56 -79 -81 -61 -43 -87 -48 -275 -57 l-35 -2 0 75 0 75 -41 -3 c-38
-3 -41 -1 -50 26 l-9 30 -90 -24 c-49 -13 -91 -24 -92 -24 -2 0 -3 4 -3 9 0
21 103 110 199 171 91 58 148 100 349 252 40 31 55 38 65 29 8 -6 29 -12 48
-15 28 -3 35 -9 43 -35 10 -35 44 -43 66 -16 18 22 27 19 47 -15 21 -37 31
-37 58 -3 l22 26 21 -21 c29 -29 46 -28 60 3 l12 26 27 -26 c36 -33 50 -32 58
5 7 30 36 42 50 20 9 -15 52 -12 58 4 3 8 21 16 39 18 28 3 33 8 41 41 9 38
30 49 41 22 3 -8 14 -15 24 -15 18 0 18 -3 4 -69 -18 -81 -12 -122 27 -183 23
-37 38 -48 79 -61 96 -32 160 -19 214 41 14 16 32 32 39 34 8 3 14 32 16 84 4
69 2 85 -19 123 -49 91 -168 116 -272 58 -25 -14 -47 -22 -50 -19 -3 3 -6 23
-6 45 0 38 1 39 27 32 54 -13 63 -9 63 26 0 29 2 30 38 27 l37 -3 -3 48 c-4
51 12 64 28 22 5 -14 14 -25 19 -25 5 0 16 -2 24 -6 9 -3 19 6 27 25 13 32 26
39 32 19 10 -30 43 7 68 76 8 22 14 26 22 18 7 -7 23 -12 36 -12 24 0 24 0 17
75 -4 41 -4 75 0 75 3 0 15 -4 25 -10 53 -28 68 34 20 82 -36 35 -37 42 -7 34
12 -3 39 -6 59 -6z m-244 -567 c22 -32 46 -134 38 -161 -9 -26 -70 -88 -107
-107 -38 -20 -81 -14 -140 19 -57 33 -79 70 -79 132 0 46 4 56 41 98 l41 46
93 0 c91 0 94 -1 113 -27z m-118 -948 l0 -64 38 -7 c60 -11 69 -20 24 -27 -54
-9 -64 -24 -53 -81 13 -72 -12 -72 -55 0 -10 17 -12 17 -58 0 -26 -10 -50 -15
-53 -12 -4 3 6 19 22 36 28 30 29 60 1 60 -16 0 -52 58 -42 68 3 3 23 0 45 -6
57 -18 59 -17 88 43 15 30 31 55 35 55 4 0 8 -29 8 -65z m-1769 22 c22 -6 29
-16 39 -57 7 -27 15 -50 19 -50 4 0 16 26 26 58 l19 57 6 -47 c8 -63 20 -75
54 -53 14 10 26 21 26 26 0 5 7 9 15 9 10 0 15 -10 15 -29 0 -17 4 -33 10 -36
5 -3 42 8 81 25 40 17 73 29 75 27 2 -2 -6 -22 -17 -45 -25 -50 -19 -78 14
-67 68 21 67 21 67 -29 0 -44 -1 -46 -27 -46 -16 0 -43 -9 -60 -20 l-33 -20 0
45 c0 34 -4 45 -15 45 -24 0 -75 -29 -75 -43 0 -6 -5 -4 -11 5 -5 10 -9 24 -8
30 6 47 -30 50 -116 12 -68 -30 -83 -23 -61 29 19 46 11 51 -64 43 -68 -8 -86
5 -39 29 28 15 31 20 25 48 -18 97 -18 93 -4 76 7 -9 25 -19 39 -22z m3119
-107 c19 -17 40 -30 46 -30 7 0 36 -37 65 -82 73 -116 144 -203 185 -228 48
-30 85 -82 91 -129 l5 -40 -83 2 c-72 2 -90 -1 -125 -21 -77 -45 -121 -142
-110 -248 5 -49 3 -63 -8 -67 -8 -3 -18 -29 -23 -59 -9 -55 -13 -58 -63 -44
-23 7 -23 5 8 -24 42 -39 56 -30 79 52 9 32 21 58 26 58 6 0 45 -18 88 -40 43
-22 89 -40 103 -40 17 0 41 15 67 40 23 22 50 40 61 40 19 0 138 -106 197
-175 14 -16 33 -36 41 -45 8 -8 36 -42 61 -75 26 -33 84 -103 130 -156 152
-173 172 -198 211 -265 21 -36 38 -69 38 -74 0 -4 -13 -13 -30 -19 -23 -7 -30
-16 -30 -35 0 -36 -30 -34 -68 4 -17 17 -35 30 -41 30 -16 0 -84 71 -98 103
-8 18 -20 27 -35 27 -13 0 -43 19 -68 41 -56 50 -118 80 -173 82 -42 2 -42 2
-53 -42 -14 -59 -36 -69 -117 -52 -34 7 -66 17 -71 22 -29 27 -81 -15 -116
-94 -29 -66 -53 -80 -117 -68 -28 6 -70 20 -94 33 -24 12 -64 25 -89 28 -53 6
-51 -9 -30 215 15 161 10 294 -13 348 -15 36 -19 38 -54 35 -36 -3 -38 -5 -57
-63 -18 -52 -20 -87 -21 -263 0 -186 -1 -202 -17 -202 -15 0 -18 9 -18 50 0
28 -7 66 -14 85 -13 30 -20 35 -49 35 -28 0 -40 -7 -62 -36 -59 -77 -52 -150
21 -213 60 -53 109 -70 174 -61 82 11 97 -4 120 -114 15 -74 9 -81 -66 -67
-81 15 -80 16 -101 -35 -16 -41 -21 -45 -45 -40 -15 3 -57 26 -93 51 -98 67
-101 65 -109 -57 -9 -139 -13 -158 -37 -158 -11 0 -52 24 -92 54 -109 81 -213
146 -233 146 -15 0 -16 -8 -8 -92 13 -138 11 -303 -5 -322 -15 -18 -51 -22
-51 -6 0 6 -7 10 -15 10 -8 0 -15 3 -15 8 0 4 -12 21 -26 37 -14 17 -6 2 17
-33 23 -35 46 -65 51 -68 4 -3 21 8 37 24 38 37 45 87 39 259 -5 113 -3 133 9
133 27 0 78 -30 128 -75 56 -51 119 -90 157 -100 44 -11 61 27 66 151 4 101 5
104 26 98 11 -3 35 -20 51 -37 33 -33 82 -57 117 -57 17 0 30 13 50 50 25 45
30 49 52 40 13 -5 46 -10 73 -12 l48 -3 3 53 c2 36 -4 71 -18 109 -11 31 -19
62 -16 70 9 23 86 15 151 -17 74 -36 123 -39 153 -7 11 12 35 50 52 85 17 34
34 62 38 62 4 0 44 -7 90 -17 77 -15 86 -15 117 0 26 12 37 26 46 57 12 41 13
41 48 35 50 -9 108 -45 160 -99 l44 -45 -29 -29 c-31 -30 -88 -72 -99 -72 -3
0 -11 14 -17 31 -16 48 -47 36 -83 -33 -16 -32 -33 -58 -36 -58 -4 0 -12 14
-19 30 -16 37 -43 55 -58 37 -6 -7 -12 -37 -14 -67 l-3 -55 -40 -1 c-67 -2
-67 -2 -60 -26 12 -41 30 -78 37 -78 5 0 8 -7 8 -15 0 -8 -9 -15 -20 -15 -11
0 -36 -7 -55 -14 -28 -12 -35 -20 -35 -43 1 -29 22 -60 55 -79 44 -25 13 -44
-71 -44 -19 0 -34 -3 -34 -6 0 -4 21 -29 46 -56 54 -58 53 -74 -4 -70 -55 5
-84 -12 -80 -46 2 -19 13 -31 35 -42 52 -24 42 -40 -27 -40 -51 0 -60 -3 -60
-18 0 -10 14 -34 30 -52 27 -31 39 -60 24 -60 -4 0 -29 8 -56 18 -48 16 -50
16 -63 -2 -12 -16 -11 -23 6 -54 10 -20 19 -45 19 -54 0 -26 -27 -22 -46 7
-18 28 -53 42 -64 25 -4 -6 -6 -31 -5 -56 1 -39 -1 -45 -18 -42 -14 2 -24 17
-34 51 -7 26 -19 47 -26 47 -7 0 -23 -13 -37 -30 -14 -16 -28 -30 -32 -30 -4
0 -8 26 -10 57 -3 49 -6 58 -22 58 -10 0 -26 -11 -34 -23 -15 -22 -14 -23 4
-20 17 3 19 -4 22 -59 2 -37 7 -63 14 -63 6 0 29 17 51 37 l41 37 7 -32 c4
-18 12 -39 19 -47 19 -22 64 -15 68 10 10 71 24 82 57 45 19 -21 60 -27 70
-10 4 6 -1 35 -10 66 -9 31 -14 59 -11 62 3 3 17 0 31 -6 14 -7 39 -12 55 -12
26 0 30 4 30 29 0 17 -11 42 -26 60 l-26 31 56 0 c30 0 58 5 61 11 13 20 -6
59 -36 74 -41 22 -32 39 22 43 77 5 95 64 32 104 -32 19 -35 23 -18 26 105 18
117 37 60 96 -57 59 -43 86 43 86 28 0 32 3 32 26 0 14 -10 43 -22 64 -13 21
-20 42 -16 45 3 4 23 -1 43 -10 19 -10 39 -15 42 -11 4 3 9 33 11 66 5 67 13
75 32 30 9 -21 19 -30 35 -30 19 0 27 10 42 57 22 66 40 79 45 32 2 -18 11
-37 20 -43 14 -9 21 -6 35 14 29 41 69 80 76 74 3 -4 4 -26 0 -49 -3 -24 -1
-45 5 -49 5 -3 29 1 52 9 52 18 50 18 50 -1 0 -29 -40 -74 -66 -74 -16 0 -28
-8 -36 -25 -15 -33 -24 -32 -32 7 -16 79 -73 77 -93 -3 -9 -32 -12 -34 -57
-37 l-48 -3 4 -47 c3 -49 4 -48 -45 -51 -16 -1 -18 -8 -15 -53 l3 -53 -29 3
c-27 4 -28 2 -22 -24 4 -15 16 -40 27 -55 20 -28 15 -38 -25 -53 -16 -6 -18
-13 -11 -71 6 -58 5 -66 -12 -71 -57 -18 -62 -25 -65 -83 -3 -55 -3 -56 -35
-59 l-33 -3 0 -66 0 -65 -47 4 -48 3 -3 -46 c-3 -50 -14 -59 -74 -59 -22 0
-29 -8 -49 -55 -26 -63 -42 -69 -55 -23 -9 31 -12 33 -49 29 -22 -1 -45 -10
-51 -19 -11 -15 -14 -14 -25 11 -17 37 -54 46 -83 18 -37 -35 -62 -28 -72 21
-11 51 -31 59 -75 27 -34 -24 -34 -24 -64 32 -7 14 -21 31 -29 38 -20 17 -43
0 -63 -46 -15 -38 -23 -40 -48 -13 -20 22 -37 25 -65 10 -15 -8 -17 -16 -10
-47 11 -46 2 -53 -62 -53 -56 0 -64 -10 -44 -52 26 -52 22 -58 -38 -58 -36 0
-60 -5 -70 -16 -19 -19 -19 -17 -2 -59 17 -41 12 -45 -44 -43 -49 2 -60 -10
-60 -69 0 -49 -10 -53 -60 -26 l-31 18 -29 -33 c-23 -24 -30 -42 -30 -72 0
-46 -10 -50 -48 -15 -44 41 -101 25 -103 -28 0 -12 -4 -31 -8 -41 -7 -17 -10
-16 -38 14 -29 31 -34 33 -58 22 -26 -12 -27 -15 -23 -80 3 -62 2 -67 -17 -63
-11 2 -38 4 -60 5 -35 1 -40 -2 -43 -23 -2 -13 1 -28 7 -34 17 -17 13 -37 -8
-37 -11 0 -27 -10 -35 -22 -14 -20 -14 -24 6 -45 12 -12 29 -25 40 -29 33 -10
22 -41 -18 -49 -31 -5 -35 -9 -30 -28 4 -12 9 -37 13 -54 l6 -33 -57 0 -56 0
0 -60 c0 -51 -3 -60 -18 -60 -10 0 -29 11 -42 25 -24 26 -50 33 -50 15 0 -19
-70 -121 -79 -116 -5 3 -8 17 -8 31 -1 14 -7 33 -16 43 -9 9 -15 22 -14 27 1
6 -10 11 -25 13 -19 2 -38 -7 -66 -32 -64 -58 -76 -45 -46 53 11 37 22 54 38
61 24 9 36 29 36 61 0 10 5 19 10 19 6 0 10 -10 10 -22 0 -13 9 -42 19 -65 16
-33 23 -40 40 -36 12 3 22 17 26 34 9 39 23 45 46 20 12 -12 32 -21 49 -21
l30 0 0 66 c0 59 2 65 18 58 9 -4 34 -9 55 -12 35 -4 37 -2 37 23 0 15 -13 44
-30 65 -36 46 -37 56 -6 64 27 7 42 44 21 52 -11 5 -45 72 -45 89 0 3 18 5 40
5 42 0 60 18 60 62 0 21 4 23 40 20 l40 -4 0 53 c0 30 5 61 10 69 8 13 12 12
25 -7 9 -13 20 -23 26 -23 20 0 49 41 49 70 0 42 16 37 27 -7 8 -35 12 -38 43
-38 30 0 35 4 41 31 12 63 15 66 46 51 57 -29 71 -30 88 -4 15 23 14 27 -6 61
-25 42 -9 50 34 16 14 -11 39 -20 56 -20 30 0 31 2 31 41 0 38 2 41 23 34 12
-4 34 -9 50 -12 25 -5 27 -3 27 27 0 17 -5 40 -10 51 -15 28 -4 40 25 29 16
-6 34 -6 51 0 23 9 25 14 18 42 -3 18 -13 43 -22 56 -20 31 -4 47 31 31 21 -9
33 -9 52 -1 23 11 25 17 25 82 0 38 3 70 7 70 3 0 18 -14 33 -32 l27 -31 22
22 c12 12 24 35 28 51 6 32 17 38 30 16 17 -29 48 -27 78 4 36 38 43 38 47 -2
4 -44 45 -61 75 -31 11 11 23 27 26 34 3 8 6 2 6 -13 3 -89 53 -104 97 -28 6
12 2 11 -19 -2 -43 -29 -50 -24 -42 32 l7 50 -30 0 c-21 0 -35 -8 -46 -25 -23
-36 -36 -31 -36 14 0 22 -6 44 -15 51 -13 11 -22 6 -55 -30 -42 -46 -63 -48
-68 -8 -3 28 -23 41 -47 32 -8 -3 -22 -33 -31 -66 l-17 -59 -33 32 c-56 54
-83 26 -67 -72 5 -33 7 -62 3 -64 -4 -3 -30 1 -58 9 -81 21 -108 -15 -57 -76
14 -16 25 -38 25 -49 0 -23 0 -23 -36 -4 -16 8 -39 15 -51 15 -27 0 -29 -24
-8 -85 8 -21 12 -41 9 -44 -2 -3 -25 5 -49 17 -66 32 -68 30 -60 -33 5 -45 4
-55 -8 -55 -8 0 -20 7 -28 16 -12 14 -61 44 -74 44 -9 0 -6 -67 5 -96 13 -33
8 -38 -24 -30 -26 6 -35 14 -60 51 -23 32 -45 4 -48 -63 -4 -75 -28 -79 -45
-8 -15 61 -25 71 -52 57 -17 -10 -21 -21 -21 -61 0 -38 -4 -50 -15 -50 -8 0
-15 6 -15 13 0 8 -8 21 -18 30 -33 30 -52 3 -57 -78 -2 -38 -8 -71 -14 -73 -5
-2 -20 9 -34 24 -37 40 -61 27 -51 -29 12 -74 14 -71 -38 -68 l-48 3 0 -39 c0
-38 23 -76 51 -85 19 -6 3 -38 -19 -38 -10 0 -26 -6 -36 -13 -17 -13 -15 -17
28 -66 63 -71 61 -87 -8 -55 -56 27 -69 15 -63 -57 4 -56 3 -60 -15 -57 -14 2
-26 18 -37 48 -25 67 -46 64 -60 -10 -7 -33 -16 -60 -21 -60 -8 0 -12 14 -25
93 -3 20 -10 37 -15 37 -25 0 -40 -16 -51 -56 -9 -31 -19 -44 -31 -44 -15 0
-18 9 -18 65 l0 65 -40 0 -40 0 0 65 c0 63 -1 65 -25 65 -19 0 -29 -9 -42 -35
-22 -46 -47 -48 -39 -3 20 114 19 168 -4 168 -5 0 -25 -14 -45 -31 -20 -18
-38 -29 -41 -26 -8 7 15 88 32 111 39 56 -4 75 -59 26 -58 -50 -58 -19 0 61
46 64 44 73 -17 67 -43 -4 -50 -3 -48 11 2 9 21 24 43 35 44 20 75 44 75 58 0
4 -16 16 -35 25 -19 9 -35 22 -35 29 0 20 27 42 62 49 44 10 108 43 108 56 0
31 -22 49 -60 49 -22 0 -40 4 -40 9 0 8 63 94 87 119 33 34 -4 70 -47 46 -32
-17 -40 -17 -40 1 0 8 4 15 9 15 10 0 61 72 61 88 0 6 -22 12 -55 14 l-56 3
30 35 c17 19 30 46 31 59 0 22 -3 23 -37 18 -21 -4 -50 -9 -65 -13 -37 -8 -37
11 0 56 28 34 52 73 52 84 0 10 -45 7 -79 -5 -45 -16 -48 -6 -14 38 65 82 69
121 11 101 -18 -6 -35 -15 -38 -19 -8 -12 -60 -22 -60 -12 0 5 16 35 35 67 29
48 32 58 18 63 -14 6 -28 2 -85 -22 -15 -6 -14 1 7 54 14 33 25 68 25 76 0 27
-27 27 -68 1 -22 -14 -42 -22 -45 -20 -3 3 6 29 19 57 13 29 24 58 24 65 0 26
-63 5 -88 -30 -25 -34 -35 -21 -27 37 l6 55 -30 0 c-22 0 -35 -8 -51 -30 -29
-41 -50 -39 -50 4 0 26 6 38 27 52 16 9 42 32 58 49 31 33 135 80 190 87 28 3
30 0 37 -37 42 -238 54 -275 86 -275 10 0 44 7 75 15 32 8 62 15 66 15 5 0 11
-73 13 -162 5 -163 18 -228 43 -228 15 0 60 36 117 93 57 58 118 107 133 107
7 0 15 -14 19 -32 11 -55 54 -134 90 -166 58 -51 143 -55 249 -10 64 26 82 41
109 90 12 21 24 38 27 38 3 0 31 -29 61 -64 30 -35 63 -66 73 -69 22 -7 27 7
52 126 10 51 24 91 31 94 21 8 98 -42 143 -93 23 -26 44 -45 46 -42 9 8 -116
132 -157 155 -45 27 -52 21 -73 -68 -23 -96 -37 -139 -46 -139 -4 0 -27 22
-52 50 -36 40 -50 68 -73 141 -42 138 -110 199 -221 199 -68 -1 -120 -28 -181
-94 -28 -32 -73 -69 -99 -83 -27 -13 -89 -65 -139 -114 -50 -49 -96 -89 -101
-89 -12 0 -22 119 -23 269 0 57 -3 108 -6 112 -9 15 -51 10 -105 -11 -72 -27
-84 -18 -99 72 -7 40 -20 107 -29 148 -14 65 -19 75 -40 78 -58 9 -232 -72
-354 -164 -67 -51 -83 -59 -88 -45 -4 9 -1 23 5 31 22 27 76 201 76 244 0 41
-89 8 -285 -107 -52 -31 -92 -47 -114 -47 l-34 0 6 48 c3 26 7 56 9 67 4 29
-42 21 -125 -22 -86 -45 -80 -55 7 -13 37 17 70 29 75 26 4 -3 6 -35 3 -71 -3
-50 -1 -66 10 -70 19 -7 118 30 223 82 99 50 168 76 189 71 13 -3 13 -8 -5
-48 -43 -95 -147 -228 -169 -215 -5 3 -10 21 -10 39 0 19 -6 39 -14 45 -19 16
-62 -2 -71 -28 -7 -22 -41 -29 -47 -10 -3 8 -15 9 -37 4 -26 -6 -36 -15 -51
-50 -18 -43 -58 -81 -71 -67 -4 4 -12 24 -19 44 -6 21 -15 40 -20 43 -16 10
-41 -8 -55 -41 -24 -58 -55 -40 -55 32 0 27 -4 34 -19 34 -11 0 -29 -12 -40
-26 -23 -29 -41 -24 -41 12 0 17 19 44 58 84 32 33 57 60 56 60 -1 0 -15 -7
-30 -15 -16 -8 -39 -15 -52 -15 -20 0 -23 4 -18 28 27 137 11 228 -49 281 -20
17 -48 34 -63 37 -15 4 -30 9 -34 11 -13 7 26 90 59 128 47 53 70 46 103 -33
28 -67 52 -98 68 -88 5 3 13 46 16 96 7 78 10 90 24 86 47 -14 156 -26 164
-18 6 6 -15 30 -51 62 -34 29 -61 59 -61 67 0 8 14 34 30 58 40 58 39 67 -10
59 -52 -8 -54 12 -5 63 20 21 57 70 82 109 31 46 63 82 97 104 107 72 251 160
263 160 8 0 6 -13 -7 -42 -20 -43 -25 -79 -14 -91 4 -3 35 5 70 18 l64 24 0
-24 c0 -14 1 -28 3 -32 1 -3 -15 -16 -35 -27 -57 -32 -83 -59 -109 -112 -60
-122 3 -283 118 -300 64 -9 122 0 179 28 48 24 55 32 91 113 22 49 70 77 88
52 6 -8 27 -18 48 -22 51 -10 67 -32 32 -45 -14 -5 -31 -10 -36 -10 -11 0 -12
-30 -1 -47 4 -6 20 -15 35 -18 35 -9 34 -22 -2 -30 -58 -12 -50 -58 15 -86 48
-20 51 -26 30 -54 -23 -31 -3 -55 44 -55 45 0 47 -5 24 -54 -25 -51 -15 -65
42 -58 45 5 47 4 42 -19 -3 -13 -9 -31 -12 -40 -11 -25 20 -49 64 -49 l38 0
-6 -65 c-6 -81 8 -90 72 -46 l45 31 3 -32 c2 -28 8 -34 30 -36 20 -2 35 4 50
22 13 14 36 28 51 32 27 6 28 6 21 -35 -5 -33 -3 -42 11 -47 10 -4 27 -1 39 6
11 7 36 22 54 33 l33 19 16 -41 c9 -22 22 -41 29 -41 7 0 25 27 41 60 15 33
32 60 39 60 6 0 15 -16 18 -35 6 -28 11 -35 30 -35 28 0 39 13 56 63 11 35 13
37 29 23 21 -19 91 -22 91 -3 0 6 -4 28 -10 47 -12 42 0 57 25 30 10 -11 28
-20 39 -20 20 0 21 4 18 68 -4 69 9 122 29 122 8 0 9 -11 5 -31 -6 -33 6 -59
28 -59 7 0 22 23 33 50 25 58 48 65 61 18 13 -51 45 -49 77 3 30 46 43 43 54
-13 5 -26 12 -33 31 -33 19 0 26 8 38 43 16 50 41 55 75 16 33 -38 53 -24 56
37 2 48 15 99 25 99 3 0 17 -11 32 -25 53 -49 65 -30 48 74 l-5 33 56 -5 c53
-5 84 -23 85 -50 0 -5 12 -7 27 -5 36 4 53 38 53 111 l0 57 34 0 c25 0 44 -9
68 -30 18 -17 39 -29 47 -28 29 6 53 56 63 131 11 76 11 77 37 70 33 -7 74
-28 131 -65 l45 -30 -58 56 c-57 55 -102 76 -144 68 -25 -5 -37 -37 -48 -134
-3 -32 -11 -60 -16 -64 -6 -3 -27 5 -47 18 -102 67 -132 60 -132 -32 0 -42 -5
-64 -19 -81 l-19 -23 -33 26 c-19 14 -56 47 -84 74 l-49 48 30 12 c17 7 36 19
43 28 10 12 9 17 -8 26 -29 15 -26 38 4 46 18 4 25 13 25 29 0 13 -4 27 -10
30 -17 10 -11 25 9 25 28 0 34 14 35 83 2 65 20 88 32 40 15 -64 49 -62 59 3
3 19 7 50 10 69 8 46 28 44 50 -5 30 -66 55 -49 55 36 0 36 3 44 19 44 12 0
21 -9 25 -24 6 -24 31 -41 46 -31 4 2 10 23 14 45 7 45 21 52 30 15 5 -20 13
-25 36 -25 29 0 30 1 30 50 l0 50 33 -2 c31 -3 32 -2 31 32 -1 19 -5 45 -9 58
-6 18 -4 22 14 22 30 0 35 21 17 65 -9 21 -16 39 -16 41 0 2 15 4 34 4 25 0
35 5 39 20 3 14 14 20 31 20 33 0 34 28 6 100 -11 28 -20 53 -20 55 0 13 29 1
60 -25z m-3126 -82 c3 -13 6 -35 6 -50 0 -36 21 -36 94 -3 71 32 100 33 93 3
-12 -46 30 -62 73 -28 33 25 40 25 40 -3 0 -13 6 -31 13 -40 11 -15 15 -15 56
3 50 23 64 19 51 -16 -15 -38 -12 -84 4 -84 7 0 27 7 42 15 40 20 58 19 49 -2
-18 -41 -28 -91 -22 -106 7 -18 67 -24 67 -7 0 6 5 10 10 10 16 0 12 -36 -6
-50 -8 -8 -14 -25 -12 -39 2 -20 11 -27 45 -36 56 -14 60 -21 24 -40 -22 -11
-31 -23 -31 -40 0 -28 11 -36 64 -50 55 -14 59 -35 8 -35 -22 0 -47 -3 -56 -6
-22 -8 -21 -53 2 -60 53 -18 72 -28 72 -40 0 -8 -10 -14 -24 -14 -12 0 -51 -3
-84 -6 l-61 -7 -7 42 c-9 54 -74 119 -141 142 -41 13 -48 20 -61 57 -17 52
-38 59 -96 30 -25 -12 -48 -19 -51 -16 -3 3 -1 17 5 32 14 38 13 96 -3 96 -6
0 -57 -25 -112 -56 -185 -105 -220 -124 -228 -124 -13 0 29 72 96 166 61 85
97 149 112 202 5 17 2 22 -13 22 -37 0 -157 -42 -260 -91 -56 -27 -107 -49
-112 -49 -15 0 9 52 38 84 15 15 66 55 114 87 48 33 92 68 98 80 11 19 61 48
86 49 7 0 14 -10 18 -22z m3486 -471 c36 -10 48 -19 62 -47 35 -69 17 -173
-40 -233 -33 -36 -93 -67 -126 -67 -25 0 -124 53 -138 74 -4 6 -10 38 -13 72
-10 85 16 142 81 184 53 33 95 37 174 17z m-3069 -131 c20 -14 43 -40 51 -58
20 -44 16 -163 -6 -206 -20 -39 -76 -69 -144 -78 -46 -6 -54 -3 -99 27 -57 39
-66 48 -81 76 -24 45 -7 150 31 191 64 70 182 92 248 48z m-891 -286 c10 -24
18 -30 44 -30 17 0 45 9 63 19 35 22 47 18 32 -11 -8 -14 -5 -25 11 -48 27
-38 20 -49 -30 -43 -34 5 -40 3 -41 -13 -1 -11 -2 -23 -4 -29 -1 -5 -3 -34 -3
-62 -3 -71 -25 -72 -42 -3 -13 54 -38 80 -80 80 -24 1 -24 2 13 31 39 33 47
56 22 65 -9 4 -15 19 -15 40 0 42 14 44 30 4z m2500 13 c14 -9 41 -30 60 -47
20 -17 48 -40 63 -51 18 -13 27 -29 27 -47 0 -41 -31 -36 -55 9 -31 58 -53 55
-61 -6 -4 -31 -12 -51 -19 -51 -7 0 -24 29 -37 65 -12 36 -28 65 -35 65 -7 0
-13 11 -13 24 0 57 24 70 70 39z m-2606 -408 c41 -20 70 -58 83 -113 12 -48
-5 -130 -48 -226 l-22 -50 -17 67 c-9 37 -22 73 -29 80 -19 19 -45 -5 -55 -51
-6 -23 -15 -42 -20 -42 -6 0 -36 20 -66 45 -33 27 -70 48 -95 53 -82 16 -72
105 22 197 l57 55 79 0 c50 0 91 -6 111 -15z m-238 -276 c16 -5 52 -32 81 -60
44 -42 58 -49 91 -49 26 0 42 -5 46 -15 8 -23 34 -18 59 11 l22 26 5 -59 c4
-50 8 -58 27 -61 14 -2 27 4 35 17 19 31 26 26 39 -25 10 -40 14 -45 38 -42
16 2 33 15 46 35 26 42 41 41 55 -1 6 -19 18 -37 27 -41 24 -8 64 24 91 73 25
44 52 56 52 23 0 -44 34 -37 69 14 13 20 29 34 34 32 6 -2 17 -22 25 -45 10
-30 19 -42 33 -42 21 0 69 42 69 60 0 5 4 10 10 10 5 0 13 -18 16 -40 5 -29
11 -40 24 -40 10 0 34 18 54 40 20 22 40 40 45 40 5 0 11 -19 15 -42 4 -22 9
-45 12 -50 8 -12 58 18 88 52 29 35 28 36 30 -39 1 -33 6 -56 13 -58 7 -3 28
12 48 32 20 19 40 33 45 30 5 -3 -2 -29 -15 -58 -43 -90 -30 -109 39 -57 66
50 73 35 26 -53 -17 -31 -30 -61 -30 -67 0 -15 43 -12 68 6 37 26 44 12 17
-38 -46 -87 -30 -113 46 -73 28 14 54 24 57 21 9 -10 -17 -56 -32 -56 -20 0
-46 -44 -46 -80 0 -37 17 -39 70 -5 22 14 44 25 50 25 21 0 9 -30 -20 -51 -31
-24 -58 -85 -44 -99 5 -5 28 -5 53 1 24 5 46 7 50 4 3 -4 -4 -24 -17 -45 -24
-42 -29 -85 -11 -96 6 -3 16 -1 22 5 13 13 57 15 57 2 0 -6 -11 -22 -25 -37
-14 -15 -25 -37 -25 -50 0 -22 3 -23 50 -17 28 3 50 3 50 -1 0 -4 -19 -28 -42
-52 -74 -79 -75 -98 -4 -108 25 -4 46 -12 46 -17 0 -11 -51 -35 -93 -44 -36
-7 -77 -48 -77 -75 0 -12 10 -25 25 -32 35 -16 31 -36 -10 -54 -47 -19 -75
-49 -75 -79 0 -28 20 -32 64 -15 41 15 42 -7 3 -63 -20 -29 -37 -61 -39 -72
-5 -30 28 -30 74 0 46 31 56 28 30 -6 -26 -33 -45 -94 -37 -119 9 -27 34 -25
66 6 31 30 67 27 54 -4 -18 -41 -26 -112 -15 -132 15 -28 48 -25 62 5 19 43
25 28 20 -60 -4 -75 -2 -85 12 -85 9 0 28 12 42 27 13 14 26 24 28 22 5 -5 27
-98 29 -123 2 -22 -48 -55 -118 -79 l-40 -14 3 68 c4 66 3 69 -22 79 -14 5
-39 7 -56 4 -34 -7 -38 4 -14 41 8 13 14 36 12 52 -3 28 -3 28 -65 25 -71 -4
-79 5 -33 38 31 22 39 57 18 78 -7 7 -39 12 -75 12 -69 0 -77 9 -42 46 16 17
19 29 14 53 -7 33 -10 34 -84 31 -51 -2 -48 11 10 40 61 32 52 71 -22 95 -65
22 -62 43 8 70 49 19 53 22 53 53 0 26 -6 36 -30 50 -51 29 -39 48 43 64 67
13 72 16 69 38 -1 13 -9 31 -17 40 -22 25 -19 35 20 53 30 14 35 21 35 52 0
38 -1 38 -72 39 -49 1 -51 15 -8 42 43 28 70 51 70 62 0 5 -6 16 -13 26 -12
16 -16 15 -70 -9 -32 -14 -64 -25 -71 -25 -26 0 -23 38 6 104 28 64 34 113 13
110 -6 -1 -25 -5 -42 -9 l-33 -7 7 91 c7 98 3 105 -42 75 -14 -9 -31 -14 -39
-11 -12 5 -13 12 0 53 13 45 19 114 10 114 -3 0 -21 -10 -41 -21 -20 -12 -38
-19 -41 -16 -3 3 -8 39 -11 81 -3 42 -10 79 -15 82 -5 4 -24 -8 -42 -25 -18
-17 -35 -31 -39 -31 -3 0 -16 22 -28 49 -11 27 -30 57 -40 67 -19 17 -21 16
-58 -20 l-38 -37 -29 35 c-20 23 -42 37 -67 41 -38 7 -41 5 -61 -59 -6 -18 -7
-18 -19 -2 -7 9 -29 19 -50 23 -36 6 -38 5 -55 -36 -20 -49 -42 -50 -54 -3
-11 39 -23 38 -109 -14 -31 -19 -68 -34 -82 -34 -24 0 -26 4 -29 48 l-3 47
-92 -3 -91 -3 -7 30 c-10 45 -28 59 -91 67 l-55 6 25 27 c27 28 35 61 15 61
-22 0 -97 54 -113 80 -23 39 -10 48 40 29z m4929 -241 c49 -73 93 -135 98
-137 10 -4 31 -25 62 -62 11 -13 45 -53 75 -89 78 -92 105 -137 91 -154 -6 -7
-36 -16 -67 -19 -31 -3 -59 -8 -61 -11 -9 -8 53 -105 99 -156 22 -25 79 -88
127 -140 83 -90 181 -220 181 -239 0 -10 -49 -21 -92 -21 -29 0 -30 -2 -24
-31 6 -32 21 -58 107 -186 51 -76 74 -126 66 -146 -4 -10 -24 -11 -108 -1 -57
6 -107 9 -111 5 -3 -3 -3 -26 2 -51 5 -25 9 -60 10 -77 0 -31 -2 -33 -33 -33
-43 0 -122 27 -214 74 -58 29 -77 44 -92 75 -30 58 -104 119 -154 126 -67 10
-167 -18 -194 -54 -10 -14 -27 -10 -155 33 -78 26 -154 46 -168 45 -24 -4 -25
-7 -24 -66 0 -35 -1 -63 -4 -63 -3 0 -38 16 -79 35 -41 19 -78 35 -82 35 -5 0
-12 24 -16 53 -11 74 -21 96 -52 108 -23 9 -30 7 -44 -12 -14 -19 -18 -54 -22
-198 -3 -122 -10 -195 -21 -236 -19 -66 -22 -72 -50 -77 -14 -2 -21 7 -31 40
-7 23 -20 54 -29 67 -16 24 -18 24 -45 10 -19 -9 -35 -30 -46 -60 -11 -28 -24
-45 -34 -45 -34 0 -114 36 -129 57 -8 13 -19 23 -26 23 -6 0 -40 20 -76 44
-36 25 -73 46 -84 48 -26 4 -46 -56 -52 -162 -7 -121 -8 -124 -47 -104 -46 23
-109 76 -206 171 -46 46 -91 83 -100 83 -30 -1 -58 -35 -85 -105 -54 -137 -83
-185 -110 -185 -6 0 -24 26 -39 58 -66 135 -96 141 -178 37 -28 -36 -55 -65
-60 -65 -5 0 -9 -6 -9 -12 0 -10 -54 -42 -86 -51 -3 -1 -16 24 -28 55 -13 36
-34 68 -56 87 l-35 30 37 1 c52 0 90 17 86 37 -2 9 -21 25 -43 37 l-40 21 63
3 62 3 0 69 c0 39 4 70 8 70 5 0 18 -14 30 -30 43 -58 92 -31 92 51 0 41 23
46 61 15 17 -14 41 -26 54 -26 21 0 24 6 30 55 4 30 13 62 21 72 12 17 14 17
44 1 47 -26 80 -24 80 6 0 13 3 37 6 54 6 30 9 31 63 34 55 3 56 3 55 33 0 17
-4 42 -8 57 l-8 28 53 0 c83 0 88 8 63 89 -7 24 -7 24 54 18 77 -8 91 7 61 65
-10 20 -19 40 -19 43 0 12 21 4 37 -15 10 -11 29 -20 44 -20 21 0 28 7 39 41
13 37 33 59 46 47 2 -3 9 -33 15 -67 12 -68 25 -75 62 -35 33 36 57 28 75 -23
16 -49 28 -52 67 -22 39 31 75 34 75 5 0 -12 6 -31 14 -41 13 -17 15 -16 51
19 43 44 66 43 77 -1 16 -62 49 -53 83 22 27 62 43 75 61 51 7 -10 22 -16 36
-14 20 3 24 10 28 60 3 31 8 59 11 63 4 3 18 0 33 -6 41 -19 66 10 66 77 0 48
2 53 29 62 26 9 29 15 35 71 6 51 10 61 26 61 10 0 31 10 45 23 26 22 26 23
11 59 -21 50 -21 55 14 73 23 12 30 22 30 44 0 16 -7 34 -15 41 -14 11 -12 15
14 31 27 17 29 21 20 51 -13 46 -12 48 14 48 13 0 31 6 40 13 14 10 15 18 6
50 -12 45 -5 61 21 47 10 -5 28 -10 39 -10 17 0 20 8 23 47 2 35 7 49 20 51
12 2 20 -9 30 -45 16 -57 40 -67 60 -26 12 24 19 28 54 26 l40 -3 17 60 c13
44 23 60 36 60 12 0 48 -46 106 -132z m-4783 -46 c3 -53 -6 -50 124 -38 l70 7
10 -53 c12 -69 28 -71 133 -19 44 23 82 37 84 33 3 -4 8 -22 12 -39 12 -56 61
-36 86 35 13 38 46 43 74 12 10 -11 31 -20 47 -20 28 0 29 2 27 34 -2 19 -1
38 3 41 10 10 47 -14 79 -50 35 -40 66 -37 81 7 18 51 48 30 68 -47 5 -23 19
-46 32 -54 20 -12 24 -11 50 20 32 39 31 43 28 -88 -1 -45 3 -73 9 -73 6 0 24
14 41 30 40 39 54 39 46 -2 -3 -18 -9 -57 -12 -85 -6 -46 -5 -53 11 -53 9 0
30 9 47 21 16 12 32 18 35 15 4 -3 -1 -41 -10 -84 -9 -42 -17 -81 -17 -85 0
-11 55 -8 67 4 6 6 18 9 26 7 12 -2 8 -17 -18 -72 -18 -37 -36 -84 -40 -104
l-6 -35 73 6 73 6 -27 -24 c-16 -13 -28 -33 -28 -44 0 -17 8 -20 53 -23 48 -3
52 -5 55 -30 3 -24 0 -28 -21 -28 -14 0 -35 -9 -48 -19 l-24 -20 33 -34 c19
-19 30 -37 25 -40 -4 -3 -37 -11 -73 -17 -36 -7 -70 -17 -76 -22 -19 -14 -5
-41 37 -70 21 -15 39 -34 39 -41 0 -7 -26 -22 -57 -34 -52 -18 -58 -23 -61
-50 -3 -33 19 -54 71 -67 38 -9 32 -38 -11 -52 -39 -12 -52 -28 -52 -65 0 -31
-24 -49 -101 -79 -32 -12 -57 -16 -62 -11 -6 6 -5 48 2 104 17 144 16 157 -14
157 -24 0 -103 -42 -162 -86 -47 -35 -113 -64 -150 -64 -26 0 -33 5 -42 31
-15 43 -14 92 4 164 21 86 20 89 -15 82 -53 -11 -115 -44 -196 -106 -60 -45
-86 -59 -102 -54 -15 3 -24 0 -28 -11 -10 -26 -19 -19 -58 44 -44 71 -94 104
-181 119 -103 17 -138 17 -196 -3 -31 -11 -63 -17 -71 -13 -17 6 -16 8 16 192
29 162 29 172 6 185 -26 14 -73 0 -214 -61 -88 -38 -176 -60 -176 -44 0 5 25
58 55 119 31 61 59 129 62 150 l6 39 -44 -6 c-24 -4 -59 -10 -77 -13 -29 -6
-32 -4 -32 20 0 48 68 164 147 251 10 11 43 49 73 84 30 35 88 96 128 135 41
39 81 83 90 98 19 32 26 34 103 30 l58 -4 3 -46z m2224 -3 c58 -35 74 -68 74
-148 0 -125 -47 -177 -187 -210 -44 -11 -55 -10 -85 5 -124 64 -149 137 -89
259 23 47 40 63 101 93 59 29 140 30 186 1z m-2057 -1188 c67 -54 98 -154 70
-228 -25 -66 -126 -133 -202 -133 -51 0 -114 41 -133 86 -9 22 -15 70 -15 124
-1 87 0 89 33 125 42 48 58 54 142 54 61 1 72 -2 105 -28z m4633 -104 c55 -42
68 -68 68 -142 0 -70 -38 -164 -69 -172 -11 -3 -22 -11 -24 -18 -3 -7 -32 -15
-65 -19 l-61 -7 -63 48 c-35 26 -67 52 -71 58 -9 12 -1 93 15 147 14 47 63
107 102 124 17 7 52 13 78 14 38 0 55 -6 90 -33z m-1853 -207 c9 0 -10 -130
-29 -200 -38 -142 -112 -361 -208 -616 -19 -51 -68 -130 -94 -151 -33 -28
-376 -42 -598 -25 l-84 7 -49 109 c-48 107 -90 250 -100 335 -5 39 -2 47 24
73 31 31 56 33 51 4 -4 -20 43 -71 73 -79 15 -5 28 5 55 41 19 26 35 48 36 50
1 2 23 -4 50 -13 28 -9 51 -12 56 -7 5 5 17 36 27 68 17 58 18 59 56 60 54 1
84 46 50 74 -19 16 -19 26 -1 33 29 12 54 -4 61 -39 5 -31 8 -34 33 -28 57 14
145 89 196 167 13 18 27 27 45 27 24 0 31 -9 57 -61 49 -103 103 -128 130 -61
30 71 108 227 118 234 6 4 17 6 24 3 8 -3 17 -5 21 -5z m-2212 -386 c-6 -61
-11 -79 -29 -95 -69 -59 -167 -79 -188 -38 -15 28 2 47 49 54 68 11 79 21 96
79 16 54 34 75 64 76 11 0 13 -14 8 -76z m1913 -643 c0 -36 -17 -41 -171 -58
-132 -14 -177 -14 -314 -4 -210 16 -225 19 -225 42 0 18 11 19 213 20 116 1
250 4 297 8 160 12 200 11 200 -8z"/>
<path d="M4308 2693 c-14 -4 -18 -19 -20 -96 l-3 -92 -77 -14 c-70 -12 -78
-15 -78 -35 0 -19 12 -26 73 -47 l72 -24 7 -80 c4 -43 10 -85 12 -92 8 -20 34
-4 40 25 15 63 28 82 55 82 14 0 43 -12 64 -26 21 -14 54 -28 73 -31 33 -5 35
-4 30 19 -2 14 -16 48 -30 76 -33 64 -33 95 -3 111 29 16 80 92 69 103 -5 5
-41 2 -81 -7 -88 -18 -121 -19 -121 -2 0 13 -57 138 -62 136 -2 -1 -11 -3 -20
-6z m74 -200 c8 -10 16 -9 39 2 26 14 69 20 69 10 0 -2 -11 -15 -25 -29 -30
-31 -32 -59 -4 -97 25 -35 20 -36 -37 -4 l-44 25 -14 -23 c-8 -12 -18 -33 -22
-47 -8 -22 -9 -18 -14 25 -5 48 -6 50 -47 65 -24 8 -43 18 -43 21 0 4 19 14
43 21 32 11 43 20 45 39 1 13 5 35 9 49 5 24 6 24 20 -10 8 -19 19 -41 25 -47z"/>
<path d="M2930 2048 c0 -90 -5 -101 -63 -135 -61 -37 -102 -77 -92 -92 3 -7
42 -11 94 -11 l88 0 5 -94 c3 -51 8 -98 12 -105 9 -13 46 3 46 21 0 6 17 40
37 75 34 58 40 63 63 57 37 -9 154 -22 163 -17 9 5 -46 86 -85 123 l-30 29 41
51 c40 50 54 100 29 100 -7 0 -48 -12 -91 -25 l-78 -25 -53 55 c-70 75 -86 73
-86 -7z m92 -58 c20 -34 27 -35 94 -15 27 8 52 15 57 15 17 0 5 -29 -23 -56
-39 -39 -38 -64 5 -92 51 -33 45 -44 -24 -40 -64 3 -82 -6 -101 -52 -19 -45
-30 -36 -30 23 0 28 -4 57 -8 64 -4 6 -28 14 -54 18 -27 4 -48 11 -48 15 0 9
46 30 65 30 12 0 15 14 15 58 0 32 3 61 6 65 11 10 29 -3 46 -33z"/>
<path d="M5350 2095 c0 -97 -2 -107 -22 -123 -47 -36 -108 -100 -108 -112 0
-10 22 -12 100 -7 l100 6 0 -26 c0 -14 5 -55 12 -90 10 -55 14 -64 32 -61 11
2 23 14 27 28 4 14 17 58 29 98 l21 74 39 -6 c22 -3 69 -11 106 -17 36 -6 67
-10 69 -8 2 2 1 16 -2 31 -4 19 -19 37 -50 55 -82 51 -87 57 -79 87 4 15 21
40 37 56 27 24 29 30 19 49 -6 12 -14 21 -18 19 -4 -2 -32 -15 -62 -30 -91
-43 -103 -44 -136 0 -38 50 -75 82 -96 82 -16 0 -18 -12 -18 -105z m90 -25
c27 -44 33 -46 81 -26 55 22 79 28 79 19 0 -5 -16 -15 -35 -22 -40 -14 -46
-41 -15 -68 27 -23 25 -43 -4 -43 -24 0 -31 -11 -45 -70 -11 -44 -37 -36 -50
16 l-12 46 -57 -7 -57 -7 38 39 c35 36 37 43 37 101 0 34 3 62 8 62 4 0 18
-18 32 -40z"/>
<path d="M1306 2579 c-3 -17 -6 -60 -6 -94 l0 -63 -57 -43 c-92 -68 -92 -81 2
-69 33 5 72 9 87 9 29 1 26 9 44 -152 6 -52 9 -58 27 -55 18 2 26 21 51 106
33 117 25 113 148 81 52 -13 84 -17 90 -11 18 18 -3 50 -57 86 -30 20 -62 47
-71 61 -15 24 -15 26 10 56 30 36 34 69 9 69 -10 -1 -36 -8 -58 -16 -100 -38
-103 -38 -133 -3 -34 41 -64 69 -73 69 -3 0 -9 -14 -13 -31z m132 -106 c15 3
37 8 50 12 21 7 22 6 11 -19 -14 -30 -4 -43 66 -86 35 -22 37 -25 18 -28 -12
-2 -39 5 -59 14 -49 23 -64 12 -87 -66 -21 -72 -34 -69 -39 10 l-3 55 -42 0
c-51 0 -60 8 -28 25 17 9 25 22 25 40 0 15 3 41 6 57 l6 30 25 -24 c18 -19 31
-24 51 -20z"/>
</g>
</svg>
