<?xml version="1.0" standalone="no"?>
<!DOCTYPE svg PUBLIC "-//W3C//DTD SVG 20010904//EN"
 "http://www.w3.org/TR/2001/REC-SVG-20010904/DTD/svg10.dtd">
<svg version="1.0" xmlns="http://www.w3.org/2000/svg"
 width="650.000000pt" height="865.000000pt" viewBox="0 0 650.000000 865.000000"
 preserveAspectRatio="xMidYMid meet">
<metadata>
Created by potrace 1.16, written by Peter Selinger 2001-2019
</metadata>
<g transform="translate(0.000000,865.000000) scale(0.100000,-0.100000)"
fill="#000000" stroke="none">
<path d="M2340 8339 c-36 -72 -74 -137 -85 -145 -13 -9 -49 -14 -110 -14 -112
0 -165 -9 -172 -27 -3 -8 9 -30 29 -51 19 -20 63 -74 97 -119 67 -89 72 -110
46 -184 -9 -24 -23 -74 -31 -111 -9 -38 -20 -68 -25 -68 -5 0 -9 6 -9 14 0 8
-13 28 -30 44 -16 17 -30 38 -30 46 0 9 -3 16 -8 16 -4 0 -19 11 -33 24 -15
14 -43 28 -63 31 -20 4 -40 14 -45 22 -10 19 -51 8 -51 -13 0 -8 -10 -14 -25
-14 -21 0 -25 -5 -25 -30 0 -19 -5 -30 -14 -30 -26 0 -28 -19 -5 -49 13 -18
20 -38 16 -50 -3 -14 1 -25 13 -31 12 -6 16 -17 13 -30 -3 -11 -1 -20 5 -20 6
0 9 -16 7 -38 -3 -39 -3 -39 50 -61 50 -21 53 -24 45 -47 -8 -20 -6 -28 10
-42 12 -9 30 -36 41 -60 12 -23 37 -55 57 -72 39 -32 37 -52 -3 -30 -14 7 -40
14 -59 14 -19 1 -43 9 -53 18 -12 11 -37 17 -78 17 -33 1 -75 4 -93 7 -20 4
-38 2 -47 -6 -29 -24 -73 -97 -75 -126 -4 -61 -1 -99 9 -102 14 -5 14 -39 1
-47 -20 -13 -9 -25 23 -25 17 0 39 -5 47 -10 13 -8 13 -13 -2 -37 -14 -23 -23
-27 -49 -25 -51 6 -69 -37 -69 -162 0 -16 9 -41 20 -56 11 -16 20 -44 20 -64
0 -44 37 -121 77 -158 30 -29 91 -58 121 -58 10 0 41 -21 70 -47 61 -56 71
-86 17 -53 -45 28 -78 21 -107 -24 -22 -34 -23 -34 -113 -38 l-91 -4 -49 -46
-48 -46 6 -56 c3 -30 13 -70 23 -88 9 -18 20 -40 24 -48 4 -8 20 -19 36 -24
16 -5 56 -22 89 -38 33 -15 68 -28 77 -28 22 0 48 -10 48 -19 0 -20 -74 -8
-130 21 -34 17 -77 32 -96 34 -19 1 -50 14 -69 29 -51 38 -106 54 -194 56
-103 2 -137 -16 -144 -75 -8 -79 55 -224 114 -262 45 -28 47 -36 17 -68 -28
-29 -88 -49 -121 -41 -14 4 -28 2 -31 -4 -4 -6 -17 -11 -28 -11 -12 0 -35 -11
-52 -23 -17 -13 -47 -29 -68 -36 -60 -20 -64 -62 -12 -131 25 -33 49 -52 76
-61 22 -7 45 -21 53 -31 7 -11 26 -20 43 -20 27 -1 34 -8 57 -54 14 -29 46
-71 71 -93 36 -31 44 -45 39 -60 -4 -15 -15 -21 -35 -21 -16 0 -35 -3 -44 -6
-11 -4 -19 2 -25 18 -17 46 -76 98 -109 98 -33 0 -42 -7 -95 -73 -72 -89 -85
-149 -42 -193 13 -13 38 -27 55 -30 47 -10 36 -28 -36 -54 -36 -14 -68 -29
-71 -33 -3 -5 5 -19 17 -32 12 -13 20 -30 17 -38 -7 -18 -85 -29 -126 -17 -34
10 -45 1 -47 -40 -1 -14 -11 -46 -22 -70 l-21 -45 29 -26 c17 -15 30 -33 30
-40 0 -8 -20 -37 -45 -66 -50 -57 -56 -88 -29 -151 8 -20 18 -64 20 -97 3 -33
9 -64 15 -70 5 -5 9 -17 9 -26 0 -9 7 -20 16 -23 13 -5 15 -2 11 14 -4 16 0
20 22 20 16 0 40 11 54 24 23 21 30 23 55 14 39 -15 87 5 104 42 11 25 16 28
43 23 16 -3 32 -7 34 -9 2 -2 -10 -19 -27 -38 -81 -93 -124 -202 -123 -310 2
-106 16 -148 70 -206 137 -145 388 -57 502 176 29 58 31 70 27 137 -4 58 -12
86 -38 135 -40 75 -104 136 -159 153 -40 12 -40 12 -35 53 5 35 2 44 -20 65
-14 13 -37 24 -51 24 -28 0 -75 -38 -75 -60 0 -18 -11 -16 -38 7 -22 18 -22
20 -7 43 19 30 12 71 -16 91 -15 10 -17 18 -11 37 6 14 5 35 0 50 -8 22 -5 31
16 52 29 29 33 56 14 88 -11 17 -10 22 7 35 11 8 31 24 43 35 13 11 26 18 30
15 8 -9 31 -191 32 -253 0 -28 3 -58 6 -67 11 -28 32 -17 45 22 7 20 19 47 27
60 15 23 48 30 54 11 2 -6 21 -12 42 -13 67 -2 68 16 3 152 -31 65 -57 122
-57 126 0 3 13 0 30 -9 36 -19 102 -19 138 -1 29 15 62 67 82 128 10 34 9 43
-15 92 -30 61 -63 82 -111 70 -30 -8 -117 -67 -167 -115 -25 -24 -32 -26 -53
-17 -21 10 -24 18 -22 47 3 32 6 36 35 39 21 2 40 13 53 30 18 23 31 27 97 33
48 5 93 17 126 33 58 29 137 101 173 158 14 23 32 38 44 38 10 0 22 5 25 10
11 17 20 11 32 -20 15 -40 53 -54 98 -36 39 17 59 48 49 79 -15 48 -70 71
-115 47 -14 -8 -19 -7 -19 1 0 6 -13 27 -30 46 -18 20 -30 45 -30 61 0 42 -54
143 -101 190 -39 38 -126 82 -164 82 -11 0 -15 11 -15 38 0 21 -5 43 -12 50
-12 12 -18 102 -7 102 4 0 20 -7 35 -15 16 -8 37 -15 46 -15 23 0 99 -30 118
-46 19 -16 63 -20 107 -10 45 10 96 -2 89 -20 -4 -10 4 -18 22 -25 44 -17 72
-49 72 -84 0 -17 3 -34 6 -38 9 -9 34 4 34 18 0 6 26 48 58 92 31 45 62 89 68
99 7 11 14 17 16 14 24 -27 101 -137 128 -182 22 -37 41 -58 52 -58 16 0 18 6
13 48 -8 58 8 83 47 75 25 -5 27 -10 33 -69 7 -62 7 -64 -29 -105 -54 -64 -50
-73 34 -65 l69 7 27 -52 c29 -58 50 -83 62 -75 5 3 21 33 35 68 23 54 34 67
77 91 27 15 52 32 56 38 9 15 -14 37 -47 44 -17 4 -32 12 -34 18 -1 7 -9 38
-16 70 -12 57 -13 59 -42 53 -16 -3 -40 -15 -54 -26 -25 -19 -25 -19 -64 0
-25 13 -36 25 -33 34 5 14 -37 52 -142 126 l-49 34 35 7 c95 18 130 55 130
136 0 30 -5 63 -10 73 -14 27 -91 70 -123 70 -37 0 -94 -61 -131 -139 -20 -41
-36 -61 -47 -61 -10 0 -40 21 -66 48 -54 53 -133 87 -177 76 -29 -7 -50 -46
-67 -126 -20 -91 15 -138 101 -138 45 0 49 -8 20 -35 -27 -25 -103 -22 -132 5
-23 21 -32 25 -89 34 -21 4 -48 15 -60 25 -13 10 -37 21 -54 25 -60 13 -108
130 -79 192 26 55 59 70 160 76 86 5 92 4 113 -18 33 -34 86 -28 117 14 9 12
12 12 23 -2 22 -26 84 -21 114 10 21 21 29 23 46 15 32 -17 67 -13 98 12 22
19 36 23 66 19 30 -3 43 1 63 19 13 12 24 29 24 37 0 10 6 12 23 7 56 -17 64
-16 95 10 18 15 32 33 32 41 0 18 5 18 35 -2 31 -20 68 -12 101 21 24 24 26
24 49 9 31 -20 68 -12 101 21 20 20 29 23 44 15 53 -28 120 5 120 60 0 29 -29
70 -50 70 -5 0 -10 7 -10 16 0 13 4 13 31 -3 52 -30 64 -56 49 -107 -6 -24 -9
-53 -5 -65 10 -32 50 -54 85 -47 25 5 30 2 30 -15 0 -30 44 -69 79 -69 31 0
66 28 77 62 12 40 -48 95 -92 84 -17 -5 -24 -2 -24 8 0 8 -12 28 -26 45 l-26
31 61 58 61 58 29 -63 c16 -34 40 -94 52 -133 l23 -71 -26 -22 c-44 -37 -52
-63 -31 -98 19 -32 49 -45 86 -35 21 5 24 2 24 -24 0 -34 28 -70 55 -70 10 0
18 -3 18 -7 -1 -10 -68 -53 -83 -53 -7 0 -20 20 -30 44 -27 66 -111 149 -171
169 -130 44 -226 -2 -328 -157 -170 -261 -41 -560 218 -507 74 14 131 48 199
118 42 43 55 52 55 37 0 -11 7 -29 15 -41 14 -20 14 -22 -5 -28 -31 -10 -60
-46 -60 -75 0 -29 33 -70 56 -70 8 0 39 -26 69 -57 53 -57 54 -59 55 -119 0
-33 3 -64 6 -67 4 -3 30 14 58 39 54 48 54 48 134 13 33 -15 55 -20 62 -13 6
6 3 35 -9 82 -19 73 -13 102 14 66 11 -16 16 -17 38 -5 24 13 32 11 87 -21 8
-5 22 -11 31 -14 10 -3 19 -18 22 -32 3 -15 9 -39 12 -53 4 -16 2 -31 -7 -40
-7 -8 -13 -23 -13 -34 0 -13 -10 -23 -30 -30 -16 -5 -40 -20 -52 -31 -19 -18
-35 -22 -86 -21 -45 1 -73 -5 -102 -20 -58 -30 -139 -121 -177 -197 -29 -59
-35 -66 -62 -66 l-30 0 22 20 c28 26 22 38 -41 80 -78 51 -127 91 -127 101 0
5 14 9 31 9 79 0 129 54 129 141 0 48 -3 55 -41 90 l-42 38 26 12 c52 23 55
88 5 123 -31 22 -52 20 -87 -10 -35 -30 -41 -67 -13 -97 13 -16 14 -21 4 -25
-33 -11 -82 -67 -116 -131 -42 -80 -51 -82 -117 -19 -56 54 -120 82 -166 73
-29 -5 -38 -13 -53 -48 -26 -60 -35 -131 -20 -166 14 -35 57 -55 105 -49 19 2
35 1 35 -2 0 -3 -20 -26 -45 -50 -25 -24 -45 -47 -45 -51 0 -4 20 -17 44 -28
43 -21 56 -41 56 -88 0 -24 24 -32 35 -12 5 7 16 3 31 -11 26 -25 64 -29 99
-10 20 11 26 10 40 -4 10 -10 33 -16 60 -16 l43 0 -15 -42 c-9 -27 -13 -59 -9
-87 7 -48 47 -129 80 -160 30 -27 137 -87 183 -101 55 -16 113 -42 113 -49 0
-4 -9 -24 -20 -46 -24 -46 -26 -103 -5 -131 8 -10 15 -34 15 -53 0 -25 9 -42
35 -67 43 -40 48 -74 9 -66 -46 8 -94 -35 -94 -84 0 -28 47 -64 83 -64 33 0
34 -1 47 -57 7 -32 25 -95 41 -140 35 -99 35 -103 4 -103 -36 0 -87 -50 -120
-119 -24 -52 -32 -60 -49 -55 -12 4 -27 16 -35 26 -26 38 -102 78 -147 78 -39
0 -43 -2 -58 -40 -40 -101 -29 -173 30 -189 18 -5 43 -7 54 -4 31 8 24 -13
-14 -42 -50 -38 -52 -53 -12 -70 41 -17 50 -30 51 -70 0 -16 5 -30 11 -30 11
0 91 111 120 168 17 33 25 34 42 6 12 -19 9 -28 -31 -88 -83 -122 -99 -165
-108 -281 -11 -145 -15 -157 -54 -176 -19 -8 -36 -22 -39 -31 -5 -13 -11 -11
-33 12 -26 26 -52 29 -101 14 -9 -3 -20 15 -31 51 -38 121 -111 197 -215 225
-63 17 -70 17 -119 2 -55 -18 -128 -80 -174 -149 -24 -36 -27 -37 -72 -31 -29
4 -55 15 -70 30 -31 30 -75 30 -106 -2 -32 -31 -32 -69 1 -102 20 -20 32 -24
54 -19 23 4 32 1 41 -15 6 -11 24 -25 40 -31 27 -9 29 -14 29 -59 0 -58 -5
-60 -86 -24 -31 14 -97 41 -148 61 -50 19 -119 47 -153 61 -62 25 -63 25 -126
10 -35 -9 -72 -20 -82 -23 -15 -6 -17 -4 -11 12 16 37 24 84 16 89 -4 3 -26
-2 -48 -9 l-41 -15 -49 40 c-28 21 -57 39 -65 39 -8 0 -24 -22 -36 -49 -19
-46 -24 -50 -71 -61 -61 -15 -64 -30 -13 -82 20 -21 34 -40 31 -43 -9 -9 -261
-85 -266 -80 -2 2 13 32 34 67 34 55 39 73 42 135 4 64 1 80 -26 137 -40 86
-110 160 -169 180 -97 33 -177 15 -252 -57 -100 -97 -151 -211 -152 -341 -1
-47 -5 -86 -10 -86 -5 0 -9 10 -9 23 0 23 -33 52 -144 127 -50 34 -49 49 4 50
32 0 85 33 101 61 12 24 15 121 4 139 -18 29 -90 70 -123 70 -45 0 -95 -51
-137 -138 -25 -54 -32 -61 -52 -56 -24 7 -107 83 -98 92 3 3 22 0 43 -7 33
-11 43 -11 70 3 46 24 47 34 3 52 -46 18 -47 19 -25 42 15 15 14 18 -12 38
-24 20 -26 25 -14 39 10 12 10 19 2 27 -17 17 -15 24 18 61 27 31 34 34 72 30
35 -3 49 1 73 21 27 22 29 27 17 46 -23 38 3 49 33 15 24 -25 31 -27 76 -22
42 5 49 4 49 -11 0 -36 29 -62 70 -62 21 0 42 5 45 10 11 18 22 10 28 -20 11
-55 83 -73 129 -32 16 13 20 12 47 -17 36 -38 69 -40 110 -6 l30 26 26 -27
c21 -21 32 -25 58 -20 18 3 42 18 55 32 l22 25 26 -20 c15 -12 38 -21 51 -21
27 0 83 50 83 74 0 11 9 16 30 16 27 0 30 -3 30 -33 0 -42 31 -77 69 -77 32 0
81 34 81 56 0 11 9 13 38 8 72 -11 122 66 76 117 -15 17 -14 21 13 56 17 21
39 55 50 76 l19 38 42 -56 43 -57 -28 6 c-37 8 -88 -23 -97 -60 -11 -41 21
-78 68 -82 42 -4 64 10 81 51 l12 28 26 -40 c37 -56 62 -55 54 0 -6 44 6 89
23 89 5 0 10 -13 10 -29 0 -39 43 -75 80 -66 40 10 70 34 70 55 0 24 8 25 32
3 43 -38 128 -1 128 57 0 27 -30 62 -63 73 -36 13 -98 -40 -89 -75 4 -14 -15
-8 -28 8 -8 8 -27 22 -44 30 -30 14 -50 27 -148 98 l-48 34 50 7 c38 5 60 15
85 40 33 30 35 37 35 95 0 59 -2 64 -37 97 -84 76 -148 53 -218 -80 -32 -60
-44 -74 -62 -74 -13 0 -28 7 -33 17 -15 28 -87 81 -130 96 -59 20 -95 9 -114
-35 -29 -65 -38 -139 -21 -171 20 -38 43 -50 102 -50 l47 0 -53 -54 -53 -54
46 -20 c25 -12 46 -24 46 -27 0 -4 -8 -20 -17 -36 -13 -22 -23 -29 -38 -25
-11 3 -27 6 -36 6 -11 0 -16 9 -16 31 0 42 -33 73 -78 72 -28 -1 -35 3 -35 17
0 33 -43 73 -78 72 -29 -1 -30 1 -25 33 4 27 0 39 -20 59 -32 32 -68 33 -103
3 -54 -47 -24 -127 48 -127 27 0 29 -2 23 -28 -9 -44 26 -82 76 -82 32 0 39
-3 39 -20 0 -17 -4 -19 -26 -14 -32 8 -68 -11 -83 -44 l-12 -25 -27 27 c-36
33 -75 34 -108 1 l-25 -26 -30 26 c-17 14 -37 25 -45 25 -21 0 -56 -20 -71
-39 -10 -14 -13 -13 -22 11 -18 47 -76 63 -119 32 -21 -14 -22 -14 -22 6 0 54
-56 90 -103 65 -24 -13 -26 -12 -32 16 -9 38 -40 59 -88 59 -48 0 -39 18 20
39 42 15 107 61 140 99 16 19 20 33 16 56 -7 35 -18 46 -50 46 -31 0 -29 10 9
49 38 39 30 52 -41 59 -49 4 -50 5 -76 60 l-27 56 -19 -24 c-10 -14 -19 -28
-19 -31 0 -13 -31 -19 -48 -10 -9 5 -43 14 -74 21 -61 12 -67 19 -90 115 -22
95 -23 90 20 103 48 15 99 15 107 2 3 -6 19 -10 34 -10 28 0 86 -24 96 -40 10
-17 97 -52 105 -44 13 13 0 54 -16 54 -7 0 -11 -6 -8 -14 11 -29 -14 -24 -57
12 -63 53 -107 66 -232 67 -108 0 -108 0 -103 -22 3 -13 9 -35 12 -50 3 -16 8
-35 11 -43 4 -8 5 -19 4 -23 -1 -5 10 -33 24 -63 21 -44 32 -56 55 -61 17 -3
30 -9 30 -14 0 -5 11 -9 25 -9 33 0 33 -28 0 -36 -32 -8 -31 -16 5 -69 l30
-43 -20 -44 c-34 -75 -26 -81 66 -51 l53 16 36 -27 c20 -15 34 -33 33 -38 -2
-6 -23 -18 -47 -28 -47 -18 -71 -43 -71 -72 0 -9 -14 -33 -30 -51 -33 -38 -37
-56 -18 -75 20 -20 -10 -34 -61 -29 -38 4 -48 1 -81 -30 -40 -36 -66 -88 -49
-99 5 -3 8 -17 7 -32 -2 -19 3 -29 21 -38 l24 -12 -22 -13 c-29 -19 -26 -34 9
-49 41 -17 39 -35 -2 -25 -30 8 -79 9 -110 4 -7 -1 -30 2 -51 6 -25 5 -37 4
-37 -4 0 -6 8 -14 18 -17 86 -26 161 -92 167 -147 3 -35 1 -37 -34 -47 -49
-13 -64 -13 -97 5 -16 8 -44 15 -61 15 -32 0 -33 2 -33 39 0 21 7 58 15 81 17
48 19 70 6 70 -12 0 -40 -72 -51 -129 -12 -64 7 -105 55 -121 20 -7 50 -10 66
-6 16 3 29 2 29 -2 0 -4 -20 -28 -45 -52 -25 -24 -45 -48 -45 -52 0 -5 12 -13
27 -19 46 -17 63 -39 63 -80 0 -32 -4 -38 -29 -47 l-30 -10 -3 -97 c-3 -93 -2
-98 20 -106 22 -8 22 -10 22 -228 0 -120 3 -232 6 -248 5 -27 24 -39 222 -137
182 -91 220 -107 246 -101 17 4 128 55 246 113 l215 107 3 221 c2 221 2 221
27 244 l25 23 0 -336 0 -337 88 -41 c48 -23 150 -70 227 -106 227 -105 309
-143 327 -153 19 -11 36 -4 278 113 74 35 187 90 252 120 l116 56 1 257 c1
142 4 260 6 262 10 10 65 -25 65 -40 0 -10 6 -18 13 -18 6 -1 23 -10 36 -21
27 -22 25 -4 29 -312 l2 -178 217 -105 217 -105 46 17 c25 9 49 21 55 25 17
16 54 9 66 -12 9 -17 7 -25 -10 -43 -12 -12 -21 -33 -21 -47 0 -14 -11 -40
-25 -59 -18 -24 -25 -47 -25 -78 0 -39 5 -50 39 -81 21 -20 41 -48 45 -63 3
-15 13 -33 21 -42 25 -25 17 -36 -28 -36 -49 0 -144 -23 -194 -46 -89 -43
-154 -156 -134 -232 23 -85 93 -150 185 -171 192 -44 425 -8 535 85 26 21 30
22 42 8 16 -19 76 -12 155 17 75 28 107 73 112 158 7 111 6 121 -15 150 -19
25 -19 29 -6 57 9 16 23 38 33 49 10 11 25 38 34 59 15 37 15 43 -5 105 -12
36 -30 73 -40 83 -26 22 -24 25 16 38 28 9 44 9 83 -4 26 -8 67 -18 92 -21 71
-10 88 -14 102 -28 60 -58 256 -153 370 -180 l48 -12 0 -46 c0 -48 28 -99 55
-99 7 0 18 -13 23 -29 13 -36 32 -47 96 -56 27 -4 65 -18 84 -31 19 -13 45
-24 58 -24 28 0 32 -11 44 -136 11 -117 23 -164 56 -220 62 -109 271 -146 437
-79 57 23 75 36 106 79 46 61 61 118 61 224 0 103 -14 173 -49 247 -33 72 -61
100 -138 141 -42 23 -57 37 -56 50 8 59 11 198 6 252 -10 105 -64 163 -161
172 l-57 5 -3 70 -3 70 33 17 c18 9 55 26 82 38 66 27 109 61 145 113 66 96
59 178 -28 323 -33 55 -51 97 -51 117 0 38 -33 130 -62 170 -11 15 -18 30 -16
32 12 13 145 56 198 64 54 9 65 8 98 -11 58 -34 69 -46 82 -96 41 -151 121
-207 290 -206 74 0 93 4 145 30 79 40 118 92 139 183 42 184 5 311 -132 453
l-45 47 39 16 c53 22 80 50 100 101 23 62 12 109 -37 156 -70 66 -113 64 -188
-13 -47 -48 -90 -69 -138 -69 -19 0 -23 5 -23 33 0 48 -24 77 -64 77 -19 0
-45 9 -62 22 -17 14 -44 23 -68 25 -23 1 -55 5 -72 8 -24 5 -37 1 -63 -21
l-33 -27 -56 18 c-119 37 -252 127 -252 171 0 10 -9 39 -20 63 -24 51 -24 51
-7 51 44 0 65 68 46 147 -9 35 -8 49 5 77 20 42 20 47 -1 90 -13 29 -14 38 -3
50 7 9 16 13 21 10 13 -8 49 15 49 31 0 8 5 15 12 15 6 0 19 7 29 16 14 13 20
13 38 3 28 -18 66 -92 86 -168 20 -80 16 -92 -28 -84 -41 6 -77 -22 -77 -60 0
-13 -9 -32 -20 -42 -27 -24 -26 -70 3 -99 12 -12 27 -40 32 -61 13 -52 55 -83
90 -67 14 6 30 23 37 36 9 21 16 24 41 19 35 -7 57 15 57 57 0 19 8 30 25 38
54 25 48 113 -9 128 -14 3 -32 14 -42 25 -17 19 -17 22 1 77 63 200 70 312 31
472 -46 193 -106 306 -232 440 -79 83 -140 124 -235 156 -61 21 -89 24 -207
24 -102 -1 -155 -5 -205 -19 -68 -19 -168 -77 -242 -143 -29 -25 -45 -32 -71
-29 -19 1 -43 -4 -56 -13 -12 -9 -40 -16 -61 -16 -56 0 -97 -43 -97 -102 0
-24 -7 -52 -15 -62 -18 -24 -19 -50 -3 -75 9 -15 8 -22 -5 -36 -9 -9 -17 -21
-17 -26 0 -5 -7 -9 -15 -9 -10 0 -15 10 -15 33 0 21 -8 41 -20 52 -25 23 -34
72 -22 119 6 21 7 38 1 42 -5 3 -9 16 -9 29 0 41 -19 69 -69 100 -46 28 -49
32 -55 83 -6 51 -5 56 27 91 50 55 62 92 43 129 -16 31 -69 62 -105 62 -14 0
-25 9 -31 28 -30 81 -86 156 -155 207 -20 15 -20 15 5 35 14 11 30 20 36 20
18 0 47 38 61 78 9 29 10 46 1 77 -12 41 -67 105 -90 105 -7 0 -27 9 -44 19
-29 18 -33 18 -48 3 -16 -16 -18 -16 -32 3 -8 11 -11 26 -7 35 4 8 8 40 8 70
2 65 8 90 29 122 9 14 14 43 13 75 -2 43 -7 55 -30 73 -15 12 -27 26 -27 31 0
15 -34 50 -58 60 -28 11 -66 -6 -87 -38 l-16 -24 -30 26 c-17 14 -41 25 -53
25 -25 0 -66 -30 -66 -49 0 -6 -3 -11 -7 -11 -5 0 -8 27 -9 59 -1 57 0 59 27
65 16 3 29 12 29 19 0 15 38 36 112 62 25 9 49 23 52 31 3 8 17 19 30 24 20 7
26 19 32 57 10 59 9 111 -2 138 -16 42 -57 95 -73 95 -27 0 -67 32 -136 110
-92 104 -95 110 -45 98 88 -23 163 28 173 116 5 48 -3 67 -49 112 -57 58 -107
43 -200 -60 -53 -57 -62 -63 -83 -55 l-24 10 31 27 c22 19 32 38 35 67 3 22
10 58 16 80 28 99 28 161 -2 240 -10 27 -22 41 -36 43 -16 3 -21 11 -21 36 0
48 -25 125 -60 179 -25 39 -29 56 -27 97 2 27 6 52 9 56 4 3 2 17 -3 31 -5 14
-7 28 -5 32 3 4 1 39 -5 77 -10 71 -41 123 -57 97 -4 -7 -26 -15 -48 -19 -26
-4 -55 -19 -79 -40 -21 -19 -42 -34 -46 -34 -4 0 -9 -6 -11 -13 -4 -17 -108
-110 -115 -103 -3 3 -12 43 -20 88 -8 46 -18 103 -23 128 -10 52 5 80 84 165
45 48 116 147 116 163 0 20 -50 32 -172 43 -73 6 -140 15 -149 20 -9 5 -37 44
-62 86 -56 95 -96 153 -105 153 -4 0 -37 -59 -72 -131z m144 -18 c42 -70 68
-104 90 -115 20 -10 72 -17 150 -20 66 -2 123 -9 129 -15 17 -17 -13 -65 -86
-141 -99 -104 -103 -117 -88 -254 6 -63 17 -131 22 -151 6 -20 8 -39 6 -42 -8
-7 -66 26 -121 69 -61 48 -118 78 -148 78 -25 0 -115 -39 -156 -69 -50 -34
-162 -92 -162 -83 0 5 7 29 15 53 20 56 55 215 55 249 0 34 -49 108 -128 191
-75 80 -76 79 95 87 l123 5 30 45 c16 25 39 69 50 99 26 69 48 113 58 113 4 0
34 -45 66 -99z m-620 -530 c3 -5 22 -12 42 -15 38 -8 90 -47 99 -77 3 -10 22
-34 41 -53 28 -28 34 -42 34 -75 0 -46 14 -52 55 -25 22 14 24 14 34 -3 7 -15
5 -22 -9 -31 -31 -19 -97 -114 -105 -150 -9 -43 12 -75 65 -98 22 -10 40 -21
40 -25 0 -3 -20 -12 -44 -19 -57 -16 -74 -6 -125 72 -22 35 -48 71 -58 81 -14
14 -15 21 -6 37 14 21 11 23 -49 54 -30 15 -35 22 -27 32 9 11 7 15 -5 20 -9
3 -16 15 -16 25 0 10 -4 19 -8 19 -5 0 -14 25 -21 55 -7 30 -17 57 -22 60 -16
10 -10 27 7 21 13 -5 15 -1 11 21 -4 21 1 34 21 54 30 30 38 33 46 20z m1209
-16 c13 -32 19 -173 8 -179 -6 -4 -8 -18 -5 -31 8 -33 -9 -38 -48 -16 -126 75
-249 33 -365 -125 -18 -25 -22 -27 -28 -12 -4 10 4 37 22 70 24 44 33 53 53
50 26 -3 40 12 40 46 0 12 4 22 10 22 5 0 29 18 51 40 23 22 48 40 56 40 7 0
17 8 20 17 12 30 75 78 117 89 45 12 62 9 69 -11z m-572 -111 c67 -44 73 -54
91 -134 20 -93 18 -104 -16 -108 -32 -4 -114 -53 -158 -95 -24 -22 -30 -24
-53 -14 -13 7 -25 20 -25 30 0 10 -10 37 -22 60 -13 23 -23 58 -24 77 0 19 -4
58 -8 86 l-8 51 73 41 c41 22 79 41 85 41 7 1 36 -15 65 -35z m496 -145 c90
-44 160 -169 151 -272 -6 -70 -36 -131 -103 -205 -80 -88 -107 -102 -196 -102
-90 0 -145 23 -184 74 -74 98 -71 234 9 370 38 64 102 123 158 146 41 16 119
11 165 -11z m-769 -46 c41 -41 70 -93 78 -141 6 -36 10 -42 30 -42 15 0 24 -6
24 -15 0 -8 -6 -15 -14 -15 -7 0 -19 7 -26 15 -15 18 -32 20 -28 3 4 -20 -3
-22 -58 -14 -39 5 -54 12 -64 30 -7 13 -28 32 -46 42 -19 10 -34 25 -34 32 0
25 83 132 102 132 4 0 21 -12 36 -27z m391 -97 c9 -10 9 -20 0 -40 -7 -14 -16
-26 -21 -26 -4 0 -29 -16 -54 -35 -42 -32 -52 -36 -98 -33 -79 5 -73 25 30 92
88 57 122 67 143 42z m-172 -219 c7 -24 32 -73 57 -110 25 -36 46 -69 46 -72
0 -11 -28 -4 -40 10 -19 23 -46 18 -74 -12 -27 -29 -28 -28 -41 37 -4 19 -15
75 -25 125 -10 49 -16 93 -14 97 3 4 22 -2 42 -12 30 -16 40 -29 49 -63z
m-127 62 c0 -12 -69 -70 -124 -102 l-59 -35 -23 46 c-13 26 -24 48 -24 50 0 2
24 14 53 26 38 18 69 23 114 22 35 0 63 -3 63 -7z m-428 -16 c10 -9 26 -17 36
-18 139 -13 168 -35 158 -122 -4 -35 -2 -53 5 -53 5 0 7 -5 3 -11 -11 -18 -28
8 -30 43 -2 36 -42 78 -74 78 -10 0 -32 -11 -49 -25 l-30 -26 5 33 c5 27 1 39
-21 61 -28 27 -78 37 -90 17 -9 -15 -25 -2 -25 21 0 16 7 19 47 19 30 0 53 -6
65 -17z m1330 -43 c10 -21 15 -46 12 -54 -3 -8 -1 -24 5 -35 7 -11 7 -22 2
-25 -5 -3 -8 -30 -6 -60 2 -38 -1 -58 -10 -66 -8 -7 -17 -31 -21 -55 -9 -65
-29 -65 -88 -2 -29 30 -67 60 -87 67 l-37 13 60 55 c37 35 74 83 100 129 22
40 43 73 47 73 3 0 14 -18 23 -40z m-635 -46 c10 -88 82 -184 153 -204 45 -13
116 -13 159 0 19 5 36 8 38 6 3 -2 -9 -31 -26 -65 -39 -77 -41 -122 -4 -150
14 -12 38 -24 52 -27 55 -12 55 -15 3 -44 -58 -34 -72 -37 -72 -15 0 23 -49
65 -75 65 -11 0 -30 -6 -40 -14 -18 -13 -20 -11 -30 17 -5 16 -23 39 -38 51
l-28 21 -37 -20 c-21 -12 -41 -32 -46 -48 -20 -56 56 -108 114 -77 17 9 20 8
20 -8 0 -21 43 -72 60 -72 13 0 13 -27 -1 -35 -5 -4 -18 0 -28 9 -10 9 -30 16
-46 16 -31 0 -75 -34 -75 -58 0 -12 -6 -10 -23 6 -41 39 -107 20 -128 -35 -9
-24 -11 -25 -28 -9 -38 34 -104 10 -124 -46 -6 -16 -8 -16 -35 -1 -25 14 -34
15 -60 4 -17 -7 -34 -22 -37 -32 -7 -22 -18 -24 -46 -8 -26 13 -56 3 -86 -29
-23 -25 -25 -25 -52 -9 -19 11 -40 15 -58 11 -23 -4 -37 0 -61 21 -18 15 -32
30 -32 35 0 4 25 15 55 25 31 9 78 34 104 55 137 108 198 255 157 375 -16 49
-14 65 8 65 8 0 12 -9 9 -23 -6 -29 40 -77 74 -77 15 0 34 -12 50 -30 26 -32
78 -41 101 -18 8 8 14 4 22 -17 21 -56 76 -72 124 -34 34 27 35 71 1 104 -26
27 -41 30 -80 15 -21 -8 -27 -7 -32 8 -3 9 -14 26 -24 37 -21 24 -16 64 13 95
18 19 21 20 37 6 19 -18 86 -22 96 -6 6 10 -10 41 -75 150 -21 36 -39 68 -39
71 -1 4 25 -1 56 -11 50 -15 57 -21 60 -46z m-251 9 c3 -21 12 -63 19 -93 19
-83 26 -148 15 -155 -6 -3 -14 5 -20 19 -12 32 -44 49 -81 44 -25 -4 -29 -1
-29 19 0 35 -43 73 -82 73 -38 0 -31 9 37 44 28 14 66 39 85 55 19 17 38 30
42 31 4 0 10 -17 14 -37z m-634 -13 c11 0 28 5 39 10 16 9 19 7 19 -10 0 -12
10 -31 23 -44 l24 -24 -44 -38 c-24 -22 -46 -40 -47 -42 -11 -10 -56 13 -56
28 0 9 -9 29 -21 44 -17 21 -19 34 -14 71 l7 45 25 -20 c14 -11 34 -20 45 -20z
m309 -113 c30 -16 57 -43 86 -87 99 -147 81 -262 -63 -407 -73 -74 -93 -83
-186 -83 -85 0 -127 18 -173 74 -114 139 -41 386 150 507 44 27 129 26 186 -4z
m1037 -113 c57 -49 93 -112 88 -155 l-4 -34 -56 0 c-41 0 -59 5 -68 18 -7 10
-31 24 -53 32 -34 11 -40 18 -38 40 2 33 61 135 77 135 7 0 31 -16 54 -36z
m408 -25 c35 -21 49 -57 18 -45 -19 7 -67 -21 -109 -65 -44 -46 -99 -62 -135
-39 -12 8 -6 19 35 61 59 61 122 109 143 109 8 0 30 -9 48 -21z m-221 -179 c3
-5 15 -10 25 -10 13 0 27 -15 41 -42 12 -23 46 -68 76 -99 55 -58 65 -96 17
-64 -28 18 -53 9 -78 -27 -9 -12 -17 -20 -19 -17 -10 11 -97 240 -97 254 0 17
25 21 35 5z m-75 -27 c0 -17 -135 -153 -151 -153 -4 0 -16 16 -28 35 -11 19
-25 35 -31 35 -51 0 85 82 150 91 25 3 48 7 53 7 4 1 7 -6 7 -15z m231 -224
c15 -7 29 -7 52 0 21 8 34 8 41 1 5 -5 18 -10 27 -10 25 0 70 -63 74 -102 2
-18 6 -41 10 -50 4 -10 3 -18 -3 -18 -5 0 -12 -16 -15 -36 -6 -37 -67 -104
-96 -104 -12 0 -12 3 -3 12 15 15 15 58 -1 79 -20 26 -55 40 -82 33 -22 -5
-25 -3 -25 20 0 15 -11 38 -25 52 -22 22 -25 31 -19 62 12 69 26 82 65 61z
m-237 -246 c89 -63 144 -177 133 -275 -10 -82 -88 -196 -181 -264 -36 -27 -46
-29 -126 -29 -78 0 -91 3 -128 28 -24 15 -55 49 -72 80 -29 49 -31 57 -27 137
4 95 26 152 97 250 78 108 209 139 304 73z m-790 -19 c24 -9 19 -29 -9 -42
-14 -6 -41 -36 -60 -66 -19 -30 -45 -62 -57 -70 -23 -16 -88 -22 -88 -8 0 15
91 157 112 175 20 17 72 23 102 11z m-372 -100 c75 -52 98 -125 44 -144 -41
-14 -79 -12 -112 5 -16 8 -41 15 -56 15 -14 0 -28 6 -30 12 -6 18 8 90 26 133
l15 36 38 -16 c21 -9 55 -27 75 -41z m273 -176 c27 -27 73 -63 102 -79 29 -17
53 -33 53 -36 0 -3 -16 -3 -36 0 -27 5 -40 1 -55 -14 -10 -10 -19 -25 -19 -33
0 -30 -19 -25 -40 9 -12 20 -27 41 -34 48 -31 31 -97 139 -93 151 11 27 70 5
122 -46z m-897 38 c3 -3 -7 -17 -21 -30 -33 -30 -36 -75 -7 -101 15 -13 17
-22 10 -36 -14 -26 -12 -58 5 -75 21 -22 19 -31 -12 -48 -25 -12 -32 -12 -70
8 -32 16 -45 30 -56 61 -7 22 -20 56 -27 75 -7 19 -14 58 -16 87 -4 48 -2 52
24 62 26 10 159 8 170 -3z m2237 -4 c11 -9 30 -37 41 -62 42 -87 43 -93 24
-120 -10 -14 -20 -38 -23 -55 -23 -122 -43 -132 -128 -65 -59 46 -71 43 -91
-22 -10 -34 -36 -58 -62 -58 -2 0 -1 19 1 43 4 32 1 46 -12 57 -15 13 -14 15
17 29 18 9 39 29 46 44 12 24 11 31 -2 52 -22 34 -20 42 14 48 18 4 35 17 44
34 22 41 75 93 94 93 9 -1 26 -8 37 -18z m-1495 -17 c0 -15 -52 -110 -81 -147
-18 -24 -34 -45 -36 -47 -2 -3 -12 5 -23 16 -10 12 -29 28 -42 37 l-23 16 47
46 c28 28 65 54 95 64 56 20 63 22 63 15z m514 -225 c7 -49 22 -73 62 -96 17
-10 15 -14 -28 -35 -41 -20 -50 -29 -64 -71 -8 -26 -19 -48 -22 -48 -4 0 -20
23 -35 50 l-28 50 -55 0 -55 0 32 40 c31 38 32 42 22 85 l-10 45 46 -6 c38 -5
54 -2 82 15 19 11 37 21 40 21 4 0 9 -23 13 -50z m-1035 -59 c21 -11 52 -37
69 -58 86 -110 100 -213 43 -321 -38 -69 -125 -162 -176 -186 -39 -19 -132
-21 -187 -4 -49 15 -113 83 -128 137 -16 61 -14 143 6 203 22 69 33 86 121
188 59 68 165 85 252 41z m1908 -13 c24 -37 65 -62 99 -60 26 2 34 -1 31 -10
-27 -65 -29 -87 -14 -132 9 -25 13 -46 9 -46 -4 0 -31 9 -59 20 l-53 20 -34
-30 c-18 -17 -36 -30 -40 -30 -3 0 -6 20 -6 45 0 35 -5 49 -27 70 -15 14 -31
25 -35 25 -5 0 -8 6 -8 14 0 8 14 17 30 21 33 7 54 33 65 78 7 28 28 36 42 15z
m-2267 -117 c0 -6 -4 -12 -9 -15 -19 -12 -44 -103 -50 -181 -5 -72 -8 -80 -26
-77 -11 2 -25 12 -32 22 -7 10 -25 21 -40 25 -38 9 -113 83 -113 111 0 14 10
28 28 37 15 8 49 27 76 42 26 15 66 29 88 31 22 1 43 5 46 8 9 9 32 7 32 -3z
m1993 -152 c45 -12 47 -29 5 -49 -17 -8 -39 -28 -47 -45 -27 -51 -45 -71 -78
-89 -36 -18 -73 -21 -73 -6 0 16 73 140 82 140 4 0 8 6 8 13 0 11 45 46 60 47
3 0 22 -5 43 -11z m-400 -74 c68 -31 113 -80 120 -127 l6 -37 -54 -12 c-45
-10 -56 -9 -76 5 -13 9 -40 16 -61 16 -20 0 -40 5 -43 10 -7 12 12 112 28 147
13 29 16 29 80 -2z m915 -141 c20 -8 50 -27 65 -42 35 -34 84 -109 92 -143 6
-23 1 -29 -38 -52 -49 -29 -97 -80 -97 -103 0 -16 -26 -19 -35 -4 -21 35 -242
120 -310 120 -32 0 -31 4 20 95 39 70 52 83 120 119 58 30 126 34 183 10z
m-600 -56 c19 -21 61 -55 93 -75 67 -40 76 -58 25 -49 -36 7 -52 -5 -71 -52
-10 -24 -11 -24 -48 29 -20 30 -57 83 -82 118 -24 35 -42 67 -40 71 3 5 24 6
46 3 32 -5 50 -15 77 -45z m-158 -2 c0 -25 -93 -176 -109 -176 -6 0 -21 11
-34 24 -13 12 -30 25 -38 28 -23 9 78 106 123 119 20 5 40 14 43 19 10 16 15
11 15 -14z m-1852 -36 c47 -56 88 -189 63 -204 -6 -4 -11 -16 -11 -27 0 -22
-3 -23 -70 -8 -36 8 -54 17 -61 33 -6 12 -28 33 -49 47 l-40 25 21 39 c12 22
39 61 61 88 42 50 49 51 86 7z m414 -103 c14 -12 28 -31 30 -42 2 -16 -3 -20
-28 -20 -17 0 -49 -13 -74 -30 -88 -62 -95 -65 -142 -65 -26 0 -50 5 -54 12
-14 22 177 168 220 168 11 -1 33 -11 48 -23z m2480 -64 c32 -29 21 -81 -30
-135 -21 -23 -25 -36 -23 -83 1 -35 -5 -69 -15 -91 -16 -33 -20 -35 -48 -29
-85 17 -106 17 -148 -4 -24 -11 -59 -24 -78 -27 -69 -13 -134 -63 -146 -111
-7 -28 -18 -29 -52 -4 -15 10 -62 33 -106 51 -144 60 -236 169 -222 264 8 51
53 116 101 146 50 31 157 38 237 15 75 -21 248 -103 248 -118 0 -6 -12 -24
-27 -39 -19 -20 -22 -28 -12 -28 21 0 52 36 78 93 23 47 82 98 126 110 44 11
99 7 117 -10z m-2733 -120 c23 -14 32 -27 37 -58 3 -22 26 -79 50 -128 24 -48
44 -89 44 -92 0 -12 -31 -3 -36 10 -11 27 -60 18 -88 -15 -25 -30 -25 -31 -30
-8 -3 13 -8 52 -11 88 -3 36 -9 98 -13 138 -9 92 -7 95 47 65z m-89 -2 c0 -17
-115 -111 -150 -122 -19 -6 -40 -16 -47 -21 -8 -6 -17 4 -32 37 -11 25 -19 49
-19 53 1 4 29 19 62 34 45 20 77 28 124 28 34 0 62 -4 62 -9z m3955 -89 c107
-34 169 -73 250 -160 153 -165 228 -359 229 -597 1 -116 -2 -140 -27 -217 -24
-77 -30 -88 -51 -88 -20 0 -24 6 -29 51 -7 60 -42 139 -86 193 -31 38 -40 79
-21 91 16 10 11 70 -10 119 l-19 46 28 0 c30 0 70 34 52 44 -5 4 -12 2 -16 -4
-3 -5 -19 -10 -34 -10 -28 0 -28 1 -35 75 -4 42 -9 82 -13 90 -12 34 -18 10
-15 -65 2 -44 1 -80 -2 -80 -4 0 -23 16 -43 35 -20 20 -64 48 -97 64 -34 16
-87 41 -119 56 -46 21 -57 31 -52 45 4 13 -4 26 -28 44 -27 21 -45 26 -90 26
-50 0 -58 3 -76 29 -12 16 -41 39 -66 51 -38 18 -59 21 -145 19 -55 -2 -102 0
-106 3 -20 21 213 145 298 158 81 13 254 3 323 -18z m-4205 -81 c0 -11 -4 -23
-10 -26 -16 -10 -12 -55 4 -55 8 0 16 5 18 12 2 6 10 8 16 4 9 -5 6 -16 -13
-38 -32 -37 -32 -70 0 -103 20 -22 22 -30 12 -45 -19 -31 7 -80 51 -96 1 0 -5
-17 -13 -38 -13 -31 -18 -35 -35 -26 -34 18 -67 11 -94 -20 -25 -30 -26 -30
-50 -15 -16 11 -35 15 -53 11 -27 -6 -29 -4 -45 49 -9 31 -14 64 -10 74 8 20
63 90 100 126 25 25 28 35 10 35 -7 0 -28 9 -46 20 -30 18 -31 22 -20 43 6 12
14 38 17 57 l6 34 64 2 c34 2 66 5 69 8 11 12 22 5 22 -13z m2925 -71 c3 -5
39 -10 79 -10 68 0 74 -2 102 -31 25 -26 29 -38 30 -90 0 -32 4 -62 7 -66 10
-9 9 -71 -1 -77 -5 -3 -37 6 -72 21 l-63 25 -96 -16 c-85 -14 -99 -19 -131
-51 -20 -19 -41 -35 -47 -35 -19 0 -72 -62 -84 -99 -17 -54 -19 -55 -50 -25
-21 20 -29 37 -29 63 0 20 -7 45 -15 55 -26 35 -18 88 24 161 44 75 85 125
104 126 42 2 72 10 94 25 48 31 135 45 148 24z m883 -32 c27 -7 53 -23 72 -44
25 -29 36 -34 75 -34 62 0 104 -23 112 -60 5 -26 19 -36 117 -84 61 -30 131
-72 156 -94 82 -72 132 -216 80 -229 -23 -6 -25 -16 -8 -43 11 -16 9 -22 -7
-34 -11 -9 -28 -16 -39 -16 -12 0 -16 -5 -13 -15 15 -36 -48 -29 -87 10 -14
14 -53 73 -88 132 -100 171 -181 239 -329 278 -54 15 -94 16 -254 11 -198 -6
-266 1 -293 28 -15 14 -14 19 1 51 9 20 17 49 17 65 0 44 31 70 84 70 24 0 48
6 55 14 9 10 43 12 159 9 81 -2 166 -9 190 -15z m-699 -268 c34 -18 61 -38 61
-44 0 -16 -39 -58 -87 -95 -24 -18 -43 -40 -43 -48 0 -8 -26 -41 -59 -72 -67
-65 -106 -131 -97 -167 5 -17 -1 -34 -18 -57 -26 -35 -56 -115 -56 -150 0 -12
7 -32 15 -45 15 -20 14 -28 -5 -88 -31 -102 -24 -224 14 -224 11 0 15 -20 18
-88 2 -68 8 -98 28 -138 l26 -51 -28 -59 c-15 -32 -28 -67 -28 -76 0 -10 -11
-25 -25 -34 -14 -9 -25 -24 -25 -33 0 -9 -6 -25 -13 -36 -22 -32 -34 -78 -27
-105 4 -15 -1 -41 -12 -65 -9 -22 -18 -64 -18 -92 0 -47 -3 -54 -29 -67 -27
-15 -74 -63 -98 -102 -10 -17 -12 -18 -25 -3 -18 21 -62 36 -126 43 -73 7
-118 25 -131 52 -13 29 5 98 48 181 21 43 40 108 60 205 31 157 62 232 145
358 27 41 68 94 90 118 54 57 74 94 81 157 7 53 3 72 -60 283 -40 133 -50 248
-30 337 18 84 47 133 91 155 16 8 41 27 56 43 20 20 37 27 65 27 21 0 45 5 53
11 28 19 124 3 189 -31z m339 -23 c2 -22 -1 -37 -8 -37 -6 0 -15 -11 -21 -24
-9 -20 -20 -24 -68 -29 -63 -5 -141 -39 -141 -62 0 -7 8 -20 19 -27 10 -7 22
-28 26 -46 8 -39 45 -79 81 -88 26 -7 49 5 26 13 -7 3 -26 16 -42 30 -22 18
-30 33 -30 59 0 28 -4 35 -25 40 -64 16 9 55 106 56 59 0 80 -4 134 -31 l65
-32 -6 -40 c-5 -31 -2 -46 17 -74 27 -40 133 -99 197 -110 49 -8 116 9 143 36
25 25 60 19 142 -24 108 -57 154 -144 82 -157 -21 -4 -29 -11 -27 -23 4 -21
-35 -31 -94 -23 -24 3 -44 2 -44 -3 0 -14 50 -31 95 -31 36 0 48 5 61 25 9 14
22 25 29 25 24 0 45 31 45 65 0 26 -9 44 -38 75 -32 32 -36 42 -25 51 7 6 13
22 13 34 0 30 30 42 47 18 21 -30 66 -73 76 -73 5 0 6 -11 3 -24 -3 -13 1 -37
10 -55 14 -29 14 -34 0 -56 -9 -14 -21 -25 -27 -25 -6 0 -6 -6 1 -19 5 -11 10
-48 10 -82 0 -51 -4 -67 -22 -86 -12 -13 -27 -23 -35 -23 -7 0 -13 -7 -13 -15
0 -8 4 -15 9 -15 18 0 34 -72 28 -127 -8 -73 -43 -121 -97 -129 -38 -6 -52
-25 -30 -39 13 -8 13 -86 0 -120 -15 -38 -35 -55 -75 -62 -24 -4 -43 0 -61 12
-23 15 -38 14 -39 -3 -4 -49 -78 -101 -150 -104 -45 -3 -58 5 -71 40 0 1 -17
-12 -36 -30 -36 -35 -103 -58 -165 -58 -30 0 -43 7 -75 42 l-38 41 -23 -21
c-68 -64 -202 -68 -263 -8 -21 22 -74 131 -74 154 0 18 -5 20 -57 15 -49 -4
-61 -2 -76 15 -26 28 -42 146 -30 215 10 55 9 55 -17 61 -23 4 -28 12 -34 46
-7 45 13 144 45 218 23 54 23 55 -1 47 -50 -16 -28 73 40 163 22 28 35 52 30
52 -6 0 -10 14 -10 32 0 25 11 42 50 80 28 27 61 53 75 58 17 6 22 14 18 28
-6 23 23 53 74 77 22 11 33 22 29 30 -6 18 36 52 74 60 23 5 30 12 30 29 0 34
8 37 85 33 l70 -3 3 -37z m442 22 c105 -40 180 -113 259 -251 32 -57 33 -78 5
-78 -8 0 -14 -10 -14 -25 0 -34 -33 -50 -63 -31 -12 8 -47 21 -77 29 -43 11
-56 19 -58 36 -5 32 -22 25 -22 -9 0 -46 -35 -64 -118 -58 -152 11 -259 115
-187 182 27 25 24 42 -5 24 -15 -10 -25 -7 -53 15 -19 14 -53 34 -76 43 -46
18 -51 33 -20 52 17 11 20 20 15 46 -3 18 -4 35 -1 38 3 2 85 6 183 7 159 1
183 -1 232 -20z m-3493 -115 c50 -24 87 -65 122 -136 52 -103 40 -195 -40
-304 -47 -64 -116 -122 -160 -134 -59 -17 -141 -12 -184 11 -83 45 -120 113
-120 225 0 73 3 87 39 159 22 44 49 89 60 100 37 38 105 87 134 96 36 11 105
3 149 -17z m-645 -383 c11 -21 29 -33 57 -41 l40 -11 -20 -34 c-12 -19 -25
-38 -30 -41 -5 -3 -9 -21 -9 -40 0 -37 -10 -43 -35 -18 -15 15 -20 15 -63 1
-26 -8 -49 -13 -50 -12 -2 2 2 19 9 38 11 31 10 39 -9 71 -27 46 -27 46 2 46
17 0 34 12 52 35 14 19 29 35 33 35 3 0 14 -13 23 -29z m1491 -13 c24 -13 21
-21 -16 -38 -17 -8 -41 -30 -52 -48 -41 -70 -68 -93 -112 -99 -34 -4 -43 -3
-43 9 0 9 7 21 15 28 8 7 15 16 15 21 0 20 75 121 99 134 26 13 59 11 94 -7z
m-381 -93 c45 -30 72 -69 74 -107 1 -24 -3 -29 -35 -38 -49 -13 -64 -13 -97 5
-16 8 -44 15 -61 15 -31 0 -33 2 -33 36 0 40 18 112 33 131 11 15 59 -3 119
-42z m3769 -41 c7 -9 12 -29 11 -45 -2 -28 -1 -28 24 -17 23 11 29 10 45 -11
11 -13 19 -27 19 -31 0 -17 -32 -40 -56 -40 -27 0 -29 -3 -12 -29 23 -37 -16
-76 -53 -53 -16 11 -21 8 -33 -23 -12 -27 -21 -35 -41 -35 -33 0 -55 42 -37
71 17 26 15 29 -11 29 -31 0 -47 18 -47 52 0 25 25 51 47 47 22 -4 23 3 2 20
-20 16 -21 21 -10 35 16 19 42 21 59 4 9 -9 16 -5 32 15 24 31 42 34 61 11z
m-1931 -79 c10 -12 6 -21 -19 -52 -17 -21 -31 -42 -31 -48 0 -33 -99 -90 -114
-67 -7 12 55 126 87 160 24 25 59 29 77 7z m-1600 -14 c0 -16 84 -90 126 -113
53 -28 58 -49 12 -46 -29 3 -35 -1 -52 -36 l-19 -40 -16 24 c-9 13 -38 53 -64
89 -56 75 -80 118 -73 129 6 10 86 3 86 -7z m-162 -117 c-18 -30 -43 -64 -55
-76 l-22 -21 -30 26 c-17 14 -36 27 -43 30 -24 9 70 94 126 114 50 18 51 18
54 0 2 -10 -11 -43 -30 -73z m1406 75 c66 -31 114 -83 112 -122 -1 -29 -5 -33
-43 -41 -33 -7 -48 -5 -67 8 -14 9 -39 16 -56 16 -28 0 -30 2 -30 37 0 33 27
123 36 123 3 0 24 -9 48 -21z m1999 -248 c67 -62 119 -102 155 -117 35 -16 42
-39 14 -48 -10 -3 -35 -32 -55 -63 -33 -51 -37 -64 -33 -103 3 -33 0 -50 -12
-64 -12 -12 -18 -41 -20 -95 -3 -67 -1 -80 20 -111 13 -19 43 -45 66 -58 33
-19 42 -29 42 -51 0 -14 7 -37 16 -49 19 -27 34 -19 -234 -116 -332 -121 -545
-173 -656 -160 -33 3 -97 22 -143 40 -82 33 -140 44 -128 24 3 -5 16 -10 29
-10 12 0 31 -6 41 -14 19 -13 17 -15 -20 -22 -22 -4 -78 -8 -125 -8 l-84 -1
-8 49 c-8 56 -34 88 -91 113 -39 18 -39 18 -35 64 3 27 14 58 26 74 12 15 22
40 22 55 0 15 7 41 15 56 8 16 15 41 15 56 0 15 7 43 16 61 14 30 23 35 63 41
25 3 70 18 99 33 53 27 53 27 67 6 47 -67 177 -70 264 -5 30 22 37 24 66 14
74 -27 150 -2 206 68 26 32 35 37 50 30 10 -6 35 -10 57 -10 76 0 131 88 116
185 -5 39 -4 43 12 39 25 -6 77 44 100 96 10 22 19 40 22 40 2 0 22 -18 45
-39z m497 -109 c17 -13 38 -21 46 -18 21 8 54 -30 54 -62 0 -25 -6 -30 -51
-47 -99 -35 -139 -94 -139 -208 0 -35 -6 -49 -31 -73 -62 -59 -88 -138 -66
-203 14 -38 13 -41 -4 -41 -47 0 -99 35 -99 67 0 33 -12 63 -25 63 -35 0 -105
98 -105 147 0 33 33 112 53 124 6 4 6 13 0 24 -17 29 6 94 44 129 19 17 48 43
64 59 17 15 41 30 54 33 13 3 29 12 35 18 6 8 34 12 74 12 51 -1 71 -6 96 -24z
m454 -43 c72 -85 27 -186 -101 -224 -50 -15 -109 -52 -99 -63 3 -3 21 3 40 13
l34 19 46 -38 c45 -37 108 -122 128 -175 25 -67 28 -124 11 -210 -32 -167
-113 -237 -267 -232 -108 3 -175 45 -206 129 -40 106 -48 117 -104 144 -43 22
-58 35 -76 73 -26 54 -23 95 12 149 25 39 43 48 33 16 -3 -11 -2 -20 4 -20 14
0 19 22 30 123 16 138 37 157 220 200 90 20 100 25 153 74 70 64 103 69 142
22z m-5011 -90 c88 -45 148 -142 155 -251 4 -60 1 -72 -29 -129 -37 -68 -130
-169 -157 -169 -30 0 -317 92 -332 106 -10 10 -14 37 -15 97 0 75 3 89 38 162
53 110 77 138 148 174 75 37 132 40 192 10z m-504 -25 c13 -12 11 -15 -15 -24
-21 -7 -43 -30 -69 -71 -21 -33 -51 -67 -66 -75 -31 -15 -79 -19 -79 -5 0 16
75 135 107 168 28 31 35 34 70 27 21 -3 45 -12 52 -20z m3280 -48 c19 -40 51
-87 73 -108 l40 -37 -21 -34 c-11 -19 -21 -47 -21 -63 0 -16 -7 -38 -15 -48
-8 -11 -15 -30 -15 -43 0 -13 -8 -40 -19 -61 -10 -20 -22 -56 -26 -79 -4 -24
-7 -43 -8 -43 -1 0 -27 7 -57 16 -30 9 -95 19 -145 22 -90 7 -90 7 -93 36 -2
15 4 51 14 80 9 28 18 72 19 97 2 26 11 59 21 74 10 15 19 37 19 48 1 11 9 25
18 32 9 6 26 40 38 76 32 92 43 104 98 105 l47 0 33 -70z m-1097 -4 c65 -27
139 -140 152 -233 12 -82 -34 -179 -132 -276 -60 -59 -95 -73 -179 -73 -102 0
-117 11 -123 89 l-5 64 -43 15 c-31 10 -46 22 -53 41 -15 38 -2 101 26 129 18
17 25 36 25 61 0 27 10 51 37 88 40 53 40 54 120 94 43 21 59 24 100 19 26 -4
60 -12 75 -18z m-1152 -152 c38 -35 49 -39 77 -34 38 7 38 6 19 -40 -12 -29
-22 -36 -73 -51 -101 -30 -114 -29 -151 5 -37 35 -37 35 10 58 24 12 37 29 48
60 8 23 17 42 20 42 3 0 26 -18 50 -40z m-1162 -42 c14 -16 58 -52 98 -79 41
-27 74 -52 74 -54 0 -3 -26 -2 -58 1 -39 4 -67 2 -82 -6 -26 -14 -28 -12 -100
94 -52 76 -52 86 2 78 30 -4 49 -14 66 -34z m-149 -30 c-5 -18 -18 -45 -29
-61 -12 -15 -32 -44 -46 -65 -29 -42 -33 -42 -66 -9 -13 13 -31 26 -39 29 -22
9 71 98 123 119 64 25 68 24 57 -13z m1656 -19 l48 -21 -29 -12 c-16 -7 -62
-23 -102 -36 -72 -24 -73 -24 -125 -5 -28 10 -56 21 -60 25 -9 8 162 67 199
69 12 1 43 -9 69 -20z m138 -56 c26 -9 47 -20 47 -24 0 -3 -41 -21 -92 -39
l-92 -33 -53 18 c-30 10 -56 22 -59 26 -5 8 151 68 181 69 11 0 41 -8 68 -17z
m-392 -21 c25 -9 47 -21 48 -26 1 -6 -34 -22 -77 -38 l-80 -28 -67 29 c-40 17
-63 31 -56 36 20 12 134 43 161 44 14 1 46 -7 71 -17z m634 -77 c39 -16 74
-31 78 -35 5 -4 -36 -22 -90 -39 l-98 -32 -111 43 c-61 24 -112 47 -115 52 -2
5 37 23 86 40 101 36 75 39 250 -29z m695 25 c25 -11 50 -65 50 -107 0 -10 9
-33 20 -51 21 -34 27 -102 10 -102 -6 0 -44 10 -85 22 -66 19 -80 21 -123 9
-27 -6 -61 -9 -74 -6 -20 5 -29 1 -41 -15 -14 -21 -16 -21 -40 -6 -13 9 -32
14 -41 10 -9 -3 -16 -1 -16 5 0 6 5 11 11 11 13 0 97 57 124 85 36 37 82 99
104 142 20 41 22 42 48 28 16 -7 39 -18 53 -25z m-1542 -16 c34 -15 62 -30 62
-33 0 -7 -172 -71 -191 -71 -23 0 -169 51 -169 59 0 8 190 68 220 70 8 1 43
-11 78 -25z m377 5 c25 -11 45 -22 43 -25 -2 -2 -43 -18 -91 -35 l-87 -30 -50
22 c-28 13 -47 26 -43 30 12 12 135 57 159 58 12 0 43 -8 69 -20z m-1482 -61
c37 -12 67 -24 67 -27 0 -3 -38 -21 -84 -39 l-83 -33 -67 22 c-36 12 -66 25
-66 28 0 5 138 65 160 70 3 1 35 -9 73 -21z m1657 -7 c24 -11 47 -21 51 -21 3
0 28 -10 55 -21 l48 -22 -65 -24 c-133 -50 -133 -50 -252 2 -59 26 -107 50
-107 54 0 3 35 18 78 33 87 31 127 31 192 -1z m-392 -6 c23 -9 42 -20 42 -24
0 -4 -40 -21 -89 -39 l-89 -32 -56 21 c-31 12 -54 25 -51 28 11 10 180 70 190
66 6 -1 29 -11 53 -20z m-398 -23 l85 -29 3 -126 c1 -70 0 -127 -4 -127 -4 0
-52 17 -107 37 l-99 37 6 95 c8 104 14 141 25 141 4 0 45 -13 91 -28z m1208
-87 l-3 -116 -109 -44 c-61 -25 -111 -45 -113 -45 -2 0 -3 56 -3 124 l0 124
63 22 c34 12 78 28 97 35 72 27 71 28 68 -100z m-1903 61 l60 -24 -80 -37 -80
-37 -67 23 c-38 13 -68 26 -68 29 0 6 150 69 165 69 6 0 37 -11 70 -23z m1277
-32 c57 -25 107 -49 111 -53 5 -5 -24 -20 -63 -35 l-71 -26 -129 42 c-72 23
-130 45 -130 48 0 5 151 66 172 69 4 0 54 -19 110 -45z m-1554 -106 c3 -103 6
-101 -95 -59 -54 23 -68 34 -67 50 0 12 1 50 2 85 l2 64 78 -27 77 -26 3 -87z
m786 100 c3 -24 7 -64 10 -89 l5 -47 -70 -26 c-39 -14 -73 -26 -77 -26 -4 0
-6 43 -4 95 3 81 6 95 20 96 9 0 35 9 57 19 22 10 43 19 47 19 4 1 9 -18 12
-41z m2732 14 c99 -33 163 -69 175 -100 27 -69 -17 -261 -76 -329 l-33 -38
-88 1 c-148 0 -287 47 -357 119 -44 46 -48 82 -17 193 24 85 59 145 97 167 39
22 215 14 299 -13z m-2358 -14 l62 -22 0 -128 c0 -70 -3 -128 -7 -128 -4 0
-37 11 -73 25 l-65 25 3 125 c2 69 6 125 10 125 4 0 35 -10 70 -22z m770 -114
l-3 -126 -84 -34 c-47 -19 -91 -34 -98 -34 -9 0 -13 18 -13 64 0 34 -3 90 -6
123 l-7 60 99 35 c55 20 103 36 107 37 4 0 6 -56 5 -125z m-1476 88 l43 -19
-40 -12 c-22 -7 -64 -22 -92 -33 -51 -20 -54 -20 -103 -2 -27 10 -50 21 -50
25 0 3 30 20 68 37 74 35 103 35 174 4z m178 -85 l0 -94 -39 -11 c-62 -19 -61
-20 -61 77 l0 89 38 15 c62 26 62 26 62 -76z m4309 67 c6 -15 10 -28 8 -30
-12 -13 -299 -143 -414 -188 -178 -70 -259 -93 -413 -112 -112 -14 -416 -21
-427 -10 -3 2 5 45 18 94 l23 89 90 7 c50 3 117 11 149 17 45 9 64 9 85 -1 81
-36 117 -43 222 -37 92 5 123 11 250 55 80 28 197 71 260 96 63 25 120 46 126
46 6 0 16 -12 23 -26z m-4826 -12 l47 -17 0 -92 c0 -51 -4 -93 -9 -93 -5 0
-38 13 -73 28 -60 28 -63 30 -61 63 1 19 2 58 2 87 1 60 -6 58 94 24z m1342
-45 l40 -14 3 -131 c2 -110 0 -132 -12 -132 -8 0 -61 18 -117 40 -57 22 -109
40 -116 40 -10 0 -13 31 -13 135 l0 134 88 -29 c48 -17 105 -36 127 -43z
m1599 45 l38 -16 -8 -50 c-4 -28 -7 -62 -7 -75 1 -20 -3 -22 -27 -17 -47 9
-119 47 -140 73 -21 27 -42 91 -35 103 8 13 138 0 179 -18z m-2536 -93 l-3
-91 -94 -39 c-52 -22 -95 -38 -96 -37 -8 9 -14 175 -8 185 9 13 158 71 186 72
16 1 17 -8 15 -90z m1769 71 c27 0 44 -8 68 -32 l32 -33 -71 -35 -71 -35 -3
-73 -3 -73 -30 31 c-17 16 -39 30 -50 30 -17 0 -19 7 -19 60 0 56 2 60 30 75
27 14 30 21 30 60 0 44 0 44 26 35 14 -6 41 -10 61 -10z m-583 -27 c3 -21 6
-79 6 -130 l0 -91 -72 -30 c-40 -16 -83 -33 -96 -37 l-23 -7 3 137 3 136 80
29 c44 15 83 29 86 29 4 1 9 -16 13 -36z m-1437 -8 l33 -14 0 -96 c0 -53 -4
-95 -8 -93 -4 2 -31 12 -60 22 l-52 20 0 94 0 94 27 -7 c15 -3 42 -13 60 -20z
m4729 -36 l18 -42 -28 -22 c-15 -12 -111 -55 -212 -94 -101 -40 -219 -91 -261
-115 -58 -32 -94 -44 -137 -49 -37 -4 -81 -17 -117 -36 -38 -20 -71 -30 -98
-29 -28 0 -53 -8 -79 -25 -28 -18 -56 -26 -112 -31 -238 -21 -218 -21 -274 7
-28 14 -78 31 -111 37 -33 7 -66 14 -72 16 -20 5 -15 24 6 24 42 0 141 61 141
87 0 4 107 8 237 8 197 0 252 3 318 19 167 39 252 68 475 166 241 106 271 118
281 119 3 1 14 -18 25 -40z m-2478 -11 c34 -13 62 -26 62 -29 0 -4 -36 -21
-81 -39 l-80 -32 -67 25 -67 25 60 26 c33 14 69 30 80 35 27 13 23 14 93 -11z
m397 -15 c23 -21 68 -47 100 -57 31 -11 59 -25 60 -30 2 -6 6 -23 9 -37 3 -14
22 -44 41 -65 25 -27 35 -47 33 -64 -4 -35 -35 -28 -73 15 -16 19 -50 43 -75
53 -50 22 -65 36 -103 104 -15 26 -37 54 -48 62 -15 10 -19 20 -14 35 9 29 21
26 70 -16z m-2923 -39 c10 -6 11 -484 1 -484 -5 0 -30 13 -58 28 l-50 27 -3
237 -2 238 52 -21 c28 -11 56 -23 60 -25z m788 -187 l0 -233 -55 -27 c-31 -15
-60 -27 -65 -27 -6 0 -10 90 -10 239 l0 240 53 20 c28 11 58 20 65 20 9 1 12
-52 12 -232z m195 190 l80 -32 -1 -323 c-1 -177 -4 -325 -6 -327 -3 -3 -44 13
-91 35 l-87 41 0 319 c0 250 3 320 13 320 6 -1 48 -15 92 -33z m1145 -289 c0
-172 -4 -318 -8 -324 -8 -12 -136 -74 -152 -74 -6 0 -10 115 -10 324 l0 324
73 30 c39 17 78 31 85 31 9 1 12 -68 12 -311z m546 286 c17 -4 24 -13 24 -30
0 -19 -11 -29 -50 -48 l-51 -25 -57 20 c-31 10 -64 22 -72 25 -18 7 149 75
168 69 8 -3 25 -8 38 -11z m198 -28 c17 -18 46 -54 64 -80 19 -27 50 -55 75
-67 23 -11 56 -36 74 -55 54 -57 113 -53 113 8 0 22 13 23 43 3 27 -18 136
-53 190 -62 28 -4 41 -12 47 -29 14 -35 50 -53 121 -60 36 -4 74 -14 86 -24
12 -9 43 -23 68 -30 40 -11 63 -10 188 11 97 16 151 31 173 45 20 14 41 20 60
17 19 -3 48 5 83 23 33 16 81 30 123 34 49 6 79 15 107 34 45 31 203 102 316
141 44 16 104 39 134 52 52 22 55 22 73 6 24 -22 80 -122 103 -186 16 -41 16
-55 6 -101 -16 -73 -57 -116 -161 -168 -47 -24 -117 -69 -155 -99 -86 -69
-136 -99 -163 -99 -11 0 -47 -18 -80 -40 -51 -34 -67 -40 -112 -40 -38 0 -71
-8 -115 -29 -68 -32 -175 -56 -211 -47 -12 3 -49 -1 -81 -9 -32 -9 -100 -21
-151 -27 -81 -11 -102 -10 -160 5 -37 9 -101 17 -143 17 -81 0 -114 10 -199
60 -28 17 -86 39 -128 50 -128 34 -196 73 -299 173 -50 49 -107 97 -125 107
-18 9 -39 30 -47 46 -7 16 -26 43 -41 59 -36 40 -42 68 -24 118 11 30 13 61 9
107 -14 141 63 217 139 136z m-2230 -219 l5 -237 -43 -25 c-23 -14 -47 -25
-52 -25 -5 0 -9 105 -9 246 l0 246 45 18 c25 10 46 17 47 16 2 -1 5 -109 7
-239z m1734 201 l52 -19 0 -86 c0 -46 -3 -83 -8 -81 -4 2 -40 16 -80 32 l-72
29 0 83 0 84 28 -11 c15 -6 51 -20 80 -31z m-2273 3 l64 -29 -6 -194 c-3 -106
-8 -214 -12 -240 l-6 -47 -60 30 -60 30 3 240 c1 131 5 239 8 239 2 0 33 -13
69 -29z m1063 -23 l65 -23 -7 -330 c-4 -181 -9 -331 -11 -334 -4 -3 -78 28
-115 48 -12 6 -16 34 -18 122 -4 132 8 539 15 539 3 0 35 -10 71 -22z m772
-308 l0 -331 -86 -40 c-48 -22 -89 -38 -90 -36 -6 6 -25 649 -20 654 4 4 186
82 194 83 1 0 2 -149 2 -330z m-1410 75 l0 -245 -90 -45 c-49 -25 -94 -45
-100 -45 -6 0 -10 88 -10 254 l0 254 28 10 c15 6 54 22 87 36 33 14 66 26 73
26 9 0 12 -56 12 -245z m-271 194 l48 -20 6 -247 c3 -135 3 -250 1 -254 -3 -4
-37 8 -76 28 l-71 36 6 150 c4 83 7 191 7 240 0 101 1 101 79 67z m2298 -1
c28 -14 28 -14 24 -98 -2 -47 -4 -86 -5 -88 -4 -3 -109 40 -119 49 -5 4 -6 42
-2 84 l8 77 33 -5 c18 -3 46 -12 61 -19z m-1167 -41 l115 -42 -1 -343 c0 -188
-4 -345 -7 -349 -4 -3 -63 20 -132 52 l-125 58 0 197 c0 269 10 470 24 469 6
0 63 -19 126 -42z m1263 8 c29 -12 36 -21 42 -53 3 -21 1 -50 -4 -66 -6 -15
-11 -39 -11 -53 0 -22 -3 -24 -27 -18 -16 4 -34 11 -40 17 -20 16 -17 188 2
188 2 0 18 -7 38 -15z m-929 -112 c3 -65 9 -215 12 -333 l7 -215 -100 -48
c-55 -26 -103 -47 -106 -47 -4 0 -6 154 -5 342 l3 343 85 37 c47 20 88 37 91
37 4 1 9 -52 13 -116z m669 13 l37 -16 0 -230 c0 -127 -2 -230 -5 -230 -2 0
-29 12 -60 27 l-55 27 0 228 0 228 23 -9 c12 -5 39 -16 60 -25z m136 -58 l53
-23 -7 -225 c-4 -124 -9 -227 -11 -229 -4 -4 -81 24 -100 37 -15 9 -16 28 -15
265 1 149 4 197 13 197 7 0 37 -10 67 -22z m138 -59 c44 -16 52 -58 56 -292 2
-119 1 -216 -2 -214 -4 1 -33 15 -66 30 -32 15 -62 32 -66 38 -6 11 -2 270 7
387 6 80 2 77 71 51z m98 -125 c8 -20 26 -45 40 -56 20 -16 25 -28 25 -67 0
-26 7 -74 16 -106 29 -108 31 -99 -26 -123 -29 -12 -59 -22 -66 -22 -11 0 -14
38 -14 205 0 113 2 205 5 205 3 0 11 -16 20 -36z m228 -201 c91 -84 153 -117
260 -138 62 -11 95 -25 150 -60 40 -26 84 -49 100 -52 38 -8 42 -19 14 -47
-90 -90 -248 -137 -356 -106 -104 30 -207 167 -266 356 -14 45 -25 99 -25 119
l0 38 22 -19 c13 -10 58 -51 101 -91z m1843 -48 c12 -117 -40 -274 -101 -306
-16 -8 -47 -31 -67 -50 -21 -19 -47 -35 -58 -36 -11 -1 -29 -12 -40 -25 -17
-21 -25 -23 -107 -21 -102 2 -255 38 -347 81 -59 28 -166 106 -166 121 0 18
139 51 216 51 63 0 91 6 139 26 33 15 89 30 125 34 80 10 112 22 160 60 21 17
48 30 59 30 37 0 84 26 126 69 21 22 43 37 47 33 4 -4 11 -35 14 -67z m133
-55 c54 -27 91 -74 93 -118 7 -175 5 -218 -14 -250 -11 -18 -33 -39 -48 -47
-16 -8 -48 -43 -72 -77 -50 -72 -98 -108 -142 -108 -18 0 -49 -9 -71 -20 -62
-32 -102 -36 -133 -13 -15 11 -50 22 -79 25 -46 4 -56 10 -103 58 -52 53 -70
85 -70 121 0 17 8 19 98 19 103 -1 152 9 178 34 8 9 23 16 32 16 15 0 63 39
140 112 34 33 81 136 88 193 3 28 7 56 10 63 5 18 50 15 93 -8z m-2029 -139
c0 -17 114 -133 156 -157 115 -68 269 -47 421 57 23 16 47 29 53 29 6 0 18
-17 26 -37 8 -21 20 -48 26 -60 15 -31 -7 -97 -39 -119 -14 -8 -22 -22 -19
-29 3 -8 -12 -25 -37 -41 -35 -24 -57 -29 -137 -35 -52 -5 -120 -13 -150 -18
-48 -9 -60 -8 -99 11 -26 12 -65 22 -92 22 -41 1 -53 6 -83 35 -20 19 -38 43
-42 53 -3 10 -21 41 -40 69 -41 61 -42 87 -9 127 14 17 25 43 25 59 0 16 3 33
7 36 9 10 33 9 33 -2z m2147 -300 c11 -10 35 -27 53 -36 72 -37 107 -91 131
-202 32 -148 21 -282 -30 -332 -43 -43 -102 -78 -175 -102 -61 -20 -75 -21
-132 -12 -75 13 -137 51 -175 108 -35 52 -50 101 -59 200 -5 44 -11 92 -15
106 -6 23 -1 29 32 50 22 13 55 23 78 24 61 1 109 36 154 114 27 46 50 72 73
83 44 21 41 21 65 -1z m-2083 -106 c20 -9 52 -15 70 -13 20 1 44 -6 63 -20 38
-27 77 -28 142 -3 38 14 66 17 113 14 45 -4 74 -1 101 10 21 9 44 14 52 11 18
-7 38 -78 30 -105 -17 -54 -95 -110 -193 -139 -23 -7 -59 -28 -80 -45 -72 -62
-156 -91 -301 -105 -165 -16 -302 12 -359 73 -36 39 -42 133 -12 182 31 51 91
91 169 116 78 24 114 20 190 -22 30 -18 51 -25 49 -17 -3 7 -23 23 -46 36 -23
13 -40 28 -37 33 8 12 6 12 49 -6z"/>
<path d="M4433 3813 c37 -114 70 -191 87 -205 35 -28 98 -23 169 14 60 31 63
31 90 15 33 -19 41 -21 41 -9 0 5 -11 14 -24 22 -13 7 -27 22 -30 34 -4 16 -8
18 -18 8 -15 -15 -85 -16 -144 -1 -48 12 -138 84 -149 119 -4 11 -11 20 -17
20 -6 0 -8 -8 -5 -17z"/>
<path d="M3672 2228 c-21 -28 -40 -76 -46 -118 -6 -41 -4 -48 25 -79 44 -46
89 -63 185 -69 73 -4 83 -3 103 17 28 28 27 57 -4 77 -32 21 -32 40 2 56 92
44 -27 128 -181 128 -47 0 -77 -5 -84 -12z m144 -18 c99 -18 159 -63 103 -77
-11 -3 -25 -17 -30 -31 -8 -22 -5 -30 21 -57 28 -29 30 -33 14 -46 -36 -29
-187 0 -243 47 -35 29 -40 64 -17 118 23 56 48 64 152 46z"/>
<path d="M1996 5228 c-40 -37 -42 -64 -6 -99 31 -31 37 -32 98 -14 16 6 22 3
22 -8 0 -25 41 -57 72 -57 38 0 78 40 78 79 0 55 -60 83 -122 56 -13 -5 -18
-3 -18 7 0 23 -44 58 -73 58 -14 0 -37 -10 -51 -22z"/>
<path d="M2295 5105 c-34 -33 -33 -77 2 -105 20 -15 36 -20 56 -16 22 5 30 1
39 -19 13 -28 58 -49 88 -40 30 10 60 45 60 72 0 34 -43 73 -80 73 -22 0 -38
9 -57 30 -32 38 -74 40 -108 5z"/>
<path d="M1853 5008 c-6 -7 -16 -30 -22 -50 -11 -32 -18 -39 -54 -48 -84 -22
-83 -20 -19 -86 46 -48 47 -51 47 -111 0 -34 3 -65 7 -69 4 -4 30 14 57 39 28
26 53 47 56 47 3 0 28 -11 55 -25 58 -29 90 -32 90 -8 0 9 -7 42 -16 73 -15
53 -14 58 5 108 19 47 27 92 17 92 -2 0 -23 -7 -46 -15 -51 -18 -46 -18 -62
-2 -26 25 -85 67 -95 67 -6 0 -15 -6 -20 -12z m72 -58 c37 -38 43 -40 79 -34
35 6 38 5 31 -12 -31 -75 -33 -88 -18 -127 9 -21 13 -40 10 -44 -4 -3 -24 2
-47 11 -56 22 -69 20 -107 -16 l-33 -32 0 47 c0 41 -4 50 -41 84 l-40 38 39
16 c32 14 43 26 57 63 10 25 21 46 24 46 4 0 25 -18 46 -40z"/>
<path d="M2582 5003 c-21 -8 -44 -63 -38 -89 9 -34 50 -58 86 -50 28 5 30 4
25 -17 -4 -15 1 -32 15 -50 41 -52 140 -23 140 42 0 35 -43 71 -85 71 -32 0
-36 3 -30 20 5 14 -2 29 -24 50 -28 28 -57 36 -89 23z"/>
<path d="M2536 4797 c-34 -34 -36 -89 -4 -111 33 -23 81 -20 106 7 41 44 17
111 -45 123 -26 5 -37 1 -57 -19z"/>
<path d="M2411 4723 c-22 -11 -34 -25 -38 -44 -5 -27 -8 -28 -44 -23 -32 5
-42 2 -63 -19 -14 -15 -26 -38 -26 -52 0 -29 2 -28 -39 -14 -39 14 -77 -8 -93
-52 -8 -23 -15 -28 -27 -23 -43 18 -70 16 -95 -9 -14 -15 -26 -35 -26 -47 0
-25 -12 -26 -35 0 -10 11 -28 20 -40 20 -32 0 -72 -35 -80 -70 -6 -28 -8 -29
-28 -15 -50 35 -117 0 -117 -61 0 -38 36 -74 74 -74 35 0 76 41 76 76 0 26 1
26 18 11 41 -38 132 0 132 54 l0 22 23 -21 c42 -40 99 -24 124 35 11 27 17 33
26 24 6 -6 26 -11 44 -11 38 0 83 37 83 69 0 16 5 18 38 14 43 -6 92 25 92 58
0 16 7 19 43 19 76 0 115 71 65 117 -34 30 -51 33 -87 16z"/>
<path d="M2439 4340 c-56 -29 -138 -127 -178 -210 -32 -67 -36 -85 -39 -173
-4 -90 -2 -102 23 -153 64 -131 222 -168 364 -87 64 37 147 128 182 199 28 56
31 71 28 136 -5 90 -38 164 -105 230 -75 76 -195 101 -275 58z m174 -35 c52
-22 93 -60 128 -122 26 -45 33 -71 37 -128 4 -68 2 -77 -29 -136 -36 -68 -134
-174 -175 -189 -39 -15 -181 -12 -212 4 -74 39 -113 112 -115 215 -2 64 3 88
28 150 33 83 103 164 170 199 47 25 118 28 168 7z"/>
<path d="M3210 4335 c-7 -8 -18 -32 -25 -52 -11 -33 -19 -39 -60 -50 -26 -6
-52 -16 -57 -21 -6 -6 10 -30 41 -64 50 -54 51 -58 51 -116 0 -34 4 -63 8 -66
5 -3 28 15 52 39 24 25 49 45 56 45 6 0 37 -12 68 -26 80 -37 89 -28 65 65
-11 43 -15 79 -10 85 16 21 40 106 31 111 -5 3 -29 0 -54 -6 -45 -11 -46 -11
-95 30 -27 22 -51 41 -54 41 -2 0 -10 -7 -17 -15z m71 -61 c30 -31 39 -35 72
-31 20 3 37 3 37 1 0 -2 -7 -22 -17 -45 -14 -36 -14 -48 -4 -91 7 -27 11 -51
9 -53 -3 -3 -28 5 -56 17 l-52 22 -33 -32 c-18 -18 -36 -32 -40 -32 -4 0 -7
19 -7 42 0 35 -6 49 -37 80 -20 21 -35 39 -32 41 2 1 20 10 40 19 27 12 38 25
47 57 7 23 18 41 25 41 7 0 29 -16 48 -36z"/>
<path d="M1521 4304 c-29 -37 -27 -78 5 -103 35 -28 65 -26 98 4 33 31 34 74
3 103 -33 31 -80 29 -106 -4z"/>
<path d="M1352 4277 c-60 -64 8 -153 86 -113 49 25 56 72 17 111 -31 32 -74
33 -103 2z"/>
<path d="M3346 3819 c-32 -38 -33 -63 -1 -94 26 -27 54 -31 88 -13 53 28 61
71 19 111 -38 36 -73 35 -106 -4z"/>
<path d="M3219 3737 c-20 -15 -39 -51 -39 -72 0 -25 46 -65 75 -65 30 0 85 49
85 75 0 25 -55 75 -82 75 -13 0 -30 -6 -39 -13z"/>
<path d="M3080 3667 c-62 -31 -65 -108 -4 -133 43 -18 82 -3 102 39 11 23 11
31 -4 56 -10 16 -28 34 -41 40 -29 13 -23 13 -53 -2z"/>
<path d="M2912 3568 c-11 -13 -23 -35 -27 -49 -5 -21 0 -31 25 -53 36 -30 50
-32 89 -11 49 25 56 82 15 114 -35 27 -75 27 -102 -1z"/>
<path d="M2805 3490 c-12 -4 -27 -15 -34 -24 -18 -22 -38 -20 -46 4 -9 27 -14
26 -59 -16 -40 -36 -40 -37 -94 -27 -68 13 -73 4 -43 -85 19 -58 20 -67 7 -81
-22 -24 -47 -89 -38 -95 5 -3 38 4 73 15 l64 19 20 -27 c69 -94 95 -95 113 -4
11 56 19 71 62 115 34 34 46 53 40 61 -7 8 -3 18 10 30 35 32 22 87 -27 113
-25 14 -21 13 -48 2z m-85 -67 c27 -75 42 -93 78 -93 29 0 28 -16 -4 -36 -31
-21 -54 -64 -54 -103 0 -45 -13 -44 -55 0 -27 29 -44 39 -59 36 -12 -3 -36 -8
-54 -12 l-34 -8 22 44 c23 45 23 43 -7 127 -4 8 8 12 39 12 36 0 50 6 73 30
35 37 43 37 55 3z"/>
<path d="M1791 3054 c-37 -31 -41 -74 -10 -105 17 -17 30 -20 65 -16 40 4 44
3 44 -17 0 -40 28 -66 69 -66 59 0 96 50 75 105 -10 24 -60 46 -89 39 -22 -5
-27 -2 -36 25 -10 28 -52 61 -78 61 -5 0 -23 -12 -40 -26z"/>
<path d="M2060 2890 c-61 -61 -7 -151 72 -121 22 8 27 6 36 -14 26 -57 94 -68
134 -23 25 29 22 64 -8 95 -21 21 -32 25 -65 20 -35 -5 -41 -2 -49 18 -18 46
-85 60 -120 25z"/>
</g>
</svg>
