<?xml version="1.0" standalone="no"?>
<!DOCTYPE svg PUBLIC "-//W3C//DTD SVG 20010904//EN"
 "http://www.w3.org/TR/2001/REC-SVG-20010904/DTD/svg10.dtd">
<svg version="1.0" xmlns="http://www.w3.org/2000/svg"
 width="650.000000pt" height="450.000000pt" viewBox="0 0 650.000000 450.000000"
 preserveAspectRatio="xMidYMid meet">
<metadata>
Created by potrace 1.16, written by Peter Selinger 2001-2019
</metadata>
<g transform="translate(0.000000,450.000000) scale(0.100000,-0.100000)"
fill="#000000" stroke="none">
<path d="M2682 4477 c-19 -23 -31 -66 -52 -186 -27 -161 -71 -306 -117 -393
-33 -62 -48 -79 -103 -115 -35 -24 -75 -43 -88 -43 -22 0 -24 3 -17 37 10 55
7 421 -5 481 -22 117 -39 159 -70 172 -36 15 -82 0 -105 -34 -17 -24 -20 -146
-4 -216 32 -150 33 -164 16 -269 -18 -104 -54 -190 -111 -266 -32 -42 -126
-110 -221 -160 -63 -33 -76 -37 -131 -33 -47 3 -72 11 -112 37 -65 42 -88 88
-96 199 -12 149 -76 205 -145 127 -23 -26 -31 -46 -31 -73 0 -57 27 -150 61
-210 65 -116 58 -133 -29 -67 -40 30 -70 45 -90 45 -51 0 -62 -9 -62 -49 0
-65 41 -106 222 -219 156 -98 165 -111 165 -235 l0 -93 -79 23 c-63 18 -105
23 -194 23 -91 0 -116 3 -120 15 -3 8 -14 17 -25 20 -10 4 -19 13 -19 20 0 8
-11 22 -25 31 -31 20 -71 12 -80 -16 -3 -11 -13 -20 -21 -20 -8 0 -19 -11 -25
-23 l-11 -24 -116 19 c-65 10 -122 18 -128 18 -5 0 -18 18 -28 40 -45 102
-173 127 -259 51 -28 -25 -31 -35 -29 -75 1 -25 8 -59 17 -75 15 -30 64 -71
85 -71 8 0 10 -12 5 -39 -8 -51 9 -113 43 -154 15 -17 34 -45 42 -61 18 -34
110 -102 201 -146 58 -29 67 -37 75 -69 8 -32 18 -40 93 -78 57 -29 89 -40 99
-34 11 6 40 -8 101 -47 82 -54 191 -102 231 -102 35 0 65 -21 93 -67 46 -75
106 -226 132 -335 24 -97 74 -437 75 -504 l0 -31 -342 -7 c-189 -3 -379 -11
-423 -16 -44 -5 -127 -14 -185 -20 -220 -22 -378 -54 -615 -125 -50 -15 -98
-30 -107 -32 -11 -3 -18 -15 -18 -28 0 -18 8 -26 38 -35 57 -19 60 -27 22 -59
-24 -20 -32 -33 -25 -39 6 -6 55 -16 110 -23 99 -11 101 -11 165 15 164 68
192 76 333 93 326 38 809 14 1083 -54 l62 -15 -2 -63 -1 -64 -70 -16 c-125
-31 -417 -122 -565 -178 -358 -134 -689 -317 -859 -473 -52 -48 -48 -64 15
-64 50 0 57 11 17 26 -26 9 -23 12 88 90 190 133 240 162 455 261 336 153 742
276 1199 361 l100 19 0 34 c1 37 31 88 121 200 67 84 110 102 223 93 71 -6 79
-4 115 20 33 23 40 25 50 12 6 -8 20 -16 31 -18 14 -2 21 -14 25 -38 9 -49 22
-70 75 -119 37 -34 49 -40 60 -31 8 7 21 10 29 7 7 -3 23 1 35 9 12 9 45 23
73 33 62 21 88 52 93 112 3 33 7 44 20 43 13 -2 16 6 13 39 -2 25 2 42 10 44
9 3 12 -10 12 -49 -1 -97 -28 -332 -50 -428 -50 -215 -195 -444 -353 -557
l-35 -25 -103 27 c-187 48 -405 143 -473 206 l-28 26 193 2 c256 2 297 9 360
62 45 38 76 76 67 84 -2 2 -35 -17 -74 -41 l-71 -45 -172 -8 c-106 -6 -213 -5
-279 0 -245 23 -646 -23 -941 -106 -117 -33 -544 -246 -611 -305 l-45 -40 36
0 c24 0 42 7 55 21 10 11 129 75 264 141 226 111 257 123 400 159 177 45 308
64 534 79 234 15 245 14 255 -13 25 -66 205 -168 429 -242 65 -22 108 -41 101
-45 -18 -12 27 -36 91 -50 30 -6 109 -17 175 -24 112 -13 122 -13 155 4 26 14
67 20 165 24 122 5 420 47 565 80 36 9 120 27 188 41 l123 26 87 -21 c64 -17
137 -24 277 -30 105 -5 199 -6 211 -4 37 9 205 -14 224 -31 9 -8 27 -38 40
-65 18 -39 29 -50 47 -50 13 0 23 3 23 7 0 19 -95 156 -114 162 -32 12 -146
21 -401 31 -126 5 -243 13 -260 18 l-30 9 25 7 c14 3 86 20 160 37 74 17 145
33 157 36 13 3 36 -4 56 -16 58 -36 152 -52 322 -57 88 -3 161 -8 161 -12 1
-4 17 -55 35 -114 28 -95 35 -108 55 -108 l22 0 -30 76 c-19 51 -28 89 -26
117 l3 42 115 8 c148 10 216 3 244 -28 11 -12 48 -66 81 -119 52 -85 62 -96
87 -96 29 0 28 1 -62 135 -50 74 -97 138 -103 142 -7 5 -187 10 -402 13 -374
5 -392 7 -446 28 -70 28 -153 106 -146 136 3 12 11 41 17 65 8 32 8 59 0 93
-17 80 -13 180 10 233 13 31 18 59 15 79 l-6 31 65 1 c54 1 74 6 113 30 71 44
82 67 137 305 12 53 36 99 116 224 55 86 107 175 117 196 19 44 28 47 63 22
88 -60 159 -137 208 -226 88 -158 86 -148 87 -513 l0 -320 25 -38 c23 -34 140
-129 176 -143 26 -10 44 -60 44 -121 0 -107 119 -372 168 -372 27 0 27 4 2 40
-12 16 -43 75 -70 132 -47 96 -50 108 -50 182 0 105 -22 149 -96 195 -29 19
-75 54 -101 77 l-48 42 3 268 c4 276 -5 393 -34 471 l-16 41 35 35 c20 19 39
47 43 63 4 16 15 38 25 49 26 29 69 126 69 157 0 16 -9 34 -25 46 -24 19 -24
21 -11 59 18 52 30 162 21 202 -5 26 -11 31 -35 31 -28 0 -29 2 -32 56 -2 41
-8 60 -20 68 -25 15 -51 -3 -63 -45 -17 -59 -81 -153 -160 -235 -42 -43 -88
-98 -102 -121 -27 -46 -30 -48 -52 -34 -12 8 -9 23 22 88 20 43 48 125 63 182
25 96 26 114 21 260 -7 231 -50 371 -152 497 -19 22 -37 58 -40 80 -17 93
-113 231 -197 281 -89 54 -124 65 -211 64 -67 0 -90 -5 -134 -28 l-54 -27
-103 17 c-57 9 -118 17 -135 17 l-30 0 21 36 c11 19 31 72 44 117 20 68 24
104 24 217 0 153 6 180 61 261 44 66 92 104 168 136 78 31 124 30 181 -7 77
-49 84 -61 77 -130 -7 -81 7 -86 77 -26 l54 46 48 -15 c58 -17 114 -19 114 -4
0 6 -8 23 -19 37 -10 15 -24 45 -31 66 -12 37 -11 41 11 60 13 12 32 34 42 49
16 24 16 28 2 33 -9 4 -43 4 -76 2 l-61 -4 -29 58 c-42 83 -62 79 -89 -22 -15
-53 -17 -56 -65 -72 -38 -13 -68 -16 -125 -11 -228 17 -400 -75 -486 -262 -19
-40 -34 -79 -34 -85 0 -25 -77 -154 -107 -181 -46 -40 -151 -70 -245 -70 -71
0 -87 4 -205 54 -302 128 -460 157 -690 127 -59 -8 -99 -21 -168 -55 -94 -47
-127 -57 -105 -30 20 24 1 38 -42 31 -50 -8 -85 -26 -125 -63 -17 -16 -49 -35
-71 -41 -48 -15 -102 -73 -129 -138 -12 -30 -24 -44 -37 -44 -16 0 -18 -6 -13
-40 4 -30 2 -40 -9 -40 -22 0 -16 -39 11 -72 16 -19 23 -37 20 -49 -3 -10 -2
-34 3 -52 9 -31 7 -37 -17 -56 -14 -12 -50 -35 -78 -51 -70 -40 -103 -91 -110
-169 -3 -34 -9 -61 -13 -61 -4 0 -19 9 -34 21 -22 17 -26 28 -26 72 0 30 -11
81 -26 122 -47 129 -26 272 51 363 30 35 97 91 216 182 38 28 218 124 324 171
344 155 495 234 554 291 89 87 158 186 176 253 20 78 20 174 -1 203 -40 58
-123 0 -159 -111 -32 -96 -82 -185 -133 -236 -57 -57 -129 -107 -167 -117 -25
-6 -27 -5 -22 12 69 214 91 326 86 446 -3 67 -8 91 -23 107 -21 23 -68 28 -84
8z m61 -62 c19 -56 -8 -276 -48 -395 -38 -114 -43 -148 -20 -156 45 -18 161
44 248 130 49 50 123 177 132 229 10 52 61 129 83 125 14 -3 17 -15 15 -79 -2
-90 -16 -128 -79 -212 -106 -143 -162 -179 -522 -337 -248 -109 -386 -182
-493 -261 -96 -72 -158 -133 -192 -192 -37 -62 -70 -166 -63 -199 8 -41 -5
-34 -43 23 -21 33 -36 70 -40 104 -4 29 -15 65 -24 79 -33 50 -66 26 -98 -72
-12 -39 -25 -72 -28 -72 -4 1 -15 15 -26 32 -21 34 -59 63 -166 127 -78 47
-165 124 -174 152 -17 52 41 43 106 -15 36 -34 89 -53 109 -41 19 12 10 79
-16 130 -15 28 -36 67 -47 88 -10 21 -22 67 -25 102 -4 54 -2 69 13 85 44 49
74 9 85 -112 11 -127 20 -146 97 -206 99 -77 182 -83 306 -21 164 83 229 143
296 275 59 117 80 296 47 410 -8 27 -20 85 -26 128 -11 73 -10 81 8 105 11 15
29 26 43 26 55 0 73 -120 66 -442 -4 -217 -3 -233 14 -249 17 -16 23 -15 95
17 91 40 141 91 190 194 45 94 89 266 104 400 7 61 14 116 16 123 7 25 47 9
57 -23z m2138 -343 c8 -21 13 -23 52 -17 23 3 50 9 60 11 24 7 22 -13 -3 -26
-11 -6 -27 -22 -36 -35 -15 -23 -14 -28 13 -84 17 -36 25 -61 18 -61 -6 0 -35
7 -65 16 l-53 16 -41 -41 c-23 -23 -45 -41 -49 -41 -4 0 -7 27 -6 59 2 63 -3
70 -80 127 -12 9 -4 15 44 30 l59 19 13 55 c24 96 25 96 74 -28z m-492 -106
c-43 -29 -100 -97 -130 -156 -20 -38 -24 -65 -30 -199 -7 -183 -34 -289 -97
-387 -70 -109 -146 -151 -354 -199 -204 -47 -405 -115 -423 -144 -13 -23 -32
-9 -57 43 -19 38 -23 56 -15 59 9 3 7 19 -6 61 -44 140 -146 260 -290 341 -38
22 -39 23 -18 34 31 17 19 27 -41 34 -29 3 -79 17 -110 32 -31 14 -79 28 -107
32 -28 3 -51 10 -51 14 0 5 2 9 5 9 2 0 30 7 62 15 32 8 109 20 171 25 195 17
343 -15 608 -132 l119 -52 110 0 c125 1 200 22 261 76 42 37 96 132 129 227
47 133 113 216 210 262 73 35 103 38 54 5z m-1883 -453 c-1 -16 13 -19 119
-24 79 -4 136 -12 165 -23 25 -10 60 -23 78 -29 17 -7 32 -17 32 -23 0 -7 24
-26 53 -42 29 -17 90 -64 134 -106 62 -58 90 -94 122 -155 22 -43 41 -82 41
-85 0 -4 -11 -4 -25 0 -30 7 -32 -5 -5 -39 27 -34 98 -184 106 -223 l6 -30
-134 0 c-73 1 -161 -3 -195 -7 l-61 -9 -22 49 c-12 26 -31 73 -42 103 -12 30
-29 67 -40 82 -12 18 -17 35 -12 52 5 21 0 31 -25 53 -17 15 -31 32 -31 38 -1
16 -69 55 -96 55 -16 0 -39 14 -62 38 -36 38 -38 39 -116 40 -55 1 -84 6 -96
17 -21 19 -46 19 -53 2 -3 -9 -16 -12 -36 -9 -29 4 -33 1 -30 -25 0 -4 -17
-12 -38 -18 -26 -7 -42 -20 -51 -38 -11 -23 -16 -26 -28 -16 -17 14 -19 39 -3
39 8 0 10 12 6 35 -4 26 -2 35 8 35 8 0 28 26 44 58 32 64 90 122 121 122 11
0 34 15 51 34 29 33 82 65 105 66 7 0 11 -8 10 -17z m-816 -335 c0 -28 16 -65
59 -136 72 -123 91 -177 91 -264 0 -63 -2 -69 -25 -80 -28 -13 -30 -19 -13
-36 9 -9 4 -21 -26 -51 -133 -137 -351 -145 -628 -24 -73 31 -88 42 -88 60 0
31 18 116 42 196 l20 68 122 -2 c66 -1 148 -7 182 -14 83 -18 162 -53 169 -76
4 -10 13 -19 21 -19 18 0 18 4 -1 41 -28 52 -30 173 -6 266 12 46 25 93 30
105 5 13 13 32 16 43 7 18 9 17 21 -10 7 -16 13 -47 14 -67z m711 22 c6 -16
15 -30 21 -30 5 0 8 -10 6 -22 -3 -20 -8 -23 -41 -21 -45 3 -137 -30 -162 -57
-23 -26 -11 -39 14 -16 27 24 106 46 140 40 40 -8 61 6 77 51 14 43 11 57 -11
48 -8 -3 -15 0 -15 7 0 9 10 10 33 5 17 -3 49 -7 69 -8 24 -1 46 -10 60 -24
12 -13 17 -23 11 -23 -15 0 -43 -56 -43 -85 0 -29 19 -45 53 -45 37 0 95 -56
103 -99 7 -36 32 -41 57 -13 29 32 60 21 78 -29 54 -145 62 -169 58 -173 -2
-2 -32 -8 -67 -12 -62 -7 -62 -6 -62 19 0 31 -24 57 -52 57 -18 0 -19 -2 -7
-16 11 -14 10 -18 -6 -31 -26 -19 -69 -10 -118 25 -77 53 -112 71 -142 71 -16
0 -37 1 -45 1 -8 1 -31 -2 -50 -5 -69 -13 -120 65 -71 109 11 10 38 20 60 23
23 3 41 11 41 18 0 17 -24 26 -58 19 -28 -5 -62 10 -49 22 4 4 18 2 32 -4 15
-7 27 -8 30 -2 11 18 -6 30 -45 30 -21 0 -42 -4 -45 -10 -3 -5 -17 -10 -31
-10 -18 0 -24 6 -26 23 -3 44 4 82 17 97 8 8 13 20 12 25 0 6 12 12 29 15 17
3 33 14 39 27 7 17 15 20 36 16 15 -3 30 0 33 6 12 19 27 12 37 -19z m2332
-14 c50 -18 108 -59 162 -115 63 -64 85 -134 92 -286 5 -110 4 -124 -18 -175
-24 -58 -86 -149 -129 -189 -41 -38 -171 -136 -220 -164 -62 -36 -152 -63
-310 -92 -243 -46 -420 -97 -420 -122 0 -3 12 -31 26 -62 23 -47 26 -64 21
-117 -8 -81 -26 -123 -75 -172 -40 -40 -114 -68 -146 -56 -13 5 -11 12 15 42
29 32 31 40 27 94 -3 46 -10 64 -31 86 -93 97 -264 105 -417 22 -30 -17 -93
-49 -140 -72 l-85 -42 -130 0 c-114 0 -140 4 -211 27 -126 42 -301 169 -361
262 -44 68 -74 107 -80 101 -3 -2 1 -14 7 -26 17 -32 6 -34 -37 -7 -103 65
-153 162 -167 325 -6 74 -13 111 -20 109 -6 -3 -10 -10 -8 -16 5 -27 -21 -7
-47 35 -60 93 -48 240 24 303 42 37 65 40 65 9 0 -46 41 -72 95 -62 26 5 41 1
64 -15 24 -17 44 -21 116 -21 92 0 103 -4 171 -55 55 -42 122 -55 159 -31 34
23 38 20 20 -15 -51 -98 -285 -89 -397 16 -32 30 -36 31 -34 8 1 -15 -7 -18
-54 -17 -85 2 -151 44 -169 109 l-9 30 -1 -31 c-1 -43 32 -82 93 -110 54 -25
134 -32 153 -13 8 8 20 5 45 -14 52 -39 90 -55 160 -67 55 -10 76 -9 129 5 37
9 75 26 89 40 21 20 37 25 76 25 27 0 67 5 89 10 87 21 249 30 335 19 84 -10
249 -51 370 -91 51 -17 89 -22 175 -22 100 0 115 2 161 26 76 40 114 88 114
144 0 39 -5 51 -34 80 -38 38 -85 45 -124 18 -33 -23 -27 -2 11 34 66 64 158
80 237 40 65 -33 100 -89 113 -182 l11 -76 68 0 c39 0 85 7 105 15 56 24 116
78 145 131 30 55 51 153 42 193 -13 54 -89 111 -148 111 -13 0 -38 -12 -55
-26 -37 -30 -40 -20 -8 26 36 54 99 80 187 80 41 -1 92 -7 113 -14z m-454 -17
c54 -7 105 -15 111 -19 10 -6 10 -18 -1 -55 l-14 -47 -45 6 c-25 3 -87 8 -137
12 -52 4 -97 12 -103 19 -11 14 53 95 75 95 8 0 59 -5 114 -11z m-1599 -58 c0
-5 12 -11 28 -13 18 -2 26 -8 24 -19 -1 -9 11 -22 31 -31 28 -14 33 -21 34
-54 1 -27 -5 -45 -18 -57 -10 -10 -19 -22 -19 -27 0 -6 -4 -10 -9 -10 -5 0
-12 18 -16 40 -9 54 -70 110 -120 110 -19 0 -35 4 -35 9 0 23 14 41 30 41 11
0 22 5 25 10 8 13 45 13 45 1z m-2085 -30 c54 -24 70 -55 56 -108 -12 -45 -54
-73 -109 -73 -69 0 -122 50 -122 116 0 68 93 103 175 65z m3489 -41 c9 -22 16
-44 16 -49 0 -5 -21 -12 -47 -16 -100 -15 -183 -85 -183 -153 0 -50 23 -82 59
-82 32 0 56 22 47 45 -7 19 -26 20 -26 0 0 -20 -39 -19 -47 2 -8 20 30 53 61
53 27 0 62 -35 71 -72 5 -21 0 -34 -31 -68 -42 -47 -72 -64 -126 -74 l-38 -7
0 54 c0 76 -27 225 -49 270 -21 43 -23 41 54 57 53 12 174 57 190 71 18 18 33
8 49 -31z m181 -1 c99 -12 121 -20 130 -48 3 -10 21 -27 41 -37 33 -18 36 -18
65 -2 28 16 33 16 60 2 17 -8 33 -22 36 -30 8 -22 -13 -84 -40 -118 l-23 -28
-37 25 c-47 32 -179 87 -208 87 -12 0 -37 15 -55 34 -18 19 -47 37 -64 41 -22
5 -34 16 -44 38 -7 18 -11 35 -9 40 6 10 42 9 148 -4z m-3255 -74 c0 -13 33
-38 41 -31 2 2 16 6 30 9 l26 7 -22 -63 c-13 -34 -31 -106 -41 -159 -19 -98
-27 -115 -37 -78 -6 24 -52 37 -73 19 -10 -8 -14 -25 -12 -48 2 -29 8 -38 32
-46 24 -8 31 -6 46 13 18 21 18 19 24 -96 4 -64 8 -132 11 -150 2 -18 1 -32
-3 -30 -4 2 -37 18 -74 35 -42 19 -68 38 -68 47 0 13 4 12 20 -4 44 -44 110
-12 96 45 -14 55 -60 70 -97 33 l-21 -23 6 98 c12 185 39 324 77 399 20 39 39
50 39 23z m2754 -24 c34 -65 59 -275 37 -310 -11 -18 -73 -9 -195 29 -50 15
-126 35 -168 45 l-78 17 0 35 c0 19 -4 43 -10 53 -19 35 71 81 265 135 66 18
123 31 128 28 4 -2 13 -17 21 -32z m-2938 3 c97 -25 105 -29 100 -48 -14 -48
-46 -210 -46 -232 0 -24 -14 -32 -25 -14 -3 6 -15 10 -26 10 -16 0 -19 -5 -14
-20 6 -18 2 -20 -47 -20 -79 0 -121 16 -174 64 -46 41 -48 45 -52 108 l-4 65
33 7 c48 9 108 52 115 81 8 31 11 31 140 -1z m3555 -114 c89 -37 119 -56 119
-74 0 -22 -81 -56 -132 -56 l-46 0 -9 63 c-6 34 -14 70 -18 80 -10 23 1 22 86
-13z m724 -152 c55 -115 78 -237 79 -408 0 -130 -3 -155 -28 -240 -33 -113
-134 -319 -238 -485 -89 -143 -114 -195 -128 -278 -29 -162 -59 -225 -124
-256 -57 -28 -186 -27 -186 1 0 5 19 17 43 27 69 30 73 38 136 236 19 59 50
129 77 170 101 160 184 344 235 520 29 101 32 123 33 260 0 108 -4 170 -16
222 l-17 72 29 53 c16 29 34 76 40 103 16 67 18 75 25 75 3 0 21 -33 40 -72z
m-3184 -15 c23 -15 46 -41 55 -62 14 -34 14 -35 -23 -74 -48 -49 -128 -103
-195 -130 -47 -19 -71 -22 -218 -21 l-165 0 -117 41 c-65 23 -138 53 -163 67
-43 25 -45 29 -45 71 0 25 3 45 6 45 4 0 41 -17 83 -39 125 -63 216 -85 357
-86 119 0 121 0 196 38 70 34 158 112 158 139 0 8 21 37 28 38 1 0 21 -12 43
-27z m122 -171 c16 -24 27 -61 31 -105 15 -136 114 -274 225 -313 28 -11 53
-26 56 -34 13 -41 199 -205 277 -246 27 -14 28 -16 13 -43 -8 -16 -28 -33 -44
-39 -16 -6 -34 -20 -41 -31 -9 -17 -20 -21 -61 -21 -46 0 -51 -2 -70 -35 -12
-19 -24 -35 -28 -35 -3 0 -18 13 -32 29 -15 17 -39 33 -54 37 -58 15 -86 -76
-45 -144 11 -18 20 -36 20 -41 0 -5 -22 -14 -49 -21 -131 -31 -234 -163 -156
-198 14 -6 25 -18 25 -26 0 -8 -28 -39 -63 -69 -34 -31 -96 -99 -137 -151 -41
-53 -77 -96 -81 -96 -17 0 -66 159 -78 256 -6 49 -21 163 -32 254 -42 335 -98
528 -194 662 l-35 48 35 0 c46 0 108 26 103 42 -4 10 -31 12 -104 10 -140 -4
-229 20 -360 99 l-101 61 -7 65 c-4 36 -5 68 -2 71 3 2 20 -6 38 -20 49 -36
213 -95 301 -107 112 -16 263 -14 331 4 74 20 172 74 233 130 27 25 51 44 55
45 4 0 18 -17 31 -38z m2922 -127 c26 -149 16 -268 -36 -426 -43 -134 -155
-374 -216 -466 -24 -36 -58 -114 -93 -217 l-55 -161 -59 -28 -58 -29 -47 33
c-25 18 -47 33 -49 35 -6 4 58 123 103 194 25 38 65 111 91 162 26 51 61 116
78 143 54 85 105 202 120 278 25 119 35 241 29 332 l-6 85 89 84 c49 46 90 83
91 82 1 0 9 -46 18 -101z m-221 -202 c-13 -243 -55 -391 -160 -560 -25 -40
-58 -101 -74 -137 -17 -36 -48 -95 -69 -130 -22 -35 -56 -98 -77 -140 -35 -70
-54 -90 -68 -67 -3 5 -22 12 -41 15 -32 6 -35 10 -35 43 0 78 74 252 165 388
90 136 150 332 150 492 l-1 102 43 16 c23 9 68 34 100 56 32 21 61 39 66 39 4
0 4 -53 1 -117z m776 -108 c22 5 32 2 36 -9 8 -21 -14 -151 -36 -206 -19 -51
-17 -70 10 -70 10 0 21 -4 25 -9 9 -15 -25 -92 -61 -140 -19 -24 -34 -51 -34
-60 0 -8 -12 -27 -27 -43 -24 -25 -27 -26 -39 -10 -19 25 -17 45 11 93 13 24
32 77 41 118 16 69 16 75 0 86 -15 11 -14 18 9 79 20 52 25 85 25 154 0 50 -5
93 -11 99 -8 8 -7 17 3 34 12 22 13 18 16 -49 l3 -73 29 6z m-1020 69 c19 -49
11 -147 -21 -255 -22 -75 -57 -154 -125 -279 -96 -180 -154 -327 -154 -392 l0
-38 -48 0 c-76 0 -112 51 -112 155 0 68 32 150 150 390 101 206 115 249 108
345 l-5 70 36 6 c20 3 54 9 76 14 71 14 85 12 95 -16z m-232 -79 c2 -33 -2
-80 -8 -104 -13 -51 -111 -266 -147 -324 -14 -22 -42 -82 -64 -135 -47 -115
-53 -204 -19 -274 11 -23 19 -43 17 -44 -6 -6 -54 -6 -69 0 -34 15 -61 78 -66
154 -5 73 -1 100 40 266 30 122 151 349 222 415 26 25 33 41 17 41 -4 0 -26
-14 -47 -31 -36 -29 -43 -31 -97 -25 -58 6 -117 29 -117 46 0 5 10 15 22 21
32 17 237 59 278 56 l35 -2 3 -60z m1175 -104 c-6 -20 -21 -65 -34 -99 -23
-62 -23 -64 -5 -77 23 -17 17 -55 -18 -132 l-24 -51 -59 57 c-32 31 -71 67
-87 79 l-29 22 19 43 c10 23 46 69 79 102 71 70 118 129 137 170 l13 29 9 -53
c6 -35 6 -67 -1 -90z m-1838 -55 c19 -13 19 -16 3 -48 -28 -57 -121 -179 -157
-207 l-34 -26 6 35 c3 19 9 50 13 68 5 25 3 32 -9 32 -10 0 -20 -22 -32 -70
-10 -41 -38 -105 -68 -159 -55 -95 -201 -291 -217 -291 -5 0 -17 15 -26 33 -9
17 -30 51 -45 74 -34 49 -36 56 -9 48 31 -10 25 20 -14 74 -47 64 -96 101
-207 156 -52 26 -95 48 -97 50 -1 1 16 20 38 43 33 35 43 40 62 33 45 -17 155
-22 219 -11 57 10 193 69 302 131 80 45 232 65 272 35z m96 -56 c10 -14 21
-38 24 -55 8 -41 -26 -95 -59 -95 -31 0 -44 30 -16 37 25 7 26 23 2 23 -23 0
-42 -19 -42 -41 0 -26 40 -70 82 -89 l38 -17 -50 -47 c-40 -37 -55 -46 -73
-41 -30 9 -151 57 -156 62 -3 2 14 22 36 46 45 46 113 148 140 209 20 45 45
48 74 8z m263 -108 c-9 -20 -24 -59 -34 -87 -15 -46 -20 -51 -66 -67 -43 -15
-98 -16 -114 -1 -7 6 52 53 67 53 17 0 123 98 123 114 0 16 21 36 32 30 4 -3
0 -22 -8 -42z m-1311 -60 c9 -10 38 -29 64 -42 146 -72 294 -190 272 -216 -7
-8 7 -43 46 -118 55 -106 65 -138 43 -134 -8 2 -12 -18 -13 -61 -1 -56 -4 -66
-25 -80 -44 -29 -115 -54 -163 -56 -44 -2 -50 1 -87 41 -30 32 -40 52 -40 76
0 48 -21 83 -50 83 -29 0 -55 48 -105 196 -43 127 -97 212 -138 217 -32 4 -32
5 -11 37 14 21 24 25 61 23 36 -1 49 4 71 25 31 32 53 34 75 9z m-311 -61 c39
-34 90 -61 115 -61 27 0 66 -71 121 -220 27 -74 52 -143 56 -152 13 -29 -41
-48 -137 -48 -53 0 -98 -6 -120 -15 -95 -40 -171 -2 -232 116 -13 26 -31 49
-40 52 -22 9 -19 31 11 67 32 37 79 62 159 85 60 17 92 35 65 35 -20 1 -60 87
-60 126 0 53 15 56 62 15z m1108 -71 c88 -45 184 -72 283 -81 56 -5 111 -6
123 -3 22 6 22 5 16 -105 -5 -107 -4 -112 22 -151 14 -22 31 -40 37 -40 7 0 9
-11 5 -30 -4 -21 1 -43 16 -72 29 -55 30 -130 3 -158 -27 -27 -72 -28 -181 -6
l-92 19 -45 -26 c-25 -15 -53 -37 -62 -49 -21 -31 -19 -111 4 -156 62 -121
286 -252 431 -252 27 0 86 -9 132 -20 115 -27 223 -30 273 -6 42 20 46 18 76
-36 11 -20 27 -15 -191 -57 -85 -17 -260 -53 -388 -81 -364 -79 -772 -140
-772 -115 0 4 24 44 54 88 76 116 132 264 177 467 22 100 28 369 13 585 -8
116 -16 216 -19 222 -6 17 23 83 36 83 5 0 28 -9 49 -20z m-101 -310 c19 -339
-7 -567 -88 -788 -38 -103 -58 -141 -120 -233 -66 -97 -89 -123 -129 -143 -43
-22 -53 -14 -40 30 11 42 -6 69 -48 77 -36 7 -84 -36 -84 -74 0 -23 -4 -29
-22 -29 -45 0 -148 22 -142 31 3 5 13 9 23 9 49 0 204 133 273 233 43 63 125
222 140 272 31 104 57 281 68 456 l12 194 34 40 c19 22 49 61 67 87 18 26 35
44 38 40 4 -4 12 -95 18 -202z m-1209 -48 c0 -23 75 -93 111 -103 21 -7 39
-14 39 -17 0 -2 -13 -21 -29 -41 -16 -21 -55 -75 -85 -121 l-55 -84 -129 -27
c-71 -15 -138 -30 -149 -33 -14 -5 -23 0 -33 18 -11 21 -10 29 11 63 35 58
175 238 212 271 83 77 107 93 107 74z m-437 -57 c5 -22 20 -75 33 -119 14 -43
23 -80 21 -83 -3 -2 -36 3 -73 12 -124 29 -163 34 -352 50 -237 19 -421 19
-641 0 -182 -16 -188 -18 -376 -99 -60 -26 -131 -32 -200 -17 l-29 6 27 18
c37 24 34 41 -14 69 l-42 25 149 41 c190 53 259 67 446 91 310 40 437 47 798
47 l244 -1 9 -40z m2590 -24 c74 -37 141 -90 116 -91 -25 0 -61 -46 -62 -80
-4 -67 86 -91 117 -32 8 15 16 21 20 14 4 -6 -3 -30 -15 -53 -22 -44 -23 -98
-3 -272 9 -77 -27 -166 -51 -127 -12 19 -79 47 -221 94 -139 46 -214 85 -340
178 -55 40 -149 88 -174 88 -9 0 -32 -9 -53 -19 -28 -14 -37 -16 -37 -5 0 19
60 73 90 79 14 3 72 -6 130 -21 107 -26 197 -34 238 -20 35 12 26 26 -17 26
l-39 0 15 31 c21 42 12 137 -16 185 -12 20 -20 38 -19 40 17 16 69 23 154 21
92 -2 107 -5 167 -36z m-566 -336 c19 -8 65 -37 102 -64 137 -101 271 -165
490 -232 112 -35 6 -54 -136 -25 -37 8 -99 17 -138 21 -177 16 -343 103 -395
206 -46 88 -11 131 77 94z"/>
<path d="M3053 365 c-51 -36 -52 -89 -3 -118 37 -22 46 -21 75 8 27 27 34 85
12 103 -24 20 -61 23 -84 7z"/>
<path d="M4326 794 c-9 -9 -16 -32 -16 -54 0 -30 6 -43 26 -59 36 -28 58 -26
83 5 26 33 27 85 3 107 -23 21 -76 22 -96 1z"/>
</g>
</svg>
