<?xml version="1.0" standalone="no"?>
<!DOCTYPE svg PUBLIC "-//W3C//DTD SVG 20010904//EN"
 "http://www.w3.org/TR/2001/REC-SVG-20010904/DTD/svg10.dtd">
<svg version="1.0" xmlns="http://www.w3.org/2000/svg"
 width="750.000000pt" height="1000.000000pt" viewBox="0 0 750.000000 1000.000000"
 preserveAspectRatio="xMidYMid meet">
<metadata>
Created by potrace 1.16, written by Peter Selinger 2001-2019
</metadata>
<g transform="translate(0.000000,1000.000000) scale(0.100000,-0.100000)"
fill="#000000" stroke="none">
<path d="M2783 9418 c-7 -13 -15 -31 -19 -40 -3 -10 -10 -18 -15 -18 -24 0 -1
-84 29 -103 6 -4 12 -13 12 -20 0 -28 129 -53 145 -28 3 5 19 12 35 16 23 5
30 12 30 31 0 13 5 24 10 24 14 0 13 45 -2 73 -6 12 -14 29 -18 37 -4 8 -19
16 -33 18 -14 2 -31 10 -37 18 -8 9 -32 14 -69 14 -48 0 -58 -3 -68 -22z"/>
<path d="M6059 9340 c-24 -22 -47 -40 -51 -40 -13 0 -8 -74 6 -92 10 -14 28
-18 83 -18 79 0 133 8 133 21 0 4 11 20 25 35 30 33 32 60 4 67 -11 3 -23 15
-26 26 -3 12 -12 21 -19 21 -8 0 -14 5 -14 10 0 6 -22 10 -48 10 -43 0 -54 -5
-93 -40z"/>
<path d="M4315 9290 c-3 -5 -16 -10 -29 -10 -39 0 -66 -32 -66 -79 0 -22 5
-41 10 -41 6 0 10 -7 10 -16 0 -8 7 -22 15 -30 8 -9 15 -24 15 -33 0 -13 10
-20 38 -25 82 -13 172 -3 172 20 0 8 5 14 10 14 6 0 10 23 10 50 0 28 -4 50
-10 50 -5 0 -10 14 -10 30 0 19 -5 30 -14 30 -7 0 -19 7 -26 15 -7 8 -28 15
-47 15 -19 0 -43 5 -53 10 -13 7 -21 7 -25 0z m95 -55 c0 -8 3 -15 8 -15 10 0
32 -50 32 -72 0 -10 -5 -18 -12 -18 -6 0 -20 -7 -29 -16 -48 -44 -120 50 -93
120 8 22 94 23 94 1z"/>
<path d="M1031 9193 c-52 -2 -100 -8 -105 -13 -6 -4 -29 -11 -51 -15 -22 -4
-44 -11 -50 -15 -5 -4 -30 -11 -55 -15 -47 -8 -70 -17 -92 -37 -7 -7 -35 -24
-62 -38 -27 -13 -51 -32 -54 -42 -2 -10 -13 -18 -24 -18 -20 0 -142 -121 -164
-164 -20 -36 -26 -100 -14 -146 7 -25 17 -67 24 -95 13 -56 35 -95 53 -95 18
0 53 -32 53 -47 0 -7 11 -13 23 -13 13 0 32 -9 43 -21 10 -12 36 -28 57 -36
27 -11 35 -19 28 -26 -6 -6 -11 -17 -11 -25 0 -8 -11 -23 -25 -34 -14 -11 -25
-26 -25 -34 0 -8 -4 -14 -10 -14 -6 0 -10 -40 -10 -100 0 -60 4 -100 10 -100
6 0 10 -6 10 -13 0 -8 11 -24 25 -37 14 -13 25 -31 25 -40 0 -9 15 -22 35 -30
19 -8 35 -19 35 -24 0 -14 43 -33 95 -42 22 -3 45 -10 50 -14 6 -5 27 -11 48
-15 20 -4 37 -11 37 -16 0 -5 27 -9 60 -9 73 0 77 -12 25 -73 -19 -22 -35 -46
-35 -53 0 -7 -8 -27 -17 -46 -31 -62 -33 -68 -33 -93 0 -14 -4 -25 -10 -25 -5
0 -10 -22 -10 -50 0 -27 5 -50 10 -50 6 0 10 -13 10 -30 0 -16 5 -30 11 -30 6
0 10 -10 9 -22 -3 -29 10 -68 21 -68 5 0 9 -14 9 -30 0 -25 18 -48 105 -135
73 -72 113 -105 129 -105 12 0 33 -11 46 -25 17 -18 38 -26 81 -31 33 -4 59
-11 59 -15 0 -5 11 -9 24 -9 13 0 29 -7 36 -15 7 -8 27 -15 46 -15 18 0 36 -4
39 -10 8 -12 252 -14 259 -1 3 4 34 12 68 15 34 4 80 16 102 27 22 10 54 19
72 19 17 0 37 7 44 15 7 8 23 15 37 15 13 0 26 7 29 15 4 10 19 15 43 15 20 0
49 7 65 15 31 16 181 21 190 6 3 -4 20 -11 38 -15 37 -7 88 -52 88 -77 0 -10
5 -21 10 -24 6 -3 10 -46 10 -96 0 -53 -4 -89 -10 -89 -5 0 -10 -18 -10 -40 0
-38 -2 -40 -29 -40 -17 0 -32 4 -35 9 -3 5 -35 12 -71 16 -36 3 -67 11 -70 16
-8 12 -50 12 -73 0 -9 -5 -44 -13 -77 -18 -39 -5 -59 -12 -57 -21 1 -7 -8 -12
-23 -12 -17 0 -32 -10 -47 -35 -13 -19 -30 -35 -39 -35 -18 0 -41 -23 -38 -36
2 -10 -8 -40 -22 -66 -5 -10 -9 -31 -9 -47 0 -17 -4 -33 -10 -36 -5 -3 -10
-15 -10 -26 0 -10 5 -19 10 -19 6 0 10 -18 10 -40 0 -22 4 -48 9 -58 19 -35
28 -63 30 -94 0 -10 8 -18 16 -18 8 0 15 -7 15 -15 0 -8 7 -15 15 -15 9 0 18
-6 21 -14 3 -8 17 -17 32 -21 39 -10 52 -24 52 -57 0 -26 -2 -29 -15 -18 -9 8
-60 15 -130 18 -63 3 -115 9 -115 13 0 5 -7 9 -15 9 -8 0 -15 -4 -15 -9 0 -5
-47 -10 -104 -13 -57 -2 -110 -8 -117 -14 -8 -6 -26 -14 -41 -18 -16 -3 -28
-11 -28 -16 0 -6 -12 -10 -28 -10 -19 0 -30 -7 -37 -22 -6 -13 -19 -27 -30
-33 -33 -17 -105 -96 -105 -115 0 -10 -7 -20 -15 -24 -8 -3 -20 -17 -25 -31
-5 -14 -14 -25 -20 -25 -5 0 -10 -18 -10 -40 0 -22 -4 -40 -10 -40 -5 0 -10
-7 -10 -15 0 -8 -4 -15 -9 -15 -5 0 -12 -13 -16 -30 -4 -16 -11 -30 -16 -30
-5 0 -9 -10 -9 -22 0 -24 -49 -130 -62 -136 -5 -2 -8 -15 -8 -28 0 -13 -4 -24
-10 -24 -5 0 -10 -6 -10 -14 0 -8 -11 -28 -25 -44 -14 -17 -25 -41 -25 -56 0
-16 -13 -38 -35 -60 -19 -20 -35 -40 -35 -46 0 -10 -12 -35 -32 -70 -5 -8 -11
-23 -14 -32 -4 -10 -10 -18 -15 -18 -5 0 -9 -7 -9 -15 0 -8 -4 -15 -9 -15 -5
0 -12 -13 -16 -30 -5 -21 -13 -30 -26 -30 -15 0 -19 -7 -19 -34 0 -21 -6 -36
-15 -40 -8 -3 -15 -14 -15 -24 0 -10 -9 -27 -20 -37 -11 -10 -20 -26 -20 -37
0 -10 -7 -18 -15 -18 -8 0 -15 -5 -15 -11 0 -6 -13 -30 -30 -54 -16 -24 -30
-48 -30 -53 0 -6 -11 -13 -25 -16 -18 -5 -25 -13 -25 -31 0 -14 -6 -25 -12
-25 -22 -1 -53 -33 -73 -77 -11 -23 -27 -44 -37 -46 -9 -3 -18 -15 -20 -28 -2
-13 -16 -30 -33 -39 -16 -9 -31 -26 -33 -38 -2 -12 -9 -22 -15 -22 -16 -1 -57
-36 -57 -49 0 -6 -7 -11 -15 -11 -8 0 -19 -8 -24 -18 -14 -27 -78 -92 -90 -92
-6 0 -11 -6 -11 -14 0 -8 -16 -28 -35 -44 -19 -17 -37 -42 -41 -56 -3 -15 -13
-26 -23 -26 -17 0 -37 -36 -47 -88 -4 -18 -11 -35 -15 -38 -5 -3 -9 -20 -9
-39 0 -19 -5 -37 -10 -40 -13 -8 -13 -175 0 -175 6 0 10 -19 10 -42 0 -24 7
-52 15 -62 8 -11 15 -32 15 -46 0 -15 14 -43 34 -66 18 -21 36 -49 40 -61 4
-12 19 -28 34 -35 15 -7 28 -23 30 -34 2 -13 16 -26 37 -34 19 -8 35 -19 35
-25 0 -6 12 -18 27 -25 16 -8 42 -26 58 -41 19 -17 46 -29 73 -32 25 -3 54
-15 67 -27 13 -12 28 -19 34 -16 5 4 12 2 16 -4 3 -5 22 -10 41 -10 l34 0 0
-170 c0 -107 4 -170 10 -170 6 0 10 -30 10 -69 0 -39 4 -72 8 -75 5 -3 12 -71
16 -152 3 -83 11 -153 17 -161 9 -10 6 -13 -14 -13 -14 0 -29 -5 -33 -11 -3
-6 -15 -9 -25 -6 -10 3 -19 2 -21 -2 -5 -9 -76 -41 -96 -42 -9 0 -30 -9 -47
-19 -16 -11 -48 -28 -71 -39 -22 -11 -47 -27 -54 -36 -7 -8 -18 -15 -24 -15
-6 0 -22 -12 -35 -25 -13 -14 -32 -25 -42 -25 -10 0 -19 -7 -19 -15 0 -8 -6
-15 -14 -15 -16 0 -66 -55 -66 -73 0 -7 -13 -25 -30 -40 -16 -16 -30 -39 -30
-52 0 -12 -7 -28 -15 -35 -8 -7 -15 -20 -15 -29 0 -9 -9 -27 -20 -41 -27 -34
-26 -107 2 -168 12 -26 28 -51 35 -55 7 -4 13 -21 13 -37 0 -20 10 -36 32 -55
18 -15 35 -33 38 -40 8 -20 113 -112 137 -119 13 -4 23 -12 23 -17 0 -5 5 -9
11 -9 6 0 25 -11 42 -24 18 -13 47 -27 66 -31 19 -4 44 -18 56 -31 15 -17 33
-24 58 -24 22 0 37 -6 41 -15 3 -8 17 -15 31 -15 16 0 25 -6 25 -15 0 -11 11
-15 40 -15 22 0 40 -4 40 -10 0 -5 6 -10 13 -10 6 -1 30 -9 52 -20 22 -11 57
-19 78 -20 20 0 37 -4 37 -10 0 -5 9 -10 19 -10 11 0 23 -5 26 -10 4 -6 11 -8
16 -4 5 3 15 1 22 -4 14 -11 47 -19 126 -32 30 -5 57 -13 60 -18 3 -5 24 -12
46 -16 22 -4 45 -11 50 -16 6 -4 46 -10 89 -13 43 -3 82 -10 85 -15 3 -5 24
-12 46 -15 22 -3 51 -9 65 -13 14 -4 52 -9 85 -11 33 -3 65 -9 70 -13 6 -4 32
-11 59 -15 27 -4 61 -14 75 -21 14 -8 44 -14 67 -14 22 0 54 -6 70 -14 16 -7
43 -20 61 -27 23 -10 29 -17 22 -25 -20 -24 -28 -75 -16 -97 30 -52 81 -107
101 -107 9 0 22 -11 28 -25 9 -19 19 -25 43 -25 18 0 38 -7 45 -15 7 -8 21
-15 32 -15 10 0 31 -6 46 -14 15 -7 50 -16 79 -19 28 -3 60 -10 70 -15 32 -17
136 -35 223 -40 47 -2 89 -7 95 -12 5 -4 53 -11 105 -15 52 -4 101 -12 108
-18 7 -6 141 -12 335 -15 177 -2 330 -9 340 -14 11 -5 17 -5 17 2 0 13 77 13
85 0 5 -8 11 -7 21 1 9 8 14 8 14 1 0 -11 49 -10 80 1 8 3 188 8 400 11 211 4
387 10 390 15 3 4 77 11 165 15 88 4 164 11 170 17 5 5 62 9 126 9 65 0 120 4
123 9 3 5 56 12 118 16 62 4 118 11 124 16 6 5 75 12 155 15 79 4 149 11 155
15 6 5 43 12 82 15 40 4 72 10 72 14 0 5 42 11 93 15 50 3 108 14 127 22 19 9
41 17 50 18 8 1 29 7 45 15 17 7 52 16 80 21 27 5 51 13 53 19 2 5 12 10 22
10 9 0 23 6 29 14 6 7 28 16 49 20 22 3 48 16 62 31 13 14 33 25 45 25 12 0
32 12 46 26 13 14 38 32 56 41 18 8 33 19 33 24 0 5 15 24 33 42 27 26 35 43
40 86 8 70 1 83 -89 175 -24 24 -39 50 -40 65 -1 33 47 86 101 111 22 10 50
28 62 39 12 12 25 21 28 21 18 0 85 37 85 47 0 7 12 13 28 13 20 0 32 8 44 30
12 21 25 30 43 30 15 0 25 6 25 14 0 8 16 26 35 42 19 15 35 33 35 39 0 17 24
65 33 65 4 0 7 20 7 45 0 25 -4 45 -10 45 -5 0 -10 11 -10 25 0 14 -4 33 -9
43 -5 9 -12 25 -15 35 -3 10 -19 23 -36 28 -16 6 -30 16 -30 23 0 16 -42 56
-58 56 -7 0 -12 7 -12 15 0 8 -15 21 -33 30 -18 8 -37 25 -42 38 -6 13 -21 23
-37 25 -14 2 -32 10 -38 18 -7 8 -18 14 -25 14 -7 0 -18 6 -24 14 -7 8 -24 17
-39 21 -15 4 -34 13 -43 21 -17 15 -40 23 -96 31 -18 3 -38 11 -44 19 -6 8
-19 14 -29 14 -10 0 -31 7 -46 15 -16 8 -50 15 -76 15 -27 0 -48 5 -48 10 0 6
-9 10 -20 10 -19 0 -20 7 -20 174 0 106 4 177 10 181 6 3 10 30 10 60 0 30 5
57 11 60 7 5 10 41 8 99 l-3 91 159 7 c154 6 219 18 247 46 7 7 21 12 31 12
21 0 116 69 117 86 0 5 14 23 30 39 19 18 33 43 37 67 3 21 10 41 14 44 5 3 9
12 9 21 0 8 9 28 20 43 21 30 22 34 22 155 0 107 -14 185 -33 185 -5 0 -9 16
-9 35 0 19 -4 35 -10 35 -5 0 -10 11 -10 25 0 30 -25 95 -37 95 -7 0 -36 52
-30 55 3 2 66 30 105 46 17 8 32 18 32 22 0 12 42 46 58 47 6 0 12 9 12 20 0
12 12 31 26 43 27 24 37 72 34 171 -2 45 -83 200 -107 204 -10 2 -23 13 -28
25 -6 12 -20 27 -33 33 -13 6 -34 21 -48 33 -13 11 -29 21 -34 21 -20 0 -10
21 14 30 14 5 30 18 36 30 6 11 17 20 24 20 7 0 20 8 29 18 23 26 25 203 2
222 -8 7 -15 19 -15 26 0 8 -5 14 -11 14 -6 0 -22 14 -36 30 -13 16 -31 30
-39 30 -8 0 -17 7 -20 15 -4 8 -18 15 -34 15 -15 0 -35 9 -44 19 -10 11 -29
22 -43 26 -24 6 -24 7 20 36 55 36 97 77 97 95 0 11 21 14 93 14 88 0 93 1
124 30 18 17 39 30 47 30 9 0 16 7 16 15 0 8 5 15 10 15 6 0 10 6 10 14 0 7 7
19 15 26 23 19 21 231 -2 273 -10 18 -21 34 -25 35 -5 2 -8 11 -8 21 0 24 -20
41 -47 41 -18 0 -23 6 -23 25 0 19 -5 25 -21 25 -20 0 -74 22 -156 62 -24 12
-53 18 -67 16 -14 -3 -26 -2 -26 2 0 11 35 40 48 40 7 0 12 6 12 14 0 8 13 28
30 46 24 25 29 38 25 66 -2 18 0 36 5 39 5 3 7 36 4 73 -3 52 -8 71 -24 84
-11 9 -20 21 -20 27 0 6 -4 11 -10 11 -5 0 -10 6 -10 13 0 15 -71 87 -86 87
-6 0 -21 9 -34 20 -13 11 -34 20 -47 20 -12 0 -23 5 -23 10 0 6 -43 10 -107
10 -153 0 -220 14 -165 34 71 26 117 76 113 123 -1 11 3 24 8 28 14 8 14 122
0 131 -6 3 -8 17 -5 30 4 14 2 24 -4 24 -5 0 -10 6 -10 14 0 8 -13 24 -30 36
-16 12 -29 25 -27 31 1 5 -9 15 -22 22 -33 17 -38 37 -9 38 12 0 37 9 53 20
17 10 37 22 46 26 21 10 89 70 89 79 0 4 11 22 25 40 22 28 25 43 25 109 0 84
-20 144 -52 153 -10 2 -18 10 -18 17 0 17 -29 40 -68 53 -18 6 -46 20 -61 32
-21 14 -45 20 -84 20 -31 0 -59 5 -62 10 -3 6 -41 10 -83 10 -42 0 -72 4 -66
8 6 4 14 24 18 45 4 20 11 37 16 37 6 0 10 29 10 65 0 72 -23 119 -68 136 -12
5 -21 13 -20 19 2 6 -15 21 -37 32 -22 12 -47 25 -55 30 -8 4 -22 11 -30 14
-8 3 -28 11 -45 19 -16 7 -54 16 -83 20 -68 8 -89 24 -54 42 13 7 37 13 53 13
18 0 29 5 29 14 0 8 10 23 23 33 46 39 61 100 35 145 -21 34 -71 77 -100 83
-15 4 -32 13 -39 21 -8 9 -32 14 -78 14 -67 0 -121 16 -121 36 0 6 -10 16 -22
23 -43 23 -48 52 -48 282 0 135 4 220 10 224 6 4 10 57 10 125 0 68 -4 121
-10 125 -5 3 -10 22 -10 41 0 28 -9 45 -47 85 -34 36 -49 46 -59 38 -8 -7 -14
-7 -19 1 -13 20 -44 9 -74 -27 -28 -34 -31 -44 -31 -105 0 -39 -4 -68 -10 -68
-6 0 -10 -53 -10 -140 0 -87 4 -140 10 -140 6 0 10 -11 10 -25 0 -14 -4 -25
-10 -25 -6 0 -10 -61 -10 -164 0 -91 -4 -167 -9 -170 -5 -3 -7 -15 -4 -26 5
-19 0 -19 -129 -17 -136 2 -188 -8 -188 -38 0 -7 -7 -18 -15 -25 -30 -25 -9
-162 28 -178 4 -2 7 -10 7 -18 0 -8 6 -14 13 -14 7 0 24 -11 39 -25 15 -14 37
-25 49 -25 22 0 22 -1 -6 -30 -16 -16 -37 -30 -48 -30 -10 0 -32 -11 -49 -25
-16 -14 -42 -28 -56 -31 -15 -3 -36 -9 -47 -14 -11 -5 -41 -18 -67 -29 -27
-12 -68 -21 -97 -21 -27 0 -53 -4 -56 -10 -3 -5 -26 -10 -49 -10 -27 0 -48 -6
-56 -15 -7 -8 -21 -15 -31 -15 -10 0 -21 -4 -24 -10 -3 -5 -16 -10 -29 -10
-12 0 -35 -13 -51 -30 -16 -17 -37 -30 -47 -30 -12 0 -18 -7 -18 -24 0 -13
-11 -31 -25 -42 -22 -17 -25 -26 -25 -84 0 -55 3 -68 21 -80 12 -8 25 -25 30
-37 9 -25 77 -61 131 -70 47 -7 49 -20 6 -27 -73 -11 -95 -15 -133 -24 -22 -5
-50 -14 -62 -20 -12 -7 -32 -12 -45 -12 -13 0 -29 -5 -35 -11 -6 -6 -45 -11
-87 -11 -72 0 -76 1 -113 36 -21 20 -44 36 -51 36 -31 0 -2 25 37 33 62 12
124 50 132 80 11 40 -1 78 -28 88 -14 5 -27 18 -30 30 -3 12 -17 22 -34 26
-15 3 -30 11 -33 19 -3 8 -12 14 -21 14 -8 0 -15 4 -15 9 0 6 -20 13 -45 17
-26 3 -45 12 -45 19 0 7 -18 31 -40 53 -22 22 -40 49 -40 61 0 11 -4 21 -10
21 -5 0 -10 18 -10 40 0 22 -4 40 -10 40 -6 0 -10 75 -10 204 0 113 -4 207 -9
210 -4 3 -11 20 -15 38 -11 55 -30 89 -53 94 -13 4 -23 10 -23 16 0 5 -25 8
-57 6 -54 -3 -57 -5 -79 -43 -23 -39 -23 -45 -24 -372 0 -199 -4 -333 -9 -333
-5 0 -11 -12 -13 -27 -3 -25 -7 -28 -45 -31 -24 -2 -57 3 -75 11 -79 34 -109
40 -134 26 -13 -7 -24 -17 -24 -23 0 -6 -10 -16 -22 -21 -20 -9 -23 -18 -26
-83 l-3 -73 61 -60 c33 -32 65 -59 70 -59 20 0 9 -20 -14 -26 -13 -3 -34 -17
-47 -30 -12 -13 -30 -24 -40 -24 -10 0 -20 -4 -23 -9 -3 -4 -49 -11 -102 -13
-74 -4 -100 -9 -109 -22 -7 -9 -17 -16 -22 -16 -5 0 -19 -10 -31 -23 -30 -32
-31 -117 -1 -158 11 -16 27 -29 35 -29 8 0 14 -5 14 -11 0 -6 10 -19 23 -30
18 -15 39 -18 119 -19 101 0 126 -10 89 -36 -12 -8 -21 -22 -21 -30 0 -8 -7
-14 -15 -14 -8 0 -24 -9 -34 -19 -17 -17 -35 -19 -134 -19 -100 -1 -119 -4
-153 -23 -34 -20 -54 -23 -149 -23 -150 -1 -243 27 -197 60 12 8 22 22 22 30
0 8 7 14 16 14 9 0 21 14 27 30 7 17 19 30 28 30 11 0 20 11 24 32 4 18 11 39
15 48 4 8 12 26 17 40 6 14 16 37 23 52 8 17 13 69 14 131 1 108 -9 147 -47
175 -9 7 -15 17 -12 22 3 5 -3 15 -15 22 -11 7 -20 18 -20 24 0 7 -9 14 -20
17 -11 3 -20 11 -20 19 0 13 -46 38 -100 53 -14 4 -30 12 -36 16 -29 24 -323
21 -308 -2 3 -5 -7 -9 -23 -10 -141 -4 -146 -4 -151 11 -3 8 -18 27 -34 42
-15 15 -28 30 -28 33 0 14 24 51 42 63 10 7 18 20 18 28 0 8 7 17 15 20 8 4
15 12 15 20 0 8 6 14 14 14 8 0 64 49 124 109 90 90 111 117 116 148 9 46 28
93 38 93 5 0 8 43 8 95 0 57 -4 95 -10 95 -5 0 -10 7 -10 15 0 8 -4 15 -10 15
-5 0 -10 11 -10 25 0 14 -5 25 -11 25 -5 0 -8 4 -5 9 9 14 -25 73 -45 78 -10
3 -19 15 -21 26 -2 12 -17 31 -35 42 -18 11 -32 26 -33 33 0 7 -13 12 -29 12
-17 0 -33 5 -36 10 -21 33 -135 59 -293 67 -75 3 -102 8 -98 16 3 7 9 20 12
30 4 9 10 17 15 17 5 0 9 20 9 44 0 25 5 48 10 51 6 3 10 35 10 71 0 36 -4 64
-10 64 -5 0 -10 18 -10 40 0 41 -13 73 -40 100 -9 8 -21 27 -28 43 -6 15 -22
32 -34 38 -39 17 -68 35 -92 58 -12 11 -30 21 -39 21 -9 0 -17 4 -17 9 0 5
-22 12 -49 16 -28 4 -55 13 -62 21 -6 8 -23 14 -38 14 -15 0 -31 4 -36 9 -12
10 -221 18 -354 14z m384 -90 c45 -26 90 -43 115 -43 15 0 33 -7 40 -15 7 -8
19 -15 26 -15 8 0 14 -6 14 -14 0 -8 12 -16 26 -18 15 -2 32 -12 38 -23 6 -11
19 -26 28 -33 10 -7 25 -29 33 -50 9 -20 23 -50 31 -65 16 -32 19 -148 4 -163
-5 -5 -13 -32 -16 -59 -4 -29 -15 -57 -26 -66 -10 -9 -18 -21 -18 -28 0 -6 -6
-11 -14 -11 -7 0 -19 -6 -26 -14 -6 -8 -23 -16 -37 -18 -34 -4 -52 -32 -37
-55 16 -24 61 -20 91 9 24 22 31 23 202 23 188 0 203 -3 264 -52 16 -13 37
-23 48 -23 10 0 19 -7 19 -15 0 -8 5 -15 11 -15 5 0 7 -5 4 -11 -4 -6 2 -13
14 -16 12 -3 21 -12 21 -19 0 -8 4 -14 9 -14 5 0 17 -20 28 -45 10 -25 21 -45
26 -45 4 0 7 -24 7 -54 0 -30 5 -58 10 -61 13 -8 13 -52 0 -60 -6 -3 -10 -22
-10 -41 0 -19 -3 -34 -8 -34 -8 0 -28 -42 -37 -81 -4 -15 -17 -32 -30 -39 -12
-7 -33 -25 -44 -41 -12 -16 -27 -29 -34 -29 -7 0 -23 -13 -35 -30 -13 -16 -27
-30 -33 -30 -16 0 -88 -82 -89 -101 0 -9 -9 -24 -20 -34 -11 -10 -20 -26 -20
-36 0 -9 -6 -20 -12 -23 -10 -5 -10 -7 0 -12 6 -3 12 -14 12 -24 0 -10 5 -22
10 -25 6 -3 10 -14 10 -23 0 -9 14 -28 31 -42 35 -31 148 -68 158 -53 3 6 31
13 62 16 30 4 70 14 88 23 27 13 49 15 114 10 44 -4 89 -13 101 -21 11 -8 28
-15 38 -15 10 0 18 -4 18 -9 0 -5 12 -12 26 -15 42 -11 74 -37 74 -60 0 -12 8
-26 19 -33 10 -6 22 -29 26 -50 4 -21 11 -44 17 -50 9 -11 6 -69 -7 -133 -2
-14 -8 -41 -11 -60 -4 -19 -15 -47 -25 -62 -11 -14 -19 -33 -19 -41 0 -8 -7
-20 -15 -27 -8 -7 -15 -19 -15 -26 0 -8 -4 -14 -10 -14 -14 0 -13 53 2 68 8 8
8 15 1 24 -6 7 -14 33 -18 58 -10 64 -27 100 -48 100 -9 0 -23 11 -29 25 -6
14 -15 25 -21 25 -5 0 -23 6 -40 14 -45 20 -99 27 -192 26 -53 0 -83 -5 -90
-14 -5 -7 -33 -15 -62 -19 -28 -3 -60 -10 -70 -16 -29 -16 -84 -37 -148 -56
-33 -9 -71 -22 -84 -29 -32 -15 -341 -14 -373 1 -43 21 -114 43 -135 43 -11 0
-26 7 -33 15 -7 8 -23 15 -35 15 -12 0 -28 7 -35 15 -7 8 -18 15 -25 15 -8 0
-26 15 -42 34 -15 18 -40 36 -55 40 -21 5 -28 12 -28 31 0 16 -6 25 -15 25 -8
0 -15 7 -15 15 0 8 -4 15 -10 15 -5 0 -10 7 -10 15 0 8 -4 15 -10 15 -5 0 -10
11 -10 24 0 14 -4 27 -9 30 -5 3 -12 26 -15 51 -4 25 -11 45 -17 45 -12 0 -12
127 1 135 6 3 10 16 10 28 0 12 7 35 15 51 8 15 15 34 15 41 0 7 3 15 8 17 13
6 60 73 63 92 4 20 79 66 109 66 58 0 170 82 170 125 0 21 -4 26 -16 21 -9 -3
-24 -6 -35 -6 -10 0 -19 -7 -19 -15 0 -9 -9 -15 -24 -15 -14 0 -28 -4 -31 -10
-3 -5 -23 -17 -43 -27 -30 -15 -62 -18 -174 -17 -76 0 -143 5 -150 11 -7 6
-25 13 -40 17 -16 3 -28 11 -28 16 0 6 -16 10 -35 10 -21 0 -35 5 -35 13 0 6
-15 18 -32 26 -35 15 -87 68 -88 89 0 6 -4 12 -10 12 -6 0 -10 26 -10 59 0 33
5 63 10 66 6 3 10 14 10 25 0 10 7 20 15 24 8 3 20 17 25 31 5 14 15 25 22 25
20 0 85 62 71 67 -7 3 -13 12 -13 22 0 29 -22 41 -78 41 -57 0 -58 1 -161 88
-31 26 -40 41 -44 75 -3 23 -11 66 -18 95 -12 47 -11 58 5 100 10 26 19 55 19
65 2 23 82 99 131 122 21 10 53 31 70 47 17 15 40 28 52 28 12 0 35 7 50 15
16 8 38 15 50 15 11 0 24 4 30 9 16 16 63 19 294 17 151 -1 232 -5 245 -13z
m4229 -150 c18 -24 35 -67 38 -98 5 -58 -16 -465 -25 -483 -8 -18 -8 -28 1
-42 7 -11 12 -55 12 -103 l0 -83 43 -46 c63 -70 115 -94 212 -97 73 -2 82 -4
99 -27 10 -14 29 -29 40 -34 46 -17 18 -130 -31 -130 -8 0 -16 -7 -19 -15 -5
-12 -24 -15 -85 -15 -68 0 -81 3 -101 23 -13 12 -38 33 -55 47 -18 14 -33 33
-33 43 0 38 -58 68 -80 42 -10 -12 -10 -19 -2 -27 7 -7 12 -34 12 -60 0 -41
-3 -48 -20 -48 -11 0 -20 -4 -20 -10 0 -16 -96 -12 -110 5 -7 8 -19 15 -26 15
-8 0 -14 7 -14 15 0 8 -4 15 -10 15 -5 0 -10 10 -10 23 0 32 -45 52 -74 32
-35 -25 -136 -18 -136 10 0 7 -7 18 -15 25 -10 8 -15 31 -15 71 l0 59 155 0
155 0 0 34 c0 19 5 36 12 38 9 3 13 57 15 194 8 473 17 639 34 628 5 -3 9 2 9
10 0 24 20 19 44 -11z m-1797 -783 c7 -10 16 -37 19 -60 4 -22 11 -43 15 -46
5 -3 9 -99 9 -215 0 -115 4 -209 9 -209 4 0 11 -19 14 -42 8 -57 28 -98 49
-98 10 0 19 -11 23 -28 4 -21 16 -32 40 -42 19 -8 35 -20 35 -27 0 -7 9 -13
19 -13 11 0 22 -4 25 -9 3 -5 21 -12 39 -15 46 -9 117 -71 117 -102 0 -17 -8
-27 -24 -34 -13 -5 -27 -14 -31 -19 -8 -14 -72 -14 -80 -1 -3 6 -15 10 -26 10
-10 0 -19 4 -19 10 0 5 -11 12 -25 16 -13 3 -29 12 -36 20 -6 8 -18 14 -26 14
-11 0 -12 -10 -7 -49 3 -28 4 -65 0 -84 -6 -30 -13 -38 -57 -57 l-51 -21 -27
23 c-14 13 -28 24 -30 26 -3 1 -4 19 -4 39 1 25 8 43 23 55 12 10 20 25 18 34
-4 21 -60 43 -66 26 -2 -7 -20 -19 -40 -29 -20 -9 -45 -23 -56 -32 -26 -22
-167 -21 -190 2 -9 8 -16 20 -16 26 0 6 -7 11 -15 11 -8 0 -15 6 -15 14 0 8
-9 18 -20 21 -15 5 -20 15 -20 43 0 72 75 107 133 62 19 -15 40 -20 90 -20
l65 0 41 49 41 49 0 361 0 361 23 0 c12 0 28 -9 34 -20z m1603 -405 c23 -24
47 -37 72 -42 21 -3 41 -10 44 -14 7 -12 84 -12 84 0 0 5 11 12 25 15 14 4 25
11 25 16 0 6 9 10 20 10 11 0 20 7 20 15 0 8 4 15 9 15 5 0 11 -7 15 -15 3 -8
15 -15 26 -15 11 0 20 -7 20 -15 0 -8 6 -15 14 -15 7 0 19 -7 26 -15 7 -8 20
-15 29 -15 9 0 47 -16 84 -35 46 -24 82 -35 110 -35 23 0 54 -6 69 -14 110
-57 168 -101 168 -126 0 -10 5 -22 10 -25 12 -7 14 -92 3 -97 -5 -1 -21 -20
-36 -40 -15 -21 -39 -41 -52 -44 -14 -3 -25 -10 -25 -15 0 -12 -67 -12 -74 0
-3 4 -25 11 -48 15 -23 4 -49 13 -58 21 -8 7 -26 15 -40 17 -14 2 -29 13 -35
25 -5 13 -24 30 -41 38 -17 8 -34 24 -37 35 -3 11 -16 24 -29 29 -14 5 -32 21
-41 35 -10 14 -23 26 -30 26 -7 0 -25 12 -40 26 -23 21 -42 27 -91 31 -60 5
-63 4 -89 -27 -33 -39 -34 -51 -2 -88 14 -17 25 -33 25 -37 0 -14 30 -36 59
-41 17 -4 31 -12 31 -18 0 -13 39 -31 89 -41 19 -4 49 -15 66 -25 17 -10 56
-21 86 -24 57 -8 92 -20 123 -46 15 -12 61 -15 275 -18 211 -2 263 -5 294 -19
20 -9 37 -20 37 -25 0 -4 7 -8 15 -8 29 0 95 -49 95 -70 0 -6 7 -13 15 -16 11
-5 15 -23 15 -79 0 -71 -1 -75 -35 -106 -19 -19 -35 -39 -35 -46 0 -7 -11 -13
-24 -13 -13 0 -29 -7 -36 -15 -7 -8 -30 -18 -51 -21 -22 -4 -39 -10 -39 -15 0
-12 -167 -11 -175 1 -4 6 -13 5 -26 -3 -14 -9 -22 -9 -27 -1 -4 6 -22 15 -39
19 -18 3 -33 11 -33 15 0 5 -17 12 -37 16 -21 4 -44 11 -52 17 -7 6 -21 16
-31 22 -71 42 -133 89 -137 106 -3 10 -12 19 -19 19 -8 0 -23 5 -33 12 -15 9
-23 7 -42 -11 l-23 -21 22 -16 c28 -20 31 -93 5 -116 -47 -38 -139 -52 -163
-23 -7 8 -23 15 -37 15 -13 0 -34 5 -45 11 -16 8 -24 8 -35 -3 -22 -23 -6 -43
57 -72 106 -46 241 -29 269 36 7 15 19 28 27 28 8 0 14 7 14 15 0 8 4 15 9 15
5 0 14 -7 21 -15 7 -8 21 -15 32 -15 10 0 21 -7 25 -16 6 -17 88 -58 138 -69
16 -4 33 -11 36 -17 4 -5 36 -12 73 -15 36 -3 66 -10 66 -14 0 -5 5 -9 11 -9
5 0 35 -11 65 -25 30 -14 60 -25 67 -25 7 -1 31 -18 55 -39 40 -37 42 -42 42
-94 0 -31 5 -59 10 -62 7 -5 8 -11 1 -18 -5 -7 -11 -28 -13 -47 -2 -23 -10
-38 -24 -45 -12 -6 -30 -17 -39 -25 -12 -10 -42 -15 -94 -14 -68 0 -81 3 -118
29 -24 17 -46 40 -49 53 -9 32 -54 31 -54 -2 0 -29 48 -106 66 -106 7 0 22
-11 33 -26 12 -15 34 -27 55 -31 20 -3 41 -12 47 -19 6 -8 22 -14 35 -14 13 0
24 -4 24 -9 0 -15 60 -23 203 -28 75 -2 137 -8 137 -13 0 -4 12 -13 28 -19 45
-18 85 -45 96 -66 6 -11 17 -24 23 -30 39 -32 70 -153 43 -170 -5 -3 -10 -14
-10 -24 0 -34 -68 -107 -131 -139 -57 -30 -69 -32 -158 -31 -121 0 -163 8
-195 37 -15 12 -34 22 -44 22 -9 1 -33 14 -52 30 -19 17 -39 30 -44 30 -15 0
-46 32 -46 47 0 8 -14 32 -32 54 -24 30 -32 51 -36 94 -4 52 -6 55 -32 55 -20
0 -42 -15 -81 -55 l-54 -55 -67 0 c-39 0 -68 4 -68 10 0 6 -10 10 -23 10 -13
0 -32 7 -43 15 -10 8 -27 15 -36 15 -10 0 -18 5 -18 11 0 14 -41 48 -57 49 -7
0 -13 12 -13 26 0 15 -8 34 -18 43 -11 9 -24 26 -31 39 -19 37 -41 28 -41 -17
0 -22 5 -43 10 -46 6 -3 10 -15 10 -25 0 -29 22 -70 37 -70 7 0 18 -9 25 -20
7 -11 17 -20 22 -20 5 0 16 -8 25 -18 9 -11 29 -22 45 -26 15 -4 42 -20 60
-36 17 -17 36 -30 43 -30 6 0 14 -9 18 -19 3 -11 16 -23 28 -27 12 -3 33 -16
47 -29 14 -12 42 -26 63 -29 20 -4 37 -11 37 -16 0 -6 6 -10 14 -10 8 0 21 -6
28 -13 7 -8 25 -16 38 -20 14 -3 43 -10 65 -16 22 -6 68 -11 101 -11 42 0 65
-5 74 -15 7 -8 23 -15 36 -15 12 0 26 -4 29 -10 4 -6 68 -10 161 -10 96 0 154
4 154 10 0 6 9 10 19 10 11 0 23 -4 26 -10 3 -5 33 -10 65 -10 32 0 62 -5 65
-10 9 -14 90 -50 114 -50 12 0 21 -7 21 -15 0 -8 6 -15 13 -15 27 0 107 -104
107 -140 0 -11 5 -20 10 -20 6 0 10 -26 10 -59 0 -33 -4 -63 -10 -66 -5 -3
-10 -15 -10 -26 0 -10 -7 -19 -15 -19 -8 0 -22 -11 -31 -25 -27 -42 -68 -55
-169 -55 -91 0 -115 -8 -115 -38 0 -8 -16 -30 -36 -48 l-35 -34 -104 0 c-101
0 -142 9 -179 40 -61 51 -115 116 -130 155 -10 25 -22 47 -27 50 -5 4 -9 31
-9 61 l0 54 -35 0 c-19 0 -35 -4 -35 -10 0 -5 -9 -10 -20 -10 -11 0 -20 4 -20
9 0 4 -27 11 -59 15 -68 8 -107 25 -141 61 -13 14 -28 25 -34 25 -6 0 -19 11
-31 25 -18 23 -22 25 -47 13 -36 -17 -41 -31 -17 -56 10 -12 19 -24 19 -27 0
-3 9 -14 21 -26 11 -11 18 -27 15 -34 -3 -8 7 -23 24 -35 17 -12 30 -26 30
-32 0 -17 63 -98 77 -98 7 0 13 -6 13 -13 0 -13 34 -47 48 -47 4 -1 18 -14 32
-30 13 -17 29 -30 35 -30 5 0 22 -11 37 -25 15 -14 33 -25 41 -25 8 0 25 -8
38 -18 43 -32 117 -58 192 -68 26 -4 47 -11 47 -15 0 -5 18 -12 40 -15 22 -4
40 -10 40 -15 0 -5 15 -9 33 -9 64 0 105 -12 110 -31 3 -13 18 -21 46 -25 22
-4 46 -13 52 -20 6 -8 18 -14 25 -14 8 0 14 -7 14 -15 0 -8 6 -15 14 -15 31 0
56 -55 56 -122 0 -63 -1 -65 -39 -96 -39 -32 -41 -32 -152 -32 -112 0 -137 6
-221 51 -10 5 -27 9 -37 9 -20 0 -36 16 -36 35 0 5 -11 15 -23 21 -28 14 -46
31 -48 44 -1 6 -2 15 -3 20 0 6 -7 10 -15 10 -7 0 -28 13 -47 29 l-34 30 -21
-20 -21 -20 43 -46 c24 -25 44 -50 44 -55 0 -10 63 -67 94 -85 85 -48 182 -88
236 -98 34 -6 86 -26 122 -45 10 -6 29 -10 42 -10 13 0 37 -11 53 -24 15 -12
33 -25 39 -27 28 -10 94 -81 94 -101 0 -12 7 -29 15 -38 21 -24 29 -56 28
-117 -1 -51 -20 -113 -35 -113 -5 0 -8 -9 -8 -21 0 -20 -35 -58 -54 -59 -5 0
-17 -7 -26 -15 -9 -8 -42 -17 -73 -21 -54 -6 -57 -5 -57 15 0 11 -4 21 -10 21
-15 0 -60 42 -60 56 0 6 -11 19 -25 28 -14 9 -25 23 -25 31 0 8 -6 18 -13 22
-8 4 -17 16 -20 26 -4 11 -15 21 -25 23 -9 3 -42 34 -72 70 -30 35 -60 64 -67
64 -7 0 -13 7 -13 15 0 8 -4 15 -10 15 -5 0 -10 7 -10 15 0 8 -14 25 -31 37
-17 13 -37 38 -45 56 -7 19 -23 36 -34 39 -11 3 -20 12 -20 20 0 8 -16 34 -35
57 -19 24 -35 48 -35 53 0 6 -14 25 -30 43 -17 18 -33 43 -36 56 -3 13 -10 24
-15 24 -5 0 -9 5 -9 11 0 6 -11 24 -25 41 -14 16 -25 40 -25 54 0 16 -6 24
-18 24 -12 0 -22 13 -31 38 -22 62 -64 146 -78 155 -7 4 -13 17 -13 27 0 10
-4 22 -10 25 -5 3 -10 13 -10 21 0 9 -11 30 -25 48 -14 18 -25 45 -25 59 0 14
-8 32 -17 39 -29 21 -53 73 -53 112 0 20 -4 36 -10 36 -5 0 -10 11 -10 25 0
14 -3 25 -7 25 -13 0 -33 52 -40 98 -3 23 -10 42 -14 42 -5 0 -9 8 -9 18 0 11
-8 26 -19 36 -12 11 -16 25 -13 41 2 15 0 25 -7 25 -6 0 -11 14 -11 31 0 22
-5 32 -20 36 -11 3 -20 13 -20 23 0 10 -7 23 -15 30 -8 7 -15 25 -15 41 0 16
-4 29 -10 29 -5 0 -10 6 -10 14 0 8 -11 23 -25 34 -14 11 -25 29 -25 39 0 11
-11 25 -24 32 -13 7 -30 24 -37 38 -7 14 -25 31 -39 38 -14 7 -34 22 -44 34
-11 12 -29 21 -41 21 -12 0 -25 3 -29 7 -4 4 -28 15 -54 25 -51 20 -246 26
-257 9 -3 -5 -34 -13 -70 -16 -36 -4 -65 -11 -65 -15 0 -4 -37 -10 -82 -13
-45 -4 -86 -11 -92 -17 -5 -5 -21 -10 -34 -10 -13 0 -32 -4 -42 -10 -10 -5
-58 -14 -107 -19 -119 -13 -204 -30 -221 -43 -7 -6 -60 -13 -118 -16 -57 -3
-104 -9 -104 -13 0 -5 -35 -9 -78 -9 -47 0 -83 -5 -90 -12 -9 -9 -15 -9 -24 0
-9 9 -7 12 9 12 11 0 26 7 33 15 7 8 17 15 23 15 6 0 21 10 33 21 13 12 34 27
46 33 13 6 27 21 32 33 8 16 22 22 68 27 32 4 75 14 95 23 21 9 41 16 46 15 4
-1 7 2 7 8 0 5 11 10 25 10 14 0 25 4 25 8 0 4 15 16 32 27 18 10 57 43 86 72
58 57 62 60 62 39 0 -14 81 -86 98 -86 5 0 15 -7 22 -15 10 -11 36 -15 111
-15 55 0 99 4 99 9 0 5 17 11 38 15 36 6 102 55 102 76 0 5 5 10 10 10 6 0 10
6 10 13 0 8 11 24 25 37 34 32 36 105 4 113 -29 8 -49 -2 -49 -23 0 -11 -4
-22 -10 -25 -5 -3 -10 -13 -10 -21 0 -23 -72 -104 -93 -104 -10 0 -25 -7 -33
-15 -9 -8 -32 -15 -53 -15 -20 0 -42 -5 -49 -12 -9 -9 -15 -9 -24 0 -7 7 -21
12 -33 12 -21 1 -95 63 -95 80 0 6 -4 10 -10 10 -5 0 -10 12 -10 26 0 28 -16
65 -34 76 -18 12 -36 9 -36 -6 0 -8 -11 -23 -25 -34 -14 -11 -25 -23 -25 -27
0 -13 -95 -124 -107 -124 -6 -1 -13 -4 -15 -8 -1 -5 -28 -16 -58 -27 -30 -10
-58 -24 -62 -30 -5 -7 -56 -11 -155 -11 -136 0 -152 2 -198 24 -76 37 -115 78
-115 120 0 53 10 81 29 81 9 0 21 10 26 22 10 22 35 40 117 81 37 19 69 26
160 32 62 4 118 10 123 15 6 4 75 10 155 13 86 4 146 10 148 17 2 5 33 10 72
10 38 0 72 5 75 10 9 14 90 50 114 50 11 0 22 4 26 9 3 5 19 12 35 16 17 4 30
13 30 21 0 8 9 14 21 14 21 0 49 21 49 38 0 5 11 15 25 22 14 7 25 19 25 27 0
7 5 13 10 13 6 0 10 7 10 15 0 8 3 15 8 15 14 0 36 65 37 107 0 33 -6 48 -30
73 -49 52 -69 55 -126 18 -27 -18 -49 -38 -49 -46 0 -7 -11 -17 -24 -21 -15
-6 -25 -20 -29 -39 -4 -18 -14 -33 -27 -37 -11 -3 -20 -12 -20 -18 0 -21 -133
-138 -185 -164 -27 -14 -66 -33 -85 -44 -39 -20 -85 -25 -95 -9 -3 6 -16 10
-29 10 -35 0 -46 20 -46 82 0 32 -4 58 -9 58 -5 0 -22 -7 -37 -15 -16 -8 -39
-15 -51 -15 -12 0 -23 -5 -25 -11 -2 -6 -34 -13 -71 -16 -54 -5 -76 -2 -107
13 l-40 19 0 82 c0 79 1 83 29 104 16 12 31 29 34 39 3 11 18 19 43 22 22 3
64 17 94 31 30 14 71 28 90 30 49 7 121 26 144 39 11 6 49 13 85 15 62 4 88
13 151 49 14 7 40 14 58 14 21 0 32 5 32 14 0 8 17 21 38 29 20 9 54 32 74 51
20 20 44 36 52 36 9 0 16 6 16 13 0 8 11 24 25 37 14 13 25 32 25 42 0 10 5
18 11 18 19 0 0 18 -26 24 -33 8 -74 -21 -75 -51 0 -13 -6 -23 -13 -23 -18 0
-57 -34 -57 -49 0 -6 -16 -11 -35 -11 -19 0 -35 -4 -35 -9 0 -5 -10 -9 -22
-10 -13 0 -55 -3 -95 -7 -65 -6 -77 -4 -129 22 -31 15 -59 36 -62 46 -2 10 -8
18 -13 18 -16 0 -9 55 11 80 11 14 20 30 20 35 1 29 110 92 147 86 6 -1 14 3
18 9 3 5 16 10 29 10 12 0 27 5 33 11 6 6 38 13 72 16 33 3 61 10 61 14 0 5
15 9 33 9 17 1 50 9 72 20 22 11 47 19 56 20 8 0 30 11 49 25 19 14 42 25 52
25 10 0 18 5 18 10 0 6 7 10 15 10 8 0 30 14 48 30 19 17 40 30 46 30 6 0 18
11 27 25 9 14 19 25 23 25 4 0 22 -16 41 -35z m-1720 -640 c0 -8 5 -15 10 -15
6 0 10 -7 10 -14 0 -14 59 -66 74 -66 4 0 14 -7 22 -15 18 -18 81 -19 109 -2
48 28 88 63 96 85 12 31 44 28 71 -8 12 -16 27 -30 33 -30 6 0 24 -13 39 -29
26 -27 27 -29 6 -34 -11 -3 -23 -5 -26 -5 -3 -1 -16 -12 -29 -26 -13 -14 -27
-26 -30 -26 -10 0 -29 -22 -44 -52 -18 -34 -20 -200 -2 -206 6 -2 11 -12 11
-22 0 -10 14 -24 35 -34 19 -9 37 -21 40 -25 3 -5 19 -12 35 -16 17 -4 30 -11
30 -16 0 -5 16 -9 35 -9 19 0 35 4 35 9 0 5 25 13 56 16 43 6 58 4 67 -8 7 -8
19 -17 27 -20 8 -3 3 -6 -12 -6 -16 -1 -28 -5 -28 -10 0 -5 -54 -12 -120 -16
-66 -4 -120 -11 -120 -16 0 -5 -16 -9 -36 -9 -33 0 -110 -35 -145 -66 -8 -8
-20 -14 -25 -14 -13 0 -59 -51 -81 -91 -21 -36 -29 -139 -12 -139 5 0 9 -9 9
-20 0 -13 12 -28 30 -38 16 -9 30 -22 30 -27 0 -11 35 -45 46 -45 3 0 30 -11
60 -25 30 -14 65 -25 78 -25 32 0 35 -7 23 -41 -9 -22 -18 -29 -39 -29 -15 0
-28 -4 -28 -10 0 -5 -11 -12 -25 -16 -13 -3 -29 -12 -36 -20 -6 -8 -19 -14
-28 -14 -9 0 -38 -11 -65 -25 -27 -14 -66 -25 -86 -25 -20 0 -41 -5 -46 -10
-7 -7 -87 -9 -220 -8 l-209 3 -3 138 -3 137 26 0 c14 0 25 5 25 10 0 6 9 10
20 10 36 0 70 47 70 96 0 24 5 44 10 44 6 0 10 9 10 19 0 11 -4 23 -10 26 -5
3 -10 37 -10 75 0 51 -4 69 -15 74 -8 3 -15 11 -15 17 0 6 -8 19 -18 28 -11 9
-22 28 -26 44 -4 17 -13 27 -24 27 -21 0 -42 18 -42 36 0 7 13 15 29 19 21 4
33 15 40 36 14 41 49 55 92 37 78 -34 102 -38 146 -25 23 7 45 16 49 20 4 4
14 7 23 7 19 1 54 28 64 50 14 29 32 55 50 68 11 9 17 24 15 40 -2 22 -9 28
-34 30 -26 3 -33 -2 -43 -26 -16 -37 -67 -87 -106 -103 -16 -6 -51 -13 -76
-15 -62 -5 -74 10 -65 81 5 47 3 58 -14 75 -19 19 -22 19 -36 5 -9 -8 -20 -15
-25 -15 -12 0 -29 -18 -45 -45 -10 -17 -24 -20 -101 -23 l-89 -3 -32 40 c-51
63 -39 131 22 131 14 0 28 5 31 10 3 6 37 10 74 10 83 0 133 20 195 78 41 39
49 42 100 42 30 0 58 5 61 10 10 16 55 12 55 -5z m1420 -230 c6 -8 9 -24 5
-37 -12 -41 -30 -78 -37 -78 -5 0 -8 -4 -8 -9 0 -13 -92 -100 -106 -101 -6 0
-19 -9 -29 -20 -10 -11 -31 -20 -47 -20 -15 0 -28 -4 -28 -10 0 -5 -11 -10
-24 -10 -13 0 -26 -6 -29 -12 -2 -7 -8 -10 -12 -5 -11 9 24 36 48 37 10 0 17
8 17 18 0 23 19 42 41 42 11 0 20 11 24 30 4 19 13 30 23 30 15 0 51 60 52 86
1 9 79 72 91 73 4 1 12 -6 19 -14z m-2608 -322 c7 -6 44 -13 82 -16 38 -4 74
-11 80 -17 5 -5 31 -10 57 -10 26 0 51 -4 54 -10 3 -5 33 -10 65 -10 32 0 62
5 65 10 3 6 21 10 38 10 18 0 41 7 51 15 15 11 48 15 128 15 101 0 110 -2 147
-27 22 -16 47 -43 56 -60 9 -18 19 -33 23 -33 13 0 32 -54 32 -92 0 -21 6 -47
12 -58 10 -15 10 -22 0 -32 -6 -6 -12 -24 -12 -38 0 -21 -7 -29 -35 -40 -19
-8 -35 -21 -35 -29 0 -11 -3 -12 -12 -3 -9 9 -15 9 -25 0 -10 -8 -17 -8 -25 0
-7 7 -20 12 -30 12 -10 0 -21 7 -24 15 -4 8 -12 15 -20 15 -7 0 -29 14 -47 30
-31 27 -42 30 -98 30 -75 0 -110 -18 -160 -79 -31 -39 -35 -41 -89 -41 -49 0
-62 4 -91 30 -19 16 -42 30 -51 30 -9 0 -23 7 -32 15 -8 8 -21 15 -29 15 -8 0
-20 7 -27 15 -8 9 -17 12 -24 6 -6 -4 -18 -8 -26 -8 -23 0 -91 -34 -97 -50 -3
-7 -11 -13 -19 -13 -8 0 -14 -6 -14 -14 0 -8 -13 -17 -29 -21 -15 -3 -37 -14
-47 -24 -36 -33 -78 -33 -146 -1 -68 31 -108 74 -108 115 0 14 -4 25 -10 25
-6 0 -10 35 -10 85 0 50 4 85 10 85 6 0 10 9 10 20 0 24 20 61 38 73 6 4 12
15 12 24 0 9 6 13 15 10 8 -4 17 -2 20 3 4 6 19 10 34 10 15 0 31 4 37 9 5 5
23 12 39 14 50 9 254 0 267 -10z m601 -417 c18 -22 38 -36 61 -40 23 -4 43
-17 56 -35 22 -32 26 -51 10 -51 -14 0 -12 -28 3 -33 9 -3 9 -8 -2 -21 -11
-13 -11 -20 -3 -28 7 -7 12 -42 12 -80 l0 -69 -97 3 -98 3 -42 -39 c-24 -22
-43 -47 -43 -56 0 -10 -9 -20 -21 -23 -11 -3 -23 -15 -26 -26 -3 -12 -9 -21
-14 -21 -5 0 -9 -7 -9 -15 0 -8 -4 -15 -9 -15 -6 0 -22 -11 -37 -25 -25 -23
-58 -25 -35 -2 7 7 11 90 11 244 l0 233 24 0 c15 0 33 12 50 35 15 19 32 34
37 32 6 -1 16 7 22 18 20 33 40 44 83 45 36 0 45 -5 67 -34z m-531 -6 c24 -10
53 -28 63 -40 10 -11 24 -20 32 -20 7 0 13 -7 13 -15 0 -11 11 -15 36 -15 l35
0 -5 -217 c-3 -120 -8 -245 -10 -277 l-4 -59 -48 -19 c-37 -13 -76 -18 -156
-18 -59 0 -109 4 -113 9 -3 6 -27 13 -53 16 -26 4 -61 13 -79 21 -17 8 -36 14
-42 14 -8 0 -11 71 -11 234 0 234 0 234 23 241 12 4 29 7 37 6 9 -1 27 10 40
24 13 14 30 25 37 25 17 0 43 24 43 39 0 6 6 11 13 11 8 0 22 10 33 21 17 19
47 37 65 38 4 1 26 -8 51 -19z m2736 -192 c-3 -7 -15 -15 -27 -16 -13 -2 -35
-11 -50 -20 -15 -10 -41 -26 -59 -37 -17 -11 -32 -28 -32 -37 0 -10 -11 -25
-25 -34 -14 -9 -25 -21 -25 -28 0 -6 -9 -22 -20 -36 -11 -14 -20 -33 -20 -42
0 -10 -6 -18 -12 -18 -16 0 -38 -46 -38 -77 0 -12 -9 -37 -19 -54 -11 -17 -17
-38 -14 -45 3 -8 0 -14 -6 -14 -6 0 -11 -7 -11 -15 0 -8 -4 -15 -10 -15 -5 0
-10 -11 -10 -24 0 -22 -41 -110 -61 -130 -5 -6 -9 -27 -9 -48 0 -21 -4 -38 -9
-38 -5 0 -11 -15 -15 -32 -8 -42 -29 -88 -38 -88 -5 0 -8 -18 -8 -40 0 -25 -5
-40 -12 -40 -9 0 -8 -4 2 -10 13 -9 13 -12 -2 -24 -10 -7 -18 -23 -18 -35 0
-11 -3 -21 -7 -21 -11 0 -33 -50 -33 -74 0 -12 -7 -30 -15 -40 -8 -11 -15 -27
-15 -35 0 -9 -9 -27 -20 -41 -11 -14 -20 -36 -20 -50 0 -25 -49 -132 -62 -138
-5 -2 -8 -17 -8 -32 0 -16 -5 -32 -10 -35 -6 -4 -8 -10 -5 -15 5 -8 -11 -46
-25 -60 -15 -15 -30 -53 -30 -75 0 -14 -4 -25 -9 -25 -5 0 -13 -10 -17 -22 -3
-13 -15 -35 -25 -50 -11 -14 -19 -38 -19 -52 0 -15 -7 -29 -15 -32 -8 -4 -15
-11 -15 -16 0 -5 -8 -22 -19 -36 -10 -15 -22 -42 -26 -59 -3 -18 -14 -39 -23
-45 -10 -7 -26 -31 -37 -53 -11 -21 -32 -50 -47 -63 -16 -13 -28 -27 -28 -31
0 -3 -31 -40 -70 -81 -38 -41 -70 -78 -70 -82 0 -5 -5 -8 -11 -8 -7 0 -25 -13
-41 -30 -15 -16 -33 -30 -40 -30 -21 0 -48 -33 -48 -57 0 -23 2 -24 42 -18 23
4 48 14 56 21 7 8 19 14 25 14 7 0 25 14 41 30 16 17 33 30 38 30 4 0 8 7 8
15 0 8 16 27 35 42 19 15 35 33 35 38 0 6 9 17 20 25 11 8 20 20 20 27 0 7 7
13 15 13 8 0 15 8 15 18 0 11 10 27 21 38 19 16 45 52 84 113 6 8 16 21 23 29
6 7 12 23 12 36 0 12 13 37 30 56 16 19 29 42 30 51 0 9 3 19 7 23 4 4 8 13 9
19 2 25 17 57 25 57 5 0 9 6 9 14 0 8 5 16 11 18 6 2 14 27 17 56 2 29 8 52
13 52 5 0 9 7 9 15 0 8 5 15 10 15 6 0 10 7 10 16 0 8 7 22 15 30 8 9 15 27
15 42 0 15 9 38 20 52 11 14 20 31 20 38 0 6 4 12 9 12 5 0 11 19 15 43 8 48
27 97 38 97 5 0 8 11 8 25 0 14 7 28 15 31 10 4 15 20 15 45 0 21 5 39 10 39
6 0 10 11 10 25 0 14 5 25 10 25 6 0 10 8 10 19 0 10 7 24 15 31 9 7 15 29 15
51 0 22 5 39 10 39 6 0 10 14 10 30 0 17 4 30 9 30 8 0 23 32 25 57 1 6 5 15
9 19 4 4 7 22 7 39 0 19 8 39 20 50 11 10 20 25 20 34 0 9 7 25 15 35 8 11 15
32 15 48 0 15 5 28 10 28 6 0 10 11 10 25 0 14 5 25 10 25 6 0 10 11 10 24 0
13 7 26 15 30 8 3 15 16 15 29 0 27 47 117 61 117 5 0 9 11 9 25 0 14 5 25 10
25 6 0 10 7 10 15 0 8 6 15 13 15 6 0 31 22 55 50 23 27 59 57 80 66 50 23 50
24 27 40 -18 14 -12 14 60 8 44 -3 85 -11 90 -18 6 -6 24 -18 40 -26 17 -8 41
-25 55 -37 14 -13 27 -23 31 -23 6 0 32 -49 33 -63 1 -5 9 -14 19 -21 9 -7 17
-18 17 -25 0 -6 5 -11 10 -11 6 0 10 -11 10 -24 0 -14 11 -38 25 -54 14 -17
25 -42 25 -56 0 -14 4 -26 9 -26 5 0 11 -10 14 -22 12 -49 35 -102 51 -113 9
-7 16 -26 16 -45 0 -30 26 -91 43 -98 4 -2 7 -10 7 -18 0 -8 5 -14 10 -14 6 0
10 -21 10 -48 0 -26 6 -56 14 -67 29 -43 56 -96 56 -114 0 -10 7 -24 15 -31 8
-7 15 -21 15 -31 0 -11 7 -19 15 -19 8 0 19 -17 26 -42 6 -24 23 -59 37 -78
15 -19 28 -39 28 -45 4 -26 17 -55 25 -55 5 0 9 -6 9 -13 0 -8 8 -22 19 -31
10 -9 21 -34 25 -54 3 -22 15 -44 29 -55 13 -10 30 -35 37 -57 9 -27 19 -40
31 -40 13 0 20 -10 25 -35 3 -20 18 -45 33 -58 15 -12 36 -38 47 -56 10 -18
34 -49 52 -68 17 -19 32 -40 32 -46 0 -7 10 -17 23 -22 12 -6 23 -20 25 -32 2
-12 12 -25 23 -28 10 -4 19 -11 19 -17 0 -5 11 -19 25 -30 14 -11 25 -24 25
-30 0 -6 16 -24 35 -41 19 -16 35 -36 35 -43 0 -8 11 -16 25 -20 18 -4 25 -13
25 -30 0 -16 6 -24 17 -24 25 0 53 -30 53 -57 0 -16 6 -23 20 -23 11 0 20 -6
20 -14 0 -7 17 -35 39 -62 64 -81 131 -206 131 -245 0 -15 5 -31 10 -34 6 -3
10 -21 10 -39 0 -17 6 -38 13 -45 15 -15 12 -180 -3 -195 -5 -5 -10 -23 -10
-38 0 -15 -4 -28 -10 -28 -5 0 -10 -13 -10 -29 0 -16 -7 -34 -15 -41 -8 -7
-15 -19 -15 -26 0 -8 -8 -14 -18 -14 -9 0 -23 -12 -30 -27 -14 -30 -93 -93
-116 -93 -13 0 -50 -18 -101 -50 -23 -14 -50 -19 -117 -19 -53 -1 -88 3 -88 9
0 6 -9 10 -20 10 -17 0 -20 7 -20 49 0 28 5 53 10 56 6 3 10 33 10 65 0 32 5
62 10 65 6 3 10 17 10 31 0 13 4 24 10 24 5 0 7 -13 4 -30 -6 -26 -4 -30 15
-30 12 0 21 -6 21 -15 0 -7 6 -18 13 -22 8 -4 16 -16 20 -25 10 -29 77 -53
149 -53 60 0 70 3 95 28 26 26 27 27 6 27 -12 0 -25 5 -28 10 -3 6 -15 10 -26
10 -10 0 -19 -4 -19 -10 0 -5 -20 -10 -44 -10 -40 0 -49 5 -90 48 -33 34 -46
55 -46 78 0 16 -7 39 -15 50 -8 10 -15 31 -15 47 0 15 -4 27 -9 27 -13 0 -20
76 -20 218 0 78 -4 122 -11 122 -5 0 -10 11 -10 25 0 14 -4 25 -10 25 -5 0
-10 8 -10 19 0 10 -6 24 -14 31 -8 6 -16 21 -18 33 -2 13 -11 23 -23 25 -11 2
-34 10 -52 18 -36 16 -73 18 -73 4 0 -5 -10 -12 -23 -15 -12 -3 -29 -20 -36
-36 -13 -29 -15 -30 -75 -27 -60 3 -61 4 -64 33 -2 17 -8 34 -13 39 -5 6 -9
23 -9 38 0 15 -4 28 -10 28 -6 0 -10 27 -10 60 0 33 4 60 10 60 6 0 10 28 10
65 0 37 4 65 10 65 6 0 10 45 10 115 0 70 -4 115 -10 115 -5 0 -10 10 -10 21
0 12 -8 29 -18 38 -9 9 -23 28 -30 44 -6 15 -18 27 -26 27 -7 0 -20 7 -27 17
-8 9 -30 23 -50 32 -50 23 -109 76 -109 100 0 10 -6 21 -14 24 -26 10 -56 91
-56 150 0 31 -4 59 -10 62 -5 3 -10 25 -10 48 0 23 -7 51 -15 61 -8 11 -15 30
-15 43 0 13 -4 23 -10 23 -5 0 -10 8 -10 18 -1 18 -82 112 -98 112 -5 0 -17 9
-27 20 -15 17 -31 20 -95 20 -55 0 -81 -4 -89 -14 -7 -8 -25 -18 -41 -21 -28
-6 -110 -90 -110 -113 0 -5 -7 -12 -15 -16 -9 -3 -15 -18 -15 -36 0 -16 -4
-30 -10 -30 -5 0 -10 -11 -10 -25 0 -14 -7 -28 -15 -31 -8 -4 -15 -17 -15 -30
0 -13 -4 -24 -10 -24 -5 0 -10 -18 -10 -40 0 -22 -4 -40 -10 -40 -5 0 -10 -11
-10 -24 0 -13 -7 -26 -15 -30 -9 -3 -15 -18 -15 -35 0 -16 -4 -33 -10 -36 -5
-3 -10 -19 -10 -36 0 -16 -4 -29 -10 -29 -5 0 -10 -13 -10 -29 0 -17 -5 -33
-10 -36 -6 -4 -8 -10 -5 -15 3 -5 -3 -27 -15 -49 -11 -22 -20 -56 -20 -75 0
-19 -4 -37 -9 -40 -5 -3 -12 -22 -15 -41 -4 -19 -10 -35 -14 -35 -11 0 -32
-51 -32 -77 0 -13 -7 -26 -15 -29 -8 -4 -15 -17 -15 -30 0 -13 -3 -24 -7 -24
-9 0 -33 -49 -33 -67 0 -7 -4 -13 -10 -13 -5 0 -10 -9 -10 -21 0 -22 -29 -81
-42 -87 -5 -2 -8 -16 -8 -30 0 -15 -7 -36 -15 -46 -8 -11 -15 -28 -15 -38 0
-10 -9 -26 -20 -35 -11 -10 -20 -22 -20 -27 0 -24 -35 -85 -52 -89 -12 -4 -18
-14 -18 -36 0 -21 -5 -31 -15 -31 -8 0 -15 -7 -15 -16 0 -9 -8 -24 -18 -33 -9
-9 -23 -28 -31 -43 -8 -16 -19 -28 -25 -28 -6 0 -17 -13 -24 -30 -8 -16 -18
-30 -24 -30 -5 0 -26 -16 -46 -35 -20 -19 -47 -35 -59 -35 -14 0 -23 -6 -23
-15 0 -8 -5 -15 -12 -15 -6 0 -19 -6 -27 -14 -15 -13 -70 -29 -146 -43 -16 -3
-36 -10 -42 -15 -7 -6 -60 -13 -118 -16 -58 -2 -105 -9 -105 -13 0 -5 -9 -9
-20 -9 -11 0 -20 -3 -20 -8 0 -4 -15 -16 -34 -26 -19 -10 -49 -33 -66 -51
l-32 -33 1 -140 c2 -173 -4 -189 -96 -232 -50 -24 -115 -26 -133 -5 -7 8 -20
15 -29 15 -22 0 -41 19 -41 41 0 10 -6 19 -12 22 -10 3 -13 40 -13 141 0 131
-1 139 -22 156 -13 10 -23 22 -23 27 0 5 -15 17 -34 26 -39 18 -98 13 -117 -9
-6 -8 -17 -14 -23 -14 -6 0 -29 -18 -52 -39 -34 -33 -50 -40 -100 -47 -32 -4
-63 -7 -68 -6 -4 2 -14 -2 -22 -9 -7 -6 -19 -7 -26 -2 -7 4 -26 9 -43 10 -64
5 -115 15 -115 24 0 5 -7 9 -15 9 -8 0 -15 7 -15 15 0 8 -4 15 -9 15 -14 0
-52 18 -86 40 -28 19 -51 30 -85 45 -22 9 -56 29 -75 45 -12 10 -51 14 -143
14 -131 1 -180 -10 -212 -49 -10 -12 -27 -14 -91 -9 l-78 7 -43 -42 c-39 -37
-48 -41 -95 -41 -28 0 -55 5 -58 10 -3 6 -14 10 -24 10 -10 0 -24 6 -30 13 -6
8 -30 20 -53 27 -24 8 -50 20 -59 27 -8 7 -20 13 -26 13 -6 0 -13 7 -17 15 -3
8 -13 15 -23 15 -10 0 -38 14 -62 30 -24 17 -57 30 -72 30 -15 0 -31 5 -34 10
-8 13 -112 13 -120 0 -3 -5 -17 -10 -31 -10 -13 0 -24 -5 -24 -12 0 -20 -32
-48 -55 -48 -13 0 -28 -7 -36 -16 -10 -12 -26 -15 -68 -11 -67 5 -116 23 -164
60 -20 15 -47 27 -61 27 -14 0 -28 5 -31 10 -8 13 -112 13 -120 0 -3 -5 -19
-10 -35 -10 -50 0 -80 -50 -34 -59 33 -6 44 -22 44 -67 0 -31 -4 -44 -14 -44
-33 0 -76 14 -94 30 -10 10 -31 18 -46 18 -18 -1 -40 12 -65 36 -20 20 -43 36
-50 36 -15 0 -41 24 -41 39 0 5 -11 18 -25 29 -14 11 -25 24 -25 30 0 5 -9 12
-21 15 -12 3 -18 10 -14 16 3 6 -8 29 -26 51 -23 29 -33 53 -37 90 -2 27 -9
50 -14 50 -11 0 -4 203 10 280 10 56 55 145 96 190 13 14 42 44 65 67 22 23
41 46 41 50 0 5 13 14 30 21 16 8 30 19 30 25 1 15 57 77 70 77 5 0 10 7 10
14 0 8 16 27 35 42 19 14 35 33 35 40 0 8 5 14 10 14 6 0 10 6 10 13 0 8 11
19 25 25 15 7 25 20 25 32 0 12 9 24 23 29 13 5 31 25 40 44 9 19 30 45 47 58
16 13 30 34 30 45 0 12 7 24 15 27 15 6 55 81 55 103 0 7 10 21 23 31 25 21
47 56 47 75 0 7 16 31 35 52 19 22 35 46 35 54 0 8 16 36 35 62 19 26 35 57
35 69 0 11 5 21 10 21 6 0 10 7 10 15 0 7 6 18 13 22 16 10 37 49 37 68 0 8 5
15 10 15 6 0 10 11 10 25 0 16 6 25 15 25 8 0 15 7 15 15 0 8 5 15 10 15 6 0
10 12 10 27 0 14 11 41 25 59 14 18 25 38 25 43 0 6 4 19 9 29 5 9 13 28 18
42 6 14 22 50 37 80 14 30 26 61 26 68 0 17 22 55 38 65 6 4 12 14 12 21 0 7
27 42 60 77 33 35 60 66 60 69 0 8 52 30 71 30 9 0 22 6 28 14 6 8 28 17 49
21 62 12 255 17 276 7 36 -16 123 -42 139 -42 9 0 28 -5 42 -12 23 -11 25 -16
25 -85 0 -42 -4 -73 -10 -73 -14 0 -12 -27 3 -34 10 -5 10 -7 0 -12 -8 -3 -13
-24 -13 -50 0 -24 -2 -44 -4 -44 -3 0 -17 11 -32 25 -15 14 -35 25 -44 25 -10
0 -23 7 -30 15 -16 19 -40 19 -40 1 0 -8 -5 -16 -11 -18 -15 -5 11 -48 28 -48
7 0 13 -4 13 -10 0 -5 7 -10 15 -10 9 0 18 -7 21 -15 4 -8 14 -15 23 -15 9 0
43 -14 76 -30 33 -16 65 -30 71 -30 6 0 17 -7 24 -15 7 -9 29 -15 54 -15 23 0
46 -4 52 -9 27 -28 236 -52 278 -33 43 19 92 35 123 39 17 3 44 18 59 34 15
16 33 29 40 29 7 0 22 14 34 30 12 17 26 30 32 30 19 0 47 31 41 46 -3 8 1 14
9 14 8 0 33 22 56 48 l41 49 392 6 c257 4 395 9 402 16 6 6 58 11 122 12 60 0
137 5 170 10 33 5 78 12 100 16 22 3 45 9 51 14 6 5 60 12 120 15 60 4 114 10
119 14 6 4 30 11 55 15 25 4 50 11 55 15 6 4 35 11 65 15 71 9 142 31 216 67
12 5 30 9 40 7 35 -5 194 13 194 22 0 5 32 9 71 9 52 0 70 -3 67 -12z m906
-123 c9 -19 21 -35 26 -35 6 0 10 -8 10 -19 0 -10 18 -35 40 -55 39 -35 39
-36 13 -30 -15 4 -44 16 -63 28 -19 11 -36 19 -38 18 -7 -8 -73 19 -93 37 -12
11 -35 23 -50 26 -40 9 -36 23 8 31 20 4 48 13 62 20 44 23 67 18 85 -21z m72
-613 c35 -4 60 -13 64 -22 4 -8 12 -25 18 -37 7 -12 15 -41 18 -65 4 -24 16
-50 28 -60 l21 -17 -21 -1 c-11 0 -29 9 -39 20 -10 11 -24 20 -32 20 -7 0 -13
5 -13 11 0 12 -25 39 -37 39 -13 1 -53 37 -53 49 0 6 -11 17 -25 23 -18 8 -25
19 -25 40 0 26 2 28 20 18 11 -6 45 -14 76 -18z m-726 -147 c0 -8 5 -15 10
-15 13 0 59 -51 60 -66 0 -6 11 -32 24 -57 17 -31 26 -66 28 -107 1 -34 6 -64
10 -66 5 -3 8 -21 8 -40 0 -39 -16 -42 -34 -8 -6 10 -17 23 -23 27 -7 4 -13
19 -13 33 0 14 -15 45 -35 68 -19 24 -35 54 -35 67 0 16 -8 28 -22 34 -13 6
-24 20 -26 33 -2 12 -8 22 -13 22 -5 0 -9 13 -9 29 0 17 -4 33 -10 36 -23 14
-7 25 35 25 33 0 45 -4 45 -15z m-152 -27 c7 -7 12 -20 12 -30 0 -10 5 -18 10
-18 6 0 10 -11 10 -25 0 -14 6 -28 14 -31 8 -3 19 -20 26 -37 6 -18 16 -40 21
-50 5 -10 7 -22 3 -28 -3 -6 3 -13 15 -16 12 -3 21 -11 21 -17 0 -17 32 -76
63 -117 15 -20 27 -43 27 -51 0 -9 7 -21 15 -28 8 -7 15 -19 15 -26 0 -8 5
-14 10 -14 6 0 10 -7 10 -15 0 -8 4 -15 9 -15 9 0 24 -38 22 -57 -1 -6 3 -14
9 -18 7 -4 8 -11 1 -18 -5 -7 -10 -173 -12 -410 l-3 -397 -57 0 c-32 0 -61 -4
-64 -10 -3 -5 -26 -10 -50 -10 -24 0 -46 -4 -50 -9 -3 -5 -31 -9 -63 -8 -31 0
-63 -2 -70 -7 -6 -4 -16 -5 -21 -1 -12 7 -2 336 10 350 5 5 9 86 9 180 0 95 4
175 10 181 10 10 19 228 23 561 1 112 4 203 8 203 3 0 10 -5 17 -12z m-113
-355 c-13 -651 -16 -748 -25 -757 -6 -6 -10 -47 -10 -93 0 -49 -4 -83 -10 -83
-6 0 -10 -40 -10 -99 l0 -98 -97 -7 c-54 -4 -100 -11 -103 -16 -9 -14 -180
-26 -180 -12 0 6 5 14 10 17 6 4 10 60 10 135 0 79 5 139 12 155 10 22 9 28
-3 36 -9 6 -10 12 -4 17 19 13 45 70 45 95 0 14 5 29 10 32 6 3 10 13 10 22 0
9 11 31 25 49 14 18 25 44 25 58 0 14 3 26 8 26 4 0 13 15 20 33 8 17 20 44
28 59 8 14 14 44 14 66 0 23 5 44 10 47 6 3 10 14 10 24 0 10 7 32 15 47 8 16
15 37 15 46 0 9 5 20 10 23 6 3 10 19 10 34 0 30 20 81 33 81 4 0 7 14 7 30 0
18 6 33 15 36 10 4 15 20 15 45 0 21 5 39 10 39 6 0 10 9 10 19 0 21 30 84 43
89 4 2 7 17 7 33 0 16 5 29 10 29 7 0 9 -84 5 -257z m495 -178 c0 -8 8 -15 18
-15 10 0 28 -13 40 -30 15 -19 31 -30 47 -30 14 0 25 -4 25 -9 0 -5 10 -11 21
-13 12 -2 27 -12 33 -23 6 -11 17 -24 24 -28 6 -4 12 -19 12 -32 0 -14 3 -25
8 -25 13 0 32 -54 32 -94 0 -32 -15 -98 -27 -115 -6 -9 -43 33 -43 49 0 10 -6
20 -14 23 -17 7 -56 86 -56 115 0 12 -9 26 -20 32 -11 6 -20 17 -20 24 0 8 -7
19 -15 26 -8 7 -15 21 -15 32 0 17 -11 35 -60 95 -13 16 -13 33 0 33 6 0 10
-7 10 -15z m30 -220 c0 -8 5 -15 10 -15 6 0 10 -10 10 -23 0 -12 18 -46 40
-76 22 -29 40 -64 40 -77 0 -13 4 -24 10 -24 17 0 49 -42 43 -57 -4 -9 2 -16
16 -20 18 -4 21 -13 21 -54 0 -27 -4 -49 -10 -49 -5 0 -10 -9 -10 -20 0 -11 5
-20 10 -20 6 0 10 -21 10 -48 0 -37 4 -50 21 -60 13 -8 18 -19 15 -29 -4 -8
-1 -22 5 -30 7 -7 10 -16 7 -18 -4 -5 -84 -16 -222 -32 l-49 -5 6 248 c4 137
7 288 7 337 0 51 4 87 10 87 6 0 10 -7 10 -15z m593 -626 c9 -17 17 -36 17
-44 0 -7 7 -26 15 -41 10 -19 15 -58 15 -116 0 -88 -11 -112 -30 -64 -5 13
-14 27 -19 31 -6 3 -11 14 -11 25 0 10 -13 32 -29 49 -17 18 -33 42 -37 54 -4
12 -15 34 -26 50 -18 25 -18 28 -3 33 9 4 21 17 26 30 13 37 59 33 82 -7z
m-174 -93 c11 -25 34 -59 51 -76 16 -17 30 -37 30 -45 0 -22 21 -56 48 -78 12
-10 22 -29 22 -43 0 -17 6 -24 19 -24 29 0 47 -28 33 -51 -8 -12 -12 -63 -12
-139 0 -73 -4 -120 -10 -120 -5 0 -10 -20 -10 -44 0 -25 -4 -47 -8 -50 -5 -3
-12 -109 -15 -237 -3 -144 -9 -235 -16 -242 -7 -7 -11 -75 -11 -189 0 -112 -4
-178 -10 -178 -6 0 -10 -65 -10 -174 0 -155 -2 -175 -17 -180 -10 -4 -63 -10
-118 -13 -55 -3 -105 -9 -110 -14 -6 -4 -34 -11 -63 -15 -28 -3 -52 -10 -52
-15 0 -5 -7 -9 -15 -9 -20 0 -31 28 -16 43 6 6 11 48 11 104 0 55 4 93 10 93
6 0 10 140 10 399 0 256 -4 402 -10 406 -5 3 -10 31 -10 61 0 30 -4 54 -9 54
-5 0 -12 18 -16 40 -4 22 -11 42 -16 46 -5 3 -9 18 -9 34 0 16 -4 32 -10 35
-5 3 -10 14 -10 23 0 10 -10 22 -22 27 -13 6 -24 20 -26 33 -2 12 -15 30 -30
40 -15 9 -47 38 -72 65 -25 26 -54 47 -63 47 -9 0 -26 9 -36 19 -26 26 -55 41
-80 41 -12 0 -21 5 -21 10 0 6 -9 10 -20 10 -12 0 -33 8 -47 18 -22 14 -55 18
-183 21 -142 3 -161 1 -203 -18 -25 -12 -51 -21 -56 -21 -6 0 -11 -4 -11 -10
0 -5 -8 -10 -19 -10 -10 0 -24 -7 -31 -15 -7 -8 -18 -15 -25 -15 -7 0 -15 -9
-18 -21 -3 -11 -15 -23 -26 -26 -12 -3 -21 -12 -21 -19 0 -8 -4 -14 -10 -14
-5 0 -10 -7 -10 -15 0 -8 -9 -20 -20 -27 -11 -7 -20 -18 -20 -25 0 -7 -7 -13
-15 -13 -10 0 -15 -10 -15 -30 0 -18 -6 -33 -15 -36 -8 -4 -15 -17 -15 -30 0
-13 -4 -24 -10 -24 -5 0 -10 -9 -10 -20 0 -11 -4 -20 -10 -20 -5 0 -10 -14
-10 -30 0 -17 -4 -38 -8 -48 -5 -9 -16 -32 -25 -50 -9 -19 -17 -44 -17 -57 0
-13 -4 -27 -10 -30 -5 -3 -10 -41 -10 -84 0 -42 -4 -81 -10 -87 -5 -5 -13 -67
-16 -137 -4 -70 -11 -127 -16 -127 -4 0 -8 -38 -8 -85 0 -50 -4 -85 -10 -85
-6 0 -10 -108 -10 -305 0 -197 4 -305 10 -305 6 0 10 -25 10 -55 0 -30 5 -55
10 -55 6 0 10 -7 10 -15 0 -8 -9 -15 -19 -15 -11 0 -22 -4 -25 -9 -3 -4 -79
-11 -168 -15 -90 -4 -167 -11 -172 -17 -6 -5 -43 -9 -83 -9 l-73 0 0 168 c0
117 4 172 12 180 9 9 9 15 0 24 -15 15 -16 142 -2 168 7 14 7 25 -2 39 -9 16
-9 25 0 43 10 18 12 150 8 568 -2 300 -7 569 -11 598 -7 51 -7 52 19 52 15 0
34 4 44 10 9 5 42 12 73 15 38 4 63 13 75 26 9 10 30 19 45 19 15 0 34 6 41
13 7 6 31 21 53 32 43 20 150 113 150 130 0 5 14 16 30 24 17 8 38 18 47 23
10 4 36 8 58 8 22 0 40 4 40 9 0 4 54 10 120 13 66 3 125 10 133 16 7 6 44 14
82 18 39 4 75 10 80 15 6 4 51 10 100 12 50 3 106 8 125 11 19 3 63 8 98 12
34 3 62 10 62 14 0 4 57 11 128 14 70 4 134 11 143 16 9 5 50 11 90 15 41 4
81 9 89 13 18 7 192 29 201 25 4 -2 16 -23 28 -47z m-901 -336 c9 -5 43 -12
74 -15 31 -4 62 -13 69 -21 6 -8 24 -14 39 -14 15 0 33 -7 40 -15 7 -8 16 -15
21 -15 10 0 87 -48 107 -67 6 -6 12 -16 12 -22 0 -6 7 -11 15 -11 21 0 53 -34
61 -65 3 -14 10 -25 15 -25 5 0 9 -6 9 -14 0 -8 9 -21 19 -28 11 -8 22 -32 26
-53 8 -48 27 -95 37 -95 5 0 8 -20 8 -45 0 -25 5 -45 10 -45 6 0 10 -136 10
-389 0 -249 -4 -392 -10 -396 -5 -3 -10 -42 -10 -85 0 -43 -4 -82 -10 -85 -5
-3 -10 -19 -10 -36 0 -16 -4 -29 -9 -29 -5 0 -11 -13 -14 -30 -6 -27 -10 -30
-43 -30 l-36 0 6 78 c3 42 10 131 16 197 14 151 7 748 -9 753 -6 2 -11 28 -11
58 0 30 -4 54 -10 54 -5 0 -10 9 -10 20 0 11 -11 43 -24 72 -13 29 -27 61 -30
71 -3 11 -15 21 -26 24 -10 3 -25 18 -32 34 -7 16 -17 29 -23 29 -6 0 -22 11
-36 24 -14 13 -40 27 -57 31 -18 3 -32 10 -32 13 0 4 -26 15 -57 25 -87 28
-276 15 -296 -19 -4 -8 -16 -14 -25 -14 -10 0 -33 -13 -52 -30 -19 -16 -41
-29 -47 -30 -7 0 -13 -7 -13 -16 0 -9 -16 -35 -35 -58 -19 -24 -35 -53 -35
-65 0 -11 -4 -21 -8 -21 -9 0 -31 -73 -39 -132 -3 -21 -9 -38 -14 -38 -5 0 -9
-33 -9 -73 0 -40 -4 -77 -10 -83 -10 -10 -28 -163 -36 -316 -3 -49 -10 -88
-15 -88 -5 0 -9 -151 -9 -375 l0 -375 -50 0 -50 0 0 40 c0 22 -4 40 -10 40 -6
0 -10 127 -10 360 0 233 4 360 10 360 6 0 10 33 10 79 0 44 4 81 10 83 5 2 12
78 16 171 4 92 11 170 16 173 4 3 8 16 8 30 0 13 5 24 10 24 6 0 10 15 10 34
0 18 7 39 15 46 8 7 15 25 15 39 0 30 21 81 33 81 4 0 7 6 7 14 0 7 7 19 15
26 8 7 15 19 15 27 0 8 16 34 35 57 19 24 35 46 35 50 0 10 42 45 55 46 6 0
15 10 20 23 6 12 21 23 35 25 14 2 32 10 40 18 9 7 42 16 73 20 31 4 57 11 57
15 0 12 106 11 128 -1z m-4488 -87 c19 -18 46 -36 60 -40 14 -3 30 -9 35 -12
6 -3 26 -11 45 -16 l35 -11 6 -79 c4 -44 8 -153 9 -242 1 -90 6 -165 11 -168
5 -4 9 -64 9 -135 0 -75 4 -131 10 -135 6 -3 10 -23 10 -43 1 -58 17 -72 140
-124 14 -6 33 -14 42 -19 10 -5 55 -9 101 -9 l83 0 -4 -34 c-3 -29 2 -39 35
-70 21 -19 46 -36 55 -36 29 0 30 -18 3 -60 -17 -27 -27 -61 -31 -103 -5 -50
-12 -68 -36 -93 -33 -35 -67 -35 -126 -2 -19 10 -68 23 -110 28 -98 11 -181
28 -208 41 -12 6 -66 14 -120 18 l-99 6 -3 210 c-1 116 -5 217 -9 225 -4 8 -8
49 -10 90 -6 123 -15 200 -24 206 -5 3 -9 83 -9 179 0 105 -4 176 -10 180 -6
4 -10 58 -10 130 0 76 -4 126 -10 130 -8 5 -8 11 0 20 19 23 90 6 130 -32z
m528 41 c33 -4 52 -12 52 -20 0 -13 30 -33 83 -55 15 -6 27 -15 27 -20 0 -5 7
-9 15 -9 11 0 15 -11 15 -42 0 -39 -1 -40 -18 -25 -10 10 -40 24 -66 33 -44
15 -50 15 -85 -1 -52 -23 -66 -66 -56 -169 10 -114 40 -208 102 -328 24 -47
32 -72 25 -77 -23 -14 -43 -87 -54 -196 -10 -104 -13 -113 -29 -104 -10 5 -44
9 -76 9 -42 0 -66 6 -88 21 -16 11 -40 24 -52 29 -16 7 -23 18 -23 38 0 15 -4
32 -9 37 -5 6 -13 153 -17 328 -4 174 -11 317 -15 317 -5 0 -9 29 -9 65 0 58
2 65 19 65 11 0 26 6 33 14 8 7 24 16 36 20 12 4 27 19 34 34 18 36 63 47 156
36z m882 -234 c0 -174 2 -181 60 -236 24 -23 45 -34 65 -34 17 0 36 -5 41 -10
6 -6 56 -13 111 -17 82 -5 106 -3 133 11 18 9 40 16 50 16 21 0 40 19 34 35
-3 7 -1 16 5 20 7 3 11 43 11 96 0 99 10 115 53 86 13 -8 37 -17 53 -19 29 -3
29 -3 32 -80 2 -43 7 -78 12 -78 14 0 13 -427 0 -435 -6 -4 -10 -56 -10 -122
0 -106 -2 -119 -22 -140 -19 -20 -31 -23 -94 -23 -40 0 -74 4 -76 10 -1 5 -58
13 -125 16 -68 4 -123 11 -123 16 0 4 -12 8 -27 8 -16 0 -53 7 -83 15 -30 8
-66 15 -80 15 -53 1 -61 18 -64 141 -2 63 -7 159 -11 214 -6 86 -11 104 -32
126 -24 26 -24 27 -9 87 12 43 16 108 16 226 l0 167 28 24 c50 45 52 39 52
-135z m215 140 c24 -11 46 -24 50 -29 3 -5 18 -12 34 -16 16 -3 39 -17 51 -31
13 -13 34 -24 47 -24 14 0 23 -6 23 -15 0 -8 5 -15 10 -15 6 0 10 -7 10 -15 0
-8 -4 -15 -10 -15 -5 0 -10 -11 -10 -25 0 -14 5 -25 10 -25 6 0 10 -30 10 -69
0 -58 -3 -71 -17 -75 -30 -8 -211 -11 -219 -3 -4 4 -22 7 -39 7 -20 0 -39 8
-52 23 -19 20 -22 40 -28 185 l-7 162 46 0 c26 0 67 -9 91 -20z m1540 -147
c11 -221 -1 -1147 -15 -1151 -13 -5 -13 -102 0 -102 13 0 13 -267 0 -275 -6
-4 -5 -13 2 -25 10 -15 10 -22 0 -32 -6 -6 -12 -32 -12 -56 l0 -45 -270 5
c-175 4 -275 9 -283 16 -7 7 -85 16 -173 21 -87 5 -179 14 -204 21 -25 6 -54
11 -65 11 -10 0 -24 4 -30 8 -5 5 -32 11 -60 14 -132 15 -220 29 -225 36 -3 5
-29 12 -57 16 -29 4 -55 11 -59 16 -3 5 -26 9 -52 9 -26 0 -85 13 -132 30 -54
19 -105 29 -142 30 -31 0 -60 5 -63 10 -3 6 -18 10 -33 10 -26 0 -25 2 25 48
59 55 70 85 53 147 -19 68 -71 105 -147 105 -20 0 -33 3 -30 7 4 3 -4 26 -18
50 -14 23 -22 43 -17 43 5 0 22 11 38 25 16 14 38 25 49 25 11 0 32 10 45 23
14 12 40 30 58 40 33 19 48 17 131 -15 13 -5 67 -11 120 -15 53 -3 99 -10 102
-16 4 -5 79 -12 167 -15 130 -4 165 -2 190 10 31 16 52 9 52 -18 0 -13 45 -24
101 -24 22 0 39 -4 39 -9 0 -5 17 -11 38 -14 36 -4 89 -21 124 -38 36 -18 145
-10 185 13 53 30 93 68 93 89 0 10 6 19 13 21 9 4 13 74 15 294 l3 290 41 1
c51 2 143 47 165 79 8 13 22 24 29 24 10 0 14 15 14 54 0 32 5 56 11 58 9 3 9
9 0 25 -12 23 -14 152 -2 193 4 14 18 31 31 38 14 7 39 21 55 32 17 10 44 19
61 19 l32 1 7 -157z m-1962 115 c9 -7 28 -39 42 -71 35 -81 35 -209 0 -332
-23 -78 -59 -158 -87 -192 -5 -7 -7 -17 -4 -22 9 -15 34 -2 41 20 10 29 41 23
63 -13 44 -72 55 -130 47 -253 -5 -90 -10 -115 -21 -115 -8 0 -19 -11 -24 -25
-6 -15 -17 -25 -29 -25 -10 0 -24 -7 -31 -15 -7 -8 -20 -15 -30 -15 -10 0 -37
-7 -61 -16 -24 -8 -63 -16 -86 -16 -35 -1 -43 -5 -43 -20 0 -11 7 -18 20 -18
47 0 66 -18 143 -135 19 -27 50 -59 70 -70 21 -11 37 -28 37 -37 0 -20 8 -22
30 -8 12 7 12 12 2 22 -14 14 -16 28 -2 28 10 0 40 -51 40 -68 0 -6 -13 -24
-29 -41 -35 -38 -69 -40 -100 -7 -28 30 -129 79 -147 72 -26 -10 -14 -23 33
-37 62 -17 116 -71 131 -132 15 -56 16 -167 2 -167 -5 0 -10 -5 -10 -11 0 -6
-9 -22 -20 -37 -30 -37 -8 -54 24 -19 30 32 63 41 99 28 25 -10 39 -41 18 -41
-5 0 -11 -10 -13 -22 -2 -16 -18 -30 -48 -46 -42 -21 -54 -22 -170 -17 -242
11 -257 16 -204 66 21 20 25 30 21 61 -3 21 -1 41 4 44 17 10 9 61 -12 80 -12
10 -28 36 -36 56 -15 39 -50 58 -103 58 -15 0 -33 7 -41 16 -8 10 -22 14 -40
10 -14 -3 -39 -2 -54 2 l-27 8 53 58 c52 57 54 61 60 131 4 59 11 78 35 108
16 21 45 42 64 48 19 6 39 15 44 20 13 11 -12 39 -35 39 -23 0 -120 58 -134
79 -18 29 -45 155 -45 213 0 66 24 145 51 171 24 22 24 32 0 65 -82 117 -153
338 -137 426 8 43 18 50 60 42 88 -17 226 -254 226 -388 l0 -40 64 7 c78 9
106 -3 106 -45 0 -21 5 -30 16 -30 14 0 16 7 9 48 -11 62 -9 231 4 310 5 34
22 89 37 123 39 86 85 118 127 87z m3372 -55 c73 -27 104 -46 120 -69 9 -13
22 -24 30 -24 8 0 15 -6 15 -14 0 -8 7 -16 15 -19 8 -4 21 -22 29 -42 8 -19
22 -35 30 -35 11 0 16 -9 16 -29 0 -16 4 -31 10 -33 7 -2 31 -395 29 -473 -14
-487 -21 -660 -27 -665 -4 -3 -12 -14 -18 -25 -8 -15 -25 -22 -70 -26 -32 -4
-72 -14 -89 -23 -16 -9 -40 -16 -52 -16 -13 0 -23 -4 -23 -10 0 -5 -18 -10
-41 -10 -23 0 -55 -6 -72 -14 -76 -33 -120 -46 -161 -46 -25 0 -46 -5 -48 -10
-2 -6 -28 -13 -58 -17 -30 -3 -58 -10 -61 -15 -3 -5 -35 -11 -72 -15 l-67 -6
0 312 c0 201 4 311 10 311 6 0 10 38 10 95 0 52 4 95 8 95 8 0 23 135 28 253
1 26 4 51 8 54 3 4 6 32 6 64 0 32 5 61 10 64 6 3 10 21 10 40 0 19 4 36 9 39
5 4 12 24 16 46 4 22 11 42 16 46 5 3 9 20 9 37 0 24 13 46 51 90 29 32 59 57
70 57 10 0 19 4 19 10 0 5 17 12 38 16 20 4 42 10 47 15 27 21 135 17 200 -8z
m-3716 3 c37 -20 51 -55 51 -132 0 -66 11 -99 43 -122 11 -9 17 -27 17 -56 0
-46 -10 -56 -56 -56 -20 0 -24 5 -24 28 0 32 -30 116 -71 194 -37 73 -42 158
-9 158 12 0 33 -6 49 -14z m1636 -6 c14 -16 17 -30 12 -72 -4 -29 -11 -54 -17
-56 -15 -5 -12 -90 4 -120 7 -15 20 -40 27 -57 16 -35 42 -61 82 -81 15 -8 27
-23 27 -34 0 -10 5 -22 10 -25 6 -4 10 -88 10 -220 0 -132 -4 -216 -10 -220
-5 -3 -10 -31 -10 -61 0 -39 -4 -56 -15 -60 -8 -4 -15 -16 -15 -29 0 -15 -8
-25 -22 -29 -42 -11 -160 -6 -191 8 -71 30 -86 34 -143 41 -43 5 -66 14 -86
33 -27 25 -28 28 -28 143 0 68 4 120 10 124 6 4 10 98 10 250 0 152 -4 246
-10 250 -5 3 -10 25 -10 49 0 35 4 45 24 55 13 8 28 11 33 8 4 -3 26 3 47 14
22 10 45 19 52 19 8 0 29 14 47 30 19 17 39 30 45 30 5 0 15 7 22 15 18 22 73
19 95 -5z m-2615 -1045 l0 -155 -91 0 c-101 0 -119 -9 -119 -59 0 -36 15 -39
61 -16 58 31 426 8 450 -27 3 -5 39 -11 80 -14 41 -3 83 -9 94 -13 11 -5 47
-16 80 -26 107 -31 106 -30 94 -65 -6 -16 -15 -30 -21 -30 -23 0 -78 -77 -78
-110 0 -35 33 -168 50 -200 17 -34 59 -78 90 -94 24 -13 137 -20 220 -14 19 2
128 -1 241 -6 l205 -8 57 26 c31 15 68 41 83 58 22 27 25 38 20 71 -9 53 -40
95 -74 99 -21 2 -28 9 -30 31 -3 25 -1 27 32 27 19 0 51 -9 69 -19 20 -11 45
-17 59 -14 14 3 29 0 32 -6 4 -6 20 -11 36 -11 16 0 31 -4 34 -9 3 -4 38 -11
77 -14 40 -3 75 -10 78 -15 3 -5 32 -12 64 -16 31 -4 57 -11 57 -15 0 -5 41
-11 91 -13 50 -3 96 -11 102 -17 6 -6 25 -11 42 -11 17 0 36 -5 42 -11 6 -6
55 -13 109 -16 55 -3 104 -9 109 -13 6 -4 59 -10 120 -14 60 -4 116 -12 124
-19 20 -17 798 -17 809 -1 4 7 57 15 130 19 67 4 122 11 122 15 0 4 39 10 88
13 84 4 185 21 227 37 11 5 27 9 35 10 8 0 44 4 80 6 36 3 70 10 76 15 6 4 37
12 69 15 32 4 70 13 84 21 15 7 47 13 74 13 26 0 47 5 47 10 0 6 15 10 34 10
18 0 39 7 46 15 7 8 23 15 36 15 13 0 24 5 24 10 0 6 19 10 43 10 23 1 60 9
82 20 22 11 52 19 66 20 14 0 29 3 33 7 4 4 33 14 64 21 97 22 107 25 113 35
4 5 46 11 95 14 49 3 94 10 100 14 6 5 33 12 60 15 27 4 54 11 61 16 6 5 66
12 132 15 67 3 124 10 127 15 3 4 58 8 123 8 65 0 121 3 125 7 4 5 13 8 19 8
18 0 20 40 3 54 -10 9 -51 13 -126 12 l-110 0 0 144 0 145 63 -7 c34 -3 64
-10 65 -15 2 -4 16 -8 32 -8 16 0 35 -7 43 -14 8 -8 39 -18 68 -22 33 -4 64
-15 79 -28 34 -29 66 -46 87 -46 10 0 32 -13 48 -28 17 -16 36 -31 42 -33 21
-7 173 -144 173 -155 0 -6 11 -20 25 -32 14 -12 25 -33 25 -46 0 -14 4 -28 10
-31 13 -8 13 -52 0 -60 -5 -3 -10 -15 -10 -27 0 -24 -121 -148 -145 -148 -9 0
-34 -14 -55 -30 -21 -17 -45 -30 -54 -30 -9 0 -35 -14 -58 -30 -22 -17 -50
-30 -60 -30 -11 0 -33 -13 -51 -30 -18 -16 -38 -30 -44 -30 -18 0 -53 -74 -53
-111 0 -29 11 -49 73 -123 15 -19 27 -38 27 -43 0 -5 9 -19 20 -30 16 -18 17
-25 7 -47 -7 -14 -15 -26 -19 -26 -5 0 -8 -13 -8 -29 0 -24 -5 -30 -30 -35
-20 -4 -34 -14 -40 -31 -7 -18 -17 -25 -36 -25 -17 0 -28 -6 -31 -19 -3 -12
-17 -23 -34 -26 -16 -4 -31 -11 -34 -16 -4 -5 -17 -9 -29 -9 -13 0 -29 -7 -36
-15 -7 -8 -17 -15 -22 -15 -6 0 -24 -6 -41 -14 -18 -8 -58 -17 -89 -21 -32 -3
-58 -11 -58 -16 0 -5 -8 -9 -18 -9 -10 0 -23 -5 -29 -11 -6 -6 -44 -14 -84
-19 -138 -17 -244 -35 -257 -43 -7 -5 -62 -11 -123 -14 -60 -3 -112 -10 -115
-15 -3 -4 -25 -8 -49 -8 -24 0 -47 -5 -50 -10 -4 -6 -16 -9 -28 -8 -34 4 -201
-14 -212 -22 -5 -4 -108 -10 -227 -13 -120 -4 -226 -11 -236 -16 -10 -5 -121
-13 -245 -17 -125 -4 -227 -11 -227 -16 0 -4 -243 -8 -540 -8 -297 0 -540 4
-540 9 0 4 -62 11 -137 15 -76 4 -140 11 -143 16 -3 5 -71 12 -150 15 -80 4
-154 10 -165 15 -11 5 -46 12 -77 15 -32 4 -60 11 -63 16 -4 5 -15 9 -26 9
-10 0 -19 4 -19 9 0 4 -29 11 -65 14 -40 3 -73 11 -84 21 -10 9 -27 16 -39 16
-11 0 -23 4 -27 9 -3 5 -19 12 -35 16 -17 4 -38 17 -46 30 -9 14 -24 27 -34
30 -11 3 -26 19 -34 35 -14 28 -13 31 14 60 15 16 33 30 39 30 6 0 11 14 11
30 0 28 -2 30 -40 30 -22 0 -40 5 -40 10 0 6 -3 9 -7 8 -5 -1 -26 6 -48 16
-22 9 -61 20 -87 23 -27 3 -48 9 -48 13 0 4 -21 11 -47 15 -27 4 -51 11 -54
16 -3 6 -39 12 -80 15 -41 3 -83 9 -94 14 -18 8 -70 21 -145 36 -14 3 -34 9
-45 14 -11 5 -55 12 -97 15 -43 4 -78 11 -78 16 0 5 -14 9 -31 9 -17 0 -45 6
-62 14 -18 8 -58 16 -89 19 -36 4 -69 14 -88 27 -16 11 -53 24 -82 27 -29 4
-78 19 -108 35 -30 15 -69 28 -87 28 -18 0 -33 5 -33 10 0 6 -6 10 -14 10 -7
0 -19 7 -26 15 -7 8 -23 15 -36 15 -12 0 -26 5 -29 10 -3 6 -16 10 -28 10 -13
0 -30 9 -40 20 -9 11 -24 20 -32 20 -8 0 -15 4 -15 9 0 5 -16 12 -35 15 -19 4
-35 11 -35 16 0 6 -9 10 -20 10 -11 0 -20 7 -20 15 0 10 -10 15 -29 15 -22 0
-30 6 -35 24 -3 14 -15 28 -26 31 -11 4 -28 18 -37 32 -9 14 -27 29 -40 34
-13 5 -23 15 -23 24 0 8 -4 15 -10 15 -5 0 -7 7 -4 15 4 9 -3 23 -15 34 -11
10 -21 23 -21 30 0 6 -4 11 -10 11 -6 0 -10 35 -10 85 0 50 4 85 10 85 6 0 10
5 10 11 0 6 9 24 20 39 11 16 20 32 19 37 -3 20 15 53 37 68 13 8 24 22 24 30
0 8 7 15 15 15 8 0 27 16 42 35 16 20 37 35 49 35 11 0 33 13 49 30 15 16 40
32 55 35 15 3 38 17 50 31 14 14 35 24 52 24 15 0 36 4 46 10 31 17 108 48
125 49 4 1 7 -69 7 -154z m849 -429 c10 -9 29 -16 43 -16 41 0 58 -10 58 -35
0 -13 6 -25 14 -28 8 -3 22 -18 32 -32 15 -23 15 -27 2 -43 -10 -11 -12 -25
-7 -42 12 -42 10 -50 -16 -62 -15 -7 -25 -20 -25 -32 0 -18 -11 -24 -59 -37
-41 -10 -65 -12 -77 -6 -10 6 -38 12 -63 14 -35 3 -51 10 -68 31 -12 15 -22
34 -23 43 0 8 -7 24 -15 35 -8 10 -15 31 -15 47 0 15 -5 36 -12 46 -9 15 -6
24 16 54 15 19 38 38 51 41 13 3 26 14 30 25 5 15 14 18 61 16 33 -2 62 -9 73
-19z"/>
<path d="M342 3877 c-15 -18 6 -67 29 -67 10 0 44 -13 77 -30 34 -16 70 -30
82 -30 20 0 27 -3 86 -33 17 -9 51 -19 75 -23 24 -3 60 -13 79 -22 19 -9 44
-17 55 -19 46 -5 91 -15 110 -23 11 -5 71 -11 133 -14 62 -2 119 -9 125 -15 7
-5 60 -13 120 -17 59 -3 107 -11 107 -15 0 -5 55 -9 123 -10 117 -1 213 -8
397 -29 47 -6 137 -14 200 -19 151 -12 1624 -13 1674 -2 50 12 64 26 50 49
-13 20 -81 29 -97 13 -15 -15 -1453 -15 -1462 -1 -4 6 -56 10 -124 10 -65 0
-121 3 -124 7 -4 3 -42 8 -85 9 -129 5 -232 15 -232 23 0 4 -102 11 -227 15
-125 4 -230 11 -233 15 -3 5 -30 12 -60 16 -30 4 -59 11 -65 15 -5 4 -53 10
-105 13 -65 4 -108 12 -136 26 -22 11 -69 23 -105 27 -35 4 -91 20 -126 36
-34 15 -73 28 -87 28 -13 0 -28 5 -31 10 -3 6 -15 10 -25 10 -10 0 -33 8 -52
17 -58 29 -65 31 -100 38 -24 5 -38 2 -46 -8z"/>
<path d="M2400 2600 c0 -5 -6 -10 -13 -10 -22 0 -47 -34 -47 -63 0 -15 -4 -27
-10 -27 -6 0 -10 -31 -10 -74 0 -41 5 -78 10 -81 6 -3 10 -28 10 -54 0 -31 5
-53 15 -61 8 -7 15 -19 15 -26 0 -9 12 -14 34 -14 19 0 38 -4 41 -10 3 -5 17
-10 30 -10 13 0 27 -5 30 -10 4 -6 11 -8 16 -4 5 3 15 2 22 -3 7 -5 49 -10 95
-12 93 -3 152 15 152 49 0 10 5 22 10 25 14 8 13 225 0 225 -6 0 -10 15 -8 33
2 38 -7 57 -28 57 -9 0 -22 7 -30 15 -9 8 -26 15 -40 15 -13 0 -24 4 -24 9 0
5 -25 13 -55 16 -30 4 -55 11 -55 16 0 5 -36 9 -80 9 -47 0 -80 -4 -80 -10z
m114 -59 c5 -8 40 -16 103 -25 13 -1 26 -6 30 -9 3 -4 16 -7 28 -7 26 0 45
-18 45 -42 0 -10 6 -27 12 -38 10 -16 10 -24 0 -40 -7 -11 -12 -53 -12 -100 0
-91 11 -83 -115 -80 -44 1 -84 6 -89 11 -6 5 -22 9 -36 9 -30 0 -50 17 -50 42
0 10 -4 18 -10 18 -6 0 -10 43 -10 110 0 67 4 110 10 110 6 0 10 6 10 13 0 7
5 18 12 25 14 14 64 16 72 3z"/>
<path d="M4970 2232 c0 -10 -5 -23 -11 -29 -15 -15 -13 -85 3 -141 16 -53 37
-64 117 -60 50 3 57 6 69 31 7 15 17 27 23 27 5 0 9 23 9 51 0 43 -5 56 -37
95 l-37 44 -68 0 c-59 0 -68 -2 -68 -18z"/>
<path d="M7007 9052 c-18 -2 -32 -12 -39 -28 -6 -13 -19 -24 -30 -24 -15 0
-18 -8 -18 -60 0 -49 4 -62 20 -72 11 -7 20 -18 20 -24 0 -13 56 -64 70 -64 5
0 10 -4 10 -10 0 -18 67 -11 108 11 43 23 52 40 52 106 0 105 -87 179 -193
165z m106 -83 c20 -35 23 -109 5 -127 -21 -21 -52 -13 -90 23 -36 33 -53 85
-28 85 6 0 10 6 10 13 0 22 22 37 55 37 23 0 34 -7 48 -31z"/>
<path d="M2118 9024 c-30 -19 -38 -31 -38 -53 0 -16 -6 -31 -12 -34 -10 -3
-10 -9 -2 -24 6 -10 15 -33 18 -50 10 -43 55 -63 140 -63 64 0 68 1 84 30 9
16 20 30 25 30 16 0 5 54 -18 84 -14 18 -25 38 -25 44 0 7 -11 12 -25 12 -14
0 -25 6 -25 13 0 13 -45 37 -69 36 -9 0 -33 -11 -53 -25z"/>
<path d="M3598 8872 c-37 -16 -38 -18 -38 -69 0 -29 5 -53 10 -53 6 0 10 -6
10 -13 0 -46 121 -66 181 -30 25 15 29 23 29 65 0 42 -3 49 -30 65 -16 9 -30
23 -30 29 0 11 -45 25 -79 23 -9 0 -33 -8 -53 -17z"/>
<path d="M4930 8688 c-14 -8 -26 -24 -28 -36 -2 -12 -10 -22 -18 -22 -16 0
-14 -19 6 -65 4 -11 11 -28 13 -37 11 -34 114 -65 143 -43 10 8 29 15 42 15
20 0 22 5 22 50 0 41 -5 55 -25 74 -14 13 -25 26 -25 30 0 34 -87 56 -130 34z"/>
<path d="M6085 8681 c-3 -5 -18 -12 -34 -16 -21 -4 -33 -18 -51 -55 -13 -28
-27 -50 -32 -50 -15 0 -8 -45 12 -70 11 -14 20 -31 20 -37 0 -20 154 -18 170
2 7 8 19 15 26 15 8 0 14 7 14 15 0 8 5 15 10 15 6 0 10 30 10 70 0 39 -4 70
-9 70 -5 0 -16 6 -23 13 -37 34 -99 49 -113 28z"/>
<path d="M2818 8552 c-28 -12 -58 -59 -58 -91 0 -43 51 -151 71 -151 9 0 22
-7 29 -16 30 -35 124 -56 147 -33 6 6 22 17 35 23 19 10 24 21 26 66 2 31 -2
65 -10 79 -19 36 -85 101 -103 101 -9 0 -18 7 -21 15 -6 16 -83 20 -116 7z
m122 -67 c7 -8 19 -15 26 -15 8 0 14 -7 14 -15 0 -8 5 -15 10 -15 6 0 10 -13
10 -29 0 -16 6 -32 13 -35 10 -5 10 -7 0 -12 -7 -3 -13 -12 -13 -20 0 -10 -12
-14 -41 -14 -75 0 -130 83 -103 154 8 21 67 21 84 1z"/>
<path d="M4329 8183 c-6 -7 -18 -13 -25 -13 -8 0 -14 -7 -14 -15 0 -8 -4 -15
-10 -15 -5 0 -10 -20 -10 -45 0 -25 5 -45 10 -45 6 0 10 -11 10 -25 0 -14 6
-25 13 -25 7 0 24 -14 36 -31 23 -30 25 -31 93 -27 86 5 107 25 108 101 0 45
-27 105 -52 115 -4 2 -8 10 -8 18 0 8 -11 15 -27 16 -88 5 -114 4 -124 -9z
m127 -63 c21 -9 24 -16 24 -65 l0 -55 -39 0 c-33 0 -44 6 -71 38 -17 20 -29
46 -28 57 4 26 81 69 86 48 2 -8 15 -18 28 -23z"/>
<path d="M6605 8070 c-3 -5 -14 -10 -23 -10 -35 -1 -62 -36 -62 -79 0 -30 4
-41 16 -41 8 0 21 -15 29 -34 11 -25 23 -36 45 -41 16 -4 32 -11 35 -16 10
-14 61 -10 100 8 25 12 35 23 35 40 0 13 5 23 10 23 6 0 10 6 10 14 0 8 6 17
13 19 8 4 9 8 1 14 -11 8 -27 41 -29 58 -2 26 -19 35 -71 35 -30 0 -54 5 -54
10 0 6 -11 10 -24 10 -14 0 -28 -4 -31 -10z"/>
<path d="M545 7820 c-3 -5 -17 -10 -30 -10 -13 0 -38 -15 -59 -36 -50 -50 -50
-94 0 -152 33 -39 39 -42 87 -42 29 0 63 7 77 15 14 8 35 18 46 24 12 5 24 20
27 33 9 32 9 93 0 102 -4 4 -8 15 -8 23 0 35 -122 72 -140 43z m85 -55 c0 -9
9 -15 21 -15 13 0 19 -5 15 -12 -3 -7 -9 -21 -12 -30 -4 -10 -10 -18 -15 -18
-5 0 -9 -7 -9 -15 0 -8 -7 -15 -15 -15 -8 0 -15 -4 -15 -10 0 -5 -19 -10 -43
-10 -38 0 -44 3 -56 31 -13 31 -13 33 25 70 29 28 48 38 72 39 22 0 32 -5 32
-15z"/>
<path d="M3077 7790 c-14 -11 -30 -20 -37 -20 -26 0 -40 -30 -40 -83 0 -49 3
-58 31 -81 26 -22 40 -26 97 -26 64 0 67 1 104 41 36 38 50 79 28 79 -5 0 -10
11 -10 25 0 14 -3 25 -8 25 -4 0 -13 14 -20 30 -13 28 -17 30 -66 30 -38 0
-61 -6 -79 -20z"/>
<path d="M6920 7622 c-50 -40 -24 -115 50 -144 28 -11 90 -2 90 12 0 6 9 10
20 10 32 0 24 30 -23 83 -51 58 -97 71 -137 39z"/>
<path d="M424 6895 c-4 -8 -17 -15 -30 -15 -23 0 -24 -3 -24 -70 0 -40 4 -70
10 -70 6 0 10 -9 10 -20 0 -10 6 -23 13 -27 6 -4 17 -17 23 -28 6 -11 20 -22
30 -24 10 -2 22 -8 25 -13 3 -5 34 -9 69 -9 55 -1 66 3 82 23 9 13 18 29 18
36 0 6 5 12 10 12 6 0 10 25 10 55 0 48 -4 60 -26 80 -32 30 -72 51 -114 60
-16 4 -32 11 -35 16 -10 15 -65 10 -71 -6z m131 -65 c3 -5 21 -17 40 -26 29
-14 35 -22 35 -48 -1 -51 -19 -66 -84 -66 -51 0 -57 2 -66 25 -5 14 -17 28
-25 31 -15 6 -20 49 -9 78 7 18 98 23 109 6z"/>
<path d="M7100 6801 c-16 -4 -33 -24 -50 -56 -14 -28 -28 -51 -32 -53 -12 -5
-9 -102 2 -102 6 0 10 -7 10 -15 0 -8 9 -15 19 -15 10 0 21 -7 25 -15 6 -17
51 -20 61 -5 3 6 16 10 29 10 13 0 39 18 64 44 40 42 42 47 42 106 0 54 -3 64
-27 85 -29 25 -87 32 -143 16z"/>
<path d="M1400 6643 c-8 -2 -22 -7 -30 -10 -8 -4 -19 -7 -25 -7 -5 -1 -11 -10
-14 -21 -2 -11 -12 -27 -22 -36 -30 -26 -25 -96 10 -137 34 -40 79 -66 95 -54
6 5 25 9 41 10 42 3 85 22 85 38 0 8 3 14 8 14 4 0 12 10 17 23 12 24 -1 97
-16 97 -5 0 -9 6 -9 13 0 20 -40 52 -79 66 -37 12 -38 12 -61 4z m77 -64 c6
-6 22 -17 35 -23 29 -14 40 -86 13 -86 -8 0 -18 -7 -21 -15 -9 -22 -96 -20
-116 3 -36 43 -40 102 -7 102 6 0 17 7 25 15 18 18 55 20 71 4z"/>
<path d="M702 5899 c-23 -22 -45 -51 -48 -65 -3 -13 -10 -24 -15 -24 -5 0 -9
-25 -9 -54 0 -49 4 -58 33 -85 37 -36 88 -41 140 -15 72 37 107 88 107 157 0
46 -21 77 -53 77 -9 0 -17 7 -17 15 0 11 -11 15 -38 15 -21 0 -42 4 -48 10 -6
6 -25 -5 -52 -31z m140 -46 c10 -9 18 -30 18 -48 0 -26 -7 -37 -35 -56 -19
-13 -35 -30 -35 -37 0 -9 -13 -12 -42 -10 l-43 3 -3 49 c-3 45 -1 50 35 82 42
37 76 43 105 17z"/>
</g>
</svg>
