<?xml version="1.0" standalone="no"?>
<!DOCTYPE svg PUBLIC "-//W3C//DTD SVG 20010904//EN"
 "http://www.w3.org/TR/2001/REC-SVG-20010904/DTD/svg10.dtd">
<svg version="1.0" xmlns="http://www.w3.org/2000/svg"
 width="1259.000000pt" height="1560.000000pt" viewBox="0 0 1259.000000 1560.000000"
 preserveAspectRatio="xMidYMid meet">
<metadata>
Created by potrace 1.16, written by Peter Selinger 2001-2019
</metadata>
<g transform="translate(0.000000,1560.000000) scale(0.100000,-0.100000)"
fill="#000000" stroke="none">
<path d="M7194 15525 c-36 -40 -77 -89 -89 -107 -13 -18 -56 -64 -97 -102
-136 -127 -147 -138 -162 -171 -18 -38 -20 -84 -6 -135 11 -40 10 -43 -49
-210 -55 -155 -61 -214 -28 -307 23 -67 38 -90 128 -198 l37 -43 -5 -199 -5
-198 43 -44 c24 -23 64 -55 89 -69 49 -28 58 -37 95 -94 33 -50 50 -99 66
-185 10 -62 10 -94 -5 -216 -19 -156 -16 -192 25 -251 22 -33 101 -96 119 -96
5 0 10 -4 10 -10 0 -5 6 -10 13 -10 12 0 144 -51 183 -71 18 -9 24 -26 33
-101 19 -146 46 -191 141 -233 56 -25 71 -42 115 -128 34 -67 67 -119 92 -145
23 -24 14 -39 -43 -73 -30 -19 -81 -51 -113 -71 -62 -39 -157 -85 -336 -163
-60 -27 -139 -63 -175 -81 -84 -42 -261 -114 -403 -165 -62 -22 -162 -64 -223
-94 -176 -87 -229 -150 -441 -530 -28 -49 -68 -124 -88 -164 -20 -41 -48 -92
-62 -113 -13 -22 -56 -101 -94 -176 -100 -195 -231 -432 -238 -432 -3 0 -31
35 -61 76 -52 71 -272 294 -291 294 -14 0 -46 72 -53 120 -17 117 -25 356 -16
457 30 329 66 479 172 713 44 96 97 219 119 272 21 54 47 117 58 140 10 24 31
70 46 103 40 90 134 357 165 470 15 56 35 156 45 223 15 105 15 138 5 244 -13
133 -42 297 -66 362 -8 23 -22 61 -30 86 -28 81 -136 293 -200 390 -94 143
-120 172 -224 249 -52 39 -99 74 -105 78 -5 5 -42 31 -81 60 -65 46 -89 62
-188 115 -64 34 -166 50 -366 55 -226 6 -354 -10 -545 -71 -141 -44 -189 -65
-294 -128 -153 -92 -219 -147 -328 -273 -90 -105 -203 -256 -203 -272 0 -3
-18 -32 -40 -64 -22 -32 -40 -61 -40 -63 0 -2 -22 -40 -49 -83 -50 -82 -272
-521 -342 -678 -22 -49 -54 -133 -70 -185 -30 -92 -48 -142 -75 -205 -7 -16
-54 -129 -104 -250 -163 -389 -255 -575 -362 -735 -248 -370 -487 -678 -685
-884 -65 -68 -138 -145 -162 -172 -25 -27 -73 -80 -107 -117 -129 -139 -379
-490 -428 -599 -13 -29 -39 -87 -58 -128 -85 -180 -98 -250 -74 -397 16 -103
26 -143 48 -189 8 -16 0 -45 -37 -134 -41 -99 -87 -229 -230 -655 -20 -60 -55
-162 -77 -225 -22 -63 -66 -189 -98 -280 -31 -91 -73 -205 -92 -255 -49 -123
-96 -285 -142 -485 -15 -63 -31 -128 -37 -145 -6 -16 -13 -88 -15 -160 l-4
-130 15 60 c8 33 31 128 50 210 20 83 60 224 90 315 30 91 65 203 79 250 14
47 41 130 62 185 20 55 83 235 139 400 57 165 122 352 145 415 23 63 59 162
80 220 21 58 52 139 70 180 37 89 43 103 110 290 29 80 63 183 75 230 43 155
65 224 72 231 14 13 162 28 393 39 124 6 236 13 250 15 14 3 61 10 105 15 103
13 261 62 350 108 81 43 172 129 199 190 10 23 23 42 28 42 11 0 10 -11 -6
-58 -12 -34 -39 -186 -91 -517 -8 -49 -19 -137 -25 -195 -6 -58 -15 -136 -21
-175 -41 -291 -69 -1269 -51 -1835 11 -347 36 -719 62 -900 10 -77 70 -556 70
-566 0 -3 -14 -4 -32 -2 -48 5 -67 39 -79 146 -18 167 -120 430 -212 549 -62
81 -164 184 -217 221 -25 17 -58 43 -75 58 -27 24 -55 46 -170 135 -19 15 -64
53 -101 85 -61 54 -91 84 -185 184 -33 36 -123 157 -148 200 -8 14 -35 58 -59
99 -91 149 -128 292 -102 385 9 35 17 45 37 49 45 8 91 -13 152 -68 32 -30 62
-55 66 -55 13 0 -6 52 -32 86 -32 43 -121 94 -163 94 -74 0 -129 -79 -130
-186 0 -173 173 -488 385 -699 81 -81 151 -143 205 -185 25 -19 47 -37 50 -40
3 -3 32 -25 65 -50 119 -90 211 -166 262 -217 134 -136 245 -349 297 -571 17
-75 8 -73 -56 11 -128 171 -233 307 -271 351 -23 27 -57 75 -76 105 -121 201
-253 318 -409 363 -47 14 -113 21 -222 25 -140 5 -162 3 -227 -16 -125 -37
-267 -126 -371 -230 -130 -130 -233 -312 -281 -495 -48 -182 -37 -489 29 -809
5 -27 12 -52 15 -57 2 -4 16 -48 29 -96 13 -49 45 -161 71 -249 26 -88 63
-212 81 -275 19 -63 47 -158 64 -210 16 -52 47 -151 69 -220 84 -266 133 -473
157 -668 11 -86 23 -69 18 25 -9 169 -14 217 -28 282 -8 36 -22 102 -31 146
-10 44 -28 112 -40 150 -58 179 -76 235 -94 305 -21 80 -106 383 -145 515 -70
238 -161 671 -171 815 -10 152 18 334 66 440 44 96 64 135 72 138 4 2 7 8 7
14 0 17 79 129 124 176 72 76 202 171 288 211 69 32 103 41 194 51 236 27 414
-30 572 -183 46 -44 122 -158 122 -181 0 -4 -19 7 -41 26 -74 59 -115 85 -205
128 -113 54 -172 70 -255 71 -72 0 -115 -14 -219 -70 -188 -101 -417 -369
-485 -567 -11 -34 -19 -113 -16 -178 1 -28 31 0 31 29 0 37 30 146 53 190 20
41 67 116 78 125 3 3 19 25 36 50 73 107 313 302 412 335 28 9 66 15 86 13
l37 -3 -55 -28 c-64 -34 -206 -161 -238 -215 -13 -20 -26 -39 -30 -42 -11 -9
-129 -192 -129 -201 0 -5 -9 -28 -19 -52 -49 -107 -78 -204 -106 -352 -20
-107 -20 -410 0 -523 20 -115 92 -397 110 -432 8 -15 24 -55 36 -87 36 -97 40
-83 9 33 -15 60 -38 159 -50 219 -12 61 -26 127 -31 148 -18 67 -39 289 -39
412 0 219 43 402 137 590 59 116 166 268 231 326 160 143 265 186 367 153 27
-10 87 -38 133 -63 122 -67 245 -193 557 -575 27 -34 53 -62 57 -64 4 -2 8
-10 8 -17 0 -8 -22 -17 -58 -23 -76 -14 -239 -102 -306 -167 -102 -98 -160
-210 -234 -450 -17 -55 -38 -129 -46 -165 -20 -83 -96 -492 -136 -725 -17 -99
-46 -263 -65 -365 -18 -102 -41 -230 -50 -285 -8 -55 -22 -131 -30 -170 -7
-38 -23 -122 -34 -185 -11 -63 -30 -164 -41 -225 -18 -99 -33 -197 -90 -585
-33 -229 -68 -494 -80 -605 -6 -60 -15 -137 -20 -170 -5 -33 -17 -114 -26
-180 -9 -66 -18 -122 -20 -124 -2 -2 -8 9 -14 25 -6 16 -22 56 -35 89 -40 103
-91 263 -150 465 -30 107 -71 240 -89 295 -139 417 -173 530 -231 775 -7 30
-26 109 -43 175 -17 66 -37 147 -45 180 -8 33 -38 150 -66 260 -46 181 -79
321 -127 551 -9 43 -22 138 -29 209 l-13 130 3 -220 c2 -192 6 -236 29 -345
14 -69 32 -156 40 -195 51 -248 82 -373 173 -700 14 -49 38 -135 53 -190 15
-55 35 -127 45 -160 9 -33 28 -105 41 -160 12 -55 48 -185 79 -290 31 -104 63
-212 70 -240 8 -27 39 -117 69 -200 31 -82 73 -199 95 -260 22 -60 54 -144 72
-185 49 -117 49 -121 32 -248 -27 -205 -6 -373 59 -481 34 -56 100 -141 158
-201 37 -39 55 -67 61 -95 4 -22 8 -127 9 -232 l0 -193 25 0 25 0 1 108 c1 59
4 147 8 195 l6 89 70 -52 c159 -120 374 -234 586 -311 72 -26 91 -29 202 -28
137 0 135 4 -23 46 -91 24 -170 51 -325 113 -77 30 -207 105 -336 192 -91 61
-279 238 -279 262 0 8 -6 19 -14 23 -28 16 -58 95 -63 167 l-5 71 40 23 c22
12 59 29 82 37 41 14 306 80 388 96 93 18 310 94 381 133 41 23 107 72 147
109 60 56 81 84 113 150 69 147 93 313 67 477 -8 52 -24 151 -35 220 -12 69
-28 172 -36 230 -18 122 -49 489 -42 497 3 3 34 -17 69 -44 62 -47 128 -91
198 -130 34 -19 35 -22 57 -134 12 -63 33 -163 46 -224 73 -322 58 -269 165
-590 50 -148 95 -283 101 -300 6 -16 19 -57 30 -90 32 -98 63 -176 179 -455
159 -383 202 -478 284 -636 40 -77 84 -164 98 -192 22 -46 28 -52 58 -52 l32
0 0 58 c0 31 -5 86 -10 122 -34 241 -57 840 -70 1880 -8 646 -15 836 -30 845
-19 12 -33 -1002 -20 -1405 6 -168 17 -519 26 -780 8 -261 18 -490 21 -508 3
-17 1 -32 -4 -32 -11 0 -91 156 -154 300 -22 52 -49 113 -60 135 -25 56 -72
176 -130 334 -28 74 -74 192 -104 262 -59 141 -119 306 -161 444 -15 50 -46
151 -70 225 -24 74 -50 164 -59 200 -9 36 -25 90 -36 121 -23 62 -98 426 -90
434 2 3 19 5 36 5 155 0 238 132 335 535 23 94 47 190 55 215 7 25 23 82 35
128 13 47 28 82 35 82 7 0 20 -16 30 -36 16 -33 16 -58 0 -402 -13 -284 -15
-472 -11 -827 4 -253 9 -479 12 -503 11 -73 21 -55 20 36 -1 92 20 938 29
1207 7 185 23 356 35 368 4 5 30 -21 56 -58 27 -37 65 -86 84 -109 20 -22 47
-57 61 -76 44 -59 129 -139 188 -177 78 -50 266 -141 307 -149 19 -3 34 -11
35 -18 1 -13 1 -70 -11 -891 -7 -560 -3 -785 14 -803 3 -3 6 30 7 74 1 43 3
97 5 119 5 65 31 731 32 850 3 220 13 551 18 598 l6 47 63 0 c48 0 78 -7 126
-29 35 -16 72 -31 82 -35 14 -4 16 -13 11 -48 -4 -24 -10 -50 -14 -58 -12 -25
-59 -284 -80 -435 -4 -33 -18 -127 -29 -210 -24 -170 -30 -212 -66 -485 -14
-107 -32 -238 -40 -290 -8 -52 -19 -158 -25 -235 -6 -77 -15 -192 -20 -255
-13 -158 -21 -370 -24 -587 l-1 -183 36 0 36 0 8 247 c20 593 35 816 70 1053
7 52 19 154 25 225 27 317 76 657 126 875 13 58 35 159 49 224 13 66 28 123
32 127 5 5 22 5 38 1 l30 -8 -3 -70 c-2 -38 -13 -127 -24 -199 -23 -152 -34
-385 -23 -509 4 -48 8 -86 10 -84 2 2 6 82 9 178 7 178 14 239 64 525 25 145
30 160 48 157 48 -7 75 -4 92 11 10 9 30 17 44 17 25 0 26 -1 32 -98 7 -98 31
-302 42 -357 43 -219 119 -448 175 -531 39 -57 95 -104 125 -104 83 0 142 198
128 433 -4 59 -11 107 -15 107 -5 0 -9 -53 -9 -117 0 -124 -25 -279 -51 -320
-34 -55 -119 -3 -169 102 -64 135 -108 316 -145 595 -26 202 -32 290 -22 307
10 16 102 27 124 15 31 -17 191 4 281 37 46 16 84 25 87 20 4 -5 8 -244 11
-532 4 -457 13 -783 30 -1062 8 -135 23 -777 25 -1030 1 -225 2 -237 15 -190
40 144 53 832 20 1125 -12 114 -19 305 -26 725 -5 314 -12 669 -15 790 l-7
220 54 66 c29 36 69 97 88 135 19 38 36 71 37 73 4 6 66 10 85 5 12 -4 20 -25
28 -77 7 -39 29 -132 50 -207 52 -191 161 -727 225 -1105 10 -55 21 -116 25
-135 5 -19 18 -100 30 -180 11 -80 25 -158 30 -175 16 -48 2 179 -20 345 -44
317 -210 1213 -264 1424 -14 54 -24 101 -21 105 2 5 57 11 122 15 65 4 168 11
228 15 61 4 115 6 120 4 6 -2 11 -16 12 -31 1 -15 7 -67 13 -117 26 -226 43
-1175 28 -1560 -8 -215 8 -111 38 243 18 220 21 914 4 1127 -19 250 -23 342
-14 348 5 3 35 8 67 12 56 7 57 7 57 -17 0 -31 38 -254 89 -523 22 -115 42
-230 45 -255 3 -25 17 -142 31 -260 14 -118 30 -244 35 -280 18 -114 39 -339
50 -525 6 -99 20 -259 32 -355 11 -96 24 -211 28 -255 3 -44 19 -234 35 -423
16 -188 33 -342 37 -342 4 0 8 15 8 33 -1 91 -30 606 -39 678 -35 277 -51 441
-56 574 -10 248 -25 479 -45 685 -24 240 -20 204 -76 570 -21 137 -51 305 -84
465 -16 77 -30 162 -32 190 l-3 50 139 21 c94 14 139 17 142 10 2 -6 13 -76
24 -156 12 -80 23 -152 25 -160 14 -47 58 -439 71 -623 3 -53 11 -100 17 -104
7 -4 8 25 3 93 -4 54 -11 180 -16 279 -6 99 -19 258 -30 353 -11 95 -20 192
-20 215 -1 23 -7 59 -14 80 -8 22 -10 40 -4 43 23 15 180 40 184 30 55 -168
119 -801 133 -1322 5 -184 5 -373 0 -429 -38 -441 -48 -653 -50 -1030 -2 -579
-4 -545 25 -545 l25 0 -5 338 c-3 236 0 409 10 577 45 719 53 968 37 1195 -7
91 -16 246 -21 344 -15 305 -46 579 -85 770 -9 43 24 -11 64 -105 99 -232 135
-507 146 -1114 3 -170 10 -353 15 -405 5 -52 14 -169 20 -260 12 -191 22 -298
56 -580 32 -262 55 -542 63 -742 1 -15 10 -18 47 -18 l46 0 -6 33 c-3 17 -12
100 -21 182 -17 163 -36 324 -59 505 -8 63 -17 147 -21 185 -3 39 -13 122 -21
185 -23 188 -35 393 -45 790 -5 206 -12 398 -14 425 -2 28 -6 97 -10 155 -9
145 -59 435 -95 553 -37 118 -90 236 -135 298 -29 40 -33 55 -32 100 1 57 -28
130 -59 147 -12 7 -15 17 -9 40 3 18 10 34 15 37 4 3 24 -15 44 -39 59 -73
175 -187 270 -266 48 -41 120 -103 160 -138 39 -35 103 -85 143 -110 70 -46
71 -48 77 -97 4 -27 13 -351 21 -720 9 -369 20 -706 25 -750 5 -44 14 -165 20
-270 14 -272 43 -542 61 -575 16 -31 21 20 10 117 -5 54 -13 150 -16 213 -3
63 -10 165 -16 225 -16 187 -28 527 -30 815 0 151 -5 423 -11 603 -5 181 -8
331 -5 333 8 9 37 -8 37 -22 0 -29 40 -93 72 -115 18 -13 35 -26 38 -29 8 -10
128 -90 135 -90 3 0 24 -12 46 -27 l41 -27 -5 -226 c-3 -124 -11 -405 -19
-625 -15 -451 -17 -1394 -4 -1647 l8 -168 25 0 24 0 -6 198 c-11 406 -12 646
-5 957 5 176 13 568 19 870 6 303 13 565 16 583 l6 33 48 -7 c95 -12 198 60
341 240 30 38 64 84 75 102 11 18 61 92 110 166 50 73 100 149 112 169 13 24
30 38 49 42 16 3 44 20 62 37 19 16 38 28 43 25 5 -4 9 -25 9 -48 0 -23 6
-107 15 -187 19 -196 35 -602 35 -902 0 -257 13 -331 23 -135 8 139 2 1161 -7
1175 -3 6 -3 17 0 26 5 13 10 13 27 4 14 -7 61 -9 148 -4 145 7 153 3 163 -74
34 -266 38 -323 38 -528 1 -122 3 -220 6 -217 9 9 22 97 33 220 10 113 6 346
-7 498 l-7 67 71 0 c39 0 73 -4 77 -9 11 -19 119 -43 165 -37 130 18 290 112
474 278 11 10 23 18 26 18 3 0 12 -40 19 -89 13 -83 12 -94 -7 -152 -47 -152
-188 -465 -228 -510 -8 -8 -14 -18 -14 -21 0 -4 -17 -37 -39 -75 -21 -37 -49
-88 -63 -113 -14 -25 -35 -61 -46 -80 -12 -19 -31 -51 -42 -70 -25 -43 -134
-195 -150 -210 -3 -3 -17 -21 -30 -40 -13 -19 -27 -37 -30 -40 -3 -3 -17 -21
-30 -40 -13 -19 -74 -87 -136 -150 -61 -63 -129 -135 -150 -159 -21 -24 -68
-73 -104 -110 -95 -96 -279 -297 -330 -361 -25 -30 -47 -57 -51 -60 -3 -3 -24
-32 -47 -65 -23 -33 -55 -79 -71 -102 -61 -86 -121 -198 -162 -302 -23 -58
-47 -113 -54 -121 -6 -8 -18 -47 -25 -87 -27 -150 13 -275 121 -379 73 -69
142 -124 157 -124 6 0 12 -5 14 -10 2 -6 45 -28 96 -50 92 -40 93 -40 215 -39
l122 1 -95 23 c-182 45 -362 138 -459 237 -59 61 -104 158 -109 236 -6 85 20
182 59 220 72 71 257 133 489 166 190 27 365 29 748 10 403 -19 458 -17 737
32 193 34 215 37 215 31 0 -3 -5 -18 -11 -34 -6 -15 -16 -55 -23 -88 -8 -33
-24 -96 -36 -140 -38 -139 -168 -632 -177 -672 -4 -19 -1 -23 20 -23 15 0 27
7 30 17 2 10 33 117 67 238 34 121 77 281 95 355 18 74 47 190 66 256 l34 122
110 36 c60 20 116 37 124 39 17 2 51 -264 70 -548 11 -168 27 -360 37 -462 5
-48 8 -53 30 -53 38 0 37 22 -30 794 -14 159 -23 292 -21 296 3 4 26 13 52 20
115 28 477 188 553 243 41 30 130 139 138 170 6 21 6 68 1 118 -9 89 -30 334
-49 559 l-11 135 54 165 c52 157 145 449 188 590 11 36 43 128 70 204 46 129
120 373 168 556 10 41 48 176 84 300 36 124 68 245 72 270 4 25 15 79 26 120
24 91 86 470 93 560 3 36 10 234 17 440 10 295 10 409 0 535 -14 190 -54 478
-82 589 -23 91 -76 228 -113 291 -60 102 -237 216 -391 251 -107 25 -338 25
-440 -1 -117 -29 -247 -97 -352 -184 -84 -69 -38 -71 57 -2 161 117 259 144
525 145 l180 1 95 -39 c107 -44 163 -83 227 -157 105 -123 156 -256 187 -485
9 -65 21 -150 26 -189 16 -113 30 -432 30 -681 0 -336 -47 -819 -100 -1019
-10 -38 -30 -122 -45 -185 -51 -221 -160 -598 -240 -830 -26 -74 -51 -151 -57
-170 -5 -19 -38 -120 -73 -225 -69 -208 -128 -398 -169 -545 -15 -52 -31 -99
-36 -104 -15 -15 -13 331 6 1012 16 615 14 1277 -5 1482 -6 63 -15 182 -21
263 -6 81 -18 182 -27 225 -8 42 -19 97 -24 122 -43 214 -163 435 -287 534
-48 37 -146 82 -198 90 -66 11 -223 9 -294 -4 -109 -19 -242 -61 -297 -92 -61
-34 -163 -115 -163 -129 0 -15 25 -10 46 8 68 62 208 118 369 150 122 23 310
14 392 -20 92 -38 169 -94 211 -153 34 -50 120 -268 152 -389 29 -110 59 -321
80 -575 15 -175 14 -1689 -1 -2165 -8 -256 -8 -380 0 -460 7 -60 16 -191 21
-290 5 -99 14 -224 20 -279 5 -54 10 -99 10 -101 0 -1 -29 13 -65 32 -35 18
-95 44 -132 57 -256 89 -564 282 -594 373 -19 59 -5 687 20 895 25 207 56 441
76 573 56 377 79 709 59 864 -15 110 -57 239 -116 355 -80 156 -236 276 -436
335 -81 25 -241 30 -312 11 -207 -54 -283 -98 -456 -266 -185 -180 -234 -213
-411 -275 -97 -34 -106 -34 -199 -10 -102 28 -146 53 -223 129 -77 76 -113
143 -130 243 -32 186 4 331 137 556 38 65 97 168 132 228 34 61 77 135 95 165
57 100 205 411 235 495 22 62 67 167 110 260 63 135 191 461 220 560 16 55 55
177 86 270 139 421 176 560 225 845 11 63 26 144 34 180 23 106 75 428 85 525
5 50 21 176 35 280 42 313 47 400 48 890 2 375 -1 508 -15 660 -10 105 -23
268 -29 364 -7 117 -22 230 -44 345 -69 351 -119 495 -236 670 -21 32 -39 60
-39 62 0 22 121 -37 194 -94 62 -48 166 -151 166 -165 0 -4 11 -25 25 -47 24
-37 100 -246 130 -355 8 -27 22 -81 33 -120 124 -447 155 -836 133 -1674 -11
-433 -20 -558 -47 -681 -8 -36 -14 -77 -14 -91 0 -25 -12 -106 -51 -334 -53
-317 -186 -793 -264 -945 -12 -25 -35 -81 -50 -125 -14 -44 -62 -153 -106
-243 -43 -90 -79 -165 -79 -167 0 -2 -18 -43 -40 -90 -22 -47 -40 -90 -40 -96
0 -5 -4 -9 -8 -9 -4 0 -13 -12 -19 -27 -7 -16 -43 -86 -82 -158 -38 -71 -122
-233 -186 -360 -99 -196 -116 -239 -122 -292 -5 -53 -3 -65 16 -92 27 -37 61
-40 111 -10 101 62 205 246 290 512 36 113 -24 33 -70 -93 -52 -144 -140 -297
-203 -352 -54 -48 -93 -24 -82 50 11 71 63 181 284 592 119 223 300 600 429
895 31 72 120 334 141 415 6 25 31 119 55 210 72 270 138 610 175 905 62 484
37 1566 -45 1980 -18 89 -60 261 -100 405 -24 88 -46 155 -89 270 -30 82 -79
164 -134 222 -50 55 -61 88 -29 88 36 0 142 -83 308 -240 74 -71 160 -145 190
-165 75 -49 107 -87 146 -171 53 -112 81 -213 104 -361 11 -76 23 -145 25
-153 25 -83 64 -514 71 -780 8 -304 -20 -851 -56 -1090 -6 -36 -17 -116 -25
-179 -15 -107 -56 -325 -89 -466 -56 -243 -99 -420 -116 -475 -162 -542 -273
-849 -385 -1065 -45 -88 -93 -176 -106 -196 -32 -49 -77 -121 -116 -185 -32
-54 -178 -254 -293 -403 -36 -46 -83 -107 -104 -135 -119 -154 -140 -181 -146
-186 -3 -3 -48 -57 -100 -120 -51 -63 -123 -149 -160 -190 -280 -314 -419
-625 -353 -792 33 -86 105 -153 155 -146 33 5 33 27 1 39 -70 26 -122 110
-123 195 0 50 38 189 68 249 16 32 102 167 112 175 3 3 17 21 30 40 13 19 27
37 30 40 3 3 17 21 30 40 13 19 27 37 30 40 4 3 17 21 31 41 33 49 97 126 140
169 19 19 64 69 100 110 35 41 71 82 80 90 76 72 239 276 299 375 24 38 43 64
66 89 6 6 16 22 23 34 6 12 47 73 90 135 43 61 95 144 116 182 20 39 41 75 47
82 25 31 124 230 176 353 68 165 202 531 232 640 10 36 26 90 35 120 9 30 32
111 51 180 18 69 38 136 45 150 11 24 26 89 69 290 10 47 30 135 45 195 90
367 145 1098 124 1645 -5 135 -14 279 -19 320 -6 41 -17 140 -25 220 -8 80
-19 170 -25 200 -5 30 -21 117 -35 193 -14 75 -34 164 -44 197 -11 36 -15 60
-9 60 6 0 31 -15 57 -33 25 -18 71 -47 101 -64 276 -151 458 -312 586 -518
135 -216 192 -352 219 -521 9 -55 20 -115 26 -134 5 -19 11 -53 13 -75 2 -22
11 -83 19 -135 16 -99 33 -260 42 -390 16 -238 26 -363 35 -434 6 -45 18 -135
26 -201 9 -66 24 -178 35 -250 10 -71 28 -197 39 -280 10 -82 26 -188 35 -235
9 -47 25 -134 36 -195 11 -60 31 -153 45 -205 29 -115 30 -135 7 -125 -106 45
-257 85 -318 85 -27 0 -35 9 -82 89 -29 49 -53 91 -53 94 0 3 -25 57 -55 120
-30 63 -55 119 -55 126 0 6 -12 40 -26 74 -66 156 -206 569 -229 676 -8 36
-33 134 -55 216 -92 344 -159 864 -160 1233 0 110 -2 132 -15 132 -25 0 -28
-45 -22 -289 6 -220 42 -580 77 -771 85 -461 108 -560 184 -785 77 -228 163
-460 190 -514 13 -25 40 -85 59 -132 20 -48 59 -125 86 -172 28 -47 51 -90 51
-96 0 -6 -12 -11 -26 -11 -60 0 -233 -44 -308 -78 -95 -43 -185 -94 -241 -136
-82 -63 -221 -182 -245 -211 -14 -16 -46 -52 -72 -79 -53 -55 -54 -56 -34 -56
8 0 38 25 67 56 64 66 203 186 277 238 153 107 403 203 554 214 149 10 346
-33 481 -105 165 -88 237 -214 238 -417 1 -111 -2 -127 -38 -234 -30 -92 -44
-122 -55 -122 -14 0 -9 29 12 69 23 47 42 184 33 249 -14 104 -122 237 -234
290 -140 66 -241 83 -417 71 -295 -21 -511 -148 -729 -429 -61 -80 -117 -158
-124 -175 -2 -5 -14 -26 -26 -45 -24 -38 -235 -465 -270 -545 -21 -49 -58
-149 -70 -190 -10 -36 67 97 157 270 48 94 100 193 115 220 15 28 45 84 67
125 23 41 55 95 71 120 17 25 49 72 71 106 80 119 235 287 317 342 96 65 288
134 419 151 84 11 192 1 300 -27 121 -32 224 -116 272 -222 28 -61 30 -71 25
-160 -3 -52 -11 -112 -19 -133 l-13 -38 -90 64 c-50 34 -115 77 -145 93 -30
17 -77 43 -103 58 -27 15 -72 36 -100 46 -136 47 -145 61 -72 112 65 46 55 65
-18 34 -52 -22 -71 -49 -64 -93 8 -49 24 -63 142 -122 55 -28 123 -64 150 -81
28 -17 79 -45 115 -64 60 -31 210 -165 265 -236 58 -74 120 -236 132 -342 3
-32 10 -58 16 -58 15 0 -2 146 -30 240 -27 96 -48 143 -94 214 l-32 49 31 57
c51 92 73 174 79 290 11 223 -54 397 -177 475 -34 21 -38 30 -74 161 -40 144
-68 273 -85 384 -40 268 -73 515 -91 685 -12 110 -28 246 -35 301 -8 56 -21
207 -30 335 -36 535 -67 757 -131 947 -20 59 -42 121 -49 137 -7 17 -16 41
-20 55 -14 48 -107 225 -144 275 -21 28 -58 79 -83 115 -57 80 -151 173 -243
240 -115 83 -256 175 -320 209 -70 37 -272 185 -298 218 -10 13 -49 44 -85 70
-66 46 -95 74 -217 202 -75 79 -144 135 -209 168 -44 22 -58 25 -113 19 -61
-6 -66 -5 -128 33 -36 21 -81 42 -100 45 -42 8 -43 15 -10 54 45 53 69 121 69
193 0 59 -5 76 -47 161 -48 96 -74 198 -62 246 3 13 22 58 41 100 123 267 114
380 -45 556 -43 48 -49 59 -55 115 -10 85 -40 177 -75 229 -29 42 -40 68 -116
277 -43 120 -96 226 -137 279 -35 44 -45 69 -82 207 -33 126 -63 206 -90 237
-27 33 -93 107 -128 145 -14 15 -42 60 -62 100 -20 40 -54 105 -76 145 -40 71
-41 72 -80 72 -44 0 -46 -2 -27 -22 27 -28 76 -106 108 -173 49 -105 93 -174
148 -235 57 -63 131 -206 156 -300 21 -79 70 -202 102 -252 13 -21 23 -42 23
-48 0 -5 4 -10 8 -10 12 0 96 -180 117 -250 36 -115 57 -167 91 -218 48 -73
56 -96 64 -179 7 -70 7 -72 70 -140 34 -37 69 -83 77 -102 39 -91 21 -276 -34
-364 -41 -66 -63 -150 -63 -248 0 -48 4 -99 10 -113 5 -14 35 -53 66 -87 54
-59 56 -63 51 -106 -5 -48 -61 -170 -101 -218 l-24 -30 -64 68 c-36 37 -98
104 -137 149 l-73 83 5 95 c5 111 36 208 114 365 87 173 97 212 96 355 -1 136
-14 193 -71 306 -25 49 -99 133 -175 199 -27 23 -87 44 -347 117 -68 20 -165
61 -197 85 -33 24 -52 17 -32 -14 20 -33 85 -72 155 -93 71 -22 198 -60 269
-81 102 -30 178 -94 268 -226 57 -84 72 -142 71 -263 -1 -59 -9 -136 -18 -175
-14 -57 -66 -182 -107 -255 -47 -84 -79 -187 -79 -257 0 -23 -4 -44 -9 -47
-23 -15 -147 204 -189 334 -31 93 -52 201 -61 309 l-8 94 33 44 c30 39 54 97
54 131 0 17 5 16 50 -13 54 -34 94 -77 136 -146 62 -103 76 -143 73 -219 -1
-39 1 -73 4 -76 12 -13 29 52 30 116 1 57 -4 78 -43 165 -28 61 -59 114 -81
135 -60 59 -162 106 -330 150 -218 58 -327 113 -439 222 -95 92 -162 178 -217
277 -20 36 -61 106 -90 155 -29 49 -53 94 -53 100 -1 31 -154 298 -195 338
-38 38 -167 78 -251 78 l-64 0 -31 65 c-22 47 -36 65 -50 65 -22 0 -24 -8 -5
-29 7 -9 21 -37 31 -63 21 -56 17 -101 -14 -172 -21 -48 -22 -49 -60 -43 -21
2 -60 20 -87 39 -113 80 -202 88 -359 33 -156 -55 -225 -46 -289 38 -47 62
-32 90 104 197 44 35 80 67 80 70 0 4 10 18 23 32 12 13 41 49 64 79 39 51 57
72 127 147 l30 32 -41 0 c-39 0 -46 -5 -109 -75z m720 -495 c49 -11 101 -27
115 -36 58 -39 107 -114 206 -321 75 -155 192 -343 260 -417 19 -21 35 -41 35
-45 0 -3 11 -19 25 -34 24 -25 25 -29 10 -49 -11 -17 -15 -49 -15 -127 0 -115
18 -205 57 -289 31 -65 63 -193 63 -249 0 -65 -23 -183 -35 -183 -6 0 -39 11
-72 24 -154 60 -488 104 -620 82 l-52 -8 11 30 c16 40 -4 86 -50 117 -39 26
-53 26 -31 -1 13 -16 12 -17 -8 -12 -36 9 -27 -10 12 -26 19 -8 38 -22 42 -31
10 -27 -30 -68 -93 -95 -32 -14 -81 -38 -107 -54 -50 -30 -91 -36 -109 -18 -7
7 -15 73 -19 149 -9 178 -26 257 -80 378 -29 66 -86 155 -99 155 -16 0 -12
-30 9 -58 81 -116 112 -242 127 -516 6 -115 25 -166 66 -180 23 -8 36 -3 90
32 36 23 68 42 72 42 4 0 -2 -15 -13 -32 -34 -51 -68 -131 -76 -177 -12 -70
-5 -72 -187 68 -141 108 -145 114 -158 195 -6 39 -18 99 -26 133 -21 92 -21
91 34 85 43 -4 50 -1 80 29 29 29 52 81 52 117 0 19 -18 14 -25 -8 -7 -21 -30
-27 -40 -10 -3 6 -20 10 -37 10 -25 0 -28 3 -19 14 7 8 23 17 36 20 34 9 32
26 -3 26 -29 0 -59 -17 -104 -58 -32 -29 -43 -26 -29 9 15 38 60 79 110 101
40 17 44 21 28 30 -10 5 -29 7 -41 4 -24 -6 -112 -86 -133 -121 -8 -14 -14
-16 -20 -9 -4 6 -30 29 -58 49 -52 40 -85 73 -85 85 0 4 10 10 23 13 12 3 51
15 87 28 36 12 85 29 109 38 73 25 101 70 64 104 -28 24 -132 36 -178 20 -49
-17 -71 -37 -105 -96 -15 -27 -30 -45 -33 -39 -4 5 -6 119 -5 253 1 134 0 250
-3 257 -2 8 22 21 70 38 41 14 88 36 104 50 83 70 212 103 275 70 46 -24 118
-32 138 -16 33 28 48 74 48 145 -1 74 -13 109 -60 164 -33 40 -27 48 17 22 43
-24 91 -34 127 -26 36 7 78 70 87 130 7 53 9 54 139 25z m-549 -90 c6 -4 24
-11 42 -14 38 -9 125 -97 147 -151 19 -44 21 -132 4 -137 -6 -2 -48 4 -92 15
-51 12 -95 16 -121 12 -54 -8 -147 -53 -215 -104 -55 -42 -130 -71 -184 -71
-53 0 -82 -45 -52 -79 17 -20 30 -61 19 -61 -9 0 -53 65 -53 78 0 5 -9 17 -21
28 -28 25 -59 87 -59 117 0 14 7 44 15 68 9 24 20 64 26 89 12 53 58 178 68
184 4 3 25 -1 46 -8 49 -17 103 -10 185 25 60 26 72 28 150 23 47 -3 90 -10
95 -14z m-2470 -375 c33 -9 91 -32 129 -51 71 -36 180 -113 172 -121 -3 -3
-49 3 -103 13 -78 15 -146 19 -338 19 -239 0 -241 0 -370 -33 -211 -53 -387
-133 -505 -228 -226 -184 -310 -261 -425 -394 -135 -155 -327 -458 -413 -650
-47 -105 -166 -420 -217 -575 -84 -255 -154 -452 -193 -545 -22 -52 -54 -129
-70 -170 -17 -41 -60 -140 -95 -220 -35 -80 -72 -169 -82 -197 -10 -29 -23
-53 -27 -53 -4 0 -8 -7 -8 -15 0 -8 -18 -52 -39 -97 -56 -120 -91 -197 -109
-243 -8 -22 -19 -44 -23 -50 -4 -5 -35 -64 -69 -130 -35 -66 -74 -137 -86
-157 -13 -21 -24 -39 -24 -41 0 -2 -35 -64 -79 -138 -69 -118 -112 -184 -255
-385 -20 -27 -63 -80 -96 -118 -33 -37 -60 -73 -60 -80 0 -20 169 20 260 62
257 119 355 151 420 137 24 -5 30 -12 30 -31 0 -26 -15 -60 -34 -79 -37 -38
-144 -106 -200 -129 -182 -72 -316 -94 -616 -101 -135 -4 -263 -10 -285 -15
-148 -32 -193 -44 -215 -55 -14 -7 -35 -16 -48 -19 l-22 -7 20 53 c72 183 179
344 380 568 42 47 109 125 150 175 41 49 94 110 116 135 272 297 617 742 832
1073 54 83 153 273 199 382 63 148 128 307 159 390 19 50 38 99 43 110 31 67
156 370 173 420 12 33 38 94 59 136 21 42 47 99 58 125 17 44 52 121 129 284
14 30 33 66 42 80 9 14 35 52 57 85 22 33 48 76 58 95 17 33 141 210 154 220
4 3 29 34 56 69 122 161 303 311 470 391 77 37 231 88 304 102 31 6 76 14 101
18 81 15 467 4 535 -15z m40 -205 c201 -21 399 -71 490 -124 89 -53 288 -395
373 -642 34 -99 42 -139 47 -220 4 -80 3 -94 -6 -74 -7 14 -28 61 -48 105 -19
44 -52 107 -72 140 -20 33 -40 80 -44 105 -11 70 -81 248 -121 305 -61 89
-101 120 -189 149 -209 67 -470 95 -710 76 -164 -13 -255 -30 -313 -58 -125
-62 -296 -171 -387 -246 -27 -23 -61 -50 -75 -61 -103 -83 -323 -310 -456
-470 -71 -86 -71 -86 -109 -140 -79 -112 -107 -158 -184 -306 -133 -256 -218
-515 -286 -874 -14 -77 -35 -185 -45 -240 -11 -55 -24 -134 -30 -175 -12 -84
-31 -170 -67 -310 -14 -52 -35 -135 -48 -185 -33 -128 -101 -313 -190 -515
-42 -96 -97 -222 -122 -280 -72 -168 -61 -158 -162 -157 -98 0 -124 -8 -367
-118 -80 -37 -148 -64 -151 -61 -3 2 10 26 29 51 18 26 44 64 57 84 13 20 27
38 30 41 25 19 170 258 318 525 32 58 102 200 155 315 63 134 248 557 263 600
7 19 42 96 78 170 89 184 136 311 327 880 43 129 94 273 114 319 74 176 220
422 392 661 39 54 144 177 229 266 47 49 260 217 330 259 17 10 53 33 80 51
70 45 147 75 299 118 142 41 382 56 571 36z m285 -275 c125 -28 139 -35 150
-74 11 -41 13 -75 4 -84 -3 -3 -23 12 -44 33 -20 21 -50 45 -66 53 -39 20
-115 31 -160 23 -48 -10 -39 -32 12 -28 21 1 53 0 71 -3 43 -8 128 -76 164
-133 29 -44 30 -51 24 -117 -4 -38 -8 -72 -10 -73 -2 -2 -18 1 -37 7 -18 6
-66 20 -106 31 -65 19 -79 28 -140 88 -74 74 -146 114 -289 163 -75 25 -102
29 -196 29 -94 0 -115 -3 -143 -21 -19 -11 -34 -27 -34 -35 0 -12 13 -13 78
-7 42 4 118 8 167 8 83 0 96 -3 165 -36 70 -34 172 -103 230 -157 90 -83 131
-106 209 -117 l76 -11 -3 -36 c-3 -47 15 -59 29 -19 9 27 14 30 37 25 60 -14
120 -73 174 -171 30 -54 38 -63 38 -42 0 34 -19 87 -44 124 -30 44 -105 115
-132 125 -21 8 -22 13 -17 67 3 32 6 59 7 60 3 3 73 -61 155 -140 101 -99 122
-132 175 -275 38 -101 6 -249 -113 -527 -28 -65 -58 -141 -67 -167 -32 -96
-44 -59 -23 73 13 86 7 106 -16 54 -31 -73 -44 -149 -45 -265 0 -63 -5 -142
-10 -175 -16 -96 -76 -209 -160 -297 -68 -74 -111 -100 -96 -61 4 9 2 58 -4
108 l-12 90 31 65 c17 36 31 78 31 93 0 45 29 95 93 161 66 69 91 117 101 196
4 30 17 87 28 125 25 81 29 214 9 285 -7 25 -35 90 -61 145 -55 114 -80 192
-80 247 0 44 -7 46 -67 17 -40 -19 -49 -20 -155 -9 -156 15 -227 31 -375 85
-145 53 -261 85 -314 85 -106 0 -198 -34 -306 -113 -97 -72 -203 -117 -275
-117 -29 0 -38 -14 -15 -23 36 -14 157 25 289 93 190 97 279 117 408 89 60
-13 56 -20 -19 -38 -62 -16 -229 -107 -286 -157 -89 -79 -117 -109 -175 -187
-33 -45 -63 -87 -67 -92 -5 -6 -17 -26 -27 -45 -10 -19 -26 -44 -35 -54 -28
-33 -113 -81 -211 -120 -228 -91 -371 -191 -424 -298 -31 -63 -32 -83 -5 -235
44 -257 49 -290 49 -346 0 -92 -31 -164 -120 -285 -44 -59 -92 -131 -106 -160
l-25 -54 15 -77 c9 -43 16 -96 16 -117 0 -137 -106 -300 -266 -410 -59 -40
-166 -94 -188 -94 -6 0 -24 -7 -40 -15 -37 -19 -43 -13 -27 28 7 18 22 58 32
89 13 37 30 63 47 74 44 28 162 145 204 202 86 116 105 200 72 313 -35 117 -3
209 111 319 89 87 125 150 125 224 0 34 -20 107 -65 241 -93 274 -92 288 19
526 44 94 55 100 339 173 250 65 336 101 361 153 23 48 20 70 -11 100 -26 23
-33 25 -95 19 -70 -6 -178 -41 -178 -57 0 -12 6 -11 64 6 27 8 75 15 108 15
57 0 58 -1 58 -27 -1 -33 -25 -65 -66 -86 -28 -14 -193 -62 -304 -87 -30 -7
-86 -24 -124 -37 -38 -12 -71 -21 -74 -18 -9 9 187 288 245 350 16 17 36 40
44 52 27 39 152 167 229 233 41 36 77 68 80 71 3 3 25 20 50 37 25 18 56 41
70 51 196 152 383 242 605 291 55 12 114 26 130 31 45 13 449 0 525 -16z
m3423 1 c7 -17 174 -117 245 -147 47 -19 52 -25 52 -53 1 -37 28 -174 64 -311
44 -173 60 -385 37 -500 -12 -58 -59 -197 -95 -280 -36 -81 -149 -241 -211
-300 -49 -46 -113 -134 -157 -214 -27 -50 -84 -70 -178 -64 -102 7 -141 -6
-181 -63 -57 -79 -83 -71 -217 63 -91 92 -100 104 -132 188 l-35 90 -79 45
c-43 25 -85 55 -93 67 -11 16 -15 51 -15 125 1 57 -3 112 -7 123 -20 52 102
378 162 434 18 16 54 29 119 43 83 17 107 18 223 8 156 -13 216 -24 315 -56
107 -35 169 -66 167 -84 -1 -8 3 -17 8 -20 6 -3 26 40 45 95 31 89 35 111 34
195 -1 80 -7 111 -34 190 -18 52 -41 112 -51 132 -16 31 -19 60 -19 166 0 71
3 132 7 135 10 11 20 8 26 -7z m-3098 -229 c25 -51 49 -112 52 -137 l6 -44
-49 38 c-27 20 -66 44 -86 53 -52 22 -66 59 -43 119 12 32 15 59 11 92 l-6 47
34 -38 c19 -21 55 -80 81 -130z m3538 33 c81 -13 117 -28 117 -49 0 -56 -103
-201 -142 -201 -18 0 -18 1 -52 138 -22 87 -20 142 4 127 3 -2 37 -9 73 -15z
m27 -333 c0 -85 70 -361 121 -473 65 -146 179 -312 318 -464 137 -149 147
-165 161 -245 17 -97 9 -228 -15 -280 -24 -50 -91 -138 -142 -187 -53 -51
-229 -141 -348 -177 -279 -85 -337 -96 -515 -96 -102 0 -181 5 -206 12 -54 17
-206 110 -253 156 -62 60 -158 261 -110 232 5 -3 24 -3 43 0 32 7 66 34 119
99 23 28 27 29 100 27 51 -1 98 4 138 16 60 18 60 18 142 133 102 143 109 153
179 238 102 125 208 325 253 480 47 160 44 291 -9 462 -22 68 -23 77 -9 92 21
23 33 14 33 -25z m-4258 -56 c197 -55 295 -74 364 -68 35 2 71 11 80 18 14 11
18 10 30 -6 8 -10 14 -33 14 -49 0 -17 11 -56 24 -86 55 -129 81 -185 87 -190
12 -9 21 -70 21 -149 0 -82 -32 -223 -57 -258 -13 -17 -15 -17 -27 -1 -18 24
-111 58 -157 58 -71 0 -230 -64 -209 -85 2 -3 24 2 48 10 59 21 91 19 152 -9
67 -31 79 -42 108 -93 23 -42 23 -43 4 -64 -10 -12 -30 -25 -42 -30 -20 -8
-28 -5 -44 16 -11 14 -28 25 -39 25 -26 0 -24 -6 11 -47 29 -33 39 -63 21 -63
-25 0 -92 37 -139 77 -29 25 -54 44 -56 42 -1 -2 -10 -20 -19 -41 -22 -46 -22
-102 0 -138 21 -35 84 -72 120 -69 62 5 66 2 58 -38 -11 -65 -59 -124 -232
-290 -194 -187 -270 -249 -449 -365 -231 -152 -330 -175 -454 -109 -36 19 -86
50 -111 68 -26 18 -49 33 -53 33 -22 0 -122 89 -156 140 -78 115 -112 221
-138 433 -10 83 -20 136 -27 134 -6 -2 -11 -45 -13 -100 -5 -165 48 -378 119
-482 69 -102 217 -219 367 -289 l62 -30 0 -130 c0 -92 6 -165 21 -245 26 -134
19 -169 -41 -234 -58 -64 -141 -102 -217 -100 -171 3 -453 111 -667 254 -124
83 -127 89 -83 165 48 81 59 140 53 269 -4 104 9 187 35 219 33 40 145 217
170 269 25 54 29 73 28 147 0 47 -6 119 -14 160 -35 183 -46 289 -36 342 26
140 82 192 296 277 135 54 249 118 304 170 27 25 83 98 124 162 140 213 314
346 502 385 95 19 147 16 257 -15z m2458 -322 c35 -34 136 -103 225 -155 64
-37 70 -43 67 -70 -5 -61 -13 -94 -23 -94 -6 0 -64 28 -130 61 -100 51 -127
70 -160 111 -36 46 -39 55 -39 113 0 35 3 71 6 80 6 16 8 16 17 -1 6 -11 22
-31 37 -45z m-1460 -179 c-25 -198 -159 -595 -295 -877 -36 -73 -65 -135 -65
-138 0 -3 -18 -44 -41 -92 -95 -203 -159 -409 -195 -633 -26 -160 -24 -468 5
-625 12 -66 26 -131 31 -145 5 -14 16 -52 25 -85 28 -100 104 -313 141 -391
19 -40 34 -78 34 -84 0 -6 -15 -1 -32 12 -25 17 -49 24 -103 26 -61 3 -77 0
-120 -23 -49 -26 -50 -27 -65 -7 -56 74 -116 161 -137 200 -14 26 -33 61 -43
77 -30 49 -97 242 -120 343 -37 170 -37 308 1 642 13 107 52 274 73 305 8 12
36 46 63 76 98 108 141 165 168 219 15 30 34 59 43 64 8 5 57 46 108 93 90 81
162 171 205 255 28 54 48 156 42 211 -7 55 24 156 92 302 37 79 87 198 114
273 17 45 37 94 45 110 8 15 15 43 17 62 5 64 14 56 17 -15 2 -38 -2 -108 -8
-155z m-2810 -554 c0 -15 37 -141 52 -176 6 -14 19 -63 29 -109 26 -116 14
-168 -56 -246 -57 -64 -113 -142 -139 -192 -33 -66 -34 -134 -2 -224 21 -61
22 -69 9 -120 -8 -30 -28 -78 -46 -108 -37 -63 -172 -209 -182 -199 -4 4 11
74 33 155 53 191 84 328 122 533 17 91 37 194 45 230 7 36 19 97 25 135 22
133 86 349 101 339 5 -3 9 -11 9 -18z m6799 -196 c22 -41 41 -85 41 -98 0 -63
-96 -223 -205 -340 -84 -90 -233 -203 -322 -244 -38 -17 -152 -52 -255 -79
-294 -75 -518 -83 -695 -23 -169 58 -321 183 -396 329 -18 36 -77 240 -77 269
0 12 69 56 88 56 5 0 13 -25 17 -56 29 -238 198 -418 452 -485 66 -17 96 -19
198 -14 170 8 263 22 394 56 130 33 315 104 410 157 85 47 214 173 241 236 34
81 53 182 48 263 -6 88 0 86 61 -27z m-4659 -189 c0 -51 -25 -179 -43 -223
-35 -83 -183 -248 -277 -308 -212 -135 -245 -161 -293 -222 -48 -61 -49 -64
-44 -118 11 -116 70 -221 167 -293 34 -26 69 -51 77 -55 10 -6 13 -26 11 -81
l-3 -72 -140 82 c-221 129 -288 178 -393 289 -49 52 -59 82 -68 205 -7 108 -5
111 91 150 286 116 520 284 779 559 66 69 123 126 128 126 4 0 8 -18 8 -39z
m4779 -93 c61 -185 80 -326 117 -868 3 -41 9 -131 15 -200 5 -69 12 -300 16
-515 5 -318 3 -424 -11 -575 -20 -223 -42 -426 -63 -575 -8 -60 -19 -146 -24
-190 -5 -44 -11 -91 -15 -105 -3 -14 -16 -88 -29 -165 -13 -77 -36 -194 -50
-260 -14 -66 -30 -140 -35 -165 -57 -288 -148 -598 -287 -978 l-38 -104 -45 7
c-25 4 -47 9 -49 11 -2 2 16 73 41 157 60 199 83 288 108 422 20 101 29 163
65 430 21 163 28 262 17 269 -11 7 -13 -1 -47 -211 -71 -439 -91 -540 -140
-713 -51 -178 -101 -327 -115 -343 -4 -4 -47 -3 -96 2 -49 6 -166 11 -260 12
-94 0 -177 4 -184 9 -11 7 -10 32 9 147 12 76 31 181 41 233 21 102 37 269 26
258 -9 -7 -95 -359 -126 -508 -12 -58 -23 -112 -26 -121 -3 -13 -37 -17 -202
-27 -108 -7 -207 -12 -218 -12 -46 0 -71 129 -79 405 -4 110 -9 211 -11 225
-15 68 -24 -29 -26 -271 -2 -202 0 -275 11 -312 8 -26 11 -50 8 -53 -3 -3 -51
-10 -107 -16 l-103 -12 -28 35 c-105 125 -183 316 -296 724 -40 144 -93 444
-93 526 0 33 -6 63 -15 75 -13 17 -14 10 -9 -66 6 -100 29 -298 50 -426 36
-230 235 -829 285 -860 24 -15 -2 -23 -133 -43 -79 -12 -188 -29 -244 -38 -94
-14 -103 -14 -127 1 -27 18 -269 371 -310 453 -42 81 -113 330 -141 488 -65
373 -77 582 -74 1255 3 471 1 547 -14 637 -32 187 -63 243 -134 243 -68 0
-122 -35 -168 -109 -37 -58 -19 -76 19 -21 42 61 71 80 121 80 34 0 47 -5 58
-22 23 -37 44 -117 56 -211 14 -110 14 -517 0 -787 -12 -215 -8 -347 16 -568
l14 -133 -92 -172 c-88 -165 -164 -292 -208 -349 -11 -14 -20 -31 -20 -37 0
-6 -4 -11 -8 -11 -5 0 -14 47 -21 105 -11 102 -25 144 -76 249 -26 52 -25 66
5 66 27 0 84 53 116 107 23 40 27 59 28 128 1 116 -24 167 -111 223 -36 23
-108 55 -159 72 -79 27 -96 36 -112 64 -26 45 -100 102 -141 110 -41 7 -61 22
-61 45 0 19 -55 194 -71 222 -8 15 -4 29 17 65 25 42 26 51 20 121 -9 116 -95
352 -186 512 l-42 73 58 97 c31 53 67 112 79 131 61 97 222 397 281 524 146
317 266 509 360 581 22 16 48 38 59 48 27 26 163 89 260 122 209 71 281 97
290 105 5 4 44 22 85 40 106 46 206 93 433 204 109 53 202 94 207 91 4 -3 10
-19 13 -37 14 -99 73 -246 119 -300 13 -15 35 -42 50 -62 48 -60 192 -166 266
-193 137 -51 215 -64 397 -65 138 -1 188 3 265 20 117 26 238 59 265 71 11 6
54 24 95 42 90 38 123 57 215 123 174 125 253 214 322 362 18 41 38 74 42 74
5 0 23 -42 40 -92z m-5118 -624 c-23 -100 -51 -316 -51 -393 0 -61 -12 -65
-61 -18 -60 56 -117 149 -134 219 -12 48 22 127 79 183 54 53 166 119 179 106
5 -5 -1 -48 -12 -97z m-1728 -398 c79 -64 329 -204 424 -237 154 -54 226 -68
339 -69 74 0 125 5 156 15 50 18 118 76 136 118 6 15 15 27 20 27 9 0 42 -96
42 -122 0 -9 -22 -36 -49 -60 -73 -66 -175 -93 -346 -92 -109 0 -145 4 -220
26 -49 14 -103 29 -119 33 -50 11 -248 113 -309 159 -32 23 -80 64 -107 89
l-49 46 14 48 c8 26 15 49 15 51 0 8 16 -2 53 -32z m1204 -48 c76 -78 119
-194 208 -568 20 -80 46 -188 60 -240 14 -52 36 -144 51 -205 14 -60 43 -175
65 -254 21 -78 52 -211 69 -295 17 -83 50 -225 72 -315 45 -186 49 -165 -40
-218 -50 -30 -57 -26 -67 42 -4 22 -27 123 -51 225 -80 329 -92 383 -119 505
-14 66 -30 136 -36 155 -34 130 -129 533 -129 550 0 12 -13 76 -30 143 -16 67
-34 142 -39 167 -20 94 -63 276 -72 304 -22 71 -9 72 58 4z m-1376 -161 c-40
-154 -56 -223 -130 -567 -22 -102 -44 -205 -50 -230 -5 -25 -13 -70 -16 -100
-4 -30 -15 -100 -26 -155 -19 -100 -33 -204 -88 -645 -48 -380 -51 -438 -52
-800 -2 -651 57 -1186 176 -1595 14 -49 39 -139 55 -200 26 -99 54 -196 125
-440 26 -89 80 -245 118 -345 59 -155 118 -307 127 -325 5 -11 30 -72 55 -135
26 -63 55 -131 65 -150 10 -19 27 -57 38 -85 11 -27 36 -85 56 -127 19 -42 38
-88 42 -102 3 -15 10 -29 15 -32 14 -9 10 -52 -11 -125 -15 -50 -25 -69 -38
-69 -24 0 -197 36 -257 53 -102 30 -105 32 -105 79 0 120 -251 483 -387 560
-29 17 -53 33 -53 37 0 4 -9 17 -19 28 -11 11 -40 52 -65 91 -24 38 -49 73
-55 77 -6 3 -11 38 -11 78 0 84 -20 145 -71 214 -51 69 -59 85 -59 119 0 17
-9 83 -20 145 -22 133 -64 425 -79 554 -47 406 -46 387 -45 1160 2 889 13
1130 73 1620 76 624 173 1049 307 1352 8 17 14 36 14 41 0 6 39 23 88 37 117
36 200 75 264 124 37 28 54 36 56 26 2 -7 -15 -83 -37 -168z m134 20 c237
-204 528 -317 775 -302 166 11 238 33 363 112 22 14 43 21 47 16 5 -4 13 -30
18 -58 19 -94 52 -240 67 -295 13 -48 40 -159 125 -520 11 -47 29 -116 40
-155 11 -38 31 -119 45 -180 13 -60 38 -168 55 -240 17 -71 40 -170 51 -220
11 -49 27 -112 36 -138 15 -47 15 -49 -13 -90 -80 -121 -134 -263 -134 -355 0
-43 -6 -64 -27 -98 -16 -24 -31 -44 -35 -44 -5 0 -8 -5 -8 -10 0 -6 -12 -29
-26 -52 -15 -23 -42 -87 -60 -142 -65 -191 -41 -332 104 -631 57 -117 66 -175
52 -340 -10 -114 -10 -138 5 -195 18 -68 36 -110 67 -149 10 -13 17 -26 15
-28 -2 -2 -64 10 -138 26 -74 17 -191 38 -261 48 -139 19 -139 18 -112 81 8
20 28 91 45 157 16 66 38 152 48 190 22 77 65 385 56 394 -13 12 -23 -26 -40
-138 -18 -124 -86 -406 -110 -458 -8 -17 -15 -37 -15 -45 0 -7 -17 -44 -38
-83 l-37 -70 -47 0 c-27 1 -124 2 -216 3 l-169 2 -17 53 c-27 84 -46 256 -54
489 -4 119 -10 219 -13 223 -20 19 -14 -644 6 -726 7 -26 6 -26 -62 -32 -37
-4 -96 -7 -130 -7 -73 0 -78 5 -137 145 -21 50 -45 106 -53 125 -66 152 -157
442 -188 598 -72 368 -88 505 -101 845 -4 115 -11 187 -17 187 -12 0 -2 -515
13 -660 19 -180 91 -523 147 -695 39 -123 91 -267 146 -408 27 -70 48 -130 45
-132 -2 -2 -89 -13 -193 -24 -141 -15 -191 -17 -196 -9 -40 64 -126 606 -150
937 -11 165 -14 830 -4 991 21 344 115 993 200 1390 13 63 34 158 45 210 11
52 41 190 66 305 50 237 53 245 62 245 4 0 30 -19 57 -43z m1609 -88 l110 -56
17 -89 c9 -49 25 -111 34 -139 32 -96 178 -383 205 -405 4 -3 17 -21 31 -41
43 -64 111 -138 153 -166 23 -16 43 -31 46 -35 17 -23 128 -67 191 -77 41 -7
103 -19 139 -28 36 -8 79 -17 95 -20 17 -2 39 -15 51 -29 57 -69 236 -496 216
-516 -10 -10 -84 7 -212 47 -41 13 -121 31 -177 41 -190 32 -304 -5 -464 -151
-98 -89 -172 -137 -187 -120 -5 6 -21 69 -36 140 -14 72 -37 177 -50 235 -13
58 -44 197 -70 310 -87 391 -252 1020 -304 1160 -11 30 -18 58 -16 62 3 4 31
-9 62 -29 31 -21 106 -63 166 -94z m772 -311 c33 -35 71 -79 84 -98 13 -19 27
-37 30 -40 15 -13 119 -155 155 -212 82 -130 206 -390 193 -404 -3 -3 -24 4
-45 14 -21 11 -57 23 -78 27 -22 4 -74 15 -115 25 -41 10 -109 23 -150 30
-126 20 -199 49 -252 101 -27 25 -48 51 -48 57 0 19 42 41 98 52 43 8 59 6 94
-9 59 -26 104 -62 140 -110 49 -68 114 -47 73 23 -158 272 -294 606 -247 606
5 0 35 -28 68 -62z m-4536 -723 c0 -8 -4 -23 -9 -33 -5 -9 -28 -75 -51 -147
-47 -148 -71 -206 -84 -202 -15 5 -35 99 -36 170 0 104 32 157 125 205 49 26
55 26 55 7z m4749 -555 c44 -16 149 -43 233 -60 152 -30 256 -69 266 -99 5
-15 7 -15 -98 9 -147 33 -196 41 -251 38 -49 -2 -65 -7 -67 -19 -2 -13 11 -17
70 -23 116 -10 411 -70 493 -100 147 -52 245 -157 245 -262 0 -77 -91 -207
-134 -191 -25 10 -25 56 0 86 43 52 59 136 30 160 -11 9 -15 2 -20 -43 -9 -72
-44 -101 -143 -121 -49 -10 -159 22 -263 77 -154 81 -219 101 -314 96 -60 -2
-93 -9 -126 -26 -88 -45 -156 -147 -187 -280 -27 -115 -55 -182 -92 -221 -46
-48 -197 -168 -252 -201 -24 -14 -86 -68 -139 -120 -96 -94 -141 -165 -156
-240 -9 -42 12 -39 30 4 20 47 80 139 119 183 72 80 303 233 329 217 13 -8 2
-158 -14 -207 -17 -48 -60 -108 -120 -163 -28 -27 -79 -76 -111 -108 -118
-117 -147 -260 -72 -351 22 -27 26 -28 40 -14 14 14 13 20 -9 60 -30 51 -33
101 -9 160 l16 41 24 -62 c28 -77 31 -192 7 -354 -20 -135 -45 -210 -83 -247
-33 -31 -121 -79 -146 -79 -8 0 -40 24 -69 53 -91 89 -111 178 -84 378 18 135
3 211 -72 363 -33 67 -69 158 -80 201 -53 207 -30 398 64 540 51 76 57 82 202
203 133 110 181 161 225 237 33 57 35 70 14 79 -10 3 -25 -11 -48 -47 -19 -29
-60 -77 -93 -108 -92 -88 -214 -191 -215 -182 -4 34 7 84 33 141 57 128 68
148 116 207 52 66 119 111 221 150 58 22 182 106 286 193 17 14 57 38 90 54
52 24 72 28 147 28 71 0 101 -5 167 -30z m148 -531 c42 -12 97 -30 122 -42 65
-29 103 -44 206 -79 75 -25 101 -29 152 -25 l63 5 11 -42 c6 -22 15 -58 20
-79 5 -20 21 -54 34 -74 33 -47 32 -63 -3 -63 -41 0 -70 -25 -74 -63 -2 -25
-8 -33 -26 -35 -17 -3 -29 -16 -43 -48 -47 -105 -33 -263 35 -405 34 -70 42
-96 37 -117 -7 -27 -9 -27 -101 -29 -116 -3 -124 2 -117 74 6 57 3 62 -25 36
-22 -19 -23 -61 -4 -108 l15 -35 115 0 c126 0 163 10 172 47 7 28 5 36 -39
138 -19 44 -38 95 -42 114 l-7 33 33 -8 c19 -5 55 -8 81 -6 46 2 47 1 58 -36
5 -20 18 -75 27 -121 14 -72 15 -93 4 -160 -14 -81 -35 -141 -53 -153 -15 -9
-68 22 -68 39 0 19 -25 16 -45 -7 -23 -26 -67 -26 -90 0 -16 17 -20 18 -34 6
-24 -20 -164 -86 -184 -86 -9 0 -17 -2 -17 -5 0 -18 112 -119 156 -140 72 -34
108 -32 179 10 32 20 60 33 63 30 3 -2 -4 -30 -15 -62 -11 -32 -33 -98 -48
-146 -39 -121 -59 -141 -158 -155 -139 -21 -258 -10 -407 39 -261 86 -418 221
-439 379 -4 33 -11 46 -25 48 -17 4 -18 -1 -14 -65 4 -57 11 -79 40 -124 50
-77 115 -136 221 -198 117 -68 244 -115 352 -132 l85 -12 0 -42 c0 -57 -22
-96 -82 -149 -56 -49 -162 -114 -217 -133 -20 -7 -85 -13 -148 -13 -179 0
-305 38 -397 121 -57 51 -124 137 -155 197 -21 41 -21 45 -7 100 30 112 45
190 56 297 12 117 14 125 35 125 27 0 74 64 86 115 18 80 7 100 -20 37 -22
-48 -64 -92 -90 -92 -20 0 -39 45 -46 111 l-7 66 67 52 c99 78 197 239 206
341 2 19 0 66 -5 103 l-8 68 56 53 c64 61 80 94 111 231 29 129 87 239 140
268 58 31 124 33 222 6z m1082 -271 c38 -273 115 -552 204 -738 30 -64 125
-207 150 -227 12 -10 30 -31 40 -46 10 -16 41 -52 68 -80 27 -28 49 -55 49
-59 0 -5 -7 -23 -16 -40 -25 -49 -35 -144 -22 -220 11 -62 10 -73 -9 -125 -12
-32 -40 -110 -64 -173 -23 -63 -43 -117 -45 -119 -2 -2 -26 17 -55 42 -28 25
-71 55 -96 68 -57 30 -50 16 -118 209 -52 149 -103 277 -120 303 -9 14 -38 75
-65 136 -27 61 -75 149 -107 194 -77 108 -121 180 -129 214 -4 14 -13 38 -20
52 -8 14 -14 43 -14 64 0 39 18 72 152 270 46 69 62 97 135 237 62 118 63 120
67 120 2 0 9 -37 15 -82z m-415 -253 c7 -10 10 -34 6 -63 l-5 -47 -62 3 c-45
3 -68 -1 -87 -13 -30 -20 -37 -52 -8 -40 48 20 51 19 46 -17 -8 -47 16 -72 62
-64 31 6 55 -6 35 -18 -17 -11 -132 7 -152 23 -14 11 -22 33 -26 73 -8 81 3
126 40 161 29 27 36 29 85 24 33 -4 58 -12 66 -22z m159 -647 c56 -92 131
-234 163 -310 14 -33 40 -92 59 -133 19 -41 35 -76 35 -79 0 -3 13 -34 29 -68
35 -79 55 -138 47 -145 -3 -3 -17 2 -31 11 -17 11 -25 26 -25 44 0 46 -97 199
-175 277 -75 75 -135 115 -202 135 -24 7 -43 18 -43 25 0 6 13 49 28 96 16 46
34 109 41 139 15 67 19 80 25 80 2 0 24 -33 49 -72z m-372 -129 c12 -23 27
-22 88 2 32 14 34 13 62 -21 16 -19 29 -37 29 -40 0 -4 -22 -21 -49 -38 -85
-56 -203 -56 -266 0 -41 35 -44 48 -12 48 12 1 40 16 62 35 46 40 70 44 86 14z
m3139 -28 c63 -12 116 -23 118 -25 1 -2 -22 -70 -52 -152 -50 -137 -56 -149
-78 -146 -143 16 -428 33 -668 38 -310 7 -788 -12 -1055 -41 -171 -19 -208
-20 -223 -11 -29 18 0 196 36 215 18 9 180 45 277 60 33 6 87 15 120 21 33 5
98 15 145 21 47 6 150 19 230 29 125 16 205 18 590 15 408 -2 454 -4 560 -24z
m-2848 -179 c34 -16 89 -52 120 -81 53 -49 148 -183 148 -209 0 -13 -122 70
-186 127 -73 65 -93 80 -133 100 -22 12 -42 25 -45 30 -8 12 11 61 23 61 5 0
38 -13 73 -28z m-12 -154 c25 -17 77 -59 116 -93 40 -34 90 -75 113 -91 23
-16 39 -35 36 -42 -3 -7 5 -23 16 -35 35 -37 79 -99 79 -113 0 -7 24 -51 54
-97 62 -96 90 -150 116 -225 23 -62 16 -70 -48 -52 -42 11 -41 11 -200 210
-67 85 -107 107 -230 128 -126 21 -176 46 -265 131 -86 82 -87 86 -27 116 52
26 63 44 105 160 27 74 33 79 64 55 14 -11 46 -35 71 -52z m2186 -198 c0 -102
6 -239 12 -305 7 -66 17 -181 22 -255 27 -338 39 -216 27 265 -5 182 -6 363
-2 404 l7 74 166 -7 c206 -8 404 -25 415 -36 5 -4 -18 -70 -51 -146 -33 -77
-74 -173 -90 -214 -89 -219 -179 -386 -341 -629 -127 -191 -133 -201 -180
-323 -98 -249 -100 -438 -7 -659 29 -69 98 -132 196 -178 80 -38 101 -44 178
-48 145 -8 285 32 415 120 32 22 111 91 175 154 194 190 283 247 436 278 43 9
80 14 82 12 5 -4 -115 -149 -132 -159 -7 -5 -36 -45 -64 -89 l-53 -82 7 -83
c6 -66 4 -84 -6 -84 -338 -11 -350 -13 -465 -58 -28 -12 -89 -28 -136 -36 -73
-12 -113 -29 -287 -117 -172 -88 -206 -109 -227 -141 -27 -40 -26 -73 2 -101
13 -13 11 -18 -21 -36 -46 -27 -49 -27 -64 9 -28 67 -97 106 -295 166 -103 32
-147 34 -193 10 l-33 -17 -71 47 c-39 26 -90 63 -113 83 -123 104 -245 189
-302 213 -16 6 -48 14 -72 17 -42 6 -43 7 -46 47 -4 58 -26 94 -99 167 -55 56
-66 74 -89 143 -22 66 -57 203 -57 220 0 3 13 -4 29 -15 16 -12 43 -21 60 -21
44 0 47 24 23 218 -12 92 -24 223 -27 292 -13 256 -39 364 -107 436 -29 31
-42 56 -53 101 -14 59 -13 63 14 144 28 83 97 258 121 311 16 33 59 44 243 58
182 14 210 13 203 -5 -7 -19 -51 -235 -66 -325 -24 -145 -51 -457 -57 -655 -6
-206 3 -453 16 -440 7 8 6 -15 20 315 12 276 23 430 40 540 6 36 15 103 21
150 19 163 38 256 77 383 16 52 17 53 126 61 l67 5 0 -33 c0 -19 -6 -69 -14
-112 -8 -44 -18 -110 -22 -149 -3 -38 -8 -83 -10 -100 -12 -91 -15 -672 -5
-900 11 -256 48 -683 60 -697 7 -8 5 29 -9 212 -37 472 -13 1185 58 1720 l7
55 70 6 c39 3 160 5 270 5 l199 -1 2 -185z m-4711 -10 c61 -6 148 -18 195 -26
47 -8 110 -19 140 -24 154 -23 282 -53 304 -71 4 -4 -41 -39 -100 -79 l-109
-71 -60 5 c-33 3 -123 14 -201 25 -252 35 -542 46 -890 32 -170 -6 -334 -14
-366 -18 l-56 -6 -27 84 c-14 46 -28 91 -31 100 -6 21 98 35 376 49 113 6 214
13 225 15 35 7 486 -5 600 -15z m977 -103 c97 -148 204 -231 373 -288 65 -22
256 -17 331 9 177 60 262 128 349 277 10 17 13 17 42 1 30 -15 31 -18 21 -48
-6 -18 -22 -50 -35 -70 -13 -21 -23 -42 -23 -47 0 -21 -108 -119 -181 -164
-106 -66 -225 -96 -378 -97 -136 0 -249 42 -381 142 -105 79 -168 149 -209
233 l-34 68 32 29 c17 15 35 28 39 28 4 0 28 -33 54 -73z m2023 -33 c114 -66
182 -126 221 -192 l27 -46 -6 -412 c-3 -242 -9 -420 -15 -430 -29 -51 -84 161
-97 371 -3 55 -13 133 -21 174 -13 67 -13 75 2 92 15 17 15 24 1 87 -24 105
-131 319 -187 372 -17 16 -43 53 -35 48 6 -3 55 -32 110 -64z m-2198 -11 c3
-10 24 -43 46 -73 125 -168 193 -226 377 -320 l105 -54 115 0 c76 -1 140 5
189 17 73 18 171 54 181 67 3 4 16 13 30 20 60 30 192 126 215 156 13 18 31
38 38 46 8 7 28 44 46 82 l33 68 36 -7 c75 -13 109 -26 137 -49 35 -30 171
-76 225 -76 71 0 107 -24 249 -168 109 -111 144 -141 177 -150 32 -9 43 -18
48 -38 7 -28 42 -279 56 -404 5 -41 18 -105 30 -142 33 -99 70 -130 111 -92
21 19 39 11 39 -17 0 -11 7 -48 15 -82 8 -34 21 -98 29 -141 22 -114 70 -208
145 -282 59 -59 61 -62 61 -114 0 -48 -3 -56 -38 -89 -31 -30 -127 -113 -152
-131 -17 -12 -141 -183 -175 -241 -99 -167 -115 -209 -115 -300 0 -63 15 -85
52 -75 26 7 128 139 179 231 18 33 37 62 41 63 4 2 8 8 8 13 0 6 16 35 35 65
38 60 40 64 25 64 -14 0 -52 -43 -92 -105 -18 -27 -39 -57 -47 -65 -18 -19
-81 -117 -81 -127 -1 -4 -16 -26 -35 -47 -29 -32 -36 -36 -41 -22 -26 69 92
301 231 454 63 69 198 179 243 198 50 21 120 18 167 -7 37 -20 136 -98 215
-169 44 -40 179 -130 194 -130 6 0 22 -7 34 -16 l22 -15 -35 -42 c-78 -92
-192 -234 -216 -272 -14 -22 -41 -62 -58 -90 -35 -54 -149 -283 -181 -365 -11
-27 -35 -80 -54 -117 -45 -91 -86 -197 -122 -315 -9 -32 -21 -58 -26 -58 -42
0 -223 116 -383 245 -86 69 -302 285 -350 348 l-28 38 21 67 c35 112 45 181
45 317 0 98 -6 154 -23 230 -20 90 -22 120 -18 295 4 187 5 198 32 260 56 127
88 273 91 412 3 97 0 130 -11 145 -22 29 -34 0 -34 -84 0 -130 -39 -353 -61
-353 -5 0 -9 63 -8 143 1 138 -10 250 -33 332 -6 22 -13 65 -17 95 -4 39 -10
55 -21 55 -22 0 -24 -53 -6 -185 23 -178 29 -430 14 -645 -17 -248 -14 -341
12 -445 26 -108 37 -254 22 -323 -6 -29 -16 -83 -22 -122 -18 -112 -82 -316
-105 -335 -30 -24 -295 -80 -600 -124 -199 -30 -640 -55 -657 -38 -9 9 -7 33
7 100 18 76 20 126 20 409 0 177 2 323 5 326 6 5 159 77 165 77 2 0 62 27 132
61 70 34 155 74 188 89 154 71 344 201 400 273 27 37 31 58 14 88 -8 16 -17
19 -42 14 -31 -7 -30 -5 26 47 79 73 128 158 125 215 -1 36 3 49 29 76 16 17
38 49 47 71 17 36 17 40 0 77 -20 46 -43 50 -106 19 -23 -11 -43 -18 -45 -16
-2 2 7 21 22 41 42 63 30 105 -31 105 -18 0 -68 -15 -112 -34 -167 -71 -362
-132 -362 -112 0 2 13 30 30 62 43 86 37 169 -16 193 -37 16 -43 15 -92 -26
-53 -43 -136 -98 -219 -144 -123 -68 -179 -134 -273 -318 -53 -105 -86 -148
-160 -213 -15 -13 -268 -140 -343 -172 -29 -12 -54 -15 -105 -10 -78 7 -117
-7 -160 -58 -44 -52 -50 -56 -104 -63 -29 -4 -73 -14 -96 -22 -24 -8 -46 -12
-49 -9 -12 12 12 49 46 71 57 36 67 69 52 177 -8 54 -10 122 -6 171 13 164
103 433 195 582 26 42 14 46 -21 8 -63 -69 -140 -236 -196 -424 -24 -81 -28
-111 -27 -214 0 -66 4 -141 8 -167 11 -62 1 -73 -80 -87 -36 -7 -89 -21 -118
-31 -83 -31 -204 -160 -234 -249 -16 -47 -16 -48 22 -66 32 -15 36 -15 71 5
21 12 63 42 94 67 76 62 200 121 279 131 34 5 65 5 68 0 5 -8 -18 -123 -37
-183 -26 -81 -32 -472 -9 -554 7 -26 16 67 19 204 2 74 27 269 40 310 5 17 23
76 40 133 16 57 37 114 45 127 21 33 102 85 132 85 29 0 30 -9 5 -41 -37 -49
-85 -363 -95 -629 -7 -173 7 -433 30 -550 19 -100 40 -290 50 -445 l6 -110
-83 -20 c-46 -11 -91 -21 -99 -23 -9 -2 -29 16 -48 43 -32 45 -41 75 -22 75 5
0 14 16 19 36 12 44 -1 119 -32 179 -49 98 -245 369 -484 669 -56 72 -101 132
-99 134 2 2 60 -25 128 -60 157 -82 252 -113 312 -104 47 7 59 17 74 57 7 17
6 37 -3 63 -14 40 -19 45 -110 108 -33 23 -62 44 -65 48 -3 3 -50 41 -105 83
-55 43 -125 98 -155 123 -63 52 -181 114 -322 169 -64 25 -98 44 -98 54 0 8
15 67 34 130 19 64 53 197 77 296 52 222 140 532 181 640 32 82 110 248 151
319 28 50 165 189 243 247 137 101 625 417 647 418 4 1 10 -7 14 -16z m-1296
-388 c4 -148 9 -304 13 -345 18 -197 48 -431 62 -484 14 -57 14 -64 -11 -165
-14 -59 -37 -142 -50 -186 -13 -44 -29 -104 -35 -133 -20 -89 -22 -87 -100
113 -28 72 -62 155 -74 185 -13 30 -29 73 -36 95 -7 22 -25 69 -40 105 -16 36
-31 86 -35 113 -8 55 9 458 30 702 9 94 16 190 18 215 l2 45 45 6 c25 4 81 6
125 5 l80 -1 6 -270z m-324 249 c3 -9 1 -107 -5 -218 -7 -110 -15 -292 -18
-403 -4 -111 -10 -200 -14 -198 -9 5 -42 98 -118 335 -120 373 -144 451 -139
464 4 10 34 16 99 20 112 7 170 12 181 14 4 1 10 -5 14 -14z m800 0 c72 -8 69
-2 79 -147 l7 -97 -79 -77 c-138 -135 -224 -292 -324 -593 -16 -46 -32 -86
-37 -87 -10 -4 -38 188 -53 372 -15 173 -24 542 -16 599 l8 49 176 -7 c98 -3
205 -9 239 -12z m271 -30 c39 -3 74 -10 77 -14 3 -5 -16 -23 -42 -41 -27 -18
-54 -38 -60 -45 -7 -7 -29 -22 -50 -35 -21 -13 -45 -30 -53 -38 -13 -13 -16
-4 -21 80 -4 52 -4 98 -2 102 3 5 21 6 42 3 20 -3 69 -8 109 -12z m3080 -232
c26 -36 39 -86 52 -207 10 -91 34 -362 47 -540 l5 -70 -22 20 c-34 30 -79 100
-96 147 -26 73 -35 231 -28 461 4 119 10 217 15 217 4 0 16 -12 27 -28z
m-5155 -367 c65 -19 99 -45 137 -105 37 -57 34 -74 -11 -58 -55 19 -205 2
-269 -30 -67 -33 -194 -157 -238 -233 -17 -30 -38 -65 -46 -79 -50 -86 -107
-258 -159 -480 -8 -36 -26 -108 -40 -160 -52 -198 -125 -572 -161 -830 -14
-96 -39 -267 -56 -380 -27 -182 -80 -600 -95 -750 -6 -58 -45 -338 -69 -500
-16 -100 -31 -231 -41 -340 -6 -62 7 -134 18 -100 15 48 70 403 87 570 11 107
25 227 30 265 6 39 15 99 20 135 5 36 23 164 40 285 16 121 39 270 50 330 29
159 67 393 84 520 24 173 74 462 95 550 11 44 43 175 71 290 71 296 96 376
151 493 80 167 145 253 234 311 22 14 42 29 45 32 3 3 27 16 54 28 88 39 196
22 232 -36 10 -15 53 -81 96 -145 43 -64 78 -123 78 -130 0 -7 -20 -24 -45
-37 -168 -89 -305 -346 -381 -711 -14 -68 -27 -127 -29 -131 -2 -3 -13 -57
-25 -120 -61 -340 -86 -646 -76 -929 7 -193 33 -607 41 -650 3 -14 9 -77 15
-140 9 -104 21 -181 65 -440 8 -47 18 -157 21 -246 8 -198 0 -231 -107 -423
-29 -54 -131 -142 -207 -180 -88 -44 -368 -130 -424 -131 -9 0 -98 -24 -197
-54 -191 -57 -251 -88 -286 -143 -11 -18 -23 -32 -27 -33 -3 0 -12 16 -19 37
-15 46 -7 306 14 418 46 251 117 721 163 1080 32 259 85 585 153 950 39 205
45 245 77 450 27 175 58 365 95 565 11 63 24 142 29 175 5 33 16 96 25 140 9
44 27 141 41 215 66 352 177 625 304 749 57 55 171 132 211 141 56 13 181 11
232 -5z m3664 -243 c25 -16 25 -58 -1 -115 -33 -75 -71 -124 -102 -131 -32 -8
-119 -58 -158 -90 -48 -40 -22 -50 42 -18 80 40 159 69 212 77 110 17 306 90
370 139 23 18 89 38 100 31 25 -15 3 -44 -90 -119 -74 -59 -154 -112 -220
-145 -66 -34 -140 -82 -140 -92 0 -20 46 -6 150 47 25 12 86 39 135 59 50 20
126 54 170 76 44 21 95 42 113 45 27 6 32 4 32 -13 0 -26 -48 -75 -145 -150
-87 -66 -268 -183 -284 -183 -5 0 -19 -13 -31 -30 l-21 -30 20 0 c27 0 241
122 296 168 28 23 66 44 72 39 20 -20 -191 -246 -290 -311 -32 -21 -56 -43
-54 -49 8 -23 101 -10 154 21 68 40 93 48 93 28 0 -28 -94 -110 -175 -154 -93
-49 -441 -219 -500 -244 -222 -92 -441 -186 -490 -212 -33 -17 -64 -33 -69
-35 -17 -7 1 328 23 434 33 157 63 223 132 296 33 35 69 82 80 104 12 22 31
54 43 70 11 17 30 48 41 70 57 116 139 203 240 256 65 35 107 65 204 148 26
23 31 24 48 13z m4620 -348 c98 -37 150 -73 246 -173 180 -186 234 -386 207
-764 -9 -127 -46 -449 -80 -692 -14 -100 -38 -313 -50 -429 l-10 -109 -55 -54
c-30 -29 -58 -53 -62 -53 -4 0 -9 39 -9 88 -1 48 -10 193 -20 322 -15 191 -18
309 -16 630 4 370 3 402 -18 510 -38 205 -88 310 -176 369 -46 31 -53 33 -121
28 -57 -3 -86 -11 -138 -38 -37 -19 -79 -46 -93 -61 -38 -39 -59 -36 -73 11
-22 74 22 166 144 296 11 11 40 47 65 80 25 33 51 64 57 68 18 14 131 -2 202
-29z m-7796 -61 c35 -32 81 -90 114 -145 6 -9 49 -71 98 -139 48 -68 87 -129
87 -136 0 -9 -17 -13 -60 -13 -225 0 -390 -207 -485 -610 -79 -334 -101 -457
-115 -655 -6 -82 -12 -170 -14 -195 -6 -68 11 -370 24 -410 15 -50 44 -80 84
-87 27 -4 38 -1 53 16 24 29 20 34 -24 35 -30 1 -40 6 -50 26 -34 72 -41 434
-13 650 26 197 71 453 91 519 13 45 24 49 58 24 158 -121 331 -288 331 -318 0
-8 -26 -122 -59 -252 -32 -131 -66 -272 -76 -313 -29 -127 -62 -234 -88 -286
-38 -75 -115 -124 -194 -124 -40 0 -61 8 -123 46 -41 26 -109 73 -150 106 -41
32 -86 67 -99 78 l-23 18 -5 349 c-7 427 5 585 72 948 46 250 103 452 172 608
42 96 77 148 140 208 61 59 116 88 170 89 36 0 50 -6 84 -37z m7702 -337 c73
-30 138 -150 162 -301 9 -55 18 -107 21 -116 7 -25 -178 -299 -274 -408 -13
-14 -39 -48 -58 -76 -170 -251 -405 -472 -562 -529 -80 -29 -212 -46 -212 -28
0 6 51 27 113 46 108 34 176 68 184 92 5 14 -62 -3 -162 -42 -127 -48 -245
-76 -297 -69 -27 4 -50 10 -53 14 -4 8 138 54 358 117 137 39 184 61 169 76
-11 11 -35 5 -217 -52 -33 -10 -105 -28 -160 -40 -55 -11 -125 -27 -155 -35
-208 -53 -293 -60 -354 -28 -22 11 -35 22 -30 26 14 8 128 46 224 74 173 50
518 199 564 243 35 34 0 28 -104 -20 -138 -64 -250 -108 -330 -130 -36 -9
-121 -34 -190 -55 -208 -62 -262 -75 -332 -75 -47 0 -71 5 -82 16 -9 8 -16 18
-16 22 0 4 95 54 210 112 355 177 427 229 617 443 21 23 48 40 75 48 103 27
152 65 150 116 -4 106 -9 142 -21 157 -16 19 -21 19 -146 -19 -57 -17 -124
-27 -235 -34 -151 -10 -269 -28 -321 -49 -30 -12 -59 1 -59 27 0 26 10 33 152
94 69 30 158 76 197 101 58 39 87 51 163 66 51 11 133 33 183 50 72 24 117 32
235 40 242 17 313 28 330 47 8 10 37 35 64 56 44 33 56 37 108 37 32 0 73 -6
91 -14z m-5347 -84 c-41 -111 -55 -218 -57 -432 -1 -107 1 -206 5 -220 3 -14
17 -107 31 -208 25 -182 25 -183 9 -365 -9 -100 -14 -234 -12 -298 3 -102 7
-122 32 -173 16 -32 24 -61 20 -65 -17 -15 -119 -50 -179 -62 -63 -13 -150 -6
-161 13 -4 6 -13 81 -20 167 -8 86 -28 266 -45 401 -33 258 -43 508 -26 690 9
102 60 359 85 432 20 57 35 69 137 107 33 12 75 32 93 43 58 36 107 57 110 47
2 -5 -8 -39 -22 -77z m-2116 -93 c100 -67 194 -103 335 -125 168 -27 412 -110
523 -176 72 -44 176 -130 293 -241 113 -109 135 -128 177 -153 39 -22 41 -41
6 -50 -45 -12 -127 6 -192 42 -34 19 -67 34 -73 34 -6 0 -40 18 -77 40 -37 23
-78 44 -92 47 -14 3 -47 17 -74 29 -28 13 -56 24 -63 24 -18 0 -16 -20 5 -39
10 -9 50 -59 90 -111 40 -52 99 -129 132 -170 33 -41 81 -106 107 -144 27 -37
53 -73 59 -80 5 -6 57 -81 115 -166 57 -85 107 -157 111 -160 16 -12 88 -151
88 -170 0 -40 -26 -21 -111 80 -30 36 -56 67 -59 70 -3 3 -35 43 -72 90 -36
47 -84 104 -107 128 -58 60 -289 232 -312 232 -80 0 33 -209 210 -388 28 -28
156 -136 281 -237 47 -37 109 -92 138 -121 47 -46 52 -55 42 -73 -6 -12 -20
-21 -31 -21 -21 0 -111 60 -219 145 -93 74 -228 176 -280 212 -81 56 -198 176
-253 261 -51 78 -54 81 -65 58 -26 -58 175 -277 426 -463 174 -129 251 -188
251 -195 2 -22 -218 78 -354 161 -102 62 -157 107 -303 245 -71 68 -144 128
-162 134 -31 11 -31 11 -28 -20 2 -27 11 -36 50 -56 25 -13 93 -70 151 -125
57 -56 136 -127 175 -157 108 -83 102 -100 -20 -59 -199 67 -430 238 -516 382
-9 15 -20 27 -24 27 -4 0 -8 5 -8 11 0 9 -71 102 -91 119 -3 3 -49 59 -101
125 -213 265 -266 320 -408 419 -44 31 -80 62 -80 69 0 28 83 265 112 320 54
101 188 226 243 227 6 0 30 -14 55 -31z m1296 -25 c-3 -9 -6 -27 -6 -40 0 -19
-9 -29 -37 -42 -54 -25 -114 -65 -142 -96 -31 -33 -51 -33 -51 -1 0 84 117
194 209 195 26 0 32 -3 27 -16z m4239 -245 c5 -5 16 -9 24 -9 30 0 172 -63
196 -88 37 -37 33 -60 -13 -68 -26 -4 -52 -19 -80 -46 -72 -68 -114 -139 -227
-388 -29 -63 -91 -197 -138 -296 -146 -312 -183 -404 -204 -501 -20 -96 -13
-149 23 -165 22 -10 29 -7 65 28 22 21 45 47 51 57 17 32 -1 32 -35 0 -41 -40
-71 -46 -75 -17 -4 31 56 205 126 365 52 117 99 217 107 227 2 2 43 -15 142
-59 23 -11 52 -19 65 -19 40 0 68 -12 68 -28 0 -8 -15 -33 -33 -56 -18 -23
-44 -59 -57 -81 -13 -22 -33 -51 -44 -65 -12 -14 -27 -36 -35 -50 -34 -63
-171 -232 -241 -298 -42 -40 -110 -72 -153 -72 -64 0 -210 68 -312 145 -65 49
-79 70 -89 131 -9 62 47 231 148 447 20 42 36 81 36 85 0 16 146 311 180 362
16 25 33 52 37 60 9 20 103 157 154 226 22 29 72 86 111 125 l72 71 61 -7 c33
-3 64 -11 70 -16z m1143 -73 c21 -20 -34 -73 -102 -96 -33 -11 -69 -20 -80
-20 -31 0 -169 -35 -197 -50 -25 -13 -71 -60 -154 -154 -58 -67 -170 -161
-238 -201 -47 -27 -58 -52 -21 -48 18 1 18 1 -1 -14 -11 -8 -54 -31 -95 -50
-157 -72 -205 -119 -165 -163 9 -10 28 -21 41 -24 47 -12 20 -31 -42 -31 -49
0 -74 7 -146 42 -49 23 -88 46 -88 51 0 6 29 70 65 143 151 311 175 349 235
377 45 22 141 77 255 145 137 83 183 93 470 105 193 8 243 6 263 -12z m972
-58 c3 -66 -3 -306 -9 -398 -7 -94 -4 -158 15 -350 50 -484 50 -529 -2 -597
-70 -93 -134 -63 -234 112 -77 132 -116 228 -164 400 -21 78 -56 241 -56 265
0 7 72 99 118 150 12 14 22 28 22 31 0 4 19 31 43 61 23 29 67 87 97 129 151
209 169 230 170 197z m-5221 -154 c25 -313 5 -490 -88 -773 -41 -126 -119
-271 -146 -271 -43 0 -69 228 -46 399 23 168 12 449 -25 631 -4 22 2 30 33 51
21 13 54 31 73 38 19 8 41 19 49 25 22 18 125 54 132 47 4 -3 11 -69 18 -147z
m4021 30 c0 -3 -35 -44 -77 -90 -82 -90 -169 -154 -293 -216 -78 -40 -116 -51
-65 -19 17 10 68 60 114 110 89 98 154 152 236 194 47 25 85 34 85 21z m-5494
-603 c43 -32 109 -90 145 -128 71 -73 202 -243 194 -251 -13 -13 -170 117
-262 218 -62 68 -176 220 -164 220 4 0 44 -27 87 -59z m2842 1 c24 -31 15 -62
-25 -78 -70 -30 -504 -105 -743 -129 -196 -20 -482 -34 -553 -28 l-59 6 7 36
c4 20 9 39 11 42 2 4 41 10 86 13 463 36 606 51 763 81 72 13 171 29 220 35
50 6 124 20 165 30 80 19 107 18 128 -8z m3437 -269 c25 -72 113 -259 145
-309 26 -41 -44 -409 -109 -571 -11 -28 -49 -109 -84 -180 -35 -70 -84 -173
-108 -228 -54 -124 -223 -459 -239 -475 -3 -3 -16 -25 -29 -48 -16 -30 -20
-47 -13 -54 7 -7 15 -3 25 13 7 13 35 58 60 99 25 41 57 93 70 115 14 22 44
76 67 120 23 44 53 98 65 120 23 41 210 438 240 510 38 91 91 275 116 403 6
34 15 62 18 62 4 0 28 -13 54 -30 84 -53 116 -43 251 79 43 39 81 69 85 67 3
-2 3 -48 -1 -103 -21 -316 -21 -436 -3 -522 16 -74 24 -91 64 -135 79 -89 268
-209 426 -271 39 -15 111 -43 160 -62 131 -52 200 -88 218 -117 26 -39 22
-118 -7 -165 -61 -96 -221 -195 -456 -281 -63 -23 -153 -57 -200 -76 -47 -18
-116 -42 -155 -53 -38 -11 -131 -39 -205 -62 -279 -84 -565 -110 -945 -84
-326 23 -459 19 -805 -21 -187 -22 -275 -47 -396 -113 -32 -17 -60 -29 -63
-26 -14 15 121 241 203 340 61 74 61 74 125 159 88 116 294 346 418 466 139
136 243 248 292 314 22 29 45 59 53 67 12 13 38 48 135 179 22 30 71 109 110
175 39 66 101 169 138 230 37 60 82 143 100 185 18 41 41 95 52 120 28 63 39
94 63 178 12 40 25 70 29 68 5 -3 21 -40 36 -83z"/>
<path d="M7874 14505 c-49 -12 -112 -33 -140 -47 -71 -37 -158 -110 -203 -172
-42 -57 -77 -144 -63 -158 4 -4 30 11 56 36 27 24 58 48 70 54 66 33 170 73
236 91 118 33 209 71 225 94 21 30 19 71 -4 91 -35 32 -80 35 -177 11z m147
-45 c25 -14 24 -36 -3 -54 -13 -8 -91 -37 -175 -65 -83 -27 -186 -65 -227 -85
-42 -19 -78 -30 -82 -25 -9 15 116 138 176 173 56 33 117 53 180 59 74 8 112
7 131 -3z"/>
<path d="M7989 14190 c-64 -11 -119 -41 -163 -90 -47 -52 -37 -72 14 -26 64
58 110 76 190 76 81 0 87 -10 45 -73 -29 -42 -44 -46 -65 -17 -32 45 -111 4
-97 -50 5 -18 0 -20 -47 -20 -58 0 -71 -6 -55 -27 14 -16 117 -18 169 -3 45
13 127 94 152 150 l19 45 -21 17 c-12 10 -30 18 -39 18 -9 0 -25 2 -36 4 -11
2 -41 0 -66 -4z"/>
<path d="M7860 13108 c-1 -49 -4 -57 -46 -103 -24 -27 -59 -74 -76 -103 -27
-48 -30 -60 -25 -113 8 -91 72 -168 139 -169 30 0 41 6 61 33 37 49 47 73 61
140 8 38 18 63 27 64 8 2 27 -16 42 -38 31 -44 109 -87 177 -96 62 -9 123 27
181 106 46 62 109 177 113 206 1 7 8 20 15 28 10 13 8 18 -16 30 -113 58 -286
68 -428 25 -131 -40 -188 -35 -197 16 -1 11 -9 21 -15 24 -9 2 -13 -12 -13
-50z m360 -20 c0 -16 -105 -115 -143 -135 -103 -53 -297 -77 -297 -37 0 7 22
32 50 56 27 24 50 48 50 54 0 6 29 14 69 18 38 3 103 17 143 30 82 27 128 32
128 14z m195 -4 c43 -11 65 -21 65 -31 0 -8 -26 -53 -57 -100 -77 -114 -141
-164 -211 -165 -54 -1 -108 26 -132 64 l-20 33 29 25 c16 14 50 43 75 64 25
21 55 59 67 82 20 43 22 44 70 44 28 0 79 -7 114 -16z m-516 -244 l53 0 -7
-37 c-3 -21 -16 -56 -28 -78 -19 -35 -28 -40 -61 -43 -33 -3 -43 2 -77 38 -34
35 -39 47 -39 87 l0 46 53 -7 c28 -3 76 -6 106 -6z"/>
<path d="M4535 13275 c-54 -53 -20 -100 109 -155 128 -55 206 -123 247 -215
14 -32 18 -56 14 -78 -8 -40 -57 -193 -84 -267 -24 -63 -24 -63 -11 -55 19 12
77 138 110 239 30 89 32 106 28 186 -6 107 -28 157 -99 229 -122 125 -257 174
-314 116z"/>
<path d="M4391 13007 c-8 -10 3 -28 50 -75 l60 -62 -21 -30 -22 -30 -39 27
c-21 16 -42 38 -45 51 -8 30 -28 23 -32 -11 -3 -21 6 -36 35 -63 43 -40 141
-94 173 -94 49 0 101 47 129 116 10 26 9 39 -6 85 -17 50 -20 54 -53 57 l-35
4 22 -24 c12 -13 25 -35 28 -50 6 -24 4 -28 -14 -28 -48 0 -191 95 -191 126 0
18 -24 18 -39 1z"/>
<path d="M4748 12388 c-15 -35 -37 -100 -49 -146 -24 -94 -37 -106 -111 -117
-33 -5 -48 -12 -48 -23 0 -12 11 -14 69 -9 76 6 110 21 116 52 2 11 11 63 21
115 10 52 23 109 31 127 7 18 13 39 13 48 0 31 -16 13 -42 -47z"/>
<path d="M4164 12081 c9 -10 27 -21 39 -24 150 -36 216 -68 217 -104 0 -25 40
-53 75 -53 33 0 75 -27 75 -48 0 -25 -75 -62 -124 -62 -26 0 -39 8 -65 40 -24
30 -39 40 -61 40 -29 0 -70 29 -70 50 0 5 -9 34 -20 64 -18 46 -25 54 -51 58
-16 3 -28 2 -27 -1 2 -3 14 -28 27 -56 13 -27 30 -66 40 -85 11 -24 30 -42 61
-56 25 -12 59 -36 76 -54 25 -26 42 -34 82 -38 43 -4 61 1 121 29 39 19 71 39
71 45 0 6 -17 35 -38 65 -31 44 -46 57 -85 69 -25 8 -54 25 -62 38 -9 12 -28
28 -43 36 -36 18 -205 66 -233 66 -21 0 -21 -1 -5 -19z"/>
<path d="M7345 10088 c-26 -82 -55 -395 -55 -598 0 -139 25 -520 35 -549 3 -8
15 -75 26 -150 11 -75 24 -154 30 -175 6 -22 19 -87 30 -145 10 -58 27 -153
38 -211 11 -58 25 -134 32 -170 6 -36 27 -146 46 -245 38 -199 53 -381 34
-436 -15 -46 -56 -89 -85 -89 -33 0 -68 31 -94 83 -22 44 -45 63 -63 51 -13
-8 38 -92 86 -143 37 -38 49 -44 84 -44 52 0 85 23 113 76 28 54 35 170 18
286 -15 105 -93 533 -120 656 -20 93 -54 261 -95 470 -48 239 -81 677 -71 944
6 188 20 355 32 385 3 9 1 16 -5 16 -7 0 -13 -6 -16 -12z"/>
<path d="M5805 8848 c-55 -31 -95 -64 -95 -77 0 -16 21 -14 40 4 29 26 127 55
185 55 95 0 136 -34 194 -163 17 -38 43 -79 58 -93 30 -28 87 -46 120 -38 21
6 24 10 23 32 -1 4 -12 6 -26 4 -32 -5 -73 39 -120 129 -67 127 -118 161 -249
166 -79 3 -95 0 -130 -19z"/>
<path d="M5843 8146 c-86 -27 -166 -97 -156 -135 8 -32 30 -32 126 0 51 16
130 35 177 40 47 5 89 14 94 19 11 11 -1 30 -18 30 -8 0 -16 9 -19 19 -9 37
-122 52 -204 27z"/>
<path d="M5870 7901 c-37 -20 -152 -117 -159 -134 -2 -6 6 -8 19 -4 18 5 32
-4 65 -38 34 -34 52 -45 88 -50 57 -9 124 19 156 64 27 38 19 39 -32 4 -69
-48 -160 -33 -203 33 -16 24 -16 26 7 50 22 23 69 54 84 54 3 0 5 -22 5 -49 0
-89 63 -111 104 -36 11 22 22 42 23 44 1 2 14 -6 29 -18 15 -12 29 -19 32 -17
10 11 -10 37 -58 75 -59 47 -102 53 -160 22z"/>
<path d="M7603 4446 c-90 -76 -195 -244 -280 -448 -92 -222 -100 -241 -137
-303 -20 -33 -52 -79 -72 -103 -30 -36 -41 -43 -67 -40 -24 2 -38 13 -62 46
-30 43 -30 45 -28 160 2 76 10 149 23 207 32 141 33 145 22 145 -18 0 -59
-146 -82 -288 -22 -137 10 -280 70 -312 27 -14 86 -12 119 4 62 32 198 282
295 541 61 163 104 243 173 322 67 76 81 115 26 69z"/>
<path d="M12585 7800 c0 -4293 1 -6049 2 -3902 2 2146 2 5658 0 7805 -1 2146
-2 390 -2 -3903z"/>
<path d="M7960 15289 c-54 -15 -90 -31 -90 -40 0 -17 24 -21 62 -8 31 10 58
10 126 2 87 -11 149 -37 264 -109 68 -43 199 -103 268 -124 36 -10 114 -23
174 -29 59 -6 126 -16 147 -23 30 -8 42 -9 51 0 18 18 -42 38 -167 57 -203 29
-276 57 -400 151 -147 111 -309 157 -435 123z"/>
<path d="M8430 14870 c0 -15 15 -23 73 -41 85 -25 150 -57 232 -113 69 -47
115 -68 200 -91 33 -9 74 -20 91 -26 17 -5 41 -9 54 -9 13 0 46 -6 74 -14 118
-33 156 -37 156 -16 0 10 -81 36 -285 89 -128 34 -169 50 -279 110 -103 56
-282 131 -311 131 -3 0 -5 -9 -5 -20z"/>
<path d="M8774 14586 c-9 -24 15 -57 54 -73 20 -9 85 -22 144 -29 74 -9 126
-22 163 -39 70 -33 91 -28 35 9 -57 38 -203 92 -270 101 -30 4 -70 15 -88 26
-27 15 -34 16 -38 5z"/>
<path d="M10535 5919 c-33 -4 -102 -22 -154 -39 -226 -74 -387 -185 -635 -438
-176 -179 -225 -234 -226 -250 0 -25 40 8 189 156 179 178 235 226 363 314
193 133 307 179 456 186 93 4 113 1 187 -23 107 -35 177 -91 263 -210 110
-151 171 -301 203 -494 11 -68 25 -105 38 -97 21 14 -52 323 -112 471 -97 239
-207 345 -431 414 -37 12 -71 20 -75 20 -3 -1 -33 -5 -66 -10z"/>
<path d="M10270 5533 c-108 -29 -283 -123 -366 -196 -16 -14 -50 -43 -76 -64
-209 -172 -315 -269 -305 -279 9 -9 23 -1 112 71 137 109 348 270 395 301 25
16 47 31 50 35 9 10 134 56 215 79 103 29 197 23 276 -16 77 -39 196 -120 252
-173 131 -123 275 -415 296 -601 29 -240 5 -725 -60 -1237 -27 -213 -35 -363
-20 -363 16 0 16 2 36 175 9 83 23 191 30 240 8 50 19 144 25 210 6 66 17 185
25 265 27 259 30 323 29 520 -1 221 -12 287 -71 434 -38 95 -106 225 -133 254
-9 9 -33 40 -54 67 -56 75 -113 133 -156 160 -21 13 -41 29 -45 35 -10 16
-113 66 -174 84 -68 20 -206 20 -281 -1z"/>
<path d="M4464 1700 c-6 -14 -21 -153 -32 -310 -12 -157 -33 -388 -47 -515
-17 -166 -26 -320 -31 -552 l-7 -323 30 0 31 0 5 318 c3 174 11 378 17 452 5
74 15 207 20 295 5 88 14 228 20 310 14 187 10 362 -6 325z"/>
</g>
</svg>
