<?xml version="1.0" standalone="no"?>
<!DOCTYPE svg PUBLIC "-//W3C//DTD SVG 20010904//EN"
 "http://www.w3.org/TR/2001/REC-SVG-20010904/DTD/svg10.dtd">
<svg version="1.0" xmlns="http://www.w3.org/2000/svg"
 width="533.000000pt" height="711.000000pt" viewBox="0 0 533.000000 711.000000"
 preserveAspectRatio="xMidYMid meet">
<metadata>
Created by potrace 1.16, written by Peter Selinger 2001-2019
</metadata>
<g transform="translate(0.000000,711.000000) scale(0.100000,-0.100000)"
fill="#000000" stroke="none">
<path d="M2140 7023 c-21 -26 -24 -74 -9 -122 3 -11 -11 -13 -69 -12 -125 4
-192 -31 -192 -101 0 -35 3 -40 43 -58 23 -10 55 -22 70 -25 28 -6 27 -6 -47
-83 -137 -143 -175 -194 -236 -319 -33 -67 -64 -124 -69 -127 -14 -9 -25 11
-81 139 -59 138 -107 226 -147 273 l-28 33 -200 -71 c-203 -71 -548 -193 -729
-258 -96 -34 -99 -36 -77 -51 62 -41 224 -342 283 -526 69 -212 117 -381 133
-464 14 -70 14 -96 5 -153 l-12 -69 -32 8 c-88 22 -179 -12 -206 -77 -12 -30
-11 -37 9 -75 23 -43 96 -94 137 -96 36 -1 -16 -17 -76 -24 -108 -12 -203 -92
-186 -158 17 -68 107 -127 194 -127 29 0 52 -4 52 -10 0 -5 -11 -10 -25 -10
-46 0 -130 -39 -169 -79 -55 -56 -59 -103 -14 -155 31 -35 40 -40 91 -44 32
-2 59 -7 61 -11 2 -3 -3 -41 -11 -85 -8 -43 -11 -82 -6 -87 4 -4 69 -33 143
-64 208 -88 220 -93 220 -102 0 -4 -37 -55 -82 -113 -210 -268 -320 -471 -417
-770 -21 -62 -41 -213 -41 -302 0 -200 42 -395 115 -536 80 -154 127 -222 207
-298 52 -50 172 -132 205 -140 16 -5 33 -24 52 -63 16 -31 67 -104 113 -161
116 -145 172 -226 198 -288 22 -51 20 -83 -3 -51 -29 40 -150 118 -234 152
-239 95 -447 84 -563 -32 -57 -57 -75 -112 -68 -214 3 -49 12 -87 29 -119 34
-66 139 -179 239 -257 47 -36 90 -71 97 -77 6 -6 47 -29 90 -52 162 -84 370
-133 478 -112 68 14 137 46 178 84 15 14 31 26 35 25 4 0 20 -28 37 -62 39
-80 113 -160 190 -202 33 -18 107 -48 165 -65 151 -45 268 -45 443 -2 204 51
308 112 411 241 58 72 70 99 39 86 -111 -47 -206 -70 -405 -100 -115 -17 -320
-20 -396 -5 -133 25 -302 115 -368 196 l-37 44 19 63 c45 156 7 402 -91 579
-44 80 -136 192 -192 233 -23 16 -42 33 -42 36 -1 4 33 10 74 14 107 10 281
57 365 100 75 38 89 37 90 -7 0 -27 55 -141 85 -176 15 -18 50 -46 78 -62 76
-43 141 -172 153 -306 10 -106 -17 -156 -162 -302 -81 -81 -117 -125 -130
-158 -17 -44 -17 -47 4 -89 25 -51 86 -100 146 -116 99 -27 568 27 788 90 85
24 93 28 93 51 0 29 -24 38 -107 39 -32 1 -58 6 -58 11 0 6 4 10 9 10 5 0 51
33 103 73 111 84 195 177 241 264 34 68 42 71 107 53 42 -11 139 -95 170 -146
56 -89 3 -225 -150 -387 -100 -106 -110 -122 -110 -174 0 -51 30 -97 86 -133
73 -46 113 -50 384 -40 410 16 627 40 703 77 31 15 35 43 10 65 -19 17 -116
27 -260 29 -46 1 -83 4 -83 8 1 3 33 26 73 50 184 114 273 196 371 341 78 116
104 216 72 278 -20 39 -105 116 -157 142 -24 13 -57 32 -73 43 -37 26 -123
158 -137 210 -9 35 -8 43 10 68 104 140 83 367 -44 476 -55 48 -97 64 -185 71
l-75 7 -3 52 c-3 49 -1 53 27 67 17 9 42 16 56 16 14 0 43 9 65 20 22 11 50
20 62 20 13 1 39 10 58 20 19 11 55 29 80 40 81 38 220 191 220 243 0 8 10 36
21 62 40 89 7 212 -70 264 -13 9 -40 33 -60 55 -20 21 -56 50 -81 64 -25 14
-47 27 -49 29 -2 1 8 17 22 36 43 56 87 192 87 267 0 15 15 50 34 78 38 56 76
171 76 227 0 28 13 57 54 118 127 193 172 350 170 602 0 100 -5 156 -17 196
l-17 57 31 66 c44 94 56 194 34 290 -20 93 -57 146 -131 187 -41 24 -54 36
-49 48 4 9 9 42 12 73 5 48 3 59 -11 64 -17 7 -76 85 -76 102 0 5 18 17 40 27
56 25 70 45 83 116 11 55 16 64 49 85 20 13 42 34 49 46 19 36 6 173 -25 251
l-27 67 21 62 c39 113 52 190 52 303 0 83 -5 121 -19 155 -41 101 -75 121
-223 128 -129 6 -205 -7 -328 -53 -51 -19 -102 -35 -115 -35 -21 0 -46 14
-117 66 -51 38 -141 32 -235 -16 -91 -46 -154 -106 -245 -231 -90 -123 -138
-178 -178 -201 l-29 -18 -21 58 c-54 147 -212 321 -398 437 -91 57 -104 69
-156 146 -139 207 -358 331 -428 242z m175 -20 c67 -34 210 -180 262 -268 38
-65 49 -75 130 -123 376 -223 528 -570 407 -932 -25 -74 -44 -108 -44 -79 0
31 -51 121 -94 166 -24 27 -74 66 -110 88 -36 22 -64 45 -62 50 4 17 68 34
129 34 61 1 67 9 47 56 -7 17 -9 15 -9 -12 -1 -33 -1 -33 -54 -33 -33 0 -67
-7 -92 -20 -59 -30 -115 -8 -115 45 0 19 14 29 88 61 48 20 101 38 119 38 17
0 31 4 30 9 -1 4 20 17 46 27 78 30 80 34 51 91 -14 28 -31 52 -39 55 -8 4
-32 -7 -52 -23 -61 -48 -225 -153 -239 -153 -37 0 -187 83 -297 165 -57 43
-74 51 -86 42 -20 -17 -52 -97 -46 -117 6 -20 110 -65 265 -115 63 -21 123
-42 133 -47 19 -10 23 -49 7 -79 -10 -17 -7 -19 19 -19 40 0 73 -15 147 -67
75 -52 160 -142 179 -188 14 -32 21 -115 10 -115 -3 0 -26 13 -52 29 -62 38
-100 47 -267 66 -159 17 -205 28 -236 53 -38 30 -14 64 125 181 37 31 38 33
13 27 -27 -6 -124 -101 -163 -159 -30 -45 -32 -115 -5 -150 34 -43 211 -157
244 -157 20 0 46 15 82 45 28 25 57 45 63 45 6 0 11 5 11 10 0 17 -10 12 -72
-35 -33 -25 -70 -45 -82 -45 -29 0 -181 91 -181 108 0 7 14 22 30 33 29 20 22
19 -37 -4 -32 -13 -53 1 -60 38 -8 42 12 47 87 24 45 -14 64 -24 55 -29 -7 -4
25 -6 71 -3 82 5 229 -11 229 -26 0 -4 -5 -12 -12 -19 -8 -8 -8 -12 -1 -12 6
0 16 6 22 14 15 18 53 7 96 -29 l30 -25 -55 -50 c-47 -43 -56 -48 -65 -34 -27
42 -34 46 -19 10 18 -45 21 -41 -76 -88 -100 -48 -166 -67 -266 -80 -175 -21
-398 17 -560 97 -85 41 -127 73 -120 90 3 8 -2 11 -14 8 -25 -7 -100 37 -134
78 -70 82 -108 210 -109 359 0 156 34 275 121 420 51 84 146 213 207 279 41
45 121 90 165 92 14 1 -15 7 -65 13 -103 14 -132 27 -145 62 -20 52 32 93 129
101 75 7 127 -9 184 -56 40 -33 138 -81 165 -81 4 0 -30 21 -74 48 -131 76
-164 111 -164 173 0 35 17 60 50 72 23 9 70 -3 125 -30z m1518 -427 c82 -62
116 -70 185 -40 131 56 254 79 376 70 173 -12 215 -62 216 -251 0 -98 -14
-189 -42 -275 -11 -36 -22 -66 -23 -68 -1 -1 -42 36 -91 84 -72 69 -105 94
-179 129 -104 50 -174 75 -213 75 -15 0 -34 4 -42 10 -11 7 -8 11 15 20 52 21
159 50 182 50 22 0 40 16 30 27 -9 8 -149 -25 -217 -52 -88 -35 -198 -96 -328
-182 -184 -122 -352 -193 -466 -196 l-60 -2 -12 65 c-7 36 -13 68 -13 72 -1 4
8 9 18 13 39 12 149 139 225 260 11 17 48 58 82 92 87 86 178 131 266 132 38
1 54 -5 91 -33z m-2416 -48 c48 -75 74 -125 98 -195 l19 -52 -27 -27 c-15 -15
-27 -32 -27 -39 0 -6 28 -34 62 -60 35 -27 58 -50 51 -52 -6 -2 -49 14 -97 36
-130 60 -123 60 -147 6 -19 -42 -22 -45 -37 -32 -33 29 -60 30 -87 3 -31 -31
-32 -70 -3 -90 33 -23 57 -20 87 13 l28 30 59 -14 c32 -8 85 -14 116 -15 31 0
60 -4 63 -10 3 -5 1 -10 -5 -10 -7 0 -37 -7 -67 -16 -54 -16 -55 -17 -49 -47
10 -51 21 -54 70 -19 24 18 47 32 50 32 3 0 6 -24 7 -52 0 -29 11 -93 23 -143
22 -82 22 -91 7 -99 -35 -20 -81 -79 -92 -118 -8 -30 -8 -58 1 -106 9 -52 9
-67 -2 -73 -7 -5 -15 -9 -18 -9 -3 0 -20 -13 -37 -29 -17 -16 -49 -32 -70 -36
-21 -3 -155 -35 -298 -71 -142 -35 -262 -60 -266 -56 -4 4 -17 54 -29 112 -23
104 -40 166 -118 410 -54 169 -175 416 -249 508 -31 38 -32 43 -16 48 32 10
115 41 228 85 61 23 182 66 270 95 88 29 225 76 305 104 80 27 147 50 150 50
3 0 24 -28 47 -62z m2663 -259 c49 -11 154 -51 210 -79 60 -31 175 -136 222
-202 60 -84 78 -135 85 -234 l6 -83 -33 -18 c-54 -29 -70 -50 -70 -88 0 -44
-21 -86 -56 -114 -39 -31 -48 -26 -63 27 -15 58 -59 145 -105 209 -19 26 -38
61 -41 76 -4 15 -11 30 -16 33 -5 3 -9 21 -9 40 0 99 -91 181 -160 144 -15 -8
-25 -5 -46 15 -15 14 -45 28 -68 32 -30 5 -50 17 -79 49 -31 34 -49 44 -83 50
-24 3 -57 1 -74 -4 -16 -6 -30 -9 -30 -7 0 8 139 102 195 132 66 36 128 42
215 22z m-270 -186 c52 -30 70 -116 28 -132 -19 -8 -28 -4 -51 20 -33 34 -28
33 -72 15 -24 -10 -46 -33 -71 -73 -61 -97 -104 -117 -143 -67 -32 40 -27 77
16 125 28 31 42 39 59 35 17 -5 24 0 34 24 24 58 139 89 200 53z m-216 -28
c-4 -8 -17 -18 -31 -21 -14 -4 -45 -24 -70 -45 -24 -22 -51 -39 -59 -39 -20 0
-91 -36 -132 -67 -35 -26 -48 -24 -62 13 -15 38 -3 50 59 62 32 5 110 33 172
60 131 57 130 57 123 37z m364 -65 c42 -19 53 -35 30 -42 -16 -6 -15 -72 1
-92 7 -9 22 -16 32 -16 31 0 43 -45 30 -111 -8 -39 -8 -65 -1 -83 12 -34 56
-51 89 -36 13 6 25 9 27 7 3 -2 -8 -31 -23 -63 -24 -52 -28 -73 -31 -181 -3
-99 -7 -123 -18 -123 -8 0 -46 29 -84 65 -38 36 -74 65 -80 65 -6 0 -8 5 -5
11 11 17 -4 59 -20 59 -11 0 -14 -7 -9 -26 6 -25 5 -25 -37 -22 l-44 3 3 42
c3 32 -2 47 -18 63 -28 28 -48 15 -21 -14 25 -26 26 -47 7 -85 -50 -95 -254
-48 -282 66 -10 40 14 80 59 99 35 15 38 18 20 22 -12 2 -39 -4 -59 -14 -30
-15 -37 -15 -45 -3 -12 19 -11 29 1 29 6 0 10 7 10 15 0 19 -29 20 -44 1 -9
-13 -19 -13 -65 -2 l-54 12 46 40 c26 23 62 64 80 92 24 34 38 47 45 40 5 -5
26 -10 46 -11 40 -1 86 35 113 88 37 72 99 100 123 55 12 -23 57 -27 84 -7 9
7 19 26 21 42 2 17 4 31 4 33 2 7 31 -1 69 -18z m166 -40 c35 -13 59 -54 62
-103 1 -23 10 -57 19 -76 17 -32 17 -36 1 -65 -23 -43 -79 -80 -110 -72 -28 7
-39 38 -25 73 23 62 0 146 -46 163 -38 15 -34 56 8 74 39 18 58 19 91 6z
m-664 -73 c0 -58 -40 -123 -120 -194 -56 -51 -75 -61 -138 -77 -40 -10 -75
-16 -78 -13 -2 2 1 36 8 76 12 72 12 72 57 92 24 11 68 42 98 70 51 48 148
103 165 93 4 -3 8 -24 8 -47z m820 -239 c48 -75 79 -155 80 -208 0 -33 8 -57
30 -90 16 -25 30 -49 30 -53 0 -4 -21 -17 -47 -29 -37 -16 -70 -21 -142 -22
l-94 -1 -3 80 c-3 109 10 180 51 269 19 41 35 82 35 90 0 31 26 15 60 -36z
m-2592 -75 c28 -44 56 -148 46 -165 -5 -7 -123 -3 -130 5 -2 2 -8 26 -13 53
-11 56 5 108 42 136 12 10 23 18 23 18 1 0 16 -21 32 -47z m1719 26 c50 -19
73 -48 73 -94 0 -57 33 -103 99 -137 65 -34 121 -36 176 -7 79 41 165 19 239
-61 49 -54 112 -82 196 -88 72 -5 173 16 227 48 37 21 43 18 43 -25 0 -51 -47
-133 -99 -171 -77 -57 -142 -76 -256 -77 -106 -1 -160 14 -222 63 -23 18 -35
20 -92 14 -40 -4 -83 -2 -109 5 -54 15 -115 76 -138 139 -10 26 -19 49 -20 51
-2 2 -23 -6 -46 -18 -59 -28 -127 -36 -173 -21 -44 14 -103 64 -116 97 -8 21
-13 23 -47 17 -44 -7 -128 24 -158 58 -18 19 -17 20 12 46 16 15 47 49 68 77
36 48 41 51 124 72 96 24 176 29 219 12z m-1609 -147 c23 -21 70 -55 105 -75
62 -37 236 -97 342 -119 30 -6 55 -14 54 -17 0 -3 -16 -19 -35 -34 l-34 -29
-72 17 c-40 9 -110 27 -154 41 -69 21 -83 29 -88 49 -9 34 -42 63 -103 91 -41
18 -53 29 -53 46 0 13 -3 33 -6 46 -4 12 -5 22 -2 22 2 0 23 -17 46 -38z
m1180 -91 c20 -17 56 -36 80 -43 33 -10 42 -18 42 -35 0 -12 5 -33 11 -47 10
-21 8 -29 -15 -58 -36 -48 -41 -86 -21 -147 19 -59 45 -81 95 -81 28 0 43 -8
69 -35 48 -51 100 -75 164 -75 47 0 56 -3 75 -29 29 -39 83 -57 131 -42 55 16
109 68 130 125 15 41 24 51 55 61 21 8 48 23 61 35 l24 22 48 -23 c58 -29 203
-38 295 -19 57 13 150 60 185 95 16 16 17 16 24 -1 18 -44 5 -126 -32 -209
-19 -43 -99 -175 -106 -175 -4 0 -15 7 -25 17 -23 21 -25 18 -44 -53 -31 -122
-104 -244 -169 -284 -38 -23 -62 -21 -90 10 -27 30 -40 24 -56 -22 -15 -47
-86 -128 -112 -128 -8 0 -22 7 -31 15 -22 22 -29 19 -65 -25 -52 -65 -88 -54
-154 48 -56 84 -95 121 -175 162 -35 18 -66 40 -69 49 -17 54 -32 79 -82 136
-31 34 -70 81 -88 103 -53 65 -155 92 -221 58 -30 -15 -31 -15 -50 12 -31 45
-33 61 -16 129 20 80 13 127 -22 165 -33 33 -81 37 -145 11 -39 -15 -46 -15
-115 2 -41 10 -74 22 -74 27 0 8 52 43 119 80 22 12 31 25 31 42 0 22 9 27 84
51 46 15 113 44 148 65 34 21 64 39 66 39 2 1 20 -12 40 -28z m-1359 -75 c40
-41 126 -86 180 -93 29 -4 52 1 85 17 l46 22 117 -32 c65 -18 174 -47 243 -67
69 -19 169 -46 223 -60 54 -14 96 -27 94 -30 -2 -2 -51 -15 -108 -29 -88 -21
-111 -23 -152 -14 -93 20 -173 6 -213 -37 -17 -18 -49 -31 -120 -49 -120 -30
-150 -30 -248 -1 -69 21 -80 27 -92 55 -10 26 -19 32 -43 32 -17 0 -34 -7 -39
-16 -7 -13 -15 -14 -53 -4 -53 14 -69 26 -69 51 0 21 37 59 58 59 7 0 29 -12
47 -26 71 -54 170 -77 232 -53 34 13 44 28 37 54 -17 56 -84 92 -201 108 -79
10 -87 13 -104 42 -34 54 -19 104 32 105 8 0 30 -15 48 -34z m1563 -6 c9 -16
35 -42 57 -57 34 -24 39 -32 33 -53 -20 -74 16 -168 78 -202 67 -37 184 -1
237 70 l23 31 47 -21 c39 -17 59 -20 119 -14 41 3 76 2 79 -3 8 -14 -50 -51
-88 -58 -29 -4 -35 -10 -45 -48 -30 -114 -156 -170 -223 -99 -18 20 -20 26 -9
39 19 23 5 30 -30 15 -77 -32 -193 14 -226 90 -18 41 -34 52 -34 25 0 -10 -10
-15 -33 -15 -47 0 -69 28 -75 93 -3 48 -1 55 33 94 34 41 36 44 21 65 -16 23
-21 60 -9 71 13 14 28 6 45 -23z m-1742 -7 c1 -25 12 -63 34 -113 4 -10 -3
-19 -22 -28 -31 -13 -52 -49 -52 -87 0 -30 6 -29 -71 -6 -35 10 -151 41 -256
68 -106 26 -193 50 -193 53 0 4 100 30 223 59 122 30 245 60 272 67 28 6 53
13 58 13 4 1 7 -11 7 -26z m1177 -40 c3 -7 -18 -23 -49 -36 -29 -13 -67 -36
-84 -50 l-31 -26 -91 22 c-51 12 -92 25 -92 30 0 4 14 21 32 37 24 22 35 27
45 19 7 -7 26 -8 45 -5 120 25 219 29 225 9z m812 -67 c7 -8 11 -23 9 -33 -2
-12 2 -17 12 -14 50 14 87 12 110 -7 23 -19 24 -22 10 -47 -38 -71 -154 -105
-218 -65 -54 34 -81 129 -46 164 20 21 107 22 123 2z m-2542 -39 c24 -7 47
-17 52 -22 9 -10 61 -184 61 -207 0 -7 5 -20 10 -28 8 -12 25 0 92 66 120 116
101 109 215 79 54 -15 123 -33 153 -41 30 -8 105 -30 165 -49 61 -18 136 -41
168 -50 45 -12 57 -20 53 -31 -3 -9 -11 -56 -16 -104 -6 -49 -17 -122 -25
-162 -9 -40 -29 -152 -46 -248 l-29 -175 -91 -91 c-51 -51 -89 -96 -85 -102 3
-5 33 -13 66 -17 69 -8 66 2 44 -138 -8 -56 -18 -117 -20 -136 -5 -33 -6 -33
-47 -27 -48 8 -217 64 -231 76 -13 13 10 68 47 114 122 150 209 313 258 482
25 86 29 118 29 215 -1 141 -11 189 -56 258 l-36 53 -51 -6 c-146 -19 -337
-66 -460 -113 -104 -40 -103 -53 3 -64 94 -10 162 -48 198 -108 25 -42 27 -55
27 -151 0 -92 -3 -111 -24 -150 -30 -56 -111 -155 -233 -283 l-94 -99 -94 38
c-52 21 -104 47 -115 59 -11 11 -46 63 -78 116 l-57 95 24 110 c13 60 36 181
51 269 15 88 33 189 40 225 7 36 20 108 29 160 39 223 31 209 103 187z m3624
-42 c128 -65 165 -261 82 -432 -76 -156 -217 -263 -415 -314 -106 -27 -174
-37 -138 -21 38 18 73 48 107 95 43 61 88 157 98 209 6 34 9 37 34 32 25 -5
32 0 65 51 21 31 54 91 74 133 35 72 37 83 37 175 0 53 1 97 3 97 1 0 25 -11
53 -25z m-3413 -12 c45 -9 82 -19 82 -23 0 -7 -137 -133 -150 -138 -5 -2 -13
20 -19 48 -6 28 -15 59 -20 68 -4 9 -11 30 -15 46 -6 26 -5 28 16 22 13 -3 60
-14 106 -23z m1717 -23 c18 -20 18 -26 -1 -178 -6 -48 -4 -57 29 -110 54 -88
68 -130 70 -208 2 -69 0 -76 -60 -195 -113 -228 -157 -257 -403 -270 -85 -4
-184 -15 -220 -23 -85 -20 -116 -20 -167 4 -38 17 -43 23 -43 52 0 64 39 93
168 124 39 9 72 21 72 26 0 11 -21 10 -99 -3 -85 -13 -164 3 -203 41 -71 71 0
148 157 171 196 28 213 48 63 72 -118 20 -169 42 -183 81 -24 69 65 128 198
130 45 0 101 -2 125 -7 33 -6 42 -4 42 7 0 9 -33 27 -86 47 -133 50 -166 111
-84 154 66 34 225 5 309 -56 24 -18 62 -36 85 -40 22 -4 51 -10 64 -14 37 -12
26 14 -13 31 -25 10 -35 21 -35 36 0 37 41 109 74 129 42 26 117 26 141 -1z
m-2054 -37 c11 -11 -16 -172 -31 -187 -17 -17 -101 12 -137 47 -76 72 -8 163
115 153 24 -2 48 -8 53 -13z m1359 -120 c0 -9 18 -33 39 -53 l39 -38 -41 -6
c-76 -12 -119 -30 -153 -62 -28 -26 -34 -39 -34 -73 0 -23 5 -51 10 -62 16
-28 81 -58 144 -65 31 -4 54 -10 51 -14 -2 -4 -34 -10 -69 -13 -69 -7 -133
-34 -172 -72 -26 -26 -32 -74 -14 -119 11 -29 60 -64 103 -73 25 -5 39 -23 18
-23 -5 0 -19 -16 -31 -35 -25 -41 -20 -93 13 -123 53 -47 136 -51 274 -11 37
10 69 17 71 14 2 -2 -6 -25 -18 -50 -15 -32 -20 -54 -15 -73 4 -15 8 -46 8
-70 l2 -43 -96 -33 c-168 -59 -150 -63 -206 51 -27 54 -55 98 -62 98 -7 0 -25
-22 -40 -50 -16 -27 -42 -72 -59 -100 -17 -27 -40 -66 -51 -86 -18 -32 -28
-38 -83 -52 -35 -9 -66 -13 -69 -9 -5 6 11 115 35 248 l7 36 57 -4 c70 -4 70
0 18 119 -35 78 -36 84 -27 140 6 32 15 87 21 123 6 36 19 103 29 150 11 47
27 139 36 205 29 199 25 190 98 209 163 41 167 41 167 19z m-481 -129 c34 -52
45 -123 43 -260 -2 -111 -32 -222 -97 -362 -79 -167 -141 -248 -375 -487 -119
-121 -239 -249 -267 -285 -48 -62 -163 -246 -163 -262 0 -4 -11 -31 -24 -60
-95 -213 -125 -477 -77 -698 78 -358 355 -638 736 -741 17 -5 -19 -6 -86 -3
-64 3 -138 12 -163 19 -179 54 -356 152 -438 244 -70 78 -172 242 -206 331
-46 119 -82 319 -82 450 0 148 51 368 119 515 16 33 32 71 36 84 4 14 27 58
51 99 24 40 44 76 44 78 0 7 131 193 181 255 113 144 170 211 255 299 200 206
239 274 239 415 0 79 -4 97 -29 148 -34 71 -97 121 -174 138 -28 7 -50 15 -47
18 23 23 375 107 458 110 34 1 40 -3 66 -45z m-939 -19 c10 -12 10 -35 -2
-117 l-14 -103 -44 -7 c-59 -10 -113 6 -157 46 -41 37 -46 74 -16 114 33 44
94 68 209 81 6 0 17 -6 24 -14z m2350 -10 c42 -15 89 -59 101 -94 5 -14 25
-37 44 -50 54 -37 79 -86 78 -156 -1 -56 -8 -120 -18 -172 -3 -12 -16 -34 -29
-50 -13 -15 -27 -44 -31 -63 -8 -36 -46 -103 -65 -115 -6 -4 -18 -24 -26 -45
-9 -21 -38 -59 -65 -84 -27 -25 -49 -49 -49 -55 0 -11 -76 -55 -123 -70 -18
-6 -49 -28 -68 -47 -49 -52 -100 -72 -189 -73 -87 -1 -124 16 -165 76 -14 21
-37 53 -50 72 -16 21 -25 48 -25 70 0 20 -3 52 -6 71 -4 27 0 43 18 70 23 34
26 35 103 41 44 3 81 5 83 3 2 -1 -4 -13 -13 -27 -24 -38 0 -43 27 -6 13 17
49 44 81 61 33 16 72 43 88 59 64 65 144 212 189 348 35 105 38 135 12 127
-14 -5 -21 5 -36 45 -11 34 -14 55 -8 61 14 14 74 27 92 21 8 -3 31 -11 50
-18z m1537 -272 c4 -16 7 -95 7 -178 -1 -122 -5 -167 -24 -240 -50 -197 -132
-331 -310 -505 -235 -230 -453 -323 -717 -306 -246 17 -613 173 -776 331 -64
61 -75 85 -42 85 8 0 39 20 69 44 30 25 83 59 118 77 71 36 179 135 209 192
11 22 35 60 54 85 18 26 37 63 43 82 5 19 21 52 35 73 14 21 29 59 32 85 10
72 25 122 36 122 24 0 109 -52 148 -92 56 -56 82 -115 82 -184 0 -53 11 -70
23 -38 3 9 6 28 6 43 l0 28 49 -23 c27 -13 61 -38 75 -55 15 -17 29 -29 33
-26 5 6 -6 25 -41 72 -6 8 0 25 19 49 27 35 28 36 52 20 31 -19 71 -6 106 36
20 24 33 28 103 34 111 9 302 59 371 95 32 17 85 51 118 76 72 54 111 60 122
18z m-3928 -34 c8 -23 -25 -185 -43 -208 -13 -17 -87 -10 -121 13 -81 53 -30
155 102 202 51 18 52 17 62 -7z m1102 -367 c7 -20 20 -51 30 -69 10 -18 15
-34 11 -36 -11 -6 -176 14 -185 23 -10 9 112 132 124 125 4 -3 13 -22 20 -43z
m297 -317 c-9 -9 -180 -56 -193 -53 -8 2 11 42 53 112 l66 110 39 -82 c22 -46
38 -85 35 -87z m365 -15 c68 -84 108 -104 184 -95 l52 6 68 -72 c84 -88 154
-137 297 -205 355 -168 626 -200 879 -102 105 40 262 146 375 252 58 55 92 82
92 71 0 -43 -55 -174 -96 -229 -60 -81 -120 -129 -229 -181 -281 -136 -739
-181 -1110 -109 -146 28 -292 63 -355 86 -63 23 -65 24 -70 63 -9 63 -2 59
-150 98 -81 21 -220 73 -296 108 -49 24 -73 30 -98 25 -30 -6 -39 -2 -79 37
-25 25 -57 63 -72 86 -33 54 -25 65 64 90 36 11 131 38 211 61 80 23 168 50
195 60 28 10 57 19 65 19 9 1 41 -30 73 -69z m-963 -68 c63 -21 115 -43 115
-48 0 -5 -13 -12 -30 -17 -90 -26 -133 -41 -155 -55 -14 -9 -43 -25 -65 -36
-21 -11 -72 -51 -112 -90 -135 -129 -166 -266 -101 -454 25 -73 42 -105 84
-153 64 -74 117 -114 164 -124 19 -4 62 -16 94 -26 33 -10 76 -19 97 -19 43 0
46 -3 51 -49 l3 -34 -80 -27 c-279 -93 -453 -269 -544 -548 l-29 -87 -37 40
c-262 283 -308 740 -115 1153 84 178 171 294 372 496 105 104 133 127 151 123
12 -3 74 -23 137 -45z m330 -99 c13 -25 47 -68 74 -95 l49 -48 -31 -68 c-16
-37 -33 -82 -37 -99 -4 -18 -11 -33 -16 -33 -41 0 -188 173 -214 251 -17 50
-17 53 1 67 19 14 134 72 144 72 3 0 16 -21 30 -47z m-250 -1 c0 -5 -46 -55
-103 -113 -138 -140 -156 -201 -96 -315 39 -75 60 -97 134 -142 57 -34 65 -36
150 -36 77 -1 98 3 148 26 32 15 71 37 87 48 l29 21 87 -51 c48 -27 108 -57
133 -66 95 -33 111 -43 111 -67 0 -51 60 -147 125 -200 217 -179 614 -272
1080 -253 399 16 683 142 755 333 26 69 22 109 -15 165 -15 22 -24 42 -21 45
14 15 67 -14 113 -63 28 -30 56 -54 61 -54 6 0 29 -21 51 -46 63 -72 76 -140
42 -222 -11 -26 -22 -59 -25 -75 -11 -48 -176 -207 -216 -207 -6 0 -27 -11
-48 -24 -20 -14 -55 -28 -77 -32 -22 -4 -58 -15 -80 -25 -22 -10 -50 -19 -63
-19 -12 0 -34 -7 -48 -17 -15 -9 -50 -17 -82 -18 -31 -2 -104 -10 -161 -19
-119 -18 -219 -20 -300 -6 -51 8 -133 18 -371 41 -94 9 -144 20 -179 38 -12 7
-29 10 -36 7 -18 -7 -111 16 -187 47 -34 14 -84 32 -109 41 -25 9 -69 37 -98
61 -29 25 -58 45 -66 45 -14 0 -95 84 -95 100 0 5 -22 31 -49 57 -37 37 -50
58 -54 88 -4 22 -15 57 -26 79 -14 27 -18 50 -15 77 3 22 2 39 -4 39 -5 0 -29
-18 -53 -40 -24 -22 -47 -40 -51 -40 -4 0 -26 -13 -50 -29 -85 -58 -120 -66
-273 -66 -114 0 -146 3 -172 18 -18 9 -41 17 -53 17 -35 0 -73 25 -135 89 -68
70 -78 86 -111 184 -53 155 -20 286 102 410 38 38 89 79 114 91 25 12 57 30
72 40 15 10 47 24 70 31 52 17 58 17 58 7z m48 -79 c16 -79 112 -211 198 -273
33 -24 44 -38 49 -69 4 -22 13 -45 21 -52 19 -16 4 -34 -55 -63 -112 -56 -212
-58 -316 -7 -72 36 -107 74 -136 152 -19 49 -19 54 -4 107 15 49 30 69 118
159 56 56 104 102 107 103 4 0 11 -26 18 -57z m515 -109 c120 -50 231 -88 287
-98 57 -11 89 -27 95 -46 10 -31 -38 -190 -87 -287 -18 -37 -66 -44 -150 -23
-130 32 -255 92 -340 163 -45 36 -48 42 -48 85 0 101 70 252 116 252 8 0 65
-21 127 -46z m2157 -103 c0 -27 -34 -149 -50 -180 -62 -121 -249 -215 -530
-268 -121 -23 -569 -28 -710 -9 -268 36 -524 85 -541 104 -4 4 8 50 28 102 19
52 36 101 39 109 5 14 15 13 104 -13 77 -23 206 -54 330 -78 150 -29 497 -36
670 -14 263 34 517 127 615 225 31 31 45 38 45 22z m-115 -374 c31 -54 32 -92
1 -160 -31 -71 -94 -130 -187 -177 -91 -46 -277 -97 -404 -110 -267 -28 -688
8 -875 75 -240 86 -372 178 -420 291 -25 57 -26 77 -2 70 52 -15 74 -17 107
-6 30 10 49 8 118 -9 77 -19 179 -38 407 -77 63 -11 178 -18 345 -21 217 -4
268 -2 388 16 169 25 337 73 414 117 32 18 63 33 70 33 7 1 24 -19 38 -42z
m-2140 -139 c4 -18 13 -44 20 -58 7 -14 18 -45 25 -69 8 -29 26 -58 56 -86 24
-24 44 -47 44 -51 0 -15 69 -90 96 -104 29 -15 82 -54 133 -100 24 -22 29 -35
34 -98 4 -40 16 -90 26 -110 10 -20 21 -66 25 -101 4 -36 18 -92 32 -124 13
-33 21 -63 18 -68 -13 -22 -99 -61 -165 -75 -80 -17 -187 -14 -249 7 -42 15
-98 50 -104 65 -2 7 19 36 48 66 35 36 61 76 81 123 27 65 29 80 29 210 1 124
-2 147 -22 197 -26 65 -82 127 -144 160 -39 21 -57 23 -198 24 -128 2 -156 4
-158 17 -5 25 24 44 115 73 58 18 112 45 162 80 42 28 79 52 83 53 3 0 10 -14
13 -31z m-80 -229 c98 -19 156 -77 196 -196 37 -111 16 -293 -46 -398 -30 -51
-127 -143 -203 -192 -62 -39 -174 -95 -180 -89 -2 2 17 25 42 50 120 124 163
287 115 442 -25 79 -71 142 -134 178 -60 35 -167 59 -237 53 -57 -5 -157 -44
-190 -74 -29 -26 -29 -11 0 42 54 100 221 175 442 199 44 5 129 -2 195 -15z
m-694 -238 c-53 -125 -70 -351 -36 -497 8 -37 13 -69 11 -72 -8 -7 -147 83
-188 122 l-36 36 14 60 c19 83 58 173 107 244 44 66 137 169 145 161 3 -2 -5
-27 -17 -54z m406 37 c20 -10 29 -26 40 -67 18 -73 76 -185 125 -244 36 -43
39 -52 33 -85 -15 -86 -113 -224 -195 -276 -85 -55 -137 -53 -308 8 l-87 31
-17 70 c-40 164 -31 382 17 457 57 86 157 130 283 123 45 -2 94 -10 109 -17z
m139 -87 c42 -47 89 -210 66 -225 -23 -14 -142 206 -142 263 0 23 0 23 27 6
14 -10 37 -29 49 -44z m813 -26 c24 -9 64 -18 90 -22 25 -3 73 -14 105 -25 33
-11 111 -24 175 -29 277 -24 320 -29 391 -39 77 -11 97 -11 280 9 87 10 112 9
145 -2 37 -13 40 -17 37 -49 -2 -28 2 -37 22 -46 59 -27 82 -106 56 -192 -24
-79 -49 -118 -118 -182 -77 -71 -154 -110 -303 -155 -121 -36 -128 -37 -279
-36 -233 1 -343 34 -431 129 -24 27 -79 82 -121 124 -92 90 -133 169 -144 276
-4 38 -13 79 -21 90 -8 12 -18 46 -22 75 -7 44 -6 57 7 72 19 21 72 22 131 2z
m1436 -237 c75 -38 106 -69 138 -136 26 -55 31 -78 31 -142 0 -68 -4 -85 -38
-154 -59 -120 -208 -263 -368 -350 -73 -41 -116 -56 -248 -93 -131 -36 -300
-38 -410 -4 -170 52 -265 129 -337 272 -39 78 -59 150 -46 163 3 3 21 -7 39
-21 32 -24 33 -27 17 -39 -10 -7 -16 -14 -13 -14 3 -1 28 -2 55 -4 28 -1 88
-10 135 -19 54 -11 135 -17 224 -17 124 0 150 3 240 29 204 59 268 92 367 191
49 49 93 122 113 187 4 12 21 34 38 48 20 17 27 30 21 36 -6 6 -14 5 -23 -6
-20 -24 -26 -18 -40 30 -7 25 -17 48 -22 51 -4 3 -6 10 -2 15 8 14 80 1 129
-23z m-1985 -260 c86 -52 321 -50 422 3 13 6 34 21 47 31 l25 19 36 -38 c20
-21 62 -62 93 -92 l57 -53 0 -64 c0 -62 -1 -65 -32 -84 -91 -56 -273 -83 -409
-62 -92 14 -224 69 -270 111 -44 42 -90 135 -97 199 -4 41 -2 48 24 68 l29 23
25 -22 c14 -13 36 -30 50 -39z m-875 -118 c38 -11 82 -20 97 -20 42 0 147 -78
215 -160 75 -90 146 -225 174 -335 26 -99 35 -250 20 -330 -25 -134 -107 -245
-221 -299 -55 -26 -76 -30 -145 -30 -81 1 -211 29 -289 62 l-39 17 79 1 c104
0 168 28 230 98 55 63 112 176 118 236 7 63 -10 169 -40 259 -42 120 -80 183
-218 354 -92 115 -116 148 -116 159 0 14 64 8 135 -12z m1579 -197 c4 -10 25
-49 48 -86 49 -81 136 -163 215 -202 32 -16 60 -30 62 -32 8 -6 -85 -121 -146
-180 -122 -118 -349 -238 -547 -288 -181 -45 -247 -51 -339 -31 -144 32 -142
55 19 213 83 83 122 129 145 175 29 58 31 67 27 147 -4 66 -13 103 -36 160
-17 41 -29 77 -27 80 3 2 45 -1 94 -7 167 -22 294 -9 398 43 58 29 79 31 87 8z
m1408 -75 c37 -75 99 -141 171 -181 34 -20 79 -50 99 -69 l37 -33 -20 -62
c-33 -105 -153 -265 -264 -352 -215 -169 -381 -251 -640 -317 -85 -22 -263
-25 -317 -6 -75 27 -61 67 67 203 116 123 165 212 165 303 0 70 -17 112 -65
160 -21 21 -33 41 -29 46 5 5 78 27 163 50 228 60 320 108 499 258 35 29 72
52 85 52 18 0 29 -12 49 -52z m-3204 -34 c165 -40 346 -161 403 -268 34 -65
20 -73 -66 -37 -146 61 -330 79 -415 40 -107 -49 -164 -124 -163 -218 0 -31 7
-75 16 -99 8 -24 11 -42 5 -40 -19 7 -104 84 -159 145 -82 90 -103 140 -104
238 0 100 21 145 89 194 98 70 231 85 394 45z m2182 -244 c0 -50 -138 -216
-245 -295 -242 -179 -495 -275 -724 -275 -103 0 -156 17 -201 65 -29 30 -20
43 17 25 16 -7 73 -15 129 -18 209 -10 462 73 708 232 80 52 213 182 263 258
25 38 53 42 53 8z m-1954 -48 c39 -11 100 -34 135 -53 l64 -34 -1 -61 c-1 -51
-7 -73 -38 -130 -59 -107 -113 -157 -201 -183 -70 -21 -74 -21 -145 -5 -165
37 -221 88 -249 226 -22 105 23 187 133 240 57 27 67 29 146 24 47 -3 117 -14
156 -24z m3318 -8 c20 -52 -9 -135 -92 -259 -102 -154 -282 -295 -538 -421
-216 -106 -446 -151 -565 -109 -44 16 -109 60 -109 74 0 4 27 2 60 -5 164 -34
488 44 691 167 219 132 323 221 437 371 43 57 92 157 92 188 0 16 17 11 24 -6z
m-2772 -439 c67 -60 152 -106 268 -147 91 -31 101 -33 240 -32 80 1 179 7 220
13 156 26 295 54 333 67 22 8 42 12 45 10 7 -8 -52 -75 -105 -119 -137 -114
-424 -187 -624 -158 -223 31 -380 126 -455 273 -19 37 -34 73 -34 80 0 14 40
58 53 58 5 0 32 -20 59 -45z"/>
<path d="M1043 4436 c-98 -77 -163 -139 -163 -155 0 -14 26 -24 128 -49 145
-37 162 -38 162 -16 0 34 -68 254 -78 253 -4 0 -26 -15 -49 -33z m64 -73 c32
-102 37 -133 21 -133 -18 0 -146 31 -187 45 l-34 12 83 71 c46 40 86 72 90 72
3 0 16 -30 27 -67z"/>
<path d="M1998 3319 c-40 -22 -57 -162 -23 -199 55 -61 252 -132 307 -111 14
5 29 15 33 20 4 7 22 9 46 5 49 -8 69 7 69 51 0 27 -6 37 -34 55 -19 11 -36
30 -38 42 -2 17 -16 24 -73 38 -68 17 -163 53 -235 90 -24 12 -41 15 -52 9z
m91 -58 c68 -34 173 -71 200 -71 26 0 51 -10 51 -21 0 -5 -17 -6 -38 -3 -29 4
-43 2 -55 -11 -25 -24 -21 -43 14 -76 52 -49 21 -62 -79 -33 -67 19 -124 47
-169 81 -27 20 -33 31 -33 62 0 50 18 101 37 101 8 0 40 -13 72 -29z"/>
</g>
</svg>
