<?xml version="1.0" standalone="no"?>
<!DOCTYPE svg PUBLIC "-//W3C//DTD SVG 20010904//EN"
 "http://www.w3.org/TR/2001/REC-SVG-20010904/DTD/svg10.dtd">
<svg version="1.0" xmlns="http://www.w3.org/2000/svg"
 width="613.000000pt" height="678.000000pt" viewBox="0 0 613.000000 678.000000"
 preserveAspectRatio="xMidYMid meet">
<metadata>
Created by potrace 1.16, written by Peter Selinger 2001-2019
</metadata>
<g transform="translate(0.000000,678.000000) scale(0.100000,-0.100000)"
fill="#000000" stroke="none">
<path d="M3715 6641 c-28 -5 -66 -26 -117 -64 -85 -64 -127 -73 -186 -37 -34
21 -100 26 -130 11 -9 -5 -69 -26 -132 -46 -63 -21 -138 -50 -166 -66 -31 -18
-66 -29 -89 -29 -51 0 -99 -25 -143 -75 -27 -31 -52 -47 -87 -58 -136 -41
-231 -105 -300 -200 -25 -33 -45 -67 -45 -73 0 -20 21 -28 31 -13 19 32 57 77
101 121 61 61 204 133 247 123 27 -6 32 -2 65 48 45 67 89 92 151 83 37 -6 46
-3 72 22 42 38 111 66 284 114 77 22 108 20 143 -7 19 -15 19 -15 0 -37 -34
-39 -49 -77 -36 -90 12 -12 25 -2 54 43 9 15 50 45 90 67 40 22 93 58 118 80
52 47 101 58 176 42 112 -25 179 -60 264 -139 14 -13 45 -33 70 -44 25 -12 79
-55 120 -97 41 -41 80 -75 85 -76 53 -4 190 -36 230 -54 273 -120 276 -121
310 -189 27 -55 55 -142 55 -174 0 -24 14 -44 74 -101 71 -67 136 -157 185
-254 24 -46 51 -204 51 -294 0 -103 -39 -245 -75 -270 -6 -4 -12 -92 -15 -210
-5 -198 -6 -204 -33 -254 -67 -123 -229 -278 -377 -361 -67 -38 -171 -73 -217
-73 -27 0 -37 -7 -57 -37 -70 -111 -233 -188 -426 -203 -91 -7 -215 1 -228 15
-3 2 2 28 9 57 12 51 16 438 5 457 -3 4 -9 35 -15 69 -12 73 -83 236 -142 325
-49 73 -108 137 -126 137 -7 0 -13 4 -13 9 0 5 54 7 124 4 79 -4 147 -1 189 7
64 12 67 11 99 -13 57 -43 200 -75 236 -53 27 16 -1 34 -61 38 -60 4 -138 33
-143 53 -2 6 22 23 53 39 66 33 123 76 123 92 0 27 -32 21 -72 -13 -166 -138
-474 -153 -753 -36 l-79 33 -124 -25 c-68 -14 -147 -35 -175 -46 -29 -12 -72
-28 -97 -36 -46 -16 -174 -79 -222 -110 -26 -16 -27 -16 -60 9 -18 14 -52 35
-75 46 -65 33 -66 57 -24 420 11 95 25 190 30 210 31 116 51 214 46 223 -4 5
-18 9 -33 9 -27 0 -27 -1 -27 -69 0 -74 -19 -111 -57 -111 -10 0 -21 -7 -24
-15 -9 -23 15 -47 39 -39 17 5 19 3 13 -22 -21 -93 -55 -442 -56 -575 0 -9
-20 -22 -53 -34 -59 -21 -146 -98 -182 -160 -40 -70 -88 -224 -82 -264 11 -87
76 -163 150 -178 18 -4 32 -15 38 -30 12 -33 12 -35 -10 -28 -11 3 -22 1 -26
-5 -10 -16 16 -42 35 -37 10 3 24 -7 36 -25 28 -42 89 -68 160 -68 81 0 146
21 224 72 51 34 72 56 98 103 32 57 33 63 27 130 -3 38 -9 83 -12 99 -5 25 -3
28 13 22 11 -4 31 -10 45 -13 23 -4 26 -2 26 27 0 28 -3 31 -23 26 -13 -4 -26
-1 -29 4 -4 6 -15 8 -25 5 -31 -10 -44 59 -36 190 4 60 10 113 14 117 4 4 54
25 112 47 123 46 300 85 348 77 47 -7 210 -88 252 -125 19 -17 42 -33 50 -36
23 -8 102 -130 153 -235 72 -150 89 -252 85 -497 -4 -213 -12 -251 -81 -403
-61 -135 -209 -299 -311 -346 -77 -35 -174 -57 -226 -51 -153 18 -315 79 -427
161 -68 50 -148 147 -148 180 0 33 -18 31 -37 -3 l-18 -32 53 -56 c80 -85 87
-92 162 -142 74 -50 231 -116 303 -127 61 -9 56 -35 -18 -104 -59 -56 -174
-125 -191 -114 -5 3 -9 13 -9 23 0 10 -9 26 -20 36 -19 17 -21 17 -71 -4 -84
-36 -261 -55 -398 -41 -97 9 -117 8 -136 -4 -16 -11 -22 -22 -18 -36 6 -22 6
-22 -117 -4 -62 9 -149 49 -187 86 -39 37 -70 34 -51 -6 8 -20 8 -29 -2 -41
-10 -12 -8 -16 13 -24 35 -14 41 -28 17 -41 -26 -14 -17 -30 16 -30 33 0 31
-28 -3 -32 -37 -4 -40 -26 -6 -39 l28 -12 -24 -6 c-37 -10 -37 -30 1 -45 26
-12 30 -16 16 -21 -9 -4 -22 -4 -28 0 -6 4 -19 0 -28 -8 -12 -10 -49 -16 -122
-20 -88 -4 -118 -10 -187 -37 -88 -35 -174 -102 -213 -164 -30 -50 -51 -140
-52 -226 -1 -88 27 -165 73 -205 16 -13 29 -27 29 -30 0 -7 -271 0 -329 7 -39
5 -36 -21 4 -38 29 -12 77 -15 213 -15 97 0 181 -4 187 -8 5 -5 73 -41 149
-80 92 -47 150 -71 173 -71 79 0 143 56 143 124 0 37 9 42 60 38 8 -1 258 -4
555 -6 297 -3 662 -10 810 -15 529 -20 1062 -33 1170 -29 106 3 110 4 113 26
3 22 1 23 -45 18 -122 -13 -291 -16 -438 -7 -88 6 -302 13 -475 16 -173 3
-376 10 -450 15 -106 7 -1027 25 -1263 25 -45 0 -48 2 -58 34 -13 38 -4 235
12 288 12 39 35 47 106 38 43 -5 65 -3 94 11 33 14 45 15 77 5 20 -7 72 -13
115 -15 77 -2 78 -2 95 -36 23 -46 61 -53 225 -46 198 9 363 53 400 106 12 18
34 19 418 19 222 1 477 4 567 7 143 6 167 10 194 28 20 14 56 69 110 171 133
250 153 287 204 373 27 46 55 93 63 106 15 23 9 62 -8 52 -23 -15 -112 -166
-244 -418 -153 -289 -149 -285 -268 -234 -11 5 -18 1 -21 -12 -5 -16 -19 -20
-98 -25 -140 -10 -918 -8 -924 2 -3 5 9 16 28 25 78 37 223 143 307 223 70 67
105 111 151 190 34 57 64 103 68 103 4 0 23 46 43 103 27 77 38 126 43 200 6
91 10 102 43 152 20 30 52 89 70 132 l33 78 176 0 c171 0 180 1 257 30 99 36
193 88 223 122 20 24 25 25 46 14 16 -9 22 -19 19 -32 -7 -24 18 -25 58 -2 39
23 37 37 -6 30 -33 -5 -47 5 -25 18 16 10 12 38 -5 31 -52 -21 -51 -21 -32 1
12 13 40 25 75 31 75 13 201 73 282 132 84 63 225 208 281 290 l44 65 3 195
c2 185 4 197 27 243 54 102 73 243 55 404 -10 92 -18 120 -51 186 -56 112
-130 215 -193 271 -35 29 -56 56 -56 69 0 33 -47 178 -73 222 -19 33 -39 48
-117 87 -159 80 -269 118 -406 144 -11 2 -51 32 -88 68 -37 35 -91 76 -119 91
-29 16 -88 56 -132 90 -63 48 -96 66 -155 82 -95 27 -135 32 -185 24z m-1194
-1870 c55 -34 108 -96 116 -133 4 -19 12 -28 25 -28 29 0 32 26 9 65 -12 20
-21 38 -21 40 0 6 87 65 95 65 4 0 3 -39 0 -88 -6 -76 -4 -100 19 -186 17 -65
26 -123 26 -175 0 -68 -4 -83 -29 -122 -64 -102 -244 -168 -344 -125 -45 19
-68 48 -74 95 -5 38 -4 40 31 55 34 14 47 38 26 51 -5 3 -23 -1 -39 -10 -95
-49 -211 26 -211 137 0 71 69 233 123 290 93 98 169 120 248 69z m299 -1766
c5 -14 17 -56 25 -93 29 -125 83 -286 132 -389 8 -18 13 -39 10 -47 -7 -17
-97 -52 -175 -67 -87 -17 -309 -23 -342 -9 -32 13 -49 44 -116 217 -47 119
-102 349 -88 363 5 4 43 3 84 -3 95 -13 318 5 393 32 68 25 66 25 77 -4z
m-847 -358 c56 -30 128 -59 160 -66 71 -15 75 -36 15 -77 -38 -27 -47 -29
-122 -27 -110 4 -132 -6 -145 -67 -6 -26 -13 -101 -17 -166 -5 -97 -3 -130 11
-177 24 -81 15 -124 -30 -143 -49 -20 -73 -17 -135 16 -30 16 -88 45 -128 65
-95 45 -197 126 -225 179 -18 33 -22 57 -22 131 0 126 17 176 85 246 93 95
202 137 363 138 88 1 89 1 190 -52z"/>
<path d="M2645 2929 c-16 -6 -88 -11 -160 -13 -110 -3 -130 -6 -133 -20 -4
-18 86 -290 125 -377 24 -53 31 -60 67 -70 72 -20 274 4 305 36 14 13 13 20
-3 63 -54 138 -52 125 -27 159 31 42 24 72 -21 95 -30 16 -38 26 -43 61 -13
78 -33 90 -110 66z"/>
<path d="M1915 6216 c-151 -37 -404 -168 -515 -266 -19 -17 -45 -39 -58 -47
-13 -9 -30 -29 -38 -45 -22 -42 -70 -219 -84 -308 -13 -86 -20 -108 -67 -208
-29 -59 -33 -75 -23 -87 22 -27 43 -18 37 14 -4 20 -2 31 8 35 8 3 22 24 31
46 12 31 21 40 38 39 40 -4 56 1 56 17 0 13 -8 15 -35 12 -27 -3 -34 -1 -30
10 3 7 5 17 5 22 0 5 16 10 35 12 43 4 46 20 5 31 -40 10 -38 25 3 29 37 4 42
19 10 33 -13 5 -23 18 -23 27 0 21 1 21 34 8 17 -6 27 -6 32 1 8 14 -15 39
-38 39 -23 0 -21 20 15 133 26 83 70 131 195 214 80 54 243 142 287 156 11 4
47 16 80 27 78 26 91 25 129 -6 22 -20 31 -35 31 -58 0 -25 5 -32 23 -34 20
-3 22 0 17 21 -5 20 -3 24 16 23 33 -1 34 21 1 38 -16 8 -48 31 -71 50 -24 20
-46 36 -49 35 -4 0 -29 -6 -57 -13z"/>
<path d="M2494 6117 c-2 -7 0 -53 6 -103 5 -49 10 -93 10 -97 0 -9 239 -250
285 -288 44 -35 98 -106 91 -118 -7 -11 -64 -41 -79 -41 -6 0 -19 8 -29 17
-14 12 -21 14 -30 5 -16 -16 -3 -39 32 -57 29 -15 33 -15 63 4 128 82 280 126
477 137 113 7 121 9 114 29 -14 35 -260 9 -441 -46 -17 -5 -42 -7 -55 -4 -13
3 -108 91 -211 195 l-187 188 0 69 c0 38 5 74 11 80 7 7 9 19 6 27 -8 19 -56
21 -63 3z"/>
<path d="M4105 5806 c-22 -8 -94 -25 -175 -42 -47 -10 -89 -20 -95 -24 -5 -4
-44 -15 -85 -25 -41 -9 -94 -25 -117 -36 -24 -10 -46 -19 -51 -19 -4 0 -28
-20 -52 -45 -24 -25 -49 -45 -55 -45 -17 -1 -75 -58 -75 -75 0 -15 35 -22 42
-7 5 11 100 88 129 103 15 8 45 24 68 37 23 12 81 36 129 53 218 75 420 104
557 80 76 -13 102 -4 73 25 -13 13 -44 17 -150 20 -73 2 -137 2 -143 0z"/>
<path d="M1901 5564 c-36 -15 -65 -66 -55 -97 14 -46 34 -58 86 -51 30 4 48 3
48 -4 0 -5 -7 -12 -14 -15 -8 -3 -20 -25 -26 -49 -10 -37 -9 -48 9 -85 11 -24
25 -43 31 -43 5 0 10 -13 10 -29 0 -17 4 -32 9 -36 12 -7 -5 -63 -27 -87 -23
-28 -76 -23 -101 8 -18 23 -19 29 -6 53 20 39 40 53 72 49 39 -4 45 29 7 38
-20 5 -40 0 -71 -16 -47 -25 -51 -24 -83 31 -13 22 -53 31 -83 20 -48 -19 -72
-105 -41 -149 33 -47 -25 -176 -72 -158 -25 10 -28 37 -10 91 18 50 18 52 -3
86 -24 39 -26 49 -8 49 14 0 39 26 57 59 6 12 18 21 26 21 9 0 31 15 50 34 44
44 47 95 8 131 -43 40 -103 26 -125 -27 -16 -40 -27 -43 -53 -19 -20 19 -25
20 -35 7 -16 -19 -6 -36 20 -36 20 0 26 -15 9 -25 -6 -4 -17 -1 -25 5 -22 19
-32 -16 -11 -39 15 -17 15 -19 -6 -34 l-23 -15 23 -21 c30 -29 28 -43 -13 -87
-33 -35 -35 -41 -35 -104 0 -51 -6 -81 -25 -122 -15 -32 -25 -71 -25 -99 0
-29 -6 -51 -15 -59 -9 -8 -12 -22 -8 -41 7 -38 -12 -38 -25 1 -8 21 -16 28
-26 24 -9 -3 -16 -13 -16 -21 0 -26 21 -55 36 -49 16 6 19 -19 3 -29 -10 -7
-12 -39 -10 -211 1 -89 -1 -94 -43 -180 -55 -111 -156 -348 -156 -366 0 -7 -9
-35 -19 -63 -43 -114 -71 -333 -71 -561 0 -140 3 -190 15 -218 19 -44 43 -56
61 -32 7 10 18 15 23 11 19 -11 25 26 7 43 -16 16 -18 16 -31 -2 -14 -18 -15
-18 -25 10 -12 31 -14 276 -4 414 8 102 43 270 80 377 35 106 167 398 197 437
14 19 15 19 42 -2 15 -12 42 -22 59 -22 30 0 33 -3 49 -60 21 -69 66 -114 135
-133 24 -6 49 -21 57 -34 24 -36 112 -76 173 -78 49 -2 55 -5 73 -34 11 -18
37 -40 57 -49 20 -8 46 -29 57 -46 27 -42 109 -85 161 -86 31 0 46 6 64 25 32
34 15 53 -27 28 -28 -15 -35 -16 -74 -3 -51 17 -99 60 -99 89 0 17 -6 21 -34
21 -39 0 -76 37 -76 76 0 28 -16 34 -54 21 -59 -20 -196 35 -196 78 0 18 -16
27 -53 31 -71 9 -136 86 -137 162 0 31 -1 32 -44 32 -65 0 -115 40 -132 105
-11 46 -11 53 9 88 16 29 18 40 9 49 -7 7 -12 23 -12 37 0 29 43 106 67 119
14 8 15 14 4 41 -17 41 -7 114 24 167 20 34 23 50 19 95 -5 47 -2 58 20 84 22
25 27 28 36 15 10 -14 9 -33 -6 -92 -9 -39 2 -75 31 -100 14 -12 25 -27 25
-34 0 -7 12 -26 26 -43 21 -25 33 -31 66 -31 28 0 49 -7 69 -25 69 -58 151
-43 203 37 15 22 22 26 36 18 30 -16 55 -11 80 16 14 14 43 33 66 44 23 10 47
28 53 39 7 13 22 21 37 21 44 0 114 48 114 79 0 8 13 29 29 46 40 41 59 111
43 162 -17 56 -66 103 -108 103 -40 0 -52 -15 -30 -39 25 -27 19 -60 -15 -92
-43 -40 -56 -37 -62 14 -4 36 2 56 47 144 28 57 57 103 64 103 15 0 35 48 28
67 -3 7 -15 13 -26 13 -16 0 -30 -21 -67 -97 -70 -146 -94 -177 -108 -134 -3
11 -24 38 -47 62 -35 36 -38 43 -24 51 56 31 67 80 27 121 -22 23 -145 30
-190 11z m463 -316 c9 -12 16 -40 16 -62 0 -33 -7 -45 -40 -77 -23 -22 -40
-48 -40 -60 0 -31 -37 -59 -78 -59 -27 0 -43 -9 -73 -40 -34 -35 -45 -40 -83
-40 -26 0 -48 6 -56 15 -23 27 -40 16 -69 -49 -16 -36 -40 -72 -55 -81 -34
-23 -81 -14 -119 22 -21 21 -36 27 -63 24 -19 -1 -42 3 -50 9 -36 30 4 103 45
81 46 -25 134 4 160 52 11 21 20 25 55 24 51 -2 91 23 116 74 19 37 20 37 97
44 43 4 89 12 103 17 38 14 100 79 100 105 0 29 14 29 34 1z"/>
<path d="M5067 5011 c-52 -78 -153 -131 -252 -131 -48 0 -55 -2 -55 -20 0 -18
7 -20 65 -20 40 0 84 8 117 20 81 30 195 141 181 176 -9 24 -30 15 -56 -25z"/>
<path d="M4737 4354 c-56 -52 -113 -69 -222 -67 -55 0 -111 3 -124 5 -34 5
-37 -18 -5 -39 43 -28 190 -24 269 7 67 26 134 69 135 86 0 6 -6 16 -13 22
-10 8 -20 5 -40 -14z"/>
<path d="M3305 4269 c-25 -14 -41 -17 -43 -10 -5 16 -34 14 -60 -5 -30 -21
-28 -35 5 -32 34 4 45 -27 13 -35 -25 -7 -16 -37 11 -37 16 0 18 -5 13 -25 -6
-24 7 -32 41 -25 58 11 169 -46 201 -105 19 -37 41 -45 50 -20 9 23 -28 77
-81 117 -48 37 -101 53 -160 49 -27 -1 -30 2 -30 28 0 24 7 34 35 49 46 26 88
33 133 22 28 -6 39 -4 49 7 35 43 -105 60 -177 22z"/>
<path d="M1606 3924 c-10 -27 -7 -90 8 -133 12 -32 13 -54 5 -103 -11 -63 -6
-200 11 -321 6 -41 16 -67 28 -77 11 -9 24 -26 31 -38 6 -12 18 -22 26 -22 21
0 18 36 -4 52 -27 19 -61 168 -61 265 0 43 6 106 13 140 11 53 11 67 -1 95 -7
18 -14 61 -14 96 0 52 -3 62 -18 62 -10 0 -21 -7 -24 -16z"/>
<path d="M4627 3594 c-15 -15 -6 -34 16 -34 13 0 28 -5 35 -12 7 -7 85 -12
245 -13 129 -2 244 -6 256 -10 l22 -7 -5 -401 c-5 -435 0 -392 -67 -627 -11
-41 -30 -109 -40 -150 -26 -99 -52 -184 -110 -360 -26 -80 -57 -179 -69 -220
-12 -41 -30 -102 -40 -135 -10 -33 -35 -123 -55 -200 -21 -77 -43 -150 -51
-162 -27 -43 -49 -47 -289 -55 -126 -5 -282 -10 -345 -13 -107 -4 -377 5 -635
23 -119 8 -211 8 -1045 3 -376 -2 -595 1 -680 9 -69 6 -266 14 -438 17 l-313
5 -17 26 c-14 22 -17 48 -14 157 1 75 -4 177 -13 240 -19 139 -21 404 -5 437
7 12 45 66 84 118 74 97 102 140 133 198 9 18 23 30 30 28 7 -3 15 -1 18 4 4
6 17 7 31 4 22 -6 24 -3 24 25 l0 31 -50 -4 c-55 -5 -55 -5 -38 24 15 23 3 38
-19 24 -30 -19 -39 -42 -26 -64 11 -17 8 -28 -24 -82 -44 -75 -88 -139 -162
-232 l-55 -70 3 -176 c1 -109 8 -208 18 -260 17 -91 19 -165 8 -272 -7 -65 10
-151 38 -185 7 -9 47 -13 138 -13 134 0 139 -2 118 -42 -7 -12 -12 -94 -14
-202 -2 -176 -1 -182 22 -217 23 -35 23 -36 7 -80 -30 -79 -38 -425 -12 -495
10 -28 12 -48 6 -58 -9 -17 -2 -56 10 -56 16 1 45 31 47 47 1 23 9 26 43 19
15 -4 56 2 91 11 97 27 99 30 110 268 11 227 12 223 -68 280 -38 27 -50 30
-107 28 -35 -2 -64 1 -64 6 0 19 108 22 235 6 223 -26 381 -30 447 -11 52 15
61 22 92 71 71 111 77 128 77 233 0 53 2 112 6 130 5 30 8 33 37 30 30 -3 31
-5 29 -43 -2 -22 -12 -61 -23 -86 -11 -27 -21 -79 -24 -125 l-5 -79 75 -70 75
-69 122 -7 c67 -4 201 -8 298 -8 261 -1 295 14 340 154 7 22 15 110 18 195 6
153 6 155 30 158 38 6 45 -11 27 -66 -14 -41 -15 -67 -8 -154 18 -218 91 -266
413 -271 101 -2 107 -1 141 25 59 45 86 117 98 255 5 65 10 130 10 146 0 18 5
27 16 27 13 0 14 -7 7 -42 -12 -64 -9 -126 10 -191 9 -32 17 -68 17 -81 0 -31
43 -69 115 -103 59 -27 63 -28 218 -25 l157 2 0 -32 0 -33 -167 3 c-93 2 -188
7 -213 13 -25 6 -63 14 -85 19 -66 15 -147 11 -190 -9 -42 -19 -155 -121 -173
-156 -6 -13 -10 -94 -9 -205 2 -155 4 -185 17 -187 35 -7 41 11 43 144 1 95
-2 137 -12 156 -12 22 -12 28 3 42 9 9 16 23 16 31 0 25 93 116 138 135 57 25
120 24 212 -3 61 -17 99 -21 210 -20 74 1 143 -1 152 -4 19 -6 50 -55 67 -105
15 -46 17 -306 2 -342 -17 -44 -14 -59 12 -55 49 7 55 119 25 445 -8 92 -8
133 1 165 6 24 13 120 15 213 6 235 5 229 12 222 4 -4 6 -188 5 -409 -1 -222
1 -411 5 -421 5 -13 10 -15 20 -7 10 9 12 64 7 278 -6 261 3 562 16 562 3 0 7
-196 8 -435 1 -240 5 -440 8 -445 22 -35 25 24 25 434 0 300 3 447 10 451 8 5
10 -123 7 -417 -2 -234 -1 -430 1 -436 2 -7 10 -12 18 -12 12 0 14 30 14 172
0 94 2 169 6 166 3 -3 7 -70 10 -149 3 -79 7 -150 9 -156 6 -18 25 -16 25 2 0
9 9 15 25 15 l25 0 0 313 c0 318 7 500 20 492 3 -2 7 -178 8 -391 0 -212 3
-389 7 -392 3 -3 10 -1 17 6 8 8 11 122 9 401 0 221 3 391 8 391 11 0 27 -424
22 -606 -3 -123 -1 -142 13 -147 9 -4 16 -2 16 3 0 5 9 17 20 27 18 18 19 37
22 500 2 340 6 485 14 493 15 15 29 -634 19 -842 -5 -98 -4 -148 3 -152 6 -3
13 -2 17 3 16 26 21 422 11 841 -7 267 -6 321 7 350 13 32 15 4 18 -305 2
-187 3 -443 4 -569 0 -166 3 -230 12 -233 17 -6 20 118 14 472 -6 382 -6 441
4 660 16 364 23 204 19 -407 -3 -390 -2 -628 4 -632 13 -8 36 20 28 33 -4 6 3
15 14 21 20 10 20 19 20 393 0 213 5 400 10 422 6 22 13 184 16 360 5 295 8
326 29 400 69 236 98 334 110 370 10 30 15 147 19 477 l5 437 -28 20 c-25 18
-39 20 -152 15 -120 -5 -363 7 -404 21 -11 3 -24 3 -28 -1z m-2782 -2399 c132
-8 250 -15 262 -15 21 0 21 -4 21 -102 0 -57 -4 -120 -9 -141 -14 -52 -84
-161 -116 -178 -36 -19 -241 -16 -438 6 -84 9 -173 14 -202 10 -93 -11 -93
-12 -93 194 l0 179 38 31 37 30 130 0 c72 1 238 -6 370 -14z m1220 -147 c-4
-201 -27 -278 -87 -297 -106 -32 -226 -36 -511 -13 l-118 9 -65 64 -65 64 7
50 c3 28 17 81 30 119 13 38 24 84 24 103 l0 33 128 1 c70 1 179 5 242 9 63 3
183 7 267 8 l152 2 -4 -152z m460 131 c237 -13 250 -16 251 -55 2 -47 -16
-226 -27 -267 -13 -48 -61 -103 -97 -110 -35 -7 -264 10 -318 24 -86 22 -124
86 -131 219 -6 90 7 158 33 185 18 18 40 18 289 4z m850 -209 l0 -195 -50 -7
c-109 -16 -248 -14 -303 5 -65 23 -112 61 -112 91 0 13 -10 54 -22 91 -19 61
-20 76 -10 123 17 82 22 85 122 79 47 -3 132 -2 190 2 58 5 123 8 145 7 l40
-1 0 -195z m-2914 -325 c65 -48 65 -49 37 -332 l-10 -112 -46 -15 c-57 -20
-85 -20 -123 -1 -52 28 -57 61 -44 310 4 72 12 136 18 144 31 38 119 42 168 6z"/>
<path d="M5153 3433 c-3 -10 -16 -40 -28 -68 -24 -53 -72 -211 -86 -285 -5
-25 -22 -83 -38 -130 -40 -115 -101 -315 -101 -328 0 -7 -13 -51 -29 -99 -16
-49 -34 -113 -41 -143 -18 -83 -58 -211 -77 -247 -14 -27 -15 -35 -4 -45 10
-11 17 -8 35 15 13 16 23 34 23 40 1 7 11 44 23 82 12 39 32 117 46 175 13 58
31 125 39 150 57 176 138 438 155 505 12 44 39 133 61 198 45 136 57 197 40
197 -6 0 -14 -8 -18 -17z"/>
<path d="M2435 3391 c-52 -31 -67 -63 -51 -109 22 -66 157 -67 191 -1 21 39
19 64 -8 94 -29 34 -91 42 -132 16z"/>
<path d="M4695 1813 c4 -109 8 -272 10 -363 3 -151 5 -165 21 -165 26 0 30 29
22 183 -4 75 -10 228 -14 340 -6 191 -8 202 -26 202 -19 0 -20 -6 -13 -197z"/>
<path d="M1713 654 c-45 -16 -100 -59 -117 -92 -18 -35 -23 -447 -5 -457 26
-17 32 20 35 221 4 233 5 238 77 274 43 22 50 22 313 15 409 -10 423 -10 506
-1 69 8 79 7 112 -13 19 -12 37 -30 40 -39 8 -30 10 -426 2 -449 -10 -28 21
-45 38 -21 11 16 13 438 2 483 -3 13 -22 37 -43 55 l-37 33 -110 -9 c-61 -4
-133 -8 -161 -7 -529 16 -622 17 -652 7z"/>
<path d="M2870 653 c-68 -12 -86 -85 -83 -345 0 -103 4 -191 7 -197 4 -6 14
-7 23 -4 14 5 15 25 9 170 -6 134 -4 176 9 237 9 41 24 81 32 87 12 10 38 10
131 -3 65 -9 139 -21 166 -28 42 -11 56 -10 112 9 80 26 106 26 129 1 15 -17
17 -31 11 -97 -5 -58 -2 -95 11 -144 16 -62 16 -69 -1 -130 -9 -35 -19 -74
-23 -87 -4 -18 -1 -22 20 -22 49 0 57 64 44 340 -3 58 -6 115 -6 128 -1 33
-53 82 -86 82 -14 0 -55 -10 -89 -22 l-63 -22 -149 23 c-82 13 -156 24 -164
25 -8 2 -26 1 -40 -1z"/>
</g>
</svg>
