<?xml version="1.0" standalone="no"?>
<!DOCTYPE svg PUBLIC "-//W3C//DTD SVG 20010904//EN"
 "http://www.w3.org/TR/2001/REC-SVG-20010904/DTD/svg10.dtd">
<svg version="1.0" xmlns="http://www.w3.org/2000/svg"
 width="650.000000pt" height="650.000000pt" viewBox="0 0 650.000000 650.000000"
 preserveAspectRatio="xMidYMid meet">
<metadata>
Created by potrace 1.16, written by Peter Selinger 2001-2019
</metadata>
<g transform="translate(0.000000,650.000000) scale(0.100000,-0.100000)"
fill="#000000" stroke="none">
<path d="M2093 6038 c-5 -7 -22 -53 -37 -103 -16 -49 -40 -123 -53 -162 l-25
-73 -182 -2 c-112 -2 -181 -7 -181 -13 1 -5 58 -53 128 -105 70 -52 133 -102
142 -110 13 -14 9 -33 -40 -179 -57 -169 -62 -191 -46 -191 13 0 93 53 149 98
82 67 61 23 -81 -166 -38 -51 -77 -98 -86 -105 -22 -15 -138 -154 -313 -374
-76 -94 -176 -210 -223 -257 -116 -117 -113 -139 18 -116 40 7 92 19 115 27
24 8 46 12 49 9 3 -3 -6 -24 -19 -48 -14 -24 -35 -60 -47 -81 -151 -265 -461
-655 -608 -767 -20 -15 -33 -34 -33 -47 0 -19 5 -23 33 -23 30 0 204 45 250
65 29 12 20 -12 -47 -124 -35 -58 -92 -157 -125 -219 -50 -93 -152 -268 -214
-367 -39 -62 -106 -155 -137 -190 -19 -22 -56 -68 -82 -101 -40 -52 -45 -64
-35 -78 11 -15 19 -14 92 12 44 16 107 42 140 58 33 16 63 30 68 32 21 10 -1
-50 -108 -288 -26 -58 -67 -154 -92 -215 -24 -60 -57 -132 -73 -160 -15 -27
-56 -104 -90 -170 -77 -148 -153 -263 -227 -345 -55 -60 -56 -63 -37 -77 15
-12 39 -13 119 -8 140 9 643 63 745 80 47 7 110 16 140 20 30 3 76 11 102 16
26 6 53 9 59 7 6 -2 -28 -34 -77 -70 -149 -112 -148 -111 -135 -136 13 -25 9
-24 146 -12 285 25 440 41 532 53 57 7 104 10 105 5 2 -4 2 -71 0 -148 l-3
-140 -64 0 c-36 0 -128 7 -205 16 -78 9 -143 14 -146 11 -3 -2 2 -31 10 -63 9
-33 27 -108 42 -169 27 -117 121 -411 137 -433 29 -38 415 -97 562 -86 206 15
304 30 441 65 41 11 41 11 68 97 52 163 56 177 76 257 11 44 31 121 45 170 13
50 25 107 25 129 0 44 9 43 -125 12 -41 -9 -116 -16 -182 -16 l-113 0 0 156
c0 143 1 155 18 150 69 -22 320 -66 377 -66 39 0 121 -7 184 -15 135 -18 181
-13 181 19 0 15 -11 28 -32 39 -144 73 -232 127 -208 127 27 0 304 -40 348
-50 23 -5 61 -10 83 -10 35 0 40 -3 35 -17 -4 -10 -10 -77 -13 -151 -5 -112
-9 -134 -24 -142 -37 -20 -54 -144 -24 -174 9 -8 38 -18 65 -22 l50 -7 0 -61
c0 -79 -15 -133 -43 -151 -12 -7 -53 -17 -92 -20 -114 -11 -163 -37 -191 -104
-20 -48 -17 -74 10 -100 38 -36 130 -50 324 -51 246 0 259 8 301 185 12 50 25
137 29 195 l7 105 52 3 c28 2 56 9 62 16 20 23 34 127 22 154 -10 20 -4 47 36
168 35 103 53 145 66 150 13 4 17 12 14 26 -3 11 11 57 32 107 55 125 63 141
72 141 4 0 23 -39 42 -88 20 -48 57 -139 83 -202 26 -63 59 -151 75 -194 l28
-79 -29 -27 c-28 -26 -33 -38 -45 -112 -8 -50 16 -74 84 -83 l51 -7 0 -66 c0
-137 -21 -162 -138 -162 -57 0 -75 -4 -110 -27 -92 -60 -80 -164 23 -193 59
-16 447 -9 486 9 54 26 63 59 67 258 4 175 5 181 26 187 11 3 31 6 43 6 12 0
31 12 43 28 20 24 22 35 17 96 -4 38 -10 73 -16 79 -5 5 -7 56 -4 123 3 62 1
231 -5 376 -7 145 -13 308 -14 363 l-3 99 45 8 c60 10 80 36 80 104 0 47 -3
56 -29 75 -18 13 -32 35 -37 58 -7 33 -6 552 1 559 1 2 18 -6 36 -17 19 -12
51 -21 72 -21 27 0 40 -5 44 -17 4 -10 19 -39 35 -64 15 -25 28 -55 28 -66 0
-47 71 -178 128 -236 68 -70 87 -81 178 -102 38 -9 78 -24 89 -33 52 -46 123
-82 187 -96 44 -10 259 12 328 34 36 11 88 20 116 20 39 0 61 6 90 26 112 77
164 176 184 357 6 52 15 79 38 110 97 136 103 197 38 355 -89 217 -170 361
-230 412 -75 63 -205 131 -303 159 -189 53 -246 78 -313 136 -123 107 -261
151 -402 127 -134 -23 -344 -139 -444 -245 -35 -38 -68 -66 -73 -63 -5 3 -2
25 6 48 9 25 17 99 20 178 l6 135 59 38 c64 40 71 66 12 41 -51 -21 -64 -13
-64 38 0 59 10 72 43 57 59 -27 140 20 153 88 4 19 12 37 19 39 24 9 117 -29
152 -62 35 -33 36 -34 29 -94 -7 -60 -7 -61 24 -78 16 -9 33 -25 36 -34 11
-36 96 -35 129 2 10 11 24 20 32 20 8 0 25 11 39 25 29 29 26 47 -14 108 -19
28 -35 40 -67 48 -38 10 -42 14 -54 57 -26 99 -199 351 -323 467 -128 122
-240 163 -469 173 -129 5 -235 -10 -318 -44 -53 -22 -125 -89 -213 -195 -44
-55 -83 -99 -87 -99 -4 0 -26 -16 -49 -36 -32 -27 -42 -43 -42 -65 0 -36 44
-109 66 -109 11 0 14 -5 10 -16 -3 -9 -9 -34 -13 -57 -3 -23 -18 -60 -32 -81
-21 -32 -26 -53 -28 -110 -1 -66 -3 -71 -25 -74 -22 -2 -142 26 -180 43 -35
15 -18 -23 27 -62 46 -39 88 -64 138 -83 24 -8 27 -13 21 -37 -4 -16 -30 -51
-59 -80 -43 -42 -56 -64 -74 -121 -11 -39 -21 -75 -21 -81 0 -28 -36 -90 -55
-95 -34 -9 -112 -83 -157 -150 -23 -33 -44 -63 -47 -66 -12 -10 -43 -67 -79
-142 -20 -43 -40 -78 -43 -78 -6 0 -115 216 -155 305 -7 17 -40 89 -72 160
-58 127 -77 175 -70 175 3 0 33 -12 69 -26 76 -31 225 -74 255 -74 12 0 27 6
33 14 10 12 5 23 -26 58 -21 24 -41 45 -44 48 -9 8 -125 173 -132 190 -9 19
-37 62 -158 242 -108 163 -244 387 -237 393 3 3 55 -14 117 -37 133 -49 150
-45 102 26 -17 25 -37 49 -44 53 -8 4 -33 35 -58 68 -24 33 -47 64 -52 70
-104 137 -244 343 -329 485 -41 69 -95 157 -119 195 -70 109 -83 152 -33 108
10 -10 37 -31 59 -48 122 -92 137 -91 105 1 -12 32 -34 105 -51 161 -16 57
-32 109 -35 116 -3 10 40 47 130 111 132 96 163 122 154 131 -3 3 -86 8 -185
12 l-180 6 -32 106 c-50 168 -75 241 -82 241 -4 0 -11 -6 -16 -12z m47 -163
c23 -80 61 -197 66 -204 2 -1 59 -2 128 -2 120 2 177 -4 176 -18 -1 -3 -53
-44 -116 -90 -64 -46 -118 -90 -121 -97 -3 -10 58 -223 85 -292 10 -26 -21 -8
-137 82 -60 47 -115 86 -121 86 -6 0 -52 -31 -103 -68 -137 -101 -157 -114
-157 -103 0 6 20 72 45 148 25 75 45 141 45 148 0 6 -54 51 -120 100 -66 49
-120 93 -120 97 0 4 70 9 156 10 l156 3 44 135 c25 74 47 141 50 149 8 23 19
2 44 -84z m31 -693 c32 -62 66 -124 77 -139 31 -44 183 -297 185 -307 1 -6
-25 -15 -58 -22 -101 -20 -136 -32 -370 -123 -123 -48 -231 -78 -340 -95 -148
-22 -184 -25 -191 -15 -3 5 8 26 26 47 17 20 34 42 38 47 4 6 30 37 58 70 28
33 67 83 88 110 20 28 68 82 106 121 83 84 217 263 268 356 20 38 41 67 46 65
5 -2 35 -53 67 -115z m313 -515 c16 -16 36 -52 36 -66 0 -6 -19 -11 -42 -11
-27 0 -116 -25 -233 -66 -104 -36 -219 -74 -255 -85 -36 -11 -87 -27 -113 -36
-84 -27 -493 -71 -509 -55 -5 5 8 27 28 50 l36 42 71 0 c162 0 346 43 587 137
149 58 296 100 358 102 13 1 29 -5 36 -12z m2106 -107 c146 -28 210 -62 309
-163 83 -85 180 -208 208 -261 9 -17 26 -45 39 -61 31 -42 64 -115 64 -145 0
-22 -7 -28 -40 -36 -37 -10 -41 -9 -56 13 -19 30 -109 71 -171 80 -37 5 -47
11 -54 32 -5 14 -32 42 -59 61 -26 19 -56 47 -64 62 -17 28 -64 61 -105 73
-14 4 -42 20 -63 35 -21 16 -57 31 -80 35 -22 4 -59 16 -82 26 -24 11 -64 19
-97 19 -31 0 -73 7 -92 15 -46 19 -104 19 -159 0 -24 -8 -57 -13 -73 -11 -17
1 -43 -2 -58 -7 -57 -19 -45 4 63 114 84 85 104 98 198 119 105 25 243 25 372
0z m-2009 -38 c13 -15 53 -68 88 -117 36 -50 75 -103 88 -119 13 -16 22 -30
20 -32 -5 -5 -81 21 -134 47 -92 45 -82 -14 36 -210 28 -46 51 -90 51 -96 0
-8 -31 -14 -92 -18 -98 -6 -187 -27 -303 -72 -243 -93 -495 -169 -695 -211
-69 -14 -165 -34 -215 -45 -202 -43 -335 -58 -335 -40 0 5 16 29 36 53 65 77
286 420 331 513 11 22 25 50 33 61 17 27 6 58 -18 51 -9 -3 -55 -20 -102 -37
-46 -17 -94 -30 -107 -28 -22 3 -22 4 11 41 34 36 37 37 108 37 124 0 459 42
509 63 19 8 50 17 69 21 19 3 91 27 160 52 197 70 341 112 391 113 38 1 50 -4
70 -27z m1656 -197 c19 -8 61 -15 92 -15 32 0 69 -7 86 -16 17 -9 59 -25 94
-35 35 -10 74 -27 85 -38 12 -10 39 -24 61 -31 24 -8 60 -33 90 -64 28 -28 68
-65 89 -81 34 -27 39 -36 44 -83 4 -46 1 -56 -18 -77 -33 -35 -91 -35 -119 1
-12 15 -21 33 -21 40 0 7 -22 25 -48 39 -29 16 -59 42 -73 65 -20 32 -34 41
-79 54 -30 9 -75 30 -99 46 -41 28 -48 30 -111 24 -50 -5 -82 -2 -122 11 -51
15 -59 16 -108 1 -30 -9 -79 -16 -109 -16 -55 0 -65 -4 -135 -54 -33 -23 -52
-16 -73 30 l-18 36 47 44 c33 31 55 44 76 44 19 0 40 11 60 30 27 25 40 30 84
30 29 0 73 7 98 14 59 19 83 19 127 1z m44 -190 c80 -2 91 -5 145 -38 33 -20
73 -39 89 -43 28 -6 135 -107 135 -128 0 -47 -76 -195 -102 -197 -26 -3 -55 3
-113 23 -33 11 -85 23 -115 27 l-55 6 -8 53 c-5 31 -13 50 -19 46 -6 -4 -7
-24 -3 -50 5 -38 3 -47 -18 -68 -28 -28 -101 -43 -144 -29 -46 15 -45 88 2
113 27 14 60 58 51 67 -10 10 -105 -77 -108 -99 -2 -18 -13 -24 -63 -33 -33
-6 -81 -21 -107 -33 -78 -36 -98 -28 -98 41 0 36 32 107 60 132 14 12 17 25
13 46 -7 38 27 111 66 139 22 15 39 19 63 15 18 -3 58 1 88 9 33 9 75 13 105
9 28 -3 89 -7 136 -8z m-1531 -201 c22 -5 39 -18 56 -46 14 -22 24 -41 22 -43
-2 -1 -57 -8 -123 -13 -127 -12 -159 -21 -405 -112 -308 -114 -506 -164 -853
-215 -174 -25 -467 -43 -467 -27 0 4 12 20 26 36 24 27 34 30 162 47 76 10
144 20 152 23 8 3 114 26 235 50 248 51 466 111 665 184 192 70 298 104 350
112 61 10 141 11 180 4z m2558 -70 c12 -8 22 -19 22 -25 0 -6 7 -17 15 -25 8
-9 15 -26 15 -39 0 -19 -7 -26 -34 -33 -19 -6 -43 -19 -55 -31 -27 -27 -55
-27 -78 2 -10 12 -30 30 -45 40 -31 20 -35 38 -13 57 9 7 13 20 10 28 -3 8 3
20 12 28 24 17 123 16 151 -2z m-2446 -82 c17 -7 53 -58 191 -271 33 -50 70
-103 83 -118 13 -15 24 -31 24 -36 0 -16 -158 37 -253 85 -32 16 -62 26 -67
23 -25 -15 8 -123 85 -275 19 -38 35 -76 35 -83 0 -11 -30 -14 -157 -14 -217
0 -338 -24 -583 -118 -262 -101 -503 -170 -725 -210 -82 -14 -197 -35 -255
-46 -58 -10 -136 -23 -175 -28 -38 -5 -123 -17 -189 -26 -65 -9 -131 -15 -147
-13 l-28 3 66 115 c36 63 83 149 105 190 61 115 88 160 123 215 18 28 50 85
71 127 30 62 36 80 26 90 -10 10 -25 6 -75 -19 -67 -34 -176 -73 -203 -73 -11
0 6 22 47 60 73 68 53 64 334 80 183 11 235 17 485 61 157 28 365 81 485 125
412 149 457 161 605 162 41 0 83 -3 92 -6z m1158 -32 c6 -12 30 -25 55 -32 41
-11 44 -14 38 -37 -14 -62 -67 -85 -193 -85 -100 0 -172 16 -256 55 -59 28
-116 73 -70 56 10 -4 51 -10 90 -13 64 -5 79 -3 151 27 131 53 169 59 185 29z
m421 -22 c64 -21 117 -32 168 -34 40 -2 75 -5 78 -7 7 -7 -140 -66 -209 -83
-98 -25 -258 -1 -310 48 -41 38 -36 56 17 69 24 6 50 17 56 25 19 23 100 16
200 -18z m231 -155 c6 -86 -6 -191 -28 -234 -9 -19 -38 -50 -64 -69 -29 -20
-58 -52 -70 -77 -30 -61 -111 -121 -208 -154 -67 -23 -91 -24 -107 -3 -10 15
-16 14 -54 -11 -56 -35 -116 -60 -165 -69 -37 -7 -38 -7 -32 18 3 13 2 27 -3
30 -5 3 -46 -7 -92 -23 -46 -16 -87 -27 -91 -25 -4 3 -1 16 8 29 20 31 3 41
-39 22 -34 -16 -167 -31 -167 -19 0 4 8 21 18 37 25 41 65 169 60 191 -3 14
-11 18 -31 16 -33 -3 -34 11 -11 101 21 83 39 114 90 160 25 22 45 51 49 69 6
26 10 29 34 24 14 -3 64 -8 111 -12 47 -3 101 -13 120 -22 50 -24 241 -23 287
1 20 11 55 17 95 17 67 0 131 15 213 48 28 11 55 20 61 21 7 1 13 -25 16 -66z
m683 16 c80 -15 159 -57 228 -123 54 -51 67 -58 175 -91 367 -113 445 -169
564 -406 104 -207 128 -272 128 -352 0 -71 -17 -116 -75 -196 -28 -39 -45 -91
-45 -141 0 -42 -14 -96 -42 -167 -14 -37 -38 -69 -80 -108 -58 -54 -61 -55
-118 -55 -32 0 -87 -9 -123 -20 -35 -11 -116 -24 -180 -29 -152 -13 -204 0
-307 74 -25 18 -65 38 -90 45 -25 6 -62 16 -82 21 -51 13 -161 124 -185 187
-9 26 -23 58 -30 72 -7 14 -13 36 -13 51 0 14 -13 46 -30 72 -16 26 -30 52
-30 57 0 5 13 16 29 24 91 48 123 104 124 221 0 69 -3 88 -27 135 -16 30 -36
63 -45 74 -9 11 -16 36 -16 63 -1 37 -6 50 -28 69 -16 13 -38 24 -51 24 -17 0
-32 15 -60 59 -48 78 -116 137 -166 146 -22 4 -43 11 -46 17 -10 16 90 103
180 158 195 117 299 145 441 119z m-590 -310 c22 -6 55 -22 73 -36 41 -31 112
-126 112 -151 0 -34 -72 -88 -155 -116 l-50 -16 -44 46 -43 47 -57 -6 c-68 -6
-87 3 -96 43 -12 54 36 131 115 183 29 19 89 21 145 6z m-1174 -162 c-12 -34
-33 -82 -46 -106 -32 -55 -22 -69 32 -53 21 6 60 12 87 13 42 3 50 0 57 -18 7
-19 13 -21 46 -16 21 3 55 12 77 20 51 17 56 17 56 -7 0 -15 7 -20 29 -20 36
0 157 37 187 57 13 8 53 16 91 18 76 3 155 30 223 75 l44 29 14 -32 c7 -17 18
-34 24 -38 11 -7 7 -25 -26 -102 l-17 -38 35 -14 c58 -24 78 -19 114 27 18 23
32 47 32 54 0 6 6 17 13 23 11 8 19 5 35 -12 19 -20 21 -31 16 -69 -6 -42 -4
-47 24 -68 29 -21 30 -25 34 -119 3 -68 10 -108 24 -136 16 -34 19 -58 17
-174 -2 -74 -5 -136 -8 -139 -15 -15 -134 -21 -435 -21 -184 -1 -345 2 -357 5
-14 4 -23 15 -25 33 l-3 26 -160 -4 c-88 -2 -163 -5 -167 -8 -5 -2 -8 -15 -8
-29 l0 -24 -115 0 -115 0 0 28 c0 42 11 72 26 72 21 0 26 18 11 41 -11 15 -12
29 -6 57 5 20 16 68 25 107 10 45 30 92 55 133 22 35 38 69 36 75 -6 20 -105
-129 -142 -213 -21 -49 -30 -63 -41 -66 -11 -3 -108 119 -154 193 l-31 50 29
64 c44 99 161 279 211 327 24 23 72 55 105 71 58 27 61 28 64 10 2 -11 -6 -48
-17 -82z m1453 -69 c40 -57 3 -103 -140 -173 -103 -51 -121 -54 -152 -25 -46
43 -24 77 74 114 45 17 85 40 110 65 46 45 85 52 108 19z m-2088 -4 c35 -4 43
-10 57 -40 30 -62 31 -62 -115 -57 -218 8 -370 -27 -758 -176 -150 -58 -183
-68 -353 -111 -156 -39 -305 -63 -627 -100 -146 -17 -329 -40 -407 -50 -78
-11 -144 -20 -147 -20 -13 0 -4 20 28 62 l35 45 98 6 c93 6 162 15 418 53 178
27 257 40 300 52 22 6 90 23 150 36 116 26 420 124 640 206 248 92 461 121
681 94z m2133 -130 c65 -82 80 -240 30 -316 -29 -45 -88 -84 -139 -93 -31 -5
-47 -1 -83 19 -79 47 -91 70 -102 197 l-7 86 27 7 c41 11 188 85 210 107 26
25 40 24 64 -7z m-2054 -28 c18 -8 40 -27 48 -43 52 -100 214 -339 265 -392 7
-7 11 -16 8 -19 -7 -7 -118 43 -178 80 -68 42 -84 28 -49 -46 92 -195 111
-239 105 -248 -3 -5 -20 -7 -38 -4 -18 3 -95 0 -171 -8 -116 -12 -167 -23
-295 -64 -189 -61 -387 -131 -477 -170 -173 -74 -425 -145 -648 -182 -419 -70
-964 -179 -1173 -235 -67 -18 -67 -12 -4 108 27 51 64 130 82 177 18 47 37 89
42 95 4 5 8 14 8 21 0 6 20 54 44 105 93 201 139 320 130 342 -9 25 -25 21
-90 -21 -33 -21 -79 -46 -104 -56 -25 -10 -55 -23 -67 -29 -13 -6 -26 -7 -29
-4 -6 6 15 34 91 123 18 21 40 27 199 49 98 14 258 34 355 45 438 50 653 86
816 135 117 36 175 56 420 150 163 62 232 79 450 109 56 8 226 -4 260 -18z
m240 -471 c62 -29 76 -39 70 -53 -4 -9 -16 -41 -27 -69 -23 -62 -31 -70 -45
-40 -6 12 -27 56 -47 98 -33 70 -43 99 -32 99 3 0 39 -16 81 -35z m683 -243
l3 -122 -141 0 -140 0 0 120 0 119 128 3 c70 2 132 3 137 2 6 0 11 -51 13
-122z m856 19 c8 -58 2 -77 -27 -85 -37 -11 -556 -18 -677 -9 l-115 8 -3 62
-3 63 383 3 c211 1 395 3 409 5 24 2 27 -2 33 -47z m-1166 -28 l3 -63 -121 0
-120 0 0 65 0 66 118 -3 117 -3 3 -62z m-391 0 c14 -3 24 -15 28 -34 4 -16 11
-31 16 -34 5 -4 9 -14 9 -24 0 -16 -10 -18 -72 -20 -40 0 -98 -4 -128 -7 -67
-7 -281 -57 -335 -78 -22 -8 -80 -27 -130 -42 -49 -14 -110 -34 -135 -45 -25
-10 -106 -39 -180 -64 -74 -25 -162 -57 -195 -69 -68 -27 -193 -50 -540 -100
-132 -19 -274 -42 -315 -51 -41 -9 -192 -41 -335 -70 -303 -62 -418 -88 -535
-121 -82 -24 -120 -29 -120 -19 0 15 52 106 63 110 52 16 608 138 727 160 195
35 481 86 570 101 182 31 462 109 610 171 247 103 618 221 730 232 95 10 233
12 267 4z m393 -108 l0 -25 168 2 c158 3 167 4 170 23 3 20 10 20 407 20 302
0 406 -3 409 -12 3 -6 8 -39 12 -73 l7 -61 -74 7 c-109 9 -840 10 -1095 1
l-221 -8 -21 41 c-14 29 -19 53 -15 76 l6 34 123 0 124 0 0 -25z m-305 -53 c6
-4 19 -25 30 -47 45 -93 187 -347 245 -440 67 -108 108 -166 213 -304 37 -49
67 -93 67 -97 0 -4 -53 -4 -117 0 -65 4 -226 10 -359 15 -132 4 -245 10 -250
14 -6 3 -64 13 -130 22 -65 8 -162 24 -214 34 -52 10 -98 17 -102 14 -32 -19
19 -62 169 -145 51 -28 93 -56 93 -61 0 -5 -17 -6 -37 -3 -21 4 -110 13 -198
21 -218 21 -356 48 -510 102 -71 26 -146 46 -165 46 -19 0 -66 -10 -105 -22
-195 -61 -465 -102 -833 -128 -75 -5 -93 5 -50 28 13 7 28 17 34 23 10 9 149
111 218 160 29 20 14 50 -22 42 -297 -67 -723 -126 -1112 -155 -103 -8 -125
-2 -93 26 11 10 45 52 76 94 l55 76 128 36 c177 49 308 80 519 122 99 19 214
42 255 51 214 45 270 56 368 69 340 46 586 89 657 115 33 12 112 39 175 59 63
21 189 66 279 100 140 53 364 119 451 134 44 8 255 7 265 -1z m1267 -82 c265
-11 273 -13 273 -88 -1 -61 -7 -67 -80 -82 -123 -25 -705 -37 -1093 -23 l-181
6 -45 89 -44 88 76 1 c42 1 151 5 242 9 254 10 612 10 852 0z m142 -216 c8
-21 29 -549 30 -746 1 -104 -3 -161 -10 -168 -8 -8 -82 -12 -225 -13 l-213 -2
-24 65 c-13 36 -49 126 -79 200 -30 74 -70 173 -89 220 -19 47 -41 94 -49 105
-13 17 -17 17 -28 5 -11 -13 -65 -127 -103 -217 -5 -13 -14 -19 -19 -15 -17
11 -148 181 -196 252 -24 36 -46 67 -49 70 -5 4 -129 209 -147 242 -2 4 171 5
384 2 321 -4 523 -1 784 14 16 1 29 -4 33 -14z m-2568 -599 c38 -14 81 -31 97
-37 l27 -10 0 -160 0 -159 -247 7 c-137 3 -251 8 -255 11 -14 8 -9 268 5 285
6 8 59 30 116 47 58 17 107 33 109 36 13 13 86 3 148 -20z m1669 -39 c33 -3
63 -5 66 -6 6 0 -34 -114 -79 -229 l-18 -44 -236 0 c-130 0 -242 4 -249 8 -9
6 -10 41 -6 142 4 74 9 138 11 141 4 7 400 -3 511 -12z m-23 -312 c13 -8 3
-133 -12 -148 -13 -13 -475 -13 -515 1 -28 9 -30 13 -30 60 1 30 8 60 18 76
l17 27 256 -5 c140 -2 260 -8 266 -11z m954 -2 c21 -13 27 -107 10 -140 -13
-25 -22 -30 -68 -35 -69 -9 -406 -7 -438 2 -30 8 -38 46 -21 102 20 67 2 64
441 77 36 1 70 -2 76 -6z m-3131 -32 c177 -10 435 -15 730 -14 179 0 243 4
288 16 45 13 57 13 57 3 0 -20 -85 -334 -93 -341 -2 -2 -57 -15 -123 -30 -105
-23 -148 -27 -359 -31 l-240 -5 -188 36 c-104 20 -204 43 -222 51 -37 15 -36
11 -80 197 -35 149 -36 142 33 134 31 -4 120 -11 197 -16z m2032 -257 c-6 -98
-31 -226 -58 -295 -19 -46 -69 -58 -246 -58 -162 0 -269 12 -299 35 -25 17
-23 78 2 112 31 43 88 66 181 73 65 5 87 11 98 26 23 29 35 83 35 152 l0 62
147 0 146 0 -6 -107z m991 -18 c4 -122 -14 -263 -38 -295 -14 -19 -30 -24
-101 -31 -119 -11 -358 -11 -398 1 -19 5 -38 15 -43 22 -15 24 -8 80 13 110
29 40 75 58 149 58 100 0 131 28 135 120 1 14 2 46 3 71 l2 46 138 -1 137 -1
3 -100z m-2865 -140 c165 -24 534 -17 691 14 60 11 112 19 115 16 3 -3 -10
-50 -27 -105 -37 -111 -30 -106 -167 -134 -198 -40 -486 -46 -660 -12 -188 36
-196 39 -208 81 -3 11 -19 58 -36 104 -17 45 -29 87 -26 91 3 4 49 -3 102 -15
54 -13 151 -31 216 -40z"/>
<path d="M1880 4872 c-76 -38 -89 -135 -25 -199 45 -45 90 -45 138 0 63 59 56
154 -15 197 -40 24 -53 25 -98 2z m84 -23 c32 -15 50 -60 43 -106 -8 -47 -25
-63 -73 -70 -85 -11 -128 94 -65 158 32 31 55 36 95 18z"/>
<path d="M2328 4320 c-87 -68 -44 -225 62 -225 107 0 150 161 60 225 -36 26
-90 26 -122 0z m121 -36 c29 -37 34 -60 21 -98 -23 -69 -93 -86 -141 -35 -40
43 -37 89 9 142 24 27 86 23 111 -9z"/>
<path d="M1614 4081 c-87 -37 -81 -188 9 -226 45 -18 82 -9 117 32 25 28 30
42 30 83 0 40 -5 56 -27 80 -30 34 -89 48 -129 31z m105 -42 c46 -43 31 -138
-27 -160 -60 -23 -112 19 -112 91 0 35 5 51 23 67 39 36 79 36 116 2z"/>
<path d="M3900 4072 c-50 -25 -52 -50 -3 -54 21 -2 56 0 78 4 22 4 66 5 98 1
56 -5 57 -5 57 20 0 19 -7 28 -31 36 -48 17 -158 13 -199 -7z"/>
<path d="M4305 4074 c-35 -9 -65 -27 -65 -40 0 -18 23 -22 153 -28 102 -5 107
-4 107 15 0 13 -11 25 -32 34 -37 15 -133 26 -163 19z"/>
<path d="M3920 3987 c-33 -16 -38 -57 -10 -82 16 -14 35 -19 76 -19 61 1 94
22 94 60 0 45 -101 71 -160 41z"/>
<path d="M4283 3966 c-24 -21 -26 -26 -16 -49 19 -41 110 -56 164 -26 18 9 30
52 20 67 -25 39 -126 44 -168 8z"/>
<path d="M2675 3700 c-40 -16 -68 -58 -73 -109 -4 -45 -1 -52 29 -85 43 -47
90 -56 137 -26 38 23 52 54 52 113 0 82 -75 137 -145 107z m86 -33 c45 -35 51
-101 13 -146 -34 -41 -83 -43 -121 -5 -22 22 -25 32 -20 77 3 37 11 56 27 69
25 21 77 23 101 5z"/>
<path d="M1970 3341 c-52 -51 -52 -125 -1 -180 24 -26 37 -31 73 -31 52 0 58
4 92 54 30 44 33 74 11 116 -38 74 -123 94 -175 41z m133 -20 c23 -22 32 -78
18 -114 -14 -36 -69 -61 -105 -48 -35 14 -56 50 -56 96 0 41 22 74 60 88 22 9
63 -2 83 -22z"/>
<path d="M1190 3102 c-95 -30 -117 -165 -36 -220 92 -63 199 25 165 137 -7 22
-20 48 -30 57 -20 18 -77 33 -99 26z m81 -51 c72 -72 3 -194 -88 -156 -38 16
-53 42 -53 90 0 45 45 95 85 95 16 0 38 -12 56 -29z"/>
<path d="M2773 2630 c-131 -79 -37 -281 101 -218 25 11 66 79 66 108 0 34 -42
99 -74 114 -44 21 -54 20 -93 -4z m87 -25 c56 -29 67 -93 24 -144 -48 -57
-125 -36 -150 41 -9 30 24 96 55 107 36 13 38 13 71 -4z"/>
<path d="M1853 2411 c-62 -39 -80 -116 -42 -177 26 -42 47 -54 94 -54 29 0 45
8 71 34 30 30 34 40 34 85 0 44 -5 56 -32 85 -42 44 -83 53 -125 27z m115 -47
c12 -14 22 -38 22 -55 0 -37 -23 -84 -45 -93 -22 -8 -77 -7 -91 2 -32 21 -46
111 -21 143 35 45 96 47 135 3z"/>
<path d="M983 2164 c-40 -17 -63 -60 -63 -118 0 -37 6 -51 34 -80 28 -30 40
-36 76 -36 34 0 47 6 70 30 65 70 48 165 -37 209 -27 14 -40 13 -80 -5z m86
-29 c56 -29 59 -121 6 -164 -52 -40 -135 9 -135 80 0 31 29 79 53 89 32 13 44
12 76 -5z"/>
<path d="M3742 2253 c-22 -4 -23 -8 -20 -86 l3 -82 98 -3 97 -3 0 91 0 90 -77
-1 c-43 -1 -88 -4 -101 -6z m156 -85 l-3 -63 -72 -3 -73 -3 0 66 0 65 75 0 76
0 -3 -62z"/>
<path d="M3098 1617 c-14 -12 -31 -32 -37 -44 -15 -29 -13 -93 3 -121 16 -30
65 -62 94 -62 56 0 112 62 112 125 0 97 -105 159 -172 102z m103 -17 c10 -6
26 -25 35 -42 33 -63 -11 -138 -81 -138 -76 0 -112 114 -52 166 30 25 66 31
98 14z"/>
<path d="M1654 1476 c-11 -8 -29 -33 -39 -55 -15 -35 -16 -47 -6 -80 24 -83
116 -119 172 -67 58 54 62 129 10 185 -24 26 -37 31 -73 31 -24 0 -53 -6 -64
-14z m99 -17 c68 -31 61 -153 -11 -180 -75 -29 -144 80 -96 149 26 38 67 49
107 31z"/>
</g>
</svg>
