<?xml version="1.0" standalone="no"?>
<!DOCTYPE svg PUBLIC "-//W3C//DTD SVG 20010904//EN"
 "http://www.w3.org/TR/2001/REC-SVG-20010904/DTD/svg10.dtd">
<svg version="1.0" xmlns="http://www.w3.org/2000/svg"
 width="746.000000pt" height="775.000000pt" viewBox="0 0 746.000000 775.000000"
 preserveAspectRatio="xMidYMid meet">
<metadata>
Created by potrace 1.16, written by Peter Selinger 2001-2019
</metadata>
<g transform="translate(0.000000,775.000000) scale(0.100000,-0.100000)"
fill="#000000" stroke="none">
<path d="M4455 6623 c-114 -25 -175 -92 -175 -193 0 -61 17 -96 66 -139 l36
-33 -33 -34 c-47 -49 -164 -128 -250 -169 -40 -19 -152 -60 -248 -91 -290 -92
-354 -121 -482 -215 -132 -98 -217 -237 -234 -384 -3 -33 -20 -91 -38 -130
-26 -59 -32 -85 -35 -167 -4 -80 -1 -107 18 -165 13 -37 32 -83 42 -101 24
-44 23 -52 -14 -102 -18 -23 -41 -54 -50 -68 -20 -31 -24 -23 -32 62 -13 155
-123 259 -286 273 -66 6 -73 4 -122 -26 l-51 -32 -56 25 c-72 32 -175 43 -238
25 -73 -20 -148 -100 -205 -219 -156 -324 -188 -389 -197 -394 -5 -3 -19 -27
-32 -54 -16 -32 -76 -100 -195 -218 -94 -94 -196 -204 -226 -245 -132 -179
-214 -359 -259 -569 -38 -179 -17 -368 56 -513 98 -193 281 -346 540 -451 150
-61 212 -77 336 -83 169 -9 310 26 462 114 l78 45 81 -81 81 -80 -12 -89 c-25
-199 -2 -311 73 -352 25 -13 26 -17 26 -104 0 -109 -22 -165 -74 -190 -19 -9
-40 -16 -48 -16 -42 0 -136 -35 -186 -69 -91 -62 -155 -162 -197 -305 -16 -54
-16 -57 4 -90 23 -36 104 -102 160 -131 201 -102 541 -123 822 -51 169 43 243
88 281 172 22 47 23 61 23 289 0 145 -5 280 -14 342 l-13 102 27 56 28 56 60
-3 c60 -3 61 -3 70 -38 5 -19 25 -52 45 -73 l37 -38 -3 -187 c-4 -209 13 -364
48 -431 43 -85 191 -152 424 -192 102 -17 408 -6 511 19 104 25 183 56 260
101 112 65 109 61 107 141 -6 194 -84 370 -190 424 -56 28 -133 39 -221 31
-160 -14 -176 -13 -179 14 -2 13 -1 43 3 67 5 38 10 44 40 54 19 6 48 28 65
48 59 72 74 182 44 331 l-16 80 82 83 c97 97 152 167 218 275 192 314 248 656
166 1011 l-17 72 71 73 c93 94 153 174 174 234 10 27 33 69 51 93 38 50 75
136 106 249 11 41 22 75 23 77 2 1 22 -1 45 -6 65 -11 93 -1 144 51 55 56 86
133 98 239 9 81 2 108 -38 144 l-21 19 40 35 c84 71 174 235 211 382 34 134
16 255 -49 323 -87 92 -262 123 -379 66 -53 -25 -119 -97 -146 -157 l-20 -47
-11 27 c-26 62 -91 108 -152 108 -30 0 -44 -7 -74 -39 -49 -51 -62 -104 -66
-271 l-3 -135 -38 -3 c-71 -5 -80 -11 -122 -76 -79 -126 -90 -242 -29 -311
l30 -35 -25 -42 c-14 -24 -49 -69 -78 -101 -64 -72 -226 -199 -248 -195 -12 3
-18 21 -23 77 -3 41 -18 112 -33 158 -23 71 -26 89 -17 123 11 44 4 55 -29 45
-14 -5 1 15 38 52 133 130 161 263 88 414 l-24 51 20 62 c42 122 34 238 -26
355 -20 41 -98 145 -182 245 -51 61 -93 220 -76 285 8 30 15 36 53 46 116 30
182 101 182 195 0 93 -63 167 -162 189 -47 11 -62 12 -95 4z m133 -42 c126
-64 135 -218 17 -287 -121 -71 -285 -4 -302 124 -9 67 42 141 118 171 41 17
127 12 167 -8z m-131 -344 c1 -1 -3 -23 -8 -49 -13 -60 2 -144 38 -218 32 -65
56 -99 141 -202 34 -42 77 -107 94 -145 28 -61 32 -78 32 -163 1 -87 -17 -180
-34 -180 -3 0 -26 21 -50 46 -172 180 -456 284 -780 284 -278 0 -534 -84 -677
-223 -24 -22 -45 -38 -49 -34 -10 10 17 108 48 173 79 164 240 280 493 359
241 74 332 108 425 156 104 53 216 134 252 179 18 23 29 28 48 24 14 -3 26 -6
27 -7z m1468 -648 c100 -18 157 -55 191 -124 29 -60 26 -206 -5 -300 -42 -124
-115 -250 -179 -311 -43 -41 -51 -42 -83 -8 -89 97 -340 212 -504 232 l-60 7
0 140 c0 112 4 150 18 187 32 83 87 107 156 70 49 -26 71 -73 71 -149 0 -80
21 -86 37 -10 23 109 86 207 157 244 63 33 114 38 201 22z m-1930 -9 c279 -26
532 -130 661 -273 26 -29 63 -85 82 -125 44 -92 48 -188 11 -267 -25 -54 -152
-190 -168 -181 -6 4 -5 20 1 43 16 60 5 191 -20 245 -29 59 -90 119 -161 157
-117 62 -346 111 -520 111 -245 0 -428 -66 -557 -199 -55 -57 -124 -179 -124
-220 0 -14 -7 -25 -20 -28 -11 -3 -20 -9 -20 -14 0 -25 -20 -3 -39 44 -31 74
-46 193 -32 257 50 234 317 414 666 449 115 12 119 12 240 1z m102 -336 c120
-18 234 -55 308 -99 71 -43 97 -71 133 -145 22 -46 26 -68 25 -135 -1 -44 -8
-98 -15 -120 -14 -36 -19 -40 -54 -43 -27 -3 -79 10 -164 39 l-126 42 28 28
c31 30 38 90 15 120 -55 72 -172 39 -172 -49 0 -26 7 -48 19 -61 22 -24 21
-26 -14 -34 -20 -5 -32 0 -52 21 -62 67 -203 68 -273 2 -14 -13 -29 -17 -48
-13 -25 5 -26 7 -14 22 43 49 27 121 -33 145 -101 40 -176 -71 -97 -147 l32
-32 -109 -37 c-61 -21 -125 -38 -144 -38 -46 0 -100 27 -117 59 -35 69 51 256
158 344 165 135 403 179 714 131z m1269 -195 c181 -32 371 -129 495 -252 81
-83 85 -93 70 -185 -7 -42 -24 -101 -38 -129 -31 -65 -93 -123 -131 -123 -34
0 -175 39 -267 74 -125 48 -312 171 -397 262 -60 65 -64 140 -13 240 41 80 64
110 91 117 35 9 130 7 190 -4z m-2860 -143 c90 -45 178 -125 239 -216 25 -37
45 -72 45 -77 0 -4 -16 -17 -36 -28 -20 -10 -65 -51 -100 -89 l-64 -70 0 95
c0 143 -28 229 -94 287 -52 45 -156 70 -156 37 0 -11 11 -15 35 -15 20 0 49
-7 66 -16 l30 -15 -50 -45 c-110 -99 -134 -232 -73 -407 l30 -89 -34 -14 c-21
-9 -39 -26 -45 -42 -17 -42 -5 -207 20 -273 l21 -55 -24 -72 c-52 -152 -59
-339 -17 -459 16 -47 21 -86 21 -157 0 -102 26 -258 61 -365 34 -104 112 -259
174 -345 l57 -80 -24 -17 c-38 -30 -179 -96 -238 -113 -199 -56 -414 -31 -635
73 -145 69 -239 133 -335 231 -145 146 -210 301 -210 503 0 176 43 337 140
527 78 150 147 241 325 422 218 222 303 348 410 609 29 72 70 156 90 185 96
139 213 167 371 90z m345 5 c63 -33 121 -103 141 -170 20 -70 15 -196 -11
-259 -11 -29 -21 -63 -21 -76 0 -22 -4 -23 -112 -30 -62 -3 -144 -12 -183 -20
-38 -8 -72 -12 -75 -10 -19 19 116 179 187 220 23 14 43 32 43 39 0 30 -80
144 -148 212 -42 42 -70 77 -66 84 13 21 70 38 130 39 49 0 72 -6 115 -29z
m1093 -81 c22 -5 51 -20 64 -34 23 -22 24 -28 14 -51 -32 -69 -225 -74 -258
-7 -18 36 -5 62 40 83 45 21 82 23 140 9z m-670 -131 c53 -24 98 -23 166 2
129 48 158 57 210 63 60 7 76 1 94 -35 6 -14 30 -31 56 -41 91 -34 200 -15
242 44 l21 30 81 -5 c61 -4 105 -14 176 -42 108 -42 183 -53 260 -36 29 6 55
10 57 7 12 -12 -25 -92 -58 -126 -78 -81 -263 -141 -382 -126 -108 15 -223 98
-293 212 -11 18 -15 16 -48 -23 -43 -49 -150 -106 -232 -123 -32 -7 -108 -10
-173 -9 -103 4 -122 7 -174 32 -92 46 -128 118 -112 223 l7 47 31 -38 c17 -21
49 -46 71 -56z m-751 33 c41 -70 58 -307 27 -387 -8 -20 -132 -71 -149 -61
-22 14 -56 164 -56 247 0 83 1 88 38 143 36 54 91 100 112 93 5 -2 18 -18 28
-35z m627 -120 c19 -50 73 -97 142 -123 55 -21 79 -24 198 -24 97 1 147 5 177
16 l41 16 24 -36 c13 -19 39 -46 58 -59 30 -21 44 -23 104 -20 70 4 87 14 121
73 10 16 14 16 61 -8 28 -14 78 -30 111 -37 128 -23 305 33 402 127 30 29 56
53 57 53 7 0 43 -146 49 -198 7 -67 -2 -192 -14 -192 -4 0 -14 12 -23 28 -30
49 -104 126 -115 119 -7 -5 -1 -31 20 -79 31 -70 32 -79 32 -208 0 -85 -5
-153 -14 -182 -14 -49 -31 -64 -31 -28 0 38 -60 140 -82 140 -4 0 -8 -18 -8
-39 0 -67 -30 -203 -63 -281 -36 -89 -88 -162 -154 -219 -53 -46 -67 -51 -58
-21 18 58 -10 222 -33 194 -5 -5 -21 -42 -36 -82 -92 -240 -287 -376 -469
-329 -188 49 -343 253 -297 391 12 37 30 40 30 4 0 -30 30 -87 53 -100 27 -14
95 -12 113 3 49 40 62 195 24 265 -33 58 -57 81 -145 134 -160 97 -256 197
-275 285 -8 41 -21 38 -45 -10 -13 -28 -19 -61 -19 -108 0 -77 -5 -76 -53 18
-88 170 -66 367 61 543 26 37 32 41 37 25 4 -10 13 -33 19 -51z m1982 15 c23
-22 131 -102 183 -135 65 -41 161 -84 253 -113 l73 -23 -6 -34 c-22 -116 -107
-310 -196 -442 -57 -85 -178 -220 -197 -220 -5 0 -17 17 -25 38 -52 129 -112
236 -195 345 -47 62 -220 237 -234 237 -23 0 -1 29 49 65 75 53 203 182 244
245 18 27 34 50 35 50 1 0 9 -6 16 -13z m-1251 -129 c17 0 39 8 50 18 17 15
20 16 44 0 33 -22 32 -51 -4 -87 -26 -26 -37 -29 -89 -29 -46 0 -66 5 -88 22
-61 47 -70 79 -27 102 24 12 30 12 55 -7 15 -11 41 -20 59 -19z m-931 -200 c0
-68 19 -136 61 -220 38 -78 43 -69 -65 -134 -84 -50 -185 -81 -305 -93 -206
-22 -248 -11 -290 74 -22 44 -25 63 -26 164 l0 114 77 38 c126 64 305 105 471
108 l77 1 0 -52z m1819 -35 c127 -96 284 -289 365 -450 50 -101 103 -250 112
-314 5 -43 4 -44 -43 -75 -264 -172 -521 -281 -809 -344 -93 -20 -107 -20
-110 1 -1 5 -2 12 -3 17 0 4 -65 2 -143 -5 -187 -15 -443 -20 -540 -10 -76 8
-78 8 -78 -13 0 -20 -3 -21 -42 -15 -193 30 -498 111 -513 135 -4 6 2 22 13
38 94 133 111 298 62 607 -18 119 -18 120 1 140 20 20 20 20 49 -15 16 -19 31
-32 35 -28 4 3 1 39 -6 80 -11 69 -7 148 9 148 4 0 13 -15 21 -32 21 -48 146
-168 221 -213 134 -79 184 -133 196 -211 7 -50 -11 -148 -32 -169 -23 -22 -69
-18 -101 9 -24 21 -28 32 -31 95 -5 86 -15 87 -55 11 -26 -49 -28 -63 -25
-130 4 -66 9 -82 41 -132 40 -64 124 -135 207 -176 49 -24 66 -27 155 -27 93
0 104 2 162 32 92 49 166 129 223 246 40 81 49 94 55 77 9 -29 -2 -98 -21
-134 -56 -110 151 27 227 149 54 87 108 250 109 328 0 49 18 45 37 -9 9 -24
13 -61 10 -96 -3 -32 -1 -58 4 -58 5 0 20 23 34 51 67 132 84 322 41 457 -4
12 -3 22 2 22 13 0 52 -84 52 -114 0 -37 26 -33 39 7 7 17 14 58 18 90 3 31 8
57 11 57 3 0 21 -12 41 -27z m-1754 -440 c50 -315 25 -487 -88 -610 -69 -75
-103 -88 -237 -88 -104 0 -121 3 -172 27 -80 37 -123 72 -157 128 -48 78 -64
157 -58 285 5 101 37 259 55 277 5 5 23 1 41 -8 28 -14 57 -16 179 -12 132 5
157 8 242 37 52 18 109 41 125 51 17 10 35 19 41 19 7 1 18 -43 29 -106z
m2251 -425 c9 -31 7 -305 -3 -348 -8 -31 -21 -42 -103 -92 -173 -105 -314
-172 -510 -242 -84 -31 -302 -86 -337 -86 l-23 0 0 200 0 200 28 5 c124 27
296 74 387 106 131 47 361 160 465 229 41 27 78 50 82 50 4 0 10 -10 14 -22z
m-2869 -199 c128 -118 359 -144 493 -55 l39 25 133 -44 c112 -36 330 -86 428
-97 l25 -3 -4 -110 c-2 -60 -6 -150 -10 -200 l-6 -90 -35 3 c-129 12 -424 88
-613 159 -138 51 -367 158 -439 204 -52 34 -53 35 -62 172 -3 42 -3 77 1 77 3
0 26 -18 50 -41z m1861 -385 l-3 -249 -75 -12 c-146 -23 -365 -27 -487 -9 -61
9 -126 21 -143 27 -31 11 -31 13 -26 58 3 25 8 105 11 176 3 72 8 157 11 190
l6 60 261 2 c144 1 300 5 347 10 47 5 88 6 93 3 4 -4 6 -119 5 -256z m-1733
83 c242 -123 573 -234 840 -282 131 -23 135 -24 135 -39 0 -28 132 -60 295
-71 103 -7 326 8 432 29 52 10 58 14 61 37 3 24 9 27 90 43 242 47 528 160
767 304 50 30 94 57 99 59 20 13 -36 -167 -90 -284 -53 -117 -173 -289 -276
-395 -52 -54 -99 -98 -105 -98 -6 0 -64 9 -128 20 -298 51 -546 32 -728 -56
-27 -13 -43 -30 -56 -60 -22 -50 -51 -170 -51 -213 0 -31 -1 -31 -53 -31 l-53
0 0 93 c1 127 -11 203 -36 227 -26 24 -134 64 -234 86 -108 24 -368 24 -520 0
-107 -17 -113 -17 -139 0 -39 25 -161 167 -218 253 -79 116 -161 310 -183 430
l-7 35 44 -26 c24 -14 76 -41 114 -61z m921 -666 c50 -11 117 -30 150 -43 l59
-24 13 -60 c27 -124 -7 -337 -58 -364 -25 -14 -442 -13 -555 1 -153 19 -219
53 -244 128 -23 68 -7 320 22 348 7 6 57 18 112 27 133 21 375 14 501 -13z
m1062 -22 c147 -13 253 -34 263 -50 17 -28 32 -150 27 -227 -4 -65 -10 -88
-31 -120 -68 -104 -421 -194 -640 -163 -161 23 -253 72 -278 149 -16 49 -6
173 22 256 23 68 23 69 83 95 145 65 312 83 554 60z m-1453 -495 c77 -12 152
-15 327 -12 l226 5 6 -31 c28 -158 38 -530 17 -627 -15 -71 -60 -126 -134
-162 -205 -100 -607 -118 -847 -37 -85 28 -126 50 -188 99 -76 61 -78 68 -48
166 29 94 89 190 146 235 45 36 116 69 147 70 40 0 117 31 146 58 35 34 57
107 57 195 0 67 1 69 23 63 12 -4 67 -13 122 -22z m1579 -63 c-6 -38 9 -105
26 -116 5 -3 34 2 66 10 79 20 227 20 289 -2 57 -19 127 -84 150 -140 27 -63
65 -222 65 -274 0 -55 -8 -65 -88 -112 -179 -104 -400 -146 -669 -126 -207 14
-334 47 -430 112 -61 41 -89 93 -102 190 -14 102 -15 467 -1 467 6 0 45 -9 88
-21 68 -18 95 -20 232 -16 147 5 292 30 340 58 32 18 40 11 34 -30z"/>
<path d="M4095 5157 c-55 -26 -119 -83 -109 -98 3 -5 9 -7 13 -5 13 9 126 24
134 19 4 -3 -6 -19 -23 -36 -48 -50 -54 -91 -8 -66 37 21 156 16 208 -8 43
-19 120 -87 120 -105 0 -4 5 -8 10 -8 20 0 10 67 -15 104 -14 20 -25 39 -25
43 0 3 25 2 55 -2 33 -4 55 -3 55 3 0 20 -121 121 -177 148 -81 40 -169 44
-238 11z m228 -26 c26 -12 68 -42 95 -67 l47 -43 -53 -1 -53 0 31 -44 c37 -55
39 -78 3 -43 -51 48 -119 72 -205 71 -69 -1 -76 1 -68 16 5 10 21 25 36 35 25
16 26 18 9 28 -10 5 -46 9 -79 8 -33 -1 -58 1 -55 4 3 2 30 19 60 35 47 27 62
30 119 28 42 -2 82 -12 113 -27z"/>
<path d="M3588 5159 c-99 -14 -208 -82 -245 -152 -19 -37 -12 -43 26 -21 17
10 33 16 35 13 3 -3 0 -22 -6 -42 -15 -47 -7 -54 31 -28 81 58 181 76 274 50
50 -14 57 -5 23 30 l-27 28 49 32 c51 32 89 68 81 75 -7 7 -131 26 -159 25
-14 -1 -51 -5 -82 -10z m180 -19 c37 0 25 -17 -44 -61 -51 -33 -62 -44 -50
-51 31 -17 15 -23 -67 -23 -68 0 -91 -4 -135 -26 -53 -27 -64 -21 -37 18 18
26 7 36 -32 27 l-28 -7 34 36 c58 61 181 100 286 91 28 -2 60 -4 73 -4z"/>
<path d="M3960 2958 c-47 -5 -126 -6 -176 -3 l-92 5 -6 -67 c-3 -38 -7 -102
-8 -143 -3 -71 -2 -75 22 -87 54 -26 160 -35 270 -23 58 7 113 16 123 22 16 8
17 24 15 156 l-3 147 -30 1 c-16 1 -68 -2 -115 -8z m120 -147 l0 -130 -57 -7
c-86 -11 -232 -9 -282 5 l-44 12 7 52 c3 29 6 82 6 118 l0 67 141 0 c77 0 143
3 146 6 4 3 24 6 45 6 l38 0 0 -129z"/>
</g>
</svg>
