<?xml version="1.0" standalone="no"?>
<!DOCTYPE svg PUBLIC "-//W3C//DTD SVG 20010904//EN"
 "http://www.w3.org/TR/2001/REC-SVG-20010904/DTD/svg10.dtd">
<svg version="1.0" xmlns="http://www.w3.org/2000/svg"
 width="650.000000pt" height="493.000000pt" viewBox="0 0 650.000000 493.000000"
 preserveAspectRatio="xMidYMid meet">
<metadata>
Created by potrace 1.16, written by Peter Selinger 2001-2019
</metadata>
<g transform="translate(0.000000,493.000000) scale(0.100000,-0.100000)"
fill="#000000" stroke="none">
<path d="M1773 4869 c-61 -11 -64 -14 -188 -125 -44 -40 -48 -87 -9 -129 14
-15 24 -28 22 -29 -2 -1 -36 -23 -75 -50 -118 -78 -188 -166 -246 -306 -21
-50 -47 -142 -47 -167 0 -8 -23 -46 -52 -83 l-51 -68 -51 31 c-110 66 -178
119 -167 130 17 17 13 99 -7 124 -9 12 -46 38 -82 59 -155 89 -293 212 -398
352 -29 40 -60 76 -68 79 -8 3 -24 -3 -34 -12 -18 -16 -20 -32 -20 -134 0
-165 -36 -350 -96 -493 -15 -37 -24 -77 -24 -112 0 -48 3 -57 30 -79 l30 -25
-41 -118 c-22 -65 -51 -145 -65 -178 -31 -76 -33 -167 -4 -213 17 -29 65 -53
107 -53 12 0 2 -31 -63 -200 -18 -49 -17 -142 2 -183 19 -39 60 -67 99 -67 32
0 33 7 -37 -170 -54 -137 -59 -186 -23 -261 l17 -36 -57 -144 c-53 -133 -57
-149 -52 -206 12 -157 112 -231 232 -173 52 25 150 113 201 180 21 27 41 50
44 50 3 0 5 -46 5 -102 0 -97 2 -105 29 -146 60 -89 159 -117 275 -78 44 15
57 16 76 6 24 -13 24 -13 7 -54 -12 -29 -17 -70 -17 -141 0 -86 3 -106 24
-145 111 -213 379 -376 704 -431 86 -14 100 -32 50 -65 -58 -37 -64 -63 -34
-146 11 -29 21 -64 22 -78 5 -57 0 -67 -39 -78 -104 -32 -182 -119 -182 -206
0 -59 18 -94 72 -140 107 -92 359 -104 560 -27 134 51 185 251 132 516 -19 92
-43 166 -62 187 -18 21 -18 21 93 37 44 7 92 14 106 17 26 6 27 5 22 -38 -10
-95 81 -350 164 -459 77 -101 158 -137 270 -119 217 36 370 126 434 255 39 80
38 144 -5 200 -45 58 -96 79 -200 80 -80 1 -90 3 -107 24 -11 13 -19 30 -19
39 0 8 -5 44 -11 80 -13 75 -35 102 -82 102 -51 0 -51 10 1 46 146 99 269 266
293 397 12 63 4 155 -17 210 -4 11 11 15 65 19 66 5 80 10 136 52 18 13 145
-43 156 -68 9 -24 44 -303 59 -476 21 -247 10 -564 -25 -734 -10 -46 -11 -74
-5 -86 20 -37 488 -175 805 -238 289 -58 456 -75 735 -74 310 1 535 33 765
108 220 72 506 230 513 283 2 12 -13 55 -32 96 -41 81 -75 206 -102 370 -17
99 -19 180 -19 840 0 402 -4 764 -8 805 -15 135 -36 265 -60 357 l-22 90 36
48 c20 26 46 76 59 111 19 55 22 78 18 167 -5 113 -23 172 -83 272 l-35 58 16
43 c37 98 3 250 -78 348 -79 96 -254 186 -360 186 -144 0 -291 -101 -436 -298
-60 -81 -67 -59 -15 46 45 91 151 204 256 272 66 43 79 65 59 96 -11 18 -197
79 -300 99 -115 22 -245 16 -347 -15 -38 -12 -126 -51 -195 -87 -164 -85 -225
-109 -315 -124 -98 -17 -223 0 -357 48 -102 36 -132 36 -141 2 -7 -25 12 -45
102 -109 126 -89 220 -214 300 -399 22 -50 53 -117 70 -148 17 -31 29 -59 26
-61 -8 -8 -88 19 -117 40 -42 29 -83 95 -134 214 -25 60 -62 132 -81 161 -92
138 -254 198 -477 174 -112 -12 -262 -45 -283 -62 -11 -10 -253 -401 -280
-454 -14 -27 1 -65 26 -65 11 0 75 36 143 80 214 140 379 210 497 210 79 0
131 -30 214 -124 40 -44 104 -113 143 -152 l72 -70 -72 -18 c-314 -81 -515
-278 -589 -577 -20 -78 -37 -221 -37 -309 l0 -65 -73 0 c-81 0 -152 -25 -162
-56 -5 -15 -12 -18 -33 -13 -36 9 -145 60 -207 98 -92 55 -279 205 -289 231
-2 6 4 47 14 89 16 65 26 85 63 125 60 64 101 135 93 164 -4 18 1 26 27 40
104 57 174 262 133 388 -23 69 -102 185 -191 278 -46 49 -77 90 -85 116 -18
59 -77 173 -115 225 -43 59 -129 140 -185 175 -25 15 -47 29 -49 31 -2 2 8 17
23 34 52 62 43 115 -23 155 -19 11 -48 34 -65 51 -56 57 -64 58 -286 60 -113
0 -224 -3 -247 -7z m472 -62 c19 -21 54 -52 79 -68 55 -34 60 -62 19 -101 -53
-49 -65 -51 -155 -27 -115 31 -290 31 -407 1 -83 -22 -84 -22 -115 -2 -45 27
-68 55 -64 77 2 10 25 33 53 51 27 18 57 46 67 62 10 17 31 33 50 39 18 5 125
8 237 7 l203 -1 33 -38z m-52 -221 c130 -36 257 -117 345 -220 40 -47 140
-231 130 -241 -2 -2 -40 20 -86 50 -198 129 -418 184 -662 165 -128 -10 -238
-39 -350 -91 -92 -43 -203 -114 -240 -154 -45 -47 -52 -23 -21 67 35 101 75
170 139 239 90 97 202 157 366 194 80 19 300 13 379 -9z m-1737 -108 c78 -92
174 -168 372 -292 46 -29 56 -62 26 -87 -25 -20 -113 -15 -161 10 -23 11 -46
21 -51 21 -5 0 -12 -26 -15 -57 -5 -65 -22 -109 -44 -117 -22 -9 -67 19 -105
64 -19 22 -39 40 -44 40 -5 0 -21 -20 -37 -44 -32 -51 -110 -126 -131 -126
-23 0 -38 28 -33 62 2 18 21 80 42 138 45 127 74 271 82 404 l6 100 26 -34
c14 -19 45 -56 67 -82z m4819 57 c77 -16 184 -48 211 -63 11 -6 3 -16 -38 -42
-29 -19 -85 -66 -123 -105 -101 -101 -148 -192 -196 -379 -28 -111 -67 -172
-129 -202 -72 -36 -232 -64 -363 -64 l-115 0 -40 39 c-38 37 -67 89 -155 283
-49 107 -108 191 -194 276 -41 41 -66 71 -56 68 124 -38 295 -47 398 -21 33 9
137 53 230 100 151 74 223 104 290 118 48 11 212 6 280 -8z m-3074 -231 c86
-16 228 -67 308 -112 167 -91 357 -285 423 -431 25 -55 26 -141 3 -212 -23
-70 -108 -159 -151 -159 -41 0 -47 7 -73 80 -102 285 -296 483 -536 545 -82
21 -224 19 -306 -3 -194 -54 -356 -214 -439 -434 l-33 -86 -76 45 c-42 25 -84
49 -94 55 -17 8 -15 13 22 53 32 35 41 52 41 81 0 47 -32 103 -75 133 l-35 23
18 31 c33 61 185 202 272 256 217 132 485 182 731 135z m3652 -26 c92 -44 181
-127 216 -203 35 -75 39 -167 9 -224 -28 -55 -62 -81 -114 -88 -32 -4 -57 3
-129 35 -115 51 -150 60 -260 68 -132 9 -307 -25 -470 -92 -12 -5 5 22 41 67
33 41 94 119 135 174 102 137 202 235 280 274 58 29 71 32 139 29 62 -3 89
-10 153 -40z m-2029 -53 c122 -32 188 -93 252 -230 85 -186 107 -228 145 -266
22 -22 55 -47 74 -55 19 -8 35 -16 35 -18 0 -2 -23 1 -52 6 -106 19 -137 44
-331 261 -90 101 -142 127 -253 127 -147 0 -287 -59 -559 -236 l-30 -19 16 25
c9 14 62 101 119 193 71 116 111 172 128 178 51 20 231 47 312 48 48 1 112 -6
144 -14z m-3066 -159 c42 -9 81 -27 115 -53 75 -55 120 -84 231 -150 112 -66
142 -103 124 -153 -24 -71 -175 -81 -302 -22 -38 18 -72 32 -76 32 -4 0 -12
-40 -18 -90 -13 -107 -40 -175 -77 -192 -39 -17 -101 18 -180 104 -34 37 -65
68 -67 68 -3 0 -22 -26 -43 -57 -113 -172 -239 -263 -285 -208 -30 36 -23 96
23 220 25 66 58 163 73 215 23 76 35 102 64 130 20 19 50 53 67 75 l31 40 45
-42 c55 -50 88 -61 121 -40 23 15 46 79 46 128 0 17 4 20 23 16 12 -4 50 -13
85 -21z m1384 -67 c68 -14 77 -23 38 -39 -40 -17 -70 -56 -70 -91 0 -23 4 -29
23 -29 12 0 31 7 41 15 28 21 89 19 119 -5 14 -11 32 -20 41 -20 22 0 36 30
25 57 -13 34 -1 29 69 -28 74 -61 147 -155 201 -259 47 -91 87 -208 74 -221
-5 -5 -34 0 -68 10 -111 35 -216 36 -362 5 -33 -6 -33 -6 -33 31 0 48 -48 98
-111 115 -43 12 -124 10 -164 -4 -18 -7 -18 -6 -2 4 48 31 63 139 27 197 -55
91 -161 20 -147 -98 7 -60 24 -87 64 -101 l32 -12 -29 -28 c-32 -30 -45 -66
-37 -99 5 -20 3 -21 -36 -15 -126 21 -209 27 -272 22 l-70 -6 -37 43 -36 43
23 65 c43 125 94 208 179 291 138 135 336 195 518 157z m3533 -168 c28 -7 26
-8 -20 -14 -39 -6 -345 -76 -402 -93 -35 -10 -3 -21 92 -32 209 -25 361 -87
419 -172 51 -75 155 -101 200 -51 33 36 32 93 -2 163 -17 35 -39 73 -48 86
l-16 22 48 0 c32 0 61 7 83 21 l35 21 18 -24 c36 -45 88 -164 99 -223 37 -199
-66 -385 -213 -385 -74 0 -104 26 -199 172 -60 93 -147 174 -254 237 -122 72
-207 105 -394 152 l-44 11 169 58 c168 57 170 58 284 58 63 0 129 -3 145 -7z
m143 -63 c72 -34 161 -177 148 -240 -9 -45 -24 -58 -65 -58 -49 1 -94 27 -130
77 -51 71 -181 131 -337 155 -41 6 -74 14 -74 18 0 7 203 58 275 69 67 11 131
3 183 -21z m-864 -100 c-71 -86 -176 -128 -268 -108 -46 10 -164 75 -154 86 3
2 59 6 125 9 106 4 258 27 272 40 2 3 15 5 29 5 l24 0 -28 -32z m196 11 c291
-69 508 -209 622 -400 75 -127 159 -177 246 -146 42 15 44 14 52 -6 24 -56 78
-322 68 -332 -8 -9 -242 -24 -249 -17 -3 4 -19 70 -34 147 -16 77 -32 144 -36
149 -12 13 -23 -21 -54 -164 -15 -69 -30 -128 -34 -131 -3 -4 -62 0 -131 7
-159 16 -150 16 -150 2 1 -7 51 -47 111 -88 61 -41 113 -79 116 -86 2 -6 -19
-70 -46 -142 -28 -72 -51 -136 -51 -142 0 -22 22 -7 102 68 46 42 93 85 105
96 l22 18 108 -101 c66 -62 109 -96 111 -88 2 8 -19 76 -46 150 -44 124 -47
138 -33 151 38 32 193 127 199 121 4 -4 8 -345 8 -758 2 -818 6 -904 59 -1115
26 -100 75 -232 96 -258 13 -16 -39 -55 -161 -122 -339 -185 -782 -272 -1231
-242 -365 24 -712 93 -1134 225 -82 26 -158 50 -168 53 -14 4 -17 11 -12 31
34 136 51 460 36 686 -11 158 -43 452 -57 521 l-6 31 59 0 c104 0 194 56 240
151 23 47 28 70 28 132 0 116 -47 183 -157 225 -27 10 -48 20 -48 23 0 2 14
20 30 39 69 78 20 147 -114 160 -62 6 -64 7 -85 47 -12 22 -28 52 -36 66 -18
30 -19 80 -4 226 32 330 156 529 405 649 142 69 265 99 476 115 l131 10 34
-30 c64 -56 111 -75 193 -75 97 0 150 24 230 104 38 38 69 61 83 61 12 0 60
-9 107 -21z m-4239 -9 c22 -12 72 -29 112 -39 54 -14 103 -38 198 -97 70 -44
140 -87 158 -96 34 -19 71 -72 71 -103 0 -29 -26 -62 -63 -82 -69 -35 -226
-13 -335 48 -60 34 -58 37 -67 -73 -11 -142 -56 -238 -111 -238 -53 0 -138 66
-236 184 l-24 29 -60 -88 c-104 -155 -226 -257 -290 -241 -57 15 -68 119 -23
223 12 26 39 97 61 158 31 86 48 119 82 155 24 26 60 72 81 103 21 31 41 57
44 57 4 0 29 -23 56 -51 76 -79 122 -109 165 -109 64 0 99 57 122 198 7 45 14
82 16 82 1 0 21 -9 43 -20z m1211 -152 c129 -38 129 -160 1 -193 -88 -23 -169
-3 -212 51 -28 36 -26 58 7 94 47 53 127 71 204 48z m478 -143 c55 -14 108
-36 158 -63 l22 -13 -29 -43 c-47 -67 -135 -142 -216 -182 -93 -46 -192 -57
-274 -29 -62 20 -147 98 -181 165 -21 40 -24 43 -34 26 -42 -70 -88 -124 -130
-153 -60 -41 -153 -70 -175 -55 -9 6 -56 34 -106 63 -49 29 -114 67 -143 86
l-53 33 30 38 c21 26 31 50 33 82 l3 45 135 0 c143 -1 213 -13 295 -50 122
-56 131 -58 162 -42 15 8 44 22 63 31 19 9 49 24 65 33 77 42 266 56 375 28z
m-1415 -150 c32 -8 81 -15 108 -15 41 0 59 -7 120 -48 40 -27 115 -73 167
-102 52 -29 101 -60 108 -69 18 -22 15 -82 -8 -118 -27 -45 -73 -66 -144 -65
-63 1 -99 12 -159 50 -22 13 -42 21 -45 17 -3 -3 2 -34 11 -69 9 -36 17 -85
17 -110 0 -37 -4 -48 -25 -62 -21 -14 -32 -14 -77 -4 -53 13 -190 76 -240 111
-14 11 -31 19 -36 19 -6 0 -20 -33 -32 -72 -48 -160 -115 -249 -176 -234 -32
8 -90 70 -126 134 -17 28 -33 52 -37 52 -4 0 -27 -28 -51 -62 -129 -184 -246
-252 -292 -171 -32 55 -26 105 35 258 30 77 60 157 67 178 7 23 38 64 79 106
36 37 89 100 116 140 l50 73 60 -65 c85 -93 137 -127 192 -127 33 0 50 6 67
23 31 31 62 118 71 197 11 105 8 102 68 75 29 -13 79 -31 112 -40z m948 -121
c65 -70 125 -95 225 -95 82 0 126 12 213 57 30 16 57 30 61 32 18 8 -70 -308
-123 -444 -91 -234 -209 -378 -378 -463 -77 -39 -98 -37 -209 20 -69 35 -192
130 -192 147 0 4 30 5 67 4 165 -9 278 83 278 223 -1 72 -23 118 -68 141 -17
9 -82 46 -143 83 l-112 66 2 62 1 61 36 6 c84 14 170 69 226 148 l37 51 15
-24 c9 -13 37 -47 64 -75z m3728 -317 l10 -39 115 7 c63 4 114 5 114 3 0 -3
-43 -34 -95 -68 -52 -34 -95 -69 -95 -76 0 -7 4 -23 9 -36 28 -68 72 -191 69
-193 -2 -2 -41 32 -88 76 -47 43 -89 79 -95 79 -5 -1 -46 -35 -90 -76 -44 -42
-81 -71 -83 -66 -1 5 16 55 38 112 22 57 40 107 40 110 0 4 -45 38 -99 76 -55
38 -98 70 -97 72 2 1 54 -2 116 -8 62 -7 115 -8 119 -3 4 4 17 53 30 108 12
55 25 107 28 115 3 8 15 -23 25 -70 11 -47 24 -102 29 -123z m-3072 -24 c99
-78 250 -164 341 -194 83 -28 90 -34 84 -72 -19 -107 -52 -214 -91 -295 -50
-103 -47 -101 -129 -67 -28 11 -35 23 -59 97 -76 230 -177 422 -302 572 -25
30 -31 45 -26 65 10 42 11 42 56 0 23 -22 80 -70 126 -106z m-951 -2 c177
-102 182 -107 182 -172 0 -65 -27 -110 -85 -145 -87 -51 -187 -42 -317 30 -31
17 -59 28 -63 25 -3 -4 6 -46 20 -95 29 -99 29 -162 0 -194 -24 -26 -93 -26
-166 -1 -59 20 -216 98 -264 130 -16 12 -33 21 -37 21 -4 0 -19 -39 -33 -87
-36 -120 -88 -225 -132 -268 -29 -28 -44 -35 -75 -35 -32 0 -47 8 -86 44 -26
24 -67 78 -92 120 -25 41 -47 75 -50 75 -3 0 -27 -32 -55 -71 -67 -95 -170
-205 -224 -240 -77 -48 -144 -33 -171 38 -23 60 -11 134 44 274 51 128 55 135
83 136 67 3 172 88 250 202 20 28 39 52 42 52 3 0 20 -23 36 -51 17 -28 48
-67 69 -85 97 -83 184 -17 247 186 13 41 24 77 25 78 2 2 29 -11 61 -30 254
-147 373 -124 331 67 -14 61 -14 66 1 59 61 -27 122 -43 161 -43 45 -1 121 27
134 48 4 6 11 11 17 11 5 0 71 -36 147 -79z m853 -73 c115 -169 207 -387 275
-658 35 -141 39 -166 26 -172 -5 -1 -26 -29 -47 -62 -187 -283 -619 -459
-1024 -417 -125 13 -277 49 -352 83 -51 23 -51 23 -89 123 l-38 100 23 25 c56
59 82 176 55 245 -18 47 -69 94 -145 132 l-69 35 35 19 c33 16 40 17 84 3 153
-45 234 19 221 174 -4 49 -2 72 5 72 6 0 49 -36 95 -79 62 -59 106 -90 164
-118 91 -44 97 -58 50 -118 -35 -44 -38 -75 -9 -101 12 -10 30 -36 40 -56 11
-21 27 -41 37 -47 9 -5 56 -8 103 -7 70 1 91 5 108 20 12 11 21 25 21 31 0 7
14 29 30 50 36 46 38 74 5 109 -13 14 -31 41 -40 60 -9 18 -28 39 -42 45 l-26
12 34 21 c123 75 264 287 338 508 12 36 24 71 27 79 7 21 34 -8 105 -111z
m724 -71 c81 -46 109 -121 103 -272 -4 -81 -10 -114 -35 -176 -35 -88 -110
-205 -163 -253 -69 -62 -160 -56 -224 14 -55 61 -55 75 3 176 87 150 141 321
141 442 0 55 8 65 60 80 53 15 72 14 115 -11z m282 -170 c13 -13 13 -17 -2
-41 -9 -14 -39 -39 -66 -56 -28 -17 -48 -34 -45 -39 3 -5 29 -16 58 -26 91
-29 157 -65 180 -98 34 -47 38 -151 8 -211 -41 -86 -127 -135 -215 -123 -51 7
-215 75 -222 92 -2 7 12 35 31 63 80 111 116 223 116 366 l0 99 71 -5 c44 -4
76 -11 86 -21z m-2455 -224 c54 -27 98 -51 98 -55 0 -4 -16 -12 -35 -19 -19
-7 -35 -18 -35 -24 0 -6 34 -28 75 -48 134 -68 171 -117 161 -216 -11 -113
-104 -204 -209 -204 -62 0 -103 18 -237 101 -79 49 -96 64 -98 87 -5 43 16
115 44 148 33 39 76 126 104 210 13 37 25 67 29 67 3 0 50 -21 103 -47z m980
-80 c8 -10 19 -29 26 -43 6 -14 22 -37 34 -52 l22 -28 -22 -27 c-13 -16 -29
-42 -37 -60 -8 -17 -19 -34 -24 -38 -9 -5 -142 -10 -178 -6 -7 0 -22 18 -33
39 -11 20 -30 49 -42 65 l-22 27 22 28 c13 15 29 42 38 60 8 19 20 32 28 29 6
-3 34 1 62 8 69 19 108 18 126 -2z m-1382 -228 c25 -3 57 -2 71 4 15 5 29 8
32 5 2 -2 -1 -32 -7 -67 l-11 -62 -55 -14 c-96 -24 -161 2 -200 80 -21 40 -24
76 -14 151 l6 45 67 -67 c57 -58 73 -69 111 -75z m2248 -92 c34 -48 45 -100
40 -188 -4 -76 -8 -89 -47 -155 -96 -161 -279 -302 -496 -383 -199 -74 -374
-101 -624 -94 -205 5 -307 22 -466 77 -257 90 -450 266 -472 429 -7 52 13 160
36 189 l17 23 56 -33 57 -33 57 -148 c49 -127 62 -152 94 -177 104 -82 172
-60 186 59 6 52 9 61 23 56 277 -114 609 -124 899 -29 231 75 402 198 520 372
36 52 47 62 72 62 20 0 34 -8 48 -27z m-1644 -268 c35 -91 46 -168 30 -209 -9
-23 -54 -20 -95 8 -30 21 -42 42 -82 145 -26 66 -47 122 -47 125 0 4 17 6 38
7 20 1 48 5 62 9 53 17 56 14 94 -85z m1358 -466 l23 -71 -23 -18 c-24 -20
-106 -53 -158 -64 -32 -7 -32 -7 -54 59 -12 36 -20 67 -19 69 2 1 29 13 59 25
30 12 75 33 100 46 25 13 46 24 47 25 1 0 12 -32 25 -71z m118 -71 c0 -55 20
-108 53 -144 l32 -35 54 12 c143 30 257 -59 220 -172 -13 -38 -51 -93 -89
-127 -67 -60 -268 -132 -370 -132 -126 0 -239 151 -304 406 -22 85 -22 85 22
78 82 -13 252 46 332 115 45 38 50 38 50 -1z m-889 -48 l37 0 6 -62 c4 -35 6
-67 6 -73 -3 -16 -109 -36 -170 -33 l-55 3 -6 53 c-4 29 -10 69 -14 89 l-6 36
83 -6 c46 -4 99 -7 119 -7z m197 -214 c11 -48 17 -113 17 -201 0 -122 -2 -133
-28 -187 -40 -81 -91 -107 -274 -139 -131 -22 -293 21 -344 93 -62 87 -13 180
120 228 65 24 81 46 81 110 0 22 -9 63 -19 91 l-20 50 32 -8 c18 -4 77 -8 132
-8 111 0 191 20 241 60 29 23 29 23 37 3 4 -12 15 -53 25 -92z"/>
<path d="M5577 4186 c-43 -16 -100 -52 -137 -88 -44 -43 -225 -240 -228 -249
-7 -17 18 -9 105 35 49 24 118 53 155 66 70 22 92 23 274 4 56 -5 63 -3 92 21
77 64 10 165 -138 209 -64 19 -74 19 -123 2z m169 -45 c99 -47 131 -108 78
-150 -32 -25 -82 -27 -144 -5 -73 26 -194 5 -327 -58 -24 -11 -46 -18 -49 -16
-9 10 201 216 241 236 59 31 127 28 201 -7z"/>
<path d="M1860 3969 c-42 -17 -90 -70 -90 -100 0 -38 25 -43 74 -14 52 30 61
31 111 5 49 -25 61 -25 68 -1 8 33 -24 82 -67 102 -46 21 -60 22 -96 8z"/>
<path d="M2164 3765 c-33 -22 -47 -68 -42 -132 4 -46 10 -61 32 -80 37 -32 69
-29 100 8 33 38 40 67 32 124 -5 32 -15 51 -37 70 -35 29 -56 31 -85 10z"/>
<path d="M4175 3008 c-15 -68 -30 -136 -33 -152 l-5 -29 -61 7 c-148 16 -229
19 -225 8 2 -6 56 -47 119 -90 66 -46 114 -86 112 -93 -2 -8 -26 -74 -54 -146
-28 -73 -48 -136 -45 -139 4 -4 57 39 118 96 l110 103 102 -101 c56 -56 106
-102 110 -102 15 0 5 40 -38 158 -25 67 -45 127 -45 134 0 7 52 47 115 88 63
41 115 81 115 88 0 10 -18 11 -82 5 -46 -5 -110 -8 -142 -8 l-60 0 -31 144
c-17 80 -36 146 -42 148 -5 2 -22 -52 -38 -119z m69 -86 c13 -62 26 -115 28
-117 2 -3 53 0 113 5 96 8 128 8 114 -3 -2 -2 -44 -30 -93 -63 -48 -32 -90
-64 -93 -70 -2 -6 14 -59 36 -119 22 -60 38 -111 36 -113 -2 -2 -42 33 -89 78
l-86 82 -87 -80 c-49 -45 -89 -77 -91 -73 -2 5 15 54 38 110 22 56 40 107 40
114 0 6 -23 27 -50 45 -27 19 -71 49 -97 68 l-48 35 120 -7 120 -7 24 114 c24
115 32 141 38 124 1 -6 13 -61 27 -123z"/>
<path d="M4995 2261 c-4 -7 -22 -75 -40 -152 -18 -77 -34 -142 -36 -143 -2 -2
-35 0 -74 4 -158 18 -205 20 -205 7 1 -7 50 -45 111 -86 60 -41 112 -78 115
-83 3 -5 -18 -72 -47 -148 -29 -77 -50 -143 -46 -146 4 -4 50 33 103 82 52 49
101 93 109 98 10 7 41 -16 118 -87 57 -53 107 -97 111 -97 13 0 4 31 -44 160
-28 73 -47 136 -42 139 123 79 232 156 232 162 0 11 -59 11 -180 -1 -52 -5
-98 -6 -102 -2 -3 4 -18 68 -33 142 -30 146 -38 170 -50 151z m91 -319 c16 -2
68 1 117 6 48 4 87 5 87 2 0 -3 -41 -32 -91 -64 -50 -33 -93 -66 -96 -73 -3
-7 11 -58 32 -113 20 -55 35 -105 33 -109 -2 -5 -39 24 -83 65 -44 41 -84 74
-89 74 -4 0 -46 -34 -92 -76 -46 -42 -84 -71 -84 -64 0 6 19 59 41 117 48 123
57 100 -76 191 -42 30 -74 56 -72 59 3 3 53 -1 112 -7 58 -7 108 -11 110 -8 3
2 16 51 30 109 14 57 28 111 32 119 3 8 18 -39 32 -105 27 -118 28 -120 57
-123z"/>
<path d="M4160 1363 c-12 -54 -28 -120 -35 -148 l-12 -50 -64 3 c-35 2 -95 7
-134 12 -118 15 -115 4 30 -95 63 -43 115 -81 115 -85 0 -4 -23 -64 -50 -135
-28 -71 -50 -135 -48 -143 2 -10 41 19 110 82 58 53 109 96 113 96 4 0 53 -43
110 -95 56 -52 105 -95 109 -95 12 0 6 20 -44 156 -28 75 -50 138 -48 139 2 1
56 37 121 80 64 42 117 81 117 87 0 9 -24 8 -222 -8 -38 -3 -68 -2 -68 3 0 13
-39 201 -52 251 -6 23 -14 42 -18 42 -5 0 -18 -44 -30 -97z m60 -104 l24 -122
120 7 c75 5 117 4 111 -2 -5 -5 -51 -37 -102 -70 l-91 -61 43 -118 c24 -64 43
-118 42 -119 -1 -2 -40 33 -87 76 -47 44 -89 79 -94 80 -5 0 -46 -34 -91 -75
-46 -41 -85 -75 -88 -75 -3 0 13 46 35 103 22 56 42 109 44 117 3 10 -29 38
-96 84 -56 37 -100 70 -98 71 2 2 54 -1 116 -7 92 -9 115 -9 122 2 4 7 18 62
31 121 13 60 26 109 29 109 3 0 17 -55 30 -121z"/>
<path d="M5715 1288 c-3 -13 -19 -79 -35 -147 -16 -68 -30 -125 -33 -127 -2
-2 -41 1 -88 6 -107 12 -187 15 -194 8 -3 -3 48 -42 115 -87 66 -45 120 -84
120 -86 0 -3 -22 -63 -50 -133 -48 -124 -56 -152 -44 -152 3 0 53 42 112 94
l106 95 75 -69 c42 -37 87 -80 100 -94 23 -25 51 -35 51 -18 0 4 -23 66 -50
137 -27 72 -50 133 -50 137 0 3 54 41 120 83 66 42 120 82 120 87 0 10 -55 8
-226 -8 l-61 -6 -17 84 c-39 182 -48 218 -57 218 -5 0 -11 -10 -14 -22z m45
-184 l23 -117 121 7 c73 5 117 4 111 -2 -5 -5 -49 -35 -97 -66 -49 -31 -88
-63 -88 -72 0 -12 39 -124 70 -201 5 -13 6 -23 2 -23 -4 1 -43 34 -87 75 -44
41 -84 75 -91 75 -6 0 -39 -25 -73 -56 -67 -62 -111 -98 -111 -92 0 3 20 54
43 114 24 60 42 114 40 119 -2 6 -36 31 -76 58 -39 26 -83 56 -97 68 l-25 20
30 -5 c17 -3 71 -8 121 -11 l92 -7 28 121 c15 66 30 118 34 116 4 -3 18 -57
30 -121z"/>
<path d="M2166 1745 c-12 -6 -28 -24 -36 -41 -9 -17 -26 -43 -38 -59 -29 -37
-28 -65 6 -108 15 -19 35 -49 44 -66 l17 -31 101 0 c87 0 103 3 120 20 11 11
20 26 20 34 0 7 14 30 30 51 37 47 38 66 1 107 -15 18 -31 43 -35 55 -4 11
-14 27 -22 34 -19 15 -178 19 -208 4z m196 -32 c10 -9 18 -22 18 -29 0 -7 11
-25 25 -40 14 -15 25 -36 25 -47 0 -10 -11 -32 -25 -49 -14 -16 -25 -35 -25
-42 0 -32 -34 -44 -123 -42 -88 1 -106 9 -107 43 0 7 -13 26 -30 43 -16 17
-30 37 -30 44 0 7 14 30 30 51 17 21 30 43 30 49 0 27 26 35 109 35 64 0 90
-4 103 -16z"/>
</g>
</svg>
