<?xml version="1.0" standalone="no"?>
<!DOCTYPE svg PUBLIC "-//W3C//DTD SVG 20010904//EN"
 "http://www.w3.org/TR/2001/REC-SVG-20010904/DTD/svg10.dtd">
<svg version="1.0" xmlns="http://www.w3.org/2000/svg"
 width="446.000000pt" height="545.000000pt" viewBox="0 0 446.000000 545.000000"
 preserveAspectRatio="xMidYMid meet">
<metadata>
Created by potrace 1.16, written by Peter Selinger 2001-2019
</metadata>
<g transform="translate(0.000000,545.000000) scale(0.100000,-0.100000)"
fill="#000000" stroke="none">
<path d="M1960 5405 c0 -14 -9 -43 -20 -65 -11 -21 -33 -81 -50 -132 -16 -52
-47 -121 -68 -154 -22 -32 -58 -94 -82 -136 -24 -42 -59 -97 -79 -121 -20 -24
-52 -63 -71 -87 -19 -24 -47 -57 -63 -74 -15 -17 -26 -40 -25 -51 4 -31 95
-33 154 -4 25 12 47 19 50 16 14 -13 -22 -100 -59 -144 -59 -69 -224 -232
-277 -274 -70 -55 -173 -125 -219 -148 -22 -12 -41 -25 -41 -30 0 -12 83 -69
142 -96 32 -15 71 -25 100 -25 26 0 50 -4 53 -10 3 -5 -9 -25 -28 -43 -75 -75
-297 -172 -368 -161 -31 5 -40 3 -45 -11 -9 -22 8 -37 89 -77 l68 -34 -58 -36
c-92 -57 -118 -67 -177 -74 -35 -4 -57 -12 -61 -22 -6 -16 11 -42 27 -42 6 0
24 -6 41 -14 68 -30 133 -46 189 -46 69 0 71 -6 27 -75 -17 -27 -34 -58 -39
-69 -14 -36 -86 -110 -144 -146 -97 -62 -87 -82 43 -84 114 -1 125 -11 74 -62
-61 -61 -173 -144 -196 -144 -5 0 -39 -13 -77 -30 -37 -16 -108 -40 -157 -52
-75 -20 -88 -26 -91 -45 -3 -18 7 -27 46 -47 74 -38 235 -76 350 -83 56 -3
102 -8 102 -10 0 -11 -83 -113 -121 -149 -96 -91 -293 -204 -355 -204 -40 0
-62 -23 -44 -45 7 -8 19 -15 27 -15 23 0 188 -41 203 -50 10 -6 5 -15 -21 -37
-18 -15 -52 -45 -74 -66 -90 -84 -176 -122 -349 -153 -147 -26 -143 -53 13
-100 47 -14 97 -30 109 -35 27 -11 103 -17 300 -23 73 -3 137 -8 143 -12 21
-13 -96 -114 -216 -185 -33 -20 -88 -45 -122 -55 -70 -21 -85 -40 -51 -65 28
-22 64 -29 142 -29 33 0 113 -7 176 -16 113 -17 117 -17 198 4 46 12 124 39
175 62 51 22 95 40 100 40 12 0 8 -26 -15 -85 -25 -66 -79 -123 -141 -146 -73
-29 -49 -66 61 -94 64 -17 177 -2 233 29 25 14 70 34 100 45 53 18 146 69 182
99 31 27 36 1 16 -76 -12 -47 -26 -80 -40 -91 -63 -51 40 -69 146 -26 33 14
63 25 68 25 12 0 8 -336 -5 -367 -12 -30 -15 -38 -17 -52 0 -5 -27 -24 -58
-42 -32 -17 -92 -51 -133 -75 -41 -23 -96 -48 -122 -55 -45 -11 -61 -30 -38
-44 18 -11 112 23 180 65 117 71 182 102 203 96 12 -3 25 1 31 9 7 10 41 16
101 21 50 3 108 10 130 15 22 5 112 16 200 24 88 8 185 22 215 30 69 19 125
19 220 1 41 -8 108 -18 148 -22 62 -6 72 -4 72 9 0 11 -14 17 -47 22 -27 3
-86 12 -133 20 -47 8 -106 17 -132 21 -36 5 -47 11 -51 27 -3 12 -17 51 -32
86 -21 49 -30 93 -37 179 -5 62 -7 116 -5 119 5 4 161 -99 185 -124 16 -16 27
-16 53 -2 22 11 22 8 -13 187 -11 57 -17 106 -15 109 3 3 18 -4 34 -15 172
-117 272 -147 508 -153 148 -3 175 18 84 67 -53 29 -151 145 -129 152 6 2 33
-5 59 -17 31 -13 74 -21 117 -22 114 -4 316 9 327 20 15 15 0 41 -23 41 -46 0
-150 64 -150 92 0 4 30 5 68 2 206 -20 360 -5 532 52 95 32 119 48 103 72 -6
9 -19 16 -29 15 -74 -10 -96 -4 -206 57 -71 39 -127 77 -150 103 -20 23 -37
45 -38 48 0 4 45 8 99 11 79 4 110 10 153 30 29 14 62 29 73 32 32 10 68 45
62 60 -5 11 -145 86 -163 86 -4 0 -32 15 -63 34 -31 19 -84 49 -118 68 -103
56 -349 299 -326 322 4 3 22 6 42 6 20 0 79 11 131 25 67 17 122 25 186 25 96
0 149 12 158 36 7 18 -28 41 -79 49 -37 7 -83 27 -285 122 -160 76 -310 177
-416 280 -116 114 -139 145 -136 184 1 16 -7 47 -18 70 -15 29 -18 44 -11 53
6 7 58 19 116 26 83 10 108 17 115 31 14 26 12 39 -7 46 -24 9 -98 56 -265
166 -99 66 -134 94 -127 103 14 17 2 39 -30 55 -58 29 -251 182 -251 198 0 9
28 14 141 27 41 4 59 11 68 27 12 18 9 24 -30 55 -79 64 -180 176 -244 272
-35 52 -75 108 -89 124 -17 19 -26 41 -26 62 0 18 -4 35 -9 39 -6 3 -25 27
-42 53 -130 189 -184 272 -210 325 -17 33 -40 73 -50 89 -45 67 -57 85 -80
128 -13 25 -34 60 -46 78 -24 36 -73 176 -73 208 0 25 -18 44 -42 44 -13 0
-18 -8 -18 -25z m58 -186 c17 -38 32 -74 32 -80 0 -5 5 -9 10 -9 6 0 10 -4 10
-10 0 -5 31 -61 68 -122 60 -99 118 -195 186 -311 38 -64 87 -136 96 -142 6
-3 10 -13 10 -21 0 -8 -4 -13 -9 -10 -19 12 -255 36 -265 26 -6 -6 -5 -27 2
-61 20 -84 12 -188 -13 -171 -6 4 -26 27 -45 52 -19 25 -39 50 -45 56 -12 12
-37 72 -51 119 -6 17 -18 31 -29 34 -11 2 -23 8 -26 13 -11 18 -46 -2 -59 -32
-17 -42 -71 -93 -121 -117 -24 -12 -45 -20 -46 -19 -2 1 8 46 22 100 14 54 26
117 27 140 3 34 0 41 -17 44 -11 1 -33 -10 -50 -25 -29 -27 -105 -68 -105 -57
0 9 33 58 63 93 83 97 235 364 272 477 14 43 28 85 30 92 8 24 21 11 53 -59z
m-27 -769 c16 -41 39 -86 51 -100 13 -14 41 -49 62 -77 21 -29 43 -53 50 -53
42 0 66 73 66 196 l0 64 58 0 c31 -1 82 -6 113 -13 53 -11 59 -16 121 -92 35
-44 82 -107 103 -140 40 -63 140 -182 188 -223 19 -17 25 -28 18 -35 -14 -14
-155 -12 -191 3 -16 7 -36 10 -45 6 -33 -12 -14 -46 61 -108 42 -35 98 -82
125 -104 26 -23 61 -50 78 -60 17 -10 31 -21 31 -24 0 -12 -227 -1 -270 14
-25 9 -51 16 -58 16 -13 0 -144 62 -173 82 -12 8 -22 6 -42 -7 -26 -17 -27
-20 -27 -117 l0 -99 -29 20 c-28 21 -91 82 -159 156 -44 47 -66 43 -70 -12 -2
-23 -13 -63 -26 -89 l-23 -48 -34 46 c-86 115 -145 188 -157 193 -8 3 -38 -19
-70 -49 -75 -71 -175 -128 -218 -124 l-32 3 34 50 c20 28 44 70 55 95 11 25
29 55 41 67 13 14 18 28 13 42 -8 26 -17 26 -80 2 -48 -18 -55 -18 -160 -4
-78 12 -121 23 -147 40 -21 13 -38 26 -38 29 0 8 40 39 118 92 36 24 106 80
156 126 116 105 144 126 168 126 10 0 57 17 104 37 81 35 102 52 167 132 10
12 23 21 28 19 6 -2 24 -37 40 -78z m-462 -613 c-23 -42 -77 -122 -103 -152
-49 -56 -29 -75 75 -75 56 0 82 4 93 15 8 9 31 22 50 30 19 8 60 37 92 65 31
27 65 50 75 50 9 0 27 -15 38 -32 12 -18 36 -54 54 -79 17 -25 44 -67 59 -92
24 -40 30 -46 49 -38 15 5 28 25 40 57 28 82 43 114 51 112 4 -2 57 -51 116
-110 103 -101 110 -106 130 -93 19 14 20 22 15 135 -5 137 -1 142 67 95 20
-14 66 -34 102 -44 36 -10 75 -24 86 -30 13 -7 80 -11 171 -11 83 0 151 -3
151 -7 0 -5 -4 -14 -9 -22 -13 -20 -2 -41 19 -41 11 0 22 -4 25 -10 3 -5 15
-10 25 -10 10 0 38 -15 62 -33 87 -66 145 -105 165 -111 11 -3 30 -17 42 -30
l22 -23 -93 -12 c-51 -7 -99 -15 -105 -17 -19 -5 -16 -39 8 -85 11 -23 18 -43
16 -46 -3 -2 -50 3 -106 11 -83 12 -109 21 -147 47 -36 24 -51 30 -63 22 -26
-16 -25 -43 2 -71 14 -15 35 -46 47 -69 23 -45 52 -144 45 -152 -3 -2 -35 16
-72 41 -50 33 -89 51 -143 63 -41 10 -90 24 -108 33 -46 21 -53 7 -46 -88 6
-65 3 -83 -16 -128 -26 -61 -39 -58 -59 15 -15 55 -102 198 -121 198 -18 0
-26 -20 -40 -95 -13 -73 -55 -158 -103 -212 -36 -40 -101 -82 -119 -76 -7 3
-12 35 -14 85 -2 91 -50 279 -72 288 -19 7 -52 -12 -52 -31 0 -20 -70 -95
-123 -130 -23 -16 -48 -35 -56 -42 -7 -7 -49 -31 -91 -52 -64 -32 -93 -41
-158 -46 -89 -7 -132 -1 -132 20 0 8 13 42 29 76 16 34 33 81 36 104 4 22 12
47 18 54 7 9 6 18 -6 30 -16 15 -22 14 -85 -21 -121 -65 -195 -88 -278 -86
-41 1 -77 6 -80 10 -3 5 14 28 37 51 23 24 48 57 55 73 8 17 23 41 33 55 10
14 40 58 66 99 59 92 55 97 -64 93 -123 -5 -220 24 -143 43 36 8 149 76 190
114 33 31 42 59 20 65 -7 2 -33 9 -57 16 -24 6 -40 15 -35 19 5 5 43 21 84 36
79 29 214 113 272 169 51 49 90 57 67 13z m1522 -693 c55 -5 69 -10 77 -28 11
-24 76 -108 108 -140 52 -52 134 -124 184 -163 68 -51 262 -163 283 -163 9 0
19 -4 22 -10 3 -5 39 -25 80 -45 41 -19 75 -39 75 -44 0 -10 -108 -53 -180
-72 -56 -14 -150 -14 -300 0 -191 19 -175 19 -173 -9 5 -47 4 -122 0 -127 -3
-2 -31 9 -63 25 -33 16 -93 39 -134 51 -41 12 -85 26 -98 32 -69 28 -74 -1
-16 -101 44 -75 88 -180 79 -188 -2 -2 -30 14 -62 36 -61 42 -142 84 -182 97
-14 4 -42 20 -64 36 -40 29 -67 29 -67 0 0 -9 7 -38 16 -66 8 -28 16 -95 17
-150 2 -89 0 -104 -21 -137 -13 -21 -27 -38 -30 -38 -4 0 -29 35 -57 78 -58
89 -172 209 -195 204 -22 -6 -29 -21 -23 -56 11 -72 -90 -305 -145 -335 -18
-10 -20 -5 -25 63 -3 50 -15 98 -36 147 -17 41 -31 79 -31 85 0 18 -26 35 -43
28 -9 -3 -19 -20 -22 -37 -12 -53 -44 -100 -98 -142 -28 -22 -71 -58 -94 -79
-24 -21 -46 -36 -49 -33 -3 3 -1 21 5 39 5 18 15 80 21 137 10 93 10 106 -5
120 -15 15 -18 14 -33 -9 -26 -39 -193 -199 -236 -227 -61 -39 -165 -81 -247
-98 -75 -15 -119 -19 -119 -10 0 3 23 33 50 67 28 35 56 81 62 103 6 22 20 67
30 99 20 61 18 106 -5 106 -7 0 -29 -8 -49 -18 -49 -26 -280 -98 -354 -111
-33 -6 -83 -11 -110 -11 -59 0 -164 19 -164 30 0 4 20 15 45 24 25 10 45 21
45 26 0 4 14 13 32 21 58 24 184 126 241 195 31 38 63 77 72 87 22 25 19 50
-9 76 -22 21 -30 22 -88 16 -73 -7 -173 6 -270 37 -70 23 -81 32 -50 41 45 14
243 86 254 93 22 12 151 116 191 153 22 20 43 45 47 57 5 14 30 29 72 44 35
13 88 36 118 51 30 16 57 24 58 18 5 -14 -45 -135 -73 -177 -14 -20 -25 -42
-25 -48 0 -24 82 -47 165 -45 107 2 126 6 220 54 94 49 149 88 228 164 32 31
59 54 61 52 17 -19 28 -63 37 -136 8 -72 7 -94 -7 -136 -16 -48 -16 -51 2 -64
30 -22 82 -15 146 19 46 24 69 45 97 87 33 50 81 147 95 194 9 29 24 19 52
-38 18 -38 28 -78 32 -125 4 -61 7 -70 25 -70 23 0 97 73 97 96 0 8 8 29 17
47 9 18 18 59 19 92 l3 60 52 -4 c29 -1 70 -9 91 -17 48 -17 174 -118 194
-156 16 -31 31 -35 58 -15 16 11 16 17 3 67 -8 30 -27 89 -42 130 -44 123 -45
114 6 107 24 -3 74 -9 110 -13z m428 -720 c31 -5 42 -12 49 -33 11 -32 153
-176 193 -197 16 -8 29 -18 29 -23 0 -17 93 -101 113 -101 11 0 61 -26 111
-59 50 -32 105 -61 121 -65 17 -4 41 -16 55 -26 30 -23 25 -29 -60 -61 -71
-27 -210 -30 -260 -6 -87 44 -92 4 -12 -90 87 -100 129 -135 230 -188 51 -27
89 -52 85 -56 -18 -17 -143 -39 -246 -45 -123 -7 -294 14 -346 41 -43 22 -71
20 -71 -6 0 -33 19 -61 78 -115 34 -31 53 -55 48 -62 -5 -8 -40 -12 -104 -12
-90 0 -103 2 -167 34 -39 19 -92 50 -119 69 -47 34 -70 38 -79 13 -6 -14 75
-146 138 -228 l45 -58 -43 0 c-119 1 -306 48 -352 90 -11 10 -38 27 -60 38
-22 11 -64 44 -93 73 -47 46 -55 50 -68 37 -13 -12 -12 -26 5 -114 11 -55 25
-112 30 -128 13 -32 15 -86 4 -86 -5 0 -21 9 -38 20 -16 12 -43 27 -60 35 -77
35 -222 168 -263 240 -12 22 -52 11 -52 -13 0 -25 -35 -132 -60 -186 -21 -43
-67 -92 -78 -82 -2 3 -21 47 -42 98 -45 114 -62 122 -102 49 -27 -49 -81 -99
-153 -141 -42 -24 -146 -63 -152 -57 -3 3 34 163 51 222 4 11 2 27 -3 35 -9
12 -14 11 -38 -8 -15 -12 -50 -35 -76 -50 -27 -15 -73 -41 -103 -59 -29 -17
-98 -49 -151 -70 -82 -32 -110 -38 -172 -38 -80 0 -102 14 -52 35 44 18 72 60
117 180 52 137 42 167 -38 121 -74 -43 -222 -103 -291 -117 -58 -13 -89 -14
-162 -5 -49 5 -120 13 -157 16 -42 4 -68 11 -68 18 0 7 45 34 99 60 89 43 108
58 190 143 65 69 89 100 83 110 -7 12 -52 15 -248 18 -183 3 -250 8 -284 19
-25 9 -65 21 -90 27 -50 13 -42 23 30 35 58 10 175 52 221 81 19 12 64 52 99
88 35 37 74 69 86 72 12 3 26 15 31 27 7 15 21 23 39 25 16 1 43 6 59 11 17 5
51 12 78 16 26 3 80 20 120 36 39 17 92 33 116 36 39 5 43 4 38 -13 -3 -10
-13 -46 -22 -79 -14 -52 -26 -69 -86 -129 -41 -40 -69 -75 -67 -85 2 -9 22
-23 45 -31 36 -12 56 -12 130 -2 79 12 170 37 183 52 3 3 30 18 60 34 73 39
134 85 194 146 27 27 53 50 58 50 27 0 -27 -187 -66 -226 -21 -20 -10 -42 22
-46 37 -5 98 26 158 81 28 25 78 70 111 98 34 29 65 62 68 73 11 33 23 23 40
-32 24 -79 28 -163 10 -198 -8 -16 -15 -36 -15 -45 0 -25 49 -18 105 16 66 40
115 115 156 237 17 53 36 102 41 107 24 25 168 -176 168 -234 0 -47 61 -32 95
24 65 105 68 120 61 242 -6 99 -5 113 9 113 43 0 233 -122 283 -180 20 -24 26
-26 47 -16 15 6 23 17 20 26 -2 8 -8 41 -14 72 -6 31 -27 90 -48 130 -21 40
-40 77 -42 82 -2 5 14 7 35 4 39 -6 103 -34 203 -89 39 -21 56 -26 62 -18 4 6
12 8 18 5 8 -5 11 19 11 80 l0 87 75 -6 c41 -4 93 -10 114 -13z m-1046 -1227
c59 -56 67 -67 66 -98 -4 -109 15 -236 48 -323 19 -48 31 -92 26 -96 -12 -12
-128 -29 -234 -36 -52 -3 -146 -14 -209 -25 -64 -11 -138 -19 -165 -17 -47 3
-50 4 -45 28 3 14 5 116 4 226 l0 201 42 27 c23 15 57 41 75 59 17 18 33 28
35 22 3 -5 21 -44 42 -85 30 -61 42 -76 63 -78 35 -4 103 78 140 170 27 66 38
88 42 88 1 0 32 -28 70 -63z"/>
</g>
</svg>
