<?xml version="1.0" standalone="no"?>
<!DOCTYPE svg PUBLIC "-//W3C//DTD SVG 20010904//EN"
 "http://www.w3.org/TR/2001/REC-SVG-20010904/DTD/svg10.dtd">
<svg version="1.0" xmlns="http://www.w3.org/2000/svg"
 width="355.000000pt" height="502.000000pt" viewBox="0 0 355.000000 502.000000"
 preserveAspectRatio="xMidYMid meet">
<metadata>
Created by potrace 1.16, written by Peter Selinger 2001-2019
</metadata>
<g transform="translate(0.000000,502.000000) scale(0.100000,-0.100000)"
fill="#000000" stroke="none">
<path d="M1945 4835 c-33 -34 -63 -101 -51 -112 3 -3 13 11 22 33 30 73 35 72
66 -13 31 -87 35 -147 13 -198 -23 -56 -91 -72 -140 -33 -24 19 -27 26 -22 67
4 33 12 52 32 68 32 28 45 29 45 3 0 -11 -7 -20 -16 -20 -8 0 -12 5 -9 10 3 6
1 10 -4 10 -16 0 -13 -26 3 -39 12 -10 19 -8 36 9 24 24 23 48 -1 63 -62 39
-138 -90 -97 -166 18 -35 40 -46 91 -47 40 0 53 5 77 28 28 28 50 85 50 129 0
13 -11 52 -25 89 -27 72 -32 123 -13 142 9 9 8 12 -6 12 -10 0 -33 -16 -51
-35z"/>
<path d="M1945 4413 c22 -52 18 -69 -23 -87 -22 -10 -46 -15 -52 -11 -6 4 -31
2 -55 -5 -41 -11 -43 -14 -49 -58 -3 -26 -9 -365 -13 -753 l-6 -707 -36 -17
c-20 -10 -69 -20 -109 -23 l-73 -5 8 54 c29 196 -32 358 -142 375 -64 9 -111
-10 -143 -59 -26 -40 -27 -44 -28 -201 -2 -189 -8 -211 -59 -220 -21 -4 -38
-6 -40 -4 -1 2 -16 52 -34 111 -37 127 -64 183 -121 256 -46 57 -85 86 -143
102 -145 39 -208 -213 -100 -399 15 -25 56 -77 92 -114 35 -38 61 -71 57 -75
-3 -3 -45 6 -94 21 -50 16 -120 30 -167 33 -70 4 -86 2 -124 -19 -68 -35 -86
-66 -85 -147 0 -46 5 -75 17 -91 l17 -24 -73 -27 c-173 -63 -187 -71 -187
-102 0 -28 80 -99 143 -128 29 -13 53 -24 55 -25 1 0 -4 -27 -13 -60 -8 -32
-15 -97 -15 -145 0 -135 33 -206 118 -256 42 -25 57 -28 135 -28 l87 0 0 -32
c0 -93 22 -554 31 -658 10 -117 37 -262 58 -317 7 -19 7 -41 -1 -76 -12 -47
-13 -48 -39 -39 -19 8 -35 7 -58 -3 -55 -22 -54 -88 2 -111 18 -7 34 -14 36
-15 2 -2 -8 -17 -23 -34 -14 -17 -26 -40 -26 -50 0 -52 82 -88 118 -52 11 11
22 26 24 33 4 10 13 7 33 -14 15 -15 35 -27 45 -27 25 0 50 32 50 64 0 19 4
26 12 23 113 -51 207 -81 315 -101 264 -49 360 -57 648 -54 316 4 449 20 655
80 149 43 207 72 242 119 13 17 41 48 62 69 l39 38 28 -20 c18 -14 37 -19 58
-16 28 4 31 2 31 -24 0 -34 39 -63 75 -56 21 4 25 1 25 -19 0 -28 50 -83 75
-83 29 0 65 46 65 84 0 34 1 35 26 26 42 -16 78 7 82 52 4 45 -11 76 -43 88
-24 9 -24 10 -9 46 32 76 -28 114 -89 57 -26 -26 -29 -27 -38 -10 -14 24 -52
21 -79 -8 -18 -19 -22 -32 -17 -57 4 -29 1 -36 -23 -50 l-28 -16 -4 37 c-3 20
-8 44 -12 54 -6 12 -4 17 6 17 8 0 25 11 38 25 18 19 22 31 17 60 -7 43 2 45
25 5 10 -17 25 -30 36 -30 29 0 54 34 50 67 -4 28 -8 24 -23 -22 -2 -8 -14
-15 -25 -15 -17 0 -20 6 -20 45 0 42 2 45 26 45 16 0 34 -10 46 -25 15 -20 29
-25 62 -25 49 0 76 22 76 63 0 26 -40 67 -66 67 -17 0 -17 1 1 36 19 38 19 88
-1 108 -27 27 -60 19 -95 -23 l-33 -39 -19 24 c-24 31 -70 32 -91 2 -18 -26
-21 -70 -6 -98 8 -15 4 -25 -21 -50 -27 -26 -30 -35 -25 -65 10 -50 -7 -43
-22 8 -9 31 -10 56 -3 87 14 66 29 271 36 475 3 99 8 212 11 250 l6 70 93 0
c88 0 96 2 137 30 29 21 53 51 76 95 34 64 34 66 29 170 -5 116 -21 169 -85
275 -87 146 -204 275 -323 356 -49 33 -57 43 -63 78 -12 80 -109 119 -177 70
l-29 -20 -77 24 c-43 14 -102 30 -131 37 -42 10 -64 23 -105 64 -57 57 -126
86 -202 86 l-42 0 -6 161 c-3 94 -1 197 5 247 6 52 10 263 9 517 0 269 3 459
10 508 15 104 9 112 -86 104 l-71 -6 -13 34 c-7 19 -17 35 -23 35 -6 0 -7 -7
-3 -17z m174 -72 c21 -14 5 -60 -25 -71 -16 -7 -39 -6 -68 2 -37 10 -48 9 -68
-4 -29 -19 -28 -46 3 -183 17 -71 19 -96 10 -118 -14 -36 -35 -43 -67 -22 -25
16 -26 20 -20 83 15 171 19 202 27 202 24 0 4 19 -36 34 -58 23 -71 41 -22 32
24 -4 49 -1 73 9 30 12 39 13 46 3 6 -10 10 -7 14 9 3 12 16 24 28 26 39 8 91
7 105 -2z m-274 -85 c32 -14 35 -19 35 -57 0 -23 -8 -78 -17 -123 -19 -93 -10
-128 40 -156 24 -13 30 -13 54 0 40 22 49 72 27 152 -24 87 -28 149 -12 168
10 12 28 15 78 12 l65 -3 -2 -432 c-2 -238 -7 -490 -13 -561 -12 -153 -12
-472 -1 -571 7 -60 6 -73 -9 -88 -19 -21 -116 -34 -172 -23 l-33 6 -1 68 c-1
94 -25 133 -96 156 -17 5 -18 41 -18 563 0 670 7 903 27 903 7 0 29 -7 48 -14z
m-427 -1138 c44 -47 62 -96 62 -176 0 -118 -50 -254 -128 -349 -39 -49 -53
-53 -67 -20 -6 12 -25 29 -42 37 -37 17 -39 26 -16 95 11 36 16 92 18 200 1
118 5 157 18 182 37 71 103 84 155 31z m-497 -47 c78 -69 109 -136 177 -381
15 -55 18 -76 9 -79 -17 -6 -83 -73 -90 -91 -8 -21 -194 170 -230 238 -34 63
-45 160 -28 244 24 115 82 140 162 69z m895 -326 c13 -20 16 -40 11 -90 -9
-124 -83 -226 -189 -261 -67 -22 -294 -16 -352 9 l-39 17 22 24 c12 13 25 36
30 52 6 26 17 32 112 64 128 43 139 50 214 118 105 97 159 116 191 67z m424
-49 c86 -17 98 -28 130 -114 48 -125 43 -241 -15 -359 -43 -88 -99 -139 -161
-149 -90 -13 -146 34 -147 125 -1 57 14 86 55 107 31 16 32 16 55 -10 35 -41
27 -105 -12 -90 -13 5 -16 3 -13 -7 7 -21 40 -23 55 -3 17 24 17 68 -2 103
-26 52 -73 55 -120 8 -41 -41 -53 -93 -36 -157 18 -66 48 -92 114 -98 137 -11
294 143 314 308 6 51 7 53 15 25 18 -66 11 -168 -21 -297 -39 -159 -40 -230
-6 -298 32 -63 57 -80 119 -80 68 0 108 28 142 96 56 116 -3 210 -111 174 -57
-19 -87 -107 -49 -144 20 -21 30 -20 55 5 23 23 22 62 -3 67 -13 3 -16 -3 -15
-25 3 -36 -27 -39 -31 -2 -5 41 32 79 78 79 45 0 70 -20 70 -56 0 -58 -68
-134 -121 -134 -60 0 -122 101 -123 200 0 30 13 104 28 164 20 77 27 124 24
163 l-5 53 21 -19 c111 -104 318 -41 357 107 7 29 15 52 19 52 3 0 30 -16 59
-36 159 -107 336 -360 371 -528 22 -109 -11 -238 -76 -296 -33 -28 -88 -50
-130 -50 -44 0 -124 31 -151 60 -34 36 -40 37 -48 8 -11 -35 -53 -86 -98 -119
-77 -56 -194 -34 -271 51 -36 40 -40 42 -50 25 -23 -40 -81 -97 -117 -116 -24
-12 -58 -19 -91 -19 -74 1 -115 17 -194 75 -10 7 -23 -1 -48 -31 -52 -61 -120
-87 -216 -82 -63 2 -84 8 -119 31 -23 15 -50 42 -61 59 l-19 32 -34 -36 c-18
-19 -43 -41 -56 -48 -34 -18 -128 -16 -186 4 -66 22 -144 80 -157 117 -13 38
-30 37 -62 -5 -42 -56 -134 -79 -221 -55 -45 13 -121 84 -131 124 -8 32 -15
31 -45 -1 -33 -37 -79 -54 -142 -54 -161 0 -233 86 -230 275 2 120 20 179 55
183 l27 3 -21 -43 c-12 -24 -23 -63 -25 -88 -5 -49 18 -152 35 -158 5 -1 25
10 44 26 18 16 44 33 58 37 51 15 100 49 130 91 l30 43 37 -16 c28 -11 63 -14
139 -11 90 3 106 6 142 31 50 32 94 113 113 205 7 34 16 62 20 62 3 0 19 -34
34 -75 49 -135 106 -185 211 -185 78 0 154 61 154 123 0 12 11 14 58 10 50 -5
68 -1 127 25 82 36 135 76 135 101 0 13 -18 28 -52 46 -62 33 -118 76 -118 91
0 6 13 17 30 24 34 14 101 83 124 128 15 28 17 29 58 21 60 -11 133 0 171 26
31 21 32 24 29 83 -3 61 -2 62 20 58 13 -3 57 -12 98 -20z m275 -50 c150 -41
147 -39 140 -89 -5 -35 -3 -46 13 -61 30 -27 67 -18 67 17 0 15 -4 27 -10 27
-5 0 -10 -7 -10 -15 0 -8 -3 -15 -7 -15 -5 0 -12 0 -18 0 -5 0 -10 16 -10 36
0 35 1 36 28 31 54 -11 142 -55 142 -72 0 -38 -63 -116 -117 -144 -12 -6 -48
-11 -81 -11 -50 0 -66 5 -100 30 -49 35 -61 57 -97 175 -15 50 -30 96 -32 103
-6 15 -14 16 92 -12z m-1808 -89 c97 -57 146 -75 229 -83 50 -5 64 -10 64 -23
0 -9 7 -27 17 -40 15 -23 15 -25 -3 -38 -30 -22 -109 -41 -234 -58 -135 -17
-203 -18 -245 -2 -73 28 -105 74 -105 150 0 62 21 102 68 127 58 31 114 22
209 -33z m533 33 c26 -14 43 -71 31 -102 -12 -33 -62 -73 -107 -88 -39 -13
-97 -8 -120 11 -21 17 -17 86 7 120 39 56 138 86 189 59z m38 -209 c49 -25
156 -138 176 -185 20 -49 21 -135 1 -163 -35 -50 -137 -29 -187 38 -35 47
-103 227 -99 264 2 30 34 64 59 65 7 0 29 -9 50 -19z m-128 -32 c0 -33 -39
-158 -67 -212 -30 -60 -102 -133 -151 -154 -51 -21 -158 -21 -199 0 -66 35
-80 116 -33 192 26 43 68 65 173 94 88 24 128 42 170 77 19 16 41 24 68 24 33
0 39 -3 39 -21z m577 -25 c31 -25 71 -53 89 -62 36 -16 42 -33 22 -50 -27 -22
-135 -70 -171 -76 -49 -9 -104 9 -113 36 -3 12 -27 43 -52 70 -24 26 -42 48
-38 48 4 0 25 -9 47 -21 43 -22 60 -19 39 6 -13 16 -71 35 -108 35 -13 0 -37
10 -53 23 l-31 22 134 5 c73 3 143 7 156 8 14 1 43 -15 79 -44z m-1178 -39
c29 -6 31 -9 19 -22 -8 -8 -40 -17 -71 -20 -60 -6 -69 -23 -12 -23 41 0 83 15
110 39 15 14 44 20 115 25 52 4 113 9 135 12 33 4 28 0 -28 -19 -80 -28 -114
-51 -145 -99 -34 -51 -115 -89 -202 -96 -61 -4 -76 -1 -132 25 -66 31 -143 94
-136 113 3 11 134 69 213 95 35 11 43 11 70 -5 17 -10 45 -21 64 -25z m101
-207 c0 -18 9 -48 20 -66 l21 -34 -27 -35 c-27 -35 -108 -93 -130 -93 -7 0
-27 -12 -44 -26 -42 -36 -52 -23 -53 73 -2 119 32 172 110 173 20 0 22 -4 16
-32 -8 -41 13 -30 22 12 6 27 37 60 57 60 5 0 8 -15 8 -32z m155 -488 c15 -22
43 -50 62 -61 25 -16 33 -27 30 -41 -10 -37 23 -802 38 -890 13 -72 47 -206
79 -305 10 -30 -10 -30 -51 0 l-31 23 24 21 c13 12 24 29 24 38 0 25 -46 65
-75 65 -21 0 -25 4 -25 30 0 30 -37 80 -59 80 -10 0 -34 67 -50 140 -20 93
-31 220 -46 552 l-16 341 28 23 c15 13 31 23 34 24 4 0 19 -18 34 -40z m2171
13 c21 -13 25 -22 20 -47 -3 -17 -10 -161 -16 -321 -6 -159 -17 -338 -25 -398
-13 -102 -16 -109 -50 -141 -19 -18 -35 -40 -35 -47 0 -11 -11 -14 -41 -11
l-41 4 6 57 c16 155 27 371 27 571 l1 221 33 25 c18 13 45 42 60 64 15 22 30
40 32 40 2 0 15 -8 29 -17z m-1761 -62 c20 -22 64 -54 99 -72 l63 -33 7 -175
c27 -747 36 -878 69 -1009 l23 -92 -25 0 c-13 0 -52 5 -87 11 -58 10 -63 13
-77 47 -24 55 -34 101 -61 282 -34 221 -45 376 -55 745 -8 283 -7 335 5 335 2
0 20 -18 39 -39z m1349 -5 c64 -49 125 -70 186 -64 l50 5 0 -171 c0 -243 -27
-678 -42 -687 -7 -4 -12 -38 -14 -86 -1 -43 -10 -114 -19 -157 -9 -44 -14 -87
-12 -97 4 -13 -9 -21 -59 -38 -86 -28 -95 -27 -89 7 43 248 70 1242 34 1242
-5 0 -9 -135 -9 -300 0 -166 -5 -378 -10 -473 -11 -187 -39 -498 -46 -509 -6
-9 -136 -38 -170 -38 -21 0 -25 3 -19 18 14 34 35 177 41 271 21 373 21 856 0
972 -4 21 1 28 31 44 20 11 49 37 66 57 17 21 32 38 34 38 1 0 23 -15 47 -34z
m-1413 -358 c6 -247 14 -399 28 -508 30 -233 48 -350 65 -405 9 -27 16 -55 16
-61 0 -14 -74 -3 -150 23 l-55 18 -28 85 c-69 212 -91 404 -102 895 l-7 271
69 1 c46 0 81 7 108 20 22 11 42 18 44 17 1 -2 7 -162 12 -356z m1080 272 c28
-7 70 -10 94 -8 l43 5 8 -106 c9 -137 -2 -819 -16 -935 -11 -95 -36 -213 -48
-233 -7 -10 -152 -36 -160 -28 -2 2 3 58 12 124 9 66 19 189 22 273 10 252
-17 847 -43 918 -11 32 -21 -25 -12 -75 5 -28 13 -171 18 -320 6 -148 13 -294
16 -322 8 -85 -18 -462 -41 -576 l-6 -27 -109 0 -109 0 -2 435 c-2 239 -3 523
-3 631 l0 197 47 12 c51 13 123 58 139 86 9 17 13 16 55 -10 25 -16 68 -35 95
-41z m-493 -24 c18 -9 55 -20 83 -23 l49 -6 1 -146 c0 -80 3 -363 5 -629 l4
-482 -88 0 -89 0 -16 82 c-9 46 -21 128 -27 183 -13 123 -29 608 -30 888 l0
209 38 -30 c20 -16 52 -37 70 -46z m-130 -289 c3 -383 16 -671 38 -813 8 -54
17 -118 21 -141 l6 -43 -49 0 c-27 0 -65 3 -85 6 -36 6 -36 6 -58 93 -36 142
-40 189 -56 606 -8 220 -18 441 -21 491 l-7 91 76 5 c46 3 85 11 99 21 13 9
25 16 28 16 3 1 6 -149 8 -332z m1666 -265 c-1 -36 -7 -50 -40 -83 l-39 -41
48 7 c38 6 52 4 67 -10 37 -33 19 -75 -32 -75 -16 0 -36 9 -45 20 -10 11 -23
20 -29 20 -7 0 -10 8 -7 19 2 10 -2 25 -11 34 -13 12 -21 13 -44 5 -23 -9 -33
-8 -54 6 -52 34 -44 120 9 114 21 -2 29 -12 41 -45 16 -50 27 -54 35 -14 9 41
55 93 81 89 18 -3 21 -9 20 -46z m-322 -235 c-2 -26 0 -47 3 -47 3 0 19 9 34
21 32 24 69 22 85 -3 17 -28 -5 -52 -52 -59 -56 -7 -60 -14 -23 -44 48 -41 39
-105 -15 -105 -27 0 -42 18 -50 59 -9 43 -23 49 -30 12 -12 -56 -73 -95 -88
-55 -11 28 -6 43 24 78 38 43 32 63 -18 58 -27 -3 -42 1 -52 13 -13 15 -11 20
10 37 24 19 44 20 97 3 19 -6 22 -3 21 24 -1 35 18 63 41 59 12 -3 15 -14 13
-51z m-2186 -224 c21 -13 23 -21 18 -54 -5 -31 -3 -40 11 -45 35 -14 -7 -114
-48 -114 -56 0 -63 56 -12 97 43 34 44 50 4 51 -34 1 -79 26 -79 44 0 6 8 20
17 30 19 21 48 18 89 -9z m2578 1 c29 -29 14 -84 -23 -84 -8 0 -22 7 -32 16
-28 25 -49 11 -43 -28 8 -48 -10 -88 -39 -88 -36 0 -47 19 -47 84 l0 59 -24
-22 c-28 -27 -79 -26 -84 1 -5 26 42 68 76 68 23 0 31 -5 36 -24 11 -44 71
-45 82 -1 9 35 70 47 98 19z"/>
<path d="M623 788 c-11 -5 -29 -25 -39 -44 -19 -36 -34 -44 -34 -20 0 25 -48
56 -73 47 -50 -18 -86 -113 -53 -140 11 -9 8 -17 -20 -45 -58 -58 -37 -111 41
-104 38 3 43 0 53 -24 5 -15 22 -33 37 -40 36 -16 76 6 87 49 7 28 12 31 44
30 28 -1 42 5 60 27 13 15 24 36 24 46 0 22 -45 60 -71 60 -23 0 -23 -1 -4 43
22 52 20 104 -4 117 -23 12 -20 12 -48 -2z"/>
</g>
</svg>
