<?xml version="1.0" standalone="no"?>
<!DOCTYPE svg PUBLIC "-//W3C//DTD SVG 20010904//EN"
 "http://www.w3.org/TR/2001/REC-SVG-20010904/DTD/svg10.dtd">
<svg version="1.0" xmlns="http://www.w3.org/2000/svg"
 width="495.000000pt" height="559.000000pt" viewBox="0 0 495.000000 559.000000"
 preserveAspectRatio="xMidYMid meet">
<metadata>
Created by potrace 1.16, written by Peter Selinger 2001-2019
</metadata>
<g transform="translate(0.000000,559.000000) scale(0.100000,-0.100000)"
fill="#000000" stroke="none">
<path d="M2528 5403 c-9 -10 -26 -38 -38 -63 -12 -25 -38 -73 -58 -107 -41
-72 -36 -70 -200 -77 -57 -2 -107 -7 -110 -11 -7 -6 157 -165 171 -165 23 0
-3 -45 -69 -118 -42 -46 -73 -86 -70 -90 4 -4 61 -9 126 -12 75 -3 124 -10
132 -18 10 -10 9 -26 -6 -80 -41 -154 -111 -287 -189 -359 -65 -60 -190 -141
-294 -190 l-93 -44 0 -45 c0 -24 5 -44 10 -44 6 0 10 12 10 26 0 16 11 37 27
52 26 24 147 92 164 92 5 0 6 -14 2 -31 -6 -31 -5 -32 21 -25 27 7 28 6 42
-42 3 -9 14 -7 45 8 l41 21 41 -21 c39 -21 42 -21 54 -4 7 10 13 21 13 26 0
13 43 9 70 -7 37 -21 48 -18 65 16 15 28 19 30 56 24 36 -6 40 -5 49 20 10 26
12 27 61 20 49 -7 50 -7 62 24 11 29 15 31 60 31 41 0 50 3 54 21 5 18 11 20
45 15 34 -6 39 -4 50 20 l12 26 43 -47 c37 -42 42 -53 41 -97 0 -29 7 -59 17
-74 20 -31 76 -56 108 -49 16 4 35 -7 71 -40 48 -44 57 -67 18 -46 -24 13
-129 8 -143 -6 -13 -13 28 -98 107 -224 58 -93 63 -105 38 -95 -37 14 -94 -58
-94 -117 0 -30 51 -77 84 -77 21 0 64 24 78 44 4 6 8 23 8 39 0 15 3 27 8 26
14 -1 75 -93 63 -97 -6 -2 -11 -13 -11 -25 0 -33 -14 -48 -41 -45 -18 2 -25
-2 -27 -20 -3 -17 -10 -23 -25 -22 -42 4 -47 0 -47 -35 0 -32 -2 -35 -30 -35
-24 0 -35 -7 -51 -35 -18 -30 -24 -33 -50 -28 -26 5 -30 3 -35 -27 -7 -32 -12
-33 -56 -15 -13 5 -19 -2 -29 -35 -11 -35 -16 -40 -33 -35 -40 12 -51 10 -61
-12 -12 -29 -32 -30 -40 -2 -9 27 20 59 55 59 36 0 43 9 25 37 -14 20 -14 27
0 58 12 30 12 37 0 41 -7 3 -25 -2 -39 -11 -25 -16 -27 -16 -57 9 -38 32 -49
27 -42 -20 5 -29 1 -40 -22 -64 -26 -27 -27 -30 -9 -35 58 -19 66 -40 29 -81
l-26 -29 -16 23 c-18 26 -40 28 -72 6 -22 -16 -24 -15 -50 16 -25 30 -28 31
-43 16 -20 -20 -48 -21 -48 -2 0 22 -19 30 -36 15 -20 -16 -29 -4 -26 36 4 41
-11 52 -43 31 -32 -21 -33 -21 -37 12 -2 19 -9 28 -26 30 -17 3 -22 9 -20 25
3 19 -1 22 -24 19 -20 -2 -28 2 -28 13 0 8 1 17 3 18 1 2 -4 11 -12 20 -10 13
-18 14 -33 6 -18 -10 -19 -8 -16 33 3 43 0 46 -36 32 -17 -6 -18 -3 -11 34 7
41 6 42 -20 42 -25 0 -26 3 -23 38 3 33 1 37 -21 37 -26 0 -39 19 -22 30 23
13 10 34 -24 41 -39 7 -41 11 -21 59 16 39 13 45 -25 45 -43 0 -44 45 -1 114
33 53 37 56 68 50 47 -9 74 4 90 42 30 71 -37 124 -92 73 -19 -18 -26 -19 -63
-9 -22 6 -41 15 -41 20 0 5 14 18 30 30 37 26 39 39 5 32 -14 -2 -25 -10 -25
-16 0 -7 -11 -19 -25 -26 -14 -7 -25 -17 -25 -21 0 -4 27 -18 60 -30 33 -12
60 -25 60 -29 0 -15 -98 -168 -144 -225 -78 -97 -274 -282 -333 -316 -55 -32
-76 -61 -67 -97 3 -11 -3 -37 -15 -59 -16 -33 -28 -42 -65 -53 -49 -14 -56
-23 -28 -39 51 -31 53 -35 33 -77 -11 -21 -18 -41 -15 -43 2 -2 24 4 49 13 44
17 46 17 74 -3 40 -29 53 -27 41 5 -17 44 -12 61 26 83 42 25 40 45 -4 49 -46
5 -82 60 -82 125 0 49 0 49 28 42 15 -4 54 -13 87 -20 51 -11 104 -30 175 -65
23 -11 19 -24 -40 -106 -236 -330 -309 -403 -484 -484 -36 -17 -66 -35 -66
-41 0 -5 11 -14 25 -19 14 -5 25 -14 25 -19 0 -16 110 -61 181 -73 38 -7 69
-15 69 -20 0 -4 -23 -50 -51 -103 -74 -139 -107 -233 -114 -317 -1 -15 -14
-18 -39 -7 -14 7 -26 16 -26 21 0 4 -5 8 -11 8 -5 0 -46 23 -90 51 l-80 51
-167 -26 c-92 -15 -180 -31 -197 -36 -16 -4 -64 -14 -105 -20 -84 -14 -124
-29 -76 -30 30 0 196 -76 196 -89 0 -5 -21 -13 -48 -19 -26 -5 -113 -27 -195
-48 l-147 -37 -57 45 c-31 25 -59 50 -61 56 -3 11 47 28 208 72 63 17 67 19
26 14 -42 -5 -88 -15 -239 -55 l-37 -10 4 -67 c3 -37 8 -145 12 -240 l7 -172
123 -88 c199 -140 223 -158 252 -184 15 -14 45 -35 67 -47 l41 -22 86 29 c107
37 258 76 265 68 16 -16 -46 -89 -170 -203 -75 -68 -74 -75 18 -75 25 0 47 -3
49 -7 3 -4 -23 -17 -57 -30 -34 -12 -82 -32 -107 -44 l-44 -22 -1 -65 c-1 -84
13 -179 32 -208 7 -12 39 -34 70 -47 66 -30 85 -25 22 5 -65 31 -74 41 -87 92
-15 60 -16 178 -1 178 13 0 155 -74 182 -94 15 -12 19 -33 23 -120 3 -80 2
-106 -8 -106 -20 0 11 -25 70 -55 64 -33 79 -29 17 5 -24 13 -46 33 -49 44 -3
12 -6 67 -6 124 l0 103 56 25 c74 32 65 40 -16 13 l-63 -22 -103 54 c-57 30
-104 58 -104 62 0 9 109 59 196 90 70 24 85 22 194 -33 136 -68 141 -73 94
-84 -15 -4 -24 -9 -21 -12 2 -3 31 4 63 15 33 11 50 20 39 20 -27 0 -254 113
-255 126 0 6 21 16 46 23 26 7 44 15 41 18 -4 5 -81 -14 -137 -34 -24 -8 -144
-1 -155 9 -6 6 21 38 71 87 44 42 93 97 108 121 25 39 30 43 58 37 21 -4 45 0
73 14 69 33 85 101 40 169 -14 21 -24 44 -21 52 2 8 7 26 10 40 4 18 14 29 32
33 32 8 51 -7 62 -48 8 -28 12 -31 48 -31 43 1 54 -8 54 -43 0 -35 19 -65 33
-54 7 6 23 12 37 14 23 3 25 -1 28 -37 4 -53 13 -60 50 -41 17 9 35 16 40 16
4 0 16 -25 26 -55 18 -57 28 -64 60 -40 30 23 43 18 50 -18 3 -19 12 -42 19
-51 13 -17 15 -17 46 -2 39 20 47 16 55 -29 9 -48 30 -67 62 -55 42 16 54 12
70 -26 13 -30 19 -35 39 -30 34 9 53 -2 60 -34 8 -34 24 -42 50 -24 30 22 41
17 60 -26 19 -43 29 -47 59 -25 28 22 45 18 56 -10 12 -31 17 -31 48 -2 l24
22 18 -23 c10 -12 20 -28 23 -35 4 -9 7 -9 18 0 21 20 38 15 45 -12 7 -29 22
-32 39 -8 11 15 14 14 31 -13 10 -16 23 -32 28 -36 5 -3 7 -69 4 -155 l-6
-149 46 -25 c26 -13 74 -42 107 -63 65 -43 191 -117 323 -191 94 -53 106 -54
232 -12 41 14 101 31 133 38 55 13 67 21 48 34 -5 3 -8 20 -5 38 2 17 9 167
14 332 6 165 13 348 17 406 l6 105 -69 49 c-117 82 -146 117 -109 131 30 12
285 -136 299 -173 3 -8 3 -20 0 -25 -4 -6 -13 -135 -20 -287 -13 -261 -26
-450 -39 -533 -5 -35 -3 -38 17 -37 30 1 99 27 75 28 -10 1 -27 -4 -37 -9 -12
-7 -21 -7 -25 0 -3 5 1 103 9 217 9 115 20 299 26 410 5 111 14 213 19 226 12
30 20 33 126 47 44 5 99 13 123 16 l42 7 0 -64 c0 -35 -4 -158 -10 -274 -6
-116 -13 -276 -16 -357 l-6 -147 -42 -16 -41 -15 45 5 c24 3 50 11 57 17 10 8
13 64 14 237 1 124 4 239 8 255 5 22 16 32 55 47 27 10 58 27 70 37 11 11 45
27 74 37 28 9 52 21 52 26 0 5 12 14 28 20 34 13 157 40 197 42 43 3 43 21 0
29 -47 10 -145 57 -145 69 0 5 8 12 18 15 46 15 72 27 68 31 -3 3 -25 -2 -50
-10 -34 -12 -47 -13 -53 -4 -4 7 -6 203 -3 437 l5 425 -25 23 c-30 27 -209
130 -302 174 -38 17 -68 35 -68 40 0 4 20 8 45 8 39 0 47 4 57 25 13 30 24 32
32 7 4 -10 21 -33 40 -51 30 -29 36 -31 54 -20 22 14 26 13 109 -34 67 -38
176 -109 201 -131 22 -19 22 -21 17 -235 -10 -476 -18 -640 -29 -644 -6 -2 3
-2 19 0 17 2 76 20 132 39 92 32 103 39 113 67 9 27 17 218 31 781 2 57 -3 62
-101 108 -181 84 -185 85 -206 64 -14 -15 -11 -16 29 -16 32 0 70 -13 145 -50
56 -27 102 -53 102 -58 0 -9 -160 -42 -204 -42 -31 0 -186 88 -186 106 0 6 10
16 23 22 18 9 12 10 -33 6 -45 -4 -60 -1 -80 15 l-25 20 35 16 35 15 -49 -6
c-48 -7 -49 -6 -44 19 4 22 0 28 -26 37 -30 11 -30 12 -9 22 17 8 33 5 74 -16
29 -14 59 -26 67 -26 8 0 12 -6 8 -15 -4 -12 4 -15 39 -15 60 0 56 29 -3 30
-24 1 -121 49 -100 49 24 1 43 34 73 121 14 40 25 75 25 77 0 8 -71 33 -92 33
-17 -1 -12 -5 17 -15 22 -8 41 -15 43 -15 12 -1 -4 -22 -27 -37 -16 -10 -66
-48 -112 -86 -45 -37 -86 -67 -91 -67 -13 0 -9 24 13 76 50 116 60 132 87 139
l27 7 -24 11 c-20 10 -26 8 -45 -16 -12 -15 -30 -50 -40 -77 -20 -57 -36 -57
-36 0 0 44 -28 100 -50 99 -8 -1 -26 -5 -40 -10 l-25 -8 25 1 c43 1 46 -1 58
-35 14 -38 16 -137 4 -137 -5 0 -19 12 -33 26 -13 14 -52 41 -86 61 -35 19
-63 38 -63 43 0 12 -26 19 -49 13 -27 -7 -27 -23 -1 -23 46 0 230 -125 230
-156 0 -7 -29 -17 -66 -23 -53 -10 -69 -9 -82 1 -19 16 -229 275 -300 372
-101 136 -174 250 -210 328 -2 3 23 9 55 12 89 10 166 28 185 43 31 27 59 12
79 -42 26 -67 24 -73 -16 -81 -47 -9 -53 -22 -20 -48 25 -20 26 -25 17 -59
-13 -48 0 -56 39 -23 29 25 32 25 66 11 43 -18 47 -16 34 19 -13 32 -6 50 25
71 37 24 31 45 -14 45 -28 0 -45 7 -62 25 -13 14 -29 25 -36 25 -7 0 -20 24
-28 53 -13 44 -22 57 -53 74 -98 56 -273 249 -388 428 -54 84 -125 212 -125
226 0 17 89 17 139 0 96 -33 117 -81 45 -104 -41 -14 -41 -13 -1 -51 34 -32
36 -36 26 -66 -6 -17 -9 -34 -6 -37 3 -3 30 4 59 15 29 12 70 24 91 27 42 7
45 13 16 38 l-20 18 20 33 c12 18 21 36 21 40 0 3 -20 6 -45 6 -38 0 -48 4
-66 30 -17 22 -26 27 -35 19 -9 -8 -16 -4 -24 13 -7 13 -46 57 -89 99 -183
181 -345 378 -394 480 -38 76 -87 224 -87 258 l0 29 109 7 c59 4 113 10 120
14 7 5 2 22 -19 54 -17 26 -30 50 -30 54 0 3 -14 28 -30 55 l-31 50 27 36 c16
21 30 39 33 42 22 19 82 102 78 106 -3 3 -66 7 -141 8 -75 1 -138 4 -140 7
-10 11 -95 171 -102 191 -12 39 -33 47 -56 21z m85 -123 c38 -73 63 -110 75
-111 9 0 67 -1 127 -3 84 -2 109 -6 107 -16 -2 -7 -30 -46 -64 -86 l-61 -74
25 -32 c33 -45 92 -157 86 -164 -3 -3 -63 -8 -132 -11 l-126 -6 -40 -61 c-22
-33 -40 -66 -40 -72 0 -6 -6 -17 -14 -23 -12 -10 -24 2 -65 67 -59 91 -61 92
-213 92 -49 0 -88 3 -88 8 0 4 21 30 46 57 115 127 106 113 86 132 -9 10 -50
47 -90 82 -39 35 -70 67 -67 71 2 4 53 10 113 13 60 4 116 9 125 13 9 3 44 57
77 120 33 63 64 114 68 114 4 0 33 -50 65 -110z m52 -562 c-14 -16 -25 -36
-25 -44 0 -20 36 -54 58 -54 13 0 25 -20 45 -75 16 -41 25 -79 22 -85 -3 -5
-19 -10 -34 -10 -20 0 -34 -8 -45 -25 -19 -29 -24 -30 -50 -10 -18 13 -17 15
4 45 18 25 28 30 46 26 33 -9 37 7 9 34 -21 20 -24 30 -19 58 l7 35 -35 -7
c-55 -10 -65 11 -34 72 29 57 53 85 67 76 5 -3 -2 -19 -16 -36z m-205 -17 c0
-9 64 -112 83 -133 14 -15 13 -18 -4 -34 -22 -20 -16 -34 15 -34 24 0 51 -22
40 -33 -3 -3 0 -15 6 -27 17 -32 -22 -73 -61 -65 -20 5 -34 0 -54 -19 -20 -19
-34 -24 -52 -20 -16 4 -31 0 -44 -12 -13 -12 -33 -17 -56 -16 -24 2 -39 -3
-48 -14 -7 -10 -19 -15 -29 -11 -17 7 -22 27 -7 27 5 0 25 23 45 50 20 28 43
50 51 50 31 0 77 32 90 63 14 34 6 61 -23 83 -12 9 -11 21 5 86 12 51 22 74
30 71 7 -3 13 -8 13 -12z m344 -290 c9 -16 27 -43 42 -60 24 -29 25 -34 14
-62 -9 -22 -17 -28 -29 -23 -40 16 -50 15 -62 -8 -17 -32 -27 -37 -62 -27 -31
9 -57 -2 -57 -25 -1 -30 -17 -38 -55 -27 -35 9 -39 8 -63 -19 -21 -24 -31 -28
-55 -23 -25 5 -34 1 -53 -23 -22 -27 -25 -28 -57 -16 -49 18 -73 15 -90 -10
-15 -22 -16 -23 -46 -6 -28 15 -34 16 -66 2 -34 -14 -36 -14 -45 11 -5 14 -16
25 -25 25 -10 0 -15 10 -15 29 0 25 11 37 66 77 64 45 68 47 101 35 31 -12 37
-11 56 7 15 14 30 19 48 15 20 -4 31 1 42 17 13 18 21 21 48 15 28 -6 36 -4
54 19 20 25 24 26 49 15 25 -12 29 -10 50 16 20 25 27 27 59 21 33 -6 38 -4
49 19 9 20 17 25 34 21 13 -4 26 -2 29 4 11 17 24 11 39 -19z m538 -581 c9
-13 24 -20 45 -20 37 0 40 -6 16 -32 -15 -17 -15 -19 0 -36 21 -23 13 -32 -28
-32 -17 0 -40 -7 -51 -15 -28 -21 -37 -18 -30 10 5 19 1 28 -19 41 -28 18 -33
44 -10 44 9 0 24 13 33 30 20 35 28 37 44 10z m-1412 -131 c0 -29 2 -30 30
-24 35 8 37 -2 14 -47 -17 -33 -9 -48 28 -48 26 0 30 -17 13 -51 l-16 -31 38
4 c40 3 44 -3 29 -50 -7 -21 -5 -23 21 -20 28 3 28 2 25 -44 -4 -51 -2 -54 29
-38 17 10 19 7 19 -31 0 -39 1 -41 25 -35 22 6 25 3 25 -19 0 -26 63 -95 86
-95 6 0 14 -14 18 -31 6 -31 6 -31 31 -15 41 27 57 21 53 -21 -3 -40 12 -53
38 -32 14 11 18 10 30 -5 7 -10 15 -24 17 -30 3 -6 15 -1 31 14 l27 25 19 -25
c11 -14 20 -28 20 -32 0 -15 27 -8 45 12 24 27 33 25 65 -12 l28 -32 22 38 23
37 26 -25 c34 -33 49 -33 57 0 7 26 21 28 66 9 19 -7 21 -4 33 49 5 23 10 27
28 21 44 -13 51 -10 57 19 4 26 9 30 40 30 30 1 35 5 43 33 9 29 14 32 51 35
40 3 41 4 38 37 l-4 34 42 -7 42 -7 -7 31 c-6 29 -6 30 27 28 28 -3 33 0 33
19 0 11 3 24 6 27 10 11 58 -20 122 -77 34 -30 73 -64 87 -76 24 -20 24 -20 4
-21 -12 0 -27 -6 -33 -13 -18 -23 -89 -38 -177 -39 -46 0 -84 -3 -84 -5 0 -3
16 -33 35 -67 40 -71 41 -76 20 -76 -9 0 -15 -9 -15 -21 0 -18 -4 -20 -30 -14
-26 6 -30 3 -36 -20 -5 -22 -10 -25 -34 -20 -24 5 -28 3 -33 -25 -6 -27 -10
-30 -39 -28 -28 3 -34 -1 -36 -19 -4 -27 -8 -28 -30 -7 -15 15 -18 14 -43 -16
-23 -27 -30 -30 -47 -21 -35 19 -52 13 -52 -15 0 -21 -3 -25 -17 -19 -45 18
-56 18 -73 -5 l-17 -23 -31 21 c-38 27 -62 28 -69 2 -3 -11 -9 -20 -13 -20 -4
0 -15 9 -25 20 -23 25 -37 25 -60 0 -16 -18 -19 -18 -42 -3 -19 13 -29 14 -49
4 -35 -15 -39 -14 -52 14 -13 29 -28 31 -53 9 -22 -20 -39 -11 -39 21 0 32
-17 41 -41 19 -23 -21 -26 -19 -37 32 -9 40 -14 42 -59 28 -19 -5 -23 -2 -23
15 0 12 -5 31 -10 41 -9 16 -15 18 -36 10 -24 -10 -25 -9 -24 22 3 56 3 57
-35 51 -32 -5 -35 -4 -35 20 0 21 -5 26 -27 29 -25 3 -28 6 -25 36 3 27 0 34
-17 39 -15 4 -21 13 -21 33 0 30 -19 43 -46 33 -14 -5 -15 0 -9 45 l7 51 -36
-6 c-34 -5 -50 7 -26 22 6 3 10 15 10 26 0 15 -7 19 -31 19 -27 0 -30 3 -25
20 3 11 9 29 12 40 5 17 2 20 -26 20 -30 0 -31 1 -25 30 4 19 2 37 -6 46 -10
13 -5 22 34 60 25 25 56 61 69 80 29 42 38 43 38 3z m1282 -127 c10 -8 20 -30
24 -49 12 -62 -52 -104 -101 -67 -31 24 -27 90 8 120 28 24 37 24 69 -4z
m-1438 -38 c3 -8 1 -25 -5 -36 -12 -23 1 -38 34 -38 21 0 22 -19 1 -48 -19
-28 -16 -33 26 -34 27 -1 31 -4 25 -22 -13 -43 -11 -51 15 -48 44 5 51 -3 35
-41 -16 -39 -7 -60 26 -56 26 4 32 -3 23 -26 -4 -8 -4 -22 0 -30 4 -12 11 -13
32 -5 25 10 26 9 19 -17 -3 -15 -7 -32 -8 -38 -1 -5 12 -10 28 -11 27 0 30 -3
28 -28 -2 -28 -1 -28 38 -23 l40 5 -7 -44 c-7 -46 3 -55 36 -34 23 15 42 -8
34 -43 l-6 -30 45 7 46 7 7 -38 c8 -46 23 -57 46 -37 22 21 38 10 38 -27 0
-35 17 -38 50 -7 22 21 24 21 34 4 30 -49 30 -49 63 -29 30 17 32 17 51 0 19
-17 52 -23 52 -9 0 4 4 13 9 20 6 11 16 8 47 -13 l39 -27 9 26 c12 31 20 32
53 6 14 -11 36 -20 49 -20 17 0 24 6 24 20 0 24 11 25 51 5 31 -17 30 -18 45
32 3 10 9 10 30 1 24 -11 29 -10 48 14 19 24 23 25 41 12 25 -18 38 -14 46 17
3 14 12 22 20 20 36 -9 44 -5 47 22 3 22 8 28 20 24 44 -12 47 -11 50 13 5 31
20 42 43 29 25 -13 29 -12 29 11 0 30 26 24 54 -12 119 -154 157 -214 150
-238 -19 -66 -1 -94 54 -86 27 4 33 2 30 -12 -2 -9 -10 -17 -18 -18 -34 -2
-39 -5 -45 -25 -5 -16 -14 -19 -38 -17 -29 3 -32 0 -35 -29 -3 -34 -19 -42
-40 -21 -16 16 -39 -5 -47 -43 -6 -25 -10 -28 -31 -23 -21 5 -25 2 -30 -26 -6
-28 -10 -31 -32 -27 -38 7 -51 -1 -58 -39 -6 -31 -8 -33 -43 -31 -32 2 -36 -1
-39 -25 -3 -28 -16 -36 -27 -18 -12 19 -25 10 -40 -26 -12 -30 -17 -34 -34
-25 -21 12 -36 0 -43 -34 -4 -19 -14 -22 -48 -14 -9 3 -20 -9 -29 -28 -14 -31
-17 -32 -53 -27 -36 6 -38 5 -44 -25 -8 -41 -19 -46 -50 -26 -28 18 -48 9 -59
-26 -6 -19 -8 -19 -36 -2 -28 17 -30 17 -51 -5 l-22 -22 -29 28 -29 27 -22
-28 -23 -28 -17 25 c-19 29 -38 33 -56 11 -15 -18 -30 -19 -30 -2 0 6 -4 18
-9 26 -8 12 -14 12 -41 1 -28 -12 -32 -11 -47 9 -8 12 -20 20 -27 18 -52 -20
-55 -19 -64 15 -9 34 -15 36 -64 23 -26 -7 -27 -6 -21 30 6 36 5 37 -18 30
-13 -4 -28 -11 -33 -16 -20 -19 -28 -8 -22 30 7 47 0 54 -43 41 l-31 -9 0 40
c0 24 -5 39 -12 39 -9 0 -13 -17 -14 -50 0 -45 2 -50 22 -50 13 0 26 5 29 10
16 26 27 8 22 -34 -4 -24 -3 -46 0 -50 3 -3 22 4 40 15 l35 22 -3 -36 c-4 -47
3 -52 42 -33 18 9 34 16 36 16 2 0 10 -18 19 -41 13 -30 21 -38 33 -33 37 16
61 16 61 1 0 -8 6 -20 13 -26 11 -8 18 -6 32 9 25 27 34 25 50 -12 20 -49 26
-51 46 -18 23 37 30 37 51 0 21 -37 35 -38 50 -5 14 30 20 31 43 5 23 -25 37
-25 60 0 16 17 20 18 38 5 28 -20 46 -19 54 3 14 38 23 41 58 20 40 -23 55
-17 55 22 0 37 10 42 50 29 26 -9 34 -9 41 2 5 8 7 19 5 25 -2 6 -1 16 4 23 6
10 14 9 38 -3 34 -17 38 -15 40 28 2 36 9 43 24 28 20 -20 33 -14 44 21 6 21
14 31 24 28 8 -2 23 -6 32 -8 13 -4 17 3 20 29 3 34 5 35 58 27 22 -4 25 -1
22 24 -2 16 2 35 8 43 10 11 16 11 41 -2 32 -16 35 -13 41 36 4 25 9 27 41 15
14 -6 17 -2 17 21 0 48 13 59 50 45 47 -16 49 -15 43 31 -7 45 -12 43 58 22
18 -6 20 -4 15 13 -8 26 19 52 36 35 17 -17 36 -15 40 5 2 11 17 -2 48 -43 24
-32 70 -86 102 -119 32 -32 58 -63 58 -67 0 -4 -24 -8 -53 -8 -41 0 -55 -4
-64 -19 -8 -13 -33 -24 -70 -31 -77 -15 -123 -36 -123 -55 0 -11 -11 -15 -40
-15 -40 0 -40 0 -40 -39 0 -41 -11 -51 -55 -51 -19 0 -24 -6 -27 -32 -3 -29
-7 -33 -36 -36 -34 -3 -36 -6 -47 -55 -5 -25 -9 -28 -33 -22 -24 5 -29 1 -39
-25 -8 -22 -18 -30 -37 -30 -13 0 -28 5 -31 10 -12 19 -33 10 -45 -21 -13 -30
-15 -31 -61 -25 -42 6 -49 4 -59 -14 -6 -11 -7 -20 -3 -20 4 0 2 -5 -4 -11 -8
-8 -19 -6 -41 5 -35 18 -48 9 -58 -43 -6 -28 -10 -32 -28 -26 -56 18 -68 17
-98 -5 l-30 -22 -24 23 -24 23 -30 -29 -29 -28 -31 27 c-39 32 -44 32 -68 1
-11 -14 -23 -25 -27 -25 -4 0 -16 11 -27 25 -11 14 -25 25 -32 25 -7 0 -19
-11 -26 -25 -17 -32 -24 -31 -50 5 -26 37 -43 38 -68 4 l-19 -27 -22 37 c-25
40 -26 41 -61 21 -34 -20 -40 -19 -40 8 0 47 -18 55 -72 32 -14 -5 -18 -2 -18
13 0 24 -25 48 -35 32 -12 -20 -35 -10 -35 14 0 29 -17 43 -33 27 -21 -21 -35
-11 -42 30 -8 43 -8 44 -72 24 -22 -7 -23 -6 -17 39 5 36 4 46 -7 46 -10 0
-14 -16 -16 -56 -1 -61 -3 -60 64 -39 19 6 22 2 28 -40 6 -37 11 -45 24 -39
45 18 51 17 51 -13 0 -39 8 -45 34 -28 30 21 36 19 36 -15 0 -35 1 -35 42 -14
34 18 48 9 48 -33 0 -32 18 -38 44 -14 30 28 43 26 60 -7 27 -52 41 -57 69
-21 l24 31 28 -36 c32 -42 52 -46 61 -11 8 32 21 32 57 -2 l28 -28 27 33 27
33 30 -31 c35 -37 48 -38 63 -5 13 29 34 32 57 8 16 -15 15 -17 -12 -31 -36
-19 -43 -30 -43 -72 0 -19 -5 -70 -12 -112 -10 -71 -10 -79 7 -98 28 -31 133
-28 205 6 107 50 113 74 39 147 -29 28 -61 71 -71 95 -11 24 -29 47 -39 49
-25 7 -24 18 2 37 20 13 26 13 60 -5 47 -24 49 -24 49 1 0 27 21 70 34 70 6
-1 22 -7 36 -15 35 -20 38 -19 42 18 l3 32 58 -3 c55 -3 57 -2 57 22 0 31 16
36 57 19 45 -18 49 -17 60 20 8 28 13 32 40 29 28 -3 31 0 37 38 6 39 7 40 46
40 38 0 39 1 42 38 3 32 6 37 28 37 41 0 38 -38 -4 -72 -20 -15 -36 -31 -36
-35 0 -5 21 -8 46 -8 44 0 46 -1 61 -40 9 -22 20 -40 24 -40 5 0 16 14 24 30
16 30 58 55 75 45 17 -10 22 17 6 34 -16 18 -21 57 -10 85 8 20 24 11 24 -14
0 -10 6 -25 13 -32 23 -23 58 -100 53 -114 -3 -8 -19 -14 -35 -14 -40 0 -44
-10 -20 -49 20 -33 18 -36 -26 -43 -17 -3 -20 -10 -17 -55 l2 -52 -32 -3 c-34
-3 -36 -9 -23 -55 6 -18 2 -25 -18 -32 -19 -8 -24 -15 -20 -35 5 -25 3 -26
-40 -26 -27 0 -49 -6 -57 -15 -17 -20 -43 -19 -82 5 -34 20 -88 27 -88 11 0
-5 20 -12 44 -15 51 -8 86 -34 86 -64 0 -34 -22 -72 -42 -72 -10 0 -18 -4 -18
-10 0 -5 -7 -10 -15 -10 -9 0 -15 9 -15 24 0 13 -11 35 -25 49 -26 25 -113 53
-137 44 -7 -3 -2 -6 12 -6 50 -2 110 -38 125 -75 19 -46 19 -56 -2 -56 -23 0
-68 28 -122 76 -35 32 -42 44 -37 62 7 22 57 42 109 42 15 0 27 4 27 8 0 5
-15 6 -32 4 l-33 -5 24 26 c19 22 22 32 16 63 -3 20 -19 50 -35 66 -25 24 -33
27 -50 18 -57 -31 -71 -119 -25 -156 23 -18 24 -22 10 -28 -9 -3 -25 -6 -36
-6 -27 0 -24 -20 12 -68 17 -24 29 -45 26 -48 -3 -3 -45 -12 -94 -19 -257 -40
-285 -47 -109 -28 50 5 61 3 73 -12 29 -40 18 -49 -93 -76 l-106 -26 -69 31
c-38 17 -69 34 -69 37 0 4 12 10 26 13 43 11 20 18 -35 10 l-51 -7 0 -118 c0
-80 -4 -119 -11 -119 -6 0 -13 9 -16 20 -7 26 -35 26 -51 0 -17 -28 -27 -25
-42 10 -14 33 -26 36 -54 15 -30 -22 -42 -18 -65 20 -22 39 -40 43 -76 19 -28
-18 -45 -12 -45 19 0 12 -5 29 -10 37 -9 15 -13 14 -82 -15 -14 -5 -20 0 -28
21 -15 37 -30 55 -42 48 -5 -4 -3 -13 5 -22 8 -10 17 -29 21 -45 8 -32 15 -33
60 -8 36 21 56 13 56 -20 0 -51 20 -59 70 -31 31 17 32 17 48 -7 10 -14 24
-34 34 -45 l16 -21 24 23 c27 25 48 29 48 8 0 -8 8 -24 18 -36 l19 -23 21 21
c27 27 29 27 53 -1 15 -19 18 -39 19 -138 0 -64 -3 -119 -7 -123 -4 -4 -15 3
-25 16 -14 19 -20 21 -35 12 -15 -10 -22 -7 -40 15 -17 21 -24 24 -34 14 -10
-10 -18 -8 -40 13 -26 25 -29 25 -51 10 -21 -15 -24 -15 -40 6 -15 21 -19 21
-50 10 -49 -17 -53 -16 -67 24 -12 32 -16 35 -39 30 -51 -12 -56 -11 -62 14
-5 20 -14 26 -44 30 -38 5 -48 14 -60 54 -6 16 -13 17 -60 12 l-53 -7 -12 46
c-13 54 -28 62 -70 41 -34 -18 -35 -17 -50 42 -13 46 -31 53 -69 26 -13 -9
-25 -14 -27 -13 -2 2 -10 27 -18 54 -15 52 -16 52 -74 40 l-33 -7 0 42 0 42
-47 -4 -48 -3 -5 40 c-5 40 -5 40 -48 41 -41 1 -45 3 -62 42 -11 23 -20 42
-22 43 -2 0 -54 4 -116 8 -62 5 -116 12 -120 15 -4 4 3 15 14 24 26 21 64 84
64 105 0 9 15 31 33 49 17 18 52 57 75 86 24 28 47 52 51 52 4 0 13 -23 20
-51 l13 -50 54 7 53 6 -6 -51 -6 -51 59 2 59 3 0 -35 0 -35 53 2 52 2 0 -39
c0 -41 3 -44 52 -40 33 2 41 -11 28 -44 -12 -32 1 -41 53 -37 l39 3 -7 -50 -7
-50 44 1 c40 2 43 0 43 -23 0 -40 11 -50 47 -40 39 12 48 6 48 -31 0 -36 21
-46 52 -25 l22 16 -27 0 c-24 0 -27 3 -27 36 0 39 3 38 -70 22 -10 -2 -16 9
-20 32 -5 33 -7 35 -45 35 -26 0 -40 4 -39 13 1 6 2 23 3 37 1 24 4 25 60 25
58 0 60 -1 107 -50 26 -27 51 -50 55 -50 4 0 13 26 20 58 14 56 15 57 61 72
27 8 48 20 48 25 0 6 -18 22 -41 35 l-40 25 6 63 c7 72 -1 77 -55 32 -41 -36
-51 -37 -101 -8 -21 12 -42 19 -45 15 -3 -3 -1 -29 6 -58 l13 -53 -34 -28
c-19 -15 -45 -37 -58 -48 -14 -11 -39 -20 -58 -20 -33 0 -33 0 -31 43 l3 42
-40 0 -40 0 0 40 0 40 -52 -3 -53 -4 0 42 0 42 -61 -7 -62 -7 8 38 c4 22 7 44
8 49 1 6 -22 9 -55 8 l-58 -2 -15 54 c-15 49 -15 56 0 78 8 13 22 63 29 109
13 81 87 268 106 268 4 0 10 -9 13 -20 4 -16 12 -20 39 -18 30 3 33 1 30 -24
-4 -32 8 -41 45 -31 l28 7 -25 6 c-19 4 -24 12 -25 35 0 26 -3 29 -35 29 -33
1 -35 3 -38 39 -2 25 4 49 17 71 27 42 14 56 -54 56 -62 0 -175 36 -175 56 0
7 -11 16 -25 20 -37 9 -30 29 18 49 53 24 183 113 221 154 17 17 33 31 37 31
4 0 5 -18 2 -41 -6 -40 -5 -41 23 -37 28 3 29 2 26 -39 -4 -46 1 -49 43 -33
34 13 42 -7 25 -61 -15 -46 -8 -59 19 -35 27 24 45 16 46 -20 0 -22 5 -30 23
-32 17 -3 22 -10 22 -33 0 -27 3 -29 36 -29 l36 0 -7 -41 c-7 -40 -6 -42 16
-37 13 3 32 9 42 13 20 8 23 -17 7 -61 -13 -34 -1 -47 35 -38 28 7 28 7 7 15
-18 7 -21 14 -16 34 14 56 12 60 -31 60 -30 0 -39 4 -36 15 12 45 7 55 -29 56
-32 0 -35 3 -35 30 0 22 -5 30 -22 32 -13 2 -23 9 -24 15 -1 7 -2 21 -3 32 -1
15 -8 20 -31 20 -16 0 -29 5 -29 10 1 6 5 24 8 42 8 36 -3 47 -36 34 -33 -12
-44 -3 -44 39 1 31 -2 35 -24 35 -23 0 -25 3 -22 45 3 35 13 58 46 100 23 30
57 76 74 102 30 44 33 46 71 41 31 -4 43 -1 60 16 24 24 27 68 7 96 -12 17
-12 23 0 47 13 25 12 28 -5 38 -11 5 -26 10 -33 10 -8 0 -34 13 -59 29 -34 21
-62 30 -107 33 -90 6 -94 18 -24 63 33 21 83 64 112 96 54 63 64 68 74 43z
m2196 -1279 c37 -19 38 -33 3 -40 -49 -10 -103 -28 -99 -32 2 -3 32 3 66 11
87 23 109 20 171 -17 118 -72 117 -72 62 -80 -21 -3 -82 -13 -135 -22 l-98
-17 -75 35 c-41 20 -75 38 -75 41 0 3 17 15 38 26 35 19 35 20 7 14 -60 -13
-84 -32 -90 -72 -13 -76 -17 -92 -24 -92 -15 0 -61 112 -61 150 0 36 3 41 40
60 46 23 146 47 203 49 21 1 51 -6 67 -14z m-2834 -117 c29 -18 54 -38 54 -43
0 -6 -39 -19 -87 -29 -149 -30 -142 -31 -225 9 -43 21 -78 41 -78 45 0 12 22
17 120 30 47 7 87 14 89 16 15 15 80 0 127 -28z m3516 -131 c-2 -87 -7 -168
-11 -179 -6 -17 -25 -25 -97 -40 -49 -10 -94 -16 -100 -14 -14 5 -9 335 5 349
10 10 167 45 191 43 13 -1 15 -25 12 -159z m-3762 41 c78 -40 155 -85 172
-100 17 -15 36 -28 42 -28 20 0 76 -45 76 -62 0 -21 -60 -68 -86 -68 -10 0
-35 14 -54 31 -43 37 -116 89 -126 89 -4 0 -15 6 -23 14 -9 8 -76 46 -149 84
-74 38 -134 73 -135 78 -2 7 83 29 131 33 6 1 75 -31 152 -71z m2985 23 l70
-39 -3 -143 c-2 -79 -7 -148 -11 -152 -10 -10 -74 61 -138 151 l-45 62 7 80
c6 73 9 80 29 80 11 0 52 -18 91 -39z m358 -3 c-2 -5 -3 -82 -3 -173 0 -187 5
-177 -92 -194 l-53 -9 70 1 70 2 0 -59 0 -59 -69 -24 c-39 -12 -79 -23 -91
-23 -21 0 -115 97 -115 118 0 12 24 22 51 22 10 0 19 4 19 9 0 6 -12 9 -27 8
l-28 -2 -3 85 c-1 47 1 125 5 175 l8 90 39 13 c82 26 225 39 219 20z m-2954
-24 c17 -14 31 -30 31 -34 0 -5 -21 -15 -47 -23 -39 -12 -43 -15 -20 -16 33
-1 33 -4 1 -47 -30 -38 -42 -41 -85 -18 -37 19 -33 35 10 47 18 4 31 10 28 13
-3 3 -24 0 -47 -7 -39 -12 -45 -11 -96 17 -59 32 -68 50 -28 60 162 41 213 42
253 8z m-431 -109 c28 -20 52 -40 52 -45 0 -5 -16 -12 -35 -16 -39 -7 -115
-33 -100 -34 6 0 47 7 92 16 l83 17 55 -42 c30 -23 55 -45 55 -50 0 -10 -5
-11 -136 -45 -50 -13 -129 -37 -174 -52 -92 -30 -78 -33 -174 31 -44 29 -59
55 -32 55 19 0 134 37 154 50 15 10 15 11 -3 4 -11 -4 -56 -15 -100 -26 -44
-11 -86 -25 -93 -32 -9 -9 -15 -67 -19 -200 -3 -103 -10 -189 -15 -192 -5 -4
-22 5 -36 19 -15 13 -37 30 -49 36 -23 11 -23 15 -23 195 0 230 2 239 49 260
29 12 168 48 306 79 57 13 91 6 143 -28z m-571 -22 l53 -36 -1 -196 c-1 -108
-4 -199 -6 -203 -7 -13 -83 44 -88 66 -19 92 -33 406 -18 406 3 0 31 -17 60
-37z m3496 -36 c25 -35 52 -69 61 -76 25 -21 19 -36 -20 -50 -34 -12 -35 -15
-29 -47 5 -30 3 -35 -19 -44 -23 -9 -26 -14 -23 -57 2 -45 1 -48 -23 -48 -26
0 -28 -8 -15 -58 6 -24 4 -29 -15 -34 -19 -5 -21 -10 -15 -39 5 -29 3 -34 -13
-34 -35 0 -55 24 -50 61 3 19 8 41 12 50 5 12 -5 24 -39 45 -42 26 -45 32 -43
64 2 27 7 35 23 35 21 0 21 1 10 53 -7 33 -6 34 40 36 20 1 22 8 14 71 -3 26
0 30 21 33 49 6 52 9 35 41 -23 46 -20 61 14 61 24 0 37 -10 74 -63z m871
-103 c10 -27 7 -82 -6 -91 -7 -4 -35 -16 -63 -25 l-50 -17 64 6 63 6 -6 -94
c-4 -52 -9 -119 -12 -151 l-6 -56 -56 -25 c-164 -71 -157 -77 -148 116 4 83
11 156 15 160 5 5 26 15 47 23 l39 14 -48 -6 -48 -6 3 57 3 57 45 15 c38 13
105 28 146 32 7 0 15 -6 18 -15z m-3571 -50 c3 -19 -3 -35 -24 -59 -36 -40
-36 -53 -3 -61 l25 -6 -5 -141 c-3 -77 -7 -141 -8 -141 -16 -9 -364 -104 -369
-100 -4 2 -10 57 -13 121 -3 65 -8 160 -11 211 -5 89 -5 93 17 101 53 21 217
70 268 80 30 6 64 13 75 15 39 7 43 6 48 -20z m2812 -4 c0 -34 52 -104 165
-223 64 -68 90 -101 81 -106 -22 -14 -15 -67 14 -105 25 -33 26 -38 12 -54
-42 -46 -24 -111 28 -98 26 7 27 10 22 47 -3 21 -3 39 -1 39 2 0 24 -15 49
-34 24 -19 61 -40 80 -47 56 -21 48 -28 -45 -43 -70 -11 -132 -33 -141 -49 -6
-9 -27 -21 -48 -27 -21 -5 -50 -21 -65 -35 -15 -14 -32 -25 -39 -25 -7 0 -22
-3 -34 -6 l-21 -6 5 166 c6 164 6 167 -17 191 -13 14 -27 25 -31 25 -4 0 -20
5 -36 11 l-28 11 35 14 c45 19 89 24 118 13 21 -8 23 -7 16 8 -10 22 -9 70 1
100 6 18 3 22 -22 25 -21 2 -33 12 -46 41 -18 36 -37 42 -37 10 0 -25 -30 -53
-57 -53 -14 0 -23 -6 -23 -15 0 -8 3 -15 8 -15 4 0 13 -9 20 -21 11 -17 10
-28 -4 -65 -12 -32 -21 -43 -32 -39 -8 3 -34 10 -57 16 -30 7 -46 18 -54 35
-14 32 -15 31 10 37 19 5 21 11 16 46 -5 38 -4 41 20 41 23 0 24 2 21 53 -3
48 -1 52 20 55 21 3 23 8 20 45 -3 36 0 43 22 54 35 18 55 12 55 -17z m-1800
-35 l-6 -55 35 -17 c28 -13 33 -19 25 -30 -6 -7 -21 -13 -33 -13 -34 0 -44
-12 -51 -60 -4 -25 -9 -47 -11 -49 -3 -3 -24 16 -48 42 -38 42 -47 47 -85 47
-50 0 -51 15 -3 45 26 16 31 25 27 45 -17 71 -17 80 -4 80 8 0 25 -9 39 -20
33 -26 41 -25 75 10 16 17 33 30 38 30 5 0 6 -23 2 -55z m-1480 -19 l37 -32 6
-203 5 -203 -60 42 c-115 78 -107 57 -100 263 4 98 10 183 13 188 6 11 46 -11
99 -55z m2202 14 c12 -25 22 -48 22 -51 1 -4 -20 -12 -46 -19 -27 -6 -63 -18
-81 -27 -18 -9 -34 -14 -35 -12 -2 2 -1 30 1 62 4 53 7 60 35 78 50 30 78 22
104 -31z m749 -135 c24 -14 44 -30 44 -35 0 -7 -202 -80 -223 -80 -4 0 -1 13
7 28 8 15 17 44 21 65 4 20 15 42 24 47 24 15 76 5 127 -25z m671 -146 c-3
-82 -7 -152 -10 -155 -2 -3 -21 14 -40 37 -29 33 -34 45 -26 60 5 11 19 19 29
19 20 0 28 25 11 32 -23 8 -121 112 -114 119 13 13 93 37 126 38 l28 1 -4
-151z m-637 37 c0 -49 -17 -58 -89 -50 -43 5 -61 3 -61 -5 0 -6 17 -11 40 -11
28 0 40 -4 40 -14 0 -11 8 -12 38 -5 103 24 262 1 337 -48 l40 -27 -82 -18
c-44 -9 -114 -22 -155 -27 -63 -8 -76 -7 -98 8 -14 10 -49 30 -78 46 -49 26
-51 29 -36 46 15 16 14 17 -5 12 -32 -8 -91 6 -91 22 0 8 -8 18 -17 24 -16 8
-15 10 7 20 46 21 165 58 188 60 19 1 22 -4 22 -33z m-445 -39 c55 1 58 0 40
-14 -19 -15 -19 -15 8 -9 19 5 27 3 27 -8 0 -15 -26 -27 -105 -47 -27 -7 -42
-15 -33 -17 9 -2 33 1 52 7 43 11 45 3 9 -33 -14 -14 -23 -29 -20 -33 8 -7 89
-22 129 -22 25 -1 28 3 34 39 4 22 10 40 13 40 13 0 133 -92 127 -97 -3 -3
-58 -14 -123 -24 l-117 -17 -45 22 c-25 13 -72 33 -103 46 -32 12 -58 25 -58
29 0 4 19 15 43 24 41 17 41 17 7 11 -19 -4 -53 -9 -75 -13 l-40 -6 -7 -70
c-15 -159 -28 -429 -28 -566 0 -174 -9 -269 -24 -269 -6 0 -27 13 -46 29 l-35
28 6 309 c4 170 10 364 14 430 8 141 1 132 131 159 60 12 84 13 105 5 22 -10
35 -8 70 9 24 11 36 20 27 21 -9 0 -29 -5 -42 -12 -22 -9 -29 -8 -46 7 -11 10
-20 27 -20 37 0 17 4 19 33 11 17 -4 59 -7 92 -6z m-440 -75 c59 -31 70 -41
69 -62 -1 -14 -5 -197 -9 -408 -5 -253 -12 -387 -19 -396 -9 -12 -23 -6 -81
33 -61 41 -70 51 -69 76 1 17 4 198 7 403 4 205 9 377 12 382 9 14 13 13 90
-28z m316 -103 c41 -17 97 -42 124 -55 l50 -24 -3 -92 c-1 -51 -7 -131 -13
-178 -5 -47 -12 -210 -16 -363 -3 -153 -10 -280 -14 -283 -5 -2 -25 2 -46 11
-49 20 -196 106 -206 120 -4 5 -5 64 -2 130 3 66 7 186 9 266 5 149 25 464 32
487 5 16 1 17 85 -19z m439 -140 c0 -128 -19 -620 -28 -719 l-7 -74 -105 -28
c-160 -42 -144 -68 -137 215 6 278 34 657 51 674 11 11 204 43 219 36 4 -2 7
-49 7 -104z"/>
<path d="M1856 3049 c-15 -12 -46 -62 -70 -113 -23 -50 -50 -97 -59 -105 -9
-7 -17 -24 -17 -37 0 -47 80 -74 220 -75 120 -1 134 10 102 76 -12 25 -22 61
-22 80 0 74 -20 133 -56 165 -41 35 -62 37 -98 9z m79 -21 c33 -26 55 -75 55
-124 0 -30 -3 -35 -17 -29 -33 13 -135 26 -154 20 -26 -9 -25 14 6 79 21 45
49 72 76 75 4 1 19 -9 34 -21z"/>
<path d="M3341 2834 c-30 -22 -61 -89 -61 -137 0 -117 102 -177 176 -103 29
29 34 41 34 80 0 56 -21 111 -57 149 -30 31 -58 34 -92 11z m92 -46 c43 -53
49 -130 14 -173 -19 -23 -32 -29 -61 -28 -44 1 -64 16 -83 62 -16 37 -11 76
18 133 31 60 67 62 112 6z"/>
<path d="M2847 2648 c-6 -92 -11 -99 -99 -144 -27 -13 -48 -30 -48 -38 0 -8
27 -20 68 -31 87 -24 111 -34 116 -54 2 -9 12 -46 22 -83 9 -38 22 -68 28 -68
6 1 27 33 47 73 l36 72 81 3 c45 2 82 6 82 10 0 4 -22 30 -50 57 -27 27 -50
56 -50 64 0 7 13 35 29 60 15 26 32 58 36 70 7 22 5 23 -21 18 -16 -2 -59 -14
-96 -25 l-68 -21 -37 47 c-44 55 -60 72 -66 72 -2 0 -7 -37 -10 -82z m181 -40
c57 20 92 27 92 18 0 -2 -13 -28 -30 -59 -16 -31 -30 -60 -30 -64 0 -5 18 -26
40 -48 21 -22 39 -44 40 -48 0 -5 -30 -7 -66 -5 l-66 3 -32 -64 c-17 -36 -35
-65 -41 -65 -5 -1 -16 26 -23 59 -16 75 -31 90 -95 106 -29 6 -61 16 -71 22
-18 9 -14 12 30 35 75 38 81 45 88 124 l7 70 48 -52 47 -53 62 21z"/>
<path d="M2054 2613 c-13 -63 -27 -82 -71 -104 -41 -20 -44 -24 -29 -35 10 -7
37 -18 62 -25 31 -10 46 -20 53 -39 9 -23 9 -23 10 -3 1 32 -9 53 -28 53 -9 1
-29 7 -46 14 l-30 13 43 22 c34 17 42 27 42 49 0 15 4 33 9 41 7 11 11 10 20
-7 22 -41 40 -52 67 -42 14 6 34 10 45 10 19 0 19 -1 -2 -38 l-23 -39 30 -38
29 -38 -55 6 c-54 7 -56 6 -74 -23 -9 -17 -22 -28 -27 -25 -5 4 -9 -5 -9 -19
0 -37 16 -32 45 15 18 28 31 39 43 35 9 -3 34 -8 55 -12 45 -8 47 1 12 56 -31
49 -31 51 0 96 33 48 22 61 -39 45 -62 -15 -62 -15 -86 24 -26 42 -38 44 -46
8z"/>
<path d="M2412 2400 c-38 -24 -62 -73 -62 -128 0 -97 108 -134 190 -65 25 20
30 32 30 68 0 119 -73 177 -158 125z m84 -6 c31 -8 54 -56 54 -111 -1 -39 -5
-51 -26 -66 -58 -42 -133 -28 -155 29 -14 38 6 98 42 128 31 26 47 30 85 20z"/>
<path d="M1449 2079 c-52 -19 -67 -112 -24 -154 30 -31 73 -32 110 -3 25 19
27 26 23 70 -7 72 -52 108 -109 87z m61 -19 c4 0 15 -15 24 -34 19 -41 10 -77
-26 -100 -32 -21 -62 -10 -84 30 -18 33 -18 35 0 69 18 34 39 46 64 39 8 -2
17 -4 22 -4z"/>
<path d="M2375 1618 c-38 -33 -45 -91 -15 -123 30 -32 81 -34 111 -4 27 27 21
90 -12 125 -28 30 -51 30 -84 2z"/>
<path d="M2747 4173 c-4 -3 -7 -24 -7 -45 0 -29 -7 -45 -25 -63 -28 -25 -26
-29 22 -39 36 -8 51 -23 62 -62 11 -44 28 -39 43 13 12 41 19 50 48 59 45 15
47 25 9 46 -31 18 -31 23 -12 76 7 16 -18 15 -41 -3 -27 -20 -46 -19 -71 5
-12 11 -25 17 -28 13z"/>
<path d="M1786 3946 c-14 -35 -22 -38 -106 -49 -27 -4 -16 -30 23 -49 41 -22
42 -25 26 -81 -6 -22 -8 -41 -5 -44 2 -3 21 7 41 23 l36 27 30 -22 c37 -27 44
-22 40 29 -2 37 0 41 33 57 43 20 46 40 9 49 -48 10 -71 26 -84 56 -17 42 -27
43 -43 4z"/>
<path d="M2615 3933 c-34 -37 -33 -82 1 -117 33 -32 65 -33 98 -2 35 32 36 87
1 121 -32 33 -68 32 -100 -2z"/>
<path d="M2225 3918 c-2 -7 -6 -35 -7 -63 -3 -47 -6 -52 -50 -85 -26 -19 -44
-38 -40 -42 4 -4 30 -12 57 -19 73 -19 77 -23 69 -89 -7 -66 6 -84 36 -48 76
92 84 99 99 92 35 -14 86 -23 94 -15 5 5 -3 31 -17 59 -31 61 -32 86 -7 152
25 66 11 73 -68 35 l-58 -27 -43 31 c-47 34 -58 37 -65 19z m73 -49 c30 -22
46 -28 55 -21 29 24 87 51 92 43 2 -5 -2 -28 -11 -52 -21 -56 -20 -71 6 -121
11 -22 18 -43 15 -46 -3 -3 -25 -1 -50 5 l-45 10 -44 -51 -45 -51 2 60 c2 52
0 60 -18 63 -49 9 -95 23 -95 30 0 4 18 18 40 32 38 24 40 27 40 77 0 29 4 53
8 53 4 0 27 -14 50 -31z"/>
<path d="M2894 3757 c5 -28 1 -37 -27 -65 -31 -30 -34 -31 -55 -16 -29 20
-133 37 -146 24 -5 -5 -11 -36 -13 -69 -3 -47 3 -73 27 -134 17 -42 33 -90 37
-107 3 -17 16 -38 28 -46 20 -13 28 -13 66 2 80 31 199 141 199 184 0 9 -9 25
-19 34 -28 26 -10 75 30 83 41 8 46 23 16 45 -26 19 -26 20 -10 53 21 43 14
50 -32 34 -28 -11 -40 -11 -55 -1 -37 23 -53 16 -46 -21z m-65 -118 c22 -19
41 -37 41 -41 0 -3 -20 -18 -44 -32 -24 -14 -57 -41 -75 -61 l-31 -36 -25 53
c-29 62 -31 88 -9 130 15 28 19 30 59 26 30 -4 56 -16 84 -39z"/>
<path d="M2315 3488 c-3 -7 -4 -26 -2 -42 1 -23 -5 -34 -30 -52 -36 -24 -32
-34 22 -51 24 -8 32 -17 39 -51 6 -23 15 -42 21 -42 5 0 18 18 28 41 17 38 20
40 57 38 51 -4 56 2 25 31 -28 27 -31 46 -10 74 33 44 10 59 -44 29 -30 -18
-30 -17 -59 10 -31 30 -40 33 -47 15z"/>
<path d="M2521 3274 c-58 -74 13 -170 87 -118 47 33 14 144 -43 144 -14 0 -32
-11 -44 -26z"/>
<path d="M1210 2510 c0 -29 -44 -70 -75 -70 -30 0 -33 -20 -5 -45 19 -18 19
-18 0 -45 -28 -39 -26 -42 24 -35 43 7 44 7 62 -34 11 -22 22 -41 25 -41 3 0
14 18 24 40 16 35 22 40 52 40 37 0 40 6 17 39 -15 21 -15 25 6 53 12 16 19
32 16 35 -3 3 -25 6 -48 7 -39 1 -45 5 -63 38 -22 42 -35 48 -35 18z m30 -56
c9 -23 15 -26 45 -21 26 4 35 2 35 -9 0 -8 -5 -14 -11 -14 -7 0 -9 -12 -5 -35
6 -30 4 -35 -12 -35 -12 0 -24 -11 -32 -30 -16 -38 -21 -37 -40 3 -11 24 -20
31 -37 29 -23 -3 -31 12 -13 23 16 10 12 23 -10 30 -29 9 -24 25 10 32 21 4
32 13 36 29 8 31 22 30 34 -2z"/>
<path d="M1310 1103 c-30 -8 -68 -17 -85 -19 -58 -10 -59 -16 -5 -30 56 -15
240 -103 240 -116 0 -4 -25 -15 -55 -24 -30 -10 -53 -19 -51 -22 3 -2 49 9
103 25 54 17 132 38 174 48 84 19 108 16 199 -31 25 -13 57 -28 73 -33 36 -14
34 -27 -5 -36 -21 -5 -27 -9 -16 -12 9 -2 31 0 50 5 40 11 105 -12 188 -65
210 -136 250 -168 250 -195 0 -4 -19 -16 -42 -27 l-43 -21 43 6 c28 4 42 2 42
-6 0 -17 -62 -204 -71 -214 -9 -10 -145 -66 -160 -66 -12 0 -2 80 22 175 9 39
13 71 9 73 -5 2 -28 17 -52 35 -24 17 -95 65 -158 106 -149 98 -149 98 -187
118 -18 9 -33 23 -33 30 0 14 -22 18 -33 6 -4 -3 -50 -21 -102 -38 -99 -33
-122 -45 -89 -45 10 0 52 -18 93 -41 40 -22 75 -38 78 -36 4 5 -78 56 -109 69
-33 13 -19 27 52 49 l69 23 53 -24 c86 -38 366 -229 381 -260 12 -24 12 -40
-5 -121 -26 -125 -34 -139 -86 -157 -24 -8 -42 -16 -40 -18 5 -4 98 23 143 41
17 7 59 22 95 35 36 13 70 28 76 34 16 15 84 235 84 270 0 26 2 28 28 22 57
-14 122 -18 122 -9 0 10 -76 23 -132 23 -26 0 -48 13 -224 132 -117 78 -516
268 -564 268 -6 0 -18 4 -28 9 -9 5 -67 25 -127 43 -107 33 -112 34 -165 21z
m232 -61 c65 -20 118 -41 119 -47 1 -10 -109 -43 -148 -44 -20 -1 -163 63
-238 106 l-29 17 44 11 c56 13 100 6 252 -43z"/>
<path d="M1070 705 c0 -2 34 -21 76 -42 l76 -38 -7 -105 c-4 -58 -10 -109 -12
-113 -3 -5 -12 -2 -21 6 -10 8 -26 17 -37 21 -18 6 -18 4 2 -11 13 -10 47 -31
75 -46 29 -16 44 -21 34 -13 -17 14 -19 28 -17 128 1 62 4 114 5 116 5 5 187
-77 215 -97 14 -10 51 -31 81 -47 66 -35 170 -104 170 -113 -1 -16 -48 -223
-52 -227 -3 -2 -72 38 -154 89 -209 130 -224 139 -224 133 0 -3 26 -22 58 -42
31 -20 69 -45 84 -55 15 -11 29 -19 32 -19 5 0 143 -93 204 -137 14 -10 31 -6
90 19 87 36 89 50 2 18 -33 -12 -63 -21 -65 -18 -3 2 1 29 9 59 8 30 17 76 21
102 4 26 15 56 24 67 9 11 57 38 106 60 50 23 77 39 60 35 -16 -3 -59 -19 -94
-36 -35 -16 -69 -29 -76 -29 -7 0 -43 18 -79 40 -36 22 -68 40 -71 40 -4 0
-21 11 -38 24 -18 13 -89 52 -160 87 -70 35 -126 68 -124 74 2 5 21 16 43 23
76 24 125 44 120 49 -5 5 -150 -41 -179 -57 -13 -8 -34 -2 -87 25 -65 33 -90
41 -90 30z"/>
</g>
</svg>
