<?xml version="1.0" standalone="no"?>
<!DOCTYPE svg PUBLIC "-//W3C//DTD SVG 20010904//EN"
 "http://www.w3.org/TR/2001/REC-SVG-20010904/DTD/svg10.dtd">
<svg version="1.0" xmlns="http://www.w3.org/2000/svg"
 width="650.000000pt" height="866.000000pt" viewBox="0 0 650.000000 866.000000"
 preserveAspectRatio="xMidYMid meet">
<metadata>
Created by potrace 1.16, written by Peter Selinger 2001-2019
</metadata>
<g transform="translate(0.000000,866.000000) scale(0.100000,-0.100000)"
fill="#000000" stroke="none">
<path d="M3460 8459 c-130 -16 -615 -158 -884 -258 -313 -117 -358 -148 -381
-262 -3 -19 -15 -63 -25 -99 -10 -36 -21 -77 -24 -92 l-6 -26 -52 29 c-92 50
-184 30 -265 -58 -54 -58 -83 -121 -94 -203 -8 -56 -6 -75 13 -137 26 -81 83
-167 135 -203 37 -25 133 -49 197 -50 50 0 148 52 187 99 16 20 37 57 46 83
15 42 22 48 60 58 71 20 94 -5 53 -57 -11 -15 -20 -41 -20 -60 0 -45 -45 -92
-89 -94 -17 -1 -37 -2 -43 -3 -22 -2 -20 -34 2 -56 12 -12 19 -28 16 -36 -7
-19 -90 -19 -106 1 -40 49 -58 -41 -19 -97 12 -16 18 -32 15 -35 -3 -3 -32 -7
-65 -7 -43 -1 -64 4 -78 17 -11 9 -27 17 -36 17 -38 0 -7 -110 41 -148 16 -12
16 -14 -1 -27 -31 -23 -105 -29 -133 -10 -69 45 -48 -62 23 -122 l26 -21 -31
-16 c-41 -21 -74 -20 -105 4 -38 30 -47 25 -47 -25 0 -54 19 -95 57 -123 l28
-20 -24 -26 c-32 -34 -85 -58 -123 -54 -18 2 -33 -2 -35 -9 -5 -15 74 -103
104 -114 28 -11 22 -26 -25 -62 -30 -23 -44 -28 -74 -24 -20 3 -39 3 -42 0
-13 -14 29 -65 74 -90 27 -15 50 -33 50 -38 0 -19 -64 -49 -105 -51 -25 -1
-41 -6 -43 -15 -1 -8 20 -40 48 -71 l50 -56 -47 -17 c-97 -35 -143 -56 -299
-138 -419 -219 -526 -359 -528 -687 l-1 -135 47 -130 c25 -71 60 -166 77 -209
28 -74 29 -80 13 -92 -9 -8 -19 -14 -22 -14 -17 -1 -41 -64 -39 -102 1 -24 -4
-57 -12 -75 -16 -40 -2 -77 41 -101 16 -9 30 -24 30 -33 0 -27 32 -59 73 -73
27 -9 43 -23 55 -47 10 -21 26 -35 40 -37 30 -5 33 -62 2 -62 -29 0 -60 -35
-60 -68 0 -17 -8 -32 -21 -40 -24 -15 -49 -70 -49 -108 0 -14 -9 -37 -20 -51
-14 -18 -20 -41 -20 -75 0 -27 -7 -63 -16 -80 -12 -24 -15 -46 -10 -89 3 -32
1 -71 -5 -87 -13 -38 8 -93 45 -117 16 -11 26 -26 26 -42 0 -31 60 -93 89 -93
14 0 21 -6 21 -19 0 -26 53 -81 79 -81 13 0 26 -12 37 -36 28 -58 56 -64 124
-27 3 2 4 -28 2 -65 -4 -67 -3 -69 29 -96 25 -22 39 -26 62 -22 26 5 35 0 72
-40 39 -41 47 -45 74 -39 34 7 41 -7 17 -34 -29 -33 -75 -139 -91 -211 -25
-111 -30 -262 -12 -337 l14 -63 -43 -25 c-23 -14 -45 -34 -49 -44 -3 -11 -19
-36 -35 -56 -32 -40 -37 -64 -19 -82 8 -8 5 -19 -12 -42 -21 -29 -22 -32 -6
-71 14 -35 14 -44 1 -68 -30 -58 -13 -132 35 -152 28 -11 31 -17 31 -54 0 -63
21 -86 80 -86 l48 0 4 -78 c6 -113 -10 -190 -47 -231 -50 -57 -96 -97 -180
-157 -223 -161 -295 -244 -326 -381 -21 -88 -17 -119 21 -158 18 -19 47 -39
64 -44 103 -31 275 -18 471 35 149 40 189 55 217 81 13 11 37 28 55 37 17 9
61 41 97 72 l66 55 10 -26 c13 -35 29 -39 81 -21 24 9 65 16 90 16 31 0 71 11
122 35 104 47 149 78 182 128 25 36 29 52 28 105 -1 54 -6 71 -36 120 -19 31
-38 68 -42 82 -4 14 -21 51 -36 82 -27 53 -29 66 -29 171 l0 114 38 11 c48 15
66 34 87 97 9 27 21 53 27 57 16 9 23 120 10 145 -8 14 -7 30 3 59 23 63 19
106 -10 128 -15 11 -25 29 -25 43 0 15 -14 39 -36 61 l-36 36 22 75 c25 87 50
127 117 192 63 60 103 75 137 48 30 -23 86 -25 128 -3 29 15 32 15 44 -1 16
-22 86 -31 124 -15 24 10 33 10 46 -1 9 -7 43 -14 77 -15 70 -1 83 -13 112
-104 10 -30 29 -78 42 -108 12 -29 23 -62 23 -73 0 -25 -26 -63 -76 -113 -35
-35 -36 -38 -32 -97 3 -41 9 -64 20 -70 12 -7 14 -22 10 -78 -4 -65 -3 -71 22
-94 15 -14 26 -35 26 -50 0 -37 53 -78 96 -75 18 1 41 -5 51 -13 10 -8 30 -20
46 -27 24 -10 27 -17 27 -60 0 -64 -26 -139 -63 -181 -41 -47 -64 -103 -77
-186 -7 -42 -27 -102 -52 -155 -73 -151 -81 -195 -48 -260 11 -21 17 -46 14
-55 -11 -28 16 -72 54 -88 91 -39 394 -51 472 -19 14 6 56 18 94 28 124 31
255 136 333 265 42 70 51 79 112 108 36 18 73 36 81 40 37 20 54 71 53 165 -2
111 -24 231 -43 231 -17 0 -51 150 -49 216 2 42 4 46 26 46 13 0 32 8 43 18
24 21 44 79 37 106 -3 11 -1 36 5 56 7 25 6 43 -1 59 -8 17 -7 32 4 58 19 44
19 90 2 105 -10 7 -12 27 -9 66 3 41 0 61 -13 81 -16 25 -21 26 -72 21 l-55
-6 7 27 c10 39 24 205 25 290 l0 72 49 0 c51 0 121 23 121 40 0 6 14 10 31 10
33 0 89 48 89 76 0 10 12 14 38 14 41 0 60 14 86 65 13 25 21 29 49 27 27 -3
40 3 66 30 17 18 34 43 37 55 5 18 13 23 39 23 37 0 82 31 96 66 5 14 20 29
34 34 14 5 41 26 61 47 32 32 35 41 30 73 -5 31 -2 40 19 58 25 22 25 24 22
147 -3 113 -5 127 -26 149 -27 29 -20 73 13 86 48 18 186 133 239 200 31 38
57 73 57 75 0 3 12 23 26 44 34 52 74 208 74 291 0 53 5 72 25 102 30 45 73
151 115 287 39 127 59 338 41 429 -6 30 -11 81 -11 113 0 86 -54 317 -95 408
-19 43 -35 87 -35 97 0 11 -22 62 -48 116 -41 83 -62 112 -157 210 -159 164
-212 199 -405 263 -128 42 -126 40 -95 76 28 34 30 53 11 88 -12 21 -11 28 5
55 22 36 24 74 4 99 -12 16 -11 23 7 53 15 26 19 44 14 74 -4 26 -2 43 6 49
18 15 107 82 147 110 53 38 232 127 286 144 28 8 77 22 110 32 123 34 175 69
175 119 0 28 -36 86 -53 86 -20 0 -112 49 -207 111 -47 31 -148 88 -224 128
-129 66 -152 75 -300 108 -137 30 -184 36 -316 39 l-155 4 -5 43 c-7 51 -35
101 -67 118 -29 16 -37 42 -21 71 8 14 12 57 12 113 -1 80 -5 99 -36 171 -61
141 -127 241 -223 341 -85 87 -98 96 -215 151 -69 33 -150 67 -182 76 -59 17
-158 19 -268 5z m248 -39 c24 -6 103 -39 175 -74 123 -60 139 -71 213 -148
127 -132 226 -314 244 -448 10 -75 0 -106 -30 -90 -10 5 -27 10 -38 10 -14 0
-21 9 -26 33 -6 31 -56 77 -84 77 -6 0 -16 17 -21 38 -12 42 -48 62 -112 62
-29 0 -37 5 -54 38 -19 34 -24 37 -64 36 -38 -1 -48 4 -80 38 -32 34 -42 39
-84 40 -26 0 -50 -2 -53 -5 -3 -2 -18 8 -33 23 -36 37 -88 47 -145 28 -40 -13
-45 -13 -66 4 -25 20 -99 25 -131 8 -15 -9 -26 -6 -48 10 -37 26 -106 27 -145
1 -28 -19 -29 -19 -62 1 -37 22 -93 19 -147 -8 -19 -8 -44 -11 -72 -7 -61 8
-110 -3 -137 -32 -16 -17 -34 -25 -58 -25 -38 0 -93 -29 -120 -62 -9 -12 -31
-22 -53 -24 -50 -4 -82 -28 -101 -74 -8 -22 -24 -41 -36 -45 -26 -8 -60 -61
-60 -93 0 -12 6 -31 12 -42 10 -16 9 -25 -6 -50 -25 -44 -15 -96 25 -118 20
-12 27 -22 22 -32 -8 -17 -10 -87 -3 -110 6 -17 -19 -18 -132 -6 -71 8 -130
38 -136 68 -2 9 12 40 32 70 33 51 65 145 116 338 42 162 42 162 118 203 113
61 397 168 615 231 452 133 496 143 642 145 44 0 99 -4 123 -9z m-441 -369
c20 -24 22 -25 40 -9 45 40 114 34 138 -12 14 -28 45 -42 45 -21 0 22 34 41
74 41 46 0 63 -10 89 -52 20 -32 32 -35 53 -13 36 36 110 0 129 -62 7 -27 11
-27 45 -8 14 8 31 14 38 15 16 0 54 -61 47 -77 -7 -20 15 -26 41 -13 19 10 32
11 63 2 36 -11 39 -15 46 -58 6 -43 8 -45 34 -39 43 9 65 -22 58 -80 -6 -40
-5 -45 13 -45 11 0 20 5 20 10 0 14 56 12 67 -2 18 -23 24 -69 12 -84 -18 -22
-4 -42 25 -37 49 10 104 -80 71 -116 -20 -24 -19 -41 4 -41 22 0 31 -19 31
-63 -1 -48 -23 -71 -73 -76 -4 -1 -4 -25 -1 -53 8 -70 -6 -104 -51 -123 -30
-12 -35 -18 -30 -35 10 -31 -3 -59 -35 -75 -36 -19 -56 -11 -69 26 -11 32 -28
37 -46 13 -10 -15 -14 -15 -42 -1 -30 16 -43 41 -43 86 0 20 -3 23 -27 17 -56
-13 -58 -13 -63 29 -5 38 -7 40 -42 43 -43 4 -50 17 -53 100 -1 38 -7 58 -23
75 -12 13 -22 30 -22 39 0 22 -46 65 -77 73 -15 3 -33 15 -41 26 -23 34 -142
21 -232 -26 -23 -12 -35 -13 -45 -5 -7 6 -29 8 -52 4 -35 -5 -42 -3 -61 20
-11 15 -23 32 -25 39 -3 8 -10 7 -24 -5 -11 -10 -29 -18 -41 -18 -13 0 -22 -6
-22 -15 0 -15 16 -19 53 -16 9 1 31 -8 48 -20 23 -16 40 -20 69 -16 21 3 41 3
44 0 2 -3 -4 -19 -15 -36 -10 -18 -19 -44 -19 -59 0 -43 32 -58 125 -58 67 0
88 -4 130 -26 55 -29 118 -84 143 -127 24 -41 50 -34 79 21 1 2 15 1 32 -3 20
-4 31 -13 31 -24 0 -33 29 -61 64 -61 29 0 34 -4 39 -30 7 -34 57 -70 98 -70
14 0 34 -9 44 -20 25 -28 109 -80 128 -80 10 0 17 -6 17 -13 0 -17 -42 -37
-75 -37 -42 0 -41 -22 5 -62 23 -21 49 -38 56 -38 22 0 16 -23 -12 -43 -16
-12 -34 -17 -50 -13 -19 5 -24 3 -24 -13 0 -18 56 -81 72 -81 13 0 9 -28 -4
-36 -7 -4 -28 -10 -48 -14 -50 -8 -52 -38 -5 -75 19 -16 35 -35 35 -42 0 -8
-20 -22 -45 -33 -57 -24 -61 -53 -10 -71 19 -7 35 -17 35 -22 0 -5 -16 -25
-35 -44 -19 -19 -35 -44 -35 -55 0 -25 -17 -39 -94 -79 -46 -24 -66 -29 -90
-24 -17 4 -67 9 -110 12 -136 8 -250 -42 -288 -127 -7 -16 -18 -30 -23 -30 -6
0 -39 -26 -72 -57 -34 -32 -80 -73 -102 -91 -22 -19 -48 -51 -58 -72 -10 -22
-23 -40 -30 -40 -17 0 -63 -60 -85 -110 -16 -36 -18 -57 -13 -109 6 -55 4 -71
-16 -113 -26 -56 -37 -60 -46 -18 -12 63 -43 49 -71 -33 -12 -34 -22 -79 -22
-99 0 -25 -5 -38 -14 -38 -20 0 -75 56 -82 85 -12 49 -68 18 -127 -68 -10 -15
-22 -27 -27 -27 -16 0 -40 57 -40 95 0 51 -24 46 -93 -22 -31 -31 -60 -54 -62
-51 -3 3 -10 31 -16 64 -17 89 -22 91 -107 33 -41 -27 -78 -49 -83 -49 -5 0
-9 17 -9 39 0 57 -11 102 -26 108 -8 3 -27 -6 -43 -20 -26 -22 -118 -54 -127
-44 -2 2 3 27 12 56 8 29 13 56 9 59 -6 7 -100 -24 -132 -44 -26 -16 -53 -18
-53 -4 0 5 11 34 25 65 14 31 23 60 20 65 -4 6 -24 0 -48 -15 -25 -14 -68 -27
-102 -31 l-59 -7 21 34 c28 45 39 104 22 115 -7 4 -14 3 -17 -4 -5 -15 -76
-16 -103 -1 -19 10 -18 12 15 50 31 36 51 87 40 98 -3 3 -24 0 -47 -6 -38 -11
-45 -9 -74 10 -37 25 -42 43 -13 52 26 8 80 75 80 99 0 16 -5 18 -36 13 -32
-5 -41 -2 -65 24 -16 17 -29 34 -29 38 0 3 20 14 45 25 31 12 55 32 76 62 33
48 30 69 -8 60 -22 -6 -83 19 -83 34 0 3 19 13 41 24 43 19 99 86 99 118 0 14
-8 18 -32 18 -29 0 -78 32 -78 50 0 4 17 12 38 18 46 14 122 87 122 117 0 17
-7 24 -30 29 -22 4 -35 15 -47 41 -19 39 -14 52 14 36 36 -19 122 13 166 62
24 27 17 41 -23 47 -19 3 -39 14 -48 28 -14 22 -14 22 30 22 58 0 153 46 153
75 0 13 -8 21 -22 23 -18 3 -63 48 -63 64 0 2 30 3 68 3 79 0 152 27 152 57 0
12 -7 18 -23 18 -16 0 -28 9 -35 25 l-12 25 59 0 c51 0 63 4 90 29 38 35 39
49 6 57 -30 7 -33 24 -5 24 57 0 110 60 110 123 0 14 9 35 19 49 16 19 27 24
51 20 22 -3 41 2 61 17 17 13 29 17 29 10 0 -7 7 -20 15 -29 12 -13 13 -23 5
-44 -5 -15 -10 -46 -10 -69 0 -23 -6 -52 -13 -63 -42 -73 -57 -107 -63 -145
-5 -28 -19 -55 -42 -81 -19 -21 -32 -42 -28 -46 4 -4 13 0 19 9 27 37 243 129
303 129 66 0 134 -22 195 -63 126 -86 162 -106 208 -116 40 -9 53 -7 99 14
l52 24 88 -21 c118 -28 161 -46 200 -82 53 -49 75 -86 84 -140 4 -28 14 -85
22 -126 l14 -75 1 52 c1 49 11 70 45 90 25 16 67 83 87 139 11 32 29 68 39 81
10 12 23 51 29 85 12 61 11 67 -23 163 -25 72 -36 95 -42 82 -4 -11 3 -52 16
-95 12 -42 22 -95 21 -117 -1 -44 -43 -167 -79 -232 -19 -35 -79 -93 -96 -93
-3 0 -6 17 -6 38 0 63 -18 107 -62 151 -48 50 -140 95 -229 112 -35 7 -70 20
-77 28 -11 14 -17 13 -56 -8 -94 -52 -266 -3 -274 78 -4 35 -27 42 -35 11 -5
-19 -8 -18 -65 11 -90 47 -169 49 -287 11 -51 -17 -92 -26 -94 -20 -7 19 31
99 62 130 27 27 32 39 33 87 3 95 -1 91 115 120 128 31 252 34 320 7 74 -29
92 -21 108 46 7 32 10 69 7 83 -11 45 -83 112 -142 134 -59 23 -84 19 -84 -11
0 -18 -5 -20 -36 -15 -55 9 -126 -3 -131 -22 -2 -9 -30 -24 -66 -36 -52 -17
-63 -24 -65 -45 -5 -33 -59 -77 -75 -61 -21 21 -45 13 -49 -16 -3 -25 -7 -28
-38 -28 -30 0 -36 4 -44 30 -14 41 -11 39 -47 25 -28 -12 -33 -12 -46 6 -14
18 -13 54 2 101 6 19 1 26 -29 44 -44 26 -49 64 -11 99 l24 23 -25 30 c-34 40
-21 83 34 110 16 7 29 25 34 44 11 43 48 66 94 61 33 -4 39 -1 57 29 27 47 69
66 122 59 39 -6 43 -5 49 17 11 45 93 62 146 30 28 -16 29 -16 47 6 28 35 95
40 148 11 41 -22 42 -22 64 -4 46 40 102 38 138 -5z m-1222 -314 c62 -24 78
-43 72 -80 -5 -33 -41 -112 -83 -184 -17 -30 -18 -35 -4 -60 22 -40 92 -71
178 -79 72 -7 73 -7 67 -32 -18 -71 -129 -163 -197 -165 -59 -1 -146 24 -185
52 -72 52 -133 173 -133 262 0 60 39 164 78 210 36 42 120 89 157 88 11 0 34
-6 50 -12z m1072 -253 c38 -41 43 -52 43 -93 0 -70 -9 -78 -62 -56 -65 26
-179 30 -268 10 -115 -26 -190 -38 -196 -32 -13 13 11 49 52 77 25 18 44 39
44 49 0 19 34 31 87 31 16 0 27 7 30 20 5 18 14 20 89 20 49 0 84 4 84 10 0 6
12 10 27 10 19 0 39 -13 70 -46z m523 -64 c0 -17 7 -20 46 -20 54 0 86 -14 78
-35 -4 -10 9 -29 36 -53 40 -35 42 -39 29 -60 -11 -17 -11 -24 -1 -34 14 -14
16 -76 3 -96 -6 -11 -20 -1 -56 37 -26 27 -70 62 -98 77 -50 26 -77 30 -229
33 -34 1 -44 30 -24 70 19 36 56 63 116 84 66 23 100 22 100 -3z m1153 -101
c206 -38 285 -62 412 -126 72 -36 180 -99 242 -139 62 -41 115 -74 119 -74 23
0 105 -48 113 -67 23 -51 -8 -71 -176 -113 -84 -22 -145 -45 -224 -87 -98 -52
-272 -168 -323 -214 -16 -16 -22 -16 -65 -3 -25 8 -56 17 -68 20 -13 3 -23 8
-23 11 0 19 112 129 161 158 66 41 79 64 22 40 -51 -22 -119 -80 -170 -147
l-43 -56 -71 18 c-39 10 -73 21 -76 24 -13 12 24 72 76 122 30 30 49 54 41 54
-25 0 -96 -68 -121 -115 -24 -46 -24 -47 -67 -41 -23 3 -60 15 -82 26 -37 19
-39 22 -29 48 17 46 58 111 77 121 9 5 14 13 10 17 -14 13 -58 -27 -89 -81
-33 -59 -44 -66 -54 -35 -4 14 -15 20 -34 20 -15 0 -36 7 -47 15 -17 14 -18
16 -2 25 30 18 98 86 98 98 0 7 -14 12 -34 12 -30 0 -96 17 -96 25 0 2 14 17
30 34 17 16 33 43 36 60 7 35 15 38 30 13 6 -9 35 -31 65 -47 52 -29 59 -30
219 -35 164 -5 166 -5 230 -39 179 -92 184 -95 251 -99 47 -3 88 2 147 18 84
23 114 47 45 36 -21 -3 -81 -8 -133 -12 l-95 -7 -70 37 c-39 21 -95 51 -125
69 -54 31 -58 31 -231 38 -164 6 -178 8 -215 31 -56 36 -68 52 -55 77 6 11 11
29 11 40 0 32 16 34 57 7 21 -14 81 -40 133 -59 82 -29 113 -35 221 -41 140
-7 166 -13 246 -62 97 -58 140 -68 275 -60 122 7 207 30 177 47 -9 4 -54 4
-105 -2 -168 -19 -209 -13 -333 53 -80 43 -195 67 -319 68 -74 0 -182 34 -279
87 -65 36 -74 47 -48 56 21 9 52 77 50 112 -2 25 3 31 24 37 31 8 217 0 284
-13z m-374 -714 c49 -35 94 -50 286 -96 50 -11 120 -30 157 -40 36 -10 73 -19
82 -19 27 0 21 -66 -8 -85 -22 -15 -31 -15 -101 0 -106 22 -225 55 -257 71
-15 8 -38 14 -51 14 -31 0 -120 45 -149 76 -13 13 -34 24 -48 24 -49 0 -52 20
-7 55 23 19 43 34 44 34 2 1 25 -15 52 -34z m-44 -115 c13 -21 111 -70 140
-70 17 0 39 -6 50 -14 26 -17 111 -42 248 -71 72 -15 116 -30 129 -43 19 -18
19 -21 4 -50 -21 -41 -54 -46 -134 -23 -37 11 -98 27 -136 36 -88 20 -259 93
-331 141 l-56 37 33 34 c34 35 43 39 53 23z m150 -225 c40 -19 252 -79 393
-112 15 -4 22 -13 22 -29 0 -49 -73 -57 -222 -23 -51 12 -98 25 -104 30 -6 5
-29 15 -50 23 -96 33 -134 56 -134 79 0 12 -3 33 -7 46 -6 22 -4 23 23 17 15
-4 51 -18 79 -31z m36 -240 c38 -24 57 -50 47 -61 -3 -2 -35 -13 -72 -23 l-67
-19 -12 27 c-6 14 -20 36 -30 48 l-20 23 34 14 c49 22 74 19 120 -9z m370 -24
c20 -11 56 -24 80 -31 64 -16 187 -69 239 -103 25 -17 98 -84 163 -151 97
-100 124 -135 156 -201 21 -44 46 -110 55 -145 9 -35 20 -67 25 -70 28 -19 83
-250 102 -430 8 -69 13 -181 12 -250 -2 -119 -4 -132 -47 -262 -62 -189 -93
-252 -164 -337 -34 -40 -62 -77 -62 -82 0 -18 35 -8 62 18 l28 27 0 -37 c0
-55 -38 -185 -72 -247 -50 -91 -132 -183 -219 -245 -76 -55 -83 -58 -93 -41
-6 11 -19 28 -28 38 -12 11 -18 34 -18 62 0 39 -4 48 -37 75 -21 17 -48 31
-60 31 -16 0 -23 6 -23 20 0 28 -70 164 -116 227 -26 36 -58 63 -96 83 -32 17
-60 35 -63 40 -3 5 -30 17 -60 26 -30 10 -55 21 -55 24 0 16 61 90 88 105 63
38 124 216 143 420 10 101 16 127 39 165 48 80 54 112 55 300 0 120 6 208 18
280 14 80 18 144 15 270 -3 164 -4 166 -36 231 -30 60 -123 169 -144 169 -16
0 -8 29 10 33 37 10 69 6 103 -12z m-945 -18 c67 -34 74 -53 79 -205 2 -62 8
-160 13 -217 6 -57 8 -109 6 -115 -2 -6 -28 -23 -57 -37 -38 -18 -57 -35 -70
-62 -17 -33 -23 -37 -58 -37 -49 0 -90 -20 -113 -54 -12 -19 -25 -26 -50 -26
-18 0 -47 -5 -64 -11 -49 -17 -100 4 -149 60 l-42 48 20 19 c12 10 28 19 37
19 11 0 18 10 20 27 3 23 -6 32 -68 72 -39 25 -74 46 -78 46 -7 0 -30 -19
-115 -96 -21 -19 -43 -34 -48 -34 -16 0 -9 83 10 125 39 86 116 122 239 111
46 -4 72 -3 72 3 0 20 -40 31 -114 31 -42 0 -76 3 -76 6 0 17 44 64 74 78 44
21 141 21 224 0 66 -17 83 -14 63 10 -15 18 -89 36 -163 39 -32 1 -58 5 -58 8
0 4 15 20 34 37 30 27 44 30 123 37 68 5 98 3 132 -10 30 -10 48 -12 55 -5 15
15 -4 29 -64 45 -41 11 -64 11 -106 3 -30 -6 -57 -8 -61 -5 -3 4 5 21 19 39
34 45 123 75 227 77 40 1 67 -6 107 -26z m849 -65 c45 -44 73 -83 96 -131 l31
-68 -5 -197 c-3 -128 -11 -225 -22 -277 -12 -59 -16 -118 -14 -225 4 -156 -2
-185 -51 -275 -23 -41 -30 -71 -38 -166 -13 -138 -42 -261 -80 -332 -31 -59
-95 -104 -158 -113 -44 -6 -114 -33 -114 -44 0 -4 33 -5 72 -2 65 4 72 3 60
-10 -7 -9 -36 -26 -65 -39 -66 -29 -185 -33 -213 -8 -11 9 -30 20 -44 24 -14
4 -43 18 -66 31 -23 14 -112 42 -199 65 -180 46 -228 67 -250 109 -9 17 -20
30 -25 30 -15 0 -12 36 4 50 20 16 11 88 -25 199 l-27 85 36 33 c42 37 49 39
72 18 41 -37 170 25 170 81 0 24 2 24 48 18 38 -5 57 -2 89 14 41 21 94 81
103 117 4 13 17 22 40 25 60 10 130 72 130 114 0 9 8 16 19 16 42 0 91 97 91
179 l0 46 20 -25 c11 -14 29 -49 40 -78 11 -29 29 -70 40 -91 18 -36 24 -62
51 -228 17 -101 -2 -256 -40 -331 -31 -62 -38 -92 -22 -92 31 0 80 96 101 195
14 67 7 251 -11 304 -17 47 -7 60 23 30 17 -17 30 -46 38 -83 8 -39 16 -56 27
-56 13 0 15 10 11 55 -5 62 -26 97 -78 133 -33 22 -50 52 -115 199 -15 35 -34
68 -42 75 -11 9 -13 26 -8 73 7 65 -5 106 -39 134 -9 8 -16 26 -16 41 0 43
-26 94 -65 129 -29 25 -45 31 -80 31 -25 0 -45 4 -45 8 0 4 -13 15 -29 25 -36
21 -100 22 -127 2 -26 -19 -34 -19 -34 4 0 28 40 49 130 66 19 4 66 18 104 31
38 14 121 40 185 59 64 19 141 45 171 59 30 14 61 25 68 25 7 1 42 -27 77 -61z
m-3119 -147 c-3 -5 -21 -16 -41 -25 -19 -9 -35 -21 -35 -25 0 -5 25 -28 55
-51 43 -34 61 -41 85 -38 16 3 30 3 30 1 0 -18 -27 -46 -55 -58 -43 -17 -45
-39 -5 -55 17 -7 30 -16 30 -20 0 -4 -28 -29 -61 -56 -60 -48 -111 -108 -159
-189 -47 -80 -80 -149 -86 -181 -3 -19 -9 -34 -13 -34 -4 0 -17 23 -28 50 -12
28 -26 50 -32 50 -15 0 -14 -9 5 -86 15 -59 13 -94 -4 -67 -15 23 -126 83
-136 73 -13 -13 6 -32 91 -90 l68 -46 1 -90 c0 -49 4 -101 8 -116 6 -21 5 -28
-6 -28 -28 0 -116 -51 -121 -70 -3 -13 -14 -20 -30 -20 -32 0 -71 -31 -87 -70
-10 -25 -18 -30 -46 -30 -25 0 -42 -9 -70 -37 -35 -35 -37 -36 -50 -18 -8 11
-18 33 -23 50 -5 16 -19 55 -31 85 -12 30 -40 111 -62 180 -39 122 -40 127
-34 235 8 162 47 282 118 355 64 66 137 129 168 145 19 10 37 21 40 25 12 17
380 210 460 241 53 20 63 22 56 10z m2547 -82 c23 -25 32 -29 61 -23 68 12
131 -69 119 -153 -5 -38 -3 -43 14 -43 30 0 43 -21 43 -71 0 -61 -7 -78 -37
-90 -24 -9 -24 -10 -9 -34 19 -29 20 -48 3 -96 -20 -57 -40 -80 -77 -88 -28
-6 -35 -12 -36 -31 -1 -45 -4 -49 -39 -73 -29 -20 -45 -23 -80 -19 l-45 5 0
-39 c0 -76 -70 -125 -172 -121 l-63 2 -3 -34 c-4 -36 -19 -54 -61 -72 -18 -7
-34 -5 -68 12 -50 24 -69 20 -83 -16 -5 -14 -11 -25 -14 -25 -2 0 -11 -3 -19
-6 -10 -4 -18 5 -26 29 -7 19 -20 42 -31 52 -15 13 -17 26 -13 68 4 43 1 58
-19 87 -13 19 -37 39 -53 45 -17 5 -33 14 -37 20 -4 5 -8 63 -8 127 l0 117 35
-20 c29 -17 33 -24 24 -35 -22 -27 0 -26 52 0 41 20 68 26 120 26 66 0 67 0
72 30 4 19 17 35 38 46 30 15 48 15 107 -2 18 -5 22 -2 22 17 1 64 32 95 110
109 27 4 35 10 33 25 -4 36 18 72 58 94 21 12 39 26 39 30 0 18 -15 19 -48 5
-19 -8 -37 -12 -39 -10 -8 7 -25 137 -20 150 8 20 70 46 97 41 14 -3 37 -19
53 -36z m-2373 -215 c0 -11 -23 -49 -42 -71 -11 -12 -17 -26 -14 -31 11 -19
67 -21 127 -6 33 9 62 14 64 12 2 -2 -5 -28 -15 -58 -17 -48 -25 -90 -17 -90
1 0 31 15 67 33 76 40 120 52 120 36 0 -6 -8 -33 -17 -60 -20 -56 -14 -67 27
-52 17 6 30 9 30 7 0 -3 -25 -30 -55 -61 -66 -68 -126 -156 -195 -288 -29 -55
-58 -107 -65 -115 -26 -31 -63 -148 -75 -232 -7 -49 -14 -88 -16 -88 -2 0 -21
6 -41 14 -68 25 -90 27 -109 9 -16 -16 -19 -15 -57 27 -47 53 -112 184 -128
260 -24 113 14 328 78 439 14 26 37 68 52 96 14 27 65 89 112 137 81 83 88 88
127 88 23 0 42 -3 42 -6z m1510 -84 c62 -18 66 -24 38 -59 -15 -17 -28 -35
-30 -40 -2 -6 -36 -7 -85 -4 -80 6 -82 6 -71 27 19 37 71 86 92 86 12 0 37 -5
56 -10z m-1040 -148 c0 -5 -13 -18 -30 -30 -16 -13 -34 -39 -41 -60 -21 -72
42 -152 121 -152 71 0 140 63 140 129 0 32 19 45 21 14 2 -53 15 -83 34 -83 9
0 40 23 70 51 51 48 54 49 60 28 4 -12 23 -44 42 -71 34 -47 63 -62 63 -33 0
18 67 125 79 125 5 0 20 -15 35 -34 32 -43 89 -78 118 -74 21 3 24 10 29 81 8
90 19 109 42 73 15 -22 15 -31 2 -93 -8 -39 -15 -123 -15 -196 0 -114 -2 -132
-20 -154 -27 -34 -27 -93 0 -116 21 -17 21 -18 2 -45 -29 -41 -49 -106 -72
-225 -23 -123 -26 -200 -7 -214 6 -6 38 -20 70 -32 52 -19 67 -20 134 -12 42
5 82 16 90 24 49 48 71 318 35 422 -14 42 -15 55 -5 75 7 14 13 36 13 48 0 14
5 22 13 20 8 -3 14 -42 19 -124 7 -127 29 -292 42 -312 11 -18 165 -16 209 3
51 21 53 20 82 -29 33 -56 107 -96 235 -126 254 -59 285 -79 315 -199 17 -70
17 -228 0 -292 -5 -18 -2 -31 10 -42 24 -25 37 -21 34 11 -5 57 12 127 34 138
119 60 172 91 210 125 25 21 52 39 61 39 17 0 19 7 16 58 -2 31 0 33 22 27 12
-4 59 -28 102 -54 89 -51 123 -92 182 -211 34 -67 37 -83 37 -152 0 -53 -5
-85 -16 -100 -23 -35 -94 -106 -142 -141 -23 -18 -73 -57 -111 -88 -85 -68
-150 -107 -329 -198 -112 -56 -166 -76 -265 -101 -69 -16 -165 -41 -215 -55
-49 -13 -142 -31 -205 -40 -63 -9 -151 -22 -195 -29 -112 -18 -473 -14 -645 8
-139 17 -286 42 -300 51 -4 2 -56 11 -115 20 -58 8 -118 21 -133 29 -15 8
-119 61 -232 116 -113 56 -254 128 -315 161 -126 67 -115 62 -178 85 l-48 17
6 46 c9 64 82 314 112 384 14 31 32 57 39 57 7 0 26 -11 42 -25 17 -14 35 -25
40 -25 6 0 17 -6 24 -13 45 -42 106 -71 161 -75 55 -4 59 -3 92 32 l34 36 33
-19 c61 -34 159 -58 333 -81 114 -14 205 -34 205 -45 0 -6 -4 -15 -10 -21 -5
-5 -6 -15 -1 -23 7 -11 14 -10 37 8 37 29 47 45 73 115 24 64 40 252 27 319
-9 48 -36 51 -36 3 l0 -33 -47 8 c-27 5 -61 13 -78 18 -16 5 -77 19 -135 31
-58 13 -143 36 -190 52 -47 17 -93 32 -103 35 -16 5 -18 13 -12 63 6 51 4 59
-19 87 -14 17 -51 41 -83 53 -73 29 -86 40 -47 40 40 0 65 20 103 79 51 79 42
144 -28 194 -48 33 -87 34 -132 4 -70 -47 -99 -134 -69 -211 11 -30 9 -31 -32
-10 -30 16 -30 16 -24 77 10 85 25 144 51 197 44 88 162 298 196 346 99 140
249 283 249 236z m9 -97 c12 -49 13 -50 42 -34 14 7 24 7 33 0 16 -14 26 -4
26 25 0 24 28 40 43 25 31 -31 -42 -121 -100 -121 -67 0 -114 77 -81 130 19
29 24 25 37 -25z m971 30 c0 -2 -5 -27 -11 -55 -10 -45 -13 -50 -38 -50 -15 0
-49 -6 -76 -14 l-47 -15 6 52 c8 58 18 74 49 80 31 6 117 8 117 2z m-37 -177
c-6 -73 -9 -78 -38 -78 -14 0 -44 -9 -66 -20 l-40 -21 2 60 c1 33 5 65 9 70 8
14 79 39 111 40 25 1 26 0 22 -51z m282 -127 c17 -39 17 -40 -4 -75 -46 -74
-114 -96 -174 -54 -47 31 -57 48 -57 90 0 43 2 44 33 24 42 -27 81 -29 110 -6
15 12 27 30 27 41 0 13 7 19 23 19 18 0 28 -10 42 -39z m-267 -136 c22 -7 15
-72 -10 -89 -72 -51 -234 34 -176 92 9 9 35 11 93 7 44 -4 86 -8 93 -10z m320
-57 c32 -69 77 -209 87 -273 7 -47 -6 -64 -69 -90 -48 -20 -66 -14 -66 24 0
16 -5 33 -11 37 -7 4 -10 -8 -7 -37 3 -41 1 -44 -25 -47 -25 -3 -27 -1 -27 37
0 22 -4 43 -10 46 -6 4 -10 -12 -10 -39 0 -56 -26 -66 -34 -13 -12 75 -26 188
-32 270 l-6 87 28 0 29 0 -4 -85 c-1 -47 0 -97 3 -110 13 -53 21 -21 21 87 0
94 3 113 15 113 11 0 21 -27 37 -99 21 -95 43 -146 43 -99 0 29 -26 151 -40
187 -9 24 -7 32 6 47 27 30 40 23 72 -43z m-2177 -52 c9 -19 6 -31 -17 -67
-15 -24 -38 -66 -51 -92 -27 -55 -42 -170 -24 -181 17 -11 13 -36 -6 -43 -77
-28 -142 -109 -180 -223 -24 -72 -46 -87 -65 -45 -10 23 -9 32 4 56 19 32 13
36 -16 14 -43 -32 -106 -5 -106 45 0 20 -6 31 -20 35 -53 17 -67 73 -25 101
l26 17 -21 22 c-44 47 -14 105 54 105 37 0 43 3 53 30 6 16 26 38 44 50 32 20
46 20 96 5 21 -7 22 -5 17 23 -9 44 35 84 86 80 34 -3 35 -2 32 27 -3 26 2 33
30 47 48 24 76 22 89 -6z m1719 -28 c0 -7 -7 -35 -16 -63 -20 -65 -45 -197
-39 -203 10 -10 17 8 34 85 10 43 24 99 32 126 13 46 14 47 56 49 24 0 48 1
55 2 6 1 20 -24 30 -54 25 -70 20 -235 -8 -320 -16 -47 -23 -55 -47 -58 -25
-3 -27 -1 -22 22 3 14 7 37 10 51 3 14 1 25 -4 25 -5 0 -15 -25 -21 -55 -11
-54 -12 -55 -46 -55 -19 0 -50 6 -69 14 -31 13 -34 17 -28 49 3 20 1 37 -6 41
-7 5 -11 -5 -11 -28 0 -21 -5 -36 -11 -36 -26 0 12 256 53 368 14 38 25 52 39
52 10 0 19 -6 19 -12z m-1072 -37 c46 -43 43 -98 -9 -155 -11 -11 -19 -23 -19
-28 0 -11 -78 -10 -100 2 -10 5 -24 25 -30 44 -21 63 18 145 75 159 40 9 51 6
83 -22z m-592 -48 c15 -26 45 -66 67 -90 l40 -43 -18 -78 c-10 -42 -27 -99
-37 -127 -10 -27 -18 -51 -18 -52 0 -8 -23 -1 -33 10 -33 34 -77 98 -102 146
l-27 54 18 56 c15 48 72 171 80 171 1 0 14 -21 30 -47z m369 -178 c72 -35 148
-68 170 -74 63 -17 105 -47 105 -75 0 -55 -63 -325 -97 -419 -20 -53 -30 -68
-49 -73 -44 -11 -92 4 -152 45 -32 23 -63 41 -70 41 -7 0 -12 4 -12 8 0 5 -12
15 -27 23 -72 36 -174 112 -189 140 -19 38 -12 92 22 164 13 28 32 86 42 131
11 44 29 99 41 123 21 40 24 42 54 36 18 -4 91 -35 162 -70z m-425 -194 c60
-70 62 -75 56 -115 -4 -24 -2 -56 4 -72 15 -39 66 -91 113 -115 20 -11 37 -22
37 -25 0 -4 -11 -27 -25 -53 -34 -62 -125 -346 -125 -387 0 -19 -4 -34 -8 -34
-12 0 -136 138 -183 204 -87 122 -135 265 -125 377 7 73 37 156 75 208 27 36
99 93 112 89 4 -2 35 -36 69 -77z m805 -115 c33 -13 119 -38 190 -55 72 -17
155 -38 186 -46 30 -8 70 -15 87 -15 20 0 35 -6 38 -15 8 -20 -14 -168 -34
-227 -17 -52 -20 -53 -72 -38 -19 5 -73 15 -120 20 -194 24 -420 76 -435 99
-2 5 2 28 9 52 8 24 24 87 35 139 28 121 29 123 44 117 6 -3 39 -17 72 -31z
m2345 -50 c0 -39 -5 -47 -42 -80 -33 -28 -208 -126 -225 -126 -2 0 -3 21 -3
48 0 26 -9 76 -20 111 -11 36 -18 66 -17 68 2 1 23 -5 47 -13 55 -19 131 -14
191 14 64 30 69 28 69 -22z m-3427 -221 c32 -125 91 -219 255 -405 45 -51 61
-77 56 -89 -3 -9 -12 -29 -18 -46 -6 -16 -17 -34 -24 -38 -53 -34 -90 -128
-62 -162 10 -11 8 -20 -9 -41 -12 -15 -21 -41 -21 -58 0 -24 -7 -35 -29 -48
-26 -14 -32 -15 -51 -1 -16 12 -21 23 -18 52 l3 36 -38 -3 c-52 -5 -77 18 -77
71 l0 39 -34 -6 c-29 -6 -37 -3 -56 21 -14 18 -19 34 -15 48 13 43 11 50 -17
47 -57 -6 -77 89 -28 133 25 23 25 35 1 35 -11 0 -23 4 -26 10 -11 17 14 85
36 98 19 12 20 15 5 31 -9 10 -16 29 -16 42 0 30 26 69 46 69 8 0 14 7 14 15
0 8 -4 15 -10 15 -15 0 -12 47 5 80 10 19 23 30 36 30 18 0 20 4 14 29 -8 37
13 73 40 69 15 -2 24 -18 38 -73z m3900 -185 c34 -27 41 -53 23 -88 -16 -31
-13 -42 14 -42 35 0 55 -104 25 -134 -23 -22 -19 -46 8 -46 34 0 47 -19 47
-67 0 -37 -4 -45 -25 -53 -32 -12 -32 -38 0 -46 51 -13 40 -86 -16 -106 -28
-10 -28 -11 -14 -38 20 -39 19 -43 -11 -80 -22 -26 -33 -31 -63 -28 -35 3 -36
2 -36 -33 -1 -20 -7 -44 -14 -53 -15 -18 -66 -22 -76 -6 -3 6 -15 10 -26 10
-16 0 -19 -7 -19 -42 0 -68 -65 -115 -100 -73 -7 8 -21 15 -31 15 -16 0 -19
-8 -19 -41 0 -22 -5 -49 -10 -60 -15 -26 -66 -26 -80 1 -6 11 -20 20 -31 20
-19 0 -20 -4 -14 -48 5 -41 3 -51 -14 -67 -18 -16 -25 -16 -45 -6 -36 20 -62
10 -58 -21 2 -24 -2 -29 -39 -39 -31 -10 -45 -10 -60 -1 -28 18 -36 15 -51
-15 -10 -22 -21 -29 -49 -31 -23 -2 -40 2 -49 12 -17 21 -39 20 -47 -1 -4 -10
-14 -23 -22 -30 -23 -18 -96 -16 -111 2 -17 21 -25 19 -38 -9 -16 -36 -71 -51
-117 -31 -47 19 -44 20 -55 -10 -12 -30 -46 -45 -106 -45 -38 0 -46 3 -54 25
-5 14 -11 25 -13 25 -2 0 -17 -12 -32 -26 -15 -14 -35 -23 -44 -21 -108 32
-106 32 -140 8 l-31 -23 -46 22 c-40 20 -47 21 -62 7 -33 -29 -60 -30 -87 -3
-30 30 -47 33 -65 11 -8 -10 -30 -15 -61 -15 -43 0 -51 3 -59 24 -14 37 -26
39 -48 9 -28 -39 -92 -39 -123 -1 l-21 26 -46 -24 c-25 -13 -52 -24 -60 -24
-19 0 -52 29 -52 46 0 24 -21 26 -41 5 -37 -40 -109 -16 -109 36 0 26 -27 32
-36 8 -14 -36 -124 -8 -124 32 0 20 -24 16 -45 -7 -14 -15 -29 -20 -54 -18
-32 3 -36 7 -39 33 -5 56 -9 59 -46 36 -18 -12 -40 -21 -48 -21 -27 0 -68 40
-68 66 0 29 -5 30 -37 4 -16 -12 -41 -20 -64 -20 -38 0 -39 1 -39 35 0 19 -2
35 -6 35 -3 0 -22 -10 -43 -22 l-38 -22 -34 20 c-28 16 -35 27 -37 57 -3 39
-20 48 -42 22 -7 -8 -22 -15 -34 -15 -30 0 -66 27 -60 45 4 8 3 22 0 30 -5 14
-11 13 -45 -7 l-40 -23 -25 24 c-14 13 -26 33 -28 45 -3 19 -8 21 -51 18 -36
-3 -54 1 -68 14 -23 21 -26 86 -4 104 19 16 19 29 -1 51 -22 25 -10 77 22 91
29 14 31 38 4 61 -38 32 -1 117 51 117 30 0 31 2 25 31 -4 19 0 42 10 61 15
28 19 30 58 25 38 -5 182 -74 246 -117 29 -20 423 -219 490 -249 25 -10 72
-22 105 -26 33 -4 116 -20 185 -35 69 -16 175 -33 235 -39 61 -6 127 -15 147
-20 70 -17 469 -2 653 25 185 26 205 31 465 97 161 41 188 51 343 131 92 47
180 94 195 103 30 20 150 111 170 130 7 7 39 33 70 57 32 24 79 69 105 99 41
48 47 61 47 100 0 48 7 77 20 77 4 0 19 -9 33 -20z m-3310 -1057 c27 -34 73
-55 113 -51 20 1 38 -3 43 -10 11 -18 71 -33 108 -26 26 5 39 1 64 -21 26 -21
40 -26 77 -24 41 3 46 1 54 -23 13 -38 93 -54 118 -23 16 20 22 19 50 -5 17
-15 38 -20 79 -20 47 -1 59 -4 73 -23 16 -23 15 -25 -39 -88 -62 -72 -70 -87
-110 -214 -28 -90 -28 -90 -65 -96 -21 -3 -46 -13 -56 -22 -16 -15 -20 -15
-34 -1 -19 19 -67 21 -107 4 -26 -10 -35 -10 -54 2 -39 26 -84 31 -118 14 -24
-12 -35 -13 -45 -5 -8 6 -41 10 -76 8 -48 -3 -70 1 -91 15 -21 15 -39 17 -77
13 -93 -11 -117 17 -135 158 -13 97 28 332 71 402 46 76 39 71 91 65 34 -4 53
-12 66 -29z m2526 -198 l34 0 -7 -114 c-9 -143 -23 -211 -44 -218 -10 -2 -27
-10 -40 -16 -16 -8 -25 -8 -34 1 -15 15 -70 15 -103 0 -21 -9 -31 -9 -46 0
-25 16 -88 15 -119 -3 -14 -8 -47 -14 -73 -15 -27 0 -65 -7 -83 -16 -28 -13
-40 -14 -60 -5 -31 14 -79 14 -104 1 -13 -7 -33 -6 -64 2 -37 10 -51 9 -84 -4
-31 -12 -50 -13 -84 -6 -41 10 -44 13 -65 72 -12 33 -33 91 -47 129 -25 65
-25 67 -6 67 12 0 36 6 54 14 30 12 40 12 80 -2 44 -16 46 -16 76 7 24 17 38
21 58 16 15 -4 56 -9 92 -11 36 -2 82 -6 102 -10 45 -8 134 20 148 46 8 15 15
17 42 10 33 -10 69 -5 103 14 11 6 48 11 82 11 48 0 68 5 90 22 18 14 35 19
48 15 11 -4 35 -7 54 -7z m-241 -395 c35 -35 52 -38 52 -10 0 46 81 45 95 0 8
-26 35 -26 42 1 6 23 45 42 68 33 8 -4 15 -17 15 -30 0 -33 37 -33 46 0 6 27
26 39 49 30 24 -9 20 -86 -5 -109 -25 -23 -21 -38 11 -45 28 -7 34 -26 20 -63
-8 -20 -18 -27 -36 -27 -37 0 -33 -35 6 -55 44 -23 34 -51 -25 -69 -15 -5 -16
-9 -6 -21 7 -8 18 -15 25 -15 20 0 24 -23 9 -58 -14 -35 -29 -40 -53 -18 -21
19 -35 9 -47 -34 -14 -49 -53 -54 -84 -10 -18 25 -25 28 -36 19 -8 -6 -14 -22
-14 -35 0 -42 -56 -58 -90 -24 -26 26 -34 25 -54 -5 -12 -18 -25 -25 -47 -25
-19 0 -38 9 -53 25 -31 33 -45 32 -52 -5 -6 -27 -10 -30 -46 -30 -29 0 -45 7
-63 26 -24 26 -45 25 -45 -2 0 -43 -105 -41 -145 2 l-23 25 -15 -22 c-14 -19
-22 -21 -63 -16 -49 5 -64 18 -64 54 0 35 -21 39 -45 10 -39 -50 -79 -26 -73
45 3 40 1 43 -22 43 -23 0 -25 4 -28 46 -2 32 2 51 13 62 25 26 19 55 -12 59
-26 3 -28 7 -31 51 -3 53 8 74 41 79 15 2 23 11 25 28 8 52 55 75 103 49 16
-8 30 -5 65 11 49 24 91 21 101 -8 13 -36 47 -37 56 -1 8 29 90 27 111 -2 16
-24 46 -20 46 5 0 9 16 19 38 25 52 15 65 14 85 -9 23 -28 37 -25 43 9 10 49
69 54 112 11z m-2472 -28 c6 -4 14 -17 18 -29 9 -28 42 -30 49 -3 4 16 14 20
45 20 36 0 41 -4 56 -35 19 -39 41 -46 49 -16 10 41 107 36 107 -5 0 -27 23
-25 50 5 16 17 36 31 44 31 28 0 67 -20 73 -37 15 -43 25 -45 54 -13 38 41 79
41 112 -1 27 -34 57 -35 57 -1 0 45 64 59 80 17 14 -36 38 -32 42 8 4 47 22
39 26 -12 3 -37 7 -45 33 -54 32 -13 33 -16 19 -69 -6 -22 -19 -39 -30 -43
-25 -8 -26 -31 -1 -44 22 -12 36 -83 21 -111 -6 -11 -20 -20 -31 -20 -23 0
-36 -27 -20 -43 18 -18 13 -42 -14 -67 -24 -23 -52 -27 -109 -18 -13 2 -24 -5
-32 -20 -18 -36 -46 -51 -94 -52 -35 0 -48 5 -58 20 -19 31 -51 25 -63 -10 -9
-25 -16 -30 -44 -30 -24 0 -37 7 -49 25 -9 14 -23 25 -30 25 -8 0 -21 -11 -30
-25 -13 -20 -25 -25 -60 -25 -36 0 -45 4 -54 25 -11 24 -42 35 -42 16 0 -5
-14 -19 -30 -31 -36 -26 -54 -17 -77 38 -15 37 -35 41 -65 12 -27 -25 -103
-28 -112 -4 -9 25 -7 53 7 74 10 17 9 22 -3 30 -8 5 -24 10 -34 10 -29 0 -56
30 -56 62 0 27 30 68 50 68 21 0 10 41 -14 49 -33 13 -39 47 -13 71 11 11 24
20 29 20 17 0 7 36 -13 48 l-21 13 21 23 c12 12 21 31 21 42 0 21 33 57 60 67
22 8 63 8 76 -1z m2732 -548 c6 -2 12 -15 12 -30 0 -14 6 -52 14 -83 44 -178
25 -266 -82 -383 -170 -185 -258 -261 -357 -309 -113 -53 -296 -100 -421 -106
-120 -6 -167 5 -189 47 -28 53 -19 104 36 216 37 76 53 121 61 176 11 85 26
121 73 175 40 47 65 126 65 204 0 53 2 57 26 63 14 4 32 2 39 -4 25 -21 122
-25 149 -6 19 12 31 14 51 6 39 -15 96 -12 116 6 13 12 22 13 38 5 29 -16 96
-14 111 4 9 11 17 12 30 5 31 -17 88 -12 108 9 13 15 27 18 62 14 25 -3 51 -6
58 -9z m-1949 -374 c28 -54 32 -71 28 -110 -8 -61 -30 -102 -74 -136 -48 -36
-97 -53 -158 -54 -53 0 -165 -31 -202 -56 -95 -62 -361 -176 -474 -204 -115
-28 -391 -49 -413 -31 -21 18 -20 64 3 109 20 40 135 164 186 200 254 183 316
247 330 337 5 28 7 97 6 155 l-2 105 36 -37 c40 -42 61 -46 107 -22 22 11 33
13 41 5 14 -14 95 -14 136 0 24 9 35 9 44 0 17 -17 107 -14 128 5 13 12 22 13
38 5 52 -28 152 -2 183 49 11 17 14 0 18 -117 5 -133 6 -141 39 -203z m2062
-53 c2 -93 -13 -123 -74 -153 -28 -13 -52 -24 -53 -24 -1 0 -1 21 0 46 2 33
10 55 29 80 32 39 61 103 72 159 l8 40 8 -40 c5 -22 9 -70 10 -108z m-1963
-136 c17 -56 15 -77 -13 -125 -41 -70 -179 -143 -295 -156 -36 -4 -75 -11 -86
-15 -18 -5 -23 -1 -32 24 -15 42 -39 50 -65 20 -31 -34 -115 -101 -162 -129
-22 -12 -45 -29 -51 -37 -16 -19 -98 -49 -229 -84 -114 -31 -330 -50 -406 -35
-41 7 -99 59 -99 88 0 17 3 18 15 8 17 -14 102 -14 255 0 123 12 173 21 265
50 84 26 297 120 382 168 91 51 119 60 230 71 50 5 102 15 115 22 53 27 107
81 124 124 11 25 24 45 30 45 6 0 16 -17 22 -39z m1778 -53 c-14 -24 -33 -56
-42 -73 -56 -100 -161 -203 -254 -250 -45 -23 -181 -63 -247 -72 -44 -7 -325
15 -362 28 -16 6 -32 17 -35 26 -5 13 1 14 41 8 156 -25 382 15 569 100 90 41
143 83 264 208 47 48 86 83 88 78 2 -6 -8 -29 -22 -53z"/>
<path d="M2855 7276 c-36 -16 -56 -33 -70 -60 -17 -32 -24 -37 -47 -32 -28 6
-42 -11 -28 -34 5 -8 19 -11 42 -6 27 5 40 15 57 46 29 53 65 70 144 70 93 0
127 -39 127 -146 0 -36 3 -42 16 -37 26 10 14 130 -16 171 -42 57 -137 68
-225 28z"/>
<path d="M3424 7165 c-37 -19 -56 -36 -77 -74 -15 -27 -23 -52 -19 -55 10 -6
44 28 61 62 15 28 90 62 136 62 81 0 117 -45 117 -150 0 -66 1 -69 28 -80 16
-6 36 -10 46 -8 29 5 27 25 -4 31 -28 6 -29 8 -35 77 -7 79 -31 130 -72 148
-45 20 -126 15 -181 -13z"/>
<path d="M2736 6664 c-21 -30 -100 -68 -121 -60 -20 7 -31 -14 -14 -25 8 -5
31 -7 52 -3 37 6 37 5 27 -20 -5 -14 -19 -44 -30 -66 -28 -54 -21 -71 14 -34
32 33 65 99 66 130 0 30 33 56 77 61 l38 4 30 -66 c46 -103 104 -145 198 -145
51 0 125 26 157 55 8 7 28 20 44 29 l30 15 18 -41 c10 -23 16 -49 13 -57 -8
-21 -7 -234 1 -255 14 -37 24 2 24 97 0 124 5 147 33 147 19 0 17 4 -13 35
-30 31 -32 37 -22 60 7 14 12 27 12 29 0 8 -50 17 -140 26 -120 12 -238 42
-316 80 -82 40 -150 41 -178 4z"/>
<path d="M2826 6390 c8 -47 45 -93 90 -115 60 -28 164 -17 234 25 69 42 90 60
90 77 0 21 -16 16 -78 -27 -131 -89 -261 -73 -323 39 l-20 36 7 -35z"/>
<path d="M2200 4989 c-39 -16 -89 -58 -105 -89 -8 -16 -15 -52 -15 -80 0 -45
4 -55 40 -94 51 -55 104 -66 162 -33 59 33 88 91 88 176 0 68 -1 70 -37 100
-40 33 -84 39 -133 20z m101 -50 c26 -18 29 -26 29 -77 0 -63 -19 -102 -64
-132 -35 -22 -73 -15 -113 22 -54 52 -49 117 15 176 42 38 89 42 133 11z"/>
<path d="M3934 4038 c-4 -6 3 -19 16 -28 27 -21 22 -45 -12 -53 -316 -71 -435
-78 -763 -46 -155 15 -153 14 -163 52 -9 35 -39 45 -35 12 7 -57 2 -213 -8
-268 -6 -34 -25 -90 -42 -125 -24 -50 -28 -65 -18 -75 10 -9 16 -7 31 10 17
21 21 22 76 12 157 -28 234 -34 414 -33 245 1 421 24 543 70 37 14 37 14 37
-11 0 -17 5 -25 18 -25 13 0 25 16 40 53 18 43 22 72 22 162 0 61 -5 127 -11
148 -20 72 -125 177 -145 145z m100 -138 c17 -42 23 -245 8 -265 -7 -9 -46
-23 -175 -60 -139 -39 -504 -57 -692 -34 -44 6 -108 13 -143 16 -53 5 -62 8
-57 22 19 48 35 133 40 210 7 94 11 115 22 108 7 -4 193 -26 357 -42 114 -11
518 42 575 75 32 18 49 11 65 -30z"/>
<path d="M1707 3629 c-28 -16 -57 -87 -57 -139 0 -56 36 -115 75 -123 39 -7
107 11 132 35 51 48 54 152 7 208 -23 27 -32 30 -82 30 -32 0 -65 -5 -75 -11z
m133 -51 c14 -15 20 -35 20 -68 0 -58 -29 -94 -85 -104 -35 -7 -42 -5 -62 19
-31 35 -33 81 -8 143 13 30 17 32 64 32 39 0 55 -5 71 -22z"/>
<path d="M1711 4235 c-13 -25 -32 -91 -43 -146 l-20 -99 35 -44 c47 -56 186
-130 221 -116 13 4 26 18 29 30 4 17 10 20 31 14 39 -9 71 2 84 31 17 38 16
44 -23 80 l-34 33 15 45 c29 85 23 95 -97 155 -58 29 -121 55 -140 58 -33 6
-36 4 -58 -41z m177 -45 c56 -27 102 -52 102 -56 0 -4 -5 -24 -12 -46 -10 -34
-15 -38 -32 -32 -12 3 -36 7 -55 8 -31 1 -35 -2 -43 -33 -11 -40 2 -78 38
-112 26 -25 31 -44 12 -51 -23 -8 -151 65 -179 102 l-27 35 19 98 c22 111 32
137 57 137 9 0 63 -22 120 -50z"/>
</g>
</svg>
