<?xml version="1.0" standalone="no"?>
<!DOCTYPE svg PUBLIC "-//W3C//DTD SVG 20010904//EN"
 "http://www.w3.org/TR/2001/REC-SVG-20010904/DTD/svg10.dtd">
<svg version="1.0" xmlns="http://www.w3.org/2000/svg"
 width="614.000000pt" height="733.000000pt" viewBox="0 0 614.000000 733.000000"
 preserveAspectRatio="xMidYMid meet">
<metadata>
Created by potrace 1.16, written by Peter Selinger 2001-2019
</metadata>
<g transform="translate(0.000000,733.000000) scale(0.100000,-0.100000)"
fill="#000000" stroke="none">
<path d="M3255 7236 c-64 -29 -115 -110 -154 -243 -24 -81 -69 -147 -121 -177
-29 -17 -60 -22 -182 -27 -165 -7 -208 -21 -242 -78 -36 -62 3 -126 135 -222
132 -96 141 -159 50 -343 -78 -157 -82 -257 -13 -319 52 -47 136 -27 235 55
26 21 47 36 47 31 0 -4 -20 -60 -44 -123 -164 -428 -394 -798 -612 -986 -96
-83 -152 -119 -284 -182 -185 -89 -251 -164 -221 -254 29 -86 121 -138 259
-146 65 -3 92 -8 92 -18 0 -22 -40 -107 -75 -159 -35 -52 -155 -173 -240 -242
-68 -55 -236 -163 -315 -203 -140 -70 -254 -170 -292 -257 -37 -84 -11 -199
63 -272 42 -42 92 -67 167 -82 l63 -13 -7 -31 c-4 -16 -23 -64 -43 -105 -28
-60 -56 -96 -136 -176 -138 -140 -278 -230 -510 -328 -182 -78 -288 -162 -321
-254 -40 -111 23 -260 132 -312 41 -20 56 -22 147 -17 56 3 111 8 123 12 20 6
20 4 16 -112 -2 -68 0 -135 7 -158 38 -142 196 -245 374 -245 77 0 137 15 215
52 l49 24 7 -76 c15 -188 143 -289 352 -278 72 4 94 10 160 43 42 21 98 58
124 82 26 24 50 43 54 43 3 0 17 -21 32 -47 92 -159 192 -269 289 -315 33 -15
65 -28 72 -28 32 0 38 -25 31 -141 -13 -220 -10 -262 15 -300 26 -39 109 -77
234 -105 117 -27 322 -25 428 5 103 29 199 75 224 108 44 55 46 92 17 297 -14
104 -25 191 -23 193 2 2 33 -4 68 -13 77 -20 169 -14 233 15 91 40 177 148
211 264 9 32 20 57 23 55 4 -2 54 -26 112 -55 162 -79 280 -105 382 -84 151
32 239 156 272 384 14 94 4 89 131 62 116 -25 304 -26 374 -1 104 36 185 155
167 248 -16 86 -78 148 -265 267 -225 143 -434 389 -566 667 -49 103 -115 266
-115 283 0 6 12 11 26 11 65 0 119 24 170 74 86 87 92 165 22 271 -36 55 -88
108 -275 282 -136 127 -250 261 -320 373 -42 68 -100 206 -91 216 3 3 37 1 75
-4 143 -20 232 18 265 114 50 145 -9 252 -205 373 -108 65 -173 115 -255 195
-234 225 -427 556 -576 985 -26 74 -44 136 -42 139 3 3 29 -19 58 -48 106
-106 199 -147 269 -117 38 15 69 65 69 109 0 61 -60 205 -134 321 -45 70 -49
89 -33 129 16 37 74 84 172 138 94 52 143 96 156 140 30 99 -63 159 -246 160
-122 1 -201 15 -239 43 -27 21 -34 35 -45 94 -51 283 -120 388 -226 339z m103
-73 c10 -16 24 -41 30 -58 16 -41 49 -180 57 -237 14 -104 76 -135 292 -147
114 -7 150 -13 187 -31 102 -49 54 -125 -142 -224 -100 -51 -164 -139 -147
-204 4 -15 29 -64 56 -109 123 -204 146 -321 69 -353 -55 -23 -120 13 -250
139 -114 111 -199 161 -273 161 -62 0 -154 -55 -273 -162 -74 -66 -144 -103
-180 -94 -32 8 -64 61 -64 107 0 45 18 98 72 208 33 68 43 100 46 152 6 100
-21 144 -133 219 -87 59 -108 85 -109 133 -1 39 1 43 39 62 32 15 65 20 165
22 77 2 143 9 171 18 79 26 138 105 174 230 42 144 118 232 177 203 9 -4 25
-20 36 -35z m-30 -1132 c21 -11 43 -25 49 -33 6 -7 32 -76 57 -153 104 -311
213 -547 351 -755 135 -204 266 -343 433 -458 45 -31 115 -79 154 -107 40 -27
86 -70 103 -93 26 -37 30 -53 30 -105 0 -116 -54 -168 -173 -168 -77 0 -156
17 -269 61 -43 17 -83 30 -90 30 -6 0 -34 -46 -61 -102 -134 -280 -286 -364
-487 -268 -69 33 -180 118 -255 194 -24 25 -49 46 -55 46 -5 0 -30 -16 -55
-36 -75 -60 -182 -121 -239 -138 -184 -54 -315 24 -431 259 l-35 70 -45 -5
c-25 -3 -97 -5 -160 -5 -105 0 -120 2 -172 28 -161 79 -111 200 123 299 288
121 559 429 774 881 59 125 158 365 185 452 16 51 33 70 95 107 57 33 106 33
173 -1z m-957 -1881 c97 -182 199 -258 346 -259 107 -1 236 53 350 146 l44 36
52 -50 c88 -86 169 -145 247 -182 66 -31 84 -35 155 -36 67 0 89 4 135 27 101
50 178 140 250 293 18 39 34 72 36 74 2 2 37 -9 78 -24 73 -27 76 -29 86 -69
29 -111 115 -263 221 -389 45 -54 190 -200 365 -367 143 -138 173 -210 124
-297 -26 -47 -69 -78 -132 -95 -65 -17 -178 0 -301 46 -94 36 -127 43 -127 29
0 -5 14 -55 31 -113 27 -90 32 -122 33 -222 1 -116 1 -117 -29 -148 -40 -43
-96 -70 -143 -70 -78 0 -212 54 -311 125 -27 19 -55 35 -63 35 -9 0 -33 -30
-54 -67 -50 -84 -148 -187 -205 -213 -62 -28 -140 -26 -208 5 -60 28 -177 136
-237 220 -21 30 -44 55 -50 55 -6 0 -28 -24 -48 -54 -84 -122 -181 -185 -295
-194 -72 -5 -120 12 -168 58 -50 47 -92 174 -93 280 0 68 -12 90 -37 73 -152
-102 -280 -165 -378 -185 -148 -29 -224 78 -225 313 l0 97 -127 -5 c-204 -9
-310 29 -361 129 -35 69 -39 126 -13 182 30 61 130 152 227 205 352 195 564
374 652 553 23 46 42 93 42 105 0 14 8 23 23 26 61 12 64 10 108 -73z m-591
-1244 c0 -197 65 -314 186 -332 85 -12 243 42 390 136 26 16 52 30 56 30 4 0
8 -15 8 -34 0 -100 47 -226 107 -288 72 -74 209 -89 324 -36 60 28 143 98 180
152 13 20 29 36 34 36 6 0 20 -15 33 -33 29 -44 138 -151 182 -180 95 -63 206
-75 299 -32 64 30 153 119 206 204 21 34 40 61 42 61 2 0 23 -13 46 -29 109
-75 227 -120 313 -121 92 0 190 63 216 139 19 58 12 185 -16 295 -14 55 -24
101 -23 102 2 2 44 -10 95 -26 51 -17 103 -30 116 -30 31 0 36 -8 75 -115 141
-381 373 -695 651 -879 204 -135 241 -169 261 -241 12 -41 -1 -91 -33 -138
-70 -99 -244 -120 -502 -62 -124 28 -125 28 -126 -45 0 -58 -22 -159 -51 -234
-46 -125 -160 -196 -288 -181 -100 11 -251 68 -361 136 -27 17 -54 28 -59 25
-4 -3 -20 -43 -34 -88 -52 -167 -138 -255 -268 -273 -59 -9 -151 9 -218 41
-73 36 -182 142 -244 236 -30 47 -57 78 -65 76 -8 -2 -22 -21 -31 -44 -54
-135 -169 -268 -276 -319 -79 -37 -224 -47 -304 -20 -113 37 -244 172 -327
337 -19 37 -40 68 -47 68 -6 0 -37 -22 -68 -48 -129 -111 -217 -147 -334 -140
-89 6 -172 43 -212 95 -31 40 -52 130 -53 221 0 34 -4 62 -9 62 -5 0 -42 -17
-83 -39 -97 -51 -152 -65 -242 -59 -138 9 -265 91 -300 194 -19 56 -21 185 -5
268 7 31 9 59 6 63 -4 3 -41 -1 -82 -10 -93 -21 -191 -22 -236 -3 -48 20 -86
64 -109 125 -25 66 -25 104 1 158 40 82 105 124 404 263 112 52 189 98 285
171 163 124 254 239 306 388 l23 66 73 5 c40 3 76 4 81 2 4 -2 7 -36 7 -76z
m1584 -1860 c45 -65 125 -147 182 -187 l41 -28 12 -98 c7 -54 19 -145 27 -203
24 -170 -2 -211 -171 -264 -170 -54 -314 -58 -485 -15 -200 51 -205 57 -196
261 4 84 9 170 12 191 l6 37 58 0 c165 0 327 110 424 288 22 40 42 72 46 72 4
0 24 -24 44 -54z"/>
<path d="M3021 6644 c-91 -77 -31 -224 87 -211 50 5 86 35 102 84 16 47 4 87
-36 123 -46 40 -108 42 -153 4z"/>
<path d="M3352 6636 c-33 -31 -37 -39 -37 -85 0 -43 5 -55 31 -82 78 -77 204
-27 204 81 0 69 -53 120 -125 120 -26 0 -45 -9 -73 -34z"/>
<path d="M3157 5582 c-99 -34 -157 -116 -157 -224 0 -78 27 -136 83 -182 72
-57 143 -70 230 -40 87 30 157 129 157 225 0 81 -52 168 -125 207 -44 24 -138
31 -188 14z m190 -68 c62 -50 85 -98 79 -167 -7 -89 -66 -159 -150 -178 -91
-20 -189 28 -222 108 -37 88 -2 198 79 248 36 22 51 26 109 23 57 -3 72 -8
105 -34z"/>
<path d="M2670 4777 c-53 -17 -123 -93 -139 -149 -31 -109 4 -207 97 -272 59
-42 159 -49 226 -17 121 59 169 195 112 316 -28 60 -56 87 -116 114 -50 23
-123 26 -180 8z m170 -49 c125 -63 147 -226 43 -317 -55 -49 -134 -65 -197
-41 -42 16 -102 77 -116 119 -20 60 -9 134 27 179 37 47 105 82 158 82 22 0
61 -10 85 -22z"/>
<path d="M3467 4696 c-127 -46 -194 -200 -138 -321 20 -44 87 -110 127 -125
45 -18 151 -12 194 10 175 89 174 336 -2 424 -58 29 -120 33 -181 12z m135
-36 c138 -39 183 -217 82 -324 -49 -52 -141 -72 -211 -45 -38 14 -92 67 -109
106 -33 77 -6 177 60 228 56 43 110 53 178 35z"/>
<path d="M2415 3711 c-48 -22 -98 -69 -121 -113 -10 -18 -19 -65 -22 -103 -4
-62 -1 -78 22 -122 43 -86 121 -133 221 -133 106 0 168 36 223 130 38 64 38
166 0 230 -33 57 -73 95 -120 114 -51 22 -153 20 -203 -3z m226 -80 c23 -23
29 -38 29 -71 0 -33 -6 -48 -29 -71 -71 -70 -186 -5 -167 95 14 76 111 103
167 47z"/>
<path d="M3701 3691 c-48 -13 -110 -59 -146 -110 -26 -37 -30 -53 -33 -120 -3
-63 0 -85 16 -117 49 -95 127 -143 232 -144 84 0 157 39 200 106 85 135 41
296 -100 369 -36 19 -125 27 -169 16z m191 -98 c72 -69 0 -193 -99 -168 -71
18 -99 117 -45 167 15 14 34 28 42 31 27 11 74 -3 102 -30z"/>
<path d="M2890 3143 c-25 -32 -12 -55 20 -35 16 10 20 10 20 -2 0 -8 13 -25
30 -39 42 -36 137 -50 305 -45 152 4 200 17 225 62 18 34 4 86 -22 86 -17 0
-19 -5 -15 -27 3 -15 1 -35 -4 -45 -15 -28 -104 -41 -255 -36 -165 6 -207 19
-229 73 -19 43 -45 46 -75 8z"/>
<path d="M1365 2498 c-57 -16 -137 -99 -154 -161 -31 -110 21 -226 124 -279
60 -31 160 -29 217 5 82 48 120 114 120 207 0 129 -89 226 -216 235 -28 2 -69
-1 -91 -7z m180 -66 c140 -97 101 -314 -64 -351 -139 -31 -263 95 -232 234 13
53 19 64 68 109 58 53 157 56 228 8z"/>
<path d="M4366 2226 c-97 -36 -156 -121 -156 -224 0 -136 96 -234 230 -234 74
0 132 25 178 78 105 119 70 297 -72 371 -42 22 -133 26 -180 9z m165 -48 c98
-55 134 -164 87 -258 -36 -70 -86 -103 -162 -108 -72 -5 -113 11 -155 60 -37
44 -50 76 -51 131 0 80 51 153 130 186 31 14 120 7 151 -11z"/>
<path d="M2754 2172 c-49 -23 -111 -93 -124 -141 -56 -202 139 -374 325 -287
165 76 186 300 38 407 -43 30 -56 34 -123 37 -57 2 -85 -2 -116 -16z m194 -43
c58 -28 94 -84 100 -154 6 -72 -2 -98 -44 -145 -81 -89 -202 -90 -292 -3 -7 7
-21 31 -32 55 -75 165 101 327 268 247z"/>
<path d="M1944 1840 c-153 -36 -224 -226 -134 -358 49 -72 108 -105 190 -105
168 0 276 148 230 314 -16 58 -85 124 -149 143 -58 17 -87 18 -137 6z m171
-67 c154 -107 82 -353 -102 -353 -66 0 -109 17 -149 61 -77 82 -67 218 18 282
74 55 163 58 233 10z"/>
<path d="M3671 1704 c-122 -61 -166 -211 -96 -330 75 -129 259 -153 367 -49
51 50 71 97 71 170 0 178 -182 289 -342 209z m211 -45 c62 -40 83 -82 83 -164
0 -83 -22 -126 -89 -169 -81 -53 -201 -24 -261 62 -26 37 -30 53 -30 107 0 54
4 69 30 106 44 62 105 92 176 86 35 -3 69 -13 91 -28z"/>
</g>
</svg>
