<?xml version="1.0" standalone="no"?>
<!DOCTYPE svg PUBLIC "-//W3C//DTD SVG 20010904//EN"
 "http://www.w3.org/TR/2001/REC-SVG-20010904/DTD/svg10.dtd">
<svg version="1.0" xmlns="http://www.w3.org/2000/svg"
 width="650.000000pt" height="484.000000pt" viewBox="0 0 650.000000 484.000000"
 preserveAspectRatio="xMidYMid meet">
<metadata>
Created by potrace 1.16, written by Peter Selinger 2001-2019
</metadata>
<g transform="translate(0.000000,484.000000) scale(0.100000,-0.100000)"
fill="#000000" stroke="none">
<path d="M1363 4758 c-26 -35 -37 -88 -37 -182 0 -84 4 -108 22 -143 30 -58
56 -73 124 -73 53 0 60 -2 70 -25 10 -22 8 -29 -15 -53 -39 -41 -57 -105 -57
-204 0 -93 9 -111 41 -82 19 17 21 17 46 -2 19 -14 36 -50 64 -129 21 -61 38
-114 39 -119 0 -5 -17 15 -38 44 -44 64 -114 120 -148 120 -36 0 -29 -17 10
-24 36 -7 116 -83 145 -138 12 -24 11 -29 -12 -60 -43 -55 -69 -124 -66 -173
3 -40 -1 -47 -52 -103 -31 -32 -63 -76 -73 -96 -14 -31 -21 -36 -39 -30 -27 8
-46 24 -28 24 38 0 55 147 21 190 -11 14 -20 30 -20 37 0 7 -19 18 -41 25 -37
11 -46 10 -80 -9 -22 -12 -39 -19 -39 -17 0 3 7 34 16 69 15 61 15 65 -3 92
-11 15 -22 36 -26 45 -11 30 -74 34 -126 8 -25 -13 -53 -26 -61 -30 -8 -4 -21
-24 -29 -45 -13 -34 -13 -43 3 -89 10 -28 26 -68 36 -88 10 -21 15 -38 12 -38
-4 0 -25 18 -47 41 -21 22 -51 49 -66 60 -26 18 -27 18 -50 0 -13 -10 -39 -26
-56 -35 -18 -9 -33 -24 -33 -33 0 -9 -7 -24 -16 -34 -12 -13 -15 -28 -10 -53
8 -44 20 -52 81 -62 l50 -7 -86 -17 c-211 -43 -356 -159 -420 -336 -26 -72
-32 -245 -10 -310 12 -37 11 -44 -8 -82 -14 -28 -28 -42 -41 -42 -15 0 -20 -7
-20 -25 0 -18 -5 -25 -19 -25 -26 0 -34 -15 -22 -39 8 -14 7 -20 -4 -25 -18
-7 -20 -33 -2 -39 9 -3 9 -7 -2 -21 -12 -14 -11 -19 5 -37 14 -16 16 -24 7
-38 -10 -15 -6 -27 21 -67 51 -75 124 -208 147 -266 12 -29 36 -117 55 -195
38 -163 59 -210 120 -273 41 -43 43 -47 34 -84 -19 -86 11 -156 105 -247 36
-35 80 -86 97 -114 17 -27 37 -54 44 -58 20 -11 17 -58 -6 -117 -29 -73 -26
-95 18 -142 33 -35 45 -41 90 -46 28 -2 73 1 99 8 27 6 105 15 174 19 69 4
134 13 144 19 15 8 25 5 48 -14 70 -59 291 -95 624 -101 274 -6 452 5 615 38
119 24 173 44 193 72 20 29 5 51 -50 71 -46 18 -49 24 -39 63 6 21 7 21 59
-12 94 -60 197 -90 324 -94 59 -2 84 -8 118 -27 41 -25 45 -25 171 -18 71 3
163 3 204 0 l76 -8 12 -46 c28 -114 121 -234 239 -310 165 -107 394 -128 611
-56 132 44 242 134 297 243 l28 57 160 0 c167 1 216 8 327 50 165 62 285 175
420 394 52 85 77 110 131 135 76 35 122 105 110 169 -6 31 -36 62 -128 132
-38 29 -79 68 -91 86 -11 18 -43 69 -69 113 -70 117 -188 228 -301 285 -49 25
-90 46 -92 46 -4 2 25 115 32 121 2 3 24 9 48 14 24 6 80 28 124 49 100 48
156 107 174 180 15 62 7 100 -34 153 -20 26 -35 60 -39 85 -11 84 -58 124
-168 142 l-67 11 14 27 c23 44 27 91 14 151 -22 102 -90 187 -184 233 l-44 21
-4 77 c-6 98 -27 137 -91 169 -40 20 -70 24 -209 32 -178 10 -236 21 -245 47
-3 9 -15 27 -26 39 -25 28 -15 43 29 43 41 0 103 -29 162 -77 24 -20 46 -33
49 -30 10 11 -7 75 -39 137 -73 148 -211 222 -350 190 -155 -37 -258 -155
-258 -297 0 -51 -3 -63 -19 -68 -10 -3 -26 -14 -36 -25 -11 -12 -31 -20 -50
-20 -42 0 -124 -42 -170 -87 -76 -73 -111 -201 -85 -309 7 -30 17 -57 22 -60
22 -14 2 -24 -49 -24 -195 -1 -327 -125 -293 -277 10 -45 10 -47 -22 -73 -18
-16 -34 -27 -35 -26 -2 2 37 215 59 325 l14 64 73 21 c139 40 211 136 211 283
0 63 -5 89 -26 133 -23 49 -24 59 -13 92 7 22 10 66 7 110 -4 58 -12 88 -42
148 -21 41 -41 82 -45 90 -4 8 -33 28 -64 43 l-57 28 0 47 c-1 123 -55 262
-102 262 -21 0 -20 -2 9 -27 18 -16 38 -48 47 -73 13 -43 39 -200 34 -206 -2
-1 -27 -4 -57 -5 l-53 -4 -21 55 c-14 40 -37 72 -83 117 -94 93 -167 123 -327
139 -64 6 -68 8 -81 38 -18 43 -94 111 -142 126 -21 7 -43 16 -47 20 -11 9 35
102 76 154 29 37 30 39 12 52 -10 7 -22 11 -27 8 -10 -6 -43 -77 -53 -114 -14
-52 -48 -90 -80 -90 -16 0 -55 -7 -85 -15 -30 -8 -58 -15 -61 -15 -9 0 -65
126 -85 193 -10 31 -21 54 -24 50 -4 -5 -14 -29 -24 -55 -22 -60 -103 -142
-185 -188 -164 -92 -282 -173 -335 -231 -31 -33 -56 -64 -56 -70 0 -25 -18 -4
-30 34 -14 49 -81 182 -107 214 -15 18 -30 22 -81 24 -34 1 -65 -1 -69 -5 -4
-3 -15 10 -24 29 -17 35 -17 37 2 68 24 40 24 80 -1 134 -19 43 -35 54 -125
85 -32 11 -44 23 -68 68 -34 66 -32 63 -44 48z m28 -49 c19 -47 49 -75 89 -84
76 -16 113 -51 125 -116 12 -71 -55 -139 -138 -139 -48 0 -94 31 -113 76 -26
61 -13 294 15 294 5 0 14 -14 22 -31z m1196 -322 l22 -36 -29 -29 c-54 -55
-63 -163 -19 -261 21 -48 18 -55 -31 -67 -46 -12 -101 -48 -106 -70 -11 -44
20 -61 36 -20 5 14 19 30 32 37 13 6 31 20 41 30 41 43 157 14 260 -65 58 -44
70 -46 31 -5 l-29 32 45 -7 c25 -4 56 -9 70 -12 19 -4 22 -3 10 5 -12 8 -5 14
35 32 60 27 126 26 172 -1 18 -11 33 -15 33 -9 0 14 -79 49 -112 49 l-27 0 15
37 c10 23 14 58 12 95 l-3 58 59 0 c67 0 162 -22 220 -52 66 -34 160 -135 183
-198 19 -50 20 -58 6 -84 -21 -41 -12 -107 23 -157 34 -49 71 -69 128 -71 57
-1 98 28 121 84 l17 43 25 -50 c33 -64 42 -164 20 -218 -16 -36 -15 -39 10
-90 69 -135 20 -321 -101 -384 -72 -38 -286 -72 -286 -45 0 4 11 39 25 77 29
83 29 80 12 66 -8 -6 -19 -30 -26 -53 -42 -140 -123 -220 -249 -247 -89 -19
-107 -15 -130 23 -23 38 -104 91 -127 82 -30 -11 -16 -44 30 -70 25 -15 45
-32 45 -37 0 -6 -15 -1 -32 11 -18 12 -47 28 -64 35 -40 18 -51 32 -99 129
-27 54 -47 82 -60 85 -19 3 -19 2 1 -20 33 -36 69 -112 55 -117 -6 -2 -30 -19
-53 -38 -22 -19 -72 -53 -110 -76 -81 -48 -141 -58 -234 -37 -32 7 -66 13 -74
14 -11 0 -14 10 -12 37 4 38 -11 78 -28 78 -6 0 -10 -22 -10 -50 0 -27 -3 -50
-7 -50 -10 0 -43 32 -43 43 0 5 -17 30 -39 56 -21 25 -45 60 -54 77 -9 17 -36
55 -61 84 -25 29 -46 62 -48 73 -4 28 -25 33 -33 8 -3 -11 -17 -36 -31 -57
-24 -35 -26 -64 -4 -64 9 0 45 50 53 74 4 13 70 -58 99 -107 13 -21 38 -59 56
-83 17 -24 32 -46 32 -49 0 -3 -12 -5 -26 -5 -16 0 -43 -17 -77 -49 -29 -26
-68 -57 -87 -67 -48 -25 -153 -25 -199 0 -43 23 -141 114 -141 131 0 7 14 15
31 19 40 8 99 36 99 47 0 5 -17 1 -37 -10 -122 -61 -257 -37 -357 62 -59 59
-73 108 -57 200 15 89 44 148 106 215 l52 56 43 -37 c24 -20 50 -37 58 -37 8
0 -4 14 -27 31 -52 37 -76 88 -65 138 l7 36 8 -34 c10 -45 38 -81 85 -109 53
-31 142 -27 179 8 38 35 51 89 35 144 -18 66 -40 81 -117 82 -60 1 -67 3 -82
28 -16 27 -15 28 19 57 28 24 181 109 196 109 2 0 4 -8 4 -19 0 -32 29 -102
56 -134 30 -37 80 -67 109 -67 14 1 9 5 -15 16 -79 34 -125 104 -139 211 -25
190 33 264 352 446 122 69 200 139 230 206 l20 45 26 -75 c15 -41 36 -92 48
-112z m198 -17 c3 -5 -2 -10 -12 -10 -11 0 -28 -6 -38 -14 -17 -12 -18 -17 -6
-39 14 -27 69 -57 104 -57 12 0 33 7 45 16 33 23 25 55 -18 76 -24 13 -29 18
-15 18 49 -1 133 -67 166 -131 42 -80 24 -249 -27 -249 -8 0 -33 -9 -54 -20
-57 -29 -139 -24 -208 12 -29 15 -68 30 -88 34 -41 8 -65 46 -83 136 -26 123
31 201 164 228 57 11 63 11 70 0z m-1035 -70 c0 -10 -8 -24 -19 -29 -12 -7
-21 -27 -25 -56 -6 -36 -13 -48 -35 -60 -23 -11 -30 -25 -41 -75 -7 -33 -16
-63 -21 -66 -4 -2 -18 9 -30 26 -23 31 -49 40 -49 18 -1 -14 -34 -58 -44 -58
-13 0 -5 147 11 197 16 51 44 93 62 93 5 0 16 -11 25 -25 9 -14 23 -25 30 -25
19 0 28 28 16 49 -13 26 -4 31 62 31 51 0 58 -2 58 -20z m59 -78 c64 -127 81
-182 81 -262 l0 -77 -71 -33 c-39 -18 -87 -46 -106 -63 -42 -37 -41 -38 -84
93 -29 89 -55 130 -91 143 -10 3 -10 7 -1 17 9 10 17 7 36 -15 35 -41 53 -28
69 45 10 52 17 63 45 80 27 16 33 26 33 53 0 34 37 89 53 80 4 -2 20 -30 36
-61z m1834 -356 c8 -8 24 -12 35 -10 26 7 63 -12 56 -30 -3 -8 -1 -17 5 -21
14 -8 14 -51 1 -76 -9 -16 -7 -21 12 -28 l22 -8 -31 -32 c-75 -75 -205 -13
-228 109 -8 45 8 88 37 100 35 13 75 12 91 -4z m1081 -81 c75 -36 163 -153
191 -254 6 -21 2 -19 -46 17 -88 66 -160 85 -202 52 -14 -11 -39 -20 -56 -20
-17 0 -42 -10 -58 -24 -28 -24 -28 -25 -27 -140 0 -77 -3 -116 -10 -115 -6 0
-27 20 -46 44 -41 50 -102 98 -145 112 -27 9 -30 14 -33 57 -8 118 76 232 207
282 51 19 175 13 225 -11z m-3559 -38 c53 -85 54 -91 24 -191 -19 -63 -51
-115 -71 -116 -5 0 -8 59 -8 130 0 82 -4 130 -10 130 -7 0 -8 -46 -4 -137 l7
-138 -22 19 c-21 19 -21 19 -21 0 0 -10 -18 19 -40 65 -44 91 -51 151 -24 189
8 12 24 22 35 22 12 0 33 9 47 21 19 15 35 19 56 15 16 -4 30 -7 31 -9z m618
-94 c-4 -17 14 -17 19 -1 7 21 58 -38 58 -67 0 -14 -4 -25 -10 -25 -5 0 -10
10 -10 23 0 13 -7 32 -16 43 -15 18 -15 18 -5 -3 6 -12 11 -33 11 -47 0 -19 5
-26 20 -26 27 0 27 -39 0 -73 -47 -60 -143 -59 -208 2 -69 63 -67 123 7 160
29 15 41 17 44 8 2 -8 9 -6 22 6 20 20 72 20 68 0z m2891 -104 c35 -27 35 -82
0 -152 -40 -81 -64 -106 -96 -100 -33 6 -37 16 -45 110 -5 58 -2 81 12 113 10
21 25 41 34 43 38 10 70 6 95 -14z m-3704 -59 c72 -66 74 -69 57 -87 -9 -11
-17 -27 -17 -37 0 -9 -4 -14 -10 -11 -5 3 -19 1 -30 -5 -16 -9 -24 -8 -36 5
-8 8 -23 15 -32 14 -14 0 -13 -2 3 -9 18 -8 17 -9 -6 -9 -14 -1 -48 2 -74 6
-42 5 -49 10 -62 41 -13 32 -13 36 6 56 12 12 21 30 21 39 0 10 15 23 34 31
18 8 37 19 40 25 13 20 31 10 106 -59z m349 59 c17 -6 31 -16 31 -22 0 -7 9
-23 20 -37 22 -28 26 -81 9 -129 -17 -47 -38 -54 -125 -40 -69 11 -74 13 -74
37 0 14 -7 30 -16 37 -15 10 -13 16 17 51 l33 39 -32 -29 c-48 -44 -48 -26 0
29 34 38 61 58 104 75 1 0 15 -5 33 -11z m3636 -91 c135 -3 156 -6 200 -28 64
-33 95 -88 95 -172 l0 -58 -47 -30 c-84 -54 -148 -72 -271 -78 -151 -7 -239 9
-278 49 -15 16 -25 32 -21 35 3 3 37 -1 76 -10 114 -26 199 -19 223 18 15 22
8 93 -10 116 -32 39 -110 39 -210 0 -46 -18 -86 -29 -89 -26 -3 3 7 25 23 48
40 60 52 84 64 128 l10 38 43 -13 c23 -7 110 -14 192 -17z m-584 -41 c19 -12
57 -45 83 -74 47 -51 47 -52 30 -77 -14 -23 -21 -26 -53 -20 -55 9 -125 30
-159 48 -53 27 -68 81 -34 122 32 40 69 40 133 1z m-161 -55 c0 -57 38 -84
164 -117 44 -11 81 -25 83 -30 2 -6 -27 -20 -63 -33 -86 -30 -140 -67 -153
-103 -12 -35 -6 -55 27 -91 20 -22 35 -28 69 -28 51 0 95 34 150 117 19 30 41
52 47 50 6 -2 14 -34 18 -70 13 -132 71 -201 149 -178 74 22 89 86 39 164
l-30 48 53 -8 c162 -24 331 3 439 69 l50 31 42 -20 c107 -53 186 -167 186
-269 0 -29 -5 -65 -11 -80 l-10 -28 -24 31 c-51 64 -123 47 -210 -50 -30 -33
-55 -64 -55 -69 0 -4 -4 -8 -8 -8 -4 0 -8 49 -8 108 1 118 -11 152 -59 174
-42 19 -103 -6 -121 -49 -13 -31 -13 -40 0 -80 8 -24 34 -72 56 -105 22 -34
38 -63 36 -65 -2 -3 -45 9 -94 26 -49 17 -101 31 -116 31 -40 0 -85 -27 -92
-55 -3 -14 -11 -25 -18 -25 -17 0 -134 29 -209 51 l-68 20 26 30 c32 39 32 79
-1 118 -44 53 -119 39 -182 -34 -31 -35 -32 -35 -62 -20 -24 12 -30 22 -30 48
0 54 -19 105 -48 127 -49 39 -142 9 -142 -47 0 -17 -6 -23 -22 -23 -32 0 -41
9 -63 60 -39 89 -19 225 45 307 44 56 141 111 198 113 19 0 22 -5 22 -38z
m-3210 -37 c0 -2 -15 -12 -32 -21 -18 -9 -69 -40 -113 -69 -44 -28 -101 -59
-127 -69 -50 -18 -121 -69 -111 -79 3 -4 20 5 37 20 38 32 93 56 112 49 9 -4
14 -22 15 -53 1 -71 9 -85 62 -98 59 -15 60 -14 127 95 29 47 55 87 57 90 3 3
1 -24 -3 -60 -7 -67 -13 -85 -21 -62 -4 9 -12 5 -29 -13 -13 -14 -24 -30 -24
-36 0 -16 26 -10 45 11 17 18 20 19 36 5 25 -23 114 -55 152 -55 53 1 107 58
107 113 0 28 13 36 26 15 25 -40 -12 -131 -69 -167 -24 -16 -28 -21 -13 -21
27 0 92 72 100 110 11 56 7 72 -26 109 -28 31 -97 124 -105 141 -5 10 133 9
165 -1 37 -12 41 -30 11 -60 -18 -18 -20 -25 -10 -40 6 -10 11 -33 11 -51 0
-49 20 -111 41 -131 10 -10 19 -22 19 -27 0 -15 -106 -49 -202 -66 -103 -18
-180 -13 -272 18 -67 22 -87 17 -30 -7 116 -48 283 -47 437 5 90 30 99 31 115
17 25 -23 87 -47 157 -61 71 -15 79 -32 40 -89 -14 -21 -25 -40 -25 -42 0 -11
35 -4 51 11 11 10 19 12 23 5 24 -39 -182 -67 -432 -58 -239 8 -396 48 -469
119 -36 35 -41 62 -18 94 17 26 7 41 -11 16 -23 -30 -17 -90 11 -118 97 -97
385 -149 690 -124 228 19 209 21 219 -21 13 -51 1 -86 -37 -110 -29 -19 -43
-20 -172 -15 -77 3 -158 10 -180 15 -22 5 -62 12 -88 16 -35 5 -47 10 -43 20
2 7 -3 19 -11 27 -14 11 -16 11 -10 -4 10 -28 -9 -31 -83 -14 -258 59 -435
155 -453 246 -13 61 12 87 133 139 22 10 20 11 -15 5 -83 -12 -135 -57 -135
-116 0 -73 51 -133 158 -187 141 -70 435 -142 647 -158 111 -8 125 -15 125
-56 0 -42 -32 -85 -76 -103 -109 -45 -542 28 -766 129 -31 14 -59 30 -62 36
-4 5 3 25 15 45 19 32 19 56 1 56 -11 0 -31 -50 -26 -65 3 -7 1 -16 -5 -20 -7
-3 -8 0 -5 9 4 10 0 13 -13 10 -24 -7 -109 77 -134 131 -27 59 -25 147 6 213
29 63 30 69 10 52 -24 -20 -55 -117 -55 -173 0 -204 284 -375 719 -432 57 -8
105 -16 108 -18 2 -3 -10 -17 -28 -31 -30 -26 -35 -27 -113 -21 -198 15 -385
63 -520 133 -114 58 -186 128 -228 219 -29 61 -32 77 -31 163 0 154 43 259
144 356 100 95 272 157 452 163 26 0 47 -1 47 -4z m3905 -30 c17 -16 25 -35
25 -59 0 -73 -81 -94 -220 -58 -61 17 -65 20 -68 48 -3 29 1 33 55 57 101 44
172 49 208 12z m-3875 -5 c11 -11 20 -24 20 -28 0 -5 -34 -64 -76 -131 l-76
-122 -41 6 c-23 4 -46 11 -51 15 -4 5 -10 37 -13 72 -4 53 -2 66 13 80 26 22
187 128 197 128 4 0 16 -9 27 -20z m216 -95 c23 -33 34 -61 34 -84 0 -43 -44
-109 -78 -118 -30 -7 -121 20 -153 46 -22 18 -23 20 -10 102 16 108 21 129 32
129 5 0 10 -44 11 -97 l2 -98 5 95 c5 77 9 95 22 95 8 0 24 8 34 19 18 18 19
18 43 -10 13 -16 39 -51 58 -79z m3359 70 c29 -28 31 -45 10 -85 -23 -45 -99
-49 -127 -6 -27 41 16 116 67 116 14 0 37 -11 50 -25z m-122 -101 c24 -33 13
-63 -51 -134 -38 -42 -54 -52 -87 -56 -33 -5 -45 -1 -67 21 -46 42 -35 100 25
132 38 21 138 62 152 62 6 0 18 -11 28 -25z m201 -74 c89 -97 96 -159 22 -194
-33 -15 -38 -15 -67 -1 -39 21 -68 84 -75 167 -6 59 -5 64 17 74 39 19 45 16
103 -46z m-519 -114 c30 -30 45 -84 45 -168 0 -64 -1 -66 -30 -76 -28 -10 -31
-9 -74 49 -74 99 -85 173 -28 203 38 21 59 19 87 -8z m941 -30 c25 -21 28 -31
33 -107 8 -120 5 -136 -27 -142 -33 -7 -48 7 -96 87 -51 85 -48 143 9 174 31
17 51 14 81 -12z m-1506 -8 c0 -2 -21 -106 -47 -233 -25 -126 -48 -254 -50
-282 -5 -51 -23 -76 -23 -30 0 18 44 312 76 505 5 32 11 42 25 42 11 0 19 -1
19 -2z m-58 -13 c2 -3 -5 -62 -17 -132 -12 -71 -25 -155 -29 -188 -4 -33 -14
-98 -22 -144 -8 -46 -14 -85 -14 -87 0 -2 -8 -4 -18 -4 -10 0 -34 19 -52 41
-18 23 -52 50 -76 60 -40 18 -42 22 -38 52 3 17 11 88 19 157 12 112 16 127
37 139 13 8 43 36 68 62 40 42 50 47 91 48 25 1 48 -1 51 -4z m443 -16 c34 -9
45 -17 50 -37 6 -23 37 -71 87 -134 12 -15 19 -30 15 -34 -3 -3 -34 4 -69 16
-35 12 -89 24 -120 27 -53 5 -59 4 -87 -25 -35 -34 -39 -67 -16 -112 28 -54
101 -59 224 -15 75 26 78 19 22 -51 -21 -27 -46 -63 -55 -81 -19 -38 -21 -104
-3 -122 21 -23 -29 -4 -151 55 -179 88 -272 192 -272 307 0 52 22 102 63 141
65 62 207 91 312 65z m-1087 -41 c13 -15 33 -28 44 -28 16 0 19 -4 14 -22 -4
-13 -9 -75 -12 -138 -7 -162 -13 -200 -29 -200 -33 0 -125 -43 -163 -76 -29
-24 -43 -31 -46 -22 -2 7 -7 81 -10 163 -3 83 -8 170 -12 195 -6 45 -6 45 42
75 26 17 66 44 88 62 43 34 48 34 84 -9z m1582 0 c31 -34 36 -66 13 -96 -23
-31 -90 -67 -156 -83 -45 -10 -51 -10 -69 9 l-21 21 31 48 c72 111 154 152
202 101z m940 -56 c27 -33 25 -74 -4 -101 -28 -26 -104 -56 -167 -66 -41 -6
-46 -5 -56 18 -10 22 -8 31 16 64 16 22 47 56 71 76 61 52 104 55 140 9z
m-3130 -4 c40 -39 36 -48 -60 -152 -69 -75 -72 -79 -68 -122 2 -29 -1 -44 -9
-44 -12 0 -17 32 -28 182 l-7 77 43 45 c53 57 84 60 129 14z m775 -28 c22 -4
35 -14 48 -42 21 -42 51 -144 60 -203 l6 -40 -116 0 -116 0 6 145 c3 80 9 153
12 162 7 17 9 17 38 0 18 -9 46 -19 62 -22z m-1277 -11 c26 -23 56 -44 66 -48
11 -5 20 -19 22 -37 7 -77 16 -139 35 -252 l21 -123 -38 -34 c-22 -19 -44 -34
-49 -35 -6 0 -19 58 -29 133 -18 131 -57 342 -75 405 -5 17 -7 32 -4 32 3 0
26 -19 51 -41z m1490 -71 c-19 -242 -31 -265 -67 -120 -12 48 -33 111 -46 140
-13 28 -23 52 -22 53 7 4 133 24 137 23 3 -2 2 -45 -2 -96z m-827 50 c4 -7 10
-46 14 -88 10 -124 14 -132 9 -19 l-4 107 78 5 c42 2 86 8 98 12 19 6 22 2 28
-37 3 -24 9 -117 13 -209 5 -153 4 -169 -16 -222 -11 -32 -21 -70 -21 -85 0
-58 -76 -67 -87 -10 -4 22 -14 34 -35 42 -26 10 -28 15 -30 66 -1 53 -2 53 -5
10 -6 -72 -8 -75 -47 -51 -18 12 -40 21 -49 21 -9 0 -17 14 -22 37 -15 79 -64
134 -138 154 -48 13 -57 22 -57 62 0 20 17 45 70 100 39 39 79 85 88 100 16
27 20 28 61 23 25 -3 48 -12 52 -18z m-337 -90 c4 -40 9 -94 12 -120 6 -47 6
-48 -33 -65 -44 -21 -59 -37 -93 -107 -43 -86 -53 -76 -79 79 -12 75 -25 165
-28 200 -6 61 -5 64 15 58 22 -5 22 -3 58 -198 9 -49 21 -97 26 -105 7 -12 8
-10 4 5 -2 11 -14 72 -25 135 -12 63 -24 125 -26 138 -5 20 -2 22 34 22 36 0
39 -2 44 -32 8 -45 21 -181 19 -190 -1 -5 2 -8 8 -8 5 0 7 17 5 38 -3 20 -9
73 -14 117 -5 44 -6 81 -3 83 4 1 18 8 32 16 14 7 28 11 31 9 4 -1 10 -36 13
-75z m1926 56 c81 -25 81 -25 78 -57 -3 -29 -8 -34 -63 -54 -68 -25 -151 -29
-178 -9 -9 7 -22 27 -28 45 -9 25 -8 36 6 57 32 50 73 54 185 18z m1533 15
c161 -45 139 -241 -39 -345 -160 -94 -471 -153 -804 -154 -232 0 -430 22 -556
61 l-31 10 28 30 c30 33 49 100 49 179 0 38 4 50 15 50 8 0 15 -4 15 -9 0 -18
82 -112 113 -132 43 -26 88 -25 115 4 76 80 27 156 -131 202 -31 9 -57 22 -57
28 0 7 38 22 83 35 l83 23 90 -26 c49 -14 117 -31 152 -38 46 -9 62 -16 62
-28 0 -9 9 -28 20 -42 36 -45 93 -46 248 -1 34 10 27 -12 -22 -67 -109 -121
-100 -229 19 -229 67 0 94 44 104 170 4 45 10 75 17 75 6 0 31 -29 56 -65 71
-104 135 -134 191 -90 28 22 43 74 32 109 -10 32 -66 70 -142 96 -82 29 -93
50 -30 58 71 10 154 46 179 77 26 32 72 39 141 19z m-1326 -31 c14 -13 23 -33
23 -50 0 -33 -39 -78 -67 -78 -32 0 -62 29 -69 66 -13 68 62 110 113 62z m654
11 c53 -11 135 -44 143 -57 2 -4 2 -19 -1 -34 -4 -22 -14 -28 -62 -42 -32 -9
-81 -16 -110 -16 -43 0 -56 4 -76 26 -14 15 -25 39 -25 53 0 31 27 67 55 74
11 3 21 5 22 6 1 0 25 -4 54 -10z m273 -50 c14 -17 26 -34 26 -39 0 -26 -23
-61 -48 -74 -26 -13 -31 -13 -60 4 -27 17 -32 26 -32 59 0 31 6 44 26 60 37
29 58 26 88 -10z m-3405 -73 c14 -76 14 -125 0 -165 -9 -26 -14 -29 -26 -20
-10 9 -17 9 -25 1 -14 -14 -1 -33 17 -25 22 8 18 -5 -11 -46 -70 -96 -207
-184 -336 -215 -22 -5 -25 -3 -21 14 4 13 -1 22 -13 27 -11 3 -30 18 -44 32
l-25 26 -3 -22 c-2 -13 8 -37 23 -57 l25 -33 -75 -12 c-210 -31 -462 6 -637
95 -60 30 -148 94 -148 107 0 5 7 4 15 -3 18 -15 35 -5 35 21 0 24 -17 25 -42
2 -18 -16 -20 -16 -43 12 -35 42 -82 125 -90 158 -8 32 11 111 31 128 9 7 14
8 14 1 0 -6 18 -33 39 -60 52 -66 168 -142 276 -181 109 -39 301 -78 427 -87
l97 -7 37 37 c35 35 37 36 115 36 129 0 189 40 189 126 l0 43 57 7 c76 9 113
43 113 106 1 56 14 34 29 -46z m2649 -3 c84 -44 104 -101 52 -153 -42 -42
-104 -13 -178 82 l-44 57 18 26 c16 22 25 25 58 21 22 -2 64 -17 94 -33z
m-788 -2 c0 -19 86 -103 149 -145 130 -87 318 -151 576 -197 139 -25 472 -34
615 -18 205 24 446 85 552 141 64 34 141 106 158 149 15 36 23 36 49 0 35 -49
42 -77 30 -131 -40 -187 -344 -285 -994 -320 -104 -6 -248 -8 -320 -6 -71 3
-114 2 -95 -2 l35 -7 13 -122 14 -122 -29 -35 c-15 -20 -31 -32 -34 -28 -7 7
-41 232 -44 292 l-1 34 -99 13 c-103 13 -275 49 -311 65 -12 6 -31 27 -43 48
-47 84 -150 149 -264 166 -23 4 -47 11 -53 16 -18 14 -24 62 -12 104 14 53
108 144 108 105z m553 -18 c14 -4 17 -17 17 -74 0 -75 -22 -144 -51 -159 -50
-27 -119 8 -119 60 0 54 92 195 120 184 8 -3 23 -9 33 -11z m1133 -17 c107
-51 128 -103 68 -163 -45 -44 -103 -15 -171 87 -41 61 -42 63 -25 86 23 32 45
30 128 -10z m-199 -101 c-8 -107 -37 -155 -94 -155 -39 0 -83 37 -83 70 0 36
26 83 74 137 l46 51 32 -15 31 -16 -6 -72z m-1977 37 c0 -4 -16 -16 -36 -27
-42 -22 -89 -99 -100 -159 -4 -23 -15 -47 -25 -54 -24 -17 -49 -64 -49 -93 0
-38 40 -89 89 -113 50 -26 146 -42 180 -31 36 11 23 23 -18 18 -173 -23 -306
125 -189 209 39 27 101 39 213 39 200 0 375 -86 375 -184 0 -45 -69 -110 -155
-146 -123 -51 -188 -65 -315 -64 -144 1 -204 17 -208 56 -4 34 -38 60 -61 46
-23 -15 -85 14 -114 53 -46 62 -60 100 -60 168 -1 137 99 236 276 275 68 15
197 20 197 7z m-908 -12 c41 -12 92 -50 110 -84 16 -29 28 -97 22 -122 -7 -29
-48 -46 -93 -38 -20 4 -70 22 -111 41 -41 20 -92 38 -113 41 -21 3 -41 11 -44
18 -7 19 24 78 59 110 l32 29 -32 -44 c-35 -49 -38 -63 -19 -79 10 -9 22 -2
50 28 29 32 44 40 71 40 23 0 36 6 40 17 10 26 -22 45 -64 39 -26 -4 -30 -3
-15 4 27 12 63 12 107 0z m1090 -16 c54 -28 108 -118 108 -183 0 -25 2 -24
-40 -9 -31 10 -32 12 -12 19 59 22 -14 119 -89 119 -59 0 -64 -62 -8 -98 l29
-18 -82 0 c-46 1 -113 -3 -150 -7 l-66 -8 9 43 c18 78 69 138 132 153 23 6 27
4 27 -14 0 -17 6 -21 30 -21 25 0 30 4 30 25 0 23 3 25 28 19 15 -4 39 -13 54
-20z m-2879 -156 c70 -68 140 -114 236 -153 l79 -31 -33 -27 c-42 -34 -45 -34
-45 2 0 44 -24 59 -61 37 l-29 -17 -17 35 c-19 41 -24 42 -58 20 -29 -19 -31
-13 -9 20 20 32 5 40 -41 20 -20 -8 -39 -14 -40 -12 -2 2 -7 19 -12 38 -6 24
-16 36 -30 38 -27 4 -41 40 -48 127 l-6 70 31 -58 c17 -32 54 -81 83 -109z
m1353 120 c-3 -13 -7 -39 -11 -59 -4 -26 -12 -38 -26 -42 -15 -4 -19 -11 -15
-31 4 -22 1 -26 -20 -26 -20 0 -24 -5 -24 -31 0 -28 -2 -31 -26 -26 -23 4 -28
-1 -46 -40 l-20 -45 -23 22 c-28 27 -41 20 -62 -31 -8 -21 -18 -39 -22 -39 -3
0 -13 12 -21 27 l-16 28 78 38 c91 46 184 131 216 199 12 26 22 55 22 63 0 8
5 15 10 15 6 0 8 -10 6 -22z m1878 -98 c152 -58 233 -213 177 -337 -47 -102
-156 -182 -351 -256 -122 -46 -212 -72 -328 -92 l-92 -17 -44 40 c-24 22 -52
45 -63 51 -16 8 -22 23 -25 73 -3 35 -9 71 -13 81 -7 16 -3 17 36 10 83 -15
259 -9 334 11 101 28 204 79 249 125 32 33 39 47 39 79 0 53 -32 96 -93 127
-43 22 -50 30 -55 62 -4 21 -9 46 -12 57 -5 17 1 18 88 14 65 -3 113 -12 153
-28z m-1670 -45 c-4 -24 -2 -25 43 -25 27 0 85 -9 131 -20 132 -32 173 -27
198 21 16 32 35 37 54 14 9 -10 9 -15 1 -15 -18 0 -13 -22 11 -47 20 -21 48
-31 48 -17 0 14 -22 44 -32 44 -6 0 -3 -10 8 -22 l19 -22 -24 15 c-14 9 -27
22 -29 29 -3 7 0 10 6 6 6 -3 13 -2 16 3 6 9 63 0 85 -13 6 -4 11 -18 11 -30
0 -13 10 -30 22 -38 31 -21 30 -79 -2 -112 -48 -52 -92 -60 -288 -50 -290 15
-410 12 -457 -11 -69 -34 -73 -92 -9 -125 l29 -15 -45 -3 c-180 -14 -305 56
-278 155 18 66 72 100 173 110 47 4 65 10 65 20 0 49 71 103 153 118 31 5 42
3 51 -11 7 -9 18 -14 24 -10 19 11 14 26 -5 19 -17 -6 -17 -6 0 11 10 10 15
21 12 24 -3 3 -11 0 -17 -6 -7 -7 -28 -12 -47 -12 l-36 1 24 19 c13 11 38 20
56 20 30 0 33 -2 29 -25z m-1664 -10 c0 -22 3 -24 30 -18 22 4 30 2 31 -8 4
-72 10 -77 54 -56 l34 16 -6 -31 c-7 -34 -11 -33 57 -12 14 4 20 2 20 -8 0 -8
6 -23 14 -34 14 -18 16 -18 45 -1 29 17 30 17 42 -4 9 -19 9 -25 -6 -35 -15
-11 -16 -21 -8 -82 14 -111 -1 -180 -27 -119 -5 12 -21 67 -36 122 -14 55 -32
111 -40 125 l-13 25 -1 -24 c0 -13 5 -52 12 -87 6 -35 8 -67 4 -71 -13 -13
-43 33 -71 107 -30 79 -52 95 -30 23 17 -56 18 -63 7 -63 -5 0 -22 32 -37 71
-16 38 -32 72 -37 75 -12 8 -10 -8 12 -71 11 -32 19 -60 17 -61 -2 -2 -12 13
-22 34 -11 20 -39 68 -63 106 -57 90 -58 94 -30 99 44 8 48 7 48 -18z m1244
-144 c17 -19 17 -20 -13 -35 -32 -17 -53 -50 -65 -101 -8 -31 -33 -65 -48 -65
-5 0 -6 22 -2 49 9 69 -11 76 -30 9 -8 -29 -18 -66 -22 -83 -4 -16 -15 -41
-26 -54 -17 -22 -26 -53 -11 -38 3 4 12 2 20 -4 20 -17 51 16 55 59 2 24 11
41 30 55 l27 20 33 -36 c25 -26 51 -41 96 -53 57 -16 61 -19 47 -34 -18 -20
-20 -40 -2 -40 16 1 57 35 57 49 0 7 26 11 70 11 65 0 71 2 80 24 13 35 23 38
101 30 67 -6 70 -8 65 -29 -4 -14 2 -32 15 -49 20 -25 49 -35 49 -17 0 5 -8 8
-17 7 -19 -1 -45 42 -36 58 4 5 11 -2 16 -17 5 -15 14 -27 20 -27 8 0 7 4 -1
12 -7 7 -12 20 -12 31 0 15 6 17 43 13 23 -2 70 -5 105 -5 55 -1 62 -3 62 -21
0 -25 18 -26 44 -1 14 12 42 21 81 25 166 16 241 41 283 92 26 31 30 33 64 24
56 -16 103 -52 103 -80 0 -19 5 -25 21 -23 26 3 43 -31 51 -97 12 -99 -61
-174 -187 -193 -59 -10 -70 -15 -67 -29 7 -27 -31 -78 -71 -95 -54 -23 -131
-20 -186 7 -46 22 -48 22 -61 4 -8 -11 -15 -23 -15 -27 0 -4 -24 -19 -52 -32
-85 -40 -176 -32 -258 21 l-35 23 -60 -20 c-94 -33 -167 -13 -226 60 l-31 40
-30 -22 c-45 -33 -179 -37 -237 -8 -87 45 -113 154 -65 275 4 12 4 17 -2 13
-6 -3 -7 19 -2 61 10 94 10 202 -1 202 -14 0 -20 -24 -36 -148 -14 -111 -38
-192 -57 -192 -10 0 -10 5 -8 173 1 87 -2 137 -8 137 -16 0 -22 -29 -36 -163
-13 -119 -36 -194 -56 -182 -6 4 -10 66 -10 141 0 74 -3 134 -7 134 -5 0 -8
-64 -8 -142 0 -104 -3 -142 -12 -145 -10 -4 -13 24 -12 119 0 104 14 250 18
196 0 -10 6 -18 12 -18 11 0 3 38 -11 54 -15 16 -30 -68 -30 -170 0 -86 -3
-106 -19 -125 l-19 -24 -11 28 c-6 16 -11 56 -11 90 -1 69 -17 207 -25 216
-16 15 -25 -36 -25 -144 -1 -91 -4 -125 -16 -140 -26 -34 -32 -16 -55 157 -21
165 -60 152 -56 -20 1 -55 -1 -104 -6 -108 -16 -17 -35 25 -51 113 -21 116
-33 150 -48 135 -8 -8 -8 -33 1 -95 17 -113 1 -174 -29 -109 -9 20 -49 186
-50 210 0 1 7 2 16 2 9 0 27 12 41 26 29 31 45 27 50 -12 7 -47 20 -51 56 -16
18 18 36 32 40 32 3 0 13 -13 22 -30 19 -37 34 -38 65 -5 32 34 46 32 75 -16
30 -46 43 -47 59 0 15 44 27 42 50 -8 11 -22 25 -41 33 -41 7 0 22 18 33 40
24 47 34 49 56 15 22 -34 32 -32 50 15 19 48 38 51 59 10 22 -43 41 -37 54 15
13 53 25 56 46 15 9 -16 20 -30 25 -30 6 0 20 20 32 45 12 25 25 45 28 45 4 0
15 -9 24 -19z m2364 -45 c73 -67 102 -165 77 -261 -25 -94 -58 -142 -105 -155
-25 -7 -48 -22 -62 -40 -12 -17 -31 -30 -42 -30 -34 -1 -104 -37 -134 -69 -23
-25 -43 -33 -128 -50 -55 -11 -140 -23 -190 -26 -49 -3 -117 -7 -151 -10 -65
-4 -73 1 -73 49 0 12 -11 45 -25 71 -13 27 -23 50 -22 51 1 1 54 12 117 24
308 60 556 185 638 320 27 46 32 64 32 118 0 72 -2 72 68 8z m126 3 c8 -7 94
-389 109 -482 6 -36 5 -37 -21 -31 -15 4 -30 9 -33 13 -8 8 -76 285 -84 341
-3 24 -15 64 -25 88 -11 25 -20 55 -20 68 0 21 3 23 33 17 17 -3 36 -9 41 -14z
m-1393 -18 c16 -16 29 -38 29 -49 0 -26 -35 -69 -70 -87 -68 -35 -264 -59
-272 -33 -3 7 -13 5 -31 -7 -26 -17 -38 -17 -170 -6 -302 26 -272 26 -289 2
-18 -26 -56 -21 -84 10 -37 40 28 99 108 99 l33 -1 -35 -29 c-29 -24 -32 -30
-18 -35 24 -9 81 34 67 51 -18 22 6 25 126 18 101 -6 115 -9 115 -25 0 -22 37
-49 67 -49 37 0 36 19 -3 35 -20 8 -35 18 -32 20 3 3 68 6 144 8 155 2 191 14
229 75 25 39 48 40 86 3z m1495 4 c7 -2 15 -28 19 -57 4 -29 23 -132 41 -228
l34 -174 -26 -39 c-14 -21 -28 -36 -32 -33 -3 4 -20 77 -38 164 -17 86 -41
203 -53 260 -11 57 -21 108 -21 112 0 8 42 5 76 -5z m135 -180 l27 -170 -25
-44 c-18 -31 -28 -40 -33 -30 -6 12 -56 266 -75 382 l-6 38 43 -3 43 -3 26
-170z m924 153 c148 -24 326 -118 422 -222 75 -81 88 -98 147 -198 49 -85 65
-102 145 -162 89 -68 111 -96 111 -141 0 -54 -29 -84 -150 -157 -14 -9 -66
-76 -115 -149 -129 -193 -214 -274 -358 -339 -106 -47 -178 -60 -345 -60 -84
0 -152 3 -152 7 0 3 7 45 16 92 16 87 16 305 -1 343 -7 17 -34 18 -349 19
-187 1 -358 1 -379 0 -30 -2 -36 0 -31 13 7 18 20 21 29 6 3 -5 11 -10 17 -10
20 0 -14 29 -101 86 -110 73 -131 92 -131 121 0 40 16 58 99 116 70 49 87 69
157 174 83 124 168 231 218 273 201 170 465 236 751 188z m-740 -74 l7 -76
-33 -34 c-18 -19 -36 -34 -40 -34 -4 0 -9 25 -13 55 -3 30 -9 80 -12 110 l-6
55 45 0 45 0 7 -76z m-3915 -104 c7 -36 28 -129 46 -207 31 -129 34 -173 15
-173 -14 0 -80 77 -100 117 -21 41 -77 260 -69 268 2 3 12 -21 21 -53 9 -31
25 -89 37 -129 24 -84 47 -111 36 -42 -4 24 -9 55 -12 69 -6 37 33 -77 47
-133 15 -62 34 -75 24 -16 -9 55 -47 200 -79 301 -22 69 -22 77 -8 80 22 5 27
-4 42 -82z m407 -165 c20 -14 63 -75 63 -89 0 -4 -13 0 -30 9 -42 22 -50 19
-50 -20 0 -38 -15 -47 -25 -15 -3 11 -10 20 -14 20 -15 0 -53 -49 -66 -87
l-13 -38 -12 30 c-9 23 -13 26 -20 15 -7 -11 -10 -8 -10 13 0 16 -4 26 -10 22
-5 -3 -10 -2 -10 4 0 5 5 13 10 16 6 4 10 14 9 23 -4 49 25 66 53 30 18 -23
18 -23 34 -3 10 13 14 32 10 53 -5 30 -3 32 27 32 18 0 42 -7 54 -15z m2037
-46 c32 -29 66 -73 82 -105 24 -49 26 -63 21 -128 -3 -41 -12 -87 -21 -104
-22 -43 -74 -71 -145 -78 -46 -5 -66 -12 -76 -27 -10 -15 -24 -20 -50 -19 -21
1 -33 -3 -30 -8 3 -6 14 -10 24 -10 15 0 12 -21 -32 -199 l-49 -199 -71 -20
c-58 -17 -175 -42 -195 -42 -7 0 5 105 30 263 20 132 22 138 42 133 11 -4 49
-9 84 -13 58 -5 63 -8 58 -27 -15 -59 -36 -204 -35 -240 0 -24 8 6 19 74 9 63
23 134 29 158 15 55 49 112 67 112 8 0 14 5 14 10 0 24 -32 7 -54 -29 -38 -60
-60 -61 -271 -10 -115 27 -196 22 -264 -18 -69 -40 -155 -39 -236 5 -69 37
-125 42 -168 13 -25 -16 -66 -72 -109 -150 -33 -59 -70 -50 -89 23 -15 58 -55
116 -88 127 -26 9 -58 55 -47 67 3 2 31 -10 63 -27 51 -28 55 -29 28 -7 -16
14 -43 31 -60 37 -78 29 -74 24 -62 67 9 33 8 43 -6 56 -26 26 -45 19 -53 -19
-3 -19 -10 -38 -15 -41 -12 -7 -48 20 -70 53 -11 15 -19 22 -19 14 0 -8 18
-31 40 -52 l41 -39 -43 3 c-36 3 -45 8 -62 37 -29 49 -27 144 5 205 28 56 79
99 87 75 12 -36 73 -79 128 -90 62 -13 160 -1 199 24 20 13 23 12 48 -19 33
-41 101 -75 152 -75 21 0 61 7 90 16 l51 17 45 -28 c88 -56 245 -43 310 26
l25 27 61 -21 c55 -19 67 -20 118 -10 72 16 112 44 126 92 11 37 13 39 66 45
72 8 128 38 161 86 15 22 32 39 39 40 6 0 36 -23 67 -51z m-1865 -10 c55 -31
92 -110 70 -151 -7 -13 -14 -54 -15 -93 -3 -98 -5 -101 -74 -108 -140 -15
-223 -92 -239 -221 -3 -28 -10 -51 -16 -50 -5 0 -19 16 -30 34 -11 19 -55 69
-97 112 -42 42 -86 95 -98 117 -40 79 -18 198 51 272 48 52 71 52 63 1 -7 -42
16 -78 42 -68 8 3 18 -4 24 -14 16 -30 27 -24 34 19 3 22 17 52 30 67 l23 28
18 -34 c15 -29 19 -31 27 -16 5 9 10 30 10 46 1 35 15 38 52 9 36 -28 43 -18
23 31 l-15 40 40 0 c22 0 57 -9 77 -21z m2801 -24 c0 -25 6 -37 21 -46 22 -12
39 0 39 29 0 15 6 15 31 2 10 -6 19 -15 19 -21 0 -6 9 -24 21 -40 17 -24 18
-28 3 -22 -14 5 -15 3 -4 -16 13 -25 4 -44 -10 -21 -8 12 -10 10 -10 -7 0 -35
-18 -36 -35 -3 -16 32 -72 73 -87 64 -4 -3 -8 -16 -8 -30 0 -35 -18 -20 -26
21 -8 42 -13 43 -53 9 -35 -29 -40 -18 -16 39 17 42 59 77 91 77 21 0 24 -5
24 -35z m-138 -85 c-2 -27 -1 -50 2 -50 4 0 19 14 33 30 25 30 43 38 43 20 0
-6 7 -27 15 -48 13 -29 18 -34 25 -22 5 8 10 25 10 38 0 12 2 22 5 22 20 0 60
-40 80 -79 l23 -46 11 28 c6 16 16 25 21 22 6 -3 17 1 26 10 16 15 16 49 -1
88 -5 13 -2 17 13 17 24 0 82 -31 82 -44 0 -14 -75 -82 -140 -126 -48 -33 -60
-47 -66 -76 -10 -54 7 -78 101 -140 47 -31 85 -61 85 -68 0 -31 -25 -36 -168
-36 l-145 0 -94 86 c-52 48 -100 99 -108 115 -9 17 -15 57 -15 104 0 128 45
184 161 204 3 1 4 -21 1 -49z m-252 -150 l0 -80 -46 0 c-25 0 -54 -5 -66 -11
-11 -6 -23 -8 -26 -4 -4 4 -7 39 -8 78 l0 72 65 11 c36 6 69 12 74 13 4 0 7
-35 7 -79z m-159 -7 c2 -77 1 -114 -3 -118 -2 -2 -25 -5 -51 -7 -49 -3 -49 -3
-65 37 -8 22 -21 44 -29 48 -7 4 -13 25 -13 47 0 45 5 47 98 49 l62 1 1 -57z
m-171 2 c0 -25 -5 -54 -12 -64 -9 -15 -9 -28 2 -60 12 -39 12 -43 -9 -65 -18
-19 -22 -34 -20 -69 2 -25 -2 -52 -9 -59 -22 -27 -42 -88 -42 -128 0 -46 9
-68 53 -123 l29 -38 -63 3 -64 3 -7 85 c-3 47 -6 156 -7 242 -1 141 1 161 19
190 11 18 23 54 26 81 l7 47 48 0 49 0 0 -45z m380 -98 c21 -7 60 -39 96 -77
51 -54 64 -74 73 -118 18 -88 15 -117 -19 -150 -19 -20 -25 -32 -17 -35 9 -3
8 -15 -5 -50 -10 -29 -15 -60 -11 -82 3 -19 2 -35 -3 -35 -328 -8 -390 -7
-431 12 -49 22 -109 85 -130 136 -17 40 -12 96 13 143 18 35 27 36 43 6 7 -13
22 -29 33 -36 19 -12 20 -11 14 13 -9 35 3 79 18 68 6 -5 26 -14 44 -20 36
-12 40 -4 16 33 -15 23 -15 24 10 31 25 6 47 4 109 -12 l27 -6 -14 33 c-8 19
-22 36 -33 38 -17 3 -17 2 0 -16 9 -11 17 -21 17 -24 0 -2 -31 -4 -69 -4 -38
0 -73 -3 -77 -7 -4 -5 1 -17 11 -28 22 -24 4 -27 -37 -6 -31 16 -38 7 -38 -47
l0 -32 -21 35 c-32 51 -35 109 -8 140 l21 25 15 -22 c10 -15 26 -23 44 -23 32
0 47 16 30 33 -6 6 -11 17 -11 23 0 17 40 28 53 15 6 -6 25 -11 42 -12 16 0
24 -3 18 -6 -18 -7 -16 -23 2 -23 8 0 24 -10 35 -22 l21 -23 -7 30 c-9 39 -21
53 -46 57 -65 9 12 57 92 57 25 0 61 -6 80 -12z m-2402 -13 c34 -14 35 -17 19
-27 -43 -27 -50 -35 -52 -60 -2 -15 1 -27 7 -27 5 0 7 -12 3 -30 -4 -16 -5
-30 -2 -30 2 0 25 9 50 20 29 13 56 18 71 14 24 -6 25 -7 11 -34 -19 -37 -10
-43 36 -20 21 11 41 20 44 20 3 0 5 -21 5 -46 0 -39 2 -44 14 -35 8 6 19 25
26 41 7 17 16 30 21 30 4 0 20 -20 34 -43 35 -60 33 -110 -6 -173 -66 -105
-94 -122 -216 -129 -48 -3 -136 -13 -196 -22 -107 -17 -108 -17 -152 5 -31 15
-51 33 -62 56 -15 33 -15 37 6 94 12 33 26 97 30 143 9 97 29 151 73 196 31
32 92 58 153 66 17 2 34 5 38 6 4 0 24 -6 45 -15z m1862 -249 c0 -129 -3 -235
-7 -235 -4 0 -33 7 -65 16 -69 20 -65 6 -72 252 l-5 172 37 0 c20 1 51 7 67
15 17 7 33 14 38 14 4 1 7 -105 7 -234z m-1735 216 c3 -5 1 -12 -5 -16 -5 -3
-10 -15 -10 -26 0 -29 44 -25 69 7 l20 25 20 -20 c24 -24 29 -93 9 -136 -16
-35 -24 -31 -32 16 l-6 40 -31 -22 c-32 -23 -50 -19 -29 6 7 9 10 19 6 22 -10
10 -85 9 -121 -1 -25 -7 -28 -6 -17 5 18 20 15 40 -5 32 -16 -6 -16 -5 -4 10
7 9 20 17 28 17 13 0 13 3 3 15 -11 13 -8 15 13 15 14 0 29 5 32 10 8 13 52
13 60 1z m1575 -58 c0 -21 3 -107 6 -190 6 -135 5 -153 -9 -153 -9 0 -27 10
-41 23 -21 18 -27 37 -36 105 -14 102 0 183 38 225 34 36 42 34 42 -10z
m-1029 -200 c3 -95 9 -176 13 -180 4 -4 4 73 0 170 -4 97 -5 177 -1 177 3 0
34 -13 69 -30 67 -32 125 -38 187 -20 19 5 36 8 38 7 1 -2 -2 -64 -7 -138 -5
-74 -5 -152 -1 -174 5 -28 9 9 14 130 4 94 8 176 9 183 5 42 112 60 225 36 43
-9 79 -17 81 -19 1 -1 -4 -41 -13 -89 -8 -48 -20 -138 -26 -201 l-12 -115 -36
-7 c-20 -4 -139 -8 -266 -7 -231 0 -328 9 -501 49 l-70 16 -26 77 c-15 42 -29
101 -31 130 -3 38 -13 65 -34 96 -33 46 -32 79 2 66 32 -12 54 -43 76 -106 26
-75 36 -87 70 -82 26 4 28 1 43 -58 9 -35 16 -72 16 -83 0 -11 5 -23 11 -26
12 -8 4 58 -16 140 -13 48 -12 50 23 115 41 75 94 122 132 118 l25 -3 6 -172z
m1995 77 l24 0 -29 -57 c-33 -68 -61 -158 -61 -202 0 -36 -1 -36 48 -16 20 8
29 9 18 2 -58 -38 -60 -41 -43 -74 35 -68 120 -116 195 -111 44 3 48 6 70 46
27 48 42 51 18 3 -26 -49 -22 -53 47 -45 101 11 270 78 311 123 19 21 19 22
-3 68 -28 57 -20 70 9 13 26 -51 39 -56 82 -34 48 25 180 162 222 233 l37 61
50 0 c55 0 59 -7 27 -53 -192 -280 -431 -460 -675 -507 -35 -7 -109 -11 -175
-8 -127 4 -179 21 -236 79 -47 46 -62 80 -69 152 -7 83 15 168 67 254 24 38
37 69 31 71 -6 2 -8 9 -4 15 5 8 8 8 11 -1 2 -7 15 -12 28 -12z m304 -1 c76
-16 77 -18 37 -45 -82 -55 -371 -224 -385 -224 -11 0 -13 8 -7 37 15 80 73
219 98 235 17 11 205 9 257 -3z m178 -2 c-11 -9 -14 -18 -7 -28 12 -20 11 -32
-3 -23 -11 7 8 -29 94 -176 21 -36 38 -70 38 -76 0 -16 -66 -58 -137 -88 -60
-25 -220 -62 -229 -53 -9 9 179 361 214 400 8 9 10 17 5 17 -16 0 -25 -15 -93
-143 -34 -65 -64 -116 -67 -113 -3 2 21 56 53 120 32 63 55 118 52 122 -4 3
-23 -4 -42 -16 -20 -12 -36 -19 -36 -17 0 3 16 15 35 27 41 25 43 33 13 48
-19 9 -9 11 52 11 63 0 72 -2 58 -12z m442 7 c0 -37 -122 -180 -213 -251 -45
-35 -61 -43 -70 -34 -14 14 -95 145 -132 214 l-26 48 33 14 c25 11 81 14 221
15 103 0 187 -3 187 -6z m146 -91 c22 -206 -36 -409 -150 -525 -107 -109 -235
-158 -426 -166 -149 -5 -254 16 -354 72 -63 36 -155 117 -194 174 -23 31 -16
46 8 17 6 -8 37 -24 68 -37 49 -19 75 -22 182 -22 106 1 138 5 215 28 213 65
402 208 571 433 30 39 54 76 54 82 0 6 4 11 9 11 5 0 13 -30 17 -67z m-731
-78 c-31 -59 -54 -114 -51 -123 3 -10 -4 -33 -14 -52 -11 -19 -19 -29 -20 -22
0 7 7 24 16 38 9 13 14 27 11 30 -3 3 -24 -31 -47 -76 l-41 -82 -57 4 c-67 5
-115 33 -156 90 -16 22 -27 41 -25 43 2 1 32 19 67 40 37 21 60 41 56 47 -4 7
-2 8 4 4 10 -6 38 8 158 80 20 12 34 24 32 27 -2 3 1 9 6 14 5 5 6 3 2 -4 -11
-20 1 -15 56 22 29 19 54 33 56 31 2 -2 -22 -52 -53 -111z m-2665 -84 c0 -5
-13 -11 -29 -14 -40 -8 -59 -42 -32 -56 154 -83 988 -99 1253 -24 85 23 99 51
40 75 -17 6 -22 12 -14 15 22 8 93 -28 90 -46 -7 -35 -148 -78 -313 -97 -33
-4 -69 -8 -80 -11 -11 -2 -135 -6 -275 -8 -271 -5 -412 6 -594 45 -189 41
-214 77 -86 123 24 9 40 8 40 -2z m28 -39 c41 -41 336 -82 584 -82 228 0 425
27 571 77 36 13 50 14 59 5 18 -18 2 -29 -67 -47 -244 -63 -980 -57 -1187 11
-51 17 -58 27 -30 43 26 16 50 13 70 -7z"/>
<path d="M2886 3747 c-31 -31 -71 -90 -101 -149 l-50 -98 -42 0 c-60 0 -121
-27 -139 -61 -27 -53 -28 -109 -2 -158 33 -63 67 -85 131 -85 109 1 207 90
207 189 0 45 -31 79 -89 96 -46 14 -46 18 -8 94 63 127 132 205 181 205 8 0
18 5 21 10 4 6 -7 10 -26 10 -26 0 -43 -10 -83 -53z m-162 -273 c5 -13 9 -14
20 -5 21 18 90 -4 115 -36 40 -49 22 -112 -48 -176 -36 -32 -92 -57 -130 -57
-30 0 -102 43 -115 69 -25 47 -24 65 4 66 21 0 25 4 22 25 -3 32 17 80 34 80
17 0 19 30 2 31 -25 1 28 18 58 18 21 1 34 -5 38 -15z"/>
</g>
</svg>
