<?xml version="1.0" standalone="no"?>
<!DOCTYPE svg PUBLIC "-//W3C//DTD SVG 20010904//EN"
 "http://www.w3.org/TR/2001/REC-SVG-20010904/DTD/svg10.dtd">
<svg version="1.0" xmlns="http://www.w3.org/2000/svg"
 width="650.000000pt" height="650.000000pt" viewBox="0 0 650.000000 650.000000"
 preserveAspectRatio="xMidYMid meet">
<metadata>
Created by potrace 1.16, written by Peter Selinger 2001-2019
</metadata>
<g transform="translate(0.000000,650.000000) scale(0.100000,-0.100000)"
fill="#000000" stroke="none">
<path d="M5512 6270 c-18 -29 -42 -137 -42 -191 0 -55 29 -91 58 -73 25 16 49
89 57 175 6 64 4 78 -10 92 -22 23 -47 21 -63 -3z m50 -1 c19 -10 20 -17 14
-82 -8 -86 -32 -166 -53 -174 -8 -3 -22 2 -31 10 -14 15 -15 27 -6 99 9 72 37
158 51 158 2 0 14 -5 25 -11z"/>
<path d="M2390 5746 c-29 -51 -34 -55 -78 -62 -90 -13 -91 -15 -39 -70 31 -33
45 -55 42 -69 -11 -56 -15 -95 -10 -95 3 0 21 6 40 14 18 8 35 12 37 10 11
-10 -64 -202 -132 -338 -65 -131 -78 -151 -97 -149 -14 2 -27 -5 -33 -17 -6
-11 -20 -20 -30 -20 -24 0 -26 -13 -5 -30 22 -19 0 -53 -94 -143 -77 -74 -102
-117 -66 -117 8 0 15 -4 15 -10 0 -5 -4 -10 -10 -10 -14 0 -40 -55 -40 -84 0
-39 21 -76 51 -92 35 -18 53 -18 88 0 48 25 65 91 36 145 -13 26 -13 29 8 38
32 15 77 33 82 33 12 0 3 -29 -14 -44 -37 -33 -32 -70 9 -71 27 0 0 -73 -70
-190 -17 -27 -57 -98 -90 -156 -33 -59 -79 -128 -101 -153 l-41 -46 -18 22
c-17 21 -19 22 -26 5 -4 -10 -18 -23 -31 -28 -23 -8 -23 -10 -9 -31 21 -29 9
-47 -71 -106 -38 -27 -84 -68 -103 -90 -19 -23 -42 -42 -52 -42 -9 0 -28 -14
-42 -31 -39 -46 -37 -111 5 -150 42 -39 87 -39 131 0 27 24 32 36 32 72 0 24
-3 51 -8 61 -7 14 -1 16 51 11 32 -3 75 -1 95 5 42 12 58 1 36 -25 -7 -9 -36
-31 -65 -50 -59 -37 -60 -53 -7 -78 19 -9 33 -19 31 -23 -74 -140 -206 -310
-301 -389 -56 -47 -81 -53 -91 -23 -8 24 -21 26 -29 5 -3 -8 -17 -20 -32 -25
-26 -10 -26 -11 -8 -31 18 -20 18 -21 -1 -35 -11 -8 -62 -36 -112 -62 -64 -32
-93 -53 -93 -64 0 -12 -8 -18 -24 -18 -36 0 -74 -36 -87 -82 -15 -59 9 -120
58 -143 33 -16 39 -16 69 -2 47 23 69 62 68 119 0 38 3 48 14 43 8 -3 45 -10
84 -17 66 -11 122 -5 181 17 11 5 17 2 17 -6 -1 -19 -81 -86 -112 -94 -14 -4
-47 -18 -74 -31 -26 -13 -60 -24 -76 -24 -15 0 -28 -2 -28 -5 0 -3 15 -19 33
-35 42 -38 129 -80 167 -80 34 0 38 -13 12 -51 -9 -14 -32 -48 -49 -76 -28
-42 -128 -129 -163 -141 -15 -5 -12 14 5 28 12 10 9 16 -22 37 l-37 25 -14
-21 c-8 -11 -21 -21 -28 -21 -16 0 -19 -16 -4 -25 6 -3 10 -18 10 -32 0 -22 3
-24 28 -19 25 6 26 5 9 -8 -11 -8 -47 -26 -80 -39 -114 -46 -226 -87 -236 -87
-18 0 -12 -32 12 -67 29 -43 73 -55 205 -55 91 0 102 -2 102 -18 0 -22 -55
-72 -124 -110 -28 -16 -60 -37 -71 -47 -47 -42 -106 -73 -140 -73 -71 0 -127
-47 -129 -108 -2 -103 120 -154 194 -80 25 25 30 38 30 78 l0 48 38 -14 c21
-7 80 -13 135 -14 58 0 97 -4 97 -10 0 -5 -4 -10 -10 -10 -5 0 -10 -5 -10 -12
0 -6 -12 -27 -27 -47 -16 -19 -30 -40 -33 -47 -12 -28 -85 -104 -99 -104 -9 0
-22 9 -29 20 -16 25 -28 25 -35 0 -3 -12 -14 -20 -26 -20 -22 0 -27 -10 -12
-25 4 -6 11 -24 14 -40 5 -29 2 -33 -51 -67 -32 -19 -69 -39 -82 -43 -14 -4
-46 -18 -71 -31 -43 -21 -107 -36 -214 -50 -90 -12 -133 -54 -121 -119 21
-111 191 -110 212 1 3 19 7 34 8 34 1 0 22 -10 46 -21 141 -68 310 -86 438
-45 53 17 6 -50 -88 -125 -25 -20 -56 -42 -70 -49 -29 -15 -70 -50 -70 -61 0
-4 30 -10 68 -14 37 -3 97 -13 134 -21 77 -16 203 -18 265 -4 58 14 141 54
183 90 19 16 38 26 43 21 8 -8 -74 -154 -113 -199 -21 -23 -21 -26 -6 -37 11
-8 28 -10 54 -4 20 4 80 13 132 18 64 7 120 20 173 41 84 33 177 86 177 101 0
5 6 9 14 9 24 0 28 -35 11 -97 -31 -110 -33 -101 22 -96 72 7 106 20 180 70
66 44 87 63 109 100 10 15 15 10 43 -47 18 -36 42 -76 54 -89 25 -27 86 -56
139 -65 l36 -7 -1 63 c-2 62 11 103 48 153 15 19 17 18 84 -18 94 -51 232 -96
314 -104 64 -6 67 -5 67 16 0 11 -5 21 -10 21 -6 0 -24 21 -40 47 -37 57 -26
78 20 40 39 -33 100 -60 193 -87 128 -35 176 -21 123 37 -34 37 -33 47 7 39
17 -3 102 -9 187 -12 131 -6 160 -4 186 9 59 31 60 41 4 81 -52 38 -90 88 -90
120 0 16 5 17 38 11 99 -17 151 -16 229 5 98 27 193 69 193 85 0 8 -34 30 -75
50 -41 21 -75 42 -75 49 0 6 32 19 72 28 80 20 118 43 201 124 38 37 57 64 57
80 l0 24 -117 0 c-74 0 -141 6 -182 16 -75 18 -91 28 -73 46 16 16 15 38 -2
38 -7 0 -21 10 -29 23 l-16 22 -18 -21 c-24 -29 -59 -39 -77 -22 -7 7 -34 25
-58 39 -25 15 -55 40 -66 57 l-22 30 44 6 c48 8 130 60 124 79 -3 7 -38 31
-79 55 -41 23 -75 46 -77 50 -1 5 30 13 70 20 40 6 100 24 133 40 102 50 105
50 105 3 0 -57 32 -91 91 -98 41 -5 50 -2 79 24 27 24 33 37 34 72 1 36 -4 47
-32 72 -21 19 -43 29 -63 29 -28 0 -31 2 -25 25 5 21 1 27 -33 45 -22 11 -46
20 -52 20 -12 0 -210 107 -219 119 -3 3 -21 14 -42 25 -41 21 -56 61 -31 88
13 15 12 18 -9 29 -13 7 -28 19 -35 28 -11 14 -14 14 -28 -7 -9 -12 -24 -22
-33 -22 -46 0 -286 247 -251 259 28 9 92 78 86 93 -3 9 -25 25 -49 37 -24 11
-57 34 -73 51 -28 29 -28 30 -6 30 36 0 173 50 208 76 l32 24 6 -32 c16 -84
100 -122 171 -79 44 27 60 71 45 122 -15 50 -51 74 -109 73 -42 -1 -43 0 -37
26 5 24 2 28 -37 39 -43 12 -233 116 -243 131 -3 5 -1 11 5 15 15 9 12 35 -4
35 -8 0 -22 10 -31 23 l-16 22 -18 -24 c-18 -24 -20 -24 -44 -8 -57 37 -132
135 -176 230 -42 90 -41 103 11 111 23 4 49 12 57 19 12 10 13 9 6 -8 -26 -62
-10 -141 34 -165 36 -19 80 -12 107 17 47 51 45 130 -4 174 l-30 27 40 11 c48
15 54 29 32 73 -19 38 -50 69 -94 95 -21 12 -30 24 -26 36 3 11 -2 21 -12 24
-9 4 -23 15 -30 25 -11 15 -17 17 -28 7 -8 -6 -16 -10 -17 -8 -1 2 -25 31 -53
64 -49 58 -102 137 -176 260 -55 92 -150 337 -136 351 3 3 30 7 59 8 30 2 61
5 69 7 14 4 16 -1 19 -47 1 -29 48 -74 77 -74 34 0 74 40 80 81 8 47 -19 107
-52 115 -13 3 -24 12 -24 20 0 7 -15 21 -32 30 -87 45 -201 149 -192 176 3 11
-1 20 -11 25 -43 16 -113 114 -142 198 -12 33 -29 83 -39 110 -10 28 -30 86
-45 130 -16 43 -27 80 -25 82 2 2 19 -4 39 -12 20 -8 39 -15 43 -15 4 0 3 28
0 61 l-7 62 47 48 47 48 -39 6 c-93 16 -98 19 -129 73 -16 28 -33 51 -37 52
-3 0 -21 -25 -38 -54z m80 -78 c0 -4 21 -10 46 -14 l46 -6 -32 -33 c-27 -28
-31 -38 -25 -64 10 -45 0 -53 -41 -34 -29 14 -40 15 -67 5 -50 -20 -51 -19
-48 23 2 32 -3 47 -23 68 -14 16 -26 30 -26 32 0 2 18 6 41 10 33 6 45 14 62
42 l21 36 23 -29 c12 -16 23 -32 23 -36z m-32 -260 c6 -29 13 -73 17 -98 7
-57 85 -249 122 -303 15 -22 27 -49 25 -59 -2 -10 2 -18 7 -18 6 0 11 -11 11
-25 0 -32 -23 -33 -45 -2 l-16 22 -16 -22 c-8 -13 -24 -23 -34 -23 -23 0 -24
-8 -2 -32 15 -17 15 -18 -1 -18 -10 0 -26 10 -36 22 l-17 22 -12 -22 c-6 -12
-18 -22 -26 -22 -17 0 -20 26 -5 35 15 10 12 25 -7 32 -10 4 -26 16 -35 28
l-18 20 -6 -21 c-3 -12 -20 -26 -41 -33 -34 -12 -37 -12 -53 9 l-17 23 -16
-24 c-13 -18 -19 -21 -29 -11 -9 9 -9 15 0 24 7 7 12 23 12 37 0 15 14 46 30
71 16 25 30 50 30 56 0 5 6 19 14 29 13 17 14 17 27 -11 29 -60 107 -54 138
10 19 41 0 101 -39 121 -16 8 -36 12 -44 9 -21 -8 -21 -5 10 90 52 160 55 164
72 84z m262 -562 c26 -37 143 -116 173 -116 10 0 17 -6 15 -12 -6 -19 -88 -58
-123 -58 -38 0 -124 32 -176 67 -21 14 -42 23 -45 20 -8 -8 19 -47 37 -52 10
-3 37 -25 62 -48 37 -35 45 -50 50 -89 4 -27 17 -69 31 -95 13 -27 31 -72 40
-102 8 -29 33 -81 54 -115 22 -33 49 -81 61 -104 12 -24 39 -63 59 -85 53 -59
105 -137 93 -137 -6 0 -16 9 -23 20 -7 11 -16 20 -20 20 -4 0 -10 -9 -13 -20
-3 -11 -15 -20 -25 -20 -26 0 -33 -15 -15 -30 19 -16 19 -30 1 -30 -8 0 -18 9
-21 20 -3 11 -12 20 -20 20 -7 0 -15 -9 -18 -20 -7 -29 -60 -27 -80 3 l-16 22
-16 -22 c-9 -13 -23 -23 -31 -23 -16 0 -19 -26 -4 -35 6 -3 10 -10 10 -16 0
-17 -29 -9 -51 14 l-21 22 -15 -22 c-9 -13 -24 -23 -34 -23 -23 0 -24 -8 -3
-31 23 -25 -1 -34 -26 -9 -25 25 -31 25 -53 0 -23 -27 -41 -25 -71 6 l-24 27
-11 -22 c-7 -11 -19 -21 -28 -21 -12 0 -13 3 -3 15 12 15 6 35 -12 35 -6 0
-17 8 -24 18 -12 16 -14 16 -29 1 -14 -14 -21 -15 -42 -4 -13 7 -31 21 -38 31
-14 18 -15 18 -33 -5 -19 -23 -19 -23 -48 -5 -16 10 -34 26 -41 34 -10 13 -14
12 -33 -8 -16 -17 -25 -21 -33 -13 -6 6 -19 11 -28 11 -10 0 -21 9 -24 20 -3
11 -12 20 -20 20 -8 0 -17 -9 -20 -20 -3 -11 -13 -20 -21 -20 -17 0 -19 31 -3
47 13 13 4 33 -16 33 -7 0 -17 9 -20 20 -3 11 -11 20 -17 20 -5 0 -12 -9 -15
-20 -6 -24 -23 -27 -23 -4 0 9 24 44 54 77 29 34 70 89 91 122 35 55 56 94
165 300 20 39 39 80 42 93 4 12 14 22 23 22 35 0 125 70 160 124 34 54 59 73
70 56 12 -20 35 -10 35 14 0 31 12 39 61 39 30 0 39 4 39 16 0 23 37 61 59 61
10 0 29 -15 41 -34z m-528 7 c10 -9 18 -26 18 -38 0 -18 5 -21 43 -20 36 1 42
4 43 24 1 12 6 27 12 33 16 16 31 1 24 -24 -4 -18 -2 -20 19 -15 33 9 63 -1
78 -24 11 -18 7 -26 -41 -74 -62 -62 -142 -115 -174 -115 -22 0 -22 1 12 81
19 45 32 84 29 87 -3 3 -22 -4 -43 -17 -61 -37 -96 -50 -153 -57 l-54 -6 42
36 c24 21 57 62 75 92 35 59 42 62 70 37z m-315 -979 c-2 -15 3 -18 27 -16 35
4 76 -31 69 -58 -4 -16 1 -18 41 -18 42 0 46 2 46 24 0 13 4 24 8 24 15 0 32
-24 32 -44 0 -18 7 -21 44 -22 37 -1 43 2 38 18 -6 25 25 24 33 -2 3 -11 4
-24 1 -29 -3 -5 17 -9 45 -9 40 0 49 3 45 15 -4 9 -1 13 6 10 7 -2 12 -17 11
-32 -2 -23 1 -26 20 -21 38 9 82 -8 79 -31 -2 -17 3 -20 43 -20 40 0 45 3 45
24 0 14 6 23 15 23 9 0 15 -9 15 -23 0 -21 4 -23 42 -22 35 1 43 5 43 20 0 27
42 46 84 39 29 -6 32 -4 27 12 -10 33 8 46 62 46 46 0 51 3 49 21 -1 11 4 22
11 24 7 3 12 -4 12 -19 0 -22 4 -25 45 -25 40 0 45 3 45 23 0 25 17 34 66 34
29 0 33 3 31 22 -1 14 4 23 16 26 12 3 17 -3 17 -22 0 -29 10 -38 29 -26 19
11 65 -4 96 -32 85 -76 80 -69 60 -84 -24 -18 -42 -17 -138 1 -43 8 -85 15
-93 15 -23 0 -16 -38 11 -62 14 -12 25 -25 25 -30 0 -11 -147 -10 -168 1 -9 5
-37 12 -60 16 l-44 7 4 -38 c3 -35 1 -39 -20 -37 -18 2 -62 19 -105 41 -4 2 3
-8 17 -23 30 -33 113 -65 166 -65 43 0 48 6 25 36 -23 31 -18 37 26 30 59 -9
76 -21 84 -57 18 -82 90 -221 146 -283 40 -44 45 -54 36 -73 -6 -13 -18 -23
-29 -23 -20 0 -24 -20 -7 -37 17 -17 -16 -83 -41 -83 -24 0 -26 -13 -5 -30 12
-10 13 -16 5 -24 -8 -8 -16 -4 -31 14 l-19 25 -17 -21 c-10 -12 -26 -24 -37
-28 -18 -6 -18 -7 -1 -26 10 -11 15 -23 11 -27 -4 -4 -15 3 -25 16 l-17 23
-17 -26 c-10 -14 -24 -26 -32 -26 -17 0 -20 -16 -5 -25 6 -3 10 -13 10 -22 0
-12 -3 -13 -14 -4 -12 10 -18 7 -31 -13 -10 -14 -24 -26 -31 -26 -16 0 -19
-16 -4 -25 6 -3 10 -14 10 -23 0 -13 -5 -12 -20 8 l-19 25 -12 -30 c-9 -23
-13 -26 -16 -12 -3 9 -11 17 -19 17 -7 0 -19 9 -26 20 -16 25 -30 25 -45 1
-15 -24 -61 -17 -84 12 l-17 20 -13 -21 c-8 -12 -22 -22 -33 -22 -18 0 -18 1
-3 18 21 23 21 32 1 32 -9 0 -25 10 -35 23 l-20 22 -15 -22 c-9 -13 -23 -23
-31 -23 -10 0 -13 -6 -9 -15 3 -8 9 -22 12 -30 9 -21 -12 -19 -36 5 -11 11
-22 20 -25 20 -3 0 -14 -9 -25 -20 -26 -26 -45 -25 -64 1 l-14 21 -17 -26
c-14 -21 -20 -24 -32 -15 -11 10 -11 15 3 30 17 19 12 39 -11 39 -8 0 -20 10
-26 22 l-12 22 -15 -22 c-8 -12 -21 -22 -28 -22 -16 0 -19 36 -4 45 15 9 12
25 -5 25 -8 0 -20 9 -27 20 -16 25 -30 25 -45 1 -6 -10 -24 -22 -40 -26 -22
-5 -31 -2 -46 17 l-19 23 -15 -22 c-9 -13 -21 -23 -28 -23 -21 0 -24 23 -6 44
13 16 14 20 2 24 -8 3 -25 16 -37 29 -22 24 -23 24 -34 4 -15 -29 -64 -28 -85
2 l-16 22 -19 -25 c-17 -22 -19 -23 -25 -7 -4 9 -2 24 5 32 13 15 6 35 -12 35
-6 0 -17 8 -24 18 -13 16 -15 16 -28 0 -15 -21 -25 -22 -62 -8 l-28 11 71 72
c101 104 223 294 223 348 0 11 12 18 39 23 22 3 63 18 91 32 28 14 53 24 56
21 2 -2 -3 -21 -12 -43 -9 -21 -16 -41 -16 -44 0 -9 65 1 136 21 72 19 108 44
132 91 13 26 19 68 9 68 -2 0 -23 -20 -45 -44 -40 -43 -163 -117 -175 -105 -3
4 -1 18 5 33 11 30 14 116 4 116 -4 0 -29 -16 -57 -36 -72 -52 -125 -74 -179
-74 -53 0 -68 23 -24 34 43 11 84 55 105 112 29 76 28 94 -3 65 -42 -40 -224
-69 -242 -39 -4 7 8 23 32 42 21 16 61 54 88 83 l49 52 18 -22 c9 -13 17 -32
16 -43z m1370 -249 c27 -19 37 -61 22 -97 -20 -48 -86 -50 -107 -2 -17 36 -15
58 9 88 23 29 45 33 76 11z m56 -457 c12 -6 38 -24 57 -39 19 -16 64 -43 100
-62 98 -51 93 -82 -24 -142 -42 -21 -64 -25 -133 -25 -46 0 -83 -2 -83 -5 0
-3 11 -27 24 -53 38 -75 100 -130 139 -123 22 4 -1 -45 -27 -58 -40 -19 -168
-33 -257 -29 -65 4 -82 9 -122 37 -67 46 -58 11 20 -83 39 -47 41 -62 11 -70
-51 -13 -101 -6 -134 19 -48 37 -63 30 -24 -10 47 -48 115 -70 172 -55 46 13
98 45 98 61 0 6 -16 17 -36 25 -21 9 -33 19 -28 24 5 5 61 12 125 16 l116 7
36 -59 c20 -33 70 -94 112 -137 65 -68 73 -79 55 -84 -23 -6 -25 -14 -8 -31 6
-6 8 -15 4 -19 -4 -4 -16 3 -27 17 -18 23 -20 24 -30 7 -6 -10 -22 -22 -36
-28 -24 -9 -25 -10 -8 -28 16 -19 16 -21 -6 -50 -13 -17 -29 -31 -36 -31 -16
0 -17 -12 -1 -28 16 -16 -9 -61 -40 -73 -23 -9 -24 -10 -7 -35 23 -35 5 -54
-24 -25 -26 26 -33 26 -48 2 -17 -27 -61 -33 -74 -10 -13 25 -26 24 -34 -1 -3
-11 -15 -20 -26 -20 -22 0 -23 -4 -8 -28 9 -15 7 -23 -12 -43 -13 -14 -32 -29
-43 -32 -15 -6 -16 -10 -6 -22 10 -12 9 -15 -3 -15 -9 0 -21 9 -27 20 -14 25
-27 25 -35 0 -3 -11 -15 -20 -26 -20 -10 0 -19 -7 -19 -15 0 -8 5 -15 10 -15
6 0 10 -4 10 -10 0 -19 -29 -10 -36 12 l-6 21 -17 -22 c-16 -20 -19 -21 -44
-8 -16 8 -34 23 -42 33 -12 18 -14 17 -34 -6 -11 -14 -20 -19 -21 -12 0 7 -11
17 -25 22 -14 5 -25 16 -25 25 0 22 -27 18 -33 -5 -3 -11 -10 -20 -16 -20 -6
0 -8 7 -5 15 4 9 -1 18 -12 22 -11 4 -26 16 -35 27 -16 20 -16 20 -28 -3 -10
-18 -18 -21 -39 -16 -15 3 -35 16 -44 28 l-18 22 -17 -21 c-24 -30 -61 -40
-69 -20 -9 22 -31 20 -39 -4 -4 -11 -15 -20 -27 -20 -14 0 -18 -5 -14 -15 8
-22 -12 -18 -24 5 -6 11 -15 20 -20 20 -5 0 -12 -9 -15 -20 -4 -13 -15 -20
-32 -20 -25 0 -25 1 -9 19 19 21 14 41 -9 41 -8 0 -20 10 -26 22 l-11 21 -18
-23 c-13 -18 -28 -24 -56 -24 -21 0 -39 4 -41 10 -2 5 -8 16 -13 24 -9 13 -13
12 -28 -6 -24 -30 -52 -38 -52 -16 0 10 5 23 11 29 13 13 4 33 -16 33 -8 0
-20 10 -26 22 l-11 21 -19 -24 -19 -24 0 33 c0 17 5 32 10 32 6 0 10 7 10 15
0 8 -9 15 -19 15 -11 0 -23 9 -26 20 -3 11 -12 20 -20 20 -8 0 -17 -9 -20 -20
-3 -11 -11 -20 -16 -20 -12 0 -12 27 1 35 15 10 12 25 -7 32 -10 4 -24 15 -32
26 -14 19 -14 19 -30 -2 -9 -12 -33 -24 -53 -27 -31 -5 -37 -3 -43 15 -8 26
-21 27 -35 1 -15 -28 -63 -27 -83 3 -15 22 -15 22 -31 2 -15 -20 -15 -20 -16
0 0 12 5 26 11 32 13 13 4 33 -16 33 -8 0 -20 10 -26 22 -11 21 -11 21 -28 1
-9 -11 -24 -23 -35 -27 -13 -4 -15 -10 -8 -19 6 -6 12 -23 14 -37 2 -21 8 -24
31 -22 21 3 27 -1 27 -17 0 -11 5 -23 10 -26 6 -3 10 -17 10 -31 0 -26 9 -31
28 -12 8 8 15 8 27 -2 18 -15 29 -7 30 23 0 13 6 22 15 22 9 0 15 -9 15 -24 0
-25 19 -39 29 -22 5 7 15 7 31 1 22 -8 25 -7 25 13 0 22 17 47 31 47 4 0 9
-12 11 -27 3 -24 7 -28 31 -25 35 4 57 -13 57 -45 0 -19 5 -24 23 -23 48 4 60
1 48 -14 -9 -11 -9 -17 1 -27 7 -8 13 -23 13 -34 0 -15 6 -19 24 -17 28 4 81
-16 82 -32 1 -6 2 -17 3 -24 0 -9 17 -15 44 -17 38 -3 42 -1 42 19 0 12 5 27
11 33 18 18 39 3 39 -29 0 -25 3 -28 20 -23 10 3 35 3 54 0 28 -6 35 -12 38
-33 3 -23 7 -25 43 -25 34 0 40 3 38 20 -2 19 3 20 53 18 51 -3 55 -2 51 15
-3 11 1 24 9 31 11 9 14 7 14 -8 0 -17 7 -20 45 -21 41 0 45 2 40 19 -4 13 -2
19 9 19 9 0 17 -6 17 -12 1 -7 2 -20 3 -27 1 -11 14 -15 49 -14 39 1 47 -2 47
-17 0 -25 17 -35 35 -20 8 7 15 7 19 1 9 -14 36 -2 36 16 0 8 5 11 10 8 6 -3
10 -16 10 -29 0 -20 5 -23 46 -24 36 0 44 3 40 15 -4 9 -1 13 6 11 7 -3 14
-16 16 -30 3 -22 7 -25 48 -25 39 0 45 3 41 19 -6 23 24 40 61 36 21 -2 27 1
27 17 0 13 7 20 21 21 12 1 27 4 33 8 7 4 18 2 26 -4 18 -15 36 -4 28 16 -3 8
3 24 13 35 17 19 17 20 -4 26 -12 3 -22 9 -22 14 0 10 13 12 48 9 14 -1 23 4
21 12 -3 26 1 38 15 38 9 0 12 -7 9 -18 -4 -16 2 -19 41 -19 41 0 46 3 46 23
0 31 40 57 74 48 23 -5 26 -3 26 18 0 13 5 29 11 35 14 14 3 33 -17 33 -9 0
-14 6 -11 13 2 7 17 11 37 9 28 -3 32 -1 26 14 -4 10 0 24 10 35 16 17 15 19
-11 29 -22 8 -25 13 -15 25 8 9 22 12 40 8 25 -5 28 -3 23 16 -6 25 34 45 74
35 22 -6 25 -4 20 10 -4 9 -3 16 1 16 8 0 94 -52 115 -70 11 -10 64 -49 128
-97 17 -12 59 -31 95 -43 91 -31 88 -49 -18 -99 -140 -66 -214 -77 -282 -40
-21 11 -41 18 -44 15 -11 -12 46 -100 96 -148 29 -28 51 -56 48 -63 -6 -17
-55 -25 -159 -25 -83 0 -95 3 -145 31 -34 19 -53 25 -49 17 3 -8 13 -52 24
-97 15 -67 26 -92 60 -133 23 -28 39 -57 36 -64 -7 -19 -119 -18 -201 1 -103
24 -231 111 -269 182 -25 47 -34 41 -15 -9 16 -40 125 -168 143 -168 5 0 32
-11 61 -24 84 -38 184 -59 244 -51 53 6 104 35 104 58 0 7 -20 31 -43 53 -46
43 -87 115 -87 152 0 26 -1 26 40 6 24 -12 46 -15 87 -10 49 6 58 4 70 -14 8
-11 43 -40 79 -66 52 -38 62 -49 53 -60 -9 -11 -8 -18 3 -32 9 -9 13 -23 11
-29 -7 -20 -31 -15 -38 7 -3 11 -12 20 -18 20 -7 0 -18 -9 -25 -20 -7 -11 -19
-20 -27 -20 -17 0 -20 -16 -5 -25 15 -9 12 -35 -4 -35 -8 0 -18 -9 -21 -20 -3
-11 -15 -20 -26 -20 -22 0 -25 -13 -5 -29 8 -7 12 -21 8 -33 -5 -20 -5 -20
-22 2 -17 23 -40 20 -40 -4 0 -8 -14 -16 -31 -20 -24 -5 -35 -1 -49 17 -17 21
-19 21 -26 4 -4 -10 -18 -23 -32 -28 -23 -9 -24 -11 -8 -28 9 -9 13 -20 10
-24 -9 -9 -37 4 -56 27 l-18 21 -17 -21 c-10 -12 -26 -24 -37 -28 -17 -6 -18
-8 -2 -24 16 -19 22 -42 10 -42 -4 0 -13 8 -21 17 -13 17 -14 17 -29 -4 -21
-29 -44 -30 -37 -3 4 14 0 20 -10 20 -9 0 -23 10 -32 23 l-16 22 -17 -23 c-17
-21 -20 -22 -46 -8 -15 7 -35 24 -43 36 l-16 23 -12 -23 c-7 -13 -22 -25 -34
-27 -25 -4 -26 0 -5 32 15 23 15 24 -10 31 -14 3 -28 15 -32 27 l-7 21 -17
-22 c-10 -12 -23 -22 -29 -22 -17 0 -23 -20 -11 -35 22 -26 -10 -27 -34 0 -25
27 -25 27 -38 6 -7 -12 -18 -21 -25 -21 -19 0 -26 -20 -13 -35 10 -12 9 -15
-3 -15 -8 0 -22 10 -31 23 l-16 22 -16 -22 c-14 -19 -18 -20 -40 -8 -14 7 -31
21 -38 30 -14 19 -36 13 -36 -11 0 -8 -8 -14 -18 -14 -26 0 -34 -11 -20 -27
21 -26 -4 -28 -27 -1 l-23 26 -20 -23 c-11 -12 -26 -25 -33 -27 -12 -4 -12 -7
0 -21 11 -15 11 -17 -2 -17 -8 0 -22 10 -30 22 l-16 23 -20 -25 c-17 -20 -21
-22 -21 -7 0 9 -6 17 -14 17 -8 0 -22 10 -31 23 l-16 22 -16 -23 c-8 -12 -24
-22 -35 -22 -15 0 -18 -5 -13 -22 l6 -23 -20 22 c-23 27 -37 29 -49 7 -10 -18
-60 -10 -69 12 -7 19 -29 18 -37 -1 -3 -8 -12 -15 -21 -15 -17 0 -20 16 -5 25
15 10 12 35 -5 35 -8 0 -20 9 -27 20 -16 25 -25 25 -33 1 -9 -30 -47 -35 -68
-9 l-19 22 -16 -20 c-10 -12 -25 -24 -34 -27 -11 -4 -15 -12 -12 -22 9 -23
-11 -18 -29 7 l-16 23 -18 -21 c-29 -35 -93 -41 -93 -9 0 7 -10 15 -22 18 -21
6 -21 7 -5 25 22 24 21 32 -4 32 -12 0 -23 8 -26 20 -6 22 -29 27 -36 8 -2 -7
-8 -9 -13 -5 -4 4 -3 17 4 28 14 21 8 39 -11 39 -7 0 -18 9 -25 21 -13 21 -13
21 -38 -6 -27 -30 -58 -27 -85 7 l-16 21 -15 -22 c-19 -26 -60 -20 -83 12 -12
17 -17 18 -30 7 -12 -10 -15 -10 -15 4 0 9 5 16 10 16 6 0 10 7 10 15 0 8 -7
15 -16 15 -9 0 -24 10 -34 23 -19 22 -19 22 -34 2 -8 -11 -16 -15 -16 -8 0 6
5 15 10 18 15 9 12 35 -4 35 -30 0 -26 22 12 68 22 26 55 76 75 112 19 36 45
70 58 77 77 39 120 56 126 49 8 -8 -66 -81 -102 -102 -34 -20 -3 -37 78 -42
90 -5 156 12 278 74 47 24 91 44 97 44 26 0 -34 -124 -82 -169 -35 -33 -35
-68 0 -77 42 -11 165 2 220 23 100 38 171 107 203 196 13 33 11 33 -23 2 -80
-74 -170 -138 -212 -151 -51 -15 -108 -19 -102 -6 53 103 84 246 59 276 -12
14 -16 14 -44 -7 -127 -93 -207 -137 -302 -163 -66 -18 -79 -5 -39 38 34 37
50 72 60 137 l6 45 -23 -15 c-38 -24 -220 -97 -269 -108 -64 -15 -213 -14
-228 1 -17 17 -15 38 6 45 25 10 192 131 214 156 24 28 72 126 64 134 -3 3
-25 0 -50 -6 -25 -6 -93 -11 -151 -11 -89 0 -113 4 -148 21 -49 25 -55 21 98
69 55 17 123 44 152 59 31 17 54 24 56 18 2 -6 22 -11 45 -12 37 -1 42 2 42
21 0 13 5 26 10 29 16 10 12 35 -5 35 -10 0 4 20 35 51 69 69 147 164 155 188
4 14 18 22 43 26 77 11 168 37 201 58 l34 21 -19 -33 c-32 -55 -80 -91 -120
-91 -28 0 -44 -8 -70 -34 -29 -29 -34 -41 -34 -81 0 -40 5 -52 34 -81 19 -19
41 -34 49 -34 62 0 111 60 104 127 l-4 42 42 -6 c32 -4 68 3 146 27 87 28 109
39 143 75 42 43 104 145 88 145 -5 0 -38 -27 -73 -61 -35 -33 -100 -80 -144
-104 -113 -61 -215 -74 -167 -21 32 34 72 118 78 164 5 38 4 41 -13 36 -10 -4
-25 -13 -33 -19 -29 -24 -246 -85 -302 -85 -51 0 -155 21 -175 35 -16 12 -13
15 37 38 60 27 79 40 152 107 54 48 105 134 87 145 -6 4 -18 0 -27 -8 -27 -23
-138 -57 -188 -57 -50 0 -132 18 -151 33 -23 17 -14 36 24 52 21 9 40 19 43
24 9 14 88 51 109 51 11 0 25 9 31 20 14 27 38 25 42 -2 2 -15 9 -22 18 -19 8
2 28 3 43 2 25 -1 28 1 22 20 -6 17 -3 20 12 17 11 -2 18 -12 18 -28 1 -20 5
-24 25 -22 30 3 72 -35 65 -60 -5 -14 -1 -17 28 -16 19 1 39 -2 45 -6 6 -4 12
4 14 19 4 33 22 33 26 0 3 -23 7 -26 31 -20 35 8 85 -28 76 -55 -7 -22 6 -32
25 -20 8 5 22 4 32 -1 14 -8 20 -6 24 8 10 33 21 48 35 48 9 0 13 -9 11 -24
-3 -20 0 -23 18 -18 34 9 69 -13 79 -47 6 -25 13 -30 31 -28 32 3 70 -24 70
-51 0 -19 5 -22 46 -23 40 -1 45 1 41 18 -3 10 -1 21 4 24 5 3 9 -3 9 -14 0
-15 8 -19 44 -19 41 0 45 3 48 26 3 28 35 41 85 34 26 -4 32 -10 35 -32 2 -17
8 -25 18 -22 8 2 20 4 25 4 6 0 17 -2 25 -4 9 -3 15 4 16 19 1 12 4 25 7 28
11 11 27 -7 27 -30 0 -20 5 -23 45 -23 25 0 45 4 45 9 0 5 5 6 10 3 6 -4 8
-15 5 -24 -4 -15 1 -18 40 -18 40 0 45 3 45 24 0 13 5 23 10 23 6 0 10 7 10
16 0 12 7 14 31 9 29 -7 31 -5 26 14 -3 11 1 25 9 32 9 7 12 20 8 31 -5 18 -3
19 25 13 28 -6 31 -4 31 18 0 32 30 58 58 50 18 -4 22 -1 22 16 0 28 41 54 74
45 23 -5 26 -3 26 20 0 14 5 26 10 26 19 0 10 28 -11 33 -14 4 -19 12 -17 24
4 17 15 20 48 12 10 -3 15 3 15 16 0 18 24 65 33 65 2 0 13 -5 25 -12z m416
-214 c12 -15 21 -36 21 -47 0 -31 -39 -67 -72 -67 -34 0 -78 39 -78 70 0 12
11 32 25 45 33 34 77 33 104 -1z m-2539 -116 c30 -32 27 -91 -5 -116 -47 -37
-105 -3 -105 60 0 69 66 103 110 56z m-292 -1138 c26 -24 30 -81 7 -104 -57
-56 -154 3 -126 76 19 49 80 64 119 28z m3037 -266 c28 -17 151 -43 240 -51
48 -4 75 -10 75 -18 0 -17 -99 -83 -167 -111 -67 -27 -141 -31 -183 -9 -43 22
-37 4 18 -55 33 -35 65 -58 107 -75 33 -13 60 -29 60 -36 0 -13 -117 -44 -205
-54 -44 -5 -67 -2 -115 16 -33 12 -69 28 -80 35 -11 8 -27 14 -36 14 -13 0
-15 -7 -9 -37 10 -52 48 -140 81 -187 16 -21 26 -42 24 -46 -5 -9 -180 -5
-285 5 -51 5 -77 15 -118 42 -30 19 -56 32 -59 29 -10 -9 28 -110 49 -133 18
-19 19 -23 6 -28 -21 -8 -235 96 -287 139 -64 53 -75 49 -68 -25 3 -41 13 -72
27 -91 16 -21 19 -33 11 -41 -7 -7 -14 -7 -23 0 -7 6 -46 20 -87 32 -87 26
-133 54 -184 110 -20 22 -44 41 -53 41 -35 0 -89 -102 -104 -196 -6 -38 -13
-70 -15 -73 -14 -13 -113 68 -136 111 -7 12 -17 44 -23 70 l-11 48 -60 -55
c-80 -74 -174 -137 -199 -133 -19 3 -22 12 -27 88 -8 98 -16 130 -34 130 -7 0
-43 -25 -81 -55 -38 -30 -73 -55 -79 -55 -5 0 -23 -7 -39 -15 -62 -33 -283
-81 -299 -66 -5 5 3 25 17 45 42 63 84 196 61 196 -3 0 -49 -22 -103 -49 -145
-73 -181 -81 -356 -81 -150 0 -196 5 -196 20 0 5 34 32 76 60 42 28 89 66 104
83 35 39 87 133 78 142 -3 4 -41 -9 -85 -27 -75 -32 -82 -33 -188 -30 -60 2
-135 10 -165 19 -72 20 -154 63 -143 74 5 5 34 16 64 23 87 23 239 100 294
149 36 33 53 42 62 35 7 -6 19 -8 28 -5 19 8 56 -39 48 -60 -5 -13 -1 -15 20
-11 18 3 27 1 27 -7 0 -7 7 -18 15 -25 9 -7 13 -21 10 -31 -5 -15 1 -17 40
-17 38 0 45 3 45 20 0 28 24 17 28 -13 3 -22 7 -25 45 -24 32 1 42 5 42 18 0
19 22 43 31 34 4 -3 7 -17 8 -29 1 -18 7 -22 26 -21 26 3 50 -31 50 -70 0 -15
5 -18 21 -14 24 6 49 -1 49 -14 0 -5 -10 -9 -22 -9 -20 0 -20 -1 -5 -18 10
-10 17 -28 17 -39 0 -17 7 -20 46 -21 37 0 44 3 40 15 -7 18 10 43 30 43 8 0
14 -10 14 -24 0 -21 5 -23 40 -23 35 0 40 2 40 23 0 24 14 32 25 14 4 -6 13
-7 24 -1 9 5 23 6 31 1 20 -12 38 -1 33 20 -3 10 0 21 6 24 7 5 11 -3 11 -19
0 -22 3 -25 24 -19 33 8 66 -12 66 -40 0 -20 5 -23 45 -23 41 0 45 3 45 24 0
14 4 22 10 18 6 -4 10 -16 8 -28 -3 -18 3 -21 45 -23 44 -3 47 -2 42 19 -6 22
-3 23 59 23 53 0 65 -3 63 -15 -1 -12 9 -16 44 -18 42 -2 46 0 42 18 -6 20 -7
19 77 23 18 1 25 7 25 21 0 17 8 20 51 23 43 2 53 7 57 23 7 27 27 15 27 -15
0 -20 5 -23 45 -24 40 0 44 2 42 21 -2 20 3 22 48 22 43 0 50 3 50 20 0 14 10
22 37 28 47 11 94 -9 91 -39 -2 -18 4 -21 42 -21 37 0 45 4 45 19 0 10 4 18 9
18 16 0 31 -27 25 -43 -5 -14 3 -16 53 -14 54 2 58 0 57 -20 0 -19 5 -21 48
-21 31 -1 46 3 42 9 -3 6 2 26 12 44 15 29 22 33 46 28 23 -5 27 -3 22 11 -8
22 15 50 30 37 6 -6 17 -6 24 -2 8 4 24 6 38 3 20 -4 24 0 24 22 0 16 5 26 15
26 9 0 15 -9 15 -25 0 -21 3 -23 23 -16 13 5 30 5 39 0 19 -10 33 4 23 22 -4
5 0 18 8 27 9 9 16 22 17 27 1 6 14 9 31 7 25 -2 29 1 29 22 0 14 5 28 10 31
17 10 11 22 -12 29 -35 9 -2 26 36 19 26 -6 29 -4 24 15 -9 31 36 65 74 57 23
-6 28 -3 28 13 0 16 5 19 23 14 12 -3 31 -11 42 -18z m-3372 -293 c30 -12 41
-40 32 -81 -10 -47 -83 -59 -117 -18 -37 43 -9 103 49 107 6 1 23 -3 36 -8z"/>
<path d="M2490 4503 c-34 -13 -60 -58 -60 -101 0 -75 53 -121 123 -108 93 17
115 145 35 200 -22 16 -69 20 -98 9z m90 -53 c44 -44 8 -124 -52 -118 -61 6
-86 79 -42 122 22 22 70 20 94 -4z"/>
<path d="M2137 4155 c-43 -22 -59 -42 -64 -83 -4 -28 0 -44 18 -66 69 -88 209
-53 209 53 0 46 -23 79 -66 97 -42 18 -62 18 -97 -1z m109 -52 c33 -44 7 -100
-49 -110 -29 -4 -40 -1 -61 20 -14 15 -26 36 -26 47 0 12 12 32 26 47 21 21
32 24 61 20 19 -4 41 -14 49 -24z"/>
<path d="M2610 4063 c-55 -50 -56 -124 -4 -177 48 -47 126 -31 159 34 30 57 9
127 -45 155 -43 22 -76 18 -110 -12z m105 -38 c47 -46 19 -125 -44 -125 -61 0
-90 92 -42 131 31 26 57 24 86 -6z"/>
<path d="M2298 3464 c-91 -49 -45 -184 62 -184 59 0 110 46 110 100 0 31 -29
76 -57 89 -33 15 -83 13 -115 -5z"/>
<path d="M1864 3222 c-54 -43 -58 -100 -10 -148 46 -46 99 -47 145 -5 68 63
23 171 -71 171 -26 0 -52 -7 -64 -18z"/>
<path d="M2704 3126 c-57 -57 -43 -130 32 -166 38 -19 47 -20 84 -9 51 15 80
54 80 106 -1 64 -46 103 -120 103 -34 0 -48 -6 -76 -34z m139 -24 c27 -24 19
-80 -14 -105 -55 -40 -128 7 -114 73 12 54 83 72 128 32z"/>
<path d="M2561 2591 c-1 -25 6 -71 15 -103 9 -32 14 -61 11 -65 -14 -14 -71
24 -122 80 -53 59 -55 59 -77 43 -13 -9 -38 -28 -57 -41 -31 -23 -71 -34 -71
-20 0 3 9 18 20 33 23 32 40 110 22 98 -7 -4 -12 -13 -12 -20 0 -8 -20 -39
-44 -71 -25 -31 -42 -63 -39 -70 7 -20 97 -8 158 22 l50 24 58 -56 c36 -33 68
-55 81 -55 35 0 38 -10 11 -42 -48 -56 -25 -156 41 -184 77 -32 154 24 154
112 0 44 -19 78 -59 102 -15 10 -45 36 -66 60 -31 35 -42 58 -56 120 -16 72
-17 74 -18 33z m145 -268 c20 -27 17 -80 -6 -103 -28 -28 -84 -27 -104 2 -23
32 -20 80 5 107 18 19 29 22 56 18 20 -4 41 -14 49 -24z"/>
<path d="M3033 2245 c-33 -33 -35 -39 -31 -84 6 -58 31 -89 82 -101 47 -10 95
14 120 61 18 32 18 41 7 78 -14 49 -58 81 -109 81 -26 0 -43 -9 -69 -35z m126
-31 c41 -52 16 -114 -46 -114 -49 0 -73 24 -73 71 0 67 78 95 119 43z"/>
<path d="M1940 2253 c-36 -15 -70 -70 -70 -111 0 -46 26 -86 67 -106 43 -20
66 -20 109 0 68 33 87 128 36 185 -23 26 -37 32 -78 35 -27 2 -56 1 -64 -3z
m105 -58 c44 -43 29 -103 -32 -126 -52 -19 -110 34 -98 91 13 60 86 80 130 35z"/>
<path d="M2366 1661 c-4 -5 -16 -40 -27 -78 -12 -37 -34 -89 -50 -116 -16 -26
-29 -54 -29 -63 0 -8 -11 -27 -25 -42 -85 -92 15 -231 128 -177 37 17 67 65
67 107 0 29 -32 78 -61 94 -22 11 -21 12 25 32 25 12 66 37 90 57 50 41 54 41
105 15 22 -11 58 -22 80 -26 36 -6 41 -4 40 12 0 11 -15 50 -33 88 -37 76 -52
75 -41 -4 4 -28 3 -50 -2 -50 -4 0 -33 16 -63 35 -30 19 -59 35 -65 35 -7 0
-26 -20 -44 -45 -30 -42 -115 -104 -127 -92 -3 3 5 25 17 49 29 56 42 214 15
169z m-1 -326 c32 -31 32 -69 -1 -102 -20 -20 -31 -24 -57 -19 -38 7 -67 39
-67 73 0 32 42 73 75 73 14 0 37 -11 50 -25z"/>
<path d="M2827 1600 c-39 -12 -58 -29 -74 -68 -29 -70 25 -142 107 -142 83 0
136 72 106 143 -23 56 -82 85 -139 67z m90 -53 c44 -45 9 -117 -57 -117 -22 0
-45 7 -54 16 -16 16 -21 71 -8 90 23 34 90 40 119 11z"/>
<path d="M1630 1412 c-82 -36 -99 -124 -38 -189 63 -67 188 -12 188 82 0 75
-86 135 -150 107z m84 -53 c34 -27 35 -71 1 -104 -28 -29 -45 -31 -84 -10 -65
33 -39 134 35 135 12 0 33 -9 48 -21z"/>
<path d="M1350 1113 c-30 -11 -70 -57 -76 -89 -11 -61 46 -134 106 -134 61 0
116 71 105 134 -13 65 -79 109 -135 89z m75 -58 c14 -13 25 -36 25 -50 0 -31
-41 -75 -70 -75 -29 0 -70 44 -70 75 0 31 41 75 70 75 12 0 32 -11 45 -25z"/>
<path d="M3415 1061 c-79 -33 -78 -134 2 -167 44 -19 86 -10 118 24 69 74 -22
183 -120 143z"/>
<path d="M2719 991 c-16 -17 -29 -40 -29 -54 0 -54 71 -102 134 -90 81 16 105
122 35 158 -48 25 -106 19 -140 -14z"/>
<path d="M5332 3206 c-68 -14 -222 -89 -337 -164 -102 -67 -232 -202 -277
-287 -47 -90 -102 -250 -119 -345 -25 -145 -9 -365 32 -442 8 -15 4 -23 -21
-44 -43 -36 -60 -75 -60 -132 0 -46 -2 -50 -27 -57 -49 -12 -56 -24 -34 -61
11 -19 18 -41 15 -49 -6 -15 40 -64 87 -92 26 -16 27 -19 34 -154 5 -96 4
-148 -5 -173 -11 -36 -8 -61 12 -103 11 -23 12 -23 255 -23 134 0 243 -4 243
-9 0 -5 -7 -25 -16 -46 -8 -20 -13 -39 -11 -41 2 -3 28 -7 56 -11 40 -4 51 -9
47 -20 -4 -8 -6 -19 -6 -25 0 -6 -21 -7 -55 -3 -78 10 -175 -27 -175 -67 0 -4
33 -8 73 -9 80 0 123 -11 94 -22 -9 -3 -17 -11 -17 -17 0 -6 49 -10 135 -10
74 0 135 4 135 8 0 5 6 17 14 27 14 19 15 19 27 -8 10 -22 19 -27 46 -27 22 0
33 5 33 15 0 26 -21 61 -43 70 -12 6 -23 18 -25 28 -3 15 5 17 66 17 38 0 71
3 74 6 4 3 -5 39 -19 80 -14 41 -24 77 -22 78 2 2 78 9 169 16 91 6 183 15
205 19 l40 7 0 53 c-1 39 -6 57 -19 67 -10 7 -18 23 -17 36 1 44 13 98 22 98
12 0 28 42 40 105 8 44 7 51 -10 65 -15 12 -20 30 -23 90 l-3 75 74 7 c43 5
96 18 128 32 57 27 160 118 194 173 16 26 25 32 43 27 46 -11 74 50 40 87 -13
15 -14 26 -5 69 17 80 13 249 -9 375 -36 202 -93 331 -215 483 -79 98 -126
128 -275 176 -185 61 -433 82 -588 52z m347 -11 c200 -29 374 -93 450 -165
169 -161 262 -387 281 -682 9 -147 1 -247 -22 -275 -7 -9 -6 -15 6 -19 22 -8
37 -39 30 -58 -7 -18 -35 -21 -51 -5 -7 7 -18 -2 -36 -33 -74 -126 -224 -217
-360 -218 -37 0 -37 1 -76 83 -38 82 -98 173 -107 164 -3 -3 19 -46 49 -96 66
-109 86 -163 94 -258 l6 -73 -160 0 -160 0 3 33 3 32 -11 -32 c-6 -18 -17 -33
-23 -33 -17 0 -25 -23 -25 -71 0 -32 5 -41 28 -53 16 -8 57 -17 93 -20 57 -5
59 -4 19 4 -25 5 -62 14 -82 20 -37 11 -38 12 -38 61 l0 49 188 -5 187 -5 -1
-27 c-1 -16 -7 -47 -13 -70 -11 -39 -15 -43 -43 -43 -29 0 -30 -1 -14 -13 28
-21 17 -67 -21 -89 -48 -28 -126 -34 -172 -13 -37 16 -81 74 -81 106 0 12 -43
13 -244 11 -238 -3 -244 -2 -249 18 -5 18 -13 20 -90 20 -109 0 -144 -7 -150
-31 -5 -17 -16 -19 -125 -19 -89 0 -121 3 -125 13 -14 36 27 301 58 373 l17
39 19 -72 c18 -70 57 -153 85 -182 11 -12 11 -16 -3 -26 -13 -10 -12 -13 8
-27 32 -20 104 -37 191 -44 130 -11 325 44 478 135 98 59 145 108 185 195 37
82 56 154 36 142 -6 -4 -11 -16 -11 -26 0 -20 -8 -42 -47 -128 -54 -121 -224
-229 -449 -286 -110 -28 -328 -16 -363 19 -12 12 -12 15 -2 15 9 0 4 13 -13
35 -57 74 -106 230 -106 333 0 56 19 163 31 176 6 6 19 -3 35 -22 15 -18 31
-32 36 -32 5 0 -3 12 -18 28 -50 52 -80 148 -43 140 6 -2 17 17 24 41 25 82
107 140 197 141 67 0 94 -13 101 -49 4 -20 16 -35 36 -46 34 -17 55 -20 46 -5
-3 6 -15 10 -25 10 -10 0 -26 10 -34 22 -37 53 -4 121 57 118 18 -1 38 -2 45
-1 14 1 17 51 2 51 -5 0 -10 -9 -10 -20 0 -16 -7 -20 -38 -20 -41 0 -82 -23
-82 -46 0 -11 -6 -13 -22 -8 -13 4 -32 8 -42 9 -31 3 -30 20 5 86 l33 61 54
-4 c30 -3 57 -9 60 -15 4 -5 24 -10 45 -11 20 -1 47 -7 59 -13 12 -6 40 -13
62 -15 23 -3 57 -8 76 -12 32 -7 35 -11 35 -43 0 -18 -4 -50 -8 -70 l-7 -37
74 -4 c96 -4 147 -37 189 -118 25 -49 28 -51 23 -21 -8 43 -46 94 -97 128 -44
29 -50 43 -17 43 12 0 30 7 40 17 20 18 24 73 6 91 -18 18 -68 15 -91 -5 -19
-17 -20 -17 -8 4 15 30 15 133 -1 133 -9 0 -9 3 0 12 10 10 16 7 29 -12 10
-14 28 -35 40 -48 21 -21 25 -22 45 -8 31 22 38 20 38 -8 0 -62 75 -91 120
-46 11 11 20 31 20 45 0 42 -30 61 -108 69 l-71 7 -55 73 c-47 63 -60 74 -93
80 -67 11 -128 6 -224 -16 -52 -12 -128 -22 -169 -22 l-75 -1 -24 -74 -25 -75
21 -13 21 -14 -23 -36 c-14 -19 -30 -50 -37 -69 -10 -28 -20 -36 -53 -45 -83
-22 -131 -71 -159 -161 -3 -11 -11 -15 -21 -12 -14 6 -16 -2 -14 -57 1 -35 -4
-94 -11 -131 -12 -64 -15 -68 -40 -68 -23 0 -30 7 -43 43 -28 75 -40 176 -34
292 12 224 93 447 213 583 80 91 249 209 409 287 110 53 266 67 454 40z m-147
-473 c10 -4 38 -34 63 -67 42 -56 43 -61 25 -69 -16 -7 -24 -3 -41 18 l-21 27
-22 -20 -21 -20 -140 44 c-77 24 -148 44 -157 45 -20 0 -25 20 -5 21 6 0 39 6
72 14 63 14 218 18 247 7z m-261 -68 c46 -14 100 -29 119 -34 19 -5 62 -20 95
-33 l60 -23 0 -50 c0 -46 -2 -49 -28 -52 -15 -2 -67 4 -115 13 -75 15 -91 22
-115 49 -25 28 -28 29 -38 14 -12 -22 -29 -23 -29 -3 0 17 -16 20 -25 5 -7
-11 -69 -6 -138 11 -36 10 -38 12 -32 41 4 17 14 47 22 66 l14 35 63 -7 c35
-3 101 -18 147 -32z m-563 -767 c2 -24 -5 -54 -17 -80 -11 -23 -23 -57 -27
-75 -8 -41 -27 -41 -70 2 -24 24 -34 43 -34 65 0 67 59 133 115 128 27 -2 30
-6 33 -40z m-80 -192 c18 -5 22 -12 19 -28 -3 -12 -9 -48 -12 -79 -4 -32 -11
-58 -15 -58 -13 0 -91 61 -97 76 -3 9 7 29 28 50 35 36 30 48 -6 14 l-22 -21
-17 26 c-20 31 -21 29 24 48 32 13 37 13 55 -3 11 -10 31 -21 43 -25z m493
-286 c5 -8 9 -39 9 -69 l0 -55 270 3 c231 2 274 1 292 -13 29 -20 129 -20 169
0 32 17 49 13 49 -11 0 -10 -15 -14 -57 -16 l-58 -2 70 -5 70 -6 3 -45 3 -46
-128 -12 c-70 -6 -165 -14 -210 -18 -46 -3 -83 -10 -83 -15 0 -5 11 -37 25
-71 14 -35 23 -68 21 -75 -7 -18 -276 -19 -275 0 0 6 6 39 13 72 l13 60 99 5
c57 3 88 8 74 11 -14 4 -104 4 -200 0 -96 -3 -280 -6 -408 -6 -258 0 -252 -2
-252 66 l0 37 448 6 c246 3 476 10 512 15 l65 9 -80 -4 c-196 -10 -863 -15
-895 -7 -28 7 -36 15 -38 36 l-3 27 130 0 c110 0 131 -2 131 -15 0 -12 20 -15
120 -15 66 0 120 3 120 8 0 4 -51 7 -112 7 l-113 0 -3 28 c-4 29 12 36 26 12
7 -13 21 -14 79 -9 l71 7 5 36 c7 58 2 61 -79 61 -63 0 -75 -3 -84 -20 -10
-18 -8 -20 25 -20 48 0 42 -24 -7 -28 -33 -3 -36 -1 -42 29 -13 66 -9 69 122
65 59 -2 86 -7 93 -17z m172 -354 c-6 -78 -6 -78 -91 -71 -42 4 -78 9 -81 11
-2 3 4 23 14 44 19 43 34 49 115 47 44 -1 45 -2 43 -31z"/>
<path d="M5085 2057 c5 -20 0 -26 -32 -40 -21 -9 -47 -18 -58 -20 -18 -4 -17
-5 3 -6 12 0 40 8 61 18 l38 20 29 -30 c16 -17 50 -42 76 -55 58 -29 75 -57
57 -90 -7 -13 -21 -24 -31 -24 -10 0 -18 -5 -18 -10 0 -6 6 -10 13 -8 6 2 31
-3 54 -11 39 -13 45 -13 63 4 11 10 20 28 20 39 0 37 16 47 79 53 92 9 83 20
-12 15 -117 -6 -208 23 -277 87 -27 26 -50 55 -50 64 0 9 -5 17 -10 17 -6 0
-8 -10 -5 -23z"/>
<path d="M4309 1341 c-38 -38 -40 -97 -6 -137 47 -54 146 -25 162 48 21 92
-90 155 -156 89z"/>
</g>
</svg>
