<?xml version="1.0" standalone="no"?>
<!DOCTYPE svg PUBLIC "-//W3C//DTD SVG 20010904//EN"
 "http://www.w3.org/TR/2001/REC-SVG-20010904/DTD/svg10.dtd">
<svg version="1.0" xmlns="http://www.w3.org/2000/svg"
 width="650.000000pt" height="841.000000pt" viewBox="0 0 650.000000 841.000000"
 preserveAspectRatio="xMidYMid meet">
<metadata>
Created by potrace 1.16, written by Peter Selinger 2001-2019
</metadata>
<g transform="translate(0.000000,841.000000) scale(0.100000,-0.100000)"
fill="#000000" stroke="none">
<path d="M2544 7198 l-50 -103 -81 3 c-45 2 -84 -1 -87 -7 -3 -5 21 -42 54
-83 33 -40 60 -78 60 -85 0 -6 -15 -38 -34 -72 -66 -116 -61 -129 37 -91 39
15 75 26 79 24 8 -5 -14 -82 -73 -261 l-44 -133 -36 0 c-82 0 -135 -48 -154
-137 -9 -43 10 -104 40 -133 l25 -23 -20 -31 c-10 -18 -35 -65 -56 -106 -39
-81 -83 -158 -146 -257 -33 -52 -47 -65 -78 -73 -49 -13 -86 -43 -121 -99 -24
-37 -29 -56 -29 -107 0 -62 -1 -64 -67 -151 -76 -101 -264 -316 -270 -310 -2
3 1 51 7 107 15 152 14 181 -9 187 -19 5 -38 33 -23 33 5 0 23 14 41 32 29 28
32 37 28 71 -3 23 -19 56 -37 79 -27 33 -31 45 -25 75 l6 35 -31 -19 c-56 -32
-93 -89 -97 -147 -5 -62 11 -96 54 -116 37 -17 44 -40 13 -40 -11 0 -23 -6
-25 -12 -2 -7 -10 -113 -18 -234 l-13 -222 -98 -108 c-54 -60 -114 -133 -133
-161 -27 -43 -39 -53 -62 -53 -66 0 -150 -102 -151 -183 0 -70 43 -142 103
-173 33 -18 121 -20 162 -4 110 42 143 166 73 276 -16 26 -28 47 -26 49 2 1
23 13 48 25 25 12 83 45 129 73 70 42 87 48 102 39 29 -18 85 -14 140 9 27 12
51 20 54 18 2 -3 0 -22 -5 -44 -5 -22 -10 -54 -10 -72 0 -22 -14 -48 -47 -90
-26 -32 -50 -60 -53 -63 -3 -3 -27 -33 -54 -67 -26 -35 -51 -63 -55 -63 -11 0
-31 62 -31 96 0 17 5 35 12 42 6 6 9 15 5 18 -7 8 -120 -89 -142 -122 -8 -13
-15 -41 -15 -63 0 -33 5 -44 30 -63 40 -29 38 -50 -9 -101 -216 -231 -400
-464 -385 -488 9 -15 48 -10 88 12 l39 21 -7 -34 c-4 -18 -11 -55 -15 -81 -8
-46 -7 -49 17 -58 29 -11 72 -4 122 21 154 76 191 96 233 127 47 33 50 34 68
17 14 -13 29 -15 64 -11 l45 7 0 -34 c0 -42 -52 -124 -149 -233 l-72 -82 -34
15 c-69 29 -133 14 -187 -43 -57 -60 -71 -137 -41 -222 l16 -47 -102 -127
c-57 -70 -108 -130 -114 -134 -6 -4 -34 -8 -61 -9 l-51 -3 -47 74 c-38 57 -62
82 -115 117 -96 63 -132 80 -157 74 -34 -9 -144 -125 -188 -198 -22 -38 -44
-68 -49 -68 -4 0 -40 32 -79 70 -39 39 -75 68 -80 65 -4 -3 -11 -24 -15 -48
-3 -23 -13 -64 -22 -92 l-16 -49 41 -37 c27 -24 63 -42 103 -54 82 -23 62 -35
-58 -35 l-93 0 0 -124 c0 -139 -2 -136 78 -136 26 0 52 -4 58 -8 6 -4 16 -54
23 -112 7 -58 20 -163 31 -235 10 -71 30 -236 45 -365 15 -129 31 -245 35
-256 9 -23 44 -32 210 -54 41 -5 143 -20 227 -33 l151 -23 222 37 222 37 201
-28 c525 -73 511 -72 600 -59 96 13 407 62 557 87 l105 18 3 33 3 32 62 -5
c34 -3 152 -11 261 -17 109 -7 206 -12 215 -13 17 -1 24 48 55 378 9 87 17
161 19 163 2 1 17 -8 33 -22 16 -14 38 -25 50 -25 11 0 29 -9 40 -21 25 -28
91 -61 112 -57 12 2 19 16 22 46 l5 42 37 -25 c54 -37 186 -101 233 -114 59
-15 137 -20 158 -10 34 19 15 145 -39 251 -13 26 -24 50 -24 53 0 8 138 6 143
-3 3 -4 1 -32 -4 -62 -5 -30 -16 -118 -24 -195 -16 -139 -43 -324 -51 -337 -2
-3 -32 5 -67 20 -55 24 -74 26 -172 26 -122 -1 -266 -29 -334 -64 -23 -11 -66
-46 -97 -77 -48 -50 -53 -58 -37 -64 16 -7 1773 0 1781 6 2 2 -3 16 -12 32
-35 69 -156 147 -268 173 -82 19 -224 8 -323 -24 -44 -14 -85 -26 -91 -26 -6
0 -15 48 -23 123 -16 171 -33 448 -27 462 3 8 27 9 87 3 132 -13 443 27 603
78 58 18 121 28 218 35 76 5 148 13 161 18 26 10 47 70 47 133 0 39 -33 98
-55 98 -9 0 -15 9 -15 23 0 12 -11 40 -25 62 -19 32 -24 54 -25 107 0 60 2 68
26 85 l26 19 -21 155 c-11 85 -32 237 -46 339 l-25 185 23 20 c13 11 43 36 67
55 24 19 71 58 104 85 34 28 132 109 220 180 158 128 159 128 190 116 69 -29
83 -27 131 22 40 40 45 49 45 90 0 45 0 46 53 70 65 30 165 109 201 159 35 49
76 170 76 224 0 46 -20 101 -53 147 -47 64 -177 88 -259 46 -54 -28 -135 -105
-159 -151 l-19 -37 -35 20 c-72 43 -162 -7 -172 -93 -8 -68 2 -94 58 -153 l49
-52 -30 -13 c-18 -7 -41 -30 -54 -54 -39 -66 -40 -80 -10 -115 15 -18 25 -33
23 -34 -7 -4 -103 -90 -209 -189 -58 -53 -141 -126 -185 -162 l-80 -67 -9 52
c-7 44 -5 59 15 101 24 51 28 55 46 37 40 -40 55 42 41 221 -9 115 -39 232
-91 364 -19 47 -32 88 -29 91 3 3 18 5 33 5 43 0 42 14 -4 57 -57 53 -173 119
-244 141 -54 17 -58 20 -66 57 -4 22 -7 53 -5 69 3 29 5 30 55 30 45 1 57 6
83 32 53 52 53 147 0 204 -26 28 -35 31 -72 28 l-43 -3 0 45 c0 37 4 45 20 48
56 11 98 113 79 190 -9 35 1 119 20 178 8 24 63 44 125 44 43 0 171 -51 171
-68 0 -5 -7 -15 -14 -22 -48 -39 -39 -159 16 -205 23 -19 41 -25 78 -25 41 0
52 4 73 30 70 82 29 193 -85 230 -21 6 -38 17 -38 24 0 12 -82 109 -170 202
-60 63 -80 67 -245 54 -185 -15 -172 -9 -285 -126 -83 -87 -104 -103 -123 -99
-55 14 -114 -36 -143 -122 -23 -66 -13 -99 40 -133 l38 -25 -4 -65 c-3 -36
-10 -75 -17 -87 -11 -21 -12 -20 -62 27 -59 57 -102 74 -169 68 -106 -10 -175
-80 -167 -168 3 -25 8 -53 12 -62 4 -11 2 -19 -6 -22 -134 -39 -201 -107 -233
-235 -9 -37 -15 -45 -31 -43 -64 9 -156 1 -210 -17 -53 -19 -105 -54 -105 -71
0 -3 16 -14 35 -23 19 -9 35 -20 34 -24 0 -5 -18 -23 -40 -42 l-39 -33 -17 32
c-31 56 -119 203 -151 254 -17 27 -30 52 -27 55 2 4 57 6 122 5 228 -4 224 20
-61 341 -58 66 -106 123 -106 127 0 3 14 0 31 -9 40 -20 121 -13 157 14 37 26
64 86 64 136 -1 69 -55 122 -137 135 -44 7 -57 16 -110 71 -33 34 -76 84 -95
110 l-36 48 3 184 c5 223 1 249 -32 249 -41 0 -29 28 23 53 41 19 47 26 50 57
3 23 -4 50 -19 77 -21 38 -22 47 -11 75 16 42 8 47 -26 16 -15 -14 -46 -35
-68 -46 -47 -24 -91 -71 -100 -109 -9 -35 24 -76 70 -87 41 -11 47 -39 8 -44
-21 -3 -22 -8 -22 -81 0 -43 -3 -92 -6 -109 -6 -31 -7 -30 -68 61 -101 152
-191 297 -239 387 -83 154 -164 390 -181 522 l-5 47 55 -30 c55 -28 114 -39
114 -19 0 5 -14 51 -30 101 -26 76 -28 94 -18 108 7 9 34 42 61 74 26 32 47
62 47 68 0 5 -34 9 -75 9 -75 0 -76 1 -93 31 -44 80 -90 153 -98 156 -5 2 -32
-43 -60 -99z m117 -38 c18 -36 38 -69 44 -73 5 -4 36 -6 68 -4 31 2 57 1 57
-2 0 -4 -25 -35 -56 -70 -39 -45 -53 -68 -48 -80 24 -54 58 -161 52 -166 -3
-3 -44 13 -90 36 l-84 41 -103 -37 c-56 -20 -105 -34 -108 -31 -3 3 13 37 36
77 23 40 39 79 36 88 -3 9 -27 41 -54 71 -27 30 -48 57 -46 61 2 3 28 2 57 -1
29 -4 59 -5 68 -3 8 2 37 45 64 95 55 103 53 103 107 -2z m-51 -344 c0 -26 37
-189 57 -251 80 -249 149 -378 424 -792 181 -273 235 -346 298 -408 23 -21 41
-43 41 -47 0 -19 -92 -5 -182 26 -54 19 -98 31 -98 27 0 -4 11 -18 25 -31 14
-13 25 -28 25 -33 0 -5 29 -58 65 -116 68 -111 168 -242 284 -371 96 -107 154
-187 148 -204 -9 -24 -70 -30 -130 -12 -68 20 -77 20 -77 0 0 -10 -6 -14 -17
-11 -10 3 -31 8 -47 12 -16 3 -48 19 -72 36 -23 16 -45 29 -49 29 -3 0 -5 -23
-3 -52 2 -32 -1 -53 -9 -55 -10 -4 -99 94 -122 134 -5 10 -13 14 -17 10 -11
-11 65 -115 109 -151 38 -30 39 -30 53 -12 8 11 14 35 14 53 0 82 61 7 226
-281 l63 -109 -25 -36 c-45 -68 -81 -146 -98 -211 -24 -98 -31 -256 -16 -345
7 -41 10 -78 7 -81 -12 -12 -344 265 -456 380 l-44 45 18 62 c13 44 16 66 9
77 -17 28 -106 72 -146 72 -34 0 -37 2 -43 39 -13 76 -77 116 -178 112 -16 -1
-38 -12 -52 -27 l-25 -27 0 47 c0 37 10 67 49 139 88 167 241 475 241 485 0
14 -19 19 -130 32 -97 12 -473 10 -485 -2 -8 -8 67 -186 220 -518 23 -50 35
-91 35 -119 l0 -43 -40 36 c-34 30 -47 36 -85 36 -116 0 -185 -86 -185 -229 0
-66 26 -124 80 -180 50 -52 90 -71 156 -78 51 -5 54 -7 54 -33 0 -24 -5 -29
-37 -35 -54 -10 -73 -23 -73 -49 0 -41 31 -66 105 -87 93 -25 128 -24 162 5
27 24 28 25 11 53 -9 15 -37 39 -62 52 -41 21 -46 28 -46 57 0 32 2 34 34 34
18 0 54 3 80 6 42 6 46 5 46 -14 0 -29 93 -102 129 -102 27 0 67 22 87 49 13
17 33 5 165 -109 42 -36 140 -110 217 -165 82 -58 141 -107 141 -117 1 -9 -24
-72 -55 -140 -102 -224 -152 -342 -181 -426 l-28 -84 -75 6 c-239 20 -914 55
-919 49 -3 -5 -68 -102 -145 -216 l-138 -208 -36 3 c-36 3 -37 2 -74 -72 -21
-41 -44 -101 -52 -132 -8 -31 -32 -83 -53 -115 -32 -48 -44 -59 -71 -61 l-32
-3 0 115 0 116 28 6 c15 3 33 7 40 10 8 2 12 33 12 109 l0 105 -35 0 -34 0 -3
57 c-3 50 1 64 26 100 16 23 26 48 23 56 -3 7 -38 33 -79 57 -40 24 -83 50
-95 58 -22 14 -24 12 -59 -62 -20 -42 -40 -73 -45 -70 -5 3 -16 18 -24 34 -20
39 -72 74 -109 73 -39 -2 -174 -58 -203 -86 -46 -42 -30 -8 34 74 93 117 87
112 120 96 42 -21 117 -29 160 -18 67 18 123 96 123 171 0 43 -36 140 -51 140
-18 0 -8 27 17 51 14 13 57 63 96 111 39 48 74 85 78 83 4 -3 11 -17 15 -32
10 -42 42 -80 72 -86 44 -8 130 28 207 87 90 70 181 159 166 164 -6 2 -41 -26
-78 -62 -113 -112 -201 -166 -268 -166 -26 0 -39 7 -58 33 -21 28 -26 48 -32
131 -7 93 -8 97 -28 91 -12 -3 -36 -9 -55 -12 -33 -6 -33 -6 -26 26 l7 32 -64
-32 c-34 -17 -83 -46 -108 -63 -68 -49 -191 -107 -238 -113 -39 -5 -42 -4 -41
18 0 13 8 54 18 92 9 37 16 69 13 71 -2 3 -28 -9 -57 -25 -66 -36 -80 -37 -64
-6 23 43 153 213 205 267 29 30 72 80 96 110 l43 54 3 -129 c1 -71 0 -135 -2
-142 -3 -7 -18 -13 -33 -13 -41 0 -55 -13 -51 -46 l3 -29 95 -3 c52 -1 113 1
135 6 36 7 40 11 43 40 3 31 3 32 -39 32 l-42 0 8 103 c15 179 14 190 -17 205
-22 10 -28 20 -28 47 0 29 4 34 27 37 20 2 32 14 49 45 22 42 160 225 209 276
21 22 30 25 45 17 30 -16 98 -12 140 10 21 11 69 47 107 80 l68 61 9 -28 c13
-42 36 -63 69 -63 44 0 91 34 112 80 24 53 12 63 -14 12 -32 -63 -84 -88 -123
-58 -25 18 -22 54 5 76 27 22 17 36 -13 20 -17 -9 -29 -9 -47 -1 -31 14 -45 6
-38 -22 5 -18 -7 -33 -55 -74 -75 -64 -137 -90 -188 -77 -36 9 -37 10 -40 62
-2 40 2 64 18 94 11 22 19 42 16 45 -2 2 -26 -7 -53 -20 -26 -14 -68 -31 -92
-38 -42 -13 -44 -12 -65 13 l-21 26 -80 -50 c-146 -91 -232 -130 -271 -122
-19 3 -37 10 -40 15 -7 12 32 63 166 214 101 113 249 288 345 406 114 141 188
229 195 234 5 3 29 -10 54 -29 154 -117 355 14 302 198 -18 60 -61 109 -113
128 -18 7 -33 16 -33 20 0 5 17 37 39 71 53 85 189 342 257 484 48 102 171
444 203 570 10 37 20 47 54 52 4 0 7 -1 7 -3z m-220 -458 c0 -20 -92 -228
-101 -228 -20 0 -49 55 -49 95 0 60 16 97 53 123 34 24 97 30 97 10z m874
-192 c37 -63 35 -93 -8 -111 -19 -8 -42 -12 -50 -9 -9 4 -16 1 -16 -6 0 -8 -9
-10 -27 -5 -35 8 -63 33 -63 55 0 32 96 120 132 120 3 0 18 -20 32 -44z m-19
-238 c4 -17 4 -101 0 -187 -8 -173 -5 -169 -66 -69 -26 42 -27 47 -22 160 5
109 7 117 27 121 48 10 54 7 61 -25z m-1136 -346 c37 -27 61 -64 71 -106 13
-58 1 -102 -40 -148 -36 -41 -39 -42 -106 -46 -60 -3 -74 -1 -103 20 -47 32
-72 68 -78 115 -8 58 24 123 79 163 39 29 48 31 97 27 30 -3 66 -14 80 -25z
m-651 -79 c6 -16 23 -43 37 -62 31 -42 32 -74 3 -103 -20 -20 -23 -21 -26 -5
-5 23 -19 22 -27 -3 -8 -26 -21 -25 -50 5 -37 36 -34 98 6 153 17 23 34 42 38
42 3 0 12 -12 19 -27z m3861 -30 c59 -61 151 -167 151 -175 0 -4 -27 4 -60 18
-64 26 -114 30 -170 14 -54 -16 -59 -21 -80 -101 -12 -41 -23 -79 -25 -86 -3
-9 -23 -4 -67 16 -35 16 -101 42 -148 59 -47 17 -104 39 -128 49 l-43 18 98
102 98 102 70 6 c39 3 79 7 90 9 11 2 55 4 99 5 78 1 78 1 115 -36z m-2047
-163 c24 -10 63 -21 86 -22 23 -2 42 -6 42 -9 0 -4 -10 -19 -22 -35 -18 -22
-23 -41 -23 -86 0 -32 -3 -58 -7 -58 -4 0 -17 17 -28 38 -12 20 -41 69 -65
107 -60 96 -59 99 17 65z m294 -36 c70 -47 72 -147 4 -209 -17 -15 -36 -20
-82 -20 -55 0 -62 3 -89 33 -28 31 -34 52 -29 97 3 28 58 105 83 115 27 12 83
3 113 -16z m1210 -29 l92 -36 -5 -64 -6 -64 44 -11 c24 -6 61 -22 81 -36 21
-13 40 -24 43 -24 12 0 3 69 -15 108 -23 51 -17 52 70 9 l65 -32 3 -47 c2 -30
-3 -61 -14 -83 -14 -31 -21 -35 -54 -35 -21 0 -56 11 -81 25 -105 60 -126 66
-177 57 -39 -7 -59 -5 -105 13 -31 11 -62 26 -69 33 -7 7 -18 12 -25 12 -24 0
-53 39 -53 71 0 44 39 109 75 125 39 17 27 19 131 -21z m-3291 -17 c2 -7 -1
-81 -8 -164 l-12 -150 -37 -44 -38 -44 0 41 c0 59 20 346 25 361 2 6 18 12 35
12 17 0 33 -6 35 -12z m4132 -43 c18 -20 23 -39 23 -80 0 -48 -3 -57 -26 -72
-32 -20 -81 -19 -106 4 -41 37 -47 133 -11 169 25 24 92 13 120 -21z m-689
-215 c18 -11 41 -34 53 -52 18 -29 20 -44 15 -115 -6 -94 -25 -140 -83 -194
-98 -92 -236 -90 -293 3 -29 47 -28 175 1 234 27 57 87 117 130 131 58 19 140
15 177 -7z m-2198 -21 c47 -6 91 -12 98 -15 9 -2 -33 -95 -132 -291 l-145
-288 -16 -271 c-19 -340 -19 -314 5 -314 52 0 119 -62 89 -81 -28 -18 -62 -21
-116 -10 -116 23 -163 85 -80 105 30 8 40 7 47 -4 8 -12 10 -12 14 0 6 19 26
410 26 514 0 85 9 61 -197 524 -30 68 -52 127 -48 130 20 20 290 21 455 1z
m1761 -30 c15 -10 41 -35 58 -54 29 -34 31 -40 31 -120 l0 -84 -42 18 c-66 28
-134 42 -204 42 -73 1 -90 12 -100 64 -14 78 39 144 126 156 58 7 99 1 131
-22z m558 -92 c-1 -40 1 -71 5 -71 4 1 20 7 36 14 69 29 116 -22 111 -121 -3
-69 -97 -104 -146 -54 -14 13 -26 21 -26 17 -1 -4 0 -54 1 -111 l2 -104 -49 6
c-42 5 -126 -6 -225 -29 -24 -5 -28 -3 -28 15 0 45 -19 18 -25 -36 -8 -67 -36
-137 -68 -171 -85 -92 -231 -141 -356 -121 -121 19 -194 66 -249 159 -25 41
-27 54 -27 150 0 95 3 110 28 160 52 101 118 147 238 164 107 16 272 -33 332
-97 58 -63 85 -77 147 -77 104 0 206 72 251 177 21 50 29 140 16 191 -9 32 -8
33 13 22 19 -10 21 -19 19 -83z m-3872 -398 c80 -39 123 -153 84 -226 -27 -51
-64 -75 -121 -81 -87 -8 -152 30 -186 108 -24 54 -4 130 47 181 34 34 45 39
86 39 27 0 65 -9 90 -21z m2754 -19 l36 -10 5 -68 c6 -86 41 -154 108 -215 61
-55 120 -77 226 -84 129 -9 231 23 323 103 42 36 101 139 101 175 0 24 19 37
85 54 74 19 213 19 285 0 76 -20 249 -114 250 -136 0 -4 -18 -14 -40 -23 -42
-17 -53 -36 -21 -36 22 0 61 -91 105 -244 37 -126 61 -358 40 -379 -4 -3 -18
3 -32 13 -33 27 -57 27 -40 1 14 -23 -8 -70 -87 -190 -96 -145 -268 -293 -513
-440 -79 -47 -92 -45 -108 12 -8 26 -19 47 -24 47 -6 0 -10 -4 -10 -10 0 -11
-37 -32 -137 -76 -71 -31 -165 -94 -232 -154 -19 -17 -38 -29 -42 -28 -4 2
-27 21 -51 44 -24 22 -78 69 -121 103 -80 65 -139 130 -235 259 -43 59 -51 76
-42 88 10 11 10 14 -1 14 -8 0 -27 -16 -44 -35 l-30 -35 -42 57 c-82 113 -130
274 -140 473 -12 242 38 391 185 550 l62 68 -30 25 c-36 31 -36 33 -8 48 63
34 157 46 219 29z m2432 -14 c18 -7 46 -28 62 -45 29 -32 30 -34 30 -139 0
-100 -2 -110 -28 -154 -56 -93 -214 -208 -285 -208 -42 0 -249 150 -289 210
-25 35 -30 97 -13 131 16 28 67 51 100 44 39 -8 61 -36 67 -84 8 -58 23 -51
23 10 0 88 51 161 154 220 58 33 125 38 179 15z m-3909 -106 c35 -39 36 -42
36 -118 0 -64 -5 -84 -25 -121 -29 -50 -27 -63 5 -29 l21 23 -3 -65 -3 -65
-47 -3 c-66 -4 -129 28 -173 88 -40 55 -54 112 -44 188 12 91 65 142 150 142
42 0 51 -4 83 -40z m-1014 -58 c9 -37 13 -79 10 -92 -8 -32 -39 -39 -47 -11
-7 27 -19 27 -26 -1 -6 -21 -7 -21 -27 -3 -34 31 -27 78 21 130 23 25 44 45
48 45 3 0 13 -31 21 -68z m1307 42 c56 -35 73 -124 36 -185 -12 -19 -31 -61
-43 -95 -21 -60 -22 -61 -72 -72 -27 -7 -65 -12 -84 -12 l-34 0 0 93 c0 106 8
127 34 98 10 -10 28 -22 42 -25 31 -8 89 16 104 44 17 32 6 35 -23 6 -45 -45
-107 -31 -127 29 -19 58 13 126 65 137 28 7 76 -2 102 -18z m194 -161 c28 -15
49 -33 49 -42 0 -29 -40 -134 -76 -198 -38 -68 -67 -95 -93 -85 -29 10 -89 53
-95 67 -11 29 62 217 107 273 15 19 55 14 108 -15z m-1525 -125 c26 -12 26
-14 20 -73 -4 -33 -9 -95 -13 -138 l-6 -78 -31 3 -31 3 -5 115 c-8 188 -4 199
66 168z m1660 -154 c180 -165 191 -174 289 -248 108 -81 117 -90 110 -109 -4
-9 -12 -17 -17 -17 -15 0 -336 239 -435 323 -46 39 -83 76 -83 83 0 20 22 65
31 62 4 -2 51 -44 105 -94z m2937 54 c89 -53 125 -79 131 -94 9 -24 -19 -79
-53 -104 l-32 -22 -60 26 c-74 32 -152 82 -168 108 -25 40 56 134 107 123 12
-3 46 -20 75 -37z m-108 -180 c14 -6 24 -16 22 -22 -2 -6 -86 -77 -188 -159
-101 -82 -206 -167 -233 -190 -27 -23 -70 -58 -95 -77 -25 -19 -59 -48 -76
-64 l-30 -28 28 5 c15 2 29 1 32 -3 2 -4 13 -74 24 -156 11 -82 27 -194 35
-249 8 -55 16 -129 18 -165 3 -61 2 -65 -23 -77 -47 -23 -160 -33 -374 -33
-280 0 -561 16 -720 41 -177 28 -176 27 -173 89 3 63 -14 82 -79 90 -30 3 -48
10 -47 18 1 6 2 32 3 57 0 29 6 45 14 45 6 0 47 -32 90 -71 l78 -71 57 49 c91
79 131 105 246 157 116 53 126 53 126 -6 0 -38 16 -36 108 14 211 114 459 319
539 446 15 23 30 42 34 42 4 0 10 -21 14 -46 6 -40 3 -49 -16 -70 -25 -27 -18
-45 8 -22 10 8 65 54 123 103 58 48 147 126 199 174 52 47 102 93 111 101 9 8
36 32 60 53 48 41 49 42 85 25z m-2324 -429 c27 -54 97 -149 108 -149 5 0 18
12 28 26 l19 26 82 -109 c45 -59 82 -117 82 -128 0 -21 -27 -168 -36 -197 -4
-14 -16 -18 -48 -18 -66 0 -102 -17 -117 -53 -7 -18 -13 -33 -14 -34 -4 -7
-183 21 -268 43 -144 36 -207 62 -207 84 0 33 57 182 163 420 57 129 109 250
117 268 l13 33 28 -84 c15 -47 37 -104 50 -128z m-2259 -88 c38 -14 98 -83
109 -125 16 -59 3 -111 -40 -157 -36 -37 -40 -39 -102 -39 -108 0 -162 52
-161 156 1 117 100 201 194 165z m2675 -321 c13 -16 17 -89 6 -129 -6 -22 -9
-23 -61 -18 -30 3 -56 7 -57 9 -2 2 2 32 10 68 7 36 16 82 20 104 l6 38 32
-28 c17 -16 37 -36 44 -44z m-3407 -61 c47 -28 93 -60 103 -72 46 -57 107
-157 107 -176 0 -22 -14 -28 -25 -12 -7 12 -116 54 -122 47 -3 -2 16 -14 42
-25 49 -21 52 -41 8 -41 -46 0 -16 -13 38 -16 28 -2 53 -5 54 -6 2 -2 1 -15
-2 -30 l-5 -26 -131 -6 c-73 -3 -190 -7 -262 -8 l-130 -3 2 65 c4 90 53 187
145 285 39 41 75 75 81 75 7 0 50 -23 97 -51z m1890 -32 c0 -8 -12 -38 -65
-163 -12 -29 -19 -32 -72 -39 -68 -8 -105 -24 -156 -66 -43 -35 -43 -37 9
-168 l34 -85 -33 -27 c-17 -16 -37 -28 -44 -29 -7 0 -27 21 -44 48 -39 56 -45
61 -126 107 l-63 36 92 137 c50 75 115 169 143 207 l52 70 137 -9 c75 -5 136
-13 136 -19z m203 -6 c6 -6 -52 -114 -112 -210 -7 -12 -19 -11 -75 4 -36 10
-66 22 -66 27 0 10 57 175 65 187 5 9 177 1 188 -8z m-1152 -36 c38 -24 69
-51 69 -59 0 -23 -68 -86 -115 -107 -22 -10 -59 -21 -81 -25 l-40 -6 2 49 c1
33 9 60 27 86 15 22 32 54 39 73 6 19 16 34 21 34 5 0 40 -20 78 -45z m1524
14 c55 -6 101 -12 103 -14 3 -2 -16 -47 -42 -100 -25 -53 -46 -98 -46 -101 0
-2 -34 -75 -76 -161 -42 -87 -80 -168 -85 -180 -8 -22 -14 -23 -111 -23 l-103
0 50 28 c56 31 56 32 40 159 -11 88 -17 94 -57 57 -42 -40 -148 -117 -153
-112 -3 2 12 29 32 58 50 74 52 124 6 156 l-32 21 20 39 c46 87 92 170 103
183 11 15 142 11 351 -10z m-1797 -5 c13 -9 37 -34 53 -57 32 -44 39 -107 18
-179 l-10 -38 -194 0 c-111 0 -195 4 -195 9 0 5 33 15 73 21 100 17 102 18 22
20 l-70 1 40 19 c22 10 49 21 59 25 10 3 16 8 13 12 -4 3 -29 -2 -56 -11 -63
-20 -61 -20 -61 7 0 43 100 122 202 162 76 29 78 29 106 9z m1963 -158 c19
-48 19 -50 0 -70 -10 -12 -30 -40 -45 -63 -14 -24 -32 -43 -40 -43 -35 0 -63
-159 -31 -177 12 -7 12 -13 -5 -41 -19 -31 -21 -32 -94 -32 -41 0 -77 4 -80 9
-3 5 19 61 49 126 30 64 55 118 55 120 0 2 32 70 71 152 l71 148 15 -40 c8
-22 23 -62 34 -89z m738 110 c84 -8 158 -19 164 -25 13 -13 -5 -250 -23 -296
l-11 -28 -122 6 c-126 7 -174 16 -241 45 l-39 16 6 92 c8 110 34 186 68 195
33 10 27 10 198 -5z m-3776 -59 c67 -61 69 -63 62 -100 -5 -23 -13 -37 -22
-37 -33 0 -94 24 -123 49 l-30 26 16 63 c9 34 19 62 23 62 3 0 37 -28 74 -63z
m2375 -133 c39 -19 72 -41 72 -48 0 -16 -65 -124 -92 -153 -12 -13 -28 -23
-36 -23 -8 0 -43 -14 -78 -31 l-64 -30 -52 19 -51 19 -40 101 c-44 112 -44
117 18 146 53 25 155 45 205 41 25 -3 78 -21 118 -41z m921 -12 l183 -37 12
-35 c9 -28 20 -38 56 -51 37 -14 45 -21 42 -40 -1 -13 -4 -24 -6 -27 -10 -9
-568 87 -582 100 -13 13 78 129 100 127 6 0 94 -17 195 -37z m-2091 -138 l3
-101 -101 -9 c-117 -11 -108 -21 -112 118 l-3 87 85 4 c139 5 125 17 128 -99z
m252 17 l0 -88 -28 -6 c-15 -3 -66 -9 -113 -13 l-86 -7 -6 54 c-9 70 -9 134 0
142 3 4 57 7 120 7 l113 0 0 -89z m-480 -30 l0 -108 -47 -7 c-26 -3 -90 -9
-143 -12 l-97 -7 -6 54 c-9 71 -9 174 0 182 3 4 71 7 150 7 l143 0 0 -109z
m-316 -21 c3 -61 3 -116 0 -122 -6 -10 -239 -6 -249 4 -2 2 -7 52 -11 110 -8
125 -21 114 142 117 l111 2 7 -111z m-463 65 c4 -16 7 -64 8 -106 l1 -77 -152
5 c-84 3 -156 8 -159 12 -4 3 -9 43 -13 88 -5 60 -3 84 6 89 13 8 168 20 253
19 47 0 50 -2 56 -30z m183 -11 c3 -26 6 -75 6 -110 l0 -64 -79 0 -78 0 -7 53
c-3 28 -6 78 -6 110 l0 57 79 0 78 0 7 -46z m2202 -66 l7 -68 -57 -26 c-31
-14 -64 -24 -74 -22 -9 2 -26 20 -37 41 l-20 38 25 20 c70 57 135 98 141 92 5
-5 11 -38 15 -75z m1524 58 c193 -28 362 -38 744 -42 217 -3 385 -9 391 -14
13 -11 41 -88 34 -95 -3 -2 -53 -9 -112 -14 -112 -11 -614 0 -857 19 -490 37
-484 36 -488 71 -3 29 15 39 76 39 20 0 34 6 37 15 3 8 7 22 10 31 4 11 13 14
32 10 16 -3 75 -12 133 -20z m-2345 -25 c33 -15 75 -40 93 -56 54 -45 88 -144
63 -183 -7 -11 -186 -42 -321 -55 -25 -2 -25 -1 -24 71 2 79 22 154 60 220 29
49 29 49 129 3z m1339 19 c61 -11 156 -29 211 -40 55 -11 172 -29 260 -40 88
-12 205 -28 260 -36 165 -24 561 -53 894 -64 287 -10 377 -8 576 13 18 2 20
-5 23 -68 2 -46 -2 -76 -10 -88 -50 -68 -1126 -25 -1598 64 -58 11 -226 39
-375 63 -148 25 -300 54 -337 67 l-68 22 0 41 c0 42 22 86 42 86 6 0 61 -9
122 -20z m-720 -127 c44 -47 57 -183 19 -183 -20 0 -264 40 -283 46 -11 4 -6
10 15 20 l30 14 -32 -5 c-18 -2 -33 -1 -33 3 0 8 237 132 252 132 4 0 18 -12
32 -27z m-1004 -102 l0 -118 -65 -7 c-36 -4 -70 -4 -75 -1 -6 4 -10 57 -10
120 l0 114 38 4 c20 2 54 4 75 5 l37 2 0 -119z m-168 19 c1 -49 2 -105 2 -122
l1 -33 -75 -10 -75 -10 -3 -95 c-2 -75 0 -92 10 -82 6 6 26 12 44 12 l32 0 6
-122 c3 -68 7 -204 10 -303 l4 -181 -37 -2 c-20 -2 -47 -4 -61 -5 -22 -2 -25
3 -31 45 -8 52 -31 637 -33 840 l-1 127 85 11 c47 6 90 13 95 15 6 2 13 4 18
4 4 1 8 -39 9 -89z m-228 28 c3 -18 10 -172 15 -343 6 -170 14 -387 17 -482
l7 -171 -54 -11 c-94 -18 -219 -35 -224 -29 -15 15 -62 1015 -48 1029 5 5 58
14 118 19 61 6 115 13 120 15 31 11 44 4 49 -27z m-772 -29 c8 -40 34 -382 48
-629 5 -96 13 -208 16 -249 l7 -74 -63 6 c-34 3 -66 9 -70 14 -7 7 -58 401
-94 728 -13 113 -20 211 -17 238 1 5 38 6 83 4 l83 -5 7 -33z m152 -51 c3 -46
13 -200 21 -343 9 -143 20 -301 25 -352 6 -51 10 -124 10 -162 l0 -71 -47 6
c-27 4 -53 12 -60 18 -10 10 -25 162 -53 556 -6 85 -15 208 -21 272 -14 174
-19 158 55 158 l64 0 6 -82z m222 72 l83 0 5 -42 c3 -24 10 -160 16 -303 5
-143 15 -356 22 -473 7 -129 8 -216 2 -221 -10 -9 -230 23 -253 37 -8 4 -16
17 -17 28 -7 49 -24 256 -34 424 -7 102 -16 235 -21 295 -5 61 -9 146 -9 189
l0 79 61 -7 c34 -3 99 -6 145 -6z m2208 -31 c3 -3 3 -35 -1 -72 l-6 -67 -51 0
c-28 0 -103 9 -166 20 -63 11 -118 20 -122 20 -4 0 -3 12 2 26 6 14 10 39 10
56 l0 30 164 -3 c90 -2 167 -7 170 -10z m780 -34 c399 -68 577 -88 946 -106
326 -16 428 -24 400 -32 -181 -51 -417 -80 -566 -72 -68 4 -124 3 -127 -2 -3
-4 -1 -75 4 -157 10 -166 8 -176 -46 -176 -62 0 -65 4 -65 95 0 46 5 118 11
159 5 42 7 81 3 87 -14 24 -24 -21 -29 -137 -9 -195 -11 -204 -44 -204 -15 0
-36 6 -46 14 -18 13 -18 16 0 142 28 199 40 177 -97 191 -150 15 -260 43 -378
99 -93 44 -250 132 -250 140 0 7 20 4 284 -41z m-584 6 c0 -15 -3 -49 -6 -75
l-7 -46 -46 0 c-25 0 -63 3 -83 6 l-38 7 0 62 c0 34 3 65 7 68 3 4 44 7 90 7
l83 0 0 -29z m300 3 c38 -25 40 -30 40 -75 l0 -49 -165 0 -165 0 0 38 c0 20 3
54 6 75 l7 37 119 0 c111 0 121 -2 158 -26z m-1132 -45 l72 -12 0 -94 0 -93
-39 0 c-21 0 -66 3 -100 6 l-61 7 0 88 c0 104 5 120 34 115 11 -3 54 -10 94
-17z m-142 -26 c-3 -21 -6 -68 -6 -105 l0 -66 -117 -6 c-65 -4 -148 -9 -185
-12 l-68 -5 1 53 c0 29 3 71 7 93 l7 40 140 17 c77 10 147 19 155 22 8 2 28 4
44 5 28 1 28 0 22 -36z m1485 -48 c94 -46 162 -71 233 -87 96 -22 99 -24 113
-58 8 -19 24 -55 35 -80 24 -51 34 -116 24 -154 -5 -21 -12 -26 -39 -26 -105
0 -292 83 -400 178 -44 38 -65 36 -24 -2 21 -19 27 -35 27 -66 0 -29 -4 -40
-15 -40 -24 0 -67 25 -94 54 -14 14 -35 26 -49 26 -13 0 -37 13 -54 30 -26 27
-30 36 -24 68 3 20 6 54 6 75 l0 37 50 0 c45 0 52 3 60 26 6 14 10 39 10 55 0
16 2 29 4 29 2 0 64 -29 137 -65z m-1113 38 l32 -5 0 -74 c0 -41 1 -77 3 -81
3 -12 -60 -16 -120 -8 l-53 6 0 67 c0 37 3 78 7 90 6 25 14 25 131 5z m-758
-80 c0 -43 -4 -83 -8 -90 -4 -6 -51 -14 -109 -18 l-103 -8 0 82 c0 58 4 81 13
82 6 0 50 7 97 14 47 7 91 13 98 14 9 1 12 -20 12 -76z m961 46 c68 -11 128
-24 132 -28 8 -8 -10 -100 -23 -115 -5 -4 -65 -5 -134 -1 l-126 7 0 73 c0 68
4 85 20 85 4 0 63 -9 131 -21z m-1201 -83 l0 -73 -67 -6 c-38 -4 -107 -7 -155
-7 l-88 0 0 65 0 65 38 1 c20 0 73 6 117 14 44 7 97 13 118 14 l37 1 0 -74z
m1401 37 c1 -21 2 -23 6 -8 8 34 18 37 103 29 l83 -7 -7 -151 c-3 -83 -9 -227
-12 -321 -3 -93 -7 -185 -10 -204 l-5 -34 -91 7 c-50 3 -94 8 -97 11 -4 5 14
398 24 505 l4 45 -9 -45 c-5 -25 -16 -148 -25 -275 -10 -126 -18 -231 -19
-232 -1 -1 -28 1 -60 4 l-59 6 7 131 c7 139 23 330 32 384 4 27 9 32 34 32 27
0 29 3 40 58 17 86 20 92 41 92 14 0 19 -7 20 -27z m416 -95 c-6 -118 -54
-573 -63 -597 -3 -11 -22 -13 -85 -8 -44 3 -83 7 -85 10 -3 3 9 447 19 695 0
9 29 12 110 12 l110 0 -6 -112z m-978 -13 c2 -2 0 -161 -5 -352 l-9 -347 -138
-19 c-76 -10 -145 -16 -153 -13 -13 5 -14 42 -9 288 3 156 8 320 11 365 l6 82
46 4 c50 5 244 -2 251 -8z m-325 -367 c-4 -205 -8 -375 -10 -376 -6 -8 -270
33 -276 42 -4 6 -6 58 -3 116 2 58 7 210 11 338 4 127 7 233 8 233 0 1 62 5
136 8 74 4 136 8 138 9 1 1 -1 -166 -4 -370z m480 364 l40 -7 4 -321 c3 -237
1 -323 -7 -329 -16 -9 -175 -34 -181 -28 -6 6 0 674 6 685 6 10 84 10 138 0z
m234 -8 c22 -6 22 -10 17 -78 -3 -39 -12 -161 -21 -271 -8 -110 -18 -218 -22
-240 -8 -43 -24 -52 -98 -54 -40 -1 -42 0 -48 37 -3 20 -6 166 -6 325 l0 287
78 0 c42 0 87 -3 100 -6z m-998 -61 c0 -32 -4 -143 -10 -248 -5 -104 -10 -232
-11 -284 -2 -62 -7 -95 -15 -98 -7 -2 -52 1 -101 9 l-88 13 3 310 c2 171 6
318 8 327 6 19 33 24 142 26 l72 2 0 -57z m-236 -275 c-4 -178 -8 -325 -11
-327 -2 -3 -42 2 -90 10 l-87 14 -7 34 c-4 19 -11 157 -14 307 l-8 273 59 4
c33 2 83 4 111 5 l53 2 -6 -322z"/>
<path d="M2671 6173 c-37 -7 -109 -86 -116 -127 -12 -63 3 -107 52 -155 l46
-43 69 4 c65 4 72 6 103 39 41 45 51 104 30 175 -17 57 -47 90 -96 104 -35 10
-47 11 -88 3z m117 -40 c13 -8 33 -35 44 -60 28 -64 21 -125 -21 -166 -27 -28
-37 -31 -89 -32 -75 0 -126 34 -143 97 -33 126 100 229 209 161z"/>
<path d="M2916 5434 c-37 -43 -39 -44 -62 -29 -13 8 -24 14 -25 13 0 -2 -2
-34 -4 -73 -5 -104 -30 -154 -78 -155 -18 0 -112 87 -139 130 -14 23 -17 24
-40 11 -39 -20 -62 -11 -66 27 -4 37 -2 37 -46 16 -44 -21 -65 -14 -59 20 3
14 1 26 -5 26 -13 0 -24 -47 -16 -72 5 -16 12 -19 38 -15 17 3 38 8 47 12 12
5 18 -1 22 -24 6 -27 11 -31 40 -31 18 0 38 5 45 12 10 10 16 7 29 -12 37 -55
120 -130 144 -130 57 0 96 55 106 150 5 48 9 60 21 55 19 -7 92 67 92 94 0 11
-1 21 -2 21 -2 -1 -20 -21 -42 -46z"/>
<path d="M3242 4256 c-69 -14 -114 -48 -138 -103 -20 -46 -17 -81 10 -139 28
-61 82 -107 143 -125 38 -10 53 -10 98 5 93 29 142 106 133 210 -6 69 -37 117
-95 145 -49 24 -62 24 -151 7z m163 -36 c47 -29 68 -80 63 -151 -9 -126 -123
-194 -241 -144 -44 18 -94 78 -108 128 -18 69 21 151 86 178 11 4 53 8 94 8
57 1 81 -4 106 -19z"/>
<path d="M3130 3571 c0 -5 25 -60 55 -123 31 -62 57 -126 58 -143 2 -26 -2
-30 -26 -33 -36 -4 -127 38 -164 77 -17 17 -33 31 -37 31 -3 0 -6 -21 -6 -47
-1 -60 -17 -83 -60 -83 -24 0 -42 9 -70 38 -20 20 -42 46 -48 57 -11 19 -11
19 -25 1 -20 -27 -48 -16 -62 24 -9 26 -18 36 -36 38 -21 2 -22 1 -8 -11 10
-7 24 -29 33 -50 17 -43 36 -53 65 -38 17 10 24 6 46 -23 27 -35 79 -66 112
-66 27 0 63 36 70 71 3 16 7 29 9 29 2 0 27 -14 55 -32 63 -39 146 -50 169
-23 12 14 10 26 -9 88 -37 115 -121 267 -121 218z"/>
<path d="M2205 3412 c-110 -38 -162 -110 -152 -213 11 -127 101 -208 230 -209
155 0 243 131 197 294 -15 53 -69 119 -113 135 -41 16 -105 13 -162 -7z m184
-31 c47 -34 83 -112 84 -183 0 -49 -5 -66 -29 -101 -35 -50 -102 -87 -159 -87
-55 0 -135 40 -173 85 -62 76 -50 203 24 263 67 53 194 65 253 23z"/>
<path d="M2334 4886 c-3 -7 16 -60 41 -117 25 -57 52 -117 60 -134 7 -16 30
-69 50 -117 32 -75 41 -88 61 -88 20 0 31 14 70 98 92 194 155 345 147 352 -4
4 -102 10 -216 13 -167 5 -209 4 -213 -7z m352 -15 l62 -6 -45 -100 c-126
-284 -146 -325 -155 -325 -5 0 -21 26 -35 58 -50 113 -163 374 -163 378 0 6
267 3 336 -5z"/>
<path d="M5010 4260 c0 -5 16 -12 36 -16 19 -4 38 -13 41 -22 13 -32 -27 -156
-70 -220 -49 -73 -111 -124 -226 -182 -123 -63 -207 -77 -372 -63 -255 21
-377 94 -518 308 -78 119 -99 108 -25 -13 63 -103 143 -184 236 -237 114 -66
163 -77 377 -81 102 -2 187 -7 190 -11 59 -78 111 -199 111 -260 0 -34 -64
-93 -102 -93 -29 0 -48 -27 -48 -70 0 -27 27 -15 34 16 7 25 39 33 52 13 3 -6
22 -18 41 -25 33 -14 37 -13 78 10 102 60 138 176 191 616 3 30 12 62 19 70
18 22 52 119 60 173 8 52 12 54 56 31 34 -17 48 -12 30 10 -29 35 -191 74
-191 46z"/>
<path d="M3828 2653 c-53 -5 -51 0 -67 -113 -5 -36 -5 -72 0 -81 10 -19 49
-27 174 -35 113 -8 116 -6 123 114 5 87 4 88 -22 100 -31 14 -138 22 -208 15z"/>
<path d="M4390 5209 c-39 -16 -71 -50 -96 -104 -22 -45 -31 -85 -20 -85 2 0
27 11 54 25 47 24 77 33 115 34 13 1 17 10 16 44 -2 87 -18 107 -69 86z"/>
</g>
</svg>
