<?xml version="1.0" standalone="no"?>
<!DOCTYPE svg PUBLIC "-//W3C//DTD SVG 20010904//EN"
 "http://www.w3.org/TR/2001/REC-SVG-20010904/DTD/svg10.dtd">
<svg version="1.0" xmlns="http://www.w3.org/2000/svg"
 width="628.000000pt" height="472.000000pt" viewBox="0 0 628.000000 472.000000"
 preserveAspectRatio="xMidYMid meet">
<metadata>
Created by potrace 1.16, written by Peter Selinger 2001-2019
</metadata>
<g transform="translate(0.000000,472.000000) scale(0.100000,-0.100000)"
fill="#000000" stroke="none">
<path d="M3883 4240 c0 -47 2 -66 4 -42 4 39 6 42 26 36 108 -33 175 -110 162
-186 -5 -26 -11 -38 -20 -34 -18 6 -35 -14 -35 -41 0 -28 -36 -67 -56 -59 -8
3 -14 0 -14 -5 0 -11 16 -9 53 6 16 7 17 0 11 -102 -7 -107 -6 -109 26 -182
27 -62 30 -78 21 -98 -16 -34 -73 -55 -169 -61 -45 -3 -85 -9 -89 -15 -3 -5 9
-7 33 -4 22 3 66 9 99 13 76 8 133 36 141 69 4 18 -4 48 -25 95 -34 77 -40
137 -16 146 9 4 29 0 46 -7 25 -10 39 -28 69 -93 20 -45 51 -110 68 -146 39
-80 49 -125 32 -145 -7 -9 -8 -15 -2 -15 12 0 22 24 22 52 0 11 -26 77 -59
147 -32 69 -64 140 -72 156 -7 17 -15 33 -17 37 -5 10 84 21 112 14 14 -3 45
-32 69 -64 25 -31 53 -66 64 -77 10 -11 40 -47 67 -79 39 -49 47 -66 44 -92
-2 -20 0 -30 7 -28 6 3 25 -15 43 -38 17 -24 48 -61 69 -83 120 -128 138 -169
89 -211 -32 -28 -269 -106 -305 -101 l-26 3 32 13 c43 17 67 55 59 94 -3 17
-29 79 -56 139 -28 60 -48 114 -45 119 4 5 16 9 28 9 12 1 38 10 57 21 19 11
26 17 15 13 -59 -20 -183 -53 -205 -53 -14 -1 -86 -4 -160 -7 -147 -6 -207 3
-241 37 -11 11 -18 27 -15 35 7 18 1 18 -28 -1 -45 -30 -344 -43 -360 -16 -3
4 8 20 25 35 36 35 36 56 0 149 -36 94 -109 209 -172 269 -27 26 -49 50 -49
54 0 10 150 -8 215 -25 56 -15 62 -19 82 -61 12 -25 36 -101 53 -170 32 -130
57 -206 73 -227 7 -10 15 -9 38 2 15 8 42 15 59 15 16 0 30 5 30 11 0 6 -8 8
-17 5 -10 -3 -35 -8 -55 -12 l-38 -6 -2 128 c-4 223 -2 253 28 311 27 55 44
67 44 33 0 -11 2 -20 5 -20 14 0 62 30 79 49 23 26 32 26 79 2 46 -23 48 -18
5 9 -44 27 -59 25 -99 -10 -37 -32 -59 -38 -59 -16 0 8 -7 17 -16 20 -11 4
-21 -6 -35 -39 -27 -60 -36 -62 -42 -9 -2 25 -8 48 -12 52 -14 14 -45 -41 -46
-82 0 -22 -4 -50 -8 -61 -9 -22 -6 -30 -31 98 -16 83 -77 144 -86 87 -7 -36
-21 -46 -29 -19 -4 13 -18 39 -32 57 -19 25 -30 31 -45 26 -20 -6 -21 -3 -16
40 4 30 14 57 29 73 30 33 95 62 136 63 17 0 35 4 38 10 14 22 -116 -13 -159
-43 -42 -29 -56 -74 -55 -169 1 -68 3 -75 8 -41 13 79 28 73 37 -14 l7 -61
-104 4 c-183 7 -322 22 -394 43 -75 22 -120 27 -110 11 3 -5 12 -7 19 -4 8 3
45 -4 83 -16 38 -12 117 -25 179 -30 66 -5 124 -15 142 -24 76 -39 180 -182
234 -321 32 -82 33 -93 12 -123 -21 -30 -51 -41 -119 -43 -30 -1 -55 -6 -55
-11 0 -6 23 -7 53 -3 39 5 68 2 103 -10 29 -10 72 -15 108 -14 l60 3 38 -79
c21 -44 38 -74 38 -67 0 7 -14 40 -30 73 -17 33 -28 64 -25 69 4 6 25 10 48
10 23 0 59 5 81 11 35 10 41 8 65 -14 28 -27 86 -47 136 -47 28 0 33 -6 69
-88 50 -110 53 -165 14 -195 -39 -29 -273 -46 -338 -23 -39 13 -41 13 -28 -1
10 -9 42 -17 80 -20 l64 -5 28 -79 c34 -97 30 -121 -24 -146 -22 -10 -40 -21
-40 -26 0 -14 79 33 90 52 15 29 13 49 -16 124 -14 37 -24 71 -21 74 3 2 43 8
89 12 63 6 88 5 103 -6 11 -7 33 -13 50 -12 l30 1 -33 8 c-44 10 -50 18 -25
35 38 27 43 63 18 135 -12 36 -31 84 -43 107 -12 23 -22 45 -22 49 0 3 35 3
78 -1 56 -5 96 -2 145 9 38 9 74 16 81 16 15 0 83 -135 111 -219 17 -52 17
-54 -2 -80 -24 -32 -85 -49 -192 -52 -74 -3 -147 -16 -96 -18 21 -1 47 -49 86
-158 37 -102 -1 -128 -196 -139 -68 -4 -122 -11 -119 -15 3 -5 15 -7 27 -5 12
3 63 8 113 11 l91 6 48 -81 c26 -44 48 -92 49 -105 0 -14 5 -25 10 -25 15 0
-5 54 -49 130 -24 41 -40 79 -36 83 5 5 26 -1 47 -12 46 -25 81 -26 149 -6 32
10 37 13 15 9 -93 -15 -112 -16 -140 -4 -32 13 -39 27 -15 36 8 3 19 21 25 39
10 30 7 44 -20 112 -17 42 -36 83 -42 90 -5 7 -7 20 -4 29 6 15 20 16 120 11
67 -4 129 -2 150 4 46 13 50 9 109 -79 59 -89 64 -112 32 -151 -25 -29 -45
-38 -132 -61 -39 -10 -42 -12 -30 -30 15 -25 27 -26 20 -2 -4 16 6 21 59 35
35 8 91 18 125 21 l61 5 42 -70 c23 -38 50 -89 60 -112 11 -23 20 -35 20 -27
0 8 -24 59 -54 113 -30 53 -51 99 -47 102 4 2 33 14 64 25 32 12 79 38 104 57
53 40 50 42 103 -48 14 -23 30 -47 35 -53 19 -21 92 -131 109 -164 9 -18 14
-37 11 -42 -3 -6 1 -10 10 -10 22 0 -14 68 -105 200 -39 56 -77 114 -86 129
-8 14 -26 46 -39 70 -14 24 -49 67 -78 95 -68 65 -107 118 -107 142 0 23 -49
90 -162 224 -43 50 -78 99 -78 110 0 19 -49 89 -102 145 -15 17 -45 53 -65 82
-53 72 -81 87 -153 79 -31 -4 -76 -4 -99 0 l-41 7 0 66 c0 99 9 141 30 141 21
0 36 64 24 102 -18 58 -78 112 -156 137 -32 11 -37 17 -41 49 -2 20 -4 -1 -4
-48z m-436 -272 c3 -15 9 -28 13 -28 11 0 27 23 31 44 2 11 9 21 16 23 19 7
42 -38 54 -103 27 -155 44 -168 58 -46 7 74 16 96 30 73 9 -14 25 -460 17
-468 -9 -9 -25 41 -62 192 -49 194 -73 233 -156 250 -27 5 -29 10 -43 100 l-5
40 20 -24 c12 -14 24 -37 27 -53z m1371 -961 c51 -54 92 -106 92 -116 0 -29
-44 -69 -107 -96 -60 -27 -161 -55 -201 -55 l-23 0 20 29 c12 16 21 38 21 49
0 11 -25 57 -55 103 -30 46 -55 86 -55 90 0 4 30 17 68 30 37 12 83 32 102 45
19 12 38 22 41 21 3 -1 47 -46 97 -100z"/>
<path d="M2553 3488 c-59 -65 -23 -148 63 -148 15 0 38 13 56 30 25 26 29 36
24 63 -8 42 -48 77 -90 77 -21 0 -40 -8 -53 -22z m102 -5 c29 -29 36 -61 20
-92 -34 -66 -125 -50 -140 24 l-6 30 18 -30 c14 -25 18 -27 21 -11 2 10 -1 22
-8 26 -16 10 -3 50 16 50 8 0 14 -4 14 -10 0 -5 -4 -10 -10 -10 -5 0 -10 -5
-10 -10 0 -6 11 -3 24 7 17 13 21 21 14 31 -16 19 27 15 47 -5z"/>
<path d="M2698 3364 c-46 -24 -54 -91 -17 -130 32 -34 92 -33 124 2 28 30 30
46 15 91 -17 49 -71 65 -122 37z"/>
<path d="M2540 3171 c0 -7 -22 -34 -50 -61 -69 -70 -86 -139 -54 -220 10 -25
28 -47 45 -55 31 -17 65 -20 73 -7 3 5 -7 7 -22 4 -59 -8 -110 72 -96 149 17
94 108 179 189 179 42 0 145 -43 145 -61 0 -5 -17 -6 -39 -3 -45 7 -135 -17
-167 -44 -30 -25 -54 -75 -54 -112 0 -22 10 -41 34 -64 31 -32 35 -33 50 -18
15 15 16 15 16 -4 0 -12 -12 -33 -26 -48 -22 -21 -36 -26 -76 -26 -65 0 -102
21 -133 74 -44 75 -32 188 27 243 12 12 48 33 78 47 30 14 48 26 40 26 -22 0
-91 -36 -121 -62 -15 -13 -39 -43 -55 -67 -26 -40 -29 -53 -29 -130 0 -94 10
-122 67 -186 31 -36 96 -76 120 -74 7 0 4 4 -7 8 -15 6 -7 10 35 16 71 9 106
28 130 68 27 43 26 111 0 137 -25 25 -18 40 16 40 30 0 70 -41 79 -81 8 -35
-2 -104 -21 -140 -13 -26 -46 -44 -94 -52 -22 -4 -21 -4 6 -6 33 -1 109 42
151 87 126 134 81 347 -91 423 -57 25 -166 38 -166 20z m245 -112 c35 -16 75
-88 75 -134 l0 -30 -33 36 c-47 53 -90 72 -151 66 -62 -6 -96 -39 -96 -94 l0
-36 -25 23 c-50 47 -19 143 55 175 42 18 132 15 175 -6z m-47 -84 c41 -13 59
-25 82 -57 34 -46 36 -64 16 -112 -15 -35 -63 -96 -77 -96 -4 0 -3 17 3 37 17
62 5 123 -31 155 -39 35 -70 36 -101 3 -16 -17 -26 -21 -31 -14 -12 20 14 68
46 84 37 18 31 18 93 0z m-375 -132 c55 -105 233 -111 253 -8 13 69 54 55 54
-18 0 -75 -48 -118 -149 -132 -63 -8 -121 22 -162 86 -27 42 -32 61 -35 122
l-4 72 13 -45 c8 -25 21 -59 30 -77z"/>
<path d="M5448 2446 c-119 -43 -225 -144 -294 -282 -44 -89 -46 -99 -51 -197
-7 -129 15 -208 78 -282 12 -14 19 -46 23 -110 3 -49 7 -103 8 -119 2 -22 -5
-35 -34 -59 -31 -24 -51 -32 -105 -37 -38 -4 -56 -8 -41 -9 15 0 29 -5 32 -10
3 -4 10 -59 16 -122 l12 -114 -55 -155 c-40 -114 -57 -154 -68 -150 -30 10
-96 4 -110 -10 -48 -50 -57 -93 -24 -120 12 -10 12 -7 3 18 -9 23 -9 36 0 54
l11 23 7 -22 c3 -13 9 -23 13 -23 11 0 29 50 20 56 -16 10 1 24 29 24 15 0 38
-9 52 -20 l25 -19 -24 -18 c-14 -10 -28 -20 -33 -24 -4 -3 -12 -26 -17 -52 -8
-46 -8 -48 30 -82 54 -48 98 -48 146 0 34 34 35 38 30 87 l-7 52 23 -32 c12
-17 26 -32 30 -32 4 0 -3 15 -17 33 -32 42 -48 101 -44 157 3 43 4 44 12 15
24 -90 66 -147 122 -165 40 -14 98 -6 128 17 20 15 20 15 1 8 -11 -4 -32 -12
-48 -17 -88 -32 -189 63 -189 177 0 80 38 137 116 179 81 43 92 33 31 -28 -63
-63 -80 -108 -66 -181 13 -71 54 -108 124 -111 52 -2 54 -1 63 29 17 56 57 42
57 -20 0 -82 -48 -129 -143 -140 -38 -4 -58 -1 -91 16 -54 29 -62 20 -11 -14
44 -29 120 -55 161 -55 139 0 285 136 285 265 -1 83 -23 136 -85 196 -48 47
-67 59 -122 74 -40 11 -82 16 -107 12 -22 -3 -40 -1 -40 3 0 12 55 149 63 156
3 4 25 -1 49 -11 99 -40 246 -13 342 62 80 62 148 204 145 303 -1 25 -4 18
-10 -25 -30 -211 -170 -345 -359 -345 -136 0 -241 67 -298 187 -23 49 -27 72
-27 143 0 152 70 267 203 332 61 30 75 33 157 32 73 0 98 -4 133 -22 91 -48
158 -133 181 -229 5 -22 9 -29 10 -17 2 35 -27 103 -65 155 l-36 49 22 62 c34
97 38 220 10 307 -12 39 -35 84 -52 102 -18 21 -24 24 -14 9 9 -14 29 -50 44
-80 25 -50 27 -65 26 -165 0 -89 -5 -121 -23 -168 -13 -32 -26 -57 -29 -55 -4
2 -32 16 -62 32 -77 41 -190 48 -273 16 -81 -30 -175 -120 -211 -200 -15 -33
-30 -60 -34 -60 -13 0 -56 71 -73 123 -22 63 -24 181 -5 255 36 133 138 273
244 335 79 46 139 61 220 55 38 -3 58 -2 47 3 -31 12 -146 9 -187 -5z m-295
-1211 c29 -199 29 -194 10 -226 -21 -35 -31 -37 -37 -6 -6 27 -46 321 -46 335
0 11 41 22 51 13 3 -4 13 -55 22 -116z m372 -181 c49 -30 77 -65 39 -49 -36
14 -112 17 -149 5 -69 -23 -118 -96 -102 -157 3 -10 5 -2 6 18 3 111 138 174
251 117 49 -25 70 -57 77 -122 l4 -41 -21 28 c-32 40 -101 77 -141 76 -32 -1
-32 -2 10 -10 93 -18 161 -98 139 -162 -13 -36 -65 -117 -76 -117 -5 0 -8 36
-7 79 0 75 -2 81 -29 110 -35 36 -74 40 -101 11 -25 -28 -35 -25 -35 10 0 23
7 35 33 50 18 11 25 20 16 20 -8 0 -26 -11 -38 -24 -18 -19 -22 -33 -19 -60 4
-40 -6 -45 -34 -19 -17 15 -18 15 -13 0 4 -9 15 -19 26 -22 27 -9 24 -33 -6
-41 -32 -8 -96 24 -112 56 -7 14 -13 50 -13 81 0 65 29 117 95 169 36 29 45
32 96 28 39 -3 70 -13 104 -34z m-413 -35 c4 -41 -1 -69 -23 -131 -16 -43 -24
-78 -19 -78 6 0 10 8 10 18 1 9 10 -9 21 -41 12 -32 19 -61 16 -64 -3 -3 -18
4 -33 16 -15 11 -40 21 -55 21 -25 0 -29 4 -28 28 1 15 19 77 39 137 21 61 41
120 45 133 10 35 22 18 27 -39z m392 -184 c35 -23 50 -67 43 -126 -8 -66 -26
-101 -61 -118 -34 -16 -163 -19 -190 -5 -15 9 -11 12 27 17 73 10 114 35 138
83 24 50 18 106 -13 128 -43 30 12 50 56 21z m-413 -114 c21 -22 29 -39 29
-66 0 -51 -44 -95 -95 -95 -72 0 -122 93 -79 146 10 12 14 14 11 4 -2 -8 -1
-24 4 -35 8 -19 8 -19 15 3 3 12 10 22 15 22 5 0 9 5 9 10 0 6 -7 10 -16 10
-14 0 -14 3 -4 15 21 26 78 19 111 -14z"/>
<path d="M1715 1770 c-42 -13 -65 -56 -65 -122 0 -80 9 -87 114 -89 77 -3 90
-1 102 16 28 39 6 146 -38 182 -19 17 -79 23 -113 13z"/>
<path d="M435 1747 c-41 -16 -95 -50 -95 -59 0 -4 16 3 35 17 49 33 101 48
141 42 49 -8 109 -55 139 -108 60 -111 8 -253 -80 -219 -30 11 -32 26 -6 35
30 9 46 59 33 104 -28 92 -124 134 -246 107 -32 -7 -38 -6 -32 5 4 8 -2 3 -14
-11 -64 -74 -79 -185 -36 -275 21 -45 46 -74 112 -128 22 -19 88 -41 79 -28
-2 5 -17 11 -33 14 -16 3 -34 17 -42 32 -7 14 -19 24 -26 21 -17 -7 -62 48
-85 102 -18 42 -18 44 1 83 21 41 76 83 122 94 51 13 118 -38 118 -90 0 -22
-14 -18 -38 10 -26 29 -33 30 -72 10 -39 -20 -60 -64 -59 -117 l2 -43 6 52 c9
75 70 133 107 102 13 -10 12 -15 -8 -36 -30 -32 -30 -98 0 -141 26 -35 87 -62
143 -62 24 0 38 -4 34 -10 -9 -15 4 -12 44 11 42 24 101 94 118 141 17 49 15
127 -4 181 -40 110 -139 178 -259 176 -38 0 -83 -6 -99 -12z m200 -16 c94 -43
135 -101 135 -193 0 -64 -30 -122 -80 -156 -48 -33 -123 -27 -157 12 -24 28
-30 56 -13 56 6 0 10 -5 10 -10 0 -6 15 -18 34 -26 29 -14 37 -15 62 -3 41 21
68 74 68 134 -1 63 -24 108 -82 163 -48 45 -41 53 23 23z m-110 -92 c56 -33
83 -112 53 -152 -23 -29 -40 -24 -44 12 -5 45 -28 69 -77 82 -55 15 -115 -9
-162 -64 l-35 -41 0 35 c1 44 32 114 59 128 60 32 153 33 206 0z m266 -217
c-16 -58 -74 -128 -117 -142 -45 -15 -137 -7 -170 14 -13 9 -31 28 -41 43 -21
31 -20 100 1 121 13 13 17 9 38 -34 26 -56 54 -74 118 -74 42 0 74 14 107 46
20 19 53 88 53 110 0 11 3 24 8 28 12 13 14 -70 3 -112z"/>
<path d="M1494 1741 c-56 -35 -73 -154 -24 -178 31 -16 126 -17 136 -2 14 23
15 143 2 169 -18 33 -71 38 -114 11z"/>
<path d="M3225 1688 c-30 -27 -41 -76 -31 -143 8 -53 32 -70 113 -81 84 -11
93 0 93 107 0 82 -2 92 -25 114 -33 34 -112 35 -150 3z"/>
<path d="M3498 1692 c-42 -25 -58 -69 -58 -156 l0 -76 67 0 c47 0 79 6 110 21
50 24 58 45 50 127 -5 45 -12 62 -32 80 -32 27 -97 29 -137 4z"/>
<path d="M2442 1578 c-29 -36 -14 -76 57 -155 31 -35 58 -63 61 -63 3 0 14 13
23 30 10 16 24 36 32 43 27 27 65 90 65 107 0 40 -78 68 -108 38 -10 -10 -17
-10 -32 0 -26 16 -85 16 -98 0z m105 -20 c18 -17 23 -18 23 -6 0 18 20 28 56
28 16 0 28 -8 36 -25 9 -21 7 -30 -15 -62 -14 -21 -41 -54 -60 -75 l-34 -36
-50 52 c-42 45 -49 58 -48 90 2 58 48 75 92 34z"/>
<path d="M1462 1503 c-55 -11 -63 -76 -20 -154 33 -59 103 -78 149 -40 21 17
24 28 25 93 2 100 -3 108 -74 107 -31 -1 -67 -4 -80 -6z"/>
<path d="M1667 1493 c-36 -40 -14 -178 31 -202 22 -12 84 -14 119 -5 32 9 55
65 51 126 -4 68 -33 90 -121 96 -52 3 -65 1 -80 -15z"/>
<path d="M3204 1420 c-35 -14 -45 -115 -19 -192 15 -42 19 -45 66 -56 83 -19
137 15 154 96 8 41 -12 133 -33 150 -18 14 -135 16 -168 2z"/>
<path d="M3452 1422 c-35 -23 -20 -198 20 -232 42 -36 138 -38 172 -5 16 16
32 161 21 195 -4 12 -22 28 -41 36 -36 15 -151 19 -172 6z"/>
<path d="M2734 1300 c-84 -34 -60 -164 29 -164 80 0 119 96 61 149 -28 26 -53
30 -90 15z m102 -55 c10 -41 -4 -75 -38 -89 -17 -8 -39 -11 -49 -9 -26 7 -59
41 -59 61 1 16 1 16 11 -1 12 -21 29 -13 29 13 0 10 10 26 22 34 12 9 19 19
15 22 -4 4 -8 5 -10 3 -48 -64 -47 -63 -47 -40 0 13 12 29 32 41 28 17 34 17
60 4 15 -8 31 -26 34 -39z"/>
<path d="M577 895 c3 -38 6 -73 7 -77 0 -4 -21 -25 -49 -45 -108 -82 -120
-210 -27 -299 54 -51 99 -63 244 -63 l132 1 33 33 c18 18 33 40 33 49 0 9 15
22 33 29 48 21 105 85 123 139 54 162 -106 320 -266 262 -28 -10 -50 -22 -50
-27 0 -5 -7 -6 -16 -3 -8 3 -12 2 -9 -4 3 -6 -1 -10 -9 -10 -8 0 -13 -6 -11
-12 8 -23 -21 -50 -52 -46 -24 3 -29 8 -32 38 l-5 35 -5 -40 c-5 -34 -9 -40
-31 -40 -23 0 -25 5 -32 60 -11 89 -18 100 -11 20z m260 -14 c-79 -88 -52
-231 44 -231 18 0 28 -4 24 -10 -9 -15 -116 -5 -127 12 -41 61 -50 135 -23
188 16 31 80 80 103 80 9 0 0 -16 -21 -39z m162 21 c51 -25 51 -41 2 -35 -77
10 -141 -40 -141 -110 0 -26 7 -41 26 -56 14 -11 23 -25 19 -31 -11 -18 -51
-11 -74 14 -48 51 -35 146 28 204 41 37 86 42 140 14z m45 -56 c26 -11 37 -24
50 -62 17 -51 13 -71 -10 -40 -21 30 -66 56 -95 56 -32 0 -79 -35 -78 -58 0
-13 3 -11 9 5 29 73 140 45 170 -44 9 -26 8 -38 -9 -71 -31 -61 -41 -61 -41 1
0 40 -6 61 -21 81 -23 29 -60 34 -79 11 -7 -8 -16 -13 -20 -10 -5 3 -10 0 -12
-7 -8 -24 -38 19 -38 54 1 77 89 120 174 84z m-447 -80 c-40 -36 -57 -71 -57
-117 0 -37 23 -84 45 -93 27 -10 70 -7 83 6 6 6 22 12 34 14 22 2 23 -1 19
-48 -3 -46 -6 -51 -37 -64 -80 -33 -168 -5 -203 65 -22 45 -34 101 -21 101 6
0 10 -8 10 -17 0 -47 78 -113 135 -113 30 0 77 18 87 33 16 24 7 28 -18 8 -55
-43 -158 -14 -185 52 -17 40 -6 114 22 144 22 24 92 62 113 63 6 0 -7 -15 -27
-34z m118 12 c-4 -13 -14 -27 -23 -33 -71 -44 -96 -101 -63 -145 27 -37 27
-40 -7 -40 -66 0 -90 93 -42 163 27 40 83 76 118 77 20 0 22 -4 17 -22z m176
-168 c25 -14 49 -62 49 -98 0 -19 -11 -41 -29 -61 -25 -27 -36 -31 -79 -31
-44 0 -54 4 -76 31 -58 69 -15 169 74 169 23 0 50 -5 61 -10z"/>
<path d="M1493 708 c-36 -12 -67 -64 -60 -101 4 -20 4 -19 6 4 0 14 8 34 16
45 11 14 15 15 14 4 -4 -39 2 -45 21 -20 24 31 25 40 3 40 -13 1 -10 5 10 16
40 21 88 4 112 -40 18 -32 17 -33 -8 -58 -15 -15 -29 -38 -33 -52 -3 -14 -12
-26 -20 -26 -8 0 -14 -4 -14 -10 0 -5 6 -7 14 -4 9 3 21 -6 32 -24 19 -33 52
-52 89 -52 30 0 81 43 89 74 13 51 -35 116 -85 116 -20 0 -32 9 -48 35 -12 21
-36 42 -56 50 -39 17 -38 17 -82 3z m225 -114 c76 -53 21 -169 -70 -149 -34 8
-66 47 -63 77 1 13 3 30 4 38 1 12 4 12 12 -2 12 -22 29 -23 29 -3 0 8 5 15
12 15 9 0 9 3 0 12 -7 7 -12 16 -12 20 0 14 65 8 88 -8z"/>
<path d="M2075 703 c-16 -8 -51 -45 -77 -81 -62 -86 -65 -127 -14 -178 28 -28
41 -34 78 -34 26 0 54 7 68 18 13 9 42 26 65 37 96 48 106 183 16 233 -45 25
-93 27 -136 5z m129 -12 c39 -26 55 -57 56 -104 0 -46 -24 -91 -57 -106 -13
-6 -25 -11 -26 -11 -2 0 -1 15 1 34 5 43 -21 93 -59 114 -29 17 -38 32 -19 32
6 0 10 5 10 10 0 6 -11 10 -25 10 -14 0 -25 -5 -25 -11 0 -5 5 -7 10 -4 6 3
10 1 10 -5 0 -7 -6 -10 -14 -7 -7 3 -19 0 -25 -6 -14 -14 -14 -2 -1 23 26 48
113 64 164 31z m-98 -77 c58 -28 78 -88 49 -144 -19 -37 -43 -50 -95 -50 -57
0 -100 42 -100 98 0 57 35 93 108 111 2 1 19 -6 38 -15z"/>
</g>
</svg>
