<?xml version="1.0" standalone="no"?>
<!DOCTYPE svg PUBLIC "-//W3C//DTD SVG 20010904//EN"
 "http://www.w3.org/TR/2001/REC-SVG-20010904/DTD/svg10.dtd">
<svg version="1.0" xmlns="http://www.w3.org/2000/svg"
 width="650.000000pt" height="756.000000pt" viewBox="0 0 650.000000 756.000000"
 preserveAspectRatio="xMidYMid meet">
<metadata>
Created by potrace 1.16, written by Peter Selinger 2001-2019
</metadata>
<g transform="translate(0.000000,756.000000) scale(0.100000,-0.100000)"
fill="#000000" stroke="none">
<path d="M2189 6741 c-20 -4 -61 -19 -90 -34 -30 -14 -71 -28 -93 -32 -51 -8
-88 -37 -125 -96 -26 -42 -35 -49 -63 -49 -18 0 -53 -9 -76 -20 -34 -16 -48
-17 -64 -9 -12 6 -79 13 -150 15 -186 5 -242 -19 -321 -135 -20 -29 -37 -57
-37 -61 0 -5 -22 -16 -49 -25 -60 -20 -106 -68 -140 -147 -18 -40 -31 -58 -48
-63 -31 -7 -101 -80 -119 -124 -9 -20 -19 -58 -25 -85 -7 -36 -19 -58 -47 -85
-26 -26 -44 -57 -59 -101 -21 -65 -21 -65 -65 -72 -23 -3 -64 -7 -89 -7 -36
-1 -51 -7 -70 -27 l-24 -27 65 7 c245 24 824 28 1135 7 442 -30 780 -84 1022
-162 34 -11 75 -19 90 -17 26 4 24 6 -27 30 -46 21 -232 78 -343 104 -16 4
-25 10 -20 13 39 32 672 196 1178 305 487 106 750 149 1160 191 83 8 188 20
235 26 104 13 568 12 740 0 196 -15 347 -38 449 -67 18 -5 23 -4 19 7 -5 16
-136 52 -251 69 -307 46 -728 55 -1062 21 -190 -20 -276 -31 -585 -77 -193
-29 -172 -29 -197 9 -21 34 -88 67 -135 67 -10 0 -27 9 -37 19 -44 44 -71 55
-136 53 -49 -2 -72 3 -100 19 -36 21 -78 22 -156 3 -24 -5 -28 -2 -34 25 -8
37 -49 73 -109 96 -25 10 -48 26 -51 36 -4 10 -24 34 -46 53 -33 28 -52 36
-101 41 -60 7 -98 30 -98 58 0 37 -111 107 -170 107 -15 0 -40 11 -56 25 -33
29 -96 51 -171 60 -30 4 -58 14 -68 25 -29 32 -98 45 -173 31 -49 -10 -74 -10
-95 -2 -31 12 -63 12 -118 2z m143 -34 c38 -12 51 -12 91 1 60 19 108 9 154
-31 26 -23 47 -32 73 -33 64 -1 130 -25 165 -61 26 -27 39 -33 74 -33 64 0
109 -26 134 -76 19 -40 24 -44 76 -54 121 -24 141 -37 163 -105 12 -36 17 -40
57 -47 68 -12 88 -30 101 -93 13 -62 15 -63 100 -40 77 21 104 19 138 -10 31
-26 57 -32 67 -15 19 31 126 -6 140 -49 4 -14 20 -20 68 -25 41 -4 68 -13 81
-26 11 -11 17 -22 14 -25 -3 -3 -72 -19 -154 -35 -82 -16 -194 -39 -249 -51
-55 -12 -167 -36 -250 -54 -607 -131 -747 -166 -1010 -259 l-100 -35 -120 15
c-123 15 -243 25 -495 44 -80 6 -324 11 -543 11 l-397 2 0 29 c0 50 31 103 87
149 14 11 23 35 28 75 12 96 61 166 137 198 19 9 39 34 66 86 40 78 84 120
129 120 37 0 61 17 79 58 29 62 76 114 120 133 35 16 62 18 176 16 119 -3 139
-6 166 -25 27 -20 31 -20 43 -6 21 26 66 44 107 44 37 0 42 4 72 50 45 69 73
90 126 90 32 0 50 6 66 22 26 26 103 57 144 58 17 0 51 -6 76 -13z"/>
<path d="M5415 5776 c-115 -28 -179 -88 -200 -183 -9 -42 10 -97 41 -122 32
-26 30 -35 -11 -50 -34 -12 -37 -11 -57 14 -57 73 -110 105 -196 120 -23 4
-109 1 -191 -6 l-150 -12 21 -41 c11 -23 42 -68 69 -102 46 -58 94 -157 85
-173 -3 -4 -22 -15 -43 -23 -21 -9 -87 -36 -148 -61 -223 -93 -365 -114 -536
-81 -109 21 -252 21 -359 1 -272 -51 -499 -62 -1265 -62 -464 0 -497 1 -615
22 -69 13 -160 32 -204 43 -94 24 -163 25 -254 5 -37 -8 -157 -28 -267 -45
-281 -43 -433 -86 -530 -149 -95 -63 -152 -203 -162 -399 -4 -92 19 -475 32
-522 2 -8 16 -96 30 -195 37 -261 41 -357 21 -505 -10 -68 -19 -127 -21 -130
-2 -3 -11 -48 -20 -100 -21 -117 -21 -211 0 -408 9 -84 16 -186 17 -227 0 -41
4 -72 9 -69 5 3 9 13 9 23 0 9 7 26 16 37 14 17 15 -7 10 -276 -3 -201 -1
-301 6 -315 6 -11 31 -41 55 -68 47 -50 73 -101 73 -140 0 -54 20 -84 68 -105
48 -21 179 -39 206 -29 12 5 9 23 -19 109 -18 57 -46 133 -63 170 -51 112 -53
124 -46 380 4 131 10 238 13 238 9 0 72 -219 101 -355 5 -22 16 -67 25 -100
41 -156 45 -164 99 -218 52 -51 71 -87 95 -183 14 -53 45 -81 126 -110 68 -25
120 -31 129 -15 3 5 -1 30 -9 57 -19 64 -9 74 31 30 36 -40 49 -44 58 -20 9
23 8 31 -6 46 -13 14 -33 48 -71 123 -11 22 -26 47 -32 55 -21 25 -95 198
-120 279 -32 102 -62 225 -70 286 -4 28 -11 66 -15 85 -5 19 -14 120 -21 224
l-11 190 57 113 c74 144 78 148 134 126 l43 -17 -5 -48 c-4 -27 -2 -60 3 -73
10 -27 57 -55 92 -55 13 0 32 -7 42 -15 45 -34 85 -1 106 85 11 46 14 50 41
50 26 0 29 -3 29 -33 0 -36 40 -87 68 -87 10 0 28 7 41 16 18 13 28 14 48 5
56 -26 100 28 88 106 -6 44 -6 46 52 106 33 34 70 84 83 111 l23 48 46 -6 c25
-4 71 -11 101 -16 30 -5 121 -9 202 -9 l147 -1 -2 -147 -2 -148 37 -70 c26
-51 34 -75 27 -87 -21 -37 -39 -143 -54 -303 -10 -121 -22 -192 -40 -248 -21
-66 -25 -97 -25 -201 0 -140 -8 -194 -55 -361 -31 -112 -37 -185 -15 -185 5 0
20 14 33 30 14 17 28 30 31 30 2 0 6 -15 8 -32 2 -25 8 -33 23 -33 15 0 32 23
69 96 47 95 48 99 67 265 19 164 35 247 59 309 12 29 13 27 31 -55 28 -130 33
-239 19 -438 -16 -235 -7 -278 39 -187 25 51 41 58 41 19 0 -32 21 -104 30
-104 13 0 60 210 60 271 0 35 7 127 16 204 8 77 19 217 23 311 5 94 11 175 14
180 3 5 10 66 17 134 12 139 35 252 57 280 2 2 65 5 141 7 90 2 168 10 227 23
50 11 96 21 104 23 17 3 25 -13 46 -88 10 -33 37 -101 61 -152 102 -218 91
-320 -104 -1005 -9 -32 -13 -61 -9 -65 4 -3 21 9 37 28 l29 34 1 -32 c1 -96
109 42 162 207 17 52 41 124 53 160 13 36 35 115 50 175 15 61 32 119 37 129
20 38 68 240 68 286 0 27 -11 77 -26 116 -27 71 -39 194 -19 200 20 5 104
-108 130 -176 37 -97 47 -173 48 -360 0 -172 -9 -231 -63 -420 -38 -130 -74
-299 -66 -307 8 -8 18 4 50 59 l20 33 9 -68 c14 -100 23 -94 106 73 56 113 64
136 81 245 11 66 33 201 50 300 16 99 30 194 30 211 0 28 3 31 25 27 13 -3 45
2 71 11 26 9 48 16 49 16 1 0 5 -35 8 -77 4 -43 16 -112 27 -153 31 -110 36
-217 15 -334 -19 -103 -17 -274 2 -298 6 -7 27 -44 48 -83 35 -67 37 -75 42
-195 3 -69 6 -186 7 -260 2 -74 4 -189 5 -255 2 -90 -3 -145 -18 -219 -26
-124 -28 -206 -5 -206 9 0 39 23 67 50 28 28 56 50 63 50 28 0 36 39 24 111
-12 68 -11 71 32 211 42 138 43 147 40 262 -1 91 3 137 18 201 11 45 20 95 20
110 0 17 5 25 13 22 9 -3 12 -62 14 -243 1 -131 6 -279 12 -329 7 -62 6 -127
-1 -208 -15 -168 0 -193 87 -144 22 12 47 36 55 52 17 35 28 149 36 365 2 85
9 187 14 225 5 39 9 93 10 122 0 28 3 54 8 56 4 3 41 2 84 0 l76 -6 7 -46 c4
-25 14 -62 22 -81 8 -19 21 -55 28 -80 7 -25 25 -76 41 -115 22 -57 28 -86 28
-160 1 -80 -4 -107 -48 -250 -48 -159 -70 -221 -106 -299 -34 -75 -32 -81 28
-84 68 -4 99 14 108 64 4 22 2 40 -5 47 -8 8 -11 4 -11 -15 0 -14 -6 -30 -12
-35 -17 -13 -78 -34 -78 -26 0 3 15 51 34 107 143 431 149 556 40 838 -25 65
-37 115 -44 189 -12 121 -23 146 -30 64 l-5 -60 -107 2 c-80 2 -121 8 -164 24
-67 25 -144 77 -144 97 0 7 -4 10 -10 7 -5 -3 -10 -21 -10 -38 0 -18 -8 -60
-17 -92 -12 -42 -17 -103 -18 -205 -1 -132 -5 -158 -40 -300 -37 -148 -38
-157 -27 -223 13 -70 5 -107 -21 -107 -7 0 -28 -16 -47 -35 -19 -19 -38 -35
-42 -35 -14 0 -9 58 12 138 16 66 19 117 21 353 1 152 -1 281 -5 287 -4 7 -10
63 -12 125 -5 106 -7 116 -46 194 -39 79 -41 86 -39 174 0 50 3 95 7 100 3 5
9 46 14 90 9 93 -2 212 -30 322 -13 48 -21 114 -22 175 0 53 -5 102 -10 109
-7 9 -22 5 -61 -13 -60 -27 -130 -31 -182 -10 -34 15 -48 36 -22 36 6 0 32 23
57 51 37 42 52 51 88 56 40 5 44 9 69 59 64 131 179 169 318 104 l65 -30 40
20 c21 11 56 20 77 19 44 -1 105 -21 110 -36 2 -5 -20 -35 -50 -65 -45 -48
-61 -58 -111 -69 l-58 -13 8 -35 c4 -20 10 -68 13 -107 6 -69 9 -74 54 -123
26 -28 56 -70 66 -94 15 -35 28 -48 66 -66 27 -12 72 -49 104 -83 87 -94 169
-138 306 -163 39 -7 115 -23 170 -34 55 -11 126 -26 159 -33 66 -13 100 -37
156 -112 21 -28 46 -60 57 -71 70 -76 78 -112 43 -225 -11 -36 -25 -96 -31
-135 -12 -85 -27 -135 -40 -135 -5 0 -9 -5 -9 -11 0 -6 -19 -34 -42 -63 -24
-30 -48 -62 -54 -72 -10 -16 -13 -10 -24 40 -17 83 -8 137 38 230 22 45 48
113 57 151 14 61 14 79 3 134 -7 36 -19 66 -25 69 -7 2 -13 -2 -13 -8 0 -6
-16 -48 -36 -93 -33 -76 -75 -140 -138 -211 -43 -48 -85 -119 -107 -182 -27
-75 -36 -211 -19 -297 12 -64 12 -66 -25 -158 -21 -51 -66 -153 -101 -226 -35
-74 -64 -138 -64 -144 0 -5 -10 -14 -22 -18 -21 -8 -21 -10 -5 -16 11 -5 24
-2 32 6 14 15 139 262 196 387 l33 74 -12 82 c-14 98 -15 153 -3 160 5 3 14
-7 19 -23 6 -16 37 -69 70 -118 95 -139 104 -173 103 -387 -1 -105 -6 -159
-20 -211 -32 -121 -33 -125 -17 -125 10 0 25 29 42 82 25 76 28 95 27 238 -1
213 -29 334 -94 403 -29 31 -84 133 -103 193 -16 49 -16 53 3 95 23 51 57 103
125 191 49 61 116 195 116 231 0 9 5 17 11 17 7 0 8 -29 4 -88 -5 -76 -10 -92
-36 -129 -16 -23 -42 -68 -56 -99 -24 -54 -25 -62 -19 -168 10 -152 19 -221
30 -219 5 1 16 23 25 49 9 26 22 49 28 51 6 2 23 -22 38 -54 l27 -58 -12 -110
c-6 -60 -14 -182 -17 -270 -4 -145 -8 -168 -35 -245 -17 -47 -35 -91 -41 -97
-7 -10 -4 -13 10 -13 14 0 25 13 38 43 10 23 26 60 35 82 14 31 19 81 24 220
4 99 14 224 22 277 l16 97 -41 80 -41 81 34 38 c49 54 83 127 91 197 4 33 17
89 29 125 13 36 26 82 30 102 9 51 -15 130 -57 182 -18 22 -39 54 -47 70 -8
16 -34 51 -58 77 -47 53 -88 70 -212 89 -41 7 -111 20 -155 30 -44 10 -103 23
-130 29 -75 15 -136 44 -175 85 -45 48 -145 120 -191 139 -27 11 -43 28 -60
63 -13 26 -45 66 -72 88 -46 40 -47 43 -45 91 1 28 -2 69 -6 91 -9 45 -11 43
59 59 29 6 195 164 195 185 0 6 -17 10 -37 10 -21 0 -60 7 -87 15 -65 20 -131
19 -166 -2 -27 -16 -31 -15 -88 10 -93 42 -194 35 -265 -17 -16 -12 -47 -49
-70 -84 -22 -34 -45 -61 -51 -59 -6 2 -12 19 -14 38 -2 19 -16 50 -33 71 -47
59 -96 167 -109 239 -9 51 -9 96 0 195 7 71 14 178 16 238 2 61 6 111 8 113 8
8 87 -60 101 -86 22 -43 19 -59 -21 -136 -102 -199 -100 -287 9 -399 51 -53
73 -60 62 -18 -30 111 -23 184 29 297 30 65 36 89 36 144 0 36 -4 72 -9 80 -6
9 2 37 21 80 56 127 60 139 83 235 20 83 22 209 5 262 l-13 38 44 39 c24 22
86 71 137 108 51 38 119 93 151 122 182 164 232 196 302 197 25 0 45 -8 68
-29 32 -29 128 -81 148 -81 6 0 46 -12 89 -26 57 -18 100 -41 154 -82 101 -78
108 -81 161 -82 36 0 55 7 89 31 24 17 58 36 76 40 40 11 100 90 133 172 19
47 22 70 18 114 -3 31 -10 59 -14 62 -25 17 -109 140 -148 218 l-46 88 3 150
c3 149 3 150 -27 203 -33 60 -30 65 37 76 101 16 168 87 168 178 0 18 8 52 17
76 12 31 13 46 5 51 -6 3 -49 4 -94 0 -90 -7 -143 -27 -202 -79 -42 -37 -54
-38 -31 -3 47 71 37 151 -24 206 -38 34 -106 65 -118 53 -4 -3 2 -15 13 -27
14 -16 19 -36 19 -78 0 -103 -51 -137 -187 -125 -117 10 -143 19 -162 58 -14
30 -14 38 0 85 12 43 23 58 64 87 28 20 50 40 50 45 0 11 -1 11 -65 -5z m-61
-83 c-13 -19 -18 -47 -19 -89 0 -68 14 -93 70 -122 32 -16 196 -29 239 -18 58
14 112 111 102 183 -8 57 8 57 52 -1 33 -43 30 -100 -9 -162 -17 -27 -36 -52
-42 -55 -5 -4 -6 -12 -3 -18 14 -22 52 -10 111 35 77 58 109 71 195 80 60 6
70 4 70 -9 0 -29 -82 -112 -124 -126 -48 -15 -122 -65 -136 -92 -9 -15 -4 -33
22 -87 l33 -67 -3 -145 c-3 -116 0 -155 13 -195 30 -87 76 -172 126 -231 27
-32 46 -60 44 -64 -8 -13 -67 -22 -171 -27 -96 -4 -103 -6 -129 -33 -31 -33
-49 -99 -40 -153 l7 -38 -50 35 c-67 48 -77 45 -22 -7 26 -23 53 -52 61 -65 9
-12 40 -36 70 -53 l54 -30 -52 4 c-48 4 -59 9 -108 56 -58 55 -120 87 -225
115 -99 27 -143 51 -186 99 -21 24 -54 61 -72 82 -43 48 -51 39 -17 -19 25
-43 25 -46 8 -46 -49 0 -123 -33 -176 -77 -31 -27 -77 -66 -103 -88 -26 -22
-110 -83 -188 -135 -113 -76 -145 -103 -160 -134 l-19 -39 -33 66 c-19 36 -38
68 -44 72 -16 10 -12 -1 20 -65 88 -175 88 -285 0 -513 -56 -143 -50 -138
-109 -85 -28 25 -71 55 -96 67 -25 12 -49 29 -52 38 -17 44 -90 105 -156 128
-83 31 -138 31 -317 5 -118 -18 -150 -19 -255 -10 -153 14 -290 13 -432 -1
-135 -13 -163 -8 -112 23 l34 21 -25 9 c-54 21 -107 50 -154 83 -55 40 -96 45
-173 19 -68 -22 -80 -38 -23 -30 118 18 137 18 174 1 45 -22 42 -28 -10 -17
-38 8 -169 -9 -183 -24 -3 -4 35 -4 86 0 81 6 100 4 158 -16 36 -13 65 -27 65
-31 0 -4 -26 -19 -57 -33 -61 -27 -174 -35 -212 -14 -11 5 -25 10 -32 10 -23
0 12 -29 57 -46 52 -20 159 -14 196 10 19 12 34 12 88 2 41 -7 121 -10 220 -6
91 3 196 0 255 -7 145 -17 232 -15 390 7 77 11 154 20 172 20 79 0 169 -52
210 -122 9 -14 28 -32 42 -39 20 -10 22 -13 9 -16 -13 -3 -18 -21 -23 -81 -3
-42 -14 -120 -22 -172 -9 -52 -17 -144 -17 -205 -1 -136 24 -224 96 -331 60
-90 65 -137 18 -169 -16 -11 -34 -29 -41 -41 -6 -12 -29 -31 -50 -43 -21 -12
-39 -26 -39 -30 0 -4 30 -23 66 -41 59 -31 65 -36 60 -59 -3 -14 -12 -69 -21
-121 -15 -94 -28 -161 -46 -250 -5 -25 -14 -78 -20 -119 -6 -41 -22 -103 -36
-138 l-25 -63 -42 6 c-22 4 -45 10 -50 15 -6 5 -1 37 12 81 56 184 75 311 73
488 -2 151 -11 230 -37 310 -26 82 -42 109 -95 167 -51 56 -109 134 -109 148
0 7 -9 23 -21 36 -28 33 -58 91 -85 169 -18 51 -23 59 -23 35 0 -16 12 -67 28
-113 15 -46 25 -84 22 -86 -3 -2 -26 -7 -51 -11 -25 -4 -72 -19 -105 -32 -184
-78 -319 -107 -525 -115 l-74 -3 -7 42 c-5 24 -13 51 -19 60 -9 14 -10 6 -6
-38 4 -34 0 -77 -8 -110 -8 -30 -22 -108 -31 -174 -9 -66 -20 -147 -25 -181
-6 -33 -10 -101 -10 -151 0 -50 -9 -156 -20 -237 -11 -81 -22 -206 -25 -278
-2 -72 -6 -132 -7 -132 -2 -1 -29 0 -61 2 l-58 4 6 61 c13 133 10 300 -9 385
-17 78 -17 88 -2 172 9 49 14 99 12 112 -3 13 -13 106 -21 208 -19 219 -24
260 -37 260 -5 0 -7 -13 -3 -30 9 -41 -3 -38 -52 13 -67 69 -93 132 -92 224 0
43 4 101 8 130 11 76 -8 125 -84 218 -36 44 -65 85 -65 91 0 6 17 16 38 22 48
15 115 72 132 112 20 48 6 46 -41 -5 -60 -65 -123 -95 -199 -95 -60 0 -61 -1
-116 -55 -31 -30 -65 -55 -76 -55 -19 0 -19 1 1 26 34 44 23 52 -12 10 l-33
-39 -58 17 c-35 10 -71 29 -87 46 -31 30 -38 60 -15 60 8 0 16 5 18 11 4 12
38 1 38 -12 0 -5 -9 -9 -21 -9 -12 0 -19 -5 -16 -12 2 -7 15 -13 28 -13 17 0
25 6 27 21 4 27 -22 53 -59 61 -16 3 -29 9 -29 14 0 13 68 11 93 -3 12 -6 49
-14 82 -17 l60 -6 6 -40 6 -40 2 42 c1 50 -23 73 -79 73 -35 0 -130 29 -130
39 1 4 15 15 32 26 52 33 69 73 74 177 11 234 117 339 328 325 107 -7 165 -32
204 -89 17 -24 32 -54 34 -66 5 -34 24 -22 20 13 -8 68 -72 136 -158 166 -91
32 -199 25 -287 -20 -36 -18 -74 -42 -83 -52 -13 -14 -21 -16 -36 -8 -11 6
-43 11 -72 10 -87 0 -196 -9 -196 -15 0 -4 13 -21 30 -39 16 -17 49 -53 73
-79 37 -40 50 -48 80 -48 19 0 37 -6 40 -12 9 -28 -6 -154 -21 -182 -10 -16
-35 -39 -57 -51 -45 -26 -64 -64 -64 -135 -2 -95 51 -148 167 -169 82 -15 94
-10 158 51 39 37 44 39 95 36 49 -3 55 -6 68 -33 7 -16 31 -51 52 -77 22 -26
39 -49 39 -52 0 -3 -56 -6 -123 -6 -130 0 -249 15 -407 50 -186 41 -316 60
-417 60 -57 0 -103 3 -103 8 0 4 29 52 65 106 36 54 65 100 65 102 0 2 14 27
31 55 29 50 82 173 100 232 14 47 -10 20 -44 -51 -46 -96 -178 -319 -196 -332
-3 -3 -28 -39 -55 -80 -48 -73 -73 -111 -244 -363 -115 -169 -126 -209 -112
-387 21 -252 38 -360 92 -565 34 -128 56 -186 115 -309 24 -49 42 -90 40 -92
-1 -2 -29 -15 -62 -29 -32 -15 -70 -35 -83 -46 -14 -10 -28 -19 -32 -19 -4 0
-13 26 -19 57 -11 48 -21 65 -61 103 -41 39 -51 56 -74 130 -14 47 -28 99 -32
115 -7 34 -35 131 -101 355 -25 85 -58 200 -73 255 -15 55 -35 127 -45 160
l-17 61 33 109 c33 106 34 115 33 275 0 167 -6 213 -54 415 -32 136 -108 390
-143 480 -42 108 -47 200 -17 316 32 123 111 326 134 342 6 5 -3 6 -21 3 -76
-13 -158 -97 -183 -186 -25 -91 8 -593 70 -1035 5 -38 10 -117 11 -175 0 -58
4 -116 9 -130 4 -14 6 17 3 70 -3 77 -2 91 8 76 16 -26 27 -75 39 -171 10 -81
4 -199 -10 -190 -4 3 -10 -37 -12 -88 -3 -66 -13 -115 -32 -172 -50 -143 -54
-120 -20 123 8 56 14 132 14 167 0 61 -26 254 -36 264 -8 8 -4 -55 6 -110 14
-73 15 -178 2 -269 -6 -41 -16 -124 -22 -185 -14 -141 -20 -179 -28 -171 -3 4
-7 28 -8 54 -1 26 -8 108 -15 183 -12 132 -12 140 11 240 23 96 24 122 23 344
-2 230 -6 281 -47 565 -8 58 -20 175 -26 260 -6 85 -13 160 -14 165 -2 6 0 78
5 160 19 325 74 384 434 459 66 14 167 32 225 41 58 8 166 27 240 41 l135 26
177 -36 c267 -54 331 -57 1028 -51 657 5 719 8 1000 50 149 23 194 26 300 20
69 -3 145 -10 168 -16 82 -18 172 -13 277 16 55 14 114 33 130 40 17 7 81 36
143 64 l112 51 50 -20 c78 -31 321 -27 271 4 -5 4 -51 9 -103 12 -99 6 -166
24 -190 52 -8 9 -23 37 -32 62 -18 46 -60 104 -125 172 -19 21 -32 40 -29 44
4 3 76 8 161 11 143 5 158 4 203 -16 62 -28 87 -51 139 -131 24 -36 55 -75 69
-87 36 -31 90 -53 107 -42 17 10 10 17 -48 49 -53 29 -92 75 -77 90 6 6 33 16
62 22 29 7 52 16 52 20 0 4 -25 30 -55 59 -56 53 -61 66 -49 127 8 40 70 112
96 112 20 0 20 -1 2 -27z m755 -1235 c8 -21 -1 -83 -13 -95 -3 -4 -6 8 -6 25
0 38 -16 41 -54 11 -20 -15 -26 -29 -24 -48 4 -32 38 -40 63 -14 18 17 18 17
12 -16 -11 -54 -61 -108 -107 -116 -72 -12 -126 -9 -166 11 l-39 19 -3 78 c-3
78 -3 78 33 114 l35 35 78 -7 c59 -5 85 -3 112 9 49 21 69 20 79 -6z m-5496
-470 c2 -29 14 -114 25 -188 26 -173 37 -347 24 -380 -10 -24 -11 -24 -11 10
-1 19 -10 100 -20 180 -22 166 -41 350 -41 398 0 52 18 37 23 -20z m120 -383
c86 -354 94 -549 30 -745 -33 -102 -33 -103 6 -247 40 -153 41 -173 31 -588
l-5 -190 38 -90 c36 -84 87 -230 87 -244 -1 -16 -30 35 -30 53 0 44 -13 50
-71 31 -30 -10 -63 -24 -75 -32 -24 -15 -34 -9 -34 21 0 47 -24 99 -69 154
l-49 58 -3 360 -3 359 36 75 c113 240 145 507 79 679 -16 44 -18 62 -10 109
15 97 11 205 -16 392 l-5 35 18 -40 c10 -22 31 -89 45 -150z m3717 -267 c27
-60 25 -92 -16 -204 -29 -78 -37 -119 -42 -192 -5 -92 -5 -92 -25 -75 -26 24
-57 91 -57 126 0 15 16 58 36 95 20 37 48 87 61 112 19 35 23 56 21 95 -3 28
-8 58 -12 68 -5 11 -4 17 3 17 7 0 21 -19 31 -42z m-2590 -134 c102 -20 189
-40 194 -45 12 -11 -30 -71 -94 -134 -50 -49 -50 -50 -50 -114 0 -126 -75
-140 -104 -19 l-6 26 -92 -4 -93 -4 -12 -51 c-12 -55 -36 -89 -63 -89 -32 0
-41 25 -38 102 3 71 2 73 -22 76 -51 5 -150 34 -161 48 -8 10 -6 20 11 41 12
15 50 69 86 120 43 61 72 93 87 95 41 6 171 -12 357 -48z m2036 -419 c10 -15
14 -34 10 -49 -11 -43 14 -184 46 -264 l31 -77 -17 -65 c-9 -36 -34 -121 -56
-190 -21 -69 -58 -188 -81 -265 -56 -187 -99 -311 -113 -330 -8 -11 -20 -14
-44 -9 -38 8 -39 18 -13 100 69 213 120 456 121 570 0 75 -15 128 -81 274 -76
169 -100 233 -92 241 5 3 37 19 73 34 36 15 79 33 95 40 51 23 102 19 121 -10z
m-1161 -162 l35 -17 0 -75 c0 -42 7 -127 14 -190 9 -71 11 -120 5 -130 -17
-30 -98 -296 -108 -356 -6 -33 -15 -101 -20 -152 -5 -51 -19 -112 -30 -137
l-20 -45 -53 6 c-29 3 -55 7 -57 9 -1 1 4 24 13 51 33 102 48 198 47 318 -1
66 4 136 10 155 24 77 30 109 44 215 29 221 48 315 72 358 6 10 7 9 48 -10z
m-1323 -1082 c24 -43 18 -48 -21 -16 l-31 27 0 -47 c0 -25 7 -60 16 -76 26
-52 14 -60 -56 -39 -114 34 -140 65 -94 111 35 34 122 79 148 76 11 -1 28 -17
38 -36z m3598 -331 c22 -11 51 -20 65 -20 14 0 28 -7 32 -16 3 -9 -1 -60 -11
-113 -9 -53 -16 -139 -16 -191 0 -111 -17 -331 -32 -411 -9 -52 -13 -58 -52
-77 l-41 -22 -3 33 c-2 17 1 66 8 108 8 58 8 104 -2 190 -7 63 -11 132 -10
154 1 22 3 114 5 205 2 91 4 168 5 173 3 10 9 9 52 -13z"/>
<path d="M5407 4955 c-21 -7 -41 -15 -43 -18 -3 -2 3 -28 13 -58 24 -72 68
-103 132 -95 24 3 50 11 57 17 21 17 17 62 -9 100 -36 54 -93 75 -150 54z"/>
<path d="M1784 4790 c4 -14 25 -61 47 -105 21 -44 39 -90 39 -102 0 -11 -20
-74 -45 -139 -41 -109 -48 -154 -24 -154 5 0 9 1 9 3 0 2 20 61 45 131 25 71
45 139 45 152 0 13 -25 70 -56 126 -63 115 -69 124 -60 88z"/>
<path d="M1217 1120 c-2 -8 -12 -48 -21 -89 -9 -41 -23 -88 -30 -105 -8 -17
-31 -78 -52 -136 -32 -89 -37 -118 -38 -191 l-1 -87 -65 67 c-36 37 -90 86
-120 108 -30 23 -71 57 -89 77 -41 43 -73 51 -47 12 27 -42 56 -127 81 -241
50 -226 55 -234 196 -374 86 -86 118 -111 138 -111 l27 0 -12 103 c-14 119
-26 177 -53 245 -28 69 -36 157 -21 227 7 32 34 114 61 182 27 68 49 132 49
143 0 28 19 34 24 8 34 -157 35 -371 2 -534 -13 -66 -27 -141 -30 -169 -8 -68
6 -197 22 -203 9 -3 12 21 12 98 0 88 4 114 32 193 36 106 85 189 156 265 7 8
24 36 38 63 13 27 27 49 31 49 11 0 -6 -121 -28 -193 -22 -74 -56 -148 -105
-232 -63 -105 -103 -245 -71 -245 9 0 18 13 22 32 4 18 26 67 48 108 133 243
155 316 163 533 3 93 2 147 -5 147 -5 0 -13 -15 -16 -32 -13 -62 -72 -165
-141 -247 l-69 -83 -6 158 c-4 88 -12 186 -18 219 -19 105 -59 251 -64 235z
m-298 -507 c100 -92 151 -166 185 -271 20 -61 56 -222 56 -249 0 -5 -56 44
-147 130 -53 49 -95 133 -128 257 -15 52 -34 121 -45 153 -10 31 -15 57 -11
57 3 0 44 -35 90 -77z"/>
<path d="M1575 1078 c3 -29 10 -75 15 -103 5 -27 14 -82 20 -121 24 -152 64
-253 167 -416 90 -145 134 -244 158 -356 5 -25 12 -32 29 -32 21 0 26 11 61
155 50 210 114 337 250 496 16 20 47 57 69 83 21 26 40 45 43 42 6 -6 -81
-271 -111 -340 -46 -103 -199 -359 -232 -388 -51 -45 -41 -68 14 -30 15 10 79
40 142 67 176 75 235 118 422 307 91 92 161 168 155 168 -7 0 -25 -7 -42 -16
-16 -9 -96 -38 -176 -64 -81 -27 -173 -65 -205 -84 -33 -19 -60 -33 -62 -31
-2 1 17 63 43 137 25 74 56 170 69 214 30 98 47 145 81 218 15 32 24 60 21 64
-7 7 -4 12 -60 -76 -25 -40 -63 -92 -84 -114 -20 -22 -41 -46 -47 -52 -5 -6
-35 -42 -66 -81 -132 -167 -139 -178 -189 -300 -31 -75 -31 -75 -50 30 -16 88
-67 209 -116 277 -33 46 -182 224 -237 283 -10 11 -30 41 -45 67 -15 27 -31
48 -35 48 -5 0 -6 -24 -2 -52z m120 -150 c22 -28 59 -72 83 -98 94 -105 166
-248 208 -416 l28 -110 -18 -100 c-11 -54 -22 -105 -26 -113 -4 -8 -14 16 -24
61 -19 86 -61 178 -133 293 -77 124 -110 202 -142 336 -41 172 -45 199 -29
199 7 -1 31 -24 53 -52z m899 -446 c7 -11 -158 -172 -217 -212 -53 -35 -239
-131 -245 -126 -6 7 134 183 173 218 50 44 68 54 180 94 101 37 102 37 109 26z"/>
</g>
</svg>
