<?xml version="1.0" standalone="no"?>
<!DOCTYPE svg PUBLIC "-//W3C//DTD SVG 20010904//EN"
 "http://www.w3.org/TR/2001/REC-SVG-20010904/DTD/svg10.dtd">
<svg version="1.0" xmlns="http://www.w3.org/2000/svg"
 width="981.000000pt" height="1283.000000pt" viewBox="0 0 981.000000 1283.000000"
 preserveAspectRatio="xMidYMid meet">
<metadata>
Created by potrace 1.16, written by Peter Selinger 2001-2019
</metadata>
<g transform="translate(0.000000,1283.000000) scale(0.100000,-0.100000)"
fill="#000000" stroke="none">
<path d="M3225 12607 c-35 -14 -122 -68 -150 -94 -76 -70 -139 -80 -180 -30
-52 64 -70 80 -115 99 -57 25 -129 19 -203 -16 -60 -29 -83 -47 -117 -96 -13
-19 -27 -37 -31 -40 -13 -10 -49 -94 -49 -115 0 -12 -10 -33 -21 -46 -12 -13
-28 -34 -36 -47 -21 -30 -67 -49 -137 -55 -33 -3 -81 -17 -111 -31 -28 -14
-56 -26 -60 -26 -4 0 -23 -11 -41 -25 -46 -35 -84 -108 -84 -161 0 -36 6 -48
37 -79 20 -19 44 -35 54 -35 10 0 20 -4 23 -9 10 -15 147 -41 243 -45 43 -1
45 -15 6 -36 -92 -49 -309 -265 -377 -376 -25 -41 -53 -97 -63 -126 -9 -29
-23 -64 -30 -78 -7 -14 -13 -48 -13 -77 0 -69 24 -93 91 -93 26 0 50 -4 54
-10 3 -5 44 -34 91 -65 72 -48 134 -80 259 -135 38 -17 129 -40 157 -40 30 0
36 -13 16 -35 -7 -7 -22 -25 -33 -41 -20 -28 -37 -46 -153 -169 -106 -111
-167 -186 -212 -258 l-45 -72 0 -100 c0 -76 5 -108 18 -132 18 -34 68 -77 102
-87 11 -3 41 -26 67 -51 26 -25 54 -45 63 -45 8 0 15 -4 15 -8 0 -16 110 -45
192 -51 l83 -6 2 -314 c2 -260 5 -322 19 -365 9 -28 22 -56 29 -61 14 -12 27
-70 50 -240 9 -66 21 -130 26 -143 5 -13 9 -33 9 -45 0 -12 7 -35 15 -51 8
-15 15 -44 15 -62 0 -19 4 -34 10 -34 5 0 12 -17 16 -37 4 -21 13 -50 20 -65
8 -15 14 -36 14 -46 0 -20 20 -70 42 -107 7 -11 26 -42 42 -70 84 -140 195
-273 294 -354 31 -25 63 -52 71 -59 8 -8 33 -25 55 -39 23 -14 43 -29 46 -33
7 -9 90 -59 113 -66 9 -4 17 -10 17 -15 0 -5 6 -9 13 -9 7 0 31 -13 53 -30 21
-16 45 -30 52 -30 7 0 19 -6 26 -13 8 -7 33 -19 57 -26 24 -7 57 -19 73 -27
41 -21 172 -55 241 -64 34 -4 70 -12 82 -18 12 -7 38 -12 58 -12 20 0 66 -8
102 -18 59 -15 71 -23 112 -71 58 -68 111 -122 141 -141 12 -8 39 -26 59 -40
20 -14 51 -32 69 -39 21 -9 32 -20 32 -33 0 -35 -177 -294 -245 -359 -98 -92
-143 -128 -180 -142 -58 -22 -305 -40 -380 -27 -33 5 -152 10 -265 10 -164 -1
-209 -4 -224 -15 -11 -8 -29 -15 -40 -15 -26 0 -121 -44 -142 -65 -9 -8 -24
-15 -34 -15 -22 0 -42 -28 -59 -82 -7 -20 -36 -60 -65 -90 -61 -62 -69 -79
-54 -113 10 -22 18 -25 59 -25 26 0 51 5 54 10 7 11 103 14 129 4 21 -8 20
-33 -1 -41 -28 -10 -73 -66 -73 -90 0 -39 28 -56 79 -48 25 4 84 8 131 9 129
3 352 37 375 58 5 4 19 8 32 8 12 0 37 6 55 14 87 39 193 76 214 76 12 0 25 4
28 9 13 20 217 27 336 10 127 -17 260 -22 284 -10 12 6 75 12 141 13 l120 3 3
28 c4 33 -16 59 -68 88 -28 16 -41 33 -54 69 -10 27 -24 54 -32 61 -9 7 -14
32 -14 72 0 54 7 73 61 181 33 67 67 128 74 136 8 9 21 31 30 50 8 19 30 56
48 81 17 26 40 60 49 77 18 34 73 62 119 62 18 0 42 -12 65 -32 60 -53 197
-131 299 -171 82 -32 151 -56 193 -67 23 -6 42 -15 42 -19 0 -5 -11 -34 -25
-65 -14 -31 -25 -65 -25 -76 0 -10 -4 -21 -9 -24 -4 -3 -23 -43 -41 -88 -38
-96 -48 -122 -85 -203 -71 -154 -76 -163 -157 -248 -57 -61 -99 -67 -450 -67
-386 0 -502 -14 -730 -86 -130 -40 -252 -135 -288 -222 -28 -69 -60 -122 -73
-122 -7 0 -17 15 -22 33 -8 27 -14 32 -37 30 -25 -2 -28 2 -28 28 0 17 -6 32
-15 35 -20 8 -88 -48 -126 -102 -33 -48 -57 -55 -77 -24 -20 32 -37 24 -63
-30 -13 -27 -29 -49 -36 -50 -6 0 -19 13 -30 29 -42 65 -109 150 -118 151 -27
0 -33 -16 -25 -60 13 -67 12 -120 -2 -120 -7 0 -23 13 -35 29 -30 37 -99 69
-115 53 -9 -9 -7 -21 9 -49 27 -49 27 -146 1 -151 -10 -2 -23 1 -30 7 -71 59
-106 85 -127 92 -34 14 -46 -2 -32 -42 6 -17 11 -38 11 -45 0 -19 -45 -18 -74
1 -27 18 -76 11 -76 -11 0 -8 1 -14 3 -14 36 0 127 -27 144 -42 26 -25 59 -20
55 7 -16 96 -15 100 22 66 25 -23 96 -61 113 -61 28 0 46 49 40 106 -8 75 9
80 73 20 28 -26 55 -44 61 -41 7 5 8 33 4 80 -4 44 -3 75 3 79 5 3 22 -13 37
-37 35 -53 75 -97 90 -97 18 0 51 32 59 58 9 27 27 24 41 -6 17 -38 65 -21 65
23 0 20 99 129 101 110 6 -84 19 -107 47 -82 24 22 35 21 57 -3 23 -26 97 -27
145 -2 24 13 49 17 83 14 26 -2 47 -7 47 -11 0 -3 -9 -17 -20 -31 -11 -14 -20
-36 -20 -50 0 -14 -9 -43 -19 -64 -35 -68 7 -110 78 -79 20 8 68 19 106 23 72
8 147 26 177 41 10 5 24 9 32 9 8 0 43 13 78 29 119 54 138 60 138 41 0 -5 -7
-10 -16 -10 -24 0 -143 -111 -166 -155 -11 -22 -36 -57 -54 -78 -19 -20 -34
-40 -34 -45 0 -10 49 -62 58 -62 4 0 23 5 42 10 19 6 76 15 125 20 53 6 117
20 155 35 110 44 362 173 455 233 22 14 81 47 130 73 50 25 104 54 120 63 24
13 61 16 183 16 145 0 282 16 282 32 0 5 4 8 9 8 5 0 26 16 47 36 22 20 49 46
62 57 13 12 30 39 39 60 15 37 43 51 43 22 0 -24 37 -58 54 -52 9 4 16 15 16
25 0 19 59 93 110 139 39 36 120 86 127 79 3 -3 -3 -25 -14 -48 -60 -128 -72
-159 -67 -173 7 -17 44 -21 44 -5 0 17 123 90 153 90 31 0 34 -13 11 -58 -11
-24 -13 -36 -4 -52 12 -22 22 -24 48 -11 35 18 93 41 102 41 6 0 10 -16 10
-35 0 -28 5 -38 23 -44 12 -5 27 -5 32 -1 27 20 67 20 95 0 17 -12 38 -21 47
-21 24 0 112 11 143 17 24 5 24 6 6 20 -13 9 -33 12 -60 8 -46 -7 -95 -6 -107
2 -5 3 -9 16 -9 30 0 19 -5 24 -24 24 -14 0 -28 -4 -31 -10 -3 -5 -22 -10 -42
-10 -30 0 -34 2 -23 15 10 12 10 18 0 30 -10 12 -24 14 -59 9 -25 -3 -50 -10
-56 -15 -18 -17 -35 -9 -35 17 0 15 12 38 30 56 17 16 30 33 30 38 0 28 -80
18 -169 -21 -74 -33 -81 -35 -81 -13 0 17 54 101 94 147 23 26 26 57 5 57 -4
0 -25 -7 -46 -16 -48 -21 -75 -32 -90 -36 -20 -5 -150 -117 -184 -159 -17 -21
-36 -39 -40 -39 -5 0 -9 18 -9 39 0 55 -8 71 -36 71 -18 0 -25 -7 -29 -27 -13
-62 -29 -104 -47 -119 -12 -12 -18 -13 -18 -4 0 7 -25 39 -55 71 -68 74 -81
116 -65 208 12 70 25 126 41 177 5 17 9 39 9 50 0 10 7 32 15 48 8 15 15 36
15 45 0 9 6 27 13 41 7 14 21 50 32 80 10 30 24 69 32 87 7 17 13 36 13 41 0
14 33 76 43 80 4 2 7 12 7 21 0 10 9 30 21 45 16 21 29 26 64 26 24 0 46 4 50
9 3 5 20 13 38 17 17 3 53 17 79 29 25 12 58 25 72 29 27 7 129 50 156 66 8 4
53 28 99 51 46 23 118 68 160 100 142 108 364 337 407 421 8 15 20 31 27 35
20 12 91 120 115 175 11 25 33 55 49 65 34 22 30 18 128 94 85 66 307 287 390
389 55 67 89 120 106 163 6 15 14 27 19 27 4 0 10 8 14 18 3 9 22 46 41 81 19
35 35 68 35 73 0 5 7 16 15 24 8 9 15 26 15 38 0 13 7 29 15 36 8 7 15 21 15
31 0 11 5 19 10 19 6 0 10 10 10 23 0 13 7 32 15 43 8 10 15 26 15 35 0 9 7
22 15 29 8 7 13 16 10 19 -2 4 4 25 14 47 25 55 41 107 41 133 0 13 7 44 15
70 8 25 22 91 31 146 16 99 15 145 -5 285 -5 36 -12 88 -16 117 l-7 51 42 22
c24 12 48 26 54 31 6 5 33 24 61 42 27 19 72 63 100 100 76 100 92 173 55 255
-30 65 -64 92 -119 92 -39 0 -40 18 -5 51 42 38 142 166 158 202 43 97 51 162
27 222 -23 59 -44 83 -87 105 -47 25 -94 25 -156 3 -26 -9 -51 -14 -54 -10 -4
4 7 25 24 46 18 22 47 66 65 98 28 51 32 67 32 133 0 70 -2 78 -34 117 -18 23
-49 49 -68 58 -44 21 -138 31 -147 16 -4 -6 -23 -11 -42 -11 -31 0 -48 -6 -94
-32 -8 -4 -26 -13 -40 -19 -14 -6 -39 -21 -57 -35 -17 -13 -36 -24 -42 -24
-15 0 -14 33 0 47 15 15 14 156 -1 194 -7 16 -35 43 -63 61 -45 29 -60 33
-117 33 -83 0 -173 -37 -290 -118 -117 -82 -124 -88 -400 -361 -234 -230 -326
-316 -337 -316 -3 0 -22 -13 -43 -30 -21 -16 -45 -30 -53 -30 -8 0 -17 -4 -19
-9 -1 -4 -37 -26 -78 -47 -69 -36 -80 -39 -120 -31 -43 8 -239 4 -425 -7 -120
-8 -183 -17 -345 -47 -30 -6 -75 -13 -100 -16 -25 -3 -50 -10 -57 -15 -6 -5
-61 -18 -121 -28 -128 -22 -203 -40 -217 -50 -5 -5 -37 -11 -70 -15 -33 -4
-65 -11 -70 -16 -6 -4 -49 -11 -97 -15 -86 -7 -86 -6 -115 22 -15 16 -57 44
-93 63 -36 18 -99 57 -140 87 -41 29 -91 64 -110 78 -161 109 -422 408 -500
571 -8 17 -34 60 -57 97 -24 37 -43 71 -43 76 0 5 -18 46 -40 91 -22 45 -40
85 -40 90 0 4 -17 41 -37 82 -34 67 -38 83 -41 169 -2 53 1 120 8 150 49 233
59 303 53 363 -5 50 -12 64 -42 96 -20 21 -45 41 -56 45 -11 4 -64 0 -117 -10
-91 -16 -99 -16 -123 0 -24 16 -25 21 -25 113 l0 97 -51 47 c-40 36 -60 48
-96 53 -62 8 -93 7 -128 -7z m172 -58 c43 -27 54 -54 60 -154 5 -90 17 -115
66 -138 36 -18 80 -15 154 9 28 9 51 11 65 5 29 -11 64 -49 73 -80 12 -38 6
-152 -9 -196 -20 -56 -47 -180 -53 -242 -6 -56 -16 -66 -33 -34 -5 11 -16 25
-23 33 -7 7 -28 36 -47 63 -82 120 -212 235 -315 280 -22 9 -59 26 -83 37 -24
11 -46 18 -48 15 -3 -3 -31 1 -62 9 -111 26 -275 17 -392 -22 -25 -9 -56 -18
-70 -21 -43 -9 -118 -48 -185 -97 -49 -36 -175 -167 -175 -182 0 -6 -8 -18
-18 -28 -17 -15 -25 -15 -91 -1 -40 8 -90 15 -111 15 -21 0 -42 5 -45 10 -3 6
-16 10 -28 10 -13 0 -37 13 -55 29 -49 45 -43 110 15 169 25 25 128 72 160 72
17 0 35 5 38 10 3 6 20 10 37 10 16 0 45 7 64 16 45 21 110 96 125 142 23 74
62 138 112 188 55 55 100 74 174 74 59 0 87 -13 130 -61 90 -100 106 -107 171
-79 26 12 61 33 77 49 29 27 96 74 139 97 37 21 144 17 183 -7z m-302 -435
c93 -6 107 -10 202 -56 56 -27 107 -56 113 -64 7 -8 18 -14 25 -14 11 0 33
-21 143 -137 12 -13 22 -27 22 -30 0 -3 18 -29 39 -57 22 -28 58 -82 81 -121
22 -38 45 -77 50 -85 5 -8 19 -35 30 -60 12 -25 26 -54 32 -64 6 -11 18 -42
28 -70 9 -28 27 -67 38 -86 11 -19 38 -69 59 -110 62 -120 136 -242 166 -274
15 -17 27 -34 27 -38 0 -8 19 -33 59 -77 13 -14 35 -41 50 -60 70 -92 380
-357 439 -375 12 -4 22 -12 22 -17 0 -5 7 -9 16 -9 9 0 33 -13 54 -30 21 -16
42 -30 46 -30 5 0 19 -12 31 -27 23 -27 30 -67 14 -77 -5 -4 -19 -26 -31 -51
-62 -129 -229 -193 -339 -130 -23 14 -47 25 -51 25 -17 0 -19 -33 -5 -73 40
-115 1 -222 -101 -282 -40 -23 -54 -27 -96 -22 -58 7 -128 45 -152 82 -32 48
-41 26 -38 -83 4 -92 2 -105 -19 -139 -30 -49 -61 -83 -76 -83 -7 0 -13 -4
-13 -9 0 -17 -65 -35 -129 -35 -73 0 -156 23 -192 55 -40 35 -53 22 -59 -56
-4 -54 -11 -80 -34 -115 -91 -143 -272 -183 -377 -84 -18 16 -47 52 -65 81
-19 28 -38 54 -44 58 -18 11 -48 -14 -55 -46 -27 -123 -220 -309 -320 -309
-46 0 -64 15 -83 65 -20 55 -22 89 -24 387 l-2 297 52 48 c80 74 86 80 100 97
6 8 12 18 12 21 0 6 59 94 70 105 8 7 26 74 64 230 35 142 43 474 15 595 -5
22 -13 76 -18 120 -16 137 -31 209 -52 243 -10 18 -19 41 -19 51 0 20 -57 82
-118 126 -31 23 -46 44 -62 90 -42 115 -55 145 -62 145 -5 0 -8 8 -8 17 0 27
-67 118 -98 134 -15 8 -29 16 -32 19 -3 3 -22 13 -42 22 -21 10 -38 24 -38 31
0 40 137 187 216 232 116 66 155 85 177 85 13 0 27 3 31 8 9 9 183 31 211 26
12 -2 66 -6 120 -10z m-692 -428 c15 -11 27 -23 27 -28 0 -4 5 -8 11 -8 34 0
108 -141 133 -253 10 -43 61 -107 116 -144 27 -18 54 -42 60 -52 13 -26 13
-86 -1 -130 -16 -51 -77 -177 -115 -238 -32 -50 -33 -51 -96 -60 -70 -9 -220
6 -278 29 -49 18 -137 65 -188 99 -24 16 -45 29 -48 29 -3 0 -21 12 -40 27
l-35 26 28 12 c46 19 140 25 282 17 144 -9 226 -2 275 22 67 32 105 46 125 46
16 0 21 6 21 25 0 28 -35 65 -63 65 -15 0 -17 -5 -12 -29 7 -33 0 -40 -77 -66
-50 -16 -143 -21 -358 -15 -143 3 -147 2 -233 -29 -81 -30 -88 -31 -103 -16
-19 19 -28 71 -14 80 6 3 10 15 10 26 0 21 57 176 72 194 4 5 30 39 57 75 83
109 244 257 345 317 25 15 61 7 99 -21z m5519 -356 c20 -6 48 -24 62 -41 23
-27 26 -40 26 -104 0 -41 -4 -77 -10 -80 -5 -3 -10 -15 -10 -26 0 -20 -25 -66
-45 -84 -20 -17 -65 -94 -65 -110 0 -30 30 -14 88 45 33 33 62 60 65 60 3 0
17 10 31 23 13 13 62 42 107 66 73 38 93 43 168 48 l86 6 42 -34 c45 -37 70
-97 60 -147 -11 -53 -55 -137 -107 -202 -54 -69 -74 -88 -140 -133 -22 -16
-40 -35 -40 -43 0 -23 39 -16 79 14 63 50 165 88 258 99 37 4 47 1 73 -24 36
-33 50 -72 51 -139 1 -49 -22 -125 -48 -155 -7 -8 -13 -20 -13 -25 0 -5 -18
-27 -40 -49 -21 -22 -40 -44 -40 -50 -1 -11 -67 -63 -137 -108 -24 -15 -47
-35 -50 -43 -9 -25 17 -34 48 -18 37 19 123 18 164 -2 22 -10 40 -30 54 -58
18 -40 19 -48 6 -101 -12 -55 -44 -111 -72 -128 -7 -4 -13 -15 -13 -22 0 -8
-3 -15 -7 -15 -5 0 -24 -13 -42 -30 -19 -16 -51 -37 -70 -46 -20 -9 -44 -21
-53 -25 -10 -5 -23 -9 -29 -9 -6 0 -27 -10 -46 -21 l-34 -21 31 -27 32 -26 8
-135 c12 -215 3 -338 -32 -455 -47 -159 -55 -181 -96 -275 -9 -19 -22 -51 -30
-70 -8 -19 -19 -43 -23 -52 -5 -10 -9 -27 -9 -37 0 -11 -5 -23 -11 -26 -5 -4
-22 -32 -36 -63 -14 -32 -42 -84 -62 -117 -20 -33 -43 -74 -51 -90 -8 -17 -18
-34 -23 -40 -156 -204 -398 -448 -489 -494 -16 -8 -28 -18 -28 -22 0 -5 -18
-18 -40 -29 -48 -25 -80 -57 -80 -83 0 -23 -39 -89 -96 -161 -23 -29 -47 -62
-53 -74 -6 -11 -17 -26 -24 -34 -7 -7 -35 -40 -62 -72 -28 -33 -72 -82 -98
-108 -62 -61 -231 -198 -246 -198 -6 0 -11 -4 -11 -9 0 -13 -149 -96 -245
-136 -22 -9 -48 -21 -57 -26 -33 -17 -123 -49 -139 -49 -9 0 -30 -7 -46 -15
-58 -29 -324 -71 -352 -55 -9 4 -52 11 -96 15 -44 4 -109 13 -145 21 -70 15
-232 65 -240 75 -3 3 -36 21 -75 40 -38 19 -95 54 -125 78 -30 24 -73 58 -94
75 -22 17 -60 48 -85 70 -24 21 -55 43 -68 49 -13 5 -23 13 -23 17 0 4 -28 21
-62 37 -95 45 -116 53 -146 53 -16 0 -32 4 -38 9 -17 17 -193 49 -381 70 -45
5 -87 12 -93 16 -6 4 -39 11 -73 16 -62 8 -211 39 -277 58 -19 5 -61 17 -94
25 -94 26 -262 96 -276 116 -3 4 -32 21 -65 39 -54 29 -162 98 -175 111 -3 3
-22 16 -42 30 -21 14 -38 28 -38 32 0 4 -14 15 -30 23 -17 9 -43 30 -58 47
-15 18 -36 42 -47 53 -11 12 -39 46 -62 76 -23 31 -48 62 -56 70 -8 8 -22 31
-32 49 -10 19 -21 37 -25 40 -14 9 -70 123 -70 141 0 10 -4 20 -9 23 -11 7
-46 107 -61 176 -7 30 -16 66 -21 80 -4 14 -11 43 -15 65 -4 22 -13 52 -20 67
-8 15 -14 42 -14 60 0 18 -7 68 -15 111 -8 43 -15 92 -15 108 0 27 3 29 39 29
22 0 59 9 83 19 83 37 205 166 254 270 16 35 23 41 32 30 98 -123 157 -159
259 -159 71 0 67 -1 193 77 43 27 93 102 113 169 10 32 19 48 28 45 8 -2 38
-12 68 -23 87 -29 144 -23 273 30 30 12 106 114 114 152 12 59 25 100 33 100
5 0 25 -7 44 -15 47 -19 128 -19 175 0 43 18 106 76 130 120 10 18 19 63 22
115 l5 84 86 -3 c49 -1 89 2 93 7 3 5 20 13 38 16 39 7 135 96 154 143 8 17
18 34 24 38 5 3 10 15 10 25 0 28 46 58 98 65 26 3 67 10 92 16 25 6 70 14
100 19 30 4 111 22 180 40 69 17 149 36 179 41 30 5 58 12 64 16 5 3 34 9 65
13 32 5 113 18 182 30 71 12 204 25 306 29 99 4 186 11 193 15 7 4 33 3 59 -3
26 -6 90 -13 142 -16 100 -6 120 -8 185 -24 22 -6 67 -15 100 -21 33 -6 80
-18 105 -26 25 -8 55 -14 66 -14 12 0 27 -7 34 -15 7 -8 20 -15 29 -15 10 0
26 -7 37 -15 10 -8 29 -15 41 -15 12 0 25 -4 28 -10 3 -5 13 -10 21 -10 9 0
39 -16 68 -35 61 -41 66 -42 66 -16 0 18 -70 67 -140 98 -14 6 -45 21 -70 32
-25 11 -61 23 -80 27 -19 3 -69 18 -110 32 -41 14 -102 29 -135 33 -172 23
-179 26 -141 46 16 9 34 19 40 24 19 16 85 58 114 73 36 18 142 117 383 356
279 277 387 361 531 415 70 26 115 30 170 15z m-5099 -362 c38 -242 45 -528
19 -738 -9 -66 -56 -221 -87 -282 -45 -88 -153 -197 -213 -215 -91 -28 -218
-5 -307 55 -52 35 -95 118 -95 182 0 61 23 147 60 223 45 90 50 97 270 342 49
54 160 199 160 208 0 3 24 45 53 94 30 48 66 121 82 161 15 39 31 72 35 72 4
0 14 -46 23 -102z m-273 -258 c0 -20 -82 -122 -200 -250 -78 -84 -138 -160
-154 -192 -9 -21 -21 -38 -25 -38 -5 0 -22 -36 -40 -80 -27 -68 -32 -94 -32
-170 -1 -50 -5 -90 -9 -90 -18 0 -54 97 -54 150 -2 111 70 227 267 430 51 52
119 130 151 173 37 48 65 77 77 77 10 0 19 -5 19 -10z m1955 -3546 c17 -3 55
-9 85 -13 65 -10 231 -58 244 -72 6 -5 18 -9 27 -9 10 0 30 -11 46 -24 15 -12
33 -25 38 -27 25 -10 104 -75 101 -84 -5 -17 -78 -37 -146 -40 -75 -3 -217 24
-284 54 -25 12 -49 21 -53 21 -4 0 -24 14 -43 30 -19 16 -39 30 -44 30 -11 0
-136 128 -136 139 0 9 106 5 165 -5z m221 -299 c22 -7 78 -15 124 -18 50 -2
85 -8 88 -15 2 -6 -5 -24 -16 -39 -10 -15 -32 -48 -48 -73 -16 -25 -31 -47
-34 -50 -3 -3 -22 -39 -43 -80 -21 -41 -46 -88 -57 -105 -10 -16 -19 -38 -19
-47 -1 -10 -5 -18 -11 -18 -5 0 -10 -7 -10 -15 0 -9 -7 -27 -16 -40 -20 -30
-12 -110 17 -169 22 -45 25 -131 7 -149 -16 -15 -52 -32 -97 -46 -41 -13 -153
-15 -167 -2 -21 20 -297 32 -399 17 -27 -4 -63 -14 -80 -21 -27 -12 -79 -32
-140 -55 -11 -4 -47 -15 -80 -25 -105 -30 -159 -47 -200 -61 -62 -21 -273 -19
-297 3 -23 21 -23 54 1 80 38 40 108 93 125 93 9 0 24 4 34 9 45 22 94 41 110
41 10 0 27 7 38 15 10 8 35 15 54 15 19 0 53 7 75 15 22 8 61 14 88 15 35 0
47 4 47 15 0 8 -6 16 -12 16 -33 4 -117 -3 -153 -13 -22 -5 -47 -12 -55 -13
-41 -9 -145 -38 -159 -44 -9 -4 -54 -26 -101 -49 -76 -38 -93 -42 -158 -42
-40 0 -80 4 -90 9 -9 5 -25 12 -34 15 -24 7 -23 44 2 81 23 35 144 105 183
105 16 0 38 5 50 12 12 6 105 14 222 19 228 9 262 14 270 40 6 17 18 19 128
19 127 0 235 16 301 44 53 22 171 127 233 206 74 95 159 222 178 266 24 58 35
62 101 39z m1207 -281 c135 -8 134 -7 91 -102 -14 -31 -30 -66 -35 -77 -4 -11
-18 -49 -29 -85 -12 -36 -25 -73 -31 -82 -5 -10 -9 -27 -9 -38 0 -12 -7 -34
-15 -49 -16 -33 -50 -146 -71 -241 -29 -135 -10 -230 55 -274 61 -41 67 -107
14 -158 -46 -44 -94 -52 -290 -49 -73 1 -140 -2 -150 -7 -10 -5 -34 -16 -53
-24 -94 -41 -160 -76 -211 -110 -31 -21 -60 -38 -64 -38 -4 0 -19 -9 -34 -19
-15 -11 -61 -37 -102 -58 -41 -22 -87 -47 -104 -56 -47 -25 -120 -57 -133 -57
-6 0 -28 -9 -49 -20 -36 -18 -144 -39 -205 -40 -35 0 -62 37 -52 74 6 24 90
119 125 141 9 6 40 26 70 46 80 54 182 118 194 123 6 2 5 9 -3 17 -10 11 -20
11 -61 -4 -27 -9 -58 -17 -69 -17 -12 0 -23 -4 -26 -9 -3 -4 -19 -11 -35 -14
-15 -3 -66 -23 -112 -45 -46 -21 -104 -44 -129 -51 -25 -7 -58 -17 -75 -23
-16 -5 -50 -14 -75 -20 -25 -5 -59 -13 -75 -17 -30 -8 -79 3 -102 22 -20 15
-15 78 9 113 12 17 39 39 60 49 21 9 60 31 87 49 27 18 82 43 122 56 41 12 88
29 106 36 17 8 39 14 48 14 9 0 24 4 34 9 15 9 52 16 201 39 56 9 63 35 10 40
-37 4 -157 -20 -225 -44 -23 -8 -55 -14 -72 -14 -18 0 -35 -4 -38 -10 -3 -5
-15 -10 -27 -10 -11 0 -32 -6 -46 -14 -15 -7 -47 -23 -72 -34 -25 -12 -78 -40
-118 -62 -63 -35 -79 -39 -115 -34 -23 3 -57 13 -74 22 -29 14 -33 22 -33 55
0 21 8 49 17 63 32 50 169 137 250 159 15 5 33 9 38 11 6 2 33 7 60 13 28 5
68 14 90 19 57 14 281 24 575 26 239 1 259 3 323 24 37 13 67 28 67 33 0 5 6
9 13 9 15 0 67 51 67 66 0 5 14 25 30 44 16 19 30 38 30 42 0 5 16 42 35 84
19 41 35 80 35 85 0 6 10 29 22 52 34 67 38 76 38 92 0 9 18 54 40 100 22 46
40 88 40 93 0 5 9 31 21 57 20 45 22 47 52 41 18 -3 85 -9 150 -12z m-2195
-263 c25 -16 -19 -22 -192 -27 -92 -3 -189 -9 -215 -15 -25 -5 -60 -11 -78
-14 -18 -2 -37 -6 -43 -10 -5 -3 -10 -2 -10 4 0 13 53 38 116 55 56 15 400 21
422 7z"/>
<path d="M2863 11750 c-51 -31 -41 -57 15 -40 34 9 53 -3 33 -23 -29 -29 2
-135 54 -184 65 -61 151 -51 200 25 13 20 26 29 36 26 9 -2 19 2 22 10 6 15
-2 58 -13 66 -3 3 -19 22 -34 43 -16 20 -34 37 -41 37 -7 0 -15 4 -17 8 -1 4
-17 18 -35 30 -43 30 -172 32 -220 2z"/>
<path d="M6025 10130 c-100 -3 -187 -10 -195 -15 -7 -4 -43 -12 -79 -16 -136
-16 -227 -31 -259 -45 -18 -8 -48 -14 -67 -14 -18 0 -37 -4 -40 -10 -3 -5 -21
-10 -40 -10 -19 0 -36 -4 -39 -9 -3 -4 -25 -11 -48 -15 -23 -4 -47 -10 -53
-15 -11 -9 -108 -41 -124 -41 -36 0 -409 -190 -461 -235 -14 -12 -42 -32 -63
-44 -21 -13 -43 -28 -50 -35 -6 -7 -37 -31 -68 -54 -55 -40 -154 -134 -213
-203 -108 -124 -246 -362 -246 -423 0 -14 -5 -37 -11 -53 -14 -37 -14 -399 0
-436 6 -16 11 -39 11 -53 0 -13 4 -32 9 -42 11 -20 41 -87 67 -152 40 -98 137
-217 253 -310 24 -19 59 -47 76 -62 18 -16 35 -28 38 -28 3 0 28 -15 55 -33
47 -31 264 -141 357 -182 50 -22 138 -45 170 -45 13 0 26 -4 29 -9 3 -4 38
-11 78 -15 40 -3 98 -11 128 -16 74 -12 346 -11 440 1 41 6 131 14 200 19 147
10 261 25 310 39 19 6 49 11 66 11 16 0 39 7 50 15 10 8 36 15 56 15 20 0 39
4 42 9 3 4 20 11 38 15 45 8 229 80 306 119 173 87 271 154 331 225 36 44 41
56 41 99 0 49 -19 83 -48 83 -13 0 -42 28 -42 41 0 5 7 9 15 9 18 0 137 62
176 93 135 104 181 165 183 241 0 48 -4 59 -38 100 -25 31 -45 46 -61 46 -13
0 -27 5 -30 10 -3 6 -22 10 -41 10 -43 0 -42 20 2 35 90 31 309 215 334 281
18 46 3 99 -43 150 -22 25 -54 52 -71 61 -45 23 -152 43 -233 43 -40 0 -73 4
-73 9 0 9 102 61 119 61 5 0 11 6 14 14 3 8 21 22 39 31 18 9 50 38 71 65 51
67 51 107 -1 161 -22 22 -53 42 -70 45 -35 7 -37 12 -22 66 22 76 -46 195
-136 242 -28 14 -58 26 -67 26 -9 0 -19 5 -22 10 -3 6 -17 10 -30 10 -13 0
-34 4 -47 9 -13 4 -50 16 -83 25 -33 10 -73 22 -90 28 -36 12 -111 26 -180 32
-27 2 -63 7 -80 10 -53 9 -354 13 -540 6z m472 -45 c33 -1 65 -5 70 -8 4 -3
47 -8 94 -11 86 -5 147 -17 229 -43 65 -21 111 -34 140 -39 50 -11 128 -48
161 -77 45 -40 59 -73 59 -135 0 -52 -3 -60 -24 -72 -20 -10 -32 -10 -72 4
-28 10 -80 16 -129 16 -49 0 -86 5 -93 12 -16 16 -528 14 -547 -2 -8 -6 -31
-10 -52 -8 -51 4 -213 -12 -232 -23 -9 -5 -43 -13 -76 -17 l-60 -9 57 -7 c35
-5 83 -4 120 3 198 34 653 47 828 23 52 -7 133 -18 180 -23 129 -16 238 -69
240 -116 0 -25 -36 -82 -66 -102 -16 -11 -39 -29 -50 -39 -40 -37 -237 -136
-311 -156 -26 -7 -75 -21 -108 -31 -33 -10 -82 -21 -110 -25 -27 -4 -72 -12
-100 -19 -46 -10 -290 -41 -480 -61 -44 -5 -111 -9 -149 -9 -60 -1 -67 -3 -56
-16 11 -13 36 -15 166 -10 84 3 165 10 179 15 15 6 60 10 102 10 72 0 144 9
258 31 28 6 73 14 101 19 28 4 61 13 72 19 12 6 34 13 49 15 27 3 86 20 128
37 25 10 125 24 145 21 8 -2 38 -5 65 -7 72 -6 165 -24 200 -40 57 -26 100
-85 103 -142 3 -37 -50 -104 -142 -178 -53 -43 -298 -175 -325 -175 -6 0 -40
-13 -74 -30 -35 -16 -71 -30 -80 -30 -9 0 -19 -4 -22 -10 -3 -5 -21 -10 -40
-10 -19 0 -36 -4 -40 -9 -3 -6 -27 -13 -53 -17 -26 -3 -56 -11 -67 -17 -11 -6
-38 -14 -60 -18 -22 -4 -78 -15 -125 -24 -110 -20 -247 -38 -385 -48 -34 -2
-55 -13 -55 -28 0 -20 399 9 425 31 6 5 20 8 30 8 11 -1 47 6 80 16 33 10 76
21 95 26 19 4 55 13 80 20 25 6 60 14 78 17 17 3 32 9 32 13 0 4 20 11 44 14
24 4 52 13 62 21 11 8 27 15 37 15 9 0 17 5 17 10 0 6 9 10 20 10 10 0 31 5
45 12 19 9 40 9 86 0 83 -15 132 -39 152 -74 46 -81 -3 -176 -138 -269 -77
-52 -83 -56 -140 -79 -11 -4 -41 -17 -67 -29 -26 -12 -52 -21 -58 -21 -6 0
-18 -4 -28 -9 -44 -22 -135 -46 -237 -60 -33 -5 -78 -14 -100 -20 -72 -18
-276 -34 -450 -35 -98 -1 -120 -4 -120 -16 0 -8 15 -17 35 -22 43 -9 315 0
350 12 14 5 63 11 111 14 47 3 92 8 100 11 9 3 47 10 85 15 38 5 116 22 173
39 121 36 172 34 199 -7 44 -67 -5 -148 -144 -239 -90 -58 -282 -158 -327
-168 -15 -4 -30 -11 -33 -16 -3 -5 -21 -9 -40 -9 -19 0 -34 -4 -34 -10 0 -5
-9 -10 -21 -10 -11 0 -40 -9 -65 -21 -25 -11 -51 -18 -57 -16 -7 2 -23 0 -37
-6 -23 -9 -84 -22 -230 -48 -30 -5 -118 -14 -195 -19 -77 -6 -167 -14 -201
-20 -66 -11 -352 -14 -378 -4 -21 8 -20 26 3 51 25 27 99 182 118 248 44 151
90 568 65 584 -5 3 -14 44 -20 91 -11 96 -29 171 -43 185 -5 5 -9 18 -9 28 0
10 -6 31 -14 45 -8 15 -27 61 -42 102 -15 41 -40 96 -56 121 -15 25 -28 51
-28 58 0 6 -3 11 -8 11 -4 0 -16 17 -27 37 -11 21 -31 51 -45 68 -38 45 -154
169 -165 177 -5 3 -44 31 -85 62 -41 31 -81 56 -89 56 -7 0 -33 14 -58 30 -24
17 -48 30 -54 30 -5 0 -19 9 -30 19 -11 10 -41 27 -67 36 -65 24 -72 33 -42
56 14 10 30 23 37 29 7 5 17 10 22 10 5 0 22 11 38 24 35 29 139 86 157 86 8
0 16 3 18 8 5 12 128 72 149 72 11 0 27 4 37 10 32 18 111 50 122 50 7 0 44
11 83 24 40 13 108 31 152 40 44 10 94 22 110 28 17 5 59 14 95 19 36 5 106
16 155 25 152 28 416 35 722 19z m-1862 -557 c39 -12 86 -32 105 -45 19 -13
38 -23 43 -23 4 0 33 -16 63 -35 30 -19 58 -35 62 -35 5 0 19 -11 32 -25 13
-14 28 -25 34 -25 13 0 109 -97 175 -177 51 -61 141 -211 141 -234 0 -9 7 -22
15 -29 8 -7 15 -20 15 -30 0 -10 7 -23 15 -30 8 -7 15 -23 15 -36 0 -12 5 -26
10 -29 6 -3 10 -18 10 -33 1 -15 7 -38 15 -52 8 -14 14 -38 15 -53 0 -15 6
-38 14 -50 37 -59 33 -450 -6 -592 -6 -22 -11 -49 -10 -59 1 -10 -6 -32 -14
-47 -7 -15 -14 -40 -14 -54 0 -14 -4 -33 -9 -43 -36 -72 -52 -102 -70 -135
-12 -21 -21 -51 -21 -67 l0 -29 -87 4 c-133 6 -300 50 -438 116 -45 20 -93 41
-108 44 -15 4 -27 11 -27 15 0 4 -28 22 -62 40 -62 32 -100 57 -147 99 -13 11
-27 21 -31 21 -21 0 -177 157 -200 202 -11 20 -23 38 -27 40 -18 7 -90 172
-113 258 -7 25 -17 56 -22 70 -16 39 -22 277 -9 340 7 30 16 75 20 100 9 48
59 192 69 200 4 3 16 21 26 40 53 96 199 267 304 356 60 51 66 54 105 48 23
-3 74 -15 112 -26z"/>
<path d="M179 8253 c-26 -32 -59 -100 -59 -122 0 -27 -20 -27 -54 0 -39 30
-34 1 8 -47 38 -44 47 -41 66 21 13 41 36 75 52 75 4 0 8 -29 8 -65 0 -79 21
-89 41 -20 16 53 25 57 34 15 9 -39 33 -39 71 1 55 58 132 91 96 41 -27 -38
-36 -62 -25 -73 12 -12 45 2 71 28 21 21 32 15 32 -17 0 -23 5 -30 19 -30 11
0 23 5 26 10 3 6 33 10 65 10 l59 0 -1 -34 c-1 -19 5 -48 12 -65 7 -17 10 -38
6 -46 -5 -15 -8 -15 -28 -1 -28 20 -74 21 -81 2 -3 -8 3 -26 14 -39 10 -14 19
-29 19 -34 1 -13 37 -53 49 -53 13 0 15 17 2 24 -11 7 -20 66 -11 66 4 0 24
-11 44 -25 64 -43 82 -28 50 41 -19 40 -12 55 14 31 27 -25 41 -7 46 60 5 60
40 152 54 138 4 -3 12 -37 17 -73 12 -79 28 -86 60 -27 40 76 60 105 73 105
16 0 15 -33 -3 -77 -29 -68 5 -85 58 -30 45 47 83 71 92 57 4 -6 0 -19 -8 -28
-21 -23 -31 -68 -17 -77 6 -4 32 7 59 24 26 17 53 31 59 31 15 0 16 -17 2 -25
-17 -10 -11 -33 10 -40 13 -4 34 1 56 14 60 36 124 21 67 -16 -39 -24 -45 -36
-27 -53 12 -13 17 -13 37 0 64 40 77 44 113 26 31 -14 35 -14 40 -1 8 21 -12
43 -43 47 -20 2 -27 9 -28 26 -2 33 -23 43 -70 35 -72 -12 -79 -10 -80 17 0
33 -31 37 -81 10 -38 -20 -60 -12 -35 13 6 6 11 24 11 39 0 22 -5 28 -20 28
-26 0 -77 -25 -107 -52 -32 -29 -42 -16 -36 47 5 45 3 56 -11 61 -17 7 -63
-36 -93 -87 -30 -50 -43 -37 -36 35 8 86 -7 94 -64 30 -46 -53 -83 -120 -83
-154 0 -31 -28 -36 -56 -9 l-25 23 22 17 22 17 -22 12 c-14 7 -46 10 -82 7
-62 -5 -64 -3 -60 46 3 25 -23 31 -51 13 -31 -20 -38 -13 -38 36 0 21 -4 38
-9 38 -13 0 -82 -41 -105 -62 -11 -10 -26 -18 -33 -18 -15 0 -18 36 -3 45 6 3
10 17 10 31 0 40 -34 29 -84 -27 l-46 -51 0 51 c0 43 -3 51 -18 51 -11 0 -25
-8 -33 -17z"/>
<path d="M8475 7951 c-47 -8 -101 -45 -109 -75 -11 -40 -21 -49 -42 -36 -50
31 -173 -50 -209 -137 -13 -30 -13 -39 0 -69 8 -19 21 -37 30 -40 24 -10 17
-31 -12 -37 -39 -8 -66 -57 -67 -124 0 -47 3 -57 24 -74 19 -15 35 -19 68 -15
29 4 42 2 43 -7 4 -90 6 -96 43 -132 34 -32 43 -35 96 -35 32 0 61 -4 64 -8 7
-12 -15 -92 -25 -92 -5 0 -9 -11 -9 -25 0 -29 -16 -33 -25 -6 -7 24 -51 68
-90 92 -43 27 -204 27 -228 1 -24 -26 -22 -36 23 -101 51 -76 137 -131 206
-131 18 0 35 -3 37 -7 3 -5 -4 -27 -14 -50 -22 -53 -47 -58 -41 -9 3 23 -1 35
-11 39 -18 7 -95 -21 -115 -40 -35 -33 -44 3 -12 47 21 30 18 60 -7 60 -23 0
-74 -30 -99 -58 l-23 -27 0 35 c0 19 9 49 20 65 29 45 32 54 25 70 -9 24 -32
7 -142 -100 -53 -52 -103 -95 -110 -95 -7 0 -30 25 -51 55 -27 39 -44 54 -58
52 -24 -3 -24 -41 0 -67 8 -9 15 -24 15 -33 0 -21 -33 -22 -50 -2 -7 8 -30 18
-52 21 -21 4 -41 11 -44 15 -3 5 -23 9 -45 9 -49 0 -52 -20 -9 -60 47 -44 40
-50 -64 -50 -53 0 -98 -4 -101 -10 -3 -5 -15 -10 -26 -10 -21 0 -79 -38 -79
-52 0 -14 24 -9 76 15 43 21 62 23 152 21 60 -1 109 -7 115 -13 35 -35 50 10
17 52 -22 28 -26 47 -10 47 19 0 94 -42 121 -66 22 -21 28 -23 38 -10 10 12 9
20 -4 40 -19 29 -16 61 5 61 12 0 35 -34 52 -78 6 -14 38 4 38 21 0 8 7 22 16
31 8 9 35 38 58 65 25 28 48 46 55 42 6 -4 11 -31 11 -61 0 -30 4 -57 10 -60
15 -9 50 14 60 41 12 32 45 33 36 2 -18 -63 -18 -75 0 -82 12 -5 33 3 62 24
45 32 62 32 62 1 0 -30 21 -38 98 -35 60 3 74 0 79 -13 4 -11 -1 -22 -15 -31
-12 -8 -22 -20 -22 -27 0 -19 30 -27 47 -13 21 17 108 13 138 -6 56 -37 105
-8 105 62 0 23 4 42 10 42 5 0 23 -20 40 -46 34 -48 53 -53 58 -13 2 13 12 35
22 49 22 28 22 27 24 -50 1 -29 5 -35 21 -33 11 1 25 10 30 20 17 30 124 130
145 136 32 8 33 -11 2 -41 -34 -32 -72 -86 -72 -101 0 -20 30 -11 117 34 47
25 94 45 104 45 31 0 30 -18 -1 -32 -16 -7 -30 -19 -30 -26 0 -18 29 -27 43
-13 15 15 181 14 224 -1 42 -15 53 -4 25 25 -18 17 -35 22 -80 24 -31 1 -65 2
-75 2 -13 1 -17 6 -13 19 11 34 -8 45 -64 38 -29 -4 -62 -13 -74 -21 -11 -7
-37 -16 -56 -20 -34 -7 -34 -7 -19 11 34 39 51 84 38 100 -6 8 -17 14 -25 14
-27 0 -105 -54 -171 -117 -13 -13 -28 -23 -32 -23 -12 0 -21 26 -21 60 0 54
-54 64 -66 11 -12 -53 -16 -61 -29 -61 -13 0 -85 100 -85 118 0 12 25 22 56
22 23 0 79 26 137 65 12 8 31 30 41 50 l20 36 -35 30 c-82 73 -202 90 -270 40
-40 -30 -57 -16 -35 27 9 17 16 38 16 46 0 13 10 15 60 9 46 -4 64 -2 78 9 9
8 24 18 33 21 33 11 73 77 73 120 1 34 5 42 21 45 53 8 97 37 116 76 23 49 24
73 2 117 -19 40 -30 49 -60 49 -31 0 -30 30 2 60 38 36 35 97 -7 136 -61 56
-88 62 -180 39 -21 -6 -27 -3 -33 14 -6 20 -82 72 -101 70 -5 -1 -27 -4 -49
-8z m104 -67 c26 -33 26 -45 1 -86 -11 -18 -20 -40 -20 -49 0 -33 -35 -50 -96
-47 l-59 3 -8 50 c-6 34 -5 61 3 85 21 59 36 70 101 70 50 0 60 -3 78 -26z
m194 -46 c66 -38 82 -74 49 -114 -29 -36 -105 -81 -148 -88 -37 -7 -44 -5 -63
20 -27 34 -26 39 5 101 38 77 103 110 157 81z m-453 -63 c0 -12 7 -28 15 -35
8 -7 15 -21 15 -31 0 -10 5 -21 10 -24 16 -10 12 -19 -33 -70 l-44 -48 -60 27
c-93 43 -97 94 -14 176 44 44 111 47 111 5z m267 -127 c28 -20 33 -29 33 -65
0 -44 -16 -68 -77 -111 -70 -50 -178 -33 -201 32 -13 35 -8 53 28 101 48 65
154 85 217 43z m279 -67 c13 -14 24 -36 24 -47 0 -21 -30 -68 -60 -91 -38 -30
-146 3 -168 51 -20 44 27 107 89 119 44 8 92 -5 115 -32z m-571 -81 c34 -36
29 -45 -58 -96 -54 -32 -62 -34 -93 -24 -33 11 -34 14 -34 61 0 69 22 89 98
89 52 0 62 -3 87 -30z m373 -71 c65 -72 70 -84 48 -124 -34 -63 -98 -87 -155
-58 -28 15 -37 27 -47 68 -19 72 -18 105 4 106 9 0 33 11 52 24 19 13 41 24
48 24 6 1 29 -18 50 -40z m-222 -31 c2 -2 4 -29 5 -61 2 -47 -2 -62 -25 -92
-25 -32 -31 -35 -78 -35 -43 0 -57 5 -80 27 -44 42 -39 88 15 140 23 22 49 43
57 45 13 5 96 -15 106 -24z m31 -190 c-16 -121 -62 -281 -92 -318 -7 -8 -18
-30 -26 -47 -17 -41 -42 -45 -33 -5 7 29 48 127 64 152 22 34 33 68 40 130 4
36 11 73 14 83 3 9 8 24 11 32 2 8 9 15 16 15 7 0 9 -14 6 -42z m-314 -104
c-37 -16 -43 -34 -13 -34 38 0 150 -88 150 -117 0 -21 -68 -13 -120 14 -70 37
-120 90 -120 127 0 18 8 21 78 23 l57 1 -32 -14z m547 -6 c42 -14 70 -38 70
-58 0 -41 -90 -94 -178 -104 -104 -13 -167 21 -82 44 22 6 40 15 40 20 0 6 33
10 74 10 67 0 99 10 82 27 -12 13 -114 10 -159 -4 -27 -8 -51 -12 -55 -9 -22
23 80 85 139 86 20 0 51 -5 69 -12z m-198 -204 c28 -8 48 -62 48 -131 0 -69
-15 -87 -51 -65 -10 7 -31 12 -46 12 -34 0 -41 5 -71 48 -23 32 -23 33 -4 60
10 15 25 42 33 60 14 34 22 35 91 16z"/>
<path d="M1820 7716 c-3 -3 -37 -10 -75 -15 -116 -17 -136 -23 -199 -56 -147
-78 -232 -148 -301 -250 -36 -53 -52 -83 -85 -160 -9 -22 -24 -150 -23 -205 0
-19 4 -61 8 -92 l8 -58 -30 0 c-17 0 -44 -7 -59 -15 -16 -8 -38 -15 -49 -15
-12 0 -25 -4 -30 -8 -6 -4 -35 -16 -65 -26 -30 -11 -62 -25 -71 -32 -8 -8 -22
-14 -30 -15 -8 0 -27 -9 -44 -20 -16 -10 -44 -26 -61 -33 -17 -8 -36 -22 -44
-30 -7 -9 -18 -16 -25 -16 -31 0 -243 -196 -293 -270 -9 -14 -35 -50 -59 -81
-47 -63 -133 -235 -133 -267 0 -12 -4 -23 -8 -26 -8 -5 -13 -26 -42 -161 -20
-92 -22 -110 -23 -190 -2 -121 50 -331 104 -418 16 -27 29 -52 29 -56 0 -5 25
-36 55 -70 34 -38 55 -71 55 -86 0 -13 7 -31 16 -39 23 -24 7 -39 -36 -33 -43
6 -55 0 -64 -29 -7 -24 -32 -34 -88 -34 -25 0 -38 -5 -38 -13 0 -21 12 -28 26
-16 7 6 50 13 95 16 54 4 82 10 86 19 6 16 39 19 48 4 9 -15 35 -12 42 6 3 8
0 26 -7 39 -24 45 -4 43 60 -6 36 -27 70 -49 77 -49 6 0 13 -4 15 -9 6 -16
118 -71 143 -71 14 0 33 -4 43 -10 81 -44 344 -71 587 -60 63 3 213 37 242 56
12 8 32 14 44 14 27 0 84 17 121 36 14 8 31 14 38 14 6 0 54 20 106 45 51 25
98 45 103 45 5 0 11 3 13 8 2 4 20 15 41 24 l37 18 0 -30 c0 -16 5 -32 10 -35
6 -4 38 9 71 29 33 20 64 36 69 36 5 0 6 -15 3 -34 -7 -47 12 -55 49 -20 l30
29 22 -27 c24 -31 41 -35 50 -13 7 19 40 19 70 0 36 -24 117 -30 141 -11 17
13 18 17 5 26 -8 5 -37 10 -65 10 -39 0 -60 7 -95 30 -39 26 -47 28 -56 15
-14 -19 -24 -19 -24 0 0 24 -34 36 -58 19 -21 -14 -39 -4 -27 16 14 22 -25 20
-68 -4 -25 -15 -50 -26 -54 -26 -13 0 -11 69 3 72 21 5 109 82 216 189 93 94
127 134 173 208 6 9 19 29 30 46 45 68 68 113 90 185 10 30 25 72 33 93 9 22
16 46 17 55 1 10 7 33 13 52 23 73 34 225 22 312 -7 46 -16 91 -21 100 -5 10
-9 25 -9 33 0 9 -8 33 -19 53 -10 20 -31 63 -47 96 -15 32 -37 70 -48 83 -63
76 -99 111 -132 129 -34 18 -36 21 -30 59 18 118 16 114 77 167 72 64 87 95
69 148 -16 49 -9 67 33 85 59 24 63 38 28 90 -17 25 -31 59 -31 75 0 18 -8 34
-22 44 -25 18 -64 21 -73 6 -18 -29 -60 -4 -127 75 -74 89 -231 195 -287 195
-11 0 -22 4 -25 9 -9 14 -255 39 -266 27z m177 -48 c64 -2 103 -7 103 -14 0
-10 66 -44 86 -44 5 0 23 -14 41 -30 18 -17 36 -30 40 -30 15 0 133 -121 133
-136 0 -8 -11 -30 -25 -48 -14 -18 -34 -68 -44 -110 -11 -43 -27 -86 -36 -96
-20 -22 -12 -55 16 -70 25 -14 119 -148 119 -171 0 -10 -6 -33 -14 -51 -8 -18
-20 -52 -27 -75 -13 -47 -63 -99 -146 -153 -57 -37 -68 -60 -28 -60 14 0 25 5
25 10 0 6 8 10 19 10 10 0 31 12 46 26 42 39 60 24 82 -71 8 -36 5 -56 -15
-115 -3 -8 -4 -24 -3 -36 2 -20 -2 -21 -78 -16 l-81 5 0 -37 c0 -21 5 -46 10
-56 16 -30 -6 -34 -63 -12 -72 28 -146 46 -154 38 -4 -4 -9 -36 -11 -71 -2
-36 -8 -65 -14 -65 -14 0 -86 38 -93 50 -12 20 -37 9 -87 -37 -28 -27 -58 -56
-67 -65 -8 -10 -18 -18 -22 -18 -9 0 -29 48 -29 70 0 29 -34 42 -103 38 -60
-3 -62 -2 -66 22 -5 40 -20 41 -92 3 -38 -20 -75 -33 -83 -30 -20 8 -20 50 0
88 8 17 13 37 10 45 -8 21 -66 17 -101 -6 -16 -11 -33 -20 -36 -20 -12 0 -20
32 -11 44 5 6 14 30 20 53 7 23 28 61 48 85 79 96 73 91 115 84 55 -9 51 17
-8 48 -34 17 -100 83 -120 119 -24 46 -57 123 -61 142 -1 11 -5 76 -9 144 -5
111 -3 128 16 172 11 27 31 73 44 101 15 37 48 79 110 140 49 49 93 88 97 88
5 0 31 13 57 28 90 53 294 106 363 96 14 -2 71 -5 127 -6z m483 -324 c0 -31
42 -64 83 -64 40 0 77 -14 77 -29 0 -5 -26 -17 -57 -27 -32 -9 -65 -23 -73
-29 -8 -7 -26 -16 -40 -20 -14 -4 -27 -11 -30 -15 -3 -5 -26 -11 -52 -15 l-47
-7 19 53 c11 30 20 68 20 85 0 40 9 48 32 27 14 -13 21 -14 30 -5 9 9 8 12 -5
12 -11 0 -17 8 -17 25 0 21 5 25 30 25 21 0 30 -5 30 -16z m-1309 -514 c4 -8
14 -30 21 -47 7 -18 16 -33 20 -33 14 0 8 -58 -6 -63 -21 -8 -97 -108 -93
-121 2 -6 21 -20 43 -31 25 -13 40 -28 42 -43 2 -12 -1 -22 -7 -22 -6 0 -11
-7 -11 -15 0 -8 -7 -35 -16 -61 -22 -65 -13 -94 29 -94 18 0 43 7 55 16 32 22
42 10 35 -46 -7 -64 6 -83 55 -74 19 4 47 13 61 20 36 19 37 18 70 -18 26 -29
32 -31 52 -21 30 15 93 23 106 15 5 -4 13 -20 16 -37 4 -16 9 -40 13 -51 4
-17 -5 -31 -40 -64 -57 -54 -62 -87 -13 -92 29 -3 32 -6 35 -40 2 -22 -1 -38
-7 -38 -6 0 -11 -8 -11 -18 0 -11 -9 -27 -20 -37 -12 -11 -20 -31 -20 -51 0
-27 5 -34 30 -43 33 -11 35 -19 20 -65 -43 -137 -51 -176 -40 -196 15 -28 27
-18 33 27 8 63 33 146 54 184 23 40 16 69 -18 69 -28 0 -47 44 -28 67 8 10 19
27 25 38 6 11 19 35 30 53 l19 33 -30 24 c-17 13 -36 24 -43 25 -25 0 -7 20
103 120 68 61 118 100 132 100 12 0 42 -16 68 -35 65 -50 82 -42 90 41 9 81
25 88 116 49 35 -15 79 -30 98 -32 l34 -6 -7 66 -6 66 32 3 c18 2 51 -2 72 -9
45 -15 70 -3 60 29 -9 30 23 58 66 58 84 0 71 52 -41 163 -68 67 -84 102 -54
113 57 22 201 -132 253 -269 39 -104 44 -124 59 -205 13 -74 13 -94 -1 -185
-8 -56 -21 -127 -30 -157 -8 -30 -22 -82 -31 -115 -14 -52 -44 -118 -96 -215
-31 -56 -96 -136 -204 -249 -118 -123 -137 -141 -150 -141 -7 0 -30 -16 -51
-35 -22 -20 -66 -52 -99 -72 -33 -20 -63 -41 -66 -46 -8 -12 -58 -37 -74 -37
-7 0 -18 -6 -24 -14 -7 -8 -35 -22 -64 -31 -29 -9 -65 -22 -82 -29 -60 -25
-101 -38 -126 -41 -14 -2 -35 -7 -45 -13 -45 -24 -178 -34 -436 -35 -239 0
-305 10 -443 68 -16 7 -47 18 -68 25 -20 6 -43 17 -50 23 -17 17 -85 67 -90
67 -18 0 -217 198 -217 216 0 8 -4 14 -10 14 -5 0 -16 15 -24 33 -67 150 -110
331 -103 436 5 82 32 234 46 260 6 11 11 29 11 40 0 21 2 27 33 89 9 19 17 40
17 48 0 7 13 36 30 62 16 27 30 54 30 61 0 6 5 11 10 11 6 0 10 5 10 11 0 6
10 23 22 38 13 16 37 45 53 66 54 69 202 213 236 230 19 10 41 24 50 31 12 11
78 47 204 111 11 5 30 15 42 21 13 7 32 12 42 12 11 0 23 5 26 10 3 6 15 10
27 10 11 0 34 6 51 14 67 30 95 31 108 6z"/>
<path d="M1904 7290 c-30 -8 -74 -41 -74 -56 0 -7 -10 -22 -22 -33 -17 -17
-19 -23 -8 -36 7 -8 23 -15 36 -15 13 0 24 -4 24 -9 0 -12 55 -31 88 -31 14 0
46 13 72 29 26 16 55 31 65 32 28 6 30 28 3 38 -13 5 -38 25 -56 44 -33 35
-83 50 -128 37z"/>
<path d="M7810 5940 c-8 -5 -44 -10 -78 -10 -70 0 -112 -18 -128 -53 -5 -12
-22 -26 -39 -31 -53 -15 -59 -21 -86 -76 -19 -37 -33 -54 -47 -55 -24 -2 -72
-44 -72 -63 0 -7 7 -15 15 -18 19 -8 19 -54 0 -80 -8 -10 -15 -31 -15 -46 0
-15 -4 -30 -10 -33 -5 -3 -10 -16 -10 -29 0 -23 -28 -55 -65 -74 -11 -5 -39
-42 -62 -80 -31 -52 -44 -85 -48 -129 -10 -82 2 -93 86 -81 64 8 100 2 157
-28 15 -8 34 -14 42 -14 9 0 38 -23 65 -51 27 -28 68 -62 92 -76 24 -14 43
-29 43 -34 0 -5 -16 -42 -36 -82 -50 -98 -51 -101 -67 -192 -24 -125 -5 -227
66 -370 32 -65 55 -96 135 -184 28 -32 52 -67 52 -79 0 -11 5 -24 10 -27 6 -3
10 -19 10 -35 0 -42 95 -221 138 -264 68 -65 107 -97 152 -128 58 -39 70 -55
70 -90 0 -38 21 -76 65 -117 41 -38 40 -47 -6 -124 -16 -26 -29 -52 -29 -57 0
-5 -11 -17 -24 -25 -21 -14 -29 -14 -48 -4 -13 8 -72 14 -143 17 -110 3 -124
1 -165 -20 -51 -26 -63 -57 -33 -90 17 -20 17 -21 -1 -32 -42 -25 -76 -59 -76
-76 0 -26 -17 -34 -28 -14 -14 25 -33 6 -30 -29 3 -35 2 -35 -62 -19 -47 11
-84 1 -88 -24 -3 -19 4 -22 68 -28 39 -3 79 -11 89 -18 15 -9 26 -8 56 6 30
15 36 22 31 41 -6 22 -4 23 60 23 63 0 66 0 60 -22 -3 -13 1 -32 11 -45 14
-21 21 -22 72 -16 31 4 60 11 66 16 5 5 19 9 31 9 12 0 24 3 26 8 2 4 33 26
70 50 36 24 78 54 93 66 20 17 44 25 93 29 97 8 122 20 122 56 0 32 -8 40 -54
56 -37 13 -42 29 -18 53 32 32 92 141 92 168 0 13 10 32 21 42 12 9 27 23 34
30 9 8 50 12 130 12 101 0 116 -2 122 -17 8 -22 53 -66 93 -90 17 -9 32 -25
35 -34 7 -21 -21 -85 -56 -130 -16 -20 -29 -41 -29 -45 0 -5 -16 -26 -35 -46
-33 -37 -36 -38 -104 -38 -122 0 -207 -20 -252 -58 -21 -18 -39 -40 -39 -48 0
-17 37 -41 74 -48 42 -8 44 -15 13 -42 -39 -33 -52 -80 -31 -112 13 -20 22
-23 52 -19 21 2 51 10 69 18 40 16 47 10 29 -26 -13 -25 -13 -31 2 -51 37 -51
95 -39 177 37 25 23 58 64 73 91 15 26 30 48 35 48 4 0 7 9 7 20 0 16 7 20 33
20 47 0 138 28 163 51 11 10 23 19 27 19 4 0 16 -20 27 -45 22 -48 33 -54 56
-30 10 9 25 13 39 9 18 -4 31 1 53 23 24 24 65 53 75 53 1 0 3 -12 2 -27 0
-27 2 -28 43 -26 24 1 51 8 59 15 9 7 38 15 66 18 31 3 52 10 55 19 4 11 -7
13 -58 8 -34 -3 -67 -10 -72 -15 -20 -20 -37 -2 -28 28 6 21 4 32 -5 40 -11 9
-29 1 -82 -33 -37 -25 -72 -42 -77 -40 -4 3 -6 21 -3 40 6 34 5 35 -21 28 -32
-8 -27 -2 -45 -47 -9 -21 -20 -38 -24 -38 -13 1 -36 23 -66 62 -21 29 -37 39
-67 44 -22 4 -40 12 -40 18 0 13 40 75 82 126 16 19 33 40 38 47 6 7 10 17 10
23 0 6 5 28 12 49 9 30 22 43 57 62 74 38 234 211 270 291 12 26 21 52 21 57
0 6 4 11 10 11 5 0 19 33 30 73 11 39 25 86 30 103 12 38 13 154 1 154 -13 0
-21 -38 -21 -102 0 -31 -5 -58 -11 -60 -5 -2 -13 -22 -16 -46 -3 -23 -12 -47
-19 -53 -8 -6 -14 -22 -14 -35 0 -12 -5 -26 -10 -29 -6 -3 -19 -25 -29 -48
-45 -96 -176 -234 -267 -278 -67 -33 -199 -53 -244 -37 -43 16 -100 60 -100
78 0 20 60 50 100 50 20 0 30 5 30 15 0 20 -60 20 -125 1 -60 -19 -318 -16
-385 3 -25 7 -70 20 -100 29 -30 8 -71 23 -90 33 -19 9 -51 24 -70 33 -66 30
-250 194 -250 223 0 6 -8 17 -18 27 -11 9 -25 35 -31 59 -7 23 -17 50 -23 61
-5 10 -12 42 -15 70 -5 48 -10 56 -54 92 -26 21 -48 44 -49 51 0 7 -6 16 -13
20 -16 9 -86 111 -111 160 -39 78 -49 127 -49 248 0 114 1 124 33 195 18 41
44 93 59 114 l26 39 75 1 c60 1 75 4 75 16 0 11 -9 14 -36 12 -41 -3 -132 19
-177 42 -17 9 -47 33 -67 53 -32 33 -36 42 -31 73 19 122 19 119 -9 156 -15
19 -41 42 -58 51 -24 11 -42 36 -70 91 -35 70 -36 76 -22 98 8 13 15 32 15 43
0 11 5 23 10 26 6 3 10 14 10 24 0 31 94 164 150 213 65 57 138 97 244 133 67
23 93 26 175 24 55 -1 107 -8 123 -16 15 -7 36 -13 48 -13 11 0 62 -20 113
-44 192 -93 355 -291 387 -471 6 -33 16 -85 23 -115 11 -49 12 -132 4 -270 -2
-43 -1 -45 28 -48 63 -6 205 -54 236 -79 8 -7 23 -13 32 -13 9 0 17 -4 17 -10
0 -5 5 -10 11 -10 7 0 69 -38 139 -85 116 -77 290 -231 290 -255 0 -6 7 -10
15 -10 9 0 15 9 15 23 0 21 4 23 38 21 106 -6 137 -15 155 -46 19 -33 22 -64
7 -73 -14 -9 -12 -63 2 -67 16 -6 15 -85 -1 -101 -14 -14 -15 -54 -1 -62 17
-11 11 -51 -15 -88 -32 -49 -17 -54 28 -10 39 37 45 64 25 108 -10 22 -9 31 6
57 19 31 17 95 -3 108 -7 4 -7 18 1 42 6 20 8 47 4 62 -10 40 -49 76 -83 76
-16 0 -35 6 -41 13 -8 7 -43 12 -87 13 -73 1 -74 2 -119 45 -90 88 -191 164
-309 233 -18 10 -34 21 -37 25 -7 9 -86 47 -150 72 -30 11 -59 24 -65 29 -5 4
-24 11 -42 14 -48 11 -57 28 -46 86 10 52 0 196 -18 256 -5 17 -9 45 -9 63 0
49 -89 227 -144 289 -53 58 -147 146 -173 159 -15 8 -35 20 -43 27 -24 21
-142 74 -180 82 -59 12 -344 15 -360 4z m-420 -633 c0 -10 -10 -31 -22 -47
-26 -36 -19 -47 22 -30 27 11 36 10 70 -6 22 -10 42 -25 45 -33 8 -21 -13 -40
-43 -39 -56 2 -168 -14 -205 -30 -33 -14 -40 -14 -48 -1 -9 14 -1 100 10 109
3 3 15 21 25 40 10 19 37 52 59 73 l40 38 23 -28 c13 -15 23 -36 24 -46z m940
-1897 c36 -12 83 -27 105 -34 45 -14 53 -39 15 -44 -14 -2 -29 -8 -34 -13 -14
-13 -83 -11 -109 4 -45 25 -87 71 -87 95 0 28 3 28 110 -8z m105 -169 c-4 -14
-15 -35 -24 -46 -10 -11 -37 -49 -61 -85 -47 -72 -45 -93 8 -98 17 -2 35 -9
42 -16 8 -11 3 -15 -24 -20 -19 -4 -45 -4 -58 -1 -33 8 -68 -7 -110 -49 -39
-39 -193 -122 -245 -132 -26 -5 -34 -3 -39 11 -9 21 46 71 87 79 41 8 51 56
11 56 -9 0 -44 -14 -77 -30 -75 -38 -165 -43 -165 -10 0 27 43 47 122 55 45 5
69 12 72 22 10 24 0 30 -65 36 -57 5 -85 20 -73 38 10 16 114 31 170 25 33 -3
93 -9 134 -12 75 -6 75 -6 88 22 6 15 12 34 12 41 0 7 4 13 9 13 5 0 22 25 36
55 33 67 40 73 90 77 58 5 68 0 60 -31z m675 -57 c0 -14 -5 -30 -10 -37 -60
-72 -100 -126 -100 -134 0 -5 -13 -22 -30 -38 -30 -29 -41 -74 -17 -77 6 0 31
-2 54 -3 48 -1 74 -18 56 -36 -6 -6 -43 -15 -83 -20 -40 -5 -74 -10 -75 -11
-1 -2 -23 -34 -48 -71 -56 -82 -78 -107 -136 -153 -51 -40 -57 -41 -71 -14
-13 23 18 77 75 133 19 19 35 39 35 45 0 26 -24 19 -93 -27 -75 -51 -143 -81
-165 -73 -22 7 -12 40 19 66 17 15 58 34 90 43 50 14 59 20 59 40 0 12 -6 23
-12 24 -7 0 -55 1 -105 1 -68 0 -93 4 -93 13 0 15 58 31 170 46 99 14 110 14
131 5 13 -6 30 12 74 74 31 45 68 103 81 128 14 26 30 56 37 67 7 11 13 22 14
23 1 2 28 6 60 9 32 3 60 7 62 9 9 8 21 -9 21 -32z"/>
<path d="M7720 5476 c-31 -18 -74 -91 -66 -113 4 -11 -5 -28 -25 -49 -27 -28
-30 -34 -16 -40 9 -3 31 -1 48 5 18 6 58 11 90 11 76 0 103 14 125 62 10 23
28 44 42 49 20 8 22 12 12 24 -7 8 -22 15 -33 15 -11 0 -30 9 -41 19 -28 26
-103 35 -136 17z"/>
<path d="M2873 4955 c-41 -42 -47 -45 -83 -39 -33 5 -41 3 -62 -20 -12 -15
-25 -39 -28 -54 -4 -19 -12 -28 -28 -30 -13 -2 -41 -21 -63 -43 -36 -36 -39
-43 -38 -92 1 -28 -1 -66 -4 -83 -5 -27 -2 -32 28 -49 33 -17 37 -17 92 0 62
19 74 20 170 9 57 -6 64 -9 78 -37 28 -56 22 -67 -37 -67 -71 0 -121 -19 -161
-61 -48 -48 -89 -117 -82 -137 11 -34 80 -55 173 -53 82 2 91 4 161 44 40 23
76 48 78 55 7 17 39 15 68 -4 16 -10 38 -15 62 -12 27 3 46 -1 63 -14 45 -33
133 -62 186 -62 90 1 194 66 194 121 0 13 -20 43 -49 72 -41 42 -56 50 -102
58 -55 9 -120 -1 -168 -26 -32 -18 -51 1 -28 27 9 10 17 25 17 34 0 25 108
136 144 148 33 11 66 5 66 -11 0 -5 24 -9 53 -9 28 0 71 -7 95 -15 38 -14 49
-13 107 1 36 9 65 20 65 25 0 5 7 9 15 9 8 0 15 6 15 13 0 7 5 18 12 25 24 24
48 152 29 152 -5 0 -16 15 -25 34 -18 37 -71 76 -104 76 -41 0 -132 -29 -169
-54 -21 -14 -48 -26 -61 -26 -28 0 -92 -62 -113 -107 -7 -18 -20 -33 -27 -33
-23 0 -122 -107 -169 -185 -22 -35 -41 -79 -47 -107 -4 -16 -12 -28 -20 -28
-22 0 -102 85 -126 134 -20 42 -21 56 -15 124 6 69 11 83 46 129 21 29 39 59
39 67 0 8 5 27 12 40 10 23 8 29 -18 51 -24 20 -38 24 -82 22 -41 -1 -57 2
-66 16 -21 27 -45 20 -93 -28z m41 -71 c9 -8 16 -26 16 -40 0 -13 5 -33 10
-44 6 -11 14 -29 20 -39 12 -25 -19 -67 -43 -58 -26 10 -77 99 -77 134 0 33
21 63 45 63 7 0 21 -7 29 -16z m684 -133 c2 -41 -1 -78 -6 -83 -13 -13 -67 2
-81 24 -15 25 -17 101 -2 106 6 2 11 10 11 18 0 11 10 14 38 12 l37 -3 3 -74z
m270 37 c-3 -38 -7 -45 -43 -65 -46 -26 -91 -29 -140 -9 -45 19 -46 48 -4 87
29 27 37 29 111 29 l79 0 -3 -42z m-927 -390 c22 -6 39 -14 39 -17 0 -4 -27
-15 -60 -24 -55 -17 -120 -64 -120 -88 0 -16 17 -10 92 31 75 41 138 53 138
26 0 -14 -49 -48 -105 -74 -43 -19 -188 -13 -211 10 -15 15 -14 19 14 61 33
47 42 53 107 72 54 17 62 17 106 3z m600 -75 c36 -21 36 -28 2 -50 -38 -25
-175 -25 -220 0 -39 21 -44 53 -10 60 12 2 62 5 110 6 68 1 96 -3 118 -16z"/>
<path d="M4386 4768 c-21 -34 -46 -142 -46 -203 0 -30 -4 -57 -10 -60 -5 -3
-10 -15 -10 -27 0 -33 -42 -98 -67 -104 -22 -6 -104 -1 -205 12 -42 5 -48 4
-64 -21 -37 -57 0 -192 58 -211 38 -12 48 -33 48 -107 1 -40 7 -90 15 -112 8
-22 15 -48 15 -58 0 -11 6 -31 14 -45 8 -15 22 -43 31 -62 9 -19 22 -45 29
-58 14 -25 77 -85 114 -109 28 -19 28 -30 -2 -95 -32 -70 -39 -101 -40 -178 0
-94 10 -138 41 -177 52 -66 52 -65 42 -123 -20 -122 64 -377 158 -480 13 -14
23 -28 23 -31 0 -11 103 -109 130 -124 14 -7 45 -23 70 -35 79 -36 88 -44 139
-113 43 -57 50 -72 44 -98 -15 -76 -65 -169 -90 -169 -14 0 -94 34 -146 62
-10 5 -51 17 -90 27 -82 21 -158 16 -202 -13 -22 -15 -26 -23 -21 -47 5 -27 3
-29 -26 -29 -17 0 -40 -7 -49 -16 -10 -9 -31 -18 -46 -20 -25 -2 -53 -27 -53
-46 0 -4 16 -18 36 -32 l35 -24 -43 -29 c-74 -50 -58 -86 44 -99 104 -12 360
4 381 25 6 6 47 11 100 11 49 0 98 5 110 12 25 13 86 12 135 -3 57 -18 122 9
122 50 0 10 -15 38 -33 62 -19 24 -36 53 -39 65 -4 18 12 95 37 170 7 24 44
44 79 44 34 0 166 89 166 112 0 15 -33 8 -54 -11 -51 -47 -95 -62 -181 -62
-72 0 -89 3 -122 24 -21 14 -54 50 -73 81 -30 47 -44 59 -96 82 -136 58 -234
148 -302 275 -22 42 -45 85 -50 95 -23 42 -42 158 -42 256 l0 102 -42 61 -43
60 1 113 c1 68 6 118 13 125 6 6 11 22 11 34 0 13 11 35 25 49 23 23 27 24 41
9 19 -18 38 -15 42 7 2 11 -12 22 -45 34 -49 18 -152 95 -169 126 -44 80 -83
170 -89 203 -9 51 -9 197 0 252 6 36 18 53 74 104 36 33 80 68 96 76 27 15 77
53 175 134 19 15 56 44 83 64 l47 35 108 -3 c185 -6 304 -66 406 -204 70 -95
81 -137 80 -293 0 -106 -4 -146 -19 -185 -10 -27 -23 -56 -28 -62 -5 -7 -6
-21 -3 -30 6 -15 12 -12 39 20 l32 38 50 -26 c28 -15 57 -33 66 -41 8 -8 19
-14 23 -14 22 0 166 -128 166 -147 0 -7 4 -13 9 -13 17 0 96 -113 139 -198 41
-81 52 -122 32 -122 -5 0 -10 -9 -10 -20 0 -23 16 -26 39 -7 29 25 106 47 161
47 87 -1 127 -36 184 -159 22 -46 22 -274 1 -311 -8 -14 -14 -35 -15 -46 0
-12 -7 -27 -15 -34 -8 -7 -15 -21 -15 -31 0 -11 -3 -19 -7 -19 -5 0 -17 -19
-28 -43 -34 -71 -108 -147 -220 -222 -159 -106 -285 -140 -460 -123 -24 2 -31
-1 -33 -18 -2 -11 6 -28 16 -37 17 -16 21 -16 32 -2 9 11 33 15 90 15 64 0 81
-4 101 -21 13 -12 33 -27 44 -35 17 -12 20 -24 18 -76 -3 -81 -17 -95 -68 -74
-21 9 -57 16 -81 16 -23 0 -46 5 -49 10 -7 11 -79 3 -108 -12 -10 -5 -22 -20
-27 -34 -6 -14 -18 -24 -29 -24 -11 0 -23 -4 -26 -10 -3 -5 -15 -10 -25 -10
-42 0 -50 -72 -9 -85 23 -7 25 -23 4 -31 -42 -16 -17 -84 31 -84 13 0 26 -4
29 -10 3 -5 22 -10 41 -10 48 0 54 -23 16 -63 -32 -34 -80 -122 -93 -172 -5
-16 -16 -55 -25 -85 -35 -117 -58 -359 -37 -393 3 -4 7 -27 9 -50 9 -93 47
-205 100 -297 46 -79 170 -217 215 -239 23 -12 27 -19 25 -55 -2 -37 -5 -41
-27 -37 -13 1 -32 7 -41 12 -9 5 -37 9 -62 9 -38 0 -48 -5 -71 -32 l-27 -33 5
58 c4 66 -7 79 -45 53 -12 -9 -26 -16 -30 -16 -14 0 -8 38 7 44 18 7 20 33 3
38 -15 5 -95 -28 -119 -48 -8 -8 -19 -14 -22 -14 -13 0 -7 38 10 69 14 24 15
33 6 42 -10 10 -17 10 -35 0 -33 -17 -78 -60 -112 -105 l-29 -39 -19 26 c-26
35 -126 100 -144 93 -18 -7 -10 -45 19 -97 14 -24 18 -43 13 -62 -6 -26 -8
-27 -79 -27 -49 0 -80 5 -93 15 -26 20 -169 20 -204 0 -14 -8 -33 -14 -43 -15
-16 0 -18 5 -12 33 4 17 12 47 18 65 10 30 14 32 60 32 81 0 130 37 158 118
15 45 17 47 60 52 77 9 119 55 119 131 0 31 8 61 21 84 19 32 20 40 9 83 -14
56 -35 82 -67 82 -25 0 -30 18 -12 51 14 28 -6 70 -47 98 -41 28 -125 32 -153
7 -18 -16 -20 -15 -57 24 -36 38 -41 40 -95 40 -52 0 -60 -3 -78 -29 -12 -16
-21 -40 -21 -54 0 -14 -3 -32 -6 -41 -5 -14 -8 -13 -23 3 -23 26 -76 44 -106
37 -32 -8 -92 -61 -110 -97 -16 -29 -11 -53 20 -95 15 -20 14 -22 -19 -38 -63
-30 -97 -122 -67 -180 16 -29 61 -50 89 -42 28 9 37 -10 19 -37 -17 -27 -25
-111 -13 -145 15 -44 137 -70 186 -40 10 7 22 10 25 6 9 -8 -28 -158 -39 -158
-6 0 -21 11 -35 24 -57 54 -187 82 -241 51 -14 -8 -34 -14 -46 -15 -11 0 -29
-9 -39 -20 -10 -11 -24 -20 -31 -20 -12 0 -74 -65 -74 -78 1 -15 98 -69 157
-86 127 -38 312 8 329 82 4 15 10 32 14 37 14 18 40 121 43 171 5 55 18 68 29
27 9 -32 -13 -138 -47 -228 -23 -63 -24 -70 -9 -86 8 -9 38 -24 65 -33 77 -25
184 -13 276 31 74 35 95 61 73 88 -21 25 -2 36 48 29 26 -3 52 -11 58 -15 23
-18 32 14 23 81 -5 36 -12 74 -15 85 -4 12 17 -4 50 -38 57 -58 92 -72 102
-39 13 40 39 82 51 82 16 0 16 -3 1 -52 -19 -65 1 -70 65 -15 57 49 77 48 77
0 0 -26 26 -41 42 -25 14 14 38 4 38 -15 0 -8 -9 -22 -21 -31 -13 -12 -18 -23
-13 -35 6 -16 9 -16 28 -4 13 9 46 13 89 12 l69 -1 -5 33 c-4 20 -1 33 6 36
12 4 79 -22 129 -49 51 -27 81 -11 57 32 -7 13 -9 27 -6 31 9 8 175 -47 189
-64 6 -7 21 -13 34 -13 12 0 26 -4 29 -10 3 -5 15 -10 26 -10 10 0 27 -4 37
-9 9 -5 37 -15 62 -22 25 -7 50 -16 55 -20 11 -8 48 -12 280 -29 154 -12 514
-7 524 7 3 4 17 9 31 11 23 3 127 30 196 52 17 6 37 10 45 10 9 0 62 25 118
55 57 30 106 55 110 55 3 0 24 12 45 26 l39 27 54 -61 c30 -34 78 -78 106 -98
29 -21 57 -42 62 -48 10 -11 88 -50 160 -80 22 -10 52 -24 67 -32 14 -7 42
-14 62 -14 20 0 36 -3 36 -8 0 -9 74 -29 160 -43 94 -16 421 -6 485 15 28 9
60 16 73 16 27 0 123 29 137 41 5 5 19 9 31 9 13 0 25 4 28 9 3 5 17 12 30 15
42 10 149 65 181 91 17 14 33 25 37 25 5 0 45 27 89 60 45 34 87 59 93 57 6
-2 12 -15 13 -28 0 -13 1 -32 2 -41 1 -10 7 -18 14 -18 13 0 67 56 67 70 0 10
49 50 61 50 11 0 12 -27 2 -32 -16 -7 -43 -67 -43 -96 0 -40 12 -46 41 -23 21
18 23 22 11 42 -10 15 -11 24 -3 32 6 6 11 18 11 27 0 9 14 29 30 45 33 31 40
65 13 65 -18 0 -71 -38 -116 -82 -16 -15 -37 -28 -48 -28 -20 0 -20 1 3 42 13
24 56 79 97 123 41 44 94 107 117 140 24 33 47 65 51 71 20 26 35 51 46 77 6
15 15 27 19 27 4 0 8 11 8 25 0 14 5 25 10 25 6 0 10 5 10 12 0 7 14 42 32 78
17 36 35 73 40 82 4 10 8 28 8 41 0 13 7 32 15 43 16 22 22 194 6 194 -5 0
-13 -26 -17 -58 -3 -31 -10 -61 -14 -67 -4 -5 -10 -21 -13 -35 -5 -27 -32
-100 -61 -165 -10 -22 -24 -55 -31 -73 -70 -162 -131 -249 -285 -407 -93 -95
-154 -146 -235 -199 -33 -21 -62 -42 -65 -46 -15 -21 -178 -97 -283 -132 -158
-51 -151 -49 -227 -55 -36 -3 -68 -10 -72 -16 -4 -7 -69 -11 -190 -11 -183 1
-229 7 -348 44 -30 10 -75 24 -100 31 -25 7 -49 16 -54 21 -6 4 -16 8 -24 8
-15 0 -140 71 -191 110 -127 95 -239 255 -297 425 -37 109 -38 112 -39 280 -2
124 2 179 11 204 8 18 14 46 14 60 0 15 7 36 15 47 8 10 15 28 15 39 0 23 37
124 52 142 6 7 23 39 40 70 16 32 35 67 41 79 15 25 184 220 211 243 11 9 33
30 50 47 17 17 59 50 92 72 73 49 251 142 270 142 8 0 22 5 32 10 35 21 239
86 317 101 133 26 407 25 560 0 33 -6 85 -14 115 -19 61 -11 216 -65 268 -94
18 -10 37 -18 43 -18 6 0 28 -13 49 -30 21 -16 41 -30 45 -30 8 0 141 -114
163 -140 7 -8 21 -31 30 -50 10 -19 29 -55 44 -80 25 -43 39 -81 52 -143 11
-50 26 -28 26 38 0 57 -5 75 -37 133 -49 89 -119 178 -161 204 -18 11 -48 34
-65 49 -17 16 -37 29 -44 29 -7 0 -13 5 -13 10 0 6 -7 10 -15 10 -8 0 -15 5
-15 10 0 6 -6 10 -14 10 -7 0 -19 7 -26 15 -20 25 -78 47 -250 98 -131 39
-342 70 -470 68 -125 -1 -312 -23 -355 -41 -11 -4 -40 -14 -65 -21 -25 -7 -49
-16 -55 -21 -5 -4 -21 -8 -35 -8 -14 0 -36 -7 -48 -16 -13 -9 -26 -14 -29 -11
-5 6 -40 -9 -163 -66 -114 -53 -255 -153 -331 -235 l-49 -54 -33 34 c-18 18
-45 44 -61 57 -35 29 -172 101 -192 101 -8 0 -14 5 -14 10 0 6 -4 10 -10 10
-5 0 -38 14 -72 30 -34 17 -68 30 -77 30 -8 0 -33 6 -56 14 -116 39 -133 44
-260 66 -191 33 -305 38 -460 19 -49 -6 -106 -12 -125 -14 -41 -3 -122 -25
-205 -55 -33 -12 -73 -24 -88 -27 -16 -3 -45 -14 -65 -23 -46 -22 -62 -12 -62
39 0 35 23 72 88 139 25 27 41 70 40 108 -1 35 5 46 65 107 67 69 97 115 97
149 0 10 4 18 9 18 12 0 37 49 63 124 18 53 20 74 14 182 -6 113 -11 137 -48
224 -14 33 -102 101 -141 109 -31 7 -38 16 -122 178 -49 94 -203 203 -288 203
-33 0 -57 11 -121 54 -45 29 -101 64 -126 78 -45 24 -45 24 -40 68 6 61 5 143
-4 285 -9 154 -10 156 -46 180 -16 11 -30 27 -30 35 0 24 -29 60 -48 60 -9 0
-32 17 -50 39 -31 37 -35 39 -108 43 -41 3 -80 10 -87 17 -6 6 -38 12 -71 12
-87 2 -107 9 -164 58 -29 25 -67 52 -86 60 -18 9 -39 21 -47 27 -8 6 -37 14
-66 18 -47 6 -54 4 -67 -16z m137 -47 c44 -17 117 -70 117 -85 0 -8 -8 -17
-17 -20 -29 -10 -98 -50 -117 -66 -10 -8 -39 -34 -65 -57 -27 -24 -53 -43 -59
-43 -13 0 -5 143 9 172 5 9 9 32 9 50 0 20 8 43 20 55 20 23 32 22 103 -6z
m-323 -386 c5 -3 -10 -31 -35 -63 -25 -31 -45 -67 -45 -79 0 -51 -49 -34 -80
27 -18 34 -27 109 -16 121 7 6 164 1 176 -6z m1427 -650 c29 -13 68 -38 87
-56 36 -31 126 -158 126 -177 0 -5 7 -23 15 -38 11 -23 12 -31 2 -41 -11 -10
-44 -17 -73 -14 -13 1 -74 112 -74 133 0 7 -18 33 -40 58 -22 25 -40 48 -40
52 0 3 -18 26 -40 50 -60 66 -50 75 37 33z m181 -1340 c-56 -62 -152 -89 -211
-58 -28 14 -29 33 -1 33 8 0 22 4 32 9 9 5 52 26 95 47 42 20 77 40 77 45 0 4
8 9 18 11 33 7 27 -46 -10 -87z m882 -112 c102 -13 178 -25 250 -38 61 -12
331 -121 338 -137 2 -5 7 -8 12 -8 18 0 137 -75 173 -109 39 -37 50 -84 23
-94 -20 -8 -126 -152 -126 -171 0 -9 -4 -16 -10 -16 -5 0 -10 -5 -10 -11 0 -6
-7 -17 -15 -25 -8 -9 -15 -24 -15 -33 0 -10 -6 -24 -13 -30 -13 -10 -32 -63
-58 -161 -6 -25 -17 -65 -24 -90 -19 -66 -38 -263 -31 -323 8 -65 26 -139 37
-151 5 -6 9 -27 9 -48 0 -21 5 -38 10 -38 6 0 10 -12 10 -26 0 -25 23 -76 45
-100 6 -6 19 -27 30 -48 l20 -38 -30 -24 c-86 -70 -318 -169 -455 -194 -36 -6
-85 -17 -110 -25 -58 -17 -390 -20 -525 -5 -55 6 -131 15 -170 19 -70 8 -221
52 -259 76 -12 7 -55 25 -96 41 -41 15 -82 33 -90 39 -8 6 -28 17 -45 25 -62
30 -175 135 -253 236 -48 61 -107 227 -121 339 -12 90 -1 336 15 360 8 11 14
28 14 39 0 22 22 88 54 166 20 47 102 156 156 208 119 113 243 212 266 212 8
0 14 4 14 9 0 5 10 13 23 17 12 4 45 17 72 29 106 48 271 105 303 105 11 0 31
5 44 10 39 17 248 37 343 32 50 -2 137 -11 195 -19z m-1662 -89 c14 -4 16 -36
2 -50 -5 -5 -19 -45 -30 -89 -22 -87 -19 -101 38 -150 34 -29 24 -66 -16 -58
-38 7 -109 7 -157 0 -42 -7 -80 -15 -80 -17 0 0 -31 -2 -68 -3 -40 -1 -71 -7
-75 -14 -6 -9 -64 -13 -204 -15 -108 -2 -199 0 -202 3 -14 14 8 39 51 59 34
16 68 22 132 23 69 2 86 5 86 17 0 12 -22 16 -115 20 -149 6 -173 19 -100 53
31 15 63 18 162 17 68 -1 129 -1 136 -1 8 1 12 9 10 18 -2 12 -22 20 -76 29
-99 17 -107 20 -92 39 15 18 84 20 144 4 107 -28 146 -42 146 -50 0 -5 7 -9
15 -9 9 0 33 -11 54 -25 35 -24 71 -26 71 -4 0 5 14 28 30 51 17 22 30 48 30
57 0 9 7 25 15 35 8 11 15 29 15 41 0 35 15 39 78 19z m407 -64 c87 -14 145
-33 145 -47 0 -6 -15 -22 -32 -34 -18 -13 -66 -53 -106 -91 l-73 -68 -67 6
c-37 4 -71 10 -77 15 -14 13 17 40 56 48 44 9 51 38 12 46 -66 14 -87 21 -90
31 -6 17 65 36 130 33 50 -2 63 0 65 13 2 10 -8 20 -28 27 -17 6 -29 15 -25
21 8 12 15 12 90 0z m-1026 -851 c20 -19 22 -28 16 -67 -9 -59 -25 -92 -44
-92 -9 0 -25 -3 -36 -6 -29 -7 -49 31 -47 93 2 86 58 121 111 72z m247 -54
c10 -16 14 -34 10 -50 -7 -29 -68 -93 -108 -114 -24 -12 -29 -11 -65 15 -21
15 -40 29 -42 31 -10 7 24 91 47 116 22 23 33 27 84 27 50 0 60 -3 74 -25z
m-416 -80 c26 -42 25 -51 -6 -92 -26 -34 -42 -39 -72 -24 -9 5 -30 15 -45 22
-16 7 -38 27 -50 43 -20 29 -20 29 -1 64 10 19 34 43 53 53 33 18 34 18 67 -8
19 -14 43 -40 54 -58z m488 -68 c6 -7 14 -31 18 -54 5 -33 2 -45 -14 -61 -17
-17 -29 -20 -84 -15 -69 6 -98 17 -98 36 0 21 51 68 94 88 49 22 70 24 84 6z
m-273 -21 c52 -24 55 -27 55 -61 0 -40 -35 -107 -74 -144 -33 -32 -96 -44
-151 -30 -35 9 -47 18 -60 46 -29 61 14 156 87 191 56 27 76 27 143 -2z m-310
-72 c20 -13 25 -24 25 -60 0 -50 -13 -60 -100 -74 -66 -11 -90 1 -90 45 0 47
14 71 53 96 35 22 71 20 112 -7z m475 -70 c103 -13 100 -12 100 -54 0 -30 -6
-43 -31 -64 -37 -31 -76 -33 -128 -7 -66 34 -73 58 -33 119 11 17 21 22 36 17
12 -4 37 -9 56 -11z m-415 -94 c4 -6 24 -19 46 -30 21 -11 39 -27 39 -36 0
-30 -40 -102 -71 -129 -27 -22 -38 -25 -67 -20 -83 15 -103 64 -61 145 33 63
95 101 114 70z m272 -32 c41 -18 52 -38 53 -89 0 -37 -5 -50 -28 -72 -40 -39
-91 -34 -140 13 -19 18 -22 30 -20 68 3 43 6 47 48 68 53 28 51 27 87 12z
m-388 -321 c50 -24 71 -55 30 -43 -64 19 -124 17 -158 -4 -44 -28 -29 -48 22
-29 62 22 210 -24 166 -52 -8 -5 -24 -9 -36 -9 -12 0 -24 -4 -27 -9 -9 -14
-89 -21 -126 -9 -55 16 -140 59 -140 69 0 19 73 74 119 90 64 23 99 22 150 -4z
m514 -63 c45 -29 47 -46 7 -74 -44 -31 -117 -50 -196 -50 -57 0 -74 4 -88 19
-17 18 -17 20 1 29 39 20 127 34 178 28 52 -6 79 4 53 20 -18 11 -169 5 -185
-7 -7 -6 -13 -8 -13 -3 0 16 15 31 48 52 46 27 141 20 195 -14z"/>
<path d="M8467 4631 c-33 -55 -19 -243 24 -321 4 -8 22 -42 39 -76 32 -60 72
-106 165 -188 54 -47 157 -116 175 -116 5 0 33 -11 60 -24 28 -14 64 -28 80
-31 17 -4 30 -10 30 -14 0 -8 141 -31 194 -31 55 0 113 19 171 55 58 37 63 43
101 110 22 40 27 61 26 107 -2 56 -7 71 -70 179 -33 58 -172 199 -195 199 -30
0 -19 -20 49 -88 82 -82 110 -118 146 -190 37 -76 37 -126 -2 -200 -24 -47
-41 -64 -87 -92 -58 -34 -58 -34 -177 -33 -70 1 -123 6 -129 12 -6 6 -17 11
-25 11 -8 0 -33 9 -56 19 -69 32 -114 51 -121 51 -3 0 -12 6 -19 13 -8 6 -40
30 -71 52 -90 62 -139 110 -187 183 -46 69 -54 88 -83 184 -17 57 -17 148 0
226 9 42 -14 44 -38 3z"/>
<path d="M4580 4335 c0 -8 5 -24 12 -34 9 -15 9 -25 0 -46 -22 -49 -15 -93 22
-130 26 -27 41 -35 70 -35 24 0 36 -5 36 -14 0 -15 24 -28 34 -19 3 4 6 18 6
33 0 14 10 36 21 49 31 33 35 81 9 113 -26 34 -74 58 -115 58 -19 0 -39 8 -50
20 -21 24 -45 26 -45 5z"/>
<path d="M6915 4243 c-16 -9 -33 -20 -37 -26 -3 -6 -27 -8 -58 -4 -66 8 -101
-9 -125 -59 -13 -29 -15 -42 -6 -61 16 -35 14 -43 -13 -43 -56 0 -115 -46
-144 -113 -19 -43 -15 -60 19 -88 31 -25 31 -26 16 -55 -27 -53 -30 -96 -7
-131 17 -28 26 -33 58 -33 26 0 45 7 57 20 22 24 35 17 35 -17 0 -31 34 -89
60 -103 10 -6 32 -10 49 -10 31 0 31 0 31 -54 0 -58 -10 -75 -30 -51 -7 8 -37
26 -67 40 -77 35 -167 35 -219 0 -56 -38 -68 -59 -54 -99 11 -34 49 -75 89
-96 32 -16 197 -16 217 1 22 18 36 -1 42 -59 3 -40 1 -50 -13 -56 -10 -4 -28
0 -42 9 -40 26 -115 31 -154 9 -88 -49 -157 -115 -196 -187 -28 -51 -29 -83
-4 -97 25 -13 118 -13 126 0 3 6 21 10 40 10 18 0 40 7 49 15 8 8 24 15 35 15
11 0 22 4 25 9 3 5 25 19 48 31 24 12 60 35 80 51 44 35 43 34 75 9 14 -11 34
-20 43 -20 10 0 23 -7 30 -15 7 -8 23 -15 36 -15 12 0 26 -4 29 -10 10 -17
211 -12 245 5 37 19 38 39 3 105 -41 78 -115 130 -188 130 -36 0 -118 -31
-130 -49 -14 -24 -25 3 -25 61 l0 60 28 -7 c64 -16 92 -16 136 -1 69 24 116
50 159 90 53 50 49 78 -20 124 -24 17 -46 22 -100 22 -65 0 -73 -3 -126 -40
-31 -22 -58 -36 -61 -31 -8 13 11 152 23 164 7 7 19 6 38 -1 34 -14 114 -18
132 -8 25 16 52 98 46 137 -6 36 -6 36 32 43 74 12 111 68 89 136 -8 25 -22
39 -53 54 -23 12 -42 25 -43 30 0 5 11 32 26 61 31 64 26 94 -24 135 -46 38
-90 39 -140 5 -34 -23 -38 -24 -43 -8 -3 10 -9 28 -13 39 -7 21 -45 44 -69 44
-7 -1 -25 -8 -42 -17z m-67 -99 c34 -38 30 -102 -8 -132 -25 -20 -32 -21 -50
-10 -11 7 -27 29 -35 48 -9 19 -20 43 -26 53 -7 12 -5 24 7 42 27 41 73 41
112 -1z m353 5 c37 -26 37 -60 0 -98 -61 -63 -110 -72 -160 -31 -23 19 -23 21
-7 54 21 44 83 96 114 96 13 0 37 -9 53 -21z m-157 -178 c20 -17 21 -97 3
-116 -29 -29 -104 -58 -163 -63 -54 -4 -63 -2 -83 19 -17 18 -20 30 -15 54 14
67 35 87 124 119 26 9 118 0 134 -13z m191 -45 c36 -15 60 -49 49 -69 -34 -59
-84 -72 -143 -36 -31 19 -33 22 -27 61 4 23 9 45 12 50 8 13 71 9 109 -6z
m-499 -81 c7 -19 14 -40 14 -48 0 -19 -104 -127 -123 -127 -34 0 -47 12 -47
45 0 53 37 110 89 139 25 14 47 26 49 26 2 0 10 -16 18 -35z m348 -50 c49 -21
79 -69 70 -115 -8 -50 -30 -70 -75 -70 -29 0 -43 6 -63 30 -26 32 -48 93 -40
113 3 9 51 47 70 56 1 1 18 -6 38 -14z m-163 -57 c21 -38 -62 -178 -106 -178
-27 0 -65 50 -65 86 0 18 5 36 10 39 6 3 10 14 10 24 0 10 10 25 23 34 29 20
116 16 128 -5z m303 -289 c43 -34 35 -64 -29 -104 -30 -19 -62 -35 -71 -35
-10 0 -32 -5 -50 -12 -26 -9 -41 -9 -73 2 -23 7 -41 17 -41 21 0 4 23 18 50
30 28 12 50 26 50 31 0 4 16 8 35 8 38 0 47 15 15 25 -17 5 -60 -8 -112 -36
-13 -7 -18 -5 -18 5 0 15 50 56 69 56 6 0 11 4 11 9 0 13 25 18 86 20 38 1 58
-4 78 -20z m-667 -50 c7 -7 30 -9 55 -6 89 9 195 -36 186 -80 -7 -36 -172 -40
-225 -6 -13 9 -31 29 -39 45 -22 43 -6 76 23 47z m208 -276 c50 -24 47 -48 -4
-39 -32 5 -54 0 -115 -28 -76 -35 -102 -61 -86 -86 7 -12 15 -9 42 15 18 17
34 33 36 38 2 4 13 7 25 7 12 1 33 7 47 15 14 8 42 14 62 15 38 0 58 -13 35
-24 -6 -3 -24 -14 -38 -24 -73 -49 -95 -62 -111 -62 -9 0 -20 -4 -23 -10 -3
-5 -19 -10 -34 -10 -15 0 -32 -5 -37 -10 -11 -11 -56 -15 -89 -8 -59 14 6 115
125 197 53 36 109 41 165 14z m325 -59 c43 -9 110 -50 110 -68 0 -8 -7 -17
-16 -20 -24 -9 -124 5 -139 20 -7 8 -24 14 -37 14 -13 1 -38 9 -57 19 l-34 18
24 17 c24 17 56 17 149 0z"/>
<path d="M1660 4060 c-8 -5 -25 -10 -36 -10 -26 0 -127 -44 -165 -71 -32 -23
-72 -25 -89 -4 -7 8 -27 15 -46 15 -18 0 -45 5 -61 11 -20 8 -51 8 -115 -1
-159 -23 -239 -86 -252 -200 -4 -30 -13 -69 -22 -85 -32 -62 -54 -146 -54
-208 0 -35 -5 -68 -11 -74 -8 -8 -9 -49 -5 -130 10 -213 30 -342 62 -406 8
-16 14 -41 14 -57 0 -16 4 -31 9 -34 5 -3 11 -18 14 -33 7 -40 32 -102 45
-115 7 -7 12 -18 12 -26 0 -21 51 -112 83 -146 32 -36 32 -35 12 -72 -19 -36
-19 -101 0 -134 8 -14 14 -32 15 -41 0 -9 21 -53 46 -98 45 -81 48 -101 16
-101 -9 0 -34 -5 -54 -10 -94 -27 -28 -120 84 -120 47 0 94 -27 112 -65 9 -19
45 -64 79 -100 50 -52 68 -65 93 -65 39 0 64 27 64 71 0 57 9 62 75 39 68 -23
103 -25 129 -5 13 10 17 21 12 39 -7 28 -60 83 -89 92 -17 5 -17 8 8 34 32 33
30 56 -7 83 -22 16 -43 20 -107 21 -52 1 -84 -3 -92 -11 -33 -33 -55 -11 -125
125 -18 35 -37 69 -42 75 -16 20 -24 91 -13 119 7 18 28 34 67 52 l56 26 37
-19 c51 -27 207 -46 257 -31 22 6 64 10 94 8 l55 -3 2 -63 c1 -57 5 -68 56
-144 55 -82 62 -110 27 -101 -24 6 -98 -35 -106 -60 -10 -32 32 -65 99 -78 46
-9 67 -20 91 -45 17 -18 60 -51 95 -74 35 -23 71 -48 80 -57 8 -9 30 -22 48
-29 55 -23 110 11 97 60 -5 23 -3 26 17 26 13 0 45 -7 71 -14 104 -32 160 30
83 91 -43 34 -44 44 -5 61 55 25 48 80 -12 102 -18 6 -94 14 -168 16 -74 3
-146 10 -160 15 -24 10 -43 44 -95 167 -17 40 -17 43 -1 61 10 10 34 22 54 25
106 18 234 54 272 77 8 5 22 12 30 16 46 20 133 89 176 138 58 67 107 165 109
217 0 21 9 46 20 58 l19 21 35 -39 c20 -21 71 -58 114 -82 83 -45 207 -158
207 -188 0 -10 6 -26 14 -37 23 -33 37 -94 46 -203 8 -97 24 -144 40 -125 4 4
4 55 0 113 -16 234 -101 373 -288 471 -35 18 -78 50 -97 70 -32 36 -33 40 -23
71 21 60 46 62 116 11 28 -21 57 -50 63 -65 6 -16 15 -28 20 -28 9 0 94 -74
143 -125 41 -43 75 -99 81 -137 3 -18 10 -37 16 -42 5 -6 9 -37 9 -70 0 -184
39 -317 116 -397 15 -16 35 -29 44 -29 18 0 40 -19 40 -34 0 -15 -48 -36 -80
-36 -41 0 -139 128 -140 183 0 17 -5 27 -15 27 -28 0 -21 -64 11 -107 29 -38
30 -45 4 -68 -18 -17 -19 -20 -5 -35 15 -17 80 -32 140 -32 65 -1 145 37 145
68 0 13 -77 74 -92 74 -41 0 -104 138 -113 247 -20 232 -20 229 -60 311 -22
44 -51 87 -65 97 -14 9 -41 37 -60 61 -19 24 -47 48 -61 55 -40 16 -43 36 -14
85 14 24 23 44 20 44 -3 0 1 15 9 34 8 18 16 62 17 97 4 59 2 64 -16 62 -11
-2 -30 2 -42 8 -34 18 -139 6 -171 -19 -26 -21 -70 -44 -104 -55 -22 -7 -34
-100 -19 -141 26 -67 -21 -91 -152 -76 -44 5 -85 14 -91 20 -5 5 -18 10 -28
10 -10 0 -26 4 -36 9 -9 5 -33 15 -52 24 -33 14 -70 42 -128 95 -31 27 -68 31
-53 5 23 -43 159 -143 193 -143 9 0 21 -7 28 -15 7 -8 21 -15 32 -15 11 0 29
-5 40 -11 12 -6 57 -13 100 -15 43 -2 83 -6 89 -9 26 -17 -34 -160 -105 -249
-32 -40 -155 -128 -197 -141 -13 -4 -26 -11 -29 -14 -9 -12 -145 -51 -218 -62
-53 -9 -83 -9 -110 -1 -20 6 -57 14 -82 17 -46 6 -163 69 -211 113 -41 37 -48
7 -8 -34 18 -18 29 -37 25 -41 -4 -5 -49 -8 -99 -8 -93 0 -169 15 -220 44 -22
12 -31 13 -45 3 -62 -44 -122 -51 -188 -24 -74 31 -115 77 -170 192 -33 69
-84 215 -84 242 0 8 -7 21 -15 28 -9 8 -15 29 -15 56 0 23 -4 46 -10 49 -5 3
-10 39 -10 78 -1 40 -5 104 -9 142 -8 67 8 302 24 367 9 35 25 26 25 -14 0
-17 13 -60 30 -95 16 -34 30 -68 30 -73 0 -6 5 -10 10 -10 6 0 10 -7 10 -15 0
-8 4 -15 9 -15 5 0 14 -13 19 -29 6 -16 42 -62 80 -103 58 -60 89 -82 174
-126 56 -29 115 -52 130 -52 15 0 30 -4 33 -10 22 -36 295 24 295 65 0 19 -27
19 -61 2 -49 -26 -182 -37 -259 -22 -35 7 -88 27 -123 46 -10 6 -36 19 -58 30
-42 23 -131 110 -163 162 -12 17 -29 41 -38 51 -10 11 -18 25 -18 31 0 5 -9
27 -20 48 -11 20 -20 43 -20 51 0 8 -5 16 -10 18 -7 2 -11 53 -12 129 -2 141
8 178 56 219 62 52 73 55 221 55 l140 0 90 -40 c148 -66 300 -191 345 -284 14
-27 31 -50 38 -51 17 0 15 45 -3 60 -8 7 -15 19 -15 28 0 26 -157 168 -240
217 -44 26 -80 53 -80 60 0 18 81 54 138 62 26 3 50 11 54 17 4 7 63 12 155
14 120 3 156 1 187 -12 21 -9 47 -16 57 -16 11 0 27 -4 37 -9 9 -5 35 -16 57
-26 l40 -17 -30 -22 c-68 -49 -135 -119 -135 -142 0 -31 26 -31 41 -1 24 46
130 128 198 151 21 8 47 19 57 24 11 6 56 16 102 22 65 10 102 10 178 0 52 -7
97 -17 100 -21 3 -5 13 -9 22 -9 9 0 30 -7 46 -15 36 -19 52 -19 60 0 3 10 -1
15 -11 15 -9 0 -24 6 -32 13 -14 12 -46 20 -223 59 -64 13 -166 2 -265 -29
l-81 -25 -30 21 c-17 11 -41 21 -54 21 -13 0 -29 5 -36 12 -6 6 -33 15 -59 21
-69 14 -385 20 -403 7z m1340 -930 c19 -27 20 -35 10 -84 -7 -33 -20 -62 -35
-76 l-24 -22 -33 23 c-127 89 -140 112 -90 145 45 31 75 42 114 43 30 1 41 -5
58 -29z m-1817 -727 c26 -5 31 -13 27 -42 -6 -47 38 -172 87 -245 19 -27 40
-64 49 -82 9 -18 22 -35 29 -38 7 -2 48 1 92 8 52 8 89 9 111 3 46 -14 40 -27
-13 -27 -32 0 -47 -5 -52 -15 -6 -18 23 -55 43 -55 21 0 104 -62 104 -78 0 -9
-6 -12 -17 -7 -10 3 -40 11 -68 17 -27 5 -70 21 -94 35 -37 22 -45 23 -57 11
-12 -12 -10 -20 16 -54 33 -43 42 -104 15 -104 -36 0 -87 46 -135 120 -39 61
-80 89 -143 100 -68 11 -87 19 -87 36 0 17 91 20 121 4 15 -8 21 -7 25 3 5 14
-25 77 -51 107 -7 8 -20 31 -28 50 -9 19 -22 46 -30 60 -58 102 -54 224 7 205
12 -4 33 -9 49 -12z m784 -45 c29 -11 33 -16 33 -49 0 -59 63 -195 111 -241
29 -28 30 -28 163 -28 124 0 186 -10 186 -30 0 -10 -107 -29 -145 -27 -24 2
-30 -2 -30 -18 0 -15 9 -21 37 -26 49 -8 133 -52 133 -70 0 -27 -88 -11 -171
31 -42 22 -80 37 -85 34 -19 -11 -8 -45 25 -74 39 -36 52 -68 30 -77 -8 -3
-24 2 -37 11 -12 9 -46 33 -76 52 -29 20 -76 58 -104 85 -45 43 -60 51 -114
62 -61 11 -82 31 -45 40 9 3 39 11 65 17 27 7 51 19 53 25 3 7 -20 47 -50 90
-31 42 -56 83 -56 91 0 8 -5 14 -11 14 -14 0 -5 66 12 86 14 17 32 18 76 2z"/>
<path d="M2860 3926 c0 -8 15 -22 34 -33 83 -44 186 -174 186 -234 0 -9 8 -31
18 -50 14 -28 17 -59 16 -163 0 -90 -4 -131 -12 -134 -7 -2 -12 -19 -12 -37 0
-20 -6 -35 -15 -39 -16 -6 -21 -36 -7 -36 13 0 52 58 52 78 0 10 4 22 9 28 5
5 11 36 12 69 2 49 8 66 31 95 31 38 35 65 12 95 -10 14 -13 32 -8 62 6 39 3
46 -25 72 -23 22 -31 38 -31 64 0 42 -37 77 -81 77 -18 0 -46 16 -86 50 -57
49 -93 63 -93 36z"/>
<path d="M2440 3516 c0 -6 7 -19 15 -29 8 -12 11 -31 8 -51 -4 -24 0 -40 13
-55 22 -26 76 -51 111 -51 13 0 33 -5 44 -10 17 -10 19 -7 19 30 0 22 4 40 9
40 5 0 13 9 16 21 8 24 -28 83 -60 98 -30 15 -175 20 -175 7z"/>
<path d="M4834 3498 c-16 -13 -42 -38 -59 -57 -16 -19 -36 -40 -42 -47 -7 -7
-13 -19 -14 -26 0 -7 -9 -26 -20 -43 -29 -45 -39 -73 -39 -105 0 -16 -5 -32
-11 -35 -12 -8 -9 -194 3 -201 5 -3 8 -18 8 -33 0 -16 13 -55 30 -87 16 -32
30 -66 30 -76 0 -9 4 -18 8 -20 4 -1 23 -22 42 -46 31 -39 167 -132 194 -132
7 0 17 -5 23 -11 6 -6 56 -13 111 -16 90 -5 104 -4 134 15 78 48 130 180 132
332 1 67 -10 110 -27 110 -10 0 -13 -28 -14 -115 0 -88 -4 -121 -17 -140 -9
-13 -16 -31 -16 -38 0 -37 -69 -125 -101 -128 -130 -13 -273 39 -372 134 -37
36 -97 137 -97 164 0 7 -4 21 -9 31 -5 9 -15 56 -22 104 -12 88 -6 156 22 226
5 13 9 32 9 42 0 10 6 23 14 27 7 4 19 19 26 33 14 27 100 133 113 138 10 5 9
22 -2 22 -4 0 -21 -10 -37 -22z"/>
<path d="M2553 1948 c8 -63 17 -74 47 -56 18 10 24 10 27 1 7 -19 27 -16 48 7
10 11 24 20 32 20 7 0 13 4 13 8 0 4 14 13 30 19 29 11 40 36 21 47 -5 3 -27
-4 -50 -17 l-42 -22 -19 25 -19 25 -29 -28 c-29 -28 -42 -27 -42 5 0 10 -5 18
-11 18 -8 0 -10 -16 -6 -52z"/>
<path d="M987 1944 c-3 -3 -3 -12 -1 -19 3 -7 1 -16 -5 -20 -6 -3 -14 1 -17 9
-9 22 -37 20 -52 -4 -10 -17 -23 -20 -77 -20 -50 0 -65 -3 -65 -14 0 -23 10
-25 120 -27 57 -1 112 -6 122 -12 13 -9 21 -8 30 1 10 10 9 19 -4 45 -9 17
-19 40 -22 50 -5 17 -18 22 -29 11z"/>
<path d="M2783 1623 c-39 -7 -73 -59 -73 -109 0 -43 -1 -44 -32 -44 -33 0 -90
-28 -118 -59 -45 -48 -51 -116 -15 -159 l25 -30 -25 -30 c-36 -43 -43 -102
-15 -146 25 -41 54 -46 101 -19 35 21 45 12 29 -26 -16 -40 -4 -88 27 -108 30
-20 137 -23 170 -5 17 9 22 9 27 -4 10 -25 7 -152 -3 -159 -5 -3 -20 8 -33 24
-13 17 -46 38 -78 50 -57 22 -154 28 -165 11 -3 -5 -15 -10 -26 -10 -10 0 -19
-4 -19 -8 0 -5 -18 -16 -40 -26 -29 -13 -40 -23 -40 -40 0 -33 66 -90 145
-126 63 -28 78 -31 153 -28 l82 3 0 -47 c0 -55 -8 -63 -47 -44 -15 8 -52 22
-81 31 -42 13 -57 13 -75 3 -12 -7 -26 -11 -30 -10 -11 3 -79 -38 -89 -52 -3
-6 -18 -24 -31 -40 -23 -27 -31 -40 -60 -103 -18 -41 -2 -46 114 -39 59 3 124
13 146 22 75 30 99 43 118 64 23 25 53 26 63 1 9 -24 76 -78 122 -98 42 -18
186 -21 203 -4 6 6 30 11 54 11 50 0 52 6 28 85 -16 53 -61 107 -109 130 -36
19 -177 20 -194 3 -23 -23 -33 4 -22 60 5 28 12 104 15 168 6 125 8 134 31
134 20 0 74 41 74 56 0 6 7 14 15 18 10 3 15 19 15 46 0 38 11 52 25 30 17
-28 129 8 139 44 11 40 6 102 -10 124 -24 35 -15 54 28 57 20 1 44 8 53 15 22
18 19 71 -7 104 -63 79 -74 86 -135 91 -32 2 -59 4 -61 4 -2 1 4 11 12 23 21
30 20 42 -6 82 -32 48 -89 72 -138 57 -21 -6 -41 -18 -44 -26 -8 -22 -34 -18
-51 8 -26 40 -73 53 -142 40z m115 -69 c19 -21 22 -36 22 -103 0 -82 -9 -101
-46 -101 -14 0 -31 14 -49 43 -16 23 -34 45 -41 50 -20 12 -35 69 -26 102 14
51 97 56 140 9z m212 -16 c11 -12 18 -28 15 -36 -3 -7 -5 -24 -5 -36 0 -13
-16 -43 -34 -68 -34 -45 -35 -45 -70 -34 -25 7 -36 17 -37 31 -4 53 5 103 23
133 16 26 26 32 53 32 22 0 41 -8 55 -22z m-342 -159 c29 -28 52 -56 52 -63 0
-7 -10 -22 -22 -33 -31 -27 -197 -33 -222 -8 -19 19 -19 28 -7 72 15 50 56 83
105 83 37 0 48 -6 94 -51z m504 0 c24 -13 58 -64 58 -88 0 -30 -28 -39 -100
-31 -92 11 -140 35 -140 71 0 53 114 83 182 48z m-243 -69 c21 -10 41 -27 45
-36 9 -24 -25 -76 -60 -93 -16 -8 -30 -17 -32 -20 -4 -10 -119 -3 -141 9 -47
25 -11 108 59 139 57 26 81 26 129 1z m156 -96 c14 -9 32 -31 40 -48 14 -30
24 -102 15 -108 -3 -2 -15 -11 -26 -21 -21 -17 -23 -17 -57 0 -23 12 -46 37
-66 71 l-30 52 30 35 c34 39 57 43 94 19z m-423 -11 c31 -28 22 -51 -31 -78
-27 -13 -52 -29 -55 -34 -10 -15 -67 -41 -91 -41 -61 0 -38 120 30 154 42 21
124 20 147 -1z m288 -110 c25 -38 30 -58 30 -105 0 -75 -28 -111 -81 -106 -46
4 -59 34 -59 136 0 75 2 86 23 103 35 29 55 23 87 -28z m-162 -33 c4 -77 -26
-146 -69 -155 -62 -14 -128 13 -129 53 0 7 10 36 22 64 27 63 76 98 133 95
l40 -2 3 -55z m-137 -294 c60 -26 105 -68 94 -86 -5 -8 -10 -9 -18 -1 -6 6
-20 11 -31 11 -12 1 -38 7 -60 15 -38 13 -66 11 -66 -6 0 -12 84 -49 112 -49
23 -1 58 -21 58 -34 0 -9 -138 -7 -158 3 -9 5 -33 15 -52 24 -49 20 -102 66
-98 85 3 18 99 60 139 61 15 1 51 -10 80 -23z m-13 -292 c41 -20 41 -34 -1
-34 -32 0 -140 -50 -153 -71 -3 -6 -3 -17 0 -25 5 -12 10 -13 28 -3 13 7 25
15 28 19 20 29 153 69 165 50 11 -17 -15 -40 -79 -71 -51 -25 -71 -29 -143
-29 -76 0 -83 2 -83 20 0 11 4 20 9 20 5 0 13 10 16 23 9 27 73 87 94 87 9 0
25 7 35 15 25 19 45 19 84 -1z m343 -82 c63 -19 119 -59 119 -83 0 -21 -63
-32 -122 -22 -87 13 -173 85 -141 116 12 13 88 7 144 -11z"/>
<path d="M689 1161 c-21 -4 -45 -15 -54 -24 -16 -16 -18 -16 -42 3 -19 15 -41
20 -84 20 -51 0 -63 -4 -93 -31 -26 -22 -36 -40 -38 -67 -3 -32 -7 -38 -33
-42 -46 -8 -82 -37 -99 -81 -22 -54 -20 -78 7 -107 21 -22 21 -24 4 -37 -21
-15 -37 -65 -37 -117 0 -49 28 -78 74 -78 31 0 34 -3 40 -34 9 -48 56 -86 107
-86 30 0 47 8 78 35 42 39 53 42 70 21 6 -7 24 -16 39 -19 20 -4 31 -16 44
-49 10 -24 30 -57 45 -73 33 -34 53 -71 45 -79 -3 -3 -31 -6 -62 -6 -39 0 -62
-5 -70 -15 -7 -8 -21 -15 -31 -15 -9 0 -24 -7 -33 -15 -18 -18 -46 -20 -46 -2
0 7 14 32 31 55 31 42 33 72 6 72 -19 0 -101 -46 -117 -65 -7 -8 -18 -15 -25
-15 -11 0 -25 -20 -25 -36 0 -10 30 -3 37 10 8 14 72 56 86 56 10 0 9 -28 -2
-32 -15 -6 -61 -80 -61 -99 0 -27 12 -24 115 26 69 34 100 44 119 39 l26 -6
-39 -47 c-48 -57 -61 -98 -36 -108 11 -4 22 0 29 9 11 14 90 68 101 68 3 0 5
-27 5 -59 0 -66 10 -80 46 -60 22 11 28 9 64 -20 l40 -32 75 62 c41 34 77 60
79 58 3 -2 -5 -24 -16 -48 -14 -31 -17 -46 -9 -54 11 -11 24 -6 103 34 20 10
52 12 61 3 3 -3 1 -14 -5 -24 -21 -33 6 -50 76 -48 33 0 47 3 30 5 -18 2 -39
12 -49 23 -15 17 -15 19 11 43 24 22 26 28 14 42 -11 13 -24 15 -64 9 -28 -3
-61 -13 -74 -22 -18 -11 -26 -12 -35 -3 -9 9 -5 17 16 37 15 13 27 29 27 35 0
17 -30 22 -63 9 -71 -28 -87 -35 -87 -42 0 -12 -62 -40 -69 -31 -8 8 -28 114
-33 168 -4 36 23 46 52 20 19 -17 78 -26 179 -26 43 0 63 6 105 33 66 42 76
52 76 77 0 26 -85 112 -133 134 -49 22 -172 24 -181 2 -7 -19 -46 -20 -46 -1
0 19 100 163 137 199 29 27 30 27 72 12 24 -8 53 -15 65 -15 19 0 46 -37 46
-62 0 -19 65 -78 85 -78 29 0 72 44 84 86 5 18 21 48 36 68 19 25 26 46 26 78
0 24 7 59 15 79 15 34 15 40 -1 73 -10 20 -22 36 -27 36 -6 0 -8 17 -4 44 18
117 -86 154 -193 68 -58 -47 -70 -62 -71 -88 0 -18 -6 -22 -34 -22 -18 0 -45
-8 -59 -17 -35 -22 -67 -79 -67 -117 0 -25 -11 -42 -47 -78 -56 -53 -103 -112
-130 -161 -46 -82 -86 -137 -97 -133 -6 2 -16 21 -23 42 -16 52 2 124 32 121
55 -4 71 2 94 36 21 31 23 43 18 93 -6 57 -6 58 33 96 46 44 49 68 20 126 -25
50 -48 62 -100 54 -40 -7 -41 -6 -35 19 9 33 -17 72 -57 86 -34 12 -36 12 -89
2z m-135 -51 c16 -15 -4 -101 -29 -126 -13 -13 -29 -24 -34 -24 -17 0 -71 81
-71 105 0 49 95 80 134 45z m224 4 l22 -15 -19 -38 c-29 -56 -80 -102 -105
-95 -12 4 -22 11 -24 15 -2 5 -15 9 -29 9 -24 0 -25 2 -18 38 4 20 8 37 8 37
1 0 14 11 29 24 23 20 65 36 103 40 6 1 21 -6 33 -15z m670 -43 c5 -32 -43
-81 -79 -81 -14 0 -32 -7 -39 -15 -19 -22 -45 -18 -60 10 -14 26 -16 22 46 91
13 15 47 22 94 20 29 -1 36 -5 38 -25z m-513 -91 c17 -33 13 -60 -11 -85 -25
-25 -204 -19 -204 7 0 17 53 84 75 95 11 6 44 11 72 12 49 1 54 -1 68 -29z
m-545 -5 c7 -8 18 -15 26 -15 17 0 37 -37 28 -53 -24 -42 -49 -57 -95 -57 -60
0 -79 7 -79 31 0 23 19 68 38 92 18 21 65 22 82 2z m852 -27 c33 -50 33 -183
0 -195 -8 -4 -23 -1 -33 5 -10 7 -27 12 -38 12 -11 0 -29 12 -41 28 -39 48 -9
136 55 162 32 14 42 11 57 -12z m242 -11 l21 -29 -29 -24 c-24 -22 -36 -24
-89 -22 -79 4 -94 24 -53 67 47 49 117 53 150 8z m-826 -2 c55 -28 54 -94 -1
-153 -55 -57 -129 -67 -176 -22 -29 26 -31 33 -25 67 18 99 115 151 202 108z
m185 -96 c31 -17 37 -28 37 -80 0 -51 -10 -64 -54 -71 -29 -6 -34 -2 -88 61
-23 28 -26 35 -16 57 6 13 23 27 37 30 14 3 31 7 36 9 18 6 26 5 48 -6z m-424
-68 c12 -16 21 -33 21 -39 0 -5 -24 -28 -53 -51 -62 -47 -109 -55 -128 -20
-23 45 14 118 68 132 48 12 72 7 92 -22z m666 -18 c0 -6 -20 -33 -45 -60 -53
-57 -121 -154 -142 -203 -30 -69 -46 -195 -29 -228 4 -9 11 -47 14 -84 3 -52
2 -68 -8 -68 -8 0 -17 9 -20 20 -3 11 -17 23 -31 26 -28 7 -28 5 -10 38 10 19
11 37 5 62 -5 18 -13 50 -18 69 -5 20 -32 67 -60 106 -43 58 -50 73 -41 89 16
29 28 25 45 -16 23 -55 52 -91 79 -96 22 -5 25 -1 31 49 3 29 11 53 16 53 5 0
9 7 9 14 0 27 110 179 160 223 25 23 45 25 45 6z m-379 -52 c3 -14 9 -37 13
-51 10 -32 -1 -63 -31 -84 -56 -40 -98 -3 -98 89 0 50 2 55 23 55 12 0 30 7
40 15 25 18 46 9 53 -24z m-181 -17 c17 -23 -4 -132 -30 -150 -37 -27 -115
-11 -115 23 0 36 25 80 62 111 45 36 65 40 83 16z m628 -290 c29 -10 60 -24
70 -32 16 -14 16 -16 0 -34 -16 -18 -29 -19 -130 -16 -102 3 -114 5 -137 27
-33 31 -32 37 2 55 36 20 131 20 195 0z"/>
<path d="M325 363 c-11 -21 -25 -42 -32 -46 -7 -4 -13 -16 -13 -26 0 -10 -11
-30 -26 -46 -29 -31 -28 -60 1 -60 13 0 22 8 25 25 6 28 37 90 46 90 3 0 4
-24 2 -52 -4 -64 14 -73 51 -27 l24 30 -23 21 c-15 15 -20 26 -15 42 25 76 -6
114 -40 49z"/>
<path d="M7157 268 l-48 -41 -25 26 c-30 32 -40 34 -47 7 -3 -11 -18 -24 -33
-30 l-27 -11 23 -16 c13 -9 40 -16 59 -16 20 1 41 -3 47 -8 7 -5 23 4 44 26
38 39 60 45 60 16 0 -24 38 -34 66 -17 34 23 84 24 84 2 0 -20 24 -26 62 -15
18 5 73 10 121 11 49 1 91 6 93 10 5 7 -90 13 -143 8 -15 -1 -27 8 -38 29 -13
27 -20 30 -43 25 -15 -4 -31 -10 -37 -14 -5 -5 -35 -10 -65 -11 l-55 -4 -3 33
c-5 45 -34 42 -95 -10z"/>
</g>
</svg>
