<?xml version="1.0" standalone="no"?>
<!DOCTYPE svg PUBLIC "-//W3C//DTD SVG 20010904//EN"
 "http://www.w3.org/TR/2001/REC-SVG-20010904/DTD/svg10.dtd">
<svg version="1.0" xmlns="http://www.w3.org/2000/svg"
 width="682.000000pt" height="692.000000pt" viewBox="0 0 682.000000 692.000000"
 preserveAspectRatio="xMidYMid meet">
<metadata>
Created by potrace 1.16, written by Peter Selinger 2001-2019
</metadata>
<g transform="translate(0.000000,692.000000) scale(0.100000,-0.100000)"
fill="#000000" stroke="none">
<path d="M3232 6784 c-144 -72 -176 -261 -64 -378 48 -50 104 -76 168 -76 l51
0 61 -135 c34 -74 62 -138 62 -143 0 -4 -21 -14 -47 -21 -73 -19 -226 -95
-322 -159 -111 -74 -255 -216 -320 -317 -118 -181 -169 -337 -178 -547 l-6
-128 -81 0 c-146 0 -219 -19 -368 -98 -3 -1 -2 16 4 40 15 65 3 202 -26 291
-29 86 -85 207 -97 207 -14 0 -177 -165 -206 -210 -48 -71 -82 -145 -94 -201
l-11 -51 -18 29 c-51 80 -138 149 -261 207 -122 58 -187 76 -199 56 -13 -21
-12 -166 1 -253 15 -94 42 -168 90 -241 35 -53 37 -58 17 -51 -46 14 -265 18
-333 6 -81 -14 -184 -48 -204 -67 -18 -17 -7 -34 88 -136 95 -101 191 -163
315 -202 15 -5 7 -14 -41 -50 -32 -23 -78 -67 -102 -97 -49 -62 -139 -239
-147 -291 l-6 -35 78 -6 c155 -13 350 29 450 97 21 14 39 24 41 22 2 -1 -2
-29 -9 -60 -20 -101 19 -272 97 -426 31 -61 46 -69 82 -41 62 48 177 170 216
229 l42 63 16 -118 c9 -65 29 -208 44 -318 14 -110 42 -310 60 -445 26 -192
32 -266 28 -345 -2 -55 -6 -106 -9 -114 -3 -9 -31 12 -80 59 -173 164 -380
260 -605 280 -110 9 -219 5 -219 -10 0 -3 21 -22 48 -40 183 -131 396 -423
431 -591 47 -227 210 -497 391 -649 l49 -41 128 16 c70 9 131 18 136 18 4 1
24 -27 43 -63 130 -237 415 -650 450 -650 7 0 32 21 56 48 25 26 94 96 154
155 l110 108 105 -50 c203 -96 386 -153 617 -193 172 -30 522 -32 684 -5 357
60 703 225 982 466 l46 40 100 -60 c55 -32 102 -59 105 -59 3 0 34 -18 70 -40
36 -22 70 -40 75 -40 13 0 22 24 61 154 78 263 99 428 106 851 5 312 4 352
-16 490 -40 281 -113 499 -236 705 -18 30 -36 70 -40 88 -4 20 -24 49 -48 73
-48 46 -64 63 -162 167 -58 63 -136 131 -270 240 -51 41 -284 187 -378 237
l-105 56 51 47 c219 201 332 449 344 754 7 159 -5 249 -49 383 -54 167 -163
339 -303 481 -72 72 -202 174 -268 209 -20 11 -37 22 -37 25 0 3 41 60 91 128
l91 122 74 0 c91 0 134 19 192 85 128 145 37 369 -158 392 -98 11 -196 -42
-242 -131 -26 -50 -36 -167 -19 -219 12 -35 11 -37 -81 -174 l-93 -139 -76 27
c-169 60 -264 74 -509 75 l-225 0 -33 80 c-66 158 -92 225 -92 239 0 7 9 29
19 47 43 74 34 177 -21 254 -66 92 -199 122 -306 68z m179 -5 c169 -51 203
-288 56 -386 -148 -99 -339 0 -341 177 -1 150 139 252 285 209z m1569 -164
c37 -19 86 -71 106 -113 25 -53 16 -148 -19 -201 -79 -119 -242 -135 -338 -33
-49 51 -62 89 -57 166 6 97 52 157 146 192 42 16 120 11 162 -11z m-1401 -370
c33 -83 61 -153 61 -157 0 -7 -99 -32 -105 -26 -7 7 -126 271 -123 273 2 1 19
8 38 15 19 8 41 22 49 33 7 10 14 17 16 15 1 -2 30 -71 64 -153z m1107 -30 c9
-9 26 -12 42 -9 62 11 58 -8 -33 -132 -48 -66 -91 -123 -95 -127 -6 -7 -81 23
-99 39 -3 3 160 244 167 244 2 0 10 -7 18 -15z m-481 -164 c142 -31 215 -56
340 -116 166 -80 256 -145 383 -277 236 -245 347 -528 329 -834 -13 -210 -73
-385 -189 -557 -43 -63 -181 -212 -206 -222 -11 -4 -148 30 -160 40 -2 1 15
49 36 106 147 394 193 699 137 914 -75 291 -339 453 -741 455 -58 0 -85 4 -93
14 -20 24 -141 102 -218 140 -195 97 -420 111 -632 40 -93 -31 -192 -77 -249
-116 -24 -17 -46 -28 -49 -25 -10 10 163 172 239 224 41 29 116 73 164 98 129
66 347 135 360 114 8 -14 24 -11 24 5 0 20 51 24 255 21 129 -2 194 -8 270
-24z m-556 -296 c110 -26 230 -86 341 -171 l55 -42 134 -7 c357 -18 585 -153
662 -394 27 -83 37 -301 19 -424 -16 -112 -70 -321 -115 -442 -70 -190 -68
-186 -90 -180 -11 4 -81 17 -155 31 -404 72 -844 23 -1172 -133 l-97 -46 -95
82 c-237 204 -381 416 -448 659 -18 63 -22 106 -22 242 -1 176 12 256 60 391
32 88 106 221 130 234 10 6 39 24 64 41 68 47 217 120 296 144 139 42 293 47
433 15z m-1557 -516 c30 -58 67 -173 78 -245 13 -76 7 -154 -17 -227 -8 -27
-13 -51 -10 -54 3 -3 21 9 39 27 78 76 249 127 398 118 l55 -3 11 -69 c11 -66
11 -72 -14 -115 -60 -110 -144 -198 -225 -237 -20 -10 -37 -21 -37 -25 0 -5
17 -11 38 -14 119 -19 234 -70 318 -140 38 -31 134 -130 134 -138 0 -14 -169
-87 -249 -108 -98 -24 -173 -24 -256 2 -37 11 -69 18 -72 15 -3 -3 8 -17 25
-31 60 -50 122 -173 138 -273 6 -39 6 -39 -40 -61 -25 -13 -57 -36 -70 -52
-23 -27 -30 -29 -91 -29 l-67 0 -62 60 c-34 32 -78 87 -99 121 -39 66 -41 66
-52 -16 -9 -67 -39 -137 -91 -211 -48 -68 -191 -207 -208 -201 -17 6 -84 150
-106 229 -24 87 -26 223 -5 283 8 22 15 43 15 48 0 13 -21 7 -41 -12 -31 -28
-128 -78 -201 -103 -48 -16 -96 -22 -202 -26 l-139 -4 7 32 c13 69 99 220 163
290 60 65 161 130 200 130 8 0 13 6 11 13 -3 7 -33 15 -76 18 -123 12 -249 88
-364 222 -71 83 -71 83 55 117 111 30 249 36 363 16 50 -8 98 -18 108 -22 28
-11 18 11 -29 60 -51 53 -89 130 -111 225 -16 69 -24 264 -11 277 12 13 141
-35 226 -83 101 -58 172 -129 208 -209 15 -35 31 -64 36 -64 4 0 7 15 7 34 0
100 47 226 118 316 52 66 153 161 166 157 5 -2 18 -19 28 -38z m601 -639 c58
-191 239 -433 471 -627 l49 -41 -54 -27 c-152 -76 -350 -218 -471 -337 -22
-22 -38 -23 -38 -2 0 28 -44 95 -72 110 -15 8 -44 14 -66 14 l-38 0 -14 66
c-13 68 -74 204 -91 204 -5 0 -9 3 -9 8 0 4 53 7 118 7 93 0 131 5 183 22 74
24 224 97 234 113 9 15 -132 150 -215 205 -68 45 -183 95 -220 95 -28 0 -25
13 10 33 52 31 142 132 175 196 20 39 26 34 48 -39z m1593 -470 c207 -17 367
-50 554 -115 235 -82 648 -372 820 -576 l39 -46 -55 5 c-107 9 -180 -40 -209
-142 -36 -124 25 -246 138 -277 126 -34 233 28 268 156 11 38 12 39 26 20 23
-29 117 -231 141 -302 88 -254 117 -498 109 -892 -6 -303 -24 -483 -63 -660
-26 -118 -81 -301 -90 -301 -2 0 -76 41 -164 90 l-159 91 -214 212 c-118 117
-263 270 -323 341 -503 593 -851 1249 -1074 2028 -26 93 -90 348 -90 362 0 15
187 18 346 6z m-422 -72 c18 -172 28 -472 22 -653 -27 -808 -208 -1500 -580
-2220 -127 -246 -130 -250 -292 -408 l-151 -149 -49 64 c-26 34 -51 65 -54 68
-3 3 -28 36 -55 75 -248 348 -462 770 -535 1051 -43 164 -53 267 -47 439 10
246 53 409 177 660 58 117 176 317 199 335 3 3 32 37 63 75 140 173 339 338
548 457 259 146 399 199 695 261 50 11 52 10 59 -55z m98 -131 c132 -535 384
-1141 647 -1552 265 -415 436 -630 773 -969 169 -170 216 -222 207 -232 -57
-69 -308 -238 -466 -315 -274 -133 -561 -199 -862 -199 -256 0 -595 68 -830
165 -58 24 -220 102 -230 111 -2 1 6 18 17 36 55 89 141 258 216 422 328 714
476 1386 476 2154 0 184 -11 414 -26 525 -5 41 -4 47 13 47 15 0 25 -29 65
-193z m-1938 -217 c36 -55 53 -174 31 -216 -25 -49 -19 -105 16 -154 34 -46
34 -47 85 -455 l16 -130 -25 -95 c-28 -106 -26 -109 -47 60 -6 47 -20 148 -30
225 -11 77 -35 257 -55 400 -19 143 -37 273 -40 288 -4 24 12 117 20 117 1 0
14 -18 29 -40z m543 -60 c35 -21 52 -48 64 -99 7 -31 4 -38 -40 -85 -54 -58
-160 -197 -192 -250 -12 -20 -29 -36 -38 -36 -29 0 -153 65 -208 109 -94 74
-114 152 -57 221 31 37 85 52 171 49 62 -2 66 -1 80 25 16 31 121 86 163 86
14 0 39 -9 57 -20z m3190 -312 c128 -79 70 -313 -85 -342 -44 -8 -117 9 -155
36 -87 62 -88 257 -1 314 56 37 175 34 241 -8z m-3485 -146 c42 -20 77 -42 78
-49 0 -7 -15 -38 -34 -70 -18 -32 -53 -102 -77 -155 -40 -88 -45 -95 -51 -70
-6 23 -58 399 -58 417 0 4 15 -3 33 -15 17 -12 67 -38 109 -58z m-707 -632
c164 -44 311 -130 449 -261 l83 -79 6 -77 c15 -189 72 -394 162 -588 90 -191
96 -207 91 -213 -8 -7 -172 -32 -218 -32 -32 0 -45 9 -112 75 -168 166 -283
367 -331 579 -35 150 -158 343 -327 510 l-120 119 118 -6 c74 -3 149 -13 199
-27z"/>
<path d="M3463 5176 c-48 -55 -70 -115 -85 -232 -12 -103 -6 -134 39 -179 21
-20 36 -25 76 -25 46 0 54 3 92 44 49 50 74 113 82 207 7 85 -10 160 -47 199
-23 25 -36 30 -73 30 -41 0 -49 -4 -84 -44z m141 -3 c44 -47 55 -151 29 -260
-8 -34 -23 -28 -23 10 0 77 -73 131 -145 107 -19 -6 -35 -16 -35 -21 0 -5 -4
-9 -10 -9 -14 0 -13 12 11 75 42 113 119 157 173 98z"/>
<path d="M3875 5118 c-45 -46 -85 -135 -85 -191 0 -18 -5 -48 -10 -69 -15 -51
2 -114 39 -151 25 -26 38 -31 82 -31 48 -1 54 2 86 39 57 64 76 118 81 223 7
145 -34 222 -116 222 -28 0 -43 -9 -77 -42z m136 -11 c29 -36 42 -101 36 -182
-6 -76 -26 -139 -27 -82 0 42 -25 93 -55 113 -33 22 -87 22 -120 0 -34 -22
-35 -21 -23 22 21 75 65 139 108 155 25 9 61 -3 81 -26z"/>
<path d="M3124 4751 c-11 -5 -33 -24 -48 -42 -24 -29 -28 -40 -24 -80 9 -91
72 -141 152 -120 39 10 42 9 66 -22 51 -67 150 -156 203 -182 151 -74 314 -52
510 67 27 17 39 20 45 11 11 -17 58 -33 98 -33 25 0 44 9 70 33 73 66 50 185
-40 215 -52 17 -106 1 -141 -40 -25 -30 -27 -38 -21 -90 l6 -57 -69 -41 c-136
-81 -249 -105 -361 -76 -79 20 -140 59 -214 134 -88 90 -91 95 -72 143 26 64
21 104 -17 145 -26 29 -42 37 -77 40 -25 2 -54 0 -66 -5z m123 -44 c31 -28 39
-77 18 -120 -20 -44 -50 -59 -105 -55 -55 4 -83 37 -84 102 -1 34 5 50 23 70
38 41 106 42 148 3z m930 -142 c32 -23 47 -77 33 -120 -16 -48 -47 -67 -106
-63 -55 4 -80 29 -90 93 -5 36 -2 45 24 73 25 27 37 32 74 32 24 0 53 -7 65
-15z"/>
<path d="M4575 3779 c-81 -47 -112 -126 -95 -235 19 -118 87 -176 206 -176
126 0 203 82 204 217 0 85 -22 121 -99 164 -49 26 -77 35 -129 38 -40 2 -75
-1 -87 -8z m180 -36 c77 -30 115 -82 115 -157 0 -61 -31 -128 -75 -162 -73
-56 -207 -40 -261 32 -37 48 -46 172 -16 230 11 22 27 46 36 53 40 33 120 35
201 4z"/>
<path d="M4776 2880 c-115 -37 -163 -241 -79 -341 56 -67 185 -95 259 -56 149
78 168 303 32 374 -51 27 -163 39 -212 23z m184 -37 c52 -21 77 -50 90 -102
31 -131 -60 -251 -190 -251 -70 0 -123 29 -156 86 -24 40 -26 53 -22 114 6 73
32 131 71 152 54 29 138 30 207 1z"/>
<path d="M5470 2023 c-41 -29 -59 -55 -76 -112 -49 -163 35 -291 191 -291 128
0 214 89 215 220 0 80 -30 126 -104 165 -75 38 -186 47 -226 18z m167 -19
c125 -42 174 -140 124 -249 -48 -107 -174 -144 -282 -83 -68 38 -96 141 -65
235 33 101 111 134 223 97z"/>
<path d="M3160 3298 c-49 -13 -97 -63 -115 -119 -24 -72 -3 -176 48 -241 40
-51 167 -73 233 -42 92 44 150 167 125 264 -19 71 -52 105 -123 129 -66 23
-112 25 -168 9z m194 -44 c52 -27 76 -73 76 -147 0 -164 -154 -258 -288 -175
-44 27 -62 57 -77 129 -19 91 13 176 78 205 46 21 161 14 211 -12z"/>
<path d="M2402 2694 c-61 -31 -92 -99 -92 -201 0 -92 31 -148 102 -184 90 -46
184 -33 252 35 75 74 88 201 29 274 -57 71 -219 113 -291 76z m169 -26 c138
-41 179 -194 82 -304 -50 -58 -165 -73 -237 -31 -104 58 -116 251 -21 325 32
25 111 30 176 10z"/>
<path d="M3154 2205 c-62 -31 -93 -76 -107 -159 -25 -148 47 -251 186 -264
149 -14 264 139 231 307 -4 17 -23 49 -43 71 -28 31 -49 43 -96 55 -82 21
-113 19 -171 -10z m220 -29 c47 -31 66 -73 66 -151 -1 -110 -39 -175 -124
-210 -64 -27 -164 -3 -208 49 -10 11 -25 44 -35 73 -14 44 -15 60 -4 105 15
67 42 113 83 139 28 17 45 20 114 16 56 -2 90 -9 108 -21z"/>
<path d="M2769 1467 c-67 -45 -104 -156 -80 -243 24 -90 88 -146 182 -158 70
-10 118 7 166 56 71 72 93 179 54 264 -33 72 -100 104 -216 104 -59 0 -78 -4
-106 -23z m237 -25 c116 -59 98 -272 -28 -338 -41 -21 -133 -18 -177 7 -124
69 -125 290 -1 344 48 21 153 14 206 -13z"/>
</g>
</svg>
