<?xml version="1.0" standalone="no"?>
<!DOCTYPE svg PUBLIC "-//W3C//DTD SVG 20010904//EN"
 "http://www.w3.org/TR/2001/REC-SVG-20010904/DTD/svg10.dtd">
<svg version="1.0" xmlns="http://www.w3.org/2000/svg"
 width="720.000000pt" height="946.000000pt" viewBox="0 0 720.000000 946.000000"
 preserveAspectRatio="xMidYMid meet">

<g transform="translate(0.000000,946.000000) scale(0.100000,-0.100000)"
fill="#000000" stroke="none">
<path d="M2780 9428 c0 -18 5 -126 12 -240 9 -165 15 -208 26 -208 10 0 12 12
8 53 -3 28 -8 106 -11 172 -8 174 -16 255 -26 255 -5 0 -9 -15 -9 -32z"/>
<path d="M1370 9423 c0 -5 19 -28 42 -53 76 -83 160 -174 279 -300 64 -69 134
-144 156 -167 36 -41 74 -60 56 -29 -8 13 -197 218 -293 317 -25 26 -85 90
-133 143 -81 87 -107 109 -107 89z"/>
<path d="M3797 9252 c-46 -59 -96 -120 -110 -137 -75 -89 -227 -281 -227 -287
0 -22 30 -1 65 46 22 30 112 143 199 252 88 110 163 204 168 211 5 6 5 14 0
17 -5 3 -48 -43 -95 -102z"/>
<path d="M2210 9297 c0 -8 11 -49 24 -93 13 -43 35 -115 48 -158 12 -43 28
-77 33 -75 12 4 11 12 -20 114 -13 44 -33 113 -45 153 -11 39 -25 72 -30 72
-6 0 -10 -6 -10 -13z"/>
<path d="M3232 9253 c-11 -27 -33 -75 -47 -108 -57 -128 -85 -198 -80 -203 10
-11 13 -6 124 244 23 50 41 96 41 102 0 26 -18 9 -38 -35z"/>
<path d="M4030 8919 c-229 -234 -260 -269 -242 -269 11 0 494 485 494 496 0 5
-4 9 -9 11 -4 1 -114 -106 -243 -238z"/>
<path d="M4840 8925 c-102 -63 -198 -123 -215 -134 -16 -10 -73 -45 -125 -77
-109 -67 -160 -99 -177 -114 -7 -5 -15 -10 -17 -10 -16 0 -235 -144 -230 -151
7 -13 -1 -18 512 302 56 35 110 69 120 74 23 13 109 67 194 122 37 24 70 43
74 43 11 0 64 41 64 51 0 5 -3 9 -7 9 -5 -1 -91 -52 -193 -115z"/>
<path d="M1060 9023 c0 -20 383 -423 402 -423 19 0 3 19 -158 187 -89 92 -176
185 -194 206 -30 35 -50 47 -50 30z"/>
<path d="M2545 8954 c-89 -10 -264 -47 -335 -70 -105 -35 -290 -115 -290 -125
0 -5 -6 -9 -13 -9 -30 0 -228 -150 -322 -244 -107 -107 -164 -182 -239 -311
-53 -93 -120 -265 -140 -362 -16 -77 -39 -296 -34 -331 3 -21 -5 -26 -67 -46
-165 -53 -347 -160 -469 -276 -261 -249 -403 -611 -409 -1047 -1 -79 2 -128 8
-129 6 -1 24 38 41 85 38 106 112 252 178 351 61 92 209 247 293 307 128 91
290 158 456 188 111 20 110 20 152 -57 28 -53 120 -182 153 -216 9 -10 31 -34
48 -53 16 -19 57 -58 90 -88 38 -34 51 -51 36 -46 -38 11 -322 8 -397 -4 -300
-50 -586 -260 -794 -581 -93 -145 -237 -457 -219 -475 3 -3 52 41 109 98 189
187 385 300 629 361 244 62 447 62 710 0 166 -39 315 -99 555 -222 40 -21 17
-27 -53 -14 -263 50 -649 60 -852 24 -311 -56 -519 -151 -681 -312 -234 -231
-331 -556 -300 -1005 12 -173 19 -217 35 -212 6 2 16 26 23 53 47 200 176 467
306 634 313 403 757 555 1292 443 90 -18 117 -33 63 -33 -43 0 -244 -37 -273
-50 -11 -5 -58 -21 -105 -35 -100 -32 -283 -125 -378 -192 -166 -118 -332
-316 -419 -500 -75 -156 -112 -467 -79 -648 19 -104 57 -216 70 -212 6 2 11
34 13 73 22 534 302 882 803 999 110 25 122 20 53 -22 -34 -21 -80 -54 -103
-73 -55 -47 -152 -171 -204 -262 -74 -129 -72 -144 13 -87 55 37 81 47 81 33
0 -4 -37 -46 -83 -93 -363 -377 -494 -831 -373 -1293 36 -139 147 -369 216
-448 l22 -25 -164 -6 c-216 -9 -322 -33 -473 -111 -135 -69 -231 -157 -322
-296 -77 -116 -118 -235 -133 -387 -14 -138 0 -264 34 -298 54 -55 188 -100
341 -112 197 -17 570 50 755 134 195 90 365 255 425 414 19 51 35 61 35 23 0
-38 76 -179 126 -235 45 -50 45 -51 22 -59 -12 -5 -49 -19 -80 -30 -64 -24
-191 -90 -216 -112 -9 -8 -44 -35 -77 -60 -96 -71 -192 -174 -267 -284 -31
-46 -39 -52 -123 -82 -129 -45 -262 -110 -397 -191 -64 -39 -123 -76 -130 -82
-7 -6 -44 -35 -83 -63 -144 -108 -342 -316 -479 -505 -31 -44 -35 -53 -19 -53
11 1 33 25 58 62 165 255 499 545 800 698 158 80 362 154 498 180 31 6 57 16
57 21 0 13 -35 11 -105 -5 -33 -8 -61 -13 -63 -11 -10 10 64 103 152 191 180
179 339 268 586 329 83 20 142 27 278 32 94 3 172 9 172 13 0 12 -111 18 -227
13 l-108 -4 73 71 c87 84 208 165 314 208 86 36 112 39 155 17 28 -14 36 -14
77 0 53 18 84 13 143 -24 54 -34 70 -62 55 -96 -21 -45 -15 -125 12 -170 l25
-40 -20 -32 c-11 -18 -19 -43 -17 -55 4 -30 51 -35 133 -14 33 8 101 17 151
19 80 4 101 9 167 41 72 34 127 82 127 111 0 7 -16 32 -35 55 -19 23 -35 50
-35 59 0 25 36 60 68 66 15 4 35 8 46 10 10 2 53 -16 95 -39 132 -76 194 -100
306 -121 136 -26 213 -15 253 36 l17 21 54 -37 c84 -58 98 -36 61 97 -22 79
-26 83 -80 92 -35 5 -38 8 -43 48 -32 224 -157 294 -376 212 -141 -53 -301
-12 -316 82 l-6 41 63 12 c35 7 86 19 113 26 106 30 344 89 430 106 116 23
432 26 513 5 122 -33 231 -134 337 -315 30 -50 55 -72 55 -48 0 36 -174 266
-230 305 -21 15 -39 30 -40 33 -1 24 284 27 349 4 43 -15 122 -55 131 -66 12
-15 111 -59 168 -75 75 -20 113 -53 138 -121 28 -75 61 -121 101 -142 46 -23
240 -61 310 -61 50 0 52 -1 87 -50 20 -27 39 -50 43 -50 26 1 38 22 37 67 -3
110 -6 142 -15 211 -6 41 -9 75 -7 77 2 1 30 6 64 10 l61 7 13 -46 c7 -25 16
-46 20 -46 4 0 11 -11 14 -25 6 -22 111 -137 158 -172 18 -14 146 -99 278
-185 97 -64 176 -137 205 -191 11 -21 24 -36 30 -34 29 10 61 209 50 312 -26
239 -121 459 -247 569 -86 75 -188 115 -295 116 -48 0 -54 3 -68 30 l-15 30
72 36 c163 82 271 195 338 352 41 99 54 172 54 312 0 204 -44 398 -139 606
l-35 76 -67 -7 c-130 -14 -314 -94 -459 -201 -228 -167 -361 -369 -395 -599
-7 -44 -14 -82 -15 -84 -2 -1 -30 24 -63 58 -99 101 -252 188 -358 206 -40 6
-42 8 -83 93 -48 99 -70 174 -70 236 0 40 3 45 55 83 153 112 300 260 452 458
5 6 20 29 35 52 19 29 43 48 81 66 86 39 178 133 225 230 23 45 46 109 51 141
13 74 14 250 2 294 -5 17 -6 32 -1 32 8 0 51 -54 64 -80 28 -59 55 -95 72 -98
35 -4 46 13 51 81 5 56 1 77 -26 153 -40 110 -70 160 -226 380 -102 144 -134
200 -150 262 -20 77 -19 86 14 124 45 53 76 130 83 212 3 28 6 26 61 -47 57
-77 143 -153 204 -182 83 -40 170 -28 229 31 43 43 45 84 7 160 -31 64 -88
131 -198 233 -146 137 -205 202 -234 259 -29 58 -54 132 -46 140 3 4 69 -5
210 -30 92 -15 201 -64 233 -104 15 -19 30 -34 34 -34 4 0 10 24 13 53 13 103
-63 327 -139 408 l-25 27 68 6 c180 18 269 163 169 273 l-20 22 53 27 c116 58
185 118 227 199 53 101 29 229 -60 315 -43 43 -93 60 -171 60 l-57 0 36 64
c60 110 80 213 64 329 -37 257 -265 420 -502 357 -127 -34 -266 -157 -331
-291 -33 -70 -54 -133 -48 -153 1 -5 -8 -5 -21 -1 -13 3 -57 9 -98 12 -61 4
-84 1 -121 -15 -110 -48 -156 -202 -111 -379 l21 -82 -63 -64 c-77 -78 -152
-190 -216 -322 -65 -134 -116 -272 -215 -575 -46 -141 -123 -329 -182 -442
-142 -273 -317 -405 -530 -397 -72 3 -83 -3 -58 -28 17 -16 16 -18 -11 -25
-16 -4 -103 -10 -194 -13 l-165 -6 -39 35 c-23 21 -33 36 -25 37 18 1 111 -2
123 -4 24 -5 12 24 -24 62 -68 69 -177 131 -234 131 -14 0 -28 12 -41 37 -66
122 -290 51 -367 -118 -13 -27 -26 -49 -29 -49 -16 0 -31 89 -36 211 l-6 136
54 18 c198 66 434 216 588 374 458 474 518 1162 148 1705 -80 117 -274 314
-356 360 -9 5 -18 12 -21 16 -9 13 -85 57 -175 103 -224 113 -439 166 -690
172 -82 2 -168 1 -190 -1z m358 -35 c90 -11 259 -52 358 -87 183 -65 375 -188
525 -337 147 -147 226 -261 305 -444 75 -175 105 -348 96 -566 -5 -148 -21
-239 -62 -362 -125 -372 -451 -707 -832 -853 -104 -40 -113 -40 -113 9 0 56
-52 254 -93 355 -97 238 -249 430 -477 602 -41 31 -86 62 -100 68 -14 6 -27
13 -30 17 -11 14 -201 100 -272 123 -116 37 -309 75 -443 85 -142 11 -350 -1
-479 -27 l-89 -19 6 126 c13 254 88 473 238 691 96 141 260 296 417 397 169
108 427 199 630 223 102 11 316 11 415 -1z m3552 -449 c134 -51 235 -215 235
-380 0 -116 -39 -234 -101 -310 -44 -52 -39 -58 38 -47 159 23 273 -77 273
-240 0 -29 -7 -69 -15 -89 -25 -61 -121 -145 -220 -195 -110 -54 -104 -49 -81
-63 50 -29 66 -54 66 -105 0 -42 -5 -56 -30 -85 -40 -45 -100 -68 -180 -69
-106 -1 -110 2 -110 84 0 186 -77 372 -210 507 -88 90 -192 160 -275 186 -19
5 -20 16 -23 136 -5 168 15 272 74 399 36 76 57 106 112 161 66 65 146 113
215 131 54 14 167 3 232 -21z m-666 -430 c21 -10 22 -16 15 -68 -5 -31 -8
-109 -8 -173 l1 -117 -76 -4 c-55 -3 -93 -12 -135 -31 -46 -21 -61 -25 -67
-15 -18 29 -31 127 -27 208 6 127 46 187 143 213 31 9 130 0 154 -13z m101
-420 c171 -85 328 -263 381 -432 21 -68 41 -224 32 -258 -4 -15 -13 -20 -42
-20 -20 0 -55 -9 -76 -20 -84 -43 -195 -80 -240 -80 -42 0 -58 -11 -35 -25 20
-12 136 16 220 55 149 69 198 65 275 -23 71 -81 122 -208 132 -327 l6 -75 -24
30 c-69 88 -194 172 -358 242 -80 33 -95 47 -61 56 21 5 28 27 8 27 -23 0 -93
-40 -106 -61 -17 -27 -7 -37 17 -15 17 16 23 15 95 -14 106 -42 168 -74 254
-132 69 -47 91 -68 55 -53 -44 18 -202 55 -237 55 -51 0 -160 27 -208 51 -50
25 -86 66 -100 112 -6 20 -17 37 -24 37 -25 0 10 -85 54 -132 l26 -28 -35 0
c-85 2 -180 19 -237 45 -34 15 -62 33 -62 38 0 7 -4 7 -12 -1 -19 -19 27 -50
110 -75 l74 -22 -6 -64 c-4 -51 -17 -89 -60 -175 -84 -172 -104 -304 -69 -443
30 -122 126 -208 229 -206 53 1 54 1 54 -28 0 -76 60 -183 242 -435 100 -137
157 -260 165 -352 9 -113 -12 -158 -41 -87 -28 67 -141 219 -156 210 -4 -3 -1
-31 8 -63 25 -91 22 -308 -5 -397 -26 -84 -69 -152 -139 -221 -54 -53 -147
-104 -191 -104 -25 0 -25 1 -10 18 33 36 59 142 64 263 4 81 2 118 -6 123 -6
4 -14 0 -18 -10 -4 -10 -16 -29 -27 -43 -121 -147 -195 -192 -325 -199 -46 -3
-107 1 -136 7 -62 14 -188 66 -193 79 -1 5 20 12 47 15 27 3 72 17 99 31 57
29 161 120 150 132 -5 4 -32 2 -60 -4 -78 -18 -243 -16 -311 2 -79 22 -107 38
-166 95 -52 50 -67 80 -33 66 43 -19 133 -35 191 -35 62 0 131 16 131 31 0 4
-21 10 -47 14 -85 13 -201 62 -301 129 -89 59 -152 109 -152 119 0 3 33 4 73
3 119 -2 239 38 196 65 -8 5 -27 9 -43 9 -95 0 -269 73 -368 154 -51 42 -148
157 -148 176 0 5 31 9 70 9 44 0 81 6 102 17 35 17 88 63 88 75 0 4 -24 13
-52 19 -29 6 -88 30 -131 53 -78 43 -206 135 -207 150 0 4 24 7 53 7 110 0
225 52 320 143 74 72 107 115 166 215 40 70 141 287 141 305 0 5 7 23 15 40 8
18 46 129 86 247 105 317 152 433 232 575 91 160 201 275 310 323 45 19 65 22
147 18 72 -3 106 -9 140 -26z m-3970 -135 c58 -9 140 -25 183 -36 98 -25 279
-94 332 -127 148 -93 231 -155 310 -232 103 -99 140 -144 218 -259 34 -50 106
-207 131 -284 42 -128 57 -223 67 -412 5 -99 15 -202 22 -230 15 -55 51 -130
67 -140 22 -13 8 -33 -27 -40 -72 -13 -202 -84 -253 -138 -19 -21 -35 -27 -67
-27 -25 0 -43 5 -43 11 0 6 28 39 63 73 66 66 142 109 214 121 24 4 45 11 49
16 20 33 -194 43 -310 15 -95 -24 -228 -93 -312 -164 -80 -68 -203 -223 -259
-327 -21 -38 -42 -74 -46 -79 -10 -11 -12 -46 -4 -46 3 0 33 22 68 49 58 46
184 117 192 109 2 -2 -9 -30 -25 -63 -37 -76 -46 -163 -31 -281 11 -83 20
-124 50 -224 l10 -35 -35 40 c-20 22 -51 64 -70 93 -19 28 -39 52 -44 52 -16
0 -22 -67 -10 -124 6 -31 16 -56 21 -56 5 0 9 -6 9 -14 0 -8 12 -29 27 -47
l28 -33 -25 7 c-14 4 -49 12 -78 18 -29 6 -72 17 -95 25 -119 42 -317 38 -527
-12 -158 -37 -246 -74 -378 -161 -73 -48 -197 -172 -245 -246 -103 -157 -149
-290 -183 -532 l-7 -50 -18 70 c-37 148 -19 433 37 602 103 308 391 591 745
732 146 59 381 111 496 111 54 0 83 7 83 20 0 12 -184 59 -295 75 -132 20
-359 19 -466 0 -248 -46 -491 -176 -646 -344 -88 -97 -106 -119 -168 -211 -87
-129 -215 -392 -215 -440 0 -10 -4 -21 -9 -24 -4 -3 -12 -20 -16 -38 -8 -31
-9 -29 -16 27 -11 93 -10 335 2 442 26 232 130 464 273 609 177 178 432 283
789 325 208 24 630 -6 862 -61 95 -22 87 -4 -24 60 -202 115 -480 229 -631
259 -262 52 -534 41 -751 -28 -196 -62 -402 -185 -564 -335 -27 -25 -51 -46
-52 -46 -14 0 116 268 175 360 116 182 273 345 427 445 84 53 194 101 295 126
82 21 118 24 265 24 335 -1 602 -79 894 -260 102 -64 274 -206 328 -271 21
-26 49 -58 63 -72 21 -22 25 -23 28 -9 6 28 -16 85 -75 197 -82 156 -213 329
-363 481 -209 211 -431 347 -673 413 -271 74 -560 46 -808 -79 -140 -71 -294
-202 -400 -340 -82 -107 -153 -236 -223 -405 -16 -39 7 250 29 352 86 416 290
705 626 886 127 68 346 133 509 151 117 13 374 6 500 -14z m-325 -554 c277
-54 514 -190 754 -433 91 -92 271 -312 271 -332 0 -4 -35 -5 -77 -1 -62 5 -88
13 -128 37 -217 134 -364 195 -579 243 -68 15 -87 25 -151 76 -120 97 -305
324 -330 407 -6 21 -4 22 67 22 40 0 118 -9 173 -19z m4424 -372 c22 -8 31
-17 31 -32 0 -25 25 -92 59 -157 14 -27 93 -114 201 -220 193 -190 240 -254
240 -326 0 -35 -6 -47 -35 -73 -31 -27 -43 -31 -93 -31 -42 0 -72 7 -108 25
-100 50 -262 248 -263 321 -1 17 -12 91 -26 165 -14 74 -25 146 -25 162 0 15
-4 27 -10 27 -16 0 -12 -75 9 -186 33 -170 36 -276 12 -369 -18 -67 -27 -85
-63 -118 -40 -37 -45 -39 -95 -35 -75 6 -129 46 -167 122 -24 50 -29 74 -34
165 -6 132 8 192 79 333 43 85 53 115 57 171 l5 67 97 0 c53 0 111 -5 129 -11z
m-3361 -451 c36 -60 95 -178 90 -183 -2 -3 -40 30 -84 73 -43 43 -97 92 -119
110 l-40 32 67 0 c64 0 67 -1 86 -32z m922 -67 c40 -29 37 -47 -10 -55 -80
-13 -191 -91 -246 -173 l-37 -56 -19 23 c-36 44 -5 126 78 207 81 79 172 100
234 54z m172 -104 c31 -15 76 -45 99 -67 l44 -39 -56 -1 c-69 0 -119 -9 -119
-22 0 -5 20 -18 45 -29 76 -34 66 -41 -41 -32 -55 4 -168 8 -251 7 -84 0 -153
3 -153 6 0 13 63 94 93 119 112 95 225 114 339 58z m-717 -182 c-87 -42 -141
-88 -180 -153 -20 -33 -42 -56 -65 -66 -87 -38 -150 -135 -150 -229 0 -222
218 -493 595 -739 127 -83 165 -103 165 -86 0 7 -19 24 -43 37 -44 24 -228
145 -261 171 -66 51 -201 178 -248 232 -211 241 -241 475 -74 576 43 27 62 32
114 32 56 0 164 -30 176 -48 3 -4 0 -29 -6 -56 -10 -46 -8 -52 28 -125 30 -58
61 -98 134 -171 52 -53 112 -110 133 -128 36 -30 38 -33 28 -67 -29 -107 94
-252 334 -391 75 -44 130 -66 139 -57 3 4 -36 29 -87 56 -244 130 -383 276
-363 380 13 69 57 97 150 97 72 0 128 -18 193 -62 45 -31 66 -24 30 10 -38 36
-135 74 -203 80 -55 4 -71 1 -119 -23 -56 -27 -64 -27 -95 5 -3 3 -33 29 -66
58 -77 65 -163 171 -193 237 -27 58 -24 117 9 149 30 31 181 29 260 -3 65 -26
143 -63 150 -72 3 -4 25 -17 50 -29 68 -34 231 -144 329 -221 47 -38 89 -69
94 -69 65 -1 -302 261 -503 359 -58 29 -112 56 -121 61 -9 4 -50 14 -93 21
-69 12 -82 11 -130 -5 -51 -18 -54 -18 -97 1 -24 11 -53 23 -64 27 -18 7 -16
11 25 47 53 47 140 91 230 115 74 21 259 23 650 9 153 -5 251 -4 308 4 86 11
105 7 150 -36 32 -30 166 -106 222 -125 l63 -21 -24 -18 c-38 -28 -103 -42
-174 -37 -72 6 -79 -1 -48 -50 24 -38 93 -122 123 -149 48 -45 169 -121 217
-138 26 -9 55 -21 65 -25 9 -5 39 -12 67 -16 60 -8 66 -19 14 -28 -77 -12
-168 -5 -225 19 -38 16 -16 -24 45 -79 87 -80 216 -164 309 -202 94 -38 102
-44 57 -44 -46 0 -140 25 -190 51 -23 11 -43 18 -46 15 -14 -14 32 -98 76
-139 99 -93 209 -124 390 -113 l106 7 -29 -26 c-55 -47 -132 -78 -212 -83 -41
-2 -74 -8 -74 -13 0 -15 117 -78 195 -105 136 -45 251 -43 357 8 59 28 119 81
181 158 l28 35 -6 -90 c-7 -99 -33 -189 -71 -248 -28 -43 -25 -56 11 -49 14 2
25 0 25 -5 0 -9 -74 -111 -129 -178 -123 -149 -394 -378 -576 -487 -250 -149
-546 -254 -851 -302 -163 -26 -154 -29 -154 58 0 62 4 79 25 111 31 45 23 61
-11 22 -47 -54 -52 -154 -17 -312 l6 -29 -27 18 c-15 10 -30 15 -33 12 -3 -3
-5 -46 -4 -95 3 -106 -17 -164 -53 -159 -18 3 -21 11 -24 61 -2 31 -5 57 -8
57 -3 0 -26 -22 -50 -49 -48 -53 -113 -91 -157 -91 -25 0 -27 3 -27 44 0 27
-5 46 -12 49 -7 2 -34 -13 -59 -35 -25 -21 -48 -38 -52 -38 -15 0 -6 27 18 52
34 37 14 45 -32 13 -21 -14 -50 -25 -65 -25 -25 0 -68 33 -68 52 0 11 28 10
35 -2 7 -12 35 -14 35 -2 0 4 -19 20 -43 35 -56 38 -103 101 -127 173 -39 110
-43 299 -10 442 12 52 8 75 -9 56 -16 -17 -41 -188 -41 -281 0 -51 -2 -93 -5
-93 -3 0 -23 11 -45 25 -22 14 -42 25 -45 25 -16 0 -166 120 -227 182 -115
117 -185 218 -253 365 -68 145 -157 245 -286 325 l-60 37 46 7 c26 3 78 4 116
2 75 -6 88 0 59 24 -22 19 -159 68 -192 68 -13 0 -29 4 -36 9 -18 11 43 21
131 21 82 0 84 11 8 50 -53 28 -114 44 -211 56 -49 6 -52 8 -30 16 14 6 74 12
133 15 59 3 110 9 112 14 3 4 -28 31 -67 60 -84 61 -98 73 -98 88 0 16 41 6
128 -31 70 -30 108 -31 67 -2 -80 56 -145 159 -145 228 1 36 2 38 12 21 32
-56 122 -152 165 -176 34 -18 37 -5 10 38 -25 39 -47 96 -30 78 5 -5 22 -27
37 -48 15 -20 31 -35 35 -32 5 2 11 40 14 84 3 53 13 97 29 133 l25 53 15 -35
c9 -19 31 -69 49 -110 52 -123 176 -322 269 -435 52 -62 197 -203 256 -247 72
-55 224 -148 242 -148 6 0 12 -4 12 -8 0 -5 30 -21 68 -35 217 -85 358 -112
542 -103 163 7 219 21 377 92 60 27 154 107 197 168 87 122 98 229 37 388 -93
246 -141 435 -141 556 0 29 -5 52 -10 52 -20 0 -22 -31 -11 -123 17 -133 47
-239 147 -517 31 -86 32 -188 2 -267 -16 -44 -38 -74 -97 -133 -90 -89 -166
-130 -309 -166 -131 -33 -345 -35 -467 -5 -44 12 -86 21 -93 21 -7 0 -59 18
-114 40 -408 161 -723 488 -919 955 -21 49 -42 91 -47 93 -21 7 -82 -138 -82
-196 0 -56 -16 -56 -48 1 -59 105 -75 169 -69 287 5 106 18 155 58 212 24 34
24 48 -1 48 -25 0 -122 -45 -178 -83 -72 -48 -68 -35 28 110 60 90 180 218
248 265 60 42 180 96 249 112 32 8 94 15 138 15 l80 0 -70 -34z m-869 -1066
c95 -16 123 -28 139 -59 8 -15 38 -45 67 -66 29 -21 55 -39 57 -41 12 -9 -17
-17 -92 -23 -53 -5 -99 -16 -125 -29 -68 -35 -55 -47 56 -54 97 -6 202 -30
202 -47 0 -5 -17 -9 -38 -8 -70 1 -170 -32 -158 -51 3 -5 27 -11 53 -15 27 -3
80 -14 118 -23 l70 -18 -80 -7 c-78 -7 -81 -7 -145 27 -117 61 -211 86 -345
92 -103 5 -133 2 -210 -17 -49 -12 -125 -40 -168 -62 -43 -22 -79 -39 -81 -37
-5 5 60 113 107 177 47 64 154 162 216 199 60 36 183 72 247 72 28 1 77 -4
110 -10z m-60 -369 c44 -11 111 -36 151 -55 57 -28 70 -39 66 -54 -3 -14 3
-21 27 -30 33 -11 135 -81 180 -123 54 -50 102 -121 165 -244 36 -70 85 -155
109 -188 61 -85 164 -194 233 -247 32 -24 63 -48 69 -54 6 -5 49 -32 97 -60
71 -41 87 -55 92 -80 8 -36 37 -118 45 -125 3 -3 18 -24 33 -47 15 -24 32 -43
37 -43 6 0 10 -14 10 -31 0 -43 16 -69 54 -84 l32 -14 -8 -81 c-6 -66 -60
-285 -72 -298 -2 -2 -44 23 -92 55 -109 72 -212 122 -331 162 -120 40 -193 51
-338 51 -142 0 -222 -11 -328 -46 -43 -14 -80 -24 -82 -22 -2 2 12 36 32 77
90 184 84 413 -17 656 -22 55 -56 126 -75 158 -19 32 -35 61 -35 63 0 7 -97
151 -134 199 -113 146 -367 413 -421 443 -25 14 -20 18 51 44 141 51 294 57
450 18z m-413 -171 c75 -69 165 -166 257 -275 41 -49 144 -195 184 -262 103
-170 169 -345 188 -496 11 -85 10 -111 -5 -198 -16 -96 -61 -214 -94 -246 -7
-7 -13 -18 -13 -23 0 -5 -23 -20 -51 -35 -99 -50 -208 -139 -256 -209 l-34
-50 3 79 3 79 57 13 c99 23 195 103 235 195 18 41 27 119 14 119 -6 0 -13 -12
-17 -27 -33 -153 -119 -243 -255 -268 l-36 -7 -6 89 c-8 112 -27 199 -72 335
-19 59 -35 116 -35 127 0 10 14 47 31 81 34 69 64 179 75 270 8 70 -11 180
-32 180 -10 0 -10 -8 -3 -32 5 -18 9 -70 9 -114 0 -88 -32 -219 -72 -297 l-21
-42 -8 30 c-5 17 -18 84 -28 150 -18 106 -27 192 -47 433 -3 34 -10 62 -16 62
-13 0 -5 -185 13 -318 6 -46 8 -86 4 -90 -4 -4 -36 23 -71 60 -63 67 -110 145
-133 223 -7 22 -14 46 -17 53 -2 7 -8 11 -13 8 -17 -11 37 -168 71 -211 5 -5
22 -28 39 -50 17 -22 54 -59 82 -82 51 -42 51 -43 68 -135 25 -132 36 -176 85
-326 41 -124 54 -192 37 -192 -5 0 -30 13 -58 29 -92 53 -196 186 -240 306
-21 58 -34 77 -46 70 -13 -9 43 -137 96 -220 63 -97 162 -184 228 -201 18 -4
32 -17 39 -33 16 -41 15 -367 -1 -423 -7 -27 -17 -48 -21 -48 -4 0 -18 8 -31
18 -57 42 -152 82 -259 108 -63 15 -121 32 -129 38 -21 16 -105 144 -140 214
-42 84 -85 201 -113 309 -30 120 -33 411 -4 548 17 82 61 217 85 262 64 118
118 213 135 234 12 14 35 43 51 64 39 50 186 205 194 205 4 0 46 -36 94 -81z
m5097 -371 c158 -358 184 -719 69 -955 -57 -115 -194 -244 -325 -305 l-63 -30
-48 40 c-98 81 -171 91 -272 38 -48 -25 -154 -56 -194 -56 -30 0 -19 34 68
210 31 63 65 126 76 139 l19 23 36 -27 c110 -84 298 -90 470 -14 24 11 44 24
44 29 0 15 -17 12 -60 -10 -112 -57 -281 -64 -387 -16 -31 15 -65 34 -75 43
-16 15 -15 18 20 61 80 98 98 112 144 112 71 0 228 29 303 56 89 32 175 74
175 85 0 15 -14 11 -91 -26 -94 -44 -212 -75 -314 -82 l-80 -5 30 27 c43 39
128 92 201 126 35 16 64 33 64 39 0 15 -5 13 -88 -26 -95 -45 -148 -80 -234
-156 -38 -33 -68 -57 -68 -54 0 28 46 207 65 254 27 67 70 149 91 173 17 19
18 29 2 29 -7 -1 -25 -20 -41 -44 -60 -96 -116 -252 -136 -385 -6 -40 -18 -80
-27 -88 -18 -19 -110 -153 -140 -207 l-23 -40 -7 28 c-12 50 2 217 24 278 21
60 13 89 -11 41 -35 -69 -48 -193 -38 -348 4 -50 -1 -74 -30 -147 -54 -138
-66 -121 -75 102 -12 276 32 505 124 645 157 239 465 449 707 484 33 5 63 9
66 10 3 0 16 -23 29 -51z m-1540 -261 c0 -57 28 -134 88 -242 24 -45 40 -84
34 -90 -3 -3 -18 7 -33 21 -15 14 -32 23 -37 20 -6 -4 -8 -38 -5 -86 6 -83 -6
-130 -33 -130 -21 0 -44 42 -44 82 0 27 -4 38 -15 38 -11 0 -15 -11 -15 -39 0
-40 -33 -96 -51 -86 -5 4 -9 24 -9 46 0 21 -4 39 -10 39 -5 0 -10 -5 -10 -12
0 -21 -44 -78 -61 -78 -8 0 -25 9 -38 21 -17 16 -22 30 -19 58 l3 36 -40 -3
c-63 -4 -165 17 -216 45 -26 14 -64 43 -85 64 -44 45 -41 50 31 70 91 25 346
148 471 228 43 27 82 47 86 45 4 -3 8 -24 8 -47z m-650 -267 c0 -5 23 -32 52
-59 68 -66 146 -96 245 -96 40 0 73 -3 73 -7 0 -12 -92 -68 -290 -175 -114
-61 -170 -99 -170 -113 0 -9 34 -61 76 -116 230 -302 266 -354 246 -354 -4 0
-27 8 -52 17 -37 14 -81 17 -250 18 -218 0 -304 -12 -505 -70 -116 -34 -338
-85 -367 -85 -32 0 -38 30 -38 187 0 115 18 234 47 312 23 63 27 68 74 75 54
9 107 37 144 76 l30 31 11 -38 c6 -22 18 -39 28 -41 67 -13 105 48 106 167 0
63 2 72 15 61 27 -22 38 -1 32 60 l-6 58 57 6 c80 10 285 53 357 75 71 22 85
24 85 11z m945 -90 c74 -34 165 -102 239 -177 l56 -57 0 -133 c0 -73 -2 -133
-5 -133 -2 0 -25 22 -50 49 -25 27 -68 64 -94 83 l-48 33 -6 72 c-3 40 -10 78
-16 85 -6 7 -20 25 -31 40 -17 23 -150 118 -165 118 -3 0 -5 -6 -5 -13 0 -7
16 -21 36 -30 20 -10 60 -40 89 -68 45 -43 56 -59 65 -103 6 -29 8 -60 4 -69
-5 -15 -9 -15 -34 -2 -40 20 -106 34 -178 36 -61 2 -62 2 -91 47 l-29 44 25
37 c22 31 24 44 20 99 -5 63 1 74 23 47 21 -25 50 -19 50 11 0 25 2 25 43 19
23 -4 69 -19 102 -35z m-557 -150 c25 -33 66 -40 102 -18 16 11 22 8 43 -16
27 -31 71 -115 65 -122 -11 -10 -294 -36 -402 -36 -108 -1 -118 -2 -100 -15
16 -12 45 -14 169 -9 83 4 176 10 208 15 31 4 57 5 57 1 0 -10 -40 -60 -78
-97 -27 -26 -75 -50 -140 -69 -27 -8 0 -23 31 -17 66 13 178 105 211 173 8 19
43 33 57 24 22 -13 99 -226 99 -273 0 -23 -2 -24 -51 -18 -28 4 -90 24 -138
47 -104 47 -146 51 -185 15 -36 -33 -65 -101 -74 -170 l-7 -56 -82 108 c-45
59 -116 152 -157 206 -42 54 -76 104 -76 111 0 11 46 40 175 112 28 15 93 52
145 81 52 29 98 53 101 53 3 0 15 -13 27 -30z m326 -121 c103 -168 248 -379
278 -404 50 -42 86 -55 133 -45 22 5 114 23 205 40 119 22 181 39 222 61 65
33 139 39 192 14 57 -27 152 -128 170 -181 23 -68 20 -99 -14 -148 -33 -49
-68 -67 -183 -90 -95 -20 -117 -20 -117 -1 0 31 -60 134 -91 155 -29 21 -37
22 -133 16 l-102 -7 -83 41 c-45 23 -90 40 -99 38 -11 -3 10 -18 53 -40 39
-20 85 -44 103 -53 29 -15 42 -16 90 -6 118 24 164 8 206 -68 33 -62 66 -196
66 -270 0 -52 -3 -62 -22 -72 -40 -22 -326 16 -406 54 -40 18 -48 29 -86 111
-24 50 -52 99 -62 108 -25 22 -79 45 -141 58 -26 6 -83 33 -126 60 -112 72
-159 85 -302 85 -66 0 -135 -3 -152 -7 -32 -7 -33 -6 -33 25 0 75 41 195 75
219 23 17 91 7 151 -22 66 -31 125 -48 184 -52 28 -2 36 -8 38 -25 2 -13 8
-23 14 -23 18 0 3 97 -31 199 -17 52 -57 147 -89 211 l-59 117 21 20 20 21 36
-38 c19 -21 53 -66 74 -101z m-1650 -120 c-40 -97 -53 -145 -65 -256 -11 -97
-7 -176 18 -373 5 -37 3 -43 -8 -32 -26 24 -169 5 -169 -24 0 -9 11 -9 48 2
57 18 102 11 160 -23 24 -13 66 -32 93 -42 l50 -17 3 -66 c2 -36 7 -71 10 -77
17 -27 23 -6 18 63 l-4 74 31 7 c18 4 35 5 37 2 3 -2 -4 -20 -15 -38 -11 -19
-23 -55 -26 -81 -6 -40 -5 -48 9 -48 12 0 16 10 16 38 0 63 37 123 95 152 90
44 236 37 284 -14 29 -31 57 -119 71 -223 14 -110 4 -164 -35 -181 -63 -29
-264 -5 -363 43 -29 14 -54 25 -56 25 -2 0 -40 20 -85 45 -50 27 -94 45 -114
45 -44 0 -98 -31 -120 -68 -20 -34 -15 -51 29 -105 33 -39 30 -60 -13 -93 -57
-43 -153 -74 -231 -74 -63 0 -69 2 -101 35 -32 33 -42 37 -100 40 -67 3 -88
125 -38 222 44 85 144 147 239 147 67 1 97 -17 143 -87 32 -49 45 -58 45 -31
0 24 -63 98 -105 124 -38 23 -36 38 7 61 26 14 84 -21 122 -72 27 -35 46 -49
46 -33 0 21 -68 98 -102 115 -47 24 -73 20 -112 -16 -15 -14 -31 -25 -37 -25
-5 0 -38 -9 -72 -21 -77 -25 -149 -71 -167 -104 -16 -30 -20 -31 -48 -5 -29
28 -115 70 -140 70 -11 0 -43 -5 -70 -11 -44 -11 -52 -10 -75 7 -22 16 -25 25
-21 54 4 26 1 40 -10 49 -22 18 -20 34 9 89 41 79 79 112 127 112 26 0 208
-58 222 -71 5 -4 -12 -39 -38 -77 -49 -74 -55 -92 -31 -92 8 0 15 6 15 13 0 7
20 43 45 80 31 45 52 67 65 67 24 0 24 0 5 -36 -17 -33 -20 -94 -5 -94 6 0 10
12 10 26 0 49 30 95 75 114 24 10 54 33 68 52 43 58 125 237 143 313 4 17 11
35 16 41 14 19 68 266 68 317 0 26 5 47 10 47 6 0 10 -7 10 -15 0 -19 43 -30
67 -17 10 6 29 22 43 37 l25 27 3 -25 c2 -14 -9 -54 -24 -88z m1809 91 c68
-13 146 -47 210 -93 l46 -33 -18 -29 c-29 -46 -65 -75 -112 -89 -53 -16 -68
-42 -18 -31 64 14 126 58 159 114 8 14 17 9 54 -33 42 -48 56 -82 56 -146 0
-24 -6 -27 -73 -43 -40 -9 -83 -17 -94 -17 -31 0 -108 74 -171 164 -54 76
-152 233 -152 242 0 7 55 4 113 -6z m-2550 -184 c64 -15 150 -46 213 -76 120
-56 274 -154 274 -174 0 -42 -100 -253 -141 -297 -39 -42 -123 -43 -224 -4
-133 51 -183 57 -235 30 -33 -17 -77 -79 -105 -147 -13 -32 -26 -48 -38 -48
-10 0 -33 -7 -52 -14 -31 -13 -35 -19 -35 -50 0 -41 9 -44 65 -20 21 8 44 13
51 10 24 -9 15 -33 -13 -41 -37 -8 -159 -63 -206 -93 -38 -23 -40 -23 -105 -8
-133 31 -253 83 -367 159 -113 75 -159 139 -168 230 -4 40 -1 53 15 69 48 48
196 96 313 100 l70 3 3 -60 c3 -73 35 -184 69 -244 35 -60 94 -124 105 -113 5
5 -6 24 -24 44 -72 75 -127 222 -128 337 l0 43 58 -6 c31 -4 80 -11 109 -17
l52 -10 26 -69 c27 -71 89 -174 119 -199 29 -25 29 -3 -1 36 -16 21 -37 51
-47 66 -26 42 -67 157 -56 157 5 0 44 -11 87 -25 43 -14 81 -25 86 -25 16 0 5
21 -15 29 -37 13 69 22 241 20 88 -1 155 2 153 7 -1 5 -115 9 -255 9 -235 1
-364 12 -390 35 -9 8 49 62 91 84 60 31 192 64 265 66 4 0 7 5 7 10 0 6 -15
10 -33 10 -107 0 -258 -57 -331 -126 l-39 -36 -124 1 c-168 2 -274 -18 -371
-71 -18 -10 -35 -18 -37 -18 -10 0 -4 26 17 69 30 61 31 63 124 156 67 67 98
89 179 129 113 55 154 69 280 96 129 28 320 22 468 -14z m3807 -323 c35 -15
71 -33 79 -40 7 -8 25 -22 38 -30 31 -20 100 -113 135 -178 65 -125 108 -301
108 -443 0 -82 -19 -202 -32 -202 -4 0 -8 4 -8 9 0 21 -133 141 -217 196 -51
33 -134 87 -184 119 -115 75 -208 165 -242 236 -40 83 -39 101 3 112 66 18
140 98 140 153 0 26 16 10 90 -90 l70 -93 6 -129 c6 -143 20 -233 36 -233 6 0
8 11 4 28 -13 57 -20 285 -8 278 18 -11 205 -296 232 -353 14 -29 30 -53 37
-53 13 0 7 18 -36 100 -34 65 -184 290 -259 388 -13 17 -20 32 -14 32 14 0
157 -114 203 -162 34 -36 59 -48 59 -30 0 20 -190 179 -286 240 -51 32 -144
143 -144 171 0 21 110 5 190 -26z m-5261 -9 c96 -18 181 -48 250 -90 88 -53
91 -56 91 -106 l0 -45 -57 -2 c-32 0 -71 -4 -88 -7 -22 -4 -36 0 -51 14 -53
50 -184 92 -290 92 -102 0 -314 -67 -314 -100 0 -14 -2 -14 76 21 154 70 312
71 452 4 l77 -38 -50 -22 c-65 -29 -138 -76 -181 -115 l-34 -31 -71 26 c-107
38 -195 43 -299 15 -128 -35 -207 -71 -195 -90 3 -5 27 2 54 15 102 50 150 60
276 60 100 0 127 -3 159 -20 22 -11 41 -25 43 -31 7 -22 -219 -237 -292 -280
-69 -40 -251 -94 -318 -94 -24 0 -45 -15 -35 -25 7 -7 174 24 244 46 85 26
186 87 258 155 l58 55 -7 -33 c-4 -18 -14 -45 -22 -61 -23 -45 -137 -160 -197
-197 -31 -19 -56 -41 -56 -48 0 -15 16 -8 86 40 116 78 208 200 220 291 6 43
15 56 99 142 51 52 99 95 108 95 23 0 41 -73 33 -137 -8 -72 -57 -171 -121
-247 -31 -36 -51 -67 -46 -70 16 -10 108 103 148 182 35 70 38 81 38 161 0 47
-4 97 -8 111 -7 23 -4 28 30 44 65 31 125 46 211 53 66 5 82 3 82 -8 0 -8 7
-27 15 -43 13 -24 14 -42 5 -107 -34 -247 -182 -440 -435 -567 -99 -49 -289
-101 -470 -128 -81 -12 -149 -15 -260 -11 -162 6 -194 12 -297 59 -82 37 -88
50 -95 208 -11 244 77 472 245 635 77 73 125 107 227 156 186 90 461 119 704
73z m446 -404 c10 -11 20 -36 22 -55 5 -48 80 -257 107 -298 11 -18 29 -47 39
-64 17 -31 17 -32 -5 -39 -19 -6 -31 2 -70 46 -93 104 -151 269 -134 383 8 52
14 56 41 27z m810 -20 c4 -6 -6 -10 -23 -10 -16 0 -43 -5 -61 -11 -37 -13 -50
-6 -31 16 14 17 105 21 115 5z m-638 -93 c78 -43 186 -86 272 -108 l44 -11
-47 -40 c-26 -22 -75 -69 -109 -104 -51 -53 -67 -64 -94 -64 -18 0 -33 4 -33
9 0 5 -6 16 -14 24 -28 28 -96 177 -121 265 -14 50 -25 94 -25 98 0 3 11 -1
23 -9 13 -9 60 -35 104 -60z m4133 -19 l-1 -43 -29 34 c-31 36 -27 51 13 51
14 0 17 -8 17 -42z m-1812 -47 c13 -8 56 -150 48 -158 -2 -2 -27 11 -55 28
l-51 32 0 53 c0 49 2 54 23 54 12 0 28 -4 35 -9z m-1201 -305 c15 -13 25 -27
22 -30 -3 -3 -36 -13 -73 -23 -85 -21 -101 -10 -62 42 33 43 71 47 113 11z"/>
<path d="M2818 8239 c-26 -15 -24 -75 2 -89 14 -8 26 -8 40 0 27 15 28 75 1
90 -23 12 -22 12 -43 -1z"/>
<path d="M3487 8002 c-10 -10 -17 -28 -17 -40 0 -21 24 -52 40 -52 17 0 40 32
40 55 0 23 -23 55 -39 55 -4 0 -15 -8 -24 -18z"/>
<path d="M3103 7890 c-18 -11 -33 -24 -33 -30 0 -14 11 -12 34 5 11 8 37 15
57 15 37 0 89 -17 89 -29 1 -3 10 -17 21 -30 31 -38 43 -12 12 28 -47 60 -122
77 -180 41z"/>
<path d="M2505 7781 c-36 -11 -85 -41 -85 -51 0 -14 8 -13 54 9 23 11 55 22
71 25 29 6 30 5 47 -52 26 -88 65 -150 142 -227 82 -82 194 -145 302 -171 106
-25 287 -15 379 20 140 54 223 124 277 233 17 35 33 63 36 63 9 0 62 -66 74
-92 13 -29 38 -46 38 -26 0 35 -89 141 -153 183 -37 24 -48 10 -14 -19 26 -23
27 -24 13 -64 -13 -37 -47 -94 -78 -133 -7 -9 -39 -35 -72 -57 -101 -71 -253
-108 -399 -98 -48 4 -98 11 -110 16 -12 4 -49 18 -82 31 -60 22 -129 65 -186
117 -42 37 -126 164 -139 210 -18 66 -16 70 35 64 51 -5 63 12 14 22 -39 8
-137 6 -164 -3z"/>
<path d="M5642 7440 c-37 -35 -52 -133 -36 -232 12 -72 23 -38 21 65 -2 113
11 151 57 163 47 11 112 -44 136 -115 12 -38 30 -55 30 -30 0 39 -28 94 -66
129 -51 47 -105 54 -142 20z"/>
<path d="M5751 7176 c-32 -59 -8 -146 39 -146 45 0 71 79 44 135 -20 43 -63
49 -83 11z"/>
<path d="M3084 3815 c-9 -21 14 -171 34 -225 29 -80 100 -190 123 -190 14 0
11 14 -9 36 -70 76 -122 224 -122 345 0 40 -16 61 -26 34z"/>
<path d="M4298 3755 c-2 -3 -1 -28 3 -57 4 -29 8 -101 8 -159 1 -94 -2 -110
-22 -140 -22 -33 -113 -87 -149 -88 -9 -1 -20 -5 -23 -11 -14 -22 57 -8 117
23 48 25 67 41 82 70 25 53 31 145 16 266 -11 92 -17 110 -32 96z"/>
<path d="M596 8671 c-6 -9 169 -101 192 -101 6 0 12 -4 12 -8 0 -9 133 -72
151 -72 5 0 9 -4 9 -10 0 -5 5 -10 10 -10 6 0 69 -29 140 -64 143 -71 170 -82
170 -68 0 5 -138 78 -307 162 -357 177 -370 183 -377 171z"/>
<path d="M4715 8163 c-82 -24 -179 -53 -215 -63 -36 -10 -103 -29 -149 -43
-47 -13 -87 -29 -89 -35 -2 -7 -1 -12 2 -12 8 0 101 26 336 95 107 31 204 59
215 62 55 14 85 25 85 34 0 15 -27 9 -185 -38z"/>
<path d="M514 7878 c-3 -5 -4 -11 -3 -12 6 -5 552 -106 572 -106 27 0 20 18
-10 24 -41 8 -333 63 -451 84 -60 11 -105 15 -108 10z"/>
<path d="M4300 7482 c0 -15 31 -23 475 -117 61 -12 136 -29 168 -35 52 -12 79
-9 64 6 -6 7 -32 13 -257 60 -91 20 -217 47 -280 60 -63 14 -127 28 -142 31
-17 3 -28 1 -28 -5z"/>
<path d="M4275 7070 c-3 -5 3 -14 14 -19 44 -24 356 -151 370 -151 33 0 -13
25 -171 92 -219 93 -207 89 -213 78z"/>
<path d="M1075 6579 c-231 -156 -274 -189 -247 -189 11 0 497 323 522 346 12
12 12 14 -5 13 -11 0 -132 -77 -270 -170z"/>
<path d="M4122 6731 c5 -16 470 -491 479 -491 25 0 13 13 -317 353 -126 129
-174 170 -162 138z"/>
<path d="M3873 6408 c14 -36 247 -399 254 -396 4 2 7 7 5 13 -10 28 -245 395
-254 395 -6 0 -8 -6 -5 -12z"/>
<path d="M4502 2163 c-52 -18 -115 -75 -110 -100 5 -28 56 -46 143 -51 64 -3
93 0 145 18 66 22 165 73 176 91 10 16 -4 23 -20 10 -11 -10 -32 -6 -101 18
-97 35 -164 39 -233 14z m236 -38 c23 -9 42 -20 42 -24 0 -3 -24 -17 -52 -30
-43 -20 -73 -25 -163 -29 -85 -3 -114 0 -129 11 -28 21 -15 41 46 71 48 25 61
27 133 23 44 -2 99 -12 123 -22z"/>
<path d="M4804 1788 c19 -69 38 -252 33 -336 -2 -51 -7 -95 -10 -98 -3 -3 -23
6 -44 20 -50 33 -134 51 -196 42 -29 -5 -111 -40 -213 -91 -169 -86 -214 -102
-259 -91 -45 11 -43 35 6 77 24 20 41 41 37 44 -10 10 -152 -18 -217 -43 -109
-43 -211 -112 -346 -237 -69 -63 -210 -175 -221 -175 -3 0 -20 -11 -38 -25
-18 -14 -38 -25 -44 -25 -6 0 -12 -4 -14 -8 -4 -10 -288 -154 -358 -182 -30
-12 -78 -32 -108 -46 -29 -13 -55 -24 -58 -24 -2 0 -46 -16 -97 -36 -187 -74
-421 -123 -579 -124 -42 0 -80 5 -83 10 -4 6 0 24 9 40 18 36 7 45 -37 31 -71
-24 -154 -42 -211 -47 l-61 -5 40 36 c22 20 60 49 84 66 104 69 284 239 302
286 35 92 -48 105 -196 31 -55 -28 -325 -191 -485 -293 -36 -23 -105 -67 -155
-99 -139 -88 -353 -239 -412 -290 -7 -6 -18 -15 -25 -21 -94 -72 -188 -157
-188 -168 0 -15 23 -5 49 20 36 35 54 51 171 143 141 112 158 124 360 257 102
67 190 126 195 131 6 4 17 11 25 14 8 4 98 59 200 122 214 134 337 197 397
204 41 4 43 3 43 -22 0 -39 -142 -182 -295 -296 -97 -73 -125 -99 -125 -117 0
-22 4 -23 64 -23 37 0 97 10 145 23 l81 24 0 -33 c0 -49 24 -58 139 -50 254
19 491 88 861 253 288 129 482 252 659 417 102 95 190 156 287 199 58 26 166
58 172 52 2 -2 -4 -15 -13 -29 -22 -33 -13 -72 17 -80 66 -17 101 -7 278 81
164 83 179 88 248 92 66 3 79 0 138 -29 52 -25 64 -36 64 -55 0 -41 -46 -131
-87 -172 -44 -44 -253 -162 -458 -258 -77 -36 -147 -70 -156 -75 -9 -5 -19 -6
-23 -3 -3 3 27 26 67 50 151 93 218 191 208 306 -2 31 -21 18 -21 -15 0 -60
-32 -130 -85 -184 -56 -56 -96 -81 -405 -247 -223 -120 -281 -145 -364 -154
l-49 -6 42 52 c22 29 41 57 41 62 0 19 -19 8 -41 -23 -63 -92 -191 -225 -280
-293 -63 -47 -225 -132 -234 -123 -6 6 70 58 85 58 5 0 10 5 10 10 0 6 -6 10
-13 10 -18 0 -122 -67 -170 -110 -38 -33 -157 -173 -157 -184 0 -17 28 -1 51
29 71 94 125 142 172 153 126 32 259 115 388 242 82 81 91 87 138 93 l50 6 17
-51 c74 -224 287 -403 534 -449 100 -19 290 -14 385 9 142 35 180 49 281 97
116 56 189 107 261 182 42 44 51 58 43 72 -22 42 -183 162 -288 215 -141 72
-399 152 -549 172 -29 3 -53 9 -53 13 0 3 51 29 112 56 101 45 356 180 368
194 3 4 18 12 33 19 15 6 50 33 77 58 l50 46 217 0 c347 -2 500 -31 858 -163
320 -119 586 -236 719 -317 109 -65 257 -199 429 -385 64 -69 93 -94 95 -83 2
10 -25 46 -66 89 -39 40 -88 90 -109 113 -37 40 -152 147 -206 191 -86 72
-234 159 -367 217 -47 21 -98 44 -115 51 -93 42 -275 112 -508 195 -244 87
-450 120 -753 120 l-194 0 19 38 c18 35 38 119 43 186 4 35 14 41 103 56 39 7
129 32 200 57 185 64 220 73 310 80 61 4 89 2 118 -10 44 -19 46 -36 12 -92
-53 -86 -25 -115 110 -115 51 0 141 7 201 16 200 29 239 33 287 34 26 0 47 -4
47 -9 0 -5 -16 -19 -35 -32 -48 -33 -60 -67 -42 -111 8 -19 27 -45 43 -57 34
-27 84 -26 229 7 219 49 404 53 487 11 24 -12 66 -41 94 -65 48 -41 75 -54 74
-36 -1 13 -108 96 -158 122 -41 22 -62 25 -166 28 -134 4 -233 -8 -383 -45
-61 -15 -113 -23 -129 -19 -36 9 -74 50 -74 81 0 25 47 85 68 85 17 0 26 41
11 51 -24 15 -122 14 -219 -1 -30 -4 -125 -16 -210 -26 -159 -18 -227 -14
-237 11 -3 8 9 37 26 65 37 60 38 76 9 102 -21 18 -31 22 -93 32 -58 9 -181
-16 -340 -68 -171 -57 -307 -91 -331 -82 -10 4 -14 24 -14 73 0 61 -10 148
-26 226 -3 15 -12 27 -21 27 -11 0 -14 -6 -9 -22z m-679 -1023 c363 -47 713
-190 873 -357 l32 -34 -43 -45 c-122 -128 -312 -221 -552 -270 -81 -17 -123
-20 -220 -16 -140 6 -208 23 -325 79 -149 71 -299 247 -326 384 -6 29 -4 31
43 49 26 10 83 35 125 56 72 36 84 39 163 39 l85 0 0 -57 c0 -113 64 -280 122
-317 31 -19 32 4 1 37 -58 60 -86 138 -97 265 l-5 62 33 0 c67 0 236 -75 236
-104 0 -41 68 -157 140 -240 25 -28 80 -63 80 -50 0 4 -29 38 -65 75 -60 64
-134 184 -121 196 3 3 24 -7 47 -23 97 -68 127 -86 174 -110 52 -25 175 -50
201 -40 29 11 4 23 -63 29 -84 8 -173 50 -305 143 -54 38 -112 77 -129 87 -17
10 -30 19 -28 21 8 7 346 -14 384 -24 59 -14 80 -13 66 4 -17 21 -146 37 -341
42 -96 3 -202 9 -235 15 -33 5 -91 12 -128 13 -38 2 -70 6 -73 9 -8 8 170 96
186 92 8 -2 38 -6 65 -10z"/>
<path d="M6266 1115 c-19 -28 -21 -83 -5 -118 25 -55 102 -54 162 1 52 49 27
99 -64 126 -69 21 -74 20 -93 -9z m147 -44 c25 -24 17 -45 -25 -71 -40 -24
-81 -26 -99 -4 -17 21 -18 87 -1 107 12 14 19 14 59 2 26 -8 55 -23 66 -34z"/>
<path d="M2344 1045 c-17 -8 -34 -21 -38 -30 -6 -17 9 -55 28 -67 39 -27 116
14 116 61 0 50 -41 64 -106 36z m75 -14 c12 -8 13 -14 3 -36 -15 -32 -36 -41
-68 -27 -35 17 -31 47 9 60 42 13 40 13 56 3z"/>
<path d="M2790 1037 c-137 -22 -227 -91 -237 -180 -10 -88 34 -117 174 -117
178 1 306 48 344 127 62 129 -63 205 -281 170z m203 -31 c49 -20 67 -43 67
-84 0 -49 -21 -77 -79 -107 -139 -70 -381 -70 -408 1 -19 51 42 139 118 168
91 35 245 46 302 22z"/>
<path d="M762 380 c-54 -11 -138 -57 -164 -89 -18 -24 -18 -26 -2 -38 21 -16
134 -17 186 -3 32 9 98 68 98 88 0 17 -26 41 -50 46 -14 2 -44 0 -68 -4z m84
-35 c16 -40 -71 -84 -163 -85 -74 0 -81 13 -26 49 74 48 177 68 189 36z"/>
</g>
</svg>
