<?xml version="1.0" standalone="no"?>
<!DOCTYPE svg PUBLIC "-//W3C//DTD SVG 20010904//EN"
 "http://www.w3.org/TR/2001/REC-SVG-20010904/DTD/svg10.dtd">
<svg version="1.0" xmlns="http://www.w3.org/2000/svg"
 width="746.000000pt" height="780.000000pt" viewBox="0 0 746.000000 780.000000"
 preserveAspectRatio="xMidYMid meet">
<metadata>
Created by potrace 1.16, written by Peter Selinger 2001-2019
</metadata>
<g transform="translate(0.000000,780.000000) scale(0.100000,-0.100000)"
fill="#000000" stroke="none">
<path d="M1915 7607 c-28 -23 -29 -27 -37 -163 -4 -76 -15 -186 -24 -244 -61
-409 -74 -589 -50 -703 34 -165 103 -291 233 -428 77 -80 198 -178 275 -221
47 -26 48 -16 -24 -208 -50 -133 -117 -277 -164 -352 -19 -30 -30 -38 -54 -38
-50 0 -133 -38 -197 -89 -51 -41 -68 -49 -109 -52 -74 -5 -110 19 -145 96 -37
83 -132 186 -196 213 -81 34 -117 36 -148 9 -27 -22 -27 -23 -11 -61 9 -21 16
-40 16 -42 0 -2 -22 -4 -48 -4 -45 0 -50 3 -73 38 -16 24 -33 38 -50 40 -94
11 -107 -170 -19 -272 47 -53 90 -132 90 -163 0 -16 -11 -62 -25 -101 -39
-111 -33 -164 23 -224 19 -21 35 -28 63 -28 44 0 56 13 65 68 8 51 19 58 102
65 34 3 69 11 77 17 12 10 22 10 45 0 20 -8 50 -10 85 -6 45 5 66 2 117 -19
34 -14 75 -37 90 -52 17 -17 40 -27 63 -28 23 -2 46 -12 63 -28 44 -41 148
-103 229 -137 43 -18 105 -50 140 -72 l63 -40 0 -49 0 -49 -42 0 c-63 0 -110
-16 -147 -49 -42 -38 -52 -97 -26 -168 l17 -48 -35 -75 c-19 -41 -37 -83 -40
-92 -3 -9 -24 -26 -45 -37 -46 -23 -130 -113 -144 -154 l-10 -27 -36 29 c-46
36 -103 54 -150 49 -19 -3 -52 1 -71 8 -93 33 -158 11 -252 -86 -74 -77 -88
-114 -74 -202 12 -73 78 -198 137 -257 120 -121 264 -219 368 -252 128 -39
177 -24 293 94 104 105 181 173 221 194 27 14 32 13 75 -10 139 -76 318 -104
500 -78 l53 8 -6 -50 c-6 -56 -54 -164 -120 -271 -63 -101 -72 -139 -52 -208
9 -31 23 -61 31 -68 26 -22 17 -27 -56 -32 -39 -3 -74 -9 -79 -14 -5 -5 14
-253 42 -562 28 -304 48 -555 44 -559 -7 -7 -62 3 -231 42 -60 14 -130 29
-155 35 -25 5 -103 22 -174 39 -71 16 -135 27 -143 24 -7 -3 -15 -15 -18 -27
-10 -44 -118 -499 -161 -681 -25 -104 -59 -248 -76 -320 -59 -253 -99 -420
-104 -437 -4 -14 1 -18 25 -18 24 0 32 5 36 23 3 12 19 83 36 157 17 74 46
200 65 280 59 245 71 295 150 630 42 179 78 328 80 331 2 3 50 -4 106 -17 57
-13 193 -43 303 -68 110 -24 229 -51 265 -60 105 -24 279 -64 360 -81 41 -9
113 -25 160 -36 47 -10 156 -34 244 -54 87 -19 160 -36 162 -38 4 -4 -9 -64
-77 -347 -22 -91 -51 -212 -64 -270 -14 -58 -43 -180 -65 -272 -22 -93 -40
-170 -40 -173 0 -3 13 -5 28 -5 32 0 24 -25 116 370 14 58 47 197 75 310 74
309 95 405 89 421 -4 9 -102 35 -294 78 -159 35 -325 72 -369 82 -44 10 -120
27 -168 38 -49 11 -90 21 -92 23 -2 3 -15 141 -71 743 -7 83 -18 195 -23 250
-5 55 -8 101 -7 103 2 2 41 7 87 12 68 6 90 5 113 -7 117 -61 274 -86 366 -60
30 8 82 18 114 21 36 4 82 18 115 36 31 16 73 36 94 44 21 8 45 22 53 31 9 8
28 15 43 15 l28 0 17 -198 c18 -200 29 -368 20 -322 -38 205 -55 254 -102 303
-39 42 -75 57 -129 57 -48 0 -124 -28 -137 -49 -4 -6 -24 -11 -44 -12 -85 -2
-166 -62 -210 -159 -21 -46 -26 -69 -25 -145 0 -77 5 -103 32 -177 89 -240
279 -436 440 -455 57 -7 141 16 195 52 25 17 38 21 41 12 2 -6 11 -97 20 -202
15 -178 24 -273 60 -650 8 -82 21 -233 30 -335 20 -234 20 -230 50 -230 32 0
33 -30 -19 520 -24 250 -41 457 -39 460 3 3 95 5 206 5 l202 -1 66 -64 c122
-120 236 -172 387 -176 105 -3 106 -3 204 -93 125 -116 244 -285 295 -424 15
-41 21 -47 45 -47 15 0 28 2 28 4 0 27 -93 222 -134 281 -62 88 -134 171 -204
234 l-78 72 35 37 c20 20 49 44 65 52 44 23 66 66 66 131 0 67 -18 106 -67
150 -50 44 -104 66 -219 90 -129 27 -180 54 -169 90 3 9 -1 49 -9 87 -12 56
-12 77 -3 101 14 38 30 44 91 32 91 -17 228 42 257 111 12 29 11 33 -14 54
-32 27 -111 45 -162 37 -36 -6 -38 -5 -32 18 3 13 9 46 13 73 6 45 15 58 95
141 l89 92 142 6 c79 3 192 13 252 22 101 16 111 16 146 0 25 -11 73 -18 156
-20 65 -3 134 -7 152 -11 22 -4 40 -1 57 10 36 23 32 53 -10 77 l-35 21 40 44
c45 49 54 96 21 113 -22 12 -75 -2 -104 -27 -16 -14 -17 -12 -17 35 0 56 -20
83 -62 83 -33 0 -44 -15 -52 -72 -4 -26 -12 -50 -17 -54 -6 -3 -49 9 -96 27
-85 33 -86 33 -57 45 16 7 72 31 124 54 348 149 598 332 725 530 70 109 126
249 154 388 17 80 14 406 -4 491 -30 143 -96 281 -193 405 -27 35 -41 61 -35
63 33 11 80 53 100 88 27 49 19 67 -10 24 -27 -39 -62 -66 -102 -78 -28 -7
-38 -3 -105 46 -41 30 -77 57 -79 59 -3 2 5 14 16 27 69 74 111 243 84 337 -5
18 -9 5 -14 -50 -11 -119 -51 -225 -105 -273 -19 -17 -22 -16 -97 18 -43 19
-102 42 -131 51 -42 12 -51 18 -47 33 7 29 -16 101 -42 127 -27 27 -95 34
-113 11 -8 -9 -1 -11 32 -9 32 3 46 -1 60 -17 17 -19 39 -98 30 -112 -2 -4
-23 -3 -46 2 -307 59 -637 5 -928 -153 -115 -63 -259 -173 -338 -258 -201
-215 -264 -485 -170 -725 20 -49 52 -126 72 -170 22 -50 36 -96 36 -121 0 -38
-5 -45 -70 -104 -88 -77 -115 -126 -107 -191 8 -69 41 -125 116 -200 46 -46
91 -79 146 -107 137 -69 137 -71 15 -72 -58 0 -143 -7 -190 -15 -47 -8 -88
-15 -92 -15 -5 0 -8 18 -8 40 0 46 -26 68 -60 50 -17 -9 -20 -8 -20 10 0 55
-56 82 -82 40 -12 -19 -13 -19 -33 0 -17 16 -24 17 -45 7 -34 -17 -44 -72 -27
-147 l14 -58 -33 -7 c-30 -5 -64 -36 -64 -57 0 -5 9 -17 20 -28 16 -16 33 -20
94 -20 44 0 99 -8 137 -19 35 -11 92 -25 127 -32 34 -6 62 -14 62 -16 0 -3
-14 -22 -30 -44 -33 -41 -90 -146 -90 -166 0 -19 -42 -16 -96 8 -56 25 -135
29 -182 10 -18 -8 -35 -11 -38 -9 -6 7 -19 127 -39 357 -8 95 -20 180 -26 187
-6 8 -22 14 -35 14 -22 0 -24 4 -24 43 0 114 -145 203 -298 183 l-47 -7 30 23
c102 78 153 142 184 236 40 118 24 265 -48 453 -23 58 -45 138 -51 182 -11 77
-11 79 13 103 91 90 64 220 -56 278 l-53 27 7 52 c4 29 8 82 8 119 1 58 6 74
38 128 31 52 93 110 118 110 17 0 182 120 236 170 52 49 67 58 89 54 37 -8 82
33 115 103 21 44 27 73 29 139 3 88 19 124 56 124 10 0 33 7 52 14 19 8 44 13
55 10 12 -3 55 4 97 15 42 12 83 21 91 21 8 0 27 -18 41 -40 43 -65 103 -64
144 2 44 72 10 172 -71 213 -50 26 -69 49 -69 84 0 11 25 71 56 133 52 107 55
116 52 175 -5 73 -30 116 -72 121 -36 5 -73 -21 -80 -55 -6 -25 -14 -31 -67
-44 -60 -16 -61 -16 -54 5 3 12 9 37 12 57 5 32 2 39 -20 53 -33 22 -65 13
-116 -31 -48 -41 -83 -97 -107 -173 -36 -114 -137 -254 -201 -278 -16 -6 -56
-13 -91 -17 l-63 -6 -59 123 c-39 82 -69 162 -89 241 -44 172 -92 250 -163
264 -35 7 -35 23 1 98 59 125 154 234 381 438 201 181 238 219 315 322 128
171 191 332 202 507 5 90 3 111 -11 132 -20 31 -61 34 -109 10 -34 -18 -144
-93 -190 -130 -53 -44 -204 -132 -379 -222 -201 -103 -295 -165 -385 -253
-132 -128 -202 -283 -203 -447 0 -49 -2 -53 -20 -47 -23 7 -25 -1 -5 -35 21
-37 18 -42 -13 -22 -132 82 -168 128 -158 203 4 27 4 49 0 49 -22 0 -154 -179
-154 -208 0 -6 -8 -17 -18 -24 -28 -21 -62 -74 -76 -120 l-12 -43 -51 155
c-28 85 -74 247 -102 360 -154 625 -358 997 -486 887z m115 -67 c112 -116 229
-413 345 -880 46 -186 126 -436 171 -538 19 -43 22 -58 12 -69 -16 -19 -94
-73 -106 -73 -5 0 -30 44 -55 98 -73 156 -132 345 -198 632 -36 161 -54 228
-96 365 -27 89 -112 279 -121 271 -2 -3 1 -19 7 -37 9 -26 5 -75 -20 -253 -40
-280 -44 -487 -11 -608 30 -110 64 -174 142 -266 62 -72 205 -201 255 -230 50
-29 56 -38 44 -66 -7 -14 -17 -26 -24 -26 -13 0 -139 85 -203 137 -178 145
-296 327 -329 507 -21 115 -7 305 47 651 11 72 23 192 27 268 9 187 27 206
113 117z m2217 -162 c-7 -124 -25 -197 -76 -303 -82 -173 -162 -272 -372 -460
-171 -153 -302 -285 -365 -369 -49 -65 -104 -166 -104 -190 0 -23 -12 -25 -52
-8 -48 21 -48 40 -2 117 61 101 119 164 432 472 363 356 387 390 434 600 l14
63 -56 -54 c-31 -29 -143 -112 -250 -183 -265 -175 -302 -203 -401 -303 -73
-73 -94 -102 -138 -191 -60 -121 -98 -261 -107 -397 -6 -84 -9 -93 -26 -89
-31 9 -19 -7 20 -25 20 -10 52 -27 69 -38 l33 -19 -50 -50 c-28 -28 -50 -58
-50 -68 1 -14 8 -9 33 18 41 47 65 59 121 59 40 0 48 -4 79 -41 42 -49 75
-145 92 -271 7 -51 13 -87 14 -80 2 20 19 14 27 -10 4 -13 26 -63 50 -112 24
-48 44 -91 44 -95 0 -4 -15 -15 -32 -26 -18 -10 -54 -39 -81 -64 -50 -46 -63
-49 -49 -10 5 13 15 69 21 124 24 213 -31 388 -129 410 -94 21 -177 -79 -216
-255 -8 -41 -18 -133 -21 -205 -5 -122 3 -197 32 -301 5 -17 -1 -24 -34 -39
-34 -15 -46 -16 -67 -7 -36 17 -69 15 -114 -8 -34 -17 -45 -18 -97 -8 -32 6
-59 12 -61 13 -2 2 5 31 14 66 27 98 25 308 -4 419 -60 228 -186 374 -282 325
-89 -46 -149 -222 -135 -395 7 -83 32 -215 46 -242 14 -26 -3 -23 -75 16 -34
19 -99 46 -144 61 l-80 27 62 121 c35 67 82 172 106 232 23 61 44 112 47 115
3 3 2 -17 -2 -45 -11 -77 2 -50 24 50 29 135 66 206 128 247 39 25 112 24 160
-3 l38 -21 -37 36 c-21 20 -47 36 -58 36 -30 0 -24 16 15 40 42 26 44 34 6 25
-26 -5 -29 -3 -35 26 -11 56 -6 123 13 158 l18 34 7 -49 c8 -53 37 -127 55
-138 6 -4 5 10 -4 35 -32 91 -12 229 46 311 25 34 35 35 43 5 6 -27 57 -77
127 -126 78 -54 93 -79 93 -156 0 -36 3 -65 6 -65 12 0 30 77 30 129 0 28 4
51 9 51 15 0 41 -78 41 -126 0 -47 -17 -91 -44 -113 -28 -24 -17 -33 13 -12
16 12 39 42 51 67 31 62 22 138 -22 208 -43 66 -48 139 -19 253 24 94 53 153
112 230 86 111 198 190 454 320 164 83 285 155 385 230 129 95 175 122 209
123 l24 0 -6 -102z m-175 -277 c-16 -39 -45 -90 -63 -113 -18 -24 -177 -187
-355 -363 -220 -219 -336 -342 -368 -390 l-46 -70 0 45 c0 45 30 189 52 245
30 81 83 177 126 230 72 90 174 171 429 340 127 85 235 160 239 167 7 10 9 9
12 -4 2 -9 -10 -48 -26 -87z m-1996 -44 c19 -56 55 -188 79 -293 91 -390 137
-537 220 -709 30 -60 53 -111 51 -112 -2 -2 -43 27 -92 64 -175 131 -295 275
-334 400 -24 79 -44 276 -35 358 11 106 46 379 51 405 5 22 6 23 16 7 5 -10
25 -64 44 -120z m2194 -1231 c0 -11 -7 -30 -15 -40 -8 -11 -15 -29 -15 -39 0
-11 -20 -42 -45 -68 -56 -60 -59 -84 -4 -34 48 43 139 88 170 83 20 -3 19 -6
-16 -56 -24 -35 -30 -50 -18 -44 33 18 62 57 93 125 35 77 52 89 83 58 17 -17
22 -33 22 -79 0 -48 -9 -74 -53 -167 -63 -134 -67 -173 -21 -216 17 -16 37
-29 44 -29 25 0 65 -42 75 -78 19 -74 -22 -148 -70 -122 -20 11 -40 40 -40 59
0 5 8 11 18 14 12 3 9 6 -13 12 -21 6 -58 1 -130 -17 -55 -14 -102 -24 -104
-22 -2 1 3 25 10 53 14 56 3 113 -32 163 -24 33 -24 29 6 64 32 38 24 43 -18
11 -29 -22 -37 -24 -52 -13 -16 12 -16 15 4 54 11 22 25 43 31 47 5 3 10 12
10 18 -1 7 -23 -12 -50 -42 -53 -58 -72 -60 -63 -6 7 44 -4 45 -22 2 -8 -21
-21 -33 -34 -34 -28 -2 -27 3 19 72 22 33 40 68 40 77 0 39 43 129 81 168 59
61 109 73 109 26z m-1615 -97 c41 -36 106 -164 130 -254 18 -70 36 -235 28
-265 -5 -17 -9 -12 -28 28 -39 85 -102 115 -146 70 -39 -42 -55 -123 -40 -203
5 -27 8 -52 5 -54 -2 -2 -23 4 -45 15 -34 15 -47 29 -66 70 -33 73 -53 188
-53 307 0 138 26 227 82 293 32 36 87 33 133 -7z m758 11 c48 -38 69 -101 75
-223 8 -184 -25 -339 -77 -368 l-28 -17 -6 73 c-6 79 -25 128 -57 145 -41 22
-91 -10 -121 -75 l-18 -40 0 62 c-2 168 50 365 112 424 44 42 82 48 120 19z
m683 -309 c77 -35 113 -86 116 -166 2 -47 -17 -85 -57 -111 -35 -23 -38 -15
-15 31 24 47 25 74 5 123 -32 74 -86 112 -161 112 -44 0 -46 1 -28 15 26 20
91 18 140 -4z m-2678 -47 c62 -31 123 -97 163 -177 27 -52 28 -58 12 -64 -11
-4 -20 0 -27 12 -6 10 -21 30 -34 44 l-23 26 16 -39 c28 -72 18 -82 -43 -41
-52 35 -62 31 -22 -10 28 -29 33 -39 23 -53 -11 -18 -29 -20 -78 -7 -30 7 -30
7 8 -19 33 -24 36 -30 30 -54 -14 -48 -8 -138 10 -165 34 -52 27 -58 -91 -71
-55 -6 -79 -27 -89 -80 -7 -34 -13 -42 -34 -44 -36 -4 -70 36 -76 91 -4 32 2
63 22 118 36 100 31 149 -21 225 -90 130 -97 144 -102 200 -4 43 -1 59 13 74
27 29 42 25 65 -20 25 -48 69 -99 122 -142 33 -26 39 -28 29 -10 -6 11 -15 23
-20 27 -5 3 -24 24 -42 47 l-33 41 65 -6 c36 -3 89 -15 119 -27 29 -11 54 -19
56 -17 2 2 -15 14 -38 28 -56 32 -104 82 -110 113 -5 25 -3 26 36 26 25 0 63
-10 94 -26z m2510 -71 c69 -34 152 -111 152 -141 0 -32 -32 -28 -75 9 -20 18
-38 30 -40 27 -3 -3 4 -25 15 -50 52 -118 48 -257 -11 -337 -37 -51 -62 -56
-48 -9 18 65 10 73 -23 22 -73 -110 -216 -225 -388 -312 -80 -40 -252 -101
-330 -117 l-35 -7 33 34 c43 46 41 56 -5 21 -151 -115 -200 -125 -342 -69
-112 45 -148 53 -91 22 25 -14 40 -25 34 -26 -56 -2 -400 78 -542 125 -76 26
-166 76 -234 131 -51 41 -74 69 -98 116 -32 64 -35 57 -14 -35 6 -25 4 -28
-12 -25 -66 12 -72 239 -9 334 29 44 9 37 -34 -12 -47 -53 -56 -37 -15 27 53
84 123 137 218 164 104 30 190 3 467 -147 111 -61 202 -94 334 -123 44 -10
104 -29 132 -43 61 -28 92 -25 133 16 15 15 58 42 95 61 96 49 177 103 283
190 51 42 116 95 145 119 62 50 90 60 180 61 55 1 79 -4 125 -26z m-2274 -212
c3 -5 -6 -12 -20 -15 -29 -8 -40 -17 -70 -61 -58 -82 -52 -160 14 -214 l37
-31 -33 0 c-23 0 -43 10 -69 34 -34 31 -37 38 -41 100 -5 83 16 137 67 172 36
24 104 33 115 15z m126 -35 c0 -2 -7 -21 -16 -41 -12 -29 -13 -44 -5 -62 6
-13 15 -23 20 -23 5 0 9 -40 8 -90 -2 -106 4 -104 -121 -44 -110 53 -128 103
-70 196 13 20 28 39 33 43 22 13 151 32 151 21z m3865 -491 c393 -63 670 -267
798 -587 60 -150 82 -365 57 -558 -19 -147 -99 -366 -166 -457 -143 -194 -393
-371 -709 -503 -159 -66 -176 -70 -296 -63 -117 7 -185 -5 -227 -38 -29 -23
-30 -23 32 -4 62 19 161 19 251 0 102 -22 285 -94 285 -113 0 -12 5 -10 24 7
15 14 28 44 36 82 16 73 34 72 37 -2 1 -30 2 -62 2 -71 1 -17 31 -27 31 -10 0
11 108 68 115 60 11 -10 -12 -43 -50 -72 -48 -37 -48 -70 0 -93 19 -9 35 -20
35 -25 0 -17 -49 -7 -84 17 -44 30 -42 30 -49 5 -4 -16 -14 -20 -51 -20 -25 0
-46 4 -46 10 0 6 -18 7 -45 3 -36 -4 -50 -2 -65 12 -37 33 -26 46 33 40 l52
-5 -50 25 c-43 21 -52 22 -70 11 -11 -7 -22 -24 -25 -37 -5 -21 -14 -25 -85
-36 -135 -20 -351 -27 -449 -14 -90 12 -118 9 -75 -8 13 -5 36 -14 51 -20 l28
-10 -68 -68 c-98 -97 -126 -145 -127 -213 -1 -103 -81 -227 -180 -279 l-40
-21 39 0 c38 0 39 0 21 -20 -34 -38 -133 -52 -173 -24 -30 21 -28 34 8 34 50
0 34 15 -29 28 -75 16 -140 60 -199 135 l-45 57 27 29 c46 48 44 137 -5 189
l-20 22 24 0 c20 0 23 4 19 29 -10 70 124 243 251 324 32 20 61 37 66 37 5 0
14 7 21 15 26 32 -103 -25 -176 -77 -41 -29 -41 -29 -110 -17 -38 6 -105 22
-148 35 -50 15 -105 24 -149 24 -49 0 -68 3 -65 12 3 7 18 16 35 20 50 13 55
27 37 97 -11 44 -13 70 -6 89 l9 27 17 -42 c24 -56 42 -62 50 -14 3 21 13 44
21 51 13 11 15 5 15 -49 0 -33 4 -61 9 -61 5 0 23 12 40 26 23 19 31 22 31 10
0 -31 -23 -64 -57 -80 -20 -9 -33 -19 -30 -22 3 -3 57 6 120 20 256 58 483 56
502 -5 11 -33 28 -22 21 13 -10 49 -47 80 -167 143 -128 66 -213 133 -257 202
-33 51 -49 116 -38 158 6 24 110 135 127 135 4 0 17 16 29 36 31 49 24 107
-29 224 -93 204 -95 212 -95 355 -1 165 19 235 103 361 126 190 354 361 611
457 62 23 260 72 325 80 74 10 228 6 310 -8z m-3138 -182 c40 -9 73 -20 73
-24 0 -40 -83 -333 -99 -352 -9 -9 -83 53 -111 94 l-21 29 22 31 c26 37 49
110 49 157 0 35 0 35 20 17 11 -10 23 -15 28 -11 4 4 -10 23 -31 42 -40 37
-47 50 -20 40 10 -4 50 -14 90 -23z m879 -20 c15 -100 -7 -258 -53 -392 -5
-13 -3 -14 8 -3 19 18 26 15 32 -14 6 -33 -20 -50 -114 -75 -146 -38 -348 -34
-529 12 -108 27 -210 73 -210 93 0 9 9 42 20 73 11 32 33 109 49 172 17 62 32
116 35 119 7 7 188 -16 264 -34 37 -9 80 -13 102 -9 43 7 37 19 57 -120 l7
-50 8 35 c4 19 6 63 2 97 -6 70 -18 60 116 92 47 11 103 27 125 35 66 24 73
22 81 -31z m-1026 -140 c0 -5 -9 -21 -20 -38 -16 -24 -20 -26 -26 -12 -11 30
-22 18 -14 -16 12 -55 43 -95 125 -164 111 -92 290 -154 503 -175 196 -20 398
18 482 89 22 19 40 42 40 50 0 13 -3 13 -16 2 -13 -10 -17 -10 -25 2 -5 8 -9
22 -9 31 0 9 -2 22 -5 30 -3 7 -1 19 4 26 11 18 80 -16 110 -54 64 -82 20
-171 -124 -255 -54 -31 -43 -38 26 -14 55 20 59 13 59 -89 0 -70 -4 -87 -35
-151 -57 -120 -182 -232 -315 -283 -148 -58 -360 -78 -499 -48 -69 14 -201 68
-201 81 0 6 37 21 77 31 24 6 25 5 21 -20 -6 -32 5 -34 26 -4 21 30 21 151 0
237 -45 184 -208 381 -314 381 -12 0 -19 -4 -16 -9 3 -5 -10 -11 -29 -13 -31
-4 -34 -2 -29 17 9 30 56 115 64 115 3 0 15 -7 26 -15 38 -29 45 -14 10 23
-66 69 -86 182 -39 218 34 26 143 46 143 27z m-40 -447 c41 -34 105 -113 135
-168 34 -63 65 -177 65 -244 l0 -50 -57 -18 c-84 -26 -180 -86 -259 -160 l-69
-64 -12 54 c-15 67 -53 143 -105 213 -30 39 -41 65 -44 97 -3 41 -2 44 16 34
10 -5 30 -25 44 -42 14 -18 26 -28 26 -23 0 20 -39 74 -70 97 -18 13 -38 35
-46 50 -13 25 -12 32 7 70 35 69 74 112 129 142 89 48 190 54 240 12z m-695
-106 c3 -5 -4 -23 -16 -39 -18 -24 -21 -39 -17 -88 2 -32 11 -69 20 -81 14
-21 15 -19 10 46 -5 79 4 104 51 132 113 69 256 -53 257 -217 0 -40 4 -63 11
-63 25 0 103 -122 130 -202 25 -76 19 -126 -23 -174 -88 -100 -263 -52 -477
131 -151 129 -231 284 -202 393 13 48 31 56 31 14 0 -15 12 -52 26 -81 28 -56
46 -63 23 -9 -8 18 -14 60 -14 93 0 70 27 118 79 141 36 16 102 18 111 4z
m1932 -270 c23 -72 27 -102 28 -200 0 -111 -1 -117 -32 -175 -54 -100 -123
-161 -266 -238 -89 -47 -89 -51 -1 -32 28 7 28 6 -6 -15 -19 -13 -55 -39 -80
-60 -75 -63 -121 -90 -152 -90 -65 0 -188 83 -188 127 0 14 16 52 35 84 63
102 107 209 112 270 l6 57 46 12 c25 6 84 29 130 52 114 55 233 171 282 275
34 72 34 72 46 45 7 -15 25 -65 40 -112z m33 -650 c108 -31 144 -155 63 -217
l-32 -25 6 49 c7 62 -13 109 -60 139 -36 24 -92 35 -122 24 -14 -5 -8 -8 27
-12 57 -7 93 -32 108 -80 31 -90 -27 -170 -137 -191 l-32 -6 16 36 c27 65 5
131 -54 162 -27 14 -110 15 -118 1 -4 -6 13 -10 43 -10 64 0 95 -30 95 -93 0
-87 -54 -122 -188 -121 -64 1 -97 7 -162 31 -134 51 -196 102 -213 177 -10 47
-3 51 34 19 44 -37 146 -83 181 -82 57 2 83 17 246 148 68 54 206 78 299 51z
m58 -455 c70 -58 110 -221 113 -459 1 -59 5 -108 9 -111 4 -2 12 39 18 91 12
106 20 121 87 159 53 30 97 37 153 24 127 -28 211 -148 154 -219 -15 -18 -31
-23 -90 -28 -75 -5 -79 -3 -62 29 7 12 7 19 1 19 -19 0 -89 -111 -121 -191
-22 -53 -47 -94 -75 -124 -64 -65 -97 -80 -185 -80 -65 0 -83 4 -130 30 -181
99 -357 411 -335 595 12 103 83 209 151 226 32 8 37 3 24 -30 -14 -39 -12
-101 4 -141 8 -19 17 -35 18 -35 2 0 2 28 0 63 -3 51 0 72 17 106 47 92 181
133 249 76z m1330 -591 c28 -19 28 -25 -5 -57 -56 -53 -151 -79 -220 -61 -21
6 -21 6 10 64 23 43 40 61 62 69 37 12 123 4 153 -15z m-780 -70 c38 -44 85
-87 119 -106 103 -61 121 -137 41 -174 -88 -40 -115 -142 -63 -244 14 -27 25
-51 25 -52 0 -2 -83 -3 -185 -3 -178 0 -186 1 -190 20 -2 11 -12 113 -21 226
l-18 206 39 88 c22 49 46 94 53 102 9 8 36 13 75 12 l62 -1 63 -74z m447 -247
c6 -47 -1 -96 -22 -155 -4 -12 2 -10 21 8 27 24 27 25 59 6 17 -10 80 -28 139
-41 189 -42 258 -96 258 -202 0 -41 -5 -58 -27 -83 l-27 -32 -14 48 c-15 53
-59 107 -107 131 -26 13 -24 9 18 -35 44 -45 49 -54 54 -108 5 -54 3 -61 -21
-85 -67 -68 -237 -62 -376 12 -83 43 -228 184 -264 256 -18 36 -26 68 -26 103
0 62 11 85 50 105 37 19 46 19 30 0 -8 -9 -8 -15 -2 -15 17 0 49 48 56 84 6
33 8 34 44 29 20 -2 55 2 77 10 68 25 73 23 80 -36z"/>
<path d="M3507 4954 c-3 -3 -81 -9 -174 -14 -92 -4 -176 -11 -185 -15 -16 -6
-16 -9 -1 -31 14 -22 14 -26 -1 -49 -13 -20 -25 -25 -57 -25 -28 0 -38 4 -33
12 5 8 2 9 -12 4 -92 -38 -103 -40 -130 -28 -24 12 -26 17 -21 52 5 37 3 40
-16 35 -12 -3 -74 -16 -137 -31 -86 -19 -135 -25 -197 -22 -44 1 -79 0 -77 -3
6 -10 88 -29 123 -29 36 0 78 -46 158 -175 31 -49 74 -107 96 -127 35 -35 43
-38 95 -38 93 0 123 24 218 170 45 69 106 158 135 198 49 66 56 72 89 72 45 0
140 27 140 40 0 11 -4 13 -13 4z m-217 -52 c0 -5 -14 -29 -32 -53 -18 -24 -68
-100 -111 -169 -100 -157 -105 -162 -128 -111 -25 56 -56 72 -159 84 l-90 10
-30 46 c-16 26 -41 58 -55 71 -31 29 -32 40 -2 40 12 0 42 6 67 14 91 27 100
28 100 10 0 -10 17 -34 38 -54 22 -20 42 -48 45 -61 16 -61 107 -60 159 2 18
21 48 55 65 76 19 22 33 49 33 65 0 14 6 29 13 31 21 9 87 7 87 -1z m-446
-282 c14 -5 35 -19 46 -30 24 -24 40 -19 20 5 -17 21 -8 27 25 19 28 -7 65
-56 65 -85 0 -20 -20 -29 -68 -29 -30 0 -44 8 -84 50 -63 66 -65 94 -4 70z"/>
<path d="M5615 4176 c-21 -32 -35 -83 -35 -127 0 -28 -5 -38 -20 -42 -34 -9
-55 36 -54 113 0 61 0 63 -12 35 -16 -37 -17 -95 -3 -132 9 -25 8 -30 -13 -43
-46 -29 -121 -106 -163 -165 -131 -184 -201 -433 -193 -685 3 -107 7 -131 27
-169 19 -36 21 -49 12 -63 -14 -22 -4 -23 44 -2 57 23 177 44 263 45 66 0 73
2 52 12 -14 6 -27 12 -29 14 -2 1 12 22 31 45 58 70 143 209 178 288 90 204
103 429 34 579 -28 61 -25 106 8 154 11 16 18 31 14 34 -10 11 -39 -21 -58
-65 l-19 -42 -36 27 c-35 27 -35 27 -31 93 3 39 12 77 23 93 10 15 13 27 6 27
-6 0 -18 -11 -26 -24z m25 -225 c97 -69 133 -279 85 -488 -28 -120 -111 -281
-213 -413 -55 -71 -60 -75 -102 -78 -42 -3 -44 -3 -28 15 33 37 87 161 99 227
24 141 -17 269 -98 303 -44 18 -85 6 -150 -44 l-46 -35 8 39 c34 185 182 415
308 477 57 29 93 28 137 -3z m-247 -471 c61 -49 81 -213 40 -332 -35 -100
-117 -217 -138 -196 -3 2 11 36 30 74 57 111 69 238 31 312 -40 77 -145 25
-191 -94 l-15 -39 6 60 c11 106 57 178 139 216 51 24 66 24 98 -1z"/>
<path d="M4713 4133 c-10 -24 -13 -52 -9 -80 3 -23 1 -45 -4 -48 -15 -9 -49
36 -64 84 l-14 46 -1 -43 c-1 -25 6 -56 16 -72 17 -29 16 -29 -26 -75 -24 -26
-58 -79 -76 -118 -86 -189 -95 -394 -28 -665 24 -98 24 -104 8 -116 -16 -11
-11 -14 41 -20 68 -7 152 -44 190 -81 29 -29 41 -27 25 3 -8 15 -3 36 20 93
71 174 98 382 80 614 -11 136 -22 192 -56 283 -15 43 -13 79 11 162 13 49 -18
4 -37 -52 -10 -29 -21 -52 -26 -52 -21 3 -34 52 -30 112 3 34 3 62 0 62 -2 0
-11 -17 -20 -37z m54 -186 c44 -39 71 -173 73 -357 2 -150 2 -150 -14 -115
-18 41 -71 85 -102 85 -31 0 -72 -21 -101 -52 -73 -78 -93 -256 -47 -425 4
-13 2 -23 -3 -23 -14 0 -61 200 -74 316 -6 54 -8 134 -4 177 16 186 103 376
189 412 34 15 51 11 83 -18z m6 -446 c31 -37 60 -142 55 -201 -3 -43 -4 -43
-11 -15 -20 76 -43 120 -71 134 -25 12 -31 11 -55 -6 -43 -33 -70 -114 -70
-213 0 -47 6 -102 13 -122 8 -21 10 -38 6 -38 -31 0 -65 152 -58 264 11 173
118 283 191 197z"/>
<path d="M4844 2894 c-59 -40 -84 -84 -49 -84 29 0 83 -33 95 -59 7 -14 15
-81 19 -147 7 -141 18 -164 80 -164 48 0 101 44 132 107 15 33 24 43 27 31 2
-10 8 -18 13 -18 16 0 -14 157 -48 247 -16 43 -20 46 -115 94 -53 27 -107 24
-154 -7z m151 -23 c23 -10 53 -33 69 -52 26 -30 27 -34 11 -46 -29 -20 -100
-27 -128 -11 -81 44 -125 75 -119 84 30 45 101 55 167 25z"/>
<path d="M1652 3348 c-33 -33 6 -118 71 -153 28 -16 41 -18 54 -9 43 27 15
115 -49 154 -38 23 -59 25 -76 8z"/>
<path d="M1492 3318 c-25 -25 -14 -68 27 -110 33 -32 46 -39 73 -36 29 3 33 7
36 34 6 58 -101 147 -136 112z"/>
<path d="M1721 3141 c-51 -33 36 -141 113 -141 63 0 34 95 -39 130 -46 22 -54
23 -74 11z"/>
</g>
</svg>
