<?xml version="1.0" standalone="no"?>
<!DOCTYPE svg PUBLIC "-//W3C//DTD SVG 20010904//EN"
 "http://www.w3.org/TR/2001/REC-SVG-20010904/DTD/svg10.dtd">
<svg version="1.0" xmlns="http://www.w3.org/2000/svg"
 width="650.000000pt" height="504.000000pt" viewBox="0 0 650.000000 504.000000"
 preserveAspectRatio="xMidYMid meet">
<metadata>
Created by potrace 1.16, written by Peter Selinger 2001-2019
</metadata>
<g transform="translate(0.000000,504.000000) scale(0.100000,-0.100000)"
fill="#000000" stroke="none">
<path d="M2094 4938 c-8 -12 14 -32 65 -60 39 -21 65 -78 57 -123 -8 -39 -67
-111 -98 -118 -13 -3 -38 -11 -56 -18 -30 -13 -35 -12 -47 4 -13 18 -15 18
-58 -1 -32 -14 -65 -20 -118 -19 -62 1 -83 -3 -127 -26 -30 -15 -64 -27 -77
-27 -13 0 -40 -15 -60 -35 -36 -34 -38 -34 -86 -24 -72 16 -91 35 -97 101 -3
42 1 64 17 96 12 23 21 50 21 62 0 58 -94 -20 -131 -108 -10 -26 -24 -56 -31
-67 -6 -11 -13 -60 -16 -110 -4 -87 -4 -92 23 -123 41 -49 80 -65 157 -66 38
-1 66 -3 65 -6 -2 -3 -10 -19 -17 -37 -12 -27 -22 -33 -75 -46 -34 -8 -83 -28
-111 -44 -27 -16 -71 -34 -99 -41 -88 -23 -105 -57 -57 -110 37 -41 114 -78
190 -92 35 -6 75 -16 89 -23 23 -10 25 -15 19 -57 -6 -45 -36 -132 -61 -181
-20 -36 -65 -174 -65 -196 0 -11 -13 -29 -29 -40 -44 -33 -95 -146 -95 -214
-1 -64 17 -97 117 -211 45 -52 67 -69 94 -74 35 -7 139 12 158 28 20 18 27 6
21 -36 -8 -51 4 -78 59 -140 33 -37 36 -39 82 -32 53 7 116 29 178 61 74 39
102 124 111 335 3 85 2 112 -7 103 -6 -6 -15 -70 -19 -147 -7 -121 -11 -143
-36 -194 -33 -66 -72 -90 -188 -119 -78 -19 -87 -16 -128 43 -29 41 -37 105
-18 134 7 11 10 -3 10 -45 0 -40 6 -69 17 -84 15 -23 20 -23 95 -18 100 8 117
21 148 111 20 61 24 93 27 228 2 86 8 169 13 183 6 15 10 44 10 67 l0 40 48
-6 c26 -4 54 -2 62 4 12 8 11 10 -7 10 -22 0 -105 39 -111 53 -2 4 -10 7 -18
7 -8 0 -14 4 -14 9 0 13 -32 23 -42 13 -6 -6 6 -25 27 -47 30 -33 35 -43 29
-69 -9 -42 -48 -117 -71 -139 -25 -22 -33 -14 -62 61 -19 49 -64 125 -86 147
-100 100 -127 99 -312 -11 -17 -10 -35 -16 -38 -12 -4 3 5 35 20 70 15 34 30
77 34 93 4 17 18 49 30 72 11 24 28 73 37 110 13 56 13 71 2 91 -29 55 -12
241 30 327 35 74 173 172 252 180 27 3 28 3 104 30 40 14 66 16 150 10 55 -4
109 -11 118 -16 31 -17 150 -174 184 -244 19 -38 51 -100 70 -138 36 -67 36
-67 36 -191 -1 -108 -4 -132 -26 -186 -41 -101 -143 -215 -243 -273 -34 -20
-74 -37 -90 -39 -26 -3 -28 -7 -30 -48 -1 -25 1 -36 4 -25 7 26 33 55 49 55
18 0 59 -52 89 -115 32 -69 88 -124 176 -175 81 -48 121 -91 147 -162 51 -136
127 -248 215 -316 35 -26 119 -72 133 -72 43 0 130 -81 183 -169 18 -30 38
-60 45 -67 8 -7 13 -43 14 -90 1 -103 37 -421 62 -554 26 -139 50 -322 50
-388 0 -81 -7 -89 -87 -90 -81 -1 -199 -15 -385 -44 -75 -12 -140 -19 -144
-15 -4 4 5 20 19 35 37 38 37 67 0 57 -15 -3 -39 -15 -55 -26 -41 -30 -34 -11
17 46 24 28 43 55 41 60 -9 30 -147 -32 -201 -91 l-26 -29 6 30 c3 17 13 43
21 59 21 43 18 59 -8 51 -41 -12 -67 -34 -102 -86 -36 -53 -46 -50 -46 14 0
39 -15 66 -28 52 -16 -17 -32 -76 -32 -116 l0 -38 -59 30 c-33 16 -64 29 -70
29 -25 0 -19 -23 14 -55 19 -20 33 -40 30 -44 -2 -5 -40 -12 -82 -16 -104 -9
-238 -32 -293 -50 -83 -27 -190 -52 -190 -43 0 4 4 8 8 8 7 0 71 63 210 208
23 25 42 52 42 61 1 9 7 27 15 41 8 14 14 43 15 65 0 22 7 72 15 111 21 100 4
177 -71 316 -12 23 -13 39 -3 93 6 36 14 67 18 70 4 2 30 -15 57 -38 60 -52
97 -69 132 -61 75 18 78 73 12 175 -22 34 -38 64 -36 66 4 5 20 7 149 24 110
14 157 36 157 72 0 40 -28 54 -122 60 -88 6 -167 34 -197 71 -8 9 -20 16 -27
16 -9 0 -14 11 -14 28 0 33 -43 145 -72 184 -11 16 -28 28 -38 28 -10 0 -21 4
-24 9 -10 16 -146 37 -146 22 0 -3 -17 -5 -37 -4 -59 5 -139 -42 -193 -113
l-45 -59 0 -107 c0 -72 4 -111 13 -120 6 -6 12 -20 12 -30 0 -10 11 -45 25
-78 20 -47 24 -69 19 -102 -9 -59 -29 -95 -56 -101 -13 -3 -43 -13 -68 -22
-25 -10 -72 -24 -104 -31 -57 -14 -189 -79 -231 -114 -11 -9 -65 -43 -119 -75
-89 -54 -105 -60 -165 -63 -36 -2 -92 1 -124 7 -80 15 -112 6 -139 -37 -16
-27 -21 -50 -21 -96 1 -90 28 -139 99 -187 58 -38 159 -139 170 -169 6 -18
129 -124 150 -128 8 -2 14 -14 14 -28 0 -24 45 -106 61 -112 21 -8 6 -31 -23
-37 -18 -4 -42 -13 -53 -19 -11 -7 -35 -18 -53 -24 -44 -15 -193 -106 -216
-131 -11 -12 -24 -21 -30 -21 -18 -1 -82 -82 -96 -122 -12 -31 -12 -41 0 -63
29 -53 91 -98 195 -140 48 -20 97 -41 108 -47 12 -6 63 -19 112 -29 50 -9 124
-24 165 -33 137 -30 174 -35 350 -44 337 -18 1275 -4 1410 22 37 7 222 24 325
31 123 7 380 34 435 45 25 5 99 14 165 20 66 6 165 15 220 21 131 15 153 16
325 23 129 5 194 10 280 20 57 7 300 38 360 46 36 5 99 13 140 19 84 11 207
33 320 56 69 15 111 26 270 71 30 9 69 19 85 24 17 4 69 23 115 42 47 19 132
55 190 79 131 54 200 114 200 172 0 110 -235 230 -495 251 -38 4 -108 14 -155
24 l-85 17 -3 35 c-1 19 5 80 13 135 9 55 22 147 30 205 23 168 33 217 66 324
41 130 40 192 -1 304 -24 65 -31 105 -36 195 l-7 112 32 60 c18 33 41 87 52
120 11 33 26 69 33 80 7 11 25 63 40 115 15 52 35 122 46 155 10 33 26 94 35
135 14 69 20 101 45 260 4 30 9 98 10 150 1 87 2 92 14 65 20 -48 45 -191 51
-305 6 -97 -5 -292 -36 -610 -5 -58 -12 -170 -15 -250 -5 -123 -9 -153 -29
-200 -91 -211 14 -529 225 -685 84 -62 180 -104 180 -78 0 4 -10 18 -23 32
-13 15 -36 57 -52 95 l-29 70 17 82 c22 106 21 130 -6 184 -26 52 -92 157
-113 177 -8 8 -28 44 -45 79 -29 59 -31 71 -25 127 7 69 39 254 61 362 61 295
73 552 35 763 -62 338 -130 466 -387 735 -47 49 -104 75 -228 103 -160 36
-373 38 -655 7 -107 -12 -251 -24 -320 -28 -69 -3 -147 -8 -175 -10 -232 -21
-370 -24 -434 -10 -156 35 -397 46 -531 25 -71 -11 -230 -64 -270 -89 -74 -47
-210 -172 -246 -225 -11 -18 -25 -26 -46 -26 -17 0 -42 -7 -58 -16 -27 -16
-29 -16 -75 20 -26 20 -53 36 -59 36 -19 1 -73 54 -81 80 -4 14 -21 53 -37 88
-28 61 -29 64 -12 83 13 15 31 19 75 19 144 0 236 46 307 155 30 44 44 84 72
195 17 66 17 78 4 98 -18 27 -19 27 -85 -2 -30 -13 -77 -26 -105 -30 -66 -8
-192 -41 -269 -69 -42 -16 -75 -38 -117 -79 -57 -57 -57 -57 -73 -35 -19 27
-20 57 -1 57 7 0 20 7 27 16 8 9 31 28 52 41 50 32 89 115 90 193 2 86 -28
153 -92 211 -51 46 -58 49 -107 49 -29 0 -56 -5 -60 -12z m122 -34 c85 -55
126 -159 106 -266 -12 -60 -41 -103 -100 -148 -41 -31 -52 -35 -110 -36 l-65
-1 -20 45 c-24 56 -18 68 47 94 103 40 166 111 166 185 0 59 -20 94 -69 121
-23 13 -41 25 -41 28 0 13 52 0 86 -22z m-826 -203 c-4 -15 -13 -38 -19 -49
-17 -32 -13 -91 9 -128 20 -31 69 -57 125 -66 18 -3 20 -10 17 -56 -2 -30 1
-59 8 -67 16 -19 -50 -51 -77 -37 -10 5 -40 13 -67 17 -65 9 -101 44 -110 107
-7 50 -4 71 26 163 21 64 73 143 95 145 1 0 -2 -13 -7 -29z m610 -123 c0 -13
3 -46 6 -74 l6 -51 -68 0 c-51 0 -81 -5 -114 -21 -25 -12 -62 -22 -82 -22 -23
0 -64 -14 -112 -39 -41 -22 -77 -37 -80 -34 -11 12 -6 94 8 121 16 32 54 68
62 59 3 -3 1 -14 -5 -25 -24 -45 -8 -41 36 8 56 62 93 80 168 80 52 0 55 -1
55 -25 0 -14 5 -25 10 -25 6 0 10 5 10 11 0 21 52 58 83 59 11 0 17 -8 17 -22z
m813 -5 c10 -20 -45 -199 -78 -254 -20 -32 -39 -59 -43 -59 -4 0 -23 -14 -42
-31 -48 -43 -71 -50 -182 -56 -64 -4 -102 -11 -109 -19 -17 -21 -26 -17 -38
16 -5 17 -6 30 -1 30 4 0 6 9 3 20 -4 17 -2 19 13 13 16 -5 17 -4 7 8 -15 19
-28 89 -16 89 6 0 14 -14 19 -32 5 -17 15 -33 23 -36 10 -3 11 0 2 16 -6 11
-11 33 -10 49 0 25 1 26 9 8 7 -19 40 -53 40 -42 0 2 -7 18 -15 33 -17 32 -20
74 -6 74 5 0 11 -12 13 -27 2 -14 8 -28 15 -30 8 -3 10 6 6 30 -7 43 -1 46 95
63 68 12 103 26 91 38 -3 3 -32 -1 -64 -9 -33 -8 -71 -14 -86 -15 -14 0 -48
-11 -75 -25 -39 -19 -56 -35 -72 -69 -12 -24 -22 -53 -22 -65 0 -30 -25 -26
-48 7 -18 25 -19 31 -6 60 30 72 125 121 305 156 75 15 158 35 185 46 53 20
80 24 87 13z m2537 -397 c67 -11 112 -24 153 -46 68 -38 154 -122 162 -162 4
-15 11 -30 16 -33 5 -4 9 -15 9 -26 0 -10 4 -27 9 -37 5 -9 18 -53 28 -97 14
-64 18 -122 18 -290 0 -211 -15 -352 -51 -480 -8 -27 -27 -98 -43 -158 -31
-112 -60 -199 -71 -207 -4 -3 -10 -18 -13 -35 -8 -33 -69 -165 -77 -165 -3 0
-7 26 -8 58 -5 123 -23 313 -32 338 -6 14 -10 67 -10 118 0 144 -27 226 -104
318 -59 70 -143 102 -251 95 -91 -5 -157 -31 -204 -79 -27 -27 -30 -38 -36
-124 -9 -110 1 -427 16 -564 7 -62 24 -132 48 -200 21 -58 44 -125 53 -150 8
-25 18 -52 22 -61 9 -20 -15 -27 -134 -39 -47 -4 -103 -13 -125 -19 -22 -7
-67 -18 -100 -25 -33 -7 -74 -20 -91 -29 -121 -63 -470 -96 -674 -63 l-75 12
-3 264 c-2 216 0 278 14 337 23 102 15 304 -15 390 -35 102 -69 150 -131 186
-50 29 -62 32 -140 32 -78 0 -90 -3 -145 -34 -33 -18 -69 -45 -81 -58 -28 -33
-79 -136 -93 -188 -23 -85 -10 -302 28 -480 11 -49 27 -135 35 -190 9 -55 19
-113 23 -129 l6 -29 -29 20 c-16 11 -37 23 -47 26 -37 14 -158 112 -178 145
-20 35 -18 55 3 34 7 -7 19 -12 27 -12 39 0 -102 108 -216 164 -40 20 -75 41
-78 46 -3 6 -13 10 -21 10 -9 0 -21 6 -28 13 -7 6 -28 26 -48 43 -47 41 -95
112 -143 211 -33 66 -37 82 -23 77 10 -3 18 -2 18 3 0 15 -103 110 -139 128
-61 30 -125 83 -169 136 -23 28 -42 56 -42 61 0 6 -14 30 -30 55 -17 25 -30
47 -28 48 2 1 21 12 43 23 71 36 169 116 202 165 48 71 91 240 80 317 -3 25
-1 40 5 40 6 0 46 -24 88 -52 80 -55 140 -129 173 -213 10 -26 16 -33 16 -19
1 37 -29 123 -54 152 -29 35 -31 48 -9 56 26 10 154 7 176 -5 11 -6 23 -8 26
-4 11 11 -38 45 -64 45 -13 0 -24 4 -24 10 0 18 134 147 201 193 42 29 97 56
150 72 46 15 98 31 114 37 17 5 87 12 157 15 127 6 214 -2 344 -33 138 -32
468 -59 434 -35 -8 6 -52 11 -97 11 -138 0 -93 17 65 23 81 4 197 11 257 16
61 6 169 15 240 21 72 7 171 15 220 20 122 12 379 4 495 -14z m-3914 -28 c-3
-13 -6 -27 -6 -33 0 -5 -24 -10 -53 -11 -55 -1 -193 -57 -182 -74 7 -11 33 -2
103 35 33 17 62 25 84 23 l33 -3 1 -88 c1 -77 -1 -87 -15 -81 -9 4 -43 11 -76
16 -93 15 -175 66 -175 108 0 21 46 50 78 50 17 0 52 16 137 63 17 9 41 17 54
17 19 0 22 -4 17 -22z m4337 -288 c142 -192 194 -375 204 -725 7 -232 -3 -333
-59 -605 -23 -115 -58 -412 -58 -497 0 -35 -4 -63 -9 -63 -38 0 -50 400 -18
620 25 165 40 460 34 641 -5 147 -7 161 -42 260 -20 57 -42 131 -48 164 -7 33
-15 65 -18 70 -4 6 -10 32 -13 58 -4 27 -14 67 -22 89 -13 38 -19 76 -10 67 2
-2 29 -38 59 -79z m-4180 -364 c45 -18 113 -91 141 -151 61 -129 66 -148 46
-199 -27 -71 -167 -173 -276 -202 -69 -18 -88 -18 -123 0 -35 18 -133 147
-155 205 -20 52 -16 82 26 168 29 59 68 93 108 93 7 0 29 13 49 28 32 25 76
49 121 65 23 8 28 8 63 -7z m3628 -174 c66 -34 97 -62 137 -125 40 -64 63
-139 61 -205 l-1 -37 -10 35 c-5 19 -14 39 -19 45 -5 5 -9 14 -9 21 0 23 -68
116 -102 139 -58 40 -108 56 -147 49 -57 -11 -93 -30 -137 -71 -33 -31 -45
-54 -68 -128 -54 -173 -53 -169 -62 -154 -18 30 -12 217 11 334 5 24 92 93
132 105 53 16 176 11 214 -8z m-1640 -123 c79 -26 111 -55 157 -144 36 -70 36
-71 42 -225 4 -133 -2 -268 -10 -205 -1 11 -2 23 -1 28 0 4 -10 55 -24 113
-28 117 -66 219 -101 271 -12 18 -24 37 -26 42 -2 4 -22 20 -45 35 -55 34
-116 35 -186 2 -60 -27 -75 -42 -112 -113 -35 -69 -55 -145 -55 -218 0 -80
-19 -111 -21 -35 -4 163 22 264 90 355 40 53 104 93 166 102 17 3 32 7 34 9 8
8 28 4 92 -17z m1659 -16 c47 -24 60 -38 97 -101 24 -41 43 -79 43 -86 0 -7 4
-16 9 -21 13 -15 54 -235 52 -282 -1 -24 2 -51 8 -60 5 -10 14 -121 20 -247
12 -239 21 -302 52 -370 22 -49 24 -135 4 -191 -25 -67 -48 -169 -89 -395 -25
-141 -40 -318 -37 -447 1 -68 -1 -123 -6 -123 -4 1 -19 7 -32 14 -13 7 -32 11
-41 9 -11 -3 -25 6 -39 25 -23 33 -47 34 -77 1 -21 -23 -34 -24 -34 -4 0 9 -9
19 -21 23 -20 8 -20 9 9 40 28 30 30 38 30 105 -1 120 13 350 23 381 16 51 41
288 34 325 -6 32 -44 99 -102 181 -10 14 -31 50 -47 80 -16 30 -36 66 -46 80
-47 70 -156 393 -170 509 -11 82 0 208 24 281 8 25 24 78 37 119 25 87 65 135
130 162 63 25 107 23 169 -8z m-3410 -41 c0 -4 -4 -12 -9 -17 -5 -6 -12 -21
-16 -35 l-7 -25 31 29 c17 17 31 36 31 43 0 7 5 13 10 13 16 0 11 -26 -11 -54
-11 -14 -16 -26 -10 -26 6 0 11 5 11 10 0 6 7 10 16 10 14 0 16 -8 10 -52 -16
-126 -26 -151 -73 -180 -76 -48 -148 -49 -169 -4 -15 33 0 116 24 134 35 25
104 97 123 129 19 31 39 43 39 25z m1759 -79 c42 -41 110 -187 130 -278 23
-103 41 -244 47 -363 7 -134 -9 -395 -33 -532 -8 -47 -19 -112 -24 -144 -6
-33 -12 -63 -14 -66 -7 -11 -43 -226 -55 -330 -7 -53 -10 -125 -8 -160 7 -95
29 -234 39 -244 5 -6 9 -14 9 -18 0 -14 -27 -9 -41 8 -8 10 -22 14 -39 10 -22
-4 -35 3 -66 35 -27 27 -44 37 -57 33 -40 -13 -46 18 -47 241 -1 332 -21 555
-60 675 -82 253 -120 459 -127 702 -7 225 -2 254 56 354 52 89 91 114 184 114
65 0 69 -2 106 -37z m-1889 -538 c7 -8 18 -14 24 -14 36 6 67 -23 101 -95 42
-89 43 -106 7 -128 -50 -32 -66 -43 -86 -60 -22 -20 -66 -24 -66 -7 0 5 -5 7
-10 4 -6 -4 -10 -14 -9 -23 4 -45 -4 -67 -36 -99 l-36 -36 58 -53 c74 -67 66
-79 -51 -80 -106 -1 -148 16 -172 68 -15 34 -16 47 -6 100 11 59 10 79 -4 65
-4 -3 -9 -20 -13 -37 -8 -40 -25 -43 -29 -5 -1 17 -8 40 -13 51 -7 12 -10 58
-7 105 3 69 9 95 33 142 16 31 33 57 38 57 5 0 22 9 38 21 25 17 45 21 115 22
47 0 87 4 90 9 8 12 20 10 34 -7z m193 -266 c12 -7 35 -22 50 -35 37 -31 86
-45 182 -53 64 -5 80 -9 83 -23 5 -28 -45 -45 -163 -56 -60 -6 -114 -11 -120
-13 -5 -2 -39 0 -75 5 -73 8 -150 47 -150 74 1 18 109 96 145 105 11 3 21 5
23 6 2 0 13 -4 25 -10z m1223 -58 c5 -5 32 -21 59 -36 28 -15 59 -36 71 -46
11 -11 27 -19 36 -19 17 0 45 -89 77 -245 34 -172 40 -233 47 -488 6 -227 5
-252 -12 -289 -14 -31 -15 -41 -5 -47 10 -7 9 -12 -6 -22 -10 -8 -40 -42 -67
-75 -41 -52 -56 -63 -90 -70 -56 -10 -151 -7 -176 6 -20 11 -20 11 2 52 13 22
44 64 71 92 26 28 47 57 47 65 0 8 8 23 17 34 14 15 17 34 15 100 -3 100 -53
484 -72 557 -8 30 -21 140 -46 388 -4 40 -2 52 8 52 8 0 18 -4 24 -9z m1904
-82 c0 -5 16 -33 35 -63 19 -30 35 -59 35 -64 0 -5 15 -29 33 -53 42 -56 97
-154 97 -173 0 -36 -102 -75 -113 -43 -2 6 -7 9 -11 6 -3 -3 -1 -32 5 -65 13
-67 6 -158 -12 -180 -7 -9 -25 -14 -43 -12 l-31 3 0 125 c-1 144 -1 150 -16
150 -6 0 -9 -14 -7 -32 3 -32 1 -33 -46 -45 -29 -7 -63 -9 -85 -4 -39 8 -44
23 -28 84 6 22 5 28 -5 25 -14 -5 -29 -50 -50 -147 -14 -68 -57 -141 -83 -141
-23 0 -48 47 -42 78 3 16 25 72 48 126 22 53 39 100 36 103 -10 9 -27 -8 -27
-28 0 -36 -31 -35 -61 1 -42 50 -59 111 -59 211 0 71 3 88 16 93 41 16 203 46
249 47 27 0 70 6 95 13 43 12 70 6 70 -15z m789 -169 c6 -52 18 -117 26 -145
33 -107 37 -121 53 -157 9 -21 20 -38 25 -38 5 0 7 3 5 8 -27 52 -44 101 -58
167 -10 44 -21 92 -25 108 -4 16 -3 27 3 27 17 0 39 -44 52 -105 7 -33 20 -78
30 -100 10 -22 27 -64 39 -93 12 -30 38 -78 57 -108 19 -30 32 -54 29 -54 -17
0 -86 67 -100 96 -9 19 -20 32 -25 29 -12 -7 -118 153 -131 197 -35 119 -40
266 -13 333 10 22 11 15 33 -165z m-4119 120 c11 -22 24 -40 29 -40 4 0 43
-30 86 -67 106 -93 123 -105 134 -99 11 7 -4 87 -25 131 -24 52 -12 63 15 13
46 -85 71 -136 71 -147 0 -18 -40 -33 -69 -26 -16 3 -53 27 -82 52 -30 25 -65
53 -79 61 -14 9 -41 30 -60 47 -19 17 -46 38 -59 47 -23 16 -24 20 -11 43 18
34 26 32 50 -15z m4216 8 c3 -13 30 -54 59 -93 29 -38 64 -92 77 -120 28 -55
43 -131 28 -140 -6 -3 -10 -20 -10 -37 0 -16 -7 -45 -16 -63 -14 -30 -14 -37
-1 -62 8 -15 19 -41 24 -58 6 -16 14 -39 18 -50 5 -15 0 -12 -18 9 -23 26 -58
91 -101 188 -35 80 -98 306 -86 313 10 6 49 -84 56 -130 6 -46 40 -136 66
-180 16 -27 18 -28 18 -8 0 12 -9 37 -20 56 -11 19 -32 79 -46 133 -13 55 -36
116 -50 137 -14 22 -23 42 -19 45 3 4 9 2 13 -4 4 -6 19 -26 35 -46 15 -19 41
-59 57 -89 20 -37 30 -47 30 -33 0 20 -71 135 -119 194 -21 26 -28 60 -12 60
5 0 13 -10 17 -22z m-1346 -118 c0 -73 4 -99 24 -142 25 -58 51 -91 78 -101
16 -6 16 -9 1 -44 -47 -113 -46 -166 5 -199 23 -15 26 -15 51 3 40 30 68 77
75 128 5 29 12 45 22 45 19 0 18 -25 -6 -88 -25 -67 -25 -93 1 -126 18 -23 21
-36 16 -79 -3 -29 -8 -61 -10 -72 -3 -11 -8 -54 -12 -96 l-7 -75 -147 4 c-80
2 -336 4 -568 5 l-422 2 -7 44 c-7 47 7 193 32 326 8 44 32 174 54 288 21 115
40 210 42 212 2 2 23 -2 46 -10 62 -22 255 -29 375 -15 101 12 287 53 317 70
35 21 40 12 40 -80z m-3075 -44 c60 -23 152 -20 199 5 52 28 60 17 48 -68 -12
-83 -8 -114 23 -173 61 -119 69 -244 18 -305 -33 -39 -93 -72 -148 -81 -33 -5
-36 -7 -22 -16 21 -11 109 6 145 29 30 18 39 10 24 -22 -7 -14 -12 -39 -12
-54 0 -21 -10 -36 -35 -55 -74 -57 -126 -76 -225 -84 -78 -7 -89 -10 -65 -17
19 -5 62 -3 120 7 50 8 92 13 95 11 8 -7 -124 -126 -172 -155 -54 -33 -134
-55 -235 -64 -74 -7 -92 -15 -151 -71 -12 -12 -25 -16 -84 -28 -29 -5 -102 17
-127 39 -29 26 -53 79 -45 100 4 10 -1 18 -12 22 -11 4 -36 23 -56 43 -20 20
-51 50 -68 66 -18 17 -52 56 -76 88 l-45 58 63 -6 c46 -5 59 -4 48 4 -8 6 -25
11 -37 11 -21 0 -32 4 -108 35 -16 7 -40 16 -51 19 -12 4 -38 28 -58 53 -33
42 -36 52 -36 109 0 77 5 91 40 109 23 12 34 12 79 -2 34 -10 78 -14 124 -11
65 4 80 9 162 57 50 29 115 70 145 91 106 73 285 143 390 154 18 2 31 15 47
47 12 24 22 52 22 63 1 20 4 19 76 -8z m3685 -264 c0 -21 6 -61 14 -90 7 -29
11 -62 9 -75 -2 -12 -10 -103 -16 -202 l-12 -180 -70 3 c-38 2 -74 7 -79 12
-9 9 4 113 31 239 12 58 22 79 45 100 29 25 30 30 32 116 2 94 7 115 32 115
10 0 14 -12 14 -38z m-174 -19 c-3 -10 -6 -51 -8 -92 -2 -66 0 -75 21 -92 l22
-18 -17 -103 c-26 -158 -27 -197 -9 -263 50 -177 48 -184 -32 -213 -144 -52
-209 -56 -228 -13 -9 20 -15 22 -52 17 -23 -3 -45 -1 -48 4 -12 19 64 117 127
163 21 16 38 35 38 42 0 7 7 18 15 25 8 7 13 16 10 20 -7 12 14 258 26 303 5
21 16 40 24 43 19 8 61 99 70 152 5 33 11 42 27 42 14 0 18 -5 14 -17z m-2626
-406 c0 -2 -11 -32 -26 -66 -14 -35 -24 -77 -22 -93 3 -29 3 -29 43 26 30 41
55 62 100 85 78 40 99 40 57 0 -17 -16 -39 -43 -47 -60 -9 -16 -20 -29 -25
-29 -6 0 -10 -7 -10 -15 0 -22 14 -19 65 16 25 17 49 29 54 27 6 -2 -3 -22
-19 -45 -16 -23 -25 -45 -20 -48 10 -6 91 6 195 30 70 17 307 45 371 45 60 0
67 -20 22 -68 -111 -119 -126 -184 -45 -198 55 -10 133 -7 158 6 26 14 26 -9
-1 -43 -11 -14 -20 -27 -20 -30 0 -3 15 -14 33 -25 46 -29 244 -47 354 -33 89
11 108 19 137 58 18 25 18 27 -3 102 -38 131 -53 201 -47 218 6 14 57 15 558
9 304 -4 554 -9 556 -11 9 -8 -21 -46 -47 -59 -64 -34 -144 -175 -110 -197 8
-5 28 -7 46 -4 26 5 33 2 38 -15 4 -14 16 -21 38 -22 72 -4 144 5 180 24 22
11 41 18 43 16 1 -2 -8 -28 -23 -58 -24 -51 -25 -54 -7 -67 10 -7 29 -13 44
-13 14 0 33 -8 42 -19 21 -25 158 -37 248 -21 36 7 79 14 95 17 56 10 56 11
49 196 l-6 170 53 -6 c92 -9 282 -36 329 -46 140 -30 274 -98 310 -157 36 -57
22 -94 -56 -146 -51 -35 -371 -167 -467 -193 -220 -60 -300 -78 -483 -110
-115 -20 -265 -43 -334 -50 -69 -8 -188 -21 -265 -30 -77 -8 -266 -24 -420
-35 -257 -18 -558 -48 -647 -65 -63 -12 -99 -16 -238 -25 -74 -5 -288 -23
-475 -42 -337 -33 -345 -33 -860 -33 -541 0 -610 4 -830 47 -55 11 -125 23
-155 28 -74 11 -96 16 -160 41 -30 11 -80 30 -110 41 -30 12 -69 32 -86 45
-17 12 -35 23 -40 23 -14 0 -74 72 -74 88 0 33 64 113 123 155 101 71 258 157
288 157 10 0 21 5 24 10 3 6 13 10 21 10 30 0 4 -152 -33 -188 -17 -18 -16
-26 5 -50 14 -16 39 -22 125 -31 60 -7 120 -16 134 -22 14 -5 51 -11 82 -12
46 -2 62 3 91 23 19 14 37 26 39 28 3 1 -5 16 -17 32 -12 16 -22 38 -22 48 0
25 -63 58 -127 65 -64 7 -98 28 -112 69 -17 48 -14 55 27 62 23 3 55 20 79 41
51 43 100 56 109 29 4 -11 16 -26 27 -36 l21 -16 -28 -70 c-47 -115 -19 -134
179 -125 89 4 137 2 164 -7 52 -17 91 -7 91 23 0 13 5 28 11 34 9 9 8 18 -4
37 -21 31 -27 32 -167 46 -108 10 -150 25 -150 51 0 4 20 31 45 60 49 57 83
75 202 103 37 8 117 27 177 41 60 14 151 28 202 32 91 6 94 5 94 -15 0 -25 16
-37 23 -18 3 8 -5 36 -18 62 -13 27 -22 50 -20 53 3 2 25 -9 50 -27 26 -18 47
-27 51 -21 3 6 3 36 -1 68 -8 67 10 96 20 34 15 -88 23 -92 51 -30 19 43 79
117 95 117 5 0 9 -1 9 -3z m2758 -143 c48 -10 48 -45 -1 -110 -22 -30 -44 -54
-48 -54 -4 0 -11 17 -15 38 -3 20 -12 47 -20 59 -8 12 -14 34 -14 48 0 22 4
25 34 25 18 0 47 -3 64 -6z m-1684 -90 c3 -8 14 -14 23 -12 10 1 38 -12 62
-30 24 -18 55 -32 68 -32 30 0 81 -37 99 -72 43 -83 -11 -119 -181 -120 -92
-1 -165 12 -165 29 0 10 64 118 77 131 13 13 18 42 8 42 -5 0 -27 -31 -87
-123 -34 -52 -70 -69 -95 -45 -13 14 -13 19 2 49 10 19 31 50 46 69 16 19 46
56 66 82 39 48 66 60 77 32z m1879 -139 c34 9 78 -43 84 -97 4 -30 1 -47 -9
-55 -20 -17 -224 -38 -280 -29 -41 6 -48 10 -48 30 0 30 43 87 114 154 l56 53
31 -30 c22 -22 37 -29 52 -26z m-173 21 c0 -7 -11 -26 -25 -42 -14 -16 -40
-50 -58 -76 -27 -40 -37 -48 -65 -48 -19 0 -35 6 -38 15 -7 17 64 135 81 135
7 0 17 6 23 13 15 17 82 19 82 3z m-3771 -131 c16 -28 27 -35 53 -37 71 -4 85
-5 149 -12 37 -5 75 -16 89 -26 33 -25 21 -34 -21 -16 -39 16 -148 26 -155 15
-8 -13 16 -21 88 -29 66 -7 100 -22 85 -36 -3 -4 -41 -1 -84 5 -53 8 -106 9
-166 4 -64 -7 -95 -6 -117 4 -33 13 -40 42 -15 63 8 7 17 28 21 49 9 47 11 51
34 51 10 0 27 -15 39 -35z m-385 -2 c2 -10 7 -32 11 -49 9 -45 30 -59 114 -78
40 -9 88 -24 105 -34 l31 -17 -28 -3 c-16 -2 -56 6 -89 17 -66 22 -79 21 -57
-5 13 -16 10 -17 -45 -10 -78 9 -67 -1 27 -24 83 -21 167 -57 167 -72 0 -10
-20 -9 -200 11 -97 10 -180 30 -180 43 0 5 7 19 15 31 22 35 45 117 45 165 l0
42 39 0 c29 0 41 -5 45 -17z"/>
<path d="M1578 2420 c-21 -13 -58 -72 -58 -93 0 -8 14 -29 31 -46 53 -54 149
-35 149 29 0 38 -34 94 -66 108 -30 14 -34 14 -56 2z"/>
<path d="M1130 1674 c-66 -36 -80 -45 -128 -86 -64 -54 -142 -87 -254 -109
-76 -14 -118 -51 -118 -106 0 -21 6 -48 14 -59 12 -17 146 -90 221 -120 11 -4
72 -13 135 -19 100 -9 125 -8 195 8 44 10 95 27 114 38 19 11 40 18 48 15 19
-8 98 65 81 75 -10 6 -7 13 10 29 23 22 29 45 13 54 -5 4 -15 -7 -23 -24 -13
-31 -127 -130 -149 -130 -18 0 -78 -20 -115 -38 -20 -10 -38 -12 -50 -7 -11 5
-23 7 -29 5 -5 -1 -41 -2 -80 -1 -77 2 -173 30 -187 55 -5 9 -21 16 -37 16
-38 0 -119 53 -127 84 -14 57 25 89 139 113 85 18 129 39 223 109 95 70 144
94 196 95 24 1 48 0 53 -1 21 -5 27 1 15 15 -20 24 -107 19 -160 -11z"/>
<path d="M3037 603 c-4 -3 -7 -26 -7 -50 0 -23 -4 -43 -10 -43 -5 0 -10 4 -10
9 0 9 -89 56 -119 63 -28 6 -21 -22 15 -61 l36 -41 -116 0 c-69 0 -116 -4
-116 -10 0 -14 40 -37 77 -45 42 -9 52 -25 16 -25 -29 0 -73 -24 -63 -33 7 -8
160 36 160 45 0 5 -9 8 -19 8 -11 0 -22 4 -25 9 -3 4 -24 11 -46 15 -55 9 -51
27 5 21 25 -3 65 -7 90 -10 25 -2 59 -11 75 -20 51 -26 45 3 -12 55 -29 27
-49 52 -46 56 11 10 78 -44 97 -77 23 -41 34 -31 35 28 1 50 9 73 22 60 3 -3
9 -35 11 -71 3 -36 8 -66 11 -66 3 0 20 18 39 40 42 49 120 102 144 98 15 -2
7 -16 -42 -67 -66 -71 -67 -102 -2 -46 23 19 51 35 63 35 12 0 30 4 40 10 10
5 44 13 76 16 54 7 58 6 45 -9 -7 -10 -23 -17 -36 -17 -12 0 -25 -3 -28 -7 -4
-3 -28 -14 -53 -22 -25 -9 -47 -20 -48 -26 0 -6 39 -13 92 -16 51 -3 98 -11
104 -17 14 -14 68 -16 68 -3 0 10 -95 41 -127 41 -10 0 -29 3 -41 7 -20 5 -13
9 40 28 48 16 63 26 63 41 0 17 -7 19 -70 18 -39 -1 -87 -9 -109 -18 -22 -9
-41 -14 -43 -12 -2 2 17 24 42 49 69 66 34 74 -84 17 -31 -15 -65 -39 -76 -54
-27 -36 -42 -33 -50 11 -13 70 -45 110 -68 86z"/>
<path d="M4682 571 c-99 -26 -131 -83 -55 -97 61 -11 276 2 310 19 66 34 63
56 -10 81 -60 20 -163 19 -245 -3z m252 -17 c25 -10 19 -33 -11 -40 -16 -3
-47 -13 -71 -21 -47 -18 -205 -14 -225 6 -12 12 7 39 38 51 23 10 246 13 269
4z"/>
<path d="M2019 486 c-97 -23 -243 -146 -226 -190 17 -43 351 -25 527 29 30 9
84 21 120 27 97 16 115 39 60 78 -26 19 -44 22 -121 21 -61 -1 -100 4 -118 13
-63 34 -158 43 -242 22z m169 -21 c46 -16 122 -68 136 -92 12 -22 -16 -41 -73
-48 -25 -3 -73 -10 -107 -15 -76 -12 -294 -13 -313 -1 -12 8 -9 15 14 43 32
38 155 115 194 121 57 9 108 6 149 -8z"/>
<path d="M1930 4321 c0 -58 -34 -63 -53 -8 -4 9 -11 17 -18 17 -7 0 -8 -7 -4
-17 13 -35 17 -73 8 -73 -5 0 -20 11 -33 25 -13 14 -27 25 -32 25 -16 0 -7
-29 15 -47 32 -25 37 -35 47 -99 7 -42 16 -62 37 -80 62 -53 133 -40 213 41
38 39 60 53 72 49 22 -7 24 18 3 36 -20 16 -19 49 2 72 13 15 14 18 2 18 -8 0
-20 -5 -26 -11 -19 -19 -36 1 -30 37 6 34 -9 48 -18 19 -16 -51 -16 -50 -25
-35 -6 8 -10 27 -10 43 0 32 -17 36 -22 5 -4 -31 -42 -31 -46 0 -4 26 -22 20
-22 -9 0 -28 -29 -24 -40 6 -14 36 -20 31 -20 -14z m44 -110 c-9 -54 8 -81 50
-81 29 0 36 5 51 37 14 28 15 41 6 55 -16 26 -14 30 12 23 24 -8 67 -44 67
-57 0 -13 -91 -92 -122 -105 -75 -32 -130 -6 -142 65 -10 63 -8 69 32 85 52
22 53 22 46 -22z"/>
</g>
</svg>
