<?xml version="1.0" standalone="no"?>
<!DOCTYPE svg PUBLIC "-//W3C//DTD SVG 20010904//EN"
 "http://www.w3.org/TR/2001/REC-SVG-20010904/DTD/svg10.dtd">
<svg version="1.0" xmlns="http://www.w3.org/2000/svg"
 width="650.000000pt" height="494.000000pt" viewBox="0 0 650.000000 494.000000"
 preserveAspectRatio="xMidYMid meet">
<metadata>
Created by potrace 1.16, written by Peter Selinger 2001-2019
</metadata>
<g transform="translate(0.000000,494.000000) scale(0.100000,-0.100000)"
fill="#000000" stroke="none">
<path d="M120 2465 l0 -2355 3134 0 3134 0 6 23 c3 12 6 1072 6 2355 l0 2332
-3140 0 -3140 0 0 -2355z m6267 13 c-1 -1283 -6 -2339 -10 -2345 -7 -10 -643
-13 -3128 -13 l-3119 0 0 2345 0 2345 3130 0 3130 0 -3 -2332z"/>
<path d="M3443 4781 c-73 -5 -85 -9 -112 -35 -17 -16 -36 -45 -42 -64 -17 -50
-7 -128 20 -151 32 -28 26 -41 -19 -41 -29 0 -42 -5 -50 -20 -7 -13 -21 -20
-40 -20 -57 0 -204 -80 -258 -139 -39 -43 -79 -133 -86 -193 -6 -46 -4 -64 13
-97 12 -22 30 -45 41 -51 11 -6 41 -33 67 -61 26 -28 60 -57 75 -65 15 -8 34
-30 42 -48 11 -25 31 -43 80 -71 63 -35 96 -41 103 -20 2 6 -17 21 -42 33 -25
12 -50 33 -57 46 -6 14 -36 43 -67 65 -31 21 -93 77 -138 124 -96 98 -100 114
-57 222 29 73 68 116 137 151 26 13 47 29 47 34 0 16 73 30 161 30 68 0 89 4
100 16 12 14 28 16 114 10 199 -14 279 -32 455 -106 41 -18 89 -36 105 -42 84
-29 288 -138 326 -174 18 -17 34 -24 45 -20 12 5 39 -14 94 -63 56 -51 94 -76
141 -94 132 -50 269 -73 269 -45 0 9 -22 18 -62 27 -35 7 -104 34 -157 62 -63
33 -98 46 -105 39 -8 -6 -35 10 -85 50 -40 33 -81 60 -91 60 -10 0 -23 7 -30
15 -19 23 -165 109 -290 171 -222 110 -378 157 -564 170 -94 7 -99 8 -146 46
-83 66 -91 151 -18 186 17 8 69 12 140 12 117 0 154 -7 483 -97 50 -13 115
-30 145 -37 73 -17 203 -78 267 -127 29 -21 57 -39 62 -39 6 0 21 -9 33 -19
13 -11 34 -29 47 -40 13 -11 32 -23 42 -26 11 -4 19 -12 19 -19 0 -6 21 -28
48 -48 41 -33 93 -87 247 -263 26 -30 53 -49 75 -55 19 -5 52 -13 73 -18 20
-6 46 -21 57 -33 19 -23 20 -24 35 -5 14 19 15 18 37 -10 43 -53 55 -59 117
-56 53 3 65 0 143 -42 46 -25 93 -46 104 -46 10 0 33 -9 49 -20 17 -11 36 -20
43 -20 7 0 39 -20 69 -46 35 -28 59 -41 63 -34 9 14 80 -39 116 -87 16 -21 35
-45 43 -53 8 -8 32 -42 53 -75 20 -33 46 -69 56 -80 11 -11 30 -51 42 -88 17
-52 28 -70 46 -77 13 -5 29 -21 36 -35 6 -14 18 -25 25 -25 8 0 12 -4 8 -9 -3
-5 -1 -12 4 -15 28 -17 93 -132 100 -176 7 -46 6 -49 -25 -74 -39 -31 -54 -34
-29 -6 23 25 12 39 -13 17 -25 -23 -29 -22 -72 16 -20 17 -51 40 -69 50 -28
14 -32 21 -27 42 5 19 2 25 -9 25 -12 0 -15 -8 -13 -32 2 -24 12 -38 38 -54
51 -33 100 -75 100 -86 0 -5 10 -24 22 -41 17 -24 22 -43 20 -83 -1 -29 2 -63
7 -76 5 -14 6 -31 1 -38 -6 -9 -10 -7 -15 9 -4 12 -11 21 -17 19 -12 -4 -12
-4 -4 -60 8 -50 20 -62 31 -28 3 11 12 20 19 20 14 0 46 93 46 135 0 15 9 43
21 61 45 73 38 237 -13 291 -35 37 -86 115 -119 181 -22 45 -35 60 -42 53 -18
-18 -24 -13 -37 37 -7 26 -21 56 -30 67 -10 11 -30 43 -45 70 -48 85 -134 186
-174 202 -40 17 -91 55 -164 123 -34 32 -55 44 -72 42 -14 -2 -40 9 -66 27
-30 22 -46 28 -54 21 -9 -7 -26 -2 -59 16 -25 14 -48 30 -51 35 -9 14 -25 11
-25 -6 0 -19 -4 -19 -48 4 -20 11 -52 25 -71 32 -18 7 -46 23 -61 36 -24 20
-29 21 -40 8 -12 -14 -15 -13 -34 4 -12 11 -30 20 -41 19 -30 -2 -125 64 -165
113 -68 86 -196 211 -255 249 -33 21 -78 55 -100 76 -98 92 -305 190 -550 260
-324 92 -397 105 -542 95z"/>
<path d="M3238 4282 c-49 -20 -84 -40 -79 -45 8 -8 34 0 141 43 48 19 66 21
144 16 131 -10 334 -73 473 -146 81 -42 245 -179 251 -208 2 -9 16 -29 30 -44
31 -34 24 -46 -11 -18 -16 13 -28 17 -32 10 -12 -20 25 -59 96 -101 65 -39 70
-44 53 -56 -21 -16 -29 -16 -73 -3 -42 12 -62 2 -30 -16 l24 -12 -30 -13 c-76
-30 -228 -60 -335 -65 -136 -7 -206 4 -291 46 -67 33 -73 35 -64 20 14 -23
128 -70 195 -81 118 -20 299 3 490 62 19 6 78 14 130 18 82 5 95 8 94 24 -1
13 6 17 32 17 48 0 42 18 -13 42 -61 26 -102 58 -238 185 -190 176 -246 212
-435 280 -153 56 -229 73 -335 78 -97 4 -103 3 -187 -33z"/>
<path d="M3116 3722 c-8 -13 5 -27 74 -82 104 -83 108 -85 385 -145 33 -7 90
-20 126 -28 54 -12 109 -13 305 -7 131 4 241 6 243 4 4 -4 -1 -6 -79 -32 -42
-14 -56 -24 -58 -41 -2 -11 -17 -28 -33 -36 -16 -9 -51 -38 -77 -65 -29 -30
-66 -56 -93 -65 -24 -9 -54 -23 -68 -31 -32 -22 -67 -13 -189 47 -57 28 -106
49 -109 45 -3 -3 -19 4 -34 15 -16 11 -39 19 -52 17 -13 -2 -44 10 -75 29 -63
40 -76 41 -68 8 8 -30 -6 -32 -42 -6 -41 28 -122 67 -179 86 -40 13 -56 14
-73 5 -14 -7 -25 -8 -33 -2 -34 28 -329 95 -376 86 -16 -3 -44 2 -67 11 -58
26 -288 33 -370 11 -34 -9 -83 -16 -109 -16 -26 0 -68 -6 -94 -14 -25 -8 -78
-22 -118 -30 -126 -27 -267 -104 -478 -261 -106 -79 -240 -216 -307 -312 -29
-43 -88 -172 -88 -194 0 -6 -13 -28 -29 -48 -72 -91 -191 -382 -197 -481 -1
-30 -12 -95 -24 -145 -35 -144 -17 -353 40 -465 10 -19 25 -64 34 -100 16 -61
16 -65 -1 -77 -9 -7 -40 -13 -67 -13 l-51 1 28 17 c15 9 27 19 27 22 0 7 -122
2 -158 -6 -17 -3 -22 -10 -20 -27 2 -18 12 -24 56 -31 42 -8 51 -13 47 -26 -9
-30 19 -41 92 -38 l68 3 -1 33 c-1 17 1 32 5 32 3 0 27 -28 51 -61 49 -68 106
-119 131 -119 13 0 17 -15 22 -78 4 -59 12 -89 33 -126 35 -63 128 -156 178
-180 22 -10 60 -38 85 -61 51 -47 146 -115 160 -115 5 0 11 5 13 12 3 9 32 8
124 -5 69 -10 163 -16 224 -14 115 3 175 -11 297 -70 92 -45 116 -66 137 -120
31 -77 74 -109 259 -192 57 -25 163 -29 193 -6 21 16 64 20 64 7 0 -13 110
-64 150 -69 53 -7 121 18 145 55 14 22 28 31 48 32 41 0 94 25 107 50 20 37
-2 108 -69 227 -6 10 -15 38 -21 61 -12 46 -54 94 -179 202 -102 89 -178 137
-234 150 -119 26 -146 35 -225 74 -45 22 -81 45 -79 51 2 5 22 20 45 33 l41
23 114 -55 c63 -30 138 -61 168 -70 134 -38 354 -61 381 -39 7 6 54 13 105 17
l92 7 18 -35 c31 -61 183 -191 269 -230 102 -47 184 -54 572 -48 247 4 302 7
302 18 0 8 6 14 13 14 19 0 240 -60 260 -71 10 -5 21 -7 26 -5 4 3 36 -22 70
-55 60 -58 130 -99 198 -113 17 -4 89 -13 160 -21 140 -14 153 -12 216 41 18
15 41 24 64 24 49 0 159 54 176 87 10 19 12 38 5 72 -8 43 -7 48 18 69 24 21
26 27 20 75 -4 29 -15 63 -24 77 -9 14 -23 37 -32 51 -8 15 -40 63 -70 107
-78 113 -126 142 -263 154 -56 5 -104 14 -108 19 -3 6 -35 7 -85 1 -67 -7 -84
-5 -114 10 -19 9 -84 32 -145 49 -127 37 -175 56 -175 68 0 19 78 58 129 64
55 7 230 -21 270 -42 11 -6 35 -11 54 -11 32 0 115 -37 169 -74 24 -17 40 -13
31 9 -3 8 -3 15 -1 15 19 0 182 -80 215 -105 23 -18 67 -40 98 -49 53 -17 63
-17 196 -1 l141 17 40 41 c24 25 42 55 45 75 3 18 14 39 24 46 10 7 23 24 28
39 15 38 16 216 2 250 -17 44 -81 116 -131 148 -37 24 -40 28 -17 23 21 -5 27
-3 27 10 0 20 -66 50 -130 61 -28 4 -52 15 -62 28 -19 24 -6 24 -348 16 -134
-4 -162 -1 -205 15 -50 19 -56 25 -107 99 l-28 40 22 36 c12 20 31 43 42 51
40 30 143 61 231 70 115 13 142 24 165 70 14 28 27 39 51 44 69 14 79 50 17
60 -40 6 -118 50 -118 65 0 11 60 29 132 41 107 17 123 26 53 32 -39 3 -63 1
-70 -7 -13 -15 -159 -50 -174 -41 -6 4 -8 18 -5 32 8 30 -7 31 -52 3 -41 -25
-43 -37 -7 -41 28 -3 45 -28 19 -28 -8 0 -30 -6 -48 -14 -18 -8 -54 -22 -80
-32 -27 -9 -48 -20 -48 -25 0 -9 24 -2 123 35 84 32 90 32 133 0 41 -32 43
-53 7 -79 -15 -11 -37 -29 -50 -41 -18 -16 -41 -22 -105 -27 -111 -8 -169 -29
-213 -78 -19 -21 -35 -43 -35 -47 0 -4 -13 -13 -30 -19 -37 -14 -49 -44 -57
-145 -6 -77 -23 -110 -23 -44 0 19 -4 38 -10 41 -14 8 -13 -70 2 -174 11 -80
10 -86 -12 -127 -24 -46 -47 -60 -36 -21 12 43 17 162 7 177 -15 23 -20 10
-22 -65 -3 -90 -6 -101 -28 -81 -16 15 -19 11 -40 -40 -39 -93 -131 -181 -237
-228 l-42 -18 -60 41 c-79 53 -122 106 -122 148 0 46 -27 44 -36 -2 -7 -38
-15 -43 -34 -20 -7 8 -18 15 -24 15 -6 0 -47 23 -90 50 -44 27 -82 48 -84 45
-2 -2 22 -29 54 -60 47 -45 54 -55 34 -51 -66 16 -80 18 -80 9 0 -5 16 -18 35
-28 40 -22 37 -31 -11 -26 -18 1 -34 -2 -34 -7 0 -15 118 -44 198 -50 39 -2
72 -8 72 -13 0 -4 19 -13 43 -20 28 -7 55 -25 83 -55 22 -23 63 -54 90 -68 66
-33 220 -79 267 -79 23 -1 37 -6 37 -14 0 -32 45 -41 259 -52 246 -13 261 -18
324 -96 119 -148 143 -194 127 -247 -6 -21 -15 -38 -20 -38 -5 0 -28 26 -51
57 -53 74 -120 144 -131 137 -18 -11 -6 -41 33 -83 109 -120 159 -215 130
-244 -19 -19 -137 -22 -166 -3 -29 19 -35 20 -35 5 0 -29 112 -49 166 -29 34
13 42 5 19 -20 -23 -25 -88 -27 -132 -3 -34 19 -90 65 -177 145 -62 57 -121
87 -138 70 -9 -9 -8 -12 5 -12 28 0 67 -22 68 -39 0 -9 41 -51 90 -94 77 -68
89 -83 89 -111 0 -28 -5 -34 -36 -45 -26 -9 -39 -10 -47 -2 -6 6 -35 11 -64
11 -74 0 -141 20 -176 53 -22 20 -32 25 -38 16 -10 -17 -47 26 -55 64 -7 31
-24 47 -24 22 0 -48 68 -135 106 -135 15 0 19 -12 8 -23 -11 -11 -46 13 -111
76 -49 47 -63 56 -63 41 0 -11 5 -25 12 -32 6 -6 9 -15 5 -18 -3 -4 -23 12
-44 35 -64 69 -214 144 -347 172 -84 18 -112 20 -190 13 -70 -7 -91 -12 -91
-24 0 -26 -149 -43 -380 -43 -88 -1 -125 4 -183 23 -42 13 -77 31 -83 41 -5
10 -38 34 -73 54 -35 20 -85 55 -110 79 -44 43 -49 52 -61 129 -3 20 -10 37
-14 37 -11 0 -31 56 -31 87 0 13 6 36 14 51 7 15 16 51 19 80 7 60 -8 69 -42
25 -12 -14 -24 -24 -26 -21 -9 9 12 55 55 120 41 64 49 88 27 88 -13 0 -18 -7
-74 -99 -32 -54 -45 -121 -22 -121 7 0 8 -11 4 -30 -4 -19 -3 -30 4 -30 8 0 9
-18 5 -54 -5 -40 -2 -62 10 -87 9 -18 14 -34 11 -37 -10 -10 -101 -21 -177
-21 -43 -1 -80 -6 -83 -12 -7 -11 -44 -6 -111 16 -33 11 -49 11 -72 3 -25 -10
-43 -8 -104 12 -100 32 -144 48 -205 79 -51 25 -52 26 -35 46 10 11 26 37 35
58 l17 39 76 -71 c42 -39 80 -68 85 -65 5 3 7 10 4 15 -10 15 7 11 80 -21 39
-16 81 -29 95 -29 28 0 33 -2 -74 39 -75 29 -130 65 -147 96 -7 13 -16 24 -21
24 -10 0 -10 -3 2 -36 10 -25 9 -26 -7 -13 -10 8 -30 28 -46 44 -23 26 -26 35
-21 70 4 22 17 68 30 103 20 53 21 64 9 68 -8 4 -15 15 -15 25 0 14 7 19 26
19 26 0 26 0 19 58 -4 31 -11 65 -16 74 -13 23 -11 51 2 42 6 -3 20 -27 32
-53 17 -38 21 -42 24 -24 4 22 -32 139 -49 157 -4 6 -8 33 -8 60 0 57 -21 125
-50 167 -19 26 -19 27 -1 32 16 4 18 10 12 38 -14 63 -41 99 -131 175 -78 67
-103 94 -85 94 2 0 26 -13 52 -30 26 -16 51 -30 55 -30 16 0 7 27 -15 48 -24
22 -43 30 -32 13 3 -6 -15 -3 -40 6 -83 28 -73 -12 23 -85 96 -74 152 -135
152 -166 0 -32 -7 -32 -37 -4 -43 40 -36 8 16 -77 56 -91 76 -155 48 -155 -21
0 -28 -50 -10 -83 13 -26 13 -31 -3 -48 -15 -17 -18 -38 -16 -142 2 -160 -4
-200 -28 -192 -16 5 -22 -3 -34 -46 -9 -29 -16 -61 -16 -72 0 -31 -57 -77 -95
-77 -37 0 -89 -45 -99 -86 -11 -43 11 -100 52 -132 55 -42 159 -90 238 -108
38 -8 85 -20 105 -26 48 -14 169 -103 169 -125 0 -11 17 -25 41 -37 60 -27
104 -77 124 -138 10 -29 30 -75 45 -103 15 -27 36 -74 46 -103 20 -59 14 -72
-36 -72 -27 0 -80 57 -202 219 -57 75 -80 92 -93 72 -8 -14 5 -36 64 -116 50
-66 94 -161 106 -228 l7 -37 -50 0 c-28 0 -63 5 -78 10 -38 15 -122 87 -139
120 -8 16 -20 34 -28 42 -7 7 -25 33 -40 58 -33 56 -62 90 -76 90 -21 0 -23
-23 -3 -49 10 -15 29 -46 41 -69 19 -37 20 -47 10 -88 -7 -25 -18 -48 -26 -51
-41 -16 -219 46 -267 94 -10 10 -39 61 -65 113 -40 82 -53 99 -101 133 -73 51
-153 87 -195 87 -19 0 -56 5 -83 10 -30 7 -58 7 -73 2 -58 -22 -197 35 -214
88 -3 11 -10 20 -15 20 -22 0 16 -63 50 -85 53 -34 111 -47 225 -51 56 -1 119
-10 144 -18 24 -9 52 -16 61 -16 39 0 185 -119 167 -136 -3 -3 -28 11 -57 31
-91 64 -287 131 -359 123 -94 -12 -333 32 -448 82 -27 11 -72 43 -98 70 -27
27 -52 47 -57 44 -5 -3 -6 -10 -3 -15 4 -5 0 -9 -8 -9 -25 0 -137 118 -159
168 -38 83 -24 242 20 242 13 0 12 4 -5 22 -13 12 -24 20 -25 17 -2 -2 -11
-17 -20 -34 -9 -16 -22 -31 -28 -33 -7 -3 -39 24 -72 59 -76 81 -125 179 -138
278 -11 80 -16 93 -29 72 -26 -41 -55 123 -48 268 5 114 29 202 73 266 24 36
32 75 15 75 -6 0 -22 -16 -37 -35 -15 -20 -28 -34 -31 -32 -11 11 135 338 178
398 10 15 19 30 19 34 0 4 23 34 50 67 47 56 61 97 32 90 -18 -3 -15 6 19 67
63 111 333 372 429 415 14 6 27 13 30 17 3 3 20 14 39 24 19 9 43 26 55 36 30
29 135 76 218 98 92 25 265 51 340 51 32 0 79 7 105 16 54 18 184 15 238 -6
17 -7 64 -14 106 -16 41 -2 100 -10 130 -18 112 -29 173 -49 223 -72 62 -29
86 -30 93 -4 6 22 18 26 28 10 12 -19 203 -110 231 -110 7 0 15 8 18 17 4 10
10 13 14 7 14 -20 108 -73 177 -99 39 -15 88 -35 111 -45 69 -31 155 -52 186
-46 24 5 31 2 35 -14 8 -30 22 -24 41 18 31 67 63 102 123 132 32 17 66 41 75
55 9 13 26 27 37 31 12 3 36 21 53 39 18 19 45 35 65 39 68 12 154 51 164 74
5 12 22 26 37 31 29 10 39 41 14 41 -8 0 -72 -7 -143 -15 -350 -40 -644 -36
-858 11 -81 17 -232 87 -299 139 -50 38 -52 39 -60 27z m2073 -1756 c28 -44
88 -83 158 -101 84 -22 266 -22 349 1 54 14 67 15 74 4 9 -15 129 -49 172 -50
22 0 27 -5 30 -27 2 -22 11 -31 46 -44 79 -28 184 -171 125 -168 -21 1 -74 31
-133 76 -23 18 -46 30 -51 27 -21 -13 -4 -38 74 -103 46 -39 92 -86 102 -105
17 -31 17 -39 5 -75 -14 -45 -21 -49 -40 -26 -7 8 -18 15 -25 15 -6 0 -49 25
-95 56 -75 50 -110 61 -110 35 0 -14 25 -37 89 -80 76 -52 111 -86 111 -109 0
-34 -36 -59 -103 -71 -108 -19 -147 -13 -147 21 0 17 4 19 28 12 41 -13 129
-11 143 3 10 10 2 11 -39 6 -40 -4 -62 -1 -101 16 -62 26 -74 27 -66 1 11 -34
-21 -24 -70 21 -25 23 -48 39 -52 36 -9 -10 74 -86 102 -93 40 -10 30 -27 -12
-21 -39 7 -182 97 -243 154 -19 18 -38 33 -42 33 -15 0 -8 -24 14 -47 21 -22
21 -23 2 -23 -11 0 -44 16 -74 35 -60 38 -85 43 -94 20 -4 -12 -10 -14 -25 -5
-11 5 -31 10 -46 10 -14 0 -65 11 -113 24 -93 26 -130 34 -174 35 -31 1 -39
21 -9 21 11 0 26 9 35 21 l14 21 30 -22 c16 -12 56 -28 88 -36 69 -16 84 -17
84 -5 0 5 -21 12 -47 16 -74 11 -153 50 -153 76 0 4 25 39 55 78 30 39 55 80
55 91 0 10 8 23 17 28 14 9 16 25 14 111 -4 144 9 171 48 107z"/>
<path d="M5357 3385 c-26 -20 -51 -44 -57 -55 -5 -10 -22 -20 -37 -22 -37 -4
-42 -34 -9 -49 19 -9 26 -20 26 -41 0 -44 36 -105 79 -134 37 -24 141 -47 167
-37 7 2 45 5 85 6 67 3 74 4 71 22 -2 11 -7 54 -11 95 -10 97 -34 153 -81 190
-89 71 -163 78 -233 25z"/>
<path d="M4235 3331 c-81 -50 -133 -96 -122 -107 3 -3 20 4 37 16 47 33 48 16
2 -34 -65 -71 -95 -145 -53 -131 18 6 19 1 15 -92 l-4 -98 14 93 c11 76 19
101 45 137 36 51 25 70 -15 25 -35 -38 -49 -39 -29 0 16 30 133 150 147 150 4
0 8 5 8 11 0 6 -9 9 -20 6 -36 -9 -21 11 25 33 47 23 65 40 43 40 -8 0 -50
-22 -93 -49z"/>
<path d="M284 2836 c-4 -17 4 -43 25 -83 17 -32 36 -71 41 -86 5 -16 14 -26
19 -23 12 8 -6 83 -30 124 -10 18 -19 35 -19 38 0 10 39 2 75 -16 47 -24 55
-25 55 -5 0 23 33 18 103 -14 45 -21 82 -49 132 -100 64 -66 71 -70 83 -54 7
11 10 29 6 47 -8 35 4 29 55 -26 41 -44 51 -47 51 -15 0 45 -171 217 -217 217
-19 0 -23 -5 -23 -30 0 -31 -9 -37 -26 -20 -15 15 -144 61 -155 55 -5 -4 -9
-13 -9 -21 0 -18 4 -18 -54 11 -65 33 -104 33 -112 1z"/>
<path d="M1060 2634 c-36 -33 -115 -141 -147 -201 -18 -34 1 -36 32 -3 41 43
50 37 20 -12 -35 -57 -73 -140 -95 -208 -28 -87 -53 -266 -45 -329 13 -114 61
-334 80 -371 19 -34 18 -27 -5 55 -12 43 -20 100 -20 147 0 68 -3 79 -21 88
-19 11 -20 19 -16 108 3 76 10 112 31 167 23 57 25 73 15 91 -9 18 -6 35 20
99 32 79 103 196 140 229 12 11 21 23 21 28 0 16 -23 8 -62 -23 -21 -17 -41
-29 -44 -26 -9 9 50 89 107 145 61 58 51 72 -11 16z"/>
<path d="M271 2588 c1 -31 -6 -74 -16 -102 -17 -45 -18 -61 -7 -166 11 -115
27 -180 42 -180 4 0 11 -26 15 -57 4 -32 15 -85 26 -117 10 -33 17 -61 15 -63
-3 -4 -30 48 -52 102 -22 54 -29 29 -10 -34 8 -28 11 -51 6 -51 -13 0 -68 95
-86 150 -14 42 -14 58 -5 97 16 60 -2 83 -23 31 -18 -42 -14 -117 10 -178 10
-25 17 -66 16 -92 -1 -45 2 -50 55 -98 57 -52 73 -60 73 -36 0 28 18 25 51 -7
57 -56 63 -65 50 -81 -29 -35 114 -123 212 -131 50 -4 50 -4 17 6 -88 27 -154
56 -183 81 -27 23 -29 27 -12 27 11 0 31 -6 45 -14 30 -17 40 -18 40 -5 0 5
-18 19 -41 31 -23 11 -61 38 -85 61 -37 34 -41 42 -32 58 9 14 9 24 0 42 -17
34 -52 127 -52 139 0 6 9 8 20 4 25 -8 26 9 4 61 -10 22 -20 66 -23 99 -6 59
-23 81 -29 38 -5 -38 -20 -26 -26 20 -13 106 -16 194 -8 217 9 24 10 24 20
-15 6 -22 14 -57 18 -78 11 -65 54 -88 54 -29 0 41 -27 169 -50 236 -11 33
-20 65 -20 73 0 7 -7 13 -15 13 -12 0 -15 -11 -14 -52z"/>
<path d="M2075 2620 c3 -5 12 -10 18 -10 7 0 63 -16 126 -37 114 -38 114 -38
68 -41 -52 -3 -62 -18 -19 -28 33 -8 156 -69 195 -96 32 -23 51 -16 21 7 -10
9 -40 27 -66 40 -51 27 -74 51 -39 41 11 -3 30 -8 40 -11 21 -6 33 5 23 22 -8
12 -328 123 -355 123 -10 0 -15 -4 -12 -10z"/>
<path d="M6154 2523 c-16 -50 -27 -73 -35 -73 -5 0 -9 5 -9 10 0 20 -20 9 -58
-31 -36 -39 -43 -42 -98 -45 -145 -8 -164 -13 -164 -41 0 -11 6 -14 22 -10 12
3 29 2 39 -4 13 -6 25 -6 38 3 15 9 23 9 34 0 12 -10 26 -8 72 13 32 14 64 25
71 25 7 0 20 13 29 30 9 18 21 27 29 24 17 -7 41 28 51 73 7 34 -11 57 -21 26z"/>
<path d="M4720 2251 c0 -6 12 -13 28 -17 99 -22 117 -30 115 -52 -3 -27 21
-29 74 -7 46 20 46 20 28 -15 -15 -28 -13 -50 3 -50 4 0 29 20 56 45 28 24 52
43 54 40 3 -2 -5 -27 -17 -55 -34 -78 -21 -80 38 -6 29 37 50 70 48 73 -3 3
-14 -5 -24 -16 -24 -28 -35 -26 -23 4 18 46 -16 43 -67 -6 -48 -46 -48 -46
-26 24 7 23 -14 22 -52 -3 -34 -23 -57 -26 -50 -7 4 8 -19 18 -67 30 -40 9
-83 20 -95 23 -14 4 -23 2 -23 -5z"/>
<path d="M260 1723 c0 -16 8 -40 18 -54 18 -28 111 -109 124 -109 5 0 8 -11 8
-25 0 -19 9 -28 45 -44 51 -23 114 -31 114 -16 1 6 -12 15 -28 20 -47 16 -48
25 -2 25 35 0 42 3 39 18 -2 12 -14 18 -40 20 -85 7 -240 110 -254 169 -8 32
-24 29 -24 -4z"/>
</g>
</svg>
