<?xml version="1.0" standalone="no"?>
<!DOCTYPE svg PUBLIC "-//W3C//DTD SVG 20010904//EN"
 "http://www.w3.org/TR/2001/REC-SVG-20010904/DTD/svg10.dtd">
<svg version="1.0" xmlns="http://www.w3.org/2000/svg"
 width="720.000000pt" height="946.000000pt" viewBox="0 0 720.000000 946.000000"
 preserveAspectRatio="xMidYMid meet">
<metadata>
Created by potrace 1.16, written by Peter Selinger 2001-2019
</metadata>
<g transform="translate(0.000000,946.000000) scale(0.100000,-0.100000)"
fill="#000000" stroke="none">
<path d="M1370 9420 c0 -9 27 -39 221 -245 36 -38 117 -125 179 -192 99 -107
140 -141 140 -116 0 3 -30 38 -67 77 -38 39 -97 103 -132 141 -159 173 -324
345 -332 345 -5 0 -9 -5 -9 -10z"/>
<path d="M3813 9273 c-184 -229 -300 -371 -325 -398 -15 -16 -28 -36 -28 -42
0 -32 32 -3 117 105 51 64 103 131 117 147 26 31 140 172 154 190 4 6 17 23
30 39 23 30 28 46 14 46 -5 0 -40 -39 -79 -87z"/>
<path d="M4025 8915 c-132 -134 -241 -249 -243 -255 -12 -35 45 17 261 236
133 135 244 250 245 255 14 38 -55 -24 -263 -236z"/>
<path d="M4965 9006 c-27 -19 -169 -108 -315 -198 -146 -90 -336 -208 -423
-262 -101 -63 -155 -102 -149 -108 6 -6 87 38 223 122 236 146 281 174 321
202 15 10 29 18 32 18 3 0 39 21 80 48 123 78 219 137 263 163 24 13 45 30 48
37 8 22 -29 12 -80 -22z"/>
<path d="M1052 9020 c2 -5 68 -77 148 -160 80 -83 170 -179 201 -212 38 -41
59 -57 64 -48 7 12 -1 22 -143 169 -41 42 -112 118 -159 169 -48 50 -93 92
-100 92 -8 0 -13 -4 -11 -10z"/>
<path d="M2540 8954 c-14 -2 -65 -11 -115 -20 -137 -23 -199 -41 -327 -90
-428 -167 -770 -538 -878 -954 -24 -90 -50 -281 -50 -362 0 -49 -3 -58 -18
-58 -27 0 -166 -56 -256 -103 -289 -150 -504 -421 -600 -754 -43 -149 -64
-286 -72 -476 -6 -125 -5 -147 7 -147 10 0 25 30 43 86 33 101 111 259 181
364 63 96 240 274 330 332 135 86 323 154 472 171 l53 6 27 -47 c86 -150 246
-343 331 -399 12 -9 22 -18 22 -22 0 -4 -44 -3 -97 1 -294 24 -539 -47 -771
-222 -188 -142 -358 -370 -482 -647 -52 -118 -77 -190 -67 -199 3 -4 41 30 83
75 147 156 354 288 555 355 177 59 253 71 449 70 151 0 193 -4 303 -27 114
-24 161 -38 310 -93 62 -23 281 -130 302 -148 19 -17 19 -17 -20 -11 -318 47
-528 61 -722 46 -202 -16 -409 -65 -554 -130 -253 -116 -442 -322 -529 -580
-63 -188 -86 -477 -56 -710 8 -68 17 -126 20 -128 8 -8 26 8 26 23 0 36 84
264 140 378 105 213 267 419 420 533 283 212 661 281 1053 195 79 -17 101 -32
48 -32 -58 0 -247 -42 -351 -77 -348 -118 -596 -314 -769 -608 -26 -44 -57
-105 -68 -135 -58 -155 -87 -420 -64 -581 15 -101 59 -241 75 -236 7 2 13 47
17 113 3 60 9 125 13 144 68 342 241 580 525 724 85 44 290 105 351 106 8 0
-10 -16 -40 -37 -94 -62 -149 -113 -209 -192 -57 -74 -133 -200 -146 -239 -9
-31 10 -35 42 -9 106 86 125 69 31 -29 -42 -43 -88 -95 -104 -114 -16 -19 -31
-37 -34 -40 -16 -14 -84 -117 -120 -181 -108 -190 -157 -366 -167 -592 -7
-171 12 -306 68 -472 21 -61 107 -246 119 -255 4 -3 13 -16 20 -30 7 -14 26
-42 42 -62 l30 -38 -129 0 c-219 0 -390 -41 -541 -129 -244 -143 -392 -373
-423 -660 -14 -122 -2 -255 26 -298 37 -55 202 -109 365 -119 232 -14 595 58
790 156 161 81 309 234 373 384 25 61 29 62 41 11 16 -66 100 -206 146 -242
21 -16 9 -25 -89 -64 -213 -84 -428 -259 -548 -446 -19 -30 -42 -57 -51 -60
-138 -44 -322 -128 -469 -214 -237 -140 -505 -388 -678 -629 -22 -30 -43 -56
-47 -58 -15 -7 -8 -22 10 -22 9 1 29 20 44 43 97 152 326 390 493 513 22 16
42 31 45 34 27 29 291 182 365 212 22 9 77 32 123 52 46 19 141 49 213 67 123
31 161 49 102 49 -16 0 -52 -7 -80 -14 -29 -8 -55 -11 -57 -7 -3 4 23 43 58
87 144 182 339 321 551 392 141 48 236 63 418 69 121 4 165 9 157 17 -7 7 -66
10 -165 9 -85 -1 -155 2 -155 6 0 9 141 138 182 166 53 36 179 100 236 120 49
18 55 18 97 3 37 -14 51 -15 92 -5 67 17 91 12 148 -32 43 -32 50 -42 47 -67
-15 -140 -14 -143 11 -189 l25 -44 -20 -26 c-11 -15 -18 -36 -16 -52 3 -24 8
-29 37 -31 19 -2 66 3 105 12 39 8 107 17 151 20 109 7 210 48 259 106 33 40
33 52 -3 93 -42 47 -47 77 -19 104 13 13 42 26 63 31 37 8 49 4 151 -50 61
-32 135 -66 165 -77 72 -25 216 -45 273 -39 40 5 60 14 111 52 9 6 27 -1 56
-22 24 -18 52 -32 62 -32 17 0 19 6 15 48 -7 64 -37 162 -51 167 -7 2 -28 6
-47 9 -35 6 -36 7 -47 71 -18 102 -53 169 -105 197 -61 33 -166 31 -270 -5
-89 -31 -140 -34 -215 -10 -63 20 -89 45 -98 94 l-7 36 64 12 c34 7 160 37
278 67 311 79 347 84 549 84 236 0 288 -14 390 -106 59 -53 120 -131 175 -222
37 -61 56 -77 56 -47 0 42 -216 313 -260 327 -40 13 15 23 143 26 166 5 202
-4 334 -85 52 -32 108 -57 152 -68 83 -20 115 -50 155 -145 32 -76 48 -95 97
-120 44 -23 232 -60 302 -60 52 0 54 -1 90 -50 21 -27 44 -50 52 -50 23 0 38
49 31 100 -3 25 -7 77 -10 115 -2 39 -7 87 -11 108 -6 33 -5 37 12 37 11 0 40
3 65 6 l44 6 13 -42 c27 -90 97 -176 218 -266 40 -30 75 -54 79 -54 4 0 21
-10 38 -23 17 -13 63 -43 101 -67 107 -66 178 -129 226 -198 24 -36 46 -59 51
-54 40 40 55 313 25 448 -24 107 -80 246 -127 319 -96 147 -240 235 -386 235
-47 0 -55 3 -74 30 l-22 30 49 22 c198 87 339 250 395 456 28 101 30 315 5
450 -20 106 -81 298 -124 387 -34 71 -47 75 -163 51 -289 -61 -644 -349 -739
-601 -13 -33 -27 -70 -31 -82 -5 -11 -14 -57 -21 -102 -7 -45 -15 -81 -19 -81
-4 0 -17 12 -31 26 -94 101 -281 214 -380 229 l-45 7 -42 86 c-48 98 -72 178
-71 237 0 38 4 43 66 90 146 109 295 259 410 409 41 55 77 106 80 113 3 8 32
27 64 43 91 46 182 138 228 230 50 101 65 188 59 348 -6 142 -7 142 68 14 42
-72 63 -87 89 -69 12 9 19 32 22 79 5 55 1 79 -21 143 -15 43 -34 92 -43 109
-17 34 -106 168 -168 256 -105 148 -136 198 -155 247 -28 74 -26 126 5 167 37
48 65 118 73 182 l7 56 35 -48 c77 -108 178 -195 259 -222 106 -37 231 28 231
118 0 80 -82 192 -265 360 -63 58 -128 123 -146 145 -34 43 -83 141 -94 189
-6 28 -5 29 27 22 18 -4 68 -11 110 -17 157 -20 318 -89 318 -136 0 -7 6 -13
14 -13 38 0 27 161 -20 287 -23 61 -76 154 -107 184 -14 15 -10 17 49 22 79 8
159 47 191 96 40 59 27 147 -26 187 -11 9 -4 16 40 36 191 88 288 243 245 390
-34 119 -105 178 -222 186 -41 2 -74 7 -74 10 0 3 11 24 24 47 30 50 63 153
71 220 9 77 -10 178 -48 259 -65 133 -162 204 -307 226 -212 31 -441 -141
-522 -393 -17 -53 -25 -66 -38 -61 -30 14 -158 16 -195 4 -53 -18 -101 -64
-122 -118 -24 -62 -24 -236 1 -301 l16 -44 -64 -68 c-111 -117 -232 -320 -286
-479 -5 -14 -22 -63 -39 -110 -18 -47 -56 -159 -87 -250 -89 -266 -180 -480
-247 -584 -97 -153 -199 -245 -322 -291 -32 -12 -83 -20 -139 -22 -49 -1 -91
-5 -94 -7 -2 -3 4 -13 13 -23 17 -16 16 -18 -11 -25 -16 -4 -101 -11 -189 -14
-148 -6 -161 -5 -180 13 -11 10 -31 27 -45 36 -25 18 -24 18 49 16 48 -2 76 2
79 9 5 17 -100 116 -156 145 -28 15 -69 29 -91 33 -32 5 -45 14 -62 41 -75
121 -290 56 -370 -114 -13 -29 -27 -52 -30 -53 -15 -1 -31 94 -36 215 l-5 131
43 14 c80 25 264 116 350 173 602 397 808 1138 489 1761 -85 167 -194 302
-352 437 -192 165 -455 289 -720 340 -99 19 -398 34 -458 23z m350 -34 c334
-41 651 -189 875 -407 139 -136 205 -223 279 -370 111 -219 141 -344 141 -598
0 -252 -25 -364 -130 -581 -69 -142 -152 -255 -278 -378 -90 -88 -277 -226
-305 -226 -6 0 -12 -3 -14 -7 -5 -13 -152 -81 -220 -103 -47 -14 -58 -8 -58
35 0 42 -34 186 -67 285 -142 423 -537 782 -990 899 -294 75 -580 87 -835 33
l-88 -18 0 80 c0 295 128 620 334 851 89 100 79 90 158 157 221 186 516 315
793 346 113 13 306 14 405 2z m3514 -436 c182 -46 300 -230 282 -441 -6 -79
-36 -168 -75 -227 -47 -70 -56 -85 -51 -89 3 -3 34 0 68 6 91 15 158 -7 209
-69 21 -25 43 -59 50 -77 15 -43 16 -139 1 -174 -35 -81 -147 -176 -264 -224
-30 -13 -54 -26 -54 -30 0 -4 11 -14 24 -22 47 -31 56 -47 56 -98 0 -44 -4
-53 -39 -88 -22 -22 -57 -44 -78 -50 -43 -12 -172 -14 -189 -3 -6 4 -14 53
-17 112 -10 185 -75 332 -203 466 -85 87 -197 166 -263 184 -32 8 -40 44 -40
180 -2 273 121 515 308 610 103 52 172 60 275 34z m-618 -444 c24 -9 24 -12
17 -62 -4 -29 -8 -108 -7 -174 l0 -122 -80 -4 c-63 -4 -93 -11 -135 -32 -43
-22 -55 -25 -62 -14 -33 53 -37 267 -6 323 30 54 46 68 99 87 54 19 120 18
174 -2z m114 -427 c125 -61 273 -210 333 -338 49 -102 61 -156 62 -260 l0
-100 -46 -6 c-26 -4 -77 -21 -115 -39 -102 -47 -142 -60 -190 -60 -42 0 -59
-15 -30 -26 28 -11 140 18 220 56 108 51 151 58 203 32 96 -49 185 -221 199
-383 l6 -74 -25 35 c-14 19 -36 44 -49 55 -74 66 -240 163 -332 195 -55 18
-68 34 -36 43 23 6 27 27 5 27 -27 0 -94 -39 -105 -61 -15 -28 -5 -36 19 -15
18 16 23 15 107 -20 108 -44 191 -89 263 -143 52 -39 61 -53 21 -31 -33 17
-133 40 -223 50 -104 12 -199 42 -245 76 -32 25 -72 90 -72 119 0 17 -16 20
-25 5 -8 -13 32 -105 56 -126 34 -31 23 -37 -58 -30 -99 9 -169 29 -217 61
-41 28 -68 24 -41 -5 19 -21 135 -70 165 -70 16 0 20 -7 20 -33 0 -56 -28
-144 -75 -235 -76 -145 -94 -311 -50 -451 33 -106 153 -193 243 -175 28 6 29
5 35 -43 10 -88 60 -178 203 -370 76 -101 158 -240 181 -306 20 -54 29 -179
15 -203 -9 -17 -12 -15 -29 15 -22 41 -100 157 -130 195 -33 41 -43 24 -25
-42 11 -39 16 -100 16 -192 0 -114 -3 -146 -22 -204 -43 -129 -140 -246 -247
-297 -55 -27 -95 -37 -95 -24 0 3 7 16 15 28 28 44 55 176 55 273 0 51 -4 95
-9 98 -5 3 -21 -13 -37 -37 -141 -214 -343 -271 -590 -167 -38 16 -68 32 -67
37 1 4 22 11 46 14 60 9 154 59 205 109 51 50 53 65 10 56 -18 -4 -85 -9 -149
-13 -124 -6 -190 3 -264 37 -67 30 -190 161 -127 135 82 -34 228 -46 291 -24
44 15 39 27 -16 35 -118 17 -295 108 -411 211 l-44 38 94 1 c66 1 107 7 143
20 78 30 67 40 -65 64 -127 23 -250 86 -346 177 -42 41 -114 132 -114 145 0 3
32 5 71 5 51 1 82 8 112 23 39 21 77 55 77 70 0 3 -33 16 -72 27 -80 24 -163
71 -260 148 l-63 50 85 7 c116 10 207 55 305 152 82 81 134 155 194 275 46 91
125 286 161 396 12 39 31 93 41 120 9 28 25 75 34 105 49 158 139 372 197 468
21 34 38 65 38 68 0 8 84 115 117 149 105 106 175 137 303 132 71 -3 96 -9
150 -34z m-3985 -127 c303 -48 521 -141 737 -315 183 -147 337 -351 412 -546
65 -167 85 -270 96 -490 10 -198 23 -258 70 -341 17 -31 30 -57 28 -59 -2 -1
-25 -7 -52 -14 -67 -17 -155 -62 -220 -116 -43 -34 -64 -45 -91 -45 -19 0 -35
4 -35 8 0 16 71 91 122 128 31 23 80 46 127 60 41 12 77 26 79 32 5 17 -63 27
-163 26 -150 -3 -299 -55 -420 -147 -107 -81 -244 -246 -305 -367 -30 -60 -40
-72 -54 -62 -11 9 -140 41 -246 61 -108 21 -277 30 -388 21 -414 -33 -734
-238 -972 -620 -58 -92 -136 -252 -165 -340 -11 -30 -23 -59 -27 -64 -4 -6 -8
-20 -8 -32 0 -13 -4 -25 -9 -28 -23 -15 -28 343 -6 504 31 230 135 452 277
591 181 176 453 286 793 320 202 20 568 -3 795 -51 52 -11 101 -20 108 -20 86
-1 -281 193 -520 274 -330 113 -669 120 -966 20 -104 -35 -214 -88 -312 -152
-88 -57 -250 -188 -250 -202 0 -4 -6 -10 -14 -13 -35 -14 119 297 211 425 69
95 213 250 284 305 179 137 367 209 580 220 275 14 586 -56 839 -189 82 -43
235 -139 250 -157 3 -3 28 -24 55 -46 65 -52 153 -139 194 -192 36 -47 51 -54
51 -23 0 66 -117 285 -232 435 -317 413 -686 648 -1078 687 -255 25 -527 -48
-746 -198 -95 -65 -241 -217 -314 -325 -49 -74 -147 -259 -173 -329 -10 -26
-7 75 4 182 21 193 70 369 148 528 188 380 548 615 1027 670 109 12 359 5 479
-14z m-319 -556 c132 -27 210 -54 324 -113 171 -88 289 -177 446 -339 99 -102
244 -284 244 -306 0 -14 -15 -15 -97 -3 -46 7 -77 20 -124 51 -74 49 -259 140
-344 169 -33 11 -113 34 -178 50 -132 33 -154 47 -278 173 -96 96 -215 258
-233 316 -7 21 -5 22 67 22 41 0 119 -9 173 -20z m4424 -375 c17 -9 30 -24 30
-33 0 -26 42 -130 72 -177 14 -22 61 -74 104 -115 258 -245 324 -329 324 -412
0 -29 -7 -42 -35 -67 -31 -27 -43 -31 -93 -31 -81 1 -132 28 -222 118 -82 83
-150 190 -150 238 0 16 -9 74 -19 129 -10 55 -22 126 -26 158 -3 31 -11 57
-17 57 -13 0 -5 -112 16 -224 26 -137 29 -224 12 -304 -32 -155 -112 -214
-221 -163 -94 44 -133 117 -142 266 -7 124 8 191 71 320 64 129 66 136 67 203
l2 52 99 0 c69 0 108 -5 128 -15z m-2436 -520 c33 -31 33 -45 -1 -45 -72 0
-208 -94 -265 -183 l-32 -50 -19 24 c-51 64 59 232 178 270 11 4 41 7 66 8 36
1 52 -4 73 -24z m168 -98 c31 -15 76 -45 99 -67 l44 -39 -56 -1 c-74 0 -119
-10 -119 -24 0 -7 23 -23 51 -35 27 -13 48 -25 46 -27 -2 -2 -64 1 -137 7 -74
6 -185 9 -247 7 -62 -2 -113 -2 -113 1 0 3 17 29 38 56 39 53 141 128 195 145
54 16 139 6 199 -23z m-729 -187 c-88 -46 -118 -72 -170 -147 -22 -32 -52 -61
-77 -74 -84 -43 -125 -104 -133 -200 -19 -202 167 -464 492 -695 146 -104 255
-168 267 -156 8 8 4 14 -15 23 -15 7 -27 16 -27 21 0 4 -5 8 -10 8 -17 0 -137
78 -239 154 -285 213 -440 432 -441 619 0 137 89 227 224 227 52 0 159 -31
170 -49 3 -4 0 -25 -5 -46 -14 -51 1 -101 56 -185 38 -59 158 -183 242 -252
30 -24 31 -29 22 -60 -15 -54 4 -113 55 -173 14 -16 26 -33 26 -36 0 -11 133
-112 212 -161 77 -47 159 -88 179 -88 24 0 4 18 -48 44 -91 44 -243 148 -297
201 -64 65 -94 112 -101 160 -7 49 9 81 55 113 31 21 44 23 111 20 66 -4 85
-10 145 -44 87 -49 84 -48 84 -32 0 16 -59 57 -120 84 -77 33 -202 25 -262
-18 -14 -10 -26 -4 -74 38 -234 198 -323 372 -221 434 56 35 174 23 291 -29
124 -54 331 -185 497 -313 42 -32 79 -58 82 -58 4 0 7 7 7 15 0 8 -3 15 -8 15
-4 0 -19 11 -34 25 -86 79 -317 230 -476 309 -170 86 -260 104 -348 70 -39
-15 -44 -15 -87 5 -25 12 -51 21 -57 21 -53 0 93 115 182 144 120 39 204 48
366 42 407 -15 601 -17 672 -8 l74 11 51 -39 c72 -55 150 -99 229 -130 l68
-26 -25 -17 c-40 -26 -113 -40 -178 -34 -72 6 -74 -2 -24 -78 98 -147 292
-277 449 -300 25 -4 46 -11 46 -15 0 -23 -155 -26 -215 -5 -50 18 -55 18 -55
1 0 -17 86 -98 170 -161 70 -51 232 -135 262 -135 10 0 18 -5 18 -11 0 -26
-124 3 -247 58 -33 14 -1 -71 45 -122 92 -103 208 -141 395 -132 l119 6 -39
-31 c-63 -51 -120 -72 -203 -74 -53 -2 -75 -7 -75 -16 0 -19 171 -101 251
-121 121 -29 223 -19 323 32 42 22 137 110 174 161 17 25 17 23 11 -65 -6 -95
-38 -204 -73 -254 -29 -40 -27 -52 9 -44 17 3 30 3 30 -1 0 -13 -75 -114 -151
-202 -347 -405 -868 -689 -1410 -768 -160 -24 -149 -28 -149 52 0 68 17 119
46 135 18 10 18 27 1 27 -22 0 -54 -42 -68 -88 -10 -33 -10 -62 -1 -135 7 -50
15 -103 19 -117 l7 -25 -28 18 c-15 10 -30 16 -34 13 -3 -4 -5 -48 -4 -99 2
-78 0 -97 -18 -125 -32 -52 -54 -40 -58 31 -2 31 -6 57 -10 57 -4 0 -23 -18
-42 -41 -42 -52 -98 -87 -149 -95 l-40 -6 2 41 c2 65 -14 70 -71 22 -28 -22
-53 -41 -56 -41 -13 0 -5 20 19 48 34 40 17 48 -37 17 -55 -31 -79 -31 -108 0
-26 28 -22 42 8 26 12 -6 25 -11 31 -11 21 0 10 15 -32 43 -54 37 -97 96 -127
172 -34 88 -40 305 -12 423 17 75 18 83 3 80 -24 -5 -49 -141 -50 -271 l-1
-109 -47 28 c-108 62 -173 113 -275 215 -117 117 -167 188 -258 367 -73 142
-148 230 -256 298 -69 44 -73 49 -52 57 13 5 65 7 116 4 69 -3 92 -1 92 8 0
17 -91 59 -160 74 -96 22 -99 23 -70 32 14 4 60 7 103 8 93 1 97 13 19 52 -51
25 -102 39 -207 57 l-50 8 53 12 c29 7 89 12 132 12 94 0 102 11 37 52 -60 38
-128 98 -122 108 7 11 69 -6 127 -36 46 -23 78 -31 78 -18 0 4 -20 24 -44 45
-61 54 -105 126 -112 185 -4 27 -4 47 -2 44 3 -3 28 -32 54 -66 59 -73 116
-124 139 -124 9 0 15 3 13 8 -2 4 -16 31 -31 60 -35 67 -30 78 9 17 15 -25 33
-44 39 -42 5 2 13 37 17 78 7 73 37 170 54 176 5 2 20 -25 34 -59 25 -67 83
-184 126 -257 29 -51 104 -163 113 -171 4 -3 30 -34 58 -70 200 -254 491 -440
818 -522 127 -32 391 -32 508 0 276 76 447 251 447 459 0 51 -9 89 -50 199
-85 230 -130 410 -130 525 0 39 -3 49 -16 49 -15 0 -16 -10 -10 -87 11 -126
58 -300 150 -553 24 -64 27 -86 24 -155 -5 -105 -32 -161 -119 -247 -215 -213
-625 -251 -1017 -94 -53 21 -226 114 -257 138 -197 151 -326 285 -437 453 -71
107 -173 299 -193 364 -4 13 -14 40 -22 58 -12 29 -16 33 -29 22 -25 -21 -45
-67 -69 -163 l-23 -91 -48 100 c-45 94 -48 105 -52 200 -3 84 -1 110 18 164
11 35 33 79 46 97 44 57 16 64 -81 19 -28 -12 -73 -37 -100 -54 -27 -17 -50
-29 -52 -27 -2 2 11 28 28 57 129 212 293 363 459 425 75 27 151 42 228 43
l73 1 -78 -40z m-515 -432 c-8 -13 -23 -45 -34 -73 -35 -91 -22 -309 27 -452
10 -29 17 -53 15 -53 -7 0 -106 129 -121 159 -17 33 -18 34 -31 16 -29 -39
-12 -136 36 -214 16 -25 28 -47 26 -48 -2 -3 -21 2 -171 44 -265 73 -658 0
-910 -170 -243 -164 -390 -428 -431 -772 l-7 -60 -14 50 c-24 81 -28 322 -9
443 32 200 88 324 230 507 68 87 245 243 336 294 240 136 485 209 753 224 39
2 47 -1 47 -15 0 -25 5 -23 69 27 55 43 176 114 195 115 4 0 2 -10 -6 -22z
m-342 -629 c83 -15 123 -30 130 -51 6 -21 104 -108 121 -108 7 0 13 -4 13 -9
0 -5 -30 -12 -67 -16 -119 -12 -193 -38 -193 -69 0 -10 26 -15 98 -19 94 -5
211 -32 198 -45 -4 -3 -29 -7 -57 -9 -58 -3 -144 -37 -134 -53 3 -5 15 -10 27
-10 11 0 62 -10 112 -22 l91 -22 -78 -8 c-69 -8 -81 -6 -105 11 -87 61 -267
111 -403 111 -132 0 -226 -21 -337 -76 -52 -25 -95 -44 -97 -42 -11 11 126
200 193 267 148 148 306 203 488 170z m-61 -370 c111 -28 224 -85 218 -109 -3
-13 2 -20 19 -25 47 -15 159 -98 218 -162 62 -68 65 -74 132 -208 119 -239
303 -437 520 -557 64 -36 78 -48 83 -73 8 -39 37 -119 46 -125 3 -3 14 -20 23
-38 9 -18 25 -38 36 -45 14 -8 20 -23 20 -46 0 -40 32 -81 63 -81 19 0 19 -5
15 -82 -5 -66 -58 -290 -73 -306 -1 -2 -31 17 -66 41 -247 173 -533 254 -796
227 -103 -11 -247 -42 -286 -62 -25 -13 -34 -2 -15 19 25 30 66 135 79 201 18
97 7 277 -25 387 -46 155 -165 377 -290 540 -111 146 -320 368 -398 425 -28
21 -35 30 -25 38 16 13 129 49 192 61 69 14 214 4 310 -20z m-384 -201 c135
-133 198 -203 285 -318 230 -304 352 -637 315 -859 -16 -98 -43 -176 -86 -248
-28 -48 -45 -64 -89 -85 -98 -48 -196 -132 -250 -212 l-26 -39 0 76 c0 75 0
77 28 83 141 31 236 109 276 227 18 54 21 97 6 97 -5 0 -12 -12 -16 -27 -21
-101 -60 -166 -127 -212 -35 -24 -131 -61 -157 -61 -4 0 -10 39 -13 88 -8 114
-31 222 -73 344 -19 54 -34 105 -34 114 0 9 13 44 29 78 37 78 69 192 77 276
8 80 -10 180 -32 180 -12 0 -13 -6 -7 -22 4 -13 8 -72 7 -133 0 -114 -12 -163
-65 -280 l-22 -50 -13 55 c-21 86 -53 328 -59 442 -8 139 -14 188 -26 188 -14
0 -11 -128 6 -274 8 -71 13 -131 11 -133 -17 -18 -125 95 -164 172 -14 27 -33
75 -42 105 -20 62 -47 84 -35 29 28 -127 120 -268 220 -336 28 -19 31 -29 52
-146 13 -69 45 -194 73 -278 45 -138 60 -209 45 -209 -15 0 -89 44 -120 72
-75 66 -162 199 -194 301 -12 35 -21 44 -33 31 -9 -8 29 -100 75 -184 53 -98
153 -198 230 -230 54 -23 57 -25 63 -69 13 -81 9 -342 -5 -393 -8 -27 -17 -48
-21 -48 -4 0 -18 8 -31 19 -63 49 -195 100 -311 121 -35 7 -69 17 -76 23 -17
13 -88 121 -130 197 -43 78 -87 192 -119 312 -25 94 -27 119 -27 293 -1 199 6
252 56 405 41 128 141 310 228 415 58 69 194 215 200 215 3 0 58 -51 121 -112z
m5077 -366 c81 -182 122 -353 129 -547 5 -124 3 -151 -17 -230 -32 -128 -72
-205 -152 -290 -67 -71 -142 -126 -241 -174 l-48 -23 -39 36 c-92 83 -172 97
-273 46 -54 -28 -202 -68 -213 -58 -14 14 101 267 153 336 l25 33 22 -19 c61
-57 198 -89 308 -73 75 11 210 60 216 80 5 16 1 15 -108 -26 -64 -24 -90 -28
-176 -28 -94 0 -104 2 -168 35 -38 19 -70 40 -73 47 -4 11 53 87 114 151 6 6
30 12 54 12 74 0 241 31 319 60 93 35 170 71 170 82 0 15 -28 8 -104 -27 -91
-41 -215 -74 -308 -82 -68 -6 -79 -2 -55 20 23 23 152 102 210 130 31 15 57
32 57 37 0 16 -13 12 -106 -34 -95 -46 -162 -93 -231 -159 -24 -22 -45 -38
-48 -35 -3 3 8 56 24 119 27 109 79 230 124 291 21 29 18 45 -6 35 -21 -8
-113 -199 -136 -282 -11 -38 -25 -101 -32 -140 -8 -49 -19 -81 -38 -105 -43
-56 -93 -131 -122 -184 l-27 -50 -8 38 c-10 57 1 205 21 256 26 71 28 80 16
80 -18 0 -39 -54 -57 -144 -14 -72 -16 -104 -8 -179 10 -91 10 -93 -25 -189
-20 -54 -41 -98 -48 -98 -20 0 -28 86 -27 285 1 153 5 208 22 282 41 179 92
277 213 407 174 187 457 343 625 345 l41 1 31 -68z m-1548 -243 c0 -49 29
-130 83 -232 25 -47 43 -88 39 -91 -3 -4 -18 6 -33 20 -15 14 -32 23 -37 20
-6 -4 -8 -38 -5 -86 6 -83 -6 -130 -33 -130 -23 0 -44 43 -44 88 0 55 -23 53
-31 -4 -12 -90 -56 -115 -61 -36 l-4 47 -16 -35 c-25 -53 -52 -74 -77 -61 -30
16 -42 45 -34 82 l6 32 -52 -6 c-58 -7 -151 7 -196 30 -41 21 -113 80 -125
103 -9 16 -2 21 58 41 149 49 394 171 506 251 45 32 56 26 56 -33z m-519 -377
c75 -34 110 -42 178 -42 81 0 76 -6 -59 -81 -296 -162 -340 -189 -340 -209 0
-19 39 -75 150 -217 165 -211 200 -263 163 -248 -70 27 -166 37 -333 32 -183
-5 -253 -16 -450 -68 -171 -46 -358 -89 -384 -89 -29 0 -36 33 -36 181 0 111
19 241 47 319 22 60 31 70 62 70 36 0 121 42 150 74 31 33 38 33 46 -3 10 -49
31 -58 73 -36 44 25 60 66 61 158 l1 67 26 -6 27 -7 -5 66 -4 66 61 6 c70 8
310 58 374 78 l43 13 53 -52 c29 -29 72 -62 96 -72z m745 53 c97 -29 184 -85
291 -188 l71 -69 -1 -134 -1 -134 -65 63 c-36 35 -80 72 -97 82 -30 17 -32 22
-36 90 -3 40 -10 79 -17 86 -6 8 -20 26 -31 41 -22 28 -150 118 -169 118 -25
0 -7 -21 47 -54 83 -50 129 -102 141 -158 13 -59 6 -82 -23 -73 -78 25 -129
36 -185 39 -62 5 -64 6 -92 47 l-28 43 22 24 c18 19 22 37 24 94 2 78 4 85 23
63 20 -25 50 -19 50 10 0 29 9 30 76 10z m-489 -175 c26 -32 78 -41 100 -19
16 16 43 -5 75 -56 38 -62 44 -85 21 -85 -10 0 -72 -7 -138 -15 -66 -8 -175
-15 -242 -15 -121 0 -161 -12 -86 -26 40 -7 263 2 356 15 34 4 57 4 57 -2 0
-5 -28 -37 -63 -72 -48 -48 -75 -67 -112 -78 -58 -16 -77 -43 -24 -32 19 3 49
13 68 22 34 15 118 94 156 145 33 44 56 40 82 -14 30 -63 61 -155 69 -208 l7
-43 -53 7 c-29 4 -87 23 -129 43 -94 44 -148 52 -185 28 -37 -25 -74 -101 -83
-174 l-8 -62 -100 132 c-189 249 -215 284 -215 294 0 10 14 19 130 83 36 20
115 64 175 99 61 34 111 62 113 63 2 0 15 -13 29 -30z m318 -113 c125 -196
239 -365 268 -395 17 -18 50 -41 73 -52 l42 -21 113 25 c63 13 155 32 204 41
50 9 118 29 153 46 71 33 136 38 185 12 18 -9 60 -43 94 -76 50 -48 65 -70 78
-113 17 -58 13 -91 -17 -141 -25 -42 -84 -69 -192 -88 -109 -19 -106 -19 -106
1 0 22 -47 114 -73 142 -31 33 -73 41 -168 29 l-84 -10 -76 41 c-42 23 -86 42
-99 42 -33 0 -20 -11 84 -65 l88 -46 87 12 c113 16 147 2 185 -74 58 -119 84
-290 49 -329 -20 -22 -46 -22 -193 -3 -144 19 -224 41 -253 71 -13 13 -35 51
-48 86 -36 93 -77 131 -177 161 -46 14 -116 46 -155 70 -40 25 -94 53 -122 62
-60 21 -227 30 -307 17 l-58 -9 0 26 c1 59 30 165 56 198 25 33 30 35 73 31
26 -3 76 -19 112 -37 45 -22 88 -35 135 -39 61 -6 69 -9 72 -29 5 -34 22 -28
22 8 0 75 -46 213 -126 376 -53 107 -54 113 -39 136 l16 24 27 -26 c16 -14 50
-61 77 -104z m-1643 -134 c-62 -146 -81 -287 -63 -474 6 -65 14 -130 17 -146
l6 -30 -55 5 c-63 5 -127 -12 -127 -35 0 -10 5 -13 18 -8 79 33 115 29 206
-20 34 -18 76 -36 94 -40 31 -6 32 -8 33 -58 2 -68 12 -113 24 -107 6 3 8 34
6 72 -3 66 -2 68 24 78 42 16 44 13 24 -31 -26 -53 -38 -144 -18 -137 8 3 17
25 21 52 16 112 81 166 211 173 84 5 142 -12 169 -48 47 -63 88 -274 68 -350
-12 -45 -41 -59 -125 -59 -122 0 -209 24 -360 100 -77 38 -153 70 -168 70 -45
0 -95 -27 -117 -62 -23 -38 -19 -58 22 -109 37 -47 32 -65 -29 -106 -61 -40
-140 -63 -219 -63 -54 0 -64 3 -77 24 -20 30 -80 58 -115 54 -23 -3 -30 3 -50
42 -29 55 -25 96 15 177 33 68 93 114 181 139 89 26 149 1 199 -83 25 -42 59
-61 46 -25 -11 31 -76 104 -111 125 l-35 21 27 22 c21 19 31 21 53 13 39 -14
55 -27 91 -78 24 -34 33 -40 38 -27 8 20 -45 87 -90 115 -46 29 -78 26 -115
-8 -18 -17 -52 -34 -81 -41 -94 -23 -197 -86 -212 -130 -4 -12 -12 -9 -39 14
-70 60 -141 78 -209 55 -28 -10 -38 -9 -66 6 -31 17 -33 21 -28 55 5 27 2 41
-12 54 -21 22 -14 47 36 124 34 52 64 72 103 72 22 -1 212 -62 222 -72 4 -3
-14 -37 -39 -76 -49 -75 -55 -92 -31 -92 8 0 15 5 15 10 0 19 91 150 104 150
22 0 26 -12 11 -34 -16 -22 -21 -96 -6 -96 5 0 12 19 15 43 8 51 30 79 76 98
44 17 71 48 111 129 90 183 165 425 176 568 6 71 16 91 26 52 8 -32 56 -26 97
14 34 32 35 33 38 10 2 -12 -10 -53 -26 -91z m1823 93 c62 -13 130 -45 202
-93 l42 -29 -19 -31 c-27 -45 -78 -80 -134 -93 -27 -6 -49 -9 -50 -8 -1 2 -39
60 -84 130 -45 70 -82 130 -82 133 0 9 63 5 125 -9z m-2560 -181 c69 -17 151
-47 220 -80 126 -61 265 -150 265 -170 0 -19 -65 -171 -104 -240 -18 -33 -44
-66 -57 -72 -43 -23 -120 -15 -225 22 -64 22 -118 35 -151 35 -48 0 -57 -4
-91 -38 -34 -34 -92 -134 -92 -159 0 -6 -20 -14 -44 -17 -50 -8 -68 -24 -68
-61 0 -38 7 -40 62 -23 42 14 51 14 61 2 9 -11 5 -16 -17 -24 -55 -20 -110
-45 -180 -82 l-72 -38 -78 20 c-116 30 -211 69 -299 124 -89 56 -113 74 -143
106 -50 53 -72 102 -72 162 0 49 3 55 35 77 53 36 154 69 249 81 47 7 91 10
97 8 7 -2 14 -30 16 -63 6 -86 29 -172 64 -235 30 -54 95 -130 111 -130 17 0
6 23 -27 58 -70 73 -125 221 -125 341 l0 33 58 -6 c31 -4 80 -11 108 -17 l51
-10 28 -72 c30 -78 79 -161 114 -191 25 -23 39 -14 20 13 -60 82 -79 114 -102
171 -14 36 -23 66 -18 68 4 1 43 -9 86 -23 44 -14 83 -25 87 -25 17 0 7 21
-14 29 -36 13 105 24 265 20 99 -3 137 -1 137 8 0 16 -76 19 -301 12 -185 -6
-244 -1 -349 28 -10 3 -5 13 21 36 65 59 153 95 263 105 46 5 71 12 74 21 6
19 -127 7 -202 -19 -55 -18 -160 -83 -185 -114 -11 -13 -37 -16 -147 -16 -154
0 -253 -17 -337 -59 -31 -16 -59 -25 -62 -21 -12 20 69 148 130 206 140 135
275 196 545 248 14 2 84 3 155 1 100 -2 155 -9 240 -30z m2920 -114 c4 -29 3
-57 -2 -61 -4 -4 -40 -15 -79 -25 -88 -22 -113 -15 -176 53 l-42 46 37 8 c50
10 107 48 141 93 l28 37 43 -49 c35 -39 44 -58 50 -102z m864 -202 c93 -32
165 -91 234 -193 109 -161 168 -428 137 -625 -7 -44 -15 -81 -19 -80 -3 0 -23
22 -44 49 -47 62 -117 118 -253 200 -58 36 -111 70 -117 75 -7 6 -32 25 -57
42 -102 70 -197 189 -207 260 -5 38 -5 38 39 50 56 15 105 64 121 121 l13 44
77 -101 c77 -100 77 -100 77 -163 1 -72 17 -253 26 -280 3 -10 12 -18 21 -18
11 0 13 5 8 18 -11 24 -24 144 -24 227 l-1 70 20 -25 c43 -53 174 -256 209
-321 20 -38 42 -69 49 -69 17 0 17 0 -29 87 -50 94 -155 253 -246 372 -23 30
-40 57 -38 59 7 8 150 -104 196 -152 38 -42 69 -58 69 -38 0 23 -176 172 -282
239 -48 30 -147 146 -148 172 0 18 93 7 169 -20z m-5244 -15 c92 -16 180 -48
257 -93 85 -50 88 -53 88 -106 0 -40 -3 -47 -18 -43 -9 3 -46 1 -82 -3 -55 -7
-69 -5 -90 10 -118 85 -286 112 -443 72 -77 -20 -150 -52 -162 -72 -15 -22 7
-21 57 4 85 42 164 60 259 59 91 0 143 -14 232 -58 l52 -27 -51 -22 c-62 -27
-149 -83 -187 -120 l-27 -26 -65 26 c-96 38 -198 43 -305 16 -87 -23 -200 -68
-200 -81 0 -18 17 -17 60 5 115 58 278 81 388 53 48 -12 92 -34 92 -48 0 -4
-46 -54 -102 -112 -98 -100 -169 -155 -248 -191 -45 -21 -171 -54 -237 -62
-48 -6 -73 -19 -61 -31 3 -2 47 3 99 12 173 29 289 83 402 188 31 29 57 48 57
42 0 -6 -11 -35 -25 -63 -31 -69 -102 -144 -193 -205 -40 -27 -70 -53 -67 -58
14 -23 167 88 228 164 49 63 87 141 87 182 0 26 16 48 95 127 53 54 102 97
109 97 20 0 36 -79 29 -141 -9 -83 -74 -199 -156 -282 -10 -10 -15 -23 -11
-29 12 -19 105 90 149 173 38 70 40 78 40 164 0 50 -4 101 -8 116 -8 23 -4 27
40 47 56 26 170 52 230 52 40 0 44 -3 59 -37 12 -28 15 -57 11 -113 -9 -128
-62 -252 -157 -367 -50 -60 -156 -153 -174 -153 -3 0 -21 -11 -40 -24 -73 -49
-266 -113 -461 -152 -69 -14 -136 -18 -285 -18 -170 0 -203 3 -257 21 -86 29
-152 69 -164 101 -6 15 -13 74 -16 132 -9 181 36 352 133 503 47 72 182 214
228 239 14 7 51 27 83 44 185 101 466 135 728 88z m447 -401 c9 -10 19 -36 23
-58 14 -81 70 -229 115 -308 37 -64 44 -84 34 -90 -21 -12 -50 8 -93 66 -87
115 -130 245 -116 352 7 59 13 65 37 38z m173 -116 c76 -43 177 -83 274 -108
l44 -11 -49 -41 c-27 -23 -76 -70 -110 -104 -76 -79 -100 -82 -142 -20 -48 69
-88 157 -112 242 -12 44 -24 89 -27 100 -5 18 -4 18 18 4 13 -9 60 -37 104
-62z"/>
<path d="M2486 7775 c-42 -15 -74 -40 -63 -51 3 -3 25 3 49 14 24 11 56 22 72
24 27 3 30 0 51 -63 12 -36 33 -85 47 -108 62 -103 197 -209 333 -261 75 -28
248 -38 349 -21 181 32 332 147 386 295 l11 29 25 -24 c14 -13 37 -43 51 -66
24 -41 43 -55 43 -32 0 40 -141 199 -177 199 -20 0 -16 -14 11 -39 22 -20 23
-27 14 -54 -44 -128 -167 -230 -329 -274 -88 -24 -275 -23 -344 1 -191 67
-330 188 -387 338 -27 73 -25 80 24 77 24 -2 43 1 45 7 9 26 -147 32 -211 9z"/>
<path d="M5641 7441 c-36 -36 -52 -152 -35 -240 13 -62 24 -29 24 69 0 102 13
151 43 163 44 17 124 -46 147 -115 14 -44 30 -59 29 -26 -4 115 -143 214 -208
149z"/>
<path d="M5744 7165 c-7 -19 -14 -41 -14 -50 0 -9 7 -31 14 -50 12 -29 20 -35
45 -35 38 0 55 28 55 92 0 55 -16 78 -56 78 -24 0 -32 -6 -44 -35z"/>
<path d="M4297 3753 c-3 -5 -1 -30 4 -58 13 -82 11 -242 -5 -279 -17 -41 -54
-68 -126 -92 -67 -23 -66 -22 -54 -34 14 -14 117 22 160 55 50 38 69 111 60
240 -9 152 -20 199 -39 168z"/>
<path d="M590 8670 c0 -6 134 -76 298 -156 163 -80 318 -157 345 -170 38 -21
47 -22 47 -10 0 10 -113 71 -336 181 -184 91 -340 165 -345 165 -5 0 -9 -5 -9
-10z"/>
<path d="M4805 8190 c-33 -10 -157 -46 -275 -80 -295 -84 -284 -80 -271 -93 7
-7 37 -2 98 15 197 58 412 120 476 139 37 11 67 24 67 29 0 14 -27 11 -95 -10z"/>
<path d="M510 7877 c0 -8 13 -17 33 -20 17 -3 68 -13 112 -21 242 -45 416 -76
430 -76 23 0 18 19 -7 25 -13 2 -135 25 -273 50 -137 26 -260 49 -272 52 -16
4 -23 1 -23 -10z"/>
<path d="M4302 7478 c3 -7 63 -25 134 -40 159 -35 441 -95 512 -110 36 -7 56
-8 63 -1 7 7 -12 16 -63 27 -40 8 -147 32 -238 51 -91 20 -215 47 -277 60
-129 29 -136 29 -131 13z"/>
<path d="M1252 6697 c-52 -34 -108 -71 -126 -82 -63 -40 -307 -208 -312 -216
-19 -31 35 -3 177 92 90 61 209 140 264 176 119 78 111 71 99 83 -6 6 -44 -14
-102 -53z"/>
<path d="M4122 6731 c7 -20 466 -491 478 -491 6 0 10 4 10 9 0 5 -73 85 -163
177 -90 93 -194 202 -232 242 -37 39 -74 72 -82 72 -8 0 -13 -4 -11 -9z"/>
<path d="M4520 2171 c-79 -24 -136 -76 -126 -115 5 -21 15 -27 63 -36 32 -7
91 -10 133 -8 65 4 89 11 173 52 59 29 97 54 97 63 0 11 -5 13 -17 8 -26 -11
-41 -9 -118 19 -71 26 -153 32 -205 17z m183 -36 c76 -23 83 -29 54 -48 -49
-32 -135 -49 -227 -45 -102 4 -124 15 -94 49 49 55 166 75 267 44z"/>
<path d="M4800 1808 c0 -2 7 -38 15 -80 20 -104 29 -252 21 -320 l-7 -56 -61
32 c-54 27 -71 31 -142 31 -87 0 -107 -8 -323 -124 -98 -52 -154 -67 -193 -51
-16 7 -30 17 -30 22 0 5 19 26 42 48 23 21 39 42 35 46 -4 4 -38 2 -77 -5
-166 -30 -320 -116 -482 -270 -128 -122 -294 -234 -495 -334 -70 -36 -320
-145 -392 -171 -20 -8 -61 -24 -91 -35 -95 -37 -271 -81 -384 -96 -127 -17
-232 -19 -241 -5 -4 6 1 24 9 42 9 17 14 33 12 35 -2 3 -59 -9 -126 -26 -125
-32 -180 -38 -180 -22 0 5 51 46 113 92 151 111 293 253 303 304 9 51 -13 69
-76 60 -57 -9 -201 -81 -340 -170 -19 -13 -129 -82 -245 -153 -115 -72 -281
-180 -369 -240 -150 -105 -445 -339 -446 -354 0 -16 31 -7 58 16 214 188 365
299 667 491 247 157 541 333 597 356 229 98 131 -69 -174 -295 -95 -70 -118
-92 -118 -112 0 -19 5 -24 28 -25 59 -3 95 1 171 21 44 11 82 20 85 20 3 0 6
-13 6 -30 0 -45 26 -54 144 -46 273 18 572 114 991 316 212 103 377 214 526
355 94 89 169 142 263 185 119 56 217 77 178 38 -20 -20 -14 -66 9 -79 39 -20
128 -6 204 33 39 19 113 57 165 84 82 42 105 49 167 52 64 4 78 1 137 -28 43
-21 66 -39 66 -50 0 -58 -73 -178 -128 -211 -151 -90 -246 -141 -372 -201 -80
-38 -162 -78 -182 -88 -58 -29 -45 -9 19 30 130 79 212 183 216 277 3 65 -19
67 -26 2 -14 -117 -98 -203 -299 -309 -187 -97 -250 -131 -288 -155 -89 -56
-254 -115 -289 -104 -8 3 1 22 23 51 20 26 36 52 36 57 0 23 -19 9 -53 -37
-107 -147 -274 -295 -405 -359 -102 -50 -130 -54 -52 -7 54 31 65 50 25 40
-33 -8 -107 -60 -168 -116 -47 -44 -147 -162 -147 -174 0 -19 30 -1 56 34 79
102 118 135 185 154 128 35 274 131 391 254 61 65 68 69 115 74 l51 5 13 -41
c52 -168 190 -320 359 -398 106 -48 160 -62 295 -73 267 -23 650 121 823 309
23 25 42 50 42 55 0 14 -105 107 -173 153 -163 111 -420 204 -682 246 l-50 8
175 86 c96 48 193 97 215 110 22 13 67 39 100 58 33 19 81 54 107 78 l47 44
203 0 c243 0 406 -18 576 -64 192 -51 727 -262 917 -361 164 -85 297 -195 507
-418 83 -87 117 -118 117 -104 0 23 -173 208 -314 335 -168 153 -311 232 -699
387 -518 206 -671 243 -1052 250 l-240 5 23 80 c13 44 23 100 23 124 0 52 5
55 115 74 39 7 133 35 210 62 219 77 335 95 410 64 43 -18 44 -35 5 -95 -33
-53 -32 -83 6 -100 35 -15 189 -13 314 5 195 27 298 37 316 30 16 -6 15 -9
-13 -27 -73 -47 -80 -113 -17 -168 30 -27 58 -36 99 -33 6 0 60 12 122 26 142
32 310 50 390 42 80 -8 134 -32 205 -90 54 -43 84 -58 76 -36 -8 24 -128 112
-178 131 -99 37 -301 27 -527 -27 -128 -31 -161 -26 -189 28 -22 42 -11 73 37
105 28 19 39 32 37 47 -6 41 -66 39 -438 -9 -137 -18 -181 -19 -215 -3 -32 14
-31 23 6 78 59 88 15 135 -125 133 -88 -1 -172 -20 -331 -76 -85 -31 -263 -77
-294 -77 -5 0 -12 26 -15 58 -23 219 -33 272 -52 272 -8 0 -14 -1 -14 -2z
m-535 -1067 c243 -50 444 -126 599 -225 67 -43 156 -123 156 -141 0 -15 -91
-101 -151 -143 -154 -105 -373 -178 -569 -189 -241 -13 -437 58 -588 214 -72
76 -135 180 -148 250 -6 30 -4 32 32 42 22 6 79 31 129 56 85 42 95 45 172 45
l83 0 0 -66 c0 -112 63 -272 122 -308 31 -19 32 4 1 37 -57 59 -89 149 -96
270 l-3 57 33 0 c46 0 185 -55 210 -83 11 -12 28 -42 37 -67 36 -93 102 -185
167 -231 56 -39 45 -9 -21 58 -59 61 -139 188 -125 201 2 2 33 -16 69 -42 100
-71 188 -114 258 -126 87 -14 108 -13 108 5 0 11 -11 15 -42 15 -104 0 -163
28 -395 184 -106 72 -97 65 -92 69 10 9 330 -14 382 -26 35 -9 60 -11 63 -5 3
5 3 12 0 15 -17 17 -162 34 -331 39 -104 2 -215 9 -245 15 -30 6 -90 13 -134
17 l-78 7 78 43 c78 42 80 43 154 37 41 -3 116 -14 165 -24z"/>
<path d="M6262 1115 c-21 -46 -15 -113 13 -140 27 -28 38 -30 86 -14 46 16 89
57 89 86 0 33 -42 69 -95 82 -65 16 -80 14 -93 -14z m110 -19 c68 -29 71 -68
8 -101 -61 -32 -104 -11 -104 49 0 68 25 81 96 52z"/>
<path d="M2791 1038 c-68 -9 -149 -44 -190 -81 -35 -32 -64 -102 -56 -136 3
-16 17 -39 31 -52 22 -21 37 -24 127 -27 123 -5 200 8 284 47 50 24 66 37 83
72 41 79 8 147 -84 174 -55 16 -98 17 -195 3z m188 -28 c71 -20 100 -78 68
-139 -46 -90 -374 -146 -454 -77 -22 20 -25 27 -19 60 9 48 66 110 119 131 83
31 222 44 286 25z"/>
<path d="M757 379 c-56 -11 -164 -75 -173 -103 -8 -23 8 -33 62 -42 71 -10
153 13 196 56 44 43 46 52 18 80 -22 22 -31 22 -103 9z"/>
</g>
</svg>
