<?xml version="1.0" standalone="no"?>
<!DOCTYPE svg PUBLIC "-//W3C//DTD SVG 20010904//EN"
 "http://www.w3.org/TR/2001/REC-SVG-20010904/DTD/svg10.dtd">
<svg version="1.0" xmlns="http://www.w3.org/2000/svg"
 width="650.000000pt" height="855.000000pt" viewBox="0 0 650.000000 855.000000"
 preserveAspectRatio="xMidYMid meet">
<metadata>
Created by potrace 1.16, written by Peter Selinger 2001-2019
</metadata>
<g transform="translate(0.000000,855.000000) scale(0.100000,-0.100000)"
fill="#000000" stroke="none">
<path d="M1585 8458 c-5 -16 -83 -551 -85 -580 0 -5 -46 -8 -102 -8 -57 0
-134 -7 -173 -15 -38 -8 -73 -15 -76 -15 -3 0 -15 35 -27 78 -81 287 -101 355
-106 360 -4 3 -11 1 -17 -5 -8 -8 7 -74 51 -228 34 -119 60 -218 58 -220 -2
-1 -28 -15 -58 -30 -30 -15 -69 -38 -87 -51 -17 -13 -36 -24 -40 -24 -5 0
-103 108 -218 240 -190 218 -235 262 -235 229 0 -9 150 -191 180 -219 3 -3 34
-39 70 -80 36 -41 67 -77 70 -80 3 -3 27 -30 52 -61 l47 -56 -52 -55 c-28 -30
-68 -80 -87 -111 -19 -31 -41 -56 -48 -57 -8 0 -83 47 -168 105 -85 58 -159
105 -164 105 -6 0 -10 -7 -10 -15 0 -8 75 -65 166 -126 106 -70 164 -115 161
-124 -19 -48 -46 -149 -52 -191 -10 -75 -7 -72 -72 -63 -377 55 -385 56 -390
42 -3 -8 -4 -15 -2 -17 4 -3 315 -51 417 -63 l42 -6 0 -51 c0 -29 9 -89 21
-135 11 -45 19 -85 16 -87 -3 -3 -133 -49 -289 -101 -155 -53 -286 -99 -290
-102 -4 -3 -4 -12 1 -19 5 -9 82 13 302 88 162 55 295 100 296 100 1 0 10 -15
19 -32 9 -18 32 -57 52 -86 l35 -53 -28 -22 c-15 -12 -66 -53 -114 -92 -48
-38 -112 -90 -143 -115 -54 -43 -68 -63 -50 -74 4 -2 62 39 128 92 66 53 137
111 158 127 22 17 45 36 53 43 11 12 23 6 71 -35 31 -27 80 -65 107 -83 28
-18 51 -34 52 -35 2 -1 -67 -140 -153 -308 -128 -253 -153 -308 -139 -313 9
-4 17 -5 18 -3 3 4 30 57 204 402 86 171 108 207 121 202 71 -29 139 -47 214
-57 75 -11 88 -15 88 -31 0 -17 -63 -399 -76 -459 -4 -23 -2 -28 13 -28 17 0
23 23 51 193 18 105 37 219 43 253 l10 60 87 17 c48 9 96 19 107 22 18 5 24
-2 42 -52 11 -32 70 -184 130 -338 77 -198 114 -281 126 -283 21 -4 21 5 1 54
-9 22 -27 66 -39 99 -13 33 -48 125 -79 205 -93 238 -128 331 -124 335 1 1 28
15 58 30 30 15 78 44 106 65 l51 39 186 -187 c150 -150 189 -184 199 -174 10
10 -24 48 -170 195 -100 100 -182 186 -182 190 0 4 20 32 45 62 25 31 52 69
60 85 9 17 19 30 24 30 5 0 147 -67 315 -150 168 -82 313 -150 322 -150 9 0
14 6 12 13 -4 11 -120 71 -477 246 -83 40 -151 77 -151 80 0 4 11 40 24 79 14
39 30 105 37 147 10 56 17 75 29 75 17 0 211 -27 428 -60 160 -24 172 -24 172
-5 0 8 -2 15 -4 15 -10 0 -610 91 -611 93 -1 1 -9 48 -18 104 -9 57 -23 116
-31 132 -19 36 -14 41 79 68 166 50 391 125 399 133 29 28 -45 14 -236 -45
-117 -37 -225 -71 -240 -75 -26 -8 -30 -4 -85 79 l-58 87 46 35 c153 113 289
221 289 229 0 25 -40 2 -167 -94 -76 -58 -148 -114 -160 -125 -12 -12 -25 -21
-29 -21 -4 0 -25 17 -48 38 -22 21 -51 45 -64 54 l-23 16 92 178 c51 99 99
192 107 207 8 16 12 31 8 34 -10 11 -34 -6 -48 -34 -8 -15 -52 -102 -98 -193
-45 -91 -84 -167 -87 -169 -2 -3 -32 9 -66 27 -35 17 -86 37 -113 44 -27 6
-52 14 -56 17 -4 4 4 83 18 176 69 467 66 435 43 435 -5 0 -12 -6 -14 -12z
m-21 -644 c86 -21 211 -86 277 -142 171 -145 259 -335 259 -557 0 -334 -209
-604 -542 -699 -76 -22 -260 -21 -347 0 -229 57 -415 222 -500 443 -145 381
45 797 431 936 40 15 100 30 133 35 77 11 212 4 289 -16z"/>
<path d="M1308 7591 c-31 -19 -64 -55 -94 -100 -29 -45 -54 -71 -67 -73 -12
-2 -23 -10 -25 -19 -2 -12 18 -17 110 -27 247 -26 248 -26 248 -9 0 8 -6 17
-14 20 -11 4 -12 14 -5 44 15 68 11 138 -10 162 -33 37 -87 38 -143 2z"/>
<path d="M1786 7348 c-17 -18 -41 -46 -53 -63 -21 -29 -21 -30 -42 -11 -16 15
-24 17 -33 8 -8 -8 1 -26 38 -69 27 -32 51 -60 54 -63 3 -3 34 -38 69 -78 49
-57 66 -70 77 -61 10 8 10 15 2 28 -8 13 -6 27 9 57 36 71 45 113 38 172 -13
106 -93 146 -159 80z"/>
<path d="M864 7252 c-6 -4 -17 -18 -23 -30 -14 -27 0 -76 25 -86 10 -4 14 -22
14 -59 0 -95 45 -201 119 -280 62 -66 111 -99 201 -132 102 -38 251 -41 348
-6 42 15 74 21 96 17 24 -5 37 -1 54 14 30 28 30 83 0 104 -48 34 -108 4 -108
-53 0 -46 -64 -66 -210 -66 -109 0 -119 2 -195 34 -63 27 -94 48 -146 100 -75
76 -103 125 -118 207 -16 82 -14 90 19 124 35 36 38 72 10 100 -20 20 -65 26
-86 12z"/>
<path d="M1423 7204 c-39 -19 -67 -74 -58 -114 8 -37 48 -77 85 -85 41 -9 95
19 114 60 20 41 20 49 -1 92 -10 22 -29 41 -49 49 -42 18 -51 17 -91 -2z m97
-44 c11 -11 20 -33 20 -50 0 -63 -77 -94 -120 -48 -42 45 -12 118 50 118 17 0
39 -9 50 -20z"/>
<path d="M4994 7473 c-13 -15 -27 -42 -30 -62 -7 -45 -52 -96 -91 -104 -38 -8
-153 -74 -160 -93 -3 -8 -16 -14 -29 -14 -16 0 -28 -8 -35 -24 -6 -13 -22 -29
-34 -34 -45 -21 -155 -125 -155 -147 0 -8 -9 -15 -20 -15 -13 0 -22 -9 -26
-27 -4 -16 -20 -43 -36 -61 -15 -18 -28 -37 -28 -41 0 -5 -11 -12 -24 -15 -14
-3 -33 -20 -43 -36 -9 -17 -21 -30 -25 -30 -4 0 -15 -15 -24 -32 -9 -18 -35
-55 -58 -83 -23 -27 -47 -62 -54 -77 -6 -16 -16 -28 -22 -28 -9 0 -48 -60 -88
-136 -7 -13 -17 -24 -22 -24 -12 0 -30 -57 -30 -94 0 -27 -17 -48 -117 -147
-65 -64 -149 -145 -188 -180 -137 -126 -200 -186 -349 -334 -150 -148 -191
-186 -296 -275 -29 -25 -67 -58 -84 -73 -17 -15 -51 -40 -76 -54 -25 -14 -60
-38 -79 -52 -19 -14 -47 -33 -62 -41 -15 -8 -93 -54 -172 -102 -80 -49 -148
-88 -151 -88 -2 0 -33 -13 -68 -29 -258 -118 -380 -171 -388 -166 -6 4 -10 17
-10 29 0 39 -46 51 -113 32 -30 -9 -57 -16 -60 -16 -2 0 -7 18 -11 41 -14 88
-78 163 -138 161 -52 -1 -92 -44 -147 -155 -28 -57 -51 -110 -51 -119 0 -8 -6
-22 -13 -32 -13 -17 -16 -17 -73 12 -115 59 -157 48 -190 -51 -9 -28 -19 -55
-21 -59 -2 -4 -45 27 -94 70 -102 87 -102 75 -2 136 173 107 238 217 163 279
-16 14 -35 27 -42 30 -15 5 -19 1 62 63 143 108 250 236 250 299 0 41 -41 80
-101 96 -37 10 -72 10 -160 1 -63 -6 -124 -14 -136 -18 -18 -5 -25 1 -43 37
-40 77 -85 109 -153 109 -75 0 -140 -42 -190 -122 l-17 -28 -54 30 c-29 17
-60 30 -70 30 -26 0 -72 -27 -117 -67 -66 -60 -53 -113 43 -174 29 -18 54 -34
56 -35 2 -1 -4 -40 -12 -86 -9 -47 -16 -95 -16 -109 0 -20 -11 -28 -56 -48
-103 -45 -123 -74 -84 -124 11 -14 20 -28 20 -30 0 -3 -24 -13 -53 -21 -63
-18 -130 -64 -158 -109 -40 -64 -5 -189 91 -325 22 -32 40 -61 40 -64 0 -4
-25 -4 -55 -1 -46 5 -55 3 -55 -10 0 -18 -14 -16 330 -52 266 -28 528 -60 628
-76 62 -11 80 -28 48 -46 -36 -20 -146 -221 -161 -293 -8 -38 -42 -127 -100
-260 -20 -47 -43 -102 -51 -123 -22 -60 -144 -298 -171 -334 -14 -18 -33 -35
-44 -38 -10 -4 -31 -27 -46 -52 -25 -43 -27 -54 -31 -205 -4 -127 -2 -162 9
-168 19 -12 21 -9 106 103 72 95 123 198 123 246 0 9 29 62 65 116 36 55 65
103 65 108 0 4 4 6 8 3 5 -3 3 -60 -4 -128 -7 -68 -13 -165 -13 -215 -1 -51
-4 -93 -8 -93 -5 0 -28 -18 -53 -40 -31 -27 -42 -42 -34 -50 7 -7 23 -1 51 20
45 33 56 29 47 -17 -6 -29 -9 -31 -112 -52 -256 -54 -480 -151 -593 -259 -67
-63 -119 -136 -119 -166 0 -28 18 -17 44 29 58 98 189 197 353 265 93 39 299
98 370 107 l55 6 -5 -164 c-7 -237 -32 -399 -99 -644 -16 -56 -22 -104 -20
-160 1 -50 -7 -123 -21 -195 l-23 -115 -46 -25 -46 -24 -68 34 c-54 28 -82 36
-139 38 -56 3 -74 1 -84 -12 -7 -9 -12 -16 -10 -17 2 0 36 -2 75 -2 61 -2 82
-8 148 -41 l77 -39 36 17 c19 9 38 14 41 12 3 -3 -5 -68 -18 -143 -12 -76 -26
-163 -30 -193 -4 -30 -14 -73 -23 -95 -8 -22 -25 -71 -37 -110 -13 -38 -40
-105 -61 -147 l-38 -78 25 -56 24 -55 -35 -149 c-41 -175 -39 -201 15 -235 45
-28 142 -55 199 -55 52 0 53 2 43 204 -8 187 2 410 24 516 26 123 103 462 115
505 6 22 32 84 58 137 l46 97 86 21 c133 31 123 36 137 -82 23 -201 7 -582
-29 -696 l-21 -62 31 -109 c35 -121 37 -150 16 -236 -8 -33 -15 -86 -15 -117
0 -49 3 -59 26 -77 24 -19 40 -21 157 -21 l130 0 -6 102 c-4 57 -14 128 -23
158 -32 111 -50 716 -30 992 l8 117 33 -13 c27 -11 103 -12 445 -4 337 7 415
7 422 -4 17 -24 0 -275 -26 -401 -14 -65 -28 -153 -31 -195 -10 -122 -36 -252
-57 -289 l-20 -33 23 -63 c20 -52 24 -78 22 -167 -1 -69 -7 -121 -18 -150 -9
-25 -17 -51 -18 -59 -3 -23 87 -43 169 -37 116 9 108 -6 98 180 -10 178 -8
309 7 526 29 424 49 704 52 706 1 2 54 4 117 5 l115 2 3 -29 c3 -33 -18 -151
-41 -234 -14 -51 -14 -61 4 -138 16 -68 18 -93 10 -135 -5 -29 -15 -101 -21
-162 -7 -60 -18 -141 -26 -179 -18 -86 -18 -125 0 -167 11 -26 12 -52 6 -108
-12 -111 -5 -121 105 -146 66 -15 70 -15 83 2 10 13 12 35 8 77 -7 73 4 306
15 306 23 0 41 -213 27 -324 -10 -76 -9 -81 11 -97 29 -24 152 -34 224 -19
l57 11 0 49 0 49 51 -1 c28 0 56 5 61 10 9 9 2 114 -31 462 -12 118 -2 475 13
525 9 27 11 80 8 162 l-4 123 29 0 c16 0 87 5 159 10 71 6 147 11 169 13 l40
2 12 -65 c23 -122 16 -219 -44 -645 -8 -60 -22 -123 -30 -139 -11 -21 -13 -42
-8 -75 25 -156 26 -147 -41 -353 -10 -30 61 -65 148 -73 42 -4 86 -4 98 0 23
7 23 8 14 119 -13 164 -9 360 9 541 9 88 21 230 27 316 7 100 18 179 31 220
11 35 19 82 19 104 -4 85 -1 95 25 105 72 27 70 29 72 -62 1 -46 6 -135 10
-198 14 -200 -14 -622 -47 -708 l-20 -52 35 -70 c33 -66 34 -72 26 -127 -5
-32 -16 -76 -25 -98 -21 -54 -20 -72 5 -86 29 -15 204 -2 220 17 12 15 11 30
-26 281 -11 79 -15 154 -11 250 4 124 4 162 3 213 0 27 13 274 19 335 3 33 12
82 21 108 12 39 14 73 8 166 -6 93 -4 119 7 128 17 14 178 55 323 81 512 94
824 47 1325 -199 130 -64 300 -160 387 -220 42 -29 73 -37 73 -19 0 34 -433
278 -640 360 -166 67 -407 139 -465 140 -20 1 -20 1 0 15 25 20 297 126 405
159 122 37 264 50 475 43 99 -4 189 -8 200 -9 12 -2 20 3 20 12 0 23 -59 29
-285 29 -309 1 -363 -10 -713 -150 l-198 -79 -118 0 c-204 0 -448 -34 -685
-94 -55 -14 -101 -24 -104 -22 -2 3 1 45 7 95 6 50 11 135 10 189 -1 83 3 107
25 166 14 37 26 80 26 93 0 14 11 62 25 107 39 130 94 377 109 489 8 57 19
113 25 125 6 11 21 60 32 109 29 124 31 126 77 109 541 -205 1040 -471 1605
-858 77 -53 145 -94 149 -92 19 12 4 32 -53 68 -34 22 -66 44 -73 50 -41 39
-522 339 -686 429 -347 190 -617 318 -882 418 -72 26 -88 36 -88 53 1 31 181
467 321 777 79 173 137 265 204 320 51 42 75 43 170 9 97 -35 134 -43 180 -37
89 13 128 48 127 116 0 70 -24 107 -158 248 -236 248 -222 231 -212 277 5 23
17 48 28 58 39 32 17 108 -30 108 -21 0 -50 -35 -50 -61 0 -28 -23 -37 -77
-32 l-52 5 21 28 c13 19 18 35 13 49 -6 19 -13 22 -58 19 -43 -2 -52 -6 -55
-23 -8 -52 -14 -64 -35 -71 -12 -3 -41 -22 -64 -40 -23 -19 -47 -34 -53 -34
-13 0 -71 59 -111 114 -31 42 -38 96 -15 115 31 26 124 34 224 21 166 -22 162
-23 195 38 33 61 76 92 127 92 61 0 134 -58 169 -135 l16 -34 68 41 c76 46 90
45 161 -15 33 -28 38 -38 33 -59 -8 -31 -86 -86 -172 -120 -78 -31 -86 -53
-16 -43 28 4 51 5 51 3 1 -1 7 -36 14 -77 8 -46 10 -90 5 -115 -5 -23 -8 -47
-9 -53 0 -21 31 -15 37 7 7 26 17 25 88 -8 90 -43 94 -52 45 -99 -22 -22 -40
-44 -40 -50 0 -6 24 -13 54 -16 92 -9 206 -82 206 -131 -1 -61 -117 -208 -232
-292 -57 -42 -62 -72 -21 -110 l28 -26 -27 -49 -26 -49 72 0 c180 -1 334 -72
351 -162 17 -88 -57 -239 -171 -351 -31 -31 -42 -48 -33 -51 123 -36 222 -84
232 -110 12 -31 -50 -154 -111 -218 -29 -32 -30 -29 23 -56 75 -38 115 -91
115 -154 0 -42 -60 -100 -128 -124 -59 -21 -66 -43 -17 -56 33 -9 95 -61 113
-95 7 -12 12 -38 12 -57 0 -25 4 -36 15 -36 16 0 18 7 15 60 -2 48 -23 79 -87
131 -19 14 -24 23 -15 26 7 3 35 22 62 44 89 71 89 160 -1 244 -27 25 -53 45
-59 45 -18 0 -11 19 30 72 46 61 76 143 66 182 -7 30 -76 77 -148 102 -27 8
-48 20 -48 26 0 5 20 33 45 62 24 29 61 86 82 127 33 65 37 83 38 149 0 59 -4
80 -19 100 -56 73 -159 120 -282 128 l-83 5 6 47 c5 42 3 50 -16 62 -32 19
-25 39 25 78 69 53 180 175 203 223 29 60 27 108 -5 146 -31 37 -93 75 -151
92 -24 7 -43 14 -43 16 0 2 9 17 21 32 12 16 19 37 17 47 -4 24 -91 82 -145
97 -36 9 -43 15 -43 37 0 14 -7 60 -15 103 -8 43 -15 80 -15 81 0 2 26 19 59
39 99 61 110 123 33 184 -78 63 -109 67 -184 26 -32 -18 -52 -24 -55 -17 -12
35 -70 95 -106 113 -56 27 -131 28 -174 1 -18 -11 -46 -43 -63 -73 l-30 -53
-77 12 c-128 21 -231 18 -283 -8 -63 -32 -72 -68 -37 -140 15 -30 47 -75 73
-100 45 -46 46 -48 34 -78 -7 -17 -26 -47 -41 -67 -16 -20 -29 -42 -29 -49 0
-7 -25 -52 -55 -99 l-56 -86 -41 36 c-49 42 -71 43 -121 10 -42 -29 -73 -83
-83 -144 -7 -47 -5 -46 -59 -26 -54 19 -90 19 -110 -2 -25 -25 -14 -91 24
-149 33 -48 31 -63 -11 -64 -9 0 -30 -12 -47 -26 -30 -25 -31 -28 -31 -108 0
-46 -2 -85 -5 -88 -3 -3 -29 2 -58 10 -92 26 -110 26 -132 2 -22 -24 -24 -85
-15 -305 l5 -100 -64 -108 c-35 -60 -70 -111 -78 -114 -15 -6 -51 -1 -391 48
l-234 34 6 30 c3 16 14 78 24 137 17 95 23 113 59 160 72 97 89 122 148 228
57 101 118 201 175 285 15 22 67 103 115 180 49 77 109 165 132 195 24 30 74
98 112 150 38 52 79 106 91 120 12 14 47 60 78 103 58 80 227 310 281 382 45
61 106 161 151 246 21 43 68 117 103 165 142 199 182 261 235 371 l55 116 96
-6 c105 -6 191 -32 239 -72 89 -75 251 -99 342 -51 61 32 90 76 89 135 -1 90
-18 123 -115 228 -117 126 -274 302 -313 352 -29 37 -30 39 -12 55 18 17 18
60 0 72 -17 10 -9 22 26 43 32 18 35 25 35 64 0 48 -21 77 -58 77 -21 0 -62
-43 -62 -65 0 -6 -8 -19 -17 -28 -16 -14 -21 -14 -58 4 -30 15 -50 18 -82 13
-51 -8 -53 0 -13 51 47 60 36 112 -29 128 -17 4 -30 -1 -47 -20z m65 -32 c8
-14 4 -26 -16 -52 -33 -44 -71 -129 -79 -177 -5 -34 -3 -39 20 -50 14 -6 26
-20 26 -29 1 -10 9 -28 20 -41 16 -19 27 -23 62 -20 39 3 45 7 61 41 20 43 31
46 52 13 13 -20 14 -30 4 -68 -14 -51 -8 -78 18 -78 10 0 45 -27 78 -60 41
-41 77 -66 110 -78 68 -24 68 -39 0 -47 -50 -7 -62 -4 -105 19 -38 21 -53 24
-73 17 -35 -14 -42 -59 -14 -87 21 -21 188 -94 214 -94 7 0 19 15 26 33 8 17
21 38 30 45 9 8 13 20 10 28 -3 8 -1 14 5 14 13 0 164 -164 174 -187 11 -28 9
-112 -3 -134 -16 -30 -106 -69 -159 -69 -46 0 -125 31 -181 70 -16 12 -60 32
-98 45 -60 20 -82 23 -168 18 -111 -6 -145 3 -206 57 -63 55 -67 27 -5 -32 55
-52 57 -56 48 -87 -5 -18 -21 -49 -36 -68 l-27 -35 -41 78 c-66 127 -147 166
-241 118 -35 -19 -42 -28 -60 -85 -11 -36 -37 -92 -57 -126 -54 -86 -52 -119
12 -227 55 -93 70 -106 124 -106 20 0 36 -2 36 -4 0 -6 -61 -113 -95 -166
l-28 -44 -16 24 c-8 14 -34 44 -57 68 -50 51 -71 53 -157 14 -34 -16 -76 -34
-94 -41 -17 -7 -39 -21 -49 -32 -15 -17 -16 -24 -4 -58 17 -51 17 -83 0 -156
-17 -80 -9 -112 35 -131 19 -8 45 -14 57 -14 13 0 29 -4 37 -9 16 -10 -4 -48
-65 -124 -19 -23 -38 -46 -42 -52 -120 -156 -146 -185 -165 -185 -29 -1 -44
-14 -98 -85 -48 -63 -69 -110 -69 -154 0 -14 -12 -39 -26 -56 -24 -28 -26 -29
-39 -12 -20 28 -196 146 -227 152 -40 9 -68 -14 -108 -92 -32 -62 -39 -68 -84
-83 -102 -33 -138 -160 -65 -226 15 -14 19 -31 19 -85 0 -61 3 -70 26 -88 15
-11 51 -28 80 -38 35 -11 54 -22 54 -32 0 -9 -17 -46 -37 -81 -21 -36 -47 -82
-58 -103 -12 -22 -26 -36 -35 -35 -8 2 -28 31 -45 64 -39 81 -52 94 -87 94
-44 0 -61 -13 -136 -103 -38 -45 -89 -96 -113 -112 -24 -17 -55 -40 -69 -52
-14 -13 -28 -23 -31 -23 -4 0 -9 -17 -13 -37 -8 -55 30 -131 84 -163 22 -14
54 -34 70 -46 l30 -21 -21 -27 c-29 -37 -12 -57 26 -32 34 22 112 99 153 150
17 22 33 38 36 35 6 -6 -19 -148 -34 -193 -9 -29 -19 -38 -49 -46 -52 -14 -95
-58 -119 -122 -34 -91 -36 -120 -12 -160 20 -35 20 -37 4 -79 -9 -24 -19 -64
-21 -89 -4 -43 -2 -49 42 -97 25 -29 61 -61 79 -72 l32 -20 12 -168 c13 -185
15 -308 3 -337 -4 -10 -27 -29 -51 -41 l-44 -22 -2 -89 c-1 -100 2 -111 58
-172 62 -68 72 -100 67 -227 -8 -252 -1 -972 11 -1011 6 -21 15 -85 20 -142
l9 -103 -37 -37 c-38 -39 -88 -69 -97 -60 -3 3 -8 30 -12 59 -3 30 -16 75 -29
100 -28 56 -32 115 -14 239 15 110 8 404 -15 620 -13 130 -13 136 5 155 11 12
29 47 40 79 11 32 28 72 39 90 34 57 34 69 -4 124 -19 28 -43 71 -52 94 -22
57 -60 117 -93 148 -23 22 -30 41 -43 125 -9 54 -14 102 -12 106 3 4 31 10 62
14 65 8 105 25 126 55 11 15 12 31 4 74 -9 48 -8 58 12 91 18 31 20 42 11 75
-13 47 -44 79 -118 118 -31 17 -67 42 -80 55 l-23 24 20 109 c23 133 37 299
24 307 -24 15 -36 -15 -45 -109 -5 -55 -12 -101 -14 -103 -2 -2 -23 4 -47 13
-24 9 -72 16 -108 16 -78 0 -92 -11 -110 -85 -6 -27 -30 -95 -51 -150 -29 -73
-38 -107 -33 -131 10 -53 100 -171 160 -210 17 -10 43 -32 58 -48 l28 -30 -17
-105 c-18 -112 -27 -141 -46 -141 -7 0 -27 -14 -45 -32 -30 -29 -33 -38 -33
-87 0 -31 7 -69 15 -85 13 -24 14 -43 6 -100 -5 -39 -12 -115 -16 -169 -3 -54
-12 -117 -20 -140 -8 -25 -22 -164 -34 -352 -45 -688 -54 -820 -57 -824 -2 -2
-12 3 -22 12 -34 31 -64 18 -77 -35 -9 -37 -32 -43 -39 -10 -4 15 -14 51 -23
79 -14 47 -14 55 0 76 8 13 22 80 31 153 21 160 49 364 85 600 5 34 5 83 1
110 -5 27 -16 105 -25 172 l-17 124 25 26 c14 15 35 53 47 85 l22 58 -31 35
c-28 31 -31 41 -31 99 l0 65 55 57 c61 64 58 57 84 203 l19 105 -46 43 c-26
24 -69 57 -97 74 l-51 30 -17 180 c-9 99 -14 185 -11 190 10 15 -5 58 -21 58
-19 0 -35 -32 -35 -72 0 -56 -11 -63 -92 -62 -40 1 -84 6 -98 12 -21 9 -12 11
51 11 48 1 80 6 87 14 5 6 12 37 15 67 3 30 8 69 12 85 6 29 4 32 -47 53 -60
24 -94 21 -104 -12 -4 -11 -25 -41 -46 -66 -35 -39 -39 -50 -36 -87 2 -24 3
-43 2 -43 -1 0 -19 6 -40 14 -58 20 -146 28 -177 17 -19 -7 -34 -26 -47 -57
-28 -64 -24 -68 8 -9 l27 50 61 3 c47 2 84 -4 159 -28 113 -37 190 -47 234
-32 26 9 31 8 36 -9 9 -27 7 -28 -56 -39 -30 -5 -103 -18 -164 -29 -120 -23
-264 -27 -313 -10 -28 10 -31 14 -26 42 3 18 18 61 34 97 15 36 37 86 48 113
23 53 33 56 80 27 44 -27 93 -18 127 22 14 16 25 35 25 42 0 6 -19 31 -43 54
-35 35 -50 42 -81 42 -32 0 -37 3 -31 18 7 18 25 118 25 140 0 6 -9 12 -20 12
-14 0 -22 -11 -30 -42 -40 -164 -201 -546 -259 -617 l-27 -33 -52 18 c-51 18
-52 18 -95 -3 -34 -16 -50 -33 -66 -66 -12 -25 -51 -74 -86 -108 -64 -62 -80
-98 -56 -124 4 -6 27 -45 49 -88 l42 -79 -64 -96 c-35 -53 -78 -123 -96 -154
-26 -48 -36 -57 -53 -53 -17 4 -36 -8 -80 -51 -32 -32 -65 -71 -74 -88 -9 -17
-29 -50 -46 -73 -39 -55 -33 -94 23 -148 22 -22 40 -45 40 -52 0 -7 -27 -86
-61 -175 -87 -233 -181 -640 -193 -833 -10 -147 -18 -215 -26 -215 -4 0 -10 9
-13 20 -5 21 -41 28 -52 10 -3 -5 -17 -10 -31 -10 -27 0 -30 14 -13 74 9 32 7
46 -11 91 -25 62 -22 93 17 163 37 65 69 182 118 425 24 121 46 222 50 225 3
4 20 11 38 17 32 10 32 11 39 94 5 66 4 87 -8 98 -17 17 -17 17 -14 163 2 126
9 176 40 279 l21 68 92 34 c77 29 101 43 150 91 68 67 73 94 25 150 -17 20
-41 61 -53 90 l-21 53 -73 -4 -72 -3 3 47 3 48 47 12 c26 6 53 16 60 22 7 6
40 16 73 22 112 21 171 84 155 169 -8 43 -34 82 -55 82 -19 0 -44 34 -61 84
-9 25 -29 60 -45 75 -34 35 -112 56 -140 38 -10 -6 -21 -8 -25 -5 -6 6 13 179
21 186 2 2 26 -14 54 -36 61 -48 82 -56 127 -47 27 5 45 19 82 67 50 66 61 78
111 120 25 21 31 34 31 66 0 22 -5 42 -11 44 -6 2 -18 27 -28 55 -36 106 -108
171 -176 159 -38 -8 -86 -53 -111 -105 l-17 -36 -10 28 c-14 44 -40 31 -53
-28 -6 -28 -16 -59 -21 -70 -6 -11 -20 -43 -31 -70 -16 -43 -98 -177 -146
-237 -15 -21 -42 -24 -48 -6 -3 7 1 24 9 38 7 14 35 77 62 140 27 63 78 183
114 265 36 83 75 172 86 198 12 27 25 45 31 42 6 -4 19 -24 30 -46 11 -21 25
-39 31 -39 5 0 38 7 72 16 77 19 116 52 129 107 5 22 27 79 50 125 l41 83 -18
92 c-9 51 -23 102 -31 114 -14 22 -11 25 56 69 39 26 72 45 75 42 4 -3 6 -113
5 -263 -1 -49 33 -125 68 -156 37 -33 62 -35 201 -19 77 9 158 40 175 69 17
27 96 300 96 330 0 35 -37 91 -60 91 -4 0 -27 23 -49 51 -33 42 -41 60 -41 93
0 40 1 42 52 64 29 13 65 26 80 29 25 5 28 2 28 -19 0 -47 21 -88 47 -94 14
-4 56 -1 94 5 75 14 116 9 163 -20 40 -25 96 -24 123 0 11 11 28 49 38 86 17
63 22 70 86 121 89 72 102 100 85 181 -14 67 -13 71 26 96 40 25 48 21 48 -21
0 -35 16 -68 47 -100 7 -8 25 -29 39 -47 45 -59 88 -73 232 -74 l127 -2 43 31
c40 30 42 34 42 85 0 40 -9 71 -35 126 -19 41 -37 88 -41 105 -6 29 -2 34 64
82 115 83 124 96 120 168 -3 48 -10 71 -33 103 l-28 42 43 44 c24 25 47 45 51
45 4 0 9 -24 11 -52 3 -34 15 -71 35 -103 27 -46 33 -50 71 -53 51 -4 84 13
156 79 l57 52 108 -7 c101 -6 109 -6 135 15 16 12 36 35 46 51 19 32 22 14
-47 244 -18 60 -49 80 -141 90 -31 3 -63 8 -71 10 -15 5 135 164 154 164 20 0
84 -75 104 -123 11 -26 28 -50 37 -54 14 -5 155 9 236 23 34 7 78 51 78 79 0
12 -14 47 -30 78 -16 31 -30 62 -30 69 0 8 11 30 25 50 14 20 25 46 25 58 0
35 -45 67 -120 85 -39 10 -72 21 -75 25 -3 5 14 24 37 43 l42 35 49 -34 c84
-58 137 -43 183 49 15 29 52 81 83 117 32 36 60 72 63 80 3 8 0 60 -7 115
l-11 100 35 30 c19 16 54 50 78 75 23 24 45 41 49 37 11 -11 -18 -58 -42 -69
-12 -6 -27 -21 -34 -33 -18 -33 -9 -151 15 -200 17 -35 25 -40 57 -43 33 -3
44 3 88 44 36 34 50 54 50 74 0 15 9 35 20 45 39 36 35 69 -16 124 -13 14 -24
38 -24 53 0 15 -5 38 -11 52 -10 22 -7 33 30 90 22 36 41 68 41 72 0 3 9 17
20 31 12 15 20 41 20 63 0 20 3 40 7 43 13 13 42 7 52 -12z m-163 -414 c29
-34 30 -58 5 -81 -10 -10 -22 -32 -25 -50 -4 -20 -18 -41 -36 -55 -17 -12 -30
-28 -30 -36 0 -18 -31 -20 -48 -3 -7 7 -12 30 -13 53 0 22 -3 58 -8 80 -7 38
-5 42 33 80 23 22 50 56 60 75 l19 35 9 -35 c5 -19 21 -47 34 -63z m-296 -240
c0 -20 -14 -43 -48 -80 -27 -29 -61 -74 -77 -102 -33 -59 -64 -95 -81 -95 -19
0 -103 53 -104 65 0 6 19 33 43 60 24 28 48 57 53 66 5 9 49 60 99 113 l90 97
12 -48 c7 -26 13 -61 13 -76z m88 -277 c63 -33 102 -79 102 -120 0 -11 9 -42
19 -70 l19 -50 -55 -82 c-72 -108 -96 -133 -144 -147 -51 -15 -75 -7 -96 32
-9 18 -31 52 -50 76 -42 56 -42 88 1 160 42 69 66 126 66 156 0 22 22 48 50
58 28 10 51 7 88 -13z m-481 -104 c21 -8 55 -17 75 -21 53 -8 64 -33 33 -76
-32 -42 -31 -77 0 -139 25 -50 32 -94 16 -104 -8 -5 -211 -36 -236 -36 -6 0
-22 23 -34 51 -13 28 -34 62 -47 76 -25 27 -41 82 -27 92 4 3 38 40 73 81 89
103 84 100 147 76z m-301 -465 c40 -18 43 -22 73 -116 17 -53 31 -105 31 -115
0 -10 -12 -33 -27 -50 -26 -32 -28 -32 -82 -25 -31 4 -82 7 -114 6 -54 -2 -60
-5 -110 -51 -127 -121 -187 -102 -201 62 l-7 77 111 108 c97 94 117 109 153
114 81 12 132 9 173 -10z m503 -90 c15 -16 35 -47 45 -68 l18 -40 -56 -85
c-30 -47 -62 -90 -70 -97 -7 -6 -20 -26 -27 -43 l-12 -31 -65 6 c-35 4 -71 12
-78 18 -18 15 -18 61 1 106 8 19 15 49 15 65 0 16 -7 45 -15 65 -20 47 -19 49
13 62 15 5 56 24 92 40 82 38 105 38 139 2z m-3493 -206 c13 -8 38 -42 54 -75
17 -33 31 -60 33 -60 1 0 37 7 80 15 106 20 239 20 283 -1 50 -24 48 -69 -7
-140 -61 -80 -282 -264 -316 -264 -18 0 -16 -27 3 -34 9 -3 26 -6 39 -6 13 0
36 -5 50 -12 84 -38 1 -150 -199 -266 l-79 -46 59 -52 c165 -144 209 -182 212
-179 2 2 10 33 17 70 18 83 37 115 70 115 25 0 100 -37 144 -72 13 -10 27 -18
31 -18 4 0 17 30 30 66 48 142 123 269 165 280 32 8 77 -24 99 -70 10 -21 16
-60 16 -100 l0 -65 50 26 c30 15 69 27 93 27 38 1 42 -1 42 -24 0 -17 -11 -32
-40 -51 -53 -36 -227 -134 -340 -192 -55 -28 -131 -81 -193 -133 l-103 -86
-62 11 c-76 14 -411 56 -644 80 -197 21 -184 14 -268 146 -81 128 -97 218 -49
275 39 46 113 80 174 80 68 0 75 20 25 65 -22 20 -35 41 -33 52 2 10 29 31 61
47 l58 30 15 -22 c8 -12 18 -22 22 -22 4 0 7 44 7 97 0 54 4 115 8 137 8 37
10 38 40 31 52 -11 62 -11 62 3 0 7 -34 27 -76 46 -110 47 -159 86 -159 125 0
14 53 61 93 83 31 18 31 17 103 -22 l72 -40 22 45 c23 48 89 111 124 119 33 7
86 -2 112 -19z m2418 -130 c18 -27 21 -96 6 -125 -5 -10 -42 -42 -82 -71 -40
-29 -79 -59 -85 -68 -21 -24 -15 -54 23 -136 20 -43 38 -99 41 -129 5 -49 3
-54 -22 -74 -25 -20 -40 -22 -147 -22 -128 0 -138 3 -204 57 -56 45 -70 77
-66 150 4 59 4 61 45 82 62 33 166 118 300 247 130 125 159 138 191 89z m1785
-319 c10 -11 9 -16 -2 -23 -16 -9 -53 -140 -43 -151 4 -3 16 -1 27 6 16 10 31
8 87 -9 37 -12 70 -26 73 -32 4 -5 5 -26 3 -46 -5 -39 1 -49 59 -98 27 -24 47
-33 74 -33 30 0 46 -9 92 -52 115 -108 150 -179 121 -247 -14 -36 -40 -43
-139 -42 -57 1 -80 6 -102 22 -16 11 -71 34 -123 50 -53 16 -109 41 -126 55
-17 15 -33 24 -36 21 -12 -12 9 -48 37 -62 16 -9 29 -21 29 -27 0 -7 -14 -40
-32 -75 -30 -59 -48 -79 -48 -50 0 31 -23 89 -43 107 -11 11 -39 25 -60 31
-37 10 -40 9 -95 -36 -31 -26 -73 -56 -94 -66 -45 -23 -55 -60 -39 -151 22
-125 85 -174 161 -124 41 27 60 32 60 17 0 -17 -73 -171 -81 -171 -4 0 -24 9
-43 21 -42 24 -61 17 -97 -35 -18 -27 -36 -40 -75 -51 -29 -8 -55 -22 -58 -31
-3 -9 -6 -49 -6 -89 0 -95 9 -105 96 -105 35 0 64 -4 64 -9 0 -16 -72 -181
-79 -181 -4 0 -15 13 -24 29 -28 48 -51 48 -108 0 -28 -23 -92 -63 -142 -88
-69 -34 -93 -52 -95 -68 -2 -11 13 -54 32 -95 28 -59 43 -78 74 -96 49 -27 71
-28 117 -1 20 12 39 19 42 15 7 -6 -37 -176 -46 -176 -3 0 -15 12 -26 27 -30
37 -55 27 -142 -57 l-73 -69 0 -80 c0 -86 9 -105 57 -117 14 -4 46 -2 72 4 71
16 73 12 39 -120 l-22 -87 -58 -16 c-32 -9 -58 -18 -58 -21 0 -3 -5 -47 -10
-99 -11 -91 -10 -95 13 -132 24 -38 24 -42 14 -126 -10 -81 -12 -87 -40 -98
-26 -11 -28 -15 -22 -48 3 -20 8 -56 11 -81 4 -25 12 -52 19 -60 19 -22 12
-388 -10 -454 -8 -27 -15 -71 -15 -98 0 -54 -17 -66 -22 -15 -3 33 -20 41 -26
12 -6 -29 8 -67 23 -62 7 3 15 0 17 -6 2 -7 -1 -152 -7 -323 l-10 -311 -28
-36 c-15 -20 -31 -37 -36 -37 -4 0 -20 27 -36 60 l-29 60 21 42 c23 46 32 161
38 453 4 278 4 275 18 275 22 0 38 48 50 147 12 109 2 156 -43 202 -29 28 -30
33 -30 119 0 76 3 91 20 107 12 11 20 31 20 50 0 18 7 49 15 68 21 50 19 99
-5 130 -21 26 -20 43 6 200 7 36 6 39 -17 35 -21 -3 -25 -11 -40 -103 -17
-105 -41 -195 -88 -335 -27 -81 -30 -86 -73 -107 l-45 -22 -7 -78 c-7 -81 3
-133 25 -133 15 0 6 -140 -16 -253 -18 -97 -22 -103 -46 -81 -19 17 -23 14
-20 -18 1 -9 -3 -19 -9 -23 -5 -3 -10 -19 -10 -36 0 -35 21 -38 44 -7 19 26
21 65 -14 -382 -11 -140 -20 -276 -20 -301 0 -36 -5 -50 -28 -72 -15 -15 -38
-27 -49 -27 -18 0 -23 8 -28 47 -4 27 -10 69 -14 96 -6 35 -4 65 10 115 27 97
62 385 66 547 4 129 6 142 28 171 17 22 24 44 24 71 -1 21 2 50 6 65 5 19 0
42 -18 80 -20 42 -27 76 -32 159 l-7 106 49 7 c73 9 113 61 113 143 0 28 -8
43 -35 69 -19 18 -35 39 -35 48 0 8 -12 28 -26 45 -20 24 -34 31 -60 31 -30 0
-37 5 -48 31 -7 17 -16 28 -18 23 -13 -22 -18 -92 -9 -118 19 -49 5 -71 -62
-99 -86 -35 -107 -39 -232 -46 -94 -5 -110 -9 -113 -23 -3 -14 4 -18 32 -18
42 0 49 -10 35 -46 -12 -34 -25 -44 -60 -44 -17 0 -29 -7 -32 -18 -3 -9 -17
-50 -31 -90 l-26 -74 21 -30 c12 -16 22 -42 23 -56 1 -15 5 -33 10 -41 5 -8
11 -80 14 -161 4 -117 1 -157 -11 -196 -15 -43 -15 -84 -7 -344 5 -162 12
-319 16 -349 7 -52 7 -53 -14 -42 -18 10 -27 8 -52 -11 -52 -38 -61 -4 -42
167 14 120 14 303 1 461 -8 105 -7 138 4 174 10 35 12 71 6 150 -4 58 -8 143
-8 189 -1 47 -8 110 -17 141 l-15 56 64 169 c36 94 73 200 82 237 19 79 17
143 -5 143 -11 0 -17 -16 -23 -55 -20 -131 -87 -339 -131 -402 -14 -19 -15
-18 -31 33 -19 63 -31 201 -21 253 5 26 15 40 32 48 15 7 49 50 81 102 66 106
74 158 34 214 -27 38 -82 66 -115 58 -22 -5 -24 -2 -30 47 -3 28 -6 75 -6 104
0 89 19 107 56 50 19 -30 23 -32 76 -30 66 2 155 42 167 75 5 13 0 46 -12 89
-11 37 -17 78 -13 91 4 13 34 42 74 70 37 25 86 60 110 78 64 48 51 21 -28
-56 -77 -75 -90 -108 -70 -169 21 -64 122 -113 205 -100 35 5 45 12 64 45 17
30 20 48 15 75 -5 29 -1 43 21 75 22 32 26 46 21 74 -7 35 -48 79 -83 90 -10
3 -24 15 -31 27 -12 19 -9 25 30 69 50 55 58 59 58 26 0 -31 83 -144 116 -156
56 -21 156 -7 198 29 32 27 48 76 34 106 -6 14 -14 25 -17 25 -13 0 -39 57
-45 100 -10 66 -24 96 -52 110 -13 8 -24 18 -24 23 0 16 91 118 100 112 4 -3
18 -45 30 -95 17 -69 30 -98 54 -124 43 -46 70 -50 155 -21 151 51 164 71 131
207 -28 116 -55 149 -135 167 -30 7 -64 20 -77 30 -24 20 -26 15 34 70 l27 23
58 -45 c42 -33 71 -47 105 -52 l47 -7 35 48 c20 27 51 60 71 74 41 30 43 44
10 102 -14 25 -27 69 -31 103 -5 48 -11 65 -33 82 l-26 23 25 47 c20 38 30 48
51 49 31 1 84 32 118 68 31 33 40 106 17 140 -18 28 -20 45 -7 65 7 11 15 9
43 -13 38 -28 85 -34 121 -15 31 17 37 28 37 75 0 30 8 53 31 83 35 49 36 59
19 122 -12 43 -12 52 9 105 13 33 25 74 28 92 5 34 23 41 42 18z m-2485 -188
c3 -13 6 -39 6 -59 0 -39 -8 -49 -109 -139 -41 -36 -52 -52 -57 -87 -7 -49
-37 -93 -62 -93 -9 0 -39 11 -66 25 -55 28 -89 30 -183 14 -35 -6 -67 -9 -70
-6 -3 3 -8 26 -10 50 l-5 43 193 96 c107 53 225 114 264 137 38 23 75 41 81
41 6 0 14 -10 18 -22z m2370 -52 l18 -37 -30 -43 c-18 -25 -33 -61 -37 -90 -7
-46 -14 -54 -52 -60 -69 -12 -79 92 -16 167 12 16 23 34 23 40 0 16 52 68 65
64 5 -2 18 -20 29 -41z m-1381 -117 c126 -77 126 -78 23 -240 -46 -74 -103
-160 -126 -191 -48 -66 -67 -71 -144 -38 l-46 19 0 68 c0 66 -2 70 -36 102
-32 31 -35 38 -29 70 10 54 24 70 85 94 50 20 58 27 85 82 17 33 34 66 38 73
17 25 67 12 150 -39z m982 -119 l28 -29 -49 -108 c-27 -59 -55 -114 -62 -121
-7 -8 -19 -30 -27 -49 -8 -19 -28 -51 -45 -71 -17 -21 -30 -48 -30 -64 0 -44
-84 -199 -125 -231 -30 -24 -267 -298 -310 -360 -29 -42 -22 -10 14 62 27 55
45 79 69 90 37 19 44 46 10 38 -13 -3 -32 -8 -44 -12 -19 -6 -22 -2 -28 41
-11 82 -7 231 7 242 8 7 38 3 101 -14 50 -13 92 -21 95 -18 3 2 4 47 2 98 -2
74 1 96 13 109 14 14 96 37 131 37 20 0 19 14 -2 31 -29 24 -93 131 -93 156 0
20 5 23 38 23 20 0 61 -11 90 -25 30 -14 56 -25 58 -25 2 0 4 27 4 61 0 69 20
119 58 149 35 28 64 25 97 -10z m-2769 -102 c8 -27 86 -125 126 -158 l29 -25
-24 -85 c-13 -47 -30 -110 -37 -140 -13 -56 -43 -124 -58 -134 -18 -11 -242
-38 -266 -32 -32 8 -78 94 -76 140 0 17 2 91 3 165 2 107 5 136 17 143 120 72
257 148 267 148 6 0 15 -10 19 -22z m3174 -138 c12 -12 20 -33 20 -53 0 -18 6
-42 14 -53 13 -17 11 -25 -16 -76 -23 -43 -36 -58 -52 -58 -12 0 -38 -11 -58
-25 -47 -32 -90 -41 -105 -23 -13 16 -43 135 -43 170 0 27 21 47 84 78 15 8
38 25 50 37 27 29 79 30 106 3z m-3690 -179 c0 -16 7 -48 15 -71 24 -67 19
-109 -20 -180 -19 -36 -35 -73 -35 -82 0 -36 -34 -89 -60 -94 -14 -3 -42 -12
-62 -20 l-38 -14 -26 52 c-31 60 -29 91 11 170 21 43 91 144 115 168 3 3 18
23 35 45 46 64 65 71 65 26z m3266 11 c6 -4 14 -31 18 -61 4 -30 18 -75 31
-100 l23 -47 -63 -69 -64 -69 -40 14 c-45 15 -91 57 -93 86 -2 19 157 254 170
254 4 0 12 -4 18 -8z m-1371 -166 c10 -25 25 -53 35 -63 45 -49 45 -60 -1
-126 -69 -100 -191 -237 -211 -237 -21 0 -147 75 -165 98 -16 20 -16 82 0 103
7 9 32 28 57 44 59 36 105 79 143 135 71 104 115 118 142 46z m1599 -142 c9
-3 23 -21 32 -39 15 -33 15 -35 -27 -124 -47 -99 -44 -97 -131 -85 l-45 6 -10
54 c-12 65 -4 79 48 88 36 6 61 27 92 79 19 30 19 30 41 21z m-456 -129 c23
-4 49 -13 57 -21 15 -15 65 -166 65 -195 0 -39 -122 -99 -200 -99 -42 0 -80
49 -80 105 0 25 -9 69 -21 100 -23 62 -26 54 40 127 l24 27 36 -18 c20 -10 55
-22 79 -26z m-3097 -217 c36 -39 99 -163 99 -195 0 -15 -19 -37 -60 -69 -33
-26 -60 -52 -60 -58 0 -21 -74 -86 -98 -86 -14 0 -47 20 -81 50 l-57 50 7 61
c5 46 14 70 37 98 16 21 45 65 63 99 26 48 41 65 64 71 48 14 54 13 86 -21z
m2781 -57 c3 -3 14 -35 23 -70 9 -35 27 -80 41 -100 43 -64 26 -100 -62 -127
-68 -20 -76 -19 -123 28 -51 52 -57 73 -42 144 11 59 36 98 79 126 25 16 66
16 84 -1z m-582 -46 c107 -14 214 -30 237 -36 23 -5 53 -9 67 -9 14 0 26 -4
26 -8 0 -4 -33 -41 -74 -82 -65 -67 -211 -181 -351 -275 -86 -59 -119 -83
-160 -120 l-40 -35 -3 170 c-2 128 1 185 13 229 8 32 15 84 15 114 0 78 6 89
44 82 17 -2 119 -16 226 -30z m1182 -37 c29 -31 29 -32 14 -67 -8 -20 -18 -47
-21 -61 -16 -67 -38 -97 -89 -128 -60 -37 -87 -40 -125 -12 -25 17 -71 114
-71 147 0 6 37 27 83 47 45 21 100 52 122 71 22 19 44 34 48 35 5 0 22 -14 39
-32z m-1498 -55 c-4 -32 -11 -68 -15 -81 -5 -13 -9 -109 -9 -213 0 -213 0
-214 -68 -151 -50 46 -60 80 -39 130 28 63 31 109 12 139 -16 24 -16 33 -4 97
16 85 54 136 101 136 l29 0 -7 -57z m626 -213 c44 -31 47 -55 11 -95 -29 -33
-30 -39 -25 -93 8 -76 -4 -87 -87 -79 -76 7 -105 31 -115 94 l-7 45 74 74 c81
80 102 88 149 54z m-1512 -83 c8 -6 11 -19 7 -31 -4 -12 -10 -43 -14 -71 l-6
-50 -52 -3 c-57 -3 -93 10 -93 34 0 8 20 36 43 62 24 26 47 55 50 65 7 19 37
16 65 -6z m-1594 -8 l-19 -22 32 17 c46 23 47 21 16 -21 -25 -35 -26 -36 -4
-18 l24 20 -7 -20 c-21 -53 -44 -145 -36 -145 4 0 11 19 15 41 4 23 10 37 14
30 8 -12 41 49 41 74 0 8 5 15 10 15 15 0 12 -35 -8 -87 -18 -48 -118 -183
-135 -183 -8 0 -2 149 8 210 4 22 3 22 -4 5 -5 -11 -13 -29 -17 -40 -6 -18 -8
-18 -11 -2 -7 28 16 85 49 117 34 34 61 41 32 9z m2121 -28 c70 -31 70 -30 35
-213 -58 -310 -54 -293 -80 -290 -40 4 -120 71 -152 128 -16 30 -34 57 -39 60
-18 11 -8 62 19 100 15 21 41 83 57 136 l30 98 45 0 c25 0 63 -9 85 -19z m620
-100 c21 -69 16 -88 -22 -97 -15 -3 -42 -12 -60 -20 -50 -23 -82 -18 -94 13
-5 14 -8 33 -7 42 3 17 135 120 154 121 6 0 19 -27 29 -59z m-2291 24 c14 -13
26 -32 26 -42 0 -27 37 -83 81 -124 32 -30 39 -43 39 -74 0 -30 -7 -44 -36
-71 -29 -28 -43 -34 -80 -34 -30 0 -57 -8 -85 -26 -24 -15 -51 -24 -67 -22
l-27 3 -2 183 -2 182 37 25 c48 31 83 31 116 0z m3389 -40 c21 -44 22 -124 3
-170 -12 -27 -21 -35 -40 -35 -14 0 -28 -4 -31 -10 -8 -12 -85 -13 -104 -1
-10 7 -12 24 -6 78 6 62 10 71 35 86 15 9 41 32 56 51 38 46 66 46 87 1z
m-1613 -130 c6 -8 41 -31 77 -50 78 -44 92 -68 72 -127 -7 -24 -13 -74 -14
-112 l0 -70 -60 -13 c-96 -20 -102 -18 -108 25 -12 77 -19 251 -13 305 8 58
22 71 46 42z m-539 -68 c4 -14 12 -93 18 -174 6 -81 16 -214 23 -295 6 -88 8
-195 4 -265 -13 -208 -16 -447 -7 -480 9 -30 7 -33 -12 -37 -12 -3 -198 -8
-413 -11 -349 -6 -395 -5 -423 9 -17 9 -31 20 -31 25 0 4 9 34 20 66 14 41 20
84 20 149 0 103 17 167 106 399 18 48 40 118 49 155 9 37 27 101 40 142 13 41
30 113 39 159 24 123 30 131 119 131 40 0 131 11 202 25 118 22 205 33 229 30
6 -1 13 -13 17 -28z m-585 -19 c-10 -42 -36 -163 -41 -200 -6 -38 -6 -38 -53
-38 -66 0 -122 -39 -122 -84 0 -12 -21 -52 -46 -91 -100 -151 -105 -179 -41
-226 23 -18 53 -45 65 -61 l24 -28 -21 -83 c-11 -45 -23 -124 -26 -175 -3 -52
-11 -106 -19 -120 -24 -49 -29 -86 -28 -237 1 -82 -2 -193 -6 -245 -8 -87 6
-456 23 -660 l7 -75 -24 22 c-30 29 -34 29 -70 -2 -39 -33 -58 -32 -58 3 0 16
-14 68 -31 118 -22 65 -29 100 -24 129 32 229 45 425 41 610 -2 110 -7 211
-10 225 -6 21 -3 27 25 39 53 23 69 46 69 96 0 42 3 48 35 66 38 23 41 37 24
104 -6 22 -17 72 -25 110 -16 80 -30 95 -88 95 -65 0 -75 12 -43 54 15 19 27
38 27 41 0 4 33 64 74 133 40 70 94 164 119 210 42 75 140 211 194 269 29 31
57 31 49 1z m-195 -38 c10 -6 19 -17 19 -25 0 -8 -31 -63 -69 -122 -37 -60
-80 -132 -95 -160 -36 -71 -44 -70 -89 13 -35 66 -34 84 6 109 18 11 58 59 90
108 52 77 62 87 89 87 16 0 38 -5 49 -10z m1689 -117 c41 -24 46 -72 15 -132
-14 -25 -25 -50 -25 -54 0 -15 -55 -87 -66 -87 -8 0 -10 37 -7 133 4 104 9
135 21 145 21 16 28 15 62 -5z m-419 -241 c9 -40 10 -55 1 -64 -7 -7 -12 -24
-12 -40 0 -43 -25 -127 -60 -203 -44 -95 -50 -138 -39 -290 13 -186 16 -197
42 -193 15 2 23 11 26 28 1 14 11 36 21 50 19 27 60 188 61 241 0 19 4 43 9
54 16 37 11 -100 -5 -146 -9 -23 -18 -89 -22 -146 -3 -57 -9 -105 -12 -107 -3
-2 -57 -7 -118 -11 l-113 -7 0 25 c0 13 7 44 15 68 9 23 20 108 26 188 7 104
19 180 40 261 39 148 44 172 69 310 11 63 26 138 32 165 l12 50 8 -90 c4 -49
12 -114 19 -143z m-339 167 c31 -21 58 -44 61 -51 2 -7 -2 -38 -9 -68 -7 -30
-13 -66 -14 -80 -1 -49 -22 -104 -52 -132 -17 -15 -33 -26 -37 -23 -5 2 -13
64 -19 137 -19 216 -21 255 -15 262 7 6 9 5 85 -45z m-802 -58 c0 -5 -9 -37
-19 -72 -11 -35 -27 -93 -36 -129 -21 -81 -66 -180 -82 -180 -7 0 -13 3 -13 8
0 4 -20 20 -45 35 -25 16 -45 37 -45 46 0 9 31 64 69 122 38 58 71 118 73 134
2 25 8 31 38 36 54 10 60 10 60 0z m-610 -40 c5 -11 10 -29 10 -40 0 -11 16
-36 35 -57 19 -20 35 -44 35 -53 0 -21 -80 -101 -100 -101 -8 0 -43 -13 -77
-30 -74 -34 -69 -48 -48 135 8 72 15 135 15 142 0 12 28 19 87 22 23 1 35 -5
43 -18z m2797 -203 c6 -7 13 -25 17 -40 3 -15 22 -39 41 -54 39 -30 46 -65 20
-113 -16 -33 -33 -41 -79 -41 -37 0 -35 -6 -52 183 l-7 77 25 0 c14 0 30 -6
35 -12z m-916 -172 c6 -32 22 -64 54 -102 25 -31 45 -64 45 -74 0 -10 -11 -32
-25 -48 -13 -16 -28 -47 -33 -70 -10 -41 -37 -80 -49 -68 -11 10 -21 105 -23
196 0 47 -7 121 -15 165 -19 105 -19 104 11 73 16 -15 30 -44 35 -72z m824 13
c4 -6 14 -88 21 -182 13 -148 13 -180 1 -227 l-14 -55 -59 -7 c-83 -10 -328
-26 -335 -22 -20 11 83 434 105 434 44 0 168 27 208 45 62 28 65 28 73 14z
m-2424 -61 c14 -11 59 -182 59 -220 0 -7 -13 -22 -29 -32 -23 -16 -30 -29 -34
-65 -3 -31 -12 -50 -28 -62 -13 -10 -27 -19 -30 -19 -12 0 -19 46 -19 140 -1
52 -5 127 -9 165 -5 40 -4 78 1 88 10 20 66 23 89 5z m1446 -60 c-4 -40 -9
-84 -13 -98 -5 -20 -4 -23 6 -13 7 6 14 48 17 97 3 48 9 84 12 80 6 -6 13 -74
12 -124 0 -36 -56 -213 -69 -218 -19 -6 -34 105 -27 204 6 82 11 97 33 119 13
14 27 25 30 25 3 0 2 -33 -1 -72z m1326 -22 c4 -24 4 -89 0 -144 l-6 -100 -39
-12 c-48 -14 -54 -9 -40 27 6 15 15 51 21 78 33 165 43 205 50 200 5 -2 11
-24 14 -49z m-2983 0 c0 -38 -40 -157 -69 -206 -14 -25 -32 -58 -39 -74 l-13
-29 -39 38 c-22 22 -40 45 -40 52 0 7 25 53 56 101 77 121 144 176 144 118z
m84 -213 l5 -133 -32 0 c-18 0 -56 -6 -85 -14 -41 -10 -52 -10 -52 -1 0 15 42
109 57 127 6 7 25 63 43 123 17 61 34 117 37 125 9 21 20 -73 27 -227z m1703
-148 c25 -138 34 -375 22 -586 -12 -214 -13 -262 -10 -299 3 -37 -14 -185 -23
-199 -5 -7 -14 -10 -21 -7 -7 2 -23 -4 -36 -15 -32 -28 -48 -24 -65 18 -13 29
-14 48 -5 97 26 153 55 386 55 436 -1 30 -4 87 -8 125 l-8 70 37 23 c53 34 63
62 41 123 -10 27 -15 57 -12 65 4 9 -1 28 -10 42 -14 21 -15 36 -5 117 6 52
11 99 12 107 1 27 21 -39 36 -117z m297 -1179 c20 -97 29 -186 19 -186 -5 0
-13 15 -18 33 -14 45 -39 42 -43 -6 l-3 -38 -67 3 -67 3 2 94 c3 88 5 97 30
123 15 15 32 28 39 28 7 0 26 11 41 25 25 22 29 22 40 8 7 -9 19 -48 27 -87z
m1030 96 c2 -4 10 -48 16 -96 9 -64 9 -91 1 -99 -8 -8 -11 4 -11 46 0 43 -4
57 -14 57 -10 0 -16 -19 -21 -65 l-7 -65 -44 0 c-24 0 -44 1 -44 3 0 1 9 34
20 72 11 38 20 79 20 90 1 11 15 30 33 42 36 24 44 26 51 15z m-364 -127 c0
-47 -4 -85 -9 -85 -6 0 -9 19 -8 43 2 36 -1 42 -18 42 -12 0 -19 -6 -17 -15 2
-8 1 -29 -3 -47 -5 -30 -9 -33 -42 -33 -20 0 -44 7 -53 15 -15 14 -15 20 1 82
l17 68 41 1 c22 0 44 3 47 7 4 4 16 7 26 7 16 0 18 -9 18 -85z m-2470 56 c0
-6 12 -16 27 -23 25 -12 29 -21 40 -93 16 -112 16 -115 -7 -115 -18 0 -20 7
-20 55 0 48 -2 55 -20 55 -18 0 -20 -7 -20 -61 l0 -62 -60 6 c-94 8 -105 27
-74 132 13 46 22 58 62 84 49 31 72 38 72 22z m1048 -27 c19 -31 22 -47 20
-137 -1 -56 -3 -84 -5 -62 -6 61 -10 68 -32 55 -17 -9 -19 -17 -14 -66 l6 -57
-52 5 c-28 3 -54 8 -58 11 -3 4 -1 38 6 76 6 39 11 85 11 103 0 27 6 37 30 52
17 10 36 26 43 37 16 25 18 24 45 -17z m-1768 -69 c7 -8 19 -15 26 -15 11 0
14 -22 14 -105 0 -60 -4 -105 -10 -105 -50 0 -175 53 -185 78 -3 7 2 44 11 82
15 69 16 69 52 73 73 7 80 7 92 -8z"/>
<path d="M4926 6816 c-7 -6 -17 -24 -20 -41 -15 -67 -15 -68 47 -89 l59 -20
33 39 c41 48 43 65 12 92 -28 24 -110 36 -131 19z"/>
<path d="M3797 5439 c-44 -38 -51 -41 -124 -46 -64 -5 -95 -14 -173 -50 -143
-66 -174 -121 -105 -182 20 -17 39 -31 43 -31 4 0 36 -28 72 -62 100 -97 178
-110 238 -40 38 43 60 85 67 125 6 33 16 44 59 71 28 18 76 41 106 53 67 25
73 44 33 109 -49 81 -66 94 -121 94 -43 0 -55 -5 -95 -41z m151 -21 c21 -23
42 -69 42 -93 0 -7 -11 -16 -24 -19 -13 -3 -55 -23 -93 -45 -65 -36 -69 -42
-93 -102 -36 -93 -62 -125 -106 -132 -49 -8 -92 13 -144 69 -22 24 -55 51 -72
60 -71 36 -77 82 -18 119 22 14 49 25 61 25 22 0 91 37 97 52 2 4 42 8 90 8
l85 0 36 40 c31 34 42 40 77 40 29 0 46 -6 62 -22z"/>
<path d="M2679 4779 c-56 -25 -85 -75 -101 -175 -13 -83 -6 -106 43 -157 23
-24 44 -58 50 -82 15 -60 30 -85 76 -132 39 -39 47 -43 93 -43 35 0 69 9 112
30 72 34 185 123 207 161 13 24 12 30 -22 85 -23 38 -38 78 -43 111 -8 61 -12
67 -81 117 -29 20 -54 45 -58 55 -16 51 -184 69 -276 30z m213 -21 c8 -7 25
-28 37 -46 13 -18 40 -41 62 -52 45 -23 56 -41 65 -101 3 -24 14 -55 23 -69
10 -14 26 -40 35 -58 17 -32 17 -35 -1 -54 -28 -32 -114 -93 -168 -120 -125
-63 -183 -38 -226 97 -17 52 -33 82 -67 117 l-45 47 7 66 c14 136 64 181 207
184 31 0 62 -4 71 -11z"/>
<path d="M2143 4426 c-31 -27 -44 -50 -56 -93 -31 -113 -46 -287 -31 -362 6
-29 9 -31 51 -31 54 0 99 18 146 60 50 44 120 50 238 21 114 -28 194 -28 209
-2 23 44 0 124 -47 169 -36 34 -92 62 -123 62 -28 0 -88 75 -101 124 -17 69
-34 78 -148 84 l-98 5 -40 -37z m199 -6 c30 -9 39 -17 49 -47 26 -79 109 -163
162 -163 30 0 96 -61 107 -98 19 -69 17 -72 -52 -72 -34 0 -100 10 -145 21
-115 29 -173 22 -238 -32 -49 -40 -80 -53 -112 -47 -28 5 -39 120 -19 202 9
34 16 75 16 90 0 40 48 136 74 146 29 12 114 12 158 0z"/>
<path d="M1464 3931 c-17 -10 -41 -33 -54 -51 -20 -28 -22 -40 -18 -113 4 -75
9 -91 58 -185 69 -133 101 -162 178 -162 72 0 98 14 203 110 117 106 179 183
179 222 0 40 -66 153 -97 167 -14 7 -51 9 -91 5 -42 -4 -103 0 -164 10 -126
21 -156 20 -194 -3z m156 -32 c25 -6 94 -11 154 -11 121 1 141 -7 176 -63 11
-18 20 -43 20 -57 0 -34 -90 -147 -185 -232 -64 -57 -85 -71 -126 -78 -36 -7
-57 -5 -76 4 -29 14 -93 113 -129 198 -42 100 -26 218 33 242 27 10 82 9 133
-3z"/>
<path d="M2295 3912 c-32 -4 -106 -59 -130 -96 -7 -11 -25 -72 -39 -135 -14
-63 -30 -119 -36 -125 -5 -5 -10 -33 -10 -61 0 -49 1 -51 53 -91 73 -57 129
-84 177 -84 34 0 54 9 117 56 42 31 99 66 127 77 62 25 95 54 147 130 l40 58
-18 47 c-9 25 -32 66 -51 90 -18 24 -38 54 -43 66 -17 37 -61 56 -146 61 -43
3 -96 7 -118 9 -22 1 -53 1 -70 -2z m220 -48 c57 -7 79 -25 124 -102 57 -97
59 -112 23 -164 -50 -72 -85 -103 -135 -122 -27 -10 -81 -40 -120 -67 -47 -33
-81 -49 -101 -49 -44 1 -115 35 -159 78 -35 34 -37 39 -31 81 4 24 15 64 24
90 33 84 39 106 46 145 6 45 60 106 92 106 12 0 24 5 27 10 6 10 111 7 210 -6z"/>
<path d="M2770 3521 c-19 -15 -46 -32 -60 -36 -34 -11 -40 -22 -40 -82 0 -63
16 -75 93 -71 l52 3 -3 54 c-3 38 2 64 15 88 13 25 15 38 7 50 -16 26 -27 25
-64 -6z"/>
<path d="M1442 3342 c-12 -2 -29 -13 -37 -25 -9 -12 -42 -60 -75 -107 -47 -66
-59 -90 -55 -110 8 -32 59 -81 112 -109 23 -11 44 -25 47 -30 4 -5 30 -15 59
-21 98 -20 157 25 157 121 0 50 3 55 50 101 28 26 50 54 50 61 0 24 -34 44
-84 51 -27 3 -74 18 -105 33 -70 34 -90 40 -119 35z m75 -53 c19 -12 66 -29
104 -39 39 -10 73 -21 76 -24 3 -3 -13 -26 -35 -51 -35 -40 -40 -52 -44 -105
-5 -76 -25 -100 -84 -100 -51 0 -134 42 -196 99 -34 30 -35 49 -5 81 13 14 40
53 61 87 34 55 48 68 80 72 5 0 24 -9 43 -20z"/>
<path d="M2467 3320 c-88 -28 -107 -62 -59 -109 15 -15 40 -42 56 -60 30 -34
63 -38 76 -11 23 47 31 96 25 146 -7 62 -9 63 -98 34z"/>
<path d="M5168 4785 c-54 -11 -88 -28 -88 -46 0 -12 57 -69 69 -69 6 0 25 9
43 20 18 11 41 20 51 20 24 0 32 26 17 55 -17 32 -26 34 -92 20z"/>
<path d="M4115 3241 c-49 -15 -113 -39 -141 -54 l-51 -26 -12 -73 c-19 -110 5
-157 82 -158 26 0 54 10 90 33 29 18 70 41 91 52 22 11 53 32 69 48 18 16 41
27 58 27 37 0 43 13 28 58 -13 39 -89 122 -111 121 -7 0 -53 -13 -103 -28z
m136 -35 c28 -24 49 -57 49 -75 0 -6 -13 -11 -28 -11 -19 0 -38 -11 -58 -31
-16 -17 -53 -42 -81 -56 -29 -14 -53 -28 -53 -32 0 -13 -59 -41 -88 -41 -46 0
-56 20 -48 102 7 82 10 85 106 122 133 51 164 55 201 22z"/>
<path d="M3735 2913 c-49 -11 -73 -27 -89 -59 -21 -46 -66 -64 -158 -64 -100
-1 -113 -11 -104 -87 9 -79 35 -180 57 -224 19 -38 76 -94 114 -111 32 -15 64
-4 106 34 53 48 59 65 59 183 0 118 -6 105 93 193 34 30 37 37 32 65 -7 34
-50 78 -75 76 -8 -1 -24 -3 -35 -6z m53 -49 c28 -19 28 -38 0 -61 -13 -11 -41
-38 -63 -62 l-40 -42 0 -108 c0 -105 -1 -108 -30 -143 -16 -20 -42 -39 -57
-43 -41 -10 -101 35 -133 100 -26 54 -55 166 -55 218 0 30 -3 29 105 32 87 2
151 31 167 76 16 46 66 61 106 33z"/>
<path d="M4055 2863 c-32 -9 -65 -34 -80 -63 -8 -15 -48 -53 -90 -84 -41 -32
-82 -71 -91 -89 -24 -46 -5 -88 74 -169 62 -63 70 -68 110 -68 54 0 107 22
122 51 7 13 10 41 7 68 -9 74 0 97 48 126 80 46 83 120 8 193 -42 41 -60 47
-108 35z m85 -70 c53 -47 53 -85 0 -121 -48 -32 -59 -57 -60 -130 0 -82 -26
-112 -95 -112 -41 0 -50 5 -99 53 -97 95 -97 119 -3 189 35 27 86 70 113 96
74 74 88 76 144 25z"/>
</g>
</svg>
