<?xml version="1.0" standalone="no"?>
<!DOCTYPE svg PUBLIC "-//W3C//DTD SVG 20010904//EN"
 "http://www.w3.org/TR/2001/REC-SVG-20010904/DTD/svg10.dtd">
<svg version="1.0" xmlns="http://www.w3.org/2000/svg"
 width="846.000000pt" height="624.000000pt" viewBox="0 0 846.000000 624.000000"
 preserveAspectRatio="xMidYMid meet">

<g transform="translate(0.000000,624.000000) scale(0.100000,-0.100000)"
fill="#000000" stroke="none">
<path d="M260 6225 c0 -8 5 -15 11 -15 8 0 9 -12 3 -37 -11 -53 -7 -92 11
-119 14 -23 11 -54 -6 -54 -16 0 -49 -79 -49 -119 0 -31 6 -44 26 -60 l27 -21
-29 -22 c-42 -33 -126 -118 -151 -153 -35 -50 -48 -107 -32 -141 17 -35 71
-64 122 -64 48 0 48 -18 1 -64 l-37 -36 24 -19 c13 -11 27 -20 32 -21 15 0 6
-23 -18 -46 -32 -30 -32 -52 4 -101 38 -52 64 -103 57 -111 -4 -3 -38 -18 -77
-33 -85 -33 -136 -67 -143 -94 -7 -24 17 -61 44 -70 28 -9 25 -33 -10 -63 -20
-18 -30 -36 -30 -54 0 -21 -5 -28 -20 -28 -15 0 -20 -7 -20 -25 0 -22 4 -25
34 -25 34 0 46 15 46 63 0 10 21 44 46 75 l46 57 -52 22 c-73 33 -65 49 49 95
52 21 101 44 108 50 26 21 15 72 -29 133 -50 70 -46 81 37 119 6 3 2 10 -7 16
-9 6 -26 23 -37 39 -19 27 -19 29 -3 47 26 29 63 102 55 107 -5 2 -37 5 -72 6
-117 3 -147 41 -98 124 35 60 131 154 192 189 39 22 39 49 0 61 -47 15 -57 27
-51 61 9 46 46 93 88 113 50 24 52 53 4 53 -28 0 -36 5 -47 32 -11 28 -10 35
9 71 22 40 22 40 3 59 -24 22 -61 24 -61 3z"/>
<path d="M717 6210 c-12 -24 -13 -31 -2 -40 10 -8 17 -5 29 11 8 13 19 20 23
16 11 -11 -17 -79 -43 -106 -41 -41 -31 -64 23 -49 56 15 83 -2 83 -52 0 -32
-6 -46 -32 -70 -17 -17 -42 -33 -55 -36 -28 -7 -29 -12 -4 -33 35 -31 51 -88
51 -185 0 -70 -5 -101 -21 -136 -39 -87 -72 -101 -119 -50 -38 41 -60 40 -60
-3 0 -42 -26 -67 -67 -67 -48 0 -54 -36 -8 -53 6 -3 2 -17 -8 -33 -36 -57 -69
-136 -61 -143 5 -4 36 -15 69 -25 59 -18 115 -63 115 -92 0 -8 -14 -41 -30
-73 -34 -64 -50 -131 -32 -131 6 0 48 15 94 33 126 51 156 60 192 53 35 -7 66
-48 66 -88 -1 -37 -36 -104 -75 -143 -36 -36 -121 -85 -148 -85 -17 0 -43 -28
-34 -37 4 -3 17 -11 29 -18 59 -29 -5 -125 -89 -135 -46 -5 -48 -7 -46 -34 1
-16 -2 -37 -7 -47 -12 -22 -92 -40 -131 -29 -36 11 -43 1 -34 -50 12 -73 -2
-111 -76 -204 -38 -49 -69 -94 -69 -100 0 -7 9 -21 19 -30 10 -9 31 -37 47
-62 15 -24 32 -44 36 -44 19 0 4 -23 -62 -92 -38 -40 -69 -79 -70 -85 0 -8 13
-13 31 -13 29 0 31 -2 24 -27 -5 -16 -9 -56 -9 -90 -2 -111 23 -96 89 55 69
159 84 174 126 136 15 -14 19 -13 37 11 12 14 29 47 38 73 91 250 137 311 201
267 21 -15 24 -13 70 52 69 97 74 104 118 146 40 38 75 54 94 42 20 -12 10
-30 -29 -55 -78 -51 -129 -131 -259 -412 -17 -37 -31 -72 -31 -77 0 -6 -4 -11
-10 -11 -5 0 -10 -5 -10 -11 0 -29 -99 -156 -203 -260 -118 -119 -233 -276
-273 -372 -10 -26 -24 -47 -30 -47 -5 0 -19 24 -30 53 -36 99 -25 260 51 712
13 77 27 173 30 212 5 42 13 78 21 84 11 9 12 15 3 25 -18 22 -6 141 20 199
12 28 46 82 75 120 139 184 154 277 66 429 -45 77 -48 103 -24 197 20 77 13
146 -21 231 -14 34 -25 69 -25 78 0 10 27 71 59 136 81 162 95 232 96 479 0
162 -2 190 -15 190 -13 0 -16 -33 -21 -210 -7 -248 -15 -281 -99 -451 -33 -67
-60 -132 -60 -146 0 -14 12 -52 26 -84 34 -76 41 -162 20 -233 -22 -76 -20
-119 9 -166 84 -136 92 -210 34 -315 -20 -36 -60 -96 -89 -135 -48 -64 -62
-89 -84 -150 l-7 -20 -11 20 c-6 11 -20 30 -30 42 l-20 22 -34 -35 c-52 -51
-104 -58 -104 -13 0 10 -4 19 -10 19 -5 0 -10 -16 -10 -35 0 -29 5 -37 27 -46
35 -13 64 -5 103 28 26 21 33 24 41 12 13 -21 11 -46 -7 -82 -12 -23 -13 -32
-5 -35 16 -5 51 -43 51 -54 0 -11 -77 -46 -119 -54 -17 -4 -34 -10 -37 -15 -4
-7 20 -54 36 -69 3 -3 11 -15 18 -28 15 -26 5 -47 -27 -57 -24 -7 -46 -55 -65
-141 -20 -89 -20 -94 -1 -94 18 0 29 25 45 105 7 33 14 65 15 71 2 6 26 27 54
47 63 46 62 59 16 -213 -19 -113 -40 -266 -46 -341 -11 -145 -8 -170 39 -299
18 -48 19 -58 6 -81 -17 -35 -28 -127 -20 -171 4 -21 25 -54 57 -88 l51 -54
-6 -55 c-3 -31 -8 -78 -12 -104 -5 -39 -2 -57 20 -101 28 -57 36 -105 13 -75
-7 9 -27 24 -46 33 -32 17 -33 20 -28 60 6 45 -5 112 -22 129 -7 7 -16 6 -28
-5 -17 -14 -75 -38 -94 -38 -4 0 -12 12 -17 28 -10 26 -10 25 -11 -15 -1 -42
-1 -43 33 -43 19 0 47 5 62 10 21 8 30 8 36 -2 9 -14 5 -101 -7 -130 -6 -14
-2 -18 18 -18 64 0 83 -33 62 -104 -13 -41 -86 -196 -105 -221 -15 -20 -40
-109 -40 -142 l0 -34 51 7 51 7 -26 -51 c-15 -29 -26 -68 -26 -90 0 -41 17
-102 29 -102 3 0 23 11 43 25 20 14 39 25 42 25 4 0 6 -13 6 -29 0 -41 17 -81
46 -112 l25 -26 -21 -53 c-11 -29 -18 -61 -14 -72 3 -11 28 -35 55 -54 53 -39
67 -74 55 -138 -9 -49 -27 -60 -91 -53 l-55 6 15 -35 c14 -33 13 -37 -12 -76
-26 -38 -27 -47 -25 -139 4 -129 -1 -139 -78 -139 -60 0 -60 0 -60 -30 0 -21
-9 -36 -35 -57 -31 -25 -48 -63 -27 -63 19 0 77 52 88 80 11 26 18 30 53 30
28 0 48 7 68 24 28 24 28 26 28 138 1 103 3 118 23 143 12 15 22 38 22 51 0
20 5 24 29 24 67 0 112 86 92 174 -10 45 -17 55 -61 85 -28 19 -50 37 -50 41
0 7 18 59 39 113 l11 27 20 -20 c11 -11 25 -20 31 -20 6 0 9 -5 7 -12 -3 -7 9
-28 26 -47 17 -19 44 -48 59 -65 27 -31 28 -32 21 -123 -6 -89 -6 -92 19 -117
14 -14 35 -26 47 -26 11 0 23 -7 26 -15 13 -32 -25 -85 -155 -218 -189 -192
-224 -265 -160 -333 l22 -23 -42 -101 c-22 -55 -41 -105 -41 -110 0 -23 38 -9
44 16 4 15 25 65 47 111 21 47 39 86 39 88 0 2 -14 17 -30 33 -60 60 -35 109
151 295 138 139 179 200 163 245 -10 26 -22 36 -68 52 l-29 10 5 83 c6 103 -2
129 -65 194 l-51 53 36 0 c22 0 38 -6 41 -14 3 -8 32 -30 64 -48 64 -38 74
-58 48 -107 -19 -37 -15 -38 63 -6 87 35 96 34 89 -15 l-5 -40 41 0 c58 0 103
-29 111 -72 9 -49 -3 -94 -32 -124 -26 -25 -51 -28 -94 -9 -30 12 -32 -20 -4
-48 30 -30 31 -36 12 -80 -19 -48 -83 -75 -139 -60 -46 13 -63 3 -46 -28 9
-18 -18 -46 -100 -101 -41 -28 -53 -48 -27 -48 7 0 18 -6 24 -12 7 -10 1 -20
-24 -38 -28 -21 -33 -29 -28 -50 3 -14 7 -43 8 -64 1 -48 19 -56 50 -23 13 14
42 35 65 47 l42 21 35 -30 c43 -38 63 -39 97 -3 28 29 44 68 83 202 14 46 30
91 37 98 9 11 29 13 89 8 98 -8 129 6 159 70 14 29 41 60 79 89 83 64 96 91
105 210 4 55 12 109 18 120 14 26 38 44 59 45 22 0 140 -39 152 -51 20 -18 25
-8 24 46 -2 60 15 84 58 85 12 0 38 7 58 15 44 19 76 78 75 140 0 37 -26 147
-43 186 -5 12 1 21 22 32 29 14 31 13 131 -55 l101 -69 0 -44 c0 -24 -4 -47
-10 -50 -16 -10 -11 -25 9 -25 10 0 32 -5 50 -11 41 -15 48 -46 26 -120 -26
-86 -13 -122 62 -172 64 -41 103 -72 103 -81 0 -3 -25 -6 -56 -6 l-56 0 20
-33 c26 -44 44 -123 36 -161 -6 -31 -46 -91 -74 -113 -62 -47 -170 -35 -250
28 -27 21 -52 39 -55 39 -3 0 -5 -18 -5 -40 0 -58 -24 -108 -57 -121 -15 -5
-62 -16 -104 -24 -92 -16 -140 -39 -177 -87 -11 -14 -10 -21 5 -45 9 -15 22
-31 27 -35 10 -7 -18 -56 -43 -75 -14 -10 -7 -16 44 -38 60 -27 77 -28 190
-13 16 2 21 -4 23 -29 2 -18 4 -33 6 -33 1 0 35 11 75 25 47 17 89 25 116 23
l43 -3 -15 -40 c-27 -73 -27 -72 5 -78 18 -4 33 -14 37 -27 7 -23 45 -28 45
-6 0 8 -11 27 -24 43 -20 24 -23 36 -19 74 9 78 -36 96 -157 64 -74 -20 -80
-19 -80 10 0 29 -4 29 -79 14 -65 -14 -151 -5 -151 15 0 7 9 25 21 40 19 24
19 27 5 42 -33 32 -39 54 -21 74 19 21 96 50 131 50 58 0 124 23 154 53 16 17
30 38 30 46 1 38 15 41 65 15 43 -22 61 -25 125 -22 69 3 80 6 118 37 65 51
85 99 79 185 -2 39 -8 78 -11 87 -5 12 2 18 31 25 74 18 47 73 -71 149 -76 49
-76 48 -53 144 24 99 16 124 -45 153 -30 14 -35 21 -31 43 5 25 6 25 32 8 376
-252 472 -312 673 -417 92 -49 127 -72 125 -84 -3 -25 53 -182 79 -222 47 -71
74 -90 129 -90 55 0 96 -22 155 -84 42 -45 59 -56 76 -52 12 3 35 3 51 0 29
-6 29 -7 25 -62 -2 -32 -7 -60 -11 -65 -4 -4 -33 -8 -65 -9 -31 -1 -55 -4 -54
-7 2 -3 14 -27 27 -52 l24 -47 -23 -32 c-24 -34 -28 -65 -16 -113 6 -24 11
-27 46 -27 27 0 40 4 40 13 0 8 11 24 25 37 21 20 28 22 64 13 l40 -11 14 62
c13 60 14 61 51 64 20 2 39 9 42 16 4 10 14 11 43 3 30 -8 44 -7 72 7 21 10
35 13 37 6 2 -5 10 -10 19 -10 8 0 27 -9 42 -19 15 -11 47 -27 72 -37 55 -22
94 -61 79 -79 -15 -18 -78 -26 -125 -15 -43 10 -49 7 -59 -27 -7 -21 -5 -21
75 -16 94 5 132 21 153 62 13 25 22 29 73 34 32 3 81 12 110 21 62 17 98 10
187 -36 54 -28 64 -30 135 -26 113 7 178 45 411 248 29 25 55 39 73 40 80 1
334 23 422 36 533 81 909 230 1245 493 47 37 98 72 113 79 31 13 57 64 57 110
0 16 -11 45 -24 65 l-24 35 33 6 c18 4 51 20 74 36 38 28 41 34 41 76 0 90
-49 131 -143 120 l-53 -7 -28 73 c-15 40 -37 93 -48 118 -11 25 -35 83 -54
130 -18 47 -54 128 -79 180 -75 152 -81 134 53 154 155 24 413 81 482 107 30
11 69 25 85 32 44 16 232 109 291 145 68 40 196 109 317 170 l99 50 55 -29
c60 -32 75 -34 120 -19 65 23 101 161 60 235 l-17 30 38 12 c20 6 55 12 78 12
105 2 136 156 40 196 -20 8 -44 15 -54 15 -16 0 -22 15 -37 83 -39 182 -127
371 -279 597 -39 58 -76 110 -83 115 -6 6 -34 39 -63 75 -100 127 -343 378
-453 468 -67 54 -236 154 -329 192 -71 30 -87 43 -206 164 -276 282 -531 653
-607 886 -17 51 -19 53 -28 30 -60 -158 -89 -185 -197 -185 -68 0 -84 5 -162
43 -48 24 -117 63 -154 87 -37 25 -70 45 -75 45 -4 0 -3 -15 2 -32 14 -50 11
-106 -7 -133 -27 -41 -101 -35 -259 21 -71 25 -138 48 -148 51 -13 4 -21 -4
-33 -33 -33 -81 -83 -149 -129 -178 l-46 -29 -132 7 c-73 3 -149 9 -171 12
l-38 6 26 -45 c29 -49 42 -125 28 -171 -10 -37 -66 -83 -111 -92 -31 -7 -33
-6 -22 14 6 11 11 39 11 62 0 32 -6 47 -29 69 -16 16 -35 31 -43 33 -10 4 -8
14 10 45 26 47 29 83 7 83 -25 0 -17 14 22 35 78 43 90 92 36 156 l-27 32 29
21 c16 12 46 37 68 55 40 36 43 52 22 117 -7 21 -5 21 82 17 80 -5 91 -3 116
17 15 12 27 31 27 44 0 19 7 25 39 30 47 7 91 54 91 96 0 22 5 30 23 33 12 2
1 5 -24 6 -45 1 -46 1 -41 -29 6 -43 -21 -70 -70 -70 -22 0 -48 5 -60 11 -28
15 -31 7 -12 -34 29 -61 20 -67 -109 -67 -132 0 -152 -9 -112 -53 43 -46 34
-69 -50 -132 -41 -30 -75 -59 -75 -63 0 -4 18 -24 40 -45 58 -53 52 -81 -28
-121 -25 -13 -37 -15 -47 -6 -21 17 -79 8 -83 -12 -3 -13 3 -18 21 -18 14 0
27 -7 31 -15 3 -8 11 -15 18 -15 7 0 19 -9 25 -19 10 -15 8 -29 -8 -71 -21
-57 -19 -70 15 -70 58 0 79 -65 41 -124 -18 -28 -20 -28 -91 -24 l-73 5 2 -81
c2 -71 -1 -88 -26 -138 -16 -32 -46 -73 -69 -92 -38 -33 -116 -76 -138 -76 -5
0 -19 18 -30 41 -19 37 -20 43 -6 63 19 30 4 62 -44 93 -81 52 -79 49 -37 69
24 11 37 25 37 37 0 17 -5 18 -35 13 -45 -9 -73 7 -77 41 -2 20 -9 29 -26 31
-28 4 -37 24 -23 50 9 18 7 21 -26 29 -35 8 -46 18 -57 56 -5 16 -9 15 -51 -5
-42 -21 -48 -21 -73 -7 -21 11 -28 24 -30 53 -4 45 12 66 78 105 40 23 42 26
22 29 -31 5 -36 22 -17 58 26 50 20 64 -25 64 l-40 0 0 45 c0 25 -4 45 -10 45
-5 0 -10 -4 -10 -8 0 -15 -78 -45 -96 -38 -14 5 -16 15 -11 51 4 25 5 45 3 45
-2 0 -17 -7 -32 -15 -54 -28 -110 -18 -125 22 -8 22 -4 31 26 64 39 43 43 65
20 110 l-16 30 -26 -21 c-33 -26 -67 -26 -94 1 -24 24 -19 51 19 91 l25 27
-84 -5 c-98 -7 -150 6 -128 32 17 21 60 42 106 53 35 8 33 9 -28 10 -59 1 -69
-2 -93 -25 -54 -55 -19 -104 80 -112 l54 -4 0 -35 c0 -25 8 -43 31 -65 28 -29
33 -30 85 -24 50 6 54 5 45 -11 -5 -10 -21 -29 -35 -42 -14 -14 -26 -30 -26
-37 0 -7 -14 -17 -32 -23 -17 -6 -39 -17 -47 -25 -10 -8 -29 -12 -48 -9 -28 5
-33 9 -33 33 0 20 -6 29 -21 33 -12 3 -18 10 -15 16 4 5 -3 16 -14 24 -25 17
-86 7 -137 -23 l-33 -19 -24 24 c-27 27 -59 31 -119 14 -43 -12 -42 -12 -51
18 -5 16 -2 23 13 28 24 7 45 57 36 87 -9 30 -44 68 -73 79 l-22 9 20 37 c25
47 25 53 0 53 -11 0 -20 -7 -20 -15 0 -8 -16 -31 -35 -51 -19 -20 -33 -40 -30
-45 3 -4 25 -13 48 -20 51 -13 77 -35 77 -64 0 -25 -40 -63 -59 -57 -10 3 -11
-4 -6 -29 10 -41 10 -49 0 -73 -8 -17 -5 -19 31 -13 21 4 62 13 89 21 45 12
52 12 68 -2 10 -9 16 -24 14 -34 -10 -36 25 -38 64 -4 56 47 145 74 111 33
-14 -16 1 -42 25 -42 12 0 19 -10 23 -30 5 -29 7 -30 60 -30 42 -1 62 5 86 22
17 13 34 23 39 23 4 0 23 -13 42 -30 27 -24 43 -30 78 -30 33 0 45 -4 45 -15
0 -8 10 -24 23 -35 18 -18 30 -20 65 -15 38 6 42 4 42 -14 0 -15 6 -21 23 -21
12 0 29 -5 37 -10 13 -8 13 -14 -4 -44 -10 -19 -25 -37 -32 -40 -8 -3 -11 -12
-8 -20 3 -9 -4 -27 -15 -42 -62 -78 14 -191 109 -164 33 9 49 2 50 -22 0 -5 9
-8 20 -8 26 0 35 -22 21 -49 -10 -18 -8 -21 25 -27 29 -5 39 -14 50 -40 8 -19
19 -34 25 -34 6 0 8 -7 5 -16 -12 -31 19 -69 88 -105 36 -20 38 -22 32 -59 -4
-23 0 -54 9 -80 20 -56 20 -56 -14 -68 -27 -10 -28 -12 -23 -61 3 -37 0 -56
-10 -69 -9 -9 -22 -31 -31 -47 -8 -17 -26 -37 -40 -44 -22 -12 -31 -10 -83 18
-88 47 -102 60 -84 71 8 5 23 10 34 10 15 0 17 5 10 28 -4 15 -8 51 -9 80 -1
65 -24 90 -109 124 -33 13 -61 29 -63 34 -2 6 14 14 37 18 103 16 142 52 121
108 -5 13 -7 36 -4 51 4 20 1 27 -11 27 -9 0 -25 6 -36 12 -16 10 -24 10 -40
0 -11 -6 -33 -12 -50 -12 -23 0 -33 6 -40 25 -11 30 -24 31 -57 5 -39 -31 -89
-26 -124 11 -30 33 -34 47 -30 117 l3 43 -40 -7 c-33 -5 -42 -3 -51 13 -14 28
-1 67 37 107 l33 36 -42 41 c-38 37 -41 44 -36 80 5 37 4 39 -22 39 -15 0 -60
-20 -101 -45 -40 -25 -79 -44 -87 -41 -7 3 -13 19 -13 36 0 23 -4 30 -20 30
-11 0 -20 -7 -20 -15 0 -8 -4 -15 -10 -15 -5 0 -10 -6 -10 -12 0 -15 -52 -52
-93 -67 -48 -18 -111 -14 -136 10 -18 17 -22 30 -19 63 l3 41 -85 0 c-65 0
-94 5 -125 20 -49 24 -58 56 -20 73 39 18 33 50 -11 58 -19 3 -49 18 -65 31
-23 20 -29 33 -29 66 0 35 5 46 30 66 17 13 30 26 30 30 0 3 -25 22 -55 41
-67 43 -71 69 -12 83 27 7 37 14 35 26 -3 10 -12 15 -26 14 -14 -2 -28 6 -38
22 -14 22 -23 25 -73 24 -49 -1 -52 -2 -21 -8 20 -4 41 -11 48 -15 16 -10 15
-47 -3 -70 -25 -33 -17 -52 35 -84 l50 -31 -20 -33 c-11 -18 -20 -50 -20 -72
0 -31 7 -45 38 -76 20 -20 44 -39 52 -42 12 -4 13 -9 3 -27 -7 -11 -13 -27
-13 -35 0 -46 113 -106 199 -106 46 0 49 -2 54 -29 3 -16 18 -42 33 -57 24
-27 31 -29 97 -28 58 0 80 5 112 24 22 13 45 31 51 39 10 13 16 14 37 2 34
-18 81 -8 136 29 53 36 57 37 65 6 3 -14 17 -38 31 -54 l25 -30 -26 -45 c-18
-34 -24 -57 -22 -89 3 -41 5 -44 46 -56 38 -13 42 -17 42 -48 0 -97 101 -171
183 -133 20 9 30 8 50 -6 19 -12 42 -16 79 -13 52 3 53 3 73 -35 19 -36 19
-39 3 -51 -9 -7 -53 -20 -97 -30 -45 -9 -81 -19 -81 -21 0 -2 5 -15 12 -29 10
-24 96 -76 124 -76 6 0 23 -11 37 -24 23 -21 26 -31 24 -83 -2 -56 -3 -58 -34
-68 -18 -5 -33 -14 -33 -20 0 -17 61 -71 107 -94 46 -23 55 -32 45 -46 -9 -13
-57 -42 -102 -62 -19 -8 -68 -30 -108 -49 -76 -35 -188 -81 -211 -86 -8 -2
-19 15 -28 47 -39 129 -218 349 -483 590 -30 27 -89 81 -130 120 -96 89 -131
119 -207 177 -138 105 -359 212 -389 187 -12 -10 -11 -16 9 -43 63 -85 89
-176 117 -416 33 -288 148 -758 207 -845 19 -28 16 -88 -5 -116 -11 -13 -22
-36 -26 -52 -5 -23 0 -33 34 -67 43 -42 49 -68 26 -113 -8 -15 -22 -55 -31
-89 -15 -60 -37 -117 -97 -248 -111 -241 -169 -425 -175 -556 l-6 -102 -37
-11 c-61 -18 -70 -15 -70 22 0 21 8 41 20 52 29 26 25 32 -26 38 -53 6 -66 20
-88 99 -19 68 -19 68 -5 68 26 0 96 61 117 102 43 87 23 165 -60 237 -67 58
-70 119 -12 246 36 78 38 163 6 215 -73 119 -75 133 -27 210 45 70 45 103 0
146 -19 18 -35 38 -35 44 0 6 16 42 35 80 50 99 54 144 19 197 -33 50 -74 71
-108 55 -12 -5 -44 -28 -70 -51 -29 -25 -57 -41 -73 -41 -25 0 -25 1 -17 48
16 88 11 129 -19 160 -24 25 -104 62 -133 62 -6 0 -26 -16 -45 -35 -19 -20
-53 -48 -75 -62 -70 -45 -91 -102 -59 -163 13 -26 58 -62 119 -96 38 -20 42
-41 17 -74 l-23 -32 38 -34 c21 -19 50 -43 66 -52 54 -32 49 -91 -11 -121 -98
-51 -67 -132 69 -180 l55 -20 -3 -58 c-3 -41 4 -84 22 -147 40 -135 35 -168
-25 -192 -43 -18 -70 -53 -79 -104 l-6 -35 -30 53 c-126 229 -318 497 -423
594 l-51 47 -41 -14 c-24 -9 -59 -34 -84 -62 -46 -49 -62 -52 -51 -8 8 31 52
59 126 81 90 26 118 43 131 79 10 28 19 34 52 39 47 8 97 53 97 90 0 31 -43
66 -81 66 -33 0 -95 -26 -126 -54 -21 -18 -24 -18 -41 -3 -29 27 -83 21 -130
-13 -23 -16 -70 -67 -104 -113 -62 -83 -64 -84 -100 -79 -68 9 -113 -41 -168
-185 -16 -42 -40 -98 -52 -125 -21 -44 -25 -47 -53 -42 -22 4 -38 -1 -57 -16
-27 -21 -97 -154 -99 -187 0 -11 -3 -13 -6 -5 -3 7 3 31 12 54 17 43 11 57
-24 58 -7 0 12 27 42 60 31 33 58 69 62 80 5 14 -7 36 -44 82 -28 35 -51 68
-51 74 0 7 21 40 48 74 71 93 81 114 84 177 l4 58 44 6 c74 10 100 25 117 69
12 30 22 40 47 46 75 16 122 79 113 153 -5 44 -4 47 24 60 91 40 174 141 185
223 6 52 -18 106 -56 125 -35 18 -113 16 -158 -3 -62 -26 -124 -46 -129 -41
-2 3 7 27 21 53 39 73 35 117 -12 165 -25 25 -54 42 -85 50 -26 6 -47 16 -47
21 0 5 18 40 41 78 22 38 38 74 34 80 -3 5 1 10 9 10 8 0 24 13 36 30 21 29
22 30 52 14 60 -31 114 10 148 112 29 85 26 218 -6 281 l-21 42 39 34 c32 29
40 43 45 84 5 43 2 53 -18 75 -13 14 -34 28 -47 32 -13 4 -21 13 -18 19 36 86
27 137 -23 137 -23 0 -33 -7 -44 -30z m4836 -433 c-4 -7 28 -50 76 -102 10
-11 42 -60 71 -110 102 -174 165 -280 173 -290 15 -18 117 -209 117 -218 0 -6
-22 -7 -52 -3 -137 17 -334 26 -438 21 -267 -14 -606 -62 -850 -120 -115 -27
-110 -27 -110 -7 0 44 -167 252 -202 252 -10 0 -18 -4 -18 -9 0 -4 34 -46 75
-92 41 -46 82 -100 92 -119 9 -19 23 -40 31 -46 12 -9 2 -13 -45 -23 -80 -15
-198 -54 -312 -103 l-93 -39 -27 25 c-15 14 -32 26 -38 26 -20 0 -21 -27 -2
-41 30 -21 23 -33 -41 -67 -43 -22 -60 -27 -60 -17 0 7 5 17 10 20 6 3 10 26
10 50 0 41 2 44 35 55 60 20 164 83 204 123 58 58 85 120 89 206 l4 73 50 -4
c66 -7 132 6 196 39 93 47 122 146 77 255 -6 15 3 16 119 11 106 -5 132 -3
172 12 62 24 124 87 154 158 29 68 25 68 171 14 172 -64 267 -59 302 16 9 19
17 49 17 66 l0 32 24 -18 c13 -10 22 -22 19 -26z m537 -44 c38 -77 90 -169
129 -228 45 -69 164 -240 170 -245 4 -3 38 -43 76 -90 99 -121 93 -114 173
-196 41 -42 72 -78 69 -80 -2 -3 -22 2 -43 10 -67 26 -312 83 -482 112 -136
23 -161 30 -157 44 5 14 -70 153 -177 330 -25 41 -71 119 -102 172 -32 53 -71
114 -87 134 -34 43 -32 52 8 30 57 -31 110 -47 175 -53 60 -5 71 -3 112 21 26
15 58 45 73 67 14 21 27 39 28 39 1 0 17 -30 35 -67z m-3872 -326 c88 -44 197
-117 286 -191 54 -46 77 -66 235 -215 61 -57 122 -112 135 -122 13 -10 70 -71
127 -136 57 -65 106 -120 109 -123 22 -20 100 -154 113 -194 22 -66 21 -75 -8
-86 -46 -17 -227 -110 -239 -123 -7 -6 -29 -25 -49 -41 -70 -56 -85 -156 -37
-248 12 -24 25 -45 29 -48 3 -3 21 -24 39 -48 27 -35 30 -43 18 -48 -9 -4 -16
-18 -16 -34 0 -40 -54 -115 -160 -222 -51 -51 -103 -107 -117 -125 -46 -60
-134 -115 -263 -166 -138 -55 -159 -66 -209 -114 -19 -18 -36 -31 -38 -30 -9
10 89 274 154 417 42 91 63 142 85 204 12 37 17 40 73 53 82 19 195 77 260
136 52 46 65 69 47 81 -5 3 -34 -18 -64 -47 -67 -63 -180 -122 -255 -134 -33
-6 -36 -4 -29 13 35 84 30 115 -22 160 l-36 31 17 36 c10 20 22 39 27 42 17
11 11 84 -11 127 -69 135 -172 565 -204 852 -8 77 -18 150 -21 163 -8 31 6 29
34 -6 13 -16 36 -44 52 -63 29 -32 103 -128 214 -274 29 -39 88 -122 131 -185
67 -98 155 -220 183 -254 32 -39 84 -138 89 -168 4 -27 11 -37 24 -37 44 0 5
102 -88 232 -79 110 -150 209 -165 232 -162 237 -449 599 -456 576 -9 -27 -29
-4 -45 52 -10 34 -27 75 -38 90 -28 38 -13 36 89 -15z m3551 -377 c79 -6 147
-12 149 -15 3 -3 -6 -14 -19 -25 -40 -34 -128 -120 -123 -120 3 0 -5 -10 -16
-22 -32 -35 -141 -235 -160 -293 -7 -22 -16 -44 -20 -50 -15 -20 -112 -292
-131 -365 -10 -41 -29 -149 -43 -240 -14 -91 -30 -189 -36 -218 l-12 -53 -36
7 c-42 8 -48 14 -82 69 -13 21 -64 90 -112 152 -72 91 -87 116 -79 130 6 10
24 75 41 144 30 128 64 229 100 299 11 22 47 112 81 202 33 90 76 189 96 221
64 106 165 186 233 187 14 0 90 -5 169 -10z m-309 -3 c0 -2 -24 -28 -52 -58
-62 -63 -102 -135 -153 -274 -59 -159 -83 -217 -104 -260 -47 -97 -107 -290
-117 -378 -6 -48 -10 -57 -23 -52 -15 4 -17 -3 -17 -46 0 -67 -19 -83 -90 -76
-70 7 -208 74 -198 96 4 9 13 49 20 89 18 102 58 246 106 387 52 153 68 187
149 315 36 58 81 133 98 168 17 34 32 62 34 63 20 10 347 34 347 26z m674 -42
c49 -8 93 -15 97 -15 27 0 0 -32 -72 -85 -98 -72 -147 -130 -204 -245 -180
-361 -345 -849 -345 -1022 l0 -35 108 -42 c59 -24 117 -49 129 -57 21 -13 24
-12 43 27 12 23 25 77 31 127 11 95 18 131 49 266 31 131 73 231 171 406 67
120 182 292 224 336 6 7 22 25 36 40 73 87 201 164 272 164 73 0 285 -94 437
-194 84 -55 284 -235 369 -331 24 -27 60 -68 80 -90 129 -142 308 -399 384
-551 54 -108 114 -275 123 -343 l6 -48 -43 -7 c-59 -9 -177 -70 -235 -120 -90
-78 -195 -187 -189 -196 4 -6 18 -10 33 -10 18 -1 45 -17 82 -50 30 -27 52
-51 50 -53 -3 -2 -40 -20 -82 -40 -43 -20 -137 -70 -210 -110 -413 -230 -505
-264 -908 -327 -74 -12 -141 -28 -149 -35 -12 -12 -21 -1 -64 73 -99 174 -282
388 -424 497 -41 31 -52 46 -53 69 0 27 -2 28 -33 22 -21 -4 -40 -1 -51 7 -18
13 -17 14 13 20 21 5 31 12 31 25 0 16 -6 17 -57 11 -42 -5 -67 -2 -90 8 -50
23 -40 33 31 33 104 0 156 10 156 30 0 15 -10 17 -97 13 -54 -3 -122 -9 -151
-13 -38 -7 -59 -6 -73 3 -14 9 -239 434 -239 453 0 1 15 1 34 -2 l34 -4 17 73
c9 39 25 135 35 212 11 77 21 149 24 160 3 11 15 61 27 110 43 178 180 497
274 639 82 125 208 232 260 220 11 -2 60 -11 109 -19z m-1074 2 c0 -15 -66
-128 -120 -207 -88 -129 -193 -421 -245 -680 -9 -41 -18 -85 -20 -97 l-5 -21
-65 26 c-36 14 -68 23 -71 20 -3 -4 -1 -22 4 -42 9 -31 8 -38 -8 -46 -10 -6
-31 -10 -45 -10 -33 0 -146 28 -160 40 -7 6 -8 56 -2 147 9 165 36 259 107
373 25 41 49 82 53 90 4 8 16 29 27 45 35 54 93 169 115 229 l21 59 55 13 c58
13 173 37 254 52 54 10 105 14 105 9z m1408 -69 c72 -18 132 -35 132 -38 0 -3
-26 -18 -58 -33 -148 -73 -325 -299 -495 -633 -75 -148 -135 -342 -152 -494
-13 -121 -27 -190 -38 -190 -7 0 -55 18 -107 39 -74 30 -96 43 -98 60 -5 31
34 224 64 322 25 79 90 257 119 324 7 17 36 86 65 155 72 173 138 296 185 344
22 23 75 68 117 99 43 32 80 63 84 68 9 15 43 11 182 -23z m-1868 -23 c0 -27
-63 -156 -128 -260 -44 -72 -91 -152 -104 -180 -12 -27 -26 -52 -30 -55 -17
-13 -47 -176 -52 -284 -4 -66 -8 -121 -10 -123 -2 -2 -32 6 -67 18 -35 11 -90
24 -123 27 l-58 5 5 111 c3 88 12 138 41 241 40 141 136 352 180 396 16 16 57
35 113 52 162 49 233 65 233 52z m-3023 -117 c73 -31 89 -77 58 -163 -20 -57
-19 -63 19 -82 45 -21 73 -13 137 42 29 25 61 45 70 45 9 0 29 -14 44 -32 34
-40 31 -76 -17 -182 -40 -87 -39 -115 3 -150 38 -32 37 -58 -6 -122 -19 -29
-35 -64 -35 -79 0 -27 31 -94 61 -133 37 -48 35 -100 -11 -233 -39 -114 -41
-124 -30 -165 9 -31 29 -60 66 -96 30 -29 59 -67 64 -84 19 -58 -7 -118 -73
-171 -21 -17 -89 -26 -105 -15 -11 8 -12 23 -2 88 7 43 12 116 12 163 -1 47
-1 236 -1 419 -1 389 1 382 -103 485 -66 64 -91 108 -149 259 -37 96 -40 100
-57 89 -16 -9 18 -112 77 -233 43 -85 69 -121 128 -169 66 -55 66 -54 68 -474
1 -272 -2 -421 -13 -525 -16 -157 -21 -185 -30 -160 -3 8 -8 17 -12 20 -3 3
-21 36 -38 74 -30 64 -31 69 -15 82 17 12 15 16 -20 52 -35 36 -39 45 -39 94
-1 55 17 98 39 98 7 0 13 4 13 8 0 4 13 12 28 18 20 8 32 22 42 54 13 38 12
49 -4 109 -51 183 -49 169 -32 221 9 27 16 51 16 53 0 2 -32 14 -70 26 -69 22
-130 62 -130 84 0 7 20 25 44 40 85 53 81 135 -8 196 -50 35 -51 37 -35 77 17
47 4 69 -70 113 -84 51 -113 96 -87 136 9 13 36 38 61 55 35 24 49 29 59 21
11 -9 15 -4 20 24 7 38 19 42 63 23z m2613 -2 c0 -3 -22 -48 -49 -100 -47 -92
-91 -215 -127 -356 -18 -73 -29 -360 -13 -360 23 0 6 -29 -21 -35 -71 -16
-205 -23 -212 -11 -14 22 -21 122 -15 230 10 195 88 450 150 490 31 21 269
144 280 145 4 1 7 -1 7 -3z m-391 -243 c-31 -70 -66 -208 -80 -309 -13 -102
-7 -287 11 -309 10 -12 6 -18 -24 -36 -37 -22 -47 -54 -25 -76 19 -19 -13 -57
-57 -71 -22 -7 -75 -16 -119 -19 -102 -7 -119 -20 -112 -85 5 -37 2 -52 -14
-72 -11 -14 -27 -26 -35 -26 -24 0 -140 99 -250 212 -161 166 -194 216 -194
299 0 49 2 53 58 108 34 33 86 70 127 90 85 41 248 112 251 108 1 -1 -5 -74
-13 -162 -16 -177 -12 -231 19 -270 19 -24 26 -27 67 -22 25 2 84 19 130 37
l83 33 -5 76 c-6 93 7 228 33 341 11 47 19 93 17 103 -1 12 18 29 68 56 39 22
73 40 77 40 4 1 -2 -20 -13 -46z m-169 -60 c0 -5 -10 -51 -21 -103 -12 -56
-24 -154 -28 -239 l-6 -144 -70 -28 c-84 -34 -130 -37 -145 -10 -5 11 -10 45
-10 76 0 58 18 284 25 321 4 16 32 33 112 69 60 27 112 52 118 57 11 10 25 10
25 1z m-2360 -143 c8 -16 6 -22 -14 -35 -13 -9 -38 -20 -55 -25 -27 -7 -31 -6
-31 10 0 12 -8 20 -22 22 -21 3 -20 5 12 26 45 28 95 29 110 2z m-137 -82 c6
-17 -7 -51 -24 -65 -8 -6 -45 -21 -84 -33 -38 -12 -76 -24 -82 -26 -7 -3 -13
1 -13 8 0 21 93 108 126 118 43 12 71 12 77 -2z m-933 -172 c0 -36 -14 -106
-21 -106 -13 0 -57 47 -63 68 -5 15 2 22 31 35 49 19 53 20 53 3z m896 -22
c40 -27 163 -179 255 -319 98 -147 107 -161 223 -375 107 -197 189 -378 233
-512 13 -42 23 -58 36 -58 21 0 18 14 -30 150 -20 57 -30 96 -23 98 5 2 10 24
10 48 0 24 3 44 8 44 24 -1 52 -47 71 -117 11 -39 36 -73 73 -98 11 -7 14 -23
11 -56 -5 -46 -5 -47 -51 -59 -26 -7 -60 -18 -77 -25 -16 -7 -57 -23 -90 -36
-33 -13 -72 -31 -87 -41 -14 -10 -30 -18 -34 -18 -4 0 -26 -12 -48 -27 -135
-90 -205 -179 -215 -272 -15 -135 47 -248 229 -416 l44 -39 -80 -73 c-139
-130 -233 -173 -444 -208 -98 -16 -161 -31 -340 -85 -137 -40 -277 -60 -336
-48 -55 12 -64 37 -36 101 20 46 34 61 116 130 111 94 127 112 157 173 73 155
89 249 115 708 19 330 15 429 -22 576 -35 135 -39 316 -10 425 10 39 22 75 26
80 3 6 13 26 20 45 13 34 78 144 110 185 38 50 128 135 144 135 9 0 28 -7 42
-16z m-240 -129 c-95 -124 -166 -338 -166 -501 0 -64 -4 -84 -22 -110 -31 -46
-70 -66 -120 -62 -37 3 -42 0 -48 -22 -4 -18 -17 -29 -45 -38 -22 -7 -41 -14
-43 -16 -2 -3 4 -18 12 -35 51 -97 -22 -226 -107 -192 -66 26 -67 26 -67 -10
0 -19 -9 -52 -20 -73 -25 -45 -15 -65 30 -58 26 4 30 1 30 -18 0 -32 -22 -100
-32 -100 -4 0 -8 4 -8 9 0 4 -21 29 -46 55 l-47 46 5 68 c3 37 10 76 15 87 6
11 33 67 61 125 67 139 164 272 287 395 55 55 117 123 136 150 51 72 118 204
173 339 17 40 17 40 32 17 15 -20 14 -24 -10 -56z m3273 69 c22 -5 30 -11 27
-21 -3 -7 13 -37 35 -66 39 -51 110 -189 151 -291 34 -89 79 -176 89 -176 21
0 19 30 -4 76 -14 27 -44 95 -67 151 -25 61 -47 100 -53 96 -6 -3 -7 -1 -3 6
9 14 -57 137 -91 168 -39 37 -18 44 45 16 80 -35 197 -64 240 -58 61 8 93 25
90 49 -2 11 -1 23 2 25 3 2 50 -19 105 -46 55 -28 117 -56 138 -62 20 -7 37
-19 37 -27 0 -8 9 -27 19 -42 11 -15 32 -63 47 -107 16 -48 52 -119 92 -180
36 -55 75 -121 86 -147 14 -31 27 -48 39 -48 14 0 17 5 12 23 -12 38 -84 173
-105 195 -11 12 -20 24 -20 26 0 3 -13 27 -29 53 -16 27 -38 78 -50 115 -11
37 -28 79 -37 93 -16 24 -16 25 5 25 25 0 81 27 81 38 0 5 6 16 13 25 11 16
17 11 57 -44 25 -33 62 -83 83 -109 20 -27 37 -54 37 -59 0 -5 4 -11 9 -13 18
-7 95 -134 157 -261 35 -73 75 -153 88 -178 14 -26 23 -49 20 -52 -2 -2 -53
14 -112 36 -205 76 -521 142 -738 155 -113 6 -349 1 -454 -9 -32 -4 -35 -1
-45 31 -22 73 -149 286 -190 320 -8 7 -15 16 -15 21 0 5 -21 35 -47 67 l-46
57 60 7 c132 15 183 46 169 103 -5 21 -3 25 18 25 13 0 38 -3 55 -6z m-248
-261 c151 -208 220 -331 205 -368 -3 -8 -18 -15 -33 -15 -15 0 -60 -7 -98 -16
-39 -8 -91 -18 -117 -21 -44 -5 -48 -4 -48 15 0 49 -76 170 -141 224 -96 79
-133 117 -118 122 8 2 41 9 73 16 81 17 121 55 113 109 -4 33 -1 41 17 49 43
22 54 13 147 -115z m-846 17 c15 -17 16 -24 7 -46 -7 -13 -12 -33 -12 -43 0
-24 -82 -149 -152 -231 -121 -143 -270 -351 -334 -465 -11 -20 -26 -24 -261
-74 l-133 -28 1 76 c2 113 9 136 41 136 16 1 37 12 51 27 29 31 124 81 187 98
75 20 180 81 239 140 241 237 345 369 327 415 -8 22 18 18 39 -5z m137 -140
c40 -44 79 -80 86 -80 7 0 20 -7 28 -15 13 -13 13 -17 2 -29 -22 -21 -105 -61
-181 -86 -74 -24 -123 -61 -157 -116 -12 -19 -74 -73 -138 -121 -130 -98 -179
-144 -192 -179 -9 -23 -30 -34 -30 -15 0 21 192 288 299 416 84 99 161 209
161 229 0 19 30 76 40 76 5 0 42 -36 82 -80z m308 48 c0 -7 20 -27 43 -45 117
-88 237 -241 237 -303 0 -12 -24 -22 -102 -41 -57 -13 -107 -24 -112 -24 -5 0
-21 21 -35 47 -31 56 -96 135 -123 149 -14 8 -23 8 -31 0 -7 -7 3 -24 36 -58
52 -53 96 -119 97 -144 0 -13 -19 -21 -72 -34 -40 -10 -90 -24 -111 -31 -36
-13 -38 -12 -32 5 4 13 -12 41 -51 92 -32 41 -61 76 -66 77 -18 8 -6 30 20 37
45 11 174 91 220 136 43 43 50 65 31 100 -6 12 -8 27 -5 35 7 17 56 19 56 2z
m-340 -340 c46 -55 110 -147 110 -157 0 -5 -44 -21 -97 -36 -54 -15 -168 -49
-253 -75 -169 -53 -230 -67 -229 -54 0 5 20 25 45 44 24 19 50 40 57 45 6 6
46 36 88 67 43 31 90 74 105 95 16 21 36 46 44 56 17 22 70 57 85 57 6 0 26
-19 45 -42z m1384 14 c-12 -9 -35 -26 -50 -37 -91 -62 -227 -230 -292 -360
-87 -175 -107 -280 -106 -550 0 -246 16 -328 88 -480 39 -81 112 -183 123
-172 2 3 -1 51 -7 107 -45 405 168 958 482 1255 83 79 230 185 256 185 29 0
152 -32 158 -41 7 -12 -32 -48 -101 -94 -121 -80 -234 -248 -339 -505 -15 -36
-31 -74 -36 -85 -30 -65 -92 -269 -117 -385 -16 -79 -28 -387 -16 -450 17 -88
44 -59 98 104 138 420 313 808 435 966 126 164 220 261 317 328 32 23 62 28
78 14 6 -5 35 -19 65 -32 30 -12 88 -42 127 -66 40 -24 75 -44 78 -44 3 0 50
-33 103 -74 132 -101 222 -189 312 -306 19 -25 42 -53 51 -63 28 -31 168 -272
208 -359 111 -241 224 -515 216 -528 -3 -4 -31 -23 -63 -40 -31 -18 -86 -56
-122 -84 -108 -84 -112 -89 -105 -119 4 -15 13 -27 19 -27 7 0 37 -22 67 -49
54 -48 145 -101 174 -101 8 0 15 -4 15 -9 0 -12 -112 -100 -180 -142 -30 -18
-57 -36 -60 -40 -11 -16 -293 -151 -392 -188 -319 -120 -740 -191 -1128 -191
-196 0 -558 38 -730 76 -114 25 -334 87 -375 104 -11 5 -51 19 -90 30 -166 52
-462 156 -565 200 -41 17 -92 38 -113 45 -51 19 -363 176 -415 209 -23 14 -44
26 -48 26 -6 0 -229 144 -429 276 -212 141 -280 191 -293 218 -7 14 -19 26
-27 26 -7 0 -20 6 -27 13 -7 8 -24 16 -38 20 -34 8 -79 45 -182 149 -125 125
-165 214 -146 319 5 29 16 65 23 79 21 40 124 140 144 140 5 0 14 6 20 14 38
45 303 146 521 197 69 16 141 34 161 39 67 18 77 14 84 -32 17 -104 66 -281
101 -364 38 -90 72 -145 130 -212 26 -30 34 -34 47 -24 12 11 12 20 -4 79 -43
155 -2 385 107 593 21 39 42 74 48 79 13 10 106 42 106 36 0 -2 -5 -16 -10
-31 -27 -69 -2 -306 56 -539 34 -134 47 -171 93 -262 42 -83 88 -135 135 -153
34 -13 41 -8 27 17 -5 11 -17 59 -27 109 -27 143 -12 333 38 494 70 225 149
391 222 466 31 32 61 54 73 54 13 0 24 8 28 20 3 11 9 20 13 20 4 0 47 11 97
24 49 14 92 22 95 19 3 -3 -1 -8 -8 -10 -22 -8 -98 -116 -140 -198 -87 -174
-115 -308 -116 -550 0 -212 21 -320 88 -461 25 -53 46 -100 46 -106 0 -5 6 -8
13 -6 8 3 14 36 18 94 8 119 48 267 156 569 112 312 311 601 501 730 63 43 63
43 160 44 94 1 96 0 76 -17z m-283 -5 c0 -4 -27 -30 -60 -57 -33 -27 -89 -87
-125 -132 -36 -46 -69 -88 -74 -93 -54 -66 -186 -329 -237 -475 -77 -220 -135
-412 -142 -473 -7 -54 -11 -52 -47 18 -16 33 -30 88 -40 163 -58 414 53 795
282 970 34 26 80 37 307 71 125 20 137 20 136 8z m568 -7 c68 -11 128 -23 132
-26 5 -3 -17 -23 -48 -44 -215 -144 -402 -386 -520 -675 -87 -211 -122 -363
-130 -572 -3 -79 -9 -143 -13 -143 -3 0 -18 26 -33 58 -127 278 -124 703 8
981 75 158 197 302 335 396 77 52 92 54 269 25z m-4079 -137 c39 -164 39 -283
-1 -847 -20 -281 -72 -423 -196 -526 -65 -54 -70 -56 -77 -32 -3 10 -22 36
-42 57 -32 35 -35 44 -30 79 6 32 3 41 -14 53 -27 19 -25 30 9 48 16 8 52 37
80 64 43 42 51 55 51 87 0 32 -7 44 -45 80 -34 31 -49 56 -61 95 -9 30 -38 95
-65 146 -27 50 -49 102 -49 114 0 12 10 57 22 101 16 61 19 87 12 116 -7 31
-13 36 -32 34 -25 -4 -26 -2 -11 31 9 20 18 23 61 23 48 0 54 3 89 43 42 47
55 90 46 153 -5 37 -2 44 30 74 20 19 46 34 60 34 28 0 77 24 106 51 12 10 24
19 27 19 3 0 17 -44 30 -97z m7458 44 c23 -21 23 -38 0 -84 -8 -16 -23 -23
-62 -28 -66 -9 -211 -41 -224 -49 -15 -9 -206 -56 -210 -51 -5 5 19 28 106
102 75 65 165 117 230 132 54 14 133 3 160 -22z m-2860 -32 l84 -27 -54 -46
c-92 -79 -205 -197 -260 -274 -89 -121 -201 -314 -240 -413 -9 -22 -27 -65
-41 -95 -28 -63 -157 -408 -182 -490 -24 -75 -31 -80 -39 -23 -11 91 14 298
60 478 36 142 170 462 252 602 53 90 168 213 199 213 6 0 34 24 64 54 30 29
59 53 64 51 6 -1 47 -14 93 -30z m-1923 -53 c-83 -69 -238 -426 -275 -632 -14
-78 -18 -270 -7 -360 l8 -65 -25 30 c-71 86 -126 257 -179 554 -28 162 -28
262 0 316 19 36 28 43 85 59 34 10 81 24 103 31 22 7 87 27 145 45 58 17 110
33 115 35 6 2 19 4 30 4 20 0 20 0 0 -17z m4606 -134 c16 -26 19 -43 15 -83
-11 -96 -63 -126 -144 -83 -47 25 -171 119 -172 130 0 3 21 11 48 17 26 6 76
19 112 30 96 29 116 27 141 -11z m-5321 -123 c-82 -172 -129 -375 -116 -502 4
-35 5 -63 3 -63 -9 0 -54 78 -84 145 -43 95 -103 321 -103 385 0 24 7 27 163
65 89 23 164 40 165 39 2 -1 -11 -33 -28 -69z m-2402 -382 c49 -85 82 -160 93
-210 7 -31 18 -53 25 -53 8 0 28 -13 46 -29 30 -27 31 -30 19 -60 -15 -34 -58
-72 -134 -116 l-48 -27 17 -27 c10 -14 24 -32 31 -39 14 -15 7 -62 -11 -74
-13 -8 -10 -11 32 -32 20 -11 41 -33 54 -60 20 -43 20 -44 2 -69 -10 -15 -24
-27 -30 -27 -19 0 -82 116 -99 179 -19 75 -19 149 1 314 18 147 15 208 -12
238 -19 21 -33 129 -17 129 5 0 19 -17 31 -37z m-47 -373 c-6 -38 -11 -107
-11 -154 0 -96 8 -88 -85 -89 -30 0 -41 4 -43 17 -2 10 28 82 67 162 39 79 72
150 72 157 1 6 3 4 6 -6 2 -9 0 -48 -6 -87z m1447 -242 c13 -17 9 -58 -7 -67
-10 -7 -8 -22 8 -74 26 -85 35 -156 27 -202 -8 -39 -31 -55 -112 -75 -46 -11
-71 -34 -76 -70 -2 -21 -8 -25 -33 -22 -16 2 -54 5 -83 8 -96 10 -126 -32
-137 -193 -8 -113 -4 -106 -112 -198 -23 -20 -51 -56 -63 -80 -25 -51 -40 -56
-137 -48 -72 6 -74 5 -102 -24 -17 -18 -36 -55 -45 -89 -48 -169 -72 -224
-100 -224 -8 0 -27 16 -41 35 l-27 34 -64 -32 c-55 -27 -66 -29 -74 -17 -12
20 6 47 58 85 47 35 51 45 18 45 -38 0 -40 17 -4 36 41 20 78 54 78 70 0 14
28 27 42 18 15 -10 92 24 118 51 15 16 24 41 28 75 3 33 9 50 18 50 7 0 29 14
48 30 56 49 67 151 24 213 -22 31 -67 57 -98 57 -17 0 -20 6 -20 41 l0 42 -47
-6 c-27 -4 -58 -9 -70 -13 -17 -5 -23 -2 -23 8 0 25 -39 67 -81 88 -21 11 -39
24 -39 28 0 4 39 15 88 24 48 9 139 33 202 53 63 20 169 45 235 56 155 26 251
52 312 85 54 30 157 112 218 173 43 43 57 48 73 29z m-1438 -53 c12 -41 11
-47 -13 -87 -14 -24 -37 -53 -51 -66 -23 -19 -27 -20 -33 -7 -11 29 4 91 37
148 17 31 35 57 40 57 4 0 13 -20 20 -45z m43 -94 c10 -21 29 -51 42 -67 21
-24 25 -35 19 -64 -4 -19 -6 -45 -6 -57 3 -46 -65 -8 -72 40 -8 50 -12 187 -6
187 4 0 14 -17 23 -39z m6541 -77 c23 -23 19 -29 -7 -11 -13 8 -32 17 -42 20
-15 4 -14 5 7 6 15 0 34 -6 42 -15z m-8 -55 c14 -13 24 -34 24 -51 0 -46 -76
-75 -273 -103 -56 -8 -115 -15 -132 -15 l-30 0 35 33 c51 49 157 118 220 144
66 28 121 25 156 -8z m-116 -182 c0 -8 9 -22 20 -32 20 -18 26 -60 12 -81 -24
-36 -111 -45 -165 -18 -38 20 -126 86 -127 96 0 4 26 10 58 13 31 4 86 13 122
20 36 7 68 13 73 14 4 0 7 -5 7 -12z m-3640 -367 c179 -79 715 -260 964 -324
211 -55 542 -98 811 -106 16 0 11 -8 -25 -41 -139 -127 -236 -190 -322 -209
-49 -11 -62 -11 -100 4 -68 27 -117 51 -118 56 0 3 22 18 48 33 26 15 69 47
96 70 41 36 46 45 34 55 -12 9 -19 8 -34 -6 -31 -28 -117 -88 -149 -104 -53
-27 -212 -68 -263 -68 -50 0 -131 23 -193 55 l-34 18 80 27 c90 30 116 42 151
72 18 16 21 25 13 34 -9 11 -20 7 -56 -17 -54 -37 -142 -67 -238 -79 -38 -5
-84 -12 -101 -15 -40 -9 -66 22 -83 100 -15 65 -8 80 43 93 17 5 32 16 34 25
5 25 -35 21 -87 -9 -38 -21 -49 -23 -75 -14 -17 6 -66 14 -108 17 -43 3 -78 9
-78 12 0 3 9 12 20 19 11 7 20 19 20 27 0 8 -9 15 -20 15 -11 0 -20 -4 -20
-10 0 -5 -11 -13 -26 -16 -20 -5 -31 0 -52 23 -41 46 -72 61 -137 69 -50 6
-65 12 -92 40 -27 29 -71 125 -98 212 l-6 22 68 -25 c37 -14 97 -39 133 -55z
m395 -386 c28 -7 45 -37 60 -101 14 -62 9 -70 -49 -75 -39 -3 -39 -4 -43 -48
-5 -61 -10 -72 -30 -69 -42 6 -83 -13 -105 -49 -22 -36 -22 -36 -29 -12 -4 14
-7 33 -8 42 -1 25 39 58 71 58 15 0 28 5 28 10 0 6 -4 10 -9 10 -14 0 -56 41
-64 61 -6 18 27 29 85 29 28 0 30 2 23 28 -9 30 -9 41 -7 90 2 28 5 32 30 32
15 0 36 -3 47 -6z"/>
<path d="M5094 5699 c-5 -9 34 -61 67 -89 11 -9 127 -187 192 -295 7 -10 26
-40 43 -66 17 -26 40 -68 50 -93 12 -30 25 -46 37 -46 9 0 17 5 17 10 0 17
-70 152 -104 200 -17 25 -45 68 -60 95 -64 111 -108 173 -175 247 -45 50 -55
55 -67 37z"/>
<path d="M4649 5474 c-10 -13 -10 -17 2 -25 8 -5 17 -9 21 -9 16 0 141 -137
181 -199 52 -78 107 -181 107 -198 0 -7 9 -13 20 -13 28 0 25 17 -18 102 -72
140 -170 264 -255 325 -40 29 -46 31 -58 17z"/>
<path d="M2187 5363 c-16 -16 -3 -31 56 -62 89 -49 133 -85 301 -244 205 -194
277 -268 356 -362 118 -142 160 -225 160 -318 0 -31 3 -38 18 -35 14 3 17 14
16 60 -2 120 -107 277 -328 492 -45 43 -135 131 -201 196 -66 64 -147 136
-180 161 -33 24 -62 46 -65 50 -6 7 -116 69 -122 69 -3 0 -8 -3 -11 -7z"/>
<path d="M2275 4809 c-4 -6 -5 -11 -4 -13 2 -1 24 -14 49 -28 107 -62 382
-396 471 -573 18 -36 38 -65 46 -65 20 0 16 26 -15 88 -59 117 -109 185 -318
432 -55 65 -128 132 -166 151 -43 22 -54 23 -63 8z"/>
<path d="M2376 4384 c-4 -9 -5 -18 -4 -19 2 -1 68 -39 148 -85 125 -71 177
-106 261 -177 14 -11 18 -11 28 1 20 24 -87 102 -345 254 -38 23 -73 42 -76
42 -3 0 -9 -7 -12 -16z"/>
<path d="M2443 4062 c-3 -7 -4 -14 -2 -16 2 -2 84 -6 182 -8 134 -2 177 0 177
9 0 23 -80 34 -217 31 -99 -2 -137 -6 -140 -16z"/>
<path d="M2835 3805 c-40 -69 -144 -148 -280 -215 -66 -32 -132 -61 -147 -64
-26 -6 -36 -24 -22 -39 16 -16 300 118 364 173 84 72 140 143 140 180 0 25
-30 6 -55 -35z"/>
<path d="M6720 4251 c0 -5 -48 -32 -107 -61 -108 -52 -195 -117 -324 -241 -60
-59 -139 -159 -139 -177 0 -7 -3 -12 -8 -12 -14 0 -50 -102 -129 -365 -21 -71
-28 -231 -13 -296 19 -81 89 -231 137 -294 5 -5 26 -36 47 -67 52 -76 73 -95
88 -80 9 9 7 18 -10 39 -114 146 -198 297 -222 403 -18 75 -14 191 9 275 11
39 26 96 35 128 29 105 81 231 119 289 76 114 315 320 413 356 57 20 144 83
144 103 0 5 -9 9 -20 9 -11 0 -20 -4 -20 -9z"/>
<path d="M7176 3903 c-75 -22 -166 -91 -166 -125 0 -16 36 -7 48 12 16 27 77
63 132 79 53 16 175 16 214 1 40 -15 58 -13 54 7 -8 40 -184 57 -282 26z"/>
<path d="M7193 3671 c-175 -82 -218 -363 -78 -507 43 -45 132 -56 193 -25 103
53 159 171 150 314 -11 173 -138 277 -265 218z m137 -38 c68 -47 93 -111 89
-225 -5 -102 -34 -167 -98 -215 -146 -112 -299 72 -236 284 18 61 64 127 108
153 40 25 104 26 137 3z"/>
<path d="M7267 3569 c-59 -34 -80 -182 -32 -233 65 -70 165 7 165 127 0 85
-71 142 -133 106z"/>
<path d="M990 3941 c0 -10 15 -30 33 -44 85 -65 208 -206 316 -362 35 -49 78
-110 96 -135 186 -249 265 -404 265 -521 0 -44 13 -70 28 -55 10 10 5 100 -8
158 -11 47 -30 90 -83 193 -9 17 -45 71 -81 120 -35 50 -115 162 -177 250 -62
88 -134 183 -160 210 -25 28 -57 62 -70 77 -32 36 -140 128 -151 128 -4 0 -8
-8 -8 -19z"/>
<path d="M880 3632 c0 -12 13 -23 38 -32 80 -29 193 -133 309 -285 33 -44 69
-89 79 -100 11 -11 26 -30 34 -41 8 -12 44 -59 79 -105 77 -99 157 -252 167
-315 5 -34 10 -44 23 -42 12 3 15 13 13 38 -8 85 -62 193 -177 351 -21 29
-136 170 -146 179 -3 3 -34 43 -69 90 -85 112 -168 192 -250 240 -73 44 -100
50 -100 22z"/>
<path d="M866 3343 c-15 -15 -2 -31 59 -72 106 -69 189 -157 339 -360 98 -132
231 -281 251 -281 32 0 24 24 -22 68 -66 63 -139 150 -208 247 -138 193 -249
304 -401 398 -6 3 -14 4 -18 0z"/>
<path d="M830 2987 c0 -7 25 -24 55 -36 31 -13 61 -28 68 -35 7 -6 32 -24 57
-41 38 -26 102 -80 276 -235 56 -50 84 -64 97 -51 9 10 6 17 -16 34 -16 12
-70 58 -120 102 -147 129 -209 179 -252 207 -99 62 -165 84 -165 55z"/>
<path d="M842 2703 c4 -20 67 -39 223 -67 120 -22 188 -56 217 -107 21 -38 48
-52 48 -26 0 7 -12 32 -27 56 -35 54 -115 93 -233 116 -47 8 -114 22 -150 30
-81 19 -82 19 -78 -2z"/>
<path d="M1236 2474 c-41 -23 -164 -29 -285 -15 -85 10 -105 10 -112 -1 -5 -7
-5 -16 -1 -20 4 -4 64 -12 133 -19 148 -14 251 -4 299 31 49 35 22 54 -34 24z"/>
<path d="M1279 2314 c-43 -52 -172 -107 -279 -118 -50 -5 -154 10 -202 29 -14
5 -18 2 -18 -14 0 -29 81 -51 191 -51 124 0 238 41 317 114 33 31 42 56 18 56
-7 0 -19 -7 -27 -16z"/>
<path d="M1275 2086 c-74 -76 -193 -128 -366 -161 -45 -8 -104 -15 -131 -15
-52 0 -92 -15 -83 -31 9 -14 111 -11 206 6 98 17 209 53 296 96 87 43 168 134
136 152 -5 2 -30 -19 -58 -47z"/>
<path d="M1408 1950 c-78 -80 -138 -108 -328 -155 -144 -36 -214 -58 -285 -91
-49 -22 -75 -27 -142 -28 -71 -1 -83 -3 -83 -18 0 -12 11 -19 36 -24 54 -10
112 1 216 42 51 20 158 53 238 74 157 41 175 46 266 91 63 30 128 84 158 130
15 24 15 27 1 33 -9 3 -17 5 -18 5 -1 -1 -28 -27 -59 -59z"/>
<path d="M4590 3907 c0 -8 10 -22 21 -33 66 -59 185 -266 229 -398 18 -55 33
-82 44 -84 19 -4 18 18 -2 83 -26 83 -163 345 -191 365 -4 3 -20 22 -35 43
-28 36 -66 50 -66 24z"/>
<path d="M4462 3851 c-15 -9 -18 0 101 -231 35 -69 68 -140 72 -158 5 -24 12
-32 23 -30 34 7 8 78 -107 293 -73 138 -72 137 -89 126z"/>
<path d="M2964 3196 c-6 -14 33 -86 46 -86 18 0 20 20 4 54 -19 38 -42 53 -50
32z"/>
<path d="M5510 2397 c-321 -172 -505 -361 -566 -582 -27 -98 -27 -339 0 -440
36 -136 114 -265 230 -380 87 -86 142 -129 156 -120 12 7 14 35 1 35 -16 0
-170 145 -213 200 -48 62 -118 192 -118 219 0 9 -4 21 -9 26 -19 19 -39 180
-36 275 6 156 45 269 134 389 27 36 67 82 88 102 109 102 321 239 369 239 28
0 31 12 8 34 -18 19 -14 19 -44 3z"/>
<path d="M6000 2334 c-93 -24 -190 -100 -330 -257 -20 -24 -22 -30 -10 -37 11
-7 39 16 115 94 124 127 198 169 310 174 56 3 74 1 84 -12 20 -24 31 -19 31
13 0 25 -4 29 -37 35 -57 9 -102 6 -163 -10z"/>
<path d="M5940 2049 c-152 -63 -230 -268 -170 -445 75 -219 307 -217 412 3 71
149 35 346 -77 422 -41 27 -124 38 -165 20z m175 -81 c34 -35 45 -57 55 -104
43 -207 -68 -396 -224 -381 -44 4 -55 10 -91 49 -67 75 -86 211 -44 324 24 64
47 94 104 136 36 27 46 29 99 26 54 -4 62 -8 101 -50z"/>
<path d="M5987 1870 c-58 -50 -74 -150 -36 -227 35 -73 100 -71 153 4 25 36
29 51 30 111 0 61 -3 74 -27 106 -36 46 -72 48 -120 6z"/>
<path d="M1920 1806 c0 -17 67 -59 81 -51 17 11 9 25 -23 45 -39 23 -58 25
-58 6z"/>
<path d="M2080 1712 c0 -24 86 -46 95 -24 8 20 8 20 -32 31 -52 15 -63 14 -63
-7z"/>
<path d="M2271 1656 c-13 -15 -5 -24 46 -50 39 -19 40 -20 46 -2 4 9 -9 24
-33 40 -46 30 -44 30 -59 12z"/>
<path d="M4117 1564 c-38 -21 -58 -42 -87 -94 -38 -71 -33 -152 16 -260 101
-224 154 -278 297 -302 78 -13 263 -4 342 17 110 29 232 101 209 124 -7 8 -33
-2 -89 -34 -44 -25 -89 -45 -100 -45 -17 0 -16 2 6 14 49 25 99 63 93 69 -4 4
-1 13 6 22 7 9 10 18 7 22 -4 3 1 11 10 18 26 19 5 35 -47 35 -54 0 -157 35
-229 77 -59 35 -116 87 -165 153 -81 111 -137 167 -182 186 -41 17 -52 17 -87
-2z m85 -38 c31 -16 70 -59 147 -160 55 -73 150 -161 186 -172 11 -4 22 -10
25 -13 16 -22 184 -76 201 -65 5 3 14 2 20 -2 18 -10 -9 -22 -68 -30 -104 -13
-228 50 -355 178 -62 63 -170 197 -197 246 -8 14 -12 15 -22 4 -14 -13 1 -47
45 -104 12 -14 32 -41 46 -59 14 -19 66 -74 116 -124 67 -67 109 -100 167
-129 42 -22 77 -41 77 -44 0 -2 -26 -2 -58 1 -114 11 -252 78 -337 165 -54 55
-61 64 -91 119 -14 26 -33 53 -41 60 -23 18 -9 56 36 103 41 43 61 48 103 26z
m-42 -326 c119 -119 244 -176 410 -187 92 -7 93 -7 45 -15 -86 -13 -261 18
-372 68 -31 13 -64 22 -73 19 -28 -9 -142 228 -124 257 4 6 18 -10 31 -36 13
-26 50 -73 83 -106z m110 -186 c95 -34 192 -54 268 -54 34 0 62 -4 62 -10 0
-16 -216 -12 -288 5 -46 11 -73 25 -100 50 -44 42 -36 43 58 9z"/>
<path d="M2474 1555 c-8 -20 -4 -24 46 -46 39 -18 40 -18 40 1 0 13 -14 27
-40 40 -36 18 -41 19 -46 5z"/>
<path d="M2680 1446 c0 -9 7 -16 15 -16 8 0 24 -6 35 -12 17 -11 22 -10 30 2
12 20 1 30 -43 37 -30 4 -37 3 -37 -11z"/>
<path d="M2855 1400 c-9 -15 19 -35 74 -55 56 -19 61 -19 61 3 0 13 -15 23
-52 36 -29 9 -58 20 -65 22 -6 3 -14 0 -18 -6z"/>
<path d="M3090 1332 c0 -13 11 -22 39 -30 48 -15 48 -15 55 3 6 17 -13 29 -61
40 -28 6 -33 4 -33 -13z"/>
<path d="M3295 1280 c-10 -15 0 -22 64 -49 44 -18 55 -20 62 -9 14 21 12 23
-43 43 -29 10 -58 20 -64 22 -7 3 -15 -1 -19 -7z"/>
<path d="M3512 1214 c4 -23 84 -42 101 -25 17 17 -2 28 -56 36 -44 7 -49 6
-45 -11z"/>
<path d="M3712 1173 c2 -14 15 -19 61 -21 36 -2 57 1 57 8 0 15 -44 30 -86 30
-28 0 -35 -4 -32 -17z"/>
<path d="M3896 1153 c-16 -16 -2 -32 36 -41 48 -12 72 -1 48 22 -17 15 -74 28
-84 19z"/>
<path d="M3088 916 c-47 -12 -51 -36 -5 -36 41 0 62 13 51 32 -7 10 -17 11
-46 4z"/>
<path d="M2430 6230 c0 -11 31 -11 75 0 26 7 22 8 -22 9 -30 0 -53 -3 -53 -9z"/>
<path d="M3194 6213 c15 -59 94 -183 117 -183 19 0 15 33 -7 55 -25 25 -74
119 -74 143 0 6 -9 12 -21 12 -18 0 -20 -4 -15 -27z"/>
<path d="M3337 6218 c-4 -12 -5 -23 -4 -25 2 -1 32 -10 68 -19 35 -9 65 -17
66 -18 1 -1 -5 -22 -13 -46 -9 -25 -13 -58 -10 -75 7 -32 46 -95 59 -95 5 0
24 12 44 27 26 20 50 28 93 31 53 4 61 2 86 -23 23 -23 26 -32 21 -73 -3 -26
-9 -57 -12 -69 -7 -21 -6 -21 32 -8 53 20 70 18 87 -7 22 -30 20 -59 -9 -200
-32 -152 -32 -150 1 -138 30 12 91 13 98 2 2 -4 6 -43 7 -86 2 -42 6 -79 9
-81 14 -8 121 88 140 125 25 49 25 56 0 63 -26 7 -26 41 1 78 30 43 44 37 47
-24 1 -28 7 -72 13 -97 12 -54 52 -110 68 -95 7 7 2 27 -17 65 -24 50 -27 65
-26 160 1 202 51 294 259 470 48 40 145 152 145 167 0 7 -9 13 -20 13 -11 0
-20 -4 -20 -10 0 -12 -106 -126 -142 -151 l-28 -20 0 46 c0 39 3 47 25 55 61
23 6 80 -77 80 l-43 -1 38 -20 c30 -16 36 -23 27 -34 -6 -7 -9 -24 -6 -37 7
-38 -6 -51 -38 -38 -15 5 -54 10 -86 10 -51 0 -64 -4 -91 -28 -28 -25 -31 -33
-25 -64 3 -20 17 -47 31 -62 21 -22 22 -28 10 -40 -8 -8 -20 -16 -25 -18 -8
-2 -8 -11 -1 -31 17 -45 14 -52 -34 -65 -25 -7 -61 -22 -80 -34 -30 -20 -35
-29 -35 -61 0 -35 4 -40 50 -69 37 -23 49 -36 44 -47 -29 -69 -29 -71 -9 -106
18 -35 18 -36 -1 -62 -11 -14 -30 -33 -42 -41 -22 -14 -22 -14 -22 30 0 81
-32 118 -95 105 -24 -4 -25 -2 -22 38 2 23 7 46 10 52 13 20 28 149 22 185 -4
24 -3 38 4 38 5 0 13 15 16 33 5 26 13 35 38 43 61 18 102 128 62 168 -13 13
-12 17 16 36 35 26 53 64 44 97 -4 19 -12 23 -45 23 -22 0 -40 -4 -40 -10 0
-5 11 -10 25 -10 18 0 25 -5 25 -20 0 -24 -37 -60 -62 -60 -28 0 -32 -26 -9
-56 54 -69 -5 -163 -79 -124 -26 14 -45 -11 -30 -40 18 -34 5 -50 -38 -50
l-39 0 -5 51 c-4 39 -12 57 -37 83 -17 18 -28 35 -24 39 3 4 -4 18 -17 32 -21
22 -22 28 -10 50 10 18 26 27 66 35 30 6 54 13 54 14 0 2 -7 17 -16 34 -17 34
-56 46 -48 15 4 -13 -7 -24 -38 -38 -57 -28 -77 -63 -58 -102 8 -15 16 -31 18
-35 2 -5 -14 -8 -36 -8 -22 0 -58 -10 -83 -23 -53 -29 -66 -26 -75 18 -4 25 1
49 20 91 15 31 25 58 24 59 -2 1 -30 7 -63 14 -86 18 -96 21 -90 32 4 5 -3 9
-13 9 -12 0 -22 -9 -25 -22z m988 -152 c19 -8 35 -17 35 -20 0 -2 -26 -32 -58
-66 l-59 -62 -34 29 c-61 51 -82 91 -59 118 16 20 129 20 175 1z m-85 -155 c0
-5 -6 -14 -14 -20 -8 -6 -20 -25 -27 -42 l-12 -31 -13 24 c-20 34 -17 46 14
62 31 17 52 20 52 7z m-74 -143 c-3 -13 -9 -47 -12 -75 -5 -40 -11 -53 -23
-53 -26 1 -94 35 -115 59 -17 19 -18 23 -5 37 19 19 107 53 138 54 19 0 22 -4
17 -22z"/>
<path d="M6679 6037 c-95 -27 -193 -124 -221 -220 -19 -65 -16 -173 7 -241 24
-71 97 -151 170 -186 76 -37 171 -35 249 5 166 84 233 302 145 476 -64 128
-220 202 -350 166z m174 -48 c24 -13 20 -14 -52 -14 -70 0 -81 -3 -116 -29
l-38 -30 38 -33 c37 -32 41 -33 125 -33 108 0 150 -8 150 -27 0 -11 7 -13 25
-9 21 5 27 2 35 -19 15 -39 12 -135 -6 -195 -22 -74 -117 -170 -187 -190 -126
-34 -256 30 -319 158 -19 39 -23 63 -23 137 0 84 2 95 34 153 36 66 89 112
161 139 41 16 136 11 173 -8z m36 -67 c62 -30 48 -38 -61 -34 -110 4 -136 14
-104 38 27 19 123 17 165 -4z"/>
<path d="M7685 5936 c-27 -13 -62 -35 -76 -48 -32 -28 -79 -93 -79 -107 0 -15
-8 -14 -64 5 -60 21 -163 14 -226 -14 -51 -22 -128 -93 -150 -137 -8 -17 -18
-32 -22 -35 -12 -10 -38 -128 -38 -176 1 -176 121 -335 280 -369 64 -14 132
-6 195 24 92 43 152 109 185 202 l18 54 69 2 c118 2 202 58 255 170 19 40 23
65 23 143 0 85 -3 101 -28 148 -73 140 -218 198 -342 138z m63 -33 c-30 -19
-40 -43 -26 -67 10 -19 84 -57 143 -76 22 -6 66 -24 98 -38 l58 -27 -4 -70
c-5 -88 -38 -157 -98 -203 -142 -108 -322 -29 -370 163 -23 91 14 208 87 277
32 30 88 57 119 57 17 0 16 -2 -7 -16z m120 1 c38 -15 92 -61 92 -77 0 -4 -7
-1 -16 8 -26 26 -114 66 -136 63 -12 -2 -23 3 -25 10 -6 17 39 15 85 -4z m-68
-34 c0 -5 7 -10 15 -10 33 0 125 -60 125 -81 0 -16 -162 51 -175 72 -4 6 -1
15 6 20 19 12 29 11 29 -1z m-367 -115 c45 -7 87 -25 87 -36 0 -4 -26 1 -57
12 -66 23 -128 19 -162 -10 -32 -28 -29 -40 23 -81 11 -9 50 -17 99 -20 l81
-5 12 -50 c14 -53 31 -92 51 -113 7 -7 18 -21 25 -31 7 -9 28 -28 46 -41 17
-13 32 -31 32 -41 0 -27 -58 -130 -93 -167 -78 -81 -208 -107 -310 -63 -66 28
-140 101 -168 164 -19 42 -23 70 -23 147 -1 84 2 102 28 157 30 65 88 128 146
158 35 18 106 34 130 30 8 -2 32 -6 53 -10z m574 -37 c-3 -7 -5 -2 -5 12 0 14
2 19 5 13 2 -7 2 -19 0 -25z m-537 -31 c42 -21 28 -31 -40 -28 -64 3 -100 14
-100 31 0 22 91 20 140 -3z"/>
<path d="M3550 5845 c0 -10 10 -15 33 -15 97 0 152 -101 165 -305 6 -79 10
-100 22 -100 21 0 25 69 10 180 -20 143 -50 203 -122 241 -37 19 -108 19 -108
-1z"/>
<path d="M3299 5574 c-7 -8 -14 -39 -17 -68 -6 -71 25 -121 105 -169 92 -56
223 -87 223 -53 0 9 -20 18 -52 26 -79 18 -194 77 -219 112 -19 26 -21 39 -16
94 6 66 -1 85 -24 58z"/>
<path d="M4084 5218 c-4 -6 -9 -44 -12 -83 -5 -78 11 -145 33 -145 23 0 25 14
9 60 -16 46 -11 134 7 146 6 3 5 11 -2 20 -14 17 -25 18 -35 2z"/>
<path d="M3727 4963 c-22 -21 46 -183 76 -183 16 0 14 35 -3 58 -11 15 -26 50
-33 76 -12 48 -25 64 -40 49z"/>
<path d="M7925 4817 c-77 -31 -137 -84 -179 -160 -87 -156 -64 -346 57 -471
163 -169 422 -124 532 94 75 148 50 325 -63 451 -87 97 -229 132 -347 86z
m202 -30 c213 -79 281 -376 128 -563 -101 -123 -304 -134 -414 -23 -102 103
-134 232 -93 366 44 140 159 234 286 232 34 0 75 -6 93 -12z"/>
<path d="M8008 4763 c-14 -2 -31 -10 -37 -17 -19 -22 39 -72 106 -92 67 -19
123 -45 123 -56 0 -14 37 -9 49 6 9 11 9 20 -1 38 -49 88 -146 137 -240 121z
m92 -43 c42 -12 78 -35 68 -45 -8 -8 -135 32 -143 46 -8 12 31 11 75 -1z"/>
<path d="M7645 2333 c-131 -57 -206 -193 -192 -352 6 -71 32 -145 47 -136 5 3
7 0 5 -7 -3 -8 11 -33 32 -57 45 -53 140 -101 199 -101 92 0 181 53 237 140
107 165 59 403 -100 496 -61 35 -167 43 -228 17z m221 -58 c41 -29 95 -100
113 -148 6 -16 11 -66 11 -112 0 -135 -49 -221 -155 -271 -68 -32 -127 -31
-196 4 -119 60 -173 201 -138 362 13 63 59 124 124 169 48 32 53 33 126 29 63
-4 82 -9 115 -33z"/>
<path d="M7710 2233 c-56 -11 -76 -55 -39 -89 16 -14 41 -19 115 -22 l95 -4
17 -36 c23 -48 37 -41 36 19 -2 54 -24 88 -74 114 -29 15 -114 25 -150 18z
m138 -57 c15 -15 10 -16 -58 -16 -82 0 -116 12 -90 31 22 15 129 4 148 -15z"/>
<path d="M6888 2191 c-25 -10 -61 -29 -78 -41 -39 -28 -80 -111 -80 -163 0
-118 112 -217 247 -217 221 0 332 232 176 370 -76 67 -175 86 -265 51z m162
-32 c45 -14 98 -54 87 -65 -4 -5 -16 -3 -25 4 -62 45 -128 60 -200 46 -41 -8
-46 -28 -17 -61 22 -27 27 -28 107 -25 49 1 92 -3 106 -10 17 -9 25 -9 34 0
21 21 37 13 44 -23 21 -116 -74 -215 -207 -215 -145 0 -240 111 -200 232 31
95 160 150 271 117z m-30 -59 c0 -5 -18 -10 -39 -10 -22 0 -43 5 -46 10 -4 6
12 10 39 10 25 0 46 -4 46 -10z"/>
<path d="M1815 1733 c4 -16 9 -81 12 -145 4 -102 2 -130 -21 -229 -45 -191
-134 -350 -239 -427 -61 -45 -64 -46 -187 -78 -203 -53 -226 -67 -326 -200
-65 -87 -81 -98 -208 -150 -240 -98 -286 -120 -359 -168 -75 -48 -77 -51 -49
-54 18 -2 42 6 64 20 18 13 56 34 83 48 28 14 52 27 55 30 3 4 57 26 120 49
63 24 141 57 174 72 44 22 73 29 117 29 46 0 59 3 59 15 0 9 -7 18 -15 21 -25
10 -17 24 13 24 47 -1 134 -43 237 -117 113 -79 135 -92 230 -128 38 -14 83
-35 101 -46 19 -12 46 -19 61 -17 27 3 27 4 -22 36 -27 18 -85 46 -130 63
-107 42 -122 50 -224 124 -99 73 -183 115 -235 118 -31 2 -65 17 -38 17 6 0
13 8 16 18 9 28 65 81 110 104 23 12 93 34 156 50 63 16 134 38 157 49 137 66
262 257 314 479 42 178 34 420 -14 420 -16 0 -18 -4 -12 -27z"/>
<path d="M3016 781 l-27 -28 21 -37 c20 -33 21 -36 4 -43 -9 -3 -31 -1 -47 5
-36 14 -59 0 -55 -32 3 -17 -4 -21 -39 -27 -64 -12 -143 -60 -143 -88 0 -12
74 -41 105 -41 26 0 41 -15 25 -25 -20 -12 -9 -31 26 -44 49 -18 42 -42 -19
-61 l-48 -15 26 -23 c14 -12 23 -27 19 -33 -4 -7 4 -9 22 -7 23 2 29 8 28 27
0 13 10 35 23 49 12 14 24 31 25 38 0 8 1 19 2 26 1 7 -10 15 -23 18 -34 8
-35 21 -6 53 l26 27 -48 0 c-63 0 -123 10 -123 21 0 19 69 43 138 47 68 4 72
6 57 22 -14 16 -13 18 28 23 23 3 52 9 62 13 19 7 19 6 4 -12 -48 -56 -63
-132 -32 -166 15 -17 15 -22 -5 -81 -27 -76 -28 -100 -5 -95 11 2 20 18 25 42
5 21 18 56 30 77 l22 39 -22 23 c-12 13 -22 36 -22 52 0 40 45 101 97 132 24
14 43 29 43 34 0 21 -31 19 -69 -5 -22 -14 -45 -26 -50 -26 -5 0 -19 21 -32
46 -24 50 -21 57 29 70 35 10 27 34 -11 34 -24 0 -41 -8 -61 -29z"/>
<path d="M1015 418 c-16 -12 -34 -28 -38 -35 -5 -8 -29 -13 -65 -13 -59 0
-137 -29 -189 -70 l-26 -20 42 0 c22 0 41 4 41 9 0 23 119 53 162 41 27 -8 33
-5 67 30 57 60 96 51 108 -24 5 -34 8 -36 37 -32 124 19 156 17 156 -10 0 -27
37 -15 43 14 3 15 3 29 0 32 -2 3 -48 6 -100 7 l-96 1 -12 30 c-15 34 -51 62
-80 62 -11 0 -33 -10 -50 -22z"/>
<path d="M3699 420 c-15 -11 -60 -34 -100 -51 -70 -29 -119 -63 -119 -81 0
-14 31 -9 58 10 15 10 56 30 92 45 76 32 126 69 116 85 -10 16 -16 15 -47 -8z"/>
</g>
</svg>
