<?xml version="1.0" standalone="no"?>
<!DOCTYPE svg PUBLIC "-//W3C//DTD SVG 20010904//EN"
 "http://www.w3.org/TR/2001/REC-SVG-20010904/DTD/svg10.dtd">
<svg version="1.0" xmlns="http://www.w3.org/2000/svg"
 width="806.000000pt" height="810.000000pt" viewBox="0 0 806.000000 810.000000"
 preserveAspectRatio="xMidYMid meet">
<metadata>
Created by potrace 1.16, written by Peter Selinger 2001-2019
</metadata>
<g transform="translate(0.000000,810.000000) scale(0.100000,-0.100000)"
fill="#000000" stroke="none">
<path d="M5345 7957 c-117 -61 -202 -149 -239 -247 -24 -64 -28 -89 -27 -172
0 -54 -2 -98 -4 -98 -3 0 -16 17 -29 38 -18 26 -30 65 -40 135 -21 140 -63
197 -171 233 -130 45 -264 -24 -332 -171 -23 -51 -27 -73 -28 -150 0 -72 4
-98 21 -132 12 -23 19 -45 16 -47 -3 -3 -18 6 -35 20 -83 70 -220 101 -346 79
-62 -10 -141 -89 -162 -160 -18 -64 -16 -188 5 -249 61 -178 202 -319 344
-341 23 -4 42 -11 42 -16 0 -5 -9 -32 -20 -61 -15 -39 -20 -78 -20 -143 -1
-121 -9 -150 -65 -225 -68 -94 -85 -132 -95 -218 -17 -150 19 -283 107 -401
87 -115 85 -109 79 -261 -5 -140 -18 -203 -70 -345 -49 -130 -88 -197 -163
-274 -40 -40 -73 -77 -73 -82 0 -17 65 -60 106 -70 24 -6 44 -14 44 -16 0 -3
-33 -44 -74 -91 -41 -48 -108 -134 -149 -192 -91 -128 -172 -218 -246 -273
l-56 -42 -95 0 c-87 0 -101 3 -161 32 -37 18 -71 39 -77 46 -9 10 -2 31 28 88
129 246 178 537 166 979 -10 359 -15 400 -69 512 -53 111 -104 181 -223 308
-250 267 -502 438 -864 585 -532 217 -1150 218 -1508 3 -97 -59 -269 -234
-249 -254 3 -3 38 6 79 20 118 39 228 56 372 56 141 0 215 -10 311 -40 188
-60 227 -76 292 -118 73 -47 92 -69 51 -58 -13 3 -85 11 -161 17 -204 16 -381
-7 -593 -76 -360 -118 -567 -303 -714 -640 -29 -66 -61 -151 -71 -190 -22 -82
-35 -216 -25 -269 7 -38 29 -49 40 -18 3 9 11 26 18 37 7 11 42 65 77 120 82
130 225 273 331 332 144 80 349 135 510 137 100 1 294 -31 269 -44 -8 -4 -54
-10 -104 -13 -144 -10 -229 -32 -350 -91 -259 -128 -447 -340 -644 -727 -100
-197 -130 -271 -166 -414 -48 -193 -53 -383 -14 -553 23 -100 82 -134 94 -55
35 241 109 367 351 592 182 171 430 289 733 351 205 42 494 19 601 -48 28 -18
56 -32 61 -32 5 0 9 -4 9 -9 0 -4 -51 -11 -112 -14 -180 -9 -392 -60 -571
-138 -183 -80 -420 -273 -555 -454 -125 -167 -208 -406 -232 -665 -17 -189 7
-403 67 -594 44 -139 111 -247 146 -233 20 8 21 31 2 117 -27 123 -16 336 25
485 52 187 141 333 298 493 157 159 326 247 576 299 102 21 331 23 439 4 72
-13 113 -31 70 -31 -34 0 -173 -49 -256 -91 -89 -44 -200 -121 -286 -196 -57
-49 -236 -308 -273 -393 -74 -168 -93 -275 -84 -455 16 -313 158 -661 340
-835 44 -43 116 -93 123 -86 2 2 -3 20 -11 42 -62 168 -78 219 -91 293 -18 98
-19 287 -4 396 13 97 54 214 118 338 65 125 121 199 199 257 68 52 207 124
260 135 l32 7 -31 -54 c-167 -283 -216 -504 -174 -793 39 -268 165 -546 313
-688 37 -37 108 -71 125 -60 12 7 -1 65 -45 198 -65 201 -64 378 3 620 83 296
236 493 477 614 35 18 70 31 79 29 9 -2 24 -32 37 -73 43 -134 133 -291 301
-525 45 -63 89 -133 96 -155 15 -43 18 -259 5 -273 -5 -4 -14 2 -22 13 -83
118 -116 154 -171 192 -97 64 -162 86 -280 91 -95 4 -103 3 -103 -14 0 -11 32
-55 71 -99 39 -44 82 -100 97 -124 28 -48 52 -136 52 -193 0 -41 -11 -48 -32
-20 -19 25 -106 69 -169 85 -70 19 -226 31 -278 22 -32 -5 -42 -12 -47 -31 -8
-30 10 -45 80 -71 102 -37 205 -169 251 -320 30 -97 16 -137 -53 -148 -74 -13
-184 -46 -231 -69 -45 -23 -113 -88 -123 -117 -4 -13 -105 -27 -210 -28 -44
-1 -48 1 -48 22 0 13 7 47 16 76 19 64 82 132 162 176 29 16 51 33 49 39 -2 6
-19 19 -38 28 -66 34 -232 18 -315 -31 -20 -12 -39 -19 -43 -16 -20 12 -19
162 1 278 13 76 17 125 12 138 -9 19 -11 19 -70 -11 -115 -57 -188 -160 -220
-311 l-17 -76 -76 76 c-143 144 -257 201 -437 217 -97 9 -97 -1 5 -111 43 -47
89 -106 101 -132 22 -48 50 -158 50 -203 l0 -25 -152 0 c-170 0 -207 -11 -261
-74 -24 -29 -44 -87 -34 -97 3 -3 26 2 51 10 26 9 54 16 64 16 92 0 211 -106
237 -210 5 -22 0 -28 -48 -53 -30 -15 -69 -44 -88 -63 -29 -30 -34 -42 -34
-82 0 -109 112 -171 395 -221 290 -52 502 -94 615 -123 117 -29 121 -31 165
-79 56 -62 111 -82 291 -108 73 -11 136 -24 142 -30 5 -5 12 -41 15 -80 2 -38
7 -70 11 -69 3 1 19 -4 35 -11 34 -14 127 -27 259 -36 89 -7 160 -1 302 23
l40 7 8 65 c4 35 10 66 12 69 4 4 902 -52 1120 -70 194 -16 443 -27 502 -23
455 33 536 47 601 106 l39 35 194 6 c401 12 1276 96 1479 143 187 42 331 144
330 233 -1 48 -16 73 -72 116 -53 40 -58 58 -25 95 42 49 57 55 150 60 54 3
92 10 94 16 13 39 -128 130 -218 141 -27 3 -49 9 -49 13 0 12 53 31 109 41 64
10 76 19 68 51 -9 34 -106 79 -182 85 -43 4 -76 0 -117 -14 -55 -19 -58 -19
-58 -2 0 32 23 73 77 138 30 35 52 69 50 75 -10 29 -154 11 -223 -29 -54 -32
-106 -91 -129 -147 l-19 -46 -66 33 c-70 35 -160 59 -199 54 -23 -4 -22 -7 33
-84 31 -44 64 -96 73 -115 18 -36 24 -122 10 -136 -11 -12 -121 13 -211 48
l-80 31 31 27 c17 15 36 29 43 32 7 2 15 26 17 54 4 43 2 54 -21 81 -14 17
-53 48 -86 69 -33 22 -60 46 -60 55 0 33 33 109 58 135 83 83 194 83 280 -2
25 -25 50 -43 56 -41 17 6 10 89 -9 127 -23 44 -112 133 -156 155 -84 44 -201
57 -266 30 -20 -8 -38 -13 -41 -10 -3 3 7 34 22 70 31 71 87 131 133 140 16 4
53 14 83 23 107 33 66 81 -81 96 -135 14 -278 -42 -378 -150 -33 -34 -61 -61
-64 -58 -5 5 7 86 22 142 16 57 67 121 121 149 59 31 72 44 60 63 -7 12 -29
15 -94 14 -155 -2 -308 -75 -401 -192 l-50 -63 -6 53 c-14 120 -48 186 -141
274 -67 63 -101 84 -133 84 -21 0 -25 -5 -25 -28 0 -16 6 -51 14 -78 24 -83
28 -131 16 -191 -16 -81 -32 -133 -40 -133 -4 0 -10 25 -14 55 -6 55 -61 195
-77 195 -4 0 -10 8 -13 18 -4 10 -22 36 -41 57 -20 21 -32 41 -28 45 4 4 29
19 54 33 25 14 83 48 128 76 75 47 84 50 104 37 34 -22 131 -38 184 -30 27 3
70 17 97 30 l50 23 35 -28 c20 -16 61 -41 91 -57 48 -25 66 -28 145 -28 72 0
100 4 140 22 50 23 155 116 155 138 0 24 34 23 104 -2 60 -23 88 -27 181 -28
124 -1 192 13 278 56 115 57 186 160 195 281 l5 67 33 0 c18 0 57 5 86 11 129
28 224 96 272 195 24 50 28 66 23 116 -3 34 -18 85 -36 124 -17 36 -31 68 -31
70 0 1 26 17 59 34 70 38 128 95 176 175 38 64 40 81 13 183 -14 55 -82 127
-129 137 -19 4 -38 10 -42 12 -5 3 22 35 60 72 88 84 123 151 123 235 0 141
-108 236 -268 236 -62 0 -127 -19 -283 -85 -218 -92 -308 -117 -436 -123 -104
-4 -128 -1 -305 37 -106 22 -210 43 -230 46 -29 4 -42 14 -60 43 -21 33 -23
49 -23 162 0 120 -1 128 -32 193 -42 89 -132 179 -230 230 -40 21 -73 41 -73
44 0 2 8 17 18 31 10 15 24 42 31 60 11 26 19 32 43 32 91 0 189 108 188 209
-1 61 -63 148 -123 170 -15 6 -69 16 -120 21 -50 6 -96 15 -101 20 -23 23 114
131 234 186 53 23 79 29 137 29 70 0 73 -1 112 -39 47 -46 65 -40 74 25 17
128 -37 247 -144 320 -101 69 -143 80 -318 89 -84 5 -158 13 -163 18 -7 7 -4
32 10 79 29 94 36 166 23 242 -6 36 -9 67 -6 69 5 5 32 -12 132 -79 102 -69
148 -89 217 -96 105 -10 186 29 228 110 34 64 31 174 -6 245 -55 108 -142 177
-256 207 -75 19 -130 19 -180 -1 -52 -21 -66 -9 -40 33 25 41 55 56 174 86
146 37 200 89 200 192 0 93 -68 202 -155 249 -41 23 -62 27 -124 28 -163 0
-274 -70 -379 -242 -25 -41 -46 -80 -46 -87 0 -26 -19 -12 -26 20 -17 73 -1
115 88 225 105 132 118 178 71 263 -38 71 -120 126 -228 155 -84 23 -122 18
-210 -29z m277 -44 c82 -37 138 -101 138 -158 0 -46 -14 -72 -94 -169 -25 -31
-55 -74 -66 -96 -23 -44 -27 -127 -9 -181 11 -33 55 -89 70 -89 4 0 10 17 14
38 22 118 154 281 261 322 79 30 199 31 246 2 83 -52 128 -126 128 -211 0 -44
-4 -55 -34 -84 -34 -34 -44 -38 -232 -86 -82 -22 -124 -78 -124 -167 0 -52 0
-52 90 -19 33 12 66 16 120 13 176 -10 310 -144 310 -310 0 -99 -61 -162 -168
-175 -60 -6 -143 24 -210 76 -72 56 -167 111 -193 111 -29 0 -36 5 -72 48 -56
69 -147 134 -247 177 -148 65 -227 80 -405 79 -328 -1 -616 -105 -712 -256
l-25 -41 -66 5 c-40 3 -83 13 -107 26 -140 72 -235 234 -235 400 0 92 20 142
73 189 44 39 82 47 191 41 95 -5 137 -24 221 -102 28 -26 66 -55 85 -65 34
-18 100 -37 100 -29 0 3 -20 25 -44 50 -24 26 -59 77 -78 115 -30 61 -33 76
-32 153 0 99 21 156 78 214 122 121 288 96 353 -54 19 -43 33 -106 33 -145 0
-20 7 -53 16 -72 19 -38 77 -83 109 -83 20 0 21 3 13 75 -9 75 5 191 30 255
29 73 161 188 259 225 52 20 142 11 215 -22z m-222 -937 c236 -69 356 -151
420 -288 26 -54 30 -75 30 -143 0 -76 -13 -137 -41 -197 -15 -33 -20 -34 -37
-8 -15 24 -58 26 -124 6 l-45 -13 -6 59 c-7 75 -54 175 -103 218 -47 40 -36
51 21 20 24 -13 47 -21 51 -18 12 12 -37 68 -73 83 -43 18 -142 20 -180 3 -43
-20 -92 -76 -125 -146 -34 -71 -46 -178 -30 -275 8 -51 7 -59 -7 -64 -9 -2
-27 -10 -41 -16 -24 -11 -22 -12 20 -14 93 -6 131 -15 159 -38 26 -22 28 -29
24 -69 -8 -64 3 -105 42 -170 33 -55 34 -60 24 -103 -20 -77 -6 -302 25 -406
47 -159 108 -260 185 -305 42 -24 55 -27 146 -27 69 0 116 5 152 18 l52 17 73
-42 c84 -50 207 -166 236 -224 41 -80 49 -192 20 -266 -12 -32 -28 -37 -28 -9
0 10 -16 39 -35 64 -26 34 -55 56 -113 84 -42 21 -85 47 -94 58 -25 29 -22 10
6 -34 77 -122 75 -231 -6 -333 -16 -21 -33 -38 -37 -38 -4 0 -13 19 -20 42
-17 54 -108 145 -183 182 -33 16 -59 36 -63 49 -5 14 -10 -14 -14 -78 -9 -134
-37 -210 -99 -267 -41 -38 -46 -40 -53 -22 -4 10 -8 46 -8 79 -1 73 -30 181
-60 226 -21 32 -24 21 -6 -23 4 -10 -26 15 -66 55 -80 79 -135 114 -238 151
-146 52 -305 59 -423 19 -46 -16 -58 -17 -58 -6 0 28 -18 11 -63 -59 -77 -123
-171 -200 -269 -222 -34 -8 -34 -2 -12 94 8 38 14 80 12 92 -4 23 -5 23 -15
-3 -7 -15 -22 -29 -35 -32 -42 -12 -118 -7 -156 9 l-37 15 28 21 c52 38 139
185 190 323 55 149 71 231 71 377 1 76 2 138 4 138 2 0 12 -5 24 -11 42 -22
27 2 -45 73 -86 85 -118 133 -147 217 -23 69 -27 194 -8 269 27 109 128 243
198 262 46 13 64 25 56 38 -4 8 -21 6 -54 -3 -26 -8 -49 -15 -51 -15 -2 0 -1
48 2 108 10 171 54 282 141 359 180 159 629 238 896 159z m-3639 -326 c102
-11 145 -19 319 -61 112 -28 323 -100 391 -135 196 -99 419 -241 546 -348 142
-119 325 -323 366 -409 96 -197 132 -471 108 -802 -25 -339 -79 -569 -174
-737 l-37 -67 -65 32 c-53 26 -64 36 -61 52 32 147 31 515 -2 760 -22 156 -84
438 -112 501 -26 60 -180 210 -290 282 -141 92 -156 104 -181 142 -12 19 -33
52 -47 72 -38 58 -165 183 -252 248 -151 111 -422 224 -640 265 -47 9 -107 20
-133 26 -140 27 -529 -14 -712 -77 -26 -8 -49 -13 -52 -11 -5 6 101 82 172
124 107 63 304 125 446 142 107 12 291 13 410 1z m3626 -52 c55 -51 12 -158
-62 -158 -50 0 -89 50 -82 104 11 81 86 109 144 54z m146 -89 c44 -84 49 -148
17 -214 -33 -68 -73 -101 -145 -120 l-65 -18 -67 30 c-77 34 -92 58 -92 148
l0 50 20 -27 c32 -43 81 -68 133 -68 132 0 204 108 163 243 -8 26 -12 47 -8
47 5 0 24 -32 44 -71z m-3903 -84 c41 -9 95 -22 120 -30 25 -8 79 -24 120 -36
41 -12 86 -27 100 -34 153 -73 224 -110 259 -133 67 -45 246 -229 275 -282 15
-28 25 -50 23 -50 -2 0 -67 30 -143 66 -175 83 -321 139 -404 154 -102 17
-131 30 -200 85 -137 111 -199 139 -425 201 -90 25 -303 45 -390 38 -70 -6 -1
14 105 30 126 20 452 15 560 -9z m4136 -126 c49 -52 75 -60 232 -70 111 -7
164 -15 214 -33 74 -26 144 -74 178 -123 27 -39 50 -114 50 -163 l0 -37 -47
23 c-70 36 -140 32 -271 -13 -100 -35 -115 -38 -227 -38 -129 0 -159 9 -217
63 -33 31 -36 46 -7 37 18 -6 20 -5 10 14 -15 27 -64 28 -91 1 -20 -20 -28
-70 -11 -70 5 0 12 11 15 25 9 34 20 31 45 -8 38 -62 156 -107 279 -107 l56 0
-39 -40 c-67 -68 -148 -95 -244 -79 -104 17 -185 75 -288 206 -59 75 -67 91
-71 137 -4 47 -1 55 26 84 27 29 36 32 89 32 71 0 103 8 103 25 0 8 -8 11 -21
8 -18 -5 -20 -3 -11 13 28 50 91 105 143 124 70 25 70 25 105 -11z m-3951
-208 c165 -28 212 -40 270 -66 28 -12 86 -35 130 -50 307 -107 717 -381 793
-531 40 -79 102 -349 134 -584 24 -180 12 -615 -19 -696 -3 -8 -20 -22 -37
-31 -17 -8 -41 -25 -54 -36 -13 -13 -26 -17 -31 -11 -5 5 -41 106 -81 224
-120 358 -222 577 -350 755 -31 44 -67 98 -78 121 -104 206 -438 495 -704 611
-252 109 -402 136 -618 113 -187 -20 -326 -61 -485 -143 -144 -74 -327 -281
-424 -478 -58 -116 -64 -111 -21 20 96 294 261 506 498 640 39 23 92 45 118
51 27 6 69 22 95 34 61 31 140 54 247 71 128 21 460 13 617 -14z m-295 -218
c75 -19 259 -92 328 -130 26 -15 56 -31 67 -37 11 -6 48 -30 82 -54 34 -23 66
-42 72 -42 5 0 11 -3 13 -7 2 -5 39 -38 83 -75 45 -36 112 -99 150 -140 67
-71 160 -196 152 -204 -2 -2 -37 18 -78 45 -202 134 -397 208 -734 276 -46 9
-111 32 -156 55 -108 55 -203 73 -374 73 -167 -1 -244 -16 -393 -76 -135 -54
-196 -94 -317 -209 -98 -93 -134 -138 -180 -223 -34 -65 -32 -39 7 64 89 244
268 455 478 565 78 41 251 101 340 117 71 13 278 26 350 21 25 -2 74 -10 110
-19z m3958 -112 c99 -86 225 -130 321 -113 42 8 52 6 68 -9 19 -19 100 -39
162 -39 93 0 161 -44 180 -116 15 -56 0 -110 -43 -152 -29 -30 -43 -36 -88
-39 l-53 -4 -67 88 c-37 48 -74 97 -82 108 -8 11 -17 17 -21 13 -13 -13 8 -50
66 -115 70 -79 86 -118 69 -168 -16 -47 -59 -81 -137 -105 -122 -38 -213 -26
-282 36 -103 93 -180 303 -181 492 0 75 15 172 27 172 3 0 30 -22 61 -49z
m-3842 -276 c54 -13 142 -34 194 -45 113 -26 218 -61 318 -107 39 -18 75 -33
78 -33 22 0 188 -114 245 -167 85 -80 136 -157 233 -350 97 -195 145 -310 196
-475 22 -73 46 -144 52 -158 16 -38 23 -190 9 -190 -6 0 -25 30 -42 68 -158
347 -294 541 -513 731 -247 214 -388 285 -657 332 -150 27 -407 32 -509 10
-250 -52 -553 -220 -726 -403 -181 -189 -314 -503 -351 -828 -6 -55 -8 -60
-14 -35 -15 65 -9 263 11 376 28 162 110 387 194 534 86 151 111 190 167 266
90 121 288 315 374 365 208 120 514 166 741 109z m114 -420 c195 -26 297 -68
489 -198 166 -112 314 -267 440 -457 105 -158 205 -348 240 -453 10 -32 15
-57 11 -55 -3 2 -52 58 -108 125 -218 260 -449 426 -661 473 -33 8 -79 30
-120 58 -209 143 -452 183 -758 123 -121 -24 -292 -80 -392 -130 -42 -21 -92
-44 -111 -51 -68 -26 -186 -116 -290 -220 -115 -116 -185 -211 -255 -346 l-46
-89 6 70 c16 163 57 301 146 485 92 191 173 289 346 419 163 123 360 217 533
256 83 19 354 14 530 -10z m3266 -295 c32 -6 68 -15 79 -19 11 -5 45 -19 75
-31 134 -54 235 -144 298 -264 24 -46 27 -60 25 -148 -2 -55 1 -100 7 -103 6
-3 23 2 40 11 16 10 33 15 37 10 13 -13 16 -215 4 -279 -43 -224 -156 -433
-329 -607 -78 -78 -113 -105 -175 -135 -100 -50 -167 -57 -232 -25 -62 30 -79
58 -77 128 2 71 13 98 79 196 51 76 61 96 46 96 -9 -1 -44 -56 -110 -172 -46
-82 -82 -115 -178 -167 -87 -47 -157 -52 -229 -17 -64 31 -111 83 -120 132 -8
40 19 98 87 188 25 33 55 77 67 99 39 69 3 36 -57 -53 -70 -102 -99 -120 -196
-120 -80 0 -119 17 -147 63 -35 57 -22 107 54 200 52 64 47 78 -7 18 -115
-127 -121 -241 -16 -293 40 -20 116 -27 172 -15 l38 8 -15 -30 c-33 -62 -16
-122 52 -183 95 -86 188 -89 338 -9 52 28 97 51 99 51 3 0 10 -20 16 -45 14
-56 62 -100 124 -116 25 -6 45 -15 45 -20 0 -25 -244 -136 -395 -179 -309 -89
-557 -75 -625 35 -52 83 -22 141 107 209 93 48 98 60 12 26 -88 -35 -138 -76
-166 -136 l-24 -54 -115 0 c-175 0 -268 37 -322 130 -22 36 -27 58 -27 111 0
56 4 71 27 101 32 42 135 106 241 149 43 17 75 34 73 37 -7 6 -121 -36 -166
-62 -77 -43 -126 -66 -143 -66 -30 0 -110 46 -149 87 -88 91 -88 205 0 296 68
70 131 94 391 147 142 30 177 40 131 40 -20 0 -19 3 16 29 61 45 113 105 233
266 61 83 134 176 163 209 54 61 120 111 137 104 5 -1 -1 -28 -14 -58 -13 -30
-24 -65 -25 -77 0 -20 4 -22 33 -17 117 21 175 58 271 172 39 46 89 95 111
108 84 49 207 65 331 44z m1086 -96 c16 -9 50 -34 74 -56 37 -34 45 -48 50
-89 7 -52 26 -64 49 -33 10 14 17 8 49 -47 66 -115 125 -244 140 -305 31 -129
28 -157 -9 -88 -10 19 -27 40 -37 45 -22 12 -22 11 1 -43 51 -119 76 -323 55
-450 -10 -61 -15 -56 -79 85 -33 70 -48 35 -19 -44 20 -56 23 -214 5 -289 -16
-64 -49 -135 -59 -125 -4 4 -11 30 -17 58 -13 67 -35 75 -35 13 0 -58 -30
-147 -73 -221 -33 -56 -126 -173 -139 -174 -4 -1 -8 18 -10 41 -2 23 -8 43
-15 45 -6 2 -24 -17 -39 -44 -82 -143 -225 -278 -434 -409 -97 -61 -220 -134
-226 -134 -3 0 -18 -8 -32 -19 -80 -55 -593 -213 -617 -189 -3 3 8 32 24 64
39 79 60 155 67 239 6 67 -9 165 -23 151 -4 -3 -7 -59 -7 -124 -1 -105 -4
-125 -31 -195 -32 -84 -113 -201 -155 -223 -14 -7 -38 -15 -53 -19 -15 -3 -25
-10 -22 -15 10 -16 43 -12 86 11 40 20 42 20 61 2 41 -37 64 -111 54 -169 l-7
-34 -37 23 c-100 61 -118 60 -125 -5 -6 -49 -45 -116 -73 -125 -12 -4 -64 105
-64 135 0 29 -17 29 -26 0 -3 -13 -15 -41 -24 -63 -44 -96 -100 -113 -150 -43
-16 22 -30 45 -30 50 0 5 -7 25 -16 46 l-16 37 -23 -45 c-14 -25 -37 -60 -53
-79 l-29 -35 -25 26 c-19 18 -29 44 -38 96 -7 39 -17 69 -22 66 -5 -3 -6 -14
-3 -25 5 -14 -1 -22 -22 -31 -15 -7 -40 -20 -55 -30 -27 -18 -27 -18 -39 4
-17 32 -23 149 -10 190 7 20 21 44 32 54 19 17 21 17 64 -6 42 -23 64 -23 50
-1 -3 6 -24 20 -46 31 -77 40 -129 149 -151 319 -8 63 -8 103 1 159 12 82 10
96 -11 60 -9 -16 -13 -61 -12 -148 0 -140 25 -255 70 -322 29 -45 30 -55 5
-63 -50 -15 -209 78 -338 199 -98 92 -177 187 -255 306 -204 312 -277 576
-266 963 8 241 42 374 115 441 60 56 121 47 233 -34 45 -32 104 -66 131 -75
28 -10 48 -20 45 -23 -4 -3 -37 -15 -76 -28 -118 -37 -206 -101 -236 -171 -8
-18 -14 -57 -14 -88 0 -102 63 -186 174 -236 25 -11 46 -22 46 -24 0 -2 -9
-27 -20 -55 -80 -203 84 -349 393 -350 l97 0 43 -44 c61 -64 139 -86 303 -86
205 0 363 43 643 176 74 35 140 73 147 83 8 10 24 21 37 25 102 25 299 193
406 346 62 88 130 221 161 314 45 135 62 308 40 404 -9 39 -8 45 19 83 35 48
59 114 75 210 l11 68 52 -23 c61 -29 127 -86 141 -124 6 -15 16 -46 22 -69 6
-24 13 -43 16 -43 3 0 21 12 39 26 75 57 119 228 82 317 -18 41 -11 45 35 21z
m1699 -180 c52 -36 89 -109 89 -177 0 -40 -6 -56 -39 -101 -82 -111 -160 -174
-287 -233 -102 -47 -300 -95 -270 -66 13 13 -90 99 -135 112 -47 13 -169 11
-169 -2 0 -5 39 -10 88 -11 103 -2 134 -18 177 -92 33 -56 45 -156 25 -204
-26 -63 -119 -122 -213 -135 l-49 -8 56 -56 c96 -98 118 -183 71 -278 -29 -56
-69 -92 -142 -125 -39 -17 -68 -21 -153 -22 -58 -1 -125 3 -150 7 l-45 8 40
-24 c38 -22 40 -26 37 -66 -3 -56 -22 -91 -66 -125 -76 -57 -169 -69 -259 -31
-46 19 -53 19 -37 -1 37 -44 132 -57 224 -30 46 14 70 29 112 71 29 29 56 65
59 79 3 14 7 37 10 49 4 23 10 24 99 30 106 7 146 20 215 71 126 93 139 256
31 380 -35 39 -38 56 -10 56 52 0 144 61 178 119 22 38 27 58 27 117 l0 70 75
17 c41 9 106 33 143 52 146 75 279 49 337 -66 71 -138 -79 -325 -308 -384 -31
-8 -99 -15 -152 -16 -76 -1 -89 -3 -65 -10 17 -6 78 -7 143 -4 l113 6 33 -33
c66 -66 75 -202 20 -281 -78 -111 -276 -174 -449 -142 -51 9 -36 -7 21 -23 45
-13 54 -28 54 -93 0 -73 -12 -103 -65 -155 -63 -63 -153 -107 -264 -130 -108
-21 -191 -14 -294 26 -43 16 -82 30 -87 30 -5 0 -18 -19 -28 -42 -31 -67 -82
-112 -157 -136 -78 -26 -107 -27 -189 -6 -67 17 -135 56 -181 104 -35 37 -50
38 -71 4 -25 -38 -66 -54 -136 -54 -46 0 -72 6 -97 21 -28 17 -32 22 -20 33 8
7 43 37 79 67 83 69 140 128 198 204 25 33 49 64 53 69 5 5 8 -7 7 -27 -1 -21
2 -40 6 -44 20 -21 154 158 215 287 l37 79 12 -32 13 -32 23 27 c34 38 65 140
81 260 7 57 13 98 14 92 0 -5 7 -19 15 -30 14 -18 15 -17 30 17 35 83 39 197
13 414 -1 12 3 19 11 18 34 -7 -2 202 -55 307 -26 53 -53 118 -53 131 0 9 85
-6 238 -43 122 -29 153 -32 287 -33 173 0 219 11 415 98 202 89 264 108 352
104 66 -3 83 -8 119 -33z m-5753 -5 c179 -20 306 -73 472 -198 156 -116 394
-392 400 -461 5 -54 -2 -51 -77 22 -43 42 -91 87 -108 101 -99 81 -305 189
-420 222 -33 9 -79 23 -101 30 -64 21 -208 44 -319 51 -235 14 -546 -70 -729
-195 -108 -75 -242 -220 -350 -381 -70 -104 -112 -189 -167 -340 -39 -109 -42
-122 -46 -250 -3 -88 1 -185 11 -279 9 -79 14 -146 12 -148 -5 -5 -28 65 -58
177 -21 76 -23 107 -23 295 1 269 24 390 112 590 75 169 215 340 398 488 157
127 437 237 690 271 129 18 185 18 303 5z m75 -289 c257 -55 465 -151 629
-293 58 -49 160 -175 153 -188 -3 -4 -35 5 -72 18 -78 29 -407 96 -440 90 -33
-6 -131 11 -190 33 -174 65 -434 66 -689 4 -135 -33 -213 -65 -309 -129 -106
-71 -136 -95 -226 -185 -187 -186 -301 -458 -316 -755 -7 -126 -21 -133 -22
-11 -1 39 -6 122 -12 185 -9 88 -9 135 1 205 14 102 73 273 128 376 55 100
222 321 302 398 65 63 188 145 255 170 17 6 71 27 122 46 139 54 220 66 418
61 122 -3 197 -9 268 -25z m517 -434 c84 -17 149 -37 198 -61 69 -34 72 -38
72 -71 l0 -34 -37 16 c-181 80 -349 92 -557 40 -169 -43 -323 -128 -494 -270
-86 -73 -132 -125 -183 -207 -19 -30 -40 -64 -46 -75 -33 -51 -97 -210 -124
-309 -27 -98 -42 -253 -34 -365 11 -162 62 -376 117 -483 31 -63 15 -53 -45
26 -145 193 -247 499 -247 739 0 221 44 366 174 566 178 275 474 472 771 511
116 16 296 6 435 -23z m0 -107 c68 -10 156 -38 228 -71 42 -20 42 -20 42 -74
0 -63 16 -55 -175 -78 -162 -19 -340 -63 -436 -109 -41 -19 -96 -40 -124 -47
-85 -22 -151 -56 -265 -135 -101 -70 -160 -126 -160 -153 0 -6 -4 -12 -8 -14
-13 -5 -122 -203 -144 -260 -58 -151 -63 -188 -63 -435 l0 -231 -28 96 c-15
54 -35 150 -44 216 -14 102 -15 135 -5 240 7 66 18 144 26 171 13 49 59 175
75 205 4 8 23 44 41 80 55 107 109 180 199 271 236 236 580 370 841 328z m270
-248 c0 -5 -17 -12 -38 -16 -55 -9 -198 -75 -271 -124 -102 -69 -252 -235
-278 -308 -3 -10 -14 -29 -23 -43 -9 -14 -30 -61 -48 -105 -107 -277 -112
-733 -11 -950 15 -33 26 -61 24 -63 -6 -7 -115 168 -144 232 -120 262 -145
552 -70 811 46 155 143 335 228 421 69 69 146 94 461 147 49 8 170 7 170 -2z
m15 -78 c4 -21 11 -60 16 -86 15 -79 15 -79 -66 -116 -78 -35 -201 -120 -271
-187 -115 -112 -210 -280 -258 -454 -64 -238 -63 -535 3 -709 11 -30 19 -56
18 -57 -6 -6 -80 102 -102 148 -56 117 -90 317 -82 488 13 291 137 615 299
781 89 91 215 167 348 210 81 26 88 25 95 -18z m2738 -975 c114 -80 149 -154
163 -351 4 -54 10 -100 15 -102 4 -3 24 25 44 63 46 88 137 182 211 218 51 25
183 58 193 49 2 -2 -13 -23 -33 -46 -59 -69 -96 -191 -96 -313 0 -89 9 -95 55
-33 58 77 153 166 206 193 58 29 164 49 212 40 37 -7 52 -26 20 -26 -29 0 -97
-46 -131 -90 -40 -48 -72 -133 -79 -208 l-6 -53 63 40 c53 35 71 41 115 41 74
0 146 -25 203 -69 48 -38 100 -107 89 -117 -3 -3 -23 4 -46 15 -53 28 -147 28
-199 2 -65 -34 -114 -101 -128 -178 -8 -42 4 -42 -204 16 -299 85 -588 133
-910 150 -486 27 -566 33 -574 41 -20 20 5 68 52 98 26 17 58 42 71 56 29 30
41 33 41 9 1 -57 52 -48 99 17 36 50 47 112 31 179 -11 46 -10 51 19 102 16
30 37 81 46 114 28 109 35 125 61 131 54 14 101 -16 158 -100 44 -63 75 -166
76 -248 0 -32 4 -58 10 -58 18 0 78 60 96 98 16 31 19 60 19 190 -1 83 1 152
2 152 2 0 18 -10 36 -22z m-2207 -34 c60 -55 144 -118 199 -149 102 -56 98
-50 99 -161 1 -89 4 -104 29 -146 15 -27 30 -48 32 -48 2 0 16 11 31 25 43 40
66 33 99 -27 16 -29 39 -62 53 -74 19 -19 24 -36 29 -97 l6 -74 -149 -7 c-263
-12 -431 -27 -744 -66 -106 -14 -211 -29 -237 -35 -22 -5 -23 -2 -23 49 0 161
-117 346 -279 444 -29 17 -32 22 -18 28 21 8 146 -1 210 -15 62 -14 173 -75
214 -119 18 -18 37 -30 43 -27 16 10 12 176 -6 231 -21 61 -90 166 -143 219
-23 21 -41 43 -41 47 0 13 80 9 135 -6 90 -24 176 -75 245 -145 58 -59 140
-177 140 -202 0 -5 4 -9 9 -9 18 0 33 136 30 268 -2 72 -3 132 -3 132 1 0 19
-16 40 -36z m1711 -69 c-8 -54 -26 -92 -78 -162 -37 -50 -52 -80 -27 -55 20
20 27 14 39 -30 15 -56 5 -131 -22 -169 l-21 -30 -29 27 c-20 19 -29 38 -31
68 l-3 41 -20 -58 c-20 -62 -59 -110 -83 -105 -9 2 -20 16 -25 33 -6 16 -23
43 -39 60 l-29 30 -22 -30 c-75 -102 -120 -119 -174 -62 -78 82 -58 131 29 72
20 -14 41 -25 46 -25 17 0 32 51 32 106 0 59 -17 103 -58 146 l-25 28 36 15
c20 8 47 15 59 15 44 0 360 94 408 121 34 19 43 11 37 -36z m-3211 -382 c-28
-127 -24 -379 6 -437 l15 -28 13 31 c14 35 60 78 99 93 36 14 143 27 175 21
26 -5 26 -6 -33 -60 -72 -65 -111 -137 -118 -222 l-6 -60 -51 -10 c-28 -6 -89
-17 -136 -26 -170 -33 -408 -96 -552 -147 -47 -17 -61 -18 -73 -8 -8 7 -15 17
-15 22 0 5 -23 47 -52 94 -65 107 -93 125 -188 125 -39 0 -75 -3 -80 -6 -17
-11 -11 11 8 28 35 32 133 58 217 59 71 0 110 -8 178 -37 15 -6 17 -1 17 48 0
81 -25 198 -56 262 -15 30 -52 82 -82 116 -30 33 -52 63 -48 66 11 11 157 -28
215 -58 111 -57 210 -155 301 -296 37 -59 48 -62 30 -10 -11 28 -10 49 8 133
35 172 84 265 166 315 42 25 49 24 42 -8z m2281 -143 c13 0 15 -8 9 -47 -4
-27 -9 -75 -13 -108 -5 -61 -5 -61 31 -88 46 -35 50 -81 10 -118 -42 -39 -45
-53 -34 -126 12 -81 37 -143 58 -143 11 0 12 3 3 14 -9 11 4 17 73 35 102 25
134 26 164 5 19 -13 21 -21 16 -56 -5 -29 -4 -39 4 -34 6 4 29 2 51 -4 55 -15
85 -58 78 -112 -7 -49 -13 -56 -35 -40 -9 7 -29 18 -44 25 -16 6 -28 19 -28
29 0 24 -9 23 -31 -6 -43 -54 -134 -58 -257 -12 -71 27 -80 28 -215 24 -130
-4 -151 -8 -252 -41 -132 -44 -167 -64 -198 -114 -30 -48 -44 -59 -83 -67 -26
-6 -34 -3 -48 19 -19 29 -50 32 -111 10 -49 -18 -58 -8 -50 55 6 50 32 80 71
80 16 0 28 -8 36 -25 6 -14 15 -25 19 -25 19 0 17 20 -6 51 -13 19 -32 44 -41
57 -24 33 -4 77 44 93 33 11 162 6 183 -7 5 -2 16 -20 25 -39 18 -38 39 -37
30 1 -5 20 -3 24 18 24 14 0 30 -10 40 -25 21 -33 40 -33 32 0 -6 22 -3 25 23
25 16 0 31 -5 33 -11 2 -5 14 4 27 21 12 17 21 34 18 36 -2 3 -25 -1 -51 -8
-37 -10 -64 -9 -138 1 -51 7 -130 15 -175 18 l-81 5 -47 -49 c-45 -46 -47 -47
-61 -29 -8 11 -14 30 -14 42 0 29 -20 42 -32 20 -7 -12 -23 -16 -63 -16 l-55
0 0 33 c0 44 38 81 85 81 30 0 34 3 40 33 12 64 84 87 195 61 41 -9 55 -18 68
-42 15 -29 17 -30 20 -8 5 33 47 29 83 -9 16 -17 29 -35 29 -40 0 -5 5 -9 10
-9 6 0 10 9 10 21 0 18 4 20 33 14 41 -9 47 -13 47 -31 0 -8 7 -14 15 -14 8 0
15 6 15 14 0 9 22 15 78 20 42 3 87 9 100 12 18 5 21 3 16 -10 -3 -9 -2 -16 4
-16 23 0 53 102 55 188 2 76 4 87 20 86 21 -2 21 -3 -4 46 -20 38 -20 42 -5
53 16 11 16 15 0 45 -34 69 -30 179 8 228 l22 27 54 -62 c30 -33 61 -61 69
-61z m588 87 c4 -21 1 -48 -8 -70 -9 -19 -21 -69 -28 -111 -9 -62 -15 -76 -30
-76 -10 0 -21 -4 -24 -10 -3 -5 0 -10 8 -10 8 0 20 -6 26 -14 10 -12 7 -18
-16 -30 -28 -15 -28 -16 -5 -22 19 -6 22 -13 23 -63 1 -163 30 -204 162 -226
31 -5 37 -10 37 -30 0 -30 16 -33 25 -5 5 15 15 20 41 20 30 0 34 -3 34 -25 0
-14 5 -25 10 -25 6 0 10 7 10 15 0 17 29 34 47 28 8 -3 11 -14 7 -29 -8 -32
14 -32 26 1 7 17 17 25 34 25 13 0 76 11 140 25 133 29 182 31 231 11 38 -16
40 -23 25 -75 -11 -41 -4 -54 15 -28 18 24 64 15 95 -18 24 -26 41 -117 23
-128 -5 -3 -33 1 -61 9 -39 12 -52 20 -52 34 0 42 -18 26 -24 -21 -7 -54 -36
-93 -64 -87 -10 2 -16 12 -15 23 5 56 -51 85 -164 85 -93 0 -224 15 -302 35
-63 17 -161 54 -176 67 -14 13 -35 9 -29 -5 8 -21 74 -54 121 -62 51 -8 58
-17 54 -70 -3 -44 8 -41 25 8 6 18 14 31 17 30 4 -2 18 -3 31 -3 22 0 25 -5
28 -42 l3 -43 19 38 c21 43 28 45 58 15 14 -14 23 -18 26 -10 6 19 212 16 240
-4 28 -19 28 -26 -3 -62 -30 -35 -35 -64 -7 -39 26 23 45 21 81 -8 35 -30 55
-84 46 -125 -4 -17 -8 -30 -9 -30 -1 0 -19 9 -41 20 -22 11 -47 20 -57 20 -11
0 -18 7 -18 19 0 11 -4 23 -10 26 -5 3 -10 -3 -10 -15 0 -34 -28 -78 -60 -95
-66 -34 -137 -11 -225 74 -91 88 -121 104 -342 182 -86 31 -93 35 -93 60 0 35
-41 84 -91 110 -29 14 -39 26 -39 43 0 13 -9 34 -19 47 -18 22 -26 24 -115 22
-105 -2 -111 3 -85 61 9 20 16 23 33 17 11 -5 47 -11 78 -15 53 -7 60 -5 83
18 21 21 25 35 25 81 0 38 -4 55 -13 55 -16 0 -37 55 -37 97 0 23 8 37 28 51
26 20 27 22 25 117 -1 95 -1 97 20 90 72 -23 85 -20 133 34 25 28 52 51 59 51
8 0 17 -15 20 -33z m-435 -6 c5 -11 10 -34 10 -51 0 -53 26 -48 85 16 68 73
75 67 75 -67 l0 -97 -32 -5 c-18 -4 -81 -9 -140 -13 -123 -8 -118 -13 -97 88
12 57 32 102 57 131 19 22 29 22 42 -2z m1035 -232 c144 -7 255 -21 455 -55
487 -82 665 -140 777 -251 57 -56 57 -80 -3 -129 -35 -29 -44 -43 -42 -63 5
-47 90 -76 453 -161 252 -58 367 -102 462 -173 55 -42 70 -75 49 -114 -52
-103 -218 -172 -491 -208 -362 -46 -1109 -105 -1342 -105 -132 0 -133 0 -139
24 -7 28 -51 73 -61 63 -3 -4 3 -17 15 -30 25 -26 29 -81 9 -101 -48 -48 -162
-71 -425 -87 -203 -13 -512 -4 -812 21 -58 5 -260 19 -450 30 -190 12 -379 25
-420 28 l-74 7 44 39 c25 21 72 48 105 60 69 24 75 41 26 70 -48 28 -166 33
-261 12 -40 -9 -74 -15 -76 -13 -4 4 19 91 34 127 5 14 22 38 36 53 37 39 34
51 -11 42 -59 -11 -87 -30 -154 -105 l-63 -70 -28 57 c-54 111 -162 183 -274
183 -55 0 -56 -9 -3 -91 54 -83 69 -119 69 -169 0 -37 -11 -52 -24 -31 -22 35
-222 55 -260 26 -18 -13 -16 -17 34 -75 29 -33 51 -62 49 -64 -9 -9 -189 17
-244 36 -64 21 -93 41 -105 73 -7 17 -1 22 42 35 l50 15 -79 1 c-44 1 -111 11
-153 22 -41 12 -196 44 -345 72 -148 28 -325 62 -391 74 -184 35 -294 97 -294
164 0 48 133 146 248 182 15 5 64 22 110 39 168 62 418 118 644 146 141 17
429 36 440 29 5 -3 8 0 8 5 0 6 -7 11 -15 11 -23 0 -75 29 -75 41 0 21 74 79
125 98 69 26 378 88 555 112 41 5 104 14 140 19 124 19 446 40 599 40 l154 0
-5 -113 c-6 -123 -21 -170 -60 -181 -75 -20 -195 -2 -383 56 -118 36 -198 45
-248 29 -37 -12 -77 -56 -77 -84 0 -9 -17 -19 -45 -26 -63 -16 -99 -64 -97
-133 1 -64 11 -74 50 -54 51 26 77 21 112 -24 17 -22 40 -40 50 -40 32 0 35
-22 5 -43 -43 -32 -58 -77 -43 -135 6 -26 21 -60 32 -75 l21 -28 20 24 c11 13
30 30 42 36 20 10 26 8 45 -15 58 -66 115 -56 206 38 37 38 87 82 112 98 65
41 186 64 340 64 115 0 132 -2 216 -32 108 -38 117 -38 186 -11 59 23 86 17
114 -26 20 -31 31 -31 64 0 l26 25 100 -34 c139 -47 177 -68 264 -151 94 -89
126 -107 212 -113 l68 -5 45 47 c25 25 54 46 63 46 9 0 30 -16 46 -35 36 -43
49 -44 76 -5 19 26 21 40 17 108 -2 42 -7 86 -11 97 -5 14 0 27 14 43 26 28
32 28 68 -3 36 -30 36 -30 61 -4 24 26 35 85 26 140 -9 50 -64 115 -106 124
-19 4 -29 13 -29 24 0 10 -9 30 -20 44 -31 39 -89 44 -219 18 -178 -36 -441
-25 -540 22 l-26 12 -3 169 -2 169 202 -7 c112 -4 289 -11 393 -17z m-910 -83
c0 -66 4 -88 18 -103 9 -11 17 -35 17 -56 0 -31 -4 -38 -24 -43 -14 -3 -41 -1
-60 6 -49 16 -95 16 -111 -1 -8 -8 -20 -43 -27 -77 -12 -58 -14 -62 -31 -49
-14 10 -19 27 -19 74 -1 58 1 63 35 96 52 48 46 107 -16 175 -36 39 10 59 143
61 l75 1 0 -84z m2855 -62 c0 -3 -16 -32 -35 -63 -32 -52 -67 -172 -54 -186 3
-2 40 7 82 20 88 28 152 32 202 11 37 -16 47 -36 18 -36 -49 0 -135 -62 -168
-121 l-14 -26 88 5 c96 5 163 -12 197 -49 17 -18 16 -19 -28 -19 -81 0 -158
-46 -187 -111 l-16 -38 -53 25 c-62 29 -175 62 -320 94 l-103 23 6 51 c8 61
-16 139 -62 208 -48 70 -48 70 -16 62 59 -14 138 -59 180 -102 l43 -46 0 60
c0 104 65 188 179 229 40 15 61 18 61 9z m-4481 -763 c72 -37 110 -89 170
-235 l12 -29 28 60 c33 69 81 127 123 149 34 17 47 12 28 -11 -7 -8 -10 -15
-6 -15 3 0 -3 -17 -14 -37 -21 -43 -35 -132 -23 -150 7 -9 23 -5 63 15 47 23
67 27 147 27 113 0 136 -14 71 -43 -88 -39 -160 -125 -174 -208 -3 -23 -9 -46
-13 -52 -20 -32 -370 -43 -480 -14 l-65 17 -12 57 c-19 80 -49 141 -102 200
l-46 50 69 -4 c51 -3 85 -12 125 -32 51 -26 55 -26 67 -10 28 39 4 142 -57
237 -16 26 -30 50 -30 54 0 11 81 -7 119 -26z"/>
<path d="M5345 6880 c-31 -12 -64 -53 -71 -87 l-6 -31 53 14 c63 16 130 18
178 4 19 -5 36 -8 38 -7 1 2 -6 19 -16 37 -31 58 -120 94 -176 70z"/>
<path d="M5287 4093 c-10 -119 -68 -233 -144 -287 -76 -53 -206 -43 -234 17
-10 22 -6 31 31 78 54 68 86 139 62 139 -4 0 -18 -21 -32 -47 -38 -72 -124
-158 -188 -190 -48 -23 -69 -28 -132 -27 -64 0 -84 5 -130 30 -74 40 -94 70
-94 141 -1 32 3 84 7 116 6 37 5 57 -2 57 -5 0 -12 -21 -16 -47 -13 -114 -20
-136 -46 -155 -38 -28 -120 -27 -164 3 -37 26 -45 52 -33 109 12 58 -8 55 -21
-4 -15 -69 1 -116 51 -142 41 -22 123 -23 165 -2 31 15 32 15 37 -8 10 -37 74
-92 129 -110 58 -19 163 -22 223 -5 23 6 58 24 79 41 39 31 55 31 55 2 1 -50
136 -80 213 -48 111 48 207 209 207 348 0 67 -16 60 -23 -9z"/>
<path d="M5978 1039 c-11 -6 -18 -22 -18 -40 0 -36 48 -69 100 -69 48 1 72 21
68 57 -5 47 -102 80 -150 52z"/>
<path d="M2410 984 c-24 -10 -61 -47 -76 -76 -34 -66 38 -119 171 -125 69 -4
86 -1 125 19 84 44 78 112 -15 154 -54 25 -173 41 -205 28z m189 -46 c43 -22
46 -25 46 -63 0 -36 -4 -42 -35 -57 -43 -22 -110 -23 -178 -3 -97 29 -105 91
-18 135 50 26 117 21 185 -12z"/>
<path d="M6143 812 c-67 -62 -55 -110 40 -159 47 -25 63 -27 160 -28 l109 0
29 33 c36 40 38 80 5 111 -33 31 -155 71 -234 77 -67 5 -67 4 -109 -34z m239
-12 c21 -6 51 -22 68 -36 87 -74 -27 -144 -186 -114 -88 17 -129 45 -129 90 0
28 6 39 35 58 31 21 43 23 105 19 39 -3 87 -10 107 -17z"/>
<path d="M2063 831 c-44 -19 -41 -77 4 -98 87 -41 193 22 135 79 -23 23 -103
34 -139 19z"/>
<path d="M4595 685 c-5 -2 -29 -9 -53 -15 -58 -15 -112 -64 -112 -101 0 -71
110 -141 251 -159 157 -21 271 17 309 103 18 40 18 43 2 72 -35 59 -124 91
-286 99 -55 3 -105 4 -111 1z m247 -39 c69 -16 106 -38 118 -72 14 -37 -10
-86 -56 -115 -35 -22 -50 -24 -149 -24 -118 0 -173 12 -225 47 -72 50 -89 112
-37 139 70 38 242 50 349 25z"/>
<path d="M3685 647 c-18 -34 -18 -36 -1 -62 24 -37 74 -55 148 -55 70 1 93 13
103 53 13 52 -40 83 -158 93 l-72 7 -20 -36z m190 -16 c16 -9 31 -25 33 -35 7
-33 -17 -46 -83 -46 -56 0 -67 3 -94 29 -34 32 -38 43 -18 59 29 24 113 20
162 -7z"/>
</g>
</svg>
