<?xml version="1.0" standalone="no"?>
<!DOCTYPE svg PUBLIC "-//W3C//DTD SVG 20010904//EN"
 "http://www.w3.org/TR/2001/REC-SVG-20010904/DTD/svg10.dtd">
<svg version="1.0" xmlns="http://www.w3.org/2000/svg"
 width="2000.000000pt" height="1368.000000pt" viewBox="0 0 2000.000000 1368.000000"
 preserveAspectRatio="xMidYMid meet">

<g transform="translate(0.000000,1368.000000) scale(0.100000,-0.100000)"
fill="#000000" stroke="none">
<path d="M17030 11633 c-101 -16 -227 -87 -315 -177 -72 -74 -85 -90 -140
-175 -57 -89 -77 -129 -114 -240 -18 -52 -48 -116 -66 -143 -19 -27 -37 -59
-41 -71 -4 -12 -10 -24 -15 -27 -9 -6 -39 -130 -47 -194 -5 -43 22 -210 43
-266 60 -162 95 -230 162 -319 18 -24 31 -46 29 -48 -3 -3 -28 0 -58 5 -29 6
-98 18 -153 27 -215 35 -358 74 -443 120 -42 23 -43 24 -37 4 13 -40 90 -131
147 -175 76 -58 147 -95 236 -123 40 -13 71 -25 69 -28 -11 -10 -176 -63 -199
-63 -22 0 -31 8 -48 43 -11 23 -27 53 -34 66 -17 29 -137 151 -149 151 -4 0
-25 11 -45 25 -20 14 -73 39 -117 56 -44 16 -89 34 -100 38 -50 20 -199 63
-300 86 -38 8 -88 20 -110 25 -22 5 -71 16 -110 24 -38 9 -99 23 -134 31 -36
9 -68 12 -72 8 -7 -8 -13 -28 -65 -223 -49 -182 -92 -373 -98 -440 -3 -25 -10
-79 -16 -120 -12 -75 -9 -318 5 -415 21 -149 123 -352 220 -437 35 -31 30 -39
-35 -58 -25 -7 -63 -18 -85 -25 -61 -19 -162 -37 -245 -42 -76 -5 -232 21
-278 46 -27 14 -32 14 -32 -2 0 -16 52 -65 105 -99 40 -25 130 -73 130 -69 0
1 13 -2 28 -8 16 -6 34 -11 40 -11 7 0 18 -4 25 -9 10 -6 -5 -19 -53 -46 -195
-109 -323 -236 -420 -416 -16 -31 -51 -94 -77 -140 -80 -143 -139 -301 -118
-314 5 -3 26 6 46 20 106 72 235 111 287 88 12 -5 54 -20 92 -33 74 -24 201
-83 300 -139 58 -32 165 -100 175 -111 3 -3 16 -13 30 -21 87 -56 332 -266
534 -459 49 -47 102 -97 117 -111 20 -19 29 -39 33 -75 4 -27 11 -79 17 -115
14 -92 6 -125 -52 -195 -51 -61 -57 -69 -74 -96 -5 -9 -37 -53 -70 -97 -82
-112 -125 -179 -189 -297 -67 -121 -89 -173 -125 -284 -88 -269 -91 -448 -14
-830 8 -41 19 -97 24 -125 6 -27 16 -72 24 -100 7 -27 21 -79 30 -115 10 -36
23 -83 30 -105 7 -22 20 -67 30 -100 9 -33 23 -76 31 -95 7 -19 16 -51 20 -70
3 -19 21 -80 39 -135 17 -55 42 -137 54 -182 l23 -81 -29 -54 c-17 -29 -61
-99 -99 -156 -38 -57 -81 -122 -96 -144 -15 -23 -31 -44 -35 -47 -5 -3 -17
-23 -28 -44 -11 -20 -22 -37 -25 -37 -12 0 -89 -156 -95 -193 -19 -101 32
-225 137 -333 41 -42 48 -55 41 -70 -40 -79 -41 -239 -3 -314 47 -93 211 -204
395 -269 172 -59 445 -80 608 -46 189 40 227 50 292 73 157 55 190 96 207 257
13 116 13 124 0 485 -6 168 -11 403 -12 522 0 239 -2 233 59 187 12 -10 55
-29 93 -41 l71 -23 -7 -95 c-4 -52 -11 -151 -16 -220 -12 -159 -12 -614 0
-700 5 -36 13 -99 19 -141 16 -121 43 -162 159 -238 138 -92 244 -130 493
-176 235 -44 538 11 823 150 l98 48 63 -11 c83 -16 132 -15 191 3 27 8 59 15
70 15 34 0 155 65 200 107 23 21 67 77 99 125 66 104 84 177 64 262 -13 56
-61 154 -102 210 -63 87 -147 239 -147 267 0 10 -4 19 -8 19 -13 0 -52 88 -52
119 0 25 25 91 115 301 13 30 42 102 66 160 23 58 54 134 69 170 62 146 209
553 235 645 9 33 20 74 25 90 10 35 61 284 84 405 21 115 30 354 18 470 -6 53
-20 124 -31 158 -23 67 -113 258 -157 332 -26 44 -124 190 -134 200 -3 3 -27
32 -55 65 -27 33 -59 70 -70 83 -26 31 -36 58 -22 61 7 1 70 4 141 7 114 6
131 4 155 -12 14 -11 78 -44 141 -74 63 -30 117 -58 120 -62 3 -4 17 -12 30
-18 14 -6 40 -22 59 -35 19 -14 41 -25 49 -25 24 0 6 100 -48 260 -27 80 -54
177 -60 215 -6 39 -18 90 -26 113 -15 46 -83 181 -111 220 -9 13 -11 22 -5 22
10 0 93 -43 117 -60 26 -19 154 -50 204 -50 67 0 96 14 68 33 -156 104 -335
263 -447 398 -29 35 -56 66 -60 69 -26 18 -200 312 -200 338 0 4 32 7 72 6
122 -1 222 32 348 114 75 50 162 121 180 147 57 85 76 116 110 189 39 85 86
208 100 261 4 17 19 68 33 115 14 47 27 99 30 115 2 17 9 44 15 60 18 53 106
514 100 521 -10 9 -373 19 -648 17 -239 -2 -335 -6 -400 -18 -47 -9 -100 -19
-117 -22 -18 -3 -33 -9 -33 -14 0 -5 -8 -9 -17 -9 -27 0 -113 -43 -172 -85
-28 -21 -53 -36 -55 -34 -10 14 -37 138 -46 208 -14 113 -13 185 5 316 14 112
20 139 57 258 12 37 19 69 16 72 -9 9 -97 -130 -134 -212 -50 -108 -52 -114
-59 -150 -4 -18 -10 -33 -13 -33 -4 0 -13 15 -21 33 -41 96 -158 310 -180 327
-3 3 -23 31 -44 63 -20 31 -41 57 -45 57 -4 0 -15 12 -24 28 -9 15 -29 41 -45
59 -15 17 -35 42 -44 55 -10 12 -20 20 -25 15 -4 -4 2 -17 13 -30 50 -56 132
-209 180 -337 45 -116 80 -270 62 -270 -4 0 -21 21 -39 48 -76 116 -156 218
-239 305 -104 109 -285 233 -376 257 -27 7 -54 17 -59 21 -6 5 -16 9 -22 9 -7
0 25 -37 70 -82 78 -78 176 -211 176 -238 0 -6 -36 20 -80 59 -110 97 -161
128 -332 204 l-38 17 0 126 c0 117 19 266 41 319 5 11 18 49 29 84 30 90 75
177 124 236 43 53 96 105 108 105 4 0 13 7 22 15 34 34 146 75 226 81 69 6 86
4 137 -16 82 -33 151 -79 206 -138 26 -28 47 -48 48 -44 0 4 0 40 -1 81 -3
154 -100 321 -260 446 -14 11 -32 35 -39 53 -16 37 -113 130 -174 166 -95 56
-217 80 -364 74 -116 -5 -224 -35 -311 -85 -24 -14 -46 -22 -49 -19 -4 3 19
31 50 62 66 66 74 95 25 93 -18 -1 -44 -4 -58 -6z m-17 -86 c-75 -77 -137
-157 -162 -211 -23 -46 -21 -81 2 -41 42 76 215 190 387 254 140 53 404 -8
545 -124 35 -29 25 -31 -63 -10 -66 16 -222 19 -222 5 0 -5 17 -12 38 -15 135
-22 219 -53 309 -112 96 -64 152 -107 153 -118 0 -5 18 -29 40 -52 52 -57 129
-213 105 -213 -8 0 -44 22 -89 53 -21 15 -46 27 -56 27 -9 0 -20 4 -25 9 -25
24 -134 45 -230 46 -103 0 -153 -12 -257 -59 -49 -21 -66 -43 -25 -32 46 13
167 19 167 9 0 -13 -64 -63 -79 -63 -6 0 -11 -4 -11 -8 0 -5 -18 -18 -40 -31
-22 -12 -45 -28 -52 -34 -7 -7 -29 -24 -48 -37 -19 -13 -40 -29 -46 -35 -6 -5
-33 -31 -60 -56 -51 -47 -131 -165 -120 -177 4 -3 46 35 93 86 47 51 90 92 95
92 5 0 0 -17 -11 -37 -72 -135 -141 -418 -141 -580 l0 -62 -32 10 c-85 25
-239 50 -336 56 -106 6 -222 -2 -222 -15 0 -14 78 -57 160 -88 l85 -33 -105 0
c-58 0 -125 4 -150 7 l-45 7 -59 115 c-150 294 -187 550 -102 707 15 28 15 27
9 -22 -8 -56 -8 -72 0 -130 21 -157 39 -178 30 -36 -5 88 -2 129 22 276 21
135 128 359 215 454 22 24 40 47 40 52 0 4 17 21 38 36 20 15 40 33 44 40 21
31 244 160 257 147 3 -2 -18 -28 -46 -57z m-2032 -1333 c8 -8 19 -14 24 -14 4
0 34 -18 67 -40 33 -22 62 -40 64 -40 2 0 39 -23 81 -52 108 -71 245 -181 328
-265 88 -86 205 -232 205 -253 0 -17 -111 -130 -127 -130 -4 1 -48 39 -97 85
-98 92 -241 175 -300 174 -29 0 -28 -1 18 -20 27 -11 62 -29 77 -39 15 -11 31
-20 36 -20 5 0 29 -18 53 -40 24 -22 46 -40 50 -40 14 0 120 -124 120 -139 0
-14 -26 -47 -91 -118 l-20 -22 -77 35 c-42 19 -86 39 -97 44 -69 33 -129 43
-230 41 -58 -2 -45 -15 25 -26 154 -23 393 -112 363 -134 -15 -11 -73 -99 -73
-111 0 -8 -12 -10 -40 -5 -22 4 -64 3 -93 -1 l-52 -8 73 -6 c40 -4 77 -11 83
-17 6 -6 1 -26 -17 -61 -41 -78 -20 -81 50 -5 l63 67 44 -13 c24 -7 50 -15 57
-17 10 -3 10 -8 0 -25 -20 -33 -110 -119 -124 -119 -4 0 -21 -11 -38 -23 -45
-35 -82 -38 -150 -15 -96 33 -170 83 -252 167 -50 51 -116 146 -143 206 -7 17
-19 44 -27 60 -47 104 -58 357 -24 523 11 53 25 105 30 114 6 10 10 26 10 35
0 17 22 87 39 128 5 11 17 49 27 85 9 36 19 69 22 73 5 10 42 -1 63 -19z m404
-89 c44 -13 89 -26 100 -29 85 -21 249 -98 335 -156 66 -45 195 -176 204 -206
5 -18 0 -24 -31 -38 -21 -9 -45 -21 -53 -26 -8 -5 -32 -18 -53 -30 -21 -11
-48 -29 -59 -40 -12 -11 -27 -20 -33 -20 -6 0 -34 35 -61 77 -27 42 -62 91
-79 109 -78 83 -157 162 -192 191 -55 47 -152 123 -156 123 -2 0 -40 22 -84
48 -44 27 -94 54 -112 61 -17 8 -31 17 -31 21 0 4 51 -8 113 -26 61 -19 148
-45 192 -59z m675 -112 c169 -53 272 -72 535 -97 88 -9 196 -21 241 -26 44 -6
97 -10 118 -10 47 0 171 -42 255 -86 72 -38 71 -38 71 -24 0 6 -5 10 -11 10
-9 0 -134 84 -149 100 -16 17 -225 120 -244 120 -8 0 -17 4 -20 9 -17 27 236
-12 348 -54 88 -32 251 -112 292 -142 17 -13 33 -23 36 -23 5 0 103 -66 222
-150 27 -19 71 -54 98 -77 54 -48 69 -54 44 -20 -9 12 -35 54 -58 92 -24 39
-55 88 -71 110 -15 22 -43 63 -62 90 -19 28 -43 61 -52 75 l-18 25 25 -18 c14
-9 42 -29 63 -43 54 -35 263 -247 316 -319 25 -33 48 -62 52 -65 7 -5 71 -100
156 -233 63 -97 73 -108 73 -82 0 10 -18 49 -40 86 -34 58 -40 76 -40 126 0
58 -23 158 -54 243 -29 78 -35 101 -25 94 12 -7 96 -182 135 -279 15 -38 40
-97 55 -130 l28 -60 14 35 c8 19 18 58 22 85 4 28 11 55 16 61 5 7 9 16 8 20
-4 22 2 37 10 29 6 -6 4 -38 -5 -80 -7 -38 -13 -97 -14 -131 0 -91 32 -278 61
-353 8 -19 4 -33 -21 -71 -16 -25 -30 -52 -30 -58 0 -15 17 -16 25 -2 3 6 14
10 24 10 9 0 30 14 47 31 95 101 253 178 419 204 100 16 726 21 690 5 -27 -11
-113 -39 -152 -49 -34 -9 -73 -27 -223 -99 -274 -133 -476 -348 -532 -568 -13
-50 -9 -169 7 -224 4 -14 10 -43 14 -65 4 -22 13 -56 19 -75 7 -19 26 -78 43
-130 34 -105 186 -420 225 -465 13 -15 24 -32 24 -36 0 -4 10 -18 23 -31 12
-13 28 -34 35 -48 16 -31 229 -251 291 -300 67 -53 145 -107 192 -130 50 -26
36 -44 -20 -25 -20 7 -63 21 -96 31 -117 35 -282 129 -339 193 -32 36 -39 23
-9 -16 15 -21 30 -40 33 -43 3 -3 17 -21 30 -40 13 -19 27 -37 30 -40 4 -3 15
-21 26 -40 10 -19 26 -42 34 -52 27 -31 121 -235 134 -290 9 -38 -10 -36 -29
3 -16 31 -85 122 -127 170 -13 14 -42 38 -65 52 -48 30 -79 36 -48 9 11 -9 47
-51 80 -92 33 -41 70 -86 82 -99 11 -13 27 -35 35 -50 7 -14 15 -28 18 -31 10
-9 60 -90 60 -95 0 -4 9 -25 19 -48 38 -83 49 -115 56 -156 4 -22 3 -41 -2
-40 -4 0 -27 13 -50 27 -226 145 -319 193 -413 211 -36 7 -94 19 -130 26 -129
27 -304 37 -408 25 -105 -13 -231 -42 -260 -60 -15 -10 -15 -11 3 -5 31 10
371 7 455 -4 80 -11 211 -38 219 -46 8 -9 -64 -4 -123 8 -47 10 -79 10 -160
-1 -162 -20 -329 -48 -501 -83 -66 -14 -240 -46 -343 -64 -45 -8 -86 -16 -90
-19 -15 -9 -198 -37 -330 -51 -76 -7 -192 -11 -270 -9 -74 2 -134 3 -131 0 6
-6 218 -46 248 -46 51 -1 -274 -147 -349 -157 -33 -5 -40 -2 -61 28 -34 50
-77 86 -138 116 -47 23 -65 26 -160 27 -117 1 -170 -13 -250 -66 l-44 -29
-108 108 c-105 104 -172 188 -197 246 -27 61 -16 61 88 -3 45 -27 83 -50 85
-50 3 0 33 -13 67 -28 128 -58 245 -73 138 -18 -30 16 -74 42 -97 57 -23 16
-44 29 -46 29 -12 0 -204 124 -217 140 -3 3 -21 17 -40 30 -96 67 -380 307
-380 321 0 5 -5 9 -11 9 -6 0 -50 38 -97 86 -46 47 -119 113 -161 147 -42 34
-83 69 -92 79 -9 10 -19 18 -23 18 -4 0 -12 5 -19 10 -254 212 -514 367 -742
441 -55 18 -104 37 -110 42 -10 9 322 0 358 -9 9 -3 17 -1 17 5 0 6 -8 11 -17
11 -10 0 -31 7 -46 15 -42 22 -272 20 -349 -3 -98 -30 -148 -47 -191 -68 -66
-31 -69 -15 -17 87 90 177 215 313 424 460 62 44 59 41 144 93 40 24 69 47 64
50 -10 6 -107 -26 -162 -54 -96 -48 -134 -70 -154 -87 -11 -10 -33 -26 -47
-35 -14 -9 -34 -24 -43 -33 -13 -13 -16 -14 -16 -2 0 24 175 176 276 239 97
62 174 101 289 148 l50 21 -45 -6 c-169 -21 -322 -13 -367 20 -13 10 4 13 93
19 124 7 199 17 299 41 39 9 81 19 95 22 14 3 39 11 57 19 17 8 35 14 41 14
13 0 90 33 178 76 39 18 74 34 78 34 12 0 100 63 162 115 148 125 258 252 337
391 41 71 44 74 132 118 119 59 179 86 193 86 6 0 13 4 17 9 17 28 -242 -47
-348 -100 -96 -49 -189 -105 -224 -138 -46 -42 -41 -13 5 31 43 42 247 196
277 209 11 5 36 19 55 30 19 12 74 41 123 66 48 24 87 46 87 48 0 8 -109 -36
-185 -75 -84 -43 -204 -121 -249 -162 -16 -15 -32 -25 -35 -23 -6 7 112 125
126 125 6 0 13 4 15 8 7 16 127 101 223 158 214 125 469 213 673 231 74 7 76
7 37 16 -22 5 -92 6 -155 3 -84 -5 -133 -2 -180 8 -74 17 -149 40 -176 54 -11
5 -37 18 -59 28 -22 11 -42 22 -45 25 -3 3 -17 12 -31 20 -46 24 -129 83 -129
92 0 4 17 -1 38 -11 20 -11 66 -28 102 -39z m-1303 -718 c59 -149 92 -210 155
-280 16 -16 28 -32 28 -36 0 -3 31 -29 69 -58 67 -51 208 -121 244 -121 41 0
10 -25 -96 -75 -149 -71 -157 -72 -195 -40 -65 54 -138 177 -180 300 -22 66
-52 263 -51 335 0 25 3 38 5 30 3 -8 12 -33 21 -55z m973 -71 c0 -9 -52 -76
-92 -117 -21 -22 -38 -44 -38 -49 0 -6 -11 -8 -27 -4 -16 4 -44 10 -63 14
l-35 8 45 28 c24 16 51 35 58 43 8 7 18 11 23 8 5 -4 32 12 61 34 51 39 68 48
68 35z m4240 -193 c0 -43 -107 -421 -124 -438 -3 -4 -6 -15 -6 -26 0 -10 -27
-73 -60 -139 -86 -171 -191 -294 -337 -393 -32 -22 -64 -46 -72 -53 -53 -50
-230 -102 -351 -102 -101 0 -161 9 -165 24 -2 6 -20 64 -41 128 -21 65 -35
121 -31 124 15 15 184 14 242 -1 33 -8 66 -15 75 -15 35 1 -22 27 -95 45 -73
17 -141 16 -212 -1 -21 -6 -23 -3 -23 30 0 26 4 36 15 36 9 0 44 13 80 29 105
48 268 84 345 77 36 -3 76 -9 89 -12 17 -5 22 -4 17 4 -12 20 -107 42 -177 42
-67 0 -155 -13 -194 -29 -52 -22 -102 -40 -122 -46 -13 -4 -23 -11 -23 -16 0
-5 -7 -9 -15 -9 -22 0 -18 26 8 52 31 31 171 138 181 138 4 0 22 10 39 23 27
19 126 67 202 98 78 32 225 66 325 76 l75 8 -73 14 c-76 15 -167 8 -262 -21
-62 -18 -292 -135 -387 -197 -61 -40 -93 -55 -93 -46 0 8 3 15 8 15 4 0 16 14
27 30 11 16 26 30 33 30 6 0 12 5 12 11 0 14 43 56 141 139 114 97 211 161
344 228 135 68 185 88 266 106 31 7 62 16 69 21 15 9 251 43 263 38 4 -2 7
-12 7 -22z m-260 -840 c0 -29 -60 -156 -112 -236 -42 -65 -186 -215 -207 -215
-5 0 -16 -6 -23 -14 -40 -40 -199 -94 -302 -103 l-73 -6 -58 114 c-32 63 -63
117 -69 121 -23 15 3 16 84 1 178 -31 370 28 565 176 63 48 175 158 175 173 0
4 5 8 10 8 6 0 10 -9 10 -19z m-4110 -1598 c14 -9 50 -39 81 -65 30 -26 59
-48 63 -48 22 0 80 -75 116 -149 83 -170 211 -330 301 -377 17 -8 29 -18 26
-20 -3 -3 -49 -7 -104 -8 -54 -1 -107 -7 -118 -13 -11 -6 -39 -13 -63 -17 -38
-6 -43 -4 -54 19 -6 14 -15 25 -19 25 -13 0 -130 178 -165 250 -56 116 -104
296 -104 388 0 37 6 39 40 15z m-49 -306 c4 -15 33 -79 65 -141 l58 -114 -45
-69 c-55 -84 -94 -165 -109 -226 -8 -28 -21 -52 -35 -61 -12 -8 -28 -21 -36
-28 -8 -7 -37 -31 -64 -52 -119 -93 -224 -220 -289 -350 -28 -57 -30 -68 -29
-166 1 -118 22 -218 78 -365 46 -120 122 -268 173 -336 15 -19 50 -67 79 -105
56 -76 196 -214 217 -214 9 0 17 31 26 100 7 55 16 100 19 100 3 0 17 -21 31
-47 30 -57 133 -163 220 -227 34 -25 87 -74 118 -109 116 -131 205 -206 394
-330 47 -32 88 -64 91 -71 3 -8 2 -56 -4 -108 -16 -172 -22 -575 -10 -733 20
-249 25 -510 12 -543 -13 -31 -58 -62 -90 -62 -12 0 -50 -6 -84 -14 -135 -31
-249 -46 -398 -52 l-157 -7 -12 59 c-6 32 -17 75 -23 94 -7 20 -12 92 -12 165
0 178 12 200 168 300 21 14 42 25 47 25 6 0 10 4 10 10 0 11 -27 2 -102 -36
-29 -15 -80 -54 -114 -88 -54 -55 -62 -67 -72 -122 -15 -72 -5 -160 33 -294
14 -49 25 -94 25 -100 0 -13 -10 -12 -195 31 -71 17 -139 32 -151 35 -25 4
-29 34 -40 264 -6 136 -5 148 15 191 29 61 74 101 169 149 43 23 64 37 47 34
-57 -12 -106 -32 -159 -64 -63 -39 -121 -125 -132 -198 -10 -70 2 -201 25
-260 12 -29 21 -57 21 -62 0 -14 -26 -12 -42 3 -7 6 -29 21 -48 31 -45 25 -68
51 -92 104 -25 56 -27 206 -2 253 35 68 169 178 254 208 189 68 387 67 725 -4
61 -13 111 -22 113 -20 3 2 -48 28 -130 64 -24 10 -72 26 -108 36 -36 9 -74
21 -85 25 -11 5 -42 11 -70 14 -117 12 -165 19 -165 26 0 14 64 20 223 20 163
0 185 7 89 28 -115 25 -274 6 -371 -44 -29 -15 -41 -10 -41 15 0 11 -12 63
-26 117 -15 55 -30 115 -34 134 -4 19 -10 42 -13 50 -4 8 -9 26 -11 40 -6 28
-40 147 -49 170 -3 8 -8 26 -10 40 -5 26 -37 142 -62 225 -42 141 -61 203
-102 345 -49 171 -53 184 -81 285 -11 39 -27 97 -37 130 -36 129 -96 362 -105
405 -4 25 -14 59 -21 75 -8 21 -12 90 -12 220 0 164 3 202 22 275 12 47 26 94
30 105 5 11 14 40 21 65 13 48 97 227 153 325 76 134 115 200 192 323 89 142
89 142 99 139 6 -2 13 -15 17 -30z m3288 -104 c181 -209 328 -502 402 -803 27
-110 6 -528 -32 -627 -5 -13 -7 -28 -4 -32 2 -5 -2 -35 -9 -67 -8 -32 -22 -93
-31 -134 -9 -41 -24 -100 -32 -130 -31 -109 -74 -245 -82 -265 -5 -11 -24 -64
-42 -118 -17 -54 -36 -100 -41 -103 -4 -3 -8 -15 -8 -28 0 -12 -4 -26 -8 -32
-5 -5 -25 -56 -46 -114 -21 -58 -49 -133 -62 -167 -13 -34 -24 -66 -24 -72 0
-6 -4 -19 -9 -29 -6 -9 -27 -72 -49 -140 -40 -129 -51 -139 -67 -62 -4 19 -13
46 -21 60 -12 22 -13 23 -13 5 0 -11 6 -65 14 -120 15 -113 53 -239 119 -395
4 -8 22 -42 41 -75 19 -33 57 -105 86 -160 l51 -100 -5 -82 c-6 -76 -9 -88
-46 -142 -22 -32 -64 -80 -93 -106 -55 -48 -153 -104 -164 -92 -3 3 14 29 38
57 25 29 51 70 58 93 7 23 19 61 26 85 25 77 18 154 -20 235 -30 63 -111 165
-123 153 -2 -2 11 -26 30 -53 103 -145 98 -317 -14 -484 -47 -70 -89 -106
-135 -115 -40 -7 -124 2 -137 15 -10 10 11 54 58 120 57 79 78 137 78 221 1
82 -14 122 -64 174 -23 24 -29 26 -29 12 0 -9 5 -27 12 -39 6 -12 17 -59 25
-104 11 -74 11 -87 -4 -125 -9 -24 -23 -51 -31 -60 -14 -17 -18 -10 -47 75
-53 155 -103 232 -178 280 -80 51 -131 65 -274 79 -148 14 -150 15 -119 89 7
19 11 40 9 47 -3 7 2 23 11 36 8 13 35 82 59 152 24 71 53 147 64 169 11 22
24 56 28 75 4 19 14 48 21 65 7 16 24 59 38 95 41 106 109 256 258 570 28 58
68 146 90 195 22 50 46 104 53 120 54 120 95 333 95 493 0 136 -46 392 -107
597 -28 94 -105 296 -111 290 -3 -2 7 -48 21 -102 14 -54 33 -134 42 -178 9
-44 22 -109 30 -145 68 -334 64 -569 -15 -815 -42 -128 -231 -581 -290 -694
-15 -28 -108 -232 -152 -331 -108 -245 -183 -455 -218 -612 -12 -54 -25 -99
-28 -102 -4 -2 -41 5 -82 15 -97 24 -198 24 -280 0 -79 -23 -136 -47 -145 -61
-8 -13 1 -13 45 1 87 26 350 33 350 10 0 -5 -46 -23 -102 -42 -70 -23 -113
-43 -133 -63 -23 -22 -25 -27 -10 -22 11 4 85 23 165 43 137 34 154 36 325 37
152 0 190 -2 243 -19 34 -11 62 -23 62 -27 0 -4 8 -15 18 -25 29 -29 87 -114
117 -171 43 -83 66 -184 54 -245 -16 -87 -20 -92 -140 -151 -97 -48 -149 -66
-149 -52 0 2 7 20 15 41 12 27 16 74 17 176 0 126 -2 145 -27 211 -14 40 -40
88 -56 106 -51 57 -143 88 -227 76 -37 -6 -42 -9 -30 -20 8 -8 47 -21 88 -29
126 -26 144 -37 181 -119 32 -68 33 -76 34 -196 0 -109 -3 -134 -25 -192 -23
-64 -27 -68 -65 -77 -22 -6 -83 -22 -135 -36 -106 -28 -148 -31 -173 -13 -15
12 -16 17 -1 73 24 86 25 309 2 350 -36 66 -104 117 -173 129 -49 9 -41 0 28
-34 43 -20 56 -34 75 -73 53 -110 40 -448 -16 -447 -57 1 -229 32 -293 53
-153 50 -349 168 -370 223 -17 46 -40 159 -54 264 -10 78 -12 201 -10 475 3
204 1 431 -4 505 l-8 134 84 96 c47 52 95 104 108 116 12 11 24 26 26 32 2 6
24 32 49 59 25 26 52 57 60 69 14 19 66 83 113 137 9 11 17 23 17 26 0 3 10
17 23 31 12 14 45 60 72 103 26 42 52 77 57 77 4 0 8 7 8 15 0 9 11 33 25 55
14 22 37 65 51 95 15 30 30 55 35 55 11 0 38 -91 46 -152 3 -27 10 -48 15 -48
16 0 67 125 79 196 11 66 43 168 59 189 5 6 18 39 30 75 18 54 21 79 17 145
-3 44 -9 93 -13 108 -6 28 -6 28 37 26 24 -2 59 -9 78 -16 53 -22 57 -29 -65
129 -23 29 -65 79 -94 111 -54 59 -49 75 11 34 75 -50 196 -75 239 -47 18 11
22 8 -72 59 -42 23 -78 45 -80 49 -2 4 -23 21 -48 37 -41 28 -140 121 -185
176 -77 93 -118 139 -122 135 -6 -5 35 -83 71 -136 30 -43 149 -168 191 -200
11 -9 44 -31 73 -50 59 -38 57 -60 -4 -31 -92 44 -174 81 -179 81 -6 0 -162
115 -233 172 -29 24 -64 49 -77 58 -14 8 -25 18 -25 22 0 4 19 20 43 35 23 15
52 36 65 47 13 11 33 21 45 21 22 2 96 70 146 134 14 19 38 49 54 65 15 17 27
34 27 39 0 10 61 90 73 95 4 2 7 9 7 16 0 30 46 54 125 66 44 6 112 17 150 25
77 14 219 36 390 59 61 9 153 22 205 29 160 24 162 24 209 -30z m-1114 -133
c8 -12 -73 -108 -185 -221 -70 -70 -174 -149 -197 -149 -6 0 -16 -7 -23 -15
-23 -27 -68 -16 -207 53 -76 37 -158 74 -183 82 -76 23 -91 44 -37 53 84 13
219 70 338 142 56 35 57 35 180 36 68 0 160 6 204 13 107 18 103 17 110 6z
m-1942 -132 c15 -20 27 -40 27 -45 0 -11 -94 -63 -115 -63 -8 0 -15 -4 -15 -8
0 -5 -17 -17 -37 -28 -21 -10 -42 -25 -46 -31 -4 -7 -12 -13 -17 -13 -38 0 43
197 104 252 18 17 20 16 46 -5 15 -12 39 -38 53 -59z m854 62 c45 -16 77 -36
124 -80 64 -59 64 -78 1 -46 -15 7 -51 19 -79 26 -58 13 -58 13 -42 41 10 19
9 20 -13 8 -29 -16 -43 -33 -70 -89 -17 -36 -21 -61 -20 -125 1 -44 4 -89 6
-100 17 -74 39 -142 56 -177 11 -23 20 -46 20 -51 0 -13 -46 -1 -107 29 -54
26 -82 62 -173 222 -59 104 -69 72 -16 -50 19 -43 32 -78 29 -78 -17 0 -65 35
-85 62 -42 59 -49 81 -55 173 -8 121 7 154 85 192 69 34 171 61 233 62 25 1
72 -8 106 -19z m-471 -139 c-7 -20 -11 -41 -9 -47 2 -7 -26 -16 -74 -23 -169
-27 -331 -140 -444 -310 -27 -40 -49 -76 -49 -80 0 -3 35 27 78 67 155 148
294 247 397 282 84 29 91 27 93 -20 2 -22 9 -58 17 -80 l14 -41 -39 -40 c-48
-49 -193 -247 -213 -290 -4 -8 -13 -23 -19 -34 -137 -214 -254 -517 -288 -745
-4 -30 -13 -75 -19 -100 -6 -25 -11 -79 -11 -120 -1 -41 -4 -92 -8 -114 l-7
-38 -36 53 c-235 351 -323 503 -388 674 -32 86 -71 253 -71 309 0 36 15 60
127 204 195 250 531 459 842 523 52 11 97 22 100 24 13 14 18 -22 7 -54z m514
1 c25 -8 64 -23 87 -33 24 -10 48 -19 54 -19 40 0 407 -212 502 -289 6 -6 64
-52 127 -103 63 -51 155 -132 205 -179 49 -47 114 -107 142 -133 29 -27 50
-52 48 -57 -3 -4 -31 -11 -63 -14 -31 -4 -86 -16 -122 -28 -55 -17 -76 -31
-143 -96 -43 -42 -105 -109 -137 -151 -33 -41 -86 -109 -119 -150 -126 -160
-380 -375 -346 -292 4 9 12 31 18 47 6 17 16 44 24 62 7 17 13 53 13 80 0 88
-48 320 -79 388 -5 11 -15 38 -21 60 -13 43 -41 107 -126 283 -30 62 -54 117
-54 122 0 4 -11 22 -25 38 -41 49 -73 131 -88 224 l-13 87 25 -5 c54 -12 96
-42 128 -90 19 -27 48 -67 66 -88 50 -60 132 -186 169 -257 25 -49 33 -59 36
-42 7 48 -97 224 -186 315 -31 32 -54 60 -51 62 3 3 27 -10 55 -29 27 -20 72
-51 99 -70 52 -35 190 -165 264 -248 24 -27 44 -47 46 -45 2 2 -8 28 -23 57
-57 112 -177 231 -332 328 -36 23 -72 47 -80 55 -9 7 -36 23 -60 35 -25 12
-67 35 -95 51 -49 28 -50 30 -49 75 0 51 19 82 43 71 9 -4 36 -13 61 -22z
m-449 -309 c8 -9 52 -34 99 -56 46 -22 90 -46 97 -53 22 -21 126 -56 175 -57
46 -2 47 -3 64 -47 50 -136 77 -207 84 -220 4 -9 11 -30 14 -48 4 -17 12 -34
17 -37 5 -4 9 -17 9 -31 0 -14 6 -35 12 -47 17 -29 49 -150 67 -252 15 -86 24
-346 12 -395 -5 -24 -8 -47 -5 -49 9 -9 116 52 199 113 89 66 439 406 461 448
38 73 176 181 206 162 7 -5 9 -53 5 -138 -8 -188 -29 -243 -53 -138 -14 60
-45 133 -55 127 -4 -3 -2 -24 3 -47 13 -56 5 -375 -9 -389 -8 -8 -22 12 -48
67 l-38 78 17 45 c17 48 22 122 8 106 -5 -6 -15 -26 -21 -45 -57 -155 -149
-340 -224 -445 -15 -22 -40 -58 -55 -80 -14 -22 -38 -54 -52 -71 -14 -18 -33
-42 -43 -55 -23 -31 -61 -78 -139 -168 -34 -41 -87 -104 -116 -140 -30 -36
-76 -89 -103 -118 -48 -51 -59 -76 -39 -88 12 -7 14 -55 3 -55 -12 0 -158 75
-190 97 -16 11 -45 27 -65 36 -20 10 -40 22 -44 28 -3 6 -30 26 -59 44 -29 19
-59 40 -66 47 -8 8 -27 24 -44 36 -44 34 -190 178 -222 220 -15 20 -43 52 -60
73 -18 20 -33 41 -33 46 0 5 -8 18 -18 29 -15 16 -33 46 -89 149 -18 33 -32
67 -53 125 l-19 55 -1 -44 c0 -44 20 -128 46 -189 32 -75 6 -70 -77 16 -66 68
-127 171 -114 192 4 6 10 35 15 63 9 62 47 218 65 267 7 19 21 62 31 95 10 33
23 67 29 75 7 8 17 35 24 58 23 82 150 329 223 435 10 15 29 43 43 63 34 50
97 124 105 124 4 0 14 -8 21 -17z m-881 -2067 c0 -15 27 -108 40 -141 43 -102
126 -389 135 -463 8 -67 0 -78 -60 -82 -45 -3 -52 -1 -69 16 -23 22 -20 61 11
124 44 91 45 97 9 58 -44 -46 -70 -129 -61 -191 6 -40 5 -44 -20 -55 -14 -7
-32 -12 -40 -12 -8 0 -15 -3 -15 -7 0 -5 -25 -24 -55 -43 -33 -21 -61 -48 -70
-67 -9 -18 -20 -33 -25 -33 -14 0 -80 83 -122 152 -35 56 -38 68 -38 135 0 62
5 84 30 134 33 67 122 197 168 244 16 17 40 49 54 71 14 21 33 45 42 53 9 7
16 20 16 27 0 8 4 14 8 14 5 0 17 18 28 40 19 40 34 52 34 26z"/>
<path d="M16135 9420 c-8 -13 15 -13 35 0 12 8 11 10 -7 10 -12 0 -25 -4 -28
-10z"/>
<path d="M16242 9339 c-37 -15 -74 -42 -125 -92 -74 -74 -135 -153 -124 -163
3 -4 27 12 54 34 59 49 153 112 213 144 38 20 58 23 138 22 50 -1 92 1 92 4 0
9 -34 32 -77 52 -53 25 -103 25 -171 -1z"/>
<path d="M17905 9042 c-39 -8 -103 -42 -109 -57 -5 -13 1 -16 32 -14 83 5 108
-1 159 -39 59 -44 110 -106 173 -211 24 -41 46 -69 48 -62 5 16 -44 164 -71
209 -69 120 -160 189 -232 174z"/>
<path d="M16017 8771 c-15 -5 -42 -22 -60 -37 l-32 -27 46 5 47 5 -28 -62
c-33 -73 -52 -158 -50 -218 2 -58 2 -61 -12 -50 -7 5 -44 10 -83 10 -38 1 -61
0 -50 -3 86 -20 146 -42 178 -67 34 -27 37 -27 37 -8 0 11 -4 22 -10 26 -5 3
-8 62 -7 138 2 124 4 136 32 190 24 49 32 57 49 53 12 -3 38 -9 59 -12 33 -6
37 -9 30 -28 -13 -34 -4 -128 15 -161 23 -39 56 -55 114 -55 54 0 90 12 120
39 39 37 76 -5 98 -112 17 -84 9 -108 -46 -131 -25 -10 -64 -38 -86 -62 -22
-24 -49 -46 -58 -49 -29 -9 -155 22 -198 49 -22 14 -54 40 -71 58 -45 48 -42
10 3 -40 35 -39 167 -112 202 -112 11 0 30 -7 42 -16 20 -14 22 -14 22 1 0 9
10 26 23 36 41 36 168 119 182 119 8 0 16 4 19 9 4 5 24 12 46 16 59 10 62 28
5 23 l-47 -3 -2 70 c-7 182 -108 332 -266 393 -43 16 -225 25 -263 13z"/>
<path d="M17660 8538 c-30 -6 -57 -13 -60 -17 -3 -3 -25 -16 -50 -29 -127 -64
-219 -217 -234 -384 -4 -50 -1 -62 24 -102 42 -66 76 -80 175 -72 44 3 103 12
130 20 134 37 215 49 291 43 42 -3 81 -10 87 -16 13 -13 27 -14 27 -2 0 13
-57 31 -96 31 -37 0 -41 8 -20 48 18 35 46 161 46 206 0 19 -7 56 -16 82 -17
50 -12 69 10 38 23 -31 53 -64 60 -64 14 0 4 44 -16 73 -48 67 -127 117 -225
143 -60 16 -56 16 -133 2z m222 -97 c68 -54 61 -256 -12 -376 -18 -29 -25 -32
-112 -44 -51 -7 -118 -18 -148 -23 -153 -30 -220 -16 -253 54 -14 32 -15 46
-7 84 15 66 58 150 102 198 l38 41 23 -30 c57 -76 62 -78 143 -72 60 4 78 10
98 30 40 40 58 83 50 122 -6 34 -5 35 24 35 16 0 40 -9 54 -19z"/>
<path d="M15090 8311 c-28 -6 -31 -9 -17 -15 9 -5 29 -5 44 -1 67 16 328 -26
559 -91 28 -8 58 -14 67 -14 10 0 17 -4 17 -10 0 -5 17 -12 38 -16 52 -10 412
-166 412 -179 0 -1 -7 -19 -16 -40 -16 -39 -3 -41 25 -2 10 15 21 18 44 13 25
-5 29 -4 19 6 -23 23 -11 37 71 76 127 62 230 92 350 105 138 13 120 31 -33
31 -101 1 -195 -18 -225 -45 -5 -5 -15 -9 -21 -9 -17 0 -98 -54 -146 -97 -42
-37 -52 -36 -129 13 -45 28 -305 158 -336 167 -10 3 -43 15 -73 27 -30 12
-107 35 -170 52 -102 27 -134 31 -280 33 -91 2 -181 0 -200 -4z"/>
<path d="M17180 8114 c0 -3 8 -18 18 -32 19 -29 36 -76 47 -129 10 -52 25 -49
25 5 0 54 -19 100 -56 138 -25 24 -34 29 -34 18z"/>
<path d="M16980 8086 c0 -1 30 -35 68 -74 57 -59 136 -176 157 -232 3 -10 -6
-22 -30 -34 -47 -26 -44 -38 6 -30 36 6 44 4 60 -17 20 -27 36 -20 20 9 -16
30 -3 51 38 61 72 19 137 33 171 37 19 2 67 9 105 14 39 5 150 15 247 21 224
15 539 -1 733 -37 28 -5 29 -5 10 8 -21 15 -186 49 -335 68 -129 18 -445 15
-575 -3 -111 -17 -236 -43 -333 -70 l-53 -14 -21 41 c-29 58 -70 115 -113 159
-44 45 -155 112 -155 93z"/>
<path d="M16495 8059 c-22 -5 -52 -22 -67 -36 -25 -23 -28 -34 -28 -86 0 -84
36 -154 113 -220 96 -82 119 -106 112 -117 -3 -6 -12 -41 -19 -78 l-12 -67
-109 -3 c-127 -3 -151 4 -203 63 -48 55 -122 195 -122 232 0 49 -8 52 -93 43
-44 -5 -107 -9 -140 -9 -34 0 -105 -9 -157 -21 -52 -11 -108 -23 -125 -26 -16
-3 -48 -12 -70 -19 -22 -7 -58 -18 -80 -24 -62 -19 -115 -40 -230 -91 -128
-58 -195 -92 -201 -102 -5 -8 -1 -9 12 -3 10 4 39 16 64 25 25 9 52 20 60 23
22 9 271 91 365 120 44 13 114 32 155 42 41 10 95 24 120 32 43 14 240 31 240
21 0 -3 -15 -22 -34 -43 -37 -40 -60 -104 -54 -151 3 -26 7 -23 37 41 l32 70
35 -40 c18 -22 34 -47 34 -56 0 -8 4 -19 9 -25 5 -5 37 -85 71 -179 35 -93 74
-187 87 -207 13 -21 23 -40 23 -43 0 -22 58 -60 139 -92 91 -36 102 -38 211
-38 90 0 122 4 149 18 19 9 38 17 43 17 16 0 88 83 110 125 26 51 105 181 135
220 60 81 182 92 229 20 13 -19 19 -23 25 -13 6 10 23 7 81 -12 40 -14 75 -27
78 -30 3 -3 27 -13 54 -23 41 -14 255 -125 315 -162 143 -90 255 -172 373
-272 79 -66 88 -73 88 -64 0 9 -155 155 -250 236 -177 149 -509 321 -700 360
-39 8 -70 31 -70 52 0 8 -24 38 -53 66 l-53 53 -45 -33 c-44 -32 -72 -37 -154
-30 -24 2 -30 -2 -30 -18 0 -17 6 -19 38 -17 46 4 48 -10 5 -50 -56 -53 -131
-98 -162 -98 -38 0 -164 61 -205 99 -26 24 -31 37 -31 74 0 74 29 105 130 139
150 51 167 58 197 87 40 38 73 86 73 106 0 9 -33 49 -73 88 -101 100 -168 127
-321 133 -61 2 -129 -1 -151 -7z m225 -54 c86 -18 169 -61 227 -117 44 -44 45
-53 7 -101 -25 -30 -112 -74 -164 -82 -19 -3 -61 -11 -92 -17 -31 -6 -68 -8
-81 -4 -30 7 -124 102 -154 156 -12 21 -27 57 -33 81 -10 37 -9 44 8 61 38 39
161 48 282 23z m-559 -360 c53 -124 87 -174 142 -210 27 -17 49 -20 177 -20
l145 0 75 -51 c150 -103 193 -99 346 27 63 52 94 70 94 54 0 -3 -15 -19 -34
-35 -36 -32 -146 -191 -146 -212 -1 -15 -24 -48 -34 -48 -4 0 -32 16 -61 35
-96 64 -134 66 -239 13 l-59 -30 -36 35 c-62 60 -116 75 -183 51 -54 -19 -65
-14 -74 33 -16 91 -117 329 -166 390 -12 15 -2 46 13 41 6 -2 24 -35 40 -73z
m1069 -123 c0 -5 -9 -17 -20 -27 -19 -18 -20 -17 -20 2 0 11 3 23 7 26 9 10
33 9 33 -1z m63 -36 c20 -15 23 -36 4 -36 -17 0 -57 29 -57 41 0 13 32 11 53
-5z m-821 -267 c9 -5 23 -15 31 -23 23 -23 81 -56 99 -56 9 0 32 16 51 35 28
28 42 35 74 34 47 -1 85 -15 140 -53 50 -33 47 -46 -16 -90 -37 -26 -46 -28
-141 -27 -71 0 -122 7 -173 21 -157 46 -194 68 -209 126 -11 43 82 64 144 33z"/>
<path d="M14960 7995 c-163 -13 -323 -42 -314 -57 3 -4 33 -5 67 -2 34 2 142
11 240 19 200 17 417 19 522 5 39 -5 104 -12 145 -15 41 -4 82 -11 91 -16 10
-5 32 -9 50 -9 66 0 375 -64 508 -106 18 -5 22 -4 20 10 -5 22 -93 55 -174 66
-65 8 -95 18 -95 30 0 14 -129 40 -335 66 -167 21 -523 26 -725 9z"/>
<path d="M14600 7930 c0 -5 4 -10 9 -10 6 0 13 5 16 10 3 6 -1 10 -9 10 -9 0
-16 -4 -16 -10z"/>
<path d="M16337 7703 c-12 -11 -8 -40 8 -53 21 -17 32 -5 27 30 -4 28 -20 39
-35 23z"/>
<path d="M17400 7649 c-270 -9 -406 -35 -384 -71 7 -11 42 -10 46 2 8 24 128
35 368 34 217 -1 264 -4 410 -28 156 -25 198 -35 330 -73 97 -28 319 -112 390
-148 39 -19 70 -32 70 -28 0 9 -148 98 -227 137 -81 40 -265 103 -378 129
-204 47 -328 56 -625 46z"/>
<path d="M17352 7330 c0 -19 2 -27 5 -17 2 9 2 25 0 35 -3 9 -5 1 -5 -18z"/>
<path d="M16130 6927 c0 -33 93 -145 150 -180 19 -11 37 -24 40 -27 6 -7 81
-30 135 -41 41 -9 148 8 140 21 -3 4 -33 13 -67 19 -134 26 -269 92 -349 172
-27 27 -49 43 -49 36z"/>
<path d="M15161 3035 c-17 -20 -31 -40 -31 -45 0 -5 -6 -15 -13 -22 -16 -17
-37 -98 -37 -143 0 -39 36 -143 57 -163 21 -21 27 -7 9 20 -22 31 -23 230 -1
272 8 15 15 32 15 38 0 5 10 22 22 38 32 43 16 47 -21 5z"/>
<path d="M11150 11306 c-72 -17 -177 -71 -212 -110 -31 -33 -31 -33 -45 9 -13
39 -33 42 -72 9 -114 -95 -165 -349 -105 -517 37 -102 38 -107 24 -107 -14 0
-49 40 -50 56 0 6 -28 37 -62 70 -104 98 -261 164 -393 164 l-73 0 -5 -47
c-28 -247 -31 -547 -5 -611 39 -99 93 -192 118 -202 78 -32 233 3 326 74 26
20 50 36 54 36 5 0 22 22 39 49 29 45 48 61 72 61 17 0 9 -36 -16 -70 -14 -19
-25 -47 -25 -62 0 -15 -3 -28 -7 -28 -5 0 -16 -14 -25 -30 -10 -18 -25 -30
-37 -30 -35 0 -202 -44 -266 -70 -106 -43 -210 -107 -283 -173 -41 -37 -44
-38 -65 -23 -106 78 -210 126 -346 158 -47 11 -92 26 -100 33 -7 7 -19 37 -26
66 -23 93 -78 223 -125 294 -11 17 -27 43 -36 60 -9 16 -22 34 -28 41 -6 7
-29 33 -51 58 -22 26 -53 59 -69 74 -16 15 -44 41 -62 58 -28 27 -60 48 -149
101 -37 22 -130 65 -185 85 -30 11 -86 32 -125 48 -231 92 -402 130 -585 130
-177 0 -342 -44 -470 -125 -63 -39 -113 -70 -192 -113 -57 -32 -179 -129 -210
-167 -30 -35 -91 -145 -85 -151 8 -8 93 42 90 52 -6 19 197 194 225 194 7 0
12 4 12 8 0 5 21 18 48 30 220 98 252 105 464 106 92 1 161 4 155 7 -7 4 -43
14 -82 24 -56 14 -96 16 -200 12 l-130 -5 41 18 c161 71 486 66 679 -10 39
-15 210 -100 247 -123 98 -58 221 -154 320 -246 89 -83 69 -44 -34 65 -101
107 -141 144 -207 192 -54 39 -42 41 30 6 206 -97 384 -258 504 -453 6 -9 13
-18 16 -21 21 -19 149 -254 149 -274 0 -20 -8 -20 -127 4 -54 11 -111 23 -128
26 -16 3 -59 11 -95 19 -36 8 -121 24 -190 35 -69 12 -135 26 -148 31 -13 5
-28 7 -33 3 -5 -3 -35 2 -66 11 -57 17 -58 17 -73 -6 -34 -52 -107 -267 -131
-387 -5 -24 -11 -47 -13 -51 -9 -13 -36 -271 -36 -335 0 -110 33 -291 73 -402
40 -111 133 -254 205 -317 17 -16 32 -33 32 -38 0 -34 -384 -130 -470 -118
-23 4 -26 10 -33 69 -4 37 -3 159 3 280 9 160 9 246 0 336 -6 67 -10 125 -9
130 1 5 -1 27 -5 49 -42 221 -74 344 -112 425 -74 159 -91 190 -110 200 -22
12 -89 108 -81 116 11 11 152 -93 231 -170 87 -85 115 -98 51 -23 -19 22 -35
44 -35 49 0 9 -72 159 -100 208 -45 78 -262 270 -306 270 -7 0 -15 4 -18 9 -3
4 -30 16 -61 25 -30 10 -55 22 -55 26 0 12 104 2 170 -16 73 -20 190 -64 218
-82 31 -20 28 1 -5 33 -71 68 -173 111 -311 130 -77 11 -109 11 -195 0 -91
-12 -197 -40 -197 -51 0 -2 30 -1 68 2 77 7 205 -20 272 -57 8 -5 35 -18 59
-31 52 -27 160 -121 233 -203 63 -70 122 -155 113 -163 -3 -4 -9 -2 -13 4 -16
23 -110 65 -187 84 -93 23 -115 24 -115 10 0 -5 5 -10 11 -10 25 0 199 -154
199 -176 0 -7 6 -14 13 -17 31 -12 119 -162 160 -272 66 -178 72 -243 70 -745
l-2 -445 -40 -3 c-54 -4 -71 -26 -40 -51 13 -11 43 -25 66 -32 24 -6 48 -18
54 -25 8 -10 15 -11 24 -4 9 8 29 7 67 -3 l53 -14 -39 -16 c-47 -21 -56 -21
-56 -2 0 21 -13 19 -28 -5 -11 -18 -23 -20 -103 -20 -90 0 -174 -14 -185 -31
-10 -16 27 -83 64 -117 21 -19 59 -46 86 -61 40 -22 56 -38 80 -86 47 -92 128
-202 207 -284 67 -70 71 -75 65 -110 -4 -20 -9 -96 -12 -169 -6 -124 -8 -135
-31 -158 -13 -13 -27 -24 -31 -24 -4 0 -28 -24 -54 -52 -25 -29 -65 -73 -88
-97 -225 -235 -425 -644 -481 -981 -18 -108 -22 -270 -10 -385 22 -210 19
-193 68 -410 8 -38 22 -88 29 -110 8 -23 14 -49 14 -60 0 -10 4 -32 10 -49 5
-17 24 -78 40 -136 17 -58 40 -134 50 -170 29 -100 51 -181 61 -225 19 -91 34
-151 40 -160 4 -5 10 -30 14 -55 3 -25 10 -58 15 -75 14 -48 23 -152 23 -259
-1 -129 -37 -247 -92 -304 -53 -54 -82 -76 -121 -92 -239 -96 -315 -165 -355
-320 -54 -207 63 -437 255 -505 75 -27 228 -55 297 -55 36 0 93 7 127 15 94
24 245 75 251 86 4 5 13 9 21 9 42 0 206 131 271 216 12 16 29 38 38 49 8 11
28 40 43 65 16 25 37 59 47 75 34 55 121 240 131 280 3 14 10 28 15 31 5 2 13
23 19 44 6 22 14 40 19 40 27 0 205 -383 261 -562 20 -66 17 -72 -45 -82 -55
-9 -178 -46 -190 -57 -5 -5 -17 -9 -27 -9 -10 0 -18 -3 -18 -8 0 -4 -14 -13
-32 -21 -17 -8 -57 -40 -88 -72 -49 -49 -60 -68 -75 -124 -16 -57 -16 -73 -6
-123 49 -226 51 -229 144 -294 135 -94 229 -113 533 -105 262 7 414 30 544 83
109 45 152 73 223 147 49 52 57 65 57 99 0 21 4 38 8 38 5 0 45 -22 89 -49 80
-49 167 -87 233 -102 19 -4 53 -12 75 -18 71 -19 323 -14 412 8 198 49 360
131 432 218 74 90 98 230 61 364 -40 151 -56 164 -267 218 -23 7 -77 9 -125 5
-73 -5 -87 -3 -116 15 -30 19 -72 74 -72 95 0 5 19 5 43 2 142 -23 230 -11
354 50 133 66 191 144 211 283 12 83 -5 216 -35 274 -53 104 -123 152 -221
150 -35 0 -69 -6 -75 -12 -38 -38 -30 6 40 214 30 88 61 183 69 210 22 76 42
244 33 283 -6 27 -3 38 12 53 10 10 19 22 19 26 0 3 6 14 14 22 19 21 91 165
111 221 9 25 26 75 38 113 12 37 25 67 28 67 3 0 13 -27 22 -60 12 -41 17 -99
17 -185 0 -69 4 -125 9 -125 5 0 28 21 50 46 43 49 60 94 100 269 11 50 35
126 52 170 39 101 66 210 75 307 9 98 15 109 47 75 28 -31 53 -35 61 -9 35
119 -8 295 -111 450 -19 29 -32 56 -29 59 3 3 27 0 53 -8 56 -16 246 -17 265
-1 7 5 32 16 56 23 47 14 51 30 7 35 -187 20 -430 137 -565 273 -58 59 -37 64
37 8 59 -44 206 -137 217 -137 3 0 30 -11 60 -25 118 -54 284 -78 384 -55 65
15 95 42 172 155 145 215 229 514 230 821 l0 132 33 25 c52 40 181 169 211
210 15 21 37 46 48 57 22 20 77 94 124 165 15 22 35 50 46 62 11 12 17 26 14
32 -4 7 -1 9 8 5 8 -3 17 2 20 14 4 10 25 39 49 63 23 24 58 65 77 89 19 25
41 51 48 59 20 20 78 114 108 173 27 53 77 198 71 205 -2 1 -37 -6 -78 -17
-107 -30 -280 -36 -397 -16 -103 18 -142 20 -142 8 0 -14 193 -72 239 -72 24
0 61 -5 81 -11 33 -10 49 -8 135 20 53 18 99 30 102 28 13 -14 -167 -259 -266
-360 -36 -38 -104 -101 -151 -140 -89 -76 -98 -83 -176 -134 -27 -18 -56 -38
-64 -43 -41 -27 -198 -114 -223 -123 -46 -16 -143 -66 -130 -66 13 -1 175 52
269 87 94 35 284 139 357 195 20 16 37 24 37 18 0 -35 -390 -394 -585 -538
-101 -75 -333 -229 -408 -271 -27 -15 -61 -34 -75 -42 -169 -97 -351 -183
-537 -255 -38 -14 -81 -31 -95 -37 -70 -30 -113 -44 -225 -73 -49 -13 -121
-33 -160 -45 -38 -11 -99 -25 -134 -30 -35 -6 -66 -12 -70 -15 -20 -12 -217
-36 -305 -37 -98 -1 -260 24 -280 43 -6 5 -22 9 -37 9 -15 0 -30 4 -33 9 -3 4
-23 11 -43 15 -57 9 -551 190 -808 296 -11 4 -41 17 -67 29 -26 12 -52 21 -58
21 -5 0 -10 5 -10 10 0 6 -6 10 -14 10 -25 0 -371 173 -476 238 -19 12 -42 25
-50 29 -8 3 -17 10 -20 13 -3 4 -23 17 -45 29 -35 19 -113 73 -290 201 -65 47
-167 145 -135 129 14 -7 50 -29 81 -49 31 -21 87 -52 124 -69 78 -37 124 -39
55 -2 -83 44 -170 98 -180 111 -3 3 -21 16 -40 27 -42 26 -225 211 -217 219 3
4 27 -6 52 -21 69 -40 198 -83 268 -90 l62 -5 -45 21 c-25 12 -53 25 -62 30
-9 5 -59 25 -110 45 -162 62 -325 152 -376 207 l-23 24 103 7 c162 11 354 61
460 121 68 38 67 44 -5 29 -76 -16 -197 -17 -297 0 -77 12 -77 26 -1 26 21 0
63 5 92 11 30 5 68 12 84 14 90 12 272 73 390 131 107 53 196 100 210 111 6 5
35 26 65 47 69 49 255 235 298 299 46 66 75 160 69 220 -2 26 -18 73 -34 105
-16 31 -33 69 -37 85 -3 15 -11 27 -16 27 -12 0 -7 -25 22 -115 23 -71 33
-147 24 -171 -5 -13 -12 -8 -36 27 -16 24 -30 49 -30 54 0 6 -19 28 -40 50
-22 22 -40 45 -40 52 0 7 -3 13 -7 13 -5 0 -33 23 -63 51 -75 68 -72 66 -148
104 -62 32 -181 70 -189 61 -3 -2 22 -16 54 -30 76 -35 193 -106 193 -117 0
-5 5 -9 11 -9 6 0 37 -22 69 -50 89 -77 202 -255 187 -294 -10 -24 -21 -19
-56 24 -33 41 -120 111 -177 142 -42 23 -152 58 -178 57 -15 0 -10 -6 19 -19
22 -10 47 -19 56 -19 9 -1 22 -8 29 -16 7 -8 19 -15 26 -15 19 0 144 -79 144
-91 0 -5 6 -9 13 -9 17 0 97 -84 97 -102 0 -22 -182 -182 -247 -216 -26 -14
-109 -5 -138 14 -11 8 -28 14 -38 14 -40 0 -153 73 -219 142 -38 38 -68 74
-68 80 0 5 -11 24 -24 41 -25 34 -66 118 -66 137 0 5 -4 18 -9 28 -28 53 -45
182 -44 350 1 169 3 188 45 347 10 38 46 136 54 144 1 2 47 -35 101 -81 96
-82 181 -148 283 -218 147 -101 267 -207 325 -286 27 -37 51 -61 53 -55 2 7
-3 22 -12 34 -9 12 -27 38 -40 57 -31 46 -240 249 -291 283 -38 26 -103 74
-135 100 -8 7 -44 32 -79 57 -72 50 -66 62 17 31 61 -22 172 -48 262 -61 30
-5 93 -15 140 -23 47 -9 139 -25 204 -37 140 -24 226 -47 317 -84 36 -14 71
-26 77 -26 7 0 12 -4 12 -9 0 -5 14 -12 30 -16 17 -4 30 -10 30 -14 0 -4 15
-14 33 -23 17 -8 56 -37 85 -63 56 -50 61 -48 36 15 -19 47 -26 37 85 113 101
69 349 177 406 177 8 0 15 4 15 9 0 5 22 12 48 16 58 8 91 25 50 25 l-27 0 34
65 c19 36 35 75 35 88 0 12 4 27 8 32 4 6 60 11 126 12 69 1 123 6 129 12 18
18 25 13 46 -31 11 -24 30 -54 43 -68 23 -25 137 -101 172 -113 14 -6 16 -10
7 -21 -15 -18 -13 -19 89 -46 195 -49 365 -124 496 -217 38 -26 83 -57 99 -68
17 -10 36 -25 43 -32 8 -7 26 -20 40 -27 15 -8 36 -23 46 -35 11 -12 24 -21
30 -21 6 0 28 -14 49 -31 20 -17 90 -72 156 -122 65 -51 146 -118 180 -149 34
-32 65 -58 69 -58 4 0 30 -21 57 -46 84 -78 300 -249 342 -271 50 -26 89 -48
103 -60 25 -19 181 -84 240 -100 102 -27 163 -33 245 -23 95 12 94 12 74 0
-29 -17 -169 -50 -213 -50 -25 0 -48 -4 -51 -10 -11 -18 179 -12 227 7 39 15
77 47 78 64 0 4 -33 10 -72 14 -169 16 -383 97 -507 194 l-24 18 39 40 c37 37
85 122 118 208 16 42 20 68 36 230 5 55 12 114 16 130 3 17 9 127 14 245 5
118 12 226 15 240 6 26 6 26 -92 43 -256 43 -582 50 -808 17 -105 -15 -285
-61 -285 -72 0 -5 -8 -8 -18 -8 -18 0 -193 -86 -264 -129 -44 -27 -49 -25
-214 45 -56 24 -137 52 -180 64 -108 28 -211 82 -283 147 -54 48 -91 97 -91
118 0 4 21 -11 48 -32 149 -124 268 -172 376 -152 54 9 65 16 107 62 93 101
126 205 115 360 -4 49 -11 96 -16 105 -5 9 -24 51 -43 92 -19 41 -50 93 -70
115 l-35 40 -83 0 c-76 0 -91 -4 -159 -36 -79 -38 -176 -122 -205 -179 -18
-36 -20 -36 -52 -10 -14 11 -32 20 -39 20 -27 0 -8 72 46 181 54 108 116 187
251 322 65 64 112 117 104 117 -8 0 -15 4 -15 10 0 5 -21 19 -47 30 -60 27
-169 34 -243 16z m225 -61 c22 -8 35 -14 29 -15 -16 0 -152 -106 -187 -144
-36 -40 -105 -139 -133 -192 -18 -35 -35 -87 -80 -251 -2 -7 -13 -13 -25 -13
-20 0 -21 3 -17 119 l3 118 -27 -48 c-20 -34 -30 -69 -34 -118 -6 -61 -10 -71
-26 -71 -10 0 -33 -7 -50 -16 -27 -14 -32 -14 -45 -1 -21 21 -52 142 -53 204
0 70 37 242 61 278 3 6 9 23 13 39 9 37 36 77 47 70 5 -3 9 -44 9 -91 0 -48 3
-83 7 -80 3 4 15 35 27 69 18 53 28 66 70 95 28 19 61 33 80 34 17 0 49 6 71
14 55 18 210 18 260 0z m-1103 -426 c60 -12 200 -58 208 -68 3 -3 19 -13 35
-21 48 -23 161 -143 175 -184 7 -21 9 -40 6 -43 -3 -3 -42 13 -86 37 -45 23
-85 39 -88 35 -4 -4 -2 -10 4 -12 40 -14 163 -106 170 -125 3 -13 11 -26 16
-29 12 -8 12 -87 0 -119 -15 -39 -138 -158 -190 -184 -93 -47 -248 -53 -278
-11 -20 26 -44 144 -46 225 -6 163 2 510 12 510 5 0 33 -5 62 -11z m1352 -57
c30 -48 62 -157 70 -237 8 -86 -23 -327 -44 -345 -3 -3 -16 -19 -28 -36 -28
-41 -67 -48 -150 -27 -95 24 -323 143 -347 183 -3 5 1 22 9 37 15 30 71 93 81
93 3 0 19 10 36 22 16 12 56 33 87 45 40 16 47 21 23 17 -42 -8 -112 -38 -158
-70 -20 -13 -39 -24 -43 -24 -4 0 -11 24 -14 52 -4 29 -12 58 -18 66 -14 16
17 44 147 134 117 82 216 125 287 127 33 1 41 -4 62 -37z m-595 -188 c58 -23
74 -54 79 -152 l5 -82 -38 -34 c-43 -39 -108 -61 -162 -53 -74 11 -108 20
-130 35 -22 14 -23 21 -23 138 0 118 1 124 23 136 52 28 188 35 246 12z m1689
-547 c-16 -6 -28 -14 -28 -19 0 -4 -7 -8 -16 -8 -23 0 -144 -82 -210 -142 -71
-66 -138 -153 -170 -223 -14 -30 -30 -55 -35 -55 -5 0 -26 15 -45 33 -46 41
-199 154 -261 191 l-47 28 39 20 c100 50 346 129 460 148 191 31 238 37 290
38 46 0 48 -1 23 -11z m573 -4 c9 -9 9 -37 -1 -120 -7 -59 -16 -151 -20 -203
-7 -83 -34 -265 -44 -302 -27 -97 -47 -137 -94 -195 -51 -62 -152 -138 -198
-149 -24 -6 -96 39 -169 105 -22 20 -59 50 -82 66 -25 17 -43 38 -43 49 0 39
131 135 233 169 9 4 17 11 17 16 0 13 -92 -14 -140 -42 -21 -12 -61 -42 -89
-67 -29 -25 -55 -45 -59 -45 -4 1 -22 10 -40 20 -44 27 -51 59 -20 93 14 15
35 43 48 62 13 19 28 40 34 45 6 6 31 35 56 65 25 30 49 58 55 62 5 4 6 11 1
15 -5 4 -11 2 -13 -4 -3 -7 -10 -13 -17 -13 -30 0 -123 -112 -211 -253 -9 -15
-15 -13 -47 16 -20 17 -62 52 -92 77 -30 25 -55 51 -55 59 -2 46 123 220 206
288 26 21 50 41 51 46 2 4 8 7 12 7 5 0 31 13 57 28 72 42 144 70 246 97 82
22 110 24 249 22 104 -1 161 -6 169 -14z m-4575 -1023 c96 -119 253 -218 356
-223 15 -1 27 -6 26 -12 -3 -14 -109 -95 -125 -95 -7 0 -13 -4 -13 -8 0 -5
-18 -15 -41 -22 -36 -12 -44 -12 -77 6 -59 31 -135 114 -171 190 -19 38 -37
76 -42 86 -14 28 -58 223 -65 285 l-6 58 50 -97 c28 -53 76 -129 108 -168z
m4490 199 c-13 -64 -110 -232 -150 -261 -12 -8 -87 72 -79 85 3 5 30 25 61 44
60 39 162 134 162 152 0 6 3 11 6 11 4 0 4 -14 0 -31z m-4567 -1671 c36 -28
71 -55 76 -62 6 -7 22 -19 36 -27 15 -8 53 -32 85 -54 74 -49 165 -105 172
-105 3 0 13 -6 21 -14 23 -20 192 -108 291 -151 47 -21 110 -48 140 -62 77
-35 152 -63 170 -63 8 0 26 -9 40 -20 14 -11 32 -20 40 -20 8 0 27 -6 41 -14
14 -7 36 -16 50 -19 25 -7 89 -60 89 -74 0 -9 -145 -68 -240 -98 -30 -10 -75
-26 -100 -35 -54 -22 -192 -60 -214 -60 -9 0 -24 -4 -34 -9 -23 -13 -194 -51
-226 -51 -13 0 -36 -4 -50 -10 -14 -5 -68 -10 -120 -12 l-95 -2 -33 38 c-18
22 -43 64 -56 95 -13 31 -27 65 -32 76 -17 40 -49 131 -60 175 -7 25 -18 65
-25 90 -38 139 -55 269 -55 433 0 86 3 116 11 111 7 -4 41 -29 78 -56z m4321
-155 c0 -76 -22 -242 -38 -294 -6 -19 -18 -61 -27 -94 -19 -73 -50 -157 -76
-208 -10 -22 -19 -43 -19 -47 0 -11 -75 -131 -122 -195 -23 -32 -49 -55 -71
-63 -48 -17 -196 -19 -287 -3 -104 19 -153 34 -251 80 -25 11 -49 21 -53 21
-4 0 -12 4 -19 10 -7 5 -36 28 -65 51 -51 39 -53 41 -38 62 25 34 55 98 66
142 9 39 13 41 87 68 43 16 128 53 189 83 62 30 117 54 123 54 6 0 11 5 11 10
0 6 4 10 9 10 8 0 137 71 177 98 46 30 162 109 174 119 59 47 216 162 223 162
4 1 7 -29 7 -66z m-4460 -156 c0 -2 11 -55 25 -118 14 -63 28 -127 31 -142 12
-72 75 -223 113 -273 9 -12 23 -32 31 -44 8 -13 30 -37 49 -54 19 -17 40 -37
47 -43 22 -22 310 -17 419 7 216 47 441 132 619 233 60 35 100 33 104 -4 3
-23 -5 -29 -80 -64 -89 -41 -153 -81 -207 -130 -54 -48 -105 -104 -121 -133
-8 -15 -25 -41 -37 -58 -12 -17 -36 -74 -53 -125 -17 -52 -40 -114 -52 -139
-24 -52 -41 -108 -70 -235 -19 -80 -20 -97 -9 -150 14 -63 36 -115 50 -115 10
0 26 45 36 103 8 47 25 48 25 1 0 -144 99 -317 218 -384 23 -13 42 -31 42 -39
0 -28 141 -302 170 -331 3 -3 40 -57 83 -120 42 -63 93 -133 112 -155 19 -22
35 -43 35 -47 0 -9 24 -40 58 -75 12 -13 22 -28 22 -33 0 -6 4 -10 9 -10 5 0
13 -9 16 -20 4 -11 16 -31 28 -43 12 -12 45 -55 72 -95 l50 -74 -3 -106 c-1
-59 -8 -195 -14 -302 -16 -267 -16 -745 0 -975 12 -162 18 -202 43 -273 16
-46 29 -93 29 -106 0 -36 -40 -87 -95 -119 -216 -128 -363 -172 -609 -183
l-131 -7 -29 94 c-37 120 -45 232 -21 294 9 25 22 45 28 45 6 0 18 7 28 16 9
8 52 30 95 49 72 31 76 35 54 43 -48 18 -117 -16 -203 -99 -75 -73 -89 -113
-72 -204 7 -33 28 -96 48 -139 21 -43 37 -83 37 -89 0 -18 -180 -1 -231 22
-37 17 -49 29 -66 68 -41 93 -53 153 -53 259 l0 103 33 34 c19 18 73 50 120
72 48 21 85 40 83 43 -9 9 -112 -22 -156 -46 -125 -70 -158 -195 -106 -399 30
-120 26 -125 -51 -64 -83 65 -124 198 -103 332 13 90 25 113 74 146 135 91
236 123 412 130 192 8 297 -13 452 -90 28 -14 52 -22 52 -16 0 25 -153 129
-191 129 -8 0 -27 7 -42 15 -16 8 -64 18 -108 21 -43 4 -79 10 -79 15 0 20
163 29 268 16 45 -6 62 -5 57 2 -3 6 -13 11 -22 11 -9 0 -24 6 -32 13 -9 8
-47 19 -86 25 -72 12 -179 1 -248 -27 -16 -6 -32 -11 -36 -11 -4 0 -15 28 -24
63 -34 121 -100 322 -112 337 -6 8 -18 31 -25 50 -7 19 -26 63 -42 97 -15 34
-28 66 -28 72 0 5 -4 11 -8 13 -5 1 -25 39 -46 83 -21 44 -78 161 -126 260
-95 195 -175 390 -187 458 -3 15 -9 30 -14 33 -5 3 -9 11 -9 19 0 21 -68 162
-111 229 -42 66 -48 68 -23 9 9 -21 23 -51 30 -68 15 -37 50 -157 59 -205 3
-19 12 -55 20 -80 8 -25 21 -72 30 -105 9 -33 21 -71 26 -84 5 -13 7 -26 4
-29 -7 -7 -79 34 -109 61 -33 31 -85 70 -107 81 -11 5 -19 13 -19 17 0 4 -21
24 -47 44 -141 106 -228 224 -324 440 -17 39 -39 110 -39 128 0 11 -6 33 -14
50 -8 18 -17 48 -20 67 -2 19 -14 78 -25 130 -12 52 -25 120 -30 150 -16 92
-28 151 -33 155 -8 8 2 -204 13 -280 13 -90 55 -280 79 -356 32 -98 84 -210
147 -316 44 -72 165 -205 238 -260 92 -69 175 -123 250 -161 64 -33 83 -47 93
-74 7 -18 17 -40 21 -48 4 -8 28 -53 52 -100 37 -74 69 -127 96 -166 32 -43
42 -76 31 -97 -6 -12 -14 -24 -17 -27 -8 -7 -64 -91 -73 -110 -4 -8 -32 -53
-62 -100 -31 -47 -65 -103 -77 -125 -12 -22 -38 -65 -58 -95 -20 -30 -42 -67
-50 -82 -22 -43 -100 -115 -158 -145 -49 -25 -88 -48 -93 -54 -9 -12 -155 -68
-215 -83 -33 -8 -90 -18 -126 -21 -65 -7 -66 -7 -94 27 -47 55 -72 125 -79
217 l-7 83 36 44 c27 33 61 56 131 90 91 45 112 59 100 71 -12 13 -172 -50
-219 -87 -99 -76 -121 -115 -114 -200 8 -86 41 -170 82 -205 19 -16 35 -33 35
-37 0 -4 -28 -5 -62 -1 -151 16 -224 87 -255 248 -20 108 -17 154 15 197 25
33 113 108 129 108 12 0 102 45 103 51 0 7 -37 -1 -98 -20 -82 -25 -158 -91
-189 -162 -6 -14 -14 -59 -18 -101 -6 -60 -4 -81 10 -107 9 -18 15 -42 13 -54
-3 -19 -7 -15 -25 20 -12 23 -28 66 -36 96 -25 97 16 258 84 329 25 27 138 96
267 165 132 69 196 160 228 328 29 145 7 393 -52 613 -8 28 -20 76 -28 105 -8
28 -22 81 -31 117 -9 36 -20 74 -24 85 -5 11 -23 74 -41 140 -17 66 -36 131
-41 145 -5 14 -13 48 -19 75 -5 28 -19 84 -29 125 -49 191 -72 330 -81 490 -8
156 2 396 19 413 6 6 11 20 11 30 0 24 55 186 86 255 13 29 24 55 24 58 0 13
107 192 169 284 132 196 301 396 301 357z m1550 -390 c41 -14 120 -37 175 -52
55 -14 116 -31 135 -37 36 -12 83 -23 160 -38 25 -5 86 -19 135 -30 195 -45
385 -38 715 26 188 36 227 45 320 72 47 13 112 32 146 41 33 10 65 21 72 25
32 20 -5 -50 -67 -128 -17 -21 -31 -45 -31 -52 0 -7 -3 -14 -7 -16 -5 -1 -26
-25 -48 -53 -22 -27 -61 -72 -87 -99 -26 -28 -46 -52 -43 -54 7 -7 95 58 161
121 39 36 68 56 72 50 4 -6 20 -30 35 -54 38 -60 134 -133 240 -185 90 -44 98
-58 26 -50 -68 8 -137 36 -159 63 -30 38 -36 20 -8 -19 14 -18 35 -53 47 -78
12 -25 26 -52 31 -60 15 -24 60 -147 60 -162 0 -8 4 -18 9 -23 8 -9 51 -207
51 -234 0 -24 -16 -8 -34 32 -10 23 -29 59 -42 79 -13 20 -26 49 -30 65 -24
97 -104 253 -154 298 -29 26 -27 0 4 -62 30 -59 78 -204 100 -299 17 -76 21
-359 6 -419 -7 -28 -8 -26 -9 15 -1 25 -8 76 -16 115 -8 38 -15 81 -15 94 0
13 -3 21 -7 17 -5 -4 -6 -51 -5 -104 3 -95 -17 -298 -38 -377 -21 -79 -45
-150 -57 -169 -12 -18 -12 -18 -21 5 -15 39 -30 91 -37 132 -3 20 -10 37 -15
37 -15 0 -12 92 5 157 12 47 21 171 10 138 -2 -5 -24 -75 -50 -155 -25 -80
-50 -154 -55 -165 -5 -11 -19 -45 -31 -75 -24 -64 -45 -103 -114 -217 -79
-130 -166 -226 -255 -284 -14 -9 -36 -26 -49 -38 -24 -21 -51 -28 -51 -13 0 4
12 19 28 33 71 65 191 216 224 281 48 95 78 171 78 196 0 25 -3 23 -24 -18
-20 -40 -62 -107 -83 -135 -5 -5 -21 -30 -38 -55 -48 -71 -166 -209 -246 -285
-118 -113 -177 -160 -321 -258 -27 -17 -48 -35 -48 -39 0 -5 -6 -8 -13 -8 -7
0 -30 -12 -51 -26 -59 -40 -346 -186 -359 -181 -11 3 -19 80 -10 110 4 17 6
16 25 -5 l21 -23 -7 30 c-8 32 -109 227 -129 248 -7 6 -19 26 -27 42 -8 17
-27 48 -43 70 -15 22 -49 72 -75 110 -57 83 -180 255 -217 305 -32 43 -75 109
-75 116 0 2 -11 21 -23 42 -44 69 -74 127 -109 212 -47 110 -62 161 -87 285
-7 32 -9 21 -9 -55 -1 -52 5 -122 13 -155 8 -32 12 -62 9 -65 -11 -9 -91 88
-117 142 -35 71 -67 200 -67 266 0 70 28 189 53 225 26 38 17 42 -24 10 -45
-35 -85 -100 -114 -187 -18 -55 -24 -64 -24 -41 -1 51 48 203 100 310 50 103
65 122 212 264 48 47 85 86 83 89 -6 6 -151 -94 -197 -135 -52 -47 -50 -24 5
57 57 84 229 260 255 260 5 0 32 15 60 34 28 19 67 40 87 46 34 11 38 10 67
-17 166 -154 435 -289 682 -343 125 -27 338 -37 537 -25 58 3 172 24 166 30
-2 2 -52 -1 -112 -5 -113 -9 -418 10 -454 28 -9 5 -39 12 -67 16 -62 8 -275
74 -296 93 -8 7 -23 13 -32 13 -9 0 -18 4 -21 8 -6 11 -150 82 -165 82 -6 0
-11 4 -11 8 0 4 -14 17 -31 27 -87 55 -153 106 -211 162 -46 44 -62 70 -35 60
6 -3 46 -16 87 -30z m1456 -2149 c-12 -104 -51 -240 -115 -403 -6 -16 -16 -43
-22 -60 -11 -30 -26 -65 -53 -127 -46 -105 -117 -287 -123 -318 -3 -14 -9 -29
-13 -35 -4 -5 -15 -37 -24 -70 -10 -33 -21 -70 -26 -82 -20 -49 -40 -157 -39
-211 0 -73 24 -130 70 -170 41 -35 67 -42 257 -63 182 -20 239 -66 256 -206 9
-70 -16 -207 -50 -271 -24 -46 -87 -102 -101 -88 -3 2 5 39 17 82 22 79 23
159 1 202 -5 9 -19 41 -32 71 -24 55 -89 121 -120 121 -9 0 -32 6 -50 14 -19
8 -59 17 -89 20 l-55 6 47 -24 c26 -13 62 -26 81 -30 45 -8 113 -80 152 -159
34 -70 45 -180 25 -261 -12 -49 -16 -55 -69 -84 -36 -20 -78 -33 -118 -38 -71
-7 -74 -4 -48 59 26 63 20 173 -15 258 -16 41 -30 75 -30 76 0 1 -20 16 -45
33 -55 38 -164 80 -207 80 -40 0 -27 -12 32 -30 130 -39 210 -98 229 -168 14
-49 14 -117 -1 -204 -15 -90 -51 -132 -123 -141 -115 -16 -288 -1 -416 37 -68
21 -210 89 -242 116 -24 21 -27 30 -27 89 0 36 -6 163 -15 281 -20 287 -38
708 -39 904 l-1 160 50 14 c28 8 84 27 125 43 41 16 81 29 88 29 6 0 12 4 12
8 0 4 19 18 43 30 69 36 164 102 247 171 30 25 63 53 74 61 10 8 34 30 54 48
72 68 118 100 156 106 86 16 162 62 245 149 19 20 39 37 44 37 6 0 7 -26 3
-62z m124 -706 c52 -58 80 -128 80 -198 0 -72 -26 -218 -46 -256 -31 -63 -88
-108 -134 -108 -18 0 -21 4 -16 28 43 214 28 349 -47 430 -41 43 -66 43 -33
-1 43 -56 58 -106 64 -213 3 -76 0 -120 -14 -181 l-18 -81 -40 -12 c-23 -7
-69 -15 -102 -18 l-62 -5 2 114 c1 91 -3 122 -17 155 l-19 41 24 39 c14 22 27
50 30 64 9 41 80 234 92 249 8 10 33 12 110 9 l100 -5 46 -51z m-389 -409 c1
-76 -2 -198 -6 -202 -9 -9 -77 12 -82 25 -15 40 49 214 79 214 5 0 8 -17 9
-37z"/>
<path d="M11260 11204 c-74 -35 -180 -124 -180 -151 0 -18 4 -17 41 18 19 18
48 41 65 53 108 73 146 96 159 96 7 0 17 5 20 10 12 20 -32 9 -105 -26z"/>
<path d="M4119 10965 c-3 -3 1 -33 8 -67 10 -45 15 -145 16 -343 2 -238 -1
-294 -16 -370 -21 -101 -46 -185 -58 -200 -5 -5 -9 -17 -9 -27 0 -10 -8 -31
-17 -45 l-17 -26 -7 24 c-14 50 -10 315 6 359 17 48 20 96 6 105 -9 5 -46 -46
-92 -125 -32 -54 -85 -251 -96 -352 -4 -36 -10 -57 -17 -55 -12 4 -94 116 -95
130 -1 12 -76 119 -105 149 -14 15 -26 30 -26 33 0 9 -19 26 -76 68 -58 42
-95 50 -51 12 24 -21 117 -150 117 -162 0 -2 13 -32 29 -66 50 -106 97 -257
80 -257 -5 0 -9 4 -9 9 0 20 -163 209 -221 256 -33 28 -78 64 -98 81 -83 70
-381 254 -410 254 -59 0 -85 -44 -177 -300 -18 -52 -41 -115 -50 -140 -29 -81
-79 -258 -90 -320 -6 -37 -21 -106 -41 -190 -25 -109 -24 -487 1 -620 45 -241
89 -338 207 -459 43 -45 83 -81 89 -81 5 0 10 -4 10 -9 0 -5 8 -11 18 -15 9
-3 24 -10 32 -15 30 -18 126 -58 158 -65 17 -4 32 -11 32 -15 0 -12 -112 -86
-180 -118 -130 -61 -176 -80 -207 -87 -44 -10 -48 -20 -16 -41 22 -15 41 -17
120 -12 84 6 112 0 84 -17 -5 -3 -25 -40 -45 -81 -31 -64 -36 -85 -36 -144 0
-70 11 -95 28 -66 19 35 136 145 154 145 23 0 23 -5 -5 -60 -12 -25 -28 -63
-36 -85 l-13 -41 -86 -18 c-48 -9 -112 -23 -142 -31 -130 -33 -185 -44 -192
-37 -3 4 -13 49 -22 101 -20 121 -20 317 0 491 23 197 23 641 -1 730 -23 88
-67 178 -112 229 -29 34 -44 66 -68 149 -54 183 -84 248 -194 417 -50 78 -237
269 -292 300 -20 11 -54 32 -76 46 -50 34 -166 81 -268 110 -65 18 -109 23
-235 24 -85 1 -180 8 -211 15 -63 14 -244 9 -294 -8 -16 -6 -56 -19 -88 -29
-32 -9 -64 -21 -70 -25 -18 -12 9 -26 63 -33 25 -4 56 -10 70 -14 22 -7 20 -9
-20 -15 -47 -8 -131 -31 -165 -46 -11 -5 -47 -20 -81 -33 -33 -13 -86 -41
-118 -61 -31 -20 -61 -36 -66 -36 -5 0 -51 -42 -103 -92 -143 -142 -206 -265
-222 -435 -8 -86 5 -95 52 -39 15 19 46 44 67 57 37 22 49 23 225 23 145 0
200 -4 251 -17 106 -29 229 -82 299 -130 73 -49 203 -187 177 -187 -3 0 -31
17 -63 38 -133 87 -257 121 -352 95 -22 -6 -19 -9 30 -32 73 -35 159 -101 203
-154 20 -24 36 -47 36 -51 0 -4 9 -17 20 -29 25 -26 112 -197 129 -252 7 -22
16 -49 21 -60 17 -37 77 -230 90 -285 7 -30 18 -71 25 -90 7 -19 21 -64 30
-100 10 -36 21 -76 26 -90 5 -14 16 -52 24 -85 9 -33 24 -82 34 -110 76 -198
96 -248 111 -275 5 -8 24 -45 44 -81 64 -122 156 -240 247 -322 l60 -53 -41
-45 c-23 -24 -54 -60 -68 -79 -15 -19 -29 -37 -32 -40 -12 -10 -202 -297 -209
-315 -8 -19 -298 -407 -341 -455 -97 -109 -159 -168 -239 -227 -2 -2 -2 -5 1
-8 11 -12 258 80 258 96 0 5 7 9 15 9 8 0 15 5 15 10 0 10 41 31 48 25 1 -1
-6 -22 -17 -47 -48 -113 -64 -206 -65 -368 0 -172 13 -230 53 -230 12 0 21 7
21 15 0 8 4 15 9 15 4 0 14 -35 20 -77 7 -43 19 -98 26 -123 17 -56 40 -138
59 -210 8 -30 24 -80 36 -110 12 -30 25 -66 30 -80 5 -14 18 -50 30 -80 12
-30 36 -96 55 -146 18 -50 38 -100 44 -110 9 -17 93 -270 135 -411 9 -28 16
-71 16 -95 0 -47 -33 -175 -50 -192 -5 -5 -10 -15 -10 -22 0 -16 -80 -154
-107 -184 -13 -14 -23 -28 -23 -32 0 -3 -6 -13 -13 -20 -7 -7 -62 -69 -122
-138 -60 -69 -135 -153 -166 -187 -64 -69 -85 -105 -105 -181 -39 -148 7 -325
113 -437 37 -39 61 -58 93 -72 8 -4 17 -9 20 -13 9 -11 93 -38 175 -56 106
-24 338 -24 445 0 173 39 302 90 443 176 38 22 117 126 117 152 0 8 4 18 9 24
6 5 15 29 21 54 25 101 30 117 44 165 18 57 38 126 59 205 39 138 60 207 73
232 8 14 14 32 14 40 0 30 58 153 73 156 9 2 37 -13 63 -32 26 -20 50 -36 55
-36 4 0 15 -24 24 -52 31 -96 177 -374 215 -408 3 -3 14 -20 24 -39 11 -19 25
-42 32 -50 86 -106 263 -376 264 -401 0 -16 -50 -33 -215 -71 -235 -55 -334
-128 -393 -291 -18 -50 -21 -207 -5 -241 6 -12 25 -51 41 -87 63 -135 206
-245 378 -288 172 -44 282 -54 573 -53 299 2 382 12 486 62 126 60 217 208
281 457 31 122 34 132 43 132 5 0 28 -28 52 -62 47 -67 95 -119 131 -142 104
-67 520 -132 741 -116 284 21 499 103 715 275 117 94 157 230 116 397 -21 87
-30 109 -69 168 -41 62 -46 67 -111 100 -44 24 -69 30 -118 30 -61 0 -171 -12
-278 -31 -104 -18 -242 -23 -267 -9 -20 10 -23 18 -19 58 7 69 108 284 268
567 93 165 163 306 186 376 25 77 44 119 53 119 4 0 36 35 70 77 34 43 68 85
75 94 54 66 156 240 156 267 0 6 5 12 10 12 6 0 10 11 10 24 0 14 4 27 9 30 5
3 14 30 21 58 7 29 18 71 25 93 l13 40 5 -35 c3 -19 12 -82 21 -140 9 -58 16
-117 16 -132 0 -28 21 -50 28 -30 2 7 9 12 16 12 16 0 58 74 73 130 16 56 16
181 2 289 -15 113 -10 121 48 76 59 -45 105 -65 150 -65 43 0 51 20 29 68 -22
47 -78 136 -88 140 -5 2 -8 9 -8 17 0 7 -6 18 -14 24 -14 12 -69 119 -81 159
-5 17 -2 22 12 23 187 12 283 47 437 159 87 63 316 290 384 380 22 30 49 64
59 75 82 91 203 322 233 445 5 19 13 53 19 75 25 97 4 254 -51 370 -51 109
-84 145 -166 183 -57 27 -58 27 -262 24 -204 -3 -362 -20 -441 -47 -22 -8 -39
-12 -39 -9 0 2 -14 -3 -31 -11 -17 -9 -33 -14 -36 -11 -3 3 6 29 21 57 14 29
26 61 26 70 0 10 5 21 10 24 6 3 10 27 10 53 0 41 4 50 28 64 15 9 36 25 47
35 11 10 40 34 65 53 194 150 518 459 585 557 24 36 76 104 115 150 11 12 26
36 35 54 9 17 31 52 49 78 18 25 41 62 51 81 9 19 30 61 46 92 16 31 29 64 29
72 0 8 4 16 8 18 15 5 72 181 72 219 0 45 -26 123 -57 167 -41 62 -24 63 61 5
26 -18 57 -33 68 -33 19 0 20 4 14 43 -6 36 -57 143 -75 157 -4 3 -22 25 -41
50 -19 25 -38 47 -42 48 -5 2 -8 10 -8 18 0 7 -30 28 -67 46 -38 18 -73 40
-80 48 -7 8 -13 11 -13 7 0 -4 -20 4 -43 18 -53 31 -80 33 -49 5 12 -11 24
-20 27 -20 16 0 143 -116 203 -186 68 -79 120 -154 106 -154 -3 0 -56 24 -115
54 -60 30 -109 51 -109 47 0 -4 16 -23 36 -42 69 -67 124 -192 124 -283 0 -68
-8 -65 -34 14 -24 71 -60 132 -87 148 -11 7 -23 11 -25 9 -3 -2 16 -41 41 -85
72 -128 81 -244 28 -347 -55 -106 -189 -305 -272 -403 -22 -26 -56 -67 -76
-92 -84 -102 -246 -260 -363 -353 -38 -31 -75 -62 -83 -69 -13 -12 -52 -42
-224 -168 -28 -20 -66 -45 -85 -55 -19 -10 -48 -27 -65 -39 -57 -40 -351 -206
-364 -206 -5 0 -11 -3 -13 -7 -1 -5 -46 -29 -99 -55 l-95 -47 -125 -2 c-71 -1
-143 -7 -169 -15 -78 -24 -122 -18 -205 28 -47 26 -246 100 -320 119 -156 40
-202 49 -350 70 -106 14 -174 18 -230 14 -98 -8 -250 -31 -290 -44 -16 -5 -55
-17 -85 -26 -30 -10 -92 -35 -137 -56 l-82 -39 -88 41 c-196 91 -292 136 -367
174 -78 39 -80 41 -92 89 -24 93 -26 167 -9 276 10 58 23 123 30 145 7 22 20
69 30 105 10 36 23 71 28 78 5 7 7 15 3 19 -3 3 -7 4 -9 2 -1 -2 -19 -29 -39
-59 -20 -30 -64 -109 -98 -175 -34 -66 -66 -124 -70 -130 -9 -12 -40 -134 -40
-158 0 -25 -13 -21 -48 16 -81 83 -92 102 -92 156 0 123 32 270 89 411 21 52
21 54 3 34 -53 -56 -109 -238 -114 -367 -1 -43 -6 -81 -11 -84 -12 -7 -74 54
-92 91 -8 16 -15 43 -15 60 1 88 64 241 155 379 25 37 40 67 33 67 -13 0 -118
-106 -118 -120 0 -6 -20 -20 -44 -33 -98 -50 -132 -71 -144 -88 -17 -25 -44
-26 -34 -1 34 83 144 201 281 301 46 33 81 61 78 61 -3 0 -52 -22 -109 -50
-57 -27 -110 -50 -118 -50 -9 0 -20 -4 -25 -9 -14 -12 -124 -21 -130 -10 -4 5
-1 9 6 9 6 0 30 9 53 19 23 10 61 27 86 37 65 27 234 131 315 195 135 106 262
240 337 357 9 15 22 32 27 39 33 37 135 262 147 323 2 14 9 36 14 50 28 77 39
302 20 431 -10 70 -29 118 -74 188 -42 66 -66 128 -66 174 0 72 -48 203 -108
295 -19 29 -32 56 -28 59 8 8 31 -23 72 -97 17 -30 41 -73 53 -95 29 -52 86
-105 111 -105 20 0 26 15 50 125 33 156 43 195 57 248 24 84 40 91 32 14 -6
-60 3 -205 17 -257 23 -92 32 -104 59 -77 19 20 71 116 90 167 9 25 21 54 25
65 4 11 16 58 25 104 14 68 16 123 13 300 -4 190 -3 211 9 171 7 -24 18 -105
24 -180 11 -142 0 -343 -26 -482 -7 -38 -9 -68 -5 -68 10 0 12 5 41 130 13 52
28 100 34 106 5 7 19 24 30 40 96 134 259 298 360 362 22 14 42 28 45 31 9 11
87 50 92 46 2 -3 -25 -35 -61 -73 -83 -86 -111 -120 -111 -132 0 -5 -6 -13
-14 -17 -34 -20 -166 -270 -166 -315 0 -17 16 -7 32 20 10 15 32 43 51 62 29
30 61 59 180 162 10 10 32 23 48 30 16 7 29 16 29 19 0 7 35 29 123 78 73 41
260 111 294 111 14 -1 11 -6 -12 -25 -16 -14 -34 -25 -38 -25 -11 0 -109 -75
-129 -99 -10 -12 -16 -21 -13 -21 3 0 76 45 163 99 87 55 188 115 224 135 88
49 222 97 283 102 28 3 60 7 73 10 44 9 21 -16 -45 -50 -38 -19 -108 -59 -157
-90 -48 -31 -90 -56 -92 -56 -2 0 -23 -13 -46 -30 -22 -16 -47 -30 -54 -30 -7
0 -14 -4 -16 -9 -1 -5 -37 -30 -78 -57 -41 -26 -76 -51 -78 -56 -2 -4 -8 -8
-13 -8 -6 0 -38 -18 -71 -40 -34 -22 -59 -40 -56 -40 3 0 48 17 99 39 128 53
213 78 417 127 105 24 332 25 432 1 123 -30 213 -57 255 -78 l40 -20 -35 6
c-84 13 -183 17 -266 10 -49 -5 -82 -10 -74 -11 8 -1 65 -10 125 -19 300 -43
426 -70 545 -116 70 -27 172 -89 125 -76 -11 3 -51 14 -90 25 -125 36 -278 47
-441 32 -136 -13 -148 -12 -226 7 -89 22 -133 19 -52 -4 27 -7 74 -20 104 -29
105 -29 115 -32 165 -49 52 -18 226 -102 235 -113 3 -4 22 -18 42 -32 21 -14
38 -28 38 -32 0 -11 -4 -10 -62 15 -29 13 -80 32 -113 41 -33 10 -69 22 -80
26 -75 30 -262 57 -411 60 l-101 1 -19 -43 c-10 -24 -24 -49 -31 -56 -7 -7
-13 -27 -13 -44 l0 -31 23 21 c12 11 47 33 77 48 95 49 246 42 363 -16 29 -14
37 -15 37 -5 0 29 20 23 67 -23 27 -26 63 -58 79 -72 17 -14 59 -50 94 -81 60
-51 167 -132 247 -188 49 -34 244 -128 281 -136 18 -4 44 -12 57 -19 23 -12
21 -15 -103 -139 l-127 -127 -71 0 c-109 0 -123 31 -46 108 26 26 56 52 67 59
19 11 19 12 -5 12 -15 1 -30 -3 -35 -8 -6 -5 -20 -12 -31 -15 -20 -6 -22 -3
-22 38 -2 78 -77 190 -167 247 -30 18 -54 37 -55 41 0 4 9 10 20 13 33 11 12
25 -36 25 -111 0 -219 -106 -255 -247 -10 -43 -10 -62 1 -110 8 -32 20 -64 28
-72 19 -20 10 -34 -39 -58 l-44 -22 107 2 c113 2 122 9 53 42 -44 20 -64 59
-66 127 -3 72 3 80 42 61 18 -9 51 -18 74 -21 38 -4 47 -1 85 34 56 51 65 76
43 122 -9 21 -24 42 -33 49 -13 10 -13 12 2 18 42 16 132 -70 186 -178 36 -73
42 -135 18 -192 l-15 -35 -79 0 c-47 0 -94 -6 -115 -15 -19 -8 -59 -19 -88
-24 -161 -29 -195 -47 -310 -162 -68 -68 -113 -139 -145 -229 -15 -41 -22 -50
-42 -50 -14 0 -31 8 -38 18 -16 21 -19 143 -3 159 6 6 9 19 6 29 -7 34 -45
-66 -53 -140 -9 -84 -41 -121 -72 -83 -6 7 -35 24 -64 37 -29 13 -54 25 -56
26 -2 1 6 23 18 50 12 26 22 61 22 79 0 88 -74 225 -154 284 -58 43 -170 96
-238 112 -30 7 -85 12 -122 12 -56 0 -77 -6 -139 -37 -85 -43 -149 -107 -149
-148 0 -18 5 -28 15 -28 11 0 15 -12 15 -49 0 -70 48 -160 128 -238 58 -58 61
-63 43 -73 -29 -15 -76 -60 -63 -60 6 0 23 5 39 11 109 43 168 52 328 52 118
0 177 -4 223 -16 35 -9 72 -17 83 -17 34 0 20 -19 -18 -25 -127 -22 -459 -113
-528 -145 -11 -5 -42 -18 -70 -29 -91 -36 -155 -72 -288 -159 -101 -67 -106
-85 -9 -30 153 85 330 165 462 207 30 10 85 28 122 40 37 12 86 26 110 31 24
5 84 18 133 30 125 29 213 48 260 55 22 4 50 9 63 12 22 5 23 3 20 -52 l-3
-56 -125 -66 c-69 -36 -155 -80 -192 -99 -37 -19 -106 -57 -155 -86 -48 -28
-97 -56 -108 -62 -40 -22 -110 -71 -113 -78 -2 -5 -9 -8 -14 -8 -31 0 -331
-249 -394 -327 -42 -52 -32 -46 43 24 41 39 120 101 263 209 34 25 232 155
280 182 61 36 106 60 240 127 223 113 260 129 272 117 19 -19 3 -46 -55 -90
l-59 -45 6 -46 c3 -25 6 -59 8 -75 3 -31 14 -21 -213 -201 -106 -85 -318 -303
-374 -385 -65 -95 -128 -223 -122 -248 3 -13 8 -8 20 18 14 32 52 87 157 235
75 106 358 392 491 497 43 34 51 37 69 26 11 -7 20 -18 20 -24 0 -7 7 -14 15
-18 19 -7 20 17 1 47 -16 25 -20 97 -6 97 6 0 10 -9 10 -20 0 -13 5 -17 14
-14 14 5 42 -8 255 -125 52 -28 97 -51 101 -51 4 0 13 -7 20 -15 7 -8 21 -15
31 -15 9 0 24 -6 31 -13 16 -16 117 -47 173 -55 58 -7 172 16 241 50 115 56
202 138 145 138 -11 0 -23 -4 -26 -10 -12 -20 -25 -9 -52 43 -50 94 -62 145
-63 250 l0 97 40 0 c77 0 119 39 175 160 16 36 35 67 40 68 14 3 95 -156 95
-187 0 -5 4 -12 8 -15 14 -8 -5 106 -27 164 -11 30 -34 75 -50 99 -43 64 -28
87 74 115 33 9 74 22 90 28 17 5 66 18 110 28 44 10 96 23 115 28 19 6 87 18
151 27 l117 17 63 -33 c35 -19 66 -37 67 -41 2 -5 12 -8 22 -8 10 0 20 -4 22
-9 4 -10 122 -71 158 -81 22 -6 20 -8 -17 -14 -24 -4 -43 -11 -43 -16 0 -16
89 10 113 34 20 20 21 24 7 23 -21 -1 -220 93 -220 105 0 4 -4 8 -9 8 -16 0
-82 42 -76 48 3 4 43 12 88 19 l82 12 -110 -4 -110 -5 -63 40 c-64 41 -72 60
-24 60 15 0 60 16 100 35 52 25 75 42 82 61 13 34 10 37 -25 24 -31 -12 -146
1 -219 25 l-40 13 30 14 c16 9 56 23 89 33 33 9 71 21 85 25 14 5 59 15 100
24 198 41 227 48 255 62 17 7 21 12 10 10 -11 -2 -49 -9 -85 -16 -36 -6 -90
-17 -120 -25 -30 -7 -73 -16 -95 -20 -22 -4 -44 -10 -50 -14 -5 -4 -35 -13
-65 -20 -30 -7 -90 -26 -134 -43 l-78 -30 -62 15 c-33 9 -80 19 -103 22 -78
12 -73 19 84 124 50 33 95 61 101 61 5 0 15 7 22 15 17 21 -6 19 -42 -3 -14
-9 -62 -39 -106 -65 -45 -26 -97 -61 -118 -78 -38 -30 -62 -35 -92 -20 -9 5
-39 19 -66 31 -120 53 -117 49 -181 247 -31 98 -63 194 -70 213 -20 56 -29
130 -16 130 33 0 231 -44 231 -51 0 -5 7 -9 15 -9 8 0 15 4 15 8 0 11 -176
127 -253 167 -42 22 -59 37 -63 55 -2 14 -10 41 -16 60 -8 23 -13 134 -14 318
-1 156 -4 286 -7 288 -9 9 -138 -26 -237 -63 -115 -44 -180 -75 -240 -113 -25
-17 -52 -33 -60 -37 -27 -12 -180 -125 -180 -133 0 -13 -65 -39 -140 -55 -197
-41 -273 -59 -323 -78 -23 -8 -50 -4 -36 6 6 5 105 69 159 103 44 27 83 50
145 82 17 8 32 18 35 21 3 3 58 33 122 66 l116 60 -86 3 c-89 2 -252 -21 -367
-53 -65 -17 -148 -54 -207 -91 -21 -13 -49 -24 -63 -24 -35 0 -167 -36 -242
-65 -134 -53 -295 -159 -395 -259 -21 -21 -41 -37 -44 -34 -6 7 28 68 39 68 4
0 7 7 7 15 0 8 4 15 9 15 5 0 20 17 32 38 50 83 202 251 292 323 31 25 42 39
32 39 -22 0 -198 -60 -205 -69 -3 -4 -23 -16 -45 -27 -143 -71 -334 -250 -420
-391 -27 -45 -50 -81 -51 -80 -1 1 -7 65 -13 142 -12 145 -36 315 -50 350 -5
11 -18 54 -30 95 -13 41 -29 89 -37 106 -7 17 -17 41 -22 53 -4 12 -10 19 -13
16z m2461 -184 c-12 -86 -10 -232 6 -423 4 -43 4 -78 1 -78 -10 0 -62 25 -92
44 -16 11 -61 40 -100 65 -38 25 -82 51 -97 58 -33 14 -36 42 -8 68 11 10 22
27 26 37 6 19 23 42 72 96 12 14 22 28 22 31 0 12 172 202 178 196 2 -2 -2
-44 -8 -94z m-80 60 c0 -5 -10 -18 -23 -28 -19 -15 -141 -154 -165 -188 -4 -5
-29 -41 -56 -80 -27 -38 -51 -72 -53 -74 -1 -2 -54 8 -115 22 -62 15 -131 28
-153 29 l-40 3 78 53 c43 28 84 52 91 52 6 0 16 4 22 9 5 5 83 47 174 94 91
47 179 92 195 101 34 18 45 20 45 7z m-175 -501 c3 -5 1 -10 -4 -10 -6 0 -11
5 -11 10 0 6 2 10 4 10 3 0 8 -4 11 -10z m-3255 -114 c19 -11 55 -34 80 -53
25 -18 94 -69 153 -114 144 -106 239 -192 299 -269 15 -19 43 -55 62 -80 20
-25 36 -51 36 -57 0 -7 4 -13 10 -13 12 0 80 -136 110 -221 34 -98 32 -268 -5
-420 -15 -63 -31 -118 -35 -122 -4 -5 -10 45 -13 110 -5 119 -36 254 -74 327
-9 17 -20 39 -25 50 -42 83 -120 196 -162 235 -30 28 -36 15 -8 -15 53 -57
182 -309 182 -356 0 -8 4 -18 9 -23 29 -33 58 -425 31 -425 -5 0 -10 12 -10
26 0 14 -6 38 -13 52 -62 125 -86 164 -131 209 -28 29 -56 58 -63 65 -37 39
-109 86 -178 117 -75 33 -76 24 -3 -22 69 -44 198 -158 198 -175 0 -6 6 -12
13 -15 22 -8 83 -107 111 -178 26 -68 50 -169 41 -177 -3 -3 -5 1 -5 8 0 14
-3 18 -82 98 -69 70 -218 144 -283 141 -13 -1 -9 -5 13 -11 17 -6 32 -15 32
-19 0 -5 11 -9 24 -9 13 0 29 -7 36 -15 7 -8 17 -15 22 -15 5 0 20 -8 33 -17
12 -10 33 -25 45 -33 26 -17 105 -99 128 -131 13 -19 13 -25 -8 -63 -13 -22
-36 -66 -53 -96 -16 -30 -36 -63 -45 -72 -25 -29 -96 -23 -187 17 -56 24 -200
94 -230 112 -37 22 -105 93 -105 109 0 7 -6 19 -13 26 -22 22 -64 124 -101
243 -70 230 -59 695 25 1074 12 53 25 114 29 136 18 85 35 112 59 93 9 -7 32
-22 51 -32z m3405 -97 c72 -6 141 -16 154 -22 19 -9 28 -26 37 -67 7 -30 25
-86 39 -125 15 -38 31 -89 37 -112 6 -24 15 -43 19 -43 4 0 10 -13 14 -30 4
-16 11 -32 16 -35 5 -4 9 -17 9 -30 0 -13 5 -27 11 -31 7 -4 7 -10 0 -17 -16
-16 -135 45 -295 152 -38 25 -86 57 -106 71 -21 14 -52 37 -69 53 -17 15 -34
27 -38 27 -15 1 -77 60 -70 66 4 4 42 -5 85 -20 42 -15 96 -32 120 -38 23 -5
42 -14 42 -19 0 -5 10 -9 23 -9 12 0 55 -14 96 -30 41 -17 76 -28 79 -26 8 9
-41 60 -93 99 -60 44 -164 107 -176 107 -5 0 -9 4 -9 9 0 5 -10 11 -23 15 -13
3 -56 21 -97 41 l-75 36 70 -5 c39 -3 129 -11 200 -17z m-3608 -171 c-59 -328
-62 -619 -12 -943 8 -49 17 -108 20 -130 33 -213 187 -361 485 -467 47 -16 90
-34 95 -40 7 -6 -5 -23 -35 -49 -25 -22 -63 -56 -85 -76 -22 -20 -59 -51 -82
-69 -41 -32 -44 -33 -80 -20 -59 21 -172 77 -217 108 -81 55 -172 169 -196
243 -7 22 -16 45 -20 50 -4 6 -10 28 -14 50 -3 22 -13 76 -21 120 -52 275 -33
705 45 990 12 45 68 219 80 250 28 72 56 133 59 130 2 -2 -8 -68 -22 -147z
m-1767 45 c14 -6 48 -14 75 -18 59 -8 200 -72 270 -123 28 -19 44 -27 36 -16
-23 30 -102 104 -112 104 -5 0 -9 4 -9 8 0 5 -18 17 -40 27 -23 10 -43 22 -46
27 -14 22 206 -18 262 -47 16 -8 34 -15 41 -15 33 0 208 -108 279 -172 209
-188 334 -358 428 -583 20 -49 41 -99 46 -110 5 -11 15 -45 23 -75 9 -30 21
-75 27 -100 19 -68 29 -150 40 -305 6 -77 12 -144 14 -150 1 -5 9 37 16 94 13
108 8 275 -11 360 -5 24 -8 46 -5 48 11 11 60 -123 76 -207 28 -150 30 -223
11 -570 -15 -287 -10 -594 11 -686 15 -64 14 -84 -4 -84 -6 0 -34 -11 -62 -24
-114 -53 -183 -85 -221 -100 -60 -25 -325 -178 -325 -188 0 -4 -6 -8 -13 -8
-8 0 -24 -11 -37 -25 -37 -39 -66 -32 -124 28 -70 72 -81 87 -149 202 -33 55
-81 136 -107 180 -45 76 -90 186 -124 305 -54 186 -69 240 -77 278 -5 24 -11
47 -13 51 -3 4 -7 18 -9 32 -28 149 -170 514 -214 550 -7 7 -13 17 -13 24 0
32 -164 213 -245 272 -64 45 -7 36 115 -20 36 -16 67 -33 70 -36 3 -4 20 -17
38 -30 67 -46 145 -141 188 -228 35 -71 33 -67 38 -62 9 10 -27 118 -64 193
-68 136 -82 156 -172 245 -101 101 -212 171 -336 215 -75 26 -105 30 -214 34
-97 3 -139 0 -183 -13 -31 -9 -60 -14 -63 -10 -7 6 33 45 46 45 5 0 15 7 22
15 28 34 170 90 300 118 l65 15 -66 1 c-62 1 -151 -20 -219 -50 -75 -34 -95
-44 -100 -49 -5 -5 -27 -18 -75 -44 -11 -6 -22 -13 -25 -16 -13 -13 -117 -90
-122 -90 -8 0 41 120 61 150 9 14 23 37 31 53 7 15 17 27 22 27 4 0 8 6 8 13
0 11 26 43 88 112 34 36 87 80 125 103 15 9 27 20 27 24 0 4 4 8 10 8 5 0 38
17 72 38 68 41 209 102 238 102 10 0 34 7 53 15 25 10 78 16 169 17 120 2 139
0 193 -22 33 -13 70 -30 83 -38 13 -9 22 -10 22 -4 0 6 -13 19 -30 29 -16 9
-30 20 -30 24 0 21 -228 95 -323 104 -37 4 -70 11 -73 16 -4 7 6 11 59 22 29
7 237 -1 257 -10z m6032 -609 c69 -18 98 -30 98 -43 0 -5 -21 -20 -47 -33 -81
-42 -138 -73 -143 -78 -16 -16 -152 -102 -163 -103 -16 -1 -77 14 -77 19 0 19
66 95 128 146 63 52 131 105 139 108 1 0 30 -7 65 -16z m466 -49 c50 0 92 -3
92 -7 0 -5 -5 -8 -12 -8 -6 0 -26 -11 -44 -25 -46 -35 -174 -54 -218 -33 -57
29 -104 48 -116 48 -17 0 -1 20 24 30 11 5 57 6 101 2 44 -4 122 -7 173 -7z
m-259 -65 c45 -22 85 -40 89 -40 4 -1 25 -19 47 -40 22 -22 47 -40 55 -40 29
0 -9 -23 -52 -31 -162 -28 -318 -69 -483 -125 -23 -8 -45 -14 -51 -14 -11 0
-40 87 -36 108 5 24 88 94 147 124 33 17 62 33 65 37 7 9 113 60 126 61 6 0
48 -18 93 -40z m-2419 -90 c0 -32 42 -88 80 -107 19 -10 37 -21 38 -25 7 -15
91 -8 123 10 42 23 88 72 89 96 0 15 5 17 28 11 39 -9 116 -61 152 -101 57
-66 72 -109 68 -195 -1 -42 -5 -80 -8 -82 -3 -3 -43 -1 -90 5 -101 11 -275 2
-332 -18 -22 -8 -47 -14 -55 -14 -21 0 -125 109 -152 158 -19 36 -23 57 -22
139 1 85 4 99 23 120 27 29 58 31 58 3z m1660 -25 c21 -22 22 -31 17 -92 -9
-108 -80 -246 -106 -206 -28 44 -241 110 -311 97 -56 -12 -40 -20 61 -32 54
-7 114 -18 132 -26 77 -32 151 -145 163 -249 l6 -54 -87 -84 c-130 -125 -112
-118 -312 -118 -105 -1 -173 3 -173 9 0 12 70 64 125 93 27 14 35 22 24 24
-18 4 -169 -66 -169 -78 0 -16 -64 -52 -98 -55 -21 -2 -50 -6 -66 -10 -22 -5
-28 -4 -24 7 7 23 70 60 90 53 22 -7 23 11 3 59 -25 59 -20 77 18 77 18 0 55
11 83 24 27 13 50 21 51 17 1 -3 4 -18 7 -33 9 -42 26 -34 26 12 0 33 3 40 20
40 11 0 20 5 20 11 0 16 -64 3 -129 -27 -29 -13 -64 -24 -78 -24 -23 0 -24 2
-17 48 3 26 8 50 10 54 5 7 33 13 107 23 77 10 55 26 -28 20 -41 -2 -75 -1
-75 4 0 21 49 141 75 181 53 84 116 130 267 194 48 20 55 8 17 -29 -39 -36
-63 -95 -40 -95 5 0 12 11 15 24 12 46 90 102 189 135 117 38 156 39 187 6z
m155 -20 c52 -9 102 -43 116 -78 19 -45 15 -223 -6 -287 -24 -72 -53 -127 -75
-143 -16 -11 -98 -14 -197 -8 -7 1 -13 14 -13 31 0 16 -11 59 -24 94 l-23 66
33 36 c73 77 97 122 102 194 3 44 1 70 -7 74 -6 4 -11 14 -11 22 0 15 17 15
105 -1z m-121 -602 c-4 -16 -11 -38 -15 -51 -13 -34 -11 -80 5 -132 19 -61 34
-88 84 -147 23 -28 42 -55 42 -61 0 -5 -40 -31 -89 -56 -63 -33 -103 -47 -137
-48 l-49 -3 -6 50 c-3 28 -16 69 -28 92 -22 44 -106 134 -138 148 -14 7 -7 10
28 14 57 8 127 61 199 154 44 55 59 67 82 67 26 0 28 -2 22 -27z m-454 -179
c67 -15 113 -44 167 -104 36 -38 73 -107 73 -133 0 -9 5 -19 10 -22 6 -3 10
-17 10 -31 0 -21 -3 -24 -26 -18 -15 4 -57 22 -95 40 -38 18 -80 36 -93 40
-14 3 -30 12 -37 20 -6 8 -16 14 -21 14 -15 0 -142 63 -146 72 -2 5 -9 8 -15
8 -26 1 -107 61 -107 79 0 46 152 66 280 35z m-3160 -934 c0 -36 130 -198 214
-266 27 -21 54 -44 60 -50 18 -17 77 -46 83 -41 3 3 9 34 13 69 7 54 26 134
46 201 13 41 19 10 19 -91 0 -90 5 -122 29 -200 28 -89 32 -95 85 -135 35 -27
64 -60 80 -92 15 -27 34 -61 44 -75 26 -37 176 -190 187 -190 23 0 19 -46 -11
-123 -38 -99 -69 -207 -69 -243 0 -14 -4 -33 -9 -43 -24 -43 -35 -511 -19
-726 12 -145 58 -291 110 -349 10 -11 18 -22 18 -25 0 -4 28 -25 63 -48 141
-96 258 -106 465 -42 19 6 35 9 38 7 4 -5 -16 -131 -37 -238 -6 -30 -15 -73
-19 -95 -15 -78 -52 -210 -61 -219 -5 -6 -9 -19 -9 -30 0 -12 -6 -33 -14 -47
-7 -14 -16 -39 -20 -55 -4 -16 -16 -47 -26 -69 -11 -22 -21 -51 -22 -65 -3
-21 1 -25 28 -28 26 -3 39 5 77 43 25 25 48 41 51 36 7 -11 47 -133 70 -211
14 -50 49 -225 75 -375 67 -388 59 -956 -20 -1465 -6 -36 -12 -84 -14 -107 -2
-23 -8 -51 -14 -62 -6 -11 -11 -30 -11 -44 0 -30 -23 -101 -62 -194 l-31 -73
-96 -29 c-176 -52 -248 -61 -476 -61 -147 0 -217 4 -234 13 -16 7 -42 45 -69
97 -35 70 -46 103 -57 185 -21 147 -20 168 12 200 34 34 99 67 178 90 33 10
52 20 43 22 -24 6 -121 -23 -179 -53 -26 -13 -64 -44 -84 -69 -37 -45 -38 -46
-32 -118 5 -75 39 -194 82 -292 l26 -57 -63 7 c-35 4 -101 15 -148 24 -85 18
-85 18 -117 67 -18 27 -36 54 -41 60 -24 27 -82 241 -82 300 0 84 56 141 183
190 40 15 81 34 92 41 19 13 19 13 -2 13 -26 0 -92 -23 -161 -57 -61 -30 -149
-114 -159 -151 -16 -65 17 -215 76 -345 12 -27 21 -53 19 -58 -5 -16 -84 48
-125 103 -107 145 -129 313 -59 461 25 53 44 76 82 95 29 15 162 53 204 57 19
3 57 9 85 14 110 21 200 22 355 2 154 -20 208 -30 306 -57 70 -19 87 -17 39 5
-68 30 -244 76 -425 108 l-45 9 85 17 c63 13 137 17 285 17 185 1 197 2 160
15 -98 35 -199 47 -378 43 l-176 -3 -58 98 c-32 54 -67 115 -78 135 -11 20
-34 57 -50 81 -29 42 -48 73 -95 151 -11 19 -34 55 -50 80 -16 25 -33 52 -37
60 -6 14 -72 127 -93 160 -5 8 -28 51 -51 95 l-41 80 8 175 c16 310 10 461
-22 573 -14 47 -21 -8 -23 -165 0 -95 -4 -191 -7 -213 -5 -36 -8 -103 -13
-252 -1 -58 -13 -66 -47 -35 -10 9 -46 37 -79 62 -33 25 -62 47 -65 50 -3 3
-27 23 -55 45 -280 220 -531 493 -656 711 -12 21 -33 58 -47 82 -27 47 -37
113 -52 332 -4 74 -10 146 -13 160 -2 14 -8 52 -12 85 -4 33 -13 85 -20 115
-7 30 -16 72 -19 93 -4 20 -11 37 -15 37 -11 0 -3 -402 9 -463 6 -27 7 -59 4
-72 -7 -29 21 -180 47 -255 50 -142 140 -282 294 -454 38 -44 81 -93 95 -109
69 -82 287 -288 328 -311 9 -5 24 -17 32 -26 8 -9 34 -29 58 -44 23 -14 42
-29 42 -33 0 -4 -19 -46 -42 -93 -43 -87 -80 -185 -125 -325 -14 -44 -40 -120
-58 -170 -18 -49 -40 -125 -50 -168 -10 -43 -22 -80 -27 -83 -4 -3 -8 -14 -8
-25 0 -39 -58 -108 -131 -155 -24 -16 -49 -33 -55 -39 -18 -17 -146 -73 -204
-89 -122 -34 -319 -50 -379 -31 -30 9 -61 113 -61 207 0 95 18 137 69 163 69
37 117 74 144 112 15 22 27 42 27 46 0 15 -22 6 -46 -18 -14 -14 -28 -25 -32
-25 -20 0 -147 -140 -168 -185 -26 -56 -34 -170 -15 -218 19 -49 14 -84 -13
-91 -25 -6 -107 13 -197 45 -54 20 -57 23 -64 62 -5 23 -7 45 -7 49 1 4 -3 33
-9 65 -16 83 -3 215 23 245 11 13 28 32 37 44 9 11 43 39 77 62 63 43 101 79
92 87 -3 3 -16 -3 -29 -13 -13 -10 -44 -30 -69 -44 -77 -44 -148 -118 -170
-176 -24 -63 -25 -81 -4 -178 8 -42 14 -92 12 -112 l-3 -37 -46 48 c-37 39
-49 61 -65 120 -26 99 -26 256 0 312 11 22 80 105 155 185 186 199 291 319
314 357 10 18 23 33 27 33 4 0 13 12 19 28 6 15 19 41 29 57 44 72 68 298 40
377 -8 24 -23 68 -32 98 -20 61 -26 78 -50 133 -9 21 -16 44 -16 51 0 8 -7 27
-15 42 -8 16 -15 37 -15 46 0 9 -4 19 -9 22 -4 3 -16 27 -26 53 -39 106 -79
209 -85 218 -4 6 -10 24 -14 40 -4 17 -14 44 -21 60 -38 86 -104 320 -135 478
-6 31 -12 147 -12 257 0 110 -4 200 -7 200 -20 0 -53 -138 -67 -282 -4 -41
-10 -58 -20 -58 -10 0 -14 14 -15 53 -1 28 -2 79 -3 112 -5 165 86 448 192
599 23 33 40 61 39 63 -6 6 -203 -191 -210 -210 -4 -9 -15 -20 -24 -24 -10 -4
-32 -17 -49 -30 -46 -34 -50 -15 -5 28 34 34 144 157 163 184 4 5 25 33 46 60
21 28 73 104 117 170 43 66 82 122 87 123 4 2 8 12 8 22 0 10 4 20 9 22 5 2
35 43 67 92 33 48 69 103 81 122 76 112 341 308 580 428 73 36 138 66 146 66
7 0 28 8 47 18 65 34 475 160 523 161 20 1 27 -4 27 -19z m3750 -478 c0 -27
-46 -141 -74 -183 -20 -29 -41 -42 -108 -69 -46 -18 -90 -39 -99 -47 -8 -7
-20 -13 -25 -13 -5 0 -36 -18 -68 -40 l-59 -39 -41 33 c-46 38 -117 76 -141
76 -31 0 -13 16 38 33 57 20 110 40 172 67 22 10 84 37 138 60 54 23 132 64
175 90 89 55 92 56 92 32z m-3014 -131 c5 -5 32 -18 59 -29 28 -11 76 -32 107
-46 31 -14 61 -26 66 -26 23 0 31 -26 15 -51 -26 -40 -86 -99 -100 -99 -7 0
-20 15 -29 33 -10 17 -22 37 -29 42 -25 22 -115 153 -115 169 0 18 11 21 26 7z
m1234 -37 c139 -20 364 -76 384 -95 6 -5 16 -9 24 -9 25 0 272 -120 309 -149
34 -28 41 -53 37 -129 -4 -80 -27 -137 -90 -224 -19 -27 -34 -51 -34 -54 0 -8
-201 -204 -210 -204 -4 0 -18 -10 -31 -21 -21 -19 -111 -78 -174 -116 -11 -7
-128 -66 -260 -132 -132 -67 -230 -121 -218 -121 29 0 161 33 243 60 89 30
308 143 330 170 3 3 21 17 40 30 41 29 42 29 100 78 25 20 78 68 118 106 39
38 72 64 72 57 0 -7 -30 -55 -67 -108 -38 -52 -86 -120 -107 -151 -84 -120
-412 -426 -515 -481 -11 -6 -25 -17 -33 -24 -20 -19 -186 -113 -258 -145 -123
-55 -317 -115 -441 -136 -51 -9 -153 25 -213 71 -59 45 -92 106 -116 215 -27
118 -25 707 1 863 11 60 24 123 29 140 6 16 19 59 31 94 42 133 134 288 186
314 84 43 265 89 408 106 55 6 114 13 130 15 47 6 221 -4 325 -20z m2523 -20
c75 -17 94 -31 152 -114 62 -89 64 -291 4 -465 -55 -162 -213 -416 -345 -555
-257 -272 -389 -368 -558 -410 -71 -17 -149 -15 -201 6 -84 34 -225 161 -296
267 -50 75 -145 257 -183 352 l-27 69 23 18 c13 10 27 18 32 18 5 0 25 16 45
35 75 71 107 95 129 95 12 0 22 -4 22 -10 0 -5 5 -10 10 -10 12 0 64 -35 95
-65 12 -11 49 -46 83 -77 33 -31 78 -82 98 -113 20 -30 39 -53 41 -51 2 2 -11
33 -29 70 -41 79 -130 174 -227 240 -39 27 -71 51 -71 52 0 2 25 43 55 93 44
73 55 99 55 134 0 24 -4 47 -9 53 -9 8 -15 30 -38 121 -5 19 6 27 88 66 189
90 339 139 544 178 125 23 409 25 508 3z m-1380 -159 c71 -18 156 -71 188
-116 12 -19 27 -37 33 -41 5 -3 11 -31 14 -61 4 -48 0 -62 -35 -131 -24 -45
-65 -103 -102 -141 -35 -36 -64 -65 -66 -65 -2 0 -15 -10 -28 -22 -35 -33
-172 -99 -211 -103 -18 -1 -42 -8 -54 -14 -48 -26 -212 -1 -226 34 -3 8 1 21
10 29 23 23 83 147 100 207 27 96 44 213 38 259 -6 49 -40 130 -55 130 -16 0
-10 18 9 25 57 25 306 31 385 10z m-461 -736 c66 -18 243 -14 302 6 58 20 53
25 96 -103 38 -110 116 -266 170 -337 88 -118 205 -221 306 -273 37 -19 42
-27 68 -104 15 -46 45 -113 66 -150 22 -36 40 -69 40 -73 0 -6 10 -19 38 -50
19 -21 15 -45 -8 -45 -71 0 -196 135 -223 240 -7 28 -52 88 -60 80 -3 -3 0
-19 7 -35 15 -33 39 -121 55 -203 14 -69 14 -253 0 -361 -16 -124 -28 -142
-28 -46 -1 117 -37 287 -83 390 -19 44 -20 42 -18 -30 3 -99 -112 -417 -213
-590 -51 -87 -72 -120 -87 -139 -52 -61 -89 -107 -92 -114 -1 -5 -41 -40 -88
-77 -47 -37 -87 -71 -90 -74 -3 -4 -18 -12 -33 -19 -25 -11 -27 -10 -18 6 6 9
26 34 46 56 83 89 147 195 183 307 14 42 15 49 4 49 -5 0 -16 -15 -25 -32 -34
-68 -120 -196 -164 -245 -15 -17 -41 -48 -58 -69 -102 -130 -425 -387 -452
-360 -3 3 7 26 21 52 14 26 24 49 22 51 -4 5 -64 -67 -91 -109 -17 -28 -17
-28 7 -28 48 0 195 62 236 100 9 8 33 26 52 40 19 13 37 27 40 30 34 35 80 71
96 74 82 16 194 71 194 96 0 5 5 10 10 10 14 0 12 -20 -5 -54 -8 -15 -15 -35
-15 -42 0 -8 -4 -14 -10 -14 -5 0 -10 -5 -10 -10 0 -18 -68 -151 -139 -270
-14 -25 -32 -54 -38 -65 -16 -28 -134 -265 -144 -290 -20 -50 -49 -160 -49
-186 0 -42 31 -95 65 -112 63 -31 69 -31 245 3 127 25 158 31 207 36 76 9 116
-2 172 -46 158 -125 184 -405 52 -553 -14 -15 -27 -27 -31 -27 -3 0 -6 42 -8
93 -4 158 -40 277 -98 327 -26 22 -38 25 -134 27 l-105 2 73 -14 c96 -18 136
-32 155 -53 33 -36 59 -144 64 -264 8 -157 5 -163 -102 -234 -46 -31 -113 -56
-126 -48 -5 3 -9 17 -9 32 0 46 -29 194 -47 242 -21 57 -75 128 -113 152 -23
14 -50 18 -108 17 l-77 -1 70 -17 c77 -20 141 -55 151 -84 3 -9 9 -17 14 -17
12 0 40 -89 50 -159 8 -61 -2 -187 -17 -202 -4 -4 -42 -15 -83 -24 -103 -22
-475 -21 -593 1 -99 19 -189 43 -201 55 -6 5 -18 9 -28 9 -34 0 -113 47 -144
86 -29 38 -104 162 -116 195 -6 15 13 188 26 251 19 83 23 363 14 753 -3 100
-3 100 22 103 42 5 233 52 260 64 69 29 89 37 130 54 53 22 200 97 238 122 14
9 33 16 41 14 9 -1 27 15 41 35 14 21 51 63 82 95 48 48 98 121 98 143 0 16
-24 -1 -77 -54 -71 -70 -146 -132 -229 -188 -74 -51 -282 -153 -309 -153 -12
0 -25 -4 -31 -10 -11 -11 -254 -70 -288 -70 -22 0 -25 7 -40 106 -9 59 -19
111 -22 116 -3 5 -10 33 -14 61 -12 71 -50 199 -100 337 -67 182 -67 183 -45
224 11 20 22 36 26 36 10 0 69 184 69 214 0 14 -4 26 -10 26 -5 0 -10 -9 -10
-21 0 -64 -125 -292 -199 -363 -32 -31 -41 -26 -18 9 20 29 93 239 112 320 9
39 23 95 30 125 7 30 13 86 14 124 1 39 4 73 7 78 3 4 6 38 8 74 l3 65 79 34
c43 18 94 38 112 45 19 7 39 18 45 25 7 6 44 28 82 49 39 21 79 46 91 57 11
10 24 19 29 19 8 0 109 73 133 97 7 6 33 29 59 50 25 21 61 52 78 68 18 17 48
44 66 61 70 62 258 292 303 367 17 30 33 47 41 43 8 -3 33 -10 57 -17z"/>
<path d="M6182 8654 c1 -9 9 -19 16 -22 9 -3 13 2 10 14 -1 9 -9 19 -16 22 -9
3 -13 -2 -10 -14z"/>
<path d="M6162 8519 c-7 -11 -11 -24 -8 -27 10 -9 28 15 24 32 -2 14 -5 13
-16 -5z"/>
<path d="M6785 8921 c-3 -5 -1 -12 5 -16 5 -3 10 1 10 9 0 18 -6 21 -15 7z"/>
<path d="M6690 8786 c0 -2 9 -6 20 -9 11 -3 20 -1 20 4 0 5 -9 9 -20 9 -11 0
-20 -2 -20 -4z"/>
<path d="M4105 6467 c3 -44 14 -90 32 -130 30 -70 102 -176 119 -177 7 0 14
-7 18 -15 3 -9 26 -24 52 -35 38 -17 68 -20 178 -20 149 0 207 15 421 105 61
26 205 77 320 115 437 142 407 131 345 125 -105 -11 -135 -16 -210 -37 -41
-11 -88 -24 -105 -29 -96 -26 -205 -62 -283 -93 -287 -115 -547 -157 -656
-105 -100 47 -184 159 -218 293 l-18 71 5 -68z"/>
<path d="M6480 6327 l-55 -12 45 -2 c57 -4 267 -30 343 -44 71 -13 83 -6 31
16 -107 45 -266 63 -364 42z"/>
<path d="M11020 10143 c1 -20 13 -38 48 -67 34 -29 26 -3 -13 44 -25 30 -35
37 -35 23z"/>
<path d="M7600 9742 c0 -5 -15 -14 -32 -20 -22 -6 -26 -10 -13 -11 28 -1 71
24 56 33 -6 4 -11 3 -11 -2z"/>
<path d="M7480 9692 c-44 -21 -44 -21 -37 -28 7 -8 87 27 87 38 0 11 -10 9
-50 -10z"/>
<path d="M4496 9665 c-65 -34 -95 -58 -96 -72 0 -7 -4 -13 -9 -13 -20 0 -51
-123 -51 -199 0 -105 14 -120 27 -28 11 78 50 169 92 216 36 39 122 91 179
106 l47 13 -71 1 c-58 1 -80 -4 -118 -24z"/>
<path d="M12010 9498 c-60 -17 -58 -28 4 -28 55 0 126 -23 126 -40 0 -5 9 -11
19 -15 24 -7 87 -67 125 -118 16 -21 31 -36 33 -33 10 10 -63 126 -110 174
-67 68 -116 83 -197 60z"/>
<path d="M10300 9444 c-30 -8 -57 -18 -60 -23 -3 -4 -21 -16 -40 -26 -36 -19
-180 -160 -180 -177 0 -6 31 17 69 50 81 70 197 130 267 138 29 4 75 0 114 -9
36 -9 67 -14 69 -11 8 8 -46 44 -91 58 -56 19 -77 19 -148 0z"/>
<path d="M7930 9170 c-39 -6 -36 -7 30 -8 41 0 86 4 100 8 32 10 -64 10 -130
0z"/>
<path d="M11990 9111 c0 -53 -3 -71 -14 -71 -8 0 -16 15 -19 36 -6 34 -31 74
-47 74 -5 0 -7 -33 -7 -72 1 -69 -1 -77 -40 -138 -23 -36 -50 -76 -61 -90 -49
-63 -83 -146 -89 -218 -3 -40 -10 -72 -14 -72 -5 0 -9 4 -9 9 0 11 -55 46 -87
56 -13 3 -23 2 -23 -3 0 -6 10 -12 23 -16 27 -6 71 -48 107 -101 14 -20 31
-42 38 -50 6 -7 12 -21 12 -29 0 -13 -4 -14 -25 -4 -14 6 -25 15 -25 20 0 4
-6 8 -14 8 -7 0 -16 9 -19 19 -13 50 -198 96 -279 71 -39 -12 -97 -42 -123
-62 -40 -32 -54 -46 -70 -71 -15 -23 -22 -27 -49 -21 -37 7 -124 -29 -170 -70
-22 -20 -40 -26 -73 -26 -23 0 -43 4 -43 8 0 23 65 105 129 161 39 35 69 66
66 69 -9 10 -88 -39 -133 -82 -41 -40 -72 -87 -72 -111 0 -6 -6 -20 -14 -30
-11 -16 -17 -17 -29 -7 -8 7 -44 15 -81 19 -83 7 -99 23 -54 51 50 31 115 102
133 144 43 104 -5 235 -127 351 -40 38 -77 71 -83 75 -19 12 -71 86 -85 120
-7 18 -17 31 -23 29 -20 -6 -26 -44 -11 -72 17 -33 18 -45 3 -45 -23 0 -78 71
-87 113 l-10 42 -1 -45 c0 -25 6 -58 14 -74 9 -16 12 -33 7 -38 -13 -13 -80
50 -92 87 -12 37 -30 47 -30 18 0 -10 5 -35 11 -56 20 -74 -21 -70 -61 7 -13
25 -27 46 -32 46 -10 0 -11 3 12 -60 21 -58 25 -90 11 -90 -4 0 -29 19 -55 41
-26 23 -49 39 -53 36 -9 -10 38 -97 58 -108 11 -5 17 -14 14 -19 -6 -10 -74 9
-97 28 -34 28 -20 -10 22 -63 38 -48 40 -53 40 -124 0 -57 5 -82 22 -112 12
-22 25 -39 30 -39 4 0 8 -6 8 -14 0 -8 5 -16 12 -18 22 -8 -1 -38 -29 -39 -15
-1 3 -5 42 -10 38 -4 95 -15 125 -24 81 -24 210 -77 210 -87 0 -4 -93 -5 -207
-2 -137 4 -242 2 -308 -6 -55 -7 -129 -16 -165 -20 -69 -8 -171 -30 -260 -56
-30 -9 -69 -18 -87 -21 -18 -3 -38 -12 -45 -21 -11 -14 -10 -15 7 -8 11 5 41
12 67 17 27 4 52 10 56 13 19 11 218 36 387 47 200 13 498 3 704 -25 117 -16
131 -23 131 -63 0 -23 17 -40 28 -28 4 4 1 10 -5 12 -7 3 -13 18 -13 35 0 25
3 29 23 26 19 -3 22 -8 18 -43 -6 -78 17 -70 -301 -100 -174 -17 -247 -27
-450 -66 -219 -42 -264 -54 -443 -121 -70 -26 -138 -55 -150 -64 -20 -15 -20
-16 -2 -11 11 3 58 20 105 37 88 33 275 87 345 100 22 4 58 12 80 17 22 6 74
16 115 23 41 6 93 15 115 20 22 5 85 14 140 20 55 6 123 15 150 20 28 5 103
12 168 15 l118 7 -3 -27 c-3 -23 -12 -30 -72 -51 -103 -36 -346 -152 -346
-166 0 -4 -8 -8 -17 -8 -37 0 -393 -257 -393 -283 0 -4 6 -3 13 3 90 76 324
225 483 306 148 77 182 88 169 57 -4 -10 -9 -40 -12 -68 l-4 -50 16 34 c8 18
15 37 15 41 0 4 9 28 20 53 l20 46 61 -67 c34 -37 71 -76 83 -87 11 -11 41
-47 65 -80 25 -33 54 -69 65 -81 34 -33 131 -145 134 -155 2 -5 43 -9 92 -9
105 0 199 26 250 69 38 31 35 51 -4 33 -13 -6 -27 -8 -30 -5 -3 4 -6 39 -6 78
0 90 21 139 56 132 13 -2 51 2 83 9 90 21 181 79 227 146 15 21 33 38 41 38 8
0 22 -18 32 -40 22 -49 27 -45 23 13 -4 45 -14 60 -67 102 -13 11 -25 26 -25
34 0 12 26 13 163 7 306 -12 626 -87 830 -193 32 -17 37 -4 6 15 -121 76 -359
164 -477 177 -15 2 -52 8 -82 13 -31 6 -145 14 -253 18 -109 4 -200 11 -203
15 -4 7 19 63 32 78 7 7 181 31 279 38 126 9 449 10 580 1 103 -6 269 -32 312
-49 31 -11 40 -12 28 0 -13 11 -129 45 -225 64 -205 43 -403 50 -644 23 -83
-10 -152 -19 -155 -21 -14 -8 -193 -35 -202 -30 -19 13 -7 25 54 54 86 41 183
75 297 105 36 10 80 22 98 27 18 6 59 15 90 19 31 5 86 14 122 21 70 12 463
16 520 5 l35 -7 -28 15 c-15 8 -76 25 -137 36 -201 40 -399 20 -749 -74 -52
-14 -96 -24 -98 -22 -2 1 9 16 24 31 38 38 176 102 238 110 28 3 61 9 75 12
l25 6 -25 7 c-14 5 -42 8 -62 9 -39 1 -49 16 -27 38 7 7 12 42 12 81 0 57 -5
79 -27 117 -20 37 -24 51 -15 61 6 8 16 14 22 14 10 0 57 46 57 57 0 3 -10 -1
-22 -8 -32 -20 -62 -17 -66 4 -2 10 8 36 22 57 35 54 33 58 -11 16 -39 -36
-83 -48 -83 -22 0 8 5 18 10 21 12 8 13 85 1 85 -5 0 -14 -14 -20 -32 -13 -37
-49 -78 -68 -78 -8 0 -13 13 -13 39 0 22 -3 46 -6 55 -10 27 -24 18 -24 -15 0
-35 -26 -95 -43 -102 -9 -3 -11 10 -9 44 3 38 -1 54 -17 75 l-21 27 0 -72z
m220 -158 c43 -29 79 -75 86 -108 12 -65 -27 -195 -58 -195 -36 0 -238 -174
-238 -206 0 -32 -108 -33 -170 -1 -66 33 -85 65 -85 145 0 65 31 192 47 192 5
0 8 -4 8 -10 0 -19 106 -111 147 -126 l42 -16 58 36 c79 49 86 56 106 98 31
66 21 124 -31 181 l-26 27 45 0 c25 0 55 -7 69 -17z m-1840 -122 c0 -92 39
-152 129 -197 l54 -26 70 21 c39 11 72 23 75 25 2 3 10 22 17 42 16 48 26 51
48 15 13 -22 17 -51 16 -113 0 -45 -3 -90 -7 -99 -13 -31 -67 -91 -95 -106
-27 -14 -33 -13 -95 20 -74 38 -157 68 -244 88 -45 11 -60 19 -74 44 -31 51
-44 97 -44 163 0 70 17 114 53 134 22 13 76 35 90 37 4 0 7 -21 7 -48z m1221
-341 c29 -13 59 -67 59 -106 0 -13 -11 -41 -24 -62 -22 -36 -118 -132 -131
-132 -4 0 -30 23 -58 51 -55 54 -132 99 -169 99 -13 0 -33 3 -45 6 l-22 6 25
38 c31 46 92 88 154 106 52 15 172 12 211 -6z m229 -60 c0 -5 18 -14 40 -20
45 -12 47 -16 23 -42 -24 -27 -56 -22 -81 12 -27 37 -28 60 -2 60 11 0 20 -4
20 -10z m-61 -69 c20 -21 45 -57 56 -80 18 -42 18 -42 -3 -87 -12 -24 -22 -55
-22 -67 0 -12 -7 -33 -16 -45 -21 -31 -11 -39 14 -12 16 17 27 21 51 15 17 -4
31 -11 31 -17 0 -23 -33 -77 -68 -111 -55 -53 -93 -65 -194 -62 -102 3 -152
20 -144 50 11 40 17 160 8 145 -5 -8 -12 -31 -16 -51 -9 -52 -58 -111 -118
-144 -47 -26 -63 -29 -143 -29 -89 -1 -93 1 -186 47 -52 26 -108 59 -124 72
l-30 24 38 1 c34 0 37 2 37 29 0 31 -8 28 138 46 76 10 67 29 -10 22 -35 -3
-78 -9 -95 -13 -22 -4 -33 -3 -33 5 0 6 5 11 11 11 6 0 17 6 24 14 8 7 40 17
71 21 92 11 95 20 9 25 -72 4 -80 7 -83 26 -5 35 20 47 61 29 70 -29 75 -10 6
25 -21 11 -39 24 -39 29 0 14 100 60 145 67 31 4 44 2 54 -10 7 -9 22 -16 32
-16 11 0 27 -4 37 -9 9 -5 42 -21 72 -34 62 -28 140 -96 140 -121 0 -13 13 -8
58 23 86 60 126 101 156 164 16 31 30 57 33 57 2 0 21 -17 42 -39z m-864 -321
c3 -5 1 -10 -4 -10 -6 0 -11 5 -11 10 0 6 2 10 4 10 3 0 8 -4 11 -10z m87
-155 c20 -14 42 -25 47 -25 6 0 11 -4 11 -9 0 -14 109 -51 149 -51 20 0 41 -4
47 -10 12 -12 95 28 151 76 41 33 45 34 83 24 22 -6 40 -14 40 -18 0 -4 -9
-34 -20 -66 -22 -64 -27 -175 -9 -193 16 -16 -27 -41 -84 -49 l-47 -7 0 40 c0
51 -16 99 -48 141 -28 36 -49 43 -31 10 17 -32 39 -118 39 -155 0 -29 -3 -33
-27 -33 -48 0 -97 36 -160 117 -62 80 -122 149 -155 181 -58 54 -50 70 14 27z"/>
<path d="M11710 8193 c0 -5 4 -15 10 -23 11 -18 25 -7 17 15 -6 15 -27 21 -27
8z"/>
<path d="M11150 8084 c0 -9 5 -14 12 -12 18 6 21 28 4 28 -9 0 -16 -7 -16 -16z"/>
<path d="M13395 8522 c-27 -2 -54 -8 -60 -14 -12 -12 152 -3 200 11 25 8 20 9
-30 8 -33 -1 -82 -3 -110 -5z"/>
<path d="M13288 8513 c7 -3 16 -2 19 1 4 3 -2 6 -13 5 -11 0 -14 -3 -6 -6z"/>
<path d="M6950 8059 c0 -63 -5 -109 -15 -132 -22 -52 -35 -55 -35 -8 0 22 -4
42 -8 45 -5 3 -7 -17 -4 -44 7 -78 -34 -220 -80 -277 -21 -26 -28 -11 -28 66
0 80 -6 111 -20 111 -4 0 -11 -16 -15 -36 -3 -20 -12 -46 -18 -58 -29 -51 -98
-134 -131 -157 -36 -24 -45 -39 -25 -39 23 0 118 62 148 95 17 19 33 35 36 35
3 0 5 -16 5 -35 0 -19 3 -35 8 -35 4 0 24 14 45 31 44 36 87 115 87 159 0 20
12 47 35 77 19 25 40 64 46 87 14 51 6 141 -15 181 -15 29 -16 28 -16 -66z"/>
<path d="M10034 7565 c-10 -8 -14 -14 -9 -15 15 0 40 18 34 24 -3 3 -14 -1
-25 -9z"/>
<path d="M11635 7440 c-39 -61 -110 -124 -127 -114 -4 3 -5 17 -2 31 5 18 3
24 -5 19 -6 -4 -11 -11 -11 -17 0 -12 -26 -38 -68 -68 -39 -27 -119 -50 -182
-52 l-45 -1 40 -8 c44 -9 182 15 245 42 59 25 153 110 178 162 36 71 21 75
-23 6z"/>
</g>
</svg>
