<?xml version="1.0" standalone="no"?>
<!DOCTYPE svg PUBLIC "-//W3C//DTD SVG 20010904//EN"
 "http://www.w3.org/TR/2001/REC-SVG-20010904/DTD/svg10.dtd">
<svg version="1.0" xmlns="http://www.w3.org/2000/svg"
 width="960.000000pt" height="758.000000pt" viewBox="0 0 960.000000 758.000000"
 preserveAspectRatio="xMidYMid meet">
<metadata>
Created by potrace 1.16, written by Peter Selinger 2001-2019
</metadata>
<g transform="translate(0.000000,758.000000) scale(0.100000,-0.100000)"
fill="#000000" stroke="none">
<path d="M1855 6904 c-11 -3 -37 -10 -57 -15 -38 -10 -113 -79 -151 -141 -15
-24 -87 -209 -87 -224 0 -1 -12 -4 -27 -7 -42 -9 -145 -80 -179 -123 -59 -78
-78 -111 -123 -219 l-46 -110 -1 -362 c-1 -270 -5 -370 -14 -393 -11 -26 -10
-52 6 -162 l18 -130 -21 -37 c-68 -115 -150 -303 -157 -356 -2 -16 -9 -51 -16
-77 -12 -48 -8 -84 9 -74 9 6 28 79 36 141 8 55 76 205 159 348 28 48 28 49
17 125 -7 42 -17 96 -22 119 -13 62 -12 70 20 104 44 46 205 88 216 57 3 -7
-4 -53 -14 -103 -11 -51 -16 -94 -11 -99 5 -5 12 3 15 20 4 16 11 43 15 59 5
17 11 48 15 70 4 22 11 45 16 52 6 6 9 33 7 60 l-3 48 -15 -30 c-13 -26 -22
-31 -70 -37 -30 -4 -75 -11 -100 -17 -25 -5 -49 -6 -53 -2 -20 20 -27 101 -28
331 -1 258 3 294 48 415 14 39 26 75 26 82 1 21 123 179 158 205 45 32 87 49
94 38 5 -8 -27 -139 -60 -244 -16 -53 -21 -181 -6 -190 10 -6 21 41 21 90 0
47 56 259 87 332 8 19 25 71 38 117 42 155 128 272 215 295 98 26 267 -17 364
-94 68 -54 112 -104 201 -233 62 -89 85 -92 85 -11 0 60 51 76 113 36 50 -34
97 -103 127 -187 41 -117 51 -164 40 -202 -6 -18 -6 -37 -1 -42 4 -4 48 -12
97 -17 81 -7 156 -29 224 -65 14 -7 86 -39 160 -71 74 -32 142 -63 150 -70 8
-6 53 -35 100 -64 47 -29 103 -68 125 -86 22 -19 67 -57 100 -85 74 -63 269
-244 348 -324 52 -52 204 -238 232 -284 6 -8 33 -44 61 -79 29 -35 60 -80 70
-100 10 -20 26 -46 36 -57 9 -11 32 -51 52 -88 19 -37 49 -86 66 -107 31 -39
90 -152 105 -200 4 -14 24 -61 45 -105 52 -112 125 -333 114 -344 -3 -3 -38
11 -77 31 -154 79 -187 90 -283 96 -100 5 -182 -9 -224 -39 -17 -11 -32 -38
-44 -74 -19 -60 -16 -104 10 -179 14 -38 14 -38 -9 -33 -23 6 -140 47 -337
117 -164 59 -214 71 -299 73 -97 2 -128 -15 -165 -90 -31 -63 -32 -104 -7
-198 10 -39 22 -90 25 -114 7 -48 45 -143 102 -256 19 -38 37 -87 41 -107 5
-36 5 -37 -35 -48 -52 -14 -97 -51 -124 -104 -17 -33 -22 -64 -26 -166 -4
-131 2 -183 37 -315 63 -233 125 -316 307 -407 57 -28 104 -55 104 -59 0 -10
-106 -37 -196 -49 -270 -36 -559 9 -809 125 -49 22 -113 50 -142 60 -50 18
-100 65 -89 84 3 5 18 11 33 14 16 3 49 11 74 17 33 8 67 8 125 0 114 -16 417
-31 427 -21 5 5 -12 26 -37 48 -25 22 -46 47 -46 55 0 21 44 38 100 38 49 0
73 13 44 24 -51 19 -186 -14 -192 -48 -2 -10 5 -31 16 -46 12 -15 19 -30 16
-33 -7 -7 -174 2 -311 18 -100 11 -131 11 -170 1 -69 -18 -123 -46 -123 -63 0
-18 -10 -15 -175 55 -135 57 -146 62 -234 121 -34 23 -48 37 -38 39 9 2 25 -2
37 -8 45 -24 169 -30 390 -19 102 6 132 12 260 54 80 26 150 51 155 55 6 4 35
15 65 25 30 10 70 26 88 37 29 18 32 24 27 50 -6 24 2 42 41 101 26 40 58 88
71 108 12 19 23 42 23 51 0 8 9 36 20 61 31 69 38 241 15 338 -10 41 -22 82
-27 91 -4 10 -11 44 -14 77 -12 138 -134 451 -242 622 -23 36 -42 70 -42 74 0
5 -6 16 -14 24 -8 9 -22 30 -30 46 -9 17 -43 64 -77 105 -84 101 -202 180
-272 180 -12 0 -75 56 -163 144 -170 171 -209 204 -289 244 -115 58 -199 73
-280 51 -42 -11 -133 -98 -181 -172 -29 -45 -70 -156 -78 -212 -3 -22 -10 -73
-16 -112 l-12 -73 -62 -30 c-100 -47 -101 -50 -100 -204 0 -137 9 -184 51
-276 13 -30 31 -68 38 -85 8 -16 16 -40 20 -52 3 -13 10 -23 14 -23 10 0 51
-92 51 -114 0 -11 -15 -17 -50 -22 -28 -4 -62 -15 -75 -26 -21 -16 -25 -28
-25 -74 0 -31 7 -69 16 -86 38 -73 124 -179 221 -273 95 -93 119 -125 93 -125
-19 0 -88 -70 -94 -96 -6 -23 11 -71 55 -156 30 -57 -57 9 -201 152 -14 14
-45 49 -70 79 -25 30 -53 62 -62 73 -10 10 -18 22 -18 27 0 4 -29 49 -64 99
-68 96 -80 115 -121 202 -71 147 -94 212 -124 355 -12 55 -30 132 -39 170 -13
54 -17 115 -17 263 0 121 -3 191 -10 189 -17 -6 -23 -49 -24 -173 -1 -72 5
-154 14 -200 55 -287 81 -394 112 -469 47 -115 126 -270 154 -306 16 -20 29
-41 29 -45 0 -5 17 -32 38 -59 20 -28 52 -73 71 -100 19 -28 58 -75 87 -106
51 -54 52 -56 46 -104 -4 -36 -12 -55 -29 -68 -39 -31 -72 -99 -79 -163 -6
-59 7 -225 25 -306 5 -24 14 -68 20 -99 5 -31 23 -79 40 -106 17 -28 31 -55
31 -61 0 -6 -26 -14 -57 -17 -160 -18 -265 -113 -205 -184 23 -27 150 -61 230
-61 34 0 117 -7 185 -14 67 -8 183 -20 257 -26 191 -16 303 -34 395 -65 153
-52 338 -48 454 10 69 35 75 50 47 111 -22 48 -45 68 -136 122 -37 21 -199 67
-207 58 -3 -3 -13 -1 -23 4 -9 5 -43 11 -76 14 -72 7 -181 21 -374 48 -80 11
-163 22 -185 25 -22 2 -43 10 -47 16 -21 32 2 217 26 217 7 0 37 -8 67 -19 73
-25 201 -39 474 -52 162 -7 234 -15 245 -24 8 -7 36 -20 62 -29 45 -15 195
-82 248 -110 102 -55 374 -106 565 -106 75 0 251 23 317 41 123 33 138 32 325
-21 97 -28 192 -50 212 -50 43 0 175 -16 291 -35 47 -8 147 -19 222 -25 75 -5
144 -13 152 -16 8 -3 40 0 71 6 l57 12 66 -70 c75 -78 142 -110 209 -99 37 6
72 -6 86 -29 4 -8 13 -14 18 -14 6 0 25 -11 42 -24 89 -68 186 -82 275 -41 70
32 82 32 151 -9 32 -18 74 -40 94 -47 34 -12 38 -11 63 12 14 13 35 41 45 61
21 40 25 41 93 5 27 -15 56 -13 56 2 0 4 9 17 20 29 l21 22 42 -21 c72 -37 97
-59 97 -84 0 -28 3 -26 -139 -50 -77 -12 -108 -23 -170 -59 -178 -102 -231
-149 -208 -180 11 -15 17 -15 82 4 39 10 106 33 150 50 67 25 94 30 168 30 86
0 100 -6 73 -32 -19 -19 -29 -54 -21 -77 4 -12 19 -21 47 -25 23 -4 45 -9 50
-12 5 -3 -13 -33 -40 -67 -76 -96 -84 -119 -60 -172 14 -31 30 -32 63 -3 43
37 138 98 162 104 17 5 31 0 47 -15 12 -11 26 -21 30 -21 5 0 35 -16 68 -36
47 -29 71 -37 113 -38 57 -2 89 -21 101 -60 10 -32 23 -35 74 -20 47 14 64 13
294 -8 24 -2 31 -9 38 -35 11 -44 51 -73 102 -73 22 0 59 -5 81 -10 60 -14
451 -14 507 0 49 13 64 32 52 65 -7 16 -3 17 27 11 76 -17 109 -18 123 -7 16
13 43 4 78 -26 10 -9 25 -13 33 -9 15 5 14 9 -4 32 -31 39 -26 51 27 68 26 9
52 24 58 34 5 9 10 45 10 79 -1 35 1 63 4 63 14 0 236 -75 313 -106 49 -20 91
-33 94 -30 19 19 -123 216 -205 284 -54 46 -146 102 -182 112 -62 16 11 49
112 49 37 1 77 -3 91 -8 13 -5 30 -5 37 -1 11 7 5 17 -25 44 -21 20 -43 36
-49 36 -5 0 -30 13 -55 29 -25 16 -77 42 -114 56 -74 30 -108 30 -220 2 l-58
-15 -78 39 -78 39 -6 47 c-5 43 -11 54 -74 113 -91 85 -164 115 -333 137 -117
16 -129 16 -177 0 -28 -9 -59 -17 -68 -17 -22 0 -102 -56 -141 -97 l-31 -34
-84 11 c-132 16 -258 13 -320 -9 -30 -10 -76 -21 -104 -25 -27 -4 -69 -14 -91
-22 -37 -14 -45 -14 -70 -1 -41 20 -153 39 -210 35 -47 -3 -48 -3 -56 32 -5
19 -22 63 -39 98 -30 60 -31 64 -20 125 6 35 11 82 11 104 0 33 8 50 39 88 22
26 41 61 44 78 4 33 -18 120 -40 154 -8 12 -12 31 -8 42 7 23 -12 99 -32 122
-7 8 -13 20 -13 26 0 6 -13 27 -30 48 -20 25 -30 49 -30 72 0 61 -23 90 -81
102 -28 6 -55 8 -61 5 -14 -9 -28 15 -28 48 0 15 -5 39 -12 53 -14 32 -66 34
-114 5 l-33 -21 -25 28 c-14 15 -26 30 -26 34 0 9 -48 29 -69 29 -23 0 -46
-27 -55 -62 -6 -27 -9 -28 -70 -28 -58 0 -67 3 -85 26 -12 15 -21 31 -21 35 0
12 -102 169 -154 238 -62 81 -78 103 -120 167 -21 33 -51 74 -67 91 -16 18
-45 58 -64 89 -20 31 -64 89 -98 128 -122 142 -119 137 -171 301 -43 138 -90
265 -114 313 -10 20 -45 89 -76 152 -62 123 -76 148 -143 252 -24 37 -43 70
-43 73 0 4 -14 26 -30 50 -16 24 -30 47 -30 50 0 6 -81 113 -140 185 -11 14
-56 70 -99 125 -77 96 -113 133 -291 295 -45 41 -110 101 -143 133 -34 31 -65
57 -69 57 -4 0 -29 19 -56 43 -79 70 -238 170 -328 205 -27 11 -78 34 -113 51
-36 17 -72 31 -82 31 -10 0 -20 4 -23 9 -11 17 -141 63 -211 75 -79 13 -71 1
-110 166 -10 41 -21 80 -25 85 -4 6 -11 21 -15 35 -19 66 -123 168 -186 183
-30 8 -74 -20 -84 -53 -4 -11 -10 -20 -13 -20 -4 0 -32 32 -62 72 -84 110
-190 208 -262 243 -21 9 -38 21 -38 25 0 12 -191 32 -225 24z m239 -1916 c44
-21 100 -55 125 -76 64 -52 291 -279 291 -291 0 -5 -26 -24 -57 -42 -74 -42
-84 -56 -127 -159 -48 -119 -53 -155 -45 -321 9 -164 37 -295 89 -419 49 -116
49 -114 9 -104 -53 14 -125 9 -154 -10 -32 -21 -63 -70 -71 -115 -8 -41 19
-128 77 -247 44 -91 45 -94 23 -94 -36 0 -115 -44 -130 -71 -37 -72 -23 -185
31 -261 13 -18 37 -56 54 -84 16 -28 36 -57 44 -65 16 -17 37 -54 37 -67 0
-14 -90 -2 -135 18 -22 10 -55 23 -73 28 -39 13 -237 150 -272 189 -68 75
-110 148 -110 193 0 37 35 74 86 90 19 6 34 18 34 25 0 7 -30 42 -67 77 -236
224 -303 314 -303 413 0 45 27 59 120 60 54 0 65 4 68 18 2 10 -1 23 -6 30
-22 27 -111 198 -145 277 -64 151 -85 335 -47 398 21 34 87 71 127 72 12 0 25
4 28 10 3 5 10 58 15 117 14 168 66 289 170 392 36 36 61 52 88 56 20 4 42 8
47 9 32 9 110 -11 179 -46z m478 -425 c14 -13 21 -14 30 -5 20 20 43 14 99
-24 91 -61 150 -127 253 -286 99 -151 117 -185 172 -318 50 -123 65 -164 94
-255 30 -95 22 -155 -21 -155 -11 0 -19 -4 -19 -10 0 -5 12 -10 28 -10 40 0
46 -8 66 -87 15 -58 18 -98 14 -195 -4 -109 -8 -131 -34 -193 -17 -38 -58
-111 -91 -160 -34 -50 -63 -103 -65 -119 -3 -24 -12 -31 -73 -55 -38 -15 -86
-34 -105 -43 -19 -9 -93 -35 -165 -57 -117 -37 -140 -41 -230 -41 -108 1 -156
13 -202 51 -73 60 -174 218 -189 294 -3 19 -3 55 0 78 10 63 50 91 134 94 35
1 66 4 69 6 2 3 -12 27 -33 54 -46 60 -87 145 -109 228 -17 62 -17 66 1 117
17 47 24 54 65 71 l45 19 65 -27 c91 -38 99 -40 99 -23 0 8 -20 55 -44 104
-63 126 -93 222 -111 358 -28 220 -18 317 49 459 28 59 43 78 82 102 43 27 74
41 98 44 5 1 18 -7 28 -16z m1988 -490 c20 -5 76 -30 125 -54 78 -38 103 -57
188 -144 158 -162 180 -187 216 -245 19 -30 56 -82 82 -116 26 -33 54 -74 62
-90 8 -16 31 -45 51 -63 20 -19 36 -39 36 -43 0 -5 33 -57 74 -117 41 -60 90
-140 111 -179 l37 -70 -21 -21 c-24 -24 -26 -42 -9 -59 8 -8 3 -21 -23 -50
-19 -21 -38 -46 -44 -55 -6 -11 -51 -28 -122 -46 -137 -34 -185 -64 -292 -177
-105 -112 -136 -174 -135 -269 1 -43 7 -82 17 -101 22 -42 82 -101 127 -124
29 -15 39 -27 43 -52 8 -57 -2 -61 -143 -54 -69 3 -183 13 -255 22 -71 8 -191
22 -265 31 -126 15 -384 75 -475 110 -22 8 -90 38 -152 65 -186 84 -262 166
-318 343 -47 148 -54 192 -55 331 0 107 11 179 29 194 4 3 14 17 24 33 10 15
22 27 28 27 6 0 17 7 25 15 9 9 34 15 59 15 24 0 46 4 49 9 7 11 -11 56 -69
176 -58 121 -79 176 -100 265 -10 41 -24 98 -31 127 -19 69 -17 110 6 160 29
66 69 85 160 80 60 -3 119 -19 300 -80 249 -85 312 -107 353 -127 40 -20 56
-1 30 37 -21 29 -40 80 -49 128 -5 29 21 122 40 142 33 35 200 50 286 26z
m1286 -1107 c8 -25 45 -76 55 -76 4 0 12 15 18 33 7 19 23 40 37 47 39 21 58
3 64 -61 l5 -54 63 -5 c76 -6 95 -24 86 -80 -5 -31 -2 -40 17 -56 47 -38 79
-108 86 -186 l6 -57 -30 3 c-71 9 -133 -74 -136 -183 -2 -50 2 -63 22 -85 13
-14 42 -29 65 -34 l41 -8 0 -53 c0 -74 -18 -85 -83 -50 -26 15 -61 30 -79 33
-45 10 -111 -11 -146 -46 -24 -24 -44 -32 -93 -39 -34 -5 -74 -14 -88 -20 -22
-10 -47 -52 -52 -86 -4 -27 103 -163 128 -163 4 0 8 -9 8 -19 0 -25 -62 -61
-105 -61 -38 0 -165 37 -165 49 0 4 -17 17 -37 29 -21 12 -51 33 -67 47 -34
29 -39 30 -60 10 -8 -8 -23 -15 -33 -15 -21 0 -78 20 -111 38 -30 17 -124 146
-147 202 -25 60 -31 67 -64 73 -36 7 -87 50 -108 91 -27 50 -21 145 12 211 31
61 221 265 247 265 8 0 33 8 54 17 54 23 62 25 123 27 47 2 57 7 77 32 65 83
89 104 122 104 29 0 33 3 30 23 -2 14 -11 23 -25 25 -27 4 -30 27 -5 37 22 9
95 9 160 0 61 -8 75 6 38 40 -30 28 -34 52 -8 57 22 5 70 -29 78 -56z m-4133
-188 c72 -61 157 -127 187 -147 30 -20 62 -42 70 -50 20 -20 147 -101 156
-101 4 0 40 -19 78 -42 39 -24 98 -54 130 -68 33 -14 61 -29 63 -35 4 -14
-302 -2 -387 15 -118 23 -170 40 -183 60 -7 12 -23 20 -38 20 -29 0 -99 43
-152 95 -36 35 -42 49 -37 88 1 11 -7 21 -19 24 -21 5 -51 80 -51 126 0 30 32
127 42 127 5 0 68 -50 141 -112z m-208 -81 c4 -23 14 -58 23 -77 15 -35 17
-46 22 -190 2 -41 11 -109 21 -150 9 -41 20 -97 24 -125 4 -27 11 -58 16 -67
15 -28 -5 -21 -33 10 -39 45 -75 112 -87 167 -43 193 -55 399 -26 456 20 37
31 31 40 -24z m127 -229 c38 -35 41 -46 55 -213 10 -124 10 -120 -12 -117 -34
6 -47 27 -66 108 -28 120 -37 254 -16 254 2 0 19 -15 39 -32z m4649 -39 c27
-9 39 -19 44 -37 7 -28 -4 -39 -51 -48 -26 -5 -36 -15 -60 -66 l-28 -60 -19
23 c-30 37 -10 142 36 180 26 22 29 22 78 8z m-4426 -364 c66 -2 134 -5 150
-8 17 -2 64 -9 105 -15 41 -7 147 -21 235 -32 156 -20 240 -36 260 -50 6 -4
25 -10 43 -13 19 -4 58 -21 88 -39 45 -27 56 -40 65 -72 6 -21 8 -43 6 -50 -3
-6 -41 -24 -85 -40 -73 -25 -90 -27 -179 -23 -111 5 -130 8 -194 31 -67 23
-230 54 -355 66 -148 14 -281 27 -459 45 -174 17 -232 31 -246 57 -13 24 -8
31 46 68 33 23 62 33 117 40 108 14 122 12 152 -15 20 -19 35 -24 59 -21 18 3
38 5 45 5 18 1 14 31 -5 38 -21 8 -43 35 -37 45 2 3 19 2 37 -4 17 -5 86 -11
152 -13z m4293 -44 c58 -37 109 -97 136 -158 19 -43 27 -145 13 -159 -13 -14
-69 24 -151 102 -83 80 -113 98 -133 82 -10 -8 -9 -17 4 -39 10 -16 20 -29 24
-29 4 0 11 -15 14 -32 4 -18 11 -37 15 -43 17 -21 21 -80 8 -98 -13 -17 -16
-17 -51 -2 -21 9 -53 29 -70 45 -18 16 -46 39 -64 52 -81 58 -110 83 -136 116
-31 40 -29 65 9 99 20 18 35 22 85 20 57 -1 63 1 90 31 16 18 39 37 52 42 39
17 102 5 155 -29z m1625 -113 c112 -24 228 -99 276 -178 27 -45 27 -68 -1 -74
-47 -10 -166 -27 -258 -36 -52 -5 -119 -19 -148 -30 -71 -27 -78 -26 -106 18
-39 61 -121 133 -180 157 -43 18 -45 37 -8 71 40 36 79 55 157 75 74 20 170
18 268 -3z m-596 -127 c142 -15 284 -97 334 -193 28 -54 24 -74 -24 -121 -70
-71 -264 -125 -456 -128 -40 -1 -152 25 -188 44 -18 9 -41 17 -51 17 -30 0
-153 65 -194 102 -51 46 -58 100 -20 144 35 40 109 77 198 98 40 10 88 23 108
30 45 15 184 19 293 7z m1003 -203 c86 -43 115 -64 144 -107 40 -61 27 -118
-43 -184 -85 -81 -209 -121 -341 -112 -94 7 -154 16 -165 25 -5 4 -39 13 -75
19 -82 16 -143 45 -175 83 -29 34 -31 48 -10 87 8 16 12 31 9 34 -7 7 27 58
66 99 36 40 128 69 249 79 57 4 106 11 110 15 3 3 42 3 86 0 61 -5 95 -14 145
-38z m375 -18 c49 -23 149 -90 143 -95 -2 -2 -40 -8 -86 -14 -92 -12 -172 -42
-172 -64 0 -10 19 -18 59 -25 33 -6 79 -21 103 -33 65 -33 162 -115 186 -158
12 -20 35 -54 52 -75 34 -44 42 -83 13 -66 -10 6 -72 28 -138 50 -66 22 -166
55 -223 75 -57 19 -114 35 -128 35 -40 0 -93 -27 -106 -55 -10 -22 -6 -35 30
-105 41 -79 51 -110 33 -110 -20 0 -96 32 -202 85 -63 32 -136 66 -164 76 -27
11 -60 25 -73 31 -17 9 -28 9 -40 1 -17 -11 -17 -18 -6 -80 4 -20 3 -33 -4
-33 -5 0 -38 29 -73 65 -34 35 -76 69 -93 74 -17 6 -73 10 -125 9 -84 0 -107
-5 -205 -39 -113 -41 -135 -52 -172 -87 -27 -26 -77 -33 -82 -12 -4 22 78 148
127 195 22 22 41 45 41 50 0 6 -19 18 -41 27 -48 20 -43 38 11 38 21 0 51 5
67 11 15 6 55 22 88 34 33 12 69 26 79 30 17 7 18 5 12 -18 -8 -32 10 -71 51
-108 47 -44 114 -71 218 -88 33 -5 73 -14 90 -21 16 -6 50 -10 75 -9 25 1 55
-1 67 -5 22 -7 109 4 181 23 52 15 155 92 199 150 30 40 33 52 30 94 -3 35
-13 58 -36 88 -18 22 -30 46 -28 53 15 40 163 43 242 6z m-2043 -22 c54 -51
124 -101 172 -125 31 -15 55 -31 53 -36 -1 -5 -26 -17 -55 -26 -29 -10 -60
-25 -70 -34 -13 -12 -31 -14 -80 -10 -34 3 -65 10 -68 15 -4 5 8 24 25 42 41
42 40 60 -6 74 -50 15 -202 -7 -298 -42 -38 -14 -80 -26 -92 -26 -12 0 -25 -4
-28 -10 -9 -14 -25 -12 -25 3 0 22 98 89 210 143 35 17 82 29 130 34 114 11
118 11 132 -2z m384 -202 c27 -8 61 -17 77 -20 59 -14 24 -46 -73 -66 -57 -12
-207 -58 -226 -69 -28 -16 -113 -73 -150 -100 -52 -40 -64 -39 -64 3 0 28 12
48 71 112 80 89 126 120 202 139 70 17 104 18 163 1z m231 -63 c37 -12 53 -22
53 -34 0 -10 -4 -19 -9 -21 -5 -1 -23 -30 -40 -63 -70 -132 -100 -156 -140
-116 -16 16 -25 18 -61 10 -38 -9 -48 -6 -104 25 -34 19 -70 44 -81 56 -16 18
-17 22 -4 34 22 20 98 45 161 52 41 5 71 16 105 40 26 18 52 33 57 33 5 1 33
-7 63 -16z m1308 -125 c14 -6 25 -18 25 -26 0 -9 7 -24 16 -34 14 -14 15 -26
8 -60 -9 -40 -12 -42 -59 -55 -50 -13 -95 -4 -95 19 0 5 -11 24 -24 41 -42 55
-43 80 -4 111 27 22 40 26 70 21 21 -3 49 -10 63 -17z m-765 -45 c29 -14 159
-139 208 -201 19 -23 40 -42 48 -42 18 0 18 0 -12 54 -36 65 -57 136 -44 151
15 18 86 -6 229 -78 98 -49 112 -67 53 -67 -45 0 -57 -16 -34 -42 46 -54 -34
-65 -355 -50 -286 13 -298 16 -299 82 l0 45 -136 10 c-75 6 -139 13 -142 16
-22 22 56 69 189 114 69 23 252 28 295 8z"/>
<path d="M5983 2567 c-46 -13 -95 -55 -99 -84 -1 -10 -12 -44 -24 -75 -27 -69
-22 -113 18 -156 24 -26 33 -29 60 -24 42 9 118 74 143 123 11 22 24 62 29 91
9 44 7 55 -11 84 -20 33 -48 55 -66 53 -4 -1 -27 -6 -50 -12z m74 -39 c40 -37
20 -108 -27 -95 -51 13 -100 -43 -100 -116 0 -20 -5 -39 -11 -42 -13 -9 -36
21 -45 58 -9 43 50 154 101 189 49 33 53 34 82 6z"/>
</g>
</svg>
