<?xml version="1.0" standalone="no"?>
<!DOCTYPE svg PUBLIC "-//W3C//DTD SVG 20010904//EN"
 "http://www.w3.org/TR/2001/REC-SVG-20010904/DTD/svg10.dtd">
<svg version="1.0" xmlns="http://www.w3.org/2000/svg"
 width="696.000000pt" height="497.000000pt" viewBox="0 0 696.000000 497.000000"
 preserveAspectRatio="xMidYMid meet">
<metadata>
Created by potrace 1.16, written by Peter Selinger 2001-2019
</metadata>
<g transform="translate(0.000000,497.000000) scale(0.100000,-0.100000)"
fill="#000000" stroke="none">
<path d="M0 2485 l0 -2485 3480 0 3480 0 -2 2288 -3 2287 -2 -2283 -3 -2282
-3470 0 -3470 0 0 2475 0 2475 3303 3 3302 2 -3307 3 -3308 2 0 -2485z"/>
<path d="M410 4705 c-21 -25 -6 -49 57 -91 34 -22 75 -53 91 -70 17 -16 46
-45 66 -64 20 -19 36 -38 36 -41 0 -3 11 -19 26 -35 34 -39 83 -137 99 -199
13 -49 34 -194 54 -370 7 -58 7 -93 1 -99 -6 -6 -10 -22 -10 -37 0 -15 -4 -31
-10 -34 -16 -10 -12 -87 6 -106 17 -19 11 -39 -12 -39 -21 0 -17 -16 9 -37 39
-32 71 -85 61 -100 -5 -8 -49 -33 -99 -56 -106 -49 -181 -112 -290 -242 -77
-92 -120 -199 -132 -330 -3 -36 -10 -65 -14 -65 -13 0 -11 -268 1 -272 14 -5
18 -520 4 -539 -6 -8 -14 -27 -18 -44 -4 -16 -21 -58 -38 -92 -25 -49 -38 -64
-60 -68 -29 -7 -39 -25 -13 -25 19 0 19 -4 -4 -32 -11 -12 -33 -39 -49 -58
l-29 -35 7 -195 c11 -283 52 -573 85 -607 27 -27 81 -98 95 -125 7 -16 19 -28
25 -28 11 0 18 -17 47 -117 8 -27 21 -38 81 -67 70 -33 217 -63 241 -49 5 3
44 7 87 8 69 2 135 17 149 35 3 3 31 17 62 29 68 27 125 85 132 133 14 92 14
116 0 185 -29 137 -60 185 -132 199 -18 4 -35 10 -38 15 -2 5 -27 11 -54 15
-33 4 -51 12 -54 23 -34 117 -41 166 -41 276 0 163 17 206 127 326 l82 90 19
-23 c10 -13 26 -41 36 -63 10 -22 28 -60 40 -85 11 -24 21 -48 21 -53 0 -4 11
-33 25 -63 14 -30 25 -59 25 -64 0 -21 73 -161 95 -182 14 -13 25 -27 25 -31
0 -24 183 -150 241 -166 24 -7 85 -20 134 -28 50 -8 94 -18 98 -23 9 -8 -12
-171 -22 -180 -12 -10 -32 -80 -26 -90 3 -5 17 -10 31 -10 14 0 27 -7 31 -17
4 -10 13 -24 21 -32 11 -12 15 -12 22 -1 9 14 60 6 60 -10 0 -6 16 -10 35 -10
34 0 115 -26 125 -41 14 -19 175 -31 480 -35 413 -5 470 -8 495 -22 11 -6 32
-13 48 -17 15 -3 44 -20 65 -38 38 -33 66 -52 92 -64 8 -3 27 -15 42 -25 14
-10 33 -18 41 -18 9 0 22 -6 29 -14 39 -38 221 -48 283 -15 22 11 59 22 82 25
53 5 150 41 160 58 5 7 22 20 38 29 17 8 51 37 76 65 25 27 52 51 60 54 11 4
14 26 14 94 0 92 -15 163 -40 188 -8 8 -25 34 -38 58 -30 57 -52 78 -108 105
-56 28 -101 29 -199 3 -88 -23 -280 -26 -345 -6 l-40 13 43 13 c23 7 47 19 53
27 6 7 17 13 24 13 21 0 84 69 93 103 l8 32 130 6 c71 4 165 14 209 24 58 13
99 16 153 11 76 -7 221 -45 282 -73 19 -9 67 -26 105 -38 74 -23 122 -19 156
11 8 8 21 14 27 14 6 0 15 6 19 13 4 7 25 23 45 36 45 27 113 106 133 155 23
55 19 89 -15 122 -40 38 -62 89 -61 143 0 55 12 68 67 77 38 5 45 10 56 41 15
41 37 53 188 103 58 19 107 38 110 42 3 3 48 19 100 34 73 22 115 28 181 28
95 -1 91 1 192 -98 33 -32 75 -65 93 -72 18 -8 35 -18 39 -23 8 -15 161 -59
240 -70 53 -8 77 -7 109 4 23 8 63 15 89 15 52 0 142 33 151 55 3 8 23 23 44
34 60 31 100 68 107 101 4 17 11 30 16 30 5 0 9 6 9 13 0 6 14 39 30 72 60
122 28 246 -85 323 -60 42 -61 42 -152 42 -51 0 -94 -4 -97 -9 -3 -4 -46 -11
-95 -15 -79 -6 -96 -4 -135 14 -25 11 -51 20 -58 20 -8 0 -18 4 -23 8 -6 5
-26 15 -45 22 -41 15 -143 63 -150 70 -13 14 -108 30 -174 30 -96 0 -279 -19
-286 -29 -3 -5 -39 -14 -80 -21 -41 -6 -151 -25 -245 -41 -93 -16 -182 -31
-196 -34 -18 -3 -33 2 -45 16 -26 28 -61 45 -111 54 -51 8 -97 47 -112 95 -6
19 -18 60 -27 90 -9 30 -20 57 -24 60 -9 6 -90 244 -90 264 0 7 -13 28 -28 44
-27 29 -31 30 -68 21 -21 -6 -49 -13 -60 -16 -40 -9 -62 13 -84 86 -11 37 -20
89 -20 114 0 26 -5 48 -12 51 -10 5 -10 7 -1 12 10 4 10 10 0 25 -9 15 -9 21
-1 27 7 4 17 38 23 77 7 45 17 74 28 82 12 10 77 13 237 13 283 1 435 23 463
69 16 25 -2 58 -41 76 -20 10 -36 21 -36 25 0 17 -141 75 -285 116 -139 40
-260 41 -337 2 -29 -14 -66 -32 -83 -38 -16 -7 -38 -16 -47 -21 -10 -5 -25 -9
-33 -9 -8 0 -15 -5 -15 -10 0 -7 27 -9 78 -6 54 4 67 3 42 -3 -19 -5 -109 -12
-200 -15 -91 -4 -166 -11 -168 -16 -2 -6 -16 -10 -30 -10 -46 0 -106 -21 -127
-43 -32 -35 -98 -151 -165 -292 -127 -267 -116 -250 -185 -284 -35 -17 -67
-31 -71 -31 -5 0 -26 -13 -45 -29 -20 -17 -40 -26 -45 -22 -12 12 -147 57
-212 71 -75 17 -239 18 -284 2 -21 -7 -48 -28 -60 -45 -21 -30 -23 -43 -24
-182 -1 -232 -18 -293 -68 -246 -13 12 -29 34 -37 49 -8 15 -29 43 -46 62 -18
19 -33 38 -33 42 0 4 -16 32 -35 62 -19 30 -35 59 -35 64 0 5 -9 17 -19 27
-11 9 -30 41 -42 71 -13 30 -26 54 -31 54 -4 0 -8 7 -8 15 0 41 -213 311 -291
370 -61 46 -116 75 -184 97 -96 32 -127 37 -228 39 -42 1 -83 7 -91 13 -7 6
-28 56 -46 111 -17 55 -35 104 -39 110 -5 5 -11 30 -15 55 -14 100 -63 386
-69 405 -2 6 -7 24 -11 40 -4 17 -19 51 -32 76 -13 26 -24 54 -24 63 0 9 -4
16 -10 16 -5 0 -10 6 -10 13 0 16 -72 111 -134 177 -48 51 -158 130 -181 130
-6 0 -20 8 -31 18 -48 45 -225 71 -254 37z m130 -24 c0 -5 17 -15 38 -22 62
-20 183 -88 204 -114 10 -13 31 -30 45 -37 15 -7 44 -38 65 -68 21 -30 44 -59
51 -65 37 -28 117 -235 117 -302 0 -13 4 -23 8 -23 9 0 22 -78 43 -254 5 -50
12 -93 15 -97 2 -5 13 -43 24 -85 11 -43 24 -80 28 -83 14 -9 32 -70 26 -86
-4 -11 -22 -15 -60 -15 -29 0 -88 -8 -130 -17 l-77 -17 -19 24 c-15 18 -16 25
-6 32 10 6 7 19 -14 58 -16 27 -24 50 -19 50 6 0 13 -5 16 -10 4 -6 10 -8 15
-5 5 3 -1 22 -12 41 l-21 36 21 -6 c26 -9 26 -13 7 66 -16 72 -21 104 -30 203
-10 111 -45 336 -56 354 -5 9 -22 45 -39 81 -37 81 -59 119 -85 146 -11 11
-36 38 -55 59 -20 22 -70 63 -113 90 -42 28 -76 56 -77 63 0 8 15 12 45 12 25
0 45 -4 45 -9z m3480 -1273 c0 -7 -5 -33 -11 -58 -16 -69 -13 -234 7 -317 9
-40 15 -75 13 -78 -5 -5 -206 42 -222 52 -6 4 -20 8 -31 9 -104 13 -166 23
-175 28 -27 17 -5 248 26 272 43 32 127 64 209 78 168 29 184 30 184 14z
m-2510 -27 c127 -33 203 -77 292 -168 136 -139 181 -204 295 -428 15 -27 39
-66 55 -86 15 -20 28 -40 28 -44 0 -8 58 -92 79 -115 32 -34 86 -103 95 -121
8 -17 -8 -78 -43 -164 -28 -67 -64 -186 -68 -223 -9 -81 30 -140 113 -172 56
-20 90 -38 109 -55 16 -14 28 -95 15 -95 -10 0 -106 82 -122 105 -4 6 -8 0 -8
-12 0 -23 134 -163 156 -163 19 0 142 -123 153 -153 22 -57 4 -355 -24 -404
-1 -1 -34 -9 -74 -18 -92 -19 -180 -65 -220 -115 -30 -38 -39 -60 -23 -60 4 0
27 19 52 43 64 59 89 73 161 93 98 25 296 15 409 -22 47 -15 87 -30 90 -33 11
-13 206 -68 270 -76 192 -25 226 -26 330 -9 132 21 204 28 235 20 60 -15 146
-128 161 -211 4 -22 11 -43 16 -46 5 -3 12 -31 15 -62 5 -53 4 -57 -15 -57
-16 0 -22 9 -27 43 -13 81 -65 178 -129 241 -56 55 -64 59 -113 63 -41 3 -65
-2 -106 -22 -30 -14 -61 -25 -70 -25 -10 0 -17 -4 -17 -10 0 -13 9 -12 110 9
57 12 95 15 115 10 34 -10 99 -73 109 -107 4 -12 11 -22 15 -22 17 0 71 -165
71 -218 0 -27 -37 -72 -60 -72 -14 0 -19 11 -25 58 -12 94 -51 202 -92 254
-30 37 -50 51 -92 65 l-53 17 -86 -29 c-47 -17 -87 -36 -90 -43 -6 -18 29 -15
77 9 63 30 132 36 170 13 17 -10 31 -21 31 -25 0 -3 14 -23 30 -44 50 -63 90
-223 76 -300 -6 -31 -14 -40 -52 -56 -25 -11 -59 -19 -77 -17 -32 3 -32 3 -39
71 -5 52 -17 88 -50 153 -24 47 -55 97 -70 111 -38 36 -104 41 -185 14 -34
-12 -69 -21 -78 -21 -8 0 -15 -7 -15 -15 0 -19 32 -33 38 -17 2 7 11 12 21 12
9 0 25 6 36 14 11 7 39 17 62 21 62 10 99 -16 146 -104 34 -62 39 -82 44 -160
6 -86 5 -89 -18 -102 -16 -10 -56 -14 -124 -13 -93 2 -105 4 -170 37 -38 19
-83 47 -98 61 -15 14 -35 26 -43 26 -7 0 -14 4 -14 9 0 10 -103 57 -147 66
-18 4 -35 11 -38 16 -8 13 -355 12 -355 -1 0 -6 -27 -10 -60 -10 -33 0 -60 4
-60 10 0 6 -33 10 -77 10 -116 0 -335 27 -416 51 -41 12 -81 31 -93 44 -12 12
-31 26 -43 30 -12 4 -27 18 -33 31 -16 34 -31 30 -23 -6 4 -17 2 -30 -3 -30
-15 0 -24 130 -12 188 17 92 23 439 8 506 -7 33 -18 61 -24 63 -7 2 -9 -58 -6
-204 5 -260 10 -250 -108 -232 -47 7 -92 18 -100 25 -8 7 -28 16 -45 20 -43
10 -143 79 -192 132 -24 26 -43 49 -43 53 0 4 -6 14 -14 21 -20 20 -50 84 -71
148 -10 30 -21 59 -26 64 -5 6 -9 20 -9 32 0 12 -8 32 -18 45 -25 32 -112 213
-112 231 0 9 7 21 16 29 8 7 26 34 39 59 13 26 35 60 49 77 57 68 101 268 112
511 5 114 4 162 -4 162 -19 0 -22 -16 -37 -196 -17 -206 -36 -304 -78 -394
-31 -66 -96 -172 -109 -178 -4 -2 -31 -36 -60 -75 -28 -40 -57 -76 -64 -82
-14 -11 -59 -68 -84 -106 -8 -12 -23 -31 -33 -41 -32 -34 -50 -133 -43 -238 7
-107 25 -220 36 -235 4 -5 11 -25 15 -44 l7 -34 -33 8 c-19 4 -45 7 -58 6 -27
-1 -121 -58 -121 -72 0 -5 -16 -9 -35 -9 -19 0 -35 -3 -35 -7 0 -12 -85 -63
-104 -63 -9 0 -16 -7 -16 -15 0 -25 48 -17 95 15 24 17 52 30 63 30 29 0 66
-34 87 -79 10 -23 21 -41 26 -41 20 0 43 -109 44 -203 0 -124 -3 -127 -112
-115 -139 15 -213 48 -213 98 0 18 -57 131 -74 145 -57 49 -103 146 -113 240
-3 28 -9 55 -13 60 -19 25 -50 327 -50 482 0 77 21 143 44 143 11 0 96 120 96
137 0 4 13 27 29 50 40 60 56 146 55 298 -1 72 -3 261 -4 420 -4 324 7 413 58
490 15 22 32 50 38 61 40 74 252 258 329 287 22 8 76 29 120 46 47 18 115 35
165 40 95 11 346 5 400 -8z m2223 -410 c51 -11 103 -21 117 -24 14 -3 71 -14
128 -26 57 -12 114 -21 127 -21 l24 0 -6 -115 c-4 -79 -2 -115 5 -115 15 0 35
38 27 50 -3 6 -2 10 3 10 5 0 14 18 21 40 11 37 42 70 67 70 30 0 54 -44 99
-180 27 -80 51 -147 55 -150 3 -3 19 -31 35 -63 16 -32 33 -61 38 -64 5 -3 35
-11 67 -19 85 -20 120 -42 135 -89 8 -21 13 -40 12 -40 -6 -2 -138 -38 -172
-46 -21 -6 -45 -15 -52 -21 -20 -16 -17 32 7 99 24 69 24 66 1 58 -15 -5 -22
3 -37 45 -10 28 -28 57 -41 65 -13 9 -23 24 -23 36 0 11 -6 22 -14 25 -21 8
-75 -24 -88 -51 -6 -14 -15 -25 -20 -25 -13 0 -9 17 7 34 17 16 20 36 6 36 -5
0 -14 -7 -21 -15 -12 -14 -15 -14 -31 1 -11 10 -19 23 -19 30 0 16 -57 80 -65
72 -7 -7 25 -77 47 -101 9 -11 30 -56 48 -100 44 -116 98 -220 131 -252 23
-24 43 -21 169 24 63 23 131 42 151 43 38 1 132 -44 183 -88 27 -24 28 -27 23
-107 -5 -89 -36 -240 -61 -299 -13 -31 -22 -37 -56 -43 -40 -7 -90 -51 -90
-79 0 -7 -10 -21 -21 -32 -12 -10 -31 -39 -43 -64 -36 -77 -63 -107 -114 -126
-26 -9 -51 -21 -57 -26 -12 -11 -161 -10 -183 1 -9 5 -53 18 -97 30 -107 30
-116 39 -87 94 26 50 39 107 24 107 -5 0 -15 -14 -21 -30 -15 -43 -68 -97
-122 -125 -48 -25 -76 -51 -65 -62 3 -3 14 1 23 9 10 8 32 20 50 27 28 11 37
10 83 -13 28 -14 61 -33 73 -41 12 -8 29 -15 39 -15 9 0 43 -16 75 -35 32 -19
63 -35 69 -35 6 0 21 -9 33 -19 45 -39 175 -53 229 -23 51 27 152 121 152 141
0 10 -19 38 -42 61 -34 33 -39 43 -27 51 8 5 10 9 6 9 -10 0 25 60 35 60 4 0
8 -7 8 -15 0 -25 35 -88 64 -114 31 -29 34 -73 6 -99 -10 -10 -26 -33 -34 -52
-17 -42 -44 -67 -111 -105 -27 -16 -55 -35 -61 -43 -13 -18 -96 -21 -116 -5
-17 13 -184 64 -301 92 -67 16 -247 13 -347 -5 -104 -18 -226 -11 -325 19 -38
12 -72 25 -75 28 -3 3 -21 14 -40 24 -19 9 -45 27 -57 38 -22 20 -23 20 -23 1
1 -29 50 -80 93 -95 20 -7 37 -18 37 -25 0 -6 -25 -20 -55 -32 l-56 -20 -54
41 c-45 35 -165 166 -165 181 0 2 -16 27 -35 56 -19 29 -35 58 -35 65 0 7 -7
18 -16 25 -19 17 -44 75 -44 106 0 19 5 24 24 24 28 0 53 24 36 35 -6 4 -26 4
-43 1 -40 -7 -132 7 -178 28 -75 34 -186 98 -226 131 -23 19 -45 35 -48 35 -3
0 -25 8 -48 19 -23 10 -63 28 -89 39 -50 22 -78 61 -78 109 0 50 38 186 79
285 69 164 81 223 81 387 0 233 15 254 185 254 84 0 215 -24 240 -43 6 -5 35
-18 65 -30 85 -33 158 -83 235 -158 75 -73 135 -144 135 -161 0 -5 8 -16 18
-23 23 -16 45 -55 38 -67 -3 -4 -26 -11 -51 -14 -25 -4 -64 -15 -88 -25 -23
-10 -62 -27 -87 -37 -58 -25 -144 -75 -148 -86 -2 -5 -10 -9 -18 -9 -8 0 -14
-4 -14 -9 0 -5 -9 -12 -19 -16 -11 -3 -34 -19 -53 -35 -18 -17 -41 -32 -50
-36 -10 -3 -18 -9 -18 -13 0 -5 -28 -28 -62 -52 -34 -23 -76 -55 -92 -70 -17
-14 -42 -30 -56 -34 -14 -4 -48 -18 -77 -31 -28 -13 -58 -24 -67 -24 -26 0
-46 -12 -46 -27 0 -13 9 -15 46 -9 26 3 53 11 60 16 9 8 19 4 38 -13 44 -41
174 -70 343 -77 6 0 26 -12 43 -26 23 -20 34 -24 42 -16 16 16 -4 36 -60 63
-26 13 -50 27 -53 32 -15 21 -10 175 7 218 23 59 35 71 118 120 39 23 73 46
76 50 19 27 233 109 286 109 13 0 24 5 24 10 0 6 7 10 15 10 22 0 18 24 -16
91 -32 64 -50 86 -167 205 -40 41 -70 79 -67 84 3 6 19 10 35 10 52 0 160 75
160 111 0 21 -12 30 -54 39 -37 8 -25 14 59 28 82 14 267 6 378 -17z m2021
-630 c46 -23 88 -41 93 -41 6 0 16 -6 22 -14 24 -28 136 -49 234 -42 276 19
275 19 313 1 20 -9 39 -26 41 -36 3 -10 9 -16 14 -13 5 3 9 0 9 -5 0 -6 -6
-11 -12 -11 -7 0 -2 -6 12 -13 26 -13 40 -47 20 -47 -7 0 -34 20 -62 45 -27
24 -64 47 -81 50 -50 9 -190 -8 -195 -23 -3 -11 12 -13 82 -7 92 8 129 -1 174
-40 29 -24 55 -72 47 -85 -3 -5 -1 -11 3 -14 13 -8 13 -66 0 -66 -7 0 -7 -4 0
-12 25 -32 -12 -147 -60 -187 -16 -13 -31 -21 -34 -18 -3 3 2 31 12 63 31 106
16 219 -37 275 -27 29 -28 29 -144 29 -89 0 -116 -3 -113 -12 3 -9 35 -14 104
-15 54 -2 109 -5 120 -8 47 -11 67 -131 43 -247 -13 -63 -33 -101 -75 -145
-26 -28 -38 -33 -78 -33 -53 0 -58 12 -24 55 27 35 49 161 37 214 -9 40 -70
101 -101 101 -10 0 -18 5 -18 10 0 6 -11 10 -25 10 -14 0 -25 -5 -25 -11 0 -5
-8 -9 -17 -8 -44 4 -113 -2 -113 -10 0 -5 48 -11 106 -13 104 -3 106 -4 130
-33 13 -16 24 -38 24 -47 0 -10 5 -18 10 -18 6 0 10 -13 10 -30 0 -16 -4 -30
-10 -30 -5 0 -10 -13 -10 -29 0 -15 -17 -62 -37 -102 l-38 -74 -79 -3 c-79 -3
-186 20 -186 39 0 5 -7 9 -16 9 -8 0 -45 14 -82 31 -49 22 -76 42 -101 76 -19
25 -44 49 -55 55 -12 5 -37 18 -56 28 -78 43 -323 7 -485 -71 -68 -32 -149
-59 -156 -51 -4 4 1 54 12 112 20 110 23 160 13 198 -7 25 -106 104 -159 126
-26 11 -35 21 -35 39 0 22 6 25 48 31 27 3 52 9 56 13 12 13 331 62 335 52 1
-6 21 -21 43 -35 32 -21 45 -24 62 -16 11 6 43 18 69 28 27 10 58 30 70 46
l22 29 123 -5 c118 -5 125 -6 206 -45z m-2921 -344 l2 -107 -50 0 c-92 0 -194
38 -195 72 0 3 12 11 28 17 15 6 65 38 112 71 47 33 88 59 93 57 4 -1 8 -50
10 -110z m-259 -252 c20 -14 41 -25 45 -25 5 0 24 -13 44 -28 20 -16 63 -39
96 -51 51 -18 61 -26 61 -45 0 -13 11 -40 25 -60 14 -20 28 -48 31 -63 7 -25
80 -162 93 -173 3 -3 23 -30 43 -60 56 -82 164 -183 235 -219 72 -36 81 -46
54 -60 -31 -17 -100 -13 -145 8 -23 11 -75 29 -116 40 -41 12 -88 26 -105 31
-16 5 -48 13 -71 19 -33 9 -51 24 -90 73 -64 82 -72 101 -66 178 10 143 -37
273 -113 315 -41 22 -63 55 -71 104 -8 48 -1 50 50 16z m324 -167 c18 -62 54
-143 72 -163 10 -11 34 -47 53 -80 39 -67 172 -215 193 -215 7 0 21 -8 31 -18
22 -23 95 -52 129 -52 33 0 82 29 90 53 7 21 -6 39 -13 19 -10 -26 -36 -42
-69 -42 -54 0 -41 23 29 48 85 30 99 29 91 -5 -26 -106 -124 -139 -239 -82
-44 22 -215 175 -215 193 0 4 -9 16 -20 28 -10 11 -27 37 -36 57 -10 20 -23
41 -30 46 -24 18 -104 201 -104 237 0 23 30 4 38 -24z m1698 -274 l19 -36 -25
-19 c-14 -10 -30 -23 -37 -29 -23 -19 -89 -23 -124 -7 -19 8 -61 25 -94 37
-103 39 -100 47 19 45 61 -1 111 -7 119 -14 16 -12 28 -5 21 13 -4 11 45 41
72 45 6 0 19 -15 30 -35z m-3652 -384 c40 -15 116 -203 116 -285 0 -13 5 -27
10 -30 17 -11 12 -103 -7 -126 -22 -25 -68 -51 -77 -42 -3 4 -6 36 -6 73 0
123 -31 241 -92 349 -23 43 -27 56 -16 62 17 11 41 11 72 -1z m-141 -15 c70
-33 130 -209 131 -378 1 -92 -1 -100 -23 -118 -16 -13 -39 -19 -72 -19 l-48 0
6 84 c5 77 3 93 -27 184 -26 79 -42 110 -76 149 -24 26 -44 50 -44 53 0 11 85
60 103 60 10 0 33 -7 50 -15z"/>
<path d="M1500 3264 c-24 -5 -79 -26 -109 -43 -32 -17 -51 -55 -43 -85 12 -44
81 -68 213 -74 93 -4 110 -2 147 17 33 17 42 28 47 55 10 50 4 66 -35 97 -30
24 -46 29 -115 33 -44 2 -91 2 -105 0z"/>
<path d="M724 3032 c-50 -44 -81 -93 -103 -162 -12 -36 -26 -73 -31 -82 -14
-25 -12 -104 3 -131 67 -121 149 -75 255 144 44 91 44 204 0 242 -31 26 -87
21 -124 -11z"/>
<path d="M1730 3027 c-34 -17 -36 -39 -6 -74 48 -57 179 -68 212 -18 15 23 15
27 0 50 -21 32 -43 41 -121 49 -41 4 -68 2 -85 -7z"/>
<path d="M945 2860 c-19 -21 -32 -136 -18 -157 5 -6 20 -14 35 -18 23 -6 29
-2 42 24 18 34 21 123 6 152 -14 24 -42 24 -65 -1z"/>
<path d="M2092 2230 c-43 -40 -19 -80 54 -87 61 -6 87 16 82 69 -3 33 -4 33
-58 36 -45 2 -60 -1 -78 -18z"/>
<path d="M1360 1886 c0 -8 -4 -16 -8 -18 -24 -10 -52 -83 -52 -134 0 -68 49
-171 85 -180 36 -9 64 5 72 34 13 46 9 234 -5 275 -13 34 -16 37 -53 37 -27 0
-39 -4 -39 -14z"/>
<path d="M2351 1658 c-31 -11 -53 -37 -76 -88 -10 -22 -22 -40 -27 -40 -4 0
-8 -35 -8 -77 1 -71 3 -80 26 -96 30 -22 49 -17 95 27 34 33 60 99 74 186 10
63 -32 108 -84 88z"/>
<path d="M1510 1600 c-31 -58 -19 -179 20 -200 57 -31 101 120 58 203 -13 24
-64 23 -78 -3z"/>
<path d="M396 1545 c-25 -26 -39 -118 -26 -178 20 -95 56 -122 95 -69 16 22
20 43 20 116 0 63 -4 91 -12 93 -7 3 -13 11 -13 18 0 8 -9 19 -19 25 -25 13
-27 13 -45 -5z"/>
<path d="M2094 1412 c-6 -4 -23 -25 -38 -46 -62 -92 0 -234 79 -182 46 30 73
186 39 220 -16 17 -61 21 -80 8z"/>
<path d="M2308 1243 c-48 -57 -61 -155 -25 -190 23 -24 73 -7 104 34 21 27 27
47 27 87 1 74 -6 86 -52 86 -25 0 -44 -6 -54 -17z"/>
<path d="M2555 831 c-16 -10 -38 -27 -48 -39 -18 -20 -18 -21 0 -46 10 -13 26
-27 35 -29 22 -6 89 8 97 21 3 4 14 11 23 15 9 3 24 18 34 32 16 24 16 27 -1
45 -24 26 -99 27 -140 1z"/>
<path d="M3461 2909 c-40 -16 -111 -79 -111 -98 0 -25 32 -51 61 -51 14 0 61
18 106 40 82 41 102 65 87 104 -7 18 -102 22 -143 5z"/>
<path d="M3606 2504 c-9 -8 -16 -19 -16 -24 0 -4 -11 -11 -25 -14 -14 -4 -29
-14 -32 -22 -3 -9 -17 -28 -29 -42 -13 -14 -24 -36 -24 -48 0 -13 -9 -33 -20
-44 -15 -15 -21 -35 -22 -73 -3 -94 1 -127 16 -127 8 0 18 -16 23 -37 15 -63
29 -49 40 39 20 160 113 295 232 339 57 20 62 24 45 36 -46 34 -161 44 -188
17z"/>
<path d="M4540 2115 c-122 -33 -148 -46 -214 -112 l-58 -58 5 -61 c4 -61 29
-114 52 -114 7 0 18 -6 24 -14 7 -8 35 -23 63 -33 28 -10 53 -24 55 -30 6 -15
33 -17 33 -3 0 6 20 10 45 10 47 0 62 20 29 38 -11 6 -13 12 -6 16 6 3 20 -4
32 -16 15 -16 30 -21 57 -20 48 4 55 11 72 67 10 35 11 52 2 71 -15 35 -15 62
1 46 28 -28 38 -13 38 58 0 40 -4 70 -10 70 -5 0 -10 10 -10 23 0 22 -24 65
-44 79 -19 13 -78 7 -166 -17z m162 -48 c-3 -12 -13 -33 -21 -48 -20 -31 -94
-99 -110 -99 -6 0 -11 -4 -11 -10 0 -5 -6 -10 -14 -10 -28 0 -66 -42 -77 -87
-13 -51 -29 -41 -29 18 0 30 7 42 51 80 86 76 155 144 174 172 13 20 21 25 30
17 7 -6 10 -20 7 -33z"/>
<path d="M3833 2083 c-17 -10 -42 -31 -56 -48 -42 -52 -50 -97 -44 -232 l6
-123 -27 -14 c-40 -20 -82 -66 -82 -87 0 -25 17 -24 25 1 4 11 30 35 59 54 46
30 64 34 147 41 94 8 120 17 170 62 23 21 26 30 22 76 -3 29 -8 61 -12 72 -36
86 -48 111 -73 137 -15 17 -28 41 -28 54 0 21 -5 24 -38 24 -20 0 -51 -8 -69
-17z m77 -48 c18 -19 20 -25 8 -25 -30 0 -70 -43 -99 -107 -31 -69 -35 -102
-18 -152 7 -21 8 -36 2 -42 -16 -16 -33 14 -45 78 -9 48 -8 71 5 124 14 54 24
71 63 107 25 23 49 42 53 42 4 0 18 -11 31 -25z"/>
<path d="M5830 1539 c-101 -21 -159 -44 -235 -95 -44 -30 -94 -67 -111 -83
-43 -41 -104 -116 -104 -128 0 -6 -8 -21 -18 -34 -73 -96 -95 -371 -41 -506
40 -100 105 -199 184 -278 157 -157 337 -212 564 -174 154 26 345 161 428 303
23 39 42 77 43 84 0 6 4 12 8 12 4 0 13 15 19 33 57 165 48 357 -22 496 -12
25 -30 62 -40 82 -32 68 -137 166 -251 231 -100 57 -293 83 -424 57z m215 -29
c84 -14 112 -27 120 -58 5 -19 0 -31 -18 -50 -26 -26 -139 -62 -194 -62 -18 0
-33 -4 -33 -10 0 -12 -57 -13 -64 -1 -3 5 -29 12 -58 16 -61 8 -111 34 -116
59 -9 45 6 60 80 83 40 13 82 25 93 27 39 7 131 6 190 -4z m234 -95 c32 -19
86 -65 120 -102 78 -84 78 -105 3 -180 -81 -81 -186 -117 -422 -143 -162 -19
-391 7 -493 55 -56 27 -97 73 -97 109 0 26 48 107 87 146 18 19 44 46 56 58
18 19 90 62 104 62 2 0 8 -13 14 -28 19 -54 109 -92 223 -92 89 0 206 17 206
31 0 5 15 12 33 17 21 5 44 24 67 55 19 26 37 47 39 47 2 0 29 -16 60 -35z
m246 -310 c9 -27 20 -54 25 -60 14 -17 27 -164 19 -222 -15 -108 -40 -138
-202 -236 -35 -22 -123 -51 -197 -67 -30 -6 -64 -16 -75 -21 -55 -25 -367 -26
-398 -1 -7 6 -47 19 -90 31 -98 27 -149 52 -193 98 -45 46 -61 86 -80 198 -16
89 -14 140 6 216 12 44 36 51 63 21 24 -26 174 -94 217 -97 14 -1 73 -8 131
-15 83 -9 133 -9 225 0 152 15 147 14 160 22 6 4 42 16 80 26 123 34 199 82
247 156 16 24 21 26 32 15 7 -8 21 -36 30 -64z m-47 -528 c-53 -79 -107 -143
-131 -156 -15 -8 -27 -18 -27 -23 0 -4 -7 -8 -15 -8 -8 0 -15 -3 -15 -7 0 -14
-84 -61 -145 -81 -148 -49 -377 -29 -500 44 -45 27 -183 145 -184 157 -1 5
-10 21 -22 35 -11 15 -16 28 -11 30 5 1 45 -15 88 -37 139 -69 168 -75 364
-75 138 -1 195 3 268 19 50 10 92 23 92 27 0 4 19 12 42 19 45 12 184 84 194
101 4 6 10 6 16 0 6 -6 2 -22 -14 -45z"/>
</g>
</svg>
