<?xml version="1.0" standalone="no"?>
<!DOCTYPE svg PUBLIC "-//W3C//DTD SVG 20010904//EN"
 "http://www.w3.org/TR/2001/REC-SVG-20010904/DTD/svg10.dtd">
<svg version="1.0" xmlns="http://www.w3.org/2000/svg"
 width="960.000000pt" height="806.000000pt" viewBox="0 0 960.000000 806.000000"
 preserveAspectRatio="xMidYMid meet">
<metadata>
Created by potrace 1.16, written by Peter Selinger 2001-2019
</metadata>
<g transform="translate(0.000000,806.000000) scale(0.100000,-0.100000)"
fill="#000000" stroke="none">
<path d="M3910 7490 c-25 -5 -54 -14 -65 -18 -213 -93 -302 -156 -403 -281
-17 -22 -32 -42 -32 -46 0 -3 -16 -28 -35 -57 -19 -28 -38 -62 -41 -75 -4 -14
-17 -44 -29 -67 -33 -62 -37 -90 -36 -219 1 -87 7 -134 21 -175 10 -32 22 -73
26 -92 3 -19 12 -44 19 -55 7 -11 16 -33 19 -50 18 -83 236 -300 370 -369 237
-121 488 -113 716 22 92 54 140 99 239 222 131 163 150 211 158 405 5 130 4
146 -18 210 -13 39 -34 85 -46 104 -13 19 -23 43 -23 55 -1 36 -39 138 -65
172 -14 18 -25 37 -25 43 0 15 -87 97 -155 145 -63 45 -153 82 -270 111 -82
20 -260 28 -325 15z m290 -49 c197 -42 358 -139 446 -269 73 -109 91 -162 54
-162 -30 0 -25 -15 25 -65 33 -35 50 -63 65 -112 38 -122 18 -333 -43 -445
-28 -53 -129 -179 -176 -221 -17 -15 -31 -31 -31 -36 0 -4 -37 -33 -82 -64
-141 -94 -231 -121 -408 -121 -83 0 -132 5 -175 18 -92 28 -218 101 -285 166
-9 8 -36 33 -61 55 -57 50 -124 149 -155 228 -35 89 -74 261 -74 326 0 157
109 386 240 504 80 72 209 152 285 177 39 12 77 26 85 31 20 12 220 4 290 -10z"/>
<path d="M2380 6851 c-115 -25 -272 -104 -344 -174 -130 -127 -198 -273 -200
-427 -1 -79 5 -98 61 -218 48 -102 139 -193 253 -250 47 -24 104 -46 128 -49
23 -3 42 -10 42 -14 0 -15 223 -11 266 5 22 7 64 16 94 20 117 15 219 101 280
239 21 48 36 87 34 87 -2 0 9 24 26 53 42 74 40 130 -6 266 -64 187 -81 217
-178 306 -113 103 -177 137 -309 160 -21 3 -44 8 -50 10 -7 2 -50 -4 -97 -14z
m212 -60 c85 -24 151 -63 208 -120 25 -25 58 -54 72 -63 29 -19 125 -236 135
-303 7 -57 -11 -145 -48 -223 -66 -142 -84 -174 -110 -195 -15 -12 -40 -32
-55 -44 -15 -11 -59 -31 -98 -43 -39 -13 -89 -29 -111 -36 -97 -33 -273 -8
-414 59 -61 29 -158 100 -193 142 -20 24 -71 125 -83 165 -20 67 -25 95 -25
143 0 32 7 71 15 86 8 16 12 31 9 34 -7 7 44 111 67 135 10 12 19 24 19 28 0
12 80 96 122 129 46 35 165 91 238 111 68 19 176 17 252 -5z"/>
<path d="M1520 5926 c-30 -7 -67 -20 -81 -30 -34 -22 -74 -82 -84 -124 -3 -18
-11 -32 -16 -32 -22 0 -9 -101 21 -164 28 -59 36 -67 86 -91 142 -67 254 -53
331 43 21 26 41 49 46 50 4 2 7 11 7 20 0 10 7 26 15 36 21 28 19 86 -7 153
-35 96 -83 143 -143 142 -11 0 -42 2 -70 5 -27 3 -75 -1 -105 -8z m180 -48
c69 -14 85 -28 106 -90 26 -78 16 -136 -35 -202 -80 -107 -169 -124 -313 -62
-30 13 -43 28 -66 77 -28 59 -28 63 -16 116 7 30 21 65 31 76 84 102 136 117
293 85z"/>
<path d="M1540 5109 c-19 -4 -69 -10 -110 -14 -41 -3 -97 -10 -125 -15 -27 -4
-97 -13 -155 -20 -218 -23 -287 -47 -376 -132 -64 -61 -99 -108 -144 -196 -52
-104 -69 -180 -76 -346 -5 -144 -3 -174 27 -333 8 -43 9 -74 2 -101 -12 -46 6
-213 27 -251 7 -13 30 -43 52 -67 32 -34 43 -58 54 -106 7 -35 13 -79 14 -98
0 -34 23 -85 119 -265 24 -44 50 -93 59 -110 8 -16 19 -32 22 -35 4 -3 17 -25
30 -49 23 -47 23 -67 -7 -171 -18 -63 -21 -73 -56 -155 -14 -33 -29 -73 -33
-90 -4 -16 -10 -34 -14 -40 -11 -16 -46 -123 -69 -210 -45 -177 -61 -432 -33
-532 25 -90 32 -121 32 -143 0 -13 12 -48 26 -79 79 -174 108 -224 164 -283
14 -15 36 -41 50 -57 14 -17 29 -31 33 -31 5 0 23 -11 41 -25 18 -13 43 -26
57 -27 23 -3 24 -1 21 52 -4 88 -20 149 -63 245 -34 77 -39 94 -30 118 11 29
32 35 53 14 7 -8 24 -19 37 -26 39 -21 54 4 59 104 6 114 -11 157 -94 241 -35
35 -64 72 -64 83 0 25 56 69 97 77 30 6 31 6 43 -52 6 -33 14 -83 17 -111 4
-49 7 -53 31 -53 27 0 86 55 97 90 8 24 39 34 64 21 16 -9 23 -6 39 14 28 35
40 99 47 250 7 160 13 195 32 195 8 0 49 -34 91 -76 42 -42 88 -84 102 -93 14
-9 33 -26 43 -38 10 -13 46 -44 80 -70 34 -26 64 -51 65 -55 2 -4 9 -8 15 -8
7 0 24 -10 39 -23 l28 -22 -13 -75 c-6 -41 -12 -122 -11 -180 0 -135 20 -199
138 -440 75 -156 93 -181 155 -231 28 -23 51 -44 51 -49 0 -11 103 -88 165
-124 28 -16 65 -40 83 -53 17 -13 56 -33 85 -43 63 -22 253 -102 285 -119 13
-7 47 -19 75 -28 29 -8 66 -21 82 -28 158 -69 284 -97 585 -130 74 -9 167 -22
205 -30 151 -31 194 -35 349 -35 216 0 358 24 416 70 22 17 40 39 40 48 -1 20
-71 76 -115 92 -17 6 -39 15 -50 20 -11 5 -47 16 -80 25 -33 9 -100 28 -150
42 -49 13 -138 37 -196 53 -58 15 -128 37 -155 48 -27 11 -65 26 -84 33 -51
19 -136 108 -151 158 -13 43 -57 90 -87 92 -9 1 -30 2 -47 3 -23 1 -31 6 -33
23 -4 26 -56 73 -80 73 -48 0 -92 -24 -141 -75 -43 -45 -58 -55 -86 -55 -27 0
-39 7 -58 33 -23 30 -57 107 -57 127 0 5 20 12 45 15 56 9 70 26 70 89 l0 51
265 -2 c146 -1 279 -2 295 -3 17 -1 73 10 125 24 68 18 121 26 185 26 50 0
122 7 160 15 39 9 106 20 149 26 43 5 93 16 110 23 17 7 63 18 101 25 39 6 97
17 130 23 33 6 81 12 106 13 31 1 56 9 80 27 40 29 81 46 239 98 221 73 405
140 468 170 34 16 69 30 77 30 8 0 15 4 15 8 0 5 19 17 41 28 23 10 47 23 53
29 12 12 101 72 190 129 84 54 125 37 184 -74 16 -30 48 -82 71 -114 22 -33
41 -63 41 -68 0 -5 20 -51 44 -102 36 -75 56 -104 103 -145 117 -105 278 -193
466 -255 156 -52 197 -74 197 -107 0 -46 21 -87 58 -115 20 -15 51 -39 67 -54
31 -28 173 -69 260 -75 39 -3 108 -15 205 -37 25 -5 90 -12 145 -14 55 -3 140
-7 188 -11 60 -4 92 -2 100 6 6 6 18 11 27 11 24 0 84 47 96 77 9 20 7 36 -7
74 -24 63 -24 62 9 75 15 6 56 23 91 38 35 15 98 31 140 37 42 6 117 23 166
39 50 16 108 34 131 39 23 6 61 28 85 49 24 20 67 55 94 77 28 22 55 46 62 55
21 25 15 56 -12 68 -33 15 -264 15 -450 1 -168 -14 -385 -13 -398 0 -7 7 -4
19 7 35 22 34 20 48 -10 77 -28 27 -22 25 -189 38 -181 13 -235 28 -235 62 0
10 7 39 16 65 14 42 14 47 -2 65 -12 13 -31 19 -62 19 -24 0 -69 7 -99 16 -30
9 -67 14 -81 11 -15 -3 -34 -1 -44 4 -9 5 -47 11 -83 14 -36 3 -74 9 -83 14
-9 4 -48 11 -87 14 -90 8 -336 87 -393 127 -23 16 -59 37 -78 45 -46 19 -104
65 -174 136 -30 30 -74 68 -97 84 -49 32 -54 45 -18 45 31 0 104 28 129 49 33
29 67 91 61 112 -5 16 2 23 42 40 26 11 66 28 88 39 22 10 65 26 95 36 30 9
59 21 65 25 5 5 21 9 36 9 30 0 197 136 237 192 27 39 29 75 5 81 -99 26 -173
53 -177 63 -6 16 31 64 50 64 8 0 14 3 14 8 0 13 89 55 105 48 8 -3 18 -14 22
-23 4 -10 18 -33 31 -51 31 -41 38 -39 155 48 51 38 121 84 156 102 131 67
311 283 311 372 0 30 -4 34 -31 40 -17 3 -48 6 -68 6 -48 0 -69 14 -56 36 21
34 186 107 299 134 98 22 172 79 178 135 2 24 10 32 43 45 65 24 114 57 127
86 10 22 9 31 -5 56 -17 29 -16 30 13 66 40 50 48 94 22 120 -11 11 -26 22
-33 24 -19 7 -15 11 80 65 71 41 88 56 113 99 24 44 27 55 17 77 -8 19 -21 26
-52 30 -36 5 -142 -13 -192 -33 -88 -35 -186 -70 -195 -70 -6 0 -41 -15 -78
-34 -37 -19 -94 -42 -127 -51 -33 -10 -76 -23 -95 -31 -19 -7 -78 -29 -130
-49 -52 -20 -102 -40 -110 -45 -8 -6 -22 -13 -30 -16 -33 -13 -98 -50 -149
-86 -30 -21 -59 -38 -65 -38 -16 0 -86 -49 -152 -106 -127 -110 -241 -208
-284 -243 -24 -20 -143 -135 -263 -256 -209 -210 -247 -257 -313 -382 -16 -29
-32 -53 -36 -53 -4 0 -8 -4 -8 -10 0 -5 -22 -47 -49 -92 -26 -46 -51 -92 -55
-104 -9 -28 -55 -69 -91 -81 -39 -13 -125 -2 -159 20 -15 10 -43 52 -66 100
-22 45 -45 89 -50 97 -6 8 -19 35 -31 60 -36 79 -93 178 -147 256 l-52 75 2
77 c3 69 0 84 -28 143 -31 65 -33 67 -75 74 -24 3 -56 11 -71 17 -26 10 -28
15 -28 63 0 30 -3 61 -6 70 -8 20 -88 61 -140 70 -55 10 -63 20 -57 64 7 50
-17 99 -65 132 -60 42 -97 50 -194 43 -82 -6 -88 -6 -88 12 0 10 9 30 20 44
11 14 20 37 20 53 0 36 -20 43 -149 52 l-103 8 7 26 c18 74 18 77 -17 113 -30
32 -40 36 -125 48 -51 7 -93 14 -93 15 0 2 9 22 20 46 26 58 26 113 -1 150
-18 25 -27 29 -72 30 -29 1 -63 4 -77 8 -29 8 -74 1 -183 -29 l-78 -21 -77 67
c-42 36 -91 73 -109 80 -38 16 -93 19 -93 4 0 -5 -5 -10 -11 -10 -6 0 -21 -10
-34 -22 -12 -12 -29 -23 -36 -24 -16 -4 -71 -19 -108 -30 l-25 -7 22 37 c24
40 28 76 12 105 -8 16 -24 19 -99 20 -49 1 -122 5 -163 9 -94 10 -159 7 -233
-11 -62 -15 -147 -43 -177 -58 -10 -5 -23 -9 -30 -9 -6 0 -19 -7 -29 -16 -21
-19 -38 -12 -121 53 -77 59 -178 83 -264 63 -53 -13 -59 -12 -98 7 -72 37
-175 56 -263 48 -87 -7 -104 -7 -353 -1 -96 2 -191 0 -210 -5z m658 -44 c72
-14 96 -23 179 -63 30 -15 37 -15 87 2 47 16 61 17 102 7 80 -20 100 -33 243
-154 40 -34 87 -72 105 -84 64 -46 93 -73 111 -108 11 -19 26 -35 33 -35 8 0
40 -13 71 -29 31 -16 85 -39 121 -51 77 -26 90 -36 141 -114 47 -72 73 -146
66 -189 -19 -117 -19 -117 -44 -124 -22 -5 -25 -10 -20 -39 5 -29 -1 -41 -40
-89 -25 -30 -52 -55 -59 -55 -8 0 -14 -4 -14 -10 0 -8 -83 -50 -101 -50 -4 0
-7 58 -6 128 2 107 -1 132 -16 155 -28 43 -62 60 -94 50 -42 -14 -42 -40 -1
-35 28 3 36 -2 56 -31 15 -23 22 -48 22 -84 0 -64 -37 -241 -57 -272 -8 -12
-13 -31 -10 -42 7 -25 -11 -93 -37 -139 -38 -69 -157 -240 -179 -257 -12 -10
-30 -30 -39 -44 -9 -14 -23 -33 -31 -41 -9 -8 -30 -39 -48 -69 -54 -88 -131
-178 -251 -291 -115 -108 -184 -163 -191 -150 -3 4 -5 40 -6 80 -4 140 -46
284 -67 229 -3 -10 -1 -30 5 -45 6 -15 12 -76 13 -137 3 -189 -22 -230 -180
-301 -42 -19 -93 -44 -112 -54 -59 -31 -123 -50 -232 -66 -122 -18 -160 -13
-176 21 -7 16 -17 23 -27 19 -19 -8 -100 40 -120 69 -8 12 -49 51 -92 87 -73
60 -233 234 -242 262 -2 7 -16 27 -31 43 -29 31 -54 72 -98 160 -26 53 -88
160 -107 185 -24 31 -54 197 -39 213 8 8 84 -20 105 -39 10 -9 23 -13 29 -9
17 11 -25 60 -83 96 -62 38 -172 145 -186 182 -13 32 -16 126 -7 197 5 33 3
73 -4 100 -40 158 -42 191 -31 350 13 178 24 227 76 327 39 76 90 134 178 201
58 45 119 62 292 82 55 6 150 18 210 27 251 35 439 41 548 18 59 -12 75 -12
110 0 39 12 71 21 90 24 4 0 43 -6 85 -14z m1352 -86 c0 -11 -20 -46 -45 -78
-25 -31 -45 -65 -45 -75 0 -16 6 -18 43 -14 70 9 215 58 246 84 20 16 41 24
68 24 35 0 48 -7 102 -59 36 -36 61 -68 61 -81 0 -30 24 -35 78 -15 165 60
188 66 222 60 19 -3 53 -8 74 -10 43 -5 86 -29 86 -48 -1 -31 -29 -85 -63
-122 -58 -62 -50 -69 78 -76 130 -8 162 -18 171 -56 6 -23 1 -32 -35 -65 -27
-23 -41 -44 -39 -55 3 -16 17 -18 126 -21 68 -2 135 -7 148 -13 l25 -9 -21
-38 c-12 -21 -20 -50 -18 -63 4 -34 64 -53 132 -40 92 17 145 3 204 -52 35
-34 44 -85 17 -107 -23 -19 -18 -49 11 -60 14 -6 29 -8 33 -6 15 10 108 -18
138 -41 40 -31 43 -39 32 -96 -4 -26 -6 -53 -3 -61 3 -7 33 -19 67 -26 34 -6
72 -15 84 -20 24 -10 40 -64 24 -83 -6 -8 -6 -18 -1 -27 13 -21 12 -50 -2 -50
-6 0 -41 27 -77 60 -90 83 -85 78 -144 140 -105 109 -218 192 -322 237 -71 31
-140 53 -382 122 -66 19 -94 29 -198 70 -27 10 -66 25 -85 32 -19 6 -66 24
-105 40 -38 15 -95 35 -125 45 -30 9 -67 27 -83 40 -15 13 -34 21 -42 18 -15
-6 -180 49 -202 68 -7 6 -13 18 -13 28 0 10 -7 23 -15 30 -12 10 -16 8 -25
-15 -8 -21 -15 -26 -33 -22 -75 18 -265 69 -282 76 -30 12 -84 31 -135 46
-127 37 -185 72 -248 144 -29 33 -73 72 -97 86 -91 54 -69 90 85 140 47 15 90
28 95 30 6 2 106 4 223 4 208 1 212 1 212 -20z m5008 -371 c4 -22 -40 -81 -70
-95 -102 -49 -162 -76 -186 -82 -16 -5 -28 -15 -30 -28 -2 -16 6 -22 45 -33
26 -7 56 -14 66 -17 54 -14 -22 -94 -124 -129 -48 -17 -65 -27 -67 -43 -3 -20
1 -21 72 -21 41 0 77 -4 80 -9 16 -25 -88 -71 -160 -71 -36 0 -44 -3 -44 -18
0 -11 9 -27 20 -37 37 -34 24 -56 -55 -94 -22 -10 -67 -24 -100 -31 -32 -7
-102 -33 -155 -59 -94 -47 -220 -126 -220 -139 1 -24 25 -32 123 -38 96 -6
107 -9 107 -26 0 -52 -175 -259 -252 -299 -21 -11 -38 -23 -38 -27 0 -5 -22
-19 -49 -32 -27 -12 -66 -38 -88 -57 -43 -38 -100 -66 -120 -58 -8 2 -20 20
-28 38 -19 47 -38 60 -75 52 -58 -13 -240 -159 -240 -194 0 -12 21 -20 89 -33
108 -21 141 -33 141 -52 0 -18 -97 -116 -115 -116 -7 0 -23 -11 -34 -26 -19
-24 -109 -61 -321 -130 -83 -27 -100 -42 -92 -79 3 -18 -5 -37 -31 -69 -43
-52 -74 -62 -224 -72 -71 -5 -103 -11 -103 -19 0 -7 39 -31 86 -54 90 -43 140
-80 237 -174 33 -32 83 -70 111 -83 28 -14 78 -40 111 -59 123 -70 345 -135
480 -141 39 -2 95 -10 125 -19 30 -8 70 -15 89 -15 19 0 57 -6 85 -14 28 -8
69 -18 91 -23 48 -10 57 -38 26 -82 -26 -36 -26 -53 -1 -69 26 -16 211 -41
316 -43 75 -2 87 -5 116 -30 l33 -27 -52 -49 c-29 -27 -53 -52 -53 -56 0 -11
88 -8 288 8 204 17 559 27 610 18 48 -8 52 -30 12 -61 -19 -15 -45 -39 -59
-54 -13 -15 -28 -28 -32 -28 -5 0 -29 -13 -55 -29 -48 -31 -247 -98 -369 -126
-38 -9 -89 -20 -112 -25 -24 -5 -56 -16 -72 -25 -17 -8 -39 -15 -50 -15 -56 0
-67 -36 -26 -84 35 -41 33 -79 -6 -107 -54 -38 -112 -50 -195 -38 -41 5 -78 8
-83 5 -9 -6 -203 19 -431 54 -154 24 -195 41 -285 119 -31 27 -48 60 -54 104
-6 47 -9 52 -50 73 -25 12 -61 25 -80 28 -58 9 -279 104 -367 157 -45 27 -85
49 -89 49 -6 0 -44 33 -94 81 -25 25 -131 228 -131 252 0 6 -11 22 -24 36 -13
15 -32 40 -43 58 -67 116 -106 174 -130 192 l-28 21 30 25 c55 46 93 31 190
-74 28 -30 62 -65 76 -78 14 -13 36 -47 49 -76 12 -28 28 -63 34 -77 10 -23
38 -63 119 -168 28 -36 62 -61 82 -61 6 0 1 7 -11 17 -28 24 -134 168 -134
183 0 7 -6 20 -14 28 -8 9 -24 40 -36 70 -39 99 -166 239 -257 282 -35 16 -63
33 -63 36 0 24 27 73 40 73 49 0 90 -26 186 -117 139 -133 354 -329 383 -349
26 -19 109 -64 117 -64 17 0 -5 23 -53 56 -62 43 -83 61 -223 194 -52 49 -97
90 -101 90 -3 0 -42 36 -86 79 -64 63 -100 88 -167 121 -64 30 -87 46 -92 64
-3 13 -19 36 -35 52 -39 38 -39 64 2 64 33 0 37 2 190 73 100 46 169 100 196
151 9 16 21 36 28 43 20 20 58 84 53 89 -3 2 -25 -21 -48 -53 -66 -88 -133
-146 -213 -186 -150 -74 -199 -83 -205 -41 -2 16 7 28 35 45 21 13 40 26 43
30 3 3 23 15 45 27 49 25 109 89 142 150 47 89 91 168 156 280 36 61 62 112
59 112 -9 0 -53 -55 -72 -90 -32 -58 -74 -126 -91 -145 -10 -11 -27 -40 -38
-65 -40 -86 -94 -156 -150 -193 -23 -15 -59 -39 -81 -53 l-39 -26 -50 43 c-67
59 -66 89 4 89 31 0 127 106 164 180 50 99 124 235 136 250 7 8 22 34 34 57
30 61 435 461 654 648 137 116 213 172 276 206 48 26 107 61 132 78 24 18 64
41 89 52 87 40 315 127 350 134 19 4 60 19 90 35 30 15 91 40 135 56 44 15
121 42 170 60 104 38 197 43 203 12z m-4998 -145 c159 -42 165 -46 177 -109 6
-33 6 -77 1 -109 -10 -67 -67 -189 -107 -232 -31 -33 -96 -73 -118 -73 -18 0
-40 38 -52 90 -9 38 -7 51 11 88 17 37 20 57 16 147 -3 86 -7 109 -24 132 -22
29 -54 88 -54 98 0 6 23 2 150 -32z m353 -115 c45 -17 85 -36 89 -42 26 -38
-10 -183 -50 -201 -12 -5 -22 -17 -22 -27 0 -23 -78 -78 -112 -78 -26 0 -28 3
-28 43 0 23 -7 51 -15 61 -17 23 -20 62 -5 71 6 3 10 50 10 106 l0 99 25 0
c14 0 63 -14 108 -32z m217 -73 c83 -32 94 -44 110 -112 l12 -56 -42 -84 c-44
-85 -91 -136 -138 -148 -13 -3 -26 -4 -28 -2 -3 2 -10 33 -16 68 -6 35 -16 77
-23 93 -11 25 -10 36 6 71 10 23 24 77 30 119 6 42 15 76 18 76 4 0 36 -11 71
-25z m223 -85 c42 -13 73 -30 85 -45 11 -14 24 -25 30 -25 15 0 24 -53 16 -97
-10 -54 -48 -138 -84 -183 -16 -21 -30 -42 -30 -46 -1 -25 -70 -80 -84 -67 -3
3 -6 25 -6 48 0 28 -11 63 -32 104 l-31 61 33 76 c29 66 32 82 27 134 -3 33
-2 60 3 60 4 0 37 -9 73 -20z m234 -91 c15 -6 39 -16 53 -21 51 -20 55 -26 62
-73 17 -121 -54 -252 -154 -284 -48 -16 -68 -9 -95 35 -29 44 -28 51 0 94 33
49 67 158 67 213 0 52 12 58 67 36z m-837 -110 c0 -95 -15 -161 -41 -185 -10
-9 -19 -23 -19 -30 0 -30 -93 -93 -160 -107 l-25 -6 0 111 c0 89 3 112 15 118
8 4 32 15 52 25 43 20 144 117 153 146 13 40 25 5 25 -72z m1110 25 c74 -22
132 -44 147 -56 66 -54 52 -230 -24 -303 -43 -42 -101 -50 -110 -15 -3 11 -9
20 -13 20 -9 0 -17 40 -29 145 -12 99 -27 148 -56 175 -14 13 -25 32 -25 43 0
21 4 21 110 -9z m-879 -26 c9 -21 13 -68 11 -133 -2 -111 -15 -155 -65 -218
-34 -44 -106 -93 -116 -80 -4 4 -13 37 -20 72 -7 36 -19 74 -27 85 -18 26 -18
54 0 98 14 33 23 73 25 108 1 9 28 27 66 44 35 15 69 34 76 42 19 23 36 16 50
-18z m-547 -25 c3 -16 13 -64 22 -108 23 -110 10 -169 -54 -256 -26 -35 -58
-73 -72 -84 -21 -17 -104 -55 -121 -55 -4 0 -9 33 -11 73 -3 39 -15 99 -27
132 -43 117 -44 115 74 193 38 25 90 65 115 89 53 50 66 53 74 16z m1345 -87
c14 -58 14 -144 0 -187 -23 -69 -85 -109 -117 -77 -14 14 -16 128 -2 128 10 0
90 158 90 179 0 26 18 -1 29 -43z m-548 -43 c6 -19 8 -57 5 -86 -4 -29 -7 -70
-9 -92 -3 -45 -16 -85 -55 -162 -22 -44 -36 -57 -84 -83 -76 -41 -88 -33 -88
56 0 35 -5 85 -11 113 -9 43 -8 54 10 90 12 22 21 56 21 76 0 37 35 85 62 85
7 0 33 16 58 34 41 30 47 32 62 19 10 -9 22 -31 29 -50z m906 47 c94 -74 140
-122 151 -157 32 -108 -31 -323 -94 -323 -7 0 -14 31 -18 87 -7 85 -33 158
-81 226 -10 15 -15 46 -15 104 0 92 8 101 57 63z m-712 -166 c3 -13 8 -36 11
-51 13 -53 -8 -158 -47 -234 -20 -41 -101 -124 -140 -144 -24 -13 -27 -12 -48
15 -11 16 -21 34 -21 40 0 5 -9 15 -20 22 -21 13 -27 38 -10 38 15 0 74 99 87
145 28 98 40 118 99 160 63 45 81 47 89 9z m-699 -26 c4 -13 11 -26 16 -29 6
-4 10 -52 11 -108 0 -95 -2 -105 -34 -167 -18 -37 -53 -88 -77 -115 -44 -49
-143 -106 -163 -93 -7 4 -9 28 -5 68 18 165 17 190 -3 261 -13 47 -16 74 -10
82 6 6 36 20 67 31 31 10 82 35 112 55 65 43 76 44 86 15z m883 -40 c12 -34
-4 -148 -20 -148 -5 0 -9 -8 -9 -18 0 -35 -111 -132 -151 -132 -25 0 -25 33 1
69 12 15 22 38 24 52 1 14 6 31 10 38 5 7 11 42 14 77 5 70 9 74 62 85 56 11
58 11 69 -23z m494 -32 c36 -62 48 -181 24 -238 -9 -21 -22 -38 -30 -38 -9 0
-17 -14 -20 -36 -6 -38 -33 -68 -99 -111 -33 -23 -41 -24 -52 -12 -20 21 -37
168 -24 194 7 11 12 57 12 103 l1 83 41 18 c23 11 54 35 70 55 16 20 33 35 39
33 5 -2 22 -25 38 -51z m333 -8 c43 -41 64 -69 64 -85 0 -17 6 -23 22 -23 30
0 58 -28 58 -59 0 -36 -52 -122 -90 -152 -17 -13 -38 -30 -45 -36 -20 -19 -45
-16 -45 6 0 46 -43 157 -71 184 -25 24 -27 31 -18 49 6 11 15 52 20 90 14 110
17 111 105 26z m-2297 15 c16 -56 12 -152 -7 -207 -22 -60 -94 -146 -147 -174
-79 -43 -185 -65 -185 -39 1 6 31 44 68 84 38 39 77 89 88 110 10 21 25 44 32
51 22 24 67 96 98 154 16 32 32 58 36 58 4 0 12 -17 17 -37z m1701 -4 c7 -11
20 -47 31 -79 17 -52 18 -64 6 -107 -29 -106 -97 -167 -179 -161 l-43 3 -9 80
c-17 163 -14 172 72 213 29 14 60 36 69 49 19 29 39 30 53 2z m-884 -85 c4
-14 4 -68 2 -122 -4 -85 -9 -107 -41 -173 -40 -87 -95 -139 -146 -139 -29 0
-31 2 -31 36 0 19 -10 57 -21 84 l-21 50 32 50 c18 27 40 75 49 107 10 32 25
61 36 67 11 6 39 25 63 43 47 35 69 34 78 -3z m-528 -31 c15 -29 23 -119 16
-174 -6 -44 -14 -58 -59 -104 -51 -51 -99 -75 -116 -58 -8 8 -19 54 -38 153
-3 19 -5 49 -3 65 3 27 9 33 50 48 27 9 66 32 87 51 46 41 51 42 63 19z m1901
-120 c11 -24 21 -65 39 -163 9 -54 3 -151 -12 -179 -30 -58 -42 -78 -61 -102
-27 -34 -105 -90 -116 -83 -5 3 -9 29 -9 57 0 29 -7 77 -16 107 -8 30 -18 70
-21 88 -3 21 -16 41 -34 54 -29 22 -38 51 -19 63 6 4 21 23 34 43 13 21 36 44
52 52 16 8 49 32 73 52 52 45 73 48 90 11z m-725 1 c13 -34 6 -83 -15 -102
-16 -16 -19 -27 -14 -55 7 -33 4 -37 -36 -67 -27 -19 -53 -30 -69 -28 -23 3
-26 8 -31 63 -4 32 -12 61 -18 63 -6 2 -11 14 -11 26 0 17 9 24 44 34 24 6 63
27 87 46 51 40 55 41 63 20z m-1402 -142 c31 -137 15 -183 -106 -309 -33 -35
-64 -63 -69 -63 -5 0 -35 -16 -67 -35 -48 -29 -67 -35 -115 -35 l-58 0 9 103
c4 56 8 128 9 160 0 66 -2 64 100 97 39 13 77 29 86 37 8 7 22 13 29 13 17 0
116 104 138 145 l16 30 4 -25 c1 -14 12 -67 24 -118z m947 68 c42 -72 67 -199
42 -214 -5 -3 -12 -18 -15 -33 -4 -16 -17 -48 -28 -71 -17 -37 -24 -43 -44
-39 -20 3 -24 0 -24 -20 0 -28 -53 -87 -73 -81 -8 3 -14 40 -18 114 -5 73 -13
125 -27 159 l-20 50 28 75 c15 41 33 77 41 81 91 43 104 48 108 36 2 -7 16
-32 30 -57z m1521 25 c53 -68 68 -148 35 -185 -18 -20 -19 -20 -51 50 -19 39
-44 80 -56 90 -22 18 -22 19 -5 54 9 20 22 36 29 36 7 -1 29 -21 48 -45z
m-1299 -82 c18 -28 22 -49 21 -97 -2 -73 -30 -177 -61 -228 -19 -32 -26 -36
-42 -27 -28 14 -38 3 -32 -34 6 -37 -4 -48 -60 -72 l-37 -15 -15 36 c-20 49
-19 73 5 109 44 64 72 141 79 214 7 69 10 76 42 102 19 15 39 32 44 38 18 18
33 11 56 -26z m499 -44 c0 -58 -1 -60 -30 -66 -40 -7 -59 -38 -29 -46 28 -7
20 -27 -21 -55 -45 -30 -60 -25 -75 23 -6 22 -22 59 -34 83 -12 23 -19 46 -17
51 3 5 25 14 49 20 25 6 64 22 87 35 59 33 70 26 70 -45z m705 45 c37 -37 60
-107 59 -178 -1 -37 -6 -78 -12 -90 -5 -11 -15 -36 -22 -54 -7 -17 -31 -51
-54 -75 -40 -42 -94 -84 -99 -76 -1 2 -21 42 -45 89 l-43 85 25 60 c16 37 26
80 26 111 0 50 1 53 56 98 60 49 83 56 109 30z m-1887 -102 c3 -57 1 -64 -18
-69 -24 -6 -26 -21 -5 -37 13 -9 14 -17 5 -43 -10 -28 -67 -83 -85 -83 -3 0
-31 -12 -61 -27 -30 -14 -55 -24 -57 -22 -2 2 -1 59 1 127 4 115 6 124 26 132
74 28 110 46 134 67 43 37 57 27 60 -45z m1403 -64 c39 -80 49 -140 38 -229
-10 -81 -17 -99 -56 -145 -20 -23 -111 -70 -120 -61 -3 3 1 22 7 43 21 62 7
150 -35 223 -20 36 -73 83 -85 76 -17 -10 -11 -24 19 -51 41 -37 63 -88 69
-161 7 -100 -34 -181 -128 -252 -70 -53 -80 -52 -80 4 0 44 -38 130 -78 177
-13 15 -10 26 26 100 22 46 46 100 53 120 10 29 21 40 55 53 46 17 86 52 115
100 13 20 39 38 81 56 l63 26 20 -23 c11 -13 27 -38 36 -56z m-1662 -51 c3
-72 -11 -165 -27 -177 -4 -3 -15 -17 -25 -32 -10 -16 -26 -28 -37 -28 -11 0
-20 -7 -20 -15 0 -21 -36 -55 -59 -55 -16 0 -20 10 -25 73 -3 39 -8 101 -12
135 -6 54 -3 71 16 112 19 41 32 53 84 79 l61 30 20 -22 c16 -17 21 -38 24
-100z m1225 68 c52 -101 37 -218 -39 -306 -18 -19 -40 -49 -50 -66 -13 -23
-31 -34 -74 -46 -86 -25 -115 -26 -119 -2 -2 11 -7 29 -12 40 -4 11 -14 41
-20 67 -12 45 -11 50 17 100 16 29 40 81 52 115 22 60 25 63 75 79 28 9 67 30
86 46 19 15 39 28 45 28 5 0 23 -25 39 -55z m1159 -33 c16 -37 33 -75 38 -84
5 -10 9 -24 9 -32 0 -8 12 -28 26 -45 31 -37 45 -89 37 -138 -6 -35 -45 -82
-110 -132 -39 -31 -34 -43 16 -35 36 6 40 4 56 -27 10 -19 23 -45 31 -59 18
-35 30 -155 15 -164 -6 -4 -11 -16 -11 -27 0 -46 -105 -157 -128 -135 -3 4 2
52 11 109 18 113 14 143 -28 212 -59 97 -60 99 -41 148 9 24 30 53 46 65 39
30 70 91 70 142 0 61 -53 125 -75 90 -4 -6 6 -25 20 -42 30 -35 29 -74 -3
-117 -25 -34 -35 -29 -49 21 -7 24 -26 69 -43 101 -36 69 -37 96 -7 134 13 15
31 40 40 56 28 44 49 34 80 -41z m-1876 2 c8 -28 12 -87 11 -139 -3 -76 -7
-95 -26 -123 -32 -44 -149 -132 -177 -132 -18 0 -23 8 -33 60 -6 37 -23 79
-43 107 -19 29 -28 52 -23 58 35 46 74 112 74 127 0 20 36 38 74 38 13 0 43
13 67 30 24 16 48 28 54 27 5 -2 15 -26 22 -53z m-1173 20 c15 -39 -12 -239
-39 -291 -8 -16 -15 -36 -15 -45 0 -20 -26 -24 -33 -5 -2 6 -2 71 1 142 4 129
13 164 47 199 21 20 31 20 39 0z m-152 -226 c-3 -68 6 -118 36 -203 6 -16 21
-64 32 -105 12 -41 32 -98 46 -126 13 -28 24 -63 24 -77 0 -18 6 -27 21 -29
20 -3 52 -47 139 -195 31 -53 32 -73 4 -73 -24 0 -10 -24 17 -30 15 -4 25 -14
27 -27 3 -20 1 -21 -30 -12 -61 17 -114 11 -147 -17 -37 -31 -40 -60 -10 -139
26 -71 50 -84 117 -66 85 24 99 25 106 3 4 -10 10 -48 14 -84 7 -59 12 -68 47
-99 90 -79 96 -87 89 -114 -4 -17 -1 -32 9 -43 19 -21 31 -82 19 -99 -4 -7
-29 -17 -56 -22 -26 -5 -50 -11 -53 -14 -3 -4 2 -29 11 -56 9 -27 16 -54 16
-60 0 -6 14 -33 30 -60 22 -34 44 -56 74 -71 56 -27 86 -16 144 50 25 29 57
53 79 61 35 11 38 10 57 -15 66 -84 62 -81 112 -81 l48 0 27 -55 c41 -86 123
-154 242 -201 55 -21 108 -39 118 -39 11 0 27 -4 37 -9 21 -10 66 -24 152 -46
36 -9 99 -27 140 -40 41 -13 95 -26 119 -30 58 -9 151 -63 151 -86 0 -14 -48
-41 -77 -44 -16 -1 -59 -8 -98 -14 -85 -13 -370 -14 -428 -2 -57 13 -243 42
-292 46 -54 4 -265 32 -340 46 -67 11 -113 24 -165 44 -19 8 -78 30 -130 50
-52 21 -120 47 -150 60 -30 12 -89 35 -130 50 -98 36 -256 113 -271 131 -6 8
-15 14 -20 14 -18 0 -125 80 -173 130 -27 27 -53 50 -57 50 -25 0 -173 280
-204 386 -10 32 -27 79 -37 103 -17 39 -19 63 -16 191 3 158 10 180 54 180 31
0 31 17 0 32 -32 14 -39 33 -26 72 5 17 25 81 44 141 19 61 46 142 61 180 14
39 30 81 34 95 25 78 57 130 113 183 34 31 67 57 74 57 7 0 30 21 51 46 37 46
158 154 171 154 4 0 6 -33 4 -72z m568 26 c38 -98 9 -241 -61 -310 -43 -42
-157 -94 -206 -94 l-33 0 0 93 c-1 61 -6 100 -15 117 -8 14 -14 30 -15 37 0 7
31 21 70 33 38 11 82 32 99 45 16 14 33 25 37 25 5 0 27 18 49 40 47 46 62 49
75 14z m2496 -1 c4 -16 10 -33 15 -38 4 -6 11 -34 15 -62 6 -51 6 -53 -30 -85
-41 -36 -45 -48 -16 -48 14 0 20 -7 20 -21 0 -31 -102 -154 -114 -137 -1 1
-12 17 -25 35 -12 18 -44 45 -71 60 -53 30 -56 37 -39 93 8 26 31 51 87 96 42
33 88 77 101 97 29 44 48 47 57 10z m-306 -39 c12 -31 23 -71 22 -88 0 -17 -1
-42 -1 -56 -2 -71 -74 -190 -115 -190 -7 0 -20 17 -29 39 -9 21 -40 61 -67 90
-28 29 -50 57 -50 62 0 5 9 27 20 48 14 29 36 48 85 75 35 20 69 46 75 56 18
33 35 23 60 -36z m-4284 -42 c27 -26 76 -77 110 -112 33 -36 88 -90 123 -120
35 -30 82 -72 105 -93 l41 -39 2 -91 c2 -90 -20 -324 -32 -336 -4 -3 -23 4
-44 16 -43 25 -51 22 -51 -18 0 -37 -17 -80 -40 -101 -24 -22 -28 -16 -40 69
-13 94 -16 100 -54 107 -34 7 -83 -12 -106 -39 -7 -8 -18 -15 -25 -15 -7 0
-20 -11 -29 -25 -51 -79 -50 -70 -11 -96 19 -13 37 -31 40 -39 3 -8 20 -31 39
-50 51 -55 66 -91 66 -165 l0 -66 -49 7 c-53 7 -85 -7 -106 -47 -9 -16 -7 -30
11 -67 38 -80 74 -194 74 -234 0 -48 -20 -50 -61 -5 -16 17 -42 46 -58 62 -40
43 -96 134 -111 180 -7 22 -21 57 -31 77 -22 44 -60 250 -66 363 -5 81 33 357
58 422 6 15 10 30 11 33 0 3 5 19 12 35 7 17 16 48 20 69 4 22 18 54 32 71 13
18 24 38 24 46 0 8 18 66 40 129 22 63 40 116 40 118 0 12 26 -6 66 -46z
m2526 36 c8 -7 26 -29 39 -48 22 -32 24 -45 24 -140 0 -97 -2 -109 -28 -153
-24 -40 -32 -47 -54 -45 -21 2 -28 -2 -33 -21 -10 -44 -159 -83 -161 -43 -1 9
0 60 1 113 1 53 -2 105 -8 115 -5 11 -13 41 -16 67 -7 45 -5 50 25 78 36 34
143 88 175 89 11 0 27 -6 36 -12z m482 -24 c10 -26 7 -79 -6 -92 -8 -8 -8 -15
0 -25 15 -17 3 -59 -32 -120 -54 -92 -90 -99 -101 -20 -4 26 -18 69 -31 95
-13 26 -24 52 -24 58 0 6 17 29 38 51 34 35 76 55 143 68 4 0 10 -6 13 -15z
m215 -75 c7 -23 13 -85 14 -138 0 -83 -3 -103 -23 -143 -13 -26 -36 -60 -52
-75 -27 -26 -28 -26 -43 -7 -8 10 -15 33 -15 50 0 40 -18 90 -47 136 -24 35
-24 37 -9 82 9 26 16 53 16 61 0 14 111 75 136 75 6 0 16 -19 23 -41z m1727
25 c57 -27 84 -62 84 -108 0 -56 -27 -105 -76 -139 -52 -37 -73 -31 -113 31
-17 26 -36 55 -43 64 -11 15 -8 22 19 48 18 17 39 51 49 76 18 48 29 52 80 28z
m-3209 -109 c10 -29 11 -57 4 -115 -10 -73 -25 -130 -36 -130 -9 0 -61 123
-74 173 -10 42 -9 54 5 87 28 64 76 56 101 -15z m503 17 c0 -10 6 -24 13 -30
8 -9 12 -50 12 -130 0 -184 -42 -268 -159 -317 -39 -17 -86 -20 -86 -6 0 5 6
31 14 57 31 108 38 156 31 222 -6 66 -6 69 29 121 20 29 36 57 36 61 0 10 56
32 103 39 4 0 7 -7 7 -17z m1297 -9 c52 -78 67 -162 38 -213 -8 -14 -14 -37
-15 -52 -1 -70 -160 -163 -198 -115 -5 6 -16 30 -23 51 -8 21 -26 51 -41 65
-26 24 -28 32 -28 103 0 90 5 108 31 108 29 0 162 48 179 65 21 22 36 18 57
-12z m-743 -21 c13 -21 27 -58 31 -82 13 -71 6 -227 -11 -271 -24 -57 -122
-145 -186 -164 -100 -29 -95 -35 -100 128 l-5 142 28 33 c35 39 52 73 68 132
11 40 19 49 74 81 34 21 65 37 69 38 4 1 18 -16 32 -37z m1269 -29 c54 -52 70
-94 64 -174 -4 -69 -38 -152 -80 -197 -45 -48 -160 -112 -175 -97 -3 3 2 32
11 65 29 102 22 148 -43 315 -9 23 -9 37 0 60 12 29 12 29 21 8 8 -22 39 -23
39 -2 0 11 89 58 110 59 9 0 33 -17 53 -37z m329 -81 c26 -15 53 -71 58 -122
1 -14 3 -66 3 -115 0 -82 -3 -97 -32 -158 -50 -105 -136 -151 -152 -82 -34
138 -51 174 -100 205 -32 20 -39 29 -34 45 4 11 13 45 19 75 10 43 19 58 42
72 16 10 47 37 69 62 35 39 44 44 70 39 16 -3 42 -13 57 -21z m-3322 8 c0 -6
-7 -27 -15 -47 -8 -19 -15 -42 -15 -50 0 -8 -11 -37 -25 -65 -14 -27 -25 -57
-25 -67 0 -9 -4 -21 -9 -26 -8 -8 -61 -192 -61 -210 0 -9 -39 -5 -45 5 -3 6
-32 28 -63 49 -31 21 -106 86 -167 144 l-110 105 28 11 c16 6 43 11 60 11 49
0 208 44 237 65 19 14 58 32 135 61 69 27 75 28 75 14z m3574 -42 c37 -56 41
-86 26 -209 -10 -90 -16 -111 -47 -161 -39 -63 -58 -83 -89 -92 -19 -6 -24 0
-38 46 -14 45 -15 69 -7 153 5 56 7 112 4 125 -7 41 79 180 112 180 6 0 24
-19 39 -42z m-1600 -11 c29 -78 19 -194 -28 -309 -14 -34 -144 -168 -163 -168
-7 0 -15 6 -17 13 -3 6 -10 33 -17 60 -7 26 -16 47 -20 47 -4 0 -9 10 -13 22
-4 16 4 34 26 63 23 28 39 65 55 130 16 65 28 94 44 105 12 8 36 29 53 47 43
44 60 42 80 -10z m763 11 c4 -7 18 -42 30 -77 41 -115 24 -220 -48 -294 -21
-23 -39 -44 -39 -49 0 -16 -56 -58 -74 -56 -17 3 -19 11 -17 80 3 86 -10 120
-64 177 l-33 33 27 50 c22 42 39 59 106 99 85 52 99 56 112 37z m-1784 -106
c-2 -94 -29 -182 -57 -182 -9 0 -14 -11 -13 -33 1 -23 -7 -42 -25 -62 -30 -32
-43 -28 -67 24 -17 37 -58 107 -99 169 -22 33 -23 39 -11 75 14 43 30 53 99
62 25 3 70 16 100 29 33 13 59 19 65 14 6 -5 9 -48 8 -96z m3029 58 c22 -22
28 -35 22 -48 -4 -9 -7 -32 -7 -50 1 -20 -11 -58 -28 -92 -29 -57 -59 -84
-131 -116 -14 -7 -29 -21 -32 -31 -7 -19 -105 -85 -117 -78 -4 3 -10 21 -14
41 -5 32 -2 41 23 68 68 73 113 176 124 286 3 20 11 26 48 36 68 18 79 17 112
-16z m-1766 -113 c18 -29 42 -85 54 -126 39 -132 11 -232 -98 -349 -25 -26
-49 -41 -73 -46 -35 -6 -37 -5 -43 27 -8 41 -50 131 -80 172 -47 62 -49 73
-24 107 13 17 34 53 48 79 28 54 160 198 175 192 6 -2 24 -27 41 -56z m-795
-30 c7 -61 -7 -191 -21 -195 -5 -2 -10 -16 -10 -31 0 -30 -22 -66 -59 -96 -39
-31 -122 -75 -143 -75 -18 0 -19 6 -13 88 4 60 2 107 -8 152 -13 56 -13 68 -1
85 8 11 24 39 35 63 l21 42 67 0 c36 0 73 5 81 10 30 20 45 6 51 -43z m1074
-63 c55 -42 69 -119 41 -226 -14 -55 -47 -131 -69 -158 -29 -37 -197 -130
-235 -130 -9 0 -30 16 -46 37 l-29 36 40 36 c23 20 58 68 79 106 38 68 39 73
41 180 l2 110 28 6 c15 4 39 11 53 17 39 17 59 14 95 -14z m605 -26 c45 -61
64 -137 57 -225 -7 -87 -42 -157 -79 -158 -20 0 -24 -6 -28 -45 -5 -45 -5 -45
-65 -67 -69 -25 -105 -29 -105 -10 0 6 9 41 21 77 28 89 16 145 -53 247 -15
23 -28 46 -28 51 0 6 29 24 65 41 41 19 83 49 113 80 26 27 53 50 59 50 7 1
27 -18 43 -41z m-1966 -121 c16 -69 16 -76 -1 -127 -9 -30 -21 -58 -26 -61 -5
-4 -11 -21 -13 -38 -5 -42 -26 -80 -63 -115 -34 -33 -50 -29 -33 8 6 13 13 55
17 92 6 61 3 79 -24 154 -17 47 -31 90 -31 96 0 10 115 59 146 63 6 0 18 -32
28 -72z m565 7 c8 -16 19 -72 24 -125 10 -90 9 -98 -13 -141 -18 -36 -40 -57
-107 -102 -67 -44 -88 -54 -99 -45 -8 6 -14 19 -15 28 0 9 -17 67 -38 130 -29
85 -36 121 -30 140 5 14 11 37 13 51 5 24 11 26 85 36 61 8 88 17 113 37 39
31 48 30 67 -9z m1925 -19 c23 -35 20 -78 -6 -102 -27 -25 -141 -83 -163 -83
-10 0 -15 10 -15 35 0 29 6 38 48 66 26 18 50 37 54 43 19 30 51 66 58 66 4 0
15 -11 24 -25z m-2683 -40 c11 -28 19 -60 19 -72 0 -12 5 -25 10 -28 26 -16 2
-165 -33 -206 -25 -29 -40 -19 -50 29 -5 28 -17 48 -33 58 -26 18 -43 16 -117
-13 l-48 -18 -19 25 c-20 27 -32 72 -24 93 14 38 111 46 147 14 21 -19 56 -37
72 -37 17 0 22 64 6 74 -5 3 -12 22 -16 42 -5 31 -2 41 21 65 16 16 32 28 37
26 5 -1 18 -25 28 -52z m1862 -18 c73 -90 84 -166 38 -282 -18 -48 -34 -73
-51 -82 -56 -27 -130 -53 -151 -53 -19 0 -21 4 -16 30 4 16 9 58 13 92 6 59 4
67 -30 132 -20 38 -36 72 -36 76 0 4 15 15 34 24 19 9 56 36 83 61 26 24 55
44 64 45 9 0 32 -19 52 -43z m590 26 c3 -10 5 -49 6 -86 1 -99 -17 -114 -196
-167 -67 -20 -82 -14 -60 22 8 13 20 41 27 63 20 68 31 83 84 109 28 13 67 36
86 50 42 30 47 31 53 9z m-1487 -21 c6 -4 30 -33 52 -65 59 -84 71 -169 46
-315 -10 -62 -101 -156 -170 -177 -89 -27 -92 -25 -86 54 4 68 -3 108 -35 184
-14 33 -14 39 -1 55 24 29 58 118 58 155 0 31 5 38 43 60 24 14 49 33 57 41
14 18 20 19 36 8z m-508 -159 c58 -124 68 -214 33 -305 -18 -46 -32 -64 -73
-93 -51 -37 -94 -50 -114 -34 -9 7 -8 21 3 52 19 55 11 157 -17 204 -11 19
-20 40 -20 47 0 7 -9 21 -20 31 -11 10 -20 31 -20 46 0 26 9 33 88 73 48 25
92 45 98 45 5 1 24 -29 42 -66z m1188 -42 c19 -45 11 -143 -16 -199 -16 -33
-25 -40 -67 -49 -26 -7 -51 -8 -56 -4 -4 4 -1 24 7 43 13 29 13 47 4 99 -10
61 -10 63 14 83 13 12 35 36 47 54 27 38 42 32 67 -27z m-1411 -108 c34 -67
39 -88 40 -143 0 -36 -6 -80 -14 -98 l-14 -33 -65 3 c-69 3 -78 10 -111 85 -6
12 -23 29 -38 37 -15 8 -39 26 -53 41 l-25 27 24 19 c13 11 35 22 50 25 48 10
90 36 117 75 15 22 32 39 38 39 7 0 29 -35 51 -77z m973 35 c31 -39 54 -97 58
-152 5 -53 3 -64 -15 -83 -12 -13 -32 -23 -44 -24 -12 0 -55 -3 -94 -5 -41 -3
-73 -1 -73 4 0 5 11 30 25 54 14 25 29 67 34 94 5 27 17 66 25 87 14 30 21 37
45 37 16 0 33 -6 39 -12z m263 -39 c16 -31 5 -93 -23 -128 -28 -37 -103 -69
-126 -55 -15 10 -21 43 -25 134 -2 32 1 35 33 42 19 4 51 11 70 16 52 15 58
14 71 -9z m-742 -23 c6 -7 20 -41 31 -74 18 -54 19 -67 8 -107 -7 -26 -21 -51
-30 -56 -24 -13 -288 -25 -288 -14 0 5 13 23 28 40 16 16 39 55 51 86 19 49
28 59 69 78 26 12 58 31 72 41 30 23 44 25 59 6z"/>
<path d="M2207 4730 c-34 -29 -81 -135 -135 -300 -35 -109 -57 -385 -33 -414
6 -7 9 -25 8 -42 -2 -28 -1 -29 51 -32 39 -2 62 2 86 16 18 11 48 25 68 31 19
6 43 19 54 29 10 10 35 28 55 40 38 23 72 68 105 137 16 34 19 63 19 185 0
134 -15 240 -34 240 -3 0 -14 17 -24 39 -13 25 -36 48 -71 69 -66 41 -105 41
-149 2z m135 -45 c84 -78 113 -165 107 -326 -4 -96 -7 -111 -39 -173 -34 -65
-95 -126 -127 -126 -17 0 -17 4 6 48 43 85 55 238 25 311 -20 48 -72 101 -100
101 -29 0 -54 10 -54 22 0 17 42 103 67 136 31 41 76 44 115 7z m-98 -235 c21
-20 25 -63 13 -112 -15 -59 -121 -38 -139 27 -9 36 6 90 30 105 23 14 73 4 96
-20z"/>
</g>
</svg>
