<?xml version="1.0" standalone="no"?>
<!DOCTYPE svg PUBLIC "-//W3C//DTD SVG 20010904//EN"
 "http://www.w3.org/TR/2001/REC-SVG-20010904/DTD/svg10.dtd">
<svg version="1.0" xmlns="http://www.w3.org/2000/svg"
 width="800.000000pt" height="1026.000000pt" viewBox="0 0 800.000000 1026.000000"
 preserveAspectRatio="xMidYMid meet">
<metadata>
Created by potrace 1.16, written by Peter Selinger 2001-2019
</metadata>
<g transform="translate(0.000000,1026.000000) scale(0.100000,-0.100000)"
fill="#000000" stroke="none">
<path d="M4759 9770 c-117 -106 -119 -109 -119 -156 0 -39 -3 -44 -22 -44 -13
0 -42 -9 -65 -19 -52 -24 -75 -66 -77 -140 -1 -54 -14 -80 -41 -81 -12 0 -61
93 -71 135 -18 80 -58 115 -142 124 -49 5 -56 9 -73 40 -34 63 -76 101 -141
127 -53 21 -78 24 -178 24 -144 0 -175 -15 -202 -97 -9 -28 -31 -66 -48 -84
-20 -23 -30 -44 -30 -66 0 -33 -31 -73 -57 -73 -8 0 -24 10 -36 23 -31 33 -80
50 -129 45 -30 -3 -52 1 -73 14 -43 26 -84 22 -136 -10 -100 -65 -128 -117
-109 -207 16 -76 3 -93 -38 -55 -26 24 -93 50 -130 50 -27 0 -80 -15 -121 -34
-18 -8 -25 -8 -28 1 -12 35 -53 79 -96 101 -40 21 -49 31 -58 66 -14 55 -35
79 -98 111 -69 34 -268 55 -341 35 -51 -14 -113 -72 -124 -116 -11 -41 -24
-54 -58 -54 -30 0 -82 -23 -104 -45 -30 -30 -53 -88 -63 -158 -9 -65 -15 -79
-46 -110 -21 -21 -35 -45 -35 -60 0 -30 -15 -43 -61 -51 -30 -5 -42 -2 -67 19
-46 38 -137 57 -256 53 -115 -4 -152 -17 -175 -65 -13 -26 -27 -36 -69 -48
-35 -11 -66 -29 -92 -55 -22 -22 -52 -42 -67 -44 -16 -3 -37 -17 -48 -31 -14
-16 -41 -30 -79 -40 -69 -18 -76 -22 -76 -41 0 -12 307 -14 2325 -14 2289 0
2326 0 2364 20 41 20 71 75 71 126 0 15 13 41 30 61 33 37 35 48 19 103 -11
35 -9 41 18 76 65 83 62 158 -7 250 -21 28 -45 67 -53 87 -20 46 -59 72 -108
70 -32 -2 -41 3 -65 35 -48 66 -62 73 -134 70 l-64 -3 -8 39 c-13 60 -65 106
-120 106 -13 0 -36 7 -52 15 -50 26 -88 19 -137 -25z m111 -5 c7 -8 29 -15 49
-15 85 0 120 -54 107 -166 -3 -30 -4 -54 -2 -54 3 0 26 18 51 40 75 65 128 52
176 -42 20 -39 22 -40 60 -34 56 9 100 -16 112 -65 4 -14 18 -38 33 -55 33
-37 64 -101 64 -134 0 -28 -29 -80 -65 -116 -29 -29 -29 -27 -9 -65 21 -42 15
-83 -13 -87 -18 -3 -23 -10 -23 -35 -1 -56 -18 -109 -45 -136 l-25 -26 -2238
0 c-2181 0 -2237 0 -2240 19 -4 21 13 36 43 36 12 0 37 18 58 40 43 48 77 62
132 58 39 -3 40 -2 41 29 2 50 10 61 61 76 36 11 74 13 153 8 114 -8 155 -23
188 -68 l20 -27 41 19 c34 15 46 16 67 7 35 -17 34 -17 34 37 0 42 5 54 31 80
17 17 35 31 40 31 5 0 9 21 9 46 0 58 25 145 51 178 27 35 75 56 126 56 39 0
43 2 43 24 0 33 24 88 49 110 35 32 106 44 206 36 122 -10 169 -26 216 -73 32
-32 39 -46 39 -77 0 -36 3 -39 38 -51 77 -25 120 -78 110 -134 -6 -29 12 -34
35 -10 23 22 113 55 153 55 51 0 105 -32 134 -79 14 -22 32 -40 39 -38 23 3
40 117 28 178 -8 42 -7 55 9 84 10 19 21 35 24 35 4 0 15 8 26 19 48 44 102
53 143 24 17 -11 41 -16 77 -14 66 3 102 -16 139 -76 16 -23 31 -43 36 -43 4
0 12 15 19 34 7 22 21 38 39 46 26 10 28 15 24 54 -5 38 -2 45 30 76 23 21 38
46 42 69 13 75 46 92 173 93 107 0 167 -12 217 -45 36 -24 67 -68 75 -107 5
-22 11 -26 65 -31 98 -9 125 -30 145 -109 6 -25 20 -59 31 -76 27 -44 25 -96
-6 -132 -14 -17 -25 -37 -25 -46 0 -25 37 -56 69 -56 28 0 28 1 33 72 5 59 9
74 28 88 13 10 31 15 41 13 21 -6 21 -7 19 92 -1 58 2 74 19 92 24 25 87 45
128 41 21 -2 27 1 24 12 -21 89 -8 124 56 157 21 11 44 32 51 46 15 30 52 36
72 12z"/>
<path d="M6107 9003 c-11 -3 -27 -12 -38 -21 -21 -18 -90 -58 -169 -99 -30
-15 -56 -31 -58 -35 -2 -5 -10 -8 -18 -8 -8 0 -14 -4 -14 -10 0 -5 -6 -10 -14
-10 -8 0 -23 -20 -35 -45 -48 -101 -12 -257 79 -344 152 -146 180 -175 180
-183 0 -6 -8 -7 -17 -3 -10 3 -90 31 -178 61 -225 76 -317 74 -395 -7 -45 -47
-56 -81 -63 -189 -9 -124 -23 -235 -31 -249 -5 -8 -195 -11 -672 -11 l-664 0
0 83 c0 71 -4 88 -29 132 -91 162 -123 215 -129 219 -13 8 -25 -5 -85 -89 -31
-44 -60 -84 -64 -90 -5 -5 -19 -26 -33 -45 -13 -19 -27 -37 -32 -40 -4 -3 -8
-41 -10 -85 l-3 -80 -67 -3 -68 -3 0 83 c0 67 -4 90 -22 118 -21 35 -49 85
-85 150 -31 59 -55 90 -67 90 -6 0 -36 -36 -65 -80 -30 -44 -61 -88 -70 -98
-57 -64 -66 -86 -71 -172 l-5 -85 -85 0 -85 0 -3 83 c-2 45 -7 82 -12 82 -6 0
-10 7 -10 15 0 8 -3 15 -8 15 -4 0 -12 9 -17 19 -59 114 -145 246 -160 245 -9
-1 -34 -41 -108 -174 -17 -30 -39 -68 -49 -85 -14 -23 -18 -51 -18 -117 l0
-88 -70 0 -70 0 0 71 c0 65 -3 76 -43 140 -86 141 -103 169 -134 223 -18 30
-36 57 -42 60 -11 7 -37 -36 -70 -114 -13 -30 -39 -89 -59 -130 -31 -63 -37
-89 -42 -160 l-5 -85 -65 0 -65 0 -7 77 c-7 73 -25 117 -73 175 -5 7 -16 19
-22 27 -7 8 -13 18 -13 21 0 11 -120 185 -128 185 -8 0 -10 -5 -72 -155 -22
-55 -46 -109 -53 -120 -7 -12 -12 -59 -12 -115 l0 -95 -74 -3 c-41 -2 -78 1
-82 5 -5 5 -11 42 -15 83 -4 41 -10 77 -14 80 -11 7 -168 259 -183 293 -6 15
-16 26 -22 24 -12 -4 -32 -46 -90 -182 -9 -22 -28 -64 -41 -94 -23 -48 -24
-62 -18 -132 l7 -79 -79 0 c-44 0 -84 4 -91 8 -6 4 -15 32 -19 62 -9 73 -15
83 -99 174 -6 6 -22 27 -35 46 -29 41 -45 62 -82 104 -30 34 -37 31 -58 -24
-13 -34 -33 -83 -51 -125 -4 -11 -20 -47 -34 -80 -22 -50 -25 -69 -20 -112 l6
-53 -65 0 -65 0 -25 53 c-14 28 -39 66 -56 84 -16 18 -30 34 -30 37 0 3 -10
18 -23 32 -43 51 -49 56 -60 45 -11 -11 16 -56 69 -116 57 -65 72 -98 85 -190
6 -49 15 -112 19 -140 9 -59 -3 -75 -59 -75 -73 0 -111 -11 -111 -32 0 -14 5
-18 18 -14 9 2 69 10 132 15 63 6 149 16 190 21 224 28 741 64 1320 90 124 5
275 12 335 15 208 9 1880 17 1950 8 l70 -8 5 -73 c3 -41 1 -76 -3 -79 -9 -6
-156 -10 -652 -18 -192 -3 -381 -8 -420 -11 -38 -2 -200 -9 -360 -14 -159 -6
-360 -15 -445 -20 -85 -6 -234 -15 -330 -20 -96 -6 -224 -14 -285 -19 -60 -5
-168 -14 -240 -20 -71 -6 -182 -15 -245 -21 -63 -6 -169 -15 -235 -20 -119
-10 -352 -36 -575 -65 -63 -8 -141 -17 -173 -20 -49 -6 -57 -9 -57 -27 0 -17
4 -19 27 -13 55 13 188 24 196 16 5 -5 11 -26 14 -47 3 -22 22 -156 43 -299
20 -143 36 -262 34 -264 -2 -2 -59 -10 -126 -18 -106 -12 -124 -12 -133 0 -6
8 -19 60 -29 116 -10 55 -22 101 -27 101 -12 0 -11 -78 3 -161 8 -50 8 -73 0
-81 -6 -6 -8 -16 -6 -22 4 -9 22 -10 72 -4 37 5 103 13 147 18 199 24 724 66
945 76 85 3 166 7 180 9 30 3 324 13 605 20 360 9 1334 7 1352 -4 19 -10 26
-6 -77 -48 -25 -10 -85 -37 -133 -60 -49 -24 -95 -43 -102 -43 -8 0 -21 13
-30 30 -24 47 -57 63 -118 58 -56 -5 -111 -36 -188 -105 l-37 -34 -303 -9
c-167 -6 -430 -17 -584 -25 l-280 -15 -51 53 c-131 133 -225 174 -300 128 -37
-23 -61 -70 -72 -142 l-7 -54 -50 -6 c-28 -4 -95 -10 -150 -13 -111 -7 -280
-21 -455 -37 -63 -5 -164 -14 -223 -20 -109 -9 -153 -22 -142 -40 4 -5 24 -9
46 -9 37 0 39 -1 40 -32 0 -18 12 -91 27 -163 l27 -130 50 3 c129 6 247 26
253 41 3 8 -3 67 -13 130 -10 64 -18 132 -19 151 -1 34 0 35 49 42 72 11 93 4
99 -35 3 -17 13 -85 23 -150 9 -64 20 -121 23 -127 3 -5 33 -5 75 1 39 5 103
12 143 16 52 4 75 11 81 22 5 9 3 53 -5 106 -7 50 -13 113 -14 141 0 50 1 52
31 58 43 8 89 8 89 -1 6 -204 11 -263 30 -353 33 -154 33 -152 11 -187 l-21
-33 -150 0 c-222 0 -318 -18 -450 -85 -90 -46 -153 -118 -187 -215 -31 -87 4
-190 91 -266 82 -71 250 -145 411 -180 39 -9 40 -10 39 -49 -1 -22 -5 -132 -8
-245 -8 -225 -5 -215 -76 -252 -30 -15 -27 -14 -110 -78 -36 -28 -82 -72 -103
-98 -21 -26 -45 -56 -54 -66 -46 -56 -93 -193 -93 -271 0 -56 35 -186 72 -265
142 -310 528 -512 1083 -570 141 -14 145 -15 145 -48 0 -85 -8 -97 -87 -142
-99 -57 -123 -89 -123 -165 0 -59 27 -126 60 -152 9 -6 35 -31 59 -55 44 -43
44 -43 18 -46 -14 -2 -35 2 -47 8 -40 21 -143 50 -181 50 -50 0 -82 -13 -120
-50 -31 -29 -32 -34 -47 -170 -15 -129 -15 -142 1 -174 9 -20 35 -48 58 -63
39 -26 50 -28 133 -27 58 0 122 8 177 22 92 23 119 27 119 14 0 -4 -11 -14
-24 -22 -13 -8 -49 -37 -80 -65 -153 -134 -166 -152 -166 -233 0 -69 18 -98
84 -139 22 -14 64 -43 93 -65 89 -68 170 -62 249 19 28 30 46 58 50 82 4 20
10 41 14 46 4 6 15 35 24 65 25 87 33 91 43 24 13 -97 7 -545 -11 -679 -18
-142 -50 -355 -71 -478 -25 -148 -25 -150 55 -120 63 23 66 26 83 96 58 230
95 587 83 809 -3 64 -2 119 2 122 5 3 21 -4 38 -15 36 -23 104 -25 150 -3 19
9 34 19 34 23 0 3 18 17 40 31 22 14 40 28 40 32 0 5 6 8 13 8 8 0 33 18 57
41 42 40 42 41 38 97 -6 90 -39 145 -120 204 -43 31 -66 54 -60 60 6 6 43 1
98 -13 117 -30 210 -31 245 -4 61 46 69 73 69 220 0 102 -4 143 -15 165 -9 17
-19 30 -23 30 -5 0 -18 9 -30 21 -15 14 -43 23 -85 27 -61 7 -62 8 -61 37 0
17 8 55 17 85 9 30 25 89 37 130 38 136 62 210 69 210 4 0 22 -19 39 -43 18
-23 41 -48 53 -55 20 -13 20 -20 19 -360 -1 -363 5 -455 40 -561 49 -145 129
-223 261 -250 147 -30 317 77 403 255 30 61 40 98 56 211 45 312 43 301 65
283 20 -17 187 -49 370 -71 181 -22 376 -22 553 1 46 6 91 8 100 5 9 -3 34
-33 54 -68 55 -92 134 -164 228 -209 36 -16 162 -22 203 -9 45 15 119 85 145
137 30 60 52 165 52 249 0 80 6 105 24 105 18 0 158 62 293 129 67 34 125 61
128 61 3 0 42 23 86 50 44 28 85 48 89 45 5 -3 9 -71 9 -151 2 -249 41 -382
143 -481 84 -82 231 -103 339 -50 144 70 253 232 273 407 4 30 13 105 21 165
46 355 60 592 45 781 -6 78 -15 156 -20 174 -10 37 -7 48 36 115 28 45 99 187
135 273 8 17 18 32 24 32 13 0 60 -102 75 -165 7 -27 16 -95 20 -150 13 -161
39 -387 50 -432 11 -47 40 -125 49 -133 4 -3 15 -22 26 -43 34 -65 147 -174
212 -205 l35 -17 64 70 c102 109 151 211 161 331 13 166 -53 292 -239 447 -48
41 -57 54 -62 90 -15 104 -39 223 -47 237 -5 8 -14 26 -20 40 -35 85 -71 141
-120 192 -32 32 -63 58 -71 58 -8 0 -23 9 -32 19 -15 17 -16 28 -7 96 15 106
13 244 -4 345 -8 47 -17 103 -21 125 -3 22 -17 73 -30 113 -13 40 -24 77 -24
83 0 6 -7 26 -15 45 -8 19 -22 50 -31 70 -8 19 -14 49 -13 67 4 35 -7 214 -21
372 -5 55 -14 165 -20 245 -18 229 -39 484 -51 620 -16 175 -16 174 51 181 70
7 94 18 150 69 25 22 65 52 90 67 25 14 47 29 50 32 3 3 22 19 44 35 82 61 96
166 39 287 -37 77 -48 91 -138 157 -38 28 -74 55 -80 60 -5 4 -26 19 -45 32
-44 30 -64 50 -58 55 2 3 42 -6 89 -19 46 -14 114 -32 152 -40 37 -9 97 -23
135 -32 107 -26 191 -10 252 47 41 39 61 77 67 129 l6 50 101 2 c194 4 191 4
191 19 0 11 -30 15 -150 19 l-150 5 0 140 c0 118 -3 145 -18 170 -58 96 -241
142 -376 96 -83 -29 -211 -68 -251 -76 -32 -7 -29 -3 40 52 41 32 107 83 145
113 39 30 76 62 83 71 7 10 18 24 26 31 39 39 59 124 45 189 -13 59 -45 102
-101 138 -23 15 -50 34 -58 42 -8 8 -40 34 -70 59 -30 25 -57 48 -60 51 -12
16 -92 49 -117 49 -61 0 -127 -34 -194 -100 -54 -53 -70 -77 -88 -130 -12 -36
-26 -74 -31 -85 -5 -11 -19 -45 -30 -75 -45 -113 -38 -104 -63 -87 -15 10 -29
39 -45 98 -22 80 -37 133 -64 224 -24 80 -75 142 -140 170 -35 14 -120 19
-161 8z m162 -48 c55 -28 99 -99 121 -195 7 -30 24 -91 37 -135 33 -111 62
-260 56 -285 -3 -12 -16 -22 -32 -26 -108 -22 -163 -47 -220 -104 -28 -28 -47
-39 -59 -36 -16 6 -76 61 -263 243 -72 69 -91 94 -110 146 -30 77 -30 152 -1
199 23 36 34 44 137 98 39 21 102 56 140 79 64 39 74 42 119 36 27 -3 61 -12
75 -20z m721 -36 c19 -12 46 -32 60 -45 54 -50 87 -77 141 -114 66 -46 97 -90
105 -151 10 -81 -33 -148 -161 -244 -41 -30 -80 -61 -87 -68 -28 -28 -208
-147 -222 -147 -8 0 -36 22 -60 48 -50 53 -130 98 -195 108 -23 4 -44 10 -46
15 -5 7 23 94 45 144 5 11 19 45 30 75 11 30 25 64 29 75 5 11 22 56 37 100
60 169 217 269 324 204z m-1290 -608 c132 -38 398 -144 448 -179 9 -6 7 -18
-10 -53 -20 -39 -23 -59 -23 -170 l1 -126 -236 -47 c-129 -26 -247 -47 -263
-46 -41 0 -134 36 -173 65 -54 41 -68 77 -59 154 3 36 10 116 14 176 5 62 15
125 24 146 14 32 68 78 107 92 32 11 108 6 170 -12z m899 -51 c143 -52 227
-160 238 -307 8 -104 -23 -188 -97 -264 -73 -74 -132 -101 -235 -107 -74 -4
-86 -2 -150 27 -39 18 -83 44 -99 59 -63 60 -116 173 -116 250 0 242 242 422
459 342z m-5448 -60 c18 -33 37 -60 42 -60 4 0 7 -5 7 -10 0 -6 16 -37 36 -68
48 -75 53 -94 60 -249 6 -109 4 -133 -7 -137 -8 -2 -71 -7 -140 -11 l-127 -6
-6 33 c-3 18 -11 95 -17 171 -12 151 -15 133 51 282 10 22 25 57 33 78 9 20
20 37 25 37 4 0 24 -27 43 -60z m510 41 c9 -10 18 -22 20 -27 7 -16 123 -189
131 -194 14 -10 27 -96 30 -202 1 -59 0 -109 -2 -112 -3 -2 -68 -6 -145 -8
l-140 -3 -18 150 -18 149 41 101 c22 55 45 108 50 117 6 10 10 25 10 33 0 21
22 19 41 -4z m539 10 c0 -5 23 -43 50 -85 28 -42 50 -79 50 -83 0 -3 10 -20
23 -37 13 -17 27 -40 31 -51 7 -19 10 -264 3 -271 -1 -2 -68 -6 -149 -10
l-146 -7 -6 69 c-4 38 -7 105 -8 149 -1 85 -5 74 95 287 14 30 28 48 40 48 9
0 17 -4 17 -9z m566 -64 c7 -9 14 -20 14 -22 0 -3 23 -42 50 -86 l50 -81 0
-133 0 -133 -27 -6 c-16 -2 -78 -5 -139 -5 -81 -1 -114 2 -122 12 -7 8 -12 66
-13 145 -1 130 0 133 31 193 40 77 66 123 87 156 l17 25 18 -23 c11 -13 26
-32 34 -42z m4721 31 c35 -13 62 -32 83 -58 l30 -38 0 -193 -1 -194 -27 -39
c-48 -69 -73 -81 -165 -81 -92 0 -221 30 -429 98 -140 45 -139 44 -113 117 8
23 15 64 15 89 0 26 -7 73 -15 104 -18 71 -19 77 -1 77 8 0 16 3 18 8 2 4 30
14 63 23 33 9 125 37 205 62 80 25 156 47 170 49 40 7 111 -3 167 -24z m-4138
-53 c15 -27 42 -72 59 -99 l32 -50 0 -143 0 -143 -122 -1 c-126 -1 -170 0
-177 6 -7 7 0 280 8 285 4 3 38 49 75 103 42 60 74 97 83 95 8 -2 27 -25 42
-53z m502 33 c11 -11 19 -25 19 -29 0 -5 20 -41 45 -81 l45 -72 0 -142 c0
-120 -2 -143 -16 -148 -9 -3 -69 -6 -134 -6 -65 0 -125 3 -134 6 -14 5 -16 27
-16 143 0 118 2 140 18 157 10 10 38 48 61 83 45 66 81 111 89 111 3 0 13 -10
23 -22z m-3243 -75 c33 -43 70 -89 82 -103 40 -45 50 -77 61 -198 13 -151 11
-187 -16 -188 -227 -17 -252 -17 -259 2 -9 23 -46 265 -46 301 0 13 11 48 24
76 13 29 31 72 41 97 9 25 21 55 26 68 5 12 13 22 18 22 6 0 37 -35 69 -77z
m-201 -330 c6 -8 14 -50 18 -95 9 -95 5 -99 -75 -96 l-55 3 -8 55 c-4 30 -11
72 -16 92 -9 40 -5 52 19 60 27 9 105 -4 117 -19z m1097 -7 c3 -11 7 -37 10
-57 l4 -37 -45 -6 c-62 -8 -121 -8 -126 2 -3 4 -7 32 -8 62 l-4 55 55 5 c81 7
109 1 114 -24z m505 20 c7 -8 11 -33 9 -56 l-3 -42 -60 -2 c-68 -4 -75 1 -75
61 0 35 3 42 23 46 49 9 95 6 106 -7z m1069 8 c18 -5 22 -13 22 -45 0 -35 -3
-39 -33 -44 -18 -4 -57 -5 -87 -3 l-55 3 -3 42 -3 42 63 4 c35 2 65 4 68 5 3
1 15 -1 28 -4z m2303 -47 c29 -48 81 -78 174 -102 76 -19 89 -19 193 4 237 54
324 71 349 71 l28 -1 -25 -19 c-14 -11 -29 -23 -35 -28 -81 -61 -109 -84 -160
-131 -33 -31 -86 -78 -117 -106 -113 -99 -142 -209 -82 -314 17 -30 44 -62 60
-70 48 -27 86 -52 151 -103 102 -78 122 -88 185 -88 31 0 59 -3 61 -7 5 -8 -7
-291 -19 -461 l-6 -84 -26 7 c-15 4 -29 10 -32 13 -9 13 -188 96 -284 133 -28
11 -60 24 -71 29 -11 5 -47 18 -80 30 -33 11 -69 25 -80 30 -11 5 -38 14 -60
20 -22 6 -49 15 -60 20 -11 4 -54 18 -95 30 -41 11 -95 27 -120 35 -25 8 -119
29 -210 48 -302 64 -449 79 -780 81 l-265 1 4 180 c2 99 6 250 10 335 l6 155
74 3 74 3 -6 110 c-4 61 -9 114 -12 120 -4 5 -33 9 -66 9 l-59 0 0 44 c0 34 4
45 17 48 9 2 314 2 677 0 l661 -3 26 -42z m-4414 16 c4 -16 7 -50 7 -78 l1
-50 -75 -6 c-41 -3 -80 -4 -87 -2 -10 4 -24 137 -15 156 2 4 39 7 82 7 78 0
80 0 87 -27z m5230 -106 c48 -54 118 -98 189 -118 37 -10 69 -21 72 -24 6 -5
-25 -127 -47 -190 -6 -16 -27 -81 -46 -144 -41 -130 -52 -152 -97 -201 -42
-46 -93 -76 -142 -84 -30 -6 -49 -2 -92 19 -30 15 -54 31 -54 36 0 5 -7 9 -15
9 -8 0 -15 5 -15 10 0 6 -7 10 -15 10 -8 0 -15 3 -15 8 0 4 -18 18 -40 32 -22
14 -40 28 -40 31 0 4 -11 10 -24 13 -79 20 -131 158 -90 239 24 48 211 227
326 313 32 23 65 49 73 58 24 24 40 20 72 -17z m750 -61 c97 -72 139 -104 190
-146 7 -6 16 -10 20 -10 12 -1 66 -79 85 -125 20 -46 23 -137 7 -167 -16 -29
-46 -58 -99 -93 -25 -16 -82 -57 -126 -91 -113 -85 -173 -93 -257 -36 -48 32
-78 84 -139 236 -27 67 -52 130 -57 141 -17 40 -61 180 -61 195 0 10 18 19 51
27 80 19 150 57 199 106 25 25 52 45 60 46 8 0 65 -37 127 -83z m-3327 -507
l0 -359 -27 -11 c-15 -5 -52 -9 -82 -7 l-56 3 4 360 c2 198 5 362 8 365 6 6
135 17 146 12 4 -2 7 -165 7 -363z m330 228 c0 -79 -3 -232 -7 -340 -5 -167
-9 -197 -22 -201 -22 -7 -220 -36 -243 -36 -17 0 -18 18 -18 353 0 195 3 357
7 360 3 4 69 7 145 7 l138 0 0 -143z m-529 -232 c-2 -251 -7 -362 -15 -367 -9
-6 -256 0 -264 7 -2 1 -4 658 -3 702 1 16 44 20 176 19 l110 -1 -4 -360z
m-546 -1 c0 -187 -4 -345 -8 -351 -7 -9 -45 -13 -132 -13 -108 0 -123 2 -127
18 -3 9 -5 100 -6 202 -1 102 -5 251 -8 331 l-7 147 124 9 c68 5 133 6 144 2
19 -6 20 -15 20 -345z m225 -4 l0 -360 -95 0 -95 0 0 345 c1 190 3 352 7 360
4 12 25 15 94 15 l89 0 0 -360z m-552 331 c9 -5 13 -29 12 -77 -1 -38 1 -192
5 -341 l8 -273 -76 0 -77 0 0 173 c-1 94 -5 246 -10 337 -9 149 -8 166 7 178
19 13 111 16 131 3z m3967 -59 c9 -31 22 -70 29 -87 28 -60 45 -102 72 -170
44 -111 104 -196 150 -215 19 -8 23 -19 28 -92 4 -46 13 -159 21 -253 25 -295
44 -533 60 -750 8 -115 17 -222 20 -237 2 -15 1 -30 -4 -32 -8 -6 -71 87 -71
105 0 5 -4 9 -10 9 -5 0 -10 5 -10 10 0 33 -199 278 -323 399 -32 31 -81 79
-109 106 -28 28 -80 68 -117 91 l-66 41 0 119 c1 65 5 200 9 299 l9 180 31 25
c54 43 107 104 122 140 15 34 79 234 94 295 14 54 30 86 40 80 5 -3 17 -32 25
-63z m-4150 48 c8 -14 26 -628 19 -656 -5 -19 -14 -22 -105 -27 -55 -4 -113
-4 -128 -1 l-27 6 -12 141 c-13 156 -26 391 -27 477 l0 55 85 6 c148 9 189 9
195 -1z m-321 -52 c5 -42 18 -249 32 -510 l7 -128 -54 0 c-30 0 -59 4 -66 8
-11 7 -21 125 -43 497 -5 77 -6 148 -4 158 4 14 17 17 64 17 l59 0 5 -42z
m-170 -25 c4 -32 13 -155 21 -273 8 -118 18 -242 21 -276 l6 -61 -123 -6 c-93
-5 -126 -4 -135 5 -7 7 -17 67 -24 133 -14 143 -25 252 -40 399 -6 59 -9 110
-6 113 6 6 143 19 223 22 l51 1 6 -57z m-324 30 c0 -5 9 -87 20 -183 11 -96
25 -224 30 -285 6 -60 13 -124 16 -141 3 -18 2 -34 -3 -37 -4 -3 -47 -8 -95
-12 -79 -7 -87 -6 -97 13 -10 19 -22 143 -41 438 -5 78 -12 153 -16 168 -5 21
-2 26 18 30 69 15 168 20 168 9z m-216 -65 c5 -51 17 -209 35 -463 5 -66 6
-123 2 -128 -4 -4 -62 -10 -128 -13 -90 -5 -122 -3 -128 6 -4 7 -11 60 -16
119 -4 58 -13 151 -19 206 -23 216 -28 290 -21 298 8 8 136 24 218 26 l52 1 5
-52z m-288 -293 c17 -170 28 -313 25 -317 -3 -3 -37 -8 -74 -10 -55 -2 -70 0
-77 13 -5 9 -14 61 -20 115 -5 54 -17 158 -25 229 -30 250 -30 256 -9 272 13
9 40 13 84 11 l65 -3 31 -310z m-240 284 c3 -6 13 -70 20 -143 8 -72 24 -207
35 -299 11 -93 19 -170 17 -172 -4 -4 -201 -25 -233 -25 -26 0 -31 16 -55 180
-6 41 -15 98 -20 125 -15 89 -40 269 -40 293 0 28 8 31 111 41 125 12 157 12
165 0z m-321 -29 c3 -5 15 -69 26 -142 43 -288 68 -462 66 -464 -1 -1 -29 -7
-62 -13 -74 -14 -84 -6 -95 80 -4 35 -22 162 -40 282 -17 120 -30 225 -28 234
5 27 119 46 133 23z m3927 -500 c212 -14 223 -18 159 -54 -88 -49 -269 -193
-349 -276 -97 -101 -187 -256 -217 -375 -18 -69 -20 -233 -4 -284 37 -118 57
-163 106 -245 77 -129 202 -252 323 -317 25 -13 47 -27 50 -31 4 -5 92 -47
165 -79 187 -81 466 -129 746 -129 180 0 250 10 379 55 102 36 267 118 310
155 19 16 37 30 40 30 6 0 101 94 140 140 42 50 105 174 126 250 23 81 26 361
5 423 -8 22 -9 43 -4 48 9 9 147 -127 213 -209 19 -24 45 -56 58 -70 22 -26
103 -146 153 -227 105 -169 181 -381 218 -606 14 -86 14 -328 0 -384 l-11 -44
-63 2 c-35 1 -67 -1 -70 -5 -10 -9 -40 -276 -33 -283 3 -3 18 -8 34 -11 16 -3
33 -9 38 -14 10 -10 -24 -130 -36 -130 -5 0 -8 -6 -8 -13 0 -20 -69 -150 -134
-252 -31 -50 -62 -99 -69 -110 -6 -11 -15 -22 -18 -25 -3 -3 -10 -12 -15 -21
-10 -19 -46 -64 -155 -193 -127 -152 -460 -476 -489 -476 -5 0 -33 7 -62 15
-316 87 -414 107 -693 141 -169 20 -593 24 -725 6 -220 -31 -392 -67 -520
-109 -41 -13 -93 -29 -115 -35 -22 -6 -42 -14 -45 -17 -3 -3 -23 -12 -45 -20
-93 -31 -332 -155 -436 -225 -131 -89 -126 -89 -245 -18 -43 27 -90 54 -104
62 -14 8 -27 17 -30 20 -3 3 -37 27 -77 53 -39 26 -83 59 -97 73 -37 38 -146
200 -146 218 0 18 12 21 145 36 375 41 652 173 838 399 9 12 17 24 17 27 0 3
10 20 23 37 12 17 31 53 42 80 l20 49 120 -1 c205 -3 348 53 486 190 85 84
143 186 174 309 27 103 16 271 -24 375 -75 195 -217 331 -415 397 -106 36
-307 35 -401 -1 -108 -41 -231 -120 -278 -179 -10 -12 -25 -29 -33 -36 -8 -8
-14 -19 -14 -25 0 -6 -4 -11 -9 -11 -5 0 -12 -8 -15 -17 -3 -10 -19 -42 -35
-72 -35 -64 -33 -68 -51 114 -7 66 -19 154 -27 195 -8 41 -17 98 -20 125 l-5
50 57 35 c31 19 63 40 73 45 54 32 146 101 197 147 58 53 135 148 135 168 0 5
5 10 10 10 6 0 10 10 10 22 0 12 5 36 12 54 9 24 8 42 -1 76 -15 52 -58 84
-161 118 -57 19 -80 21 -190 17 -127 -5 -123 -4 -293 -69 -38 -14 -43 -5 -24
39 37 88 52 211 52 420 l0 202 95 45 c220 103 374 153 575 187 135 22 284 38
390 42 44 2 90 4 102 5 12 1 90 -3 175 -8z m385 -40 c26 -5 89 -16 138 -25 99
-19 294 -65 365 -88 25 -8 99 -31 165 -51 66 -21 133 -44 148 -52 16 -8 37
-14 48 -14 10 0 19 -4 19 -10 0 -5 6 -10 13 -10 14 0 128 -46 222 -90 33 -15
83 -38 110 -51 28 -12 52 -26 55 -29 3 -4 28 -18 55 -31 94 -48 174 -104 184
-129 37 -94 65 -292 55 -394 -27 -290 -200 -506 -514 -644 -41 -18 -84 -37
-95 -42 -11 -4 -58 -19 -105 -31 -74 -21 -108 -24 -265 -23 -205 0 -453 27
-507 55 -10 5 -26 9 -35 9 -30 0 -193 59 -283 102 -126 60 -215 122 -310 218
-103 102 -156 188 -210 340 -30 84 -33 223 -6 325 19 71 71 187 87 193 5 2 9
10 9 18 0 8 5 14 10 14 6 0 10 5 10 10 0 29 257 283 304 299 6 2 13 7 16 10 3
4 30 22 60 42 30 19 73 47 95 61 44 29 85 34 162 18z m-3483 -152 c61 -33 176
-151 240 -247 31 -47 56 -91 56 -98 0 -7 -10 -17 -22 -22 -128 -49 -266 -140
-349 -230 -64 -69 -69 -68 -87 14 -47 212 -35 492 24 583 19 30 82 30 138 0z
m1682 -17 c20 -30 29 -64 40 -143 17 -127 17 -180 3 -283 -12 -90 -46 -249
-59 -280 -4 -11 -11 -28 -14 -37 -9 -31 -32 -20 -74 35 -34 45 -77 90 -157
166 -30 28 -150 108 -174 116 -39 12 -43 38 -13 86 16 24 31 51 35 59 11 24
30 52 55 79 12 14 22 29 22 32 0 4 28 36 63 71 93 96 154 136 214 137 27 1 37
-6 59 -38z m-418 -164 c3 -45 -21 -108 -54 -144 -6 -6 -17 -25 -24 -42 -15
-37 -47 -42 -55 -8 -2 12 -6 69 -7 126 -3 104 -3 105 22 112 14 4 45 7 70 6
l45 -2 3 -48z m-178 -67 c0 -81 -3 -110 -12 -110 -7 0 -48 9 -92 20 -43 11
-89 20 -101 20 -33 0 -43 17 -50 87 -11 96 -15 93 130 93 l125 0 0 -110z
m-300 80 c6 -11 10 -46 8 -77 l-3 -57 -50 3 c-27 1 -54 7 -59 11 -5 5 -11 35
-14 66 -5 65 2 74 65 74 32 0 45 -5 53 -20z m-156 -57 c4 -36 3 -69 -1 -73
-10 -9 -222 -32 -233 -25 -9 6 -21 131 -14 150 5 12 29 15 124 15 l117 0 7
-67z m-1022 -48 c19 -154 21 -215 7 -219 -8 -2 -57 -9 -109 -14 -116 -14 -119
-12 -131 89 -5 41 -12 97 -15 125 -5 38 -3 54 7 60 17 11 116 22 184 20 l50
-1 7 -60z m-477 13 c8 -24 28 -183 29 -233 1 -48 0 -49 -32 -56 -18 -4 -70
-10 -116 -14 l-82 -6 -13 68 c-7 37 -20 101 -28 142 -9 46 -11 77 -5 83 10 10
116 25 195 27 30 1 49 -4 52 -11z m1800 -103 c176 -41 335 -116 445 -210 245
-208 398 -485 480 -870 30 -139 63 -413 51 -427 -5 -5 -84 18 -151 45 -25 10
-132 36 -216 52 -240 46 -591 59 -934 35 -163 -11 -200 -15 -395 -45 -149 -23
-404 -104 -551 -176 -45 -21 -84 -39 -88 -39 -3 0 -6 66 -5 148 0 181 28 438
60 563 6 24 13 58 15 74 3 17 9 39 14 50 5 11 23 61 41 110 32 91 107 247 121
253 4 2 8 8 8 14 0 28 145 191 229 257 81 64 249 141 355 162 154 31 396 33
521 4z m1285 -364 c36 -13 80 -34 99 -48 32 -25 33 -28 28 -79 -7 -70 -48
-145 -117 -214 -54 -55 -127 -116 -159 -134 -9 -5 -18 -13 -21 -16 -11 -16
-161 -101 -171 -98 -6 2 -30 62 -54 133 -38 113 -116 283 -148 323 -7 9 -7 20
1 36 8 18 36 34 108 62 54 21 123 43 153 50 79 18 203 12 281 -15z m-2507 -87
c37 -7 49 -27 28 -49 -14 -16 -91 -204 -91 -223 0 -10 -4 -22 -8 -27 -13 -15
-65 -231 -77 -317 -7 -57 -22 -71 -61 -59 -16 5 -63 19 -104 31 -97 29 -130
43 -216 96 -94 58 -132 104 -154 183 -9 36 -8 51 6 92 10 28 26 58 36 69 10
11 18 22 18 26 0 3 15 19 33 35 47 43 55 49 63 49 4 0 15 6 23 13 20 18 92 45
150 59 92 21 286 33 354 22z m3079 -737 c269 -104 435 -371 398 -645 -26 -196
-126 -355 -286 -454 -129 -79 -318 -115 -435 -82 -14 4 -15 11 -7 46 6 27 5
68 -2 117 -12 81 -56 236 -74 261 -6 8 -20 31 -30 50 -55 101 -146 197 -268
281 -80 55 -87 62 -78 83 47 125 162 250 288 314 69 35 131 54 206 64 63 9
226 -11 288 -35z m-1527 -222 c162 -15 229 -25 345 -50 80 -18 299 -91 315
-106 5 -5 15 -9 22 -9 8 0 26 -8 41 -18 15 -10 56 -38 92 -62 36 -25 67 -48
68 -52 2 -4 8 -8 13 -8 24 0 130 -133 171 -215 61 -119 79 -180 93 -310 18
-159 -108 -373 -298 -509 -68 -49 -232 -136 -255 -136 -8 0 -28 -6 -45 -14
-18 -8 -43 -16 -57 -19 -14 -3 -52 -12 -85 -20 -60 -15 -170 -31 -465 -68
-205 -26 -687 -37 -878 -20 -187 16 -262 28 -407 61 -240 56 -461 168 -594
301 -36 36 -71 79 -71 89 0 5 -4 10 -10 10 -5 0 -10 6 -10 14 0 8 -4 16 -8 18
-10 3 -72 133 -72 149 0 5 -7 33 -16 60 -27 82 -15 190 32 286 53 111 190 245
329 323 156 88 309 154 480 205 157 46 180 51 370 74 347 42 635 50 900 26z
m4490 -324 c124 -54 237 -271 261 -497 l6 -61 -43 -29 c-48 -31 -98 -58 -141
-73 -31 -12 -33 -8 -43 84 -22 199 -79 311 -187 366 -35 18 -39 23 -33 47 3
14 10 60 15 100 5 43 14 78 22 84 18 12 93 1 143 -21z m372 -653 c96 -87 125
-122 157 -191 31 -65 44 -152 34 -230 -7 -58 -54 -165 -92 -211 -12 -14 -36
-43 -54 -66 -18 -22 -42 -40 -52 -40 -32 0 -153 100 -187 156 -25 39 -71 141
-88 193 -15 47 -38 303 -28 322 2 4 46 28 98 55 52 26 95 51 95 56 0 4 13 8
29 8 21 0 45 -14 88 -52z m-683 -110 c16 -63 18 -382 2 -573 -17 -208 -42
-405 -56 -441 -6 -15 -36 -29 -121 -56 -322 -102 -510 -141 -540 -111 -16 16
-31 178 -27 308 3 115 5 126 25 140 12 8 35 29 52 45 16 17 32 30 35 30 7 0
333 326 356 355 9 11 40 50 71 86 60 71 139 175 139 183 0 9 43 56 51 56 4 0
9 -10 13 -22z m-4137 -563 c10 -14 26 -35 36 -47 24 -29 22 -57 -13 -178 -42
-147 -38 -140 -64 -98 -12 20 -49 57 -81 81 -33 25 -73 57 -89 71 -55 49 -130
54 -191 12 -69 -47 -86 -75 -142 -228 -34 -95 -40 -91 -79 47 -42 154 -55 178
-114 214 -22 13 -52 21 -81 21 -25 0 -48 2 -50 4 -3 3 -3 23 -1 45 l4 41 202
0 c191 0 417 12 536 29 96 14 108 13 127 -14z m2433 -10 c272 -15 617 -75 850
-149 41 -13 56 -35 30 -44 -5 -2 -24 -13 -42 -25 -18 -12 -53 -33 -78 -46 -25
-14 -47 -27 -50 -30 -10 -12 -50 -31 -65 -31 -8 0 -15 -4 -15 -8 0 -5 -33 -23
-72 -42 -40 -18 -105 -48 -145 -66 -39 -19 -91 -41 -115 -49 -134 -49 -247
-87 -311 -105 -99 -29 -171 -45 -357 -81 -96 -18 -246 -29 -402 -29 -281 0
-521 41 -763 128 -169 62 -216 84 -213 102 3 13 191 148 209 149 3 1 37 18 75
39 38 21 96 48 129 61 33 14 65 27 70 31 14 11 173 65 291 99 171 50 306 72
554 91 74 6 144 12 155 14 11 2 52 2 90 0 39 -2 117 -6 175 -9z m-3161 -166
c17 -17 31 -37 31 -45 0 -8 4 -22 9 -32 16 -29 71 -251 71 -286 0 -31 -3 -33
-57 -50 -32 -10 -77 -34 -101 -53 l-43 -35 -44 41 c-95 88 -183 177 -198 201
-8 14 -19 46 -22 72 -10 65 12 98 89 137 34 17 79 42 101 56 27 16 55 24 87
25 39 0 51 -5 77 -31z m453 2 c13 -5 37 -22 53 -36 17 -15 45 -39 64 -53 81
-63 92 -76 98 -119 7 -56 -18 -94 -107 -163 -25 -19 -51 -40 -58 -47 -7 -7
-26 -20 -42 -30 -17 -9 -30 -21 -30 -25 0 -4 -6 -8 -14 -8 -7 0 -19 -7 -26
-15 -18 -21 -41 -19 -70 8 -46 40 -59 49 -114 71 l-54 22 58 154 c51 134 64
160 102 196 54 52 92 64 140 45z m588 -161 c29 -22 66 -45 82 -52 15 -7 28
-16 28 -20 0 -5 4 -8 10 -8 5 0 39 -18 75 -40 36 -22 71 -40 78 -40 7 0 17 -4
23 -9 11 -11 244 -110 299 -126 21 -7 43 -19 49 -28 15 -23 -20 -258 -40 -274
-14 -10 -124 -46 -329 -108 -80 -24 -174 -43 -251 -51 -63 -6 -72 -4 -79 12
-17 40 -34 762 -18 777 11 11 17 8 73 -33z m3763 -200 c-6 -43 -27 -117 -35
-128 -6 -7 -20 -30 -32 -51 -62 -114 -195 -201 -306 -201 -112 0 -230 97 -265
217 -3 12 -2 24 3 27 5 3 49 10 98 16 86 11 154 27 299 70 39 12 99 30 134 40
35 11 66 22 69 25 11 11 37 -1 35 -15z m-1377 -44 c3 -13 4 -37 2 -52 l-3 -29
-90 -6 c-49 -3 -115 -12 -145 -20 -65 -16 -178 -69 -235 -110 -23 -17 -48 -27
-56 -24 -16 6 -69 78 -69 93 0 6 24 15 53 21 28 5 66 12 82 16 17 4 45 9 63
12 18 3 35 9 38 14 3 5 17 9 32 10 15 0 90 22 167 48 77 27 143 49 147 50 4 0
10 -10 14 -23z m-3787 -32 c58 -20 130 -47 159 -60 29 -13 57 -24 62 -24 16 0
32 -38 18 -42 -8 -3 -12 -38 -14 -103 l-1 -100 -34 -8 c-19 -5 -54 -12 -79
-16 -25 -5 -84 -16 -131 -26 -84 -18 -87 -18 -145 1 -72 24 -110 70 -99 119 4
17 10 71 14 122 8 103 24 137 74 158 46 20 59 19 176 -21z m594 -30 c75 -39
117 -116 117 -213 0 -38 -4 -73 -10 -76 -5 -3 -10 -13 -10 -21 0 -8 -12 -28
-27 -45 -91 -101 -232 -110 -334 -20 -76 67 -97 173 -53 267 18 38 66 94 81
94 6 0 16 6 23 14 24 30 156 29 213 0z m542 -5 c22 -6 52 -23 68 -37 27 -26
27 -26 27 -165 l0 -139 -34 -34 c-29 -29 -41 -34 -80 -34 -54 0 -201 33 -301
67 l-70 24 1 117 2 116 93 29 c52 16 102 33 111 38 10 5 28 9 40 9 13 0 30 5
38 10 20 13 56 12 105 -1z m2635 -88 c0 -42 -19 -89 -63 -157 -63 -97 -141
-125 -247 -88 -66 22 -160 90 -160 114 0 10 41 44 85 70 22 13 42 27 45 30 5
6 125 45 165 53 11 3 55 5 98 6 l77 1 0 -29z m-1766 -289 c-11 -65 -79 -194
-127 -243 -104 -103 -250 -141 -349 -90 -55 28 -108 81 -137 136 -19 36 -28
85 -16 85 80 0 400 78 580 142 22 8 44 13 48 10 4 -2 5 -20 1 -40z m-1705 -16
c29 -30 58 -46 138 -77 25 -9 23 -16 -23 -159 -14 -41 -30 -91 -36 -110 -15
-49 -44 -87 -91 -121 -54 -39 -82 -37 -145 11 -29 22 -71 52 -95 67 -71 46
-81 60 -82 121 l0 54 76 72 c41 39 93 85 115 103 21 18 50 41 64 52 34 27 41
26 79 -13z m511 -39 c156 -116 190 -158 190 -236 0 -46 -18 -72 -78 -113 -26
-17 -49 -34 -52 -38 -19 -22 -109 -70 -133 -70 -53 0 -100 49 -137 142 -18 46
-38 97 -46 113 -21 48 -44 124 -44 145 0 13 10 20 33 25 41 9 105 46 136 79
28 30 26 30 131 -47z m-260 -297 c23 -17 33 -91 38 -295 5 -237 -6 -406 -39
-585 -34 -187 -50 -240 -75 -257 -30 -19 -45 -10 -39 25 2 15 14 83 25 152 54
335 71 535 72 819 0 97 2 169 5 161 3 -8 9 -17 13 -20z"/>
<path d="M5365 4648 c-123 -22 -165 -33 -165 -40 0 -4 -6 -8 -14 -8 -23 0
-138 -51 -173 -77 -17 -13 -35 -23 -39 -23 -11 0 -104 -80 -138 -118 -83 -94
-118 -162 -142 -278 -71 -341 229 -665 679 -735 87 -13 317 -7 382 11 120 33
158 46 238 83 48 23 87 45 87 49 0 4 6 8 14 8 22 0 163 136 201 194 129 196
116 446 -35 639 -36 46 -152 147 -169 147 -6 0 -11 4 -11 8 0 8 -141 77 -205
101 -16 6 -70 20 -120 31 -98 21 -297 26 -390 8z m380 -43 c307 -72 504 -227
586 -464 38 -111 13 -288 -55 -386 -102 -147 -199 -220 -408 -309 -125 -53
-407 -66 -568 -27 -89 21 -301 113 -308 132 -2 5 -9 9 -16 9 -15 0 -176 166
-176 182 0 6 -6 19 -14 27 -29 33 -66 165 -66 236 0 68 19 175 31 175 3 0 12
18 19 40 7 22 17 40 22 40 4 0 8 7 8 15 0 23 159 177 222 213 71 42 177 85
248 102 30 7 64 16 75 20 37 16 328 11 400 -5z"/>
<path d="M2375 5783 c-42 -4 -135 -35 -135 -45 0 -4 -6 -8 -13 -8 -13 0 -75
-56 -108 -96 -28 -36 -51 -108 -56 -181 -5 -59 -2 -83 18 -138 48 -136 180
-235 313 -235 70 0 166 18 166 32 0 4 6 8 14 8 29 0 123 99 154 163 27 55 32
75 32 140 0 128 -53 233 -148 298 -71 47 -159 70 -237 62z m79 -48 c-4 -8 -14
-15 -24 -15 -72 0 -170 -127 -170 -220 0 -76 50 -158 124 -205 43 -26 153 -32
199 -10 44 21 104 78 120 114 l11 26 4 -28 c10 -79 -74 -202 -171 -250 -47
-23 -69 -27 -137 -27 -90 0 -132 16 -208 78 -98 80 -133 251 -76 366 58 117
160 182 291 185 34 1 41 -2 37 -14z"/>
<path d="M1348 5697 c-31 -13 -64 -31 -73 -40 -9 -9 -24 -22 -34 -29 -22 -17
-73 -93 -92 -138 -9 -22 -14 -69 -13 -125 0 -110 22 -165 98 -240 83 -83 123
-99 241 -100 89 0 106 3 155 27 173 84 243 265 176 457 -36 103 -51 119 -156
173 -56 28 -76 33 -155 35 -77 3 -98 0 -147 -20z m132 -16 c0 -5 -19 -21 -42
-36 -24 -15 -56 -47 -71 -71 -23 -36 -28 -55 -29 -111 -1 -80 16 -128 63 -172
66 -63 148 -84 233 -59 58 18 115 67 139 121 15 33 27 35 27 4 0 -45 -32 -132
-64 -172 -40 -52 -60 -68 -126 -101 -46 -24 -67 -28 -130 -28 -66 0 -82 4
-138 33 -115 62 -173 159 -173 287 0 106 47 193 139 256 60 42 172 73 172 49z"/>
<path d="M2665 4661 c-152 -30 -244 -147 -213 -271 19 -73 83 -140 178 -184
60 -27 74 -30 170 -29 91 0 113 4 161 26 98 45 139 103 139 197 0 108 -71 187
-223 249 -38 15 -161 22 -212 12z m213 -50 c2 -6 11 -11 20 -11 24 0 112 -69
139 -108 34 -51 39 -111 14 -160 -11 -22 -33 -49 -48 -61 -15 -11 -33 -25 -38
-29 -18 -15 -108 -33 -162 -33 -66 0 -160 20 -174 38 -6 7 -17 13 -24 13 -38
0 -125 122 -125 175 0 79 76 160 175 186 42 11 219 3 223 -10z"/>
<path d="M1280 4626 c-184 -51 -289 -185 -245 -314 35 -104 126 -163 265 -170
73 -4 96 0 159 21 95 33 147 70 188 134 26 42 33 62 33 103 0 54 -24 112 -62
152 -72 74 -219 107 -338 74z m219 -46 c97 -35 132 -74 138 -154 6 -71 -8
-107 -60 -158 -57 -55 -130 -82 -239 -86 -87 -4 -102 -2 -151 21 -89 40 -127
92 -127 170 0 154 255 275 439 207z"/>
<path d="M1555 3933 c-15 -16 -39 -50 -54 -78 -23 -45 -26 -61 -26 -150 1 -91
3 -106 30 -159 16 -33 48 -77 70 -98 39 -39 127 -88 156 -88 8 0 19 -4 24 -8
15 -13 135 -32 202 -32 83 0 215 24 326 60 190 61 278 159 276 309 0 65 -28
146 -49 146 -12 0 -14 -15 -11 -82 4 -94 -14 -143 -71 -203 -38 -38 -166 -101
-248 -121 -104 -25 -362 -9 -462 30 -43 16 -109 82 -129 129 -22 50 -26 190
-8 257 17 62 22 115 11 115 -5 0 -22 -12 -37 -27z m3 -364 c26 -52 90 -117
140 -141 18 -9 90 -24 160 -33 170 -22 197 -36 62 -32 -82 3 -121 9 -178 30
-113 40 -152 73 -195 162 -41 84 -50 138 -35 208 l13 62 5 -105 c4 -82 10
-115 28 -151z"/>
<path d="M1085 2023 c-31 -7 -74 -61 -85 -107 -16 -61 -43 -136 -50 -136 -3 0
-16 28 -29 63 -38 97 -73 142 -125 159 -41 13 -49 13 -80 -1 -34 -15 -85 -55
-147 -113 -24 -22 -29 -35 -29 -72 0 -56 26 -99 84 -141 32 -23 37 -30 23 -33
-10 -2 -32 1 -49 7 -76 27 -164 4 -198 -51 -16 -27 -20 -50 -20 -123 0 -170
57 -213 224 -170 32 8 62 12 67 9 6 -3 -8 -19 -30 -35 -43 -32 -75 -80 -86
-127 -11 -51 15 -93 91 -147 38 -27 71 -52 74 -56 8 -11 80 -14 113 -5 l27 8
0 -138 c0 -150 19 -342 45 -467 24 -117 27 -123 81 -141 26 -9 50 -16 52 -16
8 0 -26 280 -48 405 -31 167 -37 506 -11 552 7 13 13 4 27 -43 37 -118 91
-170 171 -161 26 3 52 12 58 21 7 9 15 16 18 16 10 0 101 64 114 80 7 8 13 42
13 74 l0 59 -87 85 c-85 82 -87 84 -53 78 119 -23 178 -27 216 -17 87 23 105
64 90 201 -6 52 -16 102 -21 111 -33 52 -112 63 -205 29 -64 -23 -60 -23 -60
-9 0 6 14 22 30 36 81 68 88 189 14 238 -54 36 -159 85 -179 84 -11 -1 -29 -3
-40 -6z m91 -49 c138 -73 153 -90 140 -156 -5 -26 -26 -55 -84 -113 -95 -95
-103 -100 -131 -76 -12 10 -36 24 -54 31 -59 22 -62 25 -59 66 8 85 58 229 88
251 24 17 64 17 100 -3z m-349 -36 c19 -21 46 -74 72 -141 22 -59 41 -109 41
-111 0 -2 -17 -11 -38 -19 -21 -9 -53 -28 -71 -43 -31 -26 -34 -27 -58 -12
-61 37 -176 134 -189 161 -15 27 -11 87 4 87 4 0 21 13 38 28 83 73 98 82 134
82 28 0 43 -8 67 -32z m634 -278 c31 -17 46 -60 53 -150 6 -75 4 -88 -13 -110
-18 -23 -26 -25 -103 -24 -46 0 -116 9 -155 18 l-73 18 -2 64 c-1 35 -2 73 -2
85 -1 15 11 25 49 41 28 11 59 24 70 29 24 10 124 37 143 38 7 1 22 -4 33 -9z
m-427 -32 c42 -15 86 -70 97 -119 26 -112 -79 -217 -195 -195 -41 8 -115 64
-115 88 -1 9 -6 20 -12 24 -19 11 -2 103 25 145 14 21 38 44 53 52 35 18 106
21 147 5z m-432 -17 c13 -5 56 -19 96 -31 l72 -21 -1 -62 c0 -34 1 -71 3 -82
2 -16 -8 -23 -57 -41 -33 -12 -81 -25 -107 -29 -27 -4 -48 -11 -48 -16 0 -5
-18 -9 -41 -9 -31 0 -47 6 -70 29 -28 28 -29 33 -29 126 0 89 2 98 25 120 20
21 34 25 79 25 30 0 65 -4 78 -9z m568 -278 c29 -20 76 -61 137 -119 34 -33
43 -48 43 -76 0 -19 -6 -42 -12 -51 -17 -21 -105 -84 -145 -102 -65 -30 -121
21 -159 146 -43 140 -44 132 21 163 31 16 59 34 62 42 7 19 23 18 53 -3z
m-316 -23 c22 -17 47 -30 56 -30 43 0 40 -39 -15 -167 -69 -161 -96 -171 -216
-87 -65 45 -88 72 -89 100 0 37 29 93 58 111 15 10 51 37 80 60 29 24 60 43
70 43 9 0 35 -14 56 -30z m76 -392 c0 -166 18 -343 54 -538 20 -111 20 -132 0
-128 -24 4 -54 120 -75 288 -13 104 -16 436 -5 488 16 69 26 27 26 -110z"/>
<path d="M6965 401 c-3 -10 -28 -28 -56 -40 -27 -12 -47 -26 -44 -31 10 -17
257 -12 299 5 39 17 49 45 15 45 -11 0 -35 10 -51 22 -30 21 -31 21 -44 3 -19
-25 -18 -32 7 -38 12 -3 18 -10 14 -16 -9 -16 -32 -13 -39 4 -4 11 -13 14 -29
10 -20 -5 -26 -1 -37 24 -14 35 -26 39 -35 12z"/>
<path d="M4121 356 c-5 -13 -20 -26 -32 -29 -38 -10 -15 -18 55 -18 36 -1 66
-5 66 -10 0 -14 -117 -10 -155 5 -18 8 -38 24 -45 35 -11 21 -40 29 -40 11 0
-5 -11 -10 -25 -10 -22 0 -25 -4 -25 -35 l0 -35 160 0 c90 0 160 4 160 9 0 27
-16 42 -51 47 -33 6 -39 10 -39 30 0 31 -18 31 -29 0z"/>
</g>
</svg>
