<?xml version="1.0" standalone="no"?>
<!DOCTYPE svg PUBLIC "-//W3C//DTD SVG 20010904//EN"
 "http://www.w3.org/TR/2001/REC-SVG-20010904/DTD/svg10.dtd">
<svg version="1.0" xmlns="http://www.w3.org/2000/svg"
 width="981.000000pt" height="1283.000000pt" viewBox="0 0 981.000000 1283.000000"
 preserveAspectRatio="xMidYMid meet">

<g transform="translate(0.000000,1283.000000) scale(0.100000,-0.100000)"
fill="#000000" stroke="none">
<path d="M3235 12606 c-36 -12 -74 -36 -202 -126 -23 -17 -55 -33 -71 -36 -32
-7 -38 -2 -113 89 -17 20 -37 37 -45 37 -7 0 -29 8 -49 17 -31 15 -43 15 -91
5 -99 -20 -148 -53 -224 -148 -23 -28 -60 -111 -60 -133 0 -24 -69 -108 -105
-127 -15 -8 -44 -14 -64 -14 -41 0 -124 -25 -156 -47 -11 -7 -27 -13 -37 -13
-10 0 -18 -3 -18 -7 0 -5 -12 -15 -28 -24 -33 -19 -82 -108 -82 -150 0 -47 29
-86 85 -113 66 -33 111 -43 223 -52 99 -7 115 -19 60 -43 -67 -29 -294 -246
-357 -341 -55 -84 -61 -94 -67 -110 -3 -8 -10 -23 -15 -32 -5 -10 -9 -26 -9
-36 0 -9 -7 -28 -16 -40 -9 -13 -18 -50 -21 -82 -5 -54 -4 -60 22 -84 21 -20
39 -26 71 -26 27 0 52 -7 65 -17 11 -10 33 -28 47 -40 15 -13 32 -23 38 -23 6
0 28 -13 48 -29 54 -43 255 -123 344 -137 23 -4 44 -10 47 -13 5 -9 -107 -141
-190 -226 -127 -129 -245 -279 -245 -311 0 -7 -4 -14 -10 -16 -6 -2 -10 -48
-11 -109 -1 -96 2 -110 23 -142 13 -20 40 -46 62 -59 21 -13 63 -43 93 -66 88
-70 205 -117 275 -112 13 1 38 2 56 1 l32 -1 0 -315 c0 -332 6 -385 49 -426
12 -11 22 -47 30 -105 27 -205 33 -241 46 -289 7 -27 19 -70 25 -95 19 -69 52
-173 61 -192 5 -10 9 -28 9 -41 0 -23 26 -86 40 -97 3 -3 16 -25 29 -50 13
-25 44 -74 70 -110 25 -35 54 -77 63 -92 10 -15 25 -36 35 -46 10 -10 34 -36
54 -57 50 -57 170 -153 264 -213 44 -29 85 -56 92 -62 7 -5 15 -10 18 -10 3 0
30 -16 60 -35 69 -44 178 -95 203 -95 11 0 25 -6 31 -14 6 -8 24 -16 39 -19
15 -3 54 -13 87 -22 33 -9 88 -21 123 -26 35 -4 68 -12 75 -16 7 -4 39 -11 72
-14 115 -13 148 -28 201 -94 27 -33 52 -62 57 -64 5 -2 17 -12 26 -23 23 -27
140 -109 174 -120 50 -18 51 -38 2 -113 -25 -37 -45 -70 -45 -73 0 -3 -18 -29
-40 -58 -22 -29 -40 -57 -40 -61 0 -12 -114 -128 -179 -183 -29 -25 -72 -50
-95 -57 -73 -20 -188 -30 -301 -25 -60 3 -207 6 -325 6 -202 0 -219 -1 -280
-24 -36 -13 -85 -36 -110 -51 -25 -15 -55 -30 -67 -33 -16 -5 -28 -23 -40 -58
-12 -35 -37 -71 -75 -111 -59 -61 -73 -98 -46 -125 14 -14 94 -16 103 -2 7 11
120 12 148 1 16 -6 11 -13 -32 -49 -59 -50 -69 -73 -46 -109 15 -23 21 -25 59
-18 22 4 84 8 136 9 52 1 100 5 106 9 7 4 44 9 84 12 40 2 86 9 104 14 17 5
58 17 91 27 33 9 68 20 77 25 10 5 27 9 37 9 11 0 22 4 26 9 3 5 22 15 43 21
20 6 46 15 57 20 32 13 95 28 172 41 70 12 105 10 268 -13 116 -16 255 -21
255 -9 0 7 40 11 116 11 121 0 154 8 154 40 0 18 -56 80 -73 80 -17 0 -57 58
-57 83 0 8 -9 22 -20 32 -16 15 -20 31 -20 86 0 63 4 76 61 186 33 65 77 145
97 179 20 33 55 90 76 127 37 61 44 68 98 88 l59 22 27 -21 c108 -86 217 -149
342 -196 25 -10 58 -24 73 -32 16 -8 39 -14 52 -14 31 0 95 -30 95 -44 0 -13
-41 -117 -76 -193 -13 -28 -24 -56 -24 -60 0 -12 -98 -239 -121 -280 -11 -19
-19 -38 -19 -44 0 -13 -76 -105 -114 -139 -53 -46 -88 -50 -466 -54 -349 -4
-485 -15 -563 -45 -16 -6 -41 -11 -56 -11 -15 0 -31 -4 -36 -9 -6 -4 -35 -16
-65 -25 -100 -32 -258 -151 -260 -196 -1 -25 -67 -135 -82 -138 -9 -2 -18 10
-24 30 -8 28 -15 33 -39 33 -27 0 -30 3 -27 27 2 14 -2 29 -8 33 -17 11 -90
-45 -128 -97 -37 -52 -60 -60 -80 -28 -20 32 -37 23 -66 -35 -26 -55 -47 -64
-60 -27 -13 38 -103 147 -124 150 -21 3 -21 1 -15 -82 7 -97 -2 -107 -48 -58
-38 39 -97 68 -111 54 -8 -8 -5 -20 11 -45 15 -25 21 -51 21 -96 0 -57 -1 -61
-23 -61 -13 0 -41 15 -63 33 -56 47 -90 67 -114 67 -24 0 -24 3 -6 -48 8 -22
12 -43 9 -46 -10 -10 -58 -7 -70 5 -13 13 -79 8 -76 -6 1 -5 13 -11 25 -13 52
-7 96 -23 118 -42 13 -11 30 -20 38 -20 14 0 14 11 -4 83 -9 36 5 35 69 -8 91
-62 136 -38 123 66 -10 73 8 77 74 19 34 -30 57 -44 61 -38 4 6 5 44 2 85 -5
61 -3 73 9 73 9 0 23 -16 32 -35 9 -19 32 -51 51 -71 33 -34 36 -36 57 -22 13
8 28 26 35 39 15 30 35 31 48 2 5 -13 15 -23 22 -23 18 0 43 29 43 52 0 22 88
111 102 102 4 -3 8 -23 8 -44 0 -49 10 -55 44 -29 l27 21 21 -27 c20 -25 26
-27 79 -23 36 3 66 11 77 21 18 17 111 25 125 11 3 -4 -5 -26 -18 -49 -14 -23
-25 -50 -25 -61 0 -10 -9 -34 -21 -53 -18 -31 -19 -35 -4 -57 18 -28 60 -32
103 -10 15 7 54 17 87 20 33 4 78 12 100 17 22 6 58 15 80 21 22 5 78 27 125
49 100 45 111 48 117 32 3 -7 -1 -13 -9 -13 -22 0 -142 -109 -165 -151 -12
-22 -36 -56 -52 -75 -36 -40 -39 -64 -11 -89 14 -13 29 -16 57 -11 21 3 79 10
128 16 81 9 135 24 187 51 10 5 24 9 31 9 15 0 204 95 265 133 20 13 55 32 77
42 22 11 54 29 70 41 17 12 84 49 149 83 l119 61 153 0 c145 0 233 10 280 32
40 19 139 118 159 160 21 43 45 61 45 33 0 -21 29 -65 44 -65 7 0 18 16 25 36
12 35 154 184 174 184 5 0 21 9 37 20 50 36 46 19 -36 -155 -21 -43 -22 -51
-9 -64 13 -13 17 -13 37 5 13 12 45 35 71 52 72 48 138 41 103 -10 -29 -41
-14 -110 17 -79 6 6 18 11 27 11 8 0 28 7 44 15 42 22 56 19 56 -12 0 -52 12
-58 73 -43 52 12 56 12 78 -9 21 -19 31 -21 99 -15 89 7 103 10 95 24 -3 6
-38 9 -78 8 -80 -2 -97 4 -97 33 0 23 -25 36 -43 21 -12 -10 -38 -15 -70 -13
-13 1 -16 7 -11 26 8 32 -10 39 -67 25 -104 -27 -108 -18 -37 83 32 44 -65 38
-162 -11 -30 -15 -58 -28 -62 -30 -14 -6 -9 38 8 71 9 18 34 53 55 79 22 26
39 51 39 57 0 18 -16 20 -44 5 -16 -7 -35 -14 -42 -14 -18 0 -47 -16 -99 -54
-60 -44 -72 -56 -135 -120 l-57 -58 -7 32 c-3 18 -6 45 -6 61 0 21 -5 29 -18
29 -25 0 -42 -20 -42 -49 0 -32 -30 -99 -47 -105 -8 -3 -17 4 -22 17 -5 12
-26 37 -46 56 -19 18 -45 52 -56 74 -27 52 -22 111 21 287 6 25 15 63 19 85 4
22 12 49 18 60 6 11 16 36 23 55 7 19 26 71 42 115 16 44 33 93 38 108 5 16
18 44 30 64 11 19 20 40 20 47 0 24 45 56 81 56 19 0 43 7 53 15 11 8 28 15
39 15 10 0 28 5 40 12 23 13 63 29 137 54 52 18 272 123 280 134 3 4 21 15 40
25 46 24 142 104 270 226 43 42 166 183 185 214 11 17 39 52 62 79 24 26 60
82 80 123 33 68 70 109 124 139 45 25 162 128 284 249 84 84 242 271 258 305
4 8 21 38 37 65 45 75 130 245 130 260 0 7 7 18 15 25 8 7 15 21 15 31 0 11 5
19 10 19 6 0 10 9 10 19 0 11 14 49 30 84 17 36 30 70 30 75 0 6 6 23 14 39
21 41 36 96 36 127 0 15 5 37 11 48 17 32 41 204 39 288 0 41 -7 122 -15 179
-18 129 -19 151 -2 151 8 0 32 12 53 28 21 15 51 33 66 41 54 28 135 118 169
189 33 67 35 119 9 175 -27 58 -57 82 -109 91 -22 3 -42 10 -46 15 -3 5 22 38
56 73 84 87 112 130 158 241 31 78 -3 201 -68 244 -39 26 -131 32 -188 11 -18
-6 -35 -9 -39 -5 -4 3 11 30 33 59 66 89 88 143 88 217 0 59 -4 71 -34 113
-50 70 -116 90 -241 73 -43 -6 -78 -17 -110 -36 -8 -5 -24 -13 -35 -18 -11 -5
-37 -21 -58 -35 -21 -14 -42 -26 -47 -26 -13 0 -13 47 0 55 17 11 12 160 -7
193 -28 49 -100 82 -177 82 -36 0 -80 -6 -98 -14 -101 -43 -138 -60 -138 -65
0 -3 -21 -19 -48 -36 -26 -16 -52 -34 -58 -40 -7 -5 -27 -21 -45 -35 -18 -14
-143 -134 -278 -266 -269 -264 -342 -333 -354 -334 -4 0 -17 -8 -27 -18 -21
-19 -62 -43 -177 -103 l-72 -37 -73 10 c-58 9 -127 6 -338 -11 -376 -31 -395
-33 -555 -77 -27 -7 -90 -20 -140 -29 -107 -19 -163 -33 -190 -48 -11 -5 -42
-12 -69 -14 -27 -2 -56 -8 -65 -12 -9 -5 -47 -12 -86 -16 -38 -4 -78 -9 -87
-11 -10 -3 -33 9 -55 28 -42 37 -62 49 -113 75 -19 9 -51 28 -70 43 -19 14
-52 35 -73 45 -22 11 -44 27 -50 36 -7 8 -19 20 -29 25 -42 23 -206 177 -293
274 -77 86 -172 220 -241 344 -81 143 -154 293 -154 316 0 10 -7 23 -15 30 -8
7 -15 18 -15 24 0 6 -12 36 -26 66 -18 40 -26 74 -27 125 -3 86 9 203 21 218
5 7 12 28 15 47 2 19 12 75 20 124 23 129 11 184 -53 244 -23 21 -31 22 -95
17 -38 -3 -90 -8 -114 -11 -27 -4 -52 -2 -67 7 -23 12 -24 17 -24 108 -1 106
-7 120 -80 173 -44 33 -127 43 -185 24z m170 -60 c41 -32 55 -74 55 -169 0
-64 2 -71 31 -98 26 -24 39 -29 83 -29 28 0 71 7 95 16 108 37 170 -40 156
-194 -2 -29 -9 -61 -15 -72 -12 -23 -36 -134 -58 -269 l-7 -44 -35 44 c-20 24
-49 64 -65 88 -17 25 -39 54 -50 65 -11 12 -27 30 -35 42 -17 23 -203 164
-217 164 -5 0 -31 11 -59 24 -27 13 -71 26 -97 30 -27 4 -59 10 -70 13 -58 15
-198 14 -273 -2 -210 -44 -340 -114 -459 -245 -28 -30 -53 -56 -57 -58 -5 -2
-8 -8 -8 -14 0 -5 -8 -20 -18 -32 -14 -19 -22 -21 -47 -14 -17 5 -64 13 -105
18 -135 15 -201 50 -214 116 -15 69 110 183 201 184 17 0 34 4 37 9 3 4 27 11
52 15 67 9 164 86 178 141 15 59 67 154 107 193 67 68 109 85 195 80 l73 -3
45 -50 c25 -28 45 -53 46 -57 0 -5 5 -8 11 -8 6 0 17 -7 25 -15 9 -8 27 -15
40 -15 31 0 106 33 124 55 18 21 92 74 145 101 57 31 142 26 190 -10z m-300
-432 c76 -5 103 -12 175 -46 47 -21 92 -44 100 -49 8 -5 29 -17 45 -27 35 -20
148 -132 179 -178 11 -17 46 -67 76 -110 60 -87 161 -279 189 -360 10 -28 35
-79 55 -113 20 -34 36 -66 36 -71 0 -15 83 -154 100 -170 4 -3 12 -21 20 -40
8 -19 22 -42 31 -50 10 -8 28 -31 41 -51 84 -126 270 -311 448 -444 22 -16 50
-38 61 -47 12 -10 30 -18 41 -18 10 0 18 -5 18 -10 0 -6 8 -14 18 -17 9 -4 37
-20 62 -37 100 -66 107 -84 63 -165 -31 -58 -55 -87 -103 -122 -77 -56 -183
-66 -250 -24 -56 35 -63 33 -55 -17 14 -91 17 -180 6 -191 -6 -6 -11 -18 -11
-26 -1 -47 -112 -124 -176 -123 -50 0 -137 43 -160 77 -9 14 -24 25 -33 25
-14 0 -16 -13 -13 -108 l4 -108 -34 -45 c-48 -63 -129 -109 -191 -109 -62 0
-170 27 -194 49 -10 10 -28 20 -40 23 -18 5 -22 0 -27 -31 -3 -20 -6 -51 -6
-70 0 -71 -101 -183 -186 -209 -129 -38 -240 14 -307 144 -9 17 -23 34 -31 37
-16 7 -46 -17 -46 -36 -1 -16 -40 -95 -65 -130 -39 -55 -101 -116 -154 -151
-62 -42 -135 -50 -164 -18 -43 48 -49 93 -53 415 l-5 309 86 84 c47 46 85 88
85 93 0 6 18 34 39 62 22 29 42 64 44 78 3 14 13 51 22 81 44 151 56 247 56
448 -1 127 -5 216 -14 252 -7 30 -14 82 -16 114 -1 32 -6 68 -11 80 -4 12 -11
46 -15 76 -4 30 -16 73 -25 95 -10 22 -21 49 -24 60 -8 28 -52 73 -109 113
-26 17 -50 40 -53 50 -4 9 -12 31 -20 49 -8 17 -14 36 -14 42 0 23 -83 184
-112 217 -17 19 -55 46 -85 59 -63 29 -70 42 -49 84 24 46 134 160 179 184 22
12 47 27 56 32 80 49 113 65 134 65 13 0 27 3 31 8 11 10 184 30 226 26 20 -2
76 -6 125 -10z m-740 -404 c36 -14 102 -71 131 -113 29 -43 74 -154 74 -182 0
-32 58 -113 104 -146 80 -57 86 -66 86 -129 0 -33 -4 -62 -10 -65 -5 -3 -10
-19 -10 -34 0 -15 -13 -48 -30 -74 -16 -26 -30 -52 -30 -57 0 -5 -16 -36 -36
-69 -35 -59 -36 -60 -92 -67 -96 -13 -216 -6 -267 16 -76 32 -182 86 -219 110
-24 17 -47 30 -50 30 -4 0 -21 13 -38 29 l-31 29 54 17 c38 11 83 15 154 13
254 -7 340 -4 368 15 14 9 33 17 41 17 9 0 30 9 47 19 17 11 37 17 44 15 38
-15 28 57 -10 74 -40 19 -46 15 -40 -21 6 -30 4 -35 -22 -45 -104 -41 -213
-50 -367 -33 -106 12 -257 -11 -328 -50 -25 -13 -39 -11 -60 8 -19 17 -25 77
-9 87 5 3 12 22 16 42 3 20 13 52 22 73 9 20 21 47 26 61 34 80 262 328 349
379 20 12 38 28 41 35 3 8 16 16 29 19 13 2 26 5 30 6 4 0 19 -4 33 -9z m5568
-379 c14 -5 36 -21 51 -36 23 -23 26 -33 26 -100 0 -41 -5 -87 -11 -102 -30
-72 -40 -91 -53 -102 -18 -15 -66 -95 -66 -110 0 -24 29 -8 90 52 96 91 114
105 215 158 51 26 74 32 152 36 l92 6 38 -33 c73 -63 82 -130 30 -232 -59
-116 -126 -191 -236 -268 -11 -8 -21 -20 -21 -27 0 -23 36 -14 81 20 59 43
133 77 169 77 16 0 32 5 35 10 3 6 30 10 58 9 48 0 54 -3 84 -40 38 -48 52
-126 33 -186 -16 -50 -60 -131 -85 -158 -11 -12 -36 -39 -56 -61 -46 -49 -76
-74 -133 -110 -25 -16 -48 -35 -51 -42 -7 -18 19 -26 44 -13 11 6 50 11 87 11
57 0 72 -4 101 -26 18 -14 33 -32 33 -40 0 -8 5 -23 12 -34 13 -20 -1 -97 -27
-147 -35 -67 -161 -171 -235 -193 -44 -14 -100 -47 -100 -60 0 -4 11 -12 24
-18 33 -15 38 -52 38 -304 0 -217 0 -217 -32 -320 -48 -150 -78 -235 -111
-306 -16 -35 -29 -67 -29 -73 0 -9 -11 -33 -32 -69 -4 -8 -17 -35 -28 -60 -11
-25 -25 -54 -32 -65 -6 -11 -36 -62 -65 -114 -88 -154 -331 -425 -476 -531
-26 -19 -65 -49 -87 -66 -21 -17 -51 -36 -66 -43 -29 -11 -54 -50 -54 -82 0
-9 -7 -22 -15 -29 -8 -7 -15 -17 -15 -22 0 -5 -26 -44 -58 -86 -32 -42 -63
-84 -68 -93 -29 -52 -285 -319 -305 -319 -4 0 -21 -12 -36 -26 -63 -59 -256
-170 -398 -229 -16 -7 -47 -20 -68 -29 -21 -9 -47 -16 -58 -16 -11 0 -30 -6
-42 -14 -48 -31 -322 -72 -372 -56 -17 6 -42 10 -55 9 -14 0 -54 4 -90 10 -36
6 -90 15 -121 20 -31 5 -64 14 -75 19 -10 6 -43 18 -72 27 -29 9 -84 34 -124
56 -39 21 -74 39 -77 39 -3 0 -21 14 -40 30 -18 17 -37 30 -41 30 -4 0 -18 10
-31 23 -14 12 -45 38 -69 57 -25 19 -52 42 -60 50 -8 9 -41 33 -73 54 -31 21
-60 42 -63 47 -3 5 -13 9 -23 9 -10 0 -24 7 -31 15 -7 8 -23 15 -36 15 -12 0
-25 4 -28 9 -3 5 -23 11 -43 14 -54 8 -183 36 -219 47 -17 6 -51 10 -77 10
-25 0 -48 4 -51 8 -3 5 -31 9 -63 11 -32 1 -71 6 -88 11 -16 5 -59 14 -95 19
-141 21 -273 51 -312 72 -10 5 -25 9 -33 9 -20 0 -134 37 -159 51 -10 6 -36
17 -57 24 -21 8 -64 31 -96 52 -32 21 -74 46 -94 56 -20 9 -42 23 -49 32 -7 8
-16 15 -21 15 -9 0 -130 86 -139 99 -3 4 -21 18 -40 31 -19 14 -45 36 -56 50
-12 14 -35 39 -50 56 -73 79 -201 265 -223 324 -7 19 -19 49 -26 65 -30 69
-45 116 -70 220 -14 61 -30 124 -37 140 -6 17 -14 55 -18 85 -4 30 -13 87 -19
127 -7 40 -11 85 -9 100 3 26 6 28 48 29 92 3 202 89 303 238 4 6 14 28 22 49
14 33 18 36 35 27 11 -6 20 -17 20 -25 0 -8 27 -37 60 -64 67 -56 139 -78 218
-66 47 7 164 72 194 109 27 32 65 107 72 143 4 18 11 35 16 38 4 3 27 -4 51
-14 72 -31 144 -35 216 -12 34 11 73 25 85 32 26 14 77 69 78 85 0 5 5 15 12
22 7 7 19 40 28 75 15 60 17 62 46 59 111 -12 189 -13 213 -1 38 19 96 81 120
127 16 31 21 60 21 116 l0 75 70 -6 c101 -8 165 15 240 87 31 31 65 74 75 96
34 77 38 83 70 98 17 8 65 20 106 26 170 25 197 29 249 45 30 8 84 22 120 30
36 7 94 21 130 30 62 15 96 21 240 45 36 6 79 15 95 20 17 5 120 14 230 20
110 6 207 13 215 16 17 6 251 -13 330 -27 30 -6 87 -17 125 -25 39 -9 90 -19
115 -24 58 -11 130 -33 155 -46 11 -6 54 -24 95 -39 41 -15 94 -41 118 -56 47
-32 72 -37 72 -14 0 28 -226 137 -320 155 -48 9 -124 34 -152 50 -10 6 -36 10
-58 10 -48 0 -170 22 -170 31 0 3 49 36 109 73 120 74 118 72 442 390 124 121
246 237 270 257 74 59 192 135 234 150 22 8 51 19 65 26 29 15 118 17 153 4z
m-5119 -283 c11 -52 18 -108 27 -193 5 -49 13 -124 18 -165 12 -95 12 -267 0
-345 -5 -33 -12 -85 -15 -115 -3 -30 -9 -64 -14 -75 -4 -11 -18 -54 -31 -95
-33 -107 -64 -161 -148 -253 -25 -27 -65 -58 -89 -68 -84 -36 -209 -21 -317
39 -37 21 -49 35 -80 94 -38 72 -31 198 15 280 6 10 10 23 10 30 1 21 82 134
156 215 38 42 79 89 90 105 12 16 32 39 46 51 13 12 36 40 51 62 15 22 40 55
56 74 16 18 38 52 50 75 12 22 33 59 47 81 42 70 71 129 85 178 14 50 36 62
43 25z m-261 -334 c7 -8 -38 -71 -111 -153 -31 -36 -83 -94 -114 -130 -32 -36
-70 -79 -85 -96 -16 -16 -38 -47 -50 -70 -53 -98 -63 -120 -63 -136 0 -10 -5
-19 -11 -21 -8 -3 -13 -41 -14 -108 -2 -58 -7 -106 -13 -108 -16 -5 -55 89
-60 147 -3 37 0 64 10 85 8 17 21 45 29 61 14 31 80 124 114 160 11 12 66 71
122 131 99 107 160 181 182 223 11 20 50 29 64 15z m1981 -3555 c16 -5 48 -9
72 -9 24 0 45 -4 48 -9 3 -4 25 -11 48 -14 70 -10 202 -72 283 -133 41 -31 75
-58 75 -61 0 -2 -16 -11 -35 -19 -52 -22 -174 -29 -247 -14 -78 15 -160 40
-172 51 -6 5 -18 9 -27 9 -9 0 -34 16 -55 35 -22 19 -44 35 -50 35 -14 0 -79
63 -101 97 -9 13 -22 23 -29 23 -14 0 -19 12 -8 22 8 8 164 -2 198 -13z m186
-288 c0 -10 87 -22 160 -23 82 -1 82 -3 -21 -156 -16 -23 -29 -45 -29 -47 0
-3 -11 -23 -25 -45 -14 -22 -25 -44 -25 -49 0 -6 -13 -30 -30 -54 -16 -25 -30
-50 -30 -56 0 -6 -4 -20 -10 -31 -5 -11 -14 -29 -20 -40 -16 -32 -11 -115 10
-165 12 -27 20 -69 20 -100 0 -47 -3 -56 -27 -73 -50 -34 -188 -58 -232 -40
-93 39 -431 40 -486 2 -11 -8 -29 -14 -40 -14 -11 0 -29 -7 -39 -15 -11 -8
-28 -15 -37 -15 -10 0 -30 -6 -46 -14 -15 -8 -46 -19 -68 -25 -93 -24 -162
-44 -198 -57 -24 -9 -80 -14 -160 -14 -104 1 -125 3 -144 19 -13 11 -23 27
-23 36 0 24 118 135 144 135 14 0 79 24 107 40 9 5 33 12 53 15 20 4 39 11 42
16 3 5 20 9 39 9 19 0 46 5 62 11 15 6 55 14 88 18 35 3 58 10 55 16 -7 14
-116 13 -165 -2 -22 -6 -69 -19 -105 -28 -36 -9 -78 -21 -95 -26 -45 -16 -159
-73 -163 -81 -2 -5 -43 -8 -91 -8 -90 0 -146 17 -158 46 -7 19 42 92 70 105
12 5 36 18 53 28 62 38 188 60 374 65 203 6 244 13 248 42 3 19 9 21 80 19
119 -2 281 13 331 32 26 9 61 28 80 41 64 47 211 202 211 222 0 5 3 10 8 12 4
2 25 30 47 63 22 33 42 62 45 65 3 3 18 30 34 60 16 30 34 58 40 62 16 11 66
10 66 -1z m1210 -287 c139 -7 133 -4 114 -56 -8 -24 -22 -54 -29 -68 -7 -14
-27 -68 -45 -120 -17 -52 -35 -99 -41 -104 -5 -6 -9 -24 -9 -41 0 -17 -4 -35
-9 -41 -5 -5 -18 -43 -30 -84 -13 -41 -26 -84 -31 -95 -11 -26 -19 -73 -27
-154 -7 -81 10 -133 57 -174 81 -70 86 -110 25 -170 -45 -44 -79 -50 -275 -51
-148 -1 -158 -2 -220 -30 -81 -35 -169 -83 -282 -153 -48 -30 -109 -63 -135
-75 -27 -12 -64 -31 -83 -44 -19 -12 -52 -28 -72 -35 -21 -7 -38 -17 -38 -21
0 -4 -9 -8 -20 -8 -11 0 -37 -9 -57 -20 -21 -11 -48 -20 -60 -20 -12 0 -25 -4
-28 -10 -3 -5 -38 -10 -77 -10 -78 0 -108 15 -108 55 0 56 114 164 270 255 52
30 73 44 88 58 7 6 20 12 28 12 17 0 19 20 2 21 -28 3 -64 -3 -74 -12 -6 -5
-24 -11 -40 -13 -31 -4 -84 -22 -155 -53 -75 -33 -122 -51 -164 -64 -22 -6
-60 -20 -85 -30 -82 -33 -187 -40 -225 -15 -19 13 -25 25 -25 53 0 43 33 99
63 109 12 3 43 21 68 39 45 32 86 53 144 73 90 31 242 75 288 83 28 4 68 11
87 14 81 14 83 15 69 31 -18 22 -99 12 -254 -31 -27 -8 -61 -16 -75 -19 -51
-9 -181 -61 -245 -99 -11 -7 -41 -24 -67 -39 -58 -35 -125 -38 -174 -7 -19 11
-34 28 -35 37 -3 40 4 69 23 95 25 34 111 98 158 117 19 8 37 16 40 19 8 10
72 29 115 36 22 3 63 12 90 20 68 19 187 26 530 30 160 2 310 6 334 9 24 3 72
20 108 37 52 27 71 43 108 96 25 35 53 83 64 106 47 106 61 140 61 153 0 7 6
19 13 26 7 7 16 22 19 33 13 44 60 161 83 211 14 29 25 57 25 62 0 4 9 28 21
51 20 42 22 43 57 37 20 -4 84 -9 142 -12z m-2182 -263 c22 -13 -29 -22 -163
-27 -156 -6 -253 -14 -290 -24 -68 -19 -105 -21 -100 -7 6 13 48 32 120 53 47
13 413 18 433 5z m1061 -270 c21 -13 5 -29 -24 -23 -25 4 -31 13 -18 25 9 9
25 8 42 -2z m-1799 -32 c14 -24 12 -28 -20 -31 -28 -3 -41 29 -18 43 20 13 26
11 38 -12z m178 -171 c-3 -23 -48 -41 -48 -20 0 24 14 42 32 42 14 0 19 -6 16
-22z m719 -443 c7 -20 -2 -29 -21 -22 -9 4 -13 13 -10 22 8 19 23 19 31 0z
m156 -221 c11 -11 -3 -24 -18 -18 -8 4 -12 10 -9 15 6 11 18 12 27 3z m353
-201 c-10 -10 -19 5 -10 18 6 11 8 11 12 0 2 -7 1 -15 -2 -18z"/>
<path d="M2873 11753 c-18 -9 -35 -23 -38 -31 -4 -12 2 -14 40 -9 48 7 53 1
34 -35 -9 -16 -8 -34 1 -72 15 -62 63 -119 115 -136 50 -17 103 7 136 61 23
37 39 49 39 29 0 -5 5 -10 10 -10 6 0 10 15 10 33 0 22 -11 46 -37 79 -21 26
-43 47 -48 48 -6 0 -26 13 -45 30 -32 27 -41 29 -110 29 -48 0 -86 -6 -107
-16z m168 -38 c44 -19 99 -68 99 -89 0 -9 -4 -16 -10 -16 -5 0 -10 6 -10 13 0
7 -20 23 -43 36 -34 19 -52 22 -80 17 -29 -5 -37 -4 -37 8 0 8 10 22 22 30 27
19 19 19 59 1z m-33 -97 c-6 -18 -28 -21 -28 -4 0 9 7 16 16 16 9 0 14 -5 12
-12z"/>
<path d="M2355 11544 c-11 -3 -30 -7 -42 -9 -26 -6 -67 -60 -60 -79 4 -10 17
-11 64 -2 73 14 106 36 101 68 -3 23 -23 30 -63 22z"/>
<path d="M6207 10134 c-5 -5 -92 -12 -195 -16 -194 -7 -302 -18 -362 -37 -19
-6 -54 -11 -77 -11 -23 0 -54 -5 -70 -11 -15 -7 -46 -15 -68 -20 -85 -17 -101
-21 -132 -35 -17 -8 -41 -14 -53 -14 -12 0 -34 -6 -48 -14 -15 -7 -54 -21 -87
-31 -79 -23 -156 -55 -275 -114 -62 -31 -213 -120 -220 -130 -3 -4 -28 -21
-56 -39 -29 -18 -63 -43 -76 -55 -14 -13 -38 -32 -55 -42 -65 -42 -193 -176
-275 -289 -20 -28 -48 -64 -61 -81 -13 -16 -32 -48 -42 -70 -9 -22 -28 -60
-40 -85 -40 -78 -50 -150 -50 -365 1 -192 9 -277 32 -320 6 -11 19 -40 28 -65
29 -72 55 -127 73 -152 10 -13 24 -36 32 -51 33 -66 263 -266 377 -327 21 -12
45 -25 53 -30 8 -5 33 -18 55 -28 22 -10 72 -35 110 -54 83 -42 242 -98 278
-98 14 0 29 -4 32 -10 3 -5 33 -10 65 -10 32 0 71 -5 85 -10 43 -17 378 -23
480 -10 50 7 146 16 215 21 170 11 360 40 418 65 18 8 46 14 61 14 16 0 42 7
57 15 16 8 36 15 45 15 17 0 150 51 181 70 10 5 26 10 37 10 11 0 21 4 23 8 3
8 42 29 163 89 28 14 68 40 90 58 22 17 49 37 61 43 11 6 40 35 62 65 32 41
42 63 42 91 0 44 -25 86 -51 86 -19 0 -19 -2 -3 -31 28 -55 12 -94 -68 -171
-38 -38 -74 -68 -78 -68 -5 0 -36 -18 -69 -40 -33 -22 -62 -40 -65 -40 -6 0
-121 -56 -156 -76 -14 -7 -35 -14 -47 -14 -12 0 -25 -4 -28 -10 -3 -5 -19 -10
-35 -10 -16 0 -32 -4 -35 -10 -3 -5 -14 -10 -23 -10 -9 -1 -35 -9 -57 -20 -22
-11 -52 -19 -67 -20 -15 0 -39 -5 -55 -12 -15 -6 -53 -15 -83 -19 -71 -11
-153 -25 -210 -37 -25 -5 -89 -10 -143 -11 -54 0 -128 -6 -165 -11 -82 -14
-379 -15 -395 -2 -7 5 -59 13 -115 16 -57 3 -112 11 -122 16 -10 6 -31 10 -45
10 -34 0 -215 60 -233 77 -7 7 -19 13 -26 13 -21 0 -167 71 -186 90 -3 3 -27
16 -53 30 -27 14 -60 35 -74 48 -14 13 -44 35 -67 50 -92 60 -226 220 -278
332 -31 67 -68 177 -68 202 0 8 -7 29 -16 47 -13 27 -15 59 -12 194 3 89 10
185 17 212 28 107 43 155 52 161 5 3 9 16 9 28 0 13 7 29 15 36 8 7 15 17 15
22 0 5 5 14 11 21 6 7 29 40 52 73 74 108 185 229 277 301 38 30 46 32 96 28
30 -3 68 -12 84 -20 16 -8 37 -15 47 -15 10 0 29 -7 42 -17 13 -9 49 -29 80
-45 208 -106 363 -261 483 -482 37 -68 78 -159 78 -172 0 -8 4 -22 9 -32 14
-25 41 -118 41 -139 0 -10 6 -27 14 -38 18 -27 30 -138 30 -275 -1 -116 -4
-151 -24 -270 -5 -36 -13 -81 -16 -100 -3 -19 -9 -44 -14 -55 -5 -11 -11 -37
-15 -58 -3 -21 -28 -81 -56 -134 -48 -94 -58 -123 -41 -123 22 0 116 185 129
253 3 18 11 41 18 52 7 12 15 41 18 65 31 243 39 324 39 380 -1 74 -19 220
-33 266 -5 17 -9 39 -9 50 0 11 -7 29 -15 40 -8 10 -15 27 -15 37 0 11 -6 33
-14 50 -26 62 -38 93 -53 137 -8 25 -21 52 -29 61 -8 8 -14 20 -14 26 0 6 -7
16 -15 23 -8 7 -15 21 -15 30 0 10 -4 20 -9 22 -4 2 -21 24 -37 50 -77 124
-258 287 -397 358 -72 36 -96 51 -114 67 -7 6 -40 22 -73 35 -33 12 -60 28
-60 35 0 14 39 44 125 97 78 48 79 49 155 86 36 17 79 40 95 50 17 10 40 19
51 19 12 1 35 8 50 16 16 8 37 15 47 15 9 0 17 4 17 9 0 5 15 12 33 16 32 7
114 31 152 46 11 4 52 14 90 23 39 8 90 21 115 27 25 6 70 14 100 18 30 3 61
10 68 15 57 36 740 55 911 25 30 -5 76 -9 103 -9 27 0 65 -7 85 -15 19 -8 50
-15 67 -15 17 -1 49 -9 71 -20 22 -10 43 -16 47 -14 4 3 21 -2 37 -11 17 -8
41 -15 55 -15 14 0 28 -4 31 -10 3 -5 14 -10 24 -10 26 0 98 -55 121 -93 23
-37 28 -145 8 -165 -17 -17 -79 -14 -103 4 -15 11 -42 15 -101 13 -45 -1 -90
3 -101 10 -28 15 -516 15 -544 1 -11 -6 -75 -13 -142 -15 -84 -3 -132 -9 -153
-20 -16 -8 -39 -15 -52 -15 -15 0 -21 -4 -16 -11 4 -8 25 -9 63 -4 31 3 101
11 156 16 55 5 118 11 140 13 22 2 56 8 75 13 45 12 376 7 460 -6 36 -6 106
-16 155 -21 134 -15 186 -25 230 -45 71 -30 105 -93 70 -129 -8 -8 -15 -17
-15 -21 0 -16 -98 -90 -174 -132 -116 -64 -153 -79 -266 -112 -121 -36 -143
-41 -180 -45 -19 -2 -55 -9 -80 -14 -78 -18 -173 -32 -250 -37 -41 -3 -100
-10 -130 -16 -30 -6 -113 -13 -185 -16 -71 -2 -132 -7 -135 -9 -2 -3 1 -9 8
-13 18 -11 279 -4 327 9 22 6 94 15 160 21 183 15 229 20 240 29 6 4 36 11 68
15 32 3 70 13 85 21 15 7 36 14 46 14 19 0 67 13 111 31 71 27 199 30 305 5 8
-1 33 -6 55 -10 52 -10 82 -25 117 -59 38 -39 48 -59 48 -102 0 -83 -151 -211
-370 -315 -25 -12 -53 -26 -62 -31 -10 -5 -24 -9 -31 -9 -8 0 -41 -13 -73 -30
-32 -16 -69 -30 -81 -30 -12 0 -25 -4 -28 -10 -3 -5 -18 -10 -33 -10 -15 -1
-38 -7 -52 -15 -14 -8 -37 -14 -52 -15 -15 0 -42 -6 -60 -14 -60 -25 -265 -61
-468 -82 -108 -11 -155 -20 -152 -29 5 -19 380 3 406 24 6 5 29 11 51 13 50 6
130 27 172 44 17 8 47 14 66 14 20 0 39 5 42 10 3 6 19 10 34 10 15 0 31 4 37
8 5 5 29 14 53 21 24 7 69 25 100 39 117 56 289 21 324 -65 25 -64 7 -113 -77
-200 -22 -24 -44 -43 -49 -43 -11 0 -101 -62 -105 -72 -2 -5 -11 -8 -21 -8 -9
0 -41 -11 -69 -25 -29 -14 -55 -25 -58 -25 -3 0 -20 -6 -37 -14 -70 -30 -220
-66 -275 -66 -21 0 -42 -4 -47 -9 -19 -18 -261 -43 -433 -45 -147 -1 -172 -3
-170 -16 3 -12 32 -16 173 -18 101 -2 184 1 205 8 19 6 80 15 135 21 153 15
215 25 275 44 130 39 166 47 202 41 29 -5 38 -3 38 8 0 8 -5 16 -11 18 -7 2
23 21 66 42 42 21 105 58 139 82 58 43 126 108 126 121 0 4 9 16 19 27 18 20
26 59 22 116 -3 56 -125 141 -183 128 -27 -6 -21 17 8 32 87 44 230 149 284
208 57 63 60 68 60 118 0 53 -17 84 -75 138 -56 51 -159 79 -274 74 -46 -2
-76 1 -78 8 -2 5 25 23 59 39 81 37 172 107 204 155 21 31 24 45 18 76 -8 44
-59 96 -102 104 -26 5 -26 6 -27 91 -1 83 -2 86 -43 141 -41 55 -84 85 -166
113 -22 8 -51 15 -63 15 -12 0 -24 4 -27 9 -3 5 -20 11 -38 14 -45 7 -119 28
-140 38 -28 14 -150 29 -323 39 -88 5 -187 13 -220 16 -33 3 -64 2 -68 -2z"/>
<path d="M183 8258 c-24 -30 -63 -110 -63 -128 0 -15 -7 -20 -25 -20 -29 0
-30 -3 -9 -35 23 -35 32 -31 46 19 13 43 46 96 60 96 4 0 8 -30 10 -67 2 -38
7 -67 13 -66 6 1 17 22 25 47 17 52 33 55 38 8 5 -45 24 -41 89 18 75 69 106
67 63 -2 -11 -18 -20 -36 -20 -40 0 -17 44 -6 72 17 34 29 52 24 44 -11 -7
-27 20 -47 33 -25 5 8 34 11 89 10 45 -2 85 0 89 4 17 17 -20 30 -81 29 -56
-2 -66 1 -71 17 -3 10 -5 23 -4 27 6 35 -18 46 -41 19 -23 -28 -40 -18 -40 24
0 46 -14 60 -39 37 -10 -9 -21 -16 -25 -16 -5 0 -25 -13 -46 -30 -58 -46 -77
-37 -44 20 17 28 14 60 -5 60 -6 0 -33 -23 -61 -50 -45 -46 -50 -49 -51 -28
-1 13 -3 30 -4 38 -1 8 -3 21 -4 28 0 6 -7 12 -15 12 -7 0 -18 -6 -23 -12z
m127 -94 c0 -8 -4 -12 -10 -9 -5 3 -10 10 -10 16 0 5 5 9 10 9 6 0 10 -7 10
-16z"/>
<path d="M870 8199 c-19 -23 -39 -52 -44 -65 -6 -13 -13 -24 -17 -24 -4 0 -10
-18 -14 -39 -9 -56 -26 -67 -55 -36 -35 37 -54 33 -46 -10 3 -19 9 -51 12 -70
7 -40 6 -40 -32 -20 -41 21 -74 19 -74 -4 0 -10 7 -24 15 -31 8 -6 17 -21 21
-32 7 -25 35 -58 48 -58 5 0 2 8 -6 18 -9 9 -13 23 -11 30 3 7 0 19 -7 26 -6
8 -7 17 -2 20 8 4 34 -10 84 -46 14 -10 20 -10 29 -1 10 10 8 21 -6 53 -19 43
-15 61 10 40 27 -23 42 -4 49 61 6 65 34 136 51 132 6 -1 15 -30 20 -65 12
-74 34 -89 56 -36 20 48 71 118 82 111 8 -5 7 -24 -9 -100 -5 -28 -3 -33 13
-33 11 0 41 20 66 45 68 64 98 60 57 -7 -11 -18 -20 -39 -20 -45 0 -20 34 -15
71 10 51 35 69 40 69 19 0 -10 -5 -23 -10 -28 -8 -8 -6 -15 4 -24 13 -10 23
-8 56 9 42 22 100 28 100 11 0 -5 -13 -19 -30 -32 -57 -42 -29 -74 30 -34 40
27 84 34 95 16 8 -13 45 -13 45 -1 0 18 -32 41 -56 41 -19 0 -24 5 -24 24 0
37 -21 48 -71 37 -72 -17 -82 -15 -75 14 6 23 3 25 -24 25 -17 0 -44 -7 -61
-15 -40 -21 -54 -11 -33 25 39 65 -10 76 -94 19 -24 -16 -48 -27 -53 -24 -5 4
-6 30 -3 59 7 58 -3 74 -33 55 -19 -11 -74 -82 -84 -107 -4 -12 -8 -12 -22 2
-12 13 -14 22 -7 42 6 14 10 39 10 55 0 42 -27 37 -70 -12z"/>
<path d="M8476 7949 c-53 -8 -96 -42 -116 -90 -13 -31 -20 -35 -37 -18 -7 7
-24 6 -58 -2 -36 -9 -60 -24 -96 -62 -69 -72 -76 -144 -17 -185 24 -17 23 -32
-1 -32 -11 0 -32 -10 -47 -23 -20 -18 -28 -35 -32 -75 -2 -28 -2 -62 2 -75 6
-24 42 -47 76 -47 34 0 32 20 -4 35 -35 15 -36 17 -36 69 0 70 19 88 94 90 49
1 59 -2 86 -30 40 -40 33 -57 -41 -95 -58 -29 -69 -41 -48 -55 6 -3 9 -18 6
-33 -9 -44 3 -78 41 -115 33 -34 39 -36 100 -36 l65 0 -7 -32 c-13 -65 -56
-149 -56 -110 0 19 -75 94 -107 107 -22 9 -68 15 -118 15 -69 0 -85 -3 -100
-20 -20 -22 -17 -36 27 -101 48 -69 147 -129 213 -129 19 0 35 -5 35 -10 0
-21 -39 -88 -55 -93 -13 -5 -14 0 -9 33 6 38 5 40 -19 40 -30 0 -74 -17 -99
-38 -10 -8 -25 -12 -34 -8 -14 5 -14 10 5 42 36 61 25 83 -32 59 -19 -8 -45
-27 -57 -42 -16 -21 -23 -24 -30 -14 -4 8 -6 21 -3 30 9 30 27 66 41 83 14 17
10 48 -5 48 -20 0 -203 -172 -203 -190 0 -6 -12 -10 -26 -10 -22 0 -25 -4 -22
-27 4 -36 35 -43 47 -11 11 29 111 143 125 143 6 0 12 -25 14 -57 3 -65 20
-87 45 -60 9 9 26 28 39 42 20 22 23 23 26 7 2 -10 -1 -32 -7 -49 -6 -16 -8
-34 -5 -39 10 -17 42 -9 73 17 31 26 68 29 63 5 -6 -30 20 -41 99 -41 71 0 79
-2 79 -19 0 -10 -7 -24 -15 -31 -35 -29 -9 -59 30 -34 29 19 87 14 137 -12 58
-30 103 7 96 79 -4 45 13 42 47 -8 36 -53 65 -60 65 -15 0 17 4 30 9 30 5 0
11 10 14 22 9 34 21 12 23 -43 2 -28 5 -53 7 -56 7 -6 47 20 47 30 0 26 127
137 157 137 24 0 14 -21 -37 -78 -47 -52 -62 -82 -41 -82 18 0 101 41 101 50
0 6 11 10 24 10 13 0 29 7 36 15 13 15 80 21 80 7 0 -4 -14 -16 -31 -26 -32
-19 -34 -44 -3 -37 54 11 209 11 236 0 32 -13 41 -9 32 14 -8 21 -68 41 -100
33 -13 -4 -35 -4 -49 0 -20 5 -25 12 -25 36 0 30 -1 31 -44 26 -24 -3 -58 -13
-76 -22 -18 -9 -41 -16 -51 -16 -10 0 -21 -4 -24 -10 -3 -5 -13 -10 -20 -10
-10 0 -5 14 15 44 49 72 34 114 -28 82 -17 -9 -60 -41 -97 -72 -68 -58 -95
-64 -95 -22 0 47 -12 69 -34 66 -16 -2 -24 -14 -32 -48 -13 -53 -33 -61 -55
-23 -9 16 -30 45 -45 66 -31 43 -24 57 28 57 57 0 159 63 191 119 17 30 17 31
-4 48 -12 10 -30 26 -40 35 -63 59 -172 62 -251 6 -13 -9 -20 -9 -32 2 -14 11
-15 15 -2 29 8 9 16 30 18 46 2 24 7 29 23 26 45 -9 105 -5 131 9 62 32 97 85
92 137 -3 35 -1 38 27 44 66 12 93 30 114 75 26 54 26 65 1 114 -14 27 -29 42
-48 46 -41 10 -44 25 -12 60 54 62 26 136 -68 181 -29 14 -41 15 -78 5 -58
-16 -62 -15 -68 6 -6 16 -51 49 -86 63 -8 3 -37 2 -64 -2z m102 -59 c27 -26
28 -55 2 -98 -11 -18 -20 -39 -20 -48 0 -31 -27 -44 -90 -44 -71 0 -74 4 -75
97 0 51 4 65 24 87 21 22 33 26 81 26 43 0 61 -5 78 -20z m250 -88 c24 -30 14
-69 -25 -102 -50 -41 -112 -70 -149 -70 -30 0 -31 -1 -31 -47 0 -43 -4 -50
-45 -87 -27 -25 -63 -46 -91 -53 -42 -12 -52 -11 -90 7 -59 28 -76 73 -49 127
22 42 82 86 130 96 27 6 60 0 102 -17 12 -5 15 3 16 37 1 72 54 135 134 160
17 5 78 -27 98 -51z m-530 2 c12 -4 22 -14 22 -24 0 -10 6 -25 13 -32 6 -7 17
-28 24 -47 12 -32 10 -37 -23 -83 -20 -26 -42 -48 -50 -48 -7 0 -37 11 -66 24
-93 43 -96 101 -8 180 41 37 49 40 88 30z m563 -216 c39 -44 38 -76 -6 -121
-30 -31 -43 -37 -76 -37 -40 0 -88 25 -116 60 -28 33 14 103 71 119 63 19 95
13 127 -21z m-202 -145 c81 -84 88 -113 36 -166 -40 -42 -65 -51 -109 -43 -51
10 -64 32 -90 154 -3 18 2 25 27 36 18 8 41 21 52 30 29 23 53 19 84 -11z
m-229 -37 c50 -23 31 -156 -27 -187 -36 -19 -97 -14 -133 12 -25 19 -30 30
-30 63 1 43 18 70 74 114 31 24 62 23 116 -2z m53 -186 c4 -15 0 -38 -8 -54
-8 -16 -15 -42 -15 -60 -1 -28 -26 -115 -41 -141 -4 -5 -9 -23 -13 -39 -4 -16
-18 -43 -32 -61 -13 -17 -24 -37 -24 -42 0 -6 -9 -13 -20 -16 -11 -3 -20 -4
-20 -2 0 12 35 96 74 177 33 70 46 109 46 141 0 24 5 59 11 78 6 19 13 40 15
48 6 18 20 4 27 -29z m-264 -112 c43 -21 100 -73 101 -91 0 -13 -59 22 -89 53
-31 33 -57 38 -87 15 -18 -14 -17 -14 12 -15 22 0 45 -14 87 -51 67 -59 72
-79 22 -79 -70 0 -187 80 -201 136 -8 33 2 42 51 47 22 2 44 4 49 5 5 1 30 -8
55 -20z m497 -9 c33 -10 74 -43 74 -59 0 -18 -55 -68 -92 -83 -49 -20 -136
-31 -188 -22 -40 7 -48 22 -19 35 8 4 29 14 47 23 20 10 57 17 92 17 63 0 90
7 90 22 0 10 -142 5 -197 -7 -63 -14 -30 29 53 69 49 24 73 25 140 5z m-171
-242 c9 -18 15 -57 15 -99 0 -64 -1 -68 -23 -68 -13 0 -27 4 -32 9 -6 5 -28
11 -50 13 -29 2 -42 9 -50 24 -6 12 -16 29 -23 37 -12 14 4 55 54 138 2 4 24
0 49 -8 32 -11 49 -24 60 -46z"/>
<path d="M1805 7710 c-16 -4 -51 -8 -77 -9 -26 0 -50 -5 -53 -11 -3 -5 -22
-10 -41 -10 -19 0 -34 -4 -34 -8 0 -4 -17 -14 -37 -21 -21 -8 -52 -25 -69 -37
-17 -13 -34 -24 -39 -24 -9 0 -76 -52 -127 -99 -21 -18 -57 -63 -81 -100 -68
-102 -92 -165 -103 -266 -8 -85 -8 -103 1 -181 l8 -62 -34 -5 c-33 -4 -68 -16
-134 -42 -16 -7 -48 -19 -70 -26 -22 -7 -47 -19 -56 -26 -8 -7 -25 -13 -37
-13 -12 0 -22 -4 -22 -10 0 -5 -6 -10 -14 -10 -8 0 -21 -6 -28 -13 -7 -7 -26
-20 -43 -29 -65 -33 -100 -53 -110 -64 -5 -6 -36 -30 -67 -53 -32 -23 -58 -45
-58 -49 0 -5 -26 -35 -58 -68 -32 -32 -67 -72 -77 -88 -11 -16 -27 -39 -35
-51 -8 -12 -30 -43 -47 -68 -18 -25 -33 -49 -33 -53 0 -4 -12 -32 -26 -63 -42
-88 -77 -191 -85 -251 -4 -30 -12 -75 -18 -100 -24 -106 3 -339 55 -470 25
-64 84 -158 133 -210 24 -27 41 -55 41 -69 0 -14 8 -33 17 -43 23 -26 5 -41
-49 -42 -39 -1 -43 -3 -46 -28 -3 -27 -5 -28 -68 -28 -58 0 -74 -6 -59 -22 4
-3 23 -2 43 2 20 5 62 10 92 11 41 2 59 8 71 23 16 19 17 19 44 2 23 -15 29
-16 36 -5 12 19 11 36 -1 44 -13 8 -13 45 -1 45 5 0 11 -4 13 -8 4 -10 114
-92 124 -92 3 0 26 -13 51 -30 24 -16 50 -30 58 -30 8 0 16 -4 19 -9 3 -5 20
-11 38 -14 34 -6 64 -13 178 -43 96 -26 497 -26 590 0 36 9 75 24 87 32 12 8
38 14 57 14 19 0 38 5 41 10 3 6 19 10 35 10 16 0 31 4 35 9 3 5 22 15 43 21
20 7 72 30 114 51 43 22 85 39 93 39 8 0 15 4 15 8 0 12 70 43 81 36 5 -3 7
-14 4 -25 -12 -38 6 -39 71 -4 35 19 69 35 74 35 5 0 6 -16 3 -35 -5 -30 -3
-35 14 -35 11 0 28 9 38 20 18 20 45 27 45 13 0 -5 7 -17 15 -27 15 -19 15
-19 38 2 l22 21 43 -19 c54 -24 140 -29 153 -9 7 11 -3 15 -49 20 -52 5 -89
19 -134 51 -14 10 -21 9 -36 -5 -19 -17 -20 -17 -26 6 -7 31 -31 41 -50 22
-22 -22 -36 -18 -36 10 0 25 -14 33 -25 15 -3 -5 -14 -10 -23 -10 -9 0 -28 -9
-42 -20 -35 -27 -38 -25 -36 20 0 22 4 40 7 40 4 0 40 27 81 61 95 78 233 222
265 277 14 23 29 42 34 42 5 0 18 20 29 45 11 25 25 45 30 45 6 0 10 9 10 20
0 11 4 20 8 20 11 0 34 54 58 130 10 30 23 69 30 85 33 79 59 233 58 340 -2
127 -80 354 -151 440 -16 18 -36 45 -46 59 -10 14 -40 40 -67 58 -27 18 -52
38 -54 44 -2 6 0 29 6 50 5 22 12 51 15 65 3 15 33 54 68 88 71 70 82 95 60
146 -18 44 -6 70 42 86 46 15 60 35 39 57 -9 10 -16 22 -16 26 0 4 -6 14 -14
21 -7 8 -16 32 -20 54 -8 53 -34 68 -86 51 -46 -15 -68 -5 -107 48 -15 20 -37
44 -48 52 -11 8 -29 24 -41 35 -45 44 -102 83 -155 109 -64 30 -79 32 -79 11
0 -15 68 -55 95 -55 8 0 15 -4 15 -8 0 -5 21 -24 48 -42 62 -44 142 -127 142
-147 0 -9 -11 -30 -24 -48 -13 -17 -32 -62 -41 -101 -9 -38 -23 -81 -31 -96
-21 -38 -18 -53 16 -81 17 -14 30 -28 30 -31 0 -3 18 -31 40 -62 42 -61 50
-98 25 -130 -8 -10 -15 -30 -15 -44 0 -51 -59 -119 -158 -185 -48 -31 -64 -55
-39 -55 21 0 117 51 117 61 0 19 37 8 47 -13 20 -43 32 -112 22 -129 -5 -9
-10 -39 -12 -66 l-3 -48 -82 4 -82 3 0 -39 c0 -21 5 -44 11 -50 7 -7 9 -18 6
-27 -5 -13 -15 -11 -69 9 -93 34 -147 49 -155 42 -3 -4 -7 -36 -7 -72 -1 -82
-7 -83 -115 -19 l-29 17 -68 -66 c-38 -37 -72 -67 -76 -67 -11 0 -21 22 -28
59 -4 30 -10 36 -37 42 -17 3 -52 3 -77 -1 -53 -8 -56 -6 -56 32 0 23 -4 28
-24 28 -14 0 -27 -4 -30 -9 -10 -15 -90 -51 -114 -51 -19 0 -22 6 -22 35 0 20
7 49 15 64 12 24 12 31 2 40 -18 14 -75 6 -96 -13 -21 -19 -40 -20 -46 -3 -10
26 33 120 85 188 54 69 56 70 93 66 31 -4 38 -2 35 11 -2 9 -14 22 -28 29 -44
22 -121 107 -147 163 -14 30 -31 66 -37 79 -14 31 -15 339 0 349 5 4 18 30 28
57 41 110 143 218 274 290 77 42 107 53 237 87 22 6 109 10 193 10 117 -1 152
1 152 11 0 9 -33 17 -108 25 -118 13 -123 13 -167 2z m659 -346 c9 -3 16 -13
16 -21 0 -28 53 -62 96 -63 25 0 47 -6 54 -15 16 -19 8 -27 -45 -44 -22 -7
-67 -26 -100 -41 -84 -39 -122 -53 -133 -47 -11 8 29 169 48 190 8 9 21 23 28
32 15 17 15 17 36 9z m104 -2 c18 -12 4 -42 -19 -42 -24 0 -37 29 -18 41 17
11 21 11 37 1z m-18 -247 c19 -57 -1 -80 -48 -56 -9 5 -29 14 -44 22 -16 7
-28 17 -28 23 0 16 51 44 82 45 22 1 28 -5 38 -34z m-56 -99 c11 -16 -8 -46
-29 -46 -14 0 -77 85 -69 93 8 8 87 -30 98 -47z m-1296 -236 l33 -70 -38 -39
c-40 -40 -83 -95 -83 -105 0 -3 22 -17 50 -31 52 -26 53 -28 23 -85 -7 -14
-13 -33 -13 -43 0 -10 -4 -26 -9 -35 -5 -10 -7 -30 -4 -45 6 -32 36 -36 84
-12 41 22 51 12 43 -46 -8 -62 6 -83 50 -73 17 3 36 10 41 14 6 4 24 11 40 14
25 5 35 2 53 -19 21 -23 52 -34 52 -17 0 4 26 7 57 7 l57 0 15 -57 15 -58 -47
-45 c-58 -55 -62 -85 -12 -85 34 0 35 -1 35 -39 0 -22 -4 -43 -10 -46 -5 -3
-10 -15 -10 -25 0 -10 -7 -23 -15 -28 -9 -4 -18 -24 -21 -43 -5 -31 -3 -35 26
-46 29 -11 32 -15 26 -40 -4 -15 -11 -46 -15 -68 -5 -22 -14 -61 -21 -86 -13
-46 -8 -85 9 -75 5 3 11 23 14 43 8 60 26 122 48 165 24 46 20 64 -16 78 -14
5 -28 17 -31 25 -6 15 41 121 58 131 15 9 9 54 -7 54 -8 0 -15 4 -15 9 0 5 -9
11 -20 14 -11 3 -20 9 -20 14 0 8 105 110 192 186 41 36 83 32 130 -12 54 -50
67 -42 83 54 l10 60 41 -1 c24 0 66 -12 98 -28 81 -40 91 -35 91 44 l0 65 45
-2 c25 -1 60 -5 78 -9 31 -6 32 -6 32 30 0 39 19 56 67 56 49 0 58 13 44 59
-9 30 -25 52 -60 79 -108 84 -125 174 -24 130 62 -27 162 -155 204 -262 63
-159 76 -237 60 -373 -6 -60 -16 -121 -21 -138 -4 -16 -15 -55 -24 -85 -31
-112 -39 -136 -57 -170 -11 -19 -19 -38 -19 -43 0 -17 -106 -167 -170 -241
-72 -82 -187 -194 -225 -218 -22 -14 -52 -37 -68 -51 -15 -15 -49 -38 -75 -53
-26 -15 -56 -35 -67 -45 -11 -10 -38 -25 -60 -35 -22 -9 -47 -22 -55 -29 -8
-7 -24 -15 -35 -18 -11 -3 -58 -20 -105 -37 -186 -69 -273 -82 -560 -83 -300
-1 -393 13 -532 84 -10 5 -23 9 -29 9 -6 0 -31 14 -57 32 -64 44 -71 49 -100
81 -15 15 -31 27 -37 27 -9 0 -141 133 -170 172 -6 7 -19 33 -29 58 -10 25
-24 59 -31 75 -7 17 -24 68 -37 115 -44 160 -23 427 43 562 5 10 9 24 9 32 0
60 170 331 258 410 7 6 38 36 71 67 32 31 78 70 102 85 122 79 316 172 398
191 14 3 36 12 50 19 14 8 40 14 56 14 28 0 33 -6 63 -70z"/>
<path d="M2425 7300 c3 -5 8 -10 11 -10 2 0 4 5 4 10 0 6 -5 10 -11 10 -5 0
-7 -4 -4 -10z"/>
<path d="M1858 7265 c-16 -13 -28 -30 -28 -36 0 -7 -7 -21 -16 -31 -14 -14
-14 -20 -4 -33 7 -8 20 -15 30 -15 10 0 23 -6 29 -14 7 -8 30 -17 51 -21 31
-5 49 -2 82 17 24 13 49 29 56 36 7 6 20 12 28 12 19 0 18 19 -1 27 -9 3 -33
23 -54 44 -35 36 -42 39 -92 39 -43 -1 -60 -6 -81 -25z m82 -30 c0 -16 -27
-28 -36 -14 -7 12 15 41 27 33 5 -3 9 -11 9 -19z"/>
<path d="M7640 6911 c0 -20 7 -34 20 -41 15 -8 20 -8 20 1 0 7 2 10 5 7 10
-10 -18 -58 -33 -58 -7 0 -26 6 -40 14 -42 23 -139 49 -157 43 -23 -9 -19 -20
20 -56 20 -18 33 -36 30 -41 -4 -6 -46 -10 -96 -10 -49 0 -97 -4 -107 -9 -70
-35 -97 -51 -100 -60 -2 -6 3 -11 11 -11 17 0 74 28 82 40 8 13 207 9 242 -5
50 -21 60 6 17 48 -26 26 -25 47 2 47 22 0 90 -37 113 -61 12 -14 26 -19 37
-15 15 6 15 8 0 31 -23 35 -21 75 4 75 25 0 26 14 3 32 -10 7 -23 22 -29 33
-6 11 -19 21 -28 23 -12 3 -16 -4 -16 -27z"/>
<path d="M7815 5938 c-11 -7 -53 -12 -93 -12 l-74 -1 -36 -43 c-27 -31 -44
-42 -64 -42 -20 0 -34 -10 -53 -37 -14 -21 -25 -45 -25 -53 0 -22 -20 -40 -44
-41 -12 0 -31 -13 -43 -28 -20 -26 -21 -30 -7 -42 13 -10 17 -10 24 1 5 8 13
11 17 6 4 -5 2 -11 -4 -13 -7 -3 -13 -12 -13 -20 0 -9 -8 -34 -19 -57 -23 -51
-41 -107 -41 -128 0 -9 -15 -25 -33 -37 -46 -28 -71 -58 -105 -124 -36 -69
-50 -150 -31 -173 11 -13 26 -15 84 -10 65 5 130 -6 151 -27 4 -4 18 -7 31 -7
15 0 46 -23 93 -70 39 -38 75 -70 82 -70 6 0 19 -7 29 -16 16 -14 14 -21 -31
-112 -49 -98 -70 -177 -70 -262 0 -55 19 -161 31 -175 5 -5 9 -17 9 -26 0 -20
58 -140 75 -154 6 -5 24 -28 40 -50 16 -22 46 -58 67 -79 22 -23 38 -50 38
-63 0 -13 5 -23 10 -23 6 0 10 -11 10 -24 0 -28 35 -117 67 -168 13 -21 23
-42 23 -48 0 -16 160 -167 216 -203 42 -28 50 -38 55 -72 7 -51 33 -101 63
-121 39 -25 39 -43 0 -121 -52 -101 -63 -110 -117 -92 -49 16 -274 20 -285 4
-4 -5 -16 -15 -26 -21 -34 -18 -42 -41 -23 -62 25 -28 21 -39 -23 -67 -23 -14
-43 -32 -45 -40 -17 -52 -16 -51 -28 -34 -7 9 -18 14 -24 12 -16 -6 -17 -39
-2 -49 23 -14 -21 -26 -50 -14 -16 6 -46 10 -67 8 -32 -2 -40 -7 -42 -27 -4
-23 -2 -24 42 -19 26 3 49 2 52 -3 3 -5 16 -9 30 -9 13 0 33 -6 44 -12 16 -10
22 -10 32 1 10 11 10 14 1 18 -7 3 -13 10 -13 16 0 8 4 7 12 -1 7 -7 20 -12
31 -12 14 0 17 5 11 22 -4 13 -14 28 -23 35 -15 11 -15 12 1 13 9 0 20 -5 23
-11 4 -6 31 -9 64 -8 l56 3 3 -37 c3 -29 9 -40 27 -47 25 -9 86 -4 120 10 56
23 51 20 135 74 25 16 61 42 80 58 21 17 46 28 64 28 16 0 56 5 87 12 46 9 58
16 61 33 7 36 -9 65 -35 65 -30 0 -55 26 -41 44 54 72 104 159 104 183 0 20
10 36 33 54 28 23 44 27 108 29 132 5 169 1 169 -15 0 -16 69 -84 86 -85 31 0
59 -70 34 -85 -5 -3 -10 -14 -10 -23 0 -10 -13 -33 -30 -52 -16 -19 -29 -39
-30 -43 0 -5 -16 -29 -36 -53 l-36 -44 -71 0 c-131 0 -233 -29 -280 -78 l-22
-24 28 -24 c15 -13 39 -24 53 -24 37 0 39 -24 5 -58 -32 -32 -39 -68 -21 -103
14 -24 53 -24 105 1 48 22 59 15 43 -28 -11 -30 -10 -34 15 -59 25 -26 28 -27
64 -14 47 16 133 98 179 169 19 29 34 56 34 61 0 4 20 11 45 14 61 9 142 36
156 53 20 24 35 16 49 -27 16 -46 38 -61 52 -35 7 13 17 16 39 11 24 -6 33 -2
50 19 15 20 70 56 85 56 1 0 2 -12 1 -27 -2 -26 0 -28 37 -26 21 2 45 8 54 15
8 7 40 15 70 18 32 3 57 10 60 18 5 17 -55 16 -108 -3 -23 -8 -46 -13 -50 -10
-5 3 -6 21 -3 40 8 47 -11 46 -89 -5 -67 -45 -88 -42 -80 11 4 27 2 31 -12 26
-10 -4 -19 -7 -22 -7 -2 0 -13 -18 -24 -40 -11 -22 -24 -40 -29 -40 -5 0 -19
12 -32 26 -53 59 -73 74 -105 80 -19 3 -36 10 -39 14 -3 4 16 37 42 71 74 100
93 129 93 143 0 38 31 82 70 100 23 11 81 61 134 117 77 81 102 115 139 191
48 98 58 126 76 198 15 59 19 148 6 152 -6 2 -11 -23 -13 -57 -1 -33 -9 -74
-17 -92 -8 -17 -15 -43 -15 -57 0 -14 -4 -26 -9 -26 -5 0 -12 -10 -16 -22 -29
-104 -176 -296 -268 -349 -87 -52 -187 -76 -264 -64 -45 6 -137 69 -130 88 6
20 61 46 100 46 26 1 37 5 34 14 -5 14 -87 12 -128 -4 -31 -12 -324 -6 -394 9
-96 20 -271 98 -334 149 -54 44 -161 152 -161 163 0 5 -8 17 -19 27 -19 18
-66 149 -76 214 -4 27 -18 48 -49 77 -52 48 -127 144 -156 200 -12 23 -26 45
-31 48 -5 3 -9 18 -9 34 0 16 -4 32 -10 35 -5 3 -10 24 -10 46 0 22 -4 48 -9
57 -4 10 -4 54 1 102 9 87 38 174 88 260 l26 45 60 1 c84 1 94 3 94 14 0 6
-19 10 -42 10 -53 0 -140 23 -176 46 -33 21 -102 94 -102 109 0 5 7 31 16 56
10 26 14 57 11 71 -7 27 -71 95 -98 103 -9 3 -23 20 -30 38 -7 18 -24 49 -37
69 -24 37 -25 88 -2 88 6 0 10 11 10 24 0 14 5 28 10 31 6 3 10 15 10 26 0 32
69 139 120 185 19 18 46 43 61 55 23 22 113 71 164 89 97 36 117 40 217 40 74
0 114 -4 134 -15 16 -8 39 -15 51 -15 30 0 182 -74 215 -105 15 -14 29 -25 32
-25 12 0 132 -129 151 -161 11 -19 31 -54 46 -79 34 -60 59 -135 59 -181 0
-21 5 -50 11 -66 17 -46 22 -158 9 -233 -14 -86 -9 -95 62 -103 28 -4 56 -11
62 -17 5 -5 20 -10 32 -10 20 0 182 -75 194 -90 3 -3 44 -30 92 -59 47 -29 94
-61 104 -72 9 -10 21 -19 27 -19 13 0 177 -165 177 -179 0 -6 7 -11 15 -11 10
0 15 10 15 30 0 26 3 29 18 21 10 -5 37 -8 59 -5 23 2 45 -1 48 -6 3 -6 18
-10 32 -10 16 0 27 -7 30 -20 3 -11 9 -20 14 -20 13 0 11 -57 -3 -80 -10 -16
-9 -26 9 -56 l21 -37 -21 -49 c-16 -40 -18 -54 -9 -69 21 -33 9 -91 -22 -111
-6 -4 -8 -10 -4 -13 9 -9 47 25 63 56 11 20 12 35 4 64 -9 31 -7 45 7 76 16
37 16 41 0 77 -13 29 -15 44 -7 64 21 55 -25 138 -77 138 -13 0 -33 5 -45 11
-11 7 -50 11 -84 11 l-63 -1 -87 79 c-48 44 -105 90 -128 101 -22 12 -42 25
-45 29 -10 15 -192 130 -206 130 -8 0 -14 5 -14 10 0 6 -7 10 -15 10 -8 0 -31
7 -52 16 -21 9 -51 23 -68 30 -16 7 -43 17 -60 22 l-30 9 -2 156 c-1 86 -7
166 -13 176 -5 11 -10 33 -10 49 0 35 -50 163 -70 182 -3 3 -19 28 -35 55 -45
78 -245 265 -284 265 -4 0 -29 11 -55 25 -26 14 -59 25 -74 25 -15 1 -38 7
-52 15 -32 18 -294 21 -325 3z m-455 -573 c0 -8 4 -15 9 -15 5 0 14 -14 21
-30 12 -28 10 -32 -14 -55 -42 -39 -33 -57 19 -33 36 16 118 -23 113 -55 -3
-19 -10 -22 -50 -24 -27 -1 -72 -7 -102 -13 -29 -6 -57 -10 -62 -9 -5 1 -22
-3 -38 -10 -48 -20 -60 -9 -52 51 4 29 10 55 14 58 4 3 13 17 19 32 16 37 92
118 109 118 8 0 14 -7 14 -15z m140 -275 c0 -21 -8 -21 -75 -3 l-20 6 20 8
c11 4 32 8 48 8 21 1 27 -4 27 -19z m786 -1665 c16 -8 37 -15 46 -15 9 0 20
-4 23 -10 3 -5 19 -10 34 -10 66 0 121 -41 74 -56 -10 -3 -26 -10 -35 -15 -25
-13 -92 -11 -125 3 -40 17 -83 65 -83 94 0 28 23 32 66 9z m152 -168 c2 -10
-26 -62 -64 -117 -74 -110 -75 -126 -6 -132 25 -2 37 -8 37 -18 0 -12 -17 -16
-77 -20 -74 -5 -79 -7 -120 -46 -52 -50 -98 -78 -180 -110 -80 -31 -108 -32
-108 -1 0 22 24 42 89 75 19 9 37 23 39 29 8 27 -31 25 -90 -6 -48 -24 -73
-31 -119 -31 -32 0 -61 4 -64 10 -3 5 6 21 20 34 20 19 42 26 93 31 37 4 73
12 80 18 20 16 -6 37 -47 37 -85 0 -115 31 -54 56 37 16 83 16 278 -1 69 -6
70 -6 83 21 6 15 12 32 12 37 0 4 11 23 24 40 13 18 31 49 41 69 15 33 22 37
58 41 62 6 71 4 75 -16z m670 -73 c2 -28 -37 -87 -137 -205 -48 -56 -38 -86
26 -80 37 3 73 -14 73 -34 0 -14 -22 -20 -112 -31 -32 -3 -58 -10 -58 -16 0
-20 -129 -180 -173 -214 -47 -37 -72 -39 -84 -9 -5 15 60 125 80 133 13 6 37
33 37 43 0 18 -31 8 -77 -25 -109 -77 -185 -101 -191 -60 -5 38 57 79 166 110
6 2 12 13 12 24 0 19 -6 20 -104 20 -161 0 -150 29 23 58 107 17 148 19 172 8
21 -9 115 128 193 281 9 18 21 23 71 26 81 4 80 4 83 -29z"/>
<path d="M7700 5453 c-23 -21 -33 -40 -37 -72 -4 -31 -14 -52 -32 -67 -20 -18
-23 -25 -14 -35 10 -10 20 -9 52 5 26 12 49 16 71 11 59 -13 98 2 127 48 15
23 36 49 46 58 25 20 14 39 -21 39 -16 0 -34 8 -42 20 -11 16 -26 20 -67 20
-43 0 -58 -5 -83 -27z m60 -38 c0 -8 -9 -15 -20 -15 -20 0 -26 11 -13 23 12
13 33 7 33 -8z"/>
<path d="M2895 4971 c-17 -16 -36 -37 -44 -46 -8 -10 -26 -16 -50 -15 -20 1
-43 1 -51 1 -16 -1 -50 -53 -50 -76 0 -7 -20 -23 -45 -35 -61 -30 -79 -65 -81
-162 -2 -76 -2 -77 28 -91 28 -13 37 -13 97 4 54 16 75 17 114 9 26 -5 61 -10
78 -10 19 0 32 -6 36 -17 4 -10 10 -20 14 -23 4 -3 9 -19 11 -35 3 -30 3 -30
-44 -27 -90 7 -164 -39 -230 -142 l-32 -49 23 -18 c13 -11 29 -19 37 -19 8 0
14 -4 14 -10 0 -6 38 -10 94 -10 85 0 98 3 152 31 32 17 73 45 91 61 l32 31
37 -22 c29 -17 45 -21 80 -15 28 4 44 2 44 -4 0 -22 133 -72 191 -72 53 0 140
35 173 69 35 37 28 66 -29 125 -35 37 -50 45 -93 51 -63 8 -127 -1 -169 -25
-26 -15 -32 -16 -37 -5 -8 22 44 109 97 164 54 56 95 71 131 48 12 -8 49 -17
82 -20 32 -3 74 -9 93 -12 19 -5 57 -2 89 6 64 15 117 62 125 112 3 18 9 44
12 58 10 38 -45 122 -95 144 -36 16 -42 16 -106 0 -37 -9 -83 -28 -101 -42
-19 -14 -45 -27 -58 -28 -39 -5 -84 -43 -106 -92 -16 -35 -18 -48 -8 -59 10
-12 5 -21 -27 -49 -21 -19 -46 -37 -54 -40 -8 -3 -26 -24 -39 -47 -16 -28 -26
-38 -29 -28 -3 8 0 16 7 18 6 2 11 9 11 16 0 6 24 41 54 76 56 66 68 98 17 45
-16 -17 -39 -40 -52 -52 -33 -30 -61 -69 -79 -110 -5 -13 -14 -23 -20 -23 -5
0 -10 -9 -10 -19 0 -11 -4 -23 -10 -26 -5 -3 -10 -17 -10 -29 0 -13 -6 -28
-13 -34 -17 -14 -85 43 -129 107 -30 45 -30 46 -23 141 7 105 7 104 53 154 17
19 32 45 32 56 0 12 4 30 10 40 7 14 4 24 -17 44 -24 24 -32 26 -77 21 -43 -6
-55 -3 -75 14 -31 27 -31 27 -66 -8z m69 -17 c10 -27 7 -44 -9 -44 -18 0 -30
24 -21 45 7 20 22 19 30 -1z m121 -34 c16 -17 16 -23 4 -53 -21 -50 -56 -89
-76 -85 -15 3 -19 15 -21 66 -2 48 0 62 11 62 8 0 20 7 27 15 17 20 33 19 55
-5z m-157 -61 c2 -13 7 -33 11 -44 32 -77 32 -77 15 -96 -26 -28 -40 -23 -79
27 -43 58 -49 123 -13 148 19 13 25 14 43 2 11 -7 21 -24 23 -37z m876 35 c9
-24 -2 -34 -40 -34 -19 0 -50 -9 -70 -19 -54 -29 -84 -10 -47 31 9 10 26 18
39 18 13 0 26 5 29 10 10 17 82 12 89 -6z m-1006 -38 c-2 -15 -11 -22 -30 -24
-32 -4 -36 12 -12 39 20 22 46 13 42 -15z m804 -100 c5 -94 2 -99 -38 -93 -42
7 -62 26 -70 65 -8 39 21 100 49 104 43 8 55 -8 59 -76z m273 54 c9 -29 -15
-71 -55 -93 -44 -25 -132 -20 -160 9 -18 18 -18 21 -4 50 21 43 46 53 136 53
68 1 77 -1 83 -19z m-1053 -65 c45 -59 51 -105 16 -105 -32 1 -99 33 -122 58
-16 19 -17 25 -6 52 27 65 60 63 112 -5z m-159 -29 c12 -36 -6 -58 -29 -35
-10 11 -13 24 -8 43 8 33 25 29 37 -8z m347 -29 c0 -68 -102 -123 -172 -93
-29 12 -31 14 -13 20 52 18 123 58 145 81 31 33 40 32 40 -8z m840 -2 c0 -8
-7 -15 -15 -15 -8 0 -15 -6 -15 -14 0 -9 -18 -16 -50 -20 -60 -8 -120 1 -120
19 0 9 23 12 81 12 65 0 84 4 91 17 11 20 28 21 28 1z m-1112 -67 c2 -11 -11
-23 -44 -37 -43 -19 -49 -20 -71 -6 -48 32 -14 66 62 62 37 -1 51 -6 53 -19z
m268 -75 c4 -15 13 -34 21 -41 7 -7 13 -19 13 -26 0 -15 62 -75 114 -109 37
-24 40 -25 53 -9 13 16 14 16 11 -2 -2 -10 -10 -23 -19 -29 -25 -16 -99 19
-132 61 -61 79 -98 145 -92 163 9 27 24 23 31 -8z m231 -140 c-3 -10 -5 -2 -5
17 0 19 2 27 5 18 2 -10 2 -26 0 -35z m266 16 c20 -5 37 -14 37 -18 0 -4 11
-13 25 -19 25 -11 35 -42 14 -42 -6 0 -24 10 -41 21 -27 20 -39 21 -129 16
-91 -5 -124 2 -81 17 9 3 33 12 52 20 43 18 74 19 123 5z m-545 -25 l37 -16
-65 -21 c-82 -28 -110 -44 -110 -62 0 -8 -4 -15 -10 -15 -5 0 -10 -4 -10 -10
0 -16 14 -12 52 13 18 13 43 26 53 30 11 3 40 13 64 22 31 11 47 13 55 5 16
-16 -2 -38 -62 -71 -46 -25 -63 -29 -132 -29 -80 0 -130 13 -130 35 0 7 16 33
35 58 52 68 146 94 223 61z m592 -74 l25 -19 -21 -21 c-33 -33 -154 -40 -217
-12 -33 15 -47 27 -47 41 0 25 14 28 135 30 84 0 104 -2 125 -19z"/>
<path d="M4385 4769 c-12 -18 -37 -130 -45 -199 -11 -89 -24 -133 -49 -168
-30 -43 -55 -44 -241 -16 -43 7 -80 -23 -80 -64 0 -85 24 -128 103 -190 13 -9
17 -29 17 -74 0 -118 73 -314 145 -390 19 -21 38 -38 41 -38 3 0 19 -13 35
-28 29 -27 30 -29 15 -58 -25 -48 -44 -97 -50 -131 -3 -18 -9 -47 -12 -64 -6
-30 8 -119 26 -166 5 -12 21 -34 36 -50 25 -27 26 -35 28 -138 4 -203 78 -375
230 -533 46 -48 168 -122 202 -122 12 0 74 -65 74 -78 0 -4 15 -23 33 -41 32
-34 32 -37 22 -77 -6 -24 -14 -46 -18 -50 -4 -4 -7 -15 -7 -25 0 -10 -6 -24
-13 -31 -8 -7 -19 -23 -26 -36 -15 -28 -57 -29 -91 -2 -14 11 -31 20 -38 20
-8 0 -28 6 -45 14 -109 48 -214 59 -277 28 -30 -15 -35 -22 -35 -52 0 -33 -2
-35 -35 -38 -19 -2 -38 -8 -41 -14 -4 -6 -24 -14 -45 -17 -33 -5 -39 -11 -42
-33 -2 -20 4 -30 27 -44 35 -21 39 -30 14 -38 -10 -3 -30 -17 -46 -31 -22 -21
-25 -30 -17 -45 5 -10 20 -22 31 -25 40 -13 174 -15 289 -4 187 17 156 30 -67
27 -111 -2 -204 0 -208 4 -13 12 17 40 65 61 31 14 70 21 125 22 101 2 100 2
86 19 -9 11 -38 14 -116 13 -88 -1 -107 2 -125 18 -20 18 -20 18 22 38 36 16
65 19 181 19 75 0 137 3 137 8 0 16 -26 28 -78 34 -29 4 -64 11 -78 17 -22 8
-24 12 -14 24 17 20 93 19 167 -1 32 -9 70 -18 85 -21 15 -3 33 -11 39 -19 6
-8 19 -14 29 -14 9 0 25 -9 35 -20 32 -35 59 -26 99 34 20 30 36 63 36 73 0
10 7 27 15 37 8 11 15 28 15 37 0 25 14 31 54 24 38 -8 53 -36 30 -56 -8 -6
-14 -21 -14 -33 0 -12 -4 -26 -9 -32 -5 -5 -12 -35 -16 -66 -7 -57 -7 -58 29
-94 60 -60 42 -99 -34 -74 -43 14 -100 5 -108 -18 -2 -8 11 -12 47 -12 27 0
61 -5 74 -11 28 -13 93 10 103 36 4 9 -8 37 -28 68 -47 71 -50 90 -28 168 30
108 31 110 111 123 21 4 42 13 49 21 7 8 18 15 24 15 17 1 93 80 77 80 -8 0
-28 -11 -45 -23 -62 -47 -107 -62 -186 -61 -94 2 -134 24 -191 104 -22 31 -54
64 -72 73 -18 9 -52 25 -77 37 -112 52 -192 137 -269 283 -52 100 -71 182 -71
315 l0 107 -35 44 c-20 25 -39 56 -43 70 -10 37 -6 229 6 244 5 6 12 28 16 47
7 42 40 68 62 49 14 -12 44 -6 44 8 0 5 -23 17 -50 28 -28 11 -65 32 -83 48
-17 16 -42 35 -54 44 -13 8 -23 22 -23 29 0 8 -3 14 -8 14 -4 0 -18 21 -31 48
-13 26 -29 59 -37 74 -8 14 -14 41 -14 60 0 19 -5 39 -11 45 -7 7 -9 41 -5
100 10 162 9 159 101 241 45 39 87 72 92 72 13 0 163 119 163 129 0 4 15 15
33 25 17 10 43 29 57 42 21 20 37 24 95 25 125 2 207 -13 277 -51 10 -6 22
-10 28 -10 13 0 25 -10 88 -70 79 -76 122 -138 122 -174 0 -8 6 -16 13 -18 9
-4 12 -46 12 -169 0 -158 -1 -166 -27 -218 -15 -30 -25 -58 -22 -63 10 -15 23
-8 41 22 17 29 46 40 57 21 4 -5 26 -19 51 -31 25 -12 45 -26 45 -31 0 -5 5
-9 12 -9 23 0 147 -102 173 -142 6 -8 30 -40 55 -71 55 -68 130 -207 130 -241
0 -13 -5 -26 -12 -28 -6 -2 -9 -12 -5 -21 5 -15 13 -13 66 13 49 24 73 30 128
30 61 0 72 -3 105 -30 20 -17 47 -52 59 -78 12 -26 26 -56 31 -66 13 -25 11
-277 -2 -290 -6 -6 -10 -22 -10 -37 0 -15 -6 -34 -12 -41 -7 -7 -29 -43 -48
-79 -87 -163 -278 -310 -465 -356 -81 -20 -193 -27 -211 -13 -16 14 -54 4 -54
-14 0 -22 34 -46 50 -36 8 5 49 10 91 10 68 0 79 -3 117 -30 49 -37 55 -54 47
-125 -8 -59 -27 -76 -63 -56 -11 6 -60 16 -110 22 -99 14 -146 4 -157 -32 -4
-10 -23 -26 -43 -35 -58 -25 -65 -29 -76 -48 -9 -14 -6 -22 17 -41 29 -26 35
-45 13 -45 -21 0 -28 -42 -10 -61 14 -16 34 -22 112 -36 46 -7 50 -28 15 -66
-33 -36 -84 -140 -102 -207 -7 -25 -19 -67 -26 -95 -38 -136 -38 -348 -1 -480
8 -27 21 -70 28 -95 11 -40 43 -107 58 -120 3 -3 14 -21 25 -40 37 -67 146
-180 194 -201 22 -10 29 -18 24 -29 -3 -8 -6 -27 -5 -42 1 -30 -4 -33 -41 -19
-38 15 -119 21 -138 10 -10 -5 -21 -18 -24 -29 -13 -41 -26 -19 -24 37 2 46 0
59 -12 61 -9 2 -22 -4 -29 -13 -7 -8 -19 -15 -26 -15 -20 0 -17 37 4 49 14 8
15 12 4 22 -15 16 -71 -2 -119 -39 l-33 -24 0 35 c0 20 5 39 10 42 13 8 13 55
-1 55 -17 0 -108 -82 -130 -117 -24 -39 -41 -42 -58 -11 -14 27 -120 100 -132
92 -16 -10 -9 -60 11 -82 21 -23 28 -86 10 -97 -22 -13 -150 -6 -172 10 -29
20 -163 20 -198 0 -41 -23 -60 -19 -60 14 0 16 7 45 15 65 15 35 17 36 69 36
77 0 126 37 150 114 l18 56 47 0 c43 0 51 4 84 41 32 35 37 47 37 90 0 29 8
64 20 86 17 34 18 43 7 78 -20 64 -35 85 -62 85 -19 0 -25 5 -25 23 0 13 5 28
11 34 14 14 -11 64 -47 92 -33 26 -124 30 -148 6 -20 -21 -21 -20 -65 25 -32
33 -45 40 -77 40 -22 0 -49 -3 -62 -6 -27 -8 -52 -52 -52 -93 0 -16 -4 -33
-10 -36 -5 -3 -10 -1 -10 5 0 6 -18 19 -41 29 -67 31 -117 11 -172 -69 -22
-32 -22 -62 3 -90 27 -31 26 -34 -14 -55 -43 -23 -76 -81 -76 -133 0 -33 6
-45 31 -66 34 -29 42 -31 70 -16 28 15 37 -14 15 -50 -9 -17 -16 -50 -16 -82
0 -45 4 -59 24 -77 33 -31 125 -40 161 -17 22 14 26 15 31 2 7 -19 -26 -156
-38 -156 -5 0 -25 12 -43 26 -74 56 -183 79 -235 49 -14 -8 -33 -14 -43 -15
-21 0 -62 -28 -114 -79 l-36 -34 33 -27 c18 -14 66 -39 107 -54 66 -25 83 -27
144 -21 73 7 164 36 185 57 23 24 75 196 76 253 1 38 6 55 15 55 7 0 13 -8 13
-18 0 -10 5 -23 12 -30 8 -8 8 -15 1 -24 -6 -7 -14 -34 -17 -60 -7 -48 -37
-143 -49 -155 -4 -3 -7 -19 -7 -35 0 -25 7 -32 48 -49 99 -43 289 -13 362 57
22 21 23 27 11 45 -11 18 -10 24 3 37 12 13 20 13 38 4 13 -6 38 -14 57 -18
l34 -6 -6 68 c-4 38 -9 80 -13 94 -5 20 5 14 54 -34 38 -37 66 -57 75 -53 8 3
25 26 37 51 22 44 50 68 50 43 0 -7 -5 -29 -11 -51 -17 -62 1 -66 63 -12 29
25 57 45 63 43 5 -2 11 -18 13 -36 3 -32 5 -33 37 -28 20 3 38 1 43 -6 11 -14
0 -50 -13 -45 -6 2 -11 -7 -13 -19 -4 -24 21 -33 33 -12 4 5 19 9 33 8 15 -1
46 -1 70 -1 33 2 42 6 42 20 0 10 -5 23 -12 30 -20 20 21 26 58 8 19 -9 41
-16 50 -16 8 0 27 -9 42 -20 41 -30 84 -6 51 27 -7 7 -9 18 -6 26 5 13 11 13
49 1 24 -8 52 -18 63 -23 133 -57 168 -71 183 -71 10 0 22 -3 26 -7 15 -15
125 -46 196 -54 238 -29 632 -34 714 -10 17 5 63 18 101 29 39 12 81 23 95 26
14 3 39 8 55 11 37 8 211 91 220 105 3 5 13 10 21 10 8 0 33 12 55 26 l41 25
64 -65 c76 -77 156 -140 222 -173 74 -38 184 -81 225 -88 20 -3 37 -10 37 -14
0 -5 15 -11 33 -14 17 -3 50 -10 72 -16 64 -17 471 -14 531 4 27 8 59 15 71
15 62 0 308 97 400 156 28 19 54 34 57 34 3 0 42 27 87 60 44 33 87 60 95 60
10 0 14 -13 14 -45 0 -54 16 -59 48 -15 27 36 28 44 2 37 -30 -8 -33 7 -8 50
19 34 50 70 163 193 37 41 115 154 115 169 0 5 4 11 9 13 8 3 103 194 135 272
9 21 16 48 16 60 0 11 7 30 15 40 17 23 20 132 5 156 -8 12 -10 9 -10 -11 0
-46 -52 -198 -111 -327 -16 -35 -29 -70 -29 -77 0 -8 -4 -16 -9 -19 -5 -3 -23
-33 -40 -66 -43 -84 -102 -159 -219 -275 -103 -103 -152 -146 -206 -180 -17
-11 -61 -41 -98 -68 -36 -26 -73 -47 -81 -47 -9 0 -19 -5 -22 -10 -8 -13 -89
-50 -110 -50 -8 0 -23 -4 -33 -10 -37 -20 -170 -60 -237 -70 -38 -5 -104 -15
-145 -21 -135 -20 -377 -1 -483 37 -20 8 -44 14 -53 14 -39 0 -196 71 -265
119 -20 15 -58 41 -85 60 -63 43 -90 74 -168 191 -46 68 -75 126 -102 205
l-39 110 1 185 c0 180 12 269 42 325 5 11 15 40 22 65 12 45 21 66 68 150 49
90 66 116 101 156 20 22 61 69 91 104 77 88 164 170 217 203 81 51 205 117
219 117 8 0 14 5 14 10 0 6 10 10 23 10 13 0 41 9 63 19 21 10 59 24 84 31 25
7 57 18 72 26 14 8 36 14 47 14 12 0 29 4 39 9 79 41 401 47 622 12 30 -5 75
-13 100 -16 25 -4 88 -22 140 -41 133 -46 160 -57 160 -66 0 -4 7 -8 16 -8 9
0 33 -13 54 -30 21 -16 41 -30 45 -30 4 0 24 -14 44 -31 20 -17 53 -45 74 -62
34 -28 72 -83 126 -182 17 -30 38 -94 43 -129 2 -11 9 -21 16 -24 18 -6 16
109 -3 134 -8 10 -15 25 -15 32 0 13 -47 90 -66 107 -5 6 -26 31 -45 57 -19
26 -41 50 -49 53 -8 3 -35 23 -60 45 -25 22 -49 40 -53 40 -4 0 -34 17 -65 37
-79 52 -133 77 -192 89 -19 3 -39 10 -45 14 -5 4 -21 10 -35 12 -14 3 -83 18
-155 33 -118 26 -150 28 -335 29 -216 1 -211 1 -389 -56 -52 -16 -103 -31
-112 -33 -10 -2 -27 -8 -38 -14 -11 -6 -27 -11 -35 -11 -9 0 -45 -14 -81 -30
-36 -17 -70 -30 -75 -30 -6 0 -10 -3 -10 -8 0 -4 -12 -13 -27 -19 -69 -30
-194 -120 -265 -188 -43 -41 -82 -75 -88 -75 -6 0 -15 10 -21 23 -13 27 -103
93 -184 135 -94 48 -192 92 -204 92 -6 0 -11 5 -11 10 0 6 -12 10 -27 10 -26
0 -61 9 -138 37 -39 15 -78 23 -200 45 -67 12 -450 15 -535 5 -73 -10 -163
-32 -230 -58 -30 -12 -71 -24 -90 -27 -19 -2 -50 -13 -68 -24 -48 -26 -62 -18
-62 36 0 38 6 52 41 92 69 80 91 120 84 158 -6 30 -1 38 57 98 61 63 108 135
108 164 0 8 7 17 15 20 8 4 15 15 15 25 0 10 5 19 10 19 6 0 10 8 10 18 0 9 6
29 14 43 35 68 27 294 -14 384 -26 56 -67 105 -87 105 -8 0 -16 7 -19 15 -4 8
-23 18 -44 21 -31 5 -41 12 -51 38 -7 17 -15 33 -18 36 -3 3 -17 28 -31 55
-14 28 -30 56 -37 63 -7 7 -13 17 -13 22 0 17 -105 111 -146 131 -24 11 -70
24 -102 29 -57 8 -102 27 -102 42 0 5 -6 8 -14 8 -8 0 -27 11 -43 24 -15 13
-51 36 -80 50 -75 40 -77 43 -63 129 10 58 10 90 0 148 -7 41 -13 111 -12 157
0 80 -1 84 -30 105 -16 12 -38 41 -48 64 -13 30 -25 43 -39 43 -11 0 -33 18
-51 40 l-32 40 -73 0 c-52 0 -78 4 -89 15 -9 10 -34 15 -73 15 -82 0 -118 13
-166 59 -23 23 -47 41 -53 41 -6 0 -17 7 -24 15 -7 8 -20 15 -30 15 -10 0 -23
7 -30 15 -15 18 -115 21 -125 4z m139 -44 c47 -20 116 -73 116 -89 0 -8 -9
-18 -20 -21 -11 -3 -20 -11 -20 -16 0 -5 -9 -9 -20 -9 -10 0 -35 -13 -53 -30
-19 -16 -38 -30 -42 -30 -4 0 -32 -23 -62 -50 -31 -28 -56 -50 -58 -48 -5 7
21 187 28 194 4 4 7 24 7 43 0 20 7 47 16 59 17 25 43 24 108 -3z m-317 -392
c2 -6 -12 -30 -32 -53 -38 -46 -56 -74 -54 -87 11 -68 -81 -15 -97 55 -3 15
-7 33 -10 40 -2 7 0 22 5 35 8 21 14 22 97 21 51 0 89 -5 91 -11z m1436 -653
c58 -32 148 -122 169 -172 7 -15 16 -28 20 -28 5 0 8 -9 8 -21 0 -11 7 -27 15
-35 28 -28 18 -52 -25 -64 -22 -6 -45 -8 -50 -5 -6 3 -27 41 -47 83 -20 42
-40 79 -43 82 -3 3 -22 27 -41 54 -18 28 -49 66 -66 85 -18 19 -33 39 -33 43
0 16 38 7 93 -22z m197 -1273 c0 -37 -49 -92 -107 -121 -41 -20 -112 -21 -141
0 -25 17 -21 34 9 34 10 0 19 4 19 8 0 4 20 14 45 21 25 7 45 16 45 20 0 3 15
12 33 20 17 8 43 23 56 33 33 25 41 23 41 -15z m680 -153 c41 -3 125 -12 185
-20 61 -8 130 -17 155 -20 25 -3 49 -10 54 -15 6 -5 26 -9 46 -9 20 0 45 -7
56 -15 10 -8 26 -15 34 -15 8 0 27 -6 42 -14 14 -8 52 -23 83 -35 61 -23 116
-51 182 -94 24 -15 47 -27 52 -27 14 0 101 -89 101 -104 0 -8 -17 -32 -37 -54
-21 -23 -47 -54 -58 -69 -60 -81 -165 -291 -165 -329 0 -13 -4 -32 -9 -42 -5
-9 -14 -39 -21 -67 -12 -49 -16 -70 -25 -170 -3 -27 -8 -69 -11 -93 -3 -23 -3
-50 1 -60 4 -9 8 -35 10 -57 2 -22 10 -60 19 -85 9 -25 16 -57 16 -72 0 -15 4
-29 9 -32 5 -3 12 -23 16 -43 4 -21 17 -51 29 -68 12 -16 30 -47 41 -67 19
-37 19 -37 0 -59 -11 -11 -36 -30 -55 -40 -19 -11 -42 -24 -50 -29 -52 -35
-273 -120 -309 -120 -11 0 -23 -4 -26 -10 -3 -5 -28 -10 -54 -10 -27 0 -61 -6
-76 -14 -30 -16 -82 -19 -290 -18 -183 1 -334 11 -355 22 -10 6 -41 10 -69 10
-27 0 -60 4 -73 9 -13 5 -41 14 -63 21 -22 6 -58 20 -80 30 -22 9 -58 25 -80
34 -22 9 -48 21 -57 26 -10 6 -24 10 -31 10 -7 0 -34 13 -60 30 -26 16 -52 30
-58 30 -11 0 -27 14 -119 102 -76 73 -120 124 -120 138 0 5 -4 10 -9 10 -5 0
-12 10 -16 23 -3 12 -10 31 -15 42 -18 40 -50 140 -50 156 0 10 -6 19 -12 22
-10 3 -13 52 -13 203 1 168 3 204 18 231 9 18 17 43 17 57 0 14 4 27 9 30 5 3
11 18 14 33 9 54 32 99 90 178 142 192 367 358 575 424 40 13 75 28 78 32 3 5
18 9 34 9 16 0 32 5 35 10 3 6 19 10 34 10 16 0 46 6 67 14 22 7 79 16 129 20
49 4 96 12 105 17 8 5 24 7 35 4 11 -3 54 -8 95 -11z m-790 -76 c0 -60 -2 -64
-31 -80 -50 -29 -69 -24 -69 17 0 49 22 114 40 119 55 14 60 10 60 -56z m-181
-121 l45 -20 -32 -26 c-18 -14 -69 -60 -113 -101 -46 -42 -89 -74 -98 -72 -19
4 -78 10 -108 11 -49 2 -16 61 34 61 10 0 24 4 32 9 24 16 -4 38 -55 44 -25 2
-50 9 -56 15 -18 18 58 42 133 42 75 0 86 11 39 35 -16 9 -30 20 -30 25 0 17
160 -1 209 -23z m-1134 -827 c33 -37 2 -160 -41 -160 -12 0 -24 -5 -26 -12 -6
-18 -29 1 -44 38 -17 40 -9 108 15 136 21 24 73 23 96 -2z m247 -61 c17 -23
18 -30 8 -50 -21 -38 -80 -96 -111 -109 -26 -11 -33 -10 -69 15 -44 31 -47 44
-24 101 24 60 49 74 118 72 50 -3 62 -7 78 -29z m-478 -9 c34 -22 76 -86 76
-115 -1 -45 -76 -96 -95 -65 -3 6 -17 10 -30 10 -22 0 -85 59 -85 81 0 30 31
77 61 92 42 21 38 21 73 -3z m265 -147 l61 -28 0 -45 c0 -29 -7 -54 -20 -70
-11 -14 -20 -29 -20 -34 0 -21 -65 -66 -105 -71 -47 -8 -117 8 -134 29 -23 27
-23 79 -2 127 22 50 43 72 93 99 46 24 57 24 127 -7z m285 11 c21 -21 21 -92
-1 -116 -28 -31 -179 -16 -190 19 -5 15 55 75 98 96 43 21 73 21 93 1z m-596
-84 c28 -18 32 -25 32 -65 0 -42 -2 -46 -37 -60 -43 -18 -108 -28 -133 -20
-43 14 -28 107 22 143 40 27 73 28 116 2z m497 -76 c83 -10 85 -11 85 -52 0
-71 -84 -117 -150 -83 -37 20 -70 52 -70 70 0 9 9 31 21 50 17 28 24 32 47 26
15 -4 45 -9 67 -11z m-434 -90 c7 -9 29 -23 48 -32 23 -11 37 -25 39 -39 4
-25 -40 -109 -71 -135 -27 -24 -82 -23 -118 3 -49 35 -39 106 27 178 40 45 55
49 75 25z m311 -57 c11 -14 18 -40 18 -70 0 -40 -5 -52 -27 -72 -38 -34 -92
-33 -132 1 -27 22 -31 32 -31 74 0 47 2 50 43 75 50 30 101 27 129 -8z m-447
-287 c3 -5 14 -10 23 -10 9 0 28 -9 42 -20 21 -16 22 -21 11 -29 -8 -5 -22 -6
-30 -1 -9 4 -37 11 -62 15 -51 8 -109 -14 -109 -40 0 -17 26 -20 35 -5 9 14
71 12 122 -3 47 -14 68 -30 59 -45 -10 -17 -132 -45 -168 -38 -18 4 -40 8 -48
9 -39 7 -119 53 -120 69 0 22 78 88 104 88 12 0 28 5 36 10 20 13 97 13 105 0z
m542 -77 c42 -32 42 -53 1 -78 -63 -38 -131 -53 -207 -46 -87 8 -108 24 -69
52 15 11 25 26 22 34 -4 8 11 26 38 45 41 31 46 32 112 25 52 -5 78 -13 103
-32z"/>
<path d="M4382 318 c-8 -10 10 -13 84 -13 69 0 94 3 94 13 0 9 -23 12 -84 12
-55 0 -87 -4 -94 -12z"/>
<path d="M8472 4634 c-10 -11 -12 -44 -9 -132 5 -129 13 -179 32 -202 7 -8 27
-43 45 -78 44 -85 180 -208 305 -275 55 -29 144 -67 157 -67 8 0 23 -7 35 -15
14 -10 60 -18 130 -23 110 -7 181 2 205 26 6 6 16 12 22 12 24 0 75 54 105
110 30 56 33 68 29 127 -2 35 -8 67 -14 71 -5 4 -17 23 -27 42 -43 80 -55 97
-128 172 -69 70 -109 95 -109 68 0 -5 23 -31 51 -57 118 -110 189 -233 189
-326 0 -32 -3 -57 -8 -57 -4 0 -16 -20 -27 -45 -11 -25 -23 -45 -27 -45 -4 0
-31 -15 -60 -32 -53 -33 -54 -33 -173 -32 -89 1 -128 6 -150 18 -16 9 -37 16
-45 16 -9 0 -20 4 -25 9 -6 5 -33 19 -62 30 -110 43 -309 211 -344 290 -8 17
-17 31 -21 31 -5 0 -8 7 -8 15 0 8 -4 23 -9 33 -30 59 -42 125 -38 204 2 46 7
93 12 106 9 26 -12 30 -33 6z"/>
<path d="M4580 4337 c0 -7 7 -22 15 -35 14 -19 14 -24 0 -52 -33 -65 20 -160
90 -160 20 0 35 -6 39 -15 3 -8 13 -15 22 -15 12 0 15 6 10 24 -4 18 1 33 19
54 34 41 34 91 -1 126 -15 14 -33 26 -40 26 -8 0 -14 5 -14 10 0 6 -18 10 -40
10 -27 0 -47 7 -60 20 -23 23 -40 26 -40 7z m170 -112 c0 -8 -7 -15 -15 -15
-8 0 -15 7 -15 15 0 8 7 15 15 15 8 0 15 -7 15 -15z"/>
<path d="M6920 4242 c-19 -9 -39 -22 -45 -29 -7 -8 -23 -9 -55 -3 -52 10 -83
-1 -112 -41 -19 -25 -20 -35 -16 -94 2 -24 -1 -30 -17 -31 -47 -2 -55 -5 -85
-30 -31 -27 -70 -95 -70 -123 0 -9 13 -27 30 -41 l29 -25 -20 -58 c-19 -57
-19 -60 -2 -95 15 -31 24 -37 55 -40 27 -2 43 3 57 17 28 28 41 26 41 -4 0
-34 35 -102 59 -115 11 -5 33 -10 50 -10 l31 0 0 -60 c0 -64 -8 -72 -40 -40
-11 11 -25 20 -30 20 -6 0 -30 10 -52 21 -78 40 -204 12 -243 -53 -15 -26 -14
-30 4 -67 35 -68 71 -85 185 -89 83 -3 102 -1 112 12 10 15 13 15 24 1 7 -9
15 -38 18 -65 5 -59 -12 -73 -55 -44 -17 11 -47 17 -83 18 -57 0 -101 -21
-174 -84 -81 -70 -140 -192 -99 -203 58 -17 103 -18 126 -3 13 9 32 14 41 10
11 -4 29 2 46 15 16 11 38 21 50 21 11 0 20 3 20 8 0 4 14 13 31 21 17 7 54
29 82 48 l52 35 67 -36 c37 -20 77 -36 88 -36 11 0 20 -4 20 -10 0 -16 195
-12 235 4 40 17 43 30 15 89 -35 71 -88 120 -148 136 -44 12 -142 -7 -172 -34
-26 -24 -37 -13 -38 37 -1 77 1 79 72 72 90 -9 169 17 242 80 60 51 62 72 12
118 -39 36 -45 38 -107 38 -68 0 -107 -16 -158 -62 -25 -24 -59 -18 -49 9 4 9
11 45 16 81 10 72 24 88 57 67 34 -23 116 -19 138 5 27 30 44 87 38 125 -5 31
-4 32 40 43 73 19 99 60 81 130 -7 28 -19 41 -53 59 -25 13 -46 25 -49 27 -2
3 8 22 22 43 45 65 31 135 -34 168 -42 22 -79 18 -116 -10 -39 -30 -44 -31
-44 -5 0 11 -4 20 -10 20 -5 0 -10 7 -10 15 0 11 -49 47 -62 44 -2 0 -19 -8
-38 -17z m74 -53 l24 -21 -23 -61 c-18 -49 -28 -63 -49 -68 -32 -9 -32 -7 -40
78 -5 56 -3 64 16 78 30 20 43 19 72 -6z m-142 -41 c28 -36 24 -105 -8 -134
-14 -13 -27 -24 -30 -24 -21 0 -49 29 -70 75 l-26 54 22 32 c20 28 27 31 59
25 20 -3 43 -15 53 -28z m344 11 c47 -28 47 -73 2 -116 -63 -59 -105 -67 -153
-29 l-30 24 21 38 c19 37 94 104 116 104 6 0 26 -9 44 -21z m-469 -170 c48
-30 39 -49 -34 -73 -34 -12 -65 -24 -69 -28 -4 -5 -20 -8 -36 -8 -74 0 13 125
91 129 7 1 29 -9 48 -20z m307 -10 c39 -18 44 -90 8 -131 -41 -48 -194 -74
-241 -42 -20 14 -22 22 -17 57 9 54 21 73 64 102 29 18 51 24 99 24 34 1 73
-4 87 -10z m232 -70 c13 -12 24 -31 24 -42 0 -26 -53 -77 -76 -72 -11 2 -31 6
-46 10 -15 3 -36 15 -47 26 -16 17 -17 26 -9 57 15 54 16 55 76 49 37 -4 62
-13 78 -28z m-529 -60 c18 -34 16 -72 -4 -90 -10 -9 -30 -30 -45 -47 -50 -57
-108 -56 -108 1 0 66 27 109 96 149 35 21 45 19 61 -13z m358 -57 c43 -12 70
-67 60 -122 -9 -49 -22 -60 -69 -60 -60 0 -97 38 -111 112 -6 32 -3 36 32 61
21 14 45 23 53 20 8 -3 24 -8 35 -11z m-175 -47 c31 -38 -53 -185 -105 -185
-23 0 -44 19 -64 57 -13 25 8 95 37 124 22 23 114 26 132 4z m40 -126 c0 -10
-4 -19 -9 -19 -4 0 -11 -19 -14 -41 -3 -23 -10 -46 -15 -51 -15 -15 -20 48 -6
80 6 15 15 35 18 45 7 23 26 13 26 -14z m268 -168 c37 -31 29 -67 -23 -103
-44 -31 -130 -61 -169 -60 -26 1 -76 22 -76 32 0 5 20 18 45 30 25 12 47 26
51 31 3 5 21 9 40 9 21 0 33 4 29 10 -3 6 -22 10 -41 10 -19 0 -34 -4 -34 -10
0 -5 -7 -10 -15 -10 -8 0 -24 -5 -35 -12 -10 -7 -22 -9 -25 -6 -12 12 14 45
49 62 19 9 38 21 41 26 3 6 36 10 73 10 51 -1 73 -5 90 -19z m-325 -158 c-2
-93 -6 -174 -8 -181 -9 -25 -23 -2 -23 38 0 22 -3 43 -5 47 -6 10 11 241 18
254 18 27 21 -7 18 -158z m-278 132 c0 -5 -15 -11 -32 -13 -25 -3 -33 1 -33
13 0 12 8 16 33 13 17 -2 32 -7 32 -13z m88 -2 c-7 -2 -19 -2 -25 0 -7 3 -2 5
12 5 14 0 19 -2 13 -5z m-149 -20 c4 -5 43 -8 86 -9 70 -1 82 -4 112 -29 42
-35 49 -47 38 -65 -7 -12 -32 -15 -103 -15 -87 0 -96 2 -130 28 -36 28 -55 66
-42 86 7 13 28 14 39 4z m573 -249 c50 -17 76 -38 107 -88 24 -38 7 -59 -26
-30 -33 28 -85 51 -148 64 -110 23 -114 28 -37 52 28 9 53 17 54 17 1 1 24 -6
50 -15z m-369 -30 c18 -8 32 -22 32 -31 0 -13 -8 -14 -41 -9 -26 4 -50 2 -67
-7 -15 -8 -45 -23 -67 -33 -42 -20 -64 -41 -65 -61 0 -21 23 -15 55 15 34 31
80 51 142 61 57 10 76 -3 43 -29 -14 -11 -30 -20 -37 -20 -7 0 -16 -6 -20 -13
-13 -22 -56 -47 -80 -47 -13 0 -23 -4 -23 -10 0 -5 -10 -10 -21 -10 -12 0 -42
-7 -68 -16 -55 -19 -101 -8 -101 26 0 38 50 99 121 150 62 43 79 50 119 50 26
0 61 -7 78 -16z m332 -60 c47 -8 105 -55 97 -79 -6 -15 -17 -16 -77 -12 -45 3
-75 11 -86 21 -8 9 -29 16 -45 16 -16 0 -29 5 -29 10 0 6 -6 10 -14 10 -25 0
-30 22 -10 37 19 14 70 13 164 -3z"/>
<path d="M9556 4172 c-8 -13 -4 -62 6 -62 3 0 9 9 13 20 7 22 -9 58 -19 42z"/>
<path d="M1670 4061 c-8 -5 -34 -12 -57 -16 -24 -4 -45 -11 -49 -16 -3 -5 -12
-9 -21 -9 -9 0 -38 -13 -65 -30 -55 -34 -87 -37 -125 -12 -22 14 -50 17 -148
17 -114 0 -123 -2 -186 -32 -79 -37 -113 -84 -124 -173 -4 -30 -14 -68 -22
-84 -43 -83 -62 -200 -64 -386 -1 -117 15 -290 30 -318 6 -11 11 -36 11 -54 0
-19 7 -43 15 -54 8 -10 15 -31 15 -47 0 -15 4 -35 9 -45 23 -46 41 -95 41
-113 0 -11 6 -22 14 -25 8 -3 17 -21 20 -40 4 -19 11 -34 16 -34 6 0 10 -7 10
-17 0 -17 45 -83 67 -96 15 -9 17 -39 3 -53 -17 -17 -20 -115 -4 -138 7 -11
14 -28 14 -38 0 -10 20 -56 45 -103 25 -47 43 -90 40 -94 -3 -5 -23 -12 -45
-16 -22 -4 -49 -14 -61 -23 -17 -14 -19 -22 -10 -44 11 -28 43 -42 124 -54 26
-3 50 -10 53 -15 3 -5 13 -9 22 -9 10 0 24 -15 34 -38 21 -49 127 -159 161
-167 18 -5 36 -2 52 9 21 14 25 25 25 62 0 27 5 47 13 50 7 2 39 -5 71 -16 33
-11 69 -20 82 -20 27 0 55 35 47 59 -9 25 -55 72 -82 82 l-24 10 26 27 c35 36
34 56 -2 81 -23 17 -44 21 -108 21 -54 0 -85 -5 -100 -15 -21 -14 -53 -11 -53
5 0 4 -17 37 -38 71 -39 66 -71 131 -88 184 -17 49 5 87 69 119 l54 26 49 -19
c67 -26 208 -45 233 -31 11 5 54 10 95 10 l76 0 0 -63 c0 -60 3 -68 55 -147
31 -47 53 -90 51 -97 -3 -7 -20 -13 -37 -13 -42 0 -101 -44 -92 -68 10 -28 40
-52 65 -52 47 0 97 -21 124 -53 26 -28 117 -97 129 -97 3 0 25 -16 51 -35 47
-36 80 -43 115 -24 15 8 20 19 17 42 -3 31 -2 32 32 30 19 -1 60 -5 91 -8 45
-6 59 -4 72 10 25 25 21 44 -18 81 -40 37 -43 50 -16 57 10 2 27 17 37 31 17
27 17 28 -9 53 -22 23 -38 27 -114 34 -48 4 -122 8 -163 9 -42 0 -82 6 -91 13
-16 12 -38 51 -59 102 -6 17 -18 43 -26 58 -8 16 -14 34 -14 41 0 23 37 47 86
56 27 5 69 14 94 20 25 6 58 14 75 17 16 3 35 12 43 19 7 8 22 14 33 14 10 0
19 5 19 10 0 6 5 10 12 10 25 0 145 90 191 143 26 31 47 58 47 61 0 2 10 26
22 53 32 69 36 85 27 109 -6 17 -1 26 24 44 29 22 32 22 41 6 23 -37 43 -54
115 -95 134 -75 183 -122 229 -216 37 -74 42 -95 52 -222 8 -108 13 -123 36
-123 11 0 13 7 7 28 -3 15 -6 52 -6 82 1 55 -31 207 -48 225 -5 5 -9 17 -9 27
0 10 -4 18 -10 18 -5 0 -10 6 -10 14 0 21 -90 110 -152 150 -31 20 -59 36 -62
36 -13 0 -102 70 -114 89 -13 22 -8 65 11 89 13 17 62 15 77 -3 7 -8 18 -15
25 -15 7 0 26 -16 42 -36 15 -20 44 -50 63 -67 142 -130 210 -215 210 -265 0
-10 4 -22 9 -27 7 -8 15 -82 22 -215 3 -61 44 -190 61 -190 4 0 8 -7 8 -15 0
-18 66 -85 84 -85 13 0 53 -38 45 -43 -75 -44 -105 -40 -156 21 -57 69 -73 98
-73 132 0 20 -5 30 -15 30 -24 0 -18 -55 10 -100 29 -45 31 -65 10 -74 -33
-12 0 -56 43 -56 14 0 41 -5 59 -12 27 -10 38 -10 53 0 11 7 30 12 43 12 13 0
36 14 53 31 l29 31 -30 24 c-16 13 -48 33 -70 44 -55 27 -103 124 -111 226
-11 153 -22 241 -32 267 -38 91 -61 128 -126 195 -39 40 -83 80 -98 88 -33 17
-35 32 -8 76 11 18 20 40 20 48 0 8 6 27 14 42 8 14 14 53 13 87 0 57 -2 61
-23 61 -13 0 -26 5 -29 10 -16 26 -185 -2 -185 -30 0 -6 -53 -31 -92 -44 -21
-6 -27 -69 -14 -139 14 -73 -1 -83 -119 -80 -62 1 -104 7 -124 18 -17 8 -39
15 -51 15 -11 0 -20 5 -20 10 0 6 -10 10 -23 10 -26 0 -51 16 -128 82 -81 69
-111 65 -41 -5 33 -34 51 -48 112 -86 67 -43 174 -73 261 -75 l74 -1 -2 -40
c-3 -88 -100 -238 -187 -293 -23 -14 -43 -28 -46 -32 -8 -12 -68 -40 -85 -40
-8 0 -15 -3 -15 -8 0 -9 -91 -42 -150 -54 -68 -14 -168 -14 -239 -1 -59 11
-158 61 -230 115 -38 29 -45 9 -9 -29 43 -44 30 -53 -78 -53 -81 0 -163 17
-221 48 -29 14 -34 14 -50 1 -50 -42 -123 -50 -188 -20 -58 26 -128 100 -150
158 -10 26 -24 55 -31 64 -8 8 -14 23 -14 32 0 10 -4 25 -9 35 -20 40 -64 180
-68 217 -2 22 -8 49 -13 60 -5 11 -11 70 -14 131 -4 62 -11 125 -17 142 -7 20
-7 37 -1 49 6 10 13 69 17 131 4 62 12 115 16 118 5 3 9 14 9 25 0 10 5 19 10
19 6 0 10 -20 10 -45 0 -25 4 -45 9 -45 5 0 15 -17 22 -37 12 -37 22 -58 70
-138 43 -73 172 -205 199 -205 10 0 22 -5 25 -10 3 -6 25 -19 48 -31 23 -11
53 -27 67 -34 14 -8 35 -15 47 -15 12 0 34 -5 48 -12 20 -9 44 -9 103 0 78 13
182 49 182 64 0 17 -31 20 -53 5 -12 -8 -41 -17 -65 -21 -23 -3 -61 -9 -84
-12 -108 -16 -291 59 -394 163 -34 34 -68 76 -75 93 -8 16 -19 30 -25 30 -6 0
-17 20 -24 45 -7 24 -19 50 -26 56 -8 6 -14 22 -14 34 0 13 -5 25 -11 27 -7 2
-11 53 -12 139 -2 158 8 185 85 232 89 55 283 58 393 7 22 -10 58 -27 80 -36
56 -24 181 -117 235 -174 37 -39 80 -100 80 -114 0 -19 17 -30 23 -14 9 26
-43 106 -110 171 -69 67 -100 90 -185 140 -27 15 -48 35 -48 43 0 17 78 53
130 61 19 3 49 11 67 19 47 21 299 19 353 -2 23 -9 44 -14 47 -10 3 3 11 2 17
-3 6 -5 28 -14 48 -20 66 -22 65 -33 -6 -90 -72 -56 -101 -93 -92 -116 9 -23
22 -18 36 14 15 36 102 102 196 146 96 46 225 63 338 46 82 -12 172 -37 194
-54 9 -7 16 -7 24 1 7 7 10 13 7 14 -36 23 -76 38 -99 38 -16 0 -30 4 -32 9
-1 5 -28 12 -58 16 -30 3 -72 11 -93 17 -44 13 -142 0 -250 -34 l-69 -22 -42
24 c-24 12 -48 20 -53 17 -6 -4 -16 0 -23 8 -7 8 -29 15 -49 15 -20 0 -49 7
-65 15 -21 11 -64 15 -180 15 -83 0 -158 -4 -166 -9z m1336 -939 c22 -32 22
-35 7 -85 -8 -29 -23 -61 -33 -71 -17 -17 -22 -18 -43 -7 -57 30 -137 102
-137 122 0 24 37 58 62 59 9 0 20 5 23 11 4 5 28 9 53 7 40 -3 50 -8 68 -36z
m-221 -102 c0 -22 -29 -18 -33 3 -3 14 1 18 15 15 10 -2 18 -10 18 -18z
m-1648 -601 c6 -6 26 -14 45 -18 29 -6 33 -10 34 -41 1 -75 28 -154 74 -225
15 -22 34 -56 43 -76 25 -53 39 -62 94 -55 27 3 64 8 83 10 39 5 100 -10 100
-25 0 -5 -14 -9 -31 -9 -47 0 -72 -17 -59 -40 5 -10 20 -22 32 -26 54 -16 137
-95 101 -94 -26 1 -158 41 -178 54 -29 19 -55 21 -55 3 0 -7 11 -29 25 -49 27
-40 35 -108 13 -108 -33 0 -85 48 -143 130 -49 71 -67 82 -143 97 -103 20
-122 53 -31 53 28 0 59 -5 69 -10 42 -22 29 31 -25 105 -27 37 -74 134 -97
200 -16 49 -16 51 3 93 22 44 28 49 46 31z m836 -56 c24 -5 27 -10 27 -44 0
-21 5 -51 12 -66 40 -97 70 -152 97 -177 31 -30 32 -30 173 -34 132 -3 178
-11 178 -30 0 -14 -87 -34 -131 -30 -38 3 -44 0 -44 -17 0 -16 9 -21 40 -26
44 -6 114 -39 134 -62 36 -44 -74 -30 -181 22 -43 21 -80 36 -83 33 -13 -13
-3 -43 19 -57 12 -8 32 -31 42 -51 16 -30 17 -36 5 -44 -17 -10 -23 -6 -96 48
-28 20 -72 52 -97 71 -25 18 -51 44 -58 56 -10 18 -25 25 -64 30 -28 4 -62 12
-75 16 -36 14 -10 36 61 50 64 13 80 30 54 57 -57 59 -116 158 -116 195 0 21
18 59 34 69 6 4 18 5 26 2 8 -3 27 -8 43 -11z"/>
<path d="M9565 4028 c10 -62 23 -68 26 -12 3 46 0 54 -17 54 -13 0 -15 -7 -9
-42z"/>
<path d="M2867 3933 c-13 -12 -7 -21 16 -27 12 -3 51 -34 86 -68 66 -64 114
-142 114 -184 0 -13 3 -24 7 -24 17 0 30 -86 30 -194 0 -94 -3 -118 -15 -122
-9 -4 -15 -19 -15 -41 0 -30 2 -34 15 -23 8 7 15 23 15 36 0 12 5 26 10 29 6
3 10 33 10 66 0 54 3 64 30 91 31 30 40 73 18 81 -8 2 -13 23 -13 58 0 55 -19
99 -42 99 -8 0 -13 14 -13 40 0 45 -24 80 -55 80 -29 0 -95 35 -112 60 -8 11
-20 20 -27 20 -8 0 -19 7 -26 15 -14 16 -23 19 -33 8z"/>
<path d="M2443 3517 c-3 -5 2 -16 11 -26 9 -10 16 -34 16 -55 0 -20 4 -45 10
-55 11 -22 79 -51 118 -51 15 0 33 -5 40 -12 9 -9 12 -4 12 25 0 21 7 49 16
62 15 23 14 26 -4 52 -39 55 -53 61 -135 65 -44 2 -81 -1 -84 -5z m167 -67 c0
-12 -29 -20 -35 -10 -9 15 4 30 20 23 8 -3 15 -9 15 -13z"/>
<path d="M4783 3446 c-35 -35 -63 -69 -63 -75 0 -6 -13 -37 -30 -68 -16 -31
-30 -71 -30 -89 0 -18 -4 -36 -10 -39 -23 -14 4 -244 35 -291 8 -13 15 -28 15
-34 0 -28 46 -103 93 -149 28 -28 55 -51 60 -51 5 0 28 -13 52 -30 24 -16 52
-30 62 -30 11 0 23 -4 29 -9 12 -13 154 -25 197 -17 76 14 142 123 163 266 12
91 2 194 -20 187 -10 -4 -11 -18 -6 -92 4 -50 -11 -149 -26 -172 -8 -12 -14
-30 -14 -40 0 -24 -54 -90 -89 -107 -51 -27 -232 5 -281 49 -9 8 -22 15 -28
15 -36 0 -172 174 -172 219 0 9 -4 21 -9 27 -9 9 -18 58 -28 158 -5 56 9 152
28 188 5 10 9 24 9 33 0 23 74 126 143 197 16 17 16 18 0 18 -9 0 -45 -29 -80
-64z"/>
<path d="M3070 3215 c0 -8 2 -15 4 -15 2 0 6 7 10 15 3 8 1 15 -4 15 -6 0 -10
-7 -10 -15z"/>
<path d="M3069 2036 c-10 -25 -27 -46 -37 -49 -10 -2 -2 -7 20 -11 42 -9 87 3
101 26 12 18 -26 78 -49 78 -8 0 -24 -20 -35 -44z"/>
<path d="M3712 2063 c-41 -5 -37 -27 6 -31 23 -2 33 2 42 17 8 16 8 21 -2 19
-7 0 -28 -3 -46 -5z"/>
<path d="M3528 2053 c-22 -3 -28 -10 -28 -29 0 -21 4 -24 20 -19 12 4 27 1 35
-5 18 -15 65 -5 65 14 0 17 -33 46 -51 45 -8 -1 -26 -4 -41 -6z"/>
<path d="M3640 2040 c-12 -8 -10 -10 8 -10 13 0 20 4 17 10 -7 12 -6 12 -25 0z"/>
<path d="M2550 1978 c0 -32 19 -98 28 -98 5 0 14 6 20 12 10 10 17 10 33 0 17
-11 24 -9 51 13 17 14 46 32 64 40 19 8 34 19 34 25 0 20 -27 21 -61 1 -36
-21 -51 -18 -62 12 -9 24 -22 21 -41 -8 -9 -14 -23 -25 -31 -25 -9 0 -15 10
-15 25 0 14 -4 25 -10 25 -5 0 -10 -10 -10 -22z"/>
<path d="M2955 1961 c-6 -11 9 -23 19 -14 9 9 7 23 -3 23 -6 0 -12 -4 -16 -9z"/>
<path d="M990 1926 c0 -30 -3 -31 -34 -11 -21 14 -24 13 -41 -5 -14 -16 -31
-20 -82 -20 -49 0 -63 -3 -63 -15 0 -8 3 -15 8 -15 113 -4 220 -14 235 -22 34
-18 42 6 17 56 -26 55 -40 66 -40 32z"/>
<path d="M4805 1781 c-11 -4 -49 -9 -84 -9 -36 -1 -69 -6 -75 -12 -7 -7 21
-10 87 -9 79 1 101 4 120 20 l22 18 -25 0 c-14 0 -34 -4 -45 -8z"/>
<path d="M2788 1621 c-53 -21 -81 -66 -75 -119 l5 -37 -37 3 c-30 3 -46 -3
-82 -30 -24 -19 -49 -45 -56 -58 -20 -39 -16 -97 9 -130 l22 -30 -22 -23 c-43
-45 -48 -112 -14 -165 18 -27 48 -28 87 -2 50 33 52 28 30 -62 -6 -22 -1 -33
21 -56 37 -37 98 -48 156 -28 23 9 45 13 48 10 3 -3 7 -39 10 -81 6 -90 -5
-105 -45 -63 -16 16 -44 35 -64 41 -20 6 -40 15 -45 20 -21 19 -107 9 -164
-18 -103 -49 -113 -69 -59 -119 77 -72 170 -107 274 -103 l78 3 -2 -48 c-1
-26 -4 -51 -8 -54 -3 -3 -20 1 -38 10 -18 9 -54 22 -80 28 -49 13 -92 6 -155
-23 -29 -13 -87 -84 -118 -144 -38 -70 -26 -77 106 -68 58 3 109 10 115 15 5
4 27 13 48 20 21 6 58 27 83 46 l45 34 39 -43 c59 -65 137 -100 221 -99 38 1
77 6 88 11 11 6 36 11 55 11 34 0 36 2 36 33 -1 75 -42 142 -112 178 -43 22
-134 25 -185 7 -18 -6 -35 -9 -39 -6 -3 4 -1 39 5 80 6 40 12 116 13 168 1 99
8 120 38 120 30 0 100 90 100 128 0 31 12 42 25 22 8 -13 50 -13 78 2 12 6 29
14 37 18 20 9 26 125 9 158 -10 18 -11 27 -1 43 18 29 7 39 -44 39 -122 0
-178 82 -85 125 61 27 122 14 161 -33 34 -41 38 -67 13 -94 -21 -24 -10 -34
25 -22 53 18 39 74 -41 167 -22 24 -31 27 -86 27 -65 0 -71 6 -45 45 14 21 14
27 1 52 -18 35 -43 56 -83 72 -26 10 -38 10 -68 -3 -20 -8 -39 -22 -42 -31 -9
-22 -19 -19 -57 21 -27 28 -42 36 -74 38 -22 1 -47 0 -55 -3z m107 -66 c30
-31 33 -40 34 -102 1 -74 -3 -84 -36 -101 -26 -14 -50 -7 -58 18 -3 10 -19 33
-36 52 -39 43 -52 75 -44 115 12 64 88 74 140 18z m218 -18 c26 -30 15 -87
-26 -140 -17 -23 -33 -44 -34 -45 -5 -11 -74 25 -79 40 -14 46 24 163 56 172
27 7 65 -4 83 -27z m-400 -111 c34 -14 107 -90 107 -111 0 -6 -9 -21 -20 -32
-17 -19 -31 -21 -118 -22 -117 -1 -128 6 -118 71 8 47 47 94 86 101 14 2 26 5
28 6 1 0 17 -5 35 -13z m324 -115 c17 -11 34 -29 38 -40 18 -58 -71 -124 -161
-120 -72 3 -94 16 -94 54 0 93 132 157 217 106z m153 -98 c19 -11 33 -32 44
-66 22 -67 20 -80 -10 -106 -23 -20 -29 -21 -55 -11 -41 17 -62 39 -88 89
l-22 44 32 33 c37 38 58 42 99 17z m-420 -7 c19 -24 8 -60 -25 -76 -16 -8 -44
-25 -62 -38 -17 -12 -36 -22 -42 -22 -6 0 -11 -4 -11 -10 0 -17 -67 -12 -74 6
-18 47 7 114 52 138 36 20 145 21 162 2z m264 -85 c26 -23 38 -57 46 -131 5
-60 4 -66 -20 -87 -18 -16 -35 -22 -60 -20 -46 3 -58 29 -62 137 -3 80 -2 86
21 106 27 23 44 22 75 -5z m-160 -1 c22 -8 26 -16 26 -51 0 -23 -10 -68 -22
-100 -19 -48 -28 -59 -51 -65 -48 -10 -110 4 -129 31 -17 22 -17 26 7 79 19
44 35 63 72 86 52 33 60 35 97 20z m76 -404 c0 -86 -4 -147 -10 -151 -5 -3
-10 -25 -10 -48 0 -23 -4 -49 -10 -57 -17 -28 -23 18 -11 93 6 40 11 108 12
152 1 102 8 155 20 155 5 0 9 -64 9 -144z m-198 55 c49 -22 98 -65 98 -86 0
-17 -13 -19 -38 -6 -19 11 -103 31 -126 31 -31 0 -15 -18 33 -39 27 -11 58
-21 68 -21 21 -1 59 -27 51 -36 -3 -3 -35 -5 -71 -5 -53 0 -79 6 -139 34 -118
55 -128 87 -38 124 68 28 106 29 162 4z m-12 -296 c39 -20 38 -35 -2 -35 -42
0 -158 -67 -158 -92 0 -16 33 -8 62 17 28 24 113 55 149 55 24 0 33 -18 19
-35 -7 -8 -40 -28 -74 -44 -48 -22 -78 -29 -136 -31 -98 -4 -100 -3 -100 18 1
32 56 97 110 130 60 36 87 39 130 17z m387 -14 c34 -1 49 -8 78 -36 19 -20 35
-45 35 -55 0 -27 -7 -25 -51 15 -22 19 -48 35 -59 35 -17 0 -109 20 -119 26
-13 9 14 21 41 19 18 -2 52 -3 75 -4z m-35 -68 c45 -10 108 -59 108 -83 0 -22
-36 -32 -106 -29 -75 3 -164 61 -164 107 0 24 1 24 63 19 34 -3 79 -10 99 -14z"/>
<path d="M695 1158 c-16 -6 -37 -14 -45 -19 -33 -20 -40 -20 -66 0 -20 16 -41
21 -82 21 -50 0 -58 -3 -88 -35 -20 -21 -34 -48 -36 -67 -3 -28 -8 -33 -36
-39 -41 -8 -79 -43 -98 -88 -16 -39 -18 -81 -4 -81 5 0 14 -9 21 -21 9 -17 7
-25 -11 -44 -15 -16 -22 -38 -24 -76 -4 -79 7 -97 63 -101 45 -3 46 -4 49 -40
4 -53 54 -89 113 -83 34 3 50 12 76 41 31 33 35 35 51 21 9 -9 29 -19 45 -22
19 -5 34 -21 52 -56 13 -27 34 -59 45 -71 28 -30 51 -74 43 -82 -4 -3 -21 -6
-38 -6 -46 0 -95 -11 -95 -21 0 -5 11 -9 24 -9 54 0 58 -9 21 -54 -18 -23 -39
-54 -44 -69 -17 -43 9 -44 73 -1 31 20 59 34 63 31 3 -4 6 -26 5 -49 -3 -74
13 -95 48 -63 15 14 20 12 51 -15 19 -16 41 -30 49 -30 8 0 33 18 55 40 22 21
46 39 53 40 7 0 15 7 18 15 4 8 13 15 21 15 11 0 13 -5 8 -17 -28 -67 -29 -73
-17 -85 9 -9 16 -8 30 5 10 9 27 17 37 17 10 0 26 7 35 15 22 20 63 9 55 -16
-13 -40 3 -59 48 -59 l42 1 -27 15 c-33 17 -35 34 -8 59 36 33 25 45 -39 45
-40 0 -63 -5 -71 -15 -15 -19 -50 -20 -50 -2 0 8 9 22 20 32 22 20 27 55 8 55
-26 0 -86 -26 -129 -57 -53 -38 -65 -40 -77 -15 -14 25 -33 185 -24 194 9 9
52 -1 52 -12 0 -15 63 -27 145 -29 79 -2 81 -1 145 41 41 27 66 51 68 64 3 23
-74 104 -124 130 -38 20 -164 26 -184 9 -8 -7 -25 -15 -38 -18 -20 -5 -22 -2
-16 16 10 32 100 159 139 197 l33 32 47 -15 c25 -9 52 -14 60 -11 9 4 21 -9
34 -39 25 -56 73 -107 99 -107 25 0 82 67 82 97 0 12 12 36 27 54 20 23 30 49
36 93 4 34 10 79 13 102 5 36 2 44 -19 61 -23 18 -25 24 -17 58 17 74 -26 121
-100 109 -55 -9 -146 -81 -155 -124 -6 -25 -11 -30 -36 -30 -42 0 -65 -14 -99
-62 -21 -28 -30 -53 -30 -79 0 -28 -5 -41 -20 -49 -25 -13 -140 -148 -160
-186 -8 -16 -26 -47 -41 -69 -14 -22 -29 -48 -32 -59 -6 -15 -10 -16 -22 -6
-23 19 -36 82 -27 126 7 37 10 39 54 44 34 4 52 13 72 35 24 28 26 35 21 90
-6 60 -6 61 34 103 46 48 48 56 24 111 -20 46 -57 71 -95 64 -34 -7 -68 4 -50
16 9 6 10 15 3 34 -18 48 -82 74 -136 55z m-150 -42 c37 -27 -5 -156 -51 -156
-21 0 -74 73 -74 101 0 52 81 88 125 55z m230 2 c14 -6 25 -14 25 -18 0 -17
-35 -73 -65 -106 -27 -28 -38 -34 -59 -28 -14 3 -29 10 -32 15 -3 5 -15 9 -26
9 -18 0 -20 4 -15 35 6 39 18 54 68 84 39 24 67 26 104 9z m676 -35 c1 -10 1
-24 0 -32 -4 -22 -54 -60 -82 -61 -15 0 -32 -7 -39 -15 -19 -23 -53 -14 -64
17 -9 24 -5 31 33 68 40 36 48 40 97 40 44 0 54 -3 55 -17z m-511 -103 c21
-30 21 -31 3 -63 -19 -31 -21 -32 -98 -35 -94 -3 -125 3 -125 24 0 21 49 84
66 84 8 0 14 5 14 10 0 6 26 10 59 10 55 0 61 -2 81 -30z m-529 -13 c41 -28
46 -53 16 -89 -19 -23 -31 -28 -79 -29 -84 -3 -106 22 -71 79 43 70 75 79 134
39z m827 -10 c17 -17 24 -41 28 -88 7 -80 -6 -119 -40 -119 -14 0 -28 5 -31
10 -3 6 -13 10 -22 10 -32 0 -63 41 -63 83 0 33 7 46 44 83 24 24 48 44 53 44
5 0 19 -11 31 -23z m215 12 c14 -6 31 -22 38 -35 11 -21 10 -27 -11 -49 -21
-22 -32 -25 -91 -25 -59 0 -68 2 -74 20 -10 31 18 66 67 83 24 9 44 16 45 16
1 1 13 -4 26 -10z m-804 -29 c21 -10 41 -26 45 -35 25 -67 -25 -142 -116 -173
-34 -12 -42 -11 -78 9 -45 26 -54 45 -45 97 7 44 38 81 85 104 46 22 63 22
109 -2z m206 -106 c21 -14 25 -24 25 -69 0 -56 -8 -68 -54 -79 -25 -6 -34 -1
-72 41 -49 53 -51 59 -29 90 23 34 92 42 130 17z m615 -44 c0 -38 -24 -50 -75
-40 -62 12 -75 20 -75 46 0 23 3 24 75 24 l75 0 0 -30z m-1044 -26 l18 -37
-45 -39 c-74 -65 -132 -74 -145 -23 -18 73 34 135 113 135 39 0 43 -3 59 -36z
m664 -7 c0 -7 -16 -29 -36 -48 -19 -18 -45 -50 -57 -69 -11 -19 -23 -37 -26
-40 -12 -10 -68 -96 -76 -115 -7 -19 -19 -83 -29 -164 -3 -19 -1 -42 3 -50 5
-9 11 -49 14 -89 5 -56 3 -72 -8 -72 -7 0 -15 7 -19 15 -3 8 -17 20 -31 25
-25 10 -33 34 -15 45 6 3 10 24 10 45 0 21 -4 42 -10 45 -5 3 -10 17 -10 31 0
20 -38 93 -60 114 -3 3 -16 20 -29 39 -18 25 -21 38 -14 50 15 23 43 26 43 4
0 -21 36 -83 59 -100 32 -25 48 -15 54 31 8 55 49 132 117 217 68 85 120 123
120 86z m-393 -29 c5 -7 14 -35 21 -61 10 -40 10 -53 -3 -76 -39 -76 -135 -41
-135 48 0 51 8 71 29 71 10 0 26 7 37 15 24 18 39 19 51 3z m681 -10 c50 -11
55 -36 18 -82 -31 -38 -47 -30 -78 36 -27 56 -27 74 1 62 9 -3 35 -11 59 -16z
m-854 -27 c16 -17 16 -26 6 -78 -16 -75 -32 -93 -84 -93 -45 0 -59 7 -68 31
-7 17 26 99 39 99 4 0 22 13 38 29 36 35 46 37 69 12z m647 -215 c64 -28 98
-61 81 -78 -8 -8 -15 -8 -25 1 -25 20 -129 42 -192 41 -84 -2 -83 -3 -54 24
46 42 113 47 190 12z m-36 -76 c3 -5 16 -10 28 -10 12 0 37 -9 56 -21 l34 -20
-20 -21 c-18 -18 -33 -20 -123 -19 -110 0 -135 5 -162 29 -25 21 -22 47 5 60
28 14 174 15 182 2z m-355 -146 c0 -13 -55 -54 -72 -54 -19 0 -6 27 24 52 34
27 48 28 48 2z"/>
<path d="M9453 525 c-16 -11 -21 -23 -18 -44 2 -19 -2 -31 -11 -35 -8 -3 -14
-12 -14 -20 0 -8 -4 -16 -9 -18 -5 -1 -12 -20 -16 -40 -6 -30 -4 -39 10 -44 9
-4 23 0 33 9 14 15 14 18 -3 37 -17 19 -17 21 -2 38 10 10 17 22 17 26 0 5 14
25 30 46 44 56 34 81 -17 45z"/>
<path d="M9577 433 c-4 -3 -2 -12 4 -19 8 -9 5 -21 -11 -42 -32 -43 -18 -86
20 -62 13 8 12 11 -3 23 -18 12 -16 15 22 50 23 20 41 41 41 47 0 11 -63 14
-73 3z"/>
<path d="M9500 400 c0 -5 6 -10 14 -10 8 0 18 5 21 10 3 6 -3 10 -14 10 -12 0
-21 -4 -21 -10z"/>
<path d="M341 387 c-6 -6 -11 -17 -11 -24 0 -7 -4 -13 -10 -13 -5 0 -10 -5
-10 -11 0 -6 -7 -17 -15 -25 -8 -9 -15 -25 -15 -36 0 -11 -11 -29 -25 -40 -29
-22 -32 -43 -9 -52 23 -9 24 -8 24 18 0 13 9 35 20 49 11 14 20 30 20 35 0 6
5 14 11 18 8 4 10 -11 8 -52 -5 -72 16 -85 46 -30 19 35 19 36 0 50 -18 13
-18 18 -7 48 6 19 12 41 12 50 0 20 -24 30 -39 15z"/>
<path d="M520 375 c-7 -8 -18 -15 -24 -15 -16 -1 -60 -39 -53 -47 4 -3 12 -1
19 4 7 6 23 14 36 17 31 10 28 -11 -8 -52 -60 -69 -49 -107 21 -71 24 12 46
25 49 29 3 4 17 10 33 14 15 3 27 11 27 16 0 15 -37 12 -54 -5 -16 -16 -56
-21 -56 -7 0 5 16 30 36 55 38 48 40 77 6 77 -11 0 -25 -7 -32 -15z"/>
<path d="M117 284 c5 -56 3 -68 -10 -76 -10 -5 -17 -13 -17 -17 0 -15 31 -21
50 -11 16 8 17 15 9 42 -5 18 -9 54 -9 80 0 36 -4 48 -15 48 -12 0 -13 -12 -8
-66z"/>
<path d="M7157 268 l-48 -41 -25 26 c-27 30 -44 35 -44 13 0 -8 -11 -23 -25
-34 l-24 -19 26 -14 c14 -8 37 -12 50 -11 13 2 30 -1 36 -7 9 -7 19 -1 36 20
13 16 32 34 43 40 15 8 20 5 28 -16 11 -29 34 -32 76 -10 40 21 61 19 75 -6
10 -19 16 -21 58 -14 25 4 63 8 83 9 54 2 59 16 6 16 -42 0 -47 3 -57 30 -9
27 -13 30 -38 24 -15 -4 -31 -12 -35 -18 -4 -6 -23 -9 -43 -7 -20 1 -43 -3
-51 -10 -19 -16 -31 -3 -36 36 -5 44 -34 42 -91 -7z"/>
<path d="M400 285 c0 -8 4 -15 9 -15 5 0 11 7 15 15 3 9 0 15 -9 15 -8 0 -15
-7 -15 -15z"/>
<path d="M6766 221 c-3 -5 0 -13 7 -19 15 -12 61 3 52 18 -8 12 -52 13 -59 1z"/>
<path d="M6893 213 c9 -2 25 -2 35 0 9 3 1 5 -18 5 -19 0 -27 -2 -17 -5z"/>
<path d="M7593 213 c9 -2 23 -2 30 0 6 3 -1 5 -18 5 -16 0 -22 -2 -12 -5z"/>
<path d="M7673 203 c-16 -6 -5 -33 13 -33 8 0 14 6 14 14 0 18 -11 25 -27 19z"/>
</g>
</svg>
