<?xml version="1.0" standalone="no"?>
<!DOCTYPE svg PUBLIC "-//W3C//DTD SVG 20010904//EN"
 "http://www.w3.org/TR/2001/REC-SVG-20010904/DTD/svg10.dtd">
<svg version="1.0" xmlns="http://www.w3.org/2000/svg"
 width="709.000000pt" height="497.000000pt" viewBox="0 0 709.000000 497.000000"
 preserveAspectRatio="xMidYMid meet">
<metadata>
Created by potrace 1.16, written by Peter Selinger 2001-2019
</metadata>
<g transform="translate(0.000000,497.000000) scale(0.100000,-0.100000)"
fill="#000000" stroke="none">
<path d="M686 4943 c10 -44 72 -162 120 -231 49 -70 50 -72 31 -72 -24 0 -76
-61 -83 -96 -7 -41 14 -80 52 -95 52 -19 114 33 114 96 0 14 2 25 5 25 3 0 43
-32 90 -72 84 -71 85 -72 85 -118 0 -25 6 -55 14 -65 10 -14 11 -26 5 -43 -12
-32 -11 -77 2 -122 10 -33 8 -46 -16 -106 -82 -203 -117 -420 -96 -588 24
-190 99 -359 225 -509 47 -55 178 -157 249 -193 35 -18 47 -30 47 -47 0 -40
-12 -67 -29 -67 -9 0 -40 -11 -68 -25 l-53 -24 -52 52 c-67 67 -116 90 -200
95 -83 5 -153 -24 -229 -95 -86 -80 -119 -187 -90 -291 9 -30 7 -33 -20 -48
-33 -16 -51 -51 -42 -82 2 -11 -3 -34 -12 -52 -28 -53 -47 -130 -51 -205 -3
-38 -7 -95 -10 -126 -5 -48 -3 -58 13 -70 10 -8 24 -33 31 -55 9 -30 20 -45
40 -53 15 -7 36 -27 47 -44 18 -28 27 -32 69 -35 43 -3 56 2 101 32 28 20 58
36 65 36 7 0 37 -16 66 -36 43 -30 62 -36 102 -36 57 0 102 20 131 59 11 16
28 35 36 44 9 9 20 40 24 70 10 60 36 89 81 89 15 0 70 -15 121 -34 l94 -34 0
-103 c0 -93 3 -110 27 -159 70 -142 243 -188 379 -101 24 15 87 71 139 123 74
74 106 98 144 111 94 32 158 15 210 -56 28 -38 30 -149 3 -190 -28 -42 -92
-79 -146 -85 -45 -4 -50 -2 -81 32 -39 42 -78 48 -110 14 -32 -34 -26 -72 20
-122 76 -83 204 -87 334 -11 134 78 183 252 114 405 -49 110 -129 160 -255
160 -143 0 -211 -34 -339 -166 -115 -119 -179 -143 -252 -96 -13 8 -30 28 -38
43 -15 29 -19 136 -6 155 4 6 48 14 99 18 151 11 263 57 374 155 156 138 259
343 290 574 11 90 14 97 35 97 41 0 199 51 290 94 194 92 335 220 413 374 28
57 68 179 85 265 23 110 46 326 46 430 0 86 1 90 34 128 36 43 60 109 55 155
-2 19 5 42 19 62 13 17 26 48 29 67 3 19 11 35 17 35 6 1 29 9 51 20 53 26 55
25 55 -15 0 -48 45 -98 88 -98 87 0 104 116 22 158 -35 18 -33 27 10 45 22 9
34 9 43 2 7 -6 65 -34 128 -62 189 -85 433 -152 648 -179 46 -6 86 -13 88 -15
2 -2 -14 -26 -36 -54 -118 -149 -199 -298 -247 -457 -25 -81 -27 -106 -28
-245 -1 -223 40 -396 137 -583 l51 -98 -46 -47 c-47 -50 -118 -144 -118 -158
0 -5 -7 -17 -15 -28 -13 -18 -15 -18 -42 1 -50 35 -100 53 -161 59 -185 20
-395 -132 -427 -309 -9 -49 -15 -63 -31 -65 -10 -2 -26 -6 -34 -9 -8 -4 -42
-7 -75 -8 -85 -2 -140 -22 -185 -67 -49 -49 -77 -126 -59 -160 7 -13 17 -26
23 -30 5 -4 15 -24 21 -45 7 -24 22 -45 41 -58 16 -10 39 -33 50 -50 18 -27
24 -30 75 -30 47 0 61 5 96 33 23 17 51 32 63 32 12 0 44 -16 70 -35 38 -28
57 -35 94 -35 60 0 107 20 134 56 12 16 26 35 32 41 16 19 30 61 30 89 0 14
11 36 25 49 27 28 65 32 125 14 33 -10 38 -16 50 -61 20 -80 76 -182 132 -240
46 -48 51 -58 55 -108 3 -43 0 -62 -16 -88 -20 -31 -23 -32 -84 -32 -40 0 -70
-5 -83 -15 -10 -8 -26 -15 -35 -15 -25 0 -86 -74 -100 -119 -11 -37 -10 -47
14 -103 15 -35 27 -70 27 -78 0 -8 -23 -38 -52 -67 -46 -47 -51 -56 -52 -98
-1 -40 3 -50 27 -69 15 -12 27 -30 27 -39 0 -24 44 -67 70 -67 11 0 20 -4 20
-9 0 -4 12 -21 27 -36 24 -24 34 -27 75 -23 93 9 178 93 198 196 6 31 18 73
27 94 l15 36 74 0 c61 1 84 6 138 31 152 73 240 202 255 371 5 66 8 75 27 78
14 2 31 -8 49 -30 74 -88 72 -156 -10 -343 -53 -120 -58 -137 -62 -220 -5 -88
-4 -91 29 -145 22 -36 49 -64 82 -85 46 -28 56 -30 145 -30 86 0 101 3 142 27
122 72 159 199 88 303 -66 95 -190 99 -269 9 -35 -40 -38 -76 -10 -104 28 -28
72 -25 110 6 30 25 31 26 50 9 27 -24 25 -39 -9 -77 -25 -29 -35 -32 -94 -36
-63 -4 -68 -3 -98 27 -30 30 -31 34 -27 99 3 54 13 85 50 164 59 123 78 186
78 264 0 75 -19 131 -66 197 -24 33 -33 55 -28 62 80 106 104 174 114 325 9
119 25 190 44 190 20 0 123 -114 154 -170 37 -67 57 -133 83 -269 23 -128 23
-131 1 -131 -20 0 -52 -29 -52 -47 0 -5 9 -18 19 -27 16 -15 19 -29 17 -79 -3
-58 -5 -63 -40 -86 -29 -19 -36 -30 -36 -55 0 -18 4 -36 9 -41 5 -6 14 -27 21
-49 16 -50 79 -113 122 -121 18 -3 65 -1 103 6 68 11 89 12 140 8 37 -2 31
-13 -29 -53 -59 -39 -71 -58 -56 -87 30 -55 178 -22 295 67 33 25 85 58 116
74 66 34 114 85 128 137 15 52 14 75 -5 101 -15 22 -14 24 13 44 93 72 146
158 147 240 0 39 -5 53 -29 78 -16 16 -37 30 -47 30 -30 0 -78 -28 -155 -92
l-72 -60 -53 25 c-29 14 -59 35 -66 47 -16 27 -70 50 -117 50 -35 0 -35 1 -35
43 -1 134 -94 392 -184 510 -20 26 -37 52 -39 58 -1 6 31 19 72 30 40 10 93
30 118 43 l44 25 36 -24 c77 -53 206 -62 289 -20 90 45 139 135 132 244 -3 59
-8 75 -34 107 -16 20 -45 45 -64 55 -19 11 -38 28 -42 39 -4 11 -19 25 -33 32
-17 8 -24 17 -20 27 17 43 46 186 54 267 19 179 -22 338 -119 469 -51 68 -70
116 -70 178 0 31 -2 57 -5 57 -3 0 -17 -7 -31 -16 -32 -22 -37 -15 -25 37 5
24 8 45 7 47 -2 1 -21 -7 -42 -20 -39 -23 -39 -19 0 34 11 15 18 30 15 32 -2
3 -47 -11 -99 -31 -103 -39 -110 -40 -326 -28 -96 6 -140 3 -210 -10 -135 -27
-302 -92 -407 -159 -31 -20 -60 -36 -65 -36 -5 0 -15 11 -22 25 -7 14 -17 25
-22 25 -5 0 -22 12 -37 28 l-28 27 29 43 c64 93 128 162 152 162 12 0 47 18
77 40 83 60 107 71 168 77 81 8 91 16 91 67 l0 43 58 7 c31 4 62 7 67 9 6 1
11 -8 13 -20 5 -32 59 -83 88 -83 14 0 36 12 50 26 25 24 28 51 13 103 -3 9
24 23 87 46 226 80 407 216 519 390 l52 80 51 0 c59 0 88 21 98 72 5 26 1 37
-19 57 -15 15 -37 26 -53 26 -21 0 -25 4 -19 18 9 23 25 121 25 155 0 16 -5
27 -13 27 -9 0 -19 -32 -30 -100 -12 -73 -24 -111 -44 -141 -15 -22 -28 -55
-29 -71 -3 -40 -17 -67 -80 -153 -90 -125 -215 -221 -380 -293 -140 -62 -189
-75 -244 -68 -42 6 -50 4 -64 -15 -11 -17 -33 -25 -92 -34 -74 -11 -79 -11
-118 11 -48 28 -89 30 -130 9 -33 -17 -56 -13 -56 9 0 31 28 43 117 49 192 14
449 74 566 133 32 17 55 22 73 18 35 -9 72 13 85 51 7 17 27 42 46 55 54 37
151 148 190 218 42 75 78 184 87 265 6 51 4 57 -13 57 -15 0 -19 -10 -24 -62
-6 -75 -34 -165 -73 -237 -51 -93 -192 -242 -202 -212 -18 53 -87 67 -127 26
-26 -26 -31 -57 -15 -99 8 -23 6 -28 -18 -40 -108 -56 -433 -136 -551 -136
-38 0 -41 2 -41 29 0 57 -66 111 -137 111 -21 0 -47 7 -57 15 -11 8 -29 15
-40 15 -12 0 -30 7 -40 15 -72 54 -220 -33 -234 -137 -3 -22 -11 -42 -20 -46
-16 -6 -124 10 -234 34 l-66 15 14 34 c34 82 -60 152 -121 90 -14 -13 -25 -35
-25 -48 0 -13 -3 -26 -6 -30 -11 -10 -264 87 -264 102 0 5 13 21 28 37 55 58
111 140 146 214 61 128 97 310 62 310 -10 0 -16 -17 -21 -57 -8 -73 -49 -204
-82 -263 -34 -59 -114 -169 -146 -198 -27 -26 -46 -24 -86 7 l-25 19 67 72
c74 80 136 193 162 295 19 75 20 125 1 125 -9 0 -17 -23 -25 -70 -12 -77 -40
-157 -72 -209 l-21 -35 -14 32 c-9 21 -26 38 -48 47 -47 20 -53 19 -81 -10
-43 -42 -27 -106 36 -144 l29 -18 -34 -32 c-34 -33 -34 -33 -62 -15 -77 48
-202 166 -254 240 l-29 42 34 6 c95 18 82 146 -15 146 -21 0 -50 -4 -64 -10
-21 -8 -26 -6 -31 10 -4 11 -15 20 -25 20 -17 0 -17 -2 -1 -52 33 -105 187
-298 316 -395 118 -89 388 -225 494 -248 17 -4 36 -15 42 -26 8 -16 19 -20 57
-18 26 1 79 -6 117 -15 39 -10 114 -24 169 -32 107 -15 129 -29 119 -74 -10
-44 4 -43 -180 -14 -287 45 -583 156 -802 301 -173 115 -332 304 -401 476 -16
41 -30 80 -30 86 0 6 -9 11 -19 11 -17 0 -18 -4 -9 -37 5 -21 34 -86 63 -145
51 -103 53 -108 31 -108 -13 0 -38 -10 -57 -23 -27 -18 -35 -30 -37 -61 -4
-52 18 -76 73 -76 44 0 61 12 87 63 l14 28 45 -48 c24 -26 73 -73 107 -103 74
-63 75 -60 -44 -110 -71 -29 -75 -30 -100 -14 -22 15 -37 16 -127 7 -56 -6
-122 -8 -147 -6 -59 5 -106 -23 -127 -76 -13 -33 -21 -40 -52 -45 -67 -11 -71
-9 -71 32 -1 48 -19 72 -63 79 -49 8 -87 -29 -87 -85 0 -46 -11 -52 -96 -52
-43 0 -63 7 -135 50 -90 54 -132 95 -151 147 -14 39 -22 41 -42 12 -19 -28
-33 -18 -41 33 l-7 42 -30 -35 -29 -34 6 50 7 49 -91 -87 c-79 -74 -100 -89
-149 -102 -31 -9 -77 -23 -101 -31 -51 -16 -134 -9 -110 10 25 19 49 60 49 84
0 32 -43 72 -78 72 -39 0 -81 -43 -88 -91 -4 -22 -9 -39 -12 -39 -3 0 -29 8
-59 17 -46 14 -53 20 -53 42 0 70 -67 131 -145 131 -22 0 -49 7 -59 15 -11 8
-28 15 -39 15 -10 0 -33 8 -50 18 -18 9 -34 18 -36 19 -1 1 4 12 13 25 33 47
10 109 -47 123 -37 10 -94 -19 -118 -60 -12 -19 -25 -35 -31 -35 -12 0 -110
101 -158 165 -21 28 -53 78 -70 113 -17 34 -37 62 -45 62 -23 0 -18 -17 21
-89 64 -117 145 -206 287 -318 l29 -22 -29 -36 c-15 -19 -32 -35 -36 -35 -18
0 -116 82 -182 151 -96 102 -168 216 -208 332 -4 9 -13 17 -22 17 -12 0 -14
-7 -9 -27z m592 -249 c52 -36 12 -114 -59 -114 -84 0 -102 39 -45 96 37 37 69
43 104 18z m-390 -89 c29 -63 7 -131 -45 -141 -27 -5 -37 -2 -53 16 -24 28
-25 51 -5 90 14 28 57 59 81 60 6 0 16 -11 22 -25z m510 -103 c9 -6 4 -16 -19
-38 -38 -35 -68 -98 -69 -141 0 -70 -82 -61 -95 10 -11 59 37 140 100 167 26
11 66 12 83 2z m142 -39 c36 -21 57 -62 35 -68 -8 -3 -21 -7 -29 -9 -8 -3 -36
-38 -63 -78 -41 -62 -53 -73 -80 -76 -93 -9 -79 164 19 227 40 25 80 27 118 4z
m717 -98 c-8 -57 9 -60 47 -10 15 19 31 35 35 35 5 0 12 -16 15 -35 8 -40 27
-45 51 -12 16 21 17 21 28 3 28 -45 72 -88 118 -114 27 -15 49 -31 49 -36 0
-12 -268 4 -415 25 -135 19 -196 32 -188 39 4 4 39 15 77 25 57 15 77 26 125
71 31 29 58 53 60 54 2 0 1 -20 -2 -45z m1533 -11 c22 -15 40 -30 40 -34 0 -8
-172 -95 -206 -105 -20 -5 -22 -2 -62 76 -2 4 28 19 65 33 37 15 77 33 87 41
26 20 30 19 76 -11z m1248 -12 c9 -6 4 -16 -19 -38 -41 -39 -69 -95 -69 -138
0 -66 -63 -70 -90 -6 -23 55 19 140 88 176 30 15 70 18 90 6z m-3384 -32 c287
-98 542 -138 916 -146 150 -3 274 -10 286 -16 16 -7 30 -6 55 6 35 16 147 35
211 36 34 0 38 -3 47 -37 6 -21 11 -41 11 -44 0 -12 -47 -19 -217 -34 -200
-18 -416 -19 -608 -4 -134 11 -141 12 -170 40 -34 32 -66 37 -86 13 -10 -13
-24 -14 -68 -9 -54 7 -309 66 -361 85 -99 34 -170 63 -170 68 0 16 41 72 52
72 7 0 53 -14 102 -30z m3537 -19 c33 -33 38 -61 11 -61 -23 0 -54 -33 -81
-87 -21 -42 -64 -83 -87 -83 -7 0 -22 12 -33 26 -43 55 -15 160 56 209 52 34
96 33 134 -4z m-1902 -6 c59 -50 77 -158 37 -220 -36 -55 -92 -19 -120 78 -18
60 -41 97 -62 97 -21 0 -17 18 11 45 34 34 93 34 134 0z m125 4 c36 -29 66
-90 66 -137 0 -52 -32 -94 -69 -90 -25 3 -26 6 -32 78 -6 80 -17 118 -43 139
-25 21 -19 31 18 31 19 0 45 -9 60 -21z m-2204 -18 c0 -15 59 -31 82 -22 17 6
27 2 46 -21 28 -33 84 -39 114 -11 17 15 26 14 135 -22 65 -21 122 -42 127
-46 8 -7 -10 -12 -95 -23 -35 -4 -52 -13 -146 -79 -62 -43 -99 -45 -153 -8
-25 17 -55 31 -67 31 -13 0 -41 16 -63 36 -43 39 -57 80 -46 139 6 31 11 35
36 35 17 0 30 -4 30 -9z m765 -185 c5 -2 -3 -5 -18 -5 -59 -2 -140 -52 -227
-140 -106 -107 -160 -202 -167 -295 -6 -75 9 -110 67 -157 l40 -32 -42 -28
c-87 -58 -128 -135 -128 -238 1 -72 28 -132 83 -182 54 -50 37 -50 -39 0 -126
81 -195 185 -213 316 -9 65 -5 128 14 236 6 31 3 39 -24 66 -17 18 -31 36 -31
42 0 14 36 14 62 0 24 -13 42 5 29 30 -5 9 -11 34 -15 56 l-6 40 19 -22 c10
-12 23 -23 28 -25 6 -2 33 31 61 72 60 90 177 218 250 275 l53 42 97 -23 c53
-13 101 -26 107 -28z m2899 9 c17 -11 35 -15 52 -11 20 5 31 1 49 -19 34 -35
82 -37 124 -3 18 14 34 18 56 14 20 -4 44 0 64 10 59 29 132 -3 148 -64 8 -33
-6 -43 -80 -52 -50 -6 -76 -16 -112 -41 -89 -64 -99 -69 -146 -69 -32 0 -55 7
-73 21 -14 11 -43 25 -64 31 -84 23 -131 106 -102 183 11 29 39 29 84 0z
m-3249 -43 c-58 -55 -130 -140 -168 -197 -29 -43 -32 -35 -16 35 24 108 28
115 79 153 60 44 84 56 125 56 l30 1 -50 -48z m-437 14 c112 -60 184 -88 212
-82 36 7 36 5 11 -89 l-18 -70 -34 3 c-19 2 -49 8 -67 14 -46 14 -91 3 -135
-33 -55 -46 -79 -100 -85 -191 -4 -69 -2 -84 22 -132 33 -68 105 -133 161
-147 41 -10 43 -12 55 -67 36 -168 212 -329 395 -363 66 -13 105 -28 105 -41
0 -4 -17 -23 -38 -42 -22 -20 -51 -64 -71 -107 -18 -41 -36 -80 -40 -88 -4 -7
-39 -26 -79 -42 -76 -31 -132 -63 -170 -99 -20 -19 -121 -54 -130 -45 -2 2 17
26 42 53 49 53 117 94 184 111 37 10 42 15 42 40 0 46 28 125 61 170 17 24 29
45 26 47 -5 5 -66 -63 -83 -91 -10 -18 -13 -17 -68 14 -203 114 -348 298 -422
536 -26 83 -28 102 -27 235 1 126 5 160 31 260 27 105 81 260 90 260 2 0 16
-6 30 -14z m2039 -26 c40 -36 78 -38 110 -8 18 17 26 19 35 10 14 -14 67 -16
86 -3 7 4 24 6 38 3 21 -4 24 -9 24 -51 0 -57 -32 -117 -80 -148 -26 -18 -47
-23 -89 -23 -31 1 -75 -2 -99 -5 -55 -9 -98 18 -141 90 -38 63 -75 99 -121
118 l-35 14 45 7 c25 3 74 10 110 15 36 5 69 9 74 10 4 0 24 -12 43 -29z
m-1158 -22 c11 -18 26 -40 34 -48 9 -8 23 -35 33 -60 9 -25 19 -47 20 -49 2
-2 27 17 56 43 81 71 149 100 233 100 81 1 115 -14 175 -74 113 -113 169 -292
125 -398 -28 -65 -85 -110 -162 -127 -18 -3 -33 -8 -33 -11 0 -2 17 -27 39
-55 96 -128 68 -318 -60 -405 -45 -30 -74 -38 -232 -65 -37 -6 -100 -27 -140
-46 -119 -57 -218 -42 -302 47 -23 23 -75 59 -120 82 -103 51 -140 80 -176
136 -75 119 -6 292 137 344 46 16 43 32 -11 58 -61 30 -95 80 -95 142 0 98
129 290 245 363 66 42 99 53 163 54 49 1 54 -1 71 -31z m761 -70 c42 -88 83
-232 95 -335 l7 -63 34 0 c19 0 34 -3 34 -7 0 -5 -14 -24 -30 -43 -36 -42 -37
-50 -7 -50 39 0 67 -12 67 -28 0 -8 -17 -31 -39 -51 -32 -31 -39 -44 -45 -91
-7 -56 -37 -144 -65 -190 -85 -139 -229 -222 -408 -235 l-78 -5 53 15 c71 20
101 37 144 82 98 101 114 278 35 393 l-24 34 61 31 c119 60 155 179 102 339
-40 118 -92 190 -191 263 l-30 22 122 1 122 0 41 -82z m136 53 c65 -32 90 -55
124 -117 22 -41 22 -42 6 -125 -22 -107 -47 -199 -55 -199 -3 0 -15 7 -25 15
-11 8 -27 15 -37 15 -19 0 -29 20 -29 58 0 45 -51 225 -86 301 -19 41 -34 75
-34 77 0 2 17 4 38 4 22 0 64 -12 98 -29z m1820 -51 c16 -26 41 -42 124 -80
44 -19 75 -39 75 -47 0 -4 -29 -47 -65 -95 l-65 -88 -48 0 c-83 0 -157 -54
-209 -153 -17 -32 -22 -59 -23 -112 0 -91 24 -154 77 -199 l41 -35 -12 -45
c-18 -71 -13 -148 14 -233 28 -91 67 -154 142 -230 57 -59 60 -63 41 -63 -7 0
-40 -13 -73 -28 -108 -52 -252 -231 -314 -390 -71 -185 -67 -322 14 -447 64
-101 154 -156 265 -163 63 -4 85 -1 128 18 101 44 143 114 191 322 22 95 58
172 122 258 28 39 42 70 47 105 7 47 9 50 39 53 22 2 53 -9 105 -37 101 -55
188 -86 287 -101 l83 -13 49 -66 c81 -110 139 -244 169 -393 26 -124 26 -163
3 -153 -61 25 -73 4 -25 -44 l27 -28 -120 -15 c-78 -11 -122 -12 -126 -6 -4 5
-9 37 -13 69 -14 139 -69 303 -126 377 -12 15 -47 53 -78 85 l-57 58 23 39
c27 48 28 59 3 35 -11 -9 -39 -55 -62 -101 -38 -78 -42 -93 -50 -198 -18 -246
-118 -377 -317 -416 -175 -35 -423 41 -548 167 -177 177 -191 544 -31 818 52
90 124 179 192 239 69 61 83 88 21 41 -21 -16 -42 -25 -52 -21 -18 7 -83 141
-118 246 -38 116 -58 224 -63 354 -10 215 31 353 178 592 46 75 102 153 111
153 4 1 15 -12 24 -29z m-3470 -152 c7 -7 15 -29 19 -49 l7 -36 -43 -6 c-24
-3 -56 -3 -71 0 -30 6 -78 -18 -78 -39 0 -9 3 -9 12 0 7 7 29 12 50 12 32 0
40 -4 54 -32 9 -18 26 -41 38 -51 21 -17 20 -17 -19 -12 -30 5 -48 1 -72 -14
-18 -12 -33 -25 -33 -31 0 -12 13 -13 26 -1 17 17 69 22 87 9 15 -11 16 -20 7
-67 -5 -29 -10 -69 -10 -88 0 -31 -2 -34 -22 -27 -66 20 -111 61 -150 137 -17
34 -20 54 -16 114 6 87 43 157 98 186 38 20 95 17 116 -5z m1860 -3 c28 -15
133 -15 233 1 l33 5 -7 -138 c-13 -271 -64 -500 -141 -640 -72 -130 -187 -235
-349 -316 -96 -48 -219 -92 -289 -102 l-43 -7 -13 81 c-7 45 -15 81 -19 81 -4
0 -3 -35 1 -77 4 -45 3 -120 -3 -176 -30 -282 -157 -504 -373 -648 -157 -105
-383 -113 -601 -21 -39 16 -80 25 -119 26 -55 1 -60 -1 -87 -34 -21 -24 -29
-45 -29 -71 0 -75 -60 -92 -95 -27 -18 34 -45 51 -45 29 0 -13 -71 -39 -92
-33 -10 2 -23 21 -30 43 -10 36 -14 39 -48 39 -61 0 -77 35 -39 84 12 15 20
28 18 29 -35 19 -44 26 -53 41 -15 23 16 46 61 46 32 0 43 12 23 25 -5 3 -10
33 -10 66 0 115 95 246 224 309 57 28 74 32 145 31 166 -2 308 -88 357 -217
10 -26 20 -40 24 -34 4 7 38 22 75 35 79 28 124 57 194 128 109 108 169 300
127 401 -9 21 -16 42 -16 47 0 16 49 22 195 23 116 1 164 6 210 20 119 37 206
95 281 187 35 44 39 46 67 37 74 -26 237 32 282 100 31 48 55 116 55 158 0 97
-81 208 -163 221 -33 5 -38 9 -34 27 3 12 15 57 26 101 11 44 21 89 21 101 0
18 8 34 16 34 1 0 15 -7 30 -15z m2844 -71 c0 -3 -12 -21 -26 -39 -37 -49 -23
-60 37 -29 l51 25 -3 -42 c-4 -49 8 -58 45 -33 25 16 26 16 26 -8 0 -44 27
-117 59 -157 41 -51 105 -183 121 -246 25 -105 12 -294 -31 -434 -25 -83 -24
-99 6 -111 36 -14 31 -26 -20 -49 -25 -11 -45 -22 -45 -25 0 -2 16 -14 35 -26
19 -12 35 -28 35 -35 0 -7 -24 -23 -54 -36 -43 -17 -61 -32 -85 -70 -37 -56
-129 -142 -180 -169 -105 -53 -248 -67 -369 -36 -102 26 -108 35 -20 36 67 0
84 4 140 33 111 59 174 173 165 300 l-4 67 46 0 c142 0 226 87 251 258 21 150
-24 301 -112 376 -64 55 -163 76 -263 56 -102 -21 -96 -24 -98 55 -2 84 -25
123 -90 154 -137 66 -406 -25 -554 -189 -58 -64 -64 -146 -17 -215 20 -28 17
-35 -11 -35 -39 0 -127 -37 -168 -71 -89 -74 -116 -203 -64 -306 15 -29 24
-53 20 -53 -17 1 -98 128 -116 180 -50 148 -28 290 70 432 46 68 53 85 44 100
-13 21 -15 78 -2 78 5 0 23 -11 39 -25 35 -29 37 -27 46 37 9 57 21 69 30 28
3 -17 10 -30 15 -30 5 0 33 16 62 36 118 79 316 158 464 184 67 12 221 9 335
-6 34 -4 61 1 110 19 72 27 80 30 80 21z m-1139 -142 c30 -27 31 -29 20 -69
-11 -41 -12 -41 -44 -31 -17 6 -39 15 -47 19 -37 22 -63 29 -86 23 -35 -9 -29
-24 10 -24 37 0 61 -21 62 -54 0 -12 4 -37 9 -56 7 -35 7 -35 -13 -17 -22 20
-97 26 -113 10 -7 -7 6 -12 37 -16 75 -8 79 -24 30 -112 -22 -41 -46 -74 -53
-75 -23 0 -72 74 -84 127 -41 184 153 381 272 275z m760 -78 c45 -26 63 -78
55 -161 -4 -34 -3 -64 2 -67 5 -3 35 2 67 10 39 11 91 15 151 12 84 -3 96 -6
135 -33 81 -57 124 -167 122 -310 -2 -135 -50 -228 -141 -271 -28 -13 -50 -15
-110 -10 -69 7 -74 6 -67 -11 59 -145 -1 -303 -140 -369 -69 -33 -143 -31
-280 6 -81 22 -132 30 -195 30 -69 0 -92 4 -125 23 -45 25 -100 100 -115 157
-6 22 -37 70 -72 112 -77 93 -98 136 -98 213 0 51 5 70 33 115 46 78 104 112
202 118 82 5 91 14 50 52 -13 13 -32 43 -41 67 -25 65 -9 106 69 180 65 61
194 133 272 152 64 16 187 8 226 -15z m-2473 -10 c35 -26 82 -118 82 -162 0
-100 -74 -197 -171 -226 -58 -18 -116 -20 -138 -7 -11 7 -10 18 8 65 11 31 21
66 21 76 0 28 68 28 104 -1 19 -15 26 -17 26 -6 0 19 -40 54 -72 62 -34 9 -35
15 -4 44 32 30 97 39 120 16 19 -20 29 -16 20 8 -7 20 -65 40 -87 31 -14 -5
-17 0 -17 23 0 33 -16 53 -42 53 -21 0 -22 4 -5 31 10 18 20 20 70 17 36 -3
67 -12 85 -24z m-1301 -676 c52 -42 78 -51 155 -56 57 -3 84 0 109 12 17 9 33
16 34 16 1 0 10 -18 20 -40 28 -61 16 -160 -30 -256 -63 -130 -203 -246 -315
-261 -33 -5 -38 -2 -43 19 -11 44 -67 108 -126 147 -60 38 -196 79 -226 68 -8
-4 -17 -2 -20 3 -11 17 127 92 228 124 9 3 20 14 24 23 35 103 115 223 149
223 7 0 25 -10 41 -22z m-662 -117 c47 -21 97 -61 125 -101 l21 -29 -31 -28
c-17 -15 -44 -50 -60 -78 -16 -28 -50 -66 -79 -87 -87 -65 -150 -178 -154
-275 -2 -55 -4 -58 -30 -61 -22 -3 -31 3 -48 33 -16 26 -26 34 -38 29 -43 -18
-67 -16 -80 9 -10 19 -10 29 -1 47 15 27 6 50 -18 50 -25 0 -44 23 -36 43 3 9
21 22 40 29 34 12 35 13 27 53 -16 82 -8 176 20 231 61 120 230 187 342 135z
m5205 -133 c95 -65 94 -223 -1 -316 -41 -40 -94 -55 -179 -50 -64 3 -145 34
-145 55 0 5 25 37 56 71 52 56 58 59 80 48 13 -6 34 -29 46 -51 l23 -40 0 37
c0 30 -6 42 -36 66 l-37 30 39 11 c22 6 49 11 62 11 24 0 72 -41 72 -62 0 -8
3 -9 10 -2 18 18 -6 62 -46 82 -23 12 -33 22 -25 26 18 11 13 51 -9 71 -11 10
-17 22 -14 26 10 17 71 9 104 -13z m-1429 -92 c40 -99 123 -176 191 -176 86
-1 91 -42 18 -154 -76 -117 -98 -165 -126 -287 -32 -136 -45 -168 -85 -213
-112 -128 -290 -120 -418 19 -136 148 -133 364 10 605 103 173 238 285 337
278 l45 -3 28 -69z m-615 -116 c51 -25 64 -36 59 -48 -51 -125 -75 -243 -75
-372 0 -74 -2 -81 -17 -75 -10 4 -42 10 -70 13 -50 4 -55 2 -88 -31 -27 -27
-35 -43 -35 -71 0 -35 -27 -76 -50 -76 -14 0 -50 38 -50 53 0 31 -23 36 -52
12 -32 -27 -79 -33 -96 -12 -5 6 -12 23 -14 37 -3 22 -9 25 -46 28 -34 3 -45
8 -54 28 -10 21 -8 29 12 56 17 23 20 33 10 36 -7 3 -21 13 -31 23 -30 30 -9
59 41 59 l40 0 0 53 c1 123 100 242 252 302 88 35 173 30 264 -15z m-3570
-219 c-1 -57 27 -84 79 -79 33 4 43 1 57 -17 l17 -23 -68 -4 c-56 -3 -78 -10
-120 -35 -28 -18 -51 -28 -51 -23 0 27 32 153 46 184 23 48 42 47 40 -3z
m2925 -158 c6 -16 18 -36 27 -46 13 -15 14 -22 4 -37 -7 -11 -12 -29 -12 -40
0 -29 44 -70 74 -70 20 0 29 -8 40 -35 18 -42 52 -53 115 -36 44 12 46 11 64
-13 10 -15 25 -26 33 -26 27 0 14 -28 -20 -44 -56 -26 -104 -21 -160 19 -27
19 -61 35 -75 35 -14 0 -51 -16 -81 -35 -79 -51 -140 -45 -140 12 0 34 62 97
112 113 41 14 42 14 14 18 -42 5 -82 -15 -126 -66 -44 -49 -63 -47 -75 8 -13
59 49 132 127 150 40 10 47 15 34 22 -39 22 -131 -21 -166 -78 -12 -19 -26
-32 -31 -28 -13 8 -10 75 4 100 31 55 120 102 195 103 27 1 34 -4 43 -26z
m-2771 -10 c0 -9 9 -27 21 -39 17 -18 19 -26 10 -42 -27 -51 7 -111 65 -115
20 -2 30 -9 32 -22 10 -50 75 -72 135 -44 21 9 28 6 60 -26 35 -35 36 -38 20
-51 -10 -8 -34 -18 -55 -24 -42 -12 -69 -4 -133 40 -56 38 -78 37 -145 -5 -79
-51 -140 -45 -140 13 0 32 68 100 109 108 29 6 44 24 20 24 -41 0 -95 -28
-131 -69 l-40 -46 -19 24 c-23 28 -23 41 -5 84 20 48 69 88 123 103 l48 13
-43 0 c-55 1 -91 -18 -136 -70 -29 -35 -37 -39 -42 -25 -12 32 5 89 37 122 45
47 85 64 152 64 47 0 57 -3 57 -17z m1635 -232 c46 -20 97 -75 122 -129 26
-59 23 -194 -7 -256 -42 -88 -159 -156 -264 -156 -98 1 -200 92 -154 138 20
20 37 14 72 -23 29 -30 40 -35 80 -35 149 0 251 141 205 281 -41 120 -161 160
-293 98 -28 -13 -82 -58 -137 -114 -115 -117 -192 -161 -268 -152 -158 19
-249 163 -215 337 7 30 8 31 43 25 20 -4 37 -8 39 -10 1 -1 -2 -23 -8 -49 -22
-99 40 -206 128 -221 66 -11 123 21 229 131 67 69 108 102 148 120 99 46 196
51 280 15z m3984 -222 c11 -12 22 -32 26 -46 10 -41 -24 -129 -69 -180 -48
-55 -181 -144 -201 -136 -8 3 -17 -2 -21 -10 -7 -20 -40 -10 -63 19 -10 13
-29 24 -42 24 -21 0 -24 5 -26 44 -1 38 2 45 24 55 14 7 23 14 20 17 -3 3 -17
-2 -31 -11 -20 -14 -26 -14 -26 -4 0 8 28 29 63 46 34 18 105 65 157 105 140
106 156 112 189 77z m-1954 -68 c10 -17 164 -71 248 -87 57 -11 106 -14 161
-10 l79 7 -7 -73 c-13 -141 -93 -261 -215 -321 -59 -29 -75 -32 -153 -32 -72
0 -88 -3 -88 -15 0 -9 -7 -26 -16 -38 -19 -28 -57 -26 -62 3 -6 30 -20 41 -34
27 -30 -30 -108 1 -92 37 19 46 16 56 -20 69 -32 12 -36 17 -36 47 0 25 8 40
30 58 17 14 30 30 30 34 0 5 -13 19 -30 31 -32 24 -40 61 -17 80 6 6 37 10 68
10 88 -1 118 28 126 124 5 54 14 70 28 49z m685 -40 c11 -17 32 -55 47 -87 22
-49 25 -65 21 -133 -5 -66 -13 -94 -64 -206 -48 -107 -59 -142 -62 -195 -4
-77 17 -127 63 -150 73 -36 204 1 231 65 17 42 10 80 -19 100 -30 21 -51 19
-85 -10 -34 -28 -54 -31 -71 -11 -30 35 52 116 117 116 96 0 173 -110 142
-205 -29 -89 -119 -145 -233 -145 -144 0 -227 82 -227 224 0 61 16 115 62 217
84 182 89 259 24 354 l-38 55 23 20 c33 26 44 25 69 -9z m761 9 c56 -16 79
-43 79 -95 0 -24 4 -55 10 -69 9 -25 -2 -37 -15 -16 -15 23 -86 41 -226 55
-82 8 -164 21 -183 29 -37 15 -64 52 -49 67 27 27 312 49 384 29z m-1714 -197
c3 -10 14 -27 25 -39 18 -21 18 -22 -7 -71 -21 -41 -24 -54 -16 -76 6 -15 22
-32 35 -38 21 -10 25 -18 23 -50 -2 -54 25 -81 77 -77 32 2 45 -2 65 -23 15
-14 32 -28 39 -30 18 -6 -8 -99 -41 -142 -46 -61 -158 -97 -187 -62 -7 9 -11
16 -9 18 2 1 26 13 53 27 59 30 85 62 92 115 l6 40 -25 -50 c-44 -90 -168
-132 -209 -71 -12 18 -9 36 5 36 23 0 95 58 112 89 24 47 17 59 -10 18 -26
-37 -89 -77 -123 -77 -10 0 -27 9 -37 20 -25 28 -13 63 45 125 56 59 61 83 30
145 -28 55 -26 115 6 157 28 37 42 41 51 16z m1642 -12 c10 -10 28 -48 40 -84
12 -36 33 -77 46 -91 30 -32 25 -48 -21 -70 -34 -15 -38 -15 -79 3 -91 40
-124 196 -52 246 28 20 43 19 66 -4z m-145 -17 c13 -5 15 -16 10 -53 -5 -37
-1 -59 16 -99 12 -28 28 -57 36 -63 19 -16 8 -29 -26 -29 -64 0 -139 106 -125
179 11 59 43 83 89 65z m448 -98 c59 -29 13 -150 -85 -223 -73 -53 -112 -71
-190 -86 -51 -9 -60 -9 -75 7 -19 19 -17 21 53 71 165 118 210 172 210 251 l0
53 32 -31 c17 -17 42 -36 55 -42z"/>
<path d="M1746 3715 c-11 -8 -15 -15 -9 -15 7 0 15 5 18 10 11 18 81 11 106
-10 l24 -19 -31 11 c-17 6 -42 8 -57 4 -28 -7 -57 -50 -57 -86 0 -32 44 -70
82 -70 25 0 29 -3 18 -10 -13 -8 -13 -10 2 -10 29 0 68 57 68 102 0 56 -51
108 -106 108 -22 0 -48 -7 -58 -15z"/>
<path d="M2412 3624 c-32 -22 -43 -57 -31 -94 30 -84 149 -60 149 30 0 65 -66
101 -118 64z"/>
<path d="M1965 3496 c-14 -22 -14 -27 1 -65 9 -23 30 -52 46 -65 29 -23 30
-23 19 -81 -13 -69 -14 -138 -3 -131 5 3 9 33 10 67 2 72 20 129 40 129 18 0
137 66 153 86 10 12 8 19 -10 38 -28 30 -90 46 -175 46 -58 0 -67 -3 -81 -24z"/>
<path d="M1722 3208 c-32 -32 11 -127 84 -185 131 -103 304 -119 462 -42 65
31 126 86 135 119 7 26 -19 60 -46 60 -12 0 -63 -20 -113 -46 -75 -38 -103
-47 -161 -51 -122 -9 -188 21 -275 125 -27 33 -64 42 -86 20z m75 -35 c57 -77
86 -98 165 -119 106 -28 205 -12 305 50 63 39 100 46 110 20 10 -27 -15 -62
-69 -98 -86 -55 -115 -62 -185 -43 -36 11 -96 17 -155 17 -90 0 -97 2 -136 30
-94 68 -134 172 -70 179 4 1 20 -16 35 -36z"/>
<path d="M5211 3284 c-51 -36 -59 -130 -13 -165 15 -13 16 -12 4 3 -38 49 -30
133 16 157 38 20 101 13 127 -14 32 -31 33 -56 2 -27 -32 30 -89 30 -117 0
-32 -35 -24 -86 18 -114 31 -22 32 -23 10 -27 -16 -3 -12 -5 12 -6 65 -2 110
42 110 107 0 62 -40 102 -102 102 -24 0 -54 -7 -67 -16z"/>
<path d="M5360 3010 c-26 -26 -26 -83 -1 -132 17 -34 17 -38 2 -52 -9 -8 -29
-39 -45 -69 -29 -53 -29 -53 -77 -53 -33 1 -53 -5 -69 -19 -55 -49 -79 -179
-45 -245 26 -51 93 -66 137 -30 61 47 87 173 51 247 -16 35 -16 37 11 89 42
80 53 87 153 91 91 4 123 14 123 38 0 24 -65 89 -117 117 -72 38 -99 42 -123
18z m-75 -353 c23 -36 29 -83 15 -132 l-12 -45 -28 20 c-16 11 -49 23 -75 27
-26 3 -49 12 -52 18 -6 17 23 85 49 112 29 31 82 31 103 0z"/>
<path d="M5785 2925 c-50 -49 -15 -135 55 -135 20 0 40 9 57 26 21 21 24 32
19 62 -11 70 -83 96 -131 47z"/>
</g>
</svg>
