<?xml version="1.0" standalone="no"?>
<!DOCTYPE svg PUBLIC "-//W3C//DTD SVG 20010904//EN"
 "http://www.w3.org/TR/2001/REC-SVG-20010904/DTD/svg10.dtd">
<svg version="1.0" xmlns="http://www.w3.org/2000/svg"
 width="960.000000pt" height="610.000000pt" viewBox="0 0 960.000000 610.000000"
 preserveAspectRatio="xMidYMid meet">
<metadata>
Created by potrace 1.16, written by Peter Selinger 2001-2019
</metadata>
<g transform="translate(0.000000,610.000000) scale(0.100000,-0.100000)"
fill="#000000" stroke="none">
<path d="M9595 3050 c0 -1680 1 -2368 2 -1528 2 841 2 2215 0 3055 -1 841 -2
153 -2 -1527z"/>
<path d="M2031 5484 c-92 -31 -117 -44 -161 -86 -86 -80 -166 -220 -211 -365
-17 -55 -20 -86 -17 -173 3 -90 8 -113 31 -157 66 -127 291 -282 446 -307 56
-9 267 19 346 46 33 11 79 31 103 45 46 26 166 160 186 208 42 100 54 322 22
413 -19 57 -138 243 -177 278 -59 53 -153 92 -265 108 -152 22 -215 20 -303
-10z m274 -12 c11 -6 56 -18 100 -27 135 -27 171 -54 285 -212 19 -26 46 -75
60 -108 22 -54 25 -73 24 -185 -1 -190 -30 -265 -151 -385 -44 -44 -74 -65
-114 -79 -30 -10 -68 -24 -84 -31 -17 -8 -90 -19 -162 -25 -131 -12 -132 -12
-211 14 -156 52 -310 171 -363 281 -27 57 -30 73 -30 157 0 106 15 171 64 279
58 127 142 235 212 272 92 48 175 68 265 64 47 -3 95 -9 105 -15z"/>
<path d="M1890 4223 c-58 -9 -110 -26 -110 -37 0 -6 -13 -27 -29 -47 -41 -50
-61 -104 -60 -163 l2 -51 7 55 c8 64 18 86 74 158 46 59 64 66 152 66 122 -1
204 -85 204 -209 0 -58 -26 -130 -56 -157 -11 -9 -42 -28 -70 -42 -65 -33
-125 -34 -199 -3 -49 19 -59 28 -81 72 -19 37 -24 42 -19 20 10 -48 33 -75 83
-97 96 -42 178 -40 252 7 61 39 79 67 97 149 16 74 16 81 -1 130 -23 66 -47
91 -121 127 -58 28 -72 31 -125 22z"/>
<path d="M4606 4100 c-91 -16 -100 -17 -126 -2 -26 15 -34 15 -102 -2 -40 -10
-104 -25 -143 -33 -193 -41 -342 -89 -519 -165 -49 -21 -92 -38 -96 -38 -5 0
-39 -18 -78 -40 l-69 -40 -64 26 c-39 16 -83 26 -113 26 -47 0 -49 2 -78 48
-22 35 -44 55 -84 75 -48 24 -62 27 -117 22 -74 -7 -140 -35 -198 -83 -23 -19
-50 -39 -60 -44 -9 -5 -27 -25 -38 -43 -11 -19 -49 -51 -83 -72 -128 -79 -268
-242 -268 -313 0 -17 -11 -47 -24 -67 -13 -19 -27 -57 -31 -84 -8 -57 7 -93
56 -139 30 -28 31 -30 16 -53 -22 -33 -57 -165 -57 -213 0 -25 -7 -47 -19 -60
-21 -22 -24 -38 -22 -101 1 -31 10 -52 39 -87 20 -26 58 -76 84 -110 118 -158
226 -265 358 -354 52 -35 115 -82 140 -105 25 -23 86 -74 135 -114 81 -65 94
-80 129 -151 22 -44 56 -123 76 -176 54 -141 105 -220 212 -326 89 -90 200
-171 389 -284 70 -43 181 -88 214 -88 24 0 17 28 -12 47 -15 10 -54 44 -86 76
-49 48 -57 61 -50 80 26 72 -14 171 -104 260 -29 28 -53 57 -53 64 0 7 16 28
36 48 22 23 33 42 30 53 -22 74 -22 74 20 67 63 -11 72 -15 76 -33 5 -16 173
-279 188 -292 3 -3 23 -27 44 -55 51 -64 165 -175 236 -230 124 -95 301 -153
470 -153 l75 0 -75 9 c-163 19 -324 70 -423 133 -59 38 -229 203 -290 282 -52
65 -160 235 -154 240 2 3 23 -15 45 -38 23 -23 43 -40 46 -37 3 2 -27 38 -67
79 -40 40 -71 80 -69 88 2 8 -6 21 -17 29 -23 16 -53 76 -55 109 -1 23 -131
148 -219 209 -45 32 -57 46 -57 67 l0 27 58 -25 c31 -14 62 -29 67 -33 6 -4
33 -20 60 -35 35 -19 43 -21 25 -7 -14 11 -38 28 -55 36 -16 9 -48 27 -70 41
-22 13 -50 30 -62 36 -25 12 -30 40 -10 56 8 7 34 3 82 -13 39 -13 71 -22 73
-20 2 2 -23 15 -55 31 -82 39 -84 41 -71 70 13 28 34 30 85 9 20 -8 38 -13 41
-10 3 3 -18 14 -46 26 -29 12 -52 28 -52 35 0 24 44 104 56 104 7 0 42 -28 77
-61 98 -94 293 -203 550 -309 60 -25 78 -37 83 -56 8 -31 -9 -51 -49 -60 -78
-16 -75 -47 12 -118 37 -31 72 -56 76 -56 19 0 75 -52 68 -63 -4 -7 -6 -20 -5
-29 2 -10 -2 -18 -7 -18 -43 0 33 -79 124 -131 60 -34 65 -43 35 -59 -30 -16
-25 -28 24 -52 38 -18 43 -24 35 -40 -5 -10 -8 -22 -5 -27 3 -4 92 -10 198
-13 200 -5 228 -11 248 -49 9 -16 8 -26 -5 -45 -21 -33 -15 -40 42 -42 105 -4
254 -29 338 -57 80 -26 183 -38 347 -40 92 -2 168 -5 168 -9 0 -3 0 -9 0 -14
0 -18 -226 -71 -310 -72 -21 0 -30 -3 -23 -8 11 -7 89 3 268 33 49 8 97 42 93
67 -3 20 -8 21 -198 24 -151 2 -215 7 -285 23 -49 11 -120 27 -156 35 -36 8
-105 20 -152 26 -110 13 -115 15 -109 45 5 31 -21 73 -53 85 -14 5 -98 12
-187 15 -90 4 -169 8 -176 11 -7 2 -12 11 -10 21 2 10 -10 25 -29 37 -31 20
-44 46 -23 46 6 0 10 8 10 18 0 11 -26 31 -70 56 -38 21 -81 52 -97 68 l-27
28 25 25 c22 22 39 27 164 40 265 27 400 46 503 70 105 25 358 122 397 153
100 77 234 190 250 211 11 14 41 48 67 76 26 28 63 72 83 98 26 34 43 47 61
47 20 0 130 -39 234 -83 37 -16 197 -105 265 -148 314 -198 487 -257 761 -259
47 0 53 2 63 28 9 22 9 35 0 55 -7 15 -9 30 -5 35 4 4 67 10 139 13 145 6 164
11 177 44 8 21 14 22 174 27 180 6 206 14 206 65 0 23 2 23 108 25 l107 1 -95
8 c-52 4 -110 10 -127 12 -35 3 -39 -3 -23 -33 24 -44 -32 -58 -260 -64 -111
-4 -115 -4 -113 -25 4 -31 -31 -41 -141 -41 -183 0 -204 -9 -171 -74 14 -27
14 -31 0 -45 -13 -13 -33 -14 -159 -3 -202 17 -303 50 -476 157 -30 19 -75 45
-100 59 -25 13 -54 32 -65 41 -22 18 -28 18 55 0 34 -8 -28 21 -99 46 -54 19
-244 117 -292 150 -15 10 -53 25 -84 34 -32 8 -60 16 -62 19 -2 2 -1 15 3 30
8 33 21 33 136 1 49 -14 95 -24 102 -22 13 5 11 6 -113 43 -84 25 -95 31 -109
61 -12 26 -13 38 -4 58 7 14 12 38 12 52 0 26 1 26 15 7 13 -17 14 -13 8 44
-6 61 -5 63 18 69 47 12 299 154 299 168 0 3 -61 -27 -135 -66 -150 -78 -178
-83 -183 -32 -3 29 2 35 75 82 90 59 90 67 -1 16 -35 -19 -67 -35 -72 -35 -9
0 -44 76 -44 96 0 6 8 11 18 11 96 -1 119 21 341 323 54 75 107 142 116 150
10 8 36 40 58 70 130 177 332 329 472 356 41 7 43 0 15 -56 -11 -22 -20 -58
-20 -81 0 -39 1 -41 26 -35 63 16 154 70 409 244 172 116 217 123 160 23 -14
-23 -25 -49 -25 -57 0 -21 52 -9 137 31 40 19 76 35 79 35 4 0 35 18 70 40 62
39 104 49 133 31 12 -8 13 -15 3 -35 -8 -18 -8 -27 1 -34 7 -5 89 -12 182 -14
141 -3 176 -7 205 -23 21 -11 60 -19 98 -20 83 -3 97 -17 55 -55 -26 -23 -44
-29 -100 -35 -113 -10 -193 -25 -293 -55 -52 -15 -108 -31 -124 -34 -29 -7
-30 -10 -14 -75 3 -13 -3 -16 -92 -41 -25 -7 -76 -26 -115 -41 -38 -15 -114
-44 -167 -63 -53 -20 -120 -50 -149 -67 -28 -16 -79 -44 -113 -61 -33 -17 -77
-43 -96 -58 -19 -15 -70 -46 -114 -69 -43 -23 -97 -54 -120 -69 -22 -15 -49
-31 -58 -37 -9 -5 -57 -38 -108 -73 -50 -35 -116 -77 -148 -94 -31 -18 -63
-38 -70 -45 -8 -7 -27 -20 -43 -28 -32 -17 -35 -26 -18 -58 10 -18 8 -24 -20
-48 -17 -14 -51 -32 -74 -39 -188 -56 -190 -58 -185 -117 3 -34 8 -40 48 -60
90 -45 210 -74 358 -85 142 -12 144 -12 187 12 36 20 46 22 59 11 9 -8 16 -24
16 -36 0 -37 26 -48 125 -55 103 -8 112 -12 125 -46 8 -19 17 -24 42 -23 101
1 440 39 530 59 21 4 70 4 110 0 62 -7 89 -5 178 17 58 14 123 27 145 30 67 7
227 41 274 57 65 24 71 22 64 -19 -6 -40 -7 -40 65 -21 30 8 59 13 66 10 7 -3
65 2 130 11 64 8 126 15 137 15 47 0 3 -92 -60 -125 -15 -7 -64 -26 -109 -41
-45 -14 -82 -30 -82 -34 0 -4 31 3 69 15 38 13 82 26 98 29 16 4 48 23 71 44
34 29 45 46 49 77 7 58 -10 70 -79 56 -66 -12 -157 -23 -223 -26 -27 -1 -62
-6 -77 -10 -27 -7 -28 -6 -22 24 6 29 5 31 -24 31 -17 0 -51 -6 -74 -14 -80
-27 -233 -64 -292 -70 -33 -4 -94 -14 -135 -23 -46 -10 -128 -17 -206 -18 -81
-1 -162 -8 -215 -19 -47 -10 -152 -21 -235 -25 l-150 -7 -26 27 c-21 22 -39
28 -95 34 -38 4 -78 9 -89 10 -42 4 -65 17 -65 35 0 24 -38 60 -63 60 -10 0
-30 -9 -44 -20 -22 -17 -41 -20 -122 -20 -127 0 -242 26 -388 85 -76 31 -63
92 24 115 97 25 139 41 177 66 36 24 38 29 33 65 -5 37 -4 39 55 76 33 21 96
62 141 92 45 30 120 80 167 111 47 31 114 73 150 94 80 45 90 51 162 99 32 20
65 40 75 44 9 4 45 24 80 45 86 52 406 181 480 193 83 14 94 17 104 37 8 15 7
24 -7 39 -12 13 -14 23 -8 29 24 24 353 100 432 100 79 0 132 36 132 90 0 26
-9 29 -91 34 -41 2 -76 10 -93 22 -24 15 -55 19 -202 22 l-174 5 6 33 c5 30 3
35 -21 44 -49 19 -78 10 -227 -65 -82 -41 -157 -75 -167 -75 -17 0 -17 4 7 48
16 30 23 55 19 66 -12 30 -80 13 -151 -38 -168 -118 -390 -254 -443 -270 -20
-6 -23 -4 -23 21 1 15 14 53 30 83 16 30 26 58 21 63 -9 9 -142 -23 -198 -49
-103 -47 -256 -184 -363 -324 -33 -43 -64 -82 -70 -85 -5 -3 -42 -52 -82 -108
-100 -142 -192 -256 -239 -295 -32 -27 -50 -35 -97 -39 l-57 -5 -23 41 c-13
23 -34 78 -46 124 -23 84 -54 154 -87 195 -27 35 -60 131 -61 177 0 37 -12 73
-27 85 -15 12 -78 117 -84 139 -4 18 2 30 25 51 37 34 34 61 -10 103 -27 26
-147 78 -215 93 -17 3 -32 14 -34 25 -3 10 -14 19 -24 19 -10 0 -22 6 -26 14
-19 34 -121 49 -348 52 -121 2 -222 4 -224 4 -3 0 0 5 6 11 9 9 6 19 -10 40
-20 28 -23 29 -106 28 -47 -1 -130 -9 -185 -19z m268 -15 c6 -16 -14 -31 -76
-61 -21 -10 -38 -21 -38 -26 0 -10 3 -10 37 3 35 14 152 21 353 21 120 0 171
-5 225 -19 93 -25 96 -43 13 -67 -35 -9 -76 -24 -93 -32 l-30 -14 35 6 c19 3
53 12 75 20 22 8 53 14 69 14 34 0 128 -25 169 -46 16 -8 36 -14 44 -14 26 0
99 -47 118 -76 17 -26 17 -28 -1 -41 -10 -7 -33 -19 -51 -25 -34 -12 -44 -28
-18 -28 9 0 21 -12 27 -27 7 -16 34 -61 61 -102 33 -48 50 -86 52 -110 3 -43
15 -92 26 -106 4 -6 12 -23 18 -38 9 -24 8 -27 -10 -27 -30 0 -79 53 -79 85 0
57 -99 125 -182 125 -20 0 -32 8 -42 29 -8 15 -29 34 -46 41 -17 7 -30 20 -30
30 0 23 -29 48 -65 54 -16 3 -31 10 -33 16 -21 63 -149 126 -295 146 -121 16
-253 18 -262 4 -10 -17 -41 -11 -61 11 -21 23 -21 23 -198 0 -55 -7 -84 -7
-92 0 -9 7 -25 7 -54 -1 -39 -10 -43 -10 -65 14 -13 14 -32 26 -42 26 -42 -1
-212 -29 -253 -43 -25 -8 -79 -25 -120 -37 -41 -13 -80 -27 -87 -32 -26 -20
-106 -38 -119 -27 -15 12 -154 1 -154 -12 0 -5 -20 -9 -45 -9 -35 0 -47 4 -56
22 -15 28 5 43 136 107 186 89 392 158 645 215 63 14 125 28 138 32 12 3 22 2
22 -2 -1 -9 -69 -52 -177 -111 -35 -19 -63 -36 -63 -38 0 -5 92 35 107 47 34
27 152 78 181 78 18 0 63 7 100 15 97 21 109 22 198 24 64 1 83 -2 88 -14z
m-1732 -162 c57 -38 59 -56 9 -72 -38 -11 -59 -27 -48 -37 2 -2 17 2 33 11 39
20 54 19 87 -10 21 -19 27 -33 27 -64 0 -22 -4 -51 -10 -65 -5 -14 -6 -26 -1
-26 11 0 31 71 31 114 0 34 1 36 35 36 46 0 114 -27 147 -59 28 -26 36 -51 18
-51 -5 0 -10 -7 -10 -15 0 -8 7 -15 15 -15 9 0 15 -9 15 -25 0 -33 -20 -75
-36 -75 -13 0 -15 -4 -34 -78 -9 -36 -20 -48 -66 -78 -51 -33 -68 -54 -43 -54
6 0 33 14 59 31 44 29 60 48 74 92 5 15 8 16 26 5 11 -7 24 -24 27 -38 3 -14
13 -36 21 -48 9 -13 31 -60 49 -105 129 -311 153 -404 153 -612 0 -235 -29
-353 -144 -577 -112 -220 -201 -284 -343 -243 -93 27 -189 95 -380 271 -7 7
-42 28 -77 48 -36 20 -85 56 -108 79 -24 23 -55 51 -68 62 -37 29 -178 202
-200 244 -10 20 -28 45 -40 56 -53 47 -64 127 -25 169 19 21 25 38 25 74 0 77
11 119 44 175 27 45 36 53 71 58 28 5 48 2 67 -9 15 -9 30 -13 34 -9 13 13
-41 46 -78 48 -21 2 -52 3 -70 4 -50 3 -88 53 -88 116 0 49 32 129 52 129 4 0
5 13 2 29 -9 45 38 120 131 210 47 45 105 89 138 105 31 16 59 36 62 46 8 27
136 136 181 155 98 42 172 41 236 -2z m1224 -100 c23 -25 26 -26 64 -13 30 10
46 10 63 2 12 -6 29 -10 38 -10 26 2 90 -42 100 -69 13 -34 11 -143 -2 -183
-12 -33 -56 -60 -99 -60 -27 0 -26 17 3 23 12 3 0 5 -28 4 -41 -2 -54 3 -75
23 -14 14 -36 33 -49 42 l-24 17 23 44 c32 61 23 124 -26 166 -18 17 -34 33
-34 36 0 13 23 2 46 -22z m-82 2 c-5 -11 1 -15 19 -15 38 0 77 -55 77 -108 0
-34 -6 -48 -35 -76 -19 -20 -35 -37 -35 -39 0 -3 14 -7 32 -11 36 -7 99 -68
128 -126 39 -76 18 -168 -44 -191 l-31 -11 51 -23 c57 -25 96 -69 119 -134 30
-85 17 -155 -38 -202 -52 -46 -63 -44 -94 18 -26 51 -59 87 -142 156 l-34 28
25 27 c50 53 63 91 63 182 0 80 -3 89 -40 159 -34 61 -61 92 -114 128 -2 1 4
18 13 37 22 46 20 108 -4 158 -11 23 -20 43 -20 44 0 4 43 11 77 13 25 1 31
-2 27 -14z m472 -12 c3 -11 24 -24 51 -33 61 -20 85 -54 85 -119 0 -34 -5 -58
-16 -70 -9 -10 -16 -22 -15 -27 5 -18 -24 -62 -42 -67 -32 -9 -21 -23 14 -19
25 3 39 -2 61 -24 33 -34 71 -98 80 -136 6 -26 4 -28 -24 -28 -16 0 -30 -4
-30 -10 0 -5 13 -10 28 -10 40 0 44 -7 22 -50 -21 -40 -58 -70 -89 -70 -31 0
-34 -17 -4 -25 55 -13 111 -74 71 -76 -7 0 -3 -4 10 -9 18 -8 22 -17 22 -50 0
-70 -36 -114 -104 -124 -32 -6 -41 -3 -60 18 -23 26 -76 56 -101 56 -8 0 -15
4 -15 9 0 5 -8 12 -18 15 -16 5 -12 12 25 51 50 52 93 132 93 172 0 32 -31
123 -54 158 -14 22 -123 108 -148 118 -9 4 -4 13 14 29 65 57 64 272 -1 293
-35 11 -24 22 32 32 83 16 108 15 113 -4z m207 -19 c81 -41 96 -85 55 -168
-25 -53 -36 -59 -76 -44 -28 11 -30 15 -34 78 -2 49 -9 73 -26 94 -27 35 -27
43 -4 49 33 9 53 7 85 -9z m145 0 c37 -4 91 -16 120 -26 45 -17 52 -23 46 -40
-5 -17 -3 -19 16 -13 39 12 129 -108 130 -173 0 -48 -42 -104 -103 -138 -16
-8 -26 -18 -24 -21 3 -3 30 9 60 26 74 42 96 98 73 189 -7 28 -5 32 12 32 22
0 38 -16 43 -44 2 -11 19 -26 37 -35 26 -13 31 -21 27 -38 -4 -16 2 -27 20
-39 18 -12 25 -25 25 -49 0 -43 -9 -65 -26 -65 -17 0 -18 -17 -1 -23 8 -2 3
-18 -18 -48 -36 -53 -43 -59 -76 -59 -19 0 -33 12 -57 46 -34 47 -80 74 -129
74 -19 0 -43 15 -77 47 l-49 47 31 27 c17 15 38 41 46 58 19 35 21 132 5 164
-26 51 -87 96 -109 82 -15 -9 1 -37 18 -30 20 8 62 -33 62 -61 0 -12 7 -28 16
-35 32 -26 3 -123 -48 -162 -27 -21 -41 -25 -73 -20 -34 4 -45 13 -72 51 -27
39 -30 49 -19 62 26 30 46 89 46 133 0 37 -4 48 -25 61 -27 18 -34 42 -10 32
8 -3 46 -8 83 -12z m-1044 -14 c49 -18 69 -94 45 -169 -31 -97 -59 -120 -119
-102 -50 15 -53 21 -34 61 20 40 13 113 -16 152 l-20 27 37 20 c43 23 70 25
107 11z m-144 -72 c32 -34 28 -113 -7 -150 -15 -15 -29 -28 -33 -28 -3 0 -25
18 -49 40 -23 22 -49 40 -57 40 -14 0 -18 12 -15 38 1 6 -2 20 -8 29 -8 15 -1
20 52 34 83 23 93 22 117 -3z m-286 -33 c21 -31 21 -75 1 -75 -20 0 -19 -17 1
-28 14 -8 13 -14 -11 -53 -57 -90 -105 -121 -105 -66 0 12 -12 31 -27 43 l-28
22 22 43 c11 24 24 63 28 86 6 35 11 42 33 46 59 9 70 7 86 -18z m146 -96 c49
-30 72 -60 67 -86 -3 -15 1 -23 9 -23 20 0 18 -94 -2 -125 -23 -35 -46 -31
-148 20 -48 25 -97 45 -107 45 -26 0 -24 19 5 49 13 15 36 48 50 76 39 73 64
82 126 44z m437 -35 c19 -14 42 -42 51 -62 9 -21 25 -50 35 -65 28 -41 30
-180 3 -220 -10 -15 -21 -25 -24 -22 -3 3 -9 30 -13 60 -10 79 -93 206 -160
247 l-28 17 22 41 c20 37 25 40 51 35 16 -3 45 -17 63 -31z m740 7 c3 -11 11
-17 21 -14 21 5 67 -66 80 -123 12 -55 0 -84 -36 -84 -24 0 -32 7 -48 42 -10
23 -39 62 -64 88 -46 47 -46 47 -30 78 11 24 22 32 43 32 20 0 30 -6 34 -19z
m-948 -79 c65 -40 95 -101 95 -198 1 -63 -2 -77 -21 -95 l-22 -23 -10 26 c-5
14 -31 46 -57 71 -36 36 -57 48 -91 53 -47 7 -49 10 -28 38 10 13 15 43 15 86
0 37 3 70 7 74 13 12 63 -2 112 -32z m500 9 c7 -5 11 -14 7 -20 -5 -7 2 -9 22
-5 25 5 44 -3 105 -45 62 -41 80 -60 98 -98 38 -84 47 -125 36 -158 -17 -50
-79 -136 -110 -151 -15 -8 -27 -20 -24 -27 2 -6 36 -29 75 -50 40 -21 83 -53
95 -70 85 -118 50 -293 -69 -343 -52 -22 -54 -20 -48 44 6 54 4 60 -33 117
-22 34 -67 83 -101 110 -33 28 -61 53 -61 57 -1 4 12 15 28 24 117 69 82 285
-61 375 -6 4 -2 18 12 36 29 40 35 98 16 153 -22 63 -20 72 13 51z m-360 -67
c60 -69 101 -153 101 -211 0 -44 -23 -128 -43 -161 -9 -13 -25 -4 -96 57 -33
27 -34 29 -17 46 10 10 22 29 27 42 21 57 2 192 -36 245 -38 55 12 41 64 -18z
m1527 33 c42 -24 104 -109 104 -144 0 -18 -2 -33 -4 -33 -2 0 -17 13 -34 28
-17 16 -50 34 -74 41 -60 18 -64 23 -60 75 3 39 7 46 26 46 11 -1 31 -6 42
-13z m-499 -54 c87 -70 78 -170 -22 -228 -23 -14 -44 -25 -47 -25 -3 0 -10 18
-17 39 -6 22 -27 53 -47 71 -38 33 -40 60 -5 60 29 0 51 38 51 88 0 40 2 43
23 36 12 -3 41 -22 64 -41z m-1478 -45 c48 -24 86 -50 89 -60 2 -10 10 -18 18
-18 15 0 54 -70 54 -97 0 -60 -63 -158 -121 -189 -25 -12 -27 -12 -32 9 -9 36
-43 126 -82 217 -48 112 -75 179 -75 187 0 13 71 -10 149 -49z m1982 -34 c34
-16 61 -35 65 -46 8 -27 -4 -88 -18 -88 -6 0 -8 -3 -5 -6 4 -4 14 -1 23 7 16
13 17 10 12 -33 -3 -29 -15 -61 -31 -81 -22 -29 -30 -33 -60 -29 -32 4 -35 7
-41 43 -6 38 -35 74 -91 113 -26 18 -26 18 -7 40 11 11 32 40 47 64 15 23 32
42 38 42 5 0 36 -12 68 -26z m-345 1 c51 -21 98 -85 63 -85 -6 0 -1 -8 11 -18
20 -16 21 -22 11 -58 -6 -22 -25 -57 -43 -78 l-33 -37 -50 13 c-44 11 -135 71
-135 87 0 3 16 16 34 29 39 27 66 76 66 120 0 21 6 32 18 35 9 3 18 5 20 6 1
0 19 -6 38 -14z m576 -93 c58 -45 68 -62 68 -123 0 -71 -72 -170 -123 -169
-12 1 -46 22 -75 49 l-53 47 25 49 c20 37 26 63 26 111 0 34 4 74 10 89 10 25
10 25 37 8 16 -9 53 -37 85 -61z m-1942 26 c45 -40 63 -74 55 -105 -3 -14 -1
-31 6 -39 28 -34 -20 -127 -82 -159 -40 -21 -58 -19 -122 13 l-56 29 35 34
c20 19 42 50 51 69 20 48 19 121 -3 154 -15 24 -15 29 -3 37 23 16 81 -1 119
-33z m1072 -25 c16 -20 38 -68 38 -84 0 -5 -10 -14 -22 -19 -18 -7 -19 -9 -5
-9 38 -2 7 -41 -33 -41 -17 0 -38 13 -60 35 l-33 34 36 41 c21 22 37 45 37 50
0 16 26 11 42 -7z m493 -60 c64 -43 66 -49 60 -133 -6 -78 -30 -131 -65 -150
-30 -16 -40 -12 -55 24 -8 18 -35 52 -60 74 -50 44 -55 60 -24 88 12 10 32 43
45 72 27 61 41 64 99 25z m-365 -70 c37 -26 59 -53 81 -101 19 -41 20 -45 4
-92 -15 -44 -48 -80 -75 -80 -5 0 -10 17 -10 38 0 46 -36 105 -91 147 -44 35
-47 41 -19 50 11 4 28 17 36 31 19 28 40 30 74 7z m-1043 -35 c18 -18 33 -40
33 -50 0 -10 7 -18 15 -18 20 0 55 -72 55 -115 0 -55 -19 -118 -45 -151 -19
-23 -24 -25 -25 -11 0 10 -11 39 -25 66 -18 37 -37 56 -77 79 -29 17 -62 37
-73 45 -20 15 -20 16 11 49 37 39 64 88 64 118 0 30 29 25 67 -12z m187 -34
c25 -21 63 -64 84 -98 35 -59 37 -65 37 -151 0 -73 -4 -97 -21 -125 -28 -49
-48 -45 -54 10 -7 55 -49 131 -84 150 -21 11 -26 21 -26 54 0 23 -9 65 -20 95
-18 51 -18 55 -2 77 23 31 31 30 86 -12z m763 -42 c39 -38 73 -96 73 -126 0
-9 -18 -34 -41 -57 -36 -36 -45 -40 -73 -35 -17 4 -33 12 -35 19 -2 6 -19 26
-38 44 l-33 32 29 22 c26 19 55 87 50 116 -6 36 22 29 68 -15z m322 -7 c48
-52 61 -81 61 -134 0 -66 -15 -75 -118 -76 -87 0 -91 1 -106 26 -14 24 -14 28
4 44 30 27 53 98 46 139 -6 30 -4 35 16 39 48 9 57 6 97 -38z m251 34 c0 -7
11 -8 30 -4 22 5 38 1 62 -17 39 -27 89 -80 83 -86 -2 -3 7 -13 20 -24 14 -10
29 -37 35 -59 14 -51 -6 -90 -68 -133 -54 -38 -88 -30 -115 29 -23 49 -60 89
-110 122 l-38 24 25 29 c13 16 32 52 41 80 15 45 35 67 35 39z m381 -43 c15
-27 31 -51 36 -55 21 -14 55 -84 57 -119 1 -20 6 -45 10 -54 11 -24 3 -52 -16
-56 -12 -2 -18 7 -23 39 -9 49 -82 135 -151 175 l-41 24 39 42 c21 23 38 45
38 50 0 23 27 -2 51 -46z m-2200 -34 c49 -32 97 -89 108 -130 18 -65 -42 -160
-119 -192 -16 -7 -30 -15 -30 -19 0 -3 15 -16 33 -28 47 -30 91 -123 84 -180
-4 -40 -41 -101 -62 -102 -6 -1 -31 19 -57 43 -27 24 -53 46 -59 48 -8 3 -8
28 0 93 14 111 14 340 1 419 -5 32 -7 63 -4 67 11 18 61 8 105 -19z m191 -81
c86 -56 104 -88 106 -182 2 -99 -62 -166 -175 -184 -36 -6 -42 -4 -48 15 -4
12 -21 37 -37 56 l-31 35 24 16 c56 39 86 79 98 131 12 49 12 55 -13 102 -14
27 -26 52 -26 55 0 15 34 0 102 -44z m1916 25 c47 -24 109 -83 132 -126 38
-70 -60 -270 -132 -270 -9 0 -22 -8 -29 -17 -13 -15 -11 -16 10 -10 13 3 32 2
43 -4 22 -12 58 -80 58 -109 0 -46 -50 -107 -119 -146 l-33 -19 -16 25 c-26
40 -86 95 -102 95 -8 0 -19 16 -25 36 -13 46 -47 91 -91 121 -19 13 -34 26
-34 29 0 3 15 13 34 22 27 12 42 31 63 76 15 34 33 61 40 61 20 0 93 -78 109
-116 18 -44 11 -100 -19 -153 -16 -28 -17 -33 -5 -23 10 8 26 33 38 57 32 67
16 125 -57 205 -29 32 -29 36 5 57 15 9 42 30 60 47 37 34 42 73 17 133 -26
62 -20 66 53 29z m-341 -63 c16 -6 83 -93 83 -108 0 -6 -5 -16 -12 -23 -9 -9
-8 -12 4 -12 9 0 20 -4 23 -10 10 -16 -15 -93 -38 -118 -22 -24 -98 -62 -124
-62 -8 0 -11 -4 -8 -10 3 -5 19 -10 34 -10 70 0 193 -144 139 -163 -10 -3 -10
-7 -1 -18 20 -24 -23 -84 -99 -138 -27 -19 -48 -38 -48 -42 0 -4 15 -13 34
-19 77 -25 115 -126 70 -187 -20 -28 -131 -94 -189 -112 -16 -6 -61 -21 -99
-35 -38 -14 -101 -32 -140 -41 -73 -17 -338 -55 -345 -49 -2 1 7 17 20 35 36
51 32 111 -13 186 -37 64 -38 73 -5 73 11 0 37 18 59 40 23 22 50 40 62 40 12
0 41 -16 64 -36 41 -35 54 -63 30 -65 -7 -1 -2 -4 12 -8 29 -8 36 -32 20 -71
-9 -21 -25 -33 -68 -49 -32 -11 -68 -22 -82 -24 -18 -3 -15 -5 11 -6 79 -3
169 50 169 100 0 27 44 25 69 -3 46 -49 39 -98 -16 -121 -36 -15 -37 -16 -10
-16 31 -1 77 38 77 64 0 42 -49 101 -88 107 -35 5 -29 22 11 29 20 3 43 12 52
19 30 25 47 82 42 142 -4 49 -10 62 -36 84 -17 14 -31 30 -31 34 0 5 14 17 31
27 45 26 72 85 63 136 -3 23 -11 49 -17 59 -6 9 -9 19 -6 22 9 9 83 -15 103
-32 29 -27 55 -86 62 -144 5 -46 2 -58 -18 -88 -24 -34 -26 -35 -82 -32 -62 4
-70 -11 -14 -22 46 -9 103 -49 138 -98 25 -34 30 -51 30 -97 0 -36 -6 -65 -16
-79 -18 -26 -16 -35 6 -22 10 6 16 33 18 88 4 89 -5 114 -65 167 l-33 30 27
39 c38 53 38 142 -1 217 -28 53 -24 79 13 79 17 0 22 20 23 107 1 41 -6 67
-30 113 -17 33 -26 60 -21 60 6 0 20 21 31 48 11 26 26 50 31 54 6 4 27 0 46
-9 20 -8 41 -17 48 -20z m-662 7 c21 -13 36 -33 44 -60 33 -112 -2 -208 -73
-195 -24 4 -27 3 -16 -10 7 -8 24 -21 38 -28 47 -23 66 -61 65 -127 -3 -79
-35 -125 -96 -134 -29 -4 -31 -15 -4 -25 40 -15 74 -69 75 -121 3 -86 -41
-141 -126 -159 -76 -16 -78 -15 -96 32 -9 24 -28 54 -41 67 -26 25 -25 40 4
40 47 0 110 89 111 156 0 51 -37 158 -65 184 -14 13 -25 26 -25 29 0 4 16 15
35 25 19 10 51 43 72 73 51 74 57 160 18 256 -10 24 38 23 80 -3z m-413 -27
c60 -48 118 -107 118 -119 0 -7 6 -14 13 -16 8 -3 12 -28 12 -79 0 -68 -2 -74
-21 -77 -15 -2 -20 -9 -17 -20 3 -12 -9 -24 -42 -42 -61 -33 -39 -38 25 -6 66
33 82 33 123 -3 36 -32 67 -112 67 -175 0 -72 -55 -136 -116 -136 -32 0 -34 2
-34 36 0 49 -52 155 -96 193 -19 17 -32 36 -28 42 4 6 2 14 -3 18 -5 3 -17 28
-28 56 -10 29 -34 64 -56 83 l-37 33 24 44 c14 24 27 67 30 97 11 110 14 113
66 71z m-239 -23 c34 -27 66 -123 50 -149 -6 -9 -7 -24 -3 -32 10 -18 -18 -89
-36 -89 -7 0 -19 19 -26 42 -7 24 -31 61 -54 85 -39 41 -40 44 -23 59 10 9 26
36 35 60 9 24 20 44 24 44 4 0 19 -9 33 -20z m942 -7 c5 -13 13 -23 17 -23 14
0 38 -59 38 -91 0 -23 -9 -40 -36 -65 -19 -19 -39 -34 -44 -34 -5 0 -17 14
-26 32 -23 45 -85 104 -128 122 -45 19 -46 36 -2 36 19 0 47 10 67 24 44 32
100 31 114 -1z m181 -30 c8 -3 26 -30 41 -61 36 -74 38 -150 4 -185 -22 -24
-28 -25 -94 -20 -59 5 -74 10 -94 32 -12 14 -23 30 -23 34 0 5 14 26 31 47 28
34 31 45 26 82 -3 24 -9 54 -13 67 -7 24 -7 24 51 16 32 -4 64 -9 71 -12z
m-343 -59 c39 -26 97 -98 97 -119 0 -7 -12 -16 -27 -21 l-28 -7 30 -6 c65 -14
2 -94 -70 -89 -34 3 -42 8 -57 37 -9 18 -27 44 -40 58 l-23 24 22 17 c26 20
43 61 43 103 0 36 5 36 53 3z m1056 -28 c15 -18 3 -142 -15 -156 -9 -8 -10
-20 -4 -42 11 -38 -6 -127 -26 -135 -8 -3 -31 -31 -51 -62 -36 -56 -111 -141
-124 -141 -4 0 -12 14 -18 30 -8 23 -7 30 3 30 25 0 103 60 129 100 38 59 34
97 -18 174 l-19 29 27 23 c30 26 58 72 76 127 14 40 22 45 40 23z m-1922 -28
c58 -64 70 -137 34 -212 -25 -50 -63 -83 -108 -92 -26 -5 -30 -1 -47 41 -10
26 -33 57 -52 72 -41 31 -42 40 -6 48 58 12 132 95 132 147 0 25 22 23 47 -4z
m224 -85 c66 -56 89 -165 48 -232 -28 -47 -59 -70 -91 -71 -27 0 -28 2 -28 49
0 36 -9 67 -35 117 -41 82 -42 90 -12 98 12 3 31 19 42 36 25 37 35 37 76 3z
m807 -28 c31 -22 70 -93 77 -140 8 -49 -22 -101 -74 -127 -42 -21 -58 -15 -59
23 -1 35 -42 93 -84 119 l-29 17 31 7 c39 7 100 66 100 95 0 25 8 26 38 6z
m-1212 -109 c34 -34 42 -51 48 -94 9 -66 0 -116 -25 -138 -17 -15 -21 -15 -36
-2 -10 8 -46 32 -80 52 l-62 37 34 45 c30 39 35 53 35 100 0 53 1 55 23 49 12
-4 40 -25 63 -49z m277 7 c3 -10 13 -37 21 -61 13 -34 14 -47 4 -65 -6 -12
-11 -34 -9 -49 2 -26 -22 -58 -61 -79 -14 -8 -20 -3 -33 27 -8 20 -15 40 -15
44 0 5 -14 20 -31 33 -31 24 -33 47 -4 47 16 0 95 88 95 106 0 20 27 17 33 -3z
m794 -45 c18 -13 40 -37 49 -53 20 -38 16 -81 -8 -77 -20 3 -25 -14 -7 -20 21
-7 -10 -49 -48 -65 -52 -21 -75 -11 -96 41 -10 24 -25 47 -33 50 -23 9 -16 23
21 46 24 15 38 34 46 61 14 45 29 49 76 17z m-525 -51 c43 -43 72 -124 63
-174 -8 -49 -29 -76 -85 -107 -25 -14 -40 -26 -33 -26 26 0 70 23 100 53 l33
31 27 -20 c45 -33 75 -101 69 -154 -8 -57 -35 -87 -65 -71 -35 19 -25 -6 20
-49 39 -37 41 -42 37 -85 -7 -56 7 -60 15 -4 4 27 0 49 -11 68 -14 26 -14 31
6 72 12 25 22 57 22 72 0 25 3 27 28 21 35 -8 95 -72 109 -119 9 -28 8 -46 -3
-83 -20 -65 -60 -89 -172 -102 -121 -14 -122 -13 -167 25 l-40 34 31 29 c37
34 59 92 50 135 -9 44 -47 99 -85 120 -46 27 -40 -1 8 -35 45 -30 66 -82 57
-133 -7 -34 -63 -105 -83 -105 -17 0 -144 102 -140 113 1 5 23 17 47 26 32 12
47 24 54 43 12 35 -5 75 -39 88 -22 8 -24 13 -17 42 9 41 9 125 0 158 -6 21
-1 29 34 55 23 17 51 49 62 72 12 23 24 42 28 43 4 0 22 -15 40 -33z m-415
-66 c45 -41 65 -120 40 -155 -13 -17 -15 -17 -58 4 -77 39 -80 43 -53 97 13
25 24 55 24 65 0 25 10 23 47 -11z m1637 8 c37 -29 86 -117 86 -156 0 -26 -11
-41 -62 -87 -34 -31 -75 -63 -90 -70 -27 -14 -28 -14 -22 9 8 32 -40 123 -77
143 -16 9 -29 20 -29 23 0 3 20 19 44 36 24 17 56 52 71 77 30 52 41 55 79 25z
m-1414 -91 c22 -49 25 -82 9 -127 -13 -38 -25 -38 -100 -5 -74 33 -80 61 -21
98 21 13 46 36 55 50 24 36 35 33 57 -16z m865 7 c43 -44 51 -73 36 -140 -10
-45 -17 -56 -46 -69 -51 -24 -71 -20 -118 28 -24 24 -61 50 -81 57 -30 11 -36
17 -33 39 3 20 11 26 38 31 48 8 93 33 113 63 23 35 49 33 91 -9z m-1601 -238
c54 -31 84 -72 70 -95 -17 -27 -61 -44 -127 -47 -34 -2 -81 -7 -104 -10 -36
-6 -45 -4 -67 19 -33 32 -33 42 4 61 16 9 45 32 62 52 70 78 65 75 96 58 15
-8 45 -25 66 -38z m-434 -87 c11 -6 53 -44 94 -85 89 -89 125 -102 43 -16 -64
67 -72 91 -29 91 21 0 39 -11 66 -40 20 -22 42 -40 48 -40 7 0 25 -12 40 -27
15 -15 28 -21 28 -15 0 7 -4 12 -10 12 -5 0 -10 7 -10 15 0 8 9 15 19 15 11 0
23 5 26 10 4 6 36 9 75 8 58 -3 73 0 100 20 25 19 34 21 46 12 16 -14 19 -95
4 -105 -19 -12 -10 -46 18 -70 16 -13 33 -40 39 -59 10 -34 9 -39 -23 -77 -19
-23 -34 -48 -34 -56 0 -8 29 -44 64 -78 81 -81 115 -157 99 -218 -10 -38 -9
-44 18 -83 16 -23 47 -56 69 -74 125 -99 -87 6 -331 164 -30 19 -97 75 -150
123 -113 103 -193 216 -226 318 -13 39 -35 93 -48 120 -14 28 -33 68 -42 90
-9 22 -19 43 -21 48 -5 10 6 9 28 -3z"/>
<path d="M3232 3297 c-50 -14 -82 -42 -108 -94 -15 -31 -19 -61 -19 -153 0
-106 2 -119 27 -167 33 -63 50 -73 119 -73 46 0 55 4 84 34 42 45 80 161 79
241 -1 87 -28 168 -65 199 -33 28 -51 30 -117 13z m121 -56 c35 -42 51 -134
37 -212 -17 -91 -52 -164 -89 -183 -51 -27 -76 -19 -47 13 20 23 35 136 24
183 -16 72 -64 127 -110 128 -37 0 -36 20 3 65 29 33 34 35 94 35 57 0 65 -3
88 -29z"/>
<path d="M1848 3431 c-41 -26 -47 -35 -53 -74 -9 -57 12 -98 67 -134 32 -21
52 -27 87 -26 40 1 51 7 83 43 49 55 60 115 29 159 -34 47 -60 61 -116 61 -39
0 -62 -7 -97 -29z m181 -25 c30 -31 33 -39 28 -75 -8 -64 -62 -120 -115 -121
-39 0 -90 30 -113 66 -34 56 -9 135 51 157 8 3 38 6 66 6 44 1 54 -3 83 -33z"/>
<path d="M880 2007 c0 -46 42 -144 79 -184 11 -11 41 -29 68 -39 68 -25 150
-82 172 -118 27 -44 61 -149 61 -190 0 -19 -9 -56 -21 -83 -12 -26 -24 -70
-28 -98 -6 -49 -7 -50 -41 -53 -58 -4 -154 -25 -175 -38 -66 -41 -230 -59
-319 -34 -60 17 -123 74 -132 118 -9 42 -22 40 -30 -4 -13 -72 33 -158 138
-253 85 -78 189 -114 325 -115 57 -1 102 -4 100 -8 -7 -23 -118 -124 -152
-139 -49 -23 -133 -25 -162 -4 -39 28 -34 -3 6 -34 67 -54 126 -74 191 -68 60
7 134 34 181 67 15 11 44 27 64 35 35 15 36 15 45 -10 5 -14 21 -30 34 -35 37
-14 40 -28 12 -61 -27 -32 -33 -63 -16 -89 17 -27 331 -13 564 25 39 7 98 -10
143 -40 36 -25 83 -33 83 -15 0 6 -10 10 -23 10 -33 0 -87 53 -87 86 0 45 36
72 137 104 51 17 99 30 106 30 8 0 24 12 36 26 22 25 23 25 43 7 17 -15 44
-19 184 -24 181 -6 204 -14 204 -70 0 -20 6 -30 23 -35 29 -8 57 -33 57 -50 0
-8 -12 -17 -27 -20 -16 -4 -40 -17 -54 -28 -14 -12 -45 -28 -70 -35 -74 -22
-76 -24 -57 -28 10 -2 64 12 120 32 77 28 129 39 203 46 162 14 214 24 230 45
27 36 18 57 -32 83 -27 12 -55 27 -63 31 -8 4 -14 16 -13 26 2 11 0 31 -3 45
-5 25 -11 28 -80 38 -97 14 -322 14 -380 0 -25 -7 -53 -22 -63 -35 -17 -22
-23 -23 -86 -17 -37 3 -73 12 -81 21 -9 9 -25 12 -43 9 -25 -5 -31 -1 -59 47
-18 28 -32 62 -32 74 0 29 -35 50 -111 66 -76 15 -83 29 -39 79 29 33 82 60
221 111 67 24 102 65 142 164 19 48 33 90 30 95 -2 4 -17 -6 -33 -21 -16 -17
-57 -38 -96 -51 -59 -19 -87 -22 -208 -20 -148 2 -205 -5 -246 -29 -16 -9 -13
-5 9 14 129 110 172 174 192 282 13 66 8 113 -18 201 -22 72 -42 91 -41 39 1
-61 -25 -110 -97 -184 -57 -58 -81 -75 -125 -89 -88 -28 -131 -54 -192 -116
l-56 -58 -11 64 c-19 108 -48 189 -78 216 -30 28 -131 69 -166 68 -12 0 13
-13 56 -28 87 -32 114 -51 134 -99 15 -36 43 -180 43 -226 0 -16 5 -59 11 -95
10 -57 17 -71 51 -104 22 -20 44 -34 50 -31 7 4 -2 19 -24 38 -84 75 -74 172
26 264 46 42 63 52 167 93 66 25 185 134 195 177 7 30 22 52 35 52 16 0 31
-86 26 -150 -10 -116 -67 -212 -165 -277 -29 -19 -61 -46 -71 -59 -22 -28 -46
-152 -36 -184 11 -34 26 -23 19 14 -7 41 32 133 65 153 40 25 108 34 261 36
141 3 161 5 218 29 70 29 73 26 41 -48 -32 -71 -70 -99 -208 -148 -88 -32
-146 -74 -162 -120 -11 -31 -17 -35 -85 -51 -41 -9 -85 -14 -99 -11 -35 9
-171 -13 -332 -54 -25 -6 -33 -5 -33 6 0 23 -74 54 -131 54 -37 0 -69 -8 -113
-30 -33 -16 -87 -39 -119 -49 -54 -19 -62 -19 -150 -5 -109 17 -194 55 -259
117 -50 49 -102 121 -110 155 -7 26 4 29 23 6 17 -21 74 -49 129 -64 69 -19
167 -14 230 11 90 35 210 69 244 69 34 0 106 -31 175 -74 24 -15 45 -25 47
-23 4 4 -61 50 -128 91 -24 14 -28 23 -28 59 0 23 12 69 25 102 30 72 32 132
6 183 -10 20 -21 49 -25 65 -12 50 -73 105 -172 153 -82 41 -97 52 -119 91
-35 63 -31 71 14 30 39 -35 175 -107 202 -107 8 0 -13 14 -46 31 -153 78 -159
83 -200 167 -15 28 -28 52 -31 52 -2 0 -4 -20 -4 -43z m1066 -1019 c-5 -31 -5
-32 9 -14 8 11 15 23 15 28 0 19 125 0 156 -24 7 -5 20 -32 29 -61 9 -28 26
-64 37 -79 23 -34 19 -43 -24 -52 -63 -12 -164 -56 -196 -85 -22 -21 -32 -39
-32 -60 l0 -30 -102 -4 c-57 -2 -152 -11 -213 -19 -60 -8 -144 -13 -185 -12
-162 4 -150 1 -150 29 0 15 11 36 25 49 32 30 33 64 1 76 -30 11 -42 30 -27
40 8 4 10 17 6 33 -6 22 0 32 37 66 23 23 58 48 76 57 36 17 217 59 299 68 49
6 52 5 66 -23 13 -26 13 -32 0 -50 -8 -12 -23 -21 -33 -21 -10 0 -22 -4 -25
-10 -8 -12 2 -12 90 5 46 9 59 13 37 14 -32 1 -33 2 -30 38 3 36 5 38 58 54
81 25 84 24 76 -13z m-581 -2 c19 -8 35 -21 34 -28 0 -7 -23 -30 -50 -51 -28
-21 -59 -53 -70 -71 -13 -22 -32 -37 -58 -45 -22 -6 -69 -29 -106 -50 -37 -22
-89 -45 -116 -51 -54 -13 -126 -7 -154 14 -17 12 -13 15 35 31 68 23 131 65
177 121 94 112 222 166 308 130z m1594 -151 c3 -4 5 -26 4 -50 -1 -42 0 -44
35 -56 47 -15 92 -46 92 -63 0 -35 -34 -45 -191 -53 -111 -6 -116 -5 -121 15
-3 11 -24 33 -46 49 -23 16 -42 39 -45 53 -11 51 -28 62 -108 67 -41 2 -80 7
-88 9 -27 9 22 32 84 41 61 8 373 -1 384 -12z"/>
</g>
</svg>
