<?xml version="1.0" standalone="no"?>
<!DOCTYPE svg PUBLIC "-//W3C//DTD SVG 20010904//EN"
 "http://www.w3.org/TR/2001/REC-SVG-20010904/DTD/svg10.dtd">
<svg version="1.0" xmlns="http://www.w3.org/2000/svg"
 width="650.000000pt" height="453.000000pt" viewBox="0 0 650.000000 453.000000"
 preserveAspectRatio="xMidYMid meet">
<metadata>
Created by potrace 1.16, written by Peter Selinger 2001-2019
</metadata>
<g transform="translate(0.000000,453.000000) scale(0.100000,-0.100000)"
fill="#000000" stroke="none">
<path d="M3090 3978 c0 -277 -3 -567 -7 -644 l-6 -142 -40 6 c-37 5 -43 2 -68
-27 l-26 -32 -52 16 c-64 22 -99 14 -114 -25 -9 -23 -18 -30 -39 -30 -44 0
-68 -32 -68 -88 0 -48 -1 -49 -38 -60 -35 -11 -64 -34 -185 -145 l-39 -35
-131 132 c-73 72 -164 157 -204 189 -91 73 -202 147 -223 147 -27 0 -166 -156
-265 -298 -27 -39 -55 -73 -61 -76 -6 -2 -37 11 -69 30 -78 47 -236 114 -269
114 -49 0 -128 -123 -291 -455 -147 -299 -215 -497 -236 -687 -14 -128 -8
-158 51 -259 15 -25 38 -65 52 -90 14 -24 57 -99 97 -166 39 -67 71 -125 71
-130 0 -4 -25 -32 -55 -62 -30 -30 -55 -62 -55 -72 0 -9 17 -31 37 -47 l38
-30 -40 -7 c-114 -19 -190 -60 -245 -133 -32 -42 -35 -52 -38 -126 -3 -72 -1
-84 19 -110 25 -31 74 -56 113 -56 14 0 76 24 138 54 62 29 169 79 238 111
233 107 290 137 301 157 18 33 -23 141 -107 282 l-77 129 -51 -7 c-28 -3 -62
-8 -76 -11 -23 -5 -28 1 -67 83 -24 49 -63 151 -89 228 -42 128 -46 144 -40
206 12 135 138 420 304 688 78 127 89 140 110 133 54 -17 72 -27 72 -41 0 -9
-19 -70 -41 -135 l-41 -120 32 -106 c17 -58 52 -156 76 -218 24 -62 44 -117
44 -122 0 -5 -22 -23 -50 -41 -55 -35 -61 -54 -29 -94 l20 -26 -38 0 c-99 -1
-196 -50 -227 -114 -9 -19 -16 -59 -16 -89 0 -48 4 -58 26 -76 41 -32 83 -35
164 -11 39 12 74 19 77 16 3 -3 -2 -44 -12 -92 -26 -131 -21 -149 100 -361 58
-101 105 -188 105 -192 0 -5 -18 -24 -40 -42 -47 -39 -51 -69 -15 -97 32 -26
32 -32 -5 -32 -70 0 -168 -59 -201 -122 -23 -45 -26 -134 -4 -165 20 -28 77
-46 116 -38 32 7 409 188 467 224 52 34 40 93 -55 250 l-57 93 -40 -5 c-23 -3
-49 -8 -58 -12 -22 -9 -57 58 -110 215 -50 146 -53 211 -14 325 39 112 46 120
120 145 88 29 92 36 77 118 -7 37 -15 74 -17 82 -2 9 17 50 42 93 38 64 50 77
71 77 32 0 382 -170 404 -196 9 -10 19 -39 22 -64 4 -33 14 -52 37 -72 16 -16
38 -28 48 -28 10 0 26 -16 37 -36 23 -43 79 -74 133 -74 30 0 45 -7 67 -30 18
-19 43 -33 67 -36 21 -4 38 -9 38 -13 0 -3 -34 -26 -76 -50 -98 -56 -126 -99
-163 -249 -27 -108 -42 -231 -44 -355 -2 -103 -1 -106 26 -134 15 -16 59 -44
97 -63 69 -33 70 -35 64 -66 -6 -32 -6 -32 49 -44 30 -6 61 -16 70 -23 8 -7
25 -44 36 -83 28 -95 51 -124 101 -124 48 0 63 19 63 76 0 41 2 45 21 39 93
-27 136 -10 136 54 0 28 -7 45 -25 62 -29 28 -31 39 -8 39 27 0 73 51 73 80 0
47 -32 65 -116 64 l-73 0 24 32 c37 48 41 84 15 117 -15 19 -30 27 -53 27 -43
-1 -61 -16 -92 -79 -15 -29 -33 -55 -41 -58 -9 -3 -27 6 -43 21 -33 31 -47 33
-56 5 -6 -17 -12 -20 -38 -15 -52 10 -57 21 -57 112 0 168 42 369 87 416 15
15 87 58 161 94 131 65 135 66 190 59 63 -7 282 -8 379 -1 65 5 120 27 130 51
4 12 10 11 34 -6 16 -11 75 -43 131 -71 146 -71 216 -116 232 -146 23 -47 55
-202 67 -330 9 -106 9 -126 -5 -146 -22 -34 -67 -43 -85 -17 -18 28 -35 26
-55 -5 -26 -39 -53 -28 -88 36 -42 77 -46 80 -88 80 -30 0 -43 -6 -60 -27 -25
-32 -21 -59 16 -116 l24 -37 -52 6 c-102 12 -164 -40 -123 -102 9 -15 30 -31
46 -37 35 -14 36 -17 4 -47 -35 -33 -35 -93 0 -116 25 -16 76 -16 117 1 14 6
17 0 16 -33 -1 -59 16 -82 59 -82 53 0 79 30 108 125 27 87 32 91 124 110 30
6 33 10 27 36 -5 27 -1 30 65 65 39 21 84 50 101 66 l31 29 -6 128 c-8 143
-27 271 -59 376 -38 129 -63 162 -167 217 -28 16 -51 32 -51 37 0 5 11 16 25
25 19 12 30 14 51 5 38 -14 77 4 95 44 12 28 20 33 59 37 47 5 62 22 75 82 3
17 17 33 34 43 24 12 31 25 43 76 l13 62 95 53 c102 58 358 174 383 174 22 0
47 -39 47 -71 0 -15 -12 -53 -26 -85 -18 -40 -28 -84 -31 -136 l-6 -78 34 -14
c29 -12 73 -22 216 -52 38 -7 85 -135 85 -228 -1 -58 -43 -196 -98 -316 -33
-72 -39 -80 -58 -73 -12 4 -39 8 -61 8 -37 0 -41 -3 -65 -46 -14 -25 -37 -62
-52 -81 -14 -19 -37 -65 -50 -101 -25 -73 -22 -92 23 -114 135 -69 445 -213
469 -218 38 -8 96 10 115 38 24 35 20 138 -7 173 -49 62 -112 101 -183 111
-51 7 -55 14 -20 37 35 23 31 44 -17 93 l-42 43 34 63 c185 336 191 350 186
397 -3 25 -9 71 -12 103 l-7 57 55 0 c41 0 62 5 82 21 42 33 49 63 31 126 -27
92 -102 142 -212 143 -56 0 -63 2 -63 20 0 11 5 20 10 20 26 0 5 39 -42 81
l-52 46 22 79 c12 43 36 129 53 189 39 137 41 183 10 258 -13 32 -21 60 -18
63 7 7 81 -71 193 -202 141 -165 227 -296 269 -406 15 -42 16 -60 5 -190 -6
-78 -23 -193 -37 -255 l-26 -112 -76 -3 -75 -3 -53 -145 c-47 -127 -53 -154
-53 -221 0 -88 -3 -85 128 -118 173 -45 559 -131 582 -131 47 1 109 37 127 74
14 31 15 43 4 106 -16 89 -40 119 -135 166 -60 29 -88 37 -154 41 l-81 6 24
29 c14 16 25 36 25 44 0 21 -33 50 -90 79 -27 14 -50 28 -50 30 0 3 29 94 66
203 81 244 107 345 101 386 -8 53 -81 238 -129 327 -121 220 -505 702 -614
770 -38 23 -57 18 -144 -41 -32 -22 -63 -40 -67 -40 -5 0 -34 30 -65 68 -81
97 -242 252 -262 252 -33 0 -139 -83 -270 -213 -73 -73 -151 -154 -174 -181
l-40 -49 -79 63 c-43 35 -109 77 -146 93 -63 28 -71 35 -113 104 -56 88 -81
107 -192 144 -97 33 -138 36 -163 13 -17 -15 -22 -15 -68 5 -27 11 -64 21 -82
21 l-32 0 6 620 c3 341 2 620 -2 620 -4 0 -11 -282 -15 -626 -4 -344 -11 -637
-16 -650 -5 -13 -15 -24 -21 -24 -8 0 -9 172 -4 650 6 485 5 650 -4 650 -8 0
-11 -133 -11 -502z m-1145 -832 c93 -64 161 -120 264 -219 69 -68 171 -182
171 -193 0 -17 -33 -64 -45 -64 -9 0 -48 26 -88 58 -82 65 -113 87 -250 180
-85 57 -104 66 -145 66 -45 1 -47 0 -50 -29 -2 -21 -23 -52 -66 -100 l-62 -69
-50 30 c-27 17 -50 37 -52 46 -6 29 247 348 276 348 10 0 53 -24 97 -54z
m1325 34 c21 -11 64 -45 94 -75 30 -30 61 -55 70 -55 23 0 20 8 -19 51 -31 35
-45 76 -29 91 8 9 120 -20 163 -42 46 -23 141 -137 141 -168 0 -5 -28 -12 -62
-16 -35 -4 -86 -18 -114 -31 -49 -24 -102 -70 -92 -80 2 -3 37 12 76 32 64 32
83 37 160 41 71 3 97 0 144 -17 108 -41 202 -121 276 -234 67 -104 90 -173
123 -366 26 -148 30 -194 26 -291 -5 -125 -20 -190 -42 -190 -21 0 -19 -10 16
-65 27 -43 30 -54 23 -85 -8 -32 -12 -35 -42 -32 l-32 3 0 -54 c0 -41 -5 -58
-20 -72 -18 -17 -21 -17 -46 -1 -14 10 -27 16 -29 14 -2 -2 -14 -25 -27 -53
-28 -60 -53 -69 -84 -29 l-23 28 -20 -36 c-33 -55 -121 -73 -206 -43 -34 12
-41 12 -55 0 -23 -21 -50 -19 -75 5 l-22 21 -53 -36 c-56 -38 -81 -43 -99 -21
-10 12 -19 10 -57 -11 -48 -27 -99 -26 -128 2 -18 19 -30 19 -45 1 -22 -26
-61 -28 -108 -5 -37 18 -49 20 -69 10 -37 -16 -54 -14 -91 15 -30 23 -38 24
-65 15 -45 -16 -54 -14 -93 20 -33 29 -37 30 -54 15 -30 -27 -57 -19 -99 31
-38 44 -41 45 -58 29 -12 -12 -25 -15 -43 -11 -35 9 -81 54 -81 79 0 31 -14
48 -33 40 -34 -13 -66 5 -76 41 -10 38 -4 102 10 111 14 8 10 34 -5 34 -21 0
-32 43 -57 219 -22 155 -22 163 -6 260 23 143 59 240 130 360 102 171 184 247
323 297 106 39 235 28 316 -26 23 -16 44 -27 46 -25 2 2 -6 18 -18 36 -36 49
-99 72 -209 75 -96 3 -111 9 -111 46 0 30 34 40 82 24 23 -9 44 -13 46 -11 2
2 -4 17 -13 34 -20 40 -13 51 33 51 41 0 94 -28 131 -69 l23 -26 -6 62 c-7 72
3 79 69 55 49 -18 74 -39 87 -72 9 -23 10 -23 19 -7 7 12 7 28 0 49 -6 17 -11
42 -11 54 0 20 5 24 30 24 17 0 48 -9 70 -20z m1394 -122 c75 -78 136 -150
136 -159 0 -24 -85 -93 -102 -83 -7 4 -41 35 -75 67 -47 46 -60 64 -52 73 8
10 5 15 -15 20 -14 3 -36 4 -49 0 -26 -6 -199 -134 -296 -220 -36 -31 -71 -56
-79 -56 -7 0 -22 10 -33 23 -42 49 -42 50 25 128 135 158 347 349 388 349 9 0
77 -64 152 -142z m481 -210 c129 -136 218 -247 358 -451 174 -253 255 -431
243 -537 -7 -60 -140 -478 -161 -507 -26 -36 -29 0 -7 105 12 59 29 170 37
248 13 124 13 147 0 198 -36 139 -186 356 -407 591 -131 139 -142 154 -124
161 29 11 5 24 -45 24 -72 0 -86 -8 -327 -193 -150 -114 -295 -241 -375 -326
-27 -28 -53 -51 -57 -51 -5 0 -10 26 -13 58 -5 67 6 86 138 248 203 250 573
572 625 544 9 -5 61 -56 115 -112z m-3820 63 c133 -62 273 -144 404 -236 122
-86 411 -320 443 -359 19 -23 24 -91 8 -101 -6 -4 -81 41 -168 98 -163 110
-330 199 -565 305 -139 62 -189 73 -254 56 -26 -7 -31 -24 -8 -24 8 0 15 -4
15 -9 0 -10 -39 -80 -128 -227 -69 -116 -135 -251 -186 -382 -72 -183 -75
-263 -16 -443 23 -68 61 -168 86 -222 41 -90 47 -117 24 -117 -5 0 -43 62 -86
138 -42 75 -85 148 -94 162 -10 14 -36 61 -59 105 -37 71 -41 88 -41 150 0
158 42 291 212 680 69 157 204 399 256 458 21 24 50 18 157 -32z m670 -44
c172 -113 315 -226 315 -248 0 -5 -13 -36 -29 -67 -16 -32 -37 -85 -46 -118
-10 -32 -21 -63 -25 -68 -10 -10 -23 0 -275 205 -99 80 -190 151 -202 158 -30
15 -29 29 5 67 15 18 49 57 75 88 27 31 54 56 60 56 7 0 62 -33 122 -73z
m2601 1 c41 -39 74 -79 74 -88 0 -10 -15 -30 -32 -46 -69 -61 -221 -229 -299
-330 -45 -58 -85 -102 -90 -97 -4 4 -15 51 -24 103 -10 60 -27 118 -47 157
-20 41 -28 70 -24 85 6 25 329 288 354 288 8 0 47 -32 88 -72z m454 -330 c66
-139 69 -159 36 -285 -15 -59 -37 -139 -48 -177 -19 -64 -22 -68 -35 -50 -9
12 -12 33 -9 59 3 22 9 91 12 152 8 126 0 160 -63 263 -18 30 -33 60 -33 67 0
14 60 53 83 53 13 0 29 -24 57 -82z m-3582 22 c17 -11 32 -24 32 -29 0 -5 -17
-42 -37 -82 -24 -48 -38 -91 -41 -127 -6 -67 13 -198 44 -312 22 -81 23 -100
4 -100 -19 0 -150 370 -150 425 0 29 57 205 75 236 10 15 37 11 73 -11z m3472
-117 l35 -68 -3 -125 c-1 -68 -6 -128 -11 -133 -5 -5 -18 8 -32 30 -45 75 -80
113 -104 113 -66 0 -331 -143 -494 -267 -24 -18 -48 -33 -52 -33 -5 0 -9 14
-9 31 0 27 17 49 108 141 115 118 228 218 386 341 l99 78 21 -20 c12 -11 37
-51 56 -88z m-3242 6 c75 -39 194 -110 264 -158 70 -47 144 -96 164 -107 58
-34 64 -46 71 -122 5 -56 3 -72 -7 -72 -8 0 -79 40 -159 88 -161 97 -245 135
-287 130 -23 -3 -39 -23 -111 -143 -46 -77 -89 -140 -96 -140 -20 0 -54 122
-72 262 l-18 133 23 62 c26 70 65 138 80 138 6 0 72 -32 148 -71z m3180 -290
c40 -59 111 -198 218 -427 75 -160 121 -341 111 -438 -5 -45 -20 -81 -78 -183
-96 -169 -129 -221 -140 -221 -16 0 -10 34 15 80 13 25 42 101 66 170 38 115
41 131 35 193 -6 68 -44 186 -85 267 -12 25 -63 116 -113 203 -63 112 -86 161
-78 166 22 14 -19 35 -67 34 -39 0 -85 -19 -273 -112 -125 -61 -231 -111 -237
-111 -22 0 -19 43 6 93 24 46 41 61 156 139 172 115 378 222 411 214 5 -1 29
-31 53 -67z m-3003 -33 c107 -51 313 -177 327 -199 10 -16 41 -147 36 -152 -2
-3 -56 21 -119 51 -283 139 -306 146 -358 120 -25 -13 -30 -21 -25 -40 4 -16
-9 -46 -46 -107 -125 -202 -220 -435 -220 -536 0 -62 37 -188 94 -321 38 -89
42 -102 26 -102 -14 0 -96 137 -191 320 -63 120 -23 300 145 657 93 196 99
208 140 273 15 25 35 55 42 68 8 12 20 22 27 22 6 0 62 -24 122 -54z m2989
-311 c40 -60 126 -227 121 -235 -6 -9 -185 28 -204 43 -28 23 20 217 54 217 7
0 20 -11 29 -25z m413 -100 c61 -31 82 -60 90 -123 6 -56 -6 -71 -66 -79 -62
-9 -83 11 -120 116 -18 50 -30 95 -26 101 11 18 70 11 122 -15z m-3858 -39 c9
-11 7 -28 -9 -78 -12 -34 -29 -71 -37 -80 -18 -20 -134 -58 -177 -58 -18 0
-42 7 -55 16 -20 15 -23 23 -19 66 10 97 81 147 209 148 54 0 80 -4 88 -14z
m1447 -331 c2 -6 -32 -27 -75 -47 -90 -43 -174 -106 -195 -146 -33 -64 -79
-419 -63 -484 6 -21 43 -47 90 -62 16 -5 16 -8 2 -43 -9 -20 -18 -39 -21 -42
-7 -8 -106 44 -143 74 l-33 28 7 121 c13 240 47 398 103 479 24 36 143 113
195 127 32 9 130 5 133 -5z m1015 -26 c25 -16 49 -29 54 -29 19 0 77 -54 95
-90 45 -89 90 -328 90 -482 0 -104 -11 -122 -105 -167 -36 -17 -68 -31 -69
-31 -6 0 -26 61 -26 76 0 8 8 14 18 14 9 0 32 9 51 21 l34 21 -6 136 c-6 130
-29 269 -60 357 -11 32 -27 49 -83 87 -38 26 -102 62 -141 79 -40 18 -73 37
-73 42 0 5 37 6 88 2 72 -6 95 -12 133 -36z m1626 -29 c49 -12 105 -31 124
-43 33 -20 33 -21 10 -25 -13 -2 -28 1 -34 7 -6 6 -24 11 -40 11 -24 0 -28 -3
-22 -17 17 -42 17 -56 1 -65 -9 -5 -16 -16 -16 -23 0 -18 30 -19 65 -3 36 16
39 6 17 -44 -11 -23 -19 -45 -16 -47 2 -2 35 7 74 19 136 44 303 7 353 -77 24
-42 38 -123 25 -148 -29 -54 -80 -57 -252 -16 -67 16 -202 48 -301 71 -99 24
-186 47 -194 53 -19 16 -6 112 26 196 22 60 47 126 58 159 6 16 19 15 122 -8z
m-4278 -120 c70 -102 103 -179 99 -224 -3 -35 -21 -44 -391 -221 -199 -95
-213 -100 -262 -91 -45 9 -58 35 -59 112 -1 52 3 66 27 98 36 47 88 81 152
101 56 17 164 20 213 6 17 -5 32 -7 32 -4 0 3 -16 25 -35 49 -19 23 -35 45
-35 49 0 8 46 2 72 -10 29 -12 36 24 10 46 -16 12 -22 26 -20 50 4 41 -10 45
-46 14 -30 -25 -56 -33 -56 -16 0 17 63 59 141 95 41 20 79 35 85 36 7 0 39
-41 73 -90z m3697 -310 c33 -16 71 -41 84 -55 28 -30 17 -32 -24 -6 -35 24
-48 19 -40 -15 4 -17 1 -26 -10 -30 -30 -12 -18 -34 19 -34 38 0 42 -5 20 -34
-8 -11 -15 -22 -15 -26 0 -3 37 -5 83 -5 70 0 90 -4 134 -27 69 -37 97 -77 98
-143 0 -30 -6 -59 -14 -68 -24 -30 -83 -21 -184 27 -318 151 -367 177 -367
197 0 51 115 249 144 249 7 0 40 -13 72 -30z m-3150 -76 c49 -77 84 -154 84
-186 0 -26 -13 -34 -217 -134 -183 -90 -226 -107 -268 -108 -45 -1 -51 2 -63
27 -24 49 -7 115 38 158 55 53 124 73 218 65 l76 -6 -27 28 c-34 36 -34 42 2
42 35 0 46 13 26 30 -8 7 -15 25 -15 41 0 35 -3 35 -41 8 -23 -16 -29 -17 -29
-6 0 23 122 93 168 96 7 1 28 -24 48 -55z m1142 -56 c23 -23 12 -57 -33 -108
-53 -60 -59 -86 -17 -76 15 4 61 9 102 13 63 4 78 2 89 -11 12 -14 11 -19 -4
-36 -23 -25 -78 -41 -116 -33 -41 8 -39 -22 4 -43 44 -23 87 -64 87 -86 0 -45
-75 -37 -145 16 -48 37 -59 26 -34 -36 25 -65 22 -112 -8 -116 -28 -4 -49 26
-74 111 -23 78 -44 101 -105 116 -24 6 -44 14 -44 17 0 2 9 22 19 42 10 20 24
56 30 80 11 40 32 55 46 32 3 -5 22 -10 40 -10 28 0 39 6 60 37 14 21 25 42
25 48 0 16 38 55 53 55 7 0 18 -5 25 -12z m803 -58 c36 -63 38 -65 75 -64 22
1 47 3 57 5 15 3 24 -11 48 -76 16 -44 29 -81 29 -82 0 -2 -20 -8 -45 -14 -58
-15 -90 -53 -105 -123 -13 -66 -44 -108 -74 -104 -29 4 -32 43 -7 109 24 62
14 85 -21 51 -57 -53 -148 -70 -156 -30 -5 24 44 74 89 92 56 23 46 41 -25 42
-64 2 -99 24 -94 58 3 19 10 21 73 20 39 0 87 -4 108 -9 50 -10 49 9 -3 70
-49 57 -60 93 -34 112 30 22 46 12 85 -57z"/>
<path d="M3571 2764 c-121 -32 -236 -130 -291 -246 -17 -35 -30 -69 -30 -75 0
-29 -17 -9 -53 62 -70 136 -179 229 -298 255 -92 20 -203 10 -279 -26 -198
-94 -314 -345 -266 -574 74 -353 435 -511 702 -310 53 40 124 138 159 218 10
23 21 42 24 42 4 0 14 -22 24 -49 21 -61 91 -157 145 -199 91 -72 208 -104
330 -90 91 10 163 47 236 121 98 97 142 199 152 347 23 337 -260 604 -555 524z
m201 -39 c199 -52 332 -259 314 -490 -10 -133 -46 -216 -135 -308 -110 -116
-292 -152 -437 -88 -62 28 -164 133 -196 202 -91 194 -71 396 52 543 109 131
251 181 402 141z m-806 -34 c154 -82 244 -239 244 -426 0 -401 -422 -611 -688
-343 -105 105 -157 269 -133 417 21 132 106 276 197 332 78 48 124 59 224 56
85 -2 101 -6 156 -36z"/>
<path d="M3522 2506 c-86 -28 -154 -99 -182 -190 -19 -59 -8 -156 24 -210 114
-194 394 -190 490 7 53 109 39 223 -38 313 -66 77 -194 112 -294 80z"/>
<path d="M2817 2499 c-228 -37 -304 -323 -129 -481 112 -101 289 -89 390 27
55 61 66 93 66 180 1 64 -4 88 -22 122 -63 120 -172 174 -305 152z"/>
<path d="M2989 1769 c-67 -25 -61 -125 12 -190 62 -55 126 -74 244 -73 163 1
248 47 276 149 25 89 -86 145 -211 105 -79 -25 -128 -25 -208 0 -71 22 -76 23
-113 9z m414 -145 c20 -10 37 -24 37 -31 0 -8 -20 -23 -45 -34 -78 -35 -245
-38 -290 -6 -15 12 -13 16 23 41 83 57 193 69 275 30z"/>
</g>
</svg>
