<?xml version="1.0" standalone="no"?>
<!DOCTYPE svg PUBLIC "-//W3C//DTD SVG 20010904//EN"
 "http://www.w3.org/TR/2001/REC-SVG-20010904/DTD/svg10.dtd">
<svg version="1.0" xmlns="http://www.w3.org/2000/svg"
 width="650.000000pt" height="654.000000pt" viewBox="0 0 650.000000 654.000000"
 preserveAspectRatio="xMidYMid meet">
<metadata>
Created by potrace 1.16, written by Peter Selinger 2001-2019
</metadata>
<g transform="translate(0.000000,654.000000) scale(0.100000,-0.100000)"
fill="#000000" stroke="none">
<path d="M3108 5019 c-59 -9 -122 -51 -165 -109 -75 -100 -87 -112 -130 -131
-45 -19 -82 -53 -83 -76 0 -21 -41 -52 -91 -68 -61 -21 -95 -60 -103 -122 -6
-40 -15 -55 -55 -93 -61 -58 -81 -102 -81 -181 0 -50 -6 -76 -31 -127 -26 -53
-32 -77 -32 -131 0 -73 6 -89 56 -149 29 -35 35 -51 41 -110 8 -78 17 -91 83
-117 32 -13 45 -25 57 -55 20 -49 12 -87 -25 -131 -32 -37 -45 -66 -54 -120
-6 -37 -39 -89 -56 -89 -5 0 -14 12 -20 27 -16 42 -138 282 -167 327 -14 23
-54 88 -90 146 -133 217 -223 300 -360 329 -158 33 -639 -13 -912 -89 -94 -26
-106 -28 -115 -13 -5 8 -21 29 -34 45 -23 28 -28 30 -80 25 -67 -6 -195 -35
-346 -78 -81 -23 -116 -38 -132 -57 -56 -66 -75 -261 -35 -360 45 -109 140
-226 204 -253 38 -16 35 -32 -9 -53 -52 -24 -276 -158 -285 -171 -4 -5 -8 -63
-8 -127 0 -158 23 -213 135 -322 90 -88 220 -142 321 -134 30 3 54 3 54 1 0
-3 -19 -29 -42 -59 -30 -37 -48 -52 -58 -48 -62 26 -68 27 -99 14 -17 -7 -55
-40 -84 -74 -28 -33 -60 -70 -70 -81 -10 -11 -50 -61 -88 -112 l-69 -91 0 -86
c0 -77 3 -92 30 -140 56 -99 125 -153 258 -200 86 -31 177 -34 267 -11 70 19
91 35 116 92 19 42 84 277 101 368 14 70 18 75 70 95 48 18 169 96 245 156 23
19 44 34 47 34 2 0 -13 -37 -34 -82 -38 -82 -153 -421 -186 -548 -9 -36 -26
-121 -38 -190 l-22 -124 -30 -2 c-79 -4 -93 -25 -128 -194 -42 -209 -59 -339
-48 -365 16 -34 129 -125 192 -154 47 -21 69 -25 155 -26 123 0 205 21 277 71
114 79 133 110 124 198 -6 62 -77 358 -97 408 -10 24 -7 32 29 75 37 44 139
234 157 293 16 51 116 250 140 278 29 34 65 47 305 112 85 23 193 55 240 71
47 16 91 31 99 32 15 2 32 -34 51 -109 14 -56 60 -100 122 -114 43 -11 53 -18
78 -59 16 -26 42 -58 57 -71 26 -23 35 -25 143 -26 140 0 128 2 170 -35 44
-38 102 -69 131 -69 11 0 55 16 97 36 72 34 79 36 146 29 169 -16 169 -17 233
46 78 77 106 89 198 89 85 0 94 6 141 86 40 71 61 95 97 117 18 10 44 30 59
44 l26 25 64 -25 c34 -14 88 -32 118 -41 30 -8 93 -26 140 -40 47 -14 123 -34
169 -46 158 -40 172 -54 261 -250 113 -251 157 -337 198 -388 l43 -53 -16 -47
c-31 -97 -95 -375 -95 -416 0 -98 124 -199 287 -232 110 -23 208 -14 292 27
76 37 181 134 181 166 0 74 -76 457 -98 496 -18 30 -38 39 -88 39 -30 0 -34 3
-34 26 0 118 -159 677 -241 845 -80 166 -177 241 -357 278 -34 7 -62 16 -62
20 0 8 89 29 123 29 41 0 122 -47 242 -141 171 -134 250 -187 331 -225 71 -32
72 -33 76 -76 6 -52 68 -288 100 -378 21 -60 26 -67 73 -89 79 -39 206 -41
309 -7 140 47 216 108 272 218 53 102 59 170 21 210 -7 7 -23 29 -37 48 -21
31 -116 150 -175 219 -82 96 -111 111 -170 87 -21 -9 -39 -16 -40 -16 -3 0
-115 139 -115 143 0 2 26 1 59 -1 94 -7 215 36 289 101 76 69 109 110 141 174
30 60 33 75 35 162 2 138 0 140 -101 202 -125 75 -294 169 -304 169 -23 0 -4
18 47 44 139 73 254 255 254 404 0 62 -23 159 -50 212 -18 36 -20 37 -177 78
-328 86 -348 88 -394 43 -16 -16 -29 -37 -29 -46 0 -11 -6 -15 -17 -11 -230
68 -319 83 -693 121 -138 14 -180 15 -255 5 -197 -26 -273 -93 -473 -420 -88
-145 -199 -360 -213 -414 -17 -70 -19 -73 -29 -56 -6 8 -10 29 -10 47 0 23 -7
37 -26 50 -43 30 -64 52 -64 69 0 9 23 38 50 64 28 27 60 69 71 94 11 26 38
60 61 78 109 88 127 135 96 251 -10 38 -8 53 12 114 29 90 23 129 -32 189 -35
38 -42 53 -54 121 -15 86 -34 120 -85 145 -22 12 -40 32 -51 58 -17 40 -67 80
-100 80 -9 0 -31 20 -47 44 -17 24 -37 46 -45 49 -8 3 -38 42 -66 85 -113 177
-228 232 -327 156 l-33 -25 -28 21 c-38 28 -86 38 -144 29z m110 -62 c24 -23
42 -74 42 -124 l0 -33 -32 20 c-56 34 -140 23 -184 -24 -68 -72 -72 -179 -12
-243 28 -30 19 -37 -31 -23 -57 15 -101 75 -101 137 0 94 77 249 145 289 60
36 134 36 173 1z m270 -11 c75 -48 123 -126 130 -212 5 -66 -9 -104 -56 -146
-36 -31 -52 -26 -33 11 13 24 14 91 2 123 -13 33 -69 86 -105 98 -19 6 -42 6
-61 1 l-30 -9 38 -1 c84 -2 157 -75 157 -157 0 -38 -40 -108 -64 -112 -16 -3
-14 3 12 39 37 50 42 99 13 143 -42 63 -109 82 -167 47 l-31 -19 -2 55 c-3
134 95 204 197 139z m-618 -279 c0 -40 16 -74 63 -140 24 -34 15 -65 -34 -113
-31 -30 -42 -35 -51 -26 -10 10 -9 19 1 45 24 60 24 74 1 87 -17 9 -26 8 -46
-5 -13 -8 -24 -22 -24 -30 0 -8 -9 -15 -19 -15 -10 0 -29 -9 -42 -20 l-24 -20
24 -20 c15 -13 38 -20 67 -20 24 0 44 -4 44 -10 0 -30 -97 -40 -153 -16 -18 7
-45 28 -61 45 -57 60 -32 135 60 181 72 36 90 51 110 92 31 65 84 55 84 -15z
m834 8 c15 -20 53 -48 84 -64 43 -22 64 -41 85 -76 35 -59 34 -80 -4 -116 -47
-44 -169 -69 -169 -34 0 9 10 15 26 15 38 0 64 18 64 43 0 32 -18 47 -56 47
-23 0 -36 7 -48 25 -21 31 -62 34 -71 4 -5 -14 2 -34 22 -62 15 -23 31 -50 35
-59 13 -32 -35 -20 -75 18 -53 52 -52 100 3 174 22 29 43 68 46 87 8 42 25 42
58 -2z m-349 -159 c14 -10 35 -31 45 -49 52 -85 -7 -157 -128 -157 -73 0 -146
24 -172 57 -43 55 -11 130 67 159 48 18 154 12 188 -10z m181 -57 c18 -44 72
-96 109 -105 14 -3 25 -10 25 -15 0 -5 -22 -31 -50 -58 -27 -27 -50 -57 -50
-68 0 -10 9 -44 20 -76 24 -67 25 -105 6 -151 -21 -51 -44 -53 -134 -6 -114
58 -141 54 -237 -29 -56 -49 -60 -51 -119 -51 -43 0 -70 6 -94 20 -37 23 -38
25 -47 103 -8 68 -39 111 -86 121 -43 8 -59 23 -59 54 0 40 43 166 60 176 8 5
41 34 72 64 72 69 91 67 98 -8 7 -73 25 -96 90 -121 122 -46 214 -35 275 33
36 39 37 43 32 94 -6 54 -5 54 26 62 40 11 44 9 63 -39z m432 -46 c5 -10 12
-39 16 -64 5 -32 20 -64 47 -100 58 -78 59 -88 24 -218 -16 -60 -16 -77 1
-174 7 -44 -3 -59 -83 -118 -41 -31 -55 -48 -63 -81 -14 -49 -61 -97 -99 -100
-14 -1 -35 -2 -46 -3 -11 -1 -37 -3 -57 -4 -32 -1 -48 -11 -105 -66 l-68 -66
-75 6 c-73 6 -77 5 -145 -30 -60 -32 -73 -36 -100 -27 -72 24 -144 60 -175 86
-26 21 -40 26 -62 22 -15 -3 -41 -9 -57 -12 -24 -5 -38 1 -70 26 -34 28 -49
33 -103 35 -82 3 -93 9 -129 62 -21 29 -46 51 -74 63 -52 22 -65 43 -65 107 0
42 -6 55 -51 113 -50 63 -51 66 -46 119 4 31 21 84 41 128 30 63 36 86 36 142
0 68 11 96 53 134 29 25 45 22 106 -20 52 -36 58 -38 137 -38 l81 0 -7 -25
c-4 -15 -15 -41 -25 -59 -28 -56 -7 -106 51 -117 21 -4 45 -19 64 -40 26 -30
30 -43 30 -92 0 -32 6 -65 13 -73 24 -30 121 -58 179 -52 48 4 54 3 67 -19 8
-12 18 -52 22 -88 9 -83 36 -110 109 -110 45 0 54 4 94 43 44 43 66 101 66
178 0 16 6 31 13 33 56 15 74 26 94 55 28 42 29 77 3 161 -26 80 -20 109 31
149 21 18 39 38 39 46 0 10 11 15 35 15 47 0 122 27 170 61 46 33 71 36 83 12z
m778 -278 c-7 -18 2 -18 34 0 14 8 38 14 53 15 25 0 27 -3 22 -22 -6 -18 -4
-20 11 -13 53 22 97 30 101 18 4 -10 20 -11 61 -6 49 5 55 4 49 -10 -7 -20 6
-22 35 -6 26 14 68 3 68 -18 0 -13 3 -14 12 -5 14 14 88 16 88 3 0 -5 -6 -11
-12 -14 -7 -3 15 -2 50 1 54 4 62 3 62 -13 0 -14 5 -16 26 -11 40 10 85 -2 82
-22 -3 -14 5 -16 44 -14 64 5 88 -10 88 -54 0 -52 -23 -87 -77 -116 -66 -36
-94 -68 -100 -117 -6 -47 -27 -58 -89 -48 -28 5 -35 3 -30 -8 7 -20 -44 -29
-91 -16 -24 7 -41 7 -47 1 -14 -14 -54 -12 -98 4 -32 12 -38 12 -38 0 0 -18
-15 -18 -75 0 -26 8 -82 18 -124 21 -172 15 -289 -57 -604 -369 l-158 -157
-49 41 c-44 36 -50 47 -50 78 1 21 7 48 14 61 13 23 14 23 24 5 10 -16 11 -12
12 23 0 24 7 61 16 83 13 32 19 38 30 29 10 -8 15 -5 19 18 12 53 26 93 36 98
5 4 9 1 9 -4 0 -6 5 -11 10 -11 6 0 10 15 10 34 0 51 16 87 37 84 13 -2 19 4
21 22 6 59 23 100 41 100 13 0 20 10 24 30 8 39 35 80 53 80 8 0 14 7 14 16 0
28 41 76 60 71 13 -3 20 2 24 19 9 36 44 68 60 55 9 -8 18 -3 35 19 23 32 76
44 65 15 -5 -12 2 -11 37 5 54 24 114 27 105 5z m1364 -123 c50 -24 100 -141
100 -233 0 -39 -36 -139 -74 -203 -72 -122 -206 -197 -300 -166 -48 16 -112
91 -131 153 -23 79 -20 186 9 250 71 161 271 262 396 199z m-4513 -17 c19 -8
38 -15 40 -15 3 0 3 7 -1 15 -8 22 49 19 102 -5 34 -16 42 -16 42 -5 0 22 37
18 60 -7 11 -12 20 -26 20 -31 0 -5 7 -3 16 4 14 12 20 9 40 -16 13 -17 24
-38 24 -48 0 -13 5 -17 18 -13 22 7 50 -20 61 -60 5 -16 13 -28 20 -26 15 3
51 -57 51 -85 0 -16 6 -23 19 -23 20 0 36 -31 47 -93 5 -27 11 -37 21 -33 17
7 33 -32 33 -80 0 -19 5 -34 10 -34 6 0 10 5 10 10 0 6 4 10 9 10 10 0 41 -84
41 -112 0 -20 16 -24 23 -5 6 16 33 -49 42 -101 4 -27 11 -39 19 -36 30 11 21
-33 -15 -78 l-37 -48 -49 52 c-50 54 -200 201 -288 282 -79 73 -195 152 -255
175 -100 38 -234 23 -416 -45 -68 -25 -99 -32 -104 -25 -5 9 -14 9 -34 1 -45
-17 -97 -13 -103 8 -4 16 -12 18 -53 14 -53 -5 -60 2 -74 69 -8 37 -34 63 -94
93 -39 20 -57 36 -68 61 -32 77 -3 119 78 114 29 -2 42 1 40 9 -3 17 44 33 74
26 18 -5 29 -1 38 11 11 15 22 17 64 11 44 -6 51 -4 46 9 -7 18 30 21 71 5 22
-8 26 -8 22 4 -7 19 37 30 63 16 25 -14 41 -13 38 3 -4 15 40 21 72 9 19 -7
28 -5 36 7 12 16 15 16 101 -16 7 -3 10 3 6 16 -7 26 21 28 74 6z m1819 -39
c30 -30 34 -41 34 -83 0 -40 -6 -59 -30 -91 -55 -77 -110 -66 -136 26 -9 31
-25 69 -35 84 -24 34 -24 35 11 53 62 32 110 4 110 -65 0 -29 4 -40 15 -40 42
0 -3 114 -50 126 -37 9 -30 24 11 24 28 0 44 -8 70 -34z m-2931 -96 c73 -35
148 -111 179 -180 25 -56 28 -70 24 -158 -2 -79 -8 -106 -28 -146 -38 -75 -71
-96 -157 -101 -80 -4 -121 11 -182 69 -86 80 -157 245 -145 339 7 58 56 167
82 182 53 31 156 29 227 -5z m4361 -226 c-5 -13 1 -14 38 -9 63 10 108 -2 101
-25 -5 -16 0 -17 39 -13 58 7 83 -1 66 -22 -14 -17 -13 -17 53 -15 35 1 49 -3
53 -14 3 -9 18 -16 33 -16 45 0 71 -11 69 -29 -2 -12 4 -15 29 -13 17 2 41 -2
53 -8 18 -10 19 -14 8 -27 -11 -14 -9 -15 19 -9 46 10 75 -1 68 -25 -6 -17 -1
-19 37 -19 47 0 70 -14 61 -36 -4 -10 4 -14 31 -14 46 0 75 -17 68 -42 -3 -15
1 -18 27 -18 70 0 99 -38 75 -99 -16 -41 -48 -62 -114 -76 -58 -12 -89 -33
-110 -75 -22 -43 -43 -50 -97 -29 -19 7 -29 7 -31 0 -7 -21 -46 -10 -96 27
-28 20 -78 51 -111 67 -53 27 -71 30 -160 32 -55 1 -109 5 -119 9 -11 4 -21 2
-26 -6 -6 -10 -15 -10 -46 0 -22 7 -45 17 -51 23 -10 7 -13 4 -13 -11 0 -22
-18 -32 -56 -32 -14 0 -24 -6 -24 -14 0 -8 -19 -22 -43 -31 -23 -9 -47 -26
-52 -37 -7 -14 -41 -34 -100 -58 -49 -20 -135 -59 -189 -88 -54 -29 -102 -52
-105 -52 -3 0 -12 23 -18 51 -8 31 -30 74 -58 112 -25 33 -45 68 -45 78 0 9
13 33 29 53 25 31 30 33 36 19 5 -15 10 -10 26 21 32 66 68 96 70 59 0 -13 3
-11 11 7 30 74 42 91 61 86 13 -3 21 3 30 22 20 48 48 82 67 82 10 0 21 9 25
20 8 26 65 72 81 66 8 -3 14 0 14 7 0 7 14 26 30 42 26 25 34 27 49 18 16 -10
20 -8 30 13 13 29 61 51 72 33 5 -9 15 -6 34 10 33 25 80 29 71 5z m639 -7
c11 -12 36 -34 57 -49 20 -15 42 -34 50 -41 7 -7 63 -51 123 -97 61 -46 110
-86 110 -89 0 -3 -8 -17 -17 -30 l-18 -25 -29 22 c-17 12 -33 22 -36 22 -3 0
-31 16 -61 35 -86 55 -350 173 -494 221 -23 7 -21 9 20 15 25 4 70 8 100 8 30
1 78 8 105 15 67 19 67 19 90 -7z m-3851 -78 c22 -18 27 -18 32 -5 5 14 9 14
35 1 16 -9 35 -28 43 -43 9 -15 15 -21 16 -14 1 34 90 -21 90 -57 0 -7 5 -9
10 -6 16 10 57 -21 75 -55 9 -17 20 -28 26 -24 16 9 40 -17 64 -68 15 -32 25
-44 32 -37 13 13 52 -34 60 -73 6 -29 18 -37 26 -15 6 19 33 -8 58 -61 16 -33
24 -41 28 -29 7 19 20 12 44 -23 26 -38 13 -111 -35 -192 -22 -38 -41 -68 -42
-68 -2 0 -56 27 -122 60 -65 34 -176 84 -247 111 -70 28 -130 56 -135 63 -4 7
-25 16 -47 22 -28 6 -40 14 -39 26 1 13 -2 15 -21 6 -16 -7 -48 -6 -112 5
-153 27 -252 -2 -401 -117 -63 -48 -82 -55 -82 -32 0 11 -7 11 -43 -2 -54 -19
-72 -13 -91 32 -16 39 -51 61 -123 77 -58 12 -86 34 -101 78 -16 45 -16 47 10
71 14 13 35 20 61 20 33 0 38 2 32 19 -7 24 20 41 64 41 24 0 31 4 31 19 0 21
44 41 89 41 17 0 22 3 13 9 -24 15 14 34 54 28 28 -5 35 -3 30 8 -7 19 24 35
67 35 27 0 34 4 33 18 -1 14 8 18 47 20 33 2 47 7 47 18 0 10 14 14 56 14 51
0 55 2 49 20 -6 20 -2 21 55 22 3 1 18 -2 33 -6 25 -6 28 -4 22 13 -8 26 27
36 95 27 42 -6 49 -4 44 9 -9 23 38 19 70 -6z m-650 -54 c27 -8 64 -15 83 -15
18 0 33 -4 33 -10 0 -5 -4 -10 -9 -10 -22 0 -262 -114 -364 -172 -60 -35 -113
-62 -116 -60 -16 6 3 26 113 113 66 52 138 111 160 131 23 21 43 38 46 38 3 0
27 -7 54 -15z m2734 -29 c15 -8 36 -24 47 -36 11 -13 37 -33 57 -46 29 -19 40
-35 55 -80 13 -41 28 -65 57 -90 22 -19 45 -34 52 -34 24 0 63 -60 70 -108 4
-28 18 -61 35 -82 71 -90 101 -199 63 -231 -36 -29 -56 -90 -52 -154 l4 -62
-48 -26 c-117 -65 -144 -218 -55 -314 11 -13 19 -24 16 -26 -2 -2 -31 -24 -64
-49 -72 -55 -93 -78 -129 -140 -29 -52 -28 -51 -103 -48 -66 2 -120 -22 -198
-89 -68 -58 -90 -67 -143 -55 -20 4 -68 8 -107 8 -61 1 -75 -3 -113 -28 -31
-21 -55 -29 -87 -29 -33 0 -55 7 -85 29 -101 73 -107 75 -201 68 -74 -5 -92
-4 -118 12 -17 10 -31 22 -31 26 0 5 -18 28 -41 52 -29 32 -51 46 -78 51 -47
8 -86 47 -96 95 -3 19 -14 56 -23 82 -14 43 -14 49 0 65 63 72 63 177 1 261
-14 18 -36 38 -49 44 -18 9 -24 19 -24 45 0 45 -20 91 -60 136 l-32 37 26 44
c14 25 33 51 41 60 8 8 19 46 25 86 9 66 32 124 62 160 7 8 38 37 69 63 58 49
68 65 91 152 12 43 22 56 82 102 58 46 74 53 112 53 35 0 53 -7 90 -35 51 -39
55 -40 118 -23 41 11 46 10 75 -15 17 -14 60 -40 96 -58 84 -41 149 -38 226
10 52 32 53 32 114 20 74 -14 108 -7 138 28 34 42 75 83 82 83 3 0 18 -6 33
-14z m2515 -323 c61 -36 72 -64 72 -176 0 -95 -2 -106 -29 -152 -67 -113 -169
-194 -279 -221 -111 -28 -167 -2 -221 104 -28 55 -19 205 17 277 21 42 91 116
131 140 94 55 240 68 309 28z m-5778 -94 c93 -46 155 -123 178 -218 32 -131
19 -208 -47 -276 -42 -44 -43 -45 -109 -45 -100 0 -164 28 -246 108 -122 120
-143 174 -129 322 6 68 10 78 38 101 45 38 85 49 171 45 62 -3 89 -10 144 -37z
m4642 28 c5 -7 27 -12 53 -12 38 0 45 -3 45 -19 0 -14 12 -22 45 -30 25 -7 56
-19 69 -28 21 -15 22 -17 4 -26 -20 -12 -15 -14 37 -26 34 -7 69 -36 53 -42
-22 -10 -14 -22 19 -29 43 -10 68 -26 68 -45 0 -8 19 -23 41 -33 31 -15 38
-23 34 -38 -5 -14 0 -20 19 -25 29 -7 58 -36 54 -55 -2 -7 6 -15 17 -17 32 -7
57 -33 44 -48 -7 -9 -4 -14 13 -19 34 -10 69 -46 63 -64 -3 -11 7 -21 27 -31
40 -19 59 -47 39 -59 -11 -7 -7 -13 17 -25 70 -36 81 -80 32 -128 -29 -28 -32
-28 -129 -26 l-100 3 -33 -32 c-36 -35 -48 -33 -99 14 -22 21 -27 22 -32 8 -6
-13 -11 -13 -41 7 -20 13 -40 33 -47 44 -6 12 -24 25 -40 28 -18 3 -39 20 -56
45 -18 25 -35 39 -47 38 -12 -1 -31 13 -50 40 -20 27 -37 40 -47 37 -16 -5
-69 47 -69 67 0 5 -11 7 -24 3 -17 -4 -32 3 -59 28 -30 29 -36 31 -40 17 -4
-15 -10 -16 -48 -8 -30 7 -45 7 -47 0 -2 -6 -26 -11 -52 -11 -35 0 -52 -5 -58
-17 -14 -24 -119 -35 -227 -22 -49 5 -156 11 -237 12 -137 2 -147 3 -152 22
-11 39 -6 91 13 125 23 44 79 84 97 70 9 -8 16 -6 26 8 14 20 85 72 99 72 5 0
6 -7 3 -15 -8 -21 12 -19 28 3 13 18 71 62 82 62 3 0 6 -10 6 -22 0 -18 5 -16
38 20 38 41 67 53 74 31 2 -6 23 8 46 31 36 36 47 42 71 37 20 -4 31 -2 35 8
3 8 24 19 46 26 35 11 43 10 51 -2 6 -10 9 -11 9 -1 0 7 21 22 47 34 45 20 47
20 60 2 10 -14 16 -16 21 -7 8 12 48 31 69 32 7 1 16 -5 20 -12z m-3679 -63
c19 -13 22 -13 22 2 0 12 6 14 32 8 18 -3 44 -14 57 -23 14 -9 33 -15 43 -13
20 4 88 -26 88 -39 0 -5 13 -6 30 -3 25 5 35 1 66 -30 28 -28 41 -35 60 -30
19 5 32 -1 59 -30 36 -38 51 -46 41 -21 -3 8 -2 15 2 15 14 0 77 -43 90 -61
16 -23 34 -25 26 -4 -13 32 36 7 94 -49 24 -22 40 -33 36 -23 -8 21 -1 21 36
2 33 -17 80 -90 80 -125 0 -22 -2 -22 -67 -16 -82 8 -306 -6 -499 -30 -85 -11
-147 -14 -159 -9 -11 5 -39 7 -62 6 -34 -2 -43 1 -43 13 0 12 -11 6 -36 -19
-26 -26 -42 -35 -58 -32 -16 4 -27 -4 -49 -34 -20 -29 -33 -39 -45 -35 -13 5
-27 -6 -50 -40 -24 -34 -37 -44 -51 -39 -13 4 -24 -3 -36 -22 -20 -32 -55 -62
-71 -63 -7 0 -30 -18 -52 -40 -37 -38 -72 -52 -72 -30 0 5 -21 -6 -46 -25 -48
-37 -50 -37 -92 3 -31 29 -55 34 -136 27 -79 -7 -83 -6 -113 19 -18 15 -35 36
-38 46 -8 26 29 78 60 86 18 4 23 12 22 32 -2 19 7 32 33 49 21 15 35 32 35
45 0 15 13 28 45 44 39 20 45 30 17 25 -4 -1 -3 7 2 18 6 11 27 25 47 31 24 8
32 15 24 20 -16 10 20 47 55 56 25 6 35 24 13 24 -21 0 24 39 52 45 19 4 30
13 32 28 2 16 15 26 48 37 57 18 58 19 40 31 -13 8 -11 13 9 29 13 11 31 20
41 20 10 0 26 3 34 6 15 6 15 8 -1 19 -15 11 -13 15 25 34 23 11 52 21 65 21
30 0 40 10 26 26 -14 18 28 29 76 20 20 -4 35 -3 34 1 -3 19 3 23 29 17 15 -4
37 -13 50 -20z m4140 -98 c6 -13 49 -76 96 -140 48 -64 84 -116 80 -116 -3 0
-49 42 -102 93 -54 51 -119 114 -147 140 l-50 47 56 0 c49 0 57 -3 67 -24z
m-3236 -422 c21 -13 45 -35 54 -49 24 -37 29 -106 11 -142 -19 -36 -82 -93
-103 -93 -9 0 -27 -9 -41 -20 -14 -11 -37 -20 -52 -20 -14 -1 -37 -7 -51 -15
-14 -8 -37 -14 -51 -15 -14 0 -40 -7 -58 -16 -17 -9 -38 -13 -46 -11 -7 3 -30
-3 -51 -14 -42 -21 -70 -24 -79 -9 -4 7 -19 3 -41 -10 -18 -12 -44 -20 -56
-18 -14 2 -32 -8 -50 -26 -22 -21 -32 -26 -41 -17 -17 17 -27 13 -27 -9 0 -34
-28 -80 -45 -74 -11 5 -15 -2 -16 -27 -2 -52 -14 -84 -31 -83 -12 1 -17 -13
-22 -57 -6 -50 -10 -59 -26 -59 -16 0 -20 -7 -20 -30 0 -37 -25 -100 -39 -100
-6 0 -11 -10 -11 -22 0 -13 -9 -43 -21 -67 -14 -33 -22 -42 -31 -33 -8 8 -17
-2 -34 -38 l-23 -50 -59 6 c-64 7 -82 1 -143 -48 -40 -32 -81 -38 -128 -18
-47 19 -50 61 -9 124 10 15 10 19 1 23 -20 7 -15 48 9 78 15 20 18 30 10 33
-19 6 -14 36 13 76 18 27 21 36 10 36 -23 0 -18 28 12 57 15 16 21 29 15 31
-20 6 -13 38 14 65 23 23 24 26 8 35 -17 9 -16 13 9 51 15 22 24 47 21 55 -3
8 10 31 31 55 34 37 35 41 16 41 -11 0 -21 2 -21 5 0 12 35 61 59 83 18 16 21
22 9 18 -34 -10 -19 34 27 80 42 42 57 63 36 49 -5 -3 -12 -1 -15 4 -8 12 42
51 65 51 20 0 37 20 17 20 -32 1 29 30 63 30 28 0 38 5 42 20 4 17 14 20 60
20 34 0 57 5 59 12 3 7 27 12 59 13 30 1 62 5 71 10 19 7 77 3 116 -10 17 -6
22 -3 22 9 0 20 44 21 82 2 30 -16 44 -10 25 12 -10 13 -5 14 43 9 30 -3 65
-9 78 -12 18 -6 21 -4 16 9 -5 13 2 16 41 16 25 0 56 -5 67 -11 17 -9 23 -8
30 6 13 22 69 13 120 -21z m1870 -3 c-2 -10 3 -11 20 -6 13 4 47 10 77 12 48
5 53 3 47 -12 -5 -14 -2 -16 16 -10 13 3 45 9 72 12 46 5 48 5 42 -15 -7 -21
-6 -21 29 -6 44 18 91 15 87 -5 -2 -10 3 -12 20 -6 40 12 128 18 128 8 0 -5
26 -9 57 -9 35 0 58 -4 61 -12 2 -7 24 -12 59 -12 46 0 56 -3 60 -20 4 -14 14
-20 32 -20 46 0 71 -11 71 -31 0 -12 7 -19 19 -19 10 0 30 -9 45 -21 24 -19
25 -22 10 -33 -14 -11 -13 -14 10 -30 46 -29 89 -117 51 -102 -23 9 -18 -8 7
-19 11 -6 30 -26 40 -45 18 -35 18 -35 -2 -40 -20 -5 -18 -8 14 -39 35 -34 46
-61 26 -61 -5 0 5 -21 23 -46 30 -42 31 -46 14 -56 -17 -9 -16 -11 7 -33 27
-25 34 -61 14 -67 -6 -2 0 -15 15 -31 30 -29 35 -57 12 -57 -12 0 -10 -8 10
-37 27 -41 32 -69 13 -75 -8 -3 -5 -13 10 -33 26 -33 29 -70 6 -79 -15 -6 -15
-9 4 -29 11 -12 21 -31 22 -42 6 -52 0 -63 -41 -79 -49 -20 -66 -16 -141 37
-55 39 -59 40 -116 34 -56 -6 -61 -5 -76 17 -8 13 -18 36 -22 50 -5 21 -9 24
-20 15 -11 -9 -18 -3 -34 32 -11 24 -20 54 -20 67 0 12 -5 22 -11 22 -14 0
-39 63 -39 100 0 23 -4 30 -20 30 -16 0 -20 10 -26 60 -5 48 -10 60 -23 58
-12 -2 -18 10 -25 55 -7 41 -13 56 -23 53 -15 -6 -43 42 -43 74 0 22 -10 26
-27 9 -7 -7 -19 -3 -41 15 -16 14 -40 26 -53 26 -13 0 -37 9 -53 19 -22 15
-33 17 -46 8 -14 -8 -29 -6 -62 6 -24 9 -53 17 -63 17 -11 0 -33 7 -49 15 -15
8 -39 15 -53 15 -13 0 -38 7 -54 16 -17 8 -37 13 -44 10 -8 -3 -30 6 -50 20
-20 13 -43 24 -51 24 -27 0 -103 80 -110 116 -11 58 4 105 46 145 50 48 150
76 142 40z m2012 -343 c21 -6 59 -31 85 -54 46 -41 46 -42 46 -105 -1 -69 -36
-162 -78 -207 -30 -33 -123 -86 -196 -112 -81 -30 -196 -25 -259 10 -81 45
-106 162 -58 265 50 108 115 168 225 211 42 16 175 12 235 -8z m-5691 -66 c52
-26 79 -47 113 -90 78 -100 101 -198 67 -284 -53 -134 -274 -145 -455 -24 -76
50 -119 111 -142 200 -14 57 -14 70 -2 99 38 90 137 139 271 135 68 -3 91 -8
148 -36z m704 -953 c120 -57 182 -135 183 -227 0 -55 -18 -90 -75 -140 -69
-61 -155 -85 -292 -80 -108 3 -108 3 -168 44 -81 55 -125 113 -125 165 0 80
75 180 171 230 64 32 86 37 166 38 62 1 83 -4 140 -30z m4271 -29 c100 -53
171 -150 172 -232 0 -48 -46 -109 -125 -162 l-60 -41 -135 0 c-127 0 -138 2
-190 28 -104 52 -150 111 -150 193 0 38 7 61 29 95 39 60 65 83 147 124 66 34
73 35 159 32 80 -3 97 -7 153 -37z"/>
<path d="M5937 3976 c-86 -31 -163 -106 -194 -189 -19 -52 -16 -185 6 -233 23
-51 96 -114 131 -114 149 0 306 208 286 379 -8 68 -51 157 -80 165 -36 10
-109 6 -149 -8z m120 -22 c15 -4 32 -26 49 -61 27 -53 27 -57 15 -131 -19
-127 -71 -205 -176 -266 -56 -33 -67 -33 -109 4 -77 68 -97 171 -55 282 42
114 178 198 276 172z"/>
<path d="M281 3831 c-44 -44 -56 -82 -56 -181 0 -83 3 -102 28 -153 52 -111
159 -197 243 -197 48 0 110 50 138 109 15 34 20 67 21 126 0 68 -4 89 -28 137
-36 74 -112 143 -180 163 -73 22 -142 20 -166 -4z m139 -21 c19 -5 58 -26 87
-46 100 -69 148 -226 99 -325 -21 -44 -83 -109 -104 -109 -32 0 -107 48 -152
97 -63 69 -90 140 -90 236 0 127 54 177 160 147z"/>
<path d="M6025 3117 c-100 -33 -161 -86 -201 -170 -48 -106 -40 -207 23 -284
33 -41 37 -43 88 -43 110 0 237 86 301 203 20 38 28 69 32 122 6 92 -9 140
-51 161 -41 22 -142 27 -192 11z m171 -42 c29 -19 47 -83 38 -133 -11 -60 -70
-167 -111 -201 -46 -38 -107 -67 -169 -81 -56 -13 -71 -3 -104 68 -18 37 -21
60 -18 113 3 57 9 75 41 123 42 63 96 103 165 123 54 15 126 10 158 -12z"/>
<path d="M205 3035 c-22 -8 -41 -15 -42 -15 -1 0 -9 -23 -18 -51 -58 -172 108
-405 303 -425 53 -6 60 -4 90 21 56 47 75 96 70 184 -7 124 -68 220 -173 271
-61 30 -172 37 -230 15z m218 -49 c86 -41 156 -145 157 -232 0 -53 -24 -123
-55 -156 -24 -26 -26 -26 -77 -14 -116 27 -191 84 -239 181 -55 112 -49 212
15 241 45 21 131 12 199 -20z"/>
<path d="M5953 2109 c-141 -54 -232 -236 -175 -349 27 -54 73 -75 162 -73 183
3 340 127 356 281 6 58 5 62 -22 88 -78 73 -212 95 -321 53z m204 -24 c78 -23
103 -48 103 -101 0 -25 -9 -62 -19 -82 -24 -47 -95 -113 -153 -143 -48 -24
-148 -36 -221 -25 -39 6 -47 11 -56 38 -27 76 -6 176 47 231 81 85 189 115
299 82z"/>
<path d="M246 2066 c-21 -8 -55 -28 -75 -44 -35 -29 -36 -32 -35 -94 0 -52 6
-75 27 -111 73 -123 252 -205 388 -176 64 14 94 39 109 94 32 115 -42 255
-169 317 -57 28 -186 36 -245 14z m229 -41 c63 -30 129 -102 144 -157 17 -59
10 -144 -13 -166 -24 -25 -169 -29 -234 -8 -59 20 -155 102 -183 158 -27 54
-28 114 0 141 57 57 200 73 286 32z"/>
<path d="M952 1100 c-67 -30 -100 -57 -137 -113 -52 -77 -49 -114 14 -180 68
-71 125 -92 251 -91 82 0 103 4 152 28 78 37 128 94 128 146 0 129 -127 230
-288 230 -55 0 -89 -6 -120 -20z m254 -41 c56 -27 107 -95 118 -154 6 -32 4
-41 -19 -65 -36 -38 -128 -78 -197 -86 -90 -11 -190 18 -244 71 -34 32 -44 49
-44 74 0 64 49 123 140 166 47 22 65 26 126 22 50 -3 87 -11 120 -28z"/>
<path d="M5279 1099 c-139 -21 -239 -119 -239 -233 0 -36 6 -48 43 -83 70 -68
125 -88 242 -88 88 0 107 3 155 27 62 30 86 49 118 95 39 55 21 124 -51 196
-69 69 -170 101 -268 86z m161 -55 c90 -42 140 -100 140 -165 0 -25 -10 -42
-43 -74 -54 -52 -148 -80 -237 -72 -101 9 -230 83 -230 132 0 36 50 124 86
151 76 58 194 70 284 28z"/>
</g>
</svg>
