<?xml version="1.0" standalone="no"?>
<!DOCTYPE svg PUBLIC "-//W3C//DTD SVG 20010904//EN"
 "http://www.w3.org/TR/2001/REC-SVG-20010904/DTD/svg10.dtd">
<svg version="1.0" xmlns="http://www.w3.org/2000/svg"
 width="650.000000pt" height="459.000000pt" viewBox="0 0 650.000000 459.000000"
 preserveAspectRatio="xMidYMid meet">
<metadata>
Created by potrace 1.16, written by Peter Selinger 2001-2019
</metadata>
<g transform="translate(0.000000,459.000000) scale(0.100000,-0.100000)"
fill="#000000" stroke="none">
<path d="M2720 4103 c-66 -12 -59 -46 14 -67 52 -16 205 -102 241 -137 19 -19
18 -19 -90 -19 -358 0 -675 -147 -956 -443 l-87 -90 -15 29 c-53 103 -61 276
-17 369 50 106 185 204 374 274 72 27 99 52 79 72 -14 14 -235 -39 -333 -80
-228 -95 -369 -235 -424 -420 -25 -85 -21 -245 8 -356 28 -103 92 -256 136
-325 26 -41 30 -56 27 -97 -3 -35 -8 -47 -18 -44 -142 37 -220 53 -233 48 -24
-9 -20 -61 8 -106 34 -53 102 -110 181 -151 48 -24 85 -54 124 -98 31 -35 72
-72 91 -82 26 -13 52 -45 98 -118 34 -56 83 -119 108 -141 36 -31 61 -71 119
-185 113 -225 156 -354 159 -478 1 -56 -2 -70 -21 -90 -21 -22 -21 -25 -7 -40
23 -23 54 -152 54 -225 0 -122 -62 -245 -153 -303 -56 -35 -87 -75 -87 -111 0
-40 26 -50 144 -56 178 -9 285 35 287 120 1 33 3 31 13 -15 8 -36 22 -35 41 2
24 46 19 134 -11 198 l-26 54 12 136 c11 143 41 317 60 352 18 34 29 14 27
-53 -2 -103 29 -141 146 -182 59 -19 64 -24 94 -80 43 -81 67 -189 58 -263 -4
-31 -24 -98 -45 -149 -48 -115 -59 -189 -33 -221 23 -28 132 -56 181 -47 85
16 117 50 143 154 17 65 17 66 29 36 9 -23 13 -26 20 -15 18 28 10 74 -26 147
-24 47 -40 99 -47 147 -10 66 -8 88 16 207 14 74 29 154 33 179 3 25 12 56 19
70 7 14 24 83 39 153 38 184 35 177 93 164 26 -6 145 -11 263 -11 240 -1 295
8 445 70 43 19 82 31 86 26 4 -4 13 -42 20 -85 16 -97 3 -215 -37 -337 -32
-96 -66 -141 -153 -198 -77 -51 -143 -120 -139 -146 4 -27 64 -40 189 -41 92
0 98 1 180 42 59 29 89 50 97 68 7 14 12 69 12 121 0 140 26 251 116 501 50
139 53 169 22 232 -17 35 -19 46 -8 49 26 9 60 55 71 96 6 23 14 48 18 56 9
17 72 36 93 27 9 -3 21 -38 31 -91 10 -47 47 -172 83 -278 82 -242 83 -247 84
-340 0 -93 -20 -196 -55 -273 -32 -72 -32 -110 -2 -129 35 -23 155 -49 195
-43 57 10 82 41 82 103 0 30 9 76 20 105 24 61 21 77 -31 145 -69 91 -74 109
-74 294 0 161 1 167 28 219 33 64 34 98 6 154 -20 38 -21 51 -15 152 19 310
25 374 36 415 8 28 10 76 6 130 -39 540 -161 768 -506 946 l-95 49 -105 -1
c-93 -1 -119 -5 -220 -39 -177 -57 -320 -94 -370 -95 -68 0 -110 15 -197 72
-82 54 -205 115 -286 142 -29 10 -60 30 -79 52 -107 122 -349 236 -458 217z
m157 -42 c90 -31 209 -101 264 -154 71 -69 185 -257 239 -391 44 -112 62 -193
66 -301 6 -129 -11 -206 -46 -216 -16 -4 -19 -7 -7 -8 25 -1 21 -17 -23 -92
-39 -66 -160 -189 -186 -189 -19 0 -39 34 -70 120 -14 41 -41 96 -59 121 l-33
47 35 33 c44 43 98 134 118 201 20 68 20 235 0 313 -18 68 -66 188 -97 243
-12 20 -27 49 -35 64 -24 47 -210 167 -299 193 -76 22 -71 43 11 44 22 0 77
-12 122 -28z m-629 7 c-3 -7 -47 -29 -99 -48 -229 -88 -341 -193 -376 -352
-15 -71 -15 -84 -1 -157 62 -313 312 -543 648 -597 47 -7 102 -13 122 -14 33
0 41 -5 63 -39 42 -68 50 -122 30 -199 -24 -88 -44 -114 -107 -143 -177 -78
-526 36 -739 241 -85 82 -125 140 -186 270 -148 314 -136 581 34 770 101 111
254 196 449 249 120 32 168 38 162 19z m769 -213 c25 -18 92 -151 130 -260 25
-71 28 -94 28 -210 0 -129 0 -130 -37 -207 -20 -43 -58 -100 -83 -127 l-46
-50 40 -67 c22 -36 48 -89 57 -118 20 -60 41 -105 60 -124 8 -7 14 -31 14 -53
0 -22 7 -54 16 -72 11 -21 17 -58 18 -112 1 -113 -22 -175 -91 -243 l-54 -54
21 -142 c26 -173 55 -302 85 -381 13 -33 31 -86 40 -119 16 -55 16 -63 0 -122
-31 -115 -92 -146 -285 -147 -133 0 -188 16 -232 65 -36 40 -42 65 -35 134 4
38 2 54 -6 55 -21 1 -125 131 -234 290 -128 188 -198 280 -258 338 -64 63 -97
135 -103 225 -5 87 4 95 79 69 51 -18 77 -13 88 18 3 9 -1 8 -13 -4 -22 -21
-36 -21 -80 -1 -32 16 -36 16 -102 -9 -38 -15 -87 -31 -109 -36 -22 -5 -31 -9
-20 -10 11 0 45 6 75 14 30 8 57 15 60 15 3 0 6 -24 7 -54 4 -87 35 -154 112
-238 76 -84 138 -166 256 -338 82 -120 130 -184 177 -236 l28 -30 -19 -56
c-26 -75 -49 -226 -57 -369 -6 -109 -5 -119 15 -152 28 -45 37 -123 21 -172
-14 -42 -27 -36 -32 15 -4 51 -22 43 -29 -14 -10 -90 -75 -120 -255 -119 -118
1 -154 11 -154 43 0 25 54 86 93 106 41 22 72 59 109 133 52 104 51 252 -4
393 -8 21 -6 32 6 50 22 32 18 146 -10 241 -9 28 10 19 24 -12 7 -16 39 -57
70 -91 49 -53 62 -62 97 -64 22 -2 27 -1 11 1 -60 9 -202 188 -253 317 -13 34
-38 86 -57 116 -18 30 -37 66 -41 80 -17 57 -51 109 -114 175 -37 39 -84 100
-105 136 -36 66 -80 119 -98 119 -5 0 -44 35 -87 78 -46 46 -100 89 -134 106
-101 52 -197 151 -197 203 0 19 5 23 33 23 18 0 67 -9 108 -20 139 -38 129
-39 129 10 0 23 4 40 8 38 4 -1 27 -24 51 -50 l43 -47 -34 9 c-51 15 -48 12
32 -28 41 -21 116 -63 165 -93 50 -31 99 -58 110 -62 11 -3 44 -14 73 -26 71
-27 192 -51 255 -51 71 0 163 28 197 60 31 29 70 139 70 200 0 22 -13 63 -32
101 l-33 64 -120 17 c-66 9 -145 24 -175 33 -117 37 -257 122 -336 207 -41 42
-114 148 -114 163 0 6 34 48 77 94 218 234 517 401 788 440 105 15 278 13 302
-4z m343 -76 c30 -12 82 -40 115 -61 173 -108 161 -103 265 -102 79 1 115 8
215 38 257 79 299 89 380 90 76 1 85 -1 178 -46 213 -103 343 -237 418 -431
56 -146 95 -402 86 -562 -10 -160 -25 -348 -37 -449 -13 -115 -10 -146 19
-203 25 -51 26 -75 5 -109 -29 -44 -44 -134 -44 -269 1 -153 14 -201 78 -287
50 -65 53 -81 28 -136 -15 -34 -23 -40 -54 -44 -21 -3 -65 -2 -99 1 -50 5 -60
4 -51 -6 6 -7 17 -13 25 -13 20 0 14 -101 -6 -108 -11 -4 -13 6 -8 49 3 34 2
46 -3 34 -5 -11 -9 -37 -9 -58 -1 -35 -3 -38 -23 -32 -36 11 -68 34 -68 49 0
8 15 54 34 103 42 110 61 244 47 328 -5 33 -33 128 -61 210 -63 180 -110 349
-110 391 0 39 -16 54 -60 54 -52 -1 -91 -27 -150 -100 -81 -100 -189 -198
-253 -230 -86 -43 -152 -53 -307 -48 -94 4 -121 2 -90 -4 25 -5 104 -8 177 -6
72 2 130 2 129 1 -14 -14 -202 -75 -271 -88 -104 -20 -378 -17 -477 5 -55 12
-57 14 -52 39 14 58 99 274 159 401 77 165 95 235 95 368 0 103 -25 252 -43
252 -5 0 -6 -8 -2 -17 15 -40 35 -169 35 -233 0 -117 -24 -208 -93 -357 -115
-247 -174 -419 -213 -615 -9 -49 -20 -88 -24 -88 -4 0 -11 17 -15 37 -4 21
-18 64 -31 96 -29 68 -67 229 -89 375 -22 149 -22 150 33 208 57 62 82 124 89
224 4 60 1 87 -16 137 -34 100 -32 104 68 202 71 69 95 101 124 161 49 105 61
167 54 296 -8 169 -62 325 -184 526 -23 37 -39 69 -36 72 3 3 20 -1 37 -8 17
-7 56 -24 86 -37z m1111 -1850 c12 -38 10 -49 -40 -192 -95 -271 -128 -423
-116 -528 10 -84 -8 -109 -107 -156 -98 -45 -217 -53 -310 -20 l-37 13 19 32
c11 17 50 53 87 79 120 85 157 128 186 218 48 149 59 271 34 392 l-14 63 71
50 c39 27 94 70 121 94 l50 45 22 -24 c12 -14 28 -44 34 -66z m-1287 -700 c-9
-41 -20 -92 -25 -114 -22 -106 -3 -230 51 -333 39 -74 41 -114 4 -77 -26 25
-34 17 -34 -32 -1 -105 -61 -173 -153 -173 -60 0 -133 18 -148 36 -6 8 -11 34
-11 58 1 45 10 74 58 186 50 120 44 236 -20 374 l-33 73 96 6 c104 6 179 27
207 58 9 10 19 18 21 16 2 -2 -4 -37 -13 -78z m1864 -76 c2 -23 -2 -51 -8 -62
-12 -24 -59 -38 -107 -33 -29 4 -33 7 -26 26 4 11 6 40 5 63 l-2 42 52 4 c84
6 83 6 86 -40z"/>
<path d="M2563 2293 c21 -5 21 -12 2 -37 -8 -11 -15 -31 -15 -45 l0 -26 -21
25 c-14 18 -18 19 -11 5 15 -30 46 -55 89 -71 51 -18 112 -18 119 0 5 14 -22
74 -50 109 -13 17 -96 48 -120 46 -6 -1 -3 -3 7 -6z"/>
</g>
</svg>
