<?xml version="1.0" standalone="no"?>
<!DOCTYPE svg PUBLIC "-//W3C//DTD SVG 20010904//EN"
 "http://www.w3.org/TR/2001/REC-SVG-20010904/DTD/svg10.dtd">
<svg version="1.0" xmlns="http://www.w3.org/2000/svg"
 width="650.000000pt" height="498.000000pt" viewBox="0 0 650.000000 498.000000"
 preserveAspectRatio="xMidYMid meet">
<metadata>
Created by potrace 1.16, written by Peter Selinger 2001-2019
</metadata>
<g transform="translate(0.000000,498.000000) scale(0.100000,-0.100000)"
fill="#000000" stroke="none">
<path d="M1954 4341 c-71 -26 -74 -28 -148 -99 -58 -55 -70 -62 -106 -62 -52
0 -96 -19 -141 -62 -55 -50 -79 -96 -79 -148 0 -28 -8 -58 -21 -80 -15 -23
-22 -54 -24 -94 -2 -54 -4 -60 -31 -71 -16 -6 -50 -15 -77 -18 -27 -4 -97 -31
-164 -64 -204 -102 -265 -182 -218 -286 21 -47 94 -121 141 -146 48 -23 159
-56 249 -72 33 -6 90 -26 127 -45 37 -18 85 -38 105 -43 21 -6 56 -15 78 -20
22 -6 65 -11 95 -11 30 0 66 -3 79 -7 22 -6 23 -9 18 -62 -4 -37 -12 -61 -25
-71 -10 -8 -18 -27 -18 -42 1 -38 -91 -184 -127 -200 -15 -7 -25 -19 -22 -26
9 -25 -202 -267 -472 -542 -90 -91 -182 -190 -205 -220 -24 -31 -49 -62 -56
-70 -111 -129 -201 -330 -202 -455 0 -42 17 -114 41 -174 17 -42 128 -162 194
-210 154 -113 251 -151 387 -151 35 0 71 -9 106 -25 38 -18 71 -25 113 -25 32
0 80 -4 106 -9 26 -6 134 -12 238 -15 105 -3 219 -10 255 -16 100 -14 485 -15
680 -1 96 7 211 14 255 15 252 8 824 73 990 112 303 73 354 90 530 181 71 36
140 106 155 156 7 23 18 51 26 62 20 28 17 97 -7 184 -34 122 -56 158 -156
256 -87 85 -116 111 -205 185 -44 37 -59 99 -37 153 21 50 78 109 100 102 14
-5 19 -1 19 13 0 32 126 128 219 168 14 6 46 20 71 31 134 61 294 103 490 129
310 40 436 34 573 -29 50 -23 79 -32 83 -25 4 6 -1 17 -11 24 -25 19 -158 68
-235 87 -353 89 -447 102 -745 102 -338 0 -595 -37 -778 -111 -73 -30 -82 -30
-152 2 -51 23 -55 28 -39 37 39 22 78 85 69 109 -4 9 7 18 29 26 47 17 86 59
86 93 0 17 -11 39 -31 58 -29 30 -34 31 -82 25 -45 -6 -109 -25 -169 -49 -13
-5 -18 -2 -18 8 0 8 4 17 9 19 15 6 111 160 111 179 0 39 -87 10 -154 -52 -38
-36 -136 -74 -136 -53 0 3 5 14 11 25 17 32 34 160 29 214 -4 42 -9 51 -27 53
-26 4 -66 -45 -88 -108 -31 -87 -48 -89 -119 -17 -74 74 -124 112 -149 112
-21 0 -22 -4 -21 -78 1 -67 -1 -77 -15 -73 -9 3 -38 10 -66 16 -46 10 -51 10
-63 -9 -12 -17 -17 -18 -35 -8 -12 7 -26 17 -32 23 -26 29 -59 43 -72 32 -19
-16 -16 -33 18 -105 17 -35 28 -71 25 -79 -6 -17 -52 -18 -186 -3 -189 20
-324 9 -362 -28 -18 -19 -18 -20 1 -45 24 -30 113 -64 203 -77 82 -11 188 -49
188 -67 0 -29 -31 -42 -116 -49 -140 -11 -251 -57 -261 -108 -4 -19 -19 -37
-43 -52 -45 -29 -80 -82 -80 -122 0 -32 33 -83 53 -83 7 0 29 -9 50 -20 49
-26 77 -25 135 5 43 22 54 24 103 16 29 -5 61 -9 69 -9 8 0 45 -3 82 -7 61 -7
68 -5 80 14 17 28 53 27 114 -4 35 -18 65 -25 104 -25 48 1 59 4 85 31 44 45
81 61 165 72 120 15 290 7 290 -15 0 -6 -23 -35 -51 -66 -63 -69 -89 -109
-117 -185 -55 -147 -12 -253 155 -380 61 -46 105 -88 117 -111 18 -35 19 -38
3 -71 -9 -20 -28 -41 -42 -47 -25 -11 -34 -28 -14 -28 37 0 89 70 89 120 0 33
28 52 91 64 114 21 295 -135 291 -250 -4 -95 -131 -207 -250 -221 -119 -13
-275 36 -373 118 -88 73 -62 112 94 144 15 3 27 10 27 15 0 12 -67 1 -102 -16
-15 -8 -51 -19 -80 -26 -52 -11 -53 -11 -25 -23 15 -6 25 -14 21 -17 -18 -18
10 -67 62 -107 68 -53 155 -89 258 -107 68 -12 87 -12 145 1 102 24 187 89
234 182 31 59 -4 153 -87 233 -94 90 -149 108 -255 84 l-65 -15 -30 29 c-17
16 -62 51 -99 77 -170 119 -202 252 -104 427 20 36 59 86 86 110 65 58 262
165 364 196 76 23 82 23 92 7 5 -9 25 -34 43 -55 102 -118 248 -124 337 -15
32 38 35 48 35 108 l0 65 48 11 c76 19 475 16 622 -3 124 -17 237 -42 245 -56
2 -4 -73 -17 -168 -29 -324 -41 -552 -110 -717 -216 -39 -25 -73 -45 -76 -45
-3 0 -26 -16 -50 -36 l-44 -36 -49 21 c-28 11 -69 21 -93 21 -58 0 -163 -53
-202 -103 -28 -35 -31 -46 -31 -111 0 -69 2 -75 39 -123 57 -76 88 -95 161
-101 46 -3 77 0 113 13 44 16 51 17 71 3 47 -33 181 -170 175 -179 -3 -5 -27
-20 -54 -34 -79 -40 -130 -123 -130 -213 0 -96 41 -163 134 -222 30 -19 55
-38 56 -42 0 -4 -21 -20 -47 -35 -27 -15 -50 -30 -53 -34 -9 -12 -175 -78
-225 -89 -27 -7 -77 -21 -110 -32 -71 -24 -179 -48 -216 -48 -14 0 -29 -3 -33
-7 -7 -8 -8 -8 -126 -22 -46 -6 -104 -11 -128 -11 l-43 0 6 44 c16 103 -107
234 -250 266 -102 23 -281 -42 -351 -127 -29 -35 -38 -57 -47 -114 -9 -60 -8
-74 6 -98 l16 -28 -117 -12 c-228 -22 -409 -29 -604 -21 -108 4 -200 10 -205
13 -5 3 -96 8 -203 11 -107 3 -222 10 -255 16 -33 6 -78 13 -100 15 -22 3 -53
9 -70 14 l-30 8 28 11 c39 16 33 22 -15 16 -42 -5 -44 -3 -78 43 -45 60 -69
104 -70 124 0 9 -6 22 -14 28 -27 23 -75 155 -81 226 -4 39 -9 73 -11 76 -7
13 16 180 29 211 9 18 18 40 20 48 3 9 6 4 6 -10 2 -64 142 -220 197 -220 22
0 145 -81 152 -99 1 -5 -11 -23 -27 -40 -39 -42 -47 -86 -27 -153 25 -87 82
-130 201 -153 144 -28 237 5 266 93 14 41 5 131 -16 172 -8 16 -15 34 -15 40
0 11 67 13 157 4 l61 -7 5 -39 c3 -21 24 -70 47 -109 68 -115 144 -155 315
-166 90 -6 90 -6 170 35 107 54 161 113 170 186 4 29 5 66 3 82 -2 25 2 32 32
47 l35 19 -46 -7 c-39 -5 -48 -3 -54 12 -6 17 -8 16 -15 -3 -7 -18 -23 -22
-121 -34 -160 -18 -490 -15 -506 6 -8 11 -13 12 -19 3 -7 -12 -174 -8 -271 7
-47 7 -61 -9 -17 -20 52 -13 96 -175 64 -236 -41 -77 -208 -97 -325 -39 -77
38 -115 97 -115 177 0 28 9 44 45 79 l45 45 122 -5 c68 -3 116 -4 108 -2 -21
6 -167 26 -215 29 -79 5 -150 60 -186 144 -37 85 -39 81 132 389 54 96 254
401 315 478 54 68 121 171 165 252 23 43 58 107 79 143 72 128 104 192 136
268 10 24 25 47 35 52 9 5 70 27 135 48 169 56 389 169 435 225 58 69 73 105
73 177 0 78 -14 107 -82 175 -47 48 -81 69 -217 138 -140 71 -278 260 -236
326 12 18 -4 65 -41 119 -35 51 -85 78 -227 122 -134 41 -191 46 -257 21z
m201 -28 c192 -58 250 -94 284 -174 27 -65 17 -73 -55 -38 -69 34 -138 45
-218 35 -43 -6 -73 -19 -131 -57 l-75 -49 -55 55 c-31 30 -69 62 -85 70 -17 9
-30 20 -30 25 0 21 83 99 128 121 85 41 133 43 237 12z m-366 -173 c24 -11 67
-44 96 -74 84 -85 93 -158 31 -243 -17 -23 -46 -50 -65 -59 -43 -21 -107 -30
-123 -17 -7 6 -30 13 -50 17 -47 8 -116 65 -145 119 -27 49 -30 124 -9 166 29
54 124 110 191 110 17 0 50 -8 74 -19z m565 -49 c80 -35 116 -94 116 -193 0
-73 -17 -114 -64 -156 -64 -56 -107 -72 -192 -72 -67 0 -84 4 -130 30 -29 16
-69 46 -89 66 -30 30 -36 41 -30 63 4 14 10 60 13 101 7 70 10 78 42 108 38
34 87 61 135 73 45 12 148 1 199 -20z m-833 -243 c12 -18 44 -50 71 -71 26
-20 48 -41 48 -45 0 -5 -37 -17 -82 -27 -46 -10 -94 -25 -108 -33 -103 -63
-191 -125 -200 -142 -13 -24 2 -27 20 -5 20 24 31 4 20 -34 -15 -53 -6 -189
18 -249 11 -28 16 -54 12 -57 -12 -7 -92 12 -175 43 -148 54 -225 177 -163
258 38 50 70 72 168 120 119 58 146 68 243 85 l78 13 -6 61 c-7 60 5 115 25
115 5 0 20 -15 31 -32z m1168 -111 c73 -31 191 -107 233 -149 55 -56 73 -103
64 -166 -12 -91 -76 -169 -177 -219 -197 -97 -313 -139 -467 -169 -80 -15
-103 -29 -156 -93 l-34 -41 -10 32 c-24 79 -34 127 -28 136 3 5 30 22 61 37
69 35 152 105 185 156 22 34 30 39 63 39 58 0 41 20 -39 47 -83 27 -132 26
-66 -2 23 -10 42 -22 42 -27 0 -5 -19 -34 -42 -64 -58 -78 -161 -142 -298
-188 -108 -36 -289 -39 -409 -6 -82 23 -103 33 -204 102 -71 49 -97 111 -97
227 0 97 10 129 52 176 16 17 28 33 28 37 0 19 99 60 190 78 152 30 252 27
363 -11 84 -29 92 -30 103 -14 11 15 14 15 46 -1 24 -14 56 -18 124 -19 89 0
91 0 148 40 76 52 113 96 122 142 12 69 19 68 101 -3 42 -36 87 -71 102 -77z
m1021 -654 c0 -60 -6 -92 -25 -138 -23 -55 -32 -105 -20 -105 16 0 134 65 199
110 42 29 79 50 83 46 12 -12 -28 -79 -93 -157 -58 -69 -75 -99 -58 -99 3 0
41 15 84 34 82 36 174 58 207 50 11 -3 27 -19 37 -35 32 -53 -13 -95 -112
-105 -34 -4 -70 -13 -80 -20 -15 -12 -12 -13 23 -14 51 0 69 -12 61 -37 -9
-28 -43 -56 -103 -88 -29 -15 -53 -31 -53 -37 0 -6 24 -7 63 -3 52 5 66 3 86
-14 l25 -19 -83 -41 c-54 -28 -87 -39 -94 -33 -7 5 -60 12 -120 16 -121 8
-137 11 -137 35 0 44 -74 91 -142 91 -15 0 -46 10 -69 22 -62 32 -145 41 -188
21 -32 -16 -35 -16 -80 9 -25 14 -72 33 -104 42 -57 16 -58 18 -52 46 6 26 3
31 -36 50 -54 28 -116 46 -203 60 -79 12 -162 45 -170 66 -14 37 126 47 421
29 168 -9 170 -8 124 81 -16 33 -33 72 -37 88 -6 25 -5 27 12 18 11 -6 45 -35
78 -66 58 -56 95 -73 81 -38 -3 9 -9 29 -12 45 -7 34 6 35 76 5 65 -27 77 -18
55 44 -16 50 -16 99 1 105 12 4 29 -11 125 -102 91 -88 103 -89 134 -22 15 30
26 58 26 63 0 19 41 74 55 74 12 0 15 -15 15 -77z m-1616 -61 c8 -16 18 -53
22 -82 l7 -53 -33 6 c-18 4 -77 7 -131 7 l-99 0 0 54 c0 59 7 66 63 66 18 0
52 7 77 14 65 21 78 19 94 -12z m216 -41 c12 -23 6 -43 -53 -158 -23 -46 -47
-83 -53 -83 -20 0 -35 60 -28 113 5 35 16 60 38 86 57 66 78 75 96 42z m-233
-117 c12 -3 24 -12 27 -20 13 -35 -85 -226 -143 -279 -20 -17 -25 -18 -54 -6
-18 7 -67 25 -109 40 -43 14 -78 29 -78 33 0 4 16 33 36 64 20 31 50 86 67
122 l30 65 101 -6 c56 -3 111 -9 123 -13z m78 -97 c4 -17 14 -40 23 -50 13
-14 14 -22 5 -35 -6 -9 -35 -62 -64 -117 -29 -55 -66 -119 -83 -142 -126 -173
-266 -379 -266 -394 0 -4 -4 -9 -9 -11 -4 -1 -33 -41 -63 -88 -30 -47 -62 -91
-71 -98 -8 -7 -50 -22 -93 -32 -88 -22 -139 -52 -174 -104 -30 -43 -53 -56
-41 -23 19 48 84 163 102 179 10 9 19 23 19 30 0 43 207 293 243 293 6 0 14 9
17 21 5 21 60 89 151 188 98 107 207 262 253 363 16 34 33 60 37 57 4 -2 11
-19 14 -37z m760 -177 c19 -21 55 -27 55 -9 0 15 76 1 125 -23 49 -25 105 -83
106 -112 1 -11 2 -37 3 -56 1 -33 3 -35 51 -43 27 -4 51 -10 53 -12 10 -9 -32
-74 -51 -79 -42 -10 -110 4 -163 33 -49 29 -54 29 -82 15 -17 -8 -33 -21 -36
-30 -6 -17 -67 -14 -198 8 -61 10 -72 9 -119 -10 -66 -28 -77 -28 -143 4 -37
17 -56 33 -60 49 -12 48 27 101 97 130 33 13 37 19 35 46 -3 27 2 35 30 50 18
11 74 26 125 35 51 9 94 18 96 20 12 12 60 1 76 -16z m-1144 -1 c46 -15 138
-59 145 -71 8 -13 -34 -70 -111 -152 -35 -37 -75 -81 -87 -97 -13 -16 -27 -29
-33 -29 -5 0 -37 13 -70 29 -33 16 -81 35 -107 42 -27 6 -48 16 -48 21 0 5 26
37 58 71 32 34 78 87 103 117 24 30 49 60 54 67 13 15 52 16 96 2z m2815 -54
c34 -136 -125 -252 -254 -186 -66 34 -132 124 -99 136 83 30 116 39 197 55
135 26 148 25 156 -5z m-1276 5 c30 -6 61 -17 70 -25 9 -8 42 -17 74 -20 101
-8 144 -64 89 -115 -26 -25 -39 -29 -94 -29 -35 -1 -71 -1 -79 -2 -8 0 -43 5
-77 11 l-63 12 0 53 c0 34 -5 57 -15 65 -22 18 -18 39 8 50 29 12 26 12 87 0z
m-1795 -246 c65 -22 135 -66 135 -85 0 -9 -27 -45 -61 -80 -33 -35 -86 -101
-117 -147 -40 -59 -60 -81 -71 -77 -9 3 -65 13 -125 21 -72 9 -116 20 -130 31
-12 10 -23 19 -26 21 -2 2 25 31 60 66 36 34 108 108 160 164 52 56 103 102
112 102 10 0 38 -7 63 -16z m2909 -148 l27 -17 -52 -60 -52 -60 6 -65 c4 -54
10 -72 36 -104 l31 -39 -22 -13 c-13 -7 -50 -12 -84 -13 -51 0 -67 5 -102 28
-109 76 -134 213 -53 291 52 50 119 77 182 73 32 -2 68 -11 83 -21z m-3167
-237 c62 -12 120 -27 129 -34 16 -11 14 -16 -15 -58 -36 -53 -97 -181 -117
-247 -22 -71 -24 -72 -78 -60 -105 23 -386 25 -386 2 0 -4 73 -7 163 -8 160 0
235 -11 254 -37 5 -6 7 -56 5 -110 -4 -95 -5 -99 -30 -109 -37 -14 -85 -26
-162 -38 -36 -6 -102 -22 -148 -36 -87 -27 -112 -23 -112 15 0 9 -5 22 -10 27
-6 6 -13 39 -16 75 -8 82 15 177 69 284 44 89 60 112 166 240 77 94 122 128
156 120 11 -3 70 -14 132 -26z m333 -140 c0 -6 -23 -57 -52 -113 -28 -55 -55
-109 -60 -118 -12 -27 -10 -81 7 -128 8 -24 13 -45 11 -47 -11 -11 -51 13 -93
55 -60 62 -83 100 -83 140 0 70 78 172 156 202 55 21 114 26 114 9z m3115
-232 c32 -49 65 -166 65 -229 -1 -51 -7 -75 -34 -128 -27 -53 -38 -66 -60 -68
-45 -6 -134 71 -167 143 -44 94 -8 208 85 272 57 39 90 42 111 10z m-3462
-389 c14 -40 31 -87 38 -105 12 -28 11 -34 -6 -53 -20 -22 -170 -110 -187
-110 -6 0 -48 25 -94 55 -85 57 -184 156 -184 185 0 24 117 60 275 85 139 22
130 25 158 -57z m1681 46 c9 -25 7 -90 -5 -121 -14 -37 -92 -106 -159 -140
-112 -57 -311 -28 -399 57 -43 42 -101 145 -101 180 0 22 -24 20 362 24 70 1
130 5 134 9 4 4 42 7 85 7 61 0 78 -3 83 -16z m593 -135 c45 -22 71 -43 97
-78 50 -68 58 -94 45 -145 -10 -42 -13 -44 -62 -55 -51 -11 -206 -25 -404 -35
l-102 -6 -20 29 c-42 59 -16 168 55 230 45 40 132 82 189 92 64 11 135 0 202
-32z m-2160 -159 c60 -90 55 -95 -70 -82 -96 11 -161 34 -155 54 4 10 153 96
170 97 5 1 29 -31 55 -69z"/>
<path d="M1707 3912 c-39 -40 -45 -84 -16 -111 25 -23 33 -25 99 -21 48 2 74
19 96 62 13 24 13 32 0 57 -17 32 -40 41 -107 41 -37 0 -50 -5 -72 -28z"/>
<path d="M2117 3908 c-11 -8 -20 -33 -23 -63 -5 -41 -2 -55 15 -77 42 -52 143
-61 176 -15 33 47 15 95 -53 138 -49 31 -88 37 -115 17z"/>
<path d="M3805 2178 c-94 -18 -156 -92 -136 -164 14 -50 66 -111 107 -124 42
-14 107 -9 149 11 104 50 96 205 -13 269 -36 22 -35 22 -107 8z m119 -39 c55
-43 71 -111 39 -168 -20 -35 -85 -71 -129 -71 -67 0 -144 71 -144 133 0 58 48
110 110 120 63 10 98 6 124 -14z"/>
</g>
</svg>
