<?xml version="1.0" standalone="no"?>
<!DOCTYPE svg PUBLIC "-//W3C//DTD SVG 20010904//EN"
 "http://www.w3.org/TR/2001/REC-SVG-20010904/DTD/svg10.dtd">
<svg version="1.0" xmlns="http://www.w3.org/2000/svg"
 width="955.000000pt" height="701.000000pt" viewBox="0 0 955.000000 701.000000"
 preserveAspectRatio="xMidYMid meet">
<metadata>
Created by potrace 1.16, written by Peter Selinger 2001-2019
</metadata>
<g transform="translate(0.000000,701.000000) scale(0.100000,-0.100000)"
fill="#000000" stroke="none">
<path d="M5543 6604 c-22 -53 -65 -124 -74 -124 -5 0 -9 -6 -9 -13 0 -15 -108
-99 -190 -148 -30 -18 -62 -39 -71 -46 -11 -9 -26 -12 -44 -7 -26 6 -27 5 -22
-17 3 -13 7 -69 8 -124 4 -120 16 -112 -186 -115 -113 -2 -131 -4 -95 -11 25
-5 57 -7 72 -3 44 9 191 -15 206 -34 10 -13 11 -69 6 -257 -3 -132 -10 -244
-14 -249 -10 -10 -297 -19 -362 -10 -39 5 -49 10 -57 32 l-9 27 -1 -31 c-1
-22 5 -34 16 -39 10 -3 105 -6 212 -6 117 1 191 -3 185 -8 -5 -5 -56 -24 -114
-42 l-105 -32 -195 12 c-212 13 -291 30 -326 68 -13 14 -44 60 -70 102 -105
170 -128 200 -193 259 -99 90 -111 98 -203 143 -100 50 -170 60 -246 35 -48
-16 -71 -36 -174 -153 -11 -13 -26 -23 -32 -23 -7 0 -44 31 -82 70 -80 81
-193 144 -289 161 -83 15 -217 6 -290 -19 -56 -19 -61 -20 -79 -4 -10 9 -24
29 -31 43 -19 37 -117 109 -147 109 -85 0 -202 -92 -458 -360 -169 -178 -200
-215 -200 -242 0 -25 60 -24 93 2 14 11 28 20 31 20 4 0 52 22 109 49 129 62
180 71 242 41 25 -12 45 -29 45 -37 0 -9 -58 -104 -130 -211 -71 -107 -130
-201 -130 -208 0 -7 -8 -19 -19 -26 -10 -7 -31 -32 -47 -54 -16 -23 -51 -69
-77 -103 -148 -189 -221 -413 -198 -611 9 -84 21 -110 104 -233 73 -109 163
-183 317 -262 30 -15 62 -33 70 -40 20 -16 165 -83 199 -92 14 -3 55 -19 91
-35 35 -16 99 -40 142 -54 71 -23 80 -29 114 -77 21 -29 68 -110 104 -182 37
-71 76 -146 88 -165 26 -41 27 -50 8 -50 -7 0 -29 -7 -47 -15 l-34 -15 48 6
c40 5 47 4 47 -11 0 -12 5 -15 20 -10 16 5 31 -5 68 -47 60 -68 136 -143 193
-190 39 -33 41 -37 21 -38 -19 0 -22 -4 -17 -20 5 -16 -9 -35 -69 -91 -80 -75
-112 -119 -117 -159 -10 -89 110 -117 234 -55 31 16 91 61 134 102 43 40 88
76 101 79 13 4 51 -3 88 -15 38 -12 115 -25 181 -31 64 -5 118 -11 121 -14 2
-3 -10 -41 -27 -84 -23 -56 -45 -91 -77 -123 -79 -77 -95 -184 -34 -217 107
-56 374 138 530 385 63 100 66 103 102 103 20 0 63 7 95 15 62 16 147 29 278
45 200 24 472 75 575 108 19 6 46 13 60 16 14 3 41 8 60 12 l34 7 -39 -54
c-22 -30 -55 -73 -75 -97 -34 -42 -36 -43 -82 -37 -26 4 -53 3 -60 -2 -9 -5 0
-10 25 -13 21 -3 38 -9 39 -15 1 -11 -61 -46 -113 -64 -18 -6 -30 -14 -27 -17
9 -8 93 23 138 51 37 24 42 24 64 10 31 -20 59 -74 55 -105 -4 -22 -34 -45
-84 -64 -5 -2 -7 -7 -3 -11 4 -4 27 0 51 9 24 9 51 14 61 10 11 -4 16 -1 16
14 0 25 7 31 115 87 50 26 101 56 114 67 14 10 61 36 105 57 91 43 256 180
256 212 0 5 5 9 10 9 6 0 10 5 10 10 0 6 17 36 39 68 57 84 77 146 63 186 -19
51 -15 71 32 149 51 87 136 258 136 275 0 6 9 36 20 66 23 60 8 53 160 75 36
6 99 15 140 22 41 6 82 11 90 11 24 -1 58 60 65 114 13 103 2 95 118 90 94 -5
96 -4 26 3 -105 11 -119 21 -120 79 l-2 47 -6 -42 c-7 -43 -17 -61 -27 -51 -3
3 -5 51 -5 107 0 56 -4 101 -10 101 -5 0 -9 -44 -9 -98 0 -54 -3 -102 -7 -106
-8 -8 -9 -10 -11 -118 -1 -45 -7 -72 -17 -82 -16 -15 -70 -33 -123 -41 -30 -4
-171 -32 -216 -41 -27 -6 -29 -5 -23 17 18 66 29 312 19 406 -6 53 -9 100 -6
105 3 4 16 8 30 8 67 0 89 57 34 88 -16 9 -30 23 -30 30 0 9 -5 10 -19 2 -44
-23 -55 -13 -100 88 -36 78 -45 111 -49 170 -2 39 -8 72 -13 72 -5 0 -7 -11
-3 -24 11 -44 -6 -49 -37 -10 -16 20 -29 42 -29 49 0 21 43 27 58 8 11 -15 12
-15 12 5 0 15 14 31 42 50 50 33 101 84 136 135 14 21 36 40 51 44 87 20 161
85 161 141 0 28 -9 28 -70 -3 -27 -14 -53 -25 -58 -25 -5 0 -15 27 -21 59 -6
32 -22 74 -34 92 -31 47 -101 81 -148 74 -22 -4 -40 -2 -43 4 -4 6 0 88 9 184
9 95 17 205 19 245 3 71 8 87 29 87 20 0 18 22 -3 28 -17 4 -20 13 -20 55 0
121 6 135 98 233 46 49 82 92 80 94 -3 3 -16 -7 -30 -22 -14 -16 -54 -53 -91
-83 -71 -60 -101 -100 -79 -107 8 -3 12 -28 12 -78 0 -90 -4 -93 -108 -89 -86
4 -81 0 27 -17 l73 -11 -7 -122 c-5 -66 -10 -134 -11 -151 -31 -289 -26 -269
-59 -285 -24 -12 -68 -15 -230 -12 -110 1 -225 6 -255 10 -47 6 -54 10 -51 27
2 11 4 137 6 280 1 143 5 272 9 288 7 24 13 27 50 28 22 1 32 3 21 6 -72 15
-66 5 -64 101 2 76 -1 95 -23 142 -36 76 -58 170 -65 273 -3 48 -9 89 -12 92
-4 2 -38 6 -76 10 l-70 7 -12 -28z m141 -66 c4 -35 12 -81 17 -103 6 -22 15
-58 20 -80 6 -22 21 -68 35 -102 13 -34 24 -65 23 -70 0 -4 -14 -19 -30 -32
-28 -22 -30 -22 -28 -5 2 10 -4 39 -13 64 -9 25 -33 99 -53 165 -73 236 -72
225 -15 225 l37 0 7 -62z m-86 -49 c30 -94 82 -280 80 -288 -1 -3 2 -51 6
-106 5 -68 2 -156 -9 -275 -9 -96 -19 -223 -22 -283 -3 -59 -9 -109 -13 -112
-4 -2 -32 2 -61 11 -91 25 -255 30 -338 9 -40 -9 -75 -14 -79 -10 -6 6 -5 786
1 791 1 0 47 28 101 60 117 70 189 134 248 221 24 35 47 62 53 60 5 -2 20 -37
33 -78z m-3036 -381 c43 -23 85 -62 114 -106 l28 -43 -90 -87 c-49 -48 -111
-117 -138 -154 -48 -68 -59 -77 -72 -57 -3 6 -27 20 -52 30 -72 31 -107 20
-377 -111 -33 -16 -61 -27 -63 -25 -12 11 19 53 106 141 53 55 129 133 167
174 39 41 99 100 134 130 35 30 69 60 76 66 22 22 90 53 116 54 15 0 37 -6 51
-12z m3214 -40 c3 -42 1 -48 -16 -48 -11 0 -20 -4 -20 -10 0 -5 7 -10 15 -10
12 0 14 -39 11 -282 -2 -156 -7 -291 -11 -300 -9 -23 -48 -23 -70 -1 -14 14
-16 33 -12 132 3 64 9 168 15 231 6 63 13 159 15 213 4 81 8 101 23 112 33 25
47 14 50 -37z m-2630 -86 c77 -24 140 -67 229 -156 78 -78 142 -160 197 -251
41 -66 79 -106 151 -154 46 -32 67 -63 27 -41 -11 6 -20 7 -20 3 0 -9 11 -19
76 -70 35 -27 44 -43 62 -105 12 -41 28 -114 37 -164 18 -106 21 -120 30 -155
4 -15 2 -29 -3 -33 -5 -3 -5 -30 0 -67 4 -33 6 -65 3 -70 -3 -4 -8 -46 -10
-91 -9 -166 -18 -224 -51 -318 -31 -91 -59 -148 -94 -195 -29 -39 -176 -178
-217 -207 -24 -16 -43 -33 -43 -38 0 -6 -5 -10 -11 -10 -6 0 -25 -11 -42 -24
-30 -23 -57 -35 -192 -87 -27 -11 -60 -25 -73 -31 -30 -16 -219 -16 -380 0
-118 11 -143 17 -225 53 -50 22 -132 56 -181 76 -50 19 -101 44 -115 54 -13
11 -43 29 -65 39 -138 68 -233 143 -302 241 -82 116 -105 169 -111 254 -8 103
0 118 36 68 32 -44 99 -102 147 -126 52 -26 156 -64 199 -71 82 -14 95 -18 89
-27 -3 -6 1 -18 9 -27 28 -32 48 -118 54 -222 3 -58 8 -109 12 -113 12 -12
203 -76 278 -93 168 -37 274 -47 381 -36 57 7 107 14 112 17 42 26 32 396 -13
453 -14 18 -23 15 -61 -18 -18 -17 -59 -45 -90 -64 -74 -44 -154 -47 -297 -11
-173 43 -316 91 -339 112 -13 12 -3 13 65 7 89 -7 208 12 251 41 60 39 56 107
-15 252 -27 54 -51 117 -55 140 -14 93 -103 245 -155 265 l-26 9 26 20 c41 30
61 67 76 144 19 101 17 158 -6 179 -16 14 -21 15 -30 4 -7 -7 -27 -31 -46 -53
-39 -44 -52 -80 -61 -172 -5 -45 -3 -67 6 -78 21 -26 -1 -40 -41 -26 -77 27
-164 6 -223 -52 -42 -42 -215 -171 -221 -165 -10 11 105 203 153 253 10 11 27
34 38 50 10 17 35 50 55 75 21 25 65 92 100 150 34 58 92 146 129 195 36 50
85 117 107 150 98 144 265 294 356 319 29 8 66 17 82 20 56 8 180 -3 241 -22z
m648 -44 c14 -6 33 -22 41 -35 9 -12 20 -23 26 -23 6 0 3 7 -5 16 -18 17 -21
34 -6 34 5 0 40 -16 77 -36 129 -69 231 -168 309 -300 32 -54 61 -101 65 -104
4 -3 24 -34 44 -70 21 -36 51 -81 67 -101 29 -38 34 -54 19 -63 -5 -3 -58 -15
-117 -27 -146 -28 -206 -22 -345 37 -74 31 -109 51 -116 67 -6 13 -46 50 -89
82 -85 66 -130 107 -156 145 -94 133 -128 187 -128 198 0 23 104 142 125 143
77 5 121 -14 177 -74 21 -23 38 -36 38 -29 0 18 -58 79 -98 103 -49 30 -48 29
-32 39 21 13 74 12 104 -2z m1721 -513 c153 -30 206 -47 221 -70 10 -15 21
-21 34 -18 35 9 141 -61 225 -149 77 -79 155 -179 155 -196 0 -5 11 -19 25
-32 28 -27 105 -152 105 -172 0 -7 9 -19 21 -26 27 -17 59 -88 59 -134 0 -27
6 -40 21 -48 31 -17 68 -109 98 -245 12 -50 17 -347 7 -375 -3 -8 -7 -40 -10
-70 -8 -97 -43 -209 -100 -316 -20 -37 -36 -72 -36 -79 0 -7 -13 -29 -29 -49
-17 -21 -40 -58 -52 -82 -21 -44 -21 -46 -4 -85 18 -39 18 -39 -10 -104 -15
-36 -39 -81 -54 -100 -14 -19 -44 -59 -66 -90 -22 -30 -44 -55 -50 -55 -5 0
-31 -20 -57 -44 -26 -25 -71 -56 -100 -70 -29 -15 -75 -40 -103 -56 -70 -41
-228 -124 -242 -128 -7 -2 -19 12 -26 30 -8 18 -26 44 -41 57 -14 14 -26 29
-26 34 0 4 21 36 48 70 26 34 52 69 57 78 48 76 55 82 153 126 90 40 109 54
185 131 47 48 108 114 136 147 57 65 142 208 161 270 7 22 16 50 21 63 5 13 9
40 8 60 0 31 -3 26 -15 -28 -22 -104 -106 -255 -200 -360 -12 -14 -44 -50 -70
-80 -70 -80 -127 -124 -222 -170 -85 -42 -253 -99 -352 -120 -30 -7 -80 -19
-110 -27 -82 -23 -262 -54 -406 -72 -39 -4 -75 -10 -80 -13 -5 -3 -37 -9 -71
-12 -34 -3 -87 -13 -119 -21 -56 -15 -114 -20 -114 -10 0 2 9 27 20 55 26 67
97 170 115 170 8 0 15 7 15 15 0 45 -55 -13 -122 -128 -27 -45 -48 -85 -48
-89 0 -4 -22 -41 -50 -81 -27 -41 -50 -77 -50 -82 0 -8 -89 -115 -127 -153
-23 -23 -43 -22 -43 2 0 17 -39 61 -67 75 -12 6 -47 11 -77 11 -67 0 -67 3
-26 95 34 76 75 289 65 336 -11 48 -33 36 -28 -15 6 -47 -24 -233 -40 -253
-27 -35 -274 1 -391 56 -33 16 -83 39 -111 52 -100 46 -211 129 -311 231 -118
121 -179 204 -235 320 -53 110 -110 213 -131 238 -10 11 -18 27 -18 36 0 13
11 14 73 9 39 -4 77 -8 82 -9 6 -2 54 0 109 5 83 7 118 16 220 56 66 26 126
51 131 56 6 4 56 41 112 82 56 41 105 81 110 88 4 7 27 28 51 47 23 18 57 56
74 84 18 28 35 53 38 56 32 30 87 190 104 300 18 117 27 425 14 480 -4 19 -12
65 -18 103 -5 37 -14 75 -19 85 -11 22 -32 134 -26 140 3 3 31 -5 62 -17 95
-37 185 -61 229 -61 57 0 225 34 323 66 10 3 -1 19 -33 50 -44 42 -56 74 -25
65 8 -2 52 -8 99 -13 293 -30 349 -41 433 -81 40 -19 101 -57 136 -86 35 -28
67 -49 70 -46 12 13 -128 119 -218 165 -34 18 -40 25 -28 32 20 11 133 46 189
58 24 5 75 18 113 29 83 23 184 25 280 6z m981 -45 c44 -15 75 -69 81 -139 6
-65 4 -68 -47 -73 -25 -3 -25 -2 -22 59 3 51 1 64 -17 82 -12 12 -34 21 -51
21 -24 0 -34 -8 -56 -46 l-28 -47 20 -36 c33 -62 94 -76 209 -50 28 6 67 21
87 32 48 26 60 15 24 -22 -71 -74 -220 -76 -335 -4 -81 51 -82 185 -2 189 17
1 38 5 47 8 16 6 15 8 -2 21 -18 13 -16 14 22 15 23 0 54 -5 70 -10z m-414
-30 l210 0 -7 -40 c-9 -51 18 -140 51 -171 16 -15 24 -34 24 -56 0 -32 -4 -36
-62 -63 -95 -45 -103 -43 -173 51 -64 87 -208 230 -256 254 -30 16 -41 42 -13
31 9 -3 110 -6 226 -6z m411 -266 c20 -4 37 -11 37 -16 0 -5 -19 -34 -42 -64
-40 -53 -81 -84 -112 -84 -8 0 -26 -11 -40 -25 -36 -36 -72 -33 -96 8 -11 17
-20 37 -20 44 0 6 28 22 63 35 56 22 63 23 74 9 11 -14 12 -14 13 4 0 22 58
94 75 95 6 0 27 -3 48 -6z m-4214 -120 c46 -27 111 -82 111 -95 0 -4 27 -54
60 -111 38 -67 84 -129 130 -176 96 -98 122 -166 85 -219 -18 -26 -88 -49
-170 -57 -132 -13 -388 39 -491 99 -131 77 -199 222 -144 309 24 40 52 65 163
145 48 35 93 72 100 81 11 15 79 48 101 49 5 1 30 -11 55 -25z m78 4 c26 -11
55 -20 64 -19 37 4 130 -158 143 -251 4 -26 11 -50 17 -53 12 -8 12 -35 0 -35
-15 0 -93 114 -141 205 -44 83 -91 141 -122 151 -10 3 -18 10 -18 15 0 12 2
12 57 -13z m764 -750 c7 -13 15 -74 17 -135 l5 -113 -26 0 c-62 0 -177 -34
-275 -81 l-105 -51 -70 11 c-38 6 -94 21 -125 32 -32 11 -73 25 -92 31 -54 15
-61 27 -70 129 -4 52 -14 113 -21 136 -7 23 -10 45 -7 48 3 3 55 -10 114 -29
178 -56 206 -64 275 -77 102 -19 186 -6 256 40 32 21 67 48 77 59 24 28 32 28
47 0z m16 -280 c7 -13 6 -59 -3 -90 -10 -34 -265 -51 -319 -20 -16 8 -15 11 6
26 63 44 183 82 296 95 6 0 15 -5 20 -11z m276 -1135 c29 -41 44 -105 34 -145
-10 -37 -128 -98 -193 -98 -66 0 -103 61 -71 116 17 30 180 174 192 171 6 -2
23 -22 38 -44z m717 -260 c29 -16 50 -51 50 -79 0 -38 -38 -77 -121 -125 -72
-41 -95 -49 -136 -49 -42 0 -52 4 -63 25 -23 43 4 110 73 183 59 61 61 62 115
62 32 0 65 -7 82 -17z"/>
<path d="M2842 5210 c-19 -22 -49 -70 -68 -107 -27 -54 -34 -80 -34 -125 l0
-58 33 0 c17 0 37 4 42 8 15 10 65 98 65 114 0 7 14 40 30 73 35 69 37 95 12
118 -27 25 -43 20 -80 -23z"/>
<path d="M2063 4742 c-103 -97 -119 -146 -57 -174 24 -11 29 -10 48 14 11 15
32 57 45 93 13 36 34 79 47 94 13 16 24 34 24 40 0 25 -29 7 -107 -67z"/>
<path d="M2306 4769 c-3 -13 -7 -37 -10 -54 -2 -16 -10 -63 -17 -103 -12 -68
-11 -74 7 -99 41 -54 112 -55 140 -1 15 29 15 33 0 59 -9 15 -23 45 -30 66 -7
21 -30 65 -49 97 -32 53 -36 57 -41 35z m73 -155 c29 -76 28 -102 -6 -110 -59
-15 -87 34 -72 126 5 35 13 68 16 73 9 15 40 -28 62 -89z"/>
<path d="M6713 6495 c-38 -32 -83 -92 -83 -109 0 -4 21 16 47 44 26 29 55 56
65 61 27 15 84 -27 158 -117 35 -43 67 -81 71 -84 3 -3 22 -29 42 -57 l37 -52
-4 -93 c-3 -51 -16 -147 -31 -213 -14 -66 -31 -163 -36 -215 -5 -52 -12 -110
-15 -129 -4 -21 -3 -32 3 -28 6 4 16 48 22 99 17 122 58 364 77 455 16 71 35
105 49 83 10 -16 -3 -181 -15 -195 -8 -10 -8 -19 0 -34 6 -12 10 -27 9 -34 -3
-25 1 -38 11 -32 6 3 7 18 4 32 -9 34 7 42 81 44 59 2 55 3 -34 15 l-44 6 7
96 c4 53 14 110 22 126 16 32 16 31 -47 102 -20 22 -54 71 -77 110 -60 102
-94 130 -167 138 -33 4 -71 9 -85 12 -19 3 -36 -4 -67 -31z m215 -25 c18 -11
47 -41 65 -67 17 -25 55 -78 84 -116 42 -57 50 -74 42 -89 -11 -21 -19 -22
-42 -5 -21 15 -237 279 -237 290 0 14 56 6 88 -13z"/>
<path d="M8035 6333 c-55 -47 -141 -125 -191 -172 l-91 -86 3 -48 c4 -69 14
-71 14 -4 0 55 1 56 43 81 23 14 78 62 122 108 93 95 190 169 210 162 8 -3 17
-13 20 -22 3 -10 18 -31 33 -49 15 -17 35 -46 45 -64 10 -17 20 -29 24 -25 3
3 -1 14 -9 23 -23 27 -88 139 -88 152 0 6 11 11 25 11 18 0 35 -14 66 -56 46
-63 66 -66 25 -4 -14 22 -26 42 -26 45 0 20 -34 35 -77 35 -46 -1 -53 -4 -148
-87z"/>
<path d="M8370 6195 c0 -12 102 -140 138 -174 25 -23 25 -24 7 -37 -23 -17
-65 -18 -65 -2 0 6 -17 27 -38 47 -20 20 -50 52 -65 71 -16 19 -25 28 -21 20
11 -23 46 -71 71 -99 26 -29 26 -50 -2 -286 -8 -71 -14 -150 -13 -175 1 -31 2
-36 5 -15 26 202 55 391 61 396 4 4 20 9 37 11 22 2 31 -1 33 -15 2 -10 -4
-24 -13 -31 -16 -11 -16 -14 -1 -28 9 -9 16 -32 16 -50 0 -25 3 -29 10 -18 5
8 10 25 10 37 l0 23 138 -6 c75 -4 155 -10 177 -13 l40 -7 -3 -59 c-2 -33 -10
-91 -18 -128 -9 -44 -14 -133 -14 -245 0 -97 -4 -183 -9 -191 -6 -9 -36 -17
-83 -21 l-73 -6 90 -7 c50 -4 104 -10 122 -13 17 -2 34 0 38 6 6 9 28 202 39
345 4 47 2 65 -4 55 -5 -8 -10 -37 -10 -64 0 -88 -23 -276 -35 -292 -7 -11
-19 -14 -33 -10 -18 6 -21 16 -24 89 -3 89 17 427 30 492 7 37 10 40 44 43 48
4 62 -20 56 -99 -6 -82 8 -74 16 9 4 37 9 74 12 83 6 23 -11 28 -129 35 -56 3
-105 8 -110 11 -4 2 -54 4 -111 4 -86 -1 -108 2 -127 17 -22 18 -22 20 -5 53
l17 34 -42 39 c-23 21 -56 58 -74 81 -45 59 -85 102 -85 90z"/>
<path d="M8735 4594 c-12 -9 -13 -14 -4 -19 17 -11 5 -405 -15 -504 -17 -83
-28 -101 -62 -101 -39 0 -37 -19 3 -25 21 -4 58 -10 83 -15 29 -6 49 -5 57 2
21 17 15 28 -10 17 -32 -15 -82 5 -72 29 4 9 11 53 15 97 5 44 14 103 20 130
7 31 10 111 8 210 l-3 160 38 3 c44 4 46 0 57 -100 l7 -73 2 88 c0 48 2 90 4
95 4 13 -111 18 -128 6z"/>
<path d="M2430 3399 c-25 -11 -55 -31 -66 -45 -22 -26 -23 -26 -185 -29 -198
-4 -492 -16 -500 -21 -4 -2 -150 -6 -325 -9 -304 -4 -317 -4 -284 12 29 14 32
17 15 20 -27 5 -97 -19 -102 -34 -2 -6 9 -14 25 -18 32 -7 931 13 944 21 11 7
363 6 392 -2 22 -5 26 -3 26 17 1 36 33 67 84 81 59 16 76 6 95 -54 14 -45 15
-46 70 -57 31 -7 76 -16 101 -21 105 -22 107 -21 55 5 -30 15 -67 25 -93 25
-63 0 -108 22 -116 56 -19 76 -53 89 -136 53z"/>
<path d="M1477 2954 c-2 -2 -53 -11 -113 -19 -60 -9 -131 -20 -159 -25 -70
-13 -357 -41 -500 -49 -104 -5 -123 -9 -141 -27 -20 -20 -21 -25 -9 -75 32
-136 48 -502 23 -527 -18 -18 10 -61 50 -78 19 -7 55 -31 81 -52 25 -21 62
-48 81 -60 20 -11 46 -32 59 -46 14 -14 29 -26 34 -26 5 0 28 -16 51 -36 23
-20 77 -63 121 -95 44 -33 128 -96 187 -142 59 -45 123 -93 143 -107 19 -14
47 -35 61 -48 14 -12 38 -30 52 -40 15 -9 46 -32 70 -50 23 -19 42 -30 42 -24
0 10 -132 115 -233 186 -77 53 -152 110 -162 121 -9 11 -262 210 -350 275 -22
17 -87 67 -145 113 l-105 82 -6 175 c-14 381 -14 370 -1 370 4 0 68 -36 142
-80 74 -44 138 -80 143 -80 19 0 -8 22 -76 59 -98 55 -210 134 -205 146 7 20
58 -1 241 -98 37 -20 67 -32 67 -26 0 5 -10 13 -22 18 -44 17 -192 107 -195
118 -3 9 19 12 74 11 43 0 114 5 157 12 44 6 93 13 110 15 17 1 37 3 44 4 6 0
12 7 12 14 0 12 31 19 190 42 19 3 62 10 95 15 76 12 81 12 70 1 -12 -11 -103
-29 -232 -45 -50 -6 -95 -14 -98 -18 -12 -12 97 -7 167 7 37 8 97 16 135 20
57 5 73 3 99 -14 38 -23 44 -50 53 -220 4 -85 10 -116 20 -119 12 -4 13 14 6
109 -9 151 -10 178 -2 186 8 8 105 -33 292 -122 168 -80 234 -109 240 -103 3
3 -19 15 -48 28 -61 28 -411 194 -446 212 -29 16 -39 38 -16 38 16 0 41 -10
236 -101 58 -27 112 -49 120 -49 13 1 -98 58 -263 134 -45 21 -82 46 -89 59
-7 12 -17 25 -23 29 -11 8 -122 9 -129 2z"/>
<path d="M1366 2550 c44 -7 124 -30 207 -62 18 -7 30 -21 35 -42 l8 -31 71 3
c61 3 79 0 139 -28 75 -34 112 -69 121 -113 6 -28 23 -40 73 -51 14 -3 35 -21
48 -41 24 -38 49 -43 125 -26 70 16 147 -26 147 -81 0 -19 5 -28 16 -28 9 0
30 -16 46 -35 17 -19 47 -40 67 -46 20 -6 73 -28 117 -50 45 -21 86 -39 92
-39 6 0 22 11 34 23 13 13 45 32 71 42 48 18 48 18 79 -5 28 -21 36 -22 84
-13 67 12 106 -4 140 -58 20 -32 28 -37 51 -33 14 3 30 7 34 10 16 10 78 -25
91 -52 9 -20 27 -32 66 -44 30 -10 68 -31 85 -48 18 -16 46 -37 64 -46 18 -9
36 -22 40 -30 4 -7 18 -18 30 -25 19 -9 28 -6 70 26 26 20 50 40 51 45 7 16
47 8 60 -12 10 -16 16 -18 38 -9 30 11 124 22 168 20 49 -3 88 -49 65 -77 -14
-17 -8 -25 17 -24 11 0 51 3 89 5 193 11 254 9 273 -8 21 -19 23 4 -24 -277
-14 -85 -28 -166 -30 -180 -2 -14 -10 -56 -18 -95 -40 -194 -59 -280 -65 -285
-3 -3 -6 -12 -6 -20 0 -12 -21 -16 -105 -21 -58 -4 -168 -16 -245 -27 -77 -11
-166 -23 -197 -27 -32 -4 -58 -11 -58 -17 0 -5 12 -7 28 -4 15 4 63 11 107 16
44 6 116 16 160 22 44 7 136 12 205 13 69 0 130 4 137 8 6 4 9 15 6 25 -4 17
7 93 46 302 27 149 49 267 66 366 8 47 22 111 30 143 8 33 15 71 15 86 0 24
-3 26 -29 20 -17 -4 -40 -1 -53 6 -13 7 -46 16 -75 20 -32 4 -75 21 -110 42
-32 20 -87 46 -123 60 -36 13 -83 34 -105 47 -77 43 -111 60 -197 99 -49 22
-88 38 -88 35 0 -2 36 -22 81 -45 45 -22 79 -43 76 -46 -3 -3 -45 14 -93 36
-48 23 -89 39 -91 37 -8 -8 40 -34 127 -69 47 -19 119 -53 160 -76 41 -23 127
-67 190 -98 l115 -56 -40 -8 c-22 -4 -64 -8 -92 -8 -50 -1 -53 0 -53 24 0 14
-11 37 -25 50 -21 22 -33 25 -92 25 -37 0 -86 -5 -107 -11 -34 -9 -42 -8 -67
10 -38 28 -45 27 -91 -14 -65 -60 -81 -63 -123 -26 -20 17 -40 31 -45 31 -5 0
-30 18 -55 40 -25 22 -49 40 -53 41 -65 8 -92 21 -92 44 0 29 -51 55 -109 55
-52 1 -57 3 -76 32 -31 49 -71 68 -123 58 -33 -6 -55 -3 -94 12 -49 18 -54 18
-102 3 -28 -9 -61 -26 -73 -37 -21 -19 -26 -20 -68 -8 -25 7 -56 20 -68 30
-12 9 -48 27 -81 40 -32 13 -61 31 -63 40 -2 9 -17 24 -32 33 -17 10 -31 28
-34 46 -5 21 -18 37 -50 55 -47 28 -86 32 -136 15 -44 -16 -76 -5 -99 35 -15
26 -30 37 -56 42 -30 5 -39 13 -55 49 -30 69 -151 135 -247 135 -46 0 -58 4
-77 26 -12 14 -30 30 -40 36 -35 18 -202 58 -242 57 -39 -1 -39 -2 11 -9z"/>
<path d="M3603 1555 c-44 -7 -121 -21 -170 -33 -82 -19 -218 -46 -355 -72 -53
-11 -60 -10 -103 14 -114 65 -139 78 -127 65 7 -8 36 -28 65 -45 29 -17 54
-39 56 -49 3 -16 -2 -17 -44 -12 l-47 7 48 -34 c56 -38 53 -18 41 -241 -3 -79
-3 -133 2 -125 5 8 11 67 15 130 6 120 18 180 40 202 7 7 20 25 29 39 15 23
33 29 150 53 72 15 189 40 259 57 70 16 144 29 165 29 47 0 83 9 83 21 0 11
-2 11 -107 -6z"/>
<path d="M2947 883 c-3 -5 -8 -53 -11 -108 -9 -125 -24 -205 -39 -205 -7 0
-46 21 -87 45 -102 62 -114 57 -15 -7 44 -28 91 -62 105 -75 18 -18 31 -23 50
-19 87 20 122 28 180 41 36 8 115 16 175 19 61 2 139 9 175 16 36 7 76 14 89
17 13 2 21 6 18 9 -3 3 -60 -2 -127 -10 -67 -9 -150 -16 -185 -16 -35 0 -96
-6 -137 -14 -40 -8 -104 -17 -141 -21 l-68 -7 5 38 c3 22 8 71 11 109 3 39 8
98 11 133 6 56 3 75 -9 55z"/>
</g>
</svg>
