<?xml version="1.0" standalone="no"?>
<!DOCTYPE svg PUBLIC "-//W3C//DTD SVG 20010904//EN"
 "http://www.w3.org/TR/2001/REC-SVG-20010904/DTD/svg10.dtd">
<svg version="1.0" xmlns="http://www.w3.org/2000/svg"
 width="768.000000pt" height="542.000000pt" viewBox="0 0 768.000000 542.000000"
 preserveAspectRatio="xMidYMid meet">
<metadata>
Created by potrace 1.16, written by Peter Selinger 2001-2019
</metadata>
<g transform="translate(0.000000,542.000000) scale(0.100000,-0.100000)"
fill="#000000" stroke="none">
<path d="M110 2710 l0 -2620 3730 0 3730 0 0 2620 0 2620 -3730 0 -3730 0 0
-2620z m690 2566 c0 -36 -20 -107 -57 -196 -3 -9 -9 3 -14 29 -10 54 -11 55
-46 43 -27 -9 -28 -11 -25 -73 1 -35 9 -86 16 -114 8 -27 20 -79 26 -114 21
-120 110 -257 225 -349 72 -58 99 -97 75 -112 -7 -4 -19 -6 -26 -3 -7 2 -18
-5 -24 -17 -8 -15 -18 -20 -32 -16 -15 3 -29 -4 -49 -25 -20 -21 -36 -29 -62
-29 -20 0 -39 5 -42 10 -4 6 -15 8 -26 5 -12 -4 -21 -1 -25 10 -5 12 -9 13
-20 4 -11 -9 -18 -8 -31 2 -14 12 -17 12 -21 -1 -3 -8 -24 -34 -46 -58 -32
-34 -50 -44 -83 -49 -47 -6 -73 7 -73 38 0 28 -12 23 -38 -16 -19 -30 -27 -35
-62 -35 -25 0 -41 5 -42 13 0 6 -1 19 -2 27 -1 22 -11 18 -37 -14 -21 -26 -23
-27 -35 -11 -8 11 -20 15 -32 11 -13 -5 -22 -1 -26 10 -5 13 -9 14 -21 4 -13
-11 -15 3 -15 109 0 68 4 120 9 117 5 -3 23 1 40 10 26 13 31 21 31 50 0 24
-5 37 -17 41 -10 4 -23 13 -29 21 -6 8 -16 12 -22 8 -9 -5 -12 20 -12 93 0 83
3 101 15 101 20 0 20 36 0 44 -28 10 -12 44 28 59 16 6 17 14 11 54 -4 27 -11
50 -15 51 -5 2 -9 10 -9 18 0 8 -7 17 -15 20 -12 5 -15 30 -15 140 l0 134 335
0 335 0 0 -44z m42 27 c0 -10 0 -30 -1 -45 -2 -25 1 -28 29 -28 18 0 45 8 61
17 15 9 32 14 36 9 13 -13 -42 -49 -107 -69 -9 -3 -31 -52 -54 -118 -50 -145
-47 -173 27 -285 28 -44 52 -88 53 -99 2 -60 4 -63 24 -58 11 3 20 1 20 -5 0
-11 49 -11 67 1 6 4 18 5 26 1 18 -6 32 25 17 40 -7 7 -10 4 -10 -10 0 -15 -2
-16 -9 -5 -8 12 -13 12 -24 3 -8 -7 -30 -11 -50 -10 -44 4 -58 34 -27 60 11 9
20 21 20 27 0 6 7 8 15 5 11 -5 15 1 15 22 0 26 -1 26 -13 9 -8 -10 -19 -15
-25 -11 -7 4 -12 1 -12 -8 0 -9 -6 -16 -13 -16 -15 0 -77 77 -77 96 0 17 25
24 60 18 23 -5 35 -1 58 22 16 16 31 35 33 42 3 8 26 14 61 16 54 2 108 26
108 46 0 6 5 10 10 10 16 0 11 -109 -6 -146 -21 -43 -35 -39 -49 14 -13 52
-21 59 -43 38 -17 -14 -18 -22 -8 -57 8 -30 7 -45 -2 -59 -16 -26 -15 -31 4
-23 10 4 17 -1 21 -15 2 -11 13 -22 23 -25 18 -5 18 -4 0 27 -22 40 -41 124
-29 132 9 5 13 -2 23 -46 24 -105 91 -25 89 107 -1 68 0 72 24 78 14 3 28 4
31 1 3 -4 7 -42 10 -86 4 -65 1 -89 -16 -127 -28 -66 -56 -223 -43 -236 16
-16 53 8 139 92 89 86 118 139 128 229 6 61 14 71 43 53 12 -8 12 -24 2 -98
-15 -119 -15 -123 9 -123 33 0 65 27 105 87 27 41 40 52 48 44 8 -8 8 -14 -1
-23 -17 -17 -15 -47 3 -54 8 -3 30 0 50 6 20 7 39 10 42 7 10 -11 -79 -48
-110 -45 -34 2 -99 -37 -111 -67 -14 -38 36 -38 172 1 15 4 22 2 22 -8 0 -21
-124 -62 -196 -63 -49 -1 -72 -8 -117 -34 -119 -68 -131 -146 -29 -182 47 -16
184 17 327 81 68 30 120 51 186 74 40 14 51 25 78 74 17 31 41 69 53 84 19 24
20 32 11 77 -13 65 -2 131 28 175 l24 36 3 -31 c2 -17 -4 -46 -12 -64 -27 -55
-16 -135 18 -135 7 0 26 12 41 26 39 36 53 16 18 -25 -16 -17 -40 -37 -53 -44
-29 -15 -70 -82 -70 -116 0 -24 1 -24 78 -19 42 3 93 13 113 21 46 19 220 186
266 255 40 59 111 125 165 153 20 10 39 23 42 27 3 5 1 33 -3 63 -6 35 -5 62
2 79 l11 25 3 -30 c6 -56 24 -105 38 -105 8 0 33 16 55 36 26 23 46 34 56 30
22 -8 7 -25 -57 -66 -49 -32 -64 -60 -31 -60 28 0 49 -17 36 -30 -9 -9 -20 -7
-44 5 -18 9 -42 14 -55 11 -35 -9 -131 -103 -163 -160 -16 -28 -60 -88 -97
-134 -36 -46 -64 -89 -62 -96 4 -11 24 -9 97 10 109 28 123 29 118 8 -2 -10
-36 -28 -93 -48 -49 -18 -112 -44 -140 -59 -116 -60 -168 -70 -301 -61 -119 8
-158 -2 -364 -93 -107 -47 -133 -63 -179 -111 -30 -31 -78 -93 -107 -137 -49
-76 -124 -224 -124 -245 0 -21 -28 -8 -88 40 -37 30 -72 50 -87 50 -14 0 -25
4 -25 10 0 9 62 30 93 30 36 0 16 28 -28 39 -25 6 -45 16 -45 22 0 5 -16 17
-36 25 -34 14 -53 14 -108 -3 -17 -5 -18 -1 -13 39 3 24 20 85 37 135 16 50
30 108 30 128 0 45 -32 100 -69 120 -35 17 -145 135 -182 193 -36 58 -63 141
-89 272 -26 139 -27 180 0 180 15 0 20 -7 20 -27 0 -42 11 -73 25 -73 16 0 76
170 83 233 4 45 20 65 24 30z m651 10 c-7 -2 -13 -10 -13 -16 0 -18 -32 -47
-52 -47 -20 0 -23 -11 -7 -27 13 -13 4 -33 -17 -33 -8 0 -14 -9 -14 -19 0 -22
-23 -34 -38 -19 -7 7 -9 -2 -5 -30 5 -38 4 -41 -21 -48 -20 -5 -31 -2 -40 12
-13 17 -15 16 -29 -18 -16 -39 -48 -55 -85 -44 -16 6 -22 0 -32 -29 -6 -19
-20 -40 -30 -45 -28 -15 -60 -12 -67 6 -5 15 -7 15 -15 0 -6 -11 -16 -15 -28
-11 -15 5 -23 -2 -34 -29 -8 -19 -27 -42 -41 -52 -26 -17 -28 -17 -41 1 -8 10
-14 22 -14 27 0 4 -4 8 -10 8 -5 0 -10 -9 -10 -20 0 -23 -26 -38 -41 -23 -22
22 -21 107 0 173 47 142 50 147 82 154 47 9 89 43 89 72 0 30 -18 31 -62 4
-48 -29 -58 -26 -58 20 l0 40 323 -1 c177 0 316 -3 310 -6z m1559 -20 c7 -15
24 -30 38 -33 15 -4 23 -12 21 -21 -2 -8 -6 -22 -8 -31 -4 -13 3 -17 29 -20
28 -3 33 -7 36 -33 2 -16 -2 -46 -9 -67 -15 -47 -9 -54 32 -39 46 16 63 -1 55
-52 -6 -35 -5 -39 11 -32 40 17 59 16 81 -5 24 -22 28 -59 12 -91 -9 -16 -7
-19 14 -19 47 0 71 -67 44 -125 -9 -19 -9 -28 0 -37 20 -20 13 -58 -14 -83
-17 -15 -24 -30 -20 -40 8 -21 -11 -55 -30 -55 -8 0 -25 -11 -37 -24 -12 -13
-31 -25 -41 -27 -13 -3 -23 -19 -33 -51 -9 -33 -20 -49 -36 -54 -26 -8 -61
-41 -70 -66 -3 -10 -13 -18 -22 -18 -8 0 -15 -7 -15 -15 0 -8 -7 -15 -15 -15
-8 0 -15 -6 -15 -14 0 -20 -39 -46 -67 -46 -16 0 -23 -6 -23 -19 0 -26 -38
-71 -60 -71 -9 0 -24 10 -32 22 -18 27 -38 16 -38 -22 0 -23 -5 -31 -25 -36
-14 -3 -31 -1 -39 5 -8 7 -25 9 -40 5 -18 -4 -26 -2 -26 6 0 9 -6 8 -19 -4
-18 -16 -20 -16 -34 4 -14 20 -15 20 -58 -25 -49 -51 -79 -57 -99 -20 -14 27
-30 24 -30 -5 0 -28 -48 -80 -75 -80 -22 0 -45 35 -68 100 -3 8 -6 -9 -6 -39
-1 -53 -1 -54 -21 -36 -19 18 -20 17 -20 -3 0 -29 -26 -28 -34 1 -5 21 -7 20
-24 -12 -31 -57 -42 -59 -103 -14 -30 22 -65 46 -79 53 -14 7 -35 21 -46 32
-36 32 -38 3 -5 -61 16 -32 27 -61 24 -65 -12 -12 -33 -6 -50 14 -21 25 -31
25 -29 3 2 -29 -39 -28 -62 2 -11 14 -23 31 -26 38 -3 8 -8 6 -16 -5 -17 -27
-40 -22 -40 8 0 19 -4 25 -15 20 -9 -3 -15 0 -15 10 0 10 -6 14 -14 11 -7 -3
-18 -1 -23 4 -6 6 -14 4 -23 -6 -19 -22 -67 -20 -75 5 -3 11 -4 24 0 29 11 19
-13 20 -52 0 -49 -24 -68 -18 -93 32 -26 51 -26 56 14 114 63 94 88 111 261
182 188 77 190 77 332 75 119 -3 140 0 209 23 43 14 90 35 105 46 15 11 63 31
106 45 98 32 123 48 123 79 0 34 -11 37 -71 16 -66 -23 -139 -36 -139 -24 0 4
15 25 33 45 61 70 78 93 109 152 22 40 53 75 97 111 63 51 67 53 93 39 42 -22
73 -18 86 11 16 35 16 35 -18 35 -16 0 -30 3 -30 8 1 4 25 24 55 45 30 21 55
41 55 46 0 4 -10 17 -23 29 l-23 21 -42 -39 c-23 -22 -46 -40 -52 -40 -15 0
-23 46 -16 95 7 41 5 45 -13 45 -38 0 -55 -43 -47 -119 l6 -68 -40 -18 c-44
-20 -128 -101 -171 -164 -37 -56 -212 -226 -251 -244 -18 -8 -63 -18 -100 -22
l-68 -7 0 27 c0 21 18 45 76 101 66 65 74 76 64 94 -14 27 -28 25 -61 -6 -35
-34 -49 -24 -49 34 0 61 10 78 39 63 11 -7 21 -16 21 -20 0 -5 15 -11 33 -14
44 -7 79 -15 85 -21 2 -3 14 0 26 6 11 7 25 11 30 10 18 -5 46 10 46 25 0 14
-2 14 -19 -1 -13 -12 -21 -14 -26 -6 -5 8 -13 6 -27 -7 -19 -17 -21 -17 -32
-1 -10 13 -15 15 -24 6 -9 -9 -12 -7 -12 10 0 26 -12 28 -30 7 -15 -18 -44
-20 -37 -2 3 6 8 20 12 30 4 10 3 17 -4 17 -7 0 -14 -7 -17 -15 -9 -22 -23
-18 -33 8 -6 15 -5 29 5 44 19 31 18 33 -16 27 -25 -6 -30 -3 -30 14 0 11 7
23 16 26 9 4 14 9 10 13 -11 12 -47 -30 -41 -48 3 -10 -3 -36 -14 -58 -33 -63
-41 -117 -27 -166 13 -41 12 -43 -25 -100 -22 -31 -39 -63 -39 -70 0 -21 -55
-62 -94 -69 -19 -4 -70 -23 -113 -42 -141 -65 -202 -84 -230 -71 -19 9 -23 16
-18 36 6 22 4 23 -10 11 -24 -20 -40 8 -18 32 15 17 15 18 -5 18 -13 0 -22 6
-22 14 0 27 42 46 100 46 35 1 80 10 125 28 68 27 84 43 66 70 -7 11 -21 10
-76 -7 -107 -33 -132 -26 -74 23 22 19 42 26 72 26 56 0 107 31 107 65 0 28
-16 32 -44 10 -39 -29 -70 -13 -47 24 5 8 7 20 4 28 -7 18 -53 17 -53 -1 0
-22 -108 -132 -119 -121 -15 15 14 203 35 226 16 18 17 18 46 -6 16 -14 36
-25 44 -25 23 0 91 38 97 54 5 13 10 13 35 1 20 -10 37 -12 59 -6 33 9 133 80
133 93 0 4 14 8 30 8 29 0 89 44 77 56 -3 3 -16 -6 -30 -20 -27 -27 -51 -33
-62 -16 -11 17 -25 11 -25 -11 0 -14 -5 -19 -14 -16 -9 4 -16 -3 -20 -15 -4
-18 -7 -19 -20 -8 -14 10 -16 9 -16 -8 0 -46 -78 -68 -121 -33 -23 18 -23 18
-44 -13 -13 -20 -34 -34 -57 -40 -46 -12 -68 4 -68 48 l0 31 -33 -39 c-28 -33
-38 -38 -60 -33 -18 5 -30 18 -38 42 -13 34 -13 34 -31 15 -10 -11 -25 -20
-32 -20 -15 0 -40 27 -49 52 -7 20 20 76 46 96 9 7 17 19 17 26 0 8 7 17 16
20 8 3 14 14 12 23 -2 11 7 25 24 35 15 10 28 22 28 28 0 5 8 19 17 30 17 20
28 20 775 20 l757 0 13 -27z m1908 14 c0 -8 -35 -43 -79 -80 -43 -36 -96 -87
-117 -113 -61 -76 -165 -175 -178 -171 -12 4 -9 57 5 71 5 6 9 22 9 38 0 29
-23 48 -59 48 -14 0 -21 6 -21 20 0 30 -29 70 -51 70 -12 0 -24 13 -33 35 -16
37 -40 45 -75 24 -15 -10 -22 -8 -41 11 -19 19 -30 21 -68 17 -28 -3 -58 1
-81 10 -32 14 -38 14 -68 -2 -27 -15 -35 -16 -48 -5 -15 12 -125 9 -210 -7
-16 -3 -47 -5 -67 -4 -20 0 -40 -4 -43 -9 -4 -6 -15 -4 -28 5 -37 26 -167 13
-167 -17 0 -4 -10 -8 -23 -8 -12 0 -32 -7 -44 -15 -12 -8 -28 -12 -36 -9 -10
3 -22 -4 -31 -18 -12 -19 -23 -24 -44 -20 -34 5 -87 -35 -96 -74 -5 -20 -12
-25 -33 -22 -24 3 -27 7 -29 51 -1 37 -8 55 -28 76 -14 15 -26 33 -26 40 0 6
-16 19 -35 27 -34 14 -42 24 -28 37 3 4 426 7 940 7 773 0 933 -2 933 -13z
m2595 -237 l0 -245 -27 -3 c-23 -3 -27 0 -21 14 5 15 2 16 -27 11 -29 -6 -31
-5 -19 10 13 15 11 16 -16 9 -16 -4 -42 -9 -56 -11 -15 -2 -42 -13 -60 -25
-27 -17 -29 -20 -9 -14 14 5 37 7 52 6 15 0 30 3 33 8 9 15 25 12 25 -5 0 -11
7 -14 25 -9 16 4 25 2 25 -6 0 -7 13 -10 38 -8 l37 3 3 -69 c2 -38 -2 -74 -7
-79 -16 -16 -49 -15 -56 1 -3 8 -8 12 -11 9 -3 -3 0 -15 6 -27 8 -15 15 -19
19 -11 5 7 14 5 29 -9 22 -21 22 -21 22 -457 l0 -435 -47 8 c-97 18 -210 8
-358 -32 -120 -32 -160 -38 -277 -42 l-137 -4 -5 23 c-14 68 -17 96 -26 239
-5 85 -16 206 -24 268 -8 62 -18 176 -22 254 l-7 140 22 -7 c20 -6 22 -4 16
14 -9 29 1 26 30 -6 13 -16 25 -23 25 -17 0 18 -40 54 -60 54 -11 0 -20 -5
-20 -10 0 -6 -11 -3 -24 5 -14 10 -34 13 -48 10 -16 -4 -29 -1 -37 9 -18 22
-42 21 -34 -1 5 -14 0 -12 -20 6 -15 14 -29 22 -33 19 -7 -7 59 -58 75 -58 7
0 9 5 6 10 -8 13 8 13 22 -1 6 -6 19 -12 29 -13 17 -2 20 -16 26 -107 5 -57
15 -178 23 -269 8 -91 20 -230 25 -310 6 -80 13 -161 16 -181 6 -36 6 -36 -32
-42 -22 -3 -113 -10 -204 -17 -91 -6 -214 -15 -275 -22 -60 -6 -132 -13 -160
-15 -27 -3 -73 0 -102 7 l-53 11 0 164 c0 207 5 201 -152 183 l-106 -12 -41
27 c-23 15 -41 32 -41 37 0 17 31 24 52 11 29 -18 106 21 114 57 3 15 7 32 9
38 6 21 -14 38 -60 49 -34 9 -50 9 -59 1 -6 -6 -21 -16 -31 -22 -11 -6 -21
-22 -23 -35 -4 -27 -38 -58 -64 -59 -10 0 -19 -6 -19 -12 -1 -7 -2 -18 -3 -24
-2 -19 -83 -104 -99 -104 -47 0 -57 -56 -36 -223 6 -49 8 -91 6 -94 -3 -2 -51
-9 -107 -13 -56 -5 -143 -18 -193 -29 -51 -11 -137 -25 -192 -31 -55 -5 -148
-15 -208 -22 -59 -6 -111 -8 -115 -4 -4 4 -5 83 -3 174 3 92 5 264 4 382 0
193 -2 221 -21 275 l-21 60 21 22 c22 24 12 33 -11 11 -10 -11 -12 -9 -9 7 3
16 10 19 34 17 22 -2 41 6 69 28 21 17 41 28 44 24 6 -5 -5 -15 -74 -70 -16
-13 -25 -24 -19 -24 6 0 29 14 50 31 21 17 40 26 42 20 7 -21 22 -11 22 14 0
26 15 34 23 13 3 -7 6 -1 6 14 1 15 6 30 11 33 6 4 8 11 5 16 -4 5 -1 17 5 26
9 14 10 6 6 -36 -3 -29 -3 -52 -1 -49 7 7 36 151 31 156 -3 2 -8 -7 -12 -22
-3 -14 -11 -26 -16 -26 -6 0 -7 11 -4 25 4 14 2 25 -3 25 -6 0 -13 -16 -17
-35 -9 -48 -24 -54 -18 -8 4 33 3 31 -10 -12 -10 -36 -25 -59 -57 -86 -54 -46
-65 -42 -19 6 18 19 30 38 26 42 -4 4 -24 -13 -46 -37 -26 -31 -39 -40 -40
-28 0 9 5 20 10 23 6 3 10 14 10 23 -1 9 -10 0 -21 -21 -11 -22 -36 -53 -55
-70 -35 -33 -44 -50 -21 -41 24 9 67 -165 67 -268 0 -63 -21 -188 -31 -188 -4
0 -20 5 -34 12 -23 10 -28 10 -36 -5 -8 -13 -15 -14 -35 -7 -35 14 -44 12 -44
-5 0 -18 -4 -18 -47 -3 -32 12 -59 4 -35 -11 6 -4 -35 -7 -93 -8 -58 0 -108
-3 -112 -6 -3 -4 -21 -7 -40 -7 -18 0 -33 -4 -33 -8 0 -5 -33 -8 -72 -7 -41 1
-76 -2 -80 -8 -11 -18 -65 12 -104 59 -21 24 -43 44 -50 44 -14 0 -24 32 -24
76 0 23 7 34 25 44 14 8 23 19 21 27 -3 7 8 22 25 33 16 12 27 25 24 30 -3 5
6 17 20 26 14 9 37 41 51 70 14 30 30 54 34 54 12 0 -4 -43 -31 -87 -12 -18
-16 -33 -10 -33 6 0 24 29 40 65 16 36 35 65 41 65 7 0 9 -7 6 -16 -3 -9 -8
-28 -11 -42 -5 -24 -4 -23 7 4 19 45 47 83 47 63 1 -8 -6 -24 -14 -35 -17 -22
-19 -34 -6 -34 5 0 14 14 20 30 6 17 19 43 31 57 31 39 24 46 -17 18 -21 -14
-44 -25 -52 -25 -25 0 9 29 68 60 31 16 49 29 41 29 -8 1 -30 -8 -49 -20 -18
-11 -36 -17 -40 -13 -3 4 -1 9 4 11 39 15 99 51 103 61 2 7 -13 2 -35 -10 -31
-18 -35 -19 -24 -4 8 10 41 31 72 47 32 16 61 34 65 41 5 7 -4 5 -19 -5 -16
-10 -33 -17 -39 -15 -6 2 6 15 26 28 35 24 96 100 96 120 0 5 9 14 20 20 11 6
20 17 20 24 0 13 48 32 57 22 3 -2 6 -19 6 -37 2 -26 -3 -34 -19 -38 -23 -6
-80 -68 -71 -77 3 -3 15 8 28 25 13 17 28 31 33 31 6 0 34 11 61 25 56 27 65
29 65 15 0 -6 -18 -17 -40 -26 -38 -15 -59 -43 -22 -30 9 3 4 -5 -12 -18 -16
-13 -26 -28 -22 -34 3 -6 2 -30 -4 -54 -6 -24 -12 -51 -13 -61 -1 -10 -9 -22
-17 -27 -8 -5 -10 -10 -4 -10 14 0 134 118 134 132 0 6 -18 -8 -40 -31 -22
-22 -42 -41 -45 -41 -9 0 12 33 40 64 14 15 24 30 22 33 -3 2 -17 -8 -31 -24
-30 -32 -32 -29 -12 18 23 56 46 70 219 132 10 4 15 11 12 17 -4 6 -14 5 -28
-4 -26 -16 -97 -28 -97 -16 0 4 30 20 68 35 37 14 72 32 77 38 6 7 33 27 61
45 61 39 109 84 193 182 34 41 106 114 160 162 l96 87 1260 -2 1260 -2 0 -245z
m-3504 194 c17 -15 20 -15 43 0 31 20 65 21 92 1 17 -11 27 -12 52 -3 41 16
79 -1 84 -37 l3 -27 27 21 c52 41 88 17 73 -49 -8 -35 -2 -37 26 -9 26 26 47
12 29 -21 -11 -20 -10 -21 9 -15 21 6 30 -9 11 -20 -23 -14 -8 -26 26 -19 26
5 39 3 45 -7 15 -24 10 -57 -12 -72 -11 -8 -16 -18 -11 -21 11 -6 6 -66 -6
-78 -5 -5 -25 -11 -45 -15 -35 -5 -36 -5 -65 58 -17 35 -35 82 -41 105 -9 35
-17 43 -53 57 -48 19 -63 15 -22 -6 15 -8 22 -17 17 -20 -6 -4 -29 11 -52 33
-63 61 -67 58 -106 -68 -12 -39 -13 -57 -5 -67 9 -11 52 -148 47 -151 -1 0
-20 -7 -41 -15 -21 -8 -44 -22 -50 -33 -6 -10 -21 -29 -33 -42 -13 -13 -23
-29 -23 -37 0 -7 -46 -57 -102 -111 -94 -90 -126 -126 -144 -165 -4 -7 -27
-34 -52 -60 -25 -25 -51 -61 -59 -78 -7 -18 -17 -33 -22 -33 -21 0 -71 -59
-71 -83 0 -17 -7 -28 -21 -32 -19 -6 -21 -13 -17 -67 4 -50 9 -64 29 -78 70
-52 81 -66 74 -98 -7 -35 -60 -95 -78 -89 -26 8 -19 38 13 50 26 10 30 16 28
42 -2 25 -8 30 -28 30 -22 0 -25 5 -28 38 -3 39 -5 40 -37 31 -18 -5 -20 -14
-21 -109 0 -58 -3 -108 -7 -111 -8 -9 -34 12 -50 41 -6 12 -21 38 -31 56 -14
24 -21 60 -24 121 -4 77 -2 90 17 117 12 16 28 46 36 66 12 26 28 41 63 58 48
22 62 47 43 76 -7 12 -14 10 -37 -8 -34 -26 -41 -21 -24 19 14 35 4 54 -25 48
-12 -2 -23 -21 -32 -53 -8 -27 -26 -78 -40 -113 -28 -67 -35 -67 -53 1 -11 39
-24 45 -53 23 -16 -12 -17 -20 -8 -53 6 -21 11 -94 11 -163 1 -116 3 -130 30
-194 31 -73 31 -91 -1 -81 -11 4 -27 1 -36 -6 -13 -11 -19 -9 -37 14 -15 19
-28 26 -39 21 -13 -5 -17 0 -17 21 0 23 -2 25 -15 15 -16 -14 -35 -6 -35 16 0
9 -11 14 -30 14 -25 0 -30 4 -30 24 0 19 -4 23 -19 19 -24 -6 -35 11 -27 43 4
15 14 24 25 24 10 0 24 7 31 15 8 9 21 13 32 9 14 -4 29 4 54 30 19 19 34 40
34 46 0 6 7 21 15 33 7 12 15 47 17 77 2 35 9 62 21 74 9 11 17 28 17 39 0 10
9 30 20 44 14 18 17 30 10 42 -5 10 -5 23 1 32 12 19 11 25 -6 43 -19 19 -9
45 21 52 28 7 54 40 54 66 0 10 9 27 20 38 18 18 26 49 20 75 -2 6 -3 45 -4
88 -1 69 -4 81 -23 97 -16 13 -23 29 -23 53 0 48 -31 84 -79 92 -37 6 -40 9
-46 46 -11 66 50 143 94 119 28 -14 30 -13 41 16 8 20 15 24 31 19 14 -5 27 0
40 14 11 11 26 18 34 15 8 -3 29 6 46 20 40 34 109 36 140 5 19 -19 22 -19 38
-5 22 20 37 20 45 0 6 -15 8 -15 27 2 17 15 22 16 29 4 7 -12 12 -11 29 4 12
11 27 15 40 11 11 -3 29 -2 38 4 27 16 84 13 104 -5z m-2706 -247 c18 -27 27
-32 60 -32 l40 0 -3 -80 c-4 -95 -24 -142 -89 -209 -46 -49 -63 -56 -63 -30 0
14 -3 14 -15 4 -13 -10 -15 -9 -15 11 0 18 -3 20 -12 11 -34 -34 -37 8 -7 76
29 63 34 108 20 187 -10 58 -10 70 4 85 22 24 56 14 80 -23z m3074 -116 c12
-38 21 -72 21 -75 0 -6 -89 -48 -105 -50 -5 -1 -21 -7 -33 -14 -13 -8 -26 -12
-28 -9 -2 2 -13 39 -24 82 -24 93 -22 96 60 118 87 24 86 25 109 -52z m-2979
-380 c5 -11 10 -28 10 -38 0 -10 12 -29 25 -42 33 -31 32 -39 -10 -47 -108
-20 -163 47 -94 115 35 36 54 39 69 12z m1880 -96 c10 -12 10 -18 1 -29 -9
-11 -9 -20 -2 -34 8 -16 6 -25 -9 -45 -11 -14 -20 -35 -20 -46 0 -11 -9 -26
-19 -33 -15 -9 -18 -19 -14 -45 4 -21 2 -33 -6 -33 -7 0 -9 -9 -5 -25 4 -17 1
-32 -10 -44 -9 -10 -16 -22 -15 -27 4 -21 -2 -32 -21 -37 -12 -3 -20 -14 -20
-26 0 -24 -10 -27 -29 -8 -10 10 -16 7 -32 -13 l-19 -25 -20 25 -20 25 -20
-25 -20 -25 -21 25 c-14 17 -22 21 -26 13 -8 -21 -33 -15 -33 7 0 25 -8 25
-36 -1 -23 -22 -44 -19 -44 7 0 8 -4 14 -10 14 -15 0 -12 -26 5 -40 12 -10 21
-10 42 -1 18 8 29 9 37 1 5 -5 19 -10 31 -10 12 0 27 -6 33 -12 10 -10 17 -10
33 0 26 17 34 10 20 -16 -6 -12 -11 -25 -11 -31 0 -19 79 -91 99 -91 10 0 21
-7 25 -15 3 -8 12 -15 21 -15 8 0 15 -4 15 -9 0 -5 10 -13 23 -16 12 -4 32
-16 43 -27 20 -18 27 -18 80 -8 l59 11 29 -33 c92 -106 134 -210 121 -296 -3
-26 -10 -71 -13 -101 -4 -33 -13 -57 -22 -61 -87 -39 -114 -59 -136 -100 -13
-24 -25 -48 -27 -54 -2 -5 -18 -4 -39 3 -34 11 -36 14 -28 37 6 14 10 35 10
47 -1 22 -1 22 -21 -2 -11 -14 -16 -27 -10 -30 6 -4 4 -18 -4 -36 -16 -35 -53
-80 -61 -73 -8 9 14 55 37 77 12 11 19 24 16 28 -4 4 -14 0 -22 -8 -13 -13
-23 -13 -80 5 -36 12 -65 25 -65 30 0 43 129 132 174 120 36 -9 176 43 176 65
0 10 6 23 13 30 10 11 9 13 -6 8 -10 -4 -26 -3 -35 2 -27 14 -144 -29 -158
-58 -7 -14 -38 -36 -73 -53 -34 -16 -69 -41 -78 -55 l-17 -25 -9 23 c-4 13
-11 61 -14 106 -5 72 -3 90 22 161 27 79 27 80 11 130 -10 29 -27 62 -38 74
-18 21 -19 21 -13 3 22 -60 17 -110 -20 -205 -34 -87 -36 -101 -31 -167 3 -43
2 -74 -4 -78 -6 -3 -10 0 -10 7 0 19 -133 278 -144 278 -4 0 -5 -11 -2 -25 4
-14 4 -25 2 -25 -19 0 -69 168 -87 288 -12 85 -9 246 5 259 4 5 19 -5 33 -22
21 -26 24 -27 18 -7 -5 18 -2 22 14 22 12 0 30 9 41 20 12 12 33 20 55 20 39
0 71 25 81 65 4 18 13 25 30 25 13 0 31 8 39 18 9 9 34 36 55 60 22 24 40 46
40 50 0 14 45 52 62 52 20 0 42 31 52 73 7 30 27 35 46 12z m186 -81 c-24 -64
-12 -87 30 -59 28 18 40 15 31 -9 -3 -8 -24 -20 -45 -26 -33 -8 -43 -18 -61
-55 -12 -25 -21 -49 -21 -53 0 -5 -9 -17 -21 -28 -19 -17 -21 -27 -17 -104 5
-99 42 -195 91 -236 43 -36 51 -21 55 106 3 87 7 110 18 110 10 0 14 -13 14
-46 0 -44 1 -46 25 -40 18 5 25 2 25 -9 0 -9 -9 -15 -25 -15 -23 0 -25 -4 -25
-45 0 -38 3 -45 19 -45 26 0 73 41 96 84 21 39 32 45 41 21 3 -8 -8 -34 -25
-57 -36 -49 -41 -98 -12 -127 22 -22 51 -18 77 10 29 33 47 25 41 -18 -4 -26
-18 -49 -42 -71 -20 -18 -40 -44 -45 -58 -14 -37 -12 -103 5 -161 14 -46 14
-58 0 -109 -8 -31 -17 -59 -19 -62 -7 -7 -144 -4 -156 3 -15 9 -12 67 6 116
20 57 12 144 -19 213 -13 28 -58 94 -100 146 -96 118 -109 155 -113 314 -1 67
-4 136 -6 155 -5 53 19 49 34 -6 21 -76 38 -67 81 42 20 53 37 102 37 109 0
15 10 26 23 26 5 0 6 -7 3 -16z m-2520 -32 c-3 -21 -17 -73 -31 -116 -14 -42
-25 -88 -25 -101 0 -24 -2 -25 -74 -25 -59 0 -90 -6 -149 -30 -44 -17 -96 -31
-124 -31 -85 -2 -108 -11 -105 -39 2 -14 8 -26 13 -28 5 -2 9 -12 9 -23 0 -10
4 -19 10 -19 5 0 7 -6 4 -13 -11 -31 20 -37 87 -17 90 28 101 26 121 -18 10
-21 40 -55 68 -76 43 -33 49 -41 44 -65 -9 -37 -83 -176 -115 -214 l-26 -31
-69 12 c-38 7 -89 19 -114 27 -25 8 -119 21 -210 27 l-165 13 -3 324 c-1 186
2 329 7 334 5 5 23 2 45 -8 31 -15 41 -15 67 -5 26 11 32 11 39 -1 12 -19 80
-16 113 5 20 14 30 15 46 7 50 -27 112 -8 170 53 34 35 73 47 86 26 4 -6 16
-8 26 -5 11 4 27 1 35 -5 18 -16 67 -6 105 21 16 11 33 18 37 15 5 -3 24 6 42
19 19 14 36 25 38 25 3 0 2 -17 -2 -38z m110 -265 c33 -28 28 -49 -16 -72 -30
-15 -33 -15 -51 1 -11 9 -21 15 -24 12 -13 -13 37 -39 85 -45 44 -5 61 -14
105 -53 30 -25 80 -59 112 -75 52 -27 55 -30 31 -33 -15 -2 -40 4 -57 12 -41
22 -51 20 -23 -4 13 -11 21 -24 17 -30 -11 -17 -39 -11 -69 15 -36 31 -48 24
-17 -9 15 -15 19 -26 12 -31 -17 -10 -49 4 -71 32 -26 33 -37 24 -15 -11 17
-25 17 -26 -4 -26 -12 0 -36 15 -53 33 -28 29 -30 26 -12 -18 4 -10 0 -15 -15
-15 -13 0 -29 13 -43 35 -24 36 -46 49 -28 16 14 -26 13 -31 -5 -31 -9 0 -26
17 -38 37 -17 29 -23 33 -25 20 -5 -25 -24 -16 -40 17 -11 22 -16 25 -28 15
-12 -10 -17 -7 -26 19 -7 17 -20 33 -30 35 -10 3 -18 14 -18 27 0 18 -3 20
-13 11 -7 -6 -45 -17 -83 -26 -38 -8 -79 -18 -91 -20 -13 -3 -23 -1 -23 5 0 5
7 10 15 10 8 0 15 5 15 11 0 7 -10 9 -25 5 -14 -4 -25 -2 -25 4 0 5 6 10 14
10 8 0 18 5 22 11 5 9 -1 10 -20 5 -15 -4 -26 -2 -26 4 0 5 7 10 15 10 9 0 18
7 21 15 4 11 21 15 57 15 32 0 74 10 116 27 56 23 81 27 166 28 56 1 109 6
120 13 31 18 61 14 91 -11z m397 -61 c24 -18 32 -19 69 -9 39 11 44 10 65 -13
17 -19 27 -22 45 -15 27 10 85 -13 107 -42 8 -12 23 -17 41 -15 16 1 36 -5 47
-14 15 -14 35 -17 103 -14 77 2 89 0 126 -24 23 -14 73 -39 113 -55 47 -18 79
-39 92 -57 25 -35 12 -37 -63 -8 -28 11 -54 17 -57 14 -7 -7 117 -131 155
-154 24 -15 33 -31 42 -71 7 -29 10 -54 7 -57 -9 -9 -35 21 -54 63 -12 28 -30
48 -51 59 -18 9 -34 16 -36 16 -6 0 -1 -66 7 -81 11 -21 0 -32 -18 -17 -7 6
-17 8 -21 4 -4 -4 9 -21 28 -36 19 -16 48 -40 63 -54 16 -15 39 -26 52 -26 12
0 26 -7 29 -16 10 -26 7 -84 -5 -84 -6 0 -41 20 -78 44 -36 24 -83 52 -103 62
-21 10 -40 25 -43 34 -7 22 -93 95 -122 104 -19 6 -21 3 -21 -28 0 -29 8 -43
44 -76 34 -31 49 -39 68 -34 34 8 192 -74 175 -91 -5 -4 -81 15 -218 55 -132
38 -311 50 -459 30 -72 -9 -117 -10 -175 -2 -43 6 -81 12 -83 15 -9 9 -54 203
-60 259 -10 84 -1 108 39 108 64 0 78 42 18 55 -17 4 -33 10 -36 14 -10 17 63
177 104 224 14 17 15 16 25 -14 6 -18 23 -41 39 -53z m1231 -45 c-9 -115 16
-262 68 -404 22 -60 37 -111 34 -114 -3 -3 -10 7 -16 22 -6 15 -19 39 -29 54
-21 30 -43 99 -66 213 -18 87 -60 192 -75 183 -6 -4 -6 -16 1 -32 5 -15 14
-74 20 -132 5 -58 19 -135 31 -171 21 -65 72 -165 89 -176 5 -3 9 -15 9 -27 0
-17 -14 -8 -73 51 -40 39 -75 72 -79 72 -4 0 4 -19 17 -42 14 -24 32 -65 41
-93 9 -27 21 -55 25 -61 11 -14 0 -74 -13 -74 -27 0 -51 27 -83 94 -39 82 -45
138 -20 219 20 66 20 178 1 265 -9 40 -16 75 -16 78 0 2 -4 4 -8 4 -5 0 -7
-35 -4 -79 3 -50 -1 -107 -12 -158 -9 -44 -16 -104 -16 -134 0 -52 0 -53 -16
-31 -12 18 -14 29 -6 50 14 36 25 108 24 156 0 47 -21 126 -33 126 -5 0 -9
-29 -9 -64 0 -36 -4 -68 -10 -71 -5 -3 -10 -29 -10 -58 0 -95 -18 -35 -22 73
-2 79 -8 111 -21 130 -30 43 -20 98 27 155 20 23 28 27 38 17 21 -21 57 -13
94 21 31 28 41 32 80 28 l45 -3 -7 -87z m-574 -40 c100 -65 197 -145 199 -165
1 -5 -7 -2 -16 7 -10 8 -55 31 -101 50 -150 64 -210 112 -228 183 l-7 29 24
-18 c13 -10 71 -48 129 -86z m3702 -126 c3 -115 12 -239 18 -275 6 -36 16 -87
21 -114 4 -28 6 -52 4 -54 -2 -3 -96 -6 -207 -7 -112 -2 -226 -6 -254 -10 -62
-9 -58 -18 -79 185 -8 80 -19 165 -24 190 -5 25 -13 84 -17 131 -5 73 -4 88
10 102 35 35 53 22 60 -44 5 -41 3 -65 -5 -75 -9 -11 -8 -18 2 -30 11 -13 29
-15 104 -12 122 5 176 40 140 91 -9 12 -15 43 -15 72 l0 51 47 3 c26 1 50 4
52 7 3 3 35 4 71 2 l65 -3 7 -210z m-1388 185 c5 -5 8 -143 9 -307 0 -268 -2
-303 -20 -352 -17 -50 -22 -55 -63 -67 -146 -44 -561 -80 -610 -54 l-23 12 25
16 c14 8 31 24 37 35 11 17 11 19 -6 15 -10 -3 -26 -9 -35 -13 -23 -9 -24 14
-3 81 9 27 29 114 45 193 31 148 40 313 21 363 -9 23 -9 23 68 22 42 -1 81 2
86 6 21 15 73 22 178 23 59 0 107 4 107 8 0 4 16 5 35 2 24 -4 35 -2 35 6 0 9
10 10 30 6 24 -5 30 -3 30 10 0 12 6 15 23 10 12 -4 26 -11 31 -15z m-3512
-230 c27 -16 29 -20 13 -21 -11 -1 1 -5 27 -9 42 -7 168 6 251 26 l27 6 0 -55
c0 -31 11 -102 25 -158 13 -57 23 -105 20 -107 -2 -2 -34 4 -71 13 -45 11
-137 19 -281 24 -117 5 -215 10 -218 12 -2 3 14 33 37 68 22 35 50 94 63 130
15 44 27 65 36 63 8 -2 25 -6 39 -9 24 -4 24 -4 6 16 -24 26 -16 27 26 1z
m6545 -11 l63 -11 0 -65 c0 -56 -3 -66 -20 -70 -11 -3 -20 -11 -20 -19 0 -7 9
-18 20 -24 15 -8 20 -21 20 -55 l0 -45 -54 0 -55 0 6 34 c4 27 2 34 -15 38
-12 3 -22 16 -24 29 -3 22 -9 24 -59 27 -52 3 -59 0 -78 -24 -12 -15 -32 -32
-44 -38 -12 -7 -23 -21 -25 -32 -3 -19 -12 -22 -85 -27 -45 -4 -120 -18 -167
-31 -149 -42 -190 -50 -203 -37 -7 7 -13 64 -15 146 l-4 135 118 -1 c117 -1
206 12 332 48 116 33 208 40 309 22z m-784 -186 c2 -76 8 -148 12 -160 6 -19
3 -23 -21 -29 -16 -4 -154 -8 -307 -8 -273 -1 -278 -1 -295 20 -33 42 -108 42
-114 1 -2 -16 -11 -23 -32 -25 -35 -4 -42 3 -50 52 l-7 39 81 -7 c93 -8 130 5
130 48 0 45 -10 56 -52 56 -37 0 -40 2 -34 24 9 35 -20 54 -87 58 -107 6 -58
18 90 23 82 2 166 9 188 15 22 5 85 10 140 11 55 1 129 5 165 9 36 4 93 8 127
8 l61 2 5 -137z m-1369 -63 c22 -186 23 -174 -28 -194 -24 -9 -60 -20 -80 -23
-31 -5 -35 -3 -30 11 4 12 0 16 -16 16 -21 0 -20 2 9 37 16 20 28 40 25 45 -6
9 -52 -21 -75 -48 -13 -16 -15 -14 -20 22 l-5 39 -29 -62 -29 -63 -77 0 c-57
0 -80 4 -89 16 -9 10 -26 14 -49 12 -28 -2 -39 -9 -49 -30 -7 -16 -18 -28 -23
-28 -6 0 -53 -20 -106 -45 -52 -25 -99 -45 -105 -45 -6 0 -19 11 -30 25 -11
14 -28 25 -38 25 -29 0 -36 68 -14 129 16 45 20 49 56 54 57 8 80 32 76 81
l-3 41 -58 -3 c-51 -2 -58 0 -55 15 3 16 24 20 153 30 83 7 218 24 300 39 229
40 353 55 367 44 4 -3 14 -66 22 -140z m-2274 42 c-31 -101 -35 -166 -16 -265
8 -45 18 -134 21 -197 l6 -115 -26 60 c-48 108 -57 146 -50 205 4 30 6 89 5
130 -1 61 5 94 32 177 21 64 37 98 43 92 5 -6 0 -38 -15 -87z m-2732 -17 c157
-16 265 -35 317 -56 18 -7 126 -15 260 -20 228 -8 296 -17 449 -58 87 -23 165
-26 356 -11 71 5 144 5 190 -1 108 -15 312 -68 333 -88 18 -18 77 -152 77
-177 0 -11 -18 -14 -80 -14 -78 0 -86 4 -81 34 1 5 -7 40 -19 79 -15 48 -27
71 -40 74 -10 3 -20 13 -23 24 -3 10 -10 19 -17 19 -7 0 -9 -8 -5 -19 3 -11 1
-28 -6 -39 -18 -28 40 -152 71 -152 12 0 18 -4 15 -10 -3 -5 -41 -10 -85 -10
l-78 0 -31 49 c-17 26 -38 69 -47 95 -17 49 -39 74 -29 34 18 -79 31 -159 27
-163 -3 -3 -30 -5 -60 -5 -60 0 -81 12 -174 99 -27 24 -48 40 -48 35 0 -5 23
-38 50 -73 28 -35 50 -67 50 -71 0 -13 -111 -39 -226 -54 -60 -8 -189 -31
-287 -50 -98 -20 -197 -36 -220 -36 -23 0 -73 -7 -112 -16 -38 -8 -110 -24
-160 -35 -92 -20 -386 -48 -507 -49 l-68 0 0 346 0 346 28 -6 c15 -3 96 -12
180 -21z m2579 -133 c53 -109 63 -148 78 -312 4 -41 20 -115 35 -165 15 -49
30 -112 33 -140 6 -47 5 -49 -9 -30 -37 47 -68 128 -104 264 -21 80 -50 187
-66 236 -28 89 -46 255 -27 255 4 0 32 -49 60 -108z m4508 25 l130 -12 3 -193
2 -193 -47 8 c-130 21 -352 -5 -578 -67 -134 -37 -309 -70 -389 -73 l-59 -2
-29 54 c-26 50 -27 54 -12 80 31 52 92 73 151 50 40 -15 157 -38 163 -33 8 8
-59 60 -109 85 -25 12 -54 33 -65 46 -25 29 -79 43 -121 32 -36 -10 -121 -88
-135 -125 -6 -13 -12 -37 -15 -52 l-6 -27 15 25 15 25 1 -31 c0 -17 7 -48 15
-67 20 -49 20 -50 -21 -43 -76 15 -216 79 -294 135 -73 53 -226 214 -263 276
-6 11 3 12 508 13 320 1 435 11 590 48 240 58 308 63 550 41z m-1680 -85 c6
-4 24 -27 40 -52 17 -24 80 -94 140 -155 93 -93 124 -117 200 -156 82 -42 177
-78 247 -93 30 -7 78 -77 78 -115 0 -19 -4 -22 -27 -17 -16 4 -86 15 -158 26
-176 26 -262 62 -425 179 -36 25 -77 54 -92 64 -60 38 -168 169 -214 259 l-24
47 33 5 c85 15 188 19 202 8z m-212 -87 c49 -81 131 -183 176 -220 94 -77 275
-194 342 -221 35 -14 130 -36 223 -51 88 -15 163 -28 165 -30 3 -2 0 -8 -5
-13 -6 -6 -66 -6 -170 2 -138 9 -179 9 -291 -5 -159 -21 -242 -21 -313 -3 -30
8 -87 19 -127 25 -40 6 -98 18 -130 26 -31 8 -84 15 -118 16 -57 0 -97 6 -275
42 -170 34 -208 38 -431 47 -129 6 -313 15 -409 21 -96 6 -236 8 -311 4 -118
-5 -293 6 -308 20 -2 2 4 11 13 20 35 35 46 83 14 58 -28 -22 -182 -73 -219
-73 -35 0 -39 3 -39 25 0 30 27 100 52 137 l19 27 37 -19 c55 -29 148 -43 447
-67 91 -7 459 38 578 71 101 29 193 62 222 80 25 16 123 53 178 67 23 6 121
14 217 18 154 7 184 11 250 35 95 34 131 45 150 43 8 -1 36 -38 63 -82z
m-3177 -20 c38 -24 105 -69 149 -100 44 -30 94 -63 112 -73 43 -23 150 -115
191 -163 21 -24 47 -77 68 -136 36 -98 39 -127 14 -101 -25 24 -150 96 -189
109 -64 20 -155 84 -228 159 -47 49 -130 186 -152 252 -12 37 -27 70 -32 73
-9 6 -13 25 -5 25 2 0 34 -20 72 -45z m2104 -16 c0 -52 -14 -82 -44 -94 -37
-15 -262 -51 -401 -65 -85 -8 -330 1 -341 13 -2 2 -1 13 3 25 6 24 15 27 44
12 13 -8 25 -7 39 0 29 15 25 47 -7 62 -33 16 -39 45 -8 39 11 -3 108 -5 215
-4 177 1 208 4 335 31 127 28 141 29 153 14 6 -9 12 -23 12 -33z m-789 -66
c-31 -88 -25 -85 -116 -67 -44 9 -81 18 -83 19 -2 1 9 20 23 41 29 43 50 51
137 53 l57 1 -18 -47z m-499 0 c24 -5 29 -10 25 -27 -3 -12 -11 -41 -17 -66
-15 -65 -31 -100 -44 -100 -29 1 -37 20 -43 115 l-6 98 28 -7 c15 -4 41 -10
57 -13z m3349 3 c-9 -11 -9 -16 0 -22 7 -4 15 -2 17 4 6 19 22 14 22 -8 0 -15
-7 -20 -27 -20 -40 0 -92 -35 -107 -72 -18 -42 -7 -83 45 -165 37 -60 43 -76
47 -138 3 -61 1 -76 -23 -119 -14 -27 -29 -70 -32 -96 -8 -73 -63 -145 -159
-210 -45 -30 -104 -72 -132 -92 -57 -44 -79 -47 -91 -16 -11 29 6 57 39 65 42
9 156 92 202 147 64 74 86 115 93 172 6 45 4 55 -14 73 -15 15 -17 23 -9 25
72 19 73 20 76 66 2 47 1 50 -61 149 -42 66 -53 110 -43 165 11 57 75 105 140
106 23 0 26 -3 17 -14z m-4743 -57 c102 -77 244 -218 275 -273 30 -54 31 -56
18 -56 -5 0 -21 21 -36 46 -19 32 -30 42 -35 34 -6 -9 -16 0 -36 30 -15 23
-53 59 -83 81 -31 21 -63 44 -71 51 -21 17 -113 138 -105 138 3 0 36 -23 73
-51z m1531 15 c32 -7 38 -21 22 -52 -5 -9 -15 -43 -22 -74 -12 -58 -25 -69
-57 -49 -11 7 -10 16 7 46 11 22 19 40 17 42 -6 6 -96 -51 -96 -61 0 -4 12 -1
26 9 35 23 40 14 10 -18 -33 -35 -43 -34 -44 5 -1 39 21 84 61 124 37 37 35
36 76 28z m-1138 -53 c10 -19 23 -46 28 -60 11 -26 19 -40 55 -94 10 -15 16
-30 14 -32 -9 -10 -140 17 -168 34 -22 13 -46 46 -76 105 l-45 87 87 -3 87 -3
18 -34z m172 13 c29 -31 75 -110 58 -100 -6 4 -11 1 -11 -8 0 -8 4 -17 9 -20
4 -3 23 -46 41 -97 21 -60 47 -109 74 -143 23 -28 45 -59 49 -68 11 -30 -11
-30 -36 -1 -96 110 -107 126 -107 154 0 35 -21 87 -59 149 -16 25 -37 69 -47
98 -10 28 -22 52 -27 52 -9 0 -2 -89 15 -163 5 -26 8 -50 6 -53 -13 -12 -128
176 -128 209 0 14 11 17 70 17 62 0 72 -3 93 -26z m-577 -35 c20 -27 62 -67
93 -88 58 -40 98 -78 90 -86 -3 -2 -25 9 -49 25 -54 36 -81 45 -180 64 -41 8
-85 17 -97 21 -15 5 -23 3 -23 -4 0 -6 12 -14 28 -17 15 -4 32 -11 38 -15 6
-5 39 -18 75 -29 75 -23 94 -34 94 -53 0 -23 115 -116 151 -123 30 -6 33 -9
39 -56 4 -27 5 -52 1 -55 -5 -5 -123 52 -213 104 -53 31 -56 15 -5 -23 57 -44
76 -63 68 -71 -11 -11 -183 14 -216 31 -17 9 -42 22 -57 30 -24 13 -69 14
-295 6 -255 -9 -269 -10 -316 -34 -27 -13 -79 -33 -115 -42 -63 -17 -69 -17
-114 -1 -33 12 -73 16 -128 15 -44 -1 -106 -1 -138 1 -48 3 -62 0 -81 -18 -36
-34 -82 -43 -188 -35 l-98 6 0 128 0 128 73 6 c39 3 133 8 207 12 145 6 198
15 413 63 76 17 160 31 187 31 27 0 104 11 172 25 68 13 193 36 278 50 85 14
178 31 205 39 28 7 53 14 58 15 4 0 23 -22 43 -50z m5781 -26 c10 -4 13 -32
13 -114 0 -60 -3 -109 -7 -109 -5 0 -44 7 -88 15 -126 23 -298 19 -460 -10
-113 -20 -351 -44 -436 -45 -10 0 -24 20 -38 56 -11 31 -21 59 -21 63 0 5 35
11 78 14 70 6 255 41 273 53 19 12 314 75 390 83 80 9 267 5 296 -6z m-4572
-248 c2 -90 9 -143 28 -212 14 -51 23 -93 20 -93 -7 0 -73 149 -109 248 l-33
92 24 75 c14 42 25 83 25 93 1 9 10 -5 22 -33 16 -39 21 -76 23 -170z m274
159 c17 -4 31 -12 31 -18 0 -19 -103 -306 -111 -306 -3 0 -9 26 -12 58 -3 31
-9 74 -13 95 -5 29 -4 37 9 37 16 0 77 64 77 81 0 14 -38 2 -73 -23 l-28 -20
3 33 c2 17 10 35 18 39 8 4 24 12 35 18 25 13 25 13 64 6z m-1119 -62 c28 -22
89 -60 136 -86 83 -46 100 -65 142 -158 2 -5 -15 -8 -38 -8 -37 0 -47 5 -79
40 -23 26 -57 49 -96 65 -40 16 -65 33 -77 52 -17 29 -50 133 -43 133 3 0 27
-17 55 -38z m1815 17 c634 -14 911 -33 1075 -74 61 -15 163 -31 255 -40 65 -6
90 -11 300 -51 150 -29 113 -28 520 -8 66 3 138 2 160 -3 l40 -9 -32 -17 c-36
-19 -106 -105 -157 -194 -32 -55 -40 -62 -76 -68 -31 -5 -43 -13 -55 -37 -19
-39 -19 -48 0 -48 33 0 28 -31 -11 -71 l-38 -39 -101 0 c-56 0 -105 3 -109 8
-4 4 -110 7 -234 7 -130 0 -284 6 -360 15 l-133 14 3 26 c3 23 6 25 51 22 26
-2 47 1 47 6 0 26 -49 98 -73 106 -52 19 -97 -35 -97 -115 0 -39 -14 -51 -35
-30 -13 13 -154 41 -203 41 -25 0 -49 8 -67 22 -25 20 -38 22 -122 20 l-94 -3
-62 41 c-59 39 -65 41 -112 33 -87 -13 -127 -7 -194 26 -74 38 -186 66 -253
63 -26 -2 -82 -11 -124 -22 -43 -11 -91 -20 -107 -20 -25 0 -104 18 -116 26
-2 2 7 17 19 34 12 17 20 34 17 37 -12 11 -73 -19 -109 -54 -21 -21 -38 -34
-38 -30 0 18 50 104 72 124 33 31 83 41 92 18 5 -14 13 -16 44 -10 20 4 48 13
62 20 14 7 34 17 45 21 43 16 -76 24 -133 9 -31 -8 -58 -12 -61 -9 -3 3 12 21
34 39 30 26 46 33 66 29 30 -6 99 30 99 51 0 8 10 21 22 29 22 16 22 16 -17
16 -40 0 -74 -17 -117 -57 -165 -155 -222 -212 -234 -235 -10 -20 -22 -28 -41
-28 l-27 0 31 33 c41 42 107 167 89 167 -17 0 -94 -82 -125 -133 -41 -67 -46
-29 -9 74 29 82 37 94 58 97 78 10 186 65 237 120 24 25 38 32 50 27 10 -4
185 -11 388 -16z m-1640 -41 c44 -23 132 -110 183 -182 30 -41 31 -46 13 -46
-11 0 -39 23 -68 56 -49 58 -73 76 -178 134 -33 18 -71 42 -85 53 l-25 19 60
-7 c33 -4 78 -16 100 -27z m334 -147 c41 -57 81 -133 81 -152 0 -29 -21 -19
-45 21 -11 18 -55 67 -97 109 -70 69 -117 141 -118 180 0 15 150 -117 179
-158z m-66 125 c28 -21 165 -86 181 -86 9 0 138 -89 164 -113 12 -11 22 -26
22 -34 0 -19 -27 -16 -38 4 -6 10 -16 14 -26 10 -24 -9 -45 2 -62 34 -18 36
-37 38 -28 4 5 -22 3 -25 -20 -25 -14 0 -26 3 -26 8 0 4 -7 16 -16 27 -12 16
-16 17 -23 6 -7 -11 -15 -4 -34 25 -13 21 -50 62 -81 90 -31 29 -56 57 -56 63
0 16 8 14 43 -13z m4917 -29 l65 -12 0 -75 c0 -61 -3 -75 -15 -73 -8 1 -58 11
-110 23 -120 26 -274 37 -321 21 -19 -6 -77 -17 -129 -25 -83 -13 -110 -13
-212 0 -177 23 -212 34 -216 65 l-3 26 141 6 c78 4 190 16 248 27 59 10 121
21 137 23 71 9 356 5 415 -6z m-5408 -97 c9 -14 22 -47 28 -73 12 -54 91 -230
109 -241 12 -8 15 -36 4 -36 -24 1 -57 44 -74 95 -11 33 -38 88 -61 122 -36
57 -41 71 -44 136 -4 63 -2 69 8 47 7 -14 21 -36 30 -50z m91 18 c60 -24 136
-83 122 -96 -4 -4 -10 -1 -12 6 -5 14 -33 17 -33 3 0 -5 3 -11 8 -13 4 -1 25
-27 45 -55 21 -29 54 -65 72 -81 32 -26 75 -102 57 -102 -11 0 -55 48 -132
144 -35 44 -95 110 -132 148 -38 37 -65 68 -61 68 4 0 34 -10 66 -22z m-568
-48 c71 -37 183 -64 241 -57 54 6 90 -15 134 -77 24 -33 46 -50 79 -62 55 -21
81 -41 81 -64 0 -9 5 -21 12 -28 20 -20 5 -22 -98 -8 -102 13 -134 25 -218 83
-26 18 -59 33 -73 33 -28 0 -74 22 -92 44 -8 9 -24 16 -36 16 -22 0 -74 21
-140 57 -21 12 -52 16 -111 14 -54 -1 -94 4 -116 13 -18 8 -48 20 -65 26 -54
20 -38 32 35 25 52 -4 215 3 298 14 7 0 38 -13 69 -29z m4759 5 c33 -14 36
-19 36 -55 0 -21 -5 -52 -12 -67 -20 -47 -119 -172 -142 -179 -11 -4 -24 -12
-28 -18 -6 -8 -11 -7 -17 3 -6 9 -11 10 -15 2 -4 -6 -21 -9 -39 -7 -22 3 -45
-3 -72 -20 -45 -27 -36 -32 18 -9 37 15 87 20 87 8 0 -10 -32 -43 -41 -43 -5
0 -5 8 -2 18 6 14 4 15 -9 4 -26 -21 -108 -62 -109 -54 -1 4 -1 12 1 17 1 6
-14 -5 -32 -22 -54 -52 -53 -38 2 30 28 34 83 112 122 172 88 137 138 198 180
218 18 9 34 17 34 17 1 0 18 -7 38 -15z m-5226 -4 c7 -4 19 -34 27 -67 7 -32
21 -73 29 -89 9 -17 16 -38 16 -47 0 -20 35 -56 66 -68 15 -6 23 -20 27 -52 3
-23 4 -44 3 -45 -2 -2 -14 6 -29 17 -25 20 -25 20 -20 0 4 -16 0 -20 -21 -20
-18 0 -30 8 -41 31 -21 39 -12 50 14 18 11 -13 22 -21 25 -18 3 3 -13 23 -35
45 -45 43 -44 45 -24 -41 l7 -30 -104 -14 c-57 -7 -142 -15 -190 -18 -75 -5
-88 -3 -93 11 -9 29 -15 41 -27 58 -10 14 -9 21 10 41 28 30 28 55 -3 113 -14
26 -25 62 -25 80 l0 33 49 -6 c51 -6 128 14 221 56 47 21 96 27 118 12z m5567
-21 c151 -25 208 -25 321 0 49 11 123 20 164 20 93 0 248 -18 275 -33 11 -6
36 -13 55 -17 l35 -5 0 -200 0 -200 -105 1 c-58 1 -280 5 -495 10 -422 8 -587
8 -678 -1 -57 -6 -58 -6 -45 15 7 11 36 32 65 45 98 47 175 147 198 259 18 86
40 126 68 126 12 0 76 -9 142 -20z m-5396 -62 c39 -20 66 -28 100 -27 32 2 37
3 16 6 -16 2 -48 9 -70 15 -38 11 -39 12 -15 19 63 18 128 10 192 -25 35 -19
79 -37 98 -41 19 -4 45 -16 57 -27 12 -11 43 -24 68 -29 27 -5 63 -22 85 -39
21 -17 55 -37 75 -46 42 -17 42 -37 0 -42 -23 -3 -38 7 -82 52 -30 31 -62 56
-71 56 -10 1 -34 7 -54 14 -21 8 -35 10 -32 5 3 -5 25 -14 49 -20 30 -8 58
-25 89 -57 25 -25 43 -49 40 -54 -3 -4 -106 -8 -228 -8 l-224 0 -16 25 c-9 13
-16 31 -16 40 0 9 -16 31 -35 51 -19 19 -35 38 -35 43 0 5 -18 21 -40 36 -41
29 -93 102 -84 117 3 5 22 -1 42 -13 21 -12 61 -35 91 -51z m1326 5 c21 -32
53 -71 71 -86 19 -16 34 -34 34 -40 0 -7 18 -39 39 -71 22 -33 38 -63 35 -67
-8 -14 -46 4 -54 26 -5 13 -33 50 -64 84 -30 34 -64 83 -76 109 -12 26 -26 55
-31 64 -5 10 -9 22 -9 28 0 23 19 6 55 -47z m-2116 -96 c10 -94 12 -101 55
-159 60 -80 60 -95 0 -100 -48 -3 -52 -1 -70 47 -7 17 -28 71 -48 122 -20 51
-38 110 -42 131 -5 35 -3 41 27 66 31 26 33 27 50 9 12 -13 20 -47 28 -116z
m216 96 c13 -62 28 -109 41 -128 19 -27 17 -49 -6 -70 -24 -22 -58 -15 -91 20
-45 46 -64 69 -82 100 -11 16 -35 47 -55 68 l-36 37 112 0 112 0 5 -27z m-166
-59 c5 -13 25 -40 44 -61 19 -21 39 -48 45 -60 7 -12 28 -27 47 -33 19 -6 35
-16 35 -22 0 -5 9 -21 20 -35 41 -52 18 -73 -80 -73 -30 0 -39 5 -49 28 -7 15
-31 50 -53 79 -40 52 -41 58 -51 175 -4 43 -3 46 14 35 9 -6 22 -21 28 -33z
m-149 -64 c14 -52 36 -113 47 -135 32 -62 38 -101 16 -110 -10 -4 -93 -10
-185 -13 l-168 -5 0 182 0 182 132 -3 131 -3 27 -95z m3472 -7 c30 -28 42 -50
54 -98 l6 -25 -90 0 -91 0 -28 37 c-15 20 -38 47 -50 59 -13 13 -23 27 -23 32
0 16 74 31 134 27 47 -3 64 -8 88 -32z m-309 2 c60 -2 71 -5 98 -31 17 -16 37
-41 45 -56 12 -24 12 -27 -4 -32 -18 -6 -91 -1 -154 9 -30 5 -38 4 -38 -8 0
-8 -7 -17 -15 -21 -8 -3 -15 -11 -15 -19 0 -9 -35 -21 -107 -37 -160 -35 -335
-37 -368 -4 -7 8 -26 14 -42 15 l-28 0 25 11 c25 11 25 11 3 15 -15 3 -22 10
-20 21 4 25 30 62 43 62 6 0 17 7 24 15 8 9 21 13 37 9 14 -4 30 -1 41 8 31
27 49 34 30 11 -10 -11 -18 -25 -18 -32 0 -6 -11 -17 -25 -23 -14 -6 -25 -15
-25 -21 0 -5 8 -6 18 -1 9 4 42 9 72 11 42 3 52 1 40 -7 -11 -9 -4 -10 30 -5
99 15 116 16 95 6 -11 -5 -33 -13 -50 -17 -16 -3 -25 -8 -18 -11 6 -2 29 0 50
6 21 6 50 11 66 11 17 0 27 5 27 15 0 8 9 15 20 15 11 0 20 4 20 9 0 4 -22 6
-50 3 -46 -4 -50 -3 -50 16 0 27 -34 46 -57 34 -18 -11 -93 -4 -107 9 -14 13
61 22 122 15 31 -4 59 -11 62 -17 10 -15 75 -23 96 -11 14 8 10 11 -26 17 -62
10 -29 28 35 19 28 -4 81 -8 118 -9z m342 5 c3 -5 11 -10 16 -10 6 0 7 5 4 11
-4 5 10 2 32 -7 120 -53 152 -64 186 -64 31 0 39 -4 47 -26 6 -14 10 -27 10
-30 0 -2 -33 -4 -74 -4 -69 0 -75 2 -92 28 -20 30 -84 91 -97 92 -4 0 15 -23
42 -51 63 -64 66 -84 14 -74 -49 9 -49 9 -57 45 -3 17 -18 46 -32 65 -15 19
-22 35 -16 35 6 0 14 -4 17 -10z m-1889 -110 c79 -26 463 -51 757 -50 97 1
147 -2 147 -9 0 -6 -7 -11 -16 -11 -9 0 -14 -6 -12 -12 3 -7 29 -16 59 -21 30
-4 59 -13 64 -20 7 -9 69 -12 237 -12 124 0 230 3 234 8 4 4 -24 7 -61 7 -83
0 -76 11 21 34 58 14 74 22 83 43 11 24 14 25 79 18 38 -4 184 -8 325 -9 227
-2 259 -5 276 -20 32 -29 304 -48 526 -36 39 2 92 1 118 -4 48 -7 48 -8 45
-43 l-3 -36 -141 -1 c-138 -1 -141 -2 -202 -33 -34 -18 -71 -33 -82 -33 -11 0
-20 -4 -20 -9 0 -12 78 -75 105 -86 19 -7 19 -7 2 -14 -13 -5 3 -11 50 -20 37
-7 82 -17 98 -22 32 -9 250 -12 380 -5 115 7 117 8 47 17 -38 5 -74 4 -89 -2
-31 -12 -46 -3 -34 19 16 29 5 135 -18 179 -35 70 -32 73 62 73 45 0 120 -8
167 -17 74 -15 104 -15 258 -5 152 11 179 10 205 -3 20 -10 60 -15 118 -15 74
0 87 -2 83 -15 -5 -13 -1 -13 32 1 43 18 111 21 127 5 10 -10 -19 -67 -57
-109 l-20 -22 40 -42 c21 -22 47 -49 57 -60 17 -19 18 -27 19 -221 1 -80 -8
-120 -19 -89 -3 6 -9 10 -14 6 -19 -12 4 -24 44 -23 23 0 36 3 30 6 -22 8 -14
21 9 15 13 -3 19 -1 15 5 -4 6 1 13 12 16 15 3 18 16 20 67 2 71 -12 121 -46
166 -20 26 -23 42 -23 110 0 173 9 181 195 186 128 3 145 3 670 -5 187 -2 391
-5 453 -6 l112 -1 0 -284 0 -283 -74 -17 c-72 -17 -129 -15 -141 5 -4 5 -1 9
4 9 6 0 11 5 11 10 0 6 -10 10 -21 10 -18 0 -19 2 -9 15 10 12 10 15 -3 15 -9
0 -19 -4 -22 -10 -3 -5 -15 -10 -27 -10 -17 0 -18 2 -8 15 15 19 11 19 -33 0
-19 -8 -37 -11 -41 -8 -4 4 -34 6 -66 5 -33 -1 -60 0 -60 3 0 3 7 17 16 30 21
32 11 32 -30 0 -35 -26 -61 -32 -71 -15 -9 15 -31 12 -50 -6 -12 -13 -19 -14
-28 -5 -6 6 -21 11 -34 11 -37 0 -27 14 25 33 69 26 111 57 133 100 11 21 31
43 45 49 17 8 23 16 18 27 -4 9 -8 31 -9 50 -3 59 -67 84 -145 57 -25 -9 -66
-16 -92 -16 -85 0 -201 -21 -248 -45 -43 -22 -111 -85 -110 -103 3 -54 134
-141 213 -142 32 0 37 -3 37 -24 0 -19 -6 -24 -36 -29 -20 -4 -45 -2 -55 3
-10 6 -37 10 -61 10 -24 1 -54 7 -68 15 -33 19 -46 19 -30 0 7 -8 8 -15 2 -15
-5 0 -15 7 -22 15 -14 17 -34 10 -26 -10 3 -8 -10 -17 -37 -24 -76 -21 -132
-54 -131 -79 0 -13 -7 -24 -18 -28 -23 -7 -23 -20 0 -29 15 -6 15 -8 -7 -26
-13 -10 -38 -19 -58 -19 -23 0 -32 -4 -27 -12 4 -6 0 -16 -9 -23 -15 -10 -13
-14 11 -32 15 -11 37 -23 50 -27 46 -15 17 -36 -49 -36 -32 0 -39 -3 -39 -20
0 -18 7 -20 60 -20 60 0 70 -6 49 -27 -14 -14 -5 -43 14 -43 7 0 27 20 45 45
28 40 36 45 71 45 22 0 43 -5 46 -10 8 -13 75 -13 130 1 25 6 52 8 62 5 14 -6
10 -13 -21 -45 -37 -38 -41 -61 -11 -61 8 0 38 18 67 40 29 22 62 40 73 40 10
0 62 -7 115 -16 94 -16 99 -15 183 5 69 18 115 22 244 22 87 0 190 -2 228 -5
l70 -5 0 -283 0 -283 -34 -3 c-34 -4 -34 -3 -18 20 28 38 31 49 15 64 -12 12
-20 7 -62 -41 -53 -62 -68 -68 -60 -26 6 31 -5 45 -29 35 -9 -3 -17 -26 -22
-62 -11 -93 -75 -207 -120 -214 -18 -3 -20 2 -19 54 1 38 8 68 22 92 12 20 24
51 28 71 5 31 10 35 36 35 25 0 29 3 25 19 -3 12 3 27 14 37 38 34 14 60 -27
29 -50 -38 -45 -8 11 61 49 60 52 70 31 100 -14 18 -15 18 -24 -6 -6 -14 -21
-35 -35 -48 l-25 -23 -6 27 c-6 22 -1 33 24 59 31 32 51 79 43 103 -5 14 -39
16 -48 2 -11 -17 -23 -11 -29 15 -13 52 -56 17 -56 -45 0 -29 -2 -32 -24 -26
-14 3 -27 3 -29 -2 -10 -15 23 -73 48 -82 25 -9 25 -11 24 -112 -1 -154 -38
-232 -43 -90 -1 40 -9 69 -25 95 -29 47 -45 43 -49 -11 l-3 -41 -34 16 c-19 9
-37 14 -40 11 -9 -8 14 -61 37 -86 21 -22 21 -22 2 -37 -16 -13 -17 -16 -4
-25 8 -6 29 -9 47 -7 29 3 32 0 38 -30 3 -18 3 -60 -1 -93 l-7 -60 -52 0 c-35
0 -57 5 -65 15 -7 8 -9 15 -5 15 5 0 6 3 3 6 -4 3 -18 -2 -32 -11 -15 -10 -26
-13 -26 -7 0 7 -10 7 -31 -2 -22 -9 -45 -10 -87 -4 -31 5 -80 7 -109 4 -59 -7
-57 -8 -108 74 -21 32 -35 67 -35 85 0 41 17 156 24 163 4 3 16 -4 29 -15 28
-26 55 -35 79 -27 19 6 18 7 -2 41 l-20 35 25 20 c14 11 23 24 20 29 -8 13
-89 11 -102 -2 -8 -8 -17 -8 -33 1 -24 13 -39 1 -40 -30 0 -8 -4 -21 -9 -29
-13 -20 -61 55 -61 97 0 29 -2 31 -18 23 -15 -8 -24 -4 -44 20 -15 16 -34 29
-43 29 -15 0 -17 -7 -11 -51 5 -34 3 -56 -5 -65 -19 -23 5 -39 54 -39 40 0 43
-2 65 -45 19 -38 20 -45 7 -48 -52 -11 -214 136 -250 226 -12 31 -39 89 -59
127 -20 39 -36 75 -36 81 0 14 -28 26 -41 18 -5 -3 -9 -18 -9 -35 0 -16 -4
-29 -8 -29 -15 0 -32 24 -32 46 0 32 -25 47 -81 49 -55 2 -59 -4 -29 -52 19
-32 19 -33 0 -43 -48 -26 -8 -57 59 -45 35 6 40 3 84 -44 69 -73 63 -90 -14
-46 -24 14 -57 25 -72 25 -33 0 -75 20 -101 49 -17 19 -18 26 -6 101 23 146 1
227 -86 320 -24 26 -44 52 -44 57 0 6 -18 23 -40 38 -33 23 -47 27 -80 22 -23
-3 -55 -16 -73 -30 -18 -13 -56 -30 -84 -36 -29 -7 -53 -17 -53 -21 0 -4 19
-11 43 -14 64 -10 76 -20 52 -47 -17 -17 -20 -35 -19 -98 1 -43 9 -91 17 -111
19 -44 66 -89 102 -99 16 -4 30 -12 33 -19 6 -18 -53 -15 -68 3 -7 8 -17 15
-22 15 -6 0 -23 11 -40 25 -36 30 -91 35 -81 8 3 -10 19 -32 35 -49 19 -20 26
-34 19 -38 -6 -4 -11 -14 -11 -22 0 -18 39 -18 60 1 14 12 21 12 57 0 23 -8
55 -12 71 -9 19 4 32 1 41 -10 8 -9 22 -14 35 -11 14 4 32 -4 56 -25 l35 -31
-60 5 c-103 9 -160 16 -173 21 -18 7 -62 -5 -62 -16 0 -5 18 -22 40 -37 25
-17 39 -35 40 -49 0 -30 21 -29 50 2 22 24 27 25 100 19 61 -5 84 -3 113 11
30 14 43 15 68 6 18 -6 45 -11 61 -11 18 0 41 -12 65 -34 l37 -34 -38 -16
c-46 -19 -43 -40 6 -44 33 -3 36 -6 41 -44 3 -22 10 -45 16 -51 14 -14 53 51
48 81 -2 12 -1 22 2 22 4 0 34 -23 69 -52 53 -45 60 -53 45 -61 -26 -14 -63
-49 -63 -60 0 -18 84 1 99 22 7 12 21 21 30 21 30 0 52 -32 118 -172 2 -4 -6
-12 -18 -18 -17 -10 -29 -9 -58 4 -20 8 -67 22 -105 31 -103 23 -144 53 -185
134 -17 31 -34 46 -87 72 -56 28 -80 34 -156 37 -83 4 -88 6 -82 24 9 29 -5
88 -20 88 -8 0 -16 -10 -19 -21 -6 -22 -6 -22 -37 5 -36 30 -48 32 -56 11 -9
-22 15 -72 43 -95 l25 -19 -26 -12 c-32 -15 -57 -4 -122 54 -62 55 -137 205
-132 267 3 42 1 45 -22 45 -18 0 -25 -5 -25 -20 0 -23 -25 -27 -35 -5 -41 85
-94 155 -112 144 -15 -9 -9 -64 12 -104 11 -22 20 -41 20 -44 0 -2 -9 -2 -20
1 -24 6 -26 -4 -3 -29 9 -10 30 -18 48 -18 55 0 123 -80 82 -96 -20 -7 -67 13
-74 33 -8 25 -54 73 -69 73 -20 0 -48 53 -45 86 1 19 -5 39 -18 55 l-21 24 -6
-22 c-6 -21 -8 -22 -35 -7 -45 23 -53 8 -24 -43 14 -25 25 -47 25 -49 0 -2
-27 -4 -60 -4 -33 0 -60 -4 -60 -10 0 -31 110 -62 148 -41 31 17 65 -4 138
-82 52 -56 65 -65 107 -71 38 -6 52 -14 73 -42 37 -48 23 -59 -70 -58 -60 1
-81 6 -122 29 -27 16 -51 30 -53 31 -2 2 2 17 9 34 16 38 1 62 -25 40 -14 -11
-20 -8 -45 21 -16 19 -29 37 -30 42 0 4 -4 7 -10 7 -5 0 -10 -18 -10 -39 0
-29 7 -47 30 -71 17 -18 28 -35 26 -38 -3 -3 -25 0 -48 6 -88 23 -125 25 -132
7 -9 -25 1 -35 37 -35 18 0 61 -8 97 -19 l65 -18 -39 -17 c-49 -21 -163 -21
-202 -1 -37 19 -58 19 -74 0 -17 -20 -7 -30 45 -45 25 -7 45 -14 45 -16 0 -2
-11 -14 -25 -28 -44 -44 -27 -86 19 -51 29 22 36 19 36 -14 0 -69 31 -82 55
-24 16 37 15 48 0 86 -6 14 -2 17 22 17 16 0 69 12 118 26 81 24 95 25 135 14
25 -6 83 -14 130 -17 47 -2 98 -9 113 -15 l29 -11 -24 -13 c-41 -23 -102 -27
-136 -10 -47 25 -108 20 -199 -16 -46 -17 -83 -34 -83 -38 0 -3 6 -15 14 -26
14 -19 15 -19 58 3 80 40 100 44 155 37 70 -8 64 -24 -17 -46 -34 -10 -73 -27
-86 -39 -18 -16 -41 -24 -94 -28 -39 -4 -73 -4 -76 0 -2 4 -96 6 -209 4 -113
-1 -205 1 -205 5 0 4 9 15 20 25 39 35 11 49 -37 18 -26 -17 -26 -17 -15 4 7
12 35 42 64 67 86 76 19 55 -86 -26 -28 -21 -29 -21 -22 -3 23 57 13 55 -43
-5 -54 -58 -60 -62 -50 -33 17 52 6 58 -23 14 -15 -23 -23 -41 -17 -41 5 0 9
-9 9 -20 0 -29 22 -16 60 35 37 49 46 52 31 11 -16 -39 3 -33 55 19 24 25 46
45 49 45 3 0 -13 -23 -36 -52 -42 -53 -39 -73 6 -44 33 22 38 20 20 -7 -19
-29 -11 -39 21 -27 13 5 33 6 43 2 11 -4 93 -5 183 -2 92 3 169 2 176 -4 7 -5
32 -6 57 -3 25 4 45 4 45 0 0 -15 -35 -43 -54 -43 -33 -1 -103 -36 -116 -59
-10 -19 -8 -21 25 -21 19 0 35 -2 35 -4 0 -3 -11 -26 -25 -52 -14 -26 -25 -53
-25 -60 0 -21 31 -17 57 8 l24 22 6 -22 c8 -32 27 -27 46 13 21 44 22 60 1 23
-21 -40 -34 -34 -34 15 0 26 8 55 22 77 l23 35 5 -50 c5 -49 6 -49 13 -18 5
18 6 41 2 52 -4 13 2 25 21 40 36 29 45 26 37 -10 -5 -27 -3 -31 13 -27 10 2
29 22 42 46 19 34 29 42 53 42 28 0 29 -2 29 -46 0 -38 3 -45 17 -42 10 2 28
19 40 38 12 19 27 40 32 46 15 18 119 28 136 14 10 -8 36 -10 84 -5 63 6 69 5
68 -12 -2 -19 11 -21 49 -9 19 6 23 2 28 -29 10 -50 33 -45 49 12 13 44 14 45
28 26 26 -37 81 -61 159 -68 41 -3 107 -17 145 -30 39 -13 104 -29 145 -35
100 -15 190 -38 217 -56 13 -8 25 -29 29 -51 4 -21 20 -55 36 -77 15 -21 28
-45 28 -53 0 -11 -72 -13 -406 -13 -267 0 -403 3 -399 10 3 6 19 10 36 10 19
0 29 5 29 16 0 8 15 21 34 29 19 8 42 25 50 37 15 21 15 23 -1 29 -11 4 -21 1
-26 -7 -4 -8 -16 -14 -25 -14 -15 1 -14 3 3 16 19 15 18 15 -17 13 -21 -2 -43
2 -50 9 -6 6 -18 12 -24 12 -7 0 -22 14 -34 30 -28 40 -43 34 -52 -20 -4 -23
-14 -50 -23 -60 -20 -22 -19 -40 4 -68 24 -27 31 -28 24 -2 -3 11 -12 20 -19
20 -22 0 -16 31 6 37 15 4 19 11 15 24 -7 21 10 25 34 10 10 -7 19 -5 26 6 14
18 35 10 35 -14 0 -10 6 -13 16 -9 8 3 12 2 9 -3 -3 -6 3 -14 12 -20 17 -10
17 -10 0 -11 -13 0 -17 -5 -12 -19 7 -23 -12 -38 -28 -22 -7 7 -14 5 -23 -7
-12 -15 -15 -15 -23 -2 -8 12 -13 12 -23 2 -9 -9 -9 -12 4 -12 9 0 20 -5 23
-10 4 -7 -648 -9 -1961 -8 l-1968 3 -14 100 c-7 55 -14 112 -16 128 -5 46 -15
42 -42 -17 -18 -40 -28 -81 -31 -137 l-6 -79 -47 0 -48 0 -23 57 c-38 94 -76
152 -153 230 -91 90 -114 98 -77 25 42 -83 101 -259 101 -301 0 -16 -140 -15
-144 2 -16 56 -51 278 -54 343 l-3 80 108 14 c179 23 627 29 793 12 150 -16
215 -28 294 -53 68 -22 73 -22 305 -11 159 7 253 16 288 27 67 20 144 21 207
1 80 -25 240 -31 312 -12 77 20 155 20 259 2 117 -22 340 -46 417 -46 56 0 71
4 88 22 26 28 20 33 -18 11 -27 -16 -42 -16 -173 -5 -79 6 -202 21 -274 32
-159 24 -199 24 -320 5 -99 -16 -242 -10 -325 15 -48 14 -92 12 -175 -5 -61
-14 -410 -40 -487 -37 -16 1 -58 10 -94 22 -36 11 -79 20 -94 20 -15 0 -47 7
-71 16 -26 9 -74 16 -119 15 -41 0 -102 7 -135 15 -44 12 -85 14 -150 10 -49
-3 -191 -10 -315 -16 -124 -5 -244 -14 -268 -19 -23 -4 -44 -6 -46 -2 -4 6 13
66 54 201 22 69 27 170 9 170 -5 0 -17 -17 -26 -38 -8 -20 -32 -66 -54 -102
-36 -62 -66 -136 -86 -209 -8 -33 -10 -30 -33 67 -13 56 -27 102 -32 102 -11
0 -57 -102 -73 -160 -11 -39 -16 -45 -40 -45 -24 0 -30 7 -48 55 -24 66 -72
143 -115 187 -29 28 -32 37 -32 92 l0 60 39 11 c47 12 147 85 196 143 39 45
133 223 158 297 8 25 18 70 22 100 l7 55 -31 -29 c-17 -17 -31 -34 -31 -39 0
-5 -24 -46 -54 -90 -51 -79 -258 -307 -277 -307 -17 0 -107 -75 -118 -98 -6
-13 -11 -34 -11 -47 0 -14 -3 -25 -8 -25 -4 0 -37 21 -74 47 -37 27 -85 61
-107 76 -61 42 -59 56 38 229 19 33 31 67 28 80 -3 23 -4 23 -14 -3 -6 -14
-39 -50 -72 -80 -33 -29 -66 -66 -72 -81 -6 -15 -15 -28 -19 -28 -12 0 -140
141 -153 168 -10 21 -37 31 -37 14 0 -43 104 -278 141 -318 18 -20 27 -84 11
-84 -4 0 -38 25 -75 56 -70 58 -89 63 -69 19 14 -31 54 -226 47 -233 -7 -7
-92 65 -117 99 -19 25 -48 40 -48 24 0 -16 96 -237 117 -269 14 -21 53 -68 86
-104 34 -37 56 -67 49 -70 -7 -2 -44 4 -83 13 -39 8 -80 13 -91 9 -11 -3 -58
-3 -104 1 l-84 7 2 826 3 827 185 6 c102 4 208 11 235 17 28 6 111 15 185 21
74 7 182 18 240 26 58 8 175 17 260 20 129 5 157 9 168 23 11 15 39 17 242 18
238 1 291 6 324 30 24 17 25 17 62 4z m2940 -55 c-8 -45 8 -141 27 -160 12
-12 17 -34 17 -80 0 -87 -12 -95 -146 -95 -116 0 -175 14 -282 68 -72 36 -100
57 -89 68 6 7 49 -17 60 -33 4 -6 20 -14 36 -18 16 -3 46 -15 67 -26 66 -33
220 -23 264 17 20 19 -2 18 -41 -1 -27 -14 -36 -14 -97 1 -88 22 -108 33 -59
34 20 0 37 5 37 10 0 6 -11 8 -25 4 -17 -4 -32 -1 -44 10 -14 13 -24 14 -45 7
-29 -11 -79 4 -73 22 5 16 127 47 182 46 71 0 130 -13 128 -27 -2 -7 4 -12 12
-12 20 0 35 62 35 148 0 70 1 72 21 60 15 -10 19 -20 15 -43z m2069 -325 c12
-20 -8 -101 -34 -140 -36 -54 -87 -87 -163 -106 -72 -19 -169 -13 -227 13
l-36 16 65 8 c35 5 85 13 111 18 55 12 165 59 156 67 -3 3 -18 -1 -34 -9 -51
-27 -175 -59 -232 -60 -60 -2 -131 24 -131 47 0 25 78 85 132 101 29 9 103 20
163 24 61 5 121 13 135 19 32 14 87 15 95 2z m-43 -350 c-18 -17 -26 -30 -19
-30 8 0 22 9 32 20 10 11 25 20 34 20 27 0 -10 -28 -63 -49 -29 -11 -44 -21
-37 -25 6 -4 49 13 96 38 65 35 89 44 107 37 19 -7 13 -12 -53 -44 -41 -19
-85 -38 -99 -42 -14 -4 -38 -15 -55 -25 -34 -21 -117 -17 -136 6 -6 8 -16 14
-22 14 -5 0 -2 -9 8 -20 17 -18 16 -19 -8 -25 -41 -11 -88 -67 -94 -114 -7
-53 -25 -52 -98 7 -32 25 -29 34 14 36 16 1 33 5 37 9 4 4 16 7 26 7 20 0 68
42 68 60 0 6 -4 8 -10 5 -5 -3 -10 1 -10 9 0 9 5 16 10 16 6 0 10 6 10 14 0 8
10 17 23 19 12 2 2 5 -23 5 -25 0 -39 -2 -32 -5 23 -9 12 -23 -20 -23 -18 0
-51 -7 -73 -15 -47 -17 -85 -19 -85 -5 0 6 7 10 15 10 8 0 15 5 15 10 0 6 -6
10 -14 10 -8 0 -18 -4 -21 -10 -3 -5 -20 -10 -36 -10 -17 0 -60 -16 -98 -35
-72 -37 -81 -40 -81 -26 0 5 12 12 28 16 l27 8 -28 12 -28 11 43 18 c24 10 37
20 31 23 -19 7 -16 23 5 23 10 0 23 5 28 10 8 8 19 8 38 0 33 -12 60 -12 29 0
-13 5 -23 14 -23 21 0 6 6 9 13 6 103 -43 117 -51 105 -58 -9 -6 -4 -9 15 -9
33 0 36 17 5 30 -21 8 -20 9 11 9 29 1 32 3 21 16 -11 13 -8 15 14 15 15 0 45
-9 67 -20 32 -15 40 -16 35 -5 -6 18 -5 18 28 5 18 -6 35 -6 54 1 15 7 50 12
77 13 28 1 64 9 80 18 46 26 54 21 17 -12z m-1293 -30 c10 -5 24 -23 31 -40
11 -26 10 -33 -4 -48 -51 -58 -36 -162 39 -272 51 -74 57 -96 23 -85 -13 3
-34 9 -48 12 -14 3 -38 11 -55 18 -16 7 -46 20 -67 28 -33 14 -38 22 -59 87
-23 69 -23 73 -7 118 10 26 20 67 24 92 7 46 26 71 53 69 11 0 12 -2 4 -6 -18
-7 -16 -33 2 -33 8 0 15 7 15 15 0 8 5 15 10 15 6 0 10 5 10 10 0 6 -19 10
-42 10 -32 0 -39 3 -28 10 19 13 76 13 99 0z m1851 -40 c0 -49 -1 -50 -29 -50
-16 0 -73 -9 -128 -21 -54 -11 -118 -23 -143 -25 l-45 -5 25 21 c28 24 64 40
87 40 13 0 13 -3 3 -15 -21 -25 5 -17 45 15 21 17 42 30 48 30 6 0 8 3 5 6 -4
3 -21 -2 -38 -11 -25 -13 -34 -14 -40 -5 -6 10 -15 10 -40 1 -44 -15 -55 -14
-40 3 6 8 37 20 68 26 31 7 82 18 112 25 30 7 67 13 83 14 26 1 27 -1 27 -49z
m-6244 -110 c-9 -29 -41 -100 -72 -158 -87 -165 -196 -260 -316 -277 -43 -6
-48 -4 -48 14 0 13 29 40 88 84 121 89 285 269 341 375 20 38 24 18 7 -38z
m4487 48 c34 -27 67 -113 67 -176 0 -73 -10 -152 -20 -152 -10 0 -81 105 -107
159 -50 102 -8 220 60 169z m631 0 c-5 -8 -2 -9 9 -5 28 11 19 -8 -13 -26 -16
-10 -30 -22 -30 -27 0 -5 -25 -16 -55 -25 -30 -8 -55 -19 -55 -24 0 -5 29 1
64 13 35 11 62 23 60 25 -8 8 20 33 54 47 47 19 53 18 16 -5 -32 -19 -52 -41
-38 -41 4 0 18 9 30 21 28 26 45 22 33 -8 -6 -16 -17 -23 -33 -23 -25 0 -113
-30 -148 -50 -25 -14 -55 -12 -86 4 -15 8 -36 18 -47 21 -18 7 -17 8 8 16 16
4 35 5 43 2 22 -8 105 17 147 45 20 14 35 27 33 30 -3 2 -17 -5 -33 -15 -33
-23 -63 -35 -63 -25 0 7 90 61 103 62 5 0 5 -5 1 -12z m1097 -28 c24 0 29 -4
29 -24 0 -33 -15 -40 -80 -39 -30 1 -77 -4 -103 -12 -56 -17 -270 -31 -222
-15 17 6 57 16 90 24 42 10 51 14 30 15 -16 0 -91 -13 -165 -29 -149 -33 -150
-33 -150 -22 0 15 135 55 230 68 52 7 118 20 145 29 32 9 71 13 109 10 32 -3
72 -5 87 -5z m-952 -79 c42 -33 110 -71 128 -71 7 0 13 -4 13 -9 0 -4 29 -6
65 -4 44 2 65 0 65 -8 0 -8 4 -8 14 0 11 9 15 9 19 -1 4 -10 8 -10 16 2 9 12
12 13 20 1 6 -9 10 -10 16 -2 5 9 10 9 20 1 9 -8 14 -6 19 5 4 11 20 15 58 15
66 0 54 -14 -32 -36 -42 -11 -81 -14 -114 -10 -28 4 -85 9 -127 12 -75 6 -76
6 -123 -30 -59 -45 -84 -47 -33 -3 20 18 37 40 37 49 0 9 6 19 13 22 6 3 -3 3
-20 0 -27 -3 -33 -1 -33 15 0 10 -17 30 -40 45 -22 14 -40 28 -40 31 0 13 25
2 59 -24z m-5892 -356 c104 -64 210 -145 257 -196 47 -50 126 -185 126 -214 0
-20 94 -304 126 -383 19 -45 34 -84 34 -86 0 -9 -121 -2 -129 8 -5 6 -16 34
-24 61 -9 28 -28 82 -43 120 -14 39 -44 122 -66 185 -61 178 -92 234 -172 304
-259 228 -285 256 -327 342 -21 46 -39 89 -39 96 0 7 51 -39 113 -102 61 -63
127 -124 144 -135z m5453 110 c0 -11 16 -44 35 -74 19 -30 44 -83 56 -118 11
-34 25 -63 30 -63 5 0 36 -24 68 -54 69 -63 127 -96 171 -96 46 0 49 24 11 93
-18 33 -28 56 -22 53 6 -4 18 -20 26 -37 22 -41 42 -37 55 11 6 22 15 40 20
40 16 0 12 -38 -9 -83 -10 -23 -21 -76 -25 -117 -6 -72 -5 -77 26 -130 18 -30
61 -82 95 -115 41 -40 63 -71 68 -93 4 -19 21 -46 40 -64 19 -16 41 -51 49
-76 24 -69 22 -74 -26 -70 -38 3 -45 7 -65 43 -12 22 -29 51 -36 65 -8 14 -17
41 -21 61 -3 20 -15 44 -26 54 -21 19 -201 65 -258 65 -21 1 -62 9 -92 20 -30
11 -102 25 -160 32 l-105 12 -81 76 c-91 86 -171 135 -255 154 -30 7 -66 19
-78 26 -13 6 -79 16 -146 20 -67 4 -132 13 -143 19 -25 13 -65 14 -77 2 -19
-17 -119 -41 -174 -41 -67 0 -171 24 -158 36 3 3 25 -1 49 -9 90 -29 234 -5
278 48 11 13 7 15 -31 15 -42 0 -189 26 -198 36 -8 8 35 3 94 -11 33 -8 79
-15 102 -15 26 0 60 -10 90 -26 42 -22 58 -25 125 -22 99 4 109 13 75 71 -27
45 -63 67 -113 67 -13 0 -26 5 -29 10 -4 6 10 10 36 10 41 0 41 0 35 33 -3 18
-19 43 -36 58 -38 32 -38 40 0 33 27 -6 30 -4 30 19 0 14 3 28 8 30 4 3 7 -20
7 -51 0 -50 6 -65 43 -121 23 -35 42 -69 42 -76 0 -19 80 -93 124 -115 23 -11
55 -20 71 -20 29 0 173 -89 210 -130 26 -29 68 -50 98 -50 14 0 43 -6 65 -14
22 -8 43 -12 46 -9 3 3 -9 23 -27 45 -17 21 -41 55 -52 75 -12 21 -39 47 -64
61 -39 21 -53 24 -118 20 -46 -3 -89 0 -111 7 l-35 13 54 11 c64 14 143 6 217
-21 57 -21 112 -62 112 -83 0 -20 49 -74 92 -102 22 -13 67 -29 101 -35 34 -6
84 -22 110 -35 27 -13 58 -23 70 -21 34 5 25 64 -24 153 -37 69 -47 79 -100
106 -33 16 -83 50 -112 75 -28 25 -87 72 -130 104 -70 53 -84 59 -141 65 -45
5 -75 3 -108 -8 -25 -9 -54 -14 -64 -12 -11 2 -40 7 -66 10 -80 10 -57 28 25
20 59 -6 75 -4 85 8 11 13 7 20 -23 43 -19 15 -50 34 -67 43 -18 9 -34 22 -36
29 -6 19 32 14 61 -8 14 -11 32 -20 41 -20 8 0 30 -13 48 -29 44 -38 71 -51
106 -51 16 0 54 -13 85 -30 65 -35 107 -39 107 -12 0 29 -56 109 -94 134 -36
23 -49 46 -21 34 8 -3 22 -9 30 -12 12 -5 15 2 16 32 0 31 2 35 9 19 5 -11 9
-29 10 -40z m-5716 -118 c15 -12 41 -33 58 -47 l29 -25 -3 -105 -3 -104 -33
29 c-32 30 -41 56 -86 248 -8 33 0 34 38 4z m235 -109 c31 -29 78 -72 104 -94
l47 -41 0 -102 c0 -55 -4 -101 -9 -101 -4 0 -16 21 -26 48 -28 75 -71 145
-130 211 -44 50 -55 69 -55 96 0 19 3 35 7 35 3 0 32 -24 62 -52z m6660 0
c-13 -18 -33 -43 -46 -55 -18 -17 -23 -33 -23 -70 0 -54 -22 -134 -46 -171
-24 -36 -25 -165 -2 -170 49 -10 141 130 154 234 7 57 24 74 24 24 0 -19 5
-30 14 -30 16 0 90 68 98 90 3 8 9 12 13 8 4 -4 -3 -21 -15 -37 -26 -37 -19
-53 24 -51 46 3 51 1 39 -11 -7 -7 -38 -12 -70 -11 -74 1 -110 -25 -124 -88
-7 -30 -24 -59 -54 -92 -61 -65 -59 -78 10 -78 65 0 109 16 175 65 61 45 88
46 35 1 -38 -32 -39 -33 -17 -45 11 -6 27 -10 34 -9 7 2 13 -4 13 -12 0 -17
-10 -17 -74 -6 -37 7 -48 5 -75 -15 -27 -21 -42 -24 -121 -24 l-90 0 -17 -35
c-13 -25 -17 -54 -15 -105 2 -57 -1 -70 -13 -70 -11 0 -18 17 -24 59 -8 50 -6
69 12 125 14 44 23 104 26 180 5 94 9 117 24 132 29 26 46 126 39 224 -4 51
-2 85 3 85 6 0 10 -18 10 -40 0 -22 3 -40 8 -40 13 1 59 45 72 70 8 14 15 20
17 13 3 -7 -6 -27 -18 -45z m-5880 -84 c-44 -144 -69 -250 -69 -289 0 -47 21
-181 44 -278 9 -38 16 -79 16 -93 0 -22 -4 -25 -32 -22 l-33 3 -22 105 c-41
199 -27 394 38 524 24 46 73 125 76 122 2 -1 -7 -34 -18 -72z m-733 -106 c20
-32 49 -97 65 -143 15 -47 35 -97 42 -112 13 -25 31 -153 21 -153 -1 0 -26 44
-53 98 -28 53 -72 123 -98 156 -27 32 -56 68 -65 80 -12 15 -19 49 -23 121
l-6 100 41 -44 c22 -24 56 -70 76 -103z m-236 16 c92 -76 200 -189 233 -246
77 -131 161 -322 150 -340 -12 -21 -35 -2 -69 60 -63 114 -93 152 -230 292
-128 132 -186 207 -218 284 -35 83 -23 79 134 -50z m809 -111 c24 -129 27
-253 7 -311 -8 -22 -18 -62 -22 -88 -5 -38 -9 -44 -18 -32 -8 11 -9 59 -3 168
7 108 6 155 -2 163 -8 8 -11 -10 -11 -65 0 -41 -3 -103 -7 -138 l-6 -62 -24
63 c-22 57 -24 75 -20 164 4 70 13 122 31 172 42 123 45 122 75 -34z m4733 86
c23 -12 40 -29 44 -43 3 -13 19 -36 35 -52 35 -33 37 -46 7 -40 -13 3 -39 7
-59 11 -21 3 -56 22 -87 48 -28 23 -66 53 -86 67 l-34 25 41 6 c53 8 92 2 139
-22z m-327 -19 c-3 -5 -15 -10 -25 -10 -11 0 -54 -19 -97 -41 -43 -23 -103
-49 -133 -58 -50 -15 -57 -21 -83 -69 -32 -59 -54 -70 -31 -16 8 20 13 38 11
41 -3 2 -24 -9 -48 -26 -48 -35 -66 -34 -24 1 15 13 35 31 45 40 26 23 50 34
91 42 20 3 58 17 85 30 45 22 47 24 24 30 -63 14 -135 23 -149 19 -9 -3 -44
-16 -78 -29 -72 -28 -74 -28 -67 -10 3 8 35 25 70 36 65 22 70 22 219 5 33 -4
64 -1 90 8 47 17 109 22 100 7z m140 -53 c27 -18 50 -37 52 -42 5 -15 -44 -33
-124 -45 -61 -10 -75 -9 -96 5 -21 13 -31 14 -69 4 -52 -14 -78 -8 -78 19 0
20 97 74 173 97 49 14 72 8 142 -38z m1735 -51 c0 -51 -2 -54 -42 -83 -35 -24
-56 -31 -115 -36 -40 -3 -73 -4 -73 -2 0 2 11 25 25 51 14 26 25 53 25 60 0 8
5 14 10 14 6 0 10 -4 10 -8 0 -17 42 -52 62 -52 17 0 20 5 16 29 -3 23 0 31
15 35 14 3 17 10 12 25 -4 15 -1 20 17 23 35 6 38 1 38 -56z m-6628 -146 c5
-58 13 -132 19 -165 24 -143 24 -137 -1 -133 -18 2 -26 14 -37 57 -16 64 -33
254 -32 361 l0 75 21 -45 c13 -29 24 -82 30 -150z m-484 44 c34 -4 65 -11 68
-15 5 -9 54 -293 54 -316 0 -11 -43 -13 -217 -11 l-218 3 -3 177 -2 177 127
-4 c71 -2 156 -7 191 -11z m6482 -10 c36 -1 94 -6 130 -11 61 -8 65 -10 68
-36 2 -15 -6 -58 -18 -95 -17 -52 -21 -81 -16 -130 l5 -63 -100 3 -101 3 -25
60 c-14 33 -34 69 -44 81 -10 11 -19 27 -19 35 0 8 -10 30 -22 49 -12 19 -27
44 -33 55 -6 11 -19 21 -30 23 -11 3 -26 9 -34 15 -22 18 24 27 104 20 39 -3
99 -7 135 -9z m-6343 -46 c10 -11 73 -255 73 -279 0 -5 -14 -9 -30 -9 -39 0
-44 15 -65 162 -9 62 -18 123 -21 136 -4 20 -2 22 14 13 10 -5 23 -16 29 -23z
m1103 -191 c24 -48 37 -84 32 -89 -5 -5 -24 -8 -42 -6 -26 2 -35 9 -41 28 -4
14 -18 61 -32 105 -43 139 -43 135 3 86 22 -24 58 -80 80 -124z m5838 137 l33
-7 -3 -111 -3 -111 -77 -3 c-81 -3 -101 8 -48 27 24 8 30 16 30 39 0 42 -9 45
-47 12 -18 -17 -38 -30 -43 -30 -6 0 -10 20 -10 45 0 38 -3 45 -20 45 -20 0
-22 -4 -37 -90 l-9 -45 -54 0 -55 0 -7 60 c-5 48 -2 69 13 104 l19 43 47 -8
c71 -11 100 -7 146 20 26 15 52 23 67 20 14 -2 40 -7 58 -10z"/>
<path d="M448 5280 c-7 -11 -18 -20 -25 -20 -17 0 -36 -37 -23 -45 5 -3 10
-17 10 -30 0 -13 6 -27 12 -32 19 -11 88 -13 88 -2 0 5 11 14 25 19 14 5 25
15 25 22 0 7 3 22 6 34 8 29 -21 56 -50 48 -16 -4 -25 0 -29 10 -9 22 -24 20
-39 -4z"/>
<path d="M320 5097 c0 -16 -9 -28 -25 -35 -26 -12 -33 -36 -15 -47 6 -4 8 -15
5 -26 -5 -14 0 -21 18 -28 14 -6 28 -15 32 -20 4 -8 12 -8 25 -1 10 5 25 7 33
4 9 -3 23 6 36 24 17 24 19 37 13 73 -7 40 -10 44 -39 47 -17 2 -37 10 -43 18
-19 22 -40 17 -40 -9z"/>
<path d="M250 4831 c0 -11 -8 -21 -17 -23 -14 -2 -18 -14 -19 -51 -1 -42 2
-50 22 -57 13 -5 24 -14 24 -20 0 -5 11 -10 25 -10 14 0 25 4 25 9 0 6 12 16
28 23 15 7 27 18 28 23 0 6 4 18 8 28 10 21 -19 87 -37 87 -7 0 -18 -5 -23
-10 -8 -8 -15 -6 -24 5 -17 21 -40 19 -40 -4z"/>
<path d="M551 4794 c-17 -12 -26 -13 -34 -5 -6 6 -19 11 -29 11 -18 0 -22 -9
-18 -43 1 -10 -6 -27 -15 -37 -23 -25 -17 -84 10 -89 11 -2 24 -9 30 -16 16
-20 102 -29 112 -12 4 8 19 20 31 26 16 8 22 19 19 30 -2 10 0 26 5 35 7 13 5
23 -7 36 -9 10 -14 23 -11 29 9 14 -29 51 -52 51 -10 0 -28 -7 -41 -16z m67
-7 c6 -7 9 -23 5 -35 -4 -16 -1 -22 11 -22 9 0 16 -7 16 -15 0 -8 -7 -15 -15
-15 -19 0 -19 -14 0 -30 19 -16 9 -33 -16 -27 -13 4 -19 0 -19 -13 0 -26 -31
-35 -37 -10 -6 24 -19 26 -27 4 -9 -22 -26 -7 -26 23 0 26 0 26 -20 8 -14 -13
-24 -15 -31 -8 -15 15 1 64 24 72 14 5 17 10 9 15 -15 9 -15 43 0 52 6 4 16 0
23 -9 16 -22 21 -21 45 3 23 23 43 25 58 7z"/>
<path d="M1563 5233 c-7 -2 -13 -16 -13 -29 0 -17 -6 -24 -19 -24 -11 0 -22
-4 -25 -9 -9 -14 4 -41 20 -41 8 0 14 -10 14 -25 0 -28 25 -44 43 -26 6 6 21
11 34 11 14 0 23 6 23 15 0 9 7 18 15 21 17 7 21 54 5 54 -6 0 -8 11 -4 25 7
29 -17 45 -40 26 -10 -8 -16 -9 -21 -1 -7 11 -13 11 -32 3z"/>
<path d="M2297 5223 c-4 -3 -7 -16 -7 -29 0 -12 -7 -24 -15 -28 -22 -8 -19
-57 4 -63 11 -3 21 -13 24 -24 5 -19 37 -27 37 -10 0 6 14 11 31 13 26 3 33 9
45 43 8 25 10 43 4 49 -6 6 -10 20 -10 33 0 25 -19 30 -52 12 -14 -8 -23 -8
-31 0 -13 13 -21 14 -30 4z"/>
<path d="M2971 5024 c-6 -13 -17 -24 -26 -24 -16 0 -21 -35 -5 -45 5 -3 7 -11
5 -18 -3 -7 -1 -17 3 -24 9 -15 102 -29 102 -15 0 5 9 12 20 15 13 3 20 14 20
30 0 14 5 29 11 32 7 5 6 12 -4 23 -8 10 -16 24 -20 33 -3 11 -18 16 -50 16
-38 1 -46 -3 -56 -23z"/>
<path d="M3077 4853 c-4 -3 -7 -23 -7 -44 0 -28 -5 -38 -20 -42 -27 -7 -26
-44 2 -74 l22 -23 -27 -28 c-48 -50 -27 -82 29 -46 28 19 28 19 41 -21 5 -16
21 -37 36 -45 23 -13 28 -13 46 4 14 12 28 16 45 12 16 -4 30 0 40 10 27 27
19 60 -24 97 -22 19 -40 39 -40 45 0 15 36 25 60 17 14 -5 20 -2 20 10 0 12
-6 14 -27 9 -24 -6 -26 -5 -19 17 12 40 12 52 -1 56 -8 3 -13 -5 -13 -22 0
-29 -16 -65 -29 -65 -5 0 -11 16 -14 36 -9 52 -51 104 -86 104 -15 0 -31 -3
-34 -7z"/>
<path d="M2730 4630 c-6 -11 -15 -18 -19 -15 -15 9 -35 -23 -23 -37 5 -7 12
-24 14 -38 3 -22 8 -25 48 -27 37 -1 49 4 74 28 23 23 27 32 18 41 -7 7 -12
23 -12 36 0 22 -3 24 -30 19 -17 -4 -30 -2 -30 3 0 18 -29 10 -40 -10z"/>
<path d="M2986 4482 c-3 -3 -6 -13 -6 -21 0 -9 -9 -22 -20 -29 -26 -16 -26
-48 0 -62 12 -6 19 -19 17 -33 -1 -16 4 -23 21 -25 13 -2 24 3 28 12 4 11 13
14 30 10 18 -5 24 -2 24 10 0 9 4 16 8 16 5 0 17 6 27 14 17 12 17 15 3 35 -9
12 -14 30 -11 41 3 10 -1 21 -7 25 -15 9 -107 15 -114 7z"/>
<path d="M2655 4430 c-12 -13 -28 -19 -54 -17 -31 2 -36 -1 -39 -22 -2 -13 1
-28 6 -33 6 -6 8 -26 5 -44 -5 -32 -4 -34 24 -34 16 0 34 -5 41 -12 9 -9 16
-8 29 4 10 9 27 18 38 20 12 2 21 13 23 26 2 12 8 22 13 22 15 0 10 37 -6 44
-8 3 -15 14 -15 24 0 20 -18 42 -35 42 -7 0 -20 -9 -30 -20z"/>
<path d="M2275 4340 c-4 -14 -15 -20 -36 -20 -34 0 -48 -22 -29 -45 10 -12 10
-21 1 -41 -15 -34 0 -60 40 -68 35 -7 109 3 109 14 0 4 9 17 19 29 33 38 5
132 -36 117 -6 -3 -15 4 -18 15 -8 25 -42 25 -50 -1z m30 -20 c-7 -33 -4 -36
24 -18 10 6 26 8 36 4 17 -6 17 -7 0 -26 -16 -18 -16 -20 -2 -20 11 0 17 -8
17 -21 0 -16 -4 -19 -21 -14 -18 6 -20 4 -15 -13 4 -12 2 -24 -6 -28 -6 -4
-14 -2 -16 4 -5 17 -22 15 -22 -3 0 -8 -7 -15 -16 -15 -10 0 -14 6 -11 14 9
22 -5 28 -24 10 -17 -15 -19 -15 -25 -1 -3 9 1 26 10 38 14 21 14 24 -1 41
-25 28 -2 46 31 24 26 -16 26 -16 26 12 0 26 7 42 17 42 3 0 2 -13 -2 -30z"/>
<path d="M1764 4275 c-4 -8 -14 -15 -23 -15 -29 0 -45 -16 -36 -36 5 -11 9
-35 9 -54 1 -34 2 -35 44 -37 26 -1 56 5 75 16 27 15 32 24 35 59 3 37 0 43
-21 51 -14 6 -28 15 -32 20 -9 16 -45 13 -51 -4z"/>
<path d="M5534 5284 c-35 -19 -64 -44 -64 -57 0 -5 16 5 35 22 41 36 65 40 65
11 0 -23 10 -26 29 -7 11 10 14 10 18 0 6 -15 33 -17 33 -3 0 18 18 11 25 -10
3 -11 12 -20 19 -20 6 0 21 -7 31 -15 11 -8 57 -42 102 -75 66 -49 87 -71 105
-111 13 -27 28 -49 34 -49 7 0 14 -7 18 -15 3 -8 12 -15 20 -15 9 0 20 -9 26
-21 6 -11 17 -18 23 -16 7 2 27 -9 45 -24 18 -16 41 -29 51 -29 10 0 26 -11
35 -25 9 -14 22 -25 29 -25 7 0 21 -16 30 -35 9 -20 25 -38 34 -41 10 -3 26
-10 36 -15 10 -5 22 -7 27 -4 6 3 20 -1 32 -9 42 -30 38 -16 -9 29 -25 25 -48
45 -50 45 -2 0 4 -15 12 -32 l16 -33 -26 30 c-14 17 -32 44 -40 60 -7 17 -14
24 -14 17 -1 -7 6 -27 16 -45 15 -30 15 -31 -1 -18 -10 8 -27 33 -38 54 -13
26 -23 36 -27 28 -6 -8 -13 -4 -25 14 -11 17 -23 24 -33 21 -14 -6 -56 30 -80
69 -9 16 -14 17 -21 7 -7 -10 -12 -5 -22 17 -10 24 -16 29 -25 21 -10 -8 -15
-6 -20 9 -3 12 -12 21 -18 21 -7 0 -21 15 -31 34 -23 44 -137 135 -224 180
-18 9 -32 23 -32 31 0 21 -19 28 -36 14 -13 -10 -17 -10 -24 1 -7 11 -11 11
-24 1 -13 -11 -16 -11 -16 2 0 24 -14 27 -46 11z"/>
<path d="M7069 5267 c-42 -28 -69 -82 -82 -168 -17 -111 4 -138 91 -118 20 5
91 16 157 24 134 17 185 29 196 47 17 26 -97 198 -148 223 -19 9 -59 15 -106
15 -61 0 -80 -4 -108 -23z m194 -1 c62 -25 170 -183 146 -213 -6 -6 -38 -14
-72 -18 -34 -3 -118 -15 -185 -26 -68 -11 -130 -18 -138 -15 -29 11 -7 191 30
235 39 49 147 67 219 37z"/>
<path d="M5465 4929 c-69 -24 -95 -45 -133 -108 -26 -45 -27 -50 -27 -201 0
-143 -2 -156 -20 -172 -31 -26 -9 -50 66 -70 104 -28 471 -10 506 25 19 18 5
54 -24 62 -25 6 -25 8 -19 58 18 146 19 214 1 269 -30 99 -96 145 -217 153
-58 5 -85 1 -133 -16z m245 -24 c44 -23 88 -84 101 -139 9 -41 7 -77 -5 -176
-9 -68 -18 -125 -19 -126 -1 -1 -100 -4 -219 -8 -185 -5 -219 -4 -231 9 -20
19 -31 127 -24 220 5 71 30 138 66 179 59 67 238 89 331 41z m-190 -465 c58 6
156 10 218 10 104 0 112 -1 112 -19 0 -30 -46 -39 -241 -46 -188 -6 -306 6
-317 33 -8 23 15 29 71 21 30 -5 97 -5 157 1z"/>
<path d="M5470 4869 c-39 -16 -64 -44 -95 -108 -40 -85 -35 -91 75 -91 l91 0
15 35 c17 41 18 100 3 144 -12 34 -39 40 -89 20z m76 -55 c9 -77 -4 -117 -41
-125 -48 -11 -123 -10 -130 1 -8 13 30 99 58 129 22 23 71 50 94 51 7 0 14
-23 19 -56z"/>
<path d="M5606 4839 c-3 -17 -6 -55 -6 -84 0 -46 3 -53 25 -63 35 -16 87 -15
110 1 15 12 17 22 11 57 -10 62 -31 96 -67 109 -52 18 -66 14 -73 -20z m99
-10 c14 -14 19 -32 20 -71 l0 -53 -50 0 -50 0 -3 54 c-5 83 3 103 36 95 15 -4
36 -15 47 -25z"/>
<path d="M5613 4644 c-8 -4 -13 -27 -13 -64 0 -69 12 -80 83 -80 54 0 71 21
79 93 5 46 5 47 -22 47 -15 0 -47 2 -71 5 -24 2 -50 2 -56 -1z"/>
<path d="M5370 4625 c-18 -22 -16 -104 4 -123 16 -17 56 -19 132 -7 50 7 57
21 52 96 l-3 44 -86 3 c-69 2 -89 0 -99 -13z m170 -49 c0 -30 -4 -57 -10 -61
-5 -3 -38 -8 -73 -12 -74 -7 -78 -3 -80 63 -2 56 8 64 96 64 l67 0 0 -54z"/>
<path d="M7170 4470 c-30 -5 -93 -13 -140 -19 -75 -9 -88 -14 -112 -40 -43
-48 -48 -153 -18 -411 10 -89 13 -97 45 -127 54 -51 97 -58 223 -34 59 11 123
23 143 27 56 9 95 38 109 79 10 30 8 55 -10 153 -49 263 -79 344 -135 368 -19
8 -38 13 -42 13 -4 -1 -33 -5 -63 -9z m132 -40 c24 -29 61 -157 87 -300 38
-209 33 -222 -109 -251 -234 -49 -268 -49 -320 -1 -31 29 -32 33 -61 287 -11
98 -3 184 22 224 22 36 59 48 184 61 126 12 175 7 197 -20z"/>
<path d="M7172 4387 c-8 -10 -9 -30 -2 -73 6 -32 10 -60 10 -61 0 -1 10 -7 21
-14 17 -9 30 -7 60 7 34 15 39 22 39 49 0 18 -10 47 -23 66 -18 26 -31 35 -58
37 -21 2 -40 -3 -47 -11z"/>
<path d="M6989 4367 c-37 -25 -49 -66 -39 -141 7 -53 23 -61 93 -46 83 17 91
28 82 119 -4 42 -9 79 -12 84 -10 17 -91 7 -124 -16z"/>
<path d="M7231 4188 l-34 -9 7 -52 c18 -141 23 -167 29 -173 15 -16 68 -6 92
16 34 32 34 101 0 176 -26 57 -32 60 -94 42z"/>
<path d="M7047 4136 c-33 -7 -63 -19 -68 -27 -10 -15 -2 -140 12 -176 9 -23
20 -27 73 -24 76 4 106 43 106 139 0 49 -4 66 -20 82 -23 23 -24 23 -103 6z
m94 -27 c18 -34 7 -148 -16 -165 -10 -8 -24 -14 -29 -14 -11 1 -97 172 -90
179 5 5 72 18 101 20 13 1 27 -8 34 -20z"/>
<path d="M6224 4390 c-59 -12 -135 -51 -156 -80 -28 -38 -39 -132 -32 -260 8
-146 22 -183 77 -206 56 -23 177 -29 278 -14 193 28 216 67 179 300 -27 165
-46 215 -93 235 -28 11 -188 38 -207 34 -3 -1 -24 -5 -46 -9z m233 -35 c47
-19 52 -29 83 -155 27 -108 36 -246 18 -280 -22 -42 -91 -68 -208 -79 -183
-16 -261 6 -287 80 -7 20 -12 92 -12 174 0 115 3 147 18 180 23 51 32 58 106
84 49 18 76 21 150 17 50 -2 108 -11 132 -21z"/>
<path d="M6307 4314 c-3 -5 -2 -43 3 -84 10 -91 22 -103 95 -94 53 7 75 24 75
58 0 40 -21 96 -39 106 -27 14 -127 24 -134 14z"/>
<path d="M6143 4295 c-36 -15 -47 -42 -47 -118 0 -31 5 -52 15 -58 16 -10 83
-12 116 -3 31 8 47 69 36 137 l-8 52 -40 2 c-22 2 -54 -4 -72 -12z"/>
<path d="M6360 4085 c-16 -19 -8 -128 10 -150 29 -35 129 -6 150 44 13 33 8
84 -11 108 -17 19 -133 18 -149 -2z"/>
<path d="M6170 4055 c-51 -13 -69 -38 -62 -84 2 -17 15 -42 29 -57 22 -24 30
-26 75 -22 27 3 54 12 60 19 9 14 4 132 -7 149 -8 12 -37 11 -95 -5z"/>
<path d="M4820 4221 c-119 -23 -154 -43 -172 -96 -14 -44 -17 -158 -4 -248 6
-43 15 -67 36 -90 27 -31 31 -32 107 -32 43 0 123 4 178 9 190 15 201 25 199
197 -2 124 -20 209 -53 250 -17 22 -28 24 -108 26 -53 1 -126 -5 -183 -16z
m279 -16 c22 -22 42 -114 48 -230 5 -92 3 -116 -11 -143 -9 -18 -18 -32 -19
-32 -1 -1 -47 -5 -102 -10 -55 -6 -132 -13 -171 -18 -85 -9 -133 -1 -155 27
-40 50 -54 265 -21 331 14 30 27 38 82 57 117 39 315 49 349 18z"/>
<path d="M4933 4175 c-26 -18 -28 -37 -12 -84 11 -30 12 -31 75 -31 58 0 65 2
73 23 11 29 3 84 -14 91 -41 15 -101 16 -122 1z"/>
<path d="M4754 4163 c-45 -4 -64 -28 -64 -83 0 -40 27 -53 96 -44 69 8 84 31
65 94 -9 32 -16 40 -34 38 -12 -1 -41 -3 -63 -5z"/>
<path d="M4930 4005 c-10 -12 -10 -24 -1 -54 6 -21 11 -48 11 -59 0 -38 28
-55 84 -49 63 6 86 31 86 94 0 75 -9 83 -94 83 -54 0 -77 -4 -86 -15z"/>
<path d="M4730 3981 c-23 -7 -25 -12 -24 -63 1 -37 8 -68 21 -90 17 -28 25
-33 55 -32 90 3 114 28 97 105 -20 97 -14 89 -72 88 -28 -1 -63 -4 -77 -8z"/>
<path d="M2841 3902 c-1 -20 -4 -21 -21 -12 -14 8 -20 8 -20 0 0 -6 7 -13 15
-16 24 -9 17 -24 -10 -24 -31 0 -35 -34 -5 -50 11 -6 18 -15 14 -21 -9 -15 16
-39 40 -39 12 0 25 9 31 23 6 12 21 24 35 25 54 8 66 45 25 80 -14 12 -25 26
-25 32 0 13 -37 13 -45 0 -10 -15 -23 -12 -28 8 -3 12 -5 11 -6 -6z"/>
<path d="M4085 3834 c-16 -8 -37 -22 -47 -30 -14 -14 -23 -14 -79 2 -60 17
-62 17 -75 -1 -9 -12 -15 -50 -15 -104 -3 -126 1 -272 8 -305 5 -26 8 -28 37
-21 45 9 179 26 261 32 57 4 79 1 118 -16 59 -26 84 -27 91 -3 3 9 8 103 12
209 6 170 5 195 -10 218 -19 30 -61 33 -111 9 -31 -14 -35 -14 -66 5 -41 25
-83 27 -124 5z m127 -21 c16 -15 26 -53 13 -53 -3 0 -16 7 -28 15 -35 22 -54
0 -49 -56 4 -36 61 -27 75 11 8 21 8 -89 1 -201 l-7 -96 -56 -6 c-31 -3 -73
-9 -93 -13 l-38 -7 0 177 c0 102 4 185 10 196 25 47 134 68 172 33z m128 -140
c0 -82 -3 -178 -6 -215 l-7 -66 -43 16 -44 16 0 182 c0 189 1 196 45 207 57
14 55 19 55 -140z m-341 102 c15 -14 18 -74 13 -257 l-2 -107 -41 -11 c-23 -6
-43 -10 -45 -8 -5 6 -9 173 -6 296 l2 114 33 -7 c17 -4 38 -13 46 -20z"/>
<path d="M5105 3527 c-12 -10 -18 -28 -19 -58 l-1 -44 60 -3 c74 -3 99 11 97
57 0 18 -6 39 -13 47 -15 18 -99 19 -124 1z"/>
<path d="M4735 3481 c-67 -8 -75 -15 -75 -61 0 -46 18 -56 86 -45 47 7 74 33
74 70 0 20 -18 47 -29 44 -4 -1 -28 -5 -56 -8z"/>
<path d="M4577 3295 c-21 -20 -33 -83 -19 -97 11 -11 91 -13 123 -3 26 9 35
53 18 84 -12 21 -23 27 -61 29 -31 2 -50 -2 -61 -13z"/>
<path d="M1306 2913 c-4 -4 -18 -8 -29 -8 -19 0 -22 -6 -25 -47 -3 -45 -2 -48
22 -48 13 0 26 -5 28 -12 3 -9 15 -10 44 -3 36 9 40 14 48 53 5 26 5 47 0 52
-13 13 -78 23 -88 13z"/>
<path d="M4191 2106 c-8 -9 -10 -28 -6 -48 6 -33 5 -35 -33 -46 -22 -7 -56
-12 -76 -12 -20 0 -36 -3 -36 -6 0 -11 23 -49 34 -56 6 -4 -1 -8 -16 -8 -15 0
-29 -4 -32 -8 -6 -9 293 -6 302 3 3 3 -10 5 -29 5 -43 0 -61 11 -49 29 4 8 4
25 -1 39 -11 29 -4 42 22 42 23 0 23 0 5 35 -24 45 -62 59 -85 31z"/>
<path d="M1725 2098 c-38 -20 -74 -61 -80 -89 -5 -23 -39 -59 -103 -110 -18
-14 -7 -27 36 -40 36 -10 60 -6 135 26 26 11 22 -32 -14 -144 -33 -98 -42
-190 -26 -242 8 -25 6 -27 -30 -37 -37 -11 -36 -11 14 -6 30 3 75 0 103 -7 40
-10 60 -10 95 -1 36 10 51 9 87 -4 35 -13 92 -17 293 -18 221 -2 256 0 303 16
29 10 70 19 90 19 72 1 208 -11 247 -22 46 -13 177 -12 212 2 13 5 61 9 106 9
58 0 78 3 67 10 -8 6 -36 8 -64 4 -45 -6 -48 -5 -41 12 15 37 21 110 10 137
-11 27 -11 27 -31 7 -18 -18 -28 -19 -112 -14 -92 7 -110 17 -78 43 23 19 28
59 11 91 -14 27 -14 31 0 36 24 9 18 22 -10 20 -14 0 -25 -4 -25 -8 0 -5 -13
-8 -30 -8 -46 0 -81 -20 -87 -51 -3 -18 -13 -29 -30 -34 -38 -9 -25 -38 21
-46 56 -9 69 -39 41 -89 -8 -14 -14 -40 -15 -57 0 -41 -28 -50 -101 -33 -58
14 -116 8 -209 -20 -55 -18 -120 -20 -120 -4 0 3 16 19 35 36 20 17 34 36 32
42 -2 6 7 27 20 46 12 19 23 42 23 50 0 9 5 21 11 27 11 11 38 106 46 164 7
52 -11 56 -62 14 -50 -40 -140 -75 -194 -75 -20 0 -79 14 -131 30 -101 32
-193 39 -263 19 -22 -6 -42 -8 -45 -4 -3 3 4 39 16 80 12 41 22 91 22 111 0
40 -31 98 -60 114 -25 13 -90 12 -115 -2z m102 -23 c35 -25 47 -77 33 -148 -7
-34 -20 -79 -31 -101 -10 -21 -16 -42 -14 -46 7 -11 -35 -17 -65 -10 -24 6
-23 7 10 15 35 8 35 8 7 12 -25 4 -27 7 -21 38 8 47 -2 72 -34 80 -33 8 -62
33 -62 53 0 8 10 31 21 52 34 60 110 87 156 55z m372 -328 c42 -15 96 -27 123
-27 52 0 53 -1 38 -31 -9 -15 -22 -19 -65 -19 -61 0 -77 -20 -17 -21 29 0 33
-2 17 -9 -11 -4 -42 -6 -70 -4 l-50 3 47 -12 c27 -7 47 -16 45 -22 -2 -10 -99
-11 -149 -1 -16 3 -28 2 -28 -3 0 -5 29 -12 65 -16 36 -3 65 -11 65 -17 0 -11
-22 -9 -160 11 -52 8 -69 7 -59 -4 3 -2 49 -10 102 -16 107 -13 126 -32 37
-37 -62 -4 -189 22 -240 48 -58 30 -80 57 -80 97 0 26 -3 34 -11 26 -7 -7 -7
-22 0 -49 13 -49 66 -86 166 -116 99 -31 289 -31 357 -1 25 12 52 32 59 44 19
37 66 82 76 76 16 -10 6 -57 -16 -81 -12 -12 -21 -32 -21 -43 0 -34 -65 -70
-140 -77 -36 -4 -72 -6 -80 -6 -8 1 -60 2 -115 3 -55 2 -123 9 -151 16 -40 11
-61 12 -96 3 -55 -14 -110 -1 -146 35 -23 23 -24 30 -19 96 3 40 13 92 23 115
l19 44 62 -5 c41 -3 68 0 80 8 30 21 53 24 158 21 78 -2 116 -8 174 -29z m738
1 c19 -15 16 -43 -8 -90 -13 -26 -17 -44 -11 -50 12 -12 171 -24 217 -16 18 3
20 -2 17 -42 -4 -68 -22 -87 -84 -95 -81 -9 -149 -9 -188 2 -28 7 -36 14 -38
37 -2 16 4 49 13 73 16 41 16 45 -2 71 -31 47 -41 76 -31 95 18 35 81 43 115
15z"/>
<path d="M4186 1787 c-17 -18 -39 -36 -50 -40 -15 -6 -16 -10 -6 -22 7 -8 10
-24 7 -35 -7 -28 9 -34 54 -20 22 7 42 10 46 6 4 -3 -1 -31 -11 -61 -12 -38
-15 -69 -11 -99 6 -38 4 -45 -12 -49 -24 -6 50 -10 225 -11 79 -1 149 3 155 7
7 5 -2 6 -20 3 -35 -6 -42 4 -18 24 25 21 44 72 49 128 l3 54 -31 -7 c-86 -18
-98 -18 -108 -2 -11 21 -22 21 -42 2 -11 -12 -25 -14 -50 -9 -49 9 -62 27 -42
56 37 52 3 108 -66 108 -33 0 -46 -6 -72 -33z m117 9 c21 -16 22 -54 2 -84
-19 -26 -5 -62 23 -62 14 0 12 -5 -8 -21 l-25 -21 25 7 c14 3 40 10 58 15 18
4 39 14 47 20 9 7 15 8 15 2 0 -5 -7 -15 -15 -22 -10 -9 -12 -16 -6 -20 8 -4
7 -14 -1 -32 -9 -19 -24 -28 -58 -35 -36 -8 -41 -11 -26 -18 11 -5 26 -4 37 3
10 7 26 12 34 12 8 0 15 6 15 14 0 7 7 19 15 26 8 7 15 23 15 36 0 21 5 24 38
24 20 0 46 3 57 6 18 5 21 0 23 -41 2 -53 -16 -95 -50 -117 -29 -19 -208 -31
-249 -16 -18 6 -31 19 -35 35 -8 32 2 107 18 133 12 19 9 24 -18 48 -28 24
-54 60 -54 76 0 8 72 44 90 45 8 0 23 -6 33 -13z"/>
<path d="M3488 1803 c-27 -3 -41 -11 -49 -26 -6 -12 -23 -32 -37 -45 l-27 -23
24 -19 c13 -11 34 -20 47 -20 29 0 30 -5 3 -65 -20 -46 -21 -71 -3 -132 5 -19
2 -23 -15 -23 -12 0 -20 -3 -17 -8 2 -4 69 -6 148 -4 79 1 152 3 163 3 48 1
105 11 101 18 -3 4 -20 6 -37 3 l-32 -5 23 37 c19 32 22 47 17 98 -3 33 -8 62
-10 65 -3 2 -19 -5 -36 -18 -28 -21 -34 -22 -85 -10 -29 6 -64 9 -77 6 -13 -3
-31 -1 -39 4 -12 9 -11 14 8 40 12 17 22 41 22 55 0 37 -21 76 -39 74 -9 -1
-33 -3 -53 -5z m64 -30 c23 -21 23 -44 -2 -76 -27 -34 -26 -65 3 -71 98 -19
173 -23 194 -10 25 16 33 4 33 -53 0 -68 -49 -114 -119 -112 -23 0 -21 3 17
19 45 20 49 29 31 63 -22 40 -54 51 -39 13 5 -15 5 -27 -3 -35 -8 -8 -6 -11 9
-12 14 0 12 -3 -9 -11 -40 -14 -113 -1 -137 25 -15 15 -20 17 -20 6 0 -21 52
-49 92 -50 55 -1 3 -17 -59 -18 -44 -1 -54 3 -72 25 -24 31 -28 90 -7 119 28
42 29 64 2 96 -30 35 -34 74 -8 88 26 16 73 13 94 -6z"/>
<path d="M874 1612 c-32 -26 -65 -92 -67 -132 -1 -19 -12 -49 -25 -64 -46 -59
-17 -116 59 -116 34 0 37 -3 43 -35 8 -40 41 -80 74 -90 17 -5 30 1 52 24 17
16 30 36 30 43 0 8 19 19 43 26 68 18 134 96 113 131 -12 18 -88 33 -135 26
-43 -6 -45 -5 -26 9 11 8 26 16 33 16 6 0 12 5 12 10 0 6 -10 8 -24 4 -21 -5
-24 -3 -19 15 8 29 -4 26 -20 -6 l-15 -27 -7 45 c-9 52 -27 91 -57 119 -26 24
-37 25 -64 2z m83 -51 c33 -63 31 -120 -5 -154 -15 -15 -31 -27 -35 -27 -4 0
-25 12 -47 26 -37 24 -40 30 -40 71 0 48 11 75 43 111 30 33 57 24 84 -27z
m207 -157 c41 -16 -6 -91 -74 -118 -32 -13 -45 -14 -63 -5 -58 32 -73 93 -27
116 26 13 136 18 164 7z"/>
<path d="M1405 1261 c-3 -10 -15 -21 -25 -24 -12 -3 -20 -14 -20 -25 0 -12 -5
-24 -11 -28 -6 -3 -8 -17 -5 -30 5 -20 3 -24 -18 -24 -30 0 -26 -27 10 -61 31
-29 119 -38 163 -16 30 15 32 14 50 -10 39 -48 39 -89 1 -65 -26 16 -33 15
-26 -3 3 -8 1 -15 -5 -15 -6 0 -7 -4 -4 -10 3 -5 15 -10 26 -10 11 0 17 5 14
10 -4 6 6 10 23 10 16 0 34 6 40 13 15 18 -14 97 -49 129 -16 15 -29 35 -29
44 0 30 -49 103 -80 119 -38 20 -47 19 -55 -4z"/>
<path d="M3901 1165 c-25 -21 -31 -34 -31 -65 0 -20 -6 -55 -14 -76 -7 -22
-16 -62 -20 -91 -6 -45 -4 -53 13 -62 23 -13 71 -14 87 -3 6 4 14 19 17 33 9
35 -13 52 -58 47 -34 -4 -35 -3 -35 28 0 18 5 45 10 60 9 23 14 26 45 21 60
-10 138 61 86 78 -14 4 -20 14 -18 28 3 34 -42 35 -82 2z"/>
<path d="M3213 1140 c-6 -23 -8 -24 -33 -10 -23 12 -30 2 -40 -52 -5 -27 -3
-41 6 -49 8 -6 14 -23 14 -37 0 -25 0 -25 -21 -7 -14 14 -19 29 -17 54 2 21
-2 36 -9 38 -18 6 -16 -45 2 -81 19 -36 19 -34 -7 -38 -32 -4 -31 -42 0 -46
17 -3 21 -8 17 -23 -19 -57 207 -49 328 12 65 33 75 62 30 81 -16 7 -29 13
-31 13 -1 1 5 16 14 33 18 38 15 68 -8 64 -10 -1 -17 8 -21 28 -8 37 -29 39
-55 5 -22 -28 -42 -33 -42 -11 0 26 -22 30 -39 7 l-17 -22 -22 31 c-26 35 -42
38 -49 10z m281 -178 c20 -33 -125 -87 -259 -98 -76 -6 -116 7 -82 27 29 17
19 29 -24 29 -50 0 -49 21 2 32 25 5 45 1 75 -14 56 -27 157 -23 200 10 29 21
78 29 88 14z"/>
<path d="M1748 1095 c-13 -29 -25 -31 -56 -9 -13 9 -26 13 -29 10 -5 -5 7 -79
23 -133 5 -20 3 -23 -22 -23 -16 0 -48 -9 -71 -20 -39 -17 -43 -23 -43 -54 0
-82 116 -125 360 -133 l166 -5 32 27 c42 35 41 59 0 72 -29 9 -31 11 -13 17
39 14 50 23 50 42 0 14 -12 22 -46 30 -25 6 -57 23 -72 36 -24 22 -25 28 -17
59 17 57 13 79 -12 79 -13 0 -38 -9 -56 -20 -45 -27 -59 -25 -67 11 -8 37 -31
48 -50 23 -13 -18 -14 -18 -32 -1 -26 23 -31 22 -45 -8z m169 -112 c-5 -48
-11 -63 -37 -86 -38 -34 -69 -32 -89 4 -21 37 2 77 64 111 28 15 54 28 59 28
5 0 6 -26 3 -57z m-184 -64 c12 -6 38 -29 57 -50 32 -36 41 -40 96 -46 55 -5
67 -3 113 23 51 29 67 54 34 54 -11 0 -13 3 -8 9 15 14 105 -7 105 -25 0 -7
-12 -16 -27 -20 -16 -3 -34 -8 -41 -10 -24 -7 -6 -28 31 -37 20 -5 37 -13 37
-17 0 -5 -15 -19 -32 -32 -30 -21 -43 -23 -158 -22 -212 0 -351 41 -365 106
-9 38 10 58 62 68 57 11 72 11 96 -1z"/>
<path d="M3608 954 c-16 -8 -28 -19 -28 -24 0 -4 -3 -15 -6 -24 -4 -10 6 -27
24 -46 27 -27 37 -30 92 -30 67 0 110 20 110 51 0 12 -10 21 -25 25 -30 8 -32
20 -4 29 16 5 18 10 8 21 -16 19 -135 18 -171 -2z m140 -5 c-26 -14 -22 -38 7
-49 55 -21 14 -55 -65 -55 -80 0 -120 38 -91 84 10 15 65 28 126 30 32 0 36
-2 23 -10z"/>
<path d="M3408 841 c-40 -8 -88 -36 -88 -51 0 -19 54 -37 85 -29 28 8 29 7 10
-7 -24 -18 -12 -44 29 -59 41 -14 120 29 124 68 4 37 -20 63 -64 72 -20 3 -41
8 -47 9 -7 2 -28 0 -49 -3z m127 -31 c19 -16 19 -64 0 -80 -20 -16 -87 -23
-105 -10 -13 9 -13 12 3 24 33 25 20 37 -33 30 -46 -6 -50 -5 -50 14 0 13 10
24 28 31 34 13 138 7 157 -9z"/>
<path d="M6762 748 c-7 -7 -12 -21 -12 -32 0 -11 -9 -30 -21 -42 -16 -18 -19
-26 -10 -42 6 -11 17 -22 26 -26 8 -3 15 -12 15 -20 0 -23 50 -76 71 -76 11 0
24 10 30 23 6 13 24 28 40 34 39 15 40 55 2 80 l-26 17 24 7 c18 5 19 7 5 8
-13 1 -17 6 -13 21 6 23 -8 27 -17 5 -8 -21 -26 -19 -26 3 0 40 -61 67 -88 40z"/>
<path d="M2935 399 c-11 -7 -38 -26 -60 -44 -22 -17 -52 -37 -67 -45 -31 -15
-37 -50 -13 -70 9 -7 13 -21 10 -31 -10 -30 3 -56 34 -69 35 -14 66 -1 76 31
6 17 12 20 33 15 15 -3 63 -9 107 -12 45 -4 91 -13 105 -22 28 -17 86 -18 107
-1 9 8 12 22 8 41 -6 26 -4 28 22 28 34 0 46 8 62 38 30 57 -45 119 -128 106
-36 -6 -46 -3 -67 17 -23 21 -36 24 -117 27 -58 1 -99 -2 -112 -9z"/>
<path d="M5531 307 c-5 -5 -19 -14 -31 -21 -17 -8 -23 -22 -26 -56 l-3 -45 19
25 c12 16 15 29 9 35 -16 16 -10 25 16 25 16 0 25 6 25 16 0 12 6 15 25 10 14
-4 25 -2 25 4 0 5 7 10 15 10 8 0 15 -9 15 -19 0 -17 5 -19 35 -14 23 4 35 2
35 -6 0 -6 -7 -11 -15 -11 -11 0 -14 -7 -9 -25 5 -21 3 -25 -15 -25 -12 0 -21
-6 -21 -15 0 -19 -36 -20 -43 -1 -3 8 4 21 15 28 32 22 17 50 -24 46 -38 -4
-50 -32 -22 -52 10 -8 15 -20 11 -30 -8 -20 -37 -21 -37 -2 0 9 -7 12 -20 9
-19 -5 -19 -6 5 -19 17 -9 42 -11 71 -7 33 4 49 2 62 -10 9 -8 29 -19 44 -22
35 -9 47 15 24 50 -20 31 -20 30 7 32 23 2 67 48 67 71 0 14 -21 16 -98 13
-29 -2 -58 2 -65 7 -15 12 -83 12 -96 -1z"/>
</g>
</svg>
