<?xml version="1.0" standalone="no"?>
<!DOCTYPE svg PUBLIC "-//W3C//DTD SVG 20010904//EN"
 "http://www.w3.org/TR/2001/REC-SVG-20010904/DTD/svg10.dtd">
<svg version="1.0" xmlns="http://www.w3.org/2000/svg"
 width="768.000000pt" height="548.000000pt" viewBox="0 0 768.000000 548.000000"
 preserveAspectRatio="xMidYMid meet">
<metadata>
Created by potrace 1.16, written by Peter Selinger 2001-2019
</metadata>
<g transform="translate(0.000000,548.000000) scale(0.100000,-0.100000)"
fill="#000000" stroke="none">
<path d="M2 2818 c2 -1465 4 -2446 5 -2180 3 415 5 483 18 488 8 3 38 1 67 -4
168 -33 267 -81 344 -166 30 -33 54 -63 54 -68 0 -4 4 -8 8 -8 4 0 8 15 8 33
0 19 8 55 18 81 17 45 19 47 50 40 52 -11 113 -53 170 -115 57 -63 76 -72 76
-36 0 25 28 117 39 130 8 9 84 -61 129 -119 17 -23 41 -67 53 -98 12 -31 26
-56 31 -56 4 0 19 24 32 53 13 28 46 73 72 99 46 44 180 138 197 138 10 0 9
-49 -4 -94 -12 -43 -6 -93 15 -121 12 -17 16 -15 65 23 76 60 279 151 303 136
4 -3 8 -23 8 -45 0 -21 4 -39 8 -39 5 0 46 36 91 80 80 77 106 91 127 71 22
-21 140 -51 203 -51 62 0 68 -2 92 -32 l27 -32 21 42 c17 33 34 48 81 72 l59
30 34 -58 c19 -31 42 -74 50 -94 9 -21 18 -38 20 -38 2 0 21 27 41 59 33 54
87 111 105 111 3 0 12 -13 18 -30 14 -38 66 -119 76 -120 4 0 13 11 19 25 6
14 15 24 20 23 5 -2 20 -30 33 -62 13 -32 36 -72 51 -87 24 -25 35 -29 83 -29
l56 0 58 -70 c33 -39 65 -70 73 -70 22 0 18 8 -41 73 -30 33 -55 66 -55 73 0
23 40 27 58 6 64 -73 94 -103 103 -100 5 2 -13 31 -41 66 -27 34 -50 66 -50
71 0 5 10 13 22 17 22 7 28 2 127 -112 48 -56 52 -25 5 34 -21 26 -51 60 -66
77 -28 30 -28 30 -8 50 20 19 20 19 48 -12 16 -17 46 -52 68 -78 21 -26 40
-42 42 -36 5 15 -21 55 -76 114 -34 36 -43 50 -34 59 18 18 55 -7 104 -70 79
-101 77 -98 78 -81 0 8 -32 55 -70 103 -51 64 -69 93 -65 107 4 10 10 19 15
19 13 0 106 -107 151 -172 36 -52 59 -72 59 -50 0 21 -68 113 -127 174 -56 57
-65 70 -59 92 3 14 12 26 19 26 21 0 100 -87 226 -250 10 -14 22 -22 26 -18
13 12 -75 133 -161 221 -67 68 -84 92 -79 107 9 28 18 26 83 -22 65 -49 124
-105 169 -163 17 -22 35 -37 39 -33 21 21 -124 172 -220 229 -43 26 -55 39
-62 68 -15 59 -37 64 -232 52 -92 -6 -190 -14 -219 -17 -48 -6 -54 -4 -82 25
-17 18 -31 39 -31 47 0 9 18 37 41 62 68 78 113 187 125 305 5 49 2 74 -15
121 -11 33 -19 62 -16 64 2 3 29 -16 59 -42 30 -25 59 -46 64 -46 5 0 12 35
14 78 6 86 27 156 66 214 20 31 27 36 34 25 19 -35 40 -146 41 -224 2 -68 5
-83 17 -81 9 2 19 22 25 49 5 25 30 76 55 113 25 37 55 85 66 107 12 22 24 43
28 46 3 3 17 -19 31 -51 28 -64 33 -159 13 -256 -13 -62 -5 -110 17 -110 11 0
15 12 15 46 0 49 44 165 86 224 13 19 38 57 55 83 18 27 35 45 39 40 4 -4 12
-28 18 -53 10 -39 9 -47 -5 -57 -9 -7 -24 -13 -33 -13 -27 0 -31 -12 -11 -34
10 -12 30 -70 46 -136 27 -116 55 -179 95 -215 l21 -19 -108 -53 c-144 -70
-197 -90 -266 -98 -31 -4 -57 -10 -57 -14 0 -4 19 -21 43 -37 23 -17 76 -75
117 -129 88 -116 167 -199 199 -210 20 -6 22 -11 16 -39 -13 -57 -11 -71 10
-74 18 -2 23 7 38 62 9 35 17 74 17 85 0 12 3 21 6 21 10 0 102 -78 168 -141
l58 -56 2 -119 c1 -112 4 -125 38 -209 20 -49 40 -103 45 -120 11 -32 14 -32
78 -16 22 6 127 15 233 20 278 14 353 33 455 113 49 39 102 120 111 170 4 21
8 38 10 38 2 0 20 -7 39 -15 20 -8 48 -15 62 -15 30 0 31 -7 6 -34 -37 -42
-54 -110 -47 -189 4 -39 10 -100 13 -135 3 -35 11 -62 17 -62 6 0 43 7 81 15
39 8 125 24 193 35 258 42 448 157 500 302 12 36 21 47 32 42 57 -25 188 -69
259 -85 70 -17 111 -20 247 -17 l164 3 15 37 c24 61 28 113 15 183 -7 36 -11
68 -8 70 2 2 25 -6 51 -20 26 -13 53 -25 60 -28 9 -3 7 -9 -5 -23 -62 -71 -74
-187 -32 -306 43 -119 62 -151 87 -145 12 3 76 17 142 31 150 33 229 71 300
142 30 30 55 59 55 64 0 5 5 21 10 35 10 26 11 27 35 11 32 -21 45 -20 45 2 0
18 -69 82 -87 82 -5 0 -15 -21 -23 -47 -18 -62 -83 -131 -162 -173 -59 -32
-273 -109 -312 -113 -16 -2 -24 12 -43 72 -13 41 -26 101 -30 132 -5 50 -2 66
21 113 15 31 44 69 63 85 33 27 35 31 17 37 -128 46 -182 81 -254 163 -45 51
-70 64 -70 36 0 -8 23 -59 51 -112 l52 -98 -7 -80 c-3 -44 -9 -91 -12 -104
l-7 -24 -161 6 c-89 4 -191 13 -228 21 -78 17 -219 77 -266 113 -18 14 -34 23
-36 22 -1 -2 -7 -26 -14 -54 -36 -142 -140 -239 -337 -312 -73 -28 -343 -69
-357 -55 -15 15 -41 182 -35 229 5 50 42 103 98 142 21 14 38 28 39 31 0 3
-39 5 -87 5 -77 0 -95 4 -140 28 -29 15 -55 27 -58 27 -3 0 -5 -17 -5 -37 0
-84 -49 -170 -122 -216 -97 -61 -138 -71 -387 -92 -100 -9 -204 -22 -231 -29
l-50 -13 -11 41 c-6 23 -27 88 -46 146 -30 89 -35 114 -31 170 6 73 36 151 75
192 15 15 24 31 20 34 -11 11 -87 -45 -97 -71 -5 -14 -13 -25 -18 -25 -4 0
-28 20 -52 45 -80 82 -201 152 -237 138 -7 -3 -13 -18 -13 -34 0 -16 -4 -29
-10 -29 -24 0 -112 93 -161 170 -30 47 -69 102 -88 123 -19 21 -32 39 -30 41
2 2 46 20 97 40 132 52 254 86 352 98 74 9 99 8 190 -10 58 -11 127 -30 153
-41 52 -22 77 -26 77 -12 0 4 -47 27 -103 49 -108 43 -208 63 -315 63 -57 0
-66 3 -90 30 -45 50 -72 107 -107 223 -35 115 -34 125 10 126 11 0 54 9 95 20
41 11 127 23 191 27 171 9 290 -18 410 -92 78 -48 98 -46 61 5 -12 19 -17 45
-17 100 0 92 25 148 115 260 33 41 65 90 71 108 6 17 12 32 14 32 2 0 64 -27
181 -80 23 -10 59 -33 79 -52 43 -37 135 -155 135 -173 0 -6 -15 -26 -34 -44
l-34 -33 -49 15 c-26 9 -62 18 -80 22 -32 6 -46 30 -77 132 -4 11 -14 27 -23
35 -15 12 -16 10 -9 -17 4 -16 18 -55 30 -86 l23 -57 -36 -7 c-20 -4 -61 -10
-91 -14 l-55 -6 3 -35 c5 -57 21 -95 52 -125 l30 -29 -38 -23 c-20 -12 -52
-29 -69 -38 -18 -8 -33 -21 -33 -29 0 -25 79 -103 127 -126 36 -17 73 -24 151
-28 80 -4 107 -9 124 -24 34 -29 89 -41 177 -37 80 4 84 5 115 40 20 21 40 60
51 98 18 59 22 63 67 83 53 23 112 82 134 134 8 19 31 45 52 58 51 33 213 92
292 106 36 6 91 16 123 21 33 6 62 8 65 4 3 -3 -6 -29 -21 -58 -15 -29 -42
-86 -61 -128 -37 -84 -96 -170 -163 -236 -46 -47 -46 -50 0 -28 18 8 72 21
120 29 88 15 147 44 147 71 0 14 40 28 116 40 53 8 118 55 135 97 15 39 22 45
72 58 25 8 49 8 74 1 20 -6 38 -9 40 -7 2 1 -4 22 -12 46 -35 98 -30 197 16
317 l10 26 27 -25 c31 -29 69 -50 127 -68 44 -14 210 -83 247 -103 51 -27 80
-51 94 -78 13 -27 12 -32 -17 -85 -19 -32 -28 -59 -22 -62 44 -30 84 -51 114
-61 27 -9 38 -19 48 -49 17 -47 47 -89 72 -103 31 -16 129 15 129 41 0 25 -2
25 -42 0 -18 -11 -40 -20 -50 -20 -21 0 -66 53 -89 106 -17 38 -24 43 -78 58
-32 9 -61 23 -64 30 -10 25 51 106 92 124 l38 17 6 74 c3 40 11 79 17 85 14
14 130 -16 169 -45 27 -20 35 -21 93 -12 43 7 70 7 86 0 16 -7 26 -7 34 1 16
16 -16 50 -51 54 l-26 3 0 155 0 155 63 3 62 3 0 -1256 0 -1255 -3087 -3
-3088 -2 3093 -3 3092 -2 0 2740 0 2740 -3840 0 -3840 0 2 -2662z m7668 2022
l0 -630 -24 0 c-14 0 -28 5 -31 11 -4 5 -18 15 -33 20 l-25 10 26 27 c30 31
36 55 12 46 -15 -6 -195 34 -195 43 0 2 9 16 20 31 11 15 31 57 44 93 l25 66
-112 6 c-62 3 -132 2 -156 -3 l-43 -8 7 32 c10 44 24 190 19 198 -3 4 -20 -2
-40 -14 -19 -11 -69 -27 -111 -35 -42 -8 -98 -25 -124 -38 l-47 -24 -7 42 c-9
53 -27 87 -83 162 -58 76 -62 78 -83 51 -9 -12 -55 -41 -102 -64 -47 -23 -97
-56 -111 -72 -29 -35 -37 -37 -61 -10 -10 11 -53 41 -96 66 -44 25 -82 50 -85
56 -7 11 -79 -132 -98 -195 l-12 -38 -140 -3 c-76 -2 -150 1 -163 6 -28 10
-38 4 -24 -14 6 -7 16 -40 23 -73 15 -75 29 -115 48 -137 14 -16 13 -18 -9
-18 -13 0 -64 -11 -114 -25 -49 -13 -109 -29 -132 -35 -43 -11 -55 -26 -29
-36 8 -3 22 -17 31 -30 14 -22 14 -27 0 -53 -18 -35 -46 -46 -76 -31 -13 8
-41 10 -74 5 -51 -6 -52 -5 -65 24 -12 29 -50 45 -50 21 0 -5 -9 -10 -19 -10
-11 0 -23 -4 -26 -10 -10 -16 -53 -12 -95 10 -46 24 -99 26 -126 5 -17 -13
-15 -14 30 -8 40 5 56 2 92 -17 43 -24 43 -24 99 -6 62 19 69 17 90 -25 17
-32 36 -37 55 -14 21 26 59 18 78 -15 21 -36 39 -38 52 -5 7 18 17 25 36 25
21 0 25 4 21 20 -9 35 13 33 57 -7 23 -21 51 -43 62 -49 10 -7 17 -13 14 -15
-3 -2 -50 -27 -105 -56 -55 -28 -100 -57 -100 -63 0 -6 23 -20 50 -29 28 -10
70 -27 95 -38 25 -12 66 -26 93 -33 52 -14 54 -16 33 -39 -25 -28 -116 -203
-110 -212 3 -5 15 -9 28 -9 12 0 25 -2 28 -5 9 -10 -268 -283 -317 -311 l-50
-29 75 -7 c41 -3 100 -13 130 -21 30 -8 91 -21 135 -27 94 -14 100 -17 80 -36
-11 -11 -15 -38 -15 -100 l0 -84 -249 0 c-218 0 -250 2 -255 16 -3 9 -6 56 -6
104 l0 89 -62 47 c-35 27 -65 51 -68 54 -32 34 -211 180 -222 180 -8 0 -73
-57 -144 -127 -121 -119 -131 -132 -142 -181 -7 -30 -12 -82 -12 -117 l0 -63
-107 -7 c-60 -5 -173 -8 -253 -9 l-145 -1 -3 107 -3 107 -112 80 c-62 44 -138
98 -170 120 -31 23 -66 41 -78 41 -11 0 -48 -28 -87 -66 -72 -72 -145 -124
-174 -124 -29 0 -38 -33 -38 -137 0 -54 -4 -103 -8 -110 -5 -9 -64 -14 -192
-18 -102 -3 -189 -10 -193 -14 -4 -4 -14 -32 -22 -62 -25 -94 -15 -451 14
-468 7 -4 99 -6 205 -3 l193 5 6 -33 c9 -43 9 -310 0 -310 -4 0 -17 9 -29 21
-23 22 -44 19 -44 -7 0 -8 -18 -49 -40 -92 -64 -124 -84 -140 -93 -73 -7 52
-66 181 -83 181 -7 0 -16 -9 -19 -20 -10 -31 -29 -24 -64 25 -53 73 -97 96
-211 105 l-97 9 -68 67 c-38 36 -91 81 -119 99 -51 32 -52 34 -74 121 -27 103
-63 185 -104 232 l-29 33 27 32 c23 27 26 37 21 80 -6 44 -4 49 19 57 128 49
227 129 271 218 25 52 28 66 27 172 0 92 -5 136 -27 219 -30 115 -41 308 -18
335 6 7 39 16 73 20 69 7 92 20 68 39 -9 7 -39 41 -68 76 -54 68 -55 82 -9 97
12 4 30 17 40 30 34 43 77 25 77 -33 0 -26 5 -34 24 -39 13 -3 34 -1 45 6 32
17 60 3 69 -33 10 -37 42 -50 42 -17 0 28 18 60 33 60 7 0 20 -9 30 -20 17
-21 37 -19 37 2 0 6 7 19 15 28 12 13 13 22 3 47 -17 46 -5 65 39 61 26 -2 37
1 36 9 -2 7 8 20 22 29 20 13 32 14 75 5 68 -15 111 -13 134 4 26 20 28 19 62
-10 34 -29 51 -31 99 -8 33 16 37 16 70 0 43 -21 101 -21 135 -2 35 20 45 18
60 -9 18 -34 47 -38 98 -16 52 23 64 24 108 8 30 -11 35 -9 69 20 41 37 50 35
58 -8 5 -25 11 -30 34 -30 16 0 37 7 47 15 28 22 45 18 56 -10 8 -20 16 -25
45 -25 20 0 46 7 60 16 22 14 25 14 44 -5 30 -30 62 -26 109 15 43 36 62 37
62 4 0 -57 25 -64 71 -19 l31 31 27 -26 c34 -33 84 -35 105 -5 14 21 16 21 41
5 36 -24 43 -14 9 13 -34 26 -60 27 -76 1 -7 -11 -20 -20 -29 -20 -9 0 -24 9
-34 20 -23 26 -63 26 -90 0 l-21 -20 -13 35 c-16 46 -56 48 -94 5 -32 -36 -76
-40 -95 -10 -15 25 -27 25 -51 1 -31 -31 -81 -32 -81 -2 0 34 -69 42 -99 10
-24 -26 -38 -18 -47 26 -5 29 -11 35 -31 35 -14 0 -38 -13 -55 -31 -28 -28
-33 -29 -59 -19 -32 14 -77 9 -127 -11 -30 -13 -34 -12 -58 14 -27 30 -59 34
-88 12 -25 -19 -67 -19 -113 0 -19 8 -46 15 -58 15 -12 0 -28 -7 -35 -15 -17
-20 -36 -19 -68 3 -46 32 -62 34 -98 11 -33 -20 -35 -20 -79 -3 -52 20 -109
15 -151 -12 -15 -11 -42 -23 -58 -29 -33 -11 -46 -49 -28 -82 13 -22 -13 -52
-31 -34 -16 16 -46 14 -63 -4 -11 -11 -20 -12 -34 -5 -10 6 -35 10 -55 10 -29
0 -37 5 -45 25 -5 14 -23 34 -40 43 -35 20 -35 20 -14 108 19 85 15 97 -28 82
-18 -6 -38 -15 -45 -20 -12 -10 -49 -13 -210 -22 l-81 -4 -6 34 c-7 36 -53
101 -122 174 -24 25 -50 54 -58 65 -15 19 -18 18 -83 -51 l-68 -71 -90 13
c-49 7 -111 13 -136 13 -37 1 -53 7 -76 29 -47 45 -99 114 -126 167 -30 59
-51 189 -42 248 7 41 34 117 41 117 2 0 21 -9 44 -21 58 -30 226 -52 239 -30
3 4 26 18 50 31 58 29 67 39 80 88 21 75 -20 137 -123 186 l-72 34 -67 -18
c-109 -29 -187 -95 -187 -157 0 -14 -11 -29 -27 -40 -242 -153 -465 -428 -539
-665 -10 -32 -23 -58 -29 -58 -6 0 -27 -8 -48 -19 -36 -18 -37 -18 -59 1 -13
11 -35 22 -49 25 -15 3 -31 16 -38 29 -8 18 -19 24 -41 24 -25 0 -30 4 -30 25
0 36 -40 59 -91 52 -48 -6 -60 10 -35 48 32 48 -16 97 -80 81 -19 -5 -33 0
-55 19 -37 30 -58 31 -93 4 -21 -17 -29 -19 -41 -9 -8 7 -33 13 -56 14 -43 1
-59 -13 -69 -63 -8 -39 -33 -48 -64 -23 -27 20 -39 21 -83 0 -16 -8 -27 -7
-44 6 -13 9 -41 16 -62 16 -24 0 -49 8 -64 20 -14 11 -32 20 -39 20 -12 0 -14
62 -14 355 l0 355 3830 0 3830 0 0 -630z m-5744 496 c-20 -58 -20 -99 -1 -162
8 -27 15 -51 15 -53 0 -10 -65 11 -91 30 -59 42 -76 115 -37 164 19 25 117 79
126 71 2 -2 -4 -25 -12 -50z m195 19 c42 -27 50 -45 22 -45 -10 0 -33 -9 -50
-20 -41 -24 -44 -56 -7 -70 34 -13 45 -5 38 29 -5 23 -2 30 15 36 30 9 41 -1
41 -40 0 -25 -9 -42 -35 -68 -53 -53 -74 -56 -106 -17 -44 52 -59 135 -37 198
12 31 15 33 47 28 18 -3 51 -17 72 -31z m-353 -171 c7 -12 2 -36 -15 -78 -48
-117 -41 -243 19 -375 22 -50 69 -124 81 -129 4 -2 7 -10 7 -17 0 -8 -18 -15
-46 -20 -25 -3 -64 -15 -87 -26 -24 -11 -31 -17 -17 -14 113 23 167 27 285 22
72 -3 151 -11 175 -18 l45 -12 -3 -47 -4 -47 -66 -7 c-37 -3 -92 -13 -122 -21
-30 -8 -84 -18 -120 -21 l-65 -6 90 -93 c49 -51 100 -96 113 -99 36 -12 26
-23 -42 -46 -118 -39 -298 -162 -413 -281 -56 -58 -115 -137 -173 -229 -59
-94 -65 -97 -97 -41 -100 175 -157 518 -123 741 32 205 100 387 201 536 83
121 311 341 356 343 7 1 16 -6 21 -15z m5003 -334 c43 -60 54 -99 53 -192 l0
-86 35 36 c20 19 63 48 96 63 68 30 203 61 211 48 8 -14 -16 -119 -36 -159
-10 -19 -27 -44 -39 -54 -12 -11 -21 -23 -21 -28 0 -13 26 -9 39 6 6 7 33 19
59 25 26 7 61 16 77 21 17 5 70 6 118 2 l88 -7 -31 -62 c-26 -52 -41 -68 -89
-97 -31 -19 -70 -40 -86 -47 -18 -7 -25 -13 -17 -16 7 -3 27 1 43 8 49 20 182
12 278 -17 40 -12 -116 -122 -219 -154 -39 -12 -72 -25 -75 -30 -6 -10 29 -20
71 -20 17 0 56 -16 88 -35 32 -19 61 -35 65 -35 3 0 13 -5 21 -10 12 -8 9 -15
-20 -41 -53 -47 -133 -81 -206 -87 -45 -3 -64 -9 -64 -18 0 -8 6 -14 13 -14
24 0 86 -63 122 -124 19 -32 35 -62 35 -67 0 -10 -40 -14 -125 -10 -59 2 -178
34 -203 54 -20 16 -25 1 -9 -30 11 -22 12 -49 5 -138 -5 -60 -13 -114 -17
-118 -21 -22 -194 74 -273 151 l-48 46 0 -33 c0 -44 -51 -138 -101 -187 l-39
-38 -53 52 -52 52 -3 80 c-3 48 -8 80 -15 80 -6 0 -34 -24 -62 -52 -28 -29
-67 -62 -87 -72 l-37 -20 -47 37 c-46 36 -70 38 -89 7 -3 -6 -11 -10 -17 -10
-24 0 4 96 48 162 42 65 52 88 37 88 -3 0 -14 -7 -23 -15 -10 -9 -43 -25 -74
-36 -48 -16 -78 -19 -193 -17 -121 3 -135 5 -122 18 8 8 36 47 61 86 47 73 91
114 142 134 44 16 24 24 -80 31 -76 5 -110 13 -174 40 -44 19 -80 36 -80 39 0
3 31 20 69 38 79 36 169 62 218 62 37 0 45 17 11 24 -83 17 -126 29 -144 39
-29 16 -157 137 -152 143 3 2 38 13 79 24 82 22 228 27 261 9 13 -7 23 -8 30
-1 7 7 1 15 -19 26 -45 23 -91 81 -98 123 -4 21 -9 52 -13 68 -3 17 -7 34 -7
39 0 5 41 8 90 7 106 -2 170 -22 225 -68 46 -40 59 -29 24 18 -21 28 -25 42
-21 80 2 26 13 64 24 85 11 22 23 51 27 67 8 34 17 34 71 -3 47 -32 86 -79
129 -152 30 -54 51 -63 41 -19 -14 65 36 128 150 191 41 22 77 45 80 51 8 12
9 10 46 -41z m-6139 -106 c12 -25 37 -31 55 -13 6 6 21 9 34 7 29 -4 37 -38
15 -61 -13 -12 -14 -21 -5 -47 9 -26 16 -31 33 -26 54 16 72 16 91 2 18 -13
19 -18 8 -47 -15 -39 1 -58 28 -33 14 12 22 13 38 4 23 -12 26 -31 11 -61 -13
-24 4 -26 26 -4 23 22 43 18 74 -15 33 -35 41 -37 65 -10 19 21 62 24 58 5 -1
-6 -9 -46 -18 -90 -43 -209 8 -577 109 -785 33 -69 33 -69 15 -97 -23 -34 -24
-91 -3 -121 9 -13 26 -50 39 -82 l23 -60 -30 -25 c-16 -14 -37 -25 -46 -25
-35 0 -92 -21 -92 -34 0 -7 16 -34 35 -59 34 -44 43 -67 28 -67 -5 0 -29 -19
-54 -43 -32 -29 -62 -74 -98 -147 -72 -142 -159 -231 -368 -376 -47 -32 -51
-49 -31 -115 10 -35 9 -42 -10 -62 -33 -36 -70 -114 -78 -165 -5 -35 -17 -58
-46 -90 -21 -23 -44 -53 -50 -67 -22 -49 -33 -34 -49 66 -16 106 -16 106 -43
80 -12 -12 -33 -44 -46 -71 -13 -28 -26 -50 -29 -50 -8 1 -115 169 -119 187
-2 7 -7 13 -12 13 -13 0 -29 -52 -36 -122 -3 -38 -10 -68 -14 -68 -4 0 -19 17
-34 38 -14 21 -42 53 -61 72 l-35 34 0 1313 c0 1150 2 1313 15 1313 8 0 21
-13 30 -30 18 -35 18 -35 49 -15 31 21 71 3 85 -36 12 -34 26 -38 34 -9 6 23
49 45 72 37 8 -4 20 -18 25 -32 12 -32 23 -32 44 0 12 18 25 25 47 25 l30 0
-20 26 c-16 21 -18 30 -10 46 9 16 17 19 42 14 17 -3 39 -14 49 -23 18 -16 21
-15 49 15 25 27 33 30 50 21 11 -5 25 -21 31 -35z m1790 -166 c89 -92 98 -109
98 -200 0 -84 11 -100 30 -43 6 19 12 36 13 36 1 1 65 5 142 9 77 4 148 10
158 15 22 9 22 -5 2 -73 -17 -55 -63 -117 -95 -127 -10 -3 -38 3 -61 15 -24
11 -61 20 -83 19 l-41 0 52 -20 c34 -13 69 -38 102 -72 65 -68 91 -98 91 -107
0 -4 -30 -10 -67 -14 -140 -14 -273 38 -273 106 0 30 -18 29 -52 -3 -66 -62
-186 -99 -323 -99 -104 0 -128 9 -93 33 13 8 46 36 73 61 51 47 123 81 195 92
22 4 40 11 40 16 0 11 -50 6 -152 -15 -52 -10 -62 -9 -100 10 -24 11 -69 41
-100 67 -56 45 -73 73 -45 73 8 0 61 8 119 18 126 21 166 16 196 -25 24 -32
100 -76 110 -64 4 4 0 9 -8 12 -8 3 -34 24 -57 47 -40 39 -43 47 -43 94 0 58
23 110 71 166 17 19 33 35 35 35 3 0 32 -28 66 -62z m5161 -390 c21 -42 41
-48 57 -18 24 46 30 16 30 -160 0 -99 -3 -180 -6 -180 -3 0 -19 11 -35 25 -17
13 -52 35 -79 47 -28 13 -50 26 -50 29 0 3 18 27 40 52 l40 45 -33 6 c-42 8
-157 62 -157 74 0 6 11 12 23 16 13 3 46 27 73 54 27 27 56 49 64 48 8 -1 23
-18 33 -38z m-5612 -112 c-6 -8 -25 -19 -42 -26 -16 -7 -28 -17 -26 -23 6 -18
141 -46 228 -46 104 -1 199 25 272 74 l49 33 36 -35 c44 -44 107 -73 178 -80
l54 -6 0 -110 c0 -114 5 -158 42 -359 18 -100 19 -125 9 -175 -14 -69 -48
-121 -114 -173 -114 -91 -224 -123 -432 -123 -135 0 -163 3 -275 31 -192 47
-294 91 -400 172 -43 32 -75 49 -94 50 -40 0 -111 36 -136 67 -37 47 -17 123
33 123 18 0 68 -13 195 -52 19 -5 35 -8 38 -6 8 9 -37 194 -57 232 l-20 38 27
47 c54 91 237 257 364 330 60 33 91 41 71 17z m5532 -196 c24 -11 72 -40 106
-65 l61 -45 0 -79 0 -80 -82 -51 c-46 -28 -107 -58 -136 -67 -61 -20 -74 -15
-170 58 -29 21 -57 39 -63 39 -5 0 -35 -25 -65 -55 -31 -30 -57 -55 -58 -55
-1 0 -1 40 -1 90 0 83 5 104 19 81 3 -5 35 -17 71 -26 59 -16 75 -17 169 -5
l105 14 -25 29 c-14 17 -37 53 -51 81 -14 28 -36 60 -49 71 -32 28 -30 32 14
40 20 3 53 15 72 25 19 11 36 19 36 20 1 0 22 -9 47 -20z m-1428 -321 l-1
-100 -79 -80 -80 -79 -67 0 c-37 0 -93 7 -125 15 -32 9 -86 18 -120 22 -35 3
-63 8 -63 10 0 7 250 252 283 277 29 23 44 26 137 29 58 1 107 4 110 5 3 1 5
-43 5 -99z m1595 -248 l0 -259 -52 -4 c-29 -3 -56 -3 -60 -1 -5 2 -8 71 -8
153 0 165 2 159 -77 213 -18 12 -33 25 -33 28 0 3 25 15 54 28 30 12 79 40
108 61 29 22 56 39 61 40 4 0 7 -117 7 -259z m-377 197 c34 -29 99 -82 145
-118 l83 -65 -8 -145 c-4 -80 -8 -335 -8 -568 l0 -423 -24 -6 c-14 -3 -44 4
-80 20 -143 66 -225 30 -227 -98 -1 -67 -21 -70 -83 -10 -27 25 -64 57 -84 70
l-35 24 -7 283 c-9 344 -3 807 10 830 14 23 238 256 248 257 4 1 36 -23 70
-51z m-1006 -102 c40 -38 97 -87 126 -108 28 -21 58 -43 65 -48 9 -8 12 -113
13 -458 0 -246 4 -472 8 -502 5 -30 5 -65 0 -77 -7 -19 -96 -73 -120 -73 -5 0
-22 26 -38 58 -16 31 -42 74 -57 94 -16 21 -37 49 -47 63 -24 34 -43 31 -51
-7 -4 -18 -13 -42 -22 -53 -14 -20 -16 -19 -47 17 -40 46 -144 138 -156 138
-5 0 -14 -26 -20 -57 -7 -32 -18 -71 -26 -88 -12 -27 -14 -8 -16 175 -2 113
-2 323 -1 467 l3 261 41 44 c22 23 75 85 117 136 42 52 83 102 91 112 17 21 9
26 137 -94z m-1221 29 c87 -85 141 -132 181 -160 l43 -30 5 -329 c4 -286 11
-440 29 -713 4 -49 2 -63 -9 -63 -8 0 -17 5 -20 10 -9 15 -37 12 -83 -10 -22
-11 -45 -20 -49 -20 -4 0 -18 21 -30 48 -25 52 -85 119 -149 162 -40 28 -148
80 -165 80 -5 0 -26 8 -47 17 l-39 16 -7 199 c-4 109 -4 288 0 397 l7 199 116
122 c64 68 120 129 124 137 10 16 18 11 93 -62z m1699 66 c11 -19 -34 -274
-72 -403 -17 -59 -28 -68 -87 -68 -20 0 -27 4 -23 14 21 55 51 167 68 256 19
95 43 160 60 160 3 0 11 11 17 25 12 26 26 32 37 16z m-2901 -69 c46 -43 212
-162 225 -162 4 0 15 -8 24 -18 15 -16 17 -73 17 -553 1 -293 -3 -534 -7 -534
-4 0 -26 10 -48 21 -22 12 -50 25 -62 28 -21 7 -23 4 -23 -25 0 -20 -15 -58
-39 -99 -39 -65 -41 -67 -95 -79 -31 -7 -60 -10 -65 -7 -5 3 -15 44 -22 91 -7
47 -15 85 -18 85 -3 -1 -18 -20 -33 -44 -31 -48 -126 -170 -136 -174 -4 -1
-13 22 -20 50 -10 41 -13 193 -12 642 0 324 3 593 6 598 3 4 35 33 72 62 37
30 92 77 122 105 30 28 59 50 64 51 5 0 27 -17 50 -38z m3039 -6 c43 -19 81
-37 84 -40 4 -3 -6 -20 -22 -36 -28 -30 -29 -33 -35 -168 l-5 -137 -102 -3
c-83 -2 -103 0 -103 11 0 8 13 57 29 108 29 95 44 164 56 252 3 26 9 47 13 47
4 0 42 -15 85 -34z m-356 -85 c28 -27 29 -26 58 7 l24 27 1 -25 c0 -14 -14
-74 -31 -135 -17 -60 -33 -123 -37 -138 -15 -60 -27 -30 -30 73 l-2 105 -37
30 c-20 17 -53 44 -72 62 l-36 32 27 10 c14 5 29 15 33 21 6 10 48 -18 102
-69z m-5134 -161 c20 -24 54 -26 85 -5 20 15 25 14 62 -7 45 -26 49 -34 20
-43 -41 -13 -6 -85 41 -85 29 0 59 18 59 35 0 8 7 15 15 15 20 0 83 -32 70
-36 -5 -1 -22 -5 -37 -8 -15 -3 -29 -14 -33 -25 -5 -17 -9 -17 -98 4 l-92 22
3 36 c3 31 0 38 -27 51 -41 22 -67 20 -91 -6 -18 -20 -19 -23 -4 -46 9 -13 14
-25 12 -27 -2 -1 -27 -5 -55 -9 -55 -7 -67 1 -33 22 22 13 26 42 9 59 -7 7 1
19 28 42 44 37 44 37 66 11z m428 -142 c37 -11 39 -13 33 -43 -5 -26 -1 -34
20 -48 46 -31 91 -16 109 34 6 17 52 16 62 -2 3 -4 21 -5 40 -2 34 5 48 -8 25
-22 -15 -9 -12 -41 6 -56 9 -7 35 -12 60 -11 45 2 53 -8 35 -37 -12 -18 31
-92 75 -130 22 -20 46 -31 64 -31 l30 0 0 -64 c0 -36 4 -76 10 -90 5 -14 6
-27 2 -29 -4 -3 -35 9 -68 25 -107 51 -167 126 -115 143 27 8 33 32 21 71 -9
27 -18 35 -46 40 -36 7 -44 18 -18 28 23 9 9 23 -26 24 -17 0 -49 11 -73 24
-34 19 -43 29 -45 56 -4 40 -17 41 -31 2 -12 -35 -12 -35 -82 -11 -96 33 -109
42 -103 65 3 14 -3 32 -16 49 -24 31 -22 32 31 15z m-279 -33 c31 -8 107 -38
170 -68 122 -58 158 -72 201 -81 l28 -7 -51 -49 -50 -49 -78 80 c-43 43 -84
79 -91 79 -8 0 3 -17 23 -37 39 -39 83 -109 126 -198 32 -65 274 -309 316
-318 16 -3 38 -12 48 -20 18 -13 17 -16 -20 -63 -21 -27 -48 -69 -58 -92 -11
-23 -24 -41 -30 -39 -13 4 -14 90 -3 127 l8 25 -20 -25 c-12 -14 -26 -42 -33
-62 -10 -33 -15 -38 -42 -38 -63 0 -198 41 -298 89 -213 104 -327 200 -415
352 -25 44 -47 79 -50 79 -7 0 11 -57 37 -111 67 -142 169 -239 347 -328 127
-63 254 -106 345 -116 77 -9 138 -26 138 -39 0 -6 -16 -20 -35 -30 -39 -21
-155 -130 -155 -146 0 -36 -559 31 -745 90 -220 70 -389 179 -438 283 -44 92
-44 103 5 128 150 76 291 219 365 369 48 98 87 144 162 194 51 35 56 36 145
36 50 0 117 -7 148 -15z m4281 -71 c4 -49 10 -157 13 -240 l7 -152 -189 -6
c-104 -3 -219 -7 -255 -9 l-66 -2 -7 119 c-3 65 -6 172 -6 237 0 115 1 119 23
124 25 6 91 8 318 14 l156 3 6 -88z m1074 72 c9 -14 5 -471 -4 -473 -5 -1 -92
-4 -195 -6 l-188 -5 0 239 c0 131 1 240 3 241 4 2 288 15 335 14 24 0 46 -4
49 -10z m751 -213 l-3 -227 -63 -4 -64 -4 7 224 c4 122 9 226 12 231 2 4 29 7
59 7 l54 0 -2 -227z m-4163 -25 l0 -237 -176 -5 -176 -5 -14 97 c-14 102 -19
345 -7 375 7 16 23 17 190 15 l183 -3 0 -237z m1183 14 c2 -173 0 -223 -10
-226 -7 -3 -124 -7 -260 -10 l-248 -5 0 229 0 229 158 4 c86 1 202 3 257 2
l100 0 3 -223z m-2237 11 c32 -52 62 -140 74 -218 7 -53 30 -105 44 -105 5 0
44 -29 87 -65 43 -36 81 -65 85 -65 4 0 12 -14 18 -32 10 -28 9 -34 -13 -57
-14 -14 -35 -48 -46 -74 -17 -38 -24 -46 -35 -37 -17 14 -3 52 38 101 15 18
25 35 22 37 -10 10 -77 -52 -96 -90 -20 -39 -21 -40 -62 -34 -29 5 -54 19 -88
51 -27 25 -64 53 -84 62 -40 19 -39 9 -14 130 l13 62 44 -6 44 -6 -18 28 c-14
21 -20 56 -24 139 -7 111 -26 180 -57 199 -21 13 -15 27 12 27 19 0 33 -11 56
-47z m-328 -42 c-3 -62 -22 -96 -35 -62 -4 12 -20 26 -35 32 -22 8 -32 6 -52
-9 -46 -35 -20 -86 41 -80 31 3 38 0 36 -12 -2 -10 -19 -17 -48 -21 -25 -3
-52 -9 -60 -12 -10 -5 -23 4 -39 28 l-23 34 21 27 c25 32 27 57 5 79 -16 15
-16 18 0 33 13 14 20 14 36 4 11 -6 29 -12 40 -12 14 0 20 -7 20 -22 1 -21 4
-19 33 15 45 52 63 46 60 -22z m91 -177 c15 -19 51 -46 78 -62 l50 -27 -5 -51
c-11 -106 -60 -162 -88 -100 -7 14 -22 27 -35 30 -13 4 -38 21 -56 39 -18 17
-53 49 -78 69 l-45 37 40 34 c23 19 50 51 60 72 20 36 20 36 35 15 8 -12 28
-37 44 -56z m2473 -67 c31 -19 -6 -116 -90 -234 -33 -47 -47 -59 -55 -51 -7 7
-12 18 -12 25 0 28 -35 10 -100 -53 l-68 -66 -18 29 c-50 80 -95 95 -146 46
-15 -14 -31 -24 -35 -20 -3 4 0 79 7 167 l13 160 191 3 c234 4 299 3 313 -6z
m1173 -74 c0 -38 3 -92 7 -122 6 -54 6 -54 -18 -46 -53 16 -168 39 -174 33 -3
-3 -1 -16 5 -29 5 -13 14 -58 19 -99 5 -41 12 -85 16 -96 6 -18 -1 -26 -40
-48 -26 -14 -50 -26 -52 -26 -3 0 -3 12 0 27 3 15 3 33 0 40 -8 20 -104 16
-179 -9 -56 -18 -67 -19 -75 -7 -5 8 -9 66 -9 129 0 63 -3 159 -7 212 l-6 97
59 4 c32 2 148 4 257 5 l197 2 0 -67z m1068 -84 l3 -146 -106 34 -105 34 -25
50 c-14 27 -28 76 -32 109 l-6 59 114 4 c63 2 123 3 134 3 19 -1 20 -9 23
-147z m-821 -87 c14 -23 33 -47 43 -52 16 -9 22 -2 45 45 15 30 31 55 36 55 9
0 50 -53 69 -90 7 -13 18 -61 24 -105 10 -67 15 -80 32 -83 13 -2 25 7 37 26
9 17 34 45 54 63 l38 33 6 -65 c3 -35 10 -76 13 -91 l8 -26 -59 5 c-49 4 -63
1 -93 -19 -20 -13 -45 -43 -58 -70 -25 -53 -38 -62 -101 -72 -24 -4 -66 -16
-92 -28 -39 -16 -49 -25 -49 -44 0 -20 -5 -24 -30 -24 -30 0 -40 13 -19 26 14
8 81 150 104 219 9 28 30 78 47 113 16 35 28 65 25 68 -2 3 -44 -2 -93 -11
-49 -9 -111 -20 -139 -25 -27 -5 -74 -13 -103 -19 -89 -18 -89 -18 -102 47 -6
31 -17 76 -25 100 -8 23 -10 42 -5 42 26 0 102 -43 121 -69 13 -17 28 -31 35
-31 6 0 28 18 47 39 34 38 57 92 57 137 0 11 3 24 7 28 10 10 90 -72 120 -122z
m-3748 -10 c82 -41 106 -66 80 -85 -22 -17 -39 -51 -39 -81 0 -25 34 -60 71
-71 26 -9 24 -23 -7 -37 -21 -10 -34 -9 -73 6 -25 10 -62 19 -81 21 -100 12
-121 18 -140 42 -36 47 -17 137 46 221 30 39 35 38 143 -16z m571 -15 c29 -25
56 -33 124 -39 16 -2 31 -8 33 -15 7 -20 -31 -33 -68 -23 -19 5 -79 5 -134 1
-89 -6 -97 -9 -72 -19 34 -14 71 -17 115 -7 21 5 32 4 32 -4 0 -6 -6 -11 -13
-11 -7 0 -29 -11 -49 -25 -20 -14 -45 -25 -55 -25 -32 0 -123 48 -123 65 0 39
60 127 93 136 34 8 83 -6 117 -34z m-2188 -20 c7 -7 38 -30 68 -52 148 -109
286 -176 435 -213 123 -31 429 -72 538 -72 107 0 109 -1 78 -59 -12 -23 -35
-43 -72 -61 -31 -15 -64 -40 -76 -59 l-23 -34 -102 2 c-95 1 -256 14 -353 26
-30 4 -36 3 -24 -4 29 -18 150 -43 243 -49 l90 -7 19 -64 c10 -34 16 -65 13
-69 -14 -14 -254 -42 -361 -42 -108 0 -331 21 -377 36 -21 6 -25 22 -32 122
-5 67 -8 77 -45 121 -112 134 -140 315 -70 454 21 40 30 44 51 24z m3545 -49
c17 -18 39 -50 50 -72 20 -42 36 -49 41 -16 4 26 96 120 117 120 24 0 29 -27
12 -68 -22 -52 -27 -90 -17 -140 7 -38 5 -42 -9 -37 -181 73 -292 98 -406 94
-47 -2 -85 -3 -85 -1 0 1 9 20 20 42 11 22 20 48 20 58 0 10 3 21 6 25 8 7 67
-28 105 -64 28 -26 49 -30 49 -10 0 14 51 101 59 101 4 0 21 -15 38 -32z
m-1695 -39 c177 -36 316 -126 376 -244 62 -121 32 -305 -71 -440 -63 -83 -77
-86 -163 -28 -162 107 -301 403 -231 491 19 24 95 14 160 -20 68 -36 155 -116
180 -165 22 -41 15 -78 -34 -177 -22 -44 -37 -82 -34 -85 14 -13 42 22 85 105
56 109 59 160 18 245 -29 59 -92 131 -146 169 -47 31 -159 70 -208 70 -22 0
-47 6 -56 13 -17 13 -31 60 -21 71 10 10 86 7 145 -5z m2701 -31 c8 -18 20
-51 27 -73 7 -22 16 -44 20 -48 4 -5 36 6 71 23 74 38 155 64 175 56 12 -4 10
-15 -7 -58 -47 -121 -77 -158 -162 -202 -35 -18 -45 -30 -67 -84 -28 -70 -61
-112 -103 -130 -43 -19 -67 -15 -146 23 -54 26 -86 35 -125 35 -117 0 -233 38
-285 94 -14 14 -23 27 -20 29 2 2 42 21 89 42 47 21 88 42 93 45 4 3 -9 15
-29 26 -48 25 -91 80 -99 125 l-7 36 89 2 c92 2 225 -25 270 -55 12 -8 25 -14
27 -14 3 0 15 22 26 49 18 41 30 54 78 79 31 17 60 31 63 31 4 1 13 -14 22
-31z m-5256 -35 c7 -10 38 -66 69 -125 71 -138 87 -141 84 -20 -4 127 -1 162
10 162 6 0 14 -8 18 -17 4 -10 23 -47 44 -83 20 -36 39 -80 43 -97 4 -18 11
-33 15 -33 8 0 30 61 30 83 0 15 42 107 49 107 4 0 12 -30 19 -66 27 -141 47
-174 72 -114 18 43 68 120 78 120 5 0 15 -21 23 -47 20 -76 59 -144 111 -199
l48 -51 -1 -82 c-1 -95 6 -108 84 -147 41 -21 47 -28 47 -57 0 -17 9 -61 19
-96 22 -70 45 -231 39 -274 l-3 -28 -63 50 c-34 28 -67 51 -72 51 -6 0 -8 -15
-4 -40 4 -21 3 -55 0 -75 l-7 -36 -31 26 c-52 44 -240 126 -255 111 -3 -3 -6
-21 -5 -38 0 -18 -5 -41 -12 -51 -12 -16 -17 -14 -57 24 -64 60 -148 96 -280
120 -63 12 -120 23 -126 25 -10 3 -13 103 -13 459 0 250 3 455 6 455 4 0 13
-8 21 -17z m2098 -23 c3 -11 11 -20 16 -20 20 0 6 -21 -52 -77 -34 -32 -68
-71 -76 -86 -14 -28 -31 -37 -87 -51 -28 -7 -29 -6 -22 26 9 49 71 133 135
183 62 50 77 54 86 25z m519 -59 c69 -31 143 -93 177 -148 32 -52 16 -51 -40
4 -27 27 -74 61 -103 76 -70 36 -133 35 -285 -2 -65 -16 -163 -36 -218 -46
-55 -9 -104 -17 -109 -18 -40 -8 30 81 104 129 35 23 44 25 66 15 14 -6 36
-11 50 -11 14 0 39 -7 56 -16 22 -12 49 -15 96 -12 55 4 68 8 86 30 27 34 43
34 120 -1z m-178 -88 c-15 -55 -17 -89 -6 -136 17 -78 49 -155 89 -217 45 -69
144 -169 183 -182 20 -7 27 -15 23 -25 -4 -13 1 -14 24 -10 24 5 33 0 60 -33
17 -21 31 -44 31 -49 0 -13 146 -14 245 -1 38 5 73 6 78 3 4 -3 -20 -26 -55
-51 -85 -61 -181 -160 -204 -210 -10 -23 -21 -42 -24 -42 -3 0 -14 28 -24 63
-11 34 -27 76 -35 94 -13 29 -13 37 2 73 12 32 13 40 2 40 -7 0 -22 -11 -32
-25 -18 -26 -18 -26 -63 -9 -25 9 -69 22 -99 29 -55 13 -55 13 -82 -16 -15
-16 -32 -29 -39 -29 -11 0 -71 -27 -224 -101 -75 -36 -127 -37 -227 -4 -126
42 -249 135 -304 230 -68 115 -108 333 -72 388 22 34 113 69 327 127 102 27
210 57 240 65 176 48 193 50 186 28z m-888 -519 c13 -43 44 -143 69 -222 25
-78 44 -144 42 -145 -2 -2 -30 -13 -62 -25 -105 -39 -97 -58 -97 229 0 279 7
303 48 163z m102 44 c6 -24 15 -58 20 -75 15 -58 80 -151 148 -212 36 -33 64
-62 61 -63 -55 -37 -105 -74 -107 -80 -8 -19 -22 -5 -22 23 0 26 -3 29 -20 24
-16 -5 -21 2 -35 52 -9 32 -21 72 -26 88 -6 17 -17 53 -25 80 -59 209 -58 205
-24 205 14 0 22 -11 30 -42z m-191 -196 c-2 -116 -7 -214 -11 -217 -4 -4 -19
-4 -34 -1 -23 6 -26 11 -22 46 2 22 1 40 -2 40 -11 0 -217 -109 -255 -134 -41
-28 -49 -28 -140 -2 -38 11 -40 14 -47 61 -3 28 -7 74 -7 103 -1 47 -36 202
-61 267 -5 14 -8 25 -7 25 1 1 103 3 227 5 138 2 248 9 285 18 33 7 64 10 69
6 4 -4 6 -102 5 -217z m1899 16 c2 -13 -3 -18 -17 -18 -24 0 -28 -18 -6 -26
17 -7 19 -26 6 -52 -6 -9 -12 -29 -16 -44 -3 -16 -10 -28 -16 -28 -6 0 -8 4
-4 9 9 15 -15 25 -28 11 -9 -9 -8 -14 5 -24 25 -18 2 -59 -37 -66 -20 -4 -26
-8 -17 -13 25 -16 13 -37 -22 -37 -37 0 -57 -17 -36 -30 17 -10 3 -31 -15 -23
-9 3 -15 -1 -15 -10 0 -10 -7 -13 -20 -10 -14 4 -20 0 -20 -11 0 -9 -6 -16
-13 -16 -7 0 -18 -9 -25 -21 -9 -15 -21 -20 -37 -17 -14 3 -26 0 -29 -8 -8
-20 -63 -17 -75 4 -15 28 -4 90 28 159 45 96 188 232 294 278 44 20 111 16
115 -7z m-653 -94 c39 -10 71 -19 73 -19 1 -1 7 -27 13 -58 11 -51 10 -60 -6
-77 -10 -11 -22 -20 -27 -20 -12 0 -38 63 -38 93 0 60 -60 46 -135 -32 -22
-23 -44 -41 -50 -41 -11 0 -65 81 -65 96 1 16 124 84 145 80 11 -2 52 -12 90
-22z"/>
<path d="M6565 4550 c-3 -5 -29 -10 -57 -10 -35 0 -58 -6 -75 -20 -19 -15 -30
-17 -43 -10 -30 16 -48 12 -82 -20 -17 -17 -42 -30 -55 -30 -18 0 -28 -8 -36
-30 -7 -18 -19 -30 -30 -30 -34 0 -57 -20 -57 -49 0 -20 -8 -34 -25 -45 -25
-17 -34 -59 -15 -71 17 -11 11 -35 -9 -35 -26 0 -32 -22 -15 -56 12 -22 13
-34 5 -52 -18 -37 -13 -62 13 -71 17 -7 25 -20 30 -50 5 -32 11 -41 26 -41 12
0 23 -8 26 -17 20 -63 30 -76 63 -90 20 -9 46 -26 58 -39 16 -18 33 -24 62
-24 30 0 47 -7 73 -31 30 -27 38 -29 76 -24 34 5 48 3 63 -11 20 -18 77 -21
107 -5 9 5 38 7 64 4 38 -4 49 -2 54 10 5 15 9 15 36 1 36 -19 74 -12 83 15 3
12 19 21 40 25 19 4 39 16 45 26 6 11 19 20 30 20 34 0 50 12 50 36 0 20 5 24
29 24 30 0 41 14 41 55 0 13 4 26 9 29 5 3 8 38 7 77 -1 39 2 73 6 75 14 9 9
51 -7 64 -11 9 -14 23 -9 46 5 27 2 35 -20 50 -26 16 -26 17 -9 36 17 19 17
20 -2 34 -10 8 -32 14 -48 14 -26 0 -28 3 -23 25 7 26 -15 45 -50 45 -9 0 -27
11 -40 25 -16 18 -33 25 -60 25 -28 0 -35 3 -30 15 6 17 -29 36 -52 28 -7 -3
-23 6 -37 21 -25 27 -67 34 -95 16 -10 -6 -20 -3 -33 11 -19 20 -71 26 -82 9z
m-2 -52 c2 -7 19 -13 38 -14 78 -2 140 -17 150 -35 6 -12 21 -19 38 -19 16 0
37 -10 51 -25 13 -14 35 -25 49 -25 18 0 31 -9 43 -30 10 -18 25 -30 38 -30
13 0 20 -7 20 -19 0 -13 11 -23 35 -31 25 -8 35 -17 35 -32 0 -12 8 -30 17
-41 17 -18 17 -19 -1 -32 -20 -15 -15 -31 17 -54 17 -12 17 -14 1 -32 -10 -11
-14 -27 -10 -41 4 -16 0 -28 -15 -39 -19 -14 -20 -17 -5 -32 20 -20 20 -27 -1
-43 -10 -7 -18 -20 -18 -31 0 -12 -10 -19 -30 -23 -21 -4 -31 -12 -33 -28 -2
-13 -10 -22 -20 -22 -9 0 -32 -9 -50 -20 -18 -11 -43 -20 -55 -20 -13 0 -32
-7 -43 -15 -12 -9 -30 -12 -52 -8 -19 3 -52 0 -75 -8 -31 -10 -41 -11 -45 -1
-5 15 -56 16 -84 1 -16 -9 -24 -7 -41 9 -38 34 -63 43 -92 32 -37 -14 -45 -13
-45 10 0 29 -43 54 -69 41 -27 -15 -31 -14 -31 9 0 24 -20 70 -32 71 -4 1 -13
2 -19 3 -6 0 -16 17 -23 36 -6 19 -21 39 -33 44 -17 8 -20 16 -16 41 3 21 0
35 -11 44 -14 12 -14 15 0 37 10 14 14 34 10 48 -4 16 1 32 15 51 18 21 20 31
11 50 -12 26 -7 35 19 35 19 0 29 19 29 59 0 24 3 28 24 24 18 -4 30 3 47 26
16 21 31 31 50 31 14 0 33 7 40 16 10 12 24 15 57 10 35 -5 49 -2 69 14 30 23
40 25 46 8z"/>
<path d="M2611 3723 c-54 -5 -83 -23 -106 -67 -39 -72 7 -146 92 -146 38 0 50
5 80 35 34 34 35 39 30 85 -3 28 -2 52 4 55 14 9 -1 27 -17 21 -8 -3 -14 1
-14 9 0 8 -6 14 -12 13 -7 -1 -33 -3 -57 -5z"/>
<path d="M1973 3690 c4 -17 2 -20 -14 -15 -22 7 -26 -13 -4 -21 10 -4 15 -20
15 -49 0 -36 6 -50 34 -79 30 -32 39 -36 84 -36 44 0 54 4 76 31 31 37 34 81
6 126 -27 44 -54 56 -117 51 -30 -3 -56 -1 -59 4 -10 16 -26 7 -21 -12z"/>
<path d="M2310 3497 c-44 -15 -62 -57 -36 -86 24 -27 95 -45 136 -34 45 12 76
53 61 82 -6 11 -19 25 -29 30 -31 16 -97 20 -132 8z"/>
<path d="M2186 3314 c-29 -26 -29 -26 -5 -24 43 4 47 1 69 -57 27 -72 64 -113
102 -113 40 0 64 29 84 100 18 64 36 83 72 73 26 -6 28 4 6 28 -15 17 -18 17
-46 -4 -54 -40 -238 -34 -238 8 0 21 -10 18 -44 -11z"/>
<path d="M2564 1880 c-27 -11 -37 -58 -23 -117 15 -69 38 -102 79 -113 52 -15
183 -13 204 3 17 12 17 15 -4 53 -62 111 -193 200 -256 174z"/>
<path d="M5053 1866 c-29 -14 -53 -32 -53 -40 0 -8 20 -27 43 -41 82 -47 187
-23 187 43 0 44 -14 55 -72 59 -41 3 -64 -1 -105 -21z"/>
<path d="M5575 1415 c-38 -19 -57 -49 -64 -99 -3 -21 -13 -42 -21 -46 -8 -4
-33 -15 -55 -25 -59 -24 -147 -84 -169 -112 -18 -24 -18 -25 5 -41 49 -37 123
-72 150 -72 28 0 29 -1 22 -45 -7 -56 12 -126 44 -161 20 -21 30 -25 57 -20
18 3 35 3 39 -1 4 -3 -20 -34 -53 -69 -56 -58 -72 -84 -52 -84 5 0 47 39 93
86 60 61 102 94 147 115 34 17 75 41 90 53 21 18 44 24 107 29 45 3 105 15
138 27 67 25 88 21 205 -41 39 -21 72 -34 72 -29 0 10 -118 86 -156 100 -21 8
-23 13 -14 30 6 12 18 24 26 27 8 3 14 9 14 13 0 11 -135 80 -155 80 -19 0
-19 5 5 68 27 69 25 88 -8 121 -37 37 -122 61 -216 61 -55 0 -87 5 -114 19
-55 27 -102 33 -137 16z m109 -50 c60 -33 65 -34 142 -29 49 3 100 0 134 -8
47 -12 55 -17 63 -43 7 -23 3 -42 -17 -84 -28 -62 -23 -86 22 -98 30 -7 112
-54 112 -64 0 -18 -148 -62 -252 -74 -38 -4 -75 -17 -114 -41 -88 -53 -144
-75 -205 -81 l-55 -5 -12 39 c-16 54 -15 104 3 127 26 35 19 46 -30 46 -45 0
-150 33 -161 52 -16 26 129 131 202 146 37 7 37 8 40 62 2 42 8 59 24 72 29
24 32 23 104 -17z"/>
<path d="M5629 1171 c-16 -16 -29 -34 -29 -40 0 -21 64 -55 115 -59 48 -4 53
-2 78 28 52 61 23 100 -76 100 -51 0 -62 -4 -88 -29z"/>
<path d="M590 579 c-14 -6 -35 -20 -47 -31 -20 -18 -27 -20 -48 -10 -40 19
-99 15 -128 -8 -35 -28 -41 -53 -22 -90 15 -30 15 -30 -10 -40 -15 -6 -30 -10
-35 -10 -16 0 -50 -52 -50 -76 0 -26 35 -54 62 -50 23 3 36 16 16 16 -8 0 -23
9 -33 20 -18 20 -18 21 2 48 23 30 70 44 128 37 35 -5 38 -4 21 7 -38 25 -76
69 -76 88 0 28 28 50 64 50 24 0 41 -9 66 -35 44 -46 63 -46 55 -2 -8 41 10
63 59 72 44 9 92 -16 98 -50 3 -14 1 -28 -3 -31 -13 -7 -11 -24 2 -24 6 0 24
11 41 25 33 28 92 34 122 12 23 -17 14 -72 -15 -90 -10 -6 -19 -17 -19 -24 0
-17 10 -16 32 3 27 25 97 8 117 -28 14 -24 14 -28 -3 -47 -15 -16 -31 -21 -70
-21 -58 0 -52 -14 11 -24 37 -5 46 -3 78 25 19 17 35 37 35 44 0 29 -52 75
-90 81 -37 6 -38 7 -33 44 5 33 2 40 -21 55 -21 14 -40 17 -91 12 -49 -5 -64
-3 -69 8 -12 33 -105 60 -146 44z"/>
</g>
</svg>
