<?xml version="1.0" standalone="no"?>
<!DOCTYPE svg PUBLIC "-//W3C//DTD SVG 20010904//EN"
 "http://www.w3.org/TR/2001/REC-SVG-20010904/DTD/svg10.dtd">
<svg version="1.0" xmlns="http://www.w3.org/2000/svg"
 width="600.000000pt" height="336.000000pt" viewBox="0 0 600.000000 336.000000"
 preserveAspectRatio="xMidYMid meet">
<metadata>
Created by potrace 1.16, written by Peter Selinger 2001-2019
</metadata>
<g transform="translate(0.000000,336.000000) scale(0.100000,-0.100000)"
fill="#000000" stroke="none">
<path d="M1 2471 c0 -492 1 -892 4 -889 3 3 5 179 5 391 l0 385 35 22 c46 28
46 38 0 11 l-36 -21 3 118 3 117 63 31 62 31 28 -27 c16 -15 54 -46 85 -69
l57 -42 2 -72 2 -72 5 80 c6 85 4 105 -10 84 -8 -12 -13 -6 -11 12 1 3 -13 19
-30 35 -22 21 -29 24 -25 11 6 -17 5 -17 -21 1 -15 11 -38 32 -52 47 -24 26
-24 27 -3 21 12 -4 24 -2 28 3 3 7 0 8 -9 5 -9 -3 -16 -1 -16 5 0 17 -14 13
-38 -9 -18 -17 -103 -60 -118 -60 -2 0 -4 155 -4 344 l0 344 33 -8 c17 -4 44
-12 59 -18 22 -9 26 -8 23 6 -2 9 -4 28 -4 42 -1 19 -4 21 -10 11 -5 -8 -7
-20 -4 -28 6 -16 -8 -16 -58 -2 -26 8 -39 19 -42 33 -2 12 -5 -381 -6 -873z"/>
<path d="M2209 3344 c-10 -12 -24 -15 -64 -10 -27 3 -43 2 -35 -1 8 -3 17 -9
20 -12 3 -3 16 -15 30 -26 20 -16 22 -16 11 -2 -20 25 -6 33 24 13 23 -15 25
-15 25 1 0 13 3 14 11 6 16 -16 3 -47 -16 -39 -8 3 -17 1 -21 -5 -3 -6 -11 -8
-17 -6 -7 2 -16 -2 -22 -8 -10 -12 -125 -47 -142 -44 -19 5 -43 -15 -44 -35 0
-21 0 -21 -9 2 -5 12 -7 30 -4 40 3 10 0 8 -7 -4 -9 -17 -26 -24 -78 -32 -62
-9 -63 -9 -21 -11 36 -1 41 -4 28 -12 -15 -8 -18 -23 -16 -87 0 -42 3 -63 5
-45 3 23 10 33 26 36 l22 4 -22 2 c-18 1 -23 7 -23 29 l0 27 82 -1 c82 -1 82
-1 11 3 -92 5 -96 23 -5 24 37 0 102 4 146 8 91 10 113 6 122 -21 3 -11 8 -17
12 -14 9 9 -20 56 -31 49 -5 -3 -6 3 -3 15 9 26 -9 38 -24 15 -9 -15 -10 -13
-6 12 l6 30 -15 -25 c-10 -17 -14 -20 -15 -9 0 22 32 49 37 32 6 -16 24 -17
21 -2 -4 14 25 20 42 9 7 -4 16 -25 20 -46 8 -39 8 -39 9 -6 1 20 -7 40 -20
53 -25 25 -17 39 13 20 12 -8 17 -8 13 -1 -4 6 -8 22 -10 36 -2 21 1 24 27 22
l30 -2 -22 -18 c-26 -21 -13 -25 15 -5 26 20 10 37 -36 37 -37 0 -53 -14 -27
-22 7 -3 8 -9 3 -18 -7 -11 -13 -5 -25 23 -15 34 -18 36 -31 21z"/>
<path d="M5160 3349 c0 -5 -5 -7 -11 -3 -7 4 -7 -1 1 -16 6 -12 8 -29 4 -38
-4 -9 -6 -27 -5 -39 1 -13 -2 -23 -7 -23 -13 0 -22 -123 -10 -131 5 -3 9 -25
10 -47 0 -40 2 -42 32 -41 17 0 25 3 19 6 -7 2 -13 16 -13 30 0 17 -4 23 -14
20 -10 -4 -15 4 -18 24 -4 26 -2 29 21 29 21 0 23 -2 11 -10 -13 -9 -13 -11 0
-19 18 -12 31 -5 23 14 -3 9 1 15 11 15 10 0 13 -6 10 -15 -5 -11 -2 -14 12
-8 11 3 22 11 26 17 4 6 8 1 8 -12 0 -13 -3 -21 -7 -19 -5 3 -8 -15 -8 -39 0
-33 3 -43 13 -39 8 3 17 5 20 5 10 0 1 103 -10 117 -5 7 -8 29 -7 50 2 21 0
43 -3 49 -4 5 -10 38 -14 72 -6 53 -9 62 -27 62 -17 0 -19 -5 -13 -32 5 -29 4
-31 -8 -15 -7 9 -18 17 -25 17 -15 0 -14 17 2 23 7 3 5 6 -5 6 -10 1 -18 -4
-18 -10z"/>
<path d="M866 3248 c-13 -18 -19 -20 -39 -11 -19 9 -23 8 -23 -7 0 -10 5 -16
12 -13 7 3 10 -5 7 -21 -3 -14 -9 -23 -14 -20 -5 3 -9 0 -9 -5 0 -22 21 -10
31 18 8 22 15 28 30 24 21 -6 27 -36 5 -31 -7 2 -23 -8 -34 -22 -16 -20 -22
-22 -35 -12 -13 11 -23 10 -59 -2 -24 -8 -37 -15 -30 -16 22 0 13 -17 -16 -29
-22 -9 -35 -9 -61 2 -22 9 -29 16 -20 20 8 3 9 6 3 6 -7 1 -22 -8 -35 -20 -13
-11 -18 -18 -11 -14 7 4 12 -1 12 -13 0 -12 9 -22 23 -25 20 -5 20 -5 5 7 -10
7 -18 18 -18 24 0 13 63 -3 68 -18 2 -5 13 -1 25 10 11 11 32 20 45 20 19 0
23 4 19 19 -10 42 43 31 115 -22 26 -19 29 -19 46 -4 10 9 23 17 28 17 20 0
-49 -52 -72 -54 -13 0 -26 -7 -29 -15 -3 -9 0 -11 10 -7 18 6 19 2 4 -27 -6
-13 2 -8 19 12 34 40 51 35 47 -16 -2 -36 -25 -63 -52 -63 -7 0 -13 -5 -13
-10 0 -7 6 -7 19 -1 10 6 21 7 25 4 3 -3 6 -1 6 5 0 7 7 12 15 12 10 0 15 10
15 31 0 31 31 68 58 69 7 0 10 5 7 10 -3 6 0 10 7 10 7 0 0 7 -17 16 -16 8
-42 27 -57 41 -15 15 -29 25 -31 22 -1 -2 -9 -13 -17 -24 -13 -18 -13 -19 0
-8 21 16 47 1 27 -15 -10 -9 -18 -8 -32 2 -17 12 -17 16 -5 31 15 18 59 40 73
36 5 -1 6 3 2 9 -4 6 -15 8 -25 5 -10 -3 -21 -1 -25 5 -4 6 -3 10 2 9 24 -4
35 2 29 17 -4 10 1 26 11 38 l18 21 -22 -19 c-13 -11 -23 -25 -23 -33 0 -17
-15 -17 -30 2 -10 12 -10 18 0 30 7 8 10 15 7 15 -3 0 -13 -10 -21 -22z"/>
<path d="M3268 3253 c21 -8 13 -22 -20 -32 l-33 -9 29 -1 c29 -1 29 -1 10 -23
-10 -12 -13 -18 -5 -13 9 5 12 3 9 -6 -3 -8 -9 -13 -14 -12 -5 1 -14 -9 -21
-23 -6 -13 -7 -24 -2 -24 5 0 9 5 9 12 0 8 3 9 10 2 21 -21 1 -43 -33 -37 -33
5 -119 -25 -131 -46 -4 -6 -17 -11 -29 -12 -13 0 -16 -2 -7 -5 8 -3 33 -13 55
-24 22 -10 55 -24 73 -31 23 -8 32 -17 29 -28 -2 -10 8 -22 30 -32 38 -19 41
-14 13 21 -11 14 -20 31 -20 37 0 12 -63 44 -78 41 -4 -1 -15 2 -24 6 -22 10
-24 36 -3 36 8 0 23 5 33 11 32 20 75 -2 83 -42 5 -20 18 -42 35 -54 71 -52
80 -63 67 -83 -17 -28 -8 -32 61 -33 56 -1 59 -2 27 -10 -18 -6 -31 -12 -29
-15 3 -2 36 5 74 17 53 16 70 25 70 39 0 10 -4 16 -8 14 -4 -3 -26 7 -49 21
-29 19 -38 30 -31 37 8 8 19 5 38 -8 53 -38 81 -52 115 -59 19 -4 40 -12 47
-18 7 -5 15 -7 19 -3 3 3 0 6 -8 7 -8 1 -3 4 11 9 21 6 18 7 -17 8 -22 0 -47
3 -55 8 -7 5 -19 9 -26 10 -7 1 -22 14 -33 28 -11 15 -25 24 -29 21 -15 -9
-34 35 -21 48 14 14 81 -19 81 -39 0 -7 4 -16 10 -19 6 -3 7 1 4 9 -7 18 11
22 21 6 6 -10 79 -50 91 -50 3 0 2 6 -4 13 -9 10 -3 13 26 14 20 1 42 -3 49
-8 7 -7 13 -6 17 0 9 15 -5 20 -66 23 -31 2 -56 7 -55 12 1 5 -4 11 -12 14 -8
3 -11 0 -7 -7 5 -7 1 -8 -13 -3 -11 4 -21 12 -22 17 -1 6 -12 23 -25 38 -26
30 -34 74 -11 60 22 -14 126 -10 132 6 4 11 -3 13 -37 8 -26 -3 -55 0 -73 8
-30 13 -29 13 27 14 31 1 60 6 63 11 3 6 18 10 33 10 l27 1 -24 13 c-20 11
-21 14 -7 19 25 10 9 27 -22 26 -23 -2 -24 -2 -5 -6 22 -4 22 -6 7 -29 -11
-16 -26 -24 -46 -24 -16 0 -27 4 -24 9 4 5 -7 12 -24 16 -16 4 -30 11 -30 16
0 5 -8 9 -17 9 -12 0 -7 -7 15 -24 l32 -23 -47 -6 c-27 -4 -59 -10 -72 -13
-17 -5 -22 -4 -17 4 4 7 2 12 -4 12 -7 0 -10 -6 -7 -14 3 -7 0 -19 -6 -26 -9
-9 -4 -10 24 -5 20 4 39 3 43 -3 3 -5 -5 -7 -19 -4 -15 2 -25 0 -25 -7 0 -15
-27 -14 -33 2 -6 12 -28 -9 -64 -61 -14 -20 -14 -25 -2 -32 7 -5 10 -12 6 -16
-15 -15 -45 32 -51 79 -5 38 -3 47 10 47 10 0 12 -5 7 -12 -9 -16 -5 -60 8
-73 6 -5 9 -4 9 3 0 7 19 33 42 57 22 25 34 43 26 40 -9 -4 -19 -2 -22 4 -7
11 -58 5 -89 -11 -14 -7 -17 -16 -12 -39 4 -16 3 -29 -2 -29 -14 0 -43 60 -43
88 0 49 98 105 141 81 9 -5 33 -11 54 -13 20 -3 43 -10 51 -17 8 -6 14 -7 14
-2 0 16 -23 33 -45 33 -12 0 -41 9 -64 21 -26 12 -58 19 -82 18 -21 -2 -41 0
-45 4 -4 4 -12 7 -18 6 -6 0 -5 -3 2 -6z"/>
<path d="M1041 3216 c-1 -15 -6 -17 -28 -11 -16 4 9 -18 60 -50 48 -32 87 -61
87 -66 0 -11 -17 -12 -22 -1 -6 13 -82 62 -87 55 -4 -3 -1 -7 4 -10 6 -2 17
-8 25 -13 13 -9 13 -11 0 -20 -22 -14 -33 -12 -26 5 10 26 -3 16 -19 -15 -14
-27 -14 -30 3 -40 14 -9 13 -10 -8 -5 -23 6 -24 5 -7 -9 13 -10 17 -21 12 -35
-5 -17 -2 -21 17 -20 13 0 17 3 11 6 -22 8 -14 38 16 67 24 23 35 27 61 21 28
-6 31 -10 27 -38 -2 -22 -11 -36 -28 -44 -13 -7 -18 -13 -11 -13 8 0 12 -6 10
-12 -3 -7 -13 -13 -23 -13 -13 0 -21 -10 -26 -32 -6 -31 -6 -31 26 -26 36 6
50 -7 40 -37 -4 -12 -12 -17 -23 -14 -9 2 -7 -1 6 -7 13 -7 21 -18 17 -27 -3
-7 -5 -32 -5 -55 0 -27 -3 -37 -9 -29 -7 11 -9 11 -14 -2 -4 -9 -11 -16 -17
-16 -6 0 -8 5 -5 10 3 6 1 10 -4 10 -6 0 -11 -6 -11 -14 0 -13 -20 -26 -40
-26 -5 0 -11 8 -13 18 -3 11 -5 7 -6 -10 -2 -48 -21 -42 -21 6 0 45 0 45 -25
34 -19 -8 -22 -14 -13 -20 10 -6 10 -8 1 -8 -7 0 -13 -5 -13 -10 0 -7 6 -7 20
0 17 9 20 8 20 -9 0 -22 -30 -37 -40 -20 -5 6 -9 3 -13 -10 -7 -27 5 -34 38
-21 40 15 48 12 42 -16 -3 -19 -1 -24 10 -20 8 3 17 6 19 6 2 0 4 9 4 20 0 11
-5 20 -11 20 -6 0 -5 6 3 13 16 17 87 41 95 33 10 -10 -7 -57 -19 -50 -7 5 -8
3 -3 -6 6 -9 1 -10 -16 -5 -16 4 -19 3 -11 -3 9 -6 0 -14 -32 -26 -36 -14 -46
-23 -45 -39 0 -21 1 -21 8 -2 8 19 9 18 13 -5 5 -24 5 -24 7 3 0 15 8 30 16
34 23 8 28 -2 15 -26 -6 -12 -7 -21 -2 -21 12 0 2 -53 -12 -62 -19 -13 -26 -9
-26 14 0 29 -17 11 -22 -22 -1 -14 -9 -26 -15 -26 -7 -1 -16 -3 -20 -4 -5 -1
-11 -2 -15 -2 -3 1 -9 -5 -12 -14 -4 -11 -2 -12 13 -5 10 6 21 8 24 5 9 -10
47 7 47 20 0 13 61 46 85 46 8 0 15 5 15 11 0 7 -9 9 -24 5 -22 -5 -23 -4 -22
42 1 48 19 71 57 72 13 0 18 14 22 62 3 34 1 70 -4 79 -14 27 20 113 38 95 4
-4 1 -11 -7 -16 -13 -8 -12 -10 3 -10 13 0 17 -8 16 -37 -1 -37 -2 -37 -8 -8
l-7 30 -5 -32 c-3 -18 -2 -33 2 -33 4 0 13 -2 21 -5 10 -4 13 10 13 60 l0 65
-34 0 c-26 0 -32 3 -27 16 3 9 6 24 6 34 0 10 8 21 18 23 16 4 16 5 0 6 -24 1
-23 21 1 21 13 0 20 -10 25 -32 4 -19 10 -28 14 -22 4 6 14 14 22 17 12 4 12
6 -2 6 -13 1 -15 8 -11 41 6 41 -10 57 -20 20 -5 -20 -47 -29 -47 -10 0 6 5
10 11 10 7 0 9 9 6 21 -5 17 -2 20 14 16 10 -3 22 -1 25 4 3 5 -6 9 -20 9 -26
0 -43 15 -28 24 5 3 8 18 7 33 -2 20 -1 22 2 5 4 -22 9 -24 59 -20 50 3 54 1
54 -19 0 -16 -6 -23 -19 -23 -15 0 -20 -9 -23 -39 -3 -35 -1 -40 20 -44 12 -2
25 0 28 4 3 5 -4 9 -15 9 -17 0 -21 6 -21 30 0 23 4 30 20 30 17 0 20 7 20 50
0 28 -4 50 -10 50 -5 0 -11 12 -11 28 -2 23 -2 24 -6 4 -4 -21 -8 -22 -91 -18
-81 3 -87 5 -93 27 l-7 24 -1 -23 c-2 -37 -44 -26 -52 13 -4 17 -7 22 -8 11z"/>
<path d="M1929 3023 c-1 -5 -2 -12 -4 -18 -1 -5 -3 -27 -3 -47 -2 -32 -6 -37
-29 -41 l-28 -4 27 -2 c26 -1 26 -3 16 -32 -6 -19 -16 -29 -26 -27 -23 4 -26
26 -5 31 17 4 17 5 1 6 -13 1 -18 10 -20 34 -1 23 -3 18 -7 -18 -5 -42 -3 -53
14 -67 17 -14 18 -20 8 -36 -10 -16 -9 -21 1 -25 8 -3 13 1 12 10 0 9 5 18 12
20 8 3 10 -1 6 -12 -4 -10 -2 -15 7 -13 10 2 14 -7 14 -27 0 -21 -4 -29 -14
-27 -12 3 -12 1 -1 -14 12 -14 12 -18 -2 -28 -13 -10 -14 -15 -3 -29 7 -9 18
-17 26 -17 8 0 5 5 -7 14 -18 14 -18 15 8 21 23 6 25 10 19 28 -5 12 -5 40 -1
62 4 22 8 33 9 25 1 -13 2 -13 11 0 8 12 10 12 10 1 0 -9 4 -10 13 -3 14 11
57 -2 57 -18 0 -5 -10 -10 -22 -11 -19 -1 -18 -2 6 -9 16 -5 33 -15 37 -22 5
-8 8 -4 7 12 -1 14 -7 28 -12 32 -20 13 1 18 33 7 18 -6 35 -9 38 -5 4 3 -1 6
-11 6 -9 0 -15 3 -13 8 3 4 -11 7 -31 7 -41 0 -67 18 -58 40 3 8 1 15 -4 15
-6 0 -10 11 -10 25 0 19 5 25 23 26 21 0 21 1 2 8 -26 11 -35 5 -35 -23 0 -22
-2 -22 -35 -12 -44 14 -45 26 -2 27 30 2 30 2 5 6 -16 2 -28 9 -28 15 0 6 13
8 30 6 17 -3 30 -1 30 4 0 8 -23 12 -49 8 -11 -1 -12 8 -7 44 5 30 4 46 -3 46
-6 0 -12 -3 -12 -7z"/>
<path d="M3800 2830 c12 -8 12 -11 -3 -28 -9 -10 -17 -25 -17 -33 0 -11 -2
-11 -8 -1 -7 10 -17 9 -51 -3 -24 -8 -70 -15 -102 -15 -49 0 -59 -3 -64 -20
-3 -11 -11 -20 -17 -20 -6 0 -8 9 -5 20 7 28 -10 25 -19 -2 -7 -22 -7 -22 -15
-3 -7 18 -8 18 -8 2 -1 -14 -6 -17 -23 -11 -13 4 -26 12 -30 18 -6 8 -8 7 -8
-1 0 -7 -7 -13 -16 -13 -13 0 -14 3 -5 13 11 14 5 27 -13 27 -6 0 -5 -4 2 -9
11 -7 11 -9 -2 -14 -9 -4 -16 -2 -16 3 0 6 -6 10 -13 10 -16 0 -20 -37 -5 -46
7 -5 8 -2 3 6 -6 10 -4 12 11 6 10 -4 56 -10 100 -13 77 -5 82 -4 88 15 6 18
15 21 62 21 29 -1 54 -6 54 -11 0 -6 -6 -8 -14 -5 -8 3 -17 -1 -20 -9 -3 -8
-10 -14 -16 -14 -6 0 -8 5 -4 11 4 7 1 10 -6 7 -20 -6 -24 -28 -6 -28 25 0 54
-30 49 -51 -3 -11 0 -19 6 -19 6 0 11 5 11 12 0 6 7 3 15 -8 14 -19 14 -18 15
3 0 17 4 21 17 16 11 -4 14 -3 9 5 -4 7 -2 12 3 12 6 0 11 -6 12 -12 0 -7 4
-4 9 7 13 30 12 35 -10 35 -29 0 -25 16 10 37 17 9 30 23 30 31 0 7 7 24 16
37 16 25 12 45 -9 45 -7 0 -6 -4 3 -10z"/>
<path d="M665 2707 c-11 -7 -20 -23 -20 -37 0 -18 -6 -26 -22 -28 -17 -3 -20
1 -16 17 6 25 8 24 -40 7 -28 -9 -34 -15 -23 -19 25 -10 19 -22 -17 -35 -44
-16 -57 -15 -57 3 0 18 16 20 23 3 3 -8 6 -6 6 5 1 9 6 17 13 17 6 0 9 2 6 5
-3 3 -39 -7 -79 -22 -58 -22 -74 -32 -71 -45 2 -10 -1 -18 -7 -18 -5 0 -12 10
-14 23 -3 16 -5 13 -6 -10 -1 -21 4 -33 12 -33 10 0 12 -15 9 -59 -3 -52 -1
-59 17 -64 18 -4 21 -1 20 21 -1 17 -3 21 -6 10 -2 -10 -9 -18 -14 -18 -10 0
-4 99 7 109 4 3 4 -2 1 -11 -4 -10 -2 -18 3 -18 6 0 10 5 10 11 0 6 7 8 16 5
11 -4 15 -2 11 8 -3 8 1 17 9 20 11 4 14 -7 14 -54 0 -47 -3 -60 -15 -60 -8 0
-15 -4 -15 -9 0 -14 34 -8 47 9 10 13 12 10 13 -16 0 -26 -6 -34 -34 -48 -44
-21 -73 -20 -79 2 -4 13 -5 11 -6 -5 -1 -19 4 -23 27 -23 15 0 47 9 71 20 24
11 57 20 75 21 32 1 29 3 -16 13 -20 5 -28 13 -28 27 0 11 4 18 9 14 5 -3 15
1 23 8 7 7 18 15 23 17 35 11 55 33 49 56 -6 25 10 34 19 12 3 -7 6 8 6 34 1
37 -2 46 -13 42 -8 -3 -16 -14 -19 -25 -4 -17 -3 -18 9 -8 23 19 17 -8 -7 -32
l-20 -20 3 47 c3 45 5 48 33 51 l30 4 -4 -53 c-2 -29 -8 -56 -15 -60 -6 -4 3
-6 19 -5 l30 2 -4 -130 c-2 -71 -7 -138 -12 -147 -5 -10 -5 -19 0 -22 5 -3 12
2 15 11 6 15 8 15 16 3 12 -19 13 -43 2 -36 -5 3 -9 -1 -9 -8 0 -11 5 -11 26
0 14 7 34 15 44 18 9 3 17 11 17 17 0 9 -3 9 -14 0 -11 -9 -15 -5 -20 20 -8
40 -8 133 0 153 3 9 11 16 16 16 5 0 23 9 38 20 l28 20 4 -43 c3 -28 0 -45 -9
-50 -8 -5 -11 -17 -7 -33 5 -18 2 -24 -9 -24 -23 0 -28 15 -17 45 6 15 6 24 1
20 -5 -3 -12 5 -14 17 -2 13 -3 -1 -2 -29 1 -29 -1 -53 -6 -53 -5 0 -9 -4 -9
-10 0 -5 6 -7 13 -4 10 3 14 -5 14 -28 0 -18 1 -80 2 -138 2 -58 -1 -116 -6
-129 -5 -13 -8 -35 -5 -48 4 -19 10 -23 31 -21 23 3 26 7 23 40 -5 51 5 65
109 159 51 45 87 80 81 78 -6 -2 -51 -41 -101 -87 -83 -76 -91 -81 -101 -63
-5 11 -10 60 -10 109 0 103 -5 96 115 164 213 121 256 129 246 51 -1 -7 3 -22
9 -32 8 -16 6 -22 -7 -31 -17 -11 -17 -11 0 -6 9 3 24 9 32 12 25 10 17 -9
-16 -40 l-31 -29 23 -13 c20 -10 30 -9 62 8 22 11 41 17 44 14 3 -2 -13 -14
-34 -24 -37 -19 -183 -129 -183 -137 0 -3 7 -2 15 1 8 4 15 10 15 16 0 5 4 7
9 4 5 -3 11 1 15 9 3 8 12 15 20 15 7 0 17 7 20 16 3 8 11 12 17 8 7 -4 9 -3
6 3 -11 18 40 45 62 33 11 -5 23 -10 28 -10 4 1 -3 7 -16 14 -20 11 -21 14 -6
20 9 3 22 3 27 -1 7 -3 8 -1 4 5 -4 6 6 18 24 27 16 8 30 18 30 21 0 2 -9 0
-19 -6 -26 -13 -30 -13 -27 5 3 18 16 32 16 16 0 -8 5 -9 19 -1 25 13 34 13
26 0 -3 -6 1 -7 9 -4 9 3 13 11 10 16 -4 6 1 8 12 5 11 -4 30 1 44 9 14 9 17
13 8 10 -10 -3 -18 -1 -18 3 0 5 -18 5 -41 0 -22 -5 -44 -7 -50 -4 -5 4 -9 -2
-9 -11 0 -10 -3 -14 -7 -11 -3 4 -13 1 -21 -5 -11 -10 -17 -9 -26 5 -10 12
-15 14 -24 5 -9 -9 -12 -8 -12 5 0 10 -8 17 -19 17 -20 0 -37 32 -26 49 11 19
-6 60 -22 54 -13 -5 -13 -3 -3 16 6 13 9 25 6 29 -3 3 -6 0 -6 -6 0 -7 -48
-36 -107 -66 -60 -30 -137 -72 -173 -94 -36 -22 -67 -38 -69 -37 -6 7 28 48
54 65 15 10 22 20 17 24 -5 3 -13 -2 -17 -12 -7 -15 -9 -14 -15 8 -13 42 -11
87 5 100 12 10 15 10 15 0 0 -7 9 -2 19 11 l19 24 -1 -66 c-2 -50 1 -65 11
-62 13 6 14 13 12 96 -1 36 4 65 12 75 11 13 11 15 -2 8 -8 -4 -6 0 5 10 18
15 18 16 1 10 -16 -6 -18 -2 -13 39 4 25 2 45 -4 45 -5 0 -9 -10 -9 -23 0 -16
-9 -28 -27 -37 -16 -8 -43 -25 -60 -38 -33 -23 -45 -19 -20 7 8 9 8 12 0 7 -6
-3 -14 0 -16 6 -3 7 -6 -1 -6 -18 -1 -29 -15 -44 -40 -44 -9 0 -6 74 4 90 4 6
18 15 31 20 20 8 24 16 23 52 -1 41 -1 41 -9 14 -5 -16 -7 -33 -4 -37 4 -7
-26 -29 -39 -29 -3 0 -3 19 0 43 3 23 3 39 -1 36 -7 -6 -14 -44 -15 -81 -1 -9
-10 -20 -21 -23 -11 -3 -20 -11 -20 -18 0 -8 3 -8 12 1 19 19 24 14 23 -28 0
-23 -7 -47 -17 -56 -15 -15 -17 -9 -23 72 -6 63 -4 89 4 92 6 2 11 10 11 18 0
9 -4 12 -10 9 -5 -3 -10 -1 -10 4 0 6 6 11 14 11 8 0 18 5 21 10 8 14 -16 12
-40 -3z"/>
<path d="M2520 2650 c0 -5 -9 -10 -21 -10 -11 0 -17 -5 -14 -10 3 -6 4 -19 0
-30 -5 -16 -17 -20 -73 -23 l-67 -3 69 -2 c61 -2 67 -4 61 -19 -4 -10 -9 -25
-12 -35 -6 -19 -32 -28 -84 -28 -35 0 -37 1 -42 43 -5 30 -2 45 8 53 11 8 12
13 3 22 -9 9 -9 12 0 12 7 0 12 3 12 8 0 4 -19 8 -43 8 -30 1 -36 -1 -22 -6
17 -7 17 -9 3 -9 -19 -1 -26 -21 -8 -21 25 0 6 -19 -22 -23 l-33 -4 33 -1 c27
-2 32 -6 32 -26 0 -44 -10 -56 -49 -57 -20 -1 -47 -5 -61 -9 -47 -15 62 -10
354 15 39 3 77 10 85 16 11 6 -11 7 -60 3 l-77 -7 8 44 c4 23 6 50 3 58 -3 10
-2 12 4 5 12 -17 49 0 56 25 4 17 1 21 -19 21 -13 0 -24 -4 -24 -10z"/>
<path d="M1570 2299 c-14 -6 -33 -8 -43 -5 -11 2 -16 2 -13 -1 10 -11 -28 -32
-57 -33 -16 0 -26 -4 -22 -10 5 -9 -16 -15 -38 -11 -5 1 -6 -3 -2 -8 3 -6 -9
-18 -26 -27 -25 -13 -37 -14 -58 -5 -25 11 -25 11 -6 -4 17 -14 18 -17 5 -25
-8 -5 -25 -10 -38 -10 -13 0 -21 -4 -17 -10 3 -5 -7 -17 -22 -27 -15 -9 -41
-28 -57 -40 -19 -16 -36 -22 -50 -18 -17 5 -18 4 -6 -4 13 -9 13 -12 1 -20 -8
-5 -19 -8 -25 -7 -6 2 -8 1 -3 -1 12 -8 -3 -23 -22 -23 -29 0 -68 36 -55 50 8
8 14 7 24 -5 7 -8 17 -15 22 -15 6 0 0 9 -13 19 l-24 20 -56 -55 c-30 -30 -57
-52 -60 -49 -3 3 -21 -14 -39 -37 -19 -23 -29 -39 -24 -35 6 3 27 -5 47 -19
39 -26 49 -41 20 -29 -10 4 -24 8 -31 9 -8 1 -17 7 -20 12 -14 20 -46 5 -62
-29 -8 -15 -5 -14 11 6 21 27 22 27 48 11 41 -26 52 -44 40 -66 -7 -14 -16
-17 -32 -12 -22 6 -22 6 -2 -10 19 -15 19 -15 -10 -17 -25 -1 -27 -2 -9 -7 32
-10 15 -52 -18 -46 -23 5 -23 5 1 -6 13 -6 25 -9 26 -8 1 2 16 31 33 65 45 90
94 154 165 215 80 69 133 108 146 108 6 0 11 4 11 9 0 23 249 160 365 202 28
9 43 18 35 18 -8 0 -26 -5 -40 -10z"/>
<path d="M431 2114 c-1 -23 -26 -38 -43 -27 -6 3 -8 1 -5 -4 6 -9 -32 -43 -47
-43 -3 0 -7 17 -9 38 -3 33 -4 32 -3 -7 0 -27 -5 -46 -12 -49 -7 -2 -12 2 -12
9 0 8 -5 5 -13 -5 -12 -16 -17 -17 -37 -6 -19 10 -24 10 -33 -5 -6 -11 -12
-13 -16 -7 -3 6 -11 0 -18 -14 l-12 -25 36 21 c28 16 38 18 50 8 12 -9 16 -9
23 2 15 24 22 4 9 -24 -7 -14 -33 -40 -59 -56 -53 -34 -83 -64 -86 -86 -2 -12
1 -13 12 -3 7 6 12 15 9 19 -5 7 18 30 45 45 10 6 9 1 -3 -13 -19 -21 -18 -21
30 -51 62 -39 103 -34 153 19 19 20 52 49 73 64 20 16 37 33 37 38 0 5 -4 6
-10 3 -5 -3 -10 3 -10 14 0 11 9 25 20 31 11 6 25 20 31 33 l12 22 -25 -22
c-13 -13 -27 -23 -31 -23 -4 0 -21 -15 -37 -32 -27 -30 -29 -31 -30 -11 0 13
15 34 38 53 20 18 28 28 17 22 -11 -6 -29 -20 -39 -31 -11 -12 -26 -21 -35
-22 -10 0 -12 -2 -3 -6 20 -8 14 -27 -23 -70 -19 -23 -35 -46 -35 -51 0 -5 -8
-16 -17 -23 -16 -12 -16 -12 -6 1 9 13 5 15 -28 16 -39 0 -40 0 -14 -13 14 -8
23 -18 20 -23 -7 -11 -85 30 -85 44 0 4 7 6 14 3 10 -4 13 -1 9 9 -7 20 45 74
71 74 16 0 18 2 7 9 -20 13 -4 55 17 46 10 -4 26 -9 37 -11 11 -2 8 1 -7 7
-16 6 -28 15 -28 21 0 6 7 8 15 4 9 -3 15 0 15 9 0 8 5 15 11 15 6 0 22 9 36
20 30 24 71 26 79 5 4 -8 16 -15 28 -15 21 1 21 1 1 16 -11 8 -19 19 -18 23 1
4 -11 5 -27 3 -21 -3 -29 1 -33 15 -4 15 -5 15 -6 -3z"/>
<path d="M1653 2015 c-36 -15 -47 -47 -14 -38 23 6 61 -29 61 -56 0 -11 4 -22
9 -25 5 -4 7 3 4 14 -4 16 -2 19 11 14 10 -4 15 -13 12 -20 -3 -8 -1 -14 4
-14 5 0 7 -7 3 -16 -5 -13 -7 -13 -14 -2 -5 7 -9 8 -9 2 0 -13 33 -44 46 -44
5 0 1 6 -8 13 -10 8 -13 18 -9 26 5 7 6 22 3 33 -5 20 -4 20 22 3 30 -20 34
-30 9 -21 -13 5 -11 0 6 -18 28 -29 18 -35 -13 -8 -21 17 -21 17 -3 -4 9 -11
14 -24 10 -27 -3 -4 -1 -7 5 -7 6 0 17 7 26 15 8 8 21 15 29 15 18 0 27 22 26
58 l-1 27 -7 -25 c-4 -15 -10 -20 -14 -13 -4 6 -5 18 -1 26 3 8 -9 30 -29 51
-36 38 -57 46 -57 21 0 -8 5 -15 10 -15 6 0 10 -6 10 -14 0 -8 7 -16 15 -20 8
-3 15 -13 15 -23 -1 -16 -2 -16 -13 -3 -7 8 -21 20 -32 26 -14 8 -19 21 -18
42 2 23 -2 31 -20 36 -31 8 -37 7 -74 -9z"/>
<path d="M790 1460 c0 -5 -7 -10 -15 -10 -8 0 -15 -4 -15 -9 0 -5 -19 -8 -42
-7 -23 0 -43 -4 -45 -10 -2 -6 -28 -9 -64 -8 -33 2 -57 -1 -54 -6 3 -5 -4 -11
-15 -15 -11 -4 -27 -20 -36 -36 -15 -30 -15 -30 6 -19 30 16 34 8 9 -19 -14
-15 -22 -37 -23 -62 0 -31 -5 -39 -19 -39 -10 0 -17 6 -16 13 3 24 -1 37 -11
37 -7 0 -8 -14 -4 -37 8 -45 11 -48 46 -57 25 -6 27 -4 20 16 -14 38 -4 55 26
51 l27 -3 -27 11 c-62 24 -20 79 61 79 32 0 50 4 46 10 -3 6 -1 10 4 10 6 0
11 -4 11 -10 0 -5 10 -10 23 -10 18 0 19 2 7 10 -13 8 -12 10 3 10 9 0 17 -7
17 -15 0 -14 13 -20 34 -16 5 1 12 -3 16 -9 4 -7 7 2 6 19 -1 25 -3 28 -12 16
-9 -13 -13 -13 -30 0 -10 8 -30 15 -43 15 l-25 0 29 30 c35 37 42 37 76 4 17
-16 29 -22 33 -15 4 6 1 11 -7 11 -8 0 -20 7 -27 15 -10 12 -9 15 7 15 11 0
25 11 31 25 7 15 8 25 2 25 -6 0 -10 -4 -10 -10z"/>
<path d="M4282 1340 c-1 -25 -8 -54 -15 -65 -23 -33 -80 -141 -65 -123 7 9 18
25 25 35 10 16 11 15 6 -7 -4 -19 -3 -22 7 -14 6 7 13 29 15 50 2 20 13 46 24
57 19 20 20 20 45 -9 14 -16 42 -60 62 -97 28 -55 33 -71 24 -80 -10 -9 -11
-9 -6 1 11 18 -4 37 -16 21 -7 -11 -8 -9 -4 5 7 20 -35 105 -65 132 -17 16
-18 14 -17 -32 0 -27 3 -43 6 -35 3 10 9 7 19 -10 10 -17 12 -18 7 -4 -3 11
-8 31 -10 45 -3 18 1 14 16 -15 11 -22 20 -46 20 -52 0 -7 3 -13 8 -13 4 0 8
-14 9 -30 2 -32 -13 -41 -20 -12 -4 14 -5 14 -6 -3 -2 -14 -8 -6 -22 25 -17
40 -18 29 -2 -22 4 -13 0 -18 -16 -18 -20 0 -21 5 -21 97 0 71 -3 94 -11 86
-6 -6 -13 -31 -14 -54 -3 -30 -1 -39 6 -29 10 15 4 -40 -8 -85 l-6 -20 -8 20
c-7 19 -8 19 -8 -2 -1 -17 7 -25 32 -31 17 -5 37 -6 42 -1 6 4 36 10 68 14
l57 7 0 -60 c0 -51 3 -60 18 -58 9 0 16 -5 14 -11 -1 -7 8 -13 19 -13 18 0 19
3 9 15 -6 8 -20 17 -31 20 -10 4 -19 13 -19 21 0 11 10 9 45 -8 29 -14 41 -25
33 -29 -7 -4 2 -7 20 -7 31 1 47 18 17 18 -9 0 -38 11 -65 25 -47 24 -50 27
-50 65 0 22 -4 40 -8 40 -5 0 -19 23 -32 51 -12 28 -44 79 -71 114 -29 38 -49
76 -52 96 -3 29 -4 28 -5 -11z"/>
<path d="M980 1035 c-12 -19 -27 -35 -33 -35 -7 0 -6 -4 3 -10 13 -9 13 -10 0
-11 -8 -1 -19 -1 -23 0 -4 1 -17 -4 -28 -10 -18 -9 -20 -8 -17 13 2 13 9 22
16 20 9 -2 11 4 7 18 -5 15 -3 18 9 14 9 -3 16 -1 16 5 0 6 -9 11 -20 11 -14
0 -22 -11 -31 -38 -6 -21 -32 -69 -58 -107 -44 -64 -53 -72 -102 -87 -61 -20
-139 -59 -139 -70 0 -13 9 -10 40 13 16 12 36 19 44 16 9 -4 16 -2 16 3 0 6 5
10 11 10 22 0 98 41 108 57 5 10 13 15 16 11 11 -10 -37 -67 -57 -67 -9 -1
-19 -5 -22 -10 -3 -5 -25 -14 -49 -20 -25 -6 -50 -18 -58 -28 -13 -15 -12 -15
11 -1 14 9 48 22 77 29 40 10 60 22 85 52 79 93 135 146 163 152 43 9 58 19
61 39 2 14 0 15 -12 5 -11 -9 -14 -9 -14 0 0 7 -5 9 -12 5 -7 -4 -8 -3 -4 5 4
6 11 9 16 6 5 -3 11 4 15 15 7 23 15 25 35 8 12 -11 12 -10 1 5 -21 27 -47 20
-71 -18z"/>
<path d="M413 1011 c-1 -13 4 -17 15 -14 10 2 26 -4 37 -14 21 -18 38 -25 63
-26 7 0 11 -4 10 -9 -2 -5 -7 -9 -11 -8 -4 0 -22 -13 -39 -29 -24 -22 -35 -27
-41 -18 -5 7 -6 3 -2 -10 4 -14 2 -23 -4 -23 -6 0 -11 7 -11 15 0 8 -3 14 -7
13 -5 -1 -32 10 -61 26 -44 22 -51 30 -42 42 7 8 8 14 2 14 -5 0 -15 -7 -22
-15 -7 -8 -23 -15 -36 -15 -12 0 -25 -4 -28 -9 -3 -4 5 -6 19 -4 32 7 84 -12
119 -42 16 -14 33 -25 38 -25 4 0 8 -4 8 -10 0 -19 51 -121 58 -116 5 3 9 -10
10 -29 2 -31 0 -34 -30 -37 -18 -2 4 -5 50 -5 70 -1 93 -6 138 -29 66 -33 74
-44 37 -45 -16 -1 -7 -5 22 -9 54 -8 69 -5 39 7 -11 5 -43 24 -72 43 -38 25
-52 41 -52 58 0 13 -4 21 -10 17 -5 -3 -7 -12 -3 -20 10 -28 -27 -16 -39 13
l-11 27 -7 -30 c-4 -16 -8 -25 -9 -18 0 7 -7 10 -15 7 -9 -4 -16 6 -20 30 -4
20 -11 36 -16 36 -6 0 -10 7 -10 16 0 14 2 15 18 3 15 -13 16 -12 3 3 -7 10
-17 16 -21 13 -5 -3 -11 -1 -15 5 -3 5 -1 10 5 10 6 0 9 4 6 9 -8 13 12 63 22
57 5 -3 17 -34 27 -71 11 -36 23 -65 27 -65 11 0 10 11 -5 41 -8 14 -14 40
-15 59 0 18 -7 37 -14 41 -7 5 -9 9 -4 9 5 0 3 6 -3 13 -6 8 -8 17 -4 20 9 9
53 -41 53 -60 0 -9 3 -13 6 -10 4 4 1 21 -7 39 -11 27 -11 32 1 36 8 3 24 15
35 26 12 12 26 21 32 19 5 -2 16 3 23 12 19 23 -1 39 -51 40 -36 1 -39 0 -23
-12 21 -16 31 -16 39 -3 3 6 11 10 16 10 6 0 8 -4 5 -9 -4 -5 -1 -12 4 -14 6
-3 5 -4 -2 -3 -7 2 -31 -12 -52 -31 -47 -39 -63 -43 -40 -8 9 14 23 25 30 25
8 0 14 5 14 11 0 5 -4 8 -9 5 -5 -3 -14 1 -21 9 -14 17 -35 21 -25 5 3 -5 2
-17 -3 -27 -9 -14 -11 -14 -21 5 -9 17 -9 22 0 22 7 0 10 3 6 6 -3 3 -12 2
-19 -2 -22 -14 -36 -13 -57 7 -25 23 -26 23 -28 0z"/>
<path d="M3963 840 c0 -47 2 -75 4 -62 2 12 11 22 20 22 9 0 13 -6 9 -15 -4
-12 -2 -13 14 -3 27 17 42 0 47 -51 4 -44 -6 -52 -28 -23 -12 15 -12 16 2 5
13 -10 16 -10 16 1 0 8 -7 13 -16 11 -9 -1 -15 -8 -13 -14 2 -12 -30 -15 -41
-4 -4 3 0 17 8 30 17 25 5 32 -15 8 -16 -19 -5 -61 17 -68 10 -2 27 -8 38 -12
13 -4 12 -1 -5 9 -14 8 -19 15 -12 16 20 0 53 -20 47 -29 -3 -5 1 -11 9 -14
11 -4 14 14 15 97 l2 102 -55 17 c-41 13 -56 23 -59 40 -2 12 -4 -16 -4 -63z"/>
<path d="M5437 720 c19 -22 20 -27 8 -43 -17 -23 -64 -16 -91 14 -9 10 -21 19
-25 19 -22 0 46 -50 75 -55 28 -6 36 -3 45 14 7 12 19 21 28 21 12 0 8 -9 -17
-35 -38 -39 -54 -42 -90 -19 l-25 16 24 -21 c34 -31 68 -26 107 13 l35 35 42
-15 c74 -25 84 -34 106 -93 12 -31 34 -71 51 -90 16 -18 30 -44 30 -57 0 -29
-30 -96 -48 -107 -17 -11 -54 -96 -46 -108 14 -22 -9 -5 -46 35 l-41 44 -110
-71 c-98 -64 -108 -72 -87 -80 12 -4 43 -6 68 -4 l45 3 -52 2 c-29 1 -53 6
-53 11 0 5 52 9 115 10 73 0 114 -3 110 -9 -14 -23 15 -7 36 19 19 24 27 28
44 20 18 -9 19 -9 3 4 -10 8 -18 19 -18 24 0 21 32 73 57 93 14 11 21 20 15
20 -7 0 -6 12 4 35 7 19 14 44 14 55 0 14 4 19 12 14 7 -5 -7 15 -31 44 -24
29 -42 55 -39 57 3 3 17 -8 32 -25 14 -17 26 -29 26 -25 0 4 -16 25 -36 48
-20 23 -42 57 -48 76 -6 19 -18 37 -26 41 -8 4 -25 12 -37 18 -13 7 -32 12
-43 12 -29 0 -75 31 -60 40 8 5 6 9 -5 13 -9 4 -14 3 -11 -2 12 -18 -27 -21
-48 -4 -20 17 -20 17 1 -7z"/>
<path d="M3884 637 c-9 -11 -17 -29 -39 -92 -5 -13 -4 -16 2 -7 7 10 13 8 27
-7 14 -15 16 -26 9 -47 -12 -36 -38 -47 -29 -13 l6 24 -11 -22 c-13 -25 -29
-30 -29 -10 0 8 -3 8 -9 -2 -11 -17 -91 -7 -103 12 -6 9 -8 9 -8 0 0 -7 -7
-13 -15 -13 -11 0 -14 7 -10 28 5 26 5 26 -6 5 -13 -25 -34 -30 -42 -10 -4 10
-6 10 -6 0 -1 -7 -10 -13 -21 -13 -14 0 -18 5 -13 18 5 14 3 15 -8 5 -19 -18
-29 -16 -23 5 5 16 5 16 -6 0 -6 -10 -18 -18 -25 -18 -8 0 -15 8 -16 18 0 10
-3 12 -6 5 -7 -19 -33 -16 -34 5 0 10 -3 12 -6 5 -7 -19 -23 -16 -23 4 0 15
-2 14 -14 -3 -14 -18 -15 -18 -25 6 -7 18 -10 20 -10 8 -1 -18 -21 -26 -21 -9
0 4 -12 6 -26 3 -19 -3 -25 -1 -20 7 5 8 0 8 -17 2 -29 -11 -38 -6 -30 17 5
15 4 15 -8 0 -10 -11 -23 -15 -41 -11 -24 4 -27 9 -23 32 5 25 5 25 -5 3 -7
-18 -15 -21 -35 -16 -14 3 -25 2 -25 -3 0 -4 -18 -19 -40 -33 -40 -25 -51 -45
-28 -52 6 -2 8 -10 4 -16 -17 -27 -26 -8 -28 56 l-1 67 -6 -65 -6 -65 32 -18
c18 -9 77 -29 130 -43 54 -14 102 -30 107 -35 16 -14 34 -10 39 9 4 16 5 16 6
0 1 -22 41 -25 41 -3 0 16 12 18 48 9 12 -4 22 -14 22 -24 0 -12 10 -20 31
-24 46 -9 52 -8 45 10 -5 14 -4 15 9 4 8 -7 12 -16 9 -21 -3 -5 3 -9 12 -9 10
0 31 -4 48 -10 17 -5 85 -21 151 -35 161 -35 185 -43 186 -63 1 -9 7 3 15 27
15 48 11 70 -5 30 -10 -24 -10 -24 -10 -1 -1 18 -7 22 -37 22 -22 0 -33 -4
-29 -10 4 -6 15 -8 26 -5 12 4 19 2 19 -8 0 -9 -9 -12 -30 -9 -20 3 -30 10
-30 22 0 24 -137 50 -152 29 -8 -11 -9 -10 -5 2 4 12 -3 19 -26 24 -23 6 -27
9 -14 12 11 3 16 11 13 18 -3 8 0 15 6 17 6 2 4 11 -6 21 -20 20 -38 22 -35 5
1 -7 0 -20 -1 -28 -2 -8 -6 5 -9 30 -4 25 -5 51 -3 57 6 20 21 5 15 -15 -4
-18 31 -42 62 -42 20 0 19 -7 -6 -41 -20 -28 -20 -29 -1 -29 20 0 36 30 33 60
-2 13 -1 13 8 0 17 -24 13 -58 -6 -63 -11 -3 -8 -5 9 -6 18 -1 31 6 38 20 7
11 14 18 17 16 2 -3 0 -15 -7 -26 -10 -19 -8 -21 25 -21 19 0 35 5 35 10 0 6
5 10 11 10 6 0 9 -7 5 -15 -3 -8 -2 -15 2 -15 4 0 24 -4 45 -9 35 -8 37 -7 43
18 11 51 57 171 65 171 5 0 6 -8 3 -17 -5 -15 -3 -15 10 1 20 24 20 31 1 50
-8 8 -15 23 -15 34 0 11 -7 22 -15 26 -13 5 -14 2 -4 -16 10 -19 9 -20 -10
-15 -18 4 -20 3 -11 -8 6 -7 8 -25 4 -41 l-7 -27 -21 24 c-12 14 -30 28 -39
32 -14 5 -12 -1 8 -28 15 -18 32 -36 38 -38 7 -3 -9 -5 -35 -5 -53 0 -59 4
-47 33 8 19 8 19 15 -2 3 -13 10 -23 15 -23 15 0 10 13 -21 60 -16 25 -30 54
-29 65 l0 20 9 -20 c5 -11 9 -18 10 -15 3 7 8 90 7 90 -1 -1 -7 -6 -13 -13z
m-484 -144 c0 -3 -8 -16 -17 -27 -18 -21 -18 -21 5 -2 12 11 22 16 22 11 0 -4
6 -2 13 4 8 6 17 7 21 3 8 -8 14 -9 52 -11 22 -1 25 -3 14 -16 -7 -8 -8 -15
-2 -15 5 0 14 6 20 13 12 14 92 11 92 -3 0 -5 3 -16 7 -26 4 -11 3 -15 -5 -10
-6 3 -14 2 -17 -4 -4 -6 -3 -9 2 -8 4 2 9 -1 11 -6 2 -9 -14 -15 -45 -18 -23
-2 7 -38 32 -38 28 0 33 -15 9 -24 -8 -3 -12 -2 -9 3 3 5 -7 11 -21 13 -15 2
-29 10 -30 18 -10 45 -8 55 6 52 8 -2 11 0 7 4 -15 15 -37 12 -47 -7 -9 -15
-7 -19 6 -19 15 0 16 -2 2 -17 -9 -10 -13 -24 -10 -32 3 -9 0 -11 -8 -6 -6 4
-10 15 -7 25 3 11 -1 21 -9 24 -8 3 -14 0 -14 -7 0 -7 -9 -1 -20 13 -11 14
-20 21 -20 16 0 -5 -7 -3 -15 4 -8 7 -12 17 -8 24 3 6 -3 3 -14 -7 -14 -12
-23 -15 -28 -7 -3 5 -11 7 -17 4 -7 -4 -8 -2 -4 4 4 7 3 12 -3 12 -12 0 -9 18
7 48 12 20 42 31 42 15z"/>
<path d="M4423 540 c-18 -11 -38 -17 -45 -15 -31 11 -36 -9 -31 -113 l6 -102
33 0 c19 0 34 5 34 11 0 5 5 7 10 4 6 -3 10 -1 10 4 0 6 8 11 18 11 14 0 15
-2 2 -10 -13 -8 -12 -10 3 -10 16 0 17 10 15 117 -2 67 -7 117 -13 119 -5 1
-25 -6 -42 -16z"/>
<path d="M322 416 c16 -14 36 -30 45 -35 17 -10 17 -12 -2 -27 -19 -16 -14
-16 27 1 22 9 36 -21 19 -38 -13 -13 -15 -43 -3 -51 4 -2 8 8 7 22 0 20 5 27
20 27 26 0 32 -35 9 -52 -17 -12 -17 -13 4 -13 25 0 70 18 95 38 9 9 17 11 17
6 1 -5 2 -32 3 -60 3 -60 19 -84 56 -83 24 1 24 1 -6 10 -19 6 -33 16 -33 25
0 11 6 14 16 10 9 -3 32 -6 51 -6 35 0 36 0 18 -20 -10 -11 -14 -20 -9 -20 22
1 33 19 38 68 5 48 4 52 -10 38 -26 -27 -104 -17 -104 13 0 14 10 16 55 14 48
-1 55 1 55 18 0 11 -7 19 -16 19 -8 0 -13 -4 -9 -9 8 -13 -29 -23 -58 -16 -23
6 -24 9 -15 36 8 24 7 34 -7 49 -22 24 -33 25 -74 4 -17 -9 -37 -17 -44 -18
-7 -1 -17 -5 -24 -9 -6 -4 -19 0 -27 9 -9 8 -16 13 -16 9 0 -3 -11 2 -25 11
-14 9 -25 24 -25 33 0 14 -2 14 -10 1 -5 -8 -10 -10 -10 -4 0 7 -8 15 -17 18
-11 4 -7 -3 9 -18z"/>
<path d="M990 420 c-23 -7 -22 -8 10 -9 39 -1 180 -42 180 -53 0 -3 -12 -11
-27 -17 l-28 -11 28 5 c38 7 34 -12 -5 -25 l-33 -10 33 5 c36 5 43 -9 12 -25
-15 -8 -26 -7 -42 1 -22 12 -68 21 -68 14 0 -2 16 -12 36 -24 19 -12 32 -16
28 -9 -5 8 -2 9 10 5 10 -4 26 -2 37 3 16 9 19 7 19 -9 0 -24 36 -51 68 -51
31 0 62 17 62 34 0 8 6 16 13 19 11 4 133 -57 232 -117 l30 -18 -25 20 c-14
12 -58 40 -99 62 -137 77 -151 88 -151 118 0 37 -15 60 -23 37 -4 -9 -3 -13 3
-10 6 3 10 0 10 -8 0 -8 -10 -19 -22 -26 -13 -6 -15 -9 -5 -7 19 6 18 6 20
-44 2 -29 -2 -36 -25 -44 -31 -11 -78 5 -78 26 0 9 15 13 48 11 l47 -1 -45 6
c-31 5 -46 12 -48 25 -2 9 2 17 8 17 9 0 9 5 -1 17 -10 12 -11 17 -2 20 7 2 9
11 6 20 -5 13 -2 15 15 11 12 -4 22 -3 22 2 0 12 -30 34 -37 26 -3 -3 0 -6 8
-6 11 0 11 -2 -1 -10 -21 -14 -57 -12 -93 4 -94 40 -88 39 -127 26z"/>
<path d="M792 208 c-10 -13 -15 -59 -13 -134 l1 -42 55 3 c41 2 55 -1 57 -13
2 -11 7 -9 22 7 15 16 16 20 4 16 -13 -5 -15 3 -14 55 2 41 -1 57 -8 50 -23
-23 -106 -7 -106 21 0 13 5 17 18 13 13 -5 14 -4 3 4 -7 5 -10 15 -7 21 10 15
1 14 -12 -1z"/>
</g>
</svg>
