<?xml version="1.0" standalone="no"?>
<!DOCTYPE svg PUBLIC "-//W3C//DTD SVG 20010904//EN"
 "http://www.w3.org/TR/2001/REC-SVG-20010904/DTD/svg10.dtd">
<svg version="1.0" xmlns="http://www.w3.org/2000/svg"
 width="768.000000pt" height="543.000000pt" viewBox="0 0 768.000000 543.000000"
 preserveAspectRatio="xMidYMid meet">
<metadata>
Created by potrace 1.16, written by Peter Selinger 2001-2019
</metadata>
<g transform="translate(0.000000,543.000000) scale(0.100000,-0.100000)"
fill="#000000" stroke="none">
<path d="M6531 5109 c-12 -11 -24 -34 -28 -50 -8 -40 -18 -45 -101 -53 -70 -6
-254 -58 -279 -78 -18 -14 -16 -39 5 -63 15 -18 59 -40 252 -128 30 -14 66
-37 79 -51 18 -20 34 -26 64 -26 l40 0 -6 35 c-5 30 -3 35 13 35 10 0 21 -9
25 -19 9 -28 45 -71 59 -71 8 0 16 18 19 43 3 24 11 55 16 70 10 25 15 27 67
27 36 0 92 -11 151 -30 143 -46 153 -43 178 54 25 94 19 132 -28 184 -27 29
-54 28 -144 -8 -42 -17 -93 -30 -118 -30 -39 0 -43 2 -48 29 -4 20 -28 46 -83
90 -42 33 -84 61 -93 61 -10 0 -27 -9 -40 -21z m123 -59 c58 -45 66 -55 66
-84 l0 -34 58 -4 c49 -5 69 -1 141 29 96 40 118 37 147 -18 15 -29 15 -41 4
-101 -21 -108 -20 -107 -136 -70 -82 27 -115 32 -191 32 -87 0 -98 -3 -172
-38 -43 -20 -85 -34 -92 -31 -8 4 -36 12 -64 18 -97 22 -303 136 -283 156 12
12 179 64 239 75 36 7 99 9 144 6 76 -5 78 -5 48 9 -18 8 -33 17 -33 20 0 13
41 85 49 85 4 0 38 -23 75 -50z"/>
<path d="M5335 5038 c-9 -6 -28 -34 -41 -64 l-24 -54 -64 0 c-42 0 -93 -9
-143 -25 -98 -31 -122 -31 -152 0 -44 47 -91 22 -118 -60 -9 -28 -13 -30 -74
-36 -67 -6 -285 -64 -306 -81 -20 -16 -15 -42 10 -65 12 -12 87 -51 167 -87
93 -42 148 -73 154 -86 11 -25 38 -33 77 -25 28 6 31 10 25 36 -5 24 -2 29 14
29 13 0 27 -14 40 -40 20 -39 44 -59 56 -47 3 3 12 35 21 71 l15 66 58 0 c36
0 94 -11 155 -30 148 -46 164 -41 165 43 0 50 25 25 28 -29 4 -49 4 -49 16
-19 l12 29 22 -45 c12 -25 38 -60 58 -79 l36 -35 -16 33 c-9 17 -20 32 -25 32
-5 0 -19 19 -30 43 -22 44 -21 96 2 125 5 7 10 22 11 35 1 20 6 22 62 20 37
-1 100 -14 158 -32 112 -36 118 -37 138 -13 16 18 48 128 48 163 0 35 -28 84
-59 102 -32 18 -45 16 -167 -35 -68 -27 -118 -20 -132 21 -5 15 -32 45 -58 67
-27 21 -57 46 -67 56 -25 22 -50 27 -72 16z m113 -79 c50 -40 62 -55 62 -78 0
-21 6 -30 23 -35 48 -13 105 -5 172 24 81 34 106 37 127 13 37 -43 40 -60 22
-143 -21 -94 -22 -95 -147 -55 -62 20 -99 25 -179 25 -91 0 -107 -3 -164 -30
-65 -31 -81 -44 -64 -55 15 -9 2 -25 -21 -25 -21 0 -25 10 -8 27 12 12 10 14
-86 38 -59 16 -200 87 -246 124 -32 26 -23 34 91 73 85 28 109 32 218 34 128
2 159 8 98 20 -20 3 -35 9 -34 13 2 3 12 23 23 44 10 20 26 37 34 37 9 -1 44
-23 79 -51z m-549 -83 c10 -12 9 -20 -4 -39 -15 -24 -15 -26 11 -50 37 -35
246 -147 273 -147 12 0 38 -16 57 -36 30 -30 42 -35 73 -32 27 2 36 -1 36 -12
0 -21 -52 -18 -150 9 -52 14 -110 22 -166 22 -73 0 -92 -3 -134 -25 -26 -14
-54 -26 -60 -26 -19 0 -38 -27 -25 -35 16 -10 12 -22 -10 -28 -24 -6 -38 12
-19 23 16 10 -4 19 -106 49 -75 22 -245 117 -245 137 0 15 121 59 215 79 79
17 143 18 198 6 45 -11 51 5 7 21 -17 5 -29 13 -28 17 45 88 53 96 77 67z"/>
<path d="M6177 4669 c-10 -6 -30 -35 -44 -65 l-25 -54 -54 0 c-57 0 -163 -25
-258 -61 -102 -37 -69 -82 119 -165 81 -35 140 -67 156 -85 19 -21 34 -29 60
-29 49 0 64 12 50 39 -10 18 -9 22 5 28 12 4 21 0 28 -11 61 -104 75 -105 94
-11 8 39 15 72 17 73 2 2 38 1 79 -3 51 -5 76 -12 76 -20 0 -7 -16 -46 -35
-86 -64 -137 -86 -276 -78 -490 l5 -126 -107 -6 c-60 -4 -133 -7 -163 -7 l-56
0 29 30 c16 16 26 32 24 34 -3 3 -45 20 -94 39 -49 19 -91 39 -92 44 -6 16 81
46 106 38 15 -4 21 -2 21 9 0 22 -43 30 -87 16 -69 -22 -122 -60 -159 -113
-33 -48 -38 -46 -19 8 7 20 6 20 -9 1 -9 -11 -16 -27 -16 -36 0 -23 -50 -49
-148 -75 -153 -42 -187 -57 -190 -87 -2 -17 5 -33 18 -46 21 -19 274 -127 315
-134 45 -8 57 -95 31 -230 -8 -45 -11 -90 -6 -118 l7 -45 2 60 c2 33 10 102
19 153 l17 93 27 -20 c14 -12 34 -21 42 -21 14 0 13 7 -9 43 -14 24 -25 58
-25 76 0 38 -6 39 150 -10 119 -36 188 -50 196 -37 10 15 -5 24 -93 52 -45 15
-101 41 -125 59 l-43 31 39 9 c78 19 194 -20 292 -98 l26 -20 -16 -135 c-21
-178 -16 -186 22 -35 27 105 39 135 54 135 7 0 51 -12 98 -25 79 -23 120 -25
120 -5 0 8 -37 24 -140 59 l-55 18 2 49 c2 48 2 48 -9 16 -13 -38 -32 -37 -36
1 -2 20 5 36 27 58 19 19 31 41 31 57 0 43 11 70 28 74 10 3 53 1 97 -3 44 -4
82 -5 85 -3 14 15 -40 32 -115 39 -68 5 -87 11 -95 25 -6 12 -9 92 -7 202 4
197 12 239 67 373 48 114 42 110 132 85 93 -25 113 -19 121 37 3 21 11 57 18
81 11 35 11 48 0 75 -24 61 -24 61 32 100 63 44 94 46 193 16 111 -34 127 -45
120 -81 -5 -26 3 -44 52 -117 33 -47 64 -99 70 -116 l12 -30 -6 35 c-7 38 -26
80 -46 102 -38 41 -63 88 -68 128 -4 39 -9 47 -40 62 -19 9 -71 26 -115 37
-92 25 -123 19 -193 -34 -36 -28 -48 -32 -86 -28 -32 4 -58 -1 -102 -20 -112
-48 -136 -46 -183 21 -28 37 -142 133 -160 132 -3 0 -14 -5 -24 -11z m109 -80
c51 -41 64 -56 64 -79 0 -23 5 -29 31 -34 57 -11 94 -6 141 19 138 73 207 20
170 -130 -21 -84 -27 -87 -135 -50 -64 21 -93 25 -189 25 -84 -1 -118 -4 -133
-16 -11 -8 -37 -19 -58 -25 -36 -10 -39 -12 -33 -40 4 -24 2 -29 -14 -29 -22
0 -36 16 -18 22 17 6 0 28 -21 28 -51 0 -290 108 -321 145 -18 22 -7 30 95 67
84 30 99 32 217 33 125 0 158 7 98 20 -33 7 -37 16 -16 34 8 7 17 23 20 36 9
36 31 31 102 -26z m-301 -914 c41 -15 74 -33 72 -39 -5 -14 -72 -34 -117 -35
-19 0 -44 6 -54 14 -11 8 -35 15 -53 15 -18 0 -33 4 -33 9 0 4 16 29 36 55 35
47 36 47 54 28 10 -11 53 -32 95 -47z m-40 -90 c66 -14 146 -25 177 -25 50 0
60 -3 74 -25 12 -18 15 -36 10 -65 -6 -36 -3 -44 31 -81 l38 -42 -70 35 c-101
51 -156 60 -271 46 -51 -6 -94 -14 -94 -18 0 -4 18 -10 40 -14 24 -4 43 -14
50 -25 5 -11 19 -23 31 -26 11 -4 19 -9 16 -11 -2 -2 -42 9 -87 26 -46 16 -86
27 -88 25 -3 -3 2 -7 11 -11 12 -4 15 -13 11 -30 -3 -13 -1 -37 4 -54 17 -48
-5 -35 -33 19 -13 27 -35 57 -47 65 -27 19 -39 11 -12 -8 39 -29 2 -28 -63 1
-38 17 -105 46 -150 64 -77 32 -100 50 -88 69 6 9 184 70 275 94 75 20 97 19
235 -9z m431 -52 c-4 -21 -21 -57 -38 -81 -16 -24 -33 -54 -37 -68 l-6 -24
-36 30 c-33 26 -37 36 -41 87 -3 32 -9 66 -13 76 -6 15 1 17 85 17 l92 0 -6
-37z"/>
<path d="M3221 4534 c-11 -14 -23 -34 -26 -45 -4 -12 -25 -24 -62 -35 -65 -19
-72 -16 -176 54 -71 47 -86 49 -111 9 -11 -17 -3 -57 25 -124 11 -28 11 -39
-5 -82 -15 -43 -16 -54 -4 -78 19 -41 42 -40 111 6 66 45 109 61 115 43 13
-40 153 -165 175 -156 8 3 21 20 30 39 20 41 26 42 64 12 64 -52 58 -51 98
-16 34 31 38 31 76 20 29 -9 55 -9 92 -2 29 5 86 13 127 16 149 13 228 60 221
133 -2 21 -142 80 -253 107 -57 13 -158 28 -226 34 l-124 10 -39 41 c-46 47
-78 52 -108 14z m154 -67 c22 -8 81 -17 130 -21 128 -10 197 -23 303 -59 110
-37 149 -66 132 -98 -7 -11 -31 -29 -55 -40 -59 -26 -296 -60 -338 -48 -43 12
-137 12 -137 -1 0 -5 7 -10 15 -10 18 0 20 -17 3 -23 -17 -5 -68 30 -68 48 0
13 -21 25 -44 25 -7 0 -22 -21 -34 -46 -12 -25 -26 -44 -31 -42 -17 6 -121
109 -121 120 0 6 16 9 40 6 50 -5 51 8 3 29 -47 19 -121 12 -167 -17 -19 -11
-43 -20 -55 -20 -11 0 -26 -9 -33 -20 -7 -11 -19 -20 -26 -20 -23 0 -24 27 -3
73 26 57 26 73 2 118 -18 34 -25 59 -22 87 2 23 33 12 73 -28 47 -46 103 -65
164 -56 60 8 88 23 109 59 10 18 25 40 33 50 15 17 18 16 51 -17 20 -19 54
-41 76 -49z"/>
<path d="M1493 4488 c-6 -7 -16 -29 -22 -49 -25 -78 -96 -112 -173 -83 -24 9
-64 19 -90 21 l-48 5 0 -35 c0 -25 10 -47 35 -77 41 -49 43 -62 13 -90 -30
-28 -58 -25 -109 11 -121 84 -120 83 -137 72 -26 -15 -26 -59 -1 -125 21 -57
21 -61 5 -94 -9 -19 -16 -45 -16 -57 0 -26 26 -67 42 -67 7 0 39 18 73 40 33
22 75 42 92 46 26 5 31 3 37 -18 7 -23 125 -130 151 -136 13 -3 19 2 54 47
l18 25 44 -32 c52 -39 59 -39 89 -7 22 23 29 25 79 19 71 -7 324 22 368 43 38
18 73 62 73 91 0 22 -40 41 -200 98 -52 18 -96 40 -98 47 -5 22 27 41 68 42
39 1 79 16 227 86 106 51 144 100 115 146 -24 37 -340 42 -466 8 -66 -18 -103
-15 -159 15 -43 23 -51 24 -64 8z m62 -39 c40 -24 63 -23 245 6 104 17 301 17
343 0 26 -11 20 -42 -15 -80 -39 -41 -229 -125 -282 -125 -52 0 -83 -15 -90
-44 -8 -32 -18 -32 -64 -1 -42 29 -60 31 -68 10 -5 -11 -22 -15 -69 -15 -64 0
-93 13 -55 25 38 12 20 25 -34 25 -35 0 -58 5 -66 15 -7 8 -28 15 -46 15 -31
0 -37 -5 -56 -45 -25 -51 -48 -59 -48 -17 0 18 -10 38 -26 53 -15 14 -23 31
-21 41 3 11 0 18 -9 18 -8 0 -14 7 -14 15 0 24 57 19 70 -5 9 -17 21 -20 81
-20 104 0 124 14 163 113 8 20 17 37 20 37 3 0 21 -10 41 -21z m-160 -213 c25
-38 75 -55 192 -67 219 -21 453 -92 453 -137 0 -23 -35 -57 -73 -71 -38 -15
-221 -34 -324 -35 -71 -1 -85 -4 -104 -23 -21 -21 -24 -21 -49 -7 -14 9 -33
29 -43 46 -22 38 -36 33 -67 -25 -14 -26 -28 -47 -31 -47 -11 0 -129 113 -129
123 0 6 22 7 52 3 46 -6 50 -5 39 8 -34 40 -135 46 -206 11 -27 -14 -59 -25
-70 -25 -11 0 -26 -9 -33 -20 -7 -12 -17 -18 -22 -15 -16 10 -12 41 10 82 16
32 18 45 9 75 -5 21 -14 40 -19 43 -6 4 -10 24 -10 46 0 28 4 39 15 39 17 0
65 -43 65 -58 0 -5 25 -17 55 -27 48 -17 62 -18 111 -7 66 13 79 23 105 74 23
45 51 50 74 14z"/>
<path d="M5398 4449 c3 -21 -2 -40 -17 -59 -30 -42 -27 -74 12 -104 36 -29 39
-19 -31 -122 -61 -92 -76 -146 -76 -274 1 -94 6 -132 28 -210 33 -113 50 -365
25 -380 -14 -9 -13 -12 43 -193 18 -58 36 -96 42 -94 16 6 73 -80 103 -155 14
-34 28 -92 31 -127 l5 -64 -33 7 c-62 12 -79 30 -83 88 l-3 53 -2 -57 c-2 -53
-4 -58 -24 -59 l-23 0 23 -16 c16 -11 22 -26 23 -57 2 -31 3 -34 6 -13 3 16 8
27 13 25 5 -2 35 -33 68 -70 l59 -67 6 -107 c4 -59 8 -132 9 -163 1 -31 5 9 8
89 l5 145 29 -38 c32 -42 33 -51 21 -182 -5 -58 -4 -76 4 -65 6 8 11 40 11 70
1 95 14 95 57 0 21 -47 50 -109 65 -139 15 -30 25 -58 22 -63 -3 -4 -29 -9
-57 -9 l-52 -2 60 -7 c33 -4 80 -8 105 -8 l45 0 -37 12 c-46 14 -52 22 -112
161 -82 187 -145 285 -270 420 -30 32 -54 61 -52 62 2 2 38 -8 82 -23 182 -60
314 -170 393 -327 37 -74 75 -195 84 -271 2 -17 10 -32 17 -34 9 -3 11 1 6 14
-20 50 -19 92 5 126 32 46 190 218 200 218 20 0 -24 -205 -61 -283 -19 -40
-27 -47 -58 -53 -21 -4 -44 -11 -52 -16 -10 -6 -6 -7 15 -4 17 3 64 8 105 12
72 6 137 22 98 23 -33 2 -31 24 3 52 35 30 31 38 -9 15 -13 -7 -29 -23 -35
-37 -15 -28 -57 -39 -57 -14 0 8 15 53 32 98 30 74 33 92 33 187 0 58 -4 152
-8 209 l-9 104 64 -35 c56 -32 67 -43 98 -103 32 -63 62 -96 74 -84 3 3 -1 29
-9 59 -21 77 -19 90 9 90 32 0 48 -22 41 -57 -5 -27 -5 -27 5 -3 6 13 13 26
15 28 6 6 86 -49 92 -63 3 -8 9 -12 14 -9 5 3 36 -5 68 -16 58 -21 59 -23 69
-69 l10 -46 1 56 c1 41 7 64 22 83 l21 26 26 -20 c188 -139 242 -169 272 -150
20 12 4 27 -70 66 -73 38 -130 92 -130 123 0 9 20 36 45 58 31 27 45 48 45 65
0 53 37 58 157 21 54 -17 81 -11 51 11 -9 7 -60 23 -112 36 -53 14 -96 28 -96
33 0 4 11 29 24 55 77 155 100 299 91 575 l-7 208 56 163 c31 89 63 200 72
246 16 85 28 119 48 132 6 4 7 11 2 15 -13 13 -44 -34 -51 -80 -13 -83 -57
-242 -95 -346 -54 -148 -218 -618 -275 -786 -26 -77 -52 -146 -58 -153 -8 -10
-24 -12 -56 -7 -64 10 -66 13 -35 46 15 16 26 30 23 32 -2 2 -28 18 -56 36
-55 35 -65 57 -38 85 12 11 22 13 40 6 34 -13 39 3 10 30 l-24 22 37 52 c19
28 67 89 104 136 229 282 375 606 379 842 1 67 8 90 38 124 16 18 18 25 7 21
-9 -4 -22 -10 -30 -13 -9 -3 -16 2 -19 13 -3 10 -5 -26 -6 -80 -3 -263 -115
-552 -318 -819 -15 -20 -67 -87 -115 -150 -47 -63 -92 -119 -100 -124 -7 -6
-37 -16 -67 -22 -59 -14 -98 -38 -149 -94 -34 -38 -35 -38 -113 -38 l-79 0 -1
28 -1 27 -10 -32 c-13 -39 -23 -43 -115 -50 -57 -5 -74 -10 -78 -23 -12 -38
11 -65 107 -131 31 -21 59 -42 62 -47 2 -4 7 -66 11 -137 l6 -130 -68 -71
c-37 -38 -89 -94 -114 -123 -26 -29 -49 -49 -52 -44 -2 4 -12 33 -22 63 -27
84 -79 179 -130 240 -36 43 -45 60 -40 80 3 14 8 69 12 122 6 98 -9 212 -29
225 -6 3 -8 -6 -5 -23 21 -106 28 -217 17 -269 -6 -30 -15 -55 -19 -55 -14 0
-200 101 -207 112 -4 6 -11 49 -15 96 -6 55 -16 96 -29 116 -10 17 -31 53 -46
81 -15 27 -39 65 -55 85 -57 71 -71 134 -79 360 -6 185 -10 217 -39 323 -17
65 -31 138 -31 161 0 106 41 224 105 302 43 52 44 82 5 117 -34 30 -37 48 -14
67 26 22 36 50 29 81 -9 39 -23 37 -17 -2z m1728 -1234 c-7 -130 -22 -201 -71
-323 -48 -118 -52 -122 -137 -110 -38 6 -68 14 -68 20 0 5 18 62 41 126 22 64
65 187 94 272 49 145 107 306 122 340 11 25 24 -208 19 -325z m-553 -234 c2
-10 37 -40 76 -65 39 -26 71 -51 71 -56 0 -12 -29 -19 -90 -22 l-45 -3 75 -27
c41 -15 94 -32 118 -37 24 -5 50 -17 57 -28 14 -17 14 -17 15 5 0 26 -1 26 92
10 39 -6 72 -17 75 -24 8 -22 -35 -100 -62 -112 -16 -7 -33 -30 -45 -57 l-20
-46 -22 22 c-49 47 -142 109 -176 118 -46 13 -222 26 -222 18 0 -4 15 -13 34
-21 19 -8 40 -27 49 -46 l16 -31 -47 27 c-26 15 -56 33 -67 41 -25 16 -41 17
-27 1 11 -15 3 -124 -8 -111 -4 4 -15 34 -25 65 -17 55 -48 98 -62 85 -3 -4 4
-18 17 -32 30 -32 9 -33 -39 -2 -205 134 -230 153 -231 173 0 25 6 26 218 45
125 11 163 10 221 -7 23 -7 23 -7 6 20 -12 18 -24 26 -37 23 -27 -8 -22 3 24
50 47 48 54 51 61 24z"/>
<path d="M2533 4230 c-10 -11 -26 -29 -35 -40 -27 -31 -85 -27 -135 10 -55 40
-84 43 -97 8 -7 -20 -5 -36 8 -66 17 -37 17 -41 1 -72 -13 -26 -15 -38 -6 -56
14 -32 34 -30 93 6 26 17 52 30 57 30 6 0 19 -13 31 -29 11 -16 39 -44 62 -62
l41 -33 21 27 c26 32 37 34 61 7 22 -24 38 -25 56 -4 10 12 24 15 59 10 42 -6
225 21 273 39 10 4 24 20 32 35 13 25 12 29 -3 43 -51 44 -166 80 -316 96 -85
10 -97 15 -140 54 -26 22 -42 22 -63 -3z m31 -39 c6 -9 74 -22 223 -41 83 -11
214 -50 239 -71 41 -34 -13 -63 -144 -80 -70 -9 -106 -9 -149 0 -43 8 -59 8
-71 -1 -11 -10 -17 -8 -28 7 -8 11 -24 20 -37 20 -27 2 -69 23 -80 41 -12 21
-103 18 -141 -5 -45 -27 -86 -35 -86 -17 0 8 5 18 11 22 11 7 8 66 -5 97 -10
22 14 23 54 2 16 -8 55 -18 87 -21 56 -6 59 -5 81 25 23 32 36 38 46 22z"/>
<path d="M1193 3732 c-7 -4 -23 -28 -36 -52 -26 -50 -59 -71 -121 -77 -34 -4
-53 3 -110 37 -87 51 -119 51 -124 0 -3 -24 5 -51 24 -87 l29 -52 -19 -54
c-14 -43 -16 -59 -7 -76 19 -35 67 -28 122 19 62 52 101 70 107 50 12 -37 161
-146 186 -137 9 3 22 22 30 42 8 19 19 35 24 35 5 0 28 -13 50 -30 23 -16 46
-30 50 -30 5 0 21 14 35 30 24 27 33 30 87 30 59 0 279 41 331 61 39 15 80 62
82 94 2 24 -5 33 -38 52 -70 40 -204 65 -370 70 -195 5 -206 7 -255 48 -43 36
-56 40 -77 27z m73 -52 l49 -40 130 0 c185 0 387 -35 451 -76 23 -16 24 -17 6
-46 -9 -16 -34 -39 -54 -49 -58 -30 -262 -71 -336 -67 -60 2 -66 1 -86 -25
-29 -36 -42 -34 -83 9 -40 43 -55 40 -83 -16 -11 -22 -26 -40 -33 -40 -15 0
-127 88 -127 100 0 5 10 10 23 12 12 2 22 10 22 18 0 30 -69 24 -152 -13 -43
-19 -86 -37 -95 -40 -10 -4 -18 -14 -18 -23 0 -8 -6 -14 -12 -12 -19 7 -21 53
-4 87 21 41 20 52 -10 97 -16 23 -22 40 -15 42 15 5 14 23 -1 20 -7 -2 -14 7
-16 20 -5 34 26 28 85 -17 60 -45 120 -58 174 -39 53 20 77 41 95 84 13 31 29
53 40 54 1 0 24 -18 50 -40z"/>
<path d="M4070 3695 c0 -9 7 -18 15 -21 18 -7 20 -50 3 -60 -7 -4 -53 -11
-103 -15 -86 -7 -94 -6 -167 24 -74 29 -77 30 -102 13 -30 -19 -32 -34 -11
-62 18 -23 19 -50 3 -60 -6 -4 -54 -11 -106 -15 -92 -8 -97 -7 -164 21 -81 35
-82 35 -102 14 -26 -25 -20 -60 14 -84 23 -16 28 -25 20 -35 -6 -7 -11 -30
-13 -51 -2 -39 -2 -39 34 -38 25 1 51 12 83 37 l47 35 40 -41 c33 -35 40 -48
37 -74 -3 -25 0 -34 14 -38 17 -6 72 17 83 35 10 16 22 11 28 -11 5 -19 10
-21 44 -15 21 4 90 11 153 16 149 11 193 25 254 82 16 15 37 18 116 18 97 0
183 17 228 46 27 18 30 65 5 90 -23 23 -123 68 -198 89 -84 24 -124 44 -168
82 -39 35 -87 45 -87 18z m78 -37 c5 -7 11 -22 13 -32 3 -16 18 -22 74 -32 77
-13 235 -70 235 -85 0 -5 -5 -18 -12 -29 -10 -15 -9 -22 5 -38 17 -19 16 -20
-30 -33 -27 -8 -93 -14 -153 -14 -100 0 -108 2 -161 32 -78 44 -177 83 -210
83 -41 0 -69 14 -113 54 -22 19 -44 37 -50 39 -6 2 -8 8 -4 12 4 4 39 -5 78
-21 68 -26 73 -27 148 -16 42 7 97 12 121 12 l44 0 -7 40 c-6 40 3 51 22 28z
m-371 -122 c14 -31 21 -35 72 -41 51 -6 197 -54 230 -74 12 -8 13 -14 3 -37
-11 -22 -10 -29 4 -45 15 -17 14 -18 -28 -31 -25 -8 -93 -13 -166 -13 -67 0
-122 -3 -122 -7 0 -20 -19 -5 -29 22 -10 31 -44 50 -84 49 -21 0 -21 -1 5 -21
25 -20 26 -22 11 -44 -23 -36 -53 -32 -53 7 0 23 -11 41 -46 74 l-46 44 -36
-19 c-21 -10 -50 -28 -67 -39 -55 -38 -74 -16 -35 39 22 30 22 29 -25 68 -18
15 -20 42 -2 42 6 0 47 -11 89 -25 58 -18 84 -22 105 -15 15 5 68 12 116 15
84 7 87 8 82 28 -4 12 -9 30 -11 40 -9 31 16 18 33 -17z"/>
<path d="M3620 3067 c0 -7 7 -22 15 -33 32 -43 14 -64 -54 -64 -21 0 -61 -4
-89 -10 -47 -9 -57 -7 -119 21 -37 16 -78 29 -92 27 -22 -3 -26 -9 -29 -39 -2
-29 2 -41 22 -57 25 -19 25 -21 11 -48 -18 -35 -19 -56 -3 -72 20 -20 40 -14
103 28 l60 40 43 -45 c38 -39 43 -49 37 -75 -6 -28 -5 -30 23 -30 18 0 43 11
61 26 29 24 31 25 31 6 0 -26 17 -29 115 -20 240 23 296 39 325 90 13 24 13
29 -5 48 -29 32 -122 76 -222 105 -66 19 -102 37 -144 70 -57 45 -89 56 -89
32z m86 -73 c6 -25 14 -29 84 -40 54 -8 141 -35 192 -59 32 -16 35 -21 27 -37
-6 -11 -8 -32 -4 -47 6 -28 4 -29 -47 -42 -31 -8 -98 -13 -160 -13 -60 1 -108
-2 -108 -7 0 -20 -16 -7 -27 21 -7 18 -25 36 -47 46 -43 21 -60 10 -27 -17
l24 -20 -23 -24 c-30 -32 -36 -31 -44 7 -7 36 -47 93 -76 108 -21 11 -72 -9
-133 -53 -43 -29 -55 -9 -25 42 l23 41 -32 26 c-32 25 -44 54 -22 54 6 0 49
-12 96 -26 82 -26 88 -26 171 -15 137 20 131 18 125 57 -5 29 -3 33 11 28 9
-3 19 -17 22 -30z"/>
<path d="M4255 2664 c4 -11 10 -34 13 -51 4 -29 1 -33 -19 -34 -13 0 -62 -4
-109 -8 -80 -8 -88 -7 -152 21 -74 31 -100 28 -113 -13 -5 -16 1 -29 25 -54
l31 -32 -20 -35 c-19 -31 -19 -36 -5 -56 21 -30 33 -28 103 19 l61 41 33 -27
c43 -37 57 -64 46 -92 -6 -17 -4 -23 10 -28 23 -7 62 7 80 29 19 22 31 20 31
-5 0 -20 4 -21 48 -15 26 3 99 10 162 15 178 15 254 50 234 109 -11 33 -134
97 -238 125 -69 18 -138 55 -153 80 -4 8 -23 18 -42 22 -31 7 -33 5 -26 -11z
m73 -59 c23 -41 30 -45 80 -45 45 0 140 -28 204 -61 37 -19 38 -21 23 -41 -13
-19 -13 -25 0 -44 14 -22 13 -23 -43 -40 -44 -12 -82 -15 -164 -11 -60 2 -108
1 -108 -4 0 -5 -4 -9 -10 -9 -5 0 -10 6 -10 13 0 20 -37 56 -66 63 -35 9 -41
-2 -13 -25 l24 -20 -30 -25 c-35 -28 -44 -26 -38 8 6 31 -68 116 -101 116 -11
0 -48 -18 -81 -40 -71 -47 -90 -40 -55 21 l23 42 -32 26 c-57 47 -35 73 36 41
27 -12 76 -24 110 -27 62 -6 219 13 228 27 2 4 0 22 -5 39 -11 40 5 38 28 -4z"/>
<path d="M5053 2373 c5 -7 41 -38 82 -69 126 -94 200 -196 207 -284 2 -27 -2
-36 -22 -48 l-25 -14 25 7 c14 3 108 19 210 34 102 16 174 30 160 32 -18 3
-26 12 -31 34 l-6 30 -4 -30 c-6 -41 -23 -34 -30 12 l-6 38 -2 -42 c-1 -37 -4
-42 -28 -47 -59 -12 -175 -26 -182 -21 -17 10 -33 97 -28 143 6 43 5 45 -8 28
-18 -24 -18 -24 0 -106 17 -79 17 -80 5 -80 -5 0 -10 6 -10 14 0 8 -9 43 -20
79 -23 74 -82 147 -179 221 -74 56 -117 84 -108 69z"/>
<path d="M3825 2250 c8 -16 15 -38 15 -49 0 -14 9 -23 25 -27 30 -7 31 -20 8
-85 -16 -45 -16 -49 1 -68 19 -21 13 -44 -23 -85 -11 -13 -16 -38 -16 -84 l0
-65 -45 -32 c-38 -26 -48 -41 -65 -92 -11 -33 -32 -78 -47 -98 l-26 -37 -22
43 c-12 23 -55 77 -94 118 -40 42 -85 97 -100 124 -31 52 -41 60 -26 22 20
-53 42 -82 116 -160 83 -87 113 -136 115 -187 1 -27 3 -28 6 -9 3 14 19 44 37
67 18 23 38 61 45 85 23 77 30 88 71 114 47 30 58 54 52 113 -3 34 1 51 23 84
26 38 26 43 14 80 -10 32 -10 45 0 71 26 64 25 74 -8 91 -19 10 -31 24 -31 37
0 25 -17 59 -31 59 -5 0 -3 -13 6 -30z"/>
<path d="M7204 2126 c-173 -56 -316 -155 -427 -296 -68 -85 -159 -252 -232
-425 -58 -134 -114 -249 -126 -253 -5 -2 -7 -7 -5 -11 3 -4 35 -4 73 0 78 9
134 -1 208 -36 118 -56 235 -151 235 -190 0 -8 4 -15 9 -15 16 0 -7 62 -33 89
-14 14 -42 35 -63 46 -21 11 -70 39 -108 62 -76 45 -133 62 -207 63 -32 0 -48
4 -48 13 0 8 -4 7 -10 -3 -27 -42 -2 26 71 191 102 233 162 346 231 440 107
145 212 221 404 294 64 25 119 47 122 50 11 11 -25 3 -94 -19z"/>
<path d="M6556 1991 c-37 -72 -70 -131 -74 -131 -13 0 -132 125 -132 139 0 8
10 28 23 45 40 53 42 62 7 28 -22 -20 -40 -30 -51 -27 -16 5 -16 3 -6 -25 19
-49 -3 -62 -146 -81 -67 -9 -106 -17 -86 -18 61 -2 203 20 227 35 20 13 26 13
52 -6 17 -12 30 -27 30 -35 0 -11 -7 -10 -40 2 -30 12 -45 13 -63 5 -20 -9
-19 -10 14 -10 43 1 118 -45 119 -73 0 -9 -61 -51 -67 -46 -2 3 2 18 11 35 19
37 13 42 -38 41 -34 -2 -36 -3 -11 -6 62 -9 55 -42 -10 -44 l-30 -1 28 -10
c15 -5 27 -13 27 -18 0 -18 -33 -29 -180 -59 -179 -37 -205 -50 -196 -91 3
-20 -1 -36 -13 -52 -18 -21 -28 -23 -120 -25 -55 -1 -108 -6 -118 -12 -13 -8
15 -9 99 -4 88 4 121 3 133 -7 23 -19 9 -29 -35 -23 -45 6 -171 -19 -245 -50
-27 -11 -77 -23 -110 -27 l-60 -7 65 -2 c49 -1 76 4 105 20 39 20 189 58 231
59 11 0 28 -6 38 -13 17 -12 16 -16 -8 -77 -14 -35 -25 -64 -23 -64 1 -1 36 0
77 2 l75 3 2 52 c1 45 54 282 64 291 2 2 16 6 32 10 35 8 35 0 -3 -190 -41
-204 -39 -197 -55 -190 -10 3 -15 -1 -15 -14 0 -21 -23 -30 -140 -54 -88 -19
-45 -20 59 -1 47 8 86 13 89 11 2 -3 6 -22 8 -43 l5 -38 -73 -43 c-40 -24 -84
-52 -98 -63 -36 -29 71 24 129 64 35 24 45 27 52 16 4 -8 19 -29 33 -48 14
-19 24 -37 21 -39 -5 -5 -451 -62 -470 -61 -5 1 8 7 30 14 64 21 8 18 -103 -6
-95 -21 -134 -21 -277 -4 -32 4 -29 2 15 -10 31 -8 102 -14 161 -15 l106 0 -3
-26 c-2 -20 4 -28 27 -38 16 -7 27 -14 25 -17 -3 -3 6 -6 20 -7 39 -3 24 21
-20 32 -32 8 -37 13 -34 35 l3 26 267 30 c146 16 270 33 274 37 3 4 -1 19 -10
32 l-16 25 43 4 42 4 -42 1 c-24 1 -43 6 -43 10 0 15 51 134 92 216 47 93 129
236 203 351 29 44 57 90 64 103 48 90 -90 -111 -184 -268 -61 -102 -155 -292
-174 -352 -7 -21 -16 -38 -21 -38 -10 0 -30 56 -30 86 0 13 41 85 93 161 232
341 266 393 309 468 60 102 122 234 115 241 -3 4 -35 -53 -71 -125z m-86 -165
c0 -3 -40 -60 -88 -128 -48 -68 -103 -144 -120 -170 -18 -27 -37 -48 -41 -48
-5 0 -12 19 -17 43 -8 42 -8 42 -14 -28 -6 -68 -34 -145 -53 -145 -5 0 -7 10
-4 23 3 12 14 66 23 120 9 53 21 97 26 97 4 0 8 20 8 44 0 61 15 96 40 96 37
0 140 40 182 70 38 28 58 37 58 26z"/>
<path d="M7209 1974 c-216 -196 -543 -533 -626 -644 -48 -63 -91 -121 -96
-127 -5 -7 -7 -13 -4 -13 2 0 24 26 48 58 125 167 323 377 564 598 204 188
220 203 209 204 -6 0 -49 -34 -95 -76z"/>
<path d="M5137 1919 c-90 -25 -158 -61 -191 -99 -27 -32 -34 -64 -16 -75 6 -4
10 5 10 20 0 15 11 37 26 52 27 27 24 27 169 9 22 -3 32 -3 23 0 -35 11 -17
24 30 24 49 -1 206 -31 217 -42 4 -3 -20 -9 -52 -13 -101 -11 -92 -15 22 -8
61 3 160 7 220 8 61 2 145 10 188 19 44 9 93 14 110 11 18 -4 43 -1 57 5 32
13 -169 5 -221 -10 -41 -12 -117 -13 -103 -2 5 5 63 17 129 27 128 19 186 32
150 34 -17 1 -18 3 -5 12 11 8 3 9 -30 4 -25 -4 -103 -15 -175 -26 -108 -15
-117 -18 -55 -15 l75 4 -70 -18 c-73 -19 -173 -25 -215 -12 -18 5 -5 9 50 13
l75 5 -80 2 c-44 2 -134 9 -200 17 -66 8 -130 15 -143 15 -32 0 -19 16 26 30
29 10 73 34 52 29 -3 -1 -36 -10 -73 -20z"/>
<path d="M2753 1917 c-44 -13 -41 -31 7 -51 43 -17 43 -17 34 -40 -5 -13 -9
-14 -20 -5 -11 9 -14 7 -14 -13 0 -23 -27 -58 -43 -58 -4 0 -7 24 -8 53 l-1
52 -15 -35 c-8 -19 -19 -38 -25 -41 -14 -9 0 -84 32 -175 l29 -79 0 65 c1 38
-3 60 -8 52 -14 -22 -33 12 -29 55 2 29 8 39 23 41 16 2 24 -6 35 -34 l15 -36
12 63 c8 35 19 69 26 76 15 15 8 115 -8 119 -5 1 -25 -3 -42 -9z"/>
<path d="M1877 1800 c-6 -53 -4 -66 13 -87 16 -20 20 -41 20 -100 0 -43 6 -85
14 -101 7 -15 17 -56 22 -92 l8 -65 13 59 c13 55 12 60 -5 77 -19 17 -40 105
-28 116 9 9 33 -16 47 -48 l12 -31 13 24 c16 29 19 62 3 35 -10 -17 -12 -17
-29 4 -11 11 -29 40 -40 63 -17 36 -18 48 -9 75 6 18 9 34 6 37 -3 3 -8 -4
-12 -15 -12 -38 -25 -22 -25 32 0 78 -16 90 -23 17z"/>
<path d="M4953 1679 c-6 -6 -44 -13 -84 -16 -63 -4 -84 -11 -139 -44 -36 -21
-69 -48 -75 -61 -5 -12 -21 -28 -35 -35 l-25 -13 27 0 c42 0 55 9 51 34 -7 32
3 36 65 24 43 -9 59 -8 90 6 20 9 78 22 127 30 50 8 140 26 202 40 61 14 136
27 165 28 l53 2 -45 3 c-54 5 -466 -69 -507 -90 -28 -15 -78 -13 -88 4 -3 4 9
19 27 32 27 20 47 26 110 29 68 3 112 18 97 33 -3 2 -10 0 -16 -6z"/>
<path d="M2921 1628 c1 -24 4 -33 6 -20 5 27 15 28 36 4 23 -25 22 -28 -17
-63 -25 -22 -37 -43 -46 -82 -23 -101 -63 -208 -84 -223 -28 -19 -56 -18 -56
3 0 14 -3 13 -20 -5 -30 -32 -54 -29 -45 6 4 15 10 47 15 72 4 25 17 76 29
115 25 83 24 75 7 75 -9 0 -16 -18 -20 -52 -4 -28 -14 -65 -23 -82 -22 -43
-67 -93 -80 -89 -6 2 -13 -12 -15 -32 -5 -44 4 -45 31 0 20 35 49 49 37 19 -3
-9 -6 -24 -6 -35 0 -12 -16 -29 -45 -47 -66 -39 -64 -57 3 -23 31 15 88 36
126 45 38 9 81 23 97 31 40 21 58 19 135 -17 56 -25 84 -32 149 -34 44 -1 66
0 48 2 -30 5 -32 8 -44 75 l-12 69 47 70 c27 39 55 70 63 70 8 0 13 6 11 13
-8 23 -25 12 -68 -43 -24 -30 -66 -84 -94 -120 l-51 -65 38 29 c21 15 40 26
41 25 5 -7 24 -114 21 -117 -9 -10 -115 23 -115 35 0 8 -11 13 -28 13 -16 0
-37 6 -47 14 -18 13 -16 16 28 68 46 54 62 83 32 58 -8 -6 -18 -9 -23 -6 -6 3
-13 -5 -16 -18 -6 -24 -82 -84 -93 -73 -6 6 19 85 60 192 9 23 22 40 31 40 8
0 21 9 29 19 14 19 16 17 46 -30 18 -30 28 -57 25 -69 -3 -13 9 -5 36 24 22
24 38 46 35 49 -3 3 -12 -4 -21 -16 -23 -33 -38 -27 -67 26 l-27 49 25 11 c26
12 34 32 12 32 -7 0 -22 -7 -34 -15 -20 -14 -23 -12 -57 25 -20 22 -38 40 -41
40 -3 0 -4 -19 -4 -42z"/>
<path d="M4555 1365 c69 -44 147 -78 219 -94 86 -20 98 -36 69 -88 -19 -33
-32 -42 -99 -65 -42 -15 -79 -30 -82 -33 -3 -3 33 -5 79 -5 46 -1 132 -9 191
-19 91 -15 110 -22 130 -45 17 -20 35 -27 73 -31 36 -4 44 -3 30 4 -11 5 -32
10 -47 10 -18 1 -33 10 -44 26 -21 32 -42 37 -289 71 l-50 7 40 8 c22 4 74 9
115 10 l75 2 -58 7 c-32 4 -60 9 -62 11 -2 3 4 23 14 45 l19 41 114 6 c148 8
155 6 150 -41 -4 -44 12 -26 23 26 l7 32 -49 2 c-26 0 -86 0 -133 -1 -109 -4
-224 25 -340 83 -103 53 -154 69 -95 31z"/>
<path d="M3616 1334 c-3 -26 -7 -86 -7 -133 -1 -47 -3 -78 -6 -68 -4 14 -8 15
-18 7 -10 -9 -19 -8 -37 4 -33 22 -134 46 -190 46 l-48 0 15 -24 c11 -17 33
-28 68 -36 29 -7 67 -19 85 -27 27 -13 32 -21 32 -49 0 -19 4 -34 9 -34 12 0
6 69 -7 82 -6 6 -41 19 -78 29 -67 18 -93 33 -82 45 21 20 236 -55 273 -96 15
-16 13 -19 -20 -39 -20 -11 -47 -24 -60 -27 -29 -7 -30 -10 -10 -59 11 -25 14
-51 9 -80 -5 -38 -3 -45 16 -55 21 -11 22 -11 16 15 -5 18 0 37 14 60 12 19
23 46 26 59 10 57 155 266 208 301 36 24 79 28 117 12 45 -18 153 -117 141
-129 -5 -5 -43 -12 -85 -17 -79 -9 -107 -22 -107 -48 0 -11 6 -8 18 7 16 20
33 24 123 33 98 9 108 8 153 -12 35 -15 67 -21 115 -20 l66 2 -77 7 c-87 8
-124 27 -134 67 -6 22 -1 32 32 61 l39 34 -35 -19 c-19 -10 -43 -34 -53 -53
-10 -19 -22 -34 -27 -33 -5 2 -35 29 -67 62 -43 44 -70 62 -102 71 -88 23
-131 0 -226 -125 -32 -41 -61 -75 -65 -75 -4 0 -13 14 -20 30 -9 22 -11 63 -5
150 7 122 3 158 -9 74z"/>
<path d="M2061 1277 c0 -13 17 -35 43 -57 77 -63 90 -92 71 -157 -5 -16 -56
31 -84 77 -16 27 -21 30 -21 15 0 -11 21 -43 46 -70 25 -28 49 -60 55 -73 15
-37 11 -80 -8 -91 -16 -9 -15 -10 7 -11 14 0 43 -9 65 -20 22 -11 54 -19 71
-20 37 0 59 26 118 135 47 86 53 93 102 110 l39 14 -34 1 c-27 0 -42 -8 -73
-41 -37 -39 -40 -40 -53 -23 -9 12 -10 21 -3 25 6 4 7 16 3 29 l-7 23 -14 -24
c-15 -27 -19 -83 -5 -75 15 10 34 -22 27 -47 -3 -13 -17 -36 -31 -53 -14 -16
-25 -32 -25 -36 0 -4 -9 -12 -21 -18 -23 -13 -105 12 -126 39 -19 22 -17 162
3 211 9 23 14 44 10 47 -3 4 -6 1 -6 -5 0 -26 -28 -9 -88 53 -51 53 -62 61
-61 42z"/>
<path d="M1730 1153 c6 -12 48 -62 93 -111 65 -70 88 -102 106 -151 12 -33 20
-65 17 -70 -3 -4 -24 -11 -45 -15 -44 -7 -62 -28 -60 -73 l1 -28 8 28 c13 42
28 56 69 63 74 12 127 36 171 77 44 40 45 43 28 60 -17 16 -18 16 -18 -2 0
-20 -36 -71 -50 -71 -24 0 -109 82 -120 116 -8 23 -15 32 -20 24 -5 -9 -13 -9
-26 -2 -20 11 -103 97 -142 147 -15 20 -19 22 -12 8z"/>
<path d="M2673 1138 c-12 -13 -28 -40 -37 -61 -14 -36 -14 -40 2 -63 20 -27
35 -30 52 -9 13 16 38 19 64 9 11 -4 16 -19 16 -45 0 -21 4 -39 8 -39 13 0 82
104 82 122 0 15 -72 58 -97 58 -6 0 -18 11 -27 25 -20 31 -36 32 -63 3z"/>
<path d="M3895 1010 c15 -54 33 -68 119 -94 47 -15 99 -29 116 -33 18 -3 34
-12 37 -20 9 -23 -14 -85 -42 -115 -14 -16 -22 -28 -17 -28 20 0 43 29 62 83
12 31 23 57 26 57 22 0 137 -71 167 -104 37 -39 38 -40 32 -13 -7 27 -7 28 31
21 28 -4 54 0 92 15 58 23 122 27 154 10 11 -6 22 -8 25 -5 9 9 -63 36 -97 36
-17 0 -48 -9 -70 -20 -50 -25 -133 -27 -177 -2 -128 71 -165 85 -360 142 -54
15 -73 25 -73 38 0 9 -8 26 -16 37 -16 19 -16 19 -9 -5z"/>
<path d="M1531 858 c-39 -48 -42 -57 -38 -93 16 -115 19 -175 9 -175 -5 0 -39
9 -74 20 -70 22 -217 27 -280 10 -38 -11 -78 -44 -114 -95 l-21 -29 -74 75
c-81 84 -253 195 -283 183 -21 -8 -20 -33 2 -58 10 -12 24 -40 31 -64 6 -23
28 -70 47 -103 64 -109 39 -132 -137 -122 -82 4 -118 3 -123 -6 -5 -7 3 -12
21 -13 55 -4 89 -5 148 -7 70 -1 63 -13 -18 -30 -61 -13 -77 -36 -31 -47 42
-11 204 15 261 42 38 18 69 24 117 24 l66 0 -6 -30 c-4 -16 -1 -43 6 -60 12
-29 15 -30 77 -30 54 0 70 4 98 26 25 19 51 27 93 31 63 6 84 -5 62 -32 -17
-21 11 -30 40 -15 18 10 24 9 31 -1 7 -12 14 -11 40 4 24 13 62 19 158 23 100
3 121 2 104 -7 -27 -14 -30 -29 -5 -29 20 1 48 23 80 64 34 44 29 63 -9 32
-18 -16 -43 -26 -62 -27 -59 0 -242 -18 -265 -25 -17 -5 -21 -3 -17 8 5 13
-11 17 -95 22 -90 7 -105 5 -139 -12 -26 -14 -42 -17 -49 -10 -6 6 -20 4 -40
-6 -42 -22 -49 -20 -21 5 23 19 23 20 2 10 -12 -6 -30 -11 -40 -10 -12 0 -9 4
10 11 31 11 36 28 8 28 -14 0 -21 8 -23 28 l-3 27 -103 0 c-92 0 -105 -2 -118
-20 -15 -20 -15 -20 -30 -1 -11 16 -14 17 -14 4 0 -8 -6 -20 -12 -25 -15 -12
-98 -24 -98 -15 1 15 108 80 145 87 l40 9 -35 5 c-34 6 -35 7 -23 31 10 21 13
22 19 7 7 -18 34 -24 34 -7 0 17 39 50 60 50 13 0 20 -7 20 -20 0 -16 7 -20
30 -20 21 0 39 -9 55 -26 15 -17 30 -24 41 -20 21 8 13 30 -14 34 -12 2 -22 8
-22 13 0 24 30 78 51 93 30 20 69 21 69 1 0 -8 7 -15 15 -15 9 0 15 9 15 25 0
26 0 26 83 23 76 -3 82 -5 85 -25 4 -27 17 -30 30 -7 14 25 47 13 50 -19 4
-29 19 -36 28 -12 4 8 17 15 30 15 32 0 61 31 70 74 5 29 11 36 30 36 12 0 26
5 30 11 4 7 14 0 26 -18 l19 -28 -6 45 -6 45 28 -49 c40 -71 63 -83 193 -106
162 -28 219 -59 260 -140 l20 -38 -41 -21 c-48 -25 -53 -26 -45 -5 6 15 0 16
-40 10 -26 -3 -55 -6 -65 -6 -11 0 -19 -7 -19 -15 0 -7 -20 -31 -45 -52 -25
-20 -45 -41 -45 -45 0 -13 27 -9 40 7 11 13 15 13 41 0 43 -22 59 -18 21 6
-26 17 -30 24 -21 35 14 17 22 17 72 3 26 -7 41 -18 47 -35 6 -16 17 -24 32
-24 13 0 19 4 13 8 -5 4 -15 17 -22 29 -11 20 -9 25 28 51 44 33 74 32 121 -3
22 -16 21 -17 -34 -10 -50 5 -59 4 -78 -15 -12 -12 -19 -24 -16 -28 4 -3 15 4
25 15 18 18 25 20 73 11 29 -5 55 -12 58 -15 3 -2 -6 -13 -19 -24 l-23 -19 30
0 c17 0 48 11 68 25 54 37 99 45 215 40 57 -2 116 -4 131 -5 25 0 27 -2 18
-26 -14 -37 -12 -40 10 -14 24 28 24 30 6 56 -16 22 -20 48 -18 102 2 24 8 35
25 42 20 8 20 9 2 9 -40 1 -48 -13 -43 -77 l4 -60 -45 -13 c-38 -11 -51 -10
-91 4 -61 22 -71 21 -143 -5 -50 -18 -62 -19 -65 -8 -8 24 -49 59 -79 66 -43
11 -84 43 -99 80 -20 48 -81 82 -198 111 -55 13 -106 30 -111 37 -7 10 -15 10
-27 3 -35 -23 -65 7 -124 125 -50 101 -96 168 -114 168 -4 0 -26 -24 -49 -52z
m101 -33 c10 -19 10 -19 -7 -5 -21 17 -22 22 9 -55 16 -39 16 -39 -1 -19 -10
12 -24 30 -31 40 -11 17 -12 16 -8 -11 2 -16 7 -37 11 -46 4 -11 0 -18 -14
-22 -14 -3 -24 -19 -33 -51 -7 -25 -15 -46 -19 -46 -5 0 -29 144 -29 178 0 19
50 62 71 62 11 0 19 6 19 13 0 12 10 1 32 -38z"/>
<path d="M4374 645 c-18 -16 -54 -49 -82 -72 -95 -81 -135 -170 -97 -219 14
-18 14 -17 5 10 -15 41 -5 77 36 130 39 52 54 57 54 22 0 -24 41 -66 64 -66
19 0 71 33 117 74 53 47 12 28 -45 -21 -51 -43 -102 -46 -116 -7 -20 52 -13
71 42 108 43 28 56 33 72 24 15 -8 50 -8 126 2 164 19 275 18 345 -3 l60 -19
-35 -15 c-19 -8 -60 -15 -91 -15 -31 0 -62 -4 -70 -9 -9 -5 10 -9 53 -9 63 0
178 32 178 50 0 4 -35 17 -78 29 -66 19 -95 22 -192 18 -63 -3 -150 -11 -194
-18 -78 -13 -78 -13 -100 11 l-21 25 -31 -30z"/>
<path d="M5657 636 c-21 -8 -46 -21 -56 -30 -9 -8 -35 -20 -57 -25 -21 -5 -30
-9 -18 -10 31 -1 35 -11 17 -38 -19 -29 -63 -53 -95 -53 -78 0 -212 -56 -314
-130 -64 -46 -73 -50 -127 -50 l-59 0 81 78 c46 43 81 85 81 96 0 14 -7 9 -29
-20 -51 -69 -150 -148 -175 -138 -15 6 -123 -32 -146 -51 -8 -7 -22 -15 -30
-18 -10 -4 -9 -6 6 -6 11 -1 36 7 55 16 24 13 64 18 137 20 102 3 103 3 97
-18 -7 -21 -6 -22 51 -14 66 8 72 8 204 0 l95 -7 23 34 c22 34 31 95 12 83 -5
-3 -10 -15 -10 -25 0 -10 -11 -32 -24 -47 -28 -32 -58 -34 -186 -10 -89 16
-96 31 -31 64 25 13 47 27 50 32 4 5 31 19 61 31 30 11 71 28 90 37 19 9 60
17 91 18 46 1 62 6 88 28 37 31 47 33 55 11 4 -9 11 -12 18 -7 7 4 32 8 55 9
34 1 47 8 74 38 50 58 79 66 31 9 -46 -54 -51 -72 -24 -96 14 -13 26 -14 57
-7 30 7 45 5 62 -5 28 -19 64 -19 107 -1 50 21 136 25 136 7 0 -6 -14 -11 -32
-13 -17 -2 -33 -9 -36 -15 -5 -18 75 -18 81 0 4 9 8 9 23 -1 36 -23 44 -24 69
-4 14 11 40 24 58 28 18 3 41 13 52 20 30 21 54 17 87 -16 25 -25 29 -37 27
-73 -4 -70 0 -137 9 -137 5 0 13 21 18 47 7 38 14 49 34 54 23 6 22 7 -8 8
-30 1 -33 4 -31 29 5 50 -10 86 -42 105 -41 23 -65 22 -147 -8 -84 -30 -108
-31 -115 -5 -3 13 -14 20 -30 20 -29 0 -44 16 -47 50 -5 64 -7 63 78 56 42 -3
142 1 222 9 l145 14 -130 -6 c-71 -3 -174 -4 -228 -3 -80 1 -98 -1 -103 -14
-5 -13 -23 -16 -89 -16 -78 0 -85 2 -102 25 -35 49 -139 68 -216 41z"/>
<path d="M3270 410 c-11 -8 -5 -10 25 -8 l40 3 3 -42 3 -43 -168 0 -168 0 55
31 c30 17 80 35 110 40 l55 8 -62 -4 c-72 -4 -137 -32 -184 -82 -33 -33 -80
-45 -94 -23 -8 13 -52 13 -60 0 -3 -6 4 -10 16 -10 13 0 37 -5 54 -11 26 -10
37 -8 75 11 42 21 50 22 214 15 113 -5 180 -12 198 -21 15 -8 40 -14 55 -13
23 0 19 3 -19 15 -39 12 -48 20 -58 49 -6 19 -11 42 -10 52 1 10 2 24 1 31 -1
15 -60 16 -81 2z"/>
</g>
</svg>
