<?xml version="1.0" standalone="no"?>
<!DOCTYPE svg PUBLIC "-//W3C//DTD SVG 20010904//EN"
 "http://www.w3.org/TR/2001/REC-SVG-20010904/DTD/svg10.dtd">
<svg version="1.0" xmlns="http://www.w3.org/2000/svg"
 width="724.000000pt" height="556.000000pt" viewBox="0 0 724.000000 556.000000"
 preserveAspectRatio="xMidYMid meet">
<metadata>
Created by potrace 1.16, written by Peter Selinger 2001-2019
</metadata>
<g transform="translate(0.000000,556.000000) scale(0.100000,-0.100000)"
fill="#000000" stroke="none">
<path d="M4062 5313 c-27 -68 -43 -164 -52 -306 -6 -84 -17 -177 -26 -206 -8
-29 -49 -120 -90 -203 -54 -110 -71 -154 -64 -163 6 -7 36 -23 66 -36 l55 -24
-5 -60 c-3 -33 -9 -318 -12 -632 -4 -360 -10 -573 -16 -573 -11 0 -164 115
-210 158 -31 28 -35 57 -13 86 27 35 19 80 -21 117 -19 19 -60 71 -89 116 -33
50 -70 92 -94 109 -23 15 -41 30 -41 35 0 5 9 23 20 41 38 62 27 101 -54 193
-29 33 -32 40 -45 135 -5 36 -15 80 -22 99 -12 30 -12 35 1 39 8 3 27 18 42
33 25 25 27 33 27 100 -1 45 5 91 15 118 21 58 20 77 -9 168 -28 90 -31 139
-10 170 19 27 5 37 -29 22 -35 -16 -42 -61 -26 -165 19 -130 -10 -222 -95
-304 -54 -52 -75 -99 -75 -169 0 -49 -6 -73 -32 -122 -31 -59 -32 -65 -33
-188 0 -99 -4 -134 -17 -161 -10 -19 -31 -73 -47 -120 -38 -110 -86 -221 -123
-287 -33 -58 -43 -69 -53 -53 -3 5 -43 10 -87 10 l-81 0 5 -62 c3 -35 3 -69 1
-75 -5 -13 -104 -19 -115 -8 -2 3 -1 28 3 57 4 29 4 56 0 60 -4 4 -45 10 -91
14 -110 9 -114 5 -108 -111 l4 -85 -65 6 c-36 4 -69 9 -73 13 -4 4 -4 31 1 61
5 30 7 59 4 66 -7 18 -108 37 -131 25 -27 -14 -33 -33 -39 -134 l-6 -87 -36 6
c-49 9 -51 12 -41 64 5 25 9 59 10 76 0 29 -3 31 -51 42 -28 7 -71 12 -95 12
-59 0 -64 -15 -64 -183 1 -143 14 -262 55 -487 25 -138 26 -156 21 -380 -3
-129 -8 -246 -11 -260 -4 -14 -20 -33 -36 -42 -28 -16 -32 -16 -64 -1 -30 14
-40 15 -75 3 -22 -7 -40 -16 -40 -20 0 -10 -73 -30 -111 -30 -19 0 -63 9 -97
20 -75 23 -154 26 -209 6 -22 -8 -80 -19 -129 -25 -49 -6 -101 -13 -117 -16
-15 -3 -27 -2 -27 2 -1 5 -2 36 -3 70 -1 34 -5 65 -9 69 -4 4 -35 2 -68 -3
-65 -10 -252 0 -328 18 -39 9 -49 7 -87 -15 -60 -36 -168 -143 -193 -193 -21
-41 -56 -157 -94 -308 -10 -44 -28 -108 -40 -143 -19 -59 -19 -64 -3 -88 42
-64 78 -47 287 142 94 84 134 102 249 110 130 9 181 35 257 131 32 40 32 44
26 107 -8 78 -6 79 76 39 51 -25 64 -27 163 -25 91 2 115 -1 158 -19 44 -20
60 -21 149 -15 110 8 170 1 170 -19 0 -9 27 -15 90 -20 75 -6 95 -4 115 9 18
12 49 16 118 16 l93 0 9 -32 c13 -43 95 -86 180 -94 58 -7 61 -8 80 -48 11
-22 38 -53 60 -68 42 -29 206 -75 305 -85 49 -6 59 -11 92 -48 41 -47 93 -74
109 -58 17 17 -1 61 -48 113 -60 67 -53 89 16 55 27 -14 75 -31 106 -37 48 -9
62 -9 91 5 64 31 43 50 -113 102 -81 26 -92 36 -74 63 7 11 17 10 56 -8 55
-25 138 -31 157 -12 21 21 -19 49 -104 71 -43 12 -80 21 -83 21 -3 0 -5 7 -5
16 0 9 -10 34 -22 55 -16 29 -19 42 -11 50 8 8 94 12 260 14 136 1 260 6 276
10 20 5 27 13 27 32 0 14 10 41 22 60 20 34 23 35 70 31 66 -7 102 -34 106
-81 4 -45 16 -55 72 -59 l45 -3 -30 -15 c-16 -8 -47 -25 -67 -37 -31 -19 -52
-23 -122 -23 -82 0 -186 -17 -186 -30 0 -12 53 -31 102 -37 27 -3 51 -10 54
-14 3 -5 -4 -22 -16 -38 -52 -74 -66 -191 -30 -260 25 -49 65 -81 101 -81 15
0 31 -5 34 -11 21 -34 127 -15 181 33 26 23 33 23 60 -3 34 -32 104 -37 149
-10 20 11 49 21 65 21 16 0 32 4 35 10 3 5 21 10 39 10 43 0 62 21 46 50 -7
12 -10 41 -8 64 3 23 -2 58 -10 79 -22 57 -9 62 89 35 76 -20 105 -23 304 -22
243 1 243 1 342 76 38 28 51 31 110 32 56 1 67 -2 64 -14 -15 -60 -22 -121
-18 -164 6 -71 23 -128 40 -138 8 -4 18 -19 21 -33 4 -15 16 -27 30 -31 14 -3
27 -12 30 -20 10 -26 97 -55 181 -61 73 -5 83 -3 114 18 19 13 49 44 66 69 22
31 48 53 86 71 l54 26 5 69 5 69 75 3 c45 2 112 -4 168 -14 78 -15 100 -16
140 -6 92 25 185 84 204 130 5 14 196 -7 249 -28 43 -17 56 -18 94 -9 51 13
57 31 26 70 -19 24 -21 24 -195 21 -163 -3 -177 -2 -183 15 -11 30 -54 62
-136 100 -63 30 -77 41 -75 58 3 19 9 20 238 21 230 1 323 7 349 23 7 5 11 18
9 31 -2 18 -11 23 -43 28 -22 2 -55 4 -72 3 -41 -1 -95 -2 -128 -1 -14 1 -36
0 -50 -1 -13 -1 -55 14 -92 32 -67 33 -71 34 -199 34 -127 0 -131 -1 -167 -27
-43 -33 -51 -34 -102 -8 -22 11 -60 20 -85 20 -25 1 -72 7 -105 15 -52 12 -61
12 -75 0 -21 -19 -39 -19 -86 2 -29 13 -79 19 -199 23 l-160 5 1 175 c1 96 9
250 18 342 14 137 15 181 5 240 -6 40 -13 130 -16 199 l-5 127 38 8 c49 12 63
34 40 65 -9 13 -28 39 -41 58 -20 27 -25 46 -25 91 0 53 -4 62 -57 136 -31 43
-70 107 -86 142 -26 57 -29 71 -25 136 4 60 2 77 -14 95 -14 18 -18 40 -18
105 0 71 4 88 31 139 23 44 29 65 24 88 -10 42 -35 34 -61 -19 -11 -24 -33
-53 -48 -66 -23 -18 -31 -36 -42 -96 -8 -41 -18 -95 -24 -120 -5 -25 -9 -64
-10 -86 0 -37 -5 -46 -45 -79 -51 -42 -83 -98 -114 -200 -21 -72 -58 -138
-123 -216 -41 -50 -64 -98 -70 -144 -3 -30 -1 -32 71 -51 10 -3 11 -13 5 -42
-12 -54 -9 -102 7 -140 12 -29 12 -36 -2 -60 -13 -23 -15 -58 -11 -224 5 -222
0 -268 -28 -268 -30 0 -50 -28 -50 -70 0 -47 -9 -54 -61 -45 -44 8 -44 8 -23
82 5 19 1 22 -40 28 l-47 7 3 347 c2 190 -3 531 -9 756 -15 465 -6 913 18 942
8 9 29 22 47 30 53 22 44 62 -42 188 -54 80 -73 144 -91 299 -39 332 -69 466
-105 466 -10 0 -22 -12 -28 -27z m47 -30 c22 -81 41 -195 61 -363 26 -213 39
-263 95 -345 50 -73 75 -118 75 -137 0 -11 -40 -17 -167 -26 -93 -7 -185 -12
-206 -12 -41 0 -117 37 -117 58 0 7 31 74 69 150 83 165 98 222 110 417 5 83
12 157 15 165 2 8 12 41 21 73 8 31 20 57 25 57 5 0 14 -17 19 -37z m-727
-503 c-2 -17 7 -68 22 -114 30 -98 32 -118 10 -177 -9 -25 -15 -75 -15 -114 1
-78 -1 -82 -46 -114 -38 -26 -40 -38 -13 -88 13 -25 20 -57 20 -96 0 -67 7
-84 67 -152 46 -53 56 -100 30 -140 -7 -11 -18 -32 -25 -47 -11 -26 -9 -28 36
-53 26 -14 58 -42 71 -63 13 -20 35 -53 48 -72 12 -20 41 -54 63 -77 43 -46
51 -83 25 -117 -33 -44 -20 -72 63 -136 42 -34 84 -66 92 -73 8 -7 42 -33 75
-58 80 -62 157 -140 180 -183 17 -30 17 -38 6 -60 -11 -19 -24 -26 -55 -30
-23 -3 -86 -10 -141 -17 -77 -9 -155 -9 -333 0 -204 11 -243 10 -318 -4 -47
-9 -93 -13 -103 -10 -9 3 -63 9 -119 15 -133 12 -144 16 -163 49 -14 24 -28
31 -93 46 -46 10 -80 23 -83 31 -5 14 45 96 85 140 11 11 53 66 94 121 105
141 136 207 274 585 9 26 13 75 11 151 -2 111 -1 114 28 158 23 35 30 57 32
109 6 96 8 103 67 171 102 117 118 172 101 362 -5 55 -4 87 2 87 5 0 8 -14 5
-30z m896 -397 c-9 -10 -19 -28 -22 -39 -4 -12 -20 -27 -37 -34 -41 -18 -91
-78 -113 -139 -25 -72 -36 -215 -25 -354 10 -118 10 -118 -16 -148 -25 -31
-31 -67 -19 -127 5 -25 12 -31 41 -35 21 -4 50 0 71 8 l35 15 -7 53 c-5 42
-13 58 -41 84 -32 31 -34 37 -45 134 -6 55 -8 104 -5 108 4 3 30 6 58 6 l52 0
3 62 c5 115 -25 171 -78 143 -15 -8 -20 -8 -20 2 0 20 45 110 66 134 16 18 55
44 66 44 2 0 0 -1029 -2 -1110 -1 -8 -7 2 -14 23 -28 77 -65 95 -105 53 -19
-20 -23 -36 -24 -104 -1 -46 3 -85 9 -92 7 -7 27 -7 70 3 58 13 59 14 64 53 4
28 7 12 13 -61 9 -124 9 -314 0 -557 l-6 -188 -34 -20 c-22 -13 -35 -30 -40
-51 l-6 -30 -76 6 c-42 4 -78 9 -80 11 -2 2 2 17 9 34 15 37 7 49 -42 59 l-33
7 -3 193 c-3 185 -2 193 17 198 12 3 21 15 23 32 2 21 10 27 43 34 56 12 68
20 84 52 13 26 12 33 -9 72 -13 24 -52 70 -87 103 l-63 59 0 493 c0 437 11
792 24 805 2 3 64 8 138 12 73 5 144 9 157 9 22 2 23 1 9 -15z m692 -280 c0
-9 -12 -36 -26 -61 -36 -61 -45 -187 -18 -247 12 -27 17 -59 15 -100 -4 -81
25 -154 107 -274 60 -88 66 -101 71 -162 5 -53 12 -73 39 -106 47 -59 45 -62
-38 -78 -19 -4 -46 -14 -59 -22 -21 -13 -46 -15 -150 -9 -69 4 -196 11 -281
16 -85 4 -157 9 -159 9 -2 1 -1 21 1 45 4 36 18 60 67 121 73 92 89 122 127
240 26 82 35 96 91 153 60 59 63 65 63 110 0 26 6 72 14 102 8 30 17 79 21
108 6 42 13 57 36 74 15 12 35 38 43 60 16 39 36 51 36 21z m-2093 -849 c3 -7
-42 -73 -101 -149 -58 -74 -108 -146 -111 -158 -10 -38 16 -54 138 -81 15 -4
27 -11 27 -18 0 -6 -21 -33 -46 -60 l-47 -50 5 -96 c3 -63 11 -108 21 -129 22
-42 21 -59 -3 -90 -25 -32 -25 -49 1 -97 11 -21 17 -41 14 -44 -3 -3 -23 -5
-43 -3 l-38 2 0 -55 c0 -79 -14 -91 -99 -81 l-66 7 6 29 c11 48 -7 59 -96 59
-73 0 -80 -2 -95 -25 -13 -21 -15 -36 -9 -78 5 -29 10 -85 11 -125 2 -69 1
-74 -22 -82 -40 -16 -42 -40 -5 -71 57 -48 14 -64 -89 -33 -67 20 -228 12
-345 -17 -77 -20 -136 -20 -229 -2 -28 5 -27 6 28 34 64 33 92 36 117 13 18
-16 27 -15 59 5 8 5 22 12 32 15 23 7 32 112 32 376 1 184 -3 231 -22 325 -38
186 -52 314 -52 471 0 109 3 154 13 162 8 6 31 7 65 2 96 -16 95 -15 88 -71
-4 -28 -11 -62 -17 -77 -14 -36 -13 -37 19 -38 15 -1 46 -4 70 -9 l42 -8 0 82
c0 50 6 96 15 117 15 36 15 36 62 29 50 -7 65 -19 58 -45 -2 -8 -7 -39 -10
-69 l-7 -54 35 6 c20 3 61 0 91 -7 l56 -13 0 103 0 104 58 0 c101 0 104 -3
100 -74 l-3 -61 73 -5 c41 -3 76 -3 78 -1 2 2 4 37 4 77 0 40 4 74 10 76 25 8
122 -5 127 -18z m2000 -225 c163 -12 174 -11 193 6 24 21 28 19 36 -23 l6 -31
-193 2 c-151 1 -203 -2 -234 -13 -49 -19 -53 -43 -7 -50 43 -7 46 -24 5 -28
-48 -5 -60 -33 -34 -83 27 -51 26 -60 -4 -89 -33 -31 -32 -43 10 -63 41 -20
43 -32 13 -84 -18 -30 -24 -58 -28 -145 -3 -59 -10 -112 -16 -118 -6 -6 -27
-8 -50 -4 l-39 6 0 231 c1 172 4 238 14 256 14 24 11 45 -10 98 -10 25 -10 41
1 87 15 63 22 67 110 61 30 -3 133 -10 227 -16z m137 -65 l46 -7 -2 -201 c-1
-164 -3 -182 -7 -96 -6 101 -8 108 -43 161 -46 70 -53 75 -108 83 -35 5 -52 2
-78 -14 -58 -36 -76 -97 -95 -325 l-2 -30 169 1 169 2 -8 -227 c-9 -291 -14
-327 -40 -324 -11 2 -46 6 -78 9 -32 4 -60 11 -64 17 -3 5 5 60 18 123 12 62
20 116 18 119 -3 2 -31 6 -64 7 -57 3 -58 2 -66 -26 -10 -38 -22 -44 -67 -37
-36 6 -37 7 -34 49 3 33 0 42 -12 42 -13 0 -15 15 -10 113 5 91 11 122 31 164
28 61 24 85 -18 105 -27 14 -28 16 -13 29 31 26 36 57 14 107 -23 50 -19 59
25 64 26 3 30 8 33 36 3 28 0 32 -19 32 -29 0 -13 17 21 23 40 7 233 8 284 1z
m88 -66 c3 -35 11 -106 18 -158 12 -83 11 -117 -3 -265 -10 -93 -17 -236 -17
-317 0 -156 -3 -178 -27 -178 -13 0 -14 13 -9 78 3 42 9 263 12 490 4 226 10
412 14 412 5 0 10 -28 12 -62z m-206 -23 c19 -14 19 -14 -3 -30 -12 -8 -29
-22 -37 -30 -18 -19 -46 -113 -53 -183 -4 -38 -11 -56 -25 -63 -10 -5 -22 -8
-26 -5 -12 7 14 206 32 251 15 37 55 74 82 75 5 0 19 -7 30 -15z m62 -62 c33
-48 52 -111 52 -172 l0 -58 -91 -6 c-50 -4 -95 -5 -100 -2 -9 6 -5 36 18 138
16 69 55 127 86 127 9 0 24 -12 35 -27z m-2092 -3 c11 -11 243 -42 312 -41 23
0 61 5 84 11 30 9 109 8 302 0 144 -7 263 -13 264 -15 2 -2 -14 -13 -36 -24
-67 -34 -192 -47 -344 -34 -127 11 -134 11 -150 -8 -16 -19 -17 -19 -63 1
-120 51 -354 -5 -330 -79 4 -12 20 -37 36 -55 l29 -34 -30 -64 c-17 -37 -33
-90 -36 -125 l-7 -62 -44 -7 c-24 -3 -45 -5 -46 -3 -12 20 -47 102 -47 110 0
6 9 22 20 36 24 31 25 58 3 98 -10 20 -18 63 -21 126 l-4 95 43 42 c48 46 50
47 65 32z m1021 -72 l33 -12 0 -147 c0 -80 3 -166 6 -191 l6 -44 -38 -9 c-31
-8 -39 -16 -46 -41 -12 -48 -26 -55 -94 -46 -44 6 -58 12 -55 22 10 42 7 45
-56 48 -56 3 -65 1 -88 -22 -14 -14 -25 -34 -25 -46 0 -17 -6 -20 -49 -20 -47
0 -50 2 -53 27 -4 40 -45 57 -116 48 -45 -6 -62 -13 -89 -40 -18 -18 -33 -42
-33 -54 0 -18 -6 -21 -41 -21 -40 0 -41 1 -34 28 18 64 16 67 -51 64 -42 -3
-63 0 -71 10 -6 7 -18 46 -28 85 -17 72 -17 73 4 108 27 46 26 59 -4 79 -29
19 -41 56 -26 84 27 51 206 70 300 31 l51 -22 17 21 c17 20 22 21 147 10 155
-13 274 0 345 37 55 29 47 28 88 13z m114 -439 c4 -7 1 -28 -6 -46 -17 -40
-18 -40 80 -46 39 -3 77 -6 85 -8 9 -3 19 10 28 39 16 47 32 55 103 50 33 -2
43 -7 40 -18 -2 -8 -5 -31 -8 -51 l-5 -36 56 -7 c71 -9 84 0 88 62 4 55 8 57
116 47 l74 -7 -7 -44 c-5 -33 -3 -44 7 -45 7 0 36 -4 63 -9 57 -9 71 -2 80 41
6 28 9 30 48 27 41 -3 42 -4 40 -39 -1 -19 -20 -117 -42 -218 -39 -176 -54
-291 -39 -307 4 -4 90 1 190 10 210 19 268 20 268 6 0 -5 -7 -10 -15 -10 -8 0
-24 -9 -35 -20 -11 -11 -24 -20 -29 -20 -5 0 -19 -12 -30 -27 -20 -24 -28 -26
-100 -28 -75 -2 -82 -4 -147 -47 -38 -25 -76 -49 -84 -54 -8 -4 -107 -9 -220
-11 -190 -2 -213 0 -311 23 -89 21 -108 29 -113 46 -3 12 -3 25 0 30 7 12 183
10 224 -2 42 -13 220 -13 253 -1 14 6 30 5 41 -1 10 -5 20 -7 24 -4 12 12 -36
35 -138 66 -58 17 -133 40 -166 51 -43 13 -85 19 -140 18 -62 -2 -90 3 -127
20 -27 11 -67 21 -90 22 -23 0 -80 6 -126 13 -51 7 -105 9 -139 5 -63 -9 -92
1 -92 32 0 59 -66 109 -144 109 -39 0 -83 -43 -93 -91 -5 -25 -11 -28 -67 -38
-66 -12 -393 -15 -420 -5 -24 9 -19 24 7 24 55 0 125 76 113 124 -8 31 -84 86
-119 86 -20 0 -38 -10 -58 -31 -25 -27 -29 -39 -29 -88 0 -70 -19 -101 -61
-101 -32 0 -119 45 -119 61 0 25 32 67 59 79 34 14 65 71 57 104 -10 40 -45
75 -82 82 -50 9 -121 -20 -145 -60 -26 -43 -24 -54 17 -92 29 -28 35 -40 32
-66 -3 -31 -6 -34 -58 -44 -30 -7 -62 -15 -71 -18 -10 -5 -29 5 -55 28 -21 20
-54 43 -71 51 -33 16 -33 16 -33 89 0 40 -3 100 -6 133 -6 57 -5 62 17 75 16
10 44 13 87 10 l63 -4 -6 -43 -7 -42 83 -8 c78 -6 85 -5 101 15 10 12 20 43
24 70 l6 48 77 -4 c42 -2 78 -4 79 -4 2 0 -6 -16 -17 -36 -12 -20 -20 -38 -18
-40 6 -7 132 -22 140 -17 4 2 7 29 7 59 l0 54 53 0 c30 0 56 -3 60 -6 3 -4 0
-22 -9 -42 -8 -19 -12 -37 -10 -39 2 -2 29 -7 59 -10 55 -6 56 -5 63 23 16 67
57 94 138 94 59 0 73 -12 59 -49 -6 -16 -9 -31 -8 -33 2 -2 36 -1 77 2 72 5
73 5 76 35 5 39 28 54 85 55 34 0 47 -4 47 -14 0 -8 -4 -18 -10 -21 -5 -3 -10
-10 -10 -14 0 -10 159 -33 172 -25 6 4 19 27 30 52 l20 45 56 -6 c30 -3 59
-12 63 -18z m1029 -335 c87 -12 155 -15 226 -11 85 6 111 3 170 -14 103 -31
122 -33 143 -15 14 13 24 14 52 5 19 -5 66 -14 104 -19 39 -4 91 -16 116 -26
l47 -18 41 28 c49 35 118 49 173 37 22 -5 54 -7 72 -4 22 3 53 -6 109 -32 55
-25 91 -36 125 -35 26 0 63 -1 82 -1 19 -1 47 2 61 6 28 7 109 -11 109 -25 0
-17 -70 -23 -322 -24 -177 -1 -261 -5 -268 -12 -7 -7 -10 -22 -8 -35 2 -19 22
-34 91 -69 147 -77 159 -107 25 -65 -51 16 -94 37 -113 54 -62 59 -87 66 -250
68 -82 2 -208 9 -280 18 -306 34 -385 38 -545 27 -85 -6 -159 -7 -163 -3 -5 5
1 49 13 100 20 83 23 91 43 86 12 -2 78 -12 147 -21z m-4097 -31 c3 -5 1 -18
-4 -30 -6 -17 -16 -23 -38 -23 -20 0 -30 -6 -34 -20 -6 -25 -37 -26 -37 -2 0
21 -42 48 -59 38 -6 -4 -11 -15 -11 -25 0 -10 -18 -37 -40 -61 -22 -24 -40
-48 -40 -55 0 -6 -7 -20 -15 -31 -8 -10 -15 -32 -15 -47 0 -21 -15 -43 -54
-83 -30 -30 -61 -54 -69 -54 -7 0 -35 -11 -60 -24 -26 -13 -47 -20 -47 -15 0
16 41 46 80 58 68 20 103 64 129 163 24 93 64 167 106 194 19 12 39 15 78 12
29 -3 63 -2 77 3 34 10 48 10 53 2z m-261 -18 c3 -3 -9 -35 -26 -70 -18 -34
-38 -89 -45 -122 -7 -32 -20 -70 -29 -85 -14 -24 -105 -78 -131 -78 -15 0 -80
-92 -145 -205 -65 -114 -84 -141 -91 -133 -5 5 22 165 45 268 12 52 70 204
103 270 23 46 93 120 114 120 6 0 13 -5 15 -12 6 -17 28 0 28 22 0 13 9 20 28
23 43 6 128 8 134 2z m138 -90 c11 -3 34 -26 52 -51 33 -46 51 -54 66 -28 13
23 31 -3 38 -57 5 -41 3 -47 -40 -96 -63 -70 -110 -91 -232 -101 -128 -11
-162 -28 -283 -138 -97 -87 -151 -130 -151 -119 0 3 27 52 60 107 33 56 60
106 60 110 0 4 10 8 23 8 12 0 28 9 34 19 7 11 29 25 50 32 21 7 52 21 68 32
44 29 105 105 105 130 0 12 14 40 30 61 17 22 30 44 30 50 0 5 15 25 33 44 23
24 33 29 35 18 2 -8 12 -18 22 -21z m628 16 c41 -11 76 -21 78 -24 2 -2 -28
-19 -66 -37 -53 -24 -78 -30 -98 -25 -15 4 -68 9 -119 11 -79 4 -92 2 -87 -11
4 -8 4 -15 0 -15 -13 0 -119 51 -114 55 2 2 51 11 109 20 57 8 124 21 149 29
59 19 62 19 148 -3z m1202 -11 c0 -6 12 -16 26 -22 20 -10 27 -9 34 2 7 11 20
7 67 -22 32 -20 65 -49 74 -65 10 -18 24 -28 39 -28 38 -1 46 -26 26 -89 -26
-82 -66 -128 -148 -171 -57 -30 -91 -31 -160 -5 -129 48 -200 167 -153 257 8
15 17 40 20 55 7 34 50 76 90 87 42 13 85 13 85 1z m-435 -28 c0 -7 11 -22 25
-32 33 -25 22 -35 -60 -56 -79 -21 -361 -24 -488 -5 -60 9 -102 9 -156 2 -71
-10 -137 -1 -136 17 0 4 29 19 63 35 69 30 144 35 270 17 55 -8 82 -7 135 6
127 31 347 41 347 16z m3160 -26 c257 -31 324 -36 446 -35 105 1 132 -2 170
-18 41 -18 82 -53 63 -53 -5 0 -72 11 -149 25 -174 31 -327 40 -472 27 -76 -7
-127 -7 -160 0 -35 8 -88 7 -193 -3 -80 -7 -170 -13 -200 -14 -50 0 -55 2 -58
24 -2 13 1 28 6 33 27 27 362 36 547 14z m-1359 -42 c91 -30 143 -103 152
-210 l5 -63 -44 -11 c-24 -6 -59 -17 -78 -23 -36 -13 -93 -65 -88 -81 7 -21
27 -16 54 14 30 34 99 70 132 70 31 0 25 -17 -9 -29 -37 -12 -41 -34 -5 -25
14 3 33 3 42 -1 15 -5 12 -9 -14 -20 -23 -10 -38 -26 -49 -54 -11 -29 -22 -41
-36 -41 -11 0 -31 -9 -45 -20 -43 -34 -107 -25 -157 21 -24 23 -35 24 -43 3
-7 -19 -98 -64 -131 -64 -15 0 -26 8 -32 26 -17 44 -11 75 30 159 51 107 127
179 234 224 41 17 80 31 86 31 6 0 9 4 6 9 -8 13 -89 -10 -154 -43 -131 -66
-232 -214 -232 -337 0 -21 -3 -40 -7 -42 -5 -3 -25 2 -46 10 -48 20 -77 73
-77 142 0 27 4 52 9 55 5 3 23 30 39 60 63 111 185 196 338 236 38 9 69 18 70
19 0 0 23 -6 50 -15z m143 -24 c34 -15 73 -22 137 -23 70 -2 115 -10 214 -40
69 -21 129 -42 134 -47 19 -19 -128 -23 -220 -5 -55 10 -124 15 -171 14 l-78
-4 -20 38 c-12 20 -32 48 -45 62 -29 30 -14 32 49 5z m1658 -20 c193 -29 327
-57 393 -81 33 -12 60 -24 60 -27 0 -10 -177 9 -325 34 -103 18 -167 24 -205
20 -193 -21 -182 -22 -236 19 -27 20 -50 41 -52 46 -6 16 233 9 365 -11z m91
-84 c92 -17 108 -31 22 -21 -116 14 -142 12 -150 -11 -5 -12 -3 -31 4 -45 21
-42 51 -50 176 -47 124 4 156 15 178 63 11 23 14 24 79 18 37 -3 70 -7 72 -10
10 -8 -53 -61 -104 -87 -71 -36 -119 -42 -197 -26 -35 7 -110 16 -168 19
l-105 6 -5 55 c-5 53 -6 55 -35 58 -16 1 -41 5 -55 9 -22 5 -18 8 25 19 66 16
172 16 263 0z m-18 -35 c58 -13 120 -14 120 -1 0 12 80 13 99 1 12 -8 12 -13
-2 -34 -39 -59 -294 -57 -310 2 -6 26 11 53 31 47 9 -3 37 -10 62 -15z m-530
-22 c48 -5 108 -21 139 -35 62 -28 71 -29 71 -9 0 18 5 18 33 4 33 -17 77 -61
77 -76 0 -17 -45 -107 -72 -146 -13 -18 -26 -26 -35 -22 -12 4 -14 0 -10 -17
8 -29 -20 -74 -60 -99 -26 -16 -47 -20 -105 -18 -71 3 -158 30 -158 49 0 10
217 121 313 160 52 21 73 40 47 40 -15 0 -231 -86 -329 -131 -57 -26 -88 -36
-95 -29 -5 5 -7 12 -5 15 3 2 86 38 184 79 99 41 181 80 184 87 2 8 -2 10 -15
5 -70 -29 -361 -126 -377 -126 -12 0 -17 6 -15 17 2 12 36 26 118 51 63 19
117 36 119 38 15 14 -20 12 -119 -6 -139 -25 -140 -25 -140 0 0 11 4 20 9 20
20 0 299 31 329 36 17 4 32 10 32 15 0 10 -115 10 -264 0 -76 -5 -100 -3 -104
7 -2 7 -2 15 1 19 3 3 89 5 191 4 112 -1 186 2 186 8 0 5 -8 12 -17 15 -38 11
-178 26 -243 26 -71 0 -100 6 -100 21 0 12 127 11 230 -2z"/>
<path d="M4074 2749 c-14 -16 -19 -35 -19 -83 1 -89 5 -96 62 -96 84 0 93 6
93 59 0 29 -9 64 -22 91 -20 39 -28 45 -59 48 -26 2 -40 -3 -55 -19z"/>
<path d="M3766 2658 c-7 -13 -17 -55 -20 -95 -7 -70 -6 -72 17 -78 13 -4 43
-5 68 -3 l44 3 0 70 c0 54 -4 76 -20 97 -26 35 -69 37 -89 6z"/>
<path d="M3368 2603 c-29 -33 -38 -62 -38 -116 0 -78 19 -93 97 -77 82 17 93
25 93 64 0 100 -102 186 -152 129z"/>
<path d="M3092 2580 c-33 -14 -54 -74 -56 -155 l-1 -70 45 -5 c51 -6 100 4
112 22 11 18 -1 137 -18 170 -8 15 -23 32 -33 38 -22 12 -19 12 -49 0z m37
-37 c17 -14 23 -33 28 -90 l6 -73 -47 -1 c-25 -1 -52 -2 -58 -3 -23 -2 -3 137
25 172 13 16 21 15 46 -5z"/>
<path d="M3845 1687 c-130 -57 -206 -121 -252 -210 -31 -62 -42 -166 -22 -212
13 -29 14 -28 19 45 4 41 7 60 8 43 3 -47 18 -41 26 10 20 125 126 239 278
296 20 8 25 15 21 30 -7 26 -15 26 -78 -2z"/>
<path d="M6478 1400 c-261 -44 -490 -256 -552 -511 -20 -83 -21 -227 -1 -304
35 -132 143 -250 297 -324 257 -121 397 -88 580 140 59 73 119 179 132 232 3
15 10 27 15 27 15 0 72 63 91 100 18 36 61 178 79 261 14 64 0 104 -56 162
-176 179 -373 252 -585 217z m77 -30 c-5 -17 0 -23 29 -35 19 -8 45 -15 56
-15 25 0 37 25 21 44 -20 23 0 25 76 6 90 -23 128 -46 111 -67 -9 -12 -8 -22
7 -49 30 -56 125 -85 112 -34 -8 31 5 24 61 -32 52 -52 57 -63 46 -92 -8 -20
-34 -21 -34 -2 0 8 -9 24 -19 37 -19 23 -19 24 -40 5 -13 -11 -21 -32 -21 -50
0 -17 -7 -39 -15 -50 -14 -18 -15 -18 -47 1 -18 10 -47 41 -65 68 -47 75 -73
106 -101 118 -21 10 -27 8 -46 -16 l-22 -28 -19 21 c-37 41 -143 67 -160 40
-4 -7 -28 -8 -66 -4 -57 6 -59 6 -69 -20 -9 -23 -15 -26 -62 -26 -59 -1 -85
-17 -112 -68 -13 -25 -23 -32 -45 -32 -37 0 -81 -35 -81 -65 0 -13 5 -25 11
-27 7 -2 1 -20 -17 -47 -59 -89 -66 -102 -60 -117 4 -10 14 -14 26 -11 24 6
25 -8 4 -58 -8 -21 -14 -57 -12 -83 2 -38 8 -49 28 -59 20 -10 25 -21 27 -51
1 -48 27 -101 54 -110 11 -4 27 -23 37 -42 11 -23 24 -35 37 -35 11 0 33 -9
48 -19 24 -17 31 -17 55 -5 43 21 102 18 130 -5 32 -29 53 -35 81 -25 18 7 22
14 17 33 -5 22 -2 24 37 30 23 3 51 6 62 6 22 1 55 27 55 44 0 6 15 18 33 26
22 10 35 26 43 50 6 19 21 39 32 45 29 13 45 60 30 85 -9 14 -8 21 5 35 21 21
21 38 1 77 -15 28 -15 32 0 40 9 5 16 18 16 29 0 29 -27 77 -47 84 -10 3 -27
20 -38 38 -12 18 -29 32 -40 32 -11 0 -21 8 -23 19 -3 15 -10 17 -35 12 -26
-5 -35 -2 -52 20 -20 25 -27 26 -115 29 -70 2 -101 -1 -118 -12 -23 -14 -62
-10 -62 7 0 18 74 60 125 71 64 14 135 1 225 -42 74 -35 175 -133 230 -225 33
-56 35 -62 35 -154 0 -91 -1 -98 -39 -168 -41 -76 -158 -218 -217 -263 -19
-14 -53 -36 -76 -48 -146 -74 -455 51 -585 237 -90 129 -96 346 -16 531 61
140 227 295 369 347 51 18 154 42 187 43 19 1 22 -3 17 -19z m47 -203 c24 -18
49 -36 55 -40 16 -10 53 10 53 28 0 27 28 16 59 -24 17 -21 31 -43 31 -49 0
-19 43 -63 82 -83 35 -18 44 -19 70 -8 33 13 50 45 41 78 -7 27 18 28 35 1 7
-11 18 -20 25 -20 7 0 18 9 25 20 7 11 17 20 23 20 17 0 6 -62 -34 -198 -28
-95 -45 -134 -73 -168 -20 -24 -40 -42 -44 -39 -4 3 -10 29 -12 59 -6 76 -49
152 -136 246 -58 63 -89 87 -145 114 -40 19 -85 38 -100 42 -19 4 -26 11 -23
21 3 8 6 19 6 24 0 16 18 10 62 -24z m-397 -97 c3 -6 0 -13 -9 -16 -21 -8 -28
-32 -15 -55 9 -17 4 -27 -25 -60 -38 -41 -43 -58 -25 -76 9 -9 9 -26 0 -69
-13 -65 -14 -134 -3 -149 4 -5 16 -15 27 -21 11 -6 25 -21 32 -34 13 -26 48
-49 75 -50 10 0 32 -9 50 -20 56 -34 93 -24 193 50 97 72 115 105 115 204 0
56 -4 68 -38 117 -68 97 -140 126 -218 89 -52 -26 -96 -92 -98 -147 -1 -46 19
-54 28 -12 8 43 49 95 84 107 47 16 105 -15 125 -67 30 -74 23 -107 -32 -162
-60 -61 -87 -63 -182 -13 -49 26 -71 44 -75 61 -11 44 3 113 38 180 29 57 41
70 85 93 45 24 62 27 139 25 79 -2 89 -4 107 -26 12 -15 29 -23 50 -24 l32 0
-3 -52 c-3 -42 -1 -53 11 -53 9 0 17 14 21 35 8 41 18 44 40 10 21 -33 20 -57
-4 -78 -29 -24 -25 -37 9 -31 23 5 32 2 41 -16 17 -31 5 -50 -30 -50 -33 0
-41 -19 -11 -27 22 -6 46 -46 37 -62 -4 -6 -16 -11 -26 -11 -27 0 -34 -17 -16
-36 20 -19 20 -34 0 -62 -18 -26 -32 -28 -49 -6 -9 14 -16 14 -33 5 -28 -15
-28 -31 -1 -38 29 -8 22 -47 -10 -51 -13 -2 -28 1 -34 7 -6 6 -17 11 -24 11
-16 0 -17 -37 -1 -42 6 -2 9 -12 5 -21 -8 -22 -56 -22 -72 -1 -10 15 -13 15
-29 -1 -16 -16 -16 -19 0 -42 13 -20 13 -27 3 -33 -16 -10 -38 -2 -67 23 -28
26 -109 32 -134 10 -10 -9 -24 -13 -33 -10 -19 8 -55 66 -55 90 0 11 -5 17
-12 14 -7 -2 -12 -16 -10 -31 1 -14 -1 -26 -6 -26 -14 0 -43 102 -36 128 5 16
2 22 -10 22 -12 0 -16 -10 -16 -36 0 -30 -3 -34 -14 -25 -20 17 -27 69 -15
113 12 45 4 62 -16 34 -8 -11 -21 -16 -30 -13 -22 9 -19 75 5 137 27 68 26 73
-10 65 -17 -4 -30 -2 -30 3 0 9 32 54 57 80 6 6 15 21 18 32 3 11 11 20 16 20
5 0 9 7 9 15 0 8 -7 15 -15 15 -33 0 -7 54 30 63 37 9 84 7 90 -3z m63 -67
c-2 -5 -19 -39 -38 -78 -41 -84 -51 -162 -26 -200 20 -31 145 -95 184 -95 37
0 111 56 137 103 16 31 18 43 9 87 -6 27 -7 50 -3 50 13 0 29 -62 29 -111 0
-40 -5 -55 -32 -84 -47 -54 -102 -79 -175 -79 -70 -1 -97 14 -150 83 -28 36
-33 51 -33 97 0 85 58 234 92 234 5 0 8 -3 6 -7z m239 -54 c17 -11 45 -41 62
-68 27 -42 31 -57 31 -117 0 -89 -23 -124 -126 -193 -83 -56 -107 -61 -162
-31 -20 10 -49 22 -64 25 -17 3 -34 17 -43 36 -9 16 -27 35 -40 41 -20 9 -25
19 -25 50 0 43 15 51 24 13 11 -42 86 -112 136 -125 38 -11 55 -10 109 4 103
26 159 79 168 159 11 91 -35 174 -120 216 -36 19 -38 21 -12 16 17 -4 44 -15
62 -26z"/>
<path d="M1273 1269 c-23 -4 -83 -24 -133 -45 -197 -79 -317 -164 -381 -267
-29 -46 -32 -60 -32 -125 1 -118 63 -224 184 -318 78 -60 235 -137 321 -158
264 -65 679 8 817 143 23 23 54 67 69 99 25 53 27 66 27 187 -1 234 -40 284
-315 400 -36 15 -119 43 -184 61 -104 30 -134 34 -225 33 -58 -1 -125 -5 -148
-10z m312 -25 c88 -22 125 -35 125 -43 0 -4 -16 -26 -35 -48 -42 -49 -45 -66
-10 -57 14 3 25 2 25 -3 0 -6 -23 -40 -50 -77 -28 -36 -46 -66 -40 -66 6 0 42
16 81 36 83 41 107 41 48 -1 -22 -17 -49 -38 -60 -47 -10 -9 -37 -22 -61 -29
-93 -24 -120 -56 -82 -94 15 -15 15 -17 -5 -22 -21 -5 -30 -23 -10 -23 5 0 7
-5 4 -10 -5 -8 -11 -7 -20 0 -25 21 -32 1 -27 -71 5 -72 5 -72 -18 -66 -13 3
-35 0 -49 -7 -92 -47 -131 -55 -176 -34 -26 11 -32 32 -16 57 7 11 11 9 20 -8
16 -29 26 -26 42 12 17 44 66 105 89 112 11 4 20 13 20 22 0 9 -6 13 -15 10
-8 -4 -17 -2 -20 3 -4 6 -2 10 3 10 17 0 21 40 6 55 -22 21 -81 35 -155 35
-66 0 -129 -15 -129 -30 0 -5 -3 -16 -6 -24 -10 -25 57 -47 163 -53 82 -5 91
-8 74 -19 -11 -8 -29 -30 -41 -49 -15 -25 -29 -35 -46 -35 -14 0 -47 -11 -74
-25 -58 -29 -66 -21 -15 14 70 48 14 59 -103 20 -34 -11 -68 -18 -75 -16 -7 3
-5 6 6 6 11 1 17 9 17 25 0 19 7 25 36 31 49 9 85 26 81 39 -4 12 -51 12 -166
1 -63 -7 -75 -5 -83 9 -5 9 -16 16 -24 16 -17 0 -29 28 -38 93 -6 37 -4 54 10
75 46 74 168 157 334 229 83 36 121 47 240 67 40 7 160 -4 225 -20z m225 -70
c203 -82 270 -134 300 -232 25 -79 28 -223 8 -292 -18 -58 -38 -61 -161 -22
-139 45 -154 47 -166 23 -7 -11 -30 -25 -53 -32 -35 -9 -44 -8 -53 4 -6 9 -45
33 -86 55 -76 40 -101 72 -56 72 28 0 94 -45 126 -86 15 -19 25 -24 32 -17 18
18 1 50 -47 89 -24 20 -42 40 -39 44 2 4 31 13 64 20 83 17 135 49 139 83 2
18 9 27 21 27 10 0 24 7 31 15 6 8 37 21 68 31 75 21 112 41 112 59 0 9 -9 15
-21 15 -33 0 -222 -60 -240 -76 -8 -8 -29 -14 -45 -14 l-29 0 43 40 c63 58 34
82 -48 40 -59 -30 -64 -25 -25 26 41 54 42 60 15 74 -20 11 -20 12 7 45 16 19
31 35 34 35 3 0 34 -12 69 -26z m-690 -483 c0 -5 -15 -19 -34 -30 -36 -23 -52
-49 -39 -62 5 -5 33 5 63 21 71 38 81 38 74 1 -5 -24 -1 -32 22 -47 33 -22 96
-24 141 -4 29 13 34 12 45 -2 7 -9 22 -18 32 -20 11 -1 21 -10 23 -18 4 -12 3
-13 -5 -1 -22 31 -62 -17 -62 -75 0 -26 -27 -64 -47 -64 -8 0 -13 13 -13 35 0
41 -16 46 -32 11 -15 -35 -33 -39 -81 -16 -22 11 -49 20 -58 20 -10 0 -39 11
-65 25 -26 14 -60 25 -76 25 -38 0 -101 44 -166 115 -51 56 -68 93 -36 81 9
-3 34 -6 57 -7 23 0 36 -3 30 -6 -22 -8 -14 -33 10 -33 19 0 135 32 202 55 6
2 11 4 13 4 1 1 2 -3 2 -8z m423 -48 c46 -24 110 -35 212 -37 64 -2 109 -9
154 -25 35 -12 87 -25 115 -28 l50 -6 -49 -44 c-60 -52 -163 -97 -293 -125
-78 -18 -131 -22 -272 -22 -158 -1 -182 1 -247 23 -40 13 -80 29 -90 37 -17
13 -17 13 2 14 11 0 30 -7 42 -15 30 -21 100 -30 118 -15 12 10 15 10 15 -4 0
-23 27 -31 54 -16 20 10 28 9 48 -4 34 -22 56 -11 68 32 23 84 3 162 -41 162
-14 0 -19 5 -17 18 3 13 12 16 36 14 29 -3 33 0 38 27 7 36 13 37 57 14z"/>
<path d="M3040 1071 c-55 -9 -104 -33 -148 -75 -64 -60 -72 -100 -51 -252 10
-71 9 -78 -8 -87 -32 -19 -73 -69 -73 -91 0 -16 21 -33 90 -74 49 -28 112 -72
140 -97 44 -39 54 -44 71 -34 23 12 49 66 49 103 0 22 5 25 63 31 140 15 177
36 222 125 40 80 53 197 24 216 -5 3 -9 15 -9 28 0 36 -72 128 -131 165 -69
46 -135 57 -239 42z m27 -38 c-3 -10 -30 -99 -62 -198 -31 -99 -62 -206 -70
-239 l-14 -58 32 -29 c24 -23 27 -29 14 -29 -31 0 -77 29 -82 53 -18 84 -42
341 -34 370 17 62 123 145 188 146 27 1 32 -2 28 -16z m172 0 c21 -18 21 -19
-126 -241 -80 -122 -148 -221 -150 -219 -4 4 108 266 172 405 29 60 38 72 58
72 14 0 34 -8 46 -17z m81 -58 c27 -29 40 -9 -115 -180 -151 -166 -199 -214
-183 -184 30 58 254 388 264 388 6 1 21 -10 34 -24z m60 -74 c21 -41 9 -56
-151 -180 -88 -68 -162 -122 -164 -120 -2 3 32 42 76 89 44 47 110 118 147
158 36 39 69 72 74 72 4 0 12 -9 18 -19z m35 -102 c15 -46 -1 -64 -107 -119
-57 -29 -143 -75 -191 -101 -49 -27 -87 -44 -85 -39 3 10 360 279 370 280 4 0
10 -9 13 -21z"/>
<path d="M4747 1055 c-50 -17 -135 -92 -217 -189 -36 -43 -73 -82 -82 -87 -11
-6 -47 -4 -101 5 -200 35 -570 47 -597 20 -17 -17 -2 -41 33 -55 98 -39 249
-116 304 -155 53 -38 62 -48 52 -60 -22 -26 -227 -174 -321 -230 -134 -81
-172 -120 -147 -150 23 -28 127 -9 369 66 186 58 385 109 447 115 83 9 103 3
257 -70 394 -187 417 -195 445 -161 17 20 1 52 -58 116 -50 54 -176 223 -200
269 -7 12 -10 25 -8 28 17 17 579 113 660 113 57 0 77 8 77 30 0 24 -71 53
-205 83 -160 37 -210 40 -429 27 -109 -6 -200 -9 -203 -6 -3 3 3 67 13 142 18
133 18 137 -1 150 -23 17 -39 17 -88 -1z m75 -83 c-1 -40 -9 -86 -17 -102 -19
-37 -19 -104 -1 -120 11 -9 43 -9 128 -2 227 18 343 15 474 -13 140 -29 226
-57 232 -73 2 -8 -11 -12 -42 -12 -50 0 -367 -49 -528 -81 -60 -12 -119 -18
-140 -15 -21 3 -56 9 -78 12 -26 4 -40 11 -40 21 0 8 -7 13 -17 11 -10 -2 -18
-10 -18 -18 0 -13 10 -20 76 -50 17 -8 25 -18 22 -29 -5 -20 28 -61 50 -61 8
0 45 -41 82 -91 37 -51 86 -112 109 -138 39 -42 66 -81 66 -95 0 -3 -15 -6
-32 -6 -25 0 -46 12 -87 50 -30 28 -61 50 -69 50 -16 0 -98 46 -132 74 -41 34
-68 46 -105 46 -27 0 -39 7 -57 31 -19 25 -102 79 -123 79 -9 0 -5 -40 5 -61
9 -16 7 -19 -14 -19 -14 0 -27 4 -31 9 -9 15 -117 6 -150 -12 -16 -9 -40 -17
-53 -17 -13 0 -33 -5 -45 -12 -12 -6 -38 -15 -57 -19 -68 -15 -147 -38 -292
-83 -80 -25 -156 -46 -169 -46 -12 0 -30 -7 -39 -15 -18 -17 -50 -11 -50 10 0
17 23 35 119 94 46 29 90 50 98 47 7 -3 68 26 136 64 67 39 129 70 137 70 9 0
7 -5 -8 -16 -41 -28 -12 -34 45 -9 30 14 60 25 65 25 5 0 42 16 83 35 69 32
90 54 66 69 -10 6 -66 -14 -122 -44 -48 -26 -69 -26 -36 0 14 11 31 20 37 20
7 0 24 6 38 14 153 81 204 86 293 26 38 -26 59 -48 59 -60 0 -11 10 -25 23
-31 56 -29 106 -65 107 -76 0 -7 12 -20 28 -30 15 -10 44 -30 64 -46 20 -16
42 -27 48 -25 12 4 -22 49 -90 119 -25 25 -53 57 -62 71 -9 14 -30 28 -45 31
-31 6 -120 102 -104 112 5 3 34 7 63 9 29 3 66 9 81 15 16 6 43 11 61 11 19 0
64 7 102 14 38 8 86 18 107 21 68 11 38 22 -55 21 -51 -1 -109 -7 -128 -14
-42 -14 -215 -33 -235 -26 -7 3 -11 12 -8 20 3 9 -2 14 -16 14 -31 0 -26 27
14 76 39 47 81 132 70 142 -11 11 -39 -13 -57 -49 -10 -19 -33 -50 -52 -70
-19 -20 -39 -46 -45 -57 -6 -11 -31 -30 -56 -42 l-46 -22 -112 20 c-216 40
-314 51 -303 33 3 -5 23 -12 43 -16 21 -3 48 -13 60 -21 12 -8 62 -23 110 -34
134 -31 171 -50 124 -65 -10 -3 -67 -35 -125 -70 -148 -90 -216 -127 -216
-118 0 4 28 28 61 52 34 24 63 50 66 58 3 8 -9 27 -28 44 l-34 30 40 -6 c22
-4 51 -9 64 -12 17 -4 22 -2 19 8 -3 8 -11 14 -19 15 -8 1 -31 8 -51 18 -21 9
-42 16 -47 16 -5 0 -22 11 -38 24 -30 25 -68 37 -123 40 -44 1 -191 58 -186
71 5 18 415 9 548 -12 87 -14 124 -16 141 -9 13 6 49 40 79 76 124 148 207
212 268 207 24 -2 25 -4 22 -75z m-468 -273 l108 -22 40 22 c49 26 52 26 45 2
-6 -26 32 -45 77 -38 36 6 50 -6 21 -17 -21 -8 -19 -34 5 -48 11 -7 20 -16 20
-21 0 -10 -53 18 -69 37 -21 25 -135 22 -168 -4 -36 -28 -51 -25 -24 4 l23 24
-31 16 c-16 9 -67 25 -112 36 -150 35 -104 42 65 9z"/>
</g>
</svg>
