<?xml version="1.0" standalone="no"?>
<!DOCTYPE svg PUBLIC "-//W3C//DTD SVG 20010904//EN"
 "http://www.w3.org/TR/2001/REC-SVG-20010904/DTD/svg10.dtd">
<svg version="1.0" xmlns="http://www.w3.org/2000/svg"
 width="792.000000pt" height="612.000000pt" viewBox="0 0 792.000000 612.000000"
 preserveAspectRatio="xMidYMid meet">
<metadata>
Created by potrace 1.16, written by Peter Selinger 2001-2019
</metadata>
<g transform="translate(0.000000,612.000000) scale(0.100000,-0.100000)"
fill="#000000" stroke="none">
<path d="M6300 5943 c0 -33 78 -494 85 -501 6 -7 94 8 99 16 5 8 -157 471
-174 501 -7 12 -9 9 -10 -16z"/>
<path d="M4189 5884 c-10 -12 -10 -22 -1 -47 6 -17 9 -33 7 -36 -3 -2 -31 -7
-63 -9 -56 -4 -60 -3 -106 37 -26 23 -50 41 -52 41 -14 0 -64 -61 -59 -71 4
-5 -1 -17 -11 -25 -18 -13 -18 -15 5 -34 14 -12 31 -18 42 -15 14 5 32 -8 69
-48 27 -30 63 -60 80 -67 24 -10 30 -19 30 -41 0 -16 -3 -29 -7 -29 -5 0 -57
8 -117 17 l-109 17 -28 62 c-24 52 -32 61 -49 57 -24 -6 -24 -9 -5 -63 19 -53
19 -53 -5 -40 -11 6 -29 29 -40 50 -14 28 -27 40 -41 40 -22 0 -22 -8 -4 -66
6 -18 3 -20 -29 -16 -31 4 -36 1 -36 -17 0 -17 8 -22 41 -27 32 -5 39 -10 34
-23 -16 -40 -17 -77 -1 -90 20 -17 32 -8 46 37 16 47 27 59 41 45 8 -8 8 -17
0 -31 -8 -15 -6 -23 8 -36 24 -22 26 -21 45 22 l17 38 120 -19 c110 -18 119
-22 119 -42 0 -20 -7 -23 -112 -34 -741 -80 -1696 -241 -2091 -352 -183 -52
-170 -45 -332 -188 -73 -65 -472 -396 -597 -495 l-137 -109 -7 -56 c-22 -184
-127 -495 -254 -756 -78 -161 -112 -222 -232 -416 l-66 -106 34 -54 c20 -31
44 -56 56 -59 20 -5 29 -36 100 -345 43 -187 92 -398 108 -470 123 -527 139
-600 127 -604 -7 -2 -64 -31 -127 -64 -252 -131 -358 -233 -302 -289 25 -26
285 -85 412 -94 91 -6 150 -20 150 -34 0 -5 -24 -21 -53 -35 -64 -30 -89 -55
-90 -90 0 -31 26 -61 73 -85 114 -58 439 -109 795 -125 465 -20 602 -28 617
-36 10 -6 16 -20 16 -40 -2 -57 58 -74 264 -74 156 0 157 0 138 -20 -35 -37
-35 -71 -3 -104 64 -63 209 -78 608 -61 535 23 1256 13 1510 -21 39 -5 158
-12 265 -15 292 -10 594 19 800 76 41 11 109 25 150 30 41 5 116 15 165 21
121 15 212 44 226 71 18 34 -22 60 -168 108 -70 23 -139 48 -153 56 -24 13
-23 13 26 14 74 0 112 -9 117 -30 4 -16 8 -17 58 -4 29 8 73 14 98 14 28 0 51
6 63 17 18 16 19 15 34 -5 12 -17 25 -22 62 -22 26 0 72 -6 101 -14 50 -13 54
-13 58 5 3 11 13 19 23 19 10 0 20 5 22 11 2 7 36 14 81 17 92 6 93 7 83 142
-6 83 -5 88 14 93 21 5 21 3 14 -104 -8 -129 -3 -139 65 -139 25 0 70 -7 100
-15 51 -13 53 -13 58 6 3 11 14 19 25 19 17 0 19 4 13 27 -17 71 -57 97 -143
91 l-52 -3 0 79 c0 76 1 80 35 118 l35 39 6 -31 c8 -38 17 -38 46 0 13 17 48
56 78 88 66 69 103 141 124 244 30 145 11 386 -39 496 -14 30 -25 58 -25 63 0
15 87 21 124 9 56 -18 95 -82 111 -182 3 -22 12 -38 19 -38 15 0 86 128 86
156 0 16 1 16 20 -1 18 -17 20 -17 26 -1 9 25 -3 115 -18 134 -10 12 -10 16 0
19 22 8 13 30 -27 66 -54 49 -114 58 -195 29 -55 -19 -61 -19 -72 -4 -19 27
-55 -1 -98 -74 -36 -64 -37 -64 -82 -64 -41 0 -45 2 -39 20 4 11 2 20 -4 20
-6 0 -11 -7 -11 -15 0 -10 -10 -15 -28 -15 -24 0 -28 4 -27 28 0 20 -5 27 -19
27 -11 0 -21 -6 -24 -14 -3 -10 0 -12 12 -8 13 5 17 2 14 -11 -3 -15 -18 -17
-116 -20 -71 -2 -111 1 -108 7 4 5 2 12 -4 16 -5 3 -10 3 -10 -2 0 -4 -5 -15
-10 -23 -8 -13 -11 -12 -24 5 -15 20 -15 20 -16 -1 0 -17 -8 -23 -41 -28 -57
-9 -92 -29 -178 -98 -62 -51 -77 -59 -102 -54 -38 7 -125 -11 -145 -31 -17
-18 -19 -17 -29 15 -5 19 -3 23 12 22 49 -6 63 0 63 24 0 15 7 26 20 29 16 4
20 14 20 47 0 36 2 41 18 35 9 -4 51 -10 92 -12 69 -4 78 -2 117 23 66 44 90
129 63 226 -13 45 -41 57 -78 32 -21 -14 -47 -18 -119 -19 -92 0 -93 0 -125
34 -22 22 -29 35 -20 38 6 3 12 13 12 23 0 10 10 20 21 23 19 5 21 11 15 41
-4 23 -3 36 4 36 5 0 10 5 10 10 0 6 -9 10 -21 10 -16 0 -19 4 -14 20 8 25 -6
51 -14 28 -5 -15 -8 -15 -26 -2 -20 15 -20 16 5 36 40 33 121 66 181 73 64 8
159 -12 224 -47 96 -52 118 -61 158 -65 23 -2 53 2 66 9 33 18 64 72 56 98 -6
20 -7 20 -27 -5 -45 -57 -98 -51 -194 22 -80 60 -119 79 -189 92 -157 29 -312
-5 -433 -96 -49 -37 -56 -40 -105 -35 -37 3 -67 14 -104 38 -122 80 -214 102
-351 85 -53 -7 -115 -11 -137 -10 -37 4 -41 7 -53 47 -16 50 -26 53 -41 11
-17 -48 -13 -75 13 -106 23 -27 27 -27 167 -34 199 -10 321 -49 240 -77 -24
-8 -31 -7 -35 4 -3 9 -11 12 -16 9 -8 -5 -7 -11 1 -21 15 -18 -3 -19 -31 -2
-25 16 -46 -2 -35 -29 8 -17 8 -17 12 0 5 18 18 23 27 9 3 -5 -8 -22 -24 -37
-47 -45 -65 -127 -25 -111 8 3 17 -4 20 -15 4 -10 11 -19 16 -19 15 0 -39 -44
-81 -66 -53 -28 -154 -26 -203 5 -33 20 -42 22 -61 11 -40 -21 -57 -113 -35
-181 32 -96 135 -141 249 -109 l35 9 -32 -27 c-89 -77 -98 -227 -15 -261 23
-10 52 -46 52 -65 0 -2 -75 -6 -167 -9 -93 -3 -223 -11 -290 -18 -68 -7 -126
-10 -129 -7 -3 4 62 309 144 679 l149 673 84 18 c46 10 119 22 163 27 56 6 84
14 98 28 19 20 19 21 -42 142 -190 380 -309 788 -336 1151 -7 105 -7 103 -84
187 -30 32 -86 95 -125 138 -38 43 -80 89 -92 102 -24 27 -112 127 -223 253
-42 47 -116 132 -165 190 -50 58 -92 107 -95 110 -10 9 -146 175 -178 216 -17
23 -32 52 -32 64 0 21 3 22 38 16 20 -3 72 -11 115 -18 l77 -12 0 -38 c0 -51
15 -49 97 9 l66 47 -69 63 c-38 35 -73 61 -79 60 -5 -2 -11 -21 -13 -43 l-3
-40 -114 20 -115 19 0 37 c0 33 4 38 40 54 47 21 64 47 57 90 -3 17 -7 40 -9
51 -2 15 5 22 32 31 43 14 48 27 15 42 -14 7 -28 19 -31 27 -8 20 -56 45 -87
45 -14 0 -30 -7 -38 -16z m106 -39 c40 -40 42 -45 15 -45 -28 0 -45 -36 -30
-65 6 -12 10 -35 8 -51 -2 -23 -12 -34 -48 -52 -78 -40 -160 -12 -226 78 -21
30 -35 40 -51 37 -30 -5 -54 9 -30 18 12 5 14 12 8 24 -7 12 -3 22 15 38 23
21 26 21 42 5 65 -65 123 -79 198 -47 34 14 35 15 20 37 -45 64 19 83 79 23z
m-437 -230 c19 -42 30 -55 52 -60 82 -18 541 -91 545 -87 3 3 5 21 5 40 0 41
5 39 65 -17 l47 -44 -29 -23 c-15 -12 -40 -30 -55 -39 l-28 -16 0 35 c0 30 -4
35 -27 40 -85 18 -504 86 -527 86 -20 0 -30 -8 -43 -35 -20 -41 -36 -37 -20 5
13 34 12 36 -25 45 -26 7 -29 3 -49 -41 -23 -52 -37 -46 -21 8 13 40 10 85 -7
116 -7 13 -11 26 -8 28 5 5 47 -62 47 -75 0 -10 61 -24 68 -16 5 4 -9 55 -24
93 -3 6 -2 12 3 12 4 0 19 -25 31 -55z m282 -214 c0 -5 -46 -52 -102 -104
-186 -171 -146 -152 -363 -176 -254 -29 -518 -67 -1080 -157 -258 -41 -553
-88 -655 -104 -102 -16 -157 -27 -122 -24 35 3 233 32 440 65 665 105 933 147
1089 168 212 30 487 61 492 56 2 -3 -8 -14 -23 -26 -14 -11 -32 -26 -39 -33
-6 -6 -77 -66 -157 -133 l-146 -121 -139 -19 c-77 -10 -131 -19 -120 -21 11
-1 67 4 125 12 58 7 106 12 108 11 3 -3 -259 -211 -385 -306 l-74 -56 -197 -7
c-221 -8 -457 -24 -862 -61 -386 -35 -637 -53 -835 -61 -153 -6 -169 -5 -155
9 8 9 79 67 158 131 142 113 144 115 205 120 134 13 139 14 56 12 -68 -2 -86
1 -82 11 3 7 8 13 12 13 3 0 58 45 121 100 115 98 115 99 180 105 36 4 88 11
115 15 40 7 35 8 -30 4 -44 -3 -91 -8 -105 -11 -24 -4 -23 -3 10 29 67 62 162
143 184 155 12 6 78 28 147 47 325 93 886 196 1579 290 552 75 650 85 650 67z
m116 -73 c32 -40 126 -152 208 -248 127 -148 239 -275 667 -753 l46 -52 7 -95
c27 -364 142 -757 336 -1153 57 -117 57 -118 37 -132 -12 -8 -33 -15 -47 -15
-24 0 -33 13 -97 148 -110 228 -160 365 -223 608 -46 179 -74 334 -90 504
l-12 125 -132 144 c-72 79 -139 154 -149 165 -10 12 -37 41 -60 66 -23 25 -78
86 -122 135 -44 50 -103 115 -132 145 -70 75 -107 117 -215 242 -51 59 -97
107 -103 107 -5 1 -23 -12 -40 -27 -284 -261 -593 -518 -846 -702 -56 -41
-128 -93 -158 -116 l-56 -41 -39 -154 c-111 -447 -279 -924 -432 -1231 -40
-81 -166 -288 -174 -288 -3 0 -23 21 -44 46 -34 40 -36 47 -24 62 22 25 99
155 154 257 167 309 324 729 425 1139 21 88 39 167 39 175 0 9 27 35 59 59
123 88 603 475 737 591 22 20 71 63 109 96 38 33 120 106 182 163 62 56 117
102 122 102 5 0 35 -33 67 -72z m261 -465 c187 -208 386 -429 443 -491 56 -62
101 -114 99 -116 -11 -10 -92 -57 -147 -86 l-63 -33 -21 24 c-12 13 -47 51
-77 84 -94 102 -150 162 -326 355 -93 102 -174 190 -180 196 -14 15 -196 212
-228 248 -15 16 -27 31 -27 34 0 10 165 161 176 162 6 0 164 -170 351 -377z
m-496 150 c23 -27 88 -97 143 -158 56 -60 130 -141 166 -180 35 -38 83 -90
106 -115 24 -25 51 -54 61 -66 18 -21 171 -187 284 -308 55 -59 57 -62 63
-131 39 -411 152 -822 311 -1134 30 -59 55 -116 54 -127 0 -10 -69 -327 -152
-703 l-152 -683 -167 -59 c-93 -32 -168 -54 -168 -49 0 4 20 136 45 292 181
1125 186 1158 169 1182 -40 62 -204 94 -519 103 -514 13 -1018 -46 -1258 -149
l-49 -21 7 -86 c50 -675 97 -1070 181 -1541 15 -80 30 -153 35 -162 11 -21 -9
-36 -91 -69 -93 -37 -295 -98 -302 -90 -22 20 -107 537 -223 1341 -47 327 -85
605 -85 618 0 13 20 56 44 96 185 305 412 912 541 1446 l28 116 65 44 c133 91
673 515 712 560 14 16 95 80 101 80 3 0 26 -21 50 -47z m-1061 -621 c0 -22
-74 -325 -89 -364 -8 -21 -18 -28 -38 -29 l-28 -2 28 -4 c15 -2 27 -6 27 -8 0
-10 -111 -341 -118 -352 -6 -9 -45 -10 -167 -2 -100 7 -420 8 -850 4 -601 -5
-995 1 -1011 17 -2 3 19 66 46 141 28 75 50 143 50 152 0 9 10 20 22 25 17 6
19 9 6 9 -11 1 -15 6 -12 15 3 8 18 75 33 148 l26 133 170 7 c235 10 454 25
765 53 566 51 839 70 1043 74 88 1 97 -1 97 -17z m2121 -268 c37 -381 164
-812 345 -1174 24 -46 30 -67 21 -71 -7 -3 -52 -14 -102 -23 -49 -9 -97 -19
-106 -22 -11 -3 -28 20 -61 83 -121 230 -214 514 -268 813 -19 110 -50 336
-50 372 0 11 34 35 102 72 57 30 104 53 106 52 2 -2 7 -48 13 -102z m-3456
-496 c706 2 1086 -5 1102 -22 7 -7 -57 -171 -114 -295 l-44 -94 -97 7 c-172
12 -747 25 -1127 26 -337 0 -608 9 -756 26 l-57 6 87 179 86 180 65 -8 c36 -4
421 -7 855 -5z m-830 -377 c94 -6 438 -13 765 -16 519 -5 987 -19 999 -31 8
-8 -157 -302 -202 -357 l-22 -28 -730 51 c-1120 78 -1256 88 -1262 93 -2 3 13
32 34 64 22 32 64 100 93 151 l54 94 50 -6 c28 -3 128 -10 221 -15z m593 -386
l934 -64 38 -43 c22 -24 39 -46 40 -51 0 -4 -24 -5 -52 -2 -29 3 -460 35 -958
70 -498 36 -928 67 -957 70 -46 6 -54 10 -77 45 -14 22 -26 42 -26 46 0 3 28
3 63 -1 34 -3 482 -35 995 -70z m3189 -29 c91 -16 173 -42 173 -55 0 -4 -46 1
-102 11 -202 34 -467 51 -698 45 -239 -7 -343 -17 -536 -52 -129 -24 -372 -89
-386 -103 -7 -7 10 -188 68 -702 39 -356 93 -804 112 -942 17 -122 17 -126 0
-117 -10 5 -18 14 -18 20 0 5 -13 82 -30 172 -74 406 -122 818 -175 1509 l-6
76 57 21 c184 69 474 117 824 135 165 9 628 -3 717 -18z m-3387 -66 c382 -28
816 -59 964 -70 243 -18 271 -19 286 -5 20 18 13 55 90 -490 72 -512 156
-1051 194 -1255 19 -96 33 -176 32 -176 -3 -3 -1975 562 -1980 567 -5 5 -96
392 -266 1134 -39 171 -73 318 -76 328 -4 14 1 17 28 17 18 0 346 -23 728 -50z
m3175 35 c152 -13 401 -48 410 -57 3 -3 -67 -452 -189 -1217 -20 -123 -36
-225 -36 -227 0 -2 -14 -4 -31 -4 l-32 0 6 48 c3 26 20 155 37 287 17 132 51
416 75 630 39 343 43 391 29 401 -51 39 -489 66 -722 45 -204 -19 -461 -67
-642 -119 l-65 -19 -1 -49 c0 -27 3 -74 8 -104 18 -119 128 -1123 123 -1130
-3 -5 2 -55 11 -112 9 -57 19 -128 23 -159 l7 -57 -63 -31 -63 -31 -5 23 c-15
68 -84 645 -155 1292 -22 204 -42 389 -46 412 l-5 41 88 27 c356 109 802 148
1238 110z m35 -115 c41 -5 106 -15 144 -21 65 -11 68 -13 50 -26 -47 -37 -76
-42 -144 -28 -290 60 -733 34 -1132 -66 -91 -23 -98 -23 -98 -5 0 32 389 117
665 145 113 12 426 12 515 1z m224 -82 c-2 -18 -20 -175 -39 -348 -36 -317
-99 -829 -113 -911 -8 -45 -30 -60 -60 -41 -22 15 7 424 68 942 33 279 41 330
54 330 6 0 27 14 46 30 45 38 50 37 44 -2z m-574 -149 l0 -172 -66 -90 c-36
-49 -68 -96 -71 -103 -8 -22 -23 -16 -23 9 0 12 -5 29 -11 37 -8 11 -9 1 -6
-37 2 -29 0 -53 -5 -53 -5 0 -32 21 -59 48 l-49 47 -12 227 c-7 125 -10 229
-7 232 2 2 32 7 67 11 l62 7 0 -55 c0 -65 15 -114 41 -127 26 -15 13 -40 -22
-40 -29 0 -29 -1 -23 -42 10 -62 27 -85 19 -25 -5 41 -4 47 12 47 23 0 43 18
43 38 0 8 -11 25 -25 38 -22 20 -25 31 -25 93 l0 70 38 4 c20 2 56 4 80 5 l42
2 0 -171z m100 126 c0 -25 5 -45 10 -45 6 0 10 20 10 44 l0 43 53 -5 c28 -2
54 -6 56 -8 2 -1 -44 -68 -102 -149 -58 -80 -107 -142 -109 -138 -2 5 -2 74 0
156 l3 147 40 0 39 0 0 -45z m127 -37 c-89 -127 -263 -376 -327 -468 -36 -52
-84 -120 -105 -150 -21 -30 -64 -91 -94 -135 -30 -44 -68 -98 -83 -120 -43
-61 -174 -250 -241 -347 -55 -81 -77 -99 -77 -62 0 8 33 60 73 115 39 55 81
113 92 129 11 16 63 88 115 161 52 73 109 151 125 175 17 23 55 77 87 120 74
104 342 480 408 572 28 39 56 72 61 72 6 0 -10 -28 -34 -62z m-552 -30 c12
-160 20 -348 14 -348 -3 0 -34 27 -70 60 -35 32 -87 78 -115 102 -46 39 -52
48 -58 93 -3 28 -6 71 -6 96 l0 46 57 12 c31 6 60 11 65 11 4 0 8 -27 8 -60 0
-33 4 -60 10 -60 6 0 10 28 10 65 l0 65 39 0 39 0 7 -82z m701 66 c70 -9 79
-15 67 -50 -6 -16 -96 -148 -200 -294 -104 -146 -220 -310 -258 -365 -38 -55
-94 -136 -124 -180 -72 -104 -313 -461 -404 -597 -66 -99 -103 -134 -112 -105
-2 7 -8 59 -14 117 -11 96 -10 107 7 130 10 14 45 63 77 110 32 47 74 107 92
133 19 26 89 128 157 225 67 97 145 209 172 247 27 39 139 200 249 358 167
241 203 287 220 283 11 -3 43 -8 71 -12z m2158 -53 c26 -11 69 -38 94 -59 26
-20 60 -44 76 -52 l30 -15 -33 -3 c-20 -2 -48 6 -76 21 -121 68 -256 81 -358
34 -32 -14 -71 -36 -87 -47 -29 -21 -31 -21 -87 -4 -32 10 -62 21 -67 25 -10
9 64 64 114 86 114 48 302 55 394 14z m-844 -8 c60 -22 140 -68 140 -82 0 -5
-23 -11 -51 -15 -41 -6 -59 -3 -94 14 -57 28 -165 50 -246 50 -52 0 -72 5 -90
20 l-24 19 50 1 c28 1 68 5 90 10 59 13 162 5 225 -17z m-2391 -40 c82 -67
204 -174 291 -254 234 -215 215 -193 201 -225 -6 -16 -24 -44 -39 -62 l-27
-32 -80 78 c-44 43 -147 139 -230 212 -82 74 -156 140 -162 146 -7 7 -24 21
-37 31 -17 14 -26 34 -31 70 -6 49 -6 51 22 61 41 15 42 15 92 -25z m1119
-165 c-27 -235 -66 -603 -74 -705 -5 -72 -9 -90 -20 -86 -10 4 -14 26 -14 84
0 46 -4 79 -10 79 -6 0 -10 -28 -10 -65 l0 -66 -31 35 -31 36 11 237 c18 382
12 352 94 468 65 92 97 135 102 135 1 0 -7 -69 -17 -152z m1581 91 c82 -13
152 -43 184 -79 49 -55 64 -107 27 -95 -17 5 -20 2 -20 -25 0 -28 -3 -31 -22
-25 -13 4 -27 11 -32 16 -15 14 -22 11 -34 -16 -16 -35 -49 -32 -89 7 l-33 32
-16 -22 c-8 -12 -29 -29 -46 -38 -29 -15 -32 -15 -73 15 -49 35 -58 37 -76 15
-7 -8 -26 -22 -42 -30 -26 -14 -31 -14 -48 2 -10 9 -19 25 -19 34 0 26 -11 31
-34 15 -30 -21 -56 -19 -56 5 0 13 -7 20 -19 20 -18 0 -19 3 -10 30 21 58 105
107 229 134 80 18 145 19 229 5z m-2656 -217 l114 -103 6 -72 c3 -39 11 -153
18 -253 l13 -181 -35 -48 -34 -47 -3 66 c-4 99 -22 80 -22 -23 0 -50 -4 -93
-10 -96 -6 -4 -10 5 -10 19 0 14 -4 26 -10 26 -5 0 -10 -19 -10 -43 0 -46 -45
-125 -54 -96 -4 13 -107 944 -106 962 0 14 25 -6 143 -111z m882 -288 c-8
-136 -17 -249 -19 -251 -5 -5 -191 197 -194 211 -3 11 93 156 104 156 4 0 44
-86 44 -96 0 -2 -7 -4 -15 -4 -11 0 -15 -11 -13 -47 1 -44 2 -45 5 -10 3 29 9
37 24 37 25 0 24 7 -7 83 l-26 63 53 77 c46 65 54 72 57 52 2 -13 -4 -135 -13
-271z m1585 276 c0 -5 -7 -10 -15 -10 -9 0 -15 -9 -15 -24 0 -21 5 -24 41 -24
22 -1 52 -8 66 -18 25 -16 26 -16 19 9 -5 21 -1 27 24 37 16 7 35 18 41 26 10
12 17 10 45 -11 39 -30 70 -32 92 -5 22 26 51 17 77 -23 33 -53 77 -69 173
-64 52 3 91 11 107 21 13 9 29 16 34 16 18 0 34 -72 28 -126 -6 -63 -33 -106
-77 -124 -34 -14 -168 -9 -179 7 -3 5 -25 14 -48 21 -28 8 -55 27 -81 58 -22
25 -43 41 -46 36 -9 -15 63 -90 99 -103 33 -12 35 -16 35 -57 0 -36 -3 -42
-13 -33 -18 14 -27 4 -27 -31 0 -23 -4 -28 -25 -28 -14 0 -43 -9 -64 -20 -22
-11 -58 -23 -82 -26 -40 -7 -42 -6 -36 17 3 13 9 50 12 82 7 54 23 74 40 47 4
-6 11 -8 16 -4 6 4 6 11 -2 20 -13 16 -109 20 -109 4 0 -5 10 -10 21 -10 20 0
21 -4 16 -52 -13 -107 -38 -185 -71 -219 -34 -35 -82 -59 -120 -59 -13 0 -50
-13 -81 -30 -93 -49 -157 -37 -210 40 -16 23 -41 48 -57 56 -34 18 -48 43 -48
88 0 60 28 111 90 166 59 50 60 51 89 35 37 -19 78 -19 113 -1 25 13 30 12 53
-6 76 -60 199 -8 212 89 14 109 -98 186 -197 135 -34 -17 -36 -17 -77 4 -23
12 -40 24 -37 27 3 3 12 3 20 0 8 -3 16 2 20 10 3 9 11 14 18 11 6 -2 32 9 56
25 49 32 60 36 60 21z m-256 -65 c-5 -13 -2 -14 21 -5 32 12 45 13 45 2 0 -4
-16 -14 -35 -20 -19 -7 -48 -31 -66 -53 -58 -73 -108 -85 -189 -44 -30 15 -51
21 -55 15 -8 -14 92 -60 130 -60 17 0 43 7 59 15 16 9 30 14 30 13 4 -8 26
-75 26 -80 0 -3 -19 -14 -42 -24 -60 -27 -173 -26 -210 1 -59 43 -83 139 -54
210 18 41 26 43 75 13 54 -34 150 -32 211 4 54 31 61 33 54 13z m127 -54 c21
-17 22 -21 10 -49 -9 -20 -11 -48 -7 -76 6 -38 4 -46 -13 -55 -63 -34 -151 21
-151 94 0 79 102 134 161 86z m189 4 c102 -53 60 -215 -55 -215 -38 0 -83 26
-100 60 -53 103 52 208 155 155z m-2277 -105 c43 -41 83 -76 88 -78 17 -7 9
-24 -48 -105 l-58 -82 -3 43 c-5 65 -22 50 -22 -19 0 -45 -5 -67 -19 -85 l-19
-24 -6 47 c-3 27 -10 118 -16 203 -6 85 -13 168 -15 184 l-5 29 22 -19 c12
-10 58 -53 101 -94z m3840 36 c18 -7 41 -23 51 -35 19 -21 19 -21 -5 -21 l-24
-1 23 -19 c24 -20 42 -67 42 -109 0 -23 -1 -23 -25 -7 l-25 16 0 -35 c0 -35
-40 -127 -60 -140 -6 -4 -10 4 -10 18 0 35 -25 101 -51 136 -12 17 -43 38 -67
48 -38 14 -53 15 -100 5 -73 -15 -83 -5 -52 50 28 51 62 97 73 97 4 1 7 -8 7
-19 0 -26 7 -25 72 5 60 28 104 31 151 11z m-415 -145 c86 -10 109 -27 141
-102 27 -61 51 -218 51 -327 0 -182 -61 -342 -157 -414 -10 -7 -26 -25 -36
-40 -21 -34 -34 -36 -39 -6 -5 34 -24 32 -47 -5 -20 -32 -89 -87 -110 -87 -5
0 -12 18 -16 40 -4 22 -11 43 -17 46 -5 4 -23 -10 -40 -30 -16 -20 -43 -43
-59 -51 -29 -15 -29 -15 -29 14 0 45 -16 46 -57 4 -33 -33 -38 -35 -41 -18 -7
35 -19 37 -46 8 -22 -23 -28 -25 -36 -13 -32 54 -60 63 -60 19 0 -26 -22 -24
-69 5 -41 26 -76 66 -86 97 -10 31 -28 22 -23 -11 3 -16 1 -30 -4 -30 -27 0
-108 187 -108 250 0 23 3 27 24 23 31 -6 57 31 63 92 l5 44 49 -6 c46 -5 48
-4 55 21 3 14 4 40 2 56 -4 29 -3 30 38 30 40 0 43 2 58 40 28 72 20 117 -33
173 -23 25 -24 30 -10 37 9 5 34 25 55 45 63 58 118 80 244 99 50 7 267 5 338
-3z m-2937 -98 c46 -49 124 -130 173 -182 l88 -94 -7 -76 c-4 -42 -8 -77 -9
-78 -2 -2 -68 63 -147 144 -79 80 -170 171 -201 201 -32 30 -58 61 -58 68 0
15 60 104 70 104 4 0 44 -39 91 -87z m2060 -125 c36 -72 37 -73 45 -66 3 4 -2
20 -10 37 -22 41 -20 48 12 64 72 37 160 27 205 -23 30 -33 35 -74 16 -129
-11 -31 -14 -32 -58 -29 l-46 3 4 -59 3 -59 -56 7 -56 7 0 -40 c0 -48 -15 -90
-34 -97 -9 -3 -30 1 -47 10 -39 20 -59 20 -59 2 0 -30 -29 -24 -54 12 -72 105
-73 195 -2 261 l23 22 13 -31 c7 -16 16 -30 21 -30 15 0 10 14 -25 73 -46 77
-52 97 -29 98 10 0 34 6 53 13 19 8 38 14 42 15 4 0 22 -27 39 -61z m-2206 2
l50 -51 -3 -184 c-3 -130 -1 -185 7 -185 8 0 11 55 11 177 l0 178 100 -100
c99 -98 100 -100 100 -147 0 -27 5 -48 10 -48 6 0 10 14 10 30 0 17 2 30 5 30
13 0 46 -43 39 -50 -5 -5 -40 -18 -79 -29 -38 -12 -78 -24 -87 -27 -13 -4 -18
0 -18 15 0 12 -4 21 -10 21 -5 0 -10 -11 -10 -24 0 -20 -9 -26 -67 -43 l-68
-20 -3 43 c-4 61 -22 55 -22 -6 0 -27 -4 -50 -9 -50 -5 0 -16 -3 -25 -6 -13
-5 -16 1 -16 25 0 17 -4 31 -10 31 -5 0 -10 -15 -10 -33 0 -33 0 -33 -89 -60
-50 -15 -95 -27 -100 -27 -6 0 -11 20 -11 45 0 63 -18 57 -22 -7 l-3 -52 -78
-24 c-43 -13 -81 -22 -83 -19 -3 2 15 32 38 67 l43 62 3 -38 c2 -22 8 -43 14
-49 7 -7 8 9 3 51 l-7 61 87 129 c48 71 93 135 100 142 9 10 13 -10 18 -100 4
-62 7 -139 7 -170 0 -36 4 -58 11 -58 8 0 9 24 5 78 -3 42 -8 124 -12 182 l-6
105 63 93 c34 50 65 92 69 92 3 0 28 -23 55 -50z m1607 -180 c40 -24 86 -25
136 -4 28 12 56 14 117 9 135 -10 131 -9 138 -67 7 -54 40 -119 81 -157 l26
-24 24 22 c29 27 31 24 56 -75 32 -124 77 -205 128 -233 20 -11 22 -19 22
-114 l0 -102 -54 3 c-65 4 -109 -15 -131 -58 -15 -29 -18 -30 -85 -30 -72 0
-93 -11 -68 -37 8 -8 83 -37 167 -64 204 -68 222 -90 103 -122 -54 -15 -107
-23 -297 -47 -44 -5 -123 -21 -175 -34 -182 -49 -431 -76 -685 -76 -142 1
-192 4 -465 30 -230 22 -720 29 -1115 17 -629 -20 -790 -14 -868 31 -15 9 -30
24 -33 34 -6 20 31 88 48 88 5 0 8 5 6 12 -3 9 -54 12 -184 13 -209 1 -253 12
-245 59 4 21 -12 45 -37 54 -24 10 -202 21 -612 38 -283 11 -596 52 -722 95
-160 53 -174 105 -47 169 64 33 77 60 38 81 -12 6 -69 15 -127 20 -94 8 -269
41 -373 69 -75 20 -75 55 0 122 73 66 359 227 379 214 5 -3 12 -18 15 -33 6
-28 10 -29 1006 -312 550 -157 1006 -291 1013 -298 11 -10 34 -6 123 21 140
42 219 71 274 102 24 13 55 23 70 22 24 -2 184 75 220 105 22 19 860 270 895
268 16 -1 34 5 40 12 8 11 29 12 91 6 79 -7 81 -6 258 54 148 50 178 63 183
82 5 20 14 22 157 34 84 7 163 14 177 15 14 2 87 4 162 5 121 1 141 -1 170
-19z m1123 -602 c61 10 60 11 63 -53 l3 -60 -56 3 c-42 3 -63 -1 -91 -17 -25
-15 -52 -21 -95 -21 l-59 0 0 83 c0 95 12 126 31 84 15 -33 39 -35 58 -5 l14
22 8 -22 c11 -29 22 -28 61 7 l33 30 5 -27 c4 -20 11 -26 25 -24z"/>
<path d="M3586 4309 c-5 -13 -86 -945 -86 -980 0 -9 11 -21 25 -27 14 -6 45
-30 69 -52 49 -45 66 -50 66 -17 0 12 4 28 8 35 9 13 17 -3 57 -102 19 -49 33
-39 43 30 l7 49 30 -68 c16 -37 34 -66 40 -64 19 7 29 66 17 104 l-11 36 34
-33 c18 -18 54 -70 80 -116 26 -46 51 -84 55 -84 24 0 38 108 20 156 -24 61
12 38 66 -43 31 -48 38 -53 46 -38 13 22 3 87 -22 141 -18 42 -18 43 1 35 33
-12 102 -71 142 -123 21 -26 43 -48 48 -48 17 0 9 55 -16 108 l-24 52 29 0
c17 0 46 -14 74 -35 26 -19 48 -35 51 -35 11 0 3 30 -20 76 -14 27 -25 50 -25
52 0 1 13 -4 30 -13 16 -8 31 -15 35 -15 12 0 4 38 -10 50 -9 7 -14 15 -11 17
8 8 78 -27 126 -62 27 -20 51 -32 54 -27 10 16 -29 76 -86 133 -62 61 -62 61
34 34 28 -8 50 -10 53 -5 10 15 -66 87 -125 120 -54 30 -54 31 -20 28 70 -6
47 21 -50 61 -21 8 -14 10 40 10 79 1 98 10 72 34 -22 20 -96 47 -130 47 l-25
0 4 267 4 268 -35 11 c-58 20 -240 34 -507 41 -212 5 -253 4 -257 -8z m604
-29 c58 -6 119 -14 135 -18 29 -8 29 -9 9 -20 -16 -8 -38 -9 -80 -1 -47 8
-462 27 -621 29 -24 0 -33 5 -33 17 0 15 21 16 243 10 133 -4 289 -12 347 -17z
m-205 -40 c121 -5 241 -12 268 -16 l47 -7 0 -91 c0 -166 -12 -316 -25 -316 -7
0 -44 -10 -84 -23 -59 -19 -68 -21 -56 -7 8 9 15 19 15 23 0 13 -69 18 -106 8
-21 -6 -40 -9 -42 -6 -2 2 15 16 37 30 22 15 38 32 34 38 -8 13 -128 2 -183
-18 -38 -13 -41 -13 -36 0 10 27 -20 27 -83 2 l-61 -25 0 24 c0 13 -6 24 -12
24 -16 0 -76 -36 -105 -63 -13 -11 -25 -18 -28 -15 -5 5 21 352 31 416 l5 32
82 0 c45 -1 181 -5 302 -10z m378 -253 c-6 -228 -8 -247 -24 -247 -17 0 -18
17 -19 238 l0 239 22 10 c13 6 24 10 25 9 1 -1 0 -113 -4 -249z m-664 -170 c4
-4 27 1 52 12 57 26 72 27 64 1 -8 -25 -3 -25 60 -1 28 10 75 22 105 26 l55 7
-37 -32 c-21 -17 -38 -38 -38 -46 0 -17 3 -17 64 1 27 8 61 15 74 15 l26 0
-29 -30 c-16 -16 -26 -33 -22 -36 4 -4 39 5 79 19 40 14 86 28 103 32 29 6 29
6 11 -14 -32 -35 -15 -47 76 -54 47 -3 104 -14 129 -24 l44 -18 -79 -7 c-47
-4 -86 -13 -94 -22 -15 -15 -17 -14 83 -33 39 -7 39 -7 11 -12 -39 -8 -43 -25
-9 -40 47 -21 153 -93 153 -103 0 -6 -6 -8 -12 -5 -36 13 -129 29 -135 23 -4
-4 18 -30 49 -57 32 -28 67 -64 79 -80 l21 -30 -67 36 c-89 47 -147 47 -95 0
32 -29 15 -29 -35 0 -51 30 -66 28 -41 -7 56 -77 66 -92 66 -100 0 -4 -22 7
-50 26 -59 40 -118 62 -131 49 -6 -6 3 -26 22 -53 29 -39 59 -99 59 -116 0 -4
-25 21 -56 55 -57 62 -116 101 -154 101 -25 0 -25 -1 4 -58 13 -26 27 -63 31
-82 l8 -34 -52 56 c-71 78 -126 89 -81 16 20 -32 27 -99 14 -133 -5 -12 -17 2
-44 52 -52 93 -105 153 -136 153 -28 0 -28 1 -8 -38 8 -18 14 -44 12 -59 -3
-25 -8 -19 -41 47 -39 76 -77 126 -77 102 0 -8 5 -22 11 -33 5 -11 9 -43 7
-72 l-3 -52 -19 50 c-18 49 -51 95 -68 95 -4 0 -8 -10 -8 -22 0 -48 -15 -51
-56 -14 -21 20 -41 36 -44 36 -29 2 -30 19 -10 236 13 137 26 224 34 232 7 7
35 28 62 46 40 28 50 31 52 17 2 -9 7 -20 11 -24z"/>
<path d="M766 2647 c-29 -23 -29 -24 -22 -103 19 -209 99 -830 109 -840 6 -7
547 -94 580 -94 4 0 7 5 7 12 0 6 7 19 16 29 14 16 12 46 -26 356 -44 355 -75
563 -88 574 -5 5 -522 89 -545 89 -1 0 -15 -10 -31 -23z m154 -57 c175 -21
360 -53 374 -64 20 -16 141 -875 125 -890 -4 -4 -129 14 -392 55 -77 12 -144
28 -151 34 -16 16 -86 529 -111 809 l-7 78 39 -6 c21 -3 76 -10 123 -16z"/>
<path d="M820 2527 c0 -46 97 -726 104 -734 17 -19 405 -88 418 -75 11 11 -90
754 -105 768 -3 3 -395 64 -412 64 -3 0 -5 -10 -5 -23z m223 -28 c78 -11 151
-24 163 -28 23 -10 25 -20 73 -376 46 -334 45 -315 29 -315 -20 0 -340 59
-345 63 -4 5 -93 633 -93 660 0 21 1 21 173 -4z"/>
<path d="M1552 2558 l-33 -23 6 -75 c15 -179 117 -875 135 -916 10 -25 20 -27
333 -73 302 -45 287 -44 287 -30 0 7 9 23 21 35 l20 22 -20 223 c-40 425 -78
738 -90 752 -6 5 -598 107 -625 107 -1 0 -16 -10 -34 -22z m182 -62 c103 -14
238 -35 301 -46 108 -21 114 -23 119 -48 20 -100 106 -837 106 -914 0 -35 -2
-37 -27 -33 -16 3 -138 21 -272 41 -134 19 -254 39 -265 44 -20 7 -25 29 -59
246 -56 353 -104 734 -94 734 2 0 88 -11 191 -24z m470 -73 c9 -47 44 -365 71
-646 17 -182 22 -274 15 -285 -8 -15 -9 -14 -10 5 0 50 -43 434 -75 677 -19
143 -32 263 -29 268 10 16 23 8 28 -19z"/>
<path d="M1620 2428 c1 -61 113 -764 118 -737 3 17 -28 255 -62 474 -32 206
-40 271 -32 264 7 -6 116 -708 116 -745 0 -12 -5 -24 -12 -26 -6 -2 -9 -11 -5
-20 3 -10 37 -23 94 -37 110 -26 352 -65 359 -58 3 3 -15 169 -40 370 -46 365
-59 454 -69 463 -4 4 -436 74 -459 74 -5 0 -8 -10 -8 -22z m268 -37 c100 -15
184 -30 186 -32 4 -4 62 -436 87 -647 6 -52 8 -96 5 -100 -6 -5 -376 55 -384
63 -3 2 -85 533 -109 703 -7 51 -25 50 215 13z"/>
<path d="M5554 1756 c-80 -35 -31 -106 73 -106 37 0 97 22 107 39 13 21 -6 53
-40 67 -42 17 -99 17 -140 0z"/>
<path d="M6695 5807 c-36 -141 -72 -324 -65 -330 13 -14 84 -27 94 -17 4 4 5
87 1 184 -7 166 -17 218 -30 163z"/>
<path d="M7124 5778 c-12 -13 -79 -97 -149 -188 -70 -91 -132 -170 -137 -177
-7 -8 4 -21 33 -43 34 -24 45 -28 55 -18 20 22 226 427 222 439 -2 5 -13 0
-24 -13z"/>
<path d="M5992 5611 c3 -10 134 -156 201 -225 l39 -39 30 31 c18 18 28 36 25
45 -6 16 -272 197 -289 197 -5 0 -8 -4 -6 -9z"/>
<path d="M5600 5456 c19 -18 459 -296 473 -299 5 -1 21 13 34 32 19 28 21 37
11 47 -16 15 -501 234 -519 234 -10 0 -10 -3 1 -14z"/>
<path d="M6458 5425 c-198 -54 -337 -231 -338 -430 0 -61 22 -150 51 -208 29
-57 134 -158 192 -186 139 -67 275 -67 414 0 59 28 163 129 192 187 59 116 65
252 15 376 -33 83 -130 189 -207 225 -104 50 -221 63 -319 36z m217 -19 c154
-41 272 -156 310 -302 38 -145 -2 -298 -104 -401 -197 -198 -512 -170 -669 59
-52 75 -65 121 -66 233 -1 95 1 104 35 176 57 118 167 210 287 238 56 14 151
12 207 -3z"/>
<path d="M7125 5364 c-161 -82 -156 -78 -143 -116 21 -64 23 -63 132 31 183
161 185 172 11 85z"/>
<path d="M7250 5144 c-112 -13 -207 -27 -212 -32 -8 -8 17 -101 30 -113 7 -7
124 34 341 117 65 25 89 39 80 45 -8 5 -18 8 -24 8 -5 -1 -102 -12 -215 -25z
m5 -64 c-87 -33 -164 -60 -171 -60 -12 0 -37 80 -25 81 3 0 74 8 156 18 83 10
161 19 175 19 14 1 -47 -26 -135 -58z"/>
<path d="M5641 5071 c-11 -7 -10 -10 5 -14 43 -13 397 -88 399 -85 2 2 6 27
10 56 l7 52 -204 0 c-111 0 -209 -4 -217 -9z"/>
<path d="M7052 4922 c-15 -27 -25 -82 -15 -82 4 0 76 -11 160 -24 84 -12 157
-20 164 -16 14 9 15 9 -116 63 -60 25 -127 53 -147 61 -35 15 -38 15 -46 -2z"/>
<path d="M5793 4790 c-150 -54 -280 -103 -290 -109 -16 -9 -15 -10 8 -11 26 0
580 118 587 125 5 5 -18 84 -26 89 -4 2 -130 -40 -279 -94z"/>
<path d="M6074 4726 c-10 -14 -68 -81 -128 -151 -59 -69 -106 -129 -103 -132
7 -7 34 10 196 122 71 50 132 95 135 101 5 14 -51 84 -68 84 -7 0 -21 -11 -32
-24z"/>
<path d="M6962 4719 c-15 -24 -17 -37 -10 -48 6 -9 69 -64 142 -124 72 -59
145 -119 161 -135 56 -50 116 -94 122 -88 6 6 -16 32 -220 257 -82 90 -154
165 -162 167 -7 2 -22 -11 -33 -29z"/>
<path d="M6860 4607 c-19 -11 -38 -26 -42 -31 -3 -5 47 -80 112 -166 121 -160
150 -192 150 -171 0 16 -159 363 -173 378 -9 10 -20 7 -47 -10z"/>
<path d="M6259 4584 c-7 -9 -35 -55 -62 -102 -27 -48 -68 -118 -90 -157 -72
-125 -119 -216 -114 -221 6 -6 58 54 231 266 146 179 144 173 78 212 -27 16
-31 16 -43 2z m52 -33 l23 -18 -90 -109 c-49 -60 -96 -118 -105 -129 -34 -41
-70 -80 -66 -70 6 13 165 292 184 323 16 27 24 27 54 3z"/>
<path d="M6437 4523 c-10 -10 -8 -346 2 -362 7 -11 12 -4 20 25 21 76 81 310
81 316 0 4 -15 9 -32 13 -18 4 -40 8 -49 11 -8 2 -18 1 -22 -3z"/>
<path d="M6655 4521 c-28 -4 -39 -11 -37 -21 5 -22 192 -470 213 -510 l18 -35
1 33 c0 18 -20 144 -45 281 -25 137 -45 251 -45 255 0 7 -48 6 -105 -3z m90
-33 c11 -47 75 -412 72 -415 -3 -3 -177 409 -177 420 0 6 32 14 72 16 21 1 29
-4 33 -21z"/>
</g>
</svg>
