<?xml version="1.0" standalone="no"?>
<!DOCTYPE svg PUBLIC "-//W3C//DTD SVG 20010904//EN"
 "http://www.w3.org/TR/2001/REC-SVG-20010904/DTD/svg10.dtd">
<svg version="1.0" xmlns="http://www.w3.org/2000/svg"
 width="800.000000pt" height="485.000000pt" viewBox="0 0 800.000000 485.000000"
 preserveAspectRatio="xMidYMid meet">
<metadata>
Created by potrace 1.16, written by Peter Selinger 2001-2019
</metadata>
<g transform="translate(0.000000,485.000000) scale(0.100000,-0.100000)"
fill="#000000" stroke="none">
<path d="M4523 4821 c4 -19 1 -33 -8 -41 -13 -10 -12 -16 1 -42 11 -21 12 -33
5 -42 -7 -9 -6 -19 5 -35 9 -12 14 -23 13 -24 -35 -18 -45 -28 -47 -46 -3 -21
-6 -21 -227 -21 -205 0 -223 -1 -227 -18 -10 -35 9 -62 44 -63 31 0 32 -1 11
-11 -21 -10 -23 -17 -23 -105 l0 -93 -1141 2 c-1063 3 -1141 4 -1153 20 -12
16 -108 125 -161 182 -13 14 -30 26 -38 26 -8 0 -61 -54 -118 -120 l-104 -121
-408 3 c-224 2 -407 1 -407 -1 0 -8 -253 -1002 -306 -1201 -50 -190 -57 -227
-58 -315 l-1 -100 108 -3 107 -3 0 -829 0 -830 -36 40 c-31 34 -42 40 -78 40
-37 1 -44 5 -75 45 -34 46 -49 52 -81 35 -15 -8 -25 -4 -49 20 -28 29 -71 41
-71 20 0 -5 7 -10 16 -10 8 0 29 -14 46 -31 27 -27 34 -29 55 -20 13 6 28 11
33 11 8 0 70 -79 70 -90 0 -3 -14 -17 -31 -29 -23 -17 -34 -20 -42 -12 -6 6
-18 11 -27 11 -18 0 -113 -70 -106 -77 6 -7 48 17 69 38 21 23 40 24 57 4 10
-12 20 -9 65 25 30 22 65 40 79 40 28 0 82 -56 93 -98 5 -15 8 -137 8 -272 l0
-245 -35 0 c-31 0 -35 3 -32 25 2 23 11 50 33 92 5 10 5 19 0 22 -5 3 -16 -10
-25 -29 -9 -19 -21 -37 -26 -40 -5 -3 -7 -12 -4 -20 8 -20 -53 -55 -98 -55
-35 0 -62 16 -70 41 -2 7 -18 1 -42 -15 -21 -14 -49 -26 -62 -26 -13 0 -24 -4
-24 -10 0 -16 53 -11 85 8 28 17 30 17 48 -1 16 -16 28 -18 76 -13 31 4 66 7
79 6 12 0 39 0 60 0 20 1 574 4 1230 6 l1192 4 0 59 c0 58 0 59 31 63 24 4 37
-1 58 -22 32 -32 74 -55 118 -64 35 -8 74 8 133 54 34 27 57 33 113 31 26 -1
27 -3 27 -51 l0 -49 79 -3 79 -3 -104 -215 c-57 -118 -104 -218 -104 -222 0
-5 4 -8 8 -8 5 0 29 44 55 98 25 53 73 154 106 225 l61 127 528 0 527 0 120
-206 c127 -217 150 -252 159 -244 3 3 -25 57 -63 120 -99 167 -186 314 -189
322 -2 4 48 9 110 10 l113 3 3 52 3 53 278 0 c283 0 321 -4 368 -40 31 -24
349 -23 367 1 6 9 23 19 37 22 38 10 68 38 73 69 3 15 11 37 19 48 12 18 15
18 20 5 9 -22 20 -19 42 15 l20 30 18 -21 c21 -26 28 -21 36 28 l6 37 33 -52
c33 -50 35 -72 7 -72 -23 0 -122 -50 -140 -70 -31 -34 -10 -43 84 -36 110 9
125 9 187 1 35 -5 72 -2 116 9 71 18 154 21 163 7 3 -5 1 -12 -4 -15 -14 -9
-53 -145 -49 -174 4 -33 26 -32 78 2 19 13 46 27 60 31 14 4 67 27 118 52 87
41 96 43 127 32 37 -14 72 -8 180 31 54 20 66 20 127 10 38 -7 70 -16 73 -21
3 -5 36 -8 73 -8 37 0 89 -7 116 -15 46 -14 55 -14 125 5 42 11 78 22 80 24 2
3 -2 25 -9 50 -15 53 -8 180 14 260 15 58 45 130 50 124 2 -2 -5 -44 -15 -94
-21 -101 -24 -145 -9 -145 6 0 10 9 10 20 0 38 41 108 93 159 28 28 55 51 60
51 9 0 8 -1 -35 -69 -29 -46 -64 -139 -55 -147 2 -3 22 7 43 21 22 15 40 22
42 15 2 -5 -10 -40 -27 -76 -36 -78 -38 -88 -11 -74 20 11 30 -3 10 -15 -20
-12 2 -25 44 -25 59 0 66 -13 15 -25 -60 -15 -60 -32 -2 -40 26 -4 67 -15 91
-26 23 -10 42 -14 42 -9 0 13 -19 23 -85 41 l-60 17 40 7 c70 12 73 16 30 36
-22 10 -51 19 -64 19 l-24 0 23 25 c29 31 24 38 -19 25 -25 -7 -32 -6 -28 3 3
7 15 37 27 67 12 30 26 63 31 73 12 22 -1 22 -51 -2 -22 -11 -40 -15 -40 -9 0
15 45 102 78 151 41 60 44 67 34 67 -18 0 -127 -90 -159 -131 -39 -49 -39 -49
-13 59 24 99 23 92 6 92 -18 0 -81 -131 -95 -198 -6 -29 -11 -91 -11 -138 l0
-84 -52 25 c-134 65 -143 72 -187 134 -24 34 -60 74 -81 87 -40 26 -44 37 -70
169 -6 33 -16 92 -22 130 -18 121 -58 337 -78 415 -33 131 -110 528 -121 626
-16 133 -12 145 79 240 48 50 94 112 124 165 61 109 120 165 243 230 118 62
192 109 223 142 25 26 48 26 89 -1 19 -12 26 -12 54 2 40 20 48 20 70 0 17
-15 22 -14 76 18 44 25 60 42 68 66 5 18 15 32 22 32 18 0 16 17 -3 24 -23 9
-42 -10 -46 -46 -2 -25 -12 -36 -47 -56 -43 -24 -45 -24 -73 -7 -27 15 -31 15
-53 1 -30 -19 -45 -20 -79 -3 l-25 14 29 28 c30 29 102 165 119 225 5 19 12
66 16 104 6 71 27 126 47 126 7 0 22 -12 33 -26 19 -24 26 -26 58 -20 24 4 37
12 37 23 0 9 -5 13 -15 9 -8 -3 -21 -8 -28 -11 -13 -6 -80 60 -102 100 -9 15
-14 16 -32 4 -19 -11 -27 -10 -57 6 -43 23 -45 31 -11 39 18 5 25 13 25 32 0
15 15 40 40 66 22 23 40 49 40 58 0 9 5 21 12 28 9 9 8 12 -4 12 -9 0 -20 -10
-24 -22 -10 -35 -43 -72 -67 -79 -18 -4 -21 -11 -19 -42 3 -32 1 -37 -17 -37
-14 0 -25 -11 -35 -35 -8 -19 -20 -35 -25 -35 -6 0 -28 -15 -48 -34 -64 -56
-75 -59 -151 -40 -37 9 -76 21 -86 27 -16 8 -24 5 -40 -16 -21 -26 -129 -84
-201 -107 -22 -8 -71 -14 -110 -14 -56 -1 -74 3 -92 19 -13 11 -23 25 -23 32
0 16 -5 16 -50 3 -65 -19 -145 31 -152 94 -3 28 -5 29 -58 30 -65 1 -138 35
-171 78 -12 15 -29 28 -38 28 -26 0 60 -80 114 -106 28 -13 69 -24 93 -24 35
0 42 -3 42 -20 0 -19 -10 -24 -38 -21 -8 1 -24 -5 -37 -13 -13 -9 -31 -13 -40
-10 -8 4 -27 -1 -41 -11 -14 -9 -35 -14 -47 -11 -11 3 -33 -2 -49 -10 -34 -18
-39 -15 -78 42 -17 24 -37 44 -44 44 -7 0 -26 -16 -43 -35 -34 -38 -48 -41
-87 -23 -23 10 -28 8 -47 -15 -26 -34 -68 -36 -98 -3 -16 17 -43 28 -86 36
-75 14 -98 33 -69 55 10 8 27 15 36 15 9 0 37 21 62 46 42 42 66 92 66 136 0
11 5 15 15 12 22 -9 43 13 56 58 5 22 13 37 16 34 3 -3 20 2 37 12 43 23 118
83 112 89 -2 3 -20 -6 -38 -20 -18 -14 -57 -35 -86 -48 -45 -20 -54 -28 -62
-61 -12 -42 -26 -56 -43 -39 -17 17 -47 13 -47 -7 0 -10 5 -23 11 -29 30 -30
-69 -171 -111 -158 -11 4 -20 2 -20 -3 0 -16 -45 -31 -64 -20 -12 7 -24 5 -41
-6 -13 -9 -32 -16 -41 -16 -9 0 -29 -11 -46 -25 -33 -28 -85 -34 -94 -10 -4
11 -21 15 -55 15 -54 0 -121 28 -138 57 -10 17 -10 17 -11 1 0 -10 19 -31 42
-48 32 -23 52 -30 88 -30 30 0 52 -6 60 -15 16 -19 80 -19 106 0 25 19 44 19
44 0 0 -8 13 -55 29 -105 l29 -90 -25 -25 c-31 -30 -43 -32 -43 -5 0 13 -9 22
-27 26 -60 13 -91 26 -107 43 -16 17 -20 18 -47 4 -39 -19 -73 -14 -77 13 -2
12 -17 27 -37 37 -22 10 -37 26 -41 42 -4 15 -17 30 -30 35 -14 6 -24 18 -24
29 0 13 -12 27 -30 36 -20 10 -30 23 -30 38 0 12 -9 28 -19 34 -11 7 -21 22
-23 34 -2 17 -11 22 -42 24 -24 1 -42 8 -48 19 -6 11 -22 16 -52 16 -57 0 -77
17 -83 72 l-5 45 -61 7 c-45 4 -73 14 -108 39 -49 33 -59 50 -59 102 0 17 -11
48 -25 70 -15 25 -24 55 -25 81 0 25 -6 47 -16 54 -27 24 -35 47 -23 77 9 23
7 30 -9 43 -11 9 -27 30 -35 46 -9 17 -23 36 -31 43 -23 19 -20 62 4 68 23 6
27 23 6 23 -21 0 -60 51 -76 99 -9 28 -22 46 -37 52 -31 12 -29 25 7 44 29 15
30 16 14 40 -9 14 -13 33 -9 44 3 11 0 29 -7 40 -10 17 -9 23 6 39 11 13 14
22 7 27 -6 3 -11 15 -11 26 0 10 -5 19 -11 19 -7 0 -9 -11 -6 -29z m6 -284
c14 -17 4 -27 -25 -27 -12 0 -24 -7 -28 -15 -8 -21 -23 -19 -29 5 -5 19 -14
20 -146 20 -134 0 -141 -1 -141 -20 0 -11 -7 -20 -15 -20 -8 0 -15 7 -15 15 0
10 -10 15 -34 15 -36 0 -52 12 -41 30 4 6 93 10 234 10 179 0 231 -3 240 -13z
m-2769 -243 c96 -108 202 -227 235 -264 33 -38 112 -126 175 -197 63 -71 189
-212 279 -314 91 -101 199 -222 242 -269 42 -47 124 -139 183 -205 100 -114
106 -122 106 -165 l0 -45 -23 25 c-25 28 -536 607 -776 880 -479 544 -576 650
-591 650 -10 0 -93 -84 -191 -192 -324 -358 -383 -424 -749 -829 -200 -222
-381 -422 -402 -444 l-39 -40 7 30 c9 41 -8 20 314 385 87 99 628 716 848 968
107 122 197 222 201 222 4 0 85 -88 181 -196z m2580 131 l0 -35 -125 0 -125 0
0 28 c0 16 3 32 7 35 3 4 60 7 125 7 l118 0 0 -35z m-2493 -333 c247 -283 437
-499 881 -1001 l252 -284 0 -79 0 -78 -135 0 -135 0 0 150 0 150 -197 232
c-215 252 -428 502 -593 697 -233 275 -314 366 -326 366 -11 0 -161 -170 -754
-855 -135 -156 -249 -288 -255 -294 -5 -6 -34 -39 -63 -72 l-52 -62 0 -146 0
-146 -140 0 -140 0 0 80 0 80 127 143 c70 78 130 144 133 147 3 3 46 50 95
105 49 55 148 165 221 245 72 80 225 249 340 376 115 127 269 296 342 377 73
81 139 147 145 146 7 0 121 -125 254 -277z m2667 246 c-1 -18 -3 -36 -3 -40
-1 -4 -67 -6 -148 -5 l-148 2 -3 38 -3 37 154 0 155 0 -4 -32z m-266 -67 l112
-1 0 -45 0 -45 -135 0 -135 0 0 43 c0 49 4 56 28 52 9 -2 68 -4 130 -4z
m-1918 -19 c0 -10 33 -46 60 -65 30 -21 13 -50 -39 -71 -47 -18 -80 -10 -105
26 -21 30 -20 33 8 46 13 6 32 24 42 41 17 29 34 41 34 23z m288 -31 c20 -21
44 -40 52 -43 12 -4 12 -9 -3 -32 -10 -15 -28 -31 -40 -35 -29 -11 -86 3 -110
28 l-20 20 36 40 c21 23 37 46 37 51 0 17 9 11 48 -29z m256 21 c4 -11 17 -29
31 -42 22 -21 23 -25 10 -50 -20 -39 -67 -54 -110 -36 -51 22 -54 49 -8 101
41 46 68 56 77 27z m256 -6 c5 -13 18 -31 30 -39 25 -17 19 -37 -19 -60 -37
-22 -85 -22 -122 0 -37 22 -37 35 2 52 17 8 39 27 48 42 20 35 48 37 61 5z
m242 -9 c18 -19 40 -36 47 -39 23 -7 -23 -65 -58 -73 -33 -7 -88 16 -98 40 -3
9 9 31 26 50 17 20 31 40 31 45 0 18 18 10 52 -23z m242 12 c8 -12 27 -30 42
-40 l27 -17 -31 -31 c-22 -23 -40 -31 -65 -31 -32 0 -87 31 -87 50 0 12 73 87
87 89 6 0 19 -9 27 -20z m284 -19 c23 -21 42 -43 42 -48 0 -4 -9 -18 -20 -30
-30 -32 -89 -30 -129 4 l-30 25 34 35 c19 19 35 39 35 44 0 21 28 8 68 -30z
m-3168 16 c0 -7 17 -29 38 -48 32 -29 37 -38 29 -55 -21 -48 -104 -58 -142
-17 -26 28 -32 44 -16 44 13 0 71 62 71 77 0 7 5 13 10 13 6 0 10 -6 10 -14z
m272 -16 c10 -17 31 -38 48 -48 36 -21 37 -26 5 -57 -31 -32 -91 -34 -129 -4
-14 11 -26 24 -26 29 0 4 16 24 35 43 19 19 35 42 35 51 0 25 13 19 32 -14z
m689 -100 c52 -60 93 -112 92 -116 -4 -8 -383 -10 -383 -2 0 6 189 228 194
228 2 0 45 -49 97 -110z m1574 12 l38 -43 -27 -28 c-16 -16 -39 -31 -52 -34
-21 -4 -104 25 -104 37 0 2 -3 11 -6 19 -3 10 3 17 20 21 14 3 38 22 53 41 15
19 31 34 34 32 3 -1 22 -21 44 -45z m234 9 c20 -21 43 -40 51 -43 13 -4 12
-10 -6 -34 -39 -53 -92 -57 -149 -10 l-30 24 43 37 c23 20 42 43 42 51 0 22
10 17 49 -25z m277 -7 l46 -46 -28 -29 c-37 -38 -57 -43 -96 -23 -70 35 -84
62 -44 83 13 7 29 24 35 37 15 35 35 30 87 -22z m-1500 -44 c8 0 14 -6 14 -14
0 -20 -67 -76 -91 -76 -37 0 -107 46 -109 71 0 4 11 10 25 13 14 4 37 24 52
47 l27 41 34 -41 c18 -23 40 -41 48 -41z m468 51 c9 -16 28 -38 43 -49 l27
-20 -36 -36 c-21 -21 -46 -36 -59 -36 -30 0 -84 33 -98 58 -9 17 -6 22 19 32
16 7 39 28 51 46 25 42 34 42 53 5z m301 -44 l29 -15 -36 -36 c-50 -50 -94
-50 -138 0 l-32 36 24 12 c13 6 32 26 43 43 l20 31 30 -28 c17 -15 43 -34 60
-43z m-537 23 c23 -21 42 -43 42 -47 0 -5 -12 -24 -27 -42 -20 -23 -37 -33
-60 -33 -36 -1 -89 27 -110 59 -14 20 -13 23 16 38 17 8 38 27 47 40 23 35 44
31 92 -15z m2007 5 l0 -30 -160 0 -160 0 -3 33 -3 33 163 -3 163 -3 0 -30z
m-3835 -55 c5 0 10 -6 10 -14 0 -18 -66 -76 -87 -76 -27 0 -103 41 -103 55 0
15 27 45 40 45 5 0 18 16 31 36 l22 36 38 -41 c21 -22 43 -41 49 -41z m230 30
c22 -22 40 -44 40 -49 0 -5 -13 -23 -29 -40 -46 -49 -122 -37 -167 27 -13 19
-11 22 21 42 19 12 40 30 45 41 16 30 46 23 90 -21z m2766 -125 c-19 -29 -48
-39 -90 -31 -32 6 -76 38 -76 56 0 5 8 11 18 14 10 4 29 23 42 44 l24 39 49
-50 c46 -47 47 -50 33 -72z m948 91 c10 -18 29 -40 42 -47 30 -16 28 -35 -9
-62 -35 -27 -94 -28 -113 -2 -20 27 -18 40 16 78 17 19 30 42 30 51 0 26 14
19 34 -18z m-716 -16 c38 -46 39 -54 7 -85 -39 -40 -110 -31 -135 16 -10 17
-6 27 27 64 21 24 45 43 53 44 8 0 30 -17 48 -39z m-1578 16 c0 -16 48 -70 68
-77 18 -6 5 -34 -25 -54 -37 -24 -90 -22 -119 6 -31 29 -30 40 7 62 17 9 36
31 42 47 12 31 27 40 27 16z m272 -16 c10 -17 31 -38 48 -48 36 -20 36 -22 9
-56 -29 -36 -95 -37 -138 0 l-30 25 34 31 c20 16 38 41 41 54 8 31 15 30 36
-6z m258 22 c0 -5 16 -27 35 -50 35 -40 35 -42 20 -66 -33 -50 -109 -54 -146
-8 l-20 26 41 41 c22 22 40 46 40 53 0 7 7 12 15 12 8 0 15 -4 15 -8z m1500
-49 l0 -48 -135 0 -135 0 0 48 0 47 135 0 135 0 0 -47z m-3630 23 c0 -15 37
-58 63 -73 38 -21 -23 -73 -86 -73 -26 0 -41 7 -56 26 -27 34 -27 36 8 57 16
9 35 31 43 47 13 31 28 40 28 16z m272 -16 c9 -16 31 -38 48 -48 l31 -19 -26
-32 c-35 -41 -89 -43 -134 -5 l-30 25 34 31 c20 16 38 41 41 54 8 31 15 30 36
-6z m3051 -152 c-41 -45 -81 -42 -136 10 l-27 26 34 28 c19 16 38 37 41 48 4
12 15 20 28 20 12 1 33 7 47 15 l25 13 3 -70 c2 -56 -1 -74 -15 -90z m-809 87
c15 -19 38 -38 51 -41 28 -7 29 -8 15 -35 -13 -23 -61 -49 -91 -49 -12 0 -37
16 -55 36 l-34 35 30 25 c16 14 32 34 35 44 9 28 19 25 49 -15z m280 -10 l45
-44 -30 -31 c-38 -37 -82 -40 -130 -7 -36 24 -51 57 -25 57 8 0 28 16 43 35
15 19 34 35 40 35 7 0 33 -20 57 -45z m235 23 c10 -25 38 -53 61 -60 21 -7
-51 -78 -80 -78 -26 0 -57 15 -87 43 -29 26 -29 33 3 41 14 4 34 22 46 41 23
40 45 45 57 13z m-1869 -93 c45 -53 80 -98 78 -101 -3 -2 -175 -3 -383 -2
l-378 3 84 97 84 98 216 0 216 0 83 -95z m1116 70 c9 -13 24 -27 35 -30 28 -9
23 -29 -16 -64 -42 -37 -44 -37 -95 -11 -53 27 -56 36 -21 66 16 13 33 34 36
44 9 28 41 25 61 -5z m-502 -22 c40 -44 36 -61 -18 -87 -39 -18 -74 -10 -113
26 l-23 21 29 18 c17 10 35 27 41 38 16 31 46 25 84 -16z m2011 -15 l1 -38
-128 0 -128 0 0 38 0 38 128 -1 127 0 0 -37z m-1395 -18 c0 -5 16 -27 35 -49
l35 -39 -26 -31 c-40 -48 -102 -43 -143 11 -11 15 -8 21 23 48 19 17 38 40 41
51 6 19 35 27 35 9z m523 -34 c49 -48 48 -64 -3 -91 -42 -22 -66 -19 -102 14
l-32 28 45 45 c24 25 45 46 46 46 1 1 22 -18 46 -42z m242 24 c3 -10 22 -29
40 -40 29 -18 33 -25 25 -40 -27 -50 -84 -63 -137 -30 -35 21 -43 44 -18 54 9
3 25 21 36 41 23 39 44 45 54 15z m-1256 -40 l43 -40 -30 -30 c-46 -46 -101
-41 -141 12 -10 14 -6 22 31 57 24 22 45 40 48 40 3 0 25 -18 49 -39z m247 11
c14 -17 34 -33 44 -36 18 -6 19 -8 5 -34 -16 -33 -33 -41 -79 -41 -31 0 -86
32 -86 49 0 11 73 91 83 91 4 0 19 -13 33 -29z m1424 -66 l0 -66 -102 3 -103
3 -3 63 -3 62 106 0 105 0 0 -65z m215 -2 l0 -63 -97 0 -98 0 0 58 c0 32 3 62
7 66 4 4 48 5 98 4 l90 -3 0 -62z m253 3 c13 -19 38 -39 55 -45 l31 -11 -34
-35 c-39 -41 -70 -44 -118 -15 -39 24 -51 49 -29 61 8 5 25 25 37 44 12 19 25
35 28 35 4 0 17 -16 30 -34z m-1493 -22 c42 -45 43 -47 28 -70 -8 -13 -33 -29
-54 -35 -32 -10 -42 -9 -63 5 -39 25 -50 53 -27 65 10 6 28 26 40 46 11 19 23
35 26 35 3 0 25 -21 50 -46z m232 16 c9 -17 25 -33 35 -36 24 -7 23 -25 -3
-58 -15 -20 -29 -26 -57 -26 -42 0 -52 5 -73 37 -15 22 -14 25 25 67 23 25 44
45 48 45 4 1 15 -13 25 -29z m253 19 c0 -6 14 -25 32 -41 l32 -30 -37 -34
c-44 -40 -80 -44 -127 -11 -45 30 -46 39 -6 61 18 10 39 29 46 42 14 24 60 35
60 13z m260 -2 c0 -7 12 -25 27 -41 25 -27 25 -30 11 -55 -20 -33 -63 -55 -94
-47 -13 4 -39 19 -56 35 l-32 29 37 16 c21 8 45 29 55 46 17 30 52 42 52 17z
m-1539 -24 c8 -14 26 -34 41 -43 l28 -17 -31 -31 c-44 -45 -116 -39 -158 12
-11 13 -9 17 12 25 14 5 37 26 52 45 15 20 31 36 34 36 4 0 14 -12 22 -27z
m287 -22 l43 -42 -34 -34 c-47 -47 -86 -45 -144 8 -30 27 -29 33 7 52 17 9 35
27 40 40 13 34 36 28 88 -24z m237 20 c8 -17 25 -37 37 -46 l23 -16 -38 -35
c-41 -38 -53 -38 -112 -5 -37 21 -42 43 -13 56 13 6 32 24 43 42 25 40 40 41
60 4z m-927 -117 c42 -50 97 -114 122 -144 25 -29 87 -102 138 -161 50 -59 92
-110 92 -113 0 -3 -108 -6 -240 -6 l-240 0 -1 128 c-1 70 -2 132 -4 137 -1 6
-3 16 -3 23 -2 9 -85 12 -382 12 l-379 0 -3 -147 -3 -148 -218 -3 c-139 -1
-216 -6 -212 -12 4 -6 91 -10 221 -10 l214 0 0 -101 0 -100 -57 2 -58 3 -3
-67 -3 -67 -286 2 -286 3 -3 27 c-2 23 18 51 114 161 64 73 184 211 265 305
l149 172 569 0 c378 0 568 3 564 10 -4 6 -202 10 -561 10 l-555 0 80 93 80 92
405 -5 406 -5 78 -91z m2822 78 c0 -5 16 -28 36 -51 l37 -42 -20 -27 c-38 -52
-108 -55 -139 -6 -17 24 -16 26 18 62 19 20 38 45 41 55 6 17 27 24 27 9z
m-1012 -53 c48 -53 47 -69 -5 -94 -42 -20 -74 -14 -107 22 l-26 27 28 18 c15
9 36 31 47 47 11 16 20 29 21 28 0 -1 19 -23 42 -48z m764 21 c9 -17 29 -35
43 -42 30 -13 31 -25 5 -58 -28 -37 -99 -36 -137 2 l-28 28 22 15 c12 8 31 31
43 50 12 19 25 35 28 35 4 0 15 -14 24 -30z m-1262 -10 c7 -17 22 -37 33 -45
20 -14 20 -15 3 -34 -42 -46 -125 -50 -165 -7 l-21 22 34 17 c19 9 45 30 57
47 29 38 43 38 59 0z m-766 -25 l47 -45 -25 -25 c-45 -45 -106 -45 -139 0 -17
24 -17 25 25 69 24 24 43 45 44 45 0 1 22 -19 48 -44z m251 13 c17 -18 39 -38
50 -44 19 -10 18 -12 -12 -42 -37 -38 -73 -41 -120 -12 -31 18 -45 50 -23 50
5 0 22 18 36 40 15 22 29 40 32 40 3 0 19 -15 37 -32z m276 -9 c37 -40 37 -42
22 -66 -39 -59 -119 -59 -150 1 -8 15 -2 26 31 62 23 24 45 43 50 44 5 0 26
-19 47 -41z m1000 7 c15 -13 34 -26 41 -28 21 -7 -7 -57 -39 -69 -34 -13 -92
2 -117 30 -16 18 -15 20 16 53 40 43 61 46 99 14z m880 -71 c17 -19 42 -38 55
-41 31 -8 30 -15 -5 -53 -26 -28 -50 -36 -91 -32 -15 2 -70 55 -70 69 0 4 10
12 23 17 12 6 29 25 37 42 8 18 16 33 18 33 1 0 16 -16 33 -35z m-1726 -55
c36 0 5 -57 -40 -76 -50 -21 -64 -18 -102 22 l-34 37 29 17 c16 10 34 31 41
48 l13 30 39 -39 c21 -21 46 -39 54 -39z m219 32 c37 -40 38 -43 22 -61 -25
-27 -71 -44 -100 -37 -13 3 -39 18 -56 32 l-31 27 38 17 c22 9 47 29 57 44 9
15 21 26 25 24 4 -2 24 -22 45 -46z m231 19 c10 -17 30 -34 42 -40 28 -13 28
-19 4 -48 -40 -48 -105 -47 -154 1 -22 22 -22 33 2 41 10 3 29 21 42 40 29 42
38 43 64 6z m268 -4 c18 -19 39 -36 47 -39 23 -8 -47 -78 -77 -78 -32 0 -80
26 -93 50 -9 16 -4 26 27 59 21 22 44 40 51 40 7 1 28 -14 45 -32z m527 -9
c22 -23 40 -46 40 -52 0 -18 -49 -65 -73 -71 -43 -11 -127 41 -127 80 0 5 14
16 31 24 17 7 35 24 41 37 16 35 44 29 88 -18z m230 31 c0 -7 16 -27 35 -45
l36 -34 -23 -30 c-36 -49 -98 -52 -145 -8 -30 28 -28 39 10 63 18 11 36 30 42
43 10 23 45 31 45 11z m-2015 -44 c25 -25 45 -48 45 -50 0 -17 -66 -75 -86
-75 -36 0 -89 29 -107 60 -16 26 -16 27 8 38 13 6 34 25 46 41 13 17 29 31 36
31 7 0 33 -20 58 -45z m240 15 c9 -17 27 -36 40 -42 14 -6 25 -14 25 -18 0
-11 -78 -80 -90 -80 -35 0 -127 72 -108 84 2 1 16 7 31 14 15 7 36 25 45 42
22 38 37 38 57 0z m877 -70 c9 -17 29 -35 43 -42 14 -6 25 -17 25 -24 0 -12
-55 -64 -68 -64 -26 0 -82 24 -98 41 -18 20 -17 20 8 42 14 12 34 34 43 50 22
34 26 34 47 -3z m282 -16 l39 -46 -20 -26 c-38 -51 -121 -50 -144 0 -8 20 -4
29 33 70 24 26 45 48 48 48 3 0 23 -21 44 -46z m253 -29 l38 -37 -28 -24 c-15
-13 -39 -27 -52 -30 -32 -8 -76 15 -95 50 -13 25 -13 29 0 34 8 3 31 21 50 42
30 31 36 34 42 19 3 -9 24 -33 45 -54z m227 43 c6 -13 26 -32 43 -43 38 -23
39 -31 13 -65 -28 -37 -99 -36 -137 2 l-27 27 26 20 c14 11 33 37 43 57 18 38
21 38 39 2z m267 10 c6 -13 22 -35 36 -49 21 -23 22 -29 12 -52 -14 -30 -67
-52 -104 -43 -14 4 -32 17 -41 31 -16 24 -15 26 25 71 23 26 41 51 41 55 0 17
20 9 31 -13z m-2004 -70 c36 -21 34 -35 -6 -72 -27 -24 -93 -17 -126 14 l-24
22 35 35 c20 19 40 47 45 61 l10 27 17 -34 c9 -19 31 -43 49 -53z m256 5 l29
-33 -30 -30 c-22 -21 -40 -30 -64 -30 -65 0 -107 55 -63 84 12 8 33 32 46 52
l23 37 15 -24 c9 -13 29 -38 44 -56z m456 53 c7 -13 24 -30 37 -37 29 -15 30
-30 6 -52 -49 -44 -104 -42 -143 6 -15 20 -14 22 25 62 49 50 59 53 75 21z
m4147 -13 c26 -20 38 -23 46 -15 35 35 56 -6 24 -45 -13 -16 -35 -72 -51 -128
-30 -109 -70 -198 -118 -260 -49 -64 -52 -73 -8 -26 48 51 94 129 121 203 10
29 19 46 19 38 1 -24 -28 -100 -67 -174 -50 -95 -163 -192 -325 -277 -152 -80
-216 -138 -282 -254 -60 -104 -96 -149 -148 -182 -21 -13 -45 -39 -52 -56
l-14 -32 -1 41 c0 28 10 61 30 99 17 31 30 64 30 74 0 25 -71 -105 -77 -142
-10 -66 70 -535 148 -862 30 -129 55 -259 69 -367 5 -38 16 -95 25 -127 8 -32
15 -73 15 -89 0 -17 4 -42 10 -56 6 -17 6 -26 0 -26 -23 0 -7 -19 28 -34 50
-21 74 -43 105 -98 30 -51 93 -103 147 -119 46 -14 115 -61 115 -79 0 -10 -21
-19 -65 -29 -53 -11 -73 -11 -115 -1 -27 7 -77 13 -109 13 -34 -1 -69 5 -80
12 -12 8 -49 17 -83 21 -53 5 -75 2 -162 -26 -85 -28 -106 -31 -127 -21 -39
17 -50 15 -160 -39 -56 -27 -108 -50 -114 -50 -6 0 -28 -12 -50 -26 -22 -15
-43 -24 -46 -21 -9 8 9 57 21 59 13 2 41 30 38 37 -3 11 31 42 69 64 45 24
160 153 191 212 17 32 21 60 23 145 l2 105 -8 -90 c-4 -50 -15 -107 -23 -127
-32 -76 -146 -207 -207 -238 -21 -11 -48 -32 -60 -47 l-23 -28 7 29 c9 36 34
71 63 87 12 6 41 39 65 73 23 33 50 68 60 78 18 18 13 25 -7 10 -6 -4 -33 -34
-59 -67 -68 -84 -78 -89 -161 -87 -39 2 -95 -4 -128 -13 -69 -18 -103 -19
-147 -4 -24 9 -45 9 -84 0 -65 -15 -136 -20 -136 -9 0 12 112 66 154 73 25 5
58 26 99 62 34 29 73 56 87 59 14 3 40 12 58 20 40 17 42 17 42 0 0 -8 -14
-26 -31 -39 -23 -18 -30 -30 -25 -42 5 -15 15 -17 59 -12 105 11 123 31 179
202 23 70 34 257 20 325 -8 38 -10 26 -11 -80 -1 -71 -8 -152 -16 -188 -21
-87 -73 -210 -94 -222 -10 -5 -42 -12 -72 -15 l-54 -6 40 35 c22 20 39 42 37
50 -1 9 8 32 22 53 41 65 74 233 91 473 8 118 15 231 15 250 1 25 10 3 35 -80
18 -63 41 -135 49 -159 9 -24 16 -67 17 -95 1 -50 1 -51 11 -17 10 38 12 32
-51 243 -109 366 -123 557 -64 888 5 25 7 115 5 200 -2 85 -4 215 -5 288 -1
72 -5 132 -8 132 -15 0 -20 -145 -10 -252 6 -62 13 -135 16 -163 l5 -50 -19
36 c-30 56 -46 65 -76 45 -27 -18 -28 -20 -41 -71 -7 -29 -8 -28 -26 30 -10
33 -21 80 -23 104 -5 59 -50 144 -106 201 -25 26 -93 79 -150 118 -115 78
-151 119 -221 252 -40 74 -116 278 -107 283 2 1 14 8 26 15 13 6 29 12 37 12
21 0 66 -51 66 -75 0 -24 31 -108 66 -179 51 -101 184 -205 258 -202 26 1 30
5 33 34 5 41 -19 158 -51 255 -13 39 -22 74 -20 76 2 2 14 -1 27 -6 19 -9 29
-32 56 -133 34 -130 64 -220 129 -390 22 -58 43 -126 47 -152 4 -27 12 -45 17
-42 20 12 -3 100 -70 269 -22 55 -52 141 -67 190 -15 50 -38 125 -52 168 -14
43 -23 79 -22 80 2 1 18 12 35 24 l32 22 22 -62 c27 -76 46 -107 65 -107 14 0
44 53 59 103 4 12 16 17 45 17 22 0 43 5 46 10 3 6 21 10 39 10 17 0 36 4 41
9 6 5 29 11 51 15 56 8 71 -9 53 -61 -19 -59 -13 -265 11 -349 11 -37 18 -70
15 -72 -3 -3 -14 3 -25 13 -11 10 -23 15 -27 11 -18 -18 88 -81 121 -71 39 12
150 25 296 36 171 12 215 28 306 109 71 63 113 100 138 120 19 15 19 14 3 -17
-10 -18 -17 -39 -17 -48 0 -22 28 -18 41 7 10 18 9 20 -5 15 -9 -4 -16 -4 -16
0 0 12 63 118 86 146 l24 29 0 -49 c0 -51 -25 -108 -72 -166 -14 -18 -41 -52
-60 -77 -42 -56 -134 -119 -229 -156 -160 -62 -232 -125 -277 -244 -23 -63
-36 -133 -21 -125 5 4 9 18 9 32 0 36 48 141 87 190 37 47 101 86 218 134 111
45 183 98 246 180 106 140 114 155 118 247 2 58 0 82 -9 82 -6 0 -9 -4 -6 -9
3 -5 -2 -15 -11 -22 -14 -12 -15 -11 -10 6 11 35 18 78 22 138 6 87 15 93 71
50z m-5856 -263 l0 -260 -349 0 -349 0 -1 260 -1 260 350 0 350 0 0 -260z
m5763 150 c-22 -112 -59 -167 -180 -273 -58 -51 -109 -93 -113 -95 -4 -1 -18
9 -31 22 -13 14 -34 26 -45 26 -13 0 -24 8 -27 20 -3 13 -14 20 -30 20 -13 0
-30 7 -37 15 -18 22 -32 19 -79 -15 -35 -25 -54 -32 -112 -35 -64 -5 -71 -3
-91 20 -19 22 -28 25 -86 22 -57 -2 -66 1 -84 23 -17 21 -19 34 -14 107 4 45
11 94 16 109 9 23 14 25 38 18 15 -5 46 -8 70 -7 32 2 47 -3 66 -22 32 -32 87
-41 166 -27 91 16 250 85 268 118 8 14 17 13 87 -5 43 -12 86 -21 96 -21 9 0
41 18 70 40 66 49 73 41 52 -60z m-2330 -3 c25 -9 21 -22 -14 -51 -48 -41
-110 -29 -140 25 -9 17 -7 25 10 40 12 11 29 31 38 46 l17 25 35 -40 c20 -22
44 -42 54 -45z m-1843 36 c12 -16 36 -35 53 -44 l31 -17 -31 -31 c-45 -44 -98
-44 -134 1 l-27 32 37 43 c20 23 39 42 43 43 4 0 16 -12 28 -27z m280 -13 c22
-22 40 -44 40 -49 0 -15 -64 -61 -84 -61 -26 0 -93 37 -100 56 -6 15 17 43 37
44 4 0 13 11 19 25 16 35 42 31 88 -15z m245 10 c8 -16 24 -34 35 -40 26 -14
25 -26 -5 -55 -31 -32 -81 -33 -125 -2 -44 29 -45 38 -7 62 18 11 36 30 42 43
14 31 42 28 60 -8z m1023 2 c15 -16 36 -34 47 -40 19 -11 18 -13 -18 -48 -44
-41 -74 -42 -129 -2 l-31 21 27 20 c15 10 33 32 42 48 18 36 29 36 62 1z
m-1779 -17 c17 -19 36 -35 41 -35 18 0 10 -21 -19 -51 -38 -37 -79 -38 -120
-3 l-31 26 29 27 c15 14 31 36 35 49 10 31 28 28 65 -13z m1280 -5 l38 -40
-35 -31 c-28 -25 -41 -30 -66 -25 -32 6 -77 35 -83 52 -1 5 11 17 28 27 17 9
33 26 36 37 8 32 40 24 82 -20z m-1788 -12 l40 -43 -30 -27 c-40 -36 -80 -36
-120 -2 -37 31 -38 37 -7 53 13 7 29 24 35 37 15 34 36 30 82 -18z m3287 -5
c23 -25 59 -32 99 -19 20 7 24 1 48 -76 26 -89 31 -123 16 -132 -12 -8 -74 15
-84 31 -4 7 -25 13 -46 13 -24 0 -48 8 -65 21 -28 22 -96 153 -96 186 0 19 3
19 53 10 34 -6 60 -18 75 -34z m-877 -25 c6 -13 23 -35 36 -49 24 -26 24 -28
8 -53 -33 -51 -124 -50 -148 1 -9 21 -7 27 14 46 14 12 34 34 43 50 22 33 32
34 47 5z m-1748 -60 c28 -29 17 -62 -30 -86 -34 -19 -60 -14 -95 17 l-32 28
50 56 49 57 20 -28 c11 -15 28 -35 38 -44z m452 52 c3 -11 19 -29 36 -40 16
-12 29 -27 29 -35 0 -22 -50 -55 -85 -55 -34 0 -85 33 -85 54 0 7 10 18 23 25
12 6 31 25 42 41 23 35 31 37 40 10z m293 -28 c48 -47 49 -49 33 -70 -25 -33
-61 -42 -106 -26 -22 7 -45 21 -52 30 -10 13 -7 20 15 39 15 13 34 35 41 49 8
14 16 26 17 26 1 0 25 -22 52 -48z m501 -4 c43 -40 45 -57 7 -81 -47 -31 -104
-22 -131 20 -15 22 -16 28 -4 31 8 3 28 20 44 38 17 18 33 32 36 31 4 -1 25
-19 48 -39z m254 9 c18 -19 39 -36 47 -39 12 -4 12 -9 -3 -32 -10 -15 -28 -31
-40 -35 -30 -11 -86 4 -111 29 l-21 21 21 17 c11 10 29 30 38 45 23 35 31 34
69 -6z m-2004 -64 c3 -33 -77 -71 -116 -56 -34 13 -70 73 -44 73 5 0 24 16 42
35 l33 34 42 -37 c23 -20 43 -42 43 -49z m224 47 c16 -16 33 -30 38 -30 16 0
10 -36 -8 -53 -33 -28 -102 -26 -138 6 l-26 22 38 42 c21 23 45 42 53 42 8 1
28 -12 43 -29z m2331 -25 c16 -38 38 -44 94 -24 27 9 34 8 53 -10 12 -11 41
-23 65 -27 30 -4 44 -12 47 -25 9 -32 36 -34 66 -5 l28 27 15 -23 c8 -13 25
-43 38 -68 45 -90 97 -146 192 -210 164 -108 245 -203 263 -306 4 -21 17 -82
30 -134 13 -52 31 -140 40 -195 9 -55 30 -165 45 -245 52 -270 71 -487 57
-670 -24 -344 -48 -489 -90 -551 -20 -30 -93 -69 -129 -69 -17 0 -51 -22 -97
-60 l-72 -60 -59 90 c-33 49 -62 90 -66 90 -3 0 -2 -25 1 -55 4 -30 5 -55 1
-55 -3 0 -13 15 -22 32 l-17 33 -9 -30 c-5 -16 -11 -36 -14 -43 -2 -9 -9 -7
-23 7 -34 34 -51 76 -45 113 8 45 -18 96 -51 104 -14 3 -25 10 -25 15 0 5 -19
30 -41 54 -36 39 -47 45 -82 45 -31 0 -48 7 -69 27 -36 35 -94 37 -136 6 -19
-14 -33 -18 -43 -12 -27 17 -61 9 -90 -22 l-29 -31 0 891 0 890 123 3 122 3 3
65 c2 57 -5 88 -63 260 -36 107 -65 198 -65 202 0 4 9 8 20 8 13 0 25 -12 34
-35z m-127 -94 c-3 -23 -51 -52 -86 -53 -22 -1 -40 7 -57 24 l-25 25 33 35
c18 20 39 43 47 53 13 16 17 14 52 -26 21 -24 37 -50 36 -58z m-1530 8 c30
-11 29 -20 -3 -53 -38 -38 -87 -36 -125 5 -29 31 -36 49 -20 49 4 0 21 18 37
41 l28 41 30 -37 c16 -20 40 -41 53 -46z m711 45 c12 -19 34 -39 47 -44 48
-18 17 -66 -48 -77 -31 -5 -40 -1 -67 26 l-32 31 25 30 c14 16 28 39 32 50 9
28 17 25 43 -16z m-495 -4 c10 -16 21 -30 25 -30 4 0 13 -4 21 -9 36 -23 -54
-90 -102 -75 -27 8 -67 43 -67 59 0 21 64 84 85 84 13 1 28 -11 38 -29z m252
10 c3 -10 20 -31 37 -45 33 -28 32 -45 -6 -70 -30 -20 -85 -12 -115 16 -28 26
-26 39 9 72 17 16 30 33 30 38 0 18 39 9 45 -11z m518 -13 c18 -19 39 -37 47
-40 12 -4 9 -11 -13 -31 -39 -36 -107 -36 -154 0 -18 14 -33 20 -33 15 0 -16
52 -61 78 -67 22 -6 22 -7 6 -33 -26 -39 -45 -50 -85 -51 -26 0 -42 7 -62 28
-32 33 -34 48 -8 57 10 3 26 21 36 39 10 19 33 41 51 49 18 9 40 27 51 41 25
34 48 32 86 -7z m-2282 -104 c159 -186 169 -200 169 -227 l0 -26 -300 0 -300
0 0 49 c0 78 -3 81 -76 81 l-64 0 0 100 0 100 243 3 c133 1 245 3 248 5 3 1
39 -37 80 -85z m2934 6 l19 -62 -23 -18 c-35 -29 -68 -22 -118 24 -30 27 -29
41 2 55 14 7 30 23 35 37 7 19 17 25 38 25 27 0 30 -5 47 -61z m-1290 17 c19
-19 42 -39 52 -45 16 -9 17 -12 3 -37 -8 -15 -27 -36 -43 -48 -25 -18 -31 -19
-65 -7 -40 14 -69 36 -83 62 -7 14 -1 22 26 38 19 11 40 32 47 46 15 33 22 32
63 -9z m776 -7 c31 -34 36 -44 27 -59 -13 -20 -60 -50 -78 -50 -23 0 -81 33
-90 51 -9 15 -4 21 24 34 19 9 42 28 51 41 8 13 18 24 22 24 3 0 23 -18 44
-41z m240 6 c17 -19 37 -35 45 -35 23 0 16 -24 -14 -53 -35 -34 -77 -35 -122
-4 -43 28 -48 44 -18 57 13 6 33 24 43 41 11 16 24 29 28 29 4 0 21 -16 38
-35z m-1256 -21 l48 -47 -36 -33 c-51 -47 -106 -44 -149 10 -23 28 -22 33 7
40 13 3 36 22 51 41 14 19 27 35 28 35 2 0 24 -21 51 -46z m495 35 c0 -7 16
-27 35 -45 l35 -33 -31 -35 c-43 -49 -87 -47 -146 7 -29 26 -29 33 2 41 13 3
36 22 51 41 26 34 54 46 54 24z m2783 -69 c9 -11 25 -20 34 -20 10 0 24 -9 31
-20 7 -12 18 -19 25 -18 11 3 57 -35 57 -46 0 -16 -106 -37 -225 -46 -170 -12
-278 -24 -293 -33 -18 -12 -46 36 -66 112 -10 39 -16 74 -13 77 3 3 15 0 27
-6 14 -7 40 -9 70 -5 45 6 50 5 66 -19 16 -26 19 -26 100 -23 75 3 86 7 121
35 45 37 44 37 66 12z m-3934 -25 c13 -19 32 -37 42 -40 25 -8 24 -27 -3 -53
-45 -41 -92 -38 -145 11 -26 24 -29 37 -9 37 8 0 30 18 48 40 18 22 35 40 38
40 3 0 16 -16 29 -35z m251 24 c0 -6 17 -27 37 -45 l37 -34 -29 -30 c-35 -37
-80 -40 -121 -8 -49 38 -55 53 -24 63 11 3 27 19 37 36 17 29 63 42 63 18z
m1580 -89 c0 -19 -54 -50 -88 -50 -32 0 -82 30 -82 50 0 3 19 27 43 51 l42 45
43 -43 c23 -24 42 -48 42 -53z m223 55 c26 -24 47 -48 47 -52 0 -21 -46 -53
-77 -53 -65 0 -123 48 -84 70 11 5 29 26 41 45 12 19 23 35 24 35 1 0 23 -20
49 -45z m-1313 18 c0 -9 18 -33 39 -53 36 -35 38 -39 25 -58 -17 -24 -76 -46
-102 -38 -10 4 -29 17 -42 31 l-22 24 41 39 c22 21 41 46 41 55 0 10 5 17 10
17 6 0 10 -7 10 -17z m265 -3 c3 -11 24 -35 46 -54 l40 -34 -27 -31 c-29 -35
-67 -41 -113 -16 -43 22 -46 43 -11 78 17 18 33 42 36 54 7 28 21 30 29 3z
m270 0 c3 -11 20 -33 36 -50 l30 -30 -21 -30 c-38 -53 -119 -49 -149 9 -9 15
-6 22 13 34 13 9 34 32 46 51 25 41 36 45 45 16z m-3363 -112 l3 -23 380 0
380 0 3 21 c3 20 9 22 59 20 l57 -1 1 -62 1 -63 -493 0 -493 0 0 65 0 65 49 0
c44 0 50 -3 53 -22z m4348 -113 l0 -55 -1265 0 -1265 0 0 55 0 55 1265 0 1265
0 0 -55z m-4468 -7 c4 -10 117 -14 511 -16 454 -3 508 -2 513 12 5 14 42 16
305 16 l298 0 3 -117 3 -118 28 -3 c23 -3 27 -8 27 -33 l0 -29 -1170 0 -1170
0 0 39 c0 39 1 40 38 43 l37 3 0 108 0 107 287 0 c220 0 287 -3 290 -12z
m4218 -113 l0 -45 -1140 0 -1140 0 0 45 0 45 1140 0 1140 0 0 -45z m0 -170 l0
-105 -1255 0 -1255 0 0 80 0 79 113 3 c108 3 112 4 115 26 l3 22 1140 0 1139
0 0 -105z m-2530 -125 l0 -100 -302 0 c-167 0 -693 -1 -1170 -3 l-868 -2 0
103 0 102 1170 0 1170 0 0 -100z m3746 58 c25 -49 29 -135 9 -232 -9 -48 -20
-117 -24 -154 l-7 -67 -16 75 c-37 169 -48 232 -47 258 1 17 3 20 6 10 7 -28
39 -21 52 11 10 23 9 35 -3 62 l-16 34 5 -40 c6 -47 -9 -80 -25 -55 -13 19
-13 72 0 104 14 37 46 34 66 -6z m-1216 -178 l0 -130 -110 0 -110 0 0 25 0 25
-225 0 -225 0 0 -25 c0 -24 -2 -25 -64 -25 -44 0 -67 5 -76 15 -19 23 -871 23
-890 0 -11 -13 -69 -15 -411 -15 l-399 0 0 123 c0 68 3 127 7 130 3 4 568 7
1255 7 l1248 0 0 -130z m-4290 -150 l0 -150 -290 0 -290 0 0 150 0 150 290 0
290 0 0 -150z m1760 0 l0 -150 -299 0 -300 0 -3 150 -3 150 303 0 302 0 0
-150z m-622 -337 l-3 -458 -535 -3 c-294 -1 -545 0 -557 3 l-23 5 0 455 0 455
560 0 560 0 -2 -457z m2330 355 c9 -9 12 -175 12 -685 l0 -673 -30 0 -30 0 0
660 0 660 -385 0 -385 0 0 -660 0 -660 -25 0 -25 0 0 685 0 685 428 0 c320 0
431 -3 440 -12z m552 -5 c0 -23 1 -821 0 -838 0 -21 16 -21 -342 -15 -17 0
-18 27 -18 423 0 233 3 427 7 430 9 10 353 9 353 0z m-1442 -185 l-3 -173
-397 -3 -398 -2 0 175 0 175 400 0 400 0 -2 -172z m1040 0 l-3 -173 -59 0 -58
0 1 170 c0 94 1 171 1 173 0 1 27 2 60 2 l60 0 -2 -172z m672 -3 l0 -175 -110
0 -110 0 0 175 0 175 110 0 110 0 0 -175z m-890 -515 l0 -650 -365 0 -365 0 0
650 0 650 365 0 365 0 0 -650z m-3400 390 l0 -130 -290 0 -290 0 0 130 0 130
290 0 290 0 0 -130z m1760 0 l0 -130 -300 0 -300 0 0 130 0 130 300 0 300 0 0
-130z m798 -66 c21 -6 22 -10 22 -135 l0 -129 -400 0 -400 0 0 128 c0 71 3
132 7 135 8 9 740 9 771 1z m1050 -2 c9 -2 12 -35 12 -132 l0 -130 -60 0 -60
0 0 133 0 132 48 -1 c26 0 53 -2 60 -2z m682 -127 l0 -135 -110 0 -110 0 0
129 c0 94 3 131 13 134 6 2 56 5 110 6 l97 2 0 -136z m-4290 -60 l0 -105 -290
0 -290 0 0 105 0 105 290 0 290 0 0 -105z m1760 0 l0 -105 -300 0 -300 0 0
105 0 105 300 0 300 0 0 -105z m820 -205 l0 -110 -400 0 -400 0 0 110 0 110
400 0 400 0 0 -110z m1040 0 l0 -111 -61 3 -61 3 -1 108 -2 107 63 0 62 0 0
-110z m670 0 l0 -110 -110 0 -110 0 0 110 0 110 110 0 110 0 0 -110z m-4290
10 c0 -58 4 -77 25 -110 14 -22 25 -42 25 -45 0 -3 -142 -5 -315 -5 l-315 0 0
115 0 115 290 0 290 0 0 -70z m1760 -45 l0 -115 -335 0 -335 0 35 49 c32 44
35 55 35 115 l0 66 300 0 300 0 0 -115z m-637 -21 c3 -4 -7 -26 -24 -50 l-30
-44 -494 0 -494 0 -29 44 c-17 25 -28 47 -24 50 7 8 1087 8 1095 0z m1455
-161 l-3 -88 -397 -3 -398 -2 0 90 0 90 400 0 401 0 -3 -87z m1042 78 c0 -4
18 -31 41 -60 l41 -51 159 0 160 0 26 60 26 60 108 0 109 0 0 -90 0 -90 -396
2 -395 3 -2 88 -2 87 63 0 c34 0 62 -4 62 -9z m420 -16 c0 -2 -8 -20 -17 -40
l-17 -35 -147 0 -147 0 -32 40 -32 40 196 0 c108 0 196 -2 196 -5z m-2280
-110 l0 -95 -1170 0 -1170 0 0 95 0 95 1170 0 1170 0 0 -95z m808 -65 c8 0 12
-23 12 -80 l0 -80 -282 0 -282 0 -28 33 -28 32 -18 -23 c-12 -15 -24 -21 -35
-16 -11 4 -19 0 -23 -10 -4 -12 -19 -16 -55 -16 l-49 0 0 79 c0 44 4 81 10 83
7 2 458 1 778 -2z m1360 1 l362 -1 0 -74 c0 -62 -3 -74 -18 -78 -23 -6 -772 1
-772 7 0 3 0 38 0 78 l0 72 33 -1 c17 -1 195 -2 395 -3z m667 -45 c29 -31 36
-34 72 -29 36 5 42 2 76 -36 20 -23 37 -45 37 -49 0 -5 16 -16 35 -25 41 -19
53 -54 35 -98 -9 -20 -10 -33 -3 -37 32 -21 43 -91 18 -112 -8 -7 -15 -25 -15
-40 0 -33 -16 -48 -58 -56 -17 -4 -39 -15 -48 -25 -19 -21 -56 -24 -122 -9
-30 7 -49 7 -64 -1 -15 -8 -26 -8 -43 1 -17 9 -28 9 -43 1 -24 -13 -66 0 -75
23 -4 9 -21 16 -44 18 l-38 3 0 190 c0 167 2 195 19 228 25 52 56 66 92 42 26
-17 27 -17 48 8 40 47 78 48 121 3z m-2835 -91 l0 -85 -1170 0 -1170 0 0 85 0
85 1170 0 1170 0 0 -85z m1988 -192 l-3 -158 -40 0 -40 0 -3 73 c-3 64 -5 72
-22 72 -18 0 -20 7 -20 78 0 43 3 82 7 85 3 4 33 7 65 7 l59 0 -3 -157z m172
-13 l0 -170 -75 0 -75 0 0 170 0 170 75 0 75 0 0 -170z m200 0 l0 -170 -90 0
-90 0 0 163 c0 90 3 167 7 170 3 4 44 7 90 7 l83 0 0 -170z m170 0 l0 -170
-75 0 -75 0 0 170 0 170 75 0 75 0 0 -170z m-2170 18 l-1 -143 -40 -27 c-21
-16 -44 -28 -49 -28 -12 0 -18 208 -9 318 1 20 7 22 50 22 l49 0 0 -142z m118
-25 c-3 -166 -3 -168 -25 -171 -28 -4 -28 -2 -2 42 19 33 19 36 4 42 -9 4 -27
2 -41 -5 -14 -6 -27 -11 -29 -11 -3 0 -5 61 -5 135 l0 135 50 0 50 0 -2 -167z
m111 90 c-1 -43 -4 -112 -8 -153 l-6 -75 -35 0 -35 0 -3 153 -3 152 46 0 45 0
-1 -77z m231 42 l0 -34 -57 -3 -58 -3 -3 -42 -3 -43 -45 0 -44 0 0 80 0 80
105 0 105 0 0 -35z m-820 -45 c0 -20 -7 -20 -1170 -20 -1163 0 -1170 0 -1170
20 0 20 7 20 1170 20 1163 0 1170 0 1170 -20z m181 -25 l39 0 0 -117 c0 -65
-3 -118 -7 -118 -5 0 -34 26 -65 58 l-58 59 0 83 0 83 26 -24 c18 -17 37 -24
65 -24z m1599 -20 l0 -35 -530 0 -530 0 0 28 c0 16 3 32 7 36 4 3 242 6 530 6
l523 -1 0 -34z m-3767 5 l27 0 0 -170 0 -170 -105 0 -105 0 0 168 c0 93 2 171
4 173 2 2 37 3 78 2 40 -1 85 -2 101 -3z m495 1 l62 -1 0 -170 0 -170 -80 0
-80 0 0 174 c0 161 1 174 18 171 9 -2 45 -4 80 -4z m225 0 l27 -1 0 -170 0
-170 -85 0 -85 0 0 168 c0 93 2 171 4 173 4 3 35 4 139 0z m917 -172 l0 -169
-75 0 -75 0 0 169 0 170 33 3 c17 2 51 1 75 -1 l42 -3 0 -169z m-1840 1 l0
-170 -75 0 -75 0 0 170 0 170 75 0 75 0 0 -170z m400 0 l0 -170 -75 0 -75 0 0
170 0 170 75 0 75 0 0 -170z m180 0 l0 -170 -85 0 -85 0 0 170 0 170 85 0 85
0 0 -170z m530 0 l0 -170 -70 0 -70 0 0 170 0 170 70 0 70 0 0 -170z m150 0
l0 -170 -65 0 -65 0 0 170 0 170 65 0 65 0 0 -170z m210 0 l0 -170 -95 0 -95
0 0 170 0 170 95 0 95 0 0 -170z m200 0 l0 -170 -90 0 -90 0 0 170 0 170 90 0
90 0 0 -170z m300 0 l0 -170 -55 0 -55 0 0 170 0 170 55 0 55 0 0 -170z m220
0 l0 -170 -100 0 -100 0 0 170 0 170 100 0 100 0 0 -170z m1880 62 c0 -89 57
-83 -650 -80 l-625 3 -3 63 -3 62 641 0 640 0 0 -48z m90 -152 l0 -60 -725 0
-725 0 0 54 c0 49 2 55 23 59 12 2 338 4 725 5 l702 1 0 -59z"/>
<path d="M6686 3364 c-9 -26 -16 -56 -16 -66 0 -23 -5 -23 -30 2 -13 13 -33
20 -59 20 -32 0 -44 -6 -69 -35 -48 -54 -66 -142 -38 -180 13 -18 14 -15 9 27
-10 85 37 168 96 168 71 0 75 -44 30 -295 -40 -223 -48 -451 -24 -640 25 -196
28 -289 12 -392 -17 -112 -12 -157 42 -378 79 -320 86 -393 52 -526 -27 -107
-53 -258 -46 -269 11 -18 22 -10 18 13 -4 22 24 176 52 285 8 31 15 81 15 112
0 61 -33 234 -79 415 -47 184 -52 241 -35 348 17 100 15 172 -10 392 -26 234
-20 370 25 630 20 111 24 125 36 109 11 -15 13 -5 13 72 0 49 7 120 15 158 17
83 14 96 -9 30z"/>
<path d="M7282 2921 l-62 -38 -139 -6 -140 -5 -56 -59 c-81 -83 -114 -159 -87
-199 39 -59 162 -6 162 71 0 33 -25 65 -52 65 -32 0 -66 -63 -47 -86 15 -18
24 -18 43 2 23 23 19 40 -4 19 -26 -23 -37 -13 -22 21 23 49 75 10 57 -43 -13
-37 -75 -69 -105 -53 -48 26 -8 126 85 208 l48 42 103 0 c57 0 104 -2 104 -4
0 -2 -24 -18 -54 -35 -65 -36 -97 -76 -132 -162 -30 -73 -49 -99 -76 -99 -10
0 -18 -5 -18 -10 0 -11 48 -3 66 12 7 5 22 34 35 66 51 127 96 170 233 222 44
18 90 41 101 52 l20 20 -34 -17 c-18 -9 -30 -12 -26 -6 3 6 24 20 46 31 21 11
39 23 39 25 0 13 -31 1 -88 -34z"/>
<path d="M6753 2813 c-28 -47 -28 -51 -28 -203 0 -121 5 -177 22 -255 21 -97
40 -339 40 -505 0 -126 16 -261 35 -285 28 -35 61 -86 78 -122 22 -44 37 -173
26 -217 -9 -35 -41 -34 -60 2 -20 38 -73 225 -86 302 -6 36 -18 100 -25 142
-25 134 -27 180 -11 269 11 62 13 102 6 145 -11 73 -50 257 -56 263 -7 7 -5
-12 12 -105 31 -176 34 -214 18 -304 -16 -89 -14 -142 11 -270 8 -41 21 -115
30 -163 21 -114 70 -268 96 -301 26 -33 54 -33 75 -1 32 49 -1 259 -46 300
-42 38 -71 103 -76 172 -3 38 -10 89 -16 115 -7 33 -6 63 2 103 13 65 -2 314
-26 430 -29 135 -35 190 -36 310 -2 114 0 124 25 170 36 63 27 71 -10 8z"/>
<path d="M6960 1013 c0 -15 5 -79 10 -141 11 -127 32 -180 99 -260 47 -57 100
-78 219 -88 64 -5 80 -4 90 9 19 22 3 46 -60 94 -73 54 -72 54 -105 42 -36
-12 -58 -52 -43 -79 15 -28 13 -29 -21 -17 -34 13 -95 81 -124 137 -27 52 -44
144 -45 237 0 45 -4 85 -10 88 -6 4 -10 -6 -10 -22z"/>
<path d="M1240 3250 l0 -240 325 0 325 0 0 240 0 240 -325 0 -325 0 0 -240z
m635 0 l0 -225 -307 -3 -308 -2 0 230 0 230 308 -2 307 -3 0 -225z"/>
<path d="M1287 3453 c-4 -3 -7 -96 -7 -205 l0 -198 80 0 80 0 0 205 0 205 -73
0 c-41 0 -77 -3 -80 -7z m143 -198 l0 -185 -65 0 -65 0 0 185 0 185 65 0 65 0
0 -185z"/>
<path d="M1494 3447 c-2 -7 -3 -98 -2 -202 l3 -190 77 -3 c65 -2 77 0 80 14 2
9 2 102 0 205 l-3 189 -75 0 c-51 0 -76 -4 -80 -13z m146 -192 l0 -185 -65 0
-65 0 0 185 0 185 65 0 65 0 0 -185z"/>
<path d="M1700 3255 l0 -206 78 3 77 3 0 200 0 200 -77 3 -78 3 0 -206z m140
0 l0 -185 -65 0 -65 0 0 185 0 185 65 0 65 0 0 -185z"/>
<path d="M1020 1845 l0 -445 550 0 550 0 0 445 0 445 -550 0 -550 0 0 -445z
m1078 0 l-3 -425 -525 0 -525 0 -3 425 -2 425 530 0 530 0 -2 -425z"/>
<path d="M1097 2232 c-16 -3 -17 -35 -17 -388 l0 -384 490 0 490 0 -2 386 -3
385 -471 2 c-258 1 -478 1 -487 -1z m941 -384 l2 -368 -470 0 -470 0 0 363 c0
200 3 367 7 370 3 4 214 6 467 5 l461 -3 3 -367z"/>
<path d="M1147 2174 c-4 -4 -7 -151 -7 -326 l0 -318 125 0 125 0 -2 323 -3
322 -116 3 c-63 1 -118 -1 -122 -4z m221 -321 l2 -302 -101 -3 c-55 -2 -103
-1 -105 1 -2 2 -4 141 -4 308 l0 304 103 -3 102 -3 3 -302z"/>
<path d="M1467 2174 c-4 -4 -7 -151 -7 -326 l0 -318 125 0 125 0 -2 323 -3
322 -116 3 c-63 1 -118 -1 -122 -4z m221 -321 l2 -303 -105 0 -105 0 0 305 0
306 103 -3 102 -3 3 -302z"/>
<path d="M1770 1855 l0 -325 120 0 120 0 0 325 0 325 -120 0 -120 0 0 -325z
m222 0 l3 -305 -102 0 -103 0 0 305 0 305 100 0 99 0 3 -305z"/>
<path d="M3780 1721 l0 -310 248 2 247 2 3 308 2 307 -250 0 -250 0 0 -309z
m478 2 l-3 -288 -227 -2 -228 -2 0 290 0 289 230 0 230 0 -2 -287z"/>
<path d="M7140 4644 c0 -20 25 -34 61 -34 21 0 41 -5 45 -11 3 -6 15 -9 25 -6
14 4 19 0 19 -13 0 -37 -12 -50 -44 -50 -23 0 -41 -9 -61 -30 -21 -22 -38 -30
-62 -30 -29 0 -33 -3 -33 -27 -1 -52 -37 -81 -120 -97 -42 -8 -87 -12 -102 -9
-15 3 -36 -2 -52 -12 -23 -16 -27 -16 -41 -1 -24 23 -44 20 -124 -20 -42 -21
-79 -33 -89 -29 -10 4 -22 -1 -32 -14 -13 -17 -35 -27 -72 -30 -5 -1 -8 -20
-8 -43 0 -32 3 -39 10 -28 5 8 10 25 10 38 0 18 6 22 30 22 18 0 33 6 36 15 4
9 19 15 35 15 16 0 46 11 67 24 20 13 54 30 74 37 35 12 38 11 57 -12 l19 -24
24 21 c18 17 36 22 78 21 71 0 160 26 187 55 12 13 26 35 32 51 7 19 18 27 34
27 13 0 36 13 51 29 18 19 34 27 49 24 25 -5 61 22 71 52 8 26 57 47 120 51
27 1 54 8 60 14 8 10 -2 11 -44 6 -84 -9 -179 -10 -187 -3 -3 4 -27 7 -53 7
-25 0 -51 5 -58 12 -7 7 -12 8 -12 2z"/>
<path d="M7846 4505 c-14 -11 -24 -12 -39 -3 -16 8 -23 7 -33 -7 -7 -10 -15
-22 -16 -27 -6 -16 -131 -40 -174 -33 -32 5 -50 1 -75 -15 -19 -11 -47 -20
-64 -20 -24 0 -38 -10 -72 -53 -24 -28 -43 -58 -43 -64 0 -8 -12 -13 -29 -13
-30 0 -41 -14 -41 -56 0 -19 -5 -24 -25 -24 -13 0 -28 -6 -32 -14 -4 -8 -19
-16 -33 -18 -18 -2 -26 -10 -28 -28 -2 -22 -1 -23 8 -7 6 9 19 17 29 17 10 0
24 7 31 15 7 8 23 15 35 15 24 0 35 17 35 56 0 20 5 24 30 24 23 0 33 6 40 26
6 14 24 43 42 65 24 30 37 39 53 35 12 -3 37 5 60 19 32 19 49 22 86 18 54 -6
154 19 185 48 12 11 28 17 37 14 8 -4 25 -2 36 4 14 8 22 8 26 0 13 -20 53
-28 89 -18 52 14 45 30 -9 22 -38 -5 -50 -2 -68 15 -19 18 -24 19 -41 7z"/>
<path d="M5890 4469 c-30 -22 -69 -54 -86 -70 -42 -41 -91 -54 -122 -33 -23
15 -26 15 -46 -10 -11 -15 -34 -30 -51 -35 -28 -7 -30 -10 -27 -52 3 -46 -11
-72 -53 -95 -11 -6 -27 -25 -37 -43 -30 -59 -45 -69 -116 -77 -56 -6 -67 -4
-78 11 -12 16 -25 17 -124 11 -110 -6 -110 -6 -110 16 0 13 -7 45 -15 72 -8
27 -15 63 -16 80 0 30 -1 30 -11 8 -9 -17 -7 -37 6 -83 9 -33 14 -64 11 -69
-3 -5 -1 -19 5 -31 11 -19 18 -21 118 -18 74 2 114 -1 131 -10 58 -32 211 15
211 65 0 13 20 37 51 64 49 41 51 45 47 86 -3 40 -1 44 24 49 15 4 32 13 39
21 9 11 23 13 48 9 45 -7 92 17 190 98 44 35 79 57 95 57 14 0 28 5 31 10 4 6
-7 10 -27 10 -24 0 -50 -12 -88 -41z"/>
<path d="M6240 4157 c0 -8 18 -35 41 -61 35 -40 46 -46 80 -46 21 0 39 -5 39
-11 0 -7 19 -10 53 -8 28 2 62 -2 74 -9 30 -16 82 -15 117 3 38 20 45 19 52
-10 4 -16 14 -25 28 -26 137 -9 192 -15 229 -24 38 -10 46 2 11 16 -30 12 -61
16 -173 23 -55 4 -67 9 -86 32 l-22 27 -42 -16 c-52 -21 -100 -22 -107 -2 -5
12 -17 14 -61 8 -41 -4 -57 -3 -63 8 -6 8 -22 13 -42 11 -40 -3 -45 1 -92 56
-20 24 -36 37 -36 29z"/>
<path d="M6924 3763 c-11 -36 -22 -48 -50 -56 -16 -5 -49 -15 -73 -23 -24 -7
-47 -11 -52 -9 -5 3 -22 -1 -39 -10 -30 -15 -32 -15 -50 7 -10 13 -21 20 -25
17 -3 -4 5 -19 18 -34 22 -26 24 -27 53 -13 16 9 44 16 63 16 18 0 39 6 44 11
6 6 25 11 42 11 35 0 73 23 84 52 6 17 11 12 35 -31 15 -28 31 -51 36 -51 5 0
10 -12 12 -27 3 -25 8 -28 42 -31 21 -2 45 -10 53 -18 17 -16 33 -18 65 -5 72
27 102 33 106 22 2 -6 15 -11 29 -11 l25 0 -30 25 c-31 26 -43 25 -131 -12
-29 -12 -36 -12 -51 2 -9 8 -33 15 -54 15 -32 0 -37 3 -31 19 4 13 0 23 -12
30 -11 5 -25 22 -33 38 -23 45 -51 83 -61 83 -5 0 -12 -8 -15 -17z"/>
</g>
</svg>
