<?xml version="1.0" standalone="no"?>
<!DOCTYPE svg PUBLIC "-//W3C//DTD SVG 20010904//EN"
 "http://www.w3.org/TR/2001/REC-SVG-20010904/DTD/svg10.dtd">
<svg version="1.0" xmlns="http://www.w3.org/2000/svg"
 width="600.000000pt" height="438.000000pt" viewBox="0 0 600.000000 438.000000"
 preserveAspectRatio="xMidYMid meet">
<metadata>
Created by potrace 1.16, written by Peter Selinger 2001-2019
</metadata>
<g transform="translate(0.000000,438.000000) scale(0.100000,-0.100000)"
fill="#000000" stroke="none">
<path d="M1858 4123 c-44 -43 -105 -104 -136 -136 -49 -51 -59 -57 -86 -52
-29 5 -35 1 -91 -75 -33 -44 -66 -80 -73 -80 -7 0 -18 12 -24 28 -7 15 -45 62
-85 105 -40 43 -73 82 -73 86 0 13 -119 113 -130 109 -5 -2 18 -25 51 -53 32
-27 67 -62 77 -77 10 -15 44 -56 77 -91 33 -35 71 -83 84 -105 27 -45 139
-162 155 -162 6 0 -18 29 -54 65 l-64 65 21 37 c12 21 41 61 65 90 38 45 47
51 73 47 28 -5 42 7 170 136 147 148 178 194 43 63z"/>
<path d="M2751 4192 c-1 -7 8 -31 20 -54 27 -53 57 -136 77 -216 13 -49 21
-64 38 -68 14 -4 25 -18 33 -44 15 -51 90 -132 143 -155 24 -10 60 -34 81 -54
20 -19 37 -31 37 -25 0 16 -62 70 -106 93 -23 11 -57 35 -76 53 -37 35 -73
102 -63 118 3 5 27 12 53 15 26 4 81 22 122 40 41 18 91 36 110 40 61 12 204
57 241 76 66 33 230 20 314 -26 60 -32 107 -29 193 10 30 14 61 25 70 25 13 0
162 -96 216 -140 53 -43 142 -124 153 -139 7 -10 46 -44 86 -75 41 -31 83 -73
93 -92 18 -33 218 -194 242 -194 5 0 36 -13 68 -30 33 -16 67 -27 77 -24 10 3
33 -3 51 -14 42 -25 218 -56 301 -54 11 1 90 1 175 2 164 1 210 6 210 21 0 6
-4 8 -9 5 -4 -3 -118 -6 -252 -6 -265 -1 -354 9 -421 49 -22 13 -45 20 -56 17
-19 -6 -106 27 -117 44 -3 6 -13 10 -22 10 -17 0 -170 109 -212 150 -14 14
-33 40 -42 57 -9 16 -42 47 -72 67 -31 21 -69 52 -85 69 -48 54 -172 164 -218
193 -16 10 -55 38 -88 61 -32 24 -66 43 -76 43 -10 0 -42 -11 -72 -25 -86 -39
-137 -42 -189 -12 -46 27 -101 37 -264 47 -11 1 -14 4 -7 7 6 2 12 16 12 29 0
20 -5 24 -29 24 -33 0 -49 -16 -33 -32 6 -6 8 -17 5 -26 -4 -10 -2 -13 5 -8 7
4 12 3 12 -2 0 -11 -54 -32 -79 -31 -10 0 -12 2 -3 6 6 2 10 9 6 14 -3 5 1 9
8 9 8 0 13 12 13 29 1 25 -4 30 -29 35 -21 4 -34 1 -45 -11 -22 -25 -21 -77 2
-81 26 -5 20 -21 -10 -28 -16 -3 -38 -9 -50 -14 -15 -6 -23 -6 -23 0 0 6 4 10
10 10 16 0 5 45 -12 48 -18 4 -46 -27 -32 -36 5 -4 10 -15 12 -24 2 -13 -4
-18 -23 -18 -15 0 -57 -13 -95 -30 -75 -33 -170 -60 -211 -60 -33 0 -44 14
-53 63 -11 59 -114 300 -115 269z"/>
<path d="M735 4170 c13 -14 21 -39 22 -69 7 -134 16 -207 25 -216 7 -7 8 19 4
80 -4 50 -8 108 -9 130 l-2 40 86 9 c77 7 90 6 127 -13 23 -12 50 -21 60 -21
48 0 105 -79 118 -162 7 -45 25 -86 55 -128 10 -14 29 -60 42 -102 14 -45 40
-96 61 -125 20 -26 51 -68 67 -91 17 -24 33 -41 36 -39 5 6 -24 51 -98 152
-21 29 -43 77 -53 115 -10 36 -31 84 -47 107 -17 24 -35 68 -43 106 -14 68
-58 156 -79 158 -7 1 -1 4 13 8 21 6 15 9 -30 15 -30 4 -74 14 -96 23 -30 11
-66 13 -133 10 -50 -3 -93 -1 -97 4 -3 5 -15 14 -27 20 l-22 12 20 -23z"/>
<path d="M4599 3960 c-21 -25 -41 -40 -55 -40 -12 0 -29 -3 -38 -6 -28 -11
-17 -20 20 -16 l35 4 -16 -38 c-9 -22 -25 -54 -36 -72 -27 -46 -24 -52 6 -12
13 18 32 54 42 79 9 25 32 65 51 89 35 43 35 43 54 22 15 -16 23 -18 39 -10
33 18 65 -15 90 -95 12 -38 31 -83 41 -98 11 -15 24 -56 28 -90 4 -34 15 -78
24 -97 11 -24 14 -27 11 -10 -3 14 -11 56 -16 95 -6 38 -21 87 -34 110 -13 22
-31 66 -39 98 -8 31 -18 62 -21 67 -7 11 24 13 49 4 9 -3 16 -14 16 -24 0 -11
5 -22 11 -26 6 -3 18 -23 26 -43 9 -20 28 -54 44 -76 16 -22 42 -78 59 -123
34 -92 59 -146 66 -139 2 2 -3 21 -12 42 l-16 38 34 -28 c56 -47 148 -134 148
-139 0 -4 -12 -6 -26 -6 -14 0 -23 -4 -19 -10 11 -17 46 -11 75 14 16 13 47
26 71 30 32 5 50 16 74 43 26 30 38 36 83 41 60 5 67 -6 25 -43 -16 -13 -23
-25 -16 -25 7 0 32 20 55 44 43 44 92 66 150 66 15 0 30 5 34 12 11 17 -109 2
-154 -19 -19 -9 -52 -16 -73 -14 -45 3 -115 -30 -124 -58 -4 -13 -19 -23 -43
-27 -20 -4 -52 -13 -70 -21 l-33 -13 -77 72 c-42 40 -88 82 -101 95 -13 13
-39 57 -57 99 -18 42 -39 84 -47 93 -8 9 -31 48 -51 86 -39 75 -75 102 -107
82 -13 -8 -21 -6 -34 6 -13 13 -21 15 -37 6 -15 -8 -24 -7 -37 5 -26 24 -37
20 -72 -24z"/>
<path d="M451 3845 c0 -25 7 -51 19 -70 11 -16 20 -39 20 -50 0 -11 7 -30 15
-42 19 -27 23 -140 6 -172 l-13 -23 -14 23 c-7 13 -23 43 -36 66 l-22 43 22
39 c12 21 22 47 22 57 -1 12 -7 6 -17 -16 l-16 -35 -11 67 c-16 95 -23 92 -19
-10 5 -122 10 -147 38 -180 30 -36 41 -78 25 -97 -7 -8 -16 -15 -19 -15 -4 0
-22 32 -40 72 -31 66 -33 77 -27 139 4 41 2 70 -4 74 -6 4 -10 -8 -11 -27 0
-18 -4 -42 -8 -52 -6 -17 -9 -15 -21 14 -19 46 -15 78 15 108 26 26 34 62 13
62 -6 0 -8 -3 -5 -6 3 -4 1 -16 -6 -28 -11 -20 -12 -19 -18 14 l-6 35 -2 -40
c-2 -61 -21 -81 -21 -22 0 27 -5 47 -11 47 -7 0 -8 -14 -4 -40 4 -23 3 -40 -3
-40 -13 0 -39 31 -47 58 -4 13 -9 21 -12 18 -11 -10 20 -78 43 -93 13 -8 24
-21 24 -28 0 -7 11 -33 25 -58 31 -54 91 -226 101 -284 8 -50 -6 -57 -33 -17
-9 14 -27 30 -40 35 -33 12 -44 50 -37 130 6 61 4 77 -16 119 -27 58 -49 69
-24 13 9 -21 19 -54 22 -73 4 -31 3 -33 -12 -21 -9 7 -16 22 -16 32 0 11 -4
19 -10 19 -19 0 -10 -38 16 -69 16 -20 24 -38 20 -48 -6 -15 -9 -15 -26 3 -12
12 -23 43 -29 84 -10 73 -34 140 -50 140 -14 0 -14 -1 5 -38 18 -38 31 -112
17 -97 -6 6 -18 31 -28 58 -10 26 -21 47 -26 47 -4 0 -2 -19 6 -41 18 -49 18
-49 6 -49 -5 0 -12 11 -15 25 -4 14 -11 25 -17 25 -13 0 -2 -39 18 -62 8 -9
28 -20 43 -23 20 -4 29 -14 33 -34 3 -15 21 -47 39 -70 37 -48 149 -161 159
-161 13 0 39 -175 39 -257 0 -46 -3 -83 -6 -83 -17 0 -58 75 -129 236 -13 28
-40 70 -60 93 -35 39 -37 45 -32 89 3 26 9 55 12 65 5 11 2 17 -8 17 -8 0 -23
12 -33 27 -10 16 -19 23 -22 15 -2 -6 6 -24 17 -38 31 -40 25 -52 -9 -19 -23
22 -30 25 -30 12 0 -9 14 -26 30 -39 28 -20 41 -58 21 -58 -13 0 -46 43 -61
80 -7 16 -17 30 -22 30 -26 0 33 -139 72 -170 29 -23 101 -135 90 -138 -14 -5
-40 17 -40 34 0 8 -10 19 -23 25 -13 6 -36 35 -50 65 -15 30 -31 54 -37 54 -6
0 1 -22 15 -49 24 -48 21 -77 -5 -46 -7 8 -16 12 -22 9 -14 -9 12 -34 36 -34
41 0 66 -13 72 -35 3 -13 20 -30 39 -39 23 -11 34 -25 39 -48 3 -17 17 -54 30
-82 24 -52 56 -193 56 -247 0 -27 -3 -30 -22 -23 -13 4 -45 12 -72 18 l-48 11
-19 62 c-19 62 -19 63 1 102 11 22 20 53 20 69 0 15 4 32 9 37 14 16 23 55 13
55 -5 0 -13 -10 -16 -22 -6 -22 -7 -22 -21 7 l-15 30 5 -45 c3 -25 8 -54 11
-65 2 -11 0 -27 -5 -35 -18 -27 -35 6 -38 72 -4 71 -8 88 -22 88 -6 0 -6 -12
-1 -30 11 -38 -4 -39 -24 -2 -8 15 -15 21 -16 13 0 -8 12 -34 26 -58 14 -25
23 -50 20 -58 -2 -7 4 -24 15 -36 11 -12 18 -27 16 -33 -7 -22 -28 -16 -57 15
-16 19 -30 29 -30 23 0 -5 18 -27 39 -48 41 -40 52 -61 70 -131 13 -49 89
-131 130 -140 17 -3 47 -24 68 -46 65 -67 87 -40 34 42 -37 59 -47 91 -70 225
-12 68 -29 131 -46 163 -14 29 -25 62 -23 73 2 15 15 -2 42 -55 46 -90 82
-130 96 -107 5 8 11 44 11 80 2 38 5 8 9 -70 4 -74 11 -143 15 -153 10 -24 27
-17 43 19 8 16 29 55 48 86 26 43 32 61 25 75 -25 47 -35 93 -32 141 2 33 -1
52 -8 52 -6 0 -11 -20 -12 -47 l-1 -48 -14 34 c-8 18 -17 31 -20 29 -7 -7 17
-71 37 -96 28 -37 34 -97 12 -129 -10 -16 -27 -46 -37 -68 -19 -40 -19 -40
-26 -14 -4 14 -9 95 -11 180 l-4 153 34 23 c20 13 49 23 70 23 24 0 32 3 22 9
-11 7 -11 13 3 32 29 42 17 44 -18 3 -19 -21 -37 -36 -42 -31 -10 10 8 82 21
82 26 1 65 16 65 25 0 13 -6 13 -30 -2 -29 -18 -35 -3 -11 28 32 41 25 53 -8
14 -34 -39 -47 -68 -56 -122 -3 -23 -14 -42 -30 -52 -18 -12 -25 -13 -25 -4 0
20 62 148 98 205 18 28 42 86 54 127 11 42 24 76 28 76 10 0 30 -72 30 -109 0
-18 -9 -69 -21 -114 -13 -54 -22 -123 -24 -205 -2 -69 -8 -129 -14 -135 -7 -7
-8 -3 -4 12 5 19 -4 63 -25 121 -4 12 -6 11 -9 -3 -3 -10 1 -33 8 -50 8 -18
12 -58 11 -92 -3 -55 -2 -59 13 -44 8 8 21 44 28 79 13 61 27 64 27 5 0 -25
-61 -148 -90 -180 -44 -49 -53 -84 -47 -184 6 -120 27 -177 93 -250 64 -71
119 -186 144 -301 18 -81 19 -102 9 -242 -6 -84 -13 -184 -16 -221 -4 -61 -7
-69 -29 -78 -36 -13 -84 -11 -90 4 -3 8 4 58 15 113 35 173 43 294 25 382 -22
106 -32 127 -105 207 -35 39 -93 105 -128 148 -35 42 -80 87 -100 99 -93 57
-167 149 -187 233 -8 35 -42 95 -53 95 -5 0 2 -21 15 -47 31 -60 30 -79 -3
-97 -32 -17 -26 -21 11 -6 23 8 27 6 42 -27 20 -40 80 -102 137 -140 51 -35
246 -243 247 -263 0 -3 -10 -17 -23 -32 l-22 -28 -47 30 c-27 17 -57 30 -68
30 -12 0 -33 9 -48 19 -22 16 -48 20 -144 23 -64 2 -114 0 -111 -4 2 -5 48 -8
102 -8 85 0 104 -3 145 -25 26 -14 53 -25 61 -25 8 0 34 -13 58 -28 l44 -28
-34 -67 c-18 -37 -48 -109 -65 -160 -31 -89 -32 -97 -30 -244 2 -182 1 -182
-113 -184 -38 0 -92 -5 -120 -9 -32 -6 -7 -6 70 -2 66 3 176 7 245 8 180 3
334 24 430 59 28 10 72 15 120 14 41 -1 100 1 129 3 53 6 56 4 95 -33 22 -21
37 -41 33 -46 -5 -4 -12 -2 -16 5 -6 9 -27 10 -92 3 l-84 -10 75 4 c82 3 107
-5 119 -38 7 -20 16 -22 82 -23 41 -1 86 -5 102 -9 17 -4 27 -3 27 3 0 6 -20
14 -45 18 -33 5 -45 11 -45 24 0 32 32 48 106 51 60 3 74 0 98 -19 16 -12 40
-22 55 -22 14 0 37 -3 51 -6 24 -5 24 -5 6 10 -19 16 -19 16 4 16 17 0 21 3
13 11 -8 8 -21 6 -46 -6 -42 -20 -73 -10 -36 11 23 13 23 13 -13 14 -53 0 -71
9 -57 26 6 8 7 14 3 14 -5 0 -15 -9 -22 -20 -9 -15 -23 -20 -57 -20 l-45 0 39
40 c36 37 42 40 95 40 33 0 56 4 56 11 0 6 -9 8 -20 4 -22 -7 -26 5 -8 23 22
22 -5 13 -29 -10 -25 -24 -44 -17 -27 10 18 28 60 38 98 24 19 -7 59 -15 88
-18 82 -8 92 -11 133 -44 21 -16 47 -30 59 -30 11 0 30 -7 40 -15 11 -8 37
-15 57 -15 27 0 46 -8 65 -25 15 -14 37 -25 49 -25 34 0 38 -12 8 -27 -16 -7
-43 -24 -62 -38 -47 -35 -120 -54 -235 -61 -110 -7 -142 -23 -130 -68 3 -14 3
-33 0 -44 -8 -24 -83 -57 -151 -67 -27 -4 -75 -13 -105 -20 -30 -7 -67 -16
-83 -19 -43 -10 -110 -75 -104 -102 2 -13 -4 -36 -14 -51 -34 -50 -18 -125 37
-178 51 -49 120 -73 254 -89 154 -19 230 -35 251 -53 8 -7 25 -13 36 -13 12 0
43 -11 70 -25 52 -26 213 -65 265 -64 18 0 -29 15 -104 33 -76 19 -144 38
-150 43 -7 6 -31 16 -53 23 -22 7 -49 19 -60 25 -25 15 -108 31 -243 45 -139
15 -226 47 -258 94 -19 30 -6 92 26 121 11 10 20 31 20 48 0 33 19 107 32 121
6 8 149 38 155 33 1 -1 -4 -29 -11 -62 -12 -59 -12 -59 -56 -72 -43 -12 -44
-12 -7 -7 49 7 84 23 91 41 3 8 1 11 -4 8 -6 -4 -10 8 -10 27 0 54 10 78 32
78 13 0 18 -5 15 -14 -3 -8 -9 -30 -12 -49 l-7 -34 46 7 c44 7 116 46 116 64
0 5 -8 2 -17 -6 -27 -23 -79 -48 -103 -48 -15 0 -20 6 -20 26 0 36 17 64 40
64 10 0 22 5 25 10 3 6 13 10 22 10 12 0 14 -6 8 -27 -4 -19 -3 -25 4 -18 5 6
11 23 13 39 2 16 9 31 16 34 10 3 12 -5 8 -34 -5 -36 -5 -37 4 -9 13 39 15 84
6 112 -10 31 18 43 104 43 l71 0 -16 -30 c-23 -45 -17 -50 8 -5 12 22 31 41
42 43 41 8 151 56 178 78 36 30 47 30 48 2 1 -18 3 -16 11 10 9 27 16 32 42
32 l31 -1 -25 -13 c-16 -9 -27 -26 -30 -47 -4 -24 -14 -38 -38 -52 -43 -26
-54 -13 -17 20 23 19 25 22 6 11 -14 -8 -36 -29 -50 -47 l-25 -33 39 16 c60
25 90 50 93 79 4 33 14 39 125 66 83 21 136 39 182 62 11 5 43 14 70 18 l50 9
-44 1 c-30 1 -73 -11 -135 -36 -75 -30 -105 -37 -173 -40 -46 -1 -85 2 -88 7
-3 6 -17 10 -29 10 -28 0 -42 15 -51 53 -4 16 -21 38 -37 50 -16 12 -37 40
-47 62 -10 22 -37 58 -60 80 -27 25 -41 48 -41 65 0 14 -16 45 -35 69 -19 24
-35 48 -35 52 0 32 92 -32 161 -111 82 -95 123 -70 57 35 -68 108 -100 177
-86 186 21 14 27 11 43 -21 9 -16 19 -30 24 -30 5 0 16 -17 26 -37 30 -66 59
-120 76 -139 9 -11 30 -46 47 -79 29 -58 136 -174 149 -161 3 3 -21 33 -55 66
-59 57 -77 85 -49 74 7 -2 21 -18 31 -34 9 -17 24 -30 33 -30 12 0 9 7 -11 25
-14 13 -26 28 -26 33 0 5 -14 15 -30 22 -17 7 -38 27 -47 44 -8 17 -21 38 -28
46 -7 8 -32 51 -55 95 -23 44 -48 87 -56 95 -7 8 -27 30 -44 48 -28 30 -41 72
-22 72 18 0 112 -97 126 -130 8 -19 26 -46 40 -59 16 -15 26 -35 26 -53 0 -21
17 -45 70 -99 39 -40 72 -70 75 -68 2 3 -21 32 -53 64 -38 40 -63 76 -74 110
-9 27 -15 51 -14 53 2 1 17 -9 34 -23 23 -19 41 -25 79 -25 47 0 50 -2 101
-60 29 -33 51 -60 48 -60 -3 0 -25 14 -49 30 -25 17 -53 30 -64 30 -10 0 -27
6 -38 14 -25 16 -75 26 -75 15 0 -5 8 -9 18 -9 10 0 27 -7 38 -15 10 -8 29
-15 41 -15 12 0 42 -13 65 -29 24 -16 56 -33 70 -36 15 -4 33 -14 39 -21 9
-12 25 -13 65 -8 46 5 61 2 117 -25 35 -17 72 -31 83 -31 10 0 26 -6 35 -13
15 -11 15 -15 -6 -41 -17 -21 -41 -34 -92 -47 l-68 -19 59 6 c66 6 66 8 7 -65
-20 -24 -31 -42 -24 -40 6 2 32 32 57 67 57 77 77 81 35 7 -17 -30 -26 -55
-20 -55 6 0 11 6 11 14 0 8 9 21 20 29 11 8 18 16 15 19 -3 3 3 26 14 51 21
50 49 65 96 53 17 -4 23 -11 18 -23 -5 -12 0 -10 15 5 12 12 27 22 34 22 7 0
25 12 40 27 23 22 31 25 37 14 7 -10 10 -9 16 8 6 20 52 47 62 37 2 -2 -12
-20 -31 -40 -20 -19 -36 -39 -36 -43 1 -4 23 16 50 45 54 57 64 63 55 30 -5
-20 -4 -21 5 -5 19 30 90 12 90 -23 0 -5 9 -12 21 -15 26 -9 18 -16 -28 -26
-32 -7 -31 -7 7 -2 25 3 76 5 113 4 47 -1 75 3 90 14 12 8 40 16 62 16 l40 2
-45 7 c-36 6 -48 3 -64 -12 -24 -22 -44 -22 -115 -3 -35 9 -62 23 -75 40 -49
61 -171 48 -250 -26 -24 -21 -53 -39 -66 -39 -12 0 -42 14 -67 30 -24 17 -50
30 -57 30 -7 0 -25 9 -39 20 -14 11 -36 20 -50 20 -13 0 -44 7 -67 15 -24 8
-77 15 -121 15 -77 0 -78 0 -108 37 -22 27 -27 39 -18 45 21 14 75 9 132 -13
36 -13 68 -19 88 -15 18 3 57 9 87 15 30 5 63 12 72 16 11 4 34 -1 58 -14 22
-12 57 -21 78 -21 20 0 62 -7 92 -15 31 -8 99 -15 157 -15 101 0 153 -10 153
-30 0 -5 -11 -10 -25 -10 -17 0 -25 -5 -24 -17 0 -11 3 -13 6 -5 5 14 43 17
43 3 0 -5 -8 -12 -17 -14 -16 -4 -16 -5 -1 -6 9 0 20 3 23 9 3 5 20 7 38 5 23
-4 26 -3 9 3 -31 9 -31 22 0 45 21 15 30 17 47 8 27 -15 27 -29 -1 -42 -21 -9
-20 -9 5 -4 33 7 56 -3 36 -16 -11 -7 -10 -9 4 -9 10 0 15 -4 12 -10 -3 -5 -1
-10 5 -10 7 0 10 6 7 14 -4 10 5 16 31 21 38 6 97 34 75 35 -25 0 -13 20 12
20 26 0 34 -15 13 -23 -10 -4 -10 -6 -1 -6 20 -2 27 21 10 34 -10 7 -17 17
-17 23 0 16 -48 26 -63 14 -6 -6 -25 -8 -40 -5 -32 6 -32 4 16 126 16 42 40
89 53 102 13 14 24 29 24 33 2 15 84 102 101 107 11 4 17 10 14 14 -9 16 80
79 197 141 l56 29 279 -5 278 -5 100 -48 c85 -40 112 -59 180 -128 44 -45 88
-96 99 -113 l18 -32 -63 7 c-35 3 -127 10 -204 14 -92 6 -155 15 -183 26 -24
10 -45 15 -48 12 -3 -2 7 -8 21 -11 51 -13 12 -26 -78 -27 -51 0 -112 -4 -137
-9 -30 -6 5 -7 100 -3 195 7 248 6 434 -8 172 -13 188 -20 202 -74 5 -21 0
-34 -27 -62 -31 -33 -32 -34 -6 -18 15 10 31 25 36 33 7 13 13 8 26 -23 9 -22
19 -57 22 -78 7 -43 34 -60 87 -55 l31 3 1 150 c0 176 -2 195 -25 195 -11 0
-28 20 -45 50 -34 63 -96 142 -158 201 -26 26 -48 49 -48 51 0 3 39 11 88 19
48 7 79 15 68 17 -10 2 -54 -1 -97 -8 l-79 -11 -100 48 -100 48 0 38 c0 32 -3
37 -24 37 -24 0 -36 -16 -36 -49 0 -16 -5 -17 -37 -11 -21 5 -65 13 -98 20
-59 12 -365 8 -462 -6 -43 -6 -43 -6 -43 26 0 27 -3 31 -22 28 -19 -2 -23 -9
-23 -42 l0 -39 -65 -21 c-36 -12 -78 -30 -94 -41 -23 -15 -44 -18 -113 -16
-76 2 -89 -1 -131 -25 -25 -15 -65 -33 -87 -40 -37 -12 -38 -13 -11 -13 16 -1
57 15 92 34 48 27 74 35 111 35 28 0 53 -3 56 -6 4 -4 -34 -46 -83 -95 -49
-48 -96 -99 -105 -113 -13 -19 -26 -26 -50 -26 -32 0 -162 -43 -178 -60 -5 -4
28 5 73 21 77 28 120 36 120 23 0 -18 -22 -42 -35 -38 -37 14 -42 -10 -37
-160 2 -79 2 -156 -2 -171 -6 -25 -10 -27 -44 -21 -20 4 -95 11 -167 16 -71 5
-159 15 -195 23 l-65 14 45 20 c66 31 90 73 90 159 0 41 5 77 13 86 19 25 85
28 142 7 28 -11 60 -19 72 -19 12 0 25 -4 28 -10 3 -5 12 -10 18 -10 22 1 -26
30 -49 30 -12 0 -42 9 -67 20 -33 15 -57 19 -85 14 -46 -7 -68 12 -25 22 96
21 123 39 123 84 0 27 -41 72 -96 107 -15 10 9 12 126 9 124 -4 132 -3 55 4
-49 4 -179 8 -287 9 -108 1 -232 6 -274 12 l-76 12 4 86 c4 94 33 172 82 223
30 31 82 40 216 38 232 -5 385 9 470 40 14 5 104 39 200 76 96 36 183 69 192
73 14 5 10 15 -28 65 -52 71 -55 99 -14 151 31 39 31 42 14 149 -8 56 6 97 37
108 16 5 29 15 29 20 0 6 -6 5 -15 -2 -8 -7 -15 -8 -15 -2 0 5 7 15 15 22 9 7
13 15 10 18 -2 3 -14 -6 -26 -19 -21 -24 -21 -21 -3 29 5 14 4 13 -9 -3 -16
-19 -16 -19 -11 15 l5 35 -16 -25 -16 -25 7 25 c6 22 5 23 -9 12 -11 -10 -14
-23 -10 -43 7 -37 -2 -37 -21 -1 -9 16 -15 21 -16 11 0 -8 11 -26 24 -38 28
-26 25 -65 -4 -56 -22 7 -34 -19 -15 -35 13 -11 32 -110 26 -140 -2 -11 0 -12
9 -4 9 9 9 27 -1 75 -6 35 -16 69 -21 76 -7 8 -3 10 11 6 11 -3 20 -12 20 -21
0 -10 3 -48 7 -86 6 -55 4 -71 -7 -80 -27 -20 -49 -60 -49 -87 0 -16 17 -49
40 -80 37 -49 39 -55 23 -66 -9 -7 -20 -13 -25 -13 -18 0 -89 126 -109 193
-12 39 -36 92 -54 117 -31 43 -105 181 -105 197 0 4 20 -27 45 -69 51 -87 65
-101 65 -63 0 14 -4 24 -8 21 -10 -6 -40 32 -67 84 -17 34 -17 34 4 48 11 8
21 20 21 26 0 6 -4 4 -10 -4 -5 -8 -12 -12 -15 -8 -12 12 20 48 42 48 13 0 24
3 24 8 8 42 6 52 -8 41 -11 -9 -12 -9 -8 3 4 9 -1 18 -9 21 -12 5 -16 0 -16
-21 0 -15 -9 -42 -21 -61 -21 -35 -38 -37 -20 -3 14 26 14 35 1 27 -5 -3 -11
2 -11 12 -1 10 -4 5 -8 -12 -8 -40 -36 -44 -50 -8 l-11 28 5 -27 c3 -17 1 -28
-5 -28 -6 0 -8 -4 -5 -10 3 -5 11 -10 16 -10 6 0 7 5 3 12 -4 7 -3 8 4 4 9 -5
9 -13 1 -28 -10 -18 -9 -20 5 -15 9 4 15 3 14 -1 -3 -11 79 -170 119 -230 19
-28 43 -82 52 -120 10 -38 33 -91 54 -121 20 -30 35 -56 34 -58 -6 -6 -241
-93 -251 -93 -5 0 -6 3 -3 7 4 3 2 12 -4 20 -9 10 -8 17 1 28 11 13 10 18 -6
29 -15 11 -16 17 -6 29 7 8 11 25 10 38 -3 20 1 23 20 21 15 -2 22 2 22 12 0
9 6 16 14 16 8 0 16 10 18 22 2 14 12 24 28 28 16 4 21 8 13 13 -7 4 -10 14
-7 21 6 16 -25 56 -43 56 -7 0 -13 4 -13 10 0 5 -13 7 -30 4 -21 -5 -30 -3
-31 7 -2 21 -2 22 6 47 6 21 4 22 -19 16 -36 -9 -48 22 -18 45 24 18 21 64 -4
54 -8 -3 -14 0 -14 5 0 6 -10 12 -21 14 -33 5 -47 33 -30 60 12 19 11 23 -4
34 -11 8 -15 19 -10 33 6 21 25 29 25 11 0 -5 7 -10 15 -10 8 0 15 6 15 14 0
8 3 23 6 33 5 16 4 16 -11 -2 -14 -17 -17 -18 -25 -5 -15 22 -8 44 18 55 12 5
22 15 22 22 0 16 16 17 26 1 5 -7 3 -8 -7 -3 -12 8 -12 6 0 -8 17 -21 37 -22
45 -1 9 23 8 27 -9 20 -9 -3 -15 0 -15 10 0 12 7 15 27 11 15 -3 36 -1 45 4
12 6 18 6 18 -1 0 -5 7 -10 15 -10 8 0 15 -7 15 -15 0 -8 9 -15 20 -15 11 0
20 -7 20 -15 0 -8 5 -15 10 -15 6 0 10 5 10 11 0 5 5 7 10 4 6 -4 8 -11 4 -16
-3 -6 6 -9 22 -7 22 2 29 -2 34 -22 6 -22 8 -23 15 -7 5 12 15 17 27 14 12 -3
22 1 25 10 5 12 7 12 15 1 7 -10 11 -10 15 0 7 17 23 15 23 -3 0 -21 16 -19
25 3 6 15 8 14 20 -8 8 -14 12 -33 9 -42 -6 -20 6 -24 23 -7 12 12 3 37 -25
67 -14 15 -91 24 -107 12 -17 -12 -55 -19 -60 -10 -7 11 -65 40 -80 40 -7 0
-22 9 -35 20 -27 23 -20 21 -92 26 -55 3 -57 2 -106 -44 -43 -41 -50 -53 -56
-100 -4 -29 -4 -58 0 -64 4 -6 8 -30 8 -52 1 -32 5 -41 20 -44 10 -2 28 -12
39 -22 18 -17 18 -20 4 -41 -18 -25 -7 -59 18 -59 10 0 15 -10 15 -29 0 -30
20 -54 42 -50 22 4 65 -18 72 -38 5 -12 1 -23 -13 -35 -12 -9 -21 -20 -21 -25
0 -4 -16 -19 -35 -32 -25 -17 -35 -31 -35 -50 0 -14 -4 -33 -10 -41 -6 -9 -5
-19 3 -28 6 -8 12 -31 13 -52 2 -36 -1 -40 -36 -54 -34 -14 -143 -36 -177 -36
-7 0 -13 5 -13 10 0 6 9 10 21 10 22 0 73 25 97 48 7 6 17 12 22 12 4 0 8 16
8 35 0 22 -5 35 -13 35 -7 0 -15 6 -18 13 -3 8 -25 14 -53 16 -26 1 -51 4 -56
7 -15 9 -78 -17 -107 -44 -37 -34 -37 -73 -3 -107 20 -20 32 -24 54 -20 15 4
28 2 28 -3 0 -8 -151 -24 -220 -22 -14 0 -69 1 -123 2 l-98 1 60 54 c35 31 64
67 71 88 6 19 19 37 29 40 10 3 28 15 40 26 19 18 41 23 120 29 74 5 109 13
152 33 31 15 73 27 93 27 20 0 48 7 61 16 38 25 30 34 -12 13 -21 -10 -43 -19
-50 -19 -19 0 -16 17 4 29 10 5 16 12 13 15 -3 2 -34 -15 -70 -38 -79 -52
-100 -60 -100 -41 0 21 24 40 76 60 55 20 94 51 94 74 0 9 -11 2 -30 -19 -30
-36 -41 -31 -15 7 9 12 11 24 6 27 -5 4 -18 -11 -28 -33 -11 -24 -29 -42 -47
-50 -16 -6 -31 -9 -33 -7 -2 1 8 20 22 41 14 20 23 40 20 43 -8 9 -33 -27 -65
-97 l-30 -64 -55 7 c-35 4 -55 2 -55 -4 0 -5 -10 -10 -23 -10 -13 0 -42 -14
-65 -31 -24 -17 -45 -29 -48 -26 -11 11 53 58 93 68 32 8 56 26 100 74 32 34
65 72 73 85 12 17 28 24 68 28 29 2 55 9 58 14 4 6 -6 7 -26 3 -35 -8 -35 -6
4 47 11 15 16 31 12 35 -4 4 -12 0 -17 -9 -19 -34 -61 -78 -75 -78 -17 0 -8
26 23 63 13 16 23 36 22 45 0 13 -3 11 -11 -5 -15 -31 -30 -29 -22 2 3 14 2
25 -4 25 -10 0 -22 -32 -22 -62 0 -35 -41 -124 -75 -163 -24 -27 -35 -34 -35
-23 0 9 11 29 25 44 14 15 25 34 25 43 0 12 -5 10 -19 -8 -10 -13 -23 -21 -29
-17 -6 4 -13 -13 -17 -43 -8 -56 -15 -65 -73 -85 l-42 -15 6 24 c4 15 2 25 -5
25 -6 0 -11 -5 -11 -11 0 -23 -43 -109 -55 -109 -7 0 -15 14 -19 32 -5 26 -1
37 22 62 16 17 37 45 47 61 10 18 40 43 72 60 40 21 65 43 90 81 19 29 33 59
31 66 -3 7 -19 -13 -37 -44 -36 -63 -46 -70 -55 -35 -10 39 -7 47 38 89 44 39
73 93 56 103 -5 3 -14 -11 -20 -30 -15 -44 -32 -46 -23 -2 3 17 3 29 -1 26 -4
-3 -10 -26 -14 -49 -4 -24 -13 -45 -20 -48 -16 -5 -15 32 3 83 19 52 10 59
-12 9 -13 -27 -18 -67 -19 -133 -2 -91 -3 -95 -28 -108 -31 -16 -31 -17 -10
54 9 30 13 57 10 60 -3 3 -8 -3 -11 -13 -18 -56 -49 -131 -61 -144 -12 -12
-14 -10 -14 17 0 18 5 35 11 39 14 8 51 95 44 102 -6 6 -5 8 -33 -48 l-22 -45
4 55 5 55 -15 -60 c-12 -47 -13 -70 -5 -105 8 -38 7 -49 -8 -69 -30 -42 -40
-37 -44 26 -2 32 -3 12 -2 -45 3 -120 -6 -164 -39 -185 -36 -24 -94 -87 -118
-129 -12 -21 -28 -38 -35 -38 -22 0 -15 43 22 139 19 50 39 124 44 165 10 85
19 104 76 165 54 59 95 119 95 141 0 10 20 34 45 54 29 24 48 49 55 74 12 45
12 52 2 52 -4 0 -13 -21 -20 -47 -9 -31 -16 -43 -23 -36 -6 6 -6 19 0 35 5 13
6 30 2 37 -9 14 -21 -33 -21 -80 0 -47 -20 -44 -21 3 -1 24 -3 32 -5 18 -8
-47 -25 -100 -33 -100 -10 0 -31 45 -31 66 0 8 7 29 16 45 8 17 14 42 12 57
-4 26 -4 26 -15 -8 l-11 -35 -1 35 c-1 29 -3 32 -12 17 -12 -20 5 -165 21
-181 15 -15 12 -34 -12 -66 -28 -39 -39 -38 -27 2 12 43 12 125 -1 133 -6 4
-10 -19 -11 -62 0 -73 -16 -134 -36 -141 -8 -2 -13 6 -13 23 0 14 -5 46 -11
70 -14 54 2 131 34 172 16 20 22 43 24 92 l2 66 -9 -64 c-13 -89 -30 -103 -30
-23 0 34 -3 62 -7 62 -5 0 -8 -35 -8 -77 0 -43 -6 -91 -14 -108 l-13 -30 -19
24 c-24 29 -24 48 1 102 21 47 27 124 10 134 -6 4 -10 -13 -10 -44 0 -27 -5
-62 -11 -78 l-12 -28 -7 25 c-5 14 -8 40 -9 58 -1 17 -5 32 -11 32 -5 0 -8
-12 -5 -27 22 -141 29 -168 52 -191 23 -23 28 -57 9 -55 -17 2 -76 127 -76
160 0 17 -5 35 -12 39 -8 5 -10 -7 -5 -47 l6 -54 -24 30 c-29 35 -30 43 -10
69 9 12 14 39 14 70 l-2 51 -6 -52 c-10 -80 -28 -87 -38 -13 -3 23 -9 38 -14
33 -11 -11 7 -100 29 -143 11 -19 29 -40 42 -46 12 -7 34 -32 48 -55 13 -24
36 -56 50 -72 21 -22 26 -37 26 -85 0 -31 -6 -75 -13 -97 -7 -22 -16 -74 -21
-117 -5 -48 -20 -103 -40 -147 -45 -104 -54 -210 -16 -195 8 3 33 36 55 74 22
37 62 87 89 111 27 24 54 55 61 67 7 13 15 21 18 18 4 -3 15 2 26 11 20 18 20
18 2 -17 -10 -19 -55 -72 -101 -117 -63 -62 -91 -98 -115 -150 -30 -65 -32
-74 -33 -198 0 -74 -5 -133 -11 -137 -5 -4 -32 -8 -58 -8 -46 0 -48 1 -41 23
4 12 7 70 6 128 0 84 -5 117 -23 165 -19 50 -23 79 -23 191 -1 103 2 129 11
121 14 -11 12 -15 43 77 11 33 17 49 14 35 -23 -102 -3 -375 30 -408 13 -14
15 -8 14 54 0 51 5 81 19 110 30 57 43 104 57 197 8 45 17 91 21 102 7 19 7
19 -7 1 -14 -18 -16 -16 -26 27 -7 25 -12 61 -12 79 0 37 -30 128 -42 128 -12
0 -10 -13 7 -53 17 -41 20 -87 6 -87 -15 0 -39 40 -58 95 -9 27 -18 44 -21 37
-7 -23 29 -103 65 -143 39 -43 53 -83 53 -155 0 -49 -35 -177 -64 -232 l-14
-27 -12 45 c-8 30 -10 73 -5 130 15 172 13 192 -21 247 -45 71 -56 112 -48
172 5 39 1 64 -17 116 -12 36 -26 65 -31 65 -12 0 -10 -14 12 -66 11 -26 19
-49 16 -51 -10 -10 -46 24 -62 59 -15 34 -34 51 -34 31 0 -17 43 -79 68 -100
24 -20 27 -30 27 -84 l1 -61 -28 31 c-15 17 -28 38 -28 46 0 8 -4 15 -10 15
-14 0 -13 -6 6 -43 17 -32 50 -67 65 -67 4 0 19 -20 33 -44 31 -54 33 -105 8
-196 -17 -57 -20 -62 -30 -44 -6 11 -8 38 -5 61 6 48 -12 67 -35 37 -10 -14
-16 -16 -19 -6 -3 7 -21 33 -42 56 -140 167 -146 181 -116 266 16 45 20 137 7
157 -5 7 -8 -18 -8 -57 1 -71 -12 -102 -32 -78 -7 10 -7 25 0 54 10 38 3 123
-9 110 -3 -3 -5 -33 -5 -66 0 -33 -3 -60 -7 -60 -5 0 -14 21 -21 48 -7 26 -14
42 -17 35 -8 -22 18 -93 46 -126 27 -30 28 -34 16 -62 l-13 -30 -1 32 c-1 17
-6 35 -13 39 -8 5 -9 0 -5 -15 3 -14 1 -21 -6 -18 -20 6 -37 49 -37 92 0 48
-16 110 -37 142 -24 36 -25 22 -1 -25 11 -24 18 -45 15 -48 -10 -11 -47 21
-47 41 0 11 -5 27 -11 35 -8 12 -9 9 -5 -12 7 -33 -4 -37 -22 -8 -7 11 -18 20
-25 20 -11 0 30 -42 97 -97 19 -16 26 -31 26 -57 0 -56 -21 -46 -98 49 -18 23
-32 33 -32 24 0 -8 16 -34 36 -57 53 -63 10 -54 -63 13 -20 19 -39 32 -42 29
-3 -3 16 -25 42 -49 35 -32 64 -49 107 -61 51 -14 65 -23 94 -63 72 -95 81
-107 128 -160 26 -30 46 -56 44 -59 -2 -2 -24 12 -48 30 -25 19 -58 40 -76 47
-32 13 -52 51 -52 99 0 14 -3 22 -7 19 -3 -4 -12 -2 -20 4 -17 15 -17 4 1 -24
8 -12 17 -33 21 -47 6 -24 5 -24 -23 6 -16 17 -32 38 -34 45 -3 8 -8 11 -12 8
-14 -13 61 -93 116 -123 31 -17 69 -40 83 -51 l27 -20 -49 0 c-44 0 -52 4 -92
45 -41 43 -40 31 3 -17 11 -13 17 -26 13 -29 -10 -10 -74 35 -112 79 -37 43
-46 44 -19 2 10 -15 12 -25 5 -25 -6 0 -18 11 -27 25 -9 14 -21 25 -26 25 -5
0 0 -13 12 -30 12 -16 29 -30 38 -30 9 0 35 -14 56 -30 37 -28 45 -30 132 -30
85 0 94 -2 108 -22 24 -34 20 -55 -15 -67 -63 -22 -121 -10 -199 42 -59 38
-179 165 -235 248 -61 90 -153 273 -160 317 -11 69 -15 81 -31 96 -19 20 -64
21 -89 2 -14 -10 -19 -28 -20 -77 -2 -59 -10 -80 -94 -249 -119 -242 -122
-246 -164 -254 -45 -8 -60 -27 -53 -64 5 -21 1 -33 -16 -48 -50 -45 -160 -68
-220 -45 -13 5 -39 23 -57 40 -41 38 -51 39 -51 3 0 -29 61 -97 107 -121 22
-11 22 -13 7 -36 -10 -16 -14 -36 -11 -53 5 -26 3 -27 -31 -27 l-37 0 0 50 c0
39 -4 50 -17 53 -10 2 -18 11 -18 21 0 25 -29 61 -50 61 -11 0 -20 9 -23 23
-4 19 -4 18 -6 -5 -1 -21 4 -28 17 -28 24 0 42 -19 42 -45 0 -14 10 -26 25
-33 21 -10 24 -15 15 -31 -5 -11 -7 -26 -4 -35 3 -8 -4 -25 -15 -37 -12 -13
-21 -26 -21 -30 0 -4 -9 -9 -20 -12 -11 -3 -20 -13 -20 -22 0 -31 -29 -72 -55
-77 -14 -3 -25 -2 -25 1 0 21 23 82 33 88 21 13 77 87 77 101 0 9 -8 5 -19 -9
l-20 -24 6 43 c8 63 -4 51 -18 -18 -16 -81 -34 -92 -25 -14 4 32 9 70 13 84 4
19 3 22 -7 14 -6 -7 -18 -52 -25 -100 -13 -86 -20 -117 -44 -178 -9 -22 -14
-26 -25 -17 -11 9 -15 9 -19 -1 -3 -7 -6 14 -6 46 -1 46 3 65 18 80 18 19 71
145 71 168 0 23 -21 -7 -31 -45 -10 -36 -12 -39 -19 -21 -6 15 -1 37 17 72 14
28 23 57 20 64 -3 8 -9 0 -16 -17 -23 -59 -25 -61 -29 -22 -2 20 -7 35 -13 32
-13 -9 -10 -94 5 -137 11 -31 11 -41 0 -55 -12 -16 -13 -13 -14 25 0 23 -4 42
-10 42 -6 0 -10 -40 -10 -99 0 -100 -10 -129 -30 -91 -8 14 -7 37 5 85 18 77
19 105 5 105 -5 0 -10 -14 -10 -31 0 -17 -4 -28 -10 -24 -5 3 -10 15 -10 26 0
10 -4 19 -10 19 -14 0 -13 -15 5 -57 9 -20 13 -45 9 -56 -9 -29 -24 -7 -39 55
l-13 53 -1 -42 c-1 -31 10 -62 39 -118 40 -75 53 -118 25 -81 -11 15 -17 16
-28 8 -18 -15 -27 -5 -27 27 0 17 -3 22 -10 15 -15 -15 8 -64 31 -64 46 0 49
-8 27 -68 -23 -61 -63 -132 -76 -132 -4 0 -19 11 -34 25 -32 29 -56 103 -65
194 -6 58 -5 64 11 58 14 -5 16 -3 11 12 -3 10 1 24 10 31 8 7 15 27 15 46 0
21 7 38 19 46 10 8 21 25 23 38 2 14 9 24 16 22 7 -1 17 9 22 22 5 13 15 28
23 33 8 4 18 22 24 38 6 18 17 30 27 30 10 0 22 8 27 18 6 9 21 17 34 17 13 0
26 6 28 13 4 9 7 9 15 -1 7 -10 14 -10 36 2 l28 14 -46 0 c-25 -1 -46 -5 -46
-10 0 -5 -9 -7 -20 -3 -13 4 -25 -1 -37 -14 -10 -12 -23 -21 -31 -21 -7 0 -18
-13 -23 -30 -6 -16 -15 -30 -20 -30 -5 0 -15 -12 -22 -27 -6 -16 -20 -34 -29
-41 -10 -7 -18 -18 -18 -24 0 -5 -11 -23 -25 -40 -14 -16 -25 -40 -25 -52 0
-26 -21 -76 -32 -76 -5 0 -8 15 -8 34 0 25 17 59 61 126 44 67 63 107 69 143
7 47 21 67 48 67 7 0 32 20 56 44 33 34 48 44 65 39 13 -3 42 4 71 18 54 26
66 43 23 33 -27 -7 -28 -6 -10 13 19 22 22 33 8 33 -5 0 -14 -13 -21 -30 -13
-31 -37 -56 -46 -48 -3 3 3 23 12 44 10 22 20 44 22 49 3 6 -7 -1 -22 -14 -14
-14 -26 -35 -26 -47 0 -13 -5 -26 -12 -30 -8 -5 -9 -2 -5 9 3 9 2 19 -3 22 -5
3 -11 -4 -15 -15 -3 -11 -15 -25 -26 -31 -11 -6 -24 -20 -29 -32 -8 -21 -9
-20 -9 5 -1 18 7 33 23 43 24 16 53 71 43 81 -3 3 -13 -10 -22 -30 -21 -43
-50 -51 -34 -10 5 15 7 29 5 32 -8 8 -25 -43 -32 -98 -5 -35 -13 -55 -28 -65
-29 -21 -32 -20 -51 27 -16 40 -15 43 7 89 18 39 30 51 64 64 23 9 48 23 54
31 7 7 19 14 27 14 8 0 37 11 64 25 27 13 56 22 65 18 16 -6 94 26 94 40 0 10
-5 9 -45 -10 -37 -18 -49 -15 -40 9 3 8 27 20 54 26 44 10 131 72 100 72 -7 0
-21 -7 -31 -17 -15 -14 -18 -14 -18 -1 0 8 9 23 20 33 24 22 19 31 -9 16 -11
-6 -26 -29 -32 -51 -10 -33 -17 -40 -37 -40 -21 0 -23 2 -12 15 7 9 10 18 7
21 -3 3 -24 -20 -46 -50 -26 -35 -55 -62 -78 -71 -20 -8 -38 -14 -40 -12 -10
10 12 36 38 47 28 12 84 68 76 77 -2 2 -20 -12 -40 -32 -19 -19 -40 -35 -46
-35 -23 0 -10 27 30 64 23 20 38 40 35 43 -11 12 -85 -73 -98 -112 -14 -43
-31 -52 -36 -19 -2 12 9 35 23 53 15 17 22 31 17 31 -16 0 -62 -59 -62 -79 0
-9 5 -22 12 -29 16 -16 -15 -49 -65 -69 -21 -9 -44 -27 -53 -42 l-15 -26 6 34
c13 84 25 109 61 130 19 11 41 34 47 50 11 26 87 91 87 74 0 -3 6 0 13 6 8 6
22 12 33 14 10 2 26 7 35 11 10 4 23 7 30 5 25 -3 39 1 39 11 0 5 -7 7 -15 4
-8 -4 -15 -1 -15 4 0 6 9 14 20 17 11 3 20 11 20 16 0 16 -16 10 -55 -21 -21
-17 -40 -28 -42 -26 -2 2 0 19 5 37 8 33 9 34 73 39 65 5 89 13 89 31 0 5 -14
2 -31 -6 -37 -20 -49 -12 -24 15 25 28 9 25 -27 -5 -16 -14 -34 -25 -39 -25
-16 0 -9 17 14 33 12 8 20 17 17 20 -14 15 -70 -47 -86 -96 -27 -81 -60 -94
-50 -19 4 32 3 41 -3 27 -5 -11 -10 -30 -10 -41 -1 -21 -46 -74 -62 -74 -18 0
-8 28 16 44 14 9 25 21 25 27 0 8 -5 7 -15 -1 -19 -16 -19 -6 1 24 9 15 11 27
5 30 -14 9 -53 -78 -55 -124 -2 -37 -36 -90 -58 -90 -4 0 -8 27 -8 60 0 54 3
61 23 69 27 10 53 39 44 48 -4 3 -13 0 -22 -7 -13 -10 -15 -9 -15 9 0 12 -4
19 -10 16 -5 -3 -10 -17 -10 -31 0 -13 -4 -24 -10 -24 -19 0 -10 52 15 82 14
16 25 37 25 46 0 10 -9 3 -22 -18 l-22 -35 -7 30 c-6 30 -6 29 -14 -12 -4 -24
-11 -40 -16 -37 -14 8 -10 37 10 77 13 25 15 37 7 37 -20 0 -35 -39 -45 -114
-11 -79 -16 -87 -36 -60 -19 25 -19 37 5 81 21 40 27 83 10 83 -5 0 -10 -15
-11 -32 -1 -31 -1 -32 -9 -8 -7 22 -8 20 -9 -15 -1 -47 -18 -37 -24 15 -2 23
-4 13 -5 -26 -2 -50 2 -68 23 -98 33 -48 32 -82 -6 -140 -30 -48 -30 -48 -46
-27 -13 19 -13 25 -1 39 33 42 53 102 28 87 -5 -3 -10 -14 -10 -24 0 -10 -8
-25 -17 -32 -15 -13 -16 -12 -11 8 4 13 2 25 -2 28 -5 3 -12 -15 -15 -39 -5
-33 -3 -51 9 -68 9 -12 16 -32 16 -43 0 -20 -40 -105 -50 -105 -3 0 -14 35
-24 78 -18 78 -18 78 2 123 12 24 31 60 42 79 15 26 20 53 20 110 0 67 3 80
30 120 29 44 39 80 21 80 -5 0 -11 -13 -14 -30 -7 -34 -27 -41 -27 -10 0 11
-5 20 -11 20 -7 0 -8 -11 -4 -30 3 -16 2 -37 -4 -47 -9 -16 -11 -15 -20 10
-14 37 -14 49 4 83 17 33 20 78 5 69 -5 -3 -10 -18 -10 -33 0 -28 -14 -21 -24
13 -3 11 -4 3 -3 -17 3 -41 -10 -52 -17 -15 -3 12 -7 31 -9 42 -3 11 -5 2 -6
-20z m1389 -259 c0 -19 53 -115 132 -241 71 -111 183 -237 249 -280 56 -36
137 -56 182 -46 60 14 55 20 -12 14 -52 -5 -68 -2 -116 22 -67 32 -152 109
-219 196 -46 61 -43 59 45 -31 106 -108 146 -139 207 -163 81 -32 157 -15 198
45 15 21 29 36 31 34 8 -8 -16 -43 -47 -69 -16 -14 -25 -27 -18 -29 21 -7 -54
-51 -96 -55 -33 -4 -60 3 -129 33 -78 34 -97 47 -176 129 -78 80 -95 105 -149
215 -57 117 -102 225 -102 243 0 5 5 5 10 2 6 -3 10 -12 10 -19z m-54 -18 c-3
-18 -10 -73 -16 -123 -18 -143 -83 -380 -112 -408 -75 -73 -156 -58 -199 37
-20 44 -26 111 -9 101 6 -3 10 -17 10 -30 0 -12 13 -37 29 -54 67 -71 159 -19
201 114 25 83 57 222 73 323 6 39 15 72 20 72 5 0 7 -15 3 -32z m140 -325 c2
-41 5 -77 7 -81 3 -4 12 -43 22 -87 10 -44 26 -102 36 -128 23 -58 23 -57 0
-57 -13 0 -24 13 -34 39 -20 48 -50 208 -44 226 3 7 2 16 -3 21 -10 11 -30
124 -30 174 l0 35 21 -34 c15 -25 22 -56 25 -108z m-141 -68 c9 -72 18 -138
21 -147 9 -29 -21 -21 -34 10 -11 26 -11 26 -5 -8 3 -19 7 -49 8 -66 1 -17 6
-37 10 -43 10 -16 0 -25 -20 -17 -9 3 -13 10 -10 16 3 5 2 10 -3 10 -23 0 -46
170 -30 224 10 31 13 35 19 20 5 -12 8 1 8 36 1 52 10 104 16 98 2 -2 11 -62
20 -133z m196 16 c0 -21 2 -23 8 -7 6 16 10 13 32 -20 14 -22 35 -75 48 -119
13 -44 31 -92 42 -107 24 -35 24 -40 -3 -36 -17 2 -31 23 -62 96 -23 51 -42
88 -44 82 -2 -5 -10 -10 -17 -10 -16 0 -31 50 -40 135 l-6 60 20 -24 c12 -13
21 -35 22 -50z m539 -177 c6 -14 9 -83 8 -152 l-3 -126 -45 -11 c-25 -7 -69
-15 -98 -19 l-52 -7 0 86 c0 79 1 85 20 85 11 0 23 7 26 15 4 8 11 15 17 15
17 0 47 32 47 50 0 18 50 89 63 90 4 0 12 -12 17 -26z m820 12 c19 -2 36 -9
38 -15 2 -6 12 -11 23 -11 27 0 24 -20 -3 -21 -21 -1 -20 -2 7 -14 l30 -14
-27 -1 c-18 0 -28 -5 -28 -15 0 -8 -5 -15 -11 -15 -6 0 -17 -7 -25 -15 -22
-21 -54 -19 -54 4 0 10 7 24 15 31 8 7 15 17 15 22 0 6 -7 5 -15 -2 -13 -10
-15 -9 -15 9 0 11 -6 21 -14 21 -10 0 -12 -12 -8 -50 4 -48 3 -50 -20 -50 -33
0 -78 38 -59 49 9 6 10 11 2 15 -18 12 -12 25 13 32 16 4 23 11 19 20 -4 10 3
14 20 14 14 0 28 4 32 10 3 5 11 7 18 5 7 -3 28 -7 47 -9z m-1760 -131 c14 -8
22 -14 18 -15 -4 0 4 -12 17 -26 20 -21 31 -25 55 -21 17 4 30 2 30 -4 0 -15
43 -27 67 -18 15 5 25 3 33 -7 15 -17 44 -18 71 -3 14 7 24 7 33 0 7 -6 38 -8
77 -5 35 4 77 6 93 5 16 0 35 4 42 10 7 6 21 8 31 5 10 -3 31 1 47 9 16 9 37
13 46 10 9 -3 28 4 42 14 32 25 36 21 29 -27 l-6 -37 -220 -6 c-121 -3 -283
-8 -360 -10 l-140 -4 -3 51 c-2 42 -7 53 -22 57 -11 3 -20 12 -20 21 0 19 7
20 40 1z m-20 -82 l5 -51 -35 -6 c-19 -3 -83 -6 -142 -6 l-108 0 0 40 c0 43
-6 41 103 40 34 -1 49 4 53 15 4 10 14 13 29 9 13 -3 32 -1 42 5 34 20 48 9
53 -46z m-445 17 c17 14 36 5 28 -15 -3 -8 0 -15 6 -15 6 0 11 8 11 18 0 20
28 22 73 4 22 -9 27 -18 26 -44 0 -28 -1 -30 -9 -12 -12 31 -80 55 -80 28 0
-7 8 -10 20 -7 11 3 20 0 20 -6 0 -6 7 -11 16 -11 14 0 14 -3 4 -15 -9 -11 -9
-15 -1 -15 7 0 9 -10 5 -27 -10 -38 -27 -53 -46 -42 -18 10 -48 2 -48 -12 0
-5 -11 -9 -24 -9 -13 0 -29 -7 -36 -15 -7 -8 -22 -16 -34 -16 -21 -2 -20 -2 1
-6 21 -4 19 -7 -22 -49 -25 -24 -45 -53 -45 -63 0 -23 -15 -34 -62 -48 -49
-14 -49 0 1 35 41 28 66 60 57 70 -4 3 -13 -3 -21 -14 -14 -18 -14 -17 -16 11
-1 29 -1 29 -13 -9 -13 -41 -36 -61 -36 -30 0 31 -14 5 -19 -38 -5 -35 -12
-44 -46 -64 -22 -12 -43 -20 -47 -18 -8 5 1 40 19 74 7 14 13 29 13 34 0 5 16
27 35 50 20 22 48 56 63 73 32 38 46 42 37 11 -5 -20 -5 -21 5 -5 7 10 9 25 6
32 -9 24 29 35 129 37 95 2 127 14 58 21 l-38 3 33 14 c17 8 32 18 32 22 0 15
-25 8 -62 -17 -24 -17 -51 -25 -77 -25 -39 0 -53 11 -30 25 6 4 8 13 5 21 -4
9 4 18 19 24 14 5 25 16 25 24 0 18 21 26 38 13 8 -6 17 -5 27 3z m915 -282
c20 -309 21 -292 -17 -296 -27 -3 -33 1 -37 20 -7 32 -24 471 -19 481 2 4 17
7 32 7 l27 0 14 -212z m278 -40 l-3 -253 -27 -3 -28 -3 -1 168 c-1 92 -3 207
-5 256 l-4 87 35 0 35 0 -2 -252z m-636 157 c3 -44 9 -160 13 -257 l8 -177
-40 19 -40 19 -8 230 c-4 126 -4 235 0 241 4 6 19 10 33 8 26 -3 27 -6 34 -83z
m211 33 c3 -24 1 -47 -4 -53 -6 -5 -50 -12 -99 -13 l-90 -4 0 49 c0 27 3 53 7
56 3 4 45 7 93 7 l87 0 6 -42z m677 -10 c6 -18 14 -67 17 -109 5 -69 4 -77
-13 -82 -53 -16 -100 -18 -163 -6 l-71 12 0 92 0 92 93 15 c130 21 124 22 137
-14z m-1242 -33 c22 4 31 2 35 -9 4 -9 16 -16 28 -16 15 0 19 -4 15 -16 -5
-13 -1 -15 19 -12 19 4 25 1 25 -13 0 -11 7 -19 15 -19 25 0 17 -29 -10 -36
-14 -3 -25 -13 -25 -21 0 -12 -8 -14 -38 -9 -49 7 -84 -13 -63 -38 12 -14 10
-16 -14 -16 -20 0 -26 -4 -21 -15 9 -23 -21 -30 -49 -11 -20 13 -30 14 -47 5
-18 -9 -24 -8 -34 6 -11 15 -16 16 -29 5 -12 -10 -21 -10 -38 -2 -12 6 -32 14
-45 17 -36 10 -17 19 56 26 l67 6 -70 1 c-61 2 -67 4 -55 17 8 8 32 21 52 29
35 15 38 15 65 -7 32 -27 63 -40 63 -28 0 4 -12 14 -27 21 l-28 14 40 7 c30 5
33 7 13 8 -41 2 -34 21 6 21 19 0 38 5 41 10 10 16 -68 11 -89 -5 -22 -16 -46
-20 -46 -7 0 5 10 13 23 18 12 6 16 9 8 7 -9 -2 -11 3 -7 14 4 10 -8 2 -26
-18 -34 -38 -125 -95 -135 -85 -7 7 62 76 75 76 5 0 14 11 20 25 6 14 19 25
28 25 10 0 26 8 36 17 15 14 23 15 38 5 15 -9 23 -8 42 8 21 16 25 17 40 3 11
-10 26 -13 46 -8z m864 -60 c1 -30 2 -63 2 -72 1 -14 -13 -21 -62 -31 -35 -8
-65 -12 -68 -10 -2 3 -7 39 -10 80 -8 86 -10 84 89 87 l47 1 2 -55z m2376 31
c45 -7 86 -17 90 -21 4 -4 -11 -5 -33 -1 -123 21 -169 25 -260 24 l-100 -1
120 -7 c66 -4 154 -15 195 -24 41 -9 76 -16 78 -16 1 0 2 -10 2 -21 0 -24 13
-25 -155 7 -121 23 -310 23 -393 1 -77 -21 -82 -21 -82 -3 0 16 79 42 168 55
40 6 47 9 22 9 -33 1 -87 -7 -157 -23 -22 -5 -33 -4 -33 3 0 37 348 49 538 18z
m-3034 -12 c11 -11 16 -35 16 -82 0 -37 3 -84 6 -104 6 -33 4 -38 -12 -39 -17
-1 -17 -2 -2 -6 20 -5 35 -50 22 -63 -5 -5 -25 -13 -44 -19 -34 -10 -34 -10 9
-5 34 5 42 3 39 -7 -3 -9 -24 -15 -57 -17 -31 -2 -50 1 -47 6 3 5 -3 12 -14
15 -29 7 -27 53 3 63 l22 8 -25 6 c-22 5 -25 12 -28 52 -3 44 0 50 39 87 38
38 48 71 19 71 -5 0 -10 9 -10 19 0 12 -8 21 -22 24 -13 2 -2 5 24 6 30 1 52
-4 62 -15z m370 -55 c9 -95 9 -99 -16 -99 -13 0 -56 -10 -96 -21 -40 -12 -75
-20 -77 -17 -3 3 -8 48 -12 102 l-6 96 100 0 100 0 7 -61z m2074 29 c-2 -6
-29 -21 -59 -32 -108 -42 -196 -103 -264 -181 -22 -25 -52 -58 -66 -73 -14
-15 -39 -48 -55 -74 -16 -27 -32 -48 -36 -48 -12 0 -10 7 24 68 18 32 76 101
134 159 101 102 147 132 272 178 47 17 55 18 50 3z m491 -74 c108 -19 240 -67
309 -110 29 -19 56 -34 61 -34 19 0 124 -106 164 -164 68 -100 138 -260 136
-310 0 -21 -1 -21 -9 -1 -5 11 -26 63 -46 115 -71 183 -188 322 -324 387 -149
71 -226 94 -362 105 -285 25 -473 -45 -669 -249 -87 -90 -118 -141 -179 -300
-21 -53 -29 -63 -48 -63 -28 0 -25 22 4 30 10 3 19 10 19 15 1 33 20 103 33
125 117 191 189 272 319 357 58 38 179 84 278 106 48 11 236 6 314 -9z m-479
-12 c0 -5 -28 -22 -62 -38 -112 -53 -225 -156 -316 -287 -54 -79 -92 -155 -92
-188 0 -10 -4 -19 -10 -19 -33 0 11 122 77 214 101 139 191 221 316 287 75 40
87 44 87 31z m894 -34 c78 -60 119 -104 178 -192 82 -124 98 -158 98 -212 l0
-47 -54 106 c-30 59 -77 135 -105 171 -50 63 -150 145 -221 182 l-35 18 25 7
c37 11 69 2 114 -33z m-2376 8 l83 1 -7 -46 c-4 -25 -11 -48 -16 -49 -4 -2
-15 -10 -22 -18 -17 -16 -82 -19 -91 -4 -3 6 -10 10 -16 10 -5 0 -4 -9 3 -21
11 -18 10 -23 -9 -36 -13 -9 -23 -25 -23 -37 0 -36 -12 -66 -25 -66 -20 0 -27
-31 -10 -50 21 -23 19 -30 -10 -30 l-25 0 0 125 0 125 28 1 27 1 -27 10 c-25
9 -28 15 -28 55 l0 45 43 -9 c23 -4 79 -7 125 -7z m443 -15 c92 -1 125 -11
207 -64 67 -43 67 -69 -1 -94 -19 -7 -25 -12 -14 -12 21 -1 59 17 69 33 18 27
4 46 -64 90 -66 41 -70 46 -43 46 34 -1 115 -55 141 -95 15 -23 15 -27 0 -49
-12 -19 -33 -28 -90 -41 -80 -18 -119 -16 -76 4 24 11 24 11 -5 6 -44 -8 -45
-8 -111 -7 l-62 2 -6 44 c-5 32 -12 45 -26 49 -25 6 -25 -6 -2 -33 9 -11 18
-28 19 -38 4 -49 12 -95 18 -101 6 -6 10 -7 36 -10 7 -1 9 -11 5 -26 -4 -15
-2 -25 5 -25 5 0 9 -10 7 -22 -2 -17 -9 -23 -25 -22 -16 0 -23 -5 -23 -19 0
-16 -5 -18 -30 -12 -26 6 -29 4 -23 -11 5 -14 2 -16 -21 -12 -22 5 -26 2 -21
-13 8 -24 -15 -25 -41 -1 -10 9 -35 18 -54 18 l-35 2 39 -12 c58 -18 58 -36 1
-36 -46 0 -133 39 -107 48 6 2 9 9 6 16 -9 24 67 64 134 72 42 4 60 10 53 17
-5 5 -7 16 -4 23 3 8 0 14 -6 14 -7 0 -14 -7 -17 -15 -4 -8 -29 -22 -57 -30
-59 -18 -77 -19 -77 -5 0 22 39 47 93 59 31 7 57 16 57 21 0 4 -9 6 -20 3 -18
-5 -19 -3 -9 26 18 51 4 59 -15 9 -13 -34 -25 -48 -43 -53 -35 -9 -37 -3 -13
44 22 44 13 56 -14 19 l-17 -23 5 22 c2 13 0 26 -5 29 -5 3 -9 -17 -9 -45 0
-59 -14 -95 -47 -116 -22 -15 -23 -14 -23 8 0 14 9 36 20 50 11 14 20 34 20
44 0 10 5 24 12 31 16 16 4 26 -13 10 -23 -21 -50 -22 -43 -1 4 11 2 14 -3 7
-11 -13 -53 -13 -53 1 0 22 -22 34 -46 25 -18 -7 -24 -6 -24 4 0 32 85 37 93
6 3 -11 13 -20 22 -20 9 0 13 5 10 10 -4 6 -11 8 -16 5 -5 -4 -7 4 -5 17 3 13
5 26 5 29 1 3 7 6 14 7 6 0 24 3 40 6 18 4 27 2 27 -6 0 -8 3 -9 8 -3 7 10 26
15 77 19 17 1 37 6 44 10 9 6 17 3 23 -8 5 -9 16 -16 24 -16 11 0 8 7 -9 26
-21 22 -26 24 -50 13 -32 -15 -36 -12 -43 33 l-6 34 74 -7 c40 -4 112 -8 159
-8z m-1923 -15 c57 -29 79 -35 142 -35 94 -1 130 -9 130 -32 0 -11 0 -22 1
-26 1 -13 -21 -20 -121 -42 -130 -28 -363 -72 -365 -69 -1 2 -13 25 -26 52
l-24 48 30 24 c40 33 162 91 193 93 8 1 26 -5 40 -13z m887 -16 c0 -9 -20 -22
-50 -32 l-50 -16 51 5 51 5 6 -58 c3 -32 4 -60 2 -62 -2 -2 -13 2 -26 8 -32
18 -92 6 -134 -25 -19 -15 -38 -25 -42 -21 -3 3 -8 31 -11 61 -4 49 -2 55 14
55 11 0 26 5 34 11 11 8 7 9 -17 4 -30 -6 -33 -4 -33 18 0 20 6 26 33 31 17 3
55 12 82 20 60 18 90 16 90 -4z m287 -101 c2 -42 -1 -73 -7 -75 -5 -2 -35 0
-65 4 l-55 7 -3 59 c-4 70 2 76 75 76 l51 0 4 -71z m-888 -40 c12 -60 -55 -94
-136 -70 -33 10 -51 9 -106 -4 -56 -14 -74 -25 -110 -62 -24 -24 -46 -43 -50
-41 -4 3 -21 10 -39 17 -29 12 -53 50 -53 86 0 7 34 19 83 28 45 10 138 28
207 42 69 14 139 29 155 33 38 11 41 9 49 -29z m1143 -11 c-1 -16 5 -23 23
-28 14 -3 25 -12 25 -20 0 -9 13 -17 35 -20 26 -4 36 -10 38 -27 4 -27 -16
-103 -27 -103 -15 0 -46 53 -53 90 -6 31 -6 29 -5 -12 1 -27 0 -48 -3 -48 -21
1 -85 30 -85 39 0 7 -6 16 -14 20 -17 11 -5 32 17 29 12 -2 16 3 14 15 -2 10
2 24 8 32 8 9 8 15 0 20 -17 11 -11 35 10 35 14 0 19 -6 17 -22z m-1809 -33
c10 -22 7 -35 -22 -93 -18 -37 -43 -98 -54 -137 -30 -98 -55 -306 -49 -389 l6
-68 -37 7 c-20 3 -41 10 -46 15 -4 4 -6 82 -4 172 4 147 7 171 32 243 15 44
44 109 63 145 77 142 89 153 111 105z m887 9 c98 -1 186 -33 165 -60 -14 -16
-64 -13 -146 7 -32 8 -51 7 -86 -4 -87 -30 -218 -34 -218 -7 0 11 64 40 87 40
8 0 27 9 41 21 19 15 33 18 52 12 14 -4 61 -8 105 -9z m377 2 c18 -8 52 -19
74 -25 33 -9 43 -17 48 -39 4 -15 9 -35 12 -44 4 -12 0 -18 -10 -18 -9 0 -16
-5 -16 -11 0 -11 50 -104 108 -202 19 -32 32 -60 30 -63 -10 -10 -37 9 -66 45
-38 48 -148 131 -172 131 -10 0 -25 12 -35 26 -9 15 -40 49 -69 76 -47 45 -54
48 -86 43 l-35 -7 20 23 c32 36 107 79 137 79 15 0 42 -6 60 -14z m1134 1 c4
-4 2 -17 -4 -30 -7 -12 -11 -50 -10 -84 3 -54 0 -65 -22 -88 -32 -34 -72 -55
-105 -55 -14 0 -25 -4 -25 -9 0 -16 80 6 115 33 48 37 58 61 52 117 -6 46 7
109 21 109 24 -1 28 -21 23 -107 -7 -105 -22 -133 -88 -171 -35 -19 -50 -21
-97 -16 -31 4 -64 13 -73 21 -17 13 -16 14 9 10 15 -2 25 0 22 4 -3 5 -12 9
-20 9 -8 0 -14 5 -14 10 0 6 7 10 15 10 9 0 18 7 21 15 4 8 17 15 30 15 14 0
27 7 30 15 4 8 12 15 20 15 21 0 31 31 26 78 -3 34 -10 46 -28 54 -16 8 -24
20 -24 36 0 24 2 24 60 20 33 -2 63 -7 66 -11z m-1820 -79 l61 -32 99 18 c110
20 141 22 199 11 37 -6 40 -10 43 -42 1 -19 9 -47 17 -63 21 -40 19 -55 -9
-68 -17 -7 -29 -25 -36 -51 -14 -53 -26 -58 -45 -21 -8 16 -20 30 -25 30 -5 0
-21 17 -34 37 -14 20 -38 43 -53 50 -15 7 -39 20 -52 28 -14 7 -65 17 -113 21
-49 4 -91 11 -94 15 -3 5 -22 8 -42 7 -36 -1 -37 -1 -5 -5 20 -3 42 -15 57
-34 29 -34 42 -38 25 -8 -11 21 -10 21 63 14 40 -4 87 -14 103 -21 62 -30 85
-46 96 -66 6 -12 27 -36 45 -55 25 -25 34 -42 33 -66 0 -43 -21 -99 -38 -105
-10 -3 -12 0 -8 12 4 9 2 16 -3 16 -5 0 -14 -18 -20 -40 -6 -21 -15 -42 -21
-46 -21 -12 -91 -5 -110 12 -11 10 -28 15 -44 12 -35 -7 -39 5 -10 32 14 13
25 33 25 45 0 22 -29 69 -30 48 0 -6 5 -15 10 -18 18 -11 11 -38 -17 -67 -35
-36 -51 -35 -68 5 -12 27 -14 29 -15 9 0 -39 42 -72 95 -72 25 0 45 -4 45 -8
0 -6 -78 -25 -149 -35 -7 -1 -18 6 -24 15 -11 17 -10 24 18 91 4 10 3 17 -4
17 -6 0 -11 -8 -12 -17 0 -14 -2 -13 -9 5 -15 36 -19 26 -13 -30 6 -60 -8 -58
-25 3 -11 40 2 83 31 108 10 7 17 21 17 30 -1 13 -3 13 -15 -3 -8 -11 -15 -14
-15 -8 0 7 -4 12 -9 12 -4 0 -6 -11 -4 -24 3 -13 0 -27 -6 -30 -7 -5 -11 3
-12 21 0 15 -4 37 -9 48 -6 13 -7 -1 -3 -37 4 -41 2 -58 -6 -58 -6 0 -14 6
-17 13 -3 8 -19 24 -35 36 -28 21 -30 21 -20 3 5 -10 26 -31 45 -46 25 -19 40
-41 50 -75 8 -26 20 -58 27 -69 20 -32 -1 -48 -57 -44 -111 7 -198 -1 -210
-19 -3 -5 -16 -9 -29 -9 -32 0 -40 33 -26 100 6 28 11 65 11 83 0 22 8 38 28
55 24 21 25 22 3 11 l-24 -11 7 88 c7 85 8 90 42 120 40 37 130 68 168 58 16
-4 26 -2 26 5 0 15 -67 13 -115 -4 l-40 -14 47 44 c27 26 56 45 70 45 13 0 30
5 38 10 28 18 75 11 136 -22z m1102 -9 l3 -36 -72 -6 c-69 -6 -74 -5 -116 25
-23 17 -43 35 -43 39 0 9 91 16 175 15 l50 -1 3 -36z m-631 -10 c8 -8 17 -7
32 2 19 12 25 9 74 -39 29 -29 61 -66 70 -82 18 -30 18 -30 -4 -30 -20 0 -21
-3 -16 -50 8 -63 -12 -68 -47 -12 -13 20 -31 44 -41 52 -15 13 -19 12 -31 -5
-8 -10 -14 -25 -14 -33 0 -58 -58 74 -75 171 -6 34 -5 37 17 37 13 0 29 -5 35
-11z m-1010 -14 c24 -17 43 -84 43 -153 0 -46 -2 -50 -44 -80 -35 -25 -49 -45
-71 -99 -24 -62 -72 -139 -80 -131 -4 3 14 140 33 253 14 81 71 225 90 225 4
0 17 -7 29 -15z m1737 -41 c63 -6 115 -29 189 -82 47 -34 57 -37 118 -37 49 0
70 -5 83 -18 10 -9 14 -18 9 -19 -4 0 -21 -3 -38 -4 -16 -2 -51 -6 -77 -10
-32 -4 -63 -1 -95 10 -25 9 -74 16 -108 16 -40 0 -68 6 -84 16 -15 11 -34 14
-56 11 -22 -4 -38 -1 -45 8 -6 8 -36 24 -66 36 -30 13 -54 28 -54 35 0 7 -3
19 -6 28 -9 24 66 27 230 10z m-483 -166 c15 -18 28 -45 29 -60 0 -19 17 -45
55 -85 30 -32 60 -73 66 -90 6 -18 15 -33 20 -33 15 0 49 -39 49 -56 0 -14 -2
-14 -22 0 -12 9 -40 16 -61 16 -21 0 -51 6 -65 14 -15 8 -38 19 -52 25 -14 6
-37 20 -51 32 -19 15 -46 23 -95 26 -69 6 -129 27 -119 42 8 14 68 20 89 9 12
-7 22 -6 29 1 8 8 5 11 -11 11 -25 0 -28 10 -10 28 7 7 9 12 5 12 -4 0 -16 -9
-27 -20 -30 -30 -60 -26 -61 8 l-1 27 -7 -25 -7 -25 -12 23 c-19 34 -35 26
-17 -9 19 -36 14 -44 -28 -45 -18 0 -48 -4 -67 -8 l-35 -8 34 32 c18 17 31 34
27 37 -3 4 -13 -2 -21 -13 -8 -10 -14 -14 -14 -9 -1 26 22 101 33 115 8 8 17
30 21 48 5 26 12 32 31 32 19 0 28 -8 35 -30 14 -38 25 -38 47 0 9 16 20 30
24 30 3 0 22 -23 43 -51 48 -67 71 -64 68 8 l-2 51 25 -13 c14 -7 39 -28 55
-47z m-1241 -181 c-40 -191 -33 -178 -111 -192 -34 -6 -37 -5 -48 26 -9 28 -8
39 10 73 11 23 29 50 40 61 10 11 29 49 42 83 16 43 33 69 53 83 l29 19 3 -26
c2 -14 -6 -72 -18 -127z"/>
<path d="M3987 3584 c3 -25 1 -44 -6 -48 -21 -13 -11 -26 15 -20 24 6 26 5 19
-16 -5 -15 -2 -25 6 -31 10 -6 8 -9 -9 -9 -15 0 -26 -7 -29 -20 -6 -24 -19
-26 -27 -5 -3 8 -16 14 -28 14 -17 -1 -18 -2 -5 -6 16 -4 21 -14 18 -39 -1 -6
12 -11 29 -10 24 1 30 6 30 22 0 29 40 41 47 14 3 -12 11 -16 20 -13 21 8 34
-17 27 -50 -6 -27 -5 -28 16 -15 18 11 23 11 27 0 3 -8 9 -10 16 -3 7 5 23 11
37 13 22 3 25 0 22 -24 -2 -22 1 -25 18 -21 25 7 27 -18 3 -42 -14 -14 -14
-18 -2 -25 11 -7 11 -12 2 -21 -9 -9 -8 -15 3 -26 22 -22 17 -42 -13 -54 -50
-19 -176 -50 -181 -44 -3 3 5 27 17 54 16 34 33 53 57 65 37 17 41 27 20 45
-11 9 -15 8 -20 -5 -4 -9 -13 -14 -21 -10 -9 3 -15 -1 -15 -10 0 -15 2 -15 25
0 14 9 25 12 25 6 0 -5 -13 -16 -30 -25 -31 -16 -70 -80 -70 -114 0 -24 -18
-38 -24 -19 -9 29 -13 107 -5 102 5 -3 9 2 9 11 0 10 -7 15 -17 13 -14 -3 -17
-11 -14 -33 3 -17 5 -48 5 -70 1 -37 -1 -40 -44 -57 -42 -18 -43 -18 -10 -13
19 3 71 18 115 34 291 104 340 114 434 88 31 -9 88 -20 126 -26 39 -6 90 -15
115 -20 25 -6 88 -11 140 -11 59 -1 110 -7 135 -16 118 -45 195 -65 245 -65
30 0 87 -5 125 -10 61 -9 81 -8 155 11 80 21 128 21 176 3 11 -4 15 -2 11 4
-4 6 -26 16 -51 23 -39 11 -53 10 -115 -10 -78 -24 -87 -24 -256 -12 -100 7
-137 15 -220 45 -88 33 -111 37 -193 37 -56 0 -125 8 -175 19 -45 11 -139 30
-209 43 l-127 23 21 23 c25 26 82 30 112 7 11 -8 29 -15 40 -15 24 0 91 38 82
47 -3 3 -13 0 -22 -8 -14 -11 -18 -12 -22 -1 -3 10 -8 8 -18 -6 -13 -18 -54
-21 -54 -3 1 9 73 41 93 41 9 0 19 5 23 12 5 8 0 9 -14 6 -16 -4 -22 -2 -22 9
0 10 -10 4 -29 -16 -31 -33 -47 -40 -37 -16 3 8 2 15 -3 15 -5 0 -14 -7 -21
-15 -7 -8 -23 -15 -37 -15 -13 0 -37 -7 -53 -15 -17 -9 -30 -11 -30 -6 0 12
32 31 63 37 12 2 40 12 62 23 22 10 55 24 73 31 17 7 32 16 32 21 0 12 -17 11
-25 -1 -13 -21 -25 -9 -19 18 6 26 6 26 -17 -7 -13 -19 -31 -36 -39 -39 -12
-4 -13 -2 -2 9 15 16 16 29 2 29 -5 0 -10 -7 -10 -15 0 -17 -35 -55 -50 -55
-17 0 -11 17 16 50 21 24 24 34 15 43 -16 15 -37 -11 -53 -65 -6 -21 -15 -38
-21 -38 -8 0 -6 21 9 67 5 17 4 17 -10 -1 -9 -11 -16 -30 -16 -43 0 -13 -5
-23 -11 -23 -8 0 -10 16 -6 47 5 43 4 46 -9 28 -16 -22 -18 -44 -6 -77 15 -39
-5 -88 -40 -103 -30 -12 -33 -11 -45 12 -16 31 -17 67 -1 92 9 15 6 25 -17 55
-23 30 -33 36 -52 31 -34 -8 -73 4 -73 24 0 22 -19 41 -41 41 -20 0 -49 41
-49 70 0 11 -7 23 -15 26 -9 4 -13 14 -9 28 2 11 -2 30 -10 41 -14 19 -14 17
-9 -21z"/>
<path d="M5524 2618 c-4 -7 -3 -8 4 -4 9 5 12 -6 12 -38 0 -25 -5 -48 -11 -52
-8 -5 -10 6 -7 34 2 22 0 38 -4 36 -5 -3 -8 -20 -8 -37 0 -22 -7 -36 -21 -45
-28 -17 -33 -10 -25 33 7 37 26 39 26 3 0 -12 3 -19 6 -15 4 3 3 22 0 42 -8
40 -27 42 -36 4 l-6 -24 -8 23 c-7 21 -26 31 -26 14 0 -5 -6 -16 -12 -25 -12
-15 -17 -15 -56 -2 -42 15 -115 10 -212 -14 -52 -13 -6 -13 81 0 105 16 179
-2 179 -44 0 -8 -4 -7 -12 1 -18 18 -28 15 -28 -8 0 -11 -6 -20 -14 -20 -22 0
-25 -23 -5 -45 9 -11 21 -33 25 -50 l7 -30 -23 20 c-28 25 -53 72 -45 85 3 6
1 10 -6 10 -16 0 -1 -73 18 -84 12 -6 13 -10 3 -16 -8 -5 -2 -10 18 -15 18 -4
34 -15 37 -26 4 -10 22 -31 41 -46 34 -25 37 -26 102 -15 37 6 96 10 132 8 36
-1 57 -1 48 1 -25 6 -23 23 2 23 11 0 20 7 20 16 0 14 -2 14 -22 0 -12 -9 -29
-16 -37 -16 -12 0 -12 3 1 18 25 29 31 42 15 36 -12 -4 -13 1 -3 30 12 40 32
50 22 11 -8 -31 2 -33 13 -3 5 14 4 30 -2 40 -8 12 -7 21 3 33 9 10 10 19 3
26 -6 6 -6 28 0 65 8 41 7 58 -2 67 -10 9 -15 9 -24 -4 -7 -9 -21 -18 -32 -21
-18 -3 -20 -12 -20 -69 0 -41 -5 -72 -14 -83 -13 -15 -15 -15 -33 1 -18 16
-18 18 -2 30 21 16 29 103 9 103 -8 0 -17 -4 -20 -10 -13 -21 -25 -9 -25 25 0
35 -12 46 -26 23z"/>
<path d="M4950 1941 c-5 -11 -10 -26 -10 -34 0 -8 -13 -17 -29 -20 -49 -10
-48 -81 2 -116 12 -9 38 -30 58 -48 20 -18 46 -33 58 -33 12 0 39 -9 60 -19
21 -11 47 -18 57 -15 12 3 27 -3 38 -15 13 -15 31 -21 59 -21 89 0 273 -24
289 -37 17 -15 151 -38 171 -29 7 2 2 5 -10 5 -12 1 -24 9 -28 20 -3 11 -13
25 -23 32 -14 11 -15 11 -4 -1 21 -24 14 -40 -19 -40 -30 0 -89 27 -89 41 0 4
-9 5 -20 2 -11 -3 -26 0 -34 6 -9 8 -15 8 -18 1 -2 -7 -14 -7 -38 0 -19 5 -73
10 -119 10 l-85 0 -48 52 c-26 29 -48 55 -48 58 0 6 254 -16 298 -25 13 -3 22
-13 22 -25 0 -14 5 -18 17 -13 11 4 24 -3 40 -23 20 -23 22 -24 13 -6 -6 13
-9 26 -6 29 3 3 51 -3 106 -14 55 -10 100 -15 100 -11 0 4 -2 8 -4 8 -2 0 -40
7 -83 15 -43 8 -97 15 -120 15 -31 0 -45 5 -52 18 -8 14 -32 20 -118 30 -218
24 -263 31 -292 47 -17 8 -42 15 -56 15 -14 0 -42 7 -61 15 -48 20 -42 44 20
73 45 21 47 24 32 41 -9 10 -13 21 -9 24 3 4 3 7 0 7 -3 0 -11 -9 -17 -19z"/>
<path d="M690 1381 c-14 -4 -31 -20 -39 -36 -15 -31 -13 -43 29 -159 40 -112
16 -154 -146 -259 -50 -31 -122 -89 -162 -127 -39 -38 -83 -72 -97 -76 -51
-13 -116 -124 -99 -168 9 -24 24 -19 24 7 0 13 7 32 15 43 13 17 14 14 15 -42
0 -66 16 -127 31 -118 5 3 6 16 3 28 -3 15 0 25 9 29 9 3 21 -10 35 -39 12
-24 27 -44 33 -44 7 0 8 7 4 18 -5 9 -10 33 -13 52 -3 29 -2 33 9 22 21 -20
29 -14 22 18 -6 34 -1 37 27 13 17 -15 20 -30 20 -93 0 -91 9 -152 22 -144 5
3 15 0 23 -6 20 -16 19 -11 -5 43 -19 42 -19 50 -7 79 18 42 61 88 109 117 48
29 113 103 144 163 31 61 57 173 51 218 -3 19 2 66 10 104 15 69 15 71 -12
157 -33 101 -28 118 34 120 20 1 28 3 19 6 -19 5 -25 23 -9 23 20 0 41 -13 35
-21 -3 -5 4 -9 15 -9 30 0 26 7 -16 29 -21 11 -46 29 -55 40 -18 22 -35 24
-78 12z m56 -298 c-3 -21 -10 -94 -15 -163 -7 -112 -12 -133 -41 -193 -40 -84
-107 -160 -160 -181 -22 -9 -43 -23 -47 -32 -4 -12 -8 -11 -17 8 -8 16 -19 22
-34 20 -12 -2 -22 2 -22 7 0 7 24 11 60 11 55 0 63 3 112 43 69 55 108 129
108 205 0 68 -10 63 -16 -9 -7 -75 -46 -147 -100 -186 -68 -50 -73 -39 -11 26
32 33 57 67 57 76 0 9 7 23 15 31 18 18 20 61 3 66 -7 3 -23 -8 -36 -24 -27
-32 -39 -35 -45 -10 -2 9 -3 2 -1 -16 2 -25 -3 -40 -21 -58 -29 -29 -49 -31
-42 -4 3 11 1 20 -4 20 -5 0 -9 -4 -9 -10 0 -5 -9 -10 -21 -10 -11 0 -18 -4
-15 -9 8 -12 -32 -61 -50 -61 -16 0 -19 16 -4 25 6 3 10 11 10 17 0 7 -6 6
-15 -2 -15 -13 -20 -42 -9 -53 4 -3 15 -2 25 4 16 8 19 6 19 -12 0 -18 2 -19
15 -9 17 14 31 8 21 -9 -4 -6 -24 -9 -45 -6 -39 3 -101 53 -101 80 0 9 -6 12
-15 9 -8 -4 -15 -2 -15 4 0 15 156 164 214 203 29 19 68 47 88 62 19 15 40 27
45 27 17 0 66 61 87 108 24 52 40 55 32 5z"/>
<path d="M5466 1324 c-14 -31 -26 -58 -26 -61 0 -2 -18 -31 -41 -64 -49 -73
-74 -87 -128 -71 -46 14 -121 15 -177 2 -33 -7 -49 -6 -73 6 -32 16 -91 11
-91 -7 0 -5 -11 -14 -25 -19 -33 -13 -32 -28 5 -44 17 -7 42 -28 55 -48 26
-38 111 -99 160 -115 17 -5 28 -14 25 -19 -6 -10 -14 -10 -50 1 -24 7 -24 7
-5 -9 28 -21 5 -21 -70 3 -49 15 -55 20 -35 24 23 4 23 4 -4 6 -16 0 -26 4
-23 8 4 3 2 12 -4 20 -9 10 -8 13 0 13 7 0 9 5 5 11 -4 8 -10 6 -17 -6 -6 -12
-6 -20 3 -25 8 -5 8 -10 2 -14 -17 -10 -36 22 -23 38 20 24 -14 67 -40 50 -15
-9 -10 -24 6 -18 8 4 15 1 15 -5 0 -24 -34 -8 -86 40 -57 55 -65 69 -36 70 10
0 12 3 5 6 -7 2 -13 11 -13 19 0 12 4 12 20 4 21 -11 27 -1 11 15 -5 6 -11 21
-13 35 -2 19 -9 25 -28 25 -22 0 -26 -5 -30 -44 l-5 -45 -14 39 c-13 36 -15
38 -22 17 -5 -13 -17 -22 -30 -22 -16 0 -20 4 -14 18 4 12 3 14 -4 7 -8 -8 -7
-20 1 -42 10 -27 16 -31 44 -28 28 2 41 -6 90 -56 36 -37 50 -56 37 -53 -11 3
-35 1 -54 -5 l-34 -11 42 5 c37 4 47 1 78 -26 39 -35 43 -45 18 -52 -11 -3 -7
-5 10 -6 17 -1 27 4 27 13 0 11 5 12 24 3 22 -11 21 -12 -26 -28 -27 -9 -60
-27 -73 -39 -25 -23 -36 -15 -13 8 15 15 -12 16 -60 3 -17 -5 -32 -6 -32 -2 0
5 19 12 43 16 23 4 37 9 30 12 -20 7 -78 -13 -78 -28 0 -15 13 -16 58 -4 23 6
26 5 21 -9 -4 -9 -18 -23 -33 -31 -22 -11 -24 -14 -9 -20 12 -5 36 7 76 38 32
24 75 47 96 51 43 8 134 -15 178 -46 29 -20 48 -23 48 -8 0 5 8 7 18 3 34 -12
52 -36 52 -69 0 -25 7 -38 25 -50 16 -11 25 -25 25 -43 -1 -25 -1 -26 -16 -6
-9 11 -29 48 -45 82 -16 34 -34 65 -40 68 -7 5 -6 -1 2 -16 7 -13 14 -48 15
-78 3 -61 15 -81 38 -62 12 10 18 7 31 -19 9 -17 15 -35 13 -40 -4 -12 -101
33 -143 64 -35 27 -81 44 -71 27 4 -6 11 -11 17 -11 5 0 33 -17 62 -37 60 -43
167 -97 175 -89 3 3 -2 14 -10 23 -18 21 -32 73 -20 73 5 0 14 -12 21 -27 19
-43 96 -156 120 -177 l21 -19 0 85 c0 67 3 87 15 92 8 3 15 12 15 21 0 8 5 15
10 15 14 0 13 -10 -5 -43 -14 -28 -21 -82 -17 -149 2 -35 6 -40 55 -64 28 -14
67 -40 84 -57 18 -17 35 -28 39 -25 9 10 -56 66 -108 93 -27 14 -48 31 -48 37
0 9 3 9 12 0 32 -32 58 -7 55 53 -2 35 -37 50 -37 16 0 -22 -33 -30 -45 -11
-10 16 6 35 16 19 8 -12 11 -12 18 1 7 10 6 17 -2 22 -8 5 -5 8 8 9 11 0 61 7
110 14 l90 14 -114 -5 -113 -4 6 27 c4 16 14 33 22 39 12 10 12 13 2 17 -9 4
-7 6 4 6 9 1 20 5 23 11 10 17 -15 50 -38 50 -16 0 -18 3 -9 9 18 11 12 53 -8
58 -12 4 -12 3 -2 -5 21 -14 10 -47 -15 -46 -12 0 -20 -3 -17 -8 3 -4 11 -8
18 -8 18 0 18 -56 0 -71 -11 -9 -14 -8 -14 4 0 8 -7 20 -15 27 -8 7 -12 17 -8
23 6 10 13 67 8 67 -1 0 -16 -5 -33 -11 -39 -13 -53 -60 -26 -90 9 -10 23 -19
29 -19 15 0 25 -22 25 -55 0 -20 -21 -34 -52 -35 -24 0 -96 114 -78 125 6 3
10 16 10 29 0 19 -4 21 -34 18 -18 -2 -37 1 -40 7 -4 6 -2 11 5 11 10 0 10 3
2 11 -6 6 -9 18 -6 25 8 20 23 17 17 -3 -5 -15 -4 -16 5 -3 16 23 13 30 -12
30 -30 0 -63 36 -59 64 3 20 3 20 -11 2 -8 -11 -17 -15 -20 -9 -10 16 4 53 20
53 8 0 38 15 66 34 29 18 59 36 67 39 10 4 7 6 -7 6 -13 1 -23 6 -23 12 0 13
53 3 58 -11 3 -9 40 4 79 28 22 14 21 42 -1 42 -6 0 -18 5 -26 10 -12 8 -1 23
59 78 70 64 74 71 81 120 4 37 3 58 -6 70 -8 9 -14 25 -14 35 0 36 -29 15 -54
-39z m-456 -202 c18 -15 20 -21 11 -45 -8 -21 -8 -32 2 -43 35 -45 58 -64 74
-64 13 0 8 6 -14 20 -66 40 -70 95 -8 117 56 20 182 14 219 -11 21 -13 25 -20
16 -26 -7 -4 -9 -13 -6 -19 4 -6 2 -11 -5 -11 -7 0 -10 -3 -6 -6 10 -11 -23
-36 -39 -30 -9 3 -22 -1 -30 -9 -9 -8 -12 -16 -7 -17 4 -1 -17 -4 -47 -8 l-55
-7 70 -2 70 -2 -24 -19 c-50 -42 -152 -17 -229 57 -42 40 -56 70 -26 59 8 -3
12 -2 9 4 -3 6 -12 10 -20 10 -19 0 -29 38 -15 55 16 20 33 19 60 -3z"/>
<path d="M964 1240 c-53 -21 -72 -115 -38 -186 15 -32 15 -36 -2 -62 -37 -54
-74 -134 -73 -155 1 -73 87 -183 160 -207 22 -8 39 -20 39 -28 0 -12 -10 -13
-50 -8 -39 5 -58 2 -89 -14 -39 -20 -44 -27 -56 -86 -7 -39 3 -86 19 -81 7 2
10 25 8 65 -4 60 -3 62 30 82 35 22 109 23 131 1 6 -6 13 -64 17 -130 3 -66 9
-124 14 -128 5 -4 6 49 3 119 -5 126 -5 127 17 125 17 -2 22 4 24 28 4 34 16
45 52 45 15 0 31 5 38 12 15 15 59 -23 78 -69 16 -37 34 -44 34 -13 0 11 4 20
9 20 12 0 21 -26 21 -60 0 -35 13 -45 30 -25 17 20 27 19 35 -5 3 -11 12 -20
20 -20 7 0 15 -10 17 -22 5 -32 26 -33 34 -1 4 15 14 33 22 39 12 8 14 25 9
72 -6 70 -27 110 -101 194 -28 32 -69 78 -90 103 -46 54 -161 115 -231 123
-64 7 -76 36 -40 99 33 59 34 121 3 150 -28 25 -66 34 -94 23z m163 -295 c68
-20 141 -61 181 -102 29 -29 31 -35 18 -48 -17 -17 -36 -20 -36 -5 0 6 -5 10
-11 10 -8 0 -8 -4 1 -15 6 -8 10 -20 7 -27 -2 -8 -14 3 -27 25 -12 20 -26 37
-31 37 -11 0 16 -56 31 -65 5 -3 10 -13 10 -22 0 -13 -3 -13 -15 -3 -8 7 -15
18 -15 25 0 7 -11 16 -25 19 -14 4 -25 12 -25 19 0 7 -9 18 -20 25 -19 12 -20
11 -14 -14 6 -24 5 -26 -15 -21 -11 3 -21 1 -21 -4 0 -11 37 -49 47 -49 4 0 2
5 -5 12 -8 8 -9 15 -1 25 9 10 19 7 50 -18 22 -17 39 -37 39 -45 0 -20 -14
-17 -35 6 -10 11 -23 20 -28 20 -5 0 2 -11 17 -25 15 -14 33 -25 41 -25 18 0
39 -36 26 -45 -5 -3 -13 -1 -16 5 -4 6 -45 36 -91 67 -83 54 -138 108 -147
144 -3 10 3 30 14 43 10 13 19 34 19 45 0 25 10 26 77 6z m-97 -20 c0 -8 -4
-15 -8 -15 -20 0 -30 -46 -17 -76 14 -34 101 -115 157 -147 49 -28 48 -44 -2
-52 -22 -4 -47 -13 -54 -21 -20 -19 -34 -18 -41 6 -4 14 -15 20 -35 20 -55 0
-130 108 -130 187 0 68 9 85 39 78 20 -4 32 0 46 15 21 24 45 26 45 5z"/>
<path d="M4512 1211 c-8 -5 -11 -17 -7 -33 4 -14 0 -40 -8 -59 l-14 -34 -13
28 c-13 27 -40 37 -40 15 0 -7 14 -40 30 -72 31 -60 38 -96 20 -96 -5 0 -10 4
-10 10 0 18 -37 31 -49 16 -10 -11 -4 -17 29 -28 39 -13 138 -84 140 -100 0
-5 -9 -8 -19 -8 -11 0 -21 -5 -23 -11 -5 -16 -141 55 -167 87 -26 34 -26 42 2
72 l22 24 -30 24 c-29 23 -55 30 -68 18 -9 -9 4 -35 14 -28 5 3 7 10 4 15 -3
5 1 6 10 2 15 -5 15 -8 -2 -25 -23 -22 -55 -15 -46 10 5 14 3 15 -8 4 -11 -10
-5 -20 36 -58 58 -54 47 -71 -18 -28 -70 47 -78 56 -66 70 12 14 -4 54 -22 54
-6 0 -3 -7 5 -16 21 -21 11 -37 -15 -24 -11 6 -17 15 -14 21 4 5 1 9 -4 9 -24
0 -8 -38 30 -73 28 -26 39 -43 34 -55 -3 -9 -3 -13 1 -9 4 4 13 -1 20 -11 12
-16 13 -16 14 3 1 19 1 19 11 2 6 -10 7 -24 2 -31 -4 -6 -1 -5 7 4 14 16 17
16 40 0 14 -9 37 -25 53 -34 35 -22 34 -36 -3 -36 -16 0 -30 -4 -30 -8 0 -4
28 -8 63 -8 34 0 47 1 28 4 -26 3 -31 6 -20 13 11 7 10 13 -11 29 -37 29 -22
24 66 -21 65 -34 80 -38 82 -25 5 22 15 20 27 -6 11 -23 55 -33 55 -12 0 7 -8
10 -20 7 -11 -3 -20 -1 -20 4 0 5 12 9 28 8 19 0 27 -5 26 -18 -1 -9 3 -17 8
-17 7 0 8 16 5 40 -3 22 -4 40 -2 40 2 0 13 -20 24 -43 37 -76 145 -137 244
-137 40 0 46 -2 35 -14 -9 -9 -21 -11 -43 -5 -46 14 -128 11 -175 -6 -51 -18
-50 -18 -50 -4 0 5 14 15 30 20 17 6 30 14 30 19 0 19 -87 65 -162 85 -46 12
-92 26 -103 29 -15 5 -15 4 3 -5 12 -7 22 -21 22 -31 0 -24 26 -34 46 -17 13
11 17 10 26 -4 7 -13 17 -16 41 -12 33 6 97 -24 97 -45 0 -15 -16 -12 -30 5
-7 8 -20 15 -29 15 -23 -1 -59 -31 -63 -55 -3 -18 -10 -20 -67 -17 -74 4 -117
22 -133 58 -8 17 -14 21 -19 12 -4 -7 -11 -9 -15 -5 -4 4 -2 13 4 19 19 19 14
27 -15 24 -34 -4 -54 10 -46 32 5 13 3 14 -6 6 -18 -17 -2 -43 54 -88 50 -42
54 -56 7 -32 -28 14 -42 13 -42 -6 0 -11 59 -35 159 -64 79 -23 87 -23 117 -9
18 8 40 14 51 13 36 -3 53 2 53 17 0 17 69 39 120 37 19 0 83 -4 141 -9 91 -7
110 -12 136 -33 17 -14 39 -30 49 -37 16 -10 10 -12 -41 -14 -59 -1 -59 -1
-20 -10 22 -4 57 -8 77 -8 49 -1 108 -33 155 -83 99 -104 114 -117 145 -123
18 -4 42 -14 53 -21 34 -24 42 -15 10 11 -16 13 -40 24 -52 25 -27 0 -87 51
-118 100 -13 21 -47 49 -85 70 -34 19 -92 55 -128 79 -51 34 -79 45 -119 49
-40 3 -50 8 -46 19 4 10 14 13 32 8 14 -3 21 -2 15 2 -6 4 -11 19 -10 33 1 21
-4 25 -31 28 -21 2 -33 9 -33 18 0 18 -44 19 -59 0 -9 -11 -7 -15 9 -19 23 -6
27 -35 5 -43 -8 -4 -21 -2 -28 4 -6 5 -27 13 -45 17 -45 9 -131 80 -148 122
-12 27 -20 34 -34 30 -14 -4 -33 10 -70 50 -27 31 -47 59 -45 64 3 4 0 9 -7
11 -9 3 -8 9 5 22 15 16 17 16 17 1 0 -9 4 -14 10 -10 18 11 -2 35 -31 35 -16
0 -29 4 -29 9 0 26 24 70 42 74 17 5 19 11 13 39 -12 53 -32 69 -63 49z"/>
<path d="M2226 1112 l3 -57 -15 48 c-9 27 -18 46 -21 43 -3 -3 0 -20 6 -38
l11 -33 -21 25 -20 25 15 -32 c20 -41 20 -49 -1 -32 -11 10 -14 10 -9 2 8 -14
-1 -16 -44 -14 -24 1 -24 1 5 -13 l30 -14 -40 -3 c-35 -2 -36 -3 -10 -6 17 -3
35 -9 41 -14 6 -5 15 -4 22 3 6 6 15 8 19 4 5 -4 1 -13 -8 -20 -23 -16 -28
-49 -9 -63 13 -12 13 -15 -4 -28 -23 -18 -34 -12 -16 10 7 8 9 15 4 15 -10 0
-46 -51 -45 -62 2 -19 11 -13 112 65 56 43 62 44 89 17 13 -13 33 -20 56 -20
29 0 44 9 85 51 28 29 54 48 58 43 4 -5 21 -49 36 -99 27 -83 34 -95 95 -155
36 -36 75 -84 87 -106 l22 -42 -27 -5 c-15 -3 -94 1 -177 9 -82 8 -181 16
-220 19 l-70 5 75 -14 c41 -8 155 -20 254 -27 172 -13 178 -14 187 -37 16 -42
11 -60 -20 -67 -39 -8 -59 -33 -61 -75 -3 -54 -1 -72 9 -66 4 3 6 18 4 33 l-4
28 15 -25 c15 -24 16 -23 10 27 -6 50 -5 52 20 59 15 3 30 4 33 1 3 -4 -2 -35
-11 -71 -9 -36 -16 -75 -16 -88 0 -41 16 -4 29 67 7 39 19 80 27 92 8 12 14
43 14 69 l0 47 46 -7 c26 -3 53 -6 60 -6 8 0 14 -9 14 -20 0 -27 30 -26 37 1
6 20 10 21 78 16 116 -10 410 -20 405 -14 -3 3 -109 13 -235 22 -127 9 -233
19 -236 23 -4 4 -10 18 -13 32 -6 21 -5 22 4 8 6 -10 18 -18 27 -18 12 0 14 7
10 30 -8 40 6 38 24 -2 15 -36 43 -48 53 -23 3 9 -1 30 -9 46 -14 26 -14 30 0
35 8 3 15 13 15 20 0 21 -122 221 -164 270 -51 60 -152 109 -256 125 -175 26
-223 12 -270 -81 -17 -33 -36 -60 -43 -60 -14 0 -67 51 -67 64 0 4 4 5 8 2 4
-2 14 0 22 6 13 8 12 9 -2 5 -9 -4 -19 1 -22 10 -5 12 -9 13 -21 3 -10 -8 -15
-9 -15 -2 0 6 5 14 10 17 6 3 10 14 10 23 -1 9 -10 -1 -22 -23 -12 -22 -23
-35 -25 -28 -2 7 0 21 6 32 6 11 11 26 10 33 0 7 -7 0 -14 -17 l-14 -30 -1 37
c0 20 -4 39 -8 42 -5 3 -7 -21 -6 -52z m386 14 c24 -8 69 -16 102 -19 104 -10
208 -80 271 -183 31 -51 32 -74 2 -74 -23 0 -47 17 -47 32 0 4 6 8 14 8 8 0
16 7 20 15 3 8 1 15 -4 15 -6 0 -10 -4 -10 -10 0 -17 -36 -11 -55 10 -14 16
-16 23 -7 32 18 18 15 33 -3 18 -12 -10 -19 -10 -27 -2 -7 7 -17 12 -22 12 -6
0 -5 -5 2 -12 20 -20 14 -40 -9 -36 -27 4 -50 38 -32 45 10 4 9 8 -1 19 -20
20 -28 17 -21 -6 7 -23 -13 -28 -33 -8 -10 10 -11 5 -6 -20 8 -38 -7 -43 -30
-10 -9 12 -16 18 -16 12 0 -5 18 -28 40 -49 22 -21 40 -43 40 -47 0 -14 -33
-9 -54 9 -12 10 -8 3 8 -15 43 -47 28 -47 -35 -1 -71 53 -112 125 -107 192 3
47 -4 61 -16 31 -38 -98 61 -234 218 -302 77 -33 111 -55 126 -82 7 -13 2 -15
-31 -12 -27 3 -46 -1 -58 -12 -17 -15 -19 -15 -25 -1 -8 21 -26 10 -26 -16 0
-31 -14 -22 -40 27 -14 25 -39 54 -57 65 -37 23 -86 93 -107 153 -8 22 -20 59
-28 81 -16 45 -40 55 -69 29 -23 -21 -35 -13 -20 14 6 12 11 32 11 45 0 30 19
47 63 57 17 4 33 8 34 9 1 1 22 -5 45 -13z"/>
<path d="M4820 575 c-160 -32 -239 -38 -377 -30 -163 10 -966 15 -957 6 5 -5
836 -23 1074 -24 47 0 123 9 170 19 58 12 124 18 210 18 79 -1 110 2 85 6 -90
16 -143 18 -205 5z"/>
</g>
</svg>
