<?xml version="1.0" standalone="no"?>
<!DOCTYPE svg PUBLIC "-//W3C//DTD SVG 20010904//EN"
 "http://www.w3.org/TR/2001/REC-SVG-20010904/DTD/svg10.dtd">
<svg version="1.0" xmlns="http://www.w3.org/2000/svg"
 width="768.000000pt" height="856.000000pt" viewBox="0 0 768.000000 856.000000"
 preserveAspectRatio="xMidYMid meet">
<metadata>
Created by potrace 1.16, written by Peter Selinger 2001-2019
</metadata>
<g transform="translate(0.000000,856.000000) scale(0.100000,-0.100000)"
fill="#000000" stroke="none">
<path d="M3805 8449 c-27 -12 -96 -43 -152 -70 -56 -27 -106 -49 -110 -49 -4
0 -44 -18 -88 -39 -177 -87 -313 -144 -331 -140 -5 1 -16 0 -24 -3 -8 -3 -40
-11 -70 -17 -227 -47 -392 -100 -549 -179 -108 -53 -144 -75 -203 -124 -26
-21 -50 -38 -55 -38 -11 0 -84 -75 -115 -117 -71 -99 -106 -151 -118 -180 -14
-31 -16 -32 -95 -37 -161 -10 -307 -25 -338 -35 -18 -5 -52 -13 -77 -16 -54
-8 -185 -48 -255 -77 -94 -40 -119 -51 -129 -60 -6 -5 -45 -31 -86 -58 -41
-27 -86 -57 -100 -67 -41 -27 -230 -217 -230 -230 0 -6 -8 -18 -18 -25 -19
-13 -91 -117 -119 -172 -9 -17 -22 -60 -29 -96 -31 -159 -127 -493 -173 -605
-9 -21 -23 -58 -61 -160 -24 -65 -21 -60 -139 -314 l-81 -175 0 -117 c0 -148
18 -207 101 -331 63 -94 195 -232 286 -298 26 -20 108 -65 180 -100 76 -37
133 -71 133 -79 0 -8 -19 -39 -42 -70 -60 -79 -105 -163 -144 -266 -12 -34
-13 -38 -24 -95 -6 -30 -16 -78 -21 -105 -12 -57 -7 -212 10 -295 23 -108 49
-163 121 -255 32 -40 141 -144 165 -157 13 -7 42 -26 63 -41 45 -32 135 -67
160 -62 9 2 39 9 65 15 75 19 181 8 257 -26 82 -38 123 -61 170 -99 21 -16 50
-39 66 -50 16 -11 47 -36 69 -55 49 -43 138 -109 182 -135 35 -21 42 -45 18
-65 -8 -7 -15 -18 -15 -25 0 -8 -4 -15 -8 -17 -30 -12 -247 -412 -354 -653
-57 -129 -125 -336 -173 -530 -9 -38 -21 -79 -25 -90 -5 -11 -13 -45 -18 -75
-6 -30 -13 -66 -17 -80 -3 -14 -12 -76 -18 -137 -6 -62 -15 -113 -19 -113 -15
0 -8 -78 8 -95 58 -57 175 -77 339 -55 50 6 137 17 195 25 100 12 152 23 300
60 36 9 72 18 80 19 8 2 22 6 30 9 8 3 47 16 85 28 213 67 261 87 555 228 57
27 293 161 300 170 3 3 32 24 65 46 33 21 80 55 105 75 25 20 57 44 72 53 15
9 49 36 76 60 80 69 93 78 104 75 5 -2 23 -37 40 -78 70 -173 195 -448 209
-460 4 -3 21 -33 38 -68 35 -70 253 -403 276 -422 8 -7 15 -17 15 -22 0 -5 30
-44 66 -86 36 -42 78 -92 92 -111 15 -19 68 -78 117 -131 50 -54 108 -118 130
-143 39 -45 41 -46 103 -46 49 -1 74 5 115 25 29 15 54 30 55 35 2 5 9 9 16 9
14 0 86 72 86 86 0 6 19 29 43 51 23 23 58 62 77 88 19 26 51 63 70 83 19 21
59 76 89 122 30 47 61 96 71 110 53 81 220 453 220 492 0 7 12 47 26 88 25 72
41 128 64 235 6 28 16 72 22 99 6 27 17 108 24 180 23 218 27 240 46 244 23 4
164 -39 303 -92 135 -53 202 -73 280 -86 33 -6 69 -12 80 -15 71 -15 205 -38
295 -51 58 -8 130 -19 160 -24 30 -4 83 -9 117 -9 34 -1 65 -5 68 -11 4 -6
104 -10 268 -10 288 0 289 0 318 62 41 84 44 126 23 288 -3 19 -9 67 -14 105
-5 39 -19 106 -30 150 -12 44 -27 105 -34 135 -7 30 -15 62 -18 70 -4 8 -14
40 -24 70 -9 30 -20 60 -24 65 -4 6 -16 35 -26 65 -40 117 -195 400 -289 530
-30 41 -58 82 -62 90 -9 20 -11 22 -85 108 -35 41 -68 84 -75 95 -18 33 -309
314 -402 387 -45 36 -98 79 -118 96 l-37 31 23 54 c29 67 45 106 60 142 21 51
78 210 119 332 77 229 111 320 142 390 17 39 34 79 39 90 56 142 236 472 281
515 46 43 60 85 60 176 0 179 -31 289 -126 456 -56 97 -163 193 -281 252 -184
93 -236 108 -415 115 -157 7 -148 2 -134 71 28 135 33 240 20 370 -10 100 -60
232 -106 281 -15 16 -28 33 -28 38 0 8 -16 23 -80 75 -73 59 -237 147 -355
191 -114 43 -259 123 -323 178 -33 29 -91 88 -129 132 -189 216 -324 327 -513
421 -191 95 -199 96 -480 101 -232 3 -248 2 -295 -18z m450 -115 c66 -6 199
-51 235 -80 8 -6 33 -21 55 -33 57 -30 145 -86 180 -113 6 -5 35 -27 65 -50
30 -24 61 -51 68 -60 7 -10 19 -18 25 -18 7 0 95 -83 197 -185 102 -102 199
-193 215 -201 31 -15 161 -67 250 -99 72 -26 242 -132 291 -181 24 -23 50 -57
60 -75 9 -19 21 -37 26 -40 5 -3 20 -37 33 -75 29 -82 41 -220 26 -314 -28
-187 -54 -249 -128 -308 -37 -29 -216 -122 -235 -122 -6 0 -27 -13 -48 -30
-69 -55 -80 -46 -96 80 -14 119 -60 271 -95 314 -5 6 -31 40 -59 76 -60 78
-62 79 -124 130 -102 85 -230 130 -372 130 -69 0 -103 -6 -189 -35 -98 -32
-211 -83 -245 -110 -8 -7 -34 -22 -57 -35 l-42 -23 -27 34 c-48 59 -174 179
-189 179 -8 0 -18 6 -22 13 -12 18 -145 77 -176 77 -14 0 -46 6 -69 14 -24 8
-63 17 -88 20 -48 7 -101 24 -137 44 -12 7 -26 12 -32 12 -5 0 -29 13 -53 28
-24 16 -59 38 -78 48 -19 10 -37 21 -40 24 -13 13 -99 67 -135 85 -22 11 -45
25 -51 30 -6 6 -31 19 -55 29 -24 10 -57 25 -74 34 -39 21 -192 23 -255 2 -73
-23 -149 -78 -248 -178 -82 -82 -97 -93 -120 -88 -41 8 -184 36 -212 40 -14 2
-54 9 -89 15 -78 12 -87 20 -72 62 34 97 162 254 282 345 107 81 412 208 524
219 19 2 130 26 160 35 17 5 50 11 75 15 25 3 72 19 105 35 33 16 114 52 180
80 126 54 157 68 320 144 55 25 114 48 130 51 49 10 257 23 300 19 22 -2 72
-6 110 -10z m-1177 -848 c15 -7 38 -16 52 -19 30 -7 53 -24 135 -99 35 -31 90
-70 123 -87 89 -45 238 -96 337 -116 11 -2 40 -9 65 -15 25 -7 50 -13 55 -14
6 -2 17 -6 25 -9 8 -3 34 -11 57 -17 23 -6 45 -15 48 -20 3 -6 14 -10 24 -10
25 0 166 -94 188 -126 10 -14 28 -37 41 -51 34 -40 38 -70 13 -97 -11 -12 -21
-27 -21 -33 0 -6 -12 -22 -27 -35 -30 -26 -47 -50 -63 -85 -13 -32 -43 -45
-75 -33 -37 14 -93 12 -140 -5 -51 -18 -75 -19 -75 -1 0 8 -7 16 -15 20 -8 3
-15 12 -15 20 0 21 -76 82 -137 111 -60 29 -124 33 -144 9 -11 -14 -30 -16
-114 -12 -55 3 -109 9 -119 15 -14 8 -33 5 -79 -13 -60 -24 -109 -67 -159
-140 -28 -42 -42 -47 -83 -34 -17 6 -63 15 -101 21 -228 36 -475 -26 -568
-144 -14 -17 -35 -42 -46 -54 -11 -12 -20 -24 -20 -27 0 -3 -16 -32 -36 -66
-19 -33 -37 -68 -39 -78 -2 -9 -11 -37 -20 -62 -18 -49 -44 -152 -53 -215 -10
-64 -6 -222 6 -263 6 -20 21 -71 32 -112 31 -112 91 -294 100 -305 4 -5 11
-21 15 -35 19 -66 152 -310 191 -351 13 -14 24 -28 24 -32 0 -19 134 -162 184
-196 22 -14 38 -30 35 -36 -2 -5 -8 -8 -14 -6 -13 5 -140 27 -275 46 -58 9
-116 18 -130 21 -14 3 -59 10 -100 15 -41 6 -82 14 -90 19 -9 4 -40 11 -70 15
-30 4 -59 10 -65 14 -5 4 -37 15 -70 25 -122 37 -205 68 -205 78 0 10 -60 91
-72 96 -20 9 -118 176 -191 326 -29 60 -48 161 -54 287 -5 121 -4 143 16 210
35 117 54 146 186 284 69 72 125 133 125 137 0 4 39 51 86 105 47 54 94 109
105 123 11 14 44 55 74 92 30 37 55 70 55 74 0 3 20 30 45 58 25 29 45 56 45
60 0 4 25 37 55 74 31 37 62 76 70 87 17 24 75 97 115 145 16 19 50 60 75 90
77 92 126 146 230 256 89 93 105 106 155 120 30 9 63 19 73 23 28 10 194 -7
225 -23z m-889 -206 c40 -6 81 -14 90 -19 9 -5 42 -12 74 -15 46 -6 57 -11 57
-25 0 -16 -61 -103 -117 -167 -19 -22 -21 -25 -67 -95 -16 -24 -41 -58 -55
-75 -14 -17 -33 -41 -41 -54 -15 -22 -82 -108 -175 -221 -27 -34 -55 -70 -61
-80 -6 -10 -76 -85 -156 -166 -193 -197 -296 -313 -328 -372 -8 -15 -33 -63
-54 -107 -21 -43 -46 -92 -55 -109 -12 -23 -15 -60 -15 -155 1 -157 2 -170 13
-184 4 -6 12 -29 15 -51 9 -46 102 -250 128 -279 10 -11 21 -28 24 -39 4 -11
21 -41 39 -66 17 -25 35 -53 38 -61 10 -22 31 -54 41 -61 4 -4 16 -25 26 -47
18 -40 18 -41 -4 -74 -44 -66 -83 -185 -93 -286 l-6 -53 -111 7 c-61 4 -115
10 -121 14 -5 4 -37 11 -70 15 -33 4 -64 11 -70 15 -5 5 -21 8 -35 8 -101 -2
-519 181 -600 262 -13 14 -79 60 -85 60 -16 0 -115 112 -136 152 -12 23 -29
54 -38 68 -34 51 -53 128 -53 214 0 72 4 93 32 157 111 255 143 336 164 409 7
25 18 54 24 65 17 29 94 270 159 495 9 30 19 66 24 80 4 14 11 41 14 60 7 40
35 120 47 135 5 6 31 44 58 85 27 41 57 86 66 100 28 41 188 200 200 200 7 0
14 3 16 8 6 13 113 79 194 120 68 34 176 73 314 113 143 42 478 51 689 19z
m2802 -272 c180 -61 264 -131 336 -278 14 -30 30 -63 35 -73 12 -25 34 -94 48
-152 6 -27 14 -59 17 -70 5 -19 21 -103 42 -213 5 -29 14 -67 20 -85 6 -17 31
-97 57 -177 79 -245 79 -244 79 -420 0 -188 -33 -357 -92 -472 -7 -15 -13 -30
-13 -33 0 -5 -37 -77 -68 -130 -56 -97 -208 -265 -240 -265 -14 0 -136 -138
-217 -246 -63 -83 -100 -121 -156 -159 -73 -50 -105 -58 -237 -62 -105 -4
-133 -1 -189 17 -76 24 -177 72 -213 100 l-25 20 37 33 c283 248 446 513 535
872 13 53 17 112 17 245 0 96 -3 191 -6 210 -39 197 -83 307 -191 478 -29 45
-154 172 -170 172 -21 0 -86 63 -106 102 -28 55 -57 94 -104 141 -37 37 -44
52 -29 59 4 2 20 23 36 47 31 48 39 58 122 149 31 34 63 62 69 62 7 0 18 7 25
15 18 22 115 77 172 99 26 9 73 20 105 23 32 3 63 8 70 12 30 15 160 4 234
-21z m-1312 -299 c64 -33 132 -115 190 -229 30 -58 57 -107 61 -110 3 -3 22
-32 40 -65 19 -33 51 -75 72 -94 22 -20 36 -41 34 -50 -17 -62 -49 -171 -58
-193 -11 -29 -25 -120 -31 -203 -6 -69 -18 -135 -26 -135 -9 0 -84 50 -96 64
-23 27 -137 76 -163 70 -30 -6 -36 -8 -140 -53 -79 -34 -108 -37 -135 -17 -15
12 -16 20 -7 62 10 44 21 74 80 229 34 89 90 264 90 283 0 10 4 22 9 28 8 8
15 111 12 196 -1 31 -44 134 -69 163 -18 21 -42 61 -42 70 0 3 31 5 70 5 50 0
80 -6 109 -21z m-266 -4 c86 -36 147 -135 147 -240 0 -36 -2 -65 -4 -65 -2 0
-25 9 -51 20 -56 24 -169 27 -219 6 -18 -7 -52 -37 -76 -65 -45 -54 -84 -67
-110 -37 -19 23 -101 45 -156 42 -62 -3 -149 -44 -189 -88 -56 -61 -71 -102
-95 -248 -16 -100 -73 -220 -103 -220 -20 0 -69 -59 -83 -100 -8 -20 -13 -84
-14 -152 0 -65 -4 -118 -8 -118 -5 0 -69 62 -143 138 -161 164 -162 168 -156
353 5 145 17 205 60 303 75 166 155 244 304 298 63 22 64 23 168 37 114 17
169 13 227 -12 29 -13 73 -26 97 -30 39 -5 47 -2 73 23 15 16 28 37 28 47 0
27 68 89 115 106 54 20 144 20 188 2z m692 -145 c55 -61 60 -259 8 -311 -10
-10 -83 62 -127 127 -11 17 -40 59 -63 92 l-42 60 20 18 c19 17 71 27 160 33
15 0 34 -8 44 -19z m2251 -108 c83 -17 182 -50 211 -70 16 -11 39 -27 53 -36
14 -9 42 -27 63 -41 20 -14 37 -30 37 -36 0 -7 16 -29 35 -50 77 -85 121 -217
131 -387 l7 -118 -49 -82 c-27 -45 -59 -99 -71 -120 -51 -85 -133 -254 -172
-352 -23 -58 -48 -116 -56 -130 -7 -14 -29 -70 -49 -125 -21 -55 -41 -111 -47
-123 -5 -13 -18 -52 -30 -85 -11 -34 -26 -75 -33 -92 -8 -16 -24 -57 -36 -90
-67 -187 -282 -628 -345 -711 -14 -18 -25 -35 -25 -39 0 -3 -21 -32 -47 -64
-27 -32 -59 -74 -73 -92 -35 -48 -152 -169 -162 -169 -5 0 -31 -22 -58 -49
-54 -55 -149 -122 -213 -152 -44 -21 -63 -31 -112 -64 -38 -26 -85 -43 -160
-60 -33 -8 -74 -19 -90 -26 -40 -15 -392 -24 -475 -11 -145 23 -256 61 -350
121 -30 19 -68 43 -85 52 l-30 17 4 123 c1 68 7 128 12 134 5 5 9 22 9 37 0
22 6 29 28 34 25 7 175 80 197 97 6 4 27 20 48 36 21 17 41 31 45 33 4 2 34
35 68 73 63 73 111 146 134 205 25 62 41 79 118 122 42 23 101 58 132 79 54
36 182 162 230 227 14 19 49 62 78 97 28 34 52 66 52 70 0 7 61 82 109 135 32
34 114 143 144 190 42 64 88 193 109 300 16 81 16 438 0 535 -19 113 -74 333
-92 366 -5 9 -12 32 -15 51 -7 36 -6 37 61 85 88 64 316 153 394 153 25 0 52
5 60 10 18 13 235 7 306 -8z m-2114 -35 c27 -41 99 -120 171 -186 24 -22 39
-45 43 -70 3 -20 10 -49 15 -65 5 -15 6 -33 2 -39 -3 -5 -7 -23 -9 -39 -6 -48
-55 -128 -80 -128 -4 0 -24 -15 -44 -32 -50 -44 -81 -68 -126 -98 -20 -14 -67
-55 -104 -92 -37 -38 -71 -68 -75 -68 -13 0 -1 268 13 282 7 7 12 20 12 29 0
16 18 81 47 169 8 25 19 61 24 80 4 19 15 60 24 90 24 81 26 91 32 140 9 85
16 89 55 27z m-788 -31 c69 -18 96 -33 96 -52 0 -8 -27 -97 -60 -197 -33 -100
-76 -237 -97 -305 l-38 -124 -40 5 c-50 6 -133 25 -145 32 -6 3 17 32 49 65
66 66 69 72 83 155 29 179 20 218 -59 276 -24 16 -43 34 -43 38 0 17 84 87
123 102 54 22 65 22 131 5z m-429 -91 c49 -17 134 -60 155 -77 70 -59 115
-158 72 -158 -10 0 -22 3 -26 8 -4 4 -20 8 -34 9 -15 1 -54 6 -87 11 -54 8
-65 7 -114 -17 -29 -14 -56 -31 -58 -38 -3 -7 -12 -13 -19 -13 -8 0 -29 -22
-46 -50 -17 -27 -34 -50 -39 -50 -12 0 -55 55 -66 86 -6 16 -15 50 -21 75 -18
76 18 147 103 202 47 30 117 35 180 12z m1512 -182 c11 -10 30 -36 42 -58 12
-22 32 -58 46 -80 22 -37 34 -68 64 -170 27 -90 53 -445 33 -445 -5 0 -12 -32
-15 -70 -3 -39 -10 -85 -16 -103 -5 -17 -19 -63 -31 -102 -11 -38 -27 -83 -34
-100 -8 -16 -29 -64 -47 -105 -19 -41 -63 -117 -98 -170 -56 -85 -79 -114
-164 -210 -12 -14 -37 -45 -56 -68 -43 -55 -77 -72 -146 -72 -47 0 -72 8 -148
45 -50 25 -99 52 -107 60 -9 8 -34 15 -56 15 -21 0 -44 4 -50 8 -9 5 -23 98
-24 157 -1 46 22 265 29 285 5 14 12 43 16 65 8 52 78 253 101 294 11 18 26
45 35 61 17 30 34 53 131 173 86 107 145 165 207 207 29 19 88 68 131 109 96
89 130 151 130 234 0 32 2 57 3 57 2 0 13 -8 24 -17z m-1347 -82 c80 -21 85
-38 42 -134 -35 -76 -87 -117 -149 -117 -23 0 -43 3 -45 8 -1 4 -29 20 -60 35
-32 16 -64 38 -72 49 -13 19 -12 26 10 70 14 27 33 52 42 55 9 3 23 11 31 17
44 35 111 40 201 17z m-454 -68 c53 -67 106 -123 116 -123 5 0 25 -12 44 -26
38 -30 187 -104 207 -104 7 0 18 -5 24 -11 15 -15 142 -44 331 -76 69 -11 22
-84 -94 -141 -33 -17 -78 -34 -100 -37 -21 -4 -45 -12 -52 -18 -8 -6 -69 -11
-145 -11 -124 0 -136 2 -189 27 -34 17 -76 49 -105 81 -69 75 -83 131 -83 324
0 84 4 152 8 152 5 0 22 -16 38 -37z m-106 -198 c0 -19 9 -66 19 -104 17 -62
30 -92 64 -146 21 -35 83 -89 143 -125 l58 -35 144 1 c91 1 148 6 155 13 6 6
20 11 31 11 11 0 47 13 80 29 34 16 76 35 93 41 50 19 83 55 99 111 10 34 31
68 59 98 l44 46 69 -1 c58 0 77 -5 124 -33 31 -17 79 -52 107 -77 54 -49 65
-83 36 -113 -65 -67 -157 -244 -195 -371 -12 -41 -26 -85 -31 -98 -9 -22 -19
-80 -39 -212 -5 -30 -9 -111 -9 -179 l-1 -123 -27 6 c-71 18 -122 27 -173 31
-232 18 -333 69 -393 196 -22 47 -83 138 -106 158 -10 9 -22 24 -27 34 -6 9
-79 88 -163 175 -168 173 -166 171 -201 227 -30 48 -45 86 -73 187 l-21 78 23
67 c21 62 79 143 103 143 4 0 8 -16 8 -35z m-347 -224 c126 -121 415 -416 498
-508 135 -149 299 -357 299 -380 0 -5 9 -15 20 -23 11 -8 20 -21 20 -28 0 -15
-9 -15 -232 10 l-116 13 -104 101 c-130 126 -248 271 -248 303 0 6 -4 11 -8
11 -5 0 -17 17 -28 38 -10 20 -22 39 -26 42 -11 8 -94 189 -108 235 -7 22 -15
47 -18 55 -3 8 -6 20 -8 25 -2 6 -10 35 -20 65 -23 78 -28 120 -15 120 6 0 48
-36 94 -79z m-523 -802 c25 -5 74 -16 110 -24 36 -7 97 -21 135 -30 39 -9 124
-24 190 -34 66 -9 127 -20 135 -23 8 -3 56 -11 105 -17 50 -7 135 -19 190 -27
55 -8 165 -21 245 -29 159 -16 450 -48 630 -69 178 -21 242 -43 480 -159 229
-112 319 -150 410 -177 41 -12 85 -25 97 -30 13 -5 52 -12 88 -16 43 -5 65
-11 65 -20 0 -7 -5 -16 -10 -19 -6 -4 -24 -34 -41 -68 -17 -34 -42 -76 -55
-94 -13 -17 -24 -36 -24 -41 0 -5 -14 -20 -32 -33 -17 -13 -43 -34 -57 -45
-46 -38 -155 -100 -206 -118 -27 -10 -59 -23 -70 -29 -11 -6 -84 -13 -162 -15
-149 -5 -220 5 -359 49 -33 10 -68 19 -76 19 -9 0 -29 6 -45 14 -116 56 -224
106 -258 119 -22 8 -74 29 -115 45 -41 16 -145 53 -230 82 -141 48 -165 54
-260 57 -58 2 -117 9 -133 15 -15 6 -148 14 -295 18 -270 8 -291 10 -372 30
-52 12 -146 57 -172 82 -26 26 -62 87 -83 143 -16 40 -20 73 -19 165 2 112 3
117 39 190 21 41 42 81 47 88 12 14 46 15 108 1z m-601 -309 c210 -80 212 -80
286 -80 76 0 85 -5 85 -51 0 -32 36 -93 90 -152 57 -63 182 -133 253 -143 23
-3 51 -10 62 -14 11 -5 173 -11 360 -13 222 -2 350 -8 370 -15 17 -6 64 -21
105 -33 161 -45 196 -59 635 -254 17 -7 62 -23 100 -35 39 -11 79 -25 90 -31
11 -5 52 -14 90 -20 39 -6 86 -14 105 -17 19 -4 95 -7 168 -7 l133 0 -4 -70
c-12 -193 -51 -343 -128 -498 -23 -45 -45 -83 -50 -85 -5 -2 -9 -8 -9 -14 0
-6 -13 -25 -29 -43 -16 -18 -30 -37 -32 -42 -8 -18 -122 -114 -186 -156 -85
-55 -163 -97 -183 -97 -9 0 -20 -4 -26 -9 -9 -9 -55 -21 -174 -46 -96 -20
-423 -21 -525 -1 -87 17 -149 32 -180 45 -11 5 -51 19 -89 31 -121 37 -487
227 -550 284 -22 21 -95 76 -100 76 -2 0 -18 12 -34 28 -135 124 -310 229
-465 277 -87 27 -109 28 -197 9 -82 -18 -98 -16 -160 17 -67 35 -196 141 -227
186 -36 51 -71 127 -78 168 -4 22 -11 60 -15 85 -12 62 -12 157 1 205 5 22 15
58 20 80 6 22 44 107 85 188 40 81 74 153 74 160 0 20 51 64 105 92 43 21 59
24 114 18 35 -3 84 -13 110 -23z m5100 -441 c20 -16 48 -41 62 -55 14 -13 29
-24 34 -24 20 0 321 -294 451 -441 142 -159 267 -344 369 -544 79 -155 167
-382 189 -490 4 -16 8 -39 11 -50 40 -178 59 -342 56 -498 l-1 -29 -187 5
c-104 3 -227 5 -275 6 -50 0 -88 4 -88 10 0 5 -33 12 -72 14 -40 3 -91 7 -113
10 -111 15 -237 37 -295 52 -120 30 -185 45 -205 49 -27 5 -169 49 -264 82
-78 26 -334 151 -428 208 -29 17 -78 46 -110 65 -32 19 -83 53 -113 77 -30 24
-64 50 -75 58 -101 75 -237 204 -333 317 -35 41 -74 85 -87 99 -13 14 -35 42
-49 63 l-25 37 87 1 c48 0 110 4 137 9 143 26 203 38 229 49 41 17 49 5 57
-91 8 -92 20 -149 39 -190 32 -68 42 -10 21 122 -6 36 -11 93 -11 128 0 56 2
63 23 71 13 5 55 29 93 52 74 46 158 89 173 89 5 0 11 -21 14 -47 3 -27 15
-138 27 -248 19 -178 40 -369 56 -507 6 -52 29 -82 40 -54 8 21 -10 257 -31
416 -9 63 -23 176 -31 250 -8 74 -18 155 -21 179 l-5 44 97 93 c84 82 135 114
135 86 0 -4 31 -30 69 -57 l69 -50 7 -105 c3 -58 9 -112 13 -120 6 -15 20
-148 43 -415 11 -134 34 -205 64 -205 13 0 15 11 10 68 -3 37 -10 92 -16 122
-8 48 -20 155 -34 300 -2 25 -10 101 -18 170 -8 69 -13 127 -11 129 2 2 9 -1
16 -6 27 -22 83 -25 358 -23 320 2 421 9 428 28 2 8 -8 12 -30 12 -19 0 -39 5
-44 10 -7 7 -67 9 -175 5 -90 -3 -239 -8 -331 -11 l-168 -5 -27 28 -28 28 165
7 c192 9 484 24 488 27 1 0 2 7 2 14 0 17 -387 30 -602 21 l-144 -7 -32 34
-32 34 133 7 c167 9 525 25 595 27 39 1 52 5 52 16 0 13 -49 15 -380 15 -209
0 -380 4 -380 8 0 5 9 17 21 28 21 19 126 29 544 50 l100 6 -35 16 c-30 14
-71 16 -282 13 -137 -1 -248 0 -248 4 0 36 94 58 278 62 138 4 153 6 150 21
-3 15 -23 17 -181 20 -103 1 -177 6 -177 12 0 24 61 40 154 40 85 0 120 9 103
27 -13 12 -87 26 -142 27 -33 1 -60 6 -60 11 0 6 13 34 29 63 34 62 53 65 105
21z m-2119 -785 c8 -4 30 -24 48 -44 l33 -38 -92 -139 c-51 -76 -95 -140 -99
-143 -11 -9 -190 -282 -190 -291 0 -4 -6 -12 -13 -16 -17 -11 -67 -79 -67 -91
0 -6 -4 -12 -9 -14 -4 -1 -12 -14 -16 -26 -6 -22 -5 -23 14 -13 11 6 26 21 32
34 7 12 34 47 62 77 27 30 59 68 71 86 11 17 48 71 81 120 33 49 64 93 68 99
5 5 23 33 40 61 60 96 105 159 150 209 l45 50 28 -21 c28 -20 29 -25 36 -135
4 -63 10 -149 14 -193 6 -76 5 -79 -25 -116 -17 -22 -31 -42 -31 -46 0 -4 -15
-25 -33 -48 -17 -23 -50 -68 -72 -101 -22 -33 -43 -61 -47 -63 -5 -2 -8 -8 -8
-12 0 -5 -20 -37 -44 -72 -25 -35 -70 -101 -102 -147 -31 -46 -64 -93 -74
-103 -9 -10 -26 -34 -36 -53 -10 -19 -22 -35 -26 -35 -5 0 -8 -6 -8 -14 0 -7
-7 -19 -16 -27 -24 -20 -65 -107 -54 -114 10 -6 40 17 40 32 0 4 14 22 30 40
17 18 30 35 30 39 0 4 23 33 50 65 28 32 50 60 50 64 0 3 5 11 10 18 6 7 24
30 40 52 16 22 34 45 40 52 5 7 10 15 10 19 0 3 14 23 30 44 17 21 30 41 30
44 0 3 12 24 28 45 34 48 40 58 104 156 29 44 58 86 65 93 7 7 13 18 13 23 0
6 5 7 10 4 6 -3 10 -52 10 -110 0 -58 4 -107 10 -110 6 -3 10 -49 10 -103 0
-76 -4 -103 -18 -123 -36 -55 -57 -84 -63 -89 -3 -3 -8 -9 -10 -15 -2 -5 -44
-70 -94 -144 -49 -73 -94 -140 -100 -149 -5 -9 -18 -28 -27 -41 -10 -13 -18
-30 -18 -37 0 -30 28 -9 75 58 28 38 58 80 67 91 56 70 98 126 98 131 0 3 12
24 28 45 36 51 51 73 61 90 13 21 27 6 40 -44 12 -47 16 -51 40 -36 9 6 33 0
70 -19 31 -15 90 -42 131 -60 114 -49 338 -148 405 -179 33 -15 85 -38 115
-51 30 -12 67 -29 82 -36 34 -18 58 -18 58 0 0 16 -57 48 -200 115 -52 24
-123 57 -156 72 -34 16 -67 29 -73 29 -5 0 -25 6 -43 14 -18 8 -62 27 -98 43
-122 52 -298 141 -306 154 -10 17 -12 59 -3 65 7 4 112 -44 384 -176 88 -43
184 -89 213 -101 28 -12 52 -25 52 -29 0 -9 109 -35 116 -27 3 3 3 11 -1 18
-7 10 -176 95 -430 214 -38 18 -123 58 -187 89 -65 31 -123 56 -131 56 -21 0
-37 22 -37 52 0 20 5 28 17 28 10 0 112 -44 228 -99 250 -117 278 -129 500
-226 71 -31 195 -72 195 -66 0 17 -39 41 -135 86 -163 75 -176 81 -265 120
-47 20 -112 49 -145 64 -54 25 -195 90 -342 158 -43 19 -53 28 -53 48 0 14 4
25 9 25 12 0 71 -24 156 -64 39 -18 108 -50 155 -71 47 -21 121 -55 165 -76
44 -20 114 -51 155 -69 41 -18 108 -48 148 -67 66 -31 92 -35 92 -14 0 16
-220 134 -330 176 -25 10 -58 23 -75 30 -16 7 -59 25 -95 40 -74 31 -297 141
-352 174 -32 19 -38 28 -38 57 0 19 2 34 5 34 4 0 177 -77 290 -130 33 -15
103 -47 155 -71 136 -61 218 -98 363 -168 130 -62 157 -71 157 -48 0 26 -286
172 -713 363 -202 90 -277 132 -277 155 0 10 4 19 9 19 5 0 72 -29 148 -66 76
-36 161 -76 188 -88 28 -13 98 -47 157 -75 59 -28 111 -51 116 -51 5 0 61 -27
125 -60 65 -33 122 -60 129 -60 6 0 19 -6 27 -14 23 -21 55 -24 59 -5 2 10
-14 23 -49 40 -29 13 -57 29 -63 34 -12 11 -56 33 -226 110 -195 89 -255 117
-350 162 -52 26 -111 52 -130 60 -99 40 -131 59 -136 81 -4 13 -4 25 -1 28 6
6 77 -17 122 -39 17 -8 77 -36 135 -62 215 -97 248 -113 370 -173 69 -34 148
-75 175 -92 28 -16 64 -36 81 -44 17 -8 36 -22 44 -30 7 -9 18 -16 24 -16 6 0
43 -22 81 -48 61 -42 70 -53 73 -82 2 -19 -1 -51 -7 -70 -5 -19 -14 -93 -20
-165 -26 -327 -109 -672 -217 -900 -13 -27 -35 -75 -49 -105 -27 -57 -33 -69
-102 -186 -36 -61 -60 -95 -153 -219 -16 -22 -235 -240 -293 -292 -20 -18 -41
-33 -47 -33 -12 0 -269 260 -325 330 -22 27 -56 67 -75 88 -19 22 -51 62 -70
91 -19 28 -52 73 -72 100 -21 27 -38 51 -38 54 0 3 -18 33 -40 66 -79 118
-183 328 -258 516 -70 178 -116 366 -142 590 -6 50 -15 104 -20 120 -8 29 -14
193 -11 321 l1 61 56 39 c30 21 78 55 106 74 107 73 179 167 268 349 39 80 74
157 77 173 3 16 10 26 17 23 6 -3 18 -8 26 -11z m340 -215 c30 -11 60 -22 65
-23 10 -3 48 -19 95 -40 62 -28 140 -87 140 -106 0 -18 -10 -15 -97 27 -113
54 -159 75 -225 102 -44 18 -58 37 -41 54 8 9 -1 10 63 -14z m17 -109 c38 -22
118 -57 179 -79 177 -61 332 -160 322 -205 -3 -17 -40 -1 -385 162 l-203 96 0
33 c0 18 4 33 9 33 4 0 39 -18 78 -40z m-2341 -197 c30 -19 59 -36 145 -82 62
-33 63 -34 39 -46 -14 -7 -45 -16 -70 -20 -55 -9 -172 -49 -221 -76 -20 -10
-44 -19 -54 -19 -10 0 -15 -6 -13 -17 4 -19 39 -20 88 -3 14 4 66 20 115 34
50 15 104 31 121 37 37 11 156 30 199 31 50 2 121 -18 169 -46 25 -15 46 -31
46 -36 0 -4 -21 -16 -47 -25 -27 -9 -64 -23 -83 -30 -19 -7 -60 -20 -90 -30
-30 -9 -64 -21 -75 -25 -27 -12 -97 -33 -115 -36 -16 -2 -94 -24 -168 -47 -24
-7 -43 -17 -42 -23 1 -11 98 -8 125 5 11 6 43 15 70 21 28 6 79 18 115 26 36
9 74 17 85 19 11 1 28 6 38 10 60 25 -30 -66 -128 -129 -38 -25 -74 -49 -80
-53 -5 -4 -46 -23 -90 -41 -44 -18 -93 -40 -108 -48 -16 -8 -39 -14 -51 -14
-12 0 -26 -4 -31 -9 -10 -8 -92 -32 -187 -54 -27 -6 -48 -15 -48 -19 0 -10
114 -11 124 -1 4 5 38 14 74 20 93 17 105 20 122 26 8 3 27 8 43 11 46 11 32
-16 -46 -91 -80 -76 -114 -92 -287 -136 -82 -21 -175 -61 -170 -72 7 -15 88
-10 150 9 115 36 145 32 95 -15 -13 -13 -25 -29 -25 -35 0 -6 -15 -24 -32 -41
-18 -18 -46 -48 -62 -68 -34 -43 -65 -60 -126 -70 -24 -4 -51 -11 -60 -15 -8
-4 -34 -16 -57 -25 -24 -10 -43 -22 -43 -27 0 -17 26 -18 95 -3 38 8 71 12 73
10 3 -2 -3 -15 -11 -27 -65 -91 -117 -174 -117 -185 0 -21 26 -15 43 10 l16
22 2 -30 c1 -16 2 -44 3 -62 0 -17 4 -34 7 -37 10 -10 36 73 44 134 15 129 35
137 35 14 0 -142 38 -85 59 88 11 95 27 140 41 117 5 -7 6 -18 2 -24 -4 -5
-11 -64 -15 -130 -12 -191 -13 -215 -2 -217 10 -3 16 26 40 202 8 58 19 132
24 165 5 33 10 70 10 82 1 24 53 82 58 66 2 -6 -1 -53 -7 -104 -25 -207 -37
-334 -35 -337 2 -2 10 7 19 20 13 20 22 75 40 233 10 92 26 191 34 210 41 93
53 115 63 109 6 -3 8 -16 4 -28 -4 -11 -13 -70 -20 -131 -7 -60 -18 -150 -24
-200 -6 -49 -16 -113 -22 -141 -9 -40 -9 -56 1 -75 l13 -23 9 24 c33 87 64
260 73 410 9 134 23 216 46 263 12 26 27 47 31 47 15 0 3 -129 -28 -290 -20
-105 -29 -273 -16 -296 22 -39 52 121 71 383 5 66 14 129 19 140 5 10 12 34
16 54 6 36 31 93 48 114 5 6 14 18 21 29 23 32 10 -165 -23 -364 -13 -77 -30
-244 -37 -352 -4 -63 -2 -78 10 -78 10 0 16 18 21 61 3 34 10 78 16 98 6 20
14 83 20 141 5 58 16 157 25 220 8 63 20 160 25 215 10 94 13 102 46 135 l34
35 -1 -55 c0 -50 -12 -182 -39 -430 -13 -119 -9 -140 12 -70 38 125 50 203 78
489 11 123 16 138 45 157 31 20 44 12 38 -23 -6 -36 -31 -271 -46 -438 -7 -71
-15 -134 -18 -140 -12 -19 -21 -245 -10 -245 6 0 11 1 12 3 0 1 7 40 15 87 29
166 44 277 60 435 9 88 20 169 24 180 5 11 11 49 14 85 10 108 41 170 84 170
11 0 13 -8 8 -32 -4 -18 -8 -53 -11 -78 -2 -25 -11 -94 -19 -155 -9 -60 -22
-162 -31 -225 -8 -63 -22 -164 -30 -225 -25 -175 -28 -215 -16 -216 39 -6 32
-30 76 271 8 58 22 166 30 240 8 74 22 185 30 245 8 61 15 133 14 160 0 55 33
120 61 120 19 0 18 -45 -4 -205 -15 -108 -42 -311 -52 -390 -17 -135 -17 -143
-4 -138 22 7 51 108 56 198 3 47 8 92 12 100 3 8 12 76 18 150 7 74 15 146 18
160 3 14 9 45 13 70 7 39 12 45 33 45 24 0 25 -2 24 -70 -1 -38 -11 -164 -23
-280 -12 -115 -28 -275 -36 -355 -8 -80 -17 -157 -21 -172 -5 -21 -3 -28 9
-28 9 0 17 13 21 38 3 20 8 48 11 62 2 14 11 66 19 115 8 50 17 99 20 110 3
11 11 63 17 115 6 52 17 145 25 205 8 61 18 140 22 177 8 71 23 101 43 81 21
-21 13 -117 -30 -363 -13 -77 -13 -314 0 -280 6 14 13 39 15 55 3 17 10 59 16
95 6 36 12 85 14 110 2 25 9 79 15 120 5 41 12 91 14 110 9 79 23 142 33 152
17 17 46 1 36 -20 -4 -9 -13 -70 -21 -134 -7 -65 -20 -173 -28 -240 -9 -68
-18 -141 -21 -163 -3 -22 -10 -71 -15 -110 -13 -88 -15 -142 -6 -151 10 -10
19 1 23 28 1 13 10 61 19 108 10 47 24 128 31 180 8 52 21 140 30 195 8 55 20
147 27 205 9 81 15 105 27 105 15 0 33 -71 22 -89 -3 -5 -13 -54 -23 -110 -23
-125 -26 -326 -5 -326 9 0 15 19 20 63 8 86 12 117 56 387 13 85 16 90 39 90
18 0 20 -5 16 -62 -4 -65 -27 -296 -44 -448 -5 -47 -10 -107 -10 -135 -1 -80
21 -39 36 67 8 51 16 107 18 123 21 140 27 182 35 265 6 52 13 106 17 120 3
14 5 30 4 37 -3 19 27 83 39 83 6 0 13 -6 16 -14 8 -21 -13 -251 -37 -401 -6
-38 -12 -80 -13 -92 -1 -13 -6 -26 -9 -30 -4 -3 -7 -17 -7 -30 0 -16 6 -23 18
-23 21 0 52 79 52 131 0 16 4 37 10 47 5 9 14 67 20 127 32 338 30 325 52 325
13 0 2 -327 -11 -344 -5 -6 -12 -76 -16 -155 -6 -119 -5 -143 6 -139 25 8 49
97 42 155 -8 75 12 68 26 -9 33 -178 33 -170 -1 -205 -18 -18 -35 -33 -40 -33
-4 0 -20 -11 -35 -25 -63 -55 -127 -107 -152 -123 -14 -9 -44 -31 -67 -49 -23
-18 -46 -33 -52 -33 -6 0 -12 -3 -14 -8 -4 -9 -150 -106 -268 -177 -77 -46
-263 -141 -350 -178 -148 -63 -193 -80 -350 -127 -41 -12 -93 -28 -115 -36
-39 -13 -77 -21 -235 -48 -41 -8 -82 -17 -91 -20 -16 -7 -250 -25 -374 -29
-72 -2 -70 -37 -20 268 4 22 11 58 16 80 11 43 38 160 42 185 6 26 18 74 33
120 7 25 23 77 34 115 12 39 25 79 30 90 5 11 27 65 50 120 55 133 94 210 167
330 66 109 120 190 137 204 9 7 16 19 16 25 0 6 29 45 64 86 125 146 124 145
172 113z"/>
<path d="M6565 3220 c-4 -6 -73 -10 -176 -10 -93 0 -169 -4 -169 -8 0 -5 12
-19 26 -33 18 -16 28 -20 31 -11 4 9 43 12 152 12 197 0 331 10 331 24 0 26
-180 50 -195 26z"/>
<path d="M6290 3135 c0 -2 15 -33 34 -67 59 -108 84 -245 89 -483 6 -279 38
-498 69 -467 13 13 3 161 -43 660 -6 68 -8 126 -4 130 3 4 95 -84 204 -195
l198 -202 11 -113 c6 -62 18 -153 26 -203 8 -49 20 -116 25 -148 19 -113 24
-70 17 148 l-7 220 50 -55 c28 -30 50 -58 51 -62 0 -4 14 -21 30 -38 17 -17
30 -33 30 -36 0 -4 23 -32 50 -64 28 -32 50 -62 50 -66 0 -5 22 -33 49 -61 47
-51 71 -65 71 -43 0 17 -27 65 -44 79 -22 19 -20 30 9 41 15 6 25 17 25 30 0
16 -7 20 -37 21 -52 2 -55 2 -81 17 -35 20 -16 32 52 32 67 0 78 4 69 26 -4
10 -25 14 -82 14 -90 0 -145 25 -139 63 3 20 10 22 75 27 39 3 75 8 79 13 16
16 -11 22 -89 20 -84 -3 -167 19 -167 43 0 14 46 24 106 24 23 0 46 5 49 10 4
6 29 10 56 9 57 -3 72 7 44 27 -19 14 -96 15 -230 3 -36 -4 -125 37 -125 57 0
11 21 14 103 14 76 0 108 4 123 15 19 15 19 15 -1 31 -14 10 -30 13 -50 9 -16
-4 -68 -9 -115 -11 -73 -4 -90 -2 -117 16 -18 11 -33 24 -33 28 0 5 77 12 171
16 105 4 179 11 192 19 18 10 -16 13 -193 17 -210 5 -271 14 -255 41 4 5 59
10 123 10 137 2 176 8 180 30 4 23 -15 26 -172 23 -123 -3 -146 0 -188 18 -26
11 -48 24 -48 29 0 5 63 9 139 9 83 0 142 4 146 10 3 6 52 10 111 10 80 0 105
3 102 13 -4 9 -72 13 -279 17 -238 4 -277 7 -298 22 -14 10 -23 19 -20 22 5 5
144 15 334 24 146 7 181 14 170 33 -4 5 -125 9 -289 9 -270 0 -284 1 -301 20
-10 11 -15 23 -11 28 4 4 117 9 251 12 167 3 248 9 256 17 9 9 1 13 -32 17
-24 3 -62 8 -84 12 -78 12 -277 16 -288 5 -14 -14 -164 -14 -172 -1 -6 10 -25
14 -25 5z"/>
<path d="M4482 1928 c2 -16 16 -28 53 -42 28 -10 128 -56 223 -102 96 -46 177
-84 180 -84 4 0 25 -9 47 -19 22 -11 60 -27 85 -36 25 -10 54 -22 66 -27 12
-5 32 -8 45 -6 20 3 17 6 -26 27 -27 13 -52 26 -55 30 -14 19 -585 281 -612
281 -5 0 -8 -10 -6 -22z"/>
<path d="M4472 1808 c-5 -7 -13 -29 -17 -48 -14 -68 -112 -233 -199 -331 -7
-10 -26 -38 -41 -63 -15 -25 -32 -49 -38 -54 -20 -12 -87 -132 -87 -154 0 -27
120 108 165 185 56 98 99 161 142 210 17 20 36 44 42 54 21 38 34 -5 47 -154
7 -82 16 -163 19 -180 6 -25 1 -43 -21 -80 -15 -27 -33 -54 -40 -60 -7 -7 -22
-29 -35 -50 -13 -21 -26 -40 -29 -43 -15 -13 -90 -134 -90 -146 0 -31 19 -18
75 52 117 145 125 156 125 164 0 4 6 10 13 13 9 3 13 -18 14 -85 2 -49 7 -97
13 -108 5 -10 10 -39 10 -64 0 -38 -5 -50 -30 -73 -16 -14 -30 -31 -30 -36 0
-5 -13 -26 -30 -47 -25 -31 -42 -90 -26 -90 10 0 106 106 106 118 0 6 4 12 9
12 5 0 12 -30 14 -67 11 -150 44 -282 67 -268 5 3 9 26 8 51 -1 56 6 63 42 42
32 -18 40 -15 40 19 0 17 -6 23 -22 23 -39 0 -88 37 -88 65 0 35 18 39 76 17
62 -24 112 -34 118 -23 5 8 -26 28 -131 83 -49 25 -63 37 -63 55 0 20 5 23 35
23 20 0 53 -9 75 -20 40 -21 95 -27 104 -11 3 4 -14 16 -37 26 -110 47 -150
71 -174 102 -42 55 -17 57 87 6 52 -25 124 -56 159 -68 76 -28 108 -23 59 9
-19 11 -42 27 -53 34 -11 7 -67 35 -125 63 -58 27 -116 55 -130 62 -28 14 -41
57 -17 57 8 0 50 -16 93 -36 44 -20 93 -42 109 -49 17 -7 51 -22 78 -34 26
-11 54 -21 62 -21 30 0 13 26 -32 50 -27 13 -50 27 -53 31 -7 9 -151 80 -220
110 -63 26 -70 33 -70 72 0 33 3 33 68 2 29 -14 56 -25 62 -25 5 0 38 -13 72
-29 35 -16 92 -42 128 -56 36 -15 98 -43 138 -62 67 -32 112 -38 97 -13 -9 14
-522 270 -541 270 -8 0 -15 3 -15 8 -1 4 -3 16 -4 27 -2 11 -6 27 -10 36 -15
38 12 33 140 -26 28 -12 88 -40 135 -60 47 -21 112 -50 145 -66 147 -69 193
-86 206 -79 17 11 -2 35 -50 61 -20 10 -43 23 -51 28 -26 16 -164 78 -190 86
-49 14 -200 76 -270 110 -63 32 -70 38 -70 65 0 16 4 31 9 35 6 3 63 -20 128
-51 65 -31 141 -66 168 -79 162 -72 195 -86 245 -103 120 -43 140 -48 140 -32
0 6 -33 25 -72 44 -40 19 -108 50 -150 70 -42 20 -80 36 -83 36 -3 0 -54 23
-113 51 -185 89 -246 117 -274 128 -22 8 -28 17 -28 41 0 16 1 30 3 30 1 0 20
-7 42 -16 22 -8 49 -18 60 -21 11 -4 82 -37 158 -75 186 -92 297 -128 297 -98
0 6 -8 13 -17 16 -25 7 -379 173 -523 244 -8 4 -16 21 -18 39 -3 28 -1 31 20
28 13 -2 55 -19 93 -37 39 -17 84 -38 100 -45 17 -7 73 -32 125 -55 52 -23
113 -50 135 -60 22 -10 65 -28 95 -39 30 -12 64 -26 75 -31 65 -27 105 -38
110 -30 11 18 -76 69 -225 130 -92 38 -120 50 -190 83 -170 80 -209 99 -245
122 -46 29 -112 65 -118 65 -3 0 -9 -6 -15 -12z"/>
</g>
</svg>
