<?xml version="1.0" standalone="no"?>
<!DOCTYPE svg PUBLIC "-//W3C//DTD SVG 20010904//EN"
 "http://www.w3.org/TR/2001/REC-SVG-20010904/DTD/svg10.dtd">
<svg version="1.0" xmlns="http://www.w3.org/2000/svg"
 width="768.000000pt" height="793.000000pt" viewBox="0 0 768.000000 793.000000"
 preserveAspectRatio="xMidYMid meet">
<metadata>
Created by potrace 1.16, written by Peter Selinger 2001-2019
</metadata>
<g transform="translate(0.000000,793.000000) scale(0.100000,-0.100000)"
fill="#000000" stroke="none">
<path d="M4598 7531 c5 -91 -14 -138 -71 -179 -18 -12 -62 -44 -99 -70 -57
-40 -71 -56 -94 -106 -23 -52 -26 -68 -21 -130 7 -93 31 -160 78 -220 l39 -48
-27 -47 c-115 -204 -153 -296 -153 -371 0 -52 -10 -76 -126 -300 -27 -52 -58
-115 -68 -140 -11 -25 -27 -63 -37 -85 -9 -22 -25 -62 -35 -88 -27 -75 -74
-85 -92 -19 -5 20 -24 85 -41 143 -43 146 -58 264 -38 287 28 31 38 96 27 167
-11 70 -8 85 17 85 9 0 13 6 9 15 -3 9 6 49 19 90 14 40 25 88 25 106 l0 33
17 -24 c10 -13 20 -43 24 -65 l6 -40 2 35 c1 23 -13 64 -38 115 -21 44 -41 87
-44 95 -11 29 -7 -26 4 -58 6 -17 9 -39 7 -49 -3 -14 -8 -11 -21 15 -22 41
-65 84 -144 144 -67 51 -105 102 -122 164 -13 47 -27 71 -37 61 -4 -3 3 -45
16 -91 l23 -85 -41 -61 c-22 -33 -51 -86 -63 -118 -20 -53 -21 -63 -10 -141 7
-46 9 -86 6 -89 -10 -11 -64 51 -83 97 -11 25 -23 80 -27 120 -3 41 -13 84
-22 95 -14 20 -15 20 -8 -9 4 -16 9 -77 9 -135 2 -117 21 -173 73 -222 30 -28
93 -53 93 -37 0 5 -8 9 -18 9 -37 0 -122 100 -122 144 0 17 4 15 24 -14 13
-19 49 -51 79 -70 31 -19 56 -41 57 -48 0 -7 11 -18 25 -24 14 -6 25 -19 25
-28 0 -9 11 -54 24 -101 19 -64 32 -90 55 -109 39 -33 53 -69 86 -218 14 -67
37 -154 51 -193 13 -40 21 -75 18 -80 -7 -12 -44 -11 -44 1 0 5 -32 41 -71 79
-73 72 -118 95 -227 121 -30 7 -75 24 -100 38 -64 36 -156 35 -263 -1 l-76
-26 -46 24 c-66 33 -90 24 -112 -40 -9 -28 -13 -29 -58 -26 -35 2 -56 -3 -82
-19 -49 -31 -106 -99 -144 -172 -29 -57 -32 -72 -30 -139 3 -83 -18 -189 -36
-189 -7 0 -18 7 -25 15 -17 20 -134 96 -197 129 -134 68 -307 101 -473 90
-153 -9 -244 -41 -323 -113 -23 -21 -64 -52 -91 -70 -40 -28 -55 -32 -87 -28
-21 3 -39 1 -39 -4 0 -5 10 -9 23 -9 13 0 27 -3 30 -7 12 -11 -14 -33 -39 -33
-15 0 -24 -6 -24 -15 0 -22 -48 -38 -97 -32 -31 3 -40 1 -36 -9 6 -16 -16 -21
-130 -28 -79 -5 -127 -19 -113 -34 3 -3 46 -4 95 -3 62 2 101 -2 123 -12 18
-9 45 -18 60 -21 34 -8 108 -56 108 -72 0 -6 11 -19 24 -28 14 -8 39 -37 57
-63 126 -187 248 -318 342 -368 20 -11 37 -23 37 -26 0 -4 -16 -17 -36 -30
-69 -42 -88 -71 -118 -179 -11 -40 -23 -60 -43 -72 -27 -17 -27 -17 -5 -18 31
0 27 -23 -10 -57 -18 -16 -37 -37 -43 -47 -10 -17 -73 -58 -150 -96 -32 -16
-36 -20 -17 -20 13 0 48 12 79 26 31 15 73 28 93 29 21 1 50 12 65 24 15 11
37 21 47 21 20 0 20 -1 3 -27 l-18 -26 35 21 c46 29 58 28 120 -10 66 -41 129
-57 182 -47 23 4 43 5 45 3 3 -2 -1 -44 -7 -93 -27 -204 -1 -322 97 -441 37
-44 65 -105 56 -120 -11 -18 -110 -29 -165 -18 l-35 7 28 -15 c16 -9 26 -18
23 -22 -4 -3 -24 5 -46 17 -38 21 -53 18 -28 -7 6 -6 10 -14 7 -16 -4 -4 -21
2 -126 42 -29 11 -53 19 -53 17 0 -1 32 -22 71 -45 43 -25 67 -45 60 -49 -8
-5 -1 -16 19 -31 43 -33 37 -43 -10 -19 -23 12 -43 19 -46 17 -2 -3 11 -13 30
-22 18 -9 49 -31 67 -48 l34 -33 -95 -6 c-110 -7 -181 -23 -230 -54 -41 -26
-79 -67 -222 -240 -58 -72 -126 -150 -151 -174 l-45 -44 -59 7 c-54 5 -54 -1
1 -18 34 -11 -1 -36 -52 -36 -42 0 -44 -1 -26 -14 18 -14 18 -15 1 -21 -9 -4
-38 -4 -63 0 -32 4 -44 3 -39 -4 12 -20 -55 -12 -121 15 -76 30 -95 26 -32 -8
44 -23 81 -36 133 -44 53 -9 63 -15 40 -24 -17 -7 -15 -9 10 -9 17 -1 36 -6
43 -13 6 -6 32 -19 58 -28 51 -17 66 -35 37 -43 -16 -4 -16 -5 2 -6 52 -3 100
-26 164 -80 39 -33 86 -69 105 -81 47 -29 154 -70 182 -70 47 0 32 -21 -50
-75 -166 -108 -256 -283 -281 -550 -8 -83 17 -292 48 -404 11 -42 23 -112 27
-156 4 -44 7 -70 8 -57 4 53 42 1 42 -58 0 -17 7 -33 17 -39 15 -8 18 -23 18
-85 -1 -42 3 -76 7 -76 18 0 6 -66 -30 -164 -21 -57 -34 -102 -27 -100 6 3 30
46 54 97 55 119 56 122 70 122 6 0 22 18 34 40 13 23 30 40 40 40 10 0 26 10
35 22 9 12 30 25 46 29 25 6 28 4 23 -10 -10 -27 7 -18 26 13 12 21 35 35 94
56 145 52 360 162 458 235 33 24 245 242 245 251 0 22 22 6 35 -24 18 -44 102
-155 127 -168 11 -6 59 -46 107 -89 65 -58 90 -88 101 -119 7 -22 17 -41 21
-41 20 0 43 -56 51 -123 13 -105 15 -128 18 -172 2 -38 3 -37 16 24 8 36 18
67 23 70 4 4 11 22 15 42 4 25 13 38 26 42 14 4 20 14 20 34 0 36 16 65 24 43
2 -8 7 -22 9 -30 3 -8 6 10 6 39 1 57 20 95 83 166 84 95 115 141 164 243 56
116 74 179 74 264 0 45 2 49 23 46 14 -2 30 -18 45 -48 l24 -45 -7 38 c-3 23
-2 37 4 37 11 0 53 -62 72 -103 8 -18 9 -17 5 11 -7 43 16 43 46 -1 13 -19 28
-32 35 -30 6 2 28 -22 49 -54 43 -69 42 -68 50 -61 7 7 -25 106 -37 114 -15 9
-10 26 6 20 19 -7 19 -8 -5 42 -22 44 -26 82 -10 82 6 0 10 -4 10 -10 0 -5 4
-10 9 -10 6 0 3 20 -5 44 -15 42 -14 47 22 166 34 113 36 129 31 209 -3 47
-13 106 -21 130 -9 24 -14 46 -11 49 3 3 26 -7 53 -22 100 -57 171 -86 262
-104 l93 -19 12 -45 c10 -42 66 -130 100 -158 8 -7 15 -23 15 -35 0 -13 7 -25
15 -29 8 -3 15 -15 15 -26 0 -14 6 -20 17 -18 21 4 43 -36 43 -77 0 -22 3 -26
9 -16 12 18 18 -7 24 -91 2 -32 6 -61 10 -64 16 -16 27 14 27 74 0 37 3 77 6
90 6 21 7 21 20 5 12 -16 13 -12 14 30 0 35 4 47 15 47 8 0 15 -6 16 -12 0 -7
6 5 13 27 9 29 17 39 29 37 10 -2 17 4 17 12 0 9 13 30 29 48 15 18 38 52 50
76 12 23 26 42 31 42 10 0 130 -89 173 -128 15 -14 27 -31 27 -38 0 -7 9 -15
19 -19 14 -4 23 -22 33 -63 11 -51 13 -54 16 -24 7 71 61 -9 63 -93 0 -27 3
-44 6 -37 20 49 53 -37 53 -139 0 -81 18 -47 25 49 8 105 12 122 31 122 10 0
14 12 14 40 0 44 6 49 26 23 12 -16 13 -13 14 23 0 24 6 47 15 54 8 7 15 19
15 26 0 8 18 45 41 82 50 82 89 173 89 206 0 39 19 41 54 5 55 -59 86 -79 164
-111 107 -43 218 -58 422 -58 189 0 195 -1 248 -59 l24 -26 -17 33 c-9 19 -15
36 -12 38 11 11 64 -21 99 -58 28 -30 38 -37 38 -23 0 27 23 3 64 -64 26 -42
44 -60 70 -69 20 -7 36 -18 36 -23 0 -10 59 -49 73 -49 5 0 -10 19 -32 43 -22
23 -41 48 -41 56 0 7 -15 27 -34 45 -56 52 -78 113 -30 81 26 -17 26 -17 -5
28 -41 61 -41 89 0 51 16 -15 16 -12 -2 26 -18 38 -19 49 -10 105 26 149 6
329 -49 440 -53 108 -148 244 -221 316 -39 39 -70 71 -68 73 2 1 29 10 59 20
64 20 140 65 193 115 45 42 153 186 188 250 17 31 36 50 64 62 37 17 38 19 13
19 -16 0 -28 4 -28 8 0 14 32 38 65 50 17 6 22 11 13 11 -53 3 18 80 99 109
32 11 74 23 93 27 19 4 42 12 50 17 27 17 -102 0 -165 -22 -38 -13 -61 -17
-63 -10 -2 6 -14 -4 -26 -22 -15 -21 -30 -32 -43 -31 -13 1 -24 -6 -31 -22 -6
-13 -30 -38 -53 -55 -60 -43 -113 -41 -259 11 -272 96 -297 101 -379 89 -105
-17 -216 -58 -294 -110 -65 -43 -79 -48 -144 -53 -66 -5 -90 2 -63 18 6 3 10
29 10 56 0 40 5 55 25 74 13 14 31 25 39 25 8 0 26 14 40 31 33 39 34 85 1
133 -29 43 -32 60 -7 53 9 -3 40 -10 67 -17 69 -17 78 -22 98 -61 l17 -34 -6
33 c-5 28 -3 32 15 32 11 0 28 -11 37 -25 9 -14 22 -25 29 -25 7 0 25 -16 39
-35 36 -47 51 -44 26 5 -24 48 -24 50 -3 50 14 0 14 3 -3 23 -26 28 -46 75
-35 81 4 3 15 -4 25 -15 10 -12 20 -18 23 -15 4 3 -1 14 -9 23 -39 45 -47 76
-35 138 7 33 10 88 7 123 -3 35 -3 65 -1 67 2 2 21 -5 43 -16 147 -75 418 10
670 209 37 29 68 56 70 61 2 4 28 18 58 30 36 14 44 19 23 15 -22 -3 -33 -2
-33 6 0 12 60 40 87 40 10 0 26 8 34 19 10 11 37 21 67 25 28 4 61 15 74 27
l23 20 -82 -7 c-60 -4 -83 -3 -83 6 0 8 -14 9 -45 4 -25 -3 -53 -3 -62 1 -15
5 -9 11 27 31 25 14 36 22 25 19 -11 -3 -48 -9 -82 -12 -62 -6 -75 1 -51 25 8
8 3 10 -25 5 -34 -5 -43 -1 -108 53 -110 92 -139 110 -234 147 -86 33 -191 54
-245 48 -76 -9 -229 -95 -342 -193 -84 -72 -174 -107 -318 -123 -30 -4 -63 -9
-74 -12 -17 -5 -18 -1 -11 48 10 78 28 113 70 139 34 21 44 22 133 16 53 -4
118 -9 144 -12 26 -3 63 -1 83 6 65 21 145 122 160 200 4 19 16 63 27 97 19
59 24 64 72 87 50 25 42 37 -9 14 -14 -6 -28 -8 -32 -5 -9 9 27 47 44 47 7 0
18 11 23 25 6 15 20 27 37 31 65 14 143 60 143 85 0 6 -87 -24 -162 -56 -21
-8 -24 5 -5 25 6 7 -4 3 -24 -8 -44 -26 -99 -31 -79 -7 11 13 7 13 -26 -1 -33
-14 -48 -15 -99 -5 -125 23 -157 23 -224 2 -165 -54 -213 -124 -233 -336 -6
-60 -15 -116 -20 -122 -14 -17 -28 -16 -28 1 0 7 -7 46 -16 86 -14 62 -23 79
-59 114 -23 22 -49 46 -58 53 -9 7 -18 35 -22 70 -9 80 -32 129 -79 166 -51
41 -99 62 -173 77 -88 17 -90 18 -104 52 -7 18 -35 58 -62 91 -27 32 -45 62
-41 67 12 11 158 56 219 68 68 14 235 4 257 -15 37 -32 92 -34 214 -8 l116 25
46 -41 c95 -83 200 -113 285 -80 15 6 64 14 109 17 61 5 76 9 59 16 -13 4 -26
6 -31 3 -16 -10 -196 -7 -222 4 -31 12 -37 31 -10 31 30 1 98 37 141 75 23 21
73 79 111 130 38 51 81 102 95 113 15 12 66 34 113 49 95 30 107 36 98 52 -5
7 -15 7 -34 0 -14 -6 -57 -17 -93 -24 -82 -17 -107 -11 -197 48 -91 61 -164
81 -265 74 -65 -4 -77 -3 -66 8 8 7 36 18 63 24 27 7 61 20 75 30 14 10 36 21
48 25 22 7 52 36 37 36 -5 0 -31 -11 -58 -25 -27 -14 -61 -25 -75 -25 -14 -1
-37 -7 -51 -15 -14 -8 -38 -15 -55 -15 -32 0 -145 -29 -210 -53 -22 -8 -53
-18 -70 -21 -41 -10 -25 4 50 45 119 64 167 109 221 210 15 27 30 49 34 49 4
0 25 18 46 40 24 25 58 46 89 56 65 22 105 42 105 54 0 17 -36 11 -107 -15
-113 -43 -212 -18 -345 86 -26 21 -61 40 -78 44 -48 10 -44 21 18 46 31 12 74
34 96 48 21 14 56 36 78 48 35 20 76 53 66 53 -2 0 -21 -9 -42 -20 -22 -10
-43 -17 -47 -14 -5 3 -9 1 -9 -4 0 -13 -124 -67 -185 -81 -27 -6 -86 -18 -129
-26 -143 -27 -230 -103 -268 -232 -12 -40 -27 -73 -33 -73 -13 0 -226 -105
-246 -122 -8 -7 -24 -28 -35 -46 -14 -24 -43 -46 -104 -78 -47 -24 -127 -75
-177 -114 -51 -39 -93 -66 -93 -61 0 5 33 74 74 153 133 256 116 232 170 240
84 12 136 69 228 251 22 45 43 84 45 86 2 3 26 -3 54 -13 61 -22 146 -16 195
15 33 20 88 83 110 124 6 11 15 29 21 40 6 11 28 54 48 95 51 102 85 149 152
210 l58 52 -60 -27 c-77 -34 -95 -51 -171 -166 -35 -53 -71 -102 -80 -110 -16
-13 -17 -11 -9 21 13 50 12 127 -3 265 -8 78 -9 137 -4 167 9 45 71 161 113
209 10 12 19 29 19 38 0 17 -48 -30 -127 -126 -58 -69 -91 -82 -234 -94 -170
-14 -255 -56 -336 -164 -21 -29 -22 -29 -23 -7 0 42 35 96 125 192 54 58 75
98 82 160 6 51 -4 140 -15 140 -4 0 -6 -36 -4 -79z m-130 -273 c-75 -94 -73
-88 -73 -256 0 -83 -1 -152 -2 -152 -8 0 -38 73 -49 120 -35 145 -1 239 111
311 47 30 50 23 13 -23z m492 -5 c-1 -21 -5 -97 -10 -170 -8 -122 -11 -136
-46 -204 -20 -40 -56 -92 -79 -115 -48 -46 -146 -109 -186 -119 -30 -7 -70 10
-108 46 -20 18 -22 28 -17 63 11 65 66 161 138 241 15 16 25 31 23 34 -7 6
-70 -67 -109 -124 -28 -43 -47 -86 -62 -142 -2 -7 -9 -13 -15 -13 -8 0 -10 21
-6 73 8 120 96 271 205 351 40 29 233 114 265 116 4 0 7 -17 7 -37z m-170 3
c0 -2 -20 -14 -44 -26 -129 -62 -235 -197 -279 -355 l-14 -50 -13 30 c-7 17
-14 66 -14 110 -1 94 17 136 86 201 42 41 93 65 173 83 43 10 105 14 105 7z
m194 -262 c21 -54 -2 -168 -50 -245 -55 -89 -177 -148 -248 -120 -16 6 -9 13
39 40 91 51 149 113 195 204 22 45 40 94 40 109 0 30 14 38 24 12z m72 -217
c-42 -88 -114 -172 -159 -186 -54 -16 -111 -22 -127 -12 -11 8 -8 12 15 21 67
24 100 50 198 151 56 59 104 105 106 104 1 -2 -13 -37 -33 -78z m-1416 43 c0
-5 25 -36 56 -67 90 -93 128 -194 105 -279 -20 -73 -64 -105 -133 -97 -93 12
-137 155 -88 285 11 29 20 62 20 73 0 33 20 95 30 95 6 0 10 -4 10 -10z m870
-135 c40 -40 67 -59 98 -67 37 -9 42 -13 36 -32 -12 -37 -65 -139 -110 -209
-59 -91 -118 -116 -203 -86 -56 20 -66 73 -32 172 27 77 135 277 150 277 4 0
31 -25 61 -55z m785 -194 c48 -23 130 -95 100 -87 -94 24 -195 38 -237 33 -57
-7 -118 -27 -118 -39 0 -4 -6 -8 -12 -8 -7 0 -28 -14 -46 -31 -58 -54 -57 -25
2 38 97 105 214 140 311 94z m38 -95 c56 -13 131 -26 167 -30 35 -3 68 -10 73
-15 13 -13 -51 -92 -118 -143 -124 -96 -293 -168 -391 -168 -48 0 -125 27
-158 54 -18 16 -25 35 -30 76 l-6 55 68 66 c132 129 207 149 395 105z m-1526
-43 c4 -16 7 -56 8 -91 0 -61 -2 -65 -37 -98 -45 -40 -49 -41 -83 -11 -20 17
-31 43 -46 105 -10 46 -17 88 -13 93 3 5 22 9 42 10 20 0 46 4 57 9 40 17 64
12 72 -17z m510 -78 l22 -16 -48 -92 c-26 -51 -75 -144 -109 -207 -61 -116
-100 -216 -88 -227 3 -3 36 24 73 60 84 81 209 172 291 211 64 30 74 29 86 -9
5 -17 -5 -26 -61 -55 -148 -76 -254 -159 -330 -257 -27 -35 -60 -43 -70 -18
-3 9 -13 15 -22 14 -70 -6 -75 7 -35 97 14 33 31 73 38 89 38 89 213 425 221
425 6 0 20 -7 32 -15z m533 -70 c0 -24 9 -69 21 -100 12 -31 19 -58 16 -61 -2
-3 -44 -21 -93 -41 -117 -49 -196 -52 -227 -11 -18 24 -19 32 -9 66 16 53 57
88 165 143 120 61 127 61 127 4z m630 -21 c0 -19 -61 -79 -109 -108 -133 -81
-173 -96 -252 -96 -51 0 -87 6 -116 20 -24 10 -43 22 -43 25 0 3 28 3 63 -1
112 -11 241 31 382 125 59 39 75 47 75 35z m-544 -214 c19 -26 49 -48 88 -66
85 -38 161 -31 269 25 79 41 102 46 77 16 -7 -9 -14 -39 -14 -67 -1 -57 5 -52
-109 -87 -83 -26 -143 -63 -165 -102 -20 -34 -15 -33 -191 -54 -130 -15 -284
-60 -347 -101 -18 -13 -24 -12 -45 4 -57 45 -93 55 -206 62 -62 3 -118 11
-124 17 -13 13 16 63 37 63 8 0 32 -12 54 -26 36 -24 45 -26 104 -19 51 5 73
3 101 -11 20 -9 38 -14 42 -11 12 13 -21 37 -69 52 -61 18 -75 29 -93 72 -8
18 -21 33 -29 33 -35 0 -12 28 60 70 176 104 161 98 244 94 69 -4 82 -2 170
35 52 21 100 39 106 40 5 1 23 -17 40 -39z m875 -34 c61 -30 105 -63 95 -73
-3 -3 -52 8 -109 26 -99 31 -106 32 -172 20 -39 -7 -96 -26 -133 -46 -35 -19
-66 -32 -69 -30 -11 11 23 56 61 80 74 46 114 57 197 53 55 -3 90 -11 130 -30z
m9 -71 c66 -19 126 -35 135 -35 8 0 15 -4 15 -9 0 -15 -24 -29 -74 -42 -45
-11 -107 -58 -132 -99 -31 -51 -149 -109 -222 -110 -107 0 -155 42 -155 137 0
52 2 59 32 83 60 51 184 100 274 109 4 1 61 -15 127 -34z m-2467 -6 c24 -6 42
-19 49 -34 6 -14 15 -22 19 -19 13 8 128 -17 176 -37 68 -29 180 -150 266
-286 28 -44 61 -163 48 -175 -4 -4 -22 -3 -40 2 -19 5 -79 14 -135 21 -94 10
-105 9 -158 -10 -38 -15 -73 -39 -110 -75 -51 -51 -56 -54 -114 -58 -108 -7
-241 -93 -281 -180 -11 -24 -23 -72 -27 -108 -8 -71 -27 -110 -54 -110 -9 0
-28 -9 -42 -19 -22 -17 -24 -26 -22 -80 2 -56 0 -63 -31 -98 -18 -21 -44 -55
-56 -75 -12 -21 -27 -38 -32 -38 -24 0 -182 116 -213 156 -38 49 -60 123 -59
199 2 194 13 324 33 385 33 104 50 209 44 265 -5 44 -2 59 24 111 44 85 65
113 113 151 31 25 51 33 73 31 25 -3 32 -10 48 -53 12 -33 17 -40 14 -20 -3
17 -7 37 -10 45 -4 10 2 19 16 25 12 6 27 26 33 45 7 19 19 36 28 38 29 6 85
-36 92 -68 4 -17 11 -30 16 -30 6 0 6 8 -1 19 -14 28 -14 29 28 47 94 42 190
54 265 33z m2019 -141 c2 -42 11 -88 21 -107 9 -19 17 -37 17 -41 0 -12 -164
-50 -212 -50 -47 0 -105 25 -122 52 -12 20 16 87 53 124 29 29 121 74 154 75
12 0 31 4 42 9 39 17 43 12 47 -62z m526 9 c-114 -166 -186 -217 -301 -217
-69 0 -117 12 -117 30 0 6 27 10 63 10 87 0 153 33 231 115 89 93 176 137 124
62z m-1829 -100 c69 -36 96 -53 107 -67 10 -12 14 -12 28 -1 27 23 171 9 231
-22 79 -41 255 -212 255 -248 0 -5 -20 -9 -45 -9 -24 0 -89 -5 -144 -11 l-100
-11 -85 51 c-46 28 -103 58 -126 66 -77 27 -156 17 -204 -27 -11 -10 -24 -18
-28 -18 -10 0 -11 3 -33 82 -9 31 -34 83 -56 117 -40 58 -43 81 -13 81 8 0 14
4 14 9 0 31 144 36 199 8z m981 -31 c0 -24 -1 -24 -122 -28 -111 -4 -133 -8
-228 -41 -147 -53 -140 -51 -140 -35 0 18 116 72 199 94 31 8 97 18 146 23
148 14 145 14 145 -13z m-3066 -199 c35 -34 85 -95 111 -136 63 -97 115 -241
87 -241 -29 0 -102 34 -102 48 0 22 -52 111 -105 180 -32 42 -74 79 -150 130
-58 39 -112 73 -118 75 -26 10 12 28 74 36 81 9 116 -6 203 -92z m107 78 c53
-28 110 -96 173 -207 58 -104 116 -254 116 -302 0 -31 0 -31 -47 -6 -21 11
-44 20 -51 20 -7 0 -26 7 -42 15 -21 11 -30 23 -30 41 0 34 -44 143 -88 219
-38 65 -133 170 -188 207 -19 13 -34 27 -34 32 0 15 154 -1 191 -19z m164 -42
c58 -20 79 -37 114 -89 81 -119 131 -261 134 -383 1 -38 -1 -72 -5 -76 -3 -4
-22 1 -42 10 -28 14 -38 26 -47 59 -28 109 -44 156 -70 214 -33 75 -118 215
-154 256 -14 16 -25 31 -25 33 0 5 46 -7 95 -24z m-490 -41 c50 -32 117 -84
151 -115 82 -76 168 -217 132 -217 -47 0 -85 27 -195 137 -117 117 -212 183
-262 183 -34 0 -24 28 17 49 20 11 44 20 52 21 9 0 56 -26 105 -58z m-106 -56
c41 -19 94 -60 152 -114 128 -121 138 -146 47 -122 -36 9 -70 28 -113 64 -78
67 -155 120 -162 112 -7 -7 -12 -4 57 -47 64 -40 110 -78 110 -92 0 -12 -126
-2 -144 11 -6 4 -60 9 -121 11 -60 1 -135 6 -165 10 l-55 7 55 28 c52 27 58
28 108 18 29 -6 67 -18 84 -27 34 -16 52 -13 20 4 -23 12 -99 38 -127 43 -18
3 -17 6 10 31 18 16 41 27 59 27 23 0 26 3 17 14 -9 11 -5 19 19 40 37 30 53
29 149 -18z m2588 -28 c100 -49 178 -120 211 -189 28 -58 55 -190 41 -204 -6
-6 -34 -1 -78 14 -62 21 -71 27 -87 63 -40 89 -138 137 -257 124 -83 -9 -260
-70 -322 -110 -40 -27 -236 -126 -247 -126 -2 0 -3 46 -3 103 0 96 -2 106 -27
145 -16 23 -28 45 -28 50 0 15 75 80 117 101 23 12 61 21 85 21 53 0 225 -25
258 -38 32 -12 59 -2 75 28 7 13 32 34 56 47 58 32 96 26 206 -29z m544 -88
c88 -13 171 -52 213 -101 31 -37 35 -47 41 -130 7 -85 8 -89 31 -89 27 0 71
-40 85 -79 17 -44 59 -255 54 -276 -2 -11 -6 -32 -10 -47 -4 -19 -12 -28 -26
-28 -24 0 -94 -28 -87 -35 3 -3 18 1 34 10 16 8 39 15 52 15 40 0 34 -16 -86
-238 -37 -68 -75 -121 -123 -170 -38 -40 -74 -72 -79 -72 -15 0 -12 34 5 66 9
18 15 56 15 99 0 58 -5 81 -30 130 -16 33 -39 72 -51 86 -18 23 -21 44 -28
197 l-6 171 -35 36 c-46 48 -125 99 -180 118 l-45 15 -6 63 c-9 100 -27 152
-80 237 -7 12 -11 23 -9 26 11 10 198 21 240 13 25 -4 75 -12 111 -17z m-1374
-82 c44 -27 63 -71 63 -145 -1 -113 -12 -139 -84 -212 -75 -76 -175 -234 -226
-359 -26 -62 -42 -88 -67 -105 -53 -35 -68 -90 -68 -237 1 -150 20 -244 72
-345 53 -103 144 -226 221 -295 78 -72 246 -185 306 -207 22 -8 100 -19 173
-24 86 -5 152 -15 192 -29 65 -21 141 -26 171 -10 10 5 27 25 38 44 19 32 23
35 59 29 37 -5 161 -44 216 -66 31 -14 33 -25 12 -93 -8 -27 -18 -80 -21 -119
-10 -111 -68 -190 -179 -242 -75 -35 -170 -38 -258 -8 -58 19 -64 25 -188 157
-24 25 -56 49 -71 52 l-28 6 0 -60 c0 -52 -3 -60 -18 -60 -48 0 -150 102 -210
210 -115 208 -199 276 -357 295 -54 7 -151 37 -214 68 -35 17 -61 66 -61 114
0 68 5 73 73 73 49 0 71 -6 116 -31 77 -43 171 -121 220 -182 38 -46 134 -136
225 -211 84 -69 260 -159 349 -178 72 -15 238 -4 306 22 88 32 81 41 -10 13
-73 -21 -98 -24 -189 -20 -127 5 -181 23 -334 109 -103 59 -124 76 -304 257
-179 179 -197 200 -232 275 -57 119 -78 192 -90 303 -6 54 -15 139 -21 190
-14 111 -6 240 20 319 10 32 22 74 25 91 4 18 12 35 17 38 5 4 9 11 9 18 0 25
-20 -12 -49 -89 -36 -98 -55 -218 -48 -305 29 -368 30 -373 88 -515 22 -53 38
-99 35 -101 -10 -11 -60 27 -102 77 -114 138 -195 408 -179 595 8 96 32 209
53 250 8 17 32 51 54 76 35 42 38 50 38 107 0 64 4 70 55 87 37 13 51 41 65
140 14 99 41 143 118 192 103 66 161 77 219 41z m-1922 -19 c66 -11 121 -22
124 -25 24 -24 -147 -50 -228 -34 -51 10 -160 66 -161 84 0 11 114 0 265 -25z
m4105 5 c0 -4 -16 -23 -36 -42 -43 -42 -84 -124 -84 -169 0 -22 -8 -38 -26
-52 -37 -29 -44 -26 -37 17 15 113 58 191 127 233 31 19 56 25 56 13z m-3737
-44 c157 -26 358 -90 492 -156 61 -30 117 -60 126 -67 10 -7 19 -36 23 -71 l8
-59 -29 20 c-48 34 -59 37 -36 12 l22 -25 -25 -27 c-27 -29 -111 -92 -159
-119 -75 -41 -228 -88 -290 -88 -24 0 -105 30 -105 40 0 4 27 14 60 24 122 33
319 130 389 190 43 37 56 44 67 35 12 -9 13 -9 8 4 -3 9 -18 20 -34 26 -22 7
-28 7 -24 -2 14 -38 -219 -173 -396 -230 -94 -31 -130 -31 -190 1 -70 38 -74
52 -18 52 112 0 392 109 476 185 22 19 46 35 53 35 10 1 8 5 -5 15 -24 19 -36
19 -36 2 0 -21 -38 -51 -137 -106 -150 -84 -321 -132 -411 -115 -32 6 -102 57
-102 74 0 4 28 10 63 13 137 13 270 63 387 145 l72 51 54 -24 c30 -13 54 -22
54 -19 0 8 -146 73 -177 79 -25 5 -24 3 7 -11 l35 -16 -30 -24 c-121 -98 -301
-164 -446 -164 -40 0 -51 4 -73 31 -41 49 -35 59 35 59 75 0 153 20 245 61 67
31 143 78 144 90 0 3 -16 10 -35 16 -38 12 -45 7 -19 -12 14 -10 11 -15 -28
-38 -85 -50 -164 -78 -259 -94 -53 -9 -107 -13 -120 -10 -21 6 -69 61 -69 80
0 4 34 4 75 0 89 -7 178 13 269 61 33 17 68 29 78 28 41 -7 13 8 -62 33 -124
41 -108 45 73 15z m3575 -61 c-25 -49 -33 -80 -36 -134 -3 -66 -6 -72 -40
-102 -20 -18 -41 -33 -46 -33 -5 0 -6 37 -4 83 5 90 37 176 77 212 21 18 73
45 79 40 1 -1 -12 -31 -30 -66z m-1235 50 c47 -13 89 -56 107 -109 11 -34 18
-41 48 -46 77 -15 212 -198 263 -357 23 -72 28 -237 6 -219 -7 6 -19 28 -26
49 -13 34 -46 91 -149 253 -36 57 -185 210 -204 210 -5 0 -30 13 -54 30 -24
16 -63 34 -86 40 -24 7 -54 22 -68 35 -34 33 -74 48 -145 54 l-60 6 85 27 c47
15 94 29 105 31 39 9 140 7 178 -4z m-2428 -13 c17 -12 15 -15 -27 -39 -24
-15 -86 -36 -137 -48 -81 -19 -99 -20 -146 -10 -42 9 -59 20 -79 46 -14 18
-26 35 -26 37 0 2 44 2 97 0 63 -2 116 2 148 11 66 19 146 20 170 3z m2206
-108 c49 -27 60 -61 31 -91 -18 -17 -32 -20 -104 -19 -46 0 -112 3 -148 6
l-65 5 60 -12 c47 -9 61 -16 63 -32 2 -11 8 -24 13 -29 17 -18 9 -26 -23 -27
-56 -1 -93 -21 -93 -49 0 -20 9 -29 44 -46 24 -12 50 -30 58 -40 14 -19 9 -52
-11 -69 -6 -5 -33 -37 -61 -70 -112 -134 -248 -272 -289 -295 -26 -13 -28 -12
-88 48 -59 60 -128 102 -168 102 -11 0 -20 6 -20 14 0 25 60 159 87 195 15 20
40 61 54 92 15 30 38 67 51 80 124 121 214 178 363 230 103 36 190 38 246 7z
m1845 -20 c-3 -13 -6 -26 -6 -29 0 -4 -21 -17 -47 -29 -54 -25 -223 -42 -223
-22 0 24 66 60 123 67 32 4 75 13 95 20 55 20 65 19 58 -7z m-1693 -49 c94
-48 247 -169 247 -196 0 -8 -4 -13 -8 -11 -4 2 -41 19 -82 39 -41 21 -109 52
-150 70 -103 45 -102 44 -83 85 9 19 21 34 25 34 5 0 28 -10 51 -21z m502 -61
c67 -40 76 -47 108 -89 26 -34 27 -43 29 -150 4 -297 5 -279 -26 -344 -17 -33
-38 -69 -48 -79 -10 -11 -18 -23 -18 -28 0 -4 -7 -8 -16 -8 -15 0 -16 10 -10
78 18 220 18 267 2 336 -23 98 -62 181 -118 252 -26 34 -48 65 -48 69 0 15 99
-9 145 -37z m1158 25 c2 -5 0 -22 -4 -39 -9 -33 -43 -52 -124 -74 -56 -14
-222 -13 -231 2 -4 6 10 27 34 50 l41 38 93 1 c51 0 111 6 133 14 50 16 53 17
58 8z m-1676 -84 c263 -125 328 -163 340 -198 4 -9 17 -33 30 -53 34 -55 73
-183 73 -239 0 -68 -16 -61 -29 12 -18 105 -83 189 -178 231 -24 11 -85 24
-136 29 -138 14 -185 34 -284 117 -49 41 -67 72 -43 72 6 0 10 9 10 19 0 11
-4 23 -10 26 -23 14 -6 24 48 28 31 2 60 4 64 5 3 1 55 -21 115 -49z m1623
-43 c0 -21 -56 -64 -101 -77 -32 -10 -57 -9 -137 4 -53 10 -107 17 -119 17
-27 0 -29 7 -7 31 15 16 29 18 123 13 72 -3 125 0 166 9 33 8 63 15 68 16 4 0
7 -5 7 -13z m-3220 -26 c0 -4 -24 -26 -52 -48 -29 -22 -73 -59 -98 -82 -70
-65 -131 -90 -222 -90 -42 0 -79 4 -83 9 -3 5 21 17 52 26 100 27 180 65 266
125 46 32 89 66 96 74 11 12 17 14 27 5 8 -6 14 -15 14 -19z m1334 5 c48 -73
188 -162 277 -176 57 -8 68 -14 102 -52 38 -43 77 -115 77 -142 0 -18 -2 -18
-49 -6 -20 5 -61 15 -91 21 -49 10 -59 17 -92 60 -28 37 -50 53 -91 69 -31 11
-67 31 -81 46 -14 14 -30 25 -36 25 -5 0 -10 18 -10 39 0 29 -7 47 -29 70 -16
17 -36 31 -44 31 -26 0 -30 20 -5 29 38 16 55 12 72 -14z m2146 10 c0 -2 -15
-12 -32 -21 -77 -39 -174 -113 -232 -175 l-61 -66 -67 -6 c-72 -5 -78 2 -25
30 18 9 55 36 82 61 91 82 262 182 313 182 12 0 22 -2 22 -5z m76 -18 c-77
-50 -185 -138 -228 -188 -49 -55 -56 -59 -95 -59 -24 0 -43 3 -43 6 0 12 50
65 112 117 79 68 203 137 243 136 27 0 28 -1 11 -12z m132 -21 c11 -10 5 -16
-30 -31 -109 -46 -136 -63 -204 -127 -61 -58 -76 -68 -108 -68 -20 0 -36 4
-36 9 0 11 128 132 183 173 89 65 158 81 195 44z m-3602 -83 c38 -38 98 -85
133 -106 l64 -38 -7 -47 c-15 -113 -18 -262 -6 -326 30 -163 94 -319 176 -433
16 -22 16 -23 -12 -23 -16 -1 -45 -9 -64 -18 l-35 -18 3 -67 c3 -76 28 -127
72 -148 55 -26 148 -62 192 -74 39 -11 137 -80 178 -126 3 -3 22 -18 43 -33
20 -16 37 -34 37 -41 0 -13 -93 -97 -141 -127 -52 -33 -104 -42 -156 -27 -52
14 -103 60 -236 212 -38 42 -85 86 -105 96 -91 45 -220 52 -311 15 -49 -19
-81 -9 -100 33 -10 22 -8 30 25 70 20 24 50 57 68 73 17 17 27 30 23 30 -5 0
-38 -29 -75 -65 -36 -36 -72 -65 -79 -65 -41 0 -83 31 -108 79 -25 50 -25 51
-6 70 11 11 31 27 46 37 14 9 23 19 21 22 -3 3 -24 -7 -47 -22 l-41 -28 -27
26 c-42 41 -89 126 -107 196 -18 71 -15 160 11 304 14 80 37 126 153 306 51
79 310 330 341 330 4 0 39 -30 77 -67z m3719 33 c44 -27 43 -28 -46 -46 -66
-13 -167 -59 -219 -100 -37 -29 -110 -43 -110 -21 0 21 121 117 185 146 117
54 132 56 190 21z m99 -77 c14 -11 26 -24 26 -28 0 -4 -29 -8 -65 -9 -63 -2
-146 -27 -209 -62 -30 -17 -106 -17 -106 0 0 20 105 80 185 105 65 21 138 18
169 -6z m-4598 -24 c-4 -11 1 -15 19 -15 32 0 208 -51 216 -62 3 -5 42 -4 90
1 46 5 86 7 89 5 8 -8 -23 -23 -60 -30 -44 -7 -258 -79 -325 -109 -27 -12 -61
-26 -75 -30 -39 -11 67 54 140 87 113 51 130 59 130 62 0 8 -95 -8 -98 -16 -8
-18 -110 -56 -162 -60 -31 -2 -71 -12 -89 -21 -44 -22 -51 -21 -51 6 0 28 9
41 38 56 35 18 173 42 204 35 19 -4 28 -2 28 7 0 8 -19 10 -72 6 -81 -7 -137
-15 -155 -22 -24 -8 -13 17 21 51 24 24 43 34 65 34 21 0 31 5 31 15 0 8 5 15
11 15 6 0 9 -7 5 -15z m2044 -10 c43 -22 43 -57 0 -121 -58 -87 -39 -142 45
-130 40 5 49 3 71 -19 13 -13 24 -36 24 -50 0 -21 -5 -25 -29 -25 -16 0 -34
-7 -41 -15 -18 -22 -37 -18 -57 11 -9 14 -44 39 -77 56 -54 26 -68 29 -121 24
-33 -4 -72 -9 -87 -12 -16 -4 -28 -2 -28 3 0 5 48 61 108 125 59 63 117 126
129 141 27 32 25 31 63 12z m475 -30 c28 -13 57 -30 65 -37 45 -37 108 -157
95 -179 -4 -5 -15 -4 -28 3 -12 6 -46 16 -77 22 -52 10 -55 13 -61 46 -9 49
-25 86 -54 124 -14 18 -25 36 -25 39 0 14 36 6 85 -18z m1843 -79 c40 -8 130
-20 200 -26 70 -7 131 -15 135 -19 22 -22 -198 -21 -368 1 -89 11 -313 14
-674 9 -57 -1 -130 -8 -163 -16 -32 -9 -63 -13 -67 -10 -5 3 -17 2 -26 -1 -12
-5 -2 -16 42 -45 32 -21 80 -59 107 -84 26 -25 53 -45 60 -45 6 0 5 4 -3 9
-27 17 1 31 62 30 34 -1 72 -4 85 -7 20 -6 106 -102 98 -110 -2 -2 -32 7 -66
18 -35 12 -83 22 -107 24 -25 1 -49 9 -54 17 -5 8 -9 10 -9 4 0 -5 34 -50 75
-98 75 -89 152 -204 142 -213 -3 -3 -38 34 -77 83 -40 48 -114 129 -165 178
-51 50 -104 107 -119 128 -16 21 -48 48 -72 60 -24 11 -44 25 -44 30 0 21 36
68 55 72 11 2 87 9 170 15 82 6 152 14 155 17 3 3 129 3 280 0 195 -4 296 -10
348 -21z m-4028 -30 c0 -8 -4 -18 -10 -21 -5 -3 -26 -31 -47 -62 -53 -81 -207
-203 -255 -203 -8 0 -24 7 -37 16 l-23 16 63 32 c74 36 183 134 207 185 16 33
40 47 85 50 9 1 17 -5 17 -13z m3470 -31 c5 -3 10 -12 10 -19 0 -8 22 -47 48
-87 52 -80 148 -174 212 -211 43 -25 53 -43 18 -33 -51 15 -183 92 -215 125
-19 19 -50 62 -70 95 -20 33 -49 75 -64 94 -16 19 -26 38 -23 43 6 9 66 4 84
-7z m157 -35 c35 -68 216 -240 283 -270 69 -30 67 -29 50 -40 -34 -21 -109
-11 -180 25 -91 46 -217 169 -260 256 -37 71 -32 81 39 77 42 -3 46 -6 68 -48z
m146 -7 c34 -31 68 -63 76 -71 30 -29 159 -110 211 -131 30 -13 58 -26 63 -30
4 -4 -15 -18 -42 -31 -49 -22 -50 -23 -103 -5 -71 23 -108 46 -201 128 -80 71
-154 167 -142 186 3 6 22 11 41 11 28 0 46 -11 97 -57z m-3901 30 c-5 -9 -36
-43 -68 -75 -72 -72 -173 -126 -212 -112 -37 13 -36 27 1 47 18 10 52 36 75
57 45 43 86 67 147 86 57 18 68 17 57 -3z m4075 -32 c65 -58 142 -101 236
-132 37 -12 67 -26 67 -30 0 -10 -74 -49 -93 -49 -27 0 -157 59 -214 97 -32
21 -87 66 -123 100 l-65 62 68 1 c68 0 69 0 124 -49z m501 2 c-50 -48 -51 -48
-112 -45 -68 3 -200 38 -216 57 -7 9 9 11 68 8 59 -3 233 12 304 26 4 0 -16
-20 -44 -46z m-1076 -3 c22 -22 38 -45 36 -52 -6 -17 -154 -11 -188 8 -42 23
-75 52 -67 60 10 10 74 22 131 23 44 1 52 -3 88 -39z m703 10 c59 -34 189 -70
253 -70 23 0 42 -4 42 -9 0 -19 -67 -61 -96 -61 -73 0 -223 66 -294 129 l-45
40 44 1 c31 0 59 -9 96 -30z m-2043 -1 c29 -6 77 -19 106 -30 29 -10 69 -19
90 -19 70 -1 215 -101 252 -174 18 -38 19 -41 2 -59 -35 -40 -134 -70 -195
-60 -31 5 -42 13 -57 42 -30 59 -100 119 -163 141 -55 20 -137 29 -166 20 -11
-4 -17 7 -22 39 -5 24 -13 49 -19 56 -12 15 5 32 47 45 39 12 64 12 125 -1z
m664 -44 c40 -92 27 -188 -42 -315 -23 -42 -144 -170 -161 -170 -3 0 -2 21 2
46 5 39 16 55 64 102 60 59 76 97 60 139 -11 30 -32 38 -59 23 -36 -19 -35 -4
4 54 42 64 75 133 76 159 0 37 32 16 56 -38z m-1599 20 c48 -24 109 -81 145
-137 17 -26 42 -105 53 -172 4 -25 19 -51 42 -75 l35 -36 19 24 c10 13 19 29
19 36 0 20 27 37 49 30 13 -4 22 -18 26 -45 l7 -39 48 6 c112 13 145 -21 170
-173 13 -79 18 -86 142 -183 111 -86 173 -173 173 -242 0 -88 -76 -96 -283
-28 -19 6 -59 8 -96 4 -85 -9 -157 12 -266 78 -131 78 -249 185 -328 295 -57
79 -118 212 -132 286 -20 106 -19 293 2 339 28 62 91 73 175 32z m1961 -19
c39 -20 71 -59 135 -161 123 -199 162 -315 139 -416 -11 -47 -10 -55 8 -83 41
-64 44 -74 32 -101 -7 -14 -26 -34 -43 -43 -61 -33 -69 -45 -76 -102 -6 -55
-25 -90 -49 -90 -6 0 -36 -27 -65 -61 -35 -41 -72 -70 -113 -91 -34 -17 -76
-43 -95 -57 -31 -23 -42 -26 -105 -23 -75 3 -141 27 -141 52 0 17 76 49 120
50 58 1 190 97 222 161 28 57 42 98 52 154 25 137 -44 452 -115 526 -14 15
-47 33 -72 40 -26 6 -49 14 -51 15 -2 2 14 27 37 56 22 29 54 79 71 111 17 32
33 62 36 68 9 13 42 11 73 -5z m-1419 -80 c26 -14 58 -40 71 -59 21 -31 27
-34 49 -25 14 5 34 17 43 25 16 15 20 15 36 -1 18 -15 22 -15 65 1 69 26 153
7 227 -51 95 -74 113 -136 40 -136 -24 0 -30 -6 -40 -35 -15 -47 -33 -54 -111
-48 -56 5 -72 2 -114 -20 -28 -14 -74 -50 -103 -80 -47 -50 -53 -54 -62 -37
-5 10 -10 28 -10 40 0 30 -25 86 -53 116 -20 22 -36 27 -90 31 -58 5 -66 8
-71 29 -9 35 -34 54 -72 54 -29 0 -38 -6 -55 -35 -35 -59 -51 -44 -72 70 -15
78 -15 81 6 102 23 26 94 62 141 74 64 15 125 10 175 -15z m1805 -96 c109 -31
196 -103 196 -163 0 -29 -17 -37 -26 -12 -9 22 -117 91 -173 110 -28 9 -61 30
-79 49 -32 36 -32 50 1 40 10 -3 47 -14 81 -24z m-844 -41 c0 -25 -43 -86 -76
-108 -44 -31 -48 -37 -73 -143 -30 -128 -67 -193 -154 -274 -78 -73 -199 -144
-246 -144 -20 0 -36 13 -68 55 -23 30 -80 84 -127 121 -47 36 -87 73 -91 81
-7 19 13 51 69 107 63 65 98 80 181 78 105 -2 122 3 136 45 10 31 14 34 40 31
18 -3 29 0 29 8 0 17 24 24 82 24 81 0 151 27 211 81 50 46 87 62 87 38z m320
-74 c59 -30 119 -218 127 -397 5 -110 4 -123 -22 -195 -31 -89 -71 -138 -151
-184 -28 -16 -66 -29 -83 -29 -41 0 -144 -43 -203 -85 -72 -52 -122 -74 -184
-81 l-57 -7 5 29 c3 16 11 57 19 92 16 74 8 93 -42 106 -19 4 -56 16 -84 26
-27 10 -76 23 -107 30 -54 11 -88 30 -88 49 0 5 28 19 63 32 119 44 267 173
321 281 32 63 233 267 314 319 53 33 123 39 172 14z m497 -77 c17 -18 39 -58
48 -88 10 -30 28 -76 41 -102 13 -26 24 -51 24 -56 0 -4 -16 -6 -36 -4 -32 4
-38 9 -60 60 -13 30 -31 85 -39 121 -9 36 -18 74 -21 84 -8 26 9 20 43 -15z
m423 -528 c-14 -11 -31 -20 -37 -20 -7 0 -13 -5 -13 -10 0 -7 6 -7 18 -1 9 5
38 16 64 25 40 13 52 14 85 2 21 -8 37 -19 36 -25 -2 -7 13 -11 38 -11 43 0
83 -16 74 -29 -2 -5 -18 -11 -34 -14 -31 -7 -118 -56 -164 -94 -22 -18 -41
-23 -84 -23 -45 0 -54 3 -49 15 7 19 -1 19 -21 0 -11 -11 -25 -14 -51 -9 -29
5 -34 4 -26 -6 7 -7 58 -14 128 -17 64 -3 119 -10 122 -15 3 -4 -4 -8 -15 -8
-11 0 -23 -5 -26 -11 -5 -7 3 -10 21 -8 29 3 144 -8 177 -17 24 -7 21 -21 -9
-40 -24 -16 -30 -16 -95 1 -38 10 -72 15 -75 12 -7 -7 84 -37 113 -37 29 0 29
-17 1 -47 -25 -27 -57 -29 -122 -7 -72 25 -65 11 9 -17 36 -13 65 -27 65 -30
0 -3 -11 -16 -25 -29 l-25 -24 -52 19 c-29 10 -70 29 -93 42 -22 12 -44 23
-50 23 -14 0 72 -53 123 -75 23 -10 42 -23 42 -28 0 -11 -15 -7 -85 21 -27 11
-95 28 -150 37 -55 10 -105 22 -112 27 -7 5 -25 33 -41 61 -17 29 -42 66 -56
82 -14 17 -26 36 -26 43 0 6 -11 12 -24 12 -12 0 -37 5 -54 11 -62 21 -232
-35 -310 -102 -18 -16 -37 -29 -42 -29 -36 0 50 -80 135 -126 18 -9 73 -46
145 -97 14 -9 72 -48 130 -86 126 -82 267 -200 370 -308 151 -158 176 -200 55
-90 -180 162 -208 181 -550 387 -75 45 -129 86 -174 134 -36 38 -84 82 -105
97 -37 27 -40 28 -58 13 -10 -10 -18 -21 -18 -25 0 -4 -14 -30 -31 -58 -24
-38 -32 -65 -36 -114 -7 -83 7 -104 98 -152 39 -20 85 -50 103 -65 31 -27 66
-103 54 -116 -4 -3 -39 27 -80 66 -79 78 -142 125 -173 131 -10 2 -22 15 -25
29 -4 16 -9 -3 -13 -54 -10 -111 -9 -246 2 -246 5 0 8 23 7 51 0 29 4 53 9 55
12 5 152 -109 192 -156 62 -73 122 -183 148 -269 7 -23 -12 -101 -25 -101 -3
0 -18 26 -34 57 -24 50 -48 91 -91 152 -22 33 -194 201 -204 201 -7 0 -9 -17
-6 -52 16 -153 35 -317 41 -347 5 -23 4 -32 -3 -28 -13 8 -58 189 -78 317 -9
52 -19 170 -22 262 -6 167 -6 168 19 206 14 21 31 62 37 92 7 34 27 77 52 112
33 48 38 61 29 77 -9 17 -6 23 20 36 16 8 46 27 67 41 21 14 51 32 68 40 16 8
53 31 80 52 56 41 139 77 202 87 42 7 117 -5 203 -30 60 -18 120 -26 120 -16
0 9 -29 20 -65 26 -106 16 -157 30 -144 38 2 1 24 18 48 36 54 42 175 93 204
86 12 -3 40 1 62 9 22 9 56 15 75 15 l35 1 -25 -20z m-3815 -20 c10 -11 27
-23 39 -26 11 -4 35 -17 51 -30 39 -29 129 -134 122 -141 -13 -12 -101 29
-131 60 -31 33 -98 81 -148 106 -16 8 -28 18 -28 22 0 7 45 27 66 28 6 1 19
-8 29 -19z m414 -127 c20 -21 47 -51 59 -68 12 -16 22 -25 22 -18 0 6 -18 34
-40 62 -22 27 -36 52 -32 54 16 9 70 -15 109 -48 34 -29 46 -49 69 -119 23
-73 32 -87 61 -103 18 -9 33 -20 33 -24 0 -3 -21 -5 -48 -5 -42 1 -59 -6 -146
-63 -91 -59 -104 -64 -166 -69 -58 -4 -71 -1 -103 19 -20 13 -37 27 -37 32 0
4 25 7 55 7 61 0 225 35 240 52 12 12 -9 9 -100 -16 -33 -9 -97 -17 -142 -18
-72 -1 -85 2 -112 23 -51 41 -47 49 22 49 35 0 90 7 122 16 69 18 115 20 141
6 11 -5 37 -12 59 -16 l40 -7 -51 25 c-28 13 -66 27 -85 31 -19 4 -65 22 -104
40 -110 52 -158 72 -180 78 -16 4 -15 5 6 6 32 1 335 -88 420 -125 34 -14 64
-23 66 -20 3 3 -7 10 -23 16 -60 23 -169 73 -179 81 -5 5 -19 9 -30 9 -63 0
-178 71 -160 99 3 5 24 12 47 16 40 7 44 5 76 -31 l35 -39 -28 38 c-32 45 -24
57 39 66 4 0 25 -16 45 -36z m3961 -7 c0 -8 -43 -79 -80 -131 -68 -98 -105
-136 -171 -180 -68 -44 -190 -92 -208 -80 -10 6 89 130 189 237 41 43 80 71
150 107 88 45 120 57 120 47z m-4440 -71 c30 -8 80 -16 111 -19 30 -2 73 -12
95 -21 36 -15 38 -17 19 -28 -11 -6 -52 -11 -91 -11 -64 0 -79 4 -150 41 -77
40 -112 73 -63 59 13 -4 49 -13 79 -21z m-245 -18 c86 -26 264 -161 330 -250
31 -42 48 -43 20 -1 -37 57 -103 119 -194 182 -52 36 -89 68 -83 70 15 5 139
-45 177 -72 17 -11 74 -62 128 -113 119 -112 151 -137 197 -152 19 -6 71 -22
115 -37 70 -23 91 -26 175 -21 113 6 171 31 238 101 49 54 53 70 15 62 -21 -4
-36 2 -62 24 l-34 29 37 -10 c20 -6 45 -8 55 -4 10 3 38 -4 62 -15 24 -11 56
-20 72 -20 15 0 27 -2 27 -4 0 -2 -11 -24 -25 -49 -21 -37 -24 -49 -15 -71 5
-15 10 -36 10 -48 0 -11 16 -56 36 -101 36 -82 58 -119 47 -78 -8 33 20 26 59
-13 18 -19 58 -59 88 -90 53 -53 63 -79 22 -57 -11 6 -43 16 -70 21 -44 10
-51 15 -67 51 -32 71 -36 53 -6 -28 64 -172 78 -205 163 -373 130 -257 39
-138 -118 155 -105 197 -137 274 -175 425 -18 69 -34 140 -37 158 -2 17 -6 32
-8 32 -2 0 -41 -39 -88 -86 -94 -95 -104 -119 -91 -222 11 -90 55 -294 70
-322 8 -14 53 -59 101 -100 132 -113 199 -178 193 -184 -3 -3 -15 3 -26 14
-39 36 -134 91 -189 110 -79 28 -87 34 -105 87 -26 72 -21 20 6 -72 16 -53 23
-68 22 -45 -3 44 8 43 113 -8 167 -80 289 -212 330 -358 31 -107 23 -116 -23
-29 -71 136 -237 281 -376 330 l-43 15 5 -33 c27 -157 66 -592 73 -817 5 -163
-8 -145 -25 35 -12 117 -66 449 -78 467 -2 4 -12 49 -23 100 -51 256 -71 353
-75 357 -10 9 -5 -53 7 -90 l11 -39 -64 -69 c-35 -38 -68 -75 -74 -82 -5 -8
-22 -30 -36 -49 -14 -19 -29 -44 -33 -54 -10 -30 -23 -7 -30 54 -5 54 -5 56
46 124 28 38 73 84 100 104 52 37 59 53 11 28 -32 -17 -133 -113 -133 -127 0
-5 -7 -9 -16 -9 -26 0 20 67 114 165 82 86 84 88 98 162 17 91 18 276 2 355
-7 32 -15 58 -18 58 -9 0 -182 -179 -255 -264 -104 -121 -111 -154 -64 -285
39 -109 89 -327 95 -411 5 -75 3 -95 -21 -169 -28 -86 -50 -131 -66 -131 -5 0
-9 45 -9 99 0 171 -39 335 -122 511 -38 80 -48 112 -43 135 l5 30 -25 -30
c-63 -76 -207 -276 -301 -419 -25 -38 -68 -112 -96 -165 -28 -53 -60 -112 -73
-131 -43 -66 -140 -235 -155 -270 -12 -28 -128 -263 -138 -279 -1 -2 -5 -1 -9
2 -10 10 72 274 119 387 133 314 224 477 357 636 14 17 48 62 76 100 48 67
111 141 148 173 28 25 75 89 52 71 -11 -8 -27 -23 -35 -33 -14 -16 -22 -17
-90 -6 -113 17 -294 6 -410 -26 -52 -15 -106 -29 -120 -32 l-25 -6 25 19 c75
57 215 107 362 130 142 22 322 62 388 86 111 40 230 137 329 268 l57 75 -94
24 c-99 25 -242 38 -287 27 -19 -5 -32 -19 -47 -54 -84 -197 -147 -293 -221
-336 -49 -29 -115 -46 -103 -28 11 19 -3 14 -37 -12 -32 -23 -124 -52 -135
-41 -3 3 17 27 44 53 91 89 147 163 199 265 28 56 54 112 57 125 4 14 14 22
30 23 12 0 32 5 43 10 13 6 -25 8 -110 5 -146 -5 -287 -36 -452 -100 -59 -23
-143 -45 -239 -61 -81 -14 -150 -28 -153 -30 -8 -8 54 -5 109 5 94 18 74 -10
-30 -42 -45 -13 -49 -17 -25 -17 17 -1 68 18 115 40 149 73 228 82 147 17 -36
-28 -106 -68 -120 -68 -5 0 -21 -9 -37 -20 -40 -29 -130 -37 -164 -15 -14 9
-26 24 -26 31 0 8 -10 14 -23 14 -26 0 -52 17 -60 41 -5 14 5 19 56 27 188 32
304 61 385 98 34 16 107 44 248 94 45 16 135 37 205 47 77 11 111 19 89 21
-27 3 -49 17 -96 63 -58 58 -139 119 -157 119 -5 0 17 -21 50 -47 69 -55 133
-114 133 -124 0 -3 -27 -12 -60 -19 -58 -12 -62 -12 -81 9 -11 11 -25 21 -31
21 -6 0 -3 -9 8 -21 22 -24 12 -34 -48 -43 -31 -5 -45 -2 -71 17 -47 35 -116
65 -172 76 -28 5 -58 12 -67 15 -10 3 -25 8 -35 11 -14 5 -12 10 13 36 28 30
31 31 100 26 45 -3 87 -13 114 -27 23 -12 44 -19 47 -17 9 10 -105 57 -154 63
-29 4 -53 11 -53 16 0 5 13 23 29 39 38 37 93 39 188 4 37 -13 69 -23 70 -21
8 7 -126 56 -154 56 -69 0 -46 32 44 60 70 23 77 23 128 7z m3696 -42 c31 -30
89 -121 89 -141 0 -14 -158 -36 -255 -36 -78 0 -121 15 -175 61 -29 24 -33 33
-24 47 18 30 55 53 129 79 99 36 191 32 236 -10z m-2121 -15 c10 -5 33 -36 51
-67 52 -92 188 -223 230 -223 24 0 49 33 49 66 0 64 16 55 108 -54 88 -106
258 -151 388 -103 87 33 118 55 168 122 30 40 47 74 51 103 8 48 9 49 100 61
50 7 141 51 165 80 18 21 41 19 79 -9 19 -14 46 -28 62 -31 15 -4 33 -13 40
-21 19 -23 15 -180 -6 -231 -25 -63 -120 -145 -225 -196 -84 -40 -89 -44 -100
-84 -19 -66 -33 -72 -91 -39 -39 22 -53 25 -64 16 -8 -6 -19 -9 -25 -5 -7 4
-7 -2 -1 -18 5 -13 12 -48 16 -79 9 -70 -4 -98 -46 -98 -64 0 -129 -57 -129
-114 0 -70 -27 -99 -69 -77 -16 9 -21 7 -26 -9 -8 -24 -55 -27 -132 -6 -51 14
-252 114 -283 141 -8 7 -69 41 -135 75 -103 53 -130 72 -193 138 -115 120
-128 143 -151 257 -11 55 -23 135 -26 178 l-7 78 43 37 c24 20 62 56 84 79 44
46 48 47 75 33z m-993 -22 c29 -13 53 -26 53 -29 0 -3 -30 -14 -66 -24 -88
-24 -185 -17 -220 16 -13 12 -24 26 -24 31 0 4 24 9 53 9 28 1 66 5 82 9 50
13 68 11 122 -12z m451 -148 c47 -29 51 -49 17 -76 -71 -56 -210 -80 -307 -53
-46 12 -48 23 -8 39 16 7 64 34 107 61 88 56 135 63 191 29z m2285 -39 c50
-47 74 -86 86 -141 12 -53 3 -190 -12 -190 -6 0 -22 11 -36 24 -15 13 -57 41
-96 62 -38 20 -76 44 -82 52 -21 25 -15 93 13 152 46 100 60 104 127 41z
m-1959 -101 c9 -63 19 -125 22 -137 5 -17 2 -23 -11 -23 -32 0 -72 54 -94 128
l-22 71 25 40 c25 39 46 54 57 42 3 -3 13 -58 23 -121z m2643 111 c34 -5 86
-21 115 -35 l53 -25 -81 5 c-95 7 -209 -18 -313 -68 -63 -31 -64 -31 -95 -12
-38 22 -56 39 -56 53 0 16 121 70 180 80 74 12 123 12 197 2z m-4293 -22 c66
-13 206 -75 213 -95 2 -6 -19 -17 -47 -25 l-50 -16 -72 36 c-56 27 -89 36
-140 39 -38 3 -68 8 -68 13 0 5 12 23 27 40 18 20 34 29 48 26 11 -3 51 -11
89 -18z m4479 -73 c56 -15 101 -40 127 -71 16 -19 5 -19 -92 -3 -104 17 -250
-11 -351 -68 -27 -15 -29 -14 -77 22 -28 21 -50 41 -50 45 0 4 28 21 63 37 54
25 86 36 172 56 33 8 146 -2 208 -18z m-4465 -32 c40 -15 71 -31 69 -37 -1 -5
-25 -18 -52 -28 -47 -19 -54 -19 -114 -4 -44 11 -82 14 -124 9 l-60 -7 20 29
c52 72 61 77 127 71 34 -3 94 -18 134 -33z m1468 -90 c13 -49 24 -103 24 -121
0 -18 -20 -79 -45 -136 -25 -58 -47 -121 -48 -142 -4 -51 -23 -56 -36 -8 -16
62 -41 183 -51 256 -16 106 -7 137 58 202 32 32 59 52 64 47 5 -5 20 -49 34
-98z m2337 43 c66 -45 62 -21 37 -202 -17 -122 -7 -328 20 -415 26 -86 26 -99
-1 -74 -34 30 -94 124 -117 184 -36 93 -45 171 -35 320 4 74 7 159 5 187 -4
62 -1 62 91 0z m-3283 -2 c0 -32 -96 -213 -151 -286 -108 -143 -213 -213 -299
-200 l-45 6 30 19 c103 64 138 92 211 164 63 63 90 100 127 172 26 50 47 99
47 109 0 25 9 31 47 31 22 0 33 -5 33 -15z m-100 -7 c0 -25 -41 -121 -74 -172
-69 -107 -264 -269 -353 -292 -24 -6 -113 29 -113 45 0 6 -7 11 -15 11 -26 0
-75 30 -75 45 0 8 9 15 19 15 11 0 51 16 89 35 38 19 80 39 93 44 47 17 128
91 188 170 51 67 67 81 97 87 19 3 38 4 41 1 10 -11 -89 -159 -136 -203 -73
-69 -153 -129 -191 -144 -19 -7 -39 -17 -44 -22 -6 -4 -18 -8 -28 -8 -10 0
-18 -5 -18 -11 0 -7 7 -8 18 -4 9 4 31 12 47 17 85 30 278 192 315 264 26 50
63 109 79 122 8 6 25 12 38 12 13 0 23 -6 23 -12z m540 -9 c99 -15 140 -28
140 -44 0 -19 -163 -190 -214 -224 -51 -34 -132 -67 -227 -92 -114 -29 -120
-26 -66 27 40 39 117 150 117 168 0 14 73 161 83 168 17 11 91 10 167 -3z
m3643 -19 c40 -16 60 -31 90 -71 20 -28 37 -59 37 -69 0 -17 -5 -16 -72 5
-135 41 -251 41 -365 -1 l-43 -16 -50 43 c-27 23 -50 46 -50 51 0 14 108 57
205 82 41 10 197 -5 248 -24z m-4714 -1 c34 -12 42 -29 13 -29 -10 0 -45 -8
-78 -19 -69 -22 -252 -57 -259 -49 -3 2 25 25 63 51 67 46 82 50 193 55 20 1
50 -3 68 -9z m301 -14 c0 -11 -50 -84 -81 -120 -43 -48 -145 -114 -223 -142
-113 -41 -124 -42 -151 -21 -38 29 -31 45 21 53 40 6 149 49 164 65 3 3 19 14
35 25 17 10 53 40 81 67 28 26 68 54 90 62 42 16 64 19 64 11z m3776 -47 l56
-31 -8 -61 c-13 -88 -10 -362 4 -423 6 -29 25 -81 42 -115 35 -74 29 -79 -51
-48 -70 27 -80 35 -107 95 -38 84 -55 181 -56 305 0 135 28 310 50 310 8 0 39
-14 70 -32z m-505 -36 c60 -39 149 -122 184 -172 17 -24 32 -63 37 -96 5 -31
20 -82 33 -115 24 -57 33 -115 16 -105 -4 3 -16 27 -26 53 -40 108 -124 206
-292 343 -28 23 -30 29 -26 73 3 27 10 47 17 47 7 0 32 -13 57 -28z m-161 -40
c0 -57 -1 -59 -50 -101 -27 -23 -66 -70 -86 -104 -21 -34 -43 -69 -49 -77 -11
-12 -31 -72 -62 -180 -8 -27 -24 16 -35 92 -8 63 -7 78 12 132 12 34 40 85 62
115 63 84 163 181 187 181 19 0 21 -6 21 -58z m843 -36 c15 -12 17 -24 11 -92
-4 -52 -1 -111 10 -174 24 -149 33 -186 66 -263 16 -39 30 -77 30 -83 0 -13
-94 -7 -123 8 -30 15 -87 148 -104 240 -19 104 -22 288 -5 348 21 75 18 73 59
51 21 -12 46 -27 56 -35z m510 23 c43 -11 88 -25 99 -32 20 -12 88 -139 88
-164 0 -15 -16 -17 -24 -4 -8 12 -141 77 -199 96 -33 11 -87 17 -163 17 -113
2 -115 2 -146 31 -29 29 -30 31 -13 44 11 7 24 13 29 14 6 0 38 7 71 14 71 17
148 12 258 -16z m-3448 -155 c-1 -201 0 -197 -120 -325 -46 -48 -86 -97 -90
-108 -11 -36 -22 -23 -44 52 -12 39 -26 83 -32 96 -5 13 -12 52 -15 85 -6 68
-8 66 96 186 89 104 180 192 193 187 9 -3 12 -50 12 -173z m343 80 l23 -46
-20 -62 c-18 -52 -40 -171 -41 -213 0 -22 -19 -14 -56 25 -33 34 -35 41 -32
88 4 48 83 254 98 254 3 0 16 -21 28 -46z m2714 -41 c23 -22 27 -35 31 -97 8
-135 43 -277 93 -378 13 -26 24 -50 24 -53 0 -3 -26 -5 -57 -3 l-58 3 -27 50
c-35 65 -50 112 -87 277 -12 51 -15 241 -4 251 8 8 47 -15 85 -50z m-962 8 c0
-10 3 -32 6 -48 5 -24 -1 -37 -35 -74 -54 -60 -86 -126 -113 -236 -13 -51 -26
-93 -29 -93 -4 0 -19 10 -34 22 -26 20 -27 25 -21 77 9 86 22 121 77 212 75
124 149 194 149 140z m1305 -15 c51 -11 140 -51 217 -100 25 -15 57 -114 41
-129 -3 -3 -30 12 -60 34 -30 23 -78 52 -106 65 -54 24 -178 54 -225 54 -25 0
-102 62 -102 82 0 13 169 9 235 -6z m-2839 -17 c42 -12 85 -33 105 -51 19 -16
70 -46 114 -67 87 -42 145 -95 164 -150 20 -61 13 -64 -45 -16 -31 25 -76 57
-100 71 -54 32 -263 124 -281 124 -14 0 -52 72 -53 98 0 17 14 15 96 -9z
m-149 -81 c21 -41 23 -51 14 -85 -6 -21 -11 -72 -11 -114 0 -42 -3 -78 -6 -82
-3 -3 -24 10 -45 30 -46 42 -49 70 -24 193 27 131 32 135 72 58z m2748 16 c33
-27 47 -46 54 -77 5 -23 9 -34 10 -24 3 53 78 -16 102 -95 27 -84 73 -177 109
-217 17 -19 28 -36 26 -38 -2 -3 -29 -2 -60 2 -55 7 -56 8 -91 65 -19 32 -35
64 -35 72 0 8 -7 29 -16 46 -8 18 -18 57 -21 87 -3 30 -9 55 -13 55 -21 0 31
-195 70 -265 24 -43 19 -55 -20 -55 -42 0 -81 60 -125 193 -27 81 -39 136 -42
200 -3 48 -3 87 1 87 4 0 27 -16 51 -36z m216 -32 c99 -22 153 -48 231 -111
55 -44 58 -48 58 -91 0 -78 -11 -80 -80 -17 -64 57 -151 109 -205 121 -45 10
-133 116 -97 116 4 0 46 -8 93 -18z m-1263 -45 c2 -34 -3 -58 -18 -85 -21 -38
-41 -104 -62 -202 -6 -30 -12 -57 -14 -59 -2 -2 -17 7 -33 19 -36 25 -40 63
-16 155 28 108 100 232 129 222 6 -2 12 -25 14 -50z m176 -23 c82 -82 153
-188 182 -271 18 -51 18 -54 0 -88 -11 -19 -22 -35 -26 -35 -4 0 -17 25 -29
56 -23 62 -88 151 -168 231 -51 51 -54 56 -60 118 -8 87 4 85 101 -11z m-546
-4 c18 -32 40 -85 48 -116 8 -32 24 -72 34 -90 24 -38 26 -111 4 -142 -18 -27
-34 -20 -34 14 0 40 -46 160 -82 211 -24 35 -34 63 -38 103 -5 48 -7 37 -19
-82 -7 -76 -17 -138 -22 -138 -5 0 -9 53 -9 118 0 124 12 169 43 164 10 -2 17
4 17 12 0 29 26 5 58 -54z m-958 -59 c66 -36 164 -118 179 -149 12 -26 15
-105 4 -116 -4 -4 -32 20 -63 52 -98 103 -199 173 -297 206 -44 15 -53 22 -67
57 -28 70 -24 71 87 24 56 -24 127 -57 157 -74z m-290 -9 c30 -53 32 -64 34
-165 0 -59 -1 -107 -4 -107 -3 0 -24 27 -47 59 l-43 59 0 95 c0 97 6 131 20
122 5 -3 23 -31 40 -63z m1110 9 c0 -27 -10 -53 -32 -87 -18 -27 -44 -82 -57
-121 -13 -40 -26 -73 -30 -73 -4 0 -18 11 -30 24 -23 24 -23 25 -6 78 26 81
115 216 143 217 7 1 12 -13 12 -38z m-2287 -3 c42 -6 77 -17 77 -23 0 -6 -26
-36 -58 -68 l-57 -57 -85 10 c-95 11 -166 13 -158 4 3 -3 52 -10 109 -15 57
-6 108 -14 112 -19 5 -4 -7 -30 -26 -56 l-34 -49 -67 3 c-77 4 -226 -14 -270
-34 -42 -18 -13 -17 57 1 62 16 257 21 257 6 0 -4 -12 -24 -27 -44 -16 -20
-36 -47 -45 -60 -15 -21 -27 -25 -105 -31 -48 -3 -106 -13 -129 -21 -128 -44
-247 -115 -310 -185 -20 -22 -41 -37 -46 -34 -18 11 2 144 26 171 29 34 136
110 188 133 50 23 24 27 -28 5 -33 -14 -91 -55 -138 -97 -30 -27 -38 -22 -30
20 23 128 133 209 370 272 41 11 85 20 99 20 14 0 25 5 25 10 0 13 -2 13 -85
-5 -138 -28 -220 -60 -303 -117 -24 -17 -45 -28 -47 -26 -5 5 42 97 61 119 20
23 181 104 245 123 64 19 243 51 304 54 22 1 75 -3 118 -10z m2818 -38 c9 -30
9 -53 0 -96 -12 -62 -14 -136 -5 -171 12 -45 20 -22 16 47 -9 148 12 112 102
-179 17 -54 13 -82 -6 -47 -6 10 -26 35 -44 56 -18 20 -38 50 -44 65 -7 19
-14 25 -18 18 -12 -19 -92 59 -92 88 0 76 51 259 72 259 4 0 13 -18 19 -40z
m1337 11 c31 -16 83 -53 116 -82 l58 -53 -6 -52 c-8 -73 -15 -87 -32 -73 -8 6
-14 16 -14 21 0 11 -48 82 -77 113 -10 12 -38 45 -63 75 -24 30 -48 57 -52 58
-12 5 -10 22 2 22 6 0 36 -13 68 -29z m-2808 -24 c79 -39 164 -103 228 -171
60 -65 71 -90 56 -130 -9 -24 -20 -19 -42 18 -26 44 -136 135 -213 176 -49 26
-64 40 -84 81 -23 44 -24 49 -8 49 10 0 38 -11 63 -23z m2781 -64 c96 -98 146
-167 155 -213 l6 -30 -45 26 c-63 34 -140 122 -176 197 -35 75 -45 107 -34
107 5 0 47 -39 94 -87z m-1180 30 c88 -95 142 -182 154 -246 6 -31 3 -44 -19
-77 -14 -22 -30 -40 -34 -40 -4 0 -15 28 -25 63 -26 87 -41 120 -76 159 -17
19 -34 46 -39 59 -15 39 -25 129 -14 129 5 0 29 -21 53 -47z m-553 -5 c36 -52
62 -125 69 -194 5 -44 2 -54 -18 -72 -37 -35 -46 -28 -52 41 -3 34 -13 78 -23
97 -21 40 -33 170 -16 170 6 0 24 -19 40 -42z m-2172 -95 c46 -89 96 -235 113
-327 6 -33 11 -119 11 -191 l0 -132 -36 -46 c-47 -60 -64 -62 -53 -4 12 63 10
191 -5 287 -12 79 -49 202 -66 225 -4 6 -27 47 -50 92 l-42 82 33 50 c19 28
38 50 44 48 5 -2 29 -40 51 -84z m1024 58 c0 -4 11 -24 24 -43 16 -24 27 -62
35 -119 13 -90 53 -210 77 -230 13 -11 14 -9 3 17 -7 16 -16 34 -20 39 -9 12
-49 162 -49 183 0 26 18 7 85 -93 64 -95 150 -253 143 -261 -6 -5 -138 77
-138 86 0 4 -10 5 -23 3 -53 -10 -71 9 -106 113 -53 161 -72 314 -40 314 5 0
9 -4 9 -9z m178 -85 c84 -55 182 -156 182 -188 0 -39 -12 -68 -26 -68 -8 0
-14 7 -14 15 0 9 -40 55 -88 103 -79 79 -132 147 -132 173 0 15 7 11 78 -35z
m-492 -38 c93 -49 191 -123 235 -179 17 -21 51 -78 76 -126 41 -79 45 -92 39
-137 -8 -70 -20 -77 -44 -23 -54 122 -220 317 -312 366 -38 21 -65 42 -71 58
-9 24 -13 83 -5 83 2 0 39 -19 82 -42z m-834 5 c10 -9 18 -23 18 -31 0 -7 8
-26 18 -40 68 -98 112 -272 112 -440 -1 -140 -20 -220 -61 -254 -42 -35 -53
-35 -45 0 4 15 9 70 13 124 5 91 3 107 -42 293 -31 128 -57 210 -72 232 -29
43 -29 50 2 96 29 42 32 43 57 20z m637 -49 l13 -56 -35 -37 c-88 -93 -212
-293 -241 -391 l-14 -45 -11 28 c-8 22 -7 37 8 75 11 27 25 77 31 113 22 123
55 184 169 317 25 29 50 52 56 52 7 0 17 -25 24 -56z m2214 38 c21 -23 61
-115 75 -172 10 -41 9 -51 -12 -94 -13 -27 -26 -44 -29 -39 -4 6 -14 53 -22
104 -9 52 -20 108 -25 124 -24 87 -20 114 13 77z m-2900 -171 c9 -26 23 -76
31 -112 7 -35 21 -92 31 -127 28 -108 34 -198 18 -297 -17 -99 -28 -117 -95
-155 l-41 -23 7 24 c44 150 48 424 7 539 -20 56 -56 142 -67 161 -2 3 11 23
28 43 l31 38 16 -21 c9 -12 24 -43 34 -70z m912 31 c56 -43 196 -197 221 -245
68 -131 74 -153 49 -207 -10 -22 -22 -40 -26 -40 -4 0 -17 26 -28 58 -24 65
-43 102 -80 153 -47 65 -142 167 -182 194 -31 22 -39 35 -45 70 -11 75 10 79
91 17z m-200 -21 c7 -33 -8 -69 -62 -145 -45 -62 -94 -178 -122 -286 -32 -124
-28 -118 -55 -89 -58 62 -56 106 9 244 53 114 189 305 216 305 4 0 10 -13 14
-29z m-1025 -34 c0 -19 -58 -107 -74 -113 -8 -3 -12 -12 -9 -20 7 -18 -43
-120 -62 -128 -8 -3 -12 -12 -9 -19 7 -18 -50 -144 -77 -174 -12 -12 -19 -26
-16 -30 4 -5 -3 -38 -14 -74 -46 -143 -87 -288 -94 -327 -4 -23 -10 -44 -15
-47 -9 -6 -30 80 -30 125 0 39 40 144 86 227 21 37 32 63 25 59 -21 -14 -76
-107 -102 -173 -13 -35 -27 -63 -31 -63 -4 0 -15 25 -23 55 -21 71 -12 101 63
213 53 78 137 163 190 191 13 7 22 15 19 17 -11 11 -102 -53 -155 -110 -58
-62 -132 -172 -132 -196 0 -6 -6 -10 -12 -8 -7 3 -21 37 -31 76 l-17 72 27 43
c54 86 271 257 327 257 9 0 16 5 16 10 0 6 -5 10 -11 10 -15 0 -136 -66 -179
-98 -35 -26 -49 -40 -128 -126 -23 -25 -46 -46 -51 -46 -9 0 -21 58 -21 105 0
56 135 183 245 230 22 9 56 24 75 33 19 8 73 21 120 27 47 7 88 13 93 14 4 0
7 -5 7 -12z m228 -63 c62 -151 76 -297 46 -469 -25 -149 -30 -163 -74 -190
-22 -14 -48 -25 -59 -25 -10 0 -24 -6 -30 -13 -13 -16 -89 -52 -96 -46 -2 3 4
25 13 49 22 59 22 328 0 407 -15 51 -15 52 20 122 19 39 38 71 42 71 12 0 37
-86 51 -173 13 -84 7 -298 -10 -354 -5 -18 -6 -35 -2 -38 16 -9 36 151 35 270
-1 112 -8 155 -51 323 -6 26 61 136 80 129 6 -2 22 -30 35 -63z m835 -72 l17
-73 -39 -67 c-55 -94 -88 -178 -101 -255 -7 -37 -14 -67 -17 -67 -9 0 -82 55
-87 65 -7 18 32 181 61 253 31 79 131 239 142 226 4 -5 15 -42 24 -82z m187 9
c119 -121 181 -223 195 -322 5 -36 2 -52 -15 -82 -25 -43 -36 -46 -45 -14 -33
123 -99 241 -178 324 -47 49 -51 56 -55 113 -3 44 -1 60 8 60 7 0 48 -35 90
-79z m-20 -148 c72 -81 139 -232 140 -312 0 -24 -35 -71 -52 -71 -4 0 -8 11
-8 24 0 52 -69 213 -122 286 -21 29 -37 130 -20 130 6 0 33 -26 62 -57z m-135
-40 c4 -32 11 -71 15 -88 10 -31 30 -309 30 -402 0 -29 -3 -53 -7 -53 -16 0
-62 100 -74 158 -12 58 -10 86 16 247 3 17 -4 5 -15 -25 -14 -38 -21 -80 -21
-135 0 -44 -3 -83 -5 -87 -3 -4 -24 13 -48 37 l-44 44 13 74 c17 100 98 287
125 287 4 0 11 -26 15 -57z m-1076 -110 c19 -125 14 -259 -12 -333 -22 -60
-27 -65 -71 -83 -52 -22 -63 -19 -47 12 11 20 33 127 46 224 3 26 1 72 -5 101
-11 52 -10 55 26 116 42 72 47 70 63 -37z m1199 -12 c32 -52 82 -196 82 -237
0 -26 -47 -87 -61 -78 -5 3 -9 24 -9 47 0 23 -11 71 -23 107 -24 66 -43 210
-27 210 4 0 22 -22 38 -49z m-1306 -88 c12 -84 -22 -290 -55 -331 -14 -18 -67
-45 -74 -38 -3 3 1 25 10 48 21 58 40 164 32 188 -6 20 60 160 75 160 4 0 10
-12 12 -27z"/>
</g>
</svg>
