<?xml version="1.0" standalone="no"?>
<!DOCTYPE svg PUBLIC "-//W3C//DTD SVG 20010904//EN"
 "http://www.w3.org/TR/2001/REC-SVG-20010904/DTD/svg10.dtd">
<svg version="1.0" xmlns="http://www.w3.org/2000/svg"
 width="1000.000000pt" height="1330.000000pt" viewBox="0 0 1000.000000 1330.000000"
 preserveAspectRatio="xMidYMid meet">
<metadata>
Created by potrace 1.16, written by Peter Selinger 2001-2019
</metadata>
<g transform="translate(0.000000,1330.000000) scale(0.100000,-0.100000)"
fill="#000000" stroke="none">
<path d="M5925 13162 c-42 -26 -51 -40 -64 -100 -20 -94 11 -233 84 -384 19
-39 35 -75 35 -81 0 -5 25 -50 56 -100 31 -51 66 -108 76 -127 11 -19 23 -37
27 -40 13 -10 91 -120 86 -120 -4 0 -35 26 -71 57 -52 46 -64 62 -64 87 0 16
-12 47 -26 68 -23 32 -32 38 -63 38 -20 0 -47 -7 -60 -16 -22 -16 -24 -15 -84
43 -134 129 -207 183 -332 249 -58 30 -81 36 -135 38 -54 1 -65 -2 -68 -16 -4
-21 27 -25 45 -7 7 7 25 9 45 5 34 -6 167 -66 191 -86 6 -5 44 -34 82 -63 82
-61 221 -194 213 -203 -4 -3 -33 12 -65 34 -124 84 -302 151 -470 177 -45 7
-83 -7 -83 -29 0 -20 27 -27 40 -10 7 8 27 14 46 14 92 0 340 -86 417 -145 25
-19 50 -35 55 -35 12 0 52 -44 52 -58 0 -7 -5 -12 -12 -12 -6 0 -19 -7 -29
-16 -17 -15 -24 -13 -106 22 -208 89 -448 147 -502 121 -32 -15 -38 -54 -17
-107 35 -87 221 -303 318 -369 54 -36 307 -147 383 -167 66 -18 133 -17 169 1
15 8 29 15 30 15 0 0 -1 -38 -2 -84 -4 -94 4 -118 51 -146 34 -21 92 -27 102
-10 13 20 42 9 80 -31 68 -71 141 -89 171 -44 16 24 15 28 -9 83 -13 31 -30
89 -37 127 -7 39 -21 92 -31 118 -26 66 -24 71 19 43 50 -33 152 -54 187 -38
14 7 28 19 32 28 7 18 3 22 -76 69 -28 17 -51 33 -51 36 0 4 28 9 63 13 34 3
89 8 122 12 54 5 66 3 119 -25 32 -17 66 -31 76 -31 28 0 78 47 85 81 9 39 -8
59 -50 59 -50 0 -81 31 -90 87 -9 65 -25 86 -86 117 -57 28 -134 35 -171 15
-29 -16 -30 -8 -5 42 19 38 22 60 22 154 -1 108 -1 112 -40 190 -67 135 -129
217 -223 295 -172 142 -372 213 -457 162z m208 -47 c88 -38 214 -127 306 -216
34 -32 121 -153 121 -167 0 -3 12 -35 26 -71 34 -85 44 -217 20 -273 -9 -21
-18 -38 -20 -38 -2 0 -14 20 -26 45 -35 71 -127 138 -210 151 -23 4 -43 12
-45 18 -62 214 -67 226 -114 267 -48 43 -83 49 -117 21 -31 -26 -70 -83 -85
-124 -7 -21 -16 -38 -19 -38 -20 0 -78 183 -86 271 -8 80 6 129 47 164 44 36
100 34 202 -10z m17 -282 c39 -23 100 -150 114 -236 11 -71 21 -84 59 -79 42
5 109 -23 159 -67 36 -32 78 -106 78 -139 0 -24 -54 -74 -108 -102 -59 -31
-159 -26 -198 10 -28 26 -98 122 -125 171 -9 16 -21 34 -27 41 -11 14 -65 111
-94 172 -21 42 -19 63 13 133 21 46 75 113 91 113 5 0 23 -8 38 -17z m-685
-417 c119 -27 219 -76 157 -76 -33 0 -55 -34 -48 -74 11 -58 83 -106 204 -136
30 -8 52 -19 52 -27 0 -27 39 -90 79 -126 55 -50 91 -66 161 -74 33 -3 60 -9
60 -13 0 -3 -12 -17 -26 -31 -22 -21 -35 -24 -93 -23 -56 0 -86 8 -186 49
-177 72 -322 162 -400 249 -94 103 -185 240 -185 278 l0 31 83 -6 c45 -4 109
-13 142 -21z m306 -107 c35 -16 49 -29 58 -55 22 -62 112 -85 159 -41 l25 22
-5 -33 c-3 -18 -1 -35 3 -38 16 -10 31 40 25 82 -3 26 -2 44 4 44 6 0 10 -8
10 -17 0 -28 38 -85 83 -124 40 -35 41 -39 45 -105 4 -63 2 -71 -21 -92 -43
-40 -88 -40 -171 1 -67 34 -76 42 -105 96 -17 32 -31 65 -31 74 0 9 -13 17
-35 20 -103 17 -208 79 -221 131 -5 21 0 29 28 46 38 24 77 21 149 -11z m1006
-20 c51 -25 69 -49 77 -102 3 -20 11 -46 18 -56 16 -26 61 -51 91 -51 13 0 30
-7 37 -15 11 -13 10 -21 -7 -43 -27 -37 -53 -38 -116 -7 -61 29 -114 33 -200
15 -52 -10 -68 -9 -145 11 -48 12 -92 28 -98 34 -7 6 -36 27 -66 46 -53 34
-53 34 -23 37 67 7 135 35 200 82 38 28 81 50 95 51 14 0 34 4 45 9 31 13 45
12 92 -11z m-487 -210 c16 -16 32 -40 36 -52 4 -12 19 -38 35 -57 38 -49 75
-141 94 -241 10 -46 27 -103 40 -125 25 -46 19 -74 -17 -74 -23 0 -98 39 -98
51 0 5 -16 20 -35 35 -35 27 -36 27 -73 10 -45 -20 -78 -12 -111 30 -25 32
-28 107 -7 175 59 192 58 186 48 233 l-10 46 35 0 c26 0 42 -8 63 -31z"/>
<path d="M5940 13072 c-20 -16 -22 -24 -16 -66 10 -64 47 -105 103 -113 80
-11 120 45 88 124 -9 22 -28 47 -44 56 -38 23 -103 22 -131 -1z m132 -29 c36
-38 44 -75 23 -106 -21 -33 -36 -38 -78 -26 -40 11 -67 56 -67 112 0 39 8 45
61 46 26 1 42 -6 61 -26z"/>
<path d="M6352 12803 c-53 -10 -53 -86 0 -135 56 -52 108 -25 108 57 0 46 -6
57 -37 74 -22 11 -30 12 -71 4z"/>
<path d="M5363 12368 c-46 -22 -22 -86 47 -127 59 -35 118 -20 134 35 8 27
-31 86 -64 95 -38 11 -92 9 -117 -3z"/>
<path d="M5658 12109 c-20 -11 -24 -68 -8 -99 6 -11 29 -25 51 -32 37 -11 43
-10 55 7 8 10 14 35 14 55 0 62 -61 99 -112 69z"/>
<path d="M6586 12229 c-26 -20 -35 -69 -18 -95 12 -19 76 -54 99 -54 78 0 110
77 57 139 -21 26 -33 31 -69 31 -28 0 -51 -7 -69 -21z"/>
<path d="M6242 11884 c-29 -20 -29 -71 1 -115 24 -36 44 -44 81 -35 24 6 56
63 56 101 0 52 -89 84 -138 49z"/>
<path d="M3454 12283 c-9 -32 -20 -62 -24 -68 -5 -5 -26 -45 -49 -88 -22 -43
-64 -109 -94 -145 -30 -37 -79 -101 -109 -142 -30 -41 -83 -113 -117 -160
-146 -198 -208 -333 -233 -508 -24 -164 24 -371 128 -553 30 -52 74 -117 99
-142 25 -26 45 -52 45 -57 0 -6 -16 -8 -42 -3 -87 15 -300 9 -368 -10 -87 -24
-181 -72 -221 -113 -18 -19 -38 -34 -43 -34 -14 0 -60 -72 -87 -135 -14 -33
-20 -69 -21 -132 -1 -40 -3 -43 -44 -63 -24 -11 -63 -20 -86 -21 -68 0 -128
-29 -159 -74 -40 -58 -44 -80 -18 -103 39 -37 63 -35 154 8 113 54 138 58 189
32 128 -64 189 -85 246 -84 32 0 75 8 96 18 22 9 60 24 85 34 25 9 87 47 137
83 51 36 116 80 144 97 29 17 80 53 113 81 68 56 89 63 51 17 -37 -45 -71 -99
-128 -196 -47 -81 -59 -124 -38 -137 6 -4 49 23 97 59 47 37 88 65 89 63 2 -2
-5 -46 -16 -98 -12 -54 -18 -109 -15 -129 10 -56 54 -111 115 -143 107 -55
102 -49 94 -130 -3 -40 -13 -90 -20 -112 -17 -50 -18 -107 -2 -123 7 -7 26
-12 44 -12 24 0 40 9 68 40 34 38 36 44 36 111 0 83 15 152 43 194 11 17 54
64 96 105 70 69 79 82 105 158 26 74 28 91 23 170 -9 129 -23 198 -46 231 -12
16 -21 31 -21 34 0 3 39 -10 88 -28 105 -40 220 -59 277 -45 172 40 414 188
589 358 78 76 189 209 211 252 10 19 37 63 61 98 24 35 44 66 44 69 0 3 10 20
23 37 13 17 54 81 92 141 88 141 127 189 165 205 16 7 30 16 30 21 0 47 -290
-20 -485 -111 -204 -95 -256 -122 -335 -174 -47 -30 -119 -75 -160 -100 -41
-25 -88 -57 -104 -71 -35 -30 -30 -29 -62 -8 -14 9 -40 24 -57 33 -17 9 -32
21 -34 27 -4 10 120 148 167 187 13 12 52 46 85 77 61 56 274 201 378 257 31
18 82 39 113 48 52 15 56 15 68 -1 11 -15 18 -16 48 -6 28 9 35 16 31 31 -8
30 -38 33 -111 10 -93 -30 -206 -89 -347 -183 -141 -93 -246 -181 -369 -306
-49 -50 -92 -91 -97 -91 -19 0 -7 47 21 89 17 25 33 56 37 70 3 15 11 33 19
41 7 8 46 80 86 160 112 219 153 277 278 389 66 60 90 75 118 78 46 3 71 26
52 47 -7 9 -20 16 -29 16 -21 0 -229 -191 -278 -255 -49 -64 -102 -152 -142
-235 -17 -36 -35 -72 -40 -80 -43 -72 -80 -140 -88 -165 -6 -17 -22 -47 -36
-68 -14 -21 -27 -43 -29 -49 -3 -8 -12 -6 -28 5 -38 27 -119 23 -165 -8 -20
-15 -39 -24 -41 -23 -2 2 3 28 11 58 49 184 60 358 30 486 -61 257 -83 325
-170 524 -21 47 -50 119 -65 160 -57 159 -106 270 -117 270 -7 0 -20 -26 -29
-57z m59 -55 c14 -29 41 -100 62 -158 20 -58 62 -166 92 -240 57 -140 123
-336 123 -362 0 -10 -17 -20 -47 -27 -154 -38 -294 -162 -374 -328 -32 -69
-35 -73 -62 -67 -49 10 -126 6 -182 -11 -74 -21 -132 -68 -184 -148 -52 -78
-54 -77 -76 40 -26 135 -16 274 28 388 8 22 26 69 39 105 28 76 64 131 264
395 220 292 234 312 260 389 13 39 24 72 24 74 0 12 13 -7 33 -50z m291 -806
c3 -5 8 -27 12 -49 l6 -40 -77 -43 c-129 -71 -268 -224 -298 -328 -16 -56 -21
-60 -74 -52 -55 9 -175 -11 -232 -37 -20 -10 -73 -55 -119 -101 l-83 -83 -14
35 c-21 51 -19 65 21 132 48 80 79 110 142 139 73 33 210 46 234 21 20 -20 39
-21 32 -2 -9 23 72 170 127 231 65 70 170 141 247 166 67 21 69 21 76 11z m22
-239 c-6 -153 -25 -238 -98 -453 -50 -146 -200 -395 -245 -406 -13 -4 -64 -5
-112 -2 -82 4 -93 7 -159 46 -39 24 -84 60 -103 84 -18 24 -43 52 -56 63 -27
23 -93 131 -93 152 0 16 134 153 151 153 6 0 22 9 36 20 34 26 83 39 178 45
63 4 82 2 96 -11 16 -15 18 -12 30 41 15 68 60 140 135 218 67 69 102 96 168
131 77 41 77 41 72 -81z m1399 -20 c-37 -56 -72 -109 -126 -193 -27 -41 -69
-103 -94 -137 -25 -34 -45 -67 -45 -74 0 -6 -13 -28 -28 -48 -16 -20 -53 -72
-84 -116 -31 -44 -90 -116 -131 -160 -94 -100 -183 -152 -147 -86 17 32 17
114 0 145 -13 25 -13 31 4 59 10 18 22 46 27 62 4 17 17 56 28 87 16 46 18 68
11 115 -4 32 -15 72 -24 88 -9 17 -16 35 -16 41 0 11 71 49 144 75 26 10 64
28 84 40 46 27 141 63 262 99 167 49 167 49 135 3z m-623 -270 c28 -62 28
-141 0 -214 -11 -30 -26 -69 -33 -87 -7 -19 -19 -41 -27 -49 -12 -12 -13 -19
-4 -32 24 -32 34 -67 28 -99 -5 -36 -53 -139 -74 -161 -20 -21 -134 -93 -139
-88 -2 3 6 23 17 46 30 57 37 146 16 207 l-16 48 34 36 c41 43 73 116 80 190
5 45 2 64 -18 107 l-25 53 67 44 c37 25 68 45 69 45 1 1 12 -20 25 -46z m-625
-45 c13 -12 23 -28 23 -36 0 -8 7 -20 16 -27 25 -18 10 -87 -28 -124 -79 -77
-198 -28 -198 81 0 97 123 167 187 106z m470 -55 c38 -90 7 -200 -81 -291 -38
-40 -40 -44 -23 -57 44 -32 39 -116 -12 -224 -36 -76 -77 -113 -157 -139 -51
-17 -73 -19 -164 -12 -122 9 -158 19 -236 63 -42 24 -68 48 -100 96 -24 35
-44 69 -44 77 0 7 18 18 39 25 45 13 142 86 168 125 10 16 17 49 18 83 2 52 4
56 28 59 45 6 64 -13 72 -68 6 -41 4 -55 -10 -70 -22 -24 -6 -32 34 -17 34 12
40 24 16 33 -10 4 -15 20 -15 45 0 45 3 46 37 19 51 -40 156 -14 194 47 16 26
20 45 17 76 -3 25 0 47 6 53 29 26 169 114 182 114 8 0 22 -17 31 -37z m-265
-90 c37 -36 36 -71 -3 -111 -57 -58 -142 -67 -169 -18 -15 29 -4 64 34 107 49
56 95 63 138 22z m-347 -121 c8 -49 -7 -87 -53 -136 -48 -50 -124 -86 -182
-86 l-45 0 123 121 c67 67 122 126 122 130 0 5 6 9 14 9 9 0 17 -15 21 -38z
m-875 -191 c0 -5 -22 -11 -48 -13 -75 -7 -152 -48 -225 -120 -80 -78 -100
-133 -91 -238 6 -56 12 -73 36 -99 36 -39 54 -46 133 -55 51 -5 118 1 162 15
6 2 12 0 13 -6 2 -5 -30 -27 -71 -49 -72 -37 -76 -38 -152 -33 -68 4 -87 10
-135 40 -104 64 -138 167 -105 314 16 68 40 105 103 159 58 49 104 73 165 84
58 11 215 12 215 1z m250 -51 c66 -34 147 -50 213 -43 26 3 47 2 46 -3 -1 -12
-179 -173 -257 -231 -126 -95 -159 -114 -251 -143 -146 -47 -247 -38 -308 27
-28 29 -33 42 -33 85 0 90 25 152 87 214 66 67 116 91 242 114 120 23 189 17
261 -20z m-683 -60 c-51 -57 -87 -147 -87 -219 0 -62 37 -164 77 -211 55 -64
94 -82 174 -82 38 1 67 -3 65 -7 -3 -4 -37 -18 -75 -31 -65 -22 -75 -23 -130
-12 -33 7 -73 19 -88 27 -88 44 -144 65 -176 65 -21 0 -72 -17 -122 -40 -93
-43 -112 -47 -139 -27 -17 12 -17 16 -3 43 32 62 108 104 186 104 51 0 124 39
132 70 4 14 7 48 8 76 2 83 25 135 89 195 109 104 166 135 89 49z m1093 -16
c7 -21 30 -60 51 -88 21 -28 39 -55 39 -59 0 -5 8 -21 19 -35 21 -30 41 -114
41 -171 0 -53 -68 -185 -122 -239 -37 -35 -55 -44 -111 -56 -46 -10 -78 -11
-99 -5 -54 15 -106 59 -132 110 -22 44 -23 53 -12 98 9 39 25 64 81 124 39 42
75 81 80 89 47 62 65 91 88 144 15 34 27 64 27 67 0 16 21 57 29 57 5 0 15
-16 21 -36z m-256 -209 l38 -34 -58 -65 c-33 -37 -63 -66 -67 -66 -11 0 -67
56 -67 67 0 5 12 20 26 34 15 13 37 41 50 62 13 20 28 37 32 37 4 -1 24 -16
46 -35z m426 -315 c-22 -96 -55 -153 -134 -230 -98 -96 -127 -157 -134 -284
-4 -85 -6 -93 -35 -123 -34 -37 -49 -40 -67 -17 -11 12 -11 28 3 87 23 105 30
193 17 217 -6 12 -44 36 -84 55 -66 32 -75 40 -96 84 -19 43 -22 59 -16 113 7
69 21 94 37 65 23 -41 73 -87 115 -107 42 -21 50 -21 121 -11 78 12 123 32
158 73 30 35 105 157 105 172 0 7 3 16 8 20 13 14 14 -57 2 -114z"/>
<path d="M3415 11838 c-43 -16 -101 -82 -127 -147 -18 -45 -23 -76 -23 -158 0
-98 1 -102 31 -139 34 -42 78 -60 119 -50 37 9 117 92 142 146 38 83 43 101
43 162 0 53 -5 70 -37 124 -45 75 -75 88 -148 62z m83 -22 c17 -9 39 -37 56
-71 37 -72 32 -126 -24 -241 -58 -121 -123 -164 -186 -125 -69 42 -83 194 -29
301 34 67 109 140 153 149 2 1 15 -5 30 -13z"/>
<path d="M3384 11680 c-35 -52 -46 -157 -19 -184 29 -29 57 -16 85 38 31 65
34 151 6 172 -31 22 -44 17 -72 -26z"/>
<path d="M3644 11060 c-34 -14 -90 -87 -107 -141 -21 -65 -22 -141 -1 -181 14
-27 19 -30 51 -25 68 11 112 61 154 172 17 45 18 61 9 94 -18 67 -60 100 -106
81z m66 -45 c22 -26 8 -143 -22 -190 -67 -104 -113 -111 -147 -23 -14 38 22
146 64 192 36 39 82 48 105 21z"/>
<path d="M3212 10720 c-48 -30 -82 -123 -67 -188 9 -41 51 -82 84 -82 41 1 94
32 110 65 24 49 26 121 5 166 -27 61 -74 74 -132 39z m82 -10 c18 0 46 -54 46
-89 0 -41 -29 -112 -55 -133 -31 -27 -63 -22 -97 14 -26 28 -29 38 -25 75 9
79 65 153 105 138 8 -3 19 -5 26 -5z"/>
<path d="M4859 11032 c-123 -78 -185 -217 -124 -277 30 -31 73 -32 130 -5 75
37 123 107 132 196 5 49 4 55 -25 83 -38 38 -56 39 -113 3z m101 -22 c56 -56
-16 -200 -124 -245 -51 -21 -91 -12 -106 25 -17 40 8 89 90 173 72 73 103 84
140 47z"/>
<path d="M4044 10401 c-51 -23 -107 -72 -135 -117 -29 -47 -20 -93 22 -116 66
-38 159 -6 221 77 48 64 55 96 31 138 -16 26 -26 32 -58 35 -23 1 -57 -6 -81
-17z m128 -30 c13 -34 5 -59 -35 -112 -43 -56 -115 -94 -162 -85 -41 8 -65 30
-65 58 0 38 61 106 124 138 74 38 123 38 138 1z"/>
<path d="M2920 10256 c-51 -13 -110 -54 -140 -97 -29 -40 -27 -103 5 -134 21
-22 33 -25 98 -25 70 0 77 2 122 36 45 35 84 98 85 137 1 71 -76 108 -170 83z
m125 -36 c31 -26 12 -102 -37 -146 -46 -42 -88 -57 -147 -51 -72 8 -94 29 -81
78 15 52 43 84 103 114 41 21 62 25 99 22 26 -2 54 -10 63 -17z"/>
<path d="M3502 9972 c-56 -56 -68 -132 -32 -203 28 -54 60 -68 103 -44 88 47
123 187 65 260 -15 19 -29 25 -59 25 -32 0 -46 -7 -77 -38z m127 -17 c33 -68
-2 -179 -66 -209 -40 -19 -54 -12 -79 35 -19 38 -17 86 5 135 36 78 111 99
140 39z"/>
<path d="M7685 11163 c-130 -30 -265 -93 -340 -158 -35 -31 -75 -55 -95 -60
-67 -14 -205 -66 -243 -91 -34 -22 -37 -28 -32 -57 6 -29 3 -35 -21 -47 -15
-8 -39 -31 -53 -50 -29 -40 -23 -39 -141 -5 -91 26 -241 3 -363 -57 -34 -17
-64 -32 -66 -34 -2 -2 6 -24 18 -49 12 -26 26 -86 33 -143 12 -106 4 -184 -48
-451 -30 -154 -33 -352 -8 -428 9 -26 48 -113 87 -193 70 -144 71 -146 188
-261 75 -74 135 -125 166 -139 26 -13 68 -40 93 -60 25 -20 80 -60 123 -89 42
-29 77 -55 77 -57 0 -2 -22 -15 -49 -29 l-49 -25 -49 35 c-197 141 -242 160
-352 150 -70 -6 -131 -26 -131 -43 0 -5 27 -13 60 -20 32 -6 75 -18 95 -28 41
-19 109 -83 145 -137 89 -132 93 -135 197 -113 83 18 157 35 186 43 35 11 16
-27 -25 -48 -73 -37 -204 -125 -241 -162 -41 -41 -57 -102 -60 -219 -3 -96 14
-98 49 -6 44 116 75 160 124 171 35 8 151 51 177 65 19 10 24 9 37 -10 9 -12
16 -32 16 -43 0 -22 -100 -185 -113 -185 -5 0 -18 10 -29 23 l-20 22 6 -25
c18 -74 18 -77 -16 -131 -18 -30 -40 -66 -47 -80 -9 -19 -19 -25 -33 -21 -17
4 -18 2 -8 -14 10 -16 7 -28 -16 -69 -43 -78 -48 -85 -62 -85 -8 0 -12 -6 -9
-14 3 -7 -16 -67 -43 -132 -48 -118 -48 -119 -81 -119 l-33 0 2 130 c3 125
-20 330 -49 437 -12 48 -87 203 -117 246 -47 64 -190 165 -362 253 -82 43
-123 76 -186 150 -31 37 -118 103 -166 128 -67 34 -470 -64 -661 -160 -53 -27
-216 -137 -282 -190 l-50 -41 -115 5 c-219 9 -314 -10 -408 -80 -19 -14 -37
-21 -42 -17 -4 5 -18 34 -31 64 -12 30 -26 60 -31 67 -5 6 -39 16 -76 22 -190
28 -260 34 -375 28 -253 -12 -371 -96 -531 -376 -38 -67 -72 -121 -76 -121 -5
0 -18 33 -30 72 -28 91 -53 141 -99 197 -20 25 -39 49 -44 55 -4 7 -14 3 -25
-12 l-18 -24 -29 39 c-47 61 -117 134 -159 165 -40 29 -101 38 -108 16 -3 -9
-12 -9 -38 0 -38 14 -99 16 -85 4 6 -5 35 -19 65 -31 30 -13 64 -32 76 -42 27
-25 30 -24 38 11 3 17 10 30 16 30 16 0 150 -140 150 -156 0 -8 3 -14 8 -14 4
0 20 -23 36 -52 27 -47 30 -50 42 -33 8 10 14 22 14 27 0 35 65 -58 108 -153
77 -170 74 -187 -22 -136 -36 19 -66 33 -66 31 0 -2 21 -18 48 -36 l47 -33
-109 -12 c-141 -15 -227 -42 -341 -106 -130 -73 -142 -82 -130 -100 44 -64 66
-100 62 -104 -3 -2 -40 -13 -84 -25 -64 -16 -96 -19 -178 -14 -109 7 -207 26
-212 42 -2 6 8 16 23 22 14 7 24 17 22 24 -4 11 -116 37 -220 52 -62 9 -78 29
-43 52 26 17 26 19 9 31 -10 7 -39 13 -64 13 -26 0 -69 7 -96 15 -53 16 -164
72 -164 84 0 3 14 12 30 18 17 6 30 15 30 20 0 4 -28 16 -61 26 -34 10 -85 33
-113 51 -87 56 -171 163 -137 174 18 6 13 30 -8 37 -29 9 -125 141 -115 157 6
9 101 -50 164 -102 59 -49 123 -85 196 -111 91 -32 313 -89 348 -89 l31 -1
-28 -22 c-15 -13 -68 -40 -118 -61 -49 -21 -88 -40 -86 -43 9 -8 163 58 214
92 37 25 63 35 90 35 l38 0 -25 -20 c-14 -11 -70 -43 -125 -71 -55 -28 -89
-48 -75 -44 47 13 173 75 220 110 39 29 63 37 140 50 52 8 96 13 98 10 9 -9
-23 -71 -64 -125 -43 -56 -88 -101 -134 -132 -14 -10 -20 -18 -13 -18 14 0 99
74 145 126 18 20 46 64 63 98 36 69 12 59 228 92 77 11 121 14 127 8 10 -10
-143 -169 -185 -192 -11 -6 -17 -13 -14 -17 9 -8 113 79 177 149 35 39 57 56
68 52 23 -9 -6 -45 -148 -181 -68 -65 -112 -112 -98 -105 13 7 82 70 153 139
71 69 134 125 140 123 7 -2 50 -21 96 -43 46 -22 85 -38 88 -36 5 6 -90 60
-143 81 -26 11 -82 60 -162 144 -68 70 -120 119 -115 110 7 -15 33 -44 147
-167 l41 -44 -36 6 c-20 3 -70 1 -110 -4 -62 -8 -75 -7 -82 6 -13 25 -151 174
-156 170 -2 -2 31 -44 73 -92 42 -48 76 -91 76 -95 0 -20 -22 -1 -94 81 -110
126 -184 195 -245 226 -76 38 -73 25 5 -21 63 -37 142 -112 247 -235 26 -31
47 -59 47 -63 0 -3 -12 -6 -27 -6 -16 0 -86 -10 -158 -22 l-130 -21 -89 66
c-49 37 -93 67 -98 67 -6 0 25 -27 68 -60 44 -33 80 -65 82 -70 8 -22 -172
-15 -263 10 -201 55 -286 86 -348 127 -75 51 -136 98 -137 104 0 3 36 9 81 13
86 7 158 23 227 51 36 15 42 21 42 47 l0 30 78 -7 c96 -8 146 -21 167 -41 22
-22 32 -9 12 14 -21 23 -22 61 -3 68 24 9 209 -16 233 -31 32 -21 57 -20 48 3
-20 49 -19 52 16 46 62 -10 133 -35 198 -70 36 -18 67 -31 70 -28 13 13 -30
59 -61 65 -18 3 -68 20 -111 38 -96 38 -177 43 -177 10 0 -18 -5 -20 -42 -15
-160 20 -218 15 -218 -18 0 -25 -14 -26 -90 -10 -100 20 -129 16 -150 -21 -33
-60 -103 -92 -225 -102 -95 -8 -175 10 -214 48 -17 16 -33 29 -36 29 -18 0 25
-113 73 -192 21 -35 32 -64 28 -74 -5 -12 15 -41 66 -98 88 -98 102 -110 153
-138 35 -20 37 -23 18 -26 -24 -4 -33 -32 -10 -32 7 0 61 -25 119 -55 61 -31
137 -61 177 -70 39 -9 71 -20 71 -24 0 -4 -9 -16 -20 -26 -11 -10 -17 -22 -13
-25 5 -4 58 -22 118 -40 61 -18 117 -34 125 -37 13 -4 12 -6 -2 -14 -37 -21
-19 -37 60 -54 42 -9 103 -23 135 -31 74 -18 148 -18 262 1 50 8 97 15 106 15
11 0 29 -26 52 -72 43 -89 56 -130 59 -188 l3 -44 -125 -51 c-151 -61 -213
-95 -386 -211 -73 -49 -99 -61 -117 -56 -30 9 -69 40 -90 73 -17 25 -16 27 31
105 26 44 54 98 61 122 13 37 12 46 -4 84 -54 131 -108 211 -212 316 -66 66
-78 67 -69 5 l6 -47 -42 40 c-62 58 -98 80 -109 63 -4 -7 -5 -17 -3 -21 10
-16 -16 -7 -63 22 -53 33 -249 110 -258 102 -3 -3 -5 -14 -5 -24 0 -10 -2 -18
-4 -18 -2 0 -45 15 -94 34 -176 67 -205 72 -207 31 -1 -5 -5 -9 -11 -8 -229
41 -224 41 -224 2 l0 -32 -53 6 c-88 11 -168 44 -213 88 -31 31 -52 42 -84 46
l-43 6 6 -34 c3 -19 9 -74 12 -123 4 -49 13 -105 20 -125 20 -58 110 -185 161
-229 48 -40 51 -62 11 -62 -48 0 -53 -16 -16 -53 36 -37 139 -124 202 -171 42
-32 46 -45 17 -53 -12 -3 -19 -11 -17 -17 6 -19 155 -115 197 -126 22 -6 40
-15 40 -20 0 -5 -14 -19 -30 -32 l-31 -24 78 -32 c113 -45 153 -54 216 -51 31
2 57 1 57 -3 0 -4 -12 -18 -26 -32 l-27 -24 39 -11 c21 -6 64 -11 94 -11 44 0
58 -4 68 -20 10 -17 23 -20 87 -20 55 0 86 5 114 19 70 36 139 99 201 185 34
48 65 86 69 86 3 0 26 -18 50 -40 l45 -40 -30 -31 c-16 -18 -68 -73 -115 -123
-47 -50 -117 -126 -155 -168 l-69 -78 -61 0 c-34 0 -79 6 -101 14 -51 18 -283
39 -337 31 -103 -16 -179 -43 -235 -84 -32 -23 -33 -25 -15 -38 19 -14 19 -14
-1 -25 -11 -6 -44 -35 -74 -65 -46 -47 -52 -59 -48 -86 3 -24 -1 -35 -19 -49
-53 -42 -124 -222 -102 -258 10 -16 9 -23 -9 -42 -30 -33 -69 -115 -86 -182
-17 -62 -14 -86 10 -86 8 0 13 -6 10 -12 -22 -59 -39 -129 -34 -142 4 -9 16
-16 27 -16 24 0 24 1 5 -42 -9 -22 -18 -100 -24 -205 -7 -137 -13 -179 -30
-216 -12 -25 -21 -51 -21 -56 0 -13 17 -14 24 -2 6 9 72 23 193 42 40 6 77 17
83 24 6 8 26 19 45 25 22 7 47 30 76 70 23 32 46 57 51 54 4 -3 8 -39 8 -80
l0 -74 29 0 c39 0 165 45 219 79 23 14 72 63 108 109 36 45 69 80 74 77 4 -3
17 -25 29 -50 12 -25 25 -45 29 -45 18 0 125 148 159 219 l36 75 28 -34 c24
-28 31 -31 44 -20 8 7 15 18 15 25 0 6 13 38 29 71 16 32 39 90 50 127 12 38
24 73 27 79 9 15 54 -32 54 -57 0 -59 39 -109 54 -70 14 38 32 11 50 -72 19
-89 42 -147 54 -141 4 2 19 10 34 17 22 11 30 11 42 2 17 -14 41 -91 51 -163
4 -30 11 -48 19 -48 8 0 36 18 64 41 l51 40 15 -53 c8 -29 21 -84 27 -123 15
-88 25 -115 43 -115 8 0 45 33 83 74 67 71 124 163 169 271 20 48 27 53 64 44
13 -3 15 17 18 129 3 138 7 149 44 115 17 -15 20 -15 28 -3 10 15 15 148 10
253 -2 57 -2 58 18 46 12 -7 23 -11 26 -9 2 3 -1 46 -7 95 -9 76 -16 100 -49
154 -21 34 -38 65 -38 68 0 3 11 3 25 1 63 -12 -4 95 -115 187 -40 33 -75 66
-77 72 -3 7 9 13 29 15 65 6 41 80 -56 171 -68 63 -113 83 -242 109 -60 11
-113 24 -117 28 -5 4 1 36 14 71 33 92 109 166 209 204 41 16 106 43 145 62
38 18 75 33 83 33 11 0 13 -42 11 -227 -2 -211 -1 -234 20 -308 69 -244 137
-399 228 -520 103 -135 169 -190 315 -261 107 -51 170 -64 322 -64 l108 0 57
-48 c142 -122 246 -190 411 -269 122 -59 312 -125 397 -139 47 -7 49 -19 6
-27 -16 -3 -75 -14 -133 -26 -58 -12 -128 -21 -156 -21 -61 0 -66 -4 -315
-241 -18 -17 -35 -54 -54 -115 -15 -49 -33 -102 -40 -119 -51 -121 -64 -160
-58 -166 5 -5 27 4 50 19 23 15 60 38 82 51 41 25 273 255 346 344 l40 49 168
1 c92 1 167 1 167 0 0 -2 -14 -25 -31 -52 -28 -46 -36 -52 -112 -81 -218 -81
-303 -141 -355 -250 -21 -45 -26 -70 -26 -135 -1 -70 3 -88 32 -149 45 -95 82
-123 82 -63 0 44 44 130 82 162 46 39 103 65 172 79 113 24 152 54 230 176 44
67 94 117 167 166 l67 44 46 -23 c27 -13 50 -32 55 -47 36 -92 67 -340 42
-340 -7 0 -32 5 -57 11 -74 19 -76 1 -7 -78 99 -114 92 -93 134 -408 12 -94 9
-221 -6 -219 -5 1 -21 5 -34 9 -22 7 -23 5 -17 -21 4 -16 18 -53 32 -83 21
-47 24 -67 24 -177 0 -153 2 -151 -98 -66 -109 92 -280 168 -412 182 -175 20
-170 18 -218 90 -40 60 -51 68 -130 107 -155 75 -170 78 -275 58 -155 -30
-317 -94 -317 -125 0 -4 12 -11 26 -14 31 -8 23 -19 -26 -35 -49 -16 -237
-129 -244 -147 -4 -10 5 -16 34 -20 42 -7 52 -19 23 -28 -23 -7 -65 -47 -127
-119 -94 -110 -103 -169 -22 -146 16 5 32 7 34 4 2 -2 -12 -23 -31 -47 -43
-53 -67 -109 -67 -158 0 -49 7 -53 42 -29 16 12 31 19 33 17 3 -2 -4 -22 -15
-44 -22 -46 -40 -163 -41 -272 0 -79 -12 -131 -22 -102 -3 8 -8 55 -11 105 -7
93 -22 161 -40 182 -7 7 -40 16 -74 19 -34 4 -62 8 -62 9 0 1 21 45 47 96 55
110 62 160 43 320 -7 57 -14 124 -17 149 -4 39 -1 51 21 77 28 34 162 130 208
150 22 10 27 20 33 65 10 76 -7 129 -58 181 -61 61 -136 121 -185 146 -41 21
-42 22 -42 75 0 60 -13 104 -46 157 -19 30 -33 39 -86 54 -93 26 -267 10 -456
-42 -83 -23 -94 -24 -110 -11 -9 8 -49 34 -89 57 -40 23 -75 46 -79 52 -3 6
-6 36 -5 67 0 31 -4 74 -10 94 -14 53 -79 145 -112 159 -51 22 -125 6 -241
-49 -134 -65 -233 -97 -360 -119 -92 -15 -102 -19 -132 -51 -18 -19 -44 -67
-60 -106 -22 -59 -93 -163 -127 -187 -5 -3 -11 -37 -15 -75 l-7 -69 -67 -35
c-101 -53 -188 -130 -247 -216 -28 -42 -51 -84 -51 -95 0 -12 15 -26 39 -39
22 -11 47 -30 56 -42 61 -86 119 -190 216 -384 148 -299 257 -447 372 -505 31
-16 81 -44 110 -63 122 -77 235 -116 340 -116 60 0 68 -2 63 -17 -2 -10 -7
-37 -11 -60 l-6 -41 -57 -5 c-31 -3 -69 -5 -84 -5 -36 0 -105 -45 -146 -94
-43 -53 -41 -62 11 -54 117 18 153 18 240 -3 102 -24 160 -27 176 -8 6 8 15
37 21 66 14 74 22 84 82 101 l53 16 21 -46 c12 -26 35 -62 51 -81 16 -19 46
-65 66 -104 36 -69 44 -92 92 -273 14 -52 27 -98 30 -103 13 -20 27 -7 51 45
41 90 57 276 29 343 -9 20 -12 40 -8 44 5 4 35 0 68 -8 55 -14 64 -14 108 1
l48 17 91 -90 c83 -83 99 -111 62 -111 -8 0 -14 -4 -14 -9 0 -11 25 -21 52
-21 18 0 61 -37 98 -85 29 -38 95 -120 101 -125 3 -3 25 -27 49 -54 41 -44 43
-49 27 -61 -20 -14 -16 -19 25 -29 15 -3 43 -26 64 -54 21 -26 43 -51 49 -57
6 -5 26 -32 45 -60 19 -27 42 -59 52 -69 10 -11 18 -26 18 -33 0 -8 6 -16 13
-18 6 -3 37 -39 67 -80 30 -42 91 -122 136 -178 89 -112 224 -308 224 -325 0
-5 7 -12 15 -16 8 -3 33 -41 54 -85 22 -44 48 -93 59 -108 32 -47 85 -153 79
-159 -5 -5 -49 21 -92 57 -11 9 -47 31 -80 49 -33 17 -67 40 -77 51 -9 10 -25
19 -37 19 -30 0 -88 38 -95 63 -6 19 -7 20 -16 5 -9 -14 -18 -12 -87 26 -124
67 -123 66 -123 110 0 22 5 66 12 97 10 49 9 74 -5 154 -10 53 -25 111 -34
128 -26 51 -279 301 -297 294 -9 -4 -16 -13 -16 -21 0 -11 -25 2 -78 38 -75
51 -185 96 -199 82 -4 -3 1 -22 10 -41 20 -41 8 -46 -38 -15 -42 29 -264 137
-297 145 -33 8 -34 6 -8 -45 11 -22 20 -44 20 -49 0 -14 -289 118 -352 161
-35 24 -42 10 -23 -44 8 -24 15 -46 15 -50 0 -3 -36 6 -79 22 -75 26 -135 55
-225 110 l-39 24 6 -32 c4 -18 2 -32 -3 -32 -5 0 -53 30 -107 66 -124 84 -124
84 -117 43 20 -103 106 -293 150 -330 25 -20 15 -36 -25 -43 -54 -8 -59 -22
-22 -58 17 -17 57 -65 88 -107 53 -71 139 -160 156 -161 4 0 7 -4 7 -10 0 -5
-13 -10 -30 -10 -16 0 -30 -1 -30 -3 0 -14 238 -242 282 -272 63 -41 69 -50
38 -60 -11 -3 -20 -9 -20 -13 1 -24 270 -128 364 -140 60 -8 71 -28 22 -38
-20 -3 -36 -9 -36 -13 0 -10 133 -57 245 -86 119 -32 246 -41 372 -27 136 16
205 59 233 149 17 52 21 55 59 42 29 -10 30 -12 14 -24 -16 -12 -12 -13 27
-12 39 1 64 -9 180 -72 74 -41 160 -90 190 -111 30 -20 87 -55 125 -78 42 -25
92 -67 125 -103 30 -34 60 -67 65 -73 68 -73 114 -154 134 -235 19 -72 41 -93
41 -39 0 79 -109 290 -196 379 -21 22 -33 39 -26 39 20 0 14 23 -33 118 -25
50 -45 93 -45 96 0 4 -79 143 -100 176 -5 8 -19 31 -29 51 -19 34 -206 288
-220 299 -16 12 -51 69 -51 83 0 9 -11 24 -24 34 -23 17 -126 146 -126 158 0
3 8 5 18 5 9 1 -1 10 -23 21 -27 13 -58 45 -95 95 -30 42 -62 83 -70 92 -8 9
-30 36 -48 60 l-34 42 39 0 c28 0 34 3 23 10 -8 5 -28 10 -45 10 -22 0 -36 8
-50 29 -11 16 -64 81 -118 144 -53 63 -97 119 -97 125 0 5 -7 15 -15 22 -8 7
-15 21 -15 31 0 12 -7 19 -19 19 -12 0 -45 29 -83 72 -35 39 -89 100 -122 134
l-59 63 -42 -24 c-74 -44 -163 -32 -234 32 -21 18 -23 28 -19 71 6 62 56 171
97 209 39 37 82 50 197 59 91 7 92 7 109 -20 14 -22 16 -41 12 -114 -3 -48 -9
-98 -12 -112 -4 -17 0 -31 12 -45 10 -11 47 -54 83 -94 36 -41 78 -89 94 -105
58 -63 146 -185 146 -205 0 -14 5 -19 15 -15 10 4 15 0 15 -15 0 -11 10 -27
23 -36 13 -8 47 -44 76 -80 42 -51 51 -69 46 -87 -6 -19 -5 -21 6 -10 20 19
27 15 53 -27 14 -21 46 -65 72 -97 26 -32 50 -72 54 -88 4 -20 13 -32 25 -35
29 -5 39 -15 100 -102 38 -55 55 -88 55 -110 0 -27 2 -30 15 -19 13 11 15 8
15 -14 0 -20 5 -26 17 -24 11 2 34 -22 70 -72 29 -41 86 -118 127 -171 48 -63
76 -110 80 -135 6 -27 10 -34 16 -24 5 8 11 12 13 10 89 -112 192 -269 235
-358 39 -81 113 -205 118 -199 2 2 6 64 8 138 4 130 15 295 35 509 10 109 67
340 103 419 19 42 19 46 4 78 -9 19 -16 43 -16 55 0 20 1 21 20 3 23 -20 32
-16 36 18 4 38 30 137 64 247 18 58 33 124 32 148 -1 23 3 42 8 42 8 0 39 90
105 313 30 101 28 129 -18 230 -16 37 -27 70 -23 74 4 4 29 -5 55 -19 40 -23
51 -25 65 -15 23 17 49 99 70 217 9 52 21 118 26 145 5 28 14 91 20 140 6 50
14 104 17 120 3 17 8 190 10 385 4 305 2 385 -16 568 -11 117 -23 217 -25 221
-3 4 -12 68 -21 142 -9 74 -23 156 -31 183 -16 58 -18 106 -4 106 6 0 10 6 10
14 0 9 -25 23 -63 35 -34 12 -79 32 -98 45 -37 26 -109 134 -109 165 0 10 19
35 43 55 39 35 45 37 91 32 28 -3 58 -14 70 -24 12 -11 59 -43 106 -72 142
-89 158 -111 123 -170 -17 -30 -51 -50 -84 -50 -11 0 -17 -4 -14 -10 3 -5 19
-10 35 -10 26 0 29 -3 35 -52 4 -29 15 -93 26 -143 44 -209 69 -455 71 -688 0
-87 4 -160 9 -162 4 -3 16 14 28 37 11 24 38 61 58 83 21 23 66 76 101 119 35
43 66 75 69 72 3 -2 -22 -43 -56 -90 -150 -208 -212 -327 -190 -367 15 -29 28
-24 99 37 71 61 139 108 146 101 3 -3 -8 -14 -23 -26 -15 -11 -33 -24 -38 -28
-53 -40 -114 -93 -145 -127 -31 -33 -43 -57 -60 -125 -23 -91 -46 -300 -37
-325 9 -24 35 -19 89 15 27 17 50 30 52 28 2 -2 -14 -31 -35 -64 -22 -32 -45
-72 -52 -87 -17 -39 -30 -30 -41 25 -4 26 -12 47 -16 47 -12 0 8 -103 23 -118
12 -12 12 -19 -4 -52 -10 -21 -20 -65 -21 -97 -3 -54 -1 -58 20 -61 19 -3 21
-6 11 -18 -13 -16 -39 -19 -39 -4 0 6 -4 10 -10 10 -5 0 -10 -15 -10 -33 0
-18 -4 -37 -9 -43 -4 -5 -14 -31 -20 -59 -26 -111 -32 -124 -51 -130 -24 -8
-27 -25 -4 -25 11 0 14 -5 9 -17 -4 -10 -11 -34 -16 -53 -4 -19 -24 -80 -44
-135 -41 -113 -105 -330 -105 -357 0 -32 23 -19 98 53 41 38 86 77 100 87 33
20 154 124 201 172 19 19 39 35 45 35 13 0 56 41 56 53 0 13 40 55 85 87 22
16 69 56 105 89 123 111 257 203 273 187 15 -15 -2 -31 -109 -101 -60 -40 -93
-68 -90 -76 3 -8 -2 -18 -12 -23 -9 -5 -38 -29 -63 -53 -25 -23 -101 -92 -169
-153 -139 -124 -272 -255 -333 -330 -23 -27 -61 -72 -85 -100 -24 -27 -63 -88
-87 -135 -93 -188 -225 -554 -225 -627 0 -12 -11 -39 -25 -59 -22 -32 -32 -64
-21 -64 1 0 27 34 57 75 29 41 55 75 57 75 5 0 -3 -37 -25 -113 -14 -49 -20
-56 -36 -51 -17 5 -19 3 -12 -12 8 -20 7 -233 -1 -246 -7 -11 14 -189 29 -244
6 -26 19 -51 28 -57 12 -8 14 -25 11 -93 -5 -98 21 -253 49 -287 17 -21 18
-21 25 -3 4 11 1 56 -6 100 -8 45 -13 116 -12 158 2 72 5 82 47 153 25 42 45
79 45 81 0 9 118 159 144 183 31 29 74 31 112 5 33 -24 45 -31 116 -72 68 -39
154 -54 164 -28 5 13 22 16 91 16 46 0 93 5 104 10 10 6 45 15 76 21 80 15
154 48 151 67 -2 11 9 18 35 24 41 9 88 34 205 109 39 26 78 49 85 52 9 3 9 7
-2 20 -12 15 -8 19 30 35 24 11 68 27 97 36 55 19 71 46 27 46 -14 0 -25 4
-25 9 0 8 71 42 120 56 41 12 50 24 39 51 -5 14 -9 27 -9 28 0 2 28 22 63 44
34 22 89 68 122 101 55 57 59 63 46 83 -11 18 -11 22 0 30 8 4 45 28 83 51 39
24 71 48 73 54 2 6 -10 14 -26 18 -17 4 -31 9 -31 12 0 3 25 32 55 66 30 33
55 64 55 68 0 4 18 37 40 73 42 69 48 92 28 98 -9 3 -5 28 15 96 29 96 33 132
17 132 -5 0 -10 -4 -10 -9 0 -28 -222 -147 -310 -166 -29 -6 -31 -5 -25 14 9
30 -18 37 -52 14 -37 -26 -108 -53 -137 -53 -17 0 -27 9 -36 30 -17 42 -25 44
-58 20 -19 -14 -60 -26 -118 -35 -49 -8 -111 -18 -139 -24 -57 -11 -65 -8 -65
22 0 29 -19 57 -27 39 -10 -26 -45 -50 -101 -70 -31 -11 -65 -23 -74 -27 -16
-6 -18 -1 -18 39 0 25 -2 46 -5 46 -2 0 -28 -18 -57 -39 -49 -38 -225 -113
-240 -104 -5 2 -8 17 -8 34 0 34 -3 35 -38 10 -15 -10 -53 -32 -85 -49 -87
-46 -189 -125 -239 -185 -57 -67 -161 -213 -181 -252 -43 -88 -52 -394 -15
-498 12 -32 25 -60 29 -63 5 -3 -17 -40 -48 -82 -139 -189 -156 -212 -163
-212 -29 0 -41 396 -15 490 8 30 26 94 39 143 13 48 20 90 15 93 -5 3 -21 -7
-35 -21 -14 -14 -29 -23 -32 -20 -4 4 6 41 22 83 16 42 46 128 67 190 51 150
119 279 193 367 34 40 87 104 118 142 32 38 70 75 85 82 16 7 35 17 43 21 8 4
14 17 12 29 -3 17 13 37 60 79 34 31 112 102 173 158 113 104 146 126 203 139
32 7 46 35 17 35 -28 0 -15 16 49 63 48 35 71 46 88 42 18 -4 27 1 42 27 l18
33 10 -25 c5 -14 8 -67 6 -117 -3 -69 -1 -93 8 -93 15 0 40 24 54 51 19 34 30
20 30 -36 l0 -55 75 -56 c95 -71 135 -130 135 -196 0 -62 16 -63 71 -3 144
156 171 178 166 132 -1 -14 3 -22 13 -22 17 0 100 141 100 172 0 35 20 38 26
4 12 -60 29 -58 73 11 23 35 46 81 51 103 19 69 19 69 39 44 l19 -23 31 61
c33 66 71 191 71 234 0 35 8 41 36 22 13 -8 30 -13 38 -10 19 7 28 82 17 139
-6 37 -5 48 4 48 8 0 15 -4 17 -8 5 -12 113 -82 126 -82 8 0 10 15 5 45 -7 55
1 57 64 11 60 -43 262 -148 273 -141 4 2 10 23 14 45 3 22 10 40 15 40 5 0 41
-18 80 -40 77 -44 96 -48 105 -25 5 14 9 14 33 -2 23 -15 49 -18 163 -18 125
0 139 2 190 26 51 24 110 72 110 89 0 4 -26 21 -57 36 -81 41 -148 105 -170
162 -10 26 -17 51 -15 55 1 4 -7 35 -18 69 -11 34 -20 63 -20 65 0 1 11 3 25
3 14 0 25 5 25 11 0 7 -34 51 -75 100 -41 48 -75 90 -75 93 0 8 63 -5 75 -15
12 -12 35 -11 35 0 0 5 -31 42 -69 83 -60 64 -67 76 -53 85 15 9 14 14 -9 49
-15 21 -45 59 -68 82 -38 39 -40 45 -26 56 15 11 8 21 -58 89 -41 42 -78 77
-83 77 -5 0 -20 9 -34 20 -25 19 -25 19 -5 34 11 8 38 30 60 50 22 20 64 55
94 79 52 40 57 42 135 45 96 5 114 15 63 37 -20 8 -37 19 -37 23 0 8 82 62 95
62 4 0 28 15 54 34 102 74 128 79 233 41 76 -28 129 -31 227 -14 79 14 121 39
185 110 70 78 90 89 164 89 60 0 178 26 221 49 40 22 114 113 167 206 36 63
54 164 54 307 l0 136 43 25 c67 40 179 189 157 211 -6 6 -14 6 -22 -1 -21 -15
-159 -66 -164 -60 -3 3 -1 14 4 24 21 38 42 171 32 197 -11 30 -28 34 -37 9
-15 -39 -78 -115 -117 -142 -42 -29 -202 -99 -246 -108 -14 -3 -29 -9 -35 -13
-5 -4 -43 -18 -84 -30 -106 -31 -178 -68 -270 -140 -123 -95 -176 -174 -196
-292 -4 -29 -17 -46 -53 -75 -107 -87 -140 -141 -172 -280 -11 -50 -16 -55
-80 -98 -37 -25 -70 -45 -74 -45 -3 0 -6 12 -6 28 0 29 -19 63 -26 47 -58
-128 -65 -138 -181 -215 -62 -41 -118 -81 -125 -87 -18 -19 -35 -16 -41 8 -7
24 -27 16 -27 -10 0 -33 -39 -107 -62 -119 -20 -11 -35 -8 -100 17 -42 17
-105 35 -140 42 -35 7 -66 15 -71 19 -4 3 11 16 33 29 22 12 40 26 40 31 0 16
-103 41 -195 47 -108 6 -194 -11 -299 -61 -160 -76 -184 -88 -202 -104 -30
-27 -165 -126 -213 -157 -34 -21 -67 -30 -148 -41 -184 -24 -263 -48 -518
-158 -82 -35 -219 -114 -292 -167 -103 -75 -99 -47 26 165 100 170 261 352
405 457 64 47 113 41 255 -30 148 -73 220 -84 347 -52 136 35 176 57 139 78
-10 6 24 16 102 31 129 25 206 53 283 102 46 29 51 36 46 60 -4 25 -1 29 37
44 66 26 252 130 252 141 0 6 -10 11 -22 13 -42 6 -36 15 67 89 79 56 211 183
204 194 -3 5 -25 9 -50 9 -24 0 -44 2 -44 4 0 10 75 134 106 174 53 70 70 145
26 114 -44 -30 -219 -98 -229 -88 -2 2 0 20 5 40 7 22 7 38 1 42 -5 3 -39 -2
-74 -11 -86 -21 -185 -12 -185 17 0 14 -5 18 -17 14 -17 -5 -184 -26 -211 -26
-9 0 -11 7 -7 22 8 24 23 24 -174 -6 -52 -8 -106 -13 -120 -10 -59 12 -152
-15 -294 -84 -124 -60 -151 -78 -209 -137 l-66 -67 -16 30 c-14 27 -34 42 -56
42 -4 0 -11 -12 -15 -27 -8 -35 -45 -98 -83 -141 -26 -30 -66 -107 -88 -167
-5 -16 -8 -13 -16 20 -15 65 -4 103 73 259 78 156 94 175 169 196 91 26 139
70 304 275 113 141 115 143 209 190 275 140 307 167 520 435 129 163 179 212
251 248 35 18 68 32 73 32 14 0 63 50 63 64 0 33 -32 237 -46 291 -17 66 -52
169 -86 248 -28 67 -105 187 -120 187 -8 0 -9 3 -2 10 25 25 130 -35 206 -116
31 -34 84 -128 131 -234 17 -39 61 -195 71 -252 7 -37 5 -40 -81 -125 -127
-126 -190 -230 -218 -358 -14 -65 -5 -93 19 -59 13 17 14 10 9 -59 -6 -76 13
-257 27 -257 4 0 17 14 30 30 13 17 26 30 31 30 4 0 7 -21 8 -47 0 -81 75
-275 106 -276 6 0 16 13 24 28 15 31 23 26 40 -31 8 -24 37 -66 72 -103 32
-35 59 -67 59 -72 0 -15 38 -10 44 6 9 25 22 17 41 -24 9 -22 33 -54 52 -73
l34 -33 18 24 18 23 12 -30 c13 -32 15 -33 126 -61 39 -10 90 -27 113 -36 50
-21 67 -10 54 35 -11 39 -6 188 8 231 12 34 15 37 41 32 41 -8 45 13 20 96
-12 38 -21 72 -21 76 0 3 16 3 36 -1 36 -7 36 -6 30 22 -3 16 -8 55 -12 87 -6
54 -5 57 16 57 24 0 24 -5 3 148 -5 41 -4 42 22 42 l28 0 -7 64 c-6 60 -49
184 -81 233 -17 25 -14 27 68 39 26 3 47 10 47 15 0 41 -75 108 -165 147 -125
53 -278 102 -358 112 -47 7 -112 19 -143 29 l-58 17 -52 104 c-29 58 -75 152
-103 210 -76 157 -100 197 -152 253 l-48 52 76 3 c76 3 76 3 115 -34 21 -21
45 -58 54 -83 79 -217 118 -273 261 -383 65 -49 90 -47 68 6 -16 37 -6 56 16
30 29 -36 245 -161 257 -149 3 3 -2 24 -11 47 -9 23 -15 43 -13 45 2 2 25 -11
52 -29 79 -53 140 -82 157 -75 14 5 16 15 10 52 -4 31 -2 45 6 45 6 0 58 -22
114 -49 56 -28 119 -53 139 -57 l38 -6 -15 29 c-8 17 -18 44 -21 61 l-6 31 63
-15 c88 -21 158 -34 180 -34 25 0 24 25 -2 62 -26 36 -19 45 26 30 98 -36 176
-24 279 42 31 20 61 36 66 36 6 0 10 5 10 10 0 6 -6 10 -12 10 -32 0 -88 22
-114 46 -16 14 -50 44 -76 66 -27 23 -48 45 -48 49 0 4 17 9 37 11 20 2 38 8
40 14 2 7 -36 40 -84 75 -113 80 -108 75 -94 93 16 19 8 32 -37 56 -20 12 -59
34 -87 50 -27 16 -72 37 -100 46 -59 19 -79 34 -47 34 46 0 18 26 -64 60 -92
38 -89 33 -68 107 5 20 1 22 -52 29 -32 4 -120 7 -196 8 -126 1 -170 10 -118
23 11 3 20 14 20 24 0 16 -8 17 -107 13 -145 -7 -230 -28 -338 -81 -49 -25
-92 -49 -95 -53 -3 -5 -56 -42 -119 -84 -104 -70 -117 -76 -165 -76 -28 0
-114 -9 -190 -20 -118 -16 -144 -17 -165 -6 -14 8 -41 17 -58 21 -18 3 -33 12
-33 20 0 18 22 79 57 155 17 36 42 98 58 138 31 84 32 84 104 121 56 28 76 51
46 51 -9 0 -25 -5 -37 -11 -32 -17 -33 -3 -1 48 17 26 49 80 71 118 22 39 50
76 61 82 19 12 25 7 70 -52 45 -60 50 -72 61 -152 7 -47 10 -112 6 -145 -6
-62 -3 -67 30 -40 27 23 40 48 66 125 31 95 35 191 10 268 -39 120 -39 119 24
161 36 25 56 33 59 25 2 -6 13 -92 23 -190 20 -181 38 -242 90 -303 27 -32
124 -95 141 -92 26 5 24 36 -4 70 -23 28 -26 38 -21 76 3 24 20 78 37 120 48
120 49 161 4 265 -21 48 -36 90 -33 93 4 3 57 -14 120 -37 106 -41 119 -43
205 -42 190 4 287 39 457 167 85 63 107 76 150 81 132 16 144 22 234 114 45
47 93 100 104 118 22 31 24 31 113 35 102 3 173 31 209 81 32 44 35 208 6 313
-37 135 -80 196 -228 324 l-64 55 26 46 c44 78 86 190 86 229 0 21 -7 74 -15
117 -18 91 -19 137 -5 163 7 14 5 34 -11 76 -17 46 -21 72 -17 140 6 112 -6
122 -192 164 -158 35 -183 41 -223 56 -20 8 -70 14 -110 15 l-72 0 -41 52
c-22 29 -75 97 -116 152 -42 55 -90 111 -108 125 -38 29 -143 70 -181 70 -14
0 -53 11 -87 25 -34 14 -78 25 -98 25 -24 0 -56 12 -93 34 -116 70 -182 92
-236 79z m108 -59 c37 -19 146 -97 146 -104 0 -3 -23 -21 -51 -40 -144 -97
-225 -189 -274 -311 -47 -116 -64 -197 -64 -307 0 -91 4 -112 30 -181 17 -44
40 -90 50 -104 11 -14 61 -107 111 -207 193 -388 235 -590 169 -819 -32 -114
-36 -122 -110 -201 l-52 -55 8 35 c13 57 5 147 -21 244 -69 262 -123 357 -315
561 -47 49 -106 113 -130 140 -24 28 -98 107 -163 177 -139 147 -167 186 -207
290 -25 63 -30 93 -31 170 -2 80 8 164 28 232 10 34 116 126 146 126 25 0 20
19 -8 32 -14 6 -25 17 -25 23 0 35 104 80 230 101 84 13 86 14 129 65 55 64
106 96 196 125 85 27 164 30 208 8z m347 -131 c30 -9 75 -22 99 -29 25 -8 52
-14 61 -14 30 0 93 -64 156 -160 35 -54 83 -119 106 -145 40 -46 43 -52 43
-111 0 -34 -3 -65 -6 -69 -4 -3 -22 3 -40 14 -41 23 -76 33 -239 66 -244 49
-378 82 -438 107 -61 25 -102 23 -177 -11 -36 -16 -67 -26 -69 -22 -3 4 13 43
34 87 44 87 133 185 236 259 80 57 113 61 234 28z m-1366 -342 c23 -10 54 -24
70 -30 25 -10 28 -15 22 -46 -4 -19 -7 -82 -7 -139 0 -134 35 -245 115 -362
14 -21 22 -43 18 -49 -7 -12 -75 -95 -97 -119 -22 -24 -75 -114 -75 -127 0 -8
-7 -25 -16 -37 -66 -94 -95 -366 -55 -522 11 -46 39 -120 60 -164 22 -45 38
-83 36 -84 -9 -9 -169 120 -248 200 -75 76 -96 104 -133 183 -54 114 -93 237
-103 330 -9 80 2 222 23 310 19 74 46 306 46 386 0 60 -12 124 -36 192 -12 37
-12 38 14 49 118 48 293 62 366 29z m1101 -27 c32 -16 186 -55 400 -99 254
-53 261 -56 353 -141 56 -51 56 -52 60 -118 4 -54 -1 -82 -22 -144 -15 -42
-32 -85 -37 -94 -5 -10 -9 -29 -9 -43 0 -36 -13 -31 -67 26 -50 54 -108 88
-185 109 -27 7 -48 16 -48 21 0 4 5 31 11 58 8 37 7 65 -1 106 -11 51 -16 58
-68 96 -74 53 -174 99 -292 134 l-94 28 -96 -23 c-52 -13 -101 -29 -108 -35
-33 -30 42 -189 134 -283 35 -36 62 -67 60 -69 -9 -9 -73 27 -96 54 -171 201
-197 333 -77 395 73 37 138 45 182 22z m990 -73 c33 -6 119 -25 190 -43 l130
-33 6 -90 c3 -50 12 -105 18 -122 11 -27 10 -41 -3 -81 -15 -45 -15 -52 4
-127 36 -142 19 -253 -56 -370 -50 -76 -63 -85 -119 -85 -46 0 -60 -6 -121
-49 -38 -27 -118 -89 -179 -138 -87 -70 -121 -106 -170 -176 l-60 -88 -7 208
c-4 114 -5 244 -2 287 6 75 8 81 42 111 19 18 32 37 28 43 -6 11 31 82 43 82
4 0 12 -20 19 -45 7 -25 17 -45 22 -45 6 0 8 11 3 28 -16 59 -7 146 24 242 17
52 34 127 38 165 6 62 4 78 -20 137 -15 37 -33 72 -41 79 -9 7 -14 31 -14 65
l0 53 38 4 c50 6 115 2 187 -12z m-850 -56 c80 -26 197 -83 247 -119 38 -27
54 -104 36 -178 l-13 -53 -65 -22 c-67 -23 -154 -30 -164 -14 -4 5 7 12 24 16
52 11 109 112 95 168 -10 39 -38 58 -103 72 -69 14 -189 12 -204 -3 -8 -8 -1
-26 21 -61 18 -27 38 -55 46 -61 18 -15 60 -6 109 24 35 21 37 24 22 39 -17
17 -48 16 -110 -4 -32 -10 -46 0 -46 34 0 14 10 17 63 17 79 0 161 -28 165
-56 2 -12 -5 -45 -16 -75 -15 -46 -23 -56 -53 -66 -109 -38 -188 2 -292 149
-47 67 -93 176 -80 189 4 4 39 16 76 26 80 22 121 18 242 -22z m-396 -153 c31
-87 144 -196 221 -215 14 -3 68 -17 120 -31 113 -31 225 -35 294 -12 26 9 62
16 82 16 44 0 139 -48 182 -93 l33 -34 -35 -94 c-19 -52 -37 -112 -41 -134 -4
-22 -9 -159 -10 -305 -2 -229 -5 -277 -24 -353 -24 -99 -36 -126 -99 -217 -56
-80 -80 -101 -157 -139 -110 -54 -239 -79 -500 -97 l-80 -6 40 25 c58 37 195
178 233 240 74 122 112 304 92 431 -11 67 -39 166 -60 211 -5 11 -25 63 -45
115 -33 84 -93 205 -233 471 -43 82 -59 165 -47 239 4 22 8 40 10 40 1 0 12
-26 24 -58z m-537 -389 c69 -64 78 -73 188 -193 169 -184 266 -313 299 -399
11 -27 34 -74 50 -103 45 -80 96 -215 110 -290 11 -58 11 -76 -4 -135 -9 -37
-26 -82 -37 -100 -30 -51 -94 -96 -138 -99 -22 -1 -48 -5 -59 -9 -26 -8 -112
26 -276 110 -260 132 -330 199 -406 386 -32 79 -59 217 -59 299 1 89 44 245
91 327 19 32 46 81 60 108 26 49 107 145 121 145 4 0 31 -21 60 -47z m2084
-402 c19 -12 38 -21 42 -21 18 -1 110 -102 169 -186 28 -40 48 -102 64 -196
16 -94 0 -175 -42 -223 -27 -30 -28 -30 -138 -31 -107 0 -112 -1 -128 -25 -9
-13 -19 -26 -23 -29 -3 -3 -21 -25 -40 -50 -63 -81 -84 -101 -145 -138 -52
-31 -69 -36 -130 -38 -129 -2 -135 -3 -135 -19 0 -38 -129 -140 -229 -180 -73
-30 -258 -50 -323 -35 -87 19 -284 106 -412 180 l-60 34 65 12 c35 6 107 14
159 18 52 3 122 13 155 22 33 8 81 21 107 28 26 7 84 35 129 62 62 38 85 57
96 84 9 19 18 37 22 40 8 6 71 110 71 117 0 3 25 43 55 88 30 46 55 88 55 94
0 25 126 160 230 246 25 20 54 44 65 53 67 56 113 89 144 104 46 21 130 16
177 -11z m-2461 -724 c22 -15 53 -37 68 -50 62 -48 104 -77 141 -98 38 -20 40
-21 75 -4 20 10 60 26 88 36 l52 18 61 -27 61 -26 -43 -13 c-24 -7 -108 -29
-186 -49 -173 -43 -179 -42 -251 56 -61 81 -130 145 -177 162 -50 18 -41 31
19 26 34 -3 66 -14 92 -31z m-902 -28 c49 -26 106 -81 146 -142 42 -65 72 -86
161 -112 43 -13 122 -56 180 -98 86 -63 202 -187 232 -248 85 -174 93 -203
109 -399 9 -114 9 -166 0 -219 -6 -39 -11 -88 -11 -109 0 -37 -7 -47 -84 -126
-122 -124 -211 -246 -246 -338 -17 -43 -30 -86 -30 -96 0 -10 -14 -58 -30
-107 -17 -49 -32 -115 -34 -147 -3 -32 -7 -62 -10 -67 -3 -5 -10 -71 -16 -146
-9 -136 -10 -139 -51 -209 -59 -102 -92 -150 -109 -161 -16 -10 -58 -23 -190
-56 -188 -46 -211 -60 -360 -209 -173 -172 -282 -270 -384 -342 -109 -78 -131
-89 -201 -104 -84 -19 -151 -17 -293 6 -142 24 -261 68 -467 175 -165 86 -218
120 -282 184 -51 51 -141 177 -154 216 -4 11 -35 99 -69 195 -34 96 -68 202
-76 235 -8 33 -21 91 -30 129 -8 38 -29 99 -45 135 -30 66 -107 176 -117 166
-3 -3 4 -15 15 -28 60 -65 143 -275 143 -361 0 -76 84 -352 159 -522 12 -26
19 -49 17 -51 -7 -8 -122 -4 -191 6 -74 11 -197 45 -230 63 -79 45 -175 103
-203 123 -82 58 -219 282 -275 447 -49 143 -51 164 -52 563 -2 416 1 393 -66
507 -18 29 -48 82 -67 118 -19 36 -40 73 -45 82 -15 24 0 37 95 86 109 55 165
68 335 77 l141 7 74 -37 c128 -65 233 -152 404 -336 115 -123 126 -138 199
-282 145 -284 186 -335 338 -428 151 -91 285 -142 467 -179 128 -25 168 -38
335 -105 152 -61 374 -176 421 -218 46 -40 167 -193 193 -244 11 -23 21 -53
21 -65 0 -31 15 -52 30 -43 6 4 27 30 46 59 19 28 44 65 55 81 41 60 100 161
124 211 23 47 25 65 29 230 4 163 2 187 -19 276 -23 92 -66 194 -120 283 -23
39 -23 41 -9 115 7 41 21 92 29 114 9 21 14 40 11 43 -8 8 -46 -108 -52 -162
-4 -30 -10 -55 -14 -55 -16 0 -78 137 -83 185 -9 79 6 144 39 175 48 44 74 87
74 123 0 25 -6 37 -22 45 -40 19 -130 42 -169 42 -43 0 -56 12 -34 30 33 28
15 121 -51 255 -34 69 -64 112 -130 183 -91 98 -116 110 -151 73 -40 -42 -214
-117 -313 -136 -19 -4 -87 -12 -150 -20 -138 -16 -146 -18 -199 -45 -42 -21
-169 -123 -184 -147 -18 -30 -24 -6 -30 123 -10 217 8 263 126 323 l64 32 184
-3 c201 -3 186 -7 286 65 29 20 55 37 58 37 3 0 28 15 55 33 170 112 301 176
445 217 126 36 268 49 308 29z m1522 -151 c27 -12 30 -19 16 -46 -5 -9 -15
-37 -23 -62 -14 -44 -16 -46 -89 -71 -41 -14 -92 -35 -114 -46 -22 -11 -62
-26 -90 -33 -72 -19 -105 -37 -149 -84 -33 -35 -37 -37 -31 -16 20 69 50 103
125 145 41 22 101 51 132 64 67 27 82 42 99 99 8 29 19 44 33 47 54 11 61 13
63 14 1 0 14 -4 28 -11z m186 -53 c89 -3 138 -26 207 -100 23 -25 46 -45 51
-45 16 0 61 -76 95 -160 l34 -83 -30 -81 c-16 -45 -37 -118 -47 -164 l-17 -83
-22 24 c-48 51 -67 139 -99 452 -5 56 -10 64 -62 120 -66 71 -76 77 -67 41 5
-20 -2 -43 -26 -89 -18 -34 -37 -65 -43 -69 -19 -13 -10 -92 19 -167 27 -68
28 -81 23 -165 -6 -88 -22 -156 -36 -156 -4 0 -7 36 -8 81 -2 88 -24 148 -84
237 -36 52 -37 73 -11 147 12 37 17 80 16 163 -1 100 1 112 15 106 9 -4 50 -8
92 -9z m-131 -125 c-1 -25 -11 -85 -24 -135 -20 -76 -27 -90 -49 -98 -16 -5
-36 -29 -57 -70 -18 -34 -41 -73 -50 -87 -9 -14 -34 -56 -55 -95 -53 -98 -57
-103 -77 -108 -11 -3 -16 -11 -12 -20 3 -8 -10 -46 -30 -84 -29 -58 -41 -72
-75 -88 -23 -10 -41 -22 -41 -27 0 -5 9 -4 19 2 29 15 50 12 28 -4 -11 -9 -14
-17 -8 -20 10 -6 -31 -140 -48 -158 -3 -4 -29 -4 -56 0 -63 9 -67 25 -25 113
16 35 30 70 30 77 0 7 7 15 15 18 8 4 15 16 15 28 0 11 18 48 40 81 22 32 41
64 43 70 2 6 10 5 20 -4 19 -15 22 -8 7 19 -12 23 33 120 56 120 8 0 14 10 14
24 0 30 19 44 32 25 6 -9 7 -3 3 19 -6 27 0 42 36 95 125 181 118 167 108 221
-5 28 -6 53 -2 56 5 4 27 13 51 20 34 11 46 21 58 49 12 28 17 33 24 21 5 -8
10 -35 10 -60z m-3378 20 c123 -15 143 -27 183 -112 19 -40 41 -99 49 -130 18
-70 23 -283 8 -358 -6 -30 -16 -86 -22 -125 -18 -113 -21 -125 -30 -125 -11 0
-109 66 -137 93 -13 11 -25 18 -28 15 -6 -6 52 -60 98 -91 58 -40 117 -90 216
-187 156 -152 212 -271 251 -530 16 -107 29 -160 46 -198 9 -19 14 -36 11 -38
-3 -3 -36 0 -73 6 -336 56 -523 166 -628 371 -21 41 -49 92 -62 114 -12 22
-38 68 -56 102 -42 79 -108 158 -278 332 -124 127 -221 210 -281 241 -13 7
-43 28 -66 46 l-41 34 19 51 c29 74 87 186 129 249 74 109 120 151 205 191 70
33 110 44 225 63 30 5 156 -2 262 -14z m1216 -224 c15 -8 47 -38 72 -68 24
-29 52 -58 60 -65 9 -6 31 -42 49 -80 18 -37 37 -75 41 -84 18 -34 33 -136 26
-172 -8 -44 -23 -47 -64 -12 -34 28 -82 50 -197 89 -79 27 -151 64 -177 89
-63 63 -311 100 -418 62 -23 -8 -52 -15 -64 -15 -25 0 -171 -70 -202 -97 -11
-10 -29 -31 -38 -46 -10 -15 -22 -27 -27 -27 -52 0 121 172 226 225 64 33 85
38 176 45 114 9 213 28 301 59 67 23 188 89 188 102 0 13 17 11 48 -5z m-349
-266 c88 -19 145 -43 170 -74 12 -14 113 -59 219 -96 35 -13 90 -41 123 -63
54 -36 67 -41 148 -48 96 -9 161 -30 161 -51 0 -17 -28 -57 -60 -85 -38 -34
-104 -57 -146 -50 -45 8 -138 -36 -201 -94 -24 -22 -47 -39 -52 -39 -5 0 -20
14 -32 31 -21 30 -22 34 -8 78 8 25 14 86 14 135 l0 88 -39 34 c-21 18 -52 36
-70 40 -17 3 -71 26 -119 51 -110 55 -194 77 -256 68 -53 -7 -159 -54 -209
-93 -32 -24 -128 -141 -121 -146 2 -1 15 -7 29 -14 14 -6 32 -16 40 -21 52
-32 208 -75 315 -86 73 -8 147 7 197 40 35 23 38 24 47 7 5 -9 12 -33 15 -52
14 -75 51 -200 59 -200 5 0 7 12 3 28 -3 15 -12 77 -21 137 -23 161 -22 160
-73 211 -73 71 -107 83 -253 85 -102 2 -134 -2 -184 -19 -33 -11 -62 -19 -64
-17 -8 8 45 44 116 79 115 57 204 49 361 -34 43 -22 103 -51 134 -64 55 -24
57 -26 64 -71 10 -71 -1 -153 -30 -226 -14 -36 -26 -82 -26 -101 0 -34 -3 -37
-47 -52 -63 -22 -102 -20 -256 9 -73 13 -157 29 -188 35 -59 11 -197 77 -239
114 -14 12 -51 42 -83 66 -50 37 -57 47 -53 69 3 14 8 49 11 76 8 61 21 98 54
150 65 101 174 149 406 178 17 2 35 5 41 6 6 0 52 -8 103 -19z m-4375 -110
c42 -45 158 -92 260 -104 53 -7 58 -6 52 9 -3 9 -9 27 -12 40 -5 21 -4 22 33
15 74 -14 152 -41 187 -65 41 -28 52 -20 31 21 -8 16 -15 33 -15 37 0 15 62
-4 180 -55 63 -27 121 -52 129 -56 11 -4 13 2 8 31 -4 27 -2 37 7 37 29 0 237
-123 279 -165 14 -14 37 -21 37 -11 0 3 -4 16 -10 30 -29 76 53 7 134 -112 27
-40 51 -71 53 -68 3 2 0 19 -5 38 -20 65 -33 131 -26 137 3 3 33 -23 65 -58
87 -94 161 -261 139 -313 -33 -74 -96 -156 -121 -158 -4 0 -31 22 -60 50 -30
27 -62 50 -71 50 -9 0 -20 9 -23 20 -4 11 -10 18 -14 16 -4 -3 -31 1 -59 9
-58 15 -80 4 -29 -14 71 -27 125 -59 189 -114 38 -32 68 -64 68 -72 0 -18
-110 -177 -159 -228 -47 -51 -97 -75 -171 -86 -60 -8 -88 2 -59 20 22 13 4 20
-25 9 -29 -11 -176 -14 -176 -4 0 3 18 27 40 52 25 27 40 54 38 66 -3 22 -28
35 -28 14 0 -48 -178 -65 -285 -27 -33 11 -64 24 -69 29 -5 5 1 21 13 38 30
42 27 49 -24 56 -44 7 -165 78 -165 97 0 5 18 18 40 29 38 20 58 49 23 36 -27
-11 -105 21 -150 61 -23 21 -67 60 -98 87 -30 27 -52 52 -49 55 3 3 24 10 47
16 22 5 42 15 44 21 2 5 -14 20 -36 32 -57 32 -175 163 -210 234 -29 56 -31
69 -31 163 0 56 3 104 6 108 8 8 42 -15 78 -53z m4366 -108 c23 -11 36 -25 39
-42 3 -24 3 -25 -17 -7 -12 11 -43 21 -74 24 -47 5 -62 1 -113 -25 -55 -28
-80 -46 -113 -86 -11 -14 -17 -14 -59 3 -81 32 -83 66 -8 105 62 32 123 45
220 45 67 1 99 -4 125 -17z m-34 -53 c24 -6 44 -17 44 -24 0 -19 -76 -65 -109
-65 -17 0 -34 -7 -38 -15 -7 -12 -16 -13 -48 -4 -76 21 -70 40 28 89 69 34 64
34 123 19z m3314 -14 c0 -3 -7 -17 -16 -30 -9 -13 -13 -28 -10 -33 2 -4 42 -4
88 1 113 11 328 -4 328 -24 0 -4 -12 -21 -26 -38 l-26 -31 27 0 c14 0 43 -9
65 -20 22 -11 46 -20 55 -20 20 0 19 -20 -2 -36 -17 -13 -17 -15 0 -28 10 -8
35 -17 55 -21 35 -6 173 -70 214 -99 20 -14 19 -15 -8 -18 -34 -4 -48 -38 -15
-38 20 0 191 -109 191 -122 0 -5 -22 -8 -50 -8 -51 0 -67 -13 -30 -25 11 -3
54 -39 97 -80 42 -41 92 -82 110 -92 18 -10 33 -21 33 -26 0 -13 -103 -57
-136 -57 -17 0 -57 9 -89 20 -60 21 -120 26 -129 12 -2 -4 4 -27 14 -50 l19
-43 -52 7 c-29 3 -77 13 -107 20 -30 8 -64 14 -76 14 -20 0 -21 -3 -14 -35 4
-20 14 -42 20 -51 27 -31 -3 -24 -102 25 -57 28 -110 51 -119 51 -17 0 -29
-27 -29 -68 0 -19 -4 -22 -22 -17 -31 9 -82 43 -148 98 -30 25 -59 43 -63 40
-5 -3 -7 -30 -4 -59 3 -30 4 -54 1 -54 -15 0 -122 79 -161 119 -27 27 -59 52
-72 56 -24 7 -24 7 -18 -44 3 -28 3 -53 -1 -55 -13 -8 -115 95 -164 164 -31
43 -57 98 -79 165 -27 81 -41 109 -77 148 l-45 47 -213 0 c-136 0 -214 4 -214
10 0 6 19 10 43 10 23 0 59 5 81 11 30 8 41 8 46 -2 6 -9 59 -10 232 -5 l223
7 32 -68 c51 -109 209 -333 235 -333 5 0 -14 27 -42 60 -99 120 -204 299 -198
338 3 16 -12 17 -212 15 -197 -2 -209 -1 -145 10 71 13 118 35 167 82 15 14
55 42 90 62 34 20 77 47 96 60 40 26 76 37 211 62 104 20 141 24 141 16z
m-2631 -214 c27 -7 43 -45 65 -151 8 -36 28 -88 45 -115 39 -64 95 -179 111
-230 7 -22 23 -70 36 -107 13 -38 30 -96 38 -131 16 -69 24 -337 11 -376 -4
-14 -27 -58 -51 -99 -24 -40 -44 -77 -44 -82 0 -5 -15 -28 -33 -52 -18 -24
-45 -60 -59 -81 l-25 -38 -23 53 c-33 79 -87 155 -160 226 -82 80 -161 132
-320 210 -127 62 -169 78 -320 127 -47 15 -90 32 -96 39 -19 19 -52 127 -69
226 -41 237 -78 382 -105 415 -19 23 2 24 80 5 41 -10 120 -26 175 -35 55 -10
124 -23 154 -31 61 -16 94 -11 209 33 57 21 90 42 137 85 66 62 163 119 199
117 11 -1 32 -4 45 -8z m1396 -72 c22 -6 60 -19 84 -30 24 -11 66 -29 93 -40
106 -42 180 -113 214 -208 9 -25 38 -100 64 -166 47 -118 77 -246 81 -335 2
-64 1 -70 -16 -70 -23 0 -144 -57 -180 -84 -17 -14 -52 -55 -78 -93 -52 -76
-231 -295 -295 -359 -68 -69 -165 -122 -312 -171 -97 -33 -128 -51 -146 -88
-8 -16 -30 -48 -50 -69 -20 -22 -42 -53 -51 -70 -27 -52 -91 -140 -124 -171
-75 -69 -231 -140 -346 -156 -37 -6 -99 -15 -138 -21 -128 -19 -348 -20 -538
-2 -100 9 -202 18 -226 20 -24 2 -46 5 -48 8 -10 10 9 26 32 26 13 0 54 21 90
46 37 25 77 49 89 54 11 4 46 30 77 56 30 27 82 71 115 98 32 28 88 82 124
120 195 211 205 217 528 302 61 16 114 43 157 79 28 24 29 25 8 25 -22 0 -32
15 -15 22 5 2 24 28 44 58 85 129 157 187 325 267 52 25 93 47 90 49 -8 8
-114 -34 -175 -71 -35 -20 -88 -57 -118 -81 -29 -24 -56 -44 -59 -44 -3 0 -4
60 -2 133 4 129 5 135 40 207 20 41 66 110 102 153 37 43 65 81 62 83 -5 6
-100 -97 -139 -150 -35 -48 -36 -28 -4 56 12 35 26 81 30 103 10 49 63 162
115 240 49 74 165 205 223 250 42 34 45 35 138 35 52 0 113 -5 135 -11z
m-4215 -194 c0 -9 -8 -18 -17 -21 -10 -4 -31 -12 -48 -19 -16 -7 -53 -22 -82
-33 -81 -30 -208 -110 -263 -164 -41 -40 -50 -45 -50 -29 0 12 -4 21 -9 21
-38 0 -392 -307 -489 -424 -18 -22 -35 -36 -38 -33 -11 11 128 162 272 296 41
39 75 74 76 78 2 13 109 83 243 158 55 31 118 67 140 80 22 14 76 38 120 55
44 17 89 35 100 40 31 13 45 12 45 -5z m-536 -344 c4 -5 -4 -35 -16 -66 -16
-43 -34 -67 -77 -103 -31 -26 -65 -56 -77 -67 -12 -11 -53 -47 -93 -79 -56
-46 -78 -72 -101 -121 -17 -35 -30 -68 -30 -75 0 -22 -34 -5 -53 28 -17 28
-18 37 -7 63 33 78 200 251 359 371 80 60 86 63 95 49z m5532 -141 c4 -21 14
-45 23 -52 26 -22 108 -46 229 -68 104 -18 276 -77 382 -130 39 -20 87 -67 77
-76 -3 -3 -35 -9 -70 -11 -72 -6 -72 -6 -21 -78 35 -49 86 -165 91 -206 l6
-39 -46 0 -45 0 18 -57 c30 -101 32 -113 15 -113 -8 0 -24 6 -35 13 -17 10
-22 9 -30 -3 -13 -21 -12 -30 4 -30 14 0 28 -29 44 -92 13 -46 6 -52 -28 -28
-16 11 -31 20 -34 20 -12 0 -5 -67 14 -135 24 -87 24 -85 0 -85 -29 0 -44 -67
-43 -195 l2 -110 -68 135 c-37 74 -93 183 -124 241 -31 58 -54 108 -51 111 3
3 24 1 47 -5 28 -7 57 -26 90 -59 26 -26 55 -48 63 -48 10 0 1 14 -23 36 -53
51 -101 81 -150 94 -48 12 -61 32 -108 156 l-25 67 90 -7 c50 -4 102 -11 117
-17 14 -5 28 -7 31 -5 11 12 -59 29 -148 37 -52 4 -95 8 -95 9 0 0 -10 19 -22
43 -12 23 -33 77 -46 120 l-25 77 22 0 c11 -1 39 -8 61 -16 22 -9 84 -31 139
-50 54 -18 127 -49 162 -68 35 -18 64 -30 64 -25 0 13 -108 65 -196 95 -42 14
-101 36 -131 50 -31 13 -64 24 -75 24 -31 0 -58 19 -58 41 0 25 -29 130 -40
144 -4 6 -10 22 -12 38 -6 30 3 33 62 17 55 -14 217 -76 242 -92 13 -8 50 -25
83 -37 33 -12 75 -31 93 -41 17 -11 32 -15 32 -10 0 6 -30 24 -67 40 -38 17
-93 43 -123 59 -30 16 -78 36 -106 44 -28 8 -64 22 -80 29 -16 8 -55 20 -86
27 -65 14 -54 -4 -97 168 -24 94 -24 93 -11 93 5 0 13 -18 16 -40z m-5526 -35
c-5 -27 -8 -70 -8 -95 1 -38 2 -36 8 20 5 36 13 77 19 92 9 25 13 26 43 17 18
-5 71 -14 118 -20 107 -13 172 -48 235 -127 24 -31 45 -63 45 -69 0 -9 -17
-13 -51 -13 -37 0 -49 -3 -45 -12 3 -7 9 -20 12 -28 3 -8 45 -49 93 -90 48
-41 97 -87 110 -102 l23 -28 -31 0 c-37 0 -39 -9 -8 -38 34 -32 96 -161 103
-215 8 -54 -2 -59 -37 -23 -13 14 -27 22 -31 20 -11 -7 -10 -44 0 -44 28 0 41
-115 26 -238 l-7 -64 -45 7 -44 7 7 -127 7 -127 -30 6 c-29 7 -30 6 -45 -51
-21 -80 -38 -120 -69 -173 -44 -76 -122 -170 -140 -170 -4 0 6 38 22 86 32 94
50 202 50 300 0 35 4 64 9 64 6 0 26 -17 45 -37 20 -21 36 -33 36 -27 0 13
-46 63 -72 79 -9 6 -19 20 -23 33 -11 37 19 27 69 -25 25 -25 46 -42 46 -36 0
17 -73 89 -97 97 -15 5 -24 17 -27 39 -3 18 -10 65 -16 105 -7 40 -9 76 -6 79
15 15 157 -121 187 -179 19 -37 39 -57 39 -40 0 32 -113 160 -195 222 -42 31
-54 48 -73 101 -39 108 -39 109 -1 109 19 -1 59 -9 89 -20 76 -27 86 -24 20 5
-32 14 -75 24 -102 25 -27 0 -48 2 -48 4 0 2 -3 12 -7 22 -6 15 -1 17 51 10
84 -9 181 -62 170 -91 -3 -7 3 -16 13 -19 10 -3 34 -19 53 -36 61 -52 50 -32
-24 41 -80 81 -133 109 -216 116 -50 5 -60 9 -70 32 -13 28 -50 141 -50 154 0
12 37 8 116 -13 42 -12 78 -19 81 -17 4 5 -150 49 -180 52 -9 1 -21 6 -26 11
-14 14 -82 194 -88 231 -6 36 -19 41 -49 17 -18 -14 -18 -15 4 -4 17 8 23 8
25 -2 2 -7 13 -41 24 -76 l20 -63 -21 -17 c-11 -9 -28 -26 -36 -37 -14 -19
-14 -19 5 -5 11 8 26 21 33 28 19 17 32 15 32 -6 0 -10 -22 -40 -50 -67 -27
-27 -50 -54 -50 -59 0 -6 22 11 48 37 26 26 53 47 59 47 11 0 63 -118 63 -144
0 -7 14 -44 31 -81 17 -37 39 -95 49 -128 l19 -60 -63 -96 c-62 -94 -182 -311
-173 -311 3 0 33 51 68 113 68 123 145 237 160 237 14 0 11 -9 -20 -60 -50
-82 -103 -181 -98 -186 2 -2 33 44 68 103 35 58 69 108 74 110 12 4 31 -79 41
-174 6 -62 6 -62 -45 -139 -45 -67 -59 -94 -48 -94 2 0 24 29 48 65 24 36 47
65 51 65 13 0 14 -137 0 -225 -7 -49 -23 -121 -35 -160 l-22 -70 -6 65 c-6 55
-22 113 -54 193 -11 26 -27 21 -70 -23 -44 -45 -65 -51 -65 -17 0 24 -35 138
-51 170 -13 22 -24 22 -61 -4 -16 -12 -33 -18 -38 -13 -4 5 -18 55 -30 112
-19 82 -21 109 -13 137 14 45 1 53 -26 18 -65 -87 -66 -87 -81 177 -6 102 -15
210 -21 240 -10 61 -49 142 -86 182 l-26 27 33 74 c33 76 64 112 195 229 33
29 78 67 100 83 22 16 44 36 48 43 14 21 15 10 7 -43z m5541 -184 l24 -100
-27 -48 c-35 -63 -80 -183 -68 -183 6 0 10 5 10 11 0 18 82 189 91 189 15 0
10 -23 -22 -99 -17 -40 -28 -75 -25 -78 3 -3 17 22 32 56 28 65 49 81 42 31
-2 -16 -1 -31 4 -32 4 -2 15 -28 24 -60 l16 -56 -32 -69 c-44 -92 -90 -208
-90 -225 1 -7 9 7 19 32 36 92 104 230 113 230 11 0 13 5 -34 -86 -42 -82 -78
-183 -77 -216 0 -14 6 -6 14 22 14 49 92 217 105 225 4 3 13 -10 20 -28 7 -17
30 -70 50 -117 l38 -85 -13 -90 c-7 -49 -11 -92 -9 -94 9 -9 16 10 28 80 l13
74 13 -35 c13 -33 45 -99 187 -372 33 -64 59 -119 57 -121 -3 -2 -28 0 -57 5
-66 12 -95 40 -143 137 l-38 76 -7 -40 c-3 -22 -12 -53 -18 -70 -12 -29 -13
-30 -28 -10 -26 34 -53 101 -59 149 -4 25 -10 46 -15 46 -5 0 -18 -22 -30 -50
-12 -27 -27 -50 -33 -50 -20 1 -118 167 -123 210 -7 48 -25 52 -50 10 -19 -33
-26 -36 -40 -17 -28 35 -47 118 -50 220 -2 59 -8 107 -12 107 -4 0 -18 -11
-31 -25 -40 -43 -50 -33 -50 48 0 98 47 272 79 291 12 8 15 36 4 36 -5 0 -30
-21 -57 -46 -26 -25 -51 -43 -53 -40 -7 6 15 71 40 121 20 40 213 235 233 235
6 0 22 -45 35 -99z m-6266 -36 c55 -9 115 -19 133 -21 l33 -5 -58 -56 c-57
-54 -59 -55 -112 -53 -35 1 -51 -2 -47 -9 4 -6 20 -8 35 -5 38 8 45 -7 18 -38
-127 -147 -128 -148 -176 -149 -25 0 -68 -5 -96 -9 -38 -7 -28 -8 41 -4 l92 5
-38 -98 c-20 -54 -46 -114 -56 -133 -10 -19 -20 -36 -20 -38 -1 -1 -12 -5 -24
-7 -41 -8 -151 -47 -147 -52 3 -2 35 5 72 16 37 12 71 19 75 16 9 -6 -70 -197
-109 -264 -24 -40 -35 -49 -92 -69 -79 -28 -140 -54 -136 -58 2 -2 41 10 87
26 45 17 85 29 87 26 4 -4 -46 -107 -57 -116 -4 -3 -21 -27 -40 -55 -31 -47
-167 -204 -200 -233 -8 -7 -41 -31 -73 -53 -57 -40 -84 -46 -57 -14 10 12 13
57 11 180 -2 188 2 203 76 269 24 21 42 40 40 42 -2 2 -29 -5 -60 -15 -31 -11
-59 -16 -62 -12 -7 13 31 118 55 148 11 14 20 32 20 40 0 11 -5 11 -30 -2 -45
-23 -53 -20 -45 21 12 65 77 177 153 262 41 46 71 86 68 89 -3 4 -14 0 -23 -9
-10 -8 -35 -24 -55 -36 -34 -19 -38 -20 -38 -4 0 58 117 207 178 226 34 11 26
23 -18 30 -22 3 -40 10 -40 14 0 4 19 26 43 49 44 43 114 83 145 83 10 0 27 7
38 15 18 14 18 14 -11 15 -54 1 -62 16 -20 36 21 10 54 21 74 25 55 12 254 3
366 -16z m283 -136 c132 -138 150 -183 159 -401 7 -159 5 -163 -42 -132 -34
22 -45 10 -45 -49 0 -62 -27 -162 -64 -234 -24 -46 -46 -68 -46 -45 0 4 -11
19 -24 35 -25 29 -49 37 -40 12 8 -21 -14 -112 -41 -167 -26 -53 -95 -148
-107 -148 -5 0 -13 12 -18 28 -6 15 -23 52 -40 83 -16 31 -30 64 -30 74 0 10
-6 15 -17 13 -15 -3 -18 -15 -19 -64 -1 -59 -11 -88 -36 -116 -7 -7 -30 -34
-51 -60 -48 -60 -106 -99 -178 -121 -86 -26 -85 -26 -85 46 0 71 -20 150 -36
145 -6 -2 -17 -22 -23 -45 -21 -70 -62 -112 -149 -154 -55 -27 -93 -39 -123
-39 -24 0 -43 4 -43 8 0 5 22 23 49 40 26 17 75 62 107 99 32 38 66 75 74 83
20 20 113 156 134 198 9 17 21 32 25 32 14 0 31 -60 41 -146 l9 -79 -3 85 c-2
50 -11 103 -21 128 l-17 42 38 65 c22 35 42 65 46 65 4 0 17 -27 29 -60 12
-33 24 -58 27 -55 3 2 -8 39 -23 81 l-28 76 33 76 c18 43 39 84 45 92 7 8 16
25 19 38 11 35 25 26 51 -30 13 -29 24 -48 24 -41 1 7 -10 38 -24 69 -14 31
-22 61 -19 66 8 13 28 -21 50 -85 9 -27 18 -46 21 -43 3 3 -7 41 -22 85 l-28
81 19 62 c13 44 35 83 77 135 32 40 60 73 62 73 2 0 10 3 18 6 11 4 23 -21 50
-108 20 -62 39 -126 43 -141 3 -15 8 -26 11 -23 7 6 -37 172 -63 237 -14 36
-18 62 -13 70 13 20 42 -20 70 -95 13 -33 24 -55 26 -50 4 12 -44 143 -58 161
-7 8 9 30 53 72 35 33 67 61 71 61 4 0 47 -41 95 -91z m7577 -670 c-27 -34
-42 -60 -34 -57 8 2 35 32 62 67 55 73 63 60 12 -19 -30 -47 -43 -57 -88 -73
-55 -19 -274 -30 -283 -15 -3 4 3 8 13 8 21 0 175 49 253 80 31 12 65 34 79
51 13 17 26 28 29 25 3 -3 -17 -33 -43 -67z m215 -28 c0 -12 -78 -82 -122
-109 -45 -28 -142 -57 -223 -66 -74 -9 -221 -64 -306 -115 -74 -44 -121 -101
-175 -210 -42 -85 -52 -163 -22 -169 9 -2 24 6 35 16 25 28 111 90 188 137 36
22 93 58 127 79 68 44 213 179 249 231 21 31 56 51 68 40 2 -3 3 -35 2 -71 -3
-107 -31 -166 -124 -261 -44 -46 -84 -83 -87 -83 -4 0 -37 -20 -75 -44 -96
-64 -201 -100 -265 -93 -39 5 -50 3 -50 -8 0 -21 31 -35 53 -24 10 6 25 8 35
5 57 -18 287 107 401 217 55 54 111 139 111 170 0 9 5 17 10 17 17 0 11 -88
-11 -153 -18 -54 -71 -152 -90 -167 -3 -3 -14 -19 -23 -37 -9 -18 -35 -43 -59
-57 -50 -29 -196 -66 -261 -66 -42 0 -171 30 -196 45 -5 3 -10 0 -10 -8 0 -9
19 -19 48 -27 63 -17 67 -22 40 -55 -117 -139 -137 -150 -268 -149 -52 1 -106
6 -120 13 -62 30 -92 48 -101 62 -7 11 -11 11 -17 2 -4 -7 -30 -22 -56 -34
-43 -19 -203 -114 -216 -129 -19 -20 -89 -57 -98 -51 -12 7 68 71 88 71 6 0
10 4 10 9 0 5 8 12 18 15 9 4 35 22 57 41 22 19 73 52 113 72 83 42 102 62
102 113 0 69 29 140 78 193 38 40 93 77 115 77 3 0 10 -13 17 -30 7 -16 16
-30 21 -30 12 0 11 14 -1 26 -5 5 -10 21 -11 34 -1 40 29 157 52 202 39 76
144 174 242 225 52 26 93 33 262 43 162 9 228 23 375 79 62 23 70 24 70 12z
m-270 -189 c0 -24 -124 -151 -207 -211 -21 -15 -81 -49 -133 -76 -52 -27 -117
-64 -143 -82 -27 -19 -51 -33 -53 -30 -13 13 118 173 197 241 76 65 207 135
294 157 42 10 45 10 45 1z m-2348 -70 c-7 -2 -12 -15 -12 -28 0 -15 4 -23 10
-19 21 13 216 56 240 53 l25 -3 -24 -22 c-33 -31 -23 -37 41 -24 81 17 239 28
245 18 3 -5 0 -14 -6 -20 -6 -6 -11 -21 -11 -34 0 -17 6 -23 23 -23 28 0 111
23 161 44 22 9 41 14 43 12 5 -5 -55 -95 -78 -118 -10 -10 -30 -34 -46 -55
-15 -21 -34 -42 -40 -46 -7 -4 -13 -15 -13 -24 0 -13 8 -15 45 -10 26 4 47 2
51 -4 10 -17 -70 -87 -194 -168 -86 -56 -99 -76 -57 -87 14 -3 23 -9 21 -13
-8 -12 -168 -89 -235 -113 -68 -25 -79 -37 -43 -53 12 -5 22 -15 22 -21 0 -6
-58 -36 -129 -67 -121 -54 -135 -58 -228 -63 -126 -7 -135 -10 -104 -33 l24
-19 -21 -11 c-11 -6 -57 -20 -101 -30 -115 -28 -167 -18 -326 59 -110 52 -126
64 -122 81 3 11 2 19 -1 17 -4 -2 -20 -10 -37 -17 -16 -7 -43 -19 -58 -27 -21
-10 -29 -11 -32 -1 -9 27 -26 157 -24 179 1 13 -1 35 -5 49 -18 63 26 188 111
317 46 69 73 67 73 -6 0 -15 5 -34 11 -42 9 -13 12 -12 22 4 42 66 158 193
211 231 64 46 103 58 92 30 -9 -24 18 -17 45 11 29 31 110 74 140 74 21 0 21
-1 5 -19 -25 -28 -11 -47 19 -27 50 33 247 89 270 77 5 -2 4 -6 -3 -9z m-2022
-111 c0 -4 -16 -26 -35 -48 -84 -96 -250 -138 -438 -111 -53 8 -101 11 -105 8
-5 -3 -19 -23 -32 -45 -49 -83 -189 -233 -287 -308 -81 -62 -82 -62 -87 -56
-9 9 34 171 54 203 10 17 77 88 148 159 l129 127 84 0 c98 1 188 18 279 54 55
21 82 25 178 25 61 1 112 -3 112 -8z m355 -21 c55 -6 169 -10 254 -11 168 -2
168 -1 273 -72 49 -33 54 -44 50 -112 -1 -17 -11 -52 -21 -79 -16 -42 -16 -53
-5 -98 13 -49 62 -138 77 -138 4 0 7 -4 7 -9 0 -5 -22 -12 -48 -16 -77 -10
-138 18 -184 85 -20 30 -47 81 -58 113 -45 123 -68 143 -255 217 -85 34 -200
91 -230 114 -19 15 -19 15 10 15 17 0 75 -4 130 -9z m-416 -142 c8 -18 32 -52
54 -75 22 -24 38 -45 36 -47 -2 -2 -36 -26 -75 -54 -40 -29 -79 -63 -88 -78
-10 -14 -24 -33 -31 -42 -8 -9 -43 -55 -77 -101 l-63 -85 -70 -19 c-38 -10
-87 -23 -109 -28 -80 -20 -131 -61 -166 -134 l-24 -50 -18 55 c-27 87 -23 156
12 226 36 71 45 82 90 116 54 41 122 74 199 97 114 35 155 56 171 87 55 112
96 161 135 163 6 1 17 -13 24 -31z m640 -98 c32 -23 50 -49 76 -106 l35 -76
-26 -61 c-14 -34 -34 -80 -44 -102 -10 -22 -37 -92 -60 -155 -55 -154 -54
-151 -57 -100 -2 25 -13 99 -24 165 -11 66 -25 145 -29 175 -5 30 -13 78 -18
107 -9 51 -8 54 35 118 25 36 50 65 57 65 7 0 32 -14 55 -30z m-3295 -204 c50
-21 91 -95 90 -163 -1 -41 -7 -60 -28 -88 -32 -42 -101 -111 -133 -132 -26
-18 -114 -144 -129 -187 l-11 -31 -90 1 c-75 1 -111 8 -221 43 l-131 42 -45
60 c-63 84 -68 117 -25 197 49 91 58 98 174 112 77 9 124 22 205 56 122 51
170 55 220 22 42 -29 85 -108 76 -142 -6 -25 -57 -78 -113 -119 -17 -12 -52
-39 -77 -61 -57 -48 -157 -74 -215 -55 -56 18 -181 101 -181 122 0 39 227 144
292 135 32 -4 35 -50 8 -112 -20 -48 -21 -48 -58 -42 -63 12 -103 27 -99 39 2
7 25 27 53 45 l49 34 5 -46 c3 -26 10 -46 15 -46 26 1 25 110 -2 110 -32 0
-153 -87 -153 -110 0 -13 85 -35 139 -35 l55 0 25 63 c29 73 21 106 -27 116
-64 15 -274 -76 -316 -135 -15 -22 -15 -25 11 -50 16 -15 60 -48 98 -74 65
-43 73 -46 115 -41 141 20 168 19 204 -2 20 -12 36 -17 36 -12 0 6 -16 18 -35
27 -19 9 -35 20 -35 23 0 13 55 62 112 101 31 21 73 59 93 83 34 42 36 47 26
84 -18 67 -51 105 -111 129 -59 23 -57 27 25 42 71 13 72 13 109 -3z m3465
-67 c34 -41 34 -41 18 -75 -11 -22 -24 -34 -37 -34 -11 0 -20 -4 -20 -10 0 -5
7 -10 16 -10 9 0 14 -3 12 -7 -30 -63 -50 -107 -69 -151 -12 -28 -28 -51 -35
-50 -7 2 -33 -14 -58 -35 -25 -21 -46 -34 -46 -29 0 15 89 251 104 274 7 13
26 56 41 96 16 39 31 72 34 72 3 0 21 -19 40 -41z m162 -82 l53 -2 9 -40 c4
-22 12 -57 18 -79 l10 -38 -121 -123 c-67 -67 -130 -134 -139 -148 -22 -34
-183 -208 -188 -204 -8 8 81 257 124 346 36 76 60 111 120 172 74 76 81 98 27
85 -13 -4 -24 -3 -24 1 0 14 33 41 45 37 7 -3 37 -6 66 -7z m-3480 -174 c18
-17 50 -42 72 -55 83 -49 134 -106 182 -204 25 -52 45 -100 45 -108 0 -8 4
-17 8 -20 5 -3 19 -40 32 -83 19 -66 22 -91 17 -173 -9 -139 -14 -145 -52 -63
-17 38 -46 88 -64 113 -31 43 -132 123 -194 153 -163 79 -315 147 -327 147
-22 0 -40 20 -40 45 0 39 61 119 163 217 90 85 103 95 114 80 7 -9 27 -31 44
-49z m4925 -14 c32 -6 62 -13 66 -15 4 -3 -8 -19 -27 -36 -47 -40 -46 -58 3
-58 51 0 163 -30 240 -65 66 -29 73 -38 45 -54 -10 -5 -16 -11 -13 -13 3 -2
34 -18 70 -37 78 -41 182 -119 175 -131 -3 -5 -12 -7 -20 -3 -30 11 -12 -14
65 -92 44 -43 80 -83 80 -88 0 -5 -16 -6 -35 -3 -19 4 -35 5 -35 3 0 -3 33
-37 73 -76 l72 -71 -37 0 c-20 0 -49 -5 -65 -11 l-28 -11 24 -16 c27 -20 160
-154 161 -163 0 -3 -11 -4 -25 -1 -32 6 -31 0 5 -40 37 -40 43 -93 9 -83 -19
6 -21 4 -16 -17 16 -60 59 -139 107 -191 29 -31 49 -57 44 -57 -9 0 -124 64
-192 108 -102 65 -210 188 -278 317 -14 28 -37 64 -50 82 -13 17 -24 34 -24
38 0 7 40 -2 109 -26 30 -10 57 -17 59 -14 9 9 -92 48 -136 53 -39 4 -72 29
-72 54 0 11 55 0 123 -24 32 -11 61 -17 64 -14 10 9 -84 45 -150 56 -59 11
-64 14 -101 65 -36 50 -140 135 -165 135 -6 0 -51 18 -99 41 -51 24 -109 43
-139 46 -29 3 -53 9 -53 13 0 9 137 44 250 65 68 12 105 13 182 5 52 -5 108
-14 123 -20 15 -6 30 -8 33 -6 7 8 -44 26 -102 37 -109 20 -222 8 -430 -46
l-98 -26 -120 15 c-66 9 -142 16 -169 16 -51 0 -61 10 -31 32 10 7 22 19 27
27 10 17 -3 10 -51 -26 -29 -22 -40 -24 -129 -21 l-96 3 53 40 c29 22 55 42
58 45 3 3 21 17 40 30 19 13 37 27 40 30 26 30 175 114 278 156 139 58 189 65
308 43z m-4240 -19 c105 -14 119 -22 134 -85 14 -58 9 -109 -13 -154 -16 -33
-22 -28 60 -55 56 -18 128 -72 198 -148 53 -57 57 -64 51 -97 -3 -20 -6 -44
-6 -53 0 -12 -33 -34 -102 -68 -139 -70 -161 -86 -198 -146 -27 -45 -40 -56
-103 -84 -77 -35 -129 -77 -155 -125 -11 -21 -17 -73 -22 -180 -9 -194 -32
-259 -123 -357 -29 -32 -37 -34 -37 -13 0 19 -38 135 -88 265 -95 249 -75 339
117 540 96 100 110 128 124 232 8 65 7 85 -6 116 -8 20 -18 45 -21 55 -3 9 -9
17 -14 17 -5 0 -1 -24 9 -52 22 -65 16 -184 -11 -238 -19 -37 -106 -127 -115
-119 -2 3 0 21 5 40 6 18 10 81 10 139 0 130 -31 253 -96 384 -24 49 -44 93
-44 97 0 8 113 44 230 72 56 14 80 19 135 25 6 1 42 -3 81 -8z m-1582 -72 c39
-68 87 -103 191 -140 143 -52 165 -57 309 -62 l130 -6 136 -65 c75 -36 141
-65 146 -65 5 0 43 -23 84 -51 71 -47 172 -160 151 -167 -5 -2 -30 10 -56 27
-89 57 -172 83 -285 91 -124 10 -235 26 -260 40 -9 5 -41 33 -71 61 -29 28
-63 57 -74 65 -24 16 -94 19 -233 9 -117 -9 -183 6 -240 53 -27 22 -34 38 -43
90 l-11 64 43 44 c24 24 48 44 54 44 6 0 19 -15 29 -32z m-46 -263 c27 -25 56
-45 64 -45 21 0 47 -32 59 -71 5 -19 14 -88 19 -154 5 -66 12 -151 15 -190 6
-67 26 -161 44 -208 5 -12 20 -49 32 -82 43 -114 185 -323 252 -375 81 -61
337 -174 425 -187 47 -7 40 -19 -25 -40 -79 -25 -281 -24 -373 2 -113 32 -286
129 -370 207 -75 70 -215 271 -266 379 -61 133 -181 360 -223 423 -14 21 -43
49 -63 63 -47 29 -46 29 53 136 101 109 216 184 285 186 12 1 44 -19 72 -44z
m379 -24 c18 -5 58 -30 90 -56 105 -86 142 -98 368 -114 109 -8 209 -35 246
-67 8 -8 19 -14 23 -14 3 0 24 -12 46 -26 26 -17 48 -44 64 -78 40 -83 40 -86
-3 -157 -92 -153 -94 -254 -6 -484 69 -181 88 -246 76 -258 -5 -5 -76 -14
-158 -19 -143 -10 -153 -10 -224 11 -186 57 -355 135 -392 182 -89 114 -183
259 -247 381 -67 128 -86 212 -95 428 -7 164 -16 208 -49 237 -15 12 -26 24
-26 27 0 3 48 7 108 9 59 1 116 4 127 5 11 1 35 -2 52 -7z m4979 -14 c6 -7 21
-47 34 -89 13 -43 27 -78 31 -78 4 0 1 24 -8 53 -34 112 -34 117 -4 118 109 4
141 -5 142 -39 0 -37 37 -193 38 -162 0 14 -6 60 -13 103 -16 96 -14 97 87 72
40 -10 90 -19 112 -20 23 -1 71 -18 112 -38 40 -21 80 -37 89 -37 28 0 123
-80 165 -139 92 -132 169 -250 169 -262 0 -7 18 -35 39 -63 22 -28 51 -80 66
-116 39 -97 117 -249 139 -268 10 -9 -7 31 -38 89 -68 128 -73 160 -18 107 54
-53 233 -162 335 -204 100 -42 101 -49 4 -85 -106 -41 -250 -29 -331 26 -47
32 -58 32 -50 0 3 -14 2 -25 -4 -25 -18 0 -98 49 -122 75 -38 40 -56 33 -64
-25 -4 -28 -12 -50 -19 -50 -28 0 -201 117 -275 185 -44 41 -82 75 -85 75 -2
0 -2 -32 1 -71 l5 -71 -29 15 c-69 38 -129 94 -156 147 -15 30 -28 58 -28 63
0 4 14 7 30 7 24 0 30 4 30 20 0 54 -127 197 -226 256 -44 26 -220 90 -299
108 -92 21 -99 31 -124 182 -11 66 -23 127 -26 136 -9 23 16 26 160 21 75 -3
124 -9 131 -16z m-331 -16 c8 -16 17 -54 20 -85 17 -183 18 -166 -10 -166 -13
0 -30 7 -37 16 -93 115 -169 169 -253 181 -78 10 -64 19 90 57 139 34 170 34
190 -3z m-265 -87 c79 -23 141 -74 205 -168 22 -32 74 -50 185 -62 74 -8 297
-83 350 -118 89 -58 223 -207 200 -221 -5 -3 -20 0 -34 6 -38 18 -42 5 -17
-54 43 -95 101 -272 101 -304 0 -37 -8 -40 -52 -17 -17 9 -34 12 -37 7 -4 -4
-13 -58 -19 -119 -11 -105 -36 -204 -51 -204 -3 0 -12 9 -19 20 -7 11 -16 20
-21 20 -5 0 -19 -33 -31 -72 -21 -71 -56 -148 -65 -148 -3 0 -24 18 -47 40
-24 22 -46 40 -50 40 -5 0 -8 -16 -8 -36 0 -56 -30 -176 -43 -171 -7 2 -17 21
-23 43 -14 52 -37 51 -44 -1 -6 -45 -35 -98 -74 -134 -28 -27 -43 -23 -28 6
30 55 97 357 111 502 6 51 12 96 15 98 3 3 11 -6 17 -21 11 -24 29 -36 29 -18
0 9 -28 51 -48 71 -10 10 -12 46 -10 150 1 75 -1 151 -6 170 l-8 33 43 -23
c65 -35 136 -111 212 -226 38 -57 70 -103 73 -103 9 0 -57 107 -112 182 -62
83 -105 123 -171 156 -45 24 -55 34 -59 66 -11 87 -169 366 -208 366 -5 0 0
-10 11 -22 11 -13 33 -42 48 -65 l28 -43 -27 -35 c-32 -41 -24 -46 15 -9 l28
26 35 -75 c59 -124 86 -249 86 -399 l0 -128 -43 -57 c-122 -162 -158 -214
-191 -277 -20 -37 -35 -73 -33 -79 1 -5 16 16 31 47 33 68 228 334 234 318 2
-6 -4 -66 -13 -134 -19 -149 -67 -344 -111 -453 -27 -66 -34 -76 -41 -60 -18
45 -70 120 -107 154 -107 99 -96 78 -89 175 3 50 2 86 -3 86 -5 0 -27 -22 -49
-50 -22 -27 -43 -50 -47 -50 -24 0 30 153 91 260 27 47 59 105 71 130 13 25
34 60 48 78 14 18 22 35 19 38 -10 10 -102 -139 -189 -306 -16 -30 -32 -56
-37 -58 -4 -1 -12 19 -17 44 -10 55 -26 65 -42 29 -18 -39 -28 -23 -30 51 -3
74 23 169 61 226 13 18 36 56 51 83 16 28 49 76 73 108 24 33 42 61 40 64 -12
11 -158 -201 -200 -289 -12 -26 -25 -48 -29 -48 -8 0 -1 81 13 154 16 81 -6
81 -65 1 -23 -32 -27 -14 -15 71 23 175 78 295 172 379 93 82 154 132 169 137
15 5 -15 48 -86 120 -48 49 -136 98 -176 98 -11 0 -20 5 -20 10 0 14 18 13 80
-6z m-83 -39 c57 -19 95 -41 144 -81 37 -30 70 -62 73 -70 4 -11 -29 -51 -106
-128 -106 -105 -115 -118 -150 -202 -46 -111 -58 -155 -58 -219 0 -27 -4 -67
-9 -87 -9 -40 -4 -88 10 -88 5 0 19 16 31 35 13 19 26 35 30 35 3 0 6 -65 6
-145 -2 -162 5 -148 -93 -215 -111 -77 -224 -165 -325 -257 -49 -44 -65 -52
-72 -31 -7 21 -27 -2 -55 -64 -22 -50 -44 -76 -122 -146 -96 -86 -195 -156
-210 -150 -5 2 8 46 29 99 20 52 45 139 55 193 15 85 22 104 51 136 19 21 48
43 64 50 49 20 36 33 -25 25 -30 -3 -55 -4 -55 0 0 20 44 133 58 150 9 12 52
47 95 79 76 58 101 95 55 82 -13 -3 -40 -9 -60 -12 -35 -6 -38 -5 -38 17 0 50
31 134 78 218 81 142 106 191 99 197 -4 4 -40 -10 -81 -32 -42 -21 -78 -35
-82 -31 -10 10 15 256 32 308 12 38 32 62 107 129 155 139 306 225 400 229 29
1 78 -9 124 -24z m-1842 -26 c33 -11 73 -27 90 -36 35 -17 165 -151 165 -170
0 -7 5 -13 12 -13 19 0 -3 -16 -39 -28 -27 -9 -46 -6 -110 14 -119 37 -208 54
-276 52 -50 -1 -53 -2 -17 -5 100 -7 303 -55 325 -76 7 -6 1 -7 -15 -2 -41 11
-261 17 -225 5 17 -6 55 -9 85 -9 92 3 122 0 115 -11 -9 -15 31 -12 72 5 19 8
44 15 54 15 10 0 36 9 58 21 22 11 48 19 58 16 16 -4 16 -5 -2 -11 -60 -23
-64 -27 -52 -55 6 -14 23 -44 37 -66 14 -22 32 -56 39 -75 8 -19 23 -50 34
-68 17 -29 18 -43 12 -109 -7 -81 -32 -169 -61 -225 l-18 -33 -10 38 c-11 45
-37 49 -55 10 -24 -51 -121 -171 -172 -212 -44 -35 -79 -51 -79 -37 0 2 20 66
45 142 61 187 69 241 61 399 -4 71 -9 141 -10 155 -2 14 -4 31 -5 38 0 6 -5
12 -9 12 -4 0 -2 -46 5 -102 15 -125 16 -218 3 -289 -15 -84 -82 -299 -92
-293 -4 3 -27 -11 -50 -30 -23 -20 -46 -36 -52 -36 -6 0 -42 -16 -79 -35 -38
-19 -70 -35 -72 -35 -7 0 8 89 25 145 32 104 43 218 37 367 -5 125 -10 160
-21 147 -2 -2 1 -42 6 -89 16 -152 -7 -360 -52 -466 -14 -31 -32 -50 -72 -73
-29 -18 -67 -41 -84 -52 -31 -19 -99 -40 -177 -53 l-38 -7 7 35 c8 46 -7 46
-29 1 -24 -51 -22 -69 6 -61 12 4 65 11 117 16 64 7 110 18 143 33 44 22 47
23 47 5 0 -30 32 -22 163 42 68 33 127 60 130 60 3 0 7 -16 9 -36 l3 -37 80
65 c61 49 189 180 222 227 6 9 14 -8 17 -35 10 -90 91 20 140 191 40 136 37
158 -39 302 -36 68 -65 127 -65 132 0 13 57 24 107 22 149 -7 311 -102 427
-251 70 -90 77 -117 62 -246 -8 -60 -23 -145 -36 -189 -12 -44 -31 -113 -43
-153 -11 -41 -27 -76 -34 -79 -8 -3 -42 4 -77 16 -34 11 -65 21 -69 21 -14 0
-6 -35 38 -156 52 -143 52 -138 -12 -326 -28 -84 -40 -108 -54 -108 -16 0 -18
-9 -17 -77 2 -80 -3 -102 -75 -316 -24 -71 -33 -87 -46 -81 -56 23 -71 27 -78
21 -4 -5 -2 -16 5 -25 6 -9 21 -35 33 -56 25 -46 24 -55 -21 -266 -48 -226
-66 -327 -79 -435 -7 -55 -16 -124 -22 -154 -5 -30 -9 -73 -10 -95 l0 -41 -17
25 c-74 107 -186 266 -191 270 -26 20 -71 93 -82 130 -16 56 -24 66 -42 51
-12 -9 -20 -5 -45 26 -16 21 -42 61 -57 88 -16 28 -32 52 -36 55 -22 15 -121
177 -127 209 -6 28 -13 36 -30 36 -16 0 -40 23 -87 84 -55 71 -65 90 -65 123
0 37 -2 40 -23 34 -19 -4 -32 4 -69 47 -70 82 -80 101 -77 151 3 53 -4 66 -23
37 -7 -12 -18 -21 -24 -21 -6 0 -37 37 -69 81 l-58 81 7 74 c5 62 3 74 -9 74
-8 0 -15 -6 -15 -14 0 -15 -37 -66 -48 -66 -8 0 -43 44 -142 178 -34 45 -84
104 -112 130 l-50 48 14 74 14 75 23 -47 c31 -62 76 -115 111 -133 16 -8 53
-18 83 -21 l55 -7 -11 43 c-10 37 -9 44 6 55 10 7 26 11 36 8 11 -3 40 10 70
30 28 19 54 37 58 39 17 7 72 91 66 101 -5 8 -19 -5 -63 -61 -23 -30 -98 -73
-105 -61 -4 5 -16 7 -27 3 -21 -6 -21 -4 -14 107 15 244 28 276 151 359 41 28
75 55 75 61 0 6 -6 9 -12 6 -7 -3 -60 -23 -117 -46 -57 -23 -106 -39 -110 -36
-3 4 10 36 28 72 27 51 48 75 95 110 34 25 63 49 65 55 3 10 -40 4 -126 -17
-49 -12 -53 -12 -53 5 0 18 55 92 107 143 32 31 119 89 164 107 45 19 35 32
-21 28 -28 -3 -53 -1 -55 2 -8 13 229 126 305 146 25 6 45 15 45 20 0 4 -24
13 -54 18 -30 6 -56 16 -58 22 -7 21 207 82 297 83 25 1 72 -8 105 -20z
m-1051 -331 c18 -72 28 -230 18 -305 -24 -173 -79 -254 -226 -332 -38 -20 -92
-48 -120 -63 -51 -27 -106 -37 -106 -18 0 5 18 28 40 52 21 24 54 77 71 118
28 65 33 91 39 195 7 131 20 169 79 233 28 30 178 141 192 142 4 0 9 -10 13
-22z m75 -631 c14 -18 31 -135 31 -224 0 -54 6 -84 22 -118 12 -24 19 -47 16
-50 -10 -10 -78 23 -99 47 -10 13 -42 65 -70 117 -72 132 -93 149 -186 153
l-74 3 58 34 c67 41 99 48 209 50 57 1 85 -3 93 -12z m-539 -132 c0 -3 -9 -15
-19 -26 -10 -11 -30 -42 -44 -67 -13 -26 -37 -68 -52 -94 l-27 -48 32 -66 c94
-199 111 -275 86 -375 -20 -75 -36 -98 -36 -50 0 94 -56 231 -153 375 -37 54
-67 107 -67 118 0 32 50 121 93 165 27 29 53 45 77 49 19 4 42 10 50 15 17 9
60 12 60 4z m-249 -99 c-31 -32 -125 -85 -213 -120 l-38 -15 0 -63 c0 -37 -5
-69 -12 -76 -19 -19 -67 -14 -164 14 -70 20 -100 24 -143 19 -41 -5 -52 -4
-49 6 15 44 134 74 231 59 28 -4 50 -3 54 3 3 5 8 38 11 73 3 41 10 68 21 77
17 15 65 27 216 52 49 9 91 18 94 21 3 2 9 0 15 -6 7 -7 -1 -21 -23 -44z
m4649 -646 c0 -19 -41 -113 -65 -148 -31 -46 -31 -56 -1 -48 62 15 24 -47 -93
-152 -81 -74 -98 -102 -61 -102 37 0 20 -18 -60 -66 -44 -26 -80 -50 -80 -53
0 -4 14 -15 30 -24 17 -10 30 -22 30 -26 0 -21 -95 -88 -190 -133 -58 -28
-107 -52 -109 -54 -3 -2 6 -15 19 -29 22 -23 22 -25 4 -31 -10 -4 -52 -20 -92
-36 -40 -15 -80 -28 -89 -28 -14 0 -14 -3 3 -21 10 -12 28 -25 39 -29 18 -7
15 -9 -18 -23 -21 -9 -53 -19 -72 -23 -34 -6 -46 -26 -25 -39 18 -11 10 -20
-57 -62 -88 -54 -147 -79 -222 -94 -59 -11 -75 -22 -48 -32 24 -9 -7 -25 -80
-41 -40 -9 -83 -16 -97 -16 -26 0 -37 -19 -13 -21 33 -3 -76 -18 -135 -18 -53
-1 -68 -4 -68 -16 0 -26 -124 29 -192 85 -42 35 -69 50 -89 50 -16 0 -29 5
-29 11 0 6 -7 8 -16 5 -12 -4 -14 -1 -9 14 5 16 2 20 -17 18 -55 -6 -90 166
-70 347 10 94 16 112 57 186 98 178 220 313 356 397 47 28 89 52 93 52 4 0 4
-16 0 -35 -8 -43 3 -45 54 -10 20 14 43 25 52 25 8 0 56 20 105 44 50 24 92
42 94 40 3 -2 -5 -22 -17 -43 -27 -47 -27 -51 -3 -51 26 0 93 30 165 74 73 44
96 48 72 11 -9 -13 -16 -27 -16 -30 0 -11 28 -4 86 19 37 15 101 29 164 36 57
6 112 16 121 21 26 13 29 12 29 -17 0 -26 1 -26 47 -19 26 4 69 15 95 26 65
26 76 25 70 -6 -3 -18 0 -25 11 -25 22 0 159 60 247 108 80 44 90 48 90 32z
m-5176 -145 c9 -14 21 -25 26 -25 5 0 42 -20 82 -44 110 -67 141 -70 102 -11
-19 29 -14 31 27 9 17 -8 56 -24 87 -34 31 -10 81 -28 111 -39 48 -20 56 -20
69 -7 12 12 13 18 3 30 -7 8 -11 22 -9 30 2 11 43 -5 164 -63 89 -43 164 -83
168 -90 4 -6 14 -11 22 -11 17 0 19 46 4 86 -10 26 -10 26 20 21 36 -8 237
-104 265 -127 11 -9 28 -20 38 -23 16 -6 18 -2 16 31 -2 28 0 36 11 34 18 -4
146 -87 177 -115 24 -21 53 -17 53 8 0 8 4 15 9 15 13 0 140 -138 164 -178 13
-23 25 -31 36 -27 13 4 24 -8 44 -49 45 -91 56 -171 43 -298 -13 -121 -15
-121 -181 -42 -77 36 -159 72 -185 80 -25 8 -51 18 -58 22 -7 5 -30 58 -51
119 -21 61 -47 126 -59 145 -28 42 -29 20 -1 -26 18 -32 79 -196 79 -216 0 -4
-9 -6 -20 -3 -11 3 -20 11 -20 18 0 29 -95 257 -137 330 -26 44 -56 97 -67
117 -12 21 -25 38 -29 38 -5 0 7 -28 27 -62 81 -140 186 -372 186 -411 0 -9
-5 -17 -12 -19 -6 -2 4 -11 22 -20 l33 -16 -39 -11 c-95 -27 -174 -34 -329
-29 -91 3 -143 1 -120 -3 62 -12 291 -11 375 1 41 7 89 18 106 26 28 13 36 13
90 -6 92 -34 274 -123 274 -135 0 -12 -156 -85 -225 -105 -33 -10 -70 -30 -54
-30 9 0 169 60 238 89 117 50 143 25 89 -86 -42 -85 -77 -107 -203 -124 -154
-20 -338 -2 -447 44 -44 19 -47 32 -13 59 45 35 33 48 -47 48 -45 0 -110 10
-168 25 -94 24 -210 72 -210 86 0 4 14 10 31 14 37 8 31 15 -41 51 -30 15 -85
49 -122 76 -73 53 -171 156 -162 169 3 5 21 9 40 9 45 0 44 20 -2 45 -20 11
-62 44 -93 75 -59 57 -165 206 -156 220 2 4 18 10 35 13 33 7 39 27 13 48 -38
31 -153 231 -153 267 0 20 17 14 34 -13z"/>
<path d="M471 7824 c2 -6 33 -44 69 -84 36 -39 65 -77 65 -83 0 -6 -11 -15
-25 -19 -16 -5 -10 -6 20 -3 42 5 48 2 95 -40 28 -25 78 -64 112 -86 35 -23
60 -45 57 -50 -2 -5 -23 -14 -44 -20 -22 -7 -38 -14 -36 -17 3 -2 29 3 59 12
53 16 56 15 98 -8 24 -13 77 -31 117 -41 39 -9 72 -20 72 -24 0 -4 -6 -13 -12
-21 -11 -12 -10 -12 5 -1 14 11 20 11 32 1 10 -9 15 -9 15 -1 0 18 20 12 21
-6 0 -11 3 -13 6 -5 6 15 46 16 93 2 50 -15 253 -51 257 -46 3 2 -22 9 -54 16
-83 16 -315 70 -333 77 -8 4 -26 8 -39 9 -13 2 -54 12 -90 23 -62 19 -67 23
-84 63 -9 24 -27 54 -38 68 -16 20 -15 15 6 -27 14 -29 21 -53 15 -53 -6 0
-13 8 -17 18 -8 22 -74 132 -80 132 -2 0 12 -29 32 -65 20 -36 32 -65 26 -65
-17 0 -141 83 -196 130 -28 24 -90 85 -139 134 -49 50 -87 86 -85 80z"/>
<path d="M8435 7215 c11 -9 42 -28 68 -41 28 -15 52 -35 57 -50 25 -65 189
-277 189 -244 0 8 -22 39 -49 68 -49 54 -125 171 -116 179 2 3 22 -6 44 -19
23 -12 44 -19 49 -14 4 5 4 10 -2 13 -5 2 -17 8 -25 13 -13 9 -13 11 0 20 21
13 110 31 200 40 l75 7 -76 2 c-84 1 -167 -12 -210 -33 -26 -13 -33 -11 -101
24 -40 21 -84 41 -98 44 -24 7 -25 7 -5 -9z"/>
<path d="M6792 5246 c-59 -64 -140 -179 -202 -289 -18 -32 -34 -56 -36 -54 -2
2 18 51 45 108 42 92 87 163 162 262 11 15 17 27 12 27 -19 0 -129 -165 -185
-278 -33 -68 -70 -130 -82 -138 -138 -95 -276 -173 -276 -157 0 21 32 107 68
185 52 111 98 182 156 242 26 26 45 50 43 53 -7 7 -83 -78 -131 -146 -51 -72
-108 -193 -141 -302 -15 -48 -24 -60 -64 -84 -84 -52 -154 -105 -140 -105 8 0
66 34 129 75 63 42 139 86 167 100 29 13 68 35 86 49 18 14 66 43 107 64 l74
39 54 -25 c29 -13 56 -22 58 -19 3 3 -15 14 -40 26 -25 11 -46 23 -46 26 0 11
165 84 215 95 28 7 64 18 81 26 17 7 112 34 210 59 98 25 200 56 228 69 28 13
67 31 86 39 19 9 49 24 65 34 17 9 40 23 53 31 12 7 20 17 17 22 -3 5 -27 -4
-53 -20 -54 -34 -59 -37 -167 -84 -44 -19 -109 -41 -145 -50 -36 -8 -78 -19
-93 -25 -16 -6 -58 -17 -95 -25 -37 -8 -76 -18 -86 -22 -16 -6 -18 -4 -12 11
11 30 93 149 131 190 19 21 32 41 29 44 -11 11 -101 -99 -150 -184 -49 -84
-49 -84 -103 -97 -29 -6 -92 -31 -140 -54 -47 -23 -87 -41 -89 -39 -10 10 112
194 205 308 35 42 62 77 59 77 -2 0 -31 -29 -64 -64z"/>
<path d="M4214 3595 c-49 -18 -127 -57 -189 -94 -5 -3 -98 -6 -205 -6 -193 -1
-260 -8 -260 -27 0 -6 7 -7 18 -2 27 13 392 18 392 5 0 -5 -6 -14 -14 -18 -24
-13 -186 -174 -186 -184 0 -5 -37 -9 -82 -9 -45 0 -78 -3 -74 -7 4 -5 34 -6
67 -5 37 3 59 0 59 -7 0 -14 -46 -85 -89 -139 -29 -35 -40 -42 -70 -42 -20 -1
-49 -7 -66 -15 -29 -13 -27 -13 29 -8 l58 6 -52 -84 c-29 -46 -74 -113 -101
-148 -27 -35 -49 -69 -49 -75 0 -21 81 80 164 205 46 70 89 129 95 133 8 5 11
-17 11 -76 -1 -79 -15 -160 -39 -220 -16 -41 -2 -34 15 7 22 54 44 182 44 259
0 63 3 73 43 137 23 38 46 67 52 66 5 -2 14 -26 21 -53 11 -48 12 -48 13 -13
0 20 -4 51 -11 69 l-11 34 86 82 c47 45 97 86 109 90 13 4 36 18 52 31 33 28
143 84 199 102 20 7 37 17 37 22 0 5 -1 9 -2 8 -2 0 -30 -11 -64 -24z"/>
<path d="M6337 1843 c-8 -10 -42 -67 -76 -128 -33 -60 -66 -121 -74 -135 -10
-17 -40 -36 -98 -59 -46 -19 -133 -61 -192 -93 -59 -32 -109 -58 -112 -58 -6
0 84 201 116 259 32 56 34 74 5 42 -17 -19 -146 -293 -146 -310 0 -9 -182
-141 -193 -141 -7 0 59 222 96 320 33 90 86 188 112 210 17 14 20 30 6 30 -17
0 -86 -115 -123 -205 -43 -107 -123 -355 -120 -371 2 -12 -126 -99 -134 -91
-3 2 4 38 16 78 21 76 27 128 11 99 -4 -8 -18 -55 -31 -105 -17 -68 -31 -99
-55 -125 -58 -64 -108 -130 -97 -130 5 0 34 28 64 62 48 56 171 148 197 148 6
0 11 -6 11 -14 0 -19 65 -60 125 -79 121 -38 307 -55 417 -37 100 16 148 29
148 40 0 6 -9 6 -22 1 -97 -35 -329 -38 -478 -5 -112 25 -213 88 -183 114 42
37 276 196 333 225 31 16 33 16 68 -8 41 -28 226 -90 251 -84 9 2 -35 20 -97
40 -117 38 -172 62 -172 75 0 11 261 133 290 135 25 2 60 29 60 47 0 5 32 64
71 130 39 66 69 123 66 126 -5 5 -138 -214 -150 -248 -4 -10 -14 -18 -23 -18
-11 0 -14 5 -9 18 6 16 89 170 110 203 39 64 43 76 12 42z"/>
</g>
</svg>
