<?xml version="1.0" standalone="no"?>
<!DOCTYPE svg PUBLIC "-//W3C//DTD SVG 20010904//EN"
 "http://www.w3.org/TR/2001/REC-SVG-20010904/DTD/svg10.dtd">
<svg version="1.0" xmlns="http://www.w3.org/2000/svg"
 width="800.000000pt" height="912.000000pt" viewBox="0 0 800.000000 912.000000"
 preserveAspectRatio="xMidYMid meet">
<metadata>
Created by potrace 1.16, written by Peter Selinger 2001-2019
</metadata>
<g transform="translate(0.000000,912.000000) scale(0.100000,-0.100000)"
fill="#000000" stroke="none">
<path d="M260 4555 l0 -4305 3735 0 c2054 0 3738 0 3743 -1 4 0 8 6 10 13 2
11 -668 13 -3733 10 l-3735 -2 0 1657 c0 912 0 2839 0 4283 l0 2625 27 7 c38
11 3261 9 3268 -2 3 -4 -7 -16 -23 -26 -60 -40 -173 -188 -248 -327 l-31 -59
-20 29 c-11 15 -25 47 -32 71 -19 68 -36 65 -113 -18 -37 -40 -70 -81 -73 -91
-4 -11 -12 -19 -19 -19 -12 0 -45 120 -60 220 -15 92 -19 111 -28 116 -13 8
-36 -14 -55 -55 -9 -20 -20 -38 -23 -41 -11 -9 -76 -135 -105 -203 l-28 -68
-29 33 c-16 18 -57 70 -91 115 -62 83 -78 94 -101 71 -30 -32 -80 -146 -103
-236 -8 -34 -54 47 -89 157 -19 60 -46 93 -68 85 -30 -11 -85 -136 -102 -226
-3 -21 -10 -38 -14 -38 -4 0 -18 21 -30 48 -25 54 -48 82 -66 82 -24 0 -54
-67 -71 -158 -9 -51 -20 -92 -23 -92 -7 0 -82 116 -102 160 -34 72 -69 78 -88
13 -6 -21 -15 -89 -20 -151 -5 -63 -11 -117 -15 -120 -3 -3 -36 11 -73 32 -37
20 -96 51 -131 68 -61 30 -64 30 -75 12 -29 -50 -35 -170 -11 -228 14 -33 14
-37 0 -42 -8 -4 -21 -2 -28 4 -21 17 -218 79 -315 98 -68 14 -97 16 -110 8
-22 -14 -28 -95 -10 -149 51 -159 265 -460 389 -549 l24 -17 -30 6 c-113 23
-247 66 -320 102 -27 14 -94 54 -147 90 -110 74 -134 77 -125 15 4 -20 29 -81
57 -136 52 -103 53 -103 -16 -75 -46 18 -68 6 -60 -32 13 -66 119 -257 178
-323 27 -29 23 -34 -34 -40 -117 -15 -196 -30 -248 -48 -30 -10 -62 -21 -71
-24 -9 -3 -22 -17 -30 -30 -28 -53 20 -103 136 -140 28 -9 66 -23 85 -32 l35
-17 -135 -6 c-151 -7 -200 -16 -200 -34 0 -12 50 -55 80 -68 8 -4 76 -52 150
-107 74 -55 150 -108 167 -117 68 -35 38 -49 -129 -60 -121 -8 -135 -20 -103
-95 6 -16 -1 -18 -83 -18 -52 0 -94 -4 -97 -10 -7 -11 10 -41 43 -82 26 -31
171 -140 222 -167 61 -32 65 -37 41 -50 -12 -7 -21 -20 -21 -31 0 -10 -4 -21
-8 -24 -10 -6 -106 -23 -205 -36 -87 -12 -110 -24 -101 -53 6 -20 85 -107 97
-107 3 0 29 -16 57 -35 68 -46 169 -92 217 -100 90 -15 95 -17 84 -28 -7 -7
-66 -13 -149 -15 -75 -2 -143 -9 -149 -14 -7 -6 -13 -21 -13 -34 0 -70 113
-171 228 -205 23 -7 42 -16 42 -20 0 -5 -15 -16 -32 -25 -96 -48 -225 -150
-263 -207 -20 -32 -14 -72 15 -87 25 -14 102 -16 225 -6 91 7 98 6 80 -8 -11
-8 -25 -16 -32 -16 -15 0 -43 -39 -43 -60 0 -9 6 -25 14 -35 12 -16 31 -20
127 -25 l114 -5 -77 -52 c-72 -50 -176 -144 -226 -206 -42 -52 -22 -116 38
-117 35 0 130 23 130 32 0 5 4 8 10 8 5 0 38 13 72 28 92 41 114 49 207 72
113 27 121 26 88 -8 -15 -15 -27 -32 -27 -36 0 -4 -12 -23 -26 -42 -66 -86
-114 -191 -121 -267 -11 -118 39 -126 224 -35 87 43 167 90 171 100 2 4 8 8
13 8 6 0 27 11 47 25 48 33 67 34 50 3 -7 -13 -15 -25 -18 -28 -3 -3 -38 -71
-79 -153 -76 -152 -163 -279 -260 -380 -79 -82 -88 -100 -71 -131 27 -52 99
-56 265 -15 70 18 241 89 255 108 10 13 72 43 77 37 3 -3 -1 -23 -10 -43 -46
-110 -78 -235 -79 -311 -1 -29 -3 -29 -188 37 -74 27 -166 54 -205 60 -38 7
-212 16 -385 21 -372 10 -414 19 -498 98 -40 37 -82 105 -82 131 0 11 -3 12
-11 4 -7 -7 -6 -29 5 -74 20 -84 36 -287 36 -449 0 -209 23 -325 92 -470 18
-36 34 -67 37 -70 4 -3 18 -21 33 -41 88 -119 232 -222 368 -264 30 -10 66
-22 79 -27 51 -19 242 -22 331 -4 103 21 160 38 160 48 0 5 6 8 14 8 8 0 57
20 109 45 134 63 131 64 183 -23 24 -41 44 -77 44 -81 0 -8 68 -152 110 -234
11 -22 20 -45 20 -53 0 -8 4 -14 8 -14 5 0 15 -18 22 -40 7 -22 17 -40 22 -40
4 0 8 -6 8 -13 0 -8 14 -42 31 -78 17 -35 35 -73 40 -84 5 -11 13 -27 19 -35
45 -71 120 -200 120 -208 0 -5 6 -15 13 -21 18 -14 52 -123 73 -231 22 -116
63 -238 106 -318 10 -18 18 -41 18 -50 0 -10 4 -22 9 -28 13 -12 97 -239 115
-308 8 -30 18 -75 21 -99 8 -53 14 -62 43 -71 15 -5 24 -3 28 8 12 32 -50 263
-102 374 -13 29 -24 56 -24 60 0 3 -29 67 -64 142 -41 84 -73 169 -86 225 -20
85 -32 131 -59 232 -6 23 -18 49 -26 57 -8 8 -15 22 -15 30 0 9 -4 16 -10 16
-5 0 -10 5 -10 11 0 7 -14 35 -31 63 -61 98 -133 236 -201 386 -46 99 -85 183
-131 280 -24 52 -65 139 -91 193 -46 97 -61 112 -87 81 -12 -14 -138 -79 -259
-132 -92 -40 -163 -55 -270 -56 -203 -2 -346 48 -505 178 -27 23 -56 49 -63
58 -7 9 -18 23 -25 30 -49 54 -102 158 -133 265 -25 88 -48 353 -42 483 l3 65
17 -35 c31 -64 100 -126 201 -180 113 -60 326 -122 409 -119 l33 1 -35 9 c-19
4 -57 13 -84 18 -91 20 -279 91 -345 130 -103 61 -170 139 -216 248 -16 38 -8
42 25 13 13 -11 48 -32 79 -48 l56 -27 340 -6 c393 -7 432 -12 655 -86 58 -20
154 -65 158 -75 2 -4 9 -8 16 -8 6 0 26 -13 44 -30 18 -16 36 -30 40 -30 18 0
110 -111 137 -165 24 -47 30 -71 30 -124 0 -64 -7 -90 -46 -178 -22 -48 -33
-53 -50 -20 -7 12 -15 24 -18 27 -4 3 -22 25 -41 50 -41 52 -112 121 -119 115
-2 -3 16 -26 40 -52 92 -98 159 -205 159 -252 0 -29 22 -95 60 -176 58 -125
144 -297 169 -340 16 -27 46 -81 65 -120 20 -38 52 -99 72 -135 20 -36 60
-108 89 -160 29 -52 68 -122 86 -155 47 -87 121 -197 141 -209 18 -11 44 -1
123 49 22 13 58 34 80 46 22 12 73 44 114 70 41 27 78 49 82 49 5 0 9 4 9 8 0
4 13 15 29 25 40 23 155 110 159 119 2 5 9 8 16 8 6 0 18 9 26 20 8 11 19 20
25 20 5 0 33 21 60 45 28 25 53 45 57 45 3 0 26 19 51 42 24 24 82 79 128 123
171 163 271 319 310 482 25 107 22 179 -12 248 -21 43 -24 64 -24 155 1 94 31
299 47 315 5 5 30 -25 78 -95 20 -29 59 -77 93 -113 29 -31 33 -42 17 -52 -14
-8 -83 -154 -108 -226 -11 -31 -25 -94 -32 -140 -15 -101 -4 -157 38 -190 25
-19 35 -21 127 -16 121 6 200 34 349 120 57 34 71 39 87 29 10 -7 25 -12 33
-12 8 0 54 -38 103 -85 l88 -84 -100 -1 c-146 0 -250 -26 -490 -119 -44 -17
-86 -31 -93 -31 -7 0 -42 -18 -78 -40 -36 -22 -68 -40 -70 -40 -13 0 -304
-223 -304 -232 0 -5 -5 -8 -10 -8 -6 0 -21 -10 -34 -23 -13 -12 -47 -42 -76
-67 -29 -25 -62 -54 -74 -65 -12 -11 -59 -54 -105 -95 -98 -87 -105 -94 -235
-220 -54 -52 -104 -110 -112 -129 -37 -90 -41 -373 -8 -631 9 -63 18 -141 21
-172 5 -58 18 -73 49 -61 13 5 15 14 9 47 -37 223 -46 306 -52 505 -6 192 3
270 36 320 19 30 196 202 365 355 43 39 100 90 125 114 80 75 221 177 374 272
146 90 168 101 257 135 70 27 94 37 112 46 112 57 312 93 443 79 125 -14 148
-22 460 -175 259 -128 413 -181 651 -224 89 -16 432 -14 532 4 311 55 639 190
949 390 80 52 210 172 249 229 10 16 26 36 35 45 21 21 129 177 129 186 0 3 7
13 15 21 38 39 2 57 -58 30 -18 -7 -52 -23 -77 -34 -172 -76 -277 -101 -420
-102 -188 0 -257 18 -498 136 -208 102 -363 144 -644 174 -208 22 -351 9 -738
-65 -117 -22 -304 -53 -430 -70 -139 -20 -162 -32 -286 -152 -49 -48 -105 -99
-123 -113 -94 -72 -295 -150 -386 -150 -38 0 -57 5 -73 20 -48 45 -16 230 70
412 23 49 47 88 55 88 7 0 13 -4 13 -9 0 -4 20 -19 45 -32 83 -44 94 -10 67
206 -13 100 -8 365 7 393 5 9 36 -21 93 -90 47 -57 101 -119 119 -139 19 -19
52 -58 74 -85 22 -27 47 -56 55 -64 31 -32 80 -98 80 -109 0 -6 5 -11 10 -11
6 0 10 -6 10 -13 0 -8 11 -24 25 -37 l24 -23 11 27 c5 15 10 93 10 174 0 173
9 282 23 282 5 0 30 -20 54 -45 24 -25 48 -45 53 -45 6 0 10 -3 10 -7 0 -5 25
-34 55 -66 29 -32 75 -83 100 -113 79 -93 90 -74 90 154 l-1 152 23 -24 c13
-14 23 -28 23 -32 0 -3 14 -26 30 -51 17 -24 30 -46 30 -49 0 -3 18 -32 40
-65 22 -33 40 -64 40 -68 0 -12 45 -51 58 -51 6 0 19 17 29 37 14 32 17 73 17
253 1 213 -5 270 -41 423 -9 37 -13 70 -10 73 5 5 46 -6 297 -78 225 -65 380
-83 380 -43 0 7 -17 35 -37 62 -66 87 -98 128 -103 133 -3 3 -17 20 -30 39
-33 48 -173 186 -210 207 -38 23 -40 45 -2 39 15 -2 61 -9 102 -15 133 -19
193 -32 280 -60 146 -49 190 -49 205 0 6 20 -36 108 -94 194 -14 21 -30 46
-36 55 -5 9 -12 18 -15 21 -3 3 -13 17 -22 31 -18 29 -83 102 -187 211 -55 58
-208 178 -244 191 -6 2 -9 7 -6 11 7 8 99 31 159 40 25 4 92 23 150 42 218 72
500 242 500 302 0 30 -72 49 -217 57 -195 10 -229 22 -109 40 27 3 63 13 80
20 44 19 96 40 136 55 38 15 162 80 170 90 3 3 21 17 40 30 82 56 111 108 72
129 -10 5 -50 15 -88 21 -156 26 -381 78 -429 100 -33 15 -197 62 -238 67 -51
7 -56 21 -10 28 66 12 156 35 213 56 30 11 96 35 145 52 123 44 135 52 135 86
0 21 -9 37 -32 55 -18 15 -38 31 -45 36 -7 6 -17 10 -23 10 -5 0 -10 4 -10 8
0 5 -19 19 -42 32 -24 13 -45 27 -48 31 -10 13 -246 87 -318 99 -40 7 -71 14
-68 17 3 3 61 25 128 48 68 23 143 51 167 63 25 12 48 22 52 22 4 0 37 18 73
40 36 22 70 40 76 40 5 0 10 3 10 8 1 4 23 23 50 42 46 33 70 65 70 94 0 26
-51 36 -188 36 -136 1 -340 15 -350 25 -3 2 15 22 38 42 71 61 81 73 185 193
55 63 107 122 117 131 10 9 18 24 18 33 0 13 -11 16 -59 16 -88 0 -278 -28
-380 -56 -21 -6 -22 -5 -12 15 7 11 15 21 19 21 18 0 92 132 121 213 38 109
40 147 9 148 -80 4 -351 -43 -407 -71 -9 -4 -29 -12 -46 -17 -16 -6 -38 -14
-47 -18 -13 -5 -18 -3 -18 8 0 8 3 17 7 19 12 5 73 95 73 106 0 6 4 12 8 14
17 7 136 198 196 313 12 22 24 42 27 45 14 13 80 193 77 213 -3 19 -9 22 -40
20 -37 -2 -186 -54 -285 -99 -123 -56 -318 -192 -395 -278 -24 -26 -23 -15 6
130 14 66 30 157 36 204 6 47 15 114 20 150 25 169 25 170 0 170 -12 0 -34 -9
-48 -20 -104 -82 -393 -362 -448 -435 -17 -22 -53 -83 -79 -135 -55 -109 -53
-105 -61 -97 -3 3 1 41 9 84 20 105 34 211 47 373 6 74 18 182 27 240 8 58 18
120 20 138 11 72 -47 30 -330 -237 -43 -42 -71 -61 -77 -55 -12 12 -30 174
-30 276 0 57 -4 81 -16 93 -15 15 -18 14 -43 -1 -25 -16 -129 -118 -162 -161
-32 -40 -99 -142 -99 -151 0 -5 -9 -17 -20 -27 -16 -14 -20 -15 -20 -3 0 8 -9
33 -20 56 -11 22 -20 47 -20 54 -1 7 -9 31 -20 53 -11 22 -19 47 -20 56 0 8
-4 19 -9 25 -14 14 -38 146 -46 249 -4 50 -11 95 -16 101 -6 8 -2 14 13 18 39
10 4092 7 4108 -4 13 -8 15 -495 15 -4280 0 -2348 3 -4270 8 -4270 4 0 7 1928
7 4285 l0 4285 -3750 0 -3750 0 0 -4305z m3323 4123 c4 -95 32 -211 66 -283
36 -74 95 -253 117 -355 33 -149 42 -464 19 -625 -37 -262 -81 -357 -156 -338
-35 9 -48 27 -64 80 -7 27 -20 66 -29 88 l-15 40 0 -60 c0 -33 4 -69 8 -80 6
-14 2 -25 -12 -37 -47 -41 -115 -6 -137 69 -6 21 -13 76 -16 123 -8 119 -26
198 -95 405 -58 174 -60 183 -54 255 14 176 28 265 50 331 27 79 75 182 87
187 4 2 8 12 8 22 0 10 3 20 8 22 4 2 23 28 42 58 19 30 37 57 40 60 3 3 17
21 30 40 31 45 81 100 90 100 4 0 10 -46 13 -102z m-660 -94 c6 -85 13 -113
65 -259 24 -67 33 -91 68 -172 51 -119 79 -189 99 -253 10 -30 23 -68 30 -85
19 -43 65 -183 65 -196 0 -6 7 -25 14 -42 44 -96 66 -260 42 -324 -20 -56 -74
-128 -111 -148 -28 -16 -34 -16 -68 -2 -37 16 -37 16 -38 79 -1 47 -3 57 -9
38 -4 -14 -8 -42 -9 -62 -1 -26 -7 -40 -20 -48 -27 -14 -80 -13 -95 3 -15 15
-33 87 -42 172 -7 69 -35 191 -57 250 -18 48 -111 227 -144 275 -22 32 -23 44
-23 183 0 192 21 279 124 516 54 123 83 174 96 166 4 -2 10 -44 13 -91z m-320
-130 c94 -127 100 -139 88 -163 -17 -30 -41 -188 -41 -262 0 -37 -4 -70 -9
-73 -7 -5 -66 76 -80 109 -2 6 -7 12 -11 15 -15 11 -140 202 -140 214 0 47 92
271 109 264 5 -2 42 -48 84 -104z m-328 -1 c28 -78 81 -173 162 -291 24 -35
43 -67 43 -72 0 -4 3 -10 8 -12 17 -8 192 -285 192 -305 0 -7 3 -13 8 -13 4 0
12 -10 18 -23 6 -12 36 -71 66 -132 55 -110 67 -153 98 -350 7 -38 16 -93 22
-122 9 -42 8 -56 -3 -69 -20 -24 -59 -36 -96 -29 -29 5 -33 10 -43 58 -17 85
-30 91 -30 15 l0 -66 -43 -21 c-76 -37 -97 -24 -97 57 0 60 -17 176 -31 207
-5 11 -18 45 -29 75 -24 61 -82 179 -109 219 -10 14 -47 71 -83 126 -37 55
-76 110 -87 122 -106 112 -122 465 -31 671 11 24 23 41 28 38 5 -3 22 -40 37
-83z m1805 4 c0 -46 7 -132 15 -191 15 -109 12 -135 -19 -153 -20 -12 -102
-124 -139 -190 -18 -32 -43 -87 -56 -123 -34 -94 -41 -95 -41 -5 0 67 -13 165
-47 351 -4 25 3 48 32 100 20 38 40 71 44 74 4 3 18 21 31 40 47 67 155 180
172 180 5 0 8 -37 8 -83z m-867 -1 c15 -40 27 -78 27 -84 0 -7 -11 -51 -25
-99 -15 -49 -29 -129 -32 -181 -3 -51 -10 -89 -14 -85 -12 12 -139 319 -139
335 0 31 120 188 143 188 7 0 24 -33 40 -74z m1303 -33 c-15 -73 -35 -220 -46
-328 -11 -113 -59 -440 -80 -550 -14 -71 -52 -185 -62 -185 -4 0 -8 -7 -8 -15
0 -14 -18 -53 -30 -65 -3 -3 -23 -31 -45 -64 -78 -115 -211 -217 -261 -200
-52 16 -64 28 -64 58 0 30 0 30 -16 8 -12 -17 -25 -22 -59 -22 -24 0 -55 4
-69 10 l-25 9 24 68 c13 37 33 122 45 188 23 125 96 437 110 464 4 9 18 40 31
68 13 29 27 53 32 53 4 0 7 5 7 10 0 35 142 189 329 359 46 42 104 95 130 119
53 49 65 52 57 15z m-2442 -88 c34 -65 36 -75 36 -165 1 -52 5 -115 10 -140 4
-25 6 -47 3 -50 -6 -6 -82 79 -121 134 -24 35 -27 48 -25 112 1 61 21 153 40
187 8 13 19 -2 57 -78z m-281 18 c6 -16 14 -30 17 -33 3 -3 14 -21 23 -41 18
-40 79 -130 105 -158 31 -32 119 -135 182 -212 19 -24 42 -51 50 -60 8 -8 20
-23 25 -31 6 -9 36 -50 68 -92 31 -42 57 -80 57 -85 0 -5 4 -11 8 -13 29 -12
161 -267 188 -363 28 -96 31 -339 4 -296 -5 9 -10 -6 -14 -40 -10 -74 -24
-106 -49 -113 -44 -12 -55 -7 -63 27 -13 61 -64 211 -80 235 -9 13 -30 49 -47
80 -27 50 -69 110 -113 165 -8 9 -14 20 -14 23 0 7 -68 79 -211 223 l-125 126
-22 80 c-27 95 -41 263 -37 430 3 124 11 175 26 175 5 0 15 -12 22 -27z m3262
-195 c-44 -282 -98 -533 -139 -640 -43 -115 -176 -371 -206 -398 -3 -3 -16
-22 -30 -42 -14 -21 -28 -38 -32 -38 -5 0 -8 -4 -8 -9 0 -22 -152 -162 -209
-192 -38 -20 -41 -20 -75 -4 -20 10 -36 21 -36 27 0 5 -9 18 -20 30 -11 12
-20 36 -20 52 l0 31 -19 -24 c-18 -24 -20 -24 -45 -8 -29 19 -55 91 -40 112
43 60 130 171 136 173 5 2 8 10 8 17 0 8 6 20 13 27 7 7 25 45 41 83 16 39 53
120 83 182 29 62 53 116 53 121 0 9 83 159 97 177 5 6 19 26 32 45 33 49 275
284 401 391 34 28 35 15 15 -113z m-3545 13 c30 -17 74 -40 96 -52 23 -12 55
-33 72 -48 28 -24 30 -31 36 -122 3 -53 13 -119 21 -145 18 -59 18 -54 2 -54
-8 0 -25 10 -38 21 -13 12 -40 33 -59 48 -19 14 -37 28 -40 31 -6 6 -84 49
-116 64 -29 14 -43 51 -51 128 -6 67 3 158 15 158 4 0 32 -13 62 -29z m-409
-157 c130 -37 187 -56 234 -76 88 -37 216 -102 227 -115 6 -7 15 -13 20 -13 5
0 16 -6 23 -12 15 -14 24 -21 69 -56 127 -98 391 -359 449 -444 12 -18 34 -49
48 -68 38 -52 124 -227 139 -285 7 -27 16 -54 21 -60 4 -5 8 -28 9 -50 3 -55
1 -62 -10 -45 -14 23 -20 8 -11 -33 11 -48 -11 -51 -35 -4 -72 140 -312 348
-524 453 -41 20 -137 58 -213 84 -150 52 -158 58 -295 215 -45 51 -176 246
-202 300 -8 17 -18 32 -21 35 -21 19 -64 172 -51 184 10 11 69 6 123 -10z
m4599 6 c0 -5 -16 -43 -35 -84 -19 -41 -35 -78 -35 -81 0 -4 -20 -40 -45 -81
-25 -40 -45 -78 -45 -83 0 -5 -3 -11 -8 -13 -10 -4 -92 -137 -92 -149 0 -5 -4
-9 -8 -9 -4 0 -19 -18 -32 -40 -14 -22 -28 -40 -32 -40 -5 0 -8 -7 -8 -15 0
-8 -3 -15 -7 -15 -5 0 -20 -19 -35 -43 -35 -55 -80 -95 -143 -127 -140 -71
-311 -179 -395 -249 -30 -25 -66 -55 -80 -66 -13 -11 -60 -55 -104 -97 -82
-80 -110 -93 -119 -57 -7 26 1 49 18 49 23 0 194 183 249 265 45 68 176 321
176 339 0 4 9 25 19 49 11 23 26 61 33 84 18 54 89 131 198 213 19 14 46 35
61 48 15 12 32 22 38 22 6 0 11 3 11 8 0 4 10 12 23 18 12 6 54 27 92 46 63
33 108 53 170 78 26 10 118 39 128 39 4 1 7 -3 7 -9z m-4837 -524 c124 -87
204 -121 422 -177 143 -36 253 -70 339 -103 81 -31 247 -117 293 -152 17 -13
36 -24 42 -24 6 0 11 -4 11 -8 0 -5 19 -22 43 -39 60 -43 171 -158 193 -199
10 -18 22 -34 26 -34 5 0 8 -5 8 -12 0 -6 9 -31 21 -55 12 -24 18 -50 15 -58
-9 -24 -57 -18 -88 12 -21 20 -28 23 -28 11 0 -9 6 -18 12 -20 17 -6 16 -92
-1 -112 -8 -9 -19 -16 -26 -16 -16 0 -84 36 -193 104 -100 62 -205 121 -292
164 -30 15 -57 30 -60 33 -3 4 -21 10 -40 14 -19 4 -41 11 -50 16 -24 13 -112
39 -131 39 -10 0 -19 3 -21 8 -1 4 -28 23 -58 42 -138 86 -251 186 -318 280
-26 36 -49 67 -52 70 -19 17 -140 235 -140 253 0 13 11 7 73 -37z m4982 -128
c-4 -24 -10 -47 -14 -53 -4 -5 -16 -32 -26 -60 -10 -27 -24 -57 -31 -66 -8 -8
-14 -19 -14 -24 0 -4 -40 -47 -88 -94 -90 -88 -104 -100 -182 -161 -25 -19
-47 -37 -50 -40 -15 -17 -199 -125 -288 -170 -103 -51 -318 -127 -420 -149
-64 -13 -149 -14 -156 -2 -4 5 0 11 6 14 7 3 -16 8 -50 12 l-64 8 6 30 c21
104 315 361 581 507 33 18 77 44 97 57 21 12 40 23 42 23 3 0 51 22 108 49 90
43 169 71 334 121 42 12 162 36 197 39 17 1 18 -4 12 -41z m-5007 -76 c36 -19
67 -49 103 -98 59 -77 137 -156 217 -216 28 -22 52 -43 52 -47 0 -7 -134 11
-180 25 -72 20 -154 120 -237 286 -18 37 -33 70 -33 73 0 12 30 3 78 -23z
m2510 -139 c6 -15 12 -33 12 -39 0 -20 72 -74 99 -74 14 0 40 5 58 12 28 10
38 9 64 -6 25 -15 43 -17 86 -12 33 4 62 2 75 -5 12 -6 55 -15 97 -20 41 -5
77 -12 80 -17 3 -5 22 -15 41 -22 31 -11 41 -9 94 14 69 31 76 32 76 9 0 -32
36 -78 75 -98 22 -11 49 -31 61 -45 12 -14 31 -35 42 -48 14 -16 33 -24 64
-25 52 -3 68 -12 68 -37 0 -10 7 -20 15 -24 19 -7 19 -37 0 -62 -22 -29 -19
-77 8 -101 12 -12 45 -29 74 -39 45 -16 54 -23 67 -59 8 -22 13 -52 10 -66 -5
-22 3 -36 45 -78 28 -29 51 -61 51 -72 0 -11 12 -31 26 -44 l26 -24 -36 -36
c-20 -20 -36 -45 -36 -56 0 -23 30 -79 42 -79 11 0 10 -42 -1 -58 -15 -24 9
-93 35 -102 14 -6 26 -20 29 -37 3 -15 16 -48 29 -73 21 -41 22 -56 20 -185
-3 -123 -5 -142 -22 -155 -30 -25 -45 -60 -38 -93 5 -24 1 -36 -18 -56 -39
-42 -41 -78 -8 -144 32 -63 30 -67 -43 -67 -61 0 -94 -15 -108 -49 -7 -16 -25
-40 -41 -52 -27 -21 -28 -25 -22 -83 12 -128 13 -121 -9 -119 -41 6 -86 -9
-114 -36 -16 -16 -38 -35 -48 -42 -32 -24 -53 -62 -53 -97 0 -34 0 -34 -32
-26 -50 14 -209 10 -246 -5 -18 -8 -54 -41 -83 -77 -31 -40 -58 -64 -70 -64
-24 0 -108 -60 -109 -77 0 -7 -3 -13 -8 -13 -4 0 -16 -16 -26 -35 l-19 -35
-25 39 c-14 22 -37 45 -50 53 -36 19 -140 17 -184 -5 -35 -16 -40 -17 -69 -2
-36 19 -65 11 -113 -30 l-29 -25 -32 35 c-17 19 -37 35 -43 35 -7 0 -12 4 -12
8 0 14 -58 42 -88 42 -16 0 -43 -5 -60 -11 -25 -8 -37 -7 -70 10 -22 11 -41
19 -43 17 -2 -2 -16 -6 -31 -10 -24 -5 -28 -3 -28 14 0 30 -25 75 -56 99 -20
15 -41 21 -81 21 -49 0 -57 3 -88 36 -36 38 -38 38 -117 18 -28 -6 -28 -6 -29
42 0 66 -38 168 -63 172 -11 2 -27 14 -37 25 -12 16 -26 21 -53 19 -41 -3 -42
-1 -21 58 31 87 14 144 -45 152 -20 2 -24 8 -21 28 11 78 6 109 -23 139 -16
16 -41 35 -57 41 -23 10 -29 19 -29 43 0 22 -10 40 -39 68 l-40 37 21 24 c37
43 44 90 15 109 -5 4 -13 30 -18 59 -4 29 -15 60 -24 70 -8 9 -15 35 -15 59 0
24 -7 58 -16 77 -14 29 -14 39 -4 64 10 24 10 36 -1 63 -7 17 -15 34 -18 37
-35 31 -34 40 11 84 58 56 79 121 56 170 -14 29 -14 33 1 47 46 40 55 123 21
184 -11 20 -18 40 -15 44 2 5 23 4 45 -2 62 -17 92 -2 110 55 14 43 18 47 50
50 28 2 38 9 50 36 9 18 28 44 43 58 15 14 30 38 33 54 5 23 13 29 43 35 77
15 110 52 132 149 12 54 13 56 43 55 17 -1 50 6 74 16 33 13 51 15 80 8 62
-16 109 -5 150 36 37 36 38 36 117 34 44 -1 100 -5 123 -8 43 -7 44 -7 98 50
30 32 54 62 54 67 0 19 26 6 38 -19z m2746 -102 c4 -5 3 -11 -1 -13 -7 -3
-105 -113 -149 -167 -35 -43 -66 -71 -154 -135 l-59 -43 -223 -6 c-123 -4
-238 -9 -255 -13 -44 -8 -42 7 5 31 51 27 261 165 295 195 16 14 45 40 65 58
49 43 77 50 347 87 119 16 123 16 129 6z m-4974 -163 c93 -15 324 -73 394 -98
68 -24 149 -64 256 -126 86 -49 230 -168 230 -190 0 -8 4 -14 8 -14 19 0 56
-109 43 -128 -6 -10 -12 -7 -25 13 -23 36 -54 65 -67 65 -6 0 3 -16 20 -35 32
-37 47 -76 36 -94 -14 -24 -45 -9 -77 35 -18 25 -44 52 -58 59 -42 22 -129 27
-257 15 -73 -6 -129 -7 -140 -2 -295 146 -457 224 -493 240 -117 49 -179 70
-293 102 -82 23 -151 59 -155 81 -2 11 13 23 46 37 132 57 342 73 532 40z
m4790 -267 c47 -6 150 -11 230 -12 80 0 149 -3 153 -6 11 -7 -22 -43 -40 -43
-7 0 -13 -4 -13 -8 0 -19 -269 -152 -307 -152 -7 0 -13 -4 -13 -10 0 -5 -7
-10 -15 -10 -8 0 -56 -13 -107 -29 -163 -50 -255 -67 -468 -86 -289 -27 -353
-35 -420 -51 -118 -28 -115 -28 -139 1 -29 38 -26 67 12 105 34 35 28 36 -40
9 -29 -12 -34 -11 -67 15 -20 15 -36 35 -36 46 0 31 106 106 195 138 150 54
194 64 400 93 145 20 517 20 675 0z m-5095 -7 c135 -16 144 -19 255 -73 168
-82 299 -151 305 -161 3 -4 -21 -11 -53 -14 -102 -12 -206 -27 -259 -37 -128
-25 -135 -22 -394 168 -48 35 -89 63 -92 63 -3 0 -20 13 -38 29 l-32 29 24 5
c52 10 151 6 284 -9z m1071 -298 c49 -56 45 -66 -23 -66 -87 -1 -40 -22 60
-28 66 -4 80 -8 92 -26 21 -32 7 -73 -40 -122 -33 -35 -49 -44 -76 -44 -122
-2 -215 -10 -289 -25 -72 -15 -114 -17 -282 -11 -177 7 -212 11 -336 41 -192
48 -362 133 -362 183 0 15 13 17 91 20 50 1 133 12 183 23 231 51 663 99 865
96 l83 -2 34 -39z m3979 -125 c114 -35 217 -79 289 -125 128 -80 128 -82 36
-111 -30 -10 -59 -21 -65 -25 -26 -19 -253 -82 -360 -101 -152 -25 -396 -42
-500 -34 -44 3 -136 19 -205 35 -69 16 -154 32 -190 36 -36 3 -71 11 -77 17
-7 5 -13 27 -13 48 0 43 26 69 70 69 14 0 30 4 36 9 5 5 18 12 29 15 11 3 -14
3 -55 0 -76 -4 -84 -2 -109 29 -12 15 -11 20 4 37 10 11 24 20 31 20 7 0 14 3
16 8 6 14 84 49 136 62 82 19 300 28 607 25 182 -1 294 -7 320 -14z m-5117
-112 c140 -74 356 -128 513 -129 133 -1 -61 -39 -318 -62 -89 -8 -137 -9 -141
-2 -4 5 -30 19 -59 31 -92 38 -273 175 -273 207 0 9 28 9 101 4 90 -8 108 -13
177 -49z m1205 -137 c32 -31 37 -41 31 -67 -9 -42 -27 -59 -50 -47 -27 13 -93
22 -98 13 -3 -4 13 -14 36 -20 63 -19 115 -56 120 -85 8 -40 -10 -47 -78 -29
-112 31 -427 19 -479 -17 -5 -4 -28 -13 -50 -20 -22 -7 -59 -22 -83 -33 -34
-16 -55 -18 -102 -14 -141 15 -295 71 -387 142 -78 59 -79 59 162 85 229 25
455 63 575 97 95 28 212 42 290 37 69 -5 78 -8 113 -42z m-1183 -192 c12 -16
105 -74 164 -101 34 -16 96 -36 136 -45 114 -24 116 -29 23 -76 -63 -31 -75
-33 -163 -32 -87 1 -154 12 -205 33 -112 49 -133 61 -252 147 -29 21 -29 44
-1 44 25 0 119 17 198 35 52 13 89 11 100 -5z m4665 1 c257 -8 302 -12 395
-34 58 -14 123 -32 145 -40 139 -52 289 -92 440 -117 138 -23 140 -23 112 -52
-88 -86 -286 -174 -527 -234 -41 -10 -78 -23 -82 -28 -12 -17 -143 4 -338 54
-107 28 -208 55 -225 60 -16 5 -61 18 -100 30 -120 36 -209 50 -279 43 -89 -8
-99 1 -91 81 12 120 23 156 57 184 69 58 107 73 168 66 19 -3 166 -8 325 -13z
m-3533 -91 c100 -26 120 -38 116 -70 -2 -16 -8 -24 -18 -21 -8 2 -44 5 -80 7
-36 2 -56 1 -45 -2 141 -35 203 -72 188 -112 -12 -32 -67 -72 -99 -72 -36 0
-167 -33 -241 -60 -54 -20 -215 -97 -271 -130 -52 -31 -193 -62 -290 -62 -48
-1 -127 7 -177 16 -87 17 -255 64 -265 75 -3 4 -18 13 -33 21 -34 17 -97 85
-97 104 0 20 13 23 138 25 113 3 192 17 261 47 65 29 126 59 131 64 3 3 43 25
90 49 47 24 90 47 95 51 16 12 125 51 195 70 96 27 297 26 402 0z m3138 -270
c47 -6 137 -26 200 -46 137 -42 174 -52 220 -64 19 -5 89 -22 155 -39 162 -41
336 -67 538 -81 165 -11 197 -16 197 -29 0 -3 -36 -30 -79 -58 -139 -92 -307
-165 -466 -204 -44 -11 -93 -24 -110 -29 -16 -5 -66 -12 -110 -16 -73 -5 -85
-3 -140 21 -33 15 -80 33 -105 41 -25 8 -54 19 -65 24 -34 16 -137 46 -200 60
-176 37 -209 49 -240 82 -29 31 -65 95 -65 115 0 34 82 72 157 73 24 1 26 2
10 11 -10 6 -35 8 -57 4 -32 -5 -40 -3 -49 14 -18 34 -13 70 15 94 44 38 69
42 194 27z m-2969 -71 c13 -13 19 -30 17 -47 -3 -23 -10 -29 -53 -39 l-50 -11
54 -1 c75 -1 128 -19 157 -54 41 -49 27 -87 -33 -87 -53 0 -239 -69 -283 -105
-8 -7 -53 -24 -100 -39 -47 -15 -96 -33 -110 -40 -36 -20 -200 -87 -235 -97
-16 -4 -61 -17 -98 -28 -139 -41 -261 -55 -455 -52 -115 1 -110 20 21 77 97
42 177 90 229 139 15 14 31 25 37 25 5 0 11 3 13 8 7 15 149 116 223 158 184
104 253 136 375 178 97 33 101 33 193 35 65 1 80 -2 98 -20z m-909 -222 c60
-1 108 -3 108 -4 0 -2 -42 -34 -92 -72 -86 -65 -161 -101 -248 -123 -152 -37
-363 -51 -373 -24 -9 23 22 55 127 132 56 41 106 78 113 83 6 6 25 19 42 29
30 18 33 18 123 -1 53 -11 139 -20 200 -20z m1035 -73 c4 -12 -5 -26 -28 -45
-39 -33 -31 -36 26 -10 59 28 79 14 70 -47 -12 -78 -50 -134 -102 -147 -25 -6
-138 -73 -183 -110 -30 -24 -199 -192 -222 -222 -9 -12 -33 -44 -54 -72 -21
-28 -44 -51 -50 -51 -7 0 -14 -7 -18 -15 -3 -8 -12 -15 -20 -15 -8 0 -16 -3
-18 -8 -4 -9 -78 -67 -98 -75 -8 -4 -33 -18 -55 -32 -153 -94 -303 -161 -321
-142 -12 12 17 119 49 182 32 65 86 148 99 153 4 2 8 10 8 18 0 8 3 14 8 14 4
0 18 17 32 38 72 108 424 413 575 496 28 16 55 33 62 38 7 5 45 23 85 39 84
33 145 38 155 13z m2732 -60 c171 -34 217 -47 351 -97 144 -54 186 -72 198
-84 7 -7 18 -13 24 -13 16 0 190 -109 196 -122 2 -5 8 -8 13 -8 9 0 59 -42
113 -96 12 -11 48 -51 81 -89 33 -38 71 -80 84 -94 46 -50 181 -269 181 -295
0 -13 -53 -5 -116 19 -74 28 -205 57 -364 79 -200 29 -355 56 -405 69 -59 16
-165 67 -165 79 0 4 -7 8 -15 8 -9 0 -23 6 -32 13 -28 22 -113 107 -113 113 0
7 -27 34 -34 34 -3 0 -25 19 -48 43 -68 65 -138 116 -225 162 -57 29 -64 43
-78 152 -8 63 3 70 113 72 44 1 31 21 -14 21 -29 0 -34 3 -34 24 0 17 8 27 28
34 44 17 76 14 261 -24z m-3311 -169 c-114 -93 -138 -115 -208 -187 -72 -74
-79 -79 -160 -103 -137 -42 -279 -91 -374 -130 -160 -66 -186 -29 -63 91 107
104 284 216 362 229 22 3 82 15 133 27 51 11 99 17 107 14 8 -3 61 17 118 44
56 27 108 50 115 50 8 0 -6 -16 -30 -35z m727 -35 c4 -6 -8 -25 -27 -43 -18
-18 -40 -41 -48 -52 -15 -20 -15 -20 15 0 17 10 36 25 43 32 8 7 27 20 42 28
42 22 52 2 58 -115 3 -75 1 -111 -12 -149 -9 -27 -16 -55 -16 -62 0 -28 -100
-197 -145 -245 -5 -6 -34 -38 -63 -71 -90 -104 -221 -231 -302 -293 -25 -19
-47 -37 -50 -40 -15 -18 -142 -97 -232 -144 -99 -52 -152 -70 -281 -96 -56
-11 -127 -7 -127 8 0 4 18 26 40 50 22 24 40 44 40 46 0 1 25 29 55 62 31 32
62 71 70 86 8 15 28 46 44 70 29 44 67 114 137 248 21 41 42 77 46 78 5 2 8
10 8 17 0 11 75 132 90 145 3 3 17 21 30 40 55 79 217 243 285 289 123 84 281
142 300 111z m2280 -100 c28 -13 54 -30 58 -37 4 -7 15 -13 22 -13 8 0 15 -4
15 -8 0 -5 9 -13 19 -18 47 -22 191 -156 247 -229 190 -248 309 -535 349 -839
22 -164 17 -438 -9 -463 -7 -7 -31 23 -60 77 -18 34 -114 181 -173 265 -131
188 -197 265 -295 351 -29 24 -38 42 -47 90 -13 63 -54 206 -76 264 -8 19 -15
40 -17 45 -2 6 -25 48 -53 93 -64 107 -192 242 -229 242 -25 0 -32 68 -11 107
18 32 39 43 115 56 25 4 25 4 3 12 -24 8 -28 16 -15 29 13 14 106 0 157 -24z
m-2020 -140 l28 -30 -27 -21 c-39 -30 -67 -62 -61 -67 3 -3 13 2 22 10 34 30
123 68 159 68 57 0 73 -28 73 -125 0 -138 -19 -198 -129 -405 -19 -36 -38 -69
-42 -75 -12 -15 -176 -242 -217 -300 -20 -27 -40 -55 -46 -61 -5 -6 -28 -33
-50 -59 -22 -27 -67 -80 -100 -119 -33 -39 -69 -82 -80 -95 -11 -13 -24 -29
-30 -35 -5 -6 -23 -30 -39 -53 -16 -24 -36 -43 -44 -43 -13 0 -14 16 -9 113 3
61 11 137 17 167 52 248 67 307 112 430 44 121 123 280 157 317 66 73 161 258
161 315 0 10 6 28 13 41 6 12 13 24 14 25 2 4 74 31 84 32 3 0 18 -13 34 -30z
m1665 -36 c123 -43 266 -194 341 -361 17 -37 34 -75 39 -84 10 -18 33 -111 55
-217 25 -124 20 -281 -17 -477 -6 -33 -12 -145 -14 -249 -2 -103 -4 -190 -6
-192 -2 -2 -24 24 -48 57 -24 33 -51 69 -60 78 -101 117 -126 145 -202 229
-21 23 -38 45 -38 51 0 5 -3 11 -7 13 -26 11 -210 278 -229 331 -4 9 -10 17
-15 17 -5 0 -9 7 -9 15 0 8 -13 42 -29 77 -62 139 -93 288 -94 453 0 140 20
191 96 240 38 24 77 22 134 -10 l48 -27 -32 30 c-17 17 -29 33 -26 36 11 11
67 6 113 -10z m-1336 -150 c20 -20 20 -29 0 -60 -9 -13 -14 -27 -10 -31 3 -3
6 -2 6 4 0 6 21 25 47 42 61 41 118 42 178 4 23 -14 48 -35 54 -46 29 -45 8
-227 -39 -347 -12 -30 -24 -64 -27 -75 -4 -11 -41 -87 -83 -170 -127 -248
-175 -344 -230 -465 -79 -172 -151 -320 -155 -320 -9 0 -29 49 -47 115 -14 51
-21 118 -25 251 -6 204 5 337 43 489 31 125 50 177 113 307 49 102 81 201 81
253 0 29 34 64 62 65 9 0 24 -7 32 -16z m966 -111 c0 -65 6 -152 14 -193 16
-83 81 -289 96 -304 6 -6 10 -18 10 -27 0 -10 3 -19 8 -21 4 -1 18 -23 31 -48
13 -25 38 -65 55 -90 l31 -45 -3 -200 c-2 -143 2 -240 14 -343 9 -78 14 -145
11 -148 -9 -9 -69 38 -134 105 -61 63 -193 251 -193 275 0 9 -4 16 -8 16 -5 0
-15 18 -22 40 -7 22 -16 40 -19 40 -13 0 -72 170 -92 266 -11 54 -10 86 9 245
12 101 24 226 27 278 8 113 27 160 89 224 71 72 76 68 76 -70z m-274 47 c51
-32 59 -64 58 -225 -2 -237 -75 -613 -174 -895 -9 -25 -34 -141 -49 -230 -14
-79 -45 -195 -53 -198 -4 -2 -8 -10 -8 -18 0 -8 -4 -14 -10 -14 -53 0 -184
311 -226 535 -26 136 -28 507 -3 545 44 69 119 338 119 427 0 29 53 83 80 83
30 0 52 -28 40 -50 -17 -32 -11 -35 18 -8 57 54 103 75 146 68 23 -4 51 -12
62 -20z m1546 -48 c31 -18 145 -47 287 -73 66 -13 111 -41 196 -125 125 -124
304 -349 283 -356 -27 -9 -257 41 -398 87 -41 14 -108 35 -148 46 -80 23 -91
34 -117 114 -24 73 -133 295 -145 295 -5 0 -10 7 -10 15 0 20 12 19 52 -3z
m-3050 -364 c-22 -57 -43 -116 -46 -133 -4 -16 -17 -58 -29 -92 -20 -55 -38
-78 -170 -212 -81 -83 -153 -151 -160 -151 -11 0 -12 12 -6 53 22 160 100 344
168 395 48 36 89 72 190 169 47 45 88 80 90 78 1 -2 -15 -50 -37 -107z m478
-139 c-22 -94 -40 -217 -40 -286 0 -40 -4 -73 -8 -73 -4 0 -23 -26 -42 -57
-19 -32 -38 -62 -43 -68 -33 -42 -136 -162 -184 -214 -24 -25 -43 -49 -43 -53
0 -4 -4 -8 -9 -8 -49 0 11 350 72 422 12 14 33 40 47 58 14 18 30 38 36 44 5
6 43 56 84 111 41 55 80 106 87 113 7 7 13 17 13 22 0 11 31 42 37 37 2 -2 -1
-24 -7 -48z m2244 -81 c135 -138 172 -205 205 -366 13 -63 15 -232 2 -232 -4
0 -37 32 -72 72 -67 75 -143 149 -186 183 -59 45 -60 48 -52 106 5 30 14 107
20 172 7 64 17 117 22 117 6 0 33 -24 61 -52z m-1740 -86 c-5 -48 5 -165 33
-382 3 -25 -7 -66 -35 -140 -22 -58 -45 -123 -52 -145 -36 -119 -58 -130 -100
-50 -40 78 -55 156 -54 290 l0 120 45 90 c66 135 152 284 161 279 4 -3 5 -31
2 -62z m616 -195 c12 -34 30 -80 41 -101 37 -74 41 -115 18 -238 -11 -62 -25
-165 -31 -228 -6 -63 -14 -119 -18 -124 -5 -4 -17 2 -27 14 -10 12 -28 33 -40
48 -34 40 -96 150 -115 206 -26 74 -23 118 23 267 23 74 52 174 65 223 33 128
35 129 50 58 7 -34 22 -90 34 -125z m-1714 116 c-17 -59 -36 -197 -36 -265 0
-81 19 -138 46 -138 7 0 52 47 101 104 48 58 92 105 97 105 4 1 6 -9 3 -21
-29 -118 -36 -167 -37 -260 0 -60 -4 -110 -10 -113 -25 -15 -1 -185 37 -260
30 -58 124 -195 234 -341 22 -28 39 -56 39 -62 0 -7 4 -12 9 -12 14 0 89 -250
116 -390 34 -172 29 -519 -8 -542 -25 -16 -36 -6 -89 80 -29 48 -59 96 -66
107 -6 11 -16 29 -21 41 -5 11 -57 105 -115 208 -58 103 -106 192 -106 196 0
5 -4 10 -8 12 -11 5 -155 290 -192 383 -18 44 -44 104 -57 134 -33 71 -28 158
13 246 22 49 28 75 28 140 1 99 -19 156 -82 234 -56 69 -73 84 -141 128 l-55
35 25 15 c14 8 79 69 144 134 66 65 124 119 128 119 5 0 6 -8 3 -17z m554
-292 c0 -134 64 -351 103 -351 24 0 77 81 77 117 0 7 3 13 8 13 4 0 27 38 51
85 24 47 47 85 51 85 4 0 12 -47 18 -104 10 -90 42 -211 61 -226 3 -3 12 -17
20 -32 8 -16 20 -28 27 -28 16 0 24 -29 29 -92 1 -23 4 -45 5 -48 5 -11 18 57
19 102 0 26 12 71 25 100 13 29 34 82 46 118 12 36 26 70 30 75 4 6 10 22 14
38 3 15 10 27 15 27 5 0 21 -39 37 -87 55 -171 116 -283 172 -315 28 -17 30
-17 45 0 19 20 47 95 47 123 0 11 4 19 8 19 5 0 15 30 22 66 12 59 30 95 30
62 0 -46 118 -227 203 -312 l59 -59 -5 -81 c-6 -110 -63 -270 -114 -324 -7 -7
-20 -26 -30 -42 -9 -17 -21 -30 -25 -30 -4 0 -8 -5 -8 -12 0 -7 -58 -69 -128
-138 -132 -128 -145 -140 -222 -200 -25 -19 -47 -37 -50 -40 -3 -3 -32 -25
-65 -50 -33 -25 -66 -50 -73 -57 -7 -7 -26 -20 -42 -30 -17 -9 -30 -21 -30
-25 0 -4 -6 -8 -14 -8 -8 0 -16 -3 -18 -8 -1 -4 -55 -42 -118 -85 -119 -80
-140 -83 -102 -16 10 19 42 81 71 139 29 58 57 113 62 122 5 10 9 21 9 25 0
12 -24 -26 -65 -102 -20 -38 -46 -82 -56 -97 -11 -14 -19 -29 -19 -32 0 -10
-52 -86 -59 -86 -3 0 -4 69 -2 152 4 182 -11 289 -71 513 -31 117 -92 253
-136 302 -15 17 -36 43 -47 58 -11 16 -25 33 -30 39 -60 62 -140 200 -162 276
-15 56 -16 150 -2 187 6 15 43 62 82 104 91 97 175 192 206 236 32 44 41 30
41 -66z m3485 -392 c158 -18 435 -89 435 -111 0 -4 7 -8 17 -8 9 0 72 -27 141
-61 130 -64 244 -109 275 -109 10 0 15 -5 12 -10 -4 -7 -50 -9 -128 -5 -84 3
-113 2 -93 -5 77 -25 430 -9 576 27 108 26 132 34 258 85 41 16 76 27 79 25 5
-5 -17 -48 -30 -58 -4 -3 -18 -21 -32 -40 -151 -203 -311 -329 -605 -471 -210
-102 -342 -153 -485 -187 -49 -12 -106 -26 -125 -32 -52 -16 -442 -24 -520
-11 -203 34 -498 125 -551 169 -8 7 -19 13 -23 13 -4 0 -91 41 -192 90 -101
50 -189 90 -195 90 -12 0 -86 37 -106 53 -8 7 -26 24 -41 38 -62 59 -153 128
-191 145 -38 17 -53 38 -32 46 5 2 49 41 98 89 103 98 88 93 378 135 237 34
262 33 760 -46 33 -5 74 -9 90 -9 56 2 -256 74 -395 91 -47 5 -89 14 -94 19
-6 6 -4 9 5 9 7 1 84 11 169 25 173 26 393 32 545 14z"/>
</g>
</svg>
