<?xml version="1.0" standalone="no"?>
<!DOCTYPE svg PUBLIC "-//W3C//DTD SVG 20010904//EN"
 "http://www.w3.org/TR/2001/REC-SVG-20010904/DTD/svg10.dtd">
<svg version="1.0" xmlns="http://www.w3.org/2000/svg"
 width="660.000000pt" height="758.000000pt" viewBox="0 0 660.000000 758.000000"
 preserveAspectRatio="xMidYMid meet">
<metadata>
Created by potrace 1.16, written by Peter Selinger 2001-2019
</metadata>
<g transform="translate(0.000000,758.000000) scale(0.100000,-0.100000)"
fill="#000000" stroke="none">
<path d="M3132 7483 c-36 -51 -119 -227 -141 -298 -28 -88 -51 -197 -51 -237
0 -29 -1 -29 -43 28 -88 118 -232 230 -331 258 -28 8 -88 19 -133 25 -83 10
-158 36 -225 78 -21 13 -40 23 -44 23 -13 0 3 -354 19 -410 8 -30 14 -56 12
-58 -2 -2 -20 8 -42 22 -59 39 -176 73 -323 94 -150 21 -208 43 -264 99 l-36
36 -16 -39 c-23 -55 -15 -226 15 -308 25 -71 25 -69 3 -57 -64 34 -112 44
-243 46 -109 3 -147 8 -195 25 -102 38 -99 38 -115 -17 -7 -27 -13 -90 -13
-143 1 -108 21 -172 86 -279 22 -35 38 -64 36 -66 -2 -1 -48 -23 -103 -48
-126 -58 -186 -77 -252 -77 -47 0 -53 -2 -59 -24 -15 -63 56 -246 131 -333
l37 -43 -78 -85 c-87 -96 -120 -118 -198 -136 l-54 -13 13 -27 c39 -75 192
-208 316 -274 l60 -32 2 -119 c2 -94 7 -134 26 -191 14 -44 29 -73 38 -73 7 0
24 24 37 54 19 42 36 62 77 90 30 20 60 36 68 36 22 0 5 -109 -35 -227 -18
-55 -34 -103 -34 -106 0 -15 33 -14 67 2 46 22 190 57 199 48 3 -3 0 -22 -6
-43 -30 -91 9 -238 85 -323 43 -47 62 -51 75 -17 5 14 30 44 55 68 25 24 60
67 77 96 16 29 31 52 33 50 2 -2 15 -37 30 -78 32 -90 43 -153 44 -242 1 -44
5 -68 14 -71 6 -2 43 9 81 25 80 32 76 32 76 16 0 -46 143 -278 171 -278 20 0
80 64 105 111 l17 33 23 -82 c43 -149 111 -263 226 -383 80 -82 232 -199 281
-215 9 -4 17 -16 17 -28 0 -11 9 -365 20 -786 43 -1661 50 -2003 45 -2008 -2
-3 -14 17 -26 44 -30 71 -95 212 -171 373 l-48 104 14 51 c23 80 36 187 36
286 0 85 -1 91 -19 85 -16 -5 -19 2 -25 52 -13 112 -110 411 -145 446 -15 15
-31 -2 -31 -34 0 -41 -14 -36 -44 15 -28 48 -117 145 -184 200 -45 37 -78 39
-67 5 7 -20 -9 -27 -20 -9 -17 28 -313 100 -410 100 -52 0 -66 -22 -27 -40 77
-36 -124 -10 -282 37 -17 5 -18 1 -14 -34 l6 -39 -74 -13 c-170 -29 -413 -133
-607 -261 -107 -71 -127 -97 -71 -93 l28 2 -34 -21 c-19 -11 -37 -24 -40 -27
-3 -4 -27 -22 -55 -41 -27 -18 -134 -96 -237 -172 -125 -93 -185 -144 -182
-153 3 -8 27 -17 52 -21 288 -40 571 -176 763 -364 72 -72 139 -150 139 -165
0 -3 -8 -4 -19 0 -10 3 -23 -1 -30 -9 -11 -13 2 -30 76 -103 96 -96 184 -153
360 -233 57 -27 107 -50 110 -53 3 -3 -15 -20 -40 -38 -48 -33 -53 -59 -12
-59 110 0 298 46 435 107 84 37 254 150 287 191 20 25 24 8 8 -32 -14 -33 -14
-37 1 -43 22 -8 129 102 185 191 21 33 42 66 46 71 5 6 14 22 22 38 8 15 17
27 21 27 11 0 70 -106 106 -191 47 -111 114 -331 154 -504 18 -77 34 -142 36
-144 4 -4 426 -32 429 -29 1 2 -2 32 -6 68 -4 36 -11 153 -15 260 -13 367 36
710 148 1022 l20 57 72 -87 c99 -119 326 -332 353 -332 23 0 24 21 3 56 -29
47 -19 53 27 17 64 -49 134 -89 238 -136 102 -47 244 -97 271 -97 31 0 25 30
-15 78 -23 26 -41 51 -41 55 0 4 33 7 73 7 180 0 389 85 657 266 142 97 133
90 335 245 337 259 403 306 596 422 207 125 477 256 582 282 31 8 37 41 10 49
-10 3 -74 21 -143 41 -219 63 -500 172 -665 257 l-50 26 53 7 c78 11 71 33
-30 88 -171 92 -387 161 -693 222 -113 23 -150 33 -126 36 54 6 48 25 -17 58
-109 55 -209 76 -367 76 -159 0 -238 -17 -402 -84 -51 -21 -90 -33 -86 -27 3
6 19 30 35 53 30 44 36 73 16 73 -20 0 -97 -47 -153 -93 -113 -92 -202 -212
-313 -422 l-63 -120 5 88 c6 80 5 87 -13 87 -39 0 -110 -148 -137 -288 -8 -42
-18 -122 -21 -177 l-7 -100 -14 38 c-54 138 -99 -170 -51 -343 11 -41 27 -82
35 -91 20 -22 19 -27 -31 -114 -75 -132 -130 -298 -167 -505 -13 -73 -13 -66
-16 195 -3 271 6 484 34 800 41 458 136 1184 156 1197 6 3 32 9 57 13 53 8
169 45 246 80 139 61 296 195 390 333 l50 74 31 -38 c22 -26 37 -35 48 -31 28
11 46 71 46 152 0 41 4 75 9 75 6 0 25 -9 43 -19 33 -20 244 -112 284 -125 19
-6 22 -2 27 32 7 38 53 139 82 177 14 17 18 18 48 6 17 -7 57 -21 87 -30 57
-16 136 -59 164 -87 9 -8 20 -12 26 -9 18 11 11 108 -15 190 -14 44 -25 83
-25 87 0 4 15 2 33 -3 17 -6 115 -14 217 -19 102 -4 200 -13 218 -20 51 -19
59 -2 28 58 -30 59 -76 212 -76 252 0 27 1 27 83 36 133 14 184 9 270 -24 l78
-30 -7 36 c-14 80 -56 176 -133 308 l-30 52 32 6 c18 4 57 17 88 29 61 26 219
116 219 126 0 4 -15 14 -32 24 -39 21 -192 166 -184 174 3 3 44 5 91 4 47 -1
85 2 85 7 0 11 -107 190 -128 215 -36 41 7 42 201 1 20 -5 27 -2 27 9 0 14
-47 107 -60 117 -3 3 -27 32 -52 66 -41 54 -206 214 -229 222 -18 7 -8 18 17
20 71 6 61 44 -44 162 l-64 70 57 84 c71 104 72 131 5 132 -83 1 -144 15 -225
51 -52 24 -114 42 -177 52 -54 9 -98 18 -98 21 0 3 17 19 39 35 38 30 131 133
131 146 0 3 -26 9 -57 11 -41 3 -84 17 -145 46 -112 54 -170 66 -278 58 l-85
-6 -3 52 c-4 81 -38 235 -84 376 l-20 63 -22 -20 c-22 -21 -154 -84 -241 -116
-58 -21 -131 -72 -159 -110 l-19 -26 -34 73 c-19 40 -55 105 -81 143 -45 67
-62 88 -149 181 -21 22 -54 61 -73 87 -19 25 -37 47 -40 47 -18 1 -171 -274
-194 -348 -8 -22 -10 -21 -64 30 -32 30 -84 75 -118 100 -72 55 -137 127 -201
221 -25 37 -47 67 -49 67 -1 0 -11 -12 -22 -27z m66 -90 c59 -83 124 -149 229
-232 50 -40 103 -90 117 -110 24 -34 26 -45 26 -150 0 -98 -3 -121 -26 -177
-33 -83 -16 -120 20 -41 28 61 36 112 36 229 0 99 4 127 25 185 36 101 139
287 154 281 16 -6 177 -186 206 -229 16 -24 33 -46 37 -49 16 -12 88 -160 98
-202 20 -80 -21 -260 -76 -335 -21 -28 -27 -30 -56 -23 -18 4 -46 15 -63 24
-31 16 -74 14 -127 -6 -22 -8 -31 -6 -48 10 -25 23 -101 45 -124 36 -9 -3 -28
2 -43 11 -19 13 -37 16 -71 11 -31 -4 -50 -2 -61 7 -26 22 -97 46 -157 53 -51
6 -56 5 -61 -15 -4 -17 -11 -21 -27 -17 -11 4 -40 9 -62 12 -37 6 -44 4 -59
-19 -15 -24 -20 -25 -71 -20 -47 5 -58 3 -75 -16 -15 -16 -32 -21 -68 -21 -41
0 -56 -6 -90 -34 -54 -45 -72 -50 -116 -31 -47 19 -81 19 -135 0 -23 -8 -57
-15 -75 -15 l-32 0 -5 68 c-7 87 -41 156 -120 236 -79 80 -97 139 -105 349
l-6 149 59 -30 c73 -37 122 -50 224 -62 91 -10 157 -38 245 -105 74 -55 165
-160 196 -226 13 -27 27 -49 31 -49 12 0 40 -101 40 -141 -1 -32 3 -39 19 -39
13 0 19 7 19 23 0 33 -29 138 -42 154 -14 18 -5 159 17 244 33 131 136 369
160 369 1 0 21 -26 43 -57z m1415 -371 c39 -139 57 -230 57 -286 0 -48 -2 -51
-80 -132 -92 -96 -171 -211 -195 -285 l-17 -51 -45 51 c-38 43 -55 54 -113 72
-43 13 -74 29 -83 42 -9 12 -29 37 -45 54 l-30 33 23 47 c30 64 63 171 71 235
4 29 13 65 20 79 22 44 111 114 167 133 29 9 93 36 142 61 50 24 92 44 95 44
3 1 18 -43 33 -97z m-2954 -13 c26 -9 99 -24 162 -33 143 -20 214 -38 282 -72
181 -92 287 -217 287 -340 l0 -51 -52 -28 c-36 -20 -73 -30 -125 -35 -62 -6
-80 -13 -113 -39 -42 -33 -66 -37 -115 -20 -28 10 -39 8 -86 -13 l-54 -24 -2
43 c-4 89 -74 185 -216 298 -30 24 -44 46 -64 105 -27 77 -41 206 -29 255 l7
27 36 -28 c19 -15 56 -35 82 -45z m-534 -241 c55 -15 87 -18 150 -13 101 8
152 -4 274 -63 105 -52 193 -129 232 -202 22 -43 42 -160 28 -160 -4 0 -22
-14 -39 -32 -31 -31 -32 -33 -25 -94 l6 -63 -41 -26 c-22 -14 -43 -32 -47 -40
-8 -22 -21 -18 -29 7 -9 29 -107 132 -162 170 -65 45 -170 77 -273 85 l-91 6
-36 56 c-64 100 -86 216 -67 349 6 49 9 53 29 47 11 -4 53 -16 91 -27z m3915
-153 c53 -25 110 -47 128 -51 17 -4 32 -10 32 -15 0 -17 -62 -78 -108 -108
-36 -23 -69 -33 -128 -42 -143 -19 -256 -94 -326 -217 -30 -52 -31 -53 -49
-33 -11 11 -39 23 -66 27 -50 7 -123 38 -123 53 0 23 44 130 71 175 41 67 139
181 198 231 28 24 108 35 206 29 56 -4 89 -13 165 -49z m-1639 -15 c41 -16 82
-34 92 -40 9 -6 28 -8 41 -4 16 4 32 -2 52 -19 54 -45 111 -76 181 -97 93 -28
224 -115 252 -168 6 -11 11 -33 11 -47 0 -19 16 -42 55 -80 35 -35 55 -63 55
-78 0 -13 15 -37 35 -57 32 -31 35 -39 35 -91 0 -57 0 -58 36 -71 l36 -13 -6
-52 c-5 -42 -2 -60 14 -90 26 -49 25 -75 -4 -102 -14 -13 -30 -36 -36 -52 -7
-16 -16 -29 -21 -29 -5 0 -15 -14 -24 -30 -13 -25 -20 -29 -41 -24 -20 5 -32
0 -57 -24 -26 -25 -42 -31 -82 -34 -47 -3 -50 -5 -53 -31 -3 -25 -7 -28 -25
-22 -60 19 -89 17 -139 -10 -42 -23 -58 -27 -99 -22 -29 4 -67 1 -92 -7 -24
-7 -51 -9 -62 -5 -11 4 -57 8 -102 8 -72 1 -92 6 -172 40 -99 43 -155 56 -218
52 -31 -2 -53 4 -87 24 -35 21 -52 25 -80 20 -32 -6 -41 -3 -81 33 -33 29 -57
41 -91 46 -32 4 -52 13 -65 30 -12 15 -38 29 -69 36 -55 13 -110 64 -110 103
0 31 -9 41 -55 65 -31 16 -48 35 -73 84 l-34 64 26 39 c14 21 26 48 26 59 0
13 19 40 45 65 33 31 45 51 45 71 0 23 6 30 34 40 18 6 38 21 44 34 7 17 21
25 50 28 22 3 54 16 72 29 34 25 130 145 130 162 0 6 11 25 25 43 20 26 34 33
72 39 39 5 51 12 65 36 19 32 39 37 58 14 17 -21 21 -20 75 21 47 36 48 36 81
21 31 -15 36 -15 76 3 57 26 73 25 159 -10z m302 -42 c16 -6 33 -22 38 -35 l9
-24 39 21 c48 24 123 27 145 5 8 -8 23 -15 34 -15 40 0 92 -31 127 -77 33 -43
34 -48 18 -54 -24 -9 -46 -36 -35 -43 5 -3 27 4 50 15 37 19 47 20 91 9 40 -9
57 -21 87 -56 20 -25 35 -47 33 -48 -2 -2 -27 -15 -56 -30 -54 -27 -68 -40
-58 -55 3 -6 31 3 61 20 67 35 75 35 100 8 28 -31 64 -47 123 -55 58 -7 71
-22 71 -78 l0 -35 -67 1 c-96 1 -191 -28 -168 -51 7 -7 23 -6 50 4 22 8 72 14
111 15 l72 0 38 -47 c21 -27 42 -49 46 -51 5 -2 8 -26 8 -53 0 -37 9 -65 35
-115 20 -37 33 -69 30 -72 -3 -3 -27 7 -53 21 -86 47 -232 74 -232 44 0 -9 24
-17 70 -24 74 -12 200 -67 200 -88 0 -7 9 -24 20 -38 20 -25 20 -28 5 -51 -13
-20 -14 -32 -6 -63 18 -62 14 -66 -31 -35 -68 47 -124 72 -205 93 -94 23 -153
25 -153 4 0 -9 9 -15 25 -15 102 0 282 -69 341 -131 l25 -27 -20 -38 c-12 -21
-21 -51 -21 -66 0 -20 -8 -31 -27 -42 -16 -8 -39 -24 -52 -35 -13 -12 -36 -21
-50 -21 -28 0 -46 -11 -139 -81 -77 -59 -136 -77 -200 -59 -97 26 -147 24
-199 -5 -27 -15 -86 -40 -132 -55 -84 -27 -85 -27 -115 -9 -17 10 -51 21 -76
25 -25 4 -62 15 -82 25 -50 25 -83 24 -156 -6 -34 -14 -70 -25 -80 -25 -10 0
-54 20 -97 45 -43 24 -98 47 -123 51 -44 7 -167 0 -208 -12 -17 -4 -26 2 -42
29 -29 50 -60 67 -144 78 -40 6 -91 17 -114 25 -37 14 -44 14 -75 0 -19 -8
-44 -23 -56 -32 -21 -15 -23 -14 -48 26 -31 49 -78 80 -123 80 -25 0 -46 10
-79 40 -50 44 -84 54 -167 48 -55 -3 -56 -3 -56 25 0 36 -29 63 -82 77 -66 17
-67 17 -87 52 -32 55 -54 78 -92 98 -42 22 -49 35 -49 97 0 40 -6 52 -41 90
-22 24 -39 52 -37 61 10 49 288 112 498 112 56 0 70 3 70 15 0 12 -16 15 -88
15 -165 0 -329 -29 -441 -77 -29 -13 -56 -23 -58 -23 -8 0 3 58 23 127 15 51
23 64 47 74 16 7 36 23 44 36 9 13 32 31 52 39 57 25 211 29 321 9 120 -21
142 -23 147 -8 6 17 -126 44 -249 50 -94 5 -194 -5 -243 -23 -8 -3 -15 8 -19
31 -8 41 6 64 53 89 14 7 47 25 74 39 39 21 53 24 80 16 17 -5 75 -11 127 -13
74 -3 116 -10 193 -36 95 -32 132 -33 92 -4 -25 18 -163 60 -229 70 l-49 7 24
18 c17 13 41 19 84 19 48 0 72 7 119 31 48 26 66 30 100 25 67 -9 111 -25 151
-52 28 -19 41 -22 49 -14 13 13 -21 43 -71 62 -18 7 -33 15 -33 20 0 16 67 18
109 4 65 -23 84 -20 140 24 37 29 59 40 83 39 31 0 31 -1 -14 -15 -37 -11 -52
-23 -77 -61 -17 -25 -31 -52 -31 -58 0 -7 -28 -42 -62 -78 -53 -55 -70 -67
-105 -73 -28 -4 -50 -16 -67 -35 -15 -16 -31 -29 -38 -29 -21 0 -48 -33 -48
-59 0 -17 -15 -39 -45 -68 -29 -27 -45 -51 -45 -66 0 -13 -11 -41 -25 -61 -32
-47 -31 -54 5 -123 38 -70 53 -88 91 -103 45 -19 34 -30 -30 -30 -66 0 -128
-19 -185 -56 -61 -41 -30 -50 42 -13 48 25 78 33 136 37 l74 5 16 -31 c22 -42
62 -71 107 -78 68 -11 66 -25 -8 -98 -53 -51 -65 -68 -54 -75 10 -6 21 -1 38
20 13 15 41 42 63 59 35 28 42 30 93 24 45 -5 61 -13 94 -44 42 -41 62 -48
106 -37 21 6 35 2 60 -17 21 -16 48 -26 79 -28 l48 -3 -33 -35 c-46 -49 -80
-108 -73 -126 8 -21 22 -10 42 31 23 50 102 125 131 125 13 0 62 -18 109 -40
79 -37 93 -40 170 -40 46 0 103 -6 125 -12 l41 -13 -5 -62 c-3 -39 -13 -75
-27 -97 -12 -20 -19 -40 -15 -46 23 -38 67 51 73 150 3 41 9 78 15 81 5 4 36
5 67 2 50 -5 66 -2 113 23 48 24 60 26 82 16 14 -7 33 -12 43 -12 25 0 55 -42
98 -135 22 -47 45 -85 52 -85 6 0 12 4 12 10 0 22 -43 120 -72 165 -18 28 -33
62 -33 78 -1 26 2 27 47 27 40 0 50 4 64 25 13 20 22 24 43 19 70 -17 138 -80
182 -166 29 -58 57 -71 44 -21 -15 60 -85 148 -154 193 l-22 15 35 42 c20 22
36 44 36 48 0 4 14 23 30 42 34 39 39 81 14 128 -10 18 -17 57 -18 95 -1 63
-2 65 -34 80 -28 13 -32 19 -28 41 8 41 -11 92 -44 124 -16 16 -30 37 -30 48
0 10 -25 44 -55 76 -42 44 -55 65 -55 88 0 41 -27 73 -118 140 -53 39 -99 63
-147 78 -80 25 -128 48 -167 81 -24 19 -25 23 -10 27 19 5 44 1 85 -15z m1512
-213 c44 -9 108 -30 141 -46 61 -29 174 -58 227 -59 33 0 33 -5 6 -50 -101
-167 -201 -201 -515 -175 -84 6 -115 5 -175 -10 -70 -17 -137 -44 -186 -75
-27 -17 -43 -6 -78 55 -22 36 -23 45 -14 80 38 139 146 251 279 291 56 17 202
12 315 -11z m-3819 -89 c85 -43 175 -124 219 -199 28 -48 28 -48 11 -99 -9
-28 -16 -56 -16 -62 0 -9 -27 -5 -92 11 -190 47 -398 26 -576 -57 -47 -22 -88
-37 -92 -33 -78 94 -131 198 -137 273 l-6 57 65 5 c66 6 239 71 323 123 36 22
48 24 133 21 83 -3 100 -7 168 -40z m4191 -300 c35 -42 63 -82 63 -88 0 -19
-95 -1 -159 32 -34 16 -87 40 -118 52 l-58 21 58 13 c31 8 74 22 95 33 20 11
41 19 47 17 5 -1 38 -37 72 -80z m-424 20 c238 -46 398 -132 583 -317 79 -78
183 -214 172 -224 -3 -3 -18 0 -34 6 -16 7 -73 11 -129 10 -55 -1 -152 -3
-215 -4 l-115 -2 -91 58 c-126 80 -214 109 -329 110 -70 0 -103 -5 -145 -21
-69 -28 -74 -27 -95 4 -13 20 -14 28 -4 40 16 20 5 63 -31 120 -41 65 -41 115
0 144 109 78 272 106 433 76z m-3616 -110 c53 -17 84 -33 87 -44 3 -9 23 -35
45 -57 36 -37 39 -45 40 -98 0 -51 -2 -57 -22 -61 -161 -29 -276 -75 -364
-146 -28 -22 -72 -71 -98 -108 l-46 -69 -128 -22 c-141 -25 -137 -25 -238 32
-98 56 -252 192 -253 224 0 6 15 14 32 18 59 12 116 54 177 128 103 127 166
170 303 206 109 29 113 30 253 26 107 -2 145 -8 212 -29z m226 -297 c35 -18
77 -61 93 -96 15 -31 72 -63 111 -63 57 0 70 -89 27 -196 -43 -107 -75 -156
-159 -239 -108 -108 -237 -171 -390 -190 -27 -4 -75 -11 -105 -16 -47 -9 -83
-18 -211 -55 -13 -4 -11 10 14 78 28 77 30 94 32 228 2 161 16 219 75 310 77
120 229 210 405 239 72 12 84 12 108 0z m3431 -32 c118 -55 251 -157 337 -259
65 -76 243 -256 283 -287 18 -13 26 -25 20 -30 -21 -21 -192 -101 -234 -110
-243 -54 -370 -31 -480 84 -114 119 -250 195 -409 230 -32 7 -33 9 -17 21 10
7 22 33 27 58 5 26 18 59 30 76 20 26 21 37 16 108 -7 93 -3 100 84 132 44 16
73 19 159 17 97 -3 111 -7 184 -40z m522 -180 c56 -83 94 -145 94 -152 0 -3
-39 -2 -87 1 -83 6 -90 8 -116 37 -16 18 -59 63 -95 101 l-67 68 50 -5 c28 -3
75 -2 105 3 30 4 60 8 65 9 6 0 29 -27 51 -62z m-3485 -75 c24 -16 50 -36 58
-45 7 -9 27 -17 43 -17 47 0 93 -27 117 -70 l21 -39 -83 -168 c-46 -92 -119
-246 -162 -342 -110 -241 -137 -267 -383 -370 -40 -17 -74 -31 -77 -31 -3 0
-5 30 -5 68 -1 76 -10 122 -40 207 -34 93 -41 167 -23 228 23 78 71 166 106
196 114 95 204 230 242 361 13 43 25 50 84 50 45 0 66 -6 102 -28z m-1066 -49
c-11 -29 -25 -113 -25 -149 0 -29 -5 -36 -40 -54 -53 -27 -107 -76 -127 -114
l-16 -31 -14 45 c-14 43 -24 262 -13 273 5 5 198 44 229 46 9 1 11 -5 6 -16z
m1535 -102 c25 -5 66 -13 92 -16 58 -7 102 -47 112 -99 8 -43 -17 -247 -44
-353 -11 -43 -31 -98 -44 -123 -13 -25 -32 -72 -41 -105 -19 -66 -47 -110
-110 -168 -54 -51 -154 -117 -169 -111 -8 3 -19 -17 -31 -58 -10 -35 -20 -66
-22 -70 -2 -4 -27 16 -56 45 -29 29 -78 70 -110 92 -33 23 -55 45 -52 53 3 7
-6 40 -19 72 -42 103 -42 108 7 212 25 51 62 129 82 173 21 44 66 139 100 210
34 72 70 147 79 167 12 25 35 47 70 68 53 32 63 32 156 11z m2048 -11 c163
-45 304 -137 380 -248 78 -115 107 -196 127 -362 15 -118 52 -266 81 -322 8
-16 14 -32 12 -34 -2 -2 -20 1 -39 6 -19 5 -104 11 -189 14 -177 5 -238 18
-341 74 -113 60 -135 82 -143 144 -13 108 -71 250 -144 353 -19 28 -73 88
-118 135 l-84 85 58 23 c31 12 83 45 115 72 38 33 68 50 85 50 15 0 38 7 52
14 35 20 65 19 148 -4z m-1506 -128 c36 -17 77 -44 93 -59 56 -56 104 -186
112 -303 4 -64 1 -87 -22 -155 -17 -52 -30 -115 -34 -180 -6 -79 -14 -111 -35
-154 -54 -105 -134 -170 -270 -218 -27 -9 -76 -34 -109 -55 l-59 -39 -23 21
c-36 34 -82 128 -99 203 -30 127 -13 345 33 436 52 101 80 212 102 401 6 58
16 109 20 115 13 13 93 24 165 21 46 -1 77 -10 126 -34z m968 -21 c103 -49
258 -223 326 -366 52 -108 74 -210 74 -338 0 -130 -18 -210 -66 -287 -18 -30
-41 -76 -49 -101 l-16 -47 -82 35 c-100 42 -235 110 -251 126 -6 7 -34 40 -61
75 l-49 63 0 142 c-1 117 -5 157 -25 227 -26 95 -88 245 -138 334 -19 33 -30
62 -26 66 4 4 40 17 78 29 39 12 88 33 110 47 48 30 105 29 175 -5z m-607 -10
c21 -11 61 -22 90 -26 77 -11 116 -47 175 -163 89 -173 142 -359 142 -494 0
-135 -51 -259 -150 -365 -68 -72 -80 -94 -80 -140 0 -28 -4 -43 -12 -43 -20 0
-125 83 -202 158 -78 75 -109 132 -132 244 -21 99 -13 228 20 331 44 132 33
258 -35 395 -17 35 -29 65 -27 66 9 8 145 55 158 55 9 1 33 -8 53 -18z m-1893
-137 c0 -3 -6 -18 -14 -32 -21 -39 -46 -121 -46 -151 0 -36 -63 -134 -136
-215 l-62 -67 -31 43 c-51 69 -74 142 -68 218 6 89 28 130 70 130 43 0 177 35
230 59 46 21 57 24 57 15z m3640 -31 c36 -3 89 -1 117 5 l53 9 38 -61 c66
-105 139 -262 128 -273 -2 -2 -37 6 -77 18 -68 21 -79 21 -173 11 -143 -17
-146 -17 -146 13 0 51 -31 176 -60 241 -17 36 -30 67 -30 69 0 2 19 -3 43 -11
23 -8 71 -18 107 -21z m-3157 -554 c15 -34 15 -38 -19 -119 -30 -74 -84 -150
-105 -150 -14 0 -127 200 -135 238 -6 27 -4 32 13 32 23 0 104 50 157 97 l38
35 18 -48 c9 -27 24 -65 33 -85z m550 -204 c-7 -11 -28 -46 -46 -78 l-34 -58
-50 68 c-59 79 -93 134 -93 148 0 6 23 23 50 40 28 16 78 55 112 86 l63 56 5
-121 c4 -86 1 -127 -7 -141z m1970 211 c31 -18 70 -39 86 -46 24 -10 35 -25
55 -79 30 -80 46 -138 46 -169 l0 -23 -32 24 c-32 23 -48 30 -173 77 -33 13
-63 26 -68 30 -4 3 -3 29 3 56 5 27 12 74 14 104 2 30 4 56 5 58 2 5 10 1 64
-32z m-2371 -166 c3 0 27 -28 53 -62 26 -35 52 -63 58 -63 6 0 16 26 22 57 6
32 14 60 17 63 3 3 18 -14 34 -37 16 -24 56 -80 88 -126 l60 -82 16 42 c19 51
67 128 79 128 4 0 13 -18 20 -39 11 -38 83 -144 117 -172 14 -11 19 -10 33 7
25 31 131 92 183 106 59 15 67 11 183 -89 52 -45 92 -72 101 -69 17 6 30 38
51 123 l16 63 71 -68 c70 -66 244 -202 258 -202 5 0 8 35 8 78 0 70 3 81 25
102 l24 23 66 -29 c36 -16 65 -33 65 -39 0 -23 -102 -154 -168 -217 -148 -139
-329 -227 -543 -262 l-36 -6 -17 -123 c-71 -495 -116 -892 -147 -1277 -26
-327 -31 -816 -10 -970 15 -106 16 -111 35 -104 9 3 15 35 19 97 17 243 106
545 207 693 l30 46 -30 61 c-16 34 -34 86 -40 116 -11 59 -11 179 -1 226 l7
30 22 -35 c12 -19 23 -39 25 -44 2 -5 9 -6 15 -2 8 4 12 35 12 84 0 172 35
356 85 450 l25 47 -1 -70 c-2 -108 -1 -115 19 -115 12 0 36 40 86 141 38 77
95 181 127 229 61 94 192 232 250 264 34 19 34 19 18 0 -23 -26 -49 -80 -49
-99 0 -23 24 -18 108 24 225 113 476 139 690 71 87 -27 107 -39 66 -40 -59 0
-95 -12 -92 -28 3 -18 6 -19 238 -62 293 -54 477 -109 663 -198 99 -47 107
-59 36 -61 -38 -1 -43 -26 -11 -52 82 -64 521 -239 761 -303 l83 -22 -93 -39
c-289 -118 -663 -345 -959 -582 -310 -248 -574 -426 -750 -503 -152 -68 -224
-85 -357 -85 -62 0 -113 -4 -113 -9 0 -4 15 -29 33 -55 52 -71 52 -71 15 -60
-18 6 -42 13 -53 16 -11 3 -75 31 -141 63 -122 58 -226 121 -298 182 l-39 32
5 -52 c3 -29 2 -52 -2 -52 -4 0 -64 57 -134 127 -117 116 -209 224 -223 259
-10 26 -21 14 -43 -43 -68 -180 -117 -377 -147 -588 -21 -150 -28 -496 -14
-654 7 -73 11 -134 9 -135 -7 -5 -355 21 -366 28 -7 4 -12 16 -12 26 0 35 -81
340 -120 455 -22 63 -58 153 -80 200 -44 96 -108 191 -120 178 -5 -4 -31 -48
-59 -96 -45 -80 -138 -207 -151 -207 -3 0 -4 20 -2 45 2 25 0 45 -5 45 -5 0
-27 -18 -48 -41 -96 -99 -272 -207 -420 -257 -69 -23 -202 -52 -241 -52 l-28
0 32 31 c18 17 32 35 32 39 0 4 -33 19 -72 35 -95 36 -196 87 -283 143 -78 49
-175 129 -175 143 0 4 14 6 31 2 30 -6 31 -5 19 18 -78 148 -299 352 -488 452
-103 54 -297 121 -399 139 -40 7 -73 15 -73 19 0 15 400 310 522 385 55 34 68
71 21 59 -25 -6 -26 -5 -13 8 21 20 219 133 285 163 99 43 261 94 346 107 82
13 84 14 82 40 -1 15 1 27 5 27 4 0 52 -9 107 -19 55 -10 128 -22 163 -25 66
-7 72 -3 51 36 -11 21 -10 21 47 15 101 -12 216 -45 309 -91 63 -31 93 -41
102 -34 8 7 19 4 35 -8 39 -29 111 -121 144 -181 36 -67 52 -76 60 -34 11 55
19 44 74 -116 41 -119 63 -237 57 -305 -5 -51 -3 -58 13 -58 10 0 21 6 24 13
14 28 -6 -165 -25 -253 l-21 -95 52 -110 c28 -60 88 -191 132 -290 45 -99 87
-187 94 -195 39 -41 39 -32 6 1332 -18 728 -35 1382 -38 1454 -7 130 -7 132
-33 144 -110 50 -282 201 -368 323 -87 123 -120 199 -143 329 -17 89 -10 95
52 48 29 -22 56 -40 60 -40z m1098 -118 c0 -40 -29 -170 -39 -176 -4 -3 -42
24 -84 59 -42 35 -84 68 -94 74 -16 10 -15 13 12 33 48 35 123 118 141 157
l17 36 23 -75 c13 -41 24 -90 24 -108z m648 52 c30 -40 32 -46 32 -127 0 -47
-5 -98 -11 -114 l-10 -28 -27 32 c-15 17 -59 47 -99 67 -39 19 -74 40 -77 45
-3 5 12 30 34 57 21 26 49 71 62 100 l23 53 20 -22 c11 -12 35 -41 53 -63z"/>
<path d="M3999 2617 c-200 -226 -346 -489 -374 -672 -12 -76 -15 -83 -57 -114
-86 -63 -188 -175 -188 -206 0 -18 31 0 49 28 11 18 31 43 44 55 l25 23 49
-35 c145 -104 400 -149 719 -127 92 7 176 17 186 22 28 15 11 30 -25 24 -18
-3 -94 -9 -170 -14 -309 -21 -581 28 -696 125 -31 26 -31 27 -14 47 57 64 359
234 601 338 l113 49 97 -54 c320 -177 471 -224 750 -233 132 -5 152 -4 147 9
-5 12 -35 16 -143 21 -154 6 -269 26 -386 64 -80 26 -380 172 -405 198 -12 11
-1 17 73 40 181 55 412 95 674 115 l144 11 81 -59 c229 -164 449 -261 541
-238 43 11 25 31 -30 33 -71 3 -127 20 -229 70 -98 48 -295 173 -295 187 0 5
138 6 328 3 286 -5 424 -14 690 -43 54 -6 62 -5 62 10 0 9 -3 16 -7 16 -5 0
-93 9 -198 20 -682 71 -1361 34 -1780 -97 -17 -5 -18 -4 -6 10 18 23 191 154
283 216 149 99 329 178 451 195 31 5 47 12 47 22 0 41 -233 -25 -379 -108
-141 -80 -335 -218 -443 -316 -35 -32 -79 -64 -98 -72 -90 -35 -346 -154 -381
-176 -21 -13 -42 -24 -45 -24 -4 0 -35 -18 -70 -40 -59 -37 -84 -48 -84 -34 0
55 79 274 127 352 92 149 222 321 288 382 38 35 48 57 30 64 -10 3 -42 -26
-96 -87z"/>
<path d="M1790 2009 c0 -7 18 -31 39 -54 46 -49 84 -121 116 -216 26 -75 60
-237 52 -245 -3 -3 -27 6 -54 19 -26 13 -85 39 -130 57 -67 26 -90 41 -119 77
-120 147 -276 267 -371 288 -57 12 -40 -20 24 -44 77 -30 164 -94 251 -186 41
-42 72 -78 70 -80 -2 -2 -37 5 -78 15 -97 25 -291 50 -385 50 -66 0 -85 5
-157 39 -121 56 -216 86 -277 86 -75 0 -78 -21 -4 -28 60 -5 170 -40 238 -74
l39 -21 -39 -5 c-22 -4 -67 -9 -100 -13 -119 -12 -314 -55 -451 -98 -224 -72
-233 -76 -227 -93 6 -16 1 -18 141 32 120 42 277 85 310 85 l22 0 -19 -37
c-26 -50 -57 -83 -92 -95 -39 -13 -40 -43 -1 -33 58 14 111 69 135 141 16 46
20 47 217 69 190 21 354 18 518 -10 38 -7 34 -13 -38 -62 -101 -69 -267 -136
-367 -149 -35 -4 -53 -11 -53 -20 0 -58 325 58 479 171 l62 45 62 -16 c173
-44 347 -121 511 -228 44 -28 56 -40 45 -46 -37 -21 -529 -130 -654 -145 -81
-10 -95 -15 -95 -31 0 -12 7 -14 28 -10 15 3 52 8 82 11 116 14 599 122 673
151 14 5 42 -18 124 -100 70 -70 110 -103 116 -97 24 24 -161 201 -309 298
-46 30 -84 57 -85 61 -12 111 -66 303 -112 400 -43 90 -137 187 -137 141z"/>
</g>
</svg>
