<?xml version="1.0" standalone="no"?>
<!DOCTYPE svg PUBLIC "-//W3C//DTD SVG 20010904//EN"
 "http://www.w3.org/TR/2001/REC-SVG-20010904/DTD/svg10.dtd">
<svg version="1.0" xmlns="http://www.w3.org/2000/svg"
 width="800.000000pt" height="1046.000000pt" viewBox="0 0 800.000000 1046.000000"
 preserveAspectRatio="xMidYMid meet">
<metadata>
Created by potrace 1.16, written by Peter Selinger 2001-2019
</metadata>
<g transform="translate(0.000000,1046.000000) scale(0.100000,-0.100000)"
fill="#000000" stroke="none">
<path d="M3914 10251 c-96 -59 -199 -284 -235 -516 -30 -185 -38 -272 -39
-377 0 -118 -10 -147 -28 -85 -44 147 -66 216 -78 242 -16 34 -70 163 -88 213
-7 18 -18 38 -24 44 -7 7 -12 18 -12 26 0 7 -6 20 -12 27 -31 35 -38 45 -38
59 0 8 -3 16 -7 18 -9 4 -73 94 -73 102 0 15 -129 129 -159 142 -85 36 -163 8
-203 -71 -26 -51 -36 -79 -42 -115 -20 -124 -25 -175 -26 -255 0 -88 29 -345
49 -435 5 -25 15 -70 21 -100 15 -72 34 -139 82 -285 43 -130 44 -132 83 -220
71 -155 103 -215 162 -298 23 -33 40 -64 37 -71 -4 -11 -89 -46 -112 -46 -5 0
-12 12 -15 28 -15 72 -27 114 -56 192 -18 47 -39 95 -47 107 -8 12 -14 29 -14
37 0 17 -32 79 -42 84 -5 2 -8 9 -8 15 0 11 -60 137 -70 147 -7 7 -29 43 -37
60 -4 8 -9 17 -13 20 -10 9 -70 110 -70 119 0 5 -3 11 -8 13 -13 5 -72 85 -72
97 0 6 -3 11 -7 11 -5 0 -19 17 -33 38 -14 20 -30 43 -37 50 -7 7 -29 33 -50
59 -100 122 -295 291 -387 333 -93 44 -200 45 -239 3 -38 -43 -50 -100 -44
-206 5 -90 39 -252 66 -312 4 -11 16 -37 25 -58 9 -21 16 -44 16 -52 0 -8 5
-15 10 -15 6 0 10 -6 10 -14 0 -14 50 -126 70 -156 6 -8 19 -35 30 -60 27 -59
39 -78 78 -124 6 -8 12 -22 12 -31 0 -8 3 -15 8 -15 4 0 16 -17 27 -37 11 -21
23 -40 26 -43 7 -6 29 -47 29 -54 0 -6 -34 22 -90 74 -71 65 -102 92 -197 168
-55 45 -104 82 -108 82 -3 0 -13 6 -20 13 -31 27 -44 37 -51 37 -3 0 -27 14
-53 31 -62 43 -223 122 -291 144 -30 10 -64 22 -75 26 -11 4 -48 11 -83 14
-77 9 -152 -15 -175 -54 -19 -33 -33 -146 -20 -163 6 -7 16 -34 23 -61 7 -26
17 -50 21 -53 5 -3 9 -14 9 -25 0 -10 5 -19 10 -19 6 0 10 -6 10 -13 0 -7 16
-37 35 -67 40 -64 33 -70 -48 -46 -153 44 -325 46 -390 4 -43 -28 -57 -55 -57
-110 0 -41 19 -119 31 -128 3 -3 16 -23 27 -45 11 -22 32 -53 46 -69 14 -16
26 -33 26 -38 0 -12 215 -227 264 -263 22 -17 50 -39 62 -50 27 -25 35 -31
107 -79 31 -22 57 -43 57 -48 0 -4 9 -8 19 -8 11 0 21 -4 23 -8 4 -11 135 -92
148 -92 5 0 10 -3 10 -7 0 -5 24 -19 53 -33 28 -14 58 -31 65 -37 7 -7 20 -13
28 -13 8 0 14 -4 14 -10 0 -5 6 -10 14 -10 8 0 43 -13 78 -28 35 -16 79 -35
98 -42 19 -6 49 -18 65 -25 53 -23 159 -53 206 -60 79 -10 83 -19 49 -99 -16
-38 -31 -71 -34 -73 -5 -5 -149 88 -154 100 -2 4 -12 7 -22 7 -9 0 -23 7 -30
15 -7 8 -18 15 -25 15 -13 0 -74 29 -85 40 -13 13 -74 40 -90 40 -10 0 -22 5
-25 10 -3 6 -13 10 -22 10 -8 0 -29 6 -46 14 -76 32 -162 61 -272 91 -33 9
-67 19 -75 22 -8 4 -22 8 -30 9 -37 5 -247 45 -260 49 -8 2 -91 9 -185 14
-359 21 -565 -44 -565 -176 0 -44 18 -98 41 -124 12 -13 31 -35 43 -49 11 -14
43 -41 71 -60 27 -19 56 -41 63 -47 35 -34 309 -174 365 -188 15 -4 27 -11 27
-16 0 -5 8 -9 18 -9 10 0 55 -13 100 -30 46 -16 91 -30 102 -30 11 0 20 -4 20
-10 0 -5 13 -10 30 -10 16 0 60 -10 97 -22 l68 -23 -175 -6 c-298 -11 -434
-31 -695 -103 -113 -31 -240 -111 -303 -189 -34 -43 3 -142 73 -195 56 -42
134 -82 163 -82 12 0 22 -4 22 -9 0 -5 15 -12 32 -16 18 -4 53 -14 78 -22 78
-27 408 -72 529 -73 60 0 44 -16 -46 -46 -188 -62 -372 -146 -487 -223 -38
-25 -77 -50 -85 -56 -32 -20 -128 -121 -144 -150 -32 -58 -38 -105 -19 -139 9
-17 22 -34 29 -39 7 -4 18 -13 25 -20 18 -18 80 -41 166 -62 63 -15 103 -17
270 -12 108 4 235 13 282 22 47 8 108 19 135 24 60 10 203 46 265 66 25 8 55
15 68 15 12 0 22 4 22 9 0 5 16 12 36 16 37 7 44 9 102 38 19 9 38 17 43 17
12 0 208 89 219 100 3 3 25 16 50 29 25 13 64 37 87 53 23 15 44 28 47 28 3 0
15 9 27 21 26 26 40 15 64 -49 10 -26 24 -58 32 -71 19 -30 12 -36 -67 -51
-62 -12 -248 -65 -280 -80 -48 -23 -93 -40 -105 -40 -8 0 -15 -4 -15 -9 0 -5
-11 -12 -25 -15 -14 -4 -25 -11 -25 -16 0 -6 -9 -10 -19 -10 -17 0 -78 -27
-91 -40 -6 -6 -35 -24 -82 -49 -20 -11 -76 -45 -125 -76 -123 -78 -124 -78
-142 -93 -9 -7 -34 -27 -56 -43 -54 -41 -113 -89 -147 -119 -89 -78 -168 -154
-168 -161 0 -5 -18 -26 -40 -48 -22 -22 -40 -44 -40 -50 0 -6 -4 -11 -10 -11
-5 0 -10 -7 -10 -15 0 -8 -5 -15 -10 -15 -6 0 -13 -8 -17 -17 -3 -10 -11 -25
-18 -33 -23 -29 -48 -131 -43 -175 6 -48 28 -77 82 -106 89 -48 355 -4 585 97
29 13 60 24 67 24 8 0 14 5 14 10 0 6 5 10 10 10 11 0 141 61 150 70 8 8 40
26 100 57 30 15 57 30 60 34 3 3 31 22 64 43 62 40 88 41 43 2 -15 -13 -27
-26 -27 -29 0 -3 -10 -17 -22 -29 -36 -37 -131 -148 -147 -171 -9 -12 -24 -31
-34 -42 -21 -23 -117 -162 -117 -171 0 -3 -6 -12 -12 -19 -29 -32 -36 -43 -42
-63 -4 -12 -12 -22 -17 -22 -5 0 -9 -8 -9 -17 0 -10 -7 -27 -15 -37 -8 -11
-15 -28 -15 -37 0 -10 -3 -19 -7 -21 -5 -1 -15 -19 -24 -38 -68 -149 -78 -311
-23 -367 32 -33 117 -42 204 -22 50 11 196 79 249 115 37 25 58 16 40 -17 -5
-10 -9 -29 -9 -43 0 -14 -4 -26 -8 -26 -13 0 -33 -200 -25 -260 7 -58 11 -65
58 -111 21 -21 39 -29 64 -29 43 0 151 30 151 41 0 5 6 9 14 9 27 0 187 124
285 221 56 54 101 102 101 107 0 4 8 15 18 24 9 9 22 23 27 30 6 7 28 36 51
63 23 28 47 61 54 75 7 14 19 29 26 33 8 4 14 15 14 22 0 8 5 15 10 15 6 0 10
7 10 15 0 9 7 18 15 21 8 4 15 10 15 14 0 5 22 44 48 87 26 43 59 101 72 128
14 28 27 52 30 55 12 12 30 51 30 65 0 8 4 15 8 15 4 0 14 17 21 37 8 21 22
56 33 78 31 65 48 113 78 233 16 62 32 117 35 121 3 5 26 -2 51 -15 25 -13 50
-24 57 -24 7 0 20 -7 30 -14 19 -15 14 -37 -16 -68 -16 -16 -71 -97 -80 -118
-4 -8 -21 -37 -38 -65 -16 -27 -33 -58 -36 -67 -3 -10 -9 -18 -14 -18 -5 0 -9
-7 -9 -15 0 -8 -13 -43 -29 -77 -16 -35 -37 -85 -45 -113 -9 -27 -20 -59 -25
-70 -37 -84 -101 -316 -131 -480 -7 -33 -15 -78 -20 -100 -5 -22 -12 -116 -16
-210 -10 -263 16 -393 93 -471 38 -39 48 -44 87 -44 46 0 85 13 121 40 50 38
137 136 171 193 21 34 42 64 46 65 4 2 8 12 8 23 0 10 4 19 8 19 9 0 33 45 72
135 12 28 33 74 46 103 32 71 64 162 64 184 0 10 4 18 8 18 4 0 16 35 27 78
10 42 22 81 27 87 4 5 8 24 8 41 0 18 4 36 10 39 5 3 10 16 10 27 0 12 3 19 6
16 3 -4 7 -87 9 -185 4 -189 16 -314 43 -453 14 -70 16 -135 14 -360 l-3 -275
-25 -18 c-31 -24 -32 -74 -4 -175 21 -75 26 -137 12 -146 -7 -4 -77 36 -92 53
-7 9 -69 31 -114 42 -69 17 -93 -27 -60 -107 9 -22 19 -41 23 -44 3 -3 19 -23
36 -45 16 -22 49 -59 74 -83 48 -46 50 -59 5 -41 -61 24 -70 28 -119 44 -27 8
-75 18 -105 21 -48 5 -59 2 -84 -19 -29 -23 -29 -25 -16 -58 18 -43 79 -101
146 -140 82 -47 73 -54 -69 -54 -101 0 -128 -3 -150 -18 -41 -26 -37 -67 10
-106 78 -64 312 -127 445 -119 51 2 63 0 66 -13 2 -14 -5 -15 -60 -7 -71 9
-215 -3 -298 -26 -62 -16 -122 -38 -130 -46 -3 -3 -17 -13 -31 -22 -33 -21
-46 -64 -25 -87 28 -30 105 -46 229 -46 64 0 117 -1 117 -2 0 -1 -32 -18 -72
-38 -72 -36 -117 -65 -151 -96 -27 -25 -67 -81 -67 -95 0 -20 52 -47 93 -47
46 0 57 -17 28 -48 -29 -31 -38 -86 -18 -106 21 -22 112 -21 162 2 82 36 130
60 133 68 2 4 8 7 14 7 6 0 26 11 43 25 44 33 65 10 27 -31 -33 -36 -79 -99
-98 -133 -11 -18 -24 -43 -31 -54 -6 -11 -47 -39 -90 -62 -43 -23 -102 -56
-131 -73 -29 -18 -56 -32 -61 -32 -15 0 -71 -31 -71 -40 0 -4 -18 -11 -40 -15
-22 -4 -40 -11 -40 -16 0 -5 -6 -9 -13 -9 -8 0 -27 -7 -44 -15 -55 -28 -218
-63 -339 -73 -126 -11 -438 4 -569 28 -33 6 -88 15 -123 21 -70 10 -251 69
-288 94 -22 14 -24 22 -24 90 0 81 9 99 31 58 8 -14 27 -34 43 -44 41 -25 68
-9 91 53 15 44 17 72 12 202 l-5 151 22 -45 c55 -110 74 -138 131 -197 102
-106 157 -94 162 35 1 37 2 68 2 69 1 1 25 -14 53 -33 29 -19 61 -34 70 -34
30 0 58 37 58 75 0 55 -70 221 -115 275 -23 27 -55 90 -46 90 5 0 11 -3 13 -8
2 -4 32 -29 68 -55 36 -27 73 -55 83 -63 9 -8 24 -14 32 -14 8 0 15 -4 15 -10
0 -5 8 -10 18 -10 10 0 22 -4 27 -8 19 -17 93 -32 124 -26 48 10 55 33 30 100
-22 57 -111 160 -204 234 -39 31 -39 31 -10 24 17 -4 56 -18 88 -31 124 -50
296 -52 312 -4 17 54 -69 143 -197 204 -37 17 -68 35 -68 38 0 4 55 9 123 12
137 5 191 20 220 59 l20 26 -24 30 c-43 54 -191 111 -331 128 -32 3 -58 10
-58 14 0 4 31 12 70 19 71 11 152 34 182 51 10 6 24 10 32 10 26 0 85 44 101
77 19 38 19 36 -3 60 -27 32 -114 46 -251 41 -68 -2 -121 0 -121 5 0 5 9 11
20 14 11 3 20 8 20 12 0 3 15 12 33 20 38 17 121 71 125 83 2 4 8 8 13 8 5 0
23 15 39 32 23 25 29 43 30 75 0 23 -5 45 -10 48 -6 4 -44 7 -85 7 -41 1 -75
3 -75 5 0 2 14 21 31 43 18 22 33 54 36 78 5 35 2 42 -21 57 -23 15 -34 16
-80 7 -59 -12 -196 -70 -196 -83 0 -5 -6 -9 -12 -9 -7 0 -42 -21 -78 -45 -35
-24 -66 -43 -68 -40 -3 3 30 44 66 81 6 7 12 17 12 21 0 5 8 18 18 29 17 18
34 48 81 142 23 48 28 131 9 150 -36 36 -136 -15 -252 -130 -87 -85 -108 -100
-88 -61 41 80 71 194 72 274 0 46 -4 61 -24 82 -18 20 -30 24 -48 19 -51 -15
-133 -109 -178 -205 -12 -26 -26 -47 -30 -47 -4 0 -5 33 -2 74 5 77 -9 183
-30 228 -33 69 -95 54 -141 -34 -15 -29 -27 -59 -27 -65 0 -7 -4 -13 -10 -13
-5 0 -10 -18 -10 -40 0 -22 -4 -40 -9 -40 -14 0 -26 -118 -26 -259 0 -99 -3
-135 -12 -138 -10 -4 -13 21 -13 104 0 213 -74 462 -149 503 -79 42 -112 -29
-113 -237 l0 -138 -19 43 c-11 23 -24 42 -29 42 -6 0 -10 7 -10 17 0 35 -110
157 -161 177 -32 13 -38 13 -57 0 -19 -13 -22 -25 -22 -80 0 -35 -3 -64 -6
-64 -8 0 -67 33 -74 41 -10 12 -78 17 -89 6 -6 -6 -11 -35 -11 -64 0 -49 4
-64 36 -140 8 -17 14 -36 14 -42 0 -6 3 -11 8 -11 7 0 25 -30 38 -62 3 -10 10
-18 15 -18 5 0 9 -5 9 -11 0 -22 136 -173 187 -206 18 -12 21 -19 12 -34 -14
-27 -32 -24 -52 10 -28 47 -139 154 -209 201 -21 14 -38 28 -38 33 0 4 -9 7
-19 7 -11 0 -21 4 -23 9 -1 5 -31 23 -65 40 -78 39 -160 44 -181 10 -30 -47
45 -167 171 -276 21 -18 33 -33 28 -33 -6 0 -54 11 -108 25 -173 44 -286 29
-270 -37 8 -29 57 -84 107 -118 19 -13 37 -27 40 -31 3 -3 23 -16 45 -27 50
-25 40 -29 -91 -35 -87 -4 -138 -16 -171 -41 -1 0 -4 -13 -8 -28 -6 -23 -1
-33 27 -58 88 -81 258 -123 479 -119 71 2 131 0 135 -3 3 -4 3 -15 0 -26 -6
-17 -12 -18 -64 -10 -138 20 -397 -28 -509 -94 -88 -53 -91 -102 -6 -140 37
-16 67 -20 185 -20 127 0 138 -1 113 -14 -15 -8 -33 -14 -40 -14 -7 0 -15 -3
-17 -8 -1 -4 -28 -24 -58 -44 -69 -45 -124 -101 -141 -140 -12 -29 -11 -33 16
-56 25 -21 36 -24 82 -20 30 3 56 1 58 -2 3 -4 -3 -18 -13 -31 -34 -44 -44
-83 -31 -112 11 -24 18 -27 60 -27 120 0 346 130 475 274 29 32 47 44 58 40
24 -9 20 -29 -10 -49 -56 -36 -214 -190 -214 -207 0 -5 -9 -18 -20 -30 -25
-27 -86 -151 -99 -202 -11 -42 -5 -86 13 -98 20 -14 61 -8 98 12 50 27 71 43
151 123 38 38 71 66 74 63 3 -3 1 -18 -4 -33 -24 -63 -52 -186 -55 -238 l-3
-40 -123 -6 c-128 -7 -242 -30 -397 -80 -114 -36 -194 -58 -269 -73 -60 -12
-90 -36 -71 -55 12 -12 126 9 240 46 44 14 94 29 110 34 17 4 55 15 85 24 174
50 352 66 480 44 30 -5 76 -12 103 -15 26 -4 47 -10 47 -14 0 -4 16 -11 37
-15 36 -7 91 -30 258 -110 180 -86 223 -105 243 -105 11 0 22 -4 24 -9 5 -13
241 -68 358 -83 144 -18 626 -18 695 0 62 17 143 42 173 53 84 33 286 130 290
141 2 4 10 8 19 8 8 0 29 10 46 23 37 26 66 44 87 53 47 19 85 40 88 47 2 4 9
7 15 7 6 0 18 6 26 14 9 7 39 22 66 32 28 10 52 20 55 23 6 7 52 25 150 57 98
33 266 56 355 49 91 -8 197 -26 210 -37 5 -4 17 -8 27 -8 10 0 26 -4 36 -9 9
-5 46 -21 82 -37 36 -15 72 -34 81 -41 8 -7 23 -13 32 -13 9 0 17 -4 17 -10 0
-5 11 -12 25 -16 14 -3 25 -9 25 -13 0 -3 17 -15 38 -26 20 -11 39 -22 42 -25
11 -12 149 -80 220 -108 41 -16 104 -37 140 -46 163 -40 597 -69 700 -47 30 7
78 16 107 21 53 8 116 26 145 41 10 5 22 9 28 9 5 0 62 25 127 56 190 90 270
126 338 154 25 10 113 35 179 51 79 19 295 -2 331 -33 5 -4 16 -8 26 -8 9 0
49 -18 89 -40 40 -22 75 -40 77 -40 2 0 31 -18 64 -40 33 -22 67 -40 75 -40 8
0 14 -4 14 -9 0 -5 14 -14 30 -21 17 -7 30 -16 30 -21 0 -5 7 -9 16 -9 9 0 29
-9 44 -20 16 -11 43 -23 62 -27 18 -3 36 -11 39 -16 11 -16 39 0 39 22 0 15
-14 25 -60 42 -33 12 -60 26 -60 30 0 5 -7 9 -15 9 -16 0 -51 18 -72 37 -7 6
-31 19 -53 29 -22 10 -40 21 -40 26 0 4 -4 8 -9 8 -5 0 -38 17 -72 38 -115 68
-222 113 -316 132 -55 11 -220 11 -263 -1 -13 -3 -15 18 -18 139 l-3 142 26
10 c40 15 58 70 65 195 l5 110 32 -65 c42 -82 94 -159 111 -159 7 -1 22 -7 33
-13 30 -19 59 20 59 78 0 23 4 46 10 49 6 3 10 1 10 -4 0 -6 7 -11 15 -11 8 0
15 -6 15 -14 0 -21 61 -27 83 -8 20 17 23 72 6 123 -21 65 -78 176 -106 207
-7 7 -13 17 -13 21 0 4 -27 36 -59 71 -32 36 -57 68 -54 72 10 18 41 6 54 -20
18 -35 92 -131 102 -131 6 -1 49 -36 83 -68 7 -7 17 -13 21 -13 5 0 18 -8 29
-18 25 -23 120 -62 151 -62 51 0 52 95 1 149 -10 11 -18 25 -18 30 0 6 -9 16
-20 23 -11 7 -20 18 -20 25 0 7 -6 13 -12 14 -14 0 -65 59 -52 59 4 0 37 -12
73 -26 44 -18 92 -28 147 -32 81 -5 81 -4 88 21 3 14 2 36 -3 49 -12 28 -73
86 -123 117 -21 12 -38 26 -38 31 0 5 -8 10 -17 13 -10 2 29 3 87 3 120 -1
166 13 173 53 7 34 2 42 -38 70 -63 43 -246 98 -338 102 -18 1 8 5 57 10 157
14 314 63 330 104 10 26 7 55 -6 69 -23 22 -108 37 -199 35 -90 -3 -123 5 -75
17 14 3 26 10 26 15 0 5 9 9 19 9 11 0 21 3 23 8 2 4 28 22 58 40 56 34 100
84 100 115 0 27 -44 49 -91 46 -50 -4 -60 10 -30 42 26 28 36 75 21 94 -15 18
-97 20 -137 4 -79 -33 -122 -54 -161 -80 -24 -16 -45 -29 -48 -29 -8 0 14 34
40 62 33 35 106 147 106 164 0 7 4 14 9 16 8 3 15 49 12 89 -4 68 -190 -25
-264 -132 -31 -43 -35 -8 -7 60 33 80 48 197 31 230 -29 54 -105 7 -183 -114
-54 -84 -54 -84 -54 49 1 108 -1 124 -19 142 -35 36 -54 37 -84 5 -15 -16 -35
-48 -45 -72 -10 -24 -24 -59 -32 -77 -8 -18 -14 -47 -14 -65 -1 -18 -7 -45
-14 -62 -12 -29 -13 -26 -28 71 -27 170 -102 281 -152 225 -28 -31 -46 -119
-45 -219 1 -51 -2 -96 -5 -99 -3 -4 -6 1 -6 10 0 9 -9 31 -20 49 -11 18 -20
41 -20 51 0 9 -3 17 -8 17 -4 0 -18 18 -32 40 -14 22 -28 40 -32 40 -5 0 -8 6
-8 13 0 20 -71 47 -91 34 -18 -11 -29 -49 -29 -98 0 -31 -22 -40 -37 -15 -22
38 -96 48 -113 16 -23 -42 22 -184 92 -293 17 -26 28 -51 24 -54 -3 -4 -26 12
-49 35 -24 23 -48 42 -55 42 -7 0 -12 5 -12 10 0 6 -7 10 -15 10 -8 0 -20 9
-27 20 -7 11 -23 20 -35 20 -12 0 -23 5 -25 11 -2 6 -25 13 -51 16 -50 6 -77
-7 -77 -36 0 -27 52 -124 77 -144 13 -10 23 -23 23 -29 0 -6 18 -26 40 -46 22
-19 39 -37 36 -39 -2 -2 -33 7 -68 20 -175 69 -298 55 -254 -30 18 -36 80 -92
128 -118 66 -34 57 -44 -45 -44 -135 -1 -176 -17 -177 -67 0 -68 192 -142 393
-151 75 -4 107 -9 107 -18 0 -9 -24 -11 -96 -7 -90 4 -210 -8 -259 -28 -11 -4
-35 -13 -52 -20 -55 -21 -37 -30 20 -11 85 30 186 43 285 40 79 -3 96 -7 108
-23 22 -31 17 -64 -12 -83 -67 -44 -310 -68 -423 -41 -43 10 -51 15 -51 34 0
13 8 27 17 33 10 5 14 13 10 17 -11 11 -41 -9 -45 -31 -2 -10 2 -28 8 -41 16
-29 90 -46 202 -48 43 -1 78 -4 78 -8 0 -5 -21 -18 -47 -30 -71 -32 -161 -99
-173 -130 -23 -52 3 -78 78 -78 34 0 41 -13 18 -39 -24 -29 -37 -81 -23 -96
24 -24 56 -26 119 -9 103 29 209 89 284 162 7 6 17 12 23 12 6 0 11 5 11 11 0
17 50 60 61 54 16 -10 10 -43 -10 -50 -10 -3 -38 -24 -62 -46 -24 -22 -49 -44
-55 -47 -18 -12 -114 -136 -114 -149 0 -6 -4 -13 -8 -15 -12 -5 -52 -104 -52
-130 0 -30 17 -48 47 -48 21 0 72 18 83 30 3 3 23 18 45 34 22 17 55 45 73 64
39 40 52 36 29 -10 -28 -59 -42 -122 -42 -190 0 -72 0 -73 31 -82 27 -8 101
55 150 128 19 28 35 49 35 46 1 -3 3 -42 4 -87 5 -138 37 -194 91 -158 14 9
32 31 40 49 9 18 23 37 33 43 15 9 16 -8 13 -216 -1 -124 -5 -232 -7 -238 -2
-7 -28 -24 -57 -37 -29 -13 -92 -42 -140 -65 -48 -22 -92 -41 -97 -41 -6 0
-11 -4 -11 -10 0 -5 -5 -10 -11 -10 -6 0 -27 -7 -47 -16 -188 -82 -284 -98
-576 -91 -281 7 -418 26 -546 77 -30 12 -65 24 -77 27 -13 3 -23 9 -23 12 0 4
-20 18 -45 30 -47 24 -79 60 -90 104 -4 15 -11 27 -16 27 -5 0 -9 7 -9 15 0 8
-6 23 -14 32 -8 10 -35 46 -61 80 -25 34 -61 75 -80 92 -22 19 -33 36 -29 46
10 25 38 17 52 -14 14 -31 31 -53 95 -120 47 -49 200 -171 214 -171 15 0 63
-25 63 -32 0 -5 20 -8 44 -8 35 0 48 5 60 21 17 25 12 74 -10 100 -8 8 -14 20
-14 25 0 6 -18 29 -40 53 -22 23 -40 47 -40 51 0 5 -18 24 -40 41 -61 49 -46
50 65 3 94 -39 209 -45 243 -14 12 12 22 26 22 33 0 36 -92 129 -171 173 -68
38 -64 41 54 40 143 -1 197 20 197 77 0 21 -50 67 -92 85 -21 9 -38 20 -38 24
0 5 -7 8 -16 8 -9 0 -49 9 -88 21 -47 14 -114 23 -200 28 -191 9 -171 26 31
26 159 0 173 2 261 30 69 22 104 40 135 68 41 37 41 38 25 64 -24 40 -78 55
-223 62 l-130 6 60 29 c33 16 74 39 92 52 17 13 35 24 38 24 14 0 95 94 95
110 0 38 -26 54 -94 58 -68 4 -82 16 -51 42 9 7 22 28 31 46 49 103 -72 114
-256 23 -58 -29 -107 -56 -108 -61 -2 -4 -8 -6 -13 -3 -5 3 12 31 37 61 92
114 135 194 136 256 2 53 -9 68 -50 68 -28 0 -98 -37 -127 -67 -12 -13 -26
-23 -30 -23 -4 0 -33 -25 -63 -55 -31 -31 -58 -52 -60 -47 -1 5 8 34 22 63 35
75 47 130 47 206 0 72 -11 93 -51 93 -32 0 -117 -78 -148 -137 -7 -12 -18 -27
-25 -35 -7 -7 -20 -31 -29 -52 -15 -39 -15 -36 -14 95 1 143 -11 201 -45 219
-24 13 -69 2 -69 -16 0 -8 -4 -14 -8 -14 -10 0 -65 -111 -79 -160 -6 -19 -17
-63 -24 -98 -7 -34 -16 -62 -19 -62 -4 0 -12 39 -19 88 -7 48 -25 121 -41 162
-27 69 -29 88 -32 225 -2 117 1 164 14 215 42 157 62 299 74 513 6 111 15 144
27 95 8 -34 75 -228 91 -263 7 -16 27 -60 45 -96 17 -36 31 -69 31 -72 0 -3
23 -45 50 -93 28 -48 50 -91 50 -95 0 -5 4 -9 9 -9 4 0 20 -17 34 -38 33 -50
91 -112 106 -112 6 0 11 -4 11 -9 0 -5 20 -21 44 -35 109 -64 188 -19 241 135
27 77 30 99 33 249 6 246 -32 505 -112 766 -25 80 -30 95 -74 219 -33 93 -139
304 -191 382 -47 71 -51 93 -18 93 12 0 31 7 41 15 29 22 55 18 61 -7 3 -13
12 -54 20 -91 9 -38 27 -98 40 -134 14 -36 25 -74 25 -84 0 -11 4 -19 8 -19 4
0 14 -17 21 -38 7 -20 28 -67 47 -104 19 -37 34 -74 34 -82 0 -9 4 -16 9 -16
5 0 11 -8 15 -18 6 -18 27 -53 37 -62 3 -3 9 -12 13 -20 4 -8 12 -24 19 -35 7
-11 29 -48 49 -83 21 -34 47 -72 58 -84 11 -12 22 -29 25 -39 3 -9 12 -20 20
-23 8 -3 15 -12 15 -21 0 -8 4 -15 9 -15 5 0 12 -8 15 -17 4 -10 20 -34 37
-53 17 -19 48 -55 68 -79 106 -129 278 -277 380 -324 180 -85 286 -21 284 168
-1 44 -9 112 -18 150 -9 39 -20 86 -24 105 -5 19 -20 66 -35 104 -14 37 -26
77 -26 87 0 11 -4 19 -8 19 -5 0 -16 19 -26 43 -36 86 -51 117 -58 117 -5 0
-8 8 -8 19 0 10 -7 24 -15 31 -8 7 -15 20 -15 30 0 10 -7 23 -15 30 -8 7 -15
17 -15 21 0 5 -15 32 -32 59 -18 27 -46 71 -62 97 -16 26 -40 65 -54 86 -14
20 -23 40 -20 42 3 3 35 -23 71 -57 95 -91 259 -228 272 -228 3 0 16 -9 28
-21 30 -28 154 -109 167 -109 5 0 10 -4 10 -10 0 -5 11 -12 25 -16 14 -3 25
-9 25 -13 0 -10 125 -71 145 -71 8 0 15 -3 15 -7 0 -21 179 -73 251 -73 119 0
169 45 169 152 0 57 -32 183 -51 198 -3 3 -12 22 -20 43 -7 20 -16 37 -20 37
-4 0 -9 8 -13 18 -5 17 -26 52 -36 62 -3 3 -13 17 -23 33 -17 26 -17 27 0 27
10 0 38 -6 63 -15 107 -34 198 -48 294 -43 69 4 99 10 111 22 9 9 21 16 26 16
18 0 49 65 49 102 0 33 -44 164 -59 178 -3 3 -21 28 -40 55 -19 28 -58 74 -88
104 -29 29 -53 55 -53 58 0 8 -54 63 -62 63 -5 0 -23 15 -41 34 -43 45 -158
139 -232 189 -33 22 -62 43 -65 46 -9 10 -44 31 -62 37 -10 4 -18 10 -18 14 0
4 -8 10 -17 14 -18 5 -53 26 -63 36 -3 3 -27 16 -55 30 -27 14 -51 28 -53 33
-2 4 -12 7 -22 7 -9 0 -23 7 -30 15 -7 8 -16 15 -21 15 -5 0 -32 11 -61 25
-28 14 -58 25 -65 25 -7 0 -13 3 -13 8 0 7 -42 24 -115 45 -22 6 -42 14 -45
18 -3 3 -18 9 -35 12 -76 17 -129 35 -132 44 -6 17 16 63 32 69 9 4 34 -6 58
-22 23 -16 50 -32 60 -36 9 -4 17 -12 17 -18 0 -5 8 -10 19 -10 10 0 24 -7 31
-15 7 -8 18 -15 24 -15 6 0 43 -16 81 -35 39 -19 74 -35 78 -35 5 0 23 -6 40
-14 65 -30 193 -76 210 -76 9 0 26 -4 37 -10 11 -5 29 -14 40 -20 11 -5 30
-10 42 -10 12 0 35 -4 52 -10 253 -79 666 -114 845 -71 96 23 151 42 151 53 0
4 4 8 10 8 15 0 50 33 50 47 0 7 5 13 10 13 26 0 -3 133 -35 166 -6 7 -22 25
-36 41 -28 33 -131 113 -146 113 -6 0 -13 6 -16 13 -2 7 -23 22 -46 32 -22 11
-41 23 -41 28 0 4 -9 7 -20 7 -11 0 -20 3 -20 8 0 8 -25 21 -135 68 -44 19
-85 34 -92 34 -7 0 -13 4 -13 9 0 5 -17 12 -37 16 -21 4 -42 10 -48 13 -20 13
-111 41 -132 42 -12 0 -23 4 -25 8 -2 7 -196 58 -295 78 -67 13 3 19 235 20
231 0 274 3 427 28 94 15 179 31 190 36 11 5 34 11 50 15 51 11 235 86 235 96
0 5 6 9 13 9 24 0 104 84 118 122 26 74 -31 159 -146 219 -66 35 -224 88 -283
95 -26 3 -56 10 -67 14 -41 18 -275 42 -458 47 -104 3 -185 9 -180 13 4 4 51
18 103 30 52 13 100 26 105 30 6 4 39 17 75 28 93 30 127 42 196 74 34 15 67
28 73 28 6 0 11 5 11 10 0 6 6 10 14 10 13 0 89 38 156 79 19 11 42 24 50 28
8 4 24 17 36 30 12 13 25 23 30 23 14 0 134 130 134 146 0 7 4 14 9 14 5 0 11
23 15 51 7 51 -3 79 -39 116 -18 18 -88 53 -105 53 -9 0 -20 4 -25 9 -6 4 -56
14 -111 21 -216 27 -536 -11 -889 -106 -38 -10 -72 -22 -75 -25 -3 -4 -21 -10
-40 -14 -19 -4 -41 -11 -50 -16 -8 -4 -45 -18 -82 -30 -38 -13 -68 -26 -68
-31 0 -4 -7 -8 -15 -8 -8 0 -23 -4 -33 -9 -9 -6 -52 -26 -94 -45 -42 -20 -83
-42 -90 -49 -8 -6 -37 -24 -65 -39 -43 -24 -52 -26 -63 -13 -6 7 -10 24 -8 37
2 18 13 26 48 36 77 22 145 45 155 52 6 4 27 10 48 14 20 4 37 11 37 16 0 6 7
10 16 10 18 0 251 117 343 172 34 21 65 38 67 38 3 0 29 18 59 40 30 22 59 40
65 40 5 0 10 3 10 8 0 4 18 18 40 32 22 14 40 28 40 32 0 5 5 8 10 8 6 0 19 8
30 18 10 9 31 27 44 40 14 12 27 22 30 22 9 0 206 186 206 194 0 3 14 20 31
37 35 36 90 118 124 187 70 142 21 238 -131 258 -51 6 -201 -9 -259 -26 -195
-58 -404 -148 -560 -240 -27 -17 -58 -33 -67 -36 -10 -4 -18 -10 -18 -14 0 -4
-8 -10 -17 -14 -22 -7 -42 -20 -110 -68 -29 -21 -57 -38 -63 -38 -5 0 -10 -4
-10 -10 0 -5 -7 -10 -15 -10 -22 0 -19 5 20 44 19 20 35 40 35 46 0 5 9 10 19
10 11 0 22 9 26 19 3 11 12 22 20 25 8 3 15 12 15 21 0 8 7 15 15 15 8 0 15 3
15 8 0 4 15 23 33 42 45 49 97 116 97 127 0 4 9 14 20 21 11 7 20 16 20 21 0
6 14 25 30 43 16 18 30 36 30 40 0 5 8 17 18 27 26 30 36 44 49 71 7 14 27 50
44 80 45 77 84 159 98 200 6 19 18 57 26 83 19 61 19 146 0 195 -20 50 -92 87
-151 79 -101 -13 -222 -64 -336 -139 -33 -22 -61 -38 -63 -36 -4 4 3 34 36
153 17 62 22 108 23 208 l1 128 -43 41 c-44 40 -45 41 -106 36 -63 -5 -178
-51 -215 -86 -10 -10 -30 -26 -45 -36 -15 -11 -42 -33 -60 -50 -19 -17 -49
-45 -67 -61 -43 -39 -163 -172 -223 -248 -49 -60 -146 -201 -146 -211 0 -3 -8
-15 -17 -25 -33 -36 -43 -50 -43 -60 0 -11 -40 -83 -50 -91 -11 -9 -110 -213
-110 -227 0 -7 -4 -13 -10 -13 -5 0 -10 -6 -10 -12 0 -13 -35 -108 -51 -140
-5 -10 -9 -24 -9 -32 0 -7 -7 -27 -15 -42 -8 -16 -15 -43 -15 -60 0 -41 -24
-62 -51 -46 -10 7 -26 12 -34 12 -8 0 -15 5 -15 12 0 12 41 86 74 133 30 42
84 161 186 410 4 11 13 40 19 65 6 25 18 70 27 100 9 30 20 69 24 85 5 17 23
100 41 185 51 248 52 504 3 704 -4 16 -14 38 -23 49 -87 109 -147 116 -262 31
-21 -16 -39 -32 -39 -37 0 -4 -15 -22 -33 -40 -53 -52 -98 -115 -143 -204 -15
-29 -31 -53 -36 -53 -4 0 -8 -6 -8 -13 0 -7 -11 -37 -25 -65 -14 -29 -25 -59
-25 -67 0 -8 -4 -15 -9 -15 -5 0 -12 -13 -16 -30 -4 -16 -11 -32 -16 -35 -5
-4 -9 -16 -9 -29 0 -12 -4 -26 -9 -31 -15 -16 -85 -248 -112 -370 -7 -33 -19
-71 -26 -85 -11 -21 -12 3 -7 150 3 96 1 236 -4 310 -11 146 -38 334 -53 362
-5 10 -9 29 -9 43 0 14 -4 33 -9 43 -5 9 -17 40 -26 67 -22 64 -66 156 -82
173 -7 7 -13 16 -13 20 0 4 -13 21 -28 38 -55 63 -129 81 -188 45z m124 -98
c23 -20 42 -42 42 -50 0 -7 5 -13 10 -13 6 0 10 -5 10 -11 0 -11 23 -67 41
-101 15 -29 39 -102 39 -121 0 -9 4 -25 9 -35 14 -28 41 -207 52 -347 12 -144
5 -558 -9 -620 -5 -22 -15 -80 -22 -130 -6 -49 -16 -99 -21 -110 -4 -11 -16
-46 -25 -79 -26 -93 -31 -96 -188 -96 l-134 0 -16 40 c-16 41 -56 200 -75 300
-33 168 -41 617 -16 795 34 236 48 303 92 414 28 69 70 144 84 149 5 2 9 9 9
16 0 14 35 34 60 35 9 1 35 -16 58 -36z m-949 -83 c21 -12 62 -46 90 -76 53
-57 161 -218 161 -241 0 -7 5 -13 10 -13 6 0 10 -6 10 -13 0 -8 6 -27 14 -43
170 -347 281 -833 261 -1144 -8 -128 -18 -146 -82 -156 -27 -3 -65 -15 -85
-25 -52 -26 -100 -25 -124 4 -31 37 -59 79 -85 127 -13 25 -26 47 -29 50 -8 8
-50 103 -90 200 -12 30 -26 64 -30 75 -5 11 -19 49 -30 85 -12 36 -26 74 -30
85 -15 38 -38 120 -49 180 -7 33 -19 87 -26 120 -29 128 -40 237 -40 415 0
228 20 322 78 373 25 21 28 21 76 -3z m1933 -55 c41 -58 58 -159 58 -334 0
-134 -16 -301 -39 -406 -61 -278 -132 -487 -236 -695 -67 -134 -91 -174 -122
-207 l-31 -34 -41 20 c-22 12 -49 21 -61 21 -23 0 -154 35 -171 46 -25 15 4
453 37 558 3 10 10 41 14 70 4 28 15 74 23 101 9 28 25 82 36 120 26 89 43
138 75 208 14 31 26 65 26 76 0 12 4 21 8 21 5 0 17 19 27 43 25 59 49 111 55
117 10 10 31 45 36 63 4 9 9 17 13 17 3 0 20 23 36 51 56 93 171 193 215 186
8 -1 27 -20 42 -42z m968 -375 c11 -7 16 -33 18 -104 4 -102 -20 -218 -73
-360 -37 -99 -49 -119 -97 -162 -127 -116 -310 -306 -370 -385 -12 -17 -31
-39 -40 -47 -10 -9 -18 -20 -18 -25 0 -4 -9 -18 -20 -30 -40 -42 -190 -277
-190 -297 0 -6 -4 -10 -8 -10 -4 0 -14 -17 -21 -37 -27 -76 -34 -77 -116 -27
-40 24 -78 44 -84 44 -6 0 -11 5 -11 10 0 6 -10 10 -21 10 -21 0 -21 4 -16 58
4 31 20 96 37 144 16 49 30 95 30 103 0 8 4 15 9 15 5 0 12 11 15 26 10 37
131 280 147 294 3 3 8 12 12 20 7 16 9 18 70 113 20 32 37 61 37 64 0 3 11 16
25 29 14 13 25 26 25 29 0 4 20 34 45 66 25 33 45 61 45 62 0 2 24 28 53 59
28 30 73 77 98 104 55 59 102 101 149 134 19 13 44 32 54 42 11 10 29 21 40
24 12 4 23 10 26 13 16 23 124 38 150 21z m-3813 -56 c61 -29 74 -38 101 -66
9 -10 20 -18 25 -18 5 0 14 -6 22 -12 120 -115 195 -193 226 -234 20 -28 44
-57 51 -65 8 -8 25 -30 38 -49 13 -19 29 -40 35 -46 28 -32 45 -55 45 -63 0
-5 4 -11 9 -13 9 -3 131 -216 131 -229 0 -5 5 -9 10 -9 6 0 10 -5 10 -10 0 -6
10 -27 23 -48 26 -42 107 -230 107 -249 0 -7 4 -13 9 -13 5 0 14 -19 19 -42 6
-24 20 -76 31 -117 21 -77 16 -121 -13 -121 -8 0 -16 -4 -18 -8 -1 -5 -32 -28
-67 -53 -35 -24 -72 -50 -82 -57 -24 -18 -46 -10 -97 38 -24 22 -46 40 -50 40
-11 0 -104 100 -229 246 -56 66 -141 182 -160 219 -9 17 -25 44 -37 60 -13 17
-42 66 -65 110 -24 44 -47 82 -52 83 -5 2 -9 12 -9 22 0 9 -7 23 -15 30 -8 7
-15 18 -15 25 0 16 -32 79 -42 83 -5 2 -8 13 -8 24 0 19 -11 47 -45 123 -8 17
-25 78 -39 136 -31 126 -34 239 -10 289 16 31 19 32 60 27 24 -2 70 -17 101
-33z m4314 -346 c27 -30 25 -112 -5 -196 -29 -84 -105 -241 -126 -262 -7 -7
-29 -43 -37 -60 -4 -8 -9 -17 -13 -20 -3 -3 -20 -27 -38 -55 -35 -55 -67 -98
-94 -126 -10 -11 -18 -22 -18 -25 0 -3 -18 -23 -40 -45 -22 -22 -40 -43 -40
-48 0 -14 -245 -256 -320 -316 -41 -33 -76 -63 -78 -67 -2 -5 -10 -8 -17 -8
-8 0 -18 -6 -22 -13 -4 -7 -33 -28 -63 -47 -30 -19 -57 -37 -60 -40 -3 -3 -24
-15 -47 -28 l-41 -22 -49 41 c-26 23 -61 54 -78 69 -16 16 -46 42 -65 58 -34
29 -34 30 -20 71 7 22 17 41 22 41 4 0 8 8 8 19 0 10 7 24 15 31 8 7 15 20 15
30 0 10 7 23 15 30 8 7 15 17 15 23 0 5 11 25 25 43 14 18 25 36 25 39 0 7 60
96 71 105 5 5 73 89 133 165 31 40 290 302 337 340 55 46 187 143 219 161 19
10 37 22 40 26 10 13 144 75 177 82 18 4 35 12 38 17 4 5 27 9 52 9 34 0 50
-5 64 -22z m-4995 -274 c82 -31 264 -124 264 -136 0 -4 5 -8 11 -8 10 0 179
-111 205 -135 6 -5 33 -28 60 -50 150 -125 291 -261 369 -359 17 -21 41 -50
55 -66 53 -59 83 -99 97 -130 4 -8 9 -17 13 -20 24 -20 98 -164 92 -180 -5
-14 -71 -96 -133 -164 l-26 -28 -58 21 c-123 46 -335 162 -335 182 0 5 -6 9
-12 9 -12 0 -85 52 -204 145 -40 31 -334 322 -391 387 -18 21 -33 42 -33 47 0
6 -6 14 -13 18 -7 4 -28 33 -47 63 -19 30 -37 57 -40 60 -4 3 -9 12 -13 20 -8
17 -30 53 -37 60 -10 10 -40 77 -52 118 -7 23 -16 42 -20 42 -5 0 -8 23 -8 50
0 38 5 55 21 71 20 20 29 21 93 16 40 -4 103 -18 142 -33z m-396 -445 c19 -5
50 -9 68 -9 17 0 32 -4 32 -10 0 -5 8 -10 18 -10 23 0 103 -26 158 -50 22 -10
54 -36 70 -57 74 -98 384 -403 409 -403 3 0 14 -8 24 -17 25 -23 38 -33 81
-63 19 -13 39 -30 43 -37 4 -7 15 -13 23 -13 8 0 17 -7 20 -15 4 -8 10 -15 16
-15 5 0 35 -17 66 -38 66 -44 244 -135 285 -146 17 -4 27 -13 27 -25 0 -32
-83 -160 -108 -167 -29 -8 -138 12 -227 42 -90 29 -197 73 -209 85 -6 5 -20 9
-32 9 -12 0 -24 3 -26 8 -1 4 -21 16 -43 27 -22 10 -71 37 -110 59 -38 21 -83
47 -100 56 -75 40 -125 73 -125 81 0 5 -5 9 -11 9 -9 0 -147 98 -175 124 -6 6
-30 27 -53 46 -81 67 -221 204 -221 216 0 7 -6 14 -14 17 -18 7 -99 133 -114
178 -16 47 -15 94 1 108 35 28 138 33 227 10z m6033 -46 c14 -13 17 -26 14
-49 -7 -39 -53 -140 -81 -175 -12 -15 -32 -41 -46 -59 -37 -47 -120 -130 -131
-130 -5 0 -9 -7 -9 -15 0 -8 -4 -15 -8 -15 -5 0 -26 -16 -48 -36 -21 -19 -95
-77 -164 -129 -69 -51 -133 -100 -142 -109 -10 -9 -24 -16 -30 -16 -7 0 -24
-9 -38 -20 -14 -11 -30 -20 -37 -20 -6 0 -13 -4 -15 -9 -1 -5 -73 -44 -158
-87 -158 -80 -176 -88 -265 -120 -27 -9 -54 -21 -59 -26 -6 -4 -22 -8 -37 -8
-15 0 -43 -7 -62 -15 -64 -27 -79 -21 -112 43 -28 54 -36 67 -61 95 -5 7 -13
19 -17 27 -4 8 -14 26 -22 40 -18 32 -13 49 33 100 47 53 153 160 158 160 4 0
42 31 83 69 14 13 43 35 64 49 20 13 37 29 37 33 0 5 6 9 14 9 7 0 19 7 27 16
7 8 29 24 50 34 20 11 44 26 52 35 16 15 61 42 147 87 25 12 47 25 50 28 19
19 126 70 146 70 8 0 14 3 14 8 0 10 59 42 79 42 9 0 21 4 27 9 22 23 250 91
349 105 63 9 178 -4 198 -21z m-2808 -127 c122 -19 315 -71 390 -105 11 -5 58
-26 105 -47 47 -21 87 -41 90 -44 3 -3 21 -14 40 -24 95 -51 126 -71 133 -83
4 -7 14 -13 22 -13 7 0 15 -3 17 -7 2 -5 37 -35 78 -67 79 -63 240 -221 240
-237 0 -5 12 -21 28 -36 15 -16 43 -50 62 -76 19 -27 43 -57 53 -68 9 -10 17
-25 17 -32 0 -7 4 -17 9 -22 16 -16 127 -246 141 -290 6 -22 18 -54 25 -70 16
-36 59 -211 77 -315 32 -190 4 -602 -51 -745 -5 -11 -17 -47 -27 -80 -10 -33
-28 -81 -41 -106 -13 -26 -23 -50 -23 -53 0 -16 -93 -196 -101 -196 -5 0 -9
-7 -9 -16 0 -16 -58 -106 -72 -112 -5 -2 -8 -8 -8 -13 0 -9 -5 -15 -57 -73
-13 -14 -23 -27 -23 -30 0 -3 -22 -28 -50 -57 -27 -29 -50 -56 -50 -61 0 -4
-4 -8 -9 -8 -6 0 -30 -19 -54 -42 -50 -49 -125 -111 -141 -117 -5 -2 -22 -15
-35 -28 -14 -12 -29 -23 -33 -23 -3 0 -13 -6 -20 -12 -20 -19 -50 -38 -70 -44
-10 -4 -18 -10 -18 -14 0 -4 -8 -10 -17 -14 -10 -3 -25 -9 -33 -14 -41 -24
-83 -42 -96 -42 -8 0 -14 -3 -14 -7 0 -5 -21 -16 -48 -26 -26 -11 -56 -23 -67
-27 -167 -71 -375 -110 -612 -117 -194 -6 -313 5 -468 44 -55 14 -115 27 -132
30 -18 3 -33 9 -33 14 0 5 -7 9 -15 9 -8 0 -29 6 -47 14 -18 8 -48 21 -67 28
-19 7 -78 35 -130 62 -53 27 -106 54 -118 60 -13 6 -23 14 -23 19 0 4 -5 7
-11 7 -10 0 -46 26 -112 80 -10 8 -27 22 -37 30 -104 84 -210 182 -210 194 0
3 -15 21 -32 40 -18 19 -42 46 -53 62 -11 15 -26 33 -32 40 -7 7 -13 17 -13
23 0 6 -5 11 -10 11 -6 0 -15 11 -20 25 -5 14 -13 25 -17 25 -5 0 -19 25 -33
55 -14 30 -28 55 -32 55 -5 0 -8 4 -8 9 0 5 -16 37 -35 71 -19 34 -38 74 -41
89 -4 14 -10 31 -14 36 -9 13 -36 91 -64 190 -46 159 -66 306 -66 485 0 238
37 436 125 661 20 52 39 104 42 117 3 12 8 22 12 22 4 0 24 35 46 78 22 42 43
79 48 80 4 2 7 10 7 18 0 8 4 14 9 14 5 0 13 9 16 21 4 12 14 29 23 39 52 56
72 81 72 90 0 5 9 15 20 22 11 7 20 17 20 22 0 15 132 145 210 208 41 33 85
69 98 79 12 10 26 19 32 19 5 0 13 6 17 13 4 6 19 18 33 26 14 8 52 31 85 51
33 20 98 53 145 74 47 21 94 42 105 47 20 10 97 35 212 69 35 10 114 26 175
34 62 9 127 18 143 20 56 8 340 -4 430 -18z m3070 -761 c111 -23 125 -27 125
-35 0 -5 9 -11 19 -15 42 -13 32 -88 -17 -140 -60 -63 -201 -165 -227 -165 -8
0 -15 -4 -15 -9 0 -5 -8 -12 -17 -15 -10 -4 -38 -17 -63 -31 -25 -13 -53 -24
-62 -24 -10 -1 -18 -4 -18 -8 0 -5 -21 -16 -48 -26 -26 -11 -56 -22 -67 -27
-215 -87 -455 -147 -718 -180 -103 -13 -364 -13 -372 0 -3 6 -10 31 -15 58 -4
26 -18 79 -30 117 -37 117 -40 105 47 157 71 42 185 98 288 142 22 9 47 20 55
24 8 5 42 17 75 27 33 11 62 23 65 26 3 3 16 8 30 11 14 3 52 13 85 23 103 29
127 35 235 56 250 49 509 63 645 34z m-6400 -30 c77 -8 165 -19 195 -25 30 -5
82 -15 115 -22 33 -6 67 -15 76 -19 8 -4 49 -17 90 -28 41 -11 90 -25 109 -32
186 -65 191 -67 350 -142 80 -38 210 -117 247 -151 l27 -25 -25 -113 -25 -112
-35 -9 c-59 -15 -345 -11 -469 7 -205 30 -227 34 -248 45 -11 6 -32 11 -45 11
-24 0 -110 23 -152 40 -11 5 -31 12 -45 15 -49 13 -215 77 -237 91 -12 8 -29
14 -37 14 -13 0 -74 28 -86 40 -5 5 -61 32 -90 44 -66 27 -198 133 -244 195
-25 33 -36 59 -36 82 0 31 5 36 53 58 107 49 271 61 512 36z m6050 -770 c77
-8 158 -20 180 -25 22 -6 63 -15 90 -19 150 -26 316 -98 361 -156 24 -32 25
-38 14 -66 -22 -51 -129 -116 -255 -153 -33 -10 -69 -21 -80 -25 -84 -34 -324
-61 -585 -67 -212 -5 -266 -3 -405 15 -204 27 -285 42 -285 52 0 5 -18 9 -40
9 -22 0 -40 4 -40 9 0 5 -13 11 -28 14 l-29 6 3 148 2 148 74 27 c40 15 88 28
106 28 17 0 32 5 32 10 0 6 13 10 30 10 16 0 51 5 77 10 176 38 544 50 778 25z
m-5367 -50 c110 -16 314 -63 322 -75 3 -4 22 -10 43 -14 20 -4 37 -11 37 -16
0 -6 9 -10 20 -10 19 0 20 -7 20 -118 l0 -117 -37 -16 c-109 -47 -217 -76
-403 -111 -115 -21 -151 -23 -445 -22 -188 1 -345 6 -380 12 -161 30 -216 42
-290 63 -44 13 -81 27 -83 31 -2 4 -10 8 -17 8 -55 0 -175 95 -175 139 0 72
196 168 460 225 69 15 232 34 340 40 129 7 487 -4 588 -19z m381 -565 c52 -6
96 -11 97 -13 1 -1 14 -46 28 -100 20 -74 24 -103 16 -117 -6 -11 -14 -20 -19
-20 -5 0 -19 -10 -32 -23 -48 -46 -242 -155 -349 -196 -30 -12 -64 -26 -75
-31 -69 -31 -270 -95 -337 -107 -16 -3 -28 -9 -28 -14 0 -5 -12 -9 -28 -9 -15
0 -59 -7 -97 -16 -69 -15 -127 -23 -315 -45 -111 -13 -293 -5 -376 17 -57 14
-144 61 -144 77 0 4 7 24 15 45 17 39 148 172 171 172 7 0 17 6 21 13 26 40
420 215 578 256 17 5 47 16 69 25 21 9 49 16 63 16 13 0 61 9 106 19 228 53
447 71 636 51z m4291 -49 c149 -21 304 -53 370 -76 23 -8 51 -15 61 -15 11 0
19 -4 19 -10 0 -5 9 -10 20 -10 11 0 56 -13 102 -30 45 -16 90 -30 99 -30 10
0 19 -3 21 -7 2 -5 19 -15 38 -24 95 -43 170 -81 175 -90 4 -5 13 -9 21 -9 26
0 157 -92 214 -151 74 -75 86 -99 70 -138 -7 -17 -19 -31 -26 -31 -8 0 -14 -4
-14 -10 0 -5 -17 -12 -37 -16 -21 -4 -41 -11 -44 -17 -4 -6 -80 -12 -175 -15
-164 -4 -331 9 -494 39 -82 15 -293 71 -335 89 -11 4 -47 16 -80 25 -58 17
-100 34 -230 95 -33 15 -75 34 -92 41 -18 8 -33 17 -33 21 0 5 -4 8 -10 8 -16
0 -161 92 -167 106 -3 7 7 46 21 85 14 40 26 81 26 91 0 10 4 18 9 18 5 0 11
18 15 40 l6 40 158 0 c96 -1 209 -8 292 -19z m-515 -527 c155 -45 165 -48 165
-56 0 -4 7 -8 16 -8 23 0 304 -140 304 -151 0 -5 5 -9 11 -9 13 0 203 -115
222 -135 7 -6 17 -14 22 -16 22 -9 145 -103 145 -111 0 -4 5 -8 10 -8 12 0 20
-7 135 -118 164 -158 255 -293 255 -376 0 -29 -5 -38 -30 -51 -46 -24 -169
-19 -289 10 -189 47 -251 77 -325 157 -114 123 -173 183 -216 218 -24 19 -53
44 -65 55 -12 11 -41 36 -66 55 -24 19 -45 38 -47 42 -2 5 -8 8 -13 8 -5 0
-18 8 -28 18 -32 28 -44 37 -125 91 -42 28 -81 51 -86 51 -4 0 -13 7 -20 15
-7 8 -21 15 -31 15 -11 0 -19 4 -19 8 0 10 -123 72 -142 72 -7 0 -24 9 -37 19
-21 16 -22 20 -10 39 8 12 17 22 21 22 5 0 8 6 8 14 0 8 3 16 8 18 9 4 72 107
72 118 0 10 18 18 45 19 11 1 61 -11 110 -25z m-3458 -6 c13 -12 23 -25 23
-29 0 -4 18 -34 41 -68 37 -55 39 -62 25 -76 -8 -9 -23 -29 -33 -45 -9 -17
-21 -30 -25 -30 -4 0 -8 -7 -8 -15 0 -23 -190 -209 -325 -318 -30 -24 -136
-97 -140 -97 -3 0 -16 -9 -27 -20 -44 -40 -347 -209 -468 -260 -189 -79 -292
-107 -427 -116 -68 -5 -96 -3 -125 9 -34 14 -38 20 -38 52 0 78 84 209 220
345 58 58 117 112 130 120 13 8 38 29 55 45 27 26 115 92 162 120 9 6 25 17
36 27 27 23 172 108 186 108 6 0 11 3 11 8 0 4 24 18 53 32 28 13 54 27 57 30
7 8 103 53 170 80 30 12 64 26 75 31 72 32 198 65 315 83 14 2 27 4 29 5 3 0
15 -9 28 -21z m3188 -275 c17 -4 32 -9 35 -12 9 -11 71 -41 85 -41 7 0 18 -7
25 -15 7 -8 19 -15 27 -15 13 0 23 -7 58 -37 7 -7 17 -13 20 -13 9 0 99 -63
103 -72 2 -5 12 -8 23 -8 10 0 19 -4 19 -9 0 -5 26 -28 58 -52 31 -24 62 -48
68 -54 6 -5 33 -28 60 -50 90 -74 334 -325 334 -343 0 -5 7 -12 15 -16 8 -3
15 -10 15 -16 0 -6 11 -21 25 -34 14 -13 25 -25 25 -28 0 -2 25 -42 55 -88 30
-46 55 -90 55 -97 0 -7 4 -13 8 -13 8 0 27 -40 48 -105 17 -50 18 -137 2 -153
-14 -14 -140 -16 -166 -3 -9 5 -48 19 -87 31 -38 13 -72 25 -75 29 -5 6 -56
31 -90 45 -8 3 -27 14 -41 24 -15 9 -62 39 -105 67 -44 27 -80 53 -82 57 -2 5
-8 8 -13 8 -5 0 -17 8 -27 18 -11 9 -32 26 -47 37 -16 11 -41 32 -56 48 -15
15 -30 27 -32 27 -14 0 -254 235 -317 309 -25 29 -52 61 -60 71 -8 9 -26 32
-40 50 -14 18 -31 39 -37 46 -7 7 -13 16 -13 20 0 4 -11 22 -25 40 -14 18 -25
36 -25 41 0 4 -14 28 -30 53 -47 71 -42 86 57 185 60 60 91 84 102 80 9 -4 30
-9 46 -12z m-2863 -136 c92 -82 108 -98 108 -111 0 -45 -99 -274 -122 -284 -5
-2 -8 -8 -8 -13 0 -9 -79 -139 -90 -149 -3 -3 -17 -21 -30 -40 -13 -19 -29
-39 -36 -45 -6 -5 -32 -39 -59 -75 -73 -98 -261 -294 -355 -369 -25 -20 -47
-39 -48 -44 -2 -4 -27 -23 -55 -41 -29 -19 -62 -44 -74 -55 -12 -12 -25 -21
-28 -21 -4 0 -21 -11 -38 -24 -46 -35 -184 -103 -237 -116 -87 -22 -99 -23
-126 -5 -26 17 -27 19 -22 99 4 61 14 101 37 156 17 41 31 80 31 87 0 7 3 13
8 13 4 0 16 17 27 38 35 66 117 197 126 200 5 2 9 10 9 18 0 7 9 19 20 26 11
7 20 18 20 25 0 7 3 13 8 13 4 0 18 18 32 40 13 22 28 40 32 40 4 0 8 6 8 13
0 7 8 20 18 28 9 9 39 40 66 70 107 119 244 252 318 309 11 8 43 33 71 55 79
61 115 85 127 85 5 0 10 4 10 8 0 11 182 101 205 102 6 0 27 -15 47 -33z m210
-165 c2 -5 38 -32 81 -61 53 -36 77 -58 77 -72 0 -62 -49 -243 -90 -334 -59
-130 -115 -243 -153 -308 -23 -40 -51 -89 -62 -111 -11 -21 -26 -40 -32 -43
-7 -3 -13 -14 -13 -24 0 -10 -4 -19 -9 -19 -6 0 -20 -18 -32 -40 -13 -22 -26
-40 -31 -40 -4 0 -8 -4 -8 -10 0 -10 -26 -44 -62 -82 -10 -10 -18 -21 -18 -25
0 -3 -7 -13 -15 -22 -8 -9 -36 -40 -62 -70 -215 -245 -445 -388 -497 -308 -36
55 -27 217 20 351 13 38 24 78 24 88 0 10 5 18 10 18 6 0 10 5 10 10 0 14 41
70 51 70 5 0 26 18 48 40 22 22 42 40 45 40 13 0 250 248 324 338 25 31 50 62
55 67 18 23 147 206 147 210 0 3 17 33 38 67 45 76 88 164 97 201 4 15 11 30
16 33 5 3 9 14 9 25 0 18 25 27 32 11z m2243 -69 c22 -14 52 -39 68 -55 15
-15 31 -28 35 -28 5 0 28 -23 53 -50 24 -28 64 -72 89 -98 53 -56 104 -119
143 -175 15 -22 34 -48 43 -56 21 -23 58 -81 117 -185 29 -50 57 -100 64 -111
7 -11 36 -69 66 -130 48 -97 64 -134 98 -223 5 -12 23 -79 40 -149 25 -105 29
-138 23 -187 -7 -65 -25 -103 -52 -108 -46 -10 -155 35 -221 92 -9 8 -37 30
-61 49 -36 29 -71 64 -207 206 -7 8 -13 17 -13 21 0 4 -7 14 -15 23 -8 9 -26
28 -40 43 -14 15 -25 31 -25 37 0 5 -3 11 -8 13 -12 5 -72 85 -72 96 0 6 -4
12 -8 14 -13 5 -139 213 -156 258 -7 17 -28 52 -36 60 -11 9 -98 216 -125 295
-23 68 -55 202 -55 232 0 21 9 34 38 52 20 13 49 32 64 43 15 10 34 18 41 18
8 0 20 7 27 15 18 22 40 19 85 -12z m-1715 -201 c0 -4 36 -16 79 -26 l79 -19
11 -41 c26 -106 23 -274 -9 -506 -5 -36 -12 -85 -15 -110 -4 -25 -10 -54 -15
-65 -4 -11 -14 -47 -21 -80 -7 -33 -16 -64 -19 -70 -4 -5 -10 -23 -13 -40 -8
-45 -31 -119 -38 -125 -3 -3 -9 -18 -13 -34 -16 -65 -132 -321 -187 -410 -10
-17 -22 -38 -25 -46 -7 -15 -94 -122 -123 -150 -60 -58 -124 -76 -152 -42 -30
35 -50 96 -61 187 -16 123 2 420 33 555 12 52 23 111 26 130 2 19 8 44 13 55
13 31 50 159 50 173 0 7 4 20 10 30 14 25 100 249 100 260 0 6 3 12 8 14 11 5
42 64 42 81 0 8 7 20 15 27 8 7 15 19 15 27 0 8 6 21 13 28 27 31 37 44 37 50
0 13 66 101 95 127 28 26 65 37 65 20z m1191 -34 c7 -13 15 -25 19 -28 5 -4
37 -51 78 -115 6 -11 17 -30 22 -43 5 -13 27 -60 48 -105 108 -229 190 -519
232 -815 17 -121 14 -387 -4 -460 -32 -121 -53 -152 -103 -152 -37 0 -41 2
-116 76 -56 55 -87 91 -87 100 0 3 -9 19 -21 35 -11 16 -49 86 -84 156 -54
110 -80 171 -146 358 -82 231 -136 579 -127 827 4 128 13 141 97 153 27 4 66
13 87 20 59 21 91 19 105 -7z m-497 -103 c12 -22 28 -60 35 -85 7 -25 17 -56
22 -70 15 -47 39 -169 56 -287 22 -151 25 -597 5 -718 -37 -223 -81 -405 -103
-425 -3 -3 -11 -21 -19 -40 -27 -70 -88 -140 -123 -140 -21 0 -57 19 -74 40
-22 26 -81 144 -96 190 -36 109 -47 161 -88 400 -17 98 -17 521 0 660 23 191
65 374 107 467 24 53 39 59 154 53 l102 -5 22 -40z m2509 -1274 c49 -83 81
-235 74 -354 -2 -49 -8 -92 -13 -96 -5 -5 -26 -11 -47 -14 -37 -6 -39 -5 -56
36 -31 73 -44 148 -45 262 -1 89 3 120 18 153 23 50 45 54 69 13z m280 4 c23
-22 32 -136 18 -219 -13 -77 -22 -110 -53 -198 l-21 -58 -42 0 c-52 0 -55 6
-55 103 0 77 43 290 60 295 6 2 10 8 10 12 0 18 43 80 55 80 8 0 20 -7 28 -15z
m-5119 -31 c9 -3 16 -12 16 -20 0 -8 3 -14 8 -14 11 0 17 -74 16 -202 -2 -123
-25 -237 -66 -325 -18 -37 -24 -43 -52 -43 -61 0 -68 14 -73 146 -4 94 -1 139
15 216 21 102 62 200 96 231 22 20 19 19 40 11z m-337 -52 c24 -37 57 -118 79
-197 16 -59 30 -267 20 -317 -6 -33 -10 -36 -46 -40 -22 -2 -47 0 -54 4 -22
12 -53 84 -77 178 -29 113 -33 315 -7 373 22 48 52 47 85 -1z m4894 27 c55
-29 151 -222 180 -363 12 -54 11 -60 -7 -73 -10 -7 -30 -17 -43 -20 -32 -8
-78 45 -111 129 -13 35 -27 65 -30 68 -12 10 -32 91 -47 191 -5 38 9 79 28 79
6 0 19 -5 30 -11z m823 -33 c8 -31 -4 -146 -15 -146 -5 0 -9 -6 -9 -13 0 -35
-82 -198 -122 -241 -10 -11 -18 -23 -18 -28 0 -4 -11 -10 -24 -14 -18 -4 -32
1 -51 18 -25 24 -26 27 -15 74 7 27 19 69 28 94 16 46 87 176 107 196 6 7 23
25 36 41 40 48 74 55 83 19z m-5063 -53 c17 -44 0 -179 -33 -263 -39 -97 -87
-195 -110 -222 -13 -14 -28 -34 -34 -44 -9 -16 -15 -16 -57 -5 -52 15 -56 21
-52 78 7 90 121 368 156 381 5 2 9 9 9 15 0 15 81 86 98 87 7 0 17 -12 23 -27z
m4090 0 c16 -10 29 -21 29 -25 0 -4 6 -8 13 -8 15 0 67 -95 67 -121 0 -14 27
-79 50 -121 6 -10 16 -28 23 -40 6 -13 20 -32 30 -44 22 -26 14 -50 -19 -58
-39 -10 -54 2 -138 109 -46 59 -107 191 -115 248 -10 77 5 92 60 60z m-5035
-58 c35 -35 66 -76 70 -90 3 -14 9 -25 13 -25 6 0 46 -83 85 -173 9 -21 22
-69 28 -107 14 -80 6 -96 -48 -106 -29 -5 -37 -2 -55 20 -11 14 -27 32 -34 40
-31 30 -87 139 -133 256 -34 87 -51 212 -32 235 21 26 40 17 106 -50z m6244
-65 c0 -23 -4 -46 -10 -53 -5 -7 -33 -47 -60 -89 -50 -75 -162 -189 -213 -217
-25 -13 -28 -12 -52 13 -14 15 -25 33 -25 41 0 20 40 95 50 95 5 0 10 6 12 13
3 15 59 87 98 126 57 59 141 111 177 111 20 0 23 -5 23 -40z m-6455 8 c8 -7
30 -24 49 -38 27 -20 41 -41 61 -100 15 -41 31 -79 36 -84 5 -6 9 -16 9 -23 0
-21 99 -170 140 -211 12 -13 11 -17 -9 -33 -13 -11 -28 -19 -35 -19 -50 0
-215 188 -276 315 -13 28 -26 52 -29 55 -9 7 -31 96 -31 123 0 13 3 27 7 31
10 10 61 -1 78 -16z m1450 -57 c25 -81 -146 -345 -296 -455 l-35 -26 -42 27
c-23 15 -42 35 -42 45 0 17 55 127 69 138 3 3 13 18 21 35 21 42 190 209 236
234 50 26 81 27 89 2z m3617 -34 c80 -34 242 -177 280 -248 16 -30 16 -33 -4
-60 -12 -16 -28 -29 -35 -29 -43 0 -182 93 -239 160 -12 14 -32 36 -44 50 -12
14 -33 47 -47 73 -19 38 -22 52 -13 63 14 16 51 13 102 -9z m-2226 -47 c9 -22
20 -40 25 -40 5 0 9 -6 9 -13 0 -21 67 -94 102 -111 40 -20 81 -20 121 0 38
19 88 71 105 108 6 14 16 26 21 26 16 0 20 -76 27 -550 7 -488 -9 -1277 -26
-1294 -4 -4 -44 -12 -87 -16 -83 -9 -217 -41 -270 -65 -17 -8 -40 -15 -52 -15
-21 0 -21 4 -23 223 -3 411 -3 949 0 1351 4 434 10 490 48 396z m3796 -72 c6
-18 -3 -58 -13 -58 -5 0 -9 -7 -9 -15 0 -8 -5 -15 -10 -15 -6 0 -21 -10 -33
-23 -12 -13 -47 -31 -76 -41 -67 -22 -165 -70 -209 -103 -40 -30 -63 -27 -76
10 -9 24 -6 31 28 66 21 22 64 57 95 78 31 21 58 40 61 44 5 5 62 30 130 55
44 17 107 18 112 2z m-668 -68 c113 -55 198 -136 245 -235 36 -75 39 -84 51
-158 19 -104 -17 -307 -60 -347 -3 -3 -17 -21 -30 -40 -67 -97 -196 -187 -300
-210 -62 -13 -226 -13 -269 1 -41 13 -84 32 -91 39 -3 3 -21 13 -40 23 -71 37
-149 124 -192 217 -42 90 -50 126 -51 228 -1 79 3 110 23 167 54 153 157 267
291 321 94 39 124 43 236 39 95 -4 107 -7 187 -45z m-6169 2 c56 -28 138 -82
143 -94 2 -4 10 -8 17 -8 21 0 169 -152 189 -194 18 -37 18 -38 -6 -63 -20
-21 -29 -24 -63 -18 -22 3 -47 12 -56 20 -8 8 -21 15 -27 15 -13 0 -105 60
-110 72 -2 4 -8 8 -13 8 -6 0 -29 17 -51 38 -132 119 -189 201 -167 244 12 22
78 13 144 -20z m1889 -18 c24 -9 19 -47 -13 -90 -34 -47 -80 -94 -93 -94 -21
0 -228 -106 -287 -147 l-64 -44 -24 27 c-12 15 -23 34 -23 41 0 18 119 143
136 143 7 0 14 3 16 8 4 10 99 77 139 98 44 23 159 64 181 64 9 0 23 -3 32 -6z
m1884 -2 c51 -33 40 -293 -19 -446 -35 -92 -39 -96 -79 -96 -42 0 -55 11 -64
57 -16 74 38 367 74 403 3 3 14 21 24 40 27 48 40 57 64 42z m1368 -16 c73
-19 170 -64 236 -108 32 -21 62 -38 68 -38 19 0 22 -47 5 -80 -15 -30 -19 -31
-58 -25 -67 10 -237 80 -237 97 0 4 -6 8 -13 8 -21 0 -124 83 -137 110 -22 47
36 63 136 36z m1784 -51 c26 -31 -75 -124 -180 -165 -30 -12 -59 -25 -65 -29
-14 -11 -139 -41 -169 -41 -26 0 -56 32 -56 61 0 19 67 79 87 79 7 0 13 5 13
10 0 6 9 10 19 10 11 0 21 4 23 9 4 12 166 69 208 74 77 9 108 7 120 -8z
m-2852 -75 c3 -49 -6 -97 -28 -155 -4 -11 -13 -39 -20 -62 -7 -24 -16 -43 -20
-43 -3 0 -12 -17 -19 -37 -8 -21 -17 -40 -20 -43 -10 -8 -31 -44 -37 -62 -4
-10 -11 -18 -18 -18 -6 0 -17 -9 -24 -20 -15 -24 -37 -24 -77 -1 -26 15 -29
22 -27 55 6 66 73 229 122 296 14 19 31 46 38 60 17 32 92 91 112 87 11 -1 16
-18 18 -57z m-3034 19 c197 -68 321 -169 395 -324 49 -101 50 -104 65 -197 17
-108 -2 -240 -50 -344 -17 -39 -72 -124 -84 -134 -4 -3 -11 -12 -16 -21 -12
-21 -109 -100 -154 -125 -19 -10 -37 -21 -40 -24 -8 -8 -69 -30 -125 -46 -64
-18 -244 -18 -310 0 -27 7 -70 23 -94 34 -25 12 -51 22 -58 22 -7 0 -13 5 -13
10 0 6 -6 10 -12 10 -26 0 -188 153 -188 178 0 6 -4 12 -8 12 -12 0 -59 99
-82 172 -21 70 -29 230 -15 293 20 83 77 216 96 223 5 2 9 9 9 16 0 20 130
146 150 146 6 0 10 5 10 10 0 6 11 15 25 20 14 5 25 14 25 20 0 5 9 10 19 10
11 0 40 9 66 20 26 11 60 20 76 20 16 0 29 5 29 10 0 6 44 10 112 10 87 0 125
-5 172 -21z m2477 0 c17 -32 39 -185 39 -271 0 -83 -12 -128 -33 -128 -11 0
-15 33 -20 152 -8 178 -9 268 -2 268 2 0 9 -9 16 -21z m-1510 -85 c9 -25 5
-31 -46 -80 -89 -86 -264 -172 -402 -199 -66 -12 -83 -7 -83 26 0 10 -4 21
-10 24 -23 14 -7 45 43 82 121 91 319 171 430 172 53 1 58 -1 68 -25z m-2161
-29 c112 -22 211 -62 320 -129 84 -52 102 -73 95 -111 -7 -40 -21 -47 -90 -41
-123 10 -296 79 -405 162 -64 48 -75 60 -84 92 -6 17 -2 24 16 31 33 14 63 13
148 -4z m5388 -26 c42 -11 101 -31 130 -44 46 -21 52 -27 52 -54 0 -59 -65
-74 -224 -51 -184 27 -339 125 -248 158 49 19 206 14 290 -9z m-901 -43 c-11
-79 -93 -204 -207 -314 -101 -99 -139 -111 -175 -56 -19 30 -13 54 38 137 80
131 248 277 320 277 29 0 30 0 24 -44z m2614 -12 c44 -15 50 -20 47 -42 -7
-59 -162 -104 -360 -106 l-127 -1 -8 35 c-12 46 -6 70 16 70 10 0 21 3 25 7
11 11 94 32 156 39 30 4 57 8 59 10 12 11 149 2 192 -12z m-4197 -68 c59 -18
173 -91 181 -117 7 -21 4 -166 -3 -187 -6 -19 -44 8 -123 87 -82 81 -129 154
-129 198 0 38 6 39 74 19z m-667 -121 c47 -20 42 -44 -14 -81 -74 -48 -125
-65 -263 -89 -96 -17 -256 -20 -265 -5 -3 5 -9 32 -12 59 -5 47 -4 50 24 65
44 22 177 57 258 66 89 11 229 3 272 -15z m-2034 -24 c48 -11 105 -30 127 -41
34 -17 40 -25 40 -53 0 -46 -8 -53 -75 -67 -102 -21 -240 -6 -415 46 -39 12
-117 63 -125 82 -13 36 27 51 170 65 48 5 197 -12 278 -32z m4488 3 c11 -13
10 -21 -6 -51 -31 -56 -74 -91 -149 -119 -98 -37 -227 -104 -253 -132 l-22
-24 -26 26 c-14 14 -25 33 -25 43 0 23 78 99 150 147 30 20 60 39 65 43 6 5
21 13 35 19 14 6 36 17 50 23 83 39 160 50 181 25z m2224 -20 c132 -33 215
-78 215 -115 0 -64 -278 -51 -442 20 -27 11 -49 26 -49 33 -2 23 2 43 12 64
10 20 17 21 107 17 54 -2 124 -11 157 -19z m-3080 -19 c74 -19 165 -56 165
-67 0 -4 7 -8 15 -8 8 0 15 -3 15 -7 0 -5 17 -19 38 -31 20 -13 51 -41 67 -63
17 -21 38 -49 48 -61 50 -61 107 -236 107 -325 -1 -127 -60 -294 -132 -375
-18 -20 -44 -50 -58 -67 -14 -16 -29 -30 -34 -31 -4 0 -25 -13 -45 -28 -20
-16 -52 -34 -71 -41 -19 -7 -44 -17 -55 -22 -63 -27 -222 -40 -251 -21 -8 5
-9 32 -4 92 5 47 12 301 15 565 4 264 8 486 11 493 5 17 96 16 169 -3z m-965
-99 c57 -21 120 -49 180 -81 35 -18 51 -89 33 -153 -5 -21 -10 -23 -37 -18
-43 9 -172 63 -218 92 -21 13 -41 24 -45 24 -5 0 -36 27 -71 59 -60 58 -77 93
-49 105 25 11 144 -5 207 -28z m2730 -6 c20 -28 20 -31 4 -55 -9 -14 -20 -25
-24 -25 -4 0 -20 -11 -36 -25 -16 -14 -34 -25 -41 -25 -7 0 -33 -12 -59 -26
-56 -31 -88 -42 -175 -58 -57 -10 -121 -7 -135 6 -14 14 35 73 94 112 100 66
190 99 344 125 4 0 16 -12 28 -29z m1097 -15 c55 -13 93 -27 183 -68 14 -7 34
-20 44 -29 11 -10 24 -18 29 -18 19 0 109 -100 105 -117 -4 -24 -56 -29 -127
-13 -76 17 -211 75 -243 105 -15 14 -31 25 -35 25 -15 1 -61 45 -63 60 -7 48
1 61 40 69 3 0 33 -6 67 -14z m-1910 -18 c15 -15 14 -19 -9 -49 -54 -70 -208
-153 -361 -194 -105 -28 -146 -14 -147 51 0 26 9 36 63 72 82 55 127 76 217
103 41 12 86 26 100 30 37 13 119 5 137 -13z m-2842 -57 c188 -27 340 -92 328
-140 -10 -38 -90 -53 -242 -47 -75 3 -154 11 -176 17 -172 49 -175 51 -175 86
0 45 15 81 37 87 33 9 157 7 228 -3z m3709 -6 c3 -9 6 -20 6 -25 0 -9 -90
-101 -121 -124 -95 -71 -261 -142 -305 -131 -36 9 -30 46 14 95 34 38 97 69
197 98 11 4 37 17 57 30 21 12 41 23 45 23 5 1 22 12 38 25 35 29 60 32 69 9z
m-5336 -23 c50 -10 48 -9 57 -43 8 -32 -27 -73 -72 -84 -15 -4 -46 -15 -68
-25 -41 -18 -56 -21 -185 -40 -85 -12 -222 -5 -263 13 -20 10 -27 20 -27 41 0
15 5 27 10 27 6 0 19 8 30 18 70 66 376 120 518 93z m6258 -24 c45 -20 94 -51
94 -59 0 -5 7 -8 15 -8 22 0 178 -160 203 -208 33 -65 30 -82 -14 -82 -58 0
-165 63 -253 149 -106 104 -146 185 -103 210 22 13 25 13 58 -2z m-804 -80
c15 -23 8 -43 -41 -123 -63 -102 -206 -244 -245 -244 -9 0 -16 -4 -16 -10 0
-16 -47 -12 -53 5 -12 31 25 116 86 196 79 105 83 109 92 109 4 0 15 8 24 19
34 39 95 72 121 66 13 -4 28 -12 32 -18z m-2847 -26 c140 -36 182 -73 159
-138 -9 -26 -14 -28 -69 -31 -159 -8 -378 52 -452 124 -26 25 -6 51 50 65 49
13 233 1 312 -20z m3529 -23 c19 -13 41 -34 49 -48 9 -14 26 -38 40 -53 56
-66 127 -229 127 -294 0 -27 -4 -33 -21 -33 -59 0 -106 58 -151 186 -17 49
-39 100 -49 113 -11 13 -19 29 -19 37 0 7 -4 14 -8 16 -4 2 -18 18 -31 36 -18
26 -20 36 -11 47 17 21 35 19 74 -7z m-4718 -13 c64 -9 214 -55 214 -66 0 -5
5 -9 11 -9 20 0 162 -91 196 -125 65 -65 29 -95 -98 -81 -88 10 -309 87 -309
107 0 5 -9 9 -20 9 -11 0 -20 4 -20 9 0 5 -8 12 -17 15 -10 3 -30 17 -46 31
-21 21 -26 32 -21 53 9 40 34 74 48 69 8 -3 35 -8 62 -12z m4164 -12 c11 -10
0 -97 -19 -152 -20 -57 -59 -144 -85 -189 -18 -30 -115 -132 -127 -132 -5 0
-15 10 -23 23 -11 17 -13 33 -5 72 15 82 58 204 79 225 9 9 29 44 44 75 15 34
55 79 77 88 14 5 49 -1 59 -10z m-5470 -28 c0 -7 3 -20 6 -29 7 -18 -51 -75
-116 -114 -25 -14 -47 -29 -50 -32 -5 -5 -23 -14 -102 -49 -124 -55 -299 -80
-312 -45 -3 9 -6 19 -6 24 0 14 112 120 126 120 7 0 14 4 16 9 2 4 35 24 73
44 180 92 365 129 365 72z m4372 19 c101 -29 97 -71 -11 -114 -90 -35 -189
-51 -312 -51 -147 0 -169 8 -169 59 0 36 3 40 48 60 43 20 127 44 192 55 63
11 197 6 252 -9z m1553 2 c30 -29 93 -138 106 -181 7 -25 16 -45 20 -45 14 0
33 -98 34 -170 0 -68 -2 -75 -20 -78 -22 -3 -65 28 -65 46 0 5 -6 12 -13 15
-17 6 -92 159 -111 227 -32 115 -38 153 -25 177 14 26 53 31 74 9z m-314 -68
c11 -44 6 -162 -11 -228 -32 -126 -45 -160 -76 -202 -39 -55 -54 -59 -71 -21
-27 57 -5 332 28 368 5 5 9 14 9 21 0 6 9 32 20 58 19 42 24 46 55 46 32 0 35
-3 46 -42z m63 -148 c5 -179 11 -211 56 -299 15 -31 19 -63 21 -190 3 -169 5
-165 -66 -184 -78 -22 -78 -22 -76 78 1 50 7 200 13 335 6 135 12 285 14 333
3 97 9 126 24 111 6 -6 12 -88 14 -184z m109 166 c9 -13 19 -37 23 -52 3 -16
13 -49 21 -74 19 -57 21 -279 4 -333 -18 -54 -50 -51 -79 6 -47 93 -54 128
-59 288 -6 155 -6 156 18 172 33 23 54 21 72 -7z m-5742 -56 c12 -7 19 -21 19
-40 0 -23 -16 -46 -72 -103 -92 -94 -166 -144 -298 -200 -87 -37 -145 -41
-157 -11 -11 30 82 154 116 154 21 0 53 13 166 71 94 47 120 65 164 110 30 31
36 33 62 19z m1169 -57 c74 -33 178 -109 255 -187 102 -104 111 -116 119 -159
6 -30 4 -36 -14 -42 -37 -12 -121 18 -227 78 -59 35 -202 165 -238 218 -26 36
-27 40 -12 62 39 59 45 61 117 30z m1442 -46 c4 -6 8 -31 8 -54 0 -41 0 -42
-55 -62 -31 -12 -68 -21 -83 -21 -16 0 -33 -5 -38 -10 -12 -12 -199 -15 -269
-5 -49 8 -95 30 -95 46 0 14 43 54 75 69 17 7 71 24 120 36 76 19 109 22 209
18 81 -3 122 -8 128 -17z m1581 -68 c111 -36 187 -80 187 -108 0 -39 -25 -46
-174 -45 -124 0 -150 3 -216 26 -162 56 -178 68 -160 122 14 43 25 46 162 41
84 -4 126 -11 201 -36z m-4045 6 c20 -26 20 -40 -4 -100 -12 -31 -76 -139 -89
-150 -6 -5 -23 -26 -37 -45 -22 -31 -43 -52 -129 -132 -48 -45 -129 -72 -144
-48 -8 13 16 120 27 120 4 0 8 7 8 15 0 15 19 54 31 65 3 3 20 29 37 58 36 59
164 191 215 222 43 26 62 25 85 -5z m880 -47 c45 -39 142 -165 181 -235 9 -15
19 -29 24 -31 4 -2 7 -11 7 -21 0 -9 4 -21 8 -26 13 -15 32 -88 32 -123 0 -18
-6 -32 -16 -36 -17 -6 -104 32 -104 45 0 4 -13 15 -28 25 -17 9 -34 32 -41 53
-36 106 -111 245 -161 298 -35 37 -38 59 -10 68 11 3 20 11 20 16 0 22 43 6
88 -33z m-723 -40 c21 -9 25 -18 25 -52 0 -23 -10 -75 -21 -116 -11 -41 -23
-86 -27 -100 -10 -37 -98 -190 -132 -229 -17 -18 -30 -38 -30 -42 0 -5 -18 -9
-39 -9 -38 0 -39 1 -46 40 -9 53 0 110 36 225 12 40 67 161 81 180 97 126 99
128 153 103z m615 -40 c22 -29 44 -57 48 -63 13 -17 72 -143 72 -154 0 -6 3
-11 8 -11 8 0 26 -62 44 -157 13 -70 4 -116 -25 -121 -20 -4 -116 84 -138 125
-8 15 -30 55 -50 88 -20 33 -38 69 -41 80 -4 11 -18 52 -33 92 -33 90 -31 142
5 160 47 24 67 16 110 -39z m1698 -45 c3 -57 1 -62 -25 -81 -117 -83 -373
-149 -426 -110 -16 12 -17 18 -7 38 33 71 259 191 400 214 52 8 55 4 58 -61z
m-2121 33 c2 -2 9 -31 15 -65 20 -109 -8 -302 -66 -443 -6 -16 -14 -28 -18
-28 -5 0 -8 -7 -8 -15 0 -19 -36 -38 -58 -31 -34 11 -47 64 -47 201 1 104 5
148 24 220 40 152 59 180 115 170 22 -3 42 -7 43 -9z m211 -25 c79 -140 114
-432 65 -538 -69 -149 -210 256 -179 509 8 60 8 60 77 67 8 0 25 -16 37 -38z
m3201 17 c28 -6 51 -15 51 -20 0 -4 9 -8 20 -8 11 0 28 -4 38 -9 176 -86 237
-131 273 -198 17 -32 2 -46 -52 -49 -63 -3 -250 55 -279 86 -3 3 -27 17 -53
30 -58 30 -137 96 -137 115 0 8 4 25 10 39 11 30 45 34 129 14z m-3341 -230
c7 -57 20 -128 29 -158 23 -77 30 -300 9 -300 -14 0 -76 29 -86 41 -3 3 -13 8
-22 12 -26 9 -24 125 2 203 11 32 20 72 20 87 0 16 4 36 10 46 5 10 10 52 11
94 2 43 6 77 9 77 4 0 12 -46 18 -102z m2052 50 c-1 -52 -16 -88 -39 -88 -6 0
-11 -3 -11 -8 0 -4 -8 -12 -19 -17 -10 -6 -45 -24 -77 -41 -125 -66 -226 -82
-232 -37 -2 12 9 40 23 63 28 45 98 85 168 96 20 4 40 11 43 15 3 5 14 9 24 9
10 0 20 3 22 8 3 8 79 51 91 52 4 0 7 -24 7 -52z m1135 42 c3 -5 15 -10 25
-10 10 0 20 -3 22 -7 2 -5 23 -21 48 -38 64 -42 131 -96 156 -125 12 -14 34
-38 49 -55 34 -38 79 -131 71 -150 -10 -27 -70 -17 -140 23 -105 59 -208 151
-279 249 -37 51 -38 52 -23 87 12 28 21 36 40 36 14 0 28 -4 31 -10z m-114
-166 c24 -25 51 -54 60 -63 9 -9 32 -41 50 -71 18 -30 36 -57 39 -60 4 -3 10
-17 14 -32 5 -23 4 -27 -11 -21 -10 3 -25 11 -33 18 -8 6 -37 22 -64 36 -36
18 -55 36 -78 76 -16 28 -36 57 -43 63 -8 7 -15 18 -15 25 0 7 -7 15 -15 19
-33 12 -6 55 36 56 9 0 36 -21 60 -46z m-3355 -22 c-3 -21 -1 -78 4 -126 6
-49 9 -90 8 -92 -6 -6 -142 44 -145 53 -2 5 12 29 32 54 19 24 35 50 35 57 0
6 4 12 8 12 5 0 17 18 27 40 23 51 39 52 31 2z"/>
<path d="M2995 7654 c-33 -9 -110 -38 -115 -44 -3 -3 -22 -14 -43 -25 -33 -17
-73 -55 -105 -100 -4 -5 -12 -26 -19 -45 -12 -34 -12 -35 4 -10 29 44 121 127
155 140 18 7 49 20 68 29 26 12 66 16 160 16 123 0 167 -8 248 -48 31 -15 49
4 25 25 -39 35 -144 61 -253 64 -58 2 -114 0 -125 -2z"/>
<path d="M4865 7653 c-64 -17 -139 -46 -151 -58 -22 -22 -17 -38 9 -30 12 3
33 9 47 12 14 3 27 9 30 13 11 14 102 30 177 30 96 -1 149 -12 230 -51 61 -29
153 -111 153 -136 0 -7 5 -13 10 -13 6 0 10 -8 11 -17 0 -10 3 -13 5 -6 12 29
-100 183 -133 183 -7 0 -13 4 -13 9 0 5 -30 21 -67 36 -57 23 -87 28 -178 31
-60 1 -119 0 -130 -3z"/>
<path d="M3094 7346 c-3 -8 1 -43 10 -78 8 -34 17 -92 18 -128 l3 -65 -50 -13
c-83 -23 -115 -26 -115 -10 0 7 -18 34 -40 58 -22 25 -45 57 -52 73 -12 26
-38 33 -45 12 -1 -5 15 -32 37 -60 21 -27 47 -63 55 -78 15 -27 15 -30 0 -41
-9 -6 -39 -20 -66 -29 -28 -10 -49 -24 -49 -32 0 -8 -5 -15 -10 -15 -27 0 59
-152 129 -227 59 -64 183 -146 247 -163 27 -7 54 -17 60 -22 6 -4 60 -22 120
-39 90 -25 122 -30 184 -26 78 4 221 33 230 46 3 5 16 11 30 14 49 13 90 45
90 72 0 14 -4 25 -10 25 -5 0 -10 6 -10 13 0 6 -9 23 -20 37 -41 51 -100 151
-100 170 0 11 13 34 28 52 16 18 37 44 48 58 10 13 38 43 62 66 47 47 53 65
20 57 -25 -6 -86 -68 -146 -145 -20 -27 -40 -48 -44 -48 -5 0 -35 27 -68 61
-49 50 -58 65 -55 87 10 60 27 179 28 202 1 16 -3 25 -13 25 -11 0 -20 -23
-32 -85 -9 -47 -14 -88 -12 -92 3 -4 0 -17 -6 -28 -8 -16 -14 -18 -28 -9 -9 6
-46 20 -82 33 l-65 22 0 125 c0 71 -4 126 -10 129 -14 7 -24 -60 -24 -162 l-1
-88 -57 0 c-32 0 -65 -4 -72 -9 -29 -19 -51 6 -51 57 0 26 -6 72 -14 102 -7
30 -16 67 -20 83 -7 29 -23 36 -32 13z m341 -321 c38 -13 85 -40 85 -47 0 -5
5 -8 12 -8 38 0 294 -338 286 -378 -2 -11 -33 -27 -88 -46 -74 -25 -100 -29
-202 -30 -74 -1 -121 3 -128 10 -9 9 -4 13 16 18 31 8 78 38 109 70 15 15 21
37 23 91 l4 70 -44 47 c-47 50 -91 68 -171 68 -89 0 -180 -72 -189 -149 -6
-43 9 -113 25 -123 6 -4 9 -10 5 -13 -9 -9 -81 17 -91 32 -4 7 -15 13 -23 13
-8 0 -47 33 -87 73 -87 89 -97 102 -97 122 0 8 -4 15 -8 15 -10 0 -32 45 -32
64 0 8 25 21 60 32 33 10 60 21 60 26 0 4 18 8 40 8 22 0 40 4 40 8 0 10 139
41 200 44 53 3 167 -7 195 -17z m-10 -195 c57 -22 101 -100 84 -150 -14 -39
-29 -38 -29 0 0 22 -11 42 -36 68 -35 36 -38 37 -106 36 -67 0 -72 -2 -99 -32
-16 -18 -29 -41 -29 -52 0 -11 -5 -20 -11 -20 -8 0 -10 16 -6 51 5 39 13 56
33 72 51 41 132 52 199 27z"/>
<path d="M4723 7230 c6 -121 5 -130 -13 -140 -10 -5 -30 -10 -44 -10 -14 0
-26 -4 -26 -8 0 -4 -17 -14 -37 -22 -21 -8 -41 -16 -44 -18 -4 -1 -9 17 -12
40 -9 72 -28 171 -33 180 -3 4 -12 8 -21 8 -13 0 -14 -7 -8 -37 16 -87 24
-141 24 -183 0 -41 -5 -51 -52 -103 -28 -31 -56 -57 -62 -57 -5 0 -19 13 -30
28 -38 53 -150 172 -162 172 -28 0 -21 -22 19 -62 24 -24 61 -65 83 -92 22
-27 46 -56 54 -64 13 -12 12 -20 -8 -58 -13 -24 -42 -69 -65 -101 -54 -76 -70
-108 -63 -127 17 -44 243 -116 364 -116 43 0 139 20 228 47 67 20 216 83 236
100 8 7 19 13 22 13 8 0 45 31 92 75 54 51 136 182 142 224 6 44 -4 53 -87 81
-39 13 -45 19 -42 40 1 13 9 28 17 33 27 15 87 119 76 130 -8 8 -17 5 -31 -11
-11 -11 -20 -24 -20 -27 0 -4 -6 -12 -12 -20 -22 -22 -46 -53 -63 -79 -21 -31
-34 -32 -120 -5 -55 17 -65 23 -60 37 4 9 11 44 15 77 4 33 13 81 20 107 7 26
9 55 6 65 -17 44 -51 -56 -65 -192 -7 -68 7 -61 -121 -57 l-60 2 0 118 c0 114
-7 142 -34 142 -5 0 -7 -50 -3 -130z m287 -212 c25 -9 91 -30 148 -48 75 -24
102 -37 102 -49 0 -41 -118 -202 -172 -235 -15 -9 -33 -22 -40 -29 -19 -17
-97 -57 -114 -57 -8 0 -14 5 -14 10 0 6 4 10 8 10 12 0 32 61 32 96 0 16 -10
50 -22 74 -18 34 -35 50 -78 72 -128 65 -274 10 -310 -117 -12 -43 -11 -49 16
-102 22 -44 39 -62 73 -80 24 -13 54 -23 65 -24 17 0 16 -3 -9 -14 -60 -28
-260 -13 -340 25 -11 5 -32 14 -47 20 -27 9 -41 50 -18 50 6 0 10 7 10 15 0 8
5 15 10 15 6 0 10 5 10 10 0 6 14 29 30 52 17 22 30 45 30 50 0 5 13 23 30 41
16 18 30 35 30 40 0 23 129 135 188 165 l67 33 135 -4 c84 -3 152 -10 180 -19z
m-164 -199 c19 -11 34 -25 34 -30 0 -5 6 -9 14 -9 16 0 28 -67 15 -90 -6 -11
-10 -8 -20 15 -7 17 -24 41 -37 55 -22 22 -32 25 -96 25 -58 -1 -76 -5 -91
-21 -26 -25 -45 -68 -45 -102 -1 -26 -1 -27 -16 -7 -19 24 -13 108 9 130 59
58 168 74 233 34z"/>
<path d="M2888 6260 c-38 -11 -89 -42 -113 -67 -36 -38 -55 -63 -55 -72 0 -4
-7 -23 -16 -41 -12 -24 -15 -49 -11 -94 5 -65 44 -166 64 -166 6 0 20 -10 30
-22 35 -44 90 -63 177 -63 92 1 124 14 191 80 49 48 62 79 71 167 5 51 2 74
-10 99 -9 18 -16 36 -16 41 0 5 -6 16 -12 24 -86 103 -196 145 -300 114z m188
-35 c31 -14 50 -32 94 -84 64 -76 42 -255 -40 -324 -83 -69 -199 -83 -283 -34
-94 55 -130 118 -130 223 1 76 20 120 80 181 28 28 95 59 143 65 32 5 96 -8
136 -27z"/>
<path d="M4974 6260 c-107 -25 -194 -138 -194 -251 0 -86 18 -135 69 -188 64
-66 102 -84 191 -88 64 -4 81 -1 117 19 122 68 178 176 152 295 -15 70 -50
135 -87 160 -87 59 -160 75 -248 53z m176 -28 c63 -25 121 -102 138 -182 36
-166 -100 -313 -271 -294 -118 13 -217 120 -217 236 0 64 22 130 57 168 13 14
23 28 23 31 0 10 69 41 119 54 44 12 105 6 151 -13z"/>
<path d="M3815 5640 c-52 -8 -168 -35 -221 -51 -17 -5 -64 -9 -106 -9 -70 0
-75 -1 -86 -25 -7 -14 -12 -31 -12 -38 0 -11 86 -97 97 -97 6 0 33 -27 33 -34
0 -10 39 -46 50 -46 6 0 10 -4 10 -8 0 -14 62 -74 116 -112 124 -88 207 -114
355 -114 89 0 118 5 187 29 45 16 82 32 82 37 0 4 5 8 11 8 11 0 92 60 97 73
2 4 9 7 15 7 7 0 35 26 62 57 28 31 74 79 103 107 37 35 52 57 52 75 -1 50
-17 58 -130 63 -73 3 -123 11 -165 26 -32 12 -74 22 -91 22 -18 0 -34 4 -36 9
-1 5 -30 13 -63 16 -51 6 -63 4 -80 -12 -64 -60 -105 -64 -154 -12 -32 33 -59
39 -126 29z m80 -60 c4 -6 25 -22 47 -37 53 -32 112 -28 154 11 16 14 38 26
49 26 24 0 152 -29 180 -40 33 -14 179 -40 223 -40 23 0 42 -3 42 -7 0 -9
-147 -151 -205 -199 -23 -18 -47 -34 -54 -34 -6 0 -11 -4 -11 -8 0 -10 -63
-41 -132 -67 -39 -14 -68 -17 -160 -12 -118 5 -170 19 -238 62 -22 14 -43 25
-47 25 -5 0 -14 9 -21 20 -7 11 -16 20 -20 20 -4 0 -51 42 -104 94 -53 52
-104 99 -114 104 -31 17 -4 32 59 32 34 1 116 14 182 30 133 32 161 35 170 20z"/>
</g>
</svg>
