<?xml version="1.0" standalone="no"?>
<!DOCTYPE svg PUBLIC "-//W3C//DTD SVG 20010904//EN"
 "http://www.w3.org/TR/2001/REC-SVG-20010904/DTD/svg10.dtd">
<svg version="1.0" xmlns="http://www.w3.org/2000/svg"
 width="650.000000pt" height="756.000000pt" viewBox="0 0 650.000000 756.000000"
 preserveAspectRatio="xMidYMid meet">
<metadata>
Created by potrace 1.16, written by Peter Selinger 2001-2019
</metadata>
<g transform="translate(0.000000,756.000000) scale(0.100000,-0.100000)"
fill="#000000" stroke="none">
<path d="M2350 7420 c-187 -32 -261 -162 -247 -440 11 -236 82 -497 260 -962
14 -38 23 -68 18 -68 -4 0 -47 42 -94 93 -424 462 -734 662 -996 644 -64 -4
-91 -11 -141 -38 -71 -38 -139 -109 -178 -189 -24 -49 -27 -66 -27 -160 0 -96
2 -110 29 -160 106 -204 395 -414 812 -590 156 -67 186 -81 181 -86 -3 -3 -38
-1 -79 5 -135 19 -472 34 -623 28 -356 -14 -571 -98 -646 -255 -32 -64 -38
-190 -14 -263 42 -124 167 -204 367 -235 195 -30 596 -2 866 61 12 3 22 1 22
-4 0 -5 -10 -13 -22 -16 -84 -26 -358 -181 -482 -274 -243 -183 -350 -373
-318 -564 22 -138 95 -240 194 -273 63 -21 198 -15 278 12 81 27 253 118 345
182 116 80 324 245 401 317 12 11 47 44 78 74 31 29 59 52 61 49 2 -2 -23 -57
-56 -122 -62 -121 -146 -310 -173 -389 -56 -166 -92 -373 -83 -475 14 -142 69
-229 182 -290 42 -22 63 -27 130 -27 70 0 87 4 134 30 72 40 133 103 195 205
46 76 122 236 141 298 3 12 11 22 17 22 8 0 9 -70 5 -242 -4 -133 -7 -623 -7
-1090 0 -466 -3 -848 -7 -847 -5 0 -30 28 -58 61 -362 443 -885 784 -1455 949
-131 38 -173 47 -321 73 -243 42 -335 50 -574 51 l-230 0 -3 -49 c-2 -27 4
-72 13 -100 15 -47 103 -235 115 -246 3 -3 32 -45 65 -95 32 -49 62 -92 65
-95 3 -3 13 -15 21 -27 50 -73 368 -403 388 -403 5 0 11 -3 13 -7 3 -7 39 -40
113 -102 105 -88 369 -267 550 -373 319 -186 855 -421 1218 -533 l87 -27 0
-109 c0 -103 8 -135 30 -113 5 5 11 794 14 1754 l5 1745 26 95 c21 77 55 225
91 399 7 35 15 21 29 -58 11 -55 16 -468 25 -1993 6 -1058 13 -1929 15 -1936
3 -8 11 -12 18 -10 9 4 13 79 17 313 l5 308 125 32 c384 98 881 298 1277 516
32 17 80 43 108 58 27 14 54 29 60 34 5 4 69 42 140 85 201 121 290 181 550
372 268 197 554 453 725 650 36 41 67 77 70 80 80 80 140 224 111 268 -17 27
-390 77 -656 88 -243 10 -557 -17 -775 -67 -389 -89 -590 -166 -950 -366 -212
-118 -526 -369 -705 -564 -38 -42 -76 -77 -82 -78 -10 -1 -13 66 -13 302 0
166 -3 596 -7 956 -4 447 -3 652 4 648 6 -4 18 -35 27 -69 72 -262 190 -514
292 -626 88 -97 136 -124 228 -130 135 -8 237 48 295 163 41 83 46 247 11 399
-36 160 -160 446 -280 649 -12 21 -17 37 -11 37 6 0 47 -33 90 -73 246 -230
533 -420 725 -479 97 -30 239 -31 316 -3 66 24 163 116 198 188 29 59 32 190
6 253 -63 150 -204 275 -534 473 -57 34 -317 163 -404 200 -27 12 -47 23 -44
26 2 3 51 -4 109 -15 280 -54 599 -79 760 -60 251 29 378 93 447 225 25 46 27
60 27 170 0 109 -2 125 -26 175 -66 139 -188 205 -424 231 -136 15 -323 3
-544 -36 -79 -14 -146 -23 -149 -21 -2 3 54 34 124 69 149 74 171 86 285 157
205 128 363 279 426 408 36 73 38 81 38 177 0 91 -3 105 -30 159 -82 163 -229
248 -398 231 -216 -21 -451 -169 -752 -473 -65 -67 -121 -120 -123 -117 -3 3
25 65 56 120 35 64 111 248 148 362 82 248 89 457 22 591 -37 73 -75 110 -161
154 -56 28 -71 32 -152 32 -78 1 -98 -3 -148 -26 -156 -73 -305 -297 -417
-628 -48 -140 -42 -121 -104 -360 -24 -96 -47 -168 -49 -160 -3 8 -10 74 -16
145 -38 419 -125 717 -258 879 -106 130 -237 182 -393 156z m194 -61 c90 -33
196 -144 248 -259 101 -221 151 -459 178 -850 14 -203 16 -210 39 -210 15 0
22 12 31 53 83 358 100 427 160 612 174 538 413 764 667 634 83 -42 145 -114
169 -196 24 -81 15 -257 -19 -384 -56 -208 -198 -519 -346 -759 -106 -172
-115 -191 -99 -201 21 -14 24 -12 60 39 102 141 379 445 498 547 117 100 154
128 230 178 142 92 229 128 340 141 142 17 283 -71 358 -224 39 -80 39 -181
-2 -265 -48 -100 -160 -222 -297 -323 -172 -125 -492 -294 -762 -401 -85 -34
-160 -61 -166 -61 -6 0 -11 -11 -11 -25 0 -14 5 -25 11 -25 6 0 72 18 147 40
323 95 593 142 832 143 139 0 178 -3 250 -21 134 -35 220 -96 272 -193 19 -38
23 -59 23 -149 0 -90 -4 -111 -23 -147 -52 -98 -165 -168 -321 -197 -209 -40
-592 -10 -996 79 -221 48 -225 49 -237 37 -21 -21 1 -39 93 -77 52 -21 98 -42
104 -46 5 -5 14 -9 21 -9 22 0 332 -150 494 -238 132 -72 276 -178 373 -273
53 -53 97 -104 97 -113 0 -9 4 -16 9 -16 5 0 18 -31 30 -68 19 -58 21 -74 11
-116 -14 -65 -34 -100 -88 -158 -49 -53 -100 -81 -178 -98 -184 -41 -525 133
-869 443 -137 123 -250 235 -311 307 -62 73 -94 88 -94 46 0 -13 6 -29 14 -35
7 -6 33 -43 57 -82 24 -39 58 -93 76 -119 42 -63 146 -259 205 -386 139 -302
185 -556 125 -688 -62 -135 -213 -201 -331 -145 -95 44 -193 167 -275 344 -51
108 -140 372 -175 515 -37 152 -86 418 -86 468 0 30 -5 44 -16 49 -23 8 -30
-9 -37 -84 -10 -99 -84 -451 -129 -606 -91 -319 -211 -561 -332 -670 -111
-100 -254 -96 -355 12 -138 147 -110 413 93 880 34 78 51 112 144 281 32 58
113 185 158 247 17 23 13 53 -7 53 -6 0 -25 -17 -42 -38 -98 -115 -395 -393
-567 -529 -247 -196 -506 -323 -655 -323 -63 0 -145 38 -180 84 -33 44 -65
121 -75 185 -30 177 114 386 387 564 186 122 400 224 681 327 136 51 172 67
172 82 0 10 -6 18 -13 18 -7 0 -100 -22 -207 -49 -686 -173 -1149 -186 -1353
-40 -81 58 -126 159 -114 260 36 305 556 403 1430 269 71 -11 138 -20 148 -20
25 0 25 38 2 47 -236 82 -610 251 -775 350 -258 155 -424 325 -454 463 -15 73
8 183 51 239 142 186 291 216 525 105 227 -107 543 -383 820 -716 46 -56 71
-78 87 -78 13 0 23 6 23 14 0 8 -30 90 -66 183 -186 474 -284 837 -284 1051 0
121 45 248 103 292 70 53 204 66 301 29z m3351 -4380 c133 -11 350 -46 378
-61 13 -6 16 -16 11 -31 -7 -26 -49 -100 -67 -119 -6 -7 -32 -40 -57 -73 -71
-93 -388 -406 -485 -477 -5 -5 -28 -24 -50 -43 -43 -38 -142 -116 -264 -207
-101 -76 -500 -341 -597 -398 -435 -252 -839 -436 -1229 -563 -220 -71 -372
-113 -379 -106 -8 7 -10 404 -3 416 6 10 143 91 172 102 5 2 17 9 25 16 8 7
56 34 105 60 50 26 95 50 100 54 6 5 44 26 85 48 41 23 135 75 209 117 73 42
135 76 137 76 3 0 21 10 42 23 20 13 62 37 92 54 133 73 246 136 255 143 9 7
60 35 200 110 33 18 65 36 70 40 6 4 37 22 70 40 33 18 112 63 175 98 63 36
158 89 210 117 52 29 128 71 169 94 41 22 77 41 80 41 17 0 63 48 57 58 -12
20 -29 14 -142 -49 -60 -34 -152 -85 -204 -114 -52 -29 -115 -63 -140 -77 -25
-14 -71 -40 -104 -58 -32 -17 -81 -45 -108 -61 -27 -16 -51 -29 -53 -29 -3 0
-26 -13 -52 -28 -27 -16 -88 -51 -138 -79 -49 -28 -157 -88 -240 -135 -180
-102 -227 -128 -325 -181 -41 -22 -87 -48 -102 -59 -14 -10 -28 -18 -31 -18
-3 0 -70 -37 -148 -81 -362 -204 -462 -258 -469 -254 -5 3 -9 110 -10 239 -1
260 -7 233 80 330 150 168 350 344 539 474 282 195 553 329 851 423 411 129
807 168 1285 128z m-5171 -514 c449 -45 822 -154 1186 -347 89 -47 239 -135
250 -148 3 -3 32 -23 65 -45 121 -81 263 -204 399 -344 104 -108 99 -102 184
-203 l72 -87 0 -185 c0 -110 -4 -186 -9 -186 -6 0 -36 15 -68 34 -32 19 -77
44 -99 57 -23 13 -133 80 -245 147 -112 68 -213 129 -223 135 -11 7 -52 33
-92 60 -40 26 -75 47 -79 47 -4 0 -30 15 -58 34 -29 18 -92 59 -142 90 -49 31
-97 61 -105 66 -8 6 -58 36 -110 68 -150 92 -286 177 -410 257 -63 41 -131 84
-150 95 -44 25 -67 40 -105 65 -43 29 -93 55 -105 55 -5 0 -10 -9 -10 -19 0
-14 50 -50 188 -137 103 -64 210 -131 237 -149 28 -18 106 -67 175 -110 69
-42 141 -87 160 -100 19 -12 136 -85 260 -162 124 -77 290 -180 370 -230 80
-49 159 -98 175 -107 35 -20 72 -41 180 -106 113 -68 205 -119 238 -131 l27
-11 0 -179 c0 -98 -3 -179 -6 -179 -40 0 -523 178 -689 254 -27 13 -75 34
-105 47 -30 13 -118 56 -195 95 -659 334 -1150 734 -1440 1173 -99 151 -175
314 -175 378 l0 23 153 0 c83 0 219 -7 301 -15z"/>
<path d="M2883 5795 c-184 -50 -332 -198 -387 -387 -20 -71 -21 -215 -1 -292
45 -173 177 -318 342 -377 74 -27 242 -37 322 -19 127 28 256 116 332 226 105
153 119 405 31 577 -35 70 -152 185 -228 224 -33 18 -87 39 -119 48 -73 19
-222 19 -292 0z m272 -39 c319 -85 480 -444 327 -731 -88 -165 -263 -275 -438
-275 -190 0 -364 97 -453 253 -60 107 -74 167 -69 280 5 95 9 110 46 188 88
184 264 297 467 298 39 1 93 -5 120 -13z"/>
</g>
</svg>
