<?xml version="1.0" standalone="no"?>
<!DOCTYPE svg PUBLIC "-//W3C//DTD SVG 20010904//EN"
 "http://www.w3.org/TR/2001/REC-SVG-20010904/DTD/svg10.dtd">
<svg version="1.0" xmlns="http://www.w3.org/2000/svg"
 width="650.000000pt" height="532.000000pt" viewBox="0 0 650.000000 532.000000"
 preserveAspectRatio="xMidYMid meet">
<metadata>
Created by potrace 1.16, written by Peter Selinger 2001-2019
</metadata>
<g transform="translate(0.000000,532.000000) scale(0.100000,-0.100000)"
fill="#000000" stroke="none">
<path d="M1072 4755 c-95 -18 -156 -48 -213 -106 -56 -56 -73 -86 -89 -162
l-12 -58 -37 34 c-20 18 -59 44 -86 58 -46 22 -62 24 -195 24 -123 1 -151 4
-184 20 l-38 20 -18 -23 c-10 -12 -22 -48 -26 -80 -4 -31 -13 -74 -20 -96 -9
-25 -14 -85 -14 -169 0 -125 1 -132 31 -191 36 -71 102 -152 129 -161 29 -9
25 -17 -23 -47 -59 -37 -109 -94 -132 -148 -14 -34 -19 -80 -23 -192 -5 -163
3 -201 44 -215 13 -4 41 -31 62 -58 50 -67 124 -104 209 -105 53 0 72 6 137
40 41 22 77 40 80 40 2 0 7 -17 11 -37 3 -21 26 -67 49 -103 24 -36 46 -70 49
-76 3 -6 -1 -39 -9 -75 -9 -35 -19 -122 -23 -194 l-6 -130 -41 55 c-60 80
-108 137 -178 210 -34 36 -80 87 -102 115 -21 27 -47 59 -56 69 -10 11 -20 27
-23 37 -8 24 -34 32 -42 13 -17 -44 21 -302 53 -366 8 -15 14 -36 14 -47 0
-27 55 -192 81 -243 11 -22 34 -59 51 -82 l30 -41 -50 -3 -50 -3 -3 -267 c-2
-147 -2 -315 -1 -374 l4 -108 73 0 c72 0 75 -1 98 -33 26 -33 127 -218 227
-412 106 -206 193 -370 212 -397 10 -14 18 -31 18 -36 0 -6 8 -13 17 -16 10
-2 405 -7 878 -11 473 -4 862 -8 865 -10 3 -1 329 -6 725 -9 396 -4 1017 -11
1380 -16 509 -7 663 -6 672 3 21 22 161 286 359 674 l108 212 75 3 76 3 3 358
2 357 -22 10 c-13 5 -296 13 -653 17 l-630 8 -3 70 c-4 81 14 254 34 336 15
57 51 138 77 173 13 18 16 17 53 -24 50 -54 127 -98 234 -132 120 -39 171 -37
246 8 32 20 90 55 128 78 121 73 188 155 201 249 4 26 11 47 15 47 4 0 36 -9
70 -20 79 -25 141 -25 221 0 84 26 194 101 208 142 37 106 -20 405 -99 520
-58 83 -163 161 -243 179 -31 8 -57 17 -57 22 0 4 9 35 21 69 25 77 35 213 20
293 -16 86 -65 179 -129 244 -30 31 -61 66 -70 79 -30 46 -55 50 -217 42 -82
-4 -170 -13 -195 -20 -82 -22 -175 -76 -224 -131 l-47 -52 -62 31 c-202 100
-459 97 -666 -8 l-79 -40 -7 -119 c-4 -66 -4 -143 0 -173 14 -106 94 -223 196
-289 27 -18 49 -36 49 -40 0 -4 -19 -27 -43 -51 -90 -90 -118 -165 -127 -338
-5 -74 -11 -147 -15 -162 -6 -24 -2 -29 52 -63 32 -21 74 -52 94 -70 55 -49
139 -78 242 -83 48 -2 87 -6 87 -8 0 -2 -15 -27 -34 -56 -74 -118 -134 -281
-136 -370 0 -16 -3 -28 -6 -28 -3 0 -45 36 -92 79 -48 44 -125 108 -172 142
-156 114 -244 218 -264 312 -15 66 -46 9 -70 -129 -29 -162 -19 -246 45 -377
28 -58 53 -95 100 -149 27 -29 161 -143 187 -157 9 -5 14 -13 10 -16 -4 -4
-224 -4 -488 0 l-481 8 33 31 c18 17 51 54 73 81 22 28 43 52 46 55 12 9 58
104 98 200 57 135 92 276 98 397 10 188 -15 221 -81 109 -26 -46 -75 -101
-167 -187 -94 -88 -141 -141 -171 -191 -22 -38 -44 -71 -49 -74 -15 -9 -10
228 5 309 28 147 68 204 134 191 28 -6 126 25 172 55 171 109 349 349 419 566
11 33 29 87 42 120 18 50 22 82 23 190 1 87 -4 143 -13 169 l-13 39 -64 -7
c-75 -8 -137 -32 -216 -87 -32 -21 -60 -39 -62 -39 -2 0 -10 17 -17 38 -20 61
-109 233 -143 275 -42 53 -66 61 -118 38 -84 -36 -160 -115 -207 -215 -12 -27
-26 -45 -30 -40 -4 5 -27 34 -52 64 -57 71 -89 100 -172 156 l-69 46 -38 -37
c-43 -42 -93 -144 -122 -249 -15 -51 -21 -111 -24 -211 -3 -137 -4 -140 -25
-137 -56 9 -106 -18 -177 -97 -39 -43 -84 -99 -100 -125 l-30 -47 -7 58 c-17
147 -88 370 -115 366 -57 -9 -103 -23 -119 -37 -9 -9 -28 -16 -40 -16 -26 0
-71 -28 -71 -44 0 -8 -11 -11 -31 -8 -23 3 -37 -2 -59 -23 -25 -24 -30 -26
-36 -12 -3 9 -28 29 -55 44 -27 14 -49 29 -49 34 0 4 -21 30 -46 59 -74 81
-206 140 -316 140 -53 0 -72 10 -49 24 5 3 17 38 26 77 38 153 -19 275 -175
373 -25 16 -54 42 -65 60 -24 37 -54 41 -163 21z m154 -133 c11 -9 41 -35 68
-56 61 -49 102 -113 116 -180 9 -44 8 -62 -10 -119 -19 -62 -27 -72 -80 -114
-32 -25 -61 -52 -64 -60 -8 -19 -106 -8 -123 14 -12 15 -37 15 -90 -2 -17 -6
-23 -3 -23 9 0 18 -26 21 -64 6 -40 -15 -56 -2 -88 69 -67 146 -40 318 62 402
61 50 98 67 160 75 30 3 62 10 70 14 10 6 20 1 31 -16 8 -13 24 -32 35 -42z
m4528 -93 c1 -2 32 -38 69 -80 36 -42 77 -99 91 -128 36 -70 45 -181 22 -271
-19 -76 -72 -189 -92 -197 -15 -6 -74 51 -74 71 0 19 -22 36 -48 36 -15 0 -26
7 -29 20 -4 15 -14 20 -38 20 -21 0 -35 6 -39 16 -4 10 -13 13 -26 9 -14 -4
-22 -1 -26 10 -5 13 -14 15 -39 11 -25 -5 -34 -3 -39 10 -6 16 -20 16 -83 -2
-17 -5 -23 -2 -23 10 0 13 -7 15 -38 10 l-39 -6 -6 61 c-4 39 -20 89 -43 137
-41 86 -40 93 22 156 33 34 131 92 183 109 25 7 288 6 295 -2z m-2195 -60 c44
-60 83 -148 131 -296 32 -99 41 -115 55 -93 3 6 15 10 26 10 10 0 31 14 46 31
38 43 117 99 185 132 31 15 60 27 63 27 15 0 -7 -182 -35 -300 -48 -200 -147
-423 -222 -505 -15 -16 -28 -36 -28 -42 0 -7 -12 -19 -27 -27 -16 -8 -52 -37
-82 -64 -112 -103 -278 -134 -386 -72 -29 17 -58 37 -65 45 -7 8 -17 15 -22
15 -6 0 -25 12 -43 28 -114 96 -140 119 -162 153 -23 35 -24 40 -9 54 25 25
20 38 -29 81 -25 21 -45 47 -45 57 0 10 -12 29 -26 42 -34 31 -48 125 -39 270
10 164 60 384 98 433 8 10 44 -22 153 -133 113 -115 148 -146 166 -143 17 2
33 23 63 83 22 44 49 94 59 110 20 32 126 142 138 144 5 0 21 -17 37 -40z
m-2934 -17 c83 -35 120 -84 146 -190 11 -42 31 -94 44 -114 14 -21 25 -40 25
-42 0 -8 -63 -36 -80 -36 -10 0 -25 -12 -35 -26 -12 -18 -23 -24 -37 -21 -15
4 -27 -5 -51 -39 -17 -24 -35 -44 -39 -44 -5 0 -13 -11 -18 -24 -7 -20 -18
-26 -62 -31 -53 -6 -132 6 -172 27 -33 18 -83 77 -107 126 -32 69 -37 174 -11
258 12 38 24 89 27 114 4 25 8 50 10 55 1 6 62 9 161 7 124 -2 168 -6 199 -20z
m4320 -61 c146 -57 235 -146 266 -263 12 -45 12 -47 -19 -82 -18 -20 -32 -41
-32 -47 0 -15 31 -23 40 -10 6 10 11 10 27 1 16 -10 26 -9 61 9 50 25 62 26
62 5 0 -17 28 -16 73 1 12 5 17 2 17 -9 0 -11 9 -16 30 -16 17 0 30 -5 30 -11
0 -7 12 -9 34 -5 20 4 37 2 41 -4 3 -5 14 -10 23 -10 10 0 25 -9 35 -20 9 -11
24 -20 32 -20 8 0 15 -6 15 -14 0 -8 9 -18 20 -21 11 -4 27 -19 35 -34 8 -16
21 -31 30 -34 8 -4 15 -15 15 -26 0 -11 8 -24 17 -30 10 -5 18 -23 19 -41 1
-18 6 -35 12 -39 5 -3 12 -16 16 -28 5 -16 2 -22 -10 -25 -10 -2 -19 -12 -20
-23 -11 -71 -17 -85 -35 -85 -12 0 -25 -14 -37 -37 -14 -31 -23 -38 -46 -38
-16 0 -31 -6 -33 -12 -3 -7 -17 -13 -32 -13 -14 0 -37 -7 -49 -16 -21 -15 -25
-15 -41 0 -14 12 -31 14 -84 9 -51 -4 -67 -3 -67 7 0 8 -9 11 -29 7 -20 -4
-33 -1 -42 9 -8 10 -22 14 -40 10 -21 -4 -28 -1 -32 15 -3 11 -15 23 -26 26
-12 3 -21 12 -21 20 0 8 -15 20 -34 28 -19 8 -37 23 -41 34 -3 10 -12 22 -20
25 -8 3 -15 16 -15 30 0 14 -6 31 -12 38 -49 53 -53 59 -38 68 13 8 13 16 -3
58 -21 61 -21 59 4 65 14 4 20 11 16 21 -3 8 -2 18 3 21 6 4 10 17 10 31 0 17
5 24 20 24 13 0 25 14 40 47 11 25 18 48 16 51 -11 11 -94 -33 -123 -65 -25
-27 -33 -45 -33 -74 0 -21 -6 -41 -12 -46 -7 -4 -69 -11 -138 -15 -69 -4 -136
-9 -150 -13 -20 -5 -40 5 -100 50 -99 75 -125 100 -162 159 -31 47 -32 52 -36
186 l-4 137 70 22 c126 41 183 50 297 47 96 -3 120 -7 190 -35z m-3329 -282
c46 -17 75 -40 144 -108 47 -48 101 -93 118 -100 l32 -13 0 -78 c0 -43 -3 -91
-6 -108 l-6 -30 -63 5 c-36 3 -65 1 -68 -4 -4 -6 -1 -24 5 -41 11 -28 10 -34
-10 -55 -13 -14 -22 -36 -22 -55 0 -39 -27 -58 -108 -77 -66 -16 -116 -7 -207
36 -27 13 -51 24 -53 25 -1 0 1 15 4 32 4 18 14 32 25 35 16 4 19 13 17 43 -1
23 3 39 10 42 8 2 12 28 12 73 0 55 -5 79 -24 112 -46 82 -89 139 -122 160
-19 12 -34 24 -34 27 1 9 51 42 108 71 73 37 163 40 248 8z m-591 -39 c3 -11
14 -20 22 -20 21 0 141 -48 159 -63 88 -74 122 -117 138 -169 16 -57 19 -161
5 -188 -4 -8 -10 -23 -13 -33 -3 -10 -13 -17 -23 -15 -12 2 -19 -4 -21 -19 -2
-14 -10 -23 -20 -23 -9 0 -26 -16 -37 -36 -19 -34 -23 -36 -80 -40 -94 -6
-208 -20 -227 -28 -11 -5 -18 -4 -18 2 0 6 -26 25 -57 43 -32 18 -81 56 -110
85 -28 29 -63 60 -77 69 -18 12 -26 26 -26 46 0 17 -6 32 -14 35 -10 4 -13 12
-7 27 4 12 7 39 5 60 -1 28 3 40 17 48 12 6 19 20 19 40 0 16 7 46 15 66 11
27 18 33 28 25 16 -14 82 0 106 22 10 9 22 16 28 16 5 0 20 11 33 25 18 19 31
24 50 21 14 -3 39 1 55 9 40 18 43 18 50 -5z m1276 -107 c22 -57 47 -212 53
-324 l7 -117 -42 -4 c-38 -3 -42 -1 -60 32 -51 92 -75 123 -188 250 -45 50
-46 52 -30 82 8 15 17 18 35 14 19 -5 31 0 50 21 18 20 33 27 54 25 21 -3 33
3 47 22 25 35 60 34 74 -1z m422 -132 c4 -18 14 -32 27 -36 11 -4 27 -22 34
-40 10 -22 22 -35 38 -37 19 -2 24 -10 26 -41 3 -30 9 -40 28 -47 26 -10 32
-41 11 -59 -8 -6 -31 -17 -53 -25 -21 -7 -91 -39 -154 -70 -63 -31 -118 -56
-122 -56 -3 0 -9 13 -13 30 -7 32 -38 60 -67 60 -29 0 -30 18 -5 52 14 18 32
47 41 65 19 37 106 154 149 201 38 40 53 40 60 3z m-2151 -68 c1 -38 1 -78 0
-90 0 -13 12 -36 29 -52 16 -16 29 -39 29 -50 0 -11 8 -26 19 -33 10 -7 21
-23 25 -35 4 -13 18 -24 37 -28 17 -4 33 -13 36 -21 3 -8 -14 -45 -37 -82 -24
-37 -54 -84 -67 -105 -28 -45 -74 -67 -138 -67 -56 0 -97 17 -184 74 -43 29
-82 47 -113 51 -46 7 -59 17 -38 30 6 3 10 48 10 99 0 142 42 248 120 300 36
24 195 72 248 75 21 1 22 -3 24 -66z m5472 -7 c81 -42 165 -124 200 -194 42
-82 87 -230 93 -303 l6 -66 -57 -43 c-93 -68 -137 -83 -225 -78 -63 4 -85 11
-130 37 -71 42 -77 49 -95 111 -9 29 -29 77 -46 106 -29 52 -29 54 -12 83 11
21 22 29 34 25 13 -4 20 5 29 38 7 24 18 50 24 58 25 33 37 95 27 135 -6 22
-12 56 -14 75 -3 29 1 35 22 41 49 14 80 8 144 -25z m-4018 -3 c36 -39 144
-183 144 -194 0 -5 -24 4 -52 19 -29 16 -75 37 -102 47 -47 18 -48 19 -42 54
3 20 6 51 6 69 0 39 11 40 46 5z m2958 -9 c14 -5 15 -9 5 -15 -11 -6 -8 -18
11 -56 13 -26 24 -55 23 -62 -1 -8 8 -27 20 -43 12 -15 36 -45 52 -66 17 -22
47 -51 68 -66 20 -15 37 -32 37 -37 0 -22 -125 -173 -178 -215 -32 -25 -86
-60 -122 -77 -55 -27 -77 -32 -140 -32 -64 0 -84 5 -132 30 -31 17 -87 46
-123 65 l-67 35 6 40 c3 22 10 76 15 120 13 126 39 191 109 273 45 54 115 97
182 113 38 9 205 4 234 -7z m-2980 -200 c78 -31 151 -62 163 -70 12 -8 29 -14
38 -14 19 0 19 -10 -1 -38 -10 -15 -14 -38 -12 -65 3 -47 10 -45 -97 -27 -33
5 -108 10 -166 10 l-106 0 -6 36 c-4 21 -1 44 6 55 10 16 9 25 -6 52 l-19 32
28 21 c19 16 25 28 21 43 -3 12 0 21 6 21 6 0 74 -25 151 -56z m930 -102 c55
-91 167 -187 284 -243 23 -11 42 -22 42 -25 0 -3 -8 -18 -18 -32 -77 -114
-118 -329 -94 -490 5 -34 5 -61 1 -60 -10 4 -119 147 -119 157 0 5 -6 14 -14
20 -18 15 -116 217 -116 240 0 9 11 24 25 31 37 20 31 47 -24 98 -44 43 -49
53 -60 117 -7 39 -15 78 -18 88 -8 29 -46 17 -65 -21 -9 -19 -19 -36 -22 -39
-2 -3 -32 12 -66 32 -34 20 -60 39 -58 40 5 5 273 143 280 144 4 1 22 -25 42
-57z m-466 22 c7 -2 17 -16 23 -31 6 -15 15 -36 21 -46 13 -26 -1 -107 -25
-138 -23 -33 -79 -44 -116 -25 -14 8 -38 19 -53 25 -16 6 -28 17 -28 25 0 7
-7 19 -15 26 -28 23 -14 138 20 162 5 4 24 8 40 8 17 0 36 4 44 9 7 5 27 4 45
-2 17 -5 37 -11 44 -13z m-1111 -22 c12 -20 39 -70 59 -110 36 -71 36 -74 32
-165 -6 -137 -48 -206 -169 -282 -44 -29 -64 -31 -85 -11 -8 8 -40 22 -72 30
-206 56 -281 103 -358 226 -23 37 -28 57 -28 110 -1 58 3 72 33 118 29 46 37
52 67 52 19 0 51 -7 71 -15 46 -19 187 -20 241 -1 22 8 50 12 61 9 15 -4 27 2
41 20 12 15 27 24 35 21 7 -3 18 4 25 15 15 29 22 27 47 -17z m270 -57 c114 0
131 -7 112 -48 -22 -49 -8 -59 73 -51 67 5 335 -10 346 -20 2 -3 -31 -40 -73
-83 -89 -90 -195 -225 -195 -247 0 -12 11 -16 50 -16 28 0 50 -4 50 -9 0 -19
53 -71 72 -71 11 0 31 -9 44 -19 14 -11 33 -17 45 -14 12 4 29 -3 44 -17 13
-13 32 -20 46 -18 20 2 27 17 52 96 18 57 33 90 39 84 26 -26 33 -632 7 -632
-11 0 -69 57 -69 68 0 4 -10 18 -23 32 -12 14 -53 72 -91 129 -193 290 -240
326 -211 166 17 -95 79 -239 122 -283 7 -7 13 -17 13 -21 0 -3 27 -36 60 -71
33 -36 60 -68 60 -71 0 -9 -913 1 -923 10 -4 4 1 17 10 28 45 53 53 64 53 69
0 3 11 20 24 37 33 44 74 129 96 196 21 66 35 230 21 250 -11 18 -23 12 -212
-110 -163 -105 -201 -136 -255 -206 -20 -26 -39 -47 -42 -46 -13 4 -32 123
-38 235 -6 102 -5 118 9 124 28 10 166 -17 210 -42 85 -48 134 -31 264 91 86
81 117 165 111 294 -4 82 -8 95 -56 195 -3 5 7 5 24 0 16 -5 75 -9 131 -9z
m3808 -43 c39 -2 109 -4 158 -4 81 -1 87 -3 87 -22 0 -12 22 -66 50 -121 53
-107 60 -146 37 -221 -24 -81 -68 -124 -202 -200 -27 -15 -64 -38 -81 -51 -38
-28 -54 -29 -101 -3 -21 11 -43 20 -50 20 -30 0 -127 52 -168 91 -78 73 -104
163 -71 242 7 18 35 55 61 83 49 52 113 141 132 186 11 25 14 26 45 16 18 -7
65 -14 103 -16z m-2786 -89 c42 -25 83 -53 92 -62 9 -9 33 -29 54 -46 67 -52
70 -58 46 -67 -14 -5 -21 -16 -21 -33 0 -17 -5 -25 -18 -25 -25 0 -42 -19 -42
-47 0 -19 -5 -23 -28 -23 -16 0 -37 -6 -47 -14 -18 -13 -23 -9 -67 58 -26 39
-63 88 -82 108 -20 20 -36 42 -36 48 0 5 -5 10 -11 10 -6 0 8 23 30 51 23 29
41 60 41 70 0 11 3 19 7 19 3 0 40 -21 82 -47z m-393 -58 c16 -8 36 -15 45
-15 29 0 28 -12 -5 -79 -18 -36 -44 -99 -56 -138 l-23 -73 -38 0 c-21 0 -41 5
-44 11 -4 6 -21 9 -38 7 -30 -3 -32 0 -35 30 -3 24 -10 35 -28 43 l-25 9 53
57 c52 56 160 163 164 163 1 0 15 -7 30 -15z m1094 -52 c0 -8 -8 -27 -19 -41
-22 -31 -35 -90 -56 -262 -14 -106 -15 -146 -5 -263 7 -76 9 -141 6 -144 -25
-25 -56 117 -63 284 -7 172 11 294 63 419 11 27 17 30 43 26 19 -2 31 -10 31
-19z m-932 -90 c34 -161 52 -369 53 -596 0 -178 -5 -201 -45 -195 -17 2 -21 9
-19 33 2 17 7 84 13 150 6 78 6 173 0 270 -9 141 -34 343 -45 353 -6 6 14 42
23 42 4 0 13 -26 20 -57z m102 -34 c0 -7 8 -19 18 -28 9 -9 22 -23 27 -32 6
-9 32 -48 58 -86 29 -42 54 -94 63 -128 21 -78 46 -130 94 -190 22 -27 57 -75
79 -105 41 -57 68 -89 127 -152 l36 -38 -49 -1 c-100 -2 -448 3 -453 6 -3 2 0
50 8 107 24 179 10 447 -32 641 -3 10 2 17 10 17 8 0 14 -5 14 -11z m2472 -71
c3 -62 3 -63 -40 -107 -49 -50 -64 -81 -99 -211 -27 -104 -34 -228 -19 -339
11 -80 -5 -76 -24 6 -7 32 -22 75 -32 95 -23 48 -23 66 7 190 32 137 56 211
95 290 32 67 84 138 100 138 4 0 10 -28 12 -62z m-1268 15 c-35 -143 -109
-345 -160 -435 -19 -33 -75 -107 -126 -165 l-93 -106 -3 71 c-7 160 68 323
229 502 157 175 165 182 153 133z m-876 -26 c6 -7 34 -58 63 -112 29 -55 65
-116 80 -136 16 -20 29 -41 29 -45 0 -5 13 -24 28 -43 15 -19 47 -59 72 -90
25 -31 58 -74 73 -97 15 -22 37 -51 48 -63 29 -31 48 -71 42 -87 -6 -17 -143
-20 -173 -4 -19 10 -222 244 -229 263 -2 7 -16 28 -31 47 -61 80 -143 258
-133 288 3 6 21 12 42 12 44 0 61 14 61 52 0 30 11 36 28 15z m-2467 -50 c17
-23 45 -58 62 -77 18 -20 41 -49 53 -65 11 -17 38 -55 59 -85 21 -30 43 -60
49 -66 6 -7 34 -48 61 -93 28 -45 71 -109 98 -142 26 -34 47 -65 47 -70 0 -5
-40 -9 -90 -9 l-90 0 -51 77 c-89 134 -196 366 -235 508 -24 89 -15 94 37 22z
m3851 -61 c26 -27 154 -129 209 -167 64 -43 189 -161 242 -228 46 -59 104
-181 91 -193 -2 -3 -59 -3 -127 0 l-122 5 -55 42 c-128 99 -246 252 -281 365
-21 69 -44 244 -34 261 4 5 17 -7 31 -26 13 -20 34 -46 46 -59z m-3369 74 c9
0 12 -44 12 -157 0 -154 7 -210 41 -320 16 -52 13 -143 -5 -143 -5 0 -22 48
-40 108 -38 130 -67 415 -52 516 0 4 8 5 17 2 9 -3 21 -6 27 -6z m572 -131
c-16 -50 -105 -230 -136 -275 -70 -101 -163 -214 -180 -219 -10 -4 -39 -3 -64
1 -52 7 -52 5 -8 104 22 50 51 99 93 155 19 25 97 100 134 128 15 12 56 45 90
74 67 57 81 63 71 32z m820 -564 c132 -3 510 -7 840 -10 330 -3 868 -10 1195
-15 327 -5 872 -12 1210 -16 381 -4 620 -10 628 -17 9 -7 12 -80 12 -304 l0
-295 -902 6 c-888 5 -1403 11 -2513 25 -308 4 -938 9 -1400 10 -462 1 -842 5
-845 8 -3 2 -4 140 -2 306 3 216 7 304 15 310 12 8 1264 2 1762 -8z m735 -690
c124 -2 479 -7 790 -10 1369 -13 1582 -15 1873 -21 169 -4 307 -9 307 -11 0
-3 -32 -67 -72 -142 -148 -281 -179 -340 -267 -506 l-90 -170 -598 2 c-329 2
-787 5 -1018 8 -231 3 -958 10 -1615 16 -782 7 -1199 15 -1208 21 -7 6 -32 47
-56 92 -23 44 -62 117 -86 161 -23 44 -56 105 -73 135 -17 30 -54 100 -82 155
-29 55 -73 139 -99 186 -25 48 -46 89 -46 93 0 7 1921 0 2340 -9z"/>
</g>
</svg>
