<?xml version="1.0" standalone="no"?>
<!DOCTYPE svg PUBLIC "-//W3C//DTD SVG 20010904//EN"
 "http://www.w3.org/TR/2001/REC-SVG-20010904/DTD/svg10.dtd">
<svg version="1.0" xmlns="http://www.w3.org/2000/svg"
 width="800.000000pt" height="932.000000pt" viewBox="0 0 800.000000 932.000000"
 preserveAspectRatio="xMidYMid meet">
<metadata>
Created by potrace 1.16, written by Peter Selinger 2001-2019
</metadata>
<g transform="translate(0.000000,932.000000) scale(0.100000,-0.100000)"
fill="#000000" stroke="none">
<path d="M3808 9305 c-21 -8 -50 -27 -66 -43 -27 -28 -82 -139 -82 -167 0 -7
-4 -15 -8 -17 -5 -1 -16 -59 -25 -128 -24 -175 -37 -248 -54 -300 -8 -25 -17
-57 -20 -73 -3 -15 -10 -30 -15 -33 -10 -6 -48 23 -48 37 0 7 -40 55 -97 116
-18 19 -33 41 -33 48 0 7 -3 15 -7 17 -12 5 -47 58 -73 107 -15 30 -24 70 -28
123 -4 69 -3 80 14 93 30 23 90 18 133 -11 34 -22 121 -124 121 -140 0 -12 42
-64 51 -64 24 0 -7 100 -41 130 -3 3 -18 22 -33 43 -45 60 -112 97 -175 97
-47 0 -57 -4 -87 -34 -19 -18 -35 -38 -35 -45 0 -6 -4 -19 -10 -29 -5 -9 -18
-55 -30 -102 -11 -47 -25 -86 -30 -88 -6 -2 -10 -9 -10 -16 0 -7 -15 -44 -34
-82 -18 -38 -43 -91 -56 -119 -29 -64 -27 -63 -53 -35 -12 14 -31 31 -42 38
-38 24 -150 73 -180 79 -16 4 -32 9 -35 12 -3 3 -25 19 -50 36 -50 32 -69 52
-106 108 -14 22 -32 37 -44 37 -51 0 -54 -105 -6 -241 19 -53 41 -134 50 -180
24 -121 44 -289 35 -289 -5 0 -18 11 -31 23 -38 39 -85 67 -111 67 -35 0 -57
-10 -57 -25 0 -7 -7 -15 -15 -19 -8 -3 -15 -12 -15 -20 0 -8 -4 -16 -9 -18
-11 -4 -61 -85 -61 -98 0 -6 -13 -31 -30 -55 -16 -24 -30 -47 -30 -52 0 -5 -9
-15 -20 -23 -11 -8 -20 -18 -20 -22 0 -3 -14 -28 -30 -55 -61 -98 -96 -309
-88 -530 2 -68 2 -120 -1 -115 -27 35 -173 110 -337 172 -124 47 -203 58 -451
62 -236 4 -227 9 -219 -131 6 -94 42 -263 58 -269 4 -2 8 -10 8 -18 0 -25 40
-94 54 -94 7 0 19 6 25 14 9 11 3 40 -28 133 -44 133 -66 286 -45 304 9 7 37
7 90 -1 43 -5 91 -8 109 -4 73 13 339 -26 380 -56 6 -4 39 -17 75 -29 36 -12
80 -31 98 -42 18 -10 37 -19 42 -19 29 0 200 -145 200 -170 0 -14 14 -27 60
-59 19 -13 49 -41 65 -62 17 -22 36 -46 44 -55 25 -28 2 -27 -61 3 -35 16 -78
36 -95 43 -18 7 -33 15 -33 19 0 6 -10 11 -102 50 -27 11 -48 24 -48 30 0 5
-10 12 -22 15 -13 3 -56 31 -96 61 -40 30 -86 62 -102 70 -16 8 -40 26 -54 40
-14 14 -36 25 -50 25 -45 0 -126 -21 -126 -33 0 -16 -121 -104 -153 -112 -37
-10 -45 -24 -49 -85 -3 -51 -5 -56 -37 -72 -19 -10 -39 -25 -45 -35 -5 -10
-12 -20 -15 -23 -3 -3 -19 -24 -35 -48 -25 -37 -28 -48 -23 -91 5 -45 -5 -76
-32 -101 -36 -32 -52 -146 -27 -184 18 -28 22 -81 6 -91 -14 -9 -12 -71 3 -97
6 -11 22 -32 35 -46 17 -19 22 -37 22 -79 0 -67 26 -126 80 -184 29 -32 40
-52 40 -75 0 -17 6 -42 13 -55 21 -40 115 -124 144 -129 15 -3 32 -15 39 -28
25 -51 119 -98 153 -77 6 3 19 -3 31 -15 13 -13 33 -20 60 -20 29 0 43 -5 52
-20 21 -33 61 -26 94 18 15 20 32 39 36 40 4 2 8 10 8 17 0 21 129 145 150
145 6 0 10 5 10 10 0 6 5 10 11 10 6 0 34 15 62 34 29 18 75 46 102 61 28 15
56 32 63 37 7 6 14 9 17 6 2 -2 9 -53 15 -113 5 -60 14 -113 20 -119 5 -5 10
-24 10 -41 0 -17 12 -65 26 -105 l25 -73 -17 -76 c-11 -51 -24 -83 -39 -96
-83 -75 -108 -95 -121 -95 -8 0 -14 -3 -14 -8 0 -20 -268 -87 -386 -96 -88 -7
-93 -6 -108 16 -9 12 -16 33 -16 46 0 29 -30 154 -41 167 -9 12 -36 133 -44
198 -8 62 -36 66 -55 7 -15 -46 -3 -139 31 -242 10 -32 23 -86 28 -120 10 -71
27 -109 62 -139 22 -19 32 -20 144 -14 85 4 145 13 205 31 163 49 214 73 270
123 115 105 122 113 127 170 7 73 10 77 38 45 14 -16 25 -33 25 -39 3 -50 247
-251 341 -280 13 -4 40 -16 61 -27 36 -21 36 -21 48 -117 9 -72 9 -141 1 -276
-15 -236 -27 -315 -55 -337 -11 -10 -26 -22 -32 -26 -5 -5 -20 -15 -33 -21
-19 -11 -25 -10 -37 6 -7 10 -14 25 -14 34 0 20 -68 99 -85 99 -14 0 -20 40
-30 210 -6 90 -15 139 -35 185 -5 11 -16 41 -26 67 -9 26 -23 53 -30 59 -8 6
-14 16 -14 21 0 21 -31 38 -99 53 -66 16 -72 15 -100 -1 -33 -19 -73 -101 -91
-186 -5 -26 -18 -71 -29 -100 -29 -82 -50 -176 -57 -260 -3 -43 -10 -80 -15
-84 -5 -3 -9 -2 -9 3 -2 63 -23 138 -56 193 -42 73 -120 178 -146 198 -9 7
-24 19 -32 27 -8 8 -17 15 -20 15 -3 0 -27 15 -53 34 -69 49 -162 94 -221 107
-29 6 -52 15 -52 21 0 6 -11 19 -25 30 -14 11 -25 23 -25 28 0 4 -23 32 -51
61 -28 30 -73 83 -100 119 -27 36 -53 70 -59 77 -5 7 -10 15 -10 19 0 3 -10
19 -22 34 -13 15 -34 42 -48 60 -31 40 -142 151 -207 205 -26 22 -87 78 -136
125 -125 119 -126 120 -135 120 -4 0 -26 18 -50 40 -23 22 -47 40 -52 40 -6 0
-10 5 -10 10 0 6 -6 10 -14 10 -8 0 -16 3 -18 8 -8 19 -98 71 -147 85 -68 20
-91 10 -91 -36 0 -18 4 -37 8 -43 5 -5 24 -49 42 -99 39 -106 65 -160 90 -188
10 -10 33 -48 51 -83 18 -36 51 -88 72 -116 37 -48 49 -67 101 -161 11 -21 26
-46 31 -55 16 -28 69 -97 77 -100 5 -2 8 -10 8 -18 0 -8 5 -14 10 -14 6 0 10
-5 10 -11 0 -6 18 -38 41 -71 22 -33 52 -81 66 -106 14 -26 37 -60 50 -76 14
-16 47 -75 75 -130 28 -56 63 -119 78 -141 15 -22 42 -70 59 -107 18 -37 39
-72 47 -79 13 -11 20 -39 9 -39 -3 0 -17 8 -31 17 -16 10 -54 18 -102 21 -76
4 -78 3 -116 -30 -38 -33 -39 -36 -43 -114 -6 -108 15 -153 118 -254 l78 -77
-6 -55 c-5 -47 -2 -63 18 -99 13 -24 28 -47 34 -51 6 -5 6 -11 0 -17 -7 -7
-41 -7 -100 -1 -200 21 -268 8 -280 -56 -7 -40 21 -100 71 -149 50 -49 135
-119 158 -130 11 -5 23 -12 26 -16 7 -8 151 -72 231 -102 86 -33 260 -68 373
-76 75 -5 91 -9 100 -26 6 -11 13 -22 16 -25 3 -3 16 -27 30 -55 22 -45 48
-80 89 -122 26 -26 2 -25 -81 6 -96 35 -163 39 -269 17 -110 -23 -169 -70
-169 -133 0 -41 -1 -39 149 -183 20 -19 71 -53 115 -75 81 -41 101 -61 73 -77
-19 -10 -67 -88 -67 -107 0 -7 13 -41 30 -76 26 -53 39 -68 97 -107 97 -63
118 -70 217 -66 47 2 86 -1 86 -5 0 -5 -12 -34 -26 -65 -14 -31 -35 -96 -46
-144 -11 -48 -25 -88 -29 -88 -5 0 -9 4 -9 8 0 16 -74 102 -88 102 -4 0 -23
14 -42 31 -19 17 -51 43 -70 58 -35 26 -73 57 -94 76 -32 29 -95 75 -103 75
-5 0 -29 19 -54 43 -83 81 -149 129 -241 175 -108 55 -142 60 -146 21 -2 -21
6 -33 40 -60 24 -18 45 -36 48 -39 3 -3 32 -27 65 -55 83 -69 118 -100 198
-175 106 -99 128 -121 179 -180 26 -30 56 -66 67 -79 12 -13 21 -28 21 -33 0
-5 11 -19 25 -32 14 -13 25 -27 25 -32 0 -5 8 -17 17 -25 36 -32 93 -98 93
-109 0 -5 5 -10 10 -10 6 0 10 -7 10 -15 0 -21 34 -85 58 -111 21 -22 52 -77
52 -92 0 -5 20 -45 45 -88 25 -44 45 -82 45 -86 0 -16 -29 -7 -34 10 -4 10
-20 34 -37 53 -17 19 -50 57 -72 84 -23 28 -62 68 -86 90 -24 22 -82 78 -130
125 -47 47 -112 105 -143 129 -31 23 -58 46 -60 49 -2 4 -22 17 -45 30 -55 30
-93 22 -93 -18 0 -16 5 -32 10 -35 6 -3 10 -15 10 -25 0 -10 3 -20 8 -22 4 -2
18 -19 32 -39 31 -46 97 -119 107 -119 10 -1 73 -86 73 -99 0 -5 4 -11 8 -13
14 -5 67 -89 118 -186 27 -51 57 -107 66 -125 39 -73 60 -195 56 -321 -2 -101
-1 -120 13 -129 9 -6 24 -7 33 -4 30 12 38 57 33 182 -6 137 -40 273 -85 340
-14 22 -42 72 -62 110 -32 64 -74 132 -90 145 -3 3 -19 26 -35 52 -17 26 -56
71 -89 100 -60 55 -104 108 -89 108 5 0 18 -8 29 -18 10 -10 35 -29 54 -42 19
-14 46 -38 60 -55 24 -28 44 -48 166 -162 28 -27 71 -73 95 -103 25 -30 54
-66 66 -80 12 -14 31 -36 43 -50 12 -14 29 -38 37 -55 9 -16 28 -46 43 -65 15
-19 38 -55 50 -80 12 -25 25 -47 29 -50 3 -3 15 -23 26 -45 25 -48 60 -59 67
-22 7 36 -38 201 -76 282 -18 39 -39 86 -46 105 -8 19 -26 55 -41 80 -14 25
-34 66 -44 92 -10 27 -22 48 -26 48 -5 0 -9 4 -9 10 0 5 -16 31 -36 56 -19 26
-38 60 -41 75 -3 16 -12 34 -19 40 -8 6 -14 15 -14 19 0 5 -26 35 -57 68 -32
32 -71 78 -88 103 -26 39 -108 140 -142 177 -44 47 36 0 87 -50 21 -21 41 -38
44 -38 8 0 28 -15 68 -53 16 -15 50 -41 74 -58 44 -30 44 -30 44 -90 0 -32 4
-67 9 -77 5 -9 17 -37 27 -61 25 -59 75 -92 146 -94 43 -2 53 -5 56 -21 2 -11
9 -25 16 -32 31 -36 39 -49 65 -102 16 -31 36 -79 46 -107 10 -27 21 -54 25
-60 8 -12 25 -72 43 -150 9 -38 19 -60 28 -60 33 0 19 120 -33 265 -48 135
-86 220 -100 220 -5 0 -8 6 -8 14 0 7 -7 19 -15 26 -27 22 -15 44 51 92 l64
47 15 -36 c8 -19 15 -38 15 -42 0 -4 9 -24 20 -45 10 -21 22 -59 26 -85 4 -25
10 -50 14 -56 9 -12 22 -68 55 -235 35 -178 47 -260 54 -379 5 -81 10 -106 23
-114 12 -8 21 -7 32 2 13 11 16 35 16 118 0 57 -5 114 -11 125 -7 14 -8 23 -1
30 7 7 13 -1 17 -24 7 -35 70 -108 94 -108 6 0 11 -4 11 -9 0 -5 13 -11 28
-14 15 -3 34 -16 41 -29 8 -16 28 -28 55 -36 24 -6 67 -29 97 -52 30 -22 75
-47 100 -54 26 -8 84 -33 130 -57 46 -23 94 -47 106 -52 33 -15 214 -1 308 23
113 29 165 50 205 80 59 45 58 45 70 -17 12 -55 63 -165 81 -171 4 -2 32 -26
61 -53 29 -27 65 -55 80 -62 16 -6 28 -14 28 -17 0 -3 29 -17 65 -30 36 -13
65 -28 65 -32 0 -4 8 -8 17 -8 9 0 30 -4 47 -9 17 -5 56 -16 86 -25 92 -27
410 -23 410 5 0 5 11 9 25 9 14 0 25 3 25 8 0 4 9 13 20 19 17 11 24 8 57 -22
21 -19 63 -47 93 -62 30 -15 57 -31 60 -35 3 -4 41 -24 85 -45 96 -45 158 -52
525 -58 215 -3 231 -2 190 11 -35 11 -56 12 -100 3 -70 -13 -266 9 -298 34 -7
5 -61 13 -121 17 -100 7 -116 10 -183 46 -40 21 -95 49 -123 63 -56 29 -66 36
-100 70 l-23 24 20 38 c34 67 48 139 48 261 0 68 4 119 10 123 6 4 36 -3 67
-15 84 -31 174 -30 240 4 29 14 57 26 61 26 11 0 107 93 145 140 15 19 27 42
27 52 0 10 4 18 8 18 4 0 16 42 26 93 14 71 17 115 12 187 -3 52 -7 112 -9
134 l-2 39 55 14 c42 11 65 11 97 3 23 -5 57 -10 75 -10 18 0 94 -21 168 -46
74 -25 161 -51 193 -59 60 -14 233 -80 255 -97 6 -6 12 -32 12 -57 0 -37 -5
-52 -22 -68 -13 -11 -36 -36 -52 -57 -16 -20 -50 -51 -75 -69 -66 -45 -67 -45
-145 -124 -69 -69 -74 -72 -156 -93 -119 -31 -134 -33 -185 -26 -38 6 -49 13
-74 49 -60 87 -138 144 -164 118 -8 -8 -6 -11 9 -11 48 0 127 -106 184 -247
33 -83 48 -108 99 -159 34 -34 61 -67 61 -74 0 -17 48 -80 61 -80 16 0 48 -42
49 -62 0 -10 4 -18 10 -18 5 0 14 -19 20 -42 6 -24 20 -61 30 -84 11 -23 20
-49 20 -58 0 -11 9 -16 29 -16 27 0 29 2 21 33 -4 17 -17 53 -28 79 -12 26
-22 56 -22 67 0 12 -4 21 -8 21 -5 0 -16 18 -26 40 -10 22 -36 55 -58 73 -22
17 -47 45 -55 61 -8 16 -43 59 -78 96 -37 40 -66 80 -70 98 -3 18 -11 32 -16
32 -5 0 -9 7 -9 15 0 14 10 15 60 9 36 -4 65 -3 72 4 7 5 46 18 86 27 73 18
133 55 172 107 36 48 77 85 117 104 15 7 82 72 146 141 44 49 47 56 47 105 0
99 1 97 -165 162 -49 19 -108 37 -130 41 -22 3 -69 15 -105 25 -219 66 -272
79 -335 85 -50 5 -84 2 -120 -9 -65 -20 -62 -21 -68 17 -21 123 -33 162 -72
244 -40 81 -44 95 -33 118 6 14 14 25 17 25 4 0 20 -26 36 -57 34 -65 83 -119
168 -183 45 -34 69 -44 107 -48 28 -2 50 -8 50 -13 0 -12 288 -3 345 12 28 6
67 20 87 30 21 11 46 19 57 19 23 0 71 -20 71 -30 0 -4 18 -13 40 -20 22 -7
40 -17 40 -22 0 -4 12 -8 26 -8 14 0 34 -5 45 -11 11 -5 66 -14 123 -18 57 -5
119 -13 137 -19 132 -41 99 -42 304 14 27 8 68 14 90 14 27 0 48 7 62 19 12
11 43 30 70 42 26 12 71 32 100 45 47 21 83 61 83 92 0 8 -77 98 -137 160 -13
12 -23 25 -23 28 0 2 -13 19 -29 37 -66 72 -82 93 -87 114 -4 13 -10 23 -15
23 -5 0 -9 7 -9 15 0 8 -6 25 -12 37 -17 29 -88 96 -110 103 -10 4 -18 10 -18
14 0 4 -27 21 -60 37 -33 16 -60 34 -60 39 0 6 25 40 55 75 30 36 55 68 55 73
0 4 10 7 23 7 31 0 107 74 107 104 0 7 7 16 15 20 8 3 15 12 15 21 0 8 4 15 8
15 10 0 62 102 62 120 0 27 34 73 63 85 54 23 160 149 160 192 -1 35 -16 46
-65 49 -64 3 -99 14 -144 46 -40 28 -45 29 -181 32 -127 3 -146 6 -196 30 -61
28 -148 37 -185 17 -11 -6 -30 -11 -42 -11 -11 0 -34 -7 -51 -15 l-29 -16 -33
47 c-17 26 -49 65 -69 88 -21 23 -40 49 -43 58 -3 9 -14 19 -23 22 -9 3 -28
16 -42 29 -22 20 -128 76 -230 120 -34 15 -69 13 -137 -8 -19 -6 -23 -3 -23
12 0 25 -71 125 -104 147 -15 9 -26 21 -26 25 0 5 34 65 76 132 42 67 78 129
82 138 3 9 8 18 11 21 3 3 11 12 16 21 23 37 90 134 96 139 3 3 12 22 20 43 7
20 16 37 20 37 4 0 10 8 14 19 3 10 16 30 28 44 29 32 46 58 53 80 4 9 10 17
15 17 5 0 9 5 9 11 0 6 22 48 50 94 57 95 140 257 140 275 0 6 6 24 14 38 32
61 96 202 96 211 0 5 3 11 8 13 4 2 19 28 34 58 27 54 39 88 78 220 10 36 37
124 59 195 63 208 86 347 85 510 0 173 -19 225 -91 254 -27 11 -35 10 -60 -5
-39 -26 -40 -27 -47 -110 -7 -81 -78 -292 -111 -331 -26 -31 -35 -45 -87 -138
-38 -65 -41 -71 -123 -193 -38 -58 -74 -111 -80 -120 -14 -21 -37 -51 -52 -67
-7 -8 -13 -18 -13 -23 0 -6 -3 -12 -8 -14 -11 -5 -72 -103 -72 -116 0 -7 -4
-12 -10 -12 -5 0 -10 -6 -10 -13 0 -7 -27 -46 -60 -86 -33 -41 -60 -77 -60
-81 0 -4 -21 -29 -47 -57 -81 -85 -113 -122 -113 -131 0 -5 -12 -22 -27 -38
-16 -16 -46 -51 -68 -79 -22 -27 -87 -97 -145 -157 -102 -104 -186 -195 -266
-287 -22 -25 -47 -52 -56 -60 -10 -9 -18 -19 -18 -23 0 -7 -176 -184 -189
-190 -4 -2 -24 -25 -46 -53 -22 -27 -43 -52 -47 -53 -5 -2 -8 -10 -8 -18 0 -8
-7 -17 -15 -20 -8 -4 -15 -12 -15 -19 0 -13 -28 -41 -34 -34 -2 2 27 67 65
144 37 77 69 147 69 155 1 8 19 47 40 85 65 119 114 221 125 265 4 14 24 61
45 105 93 197 100 214 191 485 81 240 139 530 139 700 l0 49 83 4 c131 8 260
41 387 99 82 37 220 149 220 178 0 5 6 13 13 17 7 4 32 33 57 63 25 30 47 57
50 60 3 3 16 28 30 55 14 28 32 58 40 67 9 9 27 40 40 67 14 28 28 51 33 51 4
0 7 8 7 18 0 10 4 22 8 28 5 5 17 32 27 59 9 28 23 60 31 71 7 12 27 58 44
103 17 44 35 81 38 81 8 0 52 92 52 109 0 6 3 11 8 11 4 0 13 25 21 56 7 31
19 71 26 88 7 17 21 51 30 76 10 25 28 69 41 98 13 29 24 59 24 67 0 8 5 15
10 15 6 0 10 8 10 19 0 10 20 48 45 84 25 37 45 71 45 77 0 5 4 10 8 10 4 0
13 13 19 30 8 22 8 32 0 37 -7 5 -77 7 -157 6 -143 -1 -195 -9 -299 -47 -53
-19 -61 -14 -68 45 -2 24 -8 53 -13 64 -4 11 -13 40 -20 65 -7 25 -16 54 -20
65 -5 11 -11 36 -14 55 -3 19 -11 64 -18 100 -15 80 -15 191 1 375 15 169 8
200 -56 253 -59 50 -127 70 -201 60 -98 -13 -132 -20 -138 -29 -3 -5 -14 -9
-25 -9 -10 0 -19 -4 -19 -8 0 -5 -18 -15 -40 -22 -22 -7 -40 -16 -40 -20 0 -4
-8 -10 -17 -14 -31 -10 -93 -56 -122 -90 -9 -10 -33 -36 -53 -59 -20 -22 -54
-68 -74 -101 -21 -34 -40 -63 -43 -66 -4 -3 -15 -22 -26 -42 -11 -21 -23 -38
-26 -38 -4 0 -10 -11 -13 -25 -4 -14 -11 -25 -16 -25 -6 0 -10 -8 -10 -18 0
-10 -9 -35 -20 -57 -11 -22 -20 -45 -20 -52 0 -36 -25 -11 -89 90 -39 61 -92
135 -117 162 -26 28 -58 68 -72 90 -13 22 -43 61 -66 87 -23 25 -59 67 -80 92
-37 42 -141 116 -165 116 -35 0 -38 -94 -12 -385 9 -100 -7 -475 -21 -475 -4
0 -8 -21 -8 -47 0 -43 -13 -85 -23 -73 -7 9 -27 151 -27 190 0 22 -4 59 -9 82
-5 24 -16 75 -25 113 -8 39 -18 88 -22 110 -6 43 -17 81 -46 163 -10 29 -21
78 -24 110 -3 31 -10 71 -15 87 -5 17 -11 114 -14 216 -2 103 -9 198 -15 213
-5 15 -10 47 -10 71 0 24 -4 47 -10 50 -5 3 -10 21 -10 38 -1 43 -33 113 -60
127 -29 16 -48 -2 -56 -52 -4 -21 -11 -41 -15 -44 -5 -3 -9 -18 -9 -33 0 -15
-4 -31 -8 -36 -5 -6 -15 -26 -22 -45 -8 -19 -29 -51 -47 -70 -18 -19 -33 -38
-33 -42 0 -5 -5 -8 -11 -8 -6 0 -27 -18 -46 -40 -20 -22 -43 -40 -52 -40 -32
1 -183 221 -248 363 -10 20 -21 37 -25 37 -5 0 -8 6 -8 13 0 15 -92 132 -124
159 -12 10 -27 23 -34 29 -10 8 -117 43 -117 38 0 0 -17 -7 -37 -14z m134 -86
c49 -58 57 -89 59 -222 1 -115 -21 -284 -41 -312 -4 -5 -11 -24 -15 -42 -3
-18 -17 -54 -29 -80 -13 -26 -31 -70 -41 -98 -10 -27 -22 -54 -27 -60 -4 -5
-8 -15 -8 -21 0 -21 -60 -144 -70 -144 -5 0 -22 19 -36 43 -15 23 -46 62 -70
87 -95 100 -90 85 -60 190 15 52 23 89 47 220 5 30 14 75 19 100 5 25 12 80
16 123 3 42 10 77 15 77 5 0 9 5 9 11 0 19 53 124 74 147 18 19 29 22 75 19
47 -3 58 -8 83 -38z m197 -284 c28 -57 51 -109 51 -114 0 -5 10 -18 23 -28 27
-22 77 -88 77 -101 0 -6 3 -12 8 -14 13 -6 68 -92 87 -138 10 -25 23 -51 28
-57 20 -27 68 -138 77 -177 8 -35 6 -46 -13 -73 -12 -18 -28 -33 -34 -33 -7 0
-13 -4 -13 -8 0 -4 -12 -15 -27 -24 -16 -9 -55 -42 -87 -72 -33 -31 -61 -56
-62 -56 -1 0 -20 -17 -41 -37 -52 -51 -127 -112 -188 -153 -27 -19 -71 -56
-98 -82 -27 -26 -52 -48 -55 -48 -4 0 -18 -14 -32 -32 -14 -17 -38 -46 -55
-64 -46 -50 -61 -68 -68 -87 -9 -23 -37 -22 -37 2 0 11 -3 21 -7 23 -10 4 -46
55 -66 94 -16 31 -14 96 4 119 4 6 17 35 29 65 20 52 60 137 80 170 59 97 100
171 100 179 0 5 4 11 8 13 5 2 28 44 52 93 47 99 51 107 79 181 11 28 29 71
39 95 19 41 47 147 71 267 6 30 11 87 11 128 0 41 2 74 4 74 2 0 27 -47 55
-105z m542 -143 c-5 -83 -12 -155 -16 -162 -4 -6 -11 -41 -16 -77 -5 -37 -13
-71 -17 -77 -5 -6 -17 -33 -27 -61 -32 -89 -33 -89 -105 57 l-66 133 68 68
c38 37 83 91 101 120 30 47 40 73 63 156 5 20 8 22 15 9 5 -9 5 -80 0 -166z
m-1412 -32 c4 -3 10 -12 14 -20 10 -23 30 -50 57 -79 29 -32 46 -53 80 -101
13 -19 28 -39 33 -45 4 -5 18 -25 31 -43 13 -18 62 -73 110 -122 47 -49 86
-93 86 -97 0 -5 12 -21 26 -36 21 -23 25 -34 20 -62 -4 -18 -10 -35 -14 -37
-16 -6 -110 -207 -137 -290 -15 -49 -30 -88 -32 -88 -6 0 -51 41 -127 115 -34
33 -95 89 -135 125 -41 36 -86 76 -100 89 -44 40 -170 131 -182 131 -27 0 12
212 56 305 8 17 26 62 40 100 15 39 39 102 55 140 15 39 34 85 41 104 l12 33
29 -58 c16 -32 33 -61 37 -64z m-599 -78 c30 -16 89 -42 130 -57 41 -16 77
-31 80 -34 3 -3 22 -17 43 -31 20 -14 39 -32 42 -42 3 -9 -4 -51 -16 -95 -12
-43 -24 -93 -26 -111 -3 -18 -9 -35 -14 -38 -8 -5 -81 59 -207 179 -29 28 -55
62 -58 74 -4 13 -10 23 -14 23 -5 0 -12 10 -16 23 -4 12 -10 24 -13 27 -9 7
-61 132 -61 147 0 6 -5 13 -12 15 -7 3 -8 10 -4 17 6 9 19 2 50 -27 22 -22 66
-53 96 -70z m2100 -387 c7 -44 16 -90 21 -103 5 -13 9 -34 9 -47 0 -13 4 -25
9 -27 5 -1 15 -32 21 -68 7 -36 18 -96 26 -135 36 -186 53 -355 36 -355 -6 0
-12 4 -14 8 -1 5 -41 23 -88 41 -47 17 -94 36 -105 41 -65 31 -240 65 -288 56
-53 -10 -61 -25 -47 -91 6 -30 14 -55 18 -55 9 0 32 -49 32 -67 0 -7 4 -13 10
-13 5 0 12 -17 16 -37 4 -21 10 -40 14 -43 3 -3 11 -30 17 -60 14 -66 57 -225
79 -289 31 -89 84 -313 84 -353 0 -10 -7 -18 -15 -18 -8 0 -15 -6 -15 -12 0
-15 -101 -114 -150 -148 -19 -13 -37 -27 -40 -30 -11 -12 -88 -60 -122 -76
-21 -10 -38 -21 -38 -26 0 -4 -6 -8 -13 -8 -7 0 -37 -11 -65 -25 -29 -14 -59
-25 -67 -25 -8 0 -15 -4 -15 -10 0 -5 -5 -10 -12 -10 -7 0 -26 -13 -43 -29
-16 -15 -55 -37 -85 -47 -65 -21 -80 -31 -80 -52 0 -12 9 -14 50 -9 55 7 67
-2 48 -35 -36 -66 -38 -86 -32 -468 3 -206 9 -433 15 -505 30 -414 40 -571 49
-760 5 -115 14 -267 21 -336 10 -103 10 -143 -1 -218 -8 -50 -17 -91 -21 -91
-9 0 -12 16 -28 147 -6 45 -20 108 -31 140 -11 32 -30 91 -41 132 -25 91 -53
148 -78 156 -10 3 -22 12 -25 20 -3 8 0 101 7 207 19 309 14 761 -11 950 -12
86 -28 183 -37 215 -18 65 -63 206 -76 241 -5 13 -9 40 -9 61 0 22 -6 44 -15
51 -8 7 -15 18 -15 25 0 7 -7 18 -15 25 -8 7 -15 19 -15 27 0 14 23 43 35 43
3 0 27 20 53 45 26 24 78 72 116 107 38 35 88 81 110 103 23 22 50 47 61 55
28 21 65 96 65 132 0 42 -33 84 -95 119 -29 16 -59 37 -65 44 -7 8 -18 15 -25
15 -8 0 -15 4 -17 8 -6 15 -83 70 -138 98 -107 55 -110 58 -104 117 3 29 11
70 19 92 7 22 21 67 30 100 9 33 26 78 36 99 10 22 19 45 19 52 0 7 4 14 8 16
8 3 102 136 102 144 0 12 164 174 177 174 7 0 13 6 13 13 0 6 17 22 38 34 44
25 153 111 165 130 4 7 12 13 18 13 5 0 32 21 60 48 157 146 175 162 187 162
10 1 102 97 138 145 30 41 50 78 78 150 15 39 55 237 54 266 -1 8 0 28 2 44 2
17 6 -55 10 -160 4 -104 13 -226 20 -270z m1669 153 c20 -7 38 -15 41 -18 3
-3 22 -14 44 -25 38 -19 38 -20 32 -65 -3 -25 -11 -70 -16 -100 -17 -83 -25
-360 -11 -360 6 0 11 -15 11 -32 0 -18 14 -82 31 -143 89 -320 94 -349 94
-510 0 -184 -5 -198 -108 -286 -45 -38 -88 -69 -94 -69 -7 0 -13 -4 -13 -10 0
-5 -11 -12 -25 -16 -14 -3 -25 -10 -25 -14 0 -4 -8 -10 -17 -14 -22 -7 -54
-27 -68 -42 -14 -15 -81 -64 -87 -64 -3 0 -9 16 -13 36 -17 92 -119 322 -186
421 -16 23 -29 44 -29 48 0 6 -10 19 -37 50 -7 7 -13 18 -13 24 0 5 -6 16 -12
23 -26 26 -40 67 -34 92 3 14 44 64 91 111 47 47 85 88 85 92 0 3 26 31 58 63
84 82 182 193 182 206 0 2 8 14 18 25 18 19 36 51 52 94 5 11 18 45 31 75 49
121 60 159 66 241 4 62 2 88 -6 94 -18 10 -20 6 -41 -84 -11 -45 -29 -101 -40
-124 -12 -23 -35 -76 -52 -117 -17 -41 -45 -95 -62 -120 -40 -58 -156 -184
-236 -256 -19 -17 -55 -55 -80 -84 -25 -29 -53 -60 -64 -69 -10 -9 -31 -29
-47 -46 -28 -29 -28 -29 -47 -9 -10 11 -27 42 -37 69 -10 28 -24 57 -30 65 -7
8 -29 50 -49 92 l-38 77 29 53 c15 29 30 55 33 58 3 3 14 23 25 45 73 146 280
415 320 415 8 0 15 5 15 10 0 6 6 10 14 10 8 0 16 4 18 9 2 5 30 21 63 36 115
53 197 66 264 43z m-3742 -86 c13 -13 23 -25 23 -27 0 -7 132 -130 143 -134 7
-2 14 -7 17 -10 3 -4 28 -21 55 -38 28 -18 57 -39 66 -48 9 -8 21 -15 27 -15
5 0 12 -3 14 -7 2 -5 23 -25 48 -45 25 -20 57 -47 71 -60 14 -13 57 -50 94
-83 38 -33 85 -76 105 -95 19 -19 60 -55 90 -80 67 -56 86 -76 113 -120 11
-19 28 -42 38 -50 38 -35 67 -141 41 -152 -20 -9 -85 -216 -97 -311 -4 -27
-13 -51 -20 -53 -14 -6 -74 23 -87 41 -8 12 -276 14 -327 3 -26 -6 -31 -5 -23
5 37 45 52 92 58 181 7 94 -6 164 -43 236 -7 14 -13 30 -13 35 0 20 -121 250
-150 287 -17 20 -30 40 -30 43 0 14 -130 147 -167 172 -13 9 -23 20 -23 26 0
5 -7 15 -16 22 -11 7 -19 37 -25 91 -10 93 -24 179 -35 214 -7 23 -6 24 11 10
10 -8 29 -25 42 -38z m2464 8 c11 0 92 -81 141 -140 35 -43 64 -94 152 -265
22 -44 43 -82 46 -85 6 -6 36 -67 90 -183 43 -93 87 -167 107 -180 7 -4 13
-12 13 -18 0 -5 11 -22 25 -37 14 -15 25 -30 25 -33 0 -4 18 -34 40 -67 22
-33 40 -65 40 -71 0 -6 5 -11 10 -11 6 0 10 -5 10 -11 0 -6 15 -34 33 -62 70
-110 87 -137 87 -141 0 -6 82 -139 90 -146 10 -10 58 -115 75 -165 10 -27 18
-72 19 -99 1 -45 -2 -51 -34 -75 -19 -14 -68 -58 -110 -98 -41 -39 -89 -84
-105 -100 -17 -15 -36 -39 -43 -53 -13 -27 -19 -37 -74 -121 -21 -31 -48 -81
-62 -110 -13 -30 -31 -63 -40 -74 -14 -19 -15 -12 -16 90 0 171 -58 376 -143
510 -17 27 -34 52 -37 55 -10 9 -31 45 -36 63 -4 9 -10 17 -15 17 -5 0 -9 5
-9 11 0 13 -23 44 -87 114 -27 29 -57 63 -69 76 -12 13 -45 44 -74 69 -118
100 -202 196 -183 208 13 9 29 82 43 197 6 50 17 124 25 165 46 244 54 430 27
680 -9 84 -6 104 15 96 8 -3 19 -6 24 -6z m-2510 -332 c171 -170 253 -263 264
-299 4 -11 11 -19 16 -19 5 0 9 -7 9 -15 0 -7 14 -38 30 -67 42 -72 67 -129
97 -218 33 -99 30 -200 -9 -277 -26 -50 -34 -63 -66 -98 -7 -8 -32 -19 -55
-26 -41 -10 -127 -48 -137 -60 -3 -3 -12 -8 -20 -12 -48 -22 -180 -148 -180
-172 0 -17 25 -20 43 -5 45 38 61 50 67 50 4 0 21 13 36 29 33 33 97 71 119
71 8 0 15 3 15 8 0 10 91 42 120 42 12 0 54 11 92 25 59 21 87 25 185 25 95 0
120 -3 141 -18 15 -10 43 -25 62 -32 19 -8 43 -21 52 -30 9 -8 54 -34 100 -58
88 -45 115 -61 134 -77 42 -35 55 -45 63 -45 5 0 11 -3 13 -7 5 -12 95 -73
107 -73 19 0 23 -47 8 -76 -9 -16 -49 -60 -89 -99 -108 -103 -239 -219 -251
-224 -5 -2 -17 -11 -27 -20 -72 -68 -171 -126 -260 -151 -25 -8 -49 -17 -55
-20 -20 -13 -92 -29 -161 -36 -70 -6 -161 12 -189 37 -5 5 -17 9 -27 9 -10 0
-18 5 -18 10 0 6 -6 10 -13 10 -7 0 -39 27 -70 60 -32 33 -62 60 -67 60 -6 0
-10 7 -10 15 0 9 -7 18 -16 22 -33 13 -64 54 -64 86 0 42 -10 77 -21 77 -5 0
-9 -11 -9 -25 0 -13 -4 -34 -9 -47 -5 -13 -20 -56 -32 -95 -27 -86 -66 -132
-155 -181 -75 -41 -90 -50 -111 -62 -10 -6 -28 -14 -40 -20 -13 -5 -23 -14
-23 -20 0 -5 -7 -10 -15 -10 -14 0 -54 -18 -65 -30 -10 -10 -107 -70 -114 -70
-4 0 -17 -11 -30 -25 -13 -14 -28 -25 -33 -25 -17 0 -111 -98 -129 -135 l-17
-37 -61 6 c-40 4 -67 13 -81 26 -16 15 -29 19 -53 14 -46 -9 -90 14 -103 56
-14 42 -24 50 -66 50 -18 0 -33 3 -33 8 0 4 -18 26 -40 50 -26 28 -40 52 -40
70 0 31 -33 90 -61 110 -11 7 -19 18 -19 23 0 5 -9 19 -20 31 -16 18 -20 36
-20 96 0 60 -4 78 -18 91 -10 9 -26 28 -35 42 -16 23 -16 30 -2 77 15 48 14
53 -5 87 -34 60 -25 116 26 170 26 28 28 36 27 100 -2 38 1 72 5 75 5 3 18 22
31 43 12 20 28 37 34 37 17 1 52 32 66 59 8 13 10 37 6 60 -6 35 -4 37 27 49
18 6 47 24 63 40 25 24 84 57 62 36 -12 -13 15 -34 43 -34 17 0 31 -8 39 -23
6 -12 25 -31 41 -42 16 -11 38 -37 50 -58 12 -21 30 -43 41 -50 10 -6 19 -17
19 -24 0 -7 6 -13 13 -13 16 0 33 -32 42 -76 3 -17 15 -41 25 -52 16 -17 20
-36 20 -86 0 -59 2 -66 29 -89 l29 -24 -46 4 c-26 2 -79 13 -118 26 -67 20
-72 24 -80 57 -7 28 -14 36 -37 38 -56 7 -88 -71 -48 -116 19 -23 55 -29 66
-12 12 20 105 0 105 -22 0 -5 36 -8 80 -8 48 0 80 4 80 10 0 15 37 -6 49 -28
6 -12 3 -30 -11 -61 -19 -41 -19 -70 -3 -113 6 -16 0 -18 -46 -18 -57 0 -114
-12 -165 -35 -21 -10 -48 -12 -82 -8 -38 4 -55 2 -66 -9 -46 -47 -14 -118 52
-118 44 1 72 19 72 48 0 15 11 26 38 37 20 9 46 22 57 28 11 6 43 14 70 18 28
5 60 11 72 14 17 6 25 1 37 -24 24 -45 20 -58 -26 -106 -24 -23 -49 -52 -55
-64 -20 -33 -15 -90 12 -136 23 -41 24 -44 7 -63 -9 -11 -25 -30 -36 -42 -38
-47 -75 -119 -64 -126 12 -8 54 38 64 69 3 9 10 17 15 17 5 0 9 5 9 11 0 6 13
21 29 35 43 36 47 58 17 109 -41 69 -34 99 36 166 62 58 65 101 16 193 -26 49
-27 74 -2 107 29 40 31 72 4 99 -11 11 -20 24 -20 28 0 5 -18 23 -41 42 -34
27 -40 37 -35 59 18 88 19 85 -13 119 -21 21 -31 42 -31 62 0 30 -16 56 -59
94 -43 38 -62 60 -67 81 -3 11 -21 31 -40 45 -19 14 -41 37 -49 52 -21 39 -51
53 -83 39 -31 -15 -41 -6 -19 17 12 11 32 17 62 16 40 -1 49 -6 116 -72 39
-40 77 -72 84 -72 7 0 15 -3 17 -7 4 -11 87 -66 118 -80 14 -6 72 -33 130 -61
186 -89 236 -110 273 -117 21 -4 37 -11 37 -15 0 -4 12 -12 28 -18 37 -13 79
-52 91 -84 6 -16 17 -28 26 -28 23 0 19 45 -9 88 -27 44 -58 67 -158 119 -16
8 -28 21 -28 29 0 8 -4 14 -9 14 -5 0 -13 12 -19 28 -5 15 -26 45 -45 67 -20
22 -37 46 -37 53 0 6 -4 12 -8 12 -5 0 -14 17 -21 38 -59 180 -70 297 -46 481
23 179 37 221 112 335 37 55 73 119 82 141 8 22 21 44 28 48 7 4 13 15 13 22
0 8 4 15 8 15 5 0 14 11 20 25 6 14 20 25 30 25 11 0 92 -73 193 -172z m1882
-414 c15 -4 30 -10 33 -15 3 -5 20 -9 37 -9 18 0 47 -9 65 -20 18 -11 39 -20
46 -20 13 0 75 -29 86 -40 10 -10 81 -40 95 -40 8 0 15 -4 15 -9 0 -5 9 -13
21 -16 49 -16 59 -35 59 -116 0 -41 -3 -78 -6 -82 -7 -6 -68 40 -139 105 -59
55 -102 88 -112 88 -5 0 -23 13 -39 30 -16 16 -35 30 -41 30 -7 0 -13 5 -13
10 0 6 -6 10 -12 10 -7 0 -25 7 -40 14 -16 8 -28 11 -28 7 0 -9 112 -120 180
-178 180 -153 524 -504 621 -633 53 -70 101 -150 145 -240 36 -74 71 -148 79
-163 8 -16 15 -35 15 -43 0 -8 4 -14 9 -14 16 0 25 -94 25 -270 1 -154 -1
-180 -18 -215 -11 -22 -25 -43 -30 -47 -23 -16 -64 -7 -102 22 -21 16 -47 30
-56 30 -9 0 -20 5 -23 10 -3 6 -15 10 -25 10 -10 0 -20 3 -22 8 -4 9 -65 52
-73 52 -9 0 -99 63 -103 73 -2 4 -8 7 -13 7 -23 0 -190 191 -256 294 -57 87
-133 233 -133 253 0 7 -4 13 -9 13 -5 0 -11 15 -14 33 -6 39 -40 158 -49 172
-3 6 -13 42 -22 80 -19 80 -40 155 -67 235 -10 30 -27 89 -38 132 -11 42 -26
98 -35 125 -28 88 -46 155 -46 169 0 8 -4 14 -10 14 -5 0 -10 7 -10 15 0 18
-36 83 -61 111 -10 11 -19 24 -19 28 0 8 80 2 133 -10z m2567 -204 c0 -9 -19
-35 -47 -65 -7 -8 -13 -17 -13 -22 0 -5 -18 -27 -41 -48 -22 -22 -59 -64 -82
-94 -23 -29 -75 -79 -117 -111 l-75 -57 0 173 0 173 30 6 c16 4 42 11 58 17
25 10 192 33 260 37 15 0 27 -3 27 -9z m-170 -338 c0 -12 -29 -101 -45 -137
-7 -16 -25 -66 -40 -110 -15 -44 -33 -93 -40 -110 -8 -16 -23 -55 -35 -85 -12
-30 -27 -62 -34 -70 -7 -8 -22 -37 -35 -65 -12 -27 -31 -68 -42 -90 -10 -22
-19 -43 -19 -47 0 -4 -25 -49 -55 -100 -84 -141 -221 -290 -335 -363 -94 -60
-282 -125 -363 -125 -17 0 -49 -5 -69 -10 -55 -16 -116 2 -124 36 -10 40 4
130 26 169 11 20 20 40 20 46 0 39 131 241 193 297 9 9 17 20 17 23 0 7 127
136 172 174 12 11 39 30 58 42 19 12 45 32 57 45 29 31 41 40 83 64 19 10 40
24 47 29 39 32 71 52 103 66 79 33 359 231 410 289 34 39 50 49 50 32z m-2255
-539 c9 -32 25 -76 35 -98 10 -22 25 -56 34 -75 21 -47 63 -121 76 -134 19
-19 10 -46 -37 -107 -59 -74 -101 -140 -102 -156 -1 -7 -5 -13 -11 -13 -5 0
-10 -7 -10 -15 0 -8 -4 -15 -10 -15 -5 0 -10 -6 -10 -13 0 -8 -13 -32 -28 -53
-28 -39 -148 -278 -173 -344 -7 -19 -18 -40 -25 -47 -6 -6 -24 -42 -40 -80
-15 -37 -31 -70 -34 -73 -3 -3 -19 -39 -35 -80 -16 -41 -33 -76 -37 -78 -5 -2
-8 -12 -8 -23 0 -16 -57 -179 -89 -254 -27 -63 -70 -191 -94 -275 -2 -8 -7 21
-11 65 -3 44 -11 136 -16 205 -32 399 -40 497 -45 615 -8 174 -13 259 -20 386
-6 97 -5 111 20 183 46 134 66 158 164 203 47 21 121 59 165 86 44 26 82 47
85 47 3 0 20 12 36 28 17 15 46 38 65 51 18 13 54 45 79 71 25 26 49 48 53 49
4 0 14 -25 23 -56z m-2015 -320 c57 -84 153 -169 235 -209 75 -35 86 -38 175
-38 59 0 121 7 163 18 79 20 80 20 129 -57 18 -29 35 -54 38 -57 38 -32 49
-359 17 -504 -18 -83 -61 -182 -108 -254 -16 -24 -29 -47 -29 -51 0 -23 -135
-28 -186 -6 -30 12 -119 69 -134 85 -3 3 -24 12 -48 20 -24 7 -73 33 -109 57
-36 24 -67 43 -68 43 -11 0 -130 125 -151 160 -15 24 -32 50 -38 57 -32 36
-40 49 -61 101 -78 192 -92 452 -25 452 10 0 42 24 73 53 44 43 59 65 72 110
9 32 19 57 23 57 4 0 18 -17 32 -37z m4323 -134 c13 -72 1 -236 -27 -359 -44
-195 -44 -196 -86 -295 -6 -16 -21 -64 -32 -105 -29 -112 -48 -159 -137 -336
-45 -88 -81 -165 -81 -171 0 -21 -62 -155 -101 -219 -21 -35 -39 -69 -39 -74
0 -6 -4 -10 -9 -10 -5 0 -12 -8 -15 -17 -11 -30 -37 -75 -88 -150 -26 -40 -48
-76 -48 -82 0 -5 -3 -11 -8 -13 -4 -1 -27 -37 -52 -78 -24 -41 -55 -88 -68
-104 -13 -17 -28 -39 -33 -50 -13 -31 -40 -71 -66 -101 -7 -7 -13 -21 -13 -29
0 -9 -4 -16 -8 -16 -5 0 -19 -21 -33 -46 -45 -85 -49 -91 -63 -103 -11 -9 -22
-7 -50 10 -57 34 -171 59 -268 59 -92 0 -107 9 -73 44 8 8 15 17 15 21 0 4 6
12 13 19 56 57 123 143 143 186 4 8 10 17 14 20 16 14 70 89 70 99 0 6 5 11
10 11 6 0 10 6 10 13 0 6 13 26 28 42 15 17 34 44 40 61 7 17 40 59 72 92 50
53 160 202 160 218 0 4 8 16 36 47 5 7 19 28 30 47 10 19 21 37 24 40 3 3 16
22 30 42 14 21 28 38 33 38 4 0 7 4 7 10 0 11 62 103 73 108 4 2 7 8 7 14 0 5
13 28 29 51 15 23 41 69 57 102 16 33 38 74 49 90 36 53 45 70 51 88 4 9 9 17
13 17 4 0 15 17 26 38 11 20 22 39 25 42 4 3 12 21 20 40 8 19 16 37 19 40 4
3 12 23 20 45 7 22 45 105 83 185 90 189 81 164 149 393 14 48 31 43 42 -14z
m-2007 -65 c15 -22 15 -26 0 -49 -9 -13 -16 -31 -16 -40 0 -8 -4 -15 -8 -15
-5 0 -23 -33 -42 -72 -117 -259 -192 -412 -202 -416 -4 -2 -8 -10 -8 -17 0 -7
-3 -15 -8 -17 -10 -4 -68 -94 -84 -129 -7 -16 -16 -29 -20 -29 -5 0 -8 -8 -8
-18 0 -10 -4 -22 -9 -27 -5 -6 -18 -41 -30 -78 -18 -56 -78 -190 -122 -270 -5
-9 -20 -47 -34 -85 -14 -37 -29 -76 -34 -87 -13 -28 -30 -85 -51 -169 -10 -40
-22 -81 -28 -92 -5 -10 -20 -62 -32 -114 -12 -52 -26 -111 -31 -130 -5 -20
-24 -51 -43 -70 -20 -19 -36 -39 -36 -43 0 -12 -39 -51 -45 -46 -9 9 -7 317 3
336 5 10 12 42 15 70 3 29 13 68 20 85 8 18 21 56 27 83 7 28 17 55 21 60 4 6
17 47 29 90 12 44 25 89 30 100 4 11 15 36 23 55 8 19 22 58 32 85 10 28 23
64 30 80 8 17 17 44 21 60 4 17 10 35 14 40 4 6 20 44 35 85 16 41 31 77 35
80 4 3 10 19 14 35 4 17 15 48 26 70 10 22 31 72 46 110 15 39 40 95 57 125
43 78 44 80 64 125 9 22 23 46 30 53 7 7 13 18 13 23 0 5 10 20 21 33 24 28
40 53 68 111 25 51 76 104 112 118 14 5 75 -52 105 -99z m-1411 53 c32 -44 49
-85 60 -144 3 -19 10 -43 15 -52 14 -27 59 -207 70 -279 6 -37 17 -167 25
-288 15 -227 16 -221 -15 -764 -5 -85 -9 -167 -9 -183 -1 -21 -9 -31 -36 -44
-84 -40 -155 -253 -155 -465 0 -54 -2 -59 -36 -84 -19 -15 -46 -49 -60 -76
-22 -43 -27 -47 -44 -38 -11 6 -20 15 -20 19 0 5 -8 12 -17 15 -10 4 -38 17
-63 31 -25 13 -52 24 -60 24 -8 1 -28 11 -43 24 l-28 22 30 35 c17 19 34 40
38 45 5 6 35 63 68 128 32 64 62 117 67 117 4 0 8 9 8 20 0 11 4 20 8 20 26 0
87 203 77 257 -8 46 -56 59 -170 47 -57 -6 -86 -6 -87 1 0 5 -2 107 -4 225 -1
118 -4 229 -6 245 -3 26 1 30 22 33 51 6 130 35 130 48 0 7 6 17 13 21 30 20
115 201 133 285 33 157 38 225 24 367 -7 75 -18 147 -23 161 -11 24 -51 80
-92 128 -29 34 -38 62 -20 62 22 0 155 61 155 71 0 19 16 7 45 -34z m-3069
-58 c12 -12 20 -27 17 -35 -8 -22 140 -293 192 -350 5 -6 17 -22 25 -34 8 -13
27 -36 43 -52 15 -16 27 -32 27 -36 0 -4 9 -14 20 -22 11 -8 20 -19 20 -25 0
-5 15 -27 33 -47 17 -20 63 -86 102 -145 38 -59 72 -110 75 -113 12 -10 70
-99 70 -107 0 -4 14 -23 30 -42 17 -18 30 -37 30 -40 0 -3 10 -18 23 -32 12
-14 27 -32 32 -41 30 -50 110 -163 117 -166 4 -2 8 -10 8 -17 0 -7 4 -15 8
-17 5 -1 27 -30 50 -63 23 -33 57 -78 77 -99 20 -22 48 -60 63 -85 14 -25 30
-47 34 -49 4 -2 8 -12 8 -22 0 -10 4 -20 8 -22 10 -4 92 -128 92 -139 0 -4 12
-20 26 -34 14 -14 24 -29 21 -32 -8 -7 -100 60 -129 95 -13 15 -44 38 -68 51
-44 23 -110 83 -110 99 0 5 -8 17 -17 28 -26 27 -65 90 -96 154 -31 62 -47 89
-63 107 -7 6 -36 61 -65 120 -57 113 -63 124 -91 151 -10 9 -18 22 -18 29 0 7
-4 13 -8 13 -5 0 -16 16 -25 36 -10 19 -22 40 -28 47 -9 11 -120 177 -144 216
-5 9 -13 18 -16 21 -4 3 -17 24 -30 48 -13 24 -29 52 -35 62 -12 22 -41 62
-70 99 -12 14 -42 62 -68 106 -25 44 -59 96 -76 115 -16 19 -49 80 -71 135
-23 55 -46 104 -51 110 -10 11 -11 45 -1 45 4 0 17 -9 29 -21z m116 -75 c35
-25 65 -50 66 -55 2 -5 7 -9 12 -9 11 0 72 -54 179 -158 47 -46 115 -109 151
-140 111 -95 207 -202 264 -295 17 -26 34 -47 38 -47 4 0 8 -5 8 -11 0 -14 53
-80 121 -152 66 -70 77 -92 56 -115 -10 -10 -17 -24 -17 -30 0 -7 -4 -12 -8
-12 -11 0 -33 -160 -26 -187 7 -25 -1 -30 -19 -10 -23 23 -77 95 -77 101 0 4
-4 12 -10 19 -5 7 -38 50 -72 97 -34 47 -69 92 -77 100 -7 8 -20 28 -28 45
-18 40 -33 63 -66 101 -15 17 -42 53 -59 80 -17 27 -33 51 -37 54 -6 5 -31 41
-56 81 -21 34 -150 199 -202 258 -18 20 -33 41 -33 47 0 7 -6 14 -12 17 -7 2
-26 31 -43 63 -16 33 -32 61 -35 64 -24 24 -95 140 -85 140 3 0 33 -21 67 -46z
m4468 -38 c0 -6 -13 -38 -29 -71 -17 -34 -39 -92 -50 -130 -29 -101 -107 -318
-128 -357 -34 -65 -75 -195 -109 -353 -9 -38 -22 -83 -30 -100 -14 -32 -40
-123 -55 -194 -5 -23 -13 -60 -19 -80 -5 -21 -17 -76 -25 -122 -8 -47 -21
-110 -28 -139 -15 -60 -7 -55 -134 -79 -34 -6 -81 -23 -105 -36 -24 -14 -47
-25 -51 -25 -4 0 -5 17 -2 38 13 78 129 450 166 530 11 24 27 62 36 85 9 23
20 44 23 47 13 9 58 113 80 185 13 39 24 75 26 80 4 11 27 48 34 55 10 10 31
45 36 63 4 9 10 17 14 17 4 0 10 8 14 18 5 17 26 52 36 62 7 7 70 137 70 145
0 4 15 39 34 78 18 40 39 89 45 109 7 21 17 40 22 43 5 4 9 17 9 29 0 13 7 29
15 36 8 7 15 19 15 26 0 8 5 14 10 14 6 0 10 8 10 17 0 9 7 25 17 35 15 17 17
17 35 2 10 -10 18 -22 18 -28z m125 -80 c89 -62 177 -104 242 -115 34 -7 67
-10 75 -9 9 2 14 -14 16 -60 2 -52 -4 -81 -38 -180 -23 -64 -45 -126 -50 -137
-5 -11 -11 -31 -14 -45 -14 -69 -30 -120 -38 -120 -4 0 -8 -7 -8 -15 0 -8 -13
-37 -30 -65 -16 -28 -30 -57 -30 -65 0 -8 -4 -15 -8 -15 -5 0 -21 -26 -36 -57
-62 -128 -70 -143 -78 -143 -4 0 -8 -5 -8 -11 0 -6 -15 -34 -34 -62 -19 -29
-57 -99 -84 -157 -28 -59 -65 -126 -84 -150 -19 -25 -45 -65 -58 -90 -14 -25
-28 -46 -32 -48 -5 -2 -8 -8 -8 -13 0 -5 -10 -26 -23 -47 -13 -20 -32 -57 -42
-82 -11 -25 -33 -70 -50 -100 -17 -30 -39 -75 -49 -100 -25 -62 -60 -134 -66
-140 -3 -3 -12 -24 -20 -48 -8 -25 -27 -54 -44 -68 -17 -13 -36 -29 -43 -34
-7 -6 -15 -10 -18 -10 -16 0 5 146 24 160 13 10 51 96 70 160 22 73 26 135 16
226 -5 43 -3 80 9 130 16 64 22 95 46 214 19 90 73 305 81 322 5 10 27 88 50
175 22 87 46 172 54 190 8 17 15 34 15 37 0 4 16 41 36 83 19 41 38 89 41 106
4 17 12 43 20 57 7 14 13 32 13 41 0 9 3 19 7 23 9 9 43 117 43 139 0 9 5 17
10 17 6 0 10 7 10 15 0 18 30 84 49 107 15 18 17 17 66 -16z m507 -118 c10
-28 -11 -289 -27 -335 -25 -73 -45 -151 -45 -179 0 -13 -4 -33 -10 -44 -5 -11
-14 -29 -20 -40 -5 -11 -10 -27 -10 -35 0 -8 -4 -23 -10 -33 -5 -9 -24 -64
-41 -122 -17 -58 -35 -109 -40 -115 -5 -5 -9 -16 -9 -25 0 -8 -13 -42 -30 -73
-16 -32 -30 -63 -30 -69 0 -15 -78 -175 -101 -209 -24 -35 -109 -203 -109
-217 0 -6 -4 -12 -8 -14 -8 -3 -99 -184 -182 -361 -26 -56 -35 -67 -48 -60
-28 13 -134 7 -182 -11 -64 -24 -76 -25 -72 -1 6 41 96 234 159 343 24 40 43
77 43 82 0 6 5 10 10 10 6 0 10 7 10 15 0 14 18 53 30 65 12 12 30 51 30 64 0
8 3 16 8 18 4 2 20 28 36 58 16 30 39 69 51 85 12 17 37 57 55 90 17 33 37 67
44 75 7 8 19 31 26 50 8 19 18 40 23 45 12 15 56 97 68 128 6 15 15 27 20 27
5 0 9 6 9 13 0 13 57 155 70 172 3 6 13 37 20 70 7 33 22 77 32 97 43 87 98
274 98 332 0 41 21 96 37 96 7 0 13 5 13 10 0 15 77 12 82 -2z m765 -465 c-41
-78 -134 -235 -145 -243 -4 -3 -16 -22 -27 -42 -11 -21 -22 -38 -26 -38 -4 0
-9 -8 -13 -17 -6 -19 -27 -54 -37 -63 -13 -12 -69 -99 -69 -108 0 -6 -7 -12
-15 -16 -8 -3 -15 -12 -15 -20 0 -8 -4 -16 -8 -18 -4 -1 -30 -32 -57 -68 -27
-36 -52 -67 -55 -70 -3 -3 -21 -26 -40 -52 -18 -27 -37 -48 -42 -48 -4 0 -8
-9 -8 -19 0 -11 -5 -23 -10 -26 -6 -4 -19 -23 -29 -43 -11 -20 -28 -46 -38
-58 -23 -26 -40 -53 -54 -84 -5 -13 -14 -27 -18 -30 -4 -3 -39 -50 -79 -105
-39 -55 -75 -104 -80 -110 -4 -5 -30 -37 -56 -70 -27 -32 -55 -65 -62 -73 -8
-7 -19 -22 -24 -33 -6 -10 -17 -19 -25 -19 -8 0 -39 -11 -69 -25 -30 -14 -57
-25 -60 -25 -3 0 -34 -20 -70 -45 -61 -43 -124 -110 -154 -164 -25 -43 -43
-135 -40 -196 l3 -60 -33 -10 c-19 -5 -57 -31 -85 -57 -35 -31 -61 -47 -79
-48 -26 0 -47 15 -31 22 5 1 19 23 32 47 19 35 22 52 18 92 l-6 49 64 65 c36
36 68 65 72 65 9 0 79 73 131 136 18 21 46 55 62 74 16 19 30 39 30 44 0 4 10
21 23 36 12 15 33 43 47 62 14 18 45 53 70 78 25 25 56 60 70 78 33 44 87 107
128 149 17 18 32 37 32 41 0 5 29 36 64 70 36 34 90 96 121 138 52 69 89 115
123 150 6 7 12 15 12 18 0 9 30 45 98 116 34 37 62 72 62 78 0 7 3 12 8 12 4
0 18 17 32 38 14 20 37 50 51 67 32 36 143 169 181 216 15 19 42 61 60 94 17
33 40 69 50 79 10 11 18 24 18 28 0 11 24 37 29 32 2 -1 -13 -34 -32 -71z
m-3432 -243 c20 -11 44 -20 54 -20 17 0 19 -11 22 -102 2 -57 0 -179 -6 -273
l-10 -170 -39 -18 c-43 -20 -59 -11 -51 28 18 89 10 492 -11 558 -7 22 -3 21
41 -3z m-535 -57 c58 -53 110 -256 110 -433 0 -41 -3 -50 -17 -50 -21 0 -81
-34 -103 -59 -20 -21 -100 -187 -100 -207 0 -8 -4 -22 -10 -32 -5 -9 -18 -50
-29 -91 -20 -73 -41 -113 -41 -78 0 13 -9 17 -39 17 -25 0 -41 5 -45 15 -3 8
-12 15 -21 15 -22 0 -20 82 4 156 19 57 42 196 57 334 4 36 10 70 14 75 4 6
13 33 20 60 7 28 17 55 21 61 5 6 17 47 28 91 34 143 39 153 83 153 27 0 46
-8 68 -27z m-858 -43 c46 -9 145 -58 172 -86 12 -11 28 -24 36 -27 29 -13 55
-32 78 -57 53 -57 62 -68 62 -78 0 -6 3 -12 8 -14 15 -7 80 -125 86 -158 13
-68 29 -120 37 -120 14 0 20 -57 22 -185 0 -78 -3 -129 -10 -133 -5 -4 -15
-17 -22 -30 -10 -19 -17 -22 -47 -16 -39 7 -64 -8 -64 -37 0 -11 -4 -19 -8
-19 -11 0 -77 81 -102 126 -23 41 -87 134 -119 174 -11 14 -21 31 -21 38 0 11
-47 79 -70 102 -5 5 -26 41 -57 100 -10 19 -21 38 -26 41 -10 8 -46 103 -63
169 -16 59 -11 164 9 207 9 20 16 23 36 17 14 -4 43 -10 63 -14z m1713 -580
c-10 -43 -32 -93 -52 -123 -19 -29 -53 -88 -75 -132 -77 -153 -69 -141 -141
-215 l-48 -49 -51 9 c-82 16 -112 13 -142 -15 -21 -19 -27 -33 -24 -58 3 -31
2 -32 -31 -29 -19 1 -50 -3 -68 -9 -19 -6 -37 -9 -39 -6 -3 3 6 23 20 46 14
22 26 44 26 48 0 5 11 30 25 57 30 59 61 183 70 283 6 55 13 78 29 95 26 27
54 46 79 54 9 4 17 10 17 13 0 15 121 66 220 93 49 14 183 25 194 17 5 -4 1
-39 -9 -79z m-691 45 c56 -24 78 -76 84 -206 3 -73 1 -108 -7 -113 -6 -4 -11
-22 -11 -40 0 -55 -90 -252 -136 -297 -60 -59 -71 -68 -106 -88 -21 -12 -54
-30 -73 -41 -33 -18 -135 -29 -135 -14 0 3 9 25 20 50 11 24 23 58 27 74 3 17
9 30 14 30 5 0 9 14 9 30 0 65 97 402 147 510 55 119 86 139 167 105z m-1389
-30 c30 -13 67 -27 82 -31 26 -6 142 -62 153 -74 3 -3 22 -16 42 -30 21 -14
38 -31 38 -37 0 -7 5 -13 10 -13 9 0 114 -71 147 -100 7 -5 16 -10 22 -10 5 0
11 -4 13 -8 2 -5 36 -30 76 -56 39 -26 72 -50 73 -54 5 -43 5 -52 -1 -52 -3 0
-16 -10 -29 -21 -22 -21 -23 -21 -57 -3 -19 10 -48 30 -64 44 -44 38 -189 108
-261 126 -48 12 -86 15 -151 10 l-88 -7 -36 33 c-114 102 -143 150 -144 235 0
69 18 87 77 79 24 -3 68 -17 98 -31z m2519 -104 c9 -27 23 -73 31 -103 7 -29
25 -84 39 -123 14 -38 30 -110 36 -160 14 -123 39 -262 56 -308 21 -58 18 -95
-13 -127 -22 -24 -30 -27 -47 -18 -15 8 -22 7 -31 -5 -9 -13 -14 -14 -23 -5
-7 7 -12 18 -12 25 0 12 -47 157 -72 223 -47 122 -108 183 -172 171 -16 -3 4
246 24 304 38 111 62 151 94 162 62 20 71 17 90 -36z m770 -28 c16 -58 16
-143 1 -204 -9 -35 -21 -68 -26 -74 -5 -5 -9 -17 -9 -26 0 -10 -3 -19 -8 -21
-4 -1 -22 -34 -41 -71 -19 -37 -45 -80 -58 -95 -13 -15 -33 -45 -45 -66 -11
-22 -25 -45 -32 -53 -23 -26 -32 -38 -39 -53 -12 -26 -40 -68 -64 -95 -7 -7
-13 -17 -13 -21 0 -10 -73 -104 -81 -104 -3 0 -9 14 -13 31 -5 27 -9 30 -38
29 -50 -3 -58 -1 -58 13 0 7 -5 18 -12 25 -8 8 -13 56 -15 133 -2 103 1 128
17 164 11 23 24 63 29 87 28 124 140 264 281 349 91 55 122 67 177 68 32 1 43
-3 47 -16z m-2368 -245 c22 -43 35 -50 55 -32 22 20 25 18 43 -16 8 -16 11
-30 7 -30 -4 0 -14 -33 -21 -72 -7 -40 -18 -86 -25 -103 -7 -16 -16 -47 -20
-67 -4 -21 -11 -38 -15 -38 -7 0 -59 37 -70 50 -3 3 -21 17 -40 30 -19 13 -37
27 -40 30 -3 3 -21 13 -41 23 -53 25 -78 87 -34 87 7 0 16 9 20 19 3 11 18 25
34 32 21 10 27 18 23 36 -4 19 0 23 21 23 41 0 57 10 57 36 0 35 26 30 46 -8z
m-707 -19 c71 -16 225 -95 275 -141 20 -18 135 -78 151 -78 6 0 37 -14 69 -30
32 -17 65 -30 72 -30 8 0 14 -4 14 -10 0 -5 5 -10 11 -10 6 0 32 -18 57 -41
38 -33 52 -40 82 -37 32 3 35 1 32 -21 -4 -38 15 -51 74 -51 58 0 135 32 169
70 10 11 24 20 32 20 8 0 32 14 54 32 21 17 42 28 46 24 4 -4 2 -10 -4 -14 -6
-4 -25 -50 -43 -103 l-33 -97 -68 -36 c-37 -20 -74 -36 -83 -36 -23 0 -26 -13
-11 -56 15 -42 20 -86 7 -68 -4 6 -14 14 -22 17 -55 26 -115 68 -118 84 -7 42
-9 43 -53 28 -24 -9 -45 -11 -48 -6 -3 5 -56 12 -117 16 -119 7 -131 5 -186
-44 -26 -23 -32 -24 -130 -18 -157 9 -318 53 -483 132 -93 44 -123 65 -192
132 -46 44 -83 84 -83 90 0 17 110 24 190 13 41 -6 100 -8 131 -4 52 6 61 4
92 -20 18 -14 39 -26 45 -26 6 0 12 -3 14 -7 18 -42 289 -163 364 -163 19 0
34 -4 34 -9 0 -5 60 -8 136 -7 132 2 153 7 154 37 0 27 -128 63 -195 55 -27
-3 -65 -1 -85 4 -19 5 -64 16 -100 26 -72 18 -132 46 -218 102 -31 20 -69 43
-84 52 -79 44 -158 153 -138 190 26 48 91 62 189 39z m1566 -209 c17 -5 52
-13 79 -19 57 -14 136 -48 136 -60 0 -5 8 -11 18 -15 56 -18 91 -61 92 -111 0
-22 7 -69 15 -105 21 -95 19 -106 -14 -120 -51 -21 -73 -11 -93 44 -9 27 -21
52 -25 55 -5 3 -17 23 -28 44 -11 20 -25 37 -31 37 -7 0 -14 4 -16 10 -1 5
-21 12 -44 16 -37 5 -43 3 -78 -30 -20 -20 -41 -34 -47 -31 -5 4 -21 30 -36
58 -14 29 -30 55 -35 58 -5 3 -14 35 -20 70 -10 57 -9 68 7 92 19 29 36 30
120 7z m2755 -2 c25 -6 49 -15 55 -19 5 -5 17 -9 27 -9 10 0 18 -4 18 -8 0 -5
35 -29 78 -54 70 -42 105 -77 155 -156 5 -8 -8 -28 -40 -60 -106 -104 -177
-228 -217 -381 l-23 -86 -41 -2 c-34 -1 -46 4 -61 23 -10 13 -22 24 -27 24 -4
0 -17 9 -28 19 -43 40 -313 191 -341 191 -4 0 -21 6 -38 14 -52 24 -138 46
-178 46 -24 0 -39 5 -43 16 -19 50 7 180 47 238 23 32 78 86 88 86 3 0 19 11
35 25 16 14 38 28 49 31 11 4 22 9 25 13 10 12 76 34 118 38 23 3 42 9 42 13
0 21 215 19 300 -2z m-2198 1 c13 -6 28 -19 33 -29 47 -91 76 -157 81 -179 3
-14 12 -42 19 -61 7 -19 32 -111 55 -205 53 -214 73 -257 120 -267 42 -9 84 6
103 36 8 12 34 30 58 41 70 30 261 124 294 145 138 87 221 122 293 127 60 4
70 2 95 -20 15 -13 27 -32 27 -41 0 -29 -68 -124 -100 -140 -23 -11 -51 -28
-105 -66 -69 -47 -193 -100 -237 -100 -21 0 -38 -4 -38 -9 0 -4 -44 -11 -97
-14 -124 -7 -173 -22 -173 -53 0 -17 7 -24 28 -27 53 -10 201 -5 254 8 112 28
173 46 183 56 5 5 17 9 26 9 10 0 19 3 21 8 2 4 46 35 99 69 l97 62 123 1
c202 3 219 1 219 -14 0 -7 -30 -44 -67 -81 -135 -134 -363 -220 -651 -245
-100 -9 -128 -8 -225 10 -62 11 -125 24 -142 29 -60 18 -95 23 -95 12 0 -12
-61 -104 -72 -109 -5 -2 -8 -10 -8 -18 0 -16 -21 -19 -36 -4 -8 8 -8 23 -1 49
6 21 8 45 5 53 -4 8 -44 34 -90 56 -45 23 -98 54 -117 70 -34 30 -34 30 -17
62 9 18 16 41 16 52 0 29 25 22 103 -29 66 -44 77 -48 144 -52 72 -3 73 -3 73
22 0 19 -6 26 -31 31 -17 3 -42 6 -56 6 -28 0 -64 17 -146 69 l-59 36 5 52 c8
82 -7 121 -67 171 -8 6 -28 12 -44 12 -26 0 -29 4 -42 63 -9 35 -14 102 -13
155 2 111 27 167 84 187 45 17 45 17 71 4z m1352 -25 c9 -24 7 -85 -4 -124 -9
-30 -61 -100 -74 -100 -2 0 -22 -17 -43 -38 l-38 -38 -120 0 c-117 0 -122 -1
-188 -34 -37 -19 -77 -39 -87 -45 -11 -5 -20 -13 -20 -17 0 -5 -5 -8 -11 -8
-6 0 -28 -13 -48 -29 -55 -44 -78 -47 -107 -17 -14 14 -24 33 -22 42 3 17 137
120 171 131 9 3 17 9 17 14 0 5 5 9 11 9 11 0 98 67 134 104 11 12 29 26 40
33 42 25 161 82 188 88 15 4 27 11 27 16 0 5 10 9 23 9 12 0 29 5 37 10 25 16
107 12 114 -6z m-2112 -130 c56 -66 122 -184 133 -239 26 -121 35 -207 30
-265 -4 -36 -7 -85 -8 -110 -2 -33 -6 -45 -19 -48 -23 -4 -56 35 -69 80 -13
50 -46 60 -94 27 -19 -13 -35 -30 -35 -37 0 -9 -14 -10 -57 -5 -56 6 -83 20
-83 42 0 6 -4 19 -9 29 -30 57 -41 126 -35 230 12 214 76 362 158 362 28 0 41
-9 88 -66z m316 -159 c12 -14 22 -29 22 -34 0 -5 6 -11 13 -14 18 -7 47 -69
47 -99 0 -16 -11 -28 -36 -41 -35 -17 -37 -17 -58 0 -11 10 -24 23 -28 28 -3
6 -18 24 -32 40 -35 40 -34 79 3 116 36 35 42 36 69 4z m3170 13 c26 -6 49
-14 52 -17 10 -12 50 -31 65 -31 8 0 15 -4 15 -10 0 -5 6 -10 13 -10 8 0 22
-9 32 -20 10 -11 24 -20 30 -20 7 0 25 -17 41 -37 16 -21 43 -53 61 -72 18
-18 35 -42 38 -52 4 -11 11 -19 16 -19 5 0 9 -9 9 -20 0 -11 3 -20 8 -20 17 0
73 -126 107 -240 32 -107 45 -267 29 -350 -8 -36 -79 -114 -115 -125 -12 -4
-32 -16 -43 -26 -11 -11 -26 -19 -33 -19 -11 0 -114 70 -133 90 -3 3 -36 21
-73 40 -38 19 -77 39 -88 45 -27 14 -24 31 11 52 17 9 30 21 30 25 0 4 6 8 14
8 16 0 35 44 35 80 0 14 3 57 7 97 6 64 4 75 -17 105 -12 18 -34 42 -48 53
-50 41 -60 53 -54 75 7 27 -32 70 -64 70 -27 0 -28 6 -8 53 22 53 20 104 -5
112 -35 11 -56 -3 -161 -116 -95 -100 -118 -132 -148 -196 -24 -52 -63 -34
-54 25 3 20 10 39 15 40 4 2 8 10 8 17 0 23 89 217 103 223 4 2 7 10 7 17 0
20 121 141 158 156 17 8 32 17 32 21 0 12 55 10 108 -4z m-2332 -83 c5 -19 13
-25 35 -25 24 0 29 -4 29 -25 0 -18 5 -25 20 -25 12 0 25 -10 32 -25 6 -14 17
-25 24 -25 43 0 20 -57 -34 -86 -20 -10 -46 -27 -56 -36 -11 -10 -23 -18 -28
-18 -4 0 -22 -13 -40 -30 -52 -50 -54 -49 -98 126 -25 99 -26 142 -3 151 9 4
19 1 21 -5 5 -17 42 -15 47 3 3 8 7 22 10 30 7 24 34 17 41 -10z m-1887 -71
c88 -22 315 -141 380 -199 115 -102 131 -119 131 -137 0 -18 -5 -20 -39 -14
-43 7 -57 -2 -88 -54 -9 -16 -25 -30 -36 -32 -19 -3 -38 -32 -54 -83 -12 -42
-40 -36 -136 31 -43 30 -82 54 -85 54 -4 0 -18 14 -32 31 -14 17 -40 47 -57
67 -18 21 -33 43 -33 50 0 6 -3 12 -7 12 -5 0 -19 18 -33 40 -13 22 -28 40
-32 40 -4 0 -8 7 -8 15 0 8 -4 15 -8 15 -4 0 -15 15 -23 33 -9 17 -25 50 -37
73 -34 62 -24 74 61 74 39 0 100 -7 136 -16z m1397 -30 c56 -15 48 -149 -19
-294 -7 -14 -15 -27 -18 -30 -4 -3 -18 -28 -33 -57 -30 -61 -87 -123 -136
-149 -19 -11 -37 -21 -40 -24 -10 -10 -45 -31 -62 -36 -10 -4 -18 -10 -18 -14
0 -5 -38 -11 -85 -15 -86 -7 -91 -10 -76 -34 19 -30 241 -10 241 21 0 5 6 8
14 8 7 0 19 6 25 14 16 19 156 27 254 15 111 -13 123 -17 141 -35 9 -8 26 -16
38 -17 13 0 49 -21 81 -45 48 -36 58 -49 55 -70 -2 -14 -12 -30 -23 -36 -11
-6 -22 -14 -25 -17 -3 -4 -27 -14 -55 -23 -27 -8 -93 -30 -145 -47 -132 -44
-230 -50 -324 -19 -66 22 -74 28 -108 79 -62 92 -115 141 -152 141 -8 0 -16 5
-18 11 -4 13 -48 3 -48 -11 0 -5 13 -16 30 -25 63 -33 140 -130 140 -178 0
-12 7 -32 15 -43 20 -30 21 -128 1 -199 -27 -94 -49 -155 -57 -155 -4 0 -10
-8 -13 -17 -8 -24 -66 -87 -93 -101 -13 -7 -40 -9 -70 -5 -39 5 -57 15 -96 52
-39 39 -49 55 -57 100 -6 30 -19 64 -29 75 -32 36 -65 210 -51 268 5 18 11 42
14 53 12 39 -6 46 -63 25 -29 -10 -64 -26 -77 -35 -13 -8 -29 -15 -36 -15 -6
0 -22 -10 -34 -21 -43 -40 -157 -63 -360 -74 -132 -6 -143 -5 -180 15 -21 12
-44 27 -49 33 -6 7 -19 17 -30 23 -23 13 -65 71 -65 90 0 17 84 101 135 136
150 100 435 139 435 59 0 -9 19 -28 41 -41 23 -14 49 -32 59 -42 10 -9 27 -19
39 -23 12 -3 21 -10 21 -14 0 -13 74 -34 113 -32 45 2 53 8 110 74 18 20 34
27 59 27 27 0 46 10 81 40 25 22 50 40 55 40 6 0 20 20 32 45 16 34 20 55 15
81 -4 25 -2 41 8 53 8 9 22 45 31 81 21 82 55 140 107 182 22 18 53 44 67 57
74 64 220 113 288 95z m1730 -50 c27 -9 53 -21 59 -25 5 -5 16 -9 25 -9 32 0
387 -196 428 -236 10 -11 18 -84 9 -84 -2 0 -25 11 -53 24 -47 22 -101 40
-189 64 -22 6 -88 14 -146 17 -103 6 -107 5 -112 -15 -3 -12 -3 -28 -1 -34 6
-16 76 -56 97 -56 9 0 19 -9 22 -20 8 -26 -3 -60 -20 -60 -7 0 -20 -16 -29
-35 -13 -27 -14 -39 -6 -56 8 -15 8 -29 1 -51 -15 -43 -15 -42 23 -81 19 -20
37 -48 40 -64 8 -34 48 -81 82 -93 31 -12 111 -2 146 18 15 9 30 14 32 11 3
-3 -6 -35 -19 -72 -14 -37 -25 -85 -25 -107 0 -40 -17 -90 -31 -90 -4 0 -17
12 -29 28 -33 41 -113 133 -128 146 -7 6 -22 19 -33 29 -10 9 -22 17 -25 17
-3 0 -12 6 -19 13 -39 34 -53 42 -128 74 -45 19 -95 40 -112 45 -16 6 -39 15
-50 19 -40 16 -116 39 -129 39 -31 0 -51 62 -58 184 l-3 58 42 17 c57 22 120
71 134 103 6 15 28 42 48 60 66 58 77 100 37 143 -21 22 -30 25 -84 23 -70 -3
-85 5 -52 30 59 43 171 54 256 26z m1014 -7 c0 -13 -7 -32 -15 -43 -8 -10 -15
-34 -15 -51 0 -33 4 -36 65 -45 16 -3 20 -11 20 -47 0 -36 5 -46 25 -59 55
-35 90 -82 90 -119 0 -80 -22 -167 -49 -193 -34 -33 -96 -61 -118 -54 -63 21
-114 52 -153 93 -44 47 -91 71 -136 71 -29 0 -30 4 -4 30 24 24 26 67 3 92
-15 17 -15 20 3 41 11 12 33 42 48 66 16 24 54 70 85 102 31 32 72 76 91 98
40 45 60 51 60 18z m772 -45 c2 -5 32 -20 68 -34 58 -23 79 -26 192 -26 122 0
128 -1 154 -26 32 -29 117 -60 143 -51 10 3 26 3 35 -1 15 -6 13 -11 -10 -43
-46 -61 -106 -119 -130 -125 -29 -8 -68 -67 -78 -118 -4 -20 -10 -38 -14 -40
-4 -2 -29 -37 -56 -78 -27 -41 -53 -76 -58 -78 -4 -2 -8 -10 -8 -17 0 -7 -16
-16 -37 -20 -29 -5 -45 -16 -67 -47 -33 -46 -69 -88 -109 -126 -22 -21 -44
-29 -110 -39 -134 -20 -237 -15 -237 11 0 11 15 22 79 58 20 11 40 26 44 34 4
8 14 14 21 14 8 0 17 8 20 18 4 9 14 31 24 47 31 55 19 348 -19 442 -18 43
-25 64 -44 116 -9 26 -23 54 -31 61 -8 8 -14 19 -14 23 0 11 153 50 202 52 20
1 38 -3 40 -7z m-4118 -305 c32 -65 37 -84 31 -118 -8 -47 -60 -89 -112 -89
-48 0 -113 -31 -119 -57 -4 -15 -18 -26 -41 -32 -31 -9 -40 -6 -90 27 -78 52
-75 50 -105 57 -32 6 -37 29 -9 46 14 10 17 21 13 54 -4 42 -3 43 33 56 27 10
38 20 42 42 5 26 9 28 42 25 45 -6 111 32 111 62 0 7 19 1 44 -14 25 -14 51
-26 60 -26 19 0 36 30 36 63 0 35 14 43 21 10 3 -15 23 -63 43 -106z m-1023
87 c133 -46 169 -64 205 -103 19 -21 48 -44 64 -51 37 -15 27 -34 -23 -44 -42
-8 -130 -42 -188 -72 -57 -29 -85 -30 -124 -4 -16 12 -52 31 -80 44 -27 13
-66 39 -86 57 -20 19 -47 43 -60 54 -13 11 -34 32 -47 46 -22 25 -22 26 -3 47
10 12 23 22 30 22 6 0 11 4 11 9 0 11 48 17 156 19 53 2 89 -4 145 -24z m3939
-13 c0 -5 8 -12 18 -15 21 -8 55 -28 76 -45 20 -17 21 -60 1 -67 -9 -4 -15
-19 -15 -39 0 -30 3 -33 40 -39 46 -7 90 -26 90 -38 0 -4 -8 -8 -17 -8 -37 0
-110 -33 -119 -54 -9 -20 -76 -64 -102 -65 -9 -1 -11 12 -8 48 6 65 20 91 46
84 24 -6 28 21 7 46 -25 29 -48 201 -27 201 6 0 10 -4 10 -9z m-332 -26 c62
-9 123 -24 156 -40 29 -14 62 -25 73 -25 36 0 53 -23 60 -78 5 -47 3 -55 -16
-68 -11 -8 -21 -20 -21 -26 0 -30 -60 -129 -106 -175 -43 -42 -61 -53 -98 -58
-68 -11 -91 8 -126 102 -7 18 -20 35 -30 38 -25 8 -31 30 -19 62 5 15 7 44 4
65 -5 30 -3 39 9 44 20 8 46 55 46 85 0 25 -46 69 -72 69 -18 0 -31 14 -22 23
4 3 18 4 33 1 14 -2 72 -11 129 -19z m-1943 -49 c43 -30 136 -76 154 -76 10 0
24 -7 31 -16 11 -13 10 -18 -7 -35 -16 -17 -24 -18 -48 -9 -16 6 -80 14 -142
17 -62 3 -113 7 -113 9 0 1 12 16 28 32 43 47 52 60 52 77 0 19 19 19 45 1z
m1261 -162 c5 -47 7 -87 4 -89 -4 -2 -35 0 -71 5 -83 12 -199 13 -199 1 0 -5
-18 -12 -40 -16 -22 -4 -40 -10 -40 -15 0 -4 -10 -10 -23 -14 -12 -3 -31 -13
-42 -23 -11 -10 -36 -30 -55 -43 -45 -31 -51 -38 -78 -81 -12 -19 -32 -47 -44
-61 -13 -14 -31 -35 -40 -47 -22 -26 -43 -29 -28 -3 10 18 50 140 50 154 0 4
9 27 19 51 11 23 25 66 32 96 15 61 30 71 112 71 73 1 279 43 357 73 36 13 68
25 71 26 3 0 10 -38 15 -85z m-820 37 c16 -5 54 -14 84 -21 130 -29 130 -28
127 -58 -4 -35 -37 -134 -48 -146 -5 -6 -9 -19 -9 -30 0 -22 -52 -183 -73
-226 -6 -14 -25 -36 -41 -50 -16 -14 -37 -34 -47 -45 -83 -96 -102 -121 -118
-153 -10 -20 -27 -55 -38 -77 -71 -139 -98 -331 -68 -472 7 -32 7 -33 -29 -33
-22 0 -36 5 -37 13 0 6 -2 46 -5 87 -8 125 22 416 61 595 14 66 31 147 38 179
11 52 17 61 47 77 19 10 52 35 73 54 54 52 51 112 -9 172 -30 30 -30 32 4 93
28 51 38 56 88 41z m2071 -130 c10 -10 32 -25 48 -34 17 -8 43 -26 59 -40 16
-14 41 -31 55 -38 36 -18 132 -89 156 -117 12 -12 29 -36 38 -52 l18 -30 -43
6 c-40 6 -45 4 -56 -20 -7 -15 -12 -38 -12 -51 0 -69 -54 -18 -115 110 -25 52
-50 95 -55 95 -6 0 -10 6 -10 14 0 8 -4 16 -8 18 -4 2 -18 17 -29 34 -12 17
-45 46 -72 65 -28 19 -53 40 -55 47 -9 20 60 15 81 -7z m124 -29 c24 -16 59
-31 76 -35 27 -5 105 -48 123 -67 3 -3 27 -17 53 -30 26 -14 57 -33 67 -42 11
-10 22 -18 25 -18 9 0 58 -43 103 -90 24 -25 57 -71 73 -103 29 -56 30 -63 24
-140 -9 -119 -24 -173 -57 -202 -15 -14 -32 -25 -37 -25 -5 0 -11 -4 -13 -9
-4 -13 -136 -111 -148 -111 -6 0 -10 -3 -10 -7 0 -9 -49 -33 -67 -33 -7 0 -13
-4 -13 -8 0 -24 -373 -63 -394 -42 -5 5 -25 10 -44 10 -69 0 -196 117 -249
230 -36 76 -46 129 -47 255 -1 122 0 135 30 220 40 112 53 145 57 145 5 0 -10
-158 -17 -168 -8 -13 21 -191 36 -220 9 -18 19 -22 56 -20 24 1 47 -3 50 -9
12 -17 52 -25 67 -13 7 6 17 24 20 40 5 25 35 52 35 32 0 -5 15 -13 34 -20 40
-15 82 -3 88 25 5 23 -9 87 -27 128 -13 30 -61 163 -86 240 -7 22 -17 45 -22
52 -4 6 -4 14 1 17 10 6 73 -54 133 -126 20 -24 54 -82 76 -129 45 -97 72
-132 115 -150 38 -15 53 -1 65 61 l9 45 48 0 c56 0 80 22 55 48 -8 8 -31 39
-53 68 -36 52 -68 76 -183 144 -28 16 -62 40 -76 51 -13 12 -30 24 -38 27 -11
4 -11 6 2 6 8 1 35 -12 60 -27z m-1314 -47 c81 -23 212 -65 250 -81 17 -8 38
-14 47 -14 9 0 16 -4 16 -8 0 -4 16 -14 35 -20 44 -16 138 -87 190 -142 22
-24 52 -56 68 -72 15 -16 27 -34 27 -39 0 -5 4 -9 9 -9 5 0 11 -8 15 -17 3
-10 10 -25 15 -33 31 -48 41 -88 41 -165 0 -111 -9 -118 -87 -65 -55 36 -67
40 -144 46 -46 3 -104 1 -129 -4 -49 -11 -112 -33 -120 -43 -3 -4 -15 -9 -27
-13 -13 -4 -23 -12 -23 -17 0 -5 -6 -9 -14 -9 -7 0 -30 -19 -51 -42 -45 -52
-96 -111 -113 -132 -21 -26 -29 -19 -36 32 -9 76 -17 116 -26 137 -4 11 -13
39 -21 63 -7 23 -18 47 -26 53 -7 6 -13 18 -13 26 0 8 -6 20 -12 27 -7 7 -38
45 -68 84 -30 39 -59 72 -64 72 -10 0 -89 61 -94 72 -2 5 -9 8 -15 8 -6 0 -18
6 -26 14 -9 8 -45 20 -81 26 -36 7 -75 16 -87 21 -22 8 -22 9 -6 56 32 94 180
206 298 225 30 5 206 -19 272 -37z m1123 -156 c66 -174 84 -249 59 -249 -6 0
-25 10 -41 22 -39 27 -74 17 -98 -29 l-17 -33 -24 21 c-16 14 -31 18 -48 14
-30 -8 -41 7 -41 55 0 20 -5 41 -11 47 -8 8 -8 44 1 135 7 67 14 129 16 136 2
7 23 21 46 31 24 10 50 26 57 35 8 9 18 13 23 8 5 -5 40 -91 78 -193z m-3382
-72 c1 -54 31 -194 57 -267 14 -40 14 -42 -13 -72 -65 -76 -77 -80 -102 -32
-7 13 -17 24 -21 24 -4 0 -39 32 -79 70 -69 67 -74 70 -121 70 -32 0 -51 -5
-55 -13 -10 -26 42 -145 76 -177 3 -3 17 -21 30 -40 13 -19 27 -37 31 -40 3
-3 11 -15 18 -27 10 -20 7 -26 -21 -55 -57 -57 -116 -90 -166 -91 -41 -2 -47
1 -63 28 -10 17 -23 59 -30 93 -12 58 -11 74 9 173 12 60 35 137 51 172 15 34
31 72 35 84 7 22 13 25 71 38 49 11 218 75 250 96 17 10 33 19 36 19 3 0 6
-24 7 -53z m1125 17 c-1 -10 -6 -37 -12 -59 -6 -22 -18 -69 -27 -105 -9 -36
-20 -74 -24 -85 -9 -22 -28 -161 -34 -245 -2 -30 -9 -86 -15 -125 -7 -39 -10
-101 -7 -140 4 -39 4 -85 0 -103 -6 -30 -9 -32 -50 -32 -44 0 -44 0 -44 36 0
19 4 43 9 53 5 9 17 84 26 167 8 82 20 181 26 219 6 39 17 113 24 165 35 245
36 247 75 263 43 18 56 16 53 -9z m-471 -24 c6 -18 137 -40 197 -34 61 6 112
22 123 38 17 26 19 -9 3 -66 -9 -35 -25 -106 -35 -158 -10 -52 -23 -117 -29
-145 -5 -27 -17 -111 -26 -185 -8 -74 -20 -151 -25 -170 -5 -20 -14 -66 -19
-103 -11 -80 -23 -97 -63 -97 -17 0 -52 -8 -79 -17 -26 -10 -51 -14 -55 -10
-4 4 -3 29 4 55 21 88 24 334 6 502 -21 193 -29 400 -15 400 5 0 11 -5 13 -10z
m3899 -63 c102 -65 123 -87 167 -176 22 -46 55 -99 74 -119 18 -21 47 -55 65
-77 17 -22 54 -64 82 -93 74 -78 71 -91 -36 -132 -49 -18 -101 -42 -117 -53
-15 -11 -47 -22 -70 -24 -50 -5 -117 -20 -173 -40 -27 -10 -57 -13 -85 -9 -24
4 -62 9 -85 12 -24 3 -43 10 -43 15 0 5 -31 9 -70 9 -92 0 -211 31 -286 75
-44 26 -57 45 -30 45 8 0 16 3 18 8 2 4 23 23 48 42 142 109 168 155 177 320
4 81 2 102 -15 141 l-20 46 66 8 c37 3 96 10 132 14 36 3 74 12 85 18 31 19
45 15 116 -30z m-2750 -33 c41 -17 120 -70 127 -86 2 -5 9 -8 16 -8 13 0 40
-28 68 -71 9 -14 23 -32 30 -40 8 -8 23 -30 34 -49 10 -19 21 -37 24 -40 12
-12 31 -59 44 -110 8 -30 22 -78 31 -107 17 -50 17 -52 -4 -74 -11 -13 -21
-28 -21 -35 0 -31 -20 -20 -46 23 -66 114 -242 255 -295 238 -24 -8 -24 -12 6
-77 14 -29 25 -63 25 -75 0 -21 -5 -23 -55 -23 -40 0 -65 -6 -90 -22 -39 -26
-45 -41 -31 -80 8 -22 6 -30 -12 -45 -25 -20 -43 -93 -23 -93 6 0 11 -17 11
-40 0 -27 7 -47 21 -61 23 -23 60 -23 184 1 28 5 66 12 85 16 46 8 29 -10 -25
-25 -42 -13 -87 -32 -95 -42 -3 -3 -21 -13 -40 -23 -52 -26 -76 -40 -94 -55
-16 -13 -36 -13 -178 5 -27 3 -48 9 -48 14 0 4 -26 19 -58 33 -31 14 -71 39
-87 55 -36 35 -95 173 -103 237 -10 93 34 325 72 375 6 8 20 33 31 55 42 86
132 181 210 222 57 30 65 31 151 28 55 -3 109 -11 135 -21z m-1992 -240 c20
-18 44 -34 53 -34 9 0 34 -18 55 -41 21 -22 51 -55 67 -71 51 -55 86 -120 86
-158 0 -21 8 -45 18 -56 18 -20 82 -140 82 -154 0 -5 18 -46 39 -92 67 -144
91 -248 57 -248 -8 0 -16 -3 -18 -7 -1 -5 -25 -20 -53 -35 -31 -17 -51 -34
-53 -47 -7 -47 -20 -14 -41 108 -24 134 -48 245 -75 346 -17 63 -66 186 -77
195 -3 3 -11 21 -18 40 -6 19 -27 61 -46 93 -19 32 -35 62 -35 68 0 5 -4 9
-10 9 -5 0 -10 4 -10 10 0 9 -19 35 -47 65 -7 8 -13 18 -13 23 0 6 -5 12 -12
14 -7 3 -8 9 -3 18 7 11 10 11 13 1 2 -7 21 -28 41 -47z m794 -96 c7 -148 -5
-393 -23 -463 -5 -22 -10 -55 -10 -72 0 -18 -5 -33 -11 -33 -7 0 -9 11 -5 33
14 66 18 342 7 468 -11 118 -10 134 5 170 10 21 21 39 24 39 4 0 10 -64 13
-142z m-465 22 c17 -16 32 -33 32 -38 0 -4 19 -20 42 -35 41 -26 80 -34 158
-28 35 2 108 45 117 68 24 63 31 -203 12 -422 -6 -66 -12 -133 -14 -149 -1
-21 -11 -36 -34 -50 -17 -12 -37 -32 -44 -46 -15 -31 -52 -38 -65 -13 -5 10
-15 41 -21 68 -7 28 -21 66 -31 85 -10 19 -29 64 -43 100 -49 126 -102 227
-144 275 -7 7 -13 18 -13 24 0 11 -35 77 -51 97 -6 8 2 26 23 52 18 23 35 41
38 41 3 0 20 -13 38 -29z m2700 -59 c17 -11 33 -21 36 -21 8 0 69 -64 84 -88
6 -12 12 -29 12 -37 0 -8 4 -15 8 -15 11 0 42 -89 42 -122 0 -15 5 -39 12 -55
26 -63 44 -324 28 -405 -25 -125 -29 -134 -110 -217 -94 -96 -188 -127 -296
-97 -119 34 -164 65 -164 113 0 10 -11 40 -25 68 -13 27 -26 57 -29 65 -3 8
-10 22 -16 30 -58 90 -107 181 -101 185 12 7 35 -22 70 -91 51 -99 103 -138
158 -119 55 19 76 47 76 99 0 40 4 46 28 56 15 7 30 19 33 27 10 25 -6 142
-20 154 -19 16 -17 39 3 39 36 0 133 33 133 46 0 20 -41 58 -80 76 -19 8 -68
23 -109 33 -66 16 -84 17 -175 5 -56 -7 -114 -20 -130 -27 -25 -13 -30 -13
-44 1 -22 22 -12 38 93 150 72 78 103 103 160 131 90 44 93 44 201 41 75 -3
97 -7 122 -25z m-845 -150 c48 -50 87 -96 87 -101 0 -5 11 -19 24 -32 21 -19
24 -28 18 -58 -6 -27 -13 -36 -32 -38 -33 -4 -80 -23 -80 -32 0 -4 -17 -10
-37 -13 -21 -3 -80 -15 -132 -26 -145 -32 -145 -32 -161 36 -12 56 -12 57 15
80 22 19 26 30 24 63 -2 22 2 45 8 51 6 6 41 14 77 16 54 5 67 9 72 25 8 25
-4 106 -17 113 -5 4 -9 13 -9 21 0 28 51 -10 143 -105z m657 -180 c3 -5 22
-11 43 -15 52 -10 43 -26 -24 -45 -30 -8 -57 -19 -61 -25 -12 -17 -9 -43 5
-58 20 -22 37 -67 37 -102 0 -31 -3 -34 -40 -40 -37 -6 -40 -9 -40 -37 0 -17
4 -38 9 -48 13 -23 3 -36 -41 -50 -34 -11 -39 -10 -61 11 -12 13 -29 39 -37
58 -16 39 -23 48 -92 127 -27 29 -48 60 -48 67 0 8 -11 28 -25 44 -24 28 -24
29 -7 64 18 38 12 35 172 62 38 7 204 -4 210 -13z m-1497 -110 c14 -6 34 -28
46 -55 19 -37 53 -74 128 -136 7 -6 17 -10 22 -10 6 0 30 -11 55 -25 25 -14
61 -25 83 -25 21 0 47 -7 58 -15 19 -15 18 -16 -10 -43 -76 -70 -141 -190
-151 -277 -10 -85 -16 -97 -65 -122 -115 -56 -249 -91 -381 -99 -110 -7 -135
-2 -208 42 -14 9 -37 21 -52 27 -16 6 -28 15 -28 19 0 4 -6 8 -14 8 -23 0
-116 32 -116 40 0 13 -95 70 -116 70 -10 0 -32 13 -49 28 -16 15 -46 35 -65
44 -63 30 -99 69 -106 115 -6 36 -4 44 12 50 11 3 37 18 59 33 37 24 128 70
140 70 11 0 45 35 45 46 0 6 15 17 33 24 32 13 128 69 137 81 15 19 132 56
235 74 22 4 43 11 46 16 3 6 50 14 105 18 54 5 107 9 116 10 9 0 28 -3 41 -8z
m937 -96 c0 -7 -6 -18 -13 -22 -17 -10 -63 -124 -79 -190 -6 -29 -15 -53 -19
-53 -4 0 -10 -18 -14 -40 -8 -45 -16 -49 -48 -19 -30 28 -59 38 -79 28 -23
-12 -68 -11 -68 1 0 18 99 171 138 212 20 22 57 53 81 69 49 31 101 39 101 14z
m48 -66 c2 -30 -3 -94 -12 -144 -26 -157 -29 -230 -8 -247 29 -25 60 -28 86
-7 36 28 53 24 81 -21 14 -22 31 -40 39 -40 32 0 41 32 40 136 -1 106 -1 108
-56 215 -10 20 -18 44 -18 52 0 8 -5 18 -10 20 -6 3 -5 4 2 3 6 -1 30 -38 52
-82 23 -43 44 -80 49 -82 4 -2 7 -13 7 -24 0 -11 9 -35 20 -54 32 -51 52 -166
57 -322 4 -117 2 -150 -11 -177 -9 -18 -16 -39 -16 -47 0 -18 -77 -98 -95 -98
-8 0 -15 -4 -15 -8 0 -4 -27 -14 -60 -21 -103 -23 -297 -5 -425 40 -16 6 -40
13 -52 16 -13 3 -23 9 -23 14 0 5 -6 9 -14 9 -14 0 -88 32 -120 53 -131 83
-195 208 -184 361 5 62 49 176 68 176 6 0 10 7 10 16 0 16 144 163 196 200 36
25 93 49 100 41 3 -3 -6 -24 -21 -47 -14 -22 -30 -51 -36 -63 -5 -12 -16 -33
-24 -47 -8 -14 -15 -41 -15 -61 0 -46 35 -69 75 -51 14 7 39 12 55 12 23 0 32
-7 47 -40 25 -54 48 -52 73 5 10 24 22 60 26 80 3 19 10 38 15 41 5 3 9 15 9
27 0 12 12 54 26 92 14 39 28 79 32 90 7 26 25 45 37 41 6 -1 11 -27 13 -57z
m140 -106 c36 -91 43 -123 48 -203 l6 -95 -29 32 c-35 39 -68 50 -91 30 -28
-23 -52 -28 -59 -11 -3 8 3 72 12 142 10 70 19 150 20 177 2 68 2 67 28 50 15
-9 38 -52 65 -122z"/>
</g>
</svg>
