<?xml version="1.0" standalone="no"?>
<!DOCTYPE svg PUBLIC "-//W3C//DTD SVG 20010904//EN"
 "http://www.w3.org/TR/2001/REC-SVG-20010904/DTD/svg10.dtd">
<svg version="1.0" xmlns="http://www.w3.org/2000/svg"
 width="650.000000pt" height="502.000000pt" viewBox="0 0 650.000000 502.000000"
 preserveAspectRatio="xMidYMid meet">
<metadata>
Created by potrace 1.16, written by Peter Selinger 2001-2019
</metadata>
<g transform="translate(0.000000,502.000000) scale(0.100000,-0.100000)"
fill="#000000" stroke="none">
<path d="M1921 4926 c-8 -9 -11 -44 -9 -98 l3 -83 80 -3 c44 -2 95 0 113 3
l33 6 -3 92 -3 92 -101 3 c-78 2 -104 -1 -113 -12z m199 -85 l0 -69 -82 -4
c-46 -2 -86 -2 -90 0 -5 2 -8 34 -8 73 l0 69 90 0 90 0 0 -69z"/>
<path d="M5297 4819 c-44 -10 -125 -50 -187 -92 -71 -48 -225 -183 -279 -245
l-50 -57 -61 61 c-120 120 -265 163 -445 131 -154 -27 -343 -105 -542 -223
-124 -73 -293 -188 -293 -200 0 -21 162 -66 327 -90 132 -19 422 -21 583 -4
63 6 216 31 340 56 300 58 434 74 685 81 221 6 452 -11 600 -43 144 -31 129
-35 150 37 24 85 24 202 1 249 -44 85 -106 121 -217 128 -92 5 -159 -14 -225
-65 -26 -19 -47 -33 -49 -31 -1 2 -12 37 -25 78 -54 182 -166 264 -313 229z
m141 -25 c20 -8 50 -27 65 -42 40 -37 86 -132 102 -209 8 -36 16 -67 18 -69 2
-3 20 11 40 29 95 93 237 118 350 63 102 -50 136 -149 102 -301 l-17 -77 -31
5 c-18 3 -84 15 -147 26 -353 61 -740 50 -1165 -34 -462 -91 -742 -106 -1040
-55 -119 20 -245 55 -245 69 0 13 253 173 382 240 358 187 581 218 772 106 44
-25 112 -93 134 -131 10 -17 20 -10 119 88 127 126 174 165 266 225 119 77
217 100 295 67z"/>
<path d="M412 4747 c-92 -35 -148 -120 -140 -213 6 -76 43 -125 135 -182 135
-84 169 -124 143 -171 -28 -52 -94 -6 -106 75 l-6 44 -57 -1 c-31 0 -76 -4
-101 -7 -43 -7 -45 -9 -42 -37 10 -99 65 -204 130 -247 100 -66 250 -58 326
18 58 58 88 172 66 252 -13 51 -67 113 -127 149 -23 13 -43 28 -43 32 0 5 39
16 86 26 l86 18 -7 36 c-14 79 -74 165 -139 198 -40 21 -161 27 -204 10z m197
-37 c47 -24 75 -55 100 -110 33 -72 30 -76 -48 -94 -39 -9 -72 -16 -74 -16 -2
0 -9 19 -16 43 -22 73 -62 97 -103 60 -42 -37 -4 -105 82 -148 138 -69 193
-136 191 -234 -2 -141 -81 -221 -218 -221 -85 0 -137 23 -186 81 -40 46 -87
173 -71 189 5 5 40 10 79 12 63 3 70 1 73 -17 7 -45 37 -97 64 -111 71 -37
124 37 83 115 -13 27 -82 79 -150 114 -120 62 -158 208 -77 298 58 65 185 83
271 39z"/>
<path d="M2935 4733 c-77 -40 -117 -109 -136 -231 -35 -230 75 -421 243 -422
26 0 59 5 73 12 31 14 40 6 26 -20 -17 -32 -74 -46 -129 -32 -46 11 -100 39
-126 65 -17 17 -24 11 -74 -59 -47 -68 -46 -71 25 -113 150 -88 362 -84 453 7
63 63 69 97 72 463 2 206 0 317 -7 318 -5 0 -46 6 -90 14 -68 11 -82 11 -91
-1 -10 -12 -16 -12 -47 1 -48 20 -153 19 -192 -2z m196 -24 c13 -8 26 -17 29
-21 10 -12 34 -13 36 0 1 6 2 17 3 23 1 10 31 8 111 -7 l25 -5 0 -317 c-1
-342 -3 -361 -58 -421 -73 -79 -256 -91 -391 -25 -87 43 -90 53 -37 123 l18
23 56 -32 c98 -55 198 -50 241 12 18 25 22 98 6 98 -5 0 -10 -4 -10 -9 0 -15
-83 -51 -116 -51 -49 0 -135 50 -166 95 -47 70 -61 133 -56 253 4 79 10 119
25 153 25 54 75 105 118 119 39 12 135 6 166 -11z"/>
<path d="M3006 4584 c-33 -34 -46 -81 -46 -169 1 -121 36 -185 101 -185 42 0
84 34 97 80 11 40 8 172 -6 212 -29 83 -96 111 -146 62z m76 -5 c34 -18 58
-86 58 -167 0 -114 -36 -173 -97 -157 -69 17 -82 247 -17 311 27 27 28 28 56
13z"/>
<path d="M794 4688 c2 -29 4 -225 5 -435 l1 -383 68 0 c37 0 84 3 106 7 l38 6
-7 88 c-3 49 -4 89 0 89 3 0 20 -7 38 -16 74 -39 206 -15 264 48 107 114 91
456 -26 579 -60 62 -177 89 -247 57 -22 -10 -28 -10 -32 0 -2 8 -34 12 -108
12 l-103 0 3 -52z m179 0 c-2 -33 13 -36 37 -8 36 41 113 52 178 24 107 -44
165 -171 166 -364 0 -153 -48 -250 -140 -280 -57 -19 -145 -9 -193 23 -41 27
-53 25 -47 -9 2 -11 6 -53 7 -94 l4 -75 -70 -7 c-39 -4 -76 -5 -82 -3 -10 3
-13 96 -13 415 l0 411 78 -3 77 -3 -2 -27z"/>
<path d="M1042 4565 c-44 -37 -66 -109 -60 -200 6 -84 28 -130 76 -158 42 -24
86 -14 116 26 29 39 36 198 12 261 -32 85 -93 114 -144 71z m97 -33 c43 -61
54 -198 21 -269 -17 -38 -23 -43 -53 -43 -70 0 -117 93 -102 202 16 120 86
177 134 110z"/>
<path d="M2470 4729 c-14 -6 -80 -10 -148 -9 l-123 1 5 -118 c3 -65 8 -230 11
-368 4 -137 9 -252 13 -256 4 -3 54 0 112 5 l105 11 -1 35 c-1 19 -5 131 -9
248 -9 242 -5 262 50 262 51 0 55 -20 55 -305 l0 -255 88 0 c48 0 97 3 109 6
l23 6 -6 272 c-3 150 -10 291 -17 316 -27 108 -171 188 -267 149z m168 -51
c25 -17 49 -45 63 -75 23 -46 24 -59 29 -318 3 -148 5 -271 5 -271 0 -1 -39
-5 -87 -9 l-88 -7 0 259 c0 284 -2 295 -59 308 -38 8 -66 -7 -86 -46 -14 -26
-14 -57 -5 -261 6 -127 7 -234 3 -238 -11 -10 -161 -21 -166 -12 -3 4 -8 161
-12 350 l-8 342 87 0 c85 0 86 0 86 -25 0 -32 6 -32 41 6 28 30 32 31 93 27
47 -3 74 -11 104 -30z"/>
<path d="M1693 4714 c-18 -9 -33 -20 -33 -25 0 -5 -4 -9 -10 -9 -5 0 -10 10
-10 21 0 21 -4 21 -104 17 -58 -2 -107 -6 -110 -8 -2 -3 -2 -171 1 -373 l6
-369 96 7 c135 10 142 14 135 67 -3 24 -9 108 -13 188 -7 137 -7 148 14 196
33 75 70 106 120 101 22 -2 47 -7 57 -11 18 -8 23 7 34 114 6 65 6 66 -23 79
-47 21 -124 24 -160 5z m144 -25 c18 -7 22 -14 18 -36 -2 -15 -7 -45 -10 -66
l-6 -38 -42 6 c-59 9 -102 -22 -146 -104 l-34 -64 12 -185 c6 -102 10 -187 8
-188 -7 -8 -172 -23 -178 -16 -4 4 -9 161 -11 350 -3 342 -3 342 18 342 12 0
49 3 83 6 l61 7 0 -42 c0 -51 15 -53 53 -6 41 51 99 63 174 34z"/>
<path d="M1919 4713 c0 -5 -1 -168 -1 -363 l0 -355 58 -8 c33 -4 84 -6 114 -5
l55 3 -2 100 c-1 55 -5 220 -9 368 l-6 267 -104 0 c-57 0 -104 -3 -105 -7z
m191 -140 c0 -71 3 -226 7 -345 l6 -218 -91 0 -92 0 0 345 0 345 85 0 85 0 0
-127z"/>
<path d="M3461 3933 c-37 -38 -44 -82 -40 -252 2 -72 3 -131 2 -131 -1 0 -13
11 -27 25 -20 20 -24 32 -20 55 11 52 -54 95 -111 74 -26 -10 -44 -62 -33 -94
8 -25 43 -50 71 -50 7 0 26 -22 44 -49 64 -99 186 -170 303 -179 41 -3 70 0
74 6 3 6 -28 29 -71 53 -43 23 -88 50 -101 60 -22 17 -21 17 55 23 244 19 353
47 417 106 37 35 41 43 41 85 0 42 -4 51 -35 77 -34 29 -38 30 -105 24 -67 -5
-240 -61 -271 -87 -17 -14 -21 -4 -28 81 -6 76 -30 151 -55 174 -9 9 -31 19
-49 22 -26 5 -36 1 -61 -23z m102 -22 c27 -33 43 -92 52 -190 3 -35 8 -67 11
-72 5 -9 -43 -36 -50 -28 -3 3 -9 33 -15 68 -13 81 -41 115 -88 107 -33 -5
-33 -5 -33 37 0 96 70 140 123 78z m-26 -182 c7 -19 12 -58 12 -86 1 -29 5
-53 10 -53 5 0 38 14 74 30 84 40 160 50 187 25 41 -37 17 -89 -54 -119 -85
-36 -261 -46 -296 -18 -44 36 -47 238 -4 269 24 18 55 -3 71 -48z m488 -4 c48
-47 22 -126 -54 -164 -37 -19 -146 -51 -172 -51 -8 0 1 12 19 26 26 20 32 33
32 62 0 46 -8 58 -43 71 -22 8 -45 7 -94 -4 -36 -9 -68 -14 -70 -12 -2 3 20
15 49 27 99 43 193 69 251 70 48 0 62 -4 82 -25z m-644 -161 c29 -35 191 -151
267 -191 17 -9 32 -20 32 -23 0 -15 -115 12 -168 40 -80 41 -172 134 -172 173
0 22 24 22 41 1z"/>
<path d="M1930 3865 c-168 -37 -370 -148 -505 -276 l-40 -38 -96 49 c-205 106
-358 146 -528 137 -123 -6 -186 -27 -302 -102 -91 -59 -219 -181 -219 -208 0
-31 56 -112 112 -162 92 -83 213 -125 359 -125 119 0 215 20 404 85 408 139
833 206 1408 222 130 3 237 8 237 10 0 12 -60 106 -101 158 -84 107 -196 187
-329 235 -54 20 -88 24 -200 27 -90 1 -156 -2 -200 -12z m275 -5 c156 -23 288
-92 400 -211 57 -60 132 -166 124 -173 -2 -2 -123 -8 -269 -15 -582 -26 -983
-92 -1349 -220 -77 -28 -175 -57 -218 -66 -106 -23 -250 -23 -338 0 -90 22
-193 90 -244 159 -65 87 -66 90 -30 131 55 62 191 166 264 201 168 80 291 83
514 12 83 -26 244 -98 306 -137 18 -11 26 -7 75 39 154 143 371 252 555 279
84 12 129 12 210 1z"/>
<path d="M5847 3320 c-71 -12 -147 -53 -204 -110 l-50 -50 -23 25 c-32 34
-114 71 -188 86 -155 30 -326 -60 -398 -208 -39 -78 -46 -212 -16 -291 l20
-53 -34 -31 c-121 -111 -157 -296 -85 -443 65 -131 178 -204 331 -213 l88 -5
11 -41 c27 -107 131 -214 240 -247 28 -8 43 -19 47 -33 2 -12 3 -156 2 -321
-3 -259 -5 -300 -18 -300 -10 0 -24 26 -40 70 -74 206 -176 306 -337 331 -36
6 -43 4 -54 -17 -7 -14 -15 -72 -17 -139 -3 -96 -1 -125 15 -173 11 -32 17
-59 14 -61 -3 -2 -49 -4 -101 -5 -340 -6 -710 -67 -1000 -165 -58 -20 -108
-36 -113 -36 -4 0 -6 224 -5 497 l3 498 57 7 c220 28 429 212 500 441 29 92
31 252 4 341 -49 166 -166 313 -304 384 -115 60 -180 76 -302 76 -178 0 -311
-56 -441 -184 -171 -168 -230 -419 -153 -645 64 -191 251 -359 449 -405 l70
-16 0 -523 0 -523 -145 -59 c-342 -140 -490 -171 -815 -172 -121 0 -237 3
-258 7 l-38 7 73 58 c113 90 213 201 260 287 30 57 51 145 45 193 -7 54 -40
134 -68 162 -20 20 -21 20 -112 -28 -178 -93 -311 -260 -377 -473 -13 -41 -26
-82 -29 -90 -3 -8 -7 268 -9 614 -1 346 0 631 2 634 3 2 27 -1 53 -7 83 -20
143 -21 211 -6 87 21 152 57 213 122 159 168 154 424 -11 590 -28 28 -64 56
-81 63 -26 11 -29 17 -29 60 0 176 -91 326 -245 401 -67 32 -75 34 -180 34
-105 0 -113 -2 -179 -34 -149 -72 -246 -228 -246 -392 0 -36 -3 -41 -34 -54
-35 -15 -122 -78 -144 -104 -144 -176 -136 -426 19 -580 115 -116 291 -154
444 -96 39 14 78 29 87 32 17 5 18 -27 18 -571 0 -525 -5 -639 -24 -543 -20
99 -115 290 -196 392 -83 103 -214 215 -232 197 -19 -19 -21 -164 -4 -236 43
-180 185 -372 394 -528 34 -26 59 -49 55 -51 -5 -2 -25 -2 -45 0 -29 4 -42 13
-64 44 -69 100 -201 169 -324 169 -60 0 -153 -24 -214 -55 l-49 -25 -111 21
c-61 12 -117 25 -123 28 -9 5 -4 19 17 51 48 72 70 142 70 223 -1 62 -5 80
-33 132 -26 49 -37 60 -55 58 -59 -7 -241 -121 -242 -152 0 -10 8 -7 25 9 14
13 28 20 31 17 4 -4 20 7 36 23 16 17 56 45 90 62 l60 32 24 -29 c35 -43 58
-128 51 -187 -8 -64 -45 -144 -101 -216 -79 -104 -78 -106 -74 56 3 125 1 142
-13 142 -13 0 -17 -18 -22 -98 -4 -53 -7 -124 -7 -157 0 -72 -8 -88 -41 -80
-14 3 -37 1 -52 -4 -24 -9 -27 -8 -32 12 -5 23 -25 262 -25 303 0 20 -5 24
-30 24 -16 0 -29 -3 -28 -7 1 -5 -9 -28 -24 -53 -15 -25 -32 -57 -39 -72 -10
-24 -18 -28 -51 -28 l-38 0 0 383 0 383 83 11 c162 22 254 76 298 176 21 46
23 67 23 177 0 75 -10 194 -24 300 -30 217 -34 549 -7 690 9 46 14 86 12 88
-8 8 -114 -61 -208 -135 -51 -40 -95 -73 -99 -73 -4 0 -43 40 -85 89 -58 67
-81 87 -90 79 -7 -5 -37 -47 -67 -93 -30 -46 -60 -86 -65 -90 -6 -3 -70 37
-142 89 -72 53 -136 96 -141 96 -5 0 -7 -9 -3 -19 16 -51 35 -251 35 -376 0
-77 -9 -245 -21 -375 -30 -343 -17 -443 69 -529 55 -54 139 -87 252 -97 l70
-7 0 -383 c0 -381 -4 -424 -32 -356 -86 206 -149 305 -267 422 -87 85 -135
120 -148 106 -4 -3 -9 -46 -11 -94 -7 -144 34 -266 138 -408 27 -38 50 -71 50
-75 0 -3 -26 -12 -58 -19 -140 -32 -362 -137 -362 -171 0 -6 19 3 43 19 80 56
235 119 345 141 l54 11 71 -65 c39 -36 95 -82 123 -102 l53 -38 1 -179 0 -179
-77 7 c-216 18 -351 25 -478 24 l-140 -1 100 -7 c55 -5 201 -13 325 -20 262
-13 529 -36 538 -44 6 -7 -11 -132 -23 -172 -6 -20 -1 -23 45 -33 66 -14 102
-13 175 4 54 13 69 13 148 -2 71 -13 98 -14 147 -5 49 9 78 8 151 -5 79 -15
96 -15 142 -2 50 13 85 16 322 22 72 2 125 9 154 20 26 10 72 17 117 17 44 0
74 4 74 10 0 6 -41 31 -92 55 -50 25 -93 47 -96 49 -2 3 101 5 229 6 358 1
745 23 959 55 298 44 848 64 1260 46 606 -27 946 -63 1265 -136 85 -19 169
-34 187 -34 25 1 17 5 -32 16 -36 8 -110 25 -165 38 -55 13 -130 29 -167 35
l-68 12 0 395 0 395 48 -6 c306 -43 588 -151 729 -279 13 -11 26 -18 29 -14
17 17 -159 134 -266 177 -30 12 -62 25 -71 30 -34 17 -230 69 -347 90 l-122
23 2 320 3 321 57 17 c153 45 254 159 280 313 3 16 14 19 73 21 145 6 263 83
327 213 30 61 33 74 33 162 0 87 -3 101 -32 161 -31 62 -92 131 -151 169 l-23
15 17 65 c24 94 15 182 -26 265 -37 74 -111 147 -178 176 -36 16 -155 42 -172
38 -3 -1 -27 -5 -53 -9z m194 -36 c101 -40 184 -127 213 -225 20 -67 21 -177
1 -227 l-16 -39 -67 15 c-55 13 -79 13 -135 4 -38 -7 -81 -19 -97 -27 -27 -14
-30 -13 -61 16 -19 16 -56 42 -84 56 -43 23 -62 27 -143 27 -88 1 -93 2 -99
24 -8 33 5 115 27 175 38 101 147 195 252 217 58 12 156 5 209 -16z m-566 -58
c28 -13 63 -36 80 -49 l30 -25 -19 -53 c-11 -29 -22 -91 -25 -137 l-6 -85 -45
-24 c-25 -13 -63 -41 -85 -62 l-40 -38 -45 14 c-67 21 -213 13 -267 -15 -23
-12 -44 -22 -46 -22 -2 0 -13 21 -23 48 -29 74 -25 192 8 263 34 73 87 132
159 174 69 40 89 44 194 40 61 -3 92 -9 130 -29z m-3123 -7 c131 -28 236 -110
292 -229 24 -52 31 -81 34 -152 l4 -88 42 -24 c63 -37 123 -103 159 -176 27
-54 33 -78 35 -150 8 -182 -73 -317 -236 -393 -118 -55 -282 -45 -381 24 -38
27 -45 28 -60 16 -36 -32 -120 -67 -188 -79 -209 -35 -407 99 -458 311 -15 62
-17 84 -7 143 21 139 108 260 226 314 l54 24 4 84 c4 69 10 96 36 148 87 174
265 265 444 227z m1675 -114 c170 -40 333 -167 406 -317 53 -109 70 -192 64
-308 -8 -162 -69 -295 -188 -410 -339 -327 -900 -158 -1014 305 -21 83 -15
242 11 315 73 206 244 366 441 414 77 19 203 19 280 1z m-2868 -62 c-4 -21
-14 -102 -20 -180 -13 -157 -6 -294 32 -603 28 -225 23 -338 -18 -411 -52 -92
-137 -133 -315 -149 -124 -12 -257 -2 -345 25 -69 21 -127 69 -159 132 -36 71
-42 200 -21 443 31 351 31 477 1 700 l-7 52 84 -61 c46 -33 105 -77 131 -96
l48 -35 28 39 c15 21 45 66 67 100 21 33 42 61 46 61 3 0 41 -41 84 -90 50
-58 82 -87 89 -82 6 5 45 35 86 68 90 72 183 133 191 128 4 -2 3 -21 -2 -41z
m4637 -205 c140 -72 208 -243 155 -391 -26 -75 -74 -133 -146 -176 -50 -30
-67 -35 -140 -39 -73 -4 -89 -1 -143 23 -72 32 -143 102 -174 172 -32 73 -30
181 4 255 38 82 102 141 186 174 61 23 196 13 258 -18z m460 -78 c72 -37 121
-86 162 -165 24 -45 27 -60 27 -155 0 -96 -2 -110 -28 -159 -64 -120 -170
-190 -301 -199 l-74 -4 -7 53 c-9 68 -30 121 -70 183 l-32 48 19 39 c45 93 44
210 -3 306 -11 23 -18 47 -14 53 13 22 101 40 177 37 64 -3 89 -9 144 -37z
m-933 -11 c15 -7 27 -15 27 -18 0 -3 -9 -30 -20 -60 -38 -99 -25 -215 34 -309
25 -41 122 -122 144 -122 20 0 13 -18 -20 -57 -75 -87 -150 -125 -259 -131
-154 -9 -272 59 -347 202 -24 46 -27 61 -27 151 1 81 5 109 23 148 43 94 148
181 249 207 48 12 160 6 196 -11z m645 -472 c83 -140 61 -318 -53 -432 -179
-180 -478 -128 -581 100 -37 84 -39 96 -14 102 68 18 169 93 197 146 14 29 14
29 88 22 104 -10 194 18 262 80 26 24 53 43 58 41 6 -1 25 -28 43 -59z m-3675
-259 c15 -7 30 -22 33 -33 2 -11 3 -407 2 -880 l-3 -860 -35 0 -35 0 -3 893
c-1 490 2 892 6 892 4 0 20 -6 35 -12z m1617 -902 l0 -764 -25 -6 c-14 -4 -30
-4 -35 -1 -6 4 -10 296 -10 771 l0 764 35 0 35 0 0 -764z m1768 -124 l2 -723
-37 3 -38 3 -3 723 -2 723 37 -3 38 -3 3 -723z m-4898 188 c0 -975 2 -880 -19
-880 -54 0 -51 -44 -51 689 0 373 3 681 7 685 4 4 20 6 35 4 l28 -3 0 -495z
m4517 256 c96 -49 170 -146 218 -288 25 -75 60 -267 50 -276 -8 -9 -118 19
-174 44 -155 69 -243 186 -258 347 -5 59 9 175 24 201 9 14 89 -2 140 -28z
m-3438 -13 c111 -91 189 -188 256 -319 65 -127 138 -365 120 -394 -13 -21
-195 138 -283 247 -111 137 -162 263 -162 404 0 78 4 99 18 99 3 0 26 -17 51
-37z m-1528 -28 c161 -135 271 -319 339 -565 20 -75 26 -140 13 -140 -14 0
-96 69 -180 150 -141 137 -220 268 -249 415 -18 84 -12 185 10 185 7 0 37 -20
67 -45z m2561 -145 c83 -169 -25 -373 -312 -587 -98 -74 -207 -143 -223 -143
-17 0 1 156 29 258 40 148 115 285 203 372 78 78 216 162 256 157 13 -1 29
-21 47 -57z m2332 -234 c72 -76 167 -128 284 -154 l77 -18 3 -283 2 -284 -52
7 c-333 41 -806 66 -1255 66 -234 0 -352 3 -348 10 3 6 29 10 57 10 60 0 156
24 212 52 58 29 143 120 171 180 43 94 67 257 49 325 -7 27 -32 24 -105 -13
-160 -80 -289 -226 -371 -419 -17 -39 -17 -37 -17 166 l-1 206 123 41 c307
104 650 160 1041 170 l69 2 61 -64z m-4246 -173 c1 -103 -1 -202 -4 -218 -4
-25 -20 -40 -79 -78 -41 -26 -77 -47 -81 -47 -13 0 6 185 26 260 23 84 116
283 129 276 4 -3 9 -90 9 -193z m31 -11 c5 -67 13 -127 16 -132 4 -7 17 -4 36
7 24 15 34 15 61 5 21 -8 35 -8 43 -2 10 8 14 -27 18 -147 5 -169 19 -254 44
-275 11 -9 72 -15 202 -20 197 -7 241 -15 340 -65 81 -40 167 -38 252 6 l62
33 61 -17 c75 -21 217 -85 211 -95 -3 -4 -32 -8 -65 -9 -33 0 -78 -8 -101 -17
-31 -13 -58 -15 -119 -10 -49 4 -89 2 -106 -5 -16 -6 -69 -12 -119 -14 -49 -1
-108 -6 -129 -10 -23 -5 -75 -2 -124 5 -67 11 -96 11 -141 2 -47 -10 -69 -9
-138 5 -71 15 -93 15 -153 5 -84 -14 -165 -16 -189 -3 -16 9 -16 15 -4 83 9
48 16 197 20 436 3 199 7 361 9 359 2 -1 8 -58 13 -125z m3401 17 c0 -208 -96
-367 -260 -430 -59 -23 -205 -47 -216 -36 -13 13 61 183 117 267 31 47 84 111
120 143 63 57 213 142 230 131 5 -3 9 -37 9 -75z m-2445 -26 c265 -136 288
-483 40 -603 -124 -60 -260 -20 -326 95 -51 89 -36 193 39 255 38 31 105 51
147 43 14 -3 43 -22 66 -42 46 -41 61 -98 39 -151 -15 -36 -67 -70 -107 -70
-36 0 -79 37 -89 75 -16 64 71 111 116 63 20 -21 22 -21 18 -3 -5 27 -48 50
-81 41 -91 -22 -89 -148 3 -186 41 -17 96 -1 135 40 25 27 29 38 30 89 0 48
-5 64 -27 93 -80 105 -249 80 -313 -46 -35 -69 -33 -127 5 -202 16 -32 30 -60
30 -61 0 -1 -19 5 -42 13 -28 10 -90 17 -173 20 l-130 4 -3 77 c-5 133 30 235
114 331 58 67 120 109 203 139 55 20 80 23 156 20 77 -3 99 -8 150 -34z m-559
-15 l111 -21 -51 -51 c-96 -97 -148 -229 -145 -371 2 -79 1 -80 -22 -78 -55 6
-66 13 -78 50 -14 45 -34 377 -25 407 9 28 65 85 84 86 8 0 65 -10 126 -22z
m2414 -232 l0 -233 -92 -7 c-51 -4 -181 -18 -288 -31 -107 -13 -253 -29 -325
-35 -159 -12 -754 -32 -766 -24 -5 3 -9 59 -9 125 0 105 2 120 18 126 9 4 51
28 92 54 l75 47 225 -5 c393 -10 559 21 925 170 72 30 133 52 138 50 4 -2 7
-109 7 -237z m-1596 68 c14 -5 16 -32 16 -199 0 -167 -2 -194 -16 -199 -34
-13 -114 -2 -114 16 0 5 11 24 24 41 58 78 77 177 52 276 -9 34 -16 65 -16 67
0 6 36 5 54 -2z m-1253 -211 c-1 -70 -6 -132 -10 -136 -4 -4 -43 -5 -85 -1
l-77 7 3 85 3 85 80 48 c43 26 81 46 83 44 2 -2 3 -62 3 -132z"/>
<path d="M2186 2875 c-91 -32 -160 -116 -179 -217 -12 -64 -14 -69 -58 -96
-51 -33 -104 -106 -120 -166 -14 -52 -4 -139 22 -193 62 -128 240 -187 366
-121 l50 27 43 -21 c54 -27 133 -34 200 -18 72 17 151 91 180 168 39 101 7
232 -72 296 -18 15 -41 34 -50 42 -13 10 -18 28 -18 64 0 64 -28 121 -85 176
-71 68 -186 92 -279 59z m211 -31 c29 -14 66 -41 82 -60 32 -40 61 -119 62
-173 0 -31 7 -41 48 -73 166 -126 119 -387 -81 -454 -61 -20 -137 -13 -197 20
l-43 22 -55 -28 c-76 -38 -159 -39 -229 -2 -66 34 -89 58 -119 118 -66 131 -2
304 131 356 17 7 22 20 27 69 6 74 40 136 98 182 80 63 178 71 276 23z"/>
<path d="M2215 2575 c-36 -35 -34 -88 4 -126 33 -33 58 -36 102 -14 53 28 63
87 23 134 -34 41 -92 44 -129 6z m121 -20 c20 -30 13 -81 -14 -101 -9 -7 -32
-14 -50 -14 -26 0 -36 6 -52 32 -33 55 -3 108 61 108 30 0 42 -6 55 -25z"/>
<path d="M2116 2404 c-55 -55 -23 -138 57 -151 32 -5 40 -1 67 27 39 41 39 78
1 119 -38 41 -87 43 -125 5z m93 1 c16 -8 31 -22 35 -30 28 -74 -48 -134 -112
-89 -16 11 -22 25 -22 53 0 42 22 68 68 80 2 1 16 -6 31 -14z"/>
<path d="M2337 2419 c-9 -5 -24 -24 -33 -40 -46 -89 66 -171 138 -102 21 20
28 36 28 64 0 64 -78 110 -133 78z m91 -25 c27 -19 30 -78 5 -106 -22 -24 -77
-24 -103 2 -62 62 25 155 98 104z"/>
<path d="M3974 2869 c-11 -6 -28 -23 -37 -39 -28 -47 -20 -96 23 -145 18 -19
17 -24 -12 -146 l-30 -127 -41 -5 c-23 -3 -45 -2 -50 2 -4 4 -23 61 -41 126
l-35 119 25 29 c31 37 33 103 4 140 -27 34 -76 50 -118 38 -109 -32 -104 -181
8 -211 l36 -10 36 -127 c32 -116 34 -130 20 -145 -8 -10 -18 -18 -21 -18 -4 0
-35 25 -69 57 -57 51 -62 59 -57 85 8 34 -11 86 -40 110 -13 11 -38 17 -68 18
-41 0 -53 -5 -78 -29 -23 -24 -29 -38 -29 -74 0 -80 70 -132 145 -107 34 11
36 10 95 -41 33 -30 60 -58 60 -64 0 -5 -7 -30 -16 -55 -32 -93 15 -210 106
-258 38 -20 56 -23 117 -20 61 3 78 8 114 34 86 63 118 188 71 280 l-21 41 54
53 c53 52 56 54 105 51 46 -2 54 1 85 32 26 26 35 44 35 69 0 106 -128 156
-196 75 -24 -28 -26 -37 -21 -87 l6 -55 -51 -52 -51 -51 -33 16 c-19 8 -34 22
-34 30 0 12 20 94 50 212 8 28 17 39 46 49 84 30 98 140 24 198 -18 15 -87 16
-116 2z m96 -14 c98 -51 42 -198 -65 -171 -62 16 -86 97 -45 149 18 22 30 28
73 36 4 0 21 -6 37 -14z m-326 -20 c60 -39 54 -132 -9 -162 -40 -19 -77 -12
-111 22 -74 74 32 198 120 140z m546 -222 c29 -17 40 -39 40 -84 0 -58 -69
-98 -128 -74 -37 16 -52 42 -52 90 0 71 74 108 140 68z m-721 -32 c42 -40 43
-90 2 -132 -47 -47 -117 -34 -146 27 -45 94 68 176 144 105z m391 -201 c69
-19 140 -121 140 -200 0 -40 -33 -110 -66 -142 -78 -73 -191 -76 -271 -5 -70
62 -91 152 -53 236 46 100 140 142 250 111z"/>
<path d="M4494 1825 c-37 -37 -56 -90 -62 -177 -2 -43 -9 -78 -13 -78 -5 0
-34 11 -65 25 -87 38 -186 65 -242 65 -43 0 -57 -5 -84 -29 -29 -26 -33 -35
-32 -77 1 -43 5 -52 41 -84 34 -29 83 -51 171 -76 29 -8 182 -24 245 -25 37
-1 67 -5 67 -10 0 -10 -40 -38 -123 -83 -37 -21 -65 -42 -61 -47 9 -15 89 -10
155 11 98 30 195 103 230 173 12 23 26 37 39 37 34 0 73 43 72 79 -1 46 -27
71 -72 71 -47 0 -74 -28 -72 -74 1 -23 -6 -40 -23 -56 l-25 -23 0 152 c0 156
-8 197 -44 234 -26 25 -72 21 -102 -8z m109 -37 c10 -20 21 -53 24 -73 6 -35
5 -36 -21 -29 -65 16 -96 -18 -109 -120 -8 -59 -10 -61 -35 -47 -18 9 -19 19
-15 88 9 151 45 227 106 221 26 -2 36 -11 50 -40z m4 -135 c14 -21 18 -46 17
-108 -2 -93 -13 -127 -49 -151 -22 -15 -37 -15 -130 -5 -144 15 -225 53 -225
104 0 65 75 73 200 22 47 -19 86 -35 88 -35 1 0 2 19 2 43 1 85 31 157 66 157
8 0 22 -12 31 -27z m-351 -38 c64 -22 201 -86 152 -71 -73 22 -139 29 -163 18
-51 -23 -55 -95 -7 -132 14 -11 23 -22 21 -25 -7 -7 -118 24 -166 47 -80 38
-108 114 -58 163 34 34 119 34 221 0z m464 -164 c0 -31 -103 -134 -168 -169
-37 -20 -81 -34 -118 -38 l-59 -6 95 60 c52 33 124 85 160 116 70 59 90 67 90
37z"/>
</g>
</svg>
