<?xml version="1.0" standalone="no"?>
<!DOCTYPE svg PUBLIC "-//W3C//DTD SVG 20010904//EN"
 "http://www.w3.org/TR/2001/REC-SVG-20010904/DTD/svg10.dtd">
<svg version="1.0" xmlns="http://www.w3.org/2000/svg"
 width="768.000000pt" height="940.000000pt" viewBox="0 0 768.000000 940.000000"
 preserveAspectRatio="xMidYMid meet">
<metadata>
Created by potrace 1.16, written by Peter Selinger 2001-2019
</metadata>
<g transform="translate(0.000000,940.000000) scale(0.100000,-0.100000)"
fill="#000000" stroke="none">
<path d="M706 8961 c-9 -13 7 -23 179 -108 228 -114 296 -159 520 -348 39 -33
90 -76 114 -95 36 -29 90 -85 246 -260 49 -55 122 -147 140 -175 11 -16 22
-32 25 -35 28 -26 270 -383 270 -398 0 -8 -28 -12 -94 -12 l-93 0 -26 -37
c-47 -71 -72 -167 -72 -283 0 -58 4 -124 8 -147 l9 -43 -39 0 c-49 0 -142 -25
-160 -43 -12 -12 -11 -25 6 -88 23 -86 28 -124 41 -315 13 -195 34 -249 160
-408 85 -109 234 -234 329 -279 128 -60 308 -42 383 39 62 67 141 81 235 42
92 -38 68 -46 -76 -26 l-84 11 -41 -44 c-23 -25 -56 -62 -74 -83 -20 -24 -38
-36 -47 -32 -9 3 -15 0 -15 -10 0 -11 8 -14 27 -12 19 2 44 24 87 75 62 73 90
93 108 75 25 -25 172 -500 239 -772 4 -19 17 -66 27 -105 44 -158 74 -274 88
-343 8 -40 18 -80 21 -88 3 -7 1 -14 -4 -14 -5 0 -21 26 -36 58 -15 31 -55
109 -89 173 -35 64 -86 159 -114 212 -50 92 -228 364 -300 457 -84 109 -327
327 -412 371 -15 8 -61 35 -103 60 -158 96 -315 143 -428 128 -282 -37 -306
-38 -441 -29 -188 14 -210 15 -219 4 -166 -172 -283 -415 -366 -754 -40 -164
-48 -489 -12 -477 7 2 44 63 82 135 77 146 135 247 159 277 9 11 26 36 39 55
129 195 258 362 371 478 84 86 102 89 216 42 136 -56 244 -133 459 -328 l54
-48 -59 -97 -59 -96 -6 35 c-9 53 -57 114 -113 143 -99 51 -271 33 -348 -37
-58 -52 -70 -82 -66 -161 l3 -66 -45 -1 c-100 -2 -153 -32 -190 -105 -25 -48
-25 -76 0 -164 11 -38 27 -103 35 -143 8 -40 21 -85 29 -101 19 -36 80 -82
120 -91 l31 -6 -41 -21 c-56 -30 -138 -106 -158 -147 -44 -92 -3 -198 98 -256
54 -30 62 -32 138 -28 l82 3 22 -40 c42 -76 76 -100 181 -126 131 -33 231 -5
311 87 45 50 56 86 51 163 -2 28 -2 51 -1 51 2 0 23 -22 47 -48 51 -56 130
-102 182 -106 38 -2 38 -2 40 -49 l2 -47 -60 0 c-48 0 -71 -6 -117 -31 -85
-46 -106 -78 -110 -163 -2 -55 1 -79 16 -106 23 -43 104 -100 142 -100 23 0
30 -6 39 -32 7 -18 26 -48 44 -66 l32 -33 -100 3 -100 3 -6 45 c-10 87 -69
164 -159 211 -36 19 -60 24 -120 23 -95 -1 -174 -36 -241 -106 l-47 -49 -7 63
c-4 35 -20 97 -36 139 -53 137 -142 205 -286 216 -60 5 -78 2 -116 -16 -55
-27 -127 -102 -127 -133 0 -13 -9 -43 -20 -67 -19 -42 -21 -43 -58 -37 -121
20 -125 19 -174 -14 -68 -45 -110 -132 -116 -240 -5 -91 12 -139 75 -203 48
-50 95 -73 188 -94 41 -9 74 -21 72 -26 -2 -6 -21 -15 -43 -22 -67 -20 -117
-51 -164 -102 -60 -66 -80 -103 -87 -162 -5 -46 -2 -56 35 -118 22 -37 48 -84
57 -104 22 -46 47 -61 114 -68 54 -6 55 -7 65 -47 22 -80 66 -114 146 -114 30
1 66 7 80 15 32 18 40 18 40 2 0 -26 60 -97 99 -117 22 -11 57 -20 78 -20 49
0 121 28 128 50 3 10 15 26 26 36 17 16 26 16 72 7 46 -10 61 -8 129 13 42 14
96 33 120 44 l42 19 41 -67 c46 -77 202 -237 290 -299 198 -138 293 -197 460
-287 175 -93 413 -194 560 -236 30 -8 175 -35 248 -45 20 -3 37 -10 37 -16 0
-5 -18 -35 -41 -65 -22 -30 -57 -90 -77 -132 -31 -65 -36 -87 -37 -147 0 -59
4 -75 25 -105 30 -42 76 -83 142 -128 26 -18 48 -37 48 -42 0 -6 -15 -10 -32
-10 -18 -1 -105 -5 -193 -10 -134 -7 -186 -15 -320 -49 -174 -43 -200 -52
-322 -113 -88 -43 -184 -122 -209 -171 -30 -57 0 -170 58 -225 34 -31 135 -91
183 -108 75 -27 120 -42 210 -68 50 -15 104 -30 120 -35 17 -5 59 -14 95 -20
36 -6 108 -19 160 -28 81 -15 148 -18 455 -16 388 1 525 11 705 50 63 14 134
29 158 34 105 21 301 125 350 185 29 35 32 36 75 30 73 -11 106 11 141 96 23
57 27 80 23 119 -4 32 -2 49 5 49 5 0 7 7 4 16 -6 15 22 69 32 59 3 -3 -3 -14
-13 -25 -20 -22 -14 -40 8 -22 24 20 59 101 52 122 -9 29 -34 25 -41 -7 -8
-35 -56 -113 -69 -113 -6 0 -16 14 -24 31 -16 37 -94 96 -138 105 -45 8 -72 0
-132 -40 l-51 -35 -68 29 c-163 69 -539 150 -698 150 -24 0 -44 5 -44 10 0 6
19 27 41 47 23 21 53 56 68 78 23 36 26 50 26 135 0 83 -5 107 -34 190 -18 52
-40 104 -48 116 -16 25 -10 32 27 32 91 -1 364 58 500 106 36 13 97 34 135 46
73 23 247 106 326 156 78 49 300 202 309 213 3 4 32 29 65 56 33 28 72 63 87
80 15 16 29 27 32 24 3 -3 17 -89 31 -191 30 -223 37 -259 50 -259 16 -1 54
121 65 208 6 43 15 108 20 145 6 37 10 114 10 171 l0 104 50 54 c56 61 208
258 234 304 9 17 32 57 51 90 19 33 35 67 35 75 1 36 16 42 51 21 19 -12 42
-18 55 -15 13 3 34 -2 49 -12 33 -22 112 -21 155 1 36 19 83 80 117 154 19 39
26 72 27 122 1 68 2 69 39 94 20 14 46 44 57 65 23 44 31 48 55 23 15 -14 15
-18 2 -27 -20 -15 -77 -124 -77 -148 0 -10 6 -34 14 -53 18 -43 55 -55 100
-32 17 8 44 18 59 22 16 3 50 26 77 51 99 92 129 167 87 217 -20 24 -31 27
-84 29 -53 1 -68 -3 -101 -26 -39 -26 -39 -27 -70 -9 -26 14 -32 25 -32 51 0
18 -7 49 -15 70 -19 44 -82 112 -105 112 -27 0 -30 11 -13 44 10 19 16 52 15
89 -2 56 -1 57 27 57 27 0 28 -3 34 -55 4 -42 14 -66 39 -98 66 -84 101 -100
195 -85 63 10 72 15 124 65 66 64 77 102 54 199 -11 50 -21 65 -62 102 -26 24
-58 48 -70 53 -26 10 -22 31 10 48 12 7 35 33 51 58 36 56 38 108 7 175 -29
64 -71 103 -131 123 -48 16 -54 16 -103 0 -64 -21 -115 -58 -123 -90 -7 -28
-26 -32 -44 -9 -19 22 -44 33 -96 43 -38 7 -56 5 -95 -11 -27 -12 -49 -25 -49
-29 0 -13 12 -11 53 6 39 16 82 12 132 -13 76 -37 109 -97 109 -197 -1 -78
-12 -103 -77 -169 -31 -32 -46 -40 -85 -43 -39 -4 -54 0 -85 21 -21 14 -46 26
-56 26 -24 0 -49 53 -61 125 -5 31 -12 59 -15 65 -7 12 29 107 51 131 19 21 6
26 -18 7 -14 -12 -36 -55 -52 -102 -6 -16 -9 -15 -37 12 -39 38 -158 61 -193
36 -11 -8 -34 -14 -51 -14 -41 0 -117 -79 -120 -124 -1 -17 -5 -60 -8 -95 -6
-69 0 -83 70 -153 30 -30 25 -52 -5 -25 -23 21 -97 22 -135 2 -28 -14 -31 -13
-90 33 -62 47 -62 47 -139 47 l-78 0 0 45 0 45 43 -3 c96 -8 207 91 244 217
19 66 13 213 -11 301 -9 30 -18 66 -21 80 -6 24 -6 25 10 5 9 -11 32 -51 52
-88 73 -138 175 -219 297 -236 139 -20 268 37 322 141 16 31 16 32 -8 52 -46
38 -62 92 -34 115 7 6 43 14 79 18 63 6 67 8 92 44 32 50 59 161 51 217 -9 66
-40 126 -87 169 -61 55 -116 86 -172 94 -60 10 -65 14 -44 37 9 10 24 51 33
90 26 114 1 235 -69 335 -15 22 -10 25 93 66 195 77 539 177 545 158 2 -7 11
-77 19 -157 15 -140 34 -247 75 -435 21 -95 88 -258 102 -249 5 3 9 87 9 187
0 100 7 250 16 332 8 83 18 196 21 252 5 90 3 106 -16 145 -11 24 -29 53 -38
64 -10 11 -40 49 -67 84 -27 36 -74 93 -103 127 -29 33 -53 66 -53 72 0 29
-270 -7 -480 -64 -94 -25 -353 -111 -500 -166 -183 -67 -403 -173 -528 -252
-51 -33 -95 -57 -99 -54 -9 10 75 224 142 356 34 70 99 180 145 246 45 66 87
130 93 143 14 29 23 28 54 -8 14 -17 45 -44 70 -61 43 -30 45 -30 64 -13 23
21 24 52 3 82 -9 13 -14 25 -13 26 2 2 52 6 111 9 105 6 109 5 138 -20 17 -14
72 -39 123 -55 86 -28 99 -30 207 -25 146 6 245 35 401 116 65 33 134 63 154
67 20 3 39 13 42 21 3 8 -4 36 -17 63 l-23 48 22 36 c20 32 21 37 7 70 -17 41
-83 79 -156 90 -82 12 -122 26 -117 41 3 7 26 39 50 71 113 149 180 347 181
534 0 92 -3 115 -30 190 -30 85 -111 218 -179 294 -42 47 -65 45 -126 -14 -23
-22 -44 -40 -46 -40 -1 0 -3 9 -3 20 0 35 -31 99 -51 105 -11 4 -42 1 -69 -6
-65 -17 -92 -4 -108 48 -6 22 -34 64 -62 94 -27 30 -64 82 -81 117 -18 34 -35
62 -38 62 -3 0 -21 -9 -39 -20 -18 -11 -41 -20 -51 -20 -10 0 -30 -10 -45 -21
-15 -12 -28 -20 -30 -18 -2 2 -11 19 -20 36 -22 44 -63 64 -107 54 -74 -17
-148 -62 -226 -139 -87 -84 -127 -146 -152 -233 -9 -31 -20 -58 -26 -59 -12
-4 -63 68 -67 95 -6 37 -41 28 -93 -22 -111 -107 -195 -267 -244 -468 -51
-203 -43 -381 24 -581 44 -131 82 -192 182 -291 50 -50 155 -113 188 -113 28
0 15 -18 -51 -66 -69 -51 -84 -69 -84 -104 0 -29 20 -24 163 41 60 28 112 48
115 45 3 -4 -24 -50 -59 -104 -76 -112 -132 -208 -182 -307 -60 -120 -158
-347 -180 -417 l-22 -68 -65 0 c-122 0 -197 -55 -257 -190 -14 -30 -32 -70
-40 -88 -8 -18 -11 -41 -8 -52 5 -14 -7 -28 -51 -61 -31 -23 -100 -84 -152
-136 l-95 -95 -34 41 c-43 50 -85 77 -152 97 -27 8 -52 18 -55 23 -3 5 3 26
14 47 10 22 19 33 20 26 0 -24 24 -6 32 24 4 16 18 71 30 122 20 82 26 93 48
98 42 9 80 26 107 47 33 26 73 112 73 157 0 69 7 78 63 85 29 4 63 16 76 26
13 11 28 19 33 19 29 0 100 127 102 181 0 22 -11 59 -29 94 -23 46 -40 64 -74
82 -24 12 -49 31 -56 40 -11 15 -29 18 -101 18 -71 0 -92 3 -109 18 -11 11
-36 29 -55 41 l-35 22 3 71 c2 60 -1 80 -22 121 -34 67 -71 108 -102 116 l-27
7 6 152 c7 174 17 259 53 442 46 231 103 434 187 660 109 296 178 443 267 575
20 30 47 75 60 100 27 55 106 174 127 191 12 10 33 10 101 1 88 -12 224 -34
317 -52 186 -35 498 -72 638 -75 96 -2 107 0 107 15 0 19 -13 25 -130 60 -156
46 -304 106 -530 212 -145 69 -243 110 -295 124 -115 32 -211 10 -354 -81
-112 -70 -180 -100 -263 -115 -64 -12 -69 -15 -102 -60 -19 -27 -43 -57 -52
-69 -46 -53 -194 -344 -245 -482 -92 -249 -123 -339 -212 -628 l-23 -75 -61 3
c-96 4 -156 -28 -196 -104 -29 -54 -31 -197 -4 -238 26 -40 59 -57 113 -61 27
-1 49 -7 48 -12 0 -16 -15 -85 -39 -189 -13 -55 -35 -174 -49 -265 -15 -91
-29 -178 -33 -195 -7 -28 -8 -26 -14 20 -3 28 -14 100 -23 160 -19 124 -47
352 -76 625 -11 101 -25 189 -30 194 -17 17 -11 25 28 32 56 10 90 31 108 67
9 17 23 40 31 49 10 11 15 42 16 91 2 66 -1 79 -28 122 -22 35 -44 55 -82 74
-33 17 -50 31 -47 40 2 7 0 19 -6 26 -7 9 -6 16 3 23 14 12 72 -3 99 -26 8 -6
18 -9 22 -5 3 4 28 8 55 9 33 1 55 8 69 22 11 11 26 24 33 28 34 22 53 84 54
174 0 85 -1 90 -30 120 -42 45 -102 77 -165 91 -30 6 -58 16 -62 22 -3 5 -9
34 -13 63 -6 47 -13 60 -53 101 -26 25 -66 55 -90 65 -44 20 -44 21 -9 70 22
29 25 89 10 153 -19 77 -37 99 -115 137 -68 34 -77 36 -130 28 -31 -4 -67 -15
-80 -24 -12 -9 -30 -16 -39 -16 -9 0 -38 -29 -64 -65 -35 -47 -54 -65 -71 -65
-13 0 -26 -5 -29 -10 -4 -6 -16 -8 -27 -5 -11 4 -26 1 -36 -8 -9 -9 -29 -20
-44 -26 -15 -6 -39 -27 -52 -48 -22 -33 -26 -51 -27 -121 -1 -70 3 -90 25
-136 14 -29 46 -71 71 -94 44 -40 46 -40 113 -38 67 3 166 29 177 47 14 21 22
6 22 -38 0 -27 3 -57 6 -68 6 -16 0 -23 -33 -38 -101 -47 -152 -197 -101 -297
46 -87 174 -141 275 -115 l29 8 -28 -52 c-36 -66 -41 -176 -10 -228 11 -18 23
-33 26 -33 4 0 11 -9 14 -21 7 -22 59 -49 114 -58 34 -6 35 -7 48 -81 7 -41
17 -113 23 -160 6 -47 15 -112 20 -145 5 -33 16 -118 25 -190 16 -138 33 -271
65 -503 16 -119 17 -158 8 -240 -5 -53 -8 -163 -5 -244 l5 -146 -33 -6 c-23
-5 -46 -20 -69 -48 -35 -41 -35 -41 -44 -17 -25 67 -95 270 -137 398 -41 126
-44 145 -32 160 30 33 49 86 63 169 7 46 18 89 23 96 19 23 51 123 72 225 38
188 22 286 -82 509 -62 132 -138 240 -248 350 -47 48 -104 109 -126 136 -53
65 -64 76 -79 76 -26 0 -65 -41 -91 -95 -27 -57 -38 -66 -49 -39 -5 14 -103
167 -150 235 -98 143 -129 185 -180 249 -74 93 -133 159 -250 278 -200 205
-549 389 -921 486 -33 9 -124 34 -203 56 -195 54 -322 74 -336 51z m153 -32
c25 -5 89 -23 141 -39 52 -16 146 -43 209 -60 145 -40 352 -116 456 -167 223
-110 356 -206 521 -376 138 -142 196 -214 330 -412 44 -66 108 -160 142 -208
34 -48 62 -92 62 -97 0 -5 -12 -13 -27 -16 -16 -4 -33 -10 -38 -15 -6 -4 -36
-7 -67 -6 -42 1 -62 -4 -77 -17 -18 -17 -22 -17 -92 4 -39 12 -96 24 -124 27
-49 5 -54 8 -75 47 -37 66 -324 465 -387 537 -32 36 -94 108 -138 159 -181
210 -483 444 -702 545 -181 84 -213 100 -213 109 0 4 8 5 17 2 9 -4 37 -11 62
-17z m2402 -17 c13 -10 35 -23 49 -29 56 -24 86 -171 52 -253 -26 -61 -119
-106 -201 -97 -103 11 -144 35 -156 88 -4 16 -13 33 -22 37 -9 6 -16 28 -18
59 -3 46 0 55 29 89 18 22 36 49 40 62 5 16 15 22 34 22 15 0 37 6 48 14 11 8
38 16 60 19 21 2 44 4 50 5 6 1 22 -6 35 -16z m1874 -25 c33 -13 113 -50 177
-81 113 -54 149 -69 323 -141 97 -39 239 -85 266 -85 10 0 19 -4 19 -10 0 -12
-36 -12 -120 0 -36 6 -130 19 -210 31 -266 38 -334 48 -425 63 -49 9 -130 19
-178 22 -48 4 -90 10 -92 14 -4 6 47 79 100 142 29 35 31 48 8 47 -18 0 -103
-99 -103 -118 0 -6 -4 -11 -9 -11 -10 0 -105 -137 -173 -250 -69 -114 -204
-362 -213 -390 -4 -14 -32 -81 -62 -150 -180 -410 -339 -1080 -319 -1342 l5
-78 -42 -1 c-63 -1 -82 -9 -147 -64 -44 -37 -62 -60 -71 -90 -23 -80 11 -227
58 -254 14 -7 10 -11 -23 -20 -88 -24 -152 -141 -139 -258 4 -39 14 -72 26
-87 l20 -26 -28 -35 c-23 -29 -33 -35 -53 -30 -14 3 -46 8 -71 12 l-46 5 -7
61 c-9 87 -7 215 4 320 5 51 14 142 20 202 9 100 21 175 65 410 15 75 21 106
62 295 47 219 134 556 170 655 13 39 33 99 43 135 108 373 337 841 449 919 15
10 58 23 97 29 85 14 149 41 230 98 155 107 242 121 389 61z m-2195 -186 c0
-25 7 -44 20 -56 11 -10 20 -27 20 -37 0 -23 71 -90 103 -98 37 -9 34 -59 -5
-111 -41 -53 -98 -78 -182 -78 -64 -1 -91 15 -148 87 -28 34 -28 39 -25 131 2
57 9 108 18 125 20 42 80 72 145 74 l54 1 0 -38z m510 -198 c83 -79 95 -171
31 -252 -17 -21 -52 -52 -76 -68 -25 -15 -45 -31 -45 -35 0 -16 -92 -7 -128
11 -55 28 -125 100 -116 120 10 22 11 89 2 104 -4 6 -1 18 7 27 7 8 15 31 17
50 3 35 3 35 55 35 29 1 59 7 69 15 22 19 72 37 106 39 19 1 41 -13 78 -46z
m155 -223 c6 -5 26 -8 45 -7 47 1 115 -47 131 -91 20 -59 8 -151 -26 -201 -48
-71 -73 -85 -139 -77 -70 9 -110 36 -159 108 -32 47 -37 60 -28 77 6 11 11 31
11 44 0 13 11 36 25 51 13 14 36 46 50 70 22 38 29 43 53 38 15 -2 32 -8 37
-12z m2270 -20 c21 -22 46 -40 55 -40 8 0 40 9 70 21 92 35 86 36 114 -18 13
-27 38 -64 56 -82 42 -46 70 -86 70 -103 0 -7 -12 -19 -28 -25 -15 -7 -58 -38
-96 -69 -59 -49 -71 -56 -87 -46 -33 21 -76 14 -98 -14 -25 -31 -27 -72 -6
-80 23 -9 18 -25 -17 -63 l-32 -35 -13 64 c-13 62 -13 63 12 86 29 27 33 69 9
102 -13 19 -22 22 -47 16 -83 -17 -112 -102 -41 -120 27 -7 44 -38 44 -80 0
-24 -14 -32 -25 -14 -12 19 -43 10 -69 -21 -34 -40 -33 -65 4 -97 36 -32 37
-51 6 -100 -13 -20 -34 -61 -46 -89 -13 -29 -25 -53 -29 -53 -4 0 -14 32 -24
72 -23 100 -74 202 -138 276 -30 35 -64 76 -77 92 l-23 28 25 65 c42 112 106
199 195 265 20 15 45 35 55 45 11 9 26 17 33 17 7 0 13 4 13 8 0 7 55 27 85
31 6 0 29 -17 50 -39z m-2673 -110 c36 -23 60 -30 98 -30 62 0 73 -17 71 -108
-1 -94 -41 -151 -134 -192 -50 -22 -89 -21 -156 7 -48 20 -76 51 -96 106 -16
41 -16 54 -5 107 7 33 16 60 21 60 4 0 10 9 14 20 7 22 76 58 114 59 13 1 46
-12 73 -29z m3088 -175 c39 -29 66 -31 115 -11 26 11 36 12 43 3 5 -7 26 -66
46 -132 21 -66 44 -140 52 -164 24 -72 37 -249 24 -337 -13 -99 -52 -224 -101
-332 -47 -102 -84 -165 -196 -334 -73 -111 -89 -129 -131 -148 -141 -67 -341
-112 -398 -89 -16 7 -39 11 -52 10 -13 0 -41 8 -62 19 -32 16 -42 28 -53 68
-23 75 3 300 52 467 32 108 43 159 50 246 6 65 15 103 40 155 84 180 228 361
401 505 46 38 128 99 134 99 1 0 17 -11 36 -25z m-960 -33 c10 -20 47 -66 80
-102 176 -187 240 -335 240 -556 0 -80 -8 -127 -46 -282 -60 -244 -72 -339
-56 -434 7 -40 19 -79 27 -88 30 -34 17 -68 -80 -211 -95 -139 -175 -281 -233
-414 -43 -99 -92 -232 -92 -250 0 -9 -13 -30 -30 -47 -34 -34 -36 -32 -14 20
8 20 26 66 39 102 67 186 208 468 302 604 78 114 106 164 97 177 -11 18 -76 4
-163 -36 -45 -20 -87 -35 -93 -33 -14 5 76 71 125 91 20 9 37 22 37 29 0 8
-34 29 -76 48 -66 29 -145 80 -179 115 -48 48 -114 143 -142 203 -33 71 -66
202 -79 312 -12 109 25 322 83 475 43 114 198 335 224 319 5 -3 18 -22 29 -42z
m1367 -77 c56 -77 122 -206 139 -270 17 -61 18 -227 3 -292 -28 -117 -73 -223
-131 -309 -66 -98 -219 -241 -338 -315 -14 -9 -38 -24 -55 -35 l-30 -19 19 30
c11 17 31 48 43 70 33 56 44 74 75 121 64 97 148 313 171 440 24 127 1 319
-59 502 -18 54 -18 52 9 83 32 37 69 60 91 57 11 -2 39 -30 63 -63z m-3233
-58 c18 4 37 -1 54 -14 15 -11 35 -22 45 -26 28 -11 57 -85 57 -151 0 -45 -6
-69 -27 -106 -35 -62 -51 -71 -139 -77 -59 -5 -83 -2 -114 12 -42 19 -90 72
-90 100 0 9 -5 25 -10 36 -8 13 -7 25 0 40 9 15 8 24 -1 35 -23 28 40 112 116
153 34 18 42 19 60 7 12 -8 33 -12 49 -9z m-498 -182 c79 -109 101 -168 107
-285 l5 -95 -27 35 c-44 59 -164 181 -208 211 l-42 29 19 65 c20 71 55 128 75
123 7 -2 39 -39 71 -83z m-191 -110 c245 -207 401 -430 469 -670 40 -142 59
-285 53 -400 -6 -113 -38 -232 -65 -242 -9 -4 -39 -23 -67 -44 -80 -59 -154
-90 -307 -129 -113 -29 -126 -28 -181 27 -62 61 -97 137 -139 298 -30 117 -33
143 -32 260 1 113 5 145 33 245 53 195 53 340 -1 527 l-21 72 24 25 c20 21 30
23 74 19 42 -4 56 0 85 20 19 14 36 24 37 23 2 0 19 -14 38 -31z m-600 -14
c109 10 201 4 260 -19 l61 -23 13 -67 c24 -118 30 -165 30 -247 0 -122 -10
-164 -39 -178 -13 -7 -31 -25 -40 -40 -14 -27 -14 -29 17 -57 42 -38 37 -67
-7 -42 -27 15 -30 15 -49 -2 -35 -32 -23 -96 18 -96 8 0 23 8 33 17 18 16 18
15 12 -43 -4 -32 -9 -61 -11 -64 -3 -3 -12 6 -21 20 -17 26 -129 141 -172 175
-70 56 -203 135 -272 160 l-47 17 -3 72 c-5 123 9 298 27 344 25 62 60 86 110
76 22 -4 58 -5 80 -3z m995 -109 c67 -90 167 -278 200 -376 38 -111 37 -277
-2 -441 -24 -102 -33 -93 -46 43 -17 187 -81 389 -162 512 -48 74 -49 75 -60
202 -6 68 -15 120 -25 134 -8 13 -15 28 -15 34 0 22 49 -27 110 -108z m636
-24 c-11 -73 -67 -282 -78 -296 -16 -18 -97 -5 -125 20 -26 25 -45 105 -37
157 9 54 43 111 83 138 27 18 48 23 99 23 l65 0 -7 -42z m-1812 -403 c49 -23
191 -107 227 -135 64 -49 115 -95 181 -164 l66 -70 7 -79 c18 -199 95 -400
186 -481 22 -21 39 -38 37 -40 -1 -1 -24 -18 -49 -38 -25 -21 -66 -45 -90 -55
-57 -23 -167 -23 -234 0 -89 31 -257 170 -350 291 -17 21 -36 45 -42 52 -7 7
-13 17 -13 22 0 6 -4 12 -9 14 -12 4 -67 117 -75 153 -3 17 -13 104 -21 195
-11 116 -24 188 -41 243 -15 43 -24 80 -23 81 2 2 29 10 59 19 61 18 134 15
184 -8z m4713 -188 c26 -8 74 -20 105 -27 32 -6 67 -19 79 -29 20 -16 20 -18
5 -33 -29 -29 -31 -72 -5 -117 28 -50 21 -60 -61 -86 -30 -9 -64 -23 -75 -30
-35 -21 -197 -82 -270 -101 -128 -33 -305 -20 -437 33 -57 23 -53 28 53 64 20
7 61 29 90 50 30 20 88 59 129 84 81 51 212 148 273 202 32 29 40 32 52 20 7
-8 35 -21 62 -30z m-2573 -257 c17 -5 42 -12 56 -14 19 -4 36 -23 63 -68 32
-54 37 -70 36 -123 -1 -81 -7 -96 -59 -153 -41 -45 -50 -50 -102 -56 -59 -8
-80 -26 -30 -26 50 0 86 -53 97 -143 10 -90 -1 -131 -48 -180 -55 -56 -111
-74 -163 -52 -20 8 -52 15 -72 15 -53 0 -108 65 -118 138 -8 62 -2 95 26 156
30 67 71 91 149 90 63 -1 63 -1 40 17 -13 10 -36 23 -50 29 -38 16 -56 56 -64
141 -9 94 4 126 75 184 65 53 104 64 164 45z m224 -352 c31 -17 59 -33 61 -35
3 -2 -9 -15 -26 -29 -50 -41 -83 -97 -97 -164 -11 -56 -16 -65 -39 -71 -31 -8
-37 3 -37 75 0 40 -7 62 -29 98 -30 47 -30 58 -1 58 17 0 33 14 76 68 14 17
28 32 30 32 2 0 30 -14 62 -32z m-1129 -55 c21 -77 139 -429 157 -468 11 -22
23 -43 28 -47 5 -3 2 -35 -7 -75 -14 -59 -15 -76 -3 -128 19 -88 40 -121 112
-173 63 -46 65 -49 89 -127 40 -134 41 -140 19 -130 -37 16 -92 17 -138 1 -52
-18 -96 -44 -96 -57 0 -5 -8 -17 -19 -28 -19 -19 -49 -105 -53 -156 -2 -21
-20 22 -62 150 -48 147 -128 359 -281 745 -8 19 -21 62 -30 95 -9 33 -27 88
-41 122 -13 34 -24 63 -24 66 0 2 23 2 50 -1 44 -4 50 -2 50 14 0 20 -23 39
-79 64 l-34 16 44 12 c115 33 238 85 265 113 15 16 31 29 35 29 5 0 13 -17 18
-37z m1377 -14 c11 -10 24 -19 29 -19 24 0 73 -53 94 -104 28 -68 24 -102 -22
-170 -38 -58 -96 -94 -158 -98 -41 -3 -44 -1 -60 32 -19 39 -102 110 -129 110
-9 0 -24 6 -34 13 -17 12 -17 18 -5 73 15 70 55 134 107 170 33 23 43 25 97
19 39 -4 67 -13 81 -26z m2250 -54 c33 -47 87 -119 122 -159 34 -40 62 -78 62
-85 0 -6 -10 -12 -22 -12 -167 -8 -742 -166 -825 -227 -25 -18 -25 -18 -59 15
-19 18 -36 33 -39 33 -2 0 -21 -11 -41 -25 -44 -30 -74 -32 -105 -6 -19 15
-24 30 -25 70 -1 28 -2 58 -3 66 -2 23 -81 53 -156 61 -60 6 -70 4 -129 -25
-186 -91 -274 -300 -218 -517 20 -79 21 -96 6 -101 -13 -4 -64 86 -64 113 0
62 -128 229 -189 249 -45 14 -19 37 184 163 113 70 636 293 790 337 290 83
511 131 606 134 l46 1 59 -85z m-4987 -45 c165 -49 436 -226 593 -387 120
-123 298 -377 413 -588 21 -38 51 -93 66 -122 16 -28 85 -166 155 -305 365
-735 447 -893 501 -964 l23 -31 -21 -19 c-35 -31 -51 -72 -48 -122 l3 -47 -79
0 -80 0 -7 48 c-8 61 -34 104 -84 142 l-40 31 23 47 c30 60 32 138 5 199 -15
35 -29 49 -63 65 -150 70 -162 74 -188 68 -34 -8 -98 -50 -127 -84 -12 -14
-24 -24 -26 -21 -2 3 -17 37 -33 75 -30 74 -62 147 -100 230 -69 149 -76 169
-62 180 73 55 92 81 102 142 5 31 1 53 -14 87 -21 49 -100 139 -141 162 -54
29 -54 29 -29 64 22 29 24 42 24 138 0 94 -4 115 -28 177 -17 42 -43 84 -64
104 -34 32 -38 33 -94 27 -55 -5 -59 -4 -59 16 0 36 -41 137 -66 162 -13 13
-44 29 -68 36 -57 16 -142 -2 -198 -42 l-40 -29 -66 64 c-180 173 -340 279
-488 322 -32 10 -66 20 -74 22 -11 3 0 18 35 50 87 79 146 113 221 126 75 14
110 11 223 -23z m-749 -2 c53 -10 247 -6 355 8 l50 6 -48 -32 c-56 -38 -164
-134 -252 -224 -154 -156 -420 -537 -520 -745 -32 -66 -62 -118 -67 -115 -19
12 0 210 37 379 36 168 126 413 191 520 18 31 63 94 100 141 49 63 70 84 83
79 9 -4 41 -11 71 -17z m1727 -86 c15 -9 152 -415 193 -572 17 -63 41 -171 54
-240 13 -69 49 -226 79 -350 78 -318 98 -402 94 -407 -7 -7 -75 153 -91 212
-8 33 -24 107 -36 165 -11 58 -36 164 -55 235 -19 72 -53 198 -75 280 -61 228
-88 323 -155 535 -21 63 -39 123 -42 133 -6 18 12 23 34 9z m1455 -71 c13 -5
34 -12 48 -15 34 -7 106 -74 120 -111 20 -54 -6 -202 -42 -239 -50 -49 -127
-70 -196 -51 -69 18 -130 59 -138 93 -3 15 -9 41 -14 58 -14 55 0 86 66 149
34 33 65 72 68 87 4 17 14 28 29 31 12 2 25 5 29 6 4 0 17 -3 30 -8z m2741
-98 c14 -16 14 -35 1 -193 -8 -96 -17 -263 -20 -370 -3 -107 -7 -196 -8 -198
-4 -3 -32 96 -45 158 -5 25 -19 88 -30 140 -29 132 -48 259 -57 367 -7 102
-14 91 61 106 46 10 83 6 98 -10z m-1205 -8 l52 -16 0 -54 c0 -49 4 -58 38
-95 46 -47 83 -52 143 -19 l38 22 45 -49 c75 -80 90 -121 90 -244 1 -99 -1
-108 -32 -169 -19 -34 -31 -69 -28 -76 2 -7 28 -14 63 -17 106 -7 212 -79 248
-168 23 -57 23 -166 -1 -212 -29 -57 -43 -68 -92 -68 -33 0 -54 -7 -79 -26
-28 -21 -33 -31 -33 -67 0 -26 8 -51 20 -67 25 -32 25 -38 -5 -82 -31 -46
-103 -89 -164 -99 -60 -9 -167 7 -207 30 -70 42 -140 124 -194 231 -28 55
-126 123 -105 73 40 -95 48 -142 49 -283 1 -137 0 -148 -25 -200 -33 -69 -57
-96 -102 -115 -61 -25 -180 -14 -275 26 -53 23 -72 42 -72 76 0 13 -11 35 -25
48 -28 29 -67 32 -136 11 -40 -12 -50 -12 -78 1 -139 68 -149 276 -20 417 59
64 97 80 243 96 105 12 146 23 146 39 0 20 -24 22 -154 10 l-134 -12 -84 28
c-110 36 -162 79 -200 164 -17 36 -41 80 -53 97 l-24 31 54 22 c55 23 65 37
65 95 0 19 -11 39 -36 64 -41 41 -41 48 10 157 42 90 76 130 139 162 97 48
196 16 312 -102 61 -62 74 -81 101 -155 24 -65 39 -91 67 -113 21 -18 42 -27
51 -24 19 7 21 62 5 104 -20 53 -30 190 -18 241 31 124 103 222 201 271 70 35
118 39 196 16z m-1993 -25 c3 -5 24 -10 46 -10 22 0 49 -5 61 -11 11 -6 38
-12 60 -14 l41 -3 1 -68 c1 -43 8 -82 19 -103 9 -19 17 -43 17 -53 0 -23 -52
-78 -72 -78 -8 0 -25 -11 -38 -25 -41 -43 -107 -30 -167 33 -81 85 -108 161
-78 218 8 16 15 33 15 37 0 5 14 26 32 48 31 39 51 48 63 29z m-147 -46 c26
-7 29 -32 8 -72 -17 -33 -10 -116 10 -133 8 -6 14 -17 14 -24 0 -7 21 -34 46
-60 38 -40 43 -50 30 -57 -21 -12 -40 -51 -55 -111 -11 -45 -10 -52 13 -90 35
-60 74 -93 139 -120 53 -21 57 -25 41 -38 -27 -22 -44 -73 -44 -130 0 -71 51
-163 120 -216 27 -21 49 -41 50 -45 0 -4 -20 -36 -45 -72 -49 -69 -115 -203
-136 -274 -7 -23 -17 -41 -22 -39 -5 1 -22 53 -38 113 -15 61 -35 130 -43 154
-8 25 -13 46 -11 48 2 3 26 -11 52 -31 26 -19 62 -42 80 -51 43 -22 55 -1 12
22 -53 29 -150 102 -156 118 -3 8 2 23 11 33 10 11 19 50 25 107 9 84 8 91
-13 124 -13 19 -26 45 -30 58 -4 12 -24 31 -45 42 -32 16 -40 27 -51 67 -7 26
-23 79 -36 118 -23 69 -22 103 2 71 8 -11 13 -13 16 -5 2 6 24 20 48 29 47 18
72 49 29 36 -13 -5 -48 -13 -77 -19 -46 -9 -58 -8 -85 8 -43 24 -86 65 -101
95 -26 50 -38 145 -25 197 15 60 79 140 117 146 45 7 125 7 150 1z m-1408
-204 c18 -20 34 -53 45 -99 22 -92 34 -102 104 -89 l54 11 32 -35 c52 -57 80
-138 80 -238 0 -63 -5 -97 -19 -127 -17 -39 -23 -43 -90 -64 -39 -12 -105 -24
-146 -26 -90 -5 -184 -29 -206 -55 -23 -24 -4 -23 49 3 30 16 71 24 147 30 58
4 123 13 145 18 68 18 90 13 146 -29 77 -58 129 -138 129 -200 0 -38 -6 -56
-27 -82 -54 -65 -63 -70 -233 -152 -17 -8 -30 -29 -45 -71 -27 -78 -66 -129
-119 -154 -52 -26 -89 -26 -141 -1 -74 35 -129 100 -199 236 -25 49 -46 97
-46 106 0 24 -11 48 -21 48 -16 0 -10 -36 26 -145 43 -130 50 -228 21 -288
-46 -94 -229 -156 -322 -109 -22 10 -51 22 -65 25 -41 10 -79 46 -99 93 -26
59 -64 78 -140 69 -67 -8 -128 13 -170 59 -50 55 -18 164 67 236 47 38 182
104 248 120 28 6 91 14 140 16 80 3 90 6 93 23 7 42 -104 45 -223 8 -102 -33
-191 -42 -225 -25 -36 19 -76 100 -89 177 -5 36 -17 101 -26 144 -19 87 -15
133 16 168 18 21 31 24 98 27 74 4 78 5 100 37 20 30 22 41 16 100 l-7 66 41
39 c49 47 91 60 190 60 81 0 139 -21 179 -63 28 -29 72 -151 72 -198 0 -20 6
-54 14 -75 7 -22 17 -63 21 -91 4 -34 12 -53 23 -57 9 -3 23 -9 30 -12 7 -3
12 1 12 10 0 9 -6 16 -12 16 -19 0 -62 188 -55 239 6 51 48 135 89 182 16 19
40 51 54 71 27 42 45 54 101 67 77 18 113 13 143 -19z m1854 -29 c3 -5 28 -14
56 -21 44 -11 50 -15 51 -38 l1 -27 8 25 c12 38 11 5 -1 -45 -6 -25 -15 -42
-20 -39 -5 3 -9 -6 -9 -19 0 -14 -7 -30 -15 -37 -12 -10 -17 -5 -31 29 -15 39
-74 101 -94 101 -6 0 -10 9 -10 20 0 11 4 20 9 20 5 0 13 9 16 20 7 21 30 27
39 11z m-49 -102 c74 -44 99 -159 50 -231 -14 -20 -25 -42 -25 -47 0 -24 -50
-43 -117 -44 -68 -1 -101 11 -168 63 -58 44 -79 115 -53 177 25 58 35 63 110
56 60 -5 71 -3 91 14 41 38 64 40 112 12z m-989 -105 c44 -110 71 -186 119
-334 20 -63 56 -169 80 -235 23 -66 59 -181 80 -255 20 -74 41 -146 45 -160 5
-14 27 -92 50 -175 22 -82 49 -180 59 -217 11 -38 16 -68 12 -68 -12 0 -226
438 -249 510 -26 83 -48 168 -62 250 -7 36 -34 157 -62 270 -27 113 -60 259
-73 325 -13 66 -28 133 -34 148 -6 16 -11 31 -11 34 0 15 12 -9 46 -93z m1664
-84 c16 -38 -4 -72 -58 -98 -44 -20 -53 -54 -24 -85 11 -12 32 -52 47 -89 28
-71 72 -123 138 -165 l41 -26 -30 -23 c-134 -109 -238 -221 -250 -270 -7 -29
-14 -30 -64 -4 -42 21 -103 26 -144 10 -38 -14 -105 -79 -128 -124 -29 -56
-36 -168 -14 -220 9 -21 16 -39 16 -40 0 -1 -33 0 -74 2 -43 3 -90 -1 -112 -8
-40 -14 -128 -94 -144 -133 -5 -12 -17 -32 -25 -44 -15 -20 -14 -23 14 -55 44
-51 102 -87 162 -104 63 -16 147 -18 185 -4 15 6 29 8 32 5 3 -3 -7 -29 -21
-59 -15 -30 -32 -89 -39 -131 l-12 -76 -127 2 -127 2 -4 67 c-3 54 -9 74 -30
103 -28 35 -89 71 -143 82 -23 5 -17 -1 25 -25 30 -17 65 -40 77 -52 48 -45
53 -128 12 -194 -10 -17 -19 -38 -19 -45 0 -19 -75 -51 -129 -55 -24 -2 -52
-6 -62 -9 -22 -7 -33 -49 -19 -75 11 -21 44 -35 60 -25 18 11 11 34 -12 37
-31 4 -34 32 -6 44 50 22 81 -10 52 -53 -18 -28 -12 -42 11 -23 8 7 15 28 15
46 0 22 5 34 14 34 7 0 33 8 57 19 55 23 191 36 220 21 30 -16 59 -91 53 -137
-11 -81 -24 -108 -69 -136 -24 -15 -59 -28 -79 -29 -31 -1 -41 5 -74 43 -53
63 -115 127 -106 109 4 -8 30 -46 57 -83 50 -68 50 -70 37 -105 -7 -21 -20
-45 -29 -56 -80 -91 -311 -64 -337 40 -5 21 4 35 70 99 42 40 76 81 76 89 0
25 -16 19 -37 -13 -27 -44 -103 -106 -145 -120 -41 -14 -100 -6 -136 17 -33
21 -52 64 -52 116 0 53 12 84 57 147 18 26 33 52 33 58 0 18 32 13 69 -12 66
-43 76 -47 128 -47 56 0 73 11 47 32 -9 7 -39 34 -65 59 -45 43 -49 50 -49 94
0 36 6 56 24 80 25 32 150 105 180 105 12 0 16 10 16 41 0 146 93 502 173 667
41 83 95 169 123 193 13 11 38 17 74 18 183 2 270 85 271 257 l0 72 141 136
c78 75 149 136 158 136 10 0 23 -13 30 -30z m-540 -112 c66 -19 156 -102 177
-163 11 -33 2 -140 -15 -171 -38 -71 -158 -115 -269 -98 -60 9 -136 71 -175
144 -25 48 -29 63 -24 114 6 78 37 111 118 128 37 8 71 23 91 40 18 15 39 25
47 22 8 -4 31 -11 50 -16z m-605 -94 c17 -9 47 -25 68 -36 20 -10 37 -24 37
-31 0 -7 12 -29 26 -48 24 -32 26 -39 20 -116 -3 -45 -8 -87 -11 -95 -8 -20
-81 -68 -103 -68 -11 0 -22 -5 -24 -11 -7 -21 -137 -15 -188 8 -63 29 -87 58
-99 126 -15 83 6 165 62 231 41 51 154 71 212 40z m1408 -293 c5 -5 -5 -13
-22 -19 -49 -17 -121 -92 -152 -157 -24 -49 -29 -73 -29 -135 0 -41 4 -91 10
-110 13 -47 59 -100 106 -125 22 -10 41 -20 43 -22 2 -1 -8 -16 -23 -33 -14
-18 -29 -43 -32 -57 -10 -38 1 -170 16 -188 11 -14 6 -23 -41 -64 -78 -70
-109 -136 -109 -232 0 -115 14 -110 -252 -102 l-228 6 0 30 c0 31 38 167 48
167 3 0 20 -18 39 -39 36 -43 103 -73 185 -85 29 -4 60 -17 78 -33 l30 -25 30
66 c44 99 55 173 35 249 -15 60 -29 80 -87 122 l-23 16 23 17 c99 72 118 108
107 200 -6 49 -50 152 -74 172 -3 3 -21 21 -39 41 l-32 35 49 70 c53 75 126
154 181 197 19 14 44 33 55 42 21 16 91 13 108 -4z m-1634 -105 c9 -8 43 -23
76 -34 74 -25 129 -21 203 15 29 14 54 24 56 22 6 -6 73 -237 96 -330 l21 -86
-31 -109 c-36 -130 -59 -280 -49 -317 6 -24 4 -27 -39 -43 -26 -10 -51 -21
-56 -26 -29 -25 -72 16 -83 77 -2 11 -14 61 -27 110 -13 50 -43 162 -66 250
-23 88 -50 189 -61 225 -10 36 -27 101 -39 145 -12 43 -26 87 -31 97 -12 22 7
25 30 4z m-711 -232 c85 -213 173 -414 184 -414 4 0 8 -20 8 -45 0 -50 -1 -51
-34 -30 -12 8 -45 18 -72 21 -27 4 -60 15 -74 24 -33 23 -95 40 -148 40 -56 0
-46 -17 16 -26 43 -6 112 -30 112 -38 0 -2 -20 -23 -44 -47 -39 -39 -45 -51
-51 -104 -4 -33 -14 -77 -21 -99 -8 -21 -14 -54 -14 -72 0 -19 -1 -34 -2 -35
-2 0 -39 -4 -83 -9 -44 -6 -95 -12 -112 -16 -65 -12 -115 19 -132 83 -17 59
11 125 86 201 43 44 56 62 43 62 -28 0 -117 -105 -137 -161 -15 -42 -21 -49
-44 -49 -91 0 -159 86 -144 181 8 46 65 108 128 138 41 20 59 23 113 18 58 -4
65 -3 59 12 -26 66 -9 112 50 136 39 17 81 65 107 123 10 23 23 42 29 42 15 0
82 -45 105 -71 49 -55 51 -142 5 -207 -24 -35 -26 -42 -8 -42 17 0 56 60 68
105 22 80 -19 155 -112 205 -46 24 -59 36 -59 55 0 18 8 26 37 36 21 7 51 20
68 30 16 11 35 17 40 16 6 -2 21 -30 33 -63z m1884 45 c54 -28 136 -113 161
-169 14 -29 21 -67 21 -107 1 -75 -17 -104 -95 -151 -30 -18 -54 -39 -54 -47
0 -8 25 -27 55 -42 49 -25 57 -34 73 -78 23 -62 18 -117 -18 -208 -27 -66 -46
-82 -71 -58 -5 5 -36 14 -69 20 -124 23 -197 87 -194 171 0 19 1 38 0 42 -1 4
-26 -5 -57 -19 -49 -22 -65 -25 -123 -19 -93 8 -134 22 -182 59 -69 53 -69 56
-13 134 63 86 124 117 217 108 32 -2 67 -10 78 -16 11 -6 27 -8 36 -5 14 6 14
9 0 29 -8 13 -22 47 -31 76 -18 60 -9 127 24 197 25 51 48 72 97 90 54 19 98
17 145 -7z m2269 -45 c54 -24 61 -32 89 -89 37 -76 38 -101 3 -152 -50 -73
-86 -95 -163 -101 -57 -4 -73 -1 -95 14 -23 17 -26 28 -29 85 -2 41 -11 80
-24 106 -20 38 -20 43 -6 72 16 33 33 45 99 73 53 23 58 22 126 -8z m-761
-175 c0 -5 14 -9 31 -9 40 0 109 -71 109 -112 0 -15 4 -38 10 -53 13 -33 -6
-109 -37 -152 -46 -63 -174 -93 -243 -58 -34 17 -68 50 -100 95 -18 25 -21 40
-16 78 10 90 19 127 33 137 8 6 20 22 27 35 9 18 20 24 38 23 15 -1 48 7 74
17 47 17 74 17 74 -1z m-912 -64 c30 -71 37 -78 102 -102 36 -14 75 -27 88
-30 13 -3 31 -17 40 -30 15 -24 15 -29 -2 -75 -10 -27 -15 -53 -11 -56 3 -3
20 2 37 13 60 35 137 18 223 -49 18 -14 18 -18 5 -29 -21 -18 -60 -74 -60 -88
0 -6 -9 -23 -20 -37 -15 -18 -19 -34 -15 -54 4 -15 1 -43 -6 -62 -11 -31 -10
-38 4 -54 23 -25 21 -32 -8 -32 -23 0 -25 4 -25 43 0 24 -9 71 -21 105 -21 63
-97 178 -124 188 -17 7 -105 -42 -161 -90 -48 -41 -87 -113 -105 -191 -12 -52
-14 -56 -38 -51 -14 3 -75 8 -136 12 l-110 6 3 87 c5 125 46 198 143 254 58
34 99 34 169 0 30 -14 57 -27 60 -28 3 0 15 -5 28 -9 13 -4 34 -5 48 -2 19 5
24 13 24 36 0 48 -65 69 -93 30 -14 -20 -14 -20 -71 6 -47 21 -65 25 -105 19
-48 -6 -49 -6 -60 26 -6 17 -11 56 -11 86 0 108 72 194 160 190 28 -2 37 -7
48 -32z m-2020 -105 c89 -40 93 -42 116 -73 28 -37 27 -129 -2 -183 -20 -39
-25 -42 -82 -52 -59 -11 -129 -38 -141 -55 -3 -5 -21 -7 -40 -5 -30 3 -34 7
-40 40 -3 21 -20 60 -37 87 -25 42 -29 56 -25 93 9 72 48 124 118 161 42 23
58 21 133 -13z m-1841 -45 c81 -52 163 -211 163 -315 0 -25 5 -51 12 -58 9 -9
8 -16 -5 -30 -22 -24 -59 -144 -48 -155 10 -10 41 42 41 69 0 63 111 192 199
232 148 68 320 2 363 -139 10 -35 9 -45 -10 -85 -38 -77 -26 -128 43 -194 50
-47 62 -73 70 -152 12 -115 -37 -242 -124 -321 -74 -67 -131 -45 -256 99 -87
99 -144 151 -197 179 -26 14 -49 29 -53 35 -3 5 -13 10 -21 10 -24 0 -7 -17
51 -55 59 -37 93 -72 184 -187 32 -40 77 -86 101 -103 72 -51 80 -61 80 -107
0 -44 -26 -99 -62 -130 -20 -17 -115 -58 -186 -79 -30 -9 -54 -10 -85 -3 -61
14 -109 -1 -166 -52 -27 -24 -57 -44 -67 -44 -69 1 -165 89 -184 168 -14 59 1
172 32 257 23 60 92 141 162 191 23 16 27 25 21 40 -7 17 -8 18 -12 2 -5 -22
-23 -24 -23 -3 0 8 -5 15 -11 15 -6 0 -8 -7 -5 -16 5 -12 -12 -36 -55 -79 -58
-59 -95 -110 -119 -165 -19 -41 -33 -208 -21 -243 6 -16 11 -33 11 -36 0 -3
-29 -7 -65 -9 -79 -4 -117 18 -145 83 -21 50 -53 75 -93 75 -49 0 -80 25 -111
87 -16 32 -33 60 -36 63 -16 12 -30 52 -30 87 0 38 27 98 65 144 68 82 214
149 324 149 65 0 138 15 156 33 6 6 -19 7 -70 3 -110 -10 -123 -9 -241 19
-114 27 -138 39 -202 99 -53 50 -70 80 -83 151 -17 91 25 196 97 243 40 26 65
27 126 7 77 -27 118 5 133 105 6 40 13 49 67 89 84 62 115 71 193 56 35 -6 76
-20 92 -30z m5571 7 c43 -13 101 -81 118 -139 23 -80 12 -124 -44 -182 -42
-43 -53 -49 -105 -55 -74 -8 -112 8 -162 69 -33 40 -39 56 -43 104 -4 52 0 65
31 122 33 59 38 64 76 70 22 3 44 8 47 12 9 8 50 8 82 -1z m-603 -51 c3 -5 35
-24 71 -41 53 -26 74 -31 110 -27 27 3 47 0 53 -7 17 -21 25 -140 11 -167 -29
-54 -85 -110 -120 -119 -49 -13 -127 0 -177 30 -74 44 -110 162 -60 195 33 21
87 99 87 124 0 21 14 28 25 12z m-3465 -71 c19 -10 43 -22 53 -26 19 -7 79
-118 91 -169 12 -49 53 -60 92 -24 17 16 42 22 115 28 92 8 95 8 129 -19 48
-36 70 -84 70 -149 0 -48 -3 -56 -35 -85 -35 -33 -120 -66 -167 -66 -22 0 -26
5 -31 39 -5 42 -54 157 -62 149 -3 -3 4 -27 15 -54 12 -27 24 -69 26 -94 5
-43 4 -46 -32 -69 -32 -20 -45 -22 -88 -17 -28 4 -85 11 -125 16 -86 11 -118
32 -107 73 4 17 21 32 50 47 62 29 118 76 138 113 23 42 23 70 0 37 -39 -57
-85 -99 -132 -119 -47 -20 -56 -21 -113 -10 -80 16 -122 53 -114 102 33 209
44 246 82 284 39 39 90 44 145 13z m3044 -75 c11 -8 28 -15 37 -15 10 0 26
-11 36 -25 10 -14 26 -35 37 -48 10 -12 22 -31 26 -43 13 -33 15 -111 4 -126
-6 -7 -16 -32 -22 -55 -19 -66 -118 -133 -195 -133 -55 1 -157 57 -157 86 0 7
-3 14 -7 16 -5 2 -18 17 -29 34 -19 26 -20 32 -8 49 9 12 12 31 8 52 -4 24 -1
40 15 62 12 16 21 34 21 41 0 20 61 90 78 90 10 1 28 7 42 15 32 19 90 18 114
0z m161 -16 c22 -1 54 1 71 6 31 7 31 7 31 -37 0 -23 7 -57 16 -75 24 -45 21
-68 -11 -104 -28 -31 -29 -31 -59 -16 -26 14 -31 23 -36 68 -4 28 -14 63 -24
77 -60 84 -65 94 -46 88 10 -3 36 -6 58 -7z m-606 -64 c77 -108 96 -209 61
-328 -21 -70 -24 -75 -54 -80 -26 -4 -36 1 -62 29 -42 45 -77 46 -103 3 -18
-30 -20 -30 -30 -11 -6 11 -20 24 -31 27 -26 8 -50 55 -50 99 0 55 40 143 89
199 49 54 116 107 136 107 6 0 26 -20 44 -45z m1166 -126 c67 -59 83 -117 53
-195 -15 -39 -31 -60 -60 -79 -42 -28 -61 -24 -74 17 -8 28 -118 78 -170 78
-55 0 -69 35 -43 109 10 29 14 31 63 31 54 0 123 27 139 55 13 24 54 17 92
-16z m-3983 -93 c36 -34 56 -45 92 -50 41 -6 47 -10 44 -28 -2 -14 -15 -26
-38 -34 l-35 -12 43 -1 c27 -1 45 -6 48 -15 11 -30 57 -48 141 -56 109 -11
119 -20 104 -89 -20 -93 -117 -169 -204 -159 -54 6 -144 48 -173 80 -53 57
-60 124 -18 161 37 32 47 53 34 77 -8 14 -21 20 -48 20 -29 0 -45 8 -74 36
-21 19 -38 44 -38 54 0 11 15 26 38 38 20 11 37 20 38 21 0 0 21 -19 46 -43z
m-144 -43 c2 -9 -10 -13 -40 -13 -98 0 -180 -52 -229 -145 -13 -25 -26 -45
-29 -45 -3 0 -15 15 -28 33 -12 17 -34 47 -47 66 -24 33 -34 98 -18 115 4 3
92 5 197 4 141 -2 190 -6 194 -15z m1159 -36 c52 -51 22 -65 -43 -21 -46 31
-92 46 -109 36 -15 -8 -71 -82 -105 -137 -17 -28 -24 -54 -24 -90 0 -99 65
-167 161 -170 51 -2 57 -4 68 -31 41 -94 213 -152 316 -107 61 27 116 78 124
113 6 26 10 28 50 28 70 -2 118 26 150 84 24 44 27 58 23 112 -6 74 -41 137
-87 156 -19 7 -56 11 -96 8 -45 -3 -65 0 -65 8 0 35 18 36 557 28 290 -4 541
-8 558 -8 18 -1 31 -7 33 -16 2 -12 -11 -15 -68 -17 -83 -2 -137 -28 -195 -95
-79 -92 -105 -186 -68 -249 38 -64 198 -108 276 -76 34 15 37 15 50 -3 32 -46
133 -71 231 -58 16 3 24 -12 49 -82 43 -127 65 -204 88 -315 12 -55 25 -107
29 -115 4 -8 10 -43 14 -76 l7 -62 -78 -63 c-82 -67 -135 -108 -193 -148 -19
-14 -60 -42 -90 -63 -167 -116 -254 -166 -399 -225 -58 -24 -109 -43 -114 -43
-5 0 -23 -7 -40 -15 -18 -8 -72 -27 -122 -43 -80 -26 -137 -36 -395 -72 -139
-19 -620 23 -820 71 -218 54 -509 177 -735 312 -33 20 -76 45 -96 56 -61 34
-260 179 -344 251 -153 131 -251 254 -222 278 8 7 26 34 41 62 24 43 27 58 21
99 l-6 47 38 12 c72 21 150 116 178 215 14 48 20 57 33 51 37 -15 129 -34 169
-34 41 0 42 -1 37 -27 -4 -20 2 -38 18 -62 38 -56 71 -75 142 -79 54 -4 74 0
122 22 74 34 124 85 124 126 0 26 4 30 28 30 69 1 170 78 193 148 6 19 9 48 6
66 -4 28 -1 33 37 51 22 11 45 30 51 43 7 15 15 20 25 15 52 -25 178 17 211
71 22 37 47 43 149 38 68 -4 78 -8 107 -35z m-1099 -23 c14 -9 22 -24 22 -42
0 -16 4 -32 9 -37 5 -6 11 -39 13 -75 3 -53 9 -73 32 -102 32 -43 109 -95 160
-109 29 -8 36 -15 36 -35 0 -49 -79 -99 -175 -110 -74 -9 -163 33 -183 87 -13
34 -6 46 41 68 44 19 89 62 101 95 5 16 2 14 -17 -6 -30 -33 -68 -52 -135 -69
-44 -11 -66 -11 -140 2 l-87 14 -6 65 c-6 56 -3 72 18 117 31 67 110 139 166
152 50 11 113 5 145 -15z m3107 2 c38 -35 98 -65 142 -70 47 -5 118 19 165 55
36 28 40 29 152 29 63 0 117 -4 121 -10 3 -5 -7 -17 -22 -26 -45 -28 -103 -87
-103 -104 0 -9 -5 -21 -12 -28 -17 -17 -13 -140 6 -177 37 -70 12 -128 -155
-355 -88 -119 -184 -239 -191 -240 -5 0 -8 20 -8 45 0 65 -28 257 -52 354 -18
75 -19 85 -5 93 44 24 62 141 32 211 -19 47 -96 112 -150 128 -47 14 -51 22
-36 61 5 13 12 31 15 41 8 27 69 23 101 -7z m1315 2 c27 -29 25 -46 -9 -99
-53 -82 -91 -114 -165 -139 l-69 -23 -18 24 c-24 30 -24 79 -1 110 16 23 24
35 59 89 36 57 163 80 203 38z m-570 -22 c19 -7 50 -19 67 -25 42 -16 93 -102
93 -156 0 -102 -93 -246 -166 -258 -22 -4 -52 0 -78 9 -22 9 -57 17 -77 18
-44 2 -60 14 -92 69 -50 86 -41 214 20 278 33 36 99 68 148 72 22 2 42 4 45 5
3 1 21 -4 40 -12z m-1225 -28 c35 -13 74 -39 101 -66 32 -31 53 -44 76 -45 35
-2 38 -6 66 -97 25 -76 21 -149 -9 -176 -41 -37 -177 -27 -233 17 -29 23 -36
78 -12 101 8 8 25 37 39 64 14 27 37 60 51 73 28 27 33 41 14 41 -31 0 -128
-148 -142 -216 -6 -28 -13 -32 -61 -44 -63 -15 -111 -5 -176 36 -48 30 -55 57
-34 130 29 99 147 203 232 204 17 0 57 -10 88 -22z m420 -78 c81 -39 118 -90
118 -164 0 -115 -83 -184 -186 -155 -61 18 -66 24 -64 82 2 62 -27 158 -58
192 -20 20 -21 26 -9 36 38 31 143 36 199 9z m-105 -327 c47 -23 109 -33 139
-22 17 7 27 6 31 -2 4 -6 18 -70 31 -143 20 -114 24 -163 24 -376 0 -222 -12
-396 -33 -498 -8 -35 -9 -33 -20 41 -7 43 -12 91 -12 108 0 55 -87 467 -127
599 -42 140 -75 234 -90 258 -11 18 -11 25 -1 37 17 18 18 18 58 -2z m-1685
-1394 c39 -4 113 -9 166 -9 l97 0 20 -57 c50 -141 62 -190 62 -253 0 -119 -24
-161 -143 -252 -40 -31 -66 -75 -77 -133 -17 -82 -8 -93 122 -149 44 -19 59
-31 64 -51 9 -37 -17 -60 -102 -92 -116 -44 -329 -40 -480 10 -100 33 -133 90
-66 115 56 22 145 43 158 38 33 -13 45 90 22 181 -12 49 -43 84 -148 166 -70
54 -90 94 -90 174 0 79 52 221 113 307 l20 28 96 -7 c53 -4 128 -11 166 -16z
m-199 -666 c4 -21 8 -60 8 -87 l1 -50 -62 -13 c-104 -21 -146 -51 -146 -103 0
-36 19 -55 85 -85 106 -49 308 -75 418 -55 95 17 205 70 225 109 14 29 14 34
0 65 -17 35 -45 53 -127 82 -52 18 -59 29 -52 74 10 54 42 100 69 100 75 0
413 -60 515 -91 104 -32 211 -70 263 -92 40 -18 46 -24 40 -41 -3 -12 -6 -50
-6 -85 l1 -64 54 -52 c30 -29 64 -56 76 -59 50 -16 17 -46 -138 -125 -134 -68
-245 -97 -515 -137 -316 -46 -861 -45 -1080 2 -145 31 -272 64 -345 89 -45 15
-85 23 -101 20 -20 -5 -28 -2 -31 12 -3 10 -41 36 -90 60 -216 109 -187 260
77 391 210 104 486 164 787 171 l67 1 7 -37z m1480 -105 c29 -17 58 -42 65
-55 7 -12 16 -23 21 -23 4 0 8 -7 8 -15 0 -16 -15 -19 -67 -16 -24 2 -33 -2
-38 -18 -14 -44 11 -51 69 -21 22 10 43 17 47 14 28 -17 -5 -157 -47 -198 -32
-32 -141 -8 -198 43 -11 11 -34 30 -49 43 -24 20 -29 32 -34 93 -4 58 -3 73
11 84 9 7 16 21 16 30 0 25 75 65 130 70 7 0 37 -13 66 -31z"/>
<path d="M4396 3969 c-54 -42 -21 -124 49 -121 88 3 110 88 33 128 -36 19 -51
18 -82 -7z"/>
<path d="M4550 7171 c-36 -16 -75 -42 -86 -57 -36 -44 -54 -114 -45 -175 8
-60 19 -85 50 -113 26 -24 27 -36 3 -36 -11 0 -30 -10 -44 -22 -30 -27 -98
-165 -98 -200 1 -62 70 -156 144 -195 26 -14 28 -18 22 -56 -4 -23 -9 -68 -13
-99 -5 -51 -4 -58 12 -58 9 0 39 20 67 44 56 52 164 130 200 146 21 10 32 7
78 -22 83 -51 159 -40 232 35 49 51 58 70 59 128 2 92 -57 182 -156 238 l-54
31 -58 -15 c-32 -8 -63 -22 -69 -30 -15 -20 -17 -20 -54 15 l-32 30 45 27 c53
31 79 73 102 162 15 60 15 68 0 107 -10 26 -33 56 -58 77 -57 46 -74 54 -132
61 -42 5 -60 1 -115 -23z m168 -20 c50 -26 110 -85 118 -116 8 -33 -23 -159
-48 -190 -26 -33 -115 -78 -142 -72 -65 15 -134 50 -162 82 -42 47 -52 135
-23 199 21 49 34 62 93 93 52 27 116 29 164 4z m-75 -407 c101 -34 121 -60
112 -149 -8 -78 -22 -113 -60 -151 -59 -59 -76 -65 -149 -58 -63 6 -69 10
-120 59 -45 42 -55 59 -61 96 -6 46 12 118 39 149 7 8 16 26 19 40 13 54 84
59 220 14z m314 -35 c24 -11 59 -39 79 -62 99 -114 95 -217 -13 -294 -67 -48
-136 -39 -206 26 -59 55 -69 79 -52 127 8 21 14 68 15 104 0 36 4 72 10 80 8
13 71 35 109 39 8 0 34 -8 58 -20z m-206 -291 c10 -13 18 -27 18 -33 0 -5 -32
-30 -70 -55 -39 -25 -91 -64 -115 -87 -47 -46 -68 -54 -61 -25 27 98 32 172 8
111 -10 -24 -10 -24 -10 4 -1 28 0 29 39 22 33 -6 48 -2 83 18 23 14 51 34 61
46 24 26 24 26 47 -1z"/>
</g>
</svg>
