<?xml version="1.0" standalone="no"?>
<!DOCTYPE svg PUBLIC "-//W3C//DTD SVG 20010904//EN"
 "http://www.w3.org/TR/2001/REC-SVG-20010904/DTD/svg10.dtd">
<svg version="1.0" xmlns="http://www.w3.org/2000/svg"
 width="1204.000000pt" height="851.000000pt" viewBox="0 0 1204.000000 851.000000"
 preserveAspectRatio="xMidYMid meet">
<metadata>
Created by potrace 1.16, written by Peter Selinger 2001-2019
</metadata>
<g transform="translate(0.000000,851.000000) scale(0.100000,-0.100000)"
fill="#000000" stroke="none">
<path d="M5113 8078 c9 -568 13 -1945 7 -1950 -3 -2 -38 -14 -79 -27 -88 -28
-256 -108 -325 -156 -81 -56 -300 -259 -350 -325 -63 -82 -153 -246 -161 -293
-8 -44 6 -67 41 -67 19 0 24 -5 24 -24 0 -15 7 -26 19 -29 13 -3 19 -17 23
-51 13 -113 177 -216 346 -216 37 0 52 -4 52 -13 0 -29 37 -49 78 -42 34 5 41
3 55 -18 9 -14 37 -33 62 -42 43 -17 75 -17 180 -3 19 3 20 -5 27 -132 17
-352 27 -745 28 -1048 l0 -333 -37 -36 -38 -35 -105 46 c-155 66 -213 84 -293
90 l-72 6 85 -24 c47 -13 137 -45 200 -71 63 -25 132 -53 153 -60 l38 -13 121
86 c66 48 148 111 181 140 34 29 81 68 105 85 23 18 89 69 146 115 57 45 107
82 111 82 3 0 26 13 50 30 65 45 89 52 122 35 15 -8 49 -15 74 -15 45 0 47 -1
53 -34 4 -21 19 -45 37 -61 26 -21 37 -24 68 -19 20 4 48 13 63 20 38 20 48
17 48 -10 0 -18 -14 -34 -56 -63 -31 -21 -69 -45 -85 -53 -15 -8 -73 -52 -128
-98 -55 -45 -102 -82 -106 -82 -4 0 -55 -38 -114 -85 -60 -47 -111 -85 -114
-85 -4 0 -52 -35 -109 -79 -57 -43 -116 -85 -133 -94 -50 -25 -117 -89 -131
-123 -13 -30 -18 -33 -71 -39 -109 -11 -287 -55 -306 -74 -10 -10 -21 -37 -24
-60 -5 -35 -9 -41 -30 -41 -14 0 -52 -7 -84 -15 -88 -23 -272 -55 -279 -49 -6
7 149 154 197 187 55 37 38 49 -35 23 -22 -8 -84 -42 -139 -77 -85 -53 -230
-119 -265 -119 -19 0 1 63 35 105 l32 40 -30 -22 c-42 -29 -64 -56 -66 -79 -4
-39 1 -62 16 -67 20 -8 111 20 156 49 21 13 43 24 48 24 5 0 35 14 65 30 39
22 54 26 50 15 -7 -18 -117 -106 -159 -127 -29 -15 -204 -56 -335 -78 -36 -7
-155 -34 -266 -61 -110 -27 -214 -49 -230 -49 -16 0 -45 -9 -65 -19 -20 -11
-56 -22 -81 -26 l-45 -7 -62 127 c-65 133 -72 158 -59 215 4 19 15 96 23 170
9 74 34 257 55 405 l39 270 -24 36 c-27 41 -98 92 -159 112 -90 31 -372 80
-561 97 -71 7 -133 14 -137 17 -4 2 -68 4 -143 4 l-135 0 0 90 c0 49 3 89 8
89 35 0 194 25 267 41 133 31 198 55 315 117 58 30 119 62 135 70 28 14 97 64
189 136 136 106 351 344 400 442 58 115 54 135 -29 160 -85 24 -210 20 -346
-12 -63 -14 -134 -30 -159 -35 -50 -10 -197 -80 -275 -131 -28 -18 -63 -40
-80 -48 -35 -18 -225 -201 -225 -217 0 -6 -4 -13 -9 -15 -15 -5 -116 -192
-156 -288 -21 -50 -41 -90 -45 -90 -6 0 -25 841 -21 930 2 46 9 50 33 17 48
-66 197 -118 339 -119 121 0 207 25 334 100 76 44 110 76 142 129 24 41 24 45
13 120 -8 54 -25 107 -56 172 -24 51 -44 95 -44 98 0 3 51 4 113 2 177 -4 279
32 373 134 76 82 95 124 102 223 6 99 -5 149 -59 264 -37 78 -46 89 -102 126
-125 84 -162 98 -275 104 l-103 5 28 32 c16 18 51 72 78 120 l50 88 0 125 c0
118 -2 128 -30 185 -47 96 -83 140 -161 199 -87 65 -158 93 -262 105 l-77 9
-74 -42 c-98 -54 -217 -166 -248 -231 -12 -27 -30 -85 -40 -127 -9 -43 -19
-78 -23 -78 -3 0 -12 27 -18 60 -7 32 -23 72 -35 87 -12 15 -36 47 -51 71 -34
50 -91 102 -111 102 -9 0 -59 25 -113 57 l-97 56 -102 5 c-72 3 -112 1 -135
-9 -33 -13 -88 -50 -118 -80 -9 -8 -25 -22 -37 -30 -63 -45 -122 -200 -130
-343 -7 -147 17 -251 89 -369 29 -49 22 -53 -91 -62 -135 -10 -184 -21 -270
-62 -69 -33 -88 -47 -126 -98 -116 -155 -155 -346 -94 -472 40 -83 69 -113
153 -154 78 -38 83 -39 185 -39 76 1 121 6 158 19 29 10 55 16 58 13 3 -3 -10
-24 -29 -46 -48 -59 -74 -115 -85 -186 -12 -76 0 -187 27 -251 31 -72 141
-144 276 -180 86 -23 137 -24 202 -4 27 8 60 15 73 15 32 0 108 45 140 83 60
71 107 149 115 190 9 47 27 39 25 -11 -1 -20 3 -158 9 -307 16 -405 22 -705
14 -705 -4 0 -14 12 -23 28 -10 15 -35 58 -58 95 -22 38 -72 100 -111 139 -38
39 -70 74 -70 79 0 5 -7 9 -16 9 -18 0 10 -38 99 -132 32 -34 79 -104 115
-171 58 -107 73 -147 54 -147 -4 0 -49 35 -99 78 -127 106 -303 246 -317 251
-6 2 -61 39 -122 82 -61 43 -132 90 -157 104 -26 13 -75 47 -108 75 -33 27
-63 50 -67 50 -15 -2 135 -132 167 -146 19 -8 32 -17 29 -19 -3 -3 -36 -12
-74 -20 l-69 -14 97 4 97 3 86 -59 c47 -32 88 -59 91 -59 3 0 18 -10 33 -23
l28 -22 -106 -17 -106 -16 120 1 c81 0 128 -4 145 -12 36 -19 110 -81 110 -92
0 -5 -21 -9 -47 -10 -27 0 -57 -5 -68 -10 -14 -7 -5 -8 35 -5 89 6 122 -4 180
-57 29 -26 70 -58 91 -70 22 -12 39 -30 39 -39 0 -25 -64 -24 -160 3 -41 11
-97 25 -125 30 -54 11 -233 95 -302 141 -23 15 -47 28 -53 28 -7 0 -53 33
-104 73 -50 41 -109 85 -131 99 -79 51 -224 236 -269 342 -9 21 -16 54 -16 72
0 44 19 48 159 41 123 -6 191 -23 301 -73 95 -44 129 -41 39 3 -129 64 -205
82 -361 89 -133 6 -144 5 -160 -13 -16 -17 -16 -24 -3 -68 16 -59 42 -124 72
-180 28 -53 178 -204 282 -283 113 -87 369 -241 434 -261 18 -6 73 -23 122
-40 107 -36 180 -51 241 -51 l45 0 -3 -77 -3 -78 -55 -2 c-168 -8 -475 -49
-605 -81 -44 -11 -102 -23 -128 -27 -91 -12 -268 -91 -325 -145 -21 -20 -23
-30 -21 -98 1 -41 6 -94 10 -116 56 -292 122 -681 123 -725 1 -37 2 -37 -75
-32 -25 1 -27 5 -32 64 -9 105 -33 162 -94 217 -34 31 -67 52 -89 56 -122 23
-229 -51 -241 -168 l-6 -55 54 -57 c30 -32 57 -65 61 -74 13 -34 7 -84 -17
-142 -37 -88 -32 -139 18 -213 56 -83 244 -90 305 -12 26 33 42 107 42 199 l0
73 41 -7 c22 -4 45 -12 50 -17 9 -9 22 -73 39 -188 24 -172 42 -299 55 -380 8
-49 17 -120 21 -157 l7 -66 -49 -6 c-196 -24 -485 -66 -584 -86 -121 -24 -209
-37 -337 -50 -56 -6 -128 -17 -158 -25 -31 -8 -69 -15 -85 -15 -19 0 -30 -5
-30 -14 0 -11 8 -11 52 0 29 8 76 14 104 14 68 0 604 87 679 110 26 8 361 50
400 50 8 0 18 -12 21 -27 19 -77 75 -113 235 -152 342 -82 692 -108 917 -68
108 20 122 21 122 6 0 -5 11 -34 24 -62 13 -29 35 -80 49 -115 40 -94 94 -167
204 -274 127 -123 181 -151 319 -168 78 -9 114 -9 157 0 67 13 142 65 183 125
25 37 35 43 84 52 30 6 138 27 240 47 219 42 312 70 349 105 31 29 55 35 568
151 122 27 235 50 250 50 16 0 44 5 63 10 19 6 78 19 130 30 52 11 124 26 160
34 461 103 470 105 470 88 0 -4 -13 -15 -29 -25 -42 -25 -79 -72 -86 -111 -9
-43 10 -108 40 -144 35 -42 182 -112 234 -112 42 0 42 0 45 -50 2 -28 17 -40
50 -40 45 0 132 27 175 54 56 36 120 67 189 92 34 12 79 37 99 55 20 17 62 43
92 56 104 46 283 134 320 157 20 13 74 43 121 68 47 25 111 60 142 79 32 19
88 52 125 73 83 48 219 143 295 208 64 55 68 52 68 -44 0 -75 26 -292 45 -375
31 -132 183 -387 291 -485 109 -100 141 -120 389 -240 102 -50 477 -115 635
-111 36 1 112 9 170 18 58 9 134 20 170 24 70 8 137 38 235 101 33 22 76 48
96 59 44 24 210 200 285 303 61 82 129 217 164 323 12 39 24 71 25 72 3 4 141
-24 300 -61 83 -19 174 -38 203 -42 28 -3 57 -13 63 -20 6 -8 29 -17 50 -20
22 -4 39 -9 38 -13 0 -3 -45 -28 -99 -54 -54 -27 -126 -66 -159 -88 -33 -21
-65 -39 -71 -39 -5 0 -10 -3 -10 -7 0 -5 -15 -24 -33 -43 -115 -125 -152 -188
-187 -320 -19 -73 -22 -102 -18 -203 l5 -118 -48 -25 c-44 -22 -61 -45 -64
-85 0 -10 -78 -79 -88 -79 -23 0 -220 -76 -303 -116 -101 -49 -120 -66 -134
-113 -8 -27 -6 -31 11 -31 12 0 17 5 14 10 -11 19 24 60 68 80 23 10 78 33
122 50 44 18 103 42 130 55 28 12 67 28 88 35 39 12 87 7 87 -10 0 -9 -76 -69
-155 -123 -22 -15 -62 -43 -89 -62 l-48 -35 36 0 c20 0 36 4 36 9 0 8 114 101
124 101 3 0 33 21 65 46 40 31 65 44 78 40 10 -3 31 1 47 9 22 12 45 14 87 9
56 -6 59 -5 88 26 l30 33 68 -31 c71 -32 101 -39 193 -46 30 -2 83 -7 118 -11
52 -6 62 -5 62 7 0 12 -20 17 -92 22 -122 9 -188 22 -271 53 -61 23 -73 31
-102 77 -19 29 -48 59 -70 70 -20 11 -41 28 -47 39 -17 32 -22 237 -8 298 22
95 40 137 85 205 43 63 156 184 172 184 5 0 33 16 62 36 72 49 235 124 291
134 25 5 65 14 90 20 73 19 253 17 345 -4 119 -27 171 -53 246 -126 84 -82 97
-103 115 -187 16 -80 9 -134 -35 -267 -49 -146 -136 -253 -329 -404 -42 -33
-49 -42 -32 -42 25 0 71 33 150 105 30 27 69 61 86 75 77 62 159 234 195 405
10 51 10 70 -4 123 -9 35 -13 70 -10 78 8 21 45 16 190 -24 64 -17 115 -26
119 -21 3 5 -1 11 -8 13 -7 2 -35 11 -63 20 -27 9 -78 24 -113 34 l-63 19 -3
61 c-2 55 0 64 20 77 30 20 38 48 24 90 -15 46 -70 63 -147 45 -28 -7 -61 -10
-73 -7 -29 8 -107 -17 -135 -43 l-22 -21 -79 22 c-100 28 -274 30 -378 5 -81
-19 -171 -13 -226 15 -19 10 -93 30 -165 45 -71 14 -133 28 -136 30 -8 4 -143
31 -199 38 -75 11 -75 10 -61 123 7 54 14 163 17 243 3 80 7 150 9 157 3 8 17
5 47 -11 58 -31 93 -39 106 -23 19 24 22 86 8 159 -8 40 -17 92 -20 116 -4 24
-20 68 -36 99 -17 31 -30 67 -30 80 l0 24 38 -27 c41 -30 112 -103 112 -115 0
-4 25 -35 57 -69 79 -86 151 -112 199 -72 36 28 45 56 33 92 -19 54 -119 220
-160 265 -14 17 -47 53 -73 81 -51 56 -61 90 -23 78 12 -4 63 -32 112 -64 126
-79 198 -110 255 -110 29 0 52 6 59 14 12 15 10 52 -5 91 -8 22 -53 64 -69 65
-9 0 -131 87 -179 127 -11 9 -58 35 -105 58 -47 24 -105 57 -129 74 -53 39
-47 55 35 102 107 59 163 127 163 194 0 46 -10 55 -59 55 -58 0 -271 -70 -398
-130 -35 -16 -80 -32 -100 -36 -33 -5 -44 -1 -83 30 -25 20 -49 36 -53 36 -5
0 -56 37 -115 83 -58 45 -123 94 -144 108 -22 15 -70 56 -108 93 -38 36 -72
66 -75 66 -4 0 -58 38 -120 85 -63 47 -118 85 -123 85 -5 0 -45 31 -89 69 -61
53 -82 78 -87 103 -4 18 -17 58 -30 89 l-23 57 29 27 c31 30 35 59 13 110 -17
43 -51 58 -124 53 l-55 -3 -43 85 c-23 47 -48 89 -55 95 -8 5 -28 29 -46 52
-39 50 -126 110 -239 165 -46 22 -85 43 -88 47 -2 5 44 32 103 62 91 46 121
68 198 144 88 87 92 93 119 175 37 118 55 226 43 262 -6 15 -13 28 -17 28 -4
0 -23 -16 -42 -36 -86 -89 -210 -106 -250 -32 -33 60 6 203 85 317 59 84 84
103 135 100 72 -3 107 10 150 56 36 39 40 41 63 29 34 -18 88 -125 136 -269
59 -177 74 -266 73 -435 0 -126 -4 -158 -26 -235 -30 -103 -57 -236 -50 -244
3 -2 28 1 56 8 27 7 51 12 52 10 1 -2 9 -17 18 -34 15 -30 25 -33 78 -24 21 3
26 -1 31 -26 9 -44 25 -69 53 -84 21 -11 30 -10 65 8 23 12 43 21 46 21 2 0
14 -15 25 -34 15 -23 31 -36 54 -40 39 -7 93 7 116 31 9 10 26 27 38 37 l23
19 15 -37 c21 -50 57 -50 87 -1 19 34 22 35 42 20 52 -37 56 -38 66 -8 21 60
27 63 92 47 23 -5 29 -2 39 20 8 16 18 25 28 22 9 -3 35 -7 58 -11 38 -6 42
-5 45 17 2 18 9 23 33 23 27 0 31 4 39 43 10 46 20 52 36 22 28 -53 60 3 60
104 -1 128 -52 390 -96 494 -9 21 -22 62 -30 92 -22 83 -88 204 -167 305 -69
90 -280 305 -297 305 -6 0 -56 34 -112 76 -105 78 -254 155 -383 199 -72 24
-209 55 -244 55 -11 0 -21 4 -23 8 -1 4 -24 23 -51 42 -45 32 -47 35 -41 69 4
20 11 44 16 53 13 27 26 102 37 233 12 122 5 275 -20 450 -26 191 -141 458
-257 599 -105 128 -258 262 -317 278 -11 4 -51 18 -90 33 -238 91 -267 99
-375 103 -262 10 -592 -87 -723 -212 -70 -68 -75 -69 -154 -43 -61 20 -87 22
-248 21 -164 -1 -188 -4 -275 -28 -52 -15 -116 -34 -141 -41 -77 -22 -142 -58
-316 -176 -58 -39 -248 -238 -295 -309 -110 -166 -200 -408 -232 -625 -14 -88
-7 -334 10 -407 5 -23 3 -28 -13 -28 -31 0 -91 -58 -104 -99 l-11 -38 -117 -6
c-64 -4 -135 -9 -158 -13 l-43 -7 -1 234 c0 129 0 623 1 1099 1 858 -3 1050
-23 1050 -6 0 -8 -145 -4 -432z m3012 6 c50 -14 117 -39 149 -55 33 -16 67
-29 77 -29 57 0 240 -133 303 -219 12 -16 51 -63 87 -105 109 -125 178 -284
221 -506 37 -195 36 -577 -3 -710 -22 -75 -31 -90 -53 -90 -25 0 -101 -46
-133 -81 -12 -13 -27 -46 -33 -72 -12 -54 -2 -75 59 -129 41 -37 32 -54 -32
-61 -62 -7 -112 -30 -134 -63 -30 -46 -36 -29 -29 79 6 100 -5 263 -24 362 -6
28 -35 101 -65 164 -30 62 -52 117 -49 122 3 5 47 9 97 10 125 1 171 17 55 18
-112 1 -358 58 -471 110 -46 20 -292 175 -314 197 -8 7 -51 41 -97 74 -48 35
-111 93 -147 136 -34 41 -68 78 -74 82 -15 9 -58 69 -82 112 -10 19 -34 60
-53 90 l-35 55 -3 -38 c-4 -42 43 -144 112 -246 40 -60 47 -101 17 -101 -26 0
-129 124 -141 170 -6 19 -19 71 -29 115 l-19 80 -1 -50 c-2 -75 25 -162 69
-230 48 -73 102 -135 117 -135 6 0 17 -7 24 -16 21 -26 -21 -54 -80 -54 -83 0
-114 15 -165 79 -25 33 -46 65 -46 72 0 29 -33 128 -41 123 -14 -8 -11 -40 12
-107 28 -85 64 -137 126 -183 29 -21 52 -45 53 -52 1 -38 -137 -35 -217 6 -43
22 -103 84 -127 129 -53 104 -38 336 29 443 29 45 30 50 13 50 -16 0 -51 -51
-73 -104 -9 -22 -26 -86 -36 -143 -25 -131 -67 -201 -196 -323 -132 -125 -333
-260 -388 -260 -11 0 -54 -13 -95 -29 -68 -26 -110 -34 -236 -46 -40 -3 -89 4
-126 20 -13 5 -18 3 -18 -8 0 -8 11 -18 24 -21 52 -13 55 -25 34 -133 -16 -81
-19 -126 -14 -263 2 -91 10 -185 16 -210 6 -25 22 -94 36 -154 18 -82 40 -142
86 -235 34 -69 64 -130 66 -134 2 -5 -14 1 -36 12 -37 19 -162 125 -171 144
-1 4 -11 16 -21 25 -11 11 -20 40 -24 86 -4 38 -13 80 -21 95 -19 36 -63 76
-109 98 -22 10 -41 23 -43 28 -3 9 15 40 54 94 17 24 17 24 -5 12 -17 -9 -22
-9 -23 1 -3 28 3 55 21 96 24 53 11 55 -19 2 -12 -22 -24 -40 -27 -40 -2 0
-22 12 -43 26 -37 24 -40 31 -53 97 -7 41 -13 140 -13 232 1 131 5 177 23 255
26 109 74 240 101 279 10 14 37 62 61 106 79 151 117 203 222 302 33 32 66 63
72 69 6 6 49 37 95 68 101 70 244 143 318 162 29 8 79 21 111 30 31 8 120 18
197 21 136 5 143 5 244 -26 58 -17 113 -31 124 -31 10 0 51 29 89 65 142 131
392 212 663 214 102 1 135 -3 210 -25z m-573 -852 c26 -34 67 -76 91 -94 24
-18 80 -60 123 -94 43 -34 93 -68 110 -77 17 -9 54 -34 82 -56 53 -42 184
-111 210 -111 8 0 29 -9 46 -19 27 -17 94 -39 174 -58 23 -6 45 -46 132 -238
33 -73 44 -138 55 -325 8 -115 3 -142 -47 -280 -56 -151 -203 -347 -316 -423
-224 -148 -300 -197 -309 -197 -5 0 -52 -24 -104 -54 -52 -29 -128 -63 -169
-75 -41 -13 -88 -27 -103 -33 -48 -19 -378 -15 -482 5 -219 43 -381 89 -472
136 -23 11 -48 21 -56 21 -27 0 -143 83 -200 143 -32 34 -79 91 -105 127 -25
36 -54 73 -62 83 -9 9 -40 65 -69 124 -41 83 -61 142 -88 258 -33 138 -36 164
-39 330 -3 178 4 258 29 331 l12 38 115 17 c144 20 326 84 435 152 148 93 281
220 359 345 15 23 31 40 35 38 5 -3 14 -27 20 -53 17 -65 55 -125 112 -177 45
-41 55 -45 134 -57 70 -10 92 -10 126 1 45 15 58 34 41 60 -10 16 -5 18 44 22
57 5 106 32 112 61 2 8 -7 25 -20 37 -21 20 -22 22 -5 31 24 14 21 58 -6 99
-13 19 -32 49 -42 65 -17 29 -16 29 16 -5 19 -20 55 -64 81 -98z m-4789 13
c224 -58 375 -273 347 -492 -14 -112 -79 -230 -169 -311 -38 -34 -86 -71 -108
-84 -21 -12 -49 -30 -62 -40 -32 -24 -38 -23 -57 13 -26 50 -154 168 -212 196
-28 13 -93 34 -142 46 -88 22 -90 23 -100 57 -15 53 -12 136 9 230 37 166 93
247 247 359 57 42 150 51 247 26z m-949 -37 c22 -11 53 -29 67 -39 14 -10 45
-25 70 -35 55 -21 127 -90 179 -169 43 -67 80 -200 80 -288 0 -31 6 -57 15
-67 14 -16 6 -19 -119 -44 -74 -14 -143 -26 -153 -26 -34 0 -174 -101 -253
-182 l-78 -81 -48 8 c-135 20 -248 193 -274 422 -13 104 6 206 54 307 40 83
89 134 178 189 l63 39 89 -7 c60 -4 102 -13 130 -27z m604 -681 c135 -39 258
-157 315 -302 40 -101 24 -337 -32 -467 -21 -49 -128 -166 -206 -224 -137
-103 -326 -145 -525 -116 -124 17 -187 47 -261 122 -153 157 -188 384 -97 638
28 79 38 94 107 162 76 76 102 98 173 144 34 23 77 33 273 66 70 12 161 3 253
-23z m748 -138 c70 -26 159 -73 201 -105 35 -27 104 -160 124 -239 14 -54 0
-163 -29 -225 -61 -133 -209 -220 -372 -219 -125 1 -197 19 -278 69 l-72 45 0
47 c0 26 11 82 25 125 36 115 33 231 -10 369 -5 17 -1 25 22 37 15 8 58 31 95
51 62 34 159 63 215 65 12 1 48 -9 79 -20z m-1746 -68 c25 -12 72 -31 105 -43
33 -11 64 -24 69 -29 5 -5 -2 -39 -16 -81 -14 -40 -32 -117 -39 -171 -13 -97
-10 -134 17 -272 6 -30 4 -31 -53 -49 -32 -10 -79 -29 -105 -42 -75 -38 -127
-53 -232 -65 -95 -12 -101 -11 -168 12 -87 30 -140 74 -177 148 -43 84 -49
117 -39 195 11 85 37 151 88 226 56 82 106 122 192 150 164 53 279 60 358 21z
m7578 -29 c40 -34 44 -41 44 -84 1 -57 -10 -72 -80 -105 -48 -23 -58 -24 -92
-14 -21 6 -52 24 -69 40 -26 24 -31 37 -31 74 0 58 21 83 90 107 77 26 90 25
138 -18z m-3355 -49 c49 -37 64 -83 43 -127 -32 -67 -101 -91 -156 -54 -62 42
-57 125 9 181 41 34 59 34 104 0z m3529 -14 c29 -6 105 -32 168 -56 63 -25
129 -49 146 -53 27 -6 145 -81 281 -178 73 -53 241 -217 291 -284 23 -31 46
-60 52 -63 6 -4 16 -17 21 -28 5 -12 17 -35 27 -52 117 -194 206 -485 219
-722 6 -105 -2 -130 -24 -73 -7 19 -18 30 -31 30 -17 0 -21 -9 -27 -62 -9 -77
-10 -79 -39 -68 -27 10 -46 -4 -46 -32 0 -15 -8 -18 -44 -18 -25 0 -48 5 -51
10 -12 20 -25 9 -25 -20 0 -35 -13 -38 -37 -10 -25 28 -46 25 -61 -10 -8 -17
-21 -37 -29 -45 -32 -32 -72 25 -73 104 -1 40 -53 297 -62 307 -7 7 -3 -36 23
-217 11 -74 17 -153 13 -174 -7 -43 -33 -90 -44 -78 -7 8 -51 187 -65 263 -11
63 -80 265 -83 245 -1 -11 9 -63 23 -115 14 -52 35 -143 47 -201 l21 -105 -45
-48 c-34 -37 -55 -50 -87 -56 -36 -6 -44 -5 -56 14 -8 11 -15 25 -15 31 0 6
-6 19 -13 29 -13 17 -16 17 -66 -9 -48 -24 -55 -25 -70 -11 -9 9 -23 38 -30
66 -12 45 -15 50 -35 43 -11 -4 -34 -7 -50 -8 -24 0 -31 6 -41 35 -13 37 -32
43 -82 26 -20 -6 -23 -4 -23 16 0 13 11 61 24 108 35 126 56 249 56 335 0 82
-36 274 -70 367 -11 32 -20 63 -20 69 0 20 -107 226 -138 266 -16 21 -35 56
-42 78 -7 22 -19 51 -27 63 -21 33 -11 37 42 16 87 -36 225 -159 295 -264 8
-13 31 -44 51 -69 36 -47 129 -179 162 -232 11 -16 23 -29 29 -29 6 0 3 10 -5
23 -9 12 -33 47 -53 77 -20 30 -50 75 -67 100 -17 25 -61 91 -99 147 -98 145
-209 230 -400 307 -37 14 -47 29 -30 40 31 19 318 -99 383 -157 13 -12 40 -35
59 -50 163 -132 281 -282 396 -502 34 -66 74 -125 74 -112 0 13 -77 185 -89
198 -6 8 -31 44 -54 80 -114 181 -289 365 -417 438 -89 52 -166 92 -196 103
-19 6 -34 15 -34 18 0 10 43 46 61 53 9 3 19 22 23 44 15 82 14 82 108 62z
m-3699 -144 c9 -20 17 -39 17 -43 0 -5 -24 -16 -52 -26 -51 -18 -132 -65 -125
-73 2 -2 33 10 68 26 74 33 156 53 187 44 12 -3 28 -1 35 5 6 5 23 13 37 17
25 7 25 7 -3 -15 -36 -29 -63 -83 -72 -145 -6 -41 -16 -59 -55 -100 -25 -28
-59 -70 -75 -95 -16 -25 -40 -58 -52 -73 -38 -47 -118 -225 -152 -337 -18 -58
-39 -127 -47 -154 -9 -28 -20 -93 -25 -145 -6 -53 -15 -101 -20 -107 -5 -7
-50 -15 -98 -19 -77 -6 -95 -4 -134 13 -27 12 -48 29 -52 42 -6 20 -11 22 -56
16 -48 -7 -50 -6 -60 22 -10 29 -11 30 -97 34 -102 5 -191 40 -261 103 -39 36
-41 40 -41 96 0 52 -2 59 -20 59 -23 0 -24 7 -10 46 l10 26 -45 -6 c-37 -6
-45 -5 -45 9 0 30 38 125 75 184 32 53 173 220 246 291 43 42 165 138 203 159
19 11 52 31 73 45 54 35 248 116 280 117 16 0 37 4 48 9 11 5 83 9 161 9 l140
1 17 -35z m307 -93 c41 -31 70 -81 70 -123 0 -64 -15 -87 -75 -116 -55 -27
-56 -27 -89 -9 -63 34 -84 61 -91 119 -8 65 10 108 58 138 38 23 88 20 127 -9z
m3053 1 c16 -3 40 -22 59 -46 25 -32 33 -52 36 -97 4 -56 4 -57 -38 -93 -50
-43 -112 -58 -139 -33 -10 9 -27 16 -38 16 -24 0 -80 59 -89 95 -19 75 83 186
156 169 14 -3 37 -8 53 -11z m-270 -135 c-6 -34 -61 -171 -119 -296 -19 -41
-34 -76 -34 -79 0 -4 -11 -21 -26 -40 -23 -30 -54 -93 -54 -109 0 -4 7 -1 15
6 8 7 15 18 15 24 0 6 18 37 39 70 40 59 97 182 147 311 34 89 39 94 58 58 8
-17 31 -44 50 -61 20 -17 36 -33 36 -35 0 -3 -25 -35 -55 -73 -94 -118 -148
-300 -111 -373 21 -40 71 -71 114 -71 40 0 117 38 155 75 15 16 30 25 34 21
10 -10 -14 -160 -32 -204 -42 -97 -78 -161 -108 -189 -44 -41 -167 -134 -187
-140 -8 -3 -49 -18 -92 -35 -72 -28 -78 -29 -106 -14 -48 25 -146 36 -319 36
l-161 0 -7 49 c-4 27 -18 68 -33 90 -22 34 -36 43 -94 62 -55 17 -84 21 -149
17 -78 -5 -81 -4 -90 19 -11 29 -8 71 6 83 5 5 47 16 93 25 45 9 106 26 135
37 97 37 97 37 97 -18 0 -79 17 -85 22 -9 4 62 7 71 36 95 41 34 211 120 217
110 3 -4 -2 -27 -10 -50 -8 -23 -15 -57 -15 -74 1 -31 1 -31 15 9 7 22 21 66
30 97 12 42 26 66 56 92 34 31 59 45 59 32 0 -2 -14 -37 -31 -77 -42 -102 -60
-159 -49 -159 6 0 10 5 10 10 0 6 23 61 51 123 46 103 108 191 124 175 4 -3
-6 -32 -20 -65 -52 -113 -75 -194 -75 -270 0 -72 14 -110 18 -50 7 99 53 270
93 348 18 35 124 209 194 319 20 31 31 56 49 113 9 29 16 19 9 -15z m-2889
-133 c48 -20 90 -14 136 20 19 14 38 25 43 25 6 0 43 -35 82 -77 60 -64 89
-86 162 -123 62 -31 97 -56 114 -79 31 -45 91 -112 153 -172 l49 -48 -6 -53
c-8 -66 -34 -103 -72 -103 -24 0 -32 7 -49 42 -29 59 -48 52 -64 -24 -16 -72
-5 -126 33 -172 26 -30 98 -61 144 -61 18 0 31 -9 43 -30 29 -52 88 -66 241
-61 50 2 73 -12 81 -50 3 -18 4 -34 2 -36 -2 -2 -52 -8 -112 -13 -267 -24
-493 -132 -632 -303 -48 -60 -51 -66 -64 -157 l-13 -94 -61 -23 c-100 -39
-108 -93 -22 -151 37 -24 37 -25 23 -53 -15 -27 -23 -58 -24 -89 -1 -9 -16
-24 -33 -35 -18 -10 -51 -33 -74 -52 -23 -18 -45 -33 -50 -33 -5 0 -29 -16
-54 -36 -57 -46 -144 -112 -190 -143 -19 -13 -67 -52 -106 -87 -74 -67 -181
-137 -195 -128 -5 2 -8 275 -8 604 0 330 -3 605 -6 610 -4 6 -11 68 -16 137
l-9 127 30 29 c19 19 30 39 30 57 0 55 52 286 87 390 33 98 88 229 115 275 91
157 142 224 178 237 8 3 28 -7 45 -23 17 -15 48 -35 69 -44z m-2907 -53 c151
-81 287 -367 229 -481 -37 -71 -203 -162 -351 -192 -113 -23 -200 -17 -295 21
-136 53 -158 88 -167 263 -5 85 -3 97 11 97 9 0 57 13 106 29 83 28 126 48
209 99 38 23 158 137 172 164 12 22 44 22 86 0z m-1173 -46 c18 -43 130 -155
177 -177 76 -36 177 -69 211 -69 57 0 68 -8 68 -47 0 -42 -34 -162 -60 -214
-27 -52 -118 -140 -175 -169 -43 -22 -66 -25 -167 -28 -107 -3 -121 -2 -165
21 -193 97 -231 147 -240 314 -5 93 -4 102 22 155 69 141 189 244 287 247 22
1 31 -6 42 -33z m546 -468 c1 -117 5 -341 10 -498 6 -157 13 -473 16 -702 6
-383 5 -418 -10 -418 -14 0 -16 17 -16 133 -2 780 -8 1011 -36 1565 -6 130 -6
132 15 132 21 0 21 -3 21 -212z m4345 82 c29 -32 13 -100 -41 -166 -25 -31
-44 -58 -41 -60 11 -11 97 97 108 137 7 24 16 48 19 52 10 11 81 -8 146 -38
64 -30 207 -64 297 -72 l67 -6 0 -63 0 -64 -62 0 c-81 0 -159 -37 -189 -90
l-20 -35 -114 1 c-106 1 -118 3 -155 28 -22 14 -40 30 -40 34 0 4 19 17 43 30
23 12 58 36 77 53 32 28 27 26 -52 -15 -95 -51 -125 -55 -191 -27 -58 25 -99
79 -101 130 -1 50 7 57 36 37 27 -19 88 -21 110 -3 29 22 58 81 58 120 0 42
16 49 45 17z m830 -186 l100 -4 6 -122 c6 -134 19 -190 30 -128 l6 35 12 -30
c22 -52 6 -168 -34 -250 -60 -125 -140 -177 -288 -191 -92 -8 -119 -2 -156 36
-72 76 -65 230 16 376 l27 49 8 -33 c24 -100 25 -99 33 41 4 76 4 161 1 189
l-7 51 73 -7 c40 -4 118 -9 173 -12z m-3827 -110 c19 -4 36 -13 39 -21 6 -16
-49 -131 -77 -161 -11 -12 -20 -24 -20 -27 0 -4 -20 -35 -45 -69 -53 -75 -154
-175 -247 -245 -36 -28 -68 -54 -70 -59 -9 -24 -146 -109 -281 -175 -222 -108
-349 -146 -496 -150 -52 -1 -75 2 -78 11 -3 6 1 12 8 12 7 0 22 8 33 19 32 28
149 107 203 136 26 15 66 40 88 56 55 41 187 129 192 129 8 0 149 108 176 135
14 15 46 40 69 55 24 16 61 42 83 58 112 80 146 102 156 102 18 0 112 64 99
68 -12 4 -118 -46 -126 -60 -3 -4 -12 -8 -21 -8 -18 0 -93 -54 -178 -127 -33
-29 -63 -53 -68 -53 -6 0 -112 -79 -172 -128 -6 -5 -37 -26 -70 -47 -33 -21
-93 -62 -132 -91 -40 -30 -77 -54 -83 -54 -5 0 -10 -4 -10 -10 0 -5 -5 -10
-12 -10 -6 0 -58 -34 -115 -75 -57 -41 -110 -75 -118 -75 -9 0 -2 26 25 88
112 257 165 342 292 460 95 89 144 123 288 199 107 56 173 80 257 94 32 5 96
15 143 24 82 14 197 13 268 -1z m4156 -19 c76 -8 96 -23 128 -94 39 -85 -6
-171 -89 -171 -52 0 -56 -16 -11 -45 51 -33 70 -66 75 -138 5 -58 3 -71 -20
-110 -45 -76 -139 -101 -213 -58 -19 12 -37 21 -40 21 -2 0 -4 -39 -4 -87 0
-138 -42 -188 -158 -188 -57 0 -66 3 -88 28 -13 15 -31 50 -41 77 -10 28 -20
50 -23 50 -3 0 -25 -21 -50 -46 -52 -54 -139 -99 -175 -90 -72 18 -116 108
-79 164 9 15 23 31 31 35 7 4 13 17 13 27 0 17 -7 20 -50 20 -81 0 -113 22
-139 94 -12 33 -21 75 -21 93 0 44 83 154 128 169 l33 10 -32 40 c-25 32 -30
45 -26 76 5 40 27 74 66 104 19 14 46 20 104 23 l77 3 0 -30 c0 -16 -8 -40
-18 -53 -167 -219 -139 -490 53 -514 73 -10 162 8 237 48 102 53 161 138 193
279 19 87 14 131 -26 193 -16 25 -29 50 -29 55 0 9 97 30 116 25 6 -2 41 -6
78 -10z m577 -234 c31 -5 95 -28 143 -51 48 -22 110 -50 138 -61 62 -24 112
-62 195 -145 67 -68 85 -96 114 -182 24 -71 24 -118 -1 -203 -22 -74 -36 -86
-46 -41 -32 139 -136 322 -222 390 -48 39 -110 68 -119 57 -5 -4 -2 -10 5 -12
40 -15 113 -77 160 -138 111 -144 176 -324 152 -416 -8 -30 -73 -129 -84 -129
-2 0 -16 25 -31 55 -14 30 -32 61 -38 68 -7 6 -25 31 -40 53 -32 48 -87 103
-69 69 6 -11 29 -42 52 -70 42 -53 100 -159 100 -186 0 -20 -73 -72 -123 -89
-36 -11 -41 -10 -78 17 -22 15 -48 33 -57 38 -9 6 -36 27 -59 48 -24 20 -46
37 -49 37 -13 0 30 -41 104 -102 45 -37 72 -66 70 -76 -2 -9 -22 -22 -48 -30
-87 -26 -284 27 -406 110 -91 62 -212 202 -266 306 -39 76 -81 222 -72 246 3
7 27 25 55 41 59 35 73 70 73 181 0 64 -3 76 -29 110 -28 36 -28 38 -10 48 11
6 31 23 45 38 l25 27 180 1 c99 0 205 -4 236 -9z m-1473 -18 c-1 -5 -21 -35
-43 -67 -36 -53 -40 -66 -40 -120 0 -84 39 -146 112 -183 l53 -25 -6 -67 c-5
-52 -3 -74 10 -99 21 -41 43 -52 113 -54 65 -1 121 21 162 66 14 14 28 26 33
26 4 0 17 -18 28 -40 12 -23 29 -44 38 -47 9 -4 29 -15 44 -26 22 -16 36 -19
80 -13 29 4 70 18 90 32 48 31 88 108 88 168 l0 46 33 -6 c73 -12 77 -14 77
-37 0 -74 84 -277 147 -357 32 -40 137 -146 171 -172 16 -13 22 -28 22 -55 -1
-48 -17 -363 -29 -558 -8 -132 -7 -153 7 -178 16 -27 16 -29 -2 -42 -10 -8
-24 -16 -30 -19 -7 -3 -6 -8 4 -15 8 -5 12 -12 10 -14 -16 -14 -112 -27 -192
-27 -86 1 -439 37 -568 59 -30 5 -91 15 -135 21 -104 15 -151 27 -260 63 -200
66 -327 139 -341 194 -11 41 13 45 68 11 58 -36 205 -95 257 -104 20 -3 90
-19 156 -35 99 -25 320 -70 458 -95 103 -18 358 -31 344 -18 -3 3 -54 12 -114
20 -322 40 -566 80 -629 104 -13 5 -54 14 -90 20 -68 11 -232 62 -316 98 -26
12 -54 32 -63 45 -16 25 -15 36 25 202 5 22 23 105 41 185 38 178 111 464 139
544 11 33 20 73 19 90 -1 34 -72 -168 -114 -326 -14 -51 -31 -98 -39 -106 -23
-23 -97 -26 -162 -7 -62 18 -173 66 -212 91 l-24 16 81 83 c45 45 81 85 81 89
0 19 -29 -3 -100 -75 -64 -65 -83 -79 -100 -74 -88 28 -60 225 61 415 46 72
58 110 18 60 -66 -83 -115 -190 -150 -324 l-12 -48 -18 23 c-28 38 -39 91 -39
191 0 108 21 171 68 208 15 12 45 38 67 58 63 58 117 97 155 112 19 7 40 17
46 22 20 15 98 40 184 58 85 19 245 27 238 13z m2265 -490 c26 -24 23 -88 -5
-107 -12 -9 -33 -16 -45 -16 -28 0 -30 -16 -3 -30 29 -15 62 -87 62 -133 -1
-45 -32 -97 -73 -121 -34 -20 -52 -20 -95 0 -19 9 -37 14 -40 12 -2 -3 9 -34
26 -69 30 -63 36 -101 24 -134 -8 -19 -84 -55 -118 -55 -34 0 -81 27 -96 55
-18 34 -28 23 -35 -43 -9 -78 -23 -110 -56 -127 -39 -21 -69 -18 -100 8 -32
26 -44 50 -53 99 l-7 36 78 43 c107 58 209 143 251 209 19 30 43 67 53 81 16
24 84 227 91 274 4 24 61 47 98 39 14 -3 33 -13 43 -21z m-3047 -100 c58 -144
119 -216 237 -283 74 -42 199 -80 260 -80 53 0 57 -8 27 -57 -52 -86 -178 -89
-196 -5 -4 20 -8 40 -9 45 -2 4 -3 12 -4 17 -1 13 -39 4 -88 -21 -48 -24 -85
-24 -108 1 -14 16 -16 29 -11 71 l7 52 -28 -7 c-78 -18 -108 -18 -132 1 -36
29 -33 75 7 116 35 36 39 47 17 47 -25 0 -79 31 -97 55 -23 30 -14 53 26 71
55 23 75 18 92 -23z m3121 -283 c15 -17 51 -45 78 -62 28 -18 89 -62 136 -99
47 -36 96 -73 110 -80 13 -8 26 -16 29 -19 4 -4 94 -81 178 -151 12 -10 25
-19 30 -19 4 0 23 -14 42 -30 19 -16 40 -33 45 -37 6 -5 37 -28 70 -53 33 -25
72 -52 88 -59 15 -8 27 -18 27 -22 0 -4 23 -22 52 -39 61 -38 86 -36 186 16
92 48 285 112 360 120 l62 7 0 -27 c0 -53 -55 -120 -136 -167 -57 -32 -114
-81 -114 -97 0 -16 95 -80 183 -122 73 -35 166 -98 320 -215 42 -32 48 -40 45
-68 -6 -63 -70 -47 -248 62 -109 66 -200 112 -210 106 -25 -16 2 -92 49 -135
33 -31 146 -181 168 -223 9 -18 19 -34 22 -37 13 -10 41 -82 41 -103 0 -12 -7
-33 -16 -46 -32 -46 -122 -6 -185 83 -63 86 -76 102 -152 179 -52 52 -82 76
-89 69 -14 -14 6 -113 36 -176 27 -57 51 -173 60 -283 l6 -73 -26 0 c-33 0
-113 57 -119 84 -2 12 -9 48 -15 81 -24 124 -55 211 -109 300 -14 22 -31 44
-39 48 -7 5 -35 43 -61 84 -38 58 -70 93 -145 153 -53 42 -120 90 -149 105
-29 16 -83 57 -122 93 -38 35 -87 73 -108 83 -20 11 -45 26 -55 34 -126 102
-161 129 -187 139 -24 11 -105 68 -160 114 -5 4 -37 26 -70 48 -117 79 -185
128 -185 133 0 3 16 17 35 31 45 33 57 67 45 132 -6 28 -10 54 -10 58 0 4 20
13 44 19 30 7 57 24 83 51 21 22 41 40 45 40 3 0 19 -14 35 -30z m-6987 -10
c0 -5 -24 -10 -54 -10 -75 0 -244 -18 -346 -36 -47 -9 -119 -19 -161 -24 -248
-27 -482 -163 -401 -232 37 -33 171 -87 252 -102 160 -30 246 -37 530 -42 337
-6 694 12 880 45 193 35 340 92 408 158 21 20 -20 70 -66 81 -247 60 -389 84
-587 102 -136 11 -294 29 -332 36 -13 2 -23 12 -23 21 0 14 19 15 193 10 183
-5 225 -10 512 -62 50 -9 116 -20 149 -26 72 -13 222 -85 249 -120 18 -25 18
-28 3 -57 -33 -64 -157 -138 -282 -167 -190 -44 -350 -69 -507 -80 -54 -3
-108 -8 -120 -11 -31 -7 -268 -6 -319 0 -24 3 -140 11 -258 16 -286 14 -388
27 -591 79 -180 46 -257 117 -201 188 36 46 277 147 392 164 30 4 127 19 215
33 133 21 237 31 443 45 12 0 22 -3 22 -9z m0 -94 l0 -53 -82 -8 c-126 -11
-420 -88 -530 -139 -51 -24 -112 -49 -134 -56 -40 -12 -44 -11 -123 30 -90 47
-97 61 -53 102 45 43 100 66 252 106 127 34 402 69 558 71 l112 1 0 -54z m555
3 c66 -10 140 -24 165 -29 25 -5 101 -21 170 -35 82 -18 138 -35 163 -52 l39
-25 -31 -22 c-17 -13 -56 -31 -86 -40 l-54 -18 -36 27 c-43 34 -202 88 -333
114 -84 18 -254 36 -402 44 -43 2 -45 3 -48 36 l-3 34 168 -7 c92 -4 222 -16
288 -27z m3901 -26 c-18 -137 -100 -466 -116 -471 -6 -2 -22 -14 -36 -26 -23
-19 -24 -24 -13 -54 6 -18 9 -35 7 -37 -9 -10 -121 -34 -208 -45 -106 -13
-243 -37 -460 -80 -244 -49 -432 -81 -438 -76 -6 7 123 128 156 145 15 8 72
49 127 91 55 42 107 79 115 83 8 3 56 38 105 78 50 39 101 79 115 87 14 9 64
49 111 88 80 68 130 102 206 141 29 15 33 15 75 -6 56 -27 96 -27 151 0 37 18
48 31 67 75 28 68 45 71 36 7z m1654 -103 c52 -10 108 -20 123 -22 25 -3 31
-10 46 -56 27 -80 76 -122 141 -122 50 0 120 76 120 130 0 24 23 26 60 5 14
-8 34 -14 45 -15 17 0 69 -31 201 -120 13 -8 70 -50 128 -92 58 -43 109 -78
113 -78 4 0 57 -38 117 -83 61 -46 118 -86 126 -89 26 -10 100 -68 100 -78 0
-6 -10 -5 -22 3 -37 22 -280 74 -453 97 l-160 21 -175 -21 c-225 -27 -325 -58
-477 -151 -35 -21 -67 -39 -72 -39 -5 0 -60 -48 -122 -106 l-114 -105 -6 43
c-10 62 0 98 28 111 17 8 23 17 19 30 -2 11 0 27 6 37 9 14 6 24 -12 49 l-22
32 12 167 c7 92 13 176 13 187 -1 43 18 329 23 336 2 4 30 -6 62 -22 31 -16
100 -38 152 -49z m-5580 26 c63 -13 128 -29 143 -35 16 -6 40 -11 55 -11 30
-1 144 -59 149 -77 6 -17 -42 -29 -242 -64 -141 -25 -226 -33 -395 -40 -397
-15 -803 6 -930 48 -31 10 256 133 311 133 15 0 44 6 65 14 36 12 169 37 270
50 l41 6 6 -46 c2 -25 11 -53 20 -61 13 -13 18 -13 45 1 34 17 42 33 42 81 l0
34 153 -4 c112 -3 182 -11 267 -29z m675 -213 c-4 -32 -15 -110 -25 -173 -10
-63 -23 -163 -29 -221 -17 -173 -42 -320 -55 -316 -6 2 -44 47 -84 100 -143
191 -311 283 -478 262 -68 -8 -91 -30 -156 -147 -62 -111 -88 -218 -95 -382
-5 -123 7 -266 27 -326 36 -104 40 -142 44 -345 4 -208 9 -248 47 -342 7 -18
11 -35 8 -37 -11 -12 -278 -46 -353 -46 -43 0 -122 7 -175 15 -179 27 -396 57
-463 65 -56 6 -81 16 -143 55 -42 26 -82 57 -89 68 -8 12 -17 51 -20 87 -4 36
-11 97 -17 135 -5 39 -16 120 -24 180 -8 61 -23 160 -35 220 -33 170 -41 221
-55 350 -14 123 -50 358 -84 546 -11 59 -17 116 -14 127 2 11 -2 31 -10 43 -9
13 -17 42 -19 64 -4 49 13 55 66 26 20 -12 45 -21 55 -21 9 0 53 -11 97 -24
203 -60 412 -85 799 -95 405 -10 576 1 860 59 77 16 162 36 189 44 27 9 62 16
78 16 15 0 28 5 28 10 0 6 8 10 18 10 9 0 35 11 57 24 22 13 44 25 48 25 5 1
5 -25 2 -56z m3245 -383 c180 -91 291 -128 500 -165 235 -41 369 -55 607 -62
l225 -6 9 -24 c15 -39 10 -115 -10 -158 -10 -22 -37 -67 -59 -99 -23 -33 -42
-66 -42 -74 0 -8 -6 -28 -14 -45 -31 -70 -85 -256 -91 -315 -10 -93 -16 -106
-65 -158 -42 -44 -259 -198 -365 -257 -27 -16 -86 -51 -131 -78 -44 -26 -100
-57 -125 -67 -24 -11 -78 -39 -119 -63 -41 -25 -106 -60 -145 -78 -153 -75
-231 -116 -260 -137 -34 -25 -109 -64 -123 -64 -11 0 -123 -53 -170 -81 l-32
-19 -44 93 c-23 50 -64 142 -90 202 -108 250 -281 594 -376 745 -33 52 -63
102 -67 110 -11 25 -85 145 -92 150 -3 3 -30 39 -60 80 -56 78 -106 137 -227
269 -67 73 -93 115 -80 129 7 7 76 18 191 31 92 10 640 107 855 152 52 10 110
19 130 20 19 0 53 7 75 14 54 18 84 11 195 -45z m2618 18 c28 -6 52 -14 52
-18 0 -3 -13 -19 -30 -35 -16 -16 -30 -36 -30 -44 -1 -38 -14 -43 -76 -30 -52
10 -66 10 -112 -5 -30 -10 -59 -28 -67 -40 -24 -36 -22 -134 2 -181 24 -45 67
-95 83 -95 26 0 5 -22 -44 -44 -62 -29 -101 -74 -122 -142 -29 -97 -8 -166 67
-220 46 -33 124 -64 162 -64 26 0 147 55 147 67 0 4 15 16 32 26 31 18 33 18
43 2 50 -84 69 -106 110 -131 26 -15 66 -31 88 -35 52 -9 128 6 161 32 42 33
75 117 82 211 l7 84 66 -3 c61 -3 68 -1 101 27 34 29 35 33 35 99 0 57 -4 74
-27 108 -15 23 -46 54 -69 69 -49 34 -54 43 -35 69 13 18 15 18 37 3 109 -75
282 -337 320 -487 64 -248 37 -620 -63 -870 -17 -42 -36 -93 -44 -114 -28 -76
-143 -232 -252 -344 -60 -62 -115 -113 -122 -113 -7 0 -44 -20 -84 -44 -39
-25 -93 -50 -121 -56 -27 -6 -62 -19 -76 -30 -27 -19 -91 -30 -296 -50 -132
-14 -286 -1 -458 37 -132 29 -307 87 -355 117 -19 12 -46 27 -60 33 -42 18
-189 134 -256 201 -18 19 -48 57 -66 85 -18 29 -35 54 -39 57 -7 6 -39 66 -39
75 0 3 12 5 26 5 49 0 135 32 171 63 44 39 63 82 63 142 0 43 2 46 21 40 82
-26 165 -22 264 15 41 15 102 85 109 126 12 62 -39 124 -139 171 l-60 27 45 9
c72 14 96 26 142 71 87 87 107 171 55 234 -82 98 -124 117 -255 117 -56 0
-102 3 -102 7 0 4 9 31 20 60 26 69 25 90 -6 145 -33 55 -53 63 -159 63 -68 0
-91 -4 -120 -21 -41 -25 -53 -21 -27 7 9 10 41 50 71 88 69 89 219 232 271
258 14 7 41 22 60 34 62 37 223 103 295 120 137 33 474 39 603 12z m-6333 -39
c71 -34 179 -124 232 -194 21 -27 46 -59 56 -70 79 -86 210 -333 242 -454 20
-79 55 -278 55 -316 -1 -29 -1 -29 -23 15 -44 87 -114 207 -133 228 -10 11
-41 53 -69 91 -27 39 -52 71 -55 71 -9 0 -149 140 -159 158 -5 10 -19 47 -31
82 -12 36 -30 83 -40 105 -10 22 -27 61 -38 87 -27 62 -107 174 -143 201 -16
11 -29 25 -29 29 0 15 73 -2 135 -33z m-133 -12 c71 -58 102 -106 176 -280 58
-134 70 -184 39 -158 -26 21 -129 43 -173 36 -112 -16 -227 -179 -265 -372 -6
-35 -15 -63 -18 -63 -10 0 -29 70 -42 159 -15 105 -7 329 16 426 22 96 100
243 144 272 47 32 63 29 123 -20z m6741 -18 c69 -21 79 -28 89 -55 10 -30 14
-31 64 -32 113 -1 203 -103 143 -163 -11 -11 -19 -22 -17 -24 2 -1 29 -15 61
-30 62 -29 110 -82 122 -135 8 -36 -24 -114 -53 -129 -12 -6 -37 -11 -56 -11
-29 0 -44 8 -75 40 -34 36 -61 51 -61 34 0 -3 7 -28 16 -55 21 -64 14 -177
-14 -234 -33 -66 -64 -89 -133 -95 -85 -8 -136 16 -191 90 -39 53 -41 80 -13
136 28 56 30 64 13 64 -7 0 -28 -25 -47 -55 -49 -80 -133 -135 -236 -154 -44
-8 -54 -6 -110 22 -84 43 -109 81 -102 157 8 95 67 180 135 196 35 9 82 33 82
42 0 4 -22 20 -49 36 -42 25 -52 38 -75 93 -31 76 -33 112 -6 146 31 40 142
46 221 13 13 -6 19 2 28 36 13 50 18 58 51 82 33 22 108 17 213 -15z m-8617
-76 c34 -39 47 -72 64 -165 11 -55 23 -77 33 -61 3 5 -6 49 -19 98 -12 50 -26
101 -29 115 l-7 25 25 -27 c31 -33 62 -115 72 -186 6 -45 4 -55 -11 -67 -17
-12 -15 -14 21 -24 22 -6 64 -11 93 -11 28 0 52 -3 52 -7 0 -5 3 -19 7 -32 l6
-23 -73 7 -73 7 9 -38 c5 -22 9 -69 8 -105 -2 -127 -65 -199 -174 -199 -73 0
-142 63 -160 147 -7 31 -4 50 21 111 16 40 29 87 29 103 0 47 -26 96 -75 143
-51 50 -56 76 -26 143 19 41 38 57 96 80 43 17 76 7 111 -34z m4260 -95 c9
-17 44 -59 78 -93 62 -62 166 -191 222 -276 18 -26 37 -54 43 -61 17 -19 138
-208 201 -313 87 -145 126 -219 186 -354 57 -128 69 -154 176 -386 33 -71 70
-154 84 -183 13 -29 24 -56 24 -61 0 -12 -62 -23 -73 -12 -11 11 0 51 14 51 5
0 9 8 9 18 0 16 -8 17 -66 14 -63 -4 -88 2 -173 42 -13 6 -42 27 -64 46 -34
30 -40 43 -44 85 -8 90 22 126 135 162 28 9 52 19 52 23 0 3 -57 18 -127 33
-150 33 -210 59 -275 120 -53 49 -57 66 -32 139 17 52 105 143 148 154 14 3
26 13 26 21 0 13 -13 14 -82 9 -86 -7 -165 3 -221 28 -18 8 -39 16 -48 19 -19
6 -49 86 -49 131 0 23 12 41 50 78 27 26 61 50 75 54 24 6 34 27 17 38 -10 6
-133 33 -204 45 -65 11 -124 51 -131 90 -10 49 6 74 67 104 31 16 56 32 56 36
0 11 -79 47 -134 60 -70 17 -105 38 -112 67 -14 56 39 103 118 104 32 0 40 -5
54 -32z m-170 -124 c13 -9 63 -28 109 -43 l85 -27 -50 -37 c-43 -32 -50 -42
-50 -73 0 -19 6 -50 14 -69 19 -46 100 -82 214 -97 87 -11 101 -23 60 -51 -13
-8 -37 -28 -53 -45 -26 -26 -45 -33 -125 -46 -52 -9 -133 -23 -180 -31 -47 -8
-152 -22 -235 -30 -138 -14 -319 -42 -520 -80 -44 -8 -114 -19 -155 -24 -41
-5 -124 -19 -184 -31 -82 -17 -110 -19 -116 -10 -4 7 -10 51 -14 98 -9 115
-44 266 -68 294 -41 48 -28 54 252 120 96 22 186 42 200 45 142 23 530 100
620 122 139 34 163 36 196 15z m-2051 -129 c40 -11 98 -51 168 -118 31 -30 61
-57 66 -59 5 -2 42 -44 83 -95 54 -69 98 -142 171 -285 118 -234 144 -299 160
-403 20 -130 14 -374 -11 -476 -31 -126 -86 -212 -165 -255 -26 -14 -157 -32
-157 -21 0 3 13 46 29 95 38 116 50 207 58 427 5 158 3 194 -16 295 -56 296
-181 589 -315 740 -106 118 -143 139 -232 126 -52 -7 -57 4 -11 27 33 17 108
18 172 2z m5207 -25 c21 -6 50 -26 68 -47 37 -42 37 -66 -5 -186 -14 -39 -25
-74 -25 -79 0 -13 22 -9 41 8 22 19 133 30 203 20 75 -12 175 -126 162 -187
-21 -108 -157 -199 -297 -199 -33 0 -40 -3 -37 -17 2 -12 21 -21 67 -30 111
-23 191 -89 191 -159 0 -66 -89 -129 -195 -139 -66 -6 -92 -2 -191 30 -20 6
-21 4 -17 -67 5 -83 -4 -107 -57 -149 -28 -22 -50 -29 -107 -35 l-71 -6 -22
42 c-27 53 -65 203 -75 293 l-7 67 72 0 c145 0 237 96 248 257 5 84 -16 139
-74 196 -50 48 -98 61 -160 42 -66 -20 -66 -20 -58 23 19 104 96 245 156 284
26 17 111 46 138 47 8 1 32 -4 52 -9z m-5196 -106 c142 -146 244 -359 336
-699 25 -96 35 -372 19 -526 -15 -134 -74 -347 -101 -364 -9 -5 -90 19 -129
39 -47 25 -202 152 -242 199 -64 75 -104 142 -138 228 -19 46 -37 89 -42 94
-4 6 -27 67 -51 135 l-43 125 0 245 c0 271 -7 225 75 445 16 43 37 74 73 108
48 45 52 47 110 47 l59 0 74 -76z m721 -26 c45 -50 70 -141 87 -328 14 -146
10 -160 -47 -160 -27 0 -44 -7 -60 -24 -15 -16 -36 -25 -66 -27 l-45 -4 -22
165 c-12 91 -32 207 -44 258 -12 51 -20 95 -18 96 1 2 27 6 56 10 48 6 54 5
77 -20 14 -15 32 -52 42 -83 24 -80 37 -88 29 -18 -6 57 -18 87 -52 135 -16
21 -16 22 13 22 18 0 38 -9 50 -22z m1603 -252 c0 -13 3 -37 6 -53 5 -27 3
-30 -38 -43 -23 -7 -59 -16 -78 -20 -19 -4 -80 -24 -135 -45 -214 -79 -323
-114 -375 -120 -69 -9 -121 -23 -340 -93 -163 -52 -192 -58 -245 -52 -19 2
-114 -11 -220 -29 -27 -4 -90 -18 -138 -31 -51 -13 -92 -19 -96 -14 -5 5 -19
41 -31 79 -13 39 -25 75 -27 82 -3 6 13 14 39 18 24 4 52 15 63 25 11 10 38
21 59 25 26 4 50 18 70 40 30 33 38 35 231 74 110 22 250 47 310 56 276 42
367 53 465 60 58 4 146 14 195 22 50 9 122 21 160 28 112 20 125 19 125 -9z
m2667 13 c32 -12 56 -36 96 -96 31 -49 34 -91 12 -174 -20 -77 -48 -121 -94
-147 -46 -26 -133 -44 -168 -36 l-25 7 5 161 c4 177 13 219 56 265 31 33 67
40 118 20z m-2604 -147 c54 -43 136 -66 218 -60 38 3 69 3 69 -1 0 -3 -16 -17
-36 -30 -19 -13 -43 -36 -53 -50 -21 -31 -51 -116 -51 -146 0 -47 132 -163
205 -181 48 -11 52 -18 15 -25 -49 -9 -498 -104 -656 -140 -73 -16 -143 -29
-157 -29 -14 0 -52 -6 -84 -14 -57 -14 -170 -40 -393 -91 -63 -14 -125 -28
-137 -31 -20 -5 -22 -1 -28 53 -10 81 -30 160 -76 291 -21 62 -39 117 -39 121
0 5 26 17 58 28 74 26 525 153 542 153 8 0 109 34 226 75 194 69 302 103 330
104 6 1 27 -12 47 -27z m-1234 -364 c35 -77 98 -262 111 -320 17 -85 5 -145
-34 -169 -51 -31 -142 -56 -321 -89 -93 -17 -192 -38 -218 -47 -27 -8 -50 -13
-52 -11 -2 2 7 44 20 93 28 101 36 254 22 412 l-9 91 57 17 c220 64 263 67
298 25 29 -34 61 -114 72 -177 8 -51 25 -57 25 -9 0 41 -34 154 -54 181 -26
34 -19 45 24 45 38 0 41 -3 59 -42z m7568 -249 c49 -18 101 -60 117 -94 24
-49 21 -117 -5 -133 -19 -12 -23 -11 -37 10 -35 50 -103 114 -151 143 -28 17
-51 34 -51 38 0 7 76 46 92 47 4 0 19 -5 35 -11z m-1274 -978 c54 -37 74 -72
61 -108 -15 -44 -55 -50 -120 -17 -99 50 -124 110 -56 137 53 22 68 21 115
-12z"/>
<path d="M6820 7743 c-203 -73 -275 -104 -340 -147 -174 -114 -318 -256 -383
-377 -57 -107 -35 -106 56 2 32 38 97 99 144 134 47 36 82 65 76 65 -12 0
-126 -80 -131 -92 -2 -4 -9 -8 -16 -8 -7 0 -27 -16 -46 -35 -18 -19 -36 -33
-38 -31 -18 18 158 188 285 276 145 100 226 137 401 185 45 12 85 25 89 28 8
8 -75 8 -97 0z"/>
<path d="M7530 7524 c0 -12 121 -153 150 -176 27 -21 91 -72 145 -117 86 -70
131 -98 283 -174 96 -48 183 -87 195 -87 12 0 47 -9 77 -20 159 -60 198 -68
203 -47 1 5 -50 25 -113 46 -110 37 -200 84 -303 158 -26 20 -51 32 -55 28 -4
-3 1 -11 10 -16 9 -5 23 -15 30 -22 7 -7 39 -30 71 -51 31 -22 55 -41 53 -43
-3 -4 -141 63 -236 115 -19 11 -47 25 -63 32 -15 8 -62 42 -105 77 -42 35 -93
74 -113 87 -43 29 -85 70 -159 153 -50 57 -70 73 -70 57z"/>
<path d="M6530 7464 c-68 -39 -180 -123 -225 -169 -165 -170 -235 -261 -235
-309 0 -14 22 3 85 67 46 48 90 87 97 87 7 0 24 12 38 27 l25 26 -25 -8 c-14
-4 -51 -28 -84 -53 -32 -25 -57 -40 -55 -34 2 6 44 54 93 107 80 86 208 188
319 254 66 40 36 45 -33 5z"/>
<path d="M7940 7298 c38 -36 211 -148 240 -155 14 -3 64 -20 111 -39 71 -28
304 -94 332 -94 4 0 7 4 7 9 0 4 -21 16 -47 26 -27 10 -74 31 -105 46 -66 33
-99 39 -49 8 18 -11 31 -22 29 -25 -6 -6 -230 71 -281 97 -23 12 -81 46 -130
75 -48 29 -97 58 -110 65 -21 10 -20 10 3 -13z"/>
<path d="M7675 6893 c29 -70 29 -72 13 -107 -9 -18 -38 -51 -64 -72 -26 -22
-75 -67 -109 -100 -59 -59 -63 -66 -80 -140 -24 -107 -17 -210 18 -287 14 -31
33 -60 42 -63 12 -5 13 -9 4 -20 -6 -8 -17 -14 -24 -14 -7 0 -18 -7 -25 -15
-17 -20 3 -20 84 1 75 20 165 14 253 -18 64 -22 92 -19 57 7 -18 14 -18 15 16
47 48 44 90 151 97 244 8 102 -25 210 -83 272 -37 39 -48 72 -24 72 14 0 72
121 66 137 -9 22 -21 8 -36 -42 -16 -50 -64 -95 -102 -95 -34 0 -35 7 -3 44
37 43 48 134 18 144 -9 2 -13 -9 -13 -37 0 -64 -23 -107 -69 -130 -40 -21 -64
-14 -35 10 42 35 57 116 28 157 -18 26 -39 30 -29 5z m101 -232 c106 -48 154
-132 154 -271 0 -110 -51 -250 -98 -267 -9 -4 -20 -11 -24 -17 -5 -7 -21 -7
-53 2 -25 7 -87 12 -138 13 -91 0 -92 1 -116 31 -81 102 -60 375 35 460 11 9
41 28 68 42 58 31 114 33 172 7z"/>
<path d="M7585 6480 c-49 -39 -60 -55 -74 -108 -16 -58 0 -110 49 -161 35 -36
46 -41 84 -41 81 0 137 77 139 195 2 61 0 66 -33 99 -26 25 -47 36 -81 40 -41
6 -49 3 -84 -24z"/>
<path d="M6543 6774 c-9 -24 5 -114 22 -140 20 -31 19 -34 -12 -34 -43 1 -72
32 -79 84 -7 49 -19 59 -29 26 -9 -29 13 -89 43 -117 18 -17 22 -27 15 -34 -8
-8 -23 -5 -52 12 -41 23 -44 27 -56 87 -9 43 -25 31 -25 -19 0 -35 6 -47 45
-85 25 -24 45 -48 45 -53 0 -5 -10 -27 -22 -48 -20 -33 -23 -52 -23 -148 0
-87 4 -119 19 -153 10 -23 22 -42 26 -42 8 0 30 -45 30 -61 0 -6 -16 -17 -35
-25 -19 -8 -35 -19 -35 -24 0 -14 6 -13 43 6 26 14 53 16 163 11 l131 -6 30
32 c113 123 154 296 97 411 -47 94 -112 141 -232 167 -70 14 -87 37 -86 110 1
56 -10 77 -23 43z m229 -219 c66 -44 108 -130 108 -220 0 -53 -25 -148 -55
-205 -25 -49 -85 -102 -104 -94 -9 4 -53 9 -99 12 l-83 4 -39 50 c-22 27 -45
68 -51 91 -17 63 -7 214 17 257 57 106 116 143 209 135 40 -3 72 -13 97 -30z"/>
<path d="M6580 6433 c-37 -15 -80 -99 -79 -155 1 -102 51 -158 140 -158 45 0
50 3 73 38 49 76 58 172 22 227 -27 41 -109 66 -156 48z"/>
<path d="M6845 5750 c-10 -22 -33 -51 -52 -66 -38 -28 -36 -55 3 -30 43 29 81
21 129 -29 92 -94 172 -124 252 -95 56 21 124 76 153 123 l30 47 41 -20 c22
-12 53 -20 67 -18 25 3 24 5 -18 26 -28 14 -55 38 -72 65 l-28 42 0 -38 c0
-30 -5 -39 -22 -46 -27 -10 -36 -7 -105 28 l-52 26 -45 -24 c-42 -24 -45 -24
-79 -8 -35 17 -37 17 -83 -8 -42 -22 -104 -34 -104 -20 0 3 6 21 14 40 13 31
12 45 -4 45 -4 0 -15 -18 -25 -40z m178 -100 l46 -21 100 21 c106 21 141 25
141 13 -1 -30 -113 -107 -171 -118 -36 -7 -46 -3 -146 49 -27 14 -63 55 -63
71 0 12 50 4 93 -15z"/>
<path d="M2285 6144 c-37 -40 -52 -111 -39 -181 21 -117 100 -140 169 -49 32
42 36 90 15 177 -10 39 -19 55 -44 70 -44 27 -64 24 -101 -17z"/>
<path d="M1887 6133 c-17 -20 -47 -126 -47 -168 0 -41 29 -94 61 -110 24 -13
32 -13 61 -1 26 11 37 25 51 63 28 77 21 174 -15 212 -24 27 -88 29 -111 4z"/>
<path d="M2370 5742 c0 -21 -36 -56 -92 -90 -29 -18 -51 -23 -110 -23 -110 0
-225 41 -212 76 12 31 -17 16 -56 -29 l-25 -29 26 7 c19 4 45 -3 85 -21 46
-21 79 -28 146 -31 110 -6 122 -2 199 55 35 26 67 48 71 48 18 0 19 17 3 35
-23 25 -35 26 -35 2z"/>
<path d="M9336 5917 c3 -8 24 -24 47 -37 54 -31 124 -100 214 -214 100 -125
175 -271 249 -481 14 -38 29 -79 33 -90 5 -11 17 -42 27 -69 11 -27 25 -51 33
-54 16 -5 15 1 -14 168 -23 133 -84 340 -99 340 -7 0 23 -118 55 -220 16 -52
32 -120 34 -150 l5 -55 -21 55 c-12 30 -37 98 -56 150 -103 276 -303 559 -456
643 -58 31 -58 31 -51 14z"/>
<path d="M4845 5838 c-67 -62 -143 -140 -222 -228 -98 -109 -193 -286 -210
-390 -5 -32 11 -41 21 -13 12 30 139 213 149 213 5 0 7 -7 3 -15 -10 -26 8
-16 26 15 9 16 13 32 9 35 -16 9 -87 -53 -120 -104 -19 -29 -36 -50 -38 -47
-7 7 33 92 61 128 14 18 52 71 85 117 33 47 120 145 193 218 136 136 164 183
43 71z"/>
<path d="M5282 5784 c-29 -20 -80 -68 -114 -107 -34 -40 -67 -76 -74 -82 -22
-19 -129 -210 -162 -290 -18 -44 -38 -111 -46 -148 -15 -77 -6 -78 14 -2 39
147 144 349 237 455 68 76 152 160 161 160 5 0 19 11 32 25 33 35 14 31 -48
-11z"/>
<path d="M6820 3852 c-67 -33 -112 -181 -76 -250 39 -76 200 -218 265 -235 13
-3 34 -1 45 5 24 12 159 100 166 108 3 3 33 27 68 54 117 89 124 163 23 260
-60 59 -152 65 -252 17 l-44 -21 -15 20 c-44 58 -115 75 -180 42z m133 -40
c10 -9 28 -34 38 -54 23 -46 31 -47 46 -9 13 34 55 59 117 67 65 9 89 0 146
-56 43 -42 50 -55 50 -88 0 -32 -7 -45 -44 -80 -24 -23 -47 -42 -50 -42 -3 0
-33 -22 -67 -49 -34 -27 -88 -66 -120 -86 l-59 -36 -57 44 c-83 65 -160 146
-178 189 -29 71 -12 162 39 205 26 22 36 24 75 19 24 -3 53 -14 64 -24z"/>
<path d="M1225 3118 c7 -80 29 -282 61 -548 8 -69 19 -170 25 -225 5 -55 12
-107 15 -115 13 -38 27 33 32 162 6 178 21 160 23 -27 0 -77 6 -192 14 -255
l13 -115 1 155 c0 85 -4 209 -8 275 -14 186 -44 232 -57 88 -4 -40 -10 -70
-14 -68 -4 2 -10 28 -14 57 -3 29 -22 177 -41 328 -19 151 -35 296 -35 323 0
27 -5 47 -11 47 -7 0 -8 -27 -4 -82z"/>
<path d="M6970 2641 c-33 -19 -340 -121 -364 -121 -42 0 -588 -163 -562 -168
9 -2 112 24 229 57 256 72 405 111 432 111 12 0 77 22 145 48 69 27 133 52
143 55 20 7 23 27 5 27 -7 0 -20 -4 -28 -9z"/>
<path d="M7600 2339 c0 -38 -40 -130 -70 -163 -11 -11 -43 -52 -72 -90 -34
-45 -71 -79 -103 -98 -77 -44 -245 -124 -295 -142 -39 -13 -41 -15 -16 -16 41
0 218 73 302 126 40 24 76 44 80 44 5 0 22 21 39 48 16 26 49 70 72 98 75 93
110 187 79 213 -14 12 -16 9 -16 -20z"/>
<path d="M7171 1819 c-14 -5 -81 -23 -150 -40 -147 -35 -262 -74 -288 -98 -10
-9 -58 -29 -108 -45 -119 -36 -119 -36 -50 -29 67 6 130 28 159 55 23 21 144
59 279 87 104 22 187 53 187 70 0 6 -1 11 -2 10 -2 0 -14 -5 -27 -10z"/>
<path d="M8465 2885 c-37 -20 -55 -42 -55 -70 0 -16 -11 -27 -39 -40 -48 -21
-94 -97 -80 -132 10 -27 39 -43 78 -43 25 0 34 -7 50 -39 24 -46 33 -51 93
-44 37 4 48 11 59 32 7 14 14 28 16 30 1 2 24 5 50 8 61 5 75 20 81 85 4 48 1
58 -23 86 -15 18 -40 39 -56 48 -16 8 -29 21 -29 30 0 8 -12 26 -26 39 -31 29
-75 32 -119 10z m99 -21 c18 -7 22 -49 6 -59 -23 -14 -7 -25 34 -25 36 0 49
-5 65 -25 26 -34 34 -75 22 -108 -9 -23 -16 -27 -51 -27 -27 0 -43 5 -46 15
-13 32 -32 14 -39 -36 -6 -40 -12 -53 -31 -61 -53 -24 -101 33 -75 89 16 35 7
40 -34 20 -44 -21 -79 -22 -95 -2 -17 20 -5 49 37 85 29 25 42 31 65 26 28 -6
29 -5 22 28 -8 46 2 74 29 79 36 7 74 7 91 1z"/>
<path d="M9904 2115 c-27 -14 -59 -25 -72 -25 -53 0 -92 -36 -99 -92 -5 -32
-2 -43 11 -50 14 -8 16 -18 11 -52 -5 -33 -3 -47 10 -60 33 -32 70 -45 107
-37 47 11 57 18 68 47 8 20 17 24 48 24 40 0 58 13 81 57 14 27 -6 85 -35 101
-10 6 -19 23 -20 39 -2 42 -2 41 -33 57 -27 14 -32 14 -77 -9z m60 -11 c18 -7
23 -69 6 -79 -22 -13 -8 -25 29 -25 33 0 40 -4 45 -25 4 -14 2 -34 -4 -45 -10
-19 -22 -22 -89 -24 -18 -1 -27 -9 -36 -36 -23 -67 -126 -61 -133 8 -2 22 2
34 12 38 24 9 19 32 -6 36 -27 4 -36 44 -18 78 16 30 62 46 74 27 8 -13 17 -9
54 19 25 19 46 34 48 34 1 0 9 -3 18 -6z"/>
<path d="M9035 1696 c-82 -28 -114 -47 -138 -78 -45 -60 -60 -101 -59 -156 1
-51 32 -142 49 -142 4 0 23 -14 42 -31 l34 -31 -45 -39 c-71 -61 -95 -130 -66
-196 20 -46 68 -101 99 -114 29 -11 139 -8 184 6 18 5 20 2 20 -33 0 -47 14
-65 82 -108 51 -33 52 -33 114 -22 52 9 69 17 93 45 17 19 38 58 47 86 l16 52
54 1 c63 2 129 18 180 45 44 22 69 71 76 148 5 64 -17 119 -54 136 -28 12 -29
29 -5 47 29 21 60 80 67 130 8 56 -14 141 -48 180 -34 39 -147 82 -201 76 -67
-8 -150 -53 -182 -100 l-29 -41 -13 33 c-19 47 -43 69 -102 91 -69 26 -164 33
-215 15z m180 -30 c68 -16 97 -44 114 -110 8 -32 7 -46 -4 -63 -19 -29 -19
-33 4 -33 13 0 28 18 47 57 43 86 99 138 157 146 107 15 220 -29 248 -96 23
-55 17 -135 -14 -193 -23 -41 -37 -54 -78 -71 -27 -12 -49 -26 -49 -32 0 -5
21 -13 48 -16 68 -9 69 -10 92 -54 25 -51 25 -73 -1 -125 -28 -57 -77 -91
-149 -105 -63 -13 -83 -8 -123 30 -29 26 -37 15 -37 -48 0 -106 -44 -161 -142
-178 -51 -8 -110 22 -132 69 -21 46 -21 51 13 102 17 24 27 45 23 48 -4 2 -39
-11 -77 -30 -103 -50 -165 -47 -237 11 -71 58 -62 157 21 225 28 24 45 30 83
30 36 0 48 4 48 15 0 8 -9 15 -20 15 -26 0 -74 24 -121 61 -59 47 -77 156 -38
236 49 102 175 144 324 109z"/>
<path d="M9243 1293 c-75 -49 -79 -141 -7 -188 43 -28 141 -18 187 20 42 36
50 59 36 108 -22 82 -134 113 -216 60z m159 -23 c27 -27 30 -36 25 -71 -7 -54
-29 -76 -83 -84 -35 -5 -52 -2 -84 16 -64 36 -65 87 -2 139 51 42 102 41 144
0z"/>
<path d="M8330 1204 c-45 -20 -80 -53 -80 -76 0 -10 7 -35 15 -55 15 -35 14
-36 -15 -70 -34 -38 -39 -82 -12 -105 43 -38 84 -51 148 -45 57 6 63 4 85 -19
20 -21 30 -24 59 -19 49 9 74 28 95 71 14 31 15 43 6 73 -7 25 -7 37 0 40 31
10 61 49 66 87 5 37 2 42 -31 68 -51 38 -89 47 -147 35 -44 -9 -52 -8 -75 10
-31 25 -66 26 -114 5z m106 -29 c4 -8 1 -22 -6 -30 -17 -21 15 -32 38 -14 50
41 84 47 143 28 60 -20 76 -65 40 -110 -15 -19 -29 -23 -67 -24 -55 0 -61 -12
-15 -35 26 -13 31 -21 31 -53 0 -52 -13 -73 -55 -87 -43 -14 -60 -4 -70 41 -9
41 -22 45 -50 15 -43 -47 -157 -27 -171 30 -7 29 27 74 57 74 31 0 33 22 4 46
-21 16 -28 31 -29 60 -1 35 3 41 34 56 44 22 108 24 116 3z"/>
<path d="M9390 2765 c-65 -20 -130 -78 -130 -116 0 -37 20 -76 54 -108 23 -21
32 -23 88 -19 83 7 139 25 174 55 23 20 29 33 29 67 0 36 -5 47 -39 77 -21 19
-44 37 -50 40 -26 15 -84 17 -126 4z m88 -24 c48 -14 112 -68 112 -95 0 -50
-59 -84 -181 -101 -40 -6 -49 -3 -76 19 -31 26 -49 79 -38 108 6 15 118 78
139 78 6 0 26 -4 44 -9z"/>
<path d="M705 2845 c-22 -8 -41 -15 -42 -15 -1 0 -7 -16 -13 -35 -23 -69 28
-121 110 -109 60 8 81 27 74 68 -9 50 -25 86 -45 96 -23 13 -36 12 -84 -5z"/>
<path d="M796 2465 c-42 -15 -50 -22 -72 -73 -19 -43 -10 -75 34 -113 32 -28
40 -31 81 -25 86 12 116 56 92 138 -11 36 -61 88 -84 88 -7 -1 -30 -7 -51 -15z"/>
<path d="M4538 3357 c-9 -7 -20 -25 -23 -40 -11 -44 26 -89 130 -158 52 -35
95 -68 95 -73 0 -13 -64 -56 -82 -56 -7 0 -40 -21 -73 -46 -33 -24 -82 -61
-109 -81 -27 -21 -44 -39 -38 -41 11 -3 35 11 172 107 47 33 109 67 137 76 46
15 52 19 43 35 -6 11 -53 47 -105 82 -81 53 -99 70 -121 113 l-25 50 28 22
c25 20 26 23 8 23 -11 -1 -28 -6 -37 -13z"/>
<path d="M11095 1290 c-38 -4 -101 -15 -140 -25 -73 -18 -235 -91 -235 -106 0
-5 -6 -9 -13 -9 -7 0 -58 -43 -114 -95 -84 -79 -110 -111 -153 -187 -56 -101
-69 -145 -70 -228 0 -68 36 -151 77 -176 15 -10 37 -28 48 -41 25 -28 97 -59
175 -75 46 -9 85 -9 167 -1 94 9 129 19 273 73 150 58 171 69 250 133 47 38
92 72 100 75 8 3 21 13 28 21 29 37 103 194 118 254 l16 64 -34 74 c-58 125
-195 231 -320 249 -69 11 -73 11 -173 0z m203 -29 c9 -5 37 -17 62 -27 91 -38
187 -144 214 -236 14 -48 13 -53 -15 -141 -38 -114 -48 -131 -102 -187 -85
-86 -241 -194 -297 -206 -14 -3 -34 -10 -45 -15 -182 -84 -495 -100 -555 -28
-3 3 -25 19 -50 34 -60 38 -67 46 -96 112 -24 53 -25 61 -14 122 7 42 24 88
46 124 18 32 34 60 34 62 0 2 10 19 23 37 84 124 189 212 319 267 116 49 204
71 333 80 55 5 106 9 113 10 7 0 20 -3 30 -8z"/>
<path d="M11188 1136 c-53 -53 -160 -192 -195 -255 -14 -25 -38 -64 -53 -86
-50 -73 -91 -147 -87 -159 4 -11 137 186 172 254 28 55 187 260 202 260 7 0
13 -4 13 -8 0 -12 -160 -325 -175 -342 -7 -8 -27 -43 -44 -77 -58 -116 -34
-124 68 -21 39 40 71 68 71 62 0 -5 -20 -50 -45 -99 -45 -89 -45 -90 -12 -52
27 32 137 232 137 251 0 20 -31 -5 -115 -91 -95 -98 -113 -105 -72 -26 12 23
42 79 65 125 24 46 60 107 79 137 40 60 76 147 68 162 -12 18 -34 8 -77 -35z"/>
<path d="M11068 1153 c-8 -10 -32 -47 -54 -83 -21 -36 -43 -72 -49 -81 -5 -9
-23 -39 -39 -65 -16 -27 -62 -104 -102 -171 -41 -68 -70 -123 -66 -123 11 0
138 182 175 250 35 66 123 214 149 252 10 15 18 30 18 33 0 11 -18 4 -32 -12z"/>
<path d="M7505 710 c-44 -5 -145 -14 -225 -20 -189 -14 -501 -39 -615 -50 -82
-8 -78 -8 45 -4 74 2 171 6 215 9 746 51 861 53 925 20 35 -18 40 -37 40 -166
0 -127 -14 -207 -40 -233 -19 -20 -19 -19 -13 66 3 46 3 106 -1 132 -8 52 -37
89 -61 80 -20 -8 -42 -89 -50 -184 -7 -86 -13 -110 -26 -110 -5 0 -9 54 -9
124 l0 125 -30 21 c-35 25 -49 19 -74 -34 -11 -24 -16 -63 -16 -133 0 -68 -4
-105 -14 -118 -12 -17 -14 -15 -21 21 -4 21 -9 88 -10 147 -2 94 -5 111 -23
129 -49 50 -85 -20 -87 -172 -2 -118 -14 -169 -26 -111 -4 19 -5 70 -2 112 6
87 -8 143 -38 160 -46 24 -72 -35 -79 -180 -3 -71 -9 -116 -16 -118 -8 -3 -10
24 -6 89 6 136 -20 214 -71 206 -44 -7 -58 -46 -64 -181 -3 -70 -10 -127 -14
-127 -5 0 -8 51 -8 113 2 120 -6 151 -42 162 -48 16 -79 -52 -79 -175 0 -87
-8 -129 -21 -108 -5 7 -9 70 -9 140 0 69 -3 133 -6 142 -9 24 -47 19 -66 -8
-14 -20 -18 -47 -19 -143 -1 -123 -12 -177 -23 -112 -10 55 -10 97 -2 215 4
61 4 114 0 116 -16 10 -169 -12 -344 -49 -96 -20 -197 -39 -225 -43 -27 -4
-109 -19 -182 -35 -136 -28 -189 -28 -213 1 -11 12 -9 19 11 40 60 64 231 117
457 139 86 9 162 18 167 20 6 3 -53 3 -130 1 -216 -6 -405 -57 -506 -137 -47
-37 -51 -70 -14 -95 34 -22 135 -20 255 6 213 45 630 120 669 120 l33 0 -6
-152 c-6 -136 -5 -157 11 -188 10 -19 25 -35 33 -35 12 0 16 23 21 125 7 145
15 186 35 194 12 4 14 -15 14 -119 0 -129 8 -171 36 -182 29 -11 41 23 47 129
6 110 21 168 42 168 22 0 27 -36 20 -133 -7 -97 2 -143 31 -154 8 -3 23 2 32
11 14 14 17 40 19 138 2 123 15 168 47 168 22 0 26 -24 26 -160 0 -101 3 -130
15 -140 12 -10 20 -9 39 3 30 20 46 88 39 172 -3 43 0 72 12 100 16 37 18 38
31 20 10 -14 14 -53 14 -148 0 -136 10 -178 36 -156 31 25 38 58 44 187 5 101
10 136 20 142 28 17 35 -11 41 -153 6 -158 17 -195 50 -174 26 16 38 65 43
174 4 73 15 127 33 152 1 2 9 -2 18 -9 12 -10 15 -37 16 -124 2 -176 18 -209
66 -137 19 28 23 47 23 109 0 70 14 146 31 166 4 4 13 -2 19 -15 9 -16 11 -55
6 -138 -3 -64 -2 -122 3 -130 17 -27 61 -4 81 42 28 64 44 342 22 384 -26 48
-219 73 -407 53z"/>
<path d="M3878 637 c-14 -12 -31 -32 -37 -44 -16 -32 -3 -117 23 -156 28 -42
69 -48 291 -46 94 1 225 -1 293 -4 107 -4 127 -2 160 14 32 17 57 19 180 18
93 -1 148 3 155 10 7 7 62 11 149 11 l138 0 0 26 c0 48 -43 104 -96 124 -35
14 -164 27 -384 40 -91 5 -239 14 -330 20 -91 5 -244 10 -340 10 -167 0 -176
-1 -202 -23z m675 -113 c-1 -59 -5 -109 -7 -111 -7 -7 -523 -2 -586 6 -50 5
-56 9 -72 41 -25 49 -24 124 2 150 19 19 33 20 343 20 l322 0 -2 -106z m317
78 l45 -7 -1 -61 c-1 -98 6 -94 -144 -94 l-130 0 0 66 c0 99 5 104 103 103 45
0 102 -4 127 -7z"/>
<path d="M7390 620 c-85 -4 -213 -8 -285 -9 -123 -1 -182 -9 -215 -30 -22 -15
-3 -26 23 -13 25 12 267 29 552 37 105 3 229 8 278 11 86 6 87 6 87 -17 0 -21
1 -22 16 -7 32 32 8 38 -149 36 -84 -1 -222 -5 -307 -8z"/>
</g>
</svg>
