<?xml version="1.0" standalone="no"?>
<!DOCTYPE svg PUBLIC "-//W3C//DTD SVG 20010904//EN"
 "http://www.w3.org/TR/2001/REC-SVG-20010904/DTD/svg10.dtd">
<svg version="1.0" xmlns="http://www.w3.org/2000/svg"
 width="800.000000pt" height="1076.000000pt" viewBox="0 0 800.000000 1076.000000"
 preserveAspectRatio="xMidYMid meet">
<metadata>
Created by potrace 1.16, written by Peter Selinger 2001-2019
</metadata>
<g transform="translate(0.000000,1076.000000) scale(0.100000,-0.100000)"
fill="#000000" stroke="none">
<path d="M3770 10663 c-412 -27 -644 -62 -935 -138 -466 -121 -844 -313 -1102
-558 l-72 -68 -68 -5 c-164 -9 -224 -16 -313 -36 -437 -94 -708 -356 -776
-751 -23 -130 -15 -380 16 -541 20 -106 21 -120 8 -130 -9 -6 -35 -25 -60 -42
-82 -57 -191 -225 -261 -399 -141 -354 -142 -739 -3 -1030 45 -94 93 -164 168
-243 81 -86 132 -125 286 -217 1 -1 -7 -53 -17 -116 -72 -423 -44 -844 80
-1195 37 -106 116 -266 170 -348 21 -32 39 -62 39 -66 0 -4 -13 -36 -29 -71
-185 -404 -361 -850 -464 -1179 -173 -553 -273 -1191 -284 -1812 -6 -296 4
-442 37 -583 60 -255 248 -518 496 -694 239 -169 595 -291 980 -336 293 -33
425 -37 1382 -42 l972 -5 0 266 0 266 25 0 25 0 0 -266 0 -266 623 5 c649 5
794 12 1112 58 293 42 495 93 733 185 570 220 953 640 1038 1138 8 50 19 111
23 136 5 25 38 108 73 185 119 255 196 501 234 741 25 161 23 443 -4 595 -44
244 -148 492 -273 650 -16 20 -29 43 -29 51 0 7 16 43 35 79 111 210 215 566
254 874 69 533 -4 1221 -186 1765 -78 234 -159 413 -238 527 l-44 63 28 33
c51 58 160 226 205 315 52 104 99 245 121 361 19 107 19 294 0 407 -53 300
-222 595 -433 755 -35 26 -68 49 -74 51 -6 2 8 33 31 69 122 194 191 451 178
663 -14 218 -93 386 -251 533 -85 80 -138 116 -249 168 -267 126 -614 137
-935 29 -101 -33 -219 -95 -268 -140 -24 -23 -43 -33 -50 -27 -6 4 -38 29 -70
56 -197 159 -540 249 -1059 277 -163 9 -713 11 -825 3z m1035 -48 c429 -45
696 -133 870 -287 29 -27 57 -48 62 -48 5 0 25 16 44 36 111 115 393 209 664
221 508 22 929 -273 996 -699 34 -216 -41 -527 -177 -733 -24 -38 -44 -71 -44
-76 0 -4 25 -21 56 -38 69 -40 204 -175 265 -267 321 -481 287 -1060 -91
-1531 l-69 -86 43 -56 c157 -207 323 -684 400 -1151 127 -767 51 -1471 -215
-2000 -27 -54 -49 -101 -49 -106 1 -5 23 -38 50 -74 50 -66 145 -248 195 -374
85 -218 112 -565 65 -861 -19 -120 -70 -315 -116 -443 -47 -130 -157 -377
-179 -402 -7 -8 -16 -51 -20 -95 -12 -135 -85 -373 -152 -495 -99 -182 -290
-384 -479 -509 -240 -158 -532 -274 -869 -345 -401 -84 -951 -120 -1647 -108
l-308 5 0 263 0 264 -55 0 -55 0 0 -266 0 -266 -957 5 c-950 4 -1067 8 -1363
43 -616 73 -1048 295 -1299 667 -55 82 -129 248 -150 337 -30 128 -41 258 -41
482 0 351 32 690 110 1183 35 216 139 616 234 890 103 301 263 699 389 966
l55 117 -55 88 c-121 198 -183 353 -232 584 -36 168 -45 271 -45 485 0 205 7
290 41 484 19 109 31 88 -101 172 -167 107 -303 270 -374 449 -82 208 -94 495
-31 745 72 284 225 547 361 616 20 10 39 22 42 27 3 5 -1 35 -9 68 -52 224
-59 526 -15 689 107 403 443 637 967 675 71 5 136 10 145 10 10 0 32 16 50 36
100 110 305 255 498 353 414 211 893 330 1490 371 197 13 929 4 1105 -15z"/>
<path d="M3983 10531 c-103 -65 -28 -227 89 -192 110 33 96 193 -18 207 -28 4
-48 -1 -71 -15z m118 -27 c44 -40 26 -122 -31 -142 -35 -13 -56 -8 -87 21 -26
23 -31 83 -10 109 32 40 91 46 128 12z"/>
<path d="M6471 10429 c-53 -11 -101 -66 -117 -135 -7 -33 -14 -81 -14 -108 l0
-50 -31 42 c-45 62 -110 97 -179 96 -99 0 -150 -49 -150 -142 0 -71 49 -146
119 -182 24 -12 23 -13 -23 -29 -102 -35 -167 -124 -146 -198 6 -21 16 -46 24
-55 39 -52 168 -63 251 -23 60 30 69 31 55 6 -5 -11 -10 -46 -10 -79 0 -125
76 -198 195 -189 75 6 104 19 133 61 29 43 42 89 42 151 0 49 0 49 16 26 23
-32 73 -51 134 -51 69 0 104 20 124 70 24 61 9 107 -54 163 l-49 45 31 6 c72
14 135 91 124 151 -8 42 -63 92 -112 101 -36 7 -119 1 -161 -12 l-22 -6 21 43
c73 151 -48 331 -201 298z m120 -42 c102 -69 103 -204 0 -331 -36 -45 -41 -65
-8 -42 48 36 131 68 185 73 46 4 66 0 102 -19 41 -21 45 -27 48 -64 5 -74 -67
-128 -188 -141 l-64 -6 39 -14 c107 -36 126 -46 150 -81 49 -71 20 -156 -57
-169 -85 -13 -157 27 -197 111 -20 45 -53 79 -37 40 52 -126 40 -255 -27 -305
-41 -30 -148 -39 -194 -15 -73 37 -90 167 -36 276 33 66 30 84 -7 45 -49 -52
-116 -86 -189 -96 -86 -12 -131 3 -150 50 -43 102 68 208 226 216 42 2 77 6
80 9 2 2 -15 7 -39 11 -127 21 -211 84 -223 167 -17 110 74 180 186 143 61
-21 102 -66 149 -168 l36 -79 0 144 c-1 128 1 148 21 188 12 25 35 53 50 62
40 25 103 23 144 -5z"/>
<path d="M4873 10201 c-79 -62 -293 -322 -356 -433 -12 -21 -24 -38 -27 -38
-3 0 -35 42 -70 92 -65 92 -316 352 -366 379 -24 13 -28 10 -88 -51 -102 -106
-305 -367 -375 -482 -26 -44 -37 -47 -45 -15 -23 94 -356 517 -407 517 -26 0
-162 -151 -234 -260 -81 -123 -163 -272 -184 -333 -9 -27 -20 -48 -24 -48 -5
0 -63 53 -130 117 -160 153 -367 326 -386 322 -31 -6 -90 -197 -131 -422 -33
-184 -52 -371 -56 -555 -4 -168 -5 -174 -30 -203 -39 -47 -62 -100 -70 -159
-5 -41 -18 -72 -55 -130 -139 -215 -207 -481 -179 -699 23 -178 71 -309 149
-408 23 -28 41 -62 41 -74 0 -13 4 -38 9 -55 8 -29 6 -36 -28 -75 -107 -123
-245 -337 -316 -490 -67 -146 -80 -212 -80 -408 0 -204 11 -256 80 -393 112
-219 267 -352 506 -434 102 -35 339 -85 463 -98 93 -10 159 -52 154 -98 -3
-31 -4 -31 -83 -44 -200 -30 -477 -131 -690 -250 -280 -157 -577 -402 -726
-598 -82 -109 -177 -270 -165 -282 2 -3 24 13 47 36 82 78 272 131 417 116
l63 -7 -93 -96 c-258 -267 -475 -622 -657 -1074 -88 -220 -100 -268 -90 -373
12 -141 66 -250 168 -341 25 -23 60 -54 78 -70 l32 -29 -75 -155 c-136 -280
-218 -533 -262 -810 -25 -151 -37 -330 -23 -330 5 0 13 10 16 23 14 43 75 134
122 182 62 62 117 96 304 191 123 62 165 89 209 133 75 75 82 103 85 326 3
235 44 544 121 925 34 169 118 513 150 615 25 81 26 82 67 95 53 16 152 65
193 97 33 25 78 103 134 233 97 224 307 524 480 683 75 70 194 167 205 167 4
0 -35 -44 -86 -98 -326 -340 -537 -778 -568 -1180 -4 -59 -6 -125 -5 -147 25
-329 42 -430 104 -616 124 -373 308 -586 570 -658 54 -15 83 -30 114 -59 114
-105 286 -154 416 -119 30 8 61 16 69 18 12 3 14 -14 12 -96 -1 -63 4 -120 13
-155 9 -30 13 -56 11 -58 -3 -3 -31 0 -62 7 -32 6 -143 18 -248 26 -208 15
-315 39 -435 97 -82 40 -190 145 -215 212 -10 25 -21 46 -25 46 -17 0 -35 -70
-35 -138 l0 -72 -73 0 c-216 0 -498 -194 -612 -419 -27 -56 -47 -121 -36 -121
3 0 33 27 65 59 51 51 159 131 177 131 8 0 -102 -116 -231 -245 -131 -131
-201 -168 -320 -168 -93 0 -154 15 -180 43 -29 31 -35 24 -35 -39 0 -249 219
-440 503 -441 131 0 385 64 552 139 28 13 66 29 85 36 19 7 52 20 73 29 l38
17 -50 -66 c-47 -63 -90 -149 -79 -161 3 -2 28 9 56 27 92 57 141 62 602 64
384 1 422 3 508 22 135 31 247 89 312 160 29 32 57 69 62 84 7 20 18 28 46 33
58 9 140 62 175 112 l31 45 18 -34 c9 -19 40 -55 69 -81 133 -120 389 -187
648 -170 87 6 114 12 160 36 31 16 68 42 83 60 l27 31 30 -26 c70 -58 258 -75
436 -38 190 39 408 146 516 254 l54 54 120 6 c330 16 660 144 868 336 51 48
124 158 147 225 42 118 32 294 -20 384 l-20 33 92 100 c287 308 379 749 241
1149 -72 207 -204 383 -340 450 -37 19 -69 35 -71 36 -1 0 15 20 37 44 107
117 246 437 302 695 30 135 32 357 5 500 -47 250 -186 541 -313 655 -41 38
-52 54 -58 90 -17 101 -76 231 -132 291 -17 19 -21 29 -13 34 24 15 70 100 70
129 0 60 -12 64 -90 32 -13 -5 -15 3 -15 51 0 69 -17 79 -70 39 -41 -32 -43
-32 -47 -3 -4 31 -40 33 -78 6 l-31 -23 -35 35 -35 36 73 79 c123 131 167 210
205 365 27 112 24 384 -5 544 -52 278 -160 551 -315 797 -103 163 -332 418
-454 505 -55 39 -63 49 -63 76 0 52 -56 157 -111 209 l-51 47 -14 168 c-24
287 -68 609 -100 738 -16 65 -43 135 -53 135 -38 0 -194 -152 -261 -253 -42
-63 -60 -80 -60 -57 0 13 -70 126 -124 200 -67 92 -225 277 -242 284 -21 8
-17 10 -71 -33z m139 -77 c80 -93 185 -238 252 -347 27 -42 51 -79 55 -82 4
-2 31 30 61 70 74 104 235 273 248 260 9 -9 42 -149 42 -178 0 -5 -9 -2 -20 8
-11 10 -22 16 -23 14 -2 -2 -51 -67 -109 -144 -58 -77 -128 -164 -155 -194
l-49 -55 -34 50 c-32 46 -259 355 -322 436 -15 20 -28 42 -28 47 0 18 -9 13
-48 -30 -74 -83 -145 -177 -244 -324 -55 -82 -105 -154 -110 -160 -5 -6 -21 6
-41 30 -17 22 -81 96 -142 165 -102 117 -147 169 -249 289 -21 25 -42 47 -45
48 -9 2 -337 -442 -461 -625 -19 -29 -38 -52 -42 -52 -9 0 -51 65 -202 307
-59 95 -128 200 -153 235 l-46 62 -34 -40 c-51 -59 -167 -237 -283 -434 -57
-96 -104 -176 -106 -178 -4 -6 -369 304 -470 401 -57 55 -104 95 -104 90 0
-31 320 -323 500 -458 l75 -56 27 33 c14 18 88 134 164 258 138 225 221 350
235 350 4 0 62 -89 129 -197 161 -260 250 -393 265 -393 22 0 46 31 323 411
46 63 105 146 130 186 26 39 50 72 53 72 4 1 33 -32 65 -71 51 -64 230 -275
244 -288 3 -3 41 -45 84 -93 l79 -88 23 23 c12 13 75 99 139 192 112 163 225
314 235 315 3 1 21 -25 41 -57 44 -71 319 -440 347 -465 19 -17 21 -16 85 55
60 68 156 194 213 281 13 20 28 37 32 37 17 -1 41 -52 52 -109 12 -69 6 -92
-11 -43 -6 18 -16 32 -22 32 -38 -1 -127 -220 -127 -313 0 -104 92 -159 178
-107 17 11 32 16 33 12 0 -4 4 -41 7 -83 l7 -76 -205 -6 c-277 -8 -541 -44
-828 -112 -128 -31 -414 -126 -482 -160 -27 -14 -51 -25 -52 -25 -2 0 -2 30 0
68 8 141 -63 242 -201 283 -186 57 -386 -27 -446 -186 -29 -78 -26 -166 8
-213 12 -18 18 -32 12 -32 -5 0 -63 9 -128 20 -139 23 -391 59 -663 95 -323
43 -408 53 -575 66 -88 7 -163 15 -167 18 -4 4 -5 37 -1 73 l6 67 24 -19 c54
-42 125 -34 155 18 38 64 32 176 -17 352 -13 47 -28 104 -35 128 -6 23 -14 42
-18 42 -4 0 -20 -38 -36 -85 -15 -47 -29 -85 -32 -85 -9 0 52 312 66 339 4 9
14 42 21 73 17 79 22 84 51 56 13 -12 57 -52 98 -88 115 -100 176 -156 288
-265 57 -55 107 -101 112 -103 5 -2 15 19 23 45 29 96 158 326 256 456 76 101
142 177 152 177 7 0 137 -152 231 -271 24 -30 108 -163 172 -272 l23 -39 63
94 c98 144 337 460 385 507 l24 24 143 -144 c79 -80 179 -193 223 -252 44 -58
85 -107 90 -107 6 0 19 14 29 31 10 17 57 83 105 147 151 203 281 347 304 339
7 -2 42 -39 79 -83z m672 -512 c47 -122 54 -225 20 -279 -19 -31 -94 -33 -124
-3 -37 37 -21 150 42 296 13 30 26 54 30 54 3 0 18 -31 32 -68z m-3510 -154
c45 -179 47 -307 5 -349 -26 -26 -90 -26 -115 2 -20 22 -23 103 -5 189 12 63
75 270 81 270 3 0 18 -51 34 -112z m1830 -288 c67 -26 130 -90 147 -152 11
-40 8 -121 -8 -206 l-6 -34 39 24 c164 101 506 204 885 267 228 38 373 51 557
51 l142 0 2 -40 c0 -22 1 -46 2 -52 1 -10 -39 -15 -155 -19 -86 -4 -205 -14
-265 -24 -208 -32 -591 -114 -719 -155 -33 -10 -94 -28 -135 -40 -112 -32
-210 -66 -353 -121 -362 -140 -410 -139 -1352 30 -264 48 -628 107 -707 116
l-58 6 0 60 c0 32 3 59 8 59 4 0 99 -9 212 -20 203 -20 366 -41 965 -125 171
-24 337 -47 369 -51 l60 -7 -37 38 c-48 49 -63 103 -48 169 37 159 150 244
328 245 50 1 89 -5 127 -19z m1641 -189 c-6 -4 -46 -21 -90 -36 -231 -79 -598
-258 -923 -450 -100 -60 -240 -149 -335 -215 -108 -75 -401 -265 -424 -276 -7
-3 -24 3 -38 14 -54 43 -135 36 -175 -15 -19 -24 -21 -25 -72 -13 -111 27
-327 104 -461 165 -184 84 -320 161 -562 318 -110 72 -270 172 -355 224 -85
51 -152 93 -149 93 16 0 220 -33 344 -55 77 -14 178 -33 225 -41 47 -8 146
-26 220 -40 296 -55 412 -73 652 -103 119 -14 176 -17 258 -10 125 9 180 24
450 119 291 103 394 133 655 195 320 75 520 109 740 128 22 2 42 4 45 5 2 1 0
-2 -5 -7z m195 -32 c50 -51 89 -130 96 -196 l7 -51 -38 -12 c-22 -7 -58 -10
-86 -7 -55 7 -164 59 -181 87 -18 28 -28 25 -28 -9 0 -47 -35 -145 -68 -192
-63 -89 -68 -92 -117 -87 -52 6 -181 65 -234 107 l-37 30 -13 -86 c-13 -93
-52 -202 -81 -228 -44 -40 -219 -24 -336 29 l-54 25 0 -72 c0 -80 -15 -138
-55 -217 l-27 -53 -81 6 c-100 8 -143 20 -192 53 -21 14 -38 24 -40 22 -1 -2
-7 -24 -14 -51 -20 -82 -50 -151 -82 -186 l-31 -34 -82 6 c-45 3 -103 14 -130
24 l-50 20 0 51 -1 51 65 38 c36 20 157 99 270 174 424 281 528 343 819 489
256 127 442 208 671 289 77 27 85 26 130 -20z m-3644 -272 c93 -57 241 -151
329 -209 267 -174 357 -226 557 -320 187 -88 418 -173 502 -184 41 -6 42 -7
54 -57 8 -33 21 -59 37 -72 l25 -20 -25 -30 c-91 -109 -98 -287 -13 -374 40
-41 65 -51 127 -51 53 0 99 25 135 73 28 38 33 142 12 227 -15 60 -49 119 -84
147 -13 10 -12 14 3 29 15 15 21 16 49 5 50 -21 147 -41 202 -41 48 0 55 3 87
40 20 21 48 62 62 90 l26 52 22 -25 c56 -62 187 -141 295 -178 30 -10 76 -35
104 -55 27 -20 79 -49 115 -63 60 -25 68 -31 94 -82 64 -122 99 -281 99 -448
0 -83 0 -84 19 -66 11 9 29 35 40 58 19 37 20 38 25 16 9 -40 26 -263 26 -336
0 -85 -17 -115 -101 -180 -90 -71 -184 -125 -379 -220 -404 -197 -590 -251
-895 -260 -138 -5 -201 -1 -337 16 -357 46 -489 105 -595 269 -58 90 -74 150
-83 317 -6 104 -15 172 -30 220 -36 117 -35 113 -6 108 22 -5 26 -11 26 -38 0
-33 17 -49 37 -37 6 4 14 34 18 67 8 76 47 158 89 190 43 33 48 32 30 -10 -14
-33 -20 -145 -8 -145 3 0 18 13 33 29 57 61 152 45 159 -26 5 -49 -31 -81
-105 -95 -60 -11 -61 -12 -65 -46 -12 -101 33 -228 97 -273 l36 -27 -25 -6
c-14 -3 -26 -11 -26 -17 0 -6 8 -8 18 -5 9 3 31 8 47 12 l30 7 -19 -22 c-11
-11 -14 -21 -8 -21 6 0 14 5 17 10 10 16 25 12 25 -7 1 -13 5 -10 16 9 8 15
23 32 34 38 17 9 20 7 20 -12 1 -21 2 -21 17 7 24 44 63 63 63 30 0 -8 4 -15
9 -15 4 0 6 12 3 27 -5 26 -4 26 38 19 40 -6 42 -5 29 10 -13 16 -9 17 51 11
59 -6 63 -5 40 7 l-25 14 35 10 c32 9 33 10 8 11 -19 1 -26 5 -22 15 5 13 -9
172 -22 249 -7 42 6 50 25 15 9 -18 10 -18 5 -3 -3 11 -11 38 -16 60 -16 68
-94 156 -175 199 -21 10 -33 24 -33 36 0 20 18 26 36 13 5 -5 0 0 -11 11 -11
10 -19 28 -17 40 2 19 1 19 -10 5 -11 -14 -20 -15 -61 -5 -44 10 -47 13 -47
43 0 47 -16 49 -24 3 -6 -40 -7 -40 -50 -40 l-45 0 -15 54 c-9 30 -17 62 -18
73 -1 10 -4 -17 -7 -60 l-6 -79 -40 -14 c-57 -20 -70 -18 -104 17 -35 35 -41
22 -11 -27 l21 -33 -38 -35 c-45 -42 -68 -47 -59 -13 6 22 24 103 32 143 2 11
23 34 46 51 24 17 74 59 112 93 68 60 71 62 115 57 25 -2 55 -8 66 -12 35 -13
-4 22 -48 43 l-38 18 30 37 c16 21 47 71 68 112 34 67 42 76 73 81 19 4 59 15
88 25 48 17 52 17 52 1 0 -9 13 -44 28 -77 32 -66 90 -125 125 -125 34 0 148
62 170 92 32 43 14 43 -51 -1 -32 -23 -76 -48 -97 -56 l-37 -16 -37 39 c-33
35 -66 92 -92 159 -10 28 -23 28 -119 2 -41 -11 -107 -23 -146 -26 l-71 -6
-26 71 c-15 40 -32 101 -38 137 -7 36 -16 65 -21 65 -5 0 -23 -7 -41 -17 -55
-28 -129 -43 -214 -43 -105 0 -108 4 -108 158 0 61 -2 112 -4 112 -3 0 -12 -6
-20 -14 -34 -29 -192 -47 -257 -30 -36 10 -57 69 -62 177 -4 95 -8 107 -28 87
-19 -19 -128 -50 -176 -50 -43 0 -48 2 -48 23 2 56 71 183 96 173 6 -2 88 -51
180 -109z m3477 39 c37 -28 143 -66 185 -66 15 0 45 9 67 20 38 19 39 19 69 0
29 -18 185 -173 271 -270 339 -382 556 -1001 506 -1440 -24 -203 -83 -326
-232 -484 -97 -102 -183 -164 -410 -296 -61 -35 -135 -86 -162 -112 -49 -46
-53 -48 -112 -48 -33 0 -130 -9 -215 -20 -169 -22 -271 -25 -286 -10 -5 5 -27
13 -48 17 l-38 8 44 32 c54 38 172 153 220 213 59 73 147 230 168 299 30 95
27 210 -6 281 -14 30 -35 65 -46 77 -20 21 -20 24 -4 47 34 52 58 137 58 204
1 89 -17 144 -64 197 -71 80 -168 95 -266 40 -24 -14 -46 -25 -47 -25 -2 0 -6
25 -10 55 -12 103 -20 55 -21 -133 0 -217 -15 -314 -74 -491 -38 -115 -79
-216 -85 -209 -1 2 2 50 8 107 16 159 -12 450 -58 609 -9 30 -18 52 -20 50 -2
-2 1 -36 7 -76 10 -66 9 -76 -13 -129 l-24 -58 -6 115 c-8 143 -30 233 -80
329 -21 41 -37 77 -34 79 2 2 33 -1 68 -7 100 -17 131 -11 37 8 -102 21 -199
53 -260 87 l-45 25 35 -7 c61 -12 614 -12 593 0 -11 6 -133 13 -298 17 -239 6
-292 10 -364 28 -105 27 -227 84 -308 144 -72 53 -95 84 -87 114 l6 22 47 -24
c63 -32 152 -48 218 -40 47 6 57 11 74 38 38 63 60 138 61 213 1 41 3 74 5 74
2 0 21 -9 41 -19 101 -51 268 -65 326 -28 36 24 84 130 98 217 6 41 13 76 14
78 1 1 26 -13 55 -33 63 -41 135 -70 202 -79 47 -7 50 -6 87 33 46 48 99 153
107 210 3 22 8 41 10 41 2 0 19 -11 36 -24z m-3536 -169 c2 -70 32 -156 65
-180 21 -15 44 -20 110 -21 45 0 102 2 126 7 l42 7 0 -62 c1 -69 18 -128 47
-160 16 -18 27 -20 123 -16 93 4 130 12 202 42 14 6 18 -1 24 -41 8 -59 49
-171 71 -195 12 -13 31 -18 70 -18 29 0 53 -4 53 -8 0 -17 -77 -133 -130 -198
-128 -153 -354 -308 -547 -374 -62 -22 -76 -29 -47 -25 63 7 191 52 271 94 40
21 74 36 77 34 2 -3 -7 -38 -21 -79 -26 -76 -78 -164 -133 -221 -16 -18 -30
-34 -30 -37 0 -15 31 -3 60 21 31 26 33 26 46 8 18 -24 60 -156 75 -233 16
-87 6 -258 -21 -347 -26 -83 -60 -165 -69 -165 -3 0 -6 73 -6 163 0 188 -19
283 -85 424 -42 91 -100 178 -109 165 -3 -5 -23 -12 -43 -16 -27 -5 -48 -19
-77 -53 -23 -25 -41 -54 -41 -64 0 -49 -174 15 -251 92 -43 43 -109 168 -109
206 0 22 2 22 49 -12 26 -19 52 -35 57 -35 4 0 -10 14 -33 30 -60 45 -147 156
-188 241 -133 280 -88 671 111 970 l44 66 73 5 c46 3 83 11 98 21 37 27 45 21
46 -36z m1694 -557 c26 -25 30 -36 27 -72 -2 -35 -9 -46 -37 -65 -39 -27 -80
-29 -121 -8 -34 17 -45 50 -36 100 14 75 111 102 167 45z m18 -215 c43 -49 58
-81 71 -155 17 -94 6 -146 -40 -192 -35 -36 -41 -38 -100 -38 -57 0 -65 3 -95
33 -81 81 -70 263 22 349 25 24 48 33 94 37 10 0 31 -15 48 -34z m1696 -376
c50 -14 99 -67 115 -125 19 -68 8 -178 -24 -247 -77 -161 -278 -289 -346 -221
l-21 20 28 137 c25 122 30 137 48 137 54 -1 82 -78 50 -139 -22 -44 -11 -52
14 -10 30 49 28 113 -4 144 -13 14 -31 25 -40 25 -19 0 -19 4 -1 39 22 41 83
91 111 91 14 0 35 -10 46 -21 17 -17 20 -29 16 -63 -5 -37 -4 -39 9 -22 21 29
17 71 -10 103 -20 22 -32 28 -65 27 -46 -2 -68 -17 -112 -78 l-29 -39 0 90 c0
96 4 104 60 133 54 28 100 34 155 19z m-3621 -273 c25 -38 46 -70 46 -72 0 -1
-24 -36 -52 -76 -71 -98 -133 -232 -162 -348 -26 -105 -43 -245 -26 -220 5 8
10 28 10 43 1 128 105 387 217 539 l35 49 27 -18 c43 -29 94 -53 111 -53 9 0
19 -2 22 -5 3 -3 -12 -46 -33 -95 -60 -138 -81 -235 -86 -390 -6 -170 16 -292
76 -417 35 -73 123 -203 137 -203 3 0 -13 24 -35 53 -101 135 -140 264 -148
487 -6 184 11 285 77 455 37 93 44 105 66 105 22 0 24 -4 24 -45 0 -58 31
-138 79 -207 38 -54 38 -55 33 -135 -5 -88 15 -207 49 -300 28 -73 33 -63 9
15 -22 71 -44 268 -34 316 l6 32 46 -24 c38 -19 58 -23 105 -20 l57 4 0 -68
c0 -79 -16 -200 -32 -241 -20 -51 -1 -39 39 25 45 72 88 161 112 232 l17 49
13 -44 c41 -137 143 -260 269 -323 81 -41 147 -60 278 -80 71 -11 80 -14 43
-15 -65 -1 -144 -27 -182 -60 -30 -27 -39 -29 -152 -34 -126 -6 -178 -18 -263
-61 -104 -53 -152 -113 -152 -189 0 -32 -6 -49 -21 -63 -50 -44 -62 -128 -29
-192 16 -30 19 -49 14 -85 -8 -56 0 -55 -173 -26 -452 75 -657 194 -804 469
-75 140 -92 215 -91 410 0 151 2 171 26 236 36 99 128 285 195 390 56 91 185
275 189 271 1 -1 23 -33 48 -71z m525 -93 c33 -60 33 -77 2 -49 -11 10 -37 20
-59 23 -34 5 -45 1 -66 -20 -20 -20 -26 -36 -26 -72 0 -25 5 -45 10 -45 6 0
10 12 10 26 0 28 16 65 34 76 26 18 76 7 111 -23 37 -33 44 -49 21 -49 -7 0
-25 -9 -40 -21 -26 -21 -32 -50 -20 -96 9 -34 21 -28 16 7 -6 40 21 80 53 80
27 0 31 -11 61 -154 19 -92 14 -102 -52 -99 -113 4 -226 135 -241 280 -11 99
49 193 122 193 30 0 36 -5 64 -57z m854 17 c3 -10 0 -21 -7 -24 -6 -2 -3 -5 7
-5 18 -1 25 -21 7 -21 -5 0 -10 -4 -10 -10 0 -5 8 -10 18 -10 14 0 15 -2 2
-10 -13 -8 -13 -11 -1 -19 11 -7 10 -10 -5 -14 -17 -4 -17 -6 4 -12 32 -11 28
-33 -5 -28 l-28 4 28 -16 c33 -19 36 -39 5 -29 -20 6 -21 5 -9 -10 20 -24 5
-32 -20 -10 -21 19 -21 19 -8 -9 20 -44 -3 -56 -30 -15 -17 25 -21 27 -17 11
19 -72 19 -70 1 -43 -13 21 -15 22 -13 5 2 -11 -2 -22 -7 -25 -6 -3 -11 10
-13 28 -2 17 -8 32 -13 32 -5 0 -9 -16 -7 -35 4 -48 -16 -49 -21 0 l-5 40 -5
-38 c-8 -50 -27 -53 -23 -3 3 26 0 36 -7 32 -6 -4 -11 -18 -11 -31 0 -34 -20
-42 -21 -8 0 27 -1 27 -9 6 -5 -13 -14 -23 -21 -23 -6 0 -8 7 -5 16 3 9 8 28
11 42 5 25 4 24 -12 -5 -9 -18 -20 -33 -25 -33 -11 0 -10 18 2 25 6 3 10 11
10 17 0 6 -9 3 -20 -7 -28 -25 -25 -8 6 32 29 38 22 43 -15 11 -24 -21 -23
-20 4 16 29 40 20 41 -22 3 -27 -24 -31 -12 -5 16 16 19 16 19 -5 13 -37 -12
-26 2 14 19 30 13 35 18 23 25 -13 8 -12 10 3 10 9 0 20 1 24 3 3 1 11 -16 17
-38 12 -42 62 -85 98 -85 67 0 117 74 118 173 0 56 13 76 23 37z m2360 -189
c25 -43 31 -69 35 -131 6 -104 -19 -185 -97 -315 -73 -121 -142 -203 -264
-313 l-92 -82 -100 7 c-141 11 -271 8 -333 -7 -52 -12 -54 -12 -80 13 -64 59
-185 93 -276 76 -26 -5 -52 -12 -58 -15 -6 -4 -52 -7 -102 -6 l-91 1 -3 48 -3
49 58 18 c136 42 486 203 638 294 62 37 153 104 193 141 12 12 22 18 23 14 0
-4 0 -36 -1 -70 -1 -35 1 -63 4 -63 13 0 75 110 107 190 18 47 34 87 35 88 2
2 16 -6 33 -19 60 -45 182 -4 277 92 27 27 53 48 58 46 5 -2 23 -27 39 -56z
m869 -518 c15 -15 28 -30 28 -34 0 -4 -25 -42 -55 -84 -30 -43 -55 -81 -55
-87 0 -23 -72 -117 -105 -138 -37 -23 -39 -23 -166 -11 -71 7 -150 16 -176 19
l-47 7 32 30 c33 31 107 79 296 191 55 32 123 75 150 96 28 20 55 37 60 37 6
1 23 -11 38 -26z m148 -17 c0 -16 -19 -44 -55 -81 -50 -53 -114 -159 -103
-171 3 -2 24 24 47 59 41 64 84 109 172 180 54 43 59 45 59 15 -2 -56 -30
-101 -109 -175 -45 -41 -81 -82 -81 -91 0 -11 21 4 58 40 52 52 203 158 223
158 13 0 11 -47 -2 -73 -24 -47 -135 -148 -189 -173 -60 -28 -130 -89 -130
-114 0 -11 14 -3 45 26 77 74 157 103 185 69 22 -26 -4 -43 -30 -20 -23 20
-26 14 -8 -15 11 -16 9 -23 -13 -47 -14 -15 -44 -60 -68 -100 -23 -40 -57 -84
-75 -98 -51 -39 -130 -52 -213 -35 -75 14 -149 15 -263 0 -315 -41 -430 -50
-546 -44 l-122 7 -4 96 c-3 78 -9 107 -31 155 -15 32 -27 59 -27 60 0 0 35 2
78 2 42 1 115 9 161 18 104 20 267 20 431 1 69 -8 157 -15 195 -15 109 0 126
15 225 192 38 68 154 198 176 198 8 0 14 -10 14 -24z m-2503 -198 c3 -23 9
-50 14 -60 14 -26 -24 -89 -93 -156 -56 -54 -117 -102 -130 -102 -4 0 -36 19
-70 43 -35 23 -84 51 -110 60 -61 24 -73 61 -34 108 15 17 26 43 26 59 0 27 3
29 48 35 115 14 253 37 293 49 24 7 46 11 48 9 3 -2 6 -22 8 -45z m-564 -15
l148 -6 -7 -31 c-10 -46 -10 -46 -80 -46 -57 0 -70 4 -102 29 -20 16 -62 37
-92 46 -72 22 -81 26 -45 20 17 -3 97 -8 178 -12z m-175 -23 c57 -10 142 -47
142 -62 0 -5 -10 -22 -22 -38 -27 -37 -55 -39 -64 -5 -9 34 -50 65 -88 65 -17
0 -52 -7 -77 -17 -43 -15 -53 -15 -115 -1 l-69 14 32 17 c66 35 166 45 261 27z
m1209 -30 c105 -45 149 -130 137 -265 -20 -217 -161 -338 -305 -262 -38 20
-46 31 -62 78 -34 106 -50 219 -43 314 8 118 13 135 50 151 43 20 159 12 223
-16z m-289 1 c11 -6 11 -16 3 -47 -14 -49 -14 -194 -1 -265 5 -30 20 -85 32
-122 27 -84 20 -117 -56 -262 l-52 -100 -72 1 c-78 2 -108 11 -187 57 -172
101 -358 111 -512 28 l-53 -29 0 32 c0 18 -7 55 -15 82 -22 72 -20 91 11 98
14 4 37 18 50 31 23 23 27 24 86 13 35 -6 72 -18 83 -28 43 -37 115 -54 130
-31 3 6 25 1 52 -11 37 -16 50 -18 65 -9 10 6 29 9 43 5 13 -3 36 1 52 9 15 9
40 18 55 21 43 9 44 39 5 119 -19 40 -47 85 -61 101 -14 16 -26 32 -26 35 0 3
19 17 41 31 52 32 148 134 174 185 11 22 24 46 29 53 10 14 103 16 124 3z
m2497 -33 c61 -73 110 -227 125 -399 21 -241 -33 -530 -141 -752 -16 -33 -27
-62 -25 -65 8 -8 96 153 125 229 57 148 76 264 76 461 0 98 3 177 7 175 18 -6
92 -110 137 -191 134 -242 204 -528 187 -766 -8 -115 -45 -287 -92 -424 -44
-128 -160 -364 -216 -437 l-42 -57 -111 1 c-92 0 -122 -4 -185 -25 -74 -25
-240 -45 -240 -29 0 4 26 24 58 44 52 32 173 147 235 222 84 103 191 321 203
413 4 28 -2 19 -24 -38 -54 -141 -111 -237 -212 -363 -89 -112 -261 -257 -303
-257 -15 0 -114 67 -145 98 -133 133 -201 301 -202 492 0 301 75 526 337 1003
69 126 103 209 103 254 0 25 6 31 49 46 60 21 111 70 151 146 17 31 51 81 76
109 49 55 52 82 12 103 -19 10 -19 11 -1 24 25 20 28 19 58 -17z m-3407 -18
c23 -21 30 -50 12 -50 -5 0 -10 5 -10 12 0 6 -10 3 -21 -8 -87 -77 -83 -317 6
-335 45 -9 79 -29 67 -41 -22 -22 -84 -35 -130 -26 -99 18 -138 78 -136 208 2
104 28 173 85 225 46 41 93 47 127 15z m-184 -11 c3 -3 -5 -26 -18 -52 -13
-26 -30 -79 -36 -119 -12 -70 -6 -119 24 -190 6 -14 -4 -20 -59 -37 -192 -60
-352 -74 -436 -38 -84 35 -138 111 -146 206 -5 54 -4 57 37 103 26 31 65 59
106 79 104 49 167 59 356 56 92 -2 170 -5 172 -8z m1951 -5 c150 -18 158 -23
195 -121 31 -79 31 -202 1 -260 -20 -39 -73 -93 -92 -93 -23 0 -95 -42 -108
-62 -8 -13 -20 -65 -27 -117 -10 -81 -15 -97 -41 -122 -23 -23 -41 -31 -83
-35 -87 -8 -96 -12 -145 -54 -51 -44 -90 -55 -176 -47 -73 6 -117 31 -146 83
-32 55 -55 167 -51 249 l3 70 46 5 c25 3 58 13 72 23 l27 17 24 -47 c13 -27
39 -61 56 -78 l33 -30 -29 41 c-16 22 -38 59 -48 82 l-18 40 31 45 c17 25 35
57 40 70 l10 25 111 -29 c61 -16 114 -29 118 -29 12 1 -144 58 -180 65 -18 4
-35 11 -38 16 -3 5 -1 40 4 79 l10 70 116 0 c66 0 138 -6 169 -14 29 -7 48 -9
43 -4 -20 20 -123 40 -226 44 l-110 4 -13 51 c-7 29 -12 53 -11 54 2 1 26 7
53 13 77 15 236 14 380 -4z m-1551 -81 c103 -15 127 -22 177 -52 32 -20 68
-45 81 -56 13 -11 39 -33 60 -48 38 -29 115 -168 103 -187 -3 -5 -16 -10 -28
-9 -17 0 -30 17 -62 82 -39 78 -43 83 -113 124 -41 24 -76 43 -79 43 -16 0 28
-35 81 -65 56 -31 64 -40 94 -104 36 -78 40 -106 16 -115 -28 -11 -33 -7 -70
52 -20 31 -50 72 -68 90 -32 34 -109 92 -122 92 -14 0 37 -47 69 -65 35 -19
131 -150 122 -165 -8 -13 -48 -13 -78 1 -13 6 -41 33 -63 60 -21 27 -42 49
-46 49 -4 0 -30 14 -58 30 -28 17 -54 30 -58 30 -11 -1 40 -39 79 -60 45 -23
96 -87 81 -102 -15 -15 -63 -1 -95 26 -17 15 -51 28 -90 35 -34 6 -91 25 -127
43 -55 28 -66 38 -73 68 -12 48 -2 149 20 194 l17 37 56 -6 c30 -3 109 -13
174 -22z m-1012 -322 c59 -59 109 -76 228 -76 80 0 125 6 190 24 122 34 132
34 147 -11 8 -26 9 -46 2 -70 -5 -18 -7 -63 -3 -100 5 -62 4 -72 -20 -113 -15
-25 -41 -52 -59 -61 -18 -9 -48 -33 -68 -54 -19 -22 -47 -44 -63 -49 -61 -24
-130 -5 -155 43 -8 14 -24 28 -35 31 -104 28 -127 46 -146 116 -7 25 -24 49
-50 70 -42 34 -60 71 -60 128 -1 20 -7 47 -15 61 -22 38 -19 109 6 150 l21 34
23 -45 c13 -25 38 -60 57 -78z m3776 63 l62 -7 -6 -36 c-7 -44 -65 -164 -178
-370 -46 -84 -106 -204 -132 -267 -27 -62 -52 -114 -55 -114 -11 0 -38 110
-55 221 -18 116 -15 362 5 413 7 16 9 31 6 34 -9 9 -14 -2 -32 -69 -27 -100
-24 -327 6 -442 12 -48 31 -108 42 -132 l20 -45 -30 -121 c-76 -300 -60 -542
49 -721 22 -37 40 -69 40 -72 0 -11 -124 46 -186 86 -81 53 -190 160 -242 238
-20 30 -51 93 -69 140 -35 92 -43 96 -17 9 66 -221 268 -426 481 -485 48 -13
74 -28 115 -67 29 -27 77 -63 106 -79 28 -17 50 -33 47 -38 -3 -4 -22 -11 -42
-14 -21 -4 -88 -31 -149 -61 l-111 -55 -72 25 c-40 13 -112 50 -160 82 -108
72 -292 254 -358 354 -64 97 -118 225 -104 243 8 10 2 42 -21 117 -29 91 -33
118 -32 209 0 58 8 143 18 190 41 203 155 424 274 530 51 45 187 121 244 135
l26 7 -19 -74 c-25 -95 -42 -298 -30 -363 l9 -50 1 55 c3 92 29 280 50 363 11
43 37 109 56 146 l36 69 102 11 c56 7 111 14 122 16 20 3 62 1 183 -11z m-448
-28 c0 -2 -11 -27 -25 -54 -24 -48 -27 -50 -113 -81 -50 -18 -123 -55 -170
-86 -92 -61 -145 -90 -206 -111 -47 -17 -218 -36 -241 -28 -11 5 -15 22 -15
69 0 82 12 112 52 129 18 8 53 22 76 32 43 18 102 76 102 101 0 15 13 16 225
14 83 -1 175 3 205 8 63 10 110 13 110 7z m-2684 -61 c21 -14 55 -28 76 -31
33 -6 38 -9 32 -28 -8 -28 -86 -152 -122 -195 l-29 -34 -6 61 c-4 34 -2 73 3
87 15 40 12 77 -10 120 -11 22 -20 41 -20 42 0 12 46 -1 76 -22z m1187 -60
l37 -19 -6 -65 c-4 -36 -7 -67 -8 -68 -2 -2 -107 28 -114 33 -5 3 42 144 48
141 3 -1 22 -11 43 -22z m-1054 -138 c1 -26 -6 -45 -20 -60 -17 -18 -20 -30
-16 -68 6 -46 5 -47 -41 -80 -26 -19 -78 -50 -117 -69 -52 -26 -74 -44 -87
-68 -11 -24 -38 -46 -91 -76 -69 -40 -129 -83 -202 -148 -16 -14 -88 -65 -159
-112 -144 -96 -256 -192 -363 -311 -137 -151 -269 -349 -351 -524 l-36 -76 -7
65 c-19 170 -118 297 -297 385 -150 73 -383 71 -534 -6 -32 -16 -58 -26 -58
-24 0 36 191 248 351 390 92 82 109 95 219 175 287 208 600 353 896 416 131
28 160 29 167 11 7 -18 69 -47 100 -47 18 0 31 -10 46 -34 56 -90 196 -87 262
5 11 16 40 39 64 50 57 27 146 117 208 211 56 85 64 84 66 -5z m462 -7 c35
-11 94 -37 131 -59 37 -21 84 -45 104 -51 43 -15 127 -18 167 -7 24 7 27 5 27
-16 0 -38 -36 -77 -71 -77 -34 0 -85 24 -91 42 -4 10 -10 10 -32 0 -66 -30
-156 0 -156 53 0 34 -16 39 -46 16 -43 -34 -121 -23 -157 22 l-17 22 -28 -33
c-35 -42 -97 -54 -139 -27 -19 13 -28 14 -31 6 -13 -40 -105 -58 -132 -26 -15
18 -5 68 13 62 7 -3 36 9 66 26 122 69 267 86 392 47z m559 -20 c65 -20 68
-21 75 -58 3 -20 18 -62 32 -92 25 -52 27 -65 31 -250 2 -107 2 -211 0 -230
l-3 -35 -41 60 c-23 34 -64 79 -90 100 -27 22 -51 43 -52 48 -11 25 -60 72
-88 83 -24 10 -37 25 -49 57 -24 62 -17 99 18 108 16 4 35 16 43 26 15 20 19
94 5 109 -9 8 33 94 46 94 3 0 36 -9 73 -20z m1047 -126 c-51 -79 -108 -203
-131 -286 -22 -78 -46 -241 -39 -267 3 -12 1 -21 -5 -21 -5 0 -13 12 -17 28
-17 71 -157 321 -242 432 l-34 44 50 12 c58 13 97 36 106 63 5 17 19 19 128
23 89 4 135 10 172 25 28 11 51 19 53 17 2 -1 -17 -33 -41 -70z m-1631 3 c25
0 50 5 56 11 16 16 28 15 28 -1 0 -21 52 -64 87 -72 17 -3 48 -2 69 4 31 9 41
7 62 -9 13 -11 30 -20 37 -20 7 0 15 -18 18 -39 3 -22 12 -54 21 -72 9 -18 16
-33 16 -34 0 -1 -28 -5 -62 -9 -35 -3 -103 -17 -153 -30 -266 -71 -365 -95
-410 -101 -104 -13 -241 26 -319 92 -35 29 -85 93 -86 108 0 6 29 25 65 44 36
19 79 49 96 67 27 28 35 31 75 26 36 -4 51 0 75 17 26 20 34 21 65 11 46 -16
95 -6 123 24 l23 24 35 -21 c21 -12 53 -20 79 -20z m1207 -172 c90 -139 130
-211 183 -327 40 -90 134 -351 134 -374 0 -7 -22 -8 -67 -1 -38 5 -117 7 -178
5 -96 -3 -117 -7 -167 -31 -31 -15 -70 -43 -87 -62 -17 -19 -32 -35 -35 -35
-2 0 -11 23 -20 51 -37 112 -102 232 -184 341 l-36 48 0 219 -1 219 39 -20
c83 -42 207 -33 269 21 31 27 66 50 77 51 3 0 35 -47 73 -105z m-1785 -113
c125 -115 290 -141 513 -82 311 84 383 100 445 100 56 0 67 -3 96 -29 18 -16
30 -32 27 -35 -3 -3 -45 -17 -95 -31 -262 -77 -521 -206 -638 -319 l-44 -44
-51 63 c-31 39 -95 97 -166 150 -116 86 -161 135 -196 210 -24 52 -24 76 2
109 l22 27 24 -43 c14 -24 41 -58 61 -76z m-129 -19 c8 -21 23 -51 34 -67 12
-17 16 -31 10 -35 -41 -26 -98 -80 -175 -165 -116 -129 -136 -167 -27 -52 81
86 209 196 227 196 5 0 17 -10 28 -21 10 -12 38 -35 62 -51 l43 -29 -41 -51
c-56 -71 -50 -82 11 -20 l52 51 31 -22 c44 -31 156 -147 156 -162 0 -7 -7 -18
-15 -25 -24 -20 -149 -190 -194 -264 -138 -225 -234 -502 -261 -756 -20 -190
12 -342 108 -506 90 -155 201 -282 338 -390 45 -35 84 -74 87 -87 4 -12 32
-60 63 -107 56 -83 57 -87 57 -155 1 -137 -56 -233 -176 -294 -47 -24 -84 -35
-132 -39 l-67 -5 12 23 c19 35 6 226 -20 320 -21 75 -86 210 -100 210 -5 0 5
-24 21 -54 45 -84 70 -193 76 -342 l6 -130 -39 -32 c-140 -116 -380 -87 -544
64 -49 46 -109 133 -151 221 -17 36 -33 63 -35 61 -10 -11 73 -196 104 -231
31 -35 -2 -31 -83 12 -212 111 -333 254 -440 521 -83 208 -124 415 -132 660
-5 148 -2 193 15 296 58 334 232 689 476 969 80 91 265 276 359 358 67 59 215
165 232 166 6 1 17 -16 24 -36z m1297 -116 c63 -67 118 -162 153 -267 41 -118
82 -294 90 -383 5 -48 11 -91 15 -94 9 -9 8 19 -9 160 -16 136 -41 247 -79
352 -13 36 -22 65 -20 65 9 0 90 -130 128 -207 150 -302 208 -760 132 -1048
-39 -147 -169 -396 -254 -487 -14 -15 -23 -30 -20 -33 16 -16 161 177 220 293
l48 93 0 -63 c0 -92 -39 -231 -81 -290 -24 -33 -21 -48 4 -21 23 27 84 153 92
193 12 61 16 70 33 70 52 0 190 -105 238 -182 14 -21 32 -66 40 -101 53 -205
-67 -451 -309 -630 -83 -62 -257 -151 -367 -187 -87 -30 -102 -32 -195 -28
-191 9 -331 74 -486 228 -84 83 -179 206 -179 231 0 5 17 -3 37 -17 67 -45
339 -161 351 -149 3 2 -15 12 -39 21 -87 35 -270 133 -361 196 -119 80 -265
227 -346 345 -140 205 -183 354 -162 552 29 276 130 564 277 793 186 292 316
405 606 532 50 22 59 23 64 10 9 -23 -5 -142 -23 -197 -23 -69 -10 -69 16 0
14 36 25 90 28 140 3 63 8 83 21 88 89 37 155 54 163 43 34 -54 78 -247 78
-345 0 -23 5 -45 11 -49 9 -5 10 22 6 102 -5 113 -23 196 -57 266 -11 23 -19
42 -17 43 5 4 73 23 83 24 7 1 38 -27 70 -62z m810 -477 c13 0 28 -9 34 -19
19 -36 80 -265 106 -396 14 -71 28 -140 31 -153 5 -23 4 -23 -38 7 -50 35
-141 61 -210 61 -107 0 -253 51 -268 93 -18 51 -43 226 -37 259 7 37 53 91 98
114 51 26 141 44 202 39 32 -3 69 -5 82 -5z m124 -70 c83 -267 367 -555 658
-667 22 -8 19 -13 -60 -75 -229 -181 -362 -377 -419 -615 -19 -78 -21 -108
-16 -263 6 -184 25 -303 70 -437 l24 -69 -22 -16 c-12 -9 -36 -45 -55 -80 -29
-54 -34 -73 -35 -134 l0 -71 -35 10 c-19 5 -80 7 -135 4 -90 -4 -135 -15 -229
-53 -22 -8 -23 -22 13 256 25 197 37 258 57 287 8 13 47 56 86 96 101 103 136
148 153 197 33 92 9 399 -56 729 l-21 103 25 27 c66 72 72 89 71 196 -2 145
-47 358 -131 618 -5 15 -1 18 17 15 17 -2 26 -15 40 -58z m-3742 -62 c86 -40
183 -135 219 -214 38 -83 44 -216 13 -297 -12 -31 -32 -70 -45 -85 -45 -54
-198 -113 -424 -163 -255 -57 -414 -130 -536 -248 -30 -29 -57 -52 -60 -50 -7
8 131 294 200 415 128 224 263 412 412 576 112 123 107 121 221 66z m3379
-364 c26 -8 101 -21 166 -29 135 -16 199 -41 228 -89 55 -90 -4 -188 -206
-341 -146 -110 -175 -146 -175 -217 0 -26 -2 -48 -5 -48 -3 0 -22 11 -43 24
-20 13 -51 27 -68 31 -30 6 -31 8 -38 75 -5 53 -1 87 15 152 17 66 22 122 25
278 2 107 4 198 4 203 0 4 11 0 25 -9 13 -8 46 -22 72 -30z m2037 -92 c174
-82 320 -314 371 -591 19 -103 19 -299 0 -403 -40 -227 -155 -448 -312 -599
-176 -170 -422 -263 -811 -305 l-62 -7 35 59 c19 32 35 61 35 66 0 4 12 8 28
8 107 1 313 129 490 304 67 67 122 126 122 132 0 7 -33 -21 -72 -61 -145 -144
-418 -324 -529 -350 l-27 -7 18 65 c22 79 40 218 40 308 l0 65 68 67 c98 95
192 231 272 392 80 161 120 278 155 451 26 128 31 199 15 224 -7 12 -10 8 -10
-15 0 -43 -45 -253 -76 -354 -29 -97 -90 -244 -135 -329 -61 -113 -270 -411
-290 -412 -3 0 -9 35 -13 78 -4 42 -14 120 -22 172 -8 52 -18 172 -21 265 -5
153 -4 181 16 275 28 128 52 195 103 282 72 126 169 210 278 244 95 28 245 18
334 -24z m-515 -42 c-141 -115 -240 -353 -256 -610 -6 -100 17 -372 43 -510
14 -77 19 -320 8 -404 -4 -25 -12 -46 -18 -46 -6 1 -25 20 -42 43 -140 193
-220 468 -241 824 -9 171 -21 191 -22 38 -2 -282 46 -511 150 -721 37 -77 63
-114 105 -154 l56 -53 -27 -81 c-28 -89 -73 -176 -96 -187 -8 -3 -59 -14 -114
-23 -55 -9 -112 -19 -126 -22 -23 -5 -38 6 -112 78 -72 71 -91 97 -130 178
-92 193 -131 378 -132 625 0 200 14 265 95 430 128 262 422 511 695 587 57 16
142 32 190 36 6 1 -6 -12 -26 -28z m-5008 -371 c-55 -175 -98 -355 -166 -694
-32 -164 -85 -559 -85 -642 0 -24 -3 -43 -7 -43 -5 1 -19 24 -33 52 -30 62
-135 175 -225 243 -236 178 -292 244 -324 381 -15 63 -2 207 25 274 65 164
205 311 379 397 116 58 453 154 463 132 1 -4 -11 -49 -27 -100z m3828 16 c25
-163 61 -441 61 -468 l0 -27 -51 35 c-47 32 -132 65 -169 65 -8 0 -46 34 -84
76 -68 75 -68 75 -64 125 4 40 12 58 39 86 51 53 243 204 250 195 3 -4 11 -43
18 -87z m-49 -459 c54 -26 69 -38 88 -76 25 -49 28 -103 10 -163 -12 -41 -83
-122 -304 -347 -62 -63 -121 -124 -129 -135 -16 -20 -16 -19 -11 5 3 14 6 39
6 55 0 22 14 45 56 90 140 150 216 366 185 526 -7 33 -15 68 -18 76 -8 20 35
9 117 -31z m-169 -648 c-10 -45 -35 -235 -46 -358 -3 -35 -7 -66 -9 -67 -4 -5
-109 126 -124 154 -18 33 -14 79 9 126 20 39 168 201 176 193 2 -2 -1 -24 -6
-48z m-4127 -30 c112 -91 204 -212 231 -302 9 -28 18 -85 22 -127 16 -200 -31
-259 -309 -394 -180 -87 -262 -146 -333 -238 -15 -21 -30 -36 -32 -33 -2 2 3
46 12 98 38 225 102 463 171 640 41 106 174 398 181 398 3 0 28 -19 57 -42z
m2958 -130 c75 -46 148 -74 234 -90 59 -12 64 -15 60 -34 -9 -33 10 -204 30
-274 21 -76 75 -140 118 -140 45 0 83 30 115 89 49 95 105 271 125 401 5 30
13 38 55 58 27 12 90 49 140 82 50 33 93 60 95 60 2 0 -3 -33 -10 -72 -18
-103 -17 -173 3 -206 9 -15 48 -60 87 -101 l69 -75 -24 -15 c-53 -34 -137
-123 -172 -183 -38 -64 -61 -124 -72 -191 -6 -38 -7 -38 -28 -23 -60 45 -190
98 -283 117 -138 29 -362 24 -445 -9 -78 -31 -148 -80 -171 -119 l-20 -32 -55
29 c-70 38 -131 40 -195 7 l-45 -23 -34 23 c-18 12 -37 24 -41 25 -5 2 5 29
22 59 44 82 70 196 77 332 3 64 9 117 13 117 4 0 28 21 54 48 64 65 98 136
104 222 l5 69 63 -57 c35 -31 92 -74 126 -94z m1693 -5 c18 -73 120 -205 214
-275 l34 -26 -34 -17 c-19 -10 -53 -33 -75 -51 l-42 -34 -18 28 c-27 42 -74
79 -131 104 l-53 23 0 52 c0 62 22 134 57 186 31 44 39 46 48 10z m-1045 -85
c-46 -197 -133 -402 -179 -419 -53 -21 -96 23 -126 131 -3 14 -9 33 -11 42 -4
15 -1 15 25 5 28 -10 33 -9 61 18 38 37 87 133 95 188 6 41 8 43 73 68 37 14
69 24 71 23 2 -2 -2 -27 -9 -56z m2463 25 c54 -123 48 -270 -15 -401 -112
-230 -494 -437 -878 -476 -30 -3 -80 -8 -111 -11 l-55 -6 4 84 c8 148 -30 228
-143 307 -22 15 -64 36 -92 46 -29 10 -53 22 -53 26 0 20 44 49 97 64 73 21
245 15 423 -16 138 -24 268 -22 351 5 27 9 33 13 14 10 -120 -19 -203 -17
-360 11 -163 28 -338 37 -420 21 -38 -7 -39 -7 -20 9 77 63 206 95 535 133
199 23 417 74 518 121 71 33 165 89 170 102 7 17 20 6 35 -29z m-2629 -75
c-29 -98 -94 -185 -128 -172 -22 8 -31 45 -31 134 l0 75 70 6 c39 3 78 6 87 7
16 2 16 -2 2 -50z m-868 -150 c-13 -155 -64 -337 -102 -369 -20 -17 -150 36
-158 65 -10 37 -7 46 18 46 65 0 126 105 134 231 l4 76 47 16 c25 8 50 16 55
16 5 1 6 -35 2 -81z m-148 42 c19 0 22 -5 22 -39 0 -101 -79 -249 -127 -239
-16 3 -18 16 -18 129 0 147 7 165 65 155 19 -3 45 -6 58 -6z m2117 -35 c70
-19 126 -55 168 -107 28 -34 29 -39 15 -55 -8 -10 -18 -26 -22 -37 -3 -10 -12
-16 -19 -13 -7 2 -39 10 -72 17 -174 36 -396 -51 -567 -222 -27 -26 -48 -42
-48 -36 0 49 53 203 97 282 19 32 31 61 28 64 -3 3 -6 3 -8 1 -1 -2 -17 -25
-35 -51 -59 -86 -102 -204 -102 -284 0 -34 -8 -51 -42 -93 l-42 -52 -23 43
c-27 52 -28 78 -7 168 30 134 140 268 278 337 126 64 265 77 401 38z m-3201
-43 c49 -96 165 -181 316 -230 97 -32 158 -42 340 -53 290 -17 470 -73 582
-180 58 -55 60 -55 -74 -16 -159 47 -290 62 -538 61 -124 0 -242 -5 -263 -10
-25 -6 54 -9 245 -10 265 0 292 -2 418 -27 184 -36 267 -62 281 -89 22 -42 39
-123 39 -193 0 -79 0 -79 -55 -121 -96 -75 -250 -142 -397 -174 l-93 -20 66 5
c140 11 323 79 422 157 l40 32 -7 -34 c-19 -100 -142 -195 -308 -239 -136 -37
-253 -44 -573 -38 -324 7 -407 0 -512 -38 l-64 -23 18 28 c70 108 217 210 306
210 20 0 37 5 37 10 0 6 -26 10 -58 10 -69 0 -205 -42 -392 -120 -421 -176
-646 -202 -850 -100 -71 36 -147 112 -177 176 -21 45 -45 168 -36 178 2 2 24
-7 48 -21 60 -33 159 -41 244 -19 112 29 219 115 390 314 73 86 151 143 278
205 86 41 102 53 82 55 -15 2 -51 -6 -80 -16 -223 -82 -257 -97 -339 -158 -33
-24 -60 -41 -60 -37 0 12 77 109 125 156 108 108 243 190 366 222 47 13 91 16
168 13 101 -5 103 -4 70 11 -24 12 -35 26 -42 51 -8 31 -2 120 8 120 3 0 15
-21 29 -48z m3371 -197 c77 -23 130 -49 182 -91 57 -47 84 -106 90 -203 5 -73
4 -83 -20 -123 -36 -58 -62 -86 -127 -135 -108 -80 -303 -163 -469 -198 -140
-29 -331 -14 -376 31 -11 12 -15 35 -14 92 2 83 -8 113 -58 172 l-27 32 22 42
c12 22 54 73 92 113 62 64 79 75 137 93 109 34 197 42 389 39 193 -4 207 4 41
23 -109 12 -285 1 -387 -26 -30 -8 -56 -13 -57 -12 -1 1 28 25 65 52 106 80
190 112 317 123 76 7 109 3 200 -24z m-1179 -119 c109 -28 190 -67 252 -121
46 -40 81 -102 82 -142 l0 -23 -64 24 c-123 46 -249 68 -436 75 l-175 6 61 28
c34 15 103 36 154 46 51 11 95 23 99 27 12 13 -135 -5 -199 -25 -36 -11 -90
-35 -120 -54 -31 -18 -85 -41 -120 -51 -36 -9 -76 -23 -90 -31 -23 -13 -25
-11 -51 39 -23 45 -24 54 -13 77 15 30 71 77 122 103 98 50 346 61 498 22z
m-751 -105 c48 -22 98 -71 121 -120 22 -45 22 -152 1 -203 -26 -61 -131 -147
-182 -148 -6 0 -10 51 -10 133 0 124 -2 136 -28 194 -16 33 -42 74 -58 89 -16
15 -29 31 -29 36 0 14 63 36 105 37 22 0 58 -8 80 -18z m599 -141 c77 -48 195
-98 250 -106 31 -4 16 5 -64 38 -94 38 -200 93 -200 102 0 7 122 -5 220 -20
235 -37 336 -94 361 -204 18 -81 -36 -186 -115 -220 -70 -31 -210 -43 -347
-30 -197 19 -344 71 -440 158 -65 58 -89 111 -89 194 0 66 0 66 33 77 93 29
164 41 305 50 12 0 51 -17 86 -39z"/>
<path d="M4028 9726 c-50 -117 -91 -275 -84 -329 7 -65 33 -108 79 -131 45
-21 77 -12 122 34 54 56 43 161 -36 366 -23 60 -45 112 -48 116 -3 4 -18 -22
-33 -56z m65 -86 c53 -144 70 -222 58 -268 -27 -100 -125 -122 -166 -37 -24
53 -18 120 25 263 22 72 40 135 40 139 0 16 10 -8 43 -97z"/>
<path d="M4863 9723 c-45 -100 -83 -229 -90 -303 -5 -55 -2 -73 15 -107 41
-79 100 -102 171 -65 117 59 107 230 -28 474 l-38 69 -30 -68z m122 -187 c36
-109 38 -196 4 -232 -73 -80 -164 -58 -189 45 -12 52 2 120 62 305 l33 99 32
-69 c18 -38 44 -105 58 -148z"/>
<path d="M3103 9688 c-43 -122 -65 -224 -69 -328 -5 -94 -3 -108 15 -138 40
-62 100 -67 151 -12 37 39 44 94 26 204 -15 86 -85 336 -96 336 -3 0 -15 -28
-27 -62z m66 -135 c40 -161 49 -259 27 -301 -34 -66 -100 -70 -130 -8 -18 37
-19 47 -8 135 15 115 62 315 73 304 4 -4 21 -63 38 -130z"/>
<path d="M3806 9108 c-79 -17 -146 -100 -146 -178 0 -45 33 -111 68 -137 35
-26 113 -53 152 -53 42 0 115 37 145 72 31 37 39 66 33 128 -12 117 -129 195
-252 168z m149 -43 c44 -25 72 -70 82 -130 9 -53 -28 -119 -81 -144 -85 -42
-208 -13 -249 57 -46 79 -4 196 83 231 47 19 120 13 165 -14z"/>
<path d="M4436 7626 c-7 -52 -8 -53 -49 -65 -23 -7 -57 -21 -75 -32 l-34 -19
-35 37 -35 38 17 -40 c9 -22 19 -45 21 -50 3 -6 -9 -24 -26 -40 -28 -26 -33
-28 -60 -18 -34 13 -40 4 -9 -15 16 -10 19 -20 15 -45 -6 -29 -5 -30 6 -9 12
24 16 26 37 13 12 -8 10 -16 -13 -50 -26 -37 -30 -71 -7 -71 5 0 17 12 27 28
27 42 80 89 124 112 55 28 60 26 37 -21 -11 -23 -22 -64 -25 -92 -4 -46 -3
-50 14 -43 53 22 80 25 117 15 51 -14 87 -50 87 -88 0 -37 -20 -57 -68 -71
-50 -13 -80 -13 -136 4 l-48 15 -20 -46 c-15 -33 -19 -61 -16 -109 2 -46 0
-64 -9 -64 -20 0 -15 -20 5 -21 9 -1 2 -6 -15 -11 -39 -13 -44 -27 -8 -20 31
5 95 -6 95 -17 0 -5 -16 -12 -35 -15 -19 -4 -35 -11 -35 -17 0 -5 10 -7 23 -5
12 3 40 8 62 11 l40 7 -24 -26 c-30 -31 -24 -32 28 -5 l40 21 87 -22 c47 -11
108 -32 136 -45 36 -17 46 -19 36 -8 -12 15 -10 16 17 10 17 -3 39 -9 50 -13
20 -7 20 -6 1 8 -19 15 -19 16 2 27 11 6 40 11 64 12 36 1 39 2 18 9 -29 9
-20 12 30 11 29 0 31 1 15 8 -11 5 -32 10 -48 10 -27 1 -27 1 -12 31 25 48 45
150 45 235 1 77 1 79 15 50 12 -25 14 -26 9 -5 -14 56 -46 130 -73 166 -27 38
-27 40 -11 75 8 20 22 44 29 53 16 19 1 22 -17 4 -10 -10 -21 -4 -52 28 l-40
40 30 47 c29 46 29 47 5 31 -14 -9 -25 -19 -25 -23 0 -3 -7 -14 -14 -24 -13
-16 -17 -15 -77 17 l-64 33 0 56 c0 61 -14 53 -25 -13 -5 -34 -6 -35 -58 -38
-49 -3 -53 -1 -63 25 -6 15 -8 40 -5 56 3 15 2 27 -3 27 -5 0 -12 -24 -15 -54z
m347 -523 c-18 -7 -16 -23 3 -23 8 0 12 -5 9 -11 -4 -6 -13 -8 -21 -5 -7 3
-16 1 -19 -4 -4 -6 5 -10 19 -10 16 0 26 -6 26 -15 0 -10 -10 -15 -32 -15
l-33 -1 35 -16 c32 -15 33 -17 12 -21 -22 -3 -23 -4 -5 -17 10 -7 15 -17 10
-21 -4 -4 -13 -2 -19 4 -24 24 -31 11 -8 -13 26 -27 21 -46 -6 -24 -16 13 -17
12 -11 -10 3 -14 1 -31 -5 -38 -9 -11 -15 -6 -30 24 -14 29 -17 32 -14 13 2
-14 7 -33 11 -42 5 -13 3 -18 -9 -18 -10 0 -16 9 -17 23 0 12 -5 31 -10 42 -7
14 -8 7 -4 -27 4 -43 2 -48 -15 -48 -17 0 -20 7 -21 53 l-1 52 -10 -52 c-11
-61 -33 -74 -25 -15 l6 37 -16 -37 c-9 -21 -20 -38 -25 -38 -6 0 -8 16 -4 38
l6 37 -18 -34 c-12 -21 -22 -30 -26 -23 -4 7 -2 20 4 31 17 32 12 36 -15 11
-31 -29 -46 -18 -17 13 24 26 30 46 8 28 -10 -9 -15 -8 -19 3 -4 9 1 20 11 25
11 7 13 10 4 11 -8 0 -27 -9 -44 -21 -16 -12 -32 -19 -34 -16 -3 3 4 10 15 17
12 6 19 15 16 20 -3 6 5 15 19 22 14 6 26 15 26 20 0 4 -22 -3 -50 -17 -27
-14 -50 -21 -50 -17 0 5 19 17 41 28 23 10 37 20 31 22 -6 2 -24 -4 -41 -12
-36 -19 -41 -20 -41 -3 0 7 23 18 53 25 28 7 62 15 75 18 19 6 22 3 22 -25 0
-75 96 -108 159 -56 21 19 33 41 42 80 11 50 15 55 38 54 14 0 20 -3 14 -6z"/>
<path d="M3800 6730 c-25 -5 -66 -19 -91 -31 -46 -21 -47 -22 -42 -63 15 -137
58 -244 115 -286 46 -34 140 -39 184 -11 76 47 104 122 104 276 0 95 0 96 -27
106 -38 15 -187 20 -243 9z m240 -118 c0 -125 -18 -190 -65 -231 -41 -36 -73
-46 -122 -38 -55 9 -82 33 -114 100 -33 71 -54 211 -34 227 26 21 126 39 228
39 l107 1 0 -98z"/>
<path d="M6395 7345 c19 -49 34 -158 35 -248 1 -346 -182 -688 -484 -907 -90
-64 -112 -87 -48 -50 292 172 496 469 543 791 22 153 -1 384 -43 424 -8 7 -9
4 -3 -10z"/>
<path d="M1049 9566 c-14 -9 -34 -26 -43 -40 -20 -31 -21 -114 -1 -140 22 -29
19 -36 -20 -36 -20 0 -53 -9 -74 -20 -103 -52 -114 -209 -19 -265 34 -20 144
-23 177 -6 19 11 20 9 19 -42 -2 -69 22 -111 76 -132 81 -33 180 16 192 96 7
43 10 45 38 24 12 -9 42 -15 74 -15 48 0 58 4 87 33 43 43 60 102 45 159 -14
50 -58 96 -99 104 -37 8 -39 16 -8 33 56 30 75 126 37 188 -23 39 -86 73 -135
73 -52 0 -92 -25 -116 -72 l-21 -41 -20 34 c-11 19 -31 43 -45 53 -34 25 -110
31 -144 12z m127 -27 c28 -14 52 -57 65 -118 11 -55 29 -69 29 -23 0 87 59
162 128 162 45 0 109 -40 123 -76 25 -67 1 -116 -85 -170 l-60 -39 64 -5 c36
-3 75 -11 87 -18 50 -28 68 -113 37 -177 -39 -83 -172 -85 -208 -2 l-14 32 -1
-63 c-1 -56 -4 -66 -34 -98 -37 -40 -97 -55 -146 -35 -65 28 -67 130 -3 204
26 30 6 29 -44 -3 -64 -39 -153 -50 -204 -23 -51 26 -70 84 -47 144 24 62 74
94 146 94 31 0 65 -4 76 -9 11 -4 4 6 -17 25 -68 63 -79 127 -28 178 41 41 81
46 136 20z"/>
<path d="M6965 8607 c-46 -21 -78 -87 -73 -148 5 -46 -3 -62 -17 -39 -3 5 -29
16 -58 25 -68 19 -122 7 -159 -35 -55 -60 -29 -153 55 -197 l31 -15 -25 -13
c-31 -17 -65 -63 -73 -102 -14 -62 46 -147 112 -159 47 -9 111 12 150 49 19
18 32 25 32 17 0 -29 41 -96 69 -113 39 -23 108 -22 149 3 57 35 74 108 46
197 -6 22 -4 23 39 17 58 -8 105 8 147 51 29 30 34 43 38 93 4 55 2 61 -27 95
-42 47 -105 71 -171 65 -48 -5 -50 -4 -44 16 22 68 0 136 -59 180 -33 24 -121
32 -162 13z m152 -33 c43 -27 56 -60 50 -120 -3 -31 -13 -67 -22 -81 -18 -27
-13 -42 7 -25 31 25 95 35 145 23 125 -32 149 -157 44 -227 -36 -23 -48 -26
-98 -21 -32 3 -69 8 -83 13 l-25 7 22 -24 c11 -13 26 -43 32 -66 22 -83 -18
-154 -94 -169 -97 -18 -147 63 -121 199 9 46 -8 50 -23 4 -15 -46 -69 -107
-107 -123 -58 -24 -102 -18 -140 20 -38 38 -44 77 -19 126 20 38 80 79 127 86
48 8 39 24 -12 24 -85 0 -140 41 -140 104 1 121 149 142 264 37 25 -22 28 -23
21 -6 -33 89 -36 104 -26 142 24 87 122 125 198 77z"/>
<path d="M1047 8046 c-98 -35 -147 -109 -147 -221 0 -64 -1 -67 -17 -53 -68
60 -187 81 -248 44 -80 -47 -103 -148 -52 -224 14 -22 40 -48 57 -58 39 -24
38 -30 -8 -37 -57 -10 -128 -59 -154 -109 -45 -86 -22 -195 53 -248 46 -34
133 -45 199 -28 30 8 63 18 73 23 15 6 17 0 17 -61 0 -114 53 -182 148 -192
63 -6 129 22 166 71 27 35 54 147 40 169 -17 28 18 -1 38 -32 38 -56 99 -93
163 -98 76 -6 136 12 178 57 43 44 57 78 57 139 0 85 -79 204 -149 227 -34 10
-24 22 23 27 99 12 160 85 161 194 0 113 -67 177 -190 177 -40 0 -76 -7 -109
-21 -27 -12 -49 -22 -50 -22 -1 0 -2 33 -2 73 0 81 -14 115 -66 163 -55 52
-112 64 -181 40z m152 -43 c72 -54 87 -163 38 -283 -25 -61 -28 -98 -5 -55 52
94 219 153 310 109 55 -26 73 -60 73 -136 0 -59 -3 -70 -31 -105 -47 -59 -85
-74 -184 -72 -47 1 -87 -2 -90 -6 -3 -4 15 -13 40 -19 107 -28 199 -101 219
-172 35 -124 -19 -216 -142 -244 -69 -15 -122 1 -171 53 -37 39 -96 147 -96
177 0 8 -4 20 -8 27 -4 6 -7 -48 -7 -120 0 -152 -10 -180 -75 -223 -53 -35
-115 -41 -157 -15 -46 29 -64 62 -70 128 -4 48 1 73 25 143 17 46 29 86 28 87
-2 2 -15 -14 -30 -36 -37 -53 -90 -88 -155 -102 -107 -23 -185 7 -215 81 -22
55 -20 98 6 150 38 75 100 105 243 117 l80 7 -63 13 c-68 14 -105 35 -146 84
-93 110 16 253 164 215 58 -15 115 -56 142 -103 11 -19 22 -32 24 -30 2 1 -3
25 -11 52 -28 91 -15 172 37 235 18 22 69 57 93 63 37 10 107 -1 134 -20z"/>
</g>
</svg>
