<?xml version="1.0" standalone="no"?>
<!DOCTYPE svg PUBLIC "-//W3C//DTD SVG 20010904//EN"
 "http://www.w3.org/TR/2001/REC-SVG-20010904/DTD/svg10.dtd">
<svg version="1.0" xmlns="http://www.w3.org/2000/svg"
 width="564.000000pt" height="758.000000pt" viewBox="0 0 564.000000 758.000000"
 preserveAspectRatio="xMidYMid meet">
<metadata>
Created by potrace 1.16, written by Peter Selinger 2001-2019
</metadata>
<g transform="translate(0.000000,758.000000) scale(0.100000,-0.100000)"
fill="#000000" stroke="none">
<path d="M2820 7533 c-333 -15 -711 -93 -920 -190 l-75 -34 -170 -3 c-195 -4
-274 -20 -412 -87 -221 -106 -404 -330 -484 -589 l-20 -66 -81 -39 c-252 -122
-441 -353 -523 -640 -124 -432 -110 -1014 34 -1453 21 -65 55 -150 74 -189
l36 -71 -44 -89 c-119 -237 -137 -589 -45 -887 l20 -63 -41 -87 c-22 -48 -52
-131 -66 -184 -22 -84 -26 -118 -26 -257 0 -172 12 -250 59 -407 l27 -87 -27
-93 c-51 -178 -86 -460 -86 -698 0 -410 82 -748 240 -987 53 -81 191 -210 267
-251 l61 -32 1108 2 1109 3 0 183 c0 167 1 182 18 182 15 0 17 -15 17 -175 0
-110 -4 -175 -10 -175 -5 0 -10 -5 -10 -10 0 -7 339 -10 1048 -8 l1047 3 66
22 c254 87 405 316 440 670 14 131 1 297 -32 427 -19 75 -53 155 -69 166 -5 3
16 48 46 99 68 120 110 220 141 340 35 134 43 393 18 543 -30 178 -108 418
-130 396 -3 -3 8 -40 24 -81 35 -87 74 -238 90 -344 16 -104 13 -316 -4 -419
-28 -156 -106 -353 -187 -472 l-30 -43 31 -59 c66 -124 99 -353 80 -555 -32
-343 -181 -564 -439 -651 -52 -18 -106 -19 -1075 -19 l-1020 0 -3 187 -2 188
-28 0 c-50 0 -51 -4 -54 -195 l-3 -180 -1094 -3 -1094 -2 -72 45 c-92 57 -210
181 -269 282 -88 150 -147 331 -183 563 -21 140 -24 541 -4 695 17 138 57 335
80 396 18 46 18 54 5 92 -30 83 -64 244 -75 350 -21 208 28 457 116 597 l25
40 -24 72 c-42 130 -51 203 -51 398 0 162 3 197 24 280 25 100 66 200 101 250
l22 31 -45 87 c-76 147 -139 369 -174 617 -24 167 -23 544 0 713 55 387 174
636 388 808 75 61 207 140 249 149 23 5 29 15 49 83 61 207 204 411 369 524
63 43 181 96 270 120 61 16 112 21 247 23 l170 3 85 40 c136 65 373 125 645
164 60 9 201 13 420 13 307 -1 342 -3 505 -28 96 -15 258 -47 360 -73 101 -25
193 -43 205 -40 11 2 65 20 120 40 313 111 636 106 876 -14 266 -133 414 -312
475 -576 35 -150 24 -389 -27 -599 -21 -85 -21 -84 -69 -217 l-32 -86 36 -92
c146 -367 183 -800 105 -1200 -24 -121 -84 -325 -104 -357 -13 -20 -11 -29 20
-95 87 -186 120 -382 119 -713 0 -207 -3 -256 -23 -355 -27 -138 -56 -247 -82
-307 -21 -49 -24 -73 -10 -73 13 0 65 139 90 241 41 171 54 285 54 504 0 297
-39 532 -117 700 l-34 73 38 114 c161 487 144 1046 -46 1501 l-25 58 35 92
c82 221 110 368 110 582 1 146 -3 182 -22 255 -44 165 -136 321 -243 411 -179
152 -348 225 -571 249 -179 19 -413 -16 -608 -91 l-80 -30 -137 35 c-268 68
-473 100 -743 116 -159 9 -196 10 -340 3z"/>
<path d="M2802 7357 c-46 -49 -12 -127 55 -127 65 0 97 89 47 129 -35 28 -75
27 -102 -2z"/>
<path d="M3150 7150 c-25 -6 -61 -16 -80 -23 -27 -11 -56 -12 -130 -5 -52 5
-171 7 -265 5 -249 -7 -389 -38 -560 -125 -101 -52 -204 -144 -225 -202 -10
-28 -27 -43 -82 -75 -123 -70 -267 -234 -284 -322 -4 -22 -16 -40 -33 -50 -75
-46 -93 -61 -116 -93 -32 -46 -42 -109 -22 -145 13 -26 12 -31 -9 -62 -48 -72
-48 -181 1 -233 l23 -25 -24 -75 c-35 -106 -35 -188 0 -332 21 -88 27 -128 22
-163 -7 -42 -9 -45 -29 -39 -36 12 -133 6 -174 -11 -21 -8 -60 -39 -88 -69
-44 -46 -60 -56 -135 -80 -101 -32 -161 -69 -225 -137 -56 -60 -80 -112 -96
-208 -22 -129 11 -239 98 -332 l45 -48 -30 -15 c-49 -25 -129 -121 -152 -183
-20 -54 -30 -179 -16 -202 4 -5 -11 -15 -31 -21 -171 -55 -286 -244 -254 -421
15 -86 61 -179 115 -233 l45 -45 -27 -48 c-23 -42 -27 -59 -27 -133 0 -72 4
-93 27 -140 34 -69 99 -137 154 -161 23 -11 79 -24 124 -31 67 -9 84 -15 97
-35 8 -12 31 -33 52 -45 20 -12 38 -23 40 -24 2 -2 -25 -38 -60 -81 -81 -100
-190 -267 -269 -413 -35 -63 -99 -178 -142 -255 -92 -165 -96 -191 -48 -294
39 -82 128 -167 231 -221 82 -43 207 -80 268 -80 35 0 37 -3 69 -68 55 -116
157 -203 335 -287 150 -71 331 -115 474 -115 48 0 60 -4 95 -34 49 -42 118
-76 225 -109 159 -51 242 -61 468 -62 239 0 315 12 428 68 l68 34 38 -19 c63
-31 162 -41 356 -35 132 3 204 10 271 26 186 42 337 112 412 190 25 26 36 31
78 31 111 0 304 76 425 168 128 97 239 251 255 353 13 81 -177 578 -300 784
-32 55 -98 159 -145 230 -47 72 -87 133 -89 138 -2 4 14 7 35 7 61 0 161 28
227 63 130 68 253 234 244 328 -3 38 -2 41 41 62 67 33 156 120 185 180 56
118 54 253 -3 374 -31 63 -69 104 -128 137 l-38 22 0 99 c0 86 -3 105 -23 138
-26 45 -22 57 19 57 71 0 123 40 169 131 16 30 36 61 44 68 14 12 10 16 -31
36 -79 36 -125 98 -147 196 -6 26 -4 26 52 32 126 11 211 86 220 192 4 47 7
54 30 60 34 8 79 41 94 68 6 12 17 56 25 97 8 48 19 80 30 88 17 12 16 15 -7
58 -28 53 -79 98 -171 148 l-66 36 10 39 c8 29 8 50 -1 78 -11 34 -9 40 13 63
64 67 58 167 -15 240 -35 35 -37 40 -20 45 10 3 33 22 49 41 26 29 31 43 31
85 0 27 -6 62 -14 77 -18 33 -84 96 -152 145 -28 20 -57 50 -64 66 -15 37 -31
41 -105 25 -107 -21 -225 -84 -307 -162 -21 -20 -38 -34 -38 -31 0 3 9 41 20
84 34 131 23 268 -30 413 -29 78 -53 122 -121 219 -83 120 -185 221 -304 302
-169 115 -311 179 -475 212 -109 23 -379 34 -450 19z m308 -26 c208 -24 341
-67 519 -170 108 -63 207 -138 268 -205 92 -100 200 -275 242 -389 24 -68 27
-88 27 -220 1 -165 -16 -249 -66 -330 -20 -32 -33 -72 -41 -123 -14 -92 -29
-113 -46 -66 -6 18 -21 43 -33 56 -20 21 -20 24 -4 47 49 76 93 290 77 381 -8
49 -9 49 -10 -30 -2 -94 -21 -192 -56 -291 l-26 -72 -54 2 c-51 1 -55 3 -67
31 -22 54 -125 199 -174 245 l-47 45 50 -60 c58 -68 173 -243 173 -262 0 -7
-5 -13 -11 -13 -6 0 -24 -14 -40 -31 -16 -17 -29 -26 -29 -19 0 22 -52 80 -83
91 -22 8 -42 28 -62 62 -41 69 -112 117 -174 117 -42 0 -48 4 -70 36 -38 55
-136 114 -191 114 -9 0 -39 22 -66 48 -71 69 -133 97 -216 98 -62 1 -70 4
-106 36 -64 58 -147 93 -222 94 -37 1 -88 8 -115 17 -107 35 -228 42 -263 14
-9 -7 -24 -4 -50 11 -80 45 -222 51 -288 13 -30 -18 -31 -18 -53 5 -28 29
-117 48 -174 38 -23 -4 -85 -8 -137 -8 -86 -1 -102 -4 -161 -33 -39 -19 -82
-33 -103 -33 -34 0 -37 2 -31 23 22 72 125 204 209 267 129 95 238 129 421
131 97 1 110 3 70 9 -80 13 -185 11 -259 -5 -38 -8 -71 -13 -74 -11 -9 9 21
47 80 101 112 101 308 180 512 205 122 16 498 7 606 -13 140 -27 330 -113 443
-200 20 -16 37 -26 37 -23 0 10 -146 119 -193 142 -61 32 -256 104 -279 104
-10 0 -18 4 -18 9 0 5 26 12 58 16 31 3 64 8 72 9 35 8 103 5 228 -10z m-1325
-727 c22 -12 36 -26 33 -34 -8 -19 8 -16 29 7 44 48 194 46 295 -5 49 -25 52
-25 65 -8 27 36 229 10 297 -38 17 -12 39 -36 49 -53 11 -18 19 -24 19 -15 0
9 -9 28 -20 42 -11 14 -20 28 -20 31 0 16 90 3 138 -19 50 -23 173 -110 180
-127 7 -16 21 -7 15 9 -6 14 0 15 49 10 97 -10 203 -82 239 -162 16 -37 18
-38 18 -12 1 33 16 34 75 6 76 -35 144 -118 167 -204 6 -22 8 -15 5 27 l-4 57
31 -6 c84 -16 169 -99 198 -193 7 -24 7 -24 8 -2 1 30 15 28 54 -12 40 -39 72
-137 56 -167 -7 -13 -6 -26 2 -40 9 -18 7 -25 -9 -42 -27 -27 -81 -16 -122 24
l-31 31 41 20 c22 11 40 25 40 30 0 6 7 7 15 4 9 -3 1 12 -16 34 -36 44 -51
47 -23 5 18 -27 18 -28 -6 -47 -21 -17 -34 -19 -80 -14 -71 9 -156 47 -165 76
-4 12 -5 22 -3 23 35 18 43 28 46 56 4 36 2 36 50 15 20 -8 33 -11 27 -6 -5 5
-31 19 -56 30 l-46 20 11 -30 c10 -26 8 -32 -13 -49 -47 -38 -140 -15 -228 57
-44 36 -55 67 -28 78 8 3 20 17 27 31 13 30 26 30 96 6 28 -10 52 -16 52 -15
0 6 -75 41 -101 47 -21 6 -28 14 -33 47 -8 52 -23 52 -18 0 2 -22 0 -40 -5
-40 -5 0 -9 -10 -9 -22 1 -17 -9 -28 -34 -41 -85 -44 -350 15 -350 78 0 7 10
17 23 24 17 9 18 10 2 6 -65 -20 -125 -26 -178 -20 -70 7 -174 40 -199 63 -20
16 -24 42 -8 42 6 0 10 4 10 8 0 5 -28 0 -61 -12 -53 -17 -70 -18 -123 -9 -76
13 -152 48 -159 73 -4 14 9 27 54 55 33 20 67 47 75 61 14 20 25 24 68 24 41
1 47 3 33 11 -10 6 -34 8 -53 5 -31 -6 -34 -5 -34 17 0 14 -7 30 -15 37 -13
11 -14 10 -8 -5 5 -15 3 -17 -13 -11 -43 18 -56 15 -16 -4 23 -12 42 -24 42
-29 0 -17 -42 -60 -87 -90 -135 -90 -362 -108 -415 -33 -14 20 -14 20 -113 -4
-138 -33 -151 -32 -170 12 -8 20 -15 45 -15 55 0 26 59 89 98 106 19 8 32 16
29 19 -3 3 -20 -1 -39 -9 -19 -8 -58 -18 -86 -22 -28 -4 -59 -13 -69 -22 -17
-13 -16 -14 12 -8 17 3 38 8 48 11 21 6 21 -4 2 -30 -19 -26 -19 -63 1 -101
15 -30 15 -30 -22 -63 -47 -40 -193 -89 -194 -64 -1 4 -5 26 -9 50 -12 62 4
126 40 156 34 29 37 40 9 31 -16 -5 -20 -2 -20 15 0 26 32 90 57 112 35 32
113 59 186 65 71 6 72 6 55 -14 -27 -29 -22 -36 10 -13 56 42 175 45 245 7z
m-549 -78 c-9 -18 -17 -51 -18 -74 -1 -22 -10 -52 -19 -66 -26 -38 -32 -116
-14 -167 l15 -42 -57 -44 c-32 -25 -70 -61 -85 -81 -33 -42 -46 -37 -71 29
-13 34 -14 51 -5 90 14 64 24 83 74 135 26 27 33 39 19 32 -12 -6 -25 -16 -28
-21 -21 -34 -38 32 -23 87 11 40 57 94 103 123 29 18 113 41 123 34 2 -1 -4
-17 -14 -35z m535 -262 l34 -15 -24 -12 c-71 -38 -161 -142 -184 -215 -4 -11
5 0 20 25 35 60 99 125 162 166 43 28 62 34 105 34 48 0 132 16 181 35 11 5
17 2 17 -7 0 -7 -26 -29 -57 -48 -119 -71 -196 -175 -277 -379 -118 -292 -174
-354 -348 -386 -124 -23 -193 -50 -244 -97 -51 -47 -85 -126 -83 -196 l1 -47
8 50 c4 28 15 66 25 85 l18 35 10 -30 c27 -81 118 -184 183 -205 26 -9 34 -19
44 -55 14 -51 8 -100 -17 -127 -9 -10 -12 -18 -6 -18 36 0 59 85 40 153 l-7
27 55 0 c34 0 65 6 80 16 23 15 24 15 31 -10 3 -15 25 -54 47 -89 40 -60 41
-64 41 -147 0 -75 -4 -93 -32 -152 -43 -89 -112 -142 -217 -168 -30 -8 -30 -8
-3 -9 22 -1 31 -11 54 -56 24 -49 26 -63 20 -118 -18 -175 -166 -320 -340
-334 l-63 -6 -8 49 c-8 56 -40 138 -61 155 -21 17 -7 29 36 29 57 0 142 35
193 80 81 72 119 190 97 302 -14 75 -38 124 -77 159 -57 51 -67 53 -22 3 107
-117 110 -307 6 -429 -34 -41 -110 -81 -188 -100 -89 -20 -98 -19 -58 10 19
14 42 40 52 58 22 40 23 139 2 157 -12 10 -13 7 -4 -22 14 -49 1 -105 -34
-145 -45 -51 -98 -72 -182 -74 -60 -1 -66 -2 -40 -10 17 -6 64 -7 105 -4 75 6
76 6 98 -25 57 -77 69 -199 27 -285 -13 -27 -30 -57 -37 -66 -26 -32 -91 -69
-121 -69 -37 0 -26 -13 25 -29 51 -17 118 -79 153 -142 25 -47 30 -67 33 -152
l4 -98 -149 -152 c-145 -147 -277 -292 -319 -351 l-20 -28 -42 21 c-40 20 -92
77 -92 99 0 7 -4 12 -10 12 -5 0 -7 -7 -3 -17 6 -14 0 -15 -56 -10 -223 24
-358 247 -270 446 16 37 22 42 41 37 13 -3 34 -9 48 -12 23 -5 22 -3 -5 12
-104 57 -158 122 -194 231 -61 183 18 366 196 457 18 9 40 16 50 16 16 0 18 8
15 78 -3 60 1 90 18 135 24 64 81 142 135 183 l36 27 72 -22 c39 -11 83 -21
97 -20 14 0 -9 10 -50 22 -91 28 -100 32 -155 86 -73 71 -90 117 -89 246 1
173 41 251 172 338 52 35 179 87 223 91 4 1 22 21 40 46 49 64 105 90 196 90
73 0 84 -5 61 -28 -6 -6 -9 -15 -5 -18 10 -11 57 97 57 132 0 16 -11 73 -25
125 -28 107 -31 175 -11 271 22 102 61 171 138 243 50 48 77 66 105 70 21 4
48 10 61 15 22 10 32 -3 12 -15 -22 -13 -72 -99 -96 -162 -14 -38 -21 -63 -16
-58 5 6 17 31 26 58 22 60 88 147 160 213 51 48 59 51 108 52 29 0 85 9 123
19 67 18 71 18 90 2 11 -10 35 -24 54 -32z m2826 -1 c10 -21 46 -57 90 -90 95
-71 127 -113 133 -174 3 -41 0 -52 -23 -80 -15 -17 -40 -39 -55 -49 l-29 -17
44 -40 c73 -69 81 -164 20 -230 -23 -25 -24 -30 -14 -70 9 -38 8 -50 -9 -87
-26 -55 -40 -72 -78 -95 -17 -11 -44 -34 -59 -52 -15 -18 -40 -39 -56 -47 -32
-17 -115 -20 -124 -5 -4 6 -33 8 -74 4 -66 -6 -69 -6 -102 24 -32 29 -33 32
-19 56 8 13 29 49 47 78 41 68 63 153 63 238 -1 86 -25 140 -81 177 -38 25
-51 28 -125 28 l-83 0 6 30 c13 73 26 107 64 164 73 109 195 199 339 248 91
31 106 30 125 -11z m-2456 -41 c68 -35 150 -49 209 -36 42 9 48 7 67 -13 43
-46 217 -93 306 -83 38 5 51 3 55 -8 17 -44 165 -95 275 -95 69 0 78 -2 84
-20 15 -47 149 -129 213 -130 17 0 32 -4 32 -9 0 -5 12 -23 26 -40 18 -22 45
-37 95 -52 55 -17 75 -29 96 -56 l26 -34 -25 -52 c-52 -103 -67 -215 -44 -308
9 -35 24 -74 32 -87 14 -21 14 -26 1 -40 -31 -37 -28 -44 7 -17 30 23 152 63
161 53 2 -2 5 -23 6 -48 l4 -45 -42 -6 c-44 -5 -103 -45 -130 -86 -14 -21 -13
-21 25 -16 33 4 42 2 55 -17 12 -17 13 -28 5 -46 -6 -13 -16 -24 -21 -24 -6 0
-7 -3 -4 -7 13 -12 47 30 47 58 0 23 -8 32 -36 47 l-37 19 36 27 c19 15 51 30
71 33 l36 6 0 -66 c0 -138 -61 -229 -163 -242 -83 -11 -177 22 -177 62 0 19
-8 16 -43 -13 -46 -38 -124 -73 -202 -90 -202 -43 -501 -69 -690 -61 -163 7
-507 65 -637 106 -162 52 -231 110 -303 255 -31 63 -44 81 -42 61 2 -25 -3
-29 -33 -38 -83 -22 -190 11 -249 78 -33 38 -91 145 -91 169 0 37 132 116 193
116 20 0 77 -51 77 -69 0 -7 -11 -16 -24 -21 -35 -13 -46 -72 -19 -108 10 -14
26 -28 34 -30 8 -3 4 6 -9 21 -17 18 -23 34 -20 57 4 39 33 63 48 40 7 -11 10
-8 10 15 0 34 -33 95 -52 96 -7 0 18 7 56 15 90 20 119 35 177 96 l48 50 48
-9 48 -9 -43 -28 c-26 -18 -55 -29 -75 -28 -30 1 -31 0 -13 -14 11 -8 34 -14
51 -14 l31 0 -6 -55 c-5 -46 -3 -55 8 -53 17 3 24 15 46 79 9 25 23 54 31 65
13 18 14 16 15 -23 0 -45 9 -53 30 -28 15 18 71 20 88 3 34 -34 -8 -84 -62
-75 -31 5 -34 3 -39 -22 -12 -56 14 -117 52 -124 29 -6 252 20 288 34 37 14
63 82 63 166 0 60 3 71 15 67 9 -4 18 1 21 11 5 13 9 14 15 3 6 -9 9 -8 9 7 0
27 -35 102 -66 142 -20 27 -23 39 -19 75 5 35 4 39 -5 25 -8 -13 -18 -16 -33
-11 -12 4 -38 10 -57 13 -25 5 -36 13 -41 31 -6 22 -7 22 -8 4 -1 -17 -9 -23
-38 -28 -72 -11 -83 -9 -84 22 0 27 0 27 -12 -6 -9 -25 -24 -38 -64 -57 -51
-23 -52 -23 -69 -4 -22 24 -29 18 -13 -12 10 -19 9 -25 -7 -38 -11 -9 -26 -25
-34 -36 -8 -11 3 -4 23 14 29 27 40 32 49 23 17 -17 -46 -80 -89 -88 -19 -4
-36 -5 -38 -2 -2 2 10 32 26 68 17 35 44 98 59 141 68 185 140 294 246 373 42
31 77 56 79 56 2 0 26 -11 54 -25z m1749 -331 c-30 -16 -48 -43 -48 -71 0 -14
3 -13 13 6 19 37 61 65 89 58 35 -9 61 -61 59 -121 -1 -84 -59 -141 -141 -141
-74 0 -84 15 -82 120 1 48 7 95 13 106 14 27 68 59 99 59 l25 -1 -27 -15z
m352 -94 c58 -30 82 -70 88 -150 8 -121 -39 -250 -124 -335 -60 -60 -106 -79
-186 -80 -80 0 -111 18 -145 85 -28 55 -30 151 -5 225 14 41 24 53 54 67 48
23 85 73 94 126 6 36 13 46 43 62 49 26 130 26 181 0z m-564 -238 c1 -41 7
-81 18 -102 9 -19 13 -26 10 -15 -4 11 -9 55 -12 98 -4 74 -4 77 17 77 12 0
31 5 42 11 16 8 25 7 38 -5 10 -9 31 -19 48 -22 l31 -6 -19 -42 c-24 -55 -34
-142 -21 -188 8 -31 7 -39 -8 -53 -11 -10 -27 -36 -37 -60 -17 -41 -19 -43
-68 -48 -27 -3 -60 -8 -72 -12 -49 -16 -92 130 -73 248 19 119 56 199 88 191
15 -4 18 -16 18 -72z m-1540 -37 c14 -11 16 -15 4 -15 -12 0 -10 -4 4 -15 20
-15 20 -15 0 -15 -19 -1 -19 -1 0 -15 19 -15 19 -15 -5 -15 -21 -1 -22 -2 -6
-11 22 -13 23 -33 1 -25 -15 6 -15 4 -3 -10 12 -15 11 -16 -11 -9 -22 7 -23 6
-11 -8 11 -14 11 -19 -2 -32 -19 -18 -37 -20 -38 -2 0 6 -5 1 -11 -13 l-10
-25 -14 35 -14 35 3 -30 c2 -26 -1 -30 -26 -31 -15 -1 -30 3 -33 8 -3 4 -10 5
-16 2 -7 -5 -9 2 -4 22 6 27 5 28 -9 10 -24 -31 -27 -13 -3 20 20 28 25 30 68
26 42 -4 49 -1 73 28 18 21 27 43 27 66 0 38 7 41 36 19z m2721 -195 c73 -45
153 -119 153 -142 0 -5 -9 -21 -20 -36 -12 -16 -23 -51 -26 -82 -9 -75 -35
-115 -95 -142 -46 -21 -49 -25 -49 -60 0 -54 -27 -113 -64 -142 -42 -32 -124
-58 -167 -54 -30 3 -35 8 -45 45 -7 23 -31 78 -54 122 -43 83 -91 134 -228
244 -114 91 -137 144 -80 184 32 23 33 23 40 3 17 -45 106 -73 162 -51 11 4
33 0 56 -12 64 -31 150 0 195 70 11 17 32 34 46 37 15 3 37 19 50 35 13 16 29
30 34 30 6 1 47 -22 92 -49z m-985 -56 c18 -20 43 -40 56 -45 23 -9 24 -13 18
-62 -8 -59 -24 -119 -72 -262 -57 -174 -75 -298 -54 -380 6 -22 8 -9 9 48 1
102 21 193 77 363 29 86 48 165 52 207 5 65 5 67 32 67 26 0 27 -3 33 -58 8
-79 29 -133 86 -222 57 -89 71 -131 71 -223 0 -71 -23 -154 -66 -240 -29 -59
-15 -53 19 8 49 86 67 151 67 235 0 92 -18 148 -73 232 -20 30 -46 75 -57 100
-22 50 -38 162 -24 170 5 3 25 8 46 12 34 6 37 5 47 -27 12 -34 75 -100 171
-178 30 -24 69 -60 88 -79 47 -49 128 -220 142 -300 20 -119 54 -174 133 -220
27 -15 45 -30 40 -33 -5 -3 -24 -35 -42 -71 -37 -75 -63 -95 -132 -103 -39 -5
-54 -12 -70 -34 -42 -60 -160 -65 -229 -10 -46 36 -50 37 -50 11 0 -10 -17
-37 -37 -58 -45 -47 -113 -67 -178 -52 -46 10 -105 67 -105 101 0 21 -1 21
-20 -3 -45 -58 -194 -81 -262 -41 -50 29 -78 77 -78 135 0 27 4 58 10 68 9 16
6 18 -29 13 -55 -8 -97 17 -112 67 -11 35 -9 44 15 95 35 70 98 135 203 209
166 116 196 173 191 373 -2 117 -1 132 21 176 12 26 25 47 27 47 3 0 19 -16
36 -36z m-2134 -459 c65 -35 81 -64 81 -155 1 -64 -37 -155 -87 -207 -45 -49
-23 -40 25 10 57 58 83 117 83 194 0 34 -5 74 -10 89 -6 15 -9 28 -7 30 2 2
24 -3 48 -11 25 -9 124 -30 220 -48 171 -31 174 -32 177 -58 3 -25 0 -27 -61
-38 -127 -22 -257 -78 -341 -147 -133 -108 -181 -349 -117 -579 11 -38 19 -70
18 -71 -1 -1 -52 -31 -114 -67 -61 -36 -152 -93 -202 -126 l-91 -62 0 43 c0
63 -35 125 -89 159 -51 33 -111 52 -144 47 -14 -3 -1 -9 34 -16 115 -26 179
-96 179 -198 0 -48 -1 -50 -57 -94 -32 -24 -95 -75 -139 -112 -45 -37 -83 -68
-85 -68 -2 0 -3 35 -1 78 5 106 -22 178 -93 249 -29 29 -65 55 -79 59 -14 3
-26 9 -26 13 1 3 24 20 53 36 57 33 93 79 109 141 l12 42 70 4 c164 11 297
117 346 276 27 86 25 138 -5 198 -14 27 -25 52 -25 56 0 3 12 9 28 13 46 10
120 72 151 127 34 59 57 170 46 226 l-7 37 22 -20 c12 -11 47 -34 78 -50z
m1725 -32 c18 -9 58 -19 90 -22 l59 -6 -64 -47 c-129 -94 -207 -210 -193 -285
9 -49 50 -88 101 -96 39 -6 40 -7 36 -42 -10 -85 34 -162 106 -186 76 -25 197
-7 232 35 15 19 30 21 30 3 0 -24 58 -73 101 -86 90 -27 211 23 233 96 l10 31
38 -31 c52 -42 139 -50 193 -18 20 12 40 19 45 16 5 -3 16 -25 25 -50 17 -44
17 -128 0 -181 -6 -18 2 -26 48 -52 98 -55 151 -146 163 -280 8 -84 -14 -176
-57 -244 -51 -79 -162 -167 -195 -154 -11 4 -14 -7 -14 -52 0 -69 -21 -118
-83 -194 -83 -101 -211 -167 -359 -183 l-56 -6 -33 48 c-18 26 -61 85 -96 131
-35 45 -63 84 -63 87 0 2 21 -6 48 -17 72 -32 154 -30 219 6 29 16 62 40 75
54 18 21 13 19 -27 -10 -93 -66 -178 -74 -283 -28 -45 19 -69 42 -147 134
-103 123 -385 403 -512 510 -46 38 -83 70 -83 71 0 1 11 23 24 51 49 103 80
216 81 290 l0 72 30 -15 c17 -9 31 -17 33 -18 2 -2 -4 -17 -12 -34 -21 -39
-21 -134 0 -194 17 -51 75 -117 126 -143 17 -9 60 -19 95 -22 34 -2 60 -9 57
-13 -3 -5 -5 -36 -5 -69 -1 -65 29 -135 63 -146 10 -3 25 -17 32 -32 19 -35
70 -87 121 -121 70 -48 131 -66 225 -66 72 1 95 5 147 29 35 16 68 35 74 43 7
7 -10 2 -37 -12 -144 -74 -326 -47 -451 68 -48 43 -82 105 -83 145 0 14 -4 21
-11 16 -6 -3 -9 -17 -6 -31 6 -33 -12 -24 -35 18 -15 27 -18 50 -16 107 l3 72
-37 0 c-56 0 -140 36 -182 78 -59 58 -70 87 -71 179 0 69 3 86 23 112 27 37
27 41 2 34 -24 -6 -96 34 -140 79 -107 107 -87 269 52 415 68 72 43 62 -34
-13 -53 -52 -86 -113 -103 -189 l-11 -50 -19 48 c-31 82 -5 198 57 253 14 13
56 28 113 39 88 18 223 74 247 102 10 12 13 12 20 -1 5 -9 23 -23 41 -33z
m-463 -122 c-25 -35 -50 -104 -50 -137 l0 -24 -38 20 c-35 18 -101 35 -214 54
-36 7 -38 9 -38 45 l0 38 153 12 c83 7 154 15 156 17 2 2 15 4 28 4 l24 0 -21
-29z m-497 2 l137 -6 0 -47 c0 -27 6 -54 16 -66 13 -16 15 -16 10 -1 -7 21 -9
21 109 -2 117 -24 154 -44 180 -98 11 -22 27 -49 36 -59 9 -11 24 -44 33 -75
11 -40 30 -72 62 -108 75 -83 73 -128 -13 -361 -26 -69 -50 -129 -54 -135 -4
-5 -17 -61 -29 -124 -24 -130 -50 -204 -110 -317 -40 -75 -41 -82 -35 -140 5
-45 1 -84 -16 -155 -24 -102 -32 -119 -60 -119 -21 0 -29 12 -40 54 -7 30 -7
30 -8 5 -2 -56 -66 -48 -78 9 l-7 37 -6 -40 c-5 -38 -7 -40 -40 -40 -32 0 -36
4 -53 45 -17 44 -18 44 -13 10 2 -19 6 -42 8 -50 4 -20 -54 -26 -70 -7 -7 8
-16 36 -21 63 -8 41 -6 60 15 118 25 72 52 115 115 181 37 39 40 45 54 150 15
116 41 224 68 289 10 21 17 59 17 85 0 62 27 213 51 283 24 72 24 83 -1 37
-18 -35 -22 -37 -77 -41 -66 -4 -168 -48 -222 -95 l-34 -29 -46 46 c-53 53
-149 96 -237 106 -52 6 -55 9 -51 30 2 13 0 24 -4 24 -15 0 -10 -81 16 -283
13 -105 27 -261 30 -346 5 -149 7 -158 40 -231 42 -93 69 -202 62 -253 -4 -27
-16 -49 -41 -73 -31 -30 -39 -33 -57 -24 -19 11 -19 13 -5 35 24 37 19 42 -13
11 -37 -36 -87 -34 -83 2 2 21 1 22 -14 8 -22 -23 -62 -30 -90 -17 -21 9 -23
14 -14 31 14 26 -1 26 -18 0 -15 -24 -64 -27 -82 -5 -8 9 -10 25 -5 42 4 16 9
71 10 124 2 95 18 150 47 163 7 3 4 4 -6 3 -15 -2 -23 8 -33 43 -24 82 -35
174 -37 305 -1 94 -8 159 -25 235 -26 122 -31 277 -11 360 39 163 132 252 337
319 48 16 103 31 121 35 28 5 32 3 32 -16 0 -39 31 4 37 52 l6 42 36 -6 c20
-4 98 -9 174 -13z m-262 -641 c25 -9 56 -24 69 -32 l23 -16 -44 -23 c-43 -23
-46 -23 -92 -7 -26 9 -53 16 -60 15 -7 0 10 -8 38 -18 l50 -18 -50 -16 c-27
-10 -52 -14 -56 -10 -4 5 -11 41 -15 82 l-7 74 49 -7 c27 -3 70 -14 95 -24z
m489 3 c0 -7 -22 -105 -23 -105 -5 0 -125 39 -141 46 -13 5 -17 4 -13 -3 4 -6
39 -21 79 -33 l73 -22 -4 -50 -3 -50 -45 6 c-54 7 -205 66 -210 82 -4 12 99
81 152 102 17 7 50 16 75 21 60 12 60 12 60 6z m-320 -128 c0 -15 -123 -65
-200 -81 -81 -16 -90 -13 -90 35 0 24 6 28 63 43 35 10 86 30 113 46 l49 28
33 -31 c17 -17 32 -35 32 -40z m48 -25 c15 -10 35 -22 46 -25 27 -10 8 -28
-68 -66 -104 -51 -296 -91 -296 -62 0 5 -3 22 -6 39 -6 29 -5 30 37 37 72 11
171 43 214 69 50 30 42 29 73 8z m135 -56 c29 -8 64 -17 78 -20 24 -5 25 -8
19 -56 -4 -28 -11 -55 -17 -61 -13 -13 -64 0 -177 43 l-78 30 46 28 c26 14 52
32 58 38 15 15 10 15 71 -2z m-814 -78 c-1 -35 -4 -73 -7 -84 -4 -12 -61 -64
-127 -115 -168 -130 -397 -364 -450 -459 -11 -21 -1 -10 84 93 41 48 113 124
160 168 82 77 314 269 324 269 3 0 9 -26 12 -57 9 -70 30 -165 49 -219 12 -35
12 -43 -3 -69 -11 -22 -16 -53 -15 -111 l1 -81 -51 -12 c-110 -25 -305 -128
-416 -220 -27 -23 -61 -41 -85 -45 -119 -21 -230 -84 -288 -164 -41 -55 -77
-147 -77 -197 0 -25 -8 -37 -35 -57 -132 -94 -151 -313 -36 -399 21 -16 32
-34 36 -63 15 -95 49 -206 83 -271 71 -137 237 -272 377 -306 28 -6 64 -20 80
-29 17 -10 49 -24 73 -31 23 -7 42 -13 42 -15 0 -3 -70 -258 -74 -269 -5 -14
-174 -2 -265 19 -38 9 -105 29 -149 45 -218 81 -359 186 -423 317 l-31 62 52
108 c28 60 78 155 112 212 33 56 59 105 56 107 -13 13 -178 -273 -213 -367
-21 -56 -24 -56 -143 -33 -104 21 -247 92 -315 159 -55 53 -104 138 -113 198
-7 38 23 106 121 273 28 50 83 144 120 210 135 237 218 350 436 596 325 366
620 618 989 841 52 32 98 58 103 58 4 0 7 -28 6 -62z m692 -17 c35 -16 92 -37
127 -46 56 -16 63 -21 58 -39 -3 -12 -6 -24 -6 -27 0 -10 -77 -39 -101 -39
-11 0 -18 -4 -15 -8 7 -11 -103 -42 -149 -42 -34 0 -139 43 -202 84 -27 17
-33 28 -33 56 0 35 0 35 48 38 50 3 157 28 182 43 21 12 20 12 91 -20z m673
-93 c359 -323 579 -580 871 -1017 194 -290 335 -582 435 -896 l40 -125 -20
-53 c-83 -222 -370 -432 -634 -463 l-51 -6 -18 130 c-30 217 -112 494 -196
660 -17 34 -33 62 -35 62 -1 0 21 -60 50 -132 86 -214 159 -497 171 -653 l5
-70 -59 -46 c-132 -105 -327 -167 -593 -189 -133 -11 -311 1 -381 25 l-46 16
-7 147 c-3 81 -9 165 -12 188 l-6 41 68 11 c38 6 96 25 130 42 34 16 70 30 80
30 33 0 117 46 166 89 66 58 141 175 175 270 21 60 33 81 46 81 31 0 95 39
120 72 46 62 59 148 36 232 -12 43 -81 124 -113 132 -16 4 -29 27 -54 97 -19
51 -54 139 -79 196 -44 98 -45 104 -27 114 10 6 39 30 64 53 l45 42 -30 8
c-17 4 -60 20 -97 36 -37 15 -78 28 -92 28 -19 0 -52 27 -128 103 l-102 102
-3 80 c-2 44 -4 89 -4 100 0 11 22 62 50 113 28 51 58 115 67 142 9 28 19 50
23 50 4 0 36 -37 71 -82 197 -248 312 -422 427 -643 40 -77 73 -135 73 -130 0
20 -147 303 -210 403 -68 107 -203 291 -303 411 l-58 69 16 97 c15 96 20 115
32 115 3 0 47 -37 97 -82z m-836 -112 c1 -2 -8 -27 -22 -57 -23 -52 -50 -158
-43 -166 2 -2 9 16 16 39 7 24 24 73 39 109 l26 66 68 -1 68 -1 24 -65 c13
-36 31 -85 39 -110 9 -25 16 -37 16 -28 1 10 -13 61 -30 114 -17 53 -29 97
-27 98 4 3 118 46 140 53 15 4 16 1 9 -25 -5 -17 -15 -81 -22 -142 l-13 -111
-52 -54 c-29 -29 -62 -72 -74 -94 -21 -41 -21 -42 -68 -37 -26 3 -72 8 -103
11 l-57 6 -11 44 c-6 23 -27 76 -46 116 -34 72 -35 76 -35 196 l0 122 78 -40
c42 -23 78 -42 80 -43z m80 -423 l54 -6 -7 -36 c-4 -20 -8 -38 -10 -39 -2 -2
-42 -1 -89 3 l-86 7 0 39 0 39 43 0 c23 0 66 -3 95 -7z m-583 -50 c-4 -10 -10
-28 -12 -40 -4 -15 -17 -26 -42 -34 -137 -45 -306 -161 -467 -323 -103 -103
-214 -248 -214 -278 0 -9 3 -9 10 2 26 40 80 -47 80 -128 l0 -53 -28 16 c-15
9 -33 29 -40 44 -21 48 -86 65 -142 36 -99 -51 -74 -175 51 -255 l50 -33 -23
-16 c-16 -11 -45 -16 -96 -16 -73 0 -74 0 -112 41 -76 82 -79 198 -8 302 34
49 102 96 129 89 15 -4 34 16 91 96 86 124 251 289 373 375 100 71 264 156
340 177 67 18 68 18 60 -2z m72 -100 c15 3 37 -2 50 -10 15 -10 34 -13 58 -9
53 10 107 -25 126 -81 13 -39 3 -53 -37 -53 -27 0 -132 -53 -164 -83 -14 -13
-37 -38 -52 -55 l-27 -32 -71 12 c-64 11 -71 14 -66 33 3 11 11 48 18 83 13
71 6 85 -42 80 -19 -2 -28 -13 -40 -45 l-16 -43 -24 18 c-14 9 -50 19 -80 22
l-55 5 85 57 c75 49 149 88 169 88 4 0 12 -13 18 -30 9 -24 17 -30 41 -30 41
0 58 23 43 56 -17 38 -13 46 14 28 15 -10 36 -14 52 -11z m1093 -80 c135 -143
221 -288 310 -523 67 -174 62 -163 70 -150 11 18 79 -47 101 -95 36 -78 20
-196 -34 -253 -65 -70 -179 -72 -241 -4 -19 22 -14 42 11 42 9 0 49 16 88 35
59 28 75 41 84 67 32 91 -101 178 -166 109 -10 -11 -31 -24 -46 -30 -23 -9
-27 -8 -27 7 1 59 91 163 112 129 24 -38 1 42 -47 165 -82 208 -158 328 -289
458 -68 66 -74 81 -55 124 16 34 28 26 129 -81z m-716 31 l9 -32 32 34 c29 30
38 34 84 34 42 0 51 -3 51 -18 0 -10 7 -28 16 -40 13 -19 13 -26 3 -38 -33
-40 -130 -59 -157 -32 -9 9 -12 2 -12 -35 0 -45 -1 -47 -29 -47 -32 0 -30 -5
-51 119 -13 75 -8 94 22 89 16 -2 26 -13 32 -34z m476 -44 c0 -17 53 -21 77
-5 24 16 26 16 54 -11 27 -26 28 -29 13 -45 -12 -13 -15 -28 -10 -52 l6 -34
-87 -12 c-60 -7 -107 -20 -148 -40 l-59 -30 -56 53 c-31 30 -76 64 -100 76
l-44 22 34 14 c18 8 44 25 58 39 24 25 47 30 109 26 18 -1 39 1 47 6 18 10
106 4 106 -7z m-1028 -45 c3 -3 -5 -51 -16 -106 -23 -106 -42 -137 -75 -119
-13 6 -16 18 -13 46 4 36 4 37 -12 21 -37 -36 -141 -48 -203 -22 -66 28 -66
31 -7 87 64 60 118 73 184 43 33 -15 58 -41 48 -50 -2 -2 -29 2 -60 8 -38 7
-71 7 -100 0 -41 -9 -39 -10 39 -11 46 -1 92 -6 103 -12 22 -12 27 -4 50 79 9
33 15 41 34 41 12 0 25 -2 28 -5z m1259 -76 c26 -33 29 -43 18 -50 -11 -7 -9
-9 7 -9 14 0 31 -14 48 -40 26 -39 26 -40 5 -40 -35 0 -88 30 -92 53 -2 12 -5
3 -6 -21 -1 -44 -22 -65 -43 -44 -10 10 -20 190 -11 205 7 12 40 -11 74 -54z
m-1751 -1 c-71 -68 -144 -156 -198 -240 -35 -53 -49 -67 -74 -70 l-30 -5 6 44
c18 135 120 250 267 303 83 30 88 24 29 -32z m994 12 c10 -31 15 -35 46 -35
31 0 36 4 45 33 11 39 25 38 113 -4 96 -47 202 -178 202 -251 0 -21 -5 -23
-56 -23 -30 0 -74 -5 -97 -11 -37 -9 -53 -7 -119 15 -87 29 -149 32 -228 11
-53 -14 -55 -13 -70 8 -42 61 -73 88 -96 83 -22 -6 -93 30 -94 47 -1 17 98
104 144 126 62 31 100 40 155 38 40 -2 44 -4 55 -37z m664 -115 c4 -54 12 -65
55 -65 21 0 27 5 27 21 0 16 4 19 18 14 9 -4 37 -12 62 -19 39 -10 48 -17 72
-61 15 -27 49 -104 74 -169 35 -90 44 -121 34 -124 -34 -12 -83 -71 -100 -122
-19 -57 -32 -67 -90 -69 -24 -1 -25 1 -25 72 0 57 -6 84 -27 129 l-26 56 48
21 48 21 -41 45 c-48 51 -98 75 -157 75 -36 0 -41 2 -35 19 4 14 0 23 -14 30
-32 18 -49 13 -68 -20 -16 -27 -21 -30 -53 -24 -19 4 -36 8 -38 9 -1 2 -9 25
-16 52 -8 27 -17 59 -21 72 -7 19 -1 25 47 47 56 26 142 44 193 42 29 -2 30
-4 33 -52z m-1535 -49 c-73 -48 -129 -127 -153 -215 l-12 -44 -18 31 c-10 17
-26 35 -36 40 -15 8 -12 17 31 73 26 35 75 92 108 125 l59 62 32 -22 32 -21
-43 -29z m447 38 c65 -14 110 -45 134 -95 l23 -49 -36 0 c-20 0 -50 -9 -68
-19 -33 -20 -77 -87 -88 -133 -6 -23 -3 -27 27 -33 70 -14 67 -11 52 -62 -8
-25 -14 -60 -14 -77 0 -30 20 -119 36 -160 6 -17 3 -18 -47 -11 -166 21 -366
80 -527 155 l-92 43 0 47 c0 117 43 230 114 298 56 54 110 82 149 76 18 -3 56
1 85 9 52 14 52 14 52 -9 0 -17 7 -25 27 -30 31 -8 54 4 71 39 13 26 25 27
102 11z m207 -86 c29 -34 113 -158 113 -168 0 -5 -10 -15 -22 -21 -19 -10 -25
-8 -42 14 l-21 26 -17 -30 c-25 -43 -78 -62 -160 -57 -37 2 -70 7 -75 11 -11
11 33 89 68 123 26 25 38 29 88 29 50 -1 56 1 44 14 -26 26 -45 60 -38 71 11
17 40 11 62 -12z m787 -34 c21 -8 20 -24 -4 -54 -25 -32 -26 -48 -2 -27 48 43
141 28 206 -34 34 -33 38 -42 26 -49 -28 -19 -114 -40 -158 -40 -37 0 -50 6
-77 33 -32 32 -34 33 -49 15 -18 -21 -39 -23 -54 -5 -7 9 4 33 41 90 29 42 53
77 54 77 1 0 8 -3 17 -6z m-430 -47 l40 -18 -40 -32 c-108 -88 -139 -148 -139
-267 0 -82 2 -89 43 -174 4 -8 -327 1 -360 10 -29 9 -62 133 -54 206 3 33 10
67 15 75 5 9 33 23 62 30 30 8 66 26 81 40 22 21 31 24 40 15 18 -18 53 -14
73 8 17 19 17 21 -10 60 -15 22 -26 42 -24 45 30 29 208 31 273 2z m343 -11
c2 -2 -8 -23 -23 -46 -21 -32 -25 -46 -17 -58 12 -20 61 -28 76 -13 8 8 17 5
33 -10 27 -26 87 -40 135 -33 35 6 36 5 58 -46 27 -64 40 -193 21 -205 -38
-23 -379 -64 -570 -67 l-125 -3 -27 54 c-84 165 21 369 220 427 43 12 207 13
219 0z m-1619 -169 c6 -5 12 -15 12 -22 0 -41 207 -152 402 -216 67 -22 173
-49 237 -60 165 -28 518 -42 756 -29 328 18 725 92 725 136 0 15 23 24 62 24
57 0 109 -82 80 -126 -27 -41 -226 -108 -457 -153 -309 -61 -718 -74 -1018
-33 -503 69 -878 208 -953 353 -19 39 -18 62 8 94 38 49 106 64 146 32z m-73
-347 c11 -10 45 -31 75 -46 30 -15 56 -28 58 -29 6 -5 32 -139 28 -143 -7 -6
-109 46 -157 80 -87 62 -120 97 -126 132 l-5 33 53 -5 c32 -2 62 -12 74 -22z
m252 -5 c52 -20 134 -46 181 -59 l87 -23 3 -46 3 -47 -53 0 c-59 0 -133 17
-218 49 -82 32 -102 53 -108 111 -2 28 -1 50 3 50 4 0 50 -16 102 -35z m-182
-190 c28 -13 62 -26 77 -30 21 -5 29 -18 47 -71 26 -78 26 -73 -1 -67 -80 18
-150 48 -200 88 -59 46 -66 59 -94 179 -6 27 -5 27 57 -23 35 -29 87 -63 114
-76z m647 71 c84 -14 167 -27 183 -28 25 -3 30 -8 33 -34 3 -31 2 -31 -50 -37
-92 -12 -162 -8 -244 13 -43 11 -82 24 -87 29 -5 5 -11 28 -14 51 -5 37 -4 42
10 37 9 -3 85 -17 169 -31z m1334 18 c-3 -9 -6 -28 -6 -43 0 -23 -7 -29 -47
-44 -60 -21 -179 -39 -230 -35 -36 3 -38 5 -41 41 -2 20 0 37 5 38 4 0 69 13
143 29 165 34 184 35 176 14z m-1854 -13 c56 -33 184 -71 261 -77 l74 -7 12
-49 c6 -27 11 -54 11 -59 0 -14 -97 -11 -166 6 -64 15 -156 53 -187 77 -16 12
-53 128 -42 128 2 0 19 -9 37 -19z m2085 -34 c2 -3 1 -16 -2 -30 -6 -21 -22
-32 -78 -56 -40 -16 -89 -32 -109 -36 -37 -7 -38 -6 -38 21 0 54 11 74 39 75
14 0 46 9 71 19 39 16 103 20 117 7z m-569 -39 l-3 -43 -80 -17 c-96 -20 -152
-22 -210 -7 -38 9 -44 15 -48 42 -2 18 -3 33 -2 35 1 2 61 7 131 13 71 5 138
11 149 13 63 11 66 9 63 -36z m-506 15 l146 -6 4 -29 c3 -16 2 -31 -2 -33 -3
-2 -36 -9 -72 -15 -51 -9 -89 -9 -160 0 -126 17 -165 33 -170 72 l-5 30 56 -6
c31 -3 122 -9 203 -13z m838 -25 c0 -7 -3 -29 -6 -50 -6 -33 -12 -39 -63 -62
-70 -31 -131 -45 -199 -46 l-52 0 2 60 3 60 66 0 c77 0 174 16 209 36 32 17
40 17 40 2z m-1395 -24 c44 -12 90 -15 172 -12 l113 4 6 -32 c13 -71 7 -78
-76 -87 -76 -9 -211 2 -261 22 -21 8 -29 21 -42 71 l-15 62 21 -6 c12 -4 49
-14 82 -22z m1596 -42 c-12 -25 -36 -49 -63 -65 -42 -24 -148 -61 -155 -53 -2
2 2 24 9 50 11 41 15 46 40 46 29 0 157 45 172 60 19 19 17 1 -3 -38z m-1061
-6 c63 -1 130 3 148 7 l33 9 -3 -43 c-3 -41 -5 -44 -43 -55 -78 -24 -333 -13
-349 15 -2 3 -7 29 -11 57 l-7 51 59 -20 c44 -15 85 -20 173 -21z m-810 -42
c36 -10 93 -17 127 -17 l63 -1 21 -55 c24 -66 78 -178 102 -211 34 -48 25 -53
-70 -47 -99 6 -209 41 -250 79 -20 17 -25 19 -20 6 5 -16 -1 -15 -57 6 -61 23
-171 86 -151 86 6 0 28 -7 50 -14 22 -8 57 -16 78 -19 21 -3 44 -13 52 -23 7
-11 17 -19 22 -19 4 -1 33 -10 63 -22 70 -27 156 -37 212 -27 38 7 31 9 -62
15 -135 8 -206 39 -262 114 -20 27 -36 51 -34 52 2 2 23 -8 47 -21 83 -47 228
-70 284 -46 13 6 -9 9 -66 9 -101 1 -170 19 -235 64 -40 26 -52 43 -71 92 -13
32 -23 62 -23 65 0 4 26 -6 58 -22 31 -15 86 -35 122 -44z m1338 16 c-3 -28
-8 -53 -11 -56 -3 -4 -40 -11 -81 -17 -75 -11 -209 1 -226 20 -4 4 -10 27 -13
51 -5 38 -3 43 11 36 32 -14 186 -14 247 0 33 7 64 14 69 15 5 0 6 -22 4 -49z
m-1643 -38 c22 -11 68 -26 102 -32 44 -9 64 -18 68 -30 3 -10 17 -35 31 -56
l25 -37 -41 7 c-58 9 -150 42 -180 64 -25 19 -109 130 -110 145 0 4 15 -3 33
-16 17 -14 50 -34 72 -45z m1944 -20 c-10 -35 -19 -44 -60 -62 -59 -25 -134
-40 -201 -40 l-49 0 7 38 c3 20 9 40 13 43 3 4 44 9 91 11 60 3 103 12 145 30
33 13 61 23 63 22 2 -1 -2 -20 -9 -42z m-1329 -3 c56 -11 222 -8 251 5 12 5
17 -4 25 -48 9 -47 8 -56 -5 -62 -9 -4 -79 -9 -156 -11 -108 -4 -144 -2 -156
9 -9 7 -26 39 -38 72 l-22 59 23 -7 c13 -4 48 -11 78 -17z m673 -90 c-22 -22
-140 -41 -218 -36 -132 10 -165 31 -165 104 0 20 4 24 18 18 73 -29 265 -30
332 -3 l35 15 3 -45 c2 -25 0 -48 -5 -53z m187 62 c47 0 102 3 123 8 l38 9 -7
-31 c-3 -18 -10 -40 -15 -49 -20 -37 -203 -49 -272 -17 -24 11 -27 18 -27 59
l0 48 38 -14 c20 -7 75 -13 122 -13z m431 -70 c-15 -28 -32 -43 -68 -59 -73
-31 -233 -56 -233 -36 0 4 5 24 11 44 l11 37 97 5 c68 4 109 11 141 26 62 28
63 27 41 -17z m-987 -63 c11 -39 12 -54 4 -59 -18 -12 -174 -22 -218 -15 -66
10 -88 24 -109 65 l-20 39 102 -4 c67 -3 123 0 162 9 33 8 61 15 62 16 1 0 8
-22 17 -51z m180 22 c45 0 106 6 136 14 30 8 57 13 59 11 2 -2 0 -24 -3 -48
-5 -35 -13 -47 -34 -57 -31 -15 -213 -26 -264 -16 -31 6 -36 11 -51 59 -9 30
-17 56 -17 59 0 4 21 0 47 -8 25 -8 83 -14 127 -14z m249 15 c42 -17 191 -21
231 -5 29 11 31 6 15 -38 -9 -27 -17 -32 -67 -43 -57 -11 -189 -8 -210 5 -11
6 -18 96 -8 96 2 0 20 -7 39 -15z m517 -55 c-16 -29 -69 -65 -125 -84 -64 -21
-148 -31 -168 -20 -14 8 -14 13 4 40 19 30 22 31 107 37 52 3 107 13 137 25
28 11 51 20 53 21 1 1 -2 -8 -8 -19z m-430 -52 c47 0 97 5 113 11 32 12 33 9
10 -30 -11 -18 -33 -34 -62 -44 -46 -16 -177 -20 -198 -7 -7 5 -10 22 -6 49 5
40 6 41 32 31 14 -6 64 -11 111 -10z m-481 -29 c6 -18 11 -38 11 -44 0 -19
-122 -24 -200 -9 -83 16 -96 21 -113 47 l-14 22 111 -3 c61 -2 127 1 146 6 19
6 38 11 42 11 3 1 11 -13 17 -30z m325 4 c-4 -16 -11 -33 -16 -40 -23 -29
-199 -41 -260 -18 -12 5 -38 52 -38 69 0 1 35 -1 78 -6 71 -6 196 3 210 16 3
3 11 6 19 6 10 0 12 -8 7 -27z m282 -41 c15 -10 34 -168 34 -289 l0 -100 -57
-26 c-113 -50 -199 -62 -428 -62 -228 0 -296 8 -459 57 -114 34 -165 57 -223
104 l-41 34 35 139 36 138 111 -2 c69 -2 129 -9 160 -19 50 -16 178 -20 225
-7 14 4 56 0 94 -7 57 -12 81 -12 131 -2 34 7 111 12 171 11 90 -1 117 2 150
18 47 23 47 23 61 13z"/>
<path d="M2555 6740 c156 -36 396 -112 555 -178 135 -55 355 -168 462 -238 54
-35 98 -61 98 -59 0 3 -55 42 -122 86 -201 133 -414 232 -680 317 -128 41
-340 93 -374 91 -11 0 17 -9 61 -19z"/>
<path d="M3724 6708 c148 -99 309 -293 391 -471 61 -133 110 -321 116 -451 2
-26 7 -50 12 -53 11 -6 1 114 -19 224 -38 216 -146 430 -300 595 -58 63 -144
133 -188 154 -17 8 -22 9 -12 2z"/>
<path d="M1022 3293 c52 -107 47 -203 -14 -277 -51 -62 -98 -81 -208 -81 -52
0 -111 3 -130 7 l-35 7 30 -14 c17 -8 42 -14 56 -15 18 0 35 -11 54 -36 41
-54 122 -88 191 -81 29 3 61 11 71 17 15 9 14 10 -7 4 -74 -21 -214 17 -239
65 -11 19 -9 21 22 21 95 0 201 60 237 135 40 83 20 236 -39 289 -12 11 -9 -1
11 -41z"/>
<path d="M3442 5485 c-7 -16 -14 -35 -17 -41 -2 -7 -20 -14 -40 -16 -28 -3
-40 0 -51 16 -14 20 -14 20 -14 -7 0 -16 -6 -27 -13 -27 -7 0 -22 -7 -33 -15
-18 -14 -17 -14 9 -5 36 13 37 13 37 -3 0 -7 -16 -27 -35 -46 -33 -31 -44 -51
-27 -51 4 0 27 14 51 30 51 35 84 42 59 13 -15 -18 -58 -97 -58 -108 0 -3 11
-5 24 -5 34 0 79 -40 71 -63 -8 -20 -83 -25 -102 -6 -18 18 -31 2 -44 -56 -9
-39 -9 -62 -2 -78 13 -29 108 -80 189 -103 79 -22 124 -13 174 33 50 45 76 86
95 154 l15 54 -4 -75 c-3 -41 -8 -85 -12 -98 -6 -20 -4 -21 17 -14 13 5 33 26
44 48 17 31 29 40 65 49 l45 11 -38 8 c-39 7 -45 14 -49 55 -3 21 4 28 42 42
37 15 40 18 19 18 -38 1 -89 21 -89 34 1 15 27 46 64 75 34 26 31 27 -17 7
-41 -17 -103 -20 -112 -6 -5 9 4 26 45 93 6 9 -12 2 -40 -17 -51 -34 -51 -34
-85 -18 -42 20 -50 48 -9 33 14 -6 34 -15 45 -20 10 -6 19 -8 19 -5 0 3 -20
15 -45 26 -49 22 -50 24 -35 65 16 41 3 41 -16 0 -18 -37 -25 -40 -86 -30 -34
6 -37 10 -40 43 l-4 36 -12 -30z m236 -346 c-1 -24 -4 -27 -20 -18 -23 12 -24
1 0 -18 16 -13 15 -14 -8 -9 -22 4 -23 4 -7 -8 9 -7 17 -16 17 -20 0 -12 -23
-6 -44 11 -12 10 -15 11 -8 3 14 -17 16 -34 2 -25 -6 3 -7 -1 -3 -10 5 -13 7
-14 14 -3 5 7 9 9 9 3 0 -5 -5 -17 -10 -25 -9 -13 -13 -11 -30 10 l-20 25 10
-28 c13 -37 2 -56 -18 -31 -14 18 -14 18 -9 -3 5 -24 -8 -32 -16 -10 -3 7 -6
5 -6 -5 -2 -32 -21 -19 -23 15 l-1 32 -4 -32 c-4 -35 -22 -46 -24 -15 -1 16
-2 16 -6 0 -8 -30 -26 -20 -21 12 6 38 -7 39 -18 3 -6 -23 -8 -25 -12 -9 -3
15 -6 16 -13 5 -6 -11 -11 -11 -20 -2 -10 10 -8 18 12 40 l24 27 -32 -23 c-32
-21 -45 -17 -22 6 9 9 7 10 -10 6 -11 -3 -21 -1 -21 5 0 6 8 13 18 15 13 4 11
5 -5 6 -40 2 -25 18 24 26 43 6 48 5 70 -24 27 -34 50 -38 91 -17 37 20 68 55
87 99 14 33 17 36 34 25 12 -7 19 -23 19 -39z"/>
<path d="M4949 7127 c-86 -32 -166 -104 -190 -171 -22 -60 -32 -43 -26 40 6
68 5 75 -11 72 -24 -5 -29 -113 -8 -176 9 -25 16 -47 16 -48 0 -1 -21 -13 -47
-25 -161 -78 -214 -244 -134 -415 98 -208 321 -286 529 -183 161 79 256 259
222 420 -26 120 -134 251 -232 281 -21 6 -38 15 -38 19 0 22 70 158 86 167 11
6 15 14 11 18 -14 15 -140 15 -178 1z m131 -13 c0 -3 -6 -18 -14 -32 -8 -15
-31 -62 -51 -105 -40 -83 -82 -128 -149 -158 -50 -23 -106 -25 -106 -5 0 19
70 106 116 144 21 18 35 32 30 32 -18 0 -78 -53 -118 -103 l-41 -52 7 45 c19
122 156 240 279 240 26 0 47 -3 47 -6z m3 -224 c57 -27 129 -102 164 -170 25
-48 28 -66 28 -145 0 -77 -4 -98 -27 -147 -37 -80 -105 -149 -186 -189 -63
-32 -73 -34 -167 -34 -86 0 -107 3 -150 25 -67 32 -135 102 -170 173 -36 76
-46 186 -21 251 20 52 83 117 137 141 36 17 40 17 57 2 43 -39 161 0 224 73
38 45 53 47 111 20z"/>
<path d="M502 6131 c-52 -13 -60 -27 -30 -50 23 -18 105 -159 96 -165 -1 -2
-27 -16 -57 -32 -63 -34 -122 -98 -162 -175 -114 -227 3 -489 259 -581 81 -29
207 -28 285 2 110 42 195 129 239 245 32 84 33 231 1 290 -30 57 -99 118 -172
151 -52 24 -61 32 -56 49 27 94 24 202 -6 221 -22 13 -30 -12 -19 -58 6 -24
10 -60 8 -79 l-3 -34 -18 37 c-26 52 -108 125 -172 154 -62 27 -143 37 -193
25z m193 -51 c76 -36 146 -110 169 -177 25 -72 20 -76 -31 -21 -50 53 -133
115 -133 100 0 -5 18 -22 41 -37 51 -36 141 -134 133 -146 -9 -15 -88 -10
-130 7 -72 30 -119 79 -183 190 -34 58 -61 108 -61 110 0 2 30 4 66 4 53 0 79
-6 129 -30z m-67 -226 c71 -77 207 -111 257 -64 l24 23 55 -27 c131 -64 194
-186 166 -323 -28 -137 -111 -246 -228 -301 -50 -24 -69 -27 -152 -27 -74 1
-107 6 -150 23 -169 68 -282 236 -267 399 12 127 109 274 209 318 46 20 49 19
86 -21z"/>
<path d="M4906 2722 c-3 -5 1 -15 9 -22 12 -10 55 -130 55 -154 0 -3 -8 -6
-18 -6 -35 0 -140 -61 -180 -104 -73 -79 -87 -117 -87 -231 0 -90 3 -105 28
-153 39 -75 106 -138 185 -175 58 -27 78 -32 147 -32 71 0 88 4 147 33 147 72
234 255 184 386 -17 45 -69 107 -121 143 -30 21 -30 22 -13 51 27 45 42 126
28 152 -18 33 -30 13 -30 -50 0 -72 -12 -83 -28 -26 -14 52 -89 139 -145 168
-45 23 -151 36 -161 20z m150 -38 c86 -41 154 -144 154 -233 l0 -36 -25 42
c-28 50 -86 123 -98 123 -5 0 7 -19 26 -42 49 -62 73 -100 82 -127 7 -23 6
-24 -28 -18 -47 7 -110 50 -140 95 -13 20 -37 79 -54 131 l-30 93 37 -5 c20
-2 55 -13 76 -23z m-61 -186 c11 -34 80 -94 129 -113 43 -16 47 -16 71 -1 23
15 27 15 53 -1 138 -87 157 -242 49 -389 -79 -108 -210 -155 -333 -120 -200
57 -312 259 -243 441 38 102 158 201 246 204 14 1 24 -7 28 -21z"/>
<path d="M700 1080 c0 -5 14 -31 30 -57 17 -26 30 -50 30 -54 0 -4 -31 9 -69
28 -60 31 -79 36 -140 36 -57 0 -81 -5 -128 -29 -58 -29 -83 -64 -46 -64 10 0
46 -22 80 -49 61 -48 62 -49 42 -67 -36 -33 -79 -135 -85 -205 -22 -235 193
-424 432 -380 37 7 85 21 107 32 65 34 132 103 163 172 25 54 29 73 28 152 -1
76 -5 99 -28 147 -48 102 -141 158 -262 158 l-52 0 -7 38 c-10 55 -45 131 -66
142 -22 13 -29 12 -29 0z m-30 -92 c45 -19 94 -59 111 -90 8 -14 0 -13 -44 7
-30 14 -76 27 -103 30 -46 5 -44 4 27 -18 42 -13 91 -32 109 -44 l33 -21 -31
-16 c-19 -10 -56 -16 -95 -16 -73 0 -133 25 -211 90 -26 22 -52 40 -57 40 -17
0 -9 20 15 36 56 36 165 37 246 2z m305 -134 c53 -22 108 -82 128 -142 26 -73
21 -209 -11 -273 -32 -65 -87 -117 -161 -152 -163 -77 -383 -7 -459 146 -59
118 -42 272 40 369 l23 27 60 -20 c52 -19 67 -20 118 -11 65 12 85 24 98 60 9
23 12 24 69 18 33 -4 76 -14 95 -22z"/>
</g>
</svg>
