<?xml version="1.0" standalone="no"?>
<!DOCTYPE svg PUBLIC "-//W3C//DTD SVG 20010904//EN"
 "http://www.w3.org/TR/2001/REC-SVG-20010904/DTD/svg10.dtd">
<svg version="1.0" xmlns="http://www.w3.org/2000/svg"
 width="700.000000pt" height="700.000000pt" viewBox="0 0 700.000000 700.000000"
 preserveAspectRatio="xMidYMid meet">
<metadata>
Created by potrace 1.16, written by Peter Selinger 2001-2019
</metadata>
<g transform="translate(0.000000,700.000000) scale(0.100000,-0.100000)"
fill="#000000" stroke="none">
<path d="M3301 5267 c-34 -18 -63 -36 -62 -40 1 -4 1 -14 1 -22 0 -13 4 -13
26 2 l27 17 -7 -47 c-5 -33 -2 -63 10 -102 10 -30 19 -53 21 -51 3 2 -1 22 -8
44 -6 22 -9 52 -5 66 7 29 42 69 71 80 36 14 123 17 131 4 9 -15 16 -59 18
-120 2 -74 20 -26 20 54 1 38 2 68 3 68 12 0 32 -66 28 -87 -5 -25 -4 -26 7
-9 36 52 51 65 76 68 24 3 22 5 -18 17 l-45 14 35 11 35 11 -45 3 c-43 3 -80
21 -50 23 20 2 -72 17 -145 24 -54 5 -66 3 -124 -28z"/>
<path d="M2670 5253 c-8 -2 -24 -8 -35 -13 -11 -5 -38 -14 -60 -21 -38 -12
-39 -12 -15 -21 l25 -9 -24 -20 c-38 -31 -66 -33 -103 -9 l-33 22 30 -26 c16
-14 45 -26 65 -28 l35 -3 -30 -18 -30 -18 32 5 c26 4 38 0 59 -22 22 -22 24
-23 15 -5 -14 28 -14 56 0 87 20 42 38 40 32 -4 -7 -54 3 -102 32 -144 13 -20
21 -36 17 -36 -4 0 0 -5 8 -10 18 -12 120 -13 120 -2 0 5 -13 7 -30 4 -49 -7
-78 6 -106 48 -35 52 -27 99 24 151 34 34 41 36 90 34 29 -1 55 -5 58 -8 3 -3
14 -38 25 -79 l19 -73 -5 68 c-4 67 0 78 23 55 7 -7 12 -8 12 -2 0 21 -77 83
-115 93 -41 11 -108 13 -135 4z"/>
<path d="M3466 4689 c-21 -11 -75 -34 -120 -51 -200 -76 -219 -79 -341 -53
-90 19 -96 19 -88 -2 5 -15 3 -16 -8 -5 -23 21 -31 13 -9 -10 11 -12 19 -27
19 -32 -3 -25 2 -36 16 -36 8 0 15 -5 15 -10 0 -7 6 -7 20 0 14 7 20 21 20 45
0 34 0 34 28 19 42 -22 82 -17 189 21 54 19 99 35 101 35 1 0 2 -14 2 -30 0
-38 34 -72 88 -88 49 -15 136 -16 127 -2 -9 15 6 12 19 -4 6 -7 28 -16 50 -19
46 -7 41 2 -6 12 -29 6 -35 13 -50 58 -10 29 -21 79 -25 113 l-8 60 -39 -21z"/>
<path d="M3607 4003 c-3 -10 -17 -45 -32 -78 -46 -108 -47 -121 -24 -215 3
-11 87 -60 104 -60 2 0 4 14 7 49 1 11 5 18 9 15 13 -8 20 35 9 55 -9 17 -8
20 5 15 18 -7 18 -4 5 32 -9 24 -9 25 5 14 24 -20 18 -1 -34 98 -35 67 -50 88
-54 75z"/>
<path d="M3330 3453 c-25 -15 -49 -31 -55 -35 -5 -4 -46 -37 -90 -72 -44 -34
-102 -86 -128 -115 -50 -53 -70 -59 -97 -26 -17 21 -33 19 -22 -2 5 -10 13
-49 17 -88 7 -61 9 -67 18 -45 32 78 44 99 76 139 36 44 204 191 220 191 11 0
46 -41 64 -74 14 -29 15 -29 14 36 -1 46 4 74 16 92 10 14 16 26 15 26 -2 0
-23 -12 -48 -27z"/>
<path d="M4006 3188 c20 -38 234 -264 301 -318 39 -31 111 -81 160 -110 264
-158 372 -247 489 -402 41 -54 77 -98 80 -98 13 0 -99 145 -169 219 -46 48
-49 55 -38 75 13 20 12 20 -4 4 -17 -15 -21 -14 -79 31 -33 25 -73 54 -88 64
-24 15 -28 24 -30 70 l-1 52 -6 -47 -6 -47 -95 58 c-86 52 -95 60 -94 87 1 19
0 22 -3 7 -2 -13 -8 -23 -12 -23 -16 0 -92 61 -86 70 3 5 0 12 -6 16 -8 4 -9
3 -5 -4 4 -7 4 -12 -1 -12 -7 0 -197 193 -276 280 -22 25 -36 37 -31 28z"/>
<path d="M1411 2797 c-104 -211 -220 -468 -322 -715 -81 -194 -140 -453 -138
-600 l2 -87 8 100 c11 129 52 332 91 453 16 53 66 177 110 276 44 100 92 213
108 251 16 39 81 177 145 309 64 131 115 240 113 242 -2 2 -55 -101 -117 -229z"/>
<path d="M3171 2773 c-14 -3 -74 -22 -134 -44 -60 -21 -119 -39 -131 -39 -12
0 -58 18 -101 40 -64 33 -88 40 -129 38 -49 -1 -49 -2 -10 -5 52 -5 63 -27 71
-139 5 -66 2 -90 -11 -118 -16 -34 -36 -48 -36 -25 0 34 -166 52 -225 24 -23
-11 -24 -13 -5 -7 14 4 62 7 107 7 71 0 85 -3 105 -22 31 -30 35 -29 58 10 16
26 20 50 20 134 0 56 4 104 8 107 5 3 35 -9 68 -25 70 -36 100 -35 218 11 74
30 79 30 97 14 11 -10 19 -32 20 -53 1 -30 3 -25 13 24 l11 60 82 0 c72 0 84
-3 107 -24 14 -14 26 -30 26 -38 0 -7 4 -13 9 -13 16 0 0 37 -26 62 -21 20
-36 23 -106 25 -45 0 -93 -1 -106 -4z"/>
<path d="M2596 1530 c10 -61 74 -272 111 -365 55 -138 136 -301 196 -397 63
-99 205 -296 221 -305 6 -4 -2 11 -18 32 -62 81 -179 253 -218 317 -50 84 -62
167 -49 338 5 63 7 116 6 118 -6 7 -45 -182 -45 -219 0 -21 -4 -39 -9 -39 -17
0 -115 268 -190 520 l-10 35 5 -35z"/>
<path d="M6128 1136 c-65 -23 -121 -62 -237 -166 -70 -62 -139 -114 -178 -133
l-63 -31 -44 21 c-35 17 -49 33 -70 75 -35 73 -44 152 -21 178 26 29 10 25
-54 -14 -72 -44 -171 -148 -171 -179 0 -4 21 20 48 54 26 34 57 68 68 76 20
13 24 11 51 -15 16 -16 44 -57 62 -91 32 -61 88 -111 123 -111 31 0 142 60
188 101 187 169 233 203 317 229 32 11 49 19 38 19 -11 0 -36 -6 -57 -13z"/>
</g>
</svg>
