<?xml version="1.0" standalone="no"?>
<!DOCTYPE svg PUBLIC "-//W3C//DTD SVG 20010904//EN"
 "http://www.w3.org/TR/2001/REC-SVG-20010904/DTD/svg10.dtd">
<svg version="1.0" xmlns="http://www.w3.org/2000/svg"
 width="600.000000pt" height="1131.000000pt" viewBox="0 0 600.000000 1131.000000"
 preserveAspectRatio="xMidYMid meet">
<metadata>
Created by potrace 1.16, written by Peter Selinger 2001-2019
</metadata>
<g transform="translate(0.000000,1131.000000) scale(0.100000,-0.100000)"
fill="#000000" stroke="none">
<path d="M2690 11033 c-246 -29 -454 -103 -702 -250 -161 -96 -342 -286 -383
-404 -15 -43 -96 -162 -204 -302 -76 -98 -133 -207 -182 -347 l-33 -95 3 -290
c2 -159 4 -342 5 -405 l1 -116 -80 -159 -80 -159 -6 -140 c-8 -175 -23 -223
-89 -301 -97 -113 -119 -193 -80 -284 20 -44 22 -60 15 -114 -5 -34 -8 -117
-6 -184 2 -103 -1 -129 -17 -165 -27 -60 -46 -79 -136 -133 -44 -27 -86 -61
-97 -79 -26 -42 -33 -89 -19 -116 12 -22 13 -21 30 17 14 33 34 49 113 96 52
31 97 57 99 57 3 0 -8 -26 -24 -57 -26 -52 -29 -66 -26 -134 2 -62 8 -83 30
-116 l27 -41 -26 -26 c-30 -30 -29 -30 -72 -15 -18 6 -34 9 -36 7 -3 -3 2 -28
10 -56 19 -63 78 -129 123 -138 18 -4 32 -10 32 -15 0 -4 21 -10 48 -14 99
-12 149 -26 192 -55 27 -18 65 -33 95 -37 36 -4 44 -8 30 -13 -17 -6 -13 -11
30 -39 67 -42 111 -53 171 -42 60 11 66 8 24 -14 -48 -25 -24 -39 74 -43 76
-4 88 -1 144 27 33 17 65 39 71 48 8 15 14 16 43 5 19 -6 53 -12 76 -12 27 0
64 -11 102 -30 65 -33 92 -36 129 -16 21 12 30 10 79 -15 30 -16 66 -29 80
-29 14 0 49 -12 79 -26 68 -34 134 -29 225 14 35 17 65 28 66 27 2 -2 -23 -39
-55 -82 -90 -119 -134 -194 -244 -413 -64 -128 -302 -651 -315 -690 -9 -32
170 339 203 420 79 189 256 525 319 605 14 17 28 35 32 40 4 6 37 48 73 95 37
47 72 95 78 108 14 26 2 156 -25 277 -8 39 -21 104 -29 145 -7 41 -16 87 -20
102 -6 22 -3 27 16 30 20 3 18 6 -17 28 -110 71 -137 248 -62 407 36 76 94 87
244 48 28 -7 81 -25 115 -40 110 -46 148 -49 250 -15 50 17 133 36 185 42 87
11 100 11 152 -7 l57 -20 24 -70 c13 -38 26 -102 28 -140 5 -62 2 -77 -20
-122 -27 -52 -67 -85 -136 -109 -24 -9 -29 -13 -15 -14 12 0 35 5 53 11 40 14
44 10 25 -26 -24 -44 -120 -295 -128 -333 -6 -24 -2 -41 14 -67 17 -27 20 -44
16 -70 -7 -33 -1 -45 40 -89 5 -6 35 -45 64 -86 30 -41 57 -77 60 -80 3 -3 25
-33 49 -68 68 -100 165 -305 278 -592 112 -286 162 -405 285 -685 140 -317
303 -665 312 -665 3 0 -8 28 -24 62 -148 324 -220 500 -220 538 0 28 -12 65
-40 119 -22 43 -40 89 -40 104 0 27 32 57 60 57 18 0 80 -50 208 -169 52 -47
104 -92 117 -98 37 -20 95 -24 102 -7 3 10 21 14 57 14 62 0 72 7 49 33 -14
15 -15 18 -3 16 25 -5 70 10 70 24 0 7 -37 31 -82 54 -46 23 -111 58 -145 78
-35 20 -63 34 -63 31 0 -8 164 -104 226 -133 57 -26 58 -27 31 -36 -40 -13
-120 14 -281 95 -199 100 -329 148 -342 127 -3 -5 5 -9 17 -9 21 0 20 -1 -6
-21 -22 -18 -29 -20 -36 -8 -6 10 -9 4 -9 -19 0 -20 18 -69 46 -122 25 -50 44
-97 42 -106 -3 -16 -17 15 -100 211 -63 148 -232 565 -273 670 -58 151 -152
343 -219 446 -60 92 -63 115 -17 125 14 2 63 14 108 25 78 20 84 20 111 4 16
-10 48 -47 71 -82 39 -60 46 -81 82 -252 45 -212 97 -422 140 -561 30 -99 52
-131 124 -175 17 -10 40 -25 53 -33 49 -32 18 0 -53 53 -84 64 -75 45 -149
320 -46 173 -59 230 -101 428 -19 93 -46 191 -58 218 -26 52 -25 59 7 59 12 0
32 6 46 13 21 11 31 11 55 1 43 -19 90 -17 134 6 27 13 49 17 74 13 52 -8 132
24 181 73 38 37 43 39 75 30 67 -19 169 28 252 116 35 37 38 38 106 38 51 0
74 4 83 15 11 14 10 14 -14 5 -29 -11 -76 -14 -76 -4 0 3 13 22 30 42 35 45
60 111 60 163 0 51 -19 137 -32 145 -8 5 -9 -1 -4 -17 33 -119 26 -198 -26
-268 -26 -36 -73 -69 -84 -59 -1 2 4 28 12 58 16 63 18 136 4 145 -6 4 -10
-16 -10 -53 0 -66 -16 -119 -56 -187 -31 -54 -38 -54 -19 0 16 46 20 161 5
170 -6 4 -10 -18 -10 -58 0 -72 -23 -151 -54 -185 -39 -44 -119 -64 -171 -43
-17 7 -12 12 36 34 47 20 60 32 78 69 22 47 28 103 11 113 -6 4 -10 -11 -10
-37 0 -73 -26 -109 -100 -140 -36 -14 -75 -27 -87 -27 -21 -1 -21 0 9 58 l31
59 -12 84 c-28 198 -75 301 -203 445 -77 88 -88 110 -88 177 0 49 6 70 37 125
20 36 49 82 64 102 16 20 34 59 40 86 13 57 2 87 -62 163 -81 97 -126 241
-136 436 -6 105 -5 112 14 118 31 10 100 84 124 132 24 51 23 122 -5 217 -9
31 -18 81 -19 109 -2 51 -1 53 28 59 l30 7 -27 1 c-49 2 -35 34 27 66 30 15
55 31 55 36 0 5 10 9 23 9 12 0 40 15 62 34 22 19 41 33 43 31 2 -2 -6 -22
-18 -45 -12 -23 -43 -119 -70 -213 -27 -95 -65 -215 -83 -267 -39 -108 -66
-255 -74 -412 -7 -118 6 -171 54 -235 35 -48 47 -40 14 10 -47 70 -55 108 -48
236 9 165 31 293 67 391 17 47 53 165 80 263 46 164 76 243 113 292 22 29 42
6 61 -73 31 -124 59 -181 134 -275 41 -51 78 -103 84 -117 6 -15 8 -65 4 -125
-7 -119 3 -165 47 -204 18 -16 53 -48 79 -71 76 -67 96 -153 56 -236 -16 -35
-26 -35 -51 -2 -18 24 -18 27 -3 56 9 17 16 44 16 59 0 40 -59 122 -129 179
-82 67 -96 97 -96 214 -1 52 -2 102 -3 111 -1 9 -30 38 -64 65 -35 27 -82 66
-105 88 -43 38 -43 39 -44 110 l-2 71 -10 -59 c-17 -103 33 -334 106 -483 16
-35 103 -154 194 -269 234 -294 293 -389 293 -472 0 -48 -27 -152 -39 -152 -3
1 -17 23 -30 51 -14 27 -52 83 -85 123 -74 88 -221 246 -230 246 -17 0 0 -25
63 -92 126 -134 182 -202 222 -269 l40 -67 -5 -103 c-3 -57 -3 -93 0 -79 11
59 28 121 56 202 25 71 30 99 26 150 -3 55 -11 75 -62 160 l-58 97 18 53 c39
117 13 207 -82 280 -101 78 -99 73 -100 212 0 66 -1 133 -2 147 -1 16 -33 63
-81 123 -83 104 -122 182 -142 291 -17 91 -8 142 35 205 63 94 88 191 94 363
3 94 1 147 -6 147 -6 0 -11 -59 -14 -147 -4 -127 -9 -159 -32 -226 -14 -43
-41 -102 -60 -130 -33 -52 -162 -184 -171 -175 -3 2 19 50 49 106 29 56 62
123 74 149 27 63 54 195 42 207 -5 5 -11 -8 -15 -30 -37 -213 -180 -460 -303
-524 -30 -15 -36 -9 -27 28 4 18 14 32 27 35 11 3 18 10 15 14 -3 5 11 26 32
46 60 58 145 236 166 347 3 19 9 43 11 53 3 9 1 17 -4 17 -5 0 -18 -38 -30
-85 -29 -118 -98 -261 -147 -304 -22 -19 -41 -29 -42 -24 -2 6 5 34 17 62 11
29 26 89 34 134 20 111 32 312 19 304 -5 -4 -13 -55 -17 -114 -8 -135 -21
-219 -47 -308 -22 -74 -42 -105 -68 -105 -11 1 -7 8 14 25 34 28 30 32 -11 10
-47 -24 -80 -19 -94 14 -6 16 -20 38 -29 48 -17 18 -17 24 -3 101 14 78 15 81
36 71 11 -6 43 -32 70 -58 26 -25 44 -37 38 -26 -16 31 -68 82 -101 99 -26 14
-29 20 -25 56 2 22 6 58 8 80 2 22 0 43 -5 46 -5 3 -9 -3 -9 -12 0 -10 -5 -46
-11 -80 l-11 -63 -62 6 c-69 6 -121 -6 -173 -41 -53 -34 -38 -37 25 -5 50 27
65 30 124 27 37 -2 70 -6 73 -10 4 -3 -2 -37 -12 -75 l-18 -68 -55 3 c-31 1
-65 -3 -77 -10 -19 -11 -14 -13 42 -13 35 0 66 -3 70 -7 17 -16 -11 -28 -65
-28 -32 0 -87 -9 -122 -20 -34 -11 -75 -20 -89 -20 l-27 0 20 63 c26 82 42
217 33 284 -8 69 -25 68 -25 -1 0 -80 -26 -189 -65 -275 -18 -42 -38 -88 -44
-103 -9 -24 -16 -28 -51 -28 -22 0 -40 3 -40 8 1 4 7 34 16 67 18 74 32 389
17 398 -7 4 -12 -41 -16 -131 -5 -140 -19 -206 -59 -289 -21 -41 -22 -42 -84
-49 -94 -10 -172 3 -201 32 -28 28 -35 30 -27 9 4 -8 2 -15 -4 -15 -15 0 -72
169 -72 217 0 17 4 21 18 16 13 -5 11 0 -7 21 -32 35 -33 36 -38 205 -6 182
21 366 82 566 8 27 11 45 6 40 -23 -26 -75 -239 -96 -395 -16 -116 -18 -249
-5 -325 4 -27 7 -51 6 -52 -1 -2 -32 13 -68 32 l-65 35 -6 67 c-10 127 11 373
42 494 16 61 25 107 20 102 -17 -17 -58 -203 -69 -313 -6 -63 -10 -166 -8
-228 2 -70 -1 -112 -7 -112 -5 0 -44 7 -85 16 -72 15 -188 14 -273 -3 l-29 -6
5 159 c4 145 8 170 40 283 20 69 35 127 32 129 -6 6 -52 -151 -76 -259 -17
-77 -20 -114 -16 -204 l6 -111 -87 -36 c-47 -21 -87 -36 -89 -34 -13 13 -25
199 -21 335 2 92 1 148 -3 126 -12 -60 -10 -341 2 -414 8 -51 7 -66 -3 -72
-18 -11 -26 14 -27 83 -1 31 -6 60 -11 63 -9 6 -5 -118 5 -151 2 -6 -23 -39
-56 -72 -77 -79 -77 -104 0 -28 l59 58 12 -54 c14 -59 32 -99 66 -143 l22 -30
-22 -17 c-21 -15 -26 -15 -80 7 -64 26 -60 8 7 -26 38 -20 38 -21 21 -40 -18
-20 -64 -24 -113 -10 -63 17 -126 217 -138 434 -3 61 -10 107 -16 107 -27 0
19 -362 57 -454 20 -49 20 -60 -1 -52 -9 4 0 -9 20 -29 20 -20 37 -42 37 -49
0 -8 7 -19 15 -26 30 -25 5 -22 -28 3 -60 46 -158 282 -188 452 -7 42 -10 126
-7 219 3 111 2 141 -5 111 -6 -22 -10 -101 -10 -175 0 -140 16 -236 62 -361
31 -84 41 -161 41 -310 0 -319 87 -542 266 -680 30 -23 52 -44 50 -46 -3 -3
-38 11 -79 31 -108 51 -213 165 -284 307 -89 175 -109 254 -128 494 l-14 170
5 -152 c2 -83 9 -178 15 -210 15 -78 63 -221 98 -291 16 -32 44 -107 61 -167
40 -139 81 -235 125 -297 19 -26 35 -51 35 -54 0 -10 -109 84 -158 136 -24 25
-64 75 -89 112 -52 76 -72 85 -25 11 71 -110 216 -254 302 -298 27 -14 25 -9
-24 63 -29 42 -61 91 -70 109 -22 45 -87 225 -84 235 2 4 39 -28 83 -73 57
-57 99 -89 145 -111 67 -33 140 -52 140 -37 0 5 -29 32 -65 60 -36 28 -64 53
-61 56 4 5 142 -42 164 -56 7 -4 18 -38 26 -77 l14 -69 1 71 1 71 68 -15 c82
-18 89 -23 101 -75 l10 -42 -2 48 -2 48 30 -5 c16 -3 58 -8 92 -12 35 -4 68
-13 74 -20 16 -20 6 -110 -16 -134 -10 -11 -41 -28 -70 -39 -51 -19 -54 -19
-87 -3 -22 12 -32 23 -30 35 6 29 -15 19 -28 -14 -12 -29 -16 -31 -49 -25 -20
3 -53 6 -73 6 l-36 0 10 36 c14 52 4 52 -22 -1 -14 -29 -37 -55 -60 -70 -21
-13 -41 -29 -45 -35 -12 -20 -23 -10 -35 35 -19 69 -28 62 -15 -10 21 -112 -6
-189 -141 -392 l-22 -33 1 113 c1 107 -1 117 -37 212 -41 106 -124 280 -131
273 -3 -2 23 -65 56 -139 67 -149 99 -252 99 -318 0 -73 -29 -232 -55 -301
l-25 -65 7 50 c10 75 7 222 -6 293 -21 113 -70 243 -151 407 -43 88 -86 187
-95 220 -17 65 -20 182 -5 205 11 17 12 17 39 -38 36 -71 33 -42 -4 50 -53
130 -75 229 -84 373 l-8 130 -1 -125 c-2 -88 3 -142 14 -180 9 -34 18 -126 23
-240 10 -209 6 -197 124 -440 83 -171 114 -263 134 -401 21 -136 11 -249 -42
-474 -37 -155 -65 -291 -65 -312 0 -7 3 -13 8 -13 4 0 18 51 30 113 32 155 67
305 73 311 3 3 3 -36 1 -86 -3 -61 1 -126 13 -192 27 -158 30 -157 30 11 0 92
6 181 13 212 9 37 9 58 2 65 -6 6 -10 6 -11 1 0 -6 -6 -53 -13 -105 l-14 -95
-1 107 c-1 156 37 273 147 441 52 81 72 72 28 -13 -15 -28 -22 -50 -17 -50 5
0 11 7 15 15 3 8 10 15 16 15 6 0 8 -29 5 -82 -3 -46 -10 -162 -15 -259 -7
-124 -18 -218 -40 -322 -16 -80 -30 -172 -30 -202 0 -78 -18 -68 -53 31 -28
77 -28 78 -23 29 3 -27 21 -79 38 -115 18 -36 37 -82 43 -104 9 -36 14 -40 65
-56 42 -13 51 -19 37 -25 -46 -19 -171 24 -239 84 -45 39 -81 114 -86 179 -3
29 -9 55 -15 59 -7 4 -8 -14 -5 -53 6 -63 53 -179 81 -203 22 -17 13 -31 -21
-31 -43 1 -133 53 -175 102 -45 54 -86 163 -87 231 0 26 -4 47 -10 47 -5 0
-10 -24 -10 -52 0 -56 45 -175 89 -237 l22 -31 -24 0 c-79 0 -163 69 -212 175
-72 155 -71 234 5 460 77 228 94 298 94 395 -1 81 -22 265 -30 257 -2 -2 1
-63 7 -136 9 -103 9 -148 0 -201 -15 -83 -76 -289 -90 -303 -14 -14 -48 47
-62 113 -27 123 -13 286 45 517 13 54 29 132 36 173 6 41 13 81 16 89 20 61
164 -365 164 -486 0 -29 -9 -142 -21 -250 -20 -194 -23 -363 -5 -364 4 0 29
49 55 108 26 59 64 138 84 176 54 99 77 175 77 255 0 93 -17 145 -122 366
-136 287 -189 406 -220 495 -32 94 -58 273 -58 403 0 77 -4 117 -10 113 -13
-8 -13 -154 0 -270 15 -135 36 -216 90 -349 45 -113 67 -162 200 -441 132
-277 136 -330 42 -525 -25 -52 -65 -135 -88 -185 -32 -66 -45 -85 -50 -72 -4
10 3 109 14 220 36 342 35 333 13 443 -24 117 -40 169 -114 364 -71 186 -141
404 -161 502 -40 194 -29 572 25 847 17 84 28 155 25 158 -11 11 -47 -143 -63
-268 -12 -94 -17 -214 -17 -404 -1 -243 1 -281 22 -382 12 -62 39 -159 59
-215 47 -130 49 -214 10 -393 -14 -66 -38 -174 -52 -240 -45 -209 -35 -387 30
-503 l25 -44 -20 -59 c-11 -32 -20 -68 -20 -80 0 -37 -24 -14 -48 47 -35 85
-51 191 -52 334 0 136 20 240 82 430 28 86 31 108 34 245 l2 150 -9 -120 c-9
-118 -22 -182 -73 -360 -44 -151 -56 -222 -56 -338 1 -180 26 -302 90 -427 11
-21 20 -47 20 -58 0 -76 70 -240 129 -305 45 -49 50 -66 23 -90 -50 -45 -142
-67 -221 -51 -37 8 -39 17 -7 32 26 11 106 106 106 124 0 6 -10 -2 -22 -18
-44 -57 -96 -82 -168 -83 -45 0 -131 28 -137 45 -2 5 11 18 29 28 97 56 140
132 146 262 4 88 3 96 -44 234 -27 78 -50 136 -52 128 -2 -8 9 -46 24 -84 49
-130 66 -204 60 -274 -7 -91 -32 -156 -77 -201 -36 -36 -44 -39 -94 -39 -62 0
-135 25 -135 46 0 9 11 14 27 14 32 0 93 21 93 32 0 4 -7 5 -15 2 -13 -5 -14
-2 -5 21 13 34 13 106 -1 125 -8 11 -9 7 -5 -19 9 -49 -10 -106 -41 -126 -37
-25 -91 -35 -120 -24 -14 5 -49 10 -79 10 -30 1 -54 4 -54 6 0 3 21 28 46 57
60 65 84 118 83 181 -1 86 -18 99 -18 14 -1 -65 -5 -81 -29 -120 -49 -75 -79
-99 -126 -99 -65 1 -109 36 -141 114 l-15 36 30 0 c39 0 87 24 94 47 2 10 10
52 16 93 7 41 21 92 31 112 21 42 23 48 10 48 -12 0 -42 -76 -50 -128 -3 -23
-10 -44 -16 -45 -5 -1 -18 23 -29 53 -23 68 -13 114 43 210 40 68 65 130 53
130 -4 0 -16 -16 -27 -36 -21 -38 -68 -75 -152 -118 -29 -14 -68 -42 -88 -61
-38 -39 -43 -34 -20 22 15 37 25 46 133 113 103 64 124 111 123 279 -1 163 26
258 43 151 9 -54 42 -141 70 -183 13 -19 28 -59 32 -88 8 -52 9 -51 14 51 6
96 10 114 52 210 178 408 177 406 184 484 4 49 3 76 -3 76 -6 0 -13 -30 -15
-67 -6 -75 -25 -126 -137 -375 -39 -86 -78 -184 -87 -217 -10 -33 -21 -58 -26
-55 -16 10 -56 100 -68 155 -27 120 -5 210 76 316 36 47 55 83 68 133 4 14 -6
3 -21 -25 -16 -27 -52 -80 -80 -117 -50 -65 -79 -141 -66 -175 10 -27 -18 -12
-37 20 -41 67 -22 166 51 256 56 69 64 85 90 159 33 94 39 141 27 215 -10 63
-9 73 12 125 13 31 42 89 65 127 36 62 60 108 79 155 3 8 5 -14 3 -50 -3 -68
-24 -121 -82 -206 -26 -37 -27 -44 -22 -134 6 -117 -7 -171 -56 -237 -57 -77
-44 -74 33 8 118 125 138 161 150 273 5 52 7 121 4 153 -14 162 -32 799 -24
908 15 219 85 384 264 622 63 84 117 162 121 175 4 13 22 55 41 93 98 203 356
400 689 526 152 57 270 77 530 89 309 15 319 17 80 17 -115 0 -226 -2 -245 -4z
m249 -1665 l45 -14 26 -112 c15 -61 23 -112 18 -112 -5 0 -25 7 -45 15 -59 25
-210 40 -272 28 l-53 -11 -15 37 c-19 43 -43 129 -43 153 0 36 235 47 339 16z
m-341 -65 c6 -32 18 -79 26 -105 12 -38 12 -48 2 -48 -7 0 -41 -18 -74 -40
l-62 -39 -24 42 c-14 23 -33 70 -42 105 -17 61 -17 63 2 77 21 16 132 64 150
65 6 0 16 -26 22 -57z m482 6 l57 -30 12 -107 c7 -59 15 -121 18 -139 5 -30 4
-31 -27 -29 -33 2 -60 27 -60 55 1 13 4 12 15 -3 27 -36 15 -5 -14 37 -34 49
-86 247 -65 247 3 0 32 -14 64 -31z m710 -152 c0 -14 -21 -87 -35 -119 -6 -15
-1 -18 33 -18 22 0 59 7 82 15 58 20 67 19 42 -8 -78 -83 -119 -343 -74 -469
33 -92 121 -153 186 -128 33 12 34 22 1 14 -14 -3 -37 -3 -52 1 -28 7 -28 7
12 20 25 9 60 35 91 69 48 50 53 61 64 126 19 111 -3 249 -50 324 -20 31 -34
44 -45 40 -8 -3 -15 -1 -15 5 0 29 67 -5 103 -52 29 -38 67 -145 67 -189 0
-33 15 -36 32 -8 19 30 28 24 28 -19 0 -21 11 -82 25 -135 29 -114 31 -146 8
-194 -68 -146 -343 -281 -680 -332 -609 -92 -1165 -16 -1369 188 -54 53 -124
279 -124 398 0 43 0 43 27 33 15 -6 61 -9 103 -8 l75 2 7 -43 c10 -59 68 -176
111 -226 93 -107 295 -157 461 -113 58 16 38 20 -36 7 -40 -6 -89 -7 -124 -3
l-59 8 59 9 c143 19 261 114 291 233 40 163 12 320 -76 419 -32 37 -32 38 -9
31 70 -21 142 -82 179 -153 7 -13 15 -22 18 -19 8 9 -37 86 -74 127 -19 22
-31 40 -26 40 6 0 18 -9 28 -20 13 -15 31 -20 67 -20 52 0 59 10 38 64 -5 14
-6 26 -1 26 4 0 15 -18 23 -39 14 -35 22 -41 74 -57 60 -19 192 -24 246 -11
19 5 36 22 53 55 l26 47 -5 -35 c-2 -19 -7 -43 -11 -52 -6 -16 0 -18 50 -18
l56 0 28 63 c16 34 34 79 40 100 12 36 31 51 31 24z m-820 -27 c73 -24 75 -26
85 -58 6 -21 4 -22 -22 -16 -15 3 -68 20 -117 36 -70 24 -102 29 -155 27 -64
-3 -91 3 -91 21 0 15 33 19 135 16 69 -3 120 -11 165 -26z m1150 -305 c20
-121 -2 -220 -63 -284 -31 -32 -94 -67 -104 -57 -8 7 29 56 38 50 12 -7 12 9
0 22 -5 5 -11 38 -13 74 -3 64 -2 65 22 65 33 0 58 -64 41 -109 -13 -36 -7
-46 9 -15 7 12 10 39 7 62 -4 27 0 48 10 64 24 36 29 158 9 225 -22 76 -19 83
9 23 13 -27 29 -81 35 -120z m-1113 66 c26 -52 28 -65 27 -171 0 -127 -16
-177 -74 -244 -73 -83 -303 -133 -392 -85 -17 9 -14 13 24 33 25 14 47 20 53
15 15 -14 70 -10 91 7 18 15 18 15 -3 5 -29 -14 -70 -14 -79 1 -4 6 -6 39 -5
72 1 48 6 65 22 78 19 16 24 16 49 3 15 -8 35 -30 44 -50 18 -38 34 -42 96
-25 47 13 93 62 126 134 23 50 26 68 22 125 -4 40 -16 89 -32 125 -33 74 -7
56 31 -23z m-827 -33 c0 -5 -12 -1 -27 9 -27 17 -27 17 -14 0 18 -23 71 -45
139 -59 44 -9 52 -14 52 -33 0 -17 -9 -26 -31 -34 -36 -12 -148 -15 -165 -3
-11 6 -19 88 -16 156 l2 30 30 -29 c17 -16 30 -33 30 -37z m1741 -46 c-16 -58
-17 -71 -6 -76 9 -3 18 7 25 30 16 47 24 37 11 -12 -8 -30 -7 -48 4 -79 21
-60 19 -138 -4 -159 -51 -46 -113 32 -115 145 -1 55 1 62 27 81 15 11 27 24
27 28 0 16 42 121 46 117 3 -2 -4 -36 -15 -75z m-1325 51 c-32 -118 -37 -156
-23 -171 14 -13 17 -11 30 20 23 55 36 53 20 -3 -13 -45 -13 -54 1 -90 41
-103 8 -189 -73 -189 -73 0 -141 95 -141 197 0 48 28 79 85 91 38 8 40 9 64
85 14 42 29 77 34 77 4 0 6 -8 3 -17z m-1377 -358 c1 -38 -4 -88 -10 -110 -11
-40 -74 -140 -103 -164 -15 -13 -16 -11 -4 15 6 16 12 77 12 139 l1 110 43 64
c23 35 43 71 43 80 3 39 18 -71 18 -134z m3457 77 l69 -58 5 -119 c3 -67 11
-130 18 -143 7 -12 37 -41 67 -65 51 -40 108 -106 134 -154 9 -18 9 -29 -4
-53 -9 -16 -19 -30 -24 -30 -10 0 -52 49 -169 198 -95 122 -140 206 -178 340
-26 93 -26 142 0 142 7 0 44 -26 82 -58z m-527 -373 c6 -18 11 -60 11 -95 0
-156 68 -345 150 -419 29 -27 50 -68 50 -100 0 -26 -28 -85 -40 -85 -3 0 -16
19 -28 43 -12 23 -40 65 -62 92 -59 73 -85 164 -84 290 0 81 -2 92 -9 60 -12
-57 -2 -190 20 -253 10 -29 40 -82 67 -119 70 -94 73 -135 17 -242 -57 -110
-53 -184 13 -265 47 -58 49 -105 5 -167 -85 -124 -84 -121 -84 -175 0 -44 -2
-51 -13 -40 -7 7 -20 31 -27 52 -14 38 -14 38 -15 9 0 -46 32 -89 108 -145 81
-58 102 -94 102 -176 0 -73 -29 -135 -77 -165 -45 -28 -122 -27 -170 2 -37 23
-43 39 -13 39 25 0 96 63 117 103 17 34 12 91 -14 140 -9 17 -53 68 -99 112
-65 63 -85 89 -94 123 -18 68 -4 124 48 195 75 102 96 158 100 265 2 55 0 92
-6 92 -5 0 -7 -28 -4 -69 6 -93 -13 -147 -92 -253 -51 -70 -64 -96 -70 -137
-8 -62 7 -124 40 -169 51 -67 81 -206 62 -287 l-7 -30 14 30 c18 39 18 96 1
163 -18 68 -3 70 53 6 67 -76 77 -139 32 -201 -37 -51 -68 -73 -103 -73 -33 0
-33 -2 -11 -36 21 -33 5 -45 -43 -34 -34 8 -84 35 -84 46 0 3 9 13 20 22 19
15 20 22 10 67 -6 28 -11 60 -11 73 1 32 -25 79 -47 87 -15 4 -21 19 -26 67
-15 150 -7 186 105 463 39 98 52 146 66 248 l19 128 17 -36 c28 -59 38 -39 11
23 -14 31 -29 62 -33 67 -5 6 -16 33 -26 62 -26 74 -36 56 -14 -24 21 -75 24
-182 9 -263 -13 -66 -150 -420 -163 -420 -6 0 -8 60 -4 158 4 86 10 254 13
372 8 246 6 255 -70 344 -25 28 -50 64 -55 79 -15 39 -32 35 -20 -5 5 -17 7
-33 6 -34 -1 -2 -23 2 -47 8 -61 14 -73 32 -65 91 4 30 2 46 -4 43 -5 -3 -12
-33 -16 -66 -7 -63 -17 -74 -35 -39 -9 16 -19 20 -52 17 -40 -3 -41 -2 -56 40
-16 41 -32 56 -32 28 0 -7 7 -33 15 -56 l15 -43 -41 7 c-85 14 -119 49 -119
124 0 57 22 82 74 82 46 0 56 -10 56 -56 0 -13 5 -24 10 -24 6 0 10 10 10 23
0 52 10 65 53 71 23 3 63 8 90 12 46 6 47 6 47 -21 0 -14 -5 -35 -11 -47 -6
-11 -8 -22 -5 -25 3 -4 17 19 30 49 17 38 32 57 47 61 13 4 25 5 26 3 2 -2 -3
-31 -11 -66 -8 -35 -12 -76 -9 -91 10 -50 19 -32 16 29 -3 46 1 65 19 97 22
37 30 42 96 59 40 10 75 16 78 13 4 -3 -6 -41 -21 -84 -38 -110 -43 -206 -16
-368 11 -71 25 -159 30 -195 10 -62 10 -60 6 35 -3 55 -14 146 -25 203 -24
125 -17 230 26 338 31 81 44 95 103 118 l44 17 -7 -53 c-27 -214 -13 -324 56
-445 23 -40 46 -73 50 -73 11 0 12 -3 -35 75 -20 33 -43 87 -53 120 -24 83
-24 242 -1 318 29 93 75 125 96 66z m-1034 -244 c126 -23 137 -27 160 -69 27
-48 53 -62 141 -76 38 -6 74 -16 80 -23 9 -9 10 -62 7 -184 l-6 -173 -41 0
c-64 -1 -188 -26 -274 -55 -89 -30 -92 -30 -272 34 -47 17 -108 33 -137 37
l-52 6 -7 66 c-9 89 2 229 20 257 10 15 40 31 83 46 79 26 119 61 128 112 7
36 9 37 49 37 22 0 77 -7 121 -15z m-470 -150 c30 -29 30 -44 10 -215 -8 -69
-15 -131 -15 -137 0 -7 -7 -13 -15 -13 -8 0 -15 5 -15 10 0 6 -5 10 -11 10 -6
0 -8 -8 -4 -20 4 -12 -6 -45 -26 -87 -28 -56 -34 -81 -37 -155 -5 -99 10 -156
57 -212 14 -17 31 -41 38 -53 16 -28 27 -141 19 -186 l-6 -34 -104 -5 c-105
-6 -177 -29 -208 -66 -7 -7 8 -3 33 10 39 21 57 23 171 23 82 0 131 -4 138
-11 29 -29 52 -253 30 -294 -17 -32 -76 -44 -205 -43 -86 1 -135 7 -175 20
l-55 18 -12 70 c-14 77 -9 124 32 330 27 135 32 186 46 470 14 294 18 322 46
415 30 96 66 143 129 165 62 22 111 19 139 -10z m1085 -38 c29 -15 57 -40 78
-72 l34 -50 -9 -250 c-9 -290 -11 -624 -2 -710 6 -61 3 -85 -10 -85 -4 0 -6
12 -3 28 l4 27 -155 -1 -155 -1 -4 29 c-8 49 41 175 136 352 34 65 35 141 1
252 -23 76 -24 84 -10 118 17 40 6 49 -17 14 l-15 -23 -17 32 c-13 26 -16 63
-16 197 0 148 2 165 18 170 30 8 96 -4 142 -27z m686 -875 c45 -78 84 -224 84
-315 0 -71 -14 -112 -53 -154 -26 -29 -17 -38 22 -25 34 12 41 1 18 -30 -30
-39 -150 -79 -172 -57 -2 3 4 24 15 47 13 27 20 62 20 103 0 85 -28 142 -89
180 -55 35 -70 60 -71 116 0 35 9 56 53 120 29 43 59 93 67 112 l13 34 29 -34
c16 -19 45 -62 64 -97z m-614 -258 c-7 -13 -28 -17 -103 -19 -52 -1 -104 -5
-117 -9 -37 -12 -15 -25 25 -15 67 15 154 10 222 -14 85 -30 90 -47 14 -48
-61 -1 -58 -4 20 -14 38 -5 48 -10 45 -23 -2 -12 -17 -19 -53 -23 l-50 -6 58
-1 c53 -2 57 -4 57 -26 0 -13 -6 -27 -12 -29 -8 -3 -6 -6 5 -6 48 -2 -16 -69
-95 -99 -74 -28 -178 -47 -211 -38 -17 4 -45 31 -77 73 -45 60 -50 71 -45 103
4 24 1 41 -9 55 -58 77 50 154 197 140 42 -3 83 -2 97 4 36 14 42 13 32 -5z"/>
<path d="M4139 10694 c33 -27 209 -232 278 -324 23 -30 63 -89 90 -130 131
-202 188 -323 219 -468 9 -45 21 -82 26 -82 11 0 10 20 -7 92 -45 194 -171
423 -368 672 -83 103 -241 266 -258 266 -6 0 3 -12 20 -26z"/>
<path d="M1255 8905 c4 -27 27 -158 51 -289 25 -132 49 -285 55 -340 27 -243
-21 -517 -127 -728 -21 -41 -32 -74 -27 -79 12 -12 85 148 117 254 52 175 61
234 60 402 0 169 -19 312 -69 525 -13 58 -32 148 -40 200 -17 100 -32 140 -20
55z"/>
<path d="M4391 8328 c-2 -49 20 -182 41 -248 24 -76 89 -201 164 -318 142
-217 151 -262 83 -403 -55 -113 -89 -213 -89 -265 0 -35 7 -51 43 -94 23 -29
56 -70 74 -92 27 -33 52 -86 69 -145 2 -7 8 -13 13 -13 11 0 -13 88 -35 131
-7 15 -35 51 -62 80 -69 77 -82 99 -82 140 0 62 88 282 117 294 22 8 41 -12
53 -56 12 -43 6 -87 -21 -168 -23 -66 -23 -107 -1 -147 19 -34 67 -94 76 -94
13 0 5 19 -18 41 -13 13 -33 43 -45 66 l-21 42 26 82 c34 109 31 197 -9 257
-19 29 -27 55 -27 84 0 56 -26 110 -142 295 -118 187 -155 274 -179 418 -23
134 -26 148 -28 113z"/>
<path d="M1458 8304 c-3 -5 3 -47 14 -94 14 -63 19 -125 20 -240 l1 -155 -80
-246 c-80 -241 -107 -359 -84 -359 6 0 11 13 11 29 0 36 31 141 111 381 l62
185 1 150 c0 110 -4 172 -18 235 -21 99 -31 127 -38 114z"/>
<path d="M4470 7703 c0 -5 16 -21 36 -37 63 -50 80 -126 45 -194 -11 -20 -57
-75 -102 -121 -45 -47 -95 -105 -110 -130 -48 -75 -43 -89 69 -199 106 -105
210 -237 241 -308 21 -47 48 -64 31 -19 -35 91 -127 214 -252 335 -67 65 -98
103 -98 118 0 35 42 94 141 197 49 52 97 111 105 130 21 50 17 102 -10 149
-29 49 -96 104 -96 79z"/>
<path d="M1166 7388 c-27 -64 -39 -139 -33 -220 3 -43 3 -78 1 -78 -9 0 -58
97 -75 148 -17 51 -18 53 -17 21 2 -40 -13 -68 -69 -130 -19 -21 -31 -39 -25
-39 14 0 81 71 88 92 8 28 19 22 34 -19 7 -21 43 -83 81 -138 69 -103 118
-205 150 -310 11 -38 18 -50 18 -34 1 38 -50 182 -101 284 -25 50 -51 114 -58
144 -15 65 -8 176 15 243 21 59 13 87 -9 36z"/>
<path d="M5090 7303 c0 -16 53 -59 129 -102 40 -24 88 -59 106 -78 77 -81 100
-249 41 -300 -38 -32 -46 -29 -30 15 19 53 17 89 -7 139 -21 43 -72 82 -129
98 -40 12 -88 53 -110 93 -11 21 -19 30 -20 20 0 -9 22 -46 49 -81 91 -119
120 -206 121 -361 l0 -58 -29 5 c-16 4 -43 2 -59 -3 -17 -4 -32 -6 -35 -4 -2
2 0 26 5 53 7 35 6 61 -3 96 l-14 48 0 -94 c0 -80 -3 -100 -23 -133 l-23 -39
23 16 c43 31 93 48 131 45 l37 -4 0 96 c0 98 -18 199 -46 251 -8 17 -13 33
-11 35 3 3 26 -8 53 -24 80 -46 107 -133 65 -215 -10 -20 -16 -39 -12 -41 14
-9 67 26 90 59 21 31 23 43 19 113 -7 128 -61 208 -180 268 -29 14 -72 42 -95
61 -24 19 -43 30 -43 26z"/>
<path d="M3224 6035 c52 -348 81 -541 106 -690 16 -99 39 -252 52 -340 12 -88
24 -151 26 -140 1 11 -13 128 -32 260 -19 132 -58 395 -85 584 -28 189 -55
349 -62 355 -8 8 -10 1 -5 -29z"/>
<path d="M2836 5863 c-3 -16 -17 -102 -31 -193 -15 -91 -62 -379 -106 -641
-80 -482 -84 -507 -73 -497 3 3 21 102 40 219 19 118 50 297 69 399 41 221
103 602 112 683 6 59 -1 79 -11 30z"/>
<path d="M3426 5745 c4 -17 43 -131 86 -255 149 -421 229 -655 346 -1005 64
-192 118 -352 119 -354 2 -2 5 -2 8 1 3 3 -3 39 -14 79 -11 41 -30 133 -41
204 -11 72 -38 220 -60 330 -21 110 -48 256 -60 325 -25 157 -28 170 -39 170
-10 0 53 -372 108 -635 22 -102 36 -203 28 -195 -3 3 -19 46 -36 95 -17 50
-51 146 -76 215 -26 69 -105 297 -176 508 -119 352 -183 529 -196 542 -2 3 -1
-9 3 -25z"/>
<path d="M2629 5468 c-11 -44 -75 -357 -174 -858 -30 -151 -93 -465 -140 -698
-47 -234 -83 -433 -79 -446 10 -42 100 -126 221 -206 29 -19 53 -40 53 -47 0
-32 -96 -53 -387 -87 -89 -11 -122 -20 -167 -44 -31 -16 -56 -26 -56 -22 0 5
11 55 25 112 26 107 32 156 16 128 -15 -26 -71 -278 -71 -319 0 -22 5 -43 10
-46 6 -4 10 6 10 22 0 67 77 129 183 148 l37 7 0 -141 0 -140 -34 20 c-46 27
-53 10 -10 -24 71 -57 30 -120 -89 -138 -34 -5 -147 -9 -252 -9 -104 0 -210
-5 -234 -11 -24 -5 -46 -8 -48 -5 -19 19 126 582 222 865 19 58 35 112 34 120
-1 29 -129 -360 -184 -560 -72 -261 -99 -304 -153 -246 -27 28 -24 36 58 217
58 128 133 320 127 326 -2 3 -26 -49 -52 -113 -91 -227 -101 -232 -240 -119
l-50 41 30 -36 c17 -19 54 -53 83 -75 30 -21 56 -42 59 -47 2 -4 -10 -44 -27
-88 -17 -45 -29 -88 -26 -95 3 -7 28 -30 57 -50 51 -38 51 -38 46 -84 -3 -25
-7 -52 -9 -60 -2 -8 2 -14 8 -13 6 1 56 5 111 9 l100 7 37 -47 c25 -30 60 -57
102 -77 l63 -31 146 4 145 3 -7 -35 c-4 -19 -7 -46 -7 -59 -2 -55 112 -93 289
-95 l93 -1 16 -85 c8 -47 21 -119 27 -160 11 -70 22 -100 33 -89 3 3 -2 45
-10 94 -8 50 -19 115 -24 145 -15 93 -37 210 -60 315 -42 196 -61 321 -63 411
-2 113 23 178 81 209 l37 20 6 248 c3 136 8 249 10 251 7 6 238 66 277 72 52
8 85 -28 106 -117 28 -121 30 -233 8 -334 -16 -69 -17 -85 -6 -71 8 11 15 27
16 35 5 55 16 -172 17 -373 1 -166 4 -237 11 -230 13 13 13 411 0 544 -5 52
-7 131 -4 175 4 50 0 124 -11 200 -9 72 -18 217 -20 362 -3 134 -6 248 -7 255
-2 10 28 14 123 16 l127 3 7 -188 c7 -200 -1 -312 -35 -507 -16 -92 -18 -123
-9 -162 6 -27 14 -218 19 -424 6 -236 14 -406 23 -460 8 -47 12 -91 9 -98 -4
-11 -25 -13 -88 -10 -71 3 -86 6 -109 28 -27 25 -27 26 -21 118 5 75 4 92 -7
92 -26 0 -41 -333 -34 -753 4 -204 11 -394 16 -422 13 -68 -1 -96 -56 -110
-23 -5 -45 -13 -49 -17 -12 -13 40 -9 94 7 52 16 72 32 55 44 -5 3 -16 42 -24
86 -11 60 -14 180 -14 487 0 223 3 409 6 412 3 3 60 3 125 0 l120 -7 18 -191
c10 -105 17 -247 16 -316 -2 -142 -1 -155 10 -120 24 74 1 465 -42 735 -15 92
-22 191 -24 340 -2 116 -5 274 -7 353 l-2 142 22 -47 c32 -71 28 -29 -7 65
-36 98 -36 120 -9 282 17 96 22 174 24 340 2 173 6 222 19 250 15 34 16 29 12
-120 -4 -174 1 -195 58 -228 53 -31 98 -41 246 -53 74 -6 138 -14 143 -18 14
-14 10 -165 -7 -244 -16 -75 -16 -79 5 -135 98 -267 112 -457 55 -762 -14 -74
-37 -211 -51 -304 -14 -93 -28 -179 -31 -192 -4 -14 -2 -24 5 -24 13 0 17 16
39 150 l17 105 115 -2 c98 -1 105 0 48 6 -76 9 -146 36 -150 60 -2 9 10 88 26
176 51 282 36 570 -40 759 -13 33 -24 74 -24 91 0 37 46 290 55 305 3 5 18 10
33 10 54 0 56 -6 54 -162 -2 -79 -5 -151 -8 -161 -13 -40 7 -90 57 -142 65
-69 69 -92 78 -472 7 -343 1 -319 97 -372 26 -14 49 -31 52 -38 2 -7 -11 -22
-30 -33 l-33 -21 30 7 c47 11 54 21 57 92 l3 67 103 12 c154 18 209 31 243 61
31 25 31 27 26 91 -4 37 -9 90 -13 119 l-7 52 101 -6 c122 -8 124 -6 98 99 -9
38 -15 72 -13 74 3 2 46 8 98 14 172 19 192 41 147 156 -15 41 -28 78 -28 83
0 4 16 24 35 43 53 53 49 79 -38 211 -41 61 -84 130 -97 153 -13 24 -25 41
-28 39 -5 -6 21 -54 89 -168 33 -54 59 -99 59 -101 0 -2 -13 -2 -30 1 -40 6
-38 -11 3 -23 44 -14 65 -56 43 -90 -13 -20 -107 -65 -135 -65 -5 0 -13 23
-18 51 -9 42 -8 57 6 80 9 16 22 29 29 29 6 0 12 5 12 12 0 15 -196 3 -270
-17 -68 -18 -80 -19 -80 -2 0 7 -17 71 -39 142 -118 398 -165 568 -271 985
-45 173 -84 317 -87 320 -7 7 6 -74 22 -135 7 -27 52 -194 98 -370 131 -495
224 -826 263 -945 18 -53 44 -83 99 -116 52 -30 71 -60 53 -81 -29 -35 -80
-46 -243 -51 -142 -4 -170 -2 -245 17 -47 12 -104 31 -126 41 -69 30 -154 118
-154 159 0 23 58 62 139 92 82 31 130 57 131 70 0 10 -222 -82 -243 -99 -9 -8
-19 -13 -21 -11 -2 2 0 48 5 101 5 65 15 110 29 137 11 23 22 41 25 41 2 0 37
-12 77 -26 103 -36 138 -62 138 -99 1 -26 2 -28 11 -12 6 10 8 30 4 45 -17 75
-108 368 -116 377 -17 17 -10 -14 38 -171 25 -85 44 -157 41 -160 -4 -3 -17 1
-30 9 -32 21 -209 74 -288 87 -36 5 -136 14 -222 20 -219 14 -308 50 -308 126
0 73 21 90 161 128 31 9 67 24 79 34 l23 18 -47 335 c-47 334 -53 366 -61 358
-4 -5 33 -308 60 -486 20 -135 20 -136 -4 -123 -24 12 -31 13 -31 2 0 -5 11
-14 25 -20 30 -14 34 -51 8 -74 -10 -8 -49 -23 -88 -32 -38 -10 -81 -24 -93
-32 -13 -9 -26 -14 -28 -11 -2 2 -1 43 2 91 8 106 18 115 96 91 60 -18 58 -17
58 -7 0 32 -296 68 -464 57 -160 -10 -306 -53 -363 -107 -22 -21 -23 -21 -23
-2 0 10 9 66 19 124 18 100 19 122 4 107 -13 -13 -51 -280 -43 -301 13 -34 29
-43 156 -86 123 -42 224 -99 224 -125 0 -30 -39 -52 -141 -79 -274 -72 -359
-99 -359 -113 0 -10 6 -13 18 -8 9 4 31 9 47 12 l30 5 -3 -210 -3 -211 -94 61
c-143 91 -183 139 -171 204 4 17 17 41 31 54 24 23 33 50 17 50 -4 0 -14 -6
-21 -12 -11 -11 -12 -9 -8 7 8 27 90 445 121 615 14 74 52 268 86 430 73 352
155 760 164 813 9 50 -1 47 -15 -5z m244 -1270 c40 -21 44 -33 51 -168 7 -130
7 -134 -11 -118 -31 27 -103 59 -218 98 -77 26 -111 42 -113 54 -9 43 53 86
178 127 66 21 84 23 113 7z m1882 -845 c33 -154 28 -145 100 -186 36 -21 69
-45 72 -53 15 -41 -76 -68 -252 -77 -61 -3 -117 -7 -125 -9 -11 -2 -15 11 -17
63 l-3 66 38 11 c21 7 48 22 61 36 l22 24 -27 86 c-14 48 -24 90 -20 93 6 7
73 19 113 22 19 1 24 -8 38 -76z m-690 -168 l52 -16 7 -76 c3 -42 6 -127 6
-189 l0 -112 34 -21 c18 -12 84 -34 145 -50 176 -46 217 -75 175 -122 -30 -33
-110 -50 -266 -56 -82 -3 -148 -8 -148 -11 0 -3 7 -10 15 -16 8 -6 18 -26 21
-44 l7 -32 -30 12 c-16 7 -40 21 -54 30 -22 16 -23 18 -6 28 24 15 21 32 -5
28 -25 -3 -22 -49 -27 382 -3 203 2 280 16 280 3 0 29 -7 58 -15z m341 -35
l104 0 0 -39 c0 -21 3 -58 6 -83 6 -45 7 -45 90 -86 64 -32 84 -47 84 -62 0
-16 -7 -20 -37 -21 -50 -2 -104 0 -180 7 -42 4 -63 2 -63 -5 0 -6 9 -11 20
-11 11 0 26 -10 34 -22 14 -22 40 -128 33 -134 -2 -2 -34 8 -73 21 -38 14 -77
25 -86 25 -38 0 -178 51 -178 65 0 17 47 32 128 41 34 4 62 11 62 16 0 10 -91
3 -163 -12 -20 -4 -39 -5 -41 -1 -11 18 4 241 18 276 l16 38 62 -7 c33 -3 108
-6 164 -6z m-2014 -91 c-6 -97 11 -250 45 -414 46 -224 49 -253 29 -273 -40
-40 -331 -7 -331 38 0 14 14 20 123 50 24 6 42 13 39 16 -3 4 -45 -3 -134 -22
-17 -3 -23 0 -23 13 0 25 40 63 67 63 13 0 23 5 23 11 0 7 -12 9 -32 5 -18 -3
-106 -9 -195 -12 l-163 -7 -64 32 c-67 33 -79 50 -63 88 9 21 15 22 131 21
142 -2 229 14 262 48 23 23 24 27 24 208 l0 184 28 6 c15 3 50 6 77 8 l50 2 7
-219 c3 -121 11 -247 17 -280 16 -89 17 -88 -29 -80 -25 4 -40 3 -40 -3 0 -6
18 -13 40 -17 22 -4 40 -12 40 -18 0 -8 3 -8 11 0 8 8 7 47 -5 146 -9 74 -16
192 -16 263 0 113 3 133 21 164 20 34 46 60 59 60 4 0 5 -36 2 -81z"/>
<path d="M2307 5283 c-157 -346 -587 -1489 -570 -1517 3 -5 36 78 73 185 37
107 111 311 165 454 87 234 131 343 322 813 60 148 66 187 10 65z"/>
<path d="M2042 4939 c-26 -66 -85 -225 -207 -559 -51 -140 -112 -302 -135
-360 -22 -58 -64 -166 -91 -240 -79 -214 -141 -374 -146 -383 -3 -4 -17 4 -31
18 -15 15 -46 38 -70 52 -38 23 -51 25 -118 21 -41 -3 -74 -4 -74 -3 0 2 27
51 61 111 127 228 381 705 378 708 -3 4 -159 -273 -367 -649 -30 -55 -73 -131
-94 -170 -29 -50 -37 -74 -30 -85 8 -13 54 -49 91 -69 11 -7 10 -14 -4 -42
-18 -34 -18 -34 2 -16 11 9 27 17 35 17 9 0 21 7 28 15 10 12 9 15 -5 15 -20
0 -17 12 19 69 42 66 99 65 151 -4 20 -26 20 -27 1 -40 -10 -8 -39 -17 -65
-20 -63 -9 -81 -15 -81 -26 0 -22 140 3 162 29 8 9 25 46 38 82 12 36 37 103
55 150 18 47 103 272 188 500 85 228 176 471 202 540 100 267 136 372 133 382
-3 7 -14 -13 -26 -43z"/>
<path d="M2326 4688 c-90 -281 -258 -871 -345 -1213 -34 -130 -36 -144 -22
-130 5 6 24 69 41 140 68 278 218 814 305 1085 56 174 77 251 72 257 -3 2 -25
-60 -51 -139z"/>
<path d="M3645 2008 c-3 -13 -15 -77 -55 -318 -10 -63 -24 -152 -29 -197 -15
-120 -30 -149 -83 -164 -24 -7 -47 -16 -53 -21 -16 -14 43 -9 82 7 19 8 37 15
38 15 6 0 25 -64 25 -85 0 -52 -134 -74 -272 -46 -66 14 -78 25 -85 82 l-6 42
29 -7 c16 -3 56 -8 89 -11 56 -4 58 -4 20 6 -22 5 -50 12 -62 15 -39 8 -48 60
-33 206 7 71 10 131 7 135 -4 3 -9 0 -11 -8 -10 -32 -40 -311 -42 -394 -1 -49
-6 -124 -12 -165 -6 -41 -16 -126 -22 -188 -6 -62 -15 -135 -20 -164 -6 -28
-10 -153 -10 -278 0 -257 -5 -242 90 -291 40 -21 59 -23 175 -24 124 0 132 1
180 28 28 15 56 37 63 48 18 28 55 391 47 454 -9 72 -63 343 -76 383 -14 41 2
79 35 84 17 2 21 9 20 36 -1 21 3 32 11 32 22 0 26 16 9 36 -14 18 -15 18 -9
-3 5 -18 2 -23 -14 -23 -34 0 -49 10 -44 31 4 14 11 18 24 14 11 -4 19 -2 19
4 0 5 -10 11 -22 13 -26 3 -38 38 -14 38 16 0 21 12 9 23 -3 4 -12 2 -20 -5
-24 -20 -37 5 -22 45 13 37 6 73 -12 61 -17 -10 -5 78 66 476 8 47 15 86 15
88 0 8 -21 0 -25 -10z m-284 -834 c67 -14 91 -15 132 -5 45 10 53 10 68 -6 25
-26 52 -135 57 -224 3 -67 0 -83 -22 -127 -14 -27 -33 -53 -43 -57 -10 -4 -76
-9 -147 -11 l-129 -3 -30 32 c-40 43 -47 66 -47 160 0 149 27 257 65 257 8 0
51 -7 96 -16z m311 -529 c3 -99 -8 -129 -59 -176 -83 -76 -193 -99 -290 -60
-40 16 -51 17 -47 6 11 -27 88 -48 162 -43 60 3 75 8 121 42 l54 38 -7 -39
c-5 -27 -4 -34 3 -23 6 8 11 27 11 42 0 15 5 30 11 34 7 4 9 0 6 -12 -11 -37
-17 -110 -8 -89 5 11 12 44 16 72 9 67 27 81 19 16 -26 -221 -24 -217 -109
-261 -42 -22 -64 -26 -130 -27 -44 0 -101 6 -127 14 -48 14 -48 14 -50 60 l-1
46 -4 -41 -4 -42 -30 15 c-17 8 -34 26 -39 38 -10 27 -15 243 -6 252 3 4 6 2
6 -4 0 -12 58 -78 65 -72 2 3 -14 31 -35 63 -35 52 -40 66 -40 117 0 62 20
199 30 199 3 -1 20 -21 38 -46 32 -44 33 -46 15 -61 -17 -14 -17 -14 2 -8 127
42 236 43 336 5 61 -23 77 -20 27 6 -18 9 -34 18 -36 19 -2 2 14 29 35 61 l38
57 13 -54 c7 -30 13 -94 14 -144z"/>
<path d="M2570 1898 c0 -3 7 -51 15 -109 16 -117 28 -359 17 -359 -4 0 -16 7
-26 15 -23 18 -36 19 -36 4 0 -5 4 -8 9 -5 12 8 63 -53 58 -68 -2 -6 -14 -10
-25 -9 -15 2 -20 -2 -16 -11 3 -8 1 -17 -5 -21 -6 -3 -11 -19 -11 -36 0 -27
-3 -29 -35 -29 -41 0 -55 21 -35 54 12 20 11 20 -11 -1 -22 -22 -22 -23 -4
-43 10 -11 36 -23 57 -27 32 -5 39 -9 36 -27 -4 -26 -52 -46 -70 -28 -8 8 -8
15 2 27 8 10 9 15 1 15 -13 0 -25 -45 -16 -60 5 -7 19 -10 38 -6 23 5 33 2 45
-15 8 -11 20 -18 28 -15 9 3 14 -2 14 -14 0 -28 -59 -210 -77 -238 -8 -13 -26
-54 -40 -90 -22 -58 -25 -83 -25 -182 0 -156 27 -361 50 -379 9 -7 46 -27 82
-45 57 -27 75 -31 150 -31 73 0 93 4 141 28 91 44 105 59 113 119 41 299 47
579 17 773 -12 79 -15 126 -9 138 5 10 7 28 5 40 l-4 22 -2 -23 c-1 -17 -14
-28 -58 -48 -51 -24 -66 -26 -134 -21 -72 5 -135 26 -151 51 -14 20 -8 64 8
70 9 3 33 1 54 -5 21 -7 47 -8 57 -4 13 5 4 11 -37 21 -30 8 -66 26 -80 39
-23 24 -25 33 -32 192 -10 198 -28 335 -46 341 -6 2 -12 2 -12 0z m147 -713
c65 -17 160 -20 197 -5 21 8 29 6 46 -12 20 -22 22 -29 40 -158 12 -85 -4
-169 -41 -221 -27 -39 -55 -44 -125 -23 -38 12 -88 17 -141 16 -75 -1 -84 1
-98 21 -35 50 -37 91 -9 189 14 51 29 109 33 128 7 34 28 80 36 80 2 0 30 -7
62 -15z m-140 -421 c-1 -1 -17 -9 -35 -18 -50 -26 -33 -30 22 -5 88 39 264 22
379 -37 27 -14 36 -7 17 12 -7 7 -2 27 17 63 l28 52 3 -93 c5 -144 -4 -191
-41 -228 -41 -40 -141 -89 -187 -92 -19 -1 -57 1 -84 6 -65 10 -53 -9 15 -23
75 -16 145 8 262 91 l28 20 -5 -33 c-3 -19 -10 -63 -16 -99 -17 -105 -21 -120
-32 -120 -6 0 -8 12 -4 30 3 19 2 29 -4 25 -6 -3 -10 -22 -10 -41 0 -19 -5
-34 -11 -34 -7 0 -9 10 -5 28 5 20 4 23 -4 12 -5 -8 -10 -24 -10 -36 0 -32
-84 -67 -160 -67 -50 0 -73 6 -143 41 l-84 41 -12 85 c-6 46 -14 122 -18 168
l-6 83 22 -25 22 -25 -21 35 c-35 61 -26 151 26 276 l17 39 18 -65 c9 -36 17
-65 16 -66z"/>
</g>
</svg>
