<?xml version="1.0" standalone="no"?>
<!DOCTYPE svg PUBLIC "-//W3C//DTD SVG 20010904//EN"
 "http://www.w3.org/TR/2001/REC-SVG-20010904/DTD/svg10.dtd">
<svg version="1.0" xmlns="http://www.w3.org/2000/svg"
 width="808.000000pt" height="874.000000pt" viewBox="0 0 808.000000 874.000000"
 preserveAspectRatio="xMidYMid meet">
<metadata>
Created by potrace 1.16, written by Peter Selinger 2001-2019
</metadata>
<g transform="translate(0.000000,874.000000) scale(0.100000,-0.100000)"
fill="#000000" stroke="none">
<path d="M5416 8316 c-118 -43 -191 -103 -235 -196 -23 -50 -26 -66 -25 -165
1 -131 24 -211 108 -377 87 -173 245 -396 280 -397 37 -2 253 52 370 90 324
108 506 257 547 449 22 103 -29 268 -108 347 -64 64 -103 78 -218 78 -90 0
-107 -3 -174 -32 -41 -18 -76 -32 -76 -30 -1 1 -15 30 -30 64 -53 119 -152
184 -290 190 -66 3 -92 -1 -149 -21z m290 -40 c62 -35 119 -109 140 -182 8
-30 18 -54 21 -54 3 0 33 13 68 30 124 59 232 72 313 38 51 -22 113 -80 138
-129 122 -243 27 -447 -283 -603 -94 -47 -310 -118 -447 -147 l-109 -23 -37
42 c-49 55 -156 217 -206 312 -89 167 -124 281 -124 399 0 165 73 266 234 328
51 19 76 23 151 20 77 -2 97 -7 141 -31z"/>
<path d="M3489 8277 c-96 -22 -180 -60 -230 -105 -42 -38 -52 -42 -81 -37 -44
8 -184 -10 -267 -35 -36 -11 -95 -37 -129 -57 -137 -84 -212 -173 -268 -321
-32 -86 -33 -87 -89 -116 -118 -60 -253 -226 -314 -386 -37 -98 -61 -219 -61
-314 0 -48 -7 -89 -21 -126 -26 -69 -22 -173 11 -269 14 -38 19 -66 13 -70
-16 -10 -22 -104 -12 -177 16 -116 61 -212 147 -312 36 -43 42 -56 31 -63 -8
-5 -21 -9 -29 -9 -8 0 -44 -14 -79 -30 l-64 -30 6 -55 c3 -29 21 -92 39 -138
l34 -84 -70 -74 c-163 -171 -386 -453 -515 -653 -165 -256 -268 -495 -386
-901 -19 -66 -43 -207 -55 -322 -9 -87 -8 -97 16 -165 35 -98 101 -212 202
-348 9 -13 10 -34 2 -93 -23 -166 39 -385 143 -503 l39 -44 -12 -72 c-21 -122
6 -261 70 -361 29 -46 114 -121 160 -140 14 -6 26 -12 28 -13 2 -1 -14 -20
-35 -41 -51 -51 -73 -100 -73 -163 0 -62 27 -113 73 -136 46 -24 157 -15 224
19 29 15 54 27 57 27 2 0 4 -57 3 -127 l-2 -128 38 -79 c82 -172 278 -298 487
-313 54 -4 113 1 203 16 109 19 136 21 185 11 60 -12 180 -71 241 -119 71 -54
197 -129 266 -156 118 -47 215 -64 366 -65 151 0 227 15 358 69 41 17 75 30
75 29 19 -53 71 -129 104 -152 56 -40 132 -47 190 -17 57 29 76 69 76 155 l0
68 50 -6 c28 -3 130 -9 227 -12 147 -6 189 -4 255 11 175 38 285 103 444 264
95 96 164 146 224 163 23 6 115 12 206 13 304 3 369 51 489 360 65 166 125
266 220 367 177 187 222 279 236 480 11 150 -23 336 -68 379 -97 91 -369 214
-549 249 -42 8 -59 16 -63 31 -24 74 -330 243 -725 400 -80 32 -138 60 -130
62 8 2 40 10 70 17 107 24 156 65 221 185 42 78 46 83 98 117 73 46 76 43 89
-79 7 -60 15 -165 18 -235 l7 -128 34 -6 c55 -10 130 3 197 34 121 57 162 115
175 252 10 98 19 108 124 161 93 47 154 100 178 154 33 72 23 264 -31 590 -92
556 -280 984 -602 1370 -163 196 -482 498 -609 578 l-46 28 5 140 c5 148 -10
280 -34 300 -8 6 -29 15 -46 18 -30 6 -33 11 -40 53 -9 66 -64 172 -109 213
-27 24 -39 43 -39 62 0 89 -65 226 -149 316 -64 68 -129 109 -203 127 -43 11
-47 15 -57 53 -27 110 -151 237 -294 302 -107 49 -283 76 -373 57 -42 -9 -48
-8 -95 23 -27 19 -75 41 -106 50 -76 22 -223 28 -294 12z m306 -47 c33 -11 77
-32 97 -45 36 -24 43 -25 137 -19 83 6 113 3 188 -15 109 -27 211 -82 292
-156 91 -85 155 -197 128 -224 -8 -8 -1 -11 24 -11 44 0 140 -47 198 -97 85
-72 160 -213 178 -333 4 -22 20 -50 44 -75 21 -22 49 -64 64 -92 26 -53 57
-144 51 -150 -2 -2 -16 -6 -32 -8 -84 -14 -104 -18 -159 -37 -32 -11 -72 -29
-88 -40 -15 -11 -30 -18 -32 -16 -3 2 -1 27 4 55 12 79 -27 270 -78 378 -38
81 -141 218 -193 256 -37 26 -49 30 -86 26 -107 -12 -302 -152 -368 -265 l-28
-47 -8 30 c-17 61 34 246 107 384 21 41 26 56 14 41 -34 -41 -91 -160 -115
-240 -12 -41 -25 -68 -28 -60 -3 8 -12 39 -20 67 -93 325 -428 574 -697 518
-145 -31 -308 -160 -422 -336 -55 -84 -117 -219 -117 -254 0 -15 -2 -16 -16
-4 -37 30 -99 155 -130 259 l-14 45 4 -42 c6 -62 53 -177 101 -248 l43 -62
-10 -59 c-9 -56 -6 -154 8 -236 l6 -37 -63 34 c-97 51 -204 77 -323 78 -65 0
-115 -4 -141 -14 -35 -12 -42 -20 -60 -69 -16 -45 -19 -81 -20 -199 l0 -143
-54 58 c-30 33 -44 45 -32 27 12 -18 41 -53 64 -78 33 -35 47 -61 61 -113 10
-37 35 -102 56 -144 21 -43 36 -78 32 -78 -4 0 -27 7 -52 16 -35 12 -66 15
-135 10 l-90 -7 -20 63 c-26 81 -28 232 -4 268 9 14 15 36 14 50 -5 48 15 206
35 278 25 91 67 184 117 259 67 101 211 229 254 226 12 -1 21 13 30 45 19 70
98 209 149 262 53 55 145 118 215 147 71 30 192 53 279 53 69 0 76 2 107 31
54 51 163 97 264 113 63 9 210 -3 270 -24z m-198 -209 c91 -28 168 -76 255
-159 151 -144 224 -302 262 -566 l12 -81 19 50 c29 77 77 147 138 200 68 61
163 119 228 140 l50 17 37 -34 c168 -149 262 -373 262 -622 l0 -106 50 31 c76
47 183 80 281 86 84 6 86 5 93 -18 14 -47 19 -317 7 -381 -17 -88 -48 -187
-71 -226 -11 -18 -20 -35 -20 -38 0 -3 33 -2 73 2 45 3 83 2 101 -5 l29 -12
-7 -67 c-15 -142 -66 -275 -136 -355 -32 -36 -40 -40 -53 -29 -14 12 -12 18
19 59 75 98 147 288 128 337 -7 18 -69 20 -164 7 -30 -5 -56 -8 -57 -6 -2 1 8
35 22 76 62 180 92 380 75 501 -6 40 -14 76 -19 81 -17 17 -311 -75 -378 -119
-12 -8 -25 -14 -28 -14 -3 0 -5 24 -5 53 0 66 -25 238 -45 320 -44 170 -166
407 -211 407 -34 0 -103 -44 -171 -108 -93 -89 -156 -168 -223 -279 -30 -51
-58 -93 -61 -93 -4 0 -10 21 -14 48 -19 132 -75 311 -142 448 -80 166 -188
288 -311 350 -49 25 -68 29 -137 29 -68 -1 -88 -5 -135 -29 -131 -68 -291
-274 -355 -455 -47 -133 -69 -327 -53 -454 6 -43 8 -80 6 -83 -3 -2 -43 15
-89 40 -112 58 -207 91 -304 106 -88 13 -205 6 -217 -13 -14 -23 -8 -137 13
-234 11 -53 52 -186 90 -296 38 -110 68 -202 65 -204 -2 -2 -63 7 -135 21
-194 38 -251 35 -251 -15 0 -71 87 -261 160 -349 42 -51 90 -121 90 -132 0 -3
-26 -14 -57 -23 -85 -24 -173 -57 -179 -66 -15 -25 89 -206 170 -296 43 -47
144 -116 171 -116 11 0 35 -44 35 -63 0 -11 -37 -1 -83 22 -177 90 -319 277
-352 465 -6 30 -3 37 12 42 10 3 45 15 77 26 33 12 77 21 99 21 l40 0 -37 43
c-156 181 -212 306 -204 457 l3 64 35 8 c82 17 174 11 244 -17 37 -15 69 -25
71 -23 2 1 -16 44 -40 93 -98 208 -138 386 -117 532 17 120 22 129 83 143 87
21 231 7 348 -33 54 -19 115 -46 137 -61 21 -14 40 -22 42 -16 2 5 -1 33 -7
60 -35 163 8 396 103 555 89 149 243 299 367 355 59 26 181 27 266 1z m4 -119
c98 -47 144 -85 211 -175 98 -131 184 -336 234 -558 14 -62 29 -119 33 -127 6
-10 25 13 66 79 88 140 131 196 214 280 66 66 161 139 182 139 22 0 129 -202
167 -316 32 -95 67 -279 78 -405 l7 -77 76 38 c77 39 252 97 306 102 30 3 30
3 36 -57 12 -120 -13 -298 -67 -485 -13 -46 -24 -91 -24 -98 0 -15 43 -14 179
5 l44 6 -6 -51 c-10 -85 -73 -220 -142 -307 -31 -37 -41 -27 -49 48 -6 56 -6
57 19 57 33 0 81 25 89 45 18 48 -1 100 -41 116 -20 7 -35 5 -64 -9 l-38 -19
-6 26 c-12 48 -62 166 -94 219 -17 29 -31 56 -31 60 0 5 15 13 34 20 47 17 68
44 73 95 14 119 -115 177 -191 86 -14 -17 -26 -37 -26 -45 0 -23 -14 -16 -55
27 -49 50 -129 106 -215 149 -36 18 -66 34 -68 35 -2 2 6 20 17 41 26 48 26
79 3 123 -64 119 -231 76 -236 -60 -1 -16 -3 -29 -6 -29 -3 0 -42 7 -88 15
-113 20 -320 29 -414 18 l-78 -9 0 53 c0 44 5 59 25 81 60 65 78 165 51 290
-32 155 -130 301 -238 355 -68 34 -103 34 -159 -2 -60 -37 -94 -73 -140 -143
-59 -92 -84 -176 -84 -288 1 -85 4 -101 30 -154 18 -35 49 -76 77 -100 31 -27
48 -49 48 -64 0 -12 7 -39 15 -59 20 -47 20 -50 -14 -56 -41 -8 -215 -88 -286
-131 -33 -20 -65 -36 -72 -36 -6 0 -20 16 -32 35 -24 42 -70 71 -123 80 -51 9
-125 -27 -152 -74 -35 -62 -19 -147 39 -205 31 -31 31 -37 0 -66 -27 -25 -122
-164 -149 -217 -19 -37 -21 -38 -56 -18 -40 23 -103 19 -128 -8 -30 -32 -40
-66 -31 -105 10 -45 44 -80 86 -88 18 -3 33 -8 33 -9 0 -2 -6 -34 -14 -72 -8
-37 -17 -95 -21 -128 l-6 -60 -37 3 c-95 9 -136 -116 -60 -184 12 -11 37 -19
65 -20 l47 -2 13 -48 c32 -119 31 -121 -33 -78 -57 38 -109 90 -164 164 -51
69 -116 187 -108 195 2 3 56 22 118 44 63 21 116 44 118 49 5 15 -9 38 -84
144 -36 51 -80 120 -96 153 -29 57 -78 188 -78 208 0 15 165 1 255 -22 44 -12
92 -21 108 -21 23 0 27 4 27 29 0 17 -23 96 -51 178 -74 213 -109 354 -116
462 l-6 94 121 -6 c138 -7 204 -25 375 -106 60 -28 112 -51 116 -51 4 0 7 80
7 178 -1 190 9 255 60 390 63 169 201 355 307 417 108 62 166 66 268 17z m-50
-234 c136 -72 241 -269 243 -453 0 -60 -4 -78 -27 -117 -30 -51 -49 -68 -55
-49 -9 26 -56 73 -93 91 -103 53 -211 5 -264 -118 l-15 -34 -30 22 c-17 12
-45 50 -62 83 -71 139 -39 333 80 491 42 57 111 105 149 106 17 0 50 -10 74
-22z m31 -538 c73 -21 128 -110 128 -208 0 -40 1 -43 23 -36 47 16 388 6 495
-13 l102 -19 0 33 c0 55 24 98 65 117 61 29 127 0 146 -63 10 -32 8 -45 -11
-90 -13 -28 -21 -53 -19 -55 2 -2 33 -18 69 -36 91 -46 166 -98 241 -169 35
-34 65 -61 66 -61 1 0 0 13 -3 29 -9 43 45 101 95 101 41 0 51 -5 74 -40 43
-63 -8 -152 -87 -152 -32 0 -32 -4 0 -52 36 -52 96 -187 119 -264 l18 -62 20
20 c31 34 66 43 93 25 32 -21 32 -64 -1 -95 -20 -19 -31 -22 -63 -17 l-38 7 9
-66 c5 -36 7 -67 4 -71 -3 -3 -21 -7 -40 -10 l-34 -4 -16 104 c-27 172 -75
287 -184 431 -83 110 -147 161 -298 236 -289 143 -646 186 -955 114 -192 -45
-417 -140 -569 -241 -104 -69 -279 -241 -343 -338 -113 -169 -152 -292 -152
-475 1 -183 31 -341 92 -482 20 -45 20 -47 2 -63 -18 -16 -20 -15 -42 22 -35
56 -72 147 -98 243 -12 47 -24 91 -26 99 -3 9 -14 11 -38 7 -73 -14 -128 43
-106 110 17 50 77 73 108 42 19 -19 32 7 32 62 0 42 23 192 35 230 4 14 -3 18
-36 23 -56 7 -89 40 -89 87 0 82 76 118 138 65 17 -14 34 -25 38 -25 5 0 17
17 26 38 27 57 96 161 150 224 26 31 48 60 48 63 0 4 -11 16 -25 27 -27 21
-52 64 -65 110 -22 73 43 151 125 151 64 0 100 -27 161 -122 2 -2 44 21 94 49
50 29 144 74 208 101 64 26 118 52 120 58 2 5 -4 31 -13 56 -19 56 -13 103 21
162 44 77 106 105 186 83z m436 -360 c197 -18 396 -72 555 -151 125 -62 194
-122 281 -245 102 -143 143 -246 167 -410 l12 -90 -26 -39 -26 -38 -83 0 c-46
0 -85 -2 -88 -6 -5 -6 -56 -27 -92 -38 -12 -4 -24 6 -39 32 -19 31 -23 55 -25
134 -2 93 -26 203 -54 248 -12 20 -14 29 14 -82 22 -87 29 -166 22 -229 -7
-51 -10 -56 -32 -56 -16 0 -24 6 -25 18 -1 16 -2 16 -6 0 -2 -10 -13 -18 -23
-18 -18 0 -27 18 -51 95 -15 51 -62 144 -104 209 -19 28 -46 85 -61 126 -33
92 -92 205 -151 288 -55 77 -66 81 -18 7 56 -88 140 -264 163 -340 23 -78 49
-217 54 -285 l3 -44 -95 -23 c-89 -21 -96 -22 -107 -6 -12 16 -13 16 -13 0 0
-16 -40 -26 -40 -9 -1 21 -49 184 -49 167 -1 -21 23 -127 34 -157 6 -14 2 -18
-14 -18 -16 0 -26 11 -38 43 -9 23 -42 94 -73 157 -31 63 -65 140 -75 170 -24
76 -97 251 -102 247 -2 -3 9 -38 25 -78 48 -120 162 -515 162 -559 0 -9 -15
-27 -32 -40 -35 -26 -122 -70 -137 -70 -14 0 -107 250 -126 337 -3 18 -10 35
-14 38 -12 7 45 -195 83 -297 18 -48 31 -90 27 -92 -19 -10 -67 -16 -91 -11
-32 7 -45 32 -71 139 -9 39 -17 60 -17 46 -1 -14 7 -56 17 -95 11 -38 17 -73
14 -77 -2 -5 -22 -8 -44 -8 -38 0 -41 2 -60 47 -44 104 -61 185 -66 333 l-6
145 -20 -95 c-27 -132 -27 -329 0 -422 11 -38 16 -68 11 -68 -20 0 -65 30 -99
67 -116 124 -164 236 -199 463 -17 111 -18 113 -19 50 0 -36 7 -96 15 -135 8
-38 19 -140 24 -225 7 -138 20 -214 45 -274 8 -17 5 -18 -31 -12 -116 22 -208
128 -274 316 -30 85 -40 324 -16 410 19 71 13 76 -10 8 -29 -81 -27 -315 3
-418 12 -41 26 -115 33 -165 6 -49 25 -128 41 -175 16 -47 32 -94 36 -104 6
-18 2 -19 -53 -13 l-59 6 24 -20 c13 -10 29 -19 37 -19 15 0 17 -10 8 -34 -10
-25 -39 -19 -89 20 -62 47 -88 77 -125 146 -56 104 -81 235 -62 331 7 37 7 46
-2 37 -7 -7 -11 -55 -11 -133 0 -116 2 -126 34 -200 37 -86 106 -170 166 -202
25 -14 35 -26 33 -40 -3 -17 -14 -21 -68 -28 -35 -4 -91 -19 -124 -32 -46 -18
-62 -21 -68 -12 -18 27 -69 203 -84 290 -23 130 -23 345 0 417 60 184 201 375
384 521 210 168 532 298 812 328 108 12 123 12 248 1z m1346 -269 c59 -41 211
-178 335 -302 538 -538 760 -995 886 -1822 52 -346 27 -426 -167 -521 -117
-58 -119 -61 -137 -190 -17 -118 -46 -161 -145 -212 -54 -28 -176 -57 -200
-48 -11 4 -16 19 -16 43 0 57 -29 455 -40 566 -86 820 -281 1610 -471 1914
l-40 63 16 47 c8 25 18 67 21 94 4 26 12 47 18 47 12 -1 44 -42 133 -175 179
-266 347 -599 471 -933 31 -84 58 -149 60 -144 4 12 -114 330 -166 447 -137
313 -350 673 -484 819 -12 13 -18 36 -18 67 0 62 -15 73 -107 78 -64 3 -73 5
-67 20 4 9 16 41 26 71 31 85 37 100 43 100 4 0 26 -13 49 -29z m-904 -565
c22 -52 40 -98 40 -104 0 -27 -56 -50 -140 -55 -47 -3 -97 -9 -112 -13 -17 -4
-28 -2 -28 4 0 11 86 35 126 35 19 0 22 2 14 12 -9 10 -6 14 12 17 22 3 23 7
23 73 0 39 -4 97 -8 130 l-8 60 21 -33 c11 -18 38 -75 60 -126z m948 -43 c174
-336 335 -980 426 -1708 39 -320 40 -290 -5 -305 -57 -19 -114 -72 -159 -150
-58 -99 -87 -130 -150 -158 -88 -39 -203 -42 -327 -7 -126 35 -133 39 -102 55
49 26 160 123 198 173 49 64 94 156 110 221 7 27 12 96 12 154 0 90 -3 108
-20 126 -11 12 -21 32 -23 46 -1 13 -12 29 -23 35 -11 5 -30 19 -42 30 -51 48
-57 51 -51 29 6 -25 -33 -99 -53 -99 -10 0 -13 12 -12 45 2 39 0 43 -11 27
-11 -15 -15 -15 -25 -3 -14 17 -7 23 53 42 38 12 39 13 11 13 -16 1 -43 -6
-58 -14 -26 -13 -31 -13 -53 3 -29 21 -29 23 1 68 33 48 40 95 26 160 -11 46
-10 56 5 79 25 38 24 126 -2 162 -17 22 -19 34 -12 53 17 45 5 155 -21 190
-22 30 -22 33 -7 65 9 19 16 60 16 97 l0 63 49 32 48 31 61 -191 c58 -182 116
-406 143 -545 6 -34 14 -61 16 -58 6 6 -33 209 -69 356 -16 69 -54 199 -84
289 l-54 163 27 57 c37 76 44 198 15 259 l-19 40 34 39 c18 21 43 55 55 76 12
20 25 37 29 37 4 0 25 -35 47 -77z m-1928 -33 c16 -88 69 -210 97 -223 15 -6
32 -6 54 2 24 8 42 8 70 0 42 -13 85 -3 200 49 87 39 121 75 113 117 -4 21 -1
35 9 43 12 10 17 6 31 -28 14 -35 20 -41 44 -40 15 1 40 2 57 1 l30 -1 -39
-26 -38 -26 -31 23 -31 22 24 -34 c13 -19 29 -37 35 -41 5 -4 8 -8 5 -9 -17
-5 -60 -11 -87 -12 -41 -3 -32 -15 16 -23 37 -6 38 -7 28 -34 -8 -22 -7 -31 5
-44 14 -14 17 -13 28 14 15 37 100 117 143 134 47 20 121 31 113 17 -4 -6 -13
-11 -20 -11 -26 0 -109 -85 -132 -135 -25 -52 -31 -100 -15 -109 5 -4 23 7 39
24 35 34 95 42 106 14 20 -53 -17 -99 -89 -111 -32 -5 -34 -8 -29 -32 9 -38
41 -86 75 -116 28 -23 29 -25 9 -25 -11 0 -36 6 -55 14 -19 8 -34 11 -32 7 1
-5 -9 -18 -23 -30 l-25 -21 35 14 c23 9 43 11 58 5 20 -7 21 -12 12 -30 -11
-19 -10 -20 9 -10 11 6 23 16 26 21 3 6 33 10 66 10 54 0 59 -2 60 -22 1 -23
1 -23 8 1 4 15 20 29 46 39 22 8 55 26 73 39 26 20 41 24 70 19 32 -5 34 -4
15 6 -33 16 -29 24 20 35 39 10 40 11 11 12 l-32 1 19 37 c14 27 19 58 19 111
0 97 16 92 53 -17 26 -77 27 -85 12 -107 -26 -40 -38 -117 -25 -166 7 -23 18
-50 27 -59 13 -15 8 -23 -44 -74 -210 -207 -541 -390 -823 -456 -31 -8 -114
-13 -190 -13 -117 1 -152 5 -263 32 -187 46 -254 75 -305 129 -47 50 -57 70
-108 216 -19 54 -44 115 -55 135 -14 27 -16 38 -7 41 7 2 14 -1 16 -7 9 -29
19 -7 20 42 1 85 37 151 115 210 42 32 62 28 29 -7 -44 -47 -68 -156 -43 -197
8 -12 14 -9 37 13 36 36 87 37 110 2 31 -47 -5 -95 -71 -95 -14 0 -25 -3 -25
-7 0 -12 62 -78 85 -91 17 -10 14 -11 -23 -12 -23 0 -59 7 -80 15 l-37 15 30
-25 c27 -23 28 -27 13 -36 -10 -5 -18 -15 -18 -22 0 -8 2 -9 8 -1 12 18 49 34
78 34 23 0 25 -2 14 -15 -7 -9 -10 -18 -6 -22 3 -3 6 -2 6 4 0 14 61 43 90 43
15 0 20 -5 17 -14 -9 -24 6 -27 17 -4 6 12 24 26 39 31 23 7 31 5 43 -9 15
-18 15 -18 11 4 -6 26 16 42 46 34 14 -4 18 -1 13 7 -4 6 -3 18 4 26 6 8 7 16
2 19 -6 3 -4 21 4 43 22 64 18 148 -12 207 -67 133 -179 185 -310 140 -46 -16
-71 -12 -44 7 11 8 7 9 -16 5 -17 -3 -36 0 -43 7 -8 8 -11 6 -11 -11 0 -12 -9
-26 -20 -32 -17 -9 -22 -7 -30 15 -17 44 -12 64 21 81 30 15 34 14 91 -10 52
-23 138 -36 138 -21 0 3 -9 31 -19 63 -17 51 -41 212 -41 274 0 16 13 -1 41
-52 52 -95 116 -171 173 -204 53 -31 92 -35 81 -8 -20 49 -45 207 -44 282 0
93 9 87 29 -20z m1694 -23 c60 -33 81 -77 81 -167 0 -98 -38 -186 -98 -230
-23 -17 -46 -30 -52 -30 -21 0 -43 56 -50 126 -6 64 -5 72 12 76 29 7 52 -2
58 -23 4 -10 11 -19 16 -19 13 0 11 13 -7 39 -13 18 -24 22 -54 19 -33 -3 -39
0 -43 18 -5 30 19 85 46 106 42 33 78 20 116 -42 19 -31 21 -33 21 -11 0 13
-15 38 -34 57 -45 45 -77 45 -123 -1 -20 -20 -37 -34 -38 -33 -1 2 -7 17 -13
34 -8 26 -7 37 8 62 10 16 24 32 32 35 30 12 86 5 122 -16z m-184 -79 c11 -28
40 -204 40 -247 0 -34 7 -30 -118 -56 -40 -8 -82 -20 -92 -25 -36 -19 -46 -11
-63 54 -23 85 -22 92 11 102 l27 8 -35 5 c-45 8 -54 45 -18 73 l23 18 -30 -2
c-51 -5 -43 25 14 52 58 27 106 37 179 39 46 1 54 -2 62 -21z m-2830 -248 c0
-5 27 -38 60 -73 33 -36 60 -69 60 -74 0 -5 -16 -25 -36 -44 -45 -44 -172
-207 -256 -329 -242 -352 -434 -802 -512 -1195 -35 -182 -47 -320 -48 -555 l0
-235 -49 55 c-71 78 -171 231 -219 332 -46 99 -50 140 -25 284 32 181 117 469
192 654 47 114 152 325 205 411 126 205 339 482 530 692 75 82 98 100 98 77z
m2443 -53 c-8 -12 -9 -17 -11 -50 -1 -11 -9 -17 -19 -15 -13 2 -19 -5 -21 -25
-2 -15 -8 -25 -13 -22 -5 3 -6 -1 -3 -9 3 -9 1 -16 -4 -16 -6 0 -13 8 -15 18
-3 10 -5 6 -6 -10 0 -16 -3 -28 -5 -28 -2 0 -11 -3 -19 -6 -10 -3 -17 2 -20
13 -4 14 -5 14 -6 -4 -1 -14 -7 -23 -17 -23 -13 0 -15 7 -11 33 l6 32 -16 -32
c-17 -33 -40 -47 -29 -17 5 13 4 14 -7 6 -24 -20 -26 -2 -5 36 l20 37 -31 -34
c-33 -38 -57 -36 -25 1 l19 23 -26 -23 c-33 -29 -46 -16 -17 16 l23 25 -32
-17 c-56 -28 -45 1 12 33 l56 32 29 -21 c54 -39 124 -24 162 34 12 19 26 32
30 29 5 -2 5 -10 1 -16z m455 -32 c24 -30 36 -118 22 -164 -10 -37 -56 -91
-75 -91 -8 0 -10 10 -7 25 2 15 0 25 -7 25 -6 0 -11 -8 -11 -18 0 -23 -34 -60
-67 -73 -65 -25 -124 -3 -153 56 -24 49 -25 88 -5 144 23 65 45 79 165 105 96
21 116 20 138 -9z m-2711 -101 c21 -14 37 -30 36 -34 -2 -5 -29 -48 -61 -97
-33 -48 -82 -131 -110 -183 -52 -98 -146 -319 -139 -326 2 -3 12 17 22 43 35
96 159 331 235 445 l77 116 63 -21 c51 -18 66 -29 82 -57 10 -19 24 -44 31
-55 6 -11 10 -25 9 -32 -3 -13 99 -222 129 -265 15 -21 17 -32 9 -53 -24 -64
-7 -170 34 -204 13 -11 13 -16 0 -46 -35 -84 0 -220 67 -263 28 -18 30 -23 32
-88 2 -56 8 -79 30 -117 16 -26 37 -53 47 -59 19 -12 19 -13 0 -43 -10 -16
-24 -58 -31 -91 -11 -56 -11 -68 9 -128 12 -37 22 -68 22 -70 0 -2 -26 -7 -57
-10 -119 -14 -540 -100 -596 -122 -15 -5 -17 4 -17 78 0 173 63 608 130 903
17 72 32 141 35 155 l6 25 -11 -24 c-15 -33 -57 -204 -85 -343 -58 -282 -85
-503 -85 -691 l0 -108 -62 -28 c-35 -15 -78 -40 -96 -56 -34 -28 -72 -92 -72
-120 0 -9 -9 -15 -22 -15 -13 0 -67 -11 -121 -24 -53 -13 -100 -20 -102 -16
-15 24 35 477 71 645 35 161 37 177 20 132 -46 -116 -90 -401 -104 -661 l-7
-130 -100 -28 c-55 -16 -124 -40 -154 -54 -29 -13 -55 -24 -57 -24 -2 0 -4 55
-4 123 0 536 199 1136 553 1667 115 172 278 380 298 380 4 0 25 -12 46 -26z
m1096 -60 c-3 -8 1 -14 8 -14 9 -1 8 -4 -4 -11 -10 -6 -14 -15 -10 -22 13 -20
11 -76 -3 -70 -18 7 -28 -16 -13 -33 19 -23 2 -29 -23 -8 l-22 19 17 -27 c10
-16 13 -28 8 -28 -5 0 -16 -3 -24 -6 -11 -4 -17 2 -20 18 -4 21 -4 20 -6 -4
-2 -41 -31 -37 -32 5 l-2 32 -7 -35 c-4 -21 -8 -27 -9 -15 l-2 20 -9 -20 c-8
-19 -9 -18 -9 4 -1 24 -1 24 -16 5 -17 -22 -20 -12 -5 17 14 26 3 24 -21 -3
-14 -17 -17 -18 -13 -5 5 13 2 16 -12 10 -12 -4 -15 -3 -10 6 5 7 14 10 22 7
8 -3 14 1 14 8 0 20 19 24 58 14 66 -18 122 41 122 131 0 37 2 42 14 31 8 -6
12 -18 9 -26z m-558 -64 c8 -16 14 -32 13 -36 -2 -3 5 -10 15 -15 30 -17 19
-26 -40 -33 -63 -7 -131 -34 -179 -71 l-32 -25 -27 48 -27 47 39 33 c42 37 89
60 143 72 66 14 79 12 95 -20z m2207 -70 c23 -44 23 -123 2 -160 -15 -25 -61
-60 -79 -60 -4 0 -5 11 -3 25 3 14 4 25 3 25 -1 0 -23 -20 -48 -45 -43 -41
-52 -45 -98 -45 -45 0 -55 4 -85 34 -32 32 -34 38 -34 103 0 42 5 76 13 87 12
17 17 17 49 6 42 -15 113 0 149 31 12 11 32 19 45 19 13 0 26 5 29 11 12 19
40 4 57 -31z m-2116 -100 c38 -105 41 -101 -91 -139 -63 -18 -121 -31 -128
-28 -8 3 -29 35 -48 72 l-34 66 30 25 c51 43 145 74 209 71 38 -2 39 -3 62
-67z m1771 -128 c18 -25 21 -38 16 -90 -5 -49 -2 -68 15 -101 18 -33 19 -45
10 -77 -13 -50 -4 -101 23 -131 31 -32 12 -54 -24 -27 -20 16 -24 25 -20 55 4
28 1 38 -12 43 -9 3 -21 3 -26 0 -5 -3 -18 5 -29 18 l-19 23 -33 -33 -34 -32
-40 38 c-66 62 -165 80 -238 43 -21 -11 -52 -23 -68 -27 l-31 -6 6 38 c4 22 7
51 7 66 0 23 9 32 52 54 84 43 237 147 328 224 l85 73 5 -61 c3 -40 12 -70 27
-90z m379 -28 c16 -84 -32 -164 -99 -164 -32 0 -34 2 -29 26 3 19 1 25 -7 20
-6 -4 -11 -14 -11 -22 0 -25 -56 -74 -84 -74 -57 0 -96 38 -110 108 -3 19 -3
44 0 56 5 20 11 23 62 22 41 0 69 6 100 22 23 12 53 22 65 22 12 0 36 8 52 19
36 22 52 13 61 -35z m-2085 -19 c10 -26 32 -66 49 -87 44 -55 45 -111 1 -150
-31 -28 -93 -39 -105 -19 -4 5 -19 3 -36 -5 -43 -22 -107 -20 -138 3 -54 40
-66 67 -64 144 1 45 6 77 14 84 7 7 62 25 121 40 59 16 110 32 113 37 11 18
27 1 45 -47z m214 -187 c188 -69 393 -99 538 -80 l68 9 -6 -26 c-8 -33 -4 -31
-50 -21 -54 13 -162 12 -209 -1 -55 -15 -141 -99 -160 -157 -22 -62 -20 -143
4 -227 11 -38 20 -87 20 -107 l0 -37 -37 35 c-21 19 -55 44 -75 55 -37 19 -38
21 -38 75 0 69 -29 128 -75 155 l-34 20 5 62 c6 71 -12 136 -50 177 -19 20
-22 33 -18 68 3 36 7 42 21 36 9 -4 52 -20 96 -36z m969 -7 c-7 -55 2 -125 16
-116 13 8 69 -83 85 -139 18 -61 18 -66 1 -66 -8 0 -37 -18 -65 -40 l-50 -40
-79 22 -78 23 -40 80 c-28 58 -51 88 -81 111 -23 18 -47 34 -53 36 -6 2 -8 16
-4 35 6 29 11 32 73 48 76 19 190 58 229 80 47 25 53 20 46 -34z m890 17 c14
-53 0 -114 -36 -162 -23 -29 -68 -15 -69 22 0 22 -2 24 -8 8 -8 -21 -123 -59
-153 -50 -18 5 -48 62 -48 92 0 12 5 33 10 48 8 21 14 24 22 16 19 -19 92 -14
121 8 14 11 38 20 54 21 15 1 39 5 53 9 40 13 47 11 54 -12z m-589 -83 c22
-12 48 -32 58 -43 17 -19 17 -23 -26 -113 -24 -52 -54 -118 -67 -146 -13 -29
-26 -53 -30 -53 -3 0 -11 14 -18 32 -6 17 -14 29 -18 26 -3 -4 0 -22 7 -42 7
-20 11 -37 8 -39 -14 -12 -251 -167 -254 -167 -3 0 -5 9 -5 19 0 11 -9 41 -20
67 -11 26 -19 49 -17 51 2 2 16 -1 31 -7 15 -5 33 -10 40 -10 19 0 184 128
197 152 25 46 -6 177 -58 246 -14 18 -23 35 -21 37 30 31 133 25 193 -10z
m-1377 -23 c42 -57 50 -142 20 -207 -11 -25 -78 -60 -99 -53 -9 3 -13 20 -12
49 l2 44 -11 -38 c-17 -61 -80 -95 -145 -78 -95 26 -149 136 -120 243 7 27 8
28 66 22 42 -5 67 -2 89 8 19 10 47 14 78 11 35 -3 55 0 69 11 29 22 41 20 63
-12z m1196 -21 c31 -44 56 -127 56 -186 0 -38 -4 -44 -52 -80 -29 -22 -69 -55
-89 -72 l-36 -33 -52 19 c-48 17 -101 55 -101 72 0 4 31 -1 69 -12 l70 -20 59
43 c33 24 67 48 77 53 17 10 17 14 -4 78 -13 38 -39 89 -58 114 -27 36 -32 48
-21 54 29 19 55 9 82 -30z m411 -1 c10 -16 -33 -83 -69 -107 -19 -12 -44 -37
-56 -55 l-22 -33 24 26 c24 27 125 89 146 89 7 0 12 -7 12 -15 0 -27 -29 -61
-79 -93 -26 -18 -55 -40 -62 -49 -12 -16 -11 -16 16 1 17 11 39 25 50 33 28
19 35 16 35 -12 0 -15 -15 -42 -38 -68 -21 -23 -51 -68 -66 -100 -20 -42 -40
-65 -74 -89 -26 -17 -65 -52 -87 -77 -87 -102 -243 -254 -290 -285 -27 -18
-67 -39 -88 -46 -44 -14 -107 -6 -107 14 0 7 29 74 64 148 73 154 78 158 268
288 132 91 166 129 198 224 22 68 67 119 156 181 54 37 60 40 69 25z m-948
-24 c127 -34 161 -67 229 -228 15 -37 31 -65 34 -63 13 8 79 -118 86 -161 5
-36 2 -48 -17 -73 -32 -41 -65 -38 -61 4 l3 30 -26 -37 c-27 -41 -82 -75 -96
-61 -4 4 -33 55 -63 113 -31 58 -56 97 -56 87 0 -9 25 -65 55 -123 30 -59 55
-115 55 -126 0 -11 -8 -33 -17 -49 -14 -24 -24 -29 -54 -29 -20 0 -56 7 -79
15 -24 8 -45 13 -47 11 -9 -9 58 -36 102 -43 27 -3 45 -11 45 -19 0 -17 -22
-67 -34 -75 -20 -15 -127 -31 -161 -25 -41 8 -121 80 -150 135 -19 37 -59 173
-70 236 l-6 40 46 -50 46 -50 -49 75 c-64 99 -82 147 -82 224 0 101 40 177
118 227 40 25 55 29 121 29 42 0 100 -7 128 -14z m1238 -58 c24 -29 27 -38 22
-85 -6 -57 -50 -158 -93 -213 -62 -79 -186 -189 -246 -219 -109 -55 -198 -35
-198 44 0 26 7 38 29 54 37 26 39 26 39 -4 0 -42 21 -58 69 -52 114 13 296
231 310 372 5 47 3 54 -17 65 -32 17 -83 4 -135 -35 -25 -19 -50 -35 -55 -35
-16 0 -12 15 10 35 11 10 20 24 20 31 0 7 24 24 53 37 73 34 77 35 124 36 35
1 45 -4 68 -31z m-91 -54 c46 -45 -22 -193 -144 -315 -84 -84 -178 -125 -194
-83 -10 25 -7 72 5 80 6 3 24 33 39 65 15 33 46 79 69 104 22 24 41 50 41 57
1 18 81 80 122 95 43 16 44 16 62 -3z m202 -108 l46 -88 -79 7 c-43 4 -79 8
-81 10 -1 1 7 23 18 49 11 27 20 70 20 99 1 49 2 51 16 32 8 -11 35 -60 60
-109z m-1920 9 c33 -33 54 -85 54 -134 0 -35 -5 -42 -47 -73 -74 -53 -71 -52
-87 -13 -8 19 -20 35 -25 35 -15 0 -14 -6 5 -35 8 -13 14 -36 12 -52 -3 -28
-4 -28 -74 -28 -62 0 -75 3 -107 28 -58 44 -84 109 -78 195 1 19 7 22 41 22
23 0 55 7 72 16 17 9 55 17 84 17 41 2 59 7 76 25 29 28 43 28 74 -3z m2028
-116 c-1 -83 -96 -249 -189 -330 -81 -71 -213 -149 -253 -149 -17 0 -42 18
-42 30 0 3 34 24 77 46 50 25 105 66 159 117 129 122 169 180 219 325 11 30
30 4 29 -39z m-65 -4 c13 -14 -87 -175 -109 -175 -4 0 -15 33 -24 73 -9 39
-19 83 -23 96 l-6 24 78 -6 c43 -4 81 -9 84 -12z m-151 -100 c11 -49 19 -92
17 -93 -2 -2 -47 2 -100 9 l-96 14 57 60 c30 33 63 72 72 87 9 15 19 24 23 20
4 -4 16 -47 27 -97z m-1697 -13 c81 -55 118 -95 135 -145 9 -29 30 -81 45
-116 16 -35 27 -67 24 -69 -3 -3 -20 5 -38 18 -56 42 -131 90 -140 90 -5 0 17
-20 49 -44 33 -25 70 -53 83 -64 l23 -19 -38 -29 c-39 -30 -39 -30 -99 -17
-33 8 -105 15 -160 17 l-100 3 -18 34 c-42 79 2 232 88 306 65 56 102 65 146
35z m1632 -93 c42 -7 66 -16 64 -23 -5 -14 -126 -117 -161 -135 -14 -8 -28
-12 -31 -9 -3 3 -3 47 1 97 l7 92 26 -5 c14 -2 57 -10 94 -17z m-1917 -6 l50
-5 -18 -38 c-28 -56 -34 -137 -14 -184 9 -21 16 -42 16 -47 0 -5 -28 -9 -63
-9 -63 0 -64 0 -80 35 -36 74 -34 172 4 234 15 24 24 31 37 26 9 -4 40 -10 68
-12z m1454 -23 c-1 -8 41 -54 92 -102 l93 -88 -76 0 c-87 0 -108 11 -158 83
-31 46 -30 63 10 119 17 23 24 27 30 16 5 -7 9 -20 9 -28z m318 -50 c-3 -50
-8 -93 -10 -96 -8 -8 -168 34 -194 51 -32 21 -30 35 4 35 33 0 124 42 164 75
16 14 32 25 35 25 3 0 3 -41 1 -90z m522 68 c0 -26 -70 -159 -84 -162 -10 -1
-56 126 -56 154 0 13 12 17 57 19 32 1 60 4 62 7 11 11 21 2 21 -18z m-114
-175 c-4 -4 -168 17 -174 23 -2 1 25 37 60 79 l63 76 28 -87 c15 -48 26 -89
23 -91z m-1172 121 c-1 -22 -90 -227 -110 -252 -1 -2 -18 1 -38 8 l-35 11 15
34 c8 19 14 45 14 57 0 13 9 29 20 36 12 7 22 28 26 52 5 33 13 44 48 64 50
29 61 27 60 -10z m316 -113 c-27 -80 -26 -93 10 -114 29 -18 40 -37 21 -37 -6
0 -78 -67 -160 -148 l-151 -149 0 49 c0 46 1 49 23 43 21 -7 21 -6 3 8 -15 11
-19 25 -18 63 2 49 20 104 34 104 5 0 8 4 8 10 0 5 -7 7 -15 4 -38 -15 -8 15
54 55 38 23 99 74 137 112 37 38 69 67 71 65 2 -2 -5 -31 -17 -65z m184 -61
c28 -6 73 -8 102 -4 49 6 53 4 108 -38 30 -23 52 -44 47 -46 -5 -2 -42 4 -83
12 -107 22 -257 39 -294 33 -24 -4 -37 0 -49 13 -16 18 -16 22 0 72 10 29 20
57 23 62 2 5 26 -14 51 -43 38 -42 55 -53 95 -61z m574 45 c96 -10 104 -17 67
-55 -31 -33 -141 -110 -156 -110 -5 0 -9 41 -9 91 0 74 3 90 14 86 8 -3 45 -9
84 -12z m-116 -77 c2 -46 2 -85 1 -87 -4 -6 -164 42 -182 55 -14 11 -7 17 49
43 36 16 76 39 90 50 14 11 28 21 32 21 3 0 8 -37 10 -82z m-1441 5 c8 -9 32
-29 53 -45 46 -33 108 -37 180 -13 41 14 47 14 91 -5 30 -13 52 -17 59 -11 11
9 88 -6 114 -23 11 -6 10 -12 -5 -28 -18 -20 -17 -20 5 -14 20 7 22 5 18 -16
-3 -13 -8 -41 -11 -63 -4 -22 -12 -46 -17 -53 -6 -7 -8 -15 -4 -19 3 -3 6 -1
6 6 0 7 5 9 10 6 10 -6 15 -85 5 -85 -3 0 -62 29 -132 64 -71 36 -150 73 -178
84 -59 24 -274 126 -295 141 -13 9 -8 17 30 50 52 46 53 47 71 24z m1014 -48
c153 -23 298 -57 318 -74 11 -9 35 -15 60 -14 50 2 283 -67 483 -142 196 -73
200 -76 208 -126 4 -22 47 -120 96 -217 50 -96 89 -177 87 -178 -1 -2 -22 1
-45 7 -23 5 -111 18 -195 29 -142 18 -153 18 -164 3 -10 -12 -13 -76 -13 -235
0 -120 -2 -218 -4 -218 -3 0 -71 25 -153 56 -163 61 -230 75 -244 53 -12 -19
-11 -272 2 -424 6 -69 9 -130 7 -135 -2 -5 -44 43 -94 108 -146 186 -242 292
-267 292 -38 0 -82 -84 -172 -325 -27 -71 -51 -134 -55 -138 -4 -4 -17 20 -30
55 -76 213 -173 378 -222 378 -12 0 -39 -19 -61 -42 -45 -47 -174 -219 -258
-343 -94 -138 -89 -139 -89 11 0 259 -28 453 -66 468 -9 3 -28 3 -42 0 -63
-16 -276 -134 -469 -262 -68 -44 -123 -77 -123 -72 0 4 11 36 24 71 38 103
105 307 112 344 12 66 -23 67 -385 14 -74 -10 -136 -17 -138 -15 -2 2 31 57
74 122 117 178 165 261 161 281 -5 26 -51 33 -299 40 l-226 6 89 75 c50 41
136 119 191 173 119 114 127 89 -66 205 -70 42 -124 81 -120 85 24 23 409 79
598 86 209 8 306 -5 370 -48 l47 -32 -105 -37 c-107 -38 -172 -71 -217 -109
-16 -14 -4 -10 30 10 99 57 260 119 311 119 18 0 203 -82 207 -92 2 -5 10 -8
18 -8 18 0 223 -90 229 -101 3 -4 -3 -25 -13 -46 -21 -42 -58 -191 -49 -199 3
-3 8 14 12 38 8 44 63 198 71 198 3 0 22 -9 44 -20 24 -12 41 -16 45 -10 14
22 33 7 56 -42 52 -109 59 -124 53 -98 -3 14 -21 59 -41 100 l-35 75 151 147
c83 81 151 152 151 157 0 15 36 14 155 -4z m-2017 -167 c64 -39 129 -78 144
-87 16 -9 28 -21 28 -28 0 -6 -44 -51 -97 -100 -54 -48 -100 -91 -103 -94 -16
-19 -183 -149 -191 -149 -12 0 -6 24 39 165 45 143 47 226 9 302 -28 55 -26
61 26 62 18 1 70 -25 145 -71z m-186 5 c36 -74 31 -152 -17 -293 -46 -135 -49
-194 -15 -265 30 -62 60 -96 142 -162 111 -88 140 -149 164 -335 8 -64 22
-136 33 -160 23 -53 70 -100 130 -130 43 -21 58 -22 271 -23 221 0 226 0 280
-26 30 -14 100 -60 155 -101 216 -161 294 -193 470 -193 128 0 152 6 346 83
115 46 180 54 421 53 241 -2 279 5 354 63 51 38 85 90 119 180 75 200 115 239
311 301 126 39 200 86 255 159 43 56 58 100 95 268 15 68 35 139 45 159 17 34
71 89 88 89 13 0 134 -80 164 -108 33 -31 33 -32 3 -97 -26 -54 -45 -125 -71
-265 -19 -105 -71 -215 -124 -262 -62 -56 -152 -104 -302 -160 -180 -67 -204
-87 -269 -222 -110 -231 -252 -298 -670 -316 -220 -9 -266 -20 -406 -95 -189
-102 -404 -137 -610 -101 -127 23 -230 81 -393 224 -146 127 -190 142 -413
142 -128 0 -155 3 -210 23 -134 48 -235 139 -294 262 -34 70 -73 222 -74 282
0 18 -10 58 -22 90 -17 47 -39 76 -113 149 -102 102 -115 129 -115 239 0 55 7
85 40 166 34 84 40 111 40 172 0 81 -20 135 -58 153 -17 9 -20 13 -10 22 27
21 185 80 220 81 10 1 25 -17 40 -46z m3443 -231 c199 -96 185 -86 153 -111
-42 -34 -71 -89 -88 -171 l-17 -75 -25 41 c-53 83 -178 348 -178 376 0 14 11
10 155 -60z m-3655 1 c0 -43 -7 -74 -29 -119 -16 -34 -32 -75 -36 -92 -3 -18
-11 -34 -16 -37 -9 -6 -215 70 -232 85 -5 4 43 51 106 103 64 53 118 101 122
107 3 5 24 10 46 10 l39 0 0 -57z m-140 38 c0 -11 -188 -171 -199 -171 -4 0
-14 12 -22 26 -7 14 -26 37 -42 50 -16 14 -27 28 -23 31 3 4 68 21 144 39 75
17 138 32 140 33 1 1 2 -3 2 -8z m-252 -136 c75 -92 81 -267 18 -545 -81 -352
-31 -487 230 -618 34 -17 75 -43 93 -58 77 -64 129 -186 154 -361 24 -160 77
-252 170 -293 62 -27 171 -43 254 -35 84 8 285 -10 363 -32 63 -18 172 -71
315 -153 254 -146 333 -175 464 -168 82 4 92 7 221 70 241 119 393 140 665 93
88 -15 196 -27 240 -27 140 0 245 54 347 179 96 117 156 150 390 208 348 88
427 129 521 274 24 36 54 91 67 121 35 80 79 147 152 231 132 154 158 196 189
317 24 92 34 276 22 385 -5 42 -7 79 -5 82 7 6 38 -11 124 -68 l77 -51 17 -71
c38 -165 25 -385 -29 -492 -35 -67 -109 -166 -187 -245 -82 -85 -155 -205
-209 -344 -106 -273 -137 -312 -271 -356 -55 -17 -92 -21 -235 -22 -168 -1
-171 -1 -235 -32 -51 -24 -98 -61 -201 -160 -154 -146 -216 -187 -332 -221
-162 -47 -241 -50 -567 -16 -216 22 -287 10 -484 -76 -139 -62 -169 -70 -286
-77 -100 -7 -224 5 -326 32 -84 21 -225 93 -324 164 -47 33 -122 79 -167 102
-101 50 -184 60 -307 34 -100 -20 -233 -20 -316 2 -142 37 -299 160 -355 278
-27 55 -29 70 -35 224 -5 142 -9 172 -28 214 -42 94 -83 131 -205 190 -144 69
-203 125 -242 229 -36 95 -46 249 -21 317 73 198 80 224 84 340 6 181 -25 296
-102 374 l-37 37 48 21 c26 12 82 31 123 43 87 25 108 20 158 -40z m-305 -72
c99 -105 121 -351 51 -573 l-26 -85 -29 34 c-86 104 -149 289 -149 440 0 54 3
101 7 105 4 3 28 -15 55 -41 26 -26 48 -43 49 -38 1 6 0 49 -1 98 -1 48 2 87
7 87 5 0 21 -12 36 -27z m516 -74 c52 -21 95 -40 96 -41 1 -2 5 -41 8 -88 l5
-85 -135 -88 c-74 -49 -137 -86 -140 -83 -3 2 2 28 10 58 9 29 21 95 27 146
11 84 9 122 -7 205 -6 34 -8 35 136 -24z m738 -18 c89 -5 166 -12 172 -15 6
-4 -3 -29 -23 -64 -31 -55 -201 -319 -216 -335 -4 -5 -23 25 -42 66 -27 55
-48 83 -84 112 -107 85 -166 153 -179 208 -7 25 -5 26 42 30 90 7 167 6 330
-2z m3583 -31 c70 -17 230 -73 230 -80 0 -3 -47 -20 -103 -38 -57 -17 -114
-40 -127 -50 l-22 -18 20 -40 c11 -21 55 -88 98 -148 147 -202 177 -246 171
-252 -3 -3 -54 -1 -113 5 -59 6 -156 11 -216 11 -104 0 -108 -1 -113 -23 -3
-12 -1 -44 5 -71 14 -65 77 -258 106 -328 13 -32 24 -60 24 -64 0 -7 4 -8
-228 35 -90 17 -188 31 -218 31 -48 0 -56 -3 -63 -24 -9 -23 -34 -215 -47
-359 -8 -91 1 -90 -136 -15 -150 82 -270 138 -295 138 -41 0 -70 -91 -124
-384 -16 -88 -31 -161 -33 -163 -2 -2 -51 63 -109 144 -144 203 -167 228 -198
220 -31 -8 -136 -110 -252 -247 -49 -58 -95 -111 -102 -118 -10 -11 -24 8 -75
105 -92 173 -130 233 -147 233 -23 0 -192 -173 -303 -310 -19 -24 -40 -48 -45
-54 -6 -6 -36 -41 -68 -78 -50 -60 -57 -65 -61 -45 -35 176 -81 369 -94 397
-16 33 -20 35 -63 34 -55 0 -169 -38 -338 -110 -69 -30 -128 -54 -132 -54 -4
0 -9 71 -11 158 -4 166 -13 202 -50 202 -30 0 -179 -65 -398 -175 -105 -52
-190 -92 -190 -90 0 3 46 95 102 205 114 225 114 222 23 239 -28 5 -117 15
-200 21 -82 7 -153 14 -157 16 -6 4 8 38 88 213 19 41 31 78 27 82 -5 5 -117
19 -251 31 -133 13 -241 27 -239 32 2 5 83 68 182 140 99 72 179 136 180 141
0 11 -17 17 -190 64 -60 16 -138 37 -173 47 l-63 17 142 93 c79 52 145 94 149
94 16 0 180 -171 199 -207 11 -23 26 -75 32 -115 37 -236 72 -321 174 -424
120 -121 255 -171 430 -159 110 8 216 -8 270 -40 22 -13 73 -54 114 -91 217
-196 347 -250 593 -247 154 2 271 33 433 113 165 81 211 91 455 100 230 9 318
26 422 82 108 57 152 106 219 244 46 94 69 128 93 143 17 11 95 44 173 74 229
87 308 145 377 276 28 53 43 101 61 197 37 191 64 268 93 260 9 -3 37 -10 62
-16z m-725 -50 c119 -17 251 -41 264 -50 10 -6 11 -19 1 -66 -31 -154 -135
-251 -325 -303 -38 -11 -73 -17 -77 -15 -9 6 -11 388 -2 422 7 25 28 27 139
12z m1028 -62 c35 -26 32 -421 -3 -487 -5 -9 -14 -2 -31 25 -13 22 -62 91
-109 154 -124 168 -155 217 -141 234 9 11 104 43 221 75 47 13 44 13 63 -1z
m-3423 -265 c0 -45 -127 -410 -152 -441 -18 -21 -151 -11 -209 16 -107 49
-138 112 -163 329 -7 60 -28 51 184 82 184 28 185 28 268 30 62 1 72 -1 72
-16z m1928 -22 c84 -23 282 -100 281 -109 0 -4 -19 -21 -42 -37 -45 -33 -96
-109 -123 -184 -45 -124 -69 -168 -111 -208 -25 -24 -49 -43 -53 -43 -22 0
-53 535 -34 584 7 20 1 20 82 -3z m-2985 -88 c37 -9 67 -20 67 -23 0 -7 -44
-40 -235 -179 l-140 -102 -20 43 c-17 36 -20 63 -19 168 0 70 5 137 11 152
l12 26 128 -34 c70 -19 158 -42 196 -51z m1595 -53 c18 -61 39 -527 24 -542
-13 -13 -75 24 -211 125 -52 38 -124 84 -160 101 -58 27 -78 31 -169 34 l-104
4 51 34 c96 65 271 174 348 216 168 93 200 97 221 28z m1006 -79 c42 -45 234
-282 274 -339 l23 -32 -27 -10 c-15 -6 -118 -10 -248 -9 -121 1 -238 -2 -258
-6 -21 -4 -38 -5 -38 -3 0 3 20 60 46 128 56 153 109 274 136 312 23 33 25 32
92 -41z m-505 1 c54 -69 186 -363 179 -399 -4 -21 -227 -109 -313 -124 -103
-17 -263 0 -299 31 -20 19 360 530 395 530 4 0 21 -17 38 -38z m2275 -31 c42
-5 79 -11 82 -14 14 -13 -61 -139 -118 -198 -37 -39 -117 -139 -142 -178 -15
-24 -31 -39 -36 -35 -12 13 -105 290 -120 356 -21 92 -21 92 128 84 71 -3 163
-10 206 -15z m-4399 -191 c105 -11 200 -20 213 -20 12 0 22 -5 22 -11 0 -13
-99 -240 -110 -252 -4 -5 -20 12 -35 37 -33 56 -84 97 -190 151 -42 22 -96 57
-119 77 l-41 37 35 0 c19 0 121 -8 225 -19z m3912 -241 c153 -26 243 -45 251
-54 12 -12 -58 -132 -112 -191 -63 -70 -136 -109 -285 -153 -141 -42 -145 -42
-137 12 3 23 10 92 16 152 14 140 29 245 36 257 7 11 68 5 231 -23z m-4207
-89 c45 -23 43 -20 30 -55 -14 -38 4 -101 36 -121 14 -10 42 -17 62 -18 103
-3 -19 -92 -141 -102 -51 -4 -68 -2 -95 16 -64 40 -78 131 -31 206 18 30 83
94 95 94 3 0 23 -9 44 -20z m610 -15 c129 -9 240 -26 240 -37 0 -21 -215 -428
-226 -428 -21 0 -83 70 -104 118 -12 26 -28 90 -36 142 -8 52 -21 118 -29 147
-22 74 -21 75 28 69 23 -3 80 -8 127 -11z m3093 -237 c97 -51 177 -95 177 -99
0 -4 -32 -15 -71 -24 -39 -10 -110 -37 -158 -60 -72 -35 -98 -54 -142 -106
-83 -97 -152 -159 -163 -148 -15 15 92 506 116 536 13 16 28 10 241 -99z
m-2412 -45 c5 -38 8 -114 8 -170 l1 -101 -51 13 c-73 19 -255 35 -379 32 -114
-2 -200 8 -200 24 0 11 391 205 515 255 49 20 84 29 89 23 6 -5 13 -39 17 -76z
m1822 -138 c43 -57 104 -143 137 -190 l60 -86 -28 -10 c-85 -33 -120 -33 -317
0 -104 17 -212 31 -238 31 -27 0 -47 4 -45 9 2 6 46 60 98 122 107 126 215
229 240 229 9 0 49 -45 93 -105z m-630 -2 c70 -123 131 -242 126 -246 -2 -2
-53 -16 -113 -30 -80 -19 -145 -44 -241 -91 -117 -58 -204 -86 -252 -80 -7 1
-20 2 -29 3 -30 2 425 520 458 521 3 0 26 -35 51 -77z m-643 22 c0 -3 9 -40
21 -83 28 -105 69 -308 69 -343 0 -23 -4 -29 -22 -29 -25 0 -132 48 -243 109
-153 84 -210 115 -267 144 -61 30 -70 41 -40 50 9 3 55 22 102 43 138 61 292
113 338 113 23 1 42 -1 42 -4z m740 -727 c0 -48 56 -69 86 -31 9 11 17 11 38
2 35 -16 33 -34 -8 -75 -42 -42 -116 -50 -177 -18 -55 28 -125 142 -102 165 4
4 33 15 63 23 l55 14 22 -26 c13 -15 23 -39 23 -54z"/>
<path d="M5584 4947 c61 -256 98 -590 109 -997 2 -52 4 2 5 120 2 302 -27 587
-84 799 -13 52 -27 97 -31 100 -3 4 -3 -7 1 -22z"/>
<path d="M1732 1708 c-18 -18 -15 -42 7 -63 12 -10 21 -33 23 -59 3 -36 6 -41
30 -44 63 -7 93 49 44 82 -18 11 -26 27 -28 53 -3 34 -6 38 -33 41 -17 2 -36
-3 -43 -10z"/>
<path d="M1749 8061 c-95 -19 -167 -91 -209 -211 -13 -36 -24 -66 -25 -67 0
-1 -19 4 -40 12 -149 53 -305 -27 -366 -188 -32 -83 -33 -194 -2 -252 84 -159
309 -251 705 -290 l67 -7 37 58 c50 78 127 242 160 339 70 212 62 393 -23 490
-70 80 -210 133 -304 116z m165 -51 c68 -26 123 -77 157 -146 21 -42 24 -62
23 -149 -1 -151 -60 -335 -168 -525 l-53 -95 -79 3 c-98 4 -286 36 -368 63
-140 47 -252 124 -292 201 -64 123 9 333 140 400 66 34 142 29 248 -16 14 -6
18 0 24 31 4 21 18 63 31 92 69 158 176 203 337 141z"/>
<path d="M6356 7190 c-53 -27 -72 -45 -96 -96 l-21 -42 -57 26 c-44 21 -72 27
-123 27 -93 0 -140 -33 -187 -133 -31 -65 -34 -80 -29 -130 11 -117 95 -211
262 -292 106 -51 242 -98 309 -106 41 -5 41 -4 102 73 255 324 279 553 70 658
-83 42 -165 47 -230 15z m185 -20 c52 -15 124 -82 145 -135 42 -111 -33 -309
-190 -500 -49 -60 -55 -65 -81 -65 -36 0 -207 59 -301 105 -214 103 -288 238
-215 391 40 85 76 109 162 109 54 0 76 -6 128 -32 l62 -32 16 37 c22 55 61
102 97 118 37 16 127 18 177 4z"/>
<path d="M1605 6034 c-42 -22 -63 -42 -87 -86 -12 -21 -24 -37 -27 -35 -117
67 -230 35 -293 -83 -51 -96 -31 -179 62 -263 62 -56 204 -128 303 -154 l68
-17 45 49 c57 64 145 196 174 260 47 108 34 225 -32 280 -74 63 -153 81 -213
49z m144 -34 c108 -54 131 -171 62 -310 -53 -107 -172 -260 -202 -260 -32 0
-185 60 -246 96 -66 40 -128 96 -149 136 -20 39 -17 105 7 155 46 95 146 129
235 79 25 -14 48 -26 50 -26 2 0 10 15 17 33 18 41 64 96 91 107 36 15 95 11
135 -10z"/>
<path d="M6354 6026 c-46 -20 -103 -75 -120 -115 -41 -94 17 -231 161 -379 86
-90 91 -94 125 -88 54 9 208 91 279 149 127 103 159 210 96 313 -41 66 -85 94
-146 94 -50 0 -85 -11 -129 -41 -25 -17 -26 -17 -45 12 -40 60 -148 86 -221
55z m161 -36 c17 -10 38 -32 48 -49 20 -34 38 -39 56 -17 22 27 112 58 147 51
68 -12 133 -97 134 -174 0 -53 -36 -116 -98 -171 -58 -52 -254 -160 -290 -160
-12 0 -54 36 -104 88 -178 187 -205 324 -84 417 62 47 129 52 191 15z"/>
<path d="M6496 1269 c-165 -39 -190 -195 -71 -446 l44 -93 53 0 c81 0 175 17
258 47 138 49 200 141 171 251 -25 90 -88 129 -190 117 -58 -7 -58 -7 -64 22
-15 73 -112 123 -201 102z m101 -34 c41 -17 63 -43 79 -95 9 -29 15 -34 35
-32 132 15 134 15 166 -12 64 -54 70 -162 13 -221 -63 -65 -215 -115 -347
-115 l-58 0 -37 78 c-49 102 -68 172 -68 247 0 79 26 122 90 147 56 21 81 22
127 3z"/>
<path d="M1655 1043 c-39 -20 -83 -61 -101 -93 -30 -55 -28 -55 -80 -30 -114
56 -235 5 -302 -125 -80 -158 25 -315 284 -424 99 -42 209 -75 226 -69 25 10
166 192 214 274 102 179 102 319 2 413 -71 66 -176 90 -243 54z m182 -43 c59
-34 98 -90 108 -156 16 -97 -56 -259 -187 -418 -94 -114 -80 -112 -253 -45
-209 80 -334 197 -335 309 0 19 11 58 24 85 61 131 184 178 288 110 49 -32 55
-31 71 8 18 42 63 95 102 118 47 29 119 25 182 -11z"/>
<path d="M5885 1002 c-69 -32 -119 -112 -128 -201 l-3 -34 -70 -1 c-82 -2
-119 -19 -163 -75 -57 -71 -75 -165 -50 -254 22 -82 117 -150 244 -178 67 -14
305 -18 377 -6 l47 8 30 92 c45 136 63 230 64 342 2 119 -19 187 -72 242 -69
71 -199 101 -276 65z m213 -48 c125 -77 145 -285 54 -559 l-37 -110 -50 -7
c-89 -11 -251 -8 -331 7 -97 18 -153 45 -198 95 -39 44 -50 86 -44 164 6 66
34 121 82 160 36 29 43 31 121 30 l83 -1 5 58 c7 80 48 152 101 179 58 30 149
23 214 -16z"/>
</g>
</svg>
