<?xml version="1.0" standalone="no"?>
<!DOCTYPE svg PUBLIC "-//W3C//DTD SVG 20010904//EN"
 "http://www.w3.org/TR/2001/REC-SVG-20010904/DTD/svg10.dtd">
<svg version="1.0" xmlns="http://www.w3.org/2000/svg"
 width="800.000000pt" height="1076.000000pt" viewBox="0 0 800.000000 1076.000000"
 preserveAspectRatio="xMidYMid meet">
<metadata>
Created by potrace 1.16, written by Peter Selinger 2001-2019
</metadata>
<g transform="translate(0.000000,1076.000000) scale(0.100000,-0.100000)"
fill="#000000" stroke="none">
<path d="M3810 10689 c-673 -17 -1160 -101 -1340 -229 l-30 -21 -62 30 c-238
113 -582 114 -915 3 -303 -102 -468 -214 -623 -422 -130 -176 -230 -437 -230
-601 0 -33 -7 -45 -51 -86 -185 -173 -328 -538 -370 -943 -14 -139 -6 -400 16
-523 49 -270 157 -501 312 -668 l60 -64 -47 -58 c-110 -136 -198 -383 -235
-668 -22 -166 -20 -480 4 -644 53 -361 170 -627 357 -811 l75 -74 -55 -84
c-138 -207 -241 -517 -287 -866 -17 -135 -15 -421 6 -555 9 -60 32 -156 51
-213 19 -57 34 -107 34 -111 0 -4 -28 -50 -63 -102 -126 -189 -232 -484 -284
-794 -25 -153 -25 -548 1 -680 87 -449 299 -745 702 -984 348 -205 936 -351
1634 -406 385 -30 1193 -46 1453 -28 l97 6 0 259 0 258 25 0 25 0 0 -259 0
-258 163 -5 c210 -7 1262 8 1482 21 776 47 1313 141 1631 286 291 133 466 363
538 710 79 382 16 905 -161 1328 -44 105 -122 238 -156 266 -15 12 -13 19 27
75 324 453 414 1184 229 1841 -36 126 -67 205 -126 319 l-51 99 19 31 c52 90
136 271 159 343 54 174 69 275 69 463 0 120 -5 203 -16 265 -52 282 -163 547
-330 789 l-55 79 67 89 c243 322 293 724 149 1193 -38 124 -114 304 -173 409
-25 43 -45 82 -45 86 0 5 16 37 36 71 72 127 137 304 171 462 26 122 23 364
-6 472 -45 168 -135 318 -262 440 -99 94 -131 117 -214 150 -277 111 -562 131
-812 59 -81 -23 -253 -100 -313 -139 -24 -16 -27 -15 -95 31 -300 203 -819
331 -1474 364 -218 11 -284 11 -711 -1z m960 -43 c530 -51 967 -176 1219 -349
l73 -51 32 18 c163 96 302 148 454 171 186 28 369 10 564 -55 160 -53 194 -75
308 -190 198 -200 283 -424 266 -704 -11 -197 -58 -360 -163 -573 l-66 -132
86 -173 c138 -279 199 -494 214 -754 17 -302 -69 -563 -261 -793 l-45 -54 45
-61 c117 -162 221 -363 284 -556 50 -149 67 -233 82 -403 26 -305 -48 -614
-214 -889 l-40 -68 40 -67 c121 -201 209 -529 233 -873 36 -509 -82 -992 -323
-1317 -21 -29 -38 -56 -38 -61 0 -5 18 -29 41 -53 73 -78 176 -316 243 -559
33 -122 67 -334 78 -487 23 -308 -20 -572 -128 -793 -52 -106 -65 -123 -158
-215 -86 -86 -116 -108 -201 -152 -311 -159 -814 -257 -1585 -308 -269 -18
-1129 -37 -1465 -33 l-240 3 -3 263 -2 262 -55 0 -55 0 0 -259 0 -259 -207 -7
c-235 -9 -827 -1 -1098 15 -493 28 -931 93 -1254 186 -805 231 -1188 611
-1276 1269 -32 238 -9 578 55 821 63 235 163 467 259 599 32 44 49 75 45 85
-134 311 -145 755 -29 1210 51 199 133 390 234 539 l50 75 -83 80 c-45 45
-102 110 -125 144 -246 365 -326 994 -195 1532 47 189 121 348 212 451 l41 46
-50 49 c-234 229 -358 576 -359 1001 0 466 152 927 373 1129 l54 50 6 84 c21
290 227 639 476 804 129 86 386 183 586 222 64 13 136 18 250 17 138 0 173 -4
256 -26 52 -14 123 -39 157 -56 34 -17 66 -31 72 -31 6 0 26 11 43 24 160 121
673 210 1327 230 242 7 802 -3 960 -18z"/>
<path d="M4035 10371 c-83 -36 -83 -156 0 -196 61 -28 127 1 146 66 13 43 2
84 -31 114 -22 20 -86 29 -115 16z m79 -21 c31 -12 59 -63 50 -93 -22 -72
-102 -91 -149 -35 -32 38 -29 81 11 116 27 24 49 27 88 12z"/>
<path d="M1765 10170 c-167 -27 -304 -129 -381 -285 -32 -66 -37 -86 -42 -169
-4 -77 -1 -106 16 -163 85 -279 398 -427 680 -322 216 79 356 307 325 525 -27
186 -166 340 -360 397 -67 20 -174 28 -238 17z m194 -45 c140 -33 260 -128
321 -252 28 -59 34 -81 38 -163 3 -79 1 -106 -17 -158 -42 -123 -115 -205
-239 -268 l-77 -39 -131 0 -130 0 -79 39 c-100 50 -171 119 -221 217 -38 72
-39 76 -39 184 0 106 1 113 36 186 95 199 320 305 538 254z"/>
<path d="M1994 10014 c-17 -23 -22 -24 -47 -15 -29 11 -107 15 -107 6 0 -3 7
-22 15 -43 13 -30 14 -45 4 -85 -14 -60 -7 -70 63 -77 52 -5 52 -5 65 -50 21
-73 34 -78 77 -30 l37 42 34 -16 c18 -9 40 -16 49 -16 23 0 20 48 -5 89 -19
31 -20 39 -9 71 7 21 9 47 5 59 -7 23 -7 23 -72 5 -19 -5 -23 -2 -23 18 0 31
-26 68 -49 68 -9 0 -26 -12 -37 -26z m64 -45 c18 -42 18 -42 82 -27 21 5 24
-28 6 -63 -15 -29 -14 -33 3 -58 22 -30 31 -67 16 -64 -5 1 -25 8 -42 15 -31
12 -34 10 -67 -21 l-33 -32 -7 28 c-14 54 -33 72 -86 79 -28 4 -50 9 -50 11 0
2 5 24 11 47 9 36 8 49 -5 75 -19 35 -16 36 48 17 46 -14 48 -14 69 10 28 33
36 31 55 -17z"/>
<path d="M6661 10119 c-143 -24 -294 -138 -352 -264 -117 -258 42 -553 338
-630 206 -54 451 45 545 221 81 151 74 314 -20 460 -51 79 -109 129 -196 170
-105 50 -196 62 -315 43z m204 -44 c94 -25 145 -54 213 -121 42 -42 73 -85 95
-131 30 -63 32 -75 31 -168 0 -86 -4 -108 -26 -155 -52 -111 -150 -195 -271
-232 -89 -27 -224 -22 -309 11 -238 92 -353 355 -248 567 91 185 309 282 515
229z"/>
<path d="M6728 10023 c-7 -16 -13 -29 -13 -31 -1 -1 -16 5 -33 14 -18 8 -42
14 -54 12 -19 -2 -23 -9 -23 -41 0 -31 -5 -40 -30 -55 -63 -39 -68 -65 -15
-77 17 -4 39 -20 51 -38 43 -63 61 -65 117 -14 22 20 24 20 70 4 26 -9 55 -17
64 -17 17 0 18 8 4 81 -3 12 9 22 35 32 22 9 39 20 39 26 0 17 -62 51 -92 51
-17 0 -28 5 -28 14 0 22 -40 66 -61 66 -12 0 -24 -11 -31 -27z m61 -19 c12
-15 21 -33 21 -40 0 -8 8 -14 19 -14 24 0 81 -20 81 -29 0 -4 -16 -13 -35 -20
-32 -11 -35 -16 -35 -53 0 -34 -3 -39 -17 -33 -52 20 -83 18 -118 -9 l-36 -27
-19 23 c-11 13 -19 27 -20 31 0 4 -19 16 -42 26 l-42 18 45 26 c42 25 45 29
41 61 l-4 35 33 -10 c19 -6 41 -13 50 -16 11 -3 20 5 29 26 15 38 23 38 49 5z"/>
<path d="M4402 10109 c-197 -25 -393 -106 -504 -208 -60 -56 -65 -58 -88 -45
-14 7 -65 27 -115 43 -230 77 -496 88 -720 29 -214 -55 -430 -204 -546 -375
-42 -64 -99 -178 -116 -237 -8 -27 -39 -90 -69 -140 -30 -49 -62 -112 -72
-138 -9 -26 -19 -48 -22 -48 -3 1 -14 15 -25 33 -26 41 -132 96 -201 104 -73
8 -144 -12 -193 -54 -23 -19 -41 -40 -41 -48 0 -7 -11 -16 -24 -19 -29 -7 -86
-70 -86 -95 0 -14 -12 -22 -46 -30 -170 -43 -289 -175 -345 -381 -15 -56 -22
-119 -26 -251 -8 -261 20 -408 106 -553 33 -56 35 -67 36 -142 0 -71 3 -85 28
-123 15 -23 38 -46 50 -52 14 -6 29 -29 40 -60 10 -27 32 -65 48 -84 l30 -34
-42 -53 c-23 -29 -54 -78 -68 -108 -15 -30 -38 -75 -53 -100 -108 -185 -114
-419 -17 -616 63 -128 138 -209 309 -332 3 -2 -3 -8 -14 -14 -31 -18 -97 -90
-118 -131 -27 -54 -51 -199 -45 -279 11 -170 155 -312 355 -353 57 -12 92
-120 61 -188 -15 -32 -59 -57 -103 -57 -75 0 -144 59 -125 108 12 33 -24 30
-39 -3 -16 -36 -15 -120 2 -154 24 -46 91 -99 147 -115 72 -22 174 -20 225 3
39 18 94 75 94 99 0 6 22 36 50 68 68 78 92 144 93 262 l0 93 59 31 c70 37
117 87 156 165 39 78 53 143 53 249 1 62 6 105 20 142 27 74 26 183 -3 257
l-21 56 43 62 c85 122 104 150 131 200 l27 50 25 -49 c34 -67 96 -135 167
-182 58 -39 59 -40 32 -47 -54 -13 -111 -55 -139 -102 -36 -63 -39 -156 -5
-202 24 -33 22 -51 -6 -51 -32 0 -81 -39 -103 -82 -27 -53 -37 -160 -19 -222
6 -24 26 -61 43 -81 33 -41 116 -85 159 -85 26 0 27 -2 27 -55 -1 -40 4 -62
20 -84 63 -88 158 -119 266 -86 17 5 22 -1 34 -37 41 -131 17 -214 -79 -279
-30 -20 -138 -81 -240 -135 -212 -111 -253 -138 -428 -276 -189 -149 -537
-508 -588 -606 -13 -25 -14 -25 -14 -5 0 12 -11 57 -25 101 -58 183 -212 326
-407 378 -65 17 -262 19 -309 2 -19 -6 -54 -24 -78 -39 l-45 -27 -40 34 c-32
28 -48 34 -76 32 -64 -6 -78 -74 -26 -135 l24 -27 -58 -57 c-53 -52 -61 -66
-85 -146 -24 -78 -27 -98 -21 -175 14 -191 106 -340 269 -442 128 -80 308
-108 450 -71 32 8 59 15 60 15 1 0 -58 -123 -133 -273 -122 -246 -334 -688
-495 -1032 -120 -257 -162 -321 -329 -500 -72 -77 -79 -99 -50 -161 46 -96
168 -154 328 -154 50 0 132 -7 181 -16 66 -12 123 -15 212 -11 l122 6 47 -38
c63 -53 139 -88 253 -118 86 -22 107 -24 206 -17 238 15 245 14 386 -49 170
-77 253 -97 421 -104 151 -6 228 6 334 53 131 58 179 54 363 -33 206 -96 307
-125 483 -138 113 -8 161 3 303 67 58 27 103 41 130 41 22 0 105 -21 185 -46
80 -25 174 -51 210 -57 119 -21 236 2 430 85 l65 28 125 -17 c191 -28 264 -30
374 -12 109 18 194 49 295 106 87 51 104 54 208 41 148 -20 278 12 365 87 l36
32 66 -30 c204 -93 510 -103 746 -24 58 19 116 42 128 50 51 34 70 141 33 192
-33 47 -165 284 -210 376 -72 150 -155 339 -221 506 -21 53 -166 377 -271 605
-155 340 -339 682 -481 893 -102 153 -157 225 -279 367 -82 95 -287 301 -394
397 -220 195 -429 337 -690 468 l-150 76 -12 44 c-15 59 -17 200 -2 200 6 0
25 -12 42 -26 40 -34 252 -136 351 -169 63 -21 97 -26 176 -26 145 0 370 43
495 95 32 14 35 13 40 -5 4 -10 10 -19 15 -19 4 0 7 -33 7 -72 -1 -52 4 -83
17 -108 26 -49 64 -88 95 -95 18 -4 34 -20 50 -51 27 -50 64 -85 125 -116 32
-17 72 -23 188 -31 130 -9 152 -8 192 7 65 25 116 85 116 136 0 22 -3 40 -6
40 -3 0 -19 -11 -36 -25 -22 -19 -41 -25 -74 -25 -69 0 -110 27 -120 80 -8 39
13 63 121 134 123 81 173 145 190 243 l6 41 30 -15 c70 -35 154 -25 199 22 17
18 25 40 28 80 4 49 8 58 33 71 38 19 61 66 57 117 -2 39 -1 42 27 47 41 9 73
27 84 48 19 36 22 96 6 126 -15 28 -15 31 9 50 38 33 49 63 42 120 -5 49 -4
52 25 68 57 33 74 124 33 185 -9 14 -33 33 -55 42 -37 15 -39 19 -39 59 0 50
-12 78 -48 109 -23 21 -45 28 -111 35 -20 3 -24 9 -27 50 -2 26 1 50 6 53 19
12 11 105 -12 147 -32 56 -74 78 -162 85 -49 4 -77 10 -80 19 -3 7 4 39 15 71
26 73 36 224 20 290 -18 70 -54 144 -90 182 -27 29 -30 36 -19 51 110 149 196
317 223 434 15 68 22 228 14 321 -13 148 -41 244 -113 390 -91 184 -186 287
-332 362 -44 23 -74 44 -74 54 0 26 -54 103 -100 142 -38 32 -97 57 -197 83
-6 1 -24 24 -39 51 -207 370 -438 595 -782 768 -277 138 -664 210 -940 174z
m429 -49 c185 -32 379 -97 528 -176 208 -110 414 -277 541 -438 52 -67 182
-267 177 -272 -3 -3 -14 -1 -24 4 -10 6 -46 15 -79 22 -59 12 -120 6 -175 -15
-13 -5 -26 11 -57 67 -71 129 -238 303 -394 409 -65 44 -241 142 -233 129 3
-5 36 -25 73 -46 191 -107 400 -294 506 -452 73 -110 74 -115 38 -156 -16 -19
-33 -44 -37 -55 -3 -11 -21 -30 -40 -41 -19 -12 -44 -35 -56 -51 l-20 -29 -39
49 c-116 147 -314 303 -510 401 -108 54 -115 50 -11 -6 212 -113 424 -289 528
-439 18 -26 20 -38 14 -84 -10 -69 3 -135 34 -183 l26 -38 -28 -24 c-15 -14
-29 -23 -31 -22 -1 2 -9 30 -17 62 -51 200 -212 363 -486 493 -191 91 -346
121 -629 121 l-186 0 -72 35 c-119 57 -171 68 -291 63 -90 -4 -114 -9 -158
-31 -29 -15 -53 -24 -53 -20 0 3 5 34 11 68 l11 63 82 41 c117 59 200 74 366
68 96 -3 128 -2 110 5 -14 6 -74 12 -135 15 -137 6 -230 -12 -338 -65 l-77
-38 6 35 c23 130 79 227 193 332 102 94 217 152 388 195 124 31 379 33 544 4z
m-1341 -145 c100 -16 268 -67 307 -93 l24 -15 -24 -26 c-13 -14 -37 -51 -53
-81 -16 -30 -30 -57 -31 -59 -1 -2 -17 11 -35 28 -74 69 -220 122 -329 120
l-54 -1 77 -13 c119 -20 178 -41 245 -84 86 -56 88 -61 62 -184 -12 -56 -23
-108 -25 -114 -2 -8 -19 4 -41 27 -51 54 -142 105 -238 137 -63 20 -107 26
-205 30 -75 3 -135 1 -150 -5 -19 -8 1 -11 90 -11 204 -2 378 -61 485 -165 30
-30 55 -60 55 -68 0 -8 -22 -37 -49 -65 l-48 -52 -34 25 c-93 71 -234 117
-384 127 -64 5 -66 4 -25 -5 180 -40 254 -62 327 -99 45 -23 87 -47 94 -55 8
-10 6 -28 -10 -74 -12 -33 -21 -71 -21 -85 0 -14 -3 -25 -6 -25 -4 0 -32 25
-63 56 -68 68 -185 128 -291 150 -104 22 -299 14 -391 -15 -147 -47 -243 -142
-273 -271 -8 -36 -23 -103 -34 -150 -18 -82 -19 -84 -31 -55 -37 95 -106 179
-175 213 -25 13 -46 25 -46 28 0 16 65 143 106 205 88 137 285 313 432 388 23
12 42 24 42 26 0 3 -37 -13 -82 -36 -99 -49 -212 -132 -290 -212 -63 -64 -71
-59 -34 19 135 290 423 493 776 547 65 10 265 5 350 -8z m540 -559 c30 -8 91
-34 135 -57 l80 -41 140 5 c160 6 357 -12 475 -44 155 -42 389 -173 497 -278
115 -112 171 -227 184 -380 5 -59 12 -116 14 -128 9 -38 61 -88 117 -112 171
-75 222 -105 282 -165 81 -79 128 -152 163 -251 24 -69 28 -95 28 -195 0 -126
4 -112 -100 -299 -33 -59 -33 -121 1 -181 l25 -44 -40 -33 c-22 -19 -50 -50
-62 -71 -12 -20 -24 -39 -26 -41 -1 -2 -32 11 -68 29 -53 27 -67 31 -80 20
-18 -15 -35 -73 -35 -121 0 -35 -2 -37 -37 -44 -21 -4 -64 -16 -96 -27 l-57
-20 -39 31 c-60 48 -121 134 -142 202 -22 69 -25 129 -7 147 9 9 9 12 -1 12
-24 0 -5 96 36 183 33 70 38 91 38 151 0 201 -148 348 -365 363 -92 7 -128 -7
-208 -76 -31 -27 -74 -56 -96 -65 -52 -22 -156 -20 -249 3 -132 34 -195 77
-259 175 -60 93 -78 166 -78 315 0 151 -11 224 -44 296 -53 117 -179 197 -309
197 -40 1 -92 -5 -117 -12 -57 -15 -159 -88 -197 -140 l-30 -40 -13 56 c-17
68 -2 153 38 228 91 167 341 233 520 136 65 -35 79 -34 24 3 -156 103 -387 75
-516 -62 -44 -48 -46 -49 -46 -23 0 51 21 157 39 197 24 53 93 130 145 160 89
52 229 69 336 41z m-957 -136 c153 -18 265 -70 363 -169 51 -52 54 -58 54
-107 0 -28 -7 -71 -15 -94 -8 -23 -15 -54 -15 -67 0 -14 -3 -23 -7 -21 -84 43
-109 50 -156 45 -88 -11 -163 -72 -197 -162 -19 -50 -13 -152 15 -244 44 -148
30 -267 -46 -381 -67 -100 -147 -155 -333 -231 -69 -28 -86 -29 -86 -5 0 7 -9
22 -20 34 l-21 22 35 72 c44 93 54 159 32 224 -9 27 -25 60 -35 74 -18 23 -18
26 -3 55 26 50 21 150 -12 215 -46 91 -116 150 -180 150 -31 0 -35 25 -10 72
9 17 25 74 35 127 36 181 63 239 141 300 109 88 249 115 461 91z m2970 -64
c68 -30 76 -42 33 -50 -19 -4 -51 -18 -72 -32 -22 -15 -57 -28 -83 -30 -25 -2
-61 -9 -78 -15 -28 -9 -41 -7 -83 13 -27 13 -49 26 -50 30 -1 17 58 73 95 89
60 28 170 26 238 -5z m-4056 -76 c83 -29 165 -100 116 -100 -28 0 -82 -37 -95
-65 l-11 -24 -35 29 c-42 34 -56 31 -23 -4 l23 -24 -31 -16 c-17 -9 -38 -28
-47 -42 -15 -22 -19 -23 -33 -10 -27 24 -115 54 -180 62 -67 7 -73 16 -41 57
28 36 104 59 155 47 22 -5 41 -7 43 -5 8 8 -43 27 -74 27 -42 0 -43 10 -5 38
77 54 146 63 238 30z m4273 -26 c30 -14 72 -42 93 -62 39 -37 73 -90 64 -99
-3 -2 -31 4 -63 14 -39 11 -92 17 -154 18 l-95 0 -20 40 c-11 22 -33 47 -50
55 -16 8 -32 16 -34 18 -11 6 22 26 66 38 60 17 122 10 193 -22z m-509 -24
c24 -13 24 -31 0 -61 -10 -13 -22 -35 -26 -49 -6 -19 1 -14 26 19 41 53 101
80 182 80 71 1 109 -17 131 -63 29 -61 22 -79 -48 -134 -48 -38 -71 -66 -94
-112 -26 -51 -39 -65 -79 -85 -43 -22 -49 -23 -64 -9 -19 17 -49 95 -49 126 0
10 -5 18 -10 18 -6 0 -8 -11 -5 -25 3 -14 7 -37 11 -51 5 -26 4 -27 -31 -21
-20 3 -43 12 -52 18 -24 21 -52 83 -58 135 -18 132 81 259 166 214z m-3531
-90 c82 -42 163 -158 176 -251 l6 -47 -47 -21 -48 -21 -39 36 c-52 47 -61 36
-14 -16 39 -43 43 -69 10 -60 -19 5 -112 5 -177 0 -68 -4 -171 76 -196 153
-16 47 0 109 36 136 31 25 88 27 139 6 19 -8 32 -10 28 -4 -3 6 -22 17 -40 25
-38 16 -40 21 -19 52 31 43 113 49 185 12z m4155 -68 c149 -52 261 -127 360
-244 63 -73 151 -255 181 -373 31 -124 43 -331 25 -427 -25 -126 -92 -281
-174 -403 -44 -64 -168 -194 -204 -214 -22 -11 -23 -10 -23 24 0 20 -7 52 -15
72 -8 20 -14 37 -13 38 2 1 23 15 48 32 75 51 143 117 189 184 l44 64 -49 -55
c-71 -81 -136 -142 -197 -184 -54 -37 -55 -37 -85 -22 -17 9 -42 16 -56 16
-23 0 -24 2 -19 58 7 72 -10 134 -46 174 l-28 31 29 44 c65 96 45 227 -48 320
l-52 52 14 47 c20 68 17 131 -10 197 l-24 59 51 -7 c79 -11 200 -53 258 -91
28 -19 54 -33 56 -30 3 2 -22 22 -54 44 -72 49 -184 89 -283 102 -41 5 -97 15
-123 22 -47 13 -49 14 -44 45 8 48 -11 103 -50 142 -24 24 -30 36 -22 42 17
10 151 29 208 29 88 0 223 -29 301 -65 49 -23 67 -28 52 -16 -38 33 -173 79
-267 92 -98 13 -207 6 -282 -16 -59 -18 -103 -19 -103 -2 0 29 63 118 109 153
27 22 55 50 63 63 7 13 22 27 33 32 35 16 164 0 250 -29z m-4572 -46 l57 -27
0 -47 c1 -26 7 -58 15 -72 8 -14 14 -28 15 -32 1 -21 -158 1 -212 28 -16 8
-28 10 -28 5 0 -23 121 -61 195 -61 41 0 61 -7 105 -36 30 -19 67 -38 83 -41
31 -6 33 -10 11 -34 -23 -26 -27 -87 -10 -144 13 -43 13 -51 1 -65 -21 -23
-97 -60 -126 -61 -13 -1 -35 -5 -49 -10 -17 -5 -7 -6 30 -3 60 7 115 26 142
51 17 15 20 13 58 -28 32 -35 38 -49 33 -69 -3 -14 -7 -62 -8 -107 -1 -73 -5
-87 -36 -138 -49 -83 -171 -192 -273 -246 -46 -24 -83 -45 -81 -47 2 -2 50 20
106 49 124 64 221 150 268 239 l33 61 19 -36 20 -36 -25 -20 c-39 -31 -59 -98
-54 -177 l5 -69 -34 -1 c-107 -4 -203 -124 -203 -254 0 -35 -2 -38 -27 -38
-79 1 -235 58 -308 114 -87 67 -183 177 -233 266 -36 65 -77 199 -87 288 l-7
64 48 -35 c27 -19 72 -46 101 -61 64 -32 219 -73 304 -80 l64 -5 -73 14 c-158
30 -320 98 -394 164 l-48 43 0 94 c0 85 11 193 26 264 5 23 6 22 23 -15 27
-61 97 -143 149 -176 43 -27 158 -70 186 -68 6 0 -16 10 -50 23 -33 12 -76 32
-95 44 -57 35 -143 132 -173 195 l-27 57 31 64 c53 111 147 197 255 233 24 8
75 12 131 10 75 -2 100 -7 147 -31z m2040 -65 c-55 -40 -109 -106 -129 -156
-15 -42 -17 -42 -72 -48 -31 -3 -58 -4 -60 -2 -8 8 45 100 82 142 60 68 102
92 165 92 l54 1 -40 -29z m-453 4 c16 -8 38 -28 49 -44 25 -34 43 -119 35
-159 -5 -24 -10 -28 -29 -25 -16 4 -26 16 -34 44 -22 71 -99 136 -186 155
l-30 6 40 18 c49 23 117 25 155 5z m597 -12 c54 -27 67 -43 35 -43 -50 0 -178
-92 -194 -140 -3 -10 -20 -13 -58 -11 -30 1 -56 4 -58 6 -7 6 43 87 74 121 37
41 112 94 133 94 9 0 39 -12 68 -27z m-742 -44 c66 -17 155 -102 155 -149 0
-6 -30 -10 -76 -10 -61 0 -81 4 -101 20 -14 11 -43 23 -65 26 -40 7 -44 13
-28 45 22 41 124 10 174 -53 14 -18 26 -28 26 -21 0 20 -58 80 -94 97 -19 9
-46 16 -62 16 -26 0 -27 0 -9 20 21 23 22 23 80 9z m859 -61 l26 -43 -61 -7
c-33 -4 -79 -17 -102 -30 -44 -24 -127 -28 -127 -6 0 17 80 85 125 108 22 11
57 20 77 20 33 0 40 -5 62 -42z m1643 -32 c27 -23 27 -25 15 -71 -17 -63 -9
-68 16 -12 25 56 59 79 125 84 97 7 149 -53 151 -172 0 -34 -8 -84 -18 -115
-18 -53 -64 -129 -78 -130 -4 0 -26 13 -50 28 -24 15 -81 45 -128 66 -129 57
-149 69 -178 99 -25 26 -27 34 -27 115 l0 86 34 23 c46 31 101 31 138 -1z
m-3274 -15 c103 -39 178 -196 148 -309 -12 -43 -12 -43 -49 -35 -47 9 -103 6
-116 -7 -14 -14 -26 -12 -26 4 0 22 -20 70 -26 63 -3 -3 -1 -21 4 -41 12 -41
9 -42 -44 -20 -53 22 -144 15 -184 -15 l-30 -22 -27 28 c-37 40 -64 107 -70
173 -5 52 -3 60 24 89 22 26 39 34 75 38 94 11 144 -15 189 -97 20 -35 20 -35
14 -5 -4 17 -18 45 -31 62 -20 26 -23 37 -14 53 23 42 105 63 163 41z m1462
-76 c22 -3 81 -17 132 -31 73 -21 92 -30 97 -48 3 -11 6 -71 6 -131 0 -67 6
-134 15 -169 22 -85 80 -189 132 -237 84 -77 230 -129 364 -129 65 0 85 4 138
31 55 27 70 31 117 26 54 -6 130 -36 192 -77 43 -29 41 -12 -5 35 -57 59 -90
75 -157 75 -57 0 -58 0 -44 21 7 12 30 31 50 42 34 20 40 21 124 9 109 -16
158 -37 219 -93 54 -50 87 -110 105 -192 16 -68 6 -121 -39 -225 -16 -37 -33
-85 -36 -107 -10 -53 -12 -55 -36 -47 -13 5 -30 31 -46 70 l-25 62 26 44 c13
23 32 48 40 56 9 7 16 16 16 21 0 5 -27 -12 -59 -37 l-60 -46 -45 38 c-25 21
-46 43 -46 49 0 6 9 43 20 83 24 87 25 97 2 54 -10 -18 -35 -51 -55 -72 l-38
-38 -71 22 -71 21 -22 59 -22 60 -7 -57 -7 -57 -97 0 c-95 0 -98 1 -115 28
l-17 27 6 -32 c5 -24 3 -33 -7 -33 -8 0 -6 -5 6 -13 25 -19 14 -58 -24 -80
-36 -21 -95 -103 -98 -134 -1 -13 0 -23 3 -23 2 0 29 20 60 45 50 41 112 75
136 75 5 0 -13 -18 -40 -39 -63 -51 -135 -158 -174 -263 -26 -69 -31 -98 -32
-173 -1 -139 2 -144 164 -226 96 -48 178 -79 210 -79 87 0 242 130 275 232 10
29 20 58 22 64 3 8 -13 11 -49 10 -94 -2 -159 47 -161 121 -1 27 6 41 27 59
15 13 35 24 44 24 39 0 92 -22 123 -51 17 -16 34 -27 37 -24 3 3 5 42 5 88
l-1 82 20 -44 c24 -56 37 -115 38 -163 0 -29 3 -36 15 -32 8 4 15 1 15 -5 0
-24 18 -9 24 19 6 33 18 36 76 20 27 -7 40 -20 60 -56 13 -26 53 -76 88 -112
l63 -64 -23 -16 c-83 -59 -174 -182 -199 -272 -7 -25 -13 -46 -15 -48 -1 -1
-29 5 -64 14 -116 33 -263 -11 -365 -107 -67 -63 -104 -136 -115 -224 -5 -37
-10 -68 -12 -70 -15 -15 -364 -37 -623 -38 -312 -2 -415 8 -415 40 0 24 -37
87 -67 114 -58 55 -111 74 -203 74 -91 0 -129 -13 -182 -62 -24 -23 -32 -25
-85 -19 -202 24 -365 127 -443 280 -29 57 -30 64 -30 191 0 137 -14 207 -55
269 -15 22 -16 41 -10 129 7 116 -6 246 -34 332 l-19 57 26 39 c14 21 30 39
36 39 6 0 26 -14 45 -31 29 -27 32 -34 22 -55 -8 -18 -19 -24 -41 -24 -37 0
-40 -15 -4 -24 19 -5 24 -11 19 -24 -11 -29 -23 -163 -18 -196 3 -20 16 -39
36 -54 l32 -22 3 90 c3 98 15 121 20 39 8 -132 132 -341 219 -370 54 -17 229
6 325 43 42 17 62 31 82 62 46 71 74 200 56 265 l-11 42 -30 -25 c-38 -32 -84
-41 -138 -26 -57 15 -85 44 -76 78 9 36 33 62 72 78 45 19 82 17 121 -6 l32
-20 0 38 c0 20 -4 53 -10 71 -14 51 -6 48 29 -8 17 -28 35 -51 39 -51 5 0 19
12 31 26 22 26 23 27 6 70 -9 24 -37 64 -61 88 -24 25 -44 49 -44 55 0 22 24
10 66 -33 58 -57 57 -39 -1 23 -43 46 -44 50 -34 80 15 43 4 51 -16 11 -9 -17
-22 -29 -28 -26 -7 2 -42 15 -79 27 -63 21 -68 25 -68 51 0 27 -24 98 -33 98
-2 0 -5 -23 -6 -52 0 -28 -4 -55 -8 -59 -5 -3 -48 -9 -96 -12 l-88 -6 -19 42
-19 41 -3 -48 c-3 -47 -5 -50 -42 -63 -37 -12 -41 -12 -63 9 -24 22 -33 13
-10 -11 10 -11 8 -15 -7 -25 -10 -6 -28 -19 -40 -28 -20 -17 -19 -17 18 -2 65
26 88 4 35 -35 l-31 -23 -29 21 c-15 12 -32 21 -36 21 -4 0 -19 9 -33 20 -46
36 -42 20 11 -41 l52 -60 -20 -21 c-19 -19 -24 -19 -77 -7 -55 12 -57 14 -50
38 4 14 10 48 13 74 l6 48 102 39 c183 69 288 153 352 280 57 115 63 211 22
339 -12 35 -21 76 -21 91 0 27 3 28 58 35 85 9 382 2 382 -10 0 -6 3 -5 8 1 4
6 14 14 22 17 16 7 280 1 345 -8z m2219 -158 c22 -12 48 -37 59 -55 28 -47 33
-139 13 -204 -18 -56 -69 -118 -96 -118 -8 0 -30 24 -47 53 -17 28 -50 70 -72
91 l-40 39 25 30 c32 38 59 91 73 145 14 49 27 52 85 19z m-3789 -136 c22 -10
46 -25 54 -34 18 -22 30 -21 24 1 -11 42 114 55 157 17 29 -26 60 -101 60
-142 0 -45 -21 -126 -42 -168 -31 -58 -94 -101 -135 -90 -19 4 -23 10 -18 23
4 9 9 42 11 72 3 54 3 54 -6 13 -5 -23 -16 -56 -25 -73 -15 -30 -20 -32 -53
-27 -94 16 -207 103 -238 183 -22 58 -16 164 11 195 45 49 130 62 200 30z
m3904 -226 c16 -14 42 -51 57 -81 23 -48 26 -63 22 -124 -6 -83 -37 -131 -102
-161 -68 -31 -73 -28 -68 37 5 60 -11 173 -35 239 -13 36 -12 41 3 50 10 6 31
22 48 37 17 15 34 28 38 28 3 0 20 -11 37 -25z m-4030 -139 c62 -42 143 -70
181 -62 16 3 32 1 35 -4 9 -15 61 -12 99 7 43 20 61 9 77 -49 26 -100 -44
-243 -144 -293 -59 -29 -146 -35 -167 -10 -10 12 -9 16 4 21 15 6 53 64 42 64
-2 0 -18 -13 -34 -30 -17 -16 -37 -30 -45 -30 -30 0 -102 66 -131 119 -30 57
-44 149 -32 214 5 29 45 87 60 87 2 0 27 -15 55 -34z m-109 -278 c31 -61 58
-88 115 -113 28 -13 57 -30 64 -38 7 -9 26 -19 42 -22 23 -5 29 -12 29 -33 -1
-69 -86 -184 -164 -222 -52 -24 -132 -26 -184 -4 l-37 16 53 19 c70 24 107 52
137 103 34 58 32 68 -4 19 -40 -55 -88 -90 -140 -102 -72 -16 -112 11 -137 95
-47 157 36 324 161 324 40 0 44 -3 65 -42z m4205 -10 c64 -136 5 -278 -113
-278 -34 0 -45 5 -66 33 -14 17 -26 26 -26 18 0 -8 11 -29 25 -47 28 -36 21
-44 -39 -44 -75 0 -93 67 -41 157 46 79 85 157 85 171 0 6 12 12 28 13 15 0
43 6 62 13 55 21 59 19 85 -36z m-4859 -99 c3 -6 30 -26 59 -44 l53 -34 -1
-60 c0 -49 5 -68 26 -100 43 -65 34 -75 -39 -42 -91 41 -153 172 -128 269 7
24 19 29 30 11z m1119 -167 c14 -92 15 -132 6 -243 -14 -168 -14 -189 -1 -169
5 8 10 26 10 38 0 37 23 21 42 -29 56 -151 18 -340 -103 -509 -21 -30 -49 -74
-61 -98 -12 -23 -27 -41 -32 -39 -18 6 -34 78 -35 149 -1 51 6 87 28 148 16
44 27 80 25 80 -3 0 -20 -32 -39 -71 -58 -122 -56 -217 7 -348 41 -88 54 -169
38 -245 l-12 -59 -34 72 c-19 39 -39 71 -45 71 -5 0 0 -18 11 -40 53 -104 66
-276 30 -393 -26 -84 -92 -182 -150 -223 -71 -50 -83 -51 -113 -5 l-26 39 21
18 c40 37 62 78 79 151 12 48 15 83 9 101 -4 15 -13 46 -19 69 -12 43 -93 163
-111 163 -6 0 5 -23 24 -50 58 -84 79 -153 74 -241 -5 -81 -36 -161 -74 -185
-16 -11 -24 -8 -58 23 -33 31 -37 39 -27 54 6 10 11 27 10 36 0 14 -2 15 -6 3
-3 -8 -12 -22 -19 -31 -13 -14 -20 -13 -74 14 -37 18 -81 31 -113 34 l-52 3
55 -15 c88 -25 160 -66 222 -126 81 -80 101 -129 96 -244 -3 -79 -8 -98 -37
-152 -41 -77 -57 -85 -65 -33 -10 63 -27 60 -20 -3 16 -138 -75 -219 -226
-204 -33 4 -77 15 -98 26 -68 35 -122 107 -122 162 0 17 5 15 33 -14 86 -92
236 -63 267 53 11 42 6 70 -25 143 -6 15 -4 16 20 7 33 -13 48 -13 40 -1 -3 5
-62 28 -130 50 -69 22 -145 54 -169 70 -92 63 -152 159 -171 269 -8 50 6 56
23 9 13 -37 81 -121 90 -112 3 3 -4 15 -16 28 -42 45 -67 117 -67 197 0 65 4
82 29 128 34 60 93 118 131 128 20 5 45 -5 105 -40 137 -80 111 -50 -48 55
-306 201 -419 362 -430 614 -4 113 7 188 42 266 l15 34 -6 -56 c-7 -72 12
-216 38 -286 12 -30 23 -53 25 -51 2 2 -6 46 -16 98 -46 223 -9 414 106 549
34 40 35 40 69 25 19 -8 45 -14 57 -14 13 0 37 -14 55 -30 l32 -29 -20 -52
c-30 -78 -35 -172 -14 -244 24 -84 47 -124 105 -188 54 -59 82 -78 259 -178
116 -65 160 -100 193 -154 10 -16 18 -25 18 -19 0 23 -62 105 -102 134 -23 17
-92 59 -153 93 -208 117 -295 231 -303 398 -5 107 18 205 46 193 59 -25 124
-35 198 -31 78 4 144 26 144 47 0 6 19 10 43 10 122 0 274 144 280 265 2 31 6
35 44 46 23 6 57 22 75 34 l33 23 12 -27 c7 -16 19 -78 28 -139z m-902 48 c31
-11 82 -20 113 -20 49 0 57 -3 61 -21 13 -47 51 -103 80 -118 17 -9 37 -28 46
-43 9 -15 27 -30 41 -34 55 -13 25 -32 -74 -44 -73 -10 -156 2 -210 30 -41 21
-108 88 -75 75 32 -12 114 -17 90 -6 -11 5 -32 12 -46 15 -61 13 -109 79 -109
151 0 41 5 42 83 15z m4760 -12 c39 -20 50 -39 55 -90 7 -71 -17 -114 -71
-129 -45 -12 -101 -5 -134 17 -13 8 -23 11 -23 8 0 -13 33 -44 46 -44 20 0 28
-21 13 -31 -8 -5 -30 -9 -50 -9 -30 0 -39 5 -48 28 -6 15 -31 49 -55 77 -41
46 -45 49 -69 38 -23 -11 -28 -10 -37 6 -8 17 -4 19 45 23 29 3 61 10 70 18 8
7 28 14 43 15 38 3 88 30 109 60 20 27 68 33 106 13z m-3491 -164 c40 -57 87
-84 149 -84 58 0 94 26 110 81 l12 39 66 -6 c79 -8 90 -14 30 -15 l-44 -2 38
-10 c20 -6 37 -16 37 -23 0 -10 -8 -10 -40 1 -46 16 -46 4 0 -15 16 -7 30 -16
30 -21 0 -12 -6 -11 -43 6 l-32 16 34 -30 c21 -18 30 -34 26 -42 -6 -9 -11 -9
-19 2 -17 21 -56 53 -56 46 0 -4 14 -22 31 -42 35 -39 29 -47 -10 -12 l-24 22
16 -25 c18 -26 21 -40 10 -40 -5 0 -18 18 -31 40 -12 22 -27 40 -33 40 -11 0
-7 -9 23 -52 10 -14 18 -32 18 -40 -1 -7 -8 0 -16 15 -19 35 -28 30 -15 -7 17
-44 -13 -32 -34 14 -23 52 -33 44 -11 -10 13 -34 14 -40 2 -40 -8 0 -17 8 -19
18 -4 13 -5 11 -6 -5 -2 -39 -31 -28 -31 11 0 19 -5 38 -11 42 -8 5 -10 -6 -7
-35 2 -22 0 -41 -4 -41 -5 0 -8 6 -9 13 0 10 -2 10 -6 0 -10 -27 -23 -11 -24
30 l-1 42 -8 -38 c-9 -48 -20 -59 -21 -21 0 27 -1 28 -9 7 -16 -40 -44 -26
-29 14 14 36 4 40 -16 6 l-16 -28 6 30 c6 28 5 29 -8 11 -9 -12 -16 -15 -21
-8 -3 6 -2 13 4 17 5 3 10 11 10 18 0 8 -3 8 -12 -1 -19 -19 -33 -14 -15 6 19
21 23 42 5 24 -16 -16 -25 -15 -32 4 -4 10 1 26 11 37 10 11 13 17 6 14 -6 -4
-19 -4 -28 -1 -14 6 -14 8 2 27 17 19 17 20 1 14 -10 -4 -18 -2 -18 3 0 6 6
10 13 10 8 0 9 3 1 8 -16 10 -13 45 5 59 13 10 17 7 23 -17 5 -15 23 -49 40
-76z m3771 79 c52 -56 97 -188 97 -287 0 -38 -32 -182 -43 -193 -3 -2 -22 12
-43 31 -21 20 -41 36 -44 36 -3 0 -11 4 -18 9 -10 6 -5 16 18 41 38 40 35 60
-10 82 -71 34 -150 32 -241 -6 -12 -5 -18 0 -23 18 -5 21 -12 26 -39 26 -17
-1 -50 -7 -72 -15 -22 -8 -41 -15 -42 -15 -2 0 -3 11 -3 24 0 19 6 24 38 30
22 3 48 16 62 31 13 14 35 25 49 25 14 0 38 8 52 18 77 50 139 95 179 131 25
22 48 40 51 41 3 0 17 -12 32 -27z m-550 -125 c25 -35 50 -83 56 -108 7 -25
14 -50 16 -57 3 -8 18 -6 55 8 27 10 61 19 75 19 23 0 25 -3 25 -50 0 -46 -21
-120 -34 -120 -3 0 -22 11 -42 25 -21 15 -51 25 -71 25 -35 0 -92 -24 -105
-44 -5 -7 -18 -5 -43 7 -32 15 -36 21 -31 45 2 15 7 54 10 87 4 57 4 56 -11
-20 -9 -44 -16 -81 -17 -82 -1 -1 -34 9 -72 22 -39 14 -103 28 -142 31 l-72 7
0 31 c0 17 5 48 11 69 13 47 31 48 100 1 50 -33 54 -34 65 -17 49 73 83 113
123 146 25 20 49 37 53 37 4 0 27 -28 51 -62z m-1559 -28 c-8 -60 8 -124 40
-161 65 -75 169 -69 214 12 10 16 19 29 22 29 11 -1 81 -72 76 -77 -3 -3 -14
0 -23 8 -15 11 -16 11 -5 -1 6 -8 12 -21 12 -29 0 -11 -6 -9 -20 9 -23 30 -27
14 -4 -18 16 -24 6 -30 -15 -9 -10 10 -11 6 -6 -18 l7 -30 -27 30 -26 30 17
-32 c20 -35 13 -53 -11 -33 -13 11 -14 10 -9 -4 10 -27 -14 -18 -30 12 -8 15
-15 23 -16 19 0 -5 5 -17 11 -29 14 -27 3 -36 -17 -12 -15 18 -15 18 -9 -3 5
-17 2 -23 -9 -23 -12 0 -16 10 -16 37 0 20 -3 33 -7 29 -8 -8 -9 -13 -12 -41
-2 -21 -21 -19 -21 3 0 14 -2 15 -10 2 -14 -23 -22 -6 -10 25 6 15 8 30 5 33
-3 3 -11 -9 -17 -26 -13 -33 -28 -43 -28 -17 0 9 -6 12 -17 8 -15 -5 -16 -3
-5 8 20 22 14 34 -8 14 -24 -22 -26 -13 -4 20 9 14 12 25 8 25 -5 0 -15 -9
-22 -20 -14 -23 -37 -27 -28 -5 3 9 0 15 -9 15 -21 0 -18 13 6 28 12 7 18 16
15 19 -3 4 -15 -2 -26 -12 -11 -10 -23 -15 -26 -12 -4 3 7 18 22 33 l29 26
-29 -17 c-25 -15 -28 -15 -23 -2 3 9 1 18 -6 20 -7 2 4 14 23 27 33 21 30 22
-14 4 -16 -6 -18 -4 -13 10 4 10 7 23 7 30 0 7 10 18 23 24 l22 11 -24 0 -23
1 23 21 c13 11 18 18 12 14 -22 -11 -14 12 10 28 12 9 23 16 25 16 1 1 0 -22
-4 -49z m2047 -142 c22 -6 39 -16 39 -21 0 -5 -17 -25 -37 -44 l-36 -35 34
-26 c49 -37 117 -111 125 -135 10 -31 -21 -47 -88 -47 -32 0 -74 -6 -92 -14
l-33 -14 -17 39 c-22 49 -76 79 -141 79 -43 0 -45 1 -45 29 l0 28 49 -9 c28
-5 76 -18 107 -28 32 -11 59 -18 61 -16 6 6 -93 45 -145 57 -49 12 -49 12 -36
38 8 14 14 35 14 47 0 68 127 107 241 72z m-753 -74 c85 -17 189 -67 251 -121
58 -49 130 -154 157 -227 30 -82 38 -143 29 -220 -6 -59 -9 -65 -33 -71 -47
-11 -130 -65 -162 -103 l-30 -36 -32 31 c-18 18 -60 45 -93 60 -54 25 -70 28
-170 28 -133 0 -189 -21 -259 -95 l-45 -48 -41 39 c-23 22 -63 50 -89 64 -46
23 -49 27 -66 90 -65 239 87 524 320 598 96 30 156 33 263 11z m419 -69 c24
-27 32 -85 12 -85 -6 0 -23 -9 -38 -20 l-28 -19 -61 59 c-45 44 -57 62 -48 69
46 39 129 37 163 -4z m164 -112 c41 -24 63 -75 52 -120 -8 -36 -9 -36 -66 -38
-41 -1 -65 -8 -87 -24 -22 -16 -30 -18 -30 -8 0 8 -16 46 -36 86 -19 39 -32
76 -28 82 23 37 145 51 195 22z m476 -40 c38 -18 73 -82 73 -134 0 -46 -7 -52
-33 -29 -31 30 -92 37 -156 19 -9 -3 -17 7 -21 28 -4 18 -15 44 -24 59 -17 24
-17 27 1 47 10 12 22 25 28 29 14 10 94 -2 132 -19z m-223 -47 c18 -8 41 -24
50 -37 16 -24 21 -86 8 -105 -4 -6 -36 -10 -72 -10 -36 1 -75 -3 -87 -7 -17
-6 -23 -5 -23 6 0 8 -16 29 -35 45 -34 31 -34 31 -20 66 22 53 106 72 179 42z
m-187 -112 c13 -8 30 -25 39 -39 15 -23 15 -26 -5 -51 -12 -15 -21 -33 -21
-40 0 -17 0 -17 -43 1 -41 17 -100 20 -126 5 -17 -8 -19 -4 -24 43 -4 39 -1
57 11 70 33 37 120 43 169 11z m-1314 -5 l37 -10 0 -77 c0 -43 7 -104 15 -135
8 -32 15 -59 15 -60 0 -1 -29 -3 -65 -3 -55 -1 -65 1 -70 17 -10 30 -39 40
-64 23 -17 -13 -20 -22 -16 -48 6 -30 4 -33 -35 -51 -43 -19 -101 -94 -114
-145 -5 -20 -18 -29 -71 -46 -36 -11 -65 -19 -65 -18 0 1 7 15 15 30 32 61 8
144 -41 144 -14 0 -16 9 -12 53 8 99 86 223 175 278 82 51 211 72 296 48z
m1754 -24 c32 -32 35 -40 30 -76 -9 -70 -79 -119 -147 -104 -28 6 -30 10 -30
49 0 28 -7 52 -20 69 -26 33 -25 43 5 72 19 20 34 25 76 25 45 0 55 -4 86 -35z
m-207 -52 c41 -37 48 -86 20 -131 -17 -28 -24 -32 -43 -25 -28 10 -106 10
-134 0 -20 -7 -23 -5 -23 17 0 14 -4 28 -10 31 -5 3 -10 18 -10 33 0 86 133
135 200 75z m-270 -68 c44 -23 70 -62 70 -106 0 -22 -3 -39 -7 -39 -5 1 -33 9
-63 20 -30 11 -77 19 -104 20 l-49 0 7 38 c3 20 6 45 6 54 0 29 92 38 140 13z
m630 -20 c56 -29 76 -105 44 -166 -12 -25 -20 -30 -37 -25 -12 4 -36 9 -54 13
-27 5 -33 11 -42 49 -6 24 -23 55 -39 69 l-27 26 28 24 c33 29 83 33 127 10z
m-3609 -65 c76 -38 139 -110 139 -159 0 -15 11 -22 51 -31 90 -22 139 -83 139
-175 0 -48 -17 -92 -44 -114 -14 -11 -27 -3 -95 60 -140 131 -263 188 -408
189 -112 0 -181 -26 -250 -94 -121 -121 -108 -309 34 -458 70 -73 171 -157
277 -228 71 -49 76 -55 60 -67 -60 -44 -213 -21 -267 40 -16 18 -21 19 -51 9
-81 -30 -175 -2 -221 65 -28 43 -34 103 -10 123 23 19 18 27 -17 28 -91 2
-172 51 -209 125 -18 34 -21 54 -17 116 3 44 12 90 22 109 23 44 71 72 124 72
23 0 42 3 42 8 0 4 -14 23 -30 42 -82 96 -58 223 53 282 86 46 242 23 316 -45
23 -21 24 -21 35 -3 73 123 206 166 327 106z m3394 5 c56 0 60 -2 82 -34 13
-19 23 -45 23 -58 0 -82 -87 -122 -146 -68 -15 14 -33 25 -40 25 -8 0 -14 10
-14 23 0 12 -9 37 -20 55 -19 31 -19 33 -2 51 11 13 24 17 37 13 11 -4 47 -7
80 -7z m-175 -32 c14 -9 30 -24 37 -33 18 -22 15 -82 -5 -108 -19 -25 -92 -43
-92 -23 0 7 -22 36 -50 65 -27 29 -50 58 -50 64 0 6 12 20 26 31 33 26 100 28
134 4z m-1610 -8 c6 -8 18 -34 25 -57 11 -34 14 -38 14 -17 1 23 7 28 43 37
53 14 65 4 37 -31 l-21 -27 26 -31 c49 -58 29 -71 -48 -32 -15 8 -31 11 -35 6
-4 -4 -20 -25 -35 -47 -33 -43 -46 -36 -46 27 0 37 0 37 -40 37 -51 0 -51 14
1 40 39 21 41 21 55 3 19 -25 17 -1 -2 41 -24 50 -5 88 26 51z m1366 -26 c70
-27 128 -77 162 -143 21 -41 26 -65 25 -121 0 -40 -7 -86 -16 -106 -14 -35
-18 -37 -84 -48 -111 -17 -280 -31 -383 -31 l-97 0 26 52 c33 67 37 182 8 240
-14 26 -16 41 -9 55 17 31 65 70 117 97 66 34 168 36 251 5z m-542 -29 c71
-27 140 -88 161 -145 23 -58 17 -163 -12 -227 l-22 -48 -189 0 c-104 0 -230 3
-281 7 -79 5 -91 8 -85 22 20 49 27 141 15 188 -6 26 -14 58 -17 69 -12 46
100 133 200 154 59 13 167 3 230 -20z m-586 -24 c123 -63 184 -195 147 -321
l-16 -58 -82 6 c-85 6 -274 38 -362 60 -49 13 -50 14 -47 49 3 27 -2 41 -19
57 -13 12 -26 21 -31 21 -13 0 -9 40 8 76 15 31 20 34 60 34 42 0 44 -1 44
-31 0 -17 5 -39 10 -50 10 -18 13 -18 39 -4 16 8 35 28 42 44 13 28 14 29 42
15 15 -8 45 -14 65 -12 33 3 37 6 34 28 -1 13 -11 34 -22 45 -23 25 -25 36 -8
53 18 18 43 15 96 -12z m1882 -11 c37 -19 50 -43 50 -95 0 -50 -42 -100 -85
-100 -26 0 -26 1 -20 53 5 40 2 60 -13 89 -17 33 -18 38 -3 51 21 20 36 20 71
2z m-130 -22 c90 -53 44 -223 -60 -223 -16 0 -18 6 -13 53 5 49 3 56 -26 89
l-31 36 28 30 c31 35 61 40 102 15z m-262 -26 c46 -49 37 -128 -17 -160 -34
-20 -120 -23 -126 -4 -2 6 -5 36 -8 64 l-4 53 34 6 c21 4 42 17 55 35 26 35
38 36 66 6z m-2075 -15 c9 -8 17 -25 17 -36 0 -32 -46 -123 -68 -135 -24 -13
-87 -90 -79 -97 2 -3 29 19 58 48 67 66 179 114 227 97 35 -12 57 -49 49 -81
-4 -13 -29 -38 -59 -58 -29 -19 -69 -48 -88 -66 -19 -17 -46 -37 -58 -44 -13
-6 -21 -14 -19 -17 3 -2 20 3 38 13 48 24 169 64 196 64 33 0 73 -43 73 -77 0
-16 -7 -39 -16 -51 -18 -26 -109 -73 -177 -92 -26 -7 -45 -15 -42 -18 2 -3 40
-4 84 -3 103 3 151 -15 151 -57 0 -55 -60 -88 -213 -117 -45 -8 -107 -27 -137
-42 -68 -34 -159 -42 -213 -20 -39 17 -49 13 -21 -8 14 -10 5 -16 -57 -44
-191 -85 -357 -121 -564 -121 -148 0 -243 14 -298 41 -65 33 -242 154 -339
231 -99 78 -179 163 -204 217 -23 48 -30 168 -14 226 26 95 139 180 252 192
75 8 195 -24 284 -76 85 -49 216 -169 270 -246 l39 -57 90 6 c254 16 397 19
405 6 5 -8 16 13 30 56 28 86 69 144 121 173 21 12 39 21 39 19 0 -2 -9 -27
-20 -57 -27 -71 -19 -77 13 -8 30 65 162 250 185 258 20 7 41 1 65 -19z m-263
-64 c16 -29 30 -60 30 -69 0 -9 -18 -24 -40 -34 -23 -10 -56 -36 -75 -57 -19
-21 -37 -38 -40 -38 -3 0 -5 14 -5 30 0 40 -20 87 -54 127 -54 64 -27 89 96
92 l58 1 30 -52z m2457 32 c67 -41 57 -149 -17 -180 -37 -15 -102 -15 -131 0
-26 15 -24 22 13 41 48 23 73 63 73 115 0 51 11 55 62 24z m-2690 -32 c-2 -35
1 -42 15 -40 21 3 66 -86 73 -148 3 -25 0 -67 -7 -93 l-13 -48 -158 -3 -157
-3 -19 43 c-23 51 -73 127 -111 169 -15 17 -33 48 -40 70 -7 22 -21 52 -32 68
l-19 27 235 0 235 0 -2 -42z m2922 -104 c43 -54 9 -144 -59 -159 -43 -9 -62 6
-64 51 -1 22 -6 46 -10 56 -6 12 -1 18 22 23 16 3 40 17 52 31 29 30 34 30 59
-2z m-3225 -163 l36 -69 -67 -7 c-36 -4 -71 -9 -77 -11 -10 -3 -66 77 -66 96
0 4 7 10 15 13 17 7 55 78 55 104 1 28 62 -46 104 -126z m3066 110 c15 -28 12
-83 -5 -108 -23 -32 -75 -46 -124 -33 -23 6 -41 13 -41 16 0 3 5 25 11 49 10
38 15 44 44 49 19 4 44 15 57 26 29 25 45 25 58 1z m-1955 -50 c202 -50 368
-67 760 -77 399 -10 812 26 934 82 75 34 85 32 78 -12 -3 -19 -17 -55 -31 -79
-33 -56 -87 -77 -273 -106 -114 -18 -198 -22 -492 -26 -401 -6 -586 4 -823 44
l-158 26 0 38 c0 29 -6 43 -31 63 -37 31 -71 33 -141 6 -28 -11 -54 -18 -56
-15 -2 2 21 18 52 35 31 18 59 36 62 41 3 6 13 7 22 5 10 -3 53 -14 97 -25z
m2074 -95 c10 -11 16 -32 15 -63 -1 -61 -35 -93 -97 -92 -67 1 -81 10 -83 55
-1 21 -4 48 -8 59 -6 17 -1 23 28 33 20 8 36 18 36 24 0 16 89 3 109 -16z
m-236 -23 c35 -7 49 -33 45 -81 -2 -29 -10 -41 -37 -59 -100 -67 -228 21 -140
95 18 15 39 35 48 45 10 11 24 16 36 12 11 -3 33 -8 48 -12z m-1718 -79 c233
-42 769 -65 1065 -45 153 10 390 41 443 57 44 14 -10 -126 -80 -204 -36 -41
-40 -43 -65 -32 -41 19 -96 5 -116 -31 -11 -19 -22 -27 -32 -23 -40 15 -77 14
-112 -4 -22 -12 -42 -16 -50 -11 -47 30 -137 -8 -173 -73 l-21 -36 -15 27
c-44 77 -161 24 -185 -82 l-6 -30 -182 6 c-197 6 -279 22 -443 86 -76 30 -222
116 -237 139 -3 6 10 20 29 32 47 29 71 74 56 107 -13 28 -66 53 -113 53 l-33
1 45 23 c25 13 54 34 65 46 15 17 26 20 50 15 16 -3 66 -13 110 -21z m1820
-79 c18 -18 25 -35 25 -64 0 -36 -5 -44 -42 -71 -59 -43 -124 -43 -167 1 -24
24 -31 39 -31 71 0 39 1 40 29 35 38 -8 93 8 116 33 24 26 41 25 70 -5z m-253
-2 c8 -10 18 -46 21 -79 6 -53 4 -64 -13 -79 -26 -23 -74 -23 -100 0 -19 17
-19 18 23 96 23 43 45 79 48 79 3 0 13 -8 21 -17z m-217 -165 c21 -10 25 -18
25 -57 0 -55 -33 -126 -70 -153 -23 -16 -120 -41 -129 -33 -2 2 6 16 16 32 21
29 47 96 58 146 6 29 46 77 64 77 6 0 22 -5 36 -12z m117 -35 c15 -33 22 -68
21 -113 0 -113 -41 -174 -180 -267 -126 -85 -156 -140 -114 -209 35 -57 133
-82 191 -49 38 22 43 18 20 -15 -72 -102 -268 -100 -371 3 -28 28 -31 29 -19
7 7 -14 24 -38 39 -54 l26 -28 -35 7 c-60 11 -137 54 -165 91 -54 71 -65 165
-28 237 8 16 12 31 9 34 -10 11 -48 -82 -53 -133 l-6 -53 -26 20 c-14 11 -38
39 -53 61 -23 34 -28 52 -28 105 l0 63 29 0 c16 0 42 5 58 11 27 11 72 15 243
21 51 2 85 9 102 20 18 12 37 16 56 12 105 -21 212 82 212 205 0 33 23 71 42
71 5 0 19 -21 30 -47z m250 7 c44 0 55 -22 38 -74 -15 -45 -41 -67 -87 -73
-59 -7 -115 17 -135 58 -29 59 -27 69 16 84 21 8 46 20 54 28 13 13 18 13 46
-4 17 -10 48 -19 68 -19z m-1952 10 c0 -16 115 -97 184 -129 150 -72 339 -114
561 -123 l60 -3 -70 -18 c-156 -41 -256 -58 -365 -64 l-115 -5 -103 41 c-128
51 -227 101 -315 157 -62 40 -67 46 -61 71 4 16 10 31 13 35 4 4 47 15 96 23
49 9 91 18 94 20 8 9 21 5 21 -5z m1435 -30 c25 -9 27 -14 20 -48 -13 -69 -56
-135 -105 -159 -40 -21 -120 -32 -120 -17 0 4 18 33 40 67 22 33 43 77 47 99
5 33 12 43 37 54 38 16 47 17 81 4z m-151 -23 c27 -19 14 -65 -39 -136 -45
-61 -80 -81 -141 -81 -45 0 -44 18 4 111 52 103 123 145 176 106z m-1541 -34
c-5 -16 -8 -82 -8 -148 0 -131 13 -172 69 -224 26 -24 37 -17 14 9 -16 16 181
-87 260 -137 131 -83 172 -111 267 -182 411 -306 769 -704 1033 -1148 82 -137
259 -455 271 -484 5 -13 28 -64 51 -114 149 -316 329 -727 432 -990 44 -111
193 -397 263 -505 41 -63 78 -125 81 -136 10 -39 -21 -80 -83 -109 -233 -108
-603 -111 -812 -6 -66 34 -103 73 -136 146 -13 27 -39 84 -58 126 -63 138
-128 189 -390 303 -169 74 -233 114 -309 193 -63 67 -99 126 -129 209 -17 49
-22 95 -29 264 -9 229 -22 298 -76 400 -34 64 -34 65 -14 84 19 19 20 19 53 1
42 -22 103 -16 145 14 45 32 48 61 9 118 -34 50 -55 97 -127 283 -41 105 -84
182 -119 214 -17 16 -17 18 5 63 27 52 28 63 13 116 -13 48 -61 103 -102 116
l-33 11 -17 143 c-34 286 -110 491 -247 664 -25 31 -52 77 -60 102 -19 58 -65
91 -127 91 -24 0 -53 -4 -63 -10 -14 -7 -52 5 -170 55 -83 36 -157 65 -163 65
-8 0 -7 4 2 9 8 5 37 7 65 4 100 -10 172 48 163 133 -8 76 -63 124 -144 124
-59 0 -107 -27 -129 -73 -13 -28 -32 -41 -99 -71 l-84 -38 -119 38 c-111 35
-121 41 -136 71 -8 18 -12 34 -8 36 4 2 30 5 57 6 136 7 354 70 480 140 41 23
56 26 85 20 36 -9 123 4 150 21 25 16 31 11 23 -17z m1309 -20 c22 -20 23 -44
3 -111 -17 -56 -36 -72 -87 -72 -67 0 -77 30 -39 114 38 84 80 108 123 69z
m-2491 -87 c41 -19 92 -37 114 -41 78 -13 78 -13 55 -42 -12 -16 -20 -41 -20
-65 0 -52 48 -103 106 -113 21 -4 66 -17 98 -29 l59 -23 -84 -47 c-67 -38 -95
-48 -139 -50 -64 -4 -113 -26 -136 -62 -19 -28 -22 -101 -5 -132 8 -15 4 -46
-14 -128 -44 -198 -58 -431 -34 -600 10 -76 10 -77 -14 -98 -51 -42 -74 -136
-46 -188 9 -16 7 -22 -9 -34 -11 -7 -53 -62 -93 -121 -79 -116 -136 -179 -211
-233 -28 -19 -48 -41 -48 -52 0 -30 45 -67 89 -74 23 -4 41 -12 41 -19 0 -7
10 -25 21 -39 20 -25 21 -31 9 -69 -25 -88 -79 -183 -128 -229 -77 -72 -156
-107 -390 -172 -158 -44 -229 -92 -277 -186 -12 -25 -48 -117 -78 -205 -89
-256 -127 -328 -207 -391 -66 -52 -122 -65 -320 -73 -169 -7 -177 -8 -230 -36
-50 -28 -60 -39 -120 -142 -36 -62 -82 -130 -104 -152 -90 -92 -275 -133 -461
-100 -33 5 -116 12 -185 14 -181 5 -271 41 -316 127 -26 50 -18 66 79 168 128
133 191 232 317 498 59 125 140 295 180 377 40 83 94 199 122 259 213 469 453
900 613 1102 22 28 76 98 120 155 101 133 374 406 535 535 169 137 238 180
531 335 124 65 203 128 230 181 18 35 21 53 16 108 -3 36 -8 72 -12 81 -6 15
-1 15 47 2 64 -17 142 -10 184 17 16 10 32 19 35 19 3 1 39 -14 80 -33z m1042
-72 c36 -33 50 -70 43 -110 -17 -90 -156 -113 -216 -36 -23 28 -27 99 -7 124
44 55 133 66 180 22z m-675 -35 c41 -82 -15 -148 -106 -128 -52 11 -82 45 -82
92 0 62 20 77 101 77 l67 0 20 -41z m150 -82 l93 -33 -80 -38 -80 -37 -56 17
-56 18 30 23 c16 13 32 37 36 53 4 17 10 30 13 30 4 0 49 -15 100 -33z m305 5
c3 -15 17 -40 31 -55 l26 -28 -23 -9 c-12 -5 -67 -28 -122 -51 -55 -23 -166
-74 -246 -115 -81 -41 -149 -74 -153 -74 -3 0 -6 7 -6 16 0 9 -16 32 -35 50
l-36 33 93 47 c105 53 450 214 459 214 4 0 9 -13 12 -28z m171 -187 c87 -35
161 -66 163 -69 3 -3 -2 -15 -11 -28 -9 -12 -16 -39 -16 -60 l0 -37 -57 26
c-32 14 -134 56 -228 93 l-170 67 70 36 c39 20 75 36 81 37 5 0 81 -29 168
-65z m-197 -85 c117 -46 130 -54 142 -83 64 -160 126 -336 142 -400 l20 -78
-23 -37 c-22 -37 -101 -133 -167 -204 -19 -21 -42 -38 -51 -38 -21 0 -209 123
-287 189 -61 51 -62 52 -82 140 -18 77 -31 168 -56 408 l-7 62 99 50 c60 31
106 49 119 46 12 -3 80 -28 151 -55z m517 20 c72 -27 90 -107 37 -161 -64 -64
-193 -14 -193 75 0 43 6 53 46 77 34 21 71 24 110 9z m-1070 -10 c46 -17 66
-46 66 -95 0 -65 -22 -102 -68 -114 -20 -6 -43 -11 -51 -11 -31 0 -102 43
-116 71 -28 54 -12 118 36 145 28 16 97 18 133 4z m170 -157 c11 -142 25 -241
52 -355 l25 -106 62 -59 c58 -56 204 -160 273 -196 28 -15 33 -14 61 3 32 19
158 163 205 232 48 73 37 130 -78 419 -29 76 -54 140 -54 143 0 11 136 -46
151 -64 25 -29 118 -272 146 -380 13 -54 22 -108 18 -125 -8 -44 -41 -102 -94
-164 -55 -66 -226 -209 -258 -217 -16 -4 -63 15 -160 66 -172 90 -281 161
-356 231 l-59 54 -8 237 c-4 130 -11 241 -14 247 -12 18 17 99 38 110 40 19
43 13 50 -76z m1040 -27 c93 -129 165 -306 205 -505 25 -123 44 -277 36 -291
-3 -5 -35 -10 -70 -10 -73 0 -69 -6 -80 110 -21 223 -100 476 -198 634 l-24
39 41 42 c23 24 42 44 43 44 1 1 22 -28 47 -63z m-206 -15 c24 -5 50 -17 57
-28 26 -34 97 -184 121 -256 27 -79 88 -341 98 -425 6 -50 5 -55 -26 -88 -51
-55 -76 -64 -178 -64 l-90 0 0 -32 c0 -18 -9 -52 -19 -75 -52 -114 -238 -140
-341 -46 l-40 35 -30 -26 c-55 -45 -123 -56 -206 -31 -92 27 -154 100 -169
197 l-7 46 -73 -5 c-66 -5 -75 -4 -111 21 -21 14 -44 26 -50 26 -16 0 -24 83
-24 272 0 142 19 364 35 418 3 9 25 21 50 28 25 7 45 16 45 22 0 5 5 10 10 10
6 0 10 -33 10 -77 0 -153 20 -394 35 -423 35 -68 202 -184 415 -290 141 -70
142 -70 173 -53 145 74 328 266 357 374 20 72 -38 295 -114 447 -20 39 -36 74
-36 77 0 3 15 -5 33 -19 18 -14 52 -29 75 -35z m-1120 -26 l50 -25 -13 -62
c-27 -132 -38 -278 -32 -435 3 -87 10 -172 15 -190 14 -42 -2 -55 -64 -51 -45
3 -48 5 -57 37 -5 19 -7 139 -5 265 3 188 8 255 27 359 13 70 25 127 27 127 1
0 25 -11 52 -25z m-2571 -202 c-2 -27 -8 -55 -11 -64 -6 -13 3 -22 36 -38 54
-25 103 -75 93 -91 -8 -13 -154 -9 -185 4 -13 5 -18 -7 -28 -64 -12 -72 -35
-130 -51 -130 -13 0 -61 100 -61 126 0 31 -12 36 -46 20 -16 -8 -51 -18 -77
-21 l-49 -8 15 29 c9 16 36 49 61 73 l46 45 29 -22 c54 -39 42 -6 -20 56 -50
50 -60 66 -57 89 8 67 98 16 154 -87 l24 -45 -2 55 -3 54 55 33 c75 46 84 44
77 -14z m236 21 c205 -46 372 -208 407 -393 19 -104 16 -115 -67 -240 -43 -64
-80 -118 -83 -121 -3 -3 -27 -42 -53 -86 -42 -72 -53 -84 -95 -102 -161 -69
-360 -48 -514 54 -154 102 -240 279 -224 456 8 91 20 118 49 118 14 0 43 6 65
14 l40 14 11 -43 c12 -46 54 -105 76 -105 20 0 72 65 79 99 3 17 9 44 12 60 5
27 8 29 30 20 66 -24 194 8 194 50 0 27 -61 86 -105 102 -37 14 -39 20 -19 91
9 31 89 36 197 12z m2449 -625 c68 -126 -78 -259 -211 -191 -52 26 -73 61 -73
120 0 61 33 119 61 105 31 -15 129 -9 148 9 14 15 20 16 37 5 11 -7 28 -29 38
-48z m1543 14 c39 -40 59 -97 49 -140 -20 -84 -78 -125 -178 -126 -72 -1 -114
18 -151 68 -39 51 -43 101 -12 169 14 31 28 56 30 56 3 0 22 -7 43 -16 42 -18
109 -13 140 11 28 22 40 18 79 -22z m-1385 -55 c13 -62 30 -96 67 -129 92 -87
249 -102 339 -34 l31 24 28 -29 c44 -46 102 -64 186 -58 59 5 78 11 117 38 30
21 48 28 50 20 9 -26 65 -80 131 -125 95 -63 97 -66 82 -118 -22 -72 -72 -155
-122 -202 -38 -35 -49 -53 -49 -76 0 -73 71 -131 135 -112 29 9 35 7 65 -23
19 -19 47 -36 67 -40 39 -7 105 9 122 30 10 12 18 11 49 -10 28 -20 47 -25 84
-23 55 3 74 -10 99 -67 39 -87 51 -158 59 -359 12 -295 39 -375 175 -512 83
-84 127 -110 375 -220 24 -11 24 -12 -12 -12 -58 -1 -139 -21 -191 -48 -27
-13 -94 -68 -150 -122 -109 -105 -171 -139 -224 -127 -15 4 -81 30 -146 57
-216 93 -321 85 -538 -40 -115 -66 -170 -81 -292 -81 -94 0 -103 2 -166 35
-73 38 -120 79 -196 169 -64 77 -81 92 -120 111 -42 19 -171 20 -243 1 -55
-15 -163 -67 -247 -120 -182 -115 -289 -105 -406 41 -131 161 -176 193 -272
193 -83 0 -144 -24 -242 -95 -155 -112 -232 -137 -297 -97 -39 24 -49 39 -82
122 l-25 62 58 53 c74 69 122 165 194 386 64 195 83 234 134 280 47 43 110 69
278 114 160 44 255 89 322 153 52 50 109 148 134 230 9 30 17 41 27 37 34 -13
89 -16 116 -6 25 10 32 8 62 -18 58 -52 154 -54 204 -6 l27 26 34 -20 c23 -14
51 -21 87 -21 46 0 58 4 83 29 16 16 29 38 29 49 0 17 6 18 54 14 66 -5 119
11 146 45 31 40 26 64 -23 95 -99 63 -203 187 -243 290 -20 49 -68 124 -84
130 -7 2 -7 14 1 36 6 19 9 55 6 80 l-5 47 53 1 54 1 11 -49z m1047 -30 c-9
-34 12 -102 43 -139 l27 -33 -28 -59 c-15 -32 -30 -61 -32 -64 -10 -10 -188
121 -207 153 -20 31 -20 35 -6 79 9 25 16 52 16 60 0 12 11 14 58 9 31 -3 71
-1 87 5 44 14 48 13 42 -11z m-1342 -158 c61 0 78 4 109 25 20 14 41 25 46 25
16 0 58 -63 79 -118 44 -119 170 -264 259 -301 38 -16 40 -30 8 -60 -32 -30
-89 -44 -147 -36 -40 6 -49 4 -49 -9 0 -31 -24 -65 -53 -76 -45 -15 -69 -12
-122 14 l-48 25 -27 -29 c-44 -47 -94 -51 -168 -12 -17 9 -35 25 -38 34 -6 20
-29 24 -40 7 -4 -7 -27 -10 -60 -7 -61 5 -97 31 -120 86 -12 27 -19 32 -48 32
-30 0 -86 31 -86 48 0 4 20 20 45 35 69 44 146 127 216 234 35 54 73 105 83
114 18 15 22 14 54 -7 29 -20 48 -24 107 -24z m1752 -63 c17 -26 48 -91 68
-144 71 -188 97 -248 136 -306 l38 -58 -26 -25 c-31 -29 -109 -33 -152 -8 -26
16 -28 15 -58 -14 -51 -52 -128 -55 -173 -7 l-23 24 -29 -24 c-23 -19 -41 -25
-80 -25 -44 0 -54 4 -84 34 -30 30 -38 34 -75 29 -48 -7 -85 10 -105 49 -22
42 -17 61 25 90 59 42 103 119 154 267 26 74 51 139 56 144 6 6 22 5 42 -2 49
-17 139 -13 184 9 22 10 47 18 55 17 8 -1 29 -23 47 -50z m-3212 -1812 c52
-143 137 -179 271 -116 34 16 95 53 135 83 90 67 123 84 185 98 101 23 170
-18 281 -165 57 -76 108 -119 164 -139 89 -32 166 -10 330 96 159 103 180 111
302 116 129 5 142 -1 227 -110 153 -196 288 -260 485 -230 55 9 104 28 230 92
238 120 301 123 519 21 181 -85 223 -75 396 94 126 122 178 148 300 149 186 0
279 -73 371 -294 12 -30 38 -79 57 -108 33 -50 33 -54 18 -71 -28 -31 -127
-78 -191 -91 -40 -9 -99 -10 -180 -6 l-119 7 -111 -56 c-198 -100 -364 -125
-599 -90 -149 22 -176 20 -288 -25 -230 -92 -318 -93 -590 -3 -163 53 -199 52
-368 -16 l-135 -54 -105 6 c-155 9 -280 45 -452 128 -168 81 -256 96 -353 60
-27 -10 -77 -29 -110 -41 -91 -34 -211 -40 -368 -20 -135 17 -172 29 -366 115
-93 42 -111 43 -321 30 -112 -7 -134 -5 -215 15 -97 24 -174 59 -244 110 l-45
33 57 29 c82 41 131 97 188 214 83 168 98 176 354 184 105 4 201 12 215 18 42
18 46 15 75 -63z"/>
<path d="M3671 6750 c-79 -17 -100 -55 -80 -149 25 -123 98 -225 177 -249 71
-21 141 -15 197 17 100 57 164 154 173 258 l5 63 -48 20 c-27 11 -68 25 -92
31 -64 14 -280 20 -332 9z m333 -37 c101 -21 121 -39 112 -99 -11 -84 -65
-163 -152 -222 -38 -26 -98 -37 -159 -27 -83 12 -155 101 -190 236 -13 46 -12
57 2 86 8 18 25 35 37 38 78 17 234 12 350 -12z"/>
<path d="M6434 6156 c-4 -16 -19 -29 -47 -40 l-42 -17 27 -20 c14 -11 30 -34
33 -51 7 -30 8 -30 52 -24 36 5 50 2 70 -14 35 -27 41 -25 49 15 5 30 10 35
35 35 18 0 29 5 29 13 0 16 -32 47 -48 47 -6 0 -12 12 -14 26 -4 36 -35 55
-51 33 -11 -14 -15 -14 -42 3 -39 23 -43 23 -51 -6z m54 -18 c22 -21 24 -22
33 -5 15 26 37 20 44 -12 3 -16 16 -33 30 -39 33 -15 32 -30 -2 -34 -20 -2
-29 -9 -31 -25 -4 -27 -6 -28 -37 -7 -24 15 -38 15 -76 0 -12 -5 -18 0 -23 20
-4 15 -17 35 -29 44 l-22 18 35 9 c25 7 36 16 38 31 4 28 10 28 40 0z"/>
<path d="M5760 6091 c0 -38 -4 -51 -15 -51 -8 0 -29 -14 -47 -30 -32 -29 -33
-30 -13 -45 11 -9 36 -18 57 -21 30 -5 38 -11 43 -34 3 -15 17 -38 30 -50 21
-20 27 -21 41 -9 10 8 25 27 35 43 16 26 23 29 76 30 69 1 76 14 38 70 -17 26
-25 50 -25 81 0 51 -5 53 -69 30 -39 -14 -44 -13 -69 5 -15 10 -39 22 -54 26
-28 6 -28 6 -28 -45z m82 -8 c14 -13 22 -12 62 1 64 22 65 21 59 -24 -5 -32
-1 -46 14 -63 11 -12 23 -30 27 -41 6 -17 2 -18 -49 -14 l-56 5 -19 -37 c-33
-65 -57 -56 -83 31 -4 11 -22 19 -51 23 -25 4 -48 11 -51 16 -3 5 15 21 40 35
41 25 45 30 45 66 0 38 1 39 23 28 12 -6 29 -18 39 -26z"/>
<path d="M6760 4563 c-101 -16 -222 -84 -296 -166 -246 -274 -106 -696 263
-792 270 -70 571 108 632 375 49 214 -63 435 -272 534 -105 50 -217 67 -327
49z m215 -48 c182 -48 316 -195 347 -378 21 -126 -32 -276 -130 -369 -190
-182 -480 -184 -669 -5 -129 122 -175 307 -117 465 23 62 93 162 139 197 49
37 141 82 190 94 63 14 175 12 240 -4z"/>
<path d="M7001 4413 c-21 -26 -22 -26 -77 -14 -71 16 -83 8 -64 -49 11 -32 11
-48 1 -81 -16 -53 -4 -67 65 -77 48 -7 49 -8 68 -60 10 -28 24 -52 31 -52 7 0
27 16 45 36 l32 37 34 -17 c19 -9 41 -16 49 -16 23 0 19 63 -6 94 -18 23 -20
31 -10 52 16 35 14 84 -4 90 -8 3 -28 1 -44 -4 -27 -9 -30 -8 -36 15 -8 35
-35 73 -50 73 -8 0 -23 -12 -34 -27z m66 -66 c6 -30 4 -29 71 -11 19 6 22 3
22 -23 0 -16 -7 -38 -15 -50 -14 -20 -13 -25 10 -59 31 -46 32 -58 3 -49 -58
18 -73 17 -97 -9 -14 -14 -27 -26 -31 -26 -4 0 -12 18 -19 40 -13 45 -38 60
-97 60 -29 0 -34 3 -30 18 14 50 16 81 6 107 -6 15 -8 30 -6 33 3 2 26 -1 52
-7 45 -12 49 -11 73 14 24 24 27 24 39 8 7 -10 16 -31 19 -46z"/>
</g>
</svg>
