<?xml version="1.0" standalone="no"?>
<!DOCTYPE svg PUBLIC "-//W3C//DTD SVG 20010904//EN"
 "http://www.w3.org/TR/2001/REC-SVG-20010904/DTD/svg10.dtd">
<svg version="1.0" xmlns="http://www.w3.org/2000/svg"
 width="707.000000pt" height="960.000000pt" viewBox="0 0 707.000000 960.000000"
 preserveAspectRatio="xMidYMid meet">
<metadata>
Created by potrace 1.16, written by Peter Selinger 2001-2019
</metadata>
<g transform="translate(0.000000,960.000000) scale(0.100000,-0.100000)"
fill="#000000" stroke="none">
<path d="M163 9538 c-26 -47 -26 -229 0 -275 27 -50 61 -45 89 12 l22 45 61 0
61 0 12 -112 c41 -388 213 -644 479 -713 123 -32 336 -11 494 48 84 32 218 99
272 136 64 44 144 133 152 169 3 18 10 32 14 32 5 0 38 -20 75 -45 100 -67
318 -170 431 -203 110 -33 271 -57 316 -48 15 3 31 1 34 -4 6 -9 -45 -210 -90
-350 -172 -550 -427 -1006 -745 -1333 -191 -197 -374 -335 -579 -437 l-62 -31
-99 20 c-218 46 -436 52 -545 15 -123 -41 -192 -146 -133 -201 35 -32 78 -50
148 -64 88 -17 345 -15 440 4 77 15 100 14 100 -7 0 -12 27 -47 101 -131 50
-57 228 -299 334 -455 167 -246 346 -568 430 -775 7 -16 18 -43 24 -60 17 -39
65 -187 84 -255 22 -80 44 -212 52 -311 6 -83 5 -88 -20 -117 -33 -40 -106
-67 -175 -66 -30 1 -104 15 -164 33 -121 34 -162 38 -191 17 -11 -8 -55 -48
-98 -90 -90 -87 -205 -157 -323 -198 -145 -50 -224 -38 -224 34 0 15 -9 37
-21 49 -18 18 -28 20 -67 14 -75 -11 -187 -73 -313 -173 -68 -55 -134 -81
-221 -89 -77 -7 -101 5 -96 45 2 14 -3 27 -9 29 -9 3 -13 -8 -13 -36 0 -50 17
-61 98 -61 100 0 188 37 297 125 125 100 290 166 315 125 4 -7 11 -30 14 -52
5 -33 12 -42 42 -54 64 -27 208 8 344 83 84 47 128 80 223 171 77 74 78 75
120 69 24 -3 79 -18 123 -32 159 -51 264 -41 345 32 34 31 39 41 39 79 l0 44
180 0 c200 0 198 1 159 -65 -21 -35 -82 -75 -114 -75 -25 0 -17 -19 11 -26 79
-20 221 33 308 116 l53 50 75 0 75 0 27 -75 c55 -156 182 -380 223 -396 12 -4
33 -25 46 -46 60 -95 200 -212 320 -269 20 -10 37 -21 37 -25 0 -3 -19 -9 -42
-12 -71 -10 -182 -72 -250 -141 -35 -35 -113 -106 -174 -157 -62 -52 -148
-126 -191 -165 l-80 -71 -99 -7 c-122 -9 -171 -23 -192 -54 -14 -21 -14 -29
-1 -65 9 -28 24 -46 44 -57 17 -8 32 -16 34 -17 2 -1 -10 -18 -28 -38 -36 -41
-39 -72 -12 -130 21 -46 93 -123 150 -161 52 -34 127 -38 168 -9 45 33 81 117
98 229 8 54 21 109 29 122 18 26 148 108 292 184 l102 53 54 -26 c71 -34 127
-46 206 -47 35 0 62 -4 62 -10 0 -6 -13 -37 -29 -68 -16 -32 -46 -105 -67
-163 -34 -96 -37 -113 -38 -220 -1 -84 3 -123 14 -143 11 -22 12 -31 2 -44
-21 -29 -102 -195 -102 -209 0 -21 -17 -15 -72 27 -72 54 -149 89 -236 107
-71 15 -114 12 -248 -13 -28 -5 -33 -2 -52 30 -40 68 -139 104 -200 72 -60
-31 -78 -70 -122 -256 -22 -91 -82 -228 -126 -286 -25 -32 -26 -38 -15 -73 16
-54 64 -78 128 -61 92 23 271 132 319 195 14 19 31 35 36 35 5 0 44 -33 86
-74 70 -67 101 -94 191 -164 52 -40 152 -92 208 -108 30 -9 76 -27 102 -40 76
-40 179 -56 341 -55 80 0 180 5 223 10 92 11 130 35 187 120 l35 51 11 -51 c6
-28 21 -64 33 -80 14 -19 17 -29 9 -29 -25 0 -344 -40 -433 -54 -542 -87 -961
-272 -1059 -468 -34 -68 -35 -148 -4 -216 65 -140 302 -282 627 -376 562 -163
1318 -214 2014 -135 305 34 496 72 732 144 537 165 743 400 560 639 l-26 35
29 93 c39 122 56 241 49 341 -6 94 -20 135 -94 266 -50 88 -89 188 -78 199 3
3 33 4 68 3 37 -1 76 4 97 13 88 36 170 166 170 267 0 143 -100 265 -201 245
-16 -3 -29 -1 -29 4 0 14 -79 57 -140 74 -218 64 -631 61 -762 -5 -33 -17 -58
-45 -58 -64 0 -3 24 -30 54 -59 43 -43 60 -71 86 -137 98 -254 91 -504 -18
-647 -13 -17 -28 -32 -32 -32 -19 0 -43 156 -49 325 -8 198 -17 232 -71 260
-34 17 -106 20 -147 4 -15 -5 -42 -24 -59 -40 l-31 -30 -49 26 c-85 45 -147
58 -258 53 -88 -4 -112 -9 -186 -41 -47 -20 -88 -37 -91 -37 -3 0 -19 29 -34
66 l-28 65 26 27 c15 15 46 33 71 40 32 8 56 25 89 62 l46 51 20 -20 c32 -32
83 -28 125 10 43 37 80 129 72 177 -6 40 14 39 28 -1 8 -21 5 -36 -11 -69 -33
-67 -36 -98 -13 -135 26 -43 79 -68 171 -82 90 -14 141 -2 173 42 30 40 32
133 6 227 -11 41 -27 114 -35 161 -32 190 -82 306 -164 381 -58 53 -183 139
-258 177 -31 15 -44 29 -48 49 -17 80 -29 107 -70 147 -42 42 -135 95 -168 95
-36 0 -23 20 38 55 146 85 273 220 315 334 12 31 26 93 32 138 l11 81 70 -49
c39 -27 74 -49 79 -49 5 0 25 -11 46 -25 46 -30 161 -70 229 -80 36 -4 61 -2
87 9 37 16 42 22 50 68 7 42 14 48 54 48 65 0 215 -83 329 -181 37 -32 126
-67 200 -79 93 -15 153 18 139 76 -9 36 -26 29 -26 -10 0 -39 -12 -46 -73 -46
-93 0 -179 36 -268 110 -102 85 -248 160 -311 160 -27 0 -68 -45 -68 -74 0
-46 -26 -59 -104 -54 -106 7 -295 92 -390 174 l-29 25 26 107 c36 149 46 212
54 330 3 56 9 102 12 102 4 0 15 -17 26 -37 33 -60 138 -159 207 -192 97 -47
177 -58 261 -35 26 8 20 24 -8 24 -141 0 -223 258 -193 602 7 79 13 211 12
293 0 138 -3 156 -27 218 -34 86 -79 149 -138 193 -54 39 -138 78 -204 95 -25
6 -47 15 -50 19 -4 6 68 116 119 182 12 15 35 46 51 68 17 23 49 64 73 93 24
29 55 67 70 85 15 18 41 50 58 69 l31 36 79 -13 c120 -21 362 -19 457 3 144
34 186 104 112 186 -100 110 -314 129 -663 60 l-103 -20 -87 46 c-578 308
-1007 881 -1280 1710 -52 161 -128 443 -120 451 3 2 37 -9 75 -26 344 -146
783 -126 1135 51 l78 39 39 -20 c75 -38 212 -71 316 -77 328 -17 539 152 661
530 l28 87 73 0 c61 0 74 -3 79 -17 14 -46 31 -68 56 -71 45 -5 63 42 63 168
0 126 -18 173 -63 168 -21 -2 -32 -13 -47 -45 l-19 -43 -3172 0 -3171 0 -19
43 c-15 32 -25 43 -46 45 -22 3 -30 -3 -45 -30z m74 -28 c25 -74 9 -247 -24
-257 -6 -2 -20 8 -30 23 -23 35 -26 191 -4 242 18 42 42 38 58 -8z m6474 8
c22 -51 19 -207 -4 -242 -10 -15 -24 -25 -30 -23 -24 7 -39 80 -35 167 6 123
39 169 69 98z m-100 -62 c2 -2 2 -29 1 -60 l-4 -56 -3169 0 -3169 0 0 60 0 60
3168 0 c1743 0 3171 -2 3173 -4z m-171 -158 c0 -27 -49 -168 -80 -229 -66
-130 -175 -244 -280 -291 -36 -17 -76 -35 -89 -41 -15 -8 -75 -12 -155 -11
-143 1 -207 13 -334 66 l-73 30 -99 -46 c-411 -193 -861 -188 -1227 15 l-59
33 -54 -43 c-69 -54 -149 -95 -231 -116 -94 -25 -278 -16 -374 18 -105 37
-202 83 -256 122 -27 19 -51 35 -54 35 -2 0 -37 -33 -77 -72 -117 -117 -220
-158 -396 -158 -207 0 -466 93 -711 255 -46 30 -87 55 -92 55 -5 0 -9 -15 -9
-33 0 -80 -109 -179 -303 -274 -168 -83 -260 -106 -427 -107 -154 -1 -209 12
-306 70 -74 44 -105 73 -160 151 -58 80 -98 170 -128 286 -25 97 -50 282 -41
298 4 5 1181 9 3011 9 l3004 0 0 -22z m-3323 -514 c79 -54 230 -120 316 -139
l27 -5 0 -1125 0 -1125 -1112 2 c-856 2 -1112 6 -1115 15 -3 7 29 29 74 52
297 149 643 475 858 806 202 313 368 688 481 1090 19 66 40 146 46 178 10 49
16 58 38 63 121 26 210 75 295 163 27 28 50 51 52 51 1 0 19 -12 40 -26z m970
-12 c16 -13 30 -49 53 -142 207 -834 569 -1466 1070 -1865 97 -78 242 -172
340 -220 30 -15 56 -29 58 -30 2 -2 -4 -15 -13 -29 -11 -16 -16 -39 -13 -61
l4 -35 -912 0 -912 0 -4 63 c-1 34 -2 540 0 1124 l2 1062 38 12 c60 19 164 75
202 108 40 35 56 37 87 13z m-356 -1201 c1 -581 1 -1089 -1 -1128 l-2 -73 940
0 940 0 56 -26 c31 -14 56 -28 56 -31 0 -3 -17 -25 -37 -48 -21 -23 -60 -70
-88 -104 -27 -35 -54 -68 -60 -74 -13 -15 -87 -116 -106 -143 -66 -97 -126
-164 -147 -164 -75 0 -141 -66 -172 -172 -23 -78 -80 -198 -93 -198 -5 0 -45
18 -90 39 -226 109 -531 171 -849 171 -153 0 -155 3 -71 91 31 32 53 59 49 59
-5 0 -33 -7 -64 -16 -109 -32 -188 -82 -215 -136 -16 -31 -17 -21 -17 220 l0
252 880 0 c520 0 880 4 880 9 0 5 -363 9 -891 8 l-891 -2 2 -270 c0 -149 -2
-273 -5 -276 -3 -4 -37 9 -75 28 -38 18 -93 42 -122 52 l-53 18 -3 227 -2 226
-1138 0 -1137 -1 -47 53 c-26 29 -48 56 -48 59 0 3 21 12 47 20 52 15 93 62
93 105 l0 24 1115 0 1115 0 0 978 c0 537 0 1045 0 1128 l0 152 125 0 125 -1 1
-1056z m2531 -1027 c45 -13 73 -29 105 -59 52 -51 56 -82 14 -118 -51 -42
-116 -52 -346 -51 -182 0 -220 3 -288 22 -128 35 -172 83 -130 140 26 35 67
45 358 86 59 8 227 -4 287 -20z m-5374 -84 c53 -6 133 -18 177 -27 44 -8 92
-18 106 -20 34 -6 75 -74 60 -101 -15 -28 -99 -69 -166 -81 -123 -22 -204 -27
-345 -20 -159 7 -238 26 -276 64 -30 30 -30 43 -1 86 59 88 217 123 445 99z
m2570 -587 l2 -213 -69 0 c-38 0 -82 -5 -98 -11 -27 -10 -26 -11 47 -38 124
-46 120 -42 120 -116 l0 -64 -89 -60 c-48 -33 -110 -80 -137 -105 -27 -25 -52
-46 -56 -46 -14 0 -76 98 -92 147 -45 138 -151 202 -272 163 -77 -25 -179 -86
-234 -140 -136 -133 -161 -319 -85 -620 48 -191 70 -424 49 -529 l-6 -31 -189
0 -188 0 -6 48 c-31 256 -114 510 -266 814 -71 142 -93 181 -198 353 -140 229
-368 543 -445 614 -58 54 -114 51 1092 49 l1117 -3 3 -212z m1925 -132 c98
-29 167 -64 226 -117 130 -117 164 -278 125 -597 -36 -291 9 -557 111 -645 18
-17 32 -32 29 -35 -2 -2 -28 0 -56 4 -158 25 -301 161 -381 361 -60 151 -98
367 -100 576 -2 104 -4 123 -18 127 -10 3 -21 4 -25 3 -5 -2 -48 22 -96 52
-88 55 -88 55 -82 90 20 112 96 199 174 200 14 0 55 -9 93 -19z m-1419 -44
c-28 -30 -44 -71 -34 -86 5 -9 56 -14 181 -16 336 -7 594 -61 811 -170 119
-61 165 -94 263 -190 106 -105 137 -162 165 -300 12 -60 34 -141 48 -180 31
-87 38 -178 22 -315 -17 -153 -79 -410 -80 -335 0 16 -11 24 -46 33 -122 33
-484 211 -833 411 -184 105 -211 118 -211 106 0 -51 158 -187 393 -339 48 -31
87 -58 87 -59 0 -5 -46 1 -165 19 -269 42 -526 172 -712 361 l-92 93 -11 -58
c-40 -191 -131 -383 -230 -483 -52 -53 -116 -99 -137 -99 -12 0 3 28 36 68 42
50 95 148 107 197 l7 30 -24 -30 c-13 -16 -28 -35 -34 -42 -5 -6 -48 -56 -95
-110 -82 -96 -115 -124 -210 -187 -61 -40 -90 -67 -90 -83 0 -7 20 -56 44
-108 32 -68 41 -95 30 -95 -8 0 -14 4 -14 10 0 5 -15 33 -33 62 -71 111 -171
349 -198 467 -23 103 -27 178 -13 243 7 34 17 113 20 173 6 94 12 120 39 181
50 110 101 183 176 252 38 35 67 67 64 71 -16 27 244 212 383 272 17 8 32 17
32 21 0 15 -86 72 -172 114 l-93 45 70 -5 c105 -6 226 -52 346 -132 37 -24 70
-44 74 -44 4 0 -5 14 -19 31 -33 38 -35 98 -6 139 20 28 158 106 168 95 3 -3
-3 -15 -14 -28z m-998 -199 c38 -30 50 -44 78 -98 44 -84 45 -80 -45 -154 -44
-36 -90 -66 -101 -66 -20 0 -21 -4 -14 -67 25 -254 16 -498 -23 -648 -56 -216
-205 -386 -359 -411 l-42 -7 34 37 c58 61 71 116 71 311 0 173 -5 208 -56 423
-70 295 -28 480 136 597 140 100 259 131 321 83z m2222 -48 c39 -25 72 -48 72
-52 0 -17 -53 -118 -63 -118 -11 0 -157 102 -157 110 0 13 62 111 68 108 4 -2
40 -23 80 -48z m126 -194 c2 -75 2 -136 1 -136 -5 0 -95 121 -95 129 0 10 58
120 73 139 5 7 12 11 14 8 2 -2 6 -65 7 -140z m-2181 -16 l37 -49 -67 -65
c-38 -36 -72 -66 -78 -66 -5 0 -27 24 -47 54 l-37 53 72 62 c40 33 74 61 77
60 3 0 22 -22 43 -49z m-168 -147 l47 -67 -37 -70 c-21 -39 -41 -75 -45 -79
-4 -4 -10 44 -14 109 -4 64 -10 129 -13 145 -9 47 12 34 62 -38z m990 -579
c188 -149 456 -252 726 -279 l67 -7 -23 -35 c-49 -71 -53 -199 -10 -282 46
-90 130 -54 155 65 18 87 -1 183 -48 237 -8 9 -11 17 -7 17 5 0 -31 25 -81 56
-219 137 -424 289 -424 316 0 7 4 7 13 0 12 -10 63 -39 327 -184 272 -150 554
-284 638 -303 l32 -7 0 -96 c0 -116 -25 -196 -87 -288 -123 -181 -412 -335
-733 -390 -127 -21 -505 -31 -608 -14 -265 41 -449 128 -601 283 -79 81 -125
144 -142 197 -7 19 -23 57 -36 83 -29 58 -26 64 58 108 35 19 98 71 159 130
55 55 103 99 106 99 9 0 -66 -102 -93 -127 l-24 -23 27 0 c44 0 147 55 195
103 81 83 170 262 212 424 l21 83 66 -63 c36 -35 88 -81 115 -103z m1004
-1108 c140 -47 211 -126 211 -233 0 -30 -6 -66 -14 -82 -31 -60 -137 -131
-238 -161 -24 -7 -27 -5 -32 23 -3 18 -10 91 -16 162 -17 218 -27 282 -42 267
-6 -6 -5 -40 2 -93 6 -46 14 -138 19 -204 8 -116 11 -126 76 -288 37 -93 65
-170 63 -173 -2 -2 -42 4 -89 12 -95 18 -222 15 -256 -6 -46 -29 -60 -226 -22
-310 44 -98 134 -161 253 -176 16 -2 31 -6 33 -8 6 -5 -86 -63 -130 -81 -21
-8 -77 -25 -125 -37 -76 -20 -114 -22 -302 -23 -169 0 -234 4 -305 18 -87 18
-275 75 -285 86 -3 4 -21 15 -40 25 -127 68 -143 230 -46 489 38 99 123 264
161 309 45 53 61 154 45 284 -6 48 -10 88 -8 89 5 5 166 -10 172 -15 2 -3 15
-57 28 -120 l23 -115 229 0 229 0 18 55 c10 30 30 96 45 146 l26 92 122 45
c66 24 122 45 123 46 0 0 33 -10 72 -23z m-1212 -77 l92 -24 11 -48 c14 -65
12 -224 -3 -267 -7 -19 -30 -57 -50 -83 -20 -27 -37 -55 -37 -63 0 -19 -125
-19 -195 0 -153 41 -273 164 -300 308 -6 31 -2 38 36 75 79 77 220 136 309
129 25 -2 86 -14 137 -27z m846 -81 c-14 -46 -31 -103 -38 -128 l-11 -45 -217
-3 c-119 -1 -217 -1 -217 2 0 4 -26 137 -35 182 -4 20 0 21 133 28 75 4 189
16 252 25 63 10 125 19 137 20 l21 1 -25 -82z m-1332 -158 c21 -60 81 -153
112 -175 24 -17 28 -13 -53 -55 -130 -66 -256 -139 -302 -175 -30 -25 -44 -65
-59 -170 -12 -93 -47 -176 -82 -200 -32 -21 -95 -22 -133 -2 -33 17 -134 120
-153 156 -34 63 -3 131 71 153 40 12 35 28 -9 28 -34 0 -90 30 -101 54 -12 27
1 61 28 76 12 6 75 16 140 22 113 11 122 14 153 42 44 42 186 168 217 194 14
11 50 41 80 66 30 25 59 44 63 43 5 -1 17 -27 28 -57z m2035 -8 c160 -96 242
-173 281 -262 24 -55 51 -161 67 -257 8 -48 22 -108 31 -133 25 -71 31 -170
11 -208 -9 -17 -25 -36 -35 -42 -29 -15 -130 -12 -188 5 -98 29 -125 83 -83
165 30 59 26 96 -15 137 -20 20 -33 38 -31 41 12 12 97 14 111 2 13 -10 15 -9
15 8 0 48 -31 174 -53 219 -28 54 -30 55 -172 112 -55 21 -122 49 -150 61 -48
21 -49 22 -27 34 41 22 111 97 124 132 6 19 17 34 23 34 7 0 48 -21 91 -48z
m-71 -234 c116 -48 133 -58 156 -93 25 -39 49 -122 49 -171 0 -22 -4 -24 -43
-24 -23 0 -52 -6 -63 -14 -13 -10 -25 -11 -35 -5 -23 15 -55 10 -74 -11 -24
-26 -37 -25 -65 5 -12 13 -47 34 -76 46 -49 21 -54 26 -69 73 -9 28 -34 93
-56 144 -21 51 -39 96 -39 100 0 4 21 14 48 23 53 18 30 24 267 -73z m-318
-237 c105 -22 213 -70 243 -109 l21 -27 -21 -17 c-68 -55 -377 2 -480 88 -39
33 -38 51 3 69 44 20 125 18 234 -4z m-167 -132 c111 -51 311 -79 393 -56 26
7 27 6 21 -20 -4 -16 -17 -50 -29 -78 -60 -138 -169 -189 -306 -145 -134 43
-199 135 -199 279 0 37 3 71 7 74 3 4 20 -2 37 -14 17 -11 51 -29 76 -40z
m555 25 c54 -58 21 -200 -55 -239 -39 -20 -53 -19 -78 8 l-22 23 20 57 c11 31
20 68 20 83 0 27 57 94 79 94 7 0 23 -12 36 -26z m1256 -122 c136 -32 199 -64
199 -102 0 -45 -197 -90 -390 -90 -247 0 -520 69 -520 130 0 27 62 57 157 75
115 21 438 14 554 -13z m362 -144 c92 -100 83 -264 -21 -371 -44 -46 -90 -67
-146 -67 -81 0 -86 5 -86 76 0 35 4 64 9 64 5 0 22 -7 37 -15 37 -19 50 -19
101 5 107 48 113 194 10 241 -23 10 -50 19 -59 19 -27 0 -21 32 12 69 28 30
35 32 68 27 26 -5 48 -19 75 -48z m-863 -40 c142 -29 476 -32 584 -5 38 10 71
16 73 14 2 -2 -4 -24 -13 -48 -34 -96 -56 -215 -56 -304 0 -102 21 -179 73
-267 115 -193 133 -312 78 -533 -73 -296 -207 -451 -400 -463 -309 -18 -528
226 -522 583 2 112 28 201 84 284 62 92 80 150 86 271 8 155 -17 289 -81 433
-14 31 -22 57 -18 57 4 0 54 -10 112 -22z m-3222 -56 c19 -8 46 -34 60 -56 14
-23 27 -43 29 -45 2 -2 30 4 62 14 47 14 81 17 160 13 91 -4 107 -8 183 -45
46 -22 101 -55 124 -74 l41 -35 -16 -49 c-9 -28 -24 -64 -33 -82 -10 -17 -27
-66 -39 -109 -24 -90 -23 -168 5 -227 10 -21 17 -39 15 -42 -8 -7 -105 40
-169 82 -98 65 -116 80 -225 185 l-100 97 -52 -54 c-91 -96 -263 -195 -340
-195 -32 0 -46 5 -57 22 -23 33 -20 53 19 111 46 67 88 178 120 311 26 113 42
151 71 177 35 31 77 31 142 1z m3959 17 c97 -36 111 -131 28 -201 -27 -24 -94
-23 -123 2 -25 21 -25 24 10 143 21 72 29 77 85 56z m-3092 -40 c22 -15 66
-39 98 -54 64 -31 64 -31 -2 -92 -47 -43 -102 -56 -169 -39 -28 8 -59 22 -68
31 -16 16 -16 21 16 79 45 83 71 120 79 109 3 -4 24 -20 46 -34z m1245 -189
c0 -18 -61 -55 -108 -65 -59 -12 -108 3 -157 51 -25 24 -45 50 -45 57 0 9 23
21 58 31 31 9 86 29 122 45 l65 28 32 -66 c18 -36 32 -73 33 -81z m-995 79
c16 -15 -33 -95 -87 -144 -82 -73 -187 -93 -310 -59 -43 12 -58 21 -58 34 0
19 36 110 43 110 3 0 30 -12 62 -26 90 -41 174 -20 243 63 33 39 40 43 67 37
16 -3 34 -10 40 -15z m1510 -33 c43 -20 84 -36 91 -36 8 0 26 11 40 25 37 37
78 55 124 55 96 0 120 -52 120 -255 0 -143 12 -234 44 -322 13 -36 13 -49 2
-80 -11 -32 -18 -39 -44 -41 -44 -4 -87 19 -166 90 -74 66 -136 145 -159 200
-19 46 -30 52 -52 28 -10 -11 -23 -20 -28 -20 -6 0 -24 -11 -41 -23 -77 -59
-368 -189 -384 -172 -3 2 4 17 14 32 12 19 19 53 22 111 5 91 -6 161 -44 283
-14 44 -24 82 -22 84 1 1 27 15 56 29 82 41 155 56 259 52 81 -3 101 -7 168
-40z m-1330 3 c39 -5 136 -11 218 -11 116 -1 147 -5 147 -15 0 -54 116 -191
189 -224 84 -38 149 -36 297 7 27 7 33 -8 41 -108 9 -124 -24 -201 -99 -232
-18 -8 -73 -17 -123 -21 -49 -3 -133 -18 -185 -32 -158 -42 -223 -34 -267 34
-22 33 -21 146 1 218 18 58 20 75 7 75 -5 0 -17 -26 -26 -57 -37 -128 -115
-245 -184 -276 -65 -29 -393 -37 -502 -13 -183 41 -256 134 -230 289 9 55 52
180 67 196 2 2 27 -6 55 -19 73 -31 185 -31 256 -1 59 26 139 105 173 170 21
42 23 43 58 37 20 -3 69 -11 107 -17z m475 -7 c0 -18 74 -94 111 -112 55 -28
123 -26 188 6 28 15 53 25 55 23 9 -12 36 -92 36 -108 0 -25 -106 -56 -190
-55 -80 1 -147 32 -207 97 -46 50 -87 122 -80 141 5 14 87 21 87 8z m901 -389
c12 -27 35 -61 50 -78 15 -16 46 -51 69 -78 60 -67 129 -115 187 -129 46 -12
50 -15 42 -36 -6 -16 -15 -22 -26 -18 -141 40 -679 86 -1012 86 -85 0 -152 2
-149 5 3 3 53 10 112 15 101 9 141 18 306 72 76 25 211 90 256 124 17 13 35
24 41 24 6 0 27 14 48 30 21 17 41 30 45 30 5 0 18 -21 31 -47z m-181 -303
c139 -11 498 -58 511 -66 5 -3 9 -27 9 -55 0 -57 4 -57 -112 -29 -116 27 -335
57 -518 71 -223 17 -700 6 -895 -20 -388 -52 -662 -132 -833 -244 -121 -80
-168 -152 -159 -243 24 -232 521 -424 1232 -474 255 -18 675 -6 895 25 388 56
720 164 856 278 30 26 55 36 111 46 124 22 224 96 294 217 17 30 34 54 37 54
10 0 49 -60 61 -93 80 -211 -229 -436 -779 -566 -198 -47 -359 -73 -670 -106
-250 -28 -835 -22 -1140 10 -518 55 -950 176 -1172 327 -297 201 -244 427 144
608 326 152 743 234 1393 274 102 6 603 -3 735 -14z m-77 -105 c249 -22 538
-69 588 -96 10 -5 19 -28 23 -58 8 -61 54 -178 93 -234 70 -104 188 -185 304
-209 32 -7 59 -15 59 -19 0 -13 -110 -80 -193 -118 -414 -191 -1217 -261
-1877 -165 -515 75 -870 237 -896 409 -15 106 60 194 244 284 228 113 563 184
1012 214 136 10 495 5 643 -8z"/>
<path d="M3827 4210 c-56 -44 -74 -208 -33 -288 25 -49 62 -72 94 -61 43 15
65 62 70 149 5 92 -10 154 -48 192 -34 33 -49 35 -83 8z m65 -87 c24 -29 29
-54 17 -90 -25 -77 -119 -44 -119 42 0 53 70 85 102 48z"/>
<path d="M4540 2898 c-91 -35 -285 -52 -401 -35 l-56 9 -20 -49 c-36 -86 -45
-124 -46 -197 0 -124 52 -191 174 -222 182 -47 359 32 400 179 22 79 13 275
-14 310 -9 12 -18 13 -37 5z m30 -58 c16 -58 13 -196 -4 -253 -8 -26 -26 -63
-40 -82 -56 -73 -212 -112 -330 -80 -76 20 -109 45 -136 101 -29 60 -25 171
11 259 l24 60 40 -5 c89 -11 270 -2 340 18 39 11 73 20 77 21 4 0 12 -17 18
-39z"/>
<path d="M3960 1062 c-25 -4 -61 -16 -80 -28 -42 -24 -53 -61 -44 -162 15
-180 134 -292 313 -292 93 0 161 35 210 107 32 49 36 51 55 37 11 -8 35 -14
52 -14 59 0 124 98 124 185 0 35 -30 104 -53 123 -28 24 -73 18 -100 -13 l-24
-29 -28 22 c-65 52 -289 85 -425 64z m217 -22 c131 -18 223 -58 223 -96 0 -21
-74 -51 -146 -58 -126 -14 -327 27 -375 75 -26 26 -24 36 11 54 66 34 156 42
287 25z m363 -66 c18 -28 24 -49 24 -88 -2 -111 -94 -196 -148 -137 -15 16
-16 25 -7 58 6 21 11 57 11 81 0 44 11 73 38 105 24 28 54 21 82 -19z m-545
-88 c132 -33 300 -29 388 9 17 7 18 4 12 -41 -13 -85 -42 -149 -89 -192 -69
-64 -169 -80 -265 -43 -112 42 -170 124 -179 253 l-5 71 39 -21 c21 -12 66
-28 99 -36z"/>
<path d="M4953 1014 c-130 -28 -147 -47 -141 -157 7 -138 63 -233 166 -284 49
-24 69 -28 142 -28 67 1 94 5 126 22 47 25 101 82 120 130 l14 33 34 -17 c32
-15 36 -15 68 3 93 54 105 236 19 301 -29 22 -71 15 -98 -15 l-25 -29 -37 19
c-78 38 -266 49 -388 22z m346 -31 c69 -23 85 -47 52 -74 -46 -38 -127 -54
-266 -54 -136 0 -196 11 -237 45 -19 15 -21 22 -12 37 13 21 89 52 159 64 79
13 243 3 304 -18z m206 -3 c41 -42 46 -126 13 -190 -29 -57 -61 -74 -99 -55
l-27 15 3 97 c2 54 4 101 4 104 2 17 45 59 60 59 9 0 30 -13 46 -30z m-150
-246 c-22 -76 -83 -137 -160 -159 -47 -14 -67 -15 -122 -5 -37 6 -79 18 -94
25 -72 38 -132 134 -145 235 l-7 52 29 -15 c92 -47 338 -50 449 -6 l60 24 3
-48 c2 -26 -4 -73 -13 -103z"/>
<path d="M5026 7885 c222 -352 539 -716 812 -933 56 -45 112 -87 125 -93 31
-16 15 -1 -78 72 -228 180 -534 518 -786 870 -123 172 -143 194 -73 84z"/>
<path d="M1816 7822 c-144 -400 -353 -761 -576 -997 -51 -54 -69 -77 -45 -58
93 72 258 271 348 420 66 108 166 314 216 443 56 144 105 290 99 295 -2 2 -21
-44 -42 -103z"/>
<path d="M6577 5625 c-25 -549 -62 -984 -102 -1205 -26 -141 -28 -155 -23
-150 13 12 58 249 77 400 38 309 64 750 59 985 l-3 150 -8 -180z"/>
<path d="M961 5789 c-1 -3 42 -109 95 -235 151 -359 281 -684 350 -874 35 -96
63 -169 64 -162 0 20 -96 309 -151 452 -110 288 -354 846 -358 819z"/>
<path d="M1730 3564 c-64 -22 -148 -111 -185 -197 -16 -37 -34 -66 -40 -63 -6
2 -49 12 -96 21 -114 23 -322 16 -428 -14 -96 -28 -226 -91 -301 -147 l-60
-44 -35 39 c-19 21 -62 53 -96 71 -109 58 -228 51 -310 -17 -61 -52 -95 -162
-86 -278 24 -277 204 -436 422 -370 27 8 50 13 52 11 1 -1 -2 -18 -8 -37 -19
-62 -14 -173 11 -223 25 -52 80 -110 122 -127 39 -16 35 -29 -16 -62 -67 -42
-189 -175 -222 -243 -72 -147 -26 -302 109 -370 27 -14 73 -28 102 -31 l53 -6
-2 -111 c-1 -104 1 -114 26 -160 15 -26 32 -65 38 -86 14 -53 44 -86 103 -118
49 -26 59 -27 187 -27 102 1 149 5 195 19 163 51 275 139 275 217 0 24 -46
109 -59 109 -9 0 -51 73 -51 89 0 6 13 11 28 11 26 0 91 17 133 34 15 6 16 -3
11 -87 l-5 -93 32 -37 c47 -53 112 -72 241 -71 124 1 228 26 332 81 118 62
147 118 144 283 -3 119 -19 181 -68 252 -10 14 -18 29 -18 33 0 4 16 25 35 47
71 83 84 211 32 301 -58 98 -203 189 -357 224 l-78 17 29 51 c38 68 48 149 24
212 -17 47 -80 145 -97 151 -11 5 -10 22 2 22 29 0 128 47 162 78 63 57 90
121 96 227 5 109 -13 191 -63 281 -76 135 -184 183 -315 138z m151 -14 c121
-34 223 -241 205 -420 -18 -169 -114 -258 -293 -268 -86 -5 -116 -22 -39 -22
40 0 48 -4 86 -47 123 -140 126 -277 9 -394 -109 -109 -307 -198 -548 -246
-121 -24 -372 -24 -460 1 -186 51 -271 139 -271 280 0 69 24 154 49 173 30 22
2 26 -41 5 -122 -57 -220 -55 -311 8 -104 72 -172 260 -148 411 15 92 47 148
106 184 42 26 58 30 119 30 88 0 142 -25 221 -100 54 -52 55 -53 77 -36 146
113 284 174 452 201 90 15 260 8 351 -15 33 -8 65 -15 72 -15 7 0 28 35 48 78
72 156 189 227 316 192z m145 -1204 c108 -36 173 -74 231 -131 29 -30 53 -58
53 -63 0 -5 -40 -11 -88 -14 -105 -5 -169 -32 -216 -91 -28 -35 -31 -47 -35
-123 -1 -46 -5 -84 -8 -84 -2 0 -22 15 -45 32 -46 38 -94 101 -133 176 -15 28
-31 52 -36 52 -14 0 -12 -6 24 -78 39 -80 129 -176 208 -220 68 -39 148 -43
216 -12 l42 19 40 -80 c37 -73 61 -162 48 -175 -3 -4 -18 6 -34 20 -36 34
-101 64 -180 83 -77 19 -162 8 -248 -31 -53 -24 -177 -135 -220 -196 -17 -25
-17 -24 -11 45 3 39 6 84 6 101 0 56 109 162 218 214 38 18 56 40 33 40 -18 0
-135 -71 -182 -111 -67 -56 -93 -102 -99 -174 l-5 -60 -65 -22 c-96 -34 -119
-29 -152 32 -47 88 -84 113 -228 150 -65 17 -153 20 -130 5 8 -5 32 -10 53
-10 50 0 172 -37 217 -65 19 -12 40 -33 47 -46 46 -96 71 -160 60 -156 -6 3
-46 20 -87 39 -69 30 -84 32 -180 33 -96 0 -110 -2 -165 -29 -68 -33 -162
-122 -192 -181 l-20 -39 -14 40 c-15 44 -18 137 -6 205 7 39 12 47 40 57 18 7
41 20 52 30 38 34 113 157 128 212 21 74 31 200 18 200 -6 0 -11 -20 -11 -45
0 -25 -7 -74 -16 -108 -17 -69 -73 -190 -90 -194 -5 -2 -16 19 -23 46 -15 59
-60 125 -98 145 -65 33 -164 27 -267 -18 l-38 -17 6 38 c19 103 114 228 243
320 l63 45 105 -21 c309 -62 742 32 960 209 46 37 54 40 96 35 26 -3 77 -16
115 -29z m301 -239 c3 -3 8 -26 10 -50 18 -159 -159 -307 -304 -256 -25 8 -32
17 -37 47 -11 69 -6 117 17 162 27 54 60 79 129 96 50 13 172 13 185 1z
m-1604 -343 c49 -25 75 -61 97 -132 22 -71 19 -82 -29 -106 -103 -53 -269 1
-320 103 -32 64 -34 89 -9 103 86 48 200 62 261 32z m1483 -162 c70 -36 99
-67 115 -125 23 -85 -42 -171 -175 -232 -94 -43 -188 -59 -319 -53 -94 4 -111
8 -147 32 -54 36 -67 64 -51 116 27 92 172 239 276 280 41 17 68 20 145 17 82
-3 103 -8 156 -35z m-968 -186 c82 -22 176 -70 226 -116 40 -37 46 -48 46 -84
0 -108 -186 -210 -405 -223 -105 -6 -188 9 -241 44 -40 26 -66 79 -66 134 0
42 6 57 41 104 95 126 249 180 399 141z"/>
<path d="M1764 3426 c-66 -29 -170 -188 -147 -225 42 -67 65 -125 65 -165 1
-52 5 -55 94 -63 104 -10 176 28 215 112 52 112 -8 288 -115 339 -41 19 -71
20 -112 2z m123 -36 c88 -53 129 -205 81 -300 -39 -76 -127 -114 -214 -93 -35
8 -38 12 -49 58 -6 28 -24 73 -38 102 -15 29 -27 59 -27 68 0 29 41 96 85 141
39 38 50 44 87 44 25 0 56 -8 75 -20z"/>
<path d="M299 3114 c-40 -25 -69 -76 -81 -142 -10 -53 -9 -70 7 -122 21 -69
73 -136 122 -156 52 -22 123 -18 179 12 65 34 86 54 78 73 -18 45 -23 95 -15
153 l10 63 -49 46 c-85 81 -189 111 -251 73z m146 -28 c28 -13 66 -37 85 -54
l35 -30 1 -103 c1 -57 3 -113 5 -123 5 -26 -88 -76 -142 -76 -81 0 -153 57
-178 139 -16 55 -14 147 5 184 45 90 97 107 189 63z"/>
<path d="M1539 2938 c-25 -31 -26 -31 -49 -15 -31 21 -64 22 -81 1 -16 -20
-16 -109 1 -129 29 -35 110 -7 110 38 0 11 8 17 23 17 26 0 57 28 57 50 0 9
-8 6 -23 -8 -26 -25 -67 -29 -67 -8 0 8 11 17 24 20 15 4 28 17 34 36 14 39 4
38 -29 -2z"/>
<path d="M988 2828 l-30 -32 -39 22 c-21 12 -39 18 -39 13 0 -17 54 -52 72
-48 13 4 18 -1 18 -15 0 -19 -4 -20 -46 -14 -37 5 -43 3 -32 -7 19 -19 41 -25
63 -17 14 5 25 0 38 -17 33 -41 107 -18 107 33 0 52 -41 114 -75 114 -4 0 -20
-14 -37 -32z"/>
<path d="M1673 2753 c-38 -19 -57 -56 -43 -83 33 -61 159 -50 189 17 30 65
-64 107 -146 66z"/>
<path d="M815 2585 c-58 -30 -70 -70 -33 -105 30 -28 95 -27 139 3 28 18 34
29 34 57 0 27 -6 37 -25 47 -34 17 -79 16 -115 -2z"/>
</g>
</svg>
