<?xml version="1.0" standalone="no"?>
<!DOCTYPE svg PUBLIC "-//W3C//DTD SVG 20010904//EN"
 "http://www.w3.org/TR/2001/REC-SVG-20010904/DTD/svg10.dtd">
<svg version="1.0" xmlns="http://www.w3.org/2000/svg"
 width="746.000000pt" height="1022.000000pt" viewBox="0 0 746.000000 1022.000000"
 preserveAspectRatio="xMidYMid meet">
<metadata>
Created by potrace 1.16, written by Peter Selinger 2001-2019
</metadata>
<g transform="translate(0.000000,1022.000000) scale(0.100000,-0.100000)"
fill="#000000" stroke="none">
<path d="M3312 9847 c-33 -35 -29 -81 8 -107 33 -24 37 -48 19 -115 -27 -95
-118 -174 -223 -194 -66 -12 -96 -4 -96 26 0 49 -76 92 -116 65 -19 -13 -34
-50 -27 -69 11 -33 46 -63 73 -63 53 0 59 -95 10 -190 -35 -68 -160 -160 -218
-160 -16 0 -21 7 -24 32 -2 24 -11 37 -36 51 -33 20 -34 20 -60 0 -34 -25 -40
-71 -14 -101 11 -12 27 -22 36 -22 21 0 42 -52 56 -142 10 -65 9 -84 -11 -178
-13 -58 -22 -120 -22 -138 1 -26 -15 -55 -81 -146 -146 -200 -196 -333 -196
-522 0 -91 -6 -99 -46 -61 -16 15 -24 33 -24 57 0 72 22 206 40 241 17 32 18
40 6 85 -26 99 -164 471 -211 572 -14 29 -25 59 -25 66 0 9 20 19 53 25 31 7
58 20 68 33 18 23 39 17 39 -12 0 -32 15 -31 87 1 61 29 66 33 43 39 -14 4
-39 5 -57 2 -27 -4 -32 -1 -35 19 -3 21 -9 25 -60 29 -37 3 -67 13 -87 28 -26
19 -51 28 -51 20 -10 -140 -20 -176 -73 -278 -49 -92 -99 -209 -149 -345 l-14
-40 -55 3 c-54 3 -56 2 -88 -38 -25 -31 -31 -47 -27 -66 6 -22 3 -24 -28 -24
l-34 0 -7 59 -7 60 -85 -4 c-61 -2 -89 -8 -103 -20 -18 -16 -18 -13 -14 117 3
73 10 152 17 174 10 37 15 43 46 48 54 9 102 7 166 -6 l58 -11 -7 -123 c-3
-68 -9 -144 -12 -169 -4 -27 -3 -45 3 -45 13 0 21 56 29 211 l6 124 36 37 35
37 -37 118 c-107 331 -142 430 -173 478 -8 13 -9 25 -3 35 5 8 10 29 10 46 0
91 23 117 82 91 60 -27 66 -27 105 4 38 31 69 35 116 14 25 -10 22 17 -4 41
-16 15 -40 20 -104 22 -81 4 -82 4 -96 35 -17 39 -57 62 -91 54 -32 -8 -40
-27 -27 -69 6 -19 7 -76 4 -133 -7 -96 -9 -105 -67 -225 -33 -69 -75 -165 -95
-215 -19 -49 -46 -111 -59 -137 -13 -26 -24 -54 -24 -63 0 -11 -11 -15 -45
-15 -57 0 -144 -18 -173 -36 -27 -18 -28 -47 -3 -139 20 -73 35 -385 19 -385
-4 0 -8 9 -8 20 0 14 -7 20 -22 20 -12 0 -36 5 -54 12 -38 14 -56 51 -102 208
-17 58 -44 148 -60 200 -17 56 -31 128 -35 177 l-5 81 27 -8 c15 -4 42 -15 59
-24 32 -17 33 -17 63 14 45 44 63 52 85 36 16 -12 27 -9 86 21 38 19 66 39 63
43 -12 20 -92 32 -167 26 l-76 -6 -47 40 c-48 42 -66 47 -111 30 -26 -10 -27
-12 -20 -73 3 -34 11 -84 17 -112 10 -47 8 -58 -29 -165 -47 -134 -99 -275
-169 -450 -28 -69 -53 -133 -56 -142 -5 -13 -18 -18 -49 -20 -78 -3 -133 4
-148 18 -9 7 -25 11 -38 7 -31 -8 -28 -21 4 -15 18 3 30 0 35 -10 7 -12 27
-15 94 -13 93 2 97 -2 76 -58 -6 -14 -15 -62 -21 -106 -12 -91 -13 -89 59
-143 l36 -27 -3 -103 c-4 -157 -3 -154 -80 -189 -37 -16 -73 -37 -80 -46 -8
-11 -12 -57 -12 -139 l0 -122 36 -36 37 -37 -13 -143 c-12 -138 -13 -143 -34
-140 -13 3 -15 2 -6 -2 8 -4 18 -12 23 -18 5 -8 10 -7 16 3 6 9 15 11 27 6 31
-13 54 -12 65 1 8 10 16 11 31 3 11 -6 22 -9 24 -6 3 2 -9 10 -27 17 -25 11
-32 11 -39 1 -5 -9 -18 -11 -40 -6 -31 7 -32 8 -26 49 3 22 9 76 12 118 5 59
11 79 23 82 36 11 252 46 319 52 69 7 72 6 72 -15 0 -11 5 -21 10 -21 6 0 10
12 10 26 0 22 2 24 15 14 12 -10 15 -7 21 14 3 14 13 26 21 26 7 0 13 6 12 13
-3 28 2 37 22 37 11 0 17 4 14 10 -4 6 -16 8 -27 4 -17 -5 -20 -3 -14 12 4 9
11 99 17 198 5 100 13 205 18 234 l8 54 -48 38 c-27 21 -46 41 -41 44 28 17
134 52 237 78 98 25 147 32 265 35 172 6 277 -9 431 -62 56 -19 106 -32 111
-29 17 11 7 -11 -17 -36 l-26 -27 -87 24 c-113 31 -312 46 -487 38 -150 -7
-233 -22 -305 -54 -65 -28 -28 -25 65 6 75 25 93 27 300 31 218 4 304 -3 423
-33 29 -8 57 -17 62 -20 5 -3 7 -29 5 -58 -3 -43 -12 -170 -20 -312 -1 -21 -8
-31 -21 -33 -10 -2 -23 -8 -28 -13 -5 -4 -17 -4 -27 1 -20 11 -49 -11 -49 -36
0 -11 -4 -12 -19 -2 -12 7 -18 22 -17 42 1 33 -26 48 -48 26 -8 -9 -6 -11 12
-5 19 5 22 3 22 -19 0 -14 -5 -28 -10 -31 -18 -11 -10 -26 11 -20 15 5 22 2
25 -12 3 -12 16 -19 36 -20 36 -3 55 -17 61 -46 4 -19 4 -19 6 4 1 29 -15 49
-40 49 -21 0 -35 38 -20 53 8 8 16 8 29 1 17 -11 26 -9 72 18 35 19 42 20 60
3 10 -9 28 -15 42 -12 21 4 21 4 2 6 -12 0 -27 8 -34 16 -7 8 -23 15 -36 15
-27 0 -28 3 -14 31 6 10 19 19 29 19 10 0 33 16 52 35 26 28 39 34 58 30 21
-5 23 -4 12 9 -14 17 -38 11 -64 -16 -24 -24 -67 -52 -72 -46 -2 2 0 71 6 153
10 141 12 150 39 184 25 31 30 48 36 117 l7 82 72 9 c40 5 91 7 115 5 l42 -4
-7 -52 c-10 -75 -24 -218 -31 -324 -6 -75 -11 -95 -25 -102 -11 -7 -20 -7 -24
0 -9 14 -55 -10 -55 -29 1 -14 2 -14 13 1 14 18 79 18 85 -1 2 -6 14 -11 27
-11 12 0 28 -7 35 -15 7 -8 17 -15 22 -15 6 0 0 11 -13 25 -13 13 -32 25 -42
25 -17 0 -18 6 -13 48 3 26 11 91 17 145 8 64 15 97 23 94 6 -2 12 -14 14 -26
3 -18 9 -22 26 -19 21 4 24 -3 51 -111 63 -263 159 -405 333 -488 l72 -35 0
-44 c0 -61 -23 -110 -62 -134 -35 -22 -69 -20 -120 6 -47 24 -54 -27 -19 -142
34 -116 124 -186 216 -168 38 7 42 0 20 -29 -28 -38 -39 -115 -25 -188 13 -78
32 -105 98 -151 43 -30 53 -32 120 -31 68 1 72 0 52 -14 -31 -22 -87 -113
-115 -186 l-23 -62 -25 55 c-14 30 -50 109 -82 175 -31 66 -75 161 -97 210
-117 265 -203 442 -221 458 -21 18 -22 18 -42 -6 -42 -52 -55 -71 -55 -82 0
-6 -5 -16 -12 -23 -8 -8 -23 -2 -59 29 -46 38 -49 39 -91 30 -24 -6 -47 -17
-53 -27 -5 -9 -20 -28 -33 -42 -13 -14 -20 -33 -17 -42 3 -10 3 -24 -1 -33 -5
-14 -9 -15 -32 -3 -51 25 -91 28 -104 6 -7 -11 -18 -20 -24 -20 -18 0 -47 -38
-41 -53 3 -8 -1 -24 -9 -36 -9 -12 -13 -30 -9 -40 4 -14 0 -20 -19 -23 -13 -3
-31 -1 -40 4 -25 14 -97 -13 -110 -42 -6 -14 -17 -30 -25 -36 -8 -6 -12 -18
-8 -26 7 -18 -31 -58 -56 -58 -9 0 -23 -10 -31 -22 -23 -32 -22 -33 254 -362
111 -133 470 -570 538 -655 47 -59 52 -70 47 -101 -13 -82 -16 -170 -7 -234 9
-68 9 -69 -26 -120 -91 -133 -111 -166 -142 -231 -51 -112 -91 -215 -100 -263
-7 -42 4 -145 39 -347 6 -33 11 -61 11 -62 0 -2 -7 -3 -16 -3 -8 0 -20 -14
-26 -31 -9 -27 -14 -30 -37 -25 -91 22 -262 17 -295 -7 -14 -11 -14 -19 -1
-82 9 -38 19 -150 23 -248 8 -158 11 -180 28 -198 20 -20 20 -20 96 11 77 30
103 36 96 23 -2 -5 -20 -42 -40 -83 -20 -41 -40 -91 -43 -111 -6 -35 -5 -37
42 -64 26 -15 73 -45 103 -65 109 -73 169 -110 179 -110 5 0 15 16 22 35 10
25 19 35 35 35 12 0 36 3 53 6 30 6 31 5 31 -29 0 -19 -11 -102 -25 -184 -14
-81 -30 -198 -37 -260 -8 -76 -16 -113 -24 -113 -19 0 -260 -76 -354 -112
-176 -67 -436 -217 -633 -364 -125 -93 -245 -210 -330 -321 -27 -35 -52 -63
-56 -63 -5 0 -35 39 -67 86 -93 137 -173 187 -291 182 l-66 -3 -83 -155 c-85
-158 -154 -318 -154 -356 0 -11 9 -29 21 -40 12 -10 35 -36 51 -56 28 -35 28
-39 13 -54 -18 -18 -35 -57 -35 -79 0 -8 14 -30 31 -50 l31 -35 -26 -25 c-14
-13 -55 -44 -90 -70 -36 -25 -78 -61 -95 -81 l-31 -35 35 -69 c19 -38 35 -74
35 -80 0 -6 -17 -34 -39 -63 -56 -75 -84 -134 -72 -154 8 -14 12 -12 29 18 12
19 24 39 29 44 4 6 21 29 37 53 16 23 34 42 40 42 6 0 30 -35 54 -76 50 -87
110 -174 122 -174 4 0 60 59 125 131 64 71 119 128 121 126 5 -5 -35 -81 -76
-147 -52 -82 -81 -135 -66 -120 23 23 91 136 142 234 25 49 71 121 102 159 49
61 57 67 63 49 12 -31 46 -45 98 -40 l47 5 -22 -81 c-12 -45 -40 -144 -62
-221 -45 -157 -65 -254 -26 -130 59 191 78 256 101 350 18 68 35 111 54 135
15 19 36 53 46 75 17 39 17 39 21 12 8 -61 -40 -220 -151 -507 -59 -154 -62
-163 -34 -110 13 25 47 108 76 185 73 193 72 191 67 110 -5 -83 9 -214 29
-261 l14 -33 43 19 c42 18 226 60 267 60 19 0 21 -6 21 -69 0 -84 13 -124 38
-119 9 2 16 11 16 20 -1 9 -5 46 -8 82 l-7 65 78 -31 c125 -48 186 -66 347
-100 l151 -33 325 0 c366 1 444 10 760 88 125 30 358 120 498 191 30 15 56 25
59 23 2 -3 -23 -60 -57 -127 -34 -67 -59 -124 -56 -127 3 -3 36 57 73 133 42
84 80 145 96 158 15 11 28 18 31 15 2 -2 -8 -29 -23 -59 -41 -85 -51 -110 -46
-110 3 0 27 43 52 96 41 84 53 99 100 130 29 20 88 66 131 103 77 67 79 68 95
48 20 -25 50 -16 45 15 -2 17 -9 23 -26 22 l-22 -1 22 26 c13 14 36 39 51 56
15 16 44 54 65 83 20 30 38 49 40 43 2 -6 11 -2 20 9 12 14 21 17 32 11 12 -8
11 -13 -5 -32 -13 -14 -15 -20 -6 -17 8 2 19 11 25 20 14 23 -10 51 -37 42
-21 -7 -21 -6 -2 22 10 16 30 45 44 64 66 88 159 242 223 370 26 52 48 91 48
86 0 -15 -67 -247 -116 -401 -92 -287 -210 -823 -201 -911 3 -36 4 -36 6 11 3
87 110 576 167 768 4 12 12 16 21 13 21 -9 43 12 43 40 0 18 -6 24 -21 24 -13
0 -19 5 -17 13 17 43 61 192 93 307 21 74 40 137 42 140 3 3 3 -29 -1 -70 -23
-285 -26 -458 -12 -844 8 -219 18 -401 22 -405 4 -3 4 30 1 74 -4 44 -9 258
-13 475 -7 455 10 816 45 931 11 35 22 79 26 98 6 30 11 22 55 -105 62 -179
76 -214 127 -305 57 -104 149 -226 248 -328 l83 -86 22 -140 c41 -264 78 -435
127 -588 9 -26 18 -46 20 -43 3 3 -2 26 -11 53 -42 130 -109 456 -131 643 l-7
55 59 -58 59 -58 18 -137 c24 -192 53 -359 71 -412 17 -51 15 -38 -15 125 -24
132 -60 398 -54 404 2 2 34 -25 71 -61 73 -71 149 -134 234 -195 30 -21 59
-41 64 -46 30 -24 165 -108 270 -167 l119 -67 24 -78 c13 -42 25 -75 28 -72 3
3 -2 30 -11 62 -9 31 -14 59 -12 62 3 3 50 -19 104 -48 54 -30 108 -58 120
-62 23 -9 32 -27 13 -27 -5 0 -10 -10 -10 -22 0 -21 0 -21 15 -2 14 19 15 18
21 -4 5 -17 9 -20 15 -11 5 8 1 21 -9 33 -20 23 -27 25 123 -40 61 -26 132
-49 159 -52 57 -6 57 10 -2 28 -99 31 -460 206 -622 301 -144 84 -286 181
-389 263 -108 87 -355 309 -441 396 -178 180 -320 375 -405 555 -49 102 -125
311 -125 342 0 7 34 46 76 86 42 39 97 99 122 131 l46 59 14 -34 c57 -131 127
-262 164 -305 41 -48 97 -100 179 -167 48 -40 143 -87 176 -87 41 0 86 32 137
96 75 96 275 444 276 482 0 4 7 16 15 26 14 18 15 18 42 1 119 -78 370 -318
513 -490 50 -60 99 -119 108 -130 91 -109 248 -329 320 -450 23 -38 51 -81 61
-95 18 -23 20 -23 27 -7 4 12 -8 49 -36 105 -24 48 -46 89 -49 92 -3 3 -28 39
-55 80 -99 151 -291 390 -475 589 -113 123 -274 264 -363 317 -35 20 -64 38
-66 39 -3 2 25 73 38 97 26 46 91 278 105 373 l7 46 25 -16 c35 -23 54 -13
128 68 77 83 139 203 150 285 4 30 10 50 14 45 7 -8 46 -128 72 -223 18 -66
29 -72 97 -48 72 25 214 94 247 120 14 11 25 27 25 37 0 35 -90 234 -129 286
-23 30 -41 56 -41 58 0 2 25 9 55 16 62 14 161 81 184 124 25 46 -16 259 -70
371 l-24 48 -78 -5 c-57 -4 -77 -2 -73 6 2 7 22 50 43 97 l38 85 0 190 c0 208
-12 284 -66 424 -47 122 -96 187 -204 266 -83 61 -95 74 -95 100 0 36 -8 48
-37 64 -26 13 -30 31 -8 31 9 0 27 11 41 26 31 31 27 61 -17 116 -16 20 -29
38 -29 40 0 2 11 5 25 6 48 4 94 31 160 95 50 49 70 76 81 112 20 68 17 76 -8
25 -29 -58 -84 -88 -127 -70 -15 6 -38 29 -51 52 -29 52 -22 97 22 146 71 79
109 170 127 307 5 44 19 113 31 154 23 85 26 206 6 261 -12 34 -11 37 25 80
52 64 85 134 104 226 34 164 13 309 -68 469 -38 76 -44 158 -14 225 71 160 60
340 -28 469 -19 28 -35 55 -35 60 0 5 15 34 34 66 78 128 73 286 -13 471 -64
135 -128 217 -254 321 -15 13 -27 32 -27 42 0 11 -5 23 -10 26 -6 4 -8 21 -4
41 5 28 2 40 -17 60 -12 13 -30 24 -39 24 -10 0 -34 36 -68 103 -85 166 -247
363 -346 421 -55 32 -173 71 -276 92 -47 9 -95 23 -106 31 -14 8 -32 11 -48 7
-21 -5 -25 -3 -20 9 9 24 -31 57 -69 57 -24 0 -41 8 -62 30 -31 32 -60 38 -90
17 -15 -12 -23 -12 -47 1 -27 13 -32 13 -57 -6 -28 -20 -50 -22 -326 -25 -27
0 -84 7 -125 17 -102 24 -312 18 -419 -13 -75 -22 -183 -85 -233 -136 l-28
-27 -18 23 c-14 17 -18 33 -14 64 4 36 1 45 -23 63 -69 55 -128 -3 -91 -89 5
-12 -2 -21 -26 -33 -18 -10 -46 -25 -63 -34 -57 -30 -108 -33 -192 -11 -99 26
-138 45 -180 86 -24 25 -33 42 -33 68 0 24 -7 39 -26 54 -34 27 -55 26 -82 -2z
m1468 -45 c25 -10 24 -10 -10 -15 -19 -3 -69 -10 -110 -16 -77 -12 -142 -44
-190 -96 -31 -33 -16 -32 25 3 18 15 42 35 55 45 21 17 158 53 167 43 2 -2
-19 -12 -47 -21 -35 -12 -72 -36 -116 -77 -54 -51 -64 -66 -64 -94 0 -31 -3
-34 -42 -45 -69 -18 -183 -7 -255 25 -34 16 -71 38 -83 51 l-21 22 51 46 c61
55 130 89 247 122 79 22 102 25 228 21 77 -2 151 -9 165 -14z m479 -47 c102
-18 214 -78 272 -145 21 -25 48 -54 58 -65 13 -14 17 -29 14 -47 -4 -18 2 -33
18 -49 16 -16 22 -33 20 -55 -2 -30 14 -57 39 -66 8 -2 8 -11 1 -31 -8 -20 -8
-34 -1 -48 8 -15 6 -25 -11 -48 -17 -23 -20 -37 -15 -62 4 -23 1 -37 -10 -50
-9 -10 -17 -31 -18 -47 -1 -16 -9 -36 -19 -46 -9 -10 -17 -30 -17 -46 0 -18
-8 -33 -24 -44 -13 -8 -27 -29 -31 -46 -8 -37 -43 -93 -68 -109 -40 -26 -157
112 -157 184 0 24 5 35 15 35 19 0 35 31 35 69 0 65 -85 78 -116 19 -15 -29
-18 -30 -65 -25 -82 10 -175 70 -209 137 l-18 36 29 16 c65 38 39 120 -40 126
-37 3 -43 0 -59 -28 -16 -30 -19 -31 -66 -26 -84 9 -169 75 -216 166 l-20 39
25 25 c29 29 31 52 9 85 -21 29 -14 36 86 90 68 36 146 62 225 75 52 8 246 -3
334 -19z m-1700 -128 c47 -22 84 -31 137 -35 88 -6 140 11 198 63 42 38 65 46
44 16 -29 -41 -113 -100 -165 -116 -64 -20 -149 -16 -210 12 -21 9 -66 44 -99
76 l-62 59 1 -63 c2 -167 -122 -278 -301 -266 -51 3 -71 1 -68 -7 25 -60 29
-88 16 -144 -15 -72 -45 -122 -94 -161 -42 -34 -131 -70 -189 -78 -30 -5 -37
-9 -31 -22 26 -64 36 -132 30 -215 l-6 -89 38 43 c35 40 39 42 60 29 24 -15
29 -29 9 -29 -7 0 -48 -36 -92 -80 -44 -44 -83 -76 -87 -72 -4 4 2 39 13 77
31 111 34 197 10 289 -11 43 -19 82 -16 86 3 4 29 11 60 15 80 10 171 58 209
112 47 67 64 127 53 187 -15 81 -14 101 3 98 53 -12 126 -13 166 -2 54 15 143
92 168 145 18 37 24 115 12 151 -5 16 -1 23 15 30 19 9 29 4 68 -35 25 -24 75
-58 110 -74z m490 6 c95 -122 219 -175 352 -154 34 6 71 16 83 24 39 25 65 8
87 -58 13 -36 35 -75 57 -99 48 -50 144 -96 200 -96 51 0 102 -31 102 -61 0
-34 48 -117 82 -142 47 -34 63 -39 153 -46 64 -5 80 -9 83 -23 6 -32 -123 -51
-179 -25 -68 31 -133 113 -166 212 l-21 60 -76 6 c-117 10 -184 58 -250 183
-14 27 -26 55 -26 62 0 18 -24 18 -40 0 -6 -8 -37 -20 -67 -26 -66 -14 -148
-1 -229 36 -65 31 -231 183 -212 195 18 12 21 10 67 -48z m1659 21 c145 -42
330 -172 441 -311 69 -87 153 -246 177 -338 9 -33 18 -101 21 -151 5 -77 2
-104 -16 -164 -12 -40 -24 -70 -26 -68 -3 2 0 32 5 66 7 42 7 76 0 109 -22 98
-99 263 -137 294 -20 17 -16 8 27 -56 111 -164 132 -415 40 -483 -17 -13 -30
-32 -30 -43 0 -17 -5 -20 -21 -16 -14 4 -29 -2 -45 -18 -13 -13 -31 -22 -38
-19 -21 8 -56 -14 -67 -43 -8 -21 -12 -23 -24 -13 -22 18 -63 -2 -71 -34 -5
-21 -9 -24 -24 -16 -13 7 -28 6 -47 -1 -49 -20 -71 -17 -78 9 -5 21 -10 24
-40 19 -19 -3 -37 -1 -40 4 -10 15 -53 10 -63 -7 -5 -8 -19 -21 -33 -28 -14
-7 -26 -23 -29 -40 -5 -28 -5 -27 -28 19 -26 55 -47 196 -39 266 4 31 14 55
30 71 16 17 26 40 30 77 5 38 13 60 32 79 19 19 25 32 20 49 -3 13 -1 23 5 23
23 0 50 41 50 75 0 19 4 35 10 35 5 0 17 12 27 26 14 21 14 29 4 46 -10 17 -9
23 13 43 29 27 30 32 16 71 -9 22 -7 30 10 46 27 25 25 64 -4 91 -18 17 -22
27 -15 38 16 25 10 57 -15 76 -18 14 -23 26 -19 45 6 30 -12 68 -32 68 -9 0
-15 13 -17 38 -2 27 -9 40 -25 47 -26 11 -33 51 -8 41 9 -3 41 -13 73 -22z
m-2178 -86 c31 -13 40 -28 17 -28 -7 0 -18 -9 -25 -20 -7 -11 -19 -20 -26 -20
-25 0 -78 -53 -97 -95 -9 -22 -20 -61 -24 -87 -8 -55 -25 -61 -62 -26 -18 17
-26 19 -35 10 -9 -9 -7 -18 9 -39 15 -22 31 -29 69 -34 27 -3 43 -7 36 -7 -14
-2 -52 -60 -52 -79 0 -19 25 -16 44 6 10 11 32 23 48 26 36 8 56 -6 33 -25 -8
-7 -15 -19 -15 -26 0 -21 34 -17 55 6 10 11 13 20 7 20 -6 0 -14 -4 -17 -10
-3 -5 -11 -10 -18 -10 -19 0 17 30 43 35 29 6 50 -11 49 -39 0 -21 0 -21 -11
2 -6 12 -15 22 -19 22 -18 0 10 -45 30 -48 24 -4 28 16 10 50 -6 11 -7 19 -2
16 4 -2 20 -10 36 -18 22 -11 30 -11 40 -1 9 10 6 17 -15 34 -26 22 -27 22 -9
46 16 21 21 22 42 11 13 -7 27 -17 30 -23 11 -16 29 2 29 28 0 13 -10 31 -22
39 l-21 15 32 30 c27 25 32 36 29 67 -3 43 -23 56 -34 22 -7 -23 -40 -58 -55
-58 -5 0 -13 17 -19 39 -12 44 -51 91 -76 91 -14 0 -13 4 7 23 21 20 30 22 69
15 90 -16 194 20 282 100 l39 35 63 -63 c73 -73 161 -135 214 -150 20 -6 71
-14 112 -17 64 -5 82 -2 120 16 24 11 44 20 44 18 1 -1 15 -28 31 -61 64 -125
142 -181 270 -193 53 -5 65 -9 65 -23 0 -26 39 -109 73 -158 17 -23 53 -57 81
-74 42 -28 59 -32 105 -31 31 1 68 6 83 12 l26 10 -5 -53 c-4 -40 -1 -64 15
-98 26 -60 83 -122 136 -148 38 -18 43 -24 38 -48 -3 -15 -11 -31 -18 -35 -19
-11 -18 -27 1 -27 8 0 15 -1 15 -2 10 -64 10 -82 2 -73 -5 6 -39 43 -76 84
-169 186 -467 382 -731 482 -128 48 -362 109 -417 109 -21 0 -38 4 -38 9 0 6
15 7 34 4 29 -4 36 -1 56 27 18 26 22 41 18 82 -3 27 -11 54 -19 58 -11 7 -10
12 4 28 19 21 22 38 7 47 -14 9 -40 -13 -40 -33 0 -13 3 -12 15 4 8 10 15 14
15 8 0 -14 -21 -34 -37 -34 -8 0 -13 13 -13 34 0 19 -5 38 -11 42 -17 10 -30
-17 -25 -48 6 -30 -10 -46 -27 -29 -8 8 -8 11 2 11 9 0 8 5 -3 16 -24 24 -40
7 -21 -22 12 -18 13 -29 5 -43 -13 -25 -13 -87 0 -112 15 -27 -11 -35 -140
-44 -58 -4 -168 -18 -245 -31 -77 -14 -166 -29 -197 -34 -119 -21 -433 -126
-547 -185 -85 -43 -159 -94 -165 -113 -4 -10 -18 -29 -31 -42 l-25 -23 0 75
c0 41 -7 97 -15 124 -8 27 -15 50 -15 50 0 1 18 4 39 7 60 8 151 53 198 99 26
26 50 62 63 98 17 47 25 57 40 53 15 -4 17 -9 9 -30 -12 -32 -12 -100 1 -108
21 -13 9 -24 -19 -19 -36 8 -51 -13 -16 -22 14 -3 35 -18 46 -32 17 -22 22
-24 29 -12 6 8 10 18 10 23 0 4 13 7 29 7 16 0 34 7 41 15 7 8 17 12 22 9 6
-4 14 0 19 7 14 23 10 32 -8 18 -14 -12 -14 -10 2 20 15 30 16 42 6 85 -6 28
-19 58 -28 68 -14 16 -14 20 -1 40 20 31 13 51 -14 37 -11 -6 -17 -17 -14 -25
4 -10 2 -12 -6 -8 -8 5 -9 2 -5 -9 5 -13 1 -17 -16 -17 -17 0 -22 6 -24 26 -1
27 -20 47 -36 37 -9 -6 -5 -45 8 -75 6 -15 2 -18 -26 -17 -32 1 -32 2 -9 9 16
5 19 8 8 9 -10 1 -20 12 -23 26 -3 14 -7 36 -10 50 -5 24 -4 25 34 19 55 -9
167 27 225 71 26 19 59 35 74 36 24 0 25 1 7 9 -20 9 -7 15 24 11 7 -2 10 2 6
9 -4 7 -18 9 -31 6 -25 -7 -25 -7 -9 25 9 17 19 56 22 86 l6 55 38 -40 c22
-22 52 -46 69 -54z m-1847 54 c8 -9 20 -29 26 -45 10 -26 13 -27 83 -28 70 -1
72 -1 42 -14 -17 -8 -36 -21 -43 -29 -15 -18 -56 -21 -66 -6 -3 6 -26 10 -51
10 -39 0 -44 3 -44 23 -1 12 -7 39 -14 59 -14 40 -10 46 30 47 11 1 28 -7 37
-17z m1881 -154 c37 -16 57 -52 63 -112 6 -60 -8 -112 -38 -144 -15 -16 -32
-22 -66 -22 -39 0 -50 5 -84 39 -30 30 -39 46 -39 74 0 64 13 99 50 138 39 41
68 48 114 27z m-1946 -195 c5 -21 33 -103 60 -183 63 -181 112 -334 108 -337
-1 -2 -18 2 -37 8 -37 12 -208 14 -241 3 -25 -8 -128 26 -128 42 0 6 16 47 36
90 43 95 48 109 65 154 7 19 32 73 55 120 23 47 46 97 49 113 10 37 21 34 33
-10z m2472 -152 c0 -5 2 -16 5 -24 5 -11 -16 -15 -112 -20 -338 -19 -865 -179
-1032 -314 -32 -26 -33 -27 -27 -6 4 12 2 31 -3 42 -9 16 -6 22 17 37 64 43
282 132 447 183 120 36 342 77 570 104 63 8 135 7 135 -2z m-3134 -38 c36 -38
37 -38 108 -36 79 3 156 -5 156 -15 -1 -11 -100 -52 -100 -41 0 22 -61 8 -96
-23 -34 -30 -38 -31 -67 -19 -18 7 -46 17 -63 22 -33 10 -44 35 -44 104 0 39
6 45 41 45 19 0 40 -12 65 -37z m3426 3 c126 -33 315 -98 382 -133 110 -57
379 -232 451 -295 28 -23 95 -91 150 -150 54 -59 101 -106 103 -103 3 2 -1 25
-7 51 -7 26 -11 79 -10 118 2 63 0 71 -16 75 -50 9 -119 70 -150 131 -32 65
-37 95 -23 143 l12 42 7 -50 c4 -27 14 -67 23 -87 21 -50 80 -107 117 -115 19
-3 35 -16 44 -33 8 -16 19 -30 25 -32 6 -2 12 -55 14 -133 4 -126 19 -193 46
-210 15 -9 12 -32 -6 -39 -11 -4 -70 46 -197 168 -215 207 -233 221 -427 336
-178 106 -201 118 -347 181 -109 46 -347 119 -391 119 -25 0 -26 3 -10 30 18
28 55 26 210 -14z m-322 -65 c0 -5 -7 -14 -15 -21 -8 -7 -15 -18 -15 -24 0 -6
-20 -34 -45 -61 -25 -28 -45 -53 -45 -58 0 -4 -16 -23 -35 -41 -19 -19 -35
-38 -35 -43 0 -4 -24 -33 -53 -64 -28 -31 -69 -75 -89 -98 -20 -22 -39 -41
-43 -41 -3 0 -18 -13 -32 -30 -13 -16 -31 -30 -39 -30 -8 0 -14 -4 -14 -10 0
-5 -5 -10 -12 -10 -6 0 -19 -7 -28 -15 -9 -8 -32 -18 -51 -21 -31 -6 -32 -5
-15 8 16 13 16 16 4 21 -9 3 -27 0 -41 -8 -24 -12 -25 -11 -31 16 -8 43 -36
38 -36 -6 0 -27 -4 -34 -17 -33 -37 3 -53 -3 -53 -18 0 -11 -5 -14 -17 -9 -10
4 -25 8 -33 9 -8 0 -19 7 -23 14 -4 6 -17 12 -28 12 -23 0 -61 20 -72 38 -4 6
-14 12 -22 12 -8 0 -19 9 -25 20 -6 11 -17 20 -25 20 -8 0 -15 4 -15 9 0 5 -9
13 -20 16 -11 3 -20 13 -20 20 0 8 -6 18 -13 22 -8 4 -24 24 -38 43 -13 19
-28 38 -33 41 -25 19 42 61 194 121 148 59 243 89 426 132 249 59 504 93 504
67z m184 -16 c145 -24 335 -97 551 -213 254 -136 405 -246 612 -447 118 -115
139 -149 108 -175 -18 -15 -19 -53 -3 -83 7 -12 11 -32 9 -45 -1 -13 5 -34 13
-47 9 -13 16 -33 16 -44 0 -25 39 -63 58 -56 8 3 17 -7 24 -26 10 -29 13 -31
49 -26 26 3 42 0 50 -9 6 -8 19 -14 29 -14 9 0 22 -11 28 -25 8 -16 23 -28 42
-31 16 -4 28 -10 25 -13 -8 -15 35 -71 60 -77 17 -4 25 -13 25 -27 0 -28 28
-57 57 -57 16 0 23 -6 23 -20 0 -29 36 -60 70 -60 24 0 30 -4 30 -21 0 -23 18
-60 34 -71 6 -4 23 -8 38 -8 20 0 28 -7 36 -30 13 -37 55 -59 81 -43 15 10 22
7 40 -18 12 -16 29 -29 39 -29 23 0 48 17 39 26 -3 4 -13 1 -22 -6 -13 -11
-19 -10 -36 6 -23 21 -22 52 4 68 23 14 51 -3 55 -34 10 -68 63 -90 108 -45
23 23 27 24 47 10 29 -20 53 -19 77 5 14 14 20 32 18 53 -2 40 7 57 31 57 48
0 50 -58 4 -79 l-26 -12 21 -15 c12 -8 22 -20 22 -26 0 -6 6 -19 14 -27 26
-30 68 -193 73 -281 14 -252 -131 -532 -272 -526 -23 1 -31 6 -33 24 -4 28
-45 56 -70 48 -16 -5 -18 -2 -15 21 6 38 -17 65 -55 67 -25 1 -32 5 -32 21 0
18 7 20 64 22 88 2 153 36 184 94 13 25 15 33 5 19 -52 -73 -107 -100 -206
-100 -41 0 -56 4 -61 16 -5 13 -15 15 -50 11 -37 -5 -45 -4 -49 12 -2 11 -16
27 -30 36 -24 15 -29 16 -58 1 -28 -14 -33 -14 -46 0 -19 18 -20 17 47 47 43
20 50 26 30 26 -54 3 -104 36 -132 87 -58 106 -44 172 54 258 57 50 57 63 -1
19 -47 -36 -68 -61 -86 -102 -20 -45 -19 -80 5 -144 22 -60 51 -91 107 -119
24 -11 29 -16 13 -12 -91 21 -163 94 -177 176 -3 21 -10 41 -16 45 -20 12 5
-73 38 -127 25 -41 46 -62 83 -81 55 -29 54 -31 -29 -58 -102 -32 -182 18
-244 151 -20 43 -25 69 -25 138 0 47 6 113 14 148 7 34 9 62 5 62 -13 0 -33
-134 -32 -215 1 -86 15 -130 65 -204 16 -24 27 -45 25 -47 -7 -7 -92 53 -131
92 -53 54 -59 73 -66 209 -5 100 -9 127 -27 156 l-22 35 28 81 c45 131 98 208
193 284 59 46 51 60 -10 16 -89 -63 -215 -239 -242 -337 -3 -14 -13 -26 -21
-26 -8 -1 -23 -2 -33 -3 -11 0 -39 -21 -63 -46 l-43 -45 0 43 c0 37 4 46 25
55 14 7 30 23 37 37 6 14 15 25 20 25 4 0 8 4 8 8 0 5 -24 7 -54 4 -46 -4 -62
0 -107 24 -57 31 -159 126 -159 148 0 8 -9 24 -20 37 l-20 24 6 -26 c5 -22 1
-28 -28 -42 -95 -44 -155 -47 -192 -8 l-27 28 27 7 c23 6 32 3 47 -18 10 -14
24 -26 30 -26 6 0 1 10 -11 23 -12 13 -22 27 -22 30 0 4 21 17 46 28 26 11 44
22 41 26 -4 3 -29 -4 -57 -16 l-50 -22 -35 28 c-19 15 -35 31 -35 35 0 3 15
15 33 25 24 15 39 17 62 11 17 -5 51 -6 77 -3 44 5 47 4 67 -29 25 -39 79 -83
135 -108 66 -31 226 -21 226 13 0 6 -7 6 -19 -1 -60 -32 -204 10 -298 87 -63
51 -58 61 32 55 55 -3 85 0 117 12 47 19 112 76 134 118 20 38 17 58 -4 31
-15 -18 -23 -20 -62 -14 -25 4 -61 15 -81 23 -61 27 -139 117 -167 193 -9 26
-11 27 -11 7 -1 -30 29 -87 73 -138 38 -44 117 -88 181 -102 l40 -8 -27 -18
c-22 -15 -43 -17 -110 -14 -68 3 -95 9 -152 36 -63 30 -90 52 -163 134 -13 14
-23 33 -23 41 0 9 -5 19 -11 23 -14 8 -4 -40 23 -112 24 -67 66 -124 117 -160
22 -16 41 -33 41 -38 0 -14 -122 0 -155 17 -17 8 -49 29 -73 47 -34 24 -41 34
-33 44 9 10 7 15 -8 19 -22 5 -65 85 -75 137 -3 19 -7 72 -7 118 -1 45 -5 82
-10 82 -20 0 -23 -216 -4 -279 7 -21 6 -23 -16 -16 -32 10 -55 39 -79 103 -27
72 -26 164 6 314 32 151 54 300 53 347 -1 29 -3 25 -10 -19 -10 -71 -37 -164
-90 -315 -40 -112 -42 -127 -43 -230 -1 -60 2 -122 7 -137 l7 -28 -63 0 c-61
0 -65 2 -105 42 -89 88 -168 238 -208 396 -37 147 -32 264 20 435 22 70 3 57
-22 -15 -32 -94 -52 -186 -52 -249 0 -31 -7 -76 -16 -100 -27 -78 -58 -298
-59 -419 0 -103 3 -121 26 -170 32 -69 105 -145 148 -155 17 -3 31 -10 31 -15
0 -17 -58 -20 -118 -6 -121 28 -191 78 -268 193 -82 122 -100 214 -81 397 6
49 5 76 -1 72 -5 -3 -13 -47 -18 -98 -30 -314 36 -501 214 -605 56 -33 177
-43 232 -20 35 15 35 15 -45 14 -105 -1 -167 25 -234 99 -48 53 -107 142 -98
150 2 2 20 -20 40 -51 20 -30 60 -72 88 -94 83 -66 243 -103 294 -68 11 8 36
20 55 26 104 38 136 32 119 -19 -10 -26 -13 -28 -42 -19 -52 15 -55 10 -8 -16
23 -14 50 -25 58 -25 8 0 11 -4 8 -10 -3 -5 -39 -10 -78 -11 -69 -1 -71 -1
-42 -14 17 -8 51 -14 78 -15 46 0 47 0 47 -32 0 -80 11 -110 46 -124 33 -14
34 -15 34 -77 0 -78 21 -165 59 -239 25 -48 27 -59 15 -69 -26 -21 -14 -31 12
-10 35 27 48 17 28 -20 -22 -43 -11 -47 15 -6 25 40 38 47 91 47 31 0 43 -6
59 -29 12 -16 21 -35 21 -42 0 -10 3 -10 11 -2 8 8 7 20 -5 44 -20 39 -20 36
6 42 16 5 31 -1 50 -20 30 -29 37 -21 12 15 -22 31 -6 51 17 21 10 -13 21 -20
25 -16 4 4 2 13 -4 19 -16 16 -15 38 1 38 8 0 22 -9 32 -20 10 -11 21 -18 23
-15 3 3 -5 16 -18 30 l-23 24 22 57 c11 31 21 64 21 75 0 19 15 20 68 3 28 -8
9 12 -28 30 -37 18 -41 24 -40 64 0 4 24 6 53 5 l52 -3 -55 15 c-30 9 -61 23
-68 33 -12 16 -7 17 55 23 37 3 52 6 33 7 -78 5 -129 26 -130 53 0 3 26 11 58
18 31 7 73 22 92 33 34 19 35 19 45 2 19 -36 114 -123 157 -145 25 -13 63 -22
90 -23 53 -1 59 -7 26 -30 -51 -36 -130 -13 -209 61 -56 52 -62 48 -14 -11 55
-69 71 -232 35 -370 -28 -104 -19 -109 10 -6 20 69 22 94 17 183 -3 56 -9 112
-13 125 l-6 22 43 -20 c24 -11 54 -20 66 -20 31 0 39 -38 23 -109 l-13 -56
-12 62 c-6 35 -13 65 -16 67 -2 2 -4 -44 -4 -102 0 -93 -3 -113 -23 -151 -13
-24 -34 -54 -47 -67 -13 -13 -20 -24 -16 -24 23 0 55 46 116 165 37 72 75 138
84 149 40 46 93 39 126 -17 51 -85 15 -377 -58 -472 -15 -20 -16 -19 -40 7
-22 24 -24 31 -14 57 9 24 7 34 -6 55 -10 14 -26 26 -37 26 -19 0 -19 0 0 33
11 18 31 44 45 57 14 13 25 28 25 34 0 5 -16 -5 -35 -24 -19 -19 -35 -31 -35
-27 0 17 28 67 62 111 42 54 52 89 12 41 -64 -76 -109 -182 -123 -290 l-6 -50
-42 3 c-38 3 -43 1 -49 -21 -3 -15 -15 -28 -30 -31 -19 -5 -24 -13 -24 -37 0
-16 -9 -40 -21 -52 -14 -15 -19 -30 -15 -49 3 -15 1 -30 -4 -33 -13 -8 -13
-52 0 -60 6 -4 5 -13 -3 -26 -10 -16 -9 -25 5 -50 17 -29 17 -31 -5 -61 -12
-17 -47 -48 -77 -69 -30 -22 -93 -66 -140 -99 -169 -120 -294 -186 -540 -287
-209 -85 -253 -95 -317 -68 -19 8 -43 15 -52 15 -26 0 -229 102 -322 162 -146
94 -289 224 -360 326 -57 80 -98 184 -130 327 -17 77 -42 169 -55 204 -20 54
-110 227 -155 298 -10 17 -8 23 15 46 14 14 26 31 26 37 0 6 25 10 60 10 50 0
60 -3 61 -17 0 -14 2 -15 6 -3 11 28 43 40 43 16 0 -16 -98 -76 -124 -76 -9 0
-16 -4 -16 -10 0 -14 12 -13 75 11 31 12 59 18 62 15 4 -3 -17 -29 -45 -56
-56 -54 -51 -66 10 -23 37 25 39 26 53 7 21 -28 18 -52 -10 -70 -14 -9 -25
-20 -25 -24 0 -16 39 2 66 31 15 16 33 29 40 29 14 0 16 -4 39 -114 16 -73 49
-145 74 -161 7 -4 5 -15 -5 -31 -9 -13 -13 -28 -9 -32 4 -4 10 -2 12 4 10 29
32 49 43 38 8 -8 7 -18 -4 -39 -23 -44 -7 -51 21 -8 16 26 32 38 49 39 19 2
24 -2 20 -13 -14 -34 -18 -63 -9 -63 5 0 14 20 21 43 12 39 16 43 38 39 13 -2
24 -12 25 -21 0 -15 1 -15 7 0 4 9 30 37 58 63 53 47 73 91 75 168 1 29 3 26
20 -27 11 -33 22 -79 25 -102 4 -24 11 -43 15 -43 24 0 -7 191 -47 292 -27 67
-139 204 -208 255 -86 63 -140 85 -227 90 -88 6 -129 -9 -154 -57 -13 -26 -18
-28 -41 -20 -31 12 -34 12 -34 1 0 -5 14 -14 31 -20 26 -9 30 -15 25 -33 -3
-13 -6 -31 -6 -40 0 -15 -9 -18 -44 -18 l-45 0 10 32 c13 45 4 46 -20 1 -45
-87 -117 -132 -212 -133 -45 0 -70 7 -130 38 -62 31 -82 48 -125 106 -115 152
-178 351 -178 561 0 111 2 126 31 202 62 159 158 318 271 450 77 89 153 154
160 134 2 -7 13 -20 23 -29 10 -9 16 -19 13 -24 -3 -4 2 -11 10 -14 9 -3 16
-15 16 -25 0 -12 10 -23 25 -29 14 -5 28 -17 32 -25 3 -9 12 -14 19 -11 8 3
14 -1 14 -9 0 -13 12 -19 32 -16 4 0 12 -8 18 -19 6 -11 17 -20 25 -20 8 0 19
-9 25 -20 6 -11 19 -20 30 -20 10 0 22 -5 26 -11 3 -6 15 -9 25 -6 11 3 19 2
19 -2 0 -4 23 -14 51 -21 27 -8 53 -18 55 -22 3 -5 10 -6 15 -3 15 10 10 -7
-8 -27 -22 -25 -35 -23 -68 12 -32 33 -45 31 -45 -8 0 -32 46 -82 76 -82 20 0
21 -3 16 -68 -6 -88 23 -161 76 -194 l35 -21 -23 -19 c-14 -11 -31 -16 -45
-12 -30 7 -38 -7 -19 -34 18 -26 42 -28 70 -7 28 21 30 19 26 -20 -4 -37 11
-65 34 -65 10 0 14 14 14 51 0 48 1 51 23 45 29 -7 67 18 67 44 0 15 -7 18
-44 17 -55 -2 -64 6 -38 33 44 47 52 172 16 241 -15 29 -14 32 5 45 35 25 51
45 51 65 0 25 -22 24 -45 -1 -20 -22 -55 -26 -73 -8 -22 22 -12 36 38 53 28 9
50 21 50 26 0 5 9 9 19 9 10 0 21 7 25 15 3 8 12 15 21 15 22 0 242 224 312
319 10 13 26 31 36 39 9 9 17 22 17 28 0 7 7 14 15 18 8 3 15 12 15 21 0 8 4
15 8 15 10 0 82 96 82 110 0 13 28 12 134 -5z m2284 -204 c124 -131 205 -326
206 -496 0 -104 -10 -140 -71 -252 -30 -57 -50 -83 -62 -83 -10 0 -24 -6 -31
-14 -9 -12 -17 -12 -35 -4 -18 8 -28 8 -40 -2 -21 -18 -19 -32 4 -19 26 17 53
4 49 -23 -2 -16 -11 -24 -28 -26 -20 -2 -30 5 -48 38 -25 45 -60 54 -94 23
-17 -15 -18 -15 -18 0 0 17 -38 32 -74 29 -11 0 -26 8 -34 19 -10 14 -23 19
-45 17 -24 -2 -35 2 -42 17 -12 23 -60 32 -81 14 -12 -9 -14 -6 -14 19 0 35
-22 56 -50 49 -12 -3 -20 0 -20 7 0 24 -38 49 -63 42 -22 -5 -24 -3 -19 21 4
21 -1 32 -24 51 -24 20 -26 23 -7 17 15 -4 28 1 42 16 12 13 21 26 21 30 0 4
15 5 33 2 28 -4 37 -1 54 20 15 19 26 24 46 20 29 -6 67 19 67 43 0 8 15 14
37 16 30 2 38 8 43 28 4 18 14 26 35 30 21 4 34 14 45 37 10 20 24 33 42 37
32 6 60 53 51 85 -4 16 1 27 16 38 18 12 22 24 20 61 0 26 2 64 6 84 5 25 3
43 -5 52 -6 9 -9 20 -5 26 9 14 25 2 93 -69z m-5604 -216 c24 -77 50 -162 59
-190 8 -27 21 -64 28 -82 12 -30 11 -33 -14 -53 -26 -21 -27 -24 -27 -124 l0
-104 -117 -5 c-122 -5 -183 -21 -258 -67 -19 -12 -35 -17 -35 -10 0 35 52 206
103 340 118 309 187 500 188 517 0 10 7 -4 15 -32 8 -27 34 -113 58 -190z
m1238 100 c15 -38 34 -88 44 -110 9 -22 36 -94 60 -160 23 -66 52 -147 64
-179 12 -33 22 -73 22 -88 1 -35 -26 -68 -43 -51 -14 14 -2 53 17 53 8 0 14 4
14 9 0 12 -105 31 -178 32 l-61 1 -3 46 c-3 43 -5 46 -45 61 -42 15 -43 15
-73 -14 -22 -21 -30 -38 -30 -62 0 -29 -3 -33 -26 -33 l-27 0 7 78 c5 61 18
107 61 216 31 76 76 177 101 223 53 97 53 97 96 -22z m-767 77 l50 -17 2 -47
c3 -53 1 -54 -50 -33 -20 8 -51 15 -69 15 -32 0 -113 -19 -150 -34 -17 -8 -19
-4 -32 56 -5 22 -1 31 19 44 55 36 152 43 230 16z m-34 -183 c8 -16 18 -20 41
-17 l29 5 -7 -126 c-3 -69 -8 -128 -10 -130 -2 -2 -17 11 -33 30 l-30 32 -78
-21 c-42 -12 -78 -20 -79 -19 -1 1 -4 48 -7 105 -4 74 -2 102 6 101 26 -3 36
2 42 21 8 24 18 25 39 5 22 -22 45 -18 52 10 8 31 20 32 35 4z m2793 -201 c8
-60 60 -226 87 -280 11 -21 47 -70 80 -109 58 -67 60 -71 43 -85 -19 -16 -17
-16 31 1 l20 7 -20 -17 c-11 -9 -29 -14 -40 -11 -12 3 -31 -5 -47 -19 -46 -40
-32 -48 30 -17 86 45 86 45 170 2 101 -51 155 -65 217 -55 l50 7 -48 13 c-42
11 -97 47 -97 65 0 13 65 -3 85 -20 11 -10 36 -26 55 -35 19 -10 49 -30 65
-44 17 -14 42 -33 55 -43 l25 -16 -38 -16 c-35 -15 -39 -15 -78 5 -40 20 -40
21 -23 40 9 10 14 22 11 26 -4 3 -15 -3 -25 -15 -18 -20 -21 -21 -73 -7 -73
20 -90 19 -159 -9 l-59 -24 -36 39 c-34 38 -46 37 -25 -1 30 -56 -71 -9 -136
63 -100 112 -146 219 -160 377 -7 80 10 230 26 230 4 0 11 -23 14 -52z m475
-65 c-16 -64 -24 -129 -24 -188 0 -78 4 -97 27 -145 15 -30 26 -55 25 -57 -2
-1 -16 1 -32 5 -42 12 -57 69 -52 192 2 74 11 117 37 197 19 56 36 101 38 98
2 -2 -7 -48 -19 -102z m-3291 -48 c-3 -42 -1 -78 4 -81 4 -3 44 -2 88 2 l80 7
0 56 0 57 57 12 c31 6 59 10 61 7 2 -2 7 -25 10 -50 6 -54 23 -65 102 -65 l49
0 7 60 c7 64 14 69 71 54 20 -6 21 -10 16 -74 -6 -67 -5 -69 19 -75 14 -4 42
-5 64 -3 36 3 39 6 53 51 23 76 61 58 54 -26 -2 -29 -7 -107 -12 -175 -5 -68
-11 -126 -15 -129 -3 -3 -47 8 -98 25 -175 59 -323 77 -507 61 -117 -10 -310
-55 -389 -89 -24 -11 -48 -20 -53 -20 -5 0 -9 81 -9 179 l0 179 34 20 c18 11
38 17 43 13 5 -3 15 -25 21 -48 15 -51 21 -56 55 -38 14 7 28 11 31 8 4 -4 11
34 18 107 3 22 9 26 56 31 29 4 56 10 59 13 4 3 13 6 21 6 12 0 14 -14 10 -75z
m2114 17 c35 -35 58 -101 58 -162 0 -46 -15 -106 -31 -124 -14 -15 -63 13 -89
51 -22 32 -25 48 -25 118 0 71 3 85 25 112 14 18 27 32 30 32 3 0 17 -12 32
-27z m2350 -33 c38 -47 50 -98 42 -179 -6 -55 -12 -70 -39 -97 -36 -36 -65
-42 -90 -17 -66 66 -70 203 -9 297 31 47 55 46 96 -4z m-1682 -292 c34 -90
142 -207 207 -223 33 -9 18 -24 -23 -24 -72 0 -150 63 -194 157 -24 52 -42
169 -33 215 7 32 7 32 15 -19 4 -28 17 -76 28 -106z m1880 71 c15 -12 33 -17
47 -13 18 4 23 1 23 -14 0 -29 29 -53 59 -49 18 2 29 -3 36 -17 8 -14 21 -20
45 -20 22 0 42 -8 57 -22 24 -25 52 -30 69 -13 8 8 15 6 24 -5 16 -20 74 -19
94 1 15 14 17 14 32 -1 17 -17 51 -12 69 9 6 7 16 11 23 8 26 -8 62 8 62 28 0
11 6 20 13 20 6 0 21 3 33 6 18 5 25 -4 52 -64 46 -103 59 -177 44 -261 -13
-77 -51 -171 -69 -171 -6 0 -19 -8 -29 -17 -10 -10 -34 -18 -57 -18 -23 -1
-42 -5 -44 -11 -12 -33 -21 -35 -45 -11 -22 22 -23 25 -8 38 69 59 125 206
114 298 -11 93 -22 102 -17 14 7 -97 -6 -159 -49 -228 -38 -63 -134 -143 -150
-127 -15 15 -65 16 -73 2 -11 -18 -23 -11 -18 10 3 11 -2 32 -12 46 -14 22
-22 25 -50 21 -28 -5 -32 -3 -28 13 7 28 -42 73 -73 67 -21 -4 -24 -1 -24 24
0 15 -4 30 -9 33 -18 12 -21 91 -6 150 9 32 14 61 11 63 -9 9 -36 -93 -36
-135 0 -54 -11 -48 -21 11 l-6 42 -2 -47 c-1 -51 -15 -64 -25 -24 -3 14 -19
30 -35 37 -17 8 -33 26 -41 46 -8 23 -23 40 -46 50 -18 9 -37 26 -40 37 -4 12
-13 28 -21 37 -16 19 -4 57 29 95 15 17 17 26 8 48 -5 15 -8 32 -5 37 8 13 66
-1 95 -23z m-5032 -80 l3 -68 -34 0 -33 0 10 44 c6 28 18 49 31 56 15 8 -6 9
-83 5 -86 -4 -120 -11 -199 -41 -52 -19 -97 -33 -101 -30 -7 8 -6 9 67 46 82
41 166 59 261 57 l75 -2 3 -67z m-169 -25 c14 -51 14 -53 -9 -53 -11 0 -43 -9
-72 -20 l-52 -20 -38 25 c-45 30 -47 40 -10 53 15 5 34 13 43 17 12 4 23 -4
39 -30 26 -43 38 -40 16 4 -21 40 -20 49 7 54 58 11 66 8 76 -30z m173 -76 c4
-9 28 -30 52 -45 l45 -27 -5 -85 c-3 -47 -7 -90 -9 -95 -2 -7 -33 -7 -94 -1
l-91 10 0 65 c0 108 -51 166 -109 124 -34 -26 -50 -73 -50 -149 -1 -61 -9 -74
-42 -74 -6 0 -8 48 -7 118 l3 117 47 23 c86 41 246 53 260 19z m3767 -293 c15
-19 21 -41 21 -75 0 -41 -4 -51 -25 -65 -23 -15 -27 -15 -50 0 -14 10 -30 28
-35 42 -35 90 36 166 89 98z m-3696 -132 c-1 -79 -4 -146 -6 -149 -10 -9 -47
18 -47 34 0 10 6 14 20 10 11 -3 20 -1 20 3 0 15 -98 30 -189 30 -102 0 -218
-26 -292 -66 -69 -38 -55 -40 24 -4 118 53 235 71 360 54 36 -5 44 -10 39 -23
-10 -26 -45 -50 -72 -51 -31 0 -70 25 -70 46 0 26 -18 15 -25 -15 -13 -60 -97
-82 -133 -36 -25 31 -32 31 -32 1 0 -34 -37 -76 -67 -76 -14 0 -37 9 -52 19
-27 19 -27 21 -29 139 -2 140 -4 135 107 182 101 43 134 48 301 47 l145 -2 -2
-143z m2497 -144 c43 -71 7 -165 -54 -142 -41 16 -62 126 -30 158 26 27 62 20
84 -16z m-2510 -46 c0 -5 -6 -17 -14 -27 -10 -15 -33 -20 -117 -26 -57 -4
-135 -14 -174 -22 -38 -8 -92 -18 -118 -22 -46 -6 -48 -5 -38 13 15 29 140 64
276 78 153 15 185 16 185 6z m1984 -139 c56 -88 87 -147 137 -262 l42 -95 -21
-15 c-12 -9 -32 -24 -46 -33 -13 -10 -37 -43 -52 -75 -47 -95 -34 -223 29
-292 l22 -24 -58 7 c-133 15 -205 88 -206 211 -1 69 29 128 99 200 63 64 99
130 81 148 -8 8 -11 5 -11 -10 0 -26 -89 -108 -145 -134 -132 -62 -265 40
-265 204 0 39 0 39 24 24 46 -30 92 -32 139 -3 52 30 68 63 69 139 1 55 1 55
34 59 33 4 34 3 40 -40 14 -91 -11 -149 -82 -189 -46 -27 -127 -30 -179 -9
-52 22 -42 8 11 -16 53 -23 114 -19 174 12 77 40 113 118 93 204 -5 25 -8 48
-5 51 16 15 37 -2 76 -62z m2748 -290 c36 -18 83 -35 105 -39 40 -6 40 -7 22
-25 -10 -10 -19 -25 -19 -31 0 -8 -14 -13 -37 -14 -39 -1 -73 -31 -73 -65 0
-11 -5 -16 -13 -13 -22 8 -59 -29 -59 -59 0 -15 -4 -24 -9 -21 -19 11 -49 -17
-49 -46 0 -19 -5 -30 -14 -30 -8 0 -21 -2 -29 -6 -18 -6 -33 54 -17 70 14 14
12 36 -4 68 -10 19 -11 29 -3 37 8 8 5 19 -9 38 -33 46 -36 62 -13 86 24 24
79 134 79 156 0 8 17 -6 39 -30 22 -26 65 -57 103 -76z m-3182 -15 c51 -112
153 -332 222 -483 28 -60 75 -161 104 -224 30 -62 54 -115 54 -118 0 -2 23
-52 51 -111 132 -275 133 -278 114 -312 l-14 -25 -1 28 c0 41 -27 98 -49 104
-12 3 -34 37 -61 96 -24 51 -64 137 -90 192 -115 240 -230 487 -230 490 0 2
-29 63 -64 137 -131 276 -144 318 -97 318 13 0 30 -26 61 -92z m-190 -20 c0
-4 6 -8 14 -8 7 0 21 -10 30 -22 16 -23 16 -23 11 9 -4 17 -2 34 4 38 6 3 11
15 11 26 0 10 5 19 10 19 9 0 14 -17 13 -47 -1 -7 4 -13 11 -13 6 -1 30 -42
53 -92 l42 -92 -28 -25 c-16 -15 -36 -41 -45 -59 -16 -30 -19 -32 -59 -27 -23
2 -52 7 -63 11 -12 3 -25 1 -28 -5 -4 -6 -20 -8 -36 -4 -23 4 -31 1 -36 -13
-4 -11 -16 -27 -26 -37 -14 -14 -17 -27 -13 -48 4 -18 3 -29 -4 -29 -6 0 -11
-9 -11 -20 0 -22 -20 -26 -37 -9 -7 7 -22 13 -35 15 -13 2 -32 6 -44 9 -12 4
-27 1 -35 -7 -8 -8 -22 -17 -32 -21 -11 -4 -21 -16 -24 -26 -3 -11 -11 -22
-18 -25 -7 -2 -16 -23 -20 -46 l-7 -41 -38 6 c-23 4 -41 2 -45 -4 -4 -7 5 -12
22 -13 85 -4 83 -5 77 18 -3 12 -1 25 5 28 5 4 8 13 5 21 -4 8 1 18 10 21 9 3
16 15 16 25 0 12 7 19 20 19 11 0 23 7 27 15 4 13 15 15 52 9 25 -3 51 -11 56
-18 6 -6 27 -12 48 -13 37 -2 38 -1 22 17 -11 12 -13 20 -6 25 6 3 11 24 11
46 0 28 4 39 15 39 8 0 15 9 15 19 0 26 15 34 39 21 13 -6 22 -7 26 0 3 5 25
8 48 6 31 -2 45 -9 52 -25 11 -23 30 -29 22 -6 -8 20 11 29 30 13 14 -11 15
-10 9 8 -8 25 20 84 40 84 8 0 14 7 14 15 0 8 5 15 10 15 6 0 10 -9 10 -20 0
-11 4 -20 8 -20 5 0 37 -61 72 -136 l63 -137 -42 -38 c-22 -21 -41 -45 -41
-52 0 -8 -7 -20 -16 -28 -11 -9 -14 -22 -10 -41 6 -32 0 -35 -24 -13 -10 9
-40 16 -73 18 -31 1 -57 5 -57 10 0 4 -5 7 -11 7 -8 0 -7 -5 2 -16 8 -9 21
-13 35 -10 13 4 26 1 29 -5 4 -6 17 -8 30 -5 17 4 29 -1 46 -24 26 -32 45 -40
35 -15 -3 9 1 18 9 21 11 5 12 11 2 31 -7 17 -8 27 0 31 5 4 13 18 17 32 4 14
22 38 41 53 l35 29 45 -96 c25 -53 65 -139 90 -191 44 -94 44 -95 20 -91 -14
3 -29 7 -35 11 -5 3 -15 3 -21 -1 -7 -4 -30 -9 -51 -11 -22 -2 -46 -10 -54
-18 -9 -8 -20 -15 -25 -15 -5 0 -9 -8 -9 -18 0 -11 -7 -34 -17 -52 -9 -19 -18
-50 -19 -69 -2 -20 -3 -39 -3 -43 -1 -5 -10 -8 -21 -8 -20 0 -28 3 -88 34 -25
14 -36 15 -47 6 -8 -6 -24 -9 -35 -5 -23 7 -70 -27 -70 -51 0 -6 -8 -22 -18
-34 l-19 -23 -116 144 c-79 97 -112 145 -102 147 8 2 15 10 15 18 0 8 6 14 14
14 8 0 18 9 21 20 6 19 35 29 35 12 0 -5 21 -9 46 -10 28 0 50 -6 55 -14 6 -8
9 0 9 25 0 20 5 37 10 37 6 0 10 11 10 25 0 16 6 25 15 25 9 0 15 9 15 25 0
18 5 25 19 25 12 0 20 9 23 25 3 14 1 25 -3 25 -5 0 -9 -4 -9 -9 0 -7 -25 -39
-65 -82 -8 -9 -15 -23 -15 -32 0 -9 -5 -19 -11 -22 -6 -4 -8 -13 -5 -21 6 -17
-10 -28 -26 -17 -7 4 -35 9 -62 10 -40 1 -49 -2 -53 -18 -3 -10 -10 -19 -15
-19 -5 0 -16 -7 -24 -15 -9 -8 -18 -15 -22 -15 -11 1 -194 232 -200 252 -2 10
-8 18 -12 18 -12 0 -158 175 -172 206 -11 23 -10 29 8 43 11 9 18 24 16 34 -2
10 3 24 11 30 9 7 17 21 19 32 2 11 11 20 20 20 10 0 23 6 29 12 9 9 18 9 32
2 10 -6 28 -9 38 -6 10 3 22 1 25 -4 9 -15 24 -10 18 6 -4 8 -1 15 5 15 7 0 9
9 5 24 -3 13 -1 27 5 30 6 4 11 21 11 37 0 22 6 32 24 39 13 5 26 14 28 21 6
19 78 22 85 3 3 -7 13 -14 23 -14 11 0 22 -4 25 -10 12 -20 26 -10 15 11 -8
15 -8 24 -1 33 6 8 9 20 6 29 -4 9 2 21 13 29 11 7 21 22 23 33 3 14 14 21 34
23 17 2 34 7 39 12 9 9 86 -46 86 -62z m3073 -68 c34 -27 60 -118 55 -187 -5
-61 -45 -129 -86 -144 -69 -26 -78 -24 -107 26 -39 66 -40 163 -2 228 28 47
80 97 101 97 8 0 25 -9 39 -20z m647 -30 c0 -6 14 -19 31 -29 24 -15 38 -17
56 -10 21 8 28 5 45 -16 11 -14 30 -25 44 -25 19 0 24 -5 24 -24 0 -33 45 -68
76 -60 21 5 24 3 24 -19 0 -14 10 -34 23 -44 12 -10 28 -30 34 -45 10 -21 20
-28 41 -28 15 0 33 5 40 12 8 8 14 4 23 -18 72 -184 88 -280 64 -385 -25 -111
-64 -174 -154 -249 -13 -11 -31 -21 -40 -21 -44 -3 -85 -10 -89 -14 -10 -9 99
-5 117 5 16 8 19 4 25 -35 13 -98 76 -135 171 -101 14 6 12 1 -9 -17 -32 -28
-91 -41 -142 -31 -24 4 -48 21 -79 56 -25 28 -45 45 -45 38 0 -6 20 -32 44
-58 44 -46 45 -47 109 -47 72 0 75 -8 13 -36 -57 -26 -96 -25 -96 2 0 25 -18
60 -39 76 -19 15 -90 17 -111 3 -11 -7 1 -10 39 -10 73 0 91 -17 91 -86 0 -39
5 -58 19 -71 67 -65 65 -111 -6 -140 l-48 -20 43 -24 c23 -13 45 -33 48 -45 3
-12 -6 -49 -20 -84 l-26 -63 40 -43 c28 -31 40 -52 40 -74 0 -16 -4 -30 -10
-30 -5 0 -10 -13 -10 -28 0 -39 -24 -57 -96 -72 -89 -18 -90 -19 -76 -80 18
-79 16 -97 -18 -121 -16 -13 -35 -39 -41 -58 -22 -68 -32 -75 -122 -86 -79
-10 -82 -11 -79 -35 14 -112 14 -118 -7 -139 -12 -12 -30 -21 -41 -21 -10 0
-23 -7 -28 -16 -10 -18 -69 -33 -128 -34 -26 0 -51 -8 -72 -24 -27 -19 -41
-23 -79 -18 -37 4 -49 1 -60 -14 -8 -11 -38 -23 -75 -31 -34 -7 -62 -12 -63
-10 -20 41 -97 144 -135 182 -54 53 -60 65 -31 65 38 0 84 24 103 54 l20 31
-7 -54 c-3 -30 -8 -68 -11 -85 -3 -22 0 -19 10 13 8 24 18 74 21 110 10 108
14 118 40 123 30 6 58 -22 80 -77 12 -31 14 -33 9 -10 -3 17 -15 46 -27 65
-12 19 -22 47 -23 62 -1 24 1 26 25 22 17 -4 32 0 40 9 9 12 19 13 43 6 18 -5
34 -7 36 -4 2 2 -10 8 -28 12 -21 6 -36 17 -42 32 -7 19 -5 22 8 17 9 -4 22
-2 29 4 10 8 23 7 47 -5 66 -32 74 -39 108 -87 57 -80 63 -87 49 -58 -38 79
-93 135 -159 161 -8 3 -15 19 -16 35 -2 41 30 54 130 54 43 0 77 2 75 4 -5 5
-85 15 -126 15 -22 1 -33 6 -33 16 0 26 47 29 107 6 31 -12 58 -20 60 -18 4 5
-91 47 -106 47 -6 0 -11 14 -11 30 0 18 5 30 13 30 16 0 40 47 31 61 -14 23
36 56 146 95 36 13 59 23 51 24 -7 0 -45 -11 -84 -25 -39 -14 -76 -24 -84 -21
-7 3 -13 -1 -13 -8 0 -23 -29 -41 -43 -27 -14 14 2 46 24 46 8 0 25 7 39 14
14 8 52 21 85 28 52 11 54 12 18 10 -24 -1 -43 1 -43 5 0 5 4 8 10 8 16 0 182
169 175 180 -10 16 -58 11 -91 -9 -17 -11 -48 -36 -68 -56 -38 -37 -60 -40
-38 -5 15 24 16 57 2 65 -20 12 -9 56 21 90 33 36 163 108 261 145 49 18 58
26 69 57 9 27 9 45 0 74 -13 43 -31 52 -94 48 -42 -3 -42 -3 -39 28 3 29 0 31
-35 37 -50 9 -73 9 -103 1 -23 -6 -28 -1 -49 40 -19 38 -22 55 -16 93 13 89
43 148 98 197 29 26 43 42 31 36 -49 -23 -101 -89 -123 -152 -34 -100 -28
-162 21 -216 20 -21 20 -21 -1 -28 -44 -14 -75 4 -112 63 -76 121 -92 222 -50
319 30 67 126 160 211 203 106 53 195 108 225 140 40 42 26 37 -30 -9 -26 -22
-98 -65 -159 -97 -61 -32 -133 -78 -160 -103 -56 -52 -106 -125 -106 -155 0
-16 -2 -18 -9 -7 -7 11 -14 7 -30 -20 -12 -19 -21 -41 -21 -49 1 -8 10 2 21
23 11 20 21 37 22 37 1 0 3 -33 4 -72 1 -82 19 -139 63 -205 39 -57 40 -63 13
-73 -15 -6 -25 -4 -33 6 -10 11 -10 14 1 14 8 0 -5 9 -28 19 -47 22 -71 59
-83 130 -7 44 -8 45 -9 10 -1 -46 24 -108 52 -131 13 -10 16 -18 9 -18 -7 0
-26 -14 -41 -31 -28 -30 -29 -30 -58 -16 -67 35 -162 174 -183 269 -26 114 16
288 69 288 24 0 42 22 44 56 2 21 9 30 27 34 17 4 28 16 35 38 5 18 15 32 22
32 17 0 43 40 43 67 0 15 6 23 17 23 20 0 53 28 53 47 0 7 7 13 16 13 23 0 74
39 74 56 0 9 10 14 28 14 16 0 37 6 47 14 11 8 34 11 60 8 30 -3 46 0 56 11
16 19 29 22 29 7z m-2880 -52 c15 -63 61 -186 92 -245 27 -52 17 -68 -42 -66
-43 2 -86 21 -112 50 -47 51 -62 156 -32 216 22 42 63 97 74 97 4 0 14 -24 20
-52z m3470 -208 c0 -81 -12 -210 -19 -210 -3 0 -14 28 -24 63 -10 34 -31 89
-48 122 -34 69 -33 65 -16 65 7 0 28 11 47 24 32 22 36 23 48 8 6 -9 12 -41
12 -72z m-4954 -92 c17 -18 57 -66 90 -107 65 -82 175 -218 389 -481 271 -332
312 -389 307 -415 -8 -46 13 -68 -298 310 -180 219 -270 328 -327 395 -47 55
-237 292 -237 295 0 2 3 10 6 19 10 25 38 19 70 -16z m3521 -23 c-3 -11 -17
-47 -31 -80 -28 -66 -32 -105 -14 -123 38 -38 78 15 86 113 3 47 9 65 24 74
11 7 22 10 24 8 3 -3 -4 -40 -15 -83 -39 -157 -36 -215 10 -229 40 -13 59 24
59 118 l0 81 18 -36 c11 -20 22 -68 26 -107 11 -127 90 -296 175 -375 17 -17
31 -35 31 -42 0 -15 -53 -129 -70 -149 -11 -14 -16 -14 -38 1 -15 10 -35 14
-53 10 -24 -5 -33 1 -62 37 -61 75 -97 139 -97 174 0 41 34 146 63 192 11 19
15 31 8 27 -7 -5 -27 -38 -43 -75 -44 -94 -50 -211 -16 -295 13 -33 29 -61 36
-64 6 -2 1 16 -12 40 -22 40 -43 108 -33 108 2 0 20 -26 40 -57 19 -32 47 -69
61 -82 27 -25 26 -41 -1 -41 -9 0 -27 -10 -40 -21 l-22 -22 -33 25 c-44 34
-88 79 -88 90 0 5 -4 7 -8 4 -11 -6 -68 53 -111 115 l-32 46 21 169 c11 93 25
207 31 254 6 47 17 115 25 151 l15 65 35 0 c30 -1 35 -4 31 -21z m133 -140 c0
-125 -9 -165 -39 -165 -37 0 -41 63 -11 189 11 46 23 87 26 92 16 26 24 -14
24 -116z m-2255 75 c3 -5 19 -10 34 -10 15 0 36 -9 46 -20 10 -11 28 -20 41
-20 13 0 25 -8 28 -18 10 -30 51 -47 80 -34 19 9 27 8 36 -4 7 -8 21 -14 31
-14 20 0 26 -16 9 -22 -15 -5 -121 -98 -176 -155 -61 -62 -102 -154 -111 -249
-5 -55 -2 -70 22 -119 19 -40 37 -61 60 -72 25 -12 36 -27 48 -62 13 -42 13
-46 -2 -50 -9 -2 -19 -8 -23 -14 -4 -6 -23 24 -44 68 -20 44 -57 122 -81 172
-23 51 -43 99 -43 107 0 8 -4 16 -9 18 -4 2 -27 43 -49 91 l-41 88 9 76 c10
81 42 160 86 218 27 36 39 42 49 25z m1969 -152 c-13 -90 -28 -197 -34 -238
-20 -146 -9 -377 23 -480 14 -42 14 -36 10 95 l-5 140 73 -72 c96 -93 91 -89
182 -161 83 -66 236 -146 300 -158 20 -3 37 -8 37 -10 0 -3 -15 -19 -32 -37
-28 -26 -33 -39 -33 -76 0 -39 -3 -46 -25 -51 -18 -4 -26 -15 -32 -44 -5 -21
-17 -45 -28 -54 -11 -10 -22 -33 -25 -52 l-5 -35 12 33 c6 19 22 41 35 49 17
11 23 25 23 49 0 42 14 49 65 32 27 -9 41 -21 46 -38 4 -14 16 -55 28 -92 l20
-68 -24 0 c-31 0 -58 -36 -44 -62 8 -14 6 -18 -7 -18 -10 0 -25 -7 -34 -15
-16 -15 -19 -12 -34 26 -20 51 -14 60 19 29 14 -13 27 -21 30 -18 9 9 -46 48
-66 48 -11 0 -19 -2 -19 -5 0 -10 56 -120 63 -123 17 -8 4 -17 -25 -17 -28 0
-33 -5 -41 -32 -7 -22 -16 -33 -29 -33 -10 0 -26 -9 -35 -20 -10 -11 -20 -20
-24 -20 -4 0 -10 30 -14 68 -4 37 -13 96 -20 132 -7 35 -11 68 -8 73 3 5 26 7
50 3 28 -4 42 -2 38 4 -3 6 -26 10 -49 10 l-44 0 -12 100 c-7 55 -15 102 -19
104 -11 7 -194 -53 -258 -84 -58 -29 -117 -76 -125 -100 -2 -7 -14 -7 -36 1
-31 11 -70 9 -102 -5 -12 -5 -16 3 -18 36 -1 24 -7 55 -13 70 -12 30 -58 53
-88 43 -11 -3 -38 -1 -60 6 -52 15 -107 4 -127 -26 -8 -13 -18 -49 -21 -80 -5
-46 -9 -55 -22 -49 -9 4 -35 8 -58 9 -30 2 -54 13 -88 38 -66 51 -227 106
-311 107 -16 0 -23 8 -28 31 -6 30 -8 31 -47 26 -35 -5 -40 -3 -33 11 13 32
16 70 5 76 -6 4 -11 20 -11 37 0 46 -29 68 -84 62 -38 -5 -46 -3 -46 11 0 9
-8 16 -20 16 -21 0 -27 14 -11 25 6 3 36 10 68 16 208 38 317 81 378 151 62
72 115 215 115 311 0 24 6 49 13 55 6 5 66 31 132 57 212 83 381 175 550 299
33 24 65 45 71 45 7 1 2 -55 -12 -161z m-1389 -104 c47 -34 124 -79 171 -100
65 -30 84 -44 84 -59 0 -12 5 -26 12 -33 9 -9 8 -12 -4 -12 -22 0 -58 -47 -51
-66 3 -8 -8 -26 -26 -43 -18 -17 -29 -35 -25 -44 3 -10 -3 -17 -20 -21 -16 -4
-28 -16 -32 -30 -4 -16 -15 -26 -35 -30 -18 -3 -34 -15 -40 -30 -13 -27 -34
-25 -42 5 -3 10 -13 22 -22 25 -9 4 -28 18 -41 30 -23 24 -60 32 -66 14 -1 -5
-14 -1 -27 9 -21 16 -23 21 -12 53 6 19 26 48 43 64 25 23 29 25 23 9 -21 -56
-26 -88 -16 -98 8 -8 11 -2 11 20 0 47 34 114 74 147 20 15 50 47 68 70 29 38
27 37 -28 -15 -32 -30 -85 -76 -116 -102 -57 -48 -85 -99 -75 -136 3 -12 -6
-29 -23 -45 -28 -26 -29 -26 -59 -9 -31 18 -31 18 -55 -12 -21 -26 -27 -28
-44 -18 -11 6 -29 9 -40 6 -28 -7 -72 69 -79 139 -13 125 42 243 173 373 44
44 83 88 87 98 6 16 16 10 76 -40 38 -32 108 -86 156 -119z m-434 -52 c-44
-63 -65 -133 -65 -227 -1 -95 8 -125 54 -173 33 -34 12 -48 -30 -20 -105 71
-96 275 16 407 41 47 55 54 25 13z m-411 -72 c0 -6 10 -8 24 -4 23 5 29 -2 75
-94 l50 -100 -80 -129 c-44 -70 -110 -184 -146 -253 -37 -69 -68 -127 -70
-130 -3 -3 -18 10 -34 28 l-30 34 7 116 c6 108 5 122 -16 169 -38 89 -57 80
-90 -42 -12 -44 -22 -81 -23 -82 -5 -5 -157 182 -157 193 0 7 7 19 15 28 8 8
15 19 15 25 0 6 10 21 21 32 26 26 102 34 120 13 7 -8 20 -12 29 -9 11 3 20
-1 24 -11 3 -8 12 -14 19 -11 6 2 19 0 29 -4 14 -7 18 1 28 59 6 37 18 77 26
90 8 12 12 26 10 31 -9 14 46 45 81 46 18 1 36 4 39 8 11 11 34 8 34 -3z
m1434 -98 c-13 -115 -41 -178 -110 -250 -36 -36 -66 -63 -69 -60 -2 2 4 28 15
56 12 31 20 77 20 111 0 61 -22 131 -41 131 -6 0 -3 -12 7 -27 30 -44 26 -173
-6 -238 -23 -47 -30 -52 -104 -82 -43 -18 -104 -37 -135 -43 -31 -7 -78 -18
-104 -25 -70 -21 -97 -6 -57 30 12 10 18 25 15 33 -3 7 -2 24 1 37 5 20 8 22
34 12 42 -16 84 1 88 35 2 16 11 30 23 33 10 4 26 19 34 35 8 16 24 31 35 35
24 8 42 38 35 57 -4 9 4 19 20 26 25 12 29 23 25 75 -1 19 3 27 14 27 9 0 22
11 28 25 11 26 11 26 88 5 19 -5 28 -17 38 -55 13 -43 12 -54 -5 -107 -12 -34
-15 -57 -9 -55 28 9 41 146 20 201 -5 12 84 47 99 39 4 -2 4 -30 1 -61z m1789
-18 c45 -6 45 -7 40 -41 l-6 -35 46 7 c25 4 54 4 65 1 24 -8 37 -53 28 -101
-6 -29 -12 -35 -69 -55 -89 -32 -206 -96 -249 -138 -21 -20 -40 -34 -42 -31
-14 14 55 179 74 179 13 0 13 -1 -6 -45 -8 -20 -13 -39 -10 -42 7 -7 36 65 36
88 0 44 -47 3 -75 -64 -9 -23 -24 -59 -33 -79 -17 -43 -38 -49 -47 -15 -3 12
-11 31 -16 42 -8 16 1 44 44 136 43 92 64 123 102 157 52 45 50 45 118 36z
m-284 -24 c21 -14 37 -18 64 -13 20 3 44 3 53 -1 15 -6 15 -8 1 -24 -9 -10
-42 -72 -73 -137 -47 -98 -58 -116 -65 -99 -5 15 -19 23 -46 27 -22 4 -48 16
-58 27 -13 15 -26 19 -42 15 -13 -3 -23 -3 -23 -1 0 21 78 160 107 189 41 43
46 44 82 17z m-2744 -110 c8 -16 15 -50 15 -76 0 -48 -19 -89 -102 -218 -71
-110 -113 -247 -138 -453 -6 -46 -13 -90 -17 -100 -4 -10 -2 -14 5 -10 6 4 13
22 17 40 6 32 22 101 51 227 34 151 78 254 168 400 25 41 46 79 46 85 0 16 37
48 43 38 39 -68 26 -157 -47 -312 -58 -123 -69 -168 -86 -356 -6 -60 -13 -125
-16 -144 -5 -24 -3 -32 5 -27 6 4 11 17 11 29 1 30 33 151 76 279 33 101 79
184 138 253 21 25 27 28 35 15 15 -22 4 -80 -39 -205 -48 -143 -65 -252 -51
-328 13 -71 29 -102 80 -155 25 -25 38 -47 35 -56 -8 -22 36 -58 97 -80 51
-18 119 -76 118 -101 0 -5 -52 -32 -117 -60 -140 -59 -202 -92 -209 -113 -7
-18 31 -52 58 -52 17 0 18 -3 7 -20 -11 -17 -9 -23 13 -46 23 -23 37 -27 110
-31 54 -3 116 1 173 11 49 9 91 14 93 13 5 -6 -80 -63 -145 -97 -73 -39 -76
-56 -17 -84 75 -36 124 -32 249 20 18 7 19 4 13 -47 -7 -56 -93 -414 -177
-739 -27 -102 -58 -232 -69 -290 -11 -58 -32 -161 -45 -230 -30 -152 -71 -278
-141 -434 -40 -91 -184 -326 -230 -375 -50 -55 -137 -122 -213 -165 l-58 -33
-50 39 c-74 58 -160 156 -195 222 -18 33 -42 100 -55 150 -21 79 -24 116 -24
276 -1 197 17 395 49 550 11 52 23 123 26 157 7 59 8 61 39 66 29 4 35 1 55
-32 8 -14 69 -9 193 15 l27 5 -47 -76 c-82 -132 -90 -146 -176 -320 -46 -93
-95 -202 -109 -241 -27 -76 -49 -176 -37 -169 4 3 11 21 14 40 11 54 128 302
206 435 5 8 52 83 103 165 52 83 104 169 116 192 12 24 46 84 77 135 49 81
114 203 206 390 15 32 28 65 28 73 0 62 -275 474 -503 754 -38 46 -91 117
-118 157 -57 85 -77 161 -110 415 -23 176 -21 193 34 379 14 47 30 104 36 128
7 23 16 42 20 42 15 0 41 -79 41 -126 0 -25 -9 -92 -21 -147 -27 -129 -21
-198 22 -292 l31 -70 -17 -103 c-9 -57 -15 -106 -12 -109 7 -7 23 53 38 142
45 275 45 274 114 410 115 225 218 405 231 405 8 0 20 -13 29 -30z m613 -80
c7 0 12 -9 12 -20 0 -10 9 -24 19 -30 17 -8 18 -15 10 -39 -5 -15 -9 -32 -7
-37 1 -5 -5 -21 -15 -35 -24 -36 -13 -59 29 -59 28 0 34 -4 34 -21 0 -15 5
-19 19 -14 13 4 20 0 23 -13 5 -17 13 -19 55 -15 56 6 71 -5 77 -55 2 -18 9
-38 16 -46 9 -12 9 -20 -4 -38 -27 -39 -21 -50 27 -46 37 3 42 0 45 -19 3 -21
-1 -23 -36 -23 -49 0 -59 -12 -68 -78 -7 -57 -13 -62 -32 -32 -7 11 -20 20
-30 20 -9 0 -23 9 -30 20 -7 11 -21 20 -33 20 -16 0 -19 4 -14 20 4 13 -2 28
-19 45 -26 26 -32 41 -18 47 16 7 62 71 62 86 0 11 -7 7 -19 -13 -30 -49 -55
-67 -85 -59 -17 4 -26 13 -26 25 0 11 -10 24 -23 30 -13 6 -27 20 -32 32 -6
12 -22 28 -37 35 -38 18 -35 32 12 65 22 16 40 33 40 39 0 11 -15 1 -57 -36
-13 -11 -25 -17 -28 -14 -3 3 -1 28 5 56 15 65 10 116 -11 120 -20 4 -39 -39
-38 -86 1 -38 3 -34 14 31 4 24 11 37 21 37 12 0 14 -9 9 -47 -8 -59 -24 -113
-34 -113 -3 0 -14 9 -24 20 -9 11 -29 20 -43 20 -16 0 -37 11 -51 26 -16 17
-31 24 -43 21 -13 -3 -20 0 -20 9 0 8 -4 14 -10 14 -5 0 -10 13 -10 28 0 15
-5 33 -11 39 -9 9 -9 20 1 42 14 36 17 37 40 16 16 -15 20 -13 45 17 27 32 27
32 57 15 30 -17 30 -17 64 13 36 31 54 38 54 20 0 -17 27 -11 34 7 6 14 12 12
39 -15 18 -18 38 -32 45 -32z m2004 -45 c16 -14 41 -25 54 -25 14 0 27 -7 31
-16 3 -8 16 -20 29 -25 16 -6 24 -16 24 -33 0 -30 -14 -41 -70 -56 -57 -15
-80 -36 -80 -71 0 -27 -2 -28 -27 -18 -70 26 -172 82 -213 118 -39 34 -43 40
-31 55 7 9 20 16 28 16 8 0 28 11 44 25 29 24 31 24 64 8 33 -16 34 -15 71 16
21 17 40 31 42 31 2 0 17 -11 34 -25z m193 -230 c0 -22 -5 -50 -13 -62 -8 -12
-11 -31 -7 -43 4 -12 2 -26 -3 -33 -5 -7 -12 -21 -14 -32 -2 -14 -8 -6 -17 25
-24 75 -37 90 -80 90 -35 0 -39 3 -49 37 -14 47 -6 58 63 77 29 9 58 23 65 31
11 14 15 11 33 -17 11 -18 21 -51 22 -73z m-2544 29 c8 -10 23 -14 41 -12 20
3 29 0 34 -14 3 -10 17 -21 32 -25 15 -3 35 -17 46 -30 10 -13 24 -22 31 -19
8 3 15 -5 17 -19 5 -21 1 -24 -48 -30 -29 -3 -58 -13 -65 -21 -10 -12 -8 -13
12 -6 36 14 122 25 117 15 -24 -48 -40 -90 -44 -116 -3 -23 1 -17 15 20 11 29
28 66 37 83 l18 29 13 -29 c8 -20 19 -30 33 -30 17 0 19 -3 10 -20 -6 -11 -31
-35 -57 -55 -25 -19 -41 -35 -35 -35 6 0 31 16 57 35 42 33 48 34 67 21 11 -8
26 -25 32 -37 6 -13 20 -26 31 -29 29 -7 29 -45 0 -88 -14 -20 -25 -48 -25
-61 l0 -25 30 29 c37 36 40 58 3 24 l-27 -24 22 35 c16 26 28 34 44 32 36 -4
42 -17 29 -66 -6 -25 -11 -60 -10 -78 1 -25 5 -17 15 31 8 36 15 66 17 67 1 1
14 0 30 -3 36 -7 43 -37 28 -122 -17 -94 -20 -98 -70 -77 -45 18 -138 21 -188
7 l-31 -9 -83 176 c-45 98 -99 213 -119 257 -114 245 -110 235 -86 235 7 0 19
-7 27 -16z m21 -171 c83 -178 206 -450 213 -473 6 -19 4 -21 -21 -18 -26 3
-36 20 -146 258 -65 140 -118 264 -118 275 0 24 11 65 17 65 2 0 27 -48 55
-107z m2428 75 c0 -2 11 -33 24 -70 19 -57 21 -70 10 -79 -8 -6 -14 -24 -14
-40 0 -16 -4 -29 -9 -29 -12 0 -26 -39 -22 -65 2 -11 0 -17 -5 -13 -4 4 -12 3
-19 -2 -9 -7 -17 8 -31 57 -16 55 -24 68 -46 77 -25 9 -28 15 -28 59 0 33 5
49 15 53 8 4 15 12 15 19 0 15 43 33 83 34 15 1 27 0 27 -1z m-2430 -239 c0
-4 -15 -12 -32 -20 -18 -7 -50 -24 -71 -37 l-39 -23 7 33 c4 18 18 73 33 122
l26 89 38 -79 c21 -43 38 -82 38 -85z m3200 111 c96 -77 132 -116 166 -175 74
-133 110 -285 120 -505 7 -161 1 -190 -72 -351 -31 -65 -42 -80 -89 -111 -50
-33 -54 -34 -59 -15 -8 31 20 87 67 135 22 23 38 42 34 42 -15 0 -75 -61 -93
-95 l-18 -34 -30 26 c-26 22 -37 25 -84 21 l-54 -5 6 40 c7 44 73 177 87 177
14 0 10 -30 -10 -87 -10 -29 -14 -53 -10 -53 13 0 41 106 37 142 l-3 33 -29
-30 c-37 -39 -86 -147 -93 -207 -5 -37 -10 -48 -24 -48 -26 0 -59 -48 -59 -86
0 -19 9 -57 20 -86 11 -29 20 -54 20 -55 0 0 -19 8 -42 19 -53 26 -128 29
-151 6 -10 -9 -25 -14 -37 -11 -26 7 -60 83 -67 151 -3 29 -10 55 -16 59 -14
8 2 -92 23 -149 l18 -47 -101 2 -100 2 -9 -30 c-4 -16 -11 -71 -14 -122 -7
-89 -7 -91 -34 -96 -15 -3 -37 -3 -49 0 -11 3 -27 0 -35 -6 -10 -9 -16 -8 -26
4 -7 8 -21 15 -31 15 -23 0 -23 7 -3 85 8 33 19 143 24 245 6 102 13 199 16
215 4 22 3 26 -4 16 -11 -16 -25 -111 -42 -286 -14 -147 -34 -234 -81 -367
-43 -120 -63 -157 -74 -138 -4 6 3 22 16 36 19 20 21 27 11 49 -12 26 -20 29
-46 19 -26 -10 -18 -25 9 -18 20 5 25 2 25 -13 0 -11 -3 -22 -6 -26 -17 -17
-43 18 -96 131 -33 68 -81 160 -108 203 l-49 79 31 30 c17 16 53 44 82 61 152
95 154 98 127 168 l-19 50 56 7 c39 5 63 14 79 30 21 21 29 23 63 15 33 -7 44
-5 70 14 22 16 52 25 101 30 51 5 78 13 97 30 15 12 39 25 54 29 39 9 51 39
45 113 -3 43 -1 63 7 63 40 1 140 21 151 30 7 6 20 31 29 56 8 24 31 60 52 79
32 31 36 38 29 67 -3 18 -9 49 -12 68 l-5 35 73 18 c85 21 99 30 99 66 0 15 7
37 16 49 22 31 12 63 -34 111 l-37 39 18 42 c10 23 22 40 26 38 4 -2 27 -19
51 -38z m-1165 -75 l0 -48 -85 -23 c-102 -27 -168 -54 -226 -94 -43 -29 -44
-29 -44 -7 0 37 36 84 93 122 52 35 232 107 252 101 6 -1 10 -24 10 -51z
m-692 19 c32 -11 51 -12 64 -6 39 21 83 -36 83 -107 0 -33 -9 -53 -52 -110
-29 -39 -56 -70 -59 -70 -3 -1 -13 15 -22 34 -18 38 -32 43 -57 20 -16 -14
-21 -12 -60 26 -43 41 -43 42 -37 101 6 64 26 104 60 118 30 12 28 12 80 -6z
m-543 -30 c60 -17 240 -103 240 -114 0 -4 -9 -15 -20 -25 -20 -18 -21 -18 -48
2 -15 11 -64 37 -107 58 -70 33 -92 38 -177 42 -93 5 -98 7 -98 28 0 12 3 25
7 29 11 11 139 -2 203 -20z m62 -93 c96 -42 140 -78 132 -108 l-6 -22 -37 23
c-95 59 -215 95 -313 96 -45 0 -48 2 -48 26 l0 26 98 -4 c83 -3 108 -9 174
-37z m1178 15 c0 -21 -7 -25 -62 -36 -86 -17 -159 -45 -218 -86 -56 -38 -65
-41 -74 -18 -4 10 3 23 16 34 38 31 160 88 234 108 95 27 104 27 104 -2z
m-1996 -137 c62 -119 75 -153 65 -160 -8 -5 -17 -9 -21 -9 -14 0 -51 60 -128
209 -42 80 -43 84 -25 97 10 8 21 14 24 14 3 0 41 -68 85 -151z m-880 46 c14
-140 75 -261 223 -441 169 -207 273 -339 273 -346 0 -3 -35 -8 -78 -11 -43 -3
-108 -17 -143 -29 l-64 -24 -38 20 c-29 15 -39 28 -47 60 -14 54 -57 147 -85
182 -15 19 -27 25 -40 20 -16 -6 -17 -15 -12 -76 6 -76 30 -139 71 -185 l26
-30 -41 -37 c-23 -21 -43 -38 -45 -38 -2 0 -4 19 -4 43 0 64 -41 117 -89 117
-14 0 -41 -9 -60 -21 -35 -21 -50 -15 -51 21 0 8 -13 75 -30 148 -16 74 -30
162 -30 198 0 57 5 74 48 156 27 51 75 136 107 188 32 52 65 107 74 122 9 16
19 28 22 28 3 0 9 -29 13 -65z m2473 39 c13 -8 25 -29 29 -51 4 -21 15 -55 25
-75 17 -33 17 -38 3 -52 -8 -9 -32 -20 -53 -26 -33 -9 -46 -7 -95 15 -31 14
-75 26 -96 27 -22 1 -41 7 -44 14 -5 13 65 114 101 146 34 30 85 31 130 2z
m-900 0 c42 -8 112 -34 156 -56 78 -39 79 -40 61 -58 -27 -27 -73 -25 -204 9
-63 17 -126 32 -140 35 -23 5 -25 9 -22 46 4 38 6 40 38 40 19 0 69 -7 111
-16z m462 -33 c25 -27 56 -54 69 -61 13 -6 27 -22 32 -36 5 -13 16 -24 25 -24
8 0 15 -6 15 -12 1 -7 19 -26 41 -41 71 -49 87 -143 35 -204 -22 -26 -23 -26
-92 -13 -79 15 -114 33 -114 58 0 34 48 119 86 151 36 31 34 33 -11 15 -8 -3
-15 -2 -15 4 0 6 12 14 27 19 16 6 23 12 16 16 -6 4 -24 -4 -40 -19 -18 -17
-24 -27 -16 -30 20 -9 -37 -72 -75 -85 -50 -17 -96 -4 -132 37 -27 32 -31 41
-25 74 5 27 2 46 -10 63 -15 23 -14 28 1 66 20 52 47 71 98 71 34 0 45 -6 85
-49z m849 -4 l3 -46 -38 -6 c-96 -15 -181 -46 -284 -102 -4 -2 -9 13 -11 34
-5 43 -3 46 81 95 55 32 189 75 226 73 16 -1 21 -10 23 -48z m-1328 -72 c147
-37 148 -38 142 -75 -3 -24 -8 -30 -21 -24 -73 31 -118 45 -177 54 -93 15 -92
15 -87 44 7 33 18 33 143 1z m1340 -20 c0 -20 -5 -25 -26 -25 -43 0 -145 -30
-209 -61 -55 -28 -60 -29 -72 -13 -7 9 -10 21 -7 26 18 29 205 97 272 98 38 0
42 -2 42 -25z m-1050 -58 c4 -45 11 -63 33 -86 36 -39 86 -55 130 -43 l35 10
-5 -38 c-6 -43 19 -75 68 -85 15 -4 33 -12 39 -20 11 -13 4 -61 -10 -70 -7 -4
-129 37 -152 51 -4 3 -2 14 5 25 10 17 9 23 -8 38 -11 9 -25 26 -31 36 -16 28
-58 26 -62 -2 -2 -16 4 -26 21 -34 14 -6 27 -19 30 -28 4 -15 -7 -13 -69 13
-41 16 -74 34 -74 38 0 4 16 8 36 8 48 0 35 16 -21 24 -54 9 -75 27 -75 67 0
17 -6 42 -14 58 -21 39 -2 75 42 79 17 2 32 8 32 13 0 6 10 9 23 7 19 -3 23
-10 27 -61z m-305 11 c28 -6 77 -23 111 -37 l61 -26 -121 0 c-67 0 -137 -3
-156 -8 -46 -10 -64 2 -51 34 5 13 12 31 15 41 5 18 45 17 141 -4z m1369 -19
c13 -66 14 -64 -80 -60 -75 3 -176 -9 -220 -26 -8 -3 -14 0 -14 6 0 27 198
102 291 110 11 1 19 -10 23 -30z m-529 -8 c76 -40 88 -92 32 -135 -40 -31 -50
-32 -88 -9 -19 11 -29 25 -29 41 0 29 -21 71 -49 96 -12 11 -21 24 -21 29 0
16 112 0 155 -22z m179 -17 c20 -20 30 -57 21 -83 -3 -12 -26 -40 -51 -63 -24
-23 -44 -46 -44 -52 0 -5 15 4 33 21 40 38 69 48 99 32 37 -20 44 -32 45 -79
1 -25 2 -53 3 -63 1 -24 -28 -46 -61 -47 -20 0 -178 75 -197 95 -3 2 1 12 8
20 11 13 11 19 -2 32 -14 14 -18 13 -37 -6 -12 -12 -26 -21 -32 -21 -6 0 -19
-5 -30 -10 -15 -9 -17 -15 -9 -30 6 -11 19 -20 29 -20 12 0 18 -7 17 -17 -1
-21 25 -24 32 -4 3 8 0 11 -7 7 -6 -4 -11 -2 -11 3 0 14 27 14 35 1 4 -6 18
-9 33 -8 22 3 27 -2 35 -32 11 -40 13 -97 5 -106 -3 -3 -33 8 -66 25 -32 16
-100 42 -151 57 -50 15 -90 32 -88 38 3 10 53 48 80 60 9 5 9 7 -1 12 -9 4 -5
14 13 36 14 16 28 40 31 54 l6 24 28 -20 c36 -26 46 -25 91 6 42 29 57 70 39
104 -14 26 -10 31 31 36 18 2 35 6 37 9 9 9 20 5 36 -11z m-1289 -10 c22 -8
51 -19 65 -24 14 -5 79 -29 145 -55 66 -26 156 -60 199 -77 44 -16 103 -40
131 -53 28 -14 103 -43 166 -66 117 -42 141 -50 289 -93 47 -14 123 -45 170
-68 69 -35 94 -54 133 -103 80 -99 210 -338 277 -507 18 -46 67 -157 110 -248
85 -180 157 -344 227 -515 25 -60 53 -128 63 -150 29 -64 76 -214 91 -290 7
-38 15 -62 17 -52 9 41 -42 248 -93 377 -52 135 -155 437 -155 459 0 6 15 11
34 11 19 0 45 9 60 21 l26 20 0 -33 c0 -52 12 -63 51 -49 26 9 35 8 49 -4 21
-19 47 -19 80 0 27 15 60 20 60 8 0 -5 -11 -21 -25 -37 -14 -16 -25 -35 -25
-42 0 -17 136 -151 184 -181 37 -24 38 -26 33 -68 -35 -251 -237 -764 -393
-995 -72 -107 -97 -131 -140 -137 -32 -4 -44 0 -69 21 -16 15 -59 46 -95 70
-79 52 -181 160 -214 224 -55 110 -150 364 -185 499 -33 125 -82 521 -121 983
-6 69 -13 144 -16 166 -6 41 -6 42 27 50 24 6 -16 10 -141 15 -300 10 -497 74
-684 221 -110 86 -203 88 -431 8 -73 -25 -102 -31 -152 -28 -93 6 -95 18 -11
62 40 20 105 55 143 77 86 48 112 56 249 74 183 25 141 33 -76 15 -65 -5 -153
-19 -195 -30 -85 -21 -221 -40 -293 -40 -36 0 -52 5 -69 24 l-23 24 28 15 c16
8 54 20 84 27 30 7 78 21 105 30 195 69 243 80 395 88 132 8 174 14 159 25 -9
7 -309 -12 -369 -23 -36 -6 -133 -36 -216 -67 -141 -51 -154 -54 -193 -43 -79
21 -58 37 160 120 70 27 153 60 184 75 84 38 126 44 293 45 94 0 152 4 152 10
0 6 -7 10 -17 10 -9 0 -43 13 -77 29 -151 70 -263 83 -425 48 -83 -18 -148
-10 -191 23 -24 19 -24 20 -4 20 12 0 39 7 60 16 54 23 293 83 329 83 17 0 48
-7 70 -15z m1596 -185 c27 -12 49 -25 49 -30 0 -12 -93 -37 -165 -45 -57 -6
-61 -5 -71 17 -5 13 -8 36 -6 52 3 27 4 27 73 27 49 0 85 -6 120 -21z m-347
-120 c23 -11 99 -101 160 -192 31 -46 146 -261 146 -273 0 -5 -13 -17 -29 -27
l-28 -17 -31 49 c-16 27 -33 60 -37 73 -16 51 -109 221 -156 284 -53 70 -75
114 -59 114 5 0 20 -5 34 -11z m292 -31 c74 -78 113 -134 160 -227 25 -51 44
-94 42 -95 -7 -7 -47 -26 -52 -26 -3 0 -6 5 -6 11 0 16 -61 103 -170 245 l-91
119 28 6 c15 4 33 7 38 8 6 0 29 -18 51 -41z m-44 -91 c97 -124 178 -243 178
-262 0 -12 -47 -42 -53 -34 -2 2 -25 42 -52 89 -26 47 -81 134 -123 194 -57
84 -71 110 -61 117 8 5 16 9 19 9 3 -1 44 -51 92 -113z m-111 51 c54 -75 135
-201 169 -263 18 -33 38 -68 44 -78 9 -15 7 -21 -8 -32 -18 -14 -23 -8 -79 98
-69 130 -134 231 -177 272 -37 35 -38 45 -5 45 18 0 34 -12 56 -42z m-2596
-81 c44 -79 73 -186 54 -198 -41 -25 -119 131 -119 237 0 43 30 24 65 -39z
m-106 -166 c25 -25 34 -86 22 -141 -12 -54 -9 -59 14 -23 37 56 137 133 174
133 27 0 44 -25 43 -63 0 -18 6 -42 14 -55 13 -20 13 -26 -1 -56 -18 -38 -79
-76 -124 -76 -17 0 -31 -4 -31 -10 0 -5 12 -10 28 -10 35 0 131 -45 138 -64 3
-8 -1 -25 -10 -38 -9 -12 -16 -30 -16 -40 0 -27 -44 -51 -79 -43 -53 11 -142
147 -122 183 13 22 -5 52 -30 52 -11 0 -22 -7 -25 -15 -4 -9 -14 -13 -23 -11
-28 9 -44 -9 -37 -39 9 -35 -23 -83 -78 -119 -50 -33 -86 -33 -120 -1 -26 24
-27 28 -21 93 5 49 12 72 27 85 30 25 67 32 102 17 42 -17 100 -25 93 -13 -4
6 -24 13 -45 16 -24 4 -48 18 -69 39 -42 45 -53 69 -53 117 0 44 21 64 56 55
11 -3 34 6 54 20 42 30 93 33 119 7z m625 -111 c13 -19 49 -75 81 -124 l58
-90 -15 -40 c-8 -23 -21 -41 -29 -41 -8 0 -19 -3 -24 -7 -6 -4 -26 -3 -45 1
l-34 7 -12 84 c-7 47 -22 127 -33 177 -12 51 -21 107 -21 125 l0 33 26 -45
c14 -25 36 -61 48 -80z m3463 90 c18 -11 35 -31 39 -46 9 -35 -2 -129 -21
-183 -8 -24 -14 -45 -13 -47 2 -1 29 18 61 42 32 24 68 44 78 44 27 0 89 -51
89 -72 0 -10 9 -22 20 -28 40 -21 20 -120 -29 -138 -56 -22 -98 -22 -118 0
-17 19 -84 58 -99 58 -4 0 11 -12 32 -26 63 -42 104 -86 125 -134 25 -56 22
-101 -8 -116 -13 -6 -31 -18 -41 -27 -10 -10 -23 -17 -28 -17 -10 0 -95 103
-113 137 -6 12 -11 38 -11 57 0 20 -5 36 -11 36 -8 0 -10 -17 -6 -54 5 -46 1
-64 -23 -115 -34 -71 -66 -88 -104 -52 -12 11 -27 21 -34 21 -16 0 -52 41 -52
58 0 31 46 105 93 149 26 25 46 47 44 49 -2 2 -24 -11 -49 -30 -25 -19 -57
-38 -72 -42 -37 -9 -111 21 -136 56 -26 36 -26 97 0 130 11 14 20 32 20 41 0
46 75 52 150 13 27 -14 54 -32 61 -40 6 -8 16 -14 22 -14 5 0 3 8 -5 18 -20
22 -46 84 -58 139 -13 56 0 87 44 108 20 10 36 21 36 25 0 24 79 24 117 0z
m372 -28 c9 -16 3 -21 -47 -37 -69 -21 -204 -88 -251 -123 l-34 -25 7 29 c10
44 95 109 193 150 71 29 119 31 132 6z m-2913 -267 c69 -148 122 -275 120
-282 -11 -28 -37 -11 -65 45 -16 31 -68 143 -116 247 -47 105 -93 203 -101
219 -8 16 -14 30 -14 32 0 4 34 12 43 10 5 -1 65 -123 133 -271z m14 265 c19
-6 59 -32 88 -58 l53 -48 -24 -84 c-16 -53 -22 -91 -17 -101 5 -8 28 -29 52
-45 24 -16 45 -31 48 -34 7 -8 142 -90 211 -128 33 -19 71 -32 90 -32 34 0 35
1 53 65 10 36 31 92 47 125 l28 60 54 0 c30 0 81 3 114 6 57 6 60 5 66 -17 5
-23 12 -112 37 -524 15 -239 48 -517 80 -675 l28 -135 -54 -70 c-29 -38 -82
-99 -117 -134 -56 -55 -69 -63 -91 -57 -28 7 -36 25 -10 22 9 0 21 7 28 17 15
23 -4 52 -35 52 -21 0 -24 -4 -23 -38 1 -36 0 -37 -20 -24 -11 8 -52 31 -91
52 -102 56 -176 99 -305 180 -63 40 -146 91 -185 113 -38 23 -76 46 -84 51
-11 7 -8 23 18 89 69 180 103 339 116 547 5 77 3 118 -10 175 -9 41 -17 83
-17 93 1 10 -22 66 -50 125 -72 153 -198 432 -198 437 0 9 85 5 120 -5z
m-1847 -48 c29 -13 47 -27 47 -38 0 -12 -6 -15 -22 -10 -75 21 -181 29 -234
17 -30 -7 -57 -11 -59 -9 -2 1 -5 14 -7 28 -2 20 2 26 27 32 57 13 198 2 248
-20z m4767 -2 c10 -18 6 -22 -35 -40 -26 -11 -49 -20 -52 -20 -10 0 -94 -53
-90 -57 2 -2 35 12 73 31 87 44 118 49 122 20 3 -18 -4 -23 -34 -29 -21 -3
-60 -18 -86 -31 -51 -26 -62 -24 -91 13 -23 28 -36 29 -90 3 -29 -15 -36 -16
-22 -5 41 34 248 130 287 134 4 1 12 -8 18 -19z m-3128 -145 c132 -155 276
-355 254 -355 -4 0 -232 270 -284 336 -18 24 -32 54 -32 69 l0 28 22 -29 c13
-16 31 -38 40 -49z m65 -155 c65 -80 132 -162 147 -182 l28 -38 -35 -82 c-94
-223 -147 -451 -147 -635 0 -57 -3 -103 -6 -103 -3 0 -32 19 -64 43 -31 23
-83 60 -114 82 l-56 40 0 100 c0 55 -7 154 -15 220 -15 118 -15 120 10 220 55
221 73 280 87 276 28 -8 41 -5 51 10 16 25 1 49 -29 49 -20 0 -25 4 -20 16 4
9 12 45 18 80 7 35 15 60 19 56 3 -4 60 -72 126 -152z m-899 138 c44 -10 51
-15 54 -40 4 -25 2 -27 -16 -22 -78 25 -221 33 -284 15 -32 -10 -82 2 -82 19
0 4 35 13 78 19 42 7 84 14 92 16 36 7 112 4 158 -7z m-820 -80 l-3 -32 -95
-17 c-52 -10 -100 -18 -105 -18 -7 -1 -9 13 -7 33 4 30 8 35 45 45 65 16 79
19 125 20 43 1 43 1 40 -31z m355 -46 c41 -103 36 -131 -25 -146 -16 -3 -28
-11 -28 -16 0 -17 -46 -11 -62 8 -27 30 -29 57 -9 123 20 62 49 98 81 99 9 0
26 -27 43 -68z m4487 -30 c0 -17 -56 -62 -103 -82 -27 -12 -72 -24 -100 -27
-45 -4 -56 -1 -79 20 -34 30 -35 36 -3 29 14 -2 48 5 77 18 28 12 81 28 117
35 82 16 91 17 91 7z m-4210 -203 c46 -137 92 -243 109 -254 17 -10 -5 -35
-31 -35 -28 0 -92 143 -129 287 -26 107 -28 122 -17 162 l13 43 7 -41 c4 -22
25 -95 48 -162z m-427 155 c-3 -20 -34 -82 -69 -138 -35 -55 -76 -131 -91
-168 -16 -38 -32 -68 -36 -68 -27 0 -9 85 40 183 37 74 134 211 160 226 1 1
-1 -15 -4 -35z m-168 6 c17 -19 17 -20 -1 -26 -11 -4 -68 -28 -128 -55 -60
-27 -111 -47 -113 -45 -3 2 -7 22 -10 43 l-5 39 88 27 c144 42 146 43 169 17z
m625 -97 c118 -246 124 -261 111 -289 -6 -14 -15 -23 -19 -20 -19 11 -73 138
-116 271 -53 160 -49 145 -37 145 6 0 33 -48 61 -107z m-194 -113 c14 -95 34
-199 45 -229 13 -39 16 -58 8 -66 -13 -13 -26 9 -61 105 -42 119 -62 235 -59
360 1 44 1 44 21 25 16 -16 25 -56 46 -195z m508 173 c-16 -24 -40 -69 -101
-187 l-15 -29 -38 69 c-46 84 -46 125 1 145 16 6 32 9 35 6 3 -3 17 -1 31 4
24 9 24 8 18 -23 -15 -74 -15 -84 -1 -48 8 19 15 46 15 59 1 14 6 21 14 18 6
-2 21 -1 32 4 11 4 22 8 24 8 2 1 -5 -11 -15 -26z m3068 5 c23 -12 56 -22 74
-22 18 0 30 -5 28 -10 -3 -7 -48 -10 -128 -8 -116 3 -189 -6 -258 -33 -14 -6
-18 -2 -18 19 0 43 80 73 197 75 46 1 73 -5 105 -21z m-3912 -4 c0 -3 -11 -20
-24 -37 -51 -68 -126 -228 -126 -269 0 -10 -2 -18 -5 -18 -10 0 -75 34 -75 39
0 40 80 180 135 237 29 31 95 65 95 48z m383 -121 c15 -105 52 -267 72 -315 4
-11 3 -18 -3 -18 -6 0 -16 -2 -24 -5 -25 -10 -58 115 -83 308 -19 148 -19 147
3 147 16 0 21 -16 35 -117z m50 3 c26 -104 84 -264 108 -292 7 -8 0 -15 -22
-23 -18 -6 -35 -11 -40 -11 -18 0 -83 265 -92 378 -8 102 15 76 46 -52z m-346
73 c8 -8 2 -26 -24 -67 -45 -69 -100 -189 -109 -236 -7 -40 -10 -42 -38 -21
-19 15 -19 16 3 72 24 61 140 263 151 263 3 0 11 -5 17 -11z m3325 -58 c-46
-58 -59 -88 -44 -103 8 -8 34 11 87 61 49 45 85 71 100 71 21 0 23 -6 30 -65
8 -81 23 -93 130 -108 41 -6 75 -14 75 -18 0 -4 -18 -25 -41 -47 -42 -42 -81
-53 -174 -53 -22 1 -57 1 -77 1 -37 0 -38 1 -38 40 0 32 -4 40 -19 40 -10 0
-24 -7 -31 -15 -7 -9 -29 -15 -51 -15 -21 0 -41 -5 -45 -11 -7 -12 -34 42 -34
70 0 9 19 58 42 108 37 83 44 92 64 87 12 -3 31 -1 41 4 30 17 26 6 -15 -47z
m-3206 27 c-24 -36 -76 -185 -97 -278 -33 -140 -29 -135 -77 -95 -26 22 -29
29 -22 58 37 154 144 337 197 337 11 0 10 -5 -1 -22z m4338 -141 c65 -119 97
-202 83 -216 -19 -19 -34 -12 -47 22 -8 17 -40 94 -72 170 -62 147 -77 207
-34 145 13 -19 44 -73 70 -121z m-2741 87 c3 -4 -9 -36 -27 -73 -59 -119 -101
-256 -137 -449 -21 -116 -24 -205 -9 -297 5 -33 12 -80 15 -105 4 -25 18 -101
33 -170 24 -113 27 -145 27 -340 0 -144 -4 -233 -13 -270 -17 -70 -92 -279
-102 -285 -28 -17 -59 47 -80 164 -27 147 1 420 61 595 53 153 54 154 72 45
41 -238 31 -430 -35 -647 -21 -73 -37 -138 -35 -145 2 -7 16 26 30 73 62 199
69 240 74 401 6 163 1 216 -42 454 -53 291 -52 448 4 665 34 135 67 229 111
323 31 64 39 74 53 61z m-1550 -114 c9 -30 26 -83 40 -117 14 -34 22 -64 19
-67 -11 -11 -53 -6 -84 10 -25 13 -36 14 -50 5 -24 -15 -48 -14 -48 1 0 7 21
73 47 148 42 119 48 131 54 105 4 -17 14 -55 22 -85z m1606 56 c44 -176 -28
-583 -146 -823 -61 -126 -77 -73 -17 59 36 81 91 287 119 445 9 49 15 147 15
230 0 146 8 171 29 89z m2133 21 c14 -22 9 -25 -79 -41 -103 -19 -174 -19
-223 -2 -32 12 -33 14 -15 23 20 10 100 29 160 37 51 7 148 -3 157 -17z
m-2182 -282 c-29 -205 -120 -525 -150 -525 -14 0 -20 42 -20 147 0 173 60 431
138 593 l37 75 3 -105 c2 -58 -2 -141 -8 -185z m2540 195 c0 -3 11 -57 25
-120 14 -63 28 -125 30 -136 3 -16 -1 -23 -16 -27 -25 -7 -29 3 -64 154 -38
165 -42 182 -50 204 -4 11 11 0 34 -25 22 -24 41 -47 41 -50z m-166 18 c-16
-149 -69 -277 -160 -390 -30 -38 -57 -68 -59 -68 -3 0 -18 8 -35 18 l-30 19
70 78 c73 83 182 276 195 349 10 50 24 45 19 -6z m-121 26 c13 -13 -112 -171
-233 -296 l-55 -57 -23 23 -23 23 99 104 c55 57 112 119 128 138 25 30 79 71
95 71 3 0 8 -3 12 -6z m37 -141 c-52 -110 -96 -175 -169 -251 -35 -37 -44 -41
-61 -32 -11 6 -20 13 -20 17 0 3 19 29 43 57 24 28 78 101 122 161 122 171
129 179 133 167 2 -7 -19 -60 -48 -119z m0 106 c0 -15 -169 -252 -224 -314
-38 -43 -46 -48 -60 -36 -22 19 -20 34 10 62 34 31 205 236 227 272 17 27 47
37 47 16z m-2795 -403 c5 -102 4 -131 -7 -137 -16 -11 -78 -12 -78 -1 0 4 13
79 30 167 16 88 30 165 31 170 4 29 17 -86 24 -199z m165 -242 c98 -70 120
-90 120 -111 0 -28 2 -28 -64 12 -146 90 -181 119 -184 153 -2 17 -1 32 2 32
4 0 60 -39 126 -86z m-150 42 c0 -23 60 -69 199 -153 36 -22 35 -24 -24 -43
-22 -7 -66 -26 -97 -41 -32 -16 -60 -29 -63 -29 -6 0 32 34 70 63 6 4 21 16
34 27 13 11 28 20 33 20 4 0 8 5 8 11 0 19 -63 -26 -139 -99 -42 -41 -101 -91
-131 -112 -61 -42 -103 -83 -63 -62 12 7 24 16 28 21 21 35 263 171 345 195
47 14 56 14 68 2 22 -22 8 -58 -43 -113 -43 -45 -136 -177 -165 -233 -21 -41
3 -11 68 85 62 90 112 155 112 144 0 -3 -16 -53 -36 -110 -59 -173 -85 -328
-85 -509 1 -157 18 -286 47 -341 9 -18 11 -44 7 -76 -4 -41 -11 -53 -33 -66
-57 -34 -159 -150 -196 -224 -31 -61 -38 -86 -42 -151 -5 -91 15 -175 55 -235
33 -47 40 -42 14 9 -67 129 -59 259 26 409 32 57 49 69 28 18 -17 -40 -45
-163 -44 -191 0 -9 13 30 28 88 32 124 65 192 116 240 21 19 36 31 33 25 -2
-5 -18 -40 -36 -77 -37 -79 -82 -209 -81 -235 0 -10 13 21 29 70 29 91 109
267 122 267 4 0 -4 -24 -17 -54 -31 -69 -68 -192 -115 -376 -41 -162 -53 -223
-41 -215 5 2 12 25 16 50 18 121 127 495 162 555 l14 25 -5 -25 c-2 -14 -7
-56 -11 -95 -12 -124 -54 -351 -77 -411 -19 -49 -46 -89 -55 -80 -2 1 6 26 17
55 35 90 82 288 61 251 -5 -8 -14 -41 -21 -73 -15 -74 -65 -223 -85 -254 -20
-30 -12 -29 38 6 169 116 224 288 173 535 -25 119 -25 120 -5 144 10 14 19 33
19 43 0 10 4 21 10 24 21 13 81 172 116 305 25 98 26 433 1 555 -10 50 -23
105 -29 124 -10 32 3 81 22 81 6 0 190 -108 279 -165 l45 -28 -58 -54 c-33
-29 -56 -57 -52 -61 4 -4 18 5 31 20 13 15 39 41 59 59 35 30 37 31 61 15 l25
-17 -47 -36 c-27 -19 -87 -74 -135 -121 -49 -48 -88 -82 -88 -76 0 5 14 32 31
58 16 27 28 50 26 53 -7 6 -67 -92 -67 -109 0 -34 17 -23 101 61 72 74 165
151 181 151 2 0 1 -33 -4 -74 -7 -69 -56 -224 -92 -295 -9 -17 -14 -31 -11
-31 10 0 64 118 88 195 13 44 28 108 32 143 4 34 8 62 10 62 15 0 35 -15 35
-25 0 -7 -9 -41 -20 -75 -11 -35 -19 -65 -17 -67 5 -4 47 109 47 126 0 19 16
13 107 -41 49 -29 115 -64 148 -77 33 -13 64 -27 68 -31 8 -7 -35 -185 -53
-218 -4 -10 -34 -69 -65 -132 -82 -165 -253 -445 -344 -565 -77 -101 -230
-262 -296 -311 -174 -131 -447 -281 -635 -348 -138 -49 -311 -93 -440 -111
-240 -34 -597 -40 -815 -14 -108 13 -374 75 -430 100 l-40 18 58 0 c52 1 57 3
49 19 -5 9 -20 46 -32 82 -12 36 -44 108 -71 160 -55 108 -101 220 -91 220
111 7 231 -1 285 -19 34 -12 116 -29 182 -39 l120 -19 -80 -9 c-44 -5 -159 -9
-255 -9 -96 0 -161 -3 -145 -6 17 -4 98 -7 182 -8 192 -1 331 21 548 90 88 28
176 55 195 61 19 6 69 28 110 48 41 20 111 49 155 64 74 24 141 56 90 42 -56
-15 -169 -58 -245 -94 -47 -22 -96 -43 -110 -47 -14 -3 -95 -30 -180 -58 -150
-49 -159 -51 -260 -50 -102 1 -263 28 -325 53 l-30 13 31 8 c55 15 64 36 71
151 l6 104 126 76 c123 74 243 130 309 143 49 10 42 -19 -13 -51 -55 -32 -59
-42 -7 -15 81 41 89 89 14 78 -45 -5 -247 -101 -354 -166 -37 -23 -70 -41 -74
-41 -9 0 4 279 15 337 6 29 5 46 -3 51 -24 19 -116 35 -231 39 -102 4 -129 2
-177 -14 -32 -11 -58 -17 -58 -13 0 13 60 90 103 132 23 22 78 68 122 101 98
74 102 77 88 77 -6 0 -43 -25 -82 -55 -75 -58 -96 -69 -65 -33 l19 21 -33 -19
c-53 -30 -129 -102 -186 -173 -62 -78 -70 -91 -58 -91 5 0 26 25 47 56 40 58
170 184 189 184 6 -1 -10 -20 -36 -43 -25 -23 -67 -71 -93 -107 -25 -36 -60
-76 -76 -89 -27 -21 -32 -22 -47 -8 -28 24 -62 30 -107 17 -36 -10 -46 -10
-68 4 -19 13 -30 14 -51 6 -38 -14 -44 -13 -51 9 -4 15 10 40 54 94 232 286
796 643 1229 779 35 10 66 18 68 16 2 -2 5 -85 7 -184 4 -183 13 -247 48 -344
46 -127 116 -216 250 -323 l46 -37 49 21 c27 12 59 29 70 38 12 9 32 23 44 31
30 20 125 99 176 147 123 115 296 475 358 745 29 125 29 125 99 127 33 1 37
-2 37 -23z m476 -214 c103 -58 194 -112 242 -144 53 -37 339 -200 410 -235
l53 -26 67 66 c37 37 90 96 117 131 28 36 53 65 56 66 4 0 10 -7 13 -17 9 -23
-33 -82 -138 -190 -70 -73 -95 -93 -117 -93 -31 0 -128 42 -209 90 -30 18
-111 65 -180 105 -108 62 -388 232 -398 240 -4 4 8 45 12 45 2 0 34 -17 72
-38z m-179 -131 c-3 -9 -24 -68 -46 -131 -24 -64 -51 -166 -62 -230 -32 -189
-25 -428 16 -527 11 -27 11 -34 0 -43 -48 -40 -92 296 -66 509 19 155 70 340
133 481 l11 25 9 -34 c5 -19 7 -41 5 -50z m-3104 -477 c51 -27 139 -107 178
-164 13 -19 29 -41 36 -49 8 -7 23 -32 35 -54 17 -35 19 -46 9 -72 -6 -17 -11
-57 -11 -88 0 -31 -2 -57 -5 -57 -2 0 -19 9 -37 20 -18 11 -41 20 -50 20 -15
0 -18 9 -18 55 0 43 -5 58 -22 75 -28 26 -70 26 -93 0 -10 -11 -27 -20 -37
-20 -28 0 -76 -27 -88 -49 -5 -11 -10 -40 -10 -65 0 -49 -3 -52 -47 -35 -38
14 -86 3 -116 -27 l-26 -26 -36 28 c-65 50 -66 44 47 272 57 114 110 226 120
249 l16 42 54 -15 c29 -9 75 -27 101 -40z m1065 -271 c43 -5 52 -9 47 -22 -35
-86 -47 -173 -47 -321 1 -85 3 -179 5 -207 3 -29 3 -53 1 -53 -2 0 -29 18 -60
40 -67 47 -99 57 -211 66 -81 7 -81 7 -72 31 12 32 12 80 -1 88 -5 3 -10 27
-10 52 0 61 -20 83 -74 83 -23 0 -56 -4 -74 -9 -17 -5 -32 -8 -32 -7 0 2 7 21
16 41 9 21 16 63 16 92 1 53 1 54 42 75 86 45 145 57 276 57 69 1 149 -2 178
-6z m-683 -30 c10 -13 17 -14 45 -5 18 7 45 12 61 12 29 0 63 -25 54 -40 -3
-5 -1 -11 5 -15 15 -9 12 -76 -7 -131 -11 -35 -34 -66 -76 -108 -62 -61 -44
-60 24 1 38 34 109 63 156 63 35 0 64 -34 57 -68 -4 -18 1 -42 11 -62 20 -38
14 -67 -21 -109 -33 -39 -82 -41 -148 -6 -26 14 -49 25 -52 25 -3 0 12 -17 32
-37 54 -55 74 -93 74 -139 0 -63 -17 -78 -80 -71 -65 8 -84 25 -106 91 -10 28
-23 65 -31 81 l-14 30 6 -30 c11 -62 -45 -165 -107 -199 -45 -25 -98 -11 -117
30 -7 16 -23 39 -34 51 -13 15 -17 30 -14 45 10 37 63 94 109 117 50 25 41 27
-28 6 -65 -20 -93 -19 -131 5 -71 43 -81 117 -28 200 19 30 35 59 35 64 0 5 7
18 17 28 43 48 160 -3 201 -89 27 -57 50 -89 57 -81 3 3 -7 25 -23 49 -38 58
-52 101 -52 162 0 57 32 133 58 140 35 9 55 6 67 -10z m-275 -25 c14 -16 20
-34 18 -60 -2 -32 -8 -42 -35 -58 -19 -11 -40 -35 -48 -52 -7 -18 -25 -48 -39
-67 -14 -19 -26 -49 -26 -65 -1 -26 -13 -41 -71 -88 -55 -46 -77 -58 -105 -58
-49 0 -95 22 -127 60 -32 38 -29 60 14 106 16 17 32 41 34 55 10 52 64 71 131
47 25 -9 37 -22 49 -54 9 -23 23 -48 31 -54 20 -17 18 -3 -6 35 -11 18 -23 59
-26 92 -9 80 11 116 72 133 24 7 51 21 60 31 23 25 49 24 74 -3z m-135 -408
c11 -1 35 -14 53 -29 30 -26 33 -32 27 -67 -4 -22 -21 -67 -37 -102 -22 -48
-38 -67 -64 -79 -31 -15 -35 -15 -54 2 -12 11 -20 31 -20 50 0 21 -9 40 -25
55 -30 28 -31 54 -5 98 28 45 83 93 95 81 5 -5 18 -9 30 -9z m-145 -76 c-16
-42 -12 -74 15 -106 14 -16 25 -41 25 -55 0 -15 7 -35 17 -45 37 -42 102 -8
141 74 15 31 29 57 32 57 3 0 14 -15 26 -33 l21 -33 -46 -60 c-25 -34 -64 -83
-86 -109 -22 -27 -44 -55 -50 -61 -43 -53 -191 -222 -195 -222 -7 0 -99 167
-153 279 -26 52 -57 108 -69 123 l-23 28 35 31 c19 17 75 59 124 94 83 59 94
64 143 64 52 0 52 0 43 -26z m1042 17 c40 -7 75 -22 118 -51 85 -58 82 -64
-43 -76 -57 -5 -103 -1 -194 15 -65 13 -124 25 -129 29 -10 7 -54 67 -54 74 0
1 22 1 49 0 27 -2 58 1 68 7 23 13 110 14 185 2z m-175 -143 c42 -33 258 -467
241 -484 -2 -1 -37 4 -78 11 -41 8 -100 14 -131 14 -64 1 -191 -30 -268 -65
-30 -13 -56 -22 -59 -19 -18 18 -5 476 15 508 2 4 12 -1 21 -12 12 -13 35 -21
73 -24 69 -6 95 8 105 58 6 32 8 34 38 28 17 -3 36 -10 43 -15z"/>
<path d="M5155 9527 c-80 -34 -155 -70 -152 -73 1 -2 34 8 72 22 102 37 185
32 288 -19 122 -60 199 -150 237 -276 12 -39 24 -70 27 -67 8 7 -37 139 -62
182 -63 108 -215 203 -339 214 -68 6 -69 7 -32 14 146 32 343 -69 423 -217 15
-26 28 -45 31 -43 2 3 -8 28 -24 55 -36 68 -116 142 -195 182 -55 28 -76 32
-154 35 -58 3 -101 -1 -120 -9z"/>
<path d="M3897 9555 c-8 -19 8 -61 25 -68 29 -11 -24 -19 -55 -8 -29 10 -29
10 -4 5 19 -3 26 -1 22 6 -9 15 -51 12 -64 -4 -13 -16 4 -26 45 -26 28 0 29
-5 9 -54 -31 -75 14 -159 85 -158 3 0 15 3 27 7 19 5 22 3 16 -12 -3 -11 3 -7
16 10 30 36 48 35 22 -2 -12 -16 -21 -35 -21 -42 0 -6 13 6 29 29 16 22 34 43
40 47 15 9 14 28 -1 22 -7 -2 -24 -8 -38 -12 -20 -6 -23 -5 -12 6 27 29 3 151
-33 165 -24 9 -18 24 10 24 15 0 25 6 25 14 0 21 -14 27 -49 20 -21 -5 -31
-12 -31 -25 0 -38 -19 -18 -22 23 -3 44 -29 65 -41 33z m113 -127 c26 -43 26
-98 -1 -132 -52 -66 -145 8 -119 94 8 24 8 23 9 -7 3 -91 80 -128 111 -53 14
35 -1 95 -29 110 -20 10 -61 2 -61 -12 0 -6 7 -7 16 -4 59 23 92 -70 41 -113
-14 -11 -20 -9 -41 12 -20 20 -25 34 -23 69 4 56 12 68 48 68 22 0 34 -8 49
-32z"/>
<path d="M4495 9370 c-10 -11 -25 -20 -34 -20 -9 0 -32 -12 -50 -28 -26 -22
-34 -37 -38 -75 l-6 -48 -23 22 c-35 32 -45 19 -17 -24 13 -22 27 -36 30 -33
3 3 0 14 -8 23 -13 16 -12 17 4 4 9 -7 17 -19 17 -25 0 -19 81 -44 114 -35 18
5 35 4 43 -2 9 -8 20 -5 42 10 16 12 34 21 40 21 6 0 11 5 11 11 0 11 -25 8
-65 -8 -16 -6 -16 -4 0 21 21 32 17 117 -8 144 -10 11 -14 27 -10 40 7 28 -17
30 -42 2z"/>
<path d="M3474 9445 c-31 -21 -54 -77 -54 -130 0 -38 5 -52 29 -76 38 -38 78
-38 113 -1 36 39 48 65 48 109 0 85 -77 140 -136 98z m76 -12 c73 -43 61 -156
-22 -202 -23 -13 -28 -13 -52 3 -59 38 -60 130 -2 183 42 38 40 38 76 16z"/>
<path d="M3133 8368 c-13 -17 -43 -106 -43 -128 0 -9 -11 -38 -24 -63 -49 -91
-98 -239 -103 -312 -7 -83 21 -200 67 -281 l28 -51 -22 -26 c-22 -26 -23 -26
-52 -8 -54 33 -112 106 -128 162 -17 55 -19 142 -6 194 6 24 8 16 9 -35 2
-116 30 -193 101 -272 60 -69 68 -59 12 15 -62 81 -79 119 -92 203 -9 55 -9
83 2 136 9 40 11 69 5 71 -5 1 10 42 33 91 53 110 45 126 -9 18 -68 -135 -84
-194 -85 -312 -1 -92 2 -110 22 -148 31 -59 95 -126 138 -147 23 -11 34 -22
30 -31 -3 -8 -2 -24 3 -36 8 -22 9 -21 15 10 7 27 12 32 37 32 37 0 37 -9 -3
-47 -57 -54 -115 -78 -188 -78 -146 0 -250 99 -305 290 -27 92 -27 92 -32 77
-7 -20 17 -110 48 -180 34 -76 78 -134 124 -162 40 -25 188 -69 231 -70 38 0
93 18 117 38 24 21 14 27 -15 8 -13 -9 -47 -18 -74 -21 l-49 -5 39 15 c50 19
121 73 138 104 7 13 27 30 43 37 17 7 23 13 14 14 -20 0 -63 46 -55 58 3 6 1
12 -6 14 -7 3 -5 7 6 11 11 4 15 3 10 -4 -4 -7 -3 -10 2 -8 5 2 26 11 47 19
20 8 37 18 37 22 0 13 -53 9 -84 -7 -38 -20 -39 -20 -59 18 -30 55 -57 160
-57 221 0 72 27 224 51 285 l18 46 1 -82 c0 -113 15 -175 63 -263 51 -95 72
-125 122 -173 95 -90 249 -129 381 -96 56 14 58 30 2 17 -69 -16 -176 -5 -239
24 -106 50 -215 189 -265 339 -25 75 -28 98 -28 214 1 108 5 140 22 189 22 59
24 78 5 54z"/>
<path d="M3755 8232 c-10 -31 -20 -96 -23 -143 -7 -145 52 -314 140 -395 52
-48 133 -97 150 -92 6 2 -13 18 -43 35 -75 43 -131 102 -168 178 -59 119 -75
263 -45 396 9 39 14 72 12 75 -3 2 -13 -22 -23 -54z"/>
<path d="M3556 7843 c10 -56 51 -171 74 -211 25 -41 22 -49 -8 -21 -27 25 -72
111 -72 139 0 11 -4 20 -9 20 -12 0 5 -73 28 -118 22 -43 47 -67 79 -77 13 -4
46 -21 73 -37 66 -42 127 -47 213 -18 59 19 134 66 123 76 -2 3 -25 -8 -51
-22 -34 -19 -68 -28 -117 -32 -63 -4 -75 -2 -133 27 -35 17 -80 49 -99 70 -34
37 -68 123 -83 204 -3 20 -10 37 -16 37 -5 0 -6 -16 -2 -37z"/>
<path d="M4085 6636 c-72 -19 -175 -68 -175 -82 0 -16 96 -115 165 -171 91
-74 137 -97 173 -88 67 17 244 242 246 313 1 35 -1 37 -39 44 -22 4 -96 7
-165 7 -98 0 -143 -5 -205 -23z m387 -7 c17 -9 17 -12 3 -47 -35 -83 -133
-207 -203 -256 l-40 -27 -40 20 c-79 40 -242 185 -260 230 -3 9 88 54 138 70
96 30 353 36 402 10z"/>
<path d="M1576 8601 c-12 -13 -19 -42 -22 -83 -3 -35 -6 -79 -8 -98 l-3 -35
66 0 c77 0 77 -1 66 111 -7 77 -23 107 -61 118 -13 4 -27 0 -38 -13z"/>
<path d="M2141 7934 c-30 -38 -44 -100 -38 -166 3 -32 1 -58 -4 -58 -5 0 -9
-4 -9 -10 0 -6 31 -10 74 -10 l74 0 13 38 c18 52 16 160 -5 200 -14 26 -22 32
-51 32 -24 0 -39 -7 -54 -26z"/>
</g>
</svg>
