<?xml version="1.0" standalone="no"?>
<!DOCTYPE svg PUBLIC "-//W3C//DTD SVG 20010904//EN"
 "http://www.w3.org/TR/2001/REC-SVG-20010904/DTD/svg10.dtd">
<svg version="1.0" xmlns="http://www.w3.org/2000/svg"
 width="640.000000pt" height="490.000000pt" viewBox="0 0 640.000000 490.000000"
 preserveAspectRatio="xMidYMid meet">
<metadata>
Created by potrace 1.16, written by Peter Selinger 2001-2019
</metadata>
<g transform="translate(0.000000,490.000000) scale(0.100000,-0.100000)"
fill="#000000" stroke="none">
<path d="M4581 4893 c-1 -7 -13 -13 -28 -13 -43 0 -92 -67 -63 -85 6 -4 8 -15
5 -26 -4 -13 -2 -19 9 -19 9 0 16 -7 16 -15 0 -9 7 -18 15 -21 27 -11 17 -44
-17 -59 -31 -12 -33 -12 -36 6 -2 10 -8 19 -13 19 -16 0 -47 38 -51 62 -2 14
-9 23 -20 22 -10 -1 -20 7 -23 17 -8 24 -17 24 -39 0 -13 -15 -26 -18 -52 -14
-27 4 -34 2 -34 -11 0 -11 -9 -16 -26 -16 -17 0 -28 -6 -31 -20 -3 -11 -13
-20 -22 -21 -12 0 -11 -2 4 -9 32 -14 52 -13 37 2 -7 7 -12 15 -12 19 0 14 32
19 52 8 24 -13 35 -5 19 15 -13 16 -1 29 16 18 7 -4 16 -19 22 -32 10 -25 10
-25 10 6 1 18 10 39 21 49 19 18 20 17 20 -7 0 -34 10 -41 32 -21 17 15 18 15
18 -1 0 -10 -5 -26 -11 -37 -9 -18 -7 -19 15 -13 29 7 30 6 16 -30 -10 -27 -2
-34 17 -15 8 8 14 6 22 -9 10 -19 11 -19 61 6 40 20 48 27 39 38 -9 11 -8 18
1 29 11 13 8 15 -16 15 -28 1 -28 1 -10 15 19 14 18 15 -9 15 -22 0 -26 3 -18
11 9 9 8 18 -4 36 -18 27 -11 42 12 23 9 -7 18 -10 22 -7 3 4 0 13 -7 22 -18
22 -5 30 26 16 33 -14 37 -11 25 20 -5 13 -10 18 -10 12z"/>
<path d="M2932 4776 c54 -16 124 -54 171 -95 18 -15 61 -38 96 -50 105 -38
150 -70 184 -130 17 -30 32 -72 33 -95 1 -22 6 -78 10 -123 6 -75 5 -83 -12
-89 -59 -19 -73 -28 -85 -56 -11 -26 -10 -38 4 -76 16 -45 16 -46 -9 -68 -29
-27 -28 -27 -8 -70 15 -32 15 -36 -5 -70 -13 -21 -19 -44 -16 -55 4 -11 2 -19
-4 -19 -5 0 -13 -20 -17 -45 -7 -51 -37 -95 -63 -95 -9 0 -27 7 -39 16 -21 15
-22 14 -22 -15 0 -34 -19 -41 -44 -16 -19 19 -24 19 -29 -2 -4 -17 -4 -17 -12
0 -5 13 5 32 40 73 47 54 48 55 59 32 16 -32 70 -37 86 -8 6 12 10 33 9 48 -2
15 5 45 15 66 22 47 23 103 3 124 -13 12 -25 13 -66 5 l-51 -10 -10 36 c-5 20
-10 45 -11 56 0 11 -3 14 -6 7 -8 -21 -23 -2 -24 31 -1 30 -1 31 -9 7 -7 -24
-7 -23 -15 13 -4 20 -5 58 -1 85 5 45 5 46 -7 15 -6 -17 -15 -35 -19 -39 -16
-15 -7 107 12 167 10 35 18 65 16 67 -2 2 -22 -6 -45 -17 -48 -25 -55 -26 -47
-6 7 20 9 20 -78 -21 -41 -20 -81 -34 -87 -32 -7 2 3 18 22 38 32 32 33 33 9
27 -181 -51 -231 -50 -221 6 2 16 -1 17 -18 8 -27 -15 -68 -14 -74 2 -4 10 -7
10 -18 0 -7 -7 -21 -13 -31 -13 -14 0 -18 8 -18 32 l0 32 -40 -39 c-33 -32
-40 -36 -40 -20 0 44 24 102 53 133 41 43 10 34 -51 -16 -24 -19 -46 -31 -49
-28 -10 10 23 72 63 116 45 50 155 123 231 155 32 13 51 24 43 25 -50 1 -251
-126 -296 -187 -70 -94 -70 -157 -1 -103 l26 21 -14 -35 c-17 -39 -20 -102 -6
-110 5 -3 8 -20 6 -38 -4 -47 -43 -58 -87 -25 -61 46 -94 57 -165 57 -47 0
-80 -7 -108 -20 -22 -11 -32 -18 -21 -15 118 34 185 31 258 -10 41 -23 68 -58
56 -71 -3 -2 -30 1 -62 7 -46 8 -67 7 -114 -6 -63 -19 -127 -49 -137 -65 -4
-6 22 3 56 21 136 68 305 46 267 -36 -6 -14 -15 -25 -19 -25 -4 0 -30 -21 -58
-46 -28 -25 -51 -40 -51 -32 0 8 5 19 12 26 7 7 8 12 1 12 -5 0 -33 -24 -60
-53 -52 -55 -73 -110 -73 -193 0 -41 -14 -41 -44 0 -17 23 -21 42 -21 113 l0
85 -22 -49 c-12 -26 -23 -69 -25 -96 -2 -26 -8 -48 -13 -49 -6 0 -20 17 -33
38 -19 33 -21 48 -16 97 3 31 4 57 1 57 -3 0 -17 -34 -33 -76 -30 -83 -44 -83
-44 2 0 73 25 146 63 184 23 23 26 29 10 21 -12 -6 -35 -28 -52 -48 -28 -34
-31 -35 -31 -15 0 34 27 81 74 131 37 39 38 42 9 21 -34 -25 -77 -82 -94 -127
-10 -28 -3 -67 11 -58 5 3 6 -28 3 -69 -10 -124 12 -162 47 -83 15 32 20 36
20 19 0 -43 60 -136 76 -119 3 3 9 33 13 66 8 68 21 93 21 40 0 -48 39 -123
66 -127 20 -3 22 3 29 70 8 81 24 124 61 159 l24 22 0 -23 c0 -22 4 -21 48 22
61 60 90 75 107 56 22 -22 21 -71 -2 -103 -11 -17 -23 -41 -27 -55 -6 -22 -5
-21 10 5 9 17 31 48 49 70 25 32 34 56 43 118 7 43 25 111 41 150 l28 72 50 1
c28 1 55 4 62 8 6 4 11 1 11 -8 0 -27 39 -39 104 -33 34 3 72 9 86 13 24 7 24
7 7 -13 -34 -39 19 -46 86 -11 23 12 58 22 77 23 19 1 46 5 59 9 23 8 24 7 17
-25 -23 -108 -22 -199 3 -199 5 0 11 -18 15 -41 4 -23 16 -50 30 -63 14 -12
28 -37 33 -56 13 -48 34 -58 76 -35 30 16 38 17 51 6 20 -17 20 -50 0 -101
-13 -33 -21 -40 -43 -40 -21 0 -42 -16 -90 -70 -60 -68 -113 -103 -201 -136
-19 -7 -27 -13 -17 -13 15 -1 14 -7 -11 -58 -16 -32 -37 -80 -47 -106 -14 -36
-22 -46 -34 -42 -9 4 -29 9 -44 12 -24 5 -27 10 -23 32 3 14 8 45 11 69 5 32
14 46 33 58 l27 15 -25 -5 c-86 -17 -203 -28 -235 -22 -88 17 -220 198 -245
336 l-9 55 4 -58 c4 -66 37 -143 94 -223 39 -55 40 -56 21 -76 -10 -11 -23
-17 -29 -14 -6 4 -18 3 -28 -2 -20 -12 -63 5 -63 25 0 11 -19 18 -42 14 -5 0
-8 2 -8 7 0 4 -14 13 -31 21 -26 11 -32 11 -48 -3 -22 -20 -31 -20 -31 -2 0
21 -20 30 -33 17 -16 -16 -27 -13 -27 7 0 10 -7 27 -15 38 -8 10 -15 28 -15
40 0 11 -6 29 -14 40 -14 18 -15 18 -21 -11 -3 -17 -13 -45 -21 -63 -8 -18
-14 -42 -14 -52 0 -13 -7 -20 -20 -20 -11 0 -20 -4 -20 -10 0 -21 -41 -10 -50
14 -5 13 -22 30 -39 37 -17 8 -31 18 -31 23 0 4 -9 6 -19 3 -12 -3 -22 1 -25
9 -3 8 -15 14 -26 14 -15 0 -20 7 -20 25 0 22 -9 30 -32 26 -5 0 -8 8 -8 19 0
11 -8 23 -17 26 -10 3 -26 10 -36 15 -24 13 -30 7 -52 -46 -11 -25 -26 -45
-33 -45 -8 0 -21 -8 -28 -17 -11 -15 -13 6 -14 137 0 85 -3 186 -7 224 -4 51
-3 67 5 62 7 -4 12 -2 12 3 0 12 -667 13 -1140 1 -157 -4 26 -5 406 -2 l691 5
7 -24 c4 -13 10 -134 13 -269 3 -135 9 -253 14 -262 7 -14 6 -16 -6 -12 -10 4
-15 0 -15 -15 0 -12 -6 -21 -15 -21 -8 0 -15 -4 -15 -10 0 -5 -6 -10 -14 -10
-8 0 -16 -6 -19 -12 -2 -7 -7 104 -12 247 l-7 260 -207 -2 c-113 -2 -309 -7
-436 -13 -126 -5 -311 -11 -410 -11 -99 -1 -223 -5 -275 -9 -68 -6 -32 -7 130
-5 172 3 213 1 173 -6 l-53 -11 2 -41 1 -42 4 36 c5 48 11 49 284 49 l219 0 0
-89 c0 -99 -11 -121 -58 -121 -15 0 -116 -5 -225 -11 -109 -7 -200 -9 -204 -6
-3 4 -9 32 -13 64 l-7 58 -2 -63 c-1 -48 3 -64 14 -68 20 -8 488 16 496 24 4
4 9 54 10 112 l4 105 -165 5 c-104 4 -137 7 -90 9 41 2 91 5 110 6 19 2 181 5
360 7 l325 3 3 -264 c1 -170 -1 -268 -8 -275 -7 -7 -10 -1 -10 16 0 15 -4 30
-10 33 -6 4 -10 -13 -10 -43 l0 -50 -42 -6 c-24 -3 -126 1 -228 9 -101 8 -190
15 -196 15 -9 0 -12 39 -13 134 l-2 133 78 5 c43 3 152 5 243 4 l165 -1 6 -90
5 -90 2 98 c2 72 -1 97 -10 97 -81 3 -388 -2 -436 -7 l-63 -6 3 -146 3 -146
100 -7 c55 -4 170 -9 254 -11 111 -3 156 -7 159 -16 3 -9 -19 -12 -92 -9 -53
2 -96 0 -96 -4 0 -5 31 -8 69 -8 75 0 101 -6 101 -23 0 -6 7 -18 15 -27 14
-16 13 -18 -15 -30 -32 -13 -41 -45 -18 -68 9 -9 7 -16 -7 -32 -19 -22 -16
-30 20 -44 6 -2 5 -9 -2 -17 -22 -23 -14 -38 22 -45 44 -8 38 -19 -15 -28 -22
-3 -43 -13 -46 -21 -5 -13 -39 -15 -205 -15 l-199 0 -1 -37 c-1 -81 -19 -550
-21 -578 l-3 -30 115 -2 c73 -1 106 1 90 7 -14 4 -64 8 -112 9 -81 1 -110 11
-74 24 24 9 460 21 491 13 43 -11 17 -25 -55 -29 -64 -4 -64 -4 9 -3 l74 1 1
87 c2 105 19 135 34 61 6 -27 14 -102 18 -166 l7 -117 -99 -2 -99 -2 95 -6
c52 -3 88 -7 80 -8 -11 -2 -11 -5 -2 -14 20 -20 14 -27 -30 -31 l-43 -4 43 -1
c34 -2 42 -6 42 -21 0 -51 0 -51 -187 -51 -108 0 -172 -4 -168 -10 3 -5 70 -8
163 -6 86 2 181 0 210 -4 55 -7 73 3 22 14 -26 5 -30 10 -30 39 0 19 3 56 6
82 l7 47 36 -7 c20 -4 56 -6 80 -6 l44 0 -6 -109 c-6 -119 -5 -120 54 -120
l29 0 0 109 c0 124 -2 122 85 117 28 -2 74 -4 104 -5 l53 -1 -7 -82 c-12 -144
-15 -133 26 -136 l36 -3 5 101 c3 55 7 103 10 105 3 3 19 2 37 -1 30 -6 32 -9
25 -38 -4 -17 -18 -56 -31 -86 -36 -81 -134 -361 -136 -390 -2 -19 3 -26 21
-28 14 -2 22 -10 22 -22 0 -21 28 -40 48 -33 6 3 12 -2 12 -10 0 -8 7 -20 15
-27 11 -9 15 -32 15 -79 0 -36 4 -104 9 -151 6 -47 11 -159 13 -249 4 -198 6
-195 -104 -167 -40 10 -104 29 -143 42 -38 13 -122 32 -185 43 -72 13 -119 26
-126 36 -7 10 -28 15 -60 15 -52 0 -84 12 -65 24 24 15 8 26 -38 26 -54 0 -72
12 -44 30 18 11 -11 9 -106 -7 -29 -5 -33 -3 -28 11 8 20 7 20 -31 0 -17 -8
-51 -16 -74 -17 -35 -2 -43 1 -42 15 2 16 -6 17 -70 12 -59 -5 -69 -4 -58 7
15 16 16 39 1 39 -5 0 -8 -4 -4 -9 3 -5 1 -12 -5 -16 -5 -3 -10 -13 -10 -22 0
-13 10 -15 61 -11 52 4 62 2 71 -15 9 -17 16 -18 57 -12 86 13 195 13 211 0 8
-7 31 -15 50 -17 25 -2 37 -9 40 -23 5 -16 16 -21 60 -23 30 -2 62 -9 70 -16
22 -19 39 -24 169 -45 66 -11 134 -27 153 -35 18 -8 71 -24 118 -36 47 -12 91
-24 97 -26 7 -2 13 -19 13 -38 0 -19 6 -36 13 -39 9 -3 9 -9 0 -28 -6 -13 -14
-53 -16 -89 -5 -75 -30 -133 -63 -151 -13 -7 -24 -16 -24 -19 0 -23 -192 -136
-352 -209 -53 -24 -59 -41 -33 -90 29 -56 157 -63 474 -25 242 29 296 98 235
304 -14 47 -14 51 5 77 13 18 25 61 34 119 12 80 18 97 48 132 40 48 207 174
223 169 19 -6 40 -98 27 -119 -15 -23 -14 -38 2 -38 16 0 67 -65 67 -86 0 -9
8 -31 19 -48 12 -20 20 -59 24 -108 l5 -78 -42 -57 c-52 -71 -128 -136 -222
-192 -83 -49 -119 -83 -110 -106 3 -9 27 -26 53 -38 57 -25 133 -27 243 -4 41
8 92 18 114 22 21 3 36 9 33 11 -3 3 -57 -4 -120 -16 -138 -25 -187 -27 -247
-9 -44 13 -40 13 109 21 87 5 174 15 200 23 25 9 33 13 16 10 -136 -23 -385
-27 -385 -6 0 4 10 16 23 27 26 24 155 104 166 104 5 0 29 -12 55 -26 42 -23
50 -25 77 -14 39 17 99 87 99 118 0 15 -13 37 -35 57 -55 50 -42 63 68 68 51
2 104 8 119 12 25 7 29 3 62 -64 20 -39 36 -77 36 -85 0 -8 -19 -29 -42 -47
-58 -44 -67 -54 -38 -39 14 7 38 24 54 37 16 13 31 22 34 19 11 -11 -22 -67
-54 -91 -38 -29 -152 -85 -173 -85 -8 0 -12 -3 -9 -6 24 -23 191 73 232 133
21 30 22 40 14 76 -5 22 -25 72 -45 109 -22 41 -33 76 -30 88 3 12 2 33 -2 48
-4 15 -4 41 -1 57 3 17 0 47 -7 69 -7 21 -14 80 -16 130 -3 66 -8 100 -20 117
-9 13 -17 37 -17 54 -1 16 -7 58 -14 92 -13 61 -13 64 10 88 37 40 111 82 211
121 76 29 91 39 82 50 -9 11 -5 16 15 25 19 9 23 16 16 24 -15 19 42 39 104
37 75 -2 106 6 106 29 0 10 -6 19 -12 19 -8 0 -5 7 6 15 19 14 19 15 -6 15
-15 0 -35 3 -45 6 -10 3 -4 -7 16 -25 19 -17 31 -34 27 -38 -4 -5 -42 -8 -84
-9 -89 -1 -161 -26 -143 -48 9 -11 5 -16 -20 -25 -30 -10 -31 -12 -15 -24 17
-12 14 -15 -30 -32 -77 -28 -157 -71 -207 -109 -25 -19 -48 -32 -50 -28 -3 4
-7 23 -11 43 -3 20 -22 75 -42 124 -37 91 -47 172 -26 198 7 8 23 12 42 9 23
-3 36 2 57 25 16 16 41 33 56 37 16 4 40 19 53 33 13 15 34 31 47 37 12 6 27
22 34 36 6 13 21 28 33 32 11 4 25 19 30 33 5 14 14 25 19 25 5 0 12 8 16 19
4 14 19 19 68 24 104 10 159 39 203 109 27 43 60 55 149 57 30 1 36 4 25 11
-11 7 -7 10 18 10 22 0 32 5 32 16 0 12 7 14 30 9 20 -4 30 -3 30 5 0 13 43 3
48 -11 2 -5 8 -6 14 -3 6 4 13 2 17 -4 4 -7 19 -8 46 -2 44 10 165 2 165 -11
0 -5 27 -9 59 -9 33 0 63 -4 66 -10 3 -6 48 -10 100 -10 52 0 97 4 100 10 3 6
37 10 74 10 65 0 69 -1 73 -24 5 -26 -11 -36 -64 -36 -19 0 -28 -5 -28 -16 0
-13 -7 -15 -35 -11 -35 6 -49 -6 -20 -17 28 -10 16 -25 -14 -16 -22 6 -31 5
-35 -6 -4 -10 -12 -11 -29 -5 -42 16 -124 -9 -197 -59 -14 -10 -81 -30 -150
-45 -158 -34 -190 -47 -183 -73 4 -17 -8 -24 -79 -52 l-83 -32 -40 21 c-27 14
-59 21 -95 21 -31 0 -61 5 -67 11 -7 7 -50 12 -108 12 -81 1 -98 -2 -113 -18
-11 -12 -12 -15 -2 -8 8 5 39 13 68 16 42 5 52 3 52 -9 0 -11 4 -12 19 -4 25
13 81 13 81 0 0 -6 30 -10 70 -10 54 0 68 -3 64 -14 -3 -9 5 -15 24 -19 30 -6
47 -30 36 -49 -3 -5 -17 -7 -30 -4 -29 8 -29 4 -7 -31 l17 -26 -58 5 c-36 3
-52 2 -42 -4 9 -5 16 -16 16 -23 0 -8 5 -15 10 -15 6 0 10 4 10 10 0 5 16 12
36 16 28 5 35 10 31 25 -3 10 4 25 14 35 10 9 19 25 19 35 0 12 15 22 53 34
70 23 117 53 127 80 6 15 20 26 42 30 149 31 274 68 300 90 35 30 94 47 151
43 23 -1 62 -1 86 0 38 2 43 4 38 22 -3 13 0 20 9 20 8 0 25 6 37 14 12 7 35
17 50 20 l28 7 -3 -553 -3 -553 -31 -32 -31 -32 -21 22 c-12 12 -32 22 -44 23
-13 1 -40 9 -60 18 -42 18 -78 21 -78 7 0 -6 -16 -3 -35 5 -40 16 -115 19
-115 3 0 -5 14 -23 31 -38 l30 -28 -51 -7 c-46 -6 -51 -9 -48 -29 2 -13 16
-29 34 -38 l32 -15 -32 -10 c-42 -12 -44 -53 -3 -72 l28 -13 -26 -20 c-14 -11
-25 -26 -25 -34 0 -7 -7 -18 -16 -26 -10 -8 -14 -23 -12 -41 5 -33 7 -32 -56
-13 -73 22 -90 20 -82 -10 6 -24 4 -25 -39 -25 -49 0 -56 -10 -29 -48 15 -22
15 -22 -36 -22 -45 0 -52 -3 -60 -26 -9 -23 -14 -25 -50 -19 -48 8 -76 0 -83
-24 -3 -13 -22 -21 -78 -30 -41 -7 -113 -28 -160 -47 -48 -18 -95 -34 -106
-34 -31 0 -85 -21 -118 -45 -16 -13 -47 -31 -69 -40 -21 -10 -61 -41 -90 -68
-33 -32 -37 -37 -10 -14 23 19 63 47 90 62 27 15 65 38 85 50 46 30 110 48
123 35 6 -6 14 -6 21 0 8 7 32 3 71 -11 60 -21 130 -26 219 -14 35 4 78 0 142
-14 109 -25 147 -26 216 -7 106 29 306 47 477 42 212 -5 260 -12 260 -38 0
-17 6 -20 40 -16 36 3 40 1 40 -19 0 -27 16 -29 64 -9 32 13 34 13 45 -10 6
-13 15 -24 21 -24 18 0 53 22 71 44 10 12 31 22 48 23 17 2 39 3 49 4 9 1 31
-1 47 -5 l30 -6 -26 12 c-14 7 -33 19 -41 26 -13 10 -17 10 -22 -4 -4 -11 -15
-15 -36 -12 -23 4 -35 -2 -60 -29 -39 -40 -70 -44 -70 -8 0 30 0 30 -47 5 -61
-33 -78 -25 -46 20 15 21 15 23 1 17 -37 -14 -88 -19 -88 -9 0 9 88 56 140 75
11 4 9 6 -5 6 -11 0 -45 -11 -75 -25 -53 -25 -58 -25 -145 -15 -184 23 -526 5
-715 -38 -27 -6 -64 -4 -117 6 -122 22 -198 27 -247 14 -39 -9 -57 -8 -123 10
-85 22 -88 24 -80 37 13 19 241 74 275 65 21 -5 22 -3 16 21 -6 26 -5 26 47
26 30 0 69 -4 87 -9 37 -11 40 -6 10 18 -35 29 -14 44 53 38 63 -5 70 0 39 28
-35 31 -26 49 21 41 23 -4 55 -14 71 -22 43 -22 45 -11 3 20 -49 38 -47 57 6
45 22 -5 57 -16 76 -24 35 -15 35 -15 29 8 -14 43 -12 52 12 51 26 -1 26 0 10
27 -11 18 -10 23 15 45 16 13 41 24 57 24 16 0 32 5 35 10 4 6 -11 10 -38 10
-47 0 -96 28 -83 48 3 6 31 14 61 17 62 8 64 19 7 29 -38 6 -82 40 -69 53 4 3
37 5 74 5 67 -1 68 -1 43 16 -47 33 -75 60 -68 67 15 16 113 -16 145 -47 36
-35 42 -32 17 8 -9 13 -14 28 -10 31 13 13 79 -32 90 -60 13 -34 25 -35 18 -2
-7 37 22 32 55 -10 l28 -35 11 33 c13 38 43 49 51 18 7 -26 19 -27 26 -2 4 16
72 61 93 61 3 0 3 -16 0 -35 l-7 -35 36 21 c30 18 36 19 41 6 3 -9 0 -25 -6
-37 -11 -20 -10 -21 12 -15 39 12 42 11 46 -14 l4 -23 28 27 c36 35 108 45
144 22 17 -12 26 -13 28 -5 3 8 31 0 81 -25 l77 -36 -6 26 c-6 23 -5 25 12 19
51 -22 70 -16 43 11 -6 6 -10 16 -7 23 2 7 21 -3 48 -24 48 -38 60 -38 60 0 0
26 48 84 70 84 20 0 23 -33 7 -78 l-17 -44 40 36 c22 20 50 36 61 36 19 0 21
-4 16 -40 -5 -42 2 -50 23 -25 18 22 39 18 52 -10 10 -22 17 -25 65 -25 66 0
106 -19 123 -60 7 -16 17 -30 22 -30 26 0 -59 174 -87 178 -38 6 -75 25 -75
38 0 24 65 22 123 -3 20 -9 40 -13 43 -10 4 3 -3 21 -15 40 -19 32 -29 77 -15
77 19 0 49 -28 76 -68 l30 -47 -6 37 c-8 44 1 88 19 88 7 0 18 -25 25 -60 13
-60 30 -81 30 -36 0 14 5 28 10 31 6 4 10 -7 10 -25 0 -18 4 -29 10 -25 6 3
10 16 10 28 1 26 32 51 81 65 18 6 49 15 67 21 29 9 32 8 32 -10 0 -11 -23
-45 -51 -75 -52 -54 -58 -76 -10 -30 36 34 101 61 101 42 0 -7 -9 -25 -21 -40
-26 -33 -14 -33 33 -1 46 31 50 31 42 0 -7 -30 -4 -31 38 -5 34 21 73 26 82
12 3 -5 7 -21 10 -36 9 -47 17 -43 15 6 -3 45 -3 46 -42 52 -30 5 -44 2 -58
-10 -18 -16 -19 -16 -19 6 0 17 -4 21 -17 15 -45 -18 -53 -18 -53 5 0 20 -4
22 -29 17 -29 -6 -29 -6 -15 21 24 46 19 56 -23 47 -102 -19 -91 -25 -97 46
-12 134 -23 576 -22 854 4 765 5 825 20 825 7 0 31 19 52 43 49 55 70 66 121
67 55 0 102 -40 133 -112 18 -42 22 -69 21 -146 0 -52 2 -92 6 -89 3 4 7 60 8
124 1 65 5 129 9 143 5 21 5 21 -5 -2 -12 -30 -29 -37 -29 -13 0 9 -21 36 -46
62 l-46 46 -69 -5 -69 -5 -20 45 c-26 58 -36 172 -21 240 9 45 8 57 -5 77 -12
18 -18 62 -24 154 -5 92 -11 137 -23 154 -15 23 -15 26 10 48 66 62 101 195
68 260 -22 43 -69 105 -110 145 -84 82 -104 134 -85 214 16 66 64 110 121 110
35 0 47 -7 91 -51 64 -64 105 -74 136 -34 27 34 30 111 6 161 -35 74 -145 122
-252 111 -42 -4 -69 -15 -109 -43 -68 -47 -94 -82 -123 -164 -55 -154 -18
-262 128 -378 23 -18 49 -47 58 -64 23 -45 14 -137 -20 -188 -25 -38 -26 -38
-65 -28 -59 15 -102 3 -171 -48 -86 -63 -240 -129 -240 -103 0 5 -15 1 -34 -7
-23 -11 -45 -14 -69 -10 -28 5 -36 12 -41 36 -4 21 -11 30 -26 30 -49 0 -1 32
91 60 38 11 79 43 79 61 0 6 7 8 15 5 38 -15 48 -16 23 -1 -57 33 -21 70 39
41 20 -9 37 -15 40 -13 2 3 -13 12 -34 22 -21 10 -39 19 -41 20 -1 1 2 14 7
28 9 24 12 25 53 15 24 -5 63 -20 87 -34 24 -13 46 -22 48 -20 10 10 -59 47
-118 63 -35 9 -67 22 -71 28 -4 5 -8 28 -8 50 0 22 -4 56 -9 76 -7 33 -6 38
15 49 30 16 44 58 44 130 0 40 -5 64 -17 79 -18 21 -18 21 -91 -49 l-73 -70
-39 16 c-22 9 -42 24 -45 35 -8 25 -89 28 -103 3 -10 -18 -32 -11 -32 9 0 27
-50 117 -64 117 -27 0 -47 -46 -57 -127 -5 -43 -15 -87 -21 -98 -8 -14 -2 -12
22 8 41 35 96 59 138 59 26 0 32 4 33 22 1 17 2 18 6 3 5 -18 5 -18 19 0 8 12
13 13 14 5 0 -7 4 -11 10 -7 5 3 18 -3 29 -14 11 -11 37 -25 59 -31 l38 -12
65 66 c36 36 68 66 71 66 10 0 28 -62 28 -97 0 -18 -7 -49 -14 -68 -12 -27
-21 -35 -40 -35 -30 0 -30 3 -12 -48 8 -22 13 -61 12 -86 -1 -26 2 -47 8 -50
14 -5 -7 -12 -74 -24 l-55 -10 66 5 67 6 -5 -26 c-5 -25 -8 -26 -51 -20 -33 4
-43 3 -38 -5 4 -7 22 -12 39 -13 18 0 27 -3 20 -5 -7 -3 -9 -12 -6 -20 4 -12
0 -13 -22 -4 -40 15 -55 11 -17 -5 17 -8 32 -18 32 -24 0 -14 -59 -61 -78 -61
-10 0 -35 -10 -57 -21 -33 -18 -51 -21 -120 -17 -95 6 -151 29 -180 75 -11 18
-27 32 -36 33 -25 0 -57 32 -61 60 -2 14 -9 30 -17 36 -21 17 -4 35 27 28 l27
-6 -25 22 -25 22 28 -7 c21 -4 28 -2 25 7 -3 7 -16 14 -31 16 -17 2 -24 8 -21
17 3 8 12 11 20 8 8 -3 14 0 14 7 0 7 6 18 14 24 7 6 21 31 30 56 14 39 14 42
1 25 -9 -11 -18 -30 -22 -42 -3 -13 -9 -23 -14 -23 -12 0 -54 -42 -61 -61 -4
-10 -23 -18 -52 -22 -40 -6 -146 -50 -146 -62 0 -2 24 7 53 21 63 28 147 43
147 25 0 -7 -15 -19 -32 -27 -30 -14 -31 -15 -5 -9 21 4 27 2 27 -11 0 -9 -8
-22 -17 -29 -16 -12 -15 -13 7 -8 21 4 27 -1 37 -26 7 -19 23 -36 41 -44 16
-6 41 -26 55 -43 15 -18 47 -41 72 -53 25 -12 47 -27 49 -34 2 -6 8 -27 14
-46 14 -42 1 -71 -31 -71 -27 0 -47 -17 -47 -41 0 -28 64 -41 87 -18 19 19 33
0 33 -42 0 -22 7 -75 16 -117 18 -83 24 -234 11 -294 -6 -28 -13 -38 -27 -38
-10 0 -21 -4 -24 -9 -3 -4 -33 -11 -66 -14 -82 -9 -152 -41 -196 -90 -32 -35
-38 -38 -46 -23 -5 9 -21 21 -34 27 -20 7 -24 14 -19 29 4 12 1 28 -6 36 -9
12 -8 21 6 48 23 43 11 83 -35 114 -62 42 -149 20 -177 -45 -13 -31 -13 -43
-3 -68 6 -16 13 -41 15 -55 1 -14 4 -30 6 -36 2 -7 -8 -23 -22 -36 -38 -35
-45 -105 -40 -401 l3 -248 -59 3 -58 3 -7 110 c-4 61 -5 261 -2 445 l6 335 35
100 c19 55 48 145 65 200 17 55 37 104 45 108 7 4 13 22 13 38 0 23 4 30 18
28 55 -5 72 1 72 26 0 20 5 25 24 25 32 0 40 14 25 41 -8 16 -8 23 1 29 9 6 9
13 1 29 -13 23 -57 39 -71 25 -5 -5 2 -10 17 -11 14 0 32 -8 41 -17 14 -14 14
-16 -7 -24 l-22 -8 20 -18 c33 -30 26 -39 -26 -32 -44 6 -45 5 -30 -12 28 -31
21 -45 -20 -40 -21 3 -47 8 -58 12 -14 6 -16 5 -7 -2 8 -5 12 -23 10 -43 -2
-26 -8 -34 -23 -34 -12 0 -21 8 -23 20 -6 33 -22 42 -22 12 0 -35 -36 -38 -49
-4 -9 22 -9 22 -20 -5 -7 -20 -18 -28 -35 -28 -18 0 -26 7 -31 28 l-7 27 -13
-31 c-19 -46 -35 -52 -35 -12 -1 30 -2 31 -12 13 -34 -59 -69 -66 -48 -9 14
35 7 41 -19 15 -21 -21 -51 -28 -51 -13 0 4 7 18 16 30 17 24 13 27 -16 12
-11 -6 -17 -17 -15 -25 3 -8 7 -22 10 -30 3 -11 10 -13 28 -6 23 9 26 6 41
-42 41 -134 56 -281 56 -542 l0 -252 -30 0 c-26 0 -30 4 -30 26 l0 26 -14 -27
c-28 -52 -29 -53 -42 -17 -7 18 -13 27 -13 18 -1 -16 -31 -49 -45 -49 -9 0 -4
32 10 65 5 12 -8 4 -31 -19 -45 -46 -55 -35 -25 25 l22 42 -29 -8 -28 -7 24
26 23 25 -43 3 -44 3 33 18 c19 10 40 16 48 13 7 -3 16 -1 19 4 12 19 -53 10
-79 -11 -36 -28 -33 -39 11 -39 34 0 35 -1 20 -18 -21 -23 -21 -32 -1 -32 12
0 14 -5 9 -17 -13 -30 -18 -73 -8 -73 5 0 18 7 30 15 19 13 21 13 26 -5 5 -21
32 -27 42 -9 5 6 13 2 22 -11 14 -20 16 -20 28 -4 7 10 30 19 54 21 l41 4 0
-240 0 -241 -44 0 c-25 0 -46 5 -48 12 -2 6 -22 12 -44 13 -21 1 -46 4 -54 8
-17 6 -121 18 -162 18 l-28 0 0 172 c1 268 14 400 59 611 39 179 50 247 30
181 -5 -16 -27 -115 -48 -220 -43 -210 -56 -355 -52 -597 1 -102 -2 -148 -10
-153 -6 -4 -14 -2 -18 4 -4 6 -15 9 -23 6 -11 -4 -18 1 -23 15 -7 23 0 294 15
590 5 96 10 230 10 296 0 89 4 125 13 133 31 25 37 -9 38 -218 1 -162 3 -194
11 -151 16 100 69 354 79 387 18 57 33 52 26 -8 l-5 -54 13 50 c21 83 23 85
51 73 19 -9 28 -8 37 1 9 10 8 11 -6 5 -11 -4 -25 0 -36 11 -18 15 -20 15 -30
-2 -8 -15 -13 -16 -30 -5 -19 11 -21 10 -21 -17 0 -37 -13 -46 -34 -25 -15 14
-16 14 -16 -4 0 -27 -10 -52 -21 -52 -5 0 -18 14 -28 30 l-18 30 -11 -25 c-13
-29 -30 -32 -39 -9 -5 14 -9 13 -25 -7 l-20 -24 6 45 7 45 -21 -32 c-16 -27
-18 -37 -8 -58 l11 -25 23 21 23 22 7 -28 c11 -46 -16 -978 -29 -991 -2 -2
-25 -5 -51 -8 -31 -2 -52 -9 -58 -19 -6 -12 -18 -14 -43 -10 -27 4 -35 2 -35
-9 0 -10 -13 -17 -37 -21 -21 -3 -46 -8 -55 -12 -16 -6 -18 -1 -18 38 0 28 6
52 16 61 13 13 15 41 14 158 -1 79 1 150 4 159 12 29 0 192 -16 224 -16 31 -8
72 12 60 5 -3 18 9 30 26 l22 30 24 -22 24 -23 -45 -46 c-69 -70 -53 -67 20 4
63 61 66 66 79 135 13 68 13 71 -3 57 -23 -21 -37 -20 -20 0 8 9 19 42 26 73
6 31 15 65 19 76 9 23 -125 -98 -143 -129 -7 -12 -10 -28 -8 -36 3 -8 0 -22
-6 -30 -8 -12 -9 -9 -4 9 5 17 4 21 -5 16 -7 -4 -10 -1 -8 11 2 13 -7 23 -29
33 -22 10 -33 22 -33 36 0 36 30 139 46 157 30 32 24 34 -178 58 -64 7 -69 10
-116 60 l-50 53 31 57 c31 56 31 58 14 83 -17 26 -21 27 -111 27 -120 0 -141
-13 -141 -89 0 -49 -1 -51 -31 -57 -21 -4 -41 1 -67 16 l-36 21 20 52 c36 91
62 131 104 154 49 28 62 29 70 3 4 -13 14 -19 33 -18 15 1 35 -2 44 -6 13 -6
20 -2 27 16 8 21 14 24 41 20 40 -6 67 18 81 72 6 23 15 50 20 61 4 11 9 31
11 44 l3 23 28 -25 c15 -15 27 -21 27 -16 0 6 5 7 10 4 6 -3 10 -21 10 -38 l1
-32 16 29 15 29 17 -22 c18 -24 31 -19 31 12 0 15 5 18 25 13 22 -6 25 -3 25
19 0 18 5 25 20 25 28 0 40 -37 40 -126 0 -59 -5 -85 -24 -122 -27 -52 -43
-122 -30 -122 5 0 23 9 40 19 l31 19 -5 -24 c-5 -29 21 -33 56 -8 20 14 22 14
22 -1 0 -25 25 -28 72 -7 51 23 86 54 123 111 31 46 44 47 25 2 -6 -16 -10
-37 -8 -45 5 -27 64 17 102 77 26 41 38 74 48 136 11 73 14 80 32 75 18 -6 19
-2 13 67 -5 55 -16 92 -42 146 -31 62 -43 77 -95 110 -64 41 -71 52 -39 60 11
3 18 11 15 19 -3 7 0 16 6 20 7 5 2 11 -13 17 -15 6 -19 11 -11 14 10 4 10 9
-3 23 -15 17 -15 19 14 25 36 8 38 13 14 31 -16 12 -16 13 8 14 33 0 41 8 28
31 -9 17 -6 18 23 12 30 -6 32 -5 19 10 -7 9 -11 24 -7 32 3 8 1 15 -4 15 -6
0 -10 -9 -10 -20 0 -14 -7 -20 -21 -20 -18 0 -20 -4 -15 -25 6 -22 3 -25 -20
-25 -22 0 -25 -4 -21 -21 4 -15 0 -23 -13 -26 -25 -7 -22 -57 4 -76 16 -12 16
-14 -6 -37 -22 -24 -28 -25 -121 -22 -103 4 -163 -6 -231 -39 -45 -22 -66 -24
-66 -7 0 6 -7 19 -15 28 -11 12 -15 47 -17 135 -2 113 -4 124 -35 186 -23 45
-45 75 -72 93 -41 29 -146 75 -169 76 -8 0 -32 16 -55 35 -51 44 -129 82 -182
89 -39 6 -39 6 7 -8z m3246 -288 c61 -29 102 -88 102 -147 0 -60 -18 -95 -51
-99 -20 -2 -39 10 -82 52 -51 51 -61 56 -100 56 -60 0 -119 -42 -135 -97 -27
-91 -9 -146 77 -239 98 -104 126 -151 126 -209 0 -57 -38 -148 -76 -183 -28
-27 -28 -27 -63 2 l-30 23 21 34 c28 47 45 123 37 167 -6 29 -26 56 -99 127
-110 107 -131 150 -122 248 12 139 100 260 211 288 46 12 135 0 184 -23z
m-2325 -322 c25 -7 65 -28 89 -45 70 -51 87 -84 122 -243 4 -16 2 -28 -4 -28
-5 0 -12 12 -16 28 -15 71 -19 64 -19 -35 0 -136 -22 -210 -78 -266 -21 -21
-40 -37 -42 -35 -2 2 3 28 11 58 15 60 19 119 6 104 -5 -5 -16 -29 -25 -54
-27 -71 -100 -156 -152 -176 -25 -9 -48 -14 -51 -11 -3 3 2 19 11 36 8 17 14
31 11 31 -2 0 -28 -16 -56 -35 -29 -20 -54 -34 -57 -32 -2 2 4 23 12 47 17 49
18 60 6 60 -5 0 -14 -14 -21 -30 -12 -28 -44 -60 -61 -60 -4 0 7 33 24 73 28
64 31 82 30 163 -2 130 -43 203 -139 250 -79 39 -82 47 -23 68 132 48 274 -51
315 -219 5 -21 8 -25 11 -12 7 30 -26 112 -63 156 -48 55 -109 90 -180 100
-33 5 -53 9 -46 10 6 0 12 11 12 24 0 18 11 27 59 46 32 13 74 27 92 31 55 13
172 11 222 -4z m-383 -221 c16 -8 41 -31 56 -51 23 -29 25 -37 13 -45 -8 -5
-17 -9 -21 -9 -4 0 -9 -9 -13 -19 -4 -12 -12 -17 -24 -14 -13 3 -21 -2 -26
-17 -5 -16 -10 -19 -20 -10 -8 7 -19 9 -25 5 -7 -4 -14 2 -17 15 -3 11 -11 19
-17 17 -7 -3 -20 1 -30 8 -25 19 -9 69 23 73 13 2 30 17 39 33 20 33 23 34 62
14z m-1834 -163 c3 -11 7 -10 20 2 30 31 45 14 23 -26 -10 -19 -9 -20 21 -13
30 7 32 6 25 -16 -4 -13 -16 -39 -28 -58 l-20 -33 21 7 c23 7 27 -5 22 -62 -1
-16 3 -20 17 -17 16 5 18 0 15 -38 l-3 -43 18 28 c24 37 33 34 33 -13 l0 -41
22 21 c21 19 38 26 38 15 0 -3 -9 -23 -20 -45 -27 -53 -26 -62 6 -50 14 6 28
10 30 10 9 0 -4 -62 -15 -73 -20 -20 -13 -39 10 -32 20 7 21 4 16 -21 -3 -16
-9 -37 -12 -46 -6 -14 -2 -18 14 -18 19 0 21 -6 21 -54 0 -35 -5 -58 -15 -66
-21 -17 -19 -33 4 -25 15 5 18 1 13 -20 -4 -21 -1 -24 13 -18 16 5 17 2 12
-23 -3 -16 -9 -37 -12 -46 -4 -11 -3 -18 4 -18 6 0 13 11 17 25 6 25 24 35 24
14 0 -7 8 -18 18 -25 18 -14 18 -14 -26 -81 -13 -21 -13 -23 7 -23 15 0 21 -6
21 -20 0 -25 -23 -72 -43 -89 -11 -8 -13 -24 -10 -52 6 -41 -15 -79 -44 -79
-7 0 -13 -6 -13 -12 -1 -17 -35 -58 -48 -58 -6 0 -13 8 -15 18 -3 11 -5 7 -6
-10 -2 -60 -27 -76 -55 -36 -15 20 -21 18 -17 -6 4 -21 -10 -56 -23 -56 -8 0
-16 10 -20 23 -6 20 -8 18 -26 -21 -22 -48 -40 -48 -40 1 l0 32 -23 -39 c-12
-22 -28 -41 -34 -44 -19 -6 -16 38 6 81 22 43 17 48 -11 12 -11 -14 -26 -25
-33 -25 -20 0 -42 38 -50 88 -7 43 -18 54 -29 26 -3 -8 -11 -12 -17 -8 -10 6
-7 47 7 92 3 9 -6 4 -20 -13 -22 -25 -26 -27 -32 -12 -3 10 -4 36 0 58 l6 40
-25 -17 c-29 -19 -32 -9 -10 43 18 44 14 53 -9 18 -18 -27 -36 -33 -36 -12 0
6 11 36 25 65 l24 52 -27 -7 -26 -6 17 26 c22 33 21 35 -3 39 -36 5 -22 23 20
26 45 4 51 15 18 33 l-23 12 25 8 c14 4 38 10 53 14 23 5 27 9 17 20 -6 8 -21
15 -33 17 -17 2 -21 9 -19 30 2 19 -4 30 -19 39 l-22 11 24 18 c23 18 23 19 5
39 -15 17 -16 23 -6 35 6 9 20 18 31 21 23 8 25 28 4 45 -21 18 -19 29 10 42
l25 11 -21 23 c-28 30 -19 58 17 51 23 -4 25 -2 19 24 -6 28 7 40 20 19 3 -5
11 -10 18 -10 8 0 8 3 -1 12 -7 7 -12 16 -12 20 0 13 28 9 34 -4 3 -7 4 -1 1
15 -4 22 -2 27 15 27 24 0 24 -2 4 45 -11 27 -12 41 -5 48 6 6 11 24 11 40 0
24 3 28 20 24 13 -3 21 1 25 14 4 10 10 19 14 19 5 0 12 19 16 43 4 23 9 35
12 27 2 -8 6 -21 9 -28z m422 -112 c2 -28 7 -48 10 -45 3 3 11 -4 18 -16 12
-22 12 -22 18 -2 4 12 14 24 23 27 14 6 15 -2 9 -66 -6 -68 -6 -72 9 -50 19
27 32 28 38 5 3 -13 5 -11 6 6 1 19 -3 22 -19 18 -30 -8 -25 23 9 56 26 25 31
27 50 15 12 -7 21 -22 21 -32 0 -16 3 -17 12 -8 17 17 38 15 38 -3 0 -8 6 -15
14 -15 8 0 22 -10 30 -22 14 -19 16 -19 22 -5 9 24 31 21 38 -5 6 -22 7 -21
23 10 22 45 39 50 69 21 24 -23 32 -24 146 -23 117 2 119 1 114 -20 -2 -11 -8
-37 -11 -57 -6 -35 -9 -37 -55 -42 -50 -6 -123 -37 -136 -58 -4 -7 1 -18 11
-25 21 -15 21 -15 -19 -32 -20 -9 -32 -10 -40 -2 -5 5 -18 10 -27 10 -17 0
-89 -68 -148 -139 -40 -49 -53 -52 -45 -11 7 31 -12 90 -27 90 -5 0 -14 11
-19 25 -5 14 -14 25 -20 25 -7 0 -8 6 0 19 5 11 10 43 10 71 0 43 -3 53 -20
57 -12 3 -20 14 -20 26 0 30 -6 17 -13 -27 -6 -37 -5 -38 12 -21 11 9 22 12
25 7 9 -15 0 -106 -13 -131 -12 -21 -11 -22 7 -17 16 6 19 3 14 -19 -3 -20 0
-25 17 -25 12 0 21 -6 21 -15 0 -8 5 -15 10 -15 13 0 13 -47 0 -55 -6 -4 -10
-16 -8 -27 5 -32 -24 -45 -68 -29 -35 13 -38 12 -55 -10 -10 -13 -21 -37 -25
-53 -3 -16 -17 -49 -30 -74 -17 -32 -24 -61 -24 -102 0 -54 3 -60 35 -89 20
-17 40 -31 45 -31 5 0 24 -28 41 -62 31 -61 31 -62 13 -92 -24 -42 -69 -82
-98 -90 -20 -5 -25 -2 -29 16 -4 23 -4 23 -14 -2 l-11 -25 -7 30 c-12 48 -17
50 -32 14 -14 -34 -15 -34 -27 -12 l-12 23 -18 -21 c-17 -20 -18 -20 -37 -3
-28 26 -24 63 13 101 27 28 32 42 34 83 1 30 8 58 17 68 9 9 21 30 27 46 9 23
8 32 -6 47 -15 16 -15 20 0 41 25 35 19 62 -24 108 -22 23 -41 50 -41 59 -1 9
-2 44 -3 78 -1 35 -7 68 -14 75 -7 7 -12 29 -12 50 0 25 -5 41 -15 44 -11 5
-12 11 -4 25 5 11 11 49 13 87 5 88 5 84 16 77 6 -4 10 7 10 24 0 29 19 46 21
19 0 -7 5 2 10 20 8 26 13 31 23 23 18 -15 26 -4 26 36 0 18 4 33 9 33 5 0 11
19 15 42 9 55 27 38 34 -32z m-285 14 c-5 -14 -2 -16 20 -10 21 5 27 3 27 -9
0 -12 6 -15 20 -10 14 4 20 2 20 -9 0 -10 6 -13 15 -10 10 4 15 0 15 -10 0 -9
6 -25 12 -36 10 -16 10 -26 -1 -52 -7 -18 -16 -51 -20 -72 -3 -22 -12 -41 -20
-44 -11 -4 -12 0 -6 14 4 11 10 32 13 48 4 27 3 28 -22 22 -23 -6 -27 -3 -33
24 -4 24 -10 29 -23 25 -13 -4 -20 1 -25 15 -3 11 -11 20 -16 20 -5 0 -9 9 -9
21 0 11 -5 29 -11 40 -13 24 3 49 32 49 13 0 17 -5 12 -16z m4129 -41 c61 -24
109 -62 124 -100 8 -18 14 -63 14 -100 0 -37 8 -97 16 -133 11 -44 16 -103 14
-180 -1 -94 2 -127 19 -177 12 -34 21 -69 21 -77 0 -21 -49 -75 -50 -56 -1 8
-6 4 -12 -10 l-10 -25 -11 25 c-8 21 -11 22 -14 8 -3 -10 -9 -18 -14 -18 -17
0 -9 36 16 70 l24 33 -35 68 c-20 37 -66 101 -102 141 -37 41 -81 91 -99 113
-17 22 -35 37 -39 32 -4 -4 5 -20 19 -35 15 -16 27 -31 27 -35 0 -4 -22 -7
-49 -7 -27 0 -66 -7 -87 -16 -22 -9 -67 -27 -100 -40 l-62 -23 5 22 c12 47
-18 -1 -42 -69 -57 -158 -125 -260 -180 -270 -28 -5 -30 -3 -31 25 -1 24 5 32
27 41 24 10 30 22 43 80 9 38 16 105 16 148 0 69 -2 80 -19 85 -10 2 -21 17
-25 33 -4 16 -12 32 -18 35 -6 4 -14 36 -18 70 -4 44 -9 59 -14 46 -19 -41 30
-191 65 -200 22 -6 25 -50 8 -143 -20 -114 -27 -131 -65 -153 -43 -26 -56 -26
-77 -3 -20 21 -13 32 19 32 26 0 31 18 40 150 5 75 2 117 -14 201 -28 140 -23
163 42 214 46 36 57 40 111 41 100 1 165 13 195 34 15 11 35 20 43 20 9 0 37
17 64 37 67 51 124 83 150 83 13 0 42 -8 65 -17z m-2692 -142 c43 -12 36 -85
-13 -128 -23 -20 -23 -25 6 49 6 15 9 30 6 33 -3 3 -28 7 -55 10 l-49 5 45
-11 c25 -6 46 -12 48 -14 6 -6 -26 -60 -45 -77 -17 -16 -23 -16 -71 -2 -50 15
-52 17 -52 50 0 27 5 37 23 44 22 9 22 9 1 9 -24 1 -34 -16 -34 -55 0 -14 -4
-22 -10 -19 -28 17 2 95 40 106 32 9 128 9 160 0z m1190 -76 c8 -10 10 -44 5
-122 -3 -59 -2 -121 3 -138 l9 -30 30 60 c17 33 45 100 63 148 18 48 37 84 41
80 5 -5 -23 -103 -62 -218 l-70 -210 3 -432 3 -431 -36 -12 c-20 -7 -42 -9
-48 -6 -8 5 -11 149 -10 504 1 513 -2 555 -47 762 -10 48 13 6 36 -64 23 -70
41 -75 39 -11 -1 29 -1 29 -8 5 -4 -14 -10 -20 -13 -15 -15 25 -35 113 -28
124 5 10 9 9 13 -3 4 -9 13 -13 21 -10 11 4 16 -4 19 -33 3 -32 4 -30 5 15 2
53 10 63 32 37z m130 9 c0 -3 -24 -65 -52 -137 -60 -148 -63 -147 -56 31 2 69
7 95 18 102 16 11 90 14 90 4z m-1797 -41 c-3 -13 111 -26 115 -13 11 30 83
-16 98 -62 15 -47 -88 -65 -130 -22 -15 14 -19 14 -50 -5 -32 -20 -106 -108
-119 -141 -16 -42 -4 37 16 109 l24 81 -53 0 c-29 0 -55 4 -59 10 -8 14 36 39
86 49 52 11 75 9 72 -6z m397 -63 c0 -5 -23 -19 -50 -31 -28 -12 -49 -23 -47
-25 2 -3 25 5 51 17 48 21 97 22 103 3 2 -6 -11 -14 -29 -18 -53 -10 -136 -46
-142 -62 -4 -11 -2 -12 14 -4 10 5 21 10 24 10 9 0 66 -118 103 -214 38 -98
41 -160 9 -195 -20 -23 -111 -48 -196 -56 -60 -6 -67 -4 -88 18 -22 23 -22 26
-12 148 16 174 20 188 80 233 27 21 50 40 50 42 0 5 -150 -94 -165 -109 -5 -5
1 -4 13 3 31 15 34 11 21 -31 -6 -19 -13 -89 -16 -155 l-6 -122 26 -22 c21
-18 24 -27 16 -41 -7 -15 -6 -19 6 -19 8 0 15 -9 15 -20 0 -11 -3 -20 -6 -20
-3 0 -34 24 -70 53 -50 41 -65 59 -70 87 -10 61 -25 104 -50 142 l-23 37 42
32 c78 60 74 63 -9 7 -57 -38 -65 -35 -23 9 l34 37 -34 -28 c-57 -45 -50 -17
9 36 61 55 183 140 310 217 82 50 110 61 110 41z m-476 -52 c-19 -51 -34 -149
-22 -142 4 3 8 1 8 -5 0 -5 -5 -11 -11 -13 -6 -2 -9 -15 -7 -28 2 -21 8 -14
35 40 18 36 54 87 81 113 49 49 50 49 76 32 26 -17 90 -18 129 -1 9 5 17 4 16
0 0 -5 -48 -40 -106 -79 -59 -38 -131 -92 -160 -119 -51 -46 -55 -48 -97 -42
-34 5 -45 4 -49 -8 -4 -9 -21 -22 -40 -29 -32 -14 -34 -18 -46 -88 -11 -69
-11 -75 7 -90 11 -8 23 -26 27 -40 11 -35 44 -79 60 -79 8 0 19 -10 26 -22 6
-13 28 -40 48 -62 l36 -38 -60 5 c-76 6 -189 34 -236 58 -20 10 -39 15 -43 12
-24 -25 21 -56 149 -100 49 -18 100 -27 172 -30 l103 -6 48 -46 c26 -25 73
-65 104 -88 45 -34 60 -51 76 -96 20 -53 126 -225 183 -299 l29 -36 -64 -59
c-93 -85 -219 -159 -371 -219 -112 -45 -151 -55 -243 -66 -100 -11 -116 -10
-223 11 -83 17 -135 33 -190 62 -120 63 -119 59 -80 187 18 59 52 157 76 217
24 61 52 137 63 170 32 96 101 274 134 345 24 52 31 86 38 170 10 129 37 228
95 340 41 80 48 88 132 147 48 34 93 62 100 63 9 0 8 -11 -3 -42z m701 -49
c44 -5 94 -13 110 -18 l30 -9 -31 -1 c-17 -1 -37 -8 -44 -16 -7 -8 -19 -15
-26 -15 -8 0 -14 -3 -14 -8 0 -4 -9 -13 -20 -20 -17 -10 -34 -9 -100 9 -44 12
-80 26 -80 31 0 5 14 23 30 40 21 21 36 28 48 23 9 -4 53 -11 97 -16z m116
-66 c1 -26 2 -24 15 16 2 8 7 11 10 9 3 -3 -2 -41 -11 -84 -9 -44 -15 -88 -14
-99 6 -55 1 -61 -56 -75 -30 -7 -57 -11 -60 -8 -3 3 0 50 7 104 8 69 17 104
29 116 17 17 18 16 22 -10 3 -22 4 -21 6 9 1 41 7 49 33 49 13 0 18 -8 19 -27z
m2398 -40 c45 -52 46 -56 19 -178 -12 -58 -23 -75 -49 -75 -11 0 -19 6 -20 13
0 10 -2 10 -6 0 -7 -18 -23 -16 -23 3 0 8 -4 12 -10 9 -5 -3 -10 -1 -10 5 0 6
11 16 25 22 20 9 25 18 25 47 0 45 -24 124 -50 168 l-19 33 39 0 c34 0 44 -6
79 -47z m-2580 4 l73 -21 -6 -35 c-4 -20 -9 -60 -13 -89 -3 -29 -9 -55 -14
-57 -11 -8 -59 16 -53 26 3 5 -1 6 -9 3 -7 -2 -33 12 -56 33 -34 31 -44 46
-48 82 -6 41 -4 44 13 37 10 -4 34 -10 52 -13 21 -4 36 -13 41 -26 5 -13 10
-16 14 -10 11 18 -18 40 -60 47 -49 8 -65 19 -58 38 7 18 13 17 124 -15z
m2451 23 c17 -9 51 -95 65 -166 5 -26 2 -34 -18 -47 -14 -9 -28 -28 -31 -44
-4 -15 -20 -41 -36 -58 -15 -16 -37 -48 -47 -69 l-20 -39 -7 29 c-22 85 -92
138 -177 132 -27 -1 -49 -2 -49 -2 0 1 14 33 31 70 17 38 36 83 44 100 10 23
23 33 56 43 24 7 64 24 89 37 50 26 72 29 100 14z m-3493 -92 c32 -14 45 -28
53 -54 7 -20 10 -37 8 -40 -3 -2 -29 9 -59 26 -73 40 -87 38 -19 -3 55 -33 67
-51 52 -75 -7 -10 -20 -7 -61 13 -28 15 -56 25 -62 23 -6 -2 16 -16 50 -32 57
-26 59 -29 49 -52 -13 -28 -13 -28 -68 -9 -62 22 -61 11 1 -13 49 -18 51 -20
32 -31 -12 -6 -41 -11 -64 -11 -36 0 -40 -2 -29 -15 7 -9 11 -18 8 -20 -10
-11 -35 7 -52 36 -22 38 -17 110 12 167 11 20 28 56 37 79 20 48 31 49 112 11z
m2506 -43 c40 -16 57 -40 57 -79 0 -35 -39 -58 -106 -64 -68 -6 -94 13 -94 68
0 48 19 71 66 80 21 4 40 8 40 9 1 0 18 -6 37 -14z m-2111 -20 c47 -32 82 -92
103 -176 16 -62 21 -69 81 -120 36 -30 77 -64 92 -77 58 -50 93 -75 98 -69 3
2 -18 24 -46 48 -40 34 -50 48 -48 68 3 22 8 26 38 26 19 1 38 -3 41 -8 3 -5
29 -2 57 6 30 9 52 12 54 6 11 -34 -12 -204 -37 -273 -32 -89 -42 -93 -128
-50 -66 33 -218 186 -252 254 -23 45 -30 51 -80 65 -80 24 -105 58 -105 143 1
43 6 74 15 86 8 11 15 28 15 39 0 59 43 72 102 32z m-1310 -4 c-59 -10 -71
-25 -34 -42 29 -13 30 -14 16 -41 -18 -34 -18 -38 1 -38 18 0 18 1 4 -37 -9
-26 -16 -31 -56 -37 -25 -3 -101 -6 -169 -6 l-124 0 0 85 0 84 98 4 97 3 -102
2 -103 2 0 -95 0 -95 58 -1 c31 -1 111 -1 177 -1 113 0 116 -1 45 -8 -41 -4
-119 -8 -172 -9 -85 -1 -99 -3 -108 -20 -13 -25 -24 -282 -13 -297 8 -10 353
-2 420 11 36 6 37 13 33 121 -1 23 3 45 8 48 17 10 29 -112 16 -160 -5 -20
-14 -22 -157 -28 -84 -3 -194 -9 -244 -13 l-93 -6 0 140 c0 77 3 208 7 291 l6
152 216 -1 c120 -1 197 -5 173 -8z m2002 -79 c39 -3 73 2 120 18 60 20 103 45
56 33 -11 -3 -20 0 -20 6 0 17 50 13 57 -5 3 -8 1 -20 -6 -27 -17 -17 -13 -31
6 -16 15 13 15 12 4 -10 -9 -16 -16 -20 -20 -12 -6 8 -20 5 -52 -14 -24 -13
-53 -25 -64 -26 -11 0 -38 -7 -60 -14 l-40 -14 45 6 c25 3 69 14 98 25 53 20
76 18 54 -4 -7 -7 -12 -33 -12 -59 0 -54 3 -51 -100 -69 -120 -21 -151 -31
-160 -55 -10 -27 -17 -541 -7 -551 10 -10 191 23 240 43 20 9 39 14 42 11 3
-3 1 -33 -3 -67 -13 -94 -55 -130 -176 -152 -60 -11 -70 -11 -97 5 -16 9 -33
14 -39 11 -5 -3 -47 52 -94 122 -122 187 -141 231 -71 163 33 -32 63 -33 67
-1 1 9 4 -18 8 -59 l6 -75 2 84 c1 46 -1 81 -5 78 -3 -4 -13 2 -20 13 -8 11
-18 18 -23 15 -22 -13 -18 20 10 90 16 41 30 83 30 93 0 13 2 14 9 3 11 -17
19 57 16 155 -2 68 -1 71 27 87 24 14 27 20 18 36 -7 13 -7 22 0 26 5 3 15 26
21 51 7 26 17 43 23 41 42 -16 58 -18 52 -8 -4 6 -13 11 -20 11 -22 0 -66 40
-66 61 0 16 5 15 45 -13 32 -23 59 -32 99 -36z m2205 -48 c93 -37 110 -110
111 -463 0 -123 3 -222 6 -218 3 3 6 122 5 264 -1 257 -1 258 25 313 36 78 49
90 102 90 24 0 60 8 79 17 31 15 39 15 61 2 14 -8 30 -23 36 -34 5 -11 19 -33
31 -50 20 -29 20 -40 16 -593 -2 -359 1 -669 10 -857 l13 -296 -27 -26 c-21
-22 -29 -24 -41 -14 -12 10 -16 9 -25 -6 -8 -15 -11 -16 -15 -3 -3 8 -10 28
-16 43 -12 35 -30 31 -51 -10 l-15 -30 -30 23 c-35 29 -74 32 -74 6 0 -10 9
-35 19 -55 11 -21 14 -36 8 -33 -7 3 -30 10 -53 16 l-41 12 -6 240 c-4 133 -8
345 -8 472 -1 127 -5 292 -9 366 -5 92 -6 32 -4 -185 11 -890 11 -881 -13
-905 -13 -11 -23 -25 -23 -30 0 -11 44 -35 80 -43 17 -4 32 -19 43 -43 l18
-37 -23 7 c-13 3 -46 6 -74 6 -44 0 -52 3 -62 25 -8 17 -20 25 -37 25 -15 0
-25 6 -25 14 0 8 -7 22 -16 30 -13 14 -19 14 -49 2 l-34 -14 -3 31 c-4 44 -31
46 -71 5 -17 -18 -37 -42 -43 -53 -7 -11 -15 -17 -19 -13 -4 4 -9 215 -11 470
-2 255 -8 648 -13 873 l-8 410 5 -520 c6 -620 8 -1215 4 -1215 -1 0 -14 7 -27
16 -27 17 -50 10 -41 -13 5 -12 0 -13 -25 -8 -30 7 -31 6 -25 -18 l6 -26 -56
29 c-31 17 -67 30 -81 30 -14 0 -43 5 -64 12 l-39 11 0 63 c0 57 -11 195 -26
319 -3 28 -5 363 -5 745 l2 695 23 36 c43 65 200 114 244 77 9 -8 31 -20 49
-27 27 -11 33 -19 39 -57 6 -44 24 -62 24 -25 0 13 9 21 30 26 18 4 43 23 63
47 55 68 101 82 176 52z m-743 -9 c19 -15 19 -15 -5 -35 -13 -11 -33 -21 -45
-21 -11 -1 4 -5 34 -9 37 -6 60 -15 72 -30 20 -25 19 3 24 -925 1 -361 7 -547
18 -670 9 -93 16 -190 16 -215 0 -43 -2 -46 -38 -60 -43 -18 -75 -9 -91 27 -9
19 -16 22 -36 17 -19 -5 -25 -2 -25 9 0 29 -39 30 -80 3 -22 -14 -44 -26 -50
-26 -7 0 -11 239 -12 723 -4 978 -3 1058 5 1089 9 32 52 58 99 59 l33 1 -40
12 c-29 8 -40 17 -40 31 0 17 9 21 65 26 36 3 68 6 71 7 3 1 14 -5 25 -13z
m-3480 -101 c16 -4 20 -11 16 -31 -4 -23 -2 -25 20 -20 24 6 26 4 32 -40 3
-25 6 -79 6 -119 l0 -73 -32 -5 c-18 -3 -115 -8 -215 -11 l-183 -5 1 107 c0
60 3 126 7 148 l7 40 105 6 c168 8 214 9 236 3z m2229 -82 c3 -37 8 -83 11
-103 l5 -36 -108 -31 c-59 -17 -120 -34 -135 -38 l-28 -6 -1 58 c0 33 -4 79
-9 104 -7 33 -8 17 -4 -60 2 -57 8 -108 12 -111 6 -7 194 38 233 55 13 6 17
-2 22 -46 9 -73 8 -220 -1 -235 -14 -22 -116 -61 -190 -73 -40 -7 -75 -10 -78
-7 -3 2 0 44 6 93 6 51 8 110 3 139 -6 43 -8 32 -14 -81 -3 -72 -10 -137 -14
-144 -16 -26 -21 19 -12 128 4 59 6 157 3 217 -3 61 -2 128 2 149 6 36 11 40
52 52 25 7 82 20 128 28 46 7 86 17 89 20 13 13 22 -8 28 -72z m-1303 -107 c9
-20 6 -36 -15 -92 -70 -188 -91 -234 -105 -228 -7 3 -25 5 -38 5 -22 0 -24 4
-24 54 0 65 -9 116 -21 116 -5 0 -9 -21 -9 -47 0 -37 3 -44 11 -33 8 11 9 -7
5 -64 -3 -43 -6 -114 -6 -156 l0 -77 -29 1 c-32 1 -31 -12 -11 136 5 36 12
115 16 175 3 61 9 114 12 120 3 5 12 -4 18 -20 11 -25 13 -26 14 -9 0 19 17
31 52 38 13 2 98 86 98 96 0 19 21 10 32 -15z m-362 -35 c0 -5 9 -19 21 -31
20 -20 21 -20 40 -3 17 15 22 16 29 5 5 -8 15 -11 25 -7 17 6 17 -1 11 -106
-4 -62 -9 -115 -11 -118 -2 -3 -59 -5 -127 -3 l-123 2 -3 73 c-2 40 0 92 3
116 6 39 8 41 27 31 18 -9 24 -8 35 7 7 10 13 21 13 25 0 7 22 15 48 18 6 0
12 -3 12 -9z m-330 -91 c0 -36 27 -51 46 -25 10 15 15 15 32 5 17 -10 24 -10
38 1 15 14 16 10 11 -58 -3 -41 -7 -76 -10 -78 -10 -11 -67 -22 -72 -14 -3 4
-23 11 -45 15 l-40 7 0 87 c0 80 2 87 20 88 16 1 20 -4 20 -28z m178 -66 c-2
-38 1 -125 6 -194 l9 -126 -31 -5 c-17 -2 -33 0 -35 6 -2 6 -1 43 2 81 l5 70
7 -50 c3 -27 3 25 1 118 -5 165 -5 167 16 167 20 0 21 -5 20 -67z m1509 -429
c4 -10 -1 -22 -12 -30 -10 -7 -23 -24 -29 -36 -6 -13 -22 -24 -34 -26 -15 -2
-22 -10 -22 -24 0 -23 -26 -47 -52 -48 -10 0 -18 -4 -18 -9 0 -17 -50 -61 -70
-61 -12 0 -31 -12 -44 -26 -17 -20 -33 -27 -65 -29 -24 -1 -47 -8 -51 -15 -4
-7 -13 -10 -19 -6 -6 4 -24 -3 -40 -15 -19 -14 -37 -20 -52 -16 -16 4 -27 -1
-41 -19 -21 -26 -56 -32 -76 -12 -10 10 -17 7 -35 -12 -12 -13 -14 -18 -5 -11
13 10 25 11 49 2 24 -8 35 -7 55 5 13 9 24 21 24 26 0 6 7 7 16 4 9 -3 33 3
54 15 21 12 43 20 50 17 6 -2 13 -28 15 -58 2 -32 17 -87 35 -130 41 -98 79
-255 87 -355 l5 -80 -57 -28 c-80 -39 -147 -51 -189 -33 -31 13 -35 21 -55 97
-49 186 -95 336 -114 374 -20 40 -24 102 -7 119 5 5 -4 16 -23 26 -30 16 -34
16 -65 -2 -43 -23 -56 -23 -73 3 -14 20 -15 20 -47 2 -30 -16 -34 -17 -45 -2
-8 11 -26 16 -57 15 -39 -1 -45 2 -48 21 -3 20 -7 21 -52 16 -46 -5 -49 -4
-55 20 -5 18 -15 27 -33 29 -18 2 -28 10 -32 28 -4 16 -12 24 -22 22 -21 -3
-32 13 -21 33 7 12 16 8 52 -20 111 -88 224 -120 421 -120 144 1 145 1 264 43
186 66 361 170 466 277 48 49 58 53 67 29z m-1067 -369 c0 -24 38 -39 68 -26
20 10 28 9 43 -5 14 -13 24 -14 48 -6 47 16 56 -4 76 -167 20 -162 17 -275
-11 -390 -22 -90 -38 -100 -129 -81 -69 14 -111 33 -123 58 -5 9 -12 91 -16
182 -4 91 -11 212 -17 270 -10 107 -4 155 24 172 19 12 37 9 37 -7z m328 -37
c7 -7 12 -29 12 -50 0 -20 12 -63 26 -95 36 -81 105 -327 93 -331 -5 -2 -15
-9 -22 -15 -50 -48 -169 -128 -182 -123 -18 7 -18 14 0 151 9 63 13 138 10
175 -7 74 -23 205 -30 237 -4 16 3 26 33 41 45 25 45 25 60 10z m502 -534 c0
-4 -14 -22 -31 -41 -16 -19 -27 -38 -24 -42 4 -3 13 3 21 13 7 11 16 18 18 15
6 -7 26 -180 30 -262 3 -69 1 -81 -17 -98 -26 -23 -65 -31 -142 -27 l-60 3 -5
75 c-3 52 -12 86 -27 112 -12 20 -19 46 -16 56 3 14 -2 24 -16 31 -35 19 -24
26 36 24 32 -1 47 1 33 3 -102 19 -130 27 -125 35 4 5 37 9 74 9 58 0 79 5
140 36 40 20 75 42 78 50 5 14 33 20 33 8z m-827 -90 c26 -14 70 -28 99 -31
59 -6 124 8 121 26 -2 6 1 11 6 11 22 0 19 -20 -8 -54 -22 -28 -31 -53 -41
-118 -14 -99 -27 -136 -49 -142 -20 -6 -129 0 -170 9 -16 3 -32 13 -35 21 -3
8 1 56 8 107 8 50 12 104 9 119 -5 24 -3 26 18 22 23 -5 23 -5 -4 16 -15 12
-25 26 -21 31 8 14 17 11 67 -17z m63 -329 l61 -7 15 -51 c34 -113 35 -110
-32 -150 -53 -32 -46 -36 10 -7 38 19 40 19 40 2 0 -26 -25 -57 -64 -82 -38
-23 -163 -43 -371 -60 -130 -11 -213 -6 -240 14 -14 10 -4 11 56 4 42 -4 112
-3 161 2 96 11 238 37 246 45 10 9 -36 5 -153 -15 -120 -20 -216 -25 -299 -14
-42 6 -46 9 -45 33 0 22 11 31 77 63 72 35 81 37 143 32 60 -6 70 -4 127 26
59 30 62 34 62 69 0 20 -4 43 -9 50 -7 11 -1 21 22 38 34 24 31 24 193 8z
m569 -120 c34 -33 31 -53 -12 -97 -28 -29 -45 -38 -71 -38 -30 0 -92 24 -92
36 0 13 117 122 133 123 10 0 29 -10 42 -24z"/>
<path d="M30 4630 c19 -11 58 -27 85 -36 28 -9 64 -22 80 -30 59 -26 658 -205
965 -288 l165 -45 -145 -2 c-80 -1 -296 -5 -480 -9 -235 -5 -150 -6 287 -3
l623 5 0 -41 c0 -37 -2 -40 -32 -44 -28 -3 -26 -4 11 -5 36 -2 42 1 37 14 -3
9 -6 31 -6 50 l0 34 -125 0 c-121 0 -130 2 -337 59 -117 32 -250 69 -296 81
-46 13 -85 28 -87 34 -1 6 -8 37 -15 69 l-11 57 -42 -2 -42 -1 38 -4 c24 -3
37 -9 37 -19 0 -8 -4 -13 -9 -10 -5 3 -16 -12 -25 -33 l-15 -39 -53 16 c-50
16 -51 17 -23 23 23 5 20 6 -10 3 -26 -2 -77 9 -147 32 -60 20 -108 37 -108
38 0 2 71 2 158 0 l157 -2 -195 10 c-175 9 -205 13 -290 40 -52 17 -112 39
-132 49 -49 25 -63 24 -18 -1z"/>
<path d="M4293 4279 c-38 -11 -49 -25 -33 -44 9 -11 6 -17 -14 -30 -34 -23
-33 -35 4 -35 l29 0 -25 -25 c-32 -32 -26 -51 15 -47 21 1 31 -2 31 -12 0 -18
19 -24 50 -16 21 5 27 1 38 -23 11 -27 16 -29 47 -24 19 3 37 2 40 -3 10 -17
76 -8 96 13 10 11 19 24 19 29 0 4 11 8 24 8 14 0 28 5 31 10 3 6 21 10 38 10
18 0 39 4 47 10 10 6 5 9 -18 8 -21 -1 -38 6 -47 18 -14 18 -14 18 -15 -7 0
-27 -15 -40 -37 -32 -7 3 -13 16 -13 29 0 14 -4 22 -10 19 -5 -3 -10 -21 -10
-38 0 -18 -9 -43 -20 -57 l-20 -25 0 24 0 25 -22 -24 -23 -25 -3 23 c-4 26 -5
26 -43 7 -38 -20 -52 -11 -47 30 l4 33 -28 -14 c-27 -14 -68 -19 -68 -9 0 3 7
17 16 30 20 30 15 31 -34 5 -52 -28 -56 -5 -6 38 l39 35 -42 -7 c-24 -3 -43
-4 -43 -1 0 2 17 13 38 24 l37 19 -30 12 -30 12 35 13 c45 17 83 18 98 3 8 -8
12 -8 12 -1 0 23 -49 29 -107 12z"/>
<path d="M2544 4229 c5 -28 4 -30 -9 -19 -9 7 -14 19 -11 27 3 7 1 13 -4 13
-15 0 -12 -23 6 -48 16 -23 15 -26 -10 -16 -9 3 -17 16 -17 28 -1 18 -2 18 -6
3 -3 -10 3 -27 12 -37 16 -18 16 -22 1 -54 -9 -19 -16 -41 -16 -50 0 -9 -7
-16 -15 -16 -8 0 -15 -4 -15 -10 0 -5 8 -10 19 -10 29 0 71 -39 71 -65 0 -13
3 -30 6 -39 7 -18 49 -22 59 -6 4 7 -2 9 -19 4 -19 -4 -28 -2 -32 11 -9 22 9
50 30 49 9 -1 16 5 16 13 0 10 -6 13 -15 9 -8 -3 -22 -9 -30 -12 -23 -10 -18
10 11 37 67 63 76 169 14 169 -27 0 -46 22 -34 41 3 5 0 9 -7 9 -8 0 -9 -10
-5 -31z"/>
<path d="M2957 4193 c-14 -14 -20 -15 -41 -4 -21 12 -30 11 -62 -5 -21 -11
-46 -33 -56 -50 -23 -40 -38 -122 -28 -150 5 -13 4 -26 -2 -32 -8 -8 5 -9 44
-5 39 4 63 1 86 -11 41 -21 53 -20 23 3 l-23 18 21 41 c12 23 21 55 21 71 0
42 9 61 30 61 11 0 22 4 25 10 4 6 -7 7 -27 4 l-33 -6 33 21 c17 11 32 23 32
26 0 3 -11 -2 -25 -11 -29 -19 -33 -9 -8 18 20 23 13 24 -10 1z m-37 -32 c5
-11 10 -29 10 -39 0 -16 -6 -20 -31 -18 -44 2 -72 -38 -71 -99 0 -38 -3 -45
-19 -45 -38 0 -37 95 1 170 21 41 31 48 72 49 17 1 31 -6 38 -18z"/>
<path d="M5321 4024 c0 -6 -15 -14 -31 -18 -48 -9 -80 -48 -80 -96 0 -36 -3
-40 -24 -40 -44 0 -56 10 -50 39 l7 26 -22 -27 c-12 -16 -27 -28 -33 -28 -6 0
-4 8 5 18 10 10 17 31 17 46 0 24 -3 27 -22 23 -20 -6 -20 -5 -4 11 13 14 20
14 36 4 26 -16 26 0 -1 24 -17 16 -22 16 -30 4 -8 -13 -10 -13 -19 0 -8 12
-10 11 -8 -5 1 -11 -2 -39 -6 -62 -7 -37 -12 -43 -35 -44 -23 -1 -22 -2 10
-13 69 -21 90 -64 50 -100 -19 -17 -20 -17 -31 3 -6 12 -8 26 -4 32 4 8 0 8
-14 0 -25 -13 -41 -36 -21 -29 7 2 21 -5 31 -16 15 -19 19 -19 39 -8 22 14 31
9 42 -22 1 -4 19 -4 40 2 31 9 38 8 47 -6 8 -15 9 -15 10 4 0 11 -7 29 -15 40
-14 19 -14 18 -15 -3 0 -19 -6 -23 -30 -23 -23 0 -31 5 -36 25 -3 14 -4 31 -1
39 9 22 82 38 141 31 60 -8 57 -12 60 84 0 33 4 57 8 55 4 -2 10 1 14 7 4 7 3
9 -4 5 -6 -3 -13 2 -15 11 -3 10 -5 13 -6 7z"/>
<path d="M1190 3969 c96 -3 178 -7 183 -8 10 -1 9 -178 -1 -185 -4 -2 -113 -8
-242 -12 l-233 -7 6 78 c4 43 7 88 7 101 0 21 5 23 53 27 l52 3 -57 2 -56 2
-6 -67 c-4 -38 -8 -83 -11 -100 -5 -40 14 -61 52 -57 15 1 124 2 241 3 l212 1
0 109 0 108 -46 7 c-26 3 -110 5 -188 4 l-141 -2 175 -7z"/>
<path d="M2474 3868 c-23 -28 -27 -41 -13 -36 27 10 49 -11 43 -40 -7 -33 13
-54 51 -54 30 0 85 21 85 33 0 5 13 15 29 23 26 14 30 14 35 1 3 -8 10 -15 16
-15 7 0 8 6 0 19 -5 11 -11 30 -11 43 -1 20 -2 21 -6 3 -3 -11 -10 -23 -17
-27 -21 -14 -66 -8 -77 11 -7 11 -19 16 -31 13 -10 -2 -18 1 -18 8 0 7 -6 10
-12 7 -7 -3 -21 -8 -30 -12 -13 -5 -20 -1 -26 15 -6 17 -10 19 -18 8z"/>
<path d="M560 3710 c-36 -4 -97 -8 -136 -9 -87 -1 -84 5 -84 -173 l0 -128 133
-2 c95 -1 50 -4 -165 -12 -163 -6 -300 -15 -305 -20 -5 -5 6 -6 26 -2 18 3
288 7 600 8 495 2 532 3 291 9 -151 3 -282 8 -290 10 -8 2 39 5 105 9 l120 5
3 158 3 157 -118 -2 c-65 0 -147 -4 -183 -8z m282 -150 l-3 -150 -240 0 -239
0 0 134 0 134 113 11 c115 12 181 16 302 19 l70 2 -3 -150z"/>
<path d="M153 3302 c-84 -1 -153 -6 -153 -10 0 -4 169 -6 375 -4 353 2 375 1
375 -15 1 -17 1 -17 11 0 19 32 28 7 23 -61 -9 -115 -6 -111 -72 -115 -62 -4
-62 -4 151 -6 l67 -1 0 -30 0 -30 -417 -1 c-230 0 -440 -4 -468 -8 -27 -4 140
-5 373 -3 l422 5 0 -84 c0 -46 2 -225 3 -397 l2 -312 -100 0 c-117 -1 -333 -8
-424 -15 l-63 -4 6 262 c3 144 9 319 12 390 l6 127 -143 -2 -144 -2 136 -3
136 -4 -4 -192 c-3 -105 -8 -277 -11 -382 l-7 -190 -124 1 c-89 1 -119 -1
-106 -9 13 -7 152 -6 437 3 230 7 421 10 425 6 4 -3 2 -11 -3 -16 -16 -16
-389 -30 -649 -25 -146 2 -208 1 -170 -5 88 -12 444 -12 675 1 111 6 204 8
208 5 29 -30 -224 -49 -625 -48 -172 1 -313 -2 -313 -6 0 -18 649 -8 891 14
l67 6 -7 -33 -7 -33 -464 -4 c-256 -2 -468 -7 -472 -10 -4 -4 154 -6 350 -4
196 2 353 0 349 -4 -3 -4 -31 -6 -61 -5 -30 1 -57 -3 -61 -9 -3 -5 -17 -10
-31 -10 -28 0 -65 -17 -76 -34 -7 -11 -11 -11 -84 -14 -32 -2 -43 -6 -47 -22
-3 -12 -14 -20 -27 -20 -13 0 -20 -5 -18 -12 3 -7 -4 -19 -14 -28 -23 -18 -15
-50 13 -50 10 0 19 -7 19 -15 0 -8 9 -15 20 -15 11 0 20 -7 20 -15 0 -10 11
-15 35 -15 19 0 35 -4 35 -10 0 -5 9 -10 19 -10 11 0 23 -4 26 -10 3 -5 23 -9
43 -9 34 2 34 2 7 6 -16 3 -34 9 -39 14 -6 5 -19 9 -29 9 -15 0 -17 3 -8 14
10 11 4 13 -35 8 -43 -4 -46 -3 -40 15 6 18 3 20 -21 15 -27 -5 -28 -4 -10 15
17 20 17 20 -10 16 -22 -4 -25 -2 -13 6 12 9 10 11 -10 11 l-25 1 29 15 c21
12 25 18 16 24 -9 6 -6 9 11 12 16 2 23 9 21 21 -2 15 5 17 56 17 39 0 64 5
71 14 14 17 97 47 105 38 3 -3 6 0 6 7 0 8 15 11 43 10 23 -1 71 3 107 9 36 7
97 12 136 12 53 0 73 4 77 14 4 9 24 16 54 19 l48 3 -47 2 c-44 2 -48 4 -48
27 0 14 -4 25 -10 25 -5 0 -10 9 -10 20 0 16 -7 20 -30 20 -23 0 -30 4 -30 20
0 11 -6 20 -14 20 -21 0 -28 152 -24 495 l4 290 41 3 c34 3 42 7 47 27 11 45
0 54 -77 57 l-72 3 1 55 c1 30 3 72 5 92 2 21 1 39 -2 41 -6 6 -473 13 -646 9z"/>
<path d="M312 2748 l3 -243 40 -5 c22 -3 123 -3 225 0 l185 5 6 95 c4 52 8
160 10 240 l3 145 -237 3 -237 2 2 -242z m450 2 c-2 -124 -7 -228 -11 -233 -4
-4 -102 -6 -217 -5 l-209 3 -3 150 c-2 83 0 187 3 233 l7 82 216 -2 217 -3 -3
-225z"/>
<path d="M6356 2309 c-9 -274 3 -930 16 -880 6 21 6 111 0 230 -6 108 -8 348
-5 534 3 185 4 337 1 337 -3 0 -8 -99 -12 -221z"/>
<path d="M804 1729 c10 -6 78 -16 150 -20 209 -14 364 -49 402 -90 19 -21 19
-21 -11 -45 -17 -13 -36 -24 -42 -24 -7 0 -67 -18 -134 -41 -106 -36 -128 -40
-175 -34 -43 5 -55 3 -60 -8 -3 -8 -22 -18 -42 -22 -49 -9 -72 -22 -72 -41 0
-9 -11 -25 -25 -36 -32 -25 -32 -36 1 -48 20 -8 24 -13 15 -24 -13 -15 -5 -26
21 -26 11 0 18 -7 18 -20 0 -17 6 -20 38 -18 36 1 36 1 5 5 -37 5 -40 9 -17
34 15 17 14 18 -22 13 l-39 -5 33 29 34 30 -46 -5 c-71 -8 -59 26 20 58 l49
20 -40 -5 -40 -4 30 13 c17 8 52 17 78 21 32 4 44 10 35 15 -21 14 37 11 67
-3 21 -9 28 -9 38 4 6 9 70 35 141 58 70 24 139 52 152 64 23 19 24 23 10 42
-37 52 -172 86 -411 103 -71 6 -141 13 -155 16 -23 6 -23 5 -6 -6z"/>
<path d="M5623 680 c-66 -14 -138 -53 -141 -77 -4 -26 30 -47 64 -40 33 6 39
-8 9 -21 -14 -7 -25 -19 -25 -28 0 -14 7 -16 43 -11 24 3 51 9 61 13 17 7 17
5 2 -25 -9 -17 -14 -36 -10 -42 7 -11 55 -8 87 6 12 5 17 3 17 -10 0 -9 5 -25
10 -36 9 -16 14 -17 33 -8 12 6 30 21 39 33 10 12 18 15 18 8 0 -27 52 -35
108 -16 28 9 52 21 52 26 0 12 -12 9 -34 -7 -24 -18 -90 -20 -104 -2 -5 6 -11
20 -13 31 -3 15 -9 11 -29 -20 -14 -21 -33 -40 -44 -42 -16 -3 -18 1 -13 25 3
15 9 39 13 52 l7 24 -35 -26 c-43 -33 -98 -47 -98 -24 0 8 12 30 27 48 l28 32
-35 -6 c-19 -4 -52 -11 -73 -16 -61 -15 -40 11 29 34 32 12 66 24 74 27 8 3
-22 3 -66 0 -45 -2 -94 -2 -108 2 -117 29 196 114 317 86 56 -13 63 -12 49 2
-15 15 -198 21 -259 8z"/>
</g>
</svg>
