<?xml version="1.0" standalone="no"?>
<!DOCTYPE svg PUBLIC "-//W3C//DTD SVG 20010904//EN"
 "http://www.w3.org/TR/2001/REC-SVG-20010904/DTD/svg10.dtd">
<svg version="1.0" xmlns="http://www.w3.org/2000/svg"
 width="800.000000pt" height="1157.000000pt" viewBox="0 0 800.000000 1157.000000"
 preserveAspectRatio="xMidYMid meet">
<metadata>
Created by potrace 1.16, written by Peter Selinger 2001-2019
</metadata>
<g transform="translate(0.000000,1157.000000) scale(0.100000,-0.100000)"
fill="#000000" stroke="none">
<path d="M3262 11358 c-21 -29 -45 -63 -53 -75 -13 -22 -14 -22 -36 27 -35 81
-66 77 -105 -11 -11 -27 -24 -47 -28 -44 -4 2 -24 34 -45 70 -54 91 -70 88
-79 -15 -4 -44 -11 -82 -16 -85 -5 -3 -30 6 -56 20 -27 14 -64 25 -85 25 -33
0 -39 -3 -39 -21 0 -11 18 -38 40 -60 46 -45 53 -79 17 -79 -13 0 -27 -4 -33
-8 -5 -4 -27 -14 -49 -21 -57 -19 -161 -69 -225 -110 -181 -114 -356 -382
-390 -598 -8 -45 -20 -79 -37 -101 -49 -65 -103 -227 -137 -412 -16 -88 -60
-399 -71 -505 -3 -33 -15 -139 -26 -235 -11 -96 -26 -236 -35 -310 -8 -74 -19
-157 -24 -185 -5 -27 -16 -90 -25 -140 -30 -170 -53 -244 -92 -307 -29 -47
-48 -98 -79 -213 -20 -76 -24 -112 -24 -230 0 -145 5 -201 20 -270 35 -150
-33 -511 -155 -825 -105 -271 -135 -394 -135 -555 0 -78 6 -117 26 -184 26
-87 85 -214 104 -226 27 -17 14 -38 -102 -176 -32 -37 -58 -72 -58 -78 0 -5
-3 -11 -8 -13 -13 -5 -65 -79 -142 -198 -41 -63 -77 -117 -80 -120 -7 -6 -120
-190 -120 -196 0 -2 -18 -33 -40 -69 -22 -36 -40 -67 -40 -70 0 -2 -14 -28
-31 -57 -56 -94 -245 -431 -293 -521 -26 -49 -58 -106 -71 -128 -14 -21 -25
-41 -25 -43 0 -2 -18 -35 -40 -74 -54 -93 -53 -114 7 -153 46 -29 51 -29 129
-23 91 7 131 -7 156 -55 62 -121 179 -155 297 -86 51 30 68 35 124 35 l64 0
81 -78 c116 -112 169 -125 312 -72 45 17 92 30 106 30 48 0 94 -29 174 -110
100 -101 148 -125 234 -117 34 3 82 13 108 22 25 9 66 15 90 13 l43 -3 7 -50
c10 -79 9 -720 -2 -825 -6 -52 -15 -121 -21 -153 -10 -50 -15 -58 -38 -63 -32
-7 -101 -35 -119 -49 -24 -18 -82 -80 -82 -87 0 -11 16 -10 99 7 40 9 76 14
78 11 3 -2 -2 -19 -10 -38 -58 -133 -61 -142 -62 -233 0 -74 4 -96 21 -126 14
-24 24 -62 28 -115 12 -123 7 -117 95 -142 80 -23 141 -29 141 -13 0 5 16 16
35 25 19 9 37 21 40 26 3 6 10 10 14 10 11 0 44 -30 62 -56 100 -146 190 -210
334 -240 111 -23 362 -16 420 11 119 55 97 128 -73 240 -24 16 -43 38 -51 62
-20 57 -58 102 -102 121 -21 9 -39 22 -39 29 0 7 -4 13 -8 13 -4 0 -13 12 -19
28 -7 15 -33 61 -58 102 -118 194 -160 317 -152 440 7 106 43 346 82 545 27
138 35 181 51 280 8 55 19 104 24 108 4 5 27 -2 51 -14 71 -37 137 -31 232 20
77 41 148 54 162 31 3 -5 15 -10 25 -10 20 0 25 -15 35 -110 10 -85 -13 -328
-40 -428 -25 -91 -62 -200 -75 -217 -10 -13 -114 -220 -132 -265 -9 -19 -20
-48 -27 -63 -24 -60 -9 -174 28 -220 71 -86 85 -94 241 -148 109 -37 139 -43
239 -48 l115 -6 24 -105 c14 -58 26 -106 27 -108 1 -1 48 -9 105 -17 l103 -16
40 26 c21 15 42 35 44 46 7 27 24 24 65 -13 99 -90 138 -121 164 -133 114 -50
155 -56 346 -56 123 0 228 15 228 32 0 5 6 9 14 9 20 0 66 50 66 73 0 25 -46
87 -66 87 -7 0 -14 5 -14 10 0 6 -6 10 -13 10 -7 0 -36 11 -65 25 -44 21 -52
29 -58 61 -8 45 -86 130 -126 138 -16 3 -38 8 -51 11 -12 2 -30 17 -39 33 -10
16 -30 43 -45 59 -16 17 -56 66 -90 110 -35 44 -72 91 -84 104 -52 59 -54 74
-21 163 16 44 37 119 45 166 25 132 74 526 79 623 1 27 7 51 12 55 6 4 37 5
70 3 32 -2 61 1 65 6 13 18 61 43 83 43 38 1 197 -44 202 -56 2 -6 7 -193 11
-415 4 -248 12 -448 21 -519 31 -253 132 -575 207 -660 83 -94 170 -130 315
-130 110 0 177 12 230 42 17 10 48 27 67 38 20 11 42 20 50 20 8 0 15 4 15 9
0 5 14 14 30 21 70 29 123 100 140 188 16 80 7 307 -14 382 -16 56 -28 217
-46 638 -12 268 -2 445 32 590 l22 93 82 -6 c45 -4 91 -4 104 0 24 8 24 5 0
295 -5 63 -15 194 -21 291 l-11 175 41 65 c22 35 41 71 41 80 0 8 4 19 9 25
45 45 159 570 190 879 42 400 42 563 1 965 -11 106 -25 197 -35 229 -10 33 8
24 34 -17 21 -33 24 -53 32 -207 13 -249 46 -506 85 -654 25 -99 85 -245 174
-426 49 -99 98 -205 110 -235 52 -132 62 -160 89 -245 16 -49 36 -119 45 -155
8 -36 21 -90 28 -120 17 -74 17 -363 -1 -455 -43 -225 -83 -296 -243 -435 -48
-42 -64 -61 -55 -67 44 -34 216 -44 283 -17 58 23 107 47 121 61 26 24 82 -8
123 -69 38 -58 51 -50 88 49 63 173 108 533 99 783 -5 133 -11 175 -41 293
-20 76 -47 165 -62 197 -15 33 -24 66 -20 75 13 36 142 61 194 38 17 -9 32
-18 32 -22 0 -3 12 -19 26 -35 32 -34 33 -33 64 79 26 94 32 313 11 405 -15
68 -73 253 -81 260 -3 3 -21 34 -39 70 -18 36 -40 72 -47 81 -8 8 -14 20 -14
25 0 20 -187 204 -270 265 -163 121 -282 256 -355 398 -33 66 -32 94 3 112 64
32 190 121 234 164 57 57 91 125 90 183 0 45 -18 102 -32 102 -14 0 -20 60 -8
86 7 14 32 36 57 49 58 29 84 58 106 118 33 89 -3 246 -67 292 -24 16 -95 39
-188 60 -30 7 -107 32 -170 55 -190 70 -282 74 -509 24 -160 -36 -171 -37
-171 -28 0 5 30 41 66 79 85 90 128 157 170 268 29 75 36 109 41 199 8 136 17
139 130 36 59 -53 86 -51 149 10 27 26 63 65 79 87 17 22 38 49 48 59 9 11 22
35 29 53 7 18 15 33 19 33 4 0 11 25 14 55 6 42 3 67 -10 102 -19 49 -86 137
-143 187 -20 17 -41 37 -48 44 -7 6 -17 12 -23 12 -6 0 -11 5 -11 10 0 6 -6
10 -14 10 -8 0 -16 5 -18 12 -9 27 -189 18 -233 -12 -21 -14 -106 -42 -112
-36 -3 3 -12 27 -19 53 -43 159 -111 301 -202 422 -57 77 -155 181 -170 181
-4 0 -18 9 -30 20 -57 53 -249 128 -372 145 -25 3 -54 8 -65 10 -11 2 -23 4
-27 4 -3 1 -9 28 -13 62 -4 33 -13 73 -21 87 -8 15 -14 32 -14 38 0 29 -86
100 -147 122 -18 7 -46 17 -62 23 -41 15 -51 47 -51 167 0 122 -18 254 -50
367 -20 72 -48 143 -60 155 -3 3 -12 19 -20 35 -54 111 -205 276 -329 359
-116 78 -294 155 -436 188 -58 13 -304 47 -347 48 -30 0 -38 4 -38 18 0 10 4
22 9 28 4 5 11 21 15 37 5 23 2 29 -18 38 -21 10 -31 8 -63 -11 -21 -12 -47
-34 -58 -47 -59 -75 -56 -76 -53 7 4 96 -9 100 -86 25 -31 -31 -61 -53 -65
-50 -5 2 -12 21 -15 40 -11 58 -58 65 -100 14 l-20 -24 -9 35 c-19 76 -43 78
-95 8z m74 -13 c24 -58 22 -70 -40 -207 -31 -69 -50 -63 -77 21 l-22 68 33 49
c19 27 37 51 40 54 4 3 12 15 19 28 16 31 30 28 47 -13z m-332 -78 l28 -48
-17 -54 c-9 -30 -21 -57 -26 -61 -5 -3 -16 11 -26 30 -9 20 -21 36 -26 36 -9
0 0 167 10 183 3 5 11 -2 17 -15 7 -13 25 -45 40 -71z m625 34 c-5 -20 -9 -53
-9 -73 0 -20 -10 -59 -22 -87 -18 -39 -28 -51 -45 -51 -28 0 -29 2 -38 86 l-7
70 58 57 c62 61 77 60 63 -2z m-471 -13 c11 -29 28 -84 37 -122 18 -75 32 -96
65 -96 21 0 80 79 80 107 0 7 4 21 9 31 5 9 19 40 31 68 21 50 52 80 70 69 13
-8 28 -68 41 -164 12 -93 25 -114 66 -109 20 2 33 14 49 43 13 22 27 45 33 52
6 7 11 15 11 18 0 14 82 115 109 134 34 24 61 27 61 7 0 -8 -9 -36 -21 -63
-11 -26 -33 -96 -49 -155 -16 -59 -38 -122 -51 -139 -51 -72 -219 -115 -449
-113 -148 1 -333 24 -353 44 -5 4 -11 33 -13 63 -5 69 -60 195 -103 233 -53
47 -35 67 35 41 50 -19 83 -48 125 -109 22 -32 44 -58 48 -58 16 0 29 25 52
100 13 41 26 77 29 80 4 3 12 21 20 40 16 43 30 61 40 55 4 -3 17 -28 28 -57z
m903 -93 c160 -26 191 -34 302 -76 62 -23 114 -45 117 -49 3 -3 21 -12 40 -20
19 -7 42 -19 51 -27 8 -7 20 -13 25 -13 6 0 19 -8 30 -17 10 -10 37 -31 59
-48 98 -73 217 -214 285 -339 64 -117 107 -326 112 -548 3 -101 1 -117 -12
-114 -8 3 -48 8 -87 11 -132 12 -249 -31 -289 -107 -22 -43 -17 -126 11 -178
43 -79 53 -104 56 -150 4 -43 2 -46 -32 -64 -22 -12 -49 -40 -67 -70 -33 -55
-65 -87 -118 -117 -40 -22 -64 -24 -65 -6 0 10 -2 10 -6 0 -2 -7 -12 -13 -20
-13 -11 0 -14 6 -9 23 15 53 15 69 1 33 -8 -22 -14 -45 -12 -50 5 -15 -45 -35
-60 -24 -8 6 -9 19 -2 41 12 42 12 151 -1 216 -10 54 -56 157 -99 226 -14 22
-30 49 -36 60 -6 11 -18 20 -27 20 -10 0 -43 17 -74 38 -31 21 -64 38 -73 36
-23 -2 -231 -11 -401 -15 l-145 -5 -31 28 c-17 15 -40 44 -52 63 -28 48 -52
173 -52 274 0 79 -9 111 -25 86 -4 -6 -15 -47 -26 -91 -21 -87 -24 -178 -9
-279 11 -77 -1 -110 -45 -122 -30 -9 -222 -31 -280 -32 -16 0 -33 -5 -37 -10
-3 -6 -52 -10 -108 -10 l-102 -1 -29 34 c-97 116 -136 345 -84 494 19 53 19
63 0 47 -8 -7 -15 -18 -15 -25 0 -8 -4 -15 -9 -17 -5 -1 -20 -39 -32 -83 -32
-110 -31 -264 1 -350 38 -104 38 -117 -7 -142 -36 -20 -172 -61 -203 -61 -8 0
-22 -3 -31 -6 -11 -5 -21 1 -32 17 -9 13 -22 30 -29 38 -38 38 -110 158 -137
227 -37 96 -66 282 -56 360 12 97 45 204 92 302 25 52 49 97 52 100 3 3 11 12
16 22 100 166 292 301 537 378 34 11 53 -5 68 -58 14 -51 13 -72 -5 -72 -8 0
-29 -6 -47 -14 -18 -8 -58 -24 -88 -36 -58 -24 -103 -50 -97 -57 3 -2 17 3 33
12 51 27 142 65 156 65 8 0 19 5 25 11 19 19 41 2 45 -33 3 -33 3 -33 78 -45
41 -7 103 -17 136 -23 116 -19 381 -4 489 28 88 26 175 96 175 140 0 31 40
184 52 199 12 15 131 10 259 -12z m-1992 -1007 c2 -114 24 -210 69 -308 24
-50 77 -138 92 -150 3 -3 16 -20 29 -38 13 -19 34 -44 46 -56 l23 -23 58 18
c82 26 91 25 97 -13 3 -18 8 -52 12 -74 7 -41 7 -42 -29 -54 -51 -16 -57 -32
-10 -28 23 2 39 -2 42 -10 2 -6 -1 -12 -6 -12 -5 0 -13 -7 -16 -16 -5 -13 -1
-15 18 -10 40 10 47 -20 57 -233 12 -265 26 -421 44 -511 18 -87 44 -160 56
-160 5 0 9 -9 9 -21 0 -15 -5 -19 -17 -15 -10 3 -40 10 -68 16 -107 25 -141
40 -172 78 -17 20 -43 51 -57 67 -14 17 -26 35 -26 42 0 6 -4 13 -8 15 -16 6
-70 122 -95 203 -56 179 -72 314 -64 530 4 88 10 178 13 200 5 27 3 37 -4 30
-14 -14 -32 -185 -32 -313 0 -310 89 -602 232 -757 15 -16 23 -32 18 -33 -11
-4 -116 52 -137 73 -7 8 -23 22 -36 32 -12 10 -38 38 -57 63 -19 25 -37 47
-40 50 -3 3 -15 23 -27 46 -42 77 -83 222 -95 340 -7 63 -16 114 -20 114 -20
0 2 -186 34 -295 24 -82 77 -205 89 -205 4 0 11 -9 14 -20 4 -11 26 -42 50
-68 24 -26 40 -51 36 -55 -5 -5 -28 -13 -51 -18 -108 -24 -251 -116 -364 -233
-52 -54 -67 -65 -62 -46 38 146 69 356 116 795 11 105 27 237 35 295 8 58 22
161 30 230 38 298 121 600 165 600 4 0 8 -28 9 -62z m1315 -174 c12 -49 29
-86 57 -122 43 -58 45 -62 25 -62 -8 0 -16 -6 -19 -13 -4 -10 2 -13 19 -9 13
2 24 8 24 12 0 4 133 11 296 15 l295 7 72 -48 c40 -27 78 -56 84 -64 28 -33
94 -172 108 -226 18 -69 18 -205 1 -253 -11 -32 -19 -36 -132 -76 -161 -57
-170 -61 -220 -97 -76 -55 -109 -179 -95 -364 3 -39 -1 -57 -15 -77 -10 -15
-23 -27 -27 -27 -4 0 -32 -18 -61 -40 -29 -22 -55 -40 -59 -40 -3 0 -32 -17
-64 -38 -94 -63 -202 -91 -274 -72 -77 21 -322 149 -469 246 -213 140 -268
237 -356 627 l-17 78 22 20 c17 16 33 21 64 18 23 -2 92 -3 152 -3 90 -1 122
3 178 22 37 13 67 28 67 33 0 13 -20 11 -87 -6 -74 -20 -243 -21 -303 -2 -61
19 -116 52 -112 67 2 7 -1 16 -6 19 -6 3 -17 30 -26 59 l-15 54 62 28 c83 37
92 49 77 94 -22 69 10 69 78 -1 l43 -43 76 0 c42 0 105 5 141 12 53 10 66 10
70 -1 3 -9 9 -8 23 5 14 13 45 20 112 25 119 8 139 16 166 68 11 19 11 39 1
103 -13 79 -9 205 7 243 6 15 9 5 14 -40 3 -33 13 -92 23 -131z m1767 -117
c109 -36 139 -56 186 -122 22 -32 48 -147 39 -171 -4 -10 -28 -14 -93 -14 -48
0 -122 -5 -163 -11 -75 -10 -75 -10 -95 18 -52 70 -126 123 -174 123 -31 0
-34 -17 -5 -24 57 -15 116 -50 140 -85 13 -19 24 -38 24 -42 0 -8 -81 -32 -88
-25 -3 3 -12 0 -20 -6 -8 -7 -31 -18 -51 -26 -74 -27 -71 -28 -71 18 0 38 -24
108 -41 120 -16 11 -39 85 -39 124 0 56 30 101 82 124 65 30 75 31 188 28 80
-3 123 -10 181 -29z m414 -356 c126 -33 246 -83 283 -118 7 -7 16 -13 20 -13
20 0 212 -202 212 -223 0 -4 8 -17 18 -27 33 -35 101 -183 137 -295 19 -60 35
-115 35 -121 0 -6 -15 -22 -34 -35 -61 -41 -28 -39 57 5 232 119 314 115 452
-22 53 -53 79 -83 112 -133 56 -85 30 -198 -74 -320 -27 -31 -57 -67 -68 -80
-11 -13 -32 -31 -47 -38 -34 -17 -64 -5 -114 46 -18 18 -44 37 -59 43 -47 18
-145 10 -145 -12 0 -6 14 -8 35 -4 l35 7 0 -63 c0 -109 -47 -294 -86 -339 -8
-8 -14 -20 -14 -25 0 -5 -10 -21 -23 -35 -12 -15 -33 -41 -47 -59 -27 -35
-105 -112 -155 -152 -106 -85 -256 -156 -382 -183 l-33 -7 0 57 0 57 -31 -7
c-17 -4 -30 -3 -27 1 33 70 48 110 48 132 0 41 -14 56 -43 48 -29 -7 -45 -21
-85 -74 -15 -21 -33 -43 -40 -50 -7 -8 -25 -30 -40 -50 -48 -65 -62 -78 -62
-59 0 8 5 19 10 22 11 7 62 112 75 153 11 39 -3 82 -29 82 -29 0 -45 -15 -141
-135 -42 -54 -57 -68 -130 -130 -63 -53 -66 -54 -93 -44 -19 7 -21 12 -13 28
6 11 17 25 23 33 36 37 52 161 22 172 -9 3 -18 6 -20 6 -3 0 -40 -35 -83 -77
-89 -89 -110 -107 -135 -116 -18 -7 -97 14 -149 39 -16 8 -34 14 -41 14 -14 0
-167 78 -181 93 -7 7 -4 8 9 3 36 -12 136 -19 136 -9 0 5 -48 18 -107 27 -227
37 -449 138 -535 244 -48 60 -94 147 -103 195 l-8 39 34 -18 c19 -10 54 -17
82 -17 55 1 113 21 99 35 -6 6 -17 6 -30 -1 -29 -15 -108 -14 -140 3 -39 20
-59 46 -66 89 -9 47 0 77 22 77 9 0 29 6 44 14 26 14 48 6 48 -18 1 -15 67
-60 109 -74 19 -7 55 -12 80 -12 26 0 52 -5 59 -12 18 -18 26 -1 23 50 -1 27
-21 30 -21 2 0 -18 -7 -20 -55 -20 -90 0 -164 42 -201 115 -28 55 -44 170 -37
262 8 105 -11 109 -22 6 -5 -61 -1 -117 21 -234 6 -36 6 -37 -40 -54 -44 -17
-48 -17 -64 -1 -14 14 -17 36 -16 126 0 60 5 119 11 132 6 13 21 51 33 86 26
72 34 80 59 57 24 -21 96 -13 199 21 40 13 77 24 84 24 6 0 26 11 45 26 29 22
33 31 33 71 0 42 -18 84 -55 131 -21 28 -110 112 -118 112 -4 0 -17 8 -28 19
-11 10 -34 22 -51 25 -46 9 -22 29 89 72 95 37 355 111 425 121 22 3 39 12 43
22 2 9 15 27 27 41 13 14 35 44 51 67 16 26 48 55 80 73 57 33 209 83 302 99
33 6 71 13 85 15 14 2 95 3 180 1 118 -2 174 -7 235 -24z m-2961 -463 c29
-107 102 -246 164 -310 49 -51 191 -158 210 -158 9 0 62 -140 62 -163 0 -13
-9 -17 -35 -17 -19 0 -38 -1 -42 -2 -4 -2 -10 9 -14 24 -25 93 -109 107 -192
29 l-28 -26 -39 41 c-38 40 -46 60 -79 198 -21 86 -47 446 -33 446 5 0 16 -28
26 -62z m-330 -499 c52 -34 156 -79 185 -79 11 0 22 -4 25 -9 3 -5 20 -11 38
-13 72 -10 204 -41 216 -50 45 -37 -65 -196 -173 -248 -41 -20 -65 -25 -135
-25 -47 0 -96 2 -110 5 l-25 5 -6 -115 c-5 -79 -14 -136 -29 -183 l-23 -67
-24 15 c-32 21 -64 16 -74 -12 -6 -18 -3 -28 17 -46 l25 -24 -32 -31 c-55 -54
-150 -81 -334 -94 l-40 -3 -6 -110 c-4 -90 -10 -121 -32 -170 -37 -82 -42 -90
-59 -93 -16 -3 -57 66 -81 134 -12 37 -12 45 1 67 19 31 9 77 -17 77 -21 0
-31 50 -31 162 0 63 2 69 24 77 41 16 41 81 -1 81 -23 0 -24 21 -4 105 35 151
78 244 175 377 39 54 67 71 81 48 9 -14 43 -13 59 2 14 13 10 44 -7 66 -5 7
-8 14 -6 16 19 15 104 69 141 90 44 25 181 75 205 76 7 0 32 -14 57 -31z m935
-97 c231 -117 273 -119 459 -21 35 19 71 41 81 49 9 8 24 20 33 25 8 6 27 18
42 29 15 10 28 17 31 15 2 -3 -7 -42 -21 -89 -13 -46 -24 -109 -24 -140 l0
-56 -48 0 c-32 1 -53 -4 -63 -14 -21 -23 -39 -58 -39 -75 0 -8 -7 -15 -15 -15
-8 0 -15 5 -15 10 0 6 -5 10 -11 10 -6 0 -17 7 -25 15 -33 33 -113 5 -135 -47
-15 -36 -26 -36 -34 1 -3 16 -15 37 -25 46 -25 22 -95 31 -115 15 -19 -16 -32
-5 -37 29 -1 13 -14 32 -28 43 -20 15 -31 16 -59 8 -19 -5 -38 -15 -43 -22 -5
-8 -8 -3 -8 15 0 15 -12 51 -26 80 -33 65 -72 217 -46 182 4 -6 81 -48 171
-93z m-294 -2 c19 -37 19 -84 0 -104 -11 -11 -12 -17 -3 -22 6 -4 20 4 33 20
30 38 85 46 115 16 18 -18 21 -30 17 -73 -3 -29 -8 -64 -12 -79 -10 -39 5 -34
37 12 30 43 67 58 102 42 30 -14 39 -76 20 -133 -8 -23 -12 -44 -8 -48 4 -3 8
-1 11 4 2 6 14 31 27 55 27 51 61 69 103 54 34 -12 51 -46 61 -120 9 -70 27
-81 37 -22 17 100 47 140 102 131 41 -7 66 -31 85 -80 7 -18 15 -33 19 -33 3
0 9 28 12 62 5 54 10 67 36 90 17 16 40 28 50 28 21 0 71 -36 71 -51 0 -6 7
-17 15 -25 31 -31 18 -62 -52 -127 -103 -94 -229 -227 -287 -299 -26 -32 -27
-33 -42 -13 -8 11 -25 33 -37 49 -25 34 -68 77 -120 123 -39 36 -161 113 -177
113 -6 0 -10 4 -10 8 0 4 -17 14 -37 21 -49 17 -70 36 -90 80 -21 46 -72 121
-95 142 -10 9 -18 19 -18 23 0 3 -27 31 -59 62 -51 47 -58 59 -49 74 17 27 60
49 95 50 26 0 36 -6 48 -30z m-72 -146 c72 -78 73 -79 40 -117 -84 -98 -214
-167 -311 -167 -52 0 -177 41 -201 65 -14 13 -7 15 62 15 84 0 122 13 200 68
47 33 117 124 131 170 4 12 12 22 17 22 6 0 33 -25 62 -56z m126 -178 c46 -89
57 -151 42 -246 -10 -69 -35 -150 -60 -200 -5 -8 -31 -31 -58 -50 -92 -64
-217 -180 -277 -256 -12 -15 -30 -37 -41 -49 -11 -13 -33 -46 -50 -74 -22 -37
-38 -53 -58 -58 -36 -7 -51 -34 -36 -67 9 -19 8 -37 -6 -84 l-18 -59 -61 -12
c-108 -23 -234 -25 -306 -7 -74 19 -200 75 -200 89 0 5 13 27 29 50 38 54 49
154 27 236 -8 30 -12 70 -9 89 l6 34 51 -6 c28 -3 84 -6 124 -6 63 0 72 -2 72
-18 0 -39 46 -56 70 -27 7 9 13 28 14 42 1 20 11 32 44 49 43 23 103 82 120
119 5 11 18 39 27 63 14 33 22 41 36 37 31 -10 61 13 57 43 -2 20 -11 29 -34
36 -30 9 -32 12 -38 76 -4 36 -13 79 -21 94 -8 16 -15 34 -15 41 0 7 -6 15
-12 18 -9 3 -10 8 -2 16 7 8 16 5 34 -14 22 -23 30 -25 117 -25 68 0 107 5
144 19 53 21 74 19 83 -5 7 -18 50 -18 65 0 8 9 8 21 0 44 -10 31 -9 34 42 87
30 30 57 51 61 47 4 -4 21 -34 37 -66z m-629 -36 c0 -5 16 -44 35 -86 42 -91
53 -168 35 -256 -24 -123 -90 -211 -189 -250 -46 -18 -77 -22 -171 -22 -99 -1
-123 2 -173 23 -32 13 -61 21 -64 17 -3 -3 6 -30 20 -60 28 -57 57 -155 57
-193 0 -37 -21 -122 -33 -136 -7 -6 -18 -24 -26 -39 -8 -16 -17 -28 -20 -28
-13 0 -111 92 -111 105 0 7 11 32 25 57 43 77 57 130 64 233 l6 100 110 12
c170 19 184 24 268 99 92 82 137 203 137 365 0 55 3 69 15 69 8 0 15 -4 15
-10z m1542 -91 c26 -94 42 -139 50 -139 5 0 8 -6 8 -12 1 -7 16 -35 35 -63 18
-27 32 -52 30 -55 -2 -3 -32 -20 -67 -38 -36 -18 -74 -41 -86 -52 -12 -11 -25
-20 -30 -20 -5 0 -29 -18 -53 -40 -24 -22 -47 -40 -51 -40 -8 0 -156 -138
-192 -179 -12 -13 -33 -37 -49 -53 -15 -17 -35 -43 -44 -59 -22 -37 -34 -36
-88 4 -23 17 -51 37 -61 43 -17 10 -17 12 4 46 27 43 28 105 4 133 -33 37 -60
45 -152 45 l-91 0 -39 63 c-22 34 -40 67 -40 74 0 6 9 33 20 58 30 71 52 192
48 263 -5 82 -6 82 142 -8 96 -58 260 -207 260 -236 0 -6 8 -21 18 -32 18 -20
20 -21 36 -4 28 29 100 114 114 133 10 15 113 118 227 228 19 18 29 5 47 -60z
m204 -324 c29 -19 57 -35 63 -35 6 0 11 -4 11 -10 0 -5 6 -10 13 -10 36 0 64
-26 77 -69 19 -65 80 -180 130 -246 43 -55 137 -138 199 -175 39 -23 71 -44
71 -47 0 -19 -26 -42 -62 -56 -68 -25 -199 -57 -236 -57 -31 0 -32 1 -16 17
10 11 13 18 6 21 -23 7 -137 -131 -189 -228 -10 -19 -26 -46 -35 -60 -30 -46
-68 -115 -99 -180 -71 -148 -99 -211 -99 -223 0 -7 -4 -17 -9 -22 -17 -18 -89
-249 -101 -328 -17 -102 -8 -332 15 -407 9 -30 28 -86 42 -125 90 -248 108
-320 108 -435 0 -77 -3 -89 -29 -131 -17 -26 -41 -54 -55 -62 -14 -8 -39 -27
-56 -41 -24 -21 -41 -26 -81 -26 -92 0 -160 75 -224 248 -8 20 -17 29 -22 24
-9 -9 -5 -22 43 -129 31 -67 90 -133 138 -153 38 -15 39 -25 4 -38 -100 -38
-251 -37 -299 0 -21 17 -28 18 -34 8 -7 -11 -21 -11 -82 4 -128 31 -206 94
-227 184 -30 132 -65 550 -76 907 -7 228 7 521 29 620 28 122 41 165 48 165 5
0 8 9 8 21 0 60 203 415 288 504 6 8 12 18 12 23 0 6 3 12 8 14 4 2 23 23 42
48 58 75 72 91 155 178 95 100 204 193 300 254 80 52 145 88 159 88 5 0 33
-16 62 -35z m-1092 -104 c20 -32 36 -62 36 -66 0 -4 -16 -26 -36 -49 -95 -107
-180 -208 -221 -261 -48 -64 -173 -253 -173 -263 0 -23 -27 -32 -56 -19 -34
14 -114 65 -114 72 0 15 36 110 62 165 54 111 121 199 254 334 12 12 28 26
109 92 85 70 94 69 139 -5z m2467 17 c5 -50 -24 -130 -67 -190 -19 -27 -34
-53 -34 -58 0 -6 -4 -10 -8 -10 -4 0 -15 -12 -24 -27 -9 -16 -31 -43 -48 -62
-22 -24 -28 -36 -19 -41 16 -11 194 170 279 283 49 66 71 86 89 87 21 0 23 -3
18 -32 -7 -41 -18 -67 -63 -143 -19 -33 -38 -68 -41 -77 -3 -10 -9 -18 -14
-18 -5 0 -9 -5 -9 -11 0 -17 -72 -104 -167 -202 -31 -31 -53 -60 -49 -64 6 -6
161 138 201 187 11 14 28 34 38 45 10 11 28 37 40 58 11 20 24 37 29 37 4 0 8
6 8 14 0 14 29 31 38 22 17 -17 -48 -174 -109 -262 -17 -25 -60 -75 -95 -112
-35 -36 -64 -70 -64 -74 0 -13 18 -9 27 5 4 7 33 32 63 57 30 25 57 47 60 50
10 12 104 70 112 70 35 0 -47 -108 -130 -170 -19 -14 -46 -32 -62 -41 -15 -8
-40 -23 -53 -32 -51 -33 -98 -57 -112 -57 -8 0 -15 -4 -15 -10 0 -5 -5 -10
-12 -10 -6 0 -45 -13 -87 -29 -42 -16 -143 -48 -226 -71 -145 -41 -296 -94
-535 -187 -63 -25 -128 -50 -145 -55 -16 -6 -43 -17 -60 -24 -40 -16 -239 -84
-248 -84 -15 0 -5 25 55 148 77 159 196 356 250 415 10 12 55 27 129 43 61 13
139 33 173 44 60 20 63 23 135 126 77 109 126 161 221 235 30 24 84 73 120
109 l65 65 3 -34 c2 -19 1 -44 -2 -57 -6 -21 -130 -213 -146 -224 -10 -7 -23
-50 -15 -50 4 0 37 18 73 39 63 37 118 79 184 144 16 15 31 27 34 27 7 0 84
85 103 114 20 30 94 106 103 106 4 0 9 -6 9 -12z m-1144 -63 c15 -25 32 -45
37 -45 4 0 -4 16 -19 36 -33 44 -26 53 23 29 20 -10 46 -20 57 -21 23 -3 128
-63 165 -94 17 -14 21 -23 13 -26 -20 -9 -15 -20 14 -33 23 -11 25 -10 13 3
-21 26 51 20 147 -11 84 -28 95 -40 55 -58 -12 -5 -22 -14 -22 -20 -1 -14 -66
-85 -79 -85 -6 0 -11 -11 -11 -23 0 -13 -9 -32 -20 -42 -20 -18 -20 -17 -20
13 0 21 -5 32 -14 32 -8 0 -16 5 -18 12 -3 7 -15 3 -36 -12 l-31 -23 -41 28
c-89 62 -190 196 -190 253 0 12 -9 27 -21 34 -18 12 -49 67 -49 89 0 21 20 6
47 -36z m2370 21 c37 -8 110 -31 161 -50 52 -19 116 -40 143 -47 33 -9 49 -18
49 -29 0 -38 46 -52 75 -23 16 16 20 16 54 -3 72 -38 112 -186 76 -281 -21
-54 -39 -74 -85 -93 -60 -25 -90 -66 -90 -124 0 -25 -4 -36 -15 -36 -10 0 -15
-10 -15 -34 0 -38 22 -53 60 -41 22 7 25 -4 21 -60 -5 -60 -111 -180 -203
-230 -13 -7 -54 -32 -93 -55 -93 -58 -170 -95 -224 -110 -55 -14 -120 1 -141
33 -29 46 -60 109 -60 122 0 7 -4 15 -9 17 -8 3 -47 103 -76 198 -8 25 -26 83
-40 130 -15 47 -32 105 -39 130 -7 25 -21 73 -31 108 -12 39 -15 66 -9 70 20
14 44 62 50 102 4 22 10 43 15 46 9 5 112 -46 148 -74 18 -14 22 -26 18 -42
-3 -13 -1 -32 4 -43 9 -16 18 -18 52 -13 36 5 44 2 58 -17 70 -98 91 -133 118
-190 31 -65 37 -100 25 -144 -5 -18 -14 -23 -41 -23 -29 0 -44 10 -99 67 -35
36 -64 72 -64 79 0 7 -4 14 -8 16 -5 2 -28 39 -51 83 -55 102 -51 96 -61 90
-10 -6 54 -134 82 -165 18 -19 19 -23 4 -45 -34 -51 -8 -98 41 -76 23 11 29 9
57 -16 39 -35 71 -53 94 -53 31 0 72 24 72 43 0 12 8 17 29 17 36 0 65 34 51
60 -10 19 -63 34 -68 19 -6 -15 -22 1 -22 22 0 10 -4 19 -10 19 -5 0 -10 4
-10 9 0 12 -66 125 -83 143 -7 7 -24 29 -37 48 -29 42 -112 120 -127 120 -4 0
-16 9 -27 19 -26 23 -92 61 -109 61 -19 1 -54 34 -62 60 l-7 23 78 -6 c57 -4
68 -3 39 3 -22 5 -53 9 -69 9 -28 1 -66 25 -66 43 0 4 43 8 95 8 91 0 95 -1
125 -30 37 -36 43 -37 71 -9 20 20 29 21 112 15 62 -4 96 -11 108 -22 12 -10
27 -14 42 -10 36 9 171 -29 260 -73 53 -27 77 -34 77 -25 0 8 -5 14 -10 14 -6
0 -27 11 -48 24 -37 24 -79 40 -182 70 -42 12 -59 23 -72 46 -20 36 -57 41
-65 9 -6 -20 -10 -21 -82 -14 -88 8 -121 14 -135 22 -5 4 -78 5 -162 4 -201
-3 -216 15 -44 56 80 19 221 40 277 42 23 0 72 -6 110 -13z m-3437 -64 c33
-16 35 -19 35 -69 -1 -68 -18 -82 -102 -83 -49 0 -63 -3 -63 -15 0 -8 4 -15 8
-15 11 0 32 -61 32 -92 0 -40 -22 -51 -90 -45 -63 5 -80 -2 -54 -24 23 -19 35
-56 28 -84 -8 -32 -54 -49 -114 -42 -55 7 -59 3 -31 -21 10 -10 21 -34 24 -55
5 -33 2 -43 -21 -64 -22 -21 -34 -24 -69 -20 -49 5 -58 0 -38 -20 38 -38 2
-114 -63 -133 -60 -18 -80 -4 -108 75 -39 111 -43 97 89 295 77 116 248 328
308 382 11 9 19 21 19 26 0 16 20 20 100 21 53 1 85 -4 110 -17z m2897 1 c2
-6 -8 -13 -22 -17 -25 -6 -33 -34 -19 -70 8 -20 41 -21 61 -1 20 21 29 13 53
-52 23 -62 21 -94 -12 -150 -18 -30 -22 -32 -37 -20 -9 7 -27 14 -39 15 -27 1
-42 18 -72 79 -45 94 -46 164 -2 177 11 4 29 18 42 31 24 25 41 28 47 8z
m-146 -95 c1 -7 1 -18 0 -24 -1 -7 8 -33 19 -59 25 -58 22 -64 -73 -131 l-38
-27 -20 21 c-22 25 -32 26 -60 12 -23 -13 -25 -46 -2 -58 14 -8 13 -11 -9 -26
-40 -26 -151 -67 -167 -61 -11 4 -9 10 8 29 12 13 23 36 24 52 2 26 -1 29 -26
27 -15 -1 -41 -11 -57 -23 -37 -26 -38 -13 -5 40 14 22 25 44 25 49 0 5 3 11
8 13 4 2 14 16 22 32 13 26 26 32 105 52 78 19 165 53 215 84 21 13 30 12 31
-2z m-2751 -95 c52 -34 130 -96 130 -102 0 -3 -39 -58 -86 -121 -47 -63 -88
-122 -91 -130 -4 -8 -12 -22 -19 -30 -7 -8 -38 -67 -69 -130 -32 -63 -59 -117
-60 -119 -5 -4 -169 82 -173 92 -2 4 -10 7 -17 7 -16 0 -35 30 -35 54 0 10 9
16 23 16 40 0 85 36 92 74 4 19 4 43 1 53 -5 16 2 21 43 32 41 10 52 18 66 47
11 23 14 45 9 69 l-6 35 43 0 c60 1 79 17 79 69 0 23 -5 52 -11 63 -20 37 36
52 81 21z m-1650 -11 c0 -37 144 -222 173 -222 6 0 24 -10 41 -23 17 -12 51
-31 76 -41 25 -10 54 -22 65 -27 100 -42 232 -50 376 -23 l86 15 74 -43 c47
-28 75 -51 77 -64 2 -13 -14 -36 -50 -69 -29 -27 -72 -67 -96 -89 -36 -34 -44
-39 -53 -26 -8 11 -10 11 -7 1 4 -15 -2 -22 -147 -170 -55 -56 -105 -99 -112
-96 -7 2 -13 -3 -13 -11 0 -9 -54 -71 -119 -138 -65 -66 -130 -133 -144 -148
-13 -16 -29 -28 -34 -28 -5 0 -15 -10 -21 -22 -9 -21 -27 -43 -124 -153 -14
-16 -30 -26 -35 -22 -4 5 -8 52 -7 105 1 98 19 183 73 336 24 68 24 66 12 66
-15 0 -77 -189 -96 -292 -16 -85 -17 -107 -6 -182 7 -48 17 -89 22 -92 5 -3 9
-13 9 -23 0 -27 52 -100 88 -121 52 -32 104 -42 161 -29 28 6 51 15 51 20 0 5
5 9 10 9 26 0 -5 -85 -49 -134 -65 -73 -214 -84 -336 -24 -101 50 -207 214
-245 381 -33 146 -27 258 26 447 16 55 105 308 129 365 23 53 63 198 80 285 9
47 21 101 26 121 5 20 9 54 9 76 0 53 10 103 21 103 5 0 9 -8 9 -18z m4513
-124 c51 -51 66 -73 76 -113 7 -27 21 -77 32 -110 55 -179 85 -269 115 -354
19 -52 34 -106 34 -121 0 -15 4 -40 10 -56 11 -32 22 -106 47 -299 29 -233 20
-773 -17 -1000 -6 -33 -24 -143 -40 -244 -93 -567 -192 -759 -419 -810 -35 -7
-38 -6 -34 10 3 11 9 19 13 19 31 0 155 174 148 208 -2 11 -15 -3 -36 -43 -41
-76 -114 -153 -169 -177 -60 -27 -193 -26 -193 1 0 4 21 30 48 57 47 49 99
159 89 187 -3 6 -10 -1 -16 -18 -62 -155 -136 -223 -245 -225 -66 0 -115 20
-155 66 -53 60 -66 125 -51 247 15 115 59 322 80 372 15 34 106 317 118 365
19 75 51 259 63 370 26 230 4 910 -31 943 -10 10 -11 -1 -6 -50 l7 -62 -68
-32 c-37 -17 -88 -39 -113 -49 -169 -68 -302 -201 -228 -229 25 -9 89 5 134
30 59 32 69 37 117 48 89 21 98 16 73 -42 -17 -41 -157 -187 -180 -187 -16 0
-106 -38 -116 -49 -3 -4 -18 -13 -35 -21 -59 -28 -83 -83 -50 -110 17 -14 113
-7 147 11 11 6 41 12 67 13 48 2 48 2 231 147 17 13 20 19 9 19 -9 0 -53 -27
-99 -60 -46 -33 -102 -65 -124 -71 -23 -6 -67 -19 -98 -30 -32 -10 -73 -19
-93 -19 -29 0 -35 4 -35 21 0 11 10 29 23 40 22 19 201 109 216 109 18 0 133
132 152 175 36 81 11 99 -98 74 -48 -11 -59 -16 -118 -49 -42 -24 -107 -42
-117 -32 -24 24 70 120 154 155 18 8 62 28 98 45 134 62 142 64 153 53 6 -6
12 -107 15 -272 l5 -262 -66 -62 c-62 -58 -140 -105 -269 -159 -45 -20 -82
-20 -97 -2 -9 11 -2 22 35 55 26 22 51 41 56 41 12 0 97 63 98 73 0 14 -26 7
-46 -12 -11 -10 -31 -24 -45 -31 -13 -7 -48 -32 -77 -54 -42 -33 -52 -46 -50
-66 2 -18 11 -27 33 -33 17 -5 43 -15 58 -23 37 -18 97 -18 167 1 30 8 56 13
58 10 2 -2 -8 -21 -22 -42 -30 -44 -32 -56 -11 -73 13 -11 24 -9 66 10 27 13
55 30 61 37 22 27 29 13 23 -44 -15 -126 -52 -274 -123 -483 -34 -104 -54
-135 -79 -126 -7 3 -13 2 -13 -3 0 -16 -228 -34 -348 -26 -123 7 -303 29 -362
45 -19 5 -73 16 -120 26 -75 14 -182 42 -355 90 -27 8 -77 24 -111 35 l-61 22
-6 81 c-6 83 -36 216 -62 273 -8 17 -15 40 -15 52 0 12 -3 21 -8 21 -12 0 -55
136 -78 245 -18 88 -18 268 -1 360 16 80 84 293 102 318 6 9 56 32 111 51 115
39 276 98 319 116 17 6 64 25 105 40 41 15 141 53 222 83 81 30 173 61 205 67
156 32 429 137 525 202 31 21 60 38 64 38 5 0 59 40 105 79 9 7 65 30 125 50
111 38 223 102 279 159 17 17 36 31 42 31 7 1 41 -27 76 -61z m-3442 -483 c36
-8 99 2 99 15 0 6 5 10 10 10 6 0 21 11 33 25 l22 25 65 -33 c126 -66 135 -72
134 -98 -1 -13 -11 -56 -23 -96 -47 -163 -54 -238 -55 -593 0 -340 9 -515 45
-830 22 -196 34 -252 61 -292 19 -27 19 -27 -2 -40 -13 -9 -20 -23 -20 -45 0
-32 2 -33 40 -33 33 0 40 3 40 20 0 25 20 25 62 2 30 -17 120 -40 220 -57 21
-3 40 -10 43 -15 10 -15 -35 -168 -57 -196 -12 -14 -22 -40 -23 -57 -1 -18
-21 -62 -44 -99 -22 -37 -41 -72 -41 -78 0 -5 -4 -10 -9 -10 -12 0 -63 40 -81
64 -51 66 -70 102 -70 132 0 37 -27 59 -60 49 -21 -7 -23 -11 -24 -59 -1 -26
-10 -34 -82 -72 -44 -23 -121 -57 -170 -75 -82 -31 -98 -33 -204 -33 -167 1
-363 53 -429 115 -11 11 -23 19 -27 19 -10 0 -79 77 -114 126 -16 23 -43 71
-61 108 -17 36 -37 66 -43 66 -7 0 -40 -18 -75 -41 -128 -83 -218 -122 -295
-127 -89 -5 -180 15 -283 65 -99 47 -206 150 -247 236 -31 67 -47 186 -27 208
6 8 30 46 53 84 23 39 44 72 48 75 4 3 15 21 26 40 10 19 24 40 31 47 6 7 21
28 33 48 24 39 24 39 51 25 44 -24 79 32 44 71 -14 15 -14 18 0 32 8 9 15 18
15 22 0 3 10 16 23 29 21 22 79 92 103 125 10 13 16 11 46 -14 65 -55 74 -61
118 -79 60 -24 176 -32 226 -16 55 18 116 70 141 121 23 49 47 129 40 135 -3
3 -21 -6 -42 -20 -54 -37 -99 -47 -156 -35 -27 6 -49 15 -49 20 0 5 -5 9 -11
9 -12 0 -24 12 -57 54 -39 51 -26 110 43 182 32 34 55 64 55 72 0 9 555 560
709 704 l115 107 29 -69 c24 -59 33 -70 58 -75z m4112 -348 c9 -23 17 -48 17
-55 0 -6 3 -12 8 -12 4 0 13 -13 20 -29 19 -43 105 -154 162 -208 41 -39 49
-53 48 -80 -1 -18 1 -36 5 -39 8 -9 49 -9 68 0 27 12 205 -143 297 -258 17
-21 102 -165 102 -172 0 -3 6 -20 14 -37 73 -160 103 -342 86 -520 -16 -164
-41 -212 -80 -156 -27 38 -61 49 -126 39 -61 -8 -110 -26 -132 -47 -7 -7 -20
-13 -28 -13 -8 0 -14 -4 -14 -10 0 -5 -6 -10 -14 -10 -8 0 -16 -7 -20 -15 -9
-25 -37 -19 -31 8 10 44 25 123 35 187 6 36 16 83 22 105 19 65 15 272 -6 320
-10 22 -28 61 -39 88 -12 26 -25 47 -29 47 -5 0 -8 6 -8 14 0 7 -14 28 -32 46
l-31 33 22 18 c16 13 21 27 19 46 -2 24 -8 29 -36 31 -27 3 -35 -1 -39 -17 -3
-12 -10 -18 -20 -14 -23 9 -263 248 -263 261 0 7 7 15 15 18 20 8 29 42 15 59
-17 20 -60 19 -76 -2 -7 -10 -14 -16 -16 -13 -9 12 -86 118 -110 150 -26 37
-103 188 -103 204 0 5 32 11 70 12 54 2 84 10 130 33 33 16 65 30 70 30 6 1
18 -18 28 -42z m-263 -158 c0 -16 130 -207 172 -254 18 -20 57 -61 85 -91 51
-54 53 -59 87 -187 51 -197 94 -327 144 -438 53 -117 62 -148 46 -157 -10 -6
-14 -19 -12 -38 3 -25 8 -29 38 -32 31 -3 39 -9 64 -56 l29 -54 -20 -103 c-11
-57 -18 -108 -16 -112 3 -4 26 8 53 28 53 39 90 46 90 17 0 -10 4 -22 9 -27 5
-6 19 -41 31 -80 12 -38 26 -80 31 -93 14 -35 11 -49 -12 -55 -30 -8 -24 -71
8 -75 34 -5 41 -21 44 -117 4 -86 3 -90 -18 -91 -35 -2 -53 -12 -53 -31 0 -29
15 -44 46 -46 l29 -3 -3 -104 c-3 -101 -14 -146 -32 -135 -18 11 -40 -8 -40
-36 0 -22 7 -32 26 -41 25 -12 26 -14 19 -78 -7 -75 -24 -140 -37 -140 -4 0
-8 -19 -8 -42 0 -51 -39 -170 -54 -165 -6 2 -15 12 -20 23 -11 24 -88 84 -108
84 -8 0 -23 7 -34 15 -18 14 -18 16 -1 29 9 7 17 21 17 31 0 19 -27 44 -47 45
-25 0 -44 -32 -38 -62 6 -27 5 -29 -16 -26 -12 2 -24 -3 -26 -9 -3 -9 5 -13
24 -13 115 -1 89 -42 -53 -85 -58 -18 -129 -19 -189 -4 l-44 11 102 102 c61
60 108 115 116 136 7 19 19 51 27 70 25 62 52 202 60 303 6 87 9 97 26 97 33
0 58 19 58 44 0 25 -17 36 -54 36 -20 0 -23 7 -33 88 -24 190 -93 418 -196
652 -13 30 -30 71 -37 90 -8 19 -29 59 -47 88 -18 29 -33 56 -33 60 0 5 -13
35 -30 67 -105 205 -175 521 -194 873 -4 85 -3 102 9 102 8 0 15 -5 15 -11z
m460 -545 c123 -100 210 -244 231 -379 10 -68 9 -100 -5 -205 -10 -69 -20
-128 -24 -132 -4 -4 -25 27 -47 70 -22 42 -43 79 -47 80 -5 2 -8 10 -8 17 0 7
-15 46 -34 87 -18 40 -39 89 -46 108 -6 19 -16 44 -21 55 -23 53 -97 302 -105
355 l-7 45 45 -41 c24 -23 55 -50 68 -60z m-1397 -36 c-24 -27 -80 -55 -169
-84 -72 -23 -154 -32 -154 -16 1 4 51 31 112 61 80 39 128 70 167 108 l56 54
3 -52 c2 -38 -1 -56 -15 -71z m-1498 -684 c28 -8 59 -19 70 -24 11 -4 47 -15
80 -24 33 -8 96 -25 140 -37 147 -40 248 -59 435 -84 210 -28 320 -31 470 -10
58 8 109 15 114 15 7 0 0 -69 -9 -78 -1 -1 -49 -12 -106 -23 -119 -23 -410
-29 -559 -10 -226 29 -449 88 -633 167 -109 48 -120 59 -101 103 11 25 18 32
31 26 10 -4 41 -13 68 -21z m-3129 -41 c25 -140 136 -274 284 -344 122 -58
164 -69 268 -69 99 0 151 19 290 103 96 59 122 68 122 42 0 -29 85 -167 137
-221 37 -39 108 -94 121 -94 6 0 12 -4 14 -9 5 -14 119 -53 213 -72 218 -44
385 -9 637 137 l48 27 20 -23 c11 -13 20 -26 20 -29 0 -4 27 -36 59 -71 55
-60 58 -66 45 -85 -8 -11 -27 -40 -43 -64 l-29 -44 -15 30 c-19 36 -49 157
-49 195 1 15 -3 30 -8 33 -11 7 -50 -16 -50 -30 -1 -18 -232 -185 -256 -185
-2 0 -27 -11 -56 -24 -100 -45 -182 -59 -303 -53 -170 9 -318 68 -399 158 -73
82 -136 237 -136 336 0 24 -2 43 -6 43 -3 0 -31 -28 -62 -62 -86 -93 -157
-141 -257 -173 -77 -24 -98 -27 -179 -23 -238 14 -406 134 -456 327 -13 48
-15 211 -5 254 10 38 23 33 31 -10z m-62 -71 c-11 -114 -12 -155 -4 -142 6 10
10 2 15 -26 8 -44 66 -160 95 -192 91 -97 258 -162 419 -162 120 0 215 34 320
112 42 32 55 37 62 27 5 -9 9 -10 9 -2 0 6 12 30 28 53 26 41 27 42 30 17 2
-15 -4 -64 -12 -110 -18 -96 -19 -107 -7 -87 6 8 13 36 16 62 8 58 20 62 29 9
3 -22 9 -41 13 -43 5 -1 19 -25 33 -52 43 -85 113 -152 204 -195 125 -59 205
-75 350 -68 82 4 139 12 177 25 82 29 196 89 261 139 34 25 64 40 73 37 10 -4
15 0 15 10 0 9 4 16 9 16 5 0 11 9 14 20 3 11 13 20 22 20 16 0 17 -9 13 -80
-3 -44 -1 -80 4 -80 4 0 8 9 8 21 0 11 5 17 10 14 6 -3 11 -45 12 -93 1 -82 2
-84 7 -28 l6 59 23 -49 c40 -83 94 -157 154 -209 85 -75 86 -75 96 -75 17 0
20 -23 48 -427 8 -102 7 -103 -52 -81 -45 16 -116 -1 -186 -44 -43 -27 -63
-33 -106 -32 -29 0 -56 4 -60 10 -4 5 -20 16 -37 24 -16 8 -48 26 -70 41 -69
46 -143 79 -175 79 -36 0 -80 -21 -122 -58 -57 -52 -141 -57 -210 -13 -25 16
-49 34 -52 40 -29 47 -163 66 -247 35 -24 -8 -78 -16 -120 -16 -90 -2 -105 7
-216 119 -111 113 -159 125 -286 74 -133 -53 -190 -40 -297 69 -50 51 -79 72
-110 80 -42 11 -140 5 -140 -9 0 -4 -27 -20 -59 -36 -50 -23 -67 -27 -107 -21
-63 8 -84 24 -141 101 -55 74 -75 81 -181 72 -59 -6 -71 -4 -109 19 -26 15
-43 32 -43 44 0 10 18 49 40 88 22 38 40 72 40 75 0 4 16 31 35 62 20 30 39
63 42 73 4 9 20 40 36 67 51 84 108 189 120 218 6 15 14 27 18 27 3 0 14 18
24 40 12 26 23 39 32 36 7 -3 13 -1 13 5 0 19 163 338 170 334 5 -3 6 -22 4
-43z m3114 16 c26 -12 90 -38 142 -59 72 -28 95 -41 93 -55 -1 -9 12 -28 28
-41 28 -24 29 -25 13 -53 -29 -48 -1 -80 33 -40 20 23 41 25 66 6 21 -16 57
-10 57 9 0 8 -13 23 -30 35 -40 29 -30 54 19 47 131 -19 177 -40 141 -62 -15
-9 -12 -55 3 -55 8 0 24 11 37 25 22 23 25 24 46 10 13 -8 35 -15 49 -15 22 0
25 3 20 20 -6 20 -3 21 56 18 58 -3 64 -5 69 -28 3 -14 11 -25 18 -24 28 2 32
5 32 19 0 17 45 21 55 5 9 -15 46 -12 64 4 13 12 74 21 117 17 6 -1 10 -11 10
-22 -1 -30 19 -34 43 -10 21 21 51 28 51 12 0 -12 46 -20 60 -11 9 6 9 13 1
28 -16 29 -15 29 29 34 45 4 46 1 30 -67 -21 -85 -40 -202 -40 -252 0 -76 32
-152 85 -202 39 -37 43 -44 35 -67 -22 -56 -4 -71 37 -32 23 21 24 22 53 4 18
-10 39 -15 50 -11 22 7 27 31 8 38 -22 7 0 20 33 19 46 -1 99 -29 99 -52 0
-27 27 -25 50 2 l18 22 37 -19 c33 -18 38 -18 48 -4 7 9 34 19 61 22 27 4 55
12 62 17 8 7 14 7 18 1 4 -5 2 -12 -4 -16 -5 -3 -10 -15 -10 -26 0 -27 50 -27
57 1 5 20 43 29 43 10 0 -5 6 -10 14 -10 23 0 34 -22 38 -75 3 -47 2 -50 -19
-47 -15 2 -27 -5 -39 -22 -19 -29 -36 -33 -54 -11 -7 8 -23 15 -36 15 -33 0
-31 -33 3 -58 26 -19 26 -20 10 -45 -9 -15 -17 -33 -17 -42 0 -22 39 -19 58 6
l17 20 46 -20 46 -21 6 -112 c3 -61 4 -115 1 -119 -2 -4 -16 3 -30 16 -25 24
-25 24 -8 53 18 32 14 62 -10 62 -9 0 -20 -8 -25 -17 -27 -47 -27 -47 -59 -24
-36 25 -51 26 -59 6 -3 -10 5 -25 22 -39 39 -34 25 -46 -53 -45 -107 2 -141
18 -107 52 8 9 15 25 15 37 0 28 -30 39 -44 16 -31 -51 -31 -51 -61 -28 -33
26 -53 28 -62 5 -4 -11 3 -24 23 -39 38 -31 24 -44 -53 -51 -44 -4 -68 -1 -91
11 -36 19 -39 28 -16 50 19 20 15 60 -8 64 -10 2 -23 -9 -34 -27 -22 -36 -27
-38 -54 -11 -24 24 -48 26 -57 4 -4 -12 5 -26 28 -45 19 -16 28 -29 22 -29 -7
0 -13 -7 -13 -15 0 -8 -12 -17 -27 -20 -16 -3 -41 -9 -58 -14 -26 -6 -35 -3
-67 31 -34 34 -43 68 -17 68 5 0 9 14 9 30 0 44 -34 39 -59 -8 l-12 -23 -35
22 c-58 35 -86 9 -37 -37 23 -21 25 -27 15 -50 -25 -53 -5 -72 36 -34 18 17
26 19 42 10 11 -6 20 -14 20 -18 0 -4 -44 -18 -97 -30 -107 -26 -245 -67 -281
-85 -25 -12 -24 -12 -88 38 -32 26 -46 30 -99 30 -37 0 -68 -5 -78 -14 -14
-11 -28 -2 -111 75 -80 75 -93 91 -84 107 5 10 7 25 4 33 -7 18 -42 18 -49 0
-7 -18 -40 -10 -63 15 -9 10 -21 19 -25 19 -5 0 -32 18 -61 40 -29 22 -58 40
-64 40 -6 0 -9 10 -7 24 4 17 -3 29 -23 45 -28 22 -28 22 -10 52 10 16 15 37
12 45 -9 22 -41 16 -56 -11 -15 -28 -32 -32 -50 -10 -14 17 -60 21 -60 5 0 -5
-6 -10 -14 -10 -14 0 -97 40 -106 51 -6 8 -205 109 -214 109 -16 0 -106 67
-106 78 0 7 7 20 15 29 21 21 15 47 -13 51 -16 3 -25 -3 -32 -22 -11 -29 -26
-32 -54 -11 -29 22 -56 19 -56 -6 0 -18 -4 -20 -22 -14 -13 4 -35 9 -50 12
-52 10 -52 26 -5 100 25 37 54 87 66 111 33 65 74 55 46 -12 -8 -19 -15 -40
-15 -46 0 -19 39 -10 58 15 l20 25 26 -21 c30 -23 66 -18 66 10 0 10 -11 24
-25 31 -29 15 -32 35 -10 57 21 20 15 47 -11 51 -14 2 -24 -5 -32 -23 -14 -30
-22 -31 -52 -7 -20 16 -21 22 -11 57 5 22 12 51 15 65 3 14 11 33 18 43 13 18
15 18 44 1 33 -19 64 -14 64 11 0 8 -11 21 -25 27 -14 6 -25 14 -25 18 0 3 34
12 76 19 66 11 78 11 99 -3 23 -15 24 -17 9 -52 -21 -49 -1 -64 36 -29 24 23
28 24 46 10 25 -19 74 -20 74 -1 0 8 -11 23 -25 34 -29 23 -32 44 -9 63 10 8
14 22 10 40 -4 23 1 31 37 55 23 16 48 37 55 47 17 22 23 22 80 -5z m-648
-729 c3 -3 20 -10 39 -14 36 -8 125 -43 236 -95 39 -18 81 -37 95 -44 14 -6
27 -13 30 -16 3 -3 38 -22 78 -43 97 -51 256 -148 260 -159 2 -4 8 -8 13 -8 9
0 157 -97 204 -134 170 -132 245 -202 245 -226 0 -15 -25 -40 -40 -40 -6 0
-26 15 -44 33 -19 17 -53 48 -76 67 -24 19 -52 43 -63 53 -108 94 -215 168
-294 207 -23 11 -45 24 -48 30 -3 5 -14 10 -24 10 -9 0 -26 8 -37 18 -10 9
-30 22 -44 28 -61 28 -125 59 -130 64 -12 12 -51 30 -65 30 -8 0 -15 5 -15 10
0 6 -7 10 -15 10 -14 0 -53 18 -65 30 -10 11 -238 115 -270 124 -131 36 -157
56 -110 89 18 12 28 12 78 -1 31 -9 59 -19 62 -23z m-70 -75 c25 -9 61 -23 80
-32 l35 -17 5 -94 c3 -53 1 -95 -4 -99 -6 -3 -12 0 -14 6 -2 7 -9 12 -15 12
-15 0 -135 123 -162 165 -11 17 -26 43 -32 59 l-13 28 38 -7 c20 -3 57 -13 82
-21z m197 -76 c15 -7 30 -15 33 -19 3 -3 106 -57 230 -119 124 -62 230 -116
236 -121 6 -5 33 -21 60 -35 88 -47 317 -222 426 -326 26 -24 27 -31 22 -80
-78 -743 -104 -901 -182 -1068 -22 -48 -127 -205 -165 -248 -125 -140 -199
-183 -328 -190 l-86 -4 -23 36 c-47 76 -36 200 26 309 26 45 30 62 14 52 -38
-24 -90 -159 -90 -234 0 -47 20 -131 32 -131 4 0 8 -7 8 -15 0 -21 -33 -19
-141 11 -52 14 -104 28 -117 31 -41 10 -57 49 -57 138 0 86 11 124 57 193 15
24 28 47 28 52 0 16 -25 1 -36 -23 -6 -12 -24 -44 -39 -71 -24 -41 -30 -65
-33 -133 -3 -54 0 -88 7 -97 6 -7 8 -21 5 -31 -4 -9 -10 -13 -13 -8 -3 4 -25
20 -48 35 -23 15 -57 49 -75 75 -30 44 -33 55 -32 118 0 61 7 85 48 181 26 62
60 133 77 158 16 26 29 49 29 53 0 3 12 31 26 61 42 89 71 200 89 343 18 143
15 265 -20 639 -8 85 -17 228 -21 318 -7 178 -8 177 53 150z m2616 -474 c77
-7 93 -17 80 -50 -5 -13 -20 -15 -112 -9 -181 12 -662 -23 -836 -61 -83 -18
-209 -48 -285 -69 -57 -16 -90 -12 -90 9 0 7 10 17 23 23 45 21 253 81 317 92
36 7 103 19 150 27 193 35 565 53 753 38z m-133 -106 c0 -18 -7 -58 -15 -88
-28 -104 -38 -354 -26 -605 21 -415 31 -539 47 -595 22 -78 31 -358 13 -402
-22 -55 -60 -107 -94 -128 -37 -23 -67 -28 -47 -8 27 27 3 214 -37 278 -24 40
-34 27 -15 -19 28 -62 44 -134 44 -192 0 -82 -23 -110 -140 -165 -80 -37 -105
-44 -157 -44 -35 0 -63 2 -63 4 0 3 10 21 21 41 19 31 21 50 20 148 -1 109
-13 177 -32 177 -11 0 -12 4 6 -82 21 -98 12 -193 -24 -249 -25 -40 -27 -41
-73 -36 -98 9 -222 97 -265 187 -58 124 -113 324 -148 535 -20 121 -25 185
-25 340 0 104 -5 323 -10 485 -8 231 -7 297 3 306 12 11 186 58 272 73 28 5
75 14 105 20 77 14 436 45 588 49 l52 2 0 -32z m-1220 1 c39 -24 52 -36 93
-92 23 -30 33 -36 52 -31 22 5 23 3 26 -46 2 -29 1 -54 -3 -56 -11 -7 -118 19
-118 28 0 26 -153 -5 -162 -33 -3 -8 -23 -10 -71 -5 -57 7 -67 10 -63 24 3 10
6 37 8 62 1 35 10 55 37 88 69 83 133 102 201 61z m-2396 -81 c22 -18 43 -35
46 -39 15 -19 78 -40 124 -42 48 -2 59 2 130 51 76 51 109 61 144 43 9 -5 31
-15 47 -22 17 -8 36 -20 43 -26 7 -7 19 -13 27 -13 20 0 25 -26 15 -78 -40
-191 -124 -684 -143 -833 -13 -103 -13 -104 -42 -110 -51 -11 -248 -10 -285 2
-19 6 -71 14 -115 17 -93 8 -86 -9 -60 163 14 100 16 175 13 518 -1 220 1 401
6 401 4 0 27 -15 50 -32z m67 -1084 c63 -12 119 -15 226 -11 l141 5 4 -40 c3
-35 1 -41 -22 -50 -37 -14 -259 -14 -300 0 -19 6 -61 17 -92 23 l-58 10 0 40
c0 21 4 39 9 39 5 0 46 -7 92 -16z m1944 -106 c22 -29 46 -59 53 -66 7 -8 25
-30 40 -50 15 -21 32 -42 37 -48 24 -27 52 -62 80 -98 27 -35 30 -47 30 -111
0 -45 5 -78 13 -88 8 -9 11 -21 7 -27 -19 -30 -160 16 -276 91 -31 20 -74 46
-97 59 -23 13 -42 27 -42 32 0 4 -4 8 -9 8 -19 0 -80 46 -81 60 0 9 9 22 20
30 11 8 20 19 20 25 0 7 12 22 26 36 14 13 51 63 82 111 31 49 56 88 57 88 0
0 19 -24 40 -52z m-1925 -4 c70 -18 258 -25 322 -11 33 7 37 5 43 -15 9 -28
84 -180 113 -228 12 -19 33 -56 47 -82 13 -26 29 -49 35 -53 17 -11 11 -33
-16 -60 -22 -22 -25 -33 -22 -78 l3 -52 -56 1 c-65 1 -142 33 -204 84 -52 43
-293 287 -367 371 -93 106 -119 142 -108 149 14 9 133 -6 210 -26z m-199 -43
c140 -168 411 -441 490 -494 70 -46 139 -69 200 -66 45 3 53 0 87 -34 64 -62
134 -70 162 -17 l11 21 41 -23 c60 -34 128 -108 128 -139 0 -20 -8 -30 -37
-43 -125 -55 -420 -47 -548 14 -77 37 -94 53 -194 178 -78 98 -133 144 -211
179 -66 29 -119 52 -163 68 -57 22 -64 33 -73 117 -5 49 -2 80 11 124 21 71
54 144 64 144 5 0 19 -13 32 -29z m1887 -235 c20 -12 84 -53 141 -90 57 -37
115 -72 130 -78 44 -18 76 -33 81 -38 11 -13 91 -30 139 -30 28 0 51 -3 51 -7
0 -15 62 -43 95 -43 24 0 39 7 54 26 l20 26 75 -36 c80 -39 99 -60 94 -104 -2
-21 -14 -32 -53 -52 -48 -24 -57 -25 -235 -25 -150 1 -196 4 -244 19 -81 25
-146 67 -221 144 -18 17 -35 32 -39 32 -4 0 -33 18 -65 40 -79 53 -156 87
-215 94 -27 3 -52 9 -55 12 -7 7 18 23 49 31 27 7 143 81 148 95 5 12 8 11 50
-16z m624 -93 c83 -85 76 -184 -11 -168 -69 13 -138 125 -112 182 8 18 18 23
49 23 31 0 45 -7 74 -37z m-812 -53 c135 -35 121 -23 118 -104 -2 -56 -6 -70
-18 -68 -8 2 -37 6 -65 8 -94 10 -92 8 -109 76 -8 35 -18 73 -22 86 -8 27 -2
28 96 2z m-1675 -22 c28 -11 55 -24 60 -29 17 -17 33 -148 19 -153 -7 -3 -41
4 -77 15 -73 22 -71 19 -83 133 -6 65 -6 69 12 61 11 -4 42 -16 69 -27z m844
-47 c72 -71 78 -171 11 -171 -86 0 -157 100 -134 188 5 18 13 22 45 22 31 0
46 -7 78 -39z"/>
<path d="M4083 9626 c-205 -130 -234 -140 -391 -134 -64 3 -124 8 -132 11 -16
7 -48 -8 -38 -18 14 -14 196 -36 248 -30 71 8 158 34 192 57 32 22 67 23 115
3 49 -21 55 -10 14 26 -32 28 -33 29 -10 29 13 0 41 -5 62 -11 50 -14 66 -1
25 21 -43 23 -34 36 25 33 74 -4 58 20 -25 37 -31 6 -44 2 -85 -24z"/>
<path d="M5242 8855 c-30 -25 -62 -33 -62 -16 0 5 -8 11 -17 15 -10 3 -24 9
-30 12 -25 11 -12 -12 15 -28 24 -14 114 -100 150 -143 20 -24 72 -132 72
-149 0 -9 6 -16 14 -16 11 0 11 8 3 40 -6 22 -15 40 -19 40 -19 0 -6 46 18 67
20 17 28 35 32 72 5 58 -16 97 -65 117 -47 20 -78 17 -111 -11z"/>
<path d="M3450 7973 c-45 -18 -54 -90 -15 -128 40 -41 95 -30 120 22 34 72
-29 135 -105 106z"/>
<path d="M3442 7581 c-16 -13 -22 -30 -22 -57 1 -50 16 -69 61 -78 53 -10 89
21 89 78 0 35 -4 44 -29 59 -38 22 -73 22 -99 -2z"/>
<path d="M4074 4731 l-27 -31 -31 19 c-17 10 -37 16 -43 14 -15 -5 -18 -43 -4
-43 5 0 17 -7 25 -16 14 -14 14 -18 0 -46 -28 -54 -1 -78 38 -33 20 23 23 24
44 10 25 -16 70 -20 78 -7 6 10 -30 52 -44 52 -15 0 -12 30 5 46 19 19 19 38
1 53 -12 10 -20 6 -42 -18z"/>
<path d="M4940 4450 c-24 -34 -32 -36 -54 -15 -8 8 -24 15 -35 15 -30 0 -27
-38 4 -52 29 -13 30 -17 10 -44 -19 -25 -19 -64 0 -64 8 0 24 10 35 22 20 22
21 22 56 3 31 -16 36 -17 50 -4 13 14 12 18 -4 37 -11 12 -24 22 -31 22 -17 0
-13 22 9 45 12 13 18 29 15 38 -11 28 -34 27 -55 -3z"/>
<path d="M3785 4451 c-8 -27 -35 -34 -55 -16 -22 20 -60 20 -60 0 0 -8 11 -25
25 -36 22 -20 23 -24 10 -50 -28 -52 6 -80 41 -34 17 23 20 23 41 10 29 -19
73 -20 73 -1 0 8 -11 23 -25 34 -28 22 -33 50 -10 58 8 4 15 17 15 30 0 19 -5
24 -24 24 -15 0 -27 -7 -31 -19z"/>
<path d="M4072 4458 c-7 -7 -12 -18 -12 -25 0 -18 -25 -16 -40 2 -16 20 -60
20 -60 0 0 -8 11 -25 25 -36 23 -20 23 -24 10 -50 -22 -41 -19 -59 9 -59 16 0
27 7 31 20 7 22 26 26 54 9 10 -7 30 -9 45 -5 26 6 26 7 9 31 -10 13 -24 25
-30 25 -17 0 -16 16 3 45 9 14 14 32 10 40 -7 18 -37 20 -54 3z"/>
<path d="M4354 4442 c-21 -26 -23 -26 -41 -9 -24 21 -59 22 -66 2 -4 -9 5 -22
23 -35 28 -20 28 -21 14 -55 -8 -19 -14 -39 -14 -45 0 -15 40 -12 46 4 9 23
33 27 63 11 25 -12 31 -12 47 0 18 15 18 16 -4 34 -12 11 -28 21 -34 23 -8 3
-4 15 11 37 40 56 -2 87 -45 33z"/>
<path d="M4653 4455 c-7 -8 -13 -19 -13 -25 0 -15 -26 -12 -44 5 -8 8 -24 15
-35 15 -30 0 -27 -34 5 -55 24 -16 25 -18 10 -40 -9 -14 -16 -33 -16 -45 0
-28 33 -26 52 2 15 23 16 23 53 5 33 -16 40 -16 52 -4 13 13 12 17 -8 36 -13
11 -27 21 -31 21 -5 0 0 17 10 38 11 20 17 43 15 50 -6 16 -35 15 -50 -3z"/>
<path d="M5226 4445 c-19 -29 -29 -31 -50 -10 -24 25 -56 19 -56 -10 0 -15 6
-25 14 -25 26 0 35 -23 21 -50 -31 -54 -3 -84 35 -38 18 22 19 22 55 5 38 -18
55 -16 55 9 0 18 -24 44 -39 44 -15 0 -14 13 4 36 8 10 15 29 15 42 0 31 -33
29 -54 -3z"/>
<path d="M3788 4172 c-21 -30 -37 -34 -60 -18 -12 9 -30 16 -40 16 -28 0 -22
-38 7 -52 29 -13 30 -15 9 -56 -8 -18 -13 -36 -9 -42 9 -15 35 -12 41 5 9 23
38 27 72 9 53 -26 73 8 27 44 -29 23 -31 35 -10 52 8 7 15 23 15 36 0 29 -32
33 -52 6z"/>
<path d="M4066 4160 l-17 -30 -26 20 c-14 11 -34 20 -44 20 -29 0 -24 -38 6
-52 29 -13 30 -14 10 -52 -28 -53 7 -80 39 -31 l17 26 34 -21 c29 -18 38 -19
57 -9 l22 12 -36 31 -35 31 19 25 c21 29 16 60 -11 60 -9 0 -25 -14 -35 -30z"/>
<path d="M4352 4163 c-15 -21 -23 -25 -30 -16 -11 17 -68 28 -76 15 -3 -6 8
-24 26 -41 31 -28 31 -31 15 -49 -22 -24 -22 -51 0 -59 11 -4 22 1 31 15 17
26 34 28 66 7 23 -16 56 -11 56 7 0 5 -13 21 -29 35 l-29 26 20 28 c40 53 -9
84 -50 32z"/>
<path d="M4647 4161 l-10 -29 -31 19 c-17 10 -39 19 -48 19 -27 0 -22 -37 7
-56 24 -16 25 -18 10 -40 -20 -30 -19 -53 2 -61 10 -4 23 2 35 16 18 23 19 23
54 6 37 -17 64 -15 64 7 0 18 -12 33 -32 41 -18 6 -26 47 -9 47 5 0 11 8 13
18 13 48 -37 61 -55 13z"/>
<path d="M4938 4165 c-13 -29 -26 -31 -54 -10 -49 37 -74 2 -28 -39 26 -22 26
-23 9 -49 -29 -46 -2 -77 32 -37 21 24 39 25 59 5 20 -20 53 -19 61 1 4 12 -5
26 -28 46 -31 25 -32 29 -17 41 16 13 22 29 19 55 -2 22 -41 13 -53 -13z"/>
<path d="M5224 4161 l-18 -30 -27 20 c-56 40 -92 11 -40 -32 32 -26 33 -28 17
-50 -20 -29 -21 -59 -1 -59 8 0 20 9 27 20 13 21 43 27 52 11 10 -15 55 -19
67 -5 8 9 3 19 -20 40 -29 26 -30 29 -16 50 8 13 15 32 15 44 0 31 -36 25 -56
-9z"/>
<path d="M4360 3885 c-15 -29 -28 -31 -56 -10 -10 8 -27 15 -36 15 -27 0 -22
-35 7 -54 24 -16 25 -18 10 -46 -22 -43 -19 -60 10 -60 15 0 25 6 25 14 0 22
26 26 60 10 24 -13 34 -13 45 -4 22 18 19 28 -15 48 l-29 18 20 33 c11 19 18
40 15 47 -9 23 -42 16 -56 -11z"/>
<path d="M4653 3895 c-7 -8 -13 -19 -13 -25 0 -15 -26 -12 -44 5 -8 8 -24 15
-35 15 -30 0 -27 -36 4 -56 24 -16 25 -18 10 -40 -24 -37 -20 -64 10 -64 15 0
25 6 25 14 0 24 16 27 55 10 21 -8 44 -13 51 -10 20 7 17 33 -3 45 -45 26 -45
26 -25 61 11 18 18 39 15 46 -7 18 -34 17 -50 -1z"/>
<path d="M4946 3894 c-9 -8 -16 -20 -16 -25 0 -14 -27 -11 -44 6 -15 15 -66
21 -66 7 0 -16 32 -52 46 -52 17 0 17 -1 -1 -36 -8 -16 -15 -37 -15 -46 0 -26
35 -22 52 4 15 23 15 23 50 4 34 -18 68 -17 68 3 0 11 -24 37 -47 50 -14 8
-14 12 5 39 34 47 7 85 -32 46z"/>
<path d="M5232 3898 c-7 -7 -12 -18 -12 -25 0 -18 -35 -16 -50 2 -7 8 -21 15
-31 15 -27 0 -25 -37 3 -60 20 -16 21 -21 10 -44 -7 -15 -12 -33 -12 -41 0
-22 29 -18 50 7 l18 22 36 -19 c33 -18 37 -18 52 -4 14 15 14 18 -1 32 -9 9
-24 21 -33 26 -15 9 -15 11 0 28 16 18 22 35 19 61 -1 15 -33 16 -49 0z"/>
<path d="M5514 3885 c-19 -29 -36 -32 -54 -10 -17 20 -54 15 -58 -7 -2 -12 6
-21 22 -28 30 -11 31 -18 11 -67 -19 -45 -19 -43 8 -43 12 0 28 9 35 20 12 20
42 28 42 11 0 -12 45 -22 64 -15 16 6 23 34 9 34 -5 1 -18 9 -31 20 l-23 19
20 32 c15 24 17 36 9 46 -16 20 -36 16 -54 -12z"/>
<path d="M5804 3885 c-19 -29 -36 -32 -58 -10 -19 20 -45 19 -53 -1 -6 -16 13
-38 40 -47 7 -2 5 -19 -6 -45 -21 -53 -21 -52 4 -52 11 0 29 10 38 21 17 21
18 21 50 5 57 -30 86 4 35 42 -27 19 -27 19 -9 49 32 54 -7 90 -41 38z"/>
<path d="M4657 3612 c-10 -10 -17 -24 -17 -30 0 -16 -10 -15 -29 2 -28 24 -60
29 -68 10 -4 -12 2 -24 22 -40 28 -22 28 -24 12 -42 -9 -10 -17 -28 -17 -40 0
-29 34 -29 53 -2 14 20 16 20 50 4 60 -29 88 -3 42 40 -24 23 -34 56 -16 56
11 0 19 30 14 48 -7 17 -27 15 -46 -6z"/>
<path d="M4950 3618 c-6 -7 -17 -22 -24 -32 -12 -18 -14 -18 -45 5 -30 22 -32
22 -49 5 -15 -15 -15 -18 -2 -26 50 -29 54 -36 37 -61 -10 -13 -17 -31 -17
-41 0 -25 37 -23 50 2 13 24 33 26 50 5 14 -17 56 -20 65 -5 8 14 -13 50 -30
50 -22 0 -28 20 -12 38 21 25 27 48 14 61 -14 14 -24 14 -37 -1z"/>
</g>
</svg>
