<?xml version="1.0" standalone="no"?>
<!DOCTYPE svg PUBLIC "-//W3C//DTD SVG 20010904//EN"
 "http://www.w3.org/TR/2001/REC-SVG-20010904/DTD/svg10.dtd">
<svg version="1.0" xmlns="http://www.w3.org/2000/svg"
 width="800.000000pt" height="1086.000000pt" viewBox="0 0 800.000000 1086.000000"
 preserveAspectRatio="xMidYMid meet">
<metadata>
Created by potrace 1.16, written by Peter Selinger 2001-2019
</metadata>
<g transform="translate(0.000000,1086.000000) scale(0.100000,-0.100000)"
fill="#000000" stroke="none">
<path d="M4685 10605 c-36 -13 -44 -20 -65 -57 -11 -19 -2 -77 15 -94 6 -6 27
-16 46 -23 38 -12 66 -6 102 22 24 20 24 101 -1 125 -38 36 -56 41 -97 27z
m70 -31 c31 -20 36 -35 24 -78 -10 -37 -35 -52 -79 -47 -39 4 -60 29 -60 72 0
61 60 89 115 53z"/>
<path d="M5240 10543 c-25 -10 -39 -37 -33 -60 5 -21 1 -23 -29 -23 -37 0 -43
-8 -67 -81 -20 -64 -5 -109 37 -109 18 0 19 -5 15 -38 -5 -38 -4 -39 35 -55
22 -9 43 -21 47 -27 10 -16 62 -12 69 6 5 12 15 14 44 10 31 -5 42 -2 72 24
19 16 41 35 48 41 13 11 12 36 -2 70 -5 11 -1 18 12 21 23 7 33 49 15 66 -7 7
-13 24 -13 38 0 33 -22 54 -65 61 -29 5 -35 10 -35 29 0 22 -4 24 -47 24 -27
0 -57 2 -68 5 -11 2 -27 1 -35 -2z m113 -145 c16 -16 23 -33 21 -55 -3 -60
-58 -86 -118 -58 -32 15 -36 22 -36 55 0 70 82 106 133 58z"/>
<path d="M6033 10440 c-31 -13 -46 -45 -37 -83 8 -37 29 -56 64 -56 38 0 61
23 67 67 5 34 2 42 -22 60 -30 24 -39 25 -72 12z"/>
<path d="M4676 10209 c-26 -20 -56 -20 -56 1 0 17 -79 11 -107 -7 -66 -44
-123 -123 -123 -171 0 -11 -15 -32 -33 -48 -41 -36 -57 -73 -57 -128 0 -29 6
-49 21 -65 22 -24 39 -25 124 -6 26 6 33 3 44 -19 17 -32 63 -49 97 -36 14 6
54 10 89 10 63 0 63 0 81 38 10 20 19 45 21 55 2 10 19 48 38 84 25 47 32 70
25 78 -6 8 -8 35 -4 67 7 62 -6 113 -37 146 -26 29 -87 29 -123 1z m107 -3 c9
-7 17 -20 17 -28 0 -8 5 -19 11 -25 5 -5 9 -32 7 -59 l-3 -49 -79 0 c-76 0
-79 1 -83 24 -2 13 -11 30 -20 36 -16 12 -16 14 0 29 9 9 20 23 24 29 14 22
67 56 88 56 11 0 28 -6 38 -13z m-169 -18 c7 -11 7 -26 1 -44 -10 -28 -15 -32
-81 -59 -27 -11 -44 -25 -51 -46 -12 -30 -42 -39 -71 -20 -21 13 27 99 79 141
62 51 102 61 123 28z m194 -180 c18 -15 15 -46 -9 -80 -12 -16 -27 -48 -34
-71 -28 -92 -35 -100 -80 -94 -23 3 -57 0 -80 -9 -22 -7 -47 -14 -55 -14 -27
1 -54 51 -58 110 -3 48 0 58 23 83 25 27 36 31 64 27 8 -1 17 2 20 7 18 24 55
47 89 54 42 8 101 2 120 -13z m-341 -25 c-4 -3 1 -11 9 -18 14 -10 15 -17 4
-49 -6 -21 -10 -52 -8 -70 4 -33 3 -33 -53 -45 -85 -19 -99 -12 -99 56 0 60
24 107 64 123 25 10 92 13 83 3z"/>
<path d="M5875 10153 c-35 -19 -48 -31 -64 -60 -6 -13 -17 -20 -25 -17 -29 11
-89 -36 -107 -84 -14 -36 -11 -89 6 -106 20 -20 19 -25 -10 -48 -28 -22 -34
-77 -12 -105 42 -54 77 -83 100 -83 18 0 27 -7 31 -24 7 -28 -2 -81 -19 -116
-7 -14 -22 -54 -33 -90 -11 -36 -37 -110 -57 -165 -20 -55 -44 -122 -52 -150
-8 -27 -19 -54 -24 -60 -5 -5 -9 -16 -9 -25 0 -9 -17 -61 -39 -116 -34 -87
-97 -259 -106 -289 -1 -6 -34 -26 -71 -45 -38 -19 -70 -38 -72 -42 -2 -5 -8
-8 -13 -8 -8 0 -22 -10 -74 -55 -12 -11 -50 -72 -82 -135 -73 -141 -138 -242
-189 -295 -41 -42 -164 -153 -210 -189 -15 -12 -57 -49 -93 -83 -153 -144
-275 -225 -401 -267 -47 -15 -261 -46 -315 -45 -35 0 -64 33 -84 94 -17 53
-74 95 -130 95 -23 0 -41 -4 -41 -9 0 -17 -43 -25 -137 -25 -59 -1 -96 -5
-104 -13 -8 -8 -38 -13 -71 -13 -32 0 -58 -4 -58 -10 0 -20 -41 -50 -67 -50
-50 0 -178 -44 -203 -70 -7 -7 -47 -25 -98 -44 -27 -10 -69 -16 -107 -15 -53
2 -64 5 -68 21 -4 12 1 22 11 25 39 15 80 70 141 188 9 16 19 32 22 35 3 3 14
21 24 40 10 19 29 57 43 84 23 45 27 48 36 31 16 -29 81 -95 93 -95 6 0 16 -7
23 -15 31 -38 210 -100 223 -78 3 5 -12 29 -34 53 -21 25 -39 48 -39 53 0 4
-7 7 -16 7 -11 0 -8 -9 13 -37 15 -21 32 -42 38 -46 5 -5 -9 -6 -32 -3 -42 6
-125 43 -131 58 -2 4 -8 8 -13 8 -16 0 -85 69 -104 104 -18 32 -17 34 8 102
16 41 29 101 33 149 8 93 -11 286 -32 329 -8 16 -14 35 -14 43 0 7 -4 13 -10
13 -5 0 -10 7 -10 15 0 8 9 15 20 15 44 0 108 57 129 116 16 44 11 50 -28 30
-64 -34 -114 -13 -148 62 -22 49 -42 122 -34 126 3 2 31 7 61 11 75 10 120 30
120 53 0 25 10 34 25 22 14 -12 75 -2 75 12 0 5 15 22 34 39 19 16 38 43 41
59 4 17 13 34 21 38 19 10 44 81 51 143 4 37 1 53 -14 76 -25 36 -24 121 2
136 22 12 116 3 175 -18 69 -23 118 -74 176 -182 26 -48 54 -136 69 -220 9
-48 19 -99 21 -113 5 -22 4 -22 -10 5 -8 17 -20 49 -26 72 -6 23 -17 49 -25
57 -8 8 -15 24 -15 35 0 12 -4 21 -10 21 -5 0 -10 7 -10 15 0 8 -3 15 -7 15
-5 0 -19 17 -33 37 -35 51 -109 123 -116 112 -5 -9 44 -63 64 -71 13 -5 88
-120 110 -168 12 -25 26 -65 33 -90 7 -25 17 -51 23 -59 7 -9 11 -126 11 -350
0 -345 7 -417 44 -501 20 -44 55 -90 70 -90 6 0 11 -3 11 -7 0 -5 14 -16 31
-25 33 -19 99 -24 99 -8 0 6 -16 10 -36 10 -20 0 -52 9 -70 21 -40 24 -88 91
-98 134 -40 174 -45 235 -22 235 8 0 18 -4 21 -10 3 -5 15 -10 26 -10 10 0 19
-4 19 -10 0 -14 136 -13 177 2 18 7 33 16 33 21 0 4 -24 19 -54 33 -31 14 -69
42 -90 66 -19 23 -38 39 -42 35 -9 -8 57 -85 74 -86 6 -1 12 -5 12 -10 0 -5
11 -12 25 -15 14 -4 25 -13 25 -21 0 -12 -16 -15 -80 -15 -47 0 -80 4 -80 10
0 6 -9 10 -20 10 -11 0 -20 5 -20 10 0 6 -6 10 -14 10 -25 0 -28 38 -21 242
l7 199 26 -73 c13 -40 28 -75 31 -78 4 -3 12 -17 18 -31 12 -28 92 -99 112
-99 7 0 9 -5 5 -11 -3 -6 -17 -9 -30 -6 -32 6 -42 -11 -11 -18 33 -9 80 -2 84
11 2 6 -15 23 -38 39 -68 45 -106 84 -130 134 -28 60 -59 175 -59 225 0 21 -4
55 -9 75 -5 20 -15 68 -21 106 -15 92 -47 173 -111 285 -25 43 -95 98 -150
116 -36 13 -174 21 -207 12 -6 -2 -18 8 -25 22 -8 16 -23 26 -41 28 -16 2 -38
15 -48 28 -13 16 -30 24 -51 24 -18 1 -43 7 -57 15 -31 18 -72 19 -88 3 -7 -7
-40 -13 -74 -14 -66 -3 -135 -25 -153 -51 -19 -25 -135 49 -165 105 -22 40
-25 42 -70 42 -30 0 -52 6 -60 15 -7 8 -16 15 -21 15 -5 0 -31 10 -57 23 -41
19 -63 22 -172 22 -106 0 -135 -4 -190 -24 -78 -28 -158 -68 -178 -87 -7 -8
-20 -14 -28 -14 -8 0 -14 -4 -14 -10 0 -20 7 -17 146 61 62 34 176 59 270 58
108 0 179 -22 253 -76 5 -3 12 -65 11 -100 -1 -79 -7 -121 -23 -143 -10 -14
-17 -43 -17 -67 0 -28 -4 -43 -13 -43 -18 0 -39 -54 -31 -84 3 -15 2 -26 -3
-26 -21 0 -63 -50 -63 -75 0 -20 -5 -25 -24 -25 -25 0 -56 -23 -56 -42 0 -5
-17 0 -38 12 -44 27 -130 52 -137 40 -3 -5 -1 -28 5 -52 16 -72 13 -82 -35
-116 -35 -24 -56 -32 -90 -32 -36 0 -48 -5 -61 -25 -17 -26 -40 -33 -46 -14
-5 14 -78 3 -78 -10 0 -15 -32 -22 -47 -10 -7 7 -17 9 -21 5 -4 -4 1 -13 11
-20 25 -19 23 -82 -3 -96 -26 -14 -68 -3 -81 22 -16 30 -3 62 33 80 30 15 31
17 10 17 -13 1 -37 -7 -53 -16 -25 -15 -29 -23 -29 -60 0 -36 -4 -45 -24 -54
-18 -9 -31 -8 -52 3 -25 12 -29 19 -29 56 0 33 -4 42 -17 42 -10 0 -18 5 -18
10 0 13 -66 13 -91 0 -15 -8 -25 -6 -48 11 -23 17 -37 20 -64 15 -30 -6 -40
-2 -61 19 -19 19 -35 25 -69 25 -36 0 -46 4 -56 24 -9 16 -25 26 -52 30 -31 5
-39 11 -39 27 0 11 -13 32 -30 45 -26 22 -28 27 -15 40 8 8 22 27 31 42 14 24
56 62 179 167 17 14 35 25 42 25 6 0 18 6 25 13 20 19 156 83 224 106 87 30
167 36 244 18 82 -19 140 -40 140 -49 0 -5 9 -8 19 -8 11 0 21 -6 24 -12 4
-10 7 -10 18 0 11 10 10 12 -4 12 -9 0 -17 5 -17 10 0 6 -6 10 -13 10 -7 0
-37 11 -65 25 -29 14 -58 25 -64 25 -7 0 -19 4 -26 9 -13 8 -9 14 81 94 15 13
27 27 27 31 0 13 -17 4 -55 -31 -22 -20 -52 -47 -66 -61 -22 -19 -39 -24 -101
-27 -104 -4 -297 -75 -382 -140 -18 -14 -38 -25 -44 -25 -7 0 -12 -4 -12 -8 0
-4 -14 -16 -31 -26 -42 -25 -170 -153 -194 -194 -11 -18 -25 -32 -31 -32 -23
0 -54 -52 -54 -89 0 -20 -9 -68 -21 -106 -29 -101 -37 -287 -15 -392 20 -99
20 -113 1 -113 -17 0 -60 -26 -86 -51 -9 -9 -23 -21 -30 -25 -8 -5 -19 -18
-25 -29 -6 -11 -24 -22 -40 -23 -40 -5 -51 -16 -57 -60 -4 -20 -16 -45 -28
-55 -16 -14 -20 -26 -15 -48 4 -19 0 -39 -10 -54 -12 -18 -13 -28 -5 -44 6
-11 11 -38 11 -60 0 -34 -5 -43 -30 -58 -16 -9 -30 -21 -30 -25 0 -4 -7 -8
-15 -8 -8 0 -15 -4 -15 -8 0 -4 -14 -16 -30 -26 -17 -9 -47 -36 -68 -58 -20
-22 -43 -47 -49 -54 -7 -7 -13 -17 -13 -23 0 -6 -4 -11 -8 -11 -7 0 -56 -91
-82 -155 -19 -44 -53 -196 -46 -203 4 -4 16 3 26 16 10 12 21 22 25 22 4 0 5
-29 1 -65 -7 -70 10 -248 25 -253 5 -2 9 -12 9 -22 0 -10 5 -22 10 -25 6 -3
10 -14 10 -24 0 -32 81 -181 203 -375 31 -49 68 -120 83 -158 23 -60 26 -80
22 -146 -3 -43 -15 -108 -28 -145 -12 -38 -20 -70 -17 -73 12 -13 87 79 87
106 0 8 -10 0 -21 -18 -12 -18 -23 -31 -26 -29 -2 3 3 33 13 68 11 43 14 84
11 124 -7 69 -28 155 -38 155 -4 0 -10 13 -14 30 -4 17 -10 30 -15 30 -5 0
-11 8 -14 18 -3 9 -35 62 -71 117 -36 55 -65 106 -65 113 0 6 -3 12 -8 12 -4
0 -15 17 -24 38 -10 20 -25 51 -34 67 -28 49 -33 62 -43 102 -5 21 -17 65 -26
98 -22 76 -14 215 16 294 28 74 21 95 -13 43 -16 -23 -28 -46 -28 -52 0 -5 -4
-10 -10 -10 -38 0 46 238 113 317 56 67 140 143 157 143 6 0 10 4 10 8 0 15
79 53 103 50 14 -2 25 -13 32 -34 16 -50 58 -104 80 -104 11 0 29 -6 40 -14
24 -16 81 -26 197 -32 84 -5 87 -5 90 18 3 20 8 23 40 20 21 -2 48 2 60 9 19
10 25 8 47 -18 56 -65 81 -105 81 -128 0 -8 5 -15 10 -15 6 0 10 -8 10 -18 0
-10 4 -22 9 -28 14 -15 48 -116 70 -205 53 -221 35 -414 -60 -646 -23 -56 -36
-48 -37 20 -1 34 -7 85 -15 112 -12 43 -15 47 -20 25 -3 -14 -8 -56 -11 -95
-6 -92 -34 -181 -50 -164 -4 3 -13 55 -21 115 -15 113 -46 230 -58 218 -10
-11 -8 -82 4 -134 17 -74 14 -359 -5 -448 -25 -113 -77 -213 -152 -288 -87
-87 -155 -120 -126 -61 23 48 29 76 77 387 2 14 0 32 -6 40 -5 8 -9 12 -9 9 0
-9 -29 -222 -36 -264 -18 -112 -153 -309 -259 -378 -43 -28 -155 -67 -194 -67
-21 0 -15 7 35 43 33 23 71 52 84 65 13 12 27 22 32 22 4 0 8 6 8 13 0 6 14
28 30 47 16 19 30 41 30 48 0 6 3 12 8 12 10 0 34 79 27 91 -4 5 -2 9 3 9 13
0 35 207 24 227 -8 13 -11 10 -16 -18 -4 -19 -12 -46 -17 -61 -7 -18 -7 -32 0
-46 14 -27 -5 -133 -34 -192 -31 -60 -77 -115 -145 -170 -71 -57 -74 -59 -92
-60 -10 0 -18 -4 -18 -10 0 -5 -9 -10 -20 -10 -14 0 -20 -7 -20 -21 0 -20 3
-21 56 -15 72 8 168 40 219 73 56 36 175 160 175 182 0 5 7 14 15 21 21 17 20
-3 -1 -35 -14 -22 -14 -25 -1 -25 8 0 26 9 40 20 14 11 28 20 32 20 11 0 97
72 130 109 114 128 155 257 156 494 1 74 5 140 10 148 5 9 9 -21 9 -78 0 -50
4 -94 9 -98 12 -7 81 130 81 161 0 13 5 24 11 24 11 0 9 -68 -2 -109 -2 -7 2
-16 9 -18 6 -3 12 0 12 6 0 6 14 30 30 53 17 22 30 46 30 52 0 6 5 18 10 26 9
13 11 13 20 0 16 -25 11 -50 -13 -73 -40 -37 -77 -105 -83 -152 -6 -41 -4 -46
33 -84 l39 -41 13 -127 c7 -71 22 -204 33 -298 11 -94 21 -237 22 -320 1 -133
-3 -173 -37 -355 -66 -362 -77 -424 -77 -452 0 -36 -17 -78 -39 -97 -10 -9
-22 -29 -28 -46 -5 -17 -22 -36 -37 -43 -40 -20 -58 -68 -40 -104 8 -15 14
-43 14 -63 0 -20 7 -47 16 -60 19 -29 24 -18 -70 -130 -33 -38 -63 -71 -68
-73 -4 -2 -8 -8 -8 -14 0 -6 -8 -18 -18 -27 -10 -9 -29 -31 -42 -50 -34 -49
-110 -118 -180 -164 -41 -27 -53 -67 -20 -67 29 0 23 -31 -8 -45 -27 -12 -39
-49 -22 -70 10 -12 25 -13 69 -8 31 3 58 10 61 14 7 10 118 136 143 161 9 10
17 22 17 27 0 6 9 16 21 24 13 10 16 17 10 22 -11 6 -30 -8 -47 -36 -5 -9 -34
-44 -64 -78 -76 -86 -200 -147 -200 -98 0 10 48 47 108 82 31 18 152 149 152
164 0 10 -10 5 -32 -15 -100 -93 -135 -119 -170 -128 -48 -11 -40 12 19 52 60
41 113 93 173 172 19 25 40 49 46 55 6 5 33 37 60 70 27 33 51 62 54 65 3 3
17 21 30 40 13 19 27 37 31 40 9 7 38 99 42 135 3 26 8 30 38 33 19 1 45 8 58
15 20 10 25 9 37 -8 12 -16 26 -20 71 -19 48 2 59 -2 80 -24 12 -14 23 -29 23
-34 0 -4 -12 -41 -26 -81 -14 -39 -32 -95 -39 -123 -20 -74 -38 -372 -30 -501
5 -95 4 -113 -8 -113 -21 0 -58 98 -67 177 -4 38 -11 76 -15 85 -12 30 -65 35
-65 6 0 -5 7 -8 15 -4 8 3 22 -2 31 -11 16 -16 15 -18 -7 -32 -30 -20 -118
-108 -144 -145 -34 -48 -75 -162 -82 -225 -7 -68 -9 -70 -74 -95 -56 -20 -189
-144 -189 -176 0 -5 -10 -26 -21 -47 -16 -28 -23 -62 -27 -124 -4 -78 -2 -94
23 -158 16 -39 32 -71 37 -71 4 0 8 -6 8 -12 0 -7 14 -29 30 -48 16 -19 30
-39 30 -43 0 -5 19 -31 43 -58 49 -57 114 -85 178 -76 21 3 39 4 39 2 0 -1 -9
-38 -20 -81 -36 -145 -24 -252 42 -363 21 -34 38 -66 38 -70 0 -28 150 -176
201 -199 121 -54 256 -79 344 -63 68 13 165 41 180 53 6 5 21 17 34 28 13 11
28 20 33 20 4 0 8 6 8 13 0 6 12 20 25 30 24 17 24 17 41 -15 28 -54 58 -73
159 -100 172 -47 407 -31 465 31 22 22 80 137 80 156 0 9 3 15 8 13 4 -2 31
-16 61 -31 47 -25 61 -28 115 -23 34 3 67 5 74 5 6 1 12 8 12 17 0 12 -5 14
-17 9 -48 -20 -123 -17 -178 6 -59 26 -61 31 -56 112 2 37 -30 188 -49 232 -5
11 -19 49 -30 85 -12 36 -28 79 -35 95 -7 17 -19 45 -26 62 -8 18 -17 33 -21
33 -5 0 -8 7 -8 16 0 26 -112 201 -163 256 -45 48 -53 68 -31 75 5 1 29 -27
54 -62 25 -36 51 -73 57 -83 7 -9 34 -48 60 -87 25 -38 50 -72 53 -75 4 -3 17
-23 29 -45 12 -22 27 -49 34 -59 41 -65 79 -132 121 -216 46 -90 50 -95 80
-95 31 0 31 -1 37 -60 l6 -60 1 61 2 61 44 6 c42 6 116 41 116 56 0 3 18 17
40 31 22 14 40 28 40 32 0 4 18 11 39 14 22 4 42 13 45 20 3 8 11 14 19 14 7
0 28 8 48 18 19 9 65 30 102 47 37 16 67 33 67 39 0 5 8 16 18 25 10 9 28 34
41 56 22 37 24 56 31 243 6 159 12 208 24 227 9 13 16 32 16 41 0 9 8 30 18
47 16 29 116 171 147 209 28 34 77 151 86 207 6 31 14 101 19 157 9 104 31
206 55 260 14 30 59 84 70 84 3 0 24 9 48 19 23 10 67 27 97 37 80 27 151 101
176 184 13 41 26 65 39 70 11 5 14 9 8 9 -29 2 1 117 49 187 26 38 74 65 104
59 10 -2 31 -6 46 -9 15 -4 34 -14 44 -24 10 -9 25 -18 33 -19 9 -1 41 -9 71
-17 62 -18 186 -21 195 -6 3 6 17 10 31 10 13 0 24 5 24 10 0 6 5 10 10 10 18
0 57 45 84 97 24 44 27 68 37 219 5 93 14 178 19 189 34 80 55 119 73 136 11
10 17 22 14 26 -8 7 -29 -14 -64 -64 -38 -53 -52 -121 -62 -288 -8 -144 -11
-166 -35 -210 -37 -73 -72 -105 -111 -105 -8 0 -15 -4 -15 -10 0 -6 -37 -10
-91 -10 -85 0 -96 2 -175 40 -67 32 -96 40 -139 40 -30 0 -55 -4 -55 -10 0 -5
-6 -10 -12 -10 -27 0 -72 -87 -108 -210 -40 -134 -54 -164 -97 -211 -35 -37
-57 -50 -115 -69 -84 -27 -138 -51 -138 -62 0 -5 -6 -8 -12 -9 -41 -1 -91
-124 -107 -259 -38 -330 -43 -343 -178 -525 -70 -95 -122 -200 -133 -272 -6
-33 -9 -120 -8 -194 1 -118 -1 -141 -21 -191 -27 -71 -74 -111 -186 -162 -44
-20 -88 -41 -97 -46 -10 -6 -25 -10 -33 -10 -8 0 -15 -4 -15 -10 0 -5 -9 -10
-20 -10 -11 0 -20 -4 -20 -9 0 -5 -8 -12 -17 -15 -10 -4 -33 -19 -51 -36 -19
-16 -47 -35 -63 -42 -16 -7 -29 -16 -29 -19 0 -10 -107 -21 -129 -14 -12 3
-35 35 -54 73 -74 145 -137 255 -149 260 -4 2 -8 9 -8 15 0 7 -12 26 -26 42
-14 17 -30 39 -35 50 -5 11 -37 61 -72 110 -103 147 -231 334 -251 368 -10 18
-21 34 -25 37 -4 3 -26 33 -50 68 -40 60 -54 71 -65 54 -3 -4 -26 -6 -53 -3
-38 5 -50 11 -60 31 -6 14 -33 69 -59 123 -26 53 -55 105 -64 115 -8 9 -27 33
-40 52 -47 67 -153 161 -217 191 -35 17 -63 34 -63 40 0 21 61 70 122 98 63
28 67 28 82 12 9 -10 16 -23 16 -30 0 -22 34 -111 42 -111 5 0 8 -6 8 -13 0
-21 67 -150 130 -251 32 -52 61 -103 65 -115 3 -12 9 -21 13 -21 4 0 21 -23
37 -50 17 -27 36 -50 43 -50 13 0 17 16 5 22 -11 5 -120 173 -186 288 -48 84
-157 319 -157 340 0 6 -4 18 -9 28 -9 17 -12 31 -51 183 -48 192 -59 394 -29
552 12 64 60 219 84 272 7 17 21 50 31 74 26 65 124 255 175 338 28 46 51 73
62 73 9 0 17 -3 17 -7 0 -5 43 -21 95 -38 64 -20 95 -35 96 -45 0 -10 2 -11 6
-2 6 15 47 16 74 2 30 -17 241 -18 258 -2 7 7 26 16 42 19 16 3 34 12 40 19
10 12 39 20 39 11 0 -2 -9 -30 -20 -63 -11 -33 -20 -88 -20 -124 -1 -62 -16
-164 -40 -279 -6 -29 -9 -59 -7 -66 8 -18 129 -43 248 -49 l107 -7 22 47 c21
43 22 51 12 128 -6 44 -18 110 -27 146 -15 62 -44 246 -45 283 0 32 19 17 45
-35 41 -82 62 -143 97 -278 39 -154 49 -169 106 -170 51 0 74 11 124 60 21 20
50 43 65 51 36 18 73 56 73 74 0 15 -30 86 -40 95 -3 3 -17 21 -30 40 -29 41
-56 75 -87 107 -28 29 -29 43 -5 43 9 1 0 7 -21 15 -22 7 -49 22 -60 33 -12
11 -32 28 -44 38 -33 27 -29 34 22 34 42 0 95 16 95 29 0 8 46 61 53 61 3 0
22 15 41 33 35 32 49 52 102 155 15 28 31 52 36 52 4 0 8 5 8 10 0 11 69 128
89 152 6 7 43 57 82 112 89 124 156 192 242 245 37 22 69 41 70 41 4 0 217
128 231 139 6 4 31 19 56 32 25 13 47 27 50 30 3 4 29 19 59 34 30 15 80 44
111 66 32 21 60 39 63 39 4 0 38 20 76 45 38 25 72 45 76 45 3 0 21 11 39 25
18 14 38 25 44 25 7 0 12 5 12 10 0 6 4 10 10 10 13 0 114 62 118 72 2 4 9 8
17 8 7 0 18 7 26 16 7 8 26 22 42 31 35 17 40 12 58 -52 6 -22 14 -44 18 -50
4 -5 14 -30 21 -55 7 -25 20 -57 27 -73 19 -39 43 -251 43 -391 0 -130 13
-231 37 -286 56 -131 78 -155 215 -248 127 -85 167 -141 168 -235 0 -93 -33
-151 -152 -261 -9 -9 -21 -16 -26 -16 -5 0 -17 -9 -27 -20 -10 -11 -23 -20
-30 -20 -7 0 -20 -9 -30 -20 -10 -11 -23 -20 -29 -20 -6 0 -33 -18 -59 -39
-26 -22 -53 -41 -60 -44 -6 -2 -9 -8 -4 -12 4 -5 20 1 35 12 66 49 179 121
200 127 12 4 22 14 22 22 0 8 5 14 11 14 6 0 17 7 25 15 8 8 21 18 28 22 23
14 93 117 100 148 28 119 28 115 -5 181 -19 40 -46 75 -71 96 -23 18 -51 43
-63 56 -12 12 -30 22 -39 22 -9 0 -16 5 -16 10 0 6 -6 10 -13 10 -15 0 -107
87 -99 94 3 3 -4 14 -14 23 -32 28 -69 131 -69 191 0 28 -3 52 -6 52 -3 0 -9
83 -12 183 -7 190 -21 286 -56 375 -11 28 -18 58 -15 67 4 9 1 15 -8 15 -13 0
-34 56 -42 114 -1 11 -8 22 -14 24 -14 4 -72 -20 -72 -30 0 -5 -6 -8 -14 -8
-8 0 -16 -4 -18 -9 -3 -8 -133 -91 -144 -91 -2 0 -10 -5 -17 -10 -20 -18 -178
-110 -187 -110 -5 0 -10 -3 -12 -8 -3 -7 -191 -124 -243 -150 -16 -9 -32 -18
-35 -22 -3 -3 -52 -32 -110 -65 -58 -33 -107 -62 -110 -65 -3 -4 -25 -17 -50
-31 -25 -13 -47 -27 -50 -30 -3 -4 -33 -22 -67 -40 -110 -61 -181 -125 -261
-238 -26 -36 -50 -70 -54 -76 -41 -53 -174 -268 -183 -294 -11 -37 -30 -23
-54 42 -12 34 -30 79 -40 99 -15 34 -15 54 -4 200 15 214 17 219 61 260 21 19
44 54 52 77 8 27 23 47 39 56 30 15 111 99 111 114 0 6 5 11 10 11 6 0 10 8
10 18 0 10 5 23 10 28 6 6 12 30 14 55 3 43 11 57 84 132 16 17 91 48 192 80
19 6 37 14 40 17 5 4 64 27 175 66 44 16 46 17 162 68 45 20 87 36 92 36 5 0
11 3 13 8 2 4 26 18 53 32 28 13 52 27 55 31 3 3 24 18 46 32 43 27 164 144
164 159 0 5 11 20 24 33 14 14 37 42 53 62 15 21 31 40 34 43 3 3 41 52 84
110 68 92 95 123 95 107 0 -7 -29 -89 -39 -112 -7 -16 -50 -132 -98 -265 -103
-290 -102 -282 -41 -309 41 -18 75 -1 94 47 8 20 19 46 23 57 5 11 18 49 31
85 12 36 38 108 56 160 19 52 41 113 49 135 16 44 20 85 7 69 -5 -5 -19 -40
-31 -79 -29 -86 -92 -262 -135 -373 -18 -49 -38 -84 -48 -88 -26 -8 -81 24
-74 44 24 73 55 154 60 159 3 4 6 12 6 20 0 13 99 289 125 348 7 17 23 61 34
99 12 38 25 74 30 80 5 6 12 28 16 49 4 20 11 37 15 37 4 0 10 17 14 38 3 21
20 59 38 83 18 24 44 64 57 89 13 25 30 52 37 60 12 12 14 11 14 -8 0 -12 -4
-22 -10 -22 -5 0 -13 -12 -16 -27 -4 -16 -15 -35 -26 -44 -23 -21 -23 -34 3
-52 18 -13 19 -19 9 -58 -10 -42 -61 -191 -80 -234 -21 -49 -33 -95 -27 -101
4 -4 8 -5 10 -3 4 5 50 137 96 272 28 83 41 108 56 112 11 2 36 7 55 10 26 4
42 16 62 45 15 22 34 40 42 40 22 0 37 52 52 188 4 29 10 55 15 58 14 8 11 72
-5 102 -8 15 -24 36 -35 46 -23 21 -22 51 4 111 8 17 27 73 44 125 29 90 115
339 158 460 11 30 28 82 38 115 9 33 21 65 25 70 5 6 11 26 15 46 5 29 15 40
51 59 51 29 59 42 40 78 -7 15 -16 44 -20 65 -4 21 -9 44 -12 52 -5 13 46 45
71 45 7 0 34 -12 60 -26 76 -43 84 -89 24 -152 -27 -29 -37 -33 -70 -30 -40 4
-54 -6 -21 -14 61 -16 133 35 146 105 4 20 12 42 19 49 43 46 77 168 46 168
-7 0 -9 17 -6 47 6 63 -6 103 -44 141 -23 23 -40 32 -65 32 -18 0 -36 -4 -39
-10 -10 -17 -25 -11 -25 9 0 47 -111 69 -175 34z m133 -10 c26 -6 26 -24 1
-113 -14 -52 -25 -62 -57 -55 -12 3 -31 1 -42 -5 -37 -20 -87 56 -76 116 10
50 95 79 174 57z m158 -70 c31 -34 52 -99 37 -121 -8 -13 -27 -17 -98 -17
-101 0 -107 6 -77 79 34 86 90 110 138 59z m-338 -63 c36 -55 37 -64 20 -103
-10 -20 -20 -27 -43 -27 -16 0 -39 -3 -50 -6 -12 -3 -29 3 -43 14 -32 28 -29
79 8 130 41 58 66 56 108 -8z m180 -87 c19 -21 22 -33 17 -61 -8 -43 -21 -56
-62 -60 -95 -9 -136 89 -60 143 30 22 76 12 105 -22z m189 -18 c18 -8 23 -18
23 -47 0 -21 -4 -38 -10 -38 -5 0 -10 -7 -10 -15 0 -9 -7 -27 -16 -40 l-16
-24 -61 41 c-34 23 -64 42 -65 44 -11 8 12 83 26 88 28 7 105 2 129 -9z m-350
-65 c3 -11 9 -20 13 -20 4 0 5 -11 2 -25 -2 -14 -7 -25 -11 -25 -4 0 -13 -16
-20 -35 -27 -75 -68 -84 -124 -28 -30 29 -37 44 -37 74 0 29 5 41 22 50 34 18
70 27 111 28 31 1 40 -3 44 -19z m69 -58 c9 -6 27 -61 51 -158 9 -36 -23 -57
-76 -49 -57 9 -85 38 -77 79 4 17 10 32 14 36 4 3 18 26 32 53 24 46 35 54 56
39z m-76 -212 c0 -5 9 -10 19 -10 31 0 32 -13 10 -76 -11 -33 -24 -72 -29 -89
-8 -30 -56 -168 -151 -435 -28 -80 -62 -181 -75 -225 -37 -122 -68 -195 -81
-195 -7 0 -13 -4 -13 -10 0 -5 -6 -10 -14 -10 -7 0 -19 -6 -25 -14 -6 -8 -20
-16 -30 -19 -18 -4 -19 -3 -4 47 8 28 39 115 69 194 30 79 54 148 54 154 0 5
6 24 14 41 30 72 64 164 71 194 3 18 11 35 16 38 5 4 9 15 9 25 0 16 42 138
71 205 12 28 38 103 51 145 5 19 12 38 15 43 6 10 23 9 23 -3z m-2700 -45 c14
-8 37 -14 52 -15 15 0 34 -7 42 -16 15 -14 15 -18 -1 -45 -10 -16 -21 -29 -25
-29 -4 0 -8 -6 -8 -14 0 -27 -29 -41 -62 -28 -18 6 -38 8 -47 3 -9 -5 -20 -7
-26 -5 -12 5 -13 133 -2 152 11 16 46 15 77 -3z m-397 -34 c23 -16 54 -42 68
-58 37 -40 89 -130 89 -152 0 -11 4 -21 8 -23 4 -1 16 -32 26 -68 22 -75 37
-430 18 -430 -5 0 -13 17 -17 38 -10 55 -51 136 -87 171 -33 32 -71 53 -153
83 -68 25 -95 24 -95 -3 0 -18 2 -19 15 -9 13 11 24 11 58 0 105 -31 183 -90
215 -163 26 -59 44 -135 37 -158 -7 -20 -45 -27 -45 -8 0 6 -16 8 -42 5 -24
-2 -50 -5 -58 -5 -12 -1 -13 -3 -1 -10 10 -6 4 -11 -20 -16 -19 -4 -52 -19
-74 -34 -22 -14 -49 -31 -60 -37 -61 -32 -76 -164 -30 -257 28 -58 34 -63 51
-49 5 5 38 19 74 31 36 12 83 31 106 42 22 11 47 19 54 17 8 -2 14 5 15 17 0
13 7 20 20 21 35 2 38 4 25 20 -11 13 -10 16 8 21 24 6 27 14 13 28 -5 6 -7
22 -4 38 7 37 21 24 58 -55 17 -35 33 -66 37 -69 12 -8 38 -196 38 -269 -1
-131 -15 -184 -89 -334 -134 -268 -170 -323 -236 -357 -28 -14 -61 -29 -75
-33 -55 -16 -253 -24 -400 -15 -168 10 -205 16 -353 61 -97 30 -97 30 -103 67
-6 39 -28 72 -59 88 -25 13 -85 5 -108 -15 -45 -40 -162 0 -205 70 -26 42 -45
113 -37 138 6 20 45 28 45 10 0 -5 6 -10 14 -10 8 0 17 -12 21 -27 3 -15 9
-23 13 -17 4 5 37 10 74 11 37 1 77 7 89 13 20 11 20 13 -17 38 -106 71 -146
145 -151 286 l-5 101 22 -40 c12 -22 26 -41 31 -43 5 -2 9 -13 9 -23 0 -11 4
-18 9 -15 4 3 11 47 15 98 4 51 11 95 16 96 6 2 10 11 10 19 0 31 89 126 220
234 29 24 137 89 148 89 4 0 23 13 42 30 23 19 29 29 19 30 -8 0 -25 -9 -37
-20 -12 -11 -23 -20 -26 -20 -8 0 -124 -70 -138 -83 -7 -7 -29 -23 -48 -37
-47 -31 -170 -160 -170 -177 0 -8 -7 -16 -15 -19 -8 -4 -15 -14 -15 -23 0 -9
-4 -21 -10 -27 -5 -5 -11 -34 -12 -63 -1 -29 -6 -55 -10 -57 -17 -11 -48 81
-49 146 -1 55 -2 60 -10 35 -17 -57 -23 -258 -9 -316 19 -79 78 -171 128 -198
31 -17 27 -29 -11 -36 -49 -9 -110 10 -145 46 l-31 32 -21 -34 c-25 -41 -21
-79 18 -158 31 -65 95 -111 154 -111 38 0 38 0 38 -40 0 -51 39 -96 91 -104
30 -5 42 -1 72 22 l36 29 98 -33 c54 -18 106 -33 115 -34 9 0 20 -9 23 -20 9
-28 -4 -99 -23 -128 -16 -24 -80 -62 -107 -62 -18 0 -20 17 -3 22 17 6 12 95
-5 113 -18 18 -75 32 -162 40 -62 6 -232 57 -245 74 -3 4 -25 15 -50 26 -25
10 -52 25 -61 32 -8 7 -19 13 -23 13 -19 0 -172 119 -189 146 -4 6 9 27 28 47
35 36 48 88 25 102 -17 10 -11 39 11 58 18 16 20 26 15 90 -3 40 -5 80 -5 90
-1 9 -8 17 -17 17 -11 0 -15 8 -14 28 3 48 0 60 -20 84 -12 12 -30 38 -40 56
-15 24 -27 32 -49 32 -17 0 -33 -4 -36 -10 -8 -14 -35 -13 -35 1 0 20 -42 49
-72 49 -15 0 -28 5 -28 10 0 6 -15 8 -38 4 l-38 -6 -12 84 c-21 148 -12 314
24 431 9 30 104 14 104 -18 0 -28 38 -55 76 -55 25 0 43 -7 55 -22 31 -35 60
-46 93 -35 25 9 32 7 46 -11 23 -28 64 -37 99 -23 24 10 33 9 64 -9 35 -21 87
-20 87 2 0 6 -11 7 -26 4 -35 -9 -74 17 -74 48 0 45 10 56 50 56 46 0 63 -18
58 -65 -3 -35 -1 -37 40 -52 40 -13 46 -13 81 5 35 19 40 19 70 5 33 -16 45
-14 95 19 15 10 19 10 23 1 9 -24 75 -15 105 14 24 22 31 25 50 16 50 -25 80
-22 105 8 18 21 34 29 56 29 35 1 60 16 69 41 5 12 21 18 52 21 l46 3 0 -33
c0 -56 18 -26 25 43 7 62 9 65 34 65 28 1 69 26 58 36 -4 4 -12 3 -19 -3 -40
-30 -97 11 -84 61 7 27 67 58 74 38 2 -7 10 -12 18 -12 10 0 14 -12 14 -39 0
-22 5 -43 11 -46 27 -17 -28 -128 -88 -179 -28 -23 -36 -27 -43 -16 -7 11 -12
8 -21 -13 -7 -15 -16 -27 -21 -27 -5 0 -6 -4 -3 -10 11 -19 31 -10 82 35 75
67 112 129 119 204 7 60 25 80 32 33 2 -12 8 -22 14 -22 7 0 9 -19 5 -55 -9
-87 12 -83 50 10 28 65 39 125 24 125 -6 0 -11 -10 -12 -22 0 -13 -8 -42 -18
-66 l-17 -44 -13 44 c-7 24 -17 51 -22 61 -7 12 -3 25 12 46 13 18 20 38 16
50 -4 15 5 31 29 55 19 19 32 40 30 48 -13 42 -15 68 -5 68 16 0 35 22 42 48
7 28 -1 54 -15 46 -5 -4 -5 -10 1 -18 7 -8 3 -21 -13 -41 -21 -26 -27 -29 -52
-20 -34 12 -43 45 -20 80 13 20 21 22 56 18 27 -4 40 -2 40 6 0 7 7 19 15 27
8 9 15 28 15 44 0 16 -7 35 -15 44 -22 21 -19 26 16 26 17 0 48 -12 72 -29z
m277 14 c7 -8 15 -47 18 -85 5 -76 -6 -93 -51 -73 -12 5 -35 6 -50 2 -39 -11
-51 -4 -67 36 -8 19 -17 35 -22 35 -13 0 -9 50 5 64 12 12 89 32 133 35 12 0
27 -6 34 -14z m299 -68 c5 -13 16 -29 25 -36 9 -7 16 -28 16 -46 0 -34 -13
-45 -53 -45 -12 0 -35 -7 -51 -15 -31 -16 -50 -11 -42 11 3 8 1 14 -4 14 -14
0 -12 46 3 72 18 32 60 67 80 68 10 0 21 -10 26 -23z m-158 -90 c25 -19 46
-84 31 -99 -7 -7 -12 -19 -12 -29 0 -9 -13 -27 -28 -40 -15 -13 -46 -45 -67
-71 -22 -27 -44 -48 -50 -48 -5 0 -22 10 -38 23 -26 21 -31 35 -54 150 -3 15
-9 27 -14 27 -5 0 -9 19 -9 41 l0 41 36 -7 c20 -3 45 -12 55 -18 16 -10 22 -7
41 16 16 20 30 27 57 27 20 0 43 -6 52 -13z m214 -77 c14 -16 17 -30 12 -73
-8 -68 -26 -117 -41 -117 -7 0 -22 9 -34 20 -12 11 -47 30 -77 42 -57 22 -68
40 -36 60 10 6 17 16 15 22 -6 16 7 29 46 48 48 23 93 22 115 -2z m-152 -144
c111 -45 124 -82 54 -159 -64 -69 -72 -66 -140 51 -43 74 -44 78 -17 94 11 7
20 18 20 25 0 18 17 16 83 -11z m-205 -82 c14 -10 22 -26 23 -47 l1 -32 7 35
c16 80 39 80 75 0 20 -45 25 -68 21 -94 -7 -33 -10 -35 -61 -44 -91 -15 -100
-10 -108 60 -14 136 -7 157 42 122z m16 -409 c37 -32 71 -41 102 -26 19 8 24
8 24 -4 0 -46 -53 -95 -105 -95 -22 0 -30 9 -50 53 -42 90 -29 122 29 72z
m-313 -62 c-3 -39 -1 -45 13 -40 9 4 23 10 31 13 12 5 15 -2 15 -30 0 -29 4
-36 20 -36 35 0 60 39 60 92 0 60 17 63 25 4 15 -95 -20 -140 -107 -140 -38 0
-52 5 -72 27 -14 15 -28 43 -32 62 -8 42 12 95 35 95 13 0 15 -9 12 -47z m-54
-88 c24 -43 66 -70 111 -70 23 0 42 -3 42 -6 0 -9 -40 -27 -118 -53 l-72 -25
-20 39 c-13 26 -20 59 -20 99 0 52 4 64 28 89 l27 28 5 -40 c3 -23 11 -50 17
-61z m2768 68 c-4 -10 -11 -30 -15 -44 -11 -37 -33 -69 -47 -69 -7 0 -13 -3
-13 -7 0 -9 -49 -33 -67 -33 -7 0 -13 -4 -13 -10 0 -5 -9 -10 -20 -10 -11 0
-20 -4 -20 -10 0 -12 15 -13 38 -1 9 5 34 17 54 25 34 15 155 91 185 116 7 5
24 10 38 10 20 0 25 -5 25 -25 0 -18 -29 -53 -110 -134 -60 -60 -110 -117
-110 -125 0 -9 -4 -16 -10 -16 -5 0 -10 -6 -10 -13 0 -18 -24 -67 -32 -67 -5
0 -8 -5 -8 -11 0 -15 -74 -89 -89 -89 -6 0 -11 -4 -11 -10 0 -5 -9 -10 -20
-10 -11 0 -20 -4 -20 -10 0 -5 9 -10 20 -10 11 0 20 5 20 10 0 6 9 10 20 10
22 0 25 -11 11 -38 -5 -9 -16 -32 -23 -49 -7 -18 -16 -33 -20 -33 -5 0 -8 -6
-8 -13 0 -7 -12 -26 -27 -43 -16 -17 -34 -42 -42 -56 -7 -14 -26 -40 -42 -58
-16 -17 -29 -35 -29 -39 0 -4 -13 -20 -30 -36 -16 -16 -30 -32 -30 -37 0 -8
-21 -35 -50 -67 -9 -9 -33 -38 -55 -66 -21 -27 -47 -58 -56 -67 -10 -10 -23
-26 -31 -36 -7 -10 -35 -33 -63 -52 -27 -18 -52 -36 -55 -39 -3 -3 -29 -17
-57 -31 -29 -14 -53 -28 -53 -32 0 -5 -5 -8 -10 -8 -10 0 -31 -9 -157 -66 -28
-13 -55 -24 -58 -24 -4 0 -21 -6 -38 -13 -46 -20 -179 -70 -282 -107 -49 -18
-95 -35 -100 -37 -15 -5 -11 188 5 262 7 35 10 88 7 126 l-6 66 117 13 c195
21 325 66 436 150 32 25 68 52 79 60 11 8 53 46 93 85 41 38 88 81 105 95 18
14 41 34 53 45 12 11 44 38 71 60 98 79 159 155 229 287 18 35 47 87 65 116
17 29 31 59 31 67 0 21 99 102 166 136 68 34 79 35 69 12z m-4407 -265 c17
-14 15 -61 -5 -102 -16 -34 -17 -35 -62 -29 -25 3 -47 7 -49 8 -7 6 -14 115
-8 130 5 14 15 16 59 10 28 -4 58 -12 65 -17z m-145 -45 c2 -21 2 -58 0 -83
-2 -25 -5 -60 -6 -77 -2 -25 -7 -33 -20 -33 -18 0 -137 111 -137 127 1 14 27
43 39 43 6 0 11 4 11 9 0 13 62 49 86 50 18 1 23 -6 27 -36z m281 1 c9 -8 16
-20 16 -25 0 -6 11 -26 24 -45 28 -42 24 -72 -13 -80 -14 -3 -44 -12 -66 -20
-56 -19 -65 -18 -65 11 0 14 -3 25 -7 25 -27 1 -33 17 -19 52 35 83 93 120
130 82z m-401 -144 c43 -39 47 -57 12 -70 -14 -5 -30 -22 -35 -36 -9 -24 -14
-26 -48 -20 -20 3 -49 6 -64 6 -18 0 -29 7 -33 20 -8 26 3 60 20 60 9 0 16 17
20 44 11 70 45 68 128 -4z m243 18 c42 -38 56 -83 50 -171 -3 -43 -8 -82 -11
-86 -5 -10 -150 -7 -206 4 -46 8 -89 48 -89 81 0 33 17 64 35 64 8 0 15 5 15
11 0 6 18 9 47 8 l48 -3 -3 38 c-6 70 59 101 114 54z m223 -48 c27 -14 40
-153 16 -176 -14 -14 -22 -15 -54 -5 -21 6 -54 11 -74 11 -23 0 -37 5 -41 16
-10 27 3 54 27 55 22 2 22 2 0 6 -18 4 -23 11 -23 38 0 33 1 34 63 48 34 8 63
15 65 16 2 0 11 -3 21 -9z m-507 -126 c4 -3 8 -12 8 -21 0 -9 8 -25 17 -35 16
-18 16 -19 -5 -25 -12 -3 -22 -8 -22 -12 0 -3 -15 -12 -32 -20 -18 -8 -36 -19
-40 -25 -5 -8 -8 -7 -8 2 0 6 -9 12 -20 12 -13 0 -21 9 -25 28 -12 52 -13 57
-20 74 -5 13 -1 21 16 28 22 9 113 5 131 -6z m463 -81 c40 -21 54 -42 55 -79
0 -25 -9 -37 -57 -72 -32 -23 -65 -42 -74 -42 -34 0 -99 88 -99 134 0 9 -5 16
-11 16 -12 0 -3 -71 10 -80 30 -20 41 -94 15 -104 -34 -13 -137 -6 -156 11
-22 20 -23 64 -2 104 8 17 14 40 12 52 -3 17 -7 12 -18 -20 -7 -24 -16 -43
-20 -43 -4 0 -5 -11 -3 -24 3 -13 0 -33 -6 -45 -9 -17 -17 -19 -44 -14 -17 3
-33 10 -35 15 -2 4 -10 8 -17 8 -7 0 -25 14 -39 31 -34 40 -36 95 -4 105 12 3
29 13 37 21 11 12 26 13 60 8 25 -4 84 -9 131 -11 47 -2 100 -6 118 -9 30 -6
32 -4 32 23 0 16 3 32 7 36 10 10 70 -2 108 -21z m596 -264 c60 -42 24 -149
-50 -149 -64 0 -104 87 -62 137 15 18 30 24 74 32 5 0 22 -8 38 -20z m2028
-16 c43 -52 38 -67 -24 -69 -56 -3 -105 -18 -105 -34 0 -13 1 -13 43 5 20 8
53 15 74 15 51 0 113 -64 114 -118 2 -74 -3 -124 -15 -158 l-12 -35 -27 21
c-24 19 -40 21 -142 22 -84 0 -118 4 -126 14 -9 11 -7 14 8 14 52 0 93 184 59
264 -18 42 -13 76 10 76 8 0 14 5 14 10 0 6 22 10 49 10 45 0 52 -3 80 -37z
m-204 -1 c24 -17 39 -62 43 -127 5 -85 -23 -165 -64 -184 -64 -29 -186 0 -192
47 -2 15 2 22 12 22 25 0 25 77 0 96 -12 10 -12 16 2 43 9 18 13 42 10 56 -4
14 -1 27 6 31 30 19 163 31 183 16z m-2260 -51 c48 -31 169 -91 245 -121 30
-12 66 -26 79 -31 13 -6 60 -13 105 -16 106 -8 145 -24 148 -61 2 -47 -2 -65
-19 -77 -9 -7 -13 -17 -8 -24 9 -16 88 -6 121 16 37 24 64 80 66 134 0 27 4
49 7 49 11 0 31 -111 31 -168 0 -29 -5 -52 -10 -52 -6 0 -23 -12 -38 -27 -38
-39 -184 -101 -290 -123 -60 -13 -182 -70 -182 -86 0 -6 -20 -21 -45 -33 -28
-13 -51 -33 -61 -53 -25 -49 -84 -102 -97 -89 -7 7 -8 11 0 11 6 0 16 52 23
121 11 98 11 142 1 226 -6 57 -16 114 -21 126 -4 12 -20 60 -34 107 -25 80
-44 128 -56 140 -10 10 -30 50 -30 60 0 12 4 10 65 -29z m1952 -60 c20 -25 21
-30 8 -41 -17 -14 -20 -53 -5 -80 8 -15 6 -24 -11 -41 -17 -17 -20 -28 -15
-63 6 -38 4 -44 -19 -56 -20 -11 -25 -21 -25 -52 0 -30 -4 -38 -18 -38 -26 0
-50 -29 -54 -65 -2 -21 -8 -29 -19 -27 -19 3 -56 -35 -61 -63 -2 -11 -12 -21
-23 -23 -25 -5 -65 -41 -65 -59 0 -7 -6 -14 -12 -14 -7 -1 -17 -2 -23 -4 -5
-1 -18 -3 -28 -3 -10 -1 -21 -10 -24 -19 -10 -26 -31 -45 -42 -38 -13 7 -61
-5 -61 -15 0 -5 17 -6 38 -3 30 4 39 1 50 -16 9 -15 9 -27 3 -40 -7 -12 -6
-24 3 -37 7 -10 16 -31 20 -46 3 -15 20 -50 36 -78 35 -60 37 -78 10 -113 -28
-35 -73 -56 -151 -69 -60 -10 -69 -10 -100 8 -39 23 -68 74 -69 124 -1 19 -5
44 -9 54 -5 14 -1 27 12 42 16 19 29 22 73 21 45 -2 56 1 69 21 12 16 26 22
56 22 21 0 39 5 39 10 0 6 -11 10 -24 10 -41 0 -56 11 -56 39 0 26 -2 27 -44
25 -47 -3 -86 -18 -86 -34 0 -6 -7 -10 -15 -10 -8 0 -15 5 -15 10 0 6 -18 10
-40 10 -29 0 -40 -4 -40 -15 0 -18 -2 -18 -51 -4 -32 10 -42 9 -65 -6 -21 -14
-28 -14 -35 -4 -10 16 -81 17 -87 1 -5 -15 -38 -16 -47 -2 -9 14 -51 13 -75
-2 -16 -10 -24 -10 -40 0 -24 15 -66 16 -75 2 -4 -6 -19 0 -37 16 -25 21 -38
24 -65 19 -26 -5 -40 -1 -61 15 -20 16 -35 20 -59 15 -21 -4 -33 -2 -33 5 0
17 -62 40 -80 30 -11 -6 -21 -1 -36 18 -13 16 -33 27 -50 28 -16 1 -32 3 -36
3 -5 1 -8 6 -8 13 0 6 -7 20 -16 29 -15 17 -15 21 -1 42 21 32 79 58 212 96
133 38 241 89 291 137 36 36 37 37 30 98 -3 33 -8 82 -12 107 l-6 47 28 -5
c168 -25 465 -21 539 7 52 20 65 14 65 -29 0 -22 3 -46 6 -55 11 -27 24 -17
22 16 l-3 31 62 -2 c47 -2 77 4 130 25 37 15 70 31 71 36 2 4 8 8 13 8 6 0 29
9 52 21 52 26 91 37 137 37 27 1 40 -6 57 -27z m143 -221 c0 -5 24 -10 53 -10
50 0 98 -20 133 -55 20 -19 17 -61 -6 -123 -28 -74 -44 -95 -88 -120 -33 -18
-44 -20 -78 -11 -42 12 -138 78 -153 107 -12 22 -5 32 32 52 25 12 28 19 26
55 -2 33 3 49 27 78 28 35 54 48 54 27z m377 -46 c31 -6 61 -37 70 -72 11 -46
-5 -146 -32 -194 -37 -67 -51 -76 -78 -50 -30 28 -120 72 -146 72 -28 0 -38
26 -19 48 37 43 65 172 37 172 -6 0 -9 6 -7 13 3 6 27 15 54 18 49 5 69 4 121
-7z m-471 -231 c28 -30 95 -63 130 -63 20 0 24 -5 24 -31 0 -74 -108 -189
-178 -189 -59 0 -130 59 -175 147 l-17 32 35 11 c25 8 37 19 41 38 10 47 12
50 43 57 17 4 31 11 31 16 0 19 42 8 66 -18z m340 -49 c18 -8 49 -29 69 -49
36 -33 37 -37 31 -82 -3 -26 -10 -49 -14 -52 -4 -4 -14 -19 -22 -35 -39 -75
-140 -148 -140 -101 0 20 -105 125 -126 125 -21 0 -17 22 11 71 14 25 25 60
25 80 0 31 5 39 33 53 34 17 77 13 133 -10z m-504 -171 c13 -16 40 -41 61 -56
49 -37 48 -65 0 -113 -59 -56 -113 -84 -171 -86 -45 -2 -56 1 -75 22 -41 45
-80 138 -78 185 0 5 17 10 37 12 38 2 63 25 64 56 0 12 8 17 33 17 17 0 41 7
52 16 18 14 21 13 36 -5 9 -11 27 -33 41 -48z m-1619 23 c14 4 21 -2 29 -24
12 -31 43 -52 77 -52 23 0 17 -39 -10 -69 -11 -11 -22 -35 -26 -53 -3 -18 -14
-41 -24 -50 -19 -19 -89 -25 -89 -9 0 5 -12 13 -27 19 -34 12 -83 53 -83 70 0
7 -4 12 -10 12 -13 0 -13 59 1 99 6 17 17 31 25 31 8 0 14 5 14 10 0 6 8 18
18 28 16 18 18 18 52 0 19 -10 43 -15 53 -12z m1917 -63 c14 -10 46 -40 72
-67 68 -69 66 -119 -6 -190 -46 -45 -106 -82 -147 -90 -41 -7 -50 -1 -70 57
-7 20 -16 37 -19 37 -3 0 -16 18 -30 40 -14 22 -28 40 -33 40 -4 0 5 18 20 41
14 22 27 50 28 62 1 16 9 23 30 25 15 2 48 17 74 33 55 34 51 33 81 12z
m-1646 -71 c31 -24 48 -27 74 -13 12 6 24 5 36 -4 17 -13 17 -19 6 -79 -7 -36
-9 -73 -6 -82 4 -9 -1 -28 -10 -42 -16 -24 -20 -24 -90 -19 -89 7 -159 38
-181 81 -20 39 -11 118 17 148 11 12 20 25 20 29 0 5 24 7 53 6 37 -2 61 -9
81 -25z m248 -64 c6 -16 68 -14 78 2 7 12 13 12 34 1 14 -8 38 -14 53 -15 l28
-1 3 -84 c3 -76 1 -86 -20 -108 -22 -24 -27 -25 -113 -20 -101 5 -133 17 -164
62 -41 60 -18 180 36 187 32 4 59 -6 65 -24z m498 -3 c0 -7 6 -18 14 -24 17
-14 28 -96 20 -139 -8 -38 -61 -67 -141 -78 -61 -8 -142 17 -162 49 -14 21
-17 141 -6 178 6 19 12 21 51 15 36 -5 44 -3 44 10 0 12 6 15 23 9 51 -16 86
-17 108 -1 24 16 49 7 49 -19z m-1087 -58 c15 -6 27 -15 27 -19 0 -12 78 -10
85 2 5 8 11 8 19 1 15 -12 2 -154 -14 -159 -6 -2 -10 -10 -10 -17 0 -7 -14
-27 -32 -44 -27 -26 -40 -31 -79 -31 -26 0 -51 5 -54 10 -3 6 -14 10 -23 10
-10 0 -41 21 -70 46 -41 36 -52 52 -52 76 0 41 25 90 71 139 l39 41 32 -22
c18 -12 45 -27 61 -33z m1760 -10 c69 -90 85 -153 52 -203 -32 -50 -220 -116
-229 -81 -19 72 -44 131 -67 158 -17 20 -27 40 -23 49 3 8 7 22 9 30 2 12 14
14 54 12 40 -3 64 2 99 20 26 12 51 29 55 36 12 19 23 15 50 -21z m-1577 -62
c9 -22 83 -54 146 -63 48 -7 53 -10 56 -35 4 -33 -40 -152 -69 -187 -42 -50
-186 -26 -260 43 -21 20 -21 21 -3 34 42 30 74 66 74 82 0 9 5 22 10 27 6 6
13 34 17 62 6 51 18 66 29 37z m1044 -127 c0 -10 4 -18 9 -18 11 0 31 -87 31
-134 0 -46 -54 -101 -107 -110 -49 -8 -157 -8 -177 0 -17 7 -22 54 -6 54 15 0
12 92 -5 141 -9 24 -14 48 -11 55 2 6 25 14 50 17 58 8 101 30 122 62 l16 25
39 -37 c21 -21 39 -45 39 -55z m-734 64 c27 -25 98 -52 139 -52 l35 0 0 -69
c0 -98 -8 -126 -47 -166 -32 -33 -38 -35 -96 -35 -67 0 -162 30 -182 57 -10
13 -6 31 21 89 19 40 34 85 34 101 0 45 10 68 33 80 32 16 41 15 63 -5z m1023
-36 c29 -41 35 -58 35 -101 1 -39 -4 -59 -19 -75 -32 -36 -88 -59 -159 -66
-78 -8 -98 2 -89 47 6 34 -15 149 -28 149 -12 0 -11 27 1 35 6 3 30 8 54 10
24 2 65 14 92 28 27 13 55 24 63 23 8 0 30 -23 50 -50z m481 22 c0 -39 -21
-307 -25 -328 -3 -14 -16 -39 -29 -55 l-23 -29 -18 37 c-24 51 -50 67 -107 67
-80 0 -170 -55 -215 -130 -9 -16 -21 -30 -25 -30 -4 0 -8 -7 -8 -15 0 -18 -18
-50 -46 -81 l-21 -23 -101 44 c-56 25 -110 45 -120 45 -10 0 -23 5 -29 11 -7
7 -38 10 -84 7 -67 -4 -74 -6 -99 -37 -38 -45 -57 -161 -32 -199 10 -15 19
-58 23 -102 6 -72 21 -115 44 -132 6 -4 -1 -8 -15 -8 -52 0 -149 21 -256 55
-117 38 -140 57 -123 100 4 11 8 42 8 69 l1 49 38 -7 c20 -4 85 -9 145 -13 88
-5 107 -4 107 8 0 11 -21 14 -97 14 -115 1 -193 12 -197 28 -19 70 -62 191
-73 205 -13 15 -14 14 -8 -12 3 -16 15 -48 26 -70 29 -61 42 -156 34 -252 -4
-46 -10 -84 -14 -84 -4 0 -15 -15 -25 -32 -9 -18 -30 -55 -46 -83 -17 -27 -38
-66 -48 -85 -9 -19 -20 -36 -24 -38 -5 -2 -8 -10 -8 -18 0 -14 -19 -53 -30
-64 -9 -8 -80 -180 -102 -245 -66 -199 -86 -376 -63 -560 9 -66 28 -163 42
-215 14 -52 28 -114 31 -137 4 -40 2 -43 -19 -43 -13 -1 -41 -9 -62 -19 -40
-19 -117 -86 -117 -103 0 -6 -29 -7 -80 -2 -57 5 -80 3 -80 -5 0 -6 18 -11 45
-11 176 0 333 -110 461 -322 54 -89 101 -194 92 -203 -8 -8 -48 -16 -85 -16
-26 -1 -33 -5 -33 -20 0 -26 -40 -25 -68 1 -12 11 -27 20 -35 20 -7 0 -17 4
-22 9 -23 23 -177 79 -260 96 -104 20 -280 16 -375 -10 -30 -8 -60 -15 -67
-15 -36 0 7 166 66 259 37 58 127 145 141 136 5 -3 10 -17 10 -30 0 -37 46
-155 66 -170 12 -8 25 -10 35 -5 13 8 15 31 14 157 -2 174 10 402 25 456 9 32
15 37 39 37 22 0 31 7 41 30 7 17 19 30 27 30 26 0 62 31 68 60 4 19 0 42 -11
65 -13 27 -14 39 -5 48 15 15 14 72 -1 97 -13 21 -6 52 33 138 21 47 85 281
100 371 40 226 50 325 64 606 8 171 15 330 15 354 0 37 2 42 18 36 9 -4 44
-10 77 -14 l59 -6 16 -47 c8 -27 18 -48 23 -48 11 0 9 38 -3 45 -5 3 -10 20
-10 36 0 22 6 32 25 39 25 9 55 4 55 -9 0 -5 24 -14 54 -21 66 -15 173 -6 199
18 16 15 20 14 49 -3 51 -30 163 -25 235 10 47 24 70 28 142 29 74 1 93 5 138
30 29 16 59 39 67 52 11 16 29 24 68 29 84 12 159 44 195 84 18 20 33 42 33
49 0 6 1 12 3 13 1 0 22 3 47 6 25 3 54 12 65 19 24 17 35 18 35 2z m-1170
-18 c0 -8 40 -25 81 -34 51 -11 79 -173 39 -224 -47 -59 -204 -70 -273 -19
-17 12 -17 16 -2 72 9 33 15 83 14 111 -3 59 4 74 34 74 12 0 35 9 51 19 27
18 56 19 56 1z m-875 -111 c5 -5 22 -9 38 -9 20 0 30 -6 34 -20 3 -11 12 -20
19 -20 8 0 14 -4 14 -10 0 -5 17 -16 38 -25 20 -9 52 -23 70 -31 37 -16 90
-18 112 -4 14 9 70 -16 70 -32 0 -4 7 -8 15 -8 24 0 28 -43 21 -248 -12 -337
-32 -572 -61 -702 -68 -315 -82 -369 -115 -445 -10 -22 -22 -53 -27 -70 -9
-28 -13 -30 -59 -32 -40 -1 -53 3 -72 23 -18 18 -32 24 -65 23 l-42 -1 36 -7
c47 -9 70 -33 71 -70 1 -47 -26 -81 -65 -81 -46 0 -67 19 -74 66 -4 29 -1 43
11 53 21 18 20 31 -3 31 -10 0 -30 9 -44 20 -14 11 -32 19 -39 18 -16 -4 -13
75 8 178 8 39 21 117 29 175 8 57 24 149 35 204 37 187 41 237 35 370 -3 72
-10 153 -15 180 -5 28 -14 109 -20 180 -7 72 -18 168 -25 215 -10 64 -11 87
-2 92 13 8 57 0 72 -13z m1908 -209 c4 0 7 -6 7 -14 0 -8 5 -16 11 -18 6 -2
13 -35 16 -73 2 -39 15 -98 29 -133 28 -72 30 -111 9 -152 -27 -52 -63 -63
-156 -49 -45 7 -83 18 -86 25 -2 7 5 30 15 53 11 23 17 43 13 46 -4 2 -9 25
-10 52 -1 26 -5 49 -9 53 -5 3 -11 13 -15 23 -6 15 -36 23 -74 18 -7 -1 -23 3
-35 10 -18 10 -19 13 -7 23 8 6 25 25 37 43 23 32 120 98 157 105 11 2 36 1
55 -4 19 -4 38 -8 43 -8z m137 -75 c5 -14 19 -44 30 -67 12 -24 23 -61 26 -83
5 -35 2 -46 -27 -82 -50 -62 -59 -59 -74 32 -4 21 -13 52 -21 67 -22 42 -18
106 9 134 28 30 45 30 57 -1z m-770 -95 c37 -9 114 -36 129 -47 2 -1 -10 -18
-28 -38 -19 -22 -31 -46 -31 -63 1 -41 32 -98 73 -133 20 -17 37 -36 37 -41 0
-14 -21 -32 -83 -72 -93 -60 -147 -73 -202 -50 -47 19 -54 33 -64 125 -4 47
-13 94 -19 106 -17 31 -8 158 12 178 9 9 16 20 16 25 0 20 90 25 160 10z m436
-35 c41 -40 39 -124 -3 -210 -37 -75 -71 -115 -97 -115 -33 0 -138 55 -177 93
-79 77 -88 115 -42 167 30 34 57 37 109 13 36 -18 37 -18 51 4 23 35 47 59 63
66 22 9 81 -2 96 -18z m36 -247 c21 -19 50 -37 81 -51 15 -6 27 -15 27 -19 0
-4 6 -8 13 -8 14 0 72 -61 69 -72 -1 -5 2 -8 8 -8 17 0 150 -174 167 -219 l17
-44 -34 -29 c-19 -15 -39 -28 -45 -28 -11 0 -58 -41 -72 -62 -15 -23 -52 -38
-95 -38 -50 0 -46 -8 -99 204 -20 78 -47 153 -77 213 l-46 92 22 24 c12 13 22
28 22 34 0 6 6 14 13 16 6 3 13 6 14 6 1 1 8 -5 15 -11z m-248 -65 c4 -5 11
-8 14 -9 7 -1 47 -11 83 -20 13 -4 19 -27 29 -102 6 -53 22 -142 35 -197 33
-145 39 -209 24 -261 l-14 -45 -100 6 c-123 7 -211 23 -226 42 -9 10 -7 35 10
106 12 51 26 142 30 202 8 102 26 193 40 205 4 3 15 22 26 43 19 36 34 45 49
30z m-1588 -888 c33 -14 35 -16 29 -52 -9 -53 -26 -85 -43 -78 -7 3 -24 5 -38
5 -54 0 -72 103 -21 128 30 14 32 14 73 -3z m349 -1263 c50 -16 124 -47 165
-70 68 -37 75 -44 73 -69 -8 -91 -5 -140 11 -171 20 -39 21 -39 -94 -45 -125
-7 -234 -48 -350 -133 -60 -44 -210 -200 -210 -219 0 -8 -4 -15 -9 -15 -5 0
-14 -14 -21 -31 -22 -53 -47 -69 -108 -69 -62 0 -85 10 -129 55 -47 49 -129
174 -159 241 -23 52 -26 69 -22 144 5 91 33 167 83 226 14 16 25 32 25 36 0 3
17 17 38 29 20 13 39 26 42 29 3 4 28 15 55 24 28 10 58 22 68 27 10 5 41 15
70 21 29 6 70 14 92 19 22 4 96 6 165 4 103 -3 141 -9 215 -33z m562 -95 c18
-6 39 -24 50 -43 10 -18 44 -70 77 -116 111 -157 117 -191 40 -227 -76 -36
-172 -25 -227 26 -42 38 -120 79 -169 88 -30 6 -39 14 -57 53 -40 88 -26 182
33 214 51 28 179 30 253 5z m-239 -288 c26 -7 54 -18 63 -25 8 -8 22 -14 30
-14 29 0 109 -85 136 -145 27 -57 28 -67 28 -215 0 -170 -16 -313 -47 -405
-25 -77 -79 -195 -89 -195 -4 0 -10 -8 -13 -17 -8 -24 -53 -72 -101 -109 -98
-73 -213 -99 -360 -80 -109 13 -216 61 -280 124 -27 26 -55 61 -55 68 0 2 -11
17 -25 32 -14 15 -44 64 -67 110 -40 80 -43 89 -46 185 -3 91 -1 110 23 171
46 122 104 212 195 305 68 68 96 92 141 117 18 10 39 24 46 31 7 6 23 15 36
18 12 3 31 11 42 16 79 37 247 51 343 28z m493 -136 c40 -44 87 -110 118 -168
12 -22 26 -47 31 -55 44 -69 127 -293 165 -443 22 -89 9 -200 -34 -284 -48
-95 -108 -123 -266 -123 -97 0 -276 33 -315 57 -70 44 -85 94 -48 151 14 20
31 55 39 77 8 22 17 42 20 45 16 13 56 192 69 307 20 181 6 365 -32 411 -17
20 -2 26 75 27 47 0 82 6 102 16 41 23 38 24 76 -18z"/>
<path d="M1935 8280 c-22 -11 -58 -36 -80 -55 -22 -20 -52 -38 -67 -42 -16 -3
-28 -12 -28 -19 0 -8 -10 -14 -25 -14 -29 0 -32 -8 -8 -26 24 -17 12 -26 -40
-33 -49 -7 -52 -24 -5 -31 32 -5 32 -6 11 -18 -12 -6 -31 -12 -42 -12 -25 0
-28 -19 -3 -22 9 0 22 -2 27 -3 6 -2 15 -3 22 -4 6 0 13 -13 15 -28 2 -22 8
-28 28 -29 14 0 31 -3 37 -7 7 -4 24 -5 38 -1 17 4 25 2 25 -6 0 -9 7 -7 20 5
19 17 21 17 40 0 17 -16 20 -16 20 -2 0 9 12 18 33 22 48 10 119 37 141 55 37
29 151 134 154 142 6 14 -40 79 -87 125 -21 20 -33 23 -105 23 -59 -1 -92 -6
-121 -20z m27 -80 c-4 -61 4 -74 28 -45 18 22 35 3 21 -23 -14 -27 -14 -29 5
-36 50 -19 91 33 81 104 -5 36 -3 38 13 28 42 -27 22 -138 -30 -166 -31 -16
-124 -9 -142 10 -45 49 -50 106 -12 155 14 18 28 33 33 33 4 0 5 -27 3 -60z
m-82 -30 c0 -40 19 -80 54 -112 33 -31 32 -31 101 -29 l50 1 -33 -15 c-51 -23
-99 -33 -193 -39 -112 -8 -120 -5 -106 42 6 20 14 39 17 42 3 3 11 18 18 35
14 31 72 103 85 104 4 1 7 -12 7 -29z"/>
<path d="M2700 7933 c-8 -3 -26 -17 -39 -29 -17 -17 -35 -24 -63 -24 -33 0
-47 -8 -99 -57 -90 -87 -141 -108 -191 -82 -18 9 -24 8 -35 -7 -7 -10 -13 -24
-13 -32 0 -13 3 -12 19 2 15 14 25 15 70 5 28 -6 51 -14 51 -18 0 -32 230 -49
286 -21 52 26 109 94 132 157 12 33 22 64 22 70 0 5 -21 15 -47 21 -27 6 -55
13 -63 16 -8 2 -22 2 -30 -1z m100 -48 c0 -6 -12 -18 -27 -26 -16 -7 -41 -23
-58 -35 -49 -36 -166 -81 -230 -88 l-60 -8 70 66 c61 57 75 66 109 66 28 0 47
8 71 29 31 27 36 28 79 18 25 -6 46 -16 46 -22z m0 -56 c0 -22 -30 -69 -65
-104 -43 -43 -130 -70 -195 -61 -55 7 -110 25 -110 35 0 3 39 15 88 25 80 18
195 64 204 83 3 8 58 41 71 42 4 1 7 -8 7 -20z"/>
<path d="M6498 10143 c-18 -5 -39 -49 -35 -73 8 -42 21 -59 49 -69 78 -27 141
75 82 133 -14 15 -58 19 -96 9z"/>
<path d="M3706 9954 c-32 -33 -33 -70 -2 -106 30 -36 83 -38 113 -5 23 23 26
35 24 80 -1 17 -7 27 -16 27 -8 0 -15 7 -15 15 0 27 -73 19 -104 -11z"/>
<path d="M583 9830 c-13 -5 -23 -17 -23 -25 0 -12 -6 -15 -20 -10 -26 8 -60
-3 -60 -19 0 -8 -6 -19 -14 -25 -8 -7 -16 -45 -20 -101 -7 -82 -6 -92 14 -120
12 -16 30 -30 41 -30 13 0 19 -7 19 -23 0 -36 30 -57 83 -57 25 0 49 5 52 11
4 5 19 7 34 4 36 -8 77 8 91 35 16 30 4 37 -17 12 -10 -12 -30 -24 -45 -28
-25 -5 -29 -2 -53 47 -17 37 -22 55 -14 60 12 7 62 -10 112 -37 27 -15 29 -15
54 12 22 24 24 33 19 71 -3 24 -13 51 -21 59 -8 9 -15 29 -15 45 0 16 -4 29
-10 29 -5 0 -10 7 -10 16 0 8 -17 22 -37 31 -21 8 -40 19 -43 23 -18 27 -76
36 -117 20z"/>
<path d="M4594 9430 c-23 -3 -48 -13 -56 -21 -8 -7 -29 -25 -48 -39 -18 -14
-52 -43 -76 -66 -38 -35 -44 -47 -44 -81 0 -24 6 -46 15 -53 22 -18 19 -27
-17 -59 -32 -29 -33 -31 -33 -113 0 -67 4 -88 20 -110 20 -27 45 -37 45 -18 0
6 -4 10 -10 10 -32 0 -52 123 -30 187 17 48 51 60 158 55 39 -2 42 -4 42 -31
0 -22 6 -30 23 -35 37 -9 50 -45 42 -115 -5 -45 -14 -70 -33 -93 -23 -27 -30
-30 -65 -25 -22 3 -43 10 -46 15 -8 12 -68 32 -75 25 -11 -12 -6 -23 12 -23 9
-1 35 -9 57 -20 58 -28 92 -26 125 10 31 33 40 37 40 18 1 -28 53 -53 107 -51
52 3 133 30 133 46 0 4 13 21 30 37 16 16 32 40 36 54 7 29 1 124 -9 147 -5 9
2 26 18 45 62 72 -5 225 -116 264 -49 17 -113 1 -117 -28 -2 -12 -9 -22 -17
-22 -7 0 -16 -17 -20 -37 -4 -21 -12 -44 -17 -51 -8 -9 -8 -16 -1 -23 10 -10
18 5 37 63 3 10 20 27 38 38 18 11 27 20 19 20 -11 0 -11 3 -1 15 34 41 147
-20 189 -102 18 -35 14 -114 -6 -129 -21 -16 -63 -18 -63 -4 0 6 -13 10 -30
10 -50 0 -130 21 -130 34 0 19 -50 40 -64 26 -5 -5 -20 -10 -33 -10 -12 0 -27
-9 -33 -20 -10 -18 -20 -20 -88 -19 -92 2 -112 15 -112 70 0 31 7 44 38 73 20
20 40 36 44 36 4 0 13 6 20 13 71 69 126 86 182 57 42 -21 60 -19 35 4 -23 22
-71 32 -115 26z m281 -324 c44 -19 55 -42 55 -115 0 -57 -2 -62 -45 -109 -40
-43 -52 -51 -105 -61 -50 -10 -64 -9 -89 3 -32 17 -36 26 -46 99 -4 29 -2 47
4 47 5 0 11 21 13 47 3 41 6 48 28 53 16 4 26 14 28 28 3 20 9 22 63 22 33 0
75 -6 94 -14z"/>
<path d="M6070 9344 c-18 -5 -70 -81 -70 -101 0 -28 31 -73 60 -88 66 -34 134
-2 151 72 8 39 0 65 -32 95 -18 18 -81 30 -109 22z m109 -53 c17 -31 18 -45
10 -74 -8 -30 -16 -38 -49 -48 -54 -16 -95 1 -110 47 -10 29 -9 39 10 68 24
40 32 44 82 45 34 1 40 -3 57 -38z"/>
<path d="M313 9318 c-12 -6 -27 -23 -34 -39 -30 -74 59 -143 118 -91 28 25 34
59 16 97 -20 43 -56 54 -100 33z"/>
<path d="M7096 9028 c-28 -30 -29 -31 -57 -14 -34 20 -79 12 -79 -13 0 -10
-16 -32 -35 -50 -41 -37 -47 -79 -15 -108 19 -19 19 -19 0 -48 -25 -38 -25
-45 3 -75 12 -14 30 -42 39 -62 15 -33 22 -38 52 -38 19 0 38 5 41 10 9 15 44
12 61 -5 26 -26 61 -18 103 25 22 22 46 40 55 40 23 0 46 29 46 58 -1 17 -11
36 -30 52 -32 26 -39 50 -16 50 14 0 18 8 30 63 7 28 -3 42 -68 92 -14 11 -26
25 -26 31 0 9 -44 25 -69 24 -3 0 -19 -14 -35 -32z m76 1 c13 -6 28 -20 33
-32 6 -11 24 -28 40 -37 41 -22 45 -62 10 -94 -38 -35 -60 -37 -92 -10 -15 13
-31 24 -35 24 -3 0 -9 14 -13 30 -4 17 -11 30 -16 30 -11 0 -12 50 -1 66 6 9
40 32 49 34 1 0 13 -5 25 -11z m-130 -42 c40 -37 58 -70 52 -95 -4 -12 -10
-19 -15 -16 -11 6 -32 -14 -42 -38 -10 -27 -70 -24 -101 6 -33 30 -36 82 -5
91 11 4 27 22 36 41 19 40 40 43 75 11z m-4 -214 c2 -13 9 -23 16 -23 42 0 36
-57 -10 -97 -32 -27 -84 -12 -84 24 0 8 -11 28 -25 45 -14 16 -25 36 -25 43 0
26 37 42 82 36 35 -5 44 -10 46 -28z m234 10 c30 -27 23 -62 -16 -78 -19 -8
-50 -31 -69 -52 -33 -34 -37 -36 -60 -24 -44 24 -42 94 3 109 16 6 36 25 45
42 15 29 20 31 48 26 17 -3 39 -14 49 -23z"/>
<path d="M6320 8888 c-11 -12 -20 -27 -20 -34 0 -23 -28 -22 -46 2 -14 18 -28
24 -56 24 -21 0 -38 -4 -38 -10 0 -5 -7 -10 -15 -10 -8 0 -15 -3 -15 -8 0 -4
-20 -32 -45 -62 -25 -30 -48 -65 -52 -78 -7 -29 12 -72 32 -72 22 0 19 -28 -4
-35 -60 -19 -59 -108 2 -153 9 -7 17 -20 17 -28 0 -8 5 -14 10 -14 6 0 10 -6
10 -12 1 -21 66 -48 100 -41 25 4 34 1 51 -21 26 -33 57 -33 151 0 71 26 93
43 93 74 0 10 14 17 43 21 23 3 49 12 57 20 21 21 37 190 22 223 -7 14 -15 26
-18 26 -3 0 -13 6 -23 13 -16 12 -17 16 -5 35 23 37 -5 71 -96 119 -92 47
-126 52 -155 21z m132 -31 c35 -18 73 -40 86 -48 32 -20 29 -61 -8 -97 -24
-24 -42 -31 -90 -37 -40 -5 -60 -11 -60 -20 0 -8 5 -17 10 -20 16 -10 11 -48
-9 -72 -15 -17 -30 -23 -62 -23 -53 0 -79 22 -79 67 0 50 28 75 84 75 46 0 64
14 25 20 -21 3 -45 53 -43 88 6 106 41 122 146 67z m-198 -30 c35 -46 36 -147
1 -147 -7 0 -16 -11 -19 -25 -8 -32 -25 -39 -60 -25 -25 9 -28 15 -24 45 3 27
1 32 -9 23 -9 -7 -11 -22 -7 -44 3 -19 3 -34 0 -34 -4 0 -24 11 -46 25 -29 18
-40 32 -40 49 0 23 36 74 96 139 36 39 76 37 108 -6z m342 -157 c18 -39 3
-197 -21 -214 -34 -24 -104 3 -105 41 0 7 -16 20 -35 29 -37 17 -39 24 -19 96
5 17 58 41 68 31 3 -4 17 6 31 21 31 33 65 31 81 -4z m-378 -86 c12 -8 22 -21
22 -29 0 -8 7 -15 16 -15 11 0 14 -6 9 -22 -4 -13 -9 -31 -11 -40 -3 -10 -15
-18 -27 -18 -19 0 -20 -1 -3 -13 15 -11 16 -17 5 -40 -27 -59 -79 -46 -141 37
-57 76 -63 88 -48 116 25 47 120 60 178 24z m182 -74 c0 -5 10 -12 23 -15 25
-7 57 -52 57 -79 0 -25 -33 -48 -97 -68 -72 -22 -97 -23 -117 -2 -23 22 -20
86 4 114 11 12 22 31 25 41 5 15 16 19 56 19 27 0 49 -4 49 -10z"/>
<path d="M3325 8223 c10 -40 112 -246 157 -315 21 -32 38 -61 38 -64 0 -12
101 -104 131 -120 43 -21 23 -34 -55 -34 -105 0 -289 65 -321 114 -22 33 -72
199 -96 314 -10 48 -16 62 -28 62 -4 0 9 -64 30 -142 67 -257 79 -284 124
-292 17 -4 50 -15 71 -25 94 -46 206 -61 290 -40 41 11 63 39 30 39 -8 0 -16
3 -18 8 -1 4 -19 15 -40 26 -31 15 -52 44 -50 67 1 3 -15 24 -35 45 -42 46
-93 119 -93 132 0 6 -3 12 -7 14 -5 2 -34 56 -66 121 -57 116 -75 142 -62 90z"/>
<path d="M7270 8210 c-14 -3 -35 -21 -47 -39 l-23 -34 22 -38 c12 -22 25 -39
30 -39 15 0 8 -21 -18 -56 -25 -32 -29 -33 -68 -27 -48 7 -56 16 -56 61 0 54
32 102 69 102 12 0 21 5 21 10 0 13 -20 13 -51 -2 -34 -16 -59 -70 -59 -126 0
-27 -5 -53 -11 -59 -16 -16 -3 -93 21 -122 11 -13 31 -24 44 -25 19 -1 25 -8
29 -34 3 -18 13 -39 21 -47 22 -22 98 -30 127 -14 13 8 45 14 71 14 52 0 98
32 98 68 0 10 14 32 30 47 26 24 30 35 30 79 0 28 -4 51 -10 51 -11 0 -30 33
-35 63 -3 12 -13 39 -22 59 -14 29 -24 38 -43 38 -15 0 -36 13 -55 34 -31 34
-70 47 -115 36z m251 -232 c10 -15 12 -79 3 -102 -9 -23 -61 -20 -114 6 -25
13 -46 23 -47 24 -1 0 3 17 9 37 10 31 16 37 40 37 15 0 28 4 28 9 0 13 72 4
81 -11z m-227 -104 c9 -8 16 -24 16 -34 0 -10 5 -22 10 -25 6 -3 10 -21 10
-40 0 -40 -20 -50 -81 -40 -67 12 -75 62 -18 123 34 36 41 38 63 16z"/>
<path d="M4208 7961 c-14 -12 -29 -21 -32 -21 -3 0 -15 -9 -26 -20 -11 -11
-29 -20 -40 -20 -11 0 -20 -4 -20 -10 0 -16 19 -12 61 12 21 12 42 18 46 14 4
-4 3 -10 -2 -14 -6 -4 -22 -23 -37 -43 -16 -22 -55 -51 -99 -74 -65 -34 -82
-38 -165 -43 -75 -4 -105 -1 -161 16 -39 12 -82 31 -97 43 -15 12 -30 19 -33
16 -21 -22 86 -74 182 -89 96 -15 205 1 285 42 68 35 90 55 135 126 43 67 44
97 3 65z"/>
<path d="M7155 7265 c-47 -48 -49 -98 -5 -144 26 -27 37 -31 80 -31 41 0 54 5
74 27 34 37 41 76 21 118 -18 39 -59 65 -104 65 -21 0 -41 -11 -66 -35z m141
-12 c29 -34 30 -68 4 -110 -35 -58 -103 -56 -144 4 -23 34 -24 38 -11 69 22
52 36 63 84 64 36 0 48 -5 67 -27z"/>
<path d="M6879 6847 c-17 -19 -26 -60 -20 -97 4 -24 3 -52 -6 -100 -8 -43 -10
-45 -45 -48 -30 -3 -38 1 -43 18 -4 12 -2 35 4 51 6 16 16 43 22 59 9 23 16
29 30 25 13 -4 19 -1 19 9 0 9 -7 16 -15 16 -23 0 -55 -32 -55 -55 -1 -11 -9
-38 -19 -59 -18 -37 -18 -41 -2 -63 9 -12 22 -23 29 -24 6 -1 17 -3 22 -4 6
-1 13 -3 17 -4 4 0 2 -6 -5 -13 -25 -25 -14 -57 26 -76 20 -9 40 -21 43 -25 3
-4 22 -10 41 -14 30 -4 39 -2 50 16 15 25 24 26 44 6 19 -18 39 -10 97 39 40
33 46 43 41 65 -4 14 -12 31 -19 36 -10 9 -7 14 16 24 22 10 29 19 29 41 0 16
-4 32 -10 35 -5 3 -10 20 -10 36 0 40 -21 59 -64 59 -29 0 -36 4 -36 19 0 29
-19 38 -93 44 -60 4 -71 2 -88 -16z m144 -139 c19 -23 23 -78 5 -96 -6 -6 -8
-15 -4 -19 4 -4 11 -1 15 6 12 19 78 5 91 -19 10 -19 -5 -60 -22 -60 -4 0 -19
-11 -33 -24 -35 -33 -62 -24 -70 23 -3 21 -5 42 -3 47 4 12 -11 15 -38 8 -29
-7 -81 20 -89 47 -4 11 -4 36 -1 54 12 60 106 81 149 33z"/>
<path d="M6555 6440 c-69 -27 -67 -122 3 -144 35 -12 79 2 87 27 30 90 -14
148 -90 117z"/>
<path d="M7429 6351 c-16 -16 -29 -39 -29 -50 0 -32 43 -71 79 -71 70 0 98 80
45 128 -34 30 -60 28 -95 -7z"/>
<path d="M7390 6060 c-19 -10 -51 -21 -71 -25 -49 -9 -72 -49 -67 -118 3 -49
2 -52 -22 -55 -71 -9 -84 -143 -18 -190 10 -7 25 -28 32 -47 17 -40 49 -59 87
-51 26 5 29 3 29 -21 0 -43 25 -52 134 -53 89 0 101 2 117 22 11 11 19 29 19
40 0 10 7 18 15 18 34 0 63 30 69 72 4 23 11 47 17 54 24 29 3 190 -29 222
-12 12 -22 31 -22 42 0 12 -7 32 -16 45 -25 38 -64 33 -105 -12 l-34 -38 -6
43 c-9 70 -57 89 -129 52z m110 -36 c7 -20 10 -60 8 -90 -3 -30 -1 -54 3 -54
4 0 14 18 23 40 15 38 76 110 93 110 9 0 43 -56 43 -73 0 -6 12 -28 26 -49 33
-47 27 -85 -14 -93 -15 -3 -43 -10 -63 -15 -50 -14 -69 -12 -69 3 0 8 -10 26
-23 40 -19 23 -27 26 -61 20 -26 -4 -40 -12 -43 -24 -7 -24 -34 -32 -67 -19
-15 5 -30 10 -34 10 -12 -1 43 -40 56 -40 12 0 16 -12 13 -37 -1 -7 5 -13 14
-13 8 0 15 -3 15 -7 0 -5 3 -17 6 -28 4 -15 -6 -32 -36 -63 -60 -61 -73 -66
-104 -41 -14 11 -26 26 -26 33 0 7 -16 30 -35 50 -30 32 -35 44 -35 85 0 57
12 71 60 71 47 0 51 5 34 38 -15 28 -18 72 -8 109 5 16 17 24 43 29 20 4 52
15 71 25 19 11 49 19 67 19 27 0 33 -5 43 -36z m230 -262 c-1 -9 -7 -28 -15
-42 -8 -14 -14 -35 -15 -47 0 -12 -5 -33 -11 -47 -10 -21 -15 -23 -43 -15 -40
11 -38 12 -35 -8 2 -10 -1 -32 -5 -50 l-7 -31 -97 0 c-53 0 -103 5 -109 10
-20 16 -15 58 10 95 12 18 25 33 30 33 4 0 7 9 7 20 0 15 7 20 29 20 16 0 36
7 45 15 8 8 21 15 30 15 19 0 56 -52 56 -79 0 -12 5 -21 10 -21 6 0 10 4 10 9
0 16 -21 65 -30 71 -5 3 -11 17 -15 31 -6 23 -2 27 32 37 79 24 123 18 123
-16z"/>
<path d="M6538 6003 c-8 -10 -18 -26 -21 -35 -7 -20 -37 -24 -37 -5 0 6 -14
18 -30 26 -38 16 -76 3 -105 -36 -11 -15 -27 -34 -35 -43 -63 -65 -76 -112
-40 -145 22 -19 27 -45 9 -45 -15 0 -35 -22 -43 -48 -9 -27 16 -80 54 -117 17
-16 30 -33 30 -38 0 -14 43 -46 64 -47 15 0 16 3 6 15 -7 8 -19 15 -26 15 -8
0 -14 3 -14 8 0 4 -18 27 -41 52 -66 74 -72 108 -25 142 44 32 151 20 168 -18
6 -13 15 -24 19 -24 4 0 9 -7 13 -15 6 -17 -13 -65 -26 -65 -4 0 -8 -16 -8
-35 0 -22 -6 -38 -15 -41 -21 -8 -19 -24 3 -24 9 0 22 -10 27 -22 14 -32 60
-34 146 -8 75 24 96 38 105 76 5 20 12 24 44 24 55 0 68 21 79 126 10 95 -2
144 -35 144 -14 0 -15 8 -10 44 6 37 4 48 -13 65 -23 23 -74 51 -94 51 -7 0
-23 9 -35 20 -27 26 -93 27 -114 3z m102 -10 c0 -5 29 -21 65 -38 72 -33 85
-56 60 -105 -18 -35 -32 -43 -104 -60 -47 -11 -55 -11 -62 3 -5 8 -20 18 -34
21 -21 5 -25 12 -25 45 0 22 -5 41 -12 43 -8 3 -6 18 7 51 17 46 19 47 61 47
24 0 44 -3 44 -7z m-164 -51 c31 -45 30 -120 -2 -145 -13 -9 -26 -26 -29 -36
-5 -16 -14 -19 -63 -17 -116 5 -142 60 -68 145 69 79 86 92 113 89 18 -2 35
-15 49 -36z m343 -160 c9 -17 -3 -184 -15 -203 -6 -10 -74 -12 -98 -3 -9 3
-16 14 -16 25 0 10 -10 24 -22 30 -31 16 -38 28 -38 66 0 49 9 62 48 69 21 4
39 10 42 13 3 4 16 14 30 23 27 17 53 10 69 -20z m-246 7 c30 -16 37 -28 37
-70 0 -43 -12 -55 -62 -64 -32 -6 -40 -3 -63 20 -25 28 -35 85 -15 85 6 0 10
6 10 14 0 24 58 33 93 15z m47 -164 c7 -8 21 -15 31 -15 11 0 19 -7 19 -15 0
-8 4 -15 9 -15 5 0 12 -14 16 -31 9 -41 -12 -60 -92 -82 -81 -22 -110 -22
-123 2 -17 33 -12 85 10 104 11 9 20 23 20 31 0 32 87 48 110 21z"/>
<path d="M7065 5154 c-11 -2 -45 -11 -75 -18 -30 -8 -86 -20 -125 -26 -69 -12
-145 -38 -145 -50 0 -3 -10 -16 -21 -29 -18 -19 -21 -34 -21 -97 l1 -74 -34 0
c-79 0 -132 -47 -193 -171 -62 -128 -56 -187 30 -281 57 -61 78 -87 78 -94 0
-11 43 -45 68 -55 49 -19 91 -10 151 33 40 29 16 32 -26 4 -62 -43 -154 -27
-184 32 -13 26 -35 52 -88 110 -13 14 -30 41 -37 59 -16 36 -19 104 -6 119 5
5 21 39 37 76 66 159 180 189 360 94 17 -9 35 -16 40 -16 6 0 18 -7 28 -15 18
-13 18 -14 -2 -34 -12 -12 -21 -30 -21 -41 0 -11 -5 -20 -11 -20 -6 0 0 -14
13 -31 58 -78 59 -80 38 -114 -10 -16 -30 -52 -44 -80 -15 -27 -30 -52 -34
-55 -24 -17 -43 -50 -36 -61 4 -7 7 -34 5 -59 -4 -71 21 -119 75 -148 82 -44
226 -67 272 -43 9 5 40 17 67 27 61 21 107 54 126 91 8 16 16 30 19 33 15 15
34 83 38 138 l4 62 43 0 c56 0 94 31 126 102 49 112 19 275 -71 379 -37 43
-39 44 -98 44 l-60 0 -11 51 c-12 54 -58 108 -116 137 -32 16 -127 28 -160 21z
m167 -46 c49 -26 87 -75 95 -122 7 -42 -7 -62 -48 -71 -30 -7 -41 -35 -14 -35
8 0 15 5 15 10 0 6 11 10 25 10 14 0 25 4 25 10 0 14 75 34 102 26 76 -20 153
-167 153 -291 -1 -71 -26 -147 -62 -187 -24 -27 -122 -25 -146 2 -9 11 -17 24
-17 29 0 5 -14 19 -31 32 -16 13 -45 36 -62 51 -18 15 -44 33 -59 39 -23 9
-28 18 -28 46 0 26 -7 41 -25 55 -14 11 -25 25 -25 31 0 7 25 38 56 70 31 32
53 61 50 65 -9 8 -116 -99 -116 -115 0 -15 -29 -17 -65 -3 -16 6 -41 7 -67 1
-36 -9 -48 -6 -117 29 -42 21 -93 43 -114 50 -20 6 -42 21 -48 32 -15 28 -16
141 -1 146 7 2 12 9 12 16 0 20 76 48 171 62 49 7 94 16 100 19 21 13 106 23
154 18 27 -3 66 -14 87 -25z m-103 -397 c12 -12 22 -29 23 -39 3 -40 -3 -62
-17 -62 -8 0 -15 -4 -15 -9 0 -14 -88 -34 -122 -27 -18 3 -47 16 -65 29 -27
18 -33 29 -33 57 0 28 7 40 33 58 28 21 40 23 104 19 55 -4 76 -10 92 -26z
m91 -131 c11 -11 23 -20 28 -20 14 -1 70 -55 106 -103 30 -41 36 -57 36 -99 0
-27 -6 -62 -14 -76 -8 -15 -19 -41 -26 -58 -17 -48 -68 -89 -140 -114 -116
-41 -153 -42 -254 -4 -48 18 -89 34 -91 36 -16 19 -35 75 -35 105 0 36 27 123
43 139 4 4 7 16 7 26 0 10 4 18 9 18 5 0 13 9 16 21 9 26 36 59 45 54 4 -2 6
6 6 18 -1 20 5 22 56 25 34 2 75 12 105 27 59 30 78 30 103 5z"/>
<path d="M6059 4527 c-43 -20 -59 -43 -59 -86 0 -63 52 -101 121 -87 38 7 55
24 63 64 9 40 -16 95 -50 111 -30 13 -41 13 -75 -2z m78 -22 c26 -18 37 -63
24 -98 -7 -19 -20 -28 -45 -32 -49 -10 -72 1 -90 40 -20 41 -11 66 32 89 35
19 52 20 79 1z"/>
<path d="M5456 4493 c-8 -21 -8 -23 9 -23 9 0 18 -7 22 -16 3 -8 11 -13 18
-10 12 4 87 -40 93 -56 2 -4 8 -8 13 -8 6 0 37 -18 70 -40 33 -22 64 -40 67
-40 4 0 23 -13 42 -28 19 -15 56 -38 83 -51 26 -13 47 -28 47 -33 0 -4 4 -8 9
-8 12 0 145 -82 149 -92 2 -5 10 -8 18 -8 8 0 14 -3 14 -8 0 -7 10 -13 66 -42
16 -8 31 -18 34 -21 6 -8 169 -109 177 -109 3 0 19 -10 35 -22 44 -31 340
-178 359 -178 20 0 241 -113 266 -136 6 -6 25 -17 42 -24 29 -12 31 -16 31
-66 0 -33 4 -54 11 -54 8 0 7 -5 -2 -16 -7 -9 -14 -35 -14 -57 l-1 -42 -95 2
c-97 3 -205 21 -319 53 -206 59 -212 61 -249 100 -28 29 -60 47 -131 73 -52
20 -111 38 -130 42 -32 6 -186 55 -235 75 -11 4 -42 15 -70 23 -83 26 -139 47
-157 57 -10 6 -24 10 -31 10 -8 0 -42 12 -78 26 -35 15 -100 39 -144 55 -109
38 -196 75 -204 86 -3 4 -24 14 -46 22 -69 24 -85 39 -85 80 0 53 22 124 69
230 22 51 41 95 41 97 0 2 -9 4 -20 4 -14 0 -20 -6 -19 -22 1 -13 -13 -57 -31
-98 -33 -76 -48 -125 -57 -192 -3 -21 -11 -38 -17 -38 -18 0 -216 127 -238
152 -17 20 -20 21 -35 5 -14 -14 -15 -17 -3 -17 13 0 116 -63 130 -79 3 -3 17
-12 33 -20 34 -18 35 -34 2 -49 -33 -15 -195 -163 -195 -178 0 -3 -11 -17 -25
-32 -14 -15 -42 -53 -63 -84 -20 -32 -40 -58 -44 -58 -14 0 -78 135 -78 165 0
23 -3 27 -10 15 -12 -18 -13 -67 -2 -72 4 -1 23 -34 41 -71 19 -38 39 -74 45
-80 7 -7 23 -28 36 -47 13 -19 27 -37 30 -40 3 -3 17 -21 30 -40 58 -83 271
-295 546 -545 137 -124 254 -245 286 -294 32 -51 35 -94 16 -198 -9 -49 -9
-66 0 -75 7 -7 12 -20 12 -29 0 -10 3 -19 8 -21 4 -1 29 -33 54 -69 l47 -67
113 -4 c103 -4 114 -3 129 15 16 19 17 20 50 1 18 -10 38 -22 44 -27 40 -30
138 -87 150 -87 7 0 16 -4 19 -9 11 -17 127 -34 204 -28 105 8 181 33 332 113
29 15 39 45 22 70 -4 6 -36 30 -72 54 -36 24 -79 57 -96 74 -79 77 -150 121
-178 110 -18 -7 -114 40 -149 72 -14 13 -29 24 -32 24 -6 0 -59 38 -173 124
-49 36 -172 174 -172 192 0 4 -17 30 -38 58 -20 28 -44 63 -51 79 -8 15 -18
27 -23 27 -4 0 -8 5 -8 10 0 6 -18 38 -40 71 -22 33 -40 65 -40 70 0 5 -4 9
-9 9 -5 0 -20 24 -34 53 -14 28 -55 99 -91 157 -36 58 -66 111 -66 118 0 6 -4
12 -10 12 -5 0 -10 5 -10 11 0 6 -13 31 -30 56 -16 24 -30 46 -30 49 0 3 -13
24 -29 47 -15 23 -41 66 -56 95 -15 28 -31 52 -36 52 -5 0 -9 7 -9 15 0 21 13
19 83 -14 34 -16 94 -39 132 -52 39 -12 72 -25 75 -28 3 -3 32 -14 65 -23 59
-16 130 -40 170 -57 11 -5 43 -15 70 -24 28 -8 84 -26 125 -41 41 -14 141 -46
222 -72 174 -54 193 -69 247 -188 40 -89 62 -126 74 -126 11 0 66 -63 67 -77
0 -29 192 -5 223 28 17 18 28 21 72 16 28 -3 74 -16 103 -30 115 -56 263 -62
352 -15 25 12 47 26 48 31 2 4 8 7 14 7 22 0 149 94 167 124 29 47 35 90 16
110 -17 16 -31 21 -99 30 -23 3 -50 16 -66 31 -15 14 -44 30 -65 36 -21 6 -45
17 -53 26 -12 11 -34 13 -117 7 -96 -6 -105 -5 -146 17 -24 13 -46 27 -49 30
-5 5 -123 71 -160 89 -39 19 -92 40 -101 40 -13 0 -366 177 -379 190 -11 12
-88 58 -122 75 -21 9 -38 21 -38 26 0 5 -7 9 -15 9 -8 0 -15 4 -15 8 0 4 -24
20 -54 35 -30 15 -59 34 -66 42 -7 8 -19 15 -26 15 -8 0 -14 5 -14 10 0 6 -5
10 -11 10 -6 0 -28 13 -48 28 -20 15 -49 34 -66 42 -27 13 -113 68 -125 80 -3
3 -18 12 -35 20 -16 8 -46 27 -66 42 -20 15 -40 28 -44 28 -4 0 -49 29 -100
64 -72 49 -95 60 -99 49z m-322 -544 c31 -17 54 -35 51 -40 -4 -5 9 -9 27 -9
35 -1 68 -19 68 -40 0 -7 14 -29 30 -50 17 -21 30 -40 30 -43 0 -3 18 -34 40
-68 22 -35 46 -75 52 -89 7 -14 16 -27 20 -30 9 -7 56 -89 64 -112 4 -10 10
-18 15 -18 5 0 9 -7 9 -15 0 -8 5 -15 10 -15 6 0 10 -8 10 -17 0 -9 6 -24 13
-32 16 -19 107 -169 107 -177 0 -3 17 -31 38 -62 20 -31 43 -70 51 -85 8 -15
18 -27 23 -27 4 0 8 -6 8 -12 0 -7 27 -50 60 -96 33 -46 60 -87 60 -91 0 -4 8
-16 18 -27 10 -10 30 -36 46 -57 16 -20 56 -58 90 -83 33 -25 68 -50 76 -57 8
-7 50 -37 92 -67 56 -40 78 -61 78 -77 0 -12 -4 -25 -10 -28 -5 -3 -10 -24
-10 -46 0 -25 -5 -42 -14 -45 -8 -3 -18 -19 -21 -35 -10 -44 -45 -40 -230 23
-93 32 -317 136 -323 151 -2 4 -9 7 -15 7 -24 0 -57 44 -57 75 0 18 -9 44 -20
58 -11 14 -20 29 -20 34 0 6 -15 23 -32 40 -18 16 -47 45 -64 64 -59 65 -208
203 -365 340 -11 9 -19 21 -19 28 0 6 -4 11 -9 11 -4 0 -32 23 -62 50 -30 28
-57 50 -61 50 -5 0 -8 5 -8 10 0 13 -57 70 -70 70 -6 0 -10 5 -10 10 0 6 -14
26 -32 45 -75 83 -88 99 -94 117 -3 10 -11 18 -18 18 -6 0 -20 13 -29 30 -10
16 -25 37 -34 46 -15 15 -15 19 3 52 26 50 183 240 230 280 22 17 45 37 52 43
27 22 68 39 83 34 9 -3 42 -19 73 -36z m2488 -543 c27 -40 -21 -111 -114 -173
-88 -57 -116 -73 -133 -73 -7 0 -15 -5 -17 -12 -3 -8 -38 -13 -99 -16 -91 -4
-98 -3 -204 38 l-110 42 -110 -7 c-161 -11 -184 -8 -230 23 -37 25 -94 115
-95 150 0 17 27 15 86 -7 28 -11 93 -29 145 -40 52 -12 114 -26 139 -31 25 -6
96 -13 158 -16 118 -6 130 -1 96 37 -15 17 -15 20 0 45 17 25 70 54 100 54 24
0 27 -32 7 -85 -16 -44 -23 -50 -50 -53 -45 -5 -38 -22 8 -22 31 0 41 -4 46
-20 15 -47 101 -47 128 0 10 15 17 36 17 45 0 15 2 15 22 1 32 -23 55 -20 80
9 23 27 36 85 20 85 -10 0 -23 36 -16 43 9 8 119 -6 126 -17z m-276 -34 c14
-9 26 -85 18 -116 -4 -19 -14 -25 -42 -29 -50 -7 -76 22 -67 71 12 66 23 82
52 82 16 0 33 -4 39 -8z m-1664 -901 c5 -15 288 -148 394 -185 56 -20 115 -36
132 -36 21 0 43 -11 66 -31 20 -17 43 -32 53 -33 9 -2 21 -16 25 -32 10 -39
34 -54 84 -54 37 0 44 3 56 30 15 35 23 37 40 10 17 -27 69 -27 94 1 14 16 19
34 17 75 -2 64 11 69 72 28 77 -52 82 -68 30 -101 -19 -13 -37 -23 -40 -23 -3
0 -24 -9 -48 -19 -133 -59 -265 -76 -373 -47 -52 14 -116 44 -122 59 -2 4 -10
7 -18 7 -8 0 -14 4 -14 9 0 5 -11 12 -24 15 -14 3 -31 12 -38 20 -18 17 -92
55 -133 68 -16 5 -75 13 -131 17 -123 9 -155 28 -172 103 -7 26 -10 53 -8 60
3 7 7 25 10 41 6 26 40 39 48 18z"/>
<path d="M1122 3858 c-12 -24 -52 -77 -90 -118 -39 -41 -68 -79 -65 -84 4 -5
2 -6 -4 -3 -6 4 -29 -9 -51 -29 -43 -36 -112 -58 -112 -34 0 7 11 21 25 32 26
20 33 38 14 38 -25 0 -66 -70 -53 -91 15 -25 100 0 147 44 17 17 27 21 27 12
0 -7 -11 -22 -25 -33 -15 -12 -25 -30 -25 -45 0 -36 42 -42 80 -11 15 13 31
24 34 24 8 0 55 41 155 136 42 40 91 86 110 103 19 17 31 34 29 37 -7 6 -71
-48 -154 -128 -35 -33 -77 -70 -94 -82 -16 -12 -30 -27 -30 -33 0 -7 -5 -13
-11 -13 -6 0 -22 -9 -36 -20 -25 -20 -63 -27 -63 -12 0 10 24 44 58 80 32 35
37 41 82 107 19 28 37 52 40 55 8 8 50 94 50 103 0 20 -20 2 -38 -35z"/>
<path d="M4746 2333 c-10 -3 -24 -9 -30 -14 -6 -5 -22 -19 -36 -30 -15 -13
-32 -18 -45 -14 -83 24 -148 9 -203 -48 l-33 -33 31 -32 c33 -35 35 -34 -49
-53 -93 -21 -199 -85 -205 -124 -8 -50 37 -80 134 -90 91 -9 98 -15 58 -51
-64 -58 -138 -168 -138 -206 0 -36 30 -51 92 -45 32 3 64 10 71 15 7 6 29 13
50 17 20 4 41 12 45 19 6 10 72 39 72 31 0 -1 -7 -19 -15 -38 -9 -21 -15 -67
-15 -110 0 -65 3 -77 25 -101 41 -44 64 -35 187 73 21 18 38 38 38 43 0 10 25
38 34 38 3 0 6 -5 6 -11 0 -6 14 -40 31 -75 45 -91 137 -162 177 -136 15 10
35 173 28 225 -4 20 -4 37 0 37 3 0 24 -13 47 -29 73 -49 127 -73 154 -66 24
6 24 8 20 73 -3 37 -9 86 -14 110 l-10 42 66 0 c115 0 172 28 143 69 -7 9 -16
25 -21 37 -5 12 -30 43 -54 70 -35 38 -43 53 -36 66 16 30 10 58 -21 92 -34
37 -112 81 -141 79 -10 -1 -24 8 -30 20 -18 33 -40 51 -87 70 -50 20 -104 22
-132 5 -18 -11 -24 -9 -52 21 -45 49 -93 66 -142 54z m115 -61 l39 -39 -16
-47 c-9 -26 -14 -50 -11 -52 6 -7 37 49 37 66 0 29 34 45 95 45 52 0 68 -5 99
-29 20 -15 35 -33 33 -39 -2 -6 -25 -16 -53 -22 -27 -6 -82 -24 -122 -38 -54
-20 -74 -24 -77 -14 -4 8 -22 11 -55 9 -41 -3 -50 -1 -50 12 0 9 -4 16 -10 16
-5 0 -10 6 -10 13 0 7 -18 33 -40 57 -22 25 -40 48 -40 53 0 16 67 47 103 47
31 0 46 -7 78 -38z m-202 -32 c40 -23 105 -114 97 -135 -10 -26 -71 -28 -131
-6 -31 12 -64 21 -75 21 -31 0 -120 53 -120 71 0 13 42 50 75 65 38 18 105 11
154 -16z m589 -114 c33 -17 92 -81 92 -99 -1 -32 -18 -42 -52 -30 -57 21 -180
36 -251 30 -65 -4 -68 -3 -88 24 l-20 29 48 21 c102 44 214 55 271 25z m-610
-52 c47 -21 49 -25 25 -65 -12 -20 -25 -29 -42 -29 -13 0 -62 -18 -107 -40
-92 -45 -92 -45 -201 -28 -127 19 -154 68 -65 121 85 50 151 67 252 63 65 -2
109 -9 138 -22z m252 -4 c52 -26 75 -70 60 -113 -12 -36 -49 -79 -61 -71 -5 3
-9 2 -9 -3 0 -15 -88 -14 -124 1 -37 15 -76 67 -76 99 0 33 33 76 69 91 50 21
95 19 141 -4z m365 -85 c61 -18 110 -58 168 -137 46 -62 25 -78 -106 -78 -67
0 -80 3 -95 21 -53 66 -98 101 -176 139 -75 37 -83 45 -66 65 17 20 196 14
275 -10z m-589 -47 c9 -18 21 -36 26 -39 5 -3 -15 -40 -45 -82 -31 -42 -57
-80 -59 -84 -4 -10 -82 -63 -92 -63 -9 0 -69 -25 -100 -42 -11 -6 -45 -13 -77
-15 -49 -5 -60 -3 -65 12 -16 40 92 189 185 254 36 26 178 91 198 91 7 0 20
-15 29 -32z m367 -21 c55 -22 166 -111 167 -133 0 -5 8 -19 18 -30 33 -35 58
-193 33 -208 -15 -9 -58 11 -133 61 -69 46 -102 91 -122 163 -10 36 -39 90
-48 90 -12 0 -9 -15 11 -57 67 -134 85 -208 77 -318 -6 -94 -20 -121 -54 -107
-29 10 -92 75 -106 107 -8 16 -21 46 -30 67 -9 20 -16 50 -16 68 0 38 -20 36
-31 -2 -7 -28 -69 -117 -81 -118 -5 0 -18 -9 -30 -19 -13 -11 -34 -29 -47 -40
-26 -23 -48 -26 -71 -11 -11 7 -16 32 -18 92 -4 81 -3 85 42 173 25 50 59 106
76 125 16 19 30 39 30 44 0 4 12 6 28 3 90 -19 107 -24 106 -33 -9 -68 -12
-174 -6 -174 11 0 22 72 22 138 0 50 18 71 60 72 20 0 29 8 39 35 7 19 16 35
20 35 4 0 33 -10 64 -23z"/>
<path d="M510 1949 c-48 -19 -70 -49 -70 -94 0 -25 7 -52 18 -66 47 -65 54
-100 23 -121 -31 -22 -35 -70 -10 -119 13 -24 26 -46 30 -49 13 -9 29 -59 29
-88 0 -52 32 -67 150 -70 58 -2 109 -8 115 -13 5 -5 30 -9 56 -9 36 0 52 5 69
23 20 20 30 23 71 19 29 -3 49 0 49 6 0 5 13 15 29 21 15 7 45 30 66 51 35 36
37 42 33 83 -6 50 -30 80 -91 112 -29 15 -33 21 -20 26 11 4 13 8 5 13 -6 4
-20 2 -31 -4 -39 -20 -69 -12 -98 28 -39 51 -70 75 -119 90 -33 9 -44 19 -53
42 -16 48 -6 60 54 60 41 0 69 -8 122 -35 37 -20 75 -41 83 -48 24 -19 50 -73
50 -102 0 -15 4 -24 10 -20 16 10 11 55 -9 89 -23 37 -57 63 -131 102 -47 24
-67 29 -136 29 -45 0 -87 5 -95 11 -51 41 -141 56 -199 33z m154 -25 c19 -9
40 -27 47 -40 7 -13 16 -24 21 -24 4 0 8 -8 8 -18 0 -10 5 -23 11 -29 8 -8 6
-15 -10 -25 -21 -13 -29 -48 -11 -48 6 0 10 7 10 15 0 10 11 15 35 15 36 0
105 -28 105 -42 0 -4 6 -8 13 -8 8 0 19 -18 26 -40 15 -52 2 -80 -39 -80 -37
0 -98 38 -106 66 -3 12 -19 34 -34 49 -28 26 -33 27 -102 23 -40 -3 -74 -11
-76 -17 -10 -31 -70 21 -87 77 -3 12 -11 22 -17 22 -15 0 -3 67 16 85 37 37
132 46 190 19z m74 -238 c13 -19 20 -40 16 -50 -5 -12 0 -16 20 -16 14 0 26
-4 26 -10 0 -5 5 -10 11 -10 38 0 104 -118 104 -185 -1 -65 -9 -75 -58 -75
-24 0 -47 4 -53 9 -5 5 -58 11 -118 13 -97 3 -110 6 -126 26 -10 12 -16 30
-13 41 5 20 -12 57 -52 117 -14 20 -25 48 -25 61 0 29 62 91 99 99 14 3 36 9
49 13 13 3 40 5 61 3 28 -3 42 -11 59 -36z m327 -67 c62 -31 74 -43 83 -85 8
-35 5 -43 -21 -76 -16 -21 -35 -38 -43 -38 -8 0 -14 -4 -14 -10 0 -5 -7 -10
-15 -10 -8 0 -15 -4 -15 -10 0 -12 -70 -13 -89 -1 -7 5 -15 25 -17 44 -1 20
-14 58 -28 86 -31 61 -31 61 -6 61 11 0 20 5 20 10 0 6 7 10 15 10 8 0 15 8
15 18 0 10 3 22 7 26 10 10 62 -2 108 -25z"/>
<path d="M6897 1665 c-11 -8 -17 -26 -17 -48 0 -34 -2 -36 -27 -31 -36 6 -44
-1 -67 -61 -30 -80 -27 -107 12 -127 44 -22 44 -21 33 -50 -12 -32 -7 -38 57
-71 64 -32 85 -34 109 -8 13 14 23 17 33 11 29 -18 55 -9 103 34 48 45 58 74
33 99 -17 17 -2 39 20 30 19 -7 18 49 -2 107 -21 61 -32 72 -68 68 -26 -2 -32
1 -34 20 -2 12 -12 26 -22 32 -26 14 -142 10 -163 -5z m121 -121 c13 -4 22
-14 22 -25 0 -11 5 -19 10 -19 13 0 13 -43 -1 -73 -12 -27 -67 -51 -95 -41
-39 14 -54 36 -54 80 0 65 48 96 118 78z"/>
</g>
</svg>
