<?xml version="1.0" standalone="no"?>
<!DOCTYPE svg PUBLIC "-//W3C//DTD SVG 20010904//EN"
 "http://www.w3.org/TR/2001/REC-SVG-20010904/DTD/svg10.dtd">
<svg version="1.0" xmlns="http://www.w3.org/2000/svg"
 width="246.000000pt" height="246.000000pt" viewBox="0 0 246.000000 246.000000"
 preserveAspectRatio="xMidYMid meet">
<metadata>
Created by potrace 1.16, written by Peter Selinger 2001-2019
</metadata>
<g transform="translate(0.000000,246.000000) scale(0.100000,-0.100000)"
fill="#000000" stroke="none">
<path d="M2078 2225 c-30 -17 -43 -45 -33 -75 5 -15 -8 -32 -52 -75 -74 -70
-122 -87 -242 -80 l-86 4 84 -10 c118 -13 168 2 249 77 58 52 62 59 56 89 -7
37 11 61 53 71 31 8 63 -23 63 -60 0 -12 14 -35 31 -52 53 -50 73 -100 73
-179 0 -86 -29 -149 -103 -223 -79 -79 -175 -115 -264 -98 -45 8 -175 104
-201 148 -38 63 -89 125 -81 99 4 -13 20 -36 35 -50 15 -14 31 -36 34 -48 4
-12 24 -36 44 -54 20 -18 36 -37 34 -42 -1 -5 2 -6 8 -2 6 4 22 -4 35 -17 50
-50 187 -64 253 -27 19 11 39 16 45 13 7 -4 9 -4 5 1 -4 4 9 21 30 37 20 16
41 36 45 44 5 8 13 11 19 8 6 -4 8 -3 4 4 -3 5 -3 12 2 14 4 1 21 26 37 53 27
46 30 58 30 144 -1 65 -4 96 -13 99 -7 2 -12 11 -12 21 0 9 -18 35 -40 56 -25
24 -40 48 -40 63 0 27 -34 62 -59 62 -9 -1 -28 -7 -43 -15z"/>
<path d="M540 2201 c14 -5 45 -20 68 -35 24 -15 54 -31 67 -36 19 -7 25 -17
25 -38 0 -15 -5 -33 -11 -39 -9 -9 -6 -19 10 -42 27 -38 51 -105 51 -144 0
-88 -76 -194 -155 -216 -62 -17 -154 -13 -201 8 -46 21 -100 81 -113 126 -5
17 -10 22 -10 12 -2 -32 39 -97 80 -127 96 -69 265 -57 342 25 73 78 87 186
38 285 -17 33 -27 62 -23 64 4 2 9 18 10 35 2 33 -4 39 -102 97 -32 18 -68 34
-80 33 -18 -1 -18 -2 4 -8z"/>
<path d="M474 2041 c4 -5 -2 -7 -12 -5 -23 7 -81 -33 -108 -74 -63 -93 -24
-231 74 -260 181 -54 326 85 253 243 -22 49 -48 73 -98 91 -43 15 -117 19
-109 5z"/>
<path d="M1124 1988 c-50 -24 -61 -105 -25 -176 24 -46 81 -99 118 -108 60
-15 139 64 163 165 21 88 -19 136 -102 121 -28 -6 -59 -5 -80 0 -40 12 -47 12
-74 -2z"/>
<path d="M1245 1541 c-20 -4 -26 -9 -18 -14 7 -4 21 -3 32 3 27 14 47 13 65
-6 19 -18 21 -65 5 -81 -9 -9 -8 -18 4 -36 8 -13 21 -44 27 -68 7 -24 23 -59
36 -77 57 -74 66 -130 34 -215 -34 -92 -101 -137 -200 -137 -75 0 -119 19
-164 71 -71 83 -73 191 -6 276 11 14 20 33 19 42 0 9 -5 4 -11 -11 -5 -16 -13
-28 -18 -28 -13 0 -50 -97 -50 -133 0 -157 159 -274 303 -223 104 37 157 115
157 228 0 52 -4 66 -40 117 -21 32 -41 71 -44 86 -3 14 -14 42 -25 60 -16 28
-17 36 -6 45 17 14 11 67 -11 91 -18 19 -36 22 -89 10z"/>
<path d="M1986 1499 c-27 -10 -52 -23 -56 -29 -4 -7 -22 -8 -47 -4 -23 3 -43
2 -46 -3 -4 -6 4 -8 17 -6 13 3 33 0 44 -6 15 -8 23 -6 37 9 22 24 120 53 153
45 23 -6 24 -9 20 -70 -4 -60 -3 -64 24 -80 80 -47 108 -188 54 -279 -53 -90
-140 -131 -269 -125 -61 4 -83 10 -123 34 -72 45 -108 109 -112 199 -2 59 1
77 20 111 20 33 65 74 97 87 4 2 11 19 14 38 5 28 4 31 -4 17 -6 -11 -12 -26
-13 -34 -1 -8 -20 -24 -41 -36 -101 -57 -115 -239 -27 -342 18 -22 80 -68 97
-72 74 -21 138 -25 192 -13 32 8 62 14 67 15 5 0 31 21 57 46 27 26 51 44 54
40 4 -3 6 -1 5 4 -4 19 0 36 8 31 9 -5 14 38 15 114 0 71 -4 85 -39 128 -16
21 -27 42 -26 47 2 5 0 7 -3 3 -4 -4 -16 -3 -26 3 -15 8 -17 14 -9 29 15 28
12 72 -6 98 -19 27 -59 28 -128 1z"/>
<path d="M379 1450 c-24 -16 -49 -30 -55 -30 -13 0 -44 -32 -44 -46 0 -4 7 2
16 14 8 12 21 22 27 22 7 0 32 14 56 30 50 34 99 39 145 15 15 -8 43 -15 60
-15 18 0 52 -13 80 -30 40 -26 47 -35 44 -57 -2 -18 -15 -35 -37 -50 -23 -15
-28 -23 -17 -23 30 0 73 -53 81 -98 9 -54 -8 -104 -46 -136 -33 -28 -102 -42
-139 -28 -18 7 -32 4 -55 -9 -59 -37 -151 -15 -190 44 -8 14 -20 44 -25 68
l-9 44 2 -40 c0 -25 11 -55 29 -81 15 -23 25 -43 23 -46 -2 -2 4 -4 13 -5 9
-1 33 -5 52 -10 20 -5 50 -6 70 -1 19 5 41 9 48 10 6 1 12 4 12 8 0 3 29 4 66
2 52 -3 69 -1 85 13 10 10 19 15 19 11 0 -4 7 -1 15 8 8 8 15 19 15 24 0 6 5
12 12 14 13 5 28 117 16 124 -4 3 -8 12 -8 20 0 9 -14 27 -31 41 l-30 26 20
21 c12 13 21 36 21 54 0 27 -7 36 -47 62 -29 18 -62 30 -83 30 -19 0 -46 7
-60 15 -43 24 -102 19 -151 -15z"/>
<path d="M486 1329 c-25 -28 -51 -68 -57 -90 -9 -28 -18 -39 -31 -39 -54 0
-78 -47 -54 -104 26 -63 97 -76 146 -27 26 26 30 27 45 12 23 -23 97 -21 124
3 28 25 36 77 19 113 -11 22 -20 28 -47 28 -41 0 -57 21 -73 97 -7 32 -15 58
-19 58 -4 0 -28 -23 -53 -51z"/>
<path d="M1789 1317 c-49 -33 -60 -61 -57 -138 3 -54 9 -73 31 -103 76 -99
255 -109 349 -19 68 65 74 179 13 240 -28 28 -40 33 -80 33 -25 0 -55 -4 -65
-10 -13 -7 -31 -5 -60 5 -59 21 -91 19 -131 -8z"/>
<path d="M1982 824 l-32 -26 -46 18 c-38 14 -51 15 -78 6 -18 -7 -43 -12 -57
-12 -25 0 -88 -34 -101 -54 -17 -26 -8 -61 22 -81 16 -11 29 -24 28 -30 -5
-24 14 -64 32 -70 11 -3 20 -11 20 -16 0 -5 6 -8 13 -6 8 1 11 -8 9 -28 -3
-36 27 -88 65 -111 30 -19 41 -28 117 -98 65 -59 117 -70 170 -34 20 14 34 27
31 30 -3 3 1 11 10 18 8 7 15 23 15 35 0 12 7 40 16 60 10 25 13 51 9 72 -4
21 -2 40 5 48 20 25 2 87 -37 127 l-36 37 16 39 c16 39 15 41 -8 66 -13 14
-32 26 -42 25 -16 0 -15 -1 2 -9 39 -15 50 -38 37 -74 -17 -47 -16 -54 23 -91
l36 -33 -5 -96 c-2 -53 -9 -103 -16 -111 -6 -7 -13 -28 -15 -46 -14 -106 -122
-136 -203 -56 -71 68 -88 82 -115 96 -37 20 -71 75 -63 105 6 25 -6 40 -48 61
-13 7 -22 22 -24 42 -2 23 -13 39 -33 54 -23 16 -29 28 -27 47 4 35 60 72 109
72 21 0 41 5 44 10 10 15 47 12 86 -8 35 -18 37 -18 59 0 13 10 30 23 39 28 9
5 13 11 11 14 -3 3 -20 -6 -38 -20z"/>
<path d="M1252 810 c-36 -26 -43 -28 -71 -17 -37 14 -59 4 -79 -37 -8 -15 -28
-36 -46 -48 -18 -12 -42 -36 -54 -54 -23 -35 -46 -118 -31 -108 5 3 9 15 9 27
0 37 43 100 88 130 23 16 42 36 42 46 0 38 47 54 83 27 16 -12 22 -10 50 15
34 32 74 36 87 9 4 -8 14 -29 23 -46 9 -17 14 -34 10 -38 -3 -3 1 -6 9 -6 25
0 67 -39 89 -82 14 -28 21 -59 20 -100 0 -141 -106 -238 -260 -238 -112 0
-182 36 -220 112 -11 24 -21 36 -21 27 0 -17 46 -85 73 -107 29 -25 112 -48
169 -47 32 0 54 -4 50 -9 -3 -5 5 -2 19 7 13 9 31 17 40 17 9 0 26 9 39 20 13
11 27 20 31 20 16 0 79 93 89 131 21 77 17 99 -38 213 -3 5 2 5 9 1 8 -5 10
-4 6 0 -4 5 -14 10 -22 11 -28 4 -65 40 -87 86 -31 66 -56 75 -106 38z"/>
<path d="M613 810 c64 -51 111 -192 112 -340 0 -106 -21 -167 -76 -213 -121
-105 -331 -56 -354 81 -10 58 -16 62 -10 8 3 -31 14 -61 30 -81 13 -18 21 -36
17 -39 -3 -4 1 -4 9 -1 9 3 21 -1 28 -9 17 -20 115 -39 165 -32 53 8 104 34
134 69 13 15 29 24 34 20 7 -3 8 -1 4 5 -4 6 2 29 14 51 26 51 28 200 4 280
-8 29 -13 59 -10 67 3 8 1 14 -4 14 -6 0 -10 5 -10 11 0 24 -55 98 -84 114
l-31 16 28 -21z"/>
<path d="M458 707 c-12 -8 -17 -33 -20 -87 -3 -67 -8 -82 -46 -144 -64 -105
-55 -179 24 -212 72 -30 177 -6 222 50 48 62 51 218 5 342 -19 51 -53 74 -53
35 0 -31 -16 -34 -34 -6 -18 28 -33 25 -46 -9 -8 -20 -9 -19 -22 11 -12 28
-17 31 -30 20z"/>
<path d="M2037 703 c-25 -3 -42 -12 -52 -27 -11 -17 -22 -22 -41 -18 -33 6
-66 -24 -62 -58 1 -14 -1 -30 -5 -36 -3 -6 -2 -26 3 -43 8 -28 7 -31 -5 -21
-23 19 -18 -4 5 -25 12 -11 30 -16 49 -13 23 3 31 0 35 -14 4 -16 2 -17 -10
-7 -8 6 -14 8 -14 3 1 -27 43 -53 76 -48 15 2 23 -3 27 -16 6 -22 -8 -28 -16
-7 -4 8 -6 7 -6 -3 -1 -24 20 -40 50 -40 36 0 61 26 57 60 -1 15 5 34 15 44
19 20 23 66 6 83 -9 9 -8 16 5 28 33 34 10 95 -37 95 -22 0 -52 44 -41 61 3 5
4 8 2 7 -2 -1 -20 -3 -41 -5z"/>
<path d="M1200 675 c-9 -11 -23 -13 -51 -9 -73 12 -121 -46 -122 -146 0 -66
24 -124 65 -153 39 -29 163 -36 223 -13 119 46 162 201 78 285 -31 31 -37 33
-82 29 -31 -3 -55 0 -67 9 -23 17 -29 16 -44 -2z"/>
</g>
</svg>
