<?xml version="1.0" standalone="no"?>
<!DOCTYPE svg PUBLIC "-//W3C//DTD SVG 20010904//EN"
 "http://www.w3.org/TR/2001/REC-SVG-20010904/DTD/svg10.dtd">
<svg version="1.0" xmlns="http://www.w3.org/2000/svg"
 width="246.000000pt" height="246.000000pt" viewBox="0 0 246.000000 246.000000"
 preserveAspectRatio="xMidYMid meet">
<metadata>
Created by potrace 1.16, written by Peter Selinger 2001-2019
</metadata>
<g transform="translate(0.000000,246.000000) scale(0.100000,-0.100000)"
fill="#000000" stroke="none">
<path d="M786 947 c-6 -25 -4 -42 4 -52 10 -13 9 -15 -11 -16 -22 0 -23 -1 -4
-9 17 -7 17 -9 3 -9 -11 -1 -15 -6 -12 -16 5 -13 9 -13 23 -3 14 12 15 11 1
-6 -14 -17 -15 -17 -31 3 -18 22 -31 18 -21 -7 5 -14 3 -15 -9 -5 -15 12 -19
13 -45 13 -10 0 -14 6 -11 14 3 7 0 19 -6 25 -17 17 -26 13 -20 -10 4 -15 0
-22 -16 -26 -11 -3 -18 -10 -14 -16 4 -6 0 -8 -10 -4 -10 3 -17 2 -17 -4 0 -5
-11 -7 -25 -3 -20 5 -24 3 -19 -9 3 -9 13 -13 25 -10 10 3 19 0 19 -6 0 -16
21 -9 49 16 17 15 29 19 35 13 6 -6 18 -10 27 -10 9 0 19 -6 22 -13 3 -8 24
-14 52 -16 37 -1 53 3 70 19 20 18 24 19 48 7 15 -8 23 -17 19 -21 -4 -4 -2
-7 3 -5 6 1 21 0 35 -3 14 -4 72 -11 130 -18 58 -6 146 -22 195 -35 86 -22 91
-22 105 -5 8 10 22 20 30 24 9 3 5 5 -10 5 -48 -2 -59 1 -89 27 -17 14 -31 23
-31 19 0 -4 -7 -2 -15 5 -8 7 -15 17 -15 23 0 6 7 2 16 -9 23 -29 5 5 -29 53
-17 23 -34 40 -40 36 -6 -3 -7 -1 -4 5 4 5 -7 22 -25 37 -31 26 -36 27 -113
22 -44 -3 -116 -17 -160 -31 -44 -15 -81 -26 -83 -26 -2 0 0 9 3 20 3 11 2 20
-4 20 -5 0 -11 8 -14 18 -2 10 -7 2 -11 -21z"/>
<path d="M1619 861 c-44 -14 -70 -32 -63 -43 4 -6 3 -9 -2 -5 -5 3 -26 -4 -45
-16 -30 -18 -34 -25 -23 -34 10 -10 14 -9 19 7 5 16 10 18 24 10 10 -5 22 -6
26 -2 5 4 5 -1 2 -10 -8 -23 9 -24 17 -1 4 9 2 20 -4 23 -8 5 -6 9 5 13 9 4
13 3 10 -3 -6 -9 8 -14 29 -11 4 1 14 -4 22 -10 10 -8 14 -8 14 0 0 6 11 11
25 11 14 0 25 -5 25 -11 0 -16 31 -38 53 -39 19 0 23 15 7 25 -5 3 -10 10 -10
16 0 5 8 1 19 -10 10 -10 27 -24 37 -29 16 -9 17 -14 7 -31 -12 -19 -11 -20
10 -12 12 5 21 14 20 20 -2 6 4 8 12 4 14 -5 13 -7 -2 -18 -16 -12 -16 -14 0
-29 9 -10 17 -13 17 -7 0 19 18 12 25 -9 4 -11 11 -17 17 -14 6 4 5 10 -3 16
-12 8 -12 9 0 6 23 -6 21 -37 -2 -53 -12 -8 -16 -15 -9 -15 25 0 6 -25 -28
-37 -23 -7 -28 -12 -15 -12 11 -1 29 -7 40 -15 11 -8 67 -25 125 -39 209 -50
209 -50 225 -37 12 10 16 9 21 -4 4 -11 11 -13 23 -6 10 5 22 5 27 1 5 -5 39
-12 77 -16 l67 -7 0 201 c0 154 -3 201 -12 201 -9 0 -8 4 2 10 32 21 -5 9 -51
-17 -52 -28 -62 -45 -10 -19 16 9 36 16 43 15 7 0 0 -5 -16 -11 -20 -7 -25
-13 -15 -19 8 -4 -3 -6 -26 -4 -49 4 -76 -9 -69 -33 5 -13 4 -14 -4 -4 -8 11
-17 10 -51 -7 -25 -13 -39 -26 -35 -33 4 -7 3 -8 -4 -4 -6 3 -38 -3 -71 -14
-33 -11 -77 -20 -98 -20 -57 0 -133 41 -209 112 -38 36 -79 70 -91 77 -24 12
-85 13 -124 2z"/>
<path d="M114 775 c7 -20 -39 -66 -82 -84 -28 -12 -32 -18 -32 -52 0 -22 4
-39 9 -39 14 0 156 64 159 72 2 4 10 4 18 1 8 -3 14 0 14 6 0 6 -5 11 -11 11
-8 0 -9 4 0 13 6 8 8 17 4 21 -4 3 2 12 12 20 12 9 15 15 7 20 -7 4 -12 2 -12
-5 0 -7 -10 -9 -25 -7 -14 3 -25 1 -25 -3 0 -5 -5 -9 -11 -9 -5 0 -8 4 -5 9 8
12 -4 41 -16 41 -6 0 -7 -7 -4 -15z"/>
<path d="M484 622 c-23 -45 -34 -54 -51 -40 -10 8 -13 7 -13 -5 0 -8 -7 -20
-15 -27 -23 -19 -18 1 11 43 14 21 24 40 22 43 -13 12 -85 -23 -125 -62 -26
-24 -48 -44 -49 -44 -6 0 -24 66 -24 87 0 68 -66 -33 -76 -116 l-7 -55 -28 55
-29 54 2 -67 3 -67 -36 5 c-47 8 -56 -7 -18 -30 27 -16 29 -16 29 0 0 12 6 15
25 10 16 -4 25 -2 25 5 0 6 7 8 16 5 9 -3 52 5 97 19 89 28 225 60 302 70 45
6 55 12 98 61 49 55 51 64 7 39 -37 -21 -44 -18 -25 11 9 14 15 28 12 30 -8 9
-55 -15 -81 -41 l-26 -26 -9 23 c-5 13 -6 28 -4 34 2 7 0 15 -5 18 -5 3 -18
-11 -28 -32z"/>
<path d="M933 279 c-3 -11 -11 -18 -18 -15 -7 2 -20 -1 -30 -7 -19 -15 -11
-47 12 -47 11 0 13 -4 7 -12 -5 -7 -9 -29 -9 -50 0 -20 -3 -34 -7 -32 -3 2 -9
-2 -12 -8 -5 -10 -7 -10 -12 0 -3 7 -20 19 -37 28 -22 10 -27 11 -15 1 9 -7
20 -26 24 -42 4 -16 17 -37 28 -47 15 -13 9 -11 -21 4 -23 13 -37 26 -31 29
16 10 -59 21 -97 13 -19 -3 -35 -11 -35 -16 0 -5 10 -7 23 -3 19 5 20 4 4 -5
-17 -11 -37 -6 -37 10 0 4 18 31 40 59 44 56 38 62 -30 35 -22 -9 -51 -30 -65
-47 -13 -17 -26 -29 -29 -26 -7 7 13 91 26 107 7 8 15 9 21 3 13 -13 47 4 47
23 0 8 -7 19 -16 27 -18 15 -49 1 -49 -22 0 -8 -12 -30 -27 -49 -14 -19 -29
-50 -33 -68 -5 -26 -10 -31 -20 -22 -10 8 -15 7 -19 -2 -3 -7 -4 -4 -1 8 4 15
-2 24 -22 33 -26 12 -27 12 -12 -6 19 -21 33 -73 20 -73 -4 0 -30 10 -57 21
-40 18 -51 20 -68 9 -21 -13 -21 -13 -2 9 11 11 14 21 8 21 -6 0 -18 -10 -26
-22 -10 -14 -16 -17 -16 -8 0 9 -9 6 -27 -11 -20 -18 -16 -9 17 40 31 47 45
60 51 50 7 -11 9 -11 9 -1 0 7 4 11 9 7 5 -3 13 -1 16 5 4 7 -10 9 -45 6 -51
-5 -98 -30 -132 -71 -17 -20 -17 -20 -17 5 0 14 6 43 14 65 l14 40 -19 -24
c-11 -12 -17 -27 -14 -32 3 -5 0 -9 -6 -9 -6 0 -9 -4 -6 -9 4 -5 -8 -4 -24 2
-25 9 -33 9 -39 -2 -5 -8 -14 -10 -22 -6 -9 6 -11 3 -5 -10 9 -26 -21 -55 -57
-55 -34 0 -29 -12 6 -15 12 -1 22 -6 22 -11 0 -5 4 -15 8 -22 6 -8 2 -12 -10
-12 -10 0 -25 -4 -33 -10 -24 -15 1018 -13 1052 3 34 14 35 25 6 36 l-22 8 20
11 c17 9 25 8 40 -4 18 -14 18 -15 -6 -8 -24 6 -24 6 -8 -13 13 -14 15 -22 7
-30 -8 -8 29 -11 130 -11 88 0 141 4 141 10 0 5 -9 12 -20 15 -25 7 -27 26 -2
21 9 -2 21 -13 27 -25 9 -21 14 -22 182 -22 126 0 173 3 173 11 0 9 3 9 12 0
8 -8 48 -12 114 -12 107 0 166 15 178 45 3 9 10 13 16 10 15 -9 12 -25 -4 -25
-8 0 -16 -6 -19 -14 -5 -12 22 -15 165 -16 119 0 179 3 199 12 34 15 37 24 9
33 -26 8 -25 21 3 29 18 5 20 8 7 16 -20 13 -76 13 -101 0 -28 -16 -23 -1 16
49 19 24 33 46 31 49 -3 2 -18 1 -33 -3 -15 -5 -31 -9 -35 -9 -3 -1 -10 -4
-13 -8 -4 -4 -16 -3 -27 3 -10 5 -23 7 -29 3 -8 -4 -9 1 -5 17 7 23 6 23 -5 4
-7 -11 -19 -26 -27 -34 -7 -8 -11 -22 -9 -32 6 -23 -18 -32 -34 -13 -17 21
-64 44 -86 43 -10 0 -3 -5 16 -12 19 -7 45 -28 60 -47 21 -29 22 -32 4 -17
-21 18 -21 18 -16 -2 7 -28 -9 -26 -45 4 -28 23 -90 36 -78 16 4 -5 -3 -7 -14
-4 -11 3 -33 0 -50 -5 -38 -14 -39 -1 -5 44 15 19 36 34 51 36 41 5 52 30 25
57 -13 13 -27 19 -34 14 -14 -9 -19 -43 -6 -43 5 0 9 10 9 23 0 17 2 19 9 8 5
-8 8 -19 7 -25 -2 -6 -1 -8 1 -3 8 14 22 7 16 -9 -4 -11 -13 -13 -35 -9 -47
11 -136 -33 -121 -59 3 -6 2 -8 -2 -3 -5 4 -16 0 -26 -9 -17 -15 -18 -14 -12
22 3 22 10 48 15 59 5 12 -1 8 -16 -10 -28 -33 -42 -78 -30 -97 4 -7 -12 5
-37 27 -24 22 -43 46 -41 55 2 13 2 13 -7 0 -9 -13 -11 -13 -11 3 0 9 -4 17
-10 17 -5 0 -7 -7 -4 -15 4 -8 1 -15 -5 -15 -6 0 -11 10 -11 21 0 18 5 20 26
16 16 -3 22 -1 16 5 -18 18 -47 4 -47 -22 0 -18 6 -26 23 -28 12 -2 28 -12 35
-23 6 -10 17 -19 24 -19 7 0 13 -5 13 -11 0 -5 -5 -7 -11 -4 -6 4 -9 0 -7 -10
5 -29 -18 -28 -46 2 -25 26 -27 27 -32 8 -3 -14 -15 -21 -36 -22 -17 -1 -42
-12 -55 -24 -12 -13 -23 -17 -23 -11 0 7 5 12 11 12 5 0 7 5 3 12 -4 7 -3 8 4
4 7 -4 19 10 31 34 19 40 19 41 0 35 -12 -4 -19 -2 -19 6 0 7 -8 3 -18 -9 -17
-20 -19 -20 -30 -2 -17 28 -47 15 -49 -22 -3 -40 -9 -45 -31 -25 -10 10 -22
17 -25 17 -9 0 14 -42 28 -52 19 -14 -26 -8 -56 7 -20 11 -43 14 -70 10 -44
-7 -44 -7 -8 46 18 26 18 26 -7 21 -13 -2 -38 -17 -55 -33 -22 -21 -31 -24
-35 -14 -3 7 -1 22 5 34 17 30 13 38 -5 12 -15 -21 -18 -21 -26 -7 -11 20 -37
21 -44 2 -6 -17 -40 -27 -108 -32 -46 -3 -71 -18 -60 -35 2 -4 0 -10 -5 -14
-22 -13 0 37 39 90 40 55 37 70 -10 45 -14 -7 -19 -5 -23 10 -3 11 1 21 9 24
8 3 14 15 14 26 0 19 -9 24 -36 21 -7 -1 -14 8 -17 19 -7 26 -37 26 -44 -1z"/>
</g>
</svg>
