<?xml version="1.0" standalone="no"?>
<!DOCTYPE svg PUBLIC "-//W3C//DTD SVG 20010904//EN"
 "http://www.w3.org/TR/2001/REC-SVG-20010904/DTD/svg10.dtd">
<svg version="1.0" xmlns="http://www.w3.org/2000/svg"
 width="246.000000pt" height="246.000000pt" viewBox="0 0 246.000000 246.000000"
 preserveAspectRatio="xMidYMid meet">
<metadata>
Created by potrace 1.16, written by Peter Selinger 2001-2019
</metadata>
<g transform="translate(0.000000,246.000000) scale(0.100000,-0.100000)"
fill="#000000" stroke="none">
<path d="M520 1495 c-15 -45 -1 -88 45 -142 l35 -41 -35 -6 c-52 -10 -54 -27
-2 -20 27 4 53 2 67 -6 l24 -13 -27 -14 c-15 -7 -27 -15 -27 -16 0 -2 29 -2
64 -1 79 2 100 12 58 30 -58 24 -71 65 -46 143 5 16 4 22 -3 18 -6 -4 -14 -22
-17 -41 -10 -51 -29 -62 -51 -30 -14 22 -16 39 -11 86 7 71 -9 70 -18 -2 -4
-27 -11 -50 -16 -50 -16 0 -29 68 -19 103 11 39 11 37 0 37 -5 0 -15 -16 -21
-35z"/>
<path d="M1146 1484 c6 -51 -6 -94 -26 -94 -6 0 -10 11 -10 24 0 39 -12 86
-22 86 -5 0 -6 -9 -3 -21 14 -43 9 -108 -10 -129 -21 -24 -28 -19 -45 33 -6
20 -16 37 -21 37 -6 0 -5 -9 1 -21 27 -50 1 -118 -51 -134 -10 -3 -16 -11 -13
-18 3 -8 28 -12 69 -12 55 0 63 2 48 13 -9 6 -22 12 -27 12 -24 1 30 30 54 30
37 0 40 -6 21 -45 -11 -23 -23 -34 -37 -35 -46 0 -84 -13 -84 -27 0 -16 34
-15 73 2 17 7 18 3 16 -33 -4 -54 11 -71 45 -48 14 9 32 29 41 45 32 63 170
151 285 181 l45 13 -40 14 c-81 29 -238 7 -295 -42 -16 -14 -70 -9 -70 6 0 5
4 9 9 9 5 0 23 21 40 47 35 52 41 107 16 139 -14 17 -15 15 -9 -32z"/>
<path d="M1767 1092 c-16 -17 -15 -21 8 -53 14 -18 21 -35 15 -37 -17 -6 0
-22 23 -22 13 0 37 -13 54 -29 49 -45 60 -16 37 97 -5 27 -59 62 -95 62 -14 0
-33 -8 -42 -18z"/>
<path d="M770 982 c-45 -22 -51 -58 -15 -92 35 -33 120 -35 162 -4 42 31 39
74 -7 96 -19 10 -51 18 -70 18 -19 0 -51 -8 -70 -18z"/>
<path d="M1048 933 c-9 -10 -19 -28 -22 -40 -6 -17 -15 -23 -36 -23 -52 0 -70
-79 -33 -147 27 -50 76 -52 128 -6 34 30 37 52 14 100 -16 34 -20 55 -15 89 6
48 -8 59 -36 27z"/>
<path d="M1168 860 c-25 -15 -25 -17 -11 -44 8 -15 12 -39 9 -52 -5 -19 -3
-22 11 -17 10 3 24 11 31 16 21 16 23 3 12 -64 -15 -97 -14 -105 23 -128 109
-67 425 -71 562 -5 42 20 44 35 14 145 -15 58 -24 76 -35 72 -8 -3 -14 -14
-14 -24 0 -10 -4 -19 -10 -19 -5 0 -10 -10 -10 -22 0 -24 -19 -61 -21 -43 -1
6 -4 -3 -8 -20 -3 -16 -10 -29 -14 -27 -5 2 -22 -16 -39 -40 -39 -54 -45 -58
-90 -58 -37 0 -38 1 -38 35 0 26 -7 43 -27 61 -18 16 -29 21 -33 13 -5 -7 -20
2 -43 25 -35 35 -55 47 -42 26 17 -27 -18 -4 -72 49 -34 33 -63 57 -66 55 -2
-3 -10 15 -16 39 -14 47 -30 53 -73 27z"/>
<path d="M1725 458 c-47 -12 -329 -16 -397 -6 -46 7 -48 7 -48 -17 0 -13 -4
-27 -10 -30 -5 -3 -10 -22 -10 -41 0 -19 -7 -46 -16 -59 -8 -13 -14 -34 -12
-47 3 -22 6 -23 98 -23 l95 0 -1 30 c-1 17 -7 44 -14 60 -10 25 -10 36 4 68
l16 38 117 -3 c109 -4 118 -5 116 -23 -1 -10 5 -32 13 -47 13 -25 13 -31 -2
-52 -8 -14 -14 -35 -12 -48 3 -22 7 -23 101 -26 l97 -3 0 34 c0 23 -8 41 -24
57 -19 17 -24 29 -19 51 3 19 0 34 -11 44 -9 9 -16 25 -16 36 0 21 -7 22 -65
7z"/>
</g>
</svg>
