<?xml version="1.0" standalone="no"?>
<!DOCTYPE svg PUBLIC "-//W3C//DTD SVG 20010904//EN"
 "http://www.w3.org/TR/2001/REC-SVG-20010904/DTD/svg10.dtd">
<svg version="1.0" xmlns="http://www.w3.org/2000/svg"
 width="246.000000pt" height="246.000000pt" viewBox="0 0 246.000000 246.000000"
 preserveAspectRatio="xMidYMid meet">
<metadata>
Created by potrace 1.16, written by Peter Selinger 2001-2019
</metadata>
<g transform="translate(0.000000,246.000000) scale(0.100000,-0.100000)"
fill="#000000" stroke="none">
<path d="M2165 1390 c-31 -49 -47 -118 -46 -192 2 -71 -14 -77 -22 -9 -3 26
-23 90 -44 141 -37 91 -38 92 -45 59 -18 -81 10 -248 47 -279 8 -7 15 -15 15
-19 0 -3 -38 -6 -85 -6 -72 0 -85 2 -85 16 0 9 -9 28 -21 43 -25 32 -66 34
-96 6 -35 -32 -37 -57 -11 -109 21 -42 22 -52 11 -77 -30 -71 -5 -163 59 -216
l40 -33 -37 -32 c-21 -18 -42 -33 -47 -33 -12 0 -10 54 4 68 15 15 -7 42 -34
42 -35 0 -55 -18 -73 -67 -21 -58 -71 -113 -101 -113 -12 0 -32 -9 -45 -19
-22 -18 -25 -18 -44 -3 -11 9 -17 13 -12 8 4 -5 -5 -23 -20 -38 -27 -28 -27
-30 -11 -58 10 -18 13 -30 6 -32 -15 -5 4 -38 57 -98 33 -37 45 -59 45 -82 0
-29 2 -30 31 -24 17 3 38 6 46 6 10 0 8 9 -8 38 -26 45 -20 72 15 72 19 0 31
-11 50 -43 l25 -42 84 0 c106 1 141 21 182 101 15 30 38 59 50 64 11 4 27 15
34 24 11 13 11 17 -3 22 -15 6 -16 8 -1 24 9 10 24 16 33 13 22 -5 43 13 71
60 l23 37 -71 0 c-39 0 -71 2 -71 5 0 2 5 16 12 30 11 25 73 52 111 47 10 -1
17 5 17 16 0 10 9 35 20 57 11 22 20 47 20 57 0 33 18 28 55 -14 l36 -43 -6
50 c-5 43 -3 53 14 69 23 21 26 50 11 90 -9 24 -7 26 15 26 34 0 31 12 -10 49
-42 36 -75 39 -130 11 -55 -28 -56 -25 -5 23 56 53 75 77 106 132 30 55 30 61
0 41 -14 -8 -42 -25 -63 -37 -21 -11 -49 -32 -63 -44 l-25 -24 3 82 c2 45 10
108 17 140 7 31 9 57 4 57 -5 0 -20 -18 -34 -40z m-60 -421 c127 -65 127 -203
0 -239 -124 -35 -275 55 -275 164 1 77 45 108 150 104 58 -2 87 -9 125 -29z"/>
<path d="M136 1272 c-3 -5 -8 -35 -12 -66 l-7 -56 32 -6 c41 -8 54 -34 57
-109 2 -33 3 -62 3 -65 1 -3 9 10 19 29 20 40 36 45 40 12 3 -16 -6 -34 -27
-55 -54 -55 -23 -46 34 10 56 55 63 70 44 106 -8 16 -17 19 -40 14 -28 -5 -29
-4 -29 34 0 22 5 48 11 59 8 12 9 31 3 57 l-9 39 -3 -52 c-2 -29 -7 -53 -13
-53 -5 0 -9 3 -9 8 -1 15 -88 103 -94 94z"/>
<path d="M417 1092 c-19 -4 -47 -51 -47 -80 0 -10 11 -33 25 -52 14 -19 25
-39 25 -46 0 -20 74 -88 123 -112 118 -58 207 -32 207 60 0 38 -6 47 -54 94
-39 38 -69 57 -107 68 -68 21 -87 20 -132 -3 -20 -10 -37 -15 -37 -9 0 5 19
18 43 28 l42 20 -32 0 c-22 0 -33 5 -35 18 -2 11 -10 16 -21 14z"/>
</g>
</svg>
