<?xml version="1.0" standalone="no"?>
<!DOCTYPE svg PUBLIC "-//W3C//DTD SVG 20010904//EN"
 "http://www.w3.org/TR/2001/REC-SVG-20010904/DTD/svg10.dtd">
<svg version="1.0" xmlns="http://www.w3.org/2000/svg"
 width="246.000000pt" height="246.000000pt" viewBox="0 0 246.000000 246.000000"
 preserveAspectRatio="xMidYMid meet">
<metadata>
Created by potrace 1.16, written by Peter Selinger 2001-2019
</metadata>
<g transform="translate(0.000000,246.000000) scale(0.100000,-0.100000)"
fill="#000000" stroke="none">
<path d="M755 2316 c-66 -34 -150 -74 -187 -90 -69 -29 -90 -54 -68 -81 7 -8
21 -15 31 -15 24 0 25 -16 2 -25 -16 -6 -14 -10 12 -30 16 -13 27 -26 25 -28
-3 -1 -18 -11 -34 -21 -25 -16 -27 -20 -13 -33 28 -28 154 -10 205 30 9 7 17
4 28 -11 19 -28 44 -28 51 -2 4 14 11 19 23 15 13 -4 27 7 51 40 33 46 46 57
36 31 -9 -22 19 -41 38 -26 11 9 12 17 4 32 -6 11 -8 27 -5 35 4 9 2 21 -4 28
-7 9 -6 21 4 40 15 28 12 55 -5 55 -5 0 -13 10 -18 23 -6 16 -3 29 10 46 15
18 16 27 8 37 -21 26 -74 13 -194 -50z m135 -6 c-6 -11 -37 -34 -70 -52 -40
-22 -58 -38 -55 -48 2 -8 -10 -26 -27 -40 l-31 -24 6 33 c5 26 4 32 -7 28 -7
-3 -38 0 -67 8 -30 7 -48 13 -40 14 7 1 52 20 100 42 50 25 99 41 117 40 17
-1 42 3 55 8 13 5 25 10 27 10 1 1 -2 -8 -8 -19z m43 -122 c-11 -24 -18 -50
-15 -58 3 -10 1 -12 -6 -5 -5 6 -12 19 -14 30 -2 11 -10 20 -18 20 -21 0 -25
-43 -5 -65 15 -17 14 -19 -11 -39 -15 -11 -35 -21 -45 -21 -9 0 -25 -7 -34
-17 -14 -13 -18 -14 -25 -3 -7 11 -15 12 -47 1 -85 -28 -93 -30 -88 -20 4 5
13 9 21 9 8 0 12 5 9 10 -3 6 -20 10 -37 10 l-31 0 26 20 c14 11 45 23 70 26
39 6 43 9 40 29 -4 16 6 31 38 59 24 20 48 35 55 32 6 -2 17 1 23 7 8 8 11 8
11 -1 0 -7 13 -12 30 -12 19 0 30 5 30 14 0 12 28 27 38 20 2 -1 -5 -22 -15
-46z"/>
<path d="M1649 2313 c-6 -16 -12 -42 -13 -59 -2 -17 -6 -36 -10 -43 -8 -12 -2
-39 20 -88 17 -37 59 -63 101 -63 16 0 36 -9 46 -20 20 -24 31 -25 50 -6 11
12 15 11 25 -5 15 -23 40 -25 48 -4 4 8 17 15 29 15 13 0 27 5 30 10 3 6 13
10 21 10 12 0 12 -3 2 -20 -10 -16 -10 -23 4 -36 14 -14 20 -15 32 -4 9 7 16
22 16 34 0 12 5 27 11 33 7 7 12 20 13 30 1 10 8 31 16 46 12 24 11 30 -3 44
-13 14 -19 14 -32 3 -9 -8 -14 -22 -11 -32 3 -15 1 -17 -9 -8 -7 6 -18 30 -24
54 -9 37 -14 43 -31 39 -12 -3 -22 1 -26 10 -3 9 -13 13 -25 10 -10 -3 -19 0
-19 6 0 6 -11 18 -26 27 -24 16 -26 16 -53 -4 -16 -11 -45 -24 -65 -27 -31 -6
-36 -5 -36 12 0 28 -28 63 -51 63 -12 0 -23 -10 -30 -27z m49 5 c7 -7 12 -22
12 -34 0 -29 24 -48 54 -40 18 4 28 1 35 -11 8 -15 14 -16 43 -5 46 16 76 16
60 0 -7 -7 -12 -17 -12 -22 1 -6 10 0 21 13 18 21 23 23 40 13 11 -7 24 -10
29 -7 5 3 11 1 15 -5 3 -5 0 -10 -7 -10 -9 0 -8 -5 4 -16 14 -14 13 -18 -9
-40 -19 -19 -24 -33 -21 -59 4 -34 3 -35 -38 -41 -31 -4 -49 -1 -67 11 -27 17
-52 12 -41 -8 3 -7 0 -5 -8 3 -7 9 -29 17 -48 18 -47 3 -90 21 -90 38 0 20 39
17 64 -3 12 -10 15 -11 9 -3 -19 21 -16 27 17 39 19 6 30 16 29 28 -1 17 -2
17 -6 1 -6 -23 -66 -24 -119 -2 -38 16 -38 16 -15 29 15 8 20 15 12 19 -6 4
-11 17 -11 29 1 22 1 22 15 3 17 -22 20 -14 6 13 -10 18 -4 61 8 61 4 0 12 -5
19 -12z"/>
<path d="M185 2210 c-3 -11 -11 -20 -16 -20 -6 0 -8 -4 -5 -9 4 -5 -6 -19 -21
-31 -20 -15 -22 -20 -9 -15 19 6 19 5 1 -15 -10 -11 -26 -20 -37 -20 -10 0
-18 -4 -18 -10 0 -5 5 -10 10 -10 6 0 10 -7 10 -15 0 -19 -21 -19 -46 0 -10 8
-28 14 -39 14 -14 0 -11 -4 12 -14 17 -7 41 -23 52 -34 22 -22 28 -61 10 -61
-6 0 -9 6 -6 13 4 10 -2 13 -19 9 -14 -2 -24 0 -24 7 0 6 8 11 17 11 11 0 6 8
-17 25 -19 14 -35 25 -37 25 -2 0 -3 -216 -3 -480 l0 -479 58 -16 c31 -9 104
-32 162 -51 58 -19 108 -34 113 -34 4 0 7 11 7 25 0 31 31 34 59 6 11 -11 24
-15 33 -10 10 5 14 2 15 -13 3 -28 8 -31 31 -17 25 16 52 5 52 -20 0 -13 5
-19 14 -15 24 9 29 -17 8 -38 -19 -19 -22 -20 -36 -5 -9 8 -16 20 -16 26 0 6
-11 11 -23 11 -13 0 -32 9 -42 20 -21 24 -53 26 -61 5 -5 -12 -9 -13 -21 -3
-11 9 -16 9 -24 -3 -12 -20 12 -35 96 -60 85 -26 126 -46 122 -60 -1 -7 3 -13
9 -16 12 -4 11 37 -1 56 -3 6 1 11 10 11 9 0 24 -13 33 -30 11 -20 22 -28 34
-24 9 2 19 0 23 -6 4 -7 0 -10 -11 -8 -14 2 -18 -3 -17 -17 1 -18 -12 -34 -29
-35 -5 0 -8 6 -8 14 0 8 -7 16 -15 20 -8 3 -15 1 -15 -4 0 -6 5 -10 11 -10 5
0 8 -4 5 -9 -3 -5 1 -14 8 -21 20 -16 56 4 56 31 0 25 23 20 28 -5 2 -10 -2
-31 -8 -47 -11 -25 -18 -29 -46 -27 -45 3 -54 -9 -24 -32 25 -19 121 -50 154
-50 11 0 15 -4 10 -12 -6 -9 -3 -9 9 0 9 8 21 11 27 7 6 -4 17 0 23 8 7 9 23
18 37 20 l25 4 -26 2 c-15 0 -32 -6 -39 -14 -11 -14 -14 -13 -27 5 -8 11 -20
20 -28 20 -19 0 -35 32 -35 68 0 25 3 29 20 25 10 -3 27 -17 36 -31 14 -21 18
-23 25 -9 8 14 15 13 69 -6 59 -22 61 -23 58 -56 -2 -19 -9 -37 -17 -39 -8 -3
-11 0 -7 6 3 6 2 13 -3 16 -5 4 -8 -2 -7 -11 2 -10 -4 -28 -12 -40 -8 -14 -11
-30 -7 -40 5 -10 7 -22 6 -26 -1 -5 2 -6 7 -3 5 3 32 2 61 -3 28 -4 49 -6 46
-3 -3 3 4 11 15 19 11 8 20 23 20 34 0 15 6 19 29 17 16 -1 35 2 43 8 7 6 25
10 40 9 15 0 24 3 21 8 -3 4 -11 6 -19 3 -8 -3 -21 -3 -29 0 -17 7 -21 34 -5
34 6 0 10 5 10 11 0 8 -5 8 -15 -1 -10 -9 -15 -9 -15 -1 0 8 -6 8 -17 2 -10
-5 -26 -12 -35 -15 -10 -3 -17 -13 -17 -23 1 -15 2 -16 6 -2 4 16 63 33 63 18
0 -4 3 -15 7 -25 5 -14 1 -16 -26 -12 -17 3 -34 1 -37 -4 -3 -4 -18 2 -35 14
-34 25 -42 78 -11 78 16 1 16 1 0 14 -10 7 -17 24 -17 37 1 14 3 17 6 8 3 -13
14 -14 66 -8 69 9 167 31 210 48 16 6 30 11 33 11 2 0 4 -20 4 -45 0 -37 -4
-47 -25 -61 -24 -16 -27 -16 -40 2 -13 17 -15 18 -30 3 -19 -18 -10 -49 14
-49 10 0 12 -3 5 -8 -29 -19 -38 -102 -13 -118 13 -8 11 -44 -3 -44 -6 0 -9
-3 -6 -6 13 -12 77 -19 168 -18 88 1 103 5 215 49 66 26 124 51 130 56 5 5 17
9 27 9 10 0 18 4 18 10 0 5 -7 7 -15 4 -19 -8 -19 10 1 40 10 17 16 51 17 113
1 104 -23 166 -74 187 l-30 12 38 12 c27 8 39 8 44 1 5 -8 16 -8 40 -1 19 6
56 14 83 17 27 3 53 8 58 11 4 3 8 -4 8 -15 0 -12 -6 -21 -14 -21 -17 0 -29
-30 -21 -51 2 -8 -11 -32 -30 -54 -37 -42 -38 -44 -14 -137 9 -35 22 -45 54
-38 5 1 46 3 90 4 88 2 87 2 195 41 41 14 98 34 125 43 29 10 43 18 33 20 -10
2 -18 7 -18 12 0 9 5 14 47 48 21 17 22 19 9 102 -8 47 -19 98 -25 113 -6 16
-11 30 -11 33 0 2 27 4 60 4 l60 0 0 420 c0 231 -4 420 -8 420 -13 0 -42 -34
-42 -49 0 -7 5 -9 12 -5 7 4 8 3 4 -4 -4 -7 -2 -12 3 -12 6 0 11 -5 11 -11 0
-6 -20 6 -44 26 -32 26 -43 41 -39 55 6 22 18 26 28 10 3 -6 12 -10 18 -10 7
0 4 5 -5 11 -23 13 -23 30 -1 22 11 -4 14 -3 9 5 -4 7 -13 12 -19 12 -7 0 -23
7 -36 16 -16 12 -20 19 -12 27 17 17 13 27 -11 27 -13 0 -32 7 -42 15 -20 15
-20 15 0 16 14 0 12 3 -9 11 -18 6 -26 15 -23 24 3 8 -1 14 -8 14 -7 0 -18 10
-24 23 -10 20 -11 19 -9 -13 1 -19 6 -38 11 -42 5 -3 2 -17 -7 -32 -20 -30
-21 -37 -6 -34 21 5 21 -20 0 -41 -26 -26 -26 -29 -3 -27 9 0 20 8 24 16 6 13
7 13 7 0 1 -16 -14 -48 -45 -95 -17 -26 -17 -28 -1 -22 12 4 17 1 17 -11 1
-15 2 -15 13 -2 7 8 20 16 30 16 24 2 22 -38 -2 -60 -25 -23 -65 -13 -56 13 5
15 1 17 -21 13 -19 -3 -25 -1 -20 7 4 6 1 11 -9 11 -9 0 -25 10 -36 23 l-19
22 10 -29 c6 -16 8 -36 5 -44 -3 -9 -1 -19 6 -22 8 -6 8 -13 0 -29 -13 -23 -2
-28 18 -8 8 7 6 -4 -5 -31 -14 -37 -15 -45 -3 -53 8 -5 18 -4 23 1 12 12 26
13 26 2 0 -5 -20 -23 -45 -41 -24 -17 -54 -46 -66 -64 l-23 -32 28 25 c23 21
29 22 36 10 13 -21 12 -33 -4 -55 -14 -19 -14 -19 -36 0 -18 16 -23 17 -30 5
-6 -8 -10 -19 -10 -25 0 -5 4 -4 9 3 7 11 12 12 29 1 17 -10 18 -16 9 -36 -11
-25 -15 -27 -36 -14 -10 7 -19 4 -28 -7 -15 -20 -18 -76 -3 -67 5 3 10 1 10
-4 0 -6 -11 -12 -25 -12 -14 -1 -31 -2 -37 -3 -8 -1 -12 9 -11 22 2 14 -3 22
-13 22 -10 0 -14 6 -11 14 3 8 1 16 -5 18 -7 3 -17 20 -24 39 -11 31 -13 32
-14 9 -1 -14 -2 -31 -1 -38 1 -7 -5 -15 -14 -19 -13 -5 -14 -8 -3 -15 10 -7 9
-11 -5 -22 -12 -10 -15 -16 -7 -21 8 -5 6 -13 -6 -26 -20 -23 -44 -25 -44 -4
0 8 -4 15 -10 15 -5 0 -10 6 -10 14 0 7 -7 19 -15 26 -13 11 -15 8 -15 -18 0
-17 -5 -34 -10 -37 -8 -5 -8 -11 0 -20 14 -17 -7 -30 -69 -44 -46 -10 -91 4
-83 27 2 6 -1 12 -7 12 -6 0 -11 6 -11 14 0 7 -7 19 -15 26 -13 11 -15 8 -15
-19 0 -17 -5 -31 -11 -31 -6 0 -8 -7 -5 -17 4 -9 1 -20 -6 -24 -23 -15 5 -30
37 -20 33 9 58 4 50 -9 -3 -5 -1 -11 5 -15 5 -3 10 3 10 14 0 20 15 28 61 29
21 1 30 -7 48 -41 37 -71 46 -79 77 -71 16 4 26 3 22 -1 -4 -4 -34 -9 -67 -10
-52 -2 -61 0 -66 16 -4 11 -10 19 -15 19 -5 0 -12 16 -16 35 -3 20 -11 34 -18
32 -18 -6 -18 -42 1 -86 17 -38 20 -41 48 -35 16 3 27 3 22 -2 -4 -4 -32 -8
-62 -8 -54 -1 -55 -1 -70 37 -8 20 -20 36 -26 35 -6 -2 -14 4 -16 12 -4 13 -3
13 6 0 9 -13 11 -13 11 3 0 9 7 17 15 17 8 0 15 5 15 10 0 12 -37 13 -44 1 -8
-13 -46 -1 -43 13 1 6 -4 10 -11 8 -8 -1 -11 2 -7 8 4 6 2 17 -4 24 -9 10 -8
15 4 20 21 8 19 23 -6 31 -13 4 -18 12 -15 22 3 8 -1 21 -9 29 -8 8 -12 21 -9
29 4 8 1 15 -5 15 -6 0 -11 10 -11 22 0 32 -18 10 -22 -27 -2 -16 -11 -36 -22
-44 -13 -10 -15 -16 -6 -21 7 -4 9 -13 6 -19 -9 -14 -46 -15 -46 -1 0 6 5 10
10 10 6 0 10 7 10 15 0 8 -9 15 -19 15 -23 0 -40 22 -23 28 19 6 14 18 -13 30
-15 7 -22 17 -19 26 3 8 1 17 -5 21 -6 3 -11 15 -11 26 0 10 -4 19 -10 19 -5
0 -10 -9 -10 -21 0 -11 -5 -29 -10 -40 -8 -14 -7 -19 1 -19 7 0 2 -12 -12 -26
-15 -17 -20 -28 -12 -31 18 -6 4 -33 -18 -33 -10 0 -19 -7 -19 -15 0 -8 7 -15
15 -15 24 0 17 -25 -15 -53 -29 -26 -39 -47 -22 -47 8 0 9 -3 18 -89 6 -53 6
-54 -17 -48 -13 4 -28 7 -33 7 -4 0 -6 15 -2 33 16 89 17 102 2 112 -17 13
-22 43 -12 67 13 29 2 52 -34 71 -27 13 -35 23 -35 44 0 36 -45 61 -81 44 -29
-13 -30 -9 -6 15 16 17 16 18 0 11 -10 -3 -18 -3 -18 1 0 4 -14 16 -31 26 -31
18 -35 42 -6 40 33 -3 36 -4 40 -21 4 -16 5 -16 6 -2 1 20 16 27 51 25 22 -1
25 -6 25 -36 0 -23 -4 -34 -12 -33 -7 2 -13 -2 -13 -7 0 -14 13 -13 28 2 25
25 5 105 -23 94 -9 -3 -12 0 -9 8 3 8 1 17 -5 21 -6 3 -9 0 -5 -8 3 -8 -6 -21
-20 -30 -23 -15 -25 -15 -40 6 -11 16 -15 18 -15 7 -1 -12 -14 -16 -54 -16
-46 -1 -61 -6 -98 -35 -56 -43 -59 -48 -54 -79 3 -14 2 -18 -1 -10 -4 8 -12
18 -18 22 -6 4 -11 13 -12 20 0 7 -5 24 -11 38 -6 14 -12 32 -15 40 -3 10 -12
-1 -26 -29 -12 -24 -19 -48 -16 -52 3 -5 -4 -9 -15 -9 -12 0 -21 4 -21 8 0 5
-18 14 -40 21 -27 8 -45 21 -55 41 -14 27 -14 30 7 44 12 9 19 19 15 22 -4 4
-15 0 -26 -10 -16 -14 -20 -15 -30 -2 -14 17 3 61 20 51 21 -13 7 16 -30 63
-36 45 -107 92 -139 92 -7 0 -12 6 -12 14 0 7 -11 30 -25 50 -22 32 -23 39
-11 51 7 8 16 11 20 8 3 -4 6 -1 6 6 0 7 -16 31 -35 54 -42 49 -43 56 -9 49
l27 -5 -22 22 c-25 25 -27 41 -4 41 14 0 14 3 -4 23 -15 17 -19 32 -15 65 4
44 -2 56 -13 22z m74 -737 c21 -25 31 -32 31 -21 0 25 21 33 26 10 5 -16 13
-19 48 -16 38 3 46 0 71 -28 26 -29 29 -30 36 -12 6 17 8 17 19 -7 11 -24 16
-26 55 -22 39 4 45 1 64 -26 22 -30 22 -30 41 -11 28 28 40 25 40 -9 0 -31
-14 -41 -60 -41 -22 0 -29 5 -33 29 -8 39 -40 57 -58 33 -12 -15 -12 -16 2 -4
13 10 19 9 30 -5 11 -13 11 -15 1 -9 -8 5 -20 1 -31 -8 -16 -15 -19 -14 -29 9
-9 20 -17 24 -46 21 -31 -2 -36 1 -41 25 -4 15 -13 33 -21 39 -14 12 -45 7
-43 -7 1 -4 1 -17 0 -28 -1 -18 -3 -17 -14 5 -10 20 -20 25 -52 25 -35 0 -41
3 -50 30 -5 16 -20 34 -32 41 -13 6 -20 14 -16 17 14 15 33 5 62 -30z m753
-81 c-3 -9 -16 -13 -38 -10 -40 5 -46 -9 -9 -18 17 -4 32 -1 44 10 10 9 20 14
23 11 7 -8 -47 -65 -61 -65 -17 0 -13 -11 15 -37 19 -18 23 -27 15 -37 -6 -7
-7 -16 -3 -21 8 -8 -40 0 -102 18 -30 9 -42 19 -53 46 -23 53 -9 81 50 100 61
21 127 22 119 3z m381 -156 c7 -18 -1 -26 -28 -26 -22 0 -22 -1 -10 -60 7 -33
10 -61 6 -62 -3 0 14 -4 39 -8 34 -5 23 -6 -44 -6 -49 1 -81 2 -72 4 13 3 15
13 11 55 -2 29 -4 56 -5 61 0 4 -9 6 -20 3 -10 -3 -21 0 -24 7 -3 7 -8 6 -15
-4 -16 -22 -13 -29 9 -23 18 5 20 0 20 -45 0 -41 -3 -51 -20 -55 -11 -3 -18
-1 -14 4 3 5 -1 9 -9 9 -14 0 -15 39 -2 104 3 14 -1 17 -21 13 -14 -2 -24 0
-24 7 0 9 16 10 53 6 28 -3 62 -5 75 -4 12 1 36 2 53 3 23 1 30 5 25 16 -3 8
-1 15 3 15 5 0 11 -6 14 -14z m907 -116 c20 -11 53 -103 65 -182 6 -41 5 -47
-16 -58 -19 -11 -24 -9 -40 11 -15 20 -19 21 -33 10 -9 -7 -16 -22 -16 -33 0
-21 -34 -38 -116 -57 -49 -12 -52 -14 -58 -51 -9 -59 -40 -66 -51 -11 -9 47
18 69 35 29 5 -14 9 -17 9 -7 1 8 -5 24 -13 34 -16 22 -46 14 -46 -14 0 -20
-18 -31 -51 -31 -19 0 -24 13 -20 62 2 24 -1 26 -33 25 -20 0 -33 -3 -31 -6 3
-2 0 -10 -6 -17 -16 -19 -2 -34 32 -34 16 0 29 -5 29 -11 0 -7 -11 -9 -29 -6
-18 4 -31 2 -33 -5 -6 -17 -38 -2 -38 18 0 27 61 95 104 115 34 16 36 19 14
16 -35 -5 -37 14 -6 85 19 44 28 54 72 73 45 19 99 36 161 49 39 8 97 6 115
-4z m-1627 -133 c8 7 10 -10 7 -44 -1 -13 4 -23 10 -23 7 0 9 8 5 22 -6 16 -4
20 8 15 11 -4 14 -2 10 9 -4 10 0 12 11 8 12 -5 15 -2 10 11 -5 13 -3 16 7 13
8 -3 14 -16 14 -29 0 -14 5 -23 13 -21 7 1 19 -3 26 -10 12 -11 11 -17 -7 -35
-11 -13 -17 -26 -13 -30 4 -4 18 6 31 22 24 30 25 30 31 8 4 -13 14 -23 25
-23 12 0 16 -5 13 -15 -4 -8 -12 -15 -19 -15 -21 0 -28 -19 -13 -37 11 -14 10
-15 -12 -8 -14 5 -31 8 -37 8 -9 0 -10 4 -3 12 11 13 -7 26 -46 34 -4 0 -2 7
3 14 15 19 24 49 13 42 -6 -3 -10 -13 -10 -21 0 -15 -12 -19 -24 -7 -13 14
-38 12 -32 -2 3 -8 1 -17 -5 -21 -6 -3 -13 4 -16 16 -3 12 -11 19 -18 16 -8
-3 -16 2 -19 10 -3 8 -11 14 -17 14 -8 0 -8 -4 1 -15 20 -24 5 -29 -25 -9 -15
10 -23 20 -16 22 6 2 11 13 11 24 0 21 0 21 21 2 21 -19 21 -19 17 6 -4 30 12
52 28 39 6 -5 14 -6 17 -2z m1001 -67 c30 -11 56 -57 59 -107 l2 -37 -75 -23
c-126 -39 -233 -59 -238 -45 -7 22 -29 12 -47 -22 -12 -23 -24 -32 -33 -28
-10 3 -13 1 -8 -6 12 -19 26 -14 38 13 10 21 16 25 39 20 24 -5 245 45 312 70
9 4 17 3 17 -2 0 -9 -154 -61 -252 -84 -27 -6 -48 -15 -48 -20 0 -13 4 -12
115 21 113 34 122 35 107 17 -6 -6 -12 -28 -14 -47 -3 -34 -4 -34 -93 -61
l-90 -27 -17 40 c-19 43 -36 45 -55 8 -7 -13 -21 -27 -31 -31 -23 -9 -62 -1
-62 12 0 5 -14 9 -31 9 -17 0 -28 -4 -24 -10 3 -5 -3 -10 -14 -10 -37 0 -31
17 10 29 23 7 43 10 47 7 9 -10 32 16 32 36 0 18 -5 20 -32 14 -44 -9 -60 -26
-22 -23 16 1 32 7 36 12 4 6 8 2 8 -7 0 -13 -8 -18 -29 -18 -16 0 -41 -4 -55
-10 -14 -5 -26 -6 -26 -2 0 12 88 102 100 102 5 0 10 22 10 49 0 27 5 51 11
53 5 2 11 18 11 35 1 28 6 34 42 48 85 32 246 46 300 25z"/>
<path d="M1685 1833 c-5 -35 -9 -38 -38 -37 -18 0 -40 3 -49 7 -37 15 -48 16
-48 7 0 -6 6 -10 13 -11 6 0 3 -4 -8 -9 -18 -8 -17 -9 8 -9 19 -1 27 -6 27
-18 0 -15 2 -16 10 -3 5 8 20 16 34 17 24 2 24 1 5 -18 -10 -10 -24 -19 -31
-19 -6 0 -23 -10 -36 -22 -23 -21 -24 -21 -14 -3 7 15 7 25 -3 38 -11 15 -13
13 -18 -20 -4 -20 -5 -39 -3 -40 9 -9 139 -24 182 -21 l49 3 -38 39 c-21 21
-35 41 -32 44 6 7 123 3 148 -4 9 -3 17 -10 17 -15 0 -6 -5 -7 -10 -4 -7 4 -8
-3 -4 -21 5 -19 4 -25 -5 -20 -6 4 -11 2 -11 -3 0 -6 9 -11 20 -11 15 0 20 7
20 29 0 31 16 43 48 34 13 -3 18 -11 15 -19 -7 -20 4 -17 28 7 24 24 18 34
-28 44 -22 4 -33 3 -33 -5 0 -18 -152 -1 -168 19 -10 13 -14 13 -21 2 -15 -23
-23 6 -12 44 5 19 6 35 1 35 -5 0 -11 -17 -15 -37z"/>
<path d="M1133 1841 l-23 -19 18 -86 c10 -50 22 -83 27 -79 5 4 3 0 -4 -9 -7
-9 -9 -23 -5 -29 4 -7 3 -9 -4 -5 -6 3 -14 2 -17 -4 -12 -20 83 -3 111 19 22
18 36 20 70 15 37 -5 43 -3 49 15 6 19 9 20 33 7 24 -12 92 -11 92 1 0 2 -7
12 -16 20 -13 14 -17 14 -25 2 -7 -11 -9 -11 -9 4 0 9 -4 17 -10 17 -5 0 -10
-7 -10 -15 0 -19 -4 -19 -41 1 -46 23 -67 49 -71 86 -3 29 -6 33 -28 30 -14
-2 -44 -5 -67 -6 -23 -1 -49 -8 -57 -16 -14 -11 -16 -9 -16 14 0 30 27 46 42
25 7 -11 8 -10 6 5 -4 27 -19 29 -45 7z"/>
<path d="M2000 1716 c0 -15 -3 -16 -15 -6 -13 10 -19 10 -35 -5 -11 -10 -20
-24 -20 -32 0 -33 -107 -40 -276 -16 -40 5 -41 5 -37 -23 4 -31 -14 -75 -33
-81 -7 -2 -11 4 -10 14 0 10 -6 18 -14 19 -8 0 -23 4 -33 9 -11 4 -23 3 -30
-4 -6 -6 -16 -11 -21 -11 -6 0 -2 7 8 15 11 8 17 18 13 21 -3 4 5 16 19 26 31
25 23 36 -10 14 -33 -21 -60 -79 -52 -111 4 -14 21 -35 39 -46 l32 -20 -39 3
c-41 3 -61 -16 -35 -33 23 -15 62 -10 139 16 87 29 80 29 80 11 0 -8 8 -22 17
-32 16 -16 16 -16 -5 -10 -12 4 -22 3 -22 -2 0 -5 -12 -8 -27 -5 -24 3 -25 2
-8 -6 19 -9 19 -10 -2 -10 -12 -1 -23 5 -26 12 -2 6 -8 9 -12 5 -14 -13 6 -28
38 -28 43 0 184 67 170 81 -11 11 -45 1 -37 -12 3 -5 -2 -6 -11 -3 -9 4 -14
12 -11 19 2 7 1 16 -4 21 -19 20 36 60 114 82 73 22 79 22 90 6 21 -28 39 -7
33 37 -3 22 -1 39 3 39 4 0 6 10 3 23 -5 22 -5 22 10 2 9 -11 17 -26 17 -33 0
-7 5 -10 10 -7 13 8 13 45 0 65 -8 13 -10 12 -10 -4z m-47 -96 c-5 -17 -7 -18
-17 -6 -17 23 -167 -27 -210 -70 -63 -63 -175 -75 -236 -26 -20 16 -18 17 62
17 82 1 98 6 193 58 19 10 162 44 197 46 11 1 15 -5 11 -19z"/>
<path d="M150 975 c0 -2 9 -19 20 -37 26 -42 25 -43 -9 -57 -19 -8 -37 -29
-54 -64 -42 -87 -50 -117 -40 -171 10 -57 26 -70 157 -118 58 -21 90 -28 120
-24 57 7 135 39 165 67 13 13 21 18 17 12 -4 -7 -4 -13 1 -13 12 1 48 30 37
30 -6 0 -8 28 -6 68 3 54 1 72 -12 85 -9 9 -18 20 -19 24 -1 4 -11 8 -22 9
-38 1 -46 4 -40 13 3 6 -5 15 -17 22 -13 7 -34 22 -46 35 -32 31 -115 58 -159
51 -33 -6 -36 -4 -51 33 -10 22 -23 40 -29 40 -7 0 -13 -2 -13 -5z"/>
<path d="M2140 662 c0 -9 -7 -11 -22 -6 -13 3 -20 3 -15 -1 4 -5 17 -9 29 -10
17 -1 23 -9 25 -28 1 -19 -3 -27 -14 -27 -10 0 -13 6 -8 18 5 14 4 15 -6 5
-19 -19 -29 -16 -29 7 0 11 -5 20 -11 20 -6 0 -8 -9 -4 -21 5 -16 3 -20 -12
-17 -13 2 -18 -3 -17 -19 0 -13 -3 -23 -8 -23 -4 0 -8 -7 -8 -15 0 -8 -5 -15
-10 -15 -7 0 -7 -6 -1 -19 12 -22 51 -35 51 -16 0 7 -7 12 -16 11 -9 0 -19 5
-22 13 -3 10 1 12 17 8 11 -3 21 -1 21 4 0 5 -4 9 -9 9 -5 0 -8 11 -7 25 1 19
6 24 21 22 11 -1 25 -5 31 -9 9 -6 67 3 117 18 33 10 17 -15 -18 -26 -21 -7
-35 -18 -35 -28 -1 -16 -1 -16 -10 0 -12 20 -47 13 -61 -14 -8 -14 -6 -25 5
-43 18 -28 20 -45 6 -45 -5 0 -10 7 -10 15 0 8 -4 15 -10 15 -5 0 -9 -6 -7
-12 1 -7 -6 -12 -15 -12 -10 1 -18 -2 -18 -7 0 -5 12 -10 28 -10 16 -1 20 -3
10 -6 -23 -6 -23 -19 0 -25 29 -8 55 17 50 47 -4 19 -1 25 13 25 15 0 19 -8
19 -41 0 -48 -15 -79 -38 -79 -9 0 -24 -5 -32 -10 -56 -35 147 -43 214 -8 25
13 6 31 -33 31 -35 0 -54 29 -49 73 4 39 29 41 50 4 19 -34 35 -38 46 -12 4 9
14 17 22 17 11 0 15 11 15 40 0 22 6 50 12 62 16 27 7 53 -19 53 -12 0 -26 8
-33 17 -7 9 -23 18 -36 20 -13 2 -26 7 -29 11 -7 11 -27 9 -40 -4 -8 -8 -5
-11 14 -9 14 2 26 -1 26 -6 0 -6 5 -7 12 -3 8 5 9 2 4 -12 -16 -37 -18 -54 -8
-54 9 0 24 25 26 44 1 5 7 11 15 14 10 3 12 -1 9 -16 -3 -11 -1 -26 4 -33 8
-11 9 -10 4 4 -4 13 0 17 18 17 13 0 23 -6 23 -15 0 -8 -6 -15 -14 -15 -7 0
-13 -7 -13 -15 0 -17 -16 -21 -22 -5 -2 6 -8 6 -18 0 -13 -8 -12 -10 3 -10 9
0 17 -5 17 -11 0 -6 -7 -8 -16 -5 -9 3 -20 6 -25 6 -5 0 -9 7 -9 16 0 10 -6
14 -15 11 -21 -9 -28 9 -13 33 11 17 11 22 -2 30 -9 5 -19 5 -27 -1 -17 -15
-54 7 -46 26 3 9 12 14 21 13 8 -2 17 2 19 9 4 12 -9 11 -41 -2 -12 -5 -21 -3
-27 6 -7 11 -9 11 -9 1z"/>
<path d="M570 571 c0 -5 7 -25 15 -44 8 -20 15 -39 15 -41 0 -3 -17 -14 -39
-25 -26 -14 -44 -33 -55 -58 -10 -21 -28 -60 -42 -86 -21 -42 -23 -54 -16
-102 7 -45 6 -55 -7 -60 -22 -9 37 -39 159 -82 104 -36 153 -41 196 -18 16 8
48 15 72 15 30 0 47 6 59 20 10 11 21 20 26 20 14 0 58 38 49 42 -5 1 -6 26
-2 53 6 50 -5 95 -23 95 -5 0 -6 -7 -3 -16 5 -12 2 -15 -10 -10 -12 5 -15 2
-10 -10 3 -8 6 -18 6 -21 0 -3 7 0 15 7 8 7 15 9 15 5 0 -12 -45 -43 -50 -34
-3 4 -16 6 -28 2 -17 -4 -21 -10 -16 -27 5 -17 4 -18 -6 -9 -10 9 -16 8 -27
-3 -15 -15 -78 -20 -69 -6 9 15 -44 63 -63 57 -13 -4 -17 0 -17 17 1 20 13 27
84 50 78 26 85 27 124 13 42 -14 63 -12 52 6 -3 5 -9 7 -14 4 -18 -11 -60 7
-60 26 0 11 -8 23 -17 26 -9 4 -33 23 -54 44 -41 41 -124 74 -171 67 -29 -5
-32 -2 -51 44 -19 43 -37 63 -37 39z"/>
</g>
</svg>
